solid OpenSCAD_Model
  facet normal 0.998027 0.0627925 0
    outer loop
      vertex 9 0 0
      vertex 8.92903 1.128 -4
      vertex 8.92903 1.128 0
    endloop
  endfacet
  facet normal 0.998027 0.0627925 0
    outer loop
      vertex 8.92903 1.128 -4
      vertex 9 0 0
      vertex 9 0 -4
    endloop
  endfacet
  facet normal -0.998027 0.0627925 0
    outer loop
      vertex -9 0 -4
      vertex -8.92903 1.128 0
      vertex -8.92903 1.128 -4
    endloop
  endfacet
  facet normal -0.998027 0.0627925 0
    outer loop
      vertex -8.92903 1.128 0
      vertex -9 0 -4
      vertex -9 0 0
    endloop
  endfacet
  facet normal 0 1 -0
    outer loop
      vertex 0.565114 8.98224 -4
      vertex -0.565114 8.98224 0
      vertex 0.565114 8.98224 0
    endloop
  endfacet
  facet normal 0 1 0
    outer loop
      vertex -0.565114 8.98224 0
      vertex 0.565114 8.98224 -4
      vertex -0.565114 8.98224 -4
    endloop
  endfacet
  facet normal 0 -1 0
    outer loop
      vertex -0.565114 -8.98224 -4
      vertex 0.565114 -8.98224 0
      vertex -0.565114 -8.98224 0
    endloop
  endfacet
  facet normal 0 -1 -0
    outer loop
      vertex 0.565114 -8.98224 0
      vertex -0.565114 -8.98224 -4
      vertex 0.565114 -8.98224 -4
    endloop
  endfacet
  facet normal 0.68455 0.728966 -0
    outer loop
      vertex 6.56072 6.16092 -4
      vertex 5.73682 6.93462 0
      vertex 6.56072 6.16092 0
    endloop
  endfacet
  facet normal 0.68455 0.728966 0
    outer loop
      vertex 5.73682 6.93462 0
      vertex 6.56072 6.16092 -4
      vertex 5.73682 6.93462 -4
    endloop
  endfacet
  facet normal -0.68455 0.728966 0
    outer loop
      vertex -5.73682 6.93462 -4
      vertex -6.56072 6.16092 0
      vertex -5.73682 6.93462 0
    endloop
  endfacet
  facet normal -0.68455 0.728966 0
    outer loop
      vertex -6.56072 6.16092 0
      vertex -5.73682 6.93462 -4
      vertex -6.56072 6.16092 -4
    endloop
  endfacet
  facet normal -0.368128 0.929775 0
    outer loop
      vertex -2.78115 8.55951 -4
      vertex -3.83201 8.14344 0
      vertex -2.78115 8.55951 0
    endloop
  endfacet
  facet normal -0.368128 0.929775 0
    outer loop
      vertex -3.83201 8.14344 0
      vertex -2.78115 8.55951 -4
      vertex -3.83201 8.14344 -4
    endloop
  endfacet
  facet normal 0.951056 -0.309017 0
    outer loop
      vertex 8.36799 -3.31312 0
      vertex 8.71725 -2.23821 -4
      vertex 8.71725 -2.23821 0
    endloop
  endfacet
  facet normal 0.951056 -0.309017 0
    outer loop
      vertex 8.71725 -2.23821 -4
      vertex 8.36799 -3.31312 0
      vertex 8.36799 -3.31312 -4
    endloop
  endfacet
  facet normal 0.904826 0.425781 0
    outer loop
      vertex 8.36799 3.31312 0
      vertex 7.88676 4.33578 -4
      vertex 7.88676 4.33578 0
    endloop
  endfacet
  facet normal 0.904826 0.425781 0
    outer loop
      vertex 7.88676 4.33578 -4
      vertex 8.36799 3.31312 0
      vertex 8.36799 3.31312 -4
    endloop
  endfacet
  facet normal 0.982288 0.187378 0
    outer loop
      vertex 8.92903 1.128 0
      vertex 8.71725 2.23821 -4
      vertex 8.71725 2.23821 0
    endloop
  endfacet
  facet normal 0.982288 0.187378 0
    outer loop
      vertex 8.71725 2.23821 -4
      vertex 8.92903 1.128 0
      vertex 8.92903 1.128 -4
    endloop
  endfacet
  facet normal 0.844328 0.535826 0
    outer loop
      vertex 7.88676 4.33578 0
      vertex 7.28115 5.29007 -4
      vertex 7.28115 5.29007 0
    endloop
  endfacet
  facet normal 0.844328 0.535826 0
    outer loop
      vertex 7.28115 5.29007 -4
      vertex 7.88676 4.33578 0
      vertex 7.88676 4.33578 -4
    endloop
  endfacet
  facet normal 0.368128 0.929775 -0
    outer loop
      vertex 3.83201 8.14344 -4
      vertex 2.78115 8.55951 0
      vertex 3.83201 8.14344 0
    endloop
  endfacet
  facet normal 0.368128 0.929775 0
    outer loop
      vertex 2.78115 8.55951 0
      vertex 3.83201 8.14344 -4
      vertex 2.78115 8.55951 -4
    endloop
  endfacet
  facet normal 0.248685 0.968585 -0
    outer loop
      vertex 2.78115 8.55951 -4
      vertex 1.68643 8.84058 0
      vertex 2.78115 8.55951 0
    endloop
  endfacet
  facet normal 0.248685 0.968585 0
    outer loop
      vertex 1.68643 8.84058 0
      vertex 2.78115 8.55951 -4
      vertex 1.68643 8.84058 -4
    endloop
  endfacet
  facet normal 0.481751 0.876308 -0
    outer loop
      vertex 4.82244 7.59895 -4
      vertex 3.83201 8.14344 0
      vertex 4.82244 7.59895 0
    endloop
  endfacet
  facet normal 0.481751 0.876308 0
    outer loop
      vertex 3.83201 8.14344 0
      vertex 4.82244 7.59895 -4
      vertex 3.83201 8.14344 -4
    endloop
  endfacet
  facet normal -0.904826 0.425781 0
    outer loop
      vertex -8.36799 3.31312 -4
      vertex -7.88676 4.33578 0
      vertex -7.88676 4.33578 -4
    endloop
  endfacet
  facet normal -0.904826 0.425781 0
    outer loop
      vertex -7.88676 4.33578 0
      vertex -8.36799 3.31312 -4
      vertex -8.36799 3.31312 0
    endloop
  endfacet
  facet normal -0.951056 0.309017 0
    outer loop
      vertex -8.71725 2.23821 -4
      vertex -8.36799 3.31312 0
      vertex -8.36799 3.31312 -4
    endloop
  endfacet
  facet normal -0.951056 0.309017 0
    outer loop
      vertex -8.36799 3.31312 0
      vertex -8.71725 2.23821 -4
      vertex -8.71725 2.23821 0
    endloop
  endfacet
  facet normal -0.248685 0.968585 0
    outer loop
      vertex -1.68643 8.84058 -4
      vertex -2.78115 8.55951 0
      vertex -1.68643 8.84058 0
    endloop
  endfacet
  facet normal -0.248685 0.968585 0
    outer loop
      vertex -2.78115 8.55951 0
      vertex -1.68643 8.84058 -4
      vertex -2.78115 8.55951 -4
    endloop
  endfacet
  facet normal 0.125337 -0.992114 0
    outer loop
      vertex 0.565114 -8.98224 -4
      vertex 1.68643 -8.84058 0
      vertex 0.565114 -8.98224 0
    endloop
  endfacet
  facet normal 0.125337 -0.992114 0
    outer loop
      vertex 1.68643 -8.84058 0
      vertex 0.565114 -8.98224 -4
      vertex 1.68643 -8.84058 -4
    endloop
  endfacet
  facet normal 0.951056 0.309017 0
    outer loop
      vertex 8.71725 2.23821 0
      vertex 8.36799 3.31312 -4
      vertex 8.36799 3.31312 0
    endloop
  endfacet
  facet normal 0.951056 0.309017 0
    outer loop
      vertex 8.36799 3.31312 -4
      vertex 8.71725 2.23821 0
      vertex 8.71725 2.23821 -4
    endloop
  endfacet
  facet normal 0.770513 0.637424 0
    outer loop
      vertex 7.28115 5.29007 0
      vertex 6.56072 6.16092 -4
      vertex 6.56072 6.16092 0
    endloop
  endfacet
  facet normal 0.770513 0.637424 0
    outer loop
      vertex 6.56072 6.16092 -4
      vertex 7.28115 5.29007 0
      vertex 7.28115 5.29007 -4
    endloop
  endfacet
  facet normal 0.125337 0.992114 -0
    outer loop
      vertex 1.68643 8.84058 -4
      vertex 0.565114 8.98224 0
      vertex 1.68643 8.84058 0
    endloop
  endfacet
  facet normal 0.125337 0.992114 0
    outer loop
      vertex 0.565114 8.98224 0
      vertex 1.68643 8.84058 -4
      vertex 0.565114 8.98224 -4
    endloop
  endfacet
  facet normal 0.587782 0.80902 -0
    outer loop
      vertex 5.73682 6.93462 -4
      vertex 4.82244 7.59895 0
      vertex 5.73682 6.93462 0
    endloop
  endfacet
  facet normal 0.587782 0.80902 0
    outer loop
      vertex 4.82244 7.59895 0
      vertex 5.73682 6.93462 -4
      vertex 4.82244 7.59895 -4
    endloop
  endfacet
  facet normal -0.844328 0.535826 0
    outer loop
      vertex -7.88676 4.33578 -4
      vertex -7.28115 5.29007 0
      vertex -7.28115 5.29007 -4
    endloop
  endfacet
  facet normal -0.844328 0.535826 0
    outer loop
      vertex -7.28115 5.29007 0
      vertex -7.88676 4.33578 -4
      vertex -7.88676 4.33578 0
    endloop
  endfacet
  facet normal -0.770513 0.637424 0
    outer loop
      vertex -7.28115 5.29007 -4
      vertex -6.56072 6.16092 0
      vertex -6.56072 6.16092 -4
    endloop
  endfacet
  facet normal -0.770513 0.637424 0
    outer loop
      vertex -6.56072 6.16092 0
      vertex -7.28115 5.29007 -4
      vertex -7.28115 5.29007 0
    endloop
  endfacet
  facet normal -0.982288 0.187378 0
    outer loop
      vertex -8.92903 1.128 -4
      vertex -8.71725 2.23821 0
      vertex -8.71725 2.23821 -4
    endloop
  endfacet
  facet normal -0.982288 0.187378 0
    outer loop
      vertex -8.71725 2.23821 0
      vertex -8.92903 1.128 -4
      vertex -8.92903 1.128 0
    endloop
  endfacet
  facet normal 0 0 1
    outer loop
      vertex 8.1 0 0
      vertex 9 0 0
      vertex 8.92903 1.128 0
    endloop
  endfacet
  facet normal 0 0 1
    outer loop
      vertex 8.03613 1.0152 0
      vertex 8.92903 1.128 0
      vertex 8.71725 2.23821 0
    endloop
  endfacet
  facet normal 0 0 1
    outer loop
      vertex 9 0 0
      vertex 8.1 0 0
      vertex 8.92903 -1.128 0
    endloop
  endfacet
  facet normal 0 0 1
    outer loop
      vertex 7.84552 2.01439 0
      vertex 8.71725 2.23821 0
      vertex 8.36799 3.31312 0
    endloop
  endfacet
  facet normal -0 0 1
    outer loop
      vertex 8.03613 -1.0152 0
      vertex 8.92903 -1.128 0
      vertex 8.1 0 0
    endloop
  endfacet
  facet normal 0 0 1
    outer loop
      vertex 8.92903 -1.128 0
      vertex 8.03613 -1.0152 0
      vertex 8.71725 -2.23821 0
    endloop
  endfacet
  facet normal 0 0 1
    outer loop
      vertex 8.92903 1.128 0
      vertex 8.03613 1.0152 0
      vertex 8.1 0 0
    endloop
  endfacet
  facet normal 0 0 1
    outer loop
      vertex 7.53119 2.98181 0
      vertex 8.36799 3.31312 0
      vertex 7.88676 4.33578 0
    endloop
  endfacet
  facet normal 0 0 1
    outer loop
      vertex 8.71725 2.23821 0
      vertex 7.84552 2.01439 0
      vertex 8.03613 1.0152 0
    endloop
  endfacet
  facet normal 0 0 1
    outer loop
      vertex 8.36799 3.31312 0
      vertex 7.53119 2.98181 0
      vertex 7.84552 2.01439 0
    endloop
  endfacet
  facet normal 0 0 1
    outer loop
      vertex 7.09808 3.9022 0
      vertex 7.88676 4.33578 0
      vertex 7.28115 5.29007 0
    endloop
  endfacet
  facet normal 0 0 1
    outer loop
      vertex 7.88676 4.33578 0
      vertex 7.09808 3.9022 0
      vertex 7.53119 2.98181 0
    endloop
  endfacet
  facet normal 0 0 1
    outer loop
      vertex 6.55304 4.76106 0
      vertex 7.28115 5.29007 0
      vertex 6.56072 6.16092 0
    endloop
  endfacet
  facet normal 0 0 1
    outer loop
      vertex 7.28115 5.29007 0
      vertex 6.55304 4.76106 0
      vertex 7.09808 3.9022 0
    endloop
  endfacet
  facet normal 0 0 1
    outer loop
      vertex 6.56072 6.16092 0
      vertex 5.90464 5.54483 0
      vertex 6.55304 4.76106 0
    endloop
  endfacet
  facet normal 0 0 1
    outer loop
      vertex 5.73682 6.93462 0
      vertex 5.90464 5.54483 0
      vertex 6.56072 6.16092 0
    endloop
  endfacet
  facet normal 0 0 1
    outer loop
      vertex 5.73682 6.93462 0
      vertex 5.16313 6.24116 0
      vertex 5.90464 5.54483 0
    endloop
  endfacet
  facet normal 0 0 1
    outer loop
      vertex 4.82244 7.59895 0
      vertex 5.16313 6.24116 0
      vertex 5.73682 6.93462 0
    endloop
  endfacet
  facet normal 0 0 1
    outer loop
      vertex 4.82244 7.59895 0
      vertex 4.3402 6.83906 0
      vertex 5.16313 6.24116 0
    endloop
  endfacet
  facet normal 0 0 1
    outer loop
      vertex 3.83201 8.14344 0
      vertex 4.3402 6.83906 0
      vertex 4.82244 7.59895 0
    endloop
  endfacet
  facet normal 0 0 1
    outer loop
      vertex 3.83201 8.14344 0
      vertex 3.44881 7.3291 0
      vertex 4.3402 6.83906 0
    endloop
  endfacet
  facet normal 0 0 1
    outer loop
      vertex 2.78115 8.55951 0
      vertex 3.44881 7.3291 0
      vertex 3.83201 8.14344 0
    endloop
  endfacet
  facet normal 0 0 1
    outer loop
      vertex 2.78115 8.55951 0
      vertex 2.50304 7.70356 0
      vertex 3.44881 7.3291 0
    endloop
  endfacet
  facet normal 0 0 1
    outer loop
      vertex 1.68643 8.84058 0
      vertex 2.50304 7.70356 0
      vertex 2.78115 8.55951 0
    endloop
  endfacet
  facet normal 0 0 1
    outer loop
      vertex 1.68643 8.84058 0
      vertex 1.51779 7.95653 0
      vertex 2.50304 7.70356 0
    endloop
  endfacet
  facet normal 0 0 1
    outer loop
      vertex 0.565114 8.98224 0
      vertex 1.51779 7.95653 0
      vertex 1.68643 8.84058 0
    endloop
  endfacet
  facet normal 0 0 1
    outer loop
      vertex 0.565114 8.98224 0
      vertex 0.508603 8.08402 0
      vertex 1.51779 7.95653 0
    endloop
  endfacet
  facet normal 0 0 1
    outer loop
      vertex 0.565114 8.98224 0
      vertex -0.508603 8.08402 0
      vertex 0.508603 8.08402 0
    endloop
  endfacet
  facet normal -0 0 1
    outer loop
      vertex -0.565114 8.98224 0
      vertex -0.508603 8.08402 0
      vertex 0.565114 8.98224 0
    endloop
  endfacet
  facet normal 0 0 1
    outer loop
      vertex -0.565114 8.98224 0
      vertex -1.51779 7.95653 0
      vertex -0.508603 8.08402 0
    endloop
  endfacet
  facet normal -0 0 1
    outer loop
      vertex -1.68643 8.84058 0
      vertex -1.51779 7.95653 0
      vertex -0.565114 8.98224 0
    endloop
  endfacet
  facet normal 0 0 1
    outer loop
      vertex -1.68643 8.84058 0
      vertex -2.50304 7.70356 0
      vertex -1.51779 7.95653 0
    endloop
  endfacet
  facet normal -0 0 1
    outer loop
      vertex -2.78115 8.55951 0
      vertex -2.50304 7.70356 0
      vertex -1.68643 8.84058 0
    endloop
  endfacet
  facet normal 0 0 1
    outer loop
      vertex -2.78115 8.55951 0
      vertex -3.44881 7.3291 0
      vertex -2.50304 7.70356 0
    endloop
  endfacet
  facet normal -0 0 1
    outer loop
      vertex -3.83201 8.14344 0
      vertex -3.44881 7.3291 0
      vertex -2.78115 8.55951 0
    endloop
  endfacet
  facet normal 0 0 1
    outer loop
      vertex -3.83201 8.14344 0
      vertex -4.3402 6.83906 0
      vertex -3.44881 7.3291 0
    endloop
  endfacet
  facet normal -0 0 1
    outer loop
      vertex -4.82244 7.59895 0
      vertex -4.3402 6.83906 0
      vertex -3.83201 8.14344 0
    endloop
  endfacet
  facet normal 0 0 1
    outer loop
      vertex -4.82244 7.59895 0
      vertex -5.16313 6.24116 0
      vertex -4.3402 6.83906 0
    endloop
  endfacet
  facet normal -0 0 1
    outer loop
      vertex -5.73682 6.93462 0
      vertex -5.16313 6.24116 0
      vertex -4.82244 7.59895 0
    endloop
  endfacet
  facet normal 0 0 1
    outer loop
      vertex -5.73682 6.93462 0
      vertex -5.90464 5.54483 0
      vertex -5.16313 6.24116 0
    endloop
  endfacet
  facet normal -0 0 1
    outer loop
      vertex -6.56072 6.16092 0
      vertex -5.90464 5.54483 0
      vertex -5.73682 6.93462 0
    endloop
  endfacet
  facet normal 0 0 1
    outer loop
      vertex -5.90464 5.54483 0
      vertex -6.56072 6.16092 0
      vertex -6.55304 4.76106 0
    endloop
  endfacet
  facet normal -0 0 1
    outer loop
      vertex -7.28115 5.29007 0
      vertex -6.55304 4.76106 0
      vertex -6.56072 6.16092 0
    endloop
  endfacet
  facet normal 0 0 1
    outer loop
      vertex -6.55304 4.76106 0
      vertex -7.28115 5.29007 0
      vertex -7.09808 3.9022 0
    endloop
  endfacet
  facet normal -0 0 1
    outer loop
      vertex -7.88676 4.33578 0
      vertex -7.09808 3.9022 0
      vertex -7.28115 5.29007 0
    endloop
  endfacet
  facet normal 0 0 1
    outer loop
      vertex -7.09808 3.9022 0
      vertex -7.88676 4.33578 0
      vertex -7.53119 2.98181 0
    endloop
  endfacet
  facet normal -0 0 1
    outer loop
      vertex -8.36799 3.31312 0
      vertex -7.53119 2.98181 0
      vertex -7.88676 4.33578 0
    endloop
  endfacet
  facet normal 0 0 1
    outer loop
      vertex -7.53119 2.98181 0
      vertex -8.36799 3.31312 0
      vertex -7.84552 2.01439 0
    endloop
  endfacet
  facet normal -0 0 1
    outer loop
      vertex -8.71725 2.23821 0
      vertex -7.84552 2.01439 0
      vertex -8.36799 3.31312 0
    endloop
  endfacet
  facet normal 0 0 1
    outer loop
      vertex -7.84552 2.01439 0
      vertex -8.71725 2.23821 0
      vertex -8.03613 1.0152 0
    endloop
  endfacet
  facet normal -0 0 1
    outer loop
      vertex 7.84552 -2.01439 0
      vertex 8.71725 -2.23821 0
      vertex 8.03613 -1.0152 0
    endloop
  endfacet
  facet normal 0 0 1
    outer loop
      vertex 8.71725 -2.23821 0
      vertex 7.84552 -2.01439 0
      vertex 8.36799 -3.31312 0
    endloop
  endfacet
  facet normal -0 0 1
    outer loop
      vertex 7.53119 -2.98181 0
      vertex 8.36799 -3.31312 0
      vertex 7.84552 -2.01439 0
    endloop
  endfacet
  facet normal 0 0 1
    outer loop
      vertex 8.36799 -3.31312 0
      vertex 7.53119 -2.98181 0
      vertex 7.88676 -4.33578 0
    endloop
  endfacet
  facet normal -0 0 1
    outer loop
      vertex 7.09808 -3.9022 0
      vertex 7.88676 -4.33578 0
      vertex 7.53119 -2.98181 0
    endloop
  endfacet
  facet normal 0 0 1
    outer loop
      vertex 7.88676 -4.33578 0
      vertex 7.09808 -3.9022 0
      vertex 7.28115 -5.29007 0
    endloop
  endfacet
  facet normal -0 0 1
    outer loop
      vertex 6.55304 -4.76106 0
      vertex 7.28115 -5.29007 0
      vertex 7.09808 -3.9022 0
    endloop
  endfacet
  facet normal 0 0 1
    outer loop
      vertex 7.28115 -5.29007 0
      vertex 6.55304 -4.76106 0
      vertex 6.56072 -6.16092 0
    endloop
  endfacet
  facet normal -0 0 1
    outer loop
      vertex 5.90464 -5.54483 0
      vertex 6.56072 -6.16092 0
      vertex 6.55304 -4.76106 0
    endloop
  endfacet
  facet normal 0 0 1
    outer loop
      vertex 5.90464 -5.54483 0
      vertex 5.73682 -6.93462 0
      vertex 6.56072 -6.16092 0
    endloop
  endfacet
  facet normal -0 0 1
    outer loop
      vertex 5.16313 -6.24116 0
      vertex 5.73682 -6.93462 0
      vertex 5.90464 -5.54483 0
    endloop
  endfacet
  facet normal 0 0 1
    outer loop
      vertex 5.16313 -6.24116 0
      vertex 4.82244 -7.59895 0
      vertex 5.73682 -6.93462 0
    endloop
  endfacet
  facet normal -0 0 1
    outer loop
      vertex 4.3402 -6.83906 0
      vertex 4.82244 -7.59895 0
      vertex 5.16313 -6.24116 0
    endloop
  endfacet
  facet normal 0 0 1
    outer loop
      vertex 4.3402 -6.83906 0
      vertex 3.83201 -8.14344 0
      vertex 4.82244 -7.59895 0
    endloop
  endfacet
  facet normal -0 0 1
    outer loop
      vertex 3.44881 -7.3291 0
      vertex 3.83201 -8.14344 0
      vertex 4.3402 -6.83906 0
    endloop
  endfacet
  facet normal 0 0 1
    outer loop
      vertex 3.44881 -7.3291 0
      vertex 2.78115 -8.55951 0
      vertex 3.83201 -8.14344 0
    endloop
  endfacet
  facet normal -0 0 1
    outer loop
      vertex 2.50304 -7.70356 0
      vertex 2.78115 -8.55951 0
      vertex 3.44881 -7.3291 0
    endloop
  endfacet
  facet normal 0 0 1
    outer loop
      vertex 2.50304 -7.70356 0
      vertex 1.68643 -8.84058 0
      vertex 2.78115 -8.55951 0
    endloop
  endfacet
  facet normal -0 0 1
    outer loop
      vertex 1.51779 -7.95653 0
      vertex 1.68643 -8.84058 0
      vertex 2.50304 -7.70356 0
    endloop
  endfacet
  facet normal 0 0 1
    outer loop
      vertex 1.51779 -7.95653 0
      vertex 0.565114 -8.98224 0
      vertex 1.68643 -8.84058 0
    endloop
  endfacet
  facet normal -0 0 1
    outer loop
      vertex 0.508603 -8.08402 0
      vertex 0.565114 -8.98224 0
      vertex 1.51779 -7.95653 0
    endloop
  endfacet
  facet normal -0 0 1
    outer loop
      vertex -0.508603 -8.08402 0
      vertex 0.565114 -8.98224 0
      vertex 0.508603 -8.08402 0
    endloop
  endfacet
  facet normal 0 0 1
    outer loop
      vertex -0.508603 -8.08402 0
      vertex -0.565114 -8.98224 0
      vertex 0.565114 -8.98224 0
    endloop
  endfacet
  facet normal 0 0 1
    outer loop
      vertex -1.51779 -7.95653 0
      vertex -0.565114 -8.98224 0
      vertex -0.508603 -8.08402 0
    endloop
  endfacet
  facet normal 0 0 1
    outer loop
      vertex -1.51779 -7.95653 0
      vertex -1.68643 -8.84058 0
      vertex -0.565114 -8.98224 0
    endloop
  endfacet
  facet normal 0 0 1
    outer loop
      vertex -2.50304 -7.70356 0
      vertex -1.68643 -8.84058 0
      vertex -1.51779 -7.95653 0
    endloop
  endfacet
  facet normal 0 0 1
    outer loop
      vertex -2.50304 -7.70356 0
      vertex -2.78115 -8.55951 0
      vertex -1.68643 -8.84058 0
    endloop
  endfacet
  facet normal 0 0 1
    outer loop
      vertex -3.44881 -7.3291 0
      vertex -2.78115 -8.55951 0
      vertex -2.50304 -7.70356 0
    endloop
  endfacet
  facet normal 0 0 1
    outer loop
      vertex -3.44881 -7.3291 0
      vertex -3.83201 -8.14344 0
      vertex -2.78115 -8.55951 0
    endloop
  endfacet
  facet normal 0 0 1
    outer loop
      vertex -4.3402 -6.83906 0
      vertex -3.83201 -8.14344 0
      vertex -3.44881 -7.3291 0
    endloop
  endfacet
  facet normal 0 0 1
    outer loop
      vertex -4.3402 -6.83906 0
      vertex -4.82244 -7.59895 0
      vertex -3.83201 -8.14344 0
    endloop
  endfacet
  facet normal 0 0 1
    outer loop
      vertex -5.16313 -6.24116 0
      vertex -4.82244 -7.59895 0
      vertex -4.3402 -6.83906 0
    endloop
  endfacet
  facet normal 0 0 1
    outer loop
      vertex -5.16313 -6.24116 0
      vertex -5.73682 -6.93462 0
      vertex -4.82244 -7.59895 0
    endloop
  endfacet
  facet normal 0 0 1
    outer loop
      vertex -5.90464 -5.54483 0
      vertex -5.73682 -6.93462 0
      vertex -5.16313 -6.24116 0
    endloop
  endfacet
  facet normal 0 0 1
    outer loop
      vertex -6.56072 -6.16092 0
      vertex -5.90464 -5.54483 0
      vertex -6.55304 -4.76106 0
    endloop
  endfacet
  facet normal 0 0 1
    outer loop
      vertex -5.90464 -5.54483 0
      vertex -6.56072 -6.16092 0
      vertex -5.73682 -6.93462 0
    endloop
  endfacet
  facet normal 0 0 1
    outer loop
      vertex -7.28115 -5.29007 0
      vertex -6.55304 -4.76106 0
      vertex -7.09808 -3.9022 0
    endloop
  endfacet
  facet normal 0 0 1
    outer loop
      vertex -6.55304 -4.76106 0
      vertex -7.28115 -5.29007 0
      vertex -6.56072 -6.16092 0
    endloop
  endfacet
  facet normal 0 0 1
    outer loop
      vertex -7.88676 -4.33578 0
      vertex -7.09808 -3.9022 0
      vertex -7.53119 -2.98181 0
    endloop
  endfacet
  facet normal 0 0 1
    outer loop
      vertex -8.36799 -3.31312 0
      vertex -7.53119 -2.98181 0
      vertex -7.84552 -2.01439 0
    endloop
  endfacet
  facet normal 0 0 1
    outer loop
      vertex -7.09808 -3.9022 0
      vertex -7.88676 -4.33578 0
      vertex -7.28115 -5.29007 0
    endloop
  endfacet
  facet normal 0 0 1
    outer loop
      vertex -8.71725 -2.23821 0
      vertex -7.84552 -2.01439 0
      vertex -8.03613 -1.0152 0
    endloop
  endfacet
  facet normal 0 0 1
    outer loop
      vertex -8.92903 -1.128 0
      vertex -8.03613 -1.0152 0
      vertex -8.1 0 0
    endloop
  endfacet
  facet normal -0 0 1
    outer loop
      vertex -8.92903 1.128 0
      vertex -8.03613 1.0152 0
      vertex -8.71725 2.23821 0
    endloop
  endfacet
  facet normal 0 0 1
    outer loop
      vertex -7.53119 -2.98181 0
      vertex -8.36799 -3.31312 0
      vertex -7.88676 -4.33578 0
    endloop
  endfacet
  facet normal 0 0 1
    outer loop
      vertex -8.03613 1.0152 0
      vertex -8.92903 1.128 0
      vertex -8.1 0 0
    endloop
  endfacet
  facet normal 0 0 1
    outer loop
      vertex -7.84552 -2.01439 0
      vertex -8.71725 -2.23821 0
      vertex -8.36799 -3.31312 0
    endloop
  endfacet
  facet normal 0 0 1
    outer loop
      vertex -9 0 0
      vertex -8.1 0 0
      vertex -8.92903 1.128 0
    endloop
  endfacet
  facet normal 0 0 1
    outer loop
      vertex -8.03613 -1.0152 0
      vertex -8.92903 -1.128 0
      vertex -8.71725 -2.23821 0
    endloop
  endfacet
  facet normal 0 0 1
    outer loop
      vertex -8.1 0 0
      vertex -9 0 0
      vertex -8.92903 -1.128 0
    endloop
  endfacet
  facet normal -0.481751 0.876308 0
    outer loop
      vertex -3.83201 8.14344 -4
      vertex -4.82244 7.59895 0
      vertex -3.83201 8.14344 0
    endloop
  endfacet
  facet normal -0.481751 0.876308 0
    outer loop
      vertex -4.82244 7.59895 0
      vertex -3.83201 8.14344 -4
      vertex -4.82244 7.59895 -4
    endloop
  endfacet
  facet normal -0.587782 0.80902 0
    outer loop
      vertex -4.82244 7.59895 -4
      vertex -5.73682 6.93462 0
      vertex -4.82244 7.59895 0
    endloop
  endfacet
  facet normal -0.587782 0.80902 0
    outer loop
      vertex -5.73682 6.93462 0
      vertex -4.82244 7.59895 -4
      vertex -5.73682 6.93462 -4
    endloop
  endfacet
  facet normal -0.125337 0.992114 0
    outer loop
      vertex -0.565114 8.98224 -4
      vertex -1.68643 8.84058 0
      vertex -0.565114 8.98224 0
    endloop
  endfacet
  facet normal -0.125337 0.992114 0
    outer loop
      vertex -1.68643 8.84058 0
      vertex -0.565114 8.98224 -4
      vertex -1.68643 8.84058 -4
    endloop
  endfacet
  facet normal 0.998027 -0.0627925 0
    outer loop
      vertex 8.92903 -1.128 0
      vertex 9 0 -4
      vertex 9 0 0
    endloop
  endfacet
  facet normal 0.998027 -0.0627925 0
    outer loop
      vertex 9 0 -4
      vertex 8.92903 -1.128 0
      vertex 8.92903 -1.128 -4
    endloop
  endfacet
  facet normal 0.770513 -0.637424 0
    outer loop
      vertex 6.56072 -6.16092 0
      vertex 7.28115 -5.29007 -4
      vertex 7.28115 -5.29007 0
    endloop
  endfacet
  facet normal 0.770513 -0.637424 0
    outer loop
      vertex 7.28115 -5.29007 -4
      vertex 6.56072 -6.16092 0
      vertex 6.56072 -6.16092 -4
    endloop
  endfacet
  facet normal 0.904826 -0.425781 0
    outer loop
      vertex 7.88676 -4.33578 0
      vertex 8.36799 -3.31312 -4
      vertex 8.36799 -3.31312 0
    endloop
  endfacet
  facet normal 0.904826 -0.425781 0
    outer loop
      vertex 8.36799 -3.31312 -4
      vertex 7.88676 -4.33578 0
      vertex 7.88676 -4.33578 -4
    endloop
  endfacet
  facet normal 0.982288 -0.187378 0
    outer loop
      vertex 8.71725 -2.23821 0
      vertex 8.92903 -1.128 -4
      vertex 8.92903 -1.128 0
    endloop
  endfacet
  facet normal 0.982288 -0.187378 0
    outer loop
      vertex 8.92903 -1.128 -4
      vertex 8.71725 -2.23821 0
      vertex 8.71725 -2.23821 -4
    endloop
  endfacet
  facet normal 0 0 -1
    outer loop
      vertex 8.92903 -1.128 -4
      vertex 8.92903 1.128 -4
      vertex 9 0 -4
    endloop
  endfacet
  facet normal 0 0 -1
    outer loop
      vertex 8.71725 -2.23821 -4
      vertex 8.92903 1.128 -4
      vertex 8.92903 -1.128 -4
    endloop
  endfacet
  facet normal 0 0 -1
    outer loop
      vertex 8.71725 -2.23821 -4
      vertex 8.71725 2.23821 -4
      vertex 8.92903 1.128 -4
    endloop
  endfacet
  facet normal 0 0 -1
    outer loop
      vertex 8.36799 -3.31312 -4
      vertex 8.71725 2.23821 -4
      vertex 8.71725 -2.23821 -4
    endloop
  endfacet
  facet normal 0 0 -1
    outer loop
      vertex 8.36799 -3.31312 -4
      vertex 8.36799 3.31312 -4
      vertex 8.71725 2.23821 -4
    endloop
  endfacet
  facet normal 0 0 -1
    outer loop
      vertex 7.88676 -4.33578 -4
      vertex 8.36799 3.31312 -4
      vertex 8.36799 -3.31312 -4
    endloop
  endfacet
  facet normal 0 0 -1
    outer loop
      vertex 7.88676 -4.33578 -4
      vertex 7.88676 4.33578 -4
      vertex 8.36799 3.31312 -4
    endloop
  endfacet
  facet normal 0 0 -1
    outer loop
      vertex 7.28115 -5.29007 -4
      vertex 7.88676 4.33578 -4
      vertex 7.88676 -4.33578 -4
    endloop
  endfacet
  facet normal 0 0 -1
    outer loop
      vertex 7.28115 -5.29007 -4
      vertex 7.28115 5.29007 -4
      vertex 7.88676 4.33578 -4
    endloop
  endfacet
  facet normal 0 0 -1
    outer loop
      vertex 6.56072 -6.16092 -4
      vertex 7.28115 5.29007 -4
      vertex 7.28115 -5.29007 -4
    endloop
  endfacet
  facet normal 0 0 -1
    outer loop
      vertex 6.56072 -6.16092 -4
      vertex 6.56072 6.16092 -4
      vertex 7.28115 5.29007 -4
    endloop
  endfacet
  facet normal 0 0 -1
    outer loop
      vertex 5.73682 -6.93462 -4
      vertex 6.56072 6.16092 -4
      vertex 6.56072 -6.16092 -4
    endloop
  endfacet
  facet normal 0 0 -1
    outer loop
      vertex 5.73682 -6.93462 -4
      vertex 5.73682 6.93462 -4
      vertex 6.56072 6.16092 -4
    endloop
  endfacet
  facet normal 0 0 -1
    outer loop
      vertex 4.82244 -7.59895 -4
      vertex 5.73682 6.93462 -4
      vertex 5.73682 -6.93462 -4
    endloop
  endfacet
  facet normal 0 0 -1
    outer loop
      vertex 4.82244 -7.59895 -4
      vertex 4.82244 7.59895 -4
      vertex 5.73682 6.93462 -4
    endloop
  endfacet
  facet normal 0 0 -1
    outer loop
      vertex 3.83201 -8.14344 -4
      vertex 4.82244 7.59895 -4
      vertex 4.82244 -7.59895 -4
    endloop
  endfacet
  facet normal 0 0 -1
    outer loop
      vertex 3.83201 -8.14344 -4
      vertex 3.83201 8.14344 -4
      vertex 4.82244 7.59895 -4
    endloop
  endfacet
  facet normal 0 0 -1
    outer loop
      vertex 2.78115 -8.55951 -4
      vertex 3.83201 8.14344 -4
      vertex 3.83201 -8.14344 -4
    endloop
  endfacet
  facet normal 0 0 -1
    outer loop
      vertex 2.78115 -8.55951 -4
      vertex 2.78115 8.55951 -4
      vertex 3.83201 8.14344 -4
    endloop
  endfacet
  facet normal 0 0 -1
    outer loop
      vertex 1.68643 -8.84058 -4
      vertex 2.78115 8.55951 -4
      vertex 2.78115 -8.55951 -4
    endloop
  endfacet
  facet normal 0 0 -1
    outer loop
      vertex 1.68643 -8.84058 -4
      vertex 1.68643 8.84058 -4
      vertex 2.78115 8.55951 -4
    endloop
  endfacet
  facet normal 0 0 -1
    outer loop
      vertex 0.565114 -8.98224 -4
      vertex 1.68643 8.84058 -4
      vertex 1.68643 -8.84058 -4
    endloop
  endfacet
  facet normal 0 0 -1
    outer loop
      vertex 0.565114 -8.98224 -4
      vertex 0.565114 8.98224 -4
      vertex 1.68643 8.84058 -4
    endloop
  endfacet
  facet normal 0 0 -1
    outer loop
      vertex -0.565114 -8.98224 -4
      vertex 0.565114 8.98224 -4
      vertex 0.565114 -8.98224 -4
    endloop
  endfacet
  facet normal 0 0 -1
    outer loop
      vertex -0.565114 -8.98224 -4
      vertex -0.565114 8.98224 -4
      vertex 0.565114 8.98224 -4
    endloop
  endfacet
  facet normal 0 0 -1
    outer loop
      vertex -1.68643 -8.84058 -4
      vertex -0.565114 8.98224 -4
      vertex -0.565114 -8.98224 -4
    endloop
  endfacet
  facet normal 0 0 -1
    outer loop
      vertex -1.68643 -8.84058 -4
      vertex -1.68643 8.84058 -4
      vertex -0.565114 8.98224 -4
    endloop
  endfacet
  facet normal 0 0 -1
    outer loop
      vertex -2.78115 -8.55951 -4
      vertex -1.68643 8.84058 -4
      vertex -1.68643 -8.84058 -4
    endloop
  endfacet
  facet normal 0 0 -1
    outer loop
      vertex -2.78115 -8.55951 -4
      vertex -2.78115 8.55951 -4
      vertex -1.68643 8.84058 -4
    endloop
  endfacet
  facet normal 0 0 -1
    outer loop
      vertex -3.83201 -8.14344 -4
      vertex -2.78115 8.55951 -4
      vertex -2.78115 -8.55951 -4
    endloop
  endfacet
  facet normal 0 0 -1
    outer loop
      vertex -3.83201 -8.14344 -4
      vertex -3.83201 8.14344 -4
      vertex -2.78115 8.55951 -4
    endloop
  endfacet
  facet normal 0 0 -1
    outer loop
      vertex -4.82244 -7.59895 -4
      vertex -3.83201 8.14344 -4
      vertex -3.83201 -8.14344 -4
    endloop
  endfacet
  facet normal 0 0 -1
    outer loop
      vertex -4.82244 -7.59895 -4
      vertex -4.82244 7.59895 -4
      vertex -3.83201 8.14344 -4
    endloop
  endfacet
  facet normal 0 0 -1
    outer loop
      vertex -5.73682 -6.93462 -4
      vertex -4.82244 7.59895 -4
      vertex -4.82244 -7.59895 -4
    endloop
  endfacet
  facet normal 0 0 -1
    outer loop
      vertex -5.73682 -6.93462 -4
      vertex -5.73682 6.93462 -4
      vertex -4.82244 7.59895 -4
    endloop
  endfacet
  facet normal 0 0 -1
    outer loop
      vertex -6.56072 -6.16092 -4
      vertex -5.73682 6.93462 -4
      vertex -5.73682 -6.93462 -4
    endloop
  endfacet
  facet normal 0 0 -1
    outer loop
      vertex -6.56072 -6.16092 -4
      vertex -6.56072 6.16092 -4
      vertex -5.73682 6.93462 -4
    endloop
  endfacet
  facet normal 0 0 -1
    outer loop
      vertex -7.28115 -5.29007 -4
      vertex -6.56072 6.16092 -4
      vertex -6.56072 -6.16092 -4
    endloop
  endfacet
  facet normal 0 0 -1
    outer loop
      vertex -7.28115 -5.29007 -4
      vertex -7.28115 5.29007 -4
      vertex -6.56072 6.16092 -4
    endloop
  endfacet
  facet normal 0 0 -1
    outer loop
      vertex -7.88676 -4.33578 -4
      vertex -7.28115 5.29007 -4
      vertex -7.28115 -5.29007 -4
    endloop
  endfacet
  facet normal 0 0 -1
    outer loop
      vertex -7.88676 -4.33578 -4
      vertex -7.88676 4.33578 -4
      vertex -7.28115 5.29007 -4
    endloop
  endfacet
  facet normal 0 0 -1
    outer loop
      vertex -8.36799 -3.31312 -4
      vertex -7.88676 4.33578 -4
      vertex -7.88676 -4.33578 -4
    endloop
  endfacet
  facet normal 0 0 -1
    outer loop
      vertex -8.36799 -3.31312 -4
      vertex -8.36799 3.31312 -4
      vertex -7.88676 4.33578 -4
    endloop
  endfacet
  facet normal 0 0 -1
    outer loop
      vertex -8.71725 -2.23821 -4
      vertex -8.36799 3.31312 -4
      vertex -8.36799 -3.31312 -4
    endloop
  endfacet
  facet normal 0 0 -1
    outer loop
      vertex -8.71725 -2.23821 -4
      vertex -8.71725 2.23821 -4
      vertex -8.36799 3.31312 -4
    endloop
  endfacet
  facet normal 0 0 -1
    outer loop
      vertex -8.92903 -1.128 -4
      vertex -8.71725 2.23821 -4
      vertex -8.71725 -2.23821 -4
    endloop
  endfacet
  facet normal 0 0 -1
    outer loop
      vertex -8.92903 -1.128 -4
      vertex -8.92903 1.128 -4
      vertex -8.71725 2.23821 -4
    endloop
  endfacet
  facet normal 0 -0 -1
    outer loop
      vertex -8.92903 1.128 -4
      vertex -8.92903 -1.128 -4
      vertex -9 0 -4
    endloop
  endfacet
  facet normal 0.481751 -0.876308 0
    outer loop
      vertex 3.83201 -8.14344 -4
      vertex 4.82244 -7.59895 0
      vertex 3.83201 -8.14344 0
    endloop
  endfacet
  facet normal 0.481751 -0.876308 0
    outer loop
      vertex 4.82244 -7.59895 0
      vertex 3.83201 -8.14344 -4
      vertex 4.82244 -7.59895 -4
    endloop
  endfacet
  facet normal 0.68455 -0.728966 0
    outer loop
      vertex 5.73682 -6.93462 -4
      vertex 6.56072 -6.16092 0
      vertex 5.73682 -6.93462 0
    endloop
  endfacet
  facet normal 0.68455 -0.728966 0
    outer loop
      vertex 6.56072 -6.16092 0
      vertex 5.73682 -6.93462 -4
      vertex 6.56072 -6.16092 -4
    endloop
  endfacet
  facet normal 0.844328 -0.535826 0
    outer loop
      vertex 7.28115 -5.29007 0
      vertex 7.88676 -4.33578 -4
      vertex 7.88676 -4.33578 0
    endloop
  endfacet
  facet normal 0.844328 -0.535826 0
    outer loop
      vertex 7.88676 -4.33578 -4
      vertex 7.28115 -5.29007 0
      vertex 7.28115 -5.29007 -4
    endloop
  endfacet
  facet normal -0.248685 -0.968585 0
    outer loop
      vertex -2.78115 -8.55951 -4
      vertex -1.68643 -8.84058 0
      vertex -2.78115 -8.55951 0
    endloop
  endfacet
  facet normal -0.248685 -0.968585 -0
    outer loop
      vertex -1.68643 -8.84058 0
      vertex -2.78115 -8.55951 -4
      vertex -1.68643 -8.84058 -4
    endloop
  endfacet
  facet normal -0.770513 -0.637424 0
    outer loop
      vertex -6.56072 -6.16092 -4
      vertex -7.28115 -5.29007 0
      vertex -7.28115 -5.29007 -4
    endloop
  endfacet
  facet normal -0.770513 -0.637424 0
    outer loop
      vertex -7.28115 -5.29007 0
      vertex -6.56072 -6.16092 -4
      vertex -6.56072 -6.16092 0
    endloop
  endfacet
  facet normal -0.844328 -0.535826 0
    outer loop
      vertex -7.28115 -5.29007 -4
      vertex -7.88676 -4.33578 0
      vertex -7.88676 -4.33578 -4
    endloop
  endfacet
  facet normal -0.844328 -0.535826 0
    outer loop
      vertex -7.88676 -4.33578 0
      vertex -7.28115 -5.29007 -4
      vertex -7.28115 -5.29007 0
    endloop
  endfacet
  facet normal -0.951056 -0.309017 0
    outer loop
      vertex -8.36799 -3.31312 -4
      vertex -8.71725 -2.23821 0
      vertex -8.71725 -2.23821 -4
    endloop
  endfacet
  facet normal -0.951056 -0.309017 0
    outer loop
      vertex -8.71725 -2.23821 0
      vertex -8.36799 -3.31312 -4
      vertex -8.36799 -3.31312 0
    endloop
  endfacet
  facet normal 0.368128 -0.929775 0
    outer loop
      vertex 2.78115 -8.55951 -4
      vertex 3.83201 -8.14344 0
      vertex 2.78115 -8.55951 0
    endloop
  endfacet
  facet normal 0.368128 -0.929775 0
    outer loop
      vertex 3.83201 -8.14344 0
      vertex 2.78115 -8.55951 -4
      vertex 3.83201 -8.14344 -4
    endloop
  endfacet
  facet normal 0.248685 -0.968585 0
    outer loop
      vertex 1.68643 -8.84058 -4
      vertex 2.78115 -8.55951 0
      vertex 1.68643 -8.84058 0
    endloop
  endfacet
  facet normal 0.248685 -0.968585 0
    outer loop
      vertex 2.78115 -8.55951 0
      vertex 1.68643 -8.84058 -4
      vertex 2.78115 -8.55951 -4
    endloop
  endfacet
  facet normal -0.125337 -0.992114 0
    outer loop
      vertex -1.68643 -8.84058 -4
      vertex -0.565114 -8.98224 0
      vertex -1.68643 -8.84058 0
    endloop
  endfacet
  facet normal -0.125337 -0.992114 -0
    outer loop
      vertex -0.565114 -8.98224 0
      vertex -1.68643 -8.84058 -4
      vertex -0.565114 -8.98224 -4
    endloop
  endfacet
  facet normal -0.368128 -0.929775 0
    outer loop
      vertex -3.83201 -8.14344 -4
      vertex -2.78115 -8.55951 0
      vertex -3.83201 -8.14344 0
    endloop
  endfacet
  facet normal -0.368128 -0.929775 -0
    outer loop
      vertex -2.78115 -8.55951 0
      vertex -3.83201 -8.14344 -4
      vertex -2.78115 -8.55951 -4
    endloop
  endfacet
  facet normal -0.68455 -0.728966 0
    outer loop
      vertex -6.56072 -6.16092 -4
      vertex -5.73682 -6.93462 0
      vertex -6.56072 -6.16092 0
    endloop
  endfacet
  facet normal -0.68455 -0.728966 -0
    outer loop
      vertex -5.73682 -6.93462 0
      vertex -6.56072 -6.16092 -4
      vertex -5.73682 -6.93462 -4
    endloop
  endfacet
  facet normal -0.904826 -0.425781 0
    outer loop
      vertex -7.88676 -4.33578 -4
      vertex -8.36799 -3.31312 0
      vertex -8.36799 -3.31312 -4
    endloop
  endfacet
  facet normal -0.904826 -0.425781 0
    outer loop
      vertex -8.36799 -3.31312 0
      vertex -7.88676 -4.33578 -4
      vertex -7.88676 -4.33578 0
    endloop
  endfacet
  facet normal -0.982288 -0.187378 0
    outer loop
      vertex -8.71725 -2.23821 -4
      vertex -8.92903 -1.128 0
      vertex -8.92903 -1.128 -4
    endloop
  endfacet
  facet normal -0.982288 -0.187378 0
    outer loop
      vertex -8.92903 -1.128 0
      vertex -8.71725 -2.23821 -4
      vertex -8.71725 -2.23821 0
    endloop
  endfacet
  facet normal -0.998027 -0.0627925 0
    outer loop
      vertex -8.92903 -1.128 -4
      vertex -9 0 0
      vertex -9 0 -4
    endloop
  endfacet
  facet normal -0.998027 -0.0627925 0
    outer loop
      vertex -9 0 0
      vertex -8.92903 -1.128 -4
      vertex -8.92903 -1.128 0
    endloop
  endfacet
  facet normal 0.587782 -0.80902 0
    outer loop
      vertex 4.82244 -7.59895 -4
      vertex 5.73682 -6.93462 0
      vertex 4.82244 -7.59895 0
    endloop
  endfacet
  facet normal 0.587782 -0.80902 0
    outer loop
      vertex 5.73682 -6.93462 0
      vertex 4.82244 -7.59895 -4
      vertex 5.73682 -6.93462 -4
    endloop
  endfacet
  facet normal -0.481751 -0.876308 0
    outer loop
      vertex -4.82244 -7.59895 -4
      vertex -3.83201 -8.14344 0
      vertex -4.82244 -7.59895 0
    endloop
  endfacet
  facet normal -0.481751 -0.876308 -0
    outer loop
      vertex -3.83201 -8.14344 0
      vertex -4.82244 -7.59895 -4
      vertex -3.83201 -8.14344 -4
    endloop
  endfacet
  facet normal -0.587782 -0.80902 0
    outer loop
      vertex -5.73682 -6.93462 -4
      vertex -4.82244 -7.59895 0
      vertex -5.73682 -6.93462 0
    endloop
  endfacet
  facet normal -0.587782 -0.80902 -0
    outer loop
      vertex -4.82244 -7.59895 0
      vertex -5.73682 -6.93462 -4
      vertex -4.82244 -7.59895 -4
    endloop
  endfacet
  facet normal -0.904824 -0.425785 0
    outer loop
      vertex 7.53119 2.98181 -3
      vertex 7.09808 3.9022 0
      vertex 7.09808 3.9022 -3
    endloop
  endfacet
  facet normal -0.904824 -0.425785 0
    outer loop
      vertex 7.09808 3.9022 0
      vertex 7.53119 2.98181 -3
      vertex 7.53119 2.98181 0
    endloop
  endfacet
  facet normal -0.844332 -0.53582 0
    outer loop
      vertex 7.09808 3.9022 -3
      vertex 6.55304 4.76106 0
      vertex 6.55304 4.76106 -3
    endloop
  endfacet
  facet normal -0.844332 -0.53582 0
    outer loop
      vertex 6.55304 4.76106 0
      vertex 7.09808 3.9022 -3
      vertex 7.09808 3.9022 0
    endloop
  endfacet
  facet normal -0.368127 -0.929775 0
    outer loop
      vertex 2.50304 7.70356 -3
      vertex 3.44881 7.3291 0
      vertex 2.50304 7.70356 0
    endloop
  endfacet
  facet normal -0.368127 -0.929775 -0
    outer loop
      vertex 3.44881 7.3291 0
      vertex 2.50304 7.70356 -3
      vertex 3.44881 7.3291 -3
    endloop
  endfacet
  facet normal 0.368127 -0.929775 0
    outer loop
      vertex -3.44881 7.3291 -3
      vertex -2.50304 7.70356 0
      vertex -3.44881 7.3291 0
    endloop
  endfacet
  facet normal 0.368127 -0.929775 0
    outer loop
      vertex -2.50304 7.70356 0
      vertex -3.44881 7.3291 -3
      vertex -2.50304 7.70356 -3
    endloop
  endfacet
  facet normal 0.904824 -0.425785 0
    outer loop
      vertex -7.53119 2.98181 0
      vertex -7.09808 3.9022 -3
      vertex -7.09808 3.9022 0
    endloop
  endfacet
  facet normal 0.904824 -0.425785 0
    outer loop
      vertex -7.09808 3.9022 -3
      vertex -7.53119 2.98181 0
      vertex -7.53119 2.98181 -3
    endloop
  endfacet
  facet normal -0.982286 0.187385 0
    outer loop
      vertex 7.84552 -2.01439 -3
      vertex 8.03613 -1.0152 0
      vertex 8.03613 -1.0152 -3
    endloop
  endfacet
  facet normal -0.982286 0.187385 0
    outer loop
      vertex 8.03613 -1.0152 0
      vertex 7.84552 -2.01439 -3
      vertex 7.84552 -2.01439 0
    endloop
  endfacet
  facet normal 0 -1 0
    outer loop
      vertex -0.508603 8.08402 -3
      vertex 0.508603 8.08402 0
      vertex -0.508603 8.08402 0
    endloop
  endfacet
  facet normal 0 -1 -0
    outer loop
      vertex 0.508603 8.08402 0
      vertex -0.508603 8.08402 -3
      vertex 0.508603 8.08402 -3
    endloop
  endfacet
  facet normal -0.587789 -0.809014 0
    outer loop
      vertex 4.3402 6.83906 -3
      vertex 5.16313 6.24116 0
      vertex 4.3402 6.83906 0
    endloop
  endfacet
  facet normal -0.587789 -0.809014 -0
    outer loop
      vertex 5.16313 6.24116 0
      vertex 4.3402 6.83906 -3
      vertex 5.16313 6.24116 -3
    endloop
  endfacet
  facet normal 0.998027 -0.0627896 0
    outer loop
      vertex -8.1 0 0
      vertex -8.03613 1.0152 -3
      vertex -8.03613 1.0152 0
    endloop
  endfacet
  facet normal 0.998027 -0.0627896 0
    outer loop
      vertex -8.03613 1.0152 -3
      vertex -8.1 0 0
      vertex -8.1 0 -3
    endloop
  endfacet
  facet normal 0.770509 -0.637429 0
    outer loop
      vertex -6.55304 4.76106 0
      vertex -5.90464 5.54483 -3
      vertex -5.90464 5.54483 0
    endloop
  endfacet
  facet normal 0.770509 -0.637429 0
    outer loop
      vertex -5.90464 5.54483 -3
      vertex -6.55304 4.76106 0
      vertex -6.55304 4.76106 -3
    endloop
  endfacet
  facet normal 0.481749 -0.876309 0
    outer loop
      vertex -4.3402 6.83906 -3
      vertex -3.44881 7.3291 0
      vertex -4.3402 6.83906 0
    endloop
  endfacet
  facet normal 0.481749 -0.876309 0
    outer loop
      vertex -3.44881 7.3291 0
      vertex -4.3402 6.83906 -3
      vertex -3.44881 7.3291 -3
    endloop
  endfacet
  facet normal 0.248691 -0.968583 0
    outer loop
      vertex -2.50304 7.70356 -3
      vertex -1.51779 7.95653 0
      vertex -2.50304 7.70356 0
    endloop
  endfacet
  facet normal 0.248691 -0.968583 0
    outer loop
      vertex -1.51779 7.95653 0
      vertex -2.50304 7.70356 -3
      vertex -1.51779 7.95653 -3
    endloop
  endfacet
  facet normal -0.998027 0.0627896 0
    outer loop
      vertex 8.03613 -1.0152 -3
      vertex 8.1 0 0
      vertex 8.1 0 -3
    endloop
  endfacet
  facet normal -0.998027 0.0627896 0
    outer loop
      vertex 8.1 0 0
      vertex 8.03613 -1.0152 -3
      vertex 8.03613 -1.0152 0
    endloop
  endfacet
  facet normal -0.951058 0.309014 0
    outer loop
      vertex 7.53119 -2.98181 -3
      vertex 7.84552 -2.01439 0
      vertex 7.84552 -2.01439 -3
    endloop
  endfacet
  facet normal -0.951058 0.309014 0
    outer loop
      vertex 7.84552 -2.01439 0
      vertex 7.53119 -2.98181 -3
      vertex 7.53119 -2.98181 0
    endloop
  endfacet
  facet normal 0.68455 0.728966 -0
    outer loop
      vertex -5.16313 -6.24116 -3
      vertex -5.90464 -5.54483 0
      vertex -5.16313 -6.24116 0
    endloop
  endfacet
  facet normal 0.68455 0.728966 0
    outer loop
      vertex -5.90464 -5.54483 0
      vertex -5.16313 -6.24116 -3
      vertex -5.90464 -5.54483 -3
    endloop
  endfacet
  facet normal 0.904824 0.425785 0
    outer loop
      vertex -7.09808 -3.9022 0
      vertex -7.53119 -2.98181 -3
      vertex -7.53119 -2.98181 0
    endloop
  endfacet
  facet normal 0.904824 0.425785 0
    outer loop
      vertex -7.53119 -2.98181 -3
      vertex -7.09808 -3.9022 0
      vertex -7.09808 -3.9022 -3
    endloop
  endfacet
  facet normal -0.587789 0.809014 0
    outer loop
      vertex 5.16313 -6.24116 -3
      vertex 4.3402 -6.83906 0
      vertex 5.16313 -6.24116 0
    endloop
  endfacet
  facet normal -0.587789 0.809014 0
    outer loop
      vertex 4.3402 -6.83906 0
      vertex 5.16313 -6.24116 -3
      vertex 4.3402 -6.83906 -3
    endloop
  endfacet
  facet normal -0.982286 -0.187385 0
    outer loop
      vertex 8.03613 1.0152 -3
      vertex 7.84552 2.01439 0
      vertex 7.84552 2.01439 -3
    endloop
  endfacet
  facet normal -0.982286 -0.187385 0
    outer loop
      vertex 7.84552 2.01439 0
      vertex 8.03613 1.0152 -3
      vertex 8.03613 1.0152 0
    endloop
  endfacet
  facet normal -0.951058 -0.309014 0
    outer loop
      vertex 7.84552 2.01439 -3
      vertex 7.53119 2.98181 0
      vertex 7.53119 2.98181 -3
    endloop
  endfacet
  facet normal -0.951058 -0.309014 0
    outer loop
      vertex 7.53119 2.98181 0
      vertex 7.84552 2.01439 -3
      vertex 7.84552 2.01439 0
    endloop
  endfacet
  facet normal -0.68455 -0.728966 0
    outer loop
      vertex 5.16313 6.24116 -3
      vertex 5.90464 5.54483 0
      vertex 5.16313 6.24116 0
    endloop
  endfacet
  facet normal -0.68455 -0.728966 -0
    outer loop
      vertex 5.90464 5.54483 0
      vertex 5.16313 6.24116 -3
      vertex 5.90464 5.54483 -3
    endloop
  endfacet
  facet normal -0.248691 -0.968583 0
    outer loop
      vertex 1.51779 7.95653 -3
      vertex 2.50304 7.70356 0
      vertex 1.51779 7.95653 0
    endloop
  endfacet
  facet normal -0.248691 -0.968583 -0
    outer loop
      vertex 2.50304 7.70356 0
      vertex 1.51779 7.95653 -3
      vertex 2.50304 7.70356 -3
    endloop
  endfacet
  facet normal -0.125333 -0.992115 0
    outer loop
      vertex 0.508603 8.08402 -3
      vertex 1.51779 7.95653 0
      vertex 0.508603 8.08402 0
    endloop
  endfacet
  facet normal -0.125333 -0.992115 -0
    outer loop
      vertex 1.51779 7.95653 0
      vertex 0.508603 8.08402 -3
      vertex 1.51779 7.95653 -3
    endloop
  endfacet
  facet normal -0.481749 -0.876309 0
    outer loop
      vertex 3.44881 7.3291 -3
      vertex 4.3402 6.83906 0
      vertex 3.44881 7.3291 0
    endloop
  endfacet
  facet normal -0.481749 -0.876309 -0
    outer loop
      vertex 4.3402 6.83906 0
      vertex 3.44881 7.3291 -3
      vertex 4.3402 6.83906 -3
    endloop
  endfacet
  facet normal 0.951058 -0.309014 0
    outer loop
      vertex -7.84552 2.01439 0
      vertex -7.53119 2.98181 -3
      vertex -7.53119 2.98181 0
    endloop
  endfacet
  facet normal 0.951058 -0.309014 0
    outer loop
      vertex -7.53119 2.98181 -3
      vertex -7.84552 2.01439 0
      vertex -7.84552 2.01439 -3
    endloop
  endfacet
  facet normal 0.982286 -0.187385 0
    outer loop
      vertex -8.03613 1.0152 0
      vertex -7.84552 2.01439 -3
      vertex -7.84552 2.01439 0
    endloop
  endfacet
  facet normal 0.982286 -0.187385 0
    outer loop
      vertex -7.84552 2.01439 -3
      vertex -8.03613 1.0152 0
      vertex -8.03613 1.0152 -3
    endloop
  endfacet
  facet normal 0.844332 -0.53582 0
    outer loop
      vertex -7.09808 3.9022 0
      vertex -6.55304 4.76106 -3
      vertex -6.55304 4.76106 0
    endloop
  endfacet
  facet normal 0.844332 -0.53582 0
    outer loop
      vertex -6.55304 4.76106 -3
      vertex -7.09808 3.9022 0
      vertex -7.09808 3.9022 -3
    endloop
  endfacet
  facet normal 0.125333 -0.992115 0
    outer loop
      vertex -1.51779 7.95653 -3
      vertex -0.508603 8.08402 0
      vertex -1.51779 7.95653 0
    endloop
  endfacet
  facet normal 0.125333 -0.992115 0
    outer loop
      vertex -0.508603 8.08402 0
      vertex -1.51779 7.95653 -3
      vertex -0.508603 8.08402 -3
    endloop
  endfacet
  facet normal 0.587789 -0.809014 0
    outer loop
      vertex -5.16313 6.24116 -3
      vertex -4.3402 6.83906 0
      vertex -5.16313 6.24116 0
    endloop
  endfacet
  facet normal 0.587789 -0.809014 0
    outer loop
      vertex -4.3402 6.83906 0
      vertex -5.16313 6.24116 -3
      vertex -4.3402 6.83906 -3
    endloop
  endfacet
  facet normal 0.68455 -0.728966 0
    outer loop
      vertex -5.90464 5.54483 -3
      vertex -5.16313 6.24116 0
      vertex -5.90464 5.54483 0
    endloop
  endfacet
  facet normal 0.68455 -0.728966 0
    outer loop
      vertex -5.16313 6.24116 0
      vertex -5.90464 5.54483 -3
      vertex -5.16313 6.24116 -3
    endloop
  endfacet
  facet normal -0.998027 -0.0627896 0
    outer loop
      vertex 8.1 0 -3
      vertex 8.03613 1.0152 0
      vertex 8.03613 1.0152 -3
    endloop
  endfacet
  facet normal -0.998027 -0.0627896 0
    outer loop
      vertex 8.03613 1.0152 0
      vertex 8.1 0 -3
      vertex 8.1 0 0
    endloop
  endfacet
  facet normal 0 1 -0
    outer loop
      vertex 0.508603 -8.08402 -3
      vertex -0.508603 -8.08402 0
      vertex 0.508603 -8.08402 0
    endloop
  endfacet
  facet normal 0 1 0
    outer loop
      vertex -0.508603 -8.08402 0
      vertex 0.508603 -8.08402 -3
      vertex -0.508603 -8.08402 -3
    endloop
  endfacet
  facet normal 0.998027 0.0627896 0
    outer loop
      vertex -8.03613 -1.0152 0
      vertex -8.1 0 -3
      vertex -8.1 0 0
    endloop
  endfacet
  facet normal 0.998027 0.0627896 0
    outer loop
      vertex -8.1 0 -3
      vertex -8.03613 -1.0152 0
      vertex -8.03613 -1.0152 -3
    endloop
  endfacet
  facet normal 0 0 1
    outer loop
      vertex 8.03613 1.0152 -3
      vertex 8.03613 -1.0152 -3
      vertex 8.1 0 -3
    endloop
  endfacet
  facet normal 0 0 1
    outer loop
      vertex 7.84552 2.01439 -3
      vertex 8.03613 -1.0152 -3
      vertex 8.03613 1.0152 -3
    endloop
  endfacet
  facet normal 0 0 1
    outer loop
      vertex 7.84552 2.01439 -3
      vertex 7.84552 -2.01439 -3
      vertex 8.03613 -1.0152 -3
    endloop
  endfacet
  facet normal 0 0 1
    outer loop
      vertex 7.53119 2.98181 -3
      vertex 7.84552 -2.01439 -3
      vertex 7.84552 2.01439 -3
    endloop
  endfacet
  facet normal 0 0 1
    outer loop
      vertex 7.53119 2.98181 -3
      vertex 7.53119 -2.98181 -3
      vertex 7.84552 -2.01439 -3
    endloop
  endfacet
  facet normal 0 0 1
    outer loop
      vertex 7.09808 3.9022 -3
      vertex 7.53119 -2.98181 -3
      vertex 7.53119 2.98181 -3
    endloop
  endfacet
  facet normal 0 0 1
    outer loop
      vertex 7.09808 3.9022 -3
      vertex 7.09808 -3.9022 -3
      vertex 7.53119 -2.98181 -3
    endloop
  endfacet
  facet normal 0 0 1
    outer loop
      vertex 6.55304 4.76106 -3
      vertex 7.09808 -3.9022 -3
      vertex 7.09808 3.9022 -3
    endloop
  endfacet
  facet normal 0 0 1
    outer loop
      vertex 6.55304 4.76106 -3
      vertex 6.55304 -4.76106 -3
      vertex 7.09808 -3.9022 -3
    endloop
  endfacet
  facet normal 0 0 1
    outer loop
      vertex 5.90464 5.54483 -3
      vertex 6.55304 -4.76106 -3
      vertex 6.55304 4.76106 -3
    endloop
  endfacet
  facet normal 0 0 1
    outer loop
      vertex 5.90464 5.54483 -3
      vertex 5.90464 -5.54483 -3
      vertex 6.55304 -4.76106 -3
    endloop
  endfacet
  facet normal 0 0 1
    outer loop
      vertex 5.16313 6.24116 -3
      vertex 5.90464 -5.54483 -3
      vertex 5.90464 5.54483 -3
    endloop
  endfacet
  facet normal 0 0 1
    outer loop
      vertex 5.16313 6.24116 -3
      vertex 5.16313 -6.24116 -3
      vertex 5.90464 -5.54483 -3
    endloop
  endfacet
  facet normal 0 0 1
    outer loop
      vertex 4.3402 6.83906 -3
      vertex 5.16313 -6.24116 -3
      vertex 5.16313 6.24116 -3
    endloop
  endfacet
  facet normal 0 0 1
    outer loop
      vertex 4.3402 6.83906 -3
      vertex 4.3402 -6.83906 -3
      vertex 5.16313 -6.24116 -3
    endloop
  endfacet
  facet normal 0 0 1
    outer loop
      vertex 3.44881 7.3291 -3
      vertex 4.3402 -6.83906 -3
      vertex 4.3402 6.83906 -3
    endloop
  endfacet
  facet normal 0 0 1
    outer loop
      vertex 3.44881 7.3291 -3
      vertex 3.44881 -7.3291 -3
      vertex 4.3402 -6.83906 -3
    endloop
  endfacet
  facet normal 0 0 1
    outer loop
      vertex 2.50304 7.70356 -3
      vertex 3.44881 -7.3291 -3
      vertex 3.44881 7.3291 -3
    endloop
  endfacet
  facet normal 0 0 1
    outer loop
      vertex 2.50304 7.70356 -3
      vertex 2.50304 -7.70356 -3
      vertex 3.44881 -7.3291 -3
    endloop
  endfacet
  facet normal 0 0 1
    outer loop
      vertex 1.51779 7.95653 -3
      vertex 2.50304 -7.70356 -3
      vertex 2.50304 7.70356 -3
    endloop
  endfacet
  facet normal 0 0 1
    outer loop
      vertex 1.51779 7.95653 -3
      vertex 1.51779 -7.95653 -3
      vertex 2.50304 -7.70356 -3
    endloop
  endfacet
  facet normal 0 0 1
    outer loop
      vertex 0.508603 8.08402 -3
      vertex 1.51779 -7.95653 -3
      vertex 1.51779 7.95653 -3
    endloop
  endfacet
  facet normal 0 0 1
    outer loop
      vertex 0.508603 8.08402 -3
      vertex 0.508603 -8.08402 -3
      vertex 1.51779 -7.95653 -3
    endloop
  endfacet
  facet normal -0 0 1
    outer loop
      vertex -0.508603 8.08402 -3
      vertex 0.508603 -8.08402 -3
      vertex 0.508603 8.08402 -3
    endloop
  endfacet
  facet normal 0 0 1
    outer loop
      vertex -0.508603 8.08402 -3
      vertex -0.508603 -8.08402 -3
      vertex 0.508603 -8.08402 -3
    endloop
  endfacet
  facet normal -0 0 1
    outer loop
      vertex -1.51779 7.95653 -3
      vertex -0.508603 -8.08402 -3
      vertex -0.508603 8.08402 -3
    endloop
  endfacet
  facet normal 0 0 1
    outer loop
      vertex -1.51779 7.95653 -3
      vertex -1.51779 -7.95653 -3
      vertex -0.508603 -8.08402 -3
    endloop
  endfacet
  facet normal -0 0 1
    outer loop
      vertex -2.50304 7.70356 -3
      vertex -1.51779 -7.95653 -3
      vertex -1.51779 7.95653 -3
    endloop
  endfacet
  facet normal 0 0 1
    outer loop
      vertex -2.50304 7.70356 -3
      vertex -2.50304 -7.70356 -3
      vertex -1.51779 -7.95653 -3
    endloop
  endfacet
  facet normal -0 0 1
    outer loop
      vertex -3.44881 7.3291 -3
      vertex -2.50304 -7.70356 -3
      vertex -2.50304 7.70356 -3
    endloop
  endfacet
  facet normal 0 0 1
    outer loop
      vertex -3.44881 7.3291 -3
      vertex -3.44881 -7.3291 -3
      vertex -2.50304 -7.70356 -3
    endloop
  endfacet
  facet normal -0 0 1
    outer loop
      vertex -4.3402 6.83906 -3
      vertex -3.44881 -7.3291 -3
      vertex -3.44881 7.3291 -3
    endloop
  endfacet
  facet normal 0 0 1
    outer loop
      vertex -4.3402 6.83906 -3
      vertex -4.3402 -6.83906 -3
      vertex -3.44881 -7.3291 -3
    endloop
  endfacet
  facet normal -0 0 1
    outer loop
      vertex -5.16313 6.24116 -3
      vertex -4.3402 -6.83906 -3
      vertex -4.3402 6.83906 -3
    endloop
  endfacet
  facet normal 0 0 1
    outer loop
      vertex -5.16313 6.24116 -3
      vertex -5.16313 -6.24116 -3
      vertex -4.3402 -6.83906 -3
    endloop
  endfacet
  facet normal -0 0 1
    outer loop
      vertex -5.90464 5.54483 -3
      vertex -5.16313 -6.24116 -3
      vertex -5.16313 6.24116 -3
    endloop
  endfacet
  facet normal 0 0 1
    outer loop
      vertex -5.90464 5.54483 -3
      vertex -5.90464 -5.54483 -3
      vertex -5.16313 -6.24116 -3
    endloop
  endfacet
  facet normal -0 0 1
    outer loop
      vertex -6.55304 4.76106 -3
      vertex -5.90464 -5.54483 -3
      vertex -5.90464 5.54483 -3
    endloop
  endfacet
  facet normal 0 0 1
    outer loop
      vertex -6.55304 4.76106 -3
      vertex -6.55304 -4.76106 -3
      vertex -5.90464 -5.54483 -3
    endloop
  endfacet
  facet normal -0 0 1
    outer loop
      vertex -7.09808 3.9022 -3
      vertex -6.55304 -4.76106 -3
      vertex -6.55304 4.76106 -3
    endloop
  endfacet
  facet normal 0 0 1
    outer loop
      vertex -7.09808 3.9022 -3
      vertex -7.09808 -3.9022 -3
      vertex -6.55304 -4.76106 -3
    endloop
  endfacet
  facet normal -0 0 1
    outer loop
      vertex -7.53119 2.98181 -3
      vertex -7.09808 -3.9022 -3
      vertex -7.09808 3.9022 -3
    endloop
  endfacet
  facet normal 0 0 1
    outer loop
      vertex -7.53119 2.98181 -3
      vertex -7.53119 -2.98181 -3
      vertex -7.09808 -3.9022 -3
    endloop
  endfacet
  facet normal -0 0 1
    outer loop
      vertex -7.84552 2.01439 -3
      vertex -7.53119 -2.98181 -3
      vertex -7.53119 2.98181 -3
    endloop
  endfacet
  facet normal 0 0 1
    outer loop
      vertex -7.84552 2.01439 -3
      vertex -7.84552 -2.01439 -3
      vertex -7.53119 -2.98181 -3
    endloop
  endfacet
  facet normal -0 0 1
    outer loop
      vertex -8.03613 1.0152 -3
      vertex -7.84552 -2.01439 -3
      vertex -7.84552 2.01439 -3
    endloop
  endfacet
  facet normal 0 0 1
    outer loop
      vertex -8.03613 1.0152 -3
      vertex -8.03613 -1.0152 -3
      vertex -7.84552 -2.01439 -3
    endloop
  endfacet
  facet normal 0 -0 1
    outer loop
      vertex -8.03613 -1.0152 -3
      vertex -8.03613 1.0152 -3
      vertex -8.1 0 -3
    endloop
  endfacet
  facet normal 0.770509 0.637429 0
    outer loop
      vertex -5.90464 -5.54483 0
      vertex -6.55304 -4.76106 -3
      vertex -6.55304 -4.76106 0
    endloop
  endfacet
  facet normal 0.770509 0.637429 0
    outer loop
      vertex -6.55304 -4.76106 -3
      vertex -5.90464 -5.54483 0
      vertex -5.90464 -5.54483 -3
    endloop
  endfacet
  facet normal -0.770509 -0.637429 0
    outer loop
      vertex 6.55304 4.76106 -3
      vertex 5.90464 5.54483 0
      vertex 5.90464 5.54483 -3
    endloop
  endfacet
  facet normal -0.770509 -0.637429 0
    outer loop
      vertex 5.90464 5.54483 0
      vertex 6.55304 4.76106 -3
      vertex 6.55304 4.76106 0
    endloop
  endfacet
  facet normal 0.368127 0.929775 -0
    outer loop
      vertex -2.50304 -7.70356 -3
      vertex -3.44881 -7.3291 0
      vertex -2.50304 -7.70356 0
    endloop
  endfacet
  facet normal 0.368127 0.929775 0
    outer loop
      vertex -3.44881 -7.3291 0
      vertex -2.50304 -7.70356 -3
      vertex -3.44881 -7.3291 -3
    endloop
  endfacet
  facet normal 0.951058 0.309014 0
    outer loop
      vertex -7.53119 -2.98181 0
      vertex -7.84552 -2.01439 -3
      vertex -7.84552 -2.01439 0
    endloop
  endfacet
  facet normal 0.951058 0.309014 0
    outer loop
      vertex -7.84552 -2.01439 -3
      vertex -7.53119 -2.98181 0
      vertex -7.53119 -2.98181 -3
    endloop
  endfacet
  facet normal 0.982286 0.187385 0
    outer loop
      vertex -7.84552 -2.01439 0
      vertex -8.03613 -1.0152 -3
      vertex -8.03613 -1.0152 0
    endloop
  endfacet
  facet normal 0.982286 0.187385 0
    outer loop
      vertex -8.03613 -1.0152 -3
      vertex -7.84552 -2.01439 0
      vertex -7.84552 -2.01439 -3
    endloop
  endfacet
  facet normal -0.125333 0.992115 0
    outer loop
      vertex 1.51779 -7.95653 -3
      vertex 0.508603 -8.08402 0
      vertex 1.51779 -7.95653 0
    endloop
  endfacet
  facet normal -0.125333 0.992115 0
    outer loop
      vertex 0.508603 -8.08402 0
      vertex 1.51779 -7.95653 -3
      vertex 0.508603 -8.08402 -3
    endloop
  endfacet
  facet normal -0.481749 0.876309 0
    outer loop
      vertex 4.3402 -6.83906 -3
      vertex 3.44881 -7.3291 0
      vertex 4.3402 -6.83906 0
    endloop
  endfacet
  facet normal -0.481749 0.876309 0
    outer loop
      vertex 3.44881 -7.3291 0
      vertex 4.3402 -6.83906 -3
      vertex 3.44881 -7.3291 -3
    endloop
  endfacet
  facet normal -0.368127 0.929775 0
    outer loop
      vertex 3.44881 -7.3291 -3
      vertex 2.50304 -7.70356 0
      vertex 3.44881 -7.3291 0
    endloop
  endfacet
  facet normal -0.368127 0.929775 0
    outer loop
      vertex 2.50304 -7.70356 0
      vertex 3.44881 -7.3291 -3
      vertex 2.50304 -7.70356 -3
    endloop
  endfacet
  facet normal -0.770509 0.637429 0
    outer loop
      vertex 5.90464 -5.54483 -3
      vertex 6.55304 -4.76106 0
      vertex 6.55304 -4.76106 -3
    endloop
  endfacet
  facet normal -0.770509 0.637429 0
    outer loop
      vertex 6.55304 -4.76106 0
      vertex 5.90464 -5.54483 -3
      vertex 5.90464 -5.54483 0
    endloop
  endfacet
  facet normal -0.904824 0.425785 0
    outer loop
      vertex 7.09808 -3.9022 -3
      vertex 7.53119 -2.98181 0
      vertex 7.53119 -2.98181 -3
    endloop
  endfacet
  facet normal -0.904824 0.425785 0
    outer loop
      vertex 7.53119 -2.98181 0
      vertex 7.09808 -3.9022 -3
      vertex 7.09808 -3.9022 0
    endloop
  endfacet
  facet normal -0.844332 0.53582 0
    outer loop
      vertex 6.55304 -4.76106 -3
      vertex 7.09808 -3.9022 0
      vertex 7.09808 -3.9022 -3
    endloop
  endfacet
  facet normal -0.844332 0.53582 0
    outer loop
      vertex 7.09808 -3.9022 0
      vertex 6.55304 -4.76106 -3
      vertex 6.55304 -4.76106 0
    endloop
  endfacet
  facet normal 0.587789 0.809014 -0
    outer loop
      vertex -4.3402 -6.83906 -3
      vertex -5.16313 -6.24116 0
      vertex -4.3402 -6.83906 0
    endloop
  endfacet
  facet normal 0.587789 0.809014 0
    outer loop
      vertex -5.16313 -6.24116 0
      vertex -4.3402 -6.83906 -3
      vertex -5.16313 -6.24116 -3
    endloop
  endfacet
  facet normal 0.481749 0.876309 -0
    outer loop
      vertex -3.44881 -7.3291 -3
      vertex -4.3402 -6.83906 0
      vertex -3.44881 -7.3291 0
    endloop
  endfacet
  facet normal 0.481749 0.876309 0
    outer loop
      vertex -4.3402 -6.83906 0
      vertex -3.44881 -7.3291 -3
      vertex -4.3402 -6.83906 -3
    endloop
  endfacet
  facet normal 0.844332 0.53582 0
    outer loop
      vertex -6.55304 -4.76106 0
      vertex -7.09808 -3.9022 -3
      vertex -7.09808 -3.9022 0
    endloop
  endfacet
  facet normal 0.844332 0.53582 0
    outer loop
      vertex -7.09808 -3.9022 -3
      vertex -6.55304 -4.76106 0
      vertex -6.55304 -4.76106 -3
    endloop
  endfacet
  facet normal -0.248691 0.968583 0
    outer loop
      vertex 2.50304 -7.70356 -3
      vertex 1.51779 -7.95653 0
      vertex 2.50304 -7.70356 0
    endloop
  endfacet
  facet normal -0.248691 0.968583 0
    outer loop
      vertex 1.51779 -7.95653 0
      vertex 2.50304 -7.70356 -3
      vertex 1.51779 -7.95653 -3
    endloop
  endfacet
  facet normal -0.68455 0.728966 0
    outer loop
      vertex 5.90464 -5.54483 -3
      vertex 5.16313 -6.24116 0
      vertex 5.90464 -5.54483 0
    endloop
  endfacet
  facet normal -0.68455 0.728966 0
    outer loop
      vertex 5.16313 -6.24116 0
      vertex 5.90464 -5.54483 -3
      vertex 5.16313 -6.24116 -3
    endloop
  endfacet
  facet normal 0.248691 0.968583 -0
    outer loop
      vertex -1.51779 -7.95653 -3
      vertex -2.50304 -7.70356 0
      vertex -1.51779 -7.95653 0
    endloop
  endfacet
  facet normal 0.248691 0.968583 0
    outer loop
      vertex -2.50304 -7.70356 0
      vertex -1.51779 -7.95653 -3
      vertex -2.50304 -7.70356 -3
    endloop
  endfacet
  facet normal 0.125333 0.992115 -0
    outer loop
      vertex -0.508603 -8.08402 -3
      vertex -1.51779 -7.95653 0
      vertex -0.508603 -8.08402 0
    endloop
  endfacet
  facet normal 0.125333 0.992115 0
    outer loop
      vertex -1.51779 -7.95653 0
      vertex -0.508603 -8.08402 -3
      vertex -1.51779 -7.95653 -3
    endloop
  endfacet
endsolid OpenSCAD_Model
