solid OpenSCAD_Model
  facet normal 0.998027 0.0627883 0
    outer loop
      vertex 10 0 -3
      vertex 9.92115 1.25333 -48
      vertex 9.92115 1.25333 -3
    endloop
  endfacet
  facet normal 0.998027 0.0627883 0
    outer loop
      vertex 9.92115 1.25333 -48
      vertex 10 0 -3
      vertex 10 0 -48
    endloop
  endfacet
  facet normal -0.998027 0.0627883 0
    outer loop
      vertex -10 0 -48
      vertex -9.92115 1.25333 -3
      vertex -9.92115 1.25333 -48
    endloop
  endfacet
  facet normal -0.998027 0.0627883 0
    outer loop
      vertex -9.92115 1.25333 -3
      vertex -10 0 -48
      vertex -10 0 -3
    endloop
  endfacet
  facet normal 0 1 -0
    outer loop
      vertex 0.627905 9.98027 -48
      vertex -0.627905 9.98027 -3
      vertex 0.627905 9.98027 -3
    endloop
  endfacet
  facet normal 0 1 0
    outer loop
      vertex -0.627905 9.98027 -3
      vertex 0.627905 9.98027 -48
      vertex -0.627905 9.98027 -48
    endloop
  endfacet
  facet normal 0 -1 0
    outer loop
      vertex -0.627905 -9.98027 -48
      vertex 0.627905 -9.98027 -3
      vertex -0.627905 -9.98027 -3
    endloop
  endfacet
  facet normal 0 -1 -0
    outer loop
      vertex 0.627905 -9.98027 -3
      vertex -0.627905 -9.98027 -48
      vertex 0.627905 -9.98027 -48
    endloop
  endfacet
  facet normal 0.684545 0.728971 -0
    outer loop
      vertex 7.28969 6.84547 -48
      vertex 6.37424 7.70513 -3
      vertex 7.28969 6.84547 -3
    endloop
  endfacet
  facet normal 0.684545 0.728971 0
    outer loop
      vertex 6.37424 7.70513 -3
      vertex 7.28969 6.84547 -48
      vertex 6.37424 7.70513 -48
    endloop
  endfacet
  facet normal -0.684545 0.728971 0
    outer loop
      vertex -6.37424 7.70513 -48
      vertex -7.28969 6.84547 -3
      vertex -6.37424 7.70513 -3
    endloop
  endfacet
  facet normal -0.684545 0.728971 0
    outer loop
      vertex -7.28969 6.84547 -3
      vertex -6.37424 7.70513 -48
      vertex -7.28969 6.84547 -48
    endloop
  endfacet
  facet normal -0.368122 0.929777 0
    outer loop
      vertex -3.09017 9.51056 -48
      vertex -4.25779 9.04827 -3
      vertex -3.09017 9.51056 -3
    endloop
  endfacet
  facet normal -0.368122 0.929777 0
    outer loop
      vertex -4.25779 9.04827 -3
      vertex -3.09017 9.51056 -48
      vertex -4.25779 9.04827 -48
    endloop
  endfacet
  facet normal 0.904831 0.425771 0
    outer loop
      vertex 9.29776 3.68124 -3
      vertex 8.76307 4.81754 -48
      vertex 8.76307 4.81754 -3
    endloop
  endfacet
  facet normal 0.904831 0.425771 0
    outer loop
      vertex 8.76307 4.81754 -48
      vertex 9.29776 3.68124 -3
      vertex 9.29776 3.68124 -48
    endloop
  endfacet
  facet normal 0.844325 0.535831 0
    outer loop
      vertex 8.76307 4.81754 -3
      vertex 8.09017 5.87785 -48
      vertex 8.09017 5.87785 -3
    endloop
  endfacet
  facet normal 0.844325 0.535831 0
    outer loop
      vertex 8.09017 5.87785 -48
      vertex 8.76307 4.81754 -3
      vertex 8.76307 4.81754 -48
    endloop
  endfacet
  facet normal 0.368122 0.929777 -0
    outer loop
      vertex 4.25779 9.04827 -48
      vertex 3.09017 9.51056 -3
      vertex 4.25779 9.04827 -3
    endloop
  endfacet
  facet normal 0.368122 0.929777 0
    outer loop
      vertex 3.09017 9.51056 -3
      vertex 4.25779 9.04827 -48
      vertex 3.09017 9.51056 -48
    endloop
  endfacet
  facet normal 0.248691 0.968583 -0
    outer loop
      vertex 3.09017 9.51056 -48
      vertex 1.87381 9.82287 -3
      vertex 3.09017 9.51056 -3
    endloop
  endfacet
  facet normal 0.248691 0.968583 0
    outer loop
      vertex 1.87381 9.82287 -3
      vertex 3.09017 9.51056 -48
      vertex 1.87381 9.82287 -48
    endloop
  endfacet
  facet normal 0.481751 0.876308 -0
    outer loop
      vertex 5.35827 8.44328 -48
      vertex 4.25779 9.04827 -3
      vertex 5.35827 8.44328 -3
    endloop
  endfacet
  facet normal 0.481751 0.876308 0
    outer loop
      vertex 4.25779 9.04827 -3
      vertex 5.35827 8.44328 -48
      vertex 4.25779 9.04827 -48
    endloop
  endfacet
  facet normal -0.904831 0.425771 0
    outer loop
      vertex -9.29776 3.68124 -48
      vertex -8.76307 4.81754 -3
      vertex -8.76307 4.81754 -48
    endloop
  endfacet
  facet normal -0.904831 0.425771 0
    outer loop
      vertex -8.76307 4.81754 -3
      vertex -9.29776 3.68124 -48
      vertex -9.29776 3.68124 -3
    endloop
  endfacet
  facet normal -0.770515 0.637422 0
    outer loop
      vertex -8.09017 5.87785 -48
      vertex -7.28969 6.84547 -3
      vertex -7.28969 6.84547 -48
    endloop
  endfacet
  facet normal -0.770515 0.637422 0
    outer loop
      vertex -7.28969 6.84547 -3
      vertex -8.09017 5.87785 -48
      vertex -8.09017 5.87785 -3
    endloop
  endfacet
  facet normal -0.951055 0.309021 0
    outer loop
      vertex -9.68583 2.4869 -48
      vertex -9.29776 3.68124 -3
      vertex -9.29776 3.68124 -48
    endloop
  endfacet
  facet normal -0.951055 0.309021 0
    outer loop
      vertex -9.29776 3.68124 -3
      vertex -9.68583 2.4869 -48
      vertex -9.68583 2.4869 -3
    endloop
  endfacet
  facet normal -0.481751 0.876308 0
    outer loop
      vertex -4.25779 9.04827 -48
      vertex -5.35827 8.44328 -3
      vertex -4.25779 9.04827 -3
    endloop
  endfacet
  facet normal -0.481751 0.876308 0
    outer loop
      vertex -5.35827 8.44328 -3
      vertex -4.25779 9.04827 -48
      vertex -5.35827 8.44328 -48
    endloop
  endfacet
  facet normal -0.125338 0.992114 0
    outer loop
      vertex -0.627905 9.98027 -48
      vertex -1.87381 9.82287 -3
      vertex -0.627905 9.98027 -3
    endloop
  endfacet
  facet normal -0.125338 0.992114 0
    outer loop
      vertex -1.87381 9.82287 -3
      vertex -0.627905 9.98027 -48
      vertex -1.87381 9.82287 -48
    endloop
  endfacet
  facet normal 0.125338 -0.992114 0
    outer loop
      vertex 0.627905 -9.98027 -48
      vertex 1.87381 -9.82287 -3
      vertex 0.627905 -9.98027 -3
    endloop
  endfacet
  facet normal 0.125338 -0.992114 0
    outer loop
      vertex 1.87381 -9.82287 -3
      vertex 0.627905 -9.98027 -48
      vertex 1.87381 -9.82287 -48
    endloop
  endfacet
  facet normal 0.368122 -0.929777 0
    outer loop
      vertex 3.09017 -9.51056 -48
      vertex 4.25779 -9.04827 -3
      vertex 3.09017 -9.51056 -3
    endloop
  endfacet
  facet normal 0.368122 -0.929777 0
    outer loop
      vertex 4.25779 -9.04827 -3
      vertex 3.09017 -9.51056 -48
      vertex 4.25779 -9.04827 -48
    endloop
  endfacet
  facet normal 0.951055 0.309021 0
    outer loop
      vertex 9.68583 2.4869 -3
      vertex 9.29776 3.68124 -48
      vertex 9.29776 3.68124 -3
    endloop
  endfacet
  facet normal 0.951055 0.309021 0
    outer loop
      vertex 9.29776 3.68124 -48
      vertex 9.68583 2.4869 -3
      vertex 9.68583 2.4869 -48
    endloop
  endfacet
  facet normal 0.982287 0.187384 0
    outer loop
      vertex 9.92115 1.25333 -3
      vertex 9.68583 2.4869 -48
      vertex 9.68583 2.4869 -3
    endloop
  endfacet
  facet normal 0.982287 0.187384 0
    outer loop
      vertex 9.68583 2.4869 -48
      vertex 9.92115 1.25333 -3
      vertex 9.92115 1.25333 -48
    endloop
  endfacet
  facet normal 0.770515 0.637422 0
    outer loop
      vertex 8.09017 5.87785 -3
      vertex 7.28969 6.84547 -48
      vertex 7.28969 6.84547 -3
    endloop
  endfacet
  facet normal 0.770515 0.637422 0
    outer loop
      vertex 7.28969 6.84547 -48
      vertex 8.09017 5.87785 -3
      vertex 8.09017 5.87785 -48
    endloop
  endfacet
  facet normal 0.125338 0.992114 -0
    outer loop
      vertex 1.87381 9.82287 -48
      vertex 0.627905 9.98027 -3
      vertex 1.87381 9.82287 -3
    endloop
  endfacet
  facet normal 0.125338 0.992114 0
    outer loop
      vertex 0.627905 9.98027 -3
      vertex 1.87381 9.82287 -48
      vertex 0.627905 9.98027 -48
    endloop
  endfacet
  facet normal 0.587788 0.809015 -0
    outer loop
      vertex 6.37424 7.70513 -48
      vertex 5.35827 8.44328 -3
      vertex 6.37424 7.70513 -3
    endloop
  endfacet
  facet normal 0.587788 0.809015 0
    outer loop
      vertex 5.35827 8.44328 -3
      vertex 6.37424 7.70513 -48
      vertex 5.35827 8.44328 -48
    endloop
  endfacet
  facet normal -0.844325 0.535831 0
    outer loop
      vertex -8.76307 4.81754 -48
      vertex -8.09017 5.87785 -3
      vertex -8.09017 5.87785 -48
    endloop
  endfacet
  facet normal -0.844325 0.535831 0
    outer loop
      vertex -8.09017 5.87785 -3
      vertex -8.76307 4.81754 -48
      vertex -8.76307 4.81754 -3
    endloop
  endfacet
  facet normal -0.982287 0.187384 0
    outer loop
      vertex -9.92115 1.25333 -48
      vertex -9.68583 2.4869 -3
      vertex -9.68583 2.4869 -48
    endloop
  endfacet
  facet normal -0.982287 0.187384 0
    outer loop
      vertex -9.68583 2.4869 -3
      vertex -9.92115 1.25333 -48
      vertex -9.92115 1.25333 -3
    endloop
  endfacet
  facet normal 0 0 1
    outer loop
      vertex 2.25 0 0
      vertex 20 0 0
      vertex 19.8423 2.50666 0
    endloop
  endfacet
  facet normal 0 0 1
    outer loop
      vertex 2.23226 0.282 0
      vertex 19.8423 2.50666 0
      vertex 19.3717 4.9738 0
    endloop
  endfacet
  facet normal 0 0 1
    outer loop
      vertex 20 0 0
      vertex 2.25 0 0
      vertex 19.8423 -2.50666 0
    endloop
  endfacet
  facet normal 0 0 1
    outer loop
      vertex 2.17931 0.559552 0
      vertex 19.3717 4.9738 0
      vertex 18.5955 7.36249 0
    endloop
  endfacet
  facet normal -0 0 1
    outer loop
      vertex 2.23226 -0.282 0
      vertex 19.8423 -2.50666 0
      vertex 2.25 0 0
    endloop
  endfacet
  facet normal 0 0 1
    outer loop
      vertex 2.092 0.828279 0
      vertex 18.5955 7.36249 0
      vertex 17.5261 9.63507 0
    endloop
  endfacet
  facet normal 0 0 1
    outer loop
      vertex 19.8423 -2.50666 0
      vertex 2.23226 -0.282 0
      vertex 19.3717 -4.9738 0
    endloop
  endfacet
  facet normal 0 0 1
    outer loop
      vertex 1.97169 1.08395 0
      vertex 17.5261 9.63507 0
      vertex 16.1803 11.7557 0
    endloop
  endfacet
  facet normal -0 0 1
    outer loop
      vertex 2.17931 -0.559552 0
      vertex 19.3717 -4.9738 0
      vertex 2.23226 -0.282 0
    endloop
  endfacet
  facet normal 0 0 1
    outer loop
      vertex 1.82029 1.32252 0
      vertex 16.1803 11.7557 0
      vertex 14.5794 13.6909 0
    endloop
  endfacet
  facet normal 0 0 1
    outer loop
      vertex 19.3717 -4.9738 0
      vertex 2.17931 -0.559552 0
      vertex 18.5955 -7.36249 0
    endloop
  endfacet
  facet normal 0 0 1
    outer loop
      vertex 1.64018 1.54023 0
      vertex 14.5794 13.6909 0
      vertex 12.7485 15.4103 0
    endloop
  endfacet
  facet normal -0 0 1
    outer loop
      vertex 2.092 -0.828279 0
      vertex 18.5955 -7.36249 0
      vertex 2.17931 -0.559552 0
    endloop
  endfacet
  facet normal 0 0 1
    outer loop
      vertex 1.4342 1.73365 0
      vertex 12.7485 15.4103 0
      vertex 10.7165 16.8866 0
    endloop
  endfacet
  facet normal 0 0 1
    outer loop
      vertex 18.5955 -7.36249 0
      vertex 2.092 -0.828279 0
      vertex 17.5261 -9.63507 0
    endloop
  endfacet
  facet normal 0 0 1
    outer loop
      vertex 1.20561 1.89974 0
      vertex 10.7165 16.8866 0
      vertex 8.51558 18.0965 0
    endloop
  endfacet
  facet normal -0 0 1
    outer loop
      vertex 1.97169 -1.08395 0
      vertex 17.5261 -9.63507 0
      vertex 2.092 -0.828279 0
    endloop
  endfacet
  facet normal 0 0 1
    outer loop
      vertex 0.958003 2.03586 0
      vertex 8.51558 18.0965 0
      vertex 6.18034 19.0211 0
    endloop
  endfacet
  facet normal 0 0 1
    outer loop
      vertex 17.5261 -9.63507 0
      vertex 1.97169 -1.08395 0
      vertex 16.1803 -11.7557 0
    endloop
  endfacet
  facet normal 0 0 1
    outer loop
      vertex 0.695288 2.13988 0
      vertex 6.18034 19.0211 0
      vertex 3.74763 19.6457 0
    endloop
  endfacet
  facet normal -0 0 1
    outer loop
      vertex 1.82029 -1.32252 0
      vertex 16.1803 -11.7557 0
      vertex 1.97169 -1.08395 0
    endloop
  endfacet
  facet normal 0 0 1
    outer loop
      vertex 16.1803 -11.7557 0
      vertex 1.82029 -1.32252 0
      vertex 14.5794 -13.6909 0
    endloop
  endfacet
  facet normal 0 0 1
    outer loop
      vertex 19.8423 2.50666 0
      vertex 2.23226 0.282 0
      vertex 2.25 0 0
    endloop
  endfacet
  facet normal 0 0 1
    outer loop
      vertex 19.3717 4.9738 0
      vertex 2.17931 0.559552 0
      vertex 2.23226 0.282 0
    endloop
  endfacet
  facet normal 0 0 1
    outer loop
      vertex 18.5955 7.36249 0
      vertex 2.092 0.828279 0
      vertex 2.17931 0.559552 0
    endloop
  endfacet
  facet normal 0 0 1
    outer loop
      vertex 17.5261 9.63507 0
      vertex 1.97169 1.08395 0
      vertex 2.092 0.828279 0
    endloop
  endfacet
  facet normal 0 0 1
    outer loop
      vertex 16.1803 11.7557 0
      vertex 1.82029 1.32252 0
      vertex 1.97169 1.08395 0
    endloop
  endfacet
  facet normal 0 0 1
    outer loop
      vertex 14.5794 13.6909 0
      vertex 1.64018 1.54023 0
      vertex 1.82029 1.32252 0
    endloop
  endfacet
  facet normal 0 0 1
    outer loop
      vertex 12.7485 15.4103 0
      vertex 1.4342 1.73365 0
      vertex 1.64018 1.54023 0
    endloop
  endfacet
  facet normal 0 0 1
    outer loop
      vertex 0.421607 2.21015 0
      vertex 3.74763 19.6457 0
      vertex 1.25581 19.9605 0
    endloop
  endfacet
  facet normal 0 0 1
    outer loop
      vertex 10.7165 16.8866 0
      vertex 1.20561 1.89974 0
      vertex 1.4342 1.73365 0
    endloop
  endfacet
  facet normal 0 0 1
    outer loop
      vertex 8.51558 18.0965 0
      vertex 0.958003 2.03586 0
      vertex 1.20561 1.89974 0
    endloop
  endfacet
  facet normal 0 0 1
    outer loop
      vertex 6.18034 19.0211 0
      vertex 0.695288 2.13988 0
      vertex 0.958003 2.03586 0
    endloop
  endfacet
  facet normal 0 0 1
    outer loop
      vertex 3.74763 19.6457 0
      vertex 0.421607 2.21015 0
      vertex 0.695288 2.13988 0
    endloop
  endfacet
  facet normal 0 0 1
    outer loop
      vertex 1.25581 19.9605 0
      vertex 0.141278 2.24556 0
      vertex 0.421607 2.21015 0
    endloop
  endfacet
  facet normal 0 0 1
    outer loop
      vertex 1.25581 19.9605 0
      vertex -0.141278 2.24556 0
      vertex 0.141278 2.24556 0
    endloop
  endfacet
  facet normal -0 0 1
    outer loop
      vertex -1.25581 19.9605 0
      vertex -0.141278 2.24556 0
      vertex 1.25581 19.9605 0
    endloop
  endfacet
  facet normal 0 0 1
    outer loop
      vertex -0.141278 2.24556 0
      vertex -1.25581 19.9605 0
      vertex -0.421607 2.21015 0
    endloop
  endfacet
  facet normal -0 0 1
    outer loop
      vertex -3.74763 19.6457 0
      vertex -0.421607 2.21015 0
      vertex -1.25581 19.9605 0
    endloop
  endfacet
  facet normal 0 0 1
    outer loop
      vertex -0.421607 2.21015 0
      vertex -3.74763 19.6457 0
      vertex -0.695288 2.13988 0
    endloop
  endfacet
  facet normal -0 0 1
    outer loop
      vertex -6.18034 19.0211 0
      vertex -0.695288 2.13988 0
      vertex -3.74763 19.6457 0
    endloop
  endfacet
  facet normal 0 0 1
    outer loop
      vertex -0.695288 2.13988 0
      vertex -6.18034 19.0211 0
      vertex -0.958003 2.03586 0
    endloop
  endfacet
  facet normal -0 0 1
    outer loop
      vertex -8.51558 18.0965 0
      vertex -0.958003 2.03586 0
      vertex -6.18034 19.0211 0
    endloop
  endfacet
  facet normal 0 0 1
    outer loop
      vertex -0.958003 2.03586 0
      vertex -8.51558 18.0965 0
      vertex -1.20561 1.89974 0
    endloop
  endfacet
  facet normal -0 0 1
    outer loop
      vertex -10.7165 16.8866 0
      vertex -1.20561 1.89974 0
      vertex -8.51558 18.0965 0
    endloop
  endfacet
  facet normal 0 0 1
    outer loop
      vertex -1.20561 1.89974 0
      vertex -10.7165 16.8866 0
      vertex -1.4342 1.73365 0
    endloop
  endfacet
  facet normal -0 0 1
    outer loop
      vertex -12.7485 15.4103 0
      vertex -1.4342 1.73365 0
      vertex -10.7165 16.8866 0
    endloop
  endfacet
  facet normal 0 0 1
    outer loop
      vertex -1.4342 1.73365 0
      vertex -12.7485 15.4103 0
      vertex -1.64018 1.54023 0
    endloop
  endfacet
  facet normal -0 0 1
    outer loop
      vertex -14.5794 13.6909 0
      vertex -1.64018 1.54023 0
      vertex -12.7485 15.4103 0
    endloop
  endfacet
  facet normal 0 0 1
    outer loop
      vertex -1.64018 1.54023 0
      vertex -14.5794 13.6909 0
      vertex -1.82029 1.32252 0
    endloop
  endfacet
  facet normal -0 0 1
    outer loop
      vertex 1.64018 -1.54023 0
      vertex 14.5794 -13.6909 0
      vertex 1.82029 -1.32252 0
    endloop
  endfacet
  facet normal 0 0 1
    outer loop
      vertex 14.5794 -13.6909 0
      vertex 1.64018 -1.54023 0
      vertex 12.7485 -15.4103 0
    endloop
  endfacet
  facet normal -0 0 1
    outer loop
      vertex 1.4342 -1.73365 0
      vertex 12.7485 -15.4103 0
      vertex 1.64018 -1.54023 0
    endloop
  endfacet
  facet normal 0 0 1
    outer loop
      vertex 12.7485 -15.4103 0
      vertex 1.4342 -1.73365 0
      vertex 10.7165 -16.8866 0
    endloop
  endfacet
  facet normal -0 0 1
    outer loop
      vertex 1.20561 -1.89974 0
      vertex 10.7165 -16.8866 0
      vertex 1.4342 -1.73365 0
    endloop
  endfacet
  facet normal 0 0 1
    outer loop
      vertex 10.7165 -16.8866 0
      vertex 1.20561 -1.89974 0
      vertex 8.51558 -18.0965 0
    endloop
  endfacet
  facet normal -0 0 1
    outer loop
      vertex 0.958003 -2.03586 0
      vertex 8.51558 -18.0965 0
      vertex 1.20561 -1.89974 0
    endloop
  endfacet
  facet normal 0 0 1
    outer loop
      vertex 8.51558 -18.0965 0
      vertex 0.958003 -2.03586 0
      vertex 6.18034 -19.0211 0
    endloop
  endfacet
  facet normal -0 0 1
    outer loop
      vertex 0.695288 -2.13988 0
      vertex 6.18034 -19.0211 0
      vertex 0.958003 -2.03586 0
    endloop
  endfacet
  facet normal 0 0 1
    outer loop
      vertex 6.18034 -19.0211 0
      vertex 0.695288 -2.13988 0
      vertex 3.74763 -19.6457 0
    endloop
  endfacet
  facet normal -0 0 1
    outer loop
      vertex 0.421607 -2.21015 0
      vertex 3.74763 -19.6457 0
      vertex 0.695288 -2.13988 0
    endloop
  endfacet
  facet normal 0 0 1
    outer loop
      vertex 3.74763 -19.6457 0
      vertex 0.421607 -2.21015 0
      vertex 1.25581 -19.9605 0
    endloop
  endfacet
  facet normal -0 0 1
    outer loop
      vertex 0.141278 -2.24556 0
      vertex 1.25581 -19.9605 0
      vertex 0.421607 -2.21015 0
    endloop
  endfacet
  facet normal -0 0 1
    outer loop
      vertex -0.141278 -2.24556 0
      vertex 1.25581 -19.9605 0
      vertex 0.141278 -2.24556 0
    endloop
  endfacet
  facet normal 0 0 1
    outer loop
      vertex -1.25581 -19.9605 0
      vertex -0.141278 -2.24556 0
      vertex -0.421607 -2.21015 0
    endloop
  endfacet
  facet normal 0 0 1
    outer loop
      vertex -3.74763 -19.6457 0
      vertex -0.421607 -2.21015 0
      vertex -0.695288 -2.13988 0
    endloop
  endfacet
  facet normal 0 0 1
    outer loop
      vertex -6.18034 -19.0211 0
      vertex -0.695288 -2.13988 0
      vertex -0.958003 -2.03586 0
    endloop
  endfacet
  facet normal 0 0 1
    outer loop
      vertex -8.51558 -18.0965 0
      vertex -0.958003 -2.03586 0
      vertex -1.20561 -1.89974 0
    endloop
  endfacet
  facet normal 0 0 1
    outer loop
      vertex -0.141278 -2.24556 0
      vertex -1.25581 -19.9605 0
      vertex 1.25581 -19.9605 0
    endloop
  endfacet
  facet normal 0 0 1
    outer loop
      vertex -10.7165 -16.8866 0
      vertex -1.20561 -1.89974 0
      vertex -1.4342 -1.73365 0
    endloop
  endfacet
  facet normal 0 0 1
    outer loop
      vertex -12.7485 -15.4103 0
      vertex -1.4342 -1.73365 0
      vertex -1.64018 -1.54023 0
    endloop
  endfacet
  facet normal 0 0 1
    outer loop
      vertex -14.5794 -13.6909 0
      vertex -1.64018 -1.54023 0
      vertex -1.82029 -1.32252 0
    endloop
  endfacet
  facet normal 0 0 1
    outer loop
      vertex -16.1803 -11.7557 0
      vertex -1.82029 -1.32252 0
      vertex -1.97169 -1.08395 0
    endloop
  endfacet
  facet normal 0 0 1
    outer loop
      vertex -17.5261 -9.63507 0
      vertex -1.97169 -1.08395 0
      vertex -2.092 -0.828279 0
    endloop
  endfacet
  facet normal 0 0 1
    outer loop
      vertex -18.5955 -7.36249 0
      vertex -2.092 -0.828279 0
      vertex -2.17931 -0.559552 0
    endloop
  endfacet
  facet normal 0 0 1
    outer loop
      vertex -19.3717 -4.9738 0
      vertex -2.17931 -0.559552 0
      vertex -2.23226 -0.282 0
    endloop
  endfacet
  facet normal 0 0 1
    outer loop
      vertex -19.8423 -2.50666 0
      vertex -2.23226 -0.282 0
      vertex -2.25 0 0
    endloop
  endfacet
  facet normal -0 0 1
    outer loop
      vertex -16.1803 11.7557 0
      vertex -1.82029 1.32252 0
      vertex -14.5794 13.6909 0
    endloop
  endfacet
  facet normal 0 0 1
    outer loop
      vertex -0.421607 -2.21015 0
      vertex -3.74763 -19.6457 0
      vertex -1.25581 -19.9605 0
    endloop
  endfacet
  facet normal 0 0 1
    outer loop
      vertex -1.82029 1.32252 0
      vertex -16.1803 11.7557 0
      vertex -1.97169 1.08395 0
    endloop
  endfacet
  facet normal 0 0 1
    outer loop
      vertex -0.695288 -2.13988 0
      vertex -6.18034 -19.0211 0
      vertex -3.74763 -19.6457 0
    endloop
  endfacet
  facet normal -0 0 1
    outer loop
      vertex -17.5261 9.63507 0
      vertex -1.97169 1.08395 0
      vertex -16.1803 11.7557 0
    endloop
  endfacet
  facet normal 0 0 1
    outer loop
      vertex -0.958003 -2.03586 0
      vertex -8.51558 -18.0965 0
      vertex -6.18034 -19.0211 0
    endloop
  endfacet
  facet normal 0 0 1
    outer loop
      vertex -1.97169 1.08395 0
      vertex -17.5261 9.63507 0
      vertex -2.092 0.828279 0
    endloop
  endfacet
  facet normal 0 0 1
    outer loop
      vertex -1.20561 -1.89974 0
      vertex -10.7165 -16.8866 0
      vertex -8.51558 -18.0965 0
    endloop
  endfacet
  facet normal -0 0 1
    outer loop
      vertex -18.5955 7.36249 0
      vertex -2.092 0.828279 0
      vertex -17.5261 9.63507 0
    endloop
  endfacet
  facet normal 0 0 1
    outer loop
      vertex -1.4342 -1.73365 0
      vertex -12.7485 -15.4103 0
      vertex -10.7165 -16.8866 0
    endloop
  endfacet
  facet normal 0 0 1
    outer loop
      vertex -2.092 0.828279 0
      vertex -18.5955 7.36249 0
      vertex -2.17931 0.559552 0
    endloop
  endfacet
  facet normal 0 0 1
    outer loop
      vertex -1.64018 -1.54023 0
      vertex -14.5794 -13.6909 0
      vertex -12.7485 -15.4103 0
    endloop
  endfacet
  facet normal -0 0 1
    outer loop
      vertex -19.3717 4.9738 0
      vertex -2.17931 0.559552 0
      vertex -18.5955 7.36249 0
    endloop
  endfacet
  facet normal 0 0 1
    outer loop
      vertex -1.82029 -1.32252 0
      vertex -16.1803 -11.7557 0
      vertex -14.5794 -13.6909 0
    endloop
  endfacet
  facet normal 0 0 1
    outer loop
      vertex -2.17931 0.559552 0
      vertex -19.3717 4.9738 0
      vertex -2.23226 0.282 0
    endloop
  endfacet
  facet normal 0 0 1
    outer loop
      vertex -1.97169 -1.08395 0
      vertex -17.5261 -9.63507 0
      vertex -16.1803 -11.7557 0
    endloop
  endfacet
  facet normal -0 0 1
    outer loop
      vertex -19.8423 2.50666 0
      vertex -2.23226 0.282 0
      vertex -19.3717 4.9738 0
    endloop
  endfacet
  facet normal 0 0 1
    outer loop
      vertex -2.092 -0.828279 0
      vertex -18.5955 -7.36249 0
      vertex -17.5261 -9.63507 0
    endloop
  endfacet
  facet normal 0 0 1
    outer loop
      vertex -2.23226 0.282 0
      vertex -19.8423 2.50666 0
      vertex -2.25 0 0
    endloop
  endfacet
  facet normal 0 0 1
    outer loop
      vertex -2.17931 -0.559552 0
      vertex -19.3717 -4.9738 0
      vertex -18.5955 -7.36249 0
    endloop
  endfacet
  facet normal 0 0 1
    outer loop
      vertex -20 0 0
      vertex -2.25 0 0
      vertex -19.8423 2.50666 0
    endloop
  endfacet
  facet normal 0 0 1
    outer loop
      vertex -2.23226 -0.282 0
      vertex -19.8423 -2.50666 0
      vertex -19.3717 -4.9738 0
    endloop
  endfacet
  facet normal 0 0 1
    outer loop
      vertex -2.25 0 0
      vertex -20 0 0
      vertex -19.8423 -2.50666 0
    endloop
  endfacet
  facet normal -0.587788 0.809015 0
    outer loop
      vertex -5.35827 8.44328 -48
      vertex -6.37424 7.70513 -3
      vertex -5.35827 8.44328 -3
    endloop
  endfacet
  facet normal -0.587788 0.809015 0
    outer loop
      vertex -6.37424 7.70513 -3
      vertex -5.35827 8.44328 -48
      vertex -6.37424 7.70513 -48
    endloop
  endfacet
  facet normal -0.248691 0.968583 0
    outer loop
      vertex -1.87381 9.82287 -48
      vertex -3.09017 9.51056 -3
      vertex -1.87381 9.82287 -3
    endloop
  endfacet
  facet normal -0.248691 0.968583 0
    outer loop
      vertex -3.09017 9.51056 -3
      vertex -1.87381 9.82287 -48
      vertex -3.09017 9.51056 -48
    endloop
  endfacet
  facet normal 0.998027 -0.0627883 0
    outer loop
      vertex 9.92115 -1.25333 -3
      vertex 10 0 -48
      vertex 10 0 -3
    endloop
  endfacet
  facet normal 0.998027 -0.0627883 0
    outer loop
      vertex 10 0 -48
      vertex 9.92115 -1.25333 -3
      vertex 9.92115 -1.25333 -48
    endloop
  endfacet
  facet normal 0.481751 -0.876308 0
    outer loop
      vertex 4.25779 -9.04827 -48
      vertex 5.35827 -8.44328 -3
      vertex 4.25779 -9.04827 -3
    endloop
  endfacet
  facet normal 0.481751 -0.876308 0
    outer loop
      vertex 5.35827 -8.44328 -3
      vertex 4.25779 -9.04827 -48
      vertex 5.35827 -8.44328 -48
    endloop
  endfacet
  facet normal 0.770515 -0.637422 0
    outer loop
      vertex 7.28969 -6.84547 -3
      vertex 8.09017 -5.87785 -48
      vertex 8.09017 -5.87785 -3
    endloop
  endfacet
  facet normal 0.770515 -0.637422 0
    outer loop
      vertex 8.09017 -5.87785 -48
      vertex 7.28969 -6.84547 -3
      vertex 7.28969 -6.84547 -48
    endloop
  endfacet
  facet normal 0.951055 -0.309021 0
    outer loop
      vertex 9.29776 -3.68124 -3
      vertex 9.68583 -2.4869 -48
      vertex 9.68583 -2.4869 -3
    endloop
  endfacet
  facet normal 0.951055 -0.309021 0
    outer loop
      vertex 9.68583 -2.4869 -48
      vertex 9.29776 -3.68124 -3
      vertex 9.29776 -3.68124 -48
    endloop
  endfacet
  facet normal 0.982287 -0.187384 0
    outer loop
      vertex 9.68583 -2.4869 -3
      vertex 9.92115 -1.25333 -48
      vertex 9.92115 -1.25333 -3
    endloop
  endfacet
  facet normal 0.982287 -0.187384 0
    outer loop
      vertex 9.92115 -1.25333 -48
      vertex 9.68583 -2.4869 -3
      vertex 9.68583 -2.4869 -48
    endloop
  endfacet
  facet normal -0.684545 -0.728971 0
    outer loop
      vertex -7.28969 -6.84547 -48
      vertex -6.37424 -7.70513 -3
      vertex -7.28969 -6.84547 -3
    endloop
  endfacet
  facet normal -0.684545 -0.728971 -0
    outer loop
      vertex -6.37424 -7.70513 -3
      vertex -7.28969 -6.84547 -48
      vertex -6.37424 -7.70513 -48
    endloop
  endfacet
  facet normal -0.904831 -0.425771 0
    outer loop
      vertex -8.76307 -4.81754 -48
      vertex -9.29776 -3.68124 -3
      vertex -9.29776 -3.68124 -48
    endloop
  endfacet
  facet normal -0.904831 -0.425771 0
    outer loop
      vertex -9.29776 -3.68124 -3
      vertex -8.76307 -4.81754 -48
      vertex -8.76307 -4.81754 -3
    endloop
  endfacet
  facet normal -0.770515 -0.637422 0
    outer loop
      vertex -7.28969 -6.84547 -48
      vertex -8.09017 -5.87785 -3
      vertex -8.09017 -5.87785 -48
    endloop
  endfacet
  facet normal -0.770515 -0.637422 0
    outer loop
      vertex -8.09017 -5.87785 -3
      vertex -7.28969 -6.84547 -48
      vertex -7.28969 -6.84547 -3
    endloop
  endfacet
  facet normal 0 0 -1
    outer loop
      vertex 2.25 0 -48
      vertex 10 0 -48
      vertex 9.92115 -1.25333 -48
    endloop
  endfacet
  facet normal 0 0 -1
    outer loop
      vertex 2.23226 -0.282 -48
      vertex 9.92115 -1.25333 -48
      vertex 9.68583 -2.4869 -48
    endloop
  endfacet
  facet normal 0 0 -1
    outer loop
      vertex 10 0 -48
      vertex 2.25 0 -48
      vertex 9.92115 1.25333 -48
    endloop
  endfacet
  facet normal 0 0 -1
    outer loop
      vertex 2.17931 -0.559552 -48
      vertex 9.68583 -2.4869 -48
      vertex 9.29776 -3.68124 -48
    endloop
  endfacet
  facet normal 0 0 -1
    outer loop
      vertex 2.23226 0.282 -48
      vertex 9.92115 1.25333 -48
      vertex 2.25 0 -48
    endloop
  endfacet
  facet normal 0 0 -1
    outer loop
      vertex 2.092 -0.828279 -48
      vertex 9.29776 -3.68124 -48
      vertex 8.76307 -4.81754 -48
    endloop
  endfacet
  facet normal -0 0 -1
    outer loop
      vertex 9.92115 1.25333 -48
      vertex 2.23226 0.282 -48
      vertex 9.68583 2.4869 -48
    endloop
  endfacet
  facet normal 0 0 -1
    outer loop
      vertex 1.97169 -1.08395 -48
      vertex 8.76307 -4.81754 -48
      vertex 8.09017 -5.87785 -48
    endloop
  endfacet
  facet normal 0 0 -1
    outer loop
      vertex 2.17931 0.559552 -48
      vertex 9.68583 2.4869 -48
      vertex 2.23226 0.282 -48
    endloop
  endfacet
  facet normal 0 0 -1
    outer loop
      vertex 1.82029 -1.32252 -48
      vertex 8.09017 -5.87785 -48
      vertex 7.28969 -6.84547 -48
    endloop
  endfacet
  facet normal -0 0 -1
    outer loop
      vertex 9.68583 2.4869 -48
      vertex 2.17931 0.559552 -48
      vertex 9.29776 3.68124 -48
    endloop
  endfacet
  facet normal 0 0 -1
    outer loop
      vertex 1.64018 -1.54023 -48
      vertex 7.28969 -6.84547 -48
      vertex 6.37424 -7.70513 -48
    endloop
  endfacet
  facet normal 0 0 -1
    outer loop
      vertex 2.092 0.828279 -48
      vertex 9.29776 3.68124 -48
      vertex 2.17931 0.559552 -48
    endloop
  endfacet
  facet normal 0 0 -1
    outer loop
      vertex 1.4342 -1.73365 -48
      vertex 6.37424 -7.70513 -48
      vertex 5.35827 -8.44328 -48
    endloop
  endfacet
  facet normal -0 0 -1
    outer loop
      vertex 9.29776 3.68124 -48
      vertex 2.092 0.828279 -48
      vertex 8.76307 4.81754 -48
    endloop
  endfacet
  facet normal 0 0 -1
    outer loop
      vertex 1.20561 -1.89974 -48
      vertex 5.35827 -8.44328 -48
      vertex 4.25779 -9.04827 -48
    endloop
  endfacet
  facet normal 0 0 -1
    outer loop
      vertex 1.97169 1.08395 -48
      vertex 8.76307 4.81754 -48
      vertex 2.092 0.828279 -48
    endloop
  endfacet
  facet normal 0 0 -1
    outer loop
      vertex 0.958003 -2.03586 -48
      vertex 4.25779 -9.04827 -48
      vertex 3.09017 -9.51056 -48
    endloop
  endfacet
  facet normal -0 0 -1
    outer loop
      vertex 8.76307 4.81754 -48
      vertex 1.97169 1.08395 -48
      vertex 8.09017 5.87785 -48
    endloop
  endfacet
  facet normal 0 0 -1
    outer loop
      vertex 1.82029 1.32252 -48
      vertex 8.09017 5.87785 -48
      vertex 1.97169 1.08395 -48
    endloop
  endfacet
  facet normal 0 0 -1
    outer loop
      vertex 9.92115 -1.25333 -48
      vertex 2.23226 -0.282 -48
      vertex 2.25 0 -48
    endloop
  endfacet
  facet normal 0 0 -1
    outer loop
      vertex 9.68583 -2.4869 -48
      vertex 2.17931 -0.559552 -48
      vertex 2.23226 -0.282 -48
    endloop
  endfacet
  facet normal 0 0 -1
    outer loop
      vertex 9.29776 -3.68124 -48
      vertex 2.092 -0.828279 -48
      vertex 2.17931 -0.559552 -48
    endloop
  endfacet
  facet normal 0 0 -1
    outer loop
      vertex 8.76307 -4.81754 -48
      vertex 1.97169 -1.08395 -48
      vertex 2.092 -0.828279 -48
    endloop
  endfacet
  facet normal 0 0 -1
    outer loop
      vertex 0.695288 -2.13988 -48
      vertex 3.09017 -9.51056 -48
      vertex 1.87381 -9.82287 -48
    endloop
  endfacet
  facet normal 0 0 -1
    outer loop
      vertex 8.09017 -5.87785 -48
      vertex 1.82029 -1.32252 -48
      vertex 1.97169 -1.08395 -48
    endloop
  endfacet
  facet normal 0 0 -1
    outer loop
      vertex 7.28969 -6.84547 -48
      vertex 1.64018 -1.54023 -48
      vertex 1.82029 -1.32252 -48
    endloop
  endfacet
  facet normal 0 0 -1
    outer loop
      vertex 6.37424 -7.70513 -48
      vertex 1.4342 -1.73365 -48
      vertex 1.64018 -1.54023 -48
    endloop
  endfacet
  facet normal 0 0 -1
    outer loop
      vertex 5.35827 -8.44328 -48
      vertex 1.20561 -1.89974 -48
      vertex 1.4342 -1.73365 -48
    endloop
  endfacet
  facet normal 0 0 -1
    outer loop
      vertex 4.25779 -9.04827 -48
      vertex 0.958003 -2.03586 -48
      vertex 1.20561 -1.89974 -48
    endloop
  endfacet
  facet normal 0 0 -1
    outer loop
      vertex 3.09017 -9.51056 -48
      vertex 0.695288 -2.13988 -48
      vertex 0.958003 -2.03586 -48
    endloop
  endfacet
  facet normal 0 0 -1
    outer loop
      vertex 0.421607 -2.21015 -48
      vertex 1.87381 -9.82287 -48
      vertex 0.627905 -9.98027 -48
    endloop
  endfacet
  facet normal 0 0 -1
    outer loop
      vertex 1.87381 -9.82287 -48
      vertex 0.421607 -2.21015 -48
      vertex 0.695288 -2.13988 -48
    endloop
  endfacet
  facet normal 0 0 -1
    outer loop
      vertex 0.627905 -9.98027 -48
      vertex 0.141278 -2.24556 -48
      vertex 0.421607 -2.21015 -48
    endloop
  endfacet
  facet normal 0 0 -1
    outer loop
      vertex 0.627905 -9.98027 -48
      vertex -0.141278 -2.24556 -48
      vertex 0.141278 -2.24556 -48
    endloop
  endfacet
  facet normal 0 0 -1
    outer loop
      vertex -0.627905 -9.98027 -48
      vertex -0.141278 -2.24556 -48
      vertex 0.627905 -9.98027 -48
    endloop
  endfacet
  facet normal -0 0 -1
    outer loop
      vertex -0.141278 -2.24556 -48
      vertex -0.627905 -9.98027 -48
      vertex -0.421607 -2.21015 -48
    endloop
  endfacet
  facet normal 0 0 -1
    outer loop
      vertex -1.87381 -9.82287 -48
      vertex -0.421607 -2.21015 -48
      vertex -0.627905 -9.98027 -48
    endloop
  endfacet
  facet normal -0 0 -1
    outer loop
      vertex -0.421607 -2.21015 -48
      vertex -1.87381 -9.82287 -48
      vertex -0.695288 -2.13988 -48
    endloop
  endfacet
  facet normal 0 0 -1
    outer loop
      vertex -3.09017 -9.51056 -48
      vertex -0.695288 -2.13988 -48
      vertex -1.87381 -9.82287 -48
    endloop
  endfacet
  facet normal -0 0 -1
    outer loop
      vertex -0.695288 -2.13988 -48
      vertex -3.09017 -9.51056 -48
      vertex -0.958003 -2.03586 -48
    endloop
  endfacet
  facet normal 0 0 -1
    outer loop
      vertex -4.25779 -9.04827 -48
      vertex -0.958003 -2.03586 -48
      vertex -3.09017 -9.51056 -48
    endloop
  endfacet
  facet normal -0 0 -1
    outer loop
      vertex -0.958003 -2.03586 -48
      vertex -4.25779 -9.04827 -48
      vertex -1.20561 -1.89974 -48
    endloop
  endfacet
  facet normal 0 0 -1
    outer loop
      vertex -5.35827 -8.44328 -48
      vertex -1.20561 -1.89974 -48
      vertex -4.25779 -9.04827 -48
    endloop
  endfacet
  facet normal -0 0 -1
    outer loop
      vertex -1.20561 -1.89974 -48
      vertex -5.35827 -8.44328 -48
      vertex -1.4342 -1.73365 -48
    endloop
  endfacet
  facet normal 0 0 -1
    outer loop
      vertex -6.37424 -7.70513 -48
      vertex -1.4342 -1.73365 -48
      vertex -5.35827 -8.44328 -48
    endloop
  endfacet
  facet normal -0 0 -1
    outer loop
      vertex -1.4342 -1.73365 -48
      vertex -6.37424 -7.70513 -48
      vertex -1.64018 -1.54023 -48
    endloop
  endfacet
  facet normal 0 0 -1
    outer loop
      vertex -7.28969 -6.84547 -48
      vertex -1.64018 -1.54023 -48
      vertex -6.37424 -7.70513 -48
    endloop
  endfacet
  facet normal -0 0 -1
    outer loop
      vertex -1.64018 -1.54023 -48
      vertex -7.28969 -6.84547 -48
      vertex -1.82029 -1.32252 -48
    endloop
  endfacet
  facet normal 0 0 -1
    outer loop
      vertex -8.09017 -5.87785 -48
      vertex -1.82029 -1.32252 -48
      vertex -7.28969 -6.84547 -48
    endloop
  endfacet
  facet normal -0 0 -1
    outer loop
      vertex 8.09017 5.87785 -48
      vertex 1.82029 1.32252 -48
      vertex 7.28969 6.84547 -48
    endloop
  endfacet
  facet normal 0 0 -1
    outer loop
      vertex 1.64018 1.54023 -48
      vertex 7.28969 6.84547 -48
      vertex 1.82029 1.32252 -48
    endloop
  endfacet
  facet normal -0 0 -1
    outer loop
      vertex 7.28969 6.84547 -48
      vertex 1.64018 1.54023 -48
      vertex 6.37424 7.70513 -48
    endloop
  endfacet
  facet normal 0 0 -1
    outer loop
      vertex 1.4342 1.73365 -48
      vertex 6.37424 7.70513 -48
      vertex 1.64018 1.54023 -48
    endloop
  endfacet
  facet normal -0 0 -1
    outer loop
      vertex 6.37424 7.70513 -48
      vertex 1.4342 1.73365 -48
      vertex 5.35827 8.44328 -48
    endloop
  endfacet
  facet normal 0 0 -1
    outer loop
      vertex 1.20561 1.89974 -48
      vertex 5.35827 8.44328 -48
      vertex 1.4342 1.73365 -48
    endloop
  endfacet
  facet normal -0 0 -1
    outer loop
      vertex 5.35827 8.44328 -48
      vertex 1.20561 1.89974 -48
      vertex 4.25779 9.04827 -48
    endloop
  endfacet
  facet normal 0 0 -1
    outer loop
      vertex 0.958003 2.03586 -48
      vertex 4.25779 9.04827 -48
      vertex 1.20561 1.89974 -48
    endloop
  endfacet
  facet normal -0 0 -1
    outer loop
      vertex 4.25779 9.04827 -48
      vertex 0.958003 2.03586 -48
      vertex 3.09017 9.51056 -48
    endloop
  endfacet
  facet normal 0 0 -1
    outer loop
      vertex 0.695288 2.13988 -48
      vertex 3.09017 9.51056 -48
      vertex 0.958003 2.03586 -48
    endloop
  endfacet
  facet normal -0 0 -1
    outer loop
      vertex 3.09017 9.51056 -48
      vertex 0.695288 2.13988 -48
      vertex 1.87381 9.82287 -48
    endloop
  endfacet
  facet normal 0 0 -1
    outer loop
      vertex 0.421607 2.21015 -48
      vertex 1.87381 9.82287 -48
      vertex 0.695288 2.13988 -48
    endloop
  endfacet
  facet normal -0 0 -1
    outer loop
      vertex 1.87381 9.82287 -48
      vertex 0.421607 2.21015 -48
      vertex 0.627905 9.98027 -48
    endloop
  endfacet
  facet normal 0 0 -1
    outer loop
      vertex 0.141278 2.24556 -48
      vertex 0.627905 9.98027 -48
      vertex 0.421607 2.21015 -48
    endloop
  endfacet
  facet normal 0 0 -1
    outer loop
      vertex -0.141278 2.24556 -48
      vertex 0.627905 9.98027 -48
      vertex 0.141278 2.24556 -48
    endloop
  endfacet
  facet normal 0 0 -1
    outer loop
      vertex -0.627905 9.98027 -48
      vertex -0.141278 2.24556 -48
      vertex -0.421607 2.21015 -48
    endloop
  endfacet
  facet normal 0 0 -1
    outer loop
      vertex -0.141278 2.24556 -48
      vertex -0.627905 9.98027 -48
      vertex 0.627905 9.98027 -48
    endloop
  endfacet
  facet normal 0 0 -1
    outer loop
      vertex -1.87381 9.82287 -48
      vertex -0.421607 2.21015 -48
      vertex -0.695288 2.13988 -48
    endloop
  endfacet
  facet normal 0 0 -1
    outer loop
      vertex -3.09017 9.51056 -48
      vertex -0.695288 2.13988 -48
      vertex -0.958003 2.03586 -48
    endloop
  endfacet
  facet normal 0 0 -1
    outer loop
      vertex -4.25779 9.04827 -48
      vertex -0.958003 2.03586 -48
      vertex -1.20561 1.89974 -48
    endloop
  endfacet
  facet normal 0 0 -1
    outer loop
      vertex -5.35827 8.44328 -48
      vertex -1.20561 1.89974 -48
      vertex -1.4342 1.73365 -48
    endloop
  endfacet
  facet normal 0 0 -1
    outer loop
      vertex -6.37424 7.70513 -48
      vertex -1.4342 1.73365 -48
      vertex -1.64018 1.54023 -48
    endloop
  endfacet
  facet normal 0 0 -1
    outer loop
      vertex -7.28969 6.84547 -48
      vertex -1.64018 1.54023 -48
      vertex -1.82029 1.32252 -48
    endloop
  endfacet
  facet normal 0 0 -1
    outer loop
      vertex -0.421607 2.21015 -48
      vertex -1.87381 9.82287 -48
      vertex -0.627905 9.98027 -48
    endloop
  endfacet
  facet normal 0 0 -1
    outer loop
      vertex -8.09017 5.87785 -48
      vertex -1.82029 1.32252 -48
      vertex -1.97169 1.08395 -48
    endloop
  endfacet
  facet normal 0 0 -1
    outer loop
      vertex -8.76307 4.81754 -48
      vertex -1.97169 1.08395 -48
      vertex -2.092 0.828279 -48
    endloop
  endfacet
  facet normal 0 0 -1
    outer loop
      vertex -9.29776 3.68124 -48
      vertex -2.092 0.828279 -48
      vertex -2.17931 0.559552 -48
    endloop
  endfacet
  facet normal 0 0 -1
    outer loop
      vertex -9.68583 2.4869 -48
      vertex -2.17931 0.559552 -48
      vertex -2.23226 0.282 -48
    endloop
  endfacet
  facet normal 0 0 -1
    outer loop
      vertex -9.92115 1.25333 -48
      vertex -2.23226 0.282 -48
      vertex -2.25 0 -48
    endloop
  endfacet
  facet normal -0 0 -1
    outer loop
      vertex -1.82029 -1.32252 -48
      vertex -8.09017 -5.87785 -48
      vertex -1.97169 -1.08395 -48
    endloop
  endfacet
  facet normal 0 0 -1
    outer loop
      vertex -0.695288 2.13988 -48
      vertex -3.09017 9.51056 -48
      vertex -1.87381 9.82287 -48
    endloop
  endfacet
  facet normal 0 0 -1
    outer loop
      vertex -8.76307 -4.81754 -48
      vertex -1.97169 -1.08395 -48
      vertex -8.09017 -5.87785 -48
    endloop
  endfacet
  facet normal 0 0 -1
    outer loop
      vertex -0.958003 2.03586 -48
      vertex -4.25779 9.04827 -48
      vertex -3.09017 9.51056 -48
    endloop
  endfacet
  facet normal -0 0 -1
    outer loop
      vertex -1.97169 -1.08395 -48
      vertex -8.76307 -4.81754 -48
      vertex -2.092 -0.828279 -48
    endloop
  endfacet
  facet normal 0 0 -1
    outer loop
      vertex -1.20561 1.89974 -48
      vertex -5.35827 8.44328 -48
      vertex -4.25779 9.04827 -48
    endloop
  endfacet
  facet normal 0 0 -1
    outer loop
      vertex -9.29776 -3.68124 -48
      vertex -2.092 -0.828279 -48
      vertex -8.76307 -4.81754 -48
    endloop
  endfacet
  facet normal 0 0 -1
    outer loop
      vertex -1.4342 1.73365 -48
      vertex -6.37424 7.70513 -48
      vertex -5.35827 8.44328 -48
    endloop
  endfacet
  facet normal -0 0 -1
    outer loop
      vertex -2.092 -0.828279 -48
      vertex -9.29776 -3.68124 -48
      vertex -2.17931 -0.559552 -48
    endloop
  endfacet
  facet normal 0 0 -1
    outer loop
      vertex -1.64018 1.54023 -48
      vertex -7.28969 6.84547 -48
      vertex -6.37424 7.70513 -48
    endloop
  endfacet
  facet normal 0 0 -1
    outer loop
      vertex -9.68583 -2.4869 -48
      vertex -2.17931 -0.559552 -48
      vertex -9.29776 -3.68124 -48
    endloop
  endfacet
  facet normal 0 0 -1
    outer loop
      vertex -1.82029 1.32252 -48
      vertex -8.09017 5.87785 -48
      vertex -7.28969 6.84547 -48
    endloop
  endfacet
  facet normal -0 0 -1
    outer loop
      vertex -2.17931 -0.559552 -48
      vertex -9.68583 -2.4869 -48
      vertex -2.23226 -0.282 -48
    endloop
  endfacet
  facet normal 0 0 -1
    outer loop
      vertex -1.97169 1.08395 -48
      vertex -8.76307 4.81754 -48
      vertex -8.09017 5.87785 -48
    endloop
  endfacet
  facet normal 0 0 -1
    outer loop
      vertex -9.92115 -1.25333 -48
      vertex -2.23226 -0.282 -48
      vertex -9.68583 -2.4869 -48
    endloop
  endfacet
  facet normal 0 0 -1
    outer loop
      vertex -2.092 0.828279 -48
      vertex -9.29776 3.68124 -48
      vertex -8.76307 4.81754 -48
    endloop
  endfacet
  facet normal -0 0 -1
    outer loop
      vertex -2.23226 -0.282 -48
      vertex -9.92115 -1.25333 -48
      vertex -2.25 0 -48
    endloop
  endfacet
  facet normal 0 0 -1
    outer loop
      vertex -2.17931 0.559552 -48
      vertex -9.68583 2.4869 -48
      vertex -9.29776 3.68124 -48
    endloop
  endfacet
  facet normal 0 0 -1
    outer loop
      vertex -10 0 -48
      vertex -2.25 0 -48
      vertex -9.92115 -1.25333 -48
    endloop
  endfacet
  facet normal 0 0 -1
    outer loop
      vertex -2.23226 0.282 -48
      vertex -9.92115 1.25333 -48
      vertex -9.68583 2.4869 -48
    endloop
  endfacet
  facet normal 0 0 -1
    outer loop
      vertex -2.25 0 -48
      vertex -10 0 -48
      vertex -9.92115 1.25333 -48
    endloop
  endfacet
  facet normal 0.844325 -0.535831 0
    outer loop
      vertex 8.09017 -5.87785 -3
      vertex 8.76307 -4.81754 -48
      vertex 8.76307 -4.81754 -3
    endloop
  endfacet
  facet normal 0.844325 -0.535831 0
    outer loop
      vertex 8.76307 -4.81754 -48
      vertex 8.09017 -5.87785 -3
      vertex 8.09017 -5.87785 -48
    endloop
  endfacet
  facet normal -0.951055 -0.309021 0
    outer loop
      vertex -9.29776 -3.68124 -48
      vertex -9.68583 -2.4869 -3
      vertex -9.68583 -2.4869 -48
    endloop
  endfacet
  facet normal -0.951055 -0.309021 0
    outer loop
      vertex -9.68583 -2.4869 -3
      vertex -9.29776 -3.68124 -48
      vertex -9.29776 -3.68124 -3
    endloop
  endfacet
  facet normal 0.248691 -0.968583 0
    outer loop
      vertex 1.87381 -9.82287 -48
      vertex 3.09017 -9.51056 -3
      vertex 1.87381 -9.82287 -3
    endloop
  endfacet
  facet normal 0.248691 -0.968583 0
    outer loop
      vertex 3.09017 -9.51056 -3
      vertex 1.87381 -9.82287 -48
      vertex 3.09017 -9.51056 -48
    endloop
  endfacet
  facet normal 0.684545 -0.728971 0
    outer loop
      vertex 6.37424 -7.70513 -48
      vertex 7.28969 -6.84547 -3
      vertex 6.37424 -7.70513 -3
    endloop
  endfacet
  facet normal 0.684545 -0.728971 0
    outer loop
      vertex 7.28969 -6.84547 -3
      vertex 6.37424 -7.70513 -48
      vertex 7.28969 -6.84547 -48
    endloop
  endfacet
  facet normal 0.587788 -0.809015 0
    outer loop
      vertex 5.35827 -8.44328 -48
      vertex 6.37424 -7.70513 -3
      vertex 5.35827 -8.44328 -3
    endloop
  endfacet
  facet normal 0.587788 -0.809015 0
    outer loop
      vertex 6.37424 -7.70513 -3
      vertex 5.35827 -8.44328 -48
      vertex 6.37424 -7.70513 -48
    endloop
  endfacet
  facet normal 0.904831 -0.425771 0
    outer loop
      vertex 8.76307 -4.81754 -3
      vertex 9.29776 -3.68124 -48
      vertex 9.29776 -3.68124 -3
    endloop
  endfacet
  facet normal 0.904831 -0.425771 0
    outer loop
      vertex 9.29776 -3.68124 -48
      vertex 8.76307 -4.81754 -3
      vertex 8.76307 -4.81754 -48
    endloop
  endfacet
  facet normal -0.125338 -0.992114 0
    outer loop
      vertex -1.87381 -9.82287 -48
      vertex -0.627905 -9.98027 -3
      vertex -1.87381 -9.82287 -3
    endloop
  endfacet
  facet normal -0.125338 -0.992114 -0
    outer loop
      vertex -0.627905 -9.98027 -3
      vertex -1.87381 -9.82287 -48
      vertex -0.627905 -9.98027 -48
    endloop
  endfacet
  facet normal -0.368122 -0.929777 0
    outer loop
      vertex -4.25779 -9.04827 -48
      vertex -3.09017 -9.51056 -3
      vertex -4.25779 -9.04827 -3
    endloop
  endfacet
  facet normal -0.368122 -0.929777 -0
    outer loop
      vertex -3.09017 -9.51056 -3
      vertex -4.25779 -9.04827 -48
      vertex -3.09017 -9.51056 -48
    endloop
  endfacet
  facet normal -0.248691 -0.968583 0
    outer loop
      vertex -3.09017 -9.51056 -48
      vertex -1.87381 -9.82287 -3
      vertex -3.09017 -9.51056 -3
    endloop
  endfacet
  facet normal -0.248691 -0.968583 -0
    outer loop
      vertex -1.87381 -9.82287 -3
      vertex -3.09017 -9.51056 -48
      vertex -1.87381 -9.82287 -48
    endloop
  endfacet
  facet normal -0.844325 -0.535831 0
    outer loop
      vertex -8.09017 -5.87785 -48
      vertex -8.76307 -4.81754 -3
      vertex -8.76307 -4.81754 -48
    endloop
  endfacet
  facet normal -0.844325 -0.535831 0
    outer loop
      vertex -8.76307 -4.81754 -3
      vertex -8.09017 -5.87785 -48
      vertex -8.09017 -5.87785 -3
    endloop
  endfacet
  facet normal -0.982287 -0.187384 0
    outer loop
      vertex -9.68583 -2.4869 -48
      vertex -9.92115 -1.25333 -3
      vertex -9.92115 -1.25333 -48
    endloop
  endfacet
  facet normal -0.982287 -0.187384 0
    outer loop
      vertex -9.92115 -1.25333 -3
      vertex -9.68583 -2.4869 -48
      vertex -9.68583 -2.4869 -3
    endloop
  endfacet
  facet normal -0.998027 -0.0627883 0
    outer loop
      vertex -9.92115 -1.25333 -48
      vertex -10 0 -3
      vertex -10 0 -48
    endloop
  endfacet
  facet normal -0.998027 -0.0627883 0
    outer loop
      vertex -10 0 -3
      vertex -9.92115 -1.25333 -48
      vertex -9.92115 -1.25333 -3
    endloop
  endfacet
  facet normal -0.481751 -0.876308 0
    outer loop
      vertex -5.35827 -8.44328 -48
      vertex -4.25779 -9.04827 -3
      vertex -5.35827 -8.44328 -3
    endloop
  endfacet
  facet normal -0.481751 -0.876308 -0
    outer loop
      vertex -4.25779 -9.04827 -3
      vertex -5.35827 -8.44328 -48
      vertex -4.25779 -9.04827 -48
    endloop
  endfacet
  facet normal -0.587788 -0.809015 0
    outer loop
      vertex -6.37424 -7.70513 -48
      vertex -5.35827 -8.44328 -3
      vertex -6.37424 -7.70513 -3
    endloop
  endfacet
  facet normal -0.587788 -0.809015 -0
    outer loop
      vertex -5.35827 -8.44328 -3
      vertex -6.37424 -7.70513 -48
      vertex -5.35827 -8.44328 -48
    endloop
  endfacet
  facet normal 0.998027 0.0627883 0
    outer loop
      vertex 20 0 0
      vertex 19.8423 2.50666 -3
      vertex 19.8423 2.50666 0
    endloop
  endfacet
  facet normal 0.998027 0.0627883 0
    outer loop
      vertex 19.8423 2.50666 -3
      vertex 20 0 0
      vertex 20 0 -3
    endloop
  endfacet
  facet normal -0.998027 0.0627883 0
    outer loop
      vertex -20 0 -3
      vertex -19.8423 2.50666 0
      vertex -19.8423 2.50666 -3
    endloop
  endfacet
  facet normal -0.998027 0.0627883 0
    outer loop
      vertex -19.8423 2.50666 0
      vertex -20 0 -3
      vertex -20 0 0
    endloop
  endfacet
  facet normal 0 1 -0
    outer loop
      vertex 1.25581 19.9605 -3
      vertex -1.25581 19.9605 0
      vertex 1.25581 19.9605 0
    endloop
  endfacet
  facet normal 0 1 0
    outer loop
      vertex -1.25581 19.9605 0
      vertex 1.25581 19.9605 -3
      vertex -1.25581 19.9605 -3
    endloop
  endfacet
  facet normal 0 -1 0
    outer loop
      vertex -1.25581 -19.9605 -3
      vertex 1.25581 -19.9605 0
      vertex -1.25581 -19.9605 0
    endloop
  endfacet
  facet normal 0 -1 -0
    outer loop
      vertex 1.25581 -19.9605 0
      vertex -1.25581 -19.9605 -3
      vertex 1.25581 -19.9605 -3
    endloop
  endfacet
  facet normal 0.684562 0.728955 -0
    outer loop
      vertex 14.5794 13.6909 -3
      vertex 12.7485 15.4103 0
      vertex 14.5794 13.6909 0
    endloop
  endfacet
  facet normal 0.684562 0.728955 0
    outer loop
      vertex 12.7485 15.4103 0
      vertex 14.5794 13.6909 -3
      vertex 12.7485 15.4103 -3
    endloop
  endfacet
  facet normal -0.684562 0.728955 0
    outer loop
      vertex -12.7485 15.4103 -3
      vertex -14.5794 13.6909 0
      vertex -12.7485 15.4103 0
    endloop
  endfacet
  facet normal -0.684562 0.728955 0
    outer loop
      vertex -14.5794 13.6909 0
      vertex -12.7485 15.4103 -3
      vertex -14.5794 13.6909 -3
    endloop
  endfacet
  facet normal -0.368129 0.929775 0
    outer loop
      vertex -6.18034 19.0211 -3
      vertex -8.51558 18.0965 0
      vertex -6.18034 19.0211 0
    endloop
  endfacet
  facet normal -0.368129 0.929775 0
    outer loop
      vertex -8.51558 18.0965 0
      vertex -6.18034 19.0211 -3
      vertex -8.51558 18.0965 -3
    endloop
  endfacet
  facet normal 0.904826 0.425781 0
    outer loop
      vertex 18.5955 7.36249 0
      vertex 17.5261 9.63507 -3
      vertex 17.5261 9.63507 0
    endloop
  endfacet
  facet normal 0.904826 0.425781 0
    outer loop
      vertex 17.5261 9.63507 -3
      vertex 18.5955 7.36249 0
      vertex 18.5955 7.36249 -3
    endloop
  endfacet
  facet normal 0.368129 0.929775 -0
    outer loop
      vertex 8.51558 18.0965 -3
      vertex 6.18034 19.0211 0
      vertex 8.51558 18.0965 0
    endloop
  endfacet
  facet normal 0.368129 0.929775 0
    outer loop
      vertex 6.18034 19.0211 0
      vertex 8.51558 18.0965 -3
      vertex 6.18034 19.0211 -3
    endloop
  endfacet
  facet normal 0.587776 0.809024 -0
    outer loop
      vertex 12.7485 15.4103 -3
      vertex 10.7165 16.8866 0
      vertex 12.7485 15.4103 0
    endloop
  endfacet
  facet normal 0.587776 0.809024 0
    outer loop
      vertex 10.7165 16.8866 0
      vertex 12.7485 15.4103 -3
      vertex 10.7165 16.8866 -3
    endloop
  endfacet
  facet normal -0.844327 0.535829 0
    outer loop
      vertex -17.5261 9.63507 -3
      vertex -16.1803 11.7557 0
      vertex -16.1803 11.7557 -3
    endloop
  endfacet
  facet normal -0.844327 0.535829 0
    outer loop
      vertex -16.1803 11.7557 0
      vertex -17.5261 9.63507 -3
      vertex -17.5261 9.63507 0
    endloop
  endfacet
  facet normal -0.77052 0.637415 0
    outer loop
      vertex -16.1803 11.7557 -3
      vertex -14.5794 13.6909 0
      vertex -14.5794 13.6909 -3
    endloop
  endfacet
  facet normal -0.77052 0.637415 0
    outer loop
      vertex -14.5794 13.6909 0
      vertex -16.1803 11.7557 -3
      vertex -16.1803 11.7557 0
    endloop
  endfacet
  facet normal -0.951049 0.309041 0
    outer loop
      vertex -19.3717 4.9738 -3
      vertex -18.5955 7.36249 0
      vertex -18.5955 7.36249 -3
    endloop
  endfacet
  facet normal -0.951049 0.309041 0
    outer loop
      vertex -18.5955 7.36249 0
      vertex -19.3717 4.9738 -3
      vertex -19.3717 4.9738 0
    endloop
  endfacet
  facet normal -0.481733 0.876318 0
    outer loop
      vertex -8.51558 18.0965 -3
      vertex -10.7165 16.8866 0
      vertex -8.51558 18.0965 0
    endloop
  endfacet
  facet normal -0.481733 0.876318 0
    outer loop
      vertex -10.7165 16.8866 0
      vertex -8.51558 18.0965 -3
      vertex -10.7165 16.8866 -3
    endloop
  endfacet
  facet normal -0.248685 0.968584 0
    outer loop
      vertex -3.74763 19.6457 -3
      vertex -6.18034 19.0211 0
      vertex -3.74763 19.6457 0
    endloop
  endfacet
  facet normal -0.248685 0.968584 0
    outer loop
      vertex -6.18034 19.0211 0
      vertex -3.74763 19.6457 -3
      vertex -6.18034 19.0211 -3
    endloop
  endfacet
  facet normal 0.125337 -0.992114 0
    outer loop
      vertex 1.25581 -19.9605 -3
      vertex 3.74763 -19.6457 0
      vertex 1.25581 -19.9605 0
    endloop
  endfacet
  facet normal 0.125337 -0.992114 0
    outer loop
      vertex 3.74763 -19.6457 0
      vertex 1.25581 -19.9605 -3
      vertex 3.74763 -19.6457 -3
    endloop
  endfacet
  facet normal 0.951049 0.309041 0
    outer loop
      vertex 19.3717 4.9738 0
      vertex 18.5955 7.36249 -3
      vertex 18.5955 7.36249 0
    endloop
  endfacet
  facet normal 0.951049 0.309041 0
    outer loop
      vertex 18.5955 7.36249 -3
      vertex 19.3717 4.9738 0
      vertex 19.3717 4.9738 -3
    endloop
  endfacet
  facet normal 0.98229 0.187369 0
    outer loop
      vertex 19.8423 2.50666 0
      vertex 19.3717 4.9738 -3
      vertex 19.3717 4.9738 0
    endloop
  endfacet
  facet normal 0.98229 0.187369 0
    outer loop
      vertex 19.3717 4.9738 -3
      vertex 19.8423 2.50666 0
      vertex 19.8423 2.50666 -3
    endloop
  endfacet
  facet normal 0.77052 0.637415 0
    outer loop
      vertex 16.1803 11.7557 0
      vertex 14.5794 13.6909 -3
      vertex 14.5794 13.6909 0
    endloop
  endfacet
  facet normal 0.77052 0.637415 0
    outer loop
      vertex 14.5794 13.6909 -3
      vertex 16.1803 11.7557 0
      vertex 16.1803 11.7557 -3
    endloop
  endfacet
  facet normal 0.844327 0.535829 0
    outer loop
      vertex 17.5261 9.63507 0
      vertex 16.1803 11.7557 -3
      vertex 16.1803 11.7557 0
    endloop
  endfacet
  facet normal 0.844327 0.535829 0
    outer loop
      vertex 16.1803 11.7557 -3
      vertex 17.5261 9.63507 0
      vertex 17.5261 9.63507 -3
    endloop
  endfacet
  facet normal 0.248685 0.968584 -0
    outer loop
      vertex 6.18034 19.0211 -3
      vertex 3.74763 19.6457 0
      vertex 6.18034 19.0211 0
    endloop
  endfacet
  facet normal 0.248685 0.968584 0
    outer loop
      vertex 3.74763 19.6457 0
      vertex 6.18034 19.0211 -3
      vertex 3.74763 19.6457 -3
    endloop
  endfacet
  facet normal 0.125337 0.992114 -0
    outer loop
      vertex 3.74763 19.6457 -3
      vertex 1.25581 19.9605 0
      vertex 3.74763 19.6457 0
    endloop
  endfacet
  facet normal 0.125337 0.992114 0
    outer loop
      vertex 1.25581 19.9605 0
      vertex 3.74763 19.6457 -3
      vertex 1.25581 19.9605 -3
    endloop
  endfacet
  facet normal 0.481733 0.876318 -0
    outer loop
      vertex 10.7165 16.8866 -3
      vertex 8.51558 18.0965 0
      vertex 10.7165 16.8866 0
    endloop
  endfacet
  facet normal 0.481733 0.876318 0
    outer loop
      vertex 8.51558 18.0965 0
      vertex 10.7165 16.8866 -3
      vertex 8.51558 18.0965 -3
    endloop
  endfacet
  facet normal -0.904826 0.425781 0
    outer loop
      vertex -18.5955 7.36249 -3
      vertex -17.5261 9.63507 0
      vertex -17.5261 9.63507 -3
    endloop
  endfacet
  facet normal -0.904826 0.425781 0
    outer loop
      vertex -17.5261 9.63507 0
      vertex -18.5955 7.36249 -3
      vertex -18.5955 7.36249 0
    endloop
  endfacet
  facet normal -0.98229 0.187369 0
    outer loop
      vertex -19.8423 2.50666 -3
      vertex -19.3717 4.9738 0
      vertex -19.3717 4.9738 -3
    endloop
  endfacet
  facet normal -0.98229 0.187369 0
    outer loop
      vertex -19.3717 4.9738 0
      vertex -19.8423 2.50666 -3
      vertex -19.8423 2.50666 0
    endloop
  endfacet
  facet normal -0.587776 0.809024 0
    outer loop
      vertex -10.7165 16.8866 -3
      vertex -12.7485 15.4103 0
      vertex -10.7165 16.8866 0
    endloop
  endfacet
  facet normal -0.587776 0.809024 0
    outer loop
      vertex -12.7485 15.4103 0
      vertex -10.7165 16.8866 -3
      vertex -12.7485 15.4103 -3
    endloop
  endfacet
  facet normal -0.125337 0.992114 0
    outer loop
      vertex -1.25581 19.9605 -3
      vertex -3.74763 19.6457 0
      vertex -1.25581 19.9605 0
    endloop
  endfacet
  facet normal -0.125337 0.992114 0
    outer loop
      vertex -3.74763 19.6457 0
      vertex -1.25581 19.9605 -3
      vertex -3.74763 19.6457 -3
    endloop
  endfacet
  facet normal 0.77052 -0.637415 0
    outer loop
      vertex 14.5794 -13.6909 0
      vertex 16.1803 -11.7557 -3
      vertex 16.1803 -11.7557 0
    endloop
  endfacet
  facet normal 0.77052 -0.637415 0
    outer loop
      vertex 16.1803 -11.7557 -3
      vertex 14.5794 -13.6909 0
      vertex 14.5794 -13.6909 -3
    endloop
  endfacet
  facet normal 0.951049 -0.309041 0
    outer loop
      vertex 18.5955 -7.36249 0
      vertex 19.3717 -4.9738 -3
      vertex 19.3717 -4.9738 0
    endloop
  endfacet
  facet normal 0.951049 -0.309041 0
    outer loop
      vertex 19.3717 -4.9738 -3
      vertex 18.5955 -7.36249 0
      vertex 18.5955 -7.36249 -3
    endloop
  endfacet
  facet normal 0.98229 -0.187369 0
    outer loop
      vertex 19.3717 -4.9738 0
      vertex 19.8423 -2.50666 -3
      vertex 19.8423 -2.50666 0
    endloop
  endfacet
  facet normal 0.98229 -0.187369 0
    outer loop
      vertex 19.8423 -2.50666 -3
      vertex 19.3717 -4.9738 0
      vertex 19.3717 -4.9738 -3
    endloop
  endfacet
  facet normal -0.684562 -0.728955 0
    outer loop
      vertex -14.5794 -13.6909 -3
      vertex -12.7485 -15.4103 0
      vertex -14.5794 -13.6909 0
    endloop
  endfacet
  facet normal -0.684562 -0.728955 -0
    outer loop
      vertex -12.7485 -15.4103 0
      vertex -14.5794 -13.6909 -3
      vertex -12.7485 -15.4103 -3
    endloop
  endfacet
  facet normal 0 0 -1
    outer loop
      vertex 10 0 -3
      vertex 20 0 -3
      vertex 19.8423 -2.50666 -3
    endloop
  endfacet
  facet normal 0 0 -1
    outer loop
      vertex 9.92115 -1.25333 -3
      vertex 19.8423 -2.50666 -3
      vertex 19.3717 -4.9738 -3
    endloop
  endfacet
  facet normal 0 0 -1
    outer loop
      vertex 20 0 -3
      vertex 10 0 -3
      vertex 19.8423 2.50666 -3
    endloop
  endfacet
  facet normal 0 0 -1
    outer loop
      vertex 9.68583 -2.4869 -3
      vertex 19.3717 -4.9738 -3
      vertex 18.5955 -7.36249 -3
    endloop
  endfacet
  facet normal 0 0 -1
    outer loop
      vertex 9.92115 1.25333 -3
      vertex 19.8423 2.50666 -3
      vertex 10 0 -3
    endloop
  endfacet
  facet normal 0 0 -1
    outer loop
      vertex 9.29776 -3.68124 -3
      vertex 18.5955 -7.36249 -3
      vertex 17.5261 -9.63507 -3
    endloop
  endfacet
  facet normal -0 0 -1
    outer loop
      vertex 19.8423 2.50666 -3
      vertex 9.92115 1.25333 -3
      vertex 19.3717 4.9738 -3
    endloop
  endfacet
  facet normal 0 0 -1
    outer loop
      vertex 8.76307 -4.81754 -3
      vertex 17.5261 -9.63507 -3
      vertex 16.1803 -11.7557 -3
    endloop
  endfacet
  facet normal 0 0 -1
    outer loop
      vertex 9.68583 2.4869 -3
      vertex 19.3717 4.9738 -3
      vertex 9.92115 1.25333 -3
    endloop
  endfacet
  facet normal 0 0 -1
    outer loop
      vertex 8.09017 -5.87785 -3
      vertex 16.1803 -11.7557 -3
      vertex 14.5794 -13.6909 -3
    endloop
  endfacet
  facet normal -0 0 -1
    outer loop
      vertex 19.3717 4.9738 -3
      vertex 9.68583 2.4869 -3
      vertex 18.5955 7.36249 -3
    endloop
  endfacet
  facet normal 0 0 -1
    outer loop
      vertex 7.28969 -6.84547 -3
      vertex 14.5794 -13.6909 -3
      vertex 12.7485 -15.4103 -3
    endloop
  endfacet
  facet normal 0 0 -1
    outer loop
      vertex 9.29776 3.68124 -3
      vertex 18.5955 7.36249 -3
      vertex 9.68583 2.4869 -3
    endloop
  endfacet
  facet normal 0 0 -1
    outer loop
      vertex 6.37424 -7.70513 -3
      vertex 12.7485 -15.4103 -3
      vertex 10.7165 -16.8866 -3
    endloop
  endfacet
  facet normal -0 0 -1
    outer loop
      vertex 18.5955 7.36249 -3
      vertex 9.29776 3.68124 -3
      vertex 17.5261 9.63507 -3
    endloop
  endfacet
  facet normal 0 0 -1
    outer loop
      vertex 8.76307 4.81754 -3
      vertex 17.5261 9.63507 -3
      vertex 9.29776 3.68124 -3
    endloop
  endfacet
  facet normal 0 0 -1
    outer loop
      vertex 19.8423 -2.50666 -3
      vertex 9.92115 -1.25333 -3
      vertex 10 0 -3
    endloop
  endfacet
  facet normal 0 0 -1
    outer loop
      vertex 19.3717 -4.9738 -3
      vertex 9.68583 -2.4869 -3
      vertex 9.92115 -1.25333 -3
    endloop
  endfacet
  facet normal 0 0 -1
    outer loop
      vertex 18.5955 -7.36249 -3
      vertex 9.29776 -3.68124 -3
      vertex 9.68583 -2.4869 -3
    endloop
  endfacet
  facet normal 0 0 -1
    outer loop
      vertex 17.5261 -9.63507 -3
      vertex 8.76307 -4.81754 -3
      vertex 9.29776 -3.68124 -3
    endloop
  endfacet
  facet normal 0 0 -1
    outer loop
      vertex 5.35827 -8.44328 -3
      vertex 10.7165 -16.8866 -3
      vertex 8.51558 -18.0965 -3
    endloop
  endfacet
  facet normal 0 0 -1
    outer loop
      vertex 16.1803 -11.7557 -3
      vertex 8.09017 -5.87785 -3
      vertex 8.76307 -4.81754 -3
    endloop
  endfacet
  facet normal 0 0 -1
    outer loop
      vertex 14.5794 -13.6909 -3
      vertex 7.28969 -6.84547 -3
      vertex 8.09017 -5.87785 -3
    endloop
  endfacet
  facet normal 0 0 -1
    outer loop
      vertex 12.7485 -15.4103 -3
      vertex 6.37424 -7.70513 -3
      vertex 7.28969 -6.84547 -3
    endloop
  endfacet
  facet normal 0 0 -1
    outer loop
      vertex 4.25779 -9.04827 -3
      vertex 8.51558 -18.0965 -3
      vertex 6.18034 -19.0211 -3
    endloop
  endfacet
  facet normal 0 0 -1
    outer loop
      vertex 10.7165 -16.8866 -3
      vertex 5.35827 -8.44328 -3
      vertex 6.37424 -7.70513 -3
    endloop
  endfacet
  facet normal 0 0 -1
    outer loop
      vertex 8.51558 -18.0965 -3
      vertex 4.25779 -9.04827 -3
      vertex 5.35827 -8.44328 -3
    endloop
  endfacet
  facet normal 0 0 -1
    outer loop
      vertex 3.09017 -9.51056 -3
      vertex 6.18034 -19.0211 -3
      vertex 3.74763 -19.6457 -3
    endloop
  endfacet
  facet normal 0 0 -1
    outer loop
      vertex 6.18034 -19.0211 -3
      vertex 3.09017 -9.51056 -3
      vertex 4.25779 -9.04827 -3
    endloop
  endfacet
  facet normal 0 0 -1
    outer loop
      vertex 3.74763 -19.6457 -3
      vertex 1.87381 -9.82287 -3
      vertex 3.09017 -9.51056 -3
    endloop
  endfacet
  facet normal 0 0 -1
    outer loop
      vertex 1.25581 -19.9605 -3
      vertex 1.87381 -9.82287 -3
      vertex 3.74763 -19.6457 -3
    endloop
  endfacet
  facet normal 0 0 -1
    outer loop
      vertex 1.25581 -19.9605 -3
      vertex 0.627905 -9.98027 -3
      vertex 1.87381 -9.82287 -3
    endloop
  endfacet
  facet normal 0 0 -1
    outer loop
      vertex 1.25581 -19.9605 -3
      vertex -0.627905 -9.98027 -3
      vertex 0.627905 -9.98027 -3
    endloop
  endfacet
  facet normal 0 0 -1
    outer loop
      vertex -1.25581 -19.9605 -3
      vertex -0.627905 -9.98027 -3
      vertex 1.25581 -19.9605 -3
    endloop
  endfacet
  facet normal 0 0 -1
    outer loop
      vertex -1.25581 -19.9605 -3
      vertex -1.87381 -9.82287 -3
      vertex -0.627905 -9.98027 -3
    endloop
  endfacet
  facet normal 0 0 -1
    outer loop
      vertex -3.74763 -19.6457 -3
      vertex -1.87381 -9.82287 -3
      vertex -1.25581 -19.9605 -3
    endloop
  endfacet
  facet normal -0 0 -1
    outer loop
      vertex -1.87381 -9.82287 -3
      vertex -3.74763 -19.6457 -3
      vertex -3.09017 -9.51056 -3
    endloop
  endfacet
  facet normal 0 0 -1
    outer loop
      vertex -6.18034 -19.0211 -3
      vertex -3.09017 -9.51056 -3
      vertex -3.74763 -19.6457 -3
    endloop
  endfacet
  facet normal -0 0 -1
    outer loop
      vertex -3.09017 -9.51056 -3
      vertex -6.18034 -19.0211 -3
      vertex -4.25779 -9.04827 -3
    endloop
  endfacet
  facet normal 0 0 -1
    outer loop
      vertex -8.51558 -18.0965 -3
      vertex -4.25779 -9.04827 -3
      vertex -6.18034 -19.0211 -3
    endloop
  endfacet
  facet normal -0 0 -1
    outer loop
      vertex -4.25779 -9.04827 -3
      vertex -8.51558 -18.0965 -3
      vertex -5.35827 -8.44328 -3
    endloop
  endfacet
  facet normal 0 0 -1
    outer loop
      vertex -10.7165 -16.8866 -3
      vertex -5.35827 -8.44328 -3
      vertex -8.51558 -18.0965 -3
    endloop
  endfacet
  facet normal -0 0 -1
    outer loop
      vertex -5.35827 -8.44328 -3
      vertex -10.7165 -16.8866 -3
      vertex -6.37424 -7.70513 -3
    endloop
  endfacet
  facet normal 0 0 -1
    outer loop
      vertex -12.7485 -15.4103 -3
      vertex -6.37424 -7.70513 -3
      vertex -10.7165 -16.8866 -3
    endloop
  endfacet
  facet normal -0 0 -1
    outer loop
      vertex -6.37424 -7.70513 -3
      vertex -12.7485 -15.4103 -3
      vertex -7.28969 -6.84547 -3
    endloop
  endfacet
  facet normal 0 0 -1
    outer loop
      vertex -14.5794 -13.6909 -3
      vertex -7.28969 -6.84547 -3
      vertex -12.7485 -15.4103 -3
    endloop
  endfacet
  facet normal -0 0 -1
    outer loop
      vertex -7.28969 -6.84547 -3
      vertex -14.5794 -13.6909 -3
      vertex -8.09017 -5.87785 -3
    endloop
  endfacet
  facet normal 0 0 -1
    outer loop
      vertex -16.1803 -11.7557 -3
      vertex -8.09017 -5.87785 -3
      vertex -14.5794 -13.6909 -3
    endloop
  endfacet
  facet normal 0 0 -1
    outer loop
      vertex -17.5261 -9.63507 -3
      vertex -8.76307 -4.81754 -3
      vertex -16.1803 -11.7557 -3
    endloop
  endfacet
  facet normal -0 0 -1
    outer loop
      vertex -8.09017 -5.87785 -3
      vertex -16.1803 -11.7557 -3
      vertex -8.76307 -4.81754 -3
    endloop
  endfacet
  facet normal -0 0 -1
    outer loop
      vertex 17.5261 9.63507 -3
      vertex 8.76307 4.81754 -3
      vertex 16.1803 11.7557 -3
    endloop
  endfacet
  facet normal 0 0 -1
    outer loop
      vertex 8.09017 5.87785 -3
      vertex 16.1803 11.7557 -3
      vertex 8.76307 4.81754 -3
    endloop
  endfacet
  facet normal -0 0 -1
    outer loop
      vertex 16.1803 11.7557 -3
      vertex 8.09017 5.87785 -3
      vertex 14.5794 13.6909 -3
    endloop
  endfacet
  facet normal 0 0 -1
    outer loop
      vertex 7.28969 6.84547 -3
      vertex 14.5794 13.6909 -3
      vertex 8.09017 5.87785 -3
    endloop
  endfacet
  facet normal -0 0 -1
    outer loop
      vertex 14.5794 13.6909 -3
      vertex 7.28969 6.84547 -3
      vertex 12.7485 15.4103 -3
    endloop
  endfacet
  facet normal 0 0 -1
    outer loop
      vertex 6.37424 7.70513 -3
      vertex 12.7485 15.4103 -3
      vertex 7.28969 6.84547 -3
    endloop
  endfacet
  facet normal -0 0 -1
    outer loop
      vertex 12.7485 15.4103 -3
      vertex 6.37424 7.70513 -3
      vertex 10.7165 16.8866 -3
    endloop
  endfacet
  facet normal 0 0 -1
    outer loop
      vertex 5.35827 8.44328 -3
      vertex 10.7165 16.8866 -3
      vertex 6.37424 7.70513 -3
    endloop
  endfacet
  facet normal -0 0 -1
    outer loop
      vertex 10.7165 16.8866 -3
      vertex 5.35827 8.44328 -3
      vertex 8.51558 18.0965 -3
    endloop
  endfacet
  facet normal 0 0 -1
    outer loop
      vertex 4.25779 9.04827 -3
      vertex 8.51558 18.0965 -3
      vertex 5.35827 8.44328 -3
    endloop
  endfacet
  facet normal -0 0 -1
    outer loop
      vertex 8.51558 18.0965 -3
      vertex 4.25779 9.04827 -3
      vertex 6.18034 19.0211 -3
    endloop
  endfacet
  facet normal 0 0 -1
    outer loop
      vertex 3.09017 9.51056 -3
      vertex 6.18034 19.0211 -3
      vertex 4.25779 9.04827 -3
    endloop
  endfacet
  facet normal -0 0 -1
    outer loop
      vertex 6.18034 19.0211 -3
      vertex 3.09017 9.51056 -3
      vertex 3.74763 19.6457 -3
    endloop
  endfacet
  facet normal 0 0 -1
    outer loop
      vertex 1.87381 9.82287 -3
      vertex 3.74763 19.6457 -3
      vertex 3.09017 9.51056 -3
    endloop
  endfacet
  facet normal 0 0 -1
    outer loop
      vertex 1.87381 9.82287 -3
      vertex 1.25581 19.9605 -3
      vertex 3.74763 19.6457 -3
    endloop
  endfacet
  facet normal 0 0 -1
    outer loop
      vertex 0.627905 9.98027 -3
      vertex 1.25581 19.9605 -3
      vertex 1.87381 9.82287 -3
    endloop
  endfacet
  facet normal 0 0 -1
    outer loop
      vertex -0.627905 9.98027 -3
      vertex 1.25581 19.9605 -3
      vertex 0.627905 9.98027 -3
    endloop
  endfacet
  facet normal 0 0 -1
    outer loop
      vertex -0.627905 9.98027 -3
      vertex -1.25581 19.9605 -3
      vertex 1.25581 19.9605 -3
    endloop
  endfacet
  facet normal 0 0 -1
    outer loop
      vertex -1.87381 9.82287 -3
      vertex -1.25581 19.9605 -3
      vertex -0.627905 9.98027 -3
    endloop
  endfacet
  facet normal 0 0 -1
    outer loop
      vertex -3.74763 19.6457 -3
      vertex -1.87381 9.82287 -3
      vertex -3.09017 9.51056 -3
    endloop
  endfacet
  facet normal 0 0 -1
    outer loop
      vertex -1.87381 9.82287 -3
      vertex -3.74763 19.6457 -3
      vertex -1.25581 19.9605 -3
    endloop
  endfacet
  facet normal 0 0 -1
    outer loop
      vertex -6.18034 19.0211 -3
      vertex -3.09017 9.51056 -3
      vertex -4.25779 9.04827 -3
    endloop
  endfacet
  facet normal 0 0 -1
    outer loop
      vertex -8.51558 18.0965 -3
      vertex -4.25779 9.04827 -3
      vertex -5.35827 8.44328 -3
    endloop
  endfacet
  facet normal 0 0 -1
    outer loop
      vertex -3.09017 9.51056 -3
      vertex -6.18034 19.0211 -3
      vertex -3.74763 19.6457 -3
    endloop
  endfacet
  facet normal 0 0 -1
    outer loop
      vertex -10.7165 16.8866 -3
      vertex -5.35827 8.44328 -3
      vertex -6.37424 7.70513 -3
    endloop
  endfacet
  facet normal 0 0 -1
    outer loop
      vertex -12.7485 15.4103 -3
      vertex -6.37424 7.70513 -3
      vertex -7.28969 6.84547 -3
    endloop
  endfacet
  facet normal 0 0 -1
    outer loop
      vertex -14.5794 13.6909 -3
      vertex -7.28969 6.84547 -3
      vertex -8.09017 5.87785 -3
    endloop
  endfacet
  facet normal 0 0 -1
    outer loop
      vertex -4.25779 9.04827 -3
      vertex -8.51558 18.0965 -3
      vertex -6.18034 19.0211 -3
    endloop
  endfacet
  facet normal 0 0 -1
    outer loop
      vertex -16.1803 11.7557 -3
      vertex -8.09017 5.87785 -3
      vertex -8.76307 4.81754 -3
    endloop
  endfacet
  facet normal 0 0 -1
    outer loop
      vertex -17.5261 9.63507 -3
      vertex -8.76307 4.81754 -3
      vertex -9.29776 3.68124 -3
    endloop
  endfacet
  facet normal 0 0 -1
    outer loop
      vertex -18.5955 7.36249 -3
      vertex -9.29776 3.68124 -3
      vertex -9.68583 2.4869 -3
    endloop
  endfacet
  facet normal 0 0 -1
    outer loop
      vertex -19.3717 4.9738 -3
      vertex -9.68583 2.4869 -3
      vertex -9.92115 1.25333 -3
    endloop
  endfacet
  facet normal 0 0 -1
    outer loop
      vertex -5.35827 8.44328 -3
      vertex -10.7165 16.8866 -3
      vertex -8.51558 18.0965 -3
    endloop
  endfacet
  facet normal 0 0 -1
    outer loop
      vertex -19.8423 2.50666 -3
      vertex -9.92115 1.25333 -3
      vertex -10 0 -3
    endloop
  endfacet
  facet normal -0 0 -1
    outer loop
      vertex -8.76307 -4.81754 -3
      vertex -17.5261 -9.63507 -3
      vertex -9.29776 -3.68124 -3
    endloop
  endfacet
  facet normal 0 0 -1
    outer loop
      vertex -18.5955 -7.36249 -3
      vertex -9.29776 -3.68124 -3
      vertex -17.5261 -9.63507 -3
    endloop
  endfacet
  facet normal 0 0 -1
    outer loop
      vertex -6.37424 7.70513 -3
      vertex -12.7485 15.4103 -3
      vertex -10.7165 16.8866 -3
    endloop
  endfacet
  facet normal -0 0 -1
    outer loop
      vertex -9.29776 -3.68124 -3
      vertex -18.5955 -7.36249 -3
      vertex -9.68583 -2.4869 -3
    endloop
  endfacet
  facet normal 0 0 -1
    outer loop
      vertex -7.28969 6.84547 -3
      vertex -14.5794 13.6909 -3
      vertex -12.7485 15.4103 -3
    endloop
  endfacet
  facet normal 0 0 -1
    outer loop
      vertex -19.3717 -4.9738 -3
      vertex -9.68583 -2.4869 -3
      vertex -18.5955 -7.36249 -3
    endloop
  endfacet
  facet normal 0 0 -1
    outer loop
      vertex -8.09017 5.87785 -3
      vertex -16.1803 11.7557 -3
      vertex -14.5794 13.6909 -3
    endloop
  endfacet
  facet normal -0 0 -1
    outer loop
      vertex -9.68583 -2.4869 -3
      vertex -19.3717 -4.9738 -3
      vertex -9.92115 -1.25333 -3
    endloop
  endfacet
  facet normal 0 0 -1
    outer loop
      vertex -8.76307 4.81754 -3
      vertex -17.5261 9.63507 -3
      vertex -16.1803 11.7557 -3
    endloop
  endfacet
  facet normal 0 0 -1
    outer loop
      vertex -19.8423 -2.50666 -3
      vertex -9.92115 -1.25333 -3
      vertex -19.3717 -4.9738 -3
    endloop
  endfacet
  facet normal 0 0 -1
    outer loop
      vertex -9.29776 3.68124 -3
      vertex -18.5955 7.36249 -3
      vertex -17.5261 9.63507 -3
    endloop
  endfacet
  facet normal -0 0 -1
    outer loop
      vertex -9.92115 -1.25333 -3
      vertex -19.8423 -2.50666 -3
      vertex -10 0 -3
    endloop
  endfacet
  facet normal 0 0 -1
    outer loop
      vertex -9.68583 2.4869 -3
      vertex -19.3717 4.9738 -3
      vertex -18.5955 7.36249 -3
    endloop
  endfacet
  facet normal 0 0 -1
    outer loop
      vertex -20 0 -3
      vertex -10 0 -3
      vertex -19.8423 -2.50666 -3
    endloop
  endfacet
  facet normal 0 0 -1
    outer loop
      vertex -9.92115 1.25333 -3
      vertex -19.8423 2.50666 -3
      vertex -19.3717 4.9738 -3
    endloop
  endfacet
  facet normal 0 0 -1
    outer loop
      vertex -10 0 -3
      vertex -20 0 -3
      vertex -19.8423 2.50666 -3
    endloop
  endfacet
  facet normal 0.368129 -0.929775 0
    outer loop
      vertex 6.18034 -19.0211 -3
      vertex 8.51558 -18.0965 0
      vertex 6.18034 -19.0211 0
    endloop
  endfacet
  facet normal 0.368129 -0.929775 0
    outer loop
      vertex 8.51558 -18.0965 0
      vertex 6.18034 -19.0211 -3
      vertex 8.51558 -18.0965 -3
    endloop
  endfacet
  facet normal 0.481733 -0.876318 0
    outer loop
      vertex 8.51558 -18.0965 -3
      vertex 10.7165 -16.8866 0
      vertex 8.51558 -18.0965 0
    endloop
  endfacet
  facet normal 0.481733 -0.876318 0
    outer loop
      vertex 10.7165 -16.8866 0
      vertex 8.51558 -18.0965 -3
      vertex 10.7165 -16.8866 -3
    endloop
  endfacet
  facet normal 0.844327 -0.535829 0
    outer loop
      vertex 16.1803 -11.7557 0
      vertex 17.5261 -9.63507 -3
      vertex 17.5261 -9.63507 0
    endloop
  endfacet
  facet normal 0.844327 -0.535829 0
    outer loop
      vertex 17.5261 -9.63507 -3
      vertex 16.1803 -11.7557 0
      vertex 16.1803 -11.7557 -3
    endloop
  endfacet
  facet normal 0.998027 -0.0627883 0
    outer loop
      vertex 19.8423 -2.50666 0
      vertex 20 0 -3
      vertex 20 0 0
    endloop
  endfacet
  facet normal 0.998027 -0.0627883 0
    outer loop
      vertex 20 0 -3
      vertex 19.8423 -2.50666 0
      vertex 19.8423 -2.50666 -3
    endloop
  endfacet
  facet normal -0.77052 -0.637415 0
    outer loop
      vertex -14.5794 -13.6909 -3
      vertex -16.1803 -11.7557 0
      vertex -16.1803 -11.7557 -3
    endloop
  endfacet
  facet normal -0.77052 -0.637415 0
    outer loop
      vertex -16.1803 -11.7557 0
      vertex -14.5794 -13.6909 -3
      vertex -14.5794 -13.6909 0
    endloop
  endfacet
  facet normal -0.904826 -0.425781 0
    outer loop
      vertex -17.5261 -9.63507 -3
      vertex -18.5955 -7.36249 0
      vertex -18.5955 -7.36249 -3
    endloop
  endfacet
  facet normal -0.904826 -0.425781 0
    outer loop
      vertex -18.5955 -7.36249 0
      vertex -17.5261 -9.63507 -3
      vertex -17.5261 -9.63507 0
    endloop
  endfacet
  facet normal -0.951049 -0.309041 0
    outer loop
      vertex -18.5955 -7.36249 -3
      vertex -19.3717 -4.9738 0
      vertex -19.3717 -4.9738 -3
    endloop
  endfacet
  facet normal -0.951049 -0.309041 0
    outer loop
      vertex -19.3717 -4.9738 0
      vertex -18.5955 -7.36249 -3
      vertex -18.5955 -7.36249 0
    endloop
  endfacet
  facet normal -0.998027 -0.0627883 0
    outer loop
      vertex -19.8423 -2.50666 -3
      vertex -20 0 0
      vertex -20 0 -3
    endloop
  endfacet
  facet normal -0.998027 -0.0627883 0
    outer loop
      vertex -20 0 0
      vertex -19.8423 -2.50666 -3
      vertex -19.8423 -2.50666 0
    endloop
  endfacet
  facet normal 0.248685 -0.968584 0
    outer loop
      vertex 3.74763 -19.6457 -3
      vertex 6.18034 -19.0211 0
      vertex 3.74763 -19.6457 0
    endloop
  endfacet
  facet normal 0.248685 -0.968584 0
    outer loop
      vertex 6.18034 -19.0211 0
      vertex 3.74763 -19.6457 -3
      vertex 6.18034 -19.0211 -3
    endloop
  endfacet
  facet normal 0.684562 -0.728955 0
    outer loop
      vertex 12.7485 -15.4103 -3
      vertex 14.5794 -13.6909 0
      vertex 12.7485 -15.4103 0
    endloop
  endfacet
  facet normal 0.684562 -0.728955 0
    outer loop
      vertex 14.5794 -13.6909 0
      vertex 12.7485 -15.4103 -3
      vertex 14.5794 -13.6909 -3
    endloop
  endfacet
  facet normal 0.587776 -0.809024 0
    outer loop
      vertex 10.7165 -16.8866 -3
      vertex 12.7485 -15.4103 0
      vertex 10.7165 -16.8866 0
    endloop
  endfacet
  facet normal 0.587776 -0.809024 0
    outer loop
      vertex 12.7485 -15.4103 0
      vertex 10.7165 -16.8866 -3
      vertex 12.7485 -15.4103 -3
    endloop
  endfacet
  facet normal 0.904826 -0.425781 0
    outer loop
      vertex 17.5261 -9.63507 0
      vertex 18.5955 -7.36249 -3
      vertex 18.5955 -7.36249 0
    endloop
  endfacet
  facet normal 0.904826 -0.425781 0
    outer loop
      vertex 18.5955 -7.36249 -3
      vertex 17.5261 -9.63507 0
      vertex 17.5261 -9.63507 -3
    endloop
  endfacet
  facet normal -0.125337 -0.992114 0
    outer loop
      vertex -3.74763 -19.6457 -3
      vertex -1.25581 -19.9605 0
      vertex -3.74763 -19.6457 0
    endloop
  endfacet
  facet normal -0.125337 -0.992114 -0
    outer loop
      vertex -1.25581 -19.9605 0
      vertex -3.74763 -19.6457 -3
      vertex -1.25581 -19.9605 -3
    endloop
  endfacet
  facet normal -0.248685 -0.968584 0
    outer loop
      vertex -6.18034 -19.0211 -3
      vertex -3.74763 -19.6457 0
      vertex -6.18034 -19.0211 0
    endloop
  endfacet
  facet normal -0.248685 -0.968584 -0
    outer loop
      vertex -3.74763 -19.6457 0
      vertex -6.18034 -19.0211 -3
      vertex -3.74763 -19.6457 -3
    endloop
  endfacet
  facet normal -0.844327 -0.535829 0
    outer loop
      vertex -16.1803 -11.7557 -3
      vertex -17.5261 -9.63507 0
      vertex -17.5261 -9.63507 -3
    endloop
  endfacet
  facet normal -0.844327 -0.535829 0
    outer loop
      vertex -17.5261 -9.63507 0
      vertex -16.1803 -11.7557 -3
      vertex -16.1803 -11.7557 0
    endloop
  endfacet
  facet normal -0.98229 -0.187369 0
    outer loop
      vertex -19.3717 -4.9738 -3
      vertex -19.8423 -2.50666 0
      vertex -19.8423 -2.50666 -3
    endloop
  endfacet
  facet normal -0.98229 -0.187369 0
    outer loop
      vertex -19.8423 -2.50666 0
      vertex -19.3717 -4.9738 -3
      vertex -19.3717 -4.9738 0
    endloop
  endfacet
  facet normal -0.481733 -0.876318 0
    outer loop
      vertex -10.7165 -16.8866 -3
      vertex -8.51558 -18.0965 0
      vertex -10.7165 -16.8866 0
    endloop
  endfacet
  facet normal -0.481733 -0.876318 -0
    outer loop
      vertex -8.51558 -18.0965 0
      vertex -10.7165 -16.8866 -3
      vertex -8.51558 -18.0965 -3
    endloop
  endfacet
  facet normal -0.587776 -0.809024 0
    outer loop
      vertex -12.7485 -15.4103 -3
      vertex -10.7165 -16.8866 0
      vertex -12.7485 -15.4103 0
    endloop
  endfacet
  facet normal -0.587776 -0.809024 -0
    outer loop
      vertex -10.7165 -16.8866 0
      vertex -12.7485 -15.4103 -3
      vertex -10.7165 -16.8866 -3
    endloop
  endfacet
  facet normal -0.368129 -0.929775 0
    outer loop
      vertex -8.51558 -18.0965 -3
      vertex -6.18034 -19.0211 0
      vertex -8.51558 -18.0965 0
    endloop
  endfacet
  facet normal -0.368129 -0.929775 -0
    outer loop
      vertex -6.18034 -19.0211 0
      vertex -8.51558 -18.0965 -3
      vertex -6.18034 -19.0211 -3
    endloop
  endfacet
  facet normal -0.998027 -0.0627837 0
    outer loop
      vertex 2.25 0 -48
      vertex 2.23226 0.282 0
      vertex 2.23226 0.282 -48
    endloop
  endfacet
  facet normal -0.998027 -0.0627837 0
    outer loop
      vertex 2.23226 0.282 0
      vertex 2.25 0 -48
      vertex 2.25 0 0
    endloop
  endfacet
  facet normal 0.998027 -0.0627837 0
    outer loop
      vertex -2.25 0 0
      vertex -2.23226 0.282 -48
      vertex -2.23226 0.282 0
    endloop
  endfacet
  facet normal 0.998027 -0.0627837 0
    outer loop
      vertex -2.23226 0.282 -48
      vertex -2.25 0 0
      vertex -2.25 0 -48
    endloop
  endfacet
  facet normal 0 -1 0
    outer loop
      vertex -0.141278 2.24556 -48
      vertex 0.141278 2.24556 0
      vertex -0.141278 2.24556 0
    endloop
  endfacet
  facet normal 0 -1 -0
    outer loop
      vertex 0.141278 2.24556 0
      vertex -0.141278 2.24556 -48
      vertex 0.141278 2.24556 -48
    endloop
  endfacet
  facet normal 0 1 -0
    outer loop
      vertex 0.141278 -2.24556 -48
      vertex -0.141278 -2.24556 0
      vertex 0.141278 -2.24556 0
    endloop
  endfacet
  facet normal 0 1 0
    outer loop
      vertex -0.141278 -2.24556 0
      vertex 0.141278 -2.24556 -48
      vertex -0.141278 -2.24556 -48
    endloop
  endfacet
  facet normal -0.684532 -0.728983 0
    outer loop
      vertex 1.4342 1.73365 -48
      vertex 1.64018 1.54023 0
      vertex 1.4342 1.73365 0
    endloop
  endfacet
  facet normal -0.684532 -0.728983 -0
    outer loop
      vertex 1.64018 1.54023 0
      vertex 1.4342 1.73365 -48
      vertex 1.64018 1.54023 -48
    endloop
  endfacet
  facet normal 0.684532 -0.728983 0
    outer loop
      vertex -1.64018 1.54023 -48
      vertex -1.4342 1.73365 0
      vertex -1.64018 1.54023 0
    endloop
  endfacet
  facet normal 0.684532 -0.728983 0
    outer loop
      vertex -1.4342 1.73365 0
      vertex -1.64018 1.54023 -48
      vertex -1.4342 1.73365 -48
    endloop
  endfacet
  facet normal 0.368136 -0.929772 0
    outer loop
      vertex -0.958003 2.03586 -48
      vertex -0.695288 2.13988 0
      vertex -0.958003 2.03586 0
    endloop
  endfacet
  facet normal 0.368136 -0.929772 0
    outer loop
      vertex -0.695288 2.13988 0
      vertex -0.958003 2.03586 -48
      vertex -0.695288 2.13988 -48
    endloop
  endfacet
  facet normal -0.951061 0.309002 0
    outer loop
      vertex 2.092 -0.828279 -48
      vertex 2.17931 -0.559552 0
      vertex 2.17931 -0.559552 -48
    endloop
  endfacet
  facet normal -0.951061 0.309002 0
    outer loop
      vertex 2.17931 -0.559552 0
      vertex 2.092 -0.828279 -48
      vertex 2.092 -0.828279 0
    endloop
  endfacet
  facet normal -0.904827 -0.42578 0
    outer loop
      vertex 2.092 0.828279 -48
      vertex 1.97169 1.08395 0
      vertex 1.97169 1.08395 -48
    endloop
  endfacet
  facet normal -0.904827 -0.42578 0
    outer loop
      vertex 1.97169 1.08395 0
      vertex 2.092 0.828279 -48
      vertex 2.092 0.828279 0
    endloop
  endfacet
  facet normal -0.982285 -0.187395 0
    outer loop
      vertex 2.23226 0.282 -48
      vertex 2.17931 0.559552 0
      vertex 2.17931 0.559552 -48
    endloop
  endfacet
  facet normal -0.982285 -0.187395 0
    outer loop
      vertex 2.17931 0.559552 0
      vertex 2.23226 0.282 -48
      vertex 2.23226 0.282 0
    endloop
  endfacet
  facet normal -0.368136 -0.929772 0
    outer loop
      vertex 0.695288 2.13988 -48
      vertex 0.958003 2.03586 0
      vertex 0.695288 2.13988 0
    endloop
  endfacet
  facet normal -0.368136 -0.929772 -0
    outer loop
      vertex 0.958003 2.03586 0
      vertex 0.695288 2.13988 -48
      vertex 0.958003 2.03586 -48
    endloop
  endfacet
  facet normal -0.248692 -0.968583 0
    outer loop
      vertex 0.421607 2.21015 -48
      vertex 0.695288 2.13988 0
      vertex 0.421607 2.21015 0
    endloop
  endfacet
  facet normal -0.248692 -0.968583 -0
    outer loop
      vertex 0.695288 2.13988 0
      vertex 0.421607 2.21015 -48
      vertex 0.695288 2.13988 -48
    endloop
  endfacet
  facet normal -0.587808 -0.809001 0
    outer loop
      vertex 1.20561 1.89974 -48
      vertex 1.4342 1.73365 0
      vertex 1.20561 1.89974 0
    endloop
  endfacet
  facet normal -0.587808 -0.809001 -0
    outer loop
      vertex 1.4342 1.73365 0
      vertex 1.20561 1.89974 -48
      vertex 1.4342 1.73365 -48
    endloop
  endfacet
  facet normal 0.904827 -0.42578 0
    outer loop
      vertex -2.092 0.828279 0
      vertex -1.97169 1.08395 -48
      vertex -1.97169 1.08395 0
    endloop
  endfacet
  facet normal 0.904827 -0.42578 0
    outer loop
      vertex -1.97169 1.08395 -48
      vertex -2.092 0.828279 0
      vertex -2.092 0.828279 -48
    endloop
  endfacet
  facet normal 0.770505 -0.637434 0
    outer loop
      vertex -1.82029 1.32252 0
      vertex -1.64018 1.54023 -48
      vertex -1.64018 1.54023 0
    endloop
  endfacet
  facet normal 0.770505 -0.637434 0
    outer loop
      vertex -1.64018 1.54023 -48
      vertex -1.82029 1.32252 0
      vertex -1.82029 1.32252 -48
    endloop
  endfacet
  facet normal 0.951061 -0.309002 0
    outer loop
      vertex -2.17931 0.559552 0
      vertex -2.092 0.828279 -48
      vertex -2.092 0.828279 0
    endloop
  endfacet
  facet normal 0.951061 -0.309002 0
    outer loop
      vertex -2.092 0.828279 -48
      vertex -2.17931 0.559552 0
      vertex -2.17931 0.559552 -48
    endloop
  endfacet
  facet normal 0.481745 -0.876311 0
    outer loop
      vertex -1.20561 1.89974 -48
      vertex -0.958003 2.03586 0
      vertex -1.20561 1.89974 0
    endloop
  endfacet
  facet normal 0.481745 -0.876311 0
    outer loop
      vertex -0.958003 2.03586 0
      vertex -1.20561 1.89974 -48
      vertex -0.958003 2.03586 -48
    endloop
  endfacet
  facet normal 0.12532 -0.992116 0
    outer loop
      vertex -0.421607 2.21015 -48
      vertex -0.141278 2.24556 0
      vertex -0.421607 2.21015 0
    endloop
  endfacet
  facet normal 0.12532 -0.992116 0
    outer loop
      vertex -0.141278 2.24556 0
      vertex -0.421607 2.21015 -48
      vertex -0.141278 2.24556 -48
    endloop
  endfacet
  facet normal -0.12532 0.992116 0
    outer loop
      vertex 0.421607 -2.21015 -48
      vertex 0.141278 -2.24556 0
      vertex 0.421607 -2.21015 0
    endloop
  endfacet
  facet normal -0.12532 0.992116 0
    outer loop
      vertex 0.141278 -2.24556 0
      vertex 0.421607 -2.21015 -48
      vertex 0.141278 -2.24556 -48
    endloop
  endfacet
  facet normal -0.951061 -0.309002 0
    outer loop
      vertex 2.17931 0.559552 -48
      vertex 2.092 0.828279 0
      vertex 2.092 0.828279 -48
    endloop
  endfacet
  facet normal -0.951061 -0.309002 0
    outer loop
      vertex 2.092 0.828279 0
      vertex 2.17931 0.559552 -48
      vertex 2.17931 0.559552 0
    endloop
  endfacet
  facet normal -0.770505 -0.637434 0
    outer loop
      vertex 1.82029 1.32252 -48
      vertex 1.64018 1.54023 0
      vertex 1.64018 1.54023 -48
    endloop
  endfacet
  facet normal -0.770505 -0.637434 0
    outer loop
      vertex 1.64018 1.54023 0
      vertex 1.82029 1.32252 -48
      vertex 1.82029 1.32252 0
    endloop
  endfacet
  facet normal -0.84433 -0.535824 0
    outer loop
      vertex 1.97169 1.08395 -48
      vertex 1.82029 1.32252 0
      vertex 1.82029 1.32252 -48
    endloop
  endfacet
  facet normal -0.84433 -0.535824 0
    outer loop
      vertex 1.82029 1.32252 0
      vertex 1.97169 1.08395 -48
      vertex 1.97169 1.08395 0
    endloop
  endfacet
  facet normal -0.12532 -0.992116 0
    outer loop
      vertex 0.141278 2.24556 -48
      vertex 0.421607 2.21015 0
      vertex 0.141278 2.24556 0
    endloop
  endfacet
  facet normal -0.12532 -0.992116 -0
    outer loop
      vertex 0.421607 2.21015 0
      vertex 0.141278 2.24556 -48
      vertex 0.421607 2.21015 -48
    endloop
  endfacet
  facet normal -0.481745 -0.876311 0
    outer loop
      vertex 0.958003 2.03586 -48
      vertex 1.20561 1.89974 0
      vertex 0.958003 2.03586 0
    endloop
  endfacet
  facet normal -0.481745 -0.876311 -0
    outer loop
      vertex 1.20561 1.89974 0
      vertex 0.958003 2.03586 -48
      vertex 1.20561 1.89974 -48
    endloop
  endfacet
  facet normal 0.84433 -0.535824 0
    outer loop
      vertex -1.97169 1.08395 0
      vertex -1.82029 1.32252 -48
      vertex -1.82029 1.32252 0
    endloop
  endfacet
  facet normal 0.84433 -0.535824 0
    outer loop
      vertex -1.82029 1.32252 -48
      vertex -1.97169 1.08395 0
      vertex -1.97169 1.08395 -48
    endloop
  endfacet
  facet normal 0.982285 -0.187395 0
    outer loop
      vertex -2.23226 0.282 0
      vertex -2.17931 0.559552 -48
      vertex -2.17931 0.559552 0
    endloop
  endfacet
  facet normal 0.982285 -0.187395 0
    outer loop
      vertex -2.17931 0.559552 -48
      vertex -2.23226 0.282 0
      vertex -2.23226 0.282 -48
    endloop
  endfacet
  facet normal 0.587808 -0.809001 0
    outer loop
      vertex -1.4342 1.73365 -48
      vertex -1.20561 1.89974 0
      vertex -1.4342 1.73365 0
    endloop
  endfacet
  facet normal 0.587808 -0.809001 0
    outer loop
      vertex -1.20561 1.89974 0
      vertex -1.4342 1.73365 -48
      vertex -1.20561 1.89974 -48
    endloop
  endfacet
  facet normal 0.248692 -0.968583 0
    outer loop
      vertex -0.695288 2.13988 -48
      vertex -0.421607 2.21015 0
      vertex -0.695288 2.13988 0
    endloop
  endfacet
  facet normal 0.248692 -0.968583 0
    outer loop
      vertex -0.421607 2.21015 0
      vertex -0.695288 2.13988 -48
      vertex -0.421607 2.21015 -48
    endloop
  endfacet
  facet normal -0.998027 0.0627837 0
    outer loop
      vertex 2.23226 -0.282 -48
      vertex 2.25 0 0
      vertex 2.25 0 -48
    endloop
  endfacet
  facet normal -0.998027 0.0627837 0
    outer loop
      vertex 2.25 0 0
      vertex 2.23226 -0.282 -48
      vertex 2.23226 -0.282 0
    endloop
  endfacet
  facet normal -0.84433 0.535824 0
    outer loop
      vertex 1.82029 -1.32252 -48
      vertex 1.97169 -1.08395 0
      vertex 1.97169 -1.08395 -48
    endloop
  endfacet
  facet normal -0.84433 0.535824 0
    outer loop
      vertex 1.97169 -1.08395 0
      vertex 1.82029 -1.32252 -48
      vertex 1.82029 -1.32252 0
    endloop
  endfacet
  facet normal -0.982285 0.187395 0
    outer loop
      vertex 2.17931 -0.559552 -48
      vertex 2.23226 -0.282 0
      vertex 2.23226 -0.282 -48
    endloop
  endfacet
  facet normal -0.982285 0.187395 0
    outer loop
      vertex 2.23226 -0.282 0
      vertex 2.17931 -0.559552 -48
      vertex 2.17931 -0.559552 0
    endloop
  endfacet
  facet normal 0.684532 0.728983 -0
    outer loop
      vertex -1.4342 -1.73365 -48
      vertex -1.64018 -1.54023 0
      vertex -1.4342 -1.73365 0
    endloop
  endfacet
  facet normal 0.684532 0.728983 0
    outer loop
      vertex -1.64018 -1.54023 0
      vertex -1.4342 -1.73365 -48
      vertex -1.64018 -1.54023 -48
    endloop
  endfacet
  facet normal 0.770505 0.637434 0
    outer loop
      vertex -1.64018 -1.54023 0
      vertex -1.82029 -1.32252 -48
      vertex -1.82029 -1.32252 0
    endloop
  endfacet
  facet normal 0.770505 0.637434 0
    outer loop
      vertex -1.82029 -1.32252 -48
      vertex -1.64018 -1.54023 0
      vertex -1.64018 -1.54023 -48
    endloop
  endfacet
  facet normal -0.587808 0.809001 0
    outer loop
      vertex 1.4342 -1.73365 -48
      vertex 1.20561 -1.89974 0
      vertex 1.4342 -1.73365 0
    endloop
  endfacet
  facet normal -0.587808 0.809001 0
    outer loop
      vertex 1.20561 -1.89974 0
      vertex 1.4342 -1.73365 -48
      vertex 1.20561 -1.89974 -48
    endloop
  endfacet
  facet normal -0.904827 0.42578 0
    outer loop
      vertex 1.97169 -1.08395 -48
      vertex 2.092 -0.828279 0
      vertex 2.092 -0.828279 -48
    endloop
  endfacet
  facet normal -0.904827 0.42578 0
    outer loop
      vertex 2.092 -0.828279 0
      vertex 1.97169 -1.08395 -48
      vertex 1.97169 -1.08395 0
    endloop
  endfacet
  facet normal 0.368136 0.929772 -0
    outer loop
      vertex -0.695288 -2.13988 -48
      vertex -0.958003 -2.03586 0
      vertex -0.695288 -2.13988 0
    endloop
  endfacet
  facet normal 0.368136 0.929772 0
    outer loop
      vertex -0.958003 -2.03586 0
      vertex -0.695288 -2.13988 -48
      vertex -0.958003 -2.03586 -48
    endloop
  endfacet
  facet normal 0.951061 0.309002 0
    outer loop
      vertex -2.092 -0.828279 0
      vertex -2.17931 -0.559552 -48
      vertex -2.17931 -0.559552 0
    endloop
  endfacet
  facet normal 0.951061 0.309002 0
    outer loop
      vertex -2.17931 -0.559552 -48
      vertex -2.092 -0.828279 0
      vertex -2.092 -0.828279 -48
    endloop
  endfacet
  facet normal -0.770505 0.637434 0
    outer loop
      vertex 1.64018 -1.54023 -48
      vertex 1.82029 -1.32252 0
      vertex 1.82029 -1.32252 -48
    endloop
  endfacet
  facet normal -0.770505 0.637434 0
    outer loop
      vertex 1.82029 -1.32252 0
      vertex 1.64018 -1.54023 -48
      vertex 1.64018 -1.54023 0
    endloop
  endfacet
  facet normal -0.368136 0.929772 0
    outer loop
      vertex 0.958003 -2.03586 -48
      vertex 0.695288 -2.13988 0
      vertex 0.958003 -2.03586 0
    endloop
  endfacet
  facet normal -0.368136 0.929772 0
    outer loop
      vertex 0.695288 -2.13988 0
      vertex 0.958003 -2.03586 -48
      vertex 0.695288 -2.13988 -48
    endloop
  endfacet
  facet normal -0.248692 0.968583 0
    outer loop
      vertex 0.695288 -2.13988 -48
      vertex 0.421607 -2.21015 0
      vertex 0.695288 -2.13988 0
    endloop
  endfacet
  facet normal -0.248692 0.968583 0
    outer loop
      vertex 0.421607 -2.21015 0
      vertex 0.695288 -2.13988 -48
      vertex 0.421607 -2.21015 -48
    endloop
  endfacet
  facet normal 0.481745 0.876311 -0
    outer loop
      vertex -0.958003 -2.03586 -48
      vertex -1.20561 -1.89974 0
      vertex -0.958003 -2.03586 0
    endloop
  endfacet
  facet normal 0.481745 0.876311 0
    outer loop
      vertex -1.20561 -1.89974 0
      vertex -0.958003 -2.03586 -48
      vertex -1.20561 -1.89974 -48
    endloop
  endfacet
  facet normal 0.84433 0.535824 0
    outer loop
      vertex -1.82029 -1.32252 0
      vertex -1.97169 -1.08395 -48
      vertex -1.97169 -1.08395 0
    endloop
  endfacet
  facet normal 0.84433 0.535824 0
    outer loop
      vertex -1.97169 -1.08395 -48
      vertex -1.82029 -1.32252 0
      vertex -1.82029 -1.32252 -48
    endloop
  endfacet
  facet normal 0.904827 0.42578 0
    outer loop
      vertex -1.97169 -1.08395 0
      vertex -2.092 -0.828279 -48
      vertex -2.092 -0.828279 0
    endloop
  endfacet
  facet normal 0.904827 0.42578 0
    outer loop
      vertex -2.092 -0.828279 -48
      vertex -1.97169 -1.08395 0
      vertex -1.97169 -1.08395 -48
    endloop
  endfacet
  facet normal 0.982285 0.187395 0
    outer loop
      vertex -2.17931 -0.559552 0
      vertex -2.23226 -0.282 -48
      vertex -2.23226 -0.282 0
    endloop
  endfacet
  facet normal 0.982285 0.187395 0
    outer loop
      vertex -2.23226 -0.282 -48
      vertex -2.17931 -0.559552 0
      vertex -2.17931 -0.559552 -48
    endloop
  endfacet
  facet normal 0.998027 0.0627837 0
    outer loop
      vertex -2.23226 -0.282 0
      vertex -2.25 0 -48
      vertex -2.25 0 0
    endloop
  endfacet
  facet normal 0.998027 0.0627837 0
    outer loop
      vertex -2.25 0 -48
      vertex -2.23226 -0.282 0
      vertex -2.23226 -0.282 -48
    endloop
  endfacet
  facet normal -0.684532 0.728983 0
    outer loop
      vertex 1.64018 -1.54023 -48
      vertex 1.4342 -1.73365 0
      vertex 1.64018 -1.54023 0
    endloop
  endfacet
  facet normal -0.684532 0.728983 0
    outer loop
      vertex 1.4342 -1.73365 0
      vertex 1.64018 -1.54023 -48
      vertex 1.4342 -1.73365 -48
    endloop
  endfacet
  facet normal -0.481745 0.876311 0
    outer loop
      vertex 1.20561 -1.89974 -48
      vertex 0.958003 -2.03586 0
      vertex 1.20561 -1.89974 0
    endloop
  endfacet
  facet normal -0.481745 0.876311 0
    outer loop
      vertex 0.958003 -2.03586 0
      vertex 1.20561 -1.89974 -48
      vertex 0.958003 -2.03586 -48
    endloop
  endfacet
  facet normal 0.248692 0.968583 -0
    outer loop
      vertex -0.421607 -2.21015 -48
      vertex -0.695288 -2.13988 0
      vertex -0.421607 -2.21015 0
    endloop
  endfacet
  facet normal 0.248692 0.968583 0
    outer loop
      vertex -0.695288 -2.13988 0
      vertex -0.421607 -2.21015 -48
      vertex -0.695288 -2.13988 -48
    endloop
  endfacet
  facet normal 0.12532 0.992116 -0
    outer loop
      vertex -0.141278 -2.24556 -48
      vertex -0.421607 -2.21015 0
      vertex -0.141278 -2.24556 0
    endloop
  endfacet
  facet normal 0.12532 0.992116 0
    outer loop
      vertex -0.421607 -2.21015 0
      vertex -0.141278 -2.24556 -48
      vertex -0.421607 -2.21015 -48
    endloop
  endfacet
  facet normal 0.587808 0.809001 -0
    outer loop
      vertex -1.20561 -1.89974 -48
      vertex -1.4342 -1.73365 0
      vertex -1.20561 -1.89974 0
    endloop
  endfacet
  facet normal 0.587808 0.809001 0
    outer loop
      vertex -1.4342 -1.73365 0
      vertex -1.20561 -1.89974 -48
      vertex -1.4342 -1.73365 -48
    endloop
  endfacet
endsolid OpenSCAD_Model
