solid OpenSCAD_Model
  facet normal 0 0 1
    outer loop
      vertex 6.1 0 0
      vertex 7.5 0 0
      vertex 7.44086 0.939999 0
    endloop
  endfacet
  facet normal 0 0 1
    outer loop
      vertex 6.0519 0.764532 0
      vertex 7.44086 0.939999 0
      vertex 7.26437 1.86517 0
    endloop
  endfacet
  facet normal 0 0 1
    outer loop
      vertex 7.5 0 0
      vertex 6.1 0 0
      vertex 7.44086 -0.939999 0
    endloop
  endfacet
  facet normal 0 0 1
    outer loop
      vertex 5.90836 1.51701 0
      vertex 7.26437 1.86517 0
      vertex 6.97332 2.76093 0
    endloop
  endfacet
  facet normal -0 0 1
    outer loop
      vertex 6.0519 -0.764532 0
      vertex 7.44086 -0.939999 0
      vertex 6.1 0 0
    endloop
  endfacet
  facet normal 0 0 1
    outer loop
      vertex 5.67164 2.24556 0
      vertex 6.97332 2.76093 0
      vertex 6.5723 3.61315 0
    endloop
  endfacet
  facet normal 0 0 1
    outer loop
      vertex 7.44086 -0.939999 0
      vertex 6.0519 -0.764532 0
      vertex 7.26437 -1.86517 0
    endloop
  endfacet
  facet normal -0 0 1
    outer loop
      vertex 5.90836 -1.51701 0
      vertex 7.26437 -1.86517 0
      vertex 6.0519 -0.764532 0
    endloop
  endfacet
  facet normal 0 0 1
    outer loop
      vertex 5.34547 2.9387 0
      vertex 6.5723 3.61315 0
      vertex 6.06763 4.40839 0
    endloop
  endfacet
  facet normal 0 0 1
    outer loop
      vertex 7.44086 0.939999 0
      vertex 6.0519 0.764532 0
      vertex 6.1 0 0
    endloop
  endfacet
  facet normal 0 0 1
    outer loop
      vertex 7.26437 1.86517 0
      vertex 5.90836 1.51701 0
      vertex 6.0519 0.764532 0
    endloop
  endfacet
  facet normal 0 0 1
    outer loop
      vertex 6.97332 2.76093 0
      vertex 5.67164 2.24556 0
      vertex 5.90836 1.51701 0
    endloop
  endfacet
  facet normal 0 0 1
    outer loop
      vertex 4.935 3.58549 0
      vertex 6.06763 4.40839 0
      vertex 5.46726 5.1341 0
    endloop
  endfacet
  facet normal 0 0 1
    outer loop
      vertex 6.5723 3.61315 0
      vertex 5.34547 2.9387 0
      vertex 5.67164 2.24556 0
    endloop
  endfacet
  facet normal 0 0 1
    outer loop
      vertex 6.06763 4.40839 0
      vertex 4.935 3.58549 0
      vertex 5.34547 2.9387 0
    endloop
  endfacet
  facet normal 0 0 1
    outer loop
      vertex 4.44671 4.17574 0
      vertex 5.46726 5.1341 0
      vertex 4.78068 5.77885 0
    endloop
  endfacet
  facet normal 0 0 1
    outer loop
      vertex 5.46726 5.1341 0
      vertex 4.44671 4.17574 0
      vertex 4.935 3.58549 0
    endloop
  endfacet
  facet normal 0 0 1
    outer loop
      vertex 3.88829 4.70013 0
      vertex 4.78068 5.77885 0
      vertex 4.0187 6.33246 0
    endloop
  endfacet
  facet normal 0 0 1
    outer loop
      vertex 4.78068 5.77885 0
      vertex 3.88829 4.70013 0
      vertex 4.44671 4.17574 0
    endloop
  endfacet
  facet normal 0 0 1
    outer loop
      vertex 4.0187 6.33246 0
      vertex 3.26854 5.1504 0
      vertex 3.88829 4.70013 0
    endloop
  endfacet
  facet normal 0 0 1
    outer loop
      vertex 3.19334 6.7862 0
      vertex 3.26854 5.1504 0
      vertex 4.0187 6.33246 0
    endloop
  endfacet
  facet normal 0 0 1
    outer loop
      vertex 3.19334 6.7862 0
      vertex 2.59725 5.51944 0
      vertex 3.26854 5.1504 0
    endloop
  endfacet
  facet normal 0 0 1
    outer loop
      vertex 2.31763 7.13292 0
      vertex 2.59725 5.51944 0
      vertex 3.19334 6.7862 0
    endloop
  endfacet
  facet normal 0 0 1
    outer loop
      vertex 2.31763 7.13292 0
      vertex 1.885 5.80144 0
      vertex 2.59725 5.51944 0
    endloop
  endfacet
  facet normal 0 0 1
    outer loop
      vertex 1.40536 7.36715 0
      vertex 1.885 5.80144 0
      vertex 2.31763 7.13292 0
    endloop
  endfacet
  facet normal 0 0 1
    outer loop
      vertex 1.40536 7.36715 0
      vertex 1.14303 5.99195 0
      vertex 1.885 5.80144 0
    endloop
  endfacet
  facet normal 0 0 1
    outer loop
      vertex 0.470928 7.4852 0
      vertex 1.14303 5.99195 0
      vertex 1.40536 7.36715 0
    endloop
  endfacet
  facet normal 0 0 1
    outer loop
      vertex 0.470928 7.4852 0
      vertex 0.383021 6.08796 0
      vertex 1.14303 5.99195 0
    endloop
  endfacet
  facet normal 0 0 1
    outer loop
      vertex 0.470928 7.4852 0
      vertex -0.383021 6.08796 0
      vertex 0.383021 6.08796 0
    endloop
  endfacet
  facet normal -0 0 1
    outer loop
      vertex -0.470928 7.4852 0
      vertex -0.383021 6.08796 0
      vertex 0.470928 7.4852 0
    endloop
  endfacet
  facet normal 0 0 1
    outer loop
      vertex -0.470928 7.4852 0
      vertex -1.14303 5.99195 0
      vertex -0.383021 6.08796 0
    endloop
  endfacet
  facet normal -0 0 1
    outer loop
      vertex -1.40536 7.36715 0
      vertex -1.14303 5.99195 0
      vertex -0.470928 7.4852 0
    endloop
  endfacet
  facet normal 0 0 1
    outer loop
      vertex -1.40536 7.36715 0
      vertex -1.885 5.80144 0
      vertex -1.14303 5.99195 0
    endloop
  endfacet
  facet normal -0 0 1
    outer loop
      vertex -2.31763 7.13292 0
      vertex -1.885 5.80144 0
      vertex -1.40536 7.36715 0
    endloop
  endfacet
  facet normal 0 0 1
    outer loop
      vertex -2.31763 7.13292 0
      vertex -2.59725 5.51944 0
      vertex -1.885 5.80144 0
    endloop
  endfacet
  facet normal -0 0 1
    outer loop
      vertex -3.19334 6.7862 0
      vertex -2.59725 5.51944 0
      vertex -2.31763 7.13292 0
    endloop
  endfacet
  facet normal 0 0 1
    outer loop
      vertex -3.19334 6.7862 0
      vertex -3.26854 5.1504 0
      vertex -2.59725 5.51944 0
    endloop
  endfacet
  facet normal -0 0 1
    outer loop
      vertex -4.0187 6.33246 0
      vertex -3.26854 5.1504 0
      vertex -3.19334 6.7862 0
    endloop
  endfacet
  facet normal 0 0 1
    outer loop
      vertex -3.26854 5.1504 0
      vertex -4.0187 6.33246 0
      vertex -3.88829 4.70013 0
    endloop
  endfacet
  facet normal -0 0 1
    outer loop
      vertex -4.78068 5.77885 0
      vertex -3.88829 4.70013 0
      vertex -4.0187 6.33246 0
    endloop
  endfacet
  facet normal 0 0 1
    outer loop
      vertex -3.88829 4.70013 0
      vertex -4.78068 5.77885 0
      vertex -4.44671 4.17574 0
    endloop
  endfacet
  facet normal -0 0 1
    outer loop
      vertex -5.46726 5.1341 0
      vertex -4.44671 4.17574 0
      vertex -4.78068 5.77885 0
    endloop
  endfacet
  facet normal 0 0 1
    outer loop
      vertex -4.44671 4.17574 0
      vertex -5.46726 5.1341 0
      vertex -4.935 3.58549 0
    endloop
  endfacet
  facet normal -0 0 1
    outer loop
      vertex -6.06763 4.40839 0
      vertex -4.935 3.58549 0
      vertex -5.46726 5.1341 0
    endloop
  endfacet
  facet normal 0 0 1
    outer loop
      vertex -4.935 3.58549 0
      vertex -6.06763 4.40839 0
      vertex -5.34547 2.9387 0
    endloop
  endfacet
  facet normal -0 0 1
    outer loop
      vertex -6.5723 3.61315 0
      vertex -5.34547 2.9387 0
      vertex -6.06763 4.40839 0
    endloop
  endfacet
  facet normal 0 0 1
    outer loop
      vertex -5.34547 2.9387 0
      vertex -6.5723 3.61315 0
      vertex -5.67164 2.24556 0
    endloop
  endfacet
  facet normal -0 0 1
    outer loop
      vertex -6.97332 2.76093 0
      vertex -5.67164 2.24556 0
      vertex -6.5723 3.61315 0
    endloop
  endfacet
  facet normal 0 0 1
    outer loop
      vertex -5.67164 2.24556 0
      vertex -6.97332 2.76093 0
      vertex -5.90836 1.51701 0
    endloop
  endfacet
  facet normal -0 0 1
    outer loop
      vertex -7.26437 1.86517 0
      vertex -5.90836 1.51701 0
      vertex -6.97332 2.76093 0
    endloop
  endfacet
  facet normal 0 0 1
    outer loop
      vertex 7.26437 -1.86517 0
      vertex 5.90836 -1.51701 0
      vertex 6.97332 -2.76093 0
    endloop
  endfacet
  facet normal -0 0 1
    outer loop
      vertex 5.67164 -2.24556 0
      vertex 6.97332 -2.76093 0
      vertex 5.90836 -1.51701 0
    endloop
  endfacet
  facet normal 0 0 1
    outer loop
      vertex 6.97332 -2.76093 0
      vertex 5.67164 -2.24556 0
      vertex 6.5723 -3.61315 0
    endloop
  endfacet
  facet normal -0 0 1
    outer loop
      vertex 5.34547 -2.9387 0
      vertex 6.5723 -3.61315 0
      vertex 5.67164 -2.24556 0
    endloop
  endfacet
  facet normal 0 0 1
    outer loop
      vertex 6.5723 -3.61315 0
      vertex 5.34547 -2.9387 0
      vertex 6.06763 -4.40839 0
    endloop
  endfacet
  facet normal -0 0 1
    outer loop
      vertex 4.935 -3.58549 0
      vertex 6.06763 -4.40839 0
      vertex 5.34547 -2.9387 0
    endloop
  endfacet
  facet normal 0 0 1
    outer loop
      vertex 6.06763 -4.40839 0
      vertex 4.935 -3.58549 0
      vertex 5.46726 -5.1341 0
    endloop
  endfacet
  facet normal -0 0 1
    outer loop
      vertex 4.44671 -4.17574 0
      vertex 5.46726 -5.1341 0
      vertex 4.935 -3.58549 0
    endloop
  endfacet
  facet normal 0 0 1
    outer loop
      vertex 5.46726 -5.1341 0
      vertex 4.44671 -4.17574 0
      vertex 4.78068 -5.77885 0
    endloop
  endfacet
  facet normal -0 0 1
    outer loop
      vertex 3.88829 -4.70013 0
      vertex 4.78068 -5.77885 0
      vertex 4.44671 -4.17574 0
    endloop
  endfacet
  facet normal 0 0 1
    outer loop
      vertex 4.78068 -5.77885 0
      vertex 3.88829 -4.70013 0
      vertex 4.0187 -6.33246 0
    endloop
  endfacet
  facet normal -0 0 1
    outer loop
      vertex 3.26854 -5.1504 0
      vertex 4.0187 -6.33246 0
      vertex 3.88829 -4.70013 0
    endloop
  endfacet
  facet normal 0 0 1
    outer loop
      vertex 3.26854 -5.1504 0
      vertex 3.19334 -6.7862 0
      vertex 4.0187 -6.33246 0
    endloop
  endfacet
  facet normal -0 0 1
    outer loop
      vertex 2.59725 -5.51944 0
      vertex 3.19334 -6.7862 0
      vertex 3.26854 -5.1504 0
    endloop
  endfacet
  facet normal 0 0 1
    outer loop
      vertex 2.59725 -5.51944 0
      vertex 2.31763 -7.13292 0
      vertex 3.19334 -6.7862 0
    endloop
  endfacet
  facet normal -0 0 1
    outer loop
      vertex 1.885 -5.80144 0
      vertex 2.31763 -7.13292 0
      vertex 2.59725 -5.51944 0
    endloop
  endfacet
  facet normal 0 0 1
    outer loop
      vertex 1.885 -5.80144 0
      vertex 1.40536 -7.36715 0
      vertex 2.31763 -7.13292 0
    endloop
  endfacet
  facet normal -0 0 1
    outer loop
      vertex 1.14303 -5.99195 0
      vertex 1.40536 -7.36715 0
      vertex 1.885 -5.80144 0
    endloop
  endfacet
  facet normal 0 0 1
    outer loop
      vertex 1.14303 -5.99195 0
      vertex 0.470928 -7.4852 0
      vertex 1.40536 -7.36715 0
    endloop
  endfacet
  facet normal -0 0 1
    outer loop
      vertex 0.383021 -6.08796 0
      vertex 0.470928 -7.4852 0
      vertex 1.14303 -5.99195 0
    endloop
  endfacet
  facet normal -0 0 1
    outer loop
      vertex -0.383021 -6.08796 0
      vertex 0.470928 -7.4852 0
      vertex 0.383021 -6.08796 0
    endloop
  endfacet
  facet normal 0 0 1
    outer loop
      vertex -0.383021 -6.08796 0
      vertex -0.470928 -7.4852 0
      vertex 0.470928 -7.4852 0
    endloop
  endfacet
  facet normal 0 0 1
    outer loop
      vertex -1.14303 -5.99195 0
      vertex -0.470928 -7.4852 0
      vertex -0.383021 -6.08796 0
    endloop
  endfacet
  facet normal 0 0 1
    outer loop
      vertex -1.14303 -5.99195 0
      vertex -1.40536 -7.36715 0
      vertex -0.470928 -7.4852 0
    endloop
  endfacet
  facet normal 0 0 1
    outer loop
      vertex -1.885 -5.80144 0
      vertex -1.40536 -7.36715 0
      vertex -1.14303 -5.99195 0
    endloop
  endfacet
  facet normal 0 0 1
    outer loop
      vertex -1.885 -5.80144 0
      vertex -2.31763 -7.13292 0
      vertex -1.40536 -7.36715 0
    endloop
  endfacet
  facet normal 0 0 1
    outer loop
      vertex -2.59725 -5.51944 0
      vertex -2.31763 -7.13292 0
      vertex -1.885 -5.80144 0
    endloop
  endfacet
  facet normal 0 0 1
    outer loop
      vertex -2.59725 -5.51944 0
      vertex -3.19334 -6.7862 0
      vertex -2.31763 -7.13292 0
    endloop
  endfacet
  facet normal 0 0 1
    outer loop
      vertex -3.26854 -5.1504 0
      vertex -3.19334 -6.7862 0
      vertex -2.59725 -5.51944 0
    endloop
  endfacet
  facet normal 0 0 1
    outer loop
      vertex -4.0187 -6.33246 0
      vertex -3.26854 -5.1504 0
      vertex -3.88829 -4.70013 0
    endloop
  endfacet
  facet normal 0 0 1
    outer loop
      vertex -3.26854 -5.1504 0
      vertex -4.0187 -6.33246 0
      vertex -3.19334 -6.7862 0
    endloop
  endfacet
  facet normal 0 0 1
    outer loop
      vertex -4.78068 -5.77885 0
      vertex -3.88829 -4.70013 0
      vertex -4.44671 -4.17574 0
    endloop
  endfacet
  facet normal 0 0 1
    outer loop
      vertex -3.88829 -4.70013 0
      vertex -4.78068 -5.77885 0
      vertex -4.0187 -6.33246 0
    endloop
  endfacet
  facet normal 0 0 1
    outer loop
      vertex -5.46726 -5.1341 0
      vertex -4.44671 -4.17574 0
      vertex -4.935 -3.58549 0
    endloop
  endfacet
  facet normal 0 0 1
    outer loop
      vertex -6.06763 -4.40839 0
      vertex -4.935 -3.58549 0
      vertex -5.34547 -2.9387 0
    endloop
  endfacet
  facet normal 0 0 1
    outer loop
      vertex -4.44671 -4.17574 0
      vertex -5.46726 -5.1341 0
      vertex -4.78068 -5.77885 0
    endloop
  endfacet
  facet normal 0 0 1
    outer loop
      vertex -6.5723 -3.61315 0
      vertex -5.34547 -2.9387 0
      vertex -5.67164 -2.24556 0
    endloop
  endfacet
  facet normal 0 0 1
    outer loop
      vertex -6.97332 -2.76093 0
      vertex -5.67164 -2.24556 0
      vertex -5.90836 -1.51701 0
    endloop
  endfacet
  facet normal 0 0 1
    outer loop
      vertex -7.26437 -1.86517 0
      vertex -5.90836 -1.51701 0
      vertex -6.0519 -0.764532 0
    endloop
  endfacet
  facet normal 0 0 1
    outer loop
      vertex -4.935 -3.58549 0
      vertex -6.06763 -4.40839 0
      vertex -5.46726 -5.1341 0
    endloop
  endfacet
  facet normal 0 0 1
    outer loop
      vertex -7.44086 -0.939999 0
      vertex -6.0519 -0.764532 0
      vertex -6.1 0 0
    endloop
  endfacet
  facet normal 0 0 1
    outer loop
      vertex -5.90836 1.51701 0
      vertex -7.26437 1.86517 0
      vertex -6.0519 0.764532 0
    endloop
  endfacet
  facet normal 0 0 1
    outer loop
      vertex -5.34547 -2.9387 0
      vertex -6.5723 -3.61315 0
      vertex -6.06763 -4.40839 0
    endloop
  endfacet
  facet normal -0 0 1
    outer loop
      vertex -7.44086 0.939999 0
      vertex -6.0519 0.764532 0
      vertex -7.26437 1.86517 0
    endloop
  endfacet
  facet normal 0 0 1
    outer loop
      vertex -5.67164 -2.24556 0
      vertex -6.97332 -2.76093 0
      vertex -6.5723 -3.61315 0
    endloop
  endfacet
  facet normal 0 0 1
    outer loop
      vertex -6.0519 0.764532 0
      vertex -7.44086 0.939999 0
      vertex -6.1 0 0
    endloop
  endfacet
  facet normal 0 0 1
    outer loop
      vertex -5.90836 -1.51701 0
      vertex -7.26437 -1.86517 0
      vertex -6.97332 -2.76093 0
    endloop
  endfacet
  facet normal 0 0 1
    outer loop
      vertex -7.5 0 0
      vertex -6.1 0 0
      vertex -7.44086 0.939999 0
    endloop
  endfacet
  facet normal 0 0 1
    outer loop
      vertex -6.0519 -0.764532 0
      vertex -7.44086 -0.939999 0
      vertex -7.26437 -1.86517 0
    endloop
  endfacet
  facet normal 0 0 1
    outer loop
      vertex -6.1 0 0
      vertex -7.5 0 0
      vertex -7.44086 -0.939999 0
    endloop
  endfacet
  facet normal 0 0 -1
    outer loop
      vertex 2.25 0 -10
      vertex 7.5 0 -10
      vertex 7.44086 -0.939999 -10
    endloop
  endfacet
  facet normal 0 0 -1
    outer loop
      vertex 2.23226 -0.282 -10
      vertex 7.44086 -0.939999 -10
      vertex 7.26437 -1.86517 -10
    endloop
  endfacet
  facet normal 0 0 -1
    outer loop
      vertex 7.5 0 -10
      vertex 2.25 0 -10
      vertex 7.44086 0.939999 -10
    endloop
  endfacet
  facet normal 0 0 -1
    outer loop
      vertex 2.17931 -0.559552 -10
      vertex 7.26437 -1.86517 -10
      vertex 6.97332 -2.76093 -10
    endloop
  endfacet
  facet normal 0 0 -1
    outer loop
      vertex 2.23226 0.282 -10
      vertex 7.44086 0.939999 -10
      vertex 2.25 0 -10
    endloop
  endfacet
  facet normal 0 0 -1
    outer loop
      vertex 2.092 -0.828279 -10
      vertex 6.97332 -2.76093 -10
      vertex 6.5723 -3.61315 -10
    endloop
  endfacet
  facet normal -0 0 -1
    outer loop
      vertex 7.44086 0.939999 -10
      vertex 2.23226 0.282 -10
      vertex 7.26437 1.86517 -10
    endloop
  endfacet
  facet normal 0 0 -1
    outer loop
      vertex 1.97169 -1.08395 -10
      vertex 6.5723 -3.61315 -10
      vertex 6.06763 -4.40839 -10
    endloop
  endfacet
  facet normal 0 0 -1
    outer loop
      vertex 2.17931 0.559552 -10
      vertex 7.26437 1.86517 -10
      vertex 2.23226 0.282 -10
    endloop
  endfacet
  facet normal 0 0 -1
    outer loop
      vertex 1.82029 -1.32252 -10
      vertex 6.06763 -4.40839 -10
      vertex 5.46726 -5.1341 -10
    endloop
  endfacet
  facet normal -0 0 -1
    outer loop
      vertex 7.26437 1.86517 -10
      vertex 2.17931 0.559552 -10
      vertex 6.97332 2.76093 -10
    endloop
  endfacet
  facet normal 0 0 -1
    outer loop
      vertex 1.64018 -1.54023 -10
      vertex 5.46726 -5.1341 -10
      vertex 4.78068 -5.77885 -10
    endloop
  endfacet
  facet normal 0 0 -1
    outer loop
      vertex 2.092 0.828279 -10
      vertex 6.97332 2.76093 -10
      vertex 2.17931 0.559552 -10
    endloop
  endfacet
  facet normal 0 0 -1
    outer loop
      vertex 1.4342 -1.73365 -10
      vertex 4.78068 -5.77885 -10
      vertex 4.0187 -6.33246 -10
    endloop
  endfacet
  facet normal -0 0 -1
    outer loop
      vertex 6.97332 2.76093 -10
      vertex 2.092 0.828279 -10
      vertex 6.5723 3.61315 -10
    endloop
  endfacet
  facet normal 0 0 -1
    outer loop
      vertex 1.20561 -1.89974 -10
      vertex 4.0187 -6.33246 -10
      vertex 3.19334 -6.7862 -10
    endloop
  endfacet
  facet normal 0 0 -1
    outer loop
      vertex 1.97169 1.08395 -10
      vertex 6.5723 3.61315 -10
      vertex 2.092 0.828279 -10
    endloop
  endfacet
  facet normal 0 0 -1
    outer loop
      vertex 0.958003 -2.03586 -10
      vertex 3.19334 -6.7862 -10
      vertex 2.31763 -7.13292 -10
    endloop
  endfacet
  facet normal -0 0 -1
    outer loop
      vertex 6.5723 3.61315 -10
      vertex 1.97169 1.08395 -10
      vertex 6.06763 4.40839 -10
    endloop
  endfacet
  facet normal 0 0 -1
    outer loop
      vertex 1.82029 1.32252 -10
      vertex 6.06763 4.40839 -10
      vertex 1.97169 1.08395 -10
    endloop
  endfacet
  facet normal 0 0 -1
    outer loop
      vertex 7.44086 -0.939999 -10
      vertex 2.23226 -0.282 -10
      vertex 2.25 0 -10
    endloop
  endfacet
  facet normal 0 0 -1
    outer loop
      vertex 7.26437 -1.86517 -10
      vertex 2.17931 -0.559552 -10
      vertex 2.23226 -0.282 -10
    endloop
  endfacet
  facet normal 0 0 -1
    outer loop
      vertex 6.97332 -2.76093 -10
      vertex 2.092 -0.828279 -10
      vertex 2.17931 -0.559552 -10
    endloop
  endfacet
  facet normal 0 0 -1
    outer loop
      vertex 6.5723 -3.61315 -10
      vertex 1.97169 -1.08395 -10
      vertex 2.092 -0.828279 -10
    endloop
  endfacet
  facet normal 0 0 -1
    outer loop
      vertex 6.06763 -4.40839 -10
      vertex 1.82029 -1.32252 -10
      vertex 1.97169 -1.08395 -10
    endloop
  endfacet
  facet normal 0 0 -1
    outer loop
      vertex 5.46726 -5.1341 -10
      vertex 1.64018 -1.54023 -10
      vertex 1.82029 -1.32252 -10
    endloop
  endfacet
  facet normal 0 0 -1
    outer loop
      vertex 4.78068 -5.77885 -10
      vertex 1.4342 -1.73365 -10
      vertex 1.64018 -1.54023 -10
    endloop
  endfacet
  facet normal 0 0 -1
    outer loop
      vertex 0.695288 -2.13988 -10
      vertex 2.31763 -7.13292 -10
      vertex 1.40536 -7.36715 -10
    endloop
  endfacet
  facet normal 0 0 -1
    outer loop
      vertex 4.0187 -6.33246 -10
      vertex 1.20561 -1.89974 -10
      vertex 1.4342 -1.73365 -10
    endloop
  endfacet
  facet normal 0 0 -1
    outer loop
      vertex 3.19334 -6.7862 -10
      vertex 0.958003 -2.03586 -10
      vertex 1.20561 -1.89974 -10
    endloop
  endfacet
  facet normal 0 0 -1
    outer loop
      vertex 2.31763 -7.13292 -10
      vertex 0.695288 -2.13988 -10
      vertex 0.958003 -2.03586 -10
    endloop
  endfacet
  facet normal 0 0 -1
    outer loop
      vertex 0.421607 -2.21015 -10
      vertex 1.40536 -7.36715 -10
      vertex 0.470928 -7.4852 -10
    endloop
  endfacet
  facet normal 0 0 -1
    outer loop
      vertex 1.40536 -7.36715 -10
      vertex 0.421607 -2.21015 -10
      vertex 0.695288 -2.13988 -10
    endloop
  endfacet
  facet normal 0 0 -1
    outer loop
      vertex 0.470928 -7.4852 -10
      vertex 0.141278 -2.24556 -10
      vertex 0.421607 -2.21015 -10
    endloop
  endfacet
  facet normal 0 0 -1
    outer loop
      vertex 0.470928 -7.4852 -10
      vertex -0.141278 -2.24556 -10
      vertex 0.141278 -2.24556 -10
    endloop
  endfacet
  facet normal 0 0 -1
    outer loop
      vertex -0.470928 -7.4852 -10
      vertex -0.141278 -2.24556 -10
      vertex 0.470928 -7.4852 -10
    endloop
  endfacet
  facet normal -0 0 -1
    outer loop
      vertex -0.141278 -2.24556 -10
      vertex -0.470928 -7.4852 -10
      vertex -0.421607 -2.21015 -10
    endloop
  endfacet
  facet normal 0 0 -1
    outer loop
      vertex -1.40536 -7.36715 -10
      vertex -0.421607 -2.21015 -10
      vertex -0.470928 -7.4852 -10
    endloop
  endfacet
  facet normal -0 0 -1
    outer loop
      vertex -0.421607 -2.21015 -10
      vertex -1.40536 -7.36715 -10
      vertex -0.695288 -2.13988 -10
    endloop
  endfacet
  facet normal 0 0 -1
    outer loop
      vertex -2.31763 -7.13292 -10
      vertex -0.695288 -2.13988 -10
      vertex -1.40536 -7.36715 -10
    endloop
  endfacet
  facet normal -0 0 -1
    outer loop
      vertex -0.695288 -2.13988 -10
      vertex -2.31763 -7.13292 -10
      vertex -0.958003 -2.03586 -10
    endloop
  endfacet
  facet normal 0 0 -1
    outer loop
      vertex -3.19334 -6.7862 -10
      vertex -0.958003 -2.03586 -10
      vertex -2.31763 -7.13292 -10
    endloop
  endfacet
  facet normal -0 0 -1
    outer loop
      vertex -0.958003 -2.03586 -10
      vertex -3.19334 -6.7862 -10
      vertex -1.20561 -1.89974 -10
    endloop
  endfacet
  facet normal 0 0 -1
    outer loop
      vertex -4.0187 -6.33246 -10
      vertex -1.20561 -1.89974 -10
      vertex -3.19334 -6.7862 -10
    endloop
  endfacet
  facet normal -0 0 -1
    outer loop
      vertex -1.20561 -1.89974 -10
      vertex -4.0187 -6.33246 -10
      vertex -1.4342 -1.73365 -10
    endloop
  endfacet
  facet normal 0 0 -1
    outer loop
      vertex -4.78068 -5.77885 -10
      vertex -1.4342 -1.73365 -10
      vertex -4.0187 -6.33246 -10
    endloop
  endfacet
  facet normal -0 0 -1
    outer loop
      vertex -1.4342 -1.73365 -10
      vertex -4.78068 -5.77885 -10
      vertex -1.64018 -1.54023 -10
    endloop
  endfacet
  facet normal 0 0 -1
    outer loop
      vertex -5.46726 -5.1341 -10
      vertex -1.64018 -1.54023 -10
      vertex -4.78068 -5.77885 -10
    endloop
  endfacet
  facet normal 0 0 -1
    outer loop
      vertex -6.06763 -4.40839 -10
      vertex -1.82029 -1.32252 -10
      vertex -5.46726 -5.1341 -10
    endloop
  endfacet
  facet normal -0 0 -1
    outer loop
      vertex -1.64018 -1.54023 -10
      vertex -5.46726 -5.1341 -10
      vertex -1.82029 -1.32252 -10
    endloop
  endfacet
  facet normal -0 0 -1
    outer loop
      vertex 6.06763 4.40839 -10
      vertex 1.82029 1.32252 -10
      vertex 5.46726 5.1341 -10
    endloop
  endfacet
  facet normal 0 0 -1
    outer loop
      vertex 1.64018 1.54023 -10
      vertex 5.46726 5.1341 -10
      vertex 1.82029 1.32252 -10
    endloop
  endfacet
  facet normal -0 0 -1
    outer loop
      vertex 5.46726 5.1341 -10
      vertex 1.64018 1.54023 -10
      vertex 4.78068 5.77885 -10
    endloop
  endfacet
  facet normal 0 0 -1
    outer loop
      vertex 1.4342 1.73365 -10
      vertex 4.78068 5.77885 -10
      vertex 1.64018 1.54023 -10
    endloop
  endfacet
  facet normal -0 0 -1
    outer loop
      vertex 4.78068 5.77885 -10
      vertex 1.4342 1.73365 -10
      vertex 4.0187 6.33246 -10
    endloop
  endfacet
  facet normal 0 0 -1
    outer loop
      vertex 1.20561 1.89974 -10
      vertex 4.0187 6.33246 -10
      vertex 1.4342 1.73365 -10
    endloop
  endfacet
  facet normal -0 0 -1
    outer loop
      vertex 4.0187 6.33246 -10
      vertex 1.20561 1.89974 -10
      vertex 3.19334 6.7862 -10
    endloop
  endfacet
  facet normal 0 0 -1
    outer loop
      vertex 0.958003 2.03586 -10
      vertex 3.19334 6.7862 -10
      vertex 1.20561 1.89974 -10
    endloop
  endfacet
  facet normal -0 0 -1
    outer loop
      vertex 3.19334 6.7862 -10
      vertex 0.958003 2.03586 -10
      vertex 2.31763 7.13292 -10
    endloop
  endfacet
  facet normal 0 0 -1
    outer loop
      vertex 0.695288 2.13988 -10
      vertex 2.31763 7.13292 -10
      vertex 0.958003 2.03586 -10
    endloop
  endfacet
  facet normal -0 0 -1
    outer loop
      vertex 2.31763 7.13292 -10
      vertex 0.695288 2.13988 -10
      vertex 1.40536 7.36715 -10
    endloop
  endfacet
  facet normal 0 0 -1
    outer loop
      vertex 0.421607 2.21015 -10
      vertex 1.40536 7.36715 -10
      vertex 0.695288 2.13988 -10
    endloop
  endfacet
  facet normal -0 0 -1
    outer loop
      vertex 1.40536 7.36715 -10
      vertex 0.421607 2.21015 -10
      vertex 0.470928 7.4852 -10
    endloop
  endfacet
  facet normal 0 0 -1
    outer loop
      vertex 0.141278 2.24556 -10
      vertex 0.470928 7.4852 -10
      vertex 0.421607 2.21015 -10
    endloop
  endfacet
  facet normal 0 0 -1
    outer loop
      vertex -0.141278 2.24556 -10
      vertex 0.470928 7.4852 -10
      vertex 0.141278 2.24556 -10
    endloop
  endfacet
  facet normal 0 0 -1
    outer loop
      vertex -0.470928 7.4852 -10
      vertex -0.141278 2.24556 -10
      vertex -0.421607 2.21015 -10
    endloop
  endfacet
  facet normal 0 0 -1
    outer loop
      vertex -0.141278 2.24556 -10
      vertex -0.470928 7.4852 -10
      vertex 0.470928 7.4852 -10
    endloop
  endfacet
  facet normal 0 0 -1
    outer loop
      vertex -1.40536 7.36715 -10
      vertex -0.421607 2.21015 -10
      vertex -0.695288 2.13988 -10
    endloop
  endfacet
  facet normal 0 0 -1
    outer loop
      vertex -2.31763 7.13292 -10
      vertex -0.695288 2.13988 -10
      vertex -0.958003 2.03586 -10
    endloop
  endfacet
  facet normal 0 0 -1
    outer loop
      vertex -3.19334 6.7862 -10
      vertex -0.958003 2.03586 -10
      vertex -1.20561 1.89974 -10
    endloop
  endfacet
  facet normal 0 0 -1
    outer loop
      vertex -0.421607 2.21015 -10
      vertex -1.40536 7.36715 -10
      vertex -0.470928 7.4852 -10
    endloop
  endfacet
  facet normal 0 0 -1
    outer loop
      vertex -4.0187 6.33246 -10
      vertex -1.20561 1.89974 -10
      vertex -1.4342 1.73365 -10
    endloop
  endfacet
  facet normal 0 0 -1
    outer loop
      vertex -4.78068 5.77885 -10
      vertex -1.4342 1.73365 -10
      vertex -1.64018 1.54023 -10
    endloop
  endfacet
  facet normal 0 0 -1
    outer loop
      vertex -5.46726 5.1341 -10
      vertex -1.64018 1.54023 -10
      vertex -1.82029 1.32252 -10
    endloop
  endfacet
  facet normal 0 0 -1
    outer loop
      vertex -6.06763 4.40839 -10
      vertex -1.82029 1.32252 -10
      vertex -1.97169 1.08395 -10
    endloop
  endfacet
  facet normal 0 0 -1
    outer loop
      vertex -6.5723 3.61315 -10
      vertex -1.97169 1.08395 -10
      vertex -2.092 0.828279 -10
    endloop
  endfacet
  facet normal 0 0 -1
    outer loop
      vertex -6.97332 2.76093 -10
      vertex -2.092 0.828279 -10
      vertex -2.17931 0.559552 -10
    endloop
  endfacet
  facet normal 0 0 -1
    outer loop
      vertex -7.26437 1.86517 -10
      vertex -2.17931 0.559552 -10
      vertex -2.23226 0.282 -10
    endloop
  endfacet
  facet normal 0 0 -1
    outer loop
      vertex -0.695288 2.13988 -10
      vertex -2.31763 7.13292 -10
      vertex -1.40536 7.36715 -10
    endloop
  endfacet
  facet normal 0 0 -1
    outer loop
      vertex -7.44086 0.939999 -10
      vertex -2.23226 0.282 -10
      vertex -2.25 0 -10
    endloop
  endfacet
  facet normal -0 0 -1
    outer loop
      vertex -1.82029 -1.32252 -10
      vertex -6.06763 -4.40839 -10
      vertex -1.97169 -1.08395 -10
    endloop
  endfacet
  facet normal 0 0 -1
    outer loop
      vertex -6.5723 -3.61315 -10
      vertex -1.97169 -1.08395 -10
      vertex -6.06763 -4.40839 -10
    endloop
  endfacet
  facet normal 0 0 -1
    outer loop
      vertex -0.958003 2.03586 -10
      vertex -3.19334 6.7862 -10
      vertex -2.31763 7.13292 -10
    endloop
  endfacet
  facet normal -0 0 -1
    outer loop
      vertex -1.97169 -1.08395 -10
      vertex -6.5723 -3.61315 -10
      vertex -2.092 -0.828279 -10
    endloop
  endfacet
  facet normal 0 0 -1
    outer loop
      vertex -1.20561 1.89974 -10
      vertex -4.0187 6.33246 -10
      vertex -3.19334 6.7862 -10
    endloop
  endfacet
  facet normal 0 0 -1
    outer loop
      vertex -6.97332 -2.76093 -10
      vertex -2.092 -0.828279 -10
      vertex -6.5723 -3.61315 -10
    endloop
  endfacet
  facet normal 0 0 -1
    outer loop
      vertex -1.4342 1.73365 -10
      vertex -4.78068 5.77885 -10
      vertex -4.0187 6.33246 -10
    endloop
  endfacet
  facet normal -0 0 -1
    outer loop
      vertex -2.092 -0.828279 -10
      vertex -6.97332 -2.76093 -10
      vertex -2.17931 -0.559552 -10
    endloop
  endfacet
  facet normal 0 0 -1
    outer loop
      vertex -1.64018 1.54023 -10
      vertex -5.46726 5.1341 -10
      vertex -4.78068 5.77885 -10
    endloop
  endfacet
  facet normal 0 0 -1
    outer loop
      vertex -7.26437 -1.86517 -10
      vertex -2.17931 -0.559552 -10
      vertex -6.97332 -2.76093 -10
    endloop
  endfacet
  facet normal 0 0 -1
    outer loop
      vertex -1.82029 1.32252 -10
      vertex -6.06763 4.40839 -10
      vertex -5.46726 5.1341 -10
    endloop
  endfacet
  facet normal -0 0 -1
    outer loop
      vertex -2.17931 -0.559552 -10
      vertex -7.26437 -1.86517 -10
      vertex -2.23226 -0.282 -10
    endloop
  endfacet
  facet normal 0 0 -1
    outer loop
      vertex -1.97169 1.08395 -10
      vertex -6.5723 3.61315 -10
      vertex -6.06763 4.40839 -10
    endloop
  endfacet
  facet normal 0 0 -1
    outer loop
      vertex -7.44086 -0.939999 -10
      vertex -2.23226 -0.282 -10
      vertex -7.26437 -1.86517 -10
    endloop
  endfacet
  facet normal 0 0 -1
    outer loop
      vertex -2.092 0.828279 -10
      vertex -6.97332 2.76093 -10
      vertex -6.5723 3.61315 -10
    endloop
  endfacet
  facet normal -0 0 -1
    outer loop
      vertex -2.23226 -0.282 -10
      vertex -7.44086 -0.939999 -10
      vertex -2.25 0 -10
    endloop
  endfacet
  facet normal 0 0 -1
    outer loop
      vertex -2.17931 0.559552 -10
      vertex -7.26437 1.86517 -10
      vertex -6.97332 2.76093 -10
    endloop
  endfacet
  facet normal 0 0 -1
    outer loop
      vertex -7.5 0 -10
      vertex -2.25 0 -10
      vertex -7.44086 -0.939999 -10
    endloop
  endfacet
  facet normal 0 0 -1
    outer loop
      vertex -2.23226 0.282 -10
      vertex -7.44086 0.939999 -10
      vertex -7.26437 1.86517 -10
    endloop
  endfacet
  facet normal 0 0 -1
    outer loop
      vertex -2.25 0 -10
      vertex -7.5 0 -10
      vertex -7.44086 0.939999 -10
    endloop
  endfacet
  facet normal -0.548876 0.454063 0.701827
    outer loop
      vertex 4.44671 -4.17574 0
      vertex 4.935 -3.58549 0
      vertex 1.64018 -1.54023 -3.9
    endloop
  endfacet
  facet normal -0.710942 -0.0447284 0.701827
    outer loop
      vertex 6.1 0 0
      vertex 6.0519 0.764532 0
      vertex 2.25 0 -3.9
    endloop
  endfacet
  facet normal -0.710942 -0.0447238 0.701827
    outer loop
      vertex 2.25 0 -3.9
      vertex 6.0519 0.764532 0
      vertex 2.23226 0.282 -3.9
    endloop
  endfacet
  facet normal -0.710942 0.0447238 0.701827
    outer loop
      vertex 6.0519 -0.764532 0
      vertex 2.25 0 -3.9
      vertex 2.23226 -0.282 -3.9
    endloop
  endfacet
  facet normal 0.710942 0.0447238 0.701827
    outer loop
      vertex -2.23226 -0.282 -3.9
      vertex -2.25 0 -3.9
      vertex -6.0519 -0.764532 0
    endloop
  endfacet
  facet normal 0.0892715 -0.706732 0.701826
    outer loop
      vertex -0.421607 2.21015 -3.9
      vertex -0.141278 2.24556 -3.9
      vertex -1.14303 5.99195 0
    endloop
  endfacet
  facet normal -0.69973 0.133478 0.701827
    outer loop
      vertex 5.90836 -1.51701 0
      vertex 6.0519 -0.764532 0
      vertex 2.23226 -0.282 -3.9
    endloop
  endfacet
  facet normal -0.64455 0.303305 0.701827
    outer loop
      vertex 5.34547 -2.9387 0
      vertex 5.67164 -2.24556 0
      vertex 1.97169 -1.08395 -3.9
    endloop
  endfacet
  facet normal 0.418705 0.576303 0.701827
    outer loop
      vertex -3.26854 -5.1504 0
      vertex -1.20561 -1.89974 -3.9
      vertex -3.88829 -4.70013 0
    endloop
  endfacet
  facet normal 0.710942 -0.0447284 0.701827
    outer loop
      vertex -2.25 0 -3.9
      vertex -6.0519 0.764532 0
      vertex -6.1 0 0
    endloop
  endfacet
  facet normal -0.677482 0.220127 0.701828
    outer loop
      vertex 5.67164 -2.24556 0
      vertex 5.90836 -1.51701 0
      vertex 2.17931 -0.559552 -3.9
    endloop
  endfacet
  facet normal -0.710942 0.0447284 0.701827
    outer loop
      vertex 6.0519 -0.764532 0
      vertex 6.1 0 0
      vertex 2.25 0 -3.9
    endloop
  endfacet
  facet normal -0.677486 0.220117 0.701827
    outer loop
      vertex 5.67164 -2.24556 0
      vertex 2.17931 -0.559552 -3.9
      vertex 2.092 -0.828279 -3.9
    endloop
  endfacet
  facet normal -0.601456 0.381693 0.701827
    outer loop
      vertex 5.34547 -2.9387 0
      vertex 1.97169 -1.08395 -3.9
      vertex 1.82029 -1.32252 -3.9
    endloop
  endfacet
  facet normal -0.644551 0.303303 0.701827
    outer loop
      vertex 5.67164 -2.24556 0
      vertex 2.092 -0.828279 -3.9
      vertex 1.97169 -1.08395 -3.9
    endloop
  endfacet
  facet normal -0.418705 0.576303 0.701827
    outer loop
      vertex 3.26854 -5.1504 0
      vertex 3.88829 -4.70013 0
      vertex 1.20561 -1.89974 -3.9
    endloop
  endfacet
  facet normal -0.0892795 0.706731 0.701827
    outer loop
      vertex 0.383021 -6.08796 0
      vertex 1.14303 -5.99195 0
      vertex 0.141278 -2.24556 -3.9
    endloop
  endfacet
  facet normal -0.343173 0.624237 0.701827
    outer loop
      vertex 2.59725 -5.51944 0
      vertex 3.26854 -5.1504 0
      vertex 1.20561 -1.89974 -3.9
    endloop
  endfacet
  facet normal 0.677482 0.220127 0.701828
    outer loop
      vertex -5.67164 -2.24556 0
      vertex -2.17931 -0.559552 -3.9
      vertex -5.90836 -1.51701 0
    endloop
  endfacet
  facet normal 0.69973 0.133478 0.701827
    outer loop
      vertex -5.90836 -1.51701 0
      vertex -2.23226 -0.282 -3.9
      vertex -6.0519 -0.764532 0
    endloop
  endfacet
  facet normal 0.0892715 0.706732 0.701826
    outer loop
      vertex -0.141278 -2.24556 -3.9
      vertex -0.421607 -2.21015 -3.9
      vertex -1.14303 -5.99195 0
    endloop
  endfacet
  facet normal -0.343173 -0.624237 0.701827
    outer loop
      vertex 3.26854 5.1504 0
      vertex 2.59725 5.51944 0
      vertex 1.20561 1.89974 -3.9
    endloop
  endfacet
  facet normal 0.262233 -0.662324 0.701827
    outer loop
      vertex -0.958003 2.03586 -3.9
      vertex -1.885 5.80144 0
      vertex -2.59725 5.51944 0
    endloop
  endfacet
  facet normal 0.177158 -0.689967 0.701827
    outer loop
      vertex -0.421607 2.21015 -3.9
      vertex -1.14303 5.99195 0
      vertex -1.885 5.80144 0
    endloop
  endfacet
  facet normal 0.548868 -0.454075 0.701826
    outer loop
      vertex -1.82029 1.32252 -3.9
      vertex -1.64018 1.54023 -3.9
      vertex -4.935 3.58549 0
    endloop
  endfacet
  facet normal 0.677482 -0.220127 0.701828
    outer loop
      vertex -2.17931 0.559552 -3.9
      vertex -5.67164 2.24556 0
      vertex -5.90836 1.51701 0
    endloop
  endfacet
  facet normal 0.710942 0.0447284 0.701827
    outer loop
      vertex -6.0519 -0.764532 0
      vertex -2.25 0 -3.9
      vertex -6.1 0 0
    endloop
  endfacet
  facet normal -0.699727 0.13349 0.701828
    outer loop
      vertex 5.90836 -1.51701 0
      vertex 2.23226 -0.282 -3.9
      vertex 2.17931 -0.559552 -3.9
    endloop
  endfacet
  facet normal -0.601453 0.381698 0.701827
    outer loop
      vertex 4.935 -3.58549 0
      vertex 5.34547 -2.9387 0
      vertex 1.82029 -1.32252 -3.9
    endloop
  endfacet
  facet normal -0.548868 0.454075 0.701826
    outer loop
      vertex 4.935 -3.58549 0
      vertex 1.82029 -1.32252 -3.9
      vertex 1.64018 -1.54023 -3.9
    endloop
  endfacet
  facet normal -0.0892715 0.706732 0.701826
    outer loop
      vertex 1.14303 -5.99195 0
      vertex 0.421607 -2.21015 -3.9
      vertex 0.141278 -2.24556 -3.9
    endloop
  endfacet
  facet normal -0.177158 0.689967 0.701827
    outer loop
      vertex 1.14303 -5.99195 0
      vertex 1.885 -5.80144 0
      vertex 0.421607 -2.21015 -3.9
    endloop
  endfacet
  facet normal -0.487624 0.519288 0.701828
    outer loop
      vertex 3.88829 -4.70013 0
      vertex 1.64018 -1.54023 -3.9
      vertex 1.4342 -1.73365 -3.9
    endloop
  endfacet
  facet normal -0.487635 0.519279 0.701827
    outer loop
      vertex 3.88829 -4.70013 0
      vertex 4.44671 -4.17574 0
      vertex 1.64018 -1.54023 -3.9
    endloop
  endfacet
  facet normal 0.699727 0.13349 0.701828
    outer loop
      vertex -2.17931 -0.559552 -3.9
      vertex -2.23226 -0.282 -3.9
      vertex -5.90836 -1.51701 0
    endloop
  endfacet
  facet normal 0.262241 0.662322 0.701826
    outer loop
      vertex -0.695288 -2.13988 -3.9
      vertex -0.958003 -2.03586 -3.9
      vertex -1.885 -5.80144 0
    endloop
  endfacet
  facet normal 0.177158 0.689967 0.701827
    outer loop
      vertex -1.14303 -5.99195 0
      vertex -0.421607 -2.21015 -3.9
      vertex -1.885 -5.80144 0
    endloop
  endfacet
  facet normal 0.601453 0.381698 0.701827
    outer loop
      vertex -4.935 -3.58549 0
      vertex -1.82029 -1.32252 -3.9
      vertex -5.34547 -2.9387 0
    endloop
  endfacet
  facet normal 0.548868 0.454075 0.701826
    outer loop
      vertex -1.64018 -1.54023 -3.9
      vertex -1.82029 -1.32252 -3.9
      vertex -4.935 -3.58549 0
    endloop
  endfacet
  facet normal 0.601456 0.381693 0.701827
    outer loop
      vertex -1.82029 -1.32252 -3.9
      vertex -1.97169 -1.08395 -3.9
      vertex -5.34547 -2.9387 0
    endloop
  endfacet
  facet normal 0.487624 0.519288 0.701828
    outer loop
      vertex -1.4342 -1.73365 -3.9
      vertex -1.64018 -1.54023 -3.9
      vertex -3.88829 -4.70013 0
    endloop
  endfacet
  facet normal -0.548868 -0.454075 0.701826
    outer loop
      vertex 1.82029 1.32252 -3.9
      vertex 4.935 3.58549 0
      vertex 1.64018 1.54023 -3.9
    endloop
  endfacet
  facet normal 0 -0.712348 0.701827
    outer loop
      vertex -0.141278 2.24556 -3.9
      vertex 0.383021 6.08796 0
      vertex -0.383021 6.08796 0
    endloop
  endfacet
  facet normal 0 -0.712348 0.701827
    outer loop
      vertex 0.383021 6.08796 0
      vertex -0.141278 2.24556 -3.9
      vertex 0.141278 2.24556 -3.9
    endloop
  endfacet
  facet normal 0.0892795 -0.706731 0.701827
    outer loop
      vertex -0.141278 2.24556 -3.9
      vertex -0.383021 6.08796 0
      vertex -1.14303 5.99195 0
    endloop
  endfacet
  facet normal 0.262241 -0.662322 0.701826
    outer loop
      vertex -0.958003 2.03586 -3.9
      vertex -0.695288 2.13988 -3.9
      vertex -1.885 5.80144 0
    endloop
  endfacet
  facet normal 0.487624 -0.519288 0.701828
    outer loop
      vertex -1.64018 1.54023 -3.9
      vertex -1.4342 1.73365 -3.9
      vertex -3.88829 4.70013 0
    endloop
  endfacet
  facet normal 0.418705 -0.576303 0.701827
    outer loop
      vertex -1.20561 1.89974 -3.9
      vertex -3.26854 5.1504 0
      vertex -3.88829 4.70013 0
    endloop
  endfacet
  facet normal 0.601456 -0.381693 0.701827
    outer loop
      vertex -1.97169 1.08395 -3.9
      vertex -1.82029 1.32252 -3.9
      vertex -5.34547 2.9387 0
    endloop
  endfacet
  facet normal 0.601453 -0.381698 0.701827
    outer loop
      vertex -1.82029 1.32252 -3.9
      vertex -4.935 3.58549 0
      vertex -5.34547 2.9387 0
    endloop
  endfacet
  facet normal 0.699727 -0.13349 0.701828
    outer loop
      vertex -2.23226 0.282 -3.9
      vertex -2.17931 0.559552 -3.9
      vertex -5.90836 1.51701 0
    endloop
  endfacet
  facet normal 0.64455 -0.303305 0.701827
    outer loop
      vertex -1.97169 1.08395 -3.9
      vertex -5.34547 2.9387 0
      vertex -5.67164 2.24556 0
    endloop
  endfacet
  facet normal -0.262233 0.662324 0.701827
    outer loop
      vertex 1.885 -5.80144 0
      vertex 2.59725 -5.51944 0
      vertex 0.958003 -2.03586 -3.9
    endloop
  endfacet
  facet normal -0.177155 0.689968 0.701826
    outer loop
      vertex 1.885 -5.80144 0
      vertex 0.695288 -2.13988 -3.9
      vertex 0.421607 -2.21015 -3.9
    endloop
  endfacet
  facet normal -0.418722 0.576288 0.701828
    outer loop
      vertex 3.88829 -4.70013 0
      vertex 1.4342 -1.73365 -3.9
      vertex 1.20561 -1.89974 -3.9
    endloop
  endfacet
  facet normal 0.64455 0.303305 0.701827
    outer loop
      vertex -5.34547 -2.9387 0
      vertex -1.97169 -1.08395 -3.9
      vertex -5.67164 -2.24556 0
    endloop
  endfacet
  facet normal 0.343173 0.624237 0.701827
    outer loop
      vertex -2.59725 -5.51944 0
      vertex -1.20561 -1.89974 -3.9
      vertex -3.26854 -5.1504 0
    endloop
  endfacet
  facet normal 0.177155 0.689968 0.701826
    outer loop
      vertex -0.421607 -2.21015 -3.9
      vertex -0.695288 -2.13988 -3.9
      vertex -1.885 -5.80144 0
    endloop
  endfacet
  facet normal 0.0892795 0.706731 0.701827
    outer loop
      vertex -0.383021 -6.08796 0
      vertex -0.141278 -2.24556 -3.9
      vertex -1.14303 -5.99195 0
    endloop
  endfacet
  facet normal 0 0.712348 0.701827
    outer loop
      vertex 0.141278 -2.24556 -3.9
      vertex -0.383021 -6.08796 0
      vertex 0.383021 -6.08796 0
    endloop
  endfacet
  facet normal 0 0.712348 0.701827
    outer loop
      vertex -0.383021 -6.08796 0
      vertex 0.141278 -2.24556 -3.9
      vertex -0.141278 -2.24556 -3.9
    endloop
  endfacet
  facet normal 0.548876 0.454063 0.701827
    outer loop
      vertex -4.44671 -4.17574 0
      vertex -1.64018 -1.54023 -3.9
      vertex -4.935 -3.58549 0
    endloop
  endfacet
  facet normal 0.487635 0.519279 0.701827
    outer loop
      vertex -3.88829 -4.70013 0
      vertex -1.64018 -1.54023 -3.9
      vertex -4.44671 -4.17574 0
    endloop
  endfacet
  facet normal 0.418722 0.576288 0.701828
    outer loop
      vertex -1.20561 -1.89974 -3.9
      vertex -1.4342 -1.73365 -3.9
      vertex -3.88829 -4.70013 0
    endloop
  endfacet
  facet normal -0.487635 -0.519279 0.701827
    outer loop
      vertex 4.44671 4.17574 0
      vertex 3.88829 4.70013 0
      vertex 1.64018 1.54023 -3.9
    endloop
  endfacet
  facet normal -0.69973 -0.133478 0.701827
    outer loop
      vertex 6.0519 0.764532 0
      vertex 5.90836 1.51701 0
      vertex 2.23226 0.282 -3.9
    endloop
  endfacet
  facet normal -0.177158 -0.689967 0.701827
    outer loop
      vertex 1.885 5.80144 0
      vertex 1.14303 5.99195 0
      vertex 0.421607 2.21015 -3.9
    endloop
  endfacet
  facet normal -0.34317 -0.624238 0.701827
    outer loop
      vertex 1.20561 1.89974 -3.9
      vertex 2.59725 5.51944 0
      vertex 0.958003 2.03586 -3.9
    endloop
  endfacet
  facet normal -0.0892795 -0.706731 0.701827
    outer loop
      vertex 1.14303 5.99195 0
      vertex 0.383021 6.08796 0
      vertex 0.141278 2.24556 -3.9
    endloop
  endfacet
  facet normal 0.177155 -0.689968 0.701826
    outer loop
      vertex -0.695288 2.13988 -3.9
      vertex -0.421607 2.21015 -3.9
      vertex -1.885 5.80144 0
    endloop
  endfacet
  facet normal 0.34317 -0.624238 0.701827
    outer loop
      vertex -1.20561 1.89974 -3.9
      vertex -0.958003 2.03586 -3.9
      vertex -2.59725 5.51944 0
    endloop
  endfacet
  facet normal 0.343173 -0.624237 0.701827
    outer loop
      vertex -1.20561 1.89974 -3.9
      vertex -2.59725 5.51944 0
      vertex -3.26854 5.1504 0
    endloop
  endfacet
  facet normal 0.487635 -0.519279 0.701827
    outer loop
      vertex -1.64018 1.54023 -3.9
      vertex -3.88829 4.70013 0
      vertex -4.44671 4.17574 0
    endloop
  endfacet
  facet normal 0.548876 -0.454063 0.701827
    outer loop
      vertex -1.64018 1.54023 -3.9
      vertex -4.44671 4.17574 0
      vertex -4.935 3.58549 0
    endloop
  endfacet
  facet normal 0.418722 -0.576288 0.701828
    outer loop
      vertex -1.4342 1.73365 -3.9
      vertex -1.20561 1.89974 -3.9
      vertex -3.88829 4.70013 0
    endloop
  endfacet
  facet normal 0.69973 -0.133478 0.701827
    outer loop
      vertex -2.23226 0.282 -3.9
      vertex -5.90836 1.51701 0
      vertex -6.0519 0.764532 0
    endloop
  endfacet
  facet normal 0.710942 -0.0447238 0.701827
    outer loop
      vertex -2.25 0 -3.9
      vertex -2.23226 0.282 -3.9
      vertex -6.0519 0.764532 0
    endloop
  endfacet
  facet normal 0.677486 -0.220117 0.701827
    outer loop
      vertex -2.17931 0.559552 -3.9
      vertex -2.092 0.828279 -3.9
      vertex -5.67164 2.24556 0
    endloop
  endfacet
  facet normal 0.644551 -0.303303 0.701827
    outer loop
      vertex -2.092 0.828279 -3.9
      vertex -1.97169 1.08395 -3.9
      vertex -5.67164 2.24556 0
    endloop
  endfacet
  facet normal -0.262241 0.662322 0.701826
    outer loop
      vertex 1.885 -5.80144 0
      vertex 0.958003 -2.03586 -3.9
      vertex 0.695288 -2.13988 -3.9
    endloop
  endfacet
  facet normal 0.644551 0.303303 0.701827
    outer loop
      vertex -1.97169 -1.08395 -3.9
      vertex -2.092 -0.828279 -3.9
      vertex -5.67164 -2.24556 0
    endloop
  endfacet
  facet normal 0.677486 0.220117 0.701827
    outer loop
      vertex -2.092 -0.828279 -3.9
      vertex -2.17931 -0.559552 -3.9
      vertex -5.67164 -2.24556 0
    endloop
  endfacet
  facet normal 0.262233 0.662324 0.701827
    outer loop
      vertex -1.885 -5.80144 0
      vertex -0.958003 -2.03586 -3.9
      vertex -2.59725 -5.51944 0
    endloop
  endfacet
  facet normal 0.34317 0.624238 0.701827
    outer loop
      vertex -0.958003 -2.03586 -3.9
      vertex -1.20561 -1.89974 -3.9
      vertex -2.59725 -5.51944 0
    endloop
  endfacet
  facet normal -0.601453 -0.381698 0.701827
    outer loop
      vertex 5.34547 2.9387 0
      vertex 4.935 3.58549 0
      vertex 1.82029 1.32252 -3.9
    endloop
  endfacet
  facet normal -0.548876 -0.454063 0.701827
    outer loop
      vertex 4.935 3.58549 0
      vertex 4.44671 4.17574 0
      vertex 1.64018 1.54023 -3.9
    endloop
  endfacet
  facet normal -0.418722 -0.576288 0.701828
    outer loop
      vertex 1.4342 1.73365 -3.9
      vertex 3.88829 4.70013 0
      vertex 1.20561 1.89974 -3.9
    endloop
  endfacet
  facet normal -0.418705 -0.576303 0.701827
    outer loop
      vertex 3.88829 4.70013 0
      vertex 3.26854 5.1504 0
      vertex 1.20561 1.89974 -3.9
    endloop
  endfacet
  facet normal -0.64455 -0.303305 0.701827
    outer loop
      vertex 5.67164 2.24556 0
      vertex 5.34547 2.9387 0
      vertex 1.97169 1.08395 -3.9
    endloop
  endfacet
  facet normal -0.699727 -0.13349 0.701828
    outer loop
      vertex 2.23226 0.282 -3.9
      vertex 5.90836 1.51701 0
      vertex 2.17931 0.559552 -3.9
    endloop
  endfacet
  facet normal -0.262233 -0.662324 0.701827
    outer loop
      vertex 2.59725 5.51944 0
      vertex 1.885 5.80144 0
      vertex 0.958003 2.03586 -3.9
    endloop
  endfacet
  facet normal -0.177155 -0.689968 0.701826
    outer loop
      vertex 0.695288 2.13988 -3.9
      vertex 1.885 5.80144 0
      vertex 0.421607 2.21015 -3.9
    endloop
  endfacet
  facet normal -0.262241 -0.662322 0.701826
    outer loop
      vertex 0.958003 2.03586 -3.9
      vertex 1.885 5.80144 0
      vertex 0.695288 2.13988 -3.9
    endloop
  endfacet
  facet normal -0.0892715 -0.706732 0.701826
    outer loop
      vertex 0.421607 2.21015 -3.9
      vertex 1.14303 5.99195 0
      vertex 0.141278 2.24556 -3.9
    endloop
  endfacet
  facet normal -0.34317 0.624238 0.701827
    outer loop
      vertex 2.59725 -5.51944 0
      vertex 1.20561 -1.89974 -3.9
      vertex 0.958003 -2.03586 -3.9
    endloop
  endfacet
  facet normal -0.487624 -0.519288 0.701828
    outer loop
      vertex 1.64018 1.54023 -3.9
      vertex 3.88829 4.70013 0
      vertex 1.4342 1.73365 -3.9
    endloop
  endfacet
  facet normal -0.677482 -0.220127 0.701828
    outer loop
      vertex 5.90836 1.51701 0
      vertex 5.67164 2.24556 0
      vertex 2.17931 0.559552 -3.9
    endloop
  endfacet
  facet normal -0.601456 -0.381693 0.701827
    outer loop
      vertex 1.97169 1.08395 -3.9
      vertex 5.34547 2.9387 0
      vertex 1.82029 1.32252 -3.9
    endloop
  endfacet
  facet normal -0.644551 -0.303303 0.701827
    outer loop
      vertex 2.092 0.828279 -3.9
      vertex 5.67164 2.24556 0
      vertex 1.97169 1.08395 -3.9
    endloop
  endfacet
  facet normal -0.677486 -0.220117 0.701827
    outer loop
      vertex 2.17931 0.559552 -3.9
      vertex 5.67164 2.24556 0
      vertex 2.092 0.828279 -3.9
    endloop
  endfacet
  facet normal -0.998027 -0.0627837 0
    outer loop
      vertex 2.25 0 -10
      vertex 2.23226 0.282 -3.9
      vertex 2.23226 0.282 -10
    endloop
  endfacet
  facet normal -0.998027 -0.0627837 0
    outer loop
      vertex 2.23226 0.282 -3.9
      vertex 2.25 0 -10
      vertex 2.25 0 -3.9
    endloop
  endfacet
  facet normal 0.998027 -0.0627837 0
    outer loop
      vertex -2.25 0 -3.9
      vertex -2.23226 0.282 -10
      vertex -2.23226 0.282 -3.9
    endloop
  endfacet
  facet normal 0.998027 -0.0627837 0
    outer loop
      vertex -2.23226 0.282 -10
      vertex -2.25 0 -3.9
      vertex -2.25 0 -10
    endloop
  endfacet
  facet normal 0 -1 0
    outer loop
      vertex -0.141278 2.24556 -10
      vertex 0.141278 2.24556 -3.9
      vertex -0.141278 2.24556 -3.9
    endloop
  endfacet
  facet normal 0 -1 -0
    outer loop
      vertex 0.141278 2.24556 -3.9
      vertex -0.141278 2.24556 -10
      vertex 0.141278 2.24556 -10
    endloop
  endfacet
  facet normal 0 1 -0
    outer loop
      vertex 0.141278 -2.24556 -10
      vertex -0.141278 -2.24556 -3.9
      vertex 0.141278 -2.24556 -3.9
    endloop
  endfacet
  facet normal 0 1 0
    outer loop
      vertex -0.141278 -2.24556 -3.9
      vertex 0.141278 -2.24556 -10
      vertex -0.141278 -2.24556 -10
    endloop
  endfacet
  facet normal -0.684532 -0.728983 0
    outer loop
      vertex 1.4342 1.73365 -10
      vertex 1.64018 1.54023 -3.9
      vertex 1.4342 1.73365 -3.9
    endloop
  endfacet
  facet normal -0.684532 -0.728983 -0
    outer loop
      vertex 1.64018 1.54023 -3.9
      vertex 1.4342 1.73365 -10
      vertex 1.64018 1.54023 -10
    endloop
  endfacet
  facet normal 0.684532 -0.728983 0
    outer loop
      vertex -1.64018 1.54023 -10
      vertex -1.4342 1.73365 -3.9
      vertex -1.64018 1.54023 -3.9
    endloop
  endfacet
  facet normal 0.684532 -0.728983 0
    outer loop
      vertex -1.4342 1.73365 -3.9
      vertex -1.64018 1.54023 -10
      vertex -1.4342 1.73365 -10
    endloop
  endfacet
  facet normal 0.368136 -0.929772 0
    outer loop
      vertex -0.958003 2.03586 -10
      vertex -0.695288 2.13988 -3.9
      vertex -0.958003 2.03586 -3.9
    endloop
  endfacet
  facet normal 0.368136 -0.929772 0
    outer loop
      vertex -0.695288 2.13988 -3.9
      vertex -0.958003 2.03586 -10
      vertex -0.695288 2.13988 -10
    endloop
  endfacet
  facet normal -0.951061 0.309002 0
    outer loop
      vertex 2.092 -0.828279 -10
      vertex 2.17931 -0.559552 -3.9
      vertex 2.17931 -0.559552 -10
    endloop
  endfacet
  facet normal -0.951061 0.309002 0
    outer loop
      vertex 2.17931 -0.559552 -3.9
      vertex 2.092 -0.828279 -10
      vertex 2.092 -0.828279 -3.9
    endloop
  endfacet
  facet normal -0.904827 -0.42578 0
    outer loop
      vertex 2.092 0.828279 -10
      vertex 1.97169 1.08395 -3.9
      vertex 1.97169 1.08395 -10
    endloop
  endfacet
  facet normal -0.904827 -0.42578 0
    outer loop
      vertex 1.97169 1.08395 -3.9
      vertex 2.092 0.828279 -10
      vertex 2.092 0.828279 -3.9
    endloop
  endfacet
  facet normal -0.982285 -0.187395 0
    outer loop
      vertex 2.23226 0.282 -10
      vertex 2.17931 0.559552 -3.9
      vertex 2.17931 0.559552 -10
    endloop
  endfacet
  facet normal -0.982285 -0.187395 0
    outer loop
      vertex 2.17931 0.559552 -3.9
      vertex 2.23226 0.282 -10
      vertex 2.23226 0.282 -3.9
    endloop
  endfacet
  facet normal -0.368136 -0.929772 0
    outer loop
      vertex 0.695288 2.13988 -10
      vertex 0.958003 2.03586 -3.9
      vertex 0.695288 2.13988 -3.9
    endloop
  endfacet
  facet normal -0.368136 -0.929772 -0
    outer loop
      vertex 0.958003 2.03586 -3.9
      vertex 0.695288 2.13988 -10
      vertex 0.958003 2.03586 -10
    endloop
  endfacet
  facet normal -0.248692 -0.968583 0
    outer loop
      vertex 0.421607 2.21015 -10
      vertex 0.695288 2.13988 -3.9
      vertex 0.421607 2.21015 -3.9
    endloop
  endfacet
  facet normal -0.248692 -0.968583 -0
    outer loop
      vertex 0.695288 2.13988 -3.9
      vertex 0.421607 2.21015 -10
      vertex 0.695288 2.13988 -10
    endloop
  endfacet
  facet normal -0.587808 -0.809001 0
    outer loop
      vertex 1.20561 1.89974 -10
      vertex 1.4342 1.73365 -3.9
      vertex 1.20561 1.89974 -3.9
    endloop
  endfacet
  facet normal -0.587808 -0.809001 -0
    outer loop
      vertex 1.4342 1.73365 -3.9
      vertex 1.20561 1.89974 -10
      vertex 1.4342 1.73365 -10
    endloop
  endfacet
  facet normal 0.904827 -0.42578 0
    outer loop
      vertex -2.092 0.828279 -3.9
      vertex -1.97169 1.08395 -10
      vertex -1.97169 1.08395 -3.9
    endloop
  endfacet
  facet normal 0.904827 -0.42578 0
    outer loop
      vertex -1.97169 1.08395 -10
      vertex -2.092 0.828279 -3.9
      vertex -2.092 0.828279 -10
    endloop
  endfacet
  facet normal 0.770505 -0.637434 0
    outer loop
      vertex -1.82029 1.32252 -3.9
      vertex -1.64018 1.54023 -10
      vertex -1.64018 1.54023 -3.9
    endloop
  endfacet
  facet normal 0.770505 -0.637434 0
    outer loop
      vertex -1.64018 1.54023 -10
      vertex -1.82029 1.32252 -3.9
      vertex -1.82029 1.32252 -10
    endloop
  endfacet
  facet normal 0.951061 -0.309002 0
    outer loop
      vertex -2.17931 0.559552 -3.9
      vertex -2.092 0.828279 -10
      vertex -2.092 0.828279 -3.9
    endloop
  endfacet
  facet normal 0.951061 -0.309002 0
    outer loop
      vertex -2.092 0.828279 -10
      vertex -2.17931 0.559552 -3.9
      vertex -2.17931 0.559552 -10
    endloop
  endfacet
  facet normal 0.481745 -0.876311 0
    outer loop
      vertex -1.20561 1.89974 -10
      vertex -0.958003 2.03586 -3.9
      vertex -1.20561 1.89974 -3.9
    endloop
  endfacet
  facet normal 0.481745 -0.876311 0
    outer loop
      vertex -0.958003 2.03586 -3.9
      vertex -1.20561 1.89974 -10
      vertex -0.958003 2.03586 -10
    endloop
  endfacet
  facet normal 0.12532 -0.992116 0
    outer loop
      vertex -0.421607 2.21015 -10
      vertex -0.141278 2.24556 -3.9
      vertex -0.421607 2.21015 -3.9
    endloop
  endfacet
  facet normal 0.12532 -0.992116 0
    outer loop
      vertex -0.141278 2.24556 -3.9
      vertex -0.421607 2.21015 -10
      vertex -0.141278 2.24556 -10
    endloop
  endfacet
  facet normal -0.12532 0.992116 0
    outer loop
      vertex 0.421607 -2.21015 -10
      vertex 0.141278 -2.24556 -3.9
      vertex 0.421607 -2.21015 -3.9
    endloop
  endfacet
  facet normal -0.12532 0.992116 0
    outer loop
      vertex 0.141278 -2.24556 -3.9
      vertex 0.421607 -2.21015 -10
      vertex 0.141278 -2.24556 -10
    endloop
  endfacet
  facet normal -0.951061 -0.309002 0
    outer loop
      vertex 2.17931 0.559552 -10
      vertex 2.092 0.828279 -3.9
      vertex 2.092 0.828279 -10
    endloop
  endfacet
  facet normal -0.951061 -0.309002 0
    outer loop
      vertex 2.092 0.828279 -3.9
      vertex 2.17931 0.559552 -10
      vertex 2.17931 0.559552 -3.9
    endloop
  endfacet
  facet normal -0.770505 -0.637434 0
    outer loop
      vertex 1.82029 1.32252 -10
      vertex 1.64018 1.54023 -3.9
      vertex 1.64018 1.54023 -10
    endloop
  endfacet
  facet normal -0.770505 -0.637434 0
    outer loop
      vertex 1.64018 1.54023 -3.9
      vertex 1.82029 1.32252 -10
      vertex 1.82029 1.32252 -3.9
    endloop
  endfacet
  facet normal -0.84433 -0.535824 0
    outer loop
      vertex 1.97169 1.08395 -10
      vertex 1.82029 1.32252 -3.9
      vertex 1.82029 1.32252 -10
    endloop
  endfacet
  facet normal -0.84433 -0.535824 0
    outer loop
      vertex 1.82029 1.32252 -3.9
      vertex 1.97169 1.08395 -10
      vertex 1.97169 1.08395 -3.9
    endloop
  endfacet
  facet normal -0.12532 -0.992116 0
    outer loop
      vertex 0.141278 2.24556 -10
      vertex 0.421607 2.21015 -3.9
      vertex 0.141278 2.24556 -3.9
    endloop
  endfacet
  facet normal -0.12532 -0.992116 -0
    outer loop
      vertex 0.421607 2.21015 -3.9
      vertex 0.141278 2.24556 -10
      vertex 0.421607 2.21015 -10
    endloop
  endfacet
  facet normal -0.481745 -0.876311 0
    outer loop
      vertex 0.958003 2.03586 -10
      vertex 1.20561 1.89974 -3.9
      vertex 0.958003 2.03586 -3.9
    endloop
  endfacet
  facet normal -0.481745 -0.876311 -0
    outer loop
      vertex 1.20561 1.89974 -3.9
      vertex 0.958003 2.03586 -10
      vertex 1.20561 1.89974 -10
    endloop
  endfacet
  facet normal 0.84433 -0.535824 0
    outer loop
      vertex -1.97169 1.08395 -3.9
      vertex -1.82029 1.32252 -10
      vertex -1.82029 1.32252 -3.9
    endloop
  endfacet
  facet normal 0.84433 -0.535824 0
    outer loop
      vertex -1.82029 1.32252 -10
      vertex -1.97169 1.08395 -3.9
      vertex -1.97169 1.08395 -10
    endloop
  endfacet
  facet normal 0.982285 -0.187395 0
    outer loop
      vertex -2.23226 0.282 -3.9
      vertex -2.17931 0.559552 -10
      vertex -2.17931 0.559552 -3.9
    endloop
  endfacet
  facet normal 0.982285 -0.187395 0
    outer loop
      vertex -2.17931 0.559552 -10
      vertex -2.23226 0.282 -3.9
      vertex -2.23226 0.282 -10
    endloop
  endfacet
  facet normal 0.587808 -0.809001 0
    outer loop
      vertex -1.4342 1.73365 -10
      vertex -1.20561 1.89974 -3.9
      vertex -1.4342 1.73365 -3.9
    endloop
  endfacet
  facet normal 0.587808 -0.809001 0
    outer loop
      vertex -1.20561 1.89974 -3.9
      vertex -1.4342 1.73365 -10
      vertex -1.20561 1.89974 -10
    endloop
  endfacet
  facet normal 0.248692 -0.968583 0
    outer loop
      vertex -0.695288 2.13988 -10
      vertex -0.421607 2.21015 -3.9
      vertex -0.695288 2.13988 -3.9
    endloop
  endfacet
  facet normal 0.248692 -0.968583 0
    outer loop
      vertex -0.421607 2.21015 -3.9
      vertex -0.695288 2.13988 -10
      vertex -0.421607 2.21015 -10
    endloop
  endfacet
  facet normal -0.998027 0.0627837 0
    outer loop
      vertex 2.23226 -0.282 -10
      vertex 2.25 0 -3.9
      vertex 2.25 0 -10
    endloop
  endfacet
  facet normal -0.998027 0.0627837 0
    outer loop
      vertex 2.25 0 -3.9
      vertex 2.23226 -0.282 -10
      vertex 2.23226 -0.282 -3.9
    endloop
  endfacet
  facet normal -0.84433 0.535824 0
    outer loop
      vertex 1.82029 -1.32252 -10
      vertex 1.97169 -1.08395 -3.9
      vertex 1.97169 -1.08395 -10
    endloop
  endfacet
  facet normal -0.84433 0.535824 0
    outer loop
      vertex 1.97169 -1.08395 -3.9
      vertex 1.82029 -1.32252 -10
      vertex 1.82029 -1.32252 -3.9
    endloop
  endfacet
  facet normal -0.982285 0.187395 0
    outer loop
      vertex 2.17931 -0.559552 -10
      vertex 2.23226 -0.282 -3.9
      vertex 2.23226 -0.282 -10
    endloop
  endfacet
  facet normal -0.982285 0.187395 0
    outer loop
      vertex 2.23226 -0.282 -3.9
      vertex 2.17931 -0.559552 -10
      vertex 2.17931 -0.559552 -3.9
    endloop
  endfacet
  facet normal 0.684532 0.728983 -0
    outer loop
      vertex -1.4342 -1.73365 -10
      vertex -1.64018 -1.54023 -3.9
      vertex -1.4342 -1.73365 -3.9
    endloop
  endfacet
  facet normal 0.684532 0.728983 0
    outer loop
      vertex -1.64018 -1.54023 -3.9
      vertex -1.4342 -1.73365 -10
      vertex -1.64018 -1.54023 -10
    endloop
  endfacet
  facet normal 0.770505 0.637434 0
    outer loop
      vertex -1.64018 -1.54023 -3.9
      vertex -1.82029 -1.32252 -10
      vertex -1.82029 -1.32252 -3.9
    endloop
  endfacet
  facet normal 0.770505 0.637434 0
    outer loop
      vertex -1.82029 -1.32252 -10
      vertex -1.64018 -1.54023 -3.9
      vertex -1.64018 -1.54023 -10
    endloop
  endfacet
  facet normal -0.587808 0.809001 0
    outer loop
      vertex 1.4342 -1.73365 -10
      vertex 1.20561 -1.89974 -3.9
      vertex 1.4342 -1.73365 -3.9
    endloop
  endfacet
  facet normal -0.587808 0.809001 0
    outer loop
      vertex 1.20561 -1.89974 -3.9
      vertex 1.4342 -1.73365 -10
      vertex 1.20561 -1.89974 -10
    endloop
  endfacet
  facet normal -0.904827 0.42578 0
    outer loop
      vertex 1.97169 -1.08395 -10
      vertex 2.092 -0.828279 -3.9
      vertex 2.092 -0.828279 -10
    endloop
  endfacet
  facet normal -0.904827 0.42578 0
    outer loop
      vertex 2.092 -0.828279 -3.9
      vertex 1.97169 -1.08395 -10
      vertex 1.97169 -1.08395 -3.9
    endloop
  endfacet
  facet normal 0.368136 0.929772 -0
    outer loop
      vertex -0.695288 -2.13988 -10
      vertex -0.958003 -2.03586 -3.9
      vertex -0.695288 -2.13988 -3.9
    endloop
  endfacet
  facet normal 0.368136 0.929772 0
    outer loop
      vertex -0.958003 -2.03586 -3.9
      vertex -0.695288 -2.13988 -10
      vertex -0.958003 -2.03586 -10
    endloop
  endfacet
  facet normal 0.951061 0.309002 0
    outer loop
      vertex -2.092 -0.828279 -3.9
      vertex -2.17931 -0.559552 -10
      vertex -2.17931 -0.559552 -3.9
    endloop
  endfacet
  facet normal 0.951061 0.309002 0
    outer loop
      vertex -2.17931 -0.559552 -10
      vertex -2.092 -0.828279 -3.9
      vertex -2.092 -0.828279 -10
    endloop
  endfacet
  facet normal 0.998027 0.0627837 0
    outer loop
      vertex -2.23226 -0.282 -3.9
      vertex -2.25 0 -10
      vertex -2.25 0 -3.9
    endloop
  endfacet
  facet normal 0.998027 0.0627837 0
    outer loop
      vertex -2.25 0 -10
      vertex -2.23226 -0.282 -3.9
      vertex -2.23226 -0.282 -10
    endloop
  endfacet
  facet normal -0.770505 0.637434 0
    outer loop
      vertex 1.64018 -1.54023 -10
      vertex 1.82029 -1.32252 -3.9
      vertex 1.82029 -1.32252 -10
    endloop
  endfacet
  facet normal -0.770505 0.637434 0
    outer loop
      vertex 1.82029 -1.32252 -3.9
      vertex 1.64018 -1.54023 -10
      vertex 1.64018 -1.54023 -3.9
    endloop
  endfacet
  facet normal -0.368136 0.929772 0
    outer loop
      vertex 0.958003 -2.03586 -10
      vertex 0.695288 -2.13988 -3.9
      vertex 0.958003 -2.03586 -3.9
    endloop
  endfacet
  facet normal -0.368136 0.929772 0
    outer loop
      vertex 0.695288 -2.13988 -3.9
      vertex 0.958003 -2.03586 -10
      vertex 0.695288 -2.13988 -10
    endloop
  endfacet
  facet normal -0.248692 0.968583 0
    outer loop
      vertex 0.695288 -2.13988 -10
      vertex 0.421607 -2.21015 -3.9
      vertex 0.695288 -2.13988 -3.9
    endloop
  endfacet
  facet normal -0.248692 0.968583 0
    outer loop
      vertex 0.421607 -2.21015 -3.9
      vertex 0.695288 -2.13988 -10
      vertex 0.421607 -2.21015 -10
    endloop
  endfacet
  facet normal 0.481745 0.876311 -0
    outer loop
      vertex -0.958003 -2.03586 -10
      vertex -1.20561 -1.89974 -3.9
      vertex -0.958003 -2.03586 -3.9
    endloop
  endfacet
  facet normal 0.481745 0.876311 0
    outer loop
      vertex -1.20561 -1.89974 -3.9
      vertex -0.958003 -2.03586 -10
      vertex -1.20561 -1.89974 -10
    endloop
  endfacet
  facet normal 0.587808 0.809001 -0
    outer loop
      vertex -1.20561 -1.89974 -10
      vertex -1.4342 -1.73365 -3.9
      vertex -1.20561 -1.89974 -3.9
    endloop
  endfacet
  facet normal 0.587808 0.809001 0
    outer loop
      vertex -1.4342 -1.73365 -3.9
      vertex -1.20561 -1.89974 -10
      vertex -1.4342 -1.73365 -10
    endloop
  endfacet
  facet normal 0.84433 0.535824 0
    outer loop
      vertex -1.82029 -1.32252 -3.9
      vertex -1.97169 -1.08395 -10
      vertex -1.97169 -1.08395 -3.9
    endloop
  endfacet
  facet normal 0.84433 0.535824 0
    outer loop
      vertex -1.97169 -1.08395 -10
      vertex -1.82029 -1.32252 -3.9
      vertex -1.82029 -1.32252 -10
    endloop
  endfacet
  facet normal 0.904827 0.42578 0
    outer loop
      vertex -1.97169 -1.08395 -3.9
      vertex -2.092 -0.828279 -10
      vertex -2.092 -0.828279 -3.9
    endloop
  endfacet
  facet normal 0.904827 0.42578 0
    outer loop
      vertex -2.092 -0.828279 -10
      vertex -1.97169 -1.08395 -3.9
      vertex -1.97169 -1.08395 -10
    endloop
  endfacet
  facet normal 0.982285 0.187395 0
    outer loop
      vertex -2.17931 -0.559552 -3.9
      vertex -2.23226 -0.282 -10
      vertex -2.23226 -0.282 -3.9
    endloop
  endfacet
  facet normal 0.982285 0.187395 0
    outer loop
      vertex -2.23226 -0.282 -10
      vertex -2.17931 -0.559552 -3.9
      vertex -2.17931 -0.559552 -10
    endloop
  endfacet
  facet normal -0.684532 0.728983 0
    outer loop
      vertex 1.64018 -1.54023 -10
      vertex 1.4342 -1.73365 -3.9
      vertex 1.64018 -1.54023 -3.9
    endloop
  endfacet
  facet normal -0.684532 0.728983 0
    outer loop
      vertex 1.4342 -1.73365 -3.9
      vertex 1.64018 -1.54023 -10
      vertex 1.4342 -1.73365 -10
    endloop
  endfacet
  facet normal -0.481745 0.876311 0
    outer loop
      vertex 1.20561 -1.89974 -10
      vertex 0.958003 -2.03586 -3.9
      vertex 1.20561 -1.89974 -3.9
    endloop
  endfacet
  facet normal -0.481745 0.876311 0
    outer loop
      vertex 0.958003 -2.03586 -3.9
      vertex 1.20561 -1.89974 -10
      vertex 0.958003 -2.03586 -10
    endloop
  endfacet
  facet normal 0.248692 0.968583 -0
    outer loop
      vertex -0.421607 -2.21015 -10
      vertex -0.695288 -2.13988 -3.9
      vertex -0.421607 -2.21015 -3.9
    endloop
  endfacet
  facet normal 0.248692 0.968583 0
    outer loop
      vertex -0.695288 -2.13988 -3.9
      vertex -0.421607 -2.21015 -10
      vertex -0.695288 -2.13988 -10
    endloop
  endfacet
  facet normal 0.12532 0.992116 -0
    outer loop
      vertex -0.141278 -2.24556 -10
      vertex -0.421607 -2.21015 -3.9
      vertex -0.141278 -2.24556 -3.9
    endloop
  endfacet
  facet normal 0.12532 0.992116 0
    outer loop
      vertex -0.421607 -2.21015 -3.9
      vertex -0.141278 -2.24556 -10
      vertex -0.421607 -2.21015 -10
    endloop
  endfacet
  facet normal 0.998027 0.0627908 0
    outer loop
      vertex 7.5 0 0
      vertex 7.44086 0.939999 -10
      vertex 7.44086 0.939999 0
    endloop
  endfacet
  facet normal 0.998027 0.0627908 0
    outer loop
      vertex 7.44086 0.939999 -10
      vertex 7.5 0 0
      vertex 7.5 0 -10
    endloop
  endfacet
  facet normal -0.998027 0.0627908 0
    outer loop
      vertex -7.5 0 -10
      vertex -7.44086 0.939999 0
      vertex -7.44086 0.939999 -10
    endloop
  endfacet
  facet normal -0.998027 0.0627908 0
    outer loop
      vertex -7.44086 0.939999 0
      vertex -7.5 0 -10
      vertex -7.5 0 0
    endloop
  endfacet
  facet normal 0 1 -0
    outer loop
      vertex 0.470928 7.4852 -10
      vertex -0.470928 7.4852 0
      vertex 0.470928 7.4852 0
    endloop
  endfacet
  facet normal 0 1 0
    outer loop
      vertex -0.470928 7.4852 0
      vertex 0.470928 7.4852 -10
      vertex -0.470928 7.4852 -10
    endloop
  endfacet
  facet normal 0.684552 0.728964 -0
    outer loop
      vertex 5.46726 5.1341 -10
      vertex 4.78068 5.77885 0
      vertex 5.46726 5.1341 0
    endloop
  endfacet
  facet normal 0.684552 0.728964 0
    outer loop
      vertex 4.78068 5.77885 0
      vertex 5.46726 5.1341 -10
      vertex 4.78068 5.77885 -10
    endloop
  endfacet
  facet normal -0.684552 0.728964 0
    outer loop
      vertex -4.78068 5.77885 -10
      vertex -5.46726 5.1341 0
      vertex -4.78068 5.77885 0
    endloop
  endfacet
  facet normal -0.684552 0.728964 0
    outer loop
      vertex -5.46726 5.1341 0
      vertex -4.78068 5.77885 -10
      vertex -5.46726 5.1341 -10
    endloop
  endfacet
  facet normal -0.368126 0.929776 0
    outer loop
      vertex -2.31763 7.13292 -10
      vertex -3.19334 6.7862 0
      vertex -2.31763 7.13292 0
    endloop
  endfacet
  facet normal -0.368126 0.929776 0
    outer loop
      vertex -3.19334 6.7862 0
      vertex -2.31763 7.13292 -10
      vertex -3.19334 6.7862 -10
    endloop
  endfacet
  facet normal 0.904829 0.425776 0
    outer loop
      vertex 6.97332 2.76093 0
      vertex 6.5723 3.61315 -10
      vertex 6.5723 3.61315 0
    endloop
  endfacet
  facet normal 0.904829 0.425776 0
    outer loop
      vertex 6.5723 3.61315 -10
      vertex 6.97332 2.76093 0
      vertex 6.97332 2.76093 -10
    endloop
  endfacet
  facet normal 0.368126 0.929776 -0
    outer loop
      vertex 3.19334 6.7862 -10
      vertex 2.31763 7.13292 0
      vertex 3.19334 6.7862 0
    endloop
  endfacet
  facet normal 0.368126 0.929776 0
    outer loop
      vertex 2.31763 7.13292 0
      vertex 3.19334 6.7862 -10
      vertex 2.31763 7.13292 -10
    endloop
  endfacet
  facet normal 0.248689 0.968583 -0
    outer loop
      vertex 2.31763 7.13292 -10
      vertex 1.40536 7.36715 0
      vertex 2.31763 7.13292 0
    endloop
  endfacet
  facet normal 0.248689 0.968583 0
    outer loop
      vertex 1.40536 7.36715 0
      vertex 2.31763 7.13292 -10
      vertex 1.40536 7.36715 -10
    endloop
  endfacet
  facet normal 0.587785 0.809017 -0
    outer loop
      vertex 4.78068 5.77885 -10
      vertex 4.0187 6.33246 0
      vertex 4.78068 5.77885 0
    endloop
  endfacet
  facet normal 0.587785 0.809017 0
    outer loop
      vertex 4.0187 6.33246 0
      vertex 4.78068 5.77885 -10
      vertex 4.0187 6.33246 -10
    endloop
  endfacet
  facet normal -0.904829 0.425776 0
    outer loop
      vertex -6.97332 2.76093 -10
      vertex -6.5723 3.61315 0
      vertex -6.5723 3.61315 -10
    endloop
  endfacet
  facet normal -0.904829 0.425776 0
    outer loop
      vertex -6.5723 3.61315 0
      vertex -6.97332 2.76093 -10
      vertex -6.97332 2.76093 0
    endloop
  endfacet
  facet normal -0.84433 0.535823 0
    outer loop
      vertex -6.5723 3.61315 -10
      vertex -6.06763 4.40839 0
      vertex -6.06763 4.40839 -10
    endloop
  endfacet
  facet normal -0.84433 0.535823 0
    outer loop
      vertex -6.06763 4.40839 0
      vertex -6.5723 3.61315 -10
      vertex -6.5723 3.61315 0
    endloop
  endfacet
  facet normal -0.982286 0.187386 0
    outer loop
      vertex -7.44086 0.939999 -10
      vertex -7.26437 1.86517 0
      vertex -7.26437 1.86517 -10
    endloop
  endfacet
  facet normal -0.982286 0.187386 0
    outer loop
      vertex -7.26437 1.86517 0
      vertex -7.44086 0.939999 -10
      vertex -7.44086 0.939999 0
    endloop
  endfacet
  facet normal -0.587785 0.809017 0
    outer loop
      vertex -4.0187 6.33246 -10
      vertex -4.78068 5.77885 0
      vertex -4.0187 6.33246 0
    endloop
  endfacet
  facet normal -0.587785 0.809017 0
    outer loop
      vertex -4.78068 5.77885 0
      vertex -4.0187 6.33246 -10
      vertex -4.78068 5.77885 -10
    endloop
  endfacet
  facet normal -0.125337 0.992114 0
    outer loop
      vertex -0.470928 7.4852 -10
      vertex -1.40536 7.36715 0
      vertex -0.470928 7.4852 0
    endloop
  endfacet
  facet normal -0.125337 0.992114 0
    outer loop
      vertex -1.40536 7.36715 0
      vertex -0.470928 7.4852 -10
      vertex -1.40536 7.36715 -10
    endloop
  endfacet
  facet normal 0.998027 -0.0627908 0
    outer loop
      vertex 7.44086 -0.939999 0
      vertex 7.5 0 -10
      vertex 7.5 0 0
    endloop
  endfacet
  facet normal 0.998027 -0.0627908 0
    outer loop
      vertex 7.5 0 -10
      vertex 7.44086 -0.939999 0
      vertex 7.44086 -0.939999 -10
    endloop
  endfacet
  facet normal -0.248689 -0.968583 0
    outer loop
      vertex -2.31763 -7.13292 -10
      vertex -1.40536 -7.36715 0
      vertex -2.31763 -7.13292 0
    endloop
  endfacet
  facet normal -0.248689 -0.968583 -0
    outer loop
      vertex -1.40536 -7.36715 0
      vertex -2.31763 -7.13292 -10
      vertex -1.40536 -7.36715 -10
    endloop
  endfacet
  facet normal -0.904829 -0.425776 0
    outer loop
      vertex -6.5723 -3.61315 -10
      vertex -6.97332 -2.76093 0
      vertex -6.97332 -2.76093 -10
    endloop
  endfacet
  facet normal -0.904829 -0.425776 0
    outer loop
      vertex -6.97332 -2.76093 0
      vertex -6.5723 -3.61315 -10
      vertex -6.5723 -3.61315 0
    endloop
  endfacet
  facet normal 0.125337 -0.992114 0
    outer loop
      vertex 0.470928 -7.4852 -10
      vertex 1.40536 -7.36715 0
      vertex 0.470928 -7.4852 0
    endloop
  endfacet
  facet normal 0.125337 -0.992114 0
    outer loop
      vertex 1.40536 -7.36715 0
      vertex 0.470928 -7.4852 -10
      vertex 1.40536 -7.36715 -10
    endloop
  endfacet
  facet normal 0.951057 0.309017 0
    outer loop
      vertex 7.26437 1.86517 0
      vertex 6.97332 2.76093 -10
      vertex 6.97332 2.76093 0
    endloop
  endfacet
  facet normal 0.951057 0.309017 0
    outer loop
      vertex 6.97332 2.76093 -10
      vertex 7.26437 1.86517 0
      vertex 7.26437 1.86517 -10
    endloop
  endfacet
  facet normal 0.982286 0.187386 0
    outer loop
      vertex 7.44086 0.939999 0
      vertex 7.26437 1.86517 -10
      vertex 7.26437 1.86517 0
    endloop
  endfacet
  facet normal 0.982286 0.187386 0
    outer loop
      vertex 7.26437 1.86517 -10
      vertex 7.44086 0.939999 0
      vertex 7.44086 0.939999 -10
    endloop
  endfacet
  facet normal 0.770508 0.637431 0
    outer loop
      vertex 6.06763 4.40839 0
      vertex 5.46726 5.1341 -10
      vertex 5.46726 5.1341 0
    endloop
  endfacet
  facet normal 0.770508 0.637431 0
    outer loop
      vertex 5.46726 5.1341 -10
      vertex 6.06763 4.40839 0
      vertex 6.06763 4.40839 -10
    endloop
  endfacet
  facet normal 0.84433 0.535823 0
    outer loop
      vertex 6.5723 3.61315 0
      vertex 6.06763 4.40839 -10
      vertex 6.06763 4.40839 0
    endloop
  endfacet
  facet normal 0.84433 0.535823 0
    outer loop
      vertex 6.06763 4.40839 -10
      vertex 6.5723 3.61315 0
      vertex 6.5723 3.61315 -10
    endloop
  endfacet
  facet normal 0.125337 0.992114 -0
    outer loop
      vertex 1.40536 7.36715 -10
      vertex 0.470928 7.4852 0
      vertex 1.40536 7.36715 0
    endloop
  endfacet
  facet normal 0.125337 0.992114 0
    outer loop
      vertex 0.470928 7.4852 0
      vertex 1.40536 7.36715 -10
      vertex 0.470928 7.4852 -10
    endloop
  endfacet
  facet normal 0.481749 0.876309 -0
    outer loop
      vertex 4.0187 6.33246 -10
      vertex 3.19334 6.7862 0
      vertex 4.0187 6.33246 0
    endloop
  endfacet
  facet normal 0.481749 0.876309 0
    outer loop
      vertex 3.19334 6.7862 0
      vertex 4.0187 6.33246 -10
      vertex 3.19334 6.7862 -10
    endloop
  endfacet
  facet normal 0.951057 -0.309017 0
    outer loop
      vertex 6.97332 -2.76093 0
      vertex 7.26437 -1.86517 -10
      vertex 7.26437 -1.86517 0
    endloop
  endfacet
  facet normal 0.951057 -0.309017 0
    outer loop
      vertex 7.26437 -1.86517 -10
      vertex 6.97332 -2.76093 0
      vertex 6.97332 -2.76093 -10
    endloop
  endfacet
  facet normal 0.982286 -0.187386 0
    outer loop
      vertex 7.26437 -1.86517 0
      vertex 7.44086 -0.939999 -10
      vertex 7.44086 -0.939999 0
    endloop
  endfacet
  facet normal 0.982286 -0.187386 0
    outer loop
      vertex 7.44086 -0.939999 -10
      vertex 7.26437 -1.86517 0
      vertex 7.26437 -1.86517 -10
    endloop
  endfacet
  facet normal -0.125337 -0.992114 0
    outer loop
      vertex -1.40536 -7.36715 -10
      vertex -0.470928 -7.4852 0
      vertex -1.40536 -7.36715 0
    endloop
  endfacet
  facet normal -0.125337 -0.992114 -0
    outer loop
      vertex -0.470928 -7.4852 0
      vertex -1.40536 -7.36715 -10
      vertex -0.470928 -7.4852 -10
    endloop
  endfacet
  facet normal -0.998027 -0.0627908 0
    outer loop
      vertex -7.44086 -0.939999 -10
      vertex -7.5 0 0
      vertex -7.5 0 -10
    endloop
  endfacet
  facet normal -0.998027 -0.0627908 0
    outer loop
      vertex -7.5 0 0
      vertex -7.44086 -0.939999 -10
      vertex -7.44086 -0.939999 0
    endloop
  endfacet
  facet normal 0.368126 -0.929776 0
    outer loop
      vertex 2.31763 -7.13292 -10
      vertex 3.19334 -6.7862 0
      vertex 2.31763 -7.13292 0
    endloop
  endfacet
  facet normal 0.368126 -0.929776 0
    outer loop
      vertex 3.19334 -6.7862 0
      vertex 2.31763 -7.13292 -10
      vertex 3.19334 -6.7862 -10
    endloop
  endfacet
  facet normal 0.248689 -0.968583 0
    outer loop
      vertex 1.40536 -7.36715 -10
      vertex 2.31763 -7.13292 0
      vertex 1.40536 -7.36715 0
    endloop
  endfacet
  facet normal 0.248689 -0.968583 0
    outer loop
      vertex 2.31763 -7.13292 0
      vertex 1.40536 -7.36715 -10
      vertex 2.31763 -7.13292 -10
    endloop
  endfacet
  facet normal -0.770508 0.637431 0
    outer loop
      vertex -6.06763 4.40839 -10
      vertex -5.46726 5.1341 0
      vertex -5.46726 5.1341 -10
    endloop
  endfacet
  facet normal -0.770508 0.637431 0
    outer loop
      vertex -5.46726 5.1341 0
      vertex -6.06763 4.40839 -10
      vertex -6.06763 4.40839 0
    endloop
  endfacet
  facet normal -0.951057 0.309017 0
    outer loop
      vertex -7.26437 1.86517 -10
      vertex -6.97332 2.76093 0
      vertex -6.97332 2.76093 -10
    endloop
  endfacet
  facet normal -0.951057 0.309017 0
    outer loop
      vertex -6.97332 2.76093 0
      vertex -7.26437 1.86517 -10
      vertex -7.26437 1.86517 0
    endloop
  endfacet
  facet normal -0.481749 0.876309 0
    outer loop
      vertex -3.19334 6.7862 -10
      vertex -4.0187 6.33246 0
      vertex -3.19334 6.7862 0
    endloop
  endfacet
  facet normal -0.481749 0.876309 0
    outer loop
      vertex -4.0187 6.33246 0
      vertex -3.19334 6.7862 -10
      vertex -4.0187 6.33246 -10
    endloop
  endfacet
  facet normal -0.248689 0.968583 0
    outer loop
      vertex -1.40536 7.36715 -10
      vertex -2.31763 7.13292 0
      vertex -1.40536 7.36715 0
    endloop
  endfacet
  facet normal -0.248689 0.968583 0
    outer loop
      vertex -2.31763 7.13292 0
      vertex -1.40536 7.36715 -10
      vertex -2.31763 7.13292 -10
    endloop
  endfacet
  facet normal 0.481749 -0.876309 0
    outer loop
      vertex 3.19334 -6.7862 -10
      vertex 4.0187 -6.33246 0
      vertex 3.19334 -6.7862 0
    endloop
  endfacet
  facet normal 0.481749 -0.876309 0
    outer loop
      vertex 4.0187 -6.33246 0
      vertex 3.19334 -6.7862 -10
      vertex 4.0187 -6.33246 -10
    endloop
  endfacet
  facet normal 0.684552 -0.728964 0
    outer loop
      vertex 4.78068 -5.77885 -10
      vertex 5.46726 -5.1341 0
      vertex 4.78068 -5.77885 0
    endloop
  endfacet
  facet normal 0.684552 -0.728964 0
    outer loop
      vertex 5.46726 -5.1341 0
      vertex 4.78068 -5.77885 -10
      vertex 5.46726 -5.1341 -10
    endloop
  endfacet
  facet normal 0.904829 -0.425776 0
    outer loop
      vertex 6.5723 -3.61315 0
      vertex 6.97332 -2.76093 -10
      vertex 6.97332 -2.76093 0
    endloop
  endfacet
  facet normal 0.904829 -0.425776 0
    outer loop
      vertex 6.97332 -2.76093 -10
      vertex 6.5723 -3.61315 0
      vertex 6.5723 -3.61315 -10
    endloop
  endfacet
  facet normal -0.368126 -0.929776 0
    outer loop
      vertex -3.19334 -6.7862 -10
      vertex -2.31763 -7.13292 0
      vertex -3.19334 -6.7862 0
    endloop
  endfacet
  facet normal -0.368126 -0.929776 -0
    outer loop
      vertex -2.31763 -7.13292 0
      vertex -3.19334 -6.7862 -10
      vertex -2.31763 -7.13292 -10
    endloop
  endfacet
  facet normal -0.684552 -0.728964 0
    outer loop
      vertex -5.46726 -5.1341 -10
      vertex -4.78068 -5.77885 0
      vertex -5.46726 -5.1341 0
    endloop
  endfacet
  facet normal -0.684552 -0.728964 -0
    outer loop
      vertex -4.78068 -5.77885 0
      vertex -5.46726 -5.1341 -10
      vertex -4.78068 -5.77885 -10
    endloop
  endfacet
  facet normal 0.84433 -0.535823 0
    outer loop
      vertex 6.06763 -4.40839 0
      vertex 6.5723 -3.61315 -10
      vertex 6.5723 -3.61315 0
    endloop
  endfacet
  facet normal 0.84433 -0.535823 0
    outer loop
      vertex 6.5723 -3.61315 -10
      vertex 6.06763 -4.40839 0
      vertex 6.06763 -4.40839 -10
    endloop
  endfacet
  facet normal 0.587785 -0.809017 0
    outer loop
      vertex 4.0187 -6.33246 -10
      vertex 4.78068 -5.77885 0
      vertex 4.0187 -6.33246 0
    endloop
  endfacet
  facet normal 0.587785 -0.809017 0
    outer loop
      vertex 4.78068 -5.77885 0
      vertex 4.0187 -6.33246 -10
      vertex 4.78068 -5.77885 -10
    endloop
  endfacet
  facet normal 0.770508 -0.637431 0
    outer loop
      vertex 5.46726 -5.1341 0
      vertex 6.06763 -4.40839 -10
      vertex 6.06763 -4.40839 0
    endloop
  endfacet
  facet normal 0.770508 -0.637431 0
    outer loop
      vertex 6.06763 -4.40839 -10
      vertex 5.46726 -5.1341 0
      vertex 5.46726 -5.1341 -10
    endloop
  endfacet
  facet normal 0 -1 0
    outer loop
      vertex -0.470928 -7.4852 -10
      vertex 0.470928 -7.4852 0
      vertex -0.470928 -7.4852 0
    endloop
  endfacet
  facet normal 0 -1 -0
    outer loop
      vertex 0.470928 -7.4852 0
      vertex -0.470928 -7.4852 -10
      vertex 0.470928 -7.4852 -10
    endloop
  endfacet
  facet normal -0.587785 -0.809017 0
    outer loop
      vertex -4.78068 -5.77885 -10
      vertex -4.0187 -6.33246 0
      vertex -4.78068 -5.77885 0
    endloop
  endfacet
  facet normal -0.587785 -0.809017 -0
    outer loop
      vertex -4.0187 -6.33246 0
      vertex -4.78068 -5.77885 -10
      vertex -4.0187 -6.33246 -10
    endloop
  endfacet
  facet normal -0.481749 -0.876309 0
    outer loop
      vertex -4.0187 -6.33246 -10
      vertex -3.19334 -6.7862 0
      vertex -4.0187 -6.33246 0
    endloop
  endfacet
  facet normal -0.481749 -0.876309 -0
    outer loop
      vertex -3.19334 -6.7862 0
      vertex -4.0187 -6.33246 -10
      vertex -3.19334 -6.7862 -10
    endloop
  endfacet
  facet normal -0.770508 -0.637431 0
    outer loop
      vertex -5.46726 -5.1341 -10
      vertex -6.06763 -4.40839 0
      vertex -6.06763 -4.40839 -10
    endloop
  endfacet
  facet normal -0.770508 -0.637431 0
    outer loop
      vertex -6.06763 -4.40839 0
      vertex -5.46726 -5.1341 -10
      vertex -5.46726 -5.1341 0
    endloop
  endfacet
  facet normal -0.84433 -0.535823 0
    outer loop
      vertex -6.06763 -4.40839 -10
      vertex -6.5723 -3.61315 0
      vertex -6.5723 -3.61315 -10
    endloop
  endfacet
  facet normal -0.84433 -0.535823 0
    outer loop
      vertex -6.5723 -3.61315 0
      vertex -6.06763 -4.40839 -10
      vertex -6.06763 -4.40839 0
    endloop
  endfacet
  facet normal -0.951057 -0.309017 0
    outer loop
      vertex -6.97332 -2.76093 -10
      vertex -7.26437 -1.86517 0
      vertex -7.26437 -1.86517 -10
    endloop
  endfacet
  facet normal -0.951057 -0.309017 0
    outer loop
      vertex -7.26437 -1.86517 0
      vertex -6.97332 -2.76093 -10
      vertex -6.97332 -2.76093 0
    endloop
  endfacet
  facet normal -0.982286 -0.187386 0
    outer loop
      vertex -7.26437 -1.86517 -10
      vertex -7.44086 -0.939999 0
      vertex -7.44086 -0.939999 -10
    endloop
  endfacet
  facet normal -0.982286 -0.187386 0
    outer loop
      vertex -7.44086 -0.939999 0
      vertex -7.26437 -1.86517 -10
      vertex -7.26437 -1.86517 0
    endloop
  endfacet
endsolid OpenSCAD_Model
