  0
SECTION
  2
BLOCKS
  0
ENDSEC
  0
SECTION
  2
ENTITIES
  0
LINE
  8
0
 10
1.40535
 20
16.6329
 11
2.31763
 21
16.8671
  0
LINE
  8
0
 10
2.31763
 20
16.8671
 11
3.19334
 21
17.2138
  0
LINE
  8
0
 10
3.19334
 20
17.2138
 11
4.01869
 21
17.6675
  0
LINE
  8
0
 10
4.01869
 20
17.6675
 11
4.78067
 21
18.2212
  0
LINE
  8
0
 10
4.78067
 20
18.2212
 11
5.46725
 21
18.8659
  0
LINE
  8
0
 10
5.46725
 20
18.8659
 11
6.06763
 21
19.5916
  0
LINE
  8
0
 10
6.06763
 20
19.5916
 11
6.5723
 21
20.3869
  0
LINE
  8
0
 10
6.5723
 20
20.3869
 11
6.97331
 21
21.2391
  0
LINE
  8
0
 10
6.97331
 20
21.2391
 11
7.26436
 21
22.1348
  0
LINE
  8
0
 10
7.26436
 20
22.1348
 11
7.44086
 21
23.06
  0
LINE
  8
0
 10
7.44086
 20
23.06
 11
7.5
 21
24
  0
LINE
  8
0
 10
7.5
 20
24
 11
7.44086
 21
24.94
  0
LINE
  8
0
 10
7.44086
 20
24.94
 11
7.26436
 21
25.8652
  0
LINE
  8
0
 10
7.26436
 20
25.8652
 11
6.97331
 21
26.7609
  0
LINE
  8
0
 10
6.97331
 20
26.7609
 11
6.5723
 21
27.6131
  0
LINE
  8
0
 10
6.5723
 20
27.6131
 11
6.06763
 21
28.4084
  0
LINE
  8
0
 10
6.06763
 20
28.4084
 11
5.46725
 21
29.1341
  0
LINE
  8
0
 10
5.46725
 20
29.1341
 11
4.78067
 21
29.7788
  0
LINE
  8
0
 10
4.78067
 20
29.7788
 11
4.01869
 21
30.3325
  0
LINE
  8
0
 10
4.01869
 20
30.3325
 11
3.19334
 21
30.7862
  0
LINE
  8
0
 10
3.19334
 20
30.7862
 11
2.31763
 21
31.1329
  0
LINE
  8
0
 10
2.31763
 20
31.1329
 11
1.40535
 21
31.3671
  0
LINE
  8
0
 10
1.40535
 20
31.3671
 11
0.470917
 21
31.4852
  0
LINE
  8
0
 10
0.470917
 20
31.4852
 11
-0.470917
 21
31.4852
  0
LINE
  8
0
 10
-0.470917
 20
31.4852
 11
-1.40535
 21
31.3671
  0
LINE
  8
0
 10
-1.40535
 20
31.3671
 11
-2.31763
 21
31.1329
  0
LINE
  8
0
 10
-2.31763
 20
31.1329
 11
-3.19334
 21
30.7862
  0
LINE
  8
0
 10
-3.19334
 20
30.7862
 11
-4.01869
 21
30.3325
  0
LINE
  8
0
 10
-4.01869
 20
30.3325
 11
-4.78067
 21
29.7788
  0
LINE
  8
0
 10
-4.78067
 20
29.7788
 11
-5.46725
 21
29.1341
  0
LINE
  8
0
 10
-5.46725
 20
29.1341
 11
-6.06763
 21
28.4084
  0
LINE
  8
0
 10
-6.06763
 20
28.4084
 11
-6.5723
 21
27.6131
  0
LINE
  8
0
 10
-6.5723
 20
27.6131
 11
-6.97331
 21
26.7609
  0
LINE
  8
0
 10
-6.97331
 20
26.7609
 11
-7.26436
 21
25.8652
  0
LINE
  8
0
 10
-7.26436
 20
25.8652
 11
-7.44086
 21
24.94
  0
LINE
  8
0
 10
-7.44086
 20
24.94
 11
-7.5
 21
24
  0
LINE
  8
0
 10
-7.5
 20
24
 11
-7.44086
 21
23.06
  0
LINE
  8
0
 10
-7.44086
 20
23.06
 11
-7.26436
 21
22.1348
  0
LINE
  8
0
 10
-7.26436
 20
22.1348
 11
-6.97331
 21
21.2391
  0
LINE
  8
0
 10
-6.97331
 20
21.2391
 11
-6.5723
 21
20.3869
  0
LINE
  8
0
 10
-6.5723
 20
20.3869
 11
-6.06763
 21
19.5916
  0
LINE
  8
0
 10
-6.06763
 20
19.5916
 11
-5.46725
 21
18.8659
  0
LINE
  8
0
 10
-5.46725
 20
18.8659
 11
-4.78067
 21
18.2212
  0
LINE
  8
0
 10
-4.78067
 20
18.2212
 11
-4.01869
 21
17.6675
  0
LINE
  8
0
 10
-4.01869
 20
17.6675
 11
-3.19334
 21
17.2138
  0
LINE
  8
0
 10
-3.19334
 20
17.2138
 11
-2.31763
 21
16.8671
  0
LINE
  8
0
 10
-2.31763
 20
16.8671
 11
-1.40535
 21
16.6329
  0
LINE
  8
0
 10
-1.40535
 20
16.6329
 11
-0.470917
 21
16.5148
  0
LINE
  8
0
 10
-0.470917
 20
16.5148
 11
0.470917
 21
16.5148
  0
LINE
  8
0
 10
0.470917
 20
16.5148
 11
1.40535
 21
16.6329
  0
LINE
  8
0
 10
1.40535
 20
-7.36714
 11
2.31763
 21
-7.13292
  0
LINE
  8
0
 10
2.31763
 20
-7.13292
 11
3.19334
 21
-6.78619
  0
LINE
  8
0
 10
3.19334
 20
-6.78619
 11
4.01869
 21
-6.33246
  0
LINE
  8
0
 10
4.01869
 20
-6.33246
 11
4.78067
 21
-5.77884
  0
LINE
  8
0
 10
4.78067
 20
-5.77884
 11
5.46725
 21
-5.13409
  0
LINE
  8
0
 10
5.46725
 20
-5.13409
 11
6.06763
 21
-4.40839
  0
LINE
  8
0
 10
6.06763
 20
-4.40839
 11
6.5723
 21
-3.61314
  0
LINE
  8
0
 10
6.5723
 20
-3.61314
 11
6.97331
 21
-2.76093
  0
LINE
  8
0
 10
6.97331
 20
-2.76093
 11
7.26436
 21
-1.86517
  0
LINE
  8
0
 10
7.26436
 20
-1.86517
 11
7.44086
 21
-0.939987
  0
LINE
  8
0
 10
7.44086
 20
-0.939987
 11
7.5
 21
0
  0
LINE
  8
0
 10
7.5
 20
0
 11
7.44086
 21
0.939987
  0
LINE
  8
0
 10
7.44086
 20
0.939987
 11
7.26436
 21
1.86517
  0
LINE
  8
0
 10
7.26436
 20
1.86517
 11
6.97331
 21
2.76093
  0
LINE
  8
0
 10
6.97331
 20
2.76093
 11
6.5723
 21
3.61314
  0
LINE
  8
0
 10
6.5723
 20
3.61314
 11
6.06763
 21
4.40839
  0
LINE
  8
0
 10
6.06763
 20
4.40839
 11
5.46725
 21
5.13409
  0
LINE
  8
0
 10
5.46725
 20
5.13409
 11
4.78067
 21
5.77884
  0
LINE
  8
0
 10
4.78067
 20
5.77884
 11
4.01869
 21
6.33246
  0
LINE
  8
0
 10
4.01869
 20
6.33246
 11
3.19334
 21
6.78619
  0
LINE
  8
0
 10
3.19334
 20
6.78619
 11
2.31763
 21
7.13292
  0
LINE
  8
0
 10
2.31763
 20
7.13292
 11
1.40535
 21
7.36714
  0
LINE
  8
0
 10
1.40535
 20
7.36714
 11
0.470917
 21
7.4852
  0
LINE
  8
0
 10
0.470917
 20
7.4852
 11
-0.470917
 21
7.4852
  0
LINE
  8
0
 10
-0.470917
 20
7.4852
 11
-1.40535
 21
7.36714
  0
LINE
  8
0
 10
-1.40535
 20
7.36714
 11
-2.31763
 21
7.13292
  0
LINE
  8
0
 10
-2.31763
 20
7.13292
 11
-3.19334
 21
6.78619
  0
LINE
  8
0
 10
-3.19334
 20
6.78619
 11
-4.01869
 21
6.33246
  0
LINE
  8
0
 10
-4.01869
 20
6.33246
 11
-4.78067
 21
5.77884
  0
LINE
  8
0
 10
-4.78067
 20
5.77884
 11
-5.46725
 21
5.13409
  0
LINE
  8
0
 10
-5.46725
 20
5.13409
 11
-6.06763
 21
4.40839
  0
LINE
  8
0
 10
-6.06763
 20
4.40839
 11
-6.5723
 21
3.61314
  0
LINE
  8
0
 10
-6.5723
 20
3.61314
 11
-6.97331
 21
2.76093
  0
LINE
  8
0
 10
-6.97331
 20
2.76093
 11
-7.26436
 21
1.86517
  0
LINE
  8
0
 10
-7.26436
 20
1.86517
 11
-7.44086
 21
0.939987
  0
LINE
  8
0
 10
-7.44086
 20
0.939987
 11
-7.5
 21
0
  0
LINE
  8
0
 10
-7.5
 20
0
 11
-7.44086
 21
-0.939987
  0
LINE
  8
0
 10
-7.44086
 20
-0.939987
 11
-7.26436
 21
-1.86517
  0
LINE
  8
0
 10
-7.26436
 20
-1.86517
 11
-6.97331
 21
-2.76093
  0
LINE
  8
0
 10
-6.97331
 20
-2.76093
 11
-6.5723
 21
-3.61314
  0
LINE
  8
0
 10
-6.5723
 20
-3.61314
 11
-6.06763
 21
-4.40839
  0
LINE
  8
0
 10
-6.06763
 20
-4.40839
 11
-5.46725
 21
-5.13409
  0
LINE
  8
0
 10
-5.46725
 20
-5.13409
 11
-4.78067
 21
-5.77884
  0
LINE
  8
0
 10
-4.78067
 20
-5.77884
 11
-4.01869
 21
-6.33246
  0
LINE
  8
0
 10
-4.01869
 20
-6.33246
 11
-3.19334
 21
-6.78619
  0
LINE
  8
0
 10
-3.19334
 20
-6.78619
 11
-2.31763
 21
-7.13292
  0
LINE
  8
0
 10
-2.31763
 20
-7.13292
 11
-1.40535
 21
-7.36714
  0
LINE
  8
0
 10
-1.40535
 20
-7.36714
 11
-0.470917
 21
-7.4852
  0
LINE
  8
0
 10
-0.470917
 20
-7.4852
 11
0.470917
 21
-7.4852
  0
LINE
  8
0
 10
0.470917
 20
-7.4852
 11
1.40535
 21
-7.36714
  0
ENDSEC
  0
SECTION
  2
OBJECTS
  0
DICTIONARY
  0
ENDSEC
  0
EOF
