<?xml version="1.0" standalone="no"?>
<!DOCTYPE svg PUBLIC "-//W3C//DTD SVG 1.1//EN" "http://www.w3.org/Graphics/SVG/1.1/DTD/svg11.dtd">
<svg width="16mm" height="40mm" viewBox="-8 -32 16 40" xmlns="http://www.w3.org/2000/svg" version="1.1">
<title>OpenSCAD Model</title>
<path d="
M 1.40535,-16.6329 L 2.31763,-16.8671 L 3.19334,-17.2138 L 4.01869,-17.6675 L 4.78067,-18.2212 L 5.46725,-18.8659
 L 6.06763,-19.5916 L 6.5723,-20.3869 L 6.97331,-21.2391 L 7.26436,-22.1348 L 7.44086,-23.06 L 7.5,-24
 L 7.44086,-24.94 L 7.26436,-25.8652 L 6.97331,-26.7609 L 6.5723,-27.6131 L 6.06763,-28.4084 L 5.46725,-29.1341
 L 4.78067,-29.7788 L 4.01869,-30.3325 L 3.19334,-30.7862 L 2.31763,-31.1329 L 1.40535,-31.3671 L 0.470917,-31.4852
 L -0.470917,-31.4852 L -1.40535,-31.3671 L -2.31763,-31.1329 L -3.19334,-30.7862 L -4.01869,-30.3325 L -4.78067,-29.7788
 L -5.46725,-29.1341 L -6.06763,-28.4084 L -6.5723,-27.6131 L -6.97331,-26.7609 L -7.26436,-25.8652 L -7.44086,-24.94
 L -7.5,-24 L -7.44086,-23.06 L -7.26436,-22.1348 L -6.97331,-21.2391 L -6.5723,-20.3869 L -6.06763,-19.5916
 L -5.46725,-18.8659 L -4.78067,-18.2212 L -4.01869,-17.6675 L -3.19334,-17.2138 L -2.31763,-16.8671 L -1.40535,-16.6329
 L -0.470917,-16.5148 L 0.470917,-16.5148 z
M -0.288147,-19.4199 L -0.859924,-19.4921 L -1.41814,-19.6354 L -1.95398,-19.8476 L -2.459,-20.1252 L -2.92525,-20.464
 L -3.34537,-20.8585 L -3.71272,-21.3026 L -4.02153,-21.7892 L -4.26691,-22.3106 L -4.44501,-22.8587 L -4.55299,-23.4248
 L -4.58919,-24 L -4.55299,-24.5752 L -4.44501,-25.1413 L -4.26691,-25.6894 L -4.02153,-26.2108 L -3.71272,-26.6974
 L -3.34537,-27.1415 L -2.92525,-27.536 L -2.459,-27.8748 L -1.95398,-28.1524 L -1.41814,-28.3646 L -0.859924,-28.5079
 L -0.288147,-28.5801 L 0.288147,-28.5801 L 0.859924,-28.5079 L 1.41814,-28.3646 L 1.95398,-28.1524 L 2.459,-27.8748
 L 2.92525,-27.536 L 3.34537,-27.1415 L 3.71272,-26.6974 L 4.02153,-26.2108 L 4.26691,-25.6894 L 4.44501,-25.1413
 L 4.55299,-24.5752 L 4.58919,-24 L 4.55299,-23.4248 L 4.44501,-22.8587 L 4.26691,-22.3106 L 4.02153,-21.7892
 L 3.71272,-21.3026 L 3.34537,-20.8585 L 2.92525,-20.464 L 2.459,-20.1252 L 1.95398,-19.8476 L 1.41814,-19.6354
 L 0.859924,-19.4921 L 0.288147,-19.4199 z
M 1.40535,7.36714 L 2.31763,7.13292 L 3.19334,6.78619 L 4.01869,6.33246 L 4.78067,5.77884 L 5.46725,5.13409
 L 6.06763,4.40839 L 6.5723,3.61314 L 6.97331,2.76093 L 7.26436,1.86517 L 7.44086,0.939987 L 7.5,-0
 L 7.44086,-0.939987 L 7.26436,-1.86517 L 6.97331,-2.76093 L 6.5723,-3.61314 L 6.06763,-4.40839 L 5.46725,-5.13409
 L 4.78067,-5.77884 L 4.01869,-6.33246 L 3.19334,-6.78619 L 2.31763,-7.13292 L 1.40535,-7.36714 L 0.470917,-7.4852
 L -0.470917,-7.4852 L -1.40535,-7.36714 L -2.31763,-7.13292 L -3.19334,-6.78619 L -4.01869,-6.33246 L -4.78067,-5.77884
 L -5.46725,-5.13409 L -6.06763,-4.40839 L -6.5723,-3.61314 L -6.97331,-2.76093 L -7.26436,-1.86517 L -7.44086,-0.939987
 L -7.5,-0 L -7.44086,0.939987 L -7.26436,1.86517 L -6.97331,2.76093 L -6.5723,3.61314 L -6.06763,4.40839
 L -5.46725,5.13409 L -4.78067,5.77884 L -4.01869,6.33246 L -3.19334,6.78619 L -2.31763,7.13292 L -1.40535,7.36714
 L -0.470917,7.4852 L 0.470917,7.4852 z
M -0.180511,2.86932 L -0.538712,2.82407 L -0.888412,2.73428 L -1.22411,2.60136 L -1.5405,2.42743 L -1.83258,2.21523
 L -2.09578,1.96806 L -2.32591,1.68988 L -2.51938,1.38504 L -2.6731,1.05835 L -2.78467,0.714981 L -2.85233,0.360321
 L -2.875,-0 L -2.85233,-0.360321 L -2.78467,-0.714981 L -2.6731,-1.05835 L -2.51938,-1.38504 L -2.32591,-1.68988
 L -2.09578,-1.96806 L -1.83258,-2.21523 L -1.5405,-2.42743 L -1.22411,-2.60136 L -0.888412,-2.73428 L -0.538712,-2.82407
 L -0.180511,-2.86932 L 0.180511,-2.86932 L 0.538712,-2.82407 L 0.888412,-2.73428 L 1.22411,-2.60136 L 1.5405,-2.42743
 L 1.83258,-2.21523 L 2.09578,-1.96806 L 2.32591,-1.68988 L 2.51938,-1.38504 L 2.6731,-1.05835 L 2.78467,-0.714981
 L 2.85233,-0.360321 L 2.875,-0 L 2.85233,0.360321 L 2.78467,0.714981 L 2.6731,1.05835 L 2.51938,1.38504
 L 2.32591,1.68988 L 2.09578,1.96806 L 1.83258,2.21523 L 1.5405,2.42743 L 1.22411,2.60136 L 0.888412,2.73428
 L 0.538712,2.82407 L 0.180511,2.86932 z
" stroke="black" fill="lightgray" stroke-width="0.5"/>
</svg>
