  0
SECTION
  2
BLOCKS
  0
ENDSEC
  0
SECTION
  2
ENTITIES
  0
LINE
  8
0
 10
1.40535
 20
16.6329
 11
2.31763
 21
16.8671
  0
LINE
  8
0
 10
2.31763
 20
16.8671
 11
3.19334
 21
17.2138
  0
LINE
  8
0
 10
3.19334
 20
17.2138
 11
4.01869
 21
17.6675
  0
LINE
  8
0
 10
4.01869
 20
17.6675
 11
4.78067
 21
18.2212
  0
LINE
  8
0
 10
4.78067
 20
18.2212
 11
5.46725
 21
18.8659
  0
LINE
  8
0
 10
5.46725
 20
18.8659
 11
6.06763
 21
19.5916
  0
LINE
  8
0
 10
6.06763
 20
19.5916
 11
6.5723
 21
20.3869
  0
LINE
  8
0
 10
6.5723
 20
20.3869
 11
6.97331
 21
21.2391
  0
LINE
  8
0
 10
6.97331
 20
21.2391
 11
7.26436
 21
22.1348
  0
LINE
  8
0
 10
7.26436
 20
22.1348
 11
7.44086
 21
23.06
  0
LINE
  8
0
 10
7.44086
 20
23.06
 11
7.5
 21
24
  0
LINE
  8
0
 10
7.5
 20
24
 11
7.44086
 21
24.94
  0
LINE
  8
0
 10
7.44086
 20
24.94
 11
7.26436
 21
25.8652
  0
LINE
  8
0
 10
7.26436
 20
25.8652
 11
6.97331
 21
26.7609
  0
LINE
  8
0
 10
6.97331
 20
26.7609
 11
6.5723
 21
27.6131
  0
LINE
  8
0
 10
6.5723
 20
27.6131
 11
6.06763
 21
28.4084
  0
LINE
  8
0
 10
6.06763
 20
28.4084
 11
5.46725
 21
29.1341
  0
LINE
  8
0
 10
5.46725
 20
29.1341
 11
4.78067
 21
29.7788
  0
LINE
  8
0
 10
4.78067
 20
29.7788
 11
4.01869
 21
30.3325
  0
LINE
  8
0
 10
4.01869
 20
30.3325
 11
3.19334
 21
30.7862
  0
LINE
  8
0
 10
3.19334
 20
30.7862
 11
2.31763
 21
31.1329
  0
LINE
  8
0
 10
2.31763
 20
31.1329
 11
1.40535
 21
31.3671
  0
LINE
  8
0
 10
1.40535
 20
31.3671
 11
0.470917
 21
31.4852
  0
LINE
  8
0
 10
0.470917
 20
31.4852
 11
-0.470917
 21
31.4852
  0
LINE
  8
0
 10
-0.470917
 20
31.4852
 11
-1.40535
 21
31.3671
  0
LINE
  8
0
 10
-1.40535
 20
31.3671
 11
-2.31763
 21
31.1329
  0
LINE
  8
0
 10
-2.31763
 20
31.1329
 11
-3.19334
 21
30.7862
  0
LINE
  8
0
 10
-3.19334
 20
30.7862
 11
-4.01869
 21
30.3325
  0
LINE
  8
0
 10
-4.01869
 20
30.3325
 11
-4.78067
 21
29.7788
  0
LINE
  8
0
 10
-4.78067
 20
29.7788
 11
-5.46725
 21
29.1341
  0
LINE
  8
0
 10
-5.46725
 20
29.1341
 11
-6.06763
 21
28.4084
  0
LINE
  8
0
 10
-6.06763
 20
28.4084
 11
-6.5723
 21
27.6131
  0
LINE
  8
0
 10
-6.5723
 20
27.6131
 11
-6.97331
 21
26.7609
  0
LINE
  8
0
 10
-6.97331
 20
26.7609
 11
-7.26436
 21
25.8652
  0
LINE
  8
0
 10
-7.26436
 20
25.8652
 11
-7.44086
 21
24.94
  0
LINE
  8
0
 10
-7.44086
 20
24.94
 11
-7.5
 21
24
  0
LINE
  8
0
 10
-7.5
 20
24
 11
-7.44086
 21
23.06
  0
LINE
  8
0
 10
-7.44086
 20
23.06
 11
-7.26436
 21
22.1348
  0
LINE
  8
0
 10
-7.26436
 20
22.1348
 11
-6.97331
 21
21.2391
  0
LINE
  8
0
 10
-6.97331
 20
21.2391
 11
-6.5723
 21
20.3869
  0
LINE
  8
0
 10
-6.5723
 20
20.3869
 11
-6.06763
 21
19.5916
  0
LINE
  8
0
 10
-6.06763
 20
19.5916
 11
-5.46725
 21
18.8659
  0
LINE
  8
0
 10
-5.46725
 20
18.8659
 11
-4.78067
 21
18.2212
  0
LINE
  8
0
 10
-4.78067
 20
18.2212
 11
-4.01869
 21
17.6675
  0
LINE
  8
0
 10
-4.01869
 20
17.6675
 11
-3.19334
 21
17.2138
  0
LINE
  8
0
 10
-3.19334
 20
17.2138
 11
-2.31763
 21
16.8671
  0
LINE
  8
0
 10
-2.31763
 20
16.8671
 11
-1.40535
 21
16.6329
  0
LINE
  8
0
 10
-1.40535
 20
16.6329
 11
-0.470917
 21
16.5148
  0
LINE
  8
0
 10
-0.470917
 20
16.5148
 11
0.470917
 21
16.5148
  0
LINE
  8
0
 10
0.470917
 20
16.5148
 11
1.40535
 21
16.6329
  0
LINE
  8
0
 10
-0.283066
 20
19.5008
 11
-0.844727
 21
19.5717
  0
LINE
  8
0
 10
-0.844727
 20
19.5717
 11
-1.39308
 21
19.7125
  0
LINE
  8
0
 10
-1.39308
 20
19.7125
 11
-1.91945
 21
19.9209
  0
LINE
  8
0
 10
-1.91945
 20
19.9209
 11
-2.41556
 21
20.1937
  0
LINE
  8
0
 10
-2.41556
 20
20.1937
 11
-2.87357
 21
20.5264
  0
LINE
  8
0
 10
-2.87357
 20
20.5264
 11
-3.28625
 21
20.914
  0
LINE
  8
0
 10
-3.28625
 20
20.914
 11
-3.64713
 21
21.3502
  0
LINE
  8
0
 10
-3.64713
 20
21.3502
 11
-3.95047
 21
21.8282
  0
LINE
  8
0
 10
-3.95047
 20
21.8282
 11
-4.19153
 21
22.3405
  0
LINE
  8
0
 10
-4.19153
 20
22.3405
 11
-4.36647
 21
22.8789
  0
LINE
  8
0
 10
-4.36647
 20
22.8789
 11
-4.47255
 21
23.435
  0
LINE
  8
0
 10
-4.47255
 20
23.435
 11
-4.5081
 21
24
  0
LINE
  8
0
 10
-4.5081
 20
24
 11
-4.47255
 21
24.565
  0
LINE
  8
0
 10
-4.47255
 20
24.565
 11
-4.36647
 21
25.1211
  0
LINE
  8
0
 10
-4.36647
 20
25.1211
 11
-4.19153
 21
25.6595
  0
LINE
  8
0
 10
-4.19153
 20
25.6595
 11
-3.95047
 21
26.1718
  0
LINE
  8
0
 10
-3.95047
 20
26.1718
 11
-3.64713
 21
26.6498
  0
LINE
  8
0
 10
-3.64713
 20
26.6498
 11
-3.28625
 21
27.086
  0
LINE
  8
0
 10
-3.28625
 20
27.086
 11
-2.87357
 21
27.4736
  0
LINE
  8
0
 10
-2.87357
 20
27.4736
 11
-2.41556
 21
27.8063
  0
LINE
  8
0
 10
-2.41556
 20
27.8063
 11
-1.91945
 21
28.0791
  0
LINE
  8
0
 10
-1.91945
 20
28.0791
 11
-1.39308
 21
28.2875
  0
LINE
  8
0
 10
-1.39308
 20
28.2875
 11
-0.844727
 21
28.4283
  0
LINE
  8
0
 10
-0.844727
 20
28.4283
 11
-0.283066
 21
28.4992
  0
LINE
  8
0
 10
-0.283066
 20
28.4992
 11
0.283066
 21
28.4992
  0
LINE
  8
0
 10
0.283066
 20
28.4992
 11
0.844727
 21
28.4283
  0
LINE
  8
0
 10
0.844727
 20
28.4283
 11
1.39308
 21
28.2875
  0
LINE
  8
0
 10
1.39308
 20
28.2875
 11
1.91945
 21
28.0791
  0
LINE
  8
0
 10
1.91945
 20
28.0791
 11
2.41556
 21
27.8063
  0
LINE
  8
0
 10
2.41556
 20
27.8063
 11
2.87357
 21
27.4736
  0
LINE
  8
0
 10
2.87357
 20
27.4736
 11
3.28625
 21
27.086
  0
LINE
  8
0
 10
3.28625
 20
27.086
 11
3.64713
 21
26.6498
  0
LINE
  8
0
 10
3.64713
 20
26.6498
 11
3.95047
 21
26.1718
  0
LINE
  8
0
 10
3.95047
 20
26.1718
 11
4.19153
 21
25.6595
  0
LINE
  8
0
 10
4.19153
 20
25.6595
 11
4.36647
 21
25.1211
  0
LINE
  8
0
 10
4.36647
 20
25.1211
 11
4.47255
 21
24.565
  0
LINE
  8
0
 10
4.47255
 20
24.565
 11
4.5081
 21
24
  0
LINE
  8
0
 10
4.5081
 20
24
 11
4.47255
 21
23.435
  0
LINE
  8
0
 10
4.47255
 20
23.435
 11
4.36647
 21
22.8789
  0
LINE
  8
0
 10
4.36647
 20
22.8789
 11
4.19153
 21
22.3405
  0
LINE
  8
0
 10
4.19153
 20
22.3405
 11
3.95047
 21
21.8282
  0
LINE
  8
0
 10
3.95047
 20
21.8282
 11
3.64713
 21
21.3502
  0
LINE
  8
0
 10
3.64713
 20
21.3502
 11
3.28625
 21
20.914
  0
LINE
  8
0
 10
3.28625
 20
20.914
 11
2.87357
 21
20.5264
  0
LINE
  8
0
 10
2.87357
 20
20.5264
 11
2.41556
 21
20.1937
  0
LINE
  8
0
 10
2.41556
 20
20.1937
 11
1.91945
 21
19.9209
  0
LINE
  8
0
 10
1.91945
 20
19.9209
 11
1.39308
 21
19.7125
  0
LINE
  8
0
 10
1.39308
 20
19.7125
 11
0.844727
 21
19.5717
  0
LINE
  8
0
 10
0.844727
 20
19.5717
 11
0.283066
 21
19.5008
  0
LINE
  8
0
 10
0.283066
 20
19.5008
 11
-0.283066
 21
19.5008
  0
LINE
  8
0
 10
1.40535
 20
-7.36714
 11
2.31763
 21
-7.13292
  0
LINE
  8
0
 10
2.31763
 20
-7.13292
 11
3.19334
 21
-6.78619
  0
LINE
  8
0
 10
3.19334
 20
-6.78619
 11
4.01869
 21
-6.33246
  0
LINE
  8
0
 10
4.01869
 20
-6.33246
 11
4.78067
 21
-5.77884
  0
LINE
  8
0
 10
4.78067
 20
-5.77884
 11
5.46725
 21
-5.13409
  0
LINE
  8
0
 10
5.46725
 20
-5.13409
 11
6.06763
 21
-4.40839
  0
LINE
  8
0
 10
6.06763
 20
-4.40839
 11
6.5723
 21
-3.61314
  0
LINE
  8
0
 10
6.5723
 20
-3.61314
 11
6.97331
 21
-2.76093
  0
LINE
  8
0
 10
6.97331
 20
-2.76093
 11
7.26436
 21
-1.86517
  0
LINE
  8
0
 10
7.26436
 20
-1.86517
 11
7.44086
 21
-0.939987
  0
LINE
  8
0
 10
7.44086
 20
-0.939987
 11
7.5
 21
0
  0
LINE
  8
0
 10
7.5
 20
0
 11
7.44086
 21
0.939987
  0
LINE
  8
0
 10
7.44086
 20
0.939987
 11
7.26436
 21
1.86517
  0
LINE
  8
0
 10
7.26436
 20
1.86517
 11
6.97331
 21
2.76093
  0
LINE
  8
0
 10
6.97331
 20
2.76093
 11
6.5723
 21
3.61314
  0
LINE
  8
0
 10
6.5723
 20
3.61314
 11
6.06763
 21
4.40839
  0
LINE
  8
0
 10
6.06763
 20
4.40839
 11
5.46725
 21
5.13409
  0
LINE
  8
0
 10
5.46725
 20
5.13409
 11
4.78067
 21
5.77884
  0
LINE
  8
0
 10
4.78067
 20
5.77884
 11
4.01869
 21
6.33246
  0
LINE
  8
0
 10
4.01869
 20
6.33246
 11
3.19334
 21
6.78619
  0
LINE
  8
0
 10
3.19334
 20
6.78619
 11
2.31763
 21
7.13292
  0
LINE
  8
0
 10
2.31763
 20
7.13292
 11
1.40535
 21
7.36714
  0
LINE
  8
0
 10
1.40535
 20
7.36714
 11
0.470917
 21
7.4852
  0
LINE
  8
0
 10
0.470917
 20
7.4852
 11
-0.470917
 21
7.4852
  0
LINE
  8
0
 10
-0.470917
 20
7.4852
 11
-1.40535
 21
7.36714
  0
LINE
  8
0
 10
-1.40535
 20
7.36714
 11
-2.31763
 21
7.13292
  0
LINE
  8
0
 10
-2.31763
 20
7.13292
 11
-3.19334
 21
6.78619
  0
LINE
  8
0
 10
-3.19334
 20
6.78619
 11
-4.01869
 21
6.33246
  0
LINE
  8
0
 10
-4.01869
 20
6.33246
 11
-4.78067
 21
5.77884
  0
LINE
  8
0
 10
-4.78067
 20
5.77884
 11
-5.46725
 21
5.13409
  0
LINE
  8
0
 10
-5.46725
 20
5.13409
 11
-6.06763
 21
4.40839
  0
LINE
  8
0
 10
-6.06763
 20
4.40839
 11
-6.5723
 21
3.61314
  0
LINE
  8
0
 10
-6.5723
 20
3.61314
 11
-6.97331
 21
2.76093
  0
LINE
  8
0
 10
-6.97331
 20
2.76093
 11
-7.26436
 21
1.86517
  0
LINE
  8
0
 10
-7.26436
 20
1.86517
 11
-7.44086
 21
0.939987
  0
LINE
  8
0
 10
-7.44086
 20
0.939987
 11
-7.5
 21
0
  0
LINE
  8
0
 10
-7.5
 20
0
 11
-7.44086
 21
-0.939987
  0
LINE
  8
0
 10
-7.44086
 20
-0.939987
 11
-7.26436
 21
-1.86517
  0
LINE
  8
0
 10
-7.26436
 20
-1.86517
 11
-6.97331
 21
-2.76093
  0
LINE
  8
0
 10
-6.97331
 20
-2.76093
 11
-6.5723
 21
-3.61314
  0
LINE
  8
0
 10
-6.5723
 20
-3.61314
 11
-6.06763
 21
-4.40839
  0
LINE
  8
0
 10
-6.06763
 20
-4.40839
 11
-5.46725
 21
-5.13409
  0
LINE
  8
0
 10
-5.46725
 20
-5.13409
 11
-4.78067
 21
-5.77884
  0
LINE
  8
0
 10
-4.78067
 20
-5.77884
 11
-4.01869
 21
-6.33246
  0
LINE
  8
0
 10
-4.01869
 20
-6.33246
 11
-3.19334
 21
-6.78619
  0
LINE
  8
0
 10
-3.19334
 20
-6.78619
 11
-2.31763
 21
-7.13292
  0
LINE
  8
0
 10
-2.31763
 20
-7.13292
 11
-1.40535
 21
-7.36714
  0
LINE
  8
0
 10
-1.40535
 20
-7.36714
 11
-0.470917
 21
-7.4852
  0
LINE
  8
0
 10
-0.470917
 20
-7.4852
 11
0.470917
 21
-7.4852
  0
LINE
  8
0
 10
0.470917
 20
-7.4852
 11
1.40535
 21
-7.36714
  0
LINE
  8
0
 10
-0.141266
 20
-2.24556
 11
-0.4216
 21
-2.21014
  0
LINE
  8
0
 10
-0.4216
 20
-2.21014
 11
-0.695282
 21
-2.13986
  0
LINE
  8
0
 10
-0.695282
 20
-2.13986
 11
-0.957993
 21
-2.03586
  0
LINE
  8
0
 10
-0.957993
 20
-2.03586
 11
-1.2056
 21
-1.89973
  0
LINE
  8
0
 10
-1.2056
 20
-1.89973
 11
-1.43419
 21
-1.73364
  0
LINE
  8
0
 10
-1.43419
 20
-1.73364
 11
-1.64017
 21
-1.54022
  0
LINE
  8
0
 10
-1.64017
 20
-1.54022
 11
-1.82028
 21
-1.32251
  0
LINE
  8
0
 10
-1.82028
 20
-1.32251
 11
-1.97168
 21
-1.08394
  0
LINE
  8
0
 10
-1.97168
 20
-1.08394
 11
-2.092
 21
-0.828278
  0
LINE
  8
0
 10
-2.092
 20
-0.828278
 11
-2.17931
 21
-0.55954
  0
LINE
  8
0
 10
-2.17931
 20
-0.55954
 11
-2.23225
 21
-0.281998
  0
LINE
  8
0
 10
-2.23225
 20
-0.281998
 11
-2.25
 21
0
  0
LINE
  8
0
 10
-2.25
 20
0
 11
-2.23225
 21
0.281998
  0
LINE
  8
0
 10
-2.23225
 20
0.281998
 11
-2.17931
 21
0.55954
  0
LINE
  8
0
 10
-2.17931
 20
0.55954
 11
-2.092
 21
0.828278
  0
LINE
  8
0
 10
-2.092
 20
0.828278
 11
-1.97168
 21
1.08394
  0
LINE
  8
0
 10
-1.97168
 20
1.08394
 11
-1.82028
 21
1.32251
  0
LINE
  8
0
 10
-1.82028
 20
1.32251
 11
-1.64017
 21
1.54022
  0
LINE
  8
0
 10
-1.64017
 20
1.54022
 11
-1.43419
 21
1.73364
  0
LINE
  8
0
 10
-1.43419
 20
1.73364
 11
-1.2056
 21
1.89973
  0
LINE
  8
0
 10
-1.2056
 20
1.89973
 11
-0.957993
 21
2.03586
  0
LINE
  8
0
 10
-0.957993
 20
2.03586
 11
-0.695282
 21
2.13986
  0
LINE
  8
0
 10
-0.695282
 20
2.13986
 11
-0.4216
 21
2.21014
  0
LINE
  8
0
 10
-0.4216
 20
2.21014
 11
-0.141266
 21
2.24556
  0
LINE
  8
0
 10
-0.141266
 20
2.24556
 11
0.141266
 21
2.24556
  0
LINE
  8
0
 10
0.141266
 20
2.24556
 11
0.4216
 21
2.21014
  0
LINE
  8
0
 10
0.4216
 20
2.21014
 11
0.695282
 21
2.13986
  0
LINE
  8
0
 10
0.695282
 20
2.13986
 11
0.957993
 21
2.03586
  0
LINE
  8
0
 10
0.957993
 20
2.03586
 11
1.2056
 21
1.89973
  0
LINE
  8
0
 10
1.2056
 20
1.89973
 11
1.43419
 21
1.73364
  0
LINE
  8
0
 10
1.43419
 20
1.73364
 11
1.64017
 21
1.54022
  0
LINE
  8
0
 10
1.64017
 20
1.54022
 11
1.82028
 21
1.32251
  0
LINE
  8
0
 10
1.82028
 20
1.32251
 11
1.97168
 21
1.08394
  0
LINE
  8
0
 10
1.97168
 20
1.08394
 11
2.092
 21
0.828278
  0
LINE
  8
0
 10
2.092
 20
0.828278
 11
2.17931
 21
0.55954
  0
LINE
  8
0
 10
2.17931
 20
0.55954
 11
2.23225
 21
0.281998
  0
LINE
  8
0
 10
2.23225
 20
0.281998
 11
2.25
 21
0
  0
LINE
  8
0
 10
2.25
 20
0
 11
2.23225
 21
-0.281998
  0
LINE
  8
0
 10
2.23225
 20
-0.281998
 11
2.17931
 21
-0.55954
  0
LINE
  8
0
 10
2.17931
 20
-0.55954
 11
2.092
 21
-0.828278
  0
LINE
  8
0
 10
2.092
 20
-0.828278
 11
1.97168
 21
-1.08394
  0
LINE
  8
0
 10
1.97168
 20
-1.08394
 11
1.82028
 21
-1.32251
  0
LINE
  8
0
 10
1.82028
 20
-1.32251
 11
1.64017
 21
-1.54022
  0
LINE
  8
0
 10
1.64017
 20
-1.54022
 11
1.43419
 21
-1.73364
  0
LINE
  8
0
 10
1.43419
 20
-1.73364
 11
1.2056
 21
-1.89973
  0
LINE
  8
0
 10
1.2056
 20
-1.89973
 11
0.957993
 21
-2.03586
  0
LINE
  8
0
 10
0.957993
 20
-2.03586
 11
0.695282
 21
-2.13986
  0
LINE
  8
0
 10
0.695282
 20
-2.13986
 11
0.4216
 21
-2.21014
  0
LINE
  8
0
 10
0.4216
 20
-2.21014
 11
0.141266
 21
-2.24556
  0
LINE
  8
0
 10
0.141266
 20
-2.24556
 11
-0.141266
 21
-2.24556
  0
ENDSEC
  0
SECTION
  2
OBJECTS
  0
DICTIONARY
  0
ENDSEC
  0
EOF
