  0
SECTION
  2
BLOCKS
  0
ENDSEC
  0
SECTION
  2
ENTITIES
  0
LINE
  8
0
 10
1.40535
 20
16.6329
 11
2.31763
 21
16.8671
  0
LINE
  8
0
 10
2.31763
 20
16.8671
 11
3.19334
 21
17.2138
  0
LINE
  8
0
 10
3.19334
 20
17.2138
 11
4.01869
 21
17.6675
  0
LINE
  8
0
 10
4.01869
 20
17.6675
 11
4.78067
 21
18.2212
  0
LINE
  8
0
 10
4.78067
 20
18.2212
 11
5.46725
 21
18.8659
  0
LINE
  8
0
 10
5.46725
 20
18.8659
 11
6.06763
 21
19.5916
  0
LINE
  8
0
 10
6.06763
 20
19.5916
 11
6.5723
 21
20.3869
  0
LINE
  8
0
 10
6.5723
 20
20.3869
 11
6.97331
 21
21.2391
  0
LINE
  8
0
 10
6.97331
 20
21.2391
 11
7.26436
 21
22.1348
  0
LINE
  8
0
 10
7.26436
 20
22.1348
 11
7.44086
 21
23.06
  0
LINE
  8
0
 10
7.44086
 20
23.06
 11
7.5
 21
24
  0
LINE
  8
0
 10
7.5
 20
24
 11
7.44086
 21
24.94
  0
LINE
  8
0
 10
7.44086
 20
24.94
 11
7.26436
 21
25.8652
  0
LINE
  8
0
 10
7.26436
 20
25.8652
 11
6.97331
 21
26.7609
  0
LINE
  8
0
 10
6.97331
 20
26.7609
 11
6.5723
 21
27.6131
  0
LINE
  8
0
 10
6.5723
 20
27.6131
 11
6.06763
 21
28.4084
  0
LINE
  8
0
 10
6.06763
 20
28.4084
 11
5.46725
 21
29.1341
  0
LINE
  8
0
 10
5.46725
 20
29.1341
 11
4.78067
 21
29.7788
  0
LINE
  8
0
 10
4.78067
 20
29.7788
 11
4.01869
 21
30.3325
  0
LINE
  8
0
 10
4.01869
 20
30.3325
 11
3.19334
 21
30.7862
  0
LINE
  8
0
 10
3.19334
 20
30.7862
 11
2.31763
 21
31.1329
  0
LINE
  8
0
 10
2.31763
 20
31.1329
 11
1.40535
 21
31.3671
  0
LINE
  8
0
 10
1.40535
 20
31.3671
 11
0.470917
 21
31.4852
  0
LINE
  8
0
 10
0.470917
 20
31.4852
 11
-0.470917
 21
31.4852
  0
LINE
  8
0
 10
-0.470917
 20
31.4852
 11
-1.40535
 21
31.3671
  0
LINE
  8
0
 10
-1.40535
 20
31.3671
 11
-2.31763
 21
31.1329
  0
LINE
  8
0
 10
-2.31763
 20
31.1329
 11
-3.19334
 21
30.7862
  0
LINE
  8
0
 10
-3.19334
 20
30.7862
 11
-4.01869
 21
30.3325
  0
LINE
  8
0
 10
-4.01869
 20
30.3325
 11
-4.78067
 21
29.7788
  0
LINE
  8
0
 10
-4.78067
 20
29.7788
 11
-5.46725
 21
29.1341
  0
LINE
  8
0
 10
-5.46725
 20
29.1341
 11
-6.06763
 21
28.4084
  0
LINE
  8
0
 10
-6.06763
 20
28.4084
 11
-6.5723
 21
27.6131
  0
LINE
  8
0
 10
-6.5723
 20
27.6131
 11
-6.97331
 21
26.7609
  0
LINE
  8
0
 10
-6.97331
 20
26.7609
 11
-7.26436
 21
25.8652
  0
LINE
  8
0
 10
-7.26436
 20
25.8652
 11
-7.44086
 21
24.94
  0
LINE
  8
0
 10
-7.44086
 20
24.94
 11
-7.5
 21
24
  0
LINE
  8
0
 10
-7.5
 20
24
 11
-7.44086
 21
23.06
  0
LINE
  8
0
 10
-7.44086
 20
23.06
 11
-7.26436
 21
22.1348
  0
LINE
  8
0
 10
-7.26436
 20
22.1348
 11
-6.97331
 21
21.2391
  0
LINE
  8
0
 10
-6.97331
 20
21.2391
 11
-6.5723
 21
20.3869
  0
LINE
  8
0
 10
-6.5723
 20
20.3869
 11
-6.06763
 21
19.5916
  0
LINE
  8
0
 10
-6.06763
 20
19.5916
 11
-5.46725
 21
18.8659
  0
LINE
  8
0
 10
-5.46725
 20
18.8659
 11
-4.78067
 21
18.2212
  0
LINE
  8
0
 10
-4.78067
 20
18.2212
 11
-4.01869
 21
17.6675
  0
LINE
  8
0
 10
-4.01869
 20
17.6675
 11
-3.19334
 21
17.2138
  0
LINE
  8
0
 10
-3.19334
 20
17.2138
 11
-2.31763
 21
16.8671
  0
LINE
  8
0
 10
-2.31763
 20
16.8671
 11
-1.40535
 21
16.6329
  0
LINE
  8
0
 10
-1.40535
 20
16.6329
 11
-0.470917
 21
16.5148
  0
LINE
  8
0
 10
-0.470917
 20
16.5148
 11
0.470917
 21
16.5148
  0
LINE
  8
0
 10
0.470917
 20
16.5148
 11
1.40535
 21
16.6329
  0
LINE
  8
0
 10
-0.288147
 20
19.4199
 11
-0.859924
 21
19.4921
  0
LINE
  8
0
 10
-0.859924
 20
19.4921
 11
-1.41814
 21
19.6354
  0
LINE
  8
0
 10
-1.41814
 20
19.6354
 11
-1.95398
 21
19.8476
  0
LINE
  8
0
 10
-1.95398
 20
19.8476
 11
-2.459
 21
20.1252
  0
LINE
  8
0
 10
-2.459
 20
20.1252
 11
-2.92525
 21
20.464
  0
LINE
  8
0
 10
-2.92525
 20
20.464
 11
-3.34537
 21
20.8585
  0
LINE
  8
0
 10
-3.34537
 20
20.8585
 11
-3.71272
 21
21.3026
  0
LINE
  8
0
 10
-3.71272
 20
21.3026
 11
-4.02153
 21
21.7892
  0
LINE
  8
0
 10
-4.02153
 20
21.7892
 11
-4.26691
 21
22.3106
  0
LINE
  8
0
 10
-4.26691
 20
22.3106
 11
-4.44501
 21
22.8587
  0
LINE
  8
0
 10
-4.44501
 20
22.8587
 11
-4.55299
 21
23.4248
  0
LINE
  8
0
 10
-4.55299
 20
23.4248
 11
-4.58919
 21
24
  0
LINE
  8
0
 10
-4.58919
 20
24
 11
-4.55299
 21
24.5752
  0
LINE
  8
0
 10
-4.55299
 20
24.5752
 11
-4.44501
 21
25.1413
  0
LINE
  8
0
 10
-4.44501
 20
25.1413
 11
-4.26691
 21
25.6894
  0
LINE
  8
0
 10
-4.26691
 20
25.6894
 11
-4.02153
 21
26.2108
  0
LINE
  8
0
 10
-4.02153
 20
26.2108
 11
-3.71272
 21
26.6974
  0
LINE
  8
0
 10
-3.71272
 20
26.6974
 11
-3.34537
 21
27.1415
  0
LINE
  8
0
 10
-3.34537
 20
27.1415
 11
-2.92525
 21
27.536
  0
LINE
  8
0
 10
-2.92525
 20
27.536
 11
-2.459
 21
27.8748
  0
LINE
  8
0
 10
-2.459
 20
27.8748
 11
-1.95398
 21
28.1524
  0
LINE
  8
0
 10
-1.95398
 20
28.1524
 11
-1.41814
 21
28.3646
  0
LINE
  8
0
 10
-1.41814
 20
28.3646
 11
-0.859924
 21
28.5079
  0
LINE
  8
0
 10
-0.859924
 20
28.5079
 11
-0.288147
 21
28.5801
  0
LINE
  8
0
 10
-0.288147
 20
28.5801
 11
0.288147
 21
28.5801
  0
LINE
  8
0
 10
0.288147
 20
28.5801
 11
0.859924
 21
28.5079
  0
LINE
  8
0
 10
0.859924
 20
28.5079
 11
1.41814
 21
28.3646
  0
LINE
  8
0
 10
1.41814
 20
28.3646
 11
1.95398
 21
28.1524
  0
LINE
  8
0
 10
1.95398
 20
28.1524
 11
2.459
 21
27.8748
  0
LINE
  8
0
 10
2.459
 20
27.8748
 11
2.92525
 21
27.536
  0
LINE
  8
0
 10
2.92525
 20
27.536
 11
3.34537
 21
27.1415
  0
LINE
  8
0
 10
3.34537
 20
27.1415
 11
3.71272
 21
26.6974
  0
LINE
  8
0
 10
3.71272
 20
26.6974
 11
4.02153
 21
26.2108
  0
LINE
  8
0
 10
4.02153
 20
26.2108
 11
4.26691
 21
25.6894
  0
LINE
  8
0
 10
4.26691
 20
25.6894
 11
4.44501
 21
25.1413
  0
LINE
  8
0
 10
4.44501
 20
25.1413
 11
4.55299
 21
24.5752
  0
LINE
  8
0
 10
4.55299
 20
24.5752
 11
4.58919
 21
24
  0
LINE
  8
0
 10
4.58919
 20
24
 11
4.55299
 21
23.4248
  0
LINE
  8
0
 10
4.55299
 20
23.4248
 11
4.44501
 21
22.8587
  0
LINE
  8
0
 10
4.44501
 20
22.8587
 11
4.26691
 21
22.3106
  0
LINE
  8
0
 10
4.26691
 20
22.3106
 11
4.02153
 21
21.7892
  0
LINE
  8
0
 10
4.02153
 20
21.7892
 11
3.71272
 21
21.3026
  0
LINE
  8
0
 10
3.71272
 20
21.3026
 11
3.34537
 21
20.8585
  0
LINE
  8
0
 10
3.34537
 20
20.8585
 11
2.92525
 21
20.464
  0
LINE
  8
0
 10
2.92525
 20
20.464
 11
2.459
 21
20.1252
  0
LINE
  8
0
 10
2.459
 20
20.1252
 11
1.95398
 21
19.8476
  0
LINE
  8
0
 10
1.95398
 20
19.8476
 11
1.41814
 21
19.6354
  0
LINE
  8
0
 10
1.41814
 20
19.6354
 11
0.859924
 21
19.4921
  0
LINE
  8
0
 10
0.859924
 20
19.4921
 11
0.288147
 21
19.4199
  0
LINE
  8
0
 10
0.288147
 20
19.4199
 11
-0.288147
 21
19.4199
  0
LINE
  8
0
 10
1.40535
 20
-7.36714
 11
2.31763
 21
-7.13292
  0
LINE
  8
0
 10
2.31763
 20
-7.13292
 11
3.19334
 21
-6.78619
  0
LINE
  8
0
 10
3.19334
 20
-6.78619
 11
4.01869
 21
-6.33246
  0
LINE
  8
0
 10
4.01869
 20
-6.33246
 11
4.78067
 21
-5.77884
  0
LINE
  8
0
 10
4.78067
 20
-5.77884
 11
5.46725
 21
-5.13409
  0
LINE
  8
0
 10
5.46725
 20
-5.13409
 11
6.06763
 21
-4.40839
  0
LINE
  8
0
 10
6.06763
 20
-4.40839
 11
6.5723
 21
-3.61314
  0
LINE
  8
0
 10
6.5723
 20
-3.61314
 11
6.97331
 21
-2.76093
  0
LINE
  8
0
 10
6.97331
 20
-2.76093
 11
7.26436
 21
-1.86517
  0
LINE
  8
0
 10
7.26436
 20
-1.86517
 11
7.44086
 21
-0.939987
  0
LINE
  8
0
 10
7.44086
 20
-0.939987
 11
7.5
 21
0
  0
LINE
  8
0
 10
7.5
 20
0
 11
7.44086
 21
0.939987
  0
LINE
  8
0
 10
7.44086
 20
0.939987
 11
7.26436
 21
1.86517
  0
LINE
  8
0
 10
7.26436
 20
1.86517
 11
6.97331
 21
2.76093
  0
LINE
  8
0
 10
6.97331
 20
2.76093
 11
6.5723
 21
3.61314
  0
LINE
  8
0
 10
6.5723
 20
3.61314
 11
6.06763
 21
4.40839
  0
LINE
  8
0
 10
6.06763
 20
4.40839
 11
5.46725
 21
5.13409
  0
LINE
  8
0
 10
5.46725
 20
5.13409
 11
4.78067
 21
5.77884
  0
LINE
  8
0
 10
4.78067
 20
5.77884
 11
4.01869
 21
6.33246
  0
LINE
  8
0
 10
4.01869
 20
6.33246
 11
3.19334
 21
6.78619
  0
LINE
  8
0
 10
3.19334
 20
6.78619
 11
2.31763
 21
7.13292
  0
LINE
  8
0
 10
2.31763
 20
7.13292
 11
1.40535
 21
7.36714
  0
LINE
  8
0
 10
1.40535
 20
7.36714
 11
0.470917
 21
7.4852
  0
LINE
  8
0
 10
0.470917
 20
7.4852
 11
-0.470917
 21
7.4852
  0
LINE
  8
0
 10
-0.470917
 20
7.4852
 11
-1.40535
 21
7.36714
  0
LINE
  8
0
 10
-1.40535
 20
7.36714
 11
-2.31763
 21
7.13292
  0
LINE
  8
0
 10
-2.31763
 20
7.13292
 11
-3.19334
 21
6.78619
  0
LINE
  8
0
 10
-3.19334
 20
6.78619
 11
-4.01869
 21
6.33246
  0
LINE
  8
0
 10
-4.01869
 20
6.33246
 11
-4.78067
 21
5.77884
  0
LINE
  8
0
 10
-4.78067
 20
5.77884
 11
-5.46725
 21
5.13409
  0
LINE
  8
0
 10
-5.46725
 20
5.13409
 11
-6.06763
 21
4.40839
  0
LINE
  8
0
 10
-6.06763
 20
4.40839
 11
-6.5723
 21
3.61314
  0
LINE
  8
0
 10
-6.5723
 20
3.61314
 11
-6.97331
 21
2.76093
  0
LINE
  8
0
 10
-6.97331
 20
2.76093
 11
-7.26436
 21
1.86517
  0
LINE
  8
0
 10
-7.26436
 20
1.86517
 11
-7.44086
 21
0.939987
  0
LINE
  8
0
 10
-7.44086
 20
0.939987
 11
-7.5
 21
0
  0
LINE
  8
0
 10
-7.5
 20
0
 11
-7.44086
 21
-0.939987
  0
LINE
  8
0
 10
-7.44086
 20
-0.939987
 11
-7.26436
 21
-1.86517
  0
LINE
  8
0
 10
-7.26436
 20
-1.86517
 11
-6.97331
 21
-2.76093
  0
LINE
  8
0
 10
-6.97331
 20
-2.76093
 11
-6.5723
 21
-3.61314
  0
LINE
  8
0
 10
-6.5723
 20
-3.61314
 11
-6.06763
 21
-4.40839
  0
LINE
  8
0
 10
-6.06763
 20
-4.40839
 11
-5.46725
 21
-5.13409
  0
LINE
  8
0
 10
-5.46725
 20
-5.13409
 11
-4.78067
 21
-5.77884
  0
LINE
  8
0
 10
-4.78067
 20
-5.77884
 11
-4.01869
 21
-6.33246
  0
LINE
  8
0
 10
-4.01869
 20
-6.33246
 11
-3.19334
 21
-6.78619
  0
LINE
  8
0
 10
-3.19334
 20
-6.78619
 11
-2.31763
 21
-7.13292
  0
LINE
  8
0
 10
-2.31763
 20
-7.13292
 11
-1.40535
 21
-7.36714
  0
LINE
  8
0
 10
-1.40535
 20
-7.36714
 11
-0.470917
 21
-7.4852
  0
LINE
  8
0
 10
-0.470917
 20
-7.4852
 11
0.470917
 21
-7.4852
  0
LINE
  8
0
 10
0.470917
 20
-7.4852
 11
1.40535
 21
-7.36714
  0
LINE
  8
0
 10
-0.180511
 20
-2.86932
 11
-0.538712
 21
-2.82407
  0
LINE
  8
0
 10
-0.538712
 20
-2.82407
 11
-0.888412
 21
-2.73428
  0
LINE
  8
0
 10
-0.888412
 20
-2.73428
 11
-1.22411
 21
-2.60136
  0
LINE
  8
0
 10
-1.22411
 20
-2.60136
 11
-1.5405
 21
-2.42743
  0
LINE
  8
0
 10
-1.5405
 20
-2.42743
 11
-1.83258
 21
-2.21523
  0
LINE
  8
0
 10
-1.83258
 20
-2.21523
 11
-2.09578
 21
-1.96806
  0
LINE
  8
0
 10
-2.09578
 20
-1.96806
 11
-2.32591
 21
-1.68988
  0
LINE
  8
0
 10
-2.32591
 20
-1.68988
 11
-2.51938
 21
-1.38504
  0
LINE
  8
0
 10
-2.51938
 20
-1.38504
 11
-2.6731
 21
-1.05835
  0
LINE
  8
0
 10
-2.6731
 20
-1.05835
 11
-2.78467
 21
-0.714981
  0
LINE
  8
0
 10
-2.78467
 20
-0.714981
 11
-2.85233
 21
-0.360321
  0
LINE
  8
0
 10
-2.85233
 20
-0.360321
 11
-2.875
 21
0
  0
LINE
  8
0
 10
-2.875
 20
0
 11
-2.85233
 21
0.360321
  0
LINE
  8
0
 10
-2.85233
 20
0.360321
 11
-2.78467
 21
0.714981
  0
LINE
  8
0
 10
-2.78467
 20
0.714981
 11
-2.6731
 21
1.05835
  0
LINE
  8
0
 10
-2.6731
 20
1.05835
 11
-2.51938
 21
1.38504
  0
LINE
  8
0
 10
-2.51938
 20
1.38504
 11
-2.32591
 21
1.68988
  0
LINE
  8
0
 10
-2.32591
 20
1.68988
 11
-2.09578
 21
1.96806
  0
LINE
  8
0
 10
-2.09578
 20
1.96806
 11
-1.83258
 21
2.21523
  0
LINE
  8
0
 10
-1.83258
 20
2.21523
 11
-1.5405
 21
2.42743
  0
LINE
  8
0
 10
-1.5405
 20
2.42743
 11
-1.22411
 21
2.60136
  0
LINE
  8
0
 10
-1.22411
 20
2.60136
 11
-0.888412
 21
2.73428
  0
LINE
  8
0
 10
-0.888412
 20
2.73428
 11
-0.538712
 21
2.82407
  0
LINE
  8
0
 10
-0.538712
 20
2.82407
 11
-0.180511
 21
2.86932
  0
LINE
  8
0
 10
-0.180511
 20
2.86932
 11
0.180511
 21
2.86932
  0
LINE
  8
0
 10
0.180511
 20
2.86932
 11
0.538712
 21
2.82407
  0
LINE
  8
0
 10
0.538712
 20
2.82407
 11
0.888412
 21
2.73428
  0
LINE
  8
0
 10
0.888412
 20
2.73428
 11
1.22411
 21
2.60136
  0
LINE
  8
0
 10
1.22411
 20
2.60136
 11
1.5405
 21
2.42743
  0
LINE
  8
0
 10
1.5405
 20
2.42743
 11
1.83258
 21
2.21523
  0
LINE
  8
0
 10
1.83258
 20
2.21523
 11
2.09578
 21
1.96806
  0
LINE
  8
0
 10
2.09578
 20
1.96806
 11
2.32591
 21
1.68988
  0
LINE
  8
0
 10
2.32591
 20
1.68988
 11
2.51938
 21
1.38504
  0
LINE
  8
0
 10
2.51938
 20
1.38504
 11
2.6731
 21
1.05835
  0
LINE
  8
0
 10
2.6731
 20
1.05835
 11
2.78467
 21
0.714981
  0
LINE
  8
0
 10
2.78467
 20
0.714981
 11
2.85233
 21
0.360321
  0
LINE
  8
0
 10
2.85233
 20
0.360321
 11
2.875
 21
0
  0
LINE
  8
0
 10
2.875
 20
0
 11
2.85233
 21
-0.360321
  0
LINE
  8
0
 10
2.85233
 20
-0.360321
 11
2.78467
 21
-0.714981
  0
LINE
  8
0
 10
2.78467
 20
-0.714981
 11
2.6731
 21
-1.05835
  0
LINE
  8
0
 10
2.6731
 20
-1.05835
 11
2.51938
 21
-1.38504
  0
LINE
  8
0
 10
2.51938
 20
-1.38504
 11
2.32591
 21
-1.68988
  0
LINE
  8
0
 10
2.32591
 20
-1.68988
 11
2.09578
 21
-1.96806
  0
LINE
  8
0
 10
2.09578
 20
-1.96806
 11
1.83258
 21
-2.21523
  0
LINE
  8
0
 10
1.83258
 20
-2.21523
 11
1.5405
 21
-2.42743
  0
LINE
  8
0
 10
1.5405
 20
-2.42743
 11
1.22411
 21
-2.60136
  0
LINE
  8
0
 10
1.22411
 20
-2.60136
 11
0.888412
 21
-2.73428
  0
LINE
  8
0
 10
0.888412
 20
-2.73428
 11
0.538712
 21
-2.82407
  0
LINE
  8
0
 10
0.538712
 20
-2.82407
 11
0.180511
 21
-2.86932
  0
LINE
  8
0
 10
0.180511
 20
-2.86932
 11
-0.180511
 21
-2.86932
  0
ENDSEC
  0
SECTION
  2
OBJECTS
  0
DICTIONARY
  0
ENDSEC
  0
EOF
