<?xml version="1.0" standalone="no"?>
<!DOCTYPE svg PUBLIC "-//W3C//DTD SVG 1.1//EN" "http://www.w3.org/Graphics/SVG/1.1/DTD/svg11.dtd">
<svg width="16mm" height="40mm" viewBox="-8 -32 16 40" xmlns="http://www.w3.org/2000/svg" version="1.1">
<title>OpenSCAD Model</title>
<path d="
M 1.40535,-16.6329 L 2.31763,-16.8671 L 3.19334,-17.2138 L 4.01869,-17.6675 L 4.78067,-18.2212 L 5.46725,-18.8659
 L 6.06763,-19.5916 L 6.5723,-20.3869 L 6.97331,-21.2391 L 7.26436,-22.1348 L 7.44086,-23.06 L 7.5,-24
 L 7.44086,-24.94 L 7.26436,-25.8652 L 6.97331,-26.7609 L 6.5723,-27.6131 L 6.06763,-28.4084 L 5.46725,-29.1341
 L 4.78067,-29.7788 L 4.01869,-30.3325 L 3.19334,-30.7862 L 2.31763,-31.1329 L 1.40535,-31.3671 L 0.470917,-31.4852
 L -0.470917,-31.4852 L -1.40535,-31.3671 L -2.31763,-31.1329 L -3.19334,-30.7862 L -4.01869,-30.3325 L -4.78067,-29.7788
 L -5.46725,-29.1341 L -6.06763,-28.4084 L -6.5723,-27.6131 L -6.97331,-26.7609 L -7.26436,-25.8652 L -7.44086,-24.94
 L -7.5,-24 L -7.44086,-23.06 L -7.26436,-22.1348 L -6.97331,-21.2391 L -6.5723,-20.3869 L -6.06763,-19.5916
 L -5.46725,-18.8659 L -4.78067,-18.2212 L -4.01869,-17.6675 L -3.19334,-17.2138 L -2.31763,-16.8671 L -1.40535,-16.6329
 L -0.470917,-16.5148 L 0.470917,-16.5148 z
M -0.283066,-19.5008 L -0.844727,-19.5717 L -1.39308,-19.7125 L -1.91945,-19.9209 L -2.41556,-20.1937 L -2.87357,-20.5264
 L -3.28625,-20.914 L -3.64713,-21.3502 L -3.95047,-21.8282 L -4.19153,-22.3405 L -4.36647,-22.8789 L -4.47255,-23.435
 L -4.5081,-24 L -4.47255,-24.565 L -4.36647,-25.1211 L -4.19153,-25.6595 L -3.95047,-26.1718 L -3.64713,-26.6498
 L -3.28625,-27.086 L -2.87357,-27.4736 L -2.41556,-27.8063 L -1.91945,-28.0791 L -1.39308,-28.2875 L -0.844727,-28.4283
 L -0.283066,-28.4992 L 0.283066,-28.4992 L 0.844727,-28.4283 L 1.39308,-28.2875 L 1.91945,-28.0791 L 2.41556,-27.8063
 L 2.87357,-27.4736 L 3.28625,-27.086 L 3.64713,-26.6498 L 3.95047,-26.1718 L 4.19153,-25.6595 L 4.36647,-25.1211
 L 4.47255,-24.565 L 4.5081,-24 L 4.47255,-23.435 L 4.36647,-22.8789 L 4.19153,-22.3405 L 3.95047,-21.8282
 L 3.64713,-21.3502 L 3.28625,-20.914 L 2.87357,-20.5264 L 2.41556,-20.1937 L 1.91945,-19.9209 L 1.39308,-19.7125
 L 0.844727,-19.5717 L 0.283066,-19.5008 z
M 1.40535,7.36714 L 2.31763,7.13292 L 3.19334,6.78619 L 4.01869,6.33246 L 4.78067,5.77884 L 5.46725,5.13409
 L 6.06763,4.40839 L 6.5723,3.61314 L 6.97331,2.76093 L 7.26436,1.86517 L 7.44086,0.939987 L 7.5,-0
 L 7.44086,-0.939987 L 7.26436,-1.86517 L 6.97331,-2.76093 L 6.5723,-3.61314 L 6.06763,-4.40839 L 5.46725,-5.13409
 L 4.78067,-5.77884 L 4.01869,-6.33246 L 3.19334,-6.78619 L 2.31763,-7.13292 L 1.40535,-7.36714 L 0.470917,-7.4852
 L -0.470917,-7.4852 L -1.40535,-7.36714 L -2.31763,-7.13292 L -3.19334,-6.78619 L -4.01869,-6.33246 L -4.78067,-5.77884
 L -5.46725,-5.13409 L -6.06763,-4.40839 L -6.5723,-3.61314 L -6.97331,-2.76093 L -7.26436,-1.86517 L -7.44086,-0.939987
 L -7.5,-0 L -7.44086,0.939987 L -7.26436,1.86517 L -6.97331,2.76093 L -6.5723,3.61314 L -6.06763,4.40839
 L -5.46725,5.13409 L -4.78067,5.77884 L -4.01869,6.33246 L -3.19334,6.78619 L -2.31763,7.13292 L -1.40535,7.36714
 L -0.470917,7.4852 L 0.470917,7.4852 z
M -0.141266,2.24556 L -0.4216,2.21014 L -0.695282,2.13986 L -0.957993,2.03586 L -1.2056,1.89973 L -1.43419,1.73364
 L -1.64017,1.54022 L -1.82028,1.32251 L -1.97168,1.08394 L -2.092,0.828278 L -2.17931,0.55954 L -2.23225,0.281998
 L -2.25,-0 L -2.23225,-0.281998 L -2.17931,-0.55954 L -2.092,-0.828278 L -1.97168,-1.08394 L -1.82028,-1.32251
 L -1.64017,-1.54022 L -1.43419,-1.73364 L -1.2056,-1.89973 L -0.957993,-2.03586 L -0.695282,-2.13986 L -0.4216,-2.21014
 L -0.141266,-2.24556 L 0.141266,-2.24556 L 0.4216,-2.21014 L 0.695282,-2.13986 L 0.957993,-2.03586 L 1.2056,-1.89973
 L 1.43419,-1.73364 L 1.64017,-1.54022 L 1.82028,-1.32251 L 1.97168,-1.08394 L 2.092,-0.828278 L 2.17931,-0.55954
 L 2.23225,-0.281998 L 2.25,-0 L 2.23225,0.281998 L 2.17931,0.55954 L 2.092,0.828278 L 1.97168,1.08394
 L 1.82028,1.32251 L 1.64017,1.54022 L 1.43419,1.73364 L 1.2056,1.89973 L 0.957993,2.03586 L 0.695282,2.13986
 L 0.4216,2.21014 L 0.141266,2.24556 z
" stroke="black" fill="lightgray" stroke-width="0.5"/>
</svg>
