<?xml version="1.0" standalone="no"?>
<!DOCTYPE svg PUBLIC "-//W3C//DTD SVG 1.1//EN" "http://www.w3.org/Graphics/SVG/1.1/DTD/svg11.dtd">
<svg width="16mm" height="40mm" viewBox="-8 -32 16 40" xmlns="http://www.w3.org/2000/svg" version="1.1">
<title>OpenSCAD Model</title>
<path d="
M 1.40535,-16.6329 L 2.31763,-16.8671 L 3.19334,-17.2138 L 4.01869,-17.6675 L 4.78067,-18.2212 L 5.46725,-18.8659
 L 6.06763,-19.5916 L 6.5723,-20.3869 L 6.97331,-21.2391 L 7.26436,-22.1348 L 7.44086,-23.06 L 7.5,-24
 L 7.44086,-24.94 L 7.26436,-25.8652 L 6.97331,-26.7609 L 6.5723,-27.6131 L 6.06763,-28.4084 L 5.46725,-29.1341
 L 4.78067,-29.7788 L 4.01869,-30.3325 L 3.19334,-30.7862 L 2.31763,-31.1329 L 1.40535,-31.3671 L 0.470917,-31.4852
 L -0.470917,-31.4852 L -1.40535,-31.3671 L -2.31763,-31.1329 L -3.19334,-30.7862 L -4.01869,-30.3325 L -4.78067,-29.7788
 L -5.46725,-29.1341 L -6.06763,-28.4084 L -6.5723,-27.6131 L -6.97331,-26.7609 L -7.26436,-25.8652 L -7.44086,-24.94
 L -7.5,-24 L -7.44086,-23.06 L -7.26436,-22.1348 L -6.97331,-21.2391 L -6.5723,-20.3869 L -6.06763,-19.5916
 L -5.46725,-18.8659 L -4.78067,-18.2212 L -4.01869,-17.6675 L -3.19334,-17.2138 L -2.31763,-16.8671 L -1.40535,-16.6329
 L -0.470917,-16.5148 L 0.470917,-16.5148 z
M 1.40535,7.36714 L 2.31763,7.13292 L 3.19334,6.78619 L 4.01869,6.33246 L 4.78067,5.77884 L 5.46725,5.13409
 L 6.06763,4.40839 L 6.5723,3.61314 L 6.97331,2.76093 L 7.26436,1.86517 L 7.44086,0.939987 L 7.5,-0
 L 7.44086,-0.939987 L 7.26436,-1.86517 L 6.97331,-2.76093 L 6.5723,-3.61314 L 6.06763,-4.40839 L 5.46725,-5.13409
 L 4.78067,-5.77884 L 4.01869,-6.33246 L 3.19334,-6.78619 L 2.31763,-7.13292 L 1.40535,-7.36714 L 0.470917,-7.4852
 L -0.470917,-7.4852 L -1.40535,-7.36714 L -2.31763,-7.13292 L -3.19334,-6.78619 L -4.01869,-6.33246 L -4.78067,-5.77884
 L -5.46725,-5.13409 L -6.06763,-4.40839 L -6.5723,-3.61314 L -6.97331,-2.76093 L -7.26436,-1.86517 L -7.44086,-0.939987
 L -7.5,-0 L -7.44086,0.939987 L -7.26436,1.86517 L -6.97331,2.76093 L -6.5723,3.61314 L -6.06763,4.40839
 L -5.46725,5.13409 L -4.78067,5.77884 L -4.01869,6.33246 L -3.19334,6.78619 L -2.31763,7.13292 L -1.40535,7.36714
 L -0.470917,7.4852 L 0.470917,7.4852 z
" stroke="black" fill="lightgray" stroke-width="0.5"/>
</svg>
