solid OpenSCAD_Model
  facet normal 0.998027 0.0627939 0
    outer loop
      vertex 7 0 -6
      vertex 6.9448 0.877332 -70
      vertex 6.9448 0.877332 -6
    endloop
  endfacet
  facet normal 0.998027 0.0627939 0
    outer loop
      vertex 6.9448 0.877332 -70
      vertex 7 0 -6
      vertex 7 0 -70
    endloop
  endfacet
  facet normal -0.998027 0.0627939 0
    outer loop
      vertex -7 0 -70
      vertex -6.9448 0.877332 -6
      vertex -6.9448 0.877332 -70
    endloop
  endfacet
  facet normal -0.998027 0.0627939 0
    outer loop
      vertex -6.9448 0.877332 -6
      vertex -7 0 -70
      vertex -7 0 -6
    endloop
  endfacet
  facet normal 0 1 -0
    outer loop
      vertex 0.439533 6.98619 -70
      vertex -0.439533 6.98619 -6
      vertex 0.439533 6.98619 -6
    endloop
  endfacet
  facet normal 0 1 0
    outer loop
      vertex -0.439533 6.98619 -6
      vertex 0.439533 6.98619 -70
      vertex -0.439533 6.98619 -70
    endloop
  endfacet
  facet normal 0 -1 0
    outer loop
      vertex -0.439533 -6.98619 -70
      vertex 0.439533 -6.98619 -6
      vertex -0.439533 -6.98619 -6
    endloop
  endfacet
  facet normal 0 -1 -0
    outer loop
      vertex 0.439533 -6.98619 -6
      vertex -0.439533 -6.98619 -70
      vertex 0.439533 -6.98619 -70
    endloop
  endfacet
  facet normal 0.684547 0.728969 -0
    outer loop
      vertex 5.10278 4.79183 -70
      vertex 4.46197 5.39359 -6
      vertex 5.10278 4.79183 -6
    endloop
  endfacet
  facet normal 0.684547 0.728969 0
    outer loop
      vertex 4.46197 5.39359 -6
      vertex 5.10278 4.79183 -70
      vertex 4.46197 5.39359 -70
    endloop
  endfacet
  facet normal -0.684547 0.728969 0
    outer loop
      vertex -4.46197 5.39359 -70
      vertex -5.10278 4.79183 -6
      vertex -4.46197 5.39359 -6
    endloop
  endfacet
  facet normal -0.684547 0.728969 0
    outer loop
      vertex -5.10278 4.79183 -6
      vertex -4.46197 5.39359 -70
      vertex -5.10278 4.79183 -70
    endloop
  endfacet
  facet normal -0.368131 0.929774 0
    outer loop
      vertex -2.16312 6.6574 -70
      vertex -2.98045 6.33379 -6
      vertex -2.16312 6.6574 -6
    endloop
  endfacet
  facet normal -0.368131 0.929774 0
    outer loop
      vertex -2.98045 6.33379 -6
      vertex -2.16312 6.6574 -70
      vertex -2.98045 6.33379 -70
    endloop
  endfacet
  facet normal 0.904828 0.425778 0
    outer loop
      vertex 6.50844 2.57687 -6
      vertex 6.13415 3.37228 -70
      vertex 6.13415 3.37228 -6
    endloop
  endfacet
  facet normal 0.904828 0.425778 0
    outer loop
      vertex 6.13415 3.37228 -70
      vertex 6.50844 2.57687 -6
      vertex 6.50844 2.57687 -70
    endloop
  endfacet
  facet normal 0.982287 0.18738 0
    outer loop
      vertex 6.9448 0.877332 -6
      vertex 6.78008 1.74083 -70
      vertex 6.78008 1.74083 -6
    endloop
  endfacet
  facet normal 0.982287 0.18738 0
    outer loop
      vertex 6.78008 1.74083 -70
      vertex 6.9448 0.877332 -6
      vertex 6.9448 0.877332 -70
    endloop
  endfacet
  facet normal 0.368131 0.929774 -0
    outer loop
      vertex 2.98045 6.33379 -70
      vertex 2.16312 6.6574 -6
      vertex 2.98045 6.33379 -6
    endloop
  endfacet
  facet normal 0.368131 0.929774 0
    outer loop
      vertex 2.16312 6.6574 -6
      vertex 2.98045 6.33379 -70
      vertex 2.16312 6.6574 -70
    endloop
  endfacet
  facet normal 0.481755 0.876306 -0
    outer loop
      vertex 3.75079 5.91029 -70
      vertex 2.98045 6.33379 -6
      vertex 3.75079 5.91029 -6
    endloop
  endfacet
  facet normal 0.481755 0.876306 0
    outer loop
      vertex 2.98045 6.33379 -6
      vertex 3.75079 5.91029 -70
      vertex 2.98045 6.33379 -70
    endloop
  endfacet
  facet normal -0.904828 0.425778 0
    outer loop
      vertex -6.50844 2.57687 -70
      vertex -6.13415 3.37228 -6
      vertex -6.13415 3.37228 -70
    endloop
  endfacet
  facet normal -0.904828 0.425778 0
    outer loop
      vertex -6.13415 3.37228 -6
      vertex -6.50844 2.57687 -70
      vertex -6.50844 2.57687 -6
    endloop
  endfacet
  facet normal -0.951058 0.309011 0
    outer loop
      vertex -6.78008 1.74083 -70
      vertex -6.50844 2.57687 -6
      vertex -6.50844 2.57687 -70
    endloop
  endfacet
  facet normal -0.951058 0.309011 0
    outer loop
      vertex -6.50844 2.57687 -6
      vertex -6.78008 1.74083 -70
      vertex -6.78008 1.74083 -6
    endloop
  endfacet
  facet normal -0.248684 0.968585 0
    outer loop
      vertex -1.31167 6.87601 -70
      vertex -2.16312 6.6574 -6
      vertex -1.31167 6.87601 -6
    endloop
  endfacet
  facet normal -0.248684 0.968585 0
    outer loop
      vertex -2.16312 6.6574 -6
      vertex -1.31167 6.87601 -70
      vertex -2.16312 6.6574 -70
    endloop
  endfacet
  facet normal 0.125337 -0.992114 0
    outer loop
      vertex 0.439533 -6.98619 -70
      vertex 1.31167 -6.87601 -6
      vertex 0.439533 -6.98619 -6
    endloop
  endfacet
  facet normal 0.125337 -0.992114 0
    outer loop
      vertex 1.31167 -6.87601 -6
      vertex 0.439533 -6.98619 -70
      vertex 1.31167 -6.87601 -70
    endloop
  endfacet
  facet normal 0.951058 0.309011 0
    outer loop
      vertex 6.78008 1.74083 -6
      vertex 6.50844 2.57687 -70
      vertex 6.50844 2.57687 -6
    endloop
  endfacet
  facet normal 0.951058 0.309011 0
    outer loop
      vertex 6.50844 2.57687 -70
      vertex 6.78008 1.74083 -6
      vertex 6.78008 1.74083 -70
    endloop
  endfacet
  facet normal 0.770511 0.637427 0
    outer loop
      vertex 5.66312 4.1145 -6
      vertex 5.10278 4.79183 -70
      vertex 5.10278 4.79183 -6
    endloop
  endfacet
  facet normal 0.770511 0.637427 0
    outer loop
      vertex 5.10278 4.79183 -70
      vertex 5.66312 4.1145 -6
      vertex 5.66312 4.1145 -70
    endloop
  endfacet
  facet normal 0.844326 0.535829 0
    outer loop
      vertex 6.13415 3.37228 -6
      vertex 5.66312 4.1145 -70
      vertex 5.66312 4.1145 -6
    endloop
  endfacet
  facet normal 0.844326 0.535829 0
    outer loop
      vertex 5.66312 4.1145 -70
      vertex 6.13415 3.37228 -6
      vertex 6.13415 3.37228 -70
    endloop
  endfacet
  facet normal 0.248684 0.968585 -0
    outer loop
      vertex 2.16312 6.6574 -70
      vertex 1.31167 6.87601 -6
      vertex 2.16312 6.6574 -6
    endloop
  endfacet
  facet normal 0.248684 0.968585 0
    outer loop
      vertex 1.31167 6.87601 -6
      vertex 2.16312 6.6574 -70
      vertex 1.31167 6.87601 -70
    endloop
  endfacet
  facet normal 0.125337 0.992114 -0
    outer loop
      vertex 1.31167 6.87601 -70
      vertex 0.439533 6.98619 -6
      vertex 1.31167 6.87601 -6
    endloop
  endfacet
  facet normal 0.125337 0.992114 0
    outer loop
      vertex 0.439533 6.98619 -6
      vertex 1.31167 6.87601 -70
      vertex 0.439533 6.98619 -70
    endloop
  endfacet
  facet normal 0.587783 0.809018 -0
    outer loop
      vertex 4.46197 5.39359 -70
      vertex 3.75079 5.91029 -6
      vertex 4.46197 5.39359 -6
    endloop
  endfacet
  facet normal 0.587783 0.809018 0
    outer loop
      vertex 3.75079 5.91029 -6
      vertex 4.46197 5.39359 -70
      vertex 3.75079 5.91029 -70
    endloop
  endfacet
  facet normal -0.844326 0.535829 0
    outer loop
      vertex -6.13415 3.37228 -70
      vertex -5.66312 4.1145 -6
      vertex -5.66312 4.1145 -70
    endloop
  endfacet
  facet normal -0.844326 0.535829 0
    outer loop
      vertex -5.66312 4.1145 -6
      vertex -6.13415 3.37228 -70
      vertex -6.13415 3.37228 -6
    endloop
  endfacet
  facet normal -0.770511 0.637427 0
    outer loop
      vertex -5.66312 4.1145 -70
      vertex -5.10278 4.79183 -6
      vertex -5.10278 4.79183 -70
    endloop
  endfacet
  facet normal -0.770511 0.637427 0
    outer loop
      vertex -5.10278 4.79183 -6
      vertex -5.66312 4.1145 -70
      vertex -5.66312 4.1145 -6
    endloop
  endfacet
  facet normal -0.982287 0.18738 0
    outer loop
      vertex -6.9448 0.877332 -70
      vertex -6.78008 1.74083 -6
      vertex -6.78008 1.74083 -70
    endloop
  endfacet
  facet normal -0.982287 0.18738 0
    outer loop
      vertex -6.78008 1.74083 -6
      vertex -6.9448 0.877332 -70
      vertex -6.9448 0.877332 -6
    endloop
  endfacet
  facet normal 0 0 1
    outer loop
      vertex 1.8 0 0
      vertex 13 0 0
      vertex 12.8975 1.62933 0
    endloop
  endfacet
  facet normal 0 0 1
    outer loop
      vertex 1.78581 0.225599 0
      vertex 12.8975 1.62933 0
      vertex 12.5916 3.23297 0
    endloop
  endfacet
  facet normal 0 0 1
    outer loop
      vertex 13 0 0
      vertex 1.8 0 0
      vertex 12.8975 -1.62933 0
    endloop
  endfacet
  facet normal 0 0 1
    outer loop
      vertex 1.74345 0.447641 0
      vertex 12.5916 3.23297 0
      vertex 12.0871 4.78562 0
    endloop
  endfacet
  facet normal -0 0 1
    outer loop
      vertex 1.78581 -0.225599 0
      vertex 12.8975 -1.62933 0
      vertex 1.8 0 0
    endloop
  endfacet
  facet normal 0 0 1
    outer loop
      vertex 1.6736 0.662623 0
      vertex 12.0871 4.78562 0
      vertex 11.392 6.2628 0
    endloop
  endfacet
  facet normal 0 0 1
    outer loop
      vertex 12.8975 -1.62933 0
      vertex 1.78581 -0.225599 0
      vertex 12.5916 -3.23297 0
    endloop
  endfacet
  facet normal 0 0 1
    outer loop
      vertex 1.57735 0.867156 0
      vertex 11.392 6.2628 0
      vertex 10.5172 7.64121 0
    endloop
  endfacet
  facet normal -0 0 1
    outer loop
      vertex 1.74345 -0.447641 0
      vertex 12.5916 -3.23297 0
      vertex 1.78581 -0.225599 0
    endloop
  endfacet
  facet normal 0 0 1
    outer loop
      vertex 1.45623 1.05801 0
      vertex 10.5172 7.64121 0
      vertex 9.47659 8.89911 0
    endloop
  endfacet
  facet normal 0 0 1
    outer loop
      vertex 12.5916 -3.23297 0
      vertex 1.74345 -0.447641 0
      vertex 12.0871 -4.78562 0
    endloop
  endfacet
  facet normal 0 0 1
    outer loop
      vertex 1.31214 1.23218 0
      vertex 9.47659 8.89911 0
      vertex 8.28651 10.0167 0
    endloop
  endfacet
  facet normal -0 0 1
    outer loop
      vertex 1.6736 -0.662623 0
      vertex 12.0871 -4.78562 0
      vertex 1.74345 -0.447641 0
    endloop
  endfacet
  facet normal 0 0 1
    outer loop
      vertex 1.14736 1.38692 0
      vertex 8.28651 10.0167 0
      vertex 6.96575 10.9763 0
    endloop
  endfacet
  facet normal 0 0 1
    outer loop
      vertex 12.0871 -4.78562 0
      vertex 1.6736 -0.662623 0
      vertex 11.392 -6.2628 0
    endloop
  endfacet
  facet normal 0 0 1
    outer loop
      vertex 0.964488 1.51979 0
      vertex 6.96575 10.9763 0
      vertex 5.53513 11.7628 0
    endloop
  endfacet
  facet normal -0 0 1
    outer loop
      vertex 1.57735 -0.867156 0
      vertex 11.392 -6.2628 0
      vertex 1.6736 -0.662623 0
    endloop
  endfacet
  facet normal 0 0 1
    outer loop
      vertex 0.766402 1.62869 0
      vertex 5.53513 11.7628 0
      vertex 4.01722 12.3637 0
    endloop
  endfacet
  facet normal 0 0 1
    outer loop
      vertex 11.392 -6.2628 0
      vertex 1.57735 -0.867156 0
      vertex 10.5172 -7.64121 0
    endloop
  endfacet
  facet normal 0 0 1
    outer loop
      vertex 0.556231 1.7119 0
      vertex 4.01722 12.3637 0
      vertex 2.43596 12.7697 0
    endloop
  endfacet
  facet normal -0 0 1
    outer loop
      vertex 1.45623 -1.05801 0
      vertex 10.5172 -7.64121 0
      vertex 1.57735 -0.867156 0
    endloop
  endfacet
  facet normal 0 0 1
    outer loop
      vertex 10.5172 -7.64121 0
      vertex 1.45623 -1.05801 0
      vertex 9.47659 -8.89911 0
    endloop
  endfacet
  facet normal 0 0 1
    outer loop
      vertex 12.8975 1.62933 0
      vertex 1.78581 0.225599 0
      vertex 1.8 0 0
    endloop
  endfacet
  facet normal 0 0 1
    outer loop
      vertex 12.5916 3.23297 0
      vertex 1.74345 0.447641 0
      vertex 1.78581 0.225599 0
    endloop
  endfacet
  facet normal 0 0 1
    outer loop
      vertex 12.0871 4.78562 0
      vertex 1.6736 0.662623 0
      vertex 1.74345 0.447641 0
    endloop
  endfacet
  facet normal 0 0 1
    outer loop
      vertex 11.392 6.2628 0
      vertex 1.57735 0.867156 0
      vertex 1.6736 0.662623 0
    endloop
  endfacet
  facet normal 0 0 1
    outer loop
      vertex 10.5172 7.64121 0
      vertex 1.45623 1.05801 0
      vertex 1.57735 0.867156 0
    endloop
  endfacet
  facet normal 0 0 1
    outer loop
      vertex 9.47659 8.89911 0
      vertex 1.31214 1.23218 0
      vertex 1.45623 1.05801 0
    endloop
  endfacet
  facet normal 0 0 1
    outer loop
      vertex 8.28651 10.0167 0
      vertex 1.14736 1.38692 0
      vertex 1.31214 1.23218 0
    endloop
  endfacet
  facet normal 0 0 1
    outer loop
      vertex 6.96575 10.9763 0
      vertex 0.964488 1.51979 0
      vertex 1.14736 1.38692 0
    endloop
  endfacet
  facet normal 0 0 1
    outer loop
      vertex 0.337286 1.76812 0
      vertex 2.43596 12.7697 0
      vertex 0.816277 12.9743 0
    endloop
  endfacet
  facet normal 0 0 1
    outer loop
      vertex 5.53513 11.7628 0
      vertex 0.766402 1.62869 0
      vertex 0.964488 1.51979 0
    endloop
  endfacet
  facet normal 0 0 1
    outer loop
      vertex 4.01722 12.3637 0
      vertex 0.556231 1.7119 0
      vertex 0.766402 1.62869 0
    endloop
  endfacet
  facet normal 0 0 1
    outer loop
      vertex 2.43596 12.7697 0
      vertex 0.337286 1.76812 0
      vertex 0.556231 1.7119 0
    endloop
  endfacet
  facet normal 0 0 1
    outer loop
      vertex 0.816277 12.9743 0
      vertex 0.113023 1.79645 0
      vertex 0.337286 1.76812 0
    endloop
  endfacet
  facet normal 0 0 1
    outer loop
      vertex 0.816277 12.9743 0
      vertex -0.113023 1.79645 0
      vertex 0.113023 1.79645 0
    endloop
  endfacet
  facet normal -0 0 1
    outer loop
      vertex -0.816277 12.9743 0
      vertex -0.113023 1.79645 0
      vertex 0.816277 12.9743 0
    endloop
  endfacet
  facet normal 0 0 1
    outer loop
      vertex -0.113023 1.79645 0
      vertex -0.816277 12.9743 0
      vertex -0.337286 1.76812 0
    endloop
  endfacet
  facet normal -0 0 1
    outer loop
      vertex -2.43596 12.7697 0
      vertex -0.337286 1.76812 0
      vertex -0.816277 12.9743 0
    endloop
  endfacet
  facet normal 0 0 1
    outer loop
      vertex -0.337286 1.76812 0
      vertex -2.43596 12.7697 0
      vertex -0.556231 1.7119 0
    endloop
  endfacet
  facet normal -0 0 1
    outer loop
      vertex -4.01722 12.3637 0
      vertex -0.556231 1.7119 0
      vertex -2.43596 12.7697 0
    endloop
  endfacet
  facet normal 0 0 1
    outer loop
      vertex -0.556231 1.7119 0
      vertex -4.01722 12.3637 0
      vertex -0.766402 1.62869 0
    endloop
  endfacet
  facet normal -0 0 1
    outer loop
      vertex -5.53513 11.7628 0
      vertex -0.766402 1.62869 0
      vertex -4.01722 12.3637 0
    endloop
  endfacet
  facet normal 0 0 1
    outer loop
      vertex -0.766402 1.62869 0
      vertex -5.53513 11.7628 0
      vertex -0.964488 1.51979 0
    endloop
  endfacet
  facet normal -0 0 1
    outer loop
      vertex -6.96575 10.9763 0
      vertex -0.964488 1.51979 0
      vertex -5.53513 11.7628 0
    endloop
  endfacet
  facet normal 0 0 1
    outer loop
      vertex -0.964488 1.51979 0
      vertex -6.96575 10.9763 0
      vertex -1.14736 1.38692 0
    endloop
  endfacet
  facet normal -0 0 1
    outer loop
      vertex -8.28651 10.0167 0
      vertex -1.14736 1.38692 0
      vertex -6.96575 10.9763 0
    endloop
  endfacet
  facet normal 0 0 1
    outer loop
      vertex -1.14736 1.38692 0
      vertex -8.28651 10.0167 0
      vertex -1.31214 1.23218 0
    endloop
  endfacet
  facet normal 0 0 1
    outer loop
      vertex -1.31214 1.23218 0
      vertex -9.47659 8.89911 0
      vertex -1.45623 1.05801 0
    endloop
  endfacet
  facet normal -0 0 1
    outer loop
      vertex -9.47659 8.89911 0
      vertex -1.31214 1.23218 0
      vertex -8.28651 10.0167 0
    endloop
  endfacet
  facet normal -0 0 1
    outer loop
      vertex 1.31214 -1.23218 0
      vertex 9.47659 -8.89911 0
      vertex 1.45623 -1.05801 0
    endloop
  endfacet
  facet normal 0 0 1
    outer loop
      vertex 9.47659 -8.89911 0
      vertex 1.31214 -1.23218 0
      vertex 8.28651 -10.0167 0
    endloop
  endfacet
  facet normal -0 0 1
    outer loop
      vertex 1.14736 -1.38692 0
      vertex 8.28651 -10.0167 0
      vertex 1.31214 -1.23218 0
    endloop
  endfacet
  facet normal 0 0 1
    outer loop
      vertex 8.28651 -10.0167 0
      vertex 1.14736 -1.38692 0
      vertex 6.96575 -10.9763 0
    endloop
  endfacet
  facet normal -0 0 1
    outer loop
      vertex 0.964488 -1.51979 0
      vertex 6.96575 -10.9763 0
      vertex 1.14736 -1.38692 0
    endloop
  endfacet
  facet normal 0 0 1
    outer loop
      vertex 6.96575 -10.9763 0
      vertex 0.964488 -1.51979 0
      vertex 5.53513 -11.7628 0
    endloop
  endfacet
  facet normal -0 0 1
    outer loop
      vertex 0.766402 -1.62869 0
      vertex 5.53513 -11.7628 0
      vertex 0.964488 -1.51979 0
    endloop
  endfacet
  facet normal 0 0 1
    outer loop
      vertex 5.53513 -11.7628 0
      vertex 0.766402 -1.62869 0
      vertex 4.01722 -12.3637 0
    endloop
  endfacet
  facet normal -0 0 1
    outer loop
      vertex 0.556231 -1.7119 0
      vertex 4.01722 -12.3637 0
      vertex 0.766402 -1.62869 0
    endloop
  endfacet
  facet normal 0 0 1
    outer loop
      vertex 4.01722 -12.3637 0
      vertex 0.556231 -1.7119 0
      vertex 2.43596 -12.7697 0
    endloop
  endfacet
  facet normal -0 0 1
    outer loop
      vertex 0.337286 -1.76812 0
      vertex 2.43596 -12.7697 0
      vertex 0.556231 -1.7119 0
    endloop
  endfacet
  facet normal 0 0 1
    outer loop
      vertex 2.43596 -12.7697 0
      vertex 0.337286 -1.76812 0
      vertex 0.816277 -12.9743 0
    endloop
  endfacet
  facet normal -0 0 1
    outer loop
      vertex 0.113023 -1.79645 0
      vertex 0.816277 -12.9743 0
      vertex 0.337286 -1.76812 0
    endloop
  endfacet
  facet normal -0 0 1
    outer loop
      vertex -0.113023 -1.79645 0
      vertex 0.816277 -12.9743 0
      vertex 0.113023 -1.79645 0
    endloop
  endfacet
  facet normal 0 0 1
    outer loop
      vertex -0.816277 -12.9743 0
      vertex -0.113023 -1.79645 0
      vertex -0.337286 -1.76812 0
    endloop
  endfacet
  facet normal 0 0 1
    outer loop
      vertex -2.43596 -12.7697 0
      vertex -0.337286 -1.76812 0
      vertex -0.556231 -1.7119 0
    endloop
  endfacet
  facet normal 0 0 1
    outer loop
      vertex -4.01722 -12.3637 0
      vertex -0.556231 -1.7119 0
      vertex -0.766402 -1.62869 0
    endloop
  endfacet
  facet normal 0 0 1
    outer loop
      vertex -0.113023 -1.79645 0
      vertex -0.816277 -12.9743 0
      vertex 0.816277 -12.9743 0
    endloop
  endfacet
  facet normal 0 0 1
    outer loop
      vertex -5.53513 -11.7628 0
      vertex -0.766402 -1.62869 0
      vertex -0.964488 -1.51979 0
    endloop
  endfacet
  facet normal 0 0 1
    outer loop
      vertex -6.96575 -10.9763 0
      vertex -0.964488 -1.51979 0
      vertex -1.14736 -1.38692 0
    endloop
  endfacet
  facet normal 0 0 1
    outer loop
      vertex -8.28651 -10.0167 0
      vertex -1.14736 -1.38692 0
      vertex -1.31214 -1.23218 0
    endloop
  endfacet
  facet normal 0 0 1
    outer loop
      vertex -9.47659 -8.89911 0
      vertex -1.31214 -1.23218 0
      vertex -1.45623 -1.05801 0
    endloop
  endfacet
  facet normal 0 0 1
    outer loop
      vertex -10.5172 -7.64121 0
      vertex -1.45623 -1.05801 0
      vertex -1.57735 -0.867156 0
    endloop
  endfacet
  facet normal 0 0 1
    outer loop
      vertex -11.392 -6.2628 0
      vertex -1.57735 -0.867156 0
      vertex -1.6736 -0.662623 0
    endloop
  endfacet
  facet normal 0 0 1
    outer loop
      vertex -12.0871 -4.78562 0
      vertex -1.6736 -0.662623 0
      vertex -1.74345 -0.447641 0
    endloop
  endfacet
  facet normal 0 0 1
    outer loop
      vertex -12.5916 -3.23297 0
      vertex -1.74345 -0.447641 0
      vertex -1.78581 -0.225599 0
    endloop
  endfacet
  facet normal 0 0 1
    outer loop
      vertex -0.337286 -1.76812 0
      vertex -2.43596 -12.7697 0
      vertex -0.816277 -12.9743 0
    endloop
  endfacet
  facet normal 0 0 1
    outer loop
      vertex -12.8975 -1.62933 0
      vertex -1.78581 -0.225599 0
      vertex -1.8 0 0
    endloop
  endfacet
  facet normal -0 0 1
    outer loop
      vertex -10.5172 7.64121 0
      vertex -1.45623 1.05801 0
      vertex -9.47659 8.89911 0
    endloop
  endfacet
  facet normal 0 0 1
    outer loop
      vertex -1.45623 1.05801 0
      vertex -10.5172 7.64121 0
      vertex -1.57735 0.867156 0
    endloop
  endfacet
  facet normal 0 0 1
    outer loop
      vertex -0.556231 -1.7119 0
      vertex -4.01722 -12.3637 0
      vertex -2.43596 -12.7697 0
    endloop
  endfacet
  facet normal -0 0 1
    outer loop
      vertex -11.392 6.2628 0
      vertex -1.57735 0.867156 0
      vertex -10.5172 7.64121 0
    endloop
  endfacet
  facet normal 0 0 1
    outer loop
      vertex -0.766402 -1.62869 0
      vertex -5.53513 -11.7628 0
      vertex -4.01722 -12.3637 0
    endloop
  endfacet
  facet normal 0 0 1
    outer loop
      vertex -1.57735 0.867156 0
      vertex -11.392 6.2628 0
      vertex -1.6736 0.662623 0
    endloop
  endfacet
  facet normal 0 0 1
    outer loop
      vertex -0.964488 -1.51979 0
      vertex -6.96575 -10.9763 0
      vertex -5.53513 -11.7628 0
    endloop
  endfacet
  facet normal -0 0 1
    outer loop
      vertex -12.0871 4.78562 0
      vertex -1.6736 0.662623 0
      vertex -11.392 6.2628 0
    endloop
  endfacet
  facet normal 0 0 1
    outer loop
      vertex -1.14736 -1.38692 0
      vertex -8.28651 -10.0167 0
      vertex -6.96575 -10.9763 0
    endloop
  endfacet
  facet normal 0 0 1
    outer loop
      vertex -1.6736 0.662623 0
      vertex -12.0871 4.78562 0
      vertex -1.74345 0.447641 0
    endloop
  endfacet
  facet normal 0 0 1
    outer loop
      vertex -1.31214 -1.23218 0
      vertex -9.47659 -8.89911 0
      vertex -8.28651 -10.0167 0
    endloop
  endfacet
  facet normal -0 0 1
    outer loop
      vertex -12.5916 3.23297 0
      vertex -1.74345 0.447641 0
      vertex -12.0871 4.78562 0
    endloop
  endfacet
  facet normal 0 0 1
    outer loop
      vertex -1.45623 -1.05801 0
      vertex -10.5172 -7.64121 0
      vertex -9.47659 -8.89911 0
    endloop
  endfacet
  facet normal 0 0 1
    outer loop
      vertex -1.74345 0.447641 0
      vertex -12.5916 3.23297 0
      vertex -1.78581 0.225599 0
    endloop
  endfacet
  facet normal 0 0 1
    outer loop
      vertex -1.57735 -0.867156 0
      vertex -11.392 -6.2628 0
      vertex -10.5172 -7.64121 0
    endloop
  endfacet
  facet normal -0 0 1
    outer loop
      vertex -12.8975 1.62933 0
      vertex -1.78581 0.225599 0
      vertex -12.5916 3.23297 0
    endloop
  endfacet
  facet normal 0 0 1
    outer loop
      vertex -1.6736 -0.662623 0
      vertex -12.0871 -4.78562 0
      vertex -11.392 -6.2628 0
    endloop
  endfacet
  facet normal 0 0 1
    outer loop
      vertex -1.78581 0.225599 0
      vertex -12.8975 1.62933 0
      vertex -1.8 0 0
    endloop
  endfacet
  facet normal 0 0 1
    outer loop
      vertex -1.74345 -0.447641 0
      vertex -12.5916 -3.23297 0
      vertex -12.0871 -4.78562 0
    endloop
  endfacet
  facet normal 0 0 1
    outer loop
      vertex -13 0 0
      vertex -1.8 0 0
      vertex -12.8975 1.62933 0
    endloop
  endfacet
  facet normal 0 0 1
    outer loop
      vertex -1.78581 -0.225599 0
      vertex -12.8975 -1.62933 0
      vertex -12.5916 -3.23297 0
    endloop
  endfacet
  facet normal 0 0 1
    outer loop
      vertex -1.8 0 0
      vertex -13 0 0
      vertex -12.8975 -1.62933 0
    endloop
  endfacet
  facet normal -0.481755 0.876306 0
    outer loop
      vertex -2.98045 6.33379 -70
      vertex -3.75079 5.91029 -6
      vertex -2.98045 6.33379 -6
    endloop
  endfacet
  facet normal -0.481755 0.876306 0
    outer loop
      vertex -3.75079 5.91029 -6
      vertex -2.98045 6.33379 -70
      vertex -3.75079 5.91029 -70
    endloop
  endfacet
  facet normal -0.587783 0.809018 0
    outer loop
      vertex -3.75079 5.91029 -70
      vertex -4.46197 5.39359 -6
      vertex -3.75079 5.91029 -6
    endloop
  endfacet
  facet normal -0.587783 0.809018 0
    outer loop
      vertex -4.46197 5.39359 -6
      vertex -3.75079 5.91029 -70
      vertex -4.46197 5.39359 -70
    endloop
  endfacet
  facet normal -0.125337 0.992114 0
    outer loop
      vertex -0.439533 6.98619 -70
      vertex -1.31167 6.87601 -6
      vertex -0.439533 6.98619 -6
    endloop
  endfacet
  facet normal -0.125337 0.992114 0
    outer loop
      vertex -1.31167 6.87601 -6
      vertex -0.439533 6.98619 -70
      vertex -1.31167 6.87601 -70
    endloop
  endfacet
  facet normal 0.998027 -0.0627939 0
    outer loop
      vertex 6.9448 -0.877332 -6
      vertex 7 0 -70
      vertex 7 0 -6
    endloop
  endfacet
  facet normal 0.998027 -0.0627939 0
    outer loop
      vertex 7 0 -70
      vertex 6.9448 -0.877332 -6
      vertex 6.9448 -0.877332 -70
    endloop
  endfacet
  facet normal 0.904828 -0.425778 0
    outer loop
      vertex 6.13415 -3.37228 -6
      vertex 6.50844 -2.57687 -70
      vertex 6.50844 -2.57687 -6
    endloop
  endfacet
  facet normal 0.904828 -0.425778 0
    outer loop
      vertex 6.50844 -2.57687 -70
      vertex 6.13415 -3.37228 -6
      vertex 6.13415 -3.37228 -70
    endloop
  endfacet
  facet normal -0.904828 -0.425778 0
    outer loop
      vertex -6.13415 -3.37228 -70
      vertex -6.50844 -2.57687 -6
      vertex -6.50844 -2.57687 -70
    endloop
  endfacet
  facet normal -0.904828 -0.425778 0
    outer loop
      vertex -6.50844 -2.57687 -6
      vertex -6.13415 -3.37228 -70
      vertex -6.13415 -3.37228 -6
    endloop
  endfacet
  facet normal -0.844326 -0.535829 0
    outer loop
      vertex -5.66312 -4.1145 -70
      vertex -6.13415 -3.37228 -6
      vertex -6.13415 -3.37228 -70
    endloop
  endfacet
  facet normal -0.844326 -0.535829 0
    outer loop
      vertex -6.13415 -3.37228 -6
      vertex -5.66312 -4.1145 -70
      vertex -5.66312 -4.1145 -6
    endloop
  endfacet
  facet normal 0 0 -1
    outer loop
      vertex 1.8 0 -70
      vertex 7 0 -70
      vertex 6.9448 -0.877332 -70
    endloop
  endfacet
  facet normal 0 0 -1
    outer loop
      vertex 1.78581 -0.225599 -70
      vertex 6.9448 -0.877332 -70
      vertex 6.78008 -1.74083 -70
    endloop
  endfacet
  facet normal 0 0 -1
    outer loop
      vertex 7 0 -70
      vertex 1.8 0 -70
      vertex 6.9448 0.877332 -70
    endloop
  endfacet
  facet normal 0 0 -1
    outer loop
      vertex 1.74345 -0.447641 -70
      vertex 6.78008 -1.74083 -70
      vertex 6.50844 -2.57687 -70
    endloop
  endfacet
  facet normal 0 0 -1
    outer loop
      vertex 1.78581 0.225599 -70
      vertex 6.9448 0.877332 -70
      vertex 1.8 0 -70
    endloop
  endfacet
  facet normal 0 0 -1
    outer loop
      vertex 1.6736 -0.662623 -70
      vertex 6.50844 -2.57687 -70
      vertex 6.13415 -3.37228 -70
    endloop
  endfacet
  facet normal -0 0 -1
    outer loop
      vertex 6.9448 0.877332 -70
      vertex 1.78581 0.225599 -70
      vertex 6.78008 1.74083 -70
    endloop
  endfacet
  facet normal 0 0 -1
    outer loop
      vertex 1.57735 -0.867156 -70
      vertex 6.13415 -3.37228 -70
      vertex 5.66312 -4.1145 -70
    endloop
  endfacet
  facet normal 0 0 -1
    outer loop
      vertex 1.74345 0.447641 -70
      vertex 6.78008 1.74083 -70
      vertex 1.78581 0.225599 -70
    endloop
  endfacet
  facet normal 0 0 -1
    outer loop
      vertex 1.45623 -1.05801 -70
      vertex 5.66312 -4.1145 -70
      vertex 5.10278 -4.79183 -70
    endloop
  endfacet
  facet normal -0 0 -1
    outer loop
      vertex 6.78008 1.74083 -70
      vertex 1.74345 0.447641 -70
      vertex 6.50844 2.57687 -70
    endloop
  endfacet
  facet normal 0 0 -1
    outer loop
      vertex 1.31214 -1.23218 -70
      vertex 5.10278 -4.79183 -70
      vertex 4.46197 -5.39359 -70
    endloop
  endfacet
  facet normal 0 0 -1
    outer loop
      vertex 1.6736 0.662623 -70
      vertex 6.50844 2.57687 -70
      vertex 1.74345 0.447641 -70
    endloop
  endfacet
  facet normal 0 0 -1
    outer loop
      vertex 1.14736 -1.38692 -70
      vertex 4.46197 -5.39359 -70
      vertex 3.75079 -5.91029 -70
    endloop
  endfacet
  facet normal -0 0 -1
    outer loop
      vertex 6.50844 2.57687 -70
      vertex 1.6736 0.662623 -70
      vertex 6.13415 3.37228 -70
    endloop
  endfacet
  facet normal 0 0 -1
    outer loop
      vertex 0.964488 -1.51979 -70
      vertex 3.75079 -5.91029 -70
      vertex 2.98045 -6.33379 -70
    endloop
  endfacet
  facet normal 0 0 -1
    outer loop
      vertex 1.57735 0.867156 -70
      vertex 6.13415 3.37228 -70
      vertex 1.6736 0.662623 -70
    endloop
  endfacet
  facet normal 0 0 -1
    outer loop
      vertex 0.766402 -1.62869 -70
      vertex 2.98045 -6.33379 -70
      vertex 2.16312 -6.6574 -70
    endloop
  endfacet
  facet normal -0 0 -1
    outer loop
      vertex 6.13415 3.37228 -70
      vertex 1.57735 0.867156 -70
      vertex 5.66312 4.1145 -70
    endloop
  endfacet
  facet normal 0 0 -1
    outer loop
      vertex 1.45623 1.05801 -70
      vertex 5.66312 4.1145 -70
      vertex 1.57735 0.867156 -70
    endloop
  endfacet
  facet normal 0 0 -1
    outer loop
      vertex 6.9448 -0.877332 -70
      vertex 1.78581 -0.225599 -70
      vertex 1.8 0 -70
    endloop
  endfacet
  facet normal 0 0 -1
    outer loop
      vertex 6.78008 -1.74083 -70
      vertex 1.74345 -0.447641 -70
      vertex 1.78581 -0.225599 -70
    endloop
  endfacet
  facet normal 0 0 -1
    outer loop
      vertex 6.50844 -2.57687 -70
      vertex 1.6736 -0.662623 -70
      vertex 1.74345 -0.447641 -70
    endloop
  endfacet
  facet normal 0 0 -1
    outer loop
      vertex 6.13415 -3.37228 -70
      vertex 1.57735 -0.867156 -70
      vertex 1.6736 -0.662623 -70
    endloop
  endfacet
  facet normal 0 0 -1
    outer loop
      vertex 5.66312 -4.1145 -70
      vertex 1.45623 -1.05801 -70
      vertex 1.57735 -0.867156 -70
    endloop
  endfacet
  facet normal 0 0 -1
    outer loop
      vertex 5.10278 -4.79183 -70
      vertex 1.31214 -1.23218 -70
      vertex 1.45623 -1.05801 -70
    endloop
  endfacet
  facet normal 0 0 -1
    outer loop
      vertex 0.556231 -1.7119 -70
      vertex 2.16312 -6.6574 -70
      vertex 1.31167 -6.87601 -70
    endloop
  endfacet
  facet normal 0 0 -1
    outer loop
      vertex 4.46197 -5.39359 -70
      vertex 1.14736 -1.38692 -70
      vertex 1.31214 -1.23218 -70
    endloop
  endfacet
  facet normal 0 0 -1
    outer loop
      vertex 3.75079 -5.91029 -70
      vertex 0.964488 -1.51979 -70
      vertex 1.14736 -1.38692 -70
    endloop
  endfacet
  facet normal 0 0 -1
    outer loop
      vertex 2.98045 -6.33379 -70
      vertex 0.766402 -1.62869 -70
      vertex 0.964488 -1.51979 -70
    endloop
  endfacet
  facet normal 0 0 -1
    outer loop
      vertex 2.16312 -6.6574 -70
      vertex 0.556231 -1.7119 -70
      vertex 0.766402 -1.62869 -70
    endloop
  endfacet
  facet normal 0 0 -1
    outer loop
      vertex 0.337286 -1.76812 -70
      vertex 1.31167 -6.87601 -70
      vertex 0.439533 -6.98619 -70
    endloop
  endfacet
  facet normal 0 0 -1
    outer loop
      vertex 1.31167 -6.87601 -70
      vertex 0.337286 -1.76812 -70
      vertex 0.556231 -1.7119 -70
    endloop
  endfacet
  facet normal 0 0 -1
    outer loop
      vertex 0.439533 -6.98619 -70
      vertex 0.113023 -1.79645 -70
      vertex 0.337286 -1.76812 -70
    endloop
  endfacet
  facet normal 0 0 -1
    outer loop
      vertex 0.439533 -6.98619 -70
      vertex -0.113023 -1.79645 -70
      vertex 0.113023 -1.79645 -70
    endloop
  endfacet
  facet normal 0 0 -1
    outer loop
      vertex -0.439533 -6.98619 -70
      vertex -0.113023 -1.79645 -70
      vertex 0.439533 -6.98619 -70
    endloop
  endfacet
  facet normal -0 0 -1
    outer loop
      vertex -0.113023 -1.79645 -70
      vertex -0.439533 -6.98619 -70
      vertex -0.337286 -1.76812 -70
    endloop
  endfacet
  facet normal 0 0 -1
    outer loop
      vertex -1.31167 -6.87601 -70
      vertex -0.337286 -1.76812 -70
      vertex -0.439533 -6.98619 -70
    endloop
  endfacet
  facet normal -0 0 -1
    outer loop
      vertex -0.337286 -1.76812 -70
      vertex -1.31167 -6.87601 -70
      vertex -0.556231 -1.7119 -70
    endloop
  endfacet
  facet normal 0 0 -1
    outer loop
      vertex -2.16312 -6.6574 -70
      vertex -0.556231 -1.7119 -70
      vertex -1.31167 -6.87601 -70
    endloop
  endfacet
  facet normal -0 0 -1
    outer loop
      vertex -0.556231 -1.7119 -70
      vertex -2.16312 -6.6574 -70
      vertex -0.766402 -1.62869 -70
    endloop
  endfacet
  facet normal 0 0 -1
    outer loop
      vertex -2.98045 -6.33379 -70
      vertex -0.766402 -1.62869 -70
      vertex -2.16312 -6.6574 -70
    endloop
  endfacet
  facet normal -0 0 -1
    outer loop
      vertex -0.766402 -1.62869 -70
      vertex -2.98045 -6.33379 -70
      vertex -0.964488 -1.51979 -70
    endloop
  endfacet
  facet normal 0 0 -1
    outer loop
      vertex -3.75079 -5.91029 -70
      vertex -0.964488 -1.51979 -70
      vertex -2.98045 -6.33379 -70
    endloop
  endfacet
  facet normal -0 0 -1
    outer loop
      vertex -0.964488 -1.51979 -70
      vertex -3.75079 -5.91029 -70
      vertex -1.14736 -1.38692 -70
    endloop
  endfacet
  facet normal 0 0 -1
    outer loop
      vertex -4.46197 -5.39359 -70
      vertex -1.14736 -1.38692 -70
      vertex -3.75079 -5.91029 -70
    endloop
  endfacet
  facet normal -0 0 -1
    outer loop
      vertex -1.14736 -1.38692 -70
      vertex -4.46197 -5.39359 -70
      vertex -1.31214 -1.23218 -70
    endloop
  endfacet
  facet normal 0 0 -1
    outer loop
      vertex -5.10278 -4.79183 -70
      vertex -1.31214 -1.23218 -70
      vertex -4.46197 -5.39359 -70
    endloop
  endfacet
  facet normal 0 0 -1
    outer loop
      vertex -5.66312 -4.1145 -70
      vertex -1.45623 -1.05801 -70
      vertex -5.10278 -4.79183 -70
    endloop
  endfacet
  facet normal -0 0 -1
    outer loop
      vertex -1.31214 -1.23218 -70
      vertex -5.10278 -4.79183 -70
      vertex -1.45623 -1.05801 -70
    endloop
  endfacet
  facet normal -0 0 -1
    outer loop
      vertex 5.66312 4.1145 -70
      vertex 1.45623 1.05801 -70
      vertex 5.10278 4.79183 -70
    endloop
  endfacet
  facet normal 0 0 -1
    outer loop
      vertex 1.31214 1.23218 -70
      vertex 5.10278 4.79183 -70
      vertex 1.45623 1.05801 -70
    endloop
  endfacet
  facet normal -0 0 -1
    outer loop
      vertex 5.10278 4.79183 -70
      vertex 1.31214 1.23218 -70
      vertex 4.46197 5.39359 -70
    endloop
  endfacet
  facet normal 0 0 -1
    outer loop
      vertex 1.14736 1.38692 -70
      vertex 4.46197 5.39359 -70
      vertex 1.31214 1.23218 -70
    endloop
  endfacet
  facet normal -0 0 -1
    outer loop
      vertex 4.46197 5.39359 -70
      vertex 1.14736 1.38692 -70
      vertex 3.75079 5.91029 -70
    endloop
  endfacet
  facet normal 0 0 -1
    outer loop
      vertex 0.964488 1.51979 -70
      vertex 3.75079 5.91029 -70
      vertex 1.14736 1.38692 -70
    endloop
  endfacet
  facet normal -0 0 -1
    outer loop
      vertex 3.75079 5.91029 -70
      vertex 0.964488 1.51979 -70
      vertex 2.98045 6.33379 -70
    endloop
  endfacet
  facet normal 0 0 -1
    outer loop
      vertex 0.766402 1.62869 -70
      vertex 2.98045 6.33379 -70
      vertex 0.964488 1.51979 -70
    endloop
  endfacet
  facet normal -0 0 -1
    outer loop
      vertex 2.98045 6.33379 -70
      vertex 0.766402 1.62869 -70
      vertex 2.16312 6.6574 -70
    endloop
  endfacet
  facet normal 0 0 -1
    outer loop
      vertex 0.556231 1.7119 -70
      vertex 2.16312 6.6574 -70
      vertex 0.766402 1.62869 -70
    endloop
  endfacet
  facet normal -0 0 -1
    outer loop
      vertex 2.16312 6.6574 -70
      vertex 0.556231 1.7119 -70
      vertex 1.31167 6.87601 -70
    endloop
  endfacet
  facet normal 0 0 -1
    outer loop
      vertex 0.337286 1.76812 -70
      vertex 1.31167 6.87601 -70
      vertex 0.556231 1.7119 -70
    endloop
  endfacet
  facet normal -0 0 -1
    outer loop
      vertex 1.31167 6.87601 -70
      vertex 0.337286 1.76812 -70
      vertex 0.439533 6.98619 -70
    endloop
  endfacet
  facet normal 0 0 -1
    outer loop
      vertex 0.113023 1.79645 -70
      vertex 0.439533 6.98619 -70
      vertex 0.337286 1.76812 -70
    endloop
  endfacet
  facet normal 0 0 -1
    outer loop
      vertex -0.113023 1.79645 -70
      vertex 0.439533 6.98619 -70
      vertex 0.113023 1.79645 -70
    endloop
  endfacet
  facet normal 0 0 -1
    outer loop
      vertex -0.439533 6.98619 -70
      vertex -0.113023 1.79645 -70
      vertex -0.337286 1.76812 -70
    endloop
  endfacet
  facet normal 0 0 -1
    outer loop
      vertex -0.113023 1.79645 -70
      vertex -0.439533 6.98619 -70
      vertex 0.439533 6.98619 -70
    endloop
  endfacet
  facet normal 0 0 -1
    outer loop
      vertex -1.31167 6.87601 -70
      vertex -0.337286 1.76812 -70
      vertex -0.556231 1.7119 -70
    endloop
  endfacet
  facet normal 0 0 -1
    outer loop
      vertex -2.16312 6.6574 -70
      vertex -0.556231 1.7119 -70
      vertex -0.766402 1.62869 -70
    endloop
  endfacet
  facet normal 0 0 -1
    outer loop
      vertex -2.98045 6.33379 -70
      vertex -0.766402 1.62869 -70
      vertex -0.964488 1.51979 -70
    endloop
  endfacet
  facet normal 0 0 -1
    outer loop
      vertex -3.75079 5.91029 -70
      vertex -0.964488 1.51979 -70
      vertex -1.14736 1.38692 -70
    endloop
  endfacet
  facet normal 0 0 -1
    outer loop
      vertex -0.337286 1.76812 -70
      vertex -1.31167 6.87601 -70
      vertex -0.439533 6.98619 -70
    endloop
  endfacet
  facet normal 0 0 -1
    outer loop
      vertex -4.46197 5.39359 -70
      vertex -1.14736 1.38692 -70
      vertex -1.31214 1.23218 -70
    endloop
  endfacet
  facet normal 0 0 -1
    outer loop
      vertex -5.10278 4.79183 -70
      vertex -1.31214 1.23218 -70
      vertex -1.45623 1.05801 -70
    endloop
  endfacet
  facet normal 0 0 -1
    outer loop
      vertex -5.66312 4.1145 -70
      vertex -1.45623 1.05801 -70
      vertex -1.57735 0.867156 -70
    endloop
  endfacet
  facet normal 0 0 -1
    outer loop
      vertex -6.13415 3.37228 -70
      vertex -1.57735 0.867156 -70
      vertex -1.6736 0.662623 -70
    endloop
  endfacet
  facet normal 0 0 -1
    outer loop
      vertex -6.50844 2.57687 -70
      vertex -1.6736 0.662623 -70
      vertex -1.74345 0.447641 -70
    endloop
  endfacet
  facet normal 0 0 -1
    outer loop
      vertex -6.78008 1.74083 -70
      vertex -1.74345 0.447641 -70
      vertex -1.78581 0.225599 -70
    endloop
  endfacet
  facet normal 0 0 -1
    outer loop
      vertex -0.556231 1.7119 -70
      vertex -2.16312 6.6574 -70
      vertex -1.31167 6.87601 -70
    endloop
  endfacet
  facet normal 0 0 -1
    outer loop
      vertex -6.9448 0.877332 -70
      vertex -1.78581 0.225599 -70
      vertex -1.8 0 -70
    endloop
  endfacet
  facet normal -0 0 -1
    outer loop
      vertex -1.45623 -1.05801 -70
      vertex -5.66312 -4.1145 -70
      vertex -1.57735 -0.867156 -70
    endloop
  endfacet
  facet normal 0 0 -1
    outer loop
      vertex -6.13415 -3.37228 -70
      vertex -1.57735 -0.867156 -70
      vertex -5.66312 -4.1145 -70
    endloop
  endfacet
  facet normal 0 0 -1
    outer loop
      vertex -0.766402 1.62869 -70
      vertex -2.98045 6.33379 -70
      vertex -2.16312 6.6574 -70
    endloop
  endfacet
  facet normal -0 0 -1
    outer loop
      vertex -1.57735 -0.867156 -70
      vertex -6.13415 -3.37228 -70
      vertex -1.6736 -0.662623 -70
    endloop
  endfacet
  facet normal 0 0 -1
    outer loop
      vertex -0.964488 1.51979 -70
      vertex -3.75079 5.91029 -70
      vertex -2.98045 6.33379 -70
    endloop
  endfacet
  facet normal 0 0 -1
    outer loop
      vertex -6.50844 -2.57687 -70
      vertex -1.6736 -0.662623 -70
      vertex -6.13415 -3.37228 -70
    endloop
  endfacet
  facet normal 0 0 -1
    outer loop
      vertex -1.14736 1.38692 -70
      vertex -4.46197 5.39359 -70
      vertex -3.75079 5.91029 -70
    endloop
  endfacet
  facet normal -0 0 -1
    outer loop
      vertex -1.6736 -0.662623 -70
      vertex -6.50844 -2.57687 -70
      vertex -1.74345 -0.447641 -70
    endloop
  endfacet
  facet normal 0 0 -1
    outer loop
      vertex -1.31214 1.23218 -70
      vertex -5.10278 4.79183 -70
      vertex -4.46197 5.39359 -70
    endloop
  endfacet
  facet normal 0 0 -1
    outer loop
      vertex -6.78008 -1.74083 -70
      vertex -1.74345 -0.447641 -70
      vertex -6.50844 -2.57687 -70
    endloop
  endfacet
  facet normal 0 0 -1
    outer loop
      vertex -1.45623 1.05801 -70
      vertex -5.66312 4.1145 -70
      vertex -5.10278 4.79183 -70
    endloop
  endfacet
  facet normal -0 0 -1
    outer loop
      vertex -1.74345 -0.447641 -70
      vertex -6.78008 -1.74083 -70
      vertex -1.78581 -0.225599 -70
    endloop
  endfacet
  facet normal 0 0 -1
    outer loop
      vertex -1.57735 0.867156 -70
      vertex -6.13415 3.37228 -70
      vertex -5.66312 4.1145 -70
    endloop
  endfacet
  facet normal 0 0 -1
    outer loop
      vertex -6.9448 -0.877332 -70
      vertex -1.78581 -0.225599 -70
      vertex -6.78008 -1.74083 -70
    endloop
  endfacet
  facet normal 0 0 -1
    outer loop
      vertex -1.6736 0.662623 -70
      vertex -6.50844 2.57687 -70
      vertex -6.13415 3.37228 -70
    endloop
  endfacet
  facet normal -0 0 -1
    outer loop
      vertex -1.78581 -0.225599 -70
      vertex -6.9448 -0.877332 -70
      vertex -1.8 0 -70
    endloop
  endfacet
  facet normal 0 0 -1
    outer loop
      vertex -1.74345 0.447641 -70
      vertex -6.78008 1.74083 -70
      vertex -6.50844 2.57687 -70
    endloop
  endfacet
  facet normal 0 0 -1
    outer loop
      vertex -7 0 -70
      vertex -1.8 0 -70
      vertex -6.9448 -0.877332 -70
    endloop
  endfacet
  facet normal 0 0 -1
    outer loop
      vertex -1.78581 0.225599 -70
      vertex -6.9448 0.877332 -70
      vertex -6.78008 1.74083 -70
    endloop
  endfacet
  facet normal 0 0 -1
    outer loop
      vertex -1.8 0 -70
      vertex -7 0 -70
      vertex -6.9448 0.877332 -70
    endloop
  endfacet
  facet normal 0.481755 -0.876306 0
    outer loop
      vertex 2.98045 -6.33379 -70
      vertex 3.75079 -5.91029 -6
      vertex 2.98045 -6.33379 -6
    endloop
  endfacet
  facet normal 0.481755 -0.876306 0
    outer loop
      vertex 3.75079 -5.91029 -6
      vertex 2.98045 -6.33379 -70
      vertex 3.75079 -5.91029 -70
    endloop
  endfacet
  facet normal 0.951058 -0.309011 0
    outer loop
      vertex 6.50844 -2.57687 -6
      vertex 6.78008 -1.74083 -70
      vertex 6.78008 -1.74083 -6
    endloop
  endfacet
  facet normal 0.951058 -0.309011 0
    outer loop
      vertex 6.78008 -1.74083 -70
      vertex 6.50844 -2.57687 -6
      vertex 6.50844 -2.57687 -70
    endloop
  endfacet
  facet normal -0.770511 -0.637427 0
    outer loop
      vertex -5.10278 -4.79183 -70
      vertex -5.66312 -4.1145 -6
      vertex -5.66312 -4.1145 -70
    endloop
  endfacet
  facet normal -0.770511 -0.637427 0
    outer loop
      vertex -5.66312 -4.1145 -6
      vertex -5.10278 -4.79183 -70
      vertex -5.10278 -4.79183 -6
    endloop
  endfacet
  facet normal -0.951058 -0.309011 0
    outer loop
      vertex -6.50844 -2.57687 -70
      vertex -6.78008 -1.74083 -6
      vertex -6.78008 -1.74083 -70
    endloop
  endfacet
  facet normal -0.951058 -0.309011 0
    outer loop
      vertex -6.78008 -1.74083 -6
      vertex -6.50844 -2.57687 -70
      vertex -6.50844 -2.57687 -6
    endloop
  endfacet
  facet normal 0.684547 -0.728969 0
    outer loop
      vertex 4.46197 -5.39359 -70
      vertex 5.10278 -4.79183 -6
      vertex 4.46197 -5.39359 -6
    endloop
  endfacet
  facet normal 0.684547 -0.728969 0
    outer loop
      vertex 5.10278 -4.79183 -6
      vertex 4.46197 -5.39359 -70
      vertex 5.10278 -4.79183 -70
    endloop
  endfacet
  facet normal 0.368131 -0.929774 0
    outer loop
      vertex 2.16312 -6.6574 -70
      vertex 2.98045 -6.33379 -6
      vertex 2.16312 -6.6574 -6
    endloop
  endfacet
  facet normal 0.368131 -0.929774 0
    outer loop
      vertex 2.98045 -6.33379 -6
      vertex 2.16312 -6.6574 -70
      vertex 2.98045 -6.33379 -70
    endloop
  endfacet
  facet normal 0.248684 -0.968585 0
    outer loop
      vertex 1.31167 -6.87601 -70
      vertex 2.16312 -6.6574 -6
      vertex 1.31167 -6.87601 -6
    endloop
  endfacet
  facet normal 0.248684 -0.968585 0
    outer loop
      vertex 2.16312 -6.6574 -6
      vertex 1.31167 -6.87601 -70
      vertex 2.16312 -6.6574 -70
    endloop
  endfacet
  facet normal 0.982287 -0.18738 0
    outer loop
      vertex 6.78008 -1.74083 -6
      vertex 6.9448 -0.877332 -70
      vertex 6.9448 -0.877332 -6
    endloop
  endfacet
  facet normal 0.982287 -0.18738 0
    outer loop
      vertex 6.9448 -0.877332 -70
      vertex 6.78008 -1.74083 -6
      vertex 6.78008 -1.74083 -70
    endloop
  endfacet
  facet normal 0.844326 -0.535829 0
    outer loop
      vertex 5.66312 -4.1145 -6
      vertex 6.13415 -3.37228 -70
      vertex 6.13415 -3.37228 -6
    endloop
  endfacet
  facet normal 0.844326 -0.535829 0
    outer loop
      vertex 6.13415 -3.37228 -70
      vertex 5.66312 -4.1145 -6
      vertex 5.66312 -4.1145 -70
    endloop
  endfacet
  facet normal 0.770511 -0.637427 0
    outer loop
      vertex 5.10278 -4.79183 -6
      vertex 5.66312 -4.1145 -70
      vertex 5.66312 -4.1145 -6
    endloop
  endfacet
  facet normal 0.770511 -0.637427 0
    outer loop
      vertex 5.66312 -4.1145 -70
      vertex 5.10278 -4.79183 -6
      vertex 5.10278 -4.79183 -70
    endloop
  endfacet
  facet normal -0.125337 -0.992114 0
    outer loop
      vertex -1.31167 -6.87601 -70
      vertex -0.439533 -6.98619 -6
      vertex -1.31167 -6.87601 -6
    endloop
  endfacet
  facet normal -0.125337 -0.992114 -0
    outer loop
      vertex -0.439533 -6.98619 -6
      vertex -1.31167 -6.87601 -70
      vertex -0.439533 -6.98619 -70
    endloop
  endfacet
  facet normal -0.368131 -0.929774 0
    outer loop
      vertex -2.98045 -6.33379 -70
      vertex -2.16312 -6.6574 -6
      vertex -2.98045 -6.33379 -6
    endloop
  endfacet
  facet normal -0.368131 -0.929774 -0
    outer loop
      vertex -2.16312 -6.6574 -6
      vertex -2.98045 -6.33379 -70
      vertex -2.16312 -6.6574 -70
    endloop
  endfacet
  facet normal -0.481755 -0.876306 0
    outer loop
      vertex -3.75079 -5.91029 -70
      vertex -2.98045 -6.33379 -6
      vertex -3.75079 -5.91029 -6
    endloop
  endfacet
  facet normal -0.481755 -0.876306 -0
    outer loop
      vertex -2.98045 -6.33379 -6
      vertex -3.75079 -5.91029 -70
      vertex -2.98045 -6.33379 -70
    endloop
  endfacet
  facet normal -0.248684 -0.968585 0
    outer loop
      vertex -2.16312 -6.6574 -70
      vertex -1.31167 -6.87601 -6
      vertex -2.16312 -6.6574 -6
    endloop
  endfacet
  facet normal -0.248684 -0.968585 -0
    outer loop
      vertex -1.31167 -6.87601 -6
      vertex -2.16312 -6.6574 -70
      vertex -1.31167 -6.87601 -70
    endloop
  endfacet
  facet normal -0.982287 -0.18738 0
    outer loop
      vertex -6.78008 -1.74083 -70
      vertex -6.9448 -0.877332 -6
      vertex -6.9448 -0.877332 -70
    endloop
  endfacet
  facet normal -0.982287 -0.18738 0
    outer loop
      vertex -6.9448 -0.877332 -6
      vertex -6.78008 -1.74083 -70
      vertex -6.78008 -1.74083 -6
    endloop
  endfacet
  facet normal -0.998027 -0.0627939 0
    outer loop
      vertex -6.9448 -0.877332 -70
      vertex -7 0 -6
      vertex -7 0 -70
    endloop
  endfacet
  facet normal -0.998027 -0.0627939 0
    outer loop
      vertex -7 0 -6
      vertex -6.9448 -0.877332 -70
      vertex -6.9448 -0.877332 -6
    endloop
  endfacet
  facet normal 0.587783 -0.809018 0
    outer loop
      vertex 3.75079 -5.91029 -70
      vertex 4.46197 -5.39359 -6
      vertex 3.75079 -5.91029 -6
    endloop
  endfacet
  facet normal 0.587783 -0.809018 0
    outer loop
      vertex 4.46197 -5.39359 -6
      vertex 3.75079 -5.91029 -70
      vertex 4.46197 -5.39359 -70
    endloop
  endfacet
  facet normal -0.587783 -0.809018 0
    outer loop
      vertex -4.46197 -5.39359 -70
      vertex -3.75079 -5.91029 -6
      vertex -4.46197 -5.39359 -6
    endloop
  endfacet
  facet normal -0.587783 -0.809018 -0
    outer loop
      vertex -3.75079 -5.91029 -6
      vertex -4.46197 -5.39359 -70
      vertex -3.75079 -5.91029 -70
    endloop
  endfacet
  facet normal -0.684547 -0.728969 0
    outer loop
      vertex -5.10278 -4.79183 -70
      vertex -4.46197 -5.39359 -6
      vertex -5.10278 -4.79183 -6
    endloop
  endfacet
  facet normal -0.684547 -0.728969 -0
    outer loop
      vertex -4.46197 -5.39359 -6
      vertex -5.10278 -4.79183 -70
      vertex -4.46197 -5.39359 -70
    endloop
  endfacet
  facet normal 0.904829 0.425775 0
    outer loop
      vertex 12.0871 4.78562 0
      vertex 11.392 6.2628 -6
      vertex 11.392 6.2628 0
    endloop
  endfacet
  facet normal 0.904829 0.425775 0
    outer loop
      vertex 11.392 6.2628 -6
      vertex 12.0871 4.78562 0
      vertex 12.0871 4.78562 -6
    endloop
  endfacet
  facet normal 0.998027 -0.0627852 0
    outer loop
      vertex 12.8975 -1.62933 0
      vertex 13 0 -6
      vertex 13 0 0
    endloop
  endfacet
  facet normal 0.998027 -0.0627852 0
    outer loop
      vertex 13 0 -6
      vertex 12.8975 -1.62933 0
      vertex 12.8975 -1.62933 -6
    endloop
  endfacet
  facet normal 0.844318 0.535842 0
    outer loop
      vertex 11.392 6.2628 0
      vertex 10.5172 7.64121 -6
      vertex 10.5172 7.64121 0
    endloop
  endfacet
  facet normal 0.844318 0.535842 0
    outer loop
      vertex 10.5172 7.64121 -6
      vertex 11.392 6.2628 0
      vertex 11.392 6.2628 -6
    endloop
  endfacet
  facet normal 0.368081 0.929794 -0
    outer loop
      vertex 5.53513 11.7628 -6
      vertex 4.01722 12.3637 0
      vertex 5.53513 11.7628 0
    endloop
  endfacet
  facet normal 0.368081 0.929794 0
    outer loop
      vertex 4.01722 12.3637 0
      vertex 5.53513 11.7628 -6
      vertex 4.01722 12.3637 -6
    endloop
  endfacet
  facet normal -0.368081 0.929794 0
    outer loop
      vertex -4.01722 12.3637 -6
      vertex -5.53513 11.7628 0
      vertex -4.01722 12.3637 0
    endloop
  endfacet
  facet normal -0.368081 0.929794 0
    outer loop
      vertex -5.53513 11.7628 0
      vertex -4.01722 12.3637 -6
      vertex -5.53513 11.7628 -6
    endloop
  endfacet
  facet normal -0.904829 0.425775 0
    outer loop
      vertex -12.0871 4.78562 -6
      vertex -11.392 6.2628 0
      vertex -11.392 6.2628 -6
    endloop
  endfacet
  facet normal -0.904829 0.425775 0
    outer loop
      vertex -11.392 6.2628 0
      vertex -12.0871 4.78562 -6
      vertex -12.0871 4.78562 0
    endloop
  endfacet
  facet normal 0.368081 -0.929794 0
    outer loop
      vertex 4.01722 -12.3637 -6
      vertex 5.53513 -11.7628 0
      vertex 4.01722 -12.3637 0
    endloop
  endfacet
  facet normal 0.368081 -0.929794 0
    outer loop
      vertex 5.53513 -11.7628 0
      vertex 4.01722 -12.3637 -6
      vertex 5.53513 -11.7628 -6
    endloop
  endfacet
  facet normal 0.684557 0.728959 -0
    outer loop
      vertex 9.47659 8.89911 -6
      vertex 8.28651 10.0167 0
      vertex 9.47659 8.89911 0
    endloop
  endfacet
  facet normal 0.684557 0.728959 0
    outer loop
      vertex 8.28651 10.0167 0
      vertex 9.47659 8.89911 -6
      vertex 8.28651 10.0167 -6
    endloop
  endfacet
  facet normal 0 1 -0
    outer loop
      vertex 0.816277 12.9743 -6
      vertex -0.816277 12.9743 0
      vertex 0.816277 12.9743 0
    endloop
  endfacet
  facet normal 0 1 0
    outer loop
      vertex -0.816277 12.9743 0
      vertex 0.816277 12.9743 -6
      vertex -0.816277 12.9743 -6
    endloop
  endfacet
  facet normal -0.998027 0.0627852 0
    outer loop
      vertex -13 0 -6
      vertex -12.8975 1.62933 0
      vertex -12.8975 1.62933 -6
    endloop
  endfacet
  facet normal -0.998027 0.0627852 0
    outer loop
      vertex -12.8975 1.62933 0
      vertex -13 0 -6
      vertex -13 0 0
    endloop
  endfacet
  facet normal -0.982288 0.187375 0
    outer loop
      vertex -12.8975 1.62933 -6
      vertex -12.5916 3.23297 0
      vertex -12.5916 3.23297 -6
    endloop
  endfacet
  facet normal -0.982288 0.187375 0
    outer loop
      vertex -12.5916 3.23297 0
      vertex -12.8975 1.62933 -6
      vertex -12.8975 1.62933 0
    endloop
  endfacet
  facet normal -0.770518 0.637418 0
    outer loop
      vertex -10.5172 7.64121 -6
      vertex -9.47659 8.89911 0
      vertex -9.47659 8.89911 -6
    endloop
  endfacet
  facet normal -0.770518 0.637418 0
    outer loop
      vertex -9.47659 8.89911 0
      vertex -10.5172 7.64121 -6
      vertex -10.5172 7.64121 0
    endloop
  endfacet
  facet normal -0.684557 0.728959 0
    outer loop
      vertex -8.28651 10.0167 -6
      vertex -9.47659 8.89911 0
      vertex -8.28651 10.0167 0
    endloop
  endfacet
  facet normal -0.684557 0.728959 0
    outer loop
      vertex -9.47659 8.89911 0
      vertex -8.28651 10.0167 -6
      vertex -9.47659 8.89911 -6
    endloop
  endfacet
  facet normal 0.248691 -0.968583 0
    outer loop
      vertex 2.43596 -12.7697 -6
      vertex 4.01722 -12.3637 0
      vertex 2.43596 -12.7697 0
    endloop
  endfacet
  facet normal 0.248691 -0.968583 0
    outer loop
      vertex 4.01722 -12.3637 0
      vertex 2.43596 -12.7697 -6
      vertex 4.01722 -12.3637 -6
    endloop
  endfacet
  facet normal 0.982288 0.187375 0
    outer loop
      vertex 12.8975 1.62933 0
      vertex 12.5916 3.23297 -6
      vertex 12.5916 3.23297 0
    endloop
  endfacet
  facet normal 0.982288 0.187375 0
    outer loop
      vertex 12.5916 3.23297 -6
      vertex 12.8975 1.62933 0
      vertex 12.8975 1.62933 -6
    endloop
  endfacet
  facet normal 0.951054 0.309024 0
    outer loop
      vertex 12.5916 3.23297 0
      vertex 12.0871 4.78562 -6
      vertex 12.0871 4.78562 0
    endloop
  endfacet
  facet normal 0.951054 0.309024 0
    outer loop
      vertex 12.0871 4.78562 -6
      vertex 12.5916 3.23297 0
      vertex 12.5916 3.23297 -6
    endloop
  endfacet
  facet normal 0.770518 0.637418 0
    outer loop
      vertex 10.5172 7.64121 0
      vertex 9.47659 8.89911 -6
      vertex 9.47659 8.89911 0
    endloop
  endfacet
  facet normal 0.770518 0.637418 0
    outer loop
      vertex 9.47659 8.89911 -6
      vertex 10.5172 7.64121 0
      vertex 10.5172 7.64121 -6
    endloop
  endfacet
  facet normal 0.248691 0.968583 -0
    outer loop
      vertex 4.01722 12.3637 -6
      vertex 2.43596 12.7697 0
      vertex 4.01722 12.3637 0
    endloop
  endfacet
  facet normal 0.248691 0.968583 0
    outer loop
      vertex 2.43596 12.7697 0
      vertex 4.01722 12.3637 -6
      vertex 2.43596 12.7697 -6
    endloop
  endfacet
  facet normal 0.125325 0.992116 -0
    outer loop
      vertex 2.43596 12.7697 -6
      vertex 0.816277 12.9743 0
      vertex 2.43596 12.7697 0
    endloop
  endfacet
  facet normal 0.125325 0.992116 0
    outer loop
      vertex 0.816277 12.9743 0
      vertex 2.43596 12.7697 -6
      vertex 0.816277 12.9743 -6
    endloop
  endfacet
  facet normal 0.58779 0.809014 -0
    outer loop
      vertex 8.28651 10.0167 -6
      vertex 6.96575 10.9763 0
      vertex 8.28651 10.0167 0
    endloop
  endfacet
  facet normal 0.58779 0.809014 0
    outer loop
      vertex 6.96575 10.9763 0
      vertex 8.28651 10.0167 -6
      vertex 6.96575 10.9763 -6
    endloop
  endfacet
  facet normal 0.481758 0.876304 -0
    outer loop
      vertex 6.96575 10.9763 -6
      vertex 5.53513 11.7628 0
      vertex 6.96575 10.9763 0
    endloop
  endfacet
  facet normal 0.481758 0.876304 0
    outer loop
      vertex 5.53513 11.7628 0
      vertex 6.96575 10.9763 -6
      vertex 5.53513 11.7628 -6
    endloop
  endfacet
  facet normal -0.951054 0.309024 0
    outer loop
      vertex -12.5916 3.23297 -6
      vertex -12.0871 4.78562 0
      vertex -12.0871 4.78562 -6
    endloop
  endfacet
  facet normal -0.951054 0.309024 0
    outer loop
      vertex -12.0871 4.78562 0
      vertex -12.5916 3.23297 -6
      vertex -12.5916 3.23297 0
    endloop
  endfacet
  facet normal -0.844318 0.535842 0
    outer loop
      vertex -11.392 6.2628 -6
      vertex -10.5172 7.64121 0
      vertex -10.5172 7.64121 -6
    endloop
  endfacet
  facet normal -0.844318 0.535842 0
    outer loop
      vertex -10.5172 7.64121 0
      vertex -11.392 6.2628 -6
      vertex -11.392 6.2628 0
    endloop
  endfacet
  facet normal -0.125325 0.992116 0
    outer loop
      vertex -0.816277 12.9743 -6
      vertex -2.43596 12.7697 0
      vertex -0.816277 12.9743 0
    endloop
  endfacet
  facet normal -0.125325 0.992116 0
    outer loop
      vertex -2.43596 12.7697 0
      vertex -0.816277 12.9743 -6
      vertex -2.43596 12.7697 -6
    endloop
  endfacet
  facet normal -0.248691 0.968583 0
    outer loop
      vertex -2.43596 12.7697 -6
      vertex -4.01722 12.3637 0
      vertex -2.43596 12.7697 0
    endloop
  endfacet
  facet normal -0.248691 0.968583 0
    outer loop
      vertex -4.01722 12.3637 0
      vertex -2.43596 12.7697 -6
      vertex -4.01722 12.3637 -6
    endloop
  endfacet
  facet normal -0.481758 0.876304 0
    outer loop
      vertex -5.53513 11.7628 -6
      vertex -6.96575 10.9763 0
      vertex -5.53513 11.7628 0
    endloop
  endfacet
  facet normal -0.481758 0.876304 0
    outer loop
      vertex -6.96575 10.9763 0
      vertex -5.53513 11.7628 -6
      vertex -6.96575 10.9763 -6
    endloop
  endfacet
  facet normal -0.58779 0.809014 0
    outer loop
      vertex -6.96575 10.9763 -6
      vertex -8.28651 10.0167 0
      vertex -6.96575 10.9763 0
    endloop
  endfacet
  facet normal -0.58779 0.809014 0
    outer loop
      vertex -8.28651 10.0167 0
      vertex -6.96575 10.9763 -6
      vertex -8.28651 10.0167 -6
    endloop
  endfacet
  facet normal 0.998027 0.0627852 0
    outer loop
      vertex 13 0 0
      vertex 12.8975 1.62933 -6
      vertex 12.8975 1.62933 0
    endloop
  endfacet
  facet normal 0.998027 0.0627852 0
    outer loop
      vertex 12.8975 1.62933 -6
      vertex 13 0 0
      vertex 13 0 -6
    endloop
  endfacet
  facet normal -0.998027 -0.0627852 0
    outer loop
      vertex -12.8975 -1.62933 -6
      vertex -13 0 0
      vertex -13 0 -6
    endloop
  endfacet
  facet normal -0.998027 -0.0627852 0
    outer loop
      vertex -13 0 0
      vertex -12.8975 -1.62933 -6
      vertex -12.8975 -1.62933 0
    endloop
  endfacet
  facet normal -0.982288 -0.187375 0
    outer loop
      vertex -12.5916 -3.23297 -6
      vertex -12.8975 -1.62933 0
      vertex -12.8975 -1.62933 -6
    endloop
  endfacet
  facet normal -0.982288 -0.187375 0
    outer loop
      vertex -12.8975 -1.62933 0
      vertex -12.5916 -3.23297 -6
      vertex -12.5916 -3.23297 0
    endloop
  endfacet
  facet normal 0.125325 -0.992116 0
    outer loop
      vertex 0.816277 -12.9743 -6
      vertex 2.43596 -12.7697 0
      vertex 0.816277 -12.9743 0
    endloop
  endfacet
  facet normal 0.125325 -0.992116 0
    outer loop
      vertex 2.43596 -12.7697 0
      vertex 0.816277 -12.9743 -6
      vertex 2.43596 -12.7697 -6
    endloop
  endfacet
  facet normal 0.982288 -0.187375 0
    outer loop
      vertex 12.5916 -3.23297 0
      vertex 12.8975 -1.62933 -6
      vertex 12.8975 -1.62933 0
    endloop
  endfacet
  facet normal 0.982288 -0.187375 0
    outer loop
      vertex 12.8975 -1.62933 -6
      vertex 12.5916 -3.23297 0
      vertex 12.5916 -3.23297 -6
    endloop
  endfacet
  facet normal 0.951054 -0.309024 0
    outer loop
      vertex 12.0871 -4.78562 0
      vertex 12.5916 -3.23297 -6
      vertex 12.5916 -3.23297 0
    endloop
  endfacet
  facet normal 0.951054 -0.309024 0
    outer loop
      vertex 12.5916 -3.23297 -6
      vertex 12.0871 -4.78562 0
      vertex 12.0871 -4.78562 -6
    endloop
  endfacet
  facet normal -0.368081 -0.929794 0
    outer loop
      vertex -5.53513 -11.7628 -6
      vertex -4.01722 -12.3637 0
      vertex -5.53513 -11.7628 0
    endloop
  endfacet
  facet normal -0.368081 -0.929794 -0
    outer loop
      vertex -4.01722 -12.3637 0
      vertex -5.53513 -11.7628 -6
      vertex -4.01722 -12.3637 -6
    endloop
  endfacet
  facet normal 0 -1 0
    outer loop
      vertex -0.816277 -12.9743 -6
      vertex 0.816277 -12.9743 0
      vertex -0.816277 -12.9743 0
    endloop
  endfacet
  facet normal 0 -1 -0
    outer loop
      vertex 0.816277 -12.9743 0
      vertex -0.816277 -12.9743 -6
      vertex 0.816277 -12.9743 -6
    endloop
  endfacet
  facet normal 0 0 -1
    outer loop
      vertex 7 0 -6
      vertex 13 0 -6
      vertex 12.8975 -1.62933 -6
    endloop
  endfacet
  facet normal 0 0 -1
    outer loop
      vertex 6.9448 -0.877332 -6
      vertex 12.8975 -1.62933 -6
      vertex 12.5916 -3.23297 -6
    endloop
  endfacet
  facet normal 0 0 -1
    outer loop
      vertex 13 0 -6
      vertex 7 0 -6
      vertex 12.8975 1.62933 -6
    endloop
  endfacet
  facet normal 0 0 -1
    outer loop
      vertex 6.78008 -1.74083 -6
      vertex 12.5916 -3.23297 -6
      vertex 12.0871 -4.78562 -6
    endloop
  endfacet
  facet normal 0 0 -1
    outer loop
      vertex 6.9448 0.877332 -6
      vertex 12.8975 1.62933 -6
      vertex 7 0 -6
    endloop
  endfacet
  facet normal 0 0 -1
    outer loop
      vertex 6.50844 -2.57687 -6
      vertex 12.0871 -4.78562 -6
      vertex 11.392 -6.2628 -6
    endloop
  endfacet
  facet normal -0 0 -1
    outer loop
      vertex 12.8975 1.62933 -6
      vertex 6.9448 0.877332 -6
      vertex 12.5916 3.23297 -6
    endloop
  endfacet
  facet normal 0 0 -1
    outer loop
      vertex 6.13415 -3.37228 -6
      vertex 11.392 -6.2628 -6
      vertex 10.5172 -7.64121 -6
    endloop
  endfacet
  facet normal 0 0 -1
    outer loop
      vertex 6.78008 1.74083 -6
      vertex 12.5916 3.23297 -6
      vertex 6.9448 0.877332 -6
    endloop
  endfacet
  facet normal 0 0 -1
    outer loop
      vertex 5.66312 -4.1145 -6
      vertex 10.5172 -7.64121 -6
      vertex 9.47659 -8.89911 -6
    endloop
  endfacet
  facet normal -0 0 -1
    outer loop
      vertex 12.5916 3.23297 -6
      vertex 6.78008 1.74083 -6
      vertex 12.0871 4.78562 -6
    endloop
  endfacet
  facet normal 0 0 -1
    outer loop
      vertex 5.10278 -4.79183 -6
      vertex 9.47659 -8.89911 -6
      vertex 8.28651 -10.0167 -6
    endloop
  endfacet
  facet normal 0 0 -1
    outer loop
      vertex 6.50844 2.57687 -6
      vertex 12.0871 4.78562 -6
      vertex 6.78008 1.74083 -6
    endloop
  endfacet
  facet normal -0 0 -1
    outer loop
      vertex 12.0871 4.78562 -6
      vertex 6.50844 2.57687 -6
      vertex 11.392 6.2628 -6
    endloop
  endfacet
  facet normal 0 0 -1
    outer loop
      vertex 4.46197 -5.39359 -6
      vertex 8.28651 -10.0167 -6
      vertex 6.96575 -10.9763 -6
    endloop
  endfacet
  facet normal 0 0 -1
    outer loop
      vertex 12.8975 -1.62933 -6
      vertex 6.9448 -0.877332 -6
      vertex 7 0 -6
    endloop
  endfacet
  facet normal 0 0 -1
    outer loop
      vertex 12.5916 -3.23297 -6
      vertex 6.78008 -1.74083 -6
      vertex 6.9448 -0.877332 -6
    endloop
  endfacet
  facet normal 0 0 -1
    outer loop
      vertex 12.0871 -4.78562 -6
      vertex 6.50844 -2.57687 -6
      vertex 6.78008 -1.74083 -6
    endloop
  endfacet
  facet normal 0 0 -1
    outer loop
      vertex 11.392 -6.2628 -6
      vertex 6.13415 -3.37228 -6
      vertex 6.50844 -2.57687 -6
    endloop
  endfacet
  facet normal 0 0 -1
    outer loop
      vertex 10.5172 -7.64121 -6
      vertex 5.66312 -4.1145 -6
      vertex 6.13415 -3.37228 -6
    endloop
  endfacet
  facet normal 0 0 -1
    outer loop
      vertex 3.75079 -5.91029 -6
      vertex 6.96575 -10.9763 -6
      vertex 5.53513 -11.7628 -6
    endloop
  endfacet
  facet normal 0 0 -1
    outer loop
      vertex 9.47659 -8.89911 -6
      vertex 5.10278 -4.79183 -6
      vertex 5.66312 -4.1145 -6
    endloop
  endfacet
  facet normal 0 0 -1
    outer loop
      vertex 8.28651 -10.0167 -6
      vertex 4.46197 -5.39359 -6
      vertex 5.10278 -4.79183 -6
    endloop
  endfacet
  facet normal 0 0 -1
    outer loop
      vertex 2.98045 -6.33379 -6
      vertex 5.53513 -11.7628 -6
      vertex 4.01722 -12.3637 -6
    endloop
  endfacet
  facet normal 0 0 -1
    outer loop
      vertex 6.96575 -10.9763 -6
      vertex 3.75079 -5.91029 -6
      vertex 4.46197 -5.39359 -6
    endloop
  endfacet
  facet normal 0 0 -1
    outer loop
      vertex 5.53513 -11.7628 -6
      vertex 2.98045 -6.33379 -6
      vertex 3.75079 -5.91029 -6
    endloop
  endfacet
  facet normal 0 0 -1
    outer loop
      vertex 2.16312 -6.6574 -6
      vertex 4.01722 -12.3637 -6
      vertex 2.43596 -12.7697 -6
    endloop
  endfacet
  facet normal 0 0 -1
    outer loop
      vertex 4.01722 -12.3637 -6
      vertex 2.16312 -6.6574 -6
      vertex 2.98045 -6.33379 -6
    endloop
  endfacet
  facet normal 0 0 -1
    outer loop
      vertex 2.43596 -12.7697 -6
      vertex 1.31167 -6.87601 -6
      vertex 2.16312 -6.6574 -6
    endloop
  endfacet
  facet normal 0 0 -1
    outer loop
      vertex 0.816277 -12.9743 -6
      vertex 1.31167 -6.87601 -6
      vertex 2.43596 -12.7697 -6
    endloop
  endfacet
  facet normal 0 0 -1
    outer loop
      vertex 0.816277 -12.9743 -6
      vertex 0.439533 -6.98619 -6
      vertex 1.31167 -6.87601 -6
    endloop
  endfacet
  facet normal 0 0 -1
    outer loop
      vertex 0.816277 -12.9743 -6
      vertex -0.439533 -6.98619 -6
      vertex 0.439533 -6.98619 -6
    endloop
  endfacet
  facet normal 0 0 -1
    outer loop
      vertex -0.816277 -12.9743 -6
      vertex -0.439533 -6.98619 -6
      vertex 0.816277 -12.9743 -6
    endloop
  endfacet
  facet normal 0 0 -1
    outer loop
      vertex -0.816277 -12.9743 -6
      vertex -1.31167 -6.87601 -6
      vertex -0.439533 -6.98619 -6
    endloop
  endfacet
  facet normal 0 0 -1
    outer loop
      vertex -2.43596 -12.7697 -6
      vertex -1.31167 -6.87601 -6
      vertex -0.816277 -12.9743 -6
    endloop
  endfacet
  facet normal -0 0 -1
    outer loop
      vertex -1.31167 -6.87601 -6
      vertex -2.43596 -12.7697 -6
      vertex -2.16312 -6.6574 -6
    endloop
  endfacet
  facet normal 0 0 -1
    outer loop
      vertex -4.01722 -12.3637 -6
      vertex -2.16312 -6.6574 -6
      vertex -2.43596 -12.7697 -6
    endloop
  endfacet
  facet normal -0 0 -1
    outer loop
      vertex -2.16312 -6.6574 -6
      vertex -4.01722 -12.3637 -6
      vertex -2.98045 -6.33379 -6
    endloop
  endfacet
  facet normal 0 0 -1
    outer loop
      vertex -5.53513 -11.7628 -6
      vertex -2.98045 -6.33379 -6
      vertex -4.01722 -12.3637 -6
    endloop
  endfacet
  facet normal -0 0 -1
    outer loop
      vertex -2.98045 -6.33379 -6
      vertex -5.53513 -11.7628 -6
      vertex -3.75079 -5.91029 -6
    endloop
  endfacet
  facet normal 0 0 -1
    outer loop
      vertex -6.96575 -10.9763 -6
      vertex -3.75079 -5.91029 -6
      vertex -5.53513 -11.7628 -6
    endloop
  endfacet
  facet normal -0 0 -1
    outer loop
      vertex -3.75079 -5.91029 -6
      vertex -6.96575 -10.9763 -6
      vertex -4.46197 -5.39359 -6
    endloop
  endfacet
  facet normal 0 0 -1
    outer loop
      vertex -8.28651 -10.0167 -6
      vertex -4.46197 -5.39359 -6
      vertex -6.96575 -10.9763 -6
    endloop
  endfacet
  facet normal -0 0 -1
    outer loop
      vertex -4.46197 -5.39359 -6
      vertex -8.28651 -10.0167 -6
      vertex -5.10278 -4.79183 -6
    endloop
  endfacet
  facet normal 0 0 -1
    outer loop
      vertex -9.47659 -8.89911 -6
      vertex -5.10278 -4.79183 -6
      vertex -8.28651 -10.0167 -6
    endloop
  endfacet
  facet normal -0 0 -1
    outer loop
      vertex -5.10278 -4.79183 -6
      vertex -9.47659 -8.89911 -6
      vertex -5.66312 -4.1145 -6
    endloop
  endfacet
  facet normal 0 0 -1
    outer loop
      vertex -10.5172 -7.64121 -6
      vertex -5.66312 -4.1145 -6
      vertex -9.47659 -8.89911 -6
    endloop
  endfacet
  facet normal -0 0 -1
    outer loop
      vertex -5.66312 -4.1145 -6
      vertex -10.5172 -7.64121 -6
      vertex -6.13415 -3.37228 -6
    endloop
  endfacet
  facet normal 0 0 -1
    outer loop
      vertex -11.392 -6.2628 -6
      vertex -6.13415 -3.37228 -6
      vertex -10.5172 -7.64121 -6
    endloop
  endfacet
  facet normal -0 0 -1
    outer loop
      vertex -6.13415 -3.37228 -6
      vertex -11.392 -6.2628 -6
      vertex -6.50844 -2.57687 -6
    endloop
  endfacet
  facet normal 0 0 -1
    outer loop
      vertex 6.13415 3.37228 -6
      vertex 11.392 6.2628 -6
      vertex 6.50844 2.57687 -6
    endloop
  endfacet
  facet normal -0 0 -1
    outer loop
      vertex 11.392 6.2628 -6
      vertex 6.13415 3.37228 -6
      vertex 10.5172 7.64121 -6
    endloop
  endfacet
  facet normal 0 0 -1
    outer loop
      vertex 5.66312 4.1145 -6
      vertex 10.5172 7.64121 -6
      vertex 6.13415 3.37228 -6
    endloop
  endfacet
  facet normal -0 0 -1
    outer loop
      vertex 10.5172 7.64121 -6
      vertex 5.66312 4.1145 -6
      vertex 9.47659 8.89911 -6
    endloop
  endfacet
  facet normal 0 0 -1
    outer loop
      vertex 5.10278 4.79183 -6
      vertex 9.47659 8.89911 -6
      vertex 5.66312 4.1145 -6
    endloop
  endfacet
  facet normal -0 0 -1
    outer loop
      vertex 9.47659 8.89911 -6
      vertex 5.10278 4.79183 -6
      vertex 8.28651 10.0167 -6
    endloop
  endfacet
  facet normal 0 0 -1
    outer loop
      vertex 4.46197 5.39359 -6
      vertex 8.28651 10.0167 -6
      vertex 5.10278 4.79183 -6
    endloop
  endfacet
  facet normal -0 0 -1
    outer loop
      vertex 8.28651 10.0167 -6
      vertex 4.46197 5.39359 -6
      vertex 6.96575 10.9763 -6
    endloop
  endfacet
  facet normal 0 0 -1
    outer loop
      vertex 3.75079 5.91029 -6
      vertex 6.96575 10.9763 -6
      vertex 4.46197 5.39359 -6
    endloop
  endfacet
  facet normal -0 0 -1
    outer loop
      vertex 6.96575 10.9763 -6
      vertex 3.75079 5.91029 -6
      vertex 5.53513 11.7628 -6
    endloop
  endfacet
  facet normal 0 0 -1
    outer loop
      vertex 2.98045 6.33379 -6
      vertex 5.53513 11.7628 -6
      vertex 3.75079 5.91029 -6
    endloop
  endfacet
  facet normal -0 0 -1
    outer loop
      vertex 5.53513 11.7628 -6
      vertex 2.98045 6.33379 -6
      vertex 4.01722 12.3637 -6
    endloop
  endfacet
  facet normal 0 0 -1
    outer loop
      vertex 2.16312 6.6574 -6
      vertex 4.01722 12.3637 -6
      vertex 2.98045 6.33379 -6
    endloop
  endfacet
  facet normal -0 0 -1
    outer loop
      vertex 4.01722 12.3637 -6
      vertex 2.16312 6.6574 -6
      vertex 2.43596 12.7697 -6
    endloop
  endfacet
  facet normal 0 0 -1
    outer loop
      vertex 1.31167 6.87601 -6
      vertex 2.43596 12.7697 -6
      vertex 2.16312 6.6574 -6
    endloop
  endfacet
  facet normal 0 0 -1
    outer loop
      vertex 1.31167 6.87601 -6
      vertex 0.816277 12.9743 -6
      vertex 2.43596 12.7697 -6
    endloop
  endfacet
  facet normal 0 0 -1
    outer loop
      vertex 0.439533 6.98619 -6
      vertex 0.816277 12.9743 -6
      vertex 1.31167 6.87601 -6
    endloop
  endfacet
  facet normal 0 0 -1
    outer loop
      vertex -0.439533 6.98619 -6
      vertex 0.816277 12.9743 -6
      vertex 0.439533 6.98619 -6
    endloop
  endfacet
  facet normal 0 0 -1
    outer loop
      vertex -0.439533 6.98619 -6
      vertex -0.816277 12.9743 -6
      vertex 0.816277 12.9743 -6
    endloop
  endfacet
  facet normal 0 0 -1
    outer loop
      vertex -1.31167 6.87601 -6
      vertex -0.816277 12.9743 -6
      vertex -0.439533 6.98619 -6
    endloop
  endfacet
  facet normal 0 0 -1
    outer loop
      vertex -2.43596 12.7697 -6
      vertex -1.31167 6.87601 -6
      vertex -2.16312 6.6574 -6
    endloop
  endfacet
  facet normal 0 0 -1
    outer loop
      vertex -1.31167 6.87601 -6
      vertex -2.43596 12.7697 -6
      vertex -0.816277 12.9743 -6
    endloop
  endfacet
  facet normal 0 0 -1
    outer loop
      vertex -4.01722 12.3637 -6
      vertex -2.16312 6.6574 -6
      vertex -2.98045 6.33379 -6
    endloop
  endfacet
  facet normal 0 0 -1
    outer loop
      vertex -5.53513 11.7628 -6
      vertex -2.98045 6.33379 -6
      vertex -3.75079 5.91029 -6
    endloop
  endfacet
  facet normal 0 0 -1
    outer loop
      vertex -2.16312 6.6574 -6
      vertex -4.01722 12.3637 -6
      vertex -2.43596 12.7697 -6
    endloop
  endfacet
  facet normal 0 0 -1
    outer loop
      vertex -6.96575 10.9763 -6
      vertex -3.75079 5.91029 -6
      vertex -4.46197 5.39359 -6
    endloop
  endfacet
  facet normal 0 0 -1
    outer loop
      vertex -8.28651 10.0167 -6
      vertex -4.46197 5.39359 -6
      vertex -5.10278 4.79183 -6
    endloop
  endfacet
  facet normal 0 0 -1
    outer loop
      vertex -2.98045 6.33379 -6
      vertex -5.53513 11.7628 -6
      vertex -4.01722 12.3637 -6
    endloop
  endfacet
  facet normal 0 0 -1
    outer loop
      vertex -9.47659 8.89911 -6
      vertex -5.10278 4.79183 -6
      vertex -5.66312 4.1145 -6
    endloop
  endfacet
  facet normal 0 0 -1
    outer loop
      vertex -10.5172 7.64121 -6
      vertex -5.66312 4.1145 -6
      vertex -6.13415 3.37228 -6
    endloop
  endfacet
  facet normal 0 0 -1
    outer loop
      vertex -11.392 6.2628 -6
      vertex -6.13415 3.37228 -6
      vertex -6.50844 2.57687 -6
    endloop
  endfacet
  facet normal 0 0 -1
    outer loop
      vertex -12.0871 4.78562 -6
      vertex -6.50844 2.57687 -6
      vertex -6.78008 1.74083 -6
    endloop
  endfacet
  facet normal 0 0 -1
    outer loop
      vertex -12.5916 3.23297 -6
      vertex -6.78008 1.74083 -6
      vertex -6.9448 0.877332 -6
    endloop
  endfacet
  facet normal 0 0 -1
    outer loop
      vertex -3.75079 5.91029 -6
      vertex -6.96575 10.9763 -6
      vertex -5.53513 11.7628 -6
    endloop
  endfacet
  facet normal 0 0 -1
    outer loop
      vertex -12.8975 1.62933 -6
      vertex -6.9448 0.877332 -6
      vertex -7 0 -6
    endloop
  endfacet
  facet normal 0 0 -1
    outer loop
      vertex -12.0871 -4.78562 -6
      vertex -6.50844 -2.57687 -6
      vertex -11.392 -6.2628 -6
    endloop
  endfacet
  facet normal 0 0 -1
    outer loop
      vertex -4.46197 5.39359 -6
      vertex -8.28651 10.0167 -6
      vertex -6.96575 10.9763 -6
    endloop
  endfacet
  facet normal -0 0 -1
    outer loop
      vertex -6.50844 -2.57687 -6
      vertex -12.0871 -4.78562 -6
      vertex -6.78008 -1.74083 -6
    endloop
  endfacet
  facet normal 0 0 -1
    outer loop
      vertex -5.10278 4.79183 -6
      vertex -9.47659 8.89911 -6
      vertex -8.28651 10.0167 -6
    endloop
  endfacet
  facet normal 0 0 -1
    outer loop
      vertex -12.5916 -3.23297 -6
      vertex -6.78008 -1.74083 -6
      vertex -12.0871 -4.78562 -6
    endloop
  endfacet
  facet normal 0 0 -1
    outer loop
      vertex -5.66312 4.1145 -6
      vertex -10.5172 7.64121 -6
      vertex -9.47659 8.89911 -6
    endloop
  endfacet
  facet normal -0 0 -1
    outer loop
      vertex -6.78008 -1.74083 -6
      vertex -12.5916 -3.23297 -6
      vertex -6.9448 -0.877332 -6
    endloop
  endfacet
  facet normal 0 0 -1
    outer loop
      vertex -6.13415 3.37228 -6
      vertex -11.392 6.2628 -6
      vertex -10.5172 7.64121 -6
    endloop
  endfacet
  facet normal 0 0 -1
    outer loop
      vertex -12.8975 -1.62933 -6
      vertex -6.9448 -0.877332 -6
      vertex -12.5916 -3.23297 -6
    endloop
  endfacet
  facet normal 0 0 -1
    outer loop
      vertex -6.50844 2.57687 -6
      vertex -12.0871 4.78562 -6
      vertex -11.392 6.2628 -6
    endloop
  endfacet
  facet normal -0 0 -1
    outer loop
      vertex -6.9448 -0.877332 -6
      vertex -12.8975 -1.62933 -6
      vertex -7 0 -6
    endloop
  endfacet
  facet normal 0 0 -1
    outer loop
      vertex -6.78008 1.74083 -6
      vertex -12.5916 3.23297 -6
      vertex -12.0871 4.78562 -6
    endloop
  endfacet
  facet normal 0 0 -1
    outer loop
      vertex -13 0 -6
      vertex -7 0 -6
      vertex -12.8975 -1.62933 -6
    endloop
  endfacet
  facet normal 0 0 -1
    outer loop
      vertex -6.9448 0.877332 -6
      vertex -12.8975 1.62933 -6
      vertex -12.5916 3.23297 -6
    endloop
  endfacet
  facet normal 0 0 -1
    outer loop
      vertex -7 0 -6
      vertex -13 0 -6
      vertex -12.8975 1.62933 -6
    endloop
  endfacet
  facet normal -0.951054 -0.309024 0
    outer loop
      vertex -12.0871 -4.78562 -6
      vertex -12.5916 -3.23297 0
      vertex -12.5916 -3.23297 -6
    endloop
  endfacet
  facet normal -0.951054 -0.309024 0
    outer loop
      vertex -12.5916 -3.23297 0
      vertex -12.0871 -4.78562 -6
      vertex -12.0871 -4.78562 0
    endloop
  endfacet
  facet normal -0.770518 -0.637418 0
    outer loop
      vertex -9.47659 -8.89911 -6
      vertex -10.5172 -7.64121 0
      vertex -10.5172 -7.64121 -6
    endloop
  endfacet
  facet normal -0.770518 -0.637418 0
    outer loop
      vertex -10.5172 -7.64121 0
      vertex -9.47659 -8.89911 -6
      vertex -9.47659 -8.89911 0
    endloop
  endfacet
  facet normal 0.481758 -0.876304 0
    outer loop
      vertex 5.53513 -11.7628 -6
      vertex 6.96575 -10.9763 0
      vertex 5.53513 -11.7628 0
    endloop
  endfacet
  facet normal 0.481758 -0.876304 0
    outer loop
      vertex 6.96575 -10.9763 0
      vertex 5.53513 -11.7628 -6
      vertex 6.96575 -10.9763 -6
    endloop
  endfacet
  facet normal 0.684557 -0.728959 0
    outer loop
      vertex 8.28651 -10.0167 -6
      vertex 9.47659 -8.89911 0
      vertex 8.28651 -10.0167 0
    endloop
  endfacet
  facet normal 0.684557 -0.728959 0
    outer loop
      vertex 9.47659 -8.89911 0
      vertex 8.28651 -10.0167 -6
      vertex 9.47659 -8.89911 -6
    endloop
  endfacet
  facet normal 0.770518 -0.637418 0
    outer loop
      vertex 9.47659 -8.89911 0
      vertex 10.5172 -7.64121 -6
      vertex 10.5172 -7.64121 0
    endloop
  endfacet
  facet normal 0.770518 -0.637418 0
    outer loop
      vertex 10.5172 -7.64121 -6
      vertex 9.47659 -8.89911 0
      vertex 9.47659 -8.89911 -6
    endloop
  endfacet
  facet normal 0.844318 -0.535842 0
    outer loop
      vertex 10.5172 -7.64121 0
      vertex 11.392 -6.2628 -6
      vertex 11.392 -6.2628 0
    endloop
  endfacet
  facet normal 0.844318 -0.535842 0
    outer loop
      vertex 11.392 -6.2628 -6
      vertex 10.5172 -7.64121 0
      vertex 10.5172 -7.64121 -6
    endloop
  endfacet
  facet normal -0.58779 -0.809014 0
    outer loop
      vertex -8.28651 -10.0167 -6
      vertex -6.96575 -10.9763 0
      vertex -8.28651 -10.0167 0
    endloop
  endfacet
  facet normal -0.58779 -0.809014 -0
    outer loop
      vertex -6.96575 -10.9763 0
      vertex -8.28651 -10.0167 -6
      vertex -6.96575 -10.9763 -6
    endloop
  endfacet
  facet normal -0.248691 -0.968583 0
    outer loop
      vertex -4.01722 -12.3637 -6
      vertex -2.43596 -12.7697 0
      vertex -4.01722 -12.3637 0
    endloop
  endfacet
  facet normal -0.248691 -0.968583 -0
    outer loop
      vertex -2.43596 -12.7697 0
      vertex -4.01722 -12.3637 -6
      vertex -2.43596 -12.7697 -6
    endloop
  endfacet
  facet normal -0.684557 -0.728959 0
    outer loop
      vertex -9.47659 -8.89911 -6
      vertex -8.28651 -10.0167 0
      vertex -9.47659 -8.89911 0
    endloop
  endfacet
  facet normal -0.684557 -0.728959 -0
    outer loop
      vertex -8.28651 -10.0167 0
      vertex -9.47659 -8.89911 -6
      vertex -8.28651 -10.0167 -6
    endloop
  endfacet
  facet normal -0.904829 -0.425775 0
    outer loop
      vertex -11.392 -6.2628 -6
      vertex -12.0871 -4.78562 0
      vertex -12.0871 -4.78562 -6
    endloop
  endfacet
  facet normal -0.904829 -0.425775 0
    outer loop
      vertex -12.0871 -4.78562 0
      vertex -11.392 -6.2628 -6
      vertex -11.392 -6.2628 0
    endloop
  endfacet
  facet normal 0.58779 -0.809014 0
    outer loop
      vertex 6.96575 -10.9763 -6
      vertex 8.28651 -10.0167 0
      vertex 6.96575 -10.9763 0
    endloop
  endfacet
  facet normal 0.58779 -0.809014 0
    outer loop
      vertex 8.28651 -10.0167 0
      vertex 6.96575 -10.9763 -6
      vertex 8.28651 -10.0167 -6
    endloop
  endfacet
  facet normal 0.904829 -0.425775 0
    outer loop
      vertex 11.392 -6.2628 0
      vertex 12.0871 -4.78562 -6
      vertex 12.0871 -4.78562 0
    endloop
  endfacet
  facet normal 0.904829 -0.425775 0
    outer loop
      vertex 12.0871 -4.78562 -6
      vertex 11.392 -6.2628 0
      vertex 11.392 -6.2628 -6
    endloop
  endfacet
  facet normal -0.481758 -0.876304 0
    outer loop
      vertex -6.96575 -10.9763 -6
      vertex -5.53513 -11.7628 0
      vertex -6.96575 -10.9763 0
    endloop
  endfacet
  facet normal -0.481758 -0.876304 -0
    outer loop
      vertex -5.53513 -11.7628 0
      vertex -6.96575 -10.9763 -6
      vertex -5.53513 -11.7628 -6
    endloop
  endfacet
  facet normal -0.125325 -0.992116 0
    outer loop
      vertex -2.43596 -12.7697 -6
      vertex -0.816277 -12.9743 0
      vertex -2.43596 -12.7697 0
    endloop
  endfacet
  facet normal -0.125325 -0.992116 -0
    outer loop
      vertex -0.816277 -12.9743 0
      vertex -2.43596 -12.7697 -6
      vertex -0.816277 -12.9743 -6
    endloop
  endfacet
  facet normal -0.844318 -0.535842 0
    outer loop
      vertex -10.5172 -7.64121 -6
      vertex -11.392 -6.2628 0
      vertex -11.392 -6.2628 -6
    endloop
  endfacet
  facet normal -0.844318 -0.535842 0
    outer loop
      vertex -11.392 -6.2628 0
      vertex -10.5172 -7.64121 -6
      vertex -10.5172 -7.64121 0
    endloop
  endfacet
  facet normal -0.998028 -0.0627752 0
    outer loop
      vertex 1.8 0 -70
      vertex 1.78581 0.225599 0
      vertex 1.78581 0.225599 -70
    endloop
  endfacet
  facet normal -0.998028 -0.0627752 0
    outer loop
      vertex 1.78581 0.225599 0
      vertex 1.8 0 -70
      vertex 1.8 0 0
    endloop
  endfacet
  facet normal 0.998028 -0.0627752 0
    outer loop
      vertex -1.8 0 0
      vertex -1.78581 0.225599 -70
      vertex -1.78581 0.225599 0
    endloop
  endfacet
  facet normal 0.998028 -0.0627752 0
    outer loop
      vertex -1.78581 0.225599 -70
      vertex -1.8 0 0
      vertex -1.8 0 -70
    endloop
  endfacet
  facet normal 0 -1 0
    outer loop
      vertex -0.113023 1.79645 -70
      vertex 0.113023 1.79645 0
      vertex -0.113023 1.79645 0
    endloop
  endfacet
  facet normal 0 -1 -0
    outer loop
      vertex 0.113023 1.79645 0
      vertex -0.113023 1.79645 -70
      vertex 0.113023 1.79645 -70
    endloop
  endfacet
  facet normal -0.68455 -0.728966 0
    outer loop
      vertex 1.14736 1.38692 -70
      vertex 1.31214 1.23218 0
      vertex 1.14736 1.38692 0
    endloop
  endfacet
  facet normal -0.68455 -0.728966 -0
    outer loop
      vertex 1.31214 1.23218 0
      vertex 1.14736 1.38692 -70
      vertex 1.31214 1.23218 -70
    endloop
  endfacet
  facet normal 0.68455 -0.728966 0
    outer loop
      vertex -1.31214 1.23218 -70
      vertex -1.14736 1.38692 0
      vertex -1.31214 1.23218 0
    endloop
  endfacet
  facet normal 0.68455 -0.728966 0
    outer loop
      vertex -1.14736 1.38692 0
      vertex -1.31214 1.23218 -70
      vertex -1.14736 1.38692 -70
    endloop
  endfacet
  facet normal 0.368115 -0.92978 0
    outer loop
      vertex -0.766402 1.62869 -70
      vertex -0.556231 1.7119 0
      vertex -0.766402 1.62869 0
    endloop
  endfacet
  facet normal 0.368115 -0.92978 0
    outer loop
      vertex -0.556231 1.7119 0
      vertex -0.766402 1.62869 -70
      vertex -0.556231 1.7119 -70
    endloop
  endfacet
  facet normal -0.90482 -0.425794 0
    outer loop
      vertex 1.6736 0.662623 -70
      vertex 1.57735 0.867156 0
      vertex 1.57735 0.867156 -70
    endloop
  endfacet
  facet normal -0.90482 -0.425794 0
    outer loop
      vertex 1.57735 0.867156 0
      vertex 1.6736 0.662623 -70
      vertex 1.6736 0.662623 0
    endloop
  endfacet
  facet normal -0.982285 -0.187395 0
    outer loop
      vertex 1.78581 0.225599 -70
      vertex 1.74345 0.447641 0
      vertex 1.74345 0.447641 -70
    endloop
  endfacet
  facet normal -0.982285 -0.187395 0
    outer loop
      vertex 1.74345 0.447641 0
      vertex 1.78581 0.225599 -70
      vertex 1.78581 0.225599 0
    endloop
  endfacet
  facet normal -0.368115 -0.92978 0
    outer loop
      vertex 0.556231 1.7119 -70
      vertex 0.766402 1.62869 0
      vertex 0.556231 1.7119 0
    endloop
  endfacet
  facet normal -0.368115 -0.92978 -0
    outer loop
      vertex 0.766402 1.62869 0
      vertex 0.556231 1.7119 -70
      vertex 0.766402 1.62869 -70
    endloop
  endfacet
  facet normal -0.248708 -0.968578 0
    outer loop
      vertex 0.337286 1.76812 -70
      vertex 0.556231 1.7119 0
      vertex 0.337286 1.76812 0
    endloop
  endfacet
  facet normal -0.248708 -0.968578 -0
    outer loop
      vertex 0.556231 1.7119 0
      vertex 0.337286 1.76812 -70
      vertex 0.556231 1.7119 -70
    endloop
  endfacet
  facet normal -0.587802 -0.809005 0
    outer loop
      vertex 0.964488 1.51979 -70
      vertex 1.14736 1.38692 0
      vertex 0.964488 1.51979 0
    endloop
  endfacet
  facet normal -0.587802 -0.809005 -0
    outer loop
      vertex 1.14736 1.38692 0
      vertex 0.964488 1.51979 -70
      vertex 1.14736 1.38692 -70
    endloop
  endfacet
  facet normal 0.90482 -0.425794 0
    outer loop
      vertex -1.6736 0.662623 0
      vertex -1.57735 0.867156 -70
      vertex -1.57735 0.867156 0
    endloop
  endfacet
  facet normal 0.90482 -0.425794 0
    outer loop
      vertex -1.57735 0.867156 -70
      vertex -1.6736 0.662623 0
      vertex -1.6736 0.662623 -70
    endloop
  endfacet
  facet normal 0.844327 -0.535828 0
    outer loop
      vertex -1.57735 0.867156 0
      vertex -1.45623 1.05801 -70
      vertex -1.45623 1.05801 0
    endloop
  endfacet
  facet normal 0.844327 -0.535828 0
    outer loop
      vertex -1.45623 1.05801 -70
      vertex -1.57735 0.867156 0
      vertex -1.57735 0.867156 -70
    endloop
  endfacet
  facet normal 0.951059 -0.309009 0
    outer loop
      vertex -1.74345 0.447641 0
      vertex -1.6736 0.662623 -70
      vertex -1.6736 0.662623 0
    endloop
  endfacet
  facet normal 0.951059 -0.309009 0
    outer loop
      vertex -1.6736 0.662623 -70
      vertex -1.74345 0.447641 0
      vertex -1.74345 0.447641 -70
    endloop
  endfacet
  facet normal 0.587802 -0.809005 0
    outer loop
      vertex -1.14736 1.38692 -70
      vertex -0.964488 1.51979 0
      vertex -1.14736 1.38692 0
    endloop
  endfacet
  facet normal 0.587802 -0.809005 0
    outer loop
      vertex -0.964488 1.51979 0
      vertex -1.14736 1.38692 -70
      vertex -0.964488 1.51979 -70
    endloop
  endfacet
  facet normal 0.125329 -0.992115 0
    outer loop
      vertex -0.337286 1.76812 -70
      vertex -0.113023 1.79645 0
      vertex -0.337286 1.76812 0
    endloop
  endfacet
  facet normal 0.125329 -0.992115 0
    outer loop
      vertex -0.113023 1.79645 0
      vertex -0.337286 1.76812 -70
      vertex -0.113023 1.79645 -70
    endloop
  endfacet
  facet normal -0.998028 0.0627752 0
    outer loop
      vertex 1.78581 -0.225599 -70
      vertex 1.8 0 0
      vertex 1.8 0 -70
    endloop
  endfacet
  facet normal -0.998028 0.0627752 0
    outer loop
      vertex 1.8 0 0
      vertex 1.78581 -0.225599 -70
      vertex 1.78581 -0.225599 0
    endloop
  endfacet
  facet normal -0.125329 0.992115 0
    outer loop
      vertex 0.337286 -1.76812 -70
      vertex 0.113023 -1.79645 0
      vertex 0.337286 -1.76812 0
    endloop
  endfacet
  facet normal -0.125329 0.992115 0
    outer loop
      vertex 0.113023 -1.79645 0
      vertex 0.337286 -1.76812 -70
      vertex 0.113023 -1.79645 -70
    endloop
  endfacet
  facet normal -0.951059 -0.309009 0
    outer loop
      vertex 1.74345 0.447641 -70
      vertex 1.6736 0.662623 0
      vertex 1.6736 0.662623 -70
    endloop
  endfacet
  facet normal -0.951059 -0.309009 0
    outer loop
      vertex 1.6736 0.662623 0
      vertex 1.74345 0.447641 -70
      vertex 1.74345 0.447641 0
    endloop
  endfacet
  facet normal -0.770504 -0.637435 0
    outer loop
      vertex 1.45623 1.05801 -70
      vertex 1.31214 1.23218 0
      vertex 1.31214 1.23218 -70
    endloop
  endfacet
  facet normal -0.770504 -0.637435 0
    outer loop
      vertex 1.31214 1.23218 0
      vertex 1.45623 1.05801 -70
      vertex 1.45623 1.05801 0
    endloop
  endfacet
  facet normal -0.844327 -0.535828 0
    outer loop
      vertex 1.57735 0.867156 -70
      vertex 1.45623 1.05801 0
      vertex 1.45623 1.05801 -70
    endloop
  endfacet
  facet normal -0.844327 -0.535828 0
    outer loop
      vertex 1.45623 1.05801 0
      vertex 1.57735 0.867156 -70
      vertex 1.57735 0.867156 0
    endloop
  endfacet
  facet normal -0.125329 -0.992115 0
    outer loop
      vertex 0.113023 1.79645 -70
      vertex 0.337286 1.76812 0
      vertex 0.113023 1.79645 0
    endloop
  endfacet
  facet normal -0.125329 -0.992115 -0
    outer loop
      vertex 0.337286 1.76812 0
      vertex 0.113023 1.79645 -70
      vertex 0.337286 1.76812 -70
    endloop
  endfacet
  facet normal -0.481758 -0.876304 0
    outer loop
      vertex 0.766402 1.62869 -70
      vertex 0.964488 1.51979 0
      vertex 0.766402 1.62869 0
    endloop
  endfacet
  facet normal -0.481758 -0.876304 -0
    outer loop
      vertex 0.964488 1.51979 0
      vertex 0.766402 1.62869 -70
      vertex 0.964488 1.51979 -70
    endloop
  endfacet
  facet normal 0.770504 -0.637435 0
    outer loop
      vertex -1.45623 1.05801 0
      vertex -1.31214 1.23218 -70
      vertex -1.31214 1.23218 0
    endloop
  endfacet
  facet normal 0.770504 -0.637435 0
    outer loop
      vertex -1.31214 1.23218 -70
      vertex -1.45623 1.05801 0
      vertex -1.45623 1.05801 -70
    endloop
  endfacet
  facet normal 0.982285 -0.187395 0
    outer loop
      vertex -1.78581 0.225599 0
      vertex -1.74345 0.447641 -70
      vertex -1.74345 0.447641 0
    endloop
  endfacet
  facet normal 0.982285 -0.187395 0
    outer loop
      vertex -1.74345 0.447641 -70
      vertex -1.78581 0.225599 0
      vertex -1.78581 0.225599 -70
    endloop
  endfacet
  facet normal 0.481758 -0.876304 0
    outer loop
      vertex -0.964488 1.51979 -70
      vertex -0.766402 1.62869 0
      vertex -0.964488 1.51979 0
    endloop
  endfacet
  facet normal 0.481758 -0.876304 0
    outer loop
      vertex -0.766402 1.62869 0
      vertex -0.964488 1.51979 -70
      vertex -0.766402 1.62869 -70
    endloop
  endfacet
  facet normal 0.248708 -0.968578 0
    outer loop
      vertex -0.556231 1.7119 -70
      vertex -0.337286 1.76812 0
      vertex -0.556231 1.7119 0
    endloop
  endfacet
  facet normal 0.248708 -0.968578 0
    outer loop
      vertex -0.337286 1.76812 0
      vertex -0.556231 1.7119 -70
      vertex -0.337286 1.76812 -70
    endloop
  endfacet
  facet normal -0.982285 0.187395 0
    outer loop
      vertex 1.74345 -0.447641 -70
      vertex 1.78581 -0.225599 0
      vertex 1.78581 -0.225599 -70
    endloop
  endfacet
  facet normal -0.982285 0.187395 0
    outer loop
      vertex 1.78581 -0.225599 0
      vertex 1.74345 -0.447641 -70
      vertex 1.74345 -0.447641 0
    endloop
  endfacet
  facet normal 0.951059 0.309009 0
    outer loop
      vertex -1.6736 -0.662623 0
      vertex -1.74345 -0.447641 -70
      vertex -1.74345 -0.447641 0
    endloop
  endfacet
  facet normal 0.951059 0.309009 0
    outer loop
      vertex -1.74345 -0.447641 -70
      vertex -1.6736 -0.662623 0
      vertex -1.6736 -0.662623 -70
    endloop
  endfacet
  facet normal -0.368115 0.92978 0
    outer loop
      vertex 0.766402 -1.62869 -70
      vertex 0.556231 -1.7119 0
      vertex 0.766402 -1.62869 0
    endloop
  endfacet
  facet normal -0.368115 0.92978 0
    outer loop
      vertex 0.556231 -1.7119 0
      vertex 0.766402 -1.62869 -70
      vertex 0.556231 -1.7119 -70
    endloop
  endfacet
  facet normal -0.248708 0.968578 0
    outer loop
      vertex 0.556231 -1.7119 -70
      vertex 0.337286 -1.76812 0
      vertex 0.556231 -1.7119 0
    endloop
  endfacet
  facet normal -0.248708 0.968578 0
    outer loop
      vertex 0.337286 -1.76812 0
      vertex 0.556231 -1.7119 -70
      vertex 0.337286 -1.76812 -70
    endloop
  endfacet
  facet normal -0.481758 0.876304 0
    outer loop
      vertex 0.964488 -1.51979 -70
      vertex 0.766402 -1.62869 0
      vertex 0.964488 -1.51979 0
    endloop
  endfacet
  facet normal -0.481758 0.876304 0
    outer loop
      vertex 0.766402 -1.62869 0
      vertex 0.964488 -1.51979 -70
      vertex 0.766402 -1.62869 -70
    endloop
  endfacet
  facet normal -0.68455 0.728966 0
    outer loop
      vertex 1.31214 -1.23218 -70
      vertex 1.14736 -1.38692 0
      vertex 1.31214 -1.23218 0
    endloop
  endfacet
  facet normal -0.68455 0.728966 0
    outer loop
      vertex 1.14736 -1.38692 0
      vertex 1.31214 -1.23218 -70
      vertex 1.14736 -1.38692 -70
    endloop
  endfacet
  facet normal -0.90482 0.425794 0
    outer loop
      vertex 1.57735 -0.867156 -70
      vertex 1.6736 -0.662623 0
      vertex 1.6736 -0.662623 -70
    endloop
  endfacet
  facet normal -0.90482 0.425794 0
    outer loop
      vertex 1.6736 -0.662623 0
      vertex 1.57735 -0.867156 -70
      vertex 1.57735 -0.867156 0
    endloop
  endfacet
  facet normal -0.770504 0.637435 0
    outer loop
      vertex 1.31214 -1.23218 -70
      vertex 1.45623 -1.05801 0
      vertex 1.45623 -1.05801 -70
    endloop
  endfacet
  facet normal -0.770504 0.637435 0
    outer loop
      vertex 1.45623 -1.05801 0
      vertex 1.31214 -1.23218 -70
      vertex 1.31214 -1.23218 0
    endloop
  endfacet
  facet normal 0.587802 0.809005 -0
    outer loop
      vertex -0.964488 -1.51979 -70
      vertex -1.14736 -1.38692 0
      vertex -0.964488 -1.51979 0
    endloop
  endfacet
  facet normal 0.587802 0.809005 0
    outer loop
      vertex -1.14736 -1.38692 0
      vertex -0.964488 -1.51979 -70
      vertex -1.14736 -1.38692 -70
    endloop
  endfacet
  facet normal 0.998028 0.0627752 0
    outer loop
      vertex -1.78581 -0.225599 0
      vertex -1.8 0 -70
      vertex -1.8 0 0
    endloop
  endfacet
  facet normal 0.998028 0.0627752 0
    outer loop
      vertex -1.8 0 -70
      vertex -1.78581 -0.225599 0
      vertex -1.78581 -0.225599 -70
    endloop
  endfacet
  facet normal -0.587802 0.809005 0
    outer loop
      vertex 1.14736 -1.38692 -70
      vertex 0.964488 -1.51979 0
      vertex 1.14736 -1.38692 0
    endloop
  endfacet
  facet normal -0.587802 0.809005 0
    outer loop
      vertex 0.964488 -1.51979 0
      vertex 1.14736 -1.38692 -70
      vertex 0.964488 -1.51979 -70
    endloop
  endfacet
  facet normal -0.951059 0.309009 0
    outer loop
      vertex 1.6736 -0.662623 -70
      vertex 1.74345 -0.447641 0
      vertex 1.74345 -0.447641 -70
    endloop
  endfacet
  facet normal -0.951059 0.309009 0
    outer loop
      vertex 1.74345 -0.447641 0
      vertex 1.6736 -0.662623 -70
      vertex 1.6736 -0.662623 0
    endloop
  endfacet
  facet normal -0.844327 0.535828 0
    outer loop
      vertex 1.45623 -1.05801 -70
      vertex 1.57735 -0.867156 0
      vertex 1.57735 -0.867156 -70
    endloop
  endfacet
  facet normal -0.844327 0.535828 0
    outer loop
      vertex 1.57735 -0.867156 0
      vertex 1.45623 -1.05801 -70
      vertex 1.45623 -1.05801 0
    endloop
  endfacet
  facet normal 0 1 -0
    outer loop
      vertex 0.113023 -1.79645 -70
      vertex -0.113023 -1.79645 0
      vertex 0.113023 -1.79645 0
    endloop
  endfacet
  facet normal 0 1 0
    outer loop
      vertex -0.113023 -1.79645 0
      vertex 0.113023 -1.79645 -70
      vertex -0.113023 -1.79645 -70
    endloop
  endfacet
  facet normal 0.125329 0.992115 -0
    outer loop
      vertex -0.113023 -1.79645 -70
      vertex -0.337286 -1.76812 0
      vertex -0.113023 -1.79645 0
    endloop
  endfacet
  facet normal 0.125329 0.992115 0
    outer loop
      vertex -0.337286 -1.76812 0
      vertex -0.113023 -1.79645 -70
      vertex -0.337286 -1.76812 -70
    endloop
  endfacet
  facet normal 0.248708 0.968578 -0
    outer loop
      vertex -0.337286 -1.76812 -70
      vertex -0.556231 -1.7119 0
      vertex -0.337286 -1.76812 0
    endloop
  endfacet
  facet normal 0.248708 0.968578 0
    outer loop
      vertex -0.556231 -1.7119 0
      vertex -0.337286 -1.76812 -70
      vertex -0.556231 -1.7119 -70
    endloop
  endfacet
  facet normal 0.68455 0.728966 -0
    outer loop
      vertex -1.14736 -1.38692 -70
      vertex -1.31214 -1.23218 0
      vertex -1.14736 -1.38692 0
    endloop
  endfacet
  facet normal 0.68455 0.728966 0
    outer loop
      vertex -1.31214 -1.23218 0
      vertex -1.14736 -1.38692 -70
      vertex -1.31214 -1.23218 -70
    endloop
  endfacet
  facet normal 0.90482 0.425794 0
    outer loop
      vertex -1.57735 -0.867156 0
      vertex -1.6736 -0.662623 -70
      vertex -1.6736 -0.662623 0
    endloop
  endfacet
  facet normal 0.90482 0.425794 0
    outer loop
      vertex -1.6736 -0.662623 -70
      vertex -1.57735 -0.867156 0
      vertex -1.57735 -0.867156 -70
    endloop
  endfacet
  facet normal 0.982285 0.187395 0
    outer loop
      vertex -1.74345 -0.447641 0
      vertex -1.78581 -0.225599 -70
      vertex -1.78581 -0.225599 0
    endloop
  endfacet
  facet normal 0.982285 0.187395 0
    outer loop
      vertex -1.78581 -0.225599 -70
      vertex -1.74345 -0.447641 0
      vertex -1.74345 -0.447641 -70
    endloop
  endfacet
  facet normal 0.368115 0.92978 -0
    outer loop
      vertex -0.556231 -1.7119 -70
      vertex -0.766402 -1.62869 0
      vertex -0.556231 -1.7119 0
    endloop
  endfacet
  facet normal 0.368115 0.92978 0
    outer loop
      vertex -0.766402 -1.62869 0
      vertex -0.556231 -1.7119 -70
      vertex -0.766402 -1.62869 -70
    endloop
  endfacet
  facet normal 0.481758 0.876304 -0
    outer loop
      vertex -0.766402 -1.62869 -70
      vertex -0.964488 -1.51979 0
      vertex -0.766402 -1.62869 0
    endloop
  endfacet
  facet normal 0.481758 0.876304 0
    outer loop
      vertex -0.964488 -1.51979 0
      vertex -0.766402 -1.62869 -70
      vertex -0.964488 -1.51979 -70
    endloop
  endfacet
  facet normal 0.844327 0.535828 0
    outer loop
      vertex -1.45623 -1.05801 0
      vertex -1.57735 -0.867156 -70
      vertex -1.57735 -0.867156 0
    endloop
  endfacet
  facet normal 0.844327 0.535828 0
    outer loop
      vertex -1.57735 -0.867156 -70
      vertex -1.45623 -1.05801 0
      vertex -1.45623 -1.05801 -70
    endloop
  endfacet
  facet normal 0.770504 0.637435 0
    outer loop
      vertex -1.31214 -1.23218 0
      vertex -1.45623 -1.05801 -70
      vertex -1.45623 -1.05801 0
    endloop
  endfacet
  facet normal 0.770504 0.637435 0
    outer loop
      vertex -1.45623 -1.05801 -70
      vertex -1.31214 -1.23218 0
      vertex -1.31214 -1.23218 -70
    endloop
  endfacet
endsolid OpenSCAD_Model
