solid OpenSCAD_Model
  facet normal 0 0 1
    outer loop
      vertex 2.75 0 0
      vertex 13 0 0
      vertex 12.8975 1.62933 0
    endloop
  endfacet
  facet normal 0 0 1
    outer loop
      vertex 2.72832 0.344666 0
      vertex 12.8975 1.62933 0
      vertex 12.5916 3.23297 0
    endloop
  endfacet
  facet normal 0 0 1
    outer loop
      vertex 13 0 0
      vertex 2.75 0 0
      vertex 12.8975 -1.62933 0
    endloop
  endfacet
  facet normal 0 0 1
    outer loop
      vertex 2.6636 0.683897 0
      vertex 12.5916 3.23297 0
      vertex 12.0871 4.78562 0
    endloop
  endfacet
  facet normal -0 0 1
    outer loop
      vertex 2.72832 -0.344666 0
      vertex 12.8975 -1.62933 0
      vertex 2.75 0 0
    endloop
  endfacet
  facet normal 0 0 1
    outer loop
      vertex 2.55688 1.01234 0
      vertex 12.0871 4.78562 0
      vertex 11.392 6.2628 0
    endloop
  endfacet
  facet normal 0 0 1
    outer loop
      vertex 12.8975 -1.62933 0
      vertex 2.72832 -0.344666 0
      vertex 12.5916 -3.23297 0
    endloop
  endfacet
  facet normal 0 0 1
    outer loop
      vertex 2.40984 1.32482 0
      vertex 11.392 6.2628 0
      vertex 10.5172 7.64121 0
    endloop
  endfacet
  facet normal -0 0 1
    outer loop
      vertex 2.6636 -0.683897 0
      vertex 12.5916 -3.23297 0
      vertex 2.72832 -0.344666 0
    endloop
  endfacet
  facet normal 0 0 1
    outer loop
      vertex 2.2248 1.61641 0
      vertex 10.5172 7.64121 0
      vertex 9.47659 8.89911 0
    endloop
  endfacet
  facet normal 0 0 1
    outer loop
      vertex 12.5916 -3.23297 0
      vertex 2.6636 -0.683897 0
      vertex 12.0871 -4.78562 0
    endloop
  endfacet
  facet normal 0 0 1
    outer loop
      vertex 2.00466 1.8825 0
      vertex 9.47659 8.89911 0
      vertex 8.28651 10.0167 0
    endloop
  endfacet
  facet normal -0 0 1
    outer loop
      vertex 2.55688 -1.01234 0
      vertex 12.0871 -4.78562 0
      vertex 2.6636 -0.683897 0
    endloop
  endfacet
  facet normal 0 0 1
    outer loop
      vertex 1.75292 2.11891 0
      vertex 8.28651 10.0167 0
      vertex 6.96575 10.9763 0
    endloop
  endfacet
  facet normal 0 0 1
    outer loop
      vertex 12.0871 -4.78562 0
      vertex 2.55688 -1.01234 0
      vertex 11.392 -6.2628 0
    endloop
  endfacet
  facet normal 0 0 1
    outer loop
      vertex 1.47352 2.3219 0
      vertex 6.96575 10.9763 0
      vertex 5.53513 11.7628 0
    endloop
  endfacet
  facet normal -0 0 1
    outer loop
      vertex 2.40984 -1.32482 0
      vertex 11.392 -6.2628 0
      vertex 2.55688 -1.01234 0
    endloop
  endfacet
  facet normal 0 0 1
    outer loop
      vertex 1.17089 2.48827 0
      vertex 5.53513 11.7628 0
      vertex 4.01722 12.3637 0
    endloop
  endfacet
  facet normal 0 0 1
    outer loop
      vertex 11.392 -6.2628 0
      vertex 2.40984 -1.32482 0
      vertex 10.5172 -7.64121 0
    endloop
  endfacet
  facet normal -0 0 1
    outer loop
      vertex 2.2248 -1.61641 0
      vertex 10.5172 -7.64121 0
      vertex 2.40984 -1.32482 0
    endloop
  endfacet
  facet normal 0 0 1
    outer loop
      vertex 12.8975 1.62933 0
      vertex 2.72832 0.344666 0
      vertex 2.75 0 0
    endloop
  endfacet
  facet normal 0 0 1
    outer loop
      vertex 12.5916 3.23297 0
      vertex 2.6636 0.683897 0
      vertex 2.72832 0.344666 0
    endloop
  endfacet
  facet normal 0 0 1
    outer loop
      vertex 12.0871 4.78562 0
      vertex 2.55688 1.01234 0
      vertex 2.6636 0.683897 0
    endloop
  endfacet
  facet normal 0 0 1
    outer loop
      vertex 0.849796 2.61541 0
      vertex 4.01722 12.3637 0
      vertex 2.43596 12.7697 0
    endloop
  endfacet
  facet normal 0 0 1
    outer loop
      vertex 11.392 6.2628 0
      vertex 2.40984 1.32482 0
      vertex 2.55688 1.01234 0
    endloop
  endfacet
  facet normal 0 0 1
    outer loop
      vertex 10.5172 7.64121 0
      vertex 2.2248 1.61641 0
      vertex 2.40984 1.32482 0
    endloop
  endfacet
  facet normal 0 0 1
    outer loop
      vertex 9.47659 8.89911 0
      vertex 2.00466 1.8825 0
      vertex 2.2248 1.61641 0
    endloop
  endfacet
  facet normal 0 0 1
    outer loop
      vertex 8.28651 10.0167 0
      vertex 1.75292 2.11891 0
      vertex 2.00466 1.8825 0
    endloop
  endfacet
  facet normal 0 0 1
    outer loop
      vertex 6.96575 10.9763 0
      vertex 1.47352 2.3219 0
      vertex 1.75292 2.11891 0
    endloop
  endfacet
  facet normal 0 0 1
    outer loop
      vertex 5.53513 11.7628 0
      vertex 1.17089 2.48827 0
      vertex 1.47352 2.3219 0
    endloop
  endfacet
  facet normal 0 0 1
    outer loop
      vertex 4.01722 12.3637 0
      vertex 0.849796 2.61541 0
      vertex 1.17089 2.48827 0
    endloop
  endfacet
  facet normal 0 0 1
    outer loop
      vertex 0.515298 2.70129 0
      vertex 2.43596 12.7697 0
      vertex 0.816277 12.9743 0
    endloop
  endfacet
  facet normal 0 0 1
    outer loop
      vertex 2.43596 12.7697 0
      vertex 0.515298 2.70129 0
      vertex 0.849796 2.61541 0
    endloop
  endfacet
  facet normal 0 0 1
    outer loop
      vertex 0.816277 12.9743 0
      vertex 0.172673 2.74457 0
      vertex 0.515298 2.70129 0
    endloop
  endfacet
  facet normal 0 0 1
    outer loop
      vertex 0.816277 12.9743 0
      vertex -0.172673 2.74457 0
      vertex 0.172673 2.74457 0
    endloop
  endfacet
  facet normal -0 0 1
    outer loop
      vertex -0.816277 12.9743 0
      vertex -0.172673 2.74457 0
      vertex 0.816277 12.9743 0
    endloop
  endfacet
  facet normal 0 0 1
    outer loop
      vertex -0.172673 2.74457 0
      vertex -0.816277 12.9743 0
      vertex -0.515298 2.70129 0
    endloop
  endfacet
  facet normal -0 0 1
    outer loop
      vertex -2.43596 12.7697 0
      vertex -0.515298 2.70129 0
      vertex -0.816277 12.9743 0
    endloop
  endfacet
  facet normal 0 0 1
    outer loop
      vertex -0.515298 2.70129 0
      vertex -2.43596 12.7697 0
      vertex -0.849796 2.61541 0
    endloop
  endfacet
  facet normal -0 0 1
    outer loop
      vertex -4.01722 12.3637 0
      vertex -0.849796 2.61541 0
      vertex -2.43596 12.7697 0
    endloop
  endfacet
  facet normal 0 0 1
    outer loop
      vertex -0.849796 2.61541 0
      vertex -4.01722 12.3637 0
      vertex -1.17089 2.48827 0
    endloop
  endfacet
  facet normal -0 0 1
    outer loop
      vertex -5.53513 11.7628 0
      vertex -1.17089 2.48827 0
      vertex -4.01722 12.3637 0
    endloop
  endfacet
  facet normal 0 0 1
    outer loop
      vertex -1.17089 2.48827 0
      vertex -5.53513 11.7628 0
      vertex -1.47352 2.3219 0
    endloop
  endfacet
  facet normal -0 0 1
    outer loop
      vertex -6.96575 10.9763 0
      vertex -1.47352 2.3219 0
      vertex -5.53513 11.7628 0
    endloop
  endfacet
  facet normal 0 0 1
    outer loop
      vertex -1.47352 2.3219 0
      vertex -6.96575 10.9763 0
      vertex -1.75292 2.11891 0
    endloop
  endfacet
  facet normal -0 0 1
    outer loop
      vertex -8.28651 10.0167 0
      vertex -1.75292 2.11891 0
      vertex -6.96575 10.9763 0
    endloop
  endfacet
  facet normal 0 0 1
    outer loop
      vertex -1.75292 2.11891 0
      vertex -8.28651 10.0167 0
      vertex -2.00466 1.8825 0
    endloop
  endfacet
  facet normal -0 0 1
    outer loop
      vertex -9.47659 8.89911 0
      vertex -2.00466 1.8825 0
      vertex -8.28651 10.0167 0
    endloop
  endfacet
  facet normal 0 0 1
    outer loop
      vertex -2.00466 1.8825 0
      vertex -9.47659 8.89911 0
      vertex -2.2248 1.61641 0
    endloop
  endfacet
  facet normal -0 0 1
    outer loop
      vertex -10.5172 7.64121 0
      vertex -2.2248 1.61641 0
      vertex -9.47659 8.89911 0
    endloop
  endfacet
  facet normal 0 0 1
    outer loop
      vertex 10.5172 -7.64121 0
      vertex 2.2248 -1.61641 0
      vertex 9.47659 -8.89911 0
    endloop
  endfacet
  facet normal -0 0 1
    outer loop
      vertex 2.00466 -1.8825 0
      vertex 9.47659 -8.89911 0
      vertex 2.2248 -1.61641 0
    endloop
  endfacet
  facet normal 0 0 1
    outer loop
      vertex 9.47659 -8.89911 0
      vertex 2.00466 -1.8825 0
      vertex 8.28651 -10.0167 0
    endloop
  endfacet
  facet normal -0 0 1
    outer loop
      vertex 1.75292 -2.11891 0
      vertex 8.28651 -10.0167 0
      vertex 2.00466 -1.8825 0
    endloop
  endfacet
  facet normal 0 0 1
    outer loop
      vertex 8.28651 -10.0167 0
      vertex 1.75292 -2.11891 0
      vertex 6.96575 -10.9763 0
    endloop
  endfacet
  facet normal -0 0 1
    outer loop
      vertex 1.47352 -2.3219 0
      vertex 6.96575 -10.9763 0
      vertex 1.75292 -2.11891 0
    endloop
  endfacet
  facet normal 0 0 1
    outer loop
      vertex 6.96575 -10.9763 0
      vertex 1.47352 -2.3219 0
      vertex 5.53513 -11.7628 0
    endloop
  endfacet
  facet normal -0 0 1
    outer loop
      vertex 1.17089 -2.48827 0
      vertex 5.53513 -11.7628 0
      vertex 1.47352 -2.3219 0
    endloop
  endfacet
  facet normal 0 0 1
    outer loop
      vertex 5.53513 -11.7628 0
      vertex 1.17089 -2.48827 0
      vertex 4.01722 -12.3637 0
    endloop
  endfacet
  facet normal -0 0 1
    outer loop
      vertex 0.849796 -2.61541 0
      vertex 4.01722 -12.3637 0
      vertex 1.17089 -2.48827 0
    endloop
  endfacet
  facet normal 0 0 1
    outer loop
      vertex 4.01722 -12.3637 0
      vertex 0.849796 -2.61541 0
      vertex 2.43596 -12.7697 0
    endloop
  endfacet
  facet normal -0 0 1
    outer loop
      vertex 0.515298 -2.70129 0
      vertex 2.43596 -12.7697 0
      vertex 0.849796 -2.61541 0
    endloop
  endfacet
  facet normal 0 0 1
    outer loop
      vertex 2.43596 -12.7697 0
      vertex 0.515298 -2.70129 0
      vertex 0.816277 -12.9743 0
    endloop
  endfacet
  facet normal -0 0 1
    outer loop
      vertex 0.172673 -2.74457 0
      vertex 0.816277 -12.9743 0
      vertex 0.515298 -2.70129 0
    endloop
  endfacet
  facet normal -0 0 1
    outer loop
      vertex -0.172673 -2.74457 0
      vertex 0.816277 -12.9743 0
      vertex 0.172673 -2.74457 0
    endloop
  endfacet
  facet normal 0 0 1
    outer loop
      vertex -0.816277 -12.9743 0
      vertex -0.172673 -2.74457 0
      vertex -0.515298 -2.70129 0
    endloop
  endfacet
  facet normal 0 0 1
    outer loop
      vertex -0.172673 -2.74457 0
      vertex -0.816277 -12.9743 0
      vertex 0.816277 -12.9743 0
    endloop
  endfacet
  facet normal 0 0 1
    outer loop
      vertex -2.43596 -12.7697 0
      vertex -0.515298 -2.70129 0
      vertex -0.849796 -2.61541 0
    endloop
  endfacet
  facet normal 0 0 1
    outer loop
      vertex -4.01722 -12.3637 0
      vertex -0.849796 -2.61541 0
      vertex -1.17089 -2.48827 0
    endloop
  endfacet
  facet normal 0 0 1
    outer loop
      vertex -5.53513 -11.7628 0
      vertex -1.17089 -2.48827 0
      vertex -1.47352 -2.3219 0
    endloop
  endfacet
  facet normal 0 0 1
    outer loop
      vertex -6.96575 -10.9763 0
      vertex -1.47352 -2.3219 0
      vertex -1.75292 -2.11891 0
    endloop
  endfacet
  facet normal 0 0 1
    outer loop
      vertex -8.28651 -10.0167 0
      vertex -1.75292 -2.11891 0
      vertex -2.00466 -1.8825 0
    endloop
  endfacet
  facet normal 0 0 1
    outer loop
      vertex -9.47659 -8.89911 0
      vertex -2.00466 -1.8825 0
      vertex -2.2248 -1.61641 0
    endloop
  endfacet
  facet normal 0 0 1
    outer loop
      vertex -10.5172 -7.64121 0
      vertex -2.2248 -1.61641 0
      vertex -2.40984 -1.32482 0
    endloop
  endfacet
  facet normal 0 0 1
    outer loop
      vertex -0.515298 -2.70129 0
      vertex -2.43596 -12.7697 0
      vertex -0.816277 -12.9743 0
    endloop
  endfacet
  facet normal 0 0 1
    outer loop
      vertex -11.392 -6.2628 0
      vertex -2.40984 -1.32482 0
      vertex -2.55688 -1.01234 0
    endloop
  endfacet
  facet normal 0 0 1
    outer loop
      vertex -12.0871 -4.78562 0
      vertex -2.55688 -1.01234 0
      vertex -2.6636 -0.683897 0
    endloop
  endfacet
  facet normal 0 0 1
    outer loop
      vertex -12.5916 -3.23297 0
      vertex -2.6636 -0.683897 0
      vertex -2.72832 -0.344666 0
    endloop
  endfacet
  facet normal 0 0 1
    outer loop
      vertex -12.8975 -1.62933 0
      vertex -2.72832 -0.344666 0
      vertex -2.75 0 0
    endloop
  endfacet
  facet normal 0 0 1
    outer loop
      vertex -2.2248 1.61641 0
      vertex -10.5172 7.64121 0
      vertex -2.40984 1.32482 0
    endloop
  endfacet
  facet normal 0 0 1
    outer loop
      vertex -0.849796 -2.61541 0
      vertex -4.01722 -12.3637 0
      vertex -2.43596 -12.7697 0
    endloop
  endfacet
  facet normal -0 0 1
    outer loop
      vertex -11.392 6.2628 0
      vertex -2.40984 1.32482 0
      vertex -10.5172 7.64121 0
    endloop
  endfacet
  facet normal 0 0 1
    outer loop
      vertex -1.17089 -2.48827 0
      vertex -5.53513 -11.7628 0
      vertex -4.01722 -12.3637 0
    endloop
  endfacet
  facet normal 0 0 1
    outer loop
      vertex -2.40984 1.32482 0
      vertex -11.392 6.2628 0
      vertex -2.55688 1.01234 0
    endloop
  endfacet
  facet normal 0 0 1
    outer loop
      vertex -1.47352 -2.3219 0
      vertex -6.96575 -10.9763 0
      vertex -5.53513 -11.7628 0
    endloop
  endfacet
  facet normal -0 0 1
    outer loop
      vertex -12.0871 4.78562 0
      vertex -2.55688 1.01234 0
      vertex -11.392 6.2628 0
    endloop
  endfacet
  facet normal 0 0 1
    outer loop
      vertex -1.75292 -2.11891 0
      vertex -8.28651 -10.0167 0
      vertex -6.96575 -10.9763 0
    endloop
  endfacet
  facet normal 0 0 1
    outer loop
      vertex -2.55688 1.01234 0
      vertex -12.0871 4.78562 0
      vertex -2.6636 0.683897 0
    endloop
  endfacet
  facet normal 0 0 1
    outer loop
      vertex -2.00466 -1.8825 0
      vertex -9.47659 -8.89911 0
      vertex -8.28651 -10.0167 0
    endloop
  endfacet
  facet normal -0 0 1
    outer loop
      vertex -12.5916 3.23297 0
      vertex -2.6636 0.683897 0
      vertex -12.0871 4.78562 0
    endloop
  endfacet
  facet normal 0 0 1
    outer loop
      vertex -2.2248 -1.61641 0
      vertex -10.5172 -7.64121 0
      vertex -9.47659 -8.89911 0
    endloop
  endfacet
  facet normal 0 0 1
    outer loop
      vertex -2.6636 0.683897 0
      vertex -12.5916 3.23297 0
      vertex -2.72832 0.344666 0
    endloop
  endfacet
  facet normal 0 0 1
    outer loop
      vertex -2.40984 -1.32482 0
      vertex -11.392 -6.2628 0
      vertex -10.5172 -7.64121 0
    endloop
  endfacet
  facet normal -0 0 1
    outer loop
      vertex -12.8975 1.62933 0
      vertex -2.72832 0.344666 0
      vertex -12.5916 3.23297 0
    endloop
  endfacet
  facet normal 0 0 1
    outer loop
      vertex -2.55688 -1.01234 0
      vertex -12.0871 -4.78562 0
      vertex -11.392 -6.2628 0
    endloop
  endfacet
  facet normal 0 0 1
    outer loop
      vertex -2.72832 0.344666 0
      vertex -12.8975 1.62933 0
      vertex -2.75 0 0
    endloop
  endfacet
  facet normal 0 0 1
    outer loop
      vertex -2.6636 -0.683897 0
      vertex -12.5916 -3.23297 0
      vertex -12.0871 -4.78562 0
    endloop
  endfacet
  facet normal 0 0 1
    outer loop
      vertex -13 0 0
      vertex -2.75 0 0
      vertex -12.8975 1.62933 0
    endloop
  endfacet
  facet normal 0 0 1
    outer loop
      vertex -2.72832 -0.344666 0
      vertex -12.8975 -1.62933 0
      vertex -12.5916 -3.23297 0
    endloop
  endfacet
  facet normal 0 0 1
    outer loop
      vertex -2.75 0 0
      vertex -13 0 0
      vertex -12.8975 -1.62933 0
    endloop
  endfacet
  facet normal 0 0 -1
    outer loop
      vertex 2.75 0 -3
      vertex 13 0 -3
      vertex 12.8975 -1.62933 -3
    endloop
  endfacet
  facet normal 0 0 -1
    outer loop
      vertex 2.72832 -0.344666 -3
      vertex 12.8975 -1.62933 -3
      vertex 12.5916 -3.23297 -3
    endloop
  endfacet
  facet normal 0 0 -1
    outer loop
      vertex 13 0 -3
      vertex 2.75 0 -3
      vertex 12.8975 1.62933 -3
    endloop
  endfacet
  facet normal 0 0 -1
    outer loop
      vertex 2.6636 -0.683897 -3
      vertex 12.5916 -3.23297 -3
      vertex 12.0871 -4.78562 -3
    endloop
  endfacet
  facet normal 0 0 -1
    outer loop
      vertex 2.72832 0.344666 -3
      vertex 12.8975 1.62933 -3
      vertex 2.75 0 -3
    endloop
  endfacet
  facet normal 0 0 -1
    outer loop
      vertex 2.55688 -1.01234 -3
      vertex 12.0871 -4.78562 -3
      vertex 11.392 -6.2628 -3
    endloop
  endfacet
  facet normal -0 0 -1
    outer loop
      vertex 12.8975 1.62933 -3
      vertex 2.72832 0.344666 -3
      vertex 12.5916 3.23297 -3
    endloop
  endfacet
  facet normal 0 0 -1
    outer loop
      vertex 2.40984 -1.32482 -3
      vertex 11.392 -6.2628 -3
      vertex 10.5172 -7.64121 -3
    endloop
  endfacet
  facet normal 0 0 -1
    outer loop
      vertex 2.6636 0.683897 -3
      vertex 12.5916 3.23297 -3
      vertex 2.72832 0.344666 -3
    endloop
  endfacet
  facet normal 0 0 -1
    outer loop
      vertex 2.2248 -1.61641 -3
      vertex 10.5172 -7.64121 -3
      vertex 9.47659 -8.89911 -3
    endloop
  endfacet
  facet normal -0 0 -1
    outer loop
      vertex 12.5916 3.23297 -3
      vertex 2.6636 0.683897 -3
      vertex 12.0871 4.78562 -3
    endloop
  endfacet
  facet normal 0 0 -1
    outer loop
      vertex 2.00466 -1.8825 -3
      vertex 9.47659 -8.89911 -3
      vertex 8.28651 -10.0167 -3
    endloop
  endfacet
  facet normal 0 0 -1
    outer loop
      vertex 2.55688 1.01234 -3
      vertex 12.0871 4.78562 -3
      vertex 2.6636 0.683897 -3
    endloop
  endfacet
  facet normal 0 0 -1
    outer loop
      vertex 1.75292 -2.11891 -3
      vertex 8.28651 -10.0167 -3
      vertex 6.96575 -10.9763 -3
    endloop
  endfacet
  facet normal -0 0 -1
    outer loop
      vertex 12.0871 4.78562 -3
      vertex 2.55688 1.01234 -3
      vertex 11.392 6.2628 -3
    endloop
  endfacet
  facet normal 0 0 -1
    outer loop
      vertex 1.47352 -2.3219 -3
      vertex 6.96575 -10.9763 -3
      vertex 5.53513 -11.7628 -3
    endloop
  endfacet
  facet normal 0 0 -1
    outer loop
      vertex 2.40984 1.32482 -3
      vertex 11.392 6.2628 -3
      vertex 2.55688 1.01234 -3
    endloop
  endfacet
  facet normal 0 0 -1
    outer loop
      vertex 1.17089 -2.48827 -3
      vertex 5.53513 -11.7628 -3
      vertex 4.01722 -12.3637 -3
    endloop
  endfacet
  facet normal -0 0 -1
    outer loop
      vertex 11.392 6.2628 -3
      vertex 2.40984 1.32482 -3
      vertex 10.5172 7.64121 -3
    endloop
  endfacet
  facet normal 0 0 -1
    outer loop
      vertex 2.2248 1.61641 -3
      vertex 10.5172 7.64121 -3
      vertex 2.40984 1.32482 -3
    endloop
  endfacet
  facet normal 0 0 -1
    outer loop
      vertex 12.8975 -1.62933 -3
      vertex 2.72832 -0.344666 -3
      vertex 2.75 0 -3
    endloop
  endfacet
  facet normal 0 0 -1
    outer loop
      vertex 12.5916 -3.23297 -3
      vertex 2.6636 -0.683897 -3
      vertex 2.72832 -0.344666 -3
    endloop
  endfacet
  facet normal 0 0 -1
    outer loop
      vertex 12.0871 -4.78562 -3
      vertex 2.55688 -1.01234 -3
      vertex 2.6636 -0.683897 -3
    endloop
  endfacet
  facet normal 0 0 -1
    outer loop
      vertex 0.849796 -2.61541 -3
      vertex 4.01722 -12.3637 -3
      vertex 2.43596 -12.7697 -3
    endloop
  endfacet
  facet normal 0 0 -1
    outer loop
      vertex 11.392 -6.2628 -3
      vertex 2.40984 -1.32482 -3
      vertex 2.55688 -1.01234 -3
    endloop
  endfacet
  facet normal 0 0 -1
    outer loop
      vertex 10.5172 -7.64121 -3
      vertex 2.2248 -1.61641 -3
      vertex 2.40984 -1.32482 -3
    endloop
  endfacet
  facet normal 0 0 -1
    outer loop
      vertex 9.47659 -8.89911 -3
      vertex 2.00466 -1.8825 -3
      vertex 2.2248 -1.61641 -3
    endloop
  endfacet
  facet normal 0 0 -1
    outer loop
      vertex 8.28651 -10.0167 -3
      vertex 1.75292 -2.11891 -3
      vertex 2.00466 -1.8825 -3
    endloop
  endfacet
  facet normal 0 0 -1
    outer loop
      vertex 6.96575 -10.9763 -3
      vertex 1.47352 -2.3219 -3
      vertex 1.75292 -2.11891 -3
    endloop
  endfacet
  facet normal 0 0 -1
    outer loop
      vertex 5.53513 -11.7628 -3
      vertex 1.17089 -2.48827 -3
      vertex 1.47352 -2.3219 -3
    endloop
  endfacet
  facet normal 0 0 -1
    outer loop
      vertex 4.01722 -12.3637 -3
      vertex 0.849796 -2.61541 -3
      vertex 1.17089 -2.48827 -3
    endloop
  endfacet
  facet normal 0 0 -1
    outer loop
      vertex 0.515298 -2.70129 -3
      vertex 2.43596 -12.7697 -3
      vertex 0.816277 -12.9743 -3
    endloop
  endfacet
  facet normal 0 0 -1
    outer loop
      vertex 2.43596 -12.7697 -3
      vertex 0.515298 -2.70129 -3
      vertex 0.849796 -2.61541 -3
    endloop
  endfacet
  facet normal 0 0 -1
    outer loop
      vertex 0.816277 -12.9743 -3
      vertex 0.172673 -2.74457 -3
      vertex 0.515298 -2.70129 -3
    endloop
  endfacet
  facet normal 0 0 -1
    outer loop
      vertex 0.816277 -12.9743 -3
      vertex -0.172673 -2.74457 -3
      vertex 0.172673 -2.74457 -3
    endloop
  endfacet
  facet normal 0 0 -1
    outer loop
      vertex -0.816277 -12.9743 -3
      vertex -0.172673 -2.74457 -3
      vertex 0.816277 -12.9743 -3
    endloop
  endfacet
  facet normal -0 0 -1
    outer loop
      vertex -0.172673 -2.74457 -3
      vertex -0.816277 -12.9743 -3
      vertex -0.515298 -2.70129 -3
    endloop
  endfacet
  facet normal 0 0 -1
    outer loop
      vertex -2.43596 -12.7697 -3
      vertex -0.515298 -2.70129 -3
      vertex -0.816277 -12.9743 -3
    endloop
  endfacet
  facet normal -0 0 -1
    outer loop
      vertex -0.515298 -2.70129 -3
      vertex -2.43596 -12.7697 -3
      vertex -0.849796 -2.61541 -3
    endloop
  endfacet
  facet normal 0 0 -1
    outer loop
      vertex -4.01722 -12.3637 -3
      vertex -0.849796 -2.61541 -3
      vertex -2.43596 -12.7697 -3
    endloop
  endfacet
  facet normal -0 0 -1
    outer loop
      vertex -0.849796 -2.61541 -3
      vertex -4.01722 -12.3637 -3
      vertex -1.17089 -2.48827 -3
    endloop
  endfacet
  facet normal 0 0 -1
    outer loop
      vertex -5.53513 -11.7628 -3
      vertex -1.17089 -2.48827 -3
      vertex -4.01722 -12.3637 -3
    endloop
  endfacet
  facet normal -0 0 -1
    outer loop
      vertex -1.17089 -2.48827 -3
      vertex -5.53513 -11.7628 -3
      vertex -1.47352 -2.3219 -3
    endloop
  endfacet
  facet normal 0 0 -1
    outer loop
      vertex -6.96575 -10.9763 -3
      vertex -1.47352 -2.3219 -3
      vertex -5.53513 -11.7628 -3
    endloop
  endfacet
  facet normal -0 0 -1
    outer loop
      vertex -1.47352 -2.3219 -3
      vertex -6.96575 -10.9763 -3
      vertex -1.75292 -2.11891 -3
    endloop
  endfacet
  facet normal 0 0 -1
    outer loop
      vertex -8.28651 -10.0167 -3
      vertex -1.75292 -2.11891 -3
      vertex -6.96575 -10.9763 -3
    endloop
  endfacet
  facet normal -0 0 -1
    outer loop
      vertex -1.75292 -2.11891 -3
      vertex -8.28651 -10.0167 -3
      vertex -2.00466 -1.8825 -3
    endloop
  endfacet
  facet normal 0 0 -1
    outer loop
      vertex -9.47659 -8.89911 -3
      vertex -2.00466 -1.8825 -3
      vertex -8.28651 -10.0167 -3
    endloop
  endfacet
  facet normal -0 0 -1
    outer loop
      vertex -2.00466 -1.8825 -3
      vertex -9.47659 -8.89911 -3
      vertex -2.2248 -1.61641 -3
    endloop
  endfacet
  facet normal 0 0 -1
    outer loop
      vertex -10.5172 -7.64121 -3
      vertex -2.2248 -1.61641 -3
      vertex -9.47659 -8.89911 -3
    endloop
  endfacet
  facet normal -0 0 -1
    outer loop
      vertex 10.5172 7.64121 -3
      vertex 2.2248 1.61641 -3
      vertex 9.47659 8.89911 -3
    endloop
  endfacet
  facet normal 0 0 -1
    outer loop
      vertex 2.00466 1.8825 -3
      vertex 9.47659 8.89911 -3
      vertex 2.2248 1.61641 -3
    endloop
  endfacet
  facet normal -0 0 -1
    outer loop
      vertex 9.47659 8.89911 -3
      vertex 2.00466 1.8825 -3
      vertex 8.28651 10.0167 -3
    endloop
  endfacet
  facet normal 0 0 -1
    outer loop
      vertex 1.75292 2.11891 -3
      vertex 8.28651 10.0167 -3
      vertex 2.00466 1.8825 -3
    endloop
  endfacet
  facet normal -0 0 -1
    outer loop
      vertex 8.28651 10.0167 -3
      vertex 1.75292 2.11891 -3
      vertex 6.96575 10.9763 -3
    endloop
  endfacet
  facet normal 0 0 -1
    outer loop
      vertex 1.47352 2.3219 -3
      vertex 6.96575 10.9763 -3
      vertex 1.75292 2.11891 -3
    endloop
  endfacet
  facet normal -0 0 -1
    outer loop
      vertex 6.96575 10.9763 -3
      vertex 1.47352 2.3219 -3
      vertex 5.53513 11.7628 -3
    endloop
  endfacet
  facet normal 0 0 -1
    outer loop
      vertex 1.17089 2.48827 -3
      vertex 5.53513 11.7628 -3
      vertex 1.47352 2.3219 -3
    endloop
  endfacet
  facet normal -0 0 -1
    outer loop
      vertex 5.53513 11.7628 -3
      vertex 1.17089 2.48827 -3
      vertex 4.01722 12.3637 -3
    endloop
  endfacet
  facet normal 0 0 -1
    outer loop
      vertex 0.849796 2.61541 -3
      vertex 4.01722 12.3637 -3
      vertex 1.17089 2.48827 -3
    endloop
  endfacet
  facet normal -0 0 -1
    outer loop
      vertex 4.01722 12.3637 -3
      vertex 0.849796 2.61541 -3
      vertex 2.43596 12.7697 -3
    endloop
  endfacet
  facet normal 0 0 -1
    outer loop
      vertex 0.515298 2.70129 -3
      vertex 2.43596 12.7697 -3
      vertex 0.849796 2.61541 -3
    endloop
  endfacet
  facet normal -0 0 -1
    outer loop
      vertex 2.43596 12.7697 -3
      vertex 0.515298 2.70129 -3
      vertex 0.816277 12.9743 -3
    endloop
  endfacet
  facet normal 0 0 -1
    outer loop
      vertex 0.172673 2.74457 -3
      vertex 0.816277 12.9743 -3
      vertex 0.515298 2.70129 -3
    endloop
  endfacet
  facet normal 0 0 -1
    outer loop
      vertex -0.172673 2.74457 -3
      vertex 0.816277 12.9743 -3
      vertex 0.172673 2.74457 -3
    endloop
  endfacet
  facet normal 0 0 -1
    outer loop
      vertex -0.816277 12.9743 -3
      vertex -0.172673 2.74457 -3
      vertex -0.515298 2.70129 -3
    endloop
  endfacet
  facet normal 0 0 -1
    outer loop
      vertex -0.172673 2.74457 -3
      vertex -0.816277 12.9743 -3
      vertex 0.816277 12.9743 -3
    endloop
  endfacet
  facet normal 0 0 -1
    outer loop
      vertex -2.43596 12.7697 -3
      vertex -0.515298 2.70129 -3
      vertex -0.849796 2.61541 -3
    endloop
  endfacet
  facet normal 0 0 -1
    outer loop
      vertex -4.01722 12.3637 -3
      vertex -0.849796 2.61541 -3
      vertex -1.17089 2.48827 -3
    endloop
  endfacet
  facet normal 0 0 -1
    outer loop
      vertex -5.53513 11.7628 -3
      vertex -1.17089 2.48827 -3
      vertex -1.47352 2.3219 -3
    endloop
  endfacet
  facet normal 0 0 -1
    outer loop
      vertex -6.96575 10.9763 -3
      vertex -1.47352 2.3219 -3
      vertex -1.75292 2.11891 -3
    endloop
  endfacet
  facet normal 0 0 -1
    outer loop
      vertex -8.28651 10.0167 -3
      vertex -1.75292 2.11891 -3
      vertex -2.00466 1.8825 -3
    endloop
  endfacet
  facet normal 0 0 -1
    outer loop
      vertex -9.47659 8.89911 -3
      vertex -2.00466 1.8825 -3
      vertex -2.2248 1.61641 -3
    endloop
  endfacet
  facet normal 0 0 -1
    outer loop
      vertex -10.5172 7.64121 -3
      vertex -2.2248 1.61641 -3
      vertex -2.40984 1.32482 -3
    endloop
  endfacet
  facet normal 0 0 -1
    outer loop
      vertex -0.515298 2.70129 -3
      vertex -2.43596 12.7697 -3
      vertex -0.816277 12.9743 -3
    endloop
  endfacet
  facet normal 0 0 -1
    outer loop
      vertex -11.392 6.2628 -3
      vertex -2.40984 1.32482 -3
      vertex -2.55688 1.01234 -3
    endloop
  endfacet
  facet normal 0 0 -1
    outer loop
      vertex -12.0871 4.78562 -3
      vertex -2.55688 1.01234 -3
      vertex -2.6636 0.683897 -3
    endloop
  endfacet
  facet normal 0 0 -1
    outer loop
      vertex -12.5916 3.23297 -3
      vertex -2.6636 0.683897 -3
      vertex -2.72832 0.344666 -3
    endloop
  endfacet
  facet normal 0 0 -1
    outer loop
      vertex -12.8975 1.62933 -3
      vertex -2.72832 0.344666 -3
      vertex -2.75 0 -3
    endloop
  endfacet
  facet normal -0 0 -1
    outer loop
      vertex -2.2248 -1.61641 -3
      vertex -10.5172 -7.64121 -3
      vertex -2.40984 -1.32482 -3
    endloop
  endfacet
  facet normal 0 0 -1
    outer loop
      vertex -0.849796 2.61541 -3
      vertex -4.01722 12.3637 -3
      vertex -2.43596 12.7697 -3
    endloop
  endfacet
  facet normal 0 0 -1
    outer loop
      vertex -11.392 -6.2628 -3
      vertex -2.40984 -1.32482 -3
      vertex -10.5172 -7.64121 -3
    endloop
  endfacet
  facet normal 0 0 -1
    outer loop
      vertex -1.17089 2.48827 -3
      vertex -5.53513 11.7628 -3
      vertex -4.01722 12.3637 -3
    endloop
  endfacet
  facet normal -0 0 -1
    outer loop
      vertex -2.40984 -1.32482 -3
      vertex -11.392 -6.2628 -3
      vertex -2.55688 -1.01234 -3
    endloop
  endfacet
  facet normal 0 0 -1
    outer loop
      vertex -1.47352 2.3219 -3
      vertex -6.96575 10.9763 -3
      vertex -5.53513 11.7628 -3
    endloop
  endfacet
  facet normal 0 0 -1
    outer loop
      vertex -12.0871 -4.78562 -3
      vertex -2.55688 -1.01234 -3
      vertex -11.392 -6.2628 -3
    endloop
  endfacet
  facet normal 0 0 -1
    outer loop
      vertex -1.75292 2.11891 -3
      vertex -8.28651 10.0167 -3
      vertex -6.96575 10.9763 -3
    endloop
  endfacet
  facet normal -0 0 -1
    outer loop
      vertex -2.55688 -1.01234 -3
      vertex -12.0871 -4.78562 -3
      vertex -2.6636 -0.683897 -3
    endloop
  endfacet
  facet normal 0 0 -1
    outer loop
      vertex -2.00466 1.8825 -3
      vertex -9.47659 8.89911 -3
      vertex -8.28651 10.0167 -3
    endloop
  endfacet
  facet normal 0 0 -1
    outer loop
      vertex -12.5916 -3.23297 -3
      vertex -2.6636 -0.683897 -3
      vertex -12.0871 -4.78562 -3
    endloop
  endfacet
  facet normal 0 0 -1
    outer loop
      vertex -2.2248 1.61641 -3
      vertex -10.5172 7.64121 -3
      vertex -9.47659 8.89911 -3
    endloop
  endfacet
  facet normal -0 0 -1
    outer loop
      vertex -2.6636 -0.683897 -3
      vertex -12.5916 -3.23297 -3
      vertex -2.72832 -0.344666 -3
    endloop
  endfacet
  facet normal 0 0 -1
    outer loop
      vertex -2.40984 1.32482 -3
      vertex -11.392 6.2628 -3
      vertex -10.5172 7.64121 -3
    endloop
  endfacet
  facet normal 0 0 -1
    outer loop
      vertex -12.8975 -1.62933 -3
      vertex -2.72832 -0.344666 -3
      vertex -12.5916 -3.23297 -3
    endloop
  endfacet
  facet normal 0 0 -1
    outer loop
      vertex -2.55688 1.01234 -3
      vertex -12.0871 4.78562 -3
      vertex -11.392 6.2628 -3
    endloop
  endfacet
  facet normal -0 0 -1
    outer loop
      vertex -2.72832 -0.344666 -3
      vertex -12.8975 -1.62933 -3
      vertex -2.75 0 -3
    endloop
  endfacet
  facet normal 0 0 -1
    outer loop
      vertex -2.6636 0.683897 -3
      vertex -12.5916 3.23297 -3
      vertex -12.0871 4.78562 -3
    endloop
  endfacet
  facet normal 0 0 -1
    outer loop
      vertex -13 0 -3
      vertex -2.75 0 -3
      vertex -12.8975 -1.62933 -3
    endloop
  endfacet
  facet normal 0 0 -1
    outer loop
      vertex -2.72832 0.344666 -3
      vertex -12.8975 1.62933 -3
      vertex -12.5916 3.23297 -3
    endloop
  endfacet
  facet normal 0 0 -1
    outer loop
      vertex -2.75 0 -3
      vertex -13 0 -3
      vertex -12.8975 1.62933 -3
    endloop
  endfacet
  facet normal 0.998027 0.0627852 0
    outer loop
      vertex 13 0 0
      vertex 12.8975 1.62933 -3
      vertex 12.8975 1.62933 0
    endloop
  endfacet
  facet normal 0.998027 0.0627852 0
    outer loop
      vertex 12.8975 1.62933 -3
      vertex 13 0 0
      vertex 13 0 -3
    endloop
  endfacet
  facet normal -0.998027 0.0627852 0
    outer loop
      vertex -13 0 -3
      vertex -12.8975 1.62933 0
      vertex -12.8975 1.62933 -3
    endloop
  endfacet
  facet normal -0.998027 0.0627852 0
    outer loop
      vertex -12.8975 1.62933 0
      vertex -13 0 -3
      vertex -13 0 0
    endloop
  endfacet
  facet normal 0 1 -0
    outer loop
      vertex 0.816277 12.9743 -3
      vertex -0.816277 12.9743 0
      vertex 0.816277 12.9743 0
    endloop
  endfacet
  facet normal 0 1 0
    outer loop
      vertex -0.816277 12.9743 0
      vertex 0.816277 12.9743 -3
      vertex -0.816277 12.9743 -3
    endloop
  endfacet
  facet normal 0 -1 0
    outer loop
      vertex -0.816277 -12.9743 -3
      vertex 0.816277 -12.9743 0
      vertex -0.816277 -12.9743 0
    endloop
  endfacet
  facet normal 0 -1 -0
    outer loop
      vertex 0.816277 -12.9743 0
      vertex -0.816277 -12.9743 -3
      vertex 0.816277 -12.9743 -3
    endloop
  endfacet
  facet normal 0.770518 -0.637418 0
    outer loop
      vertex 9.47659 -8.89911 0
      vertex 10.5172 -7.64121 -3
      vertex 10.5172 -7.64121 0
    endloop
  endfacet
  facet normal 0.770518 -0.637418 0
    outer loop
      vertex 10.5172 -7.64121 -3
      vertex 9.47659 -8.89911 0
      vertex 9.47659 -8.89911 -3
    endloop
  endfacet
  facet normal 0.684557 0.728959 -0
    outer loop
      vertex 9.47659 8.89911 -3
      vertex 8.28651 10.0167 0
      vertex 9.47659 8.89911 0
    endloop
  endfacet
  facet normal 0.684557 0.728959 0
    outer loop
      vertex 8.28651 10.0167 0
      vertex 9.47659 8.89911 -3
      vertex 8.28651 10.0167 -3
    endloop
  endfacet
  facet normal -0.684557 0.728959 0
    outer loop
      vertex -8.28651 10.0167 -3
      vertex -9.47659 8.89911 0
      vertex -8.28651 10.0167 0
    endloop
  endfacet
  facet normal -0.684557 0.728959 0
    outer loop
      vertex -9.47659 8.89911 0
      vertex -8.28651 10.0167 -3
      vertex -9.47659 8.89911 -3
    endloop
  endfacet
  facet normal -0.368081 0.929794 0
    outer loop
      vertex -4.01722 12.3637 -3
      vertex -5.53513 11.7628 0
      vertex -4.01722 12.3637 0
    endloop
  endfacet
  facet normal -0.368081 0.929794 0
    outer loop
      vertex -5.53513 11.7628 0
      vertex -4.01722 12.3637 -3
      vertex -5.53513 11.7628 -3
    endloop
  endfacet
  facet normal 0.904829 0.425775 0
    outer loop
      vertex 12.0871 4.78562 0
      vertex 11.392 6.2628 -3
      vertex 11.392 6.2628 0
    endloop
  endfacet
  facet normal 0.904829 0.425775 0
    outer loop
      vertex 11.392 6.2628 -3
      vertex 12.0871 4.78562 0
      vertex 12.0871 4.78562 -3
    endloop
  endfacet
  facet normal 0.368081 0.929794 -0
    outer loop
      vertex 5.53513 11.7628 -3
      vertex 4.01722 12.3637 0
      vertex 5.53513 11.7628 0
    endloop
  endfacet
  facet normal 0.368081 0.929794 0
    outer loop
      vertex 4.01722 12.3637 0
      vertex 5.53513 11.7628 -3
      vertex 4.01722 12.3637 -3
    endloop
  endfacet
  facet normal 0.481758 0.876304 -0
    outer loop
      vertex 6.96575 10.9763 -3
      vertex 5.53513 11.7628 0
      vertex 6.96575 10.9763 0
    endloop
  endfacet
  facet normal 0.481758 0.876304 0
    outer loop
      vertex 5.53513 11.7628 0
      vertex 6.96575 10.9763 -3
      vertex 5.53513 11.7628 -3
    endloop
  endfacet
  facet normal -0.844318 0.535842 0
    outer loop
      vertex -11.392 6.2628 -3
      vertex -10.5172 7.64121 0
      vertex -10.5172 7.64121 -3
    endloop
  endfacet
  facet normal -0.844318 0.535842 0
    outer loop
      vertex -10.5172 7.64121 0
      vertex -11.392 6.2628 -3
      vertex -11.392 6.2628 0
    endloop
  endfacet
  facet normal -0.770518 0.637418 0
    outer loop
      vertex -10.5172 7.64121 -3
      vertex -9.47659 8.89911 0
      vertex -9.47659 8.89911 -3
    endloop
  endfacet
  facet normal -0.770518 0.637418 0
    outer loop
      vertex -9.47659 8.89911 0
      vertex -10.5172 7.64121 -3
      vertex -10.5172 7.64121 0
    endloop
  endfacet
  facet normal -0.58779 0.809014 0
    outer loop
      vertex -6.96575 10.9763 -3
      vertex -8.28651 10.0167 0
      vertex -6.96575 10.9763 0
    endloop
  endfacet
  facet normal -0.58779 0.809014 0
    outer loop
      vertex -8.28651 10.0167 0
      vertex -6.96575 10.9763 -3
      vertex -8.28651 10.0167 -3
    endloop
  endfacet
  facet normal -0.248691 0.968583 0
    outer loop
      vertex -2.43596 12.7697 -3
      vertex -4.01722 12.3637 0
      vertex -2.43596 12.7697 0
    endloop
  endfacet
  facet normal -0.248691 0.968583 0
    outer loop
      vertex -4.01722 12.3637 0
      vertex -2.43596 12.7697 -3
      vertex -4.01722 12.3637 -3
    endloop
  endfacet
  facet normal 0.951054 0.309024 0
    outer loop
      vertex 12.5916 3.23297 0
      vertex 12.0871 4.78562 -3
      vertex 12.0871 4.78562 0
    endloop
  endfacet
  facet normal 0.951054 0.309024 0
    outer loop
      vertex 12.0871 4.78562 -3
      vertex 12.5916 3.23297 0
      vertex 12.5916 3.23297 -3
    endloop
  endfacet
  facet normal 0.982288 0.187375 0
    outer loop
      vertex 12.8975 1.62933 0
      vertex 12.5916 3.23297 -3
      vertex 12.5916 3.23297 0
    endloop
  endfacet
  facet normal 0.982288 0.187375 0
    outer loop
      vertex 12.5916 3.23297 -3
      vertex 12.8975 1.62933 0
      vertex 12.8975 1.62933 -3
    endloop
  endfacet
  facet normal 0.770518 0.637418 0
    outer loop
      vertex 10.5172 7.64121 0
      vertex 9.47659 8.89911 -3
      vertex 9.47659 8.89911 0
    endloop
  endfacet
  facet normal 0.770518 0.637418 0
    outer loop
      vertex 9.47659 8.89911 -3
      vertex 10.5172 7.64121 0
      vertex 10.5172 7.64121 -3
    endloop
  endfacet
  facet normal 0.844318 0.535842 0
    outer loop
      vertex 11.392 6.2628 0
      vertex 10.5172 7.64121 -3
      vertex 10.5172 7.64121 0
    endloop
  endfacet
  facet normal 0.844318 0.535842 0
    outer loop
      vertex 10.5172 7.64121 -3
      vertex 11.392 6.2628 0
      vertex 11.392 6.2628 -3
    endloop
  endfacet
  facet normal 0.248691 0.968583 -0
    outer loop
      vertex 4.01722 12.3637 -3
      vertex 2.43596 12.7697 0
      vertex 4.01722 12.3637 0
    endloop
  endfacet
  facet normal 0.248691 0.968583 0
    outer loop
      vertex 2.43596 12.7697 0
      vertex 4.01722 12.3637 -3
      vertex 2.43596 12.7697 -3
    endloop
  endfacet
  facet normal 0.125325 0.992116 -0
    outer loop
      vertex 2.43596 12.7697 -3
      vertex 0.816277 12.9743 0
      vertex 2.43596 12.7697 0
    endloop
  endfacet
  facet normal 0.125325 0.992116 0
    outer loop
      vertex 0.816277 12.9743 0
      vertex 2.43596 12.7697 -3
      vertex 0.816277 12.9743 -3
    endloop
  endfacet
  facet normal 0.58779 0.809014 -0
    outer loop
      vertex 8.28651 10.0167 -3
      vertex 6.96575 10.9763 0
      vertex 8.28651 10.0167 0
    endloop
  endfacet
  facet normal 0.58779 0.809014 0
    outer loop
      vertex 6.96575 10.9763 0
      vertex 8.28651 10.0167 -3
      vertex 6.96575 10.9763 -3
    endloop
  endfacet
  facet normal -0.904829 0.425775 0
    outer loop
      vertex -12.0871 4.78562 -3
      vertex -11.392 6.2628 0
      vertex -11.392 6.2628 -3
    endloop
  endfacet
  facet normal -0.904829 0.425775 0
    outer loop
      vertex -11.392 6.2628 0
      vertex -12.0871 4.78562 -3
      vertex -12.0871 4.78562 0
    endloop
  endfacet
  facet normal -0.982288 0.187375 0
    outer loop
      vertex -12.8975 1.62933 -3
      vertex -12.5916 3.23297 0
      vertex -12.5916 3.23297 -3
    endloop
  endfacet
  facet normal -0.982288 0.187375 0
    outer loop
      vertex -12.5916 3.23297 0
      vertex -12.8975 1.62933 -3
      vertex -12.8975 1.62933 0
    endloop
  endfacet
  facet normal -0.481758 0.876304 0
    outer loop
      vertex -5.53513 11.7628 -3
      vertex -6.96575 10.9763 0
      vertex -5.53513 11.7628 0
    endloop
  endfacet
  facet normal -0.481758 0.876304 0
    outer loop
      vertex -6.96575 10.9763 0
      vertex -5.53513 11.7628 -3
      vertex -6.96575 10.9763 -3
    endloop
  endfacet
  facet normal -0.125325 0.992116 0
    outer loop
      vertex -0.816277 12.9743 -3
      vertex -2.43596 12.7697 0
      vertex -0.816277 12.9743 0
    endloop
  endfacet
  facet normal -0.125325 0.992116 0
    outer loop
      vertex -2.43596 12.7697 0
      vertex -0.816277 12.9743 -3
      vertex -2.43596 12.7697 -3
    endloop
  endfacet
  facet normal 0.998027 -0.0627852 0
    outer loop
      vertex 12.8975 -1.62933 0
      vertex 13 0 -3
      vertex 13 0 0
    endloop
  endfacet
  facet normal 0.998027 -0.0627852 0
    outer loop
      vertex 13 0 -3
      vertex 12.8975 -1.62933 0
      vertex 12.8975 -1.62933 -3
    endloop
  endfacet
  facet normal 0.368081 -0.929794 0
    outer loop
      vertex 4.01722 -12.3637 -3
      vertex 5.53513 -11.7628 0
      vertex 4.01722 -12.3637 0
    endloop
  endfacet
  facet normal 0.368081 -0.929794 0
    outer loop
      vertex 5.53513 -11.7628 0
      vertex 4.01722 -12.3637 -3
      vertex 5.53513 -11.7628 -3
    endloop
  endfacet
  facet normal -0.951054 0.309024 0
    outer loop
      vertex -12.5916 3.23297 -3
      vertex -12.0871 4.78562 0
      vertex -12.0871 4.78562 -3
    endloop
  endfacet
  facet normal -0.951054 0.309024 0
    outer loop
      vertex -12.0871 4.78562 0
      vertex -12.5916 3.23297 -3
      vertex -12.5916 3.23297 0
    endloop
  endfacet
  facet normal 0.904829 -0.425775 0
    outer loop
      vertex 11.392 -6.2628 0
      vertex 12.0871 -4.78562 -3
      vertex 12.0871 -4.78562 0
    endloop
  endfacet
  facet normal 0.904829 -0.425775 0
    outer loop
      vertex 12.0871 -4.78562 -3
      vertex 11.392 -6.2628 0
      vertex 11.392 -6.2628 -3
    endloop
  endfacet
  facet normal 0.951054 -0.309024 0
    outer loop
      vertex 12.0871 -4.78562 0
      vertex 12.5916 -3.23297 -3
      vertex 12.5916 -3.23297 0
    endloop
  endfacet
  facet normal 0.951054 -0.309024 0
    outer loop
      vertex 12.5916 -3.23297 -3
      vertex 12.0871 -4.78562 0
      vertex 12.0871 -4.78562 -3
    endloop
  endfacet
  facet normal 0.982288 -0.187375 0
    outer loop
      vertex 12.5916 -3.23297 0
      vertex 12.8975 -1.62933 -3
      vertex 12.8975 -1.62933 0
    endloop
  endfacet
  facet normal 0.982288 -0.187375 0
    outer loop
      vertex 12.8975 -1.62933 -3
      vertex 12.5916 -3.23297 0
      vertex 12.5916 -3.23297 -3
    endloop
  endfacet
  facet normal -0.368081 -0.929794 0
    outer loop
      vertex -5.53513 -11.7628 -3
      vertex -4.01722 -12.3637 0
      vertex -5.53513 -11.7628 0
    endloop
  endfacet
  facet normal -0.368081 -0.929794 -0
    outer loop
      vertex -4.01722 -12.3637 0
      vertex -5.53513 -11.7628 -3
      vertex -4.01722 -12.3637 -3
    endloop
  endfacet
  facet normal -0.770518 -0.637418 0
    outer loop
      vertex -9.47659 -8.89911 -3
      vertex -10.5172 -7.64121 0
      vertex -10.5172 -7.64121 -3
    endloop
  endfacet
  facet normal -0.770518 -0.637418 0
    outer loop
      vertex -10.5172 -7.64121 0
      vertex -9.47659 -8.89911 -3
      vertex -9.47659 -8.89911 0
    endloop
  endfacet
  facet normal -0.998027 -0.0627852 0
    outer loop
      vertex -12.8975 -1.62933 -3
      vertex -13 0 0
      vertex -13 0 -3
    endloop
  endfacet
  facet normal -0.998027 -0.0627852 0
    outer loop
      vertex -13 0 0
      vertex -12.8975 -1.62933 -3
      vertex -12.8975 -1.62933 0
    endloop
  endfacet
  facet normal -0.982288 -0.187375 0
    outer loop
      vertex -12.5916 -3.23297 -3
      vertex -12.8975 -1.62933 0
      vertex -12.8975 -1.62933 -3
    endloop
  endfacet
  facet normal -0.982288 -0.187375 0
    outer loop
      vertex -12.8975 -1.62933 0
      vertex -12.5916 -3.23297 -3
      vertex -12.5916 -3.23297 0
    endloop
  endfacet
  facet normal -0.951054 -0.309024 0
    outer loop
      vertex -12.0871 -4.78562 -3
      vertex -12.5916 -3.23297 0
      vertex -12.5916 -3.23297 -3
    endloop
  endfacet
  facet normal -0.951054 -0.309024 0
    outer loop
      vertex -12.5916 -3.23297 0
      vertex -12.0871 -4.78562 -3
      vertex -12.0871 -4.78562 0
    endloop
  endfacet
  facet normal 0.684557 -0.728959 0
    outer loop
      vertex 8.28651 -10.0167 -3
      vertex 9.47659 -8.89911 0
      vertex 8.28651 -10.0167 0
    endloop
  endfacet
  facet normal 0.684557 -0.728959 0
    outer loop
      vertex 9.47659 -8.89911 0
      vertex 8.28651 -10.0167 -3
      vertex 9.47659 -8.89911 -3
    endloop
  endfacet
  facet normal 0.481758 -0.876304 0
    outer loop
      vertex 5.53513 -11.7628 -3
      vertex 6.96575 -10.9763 0
      vertex 5.53513 -11.7628 0
    endloop
  endfacet
  facet normal 0.481758 -0.876304 0
    outer loop
      vertex 6.96575 -10.9763 0
      vertex 5.53513 -11.7628 -3
      vertex 6.96575 -10.9763 -3
    endloop
  endfacet
  facet normal 0.248691 -0.968583 0
    outer loop
      vertex 2.43596 -12.7697 -3
      vertex 4.01722 -12.3637 0
      vertex 2.43596 -12.7697 0
    endloop
  endfacet
  facet normal 0.248691 -0.968583 0
    outer loop
      vertex 4.01722 -12.3637 0
      vertex 2.43596 -12.7697 -3
      vertex 4.01722 -12.3637 -3
    endloop
  endfacet
  facet normal 0.125325 -0.992116 0
    outer loop
      vertex 0.816277 -12.9743 -3
      vertex 2.43596 -12.7697 0
      vertex 0.816277 -12.9743 0
    endloop
  endfacet
  facet normal 0.125325 -0.992116 0
    outer loop
      vertex 2.43596 -12.7697 0
      vertex 0.816277 -12.9743 -3
      vertex 2.43596 -12.7697 -3
    endloop
  endfacet
  facet normal 0.844318 -0.535842 0
    outer loop
      vertex 10.5172 -7.64121 0
      vertex 11.392 -6.2628 -3
      vertex 11.392 -6.2628 0
    endloop
  endfacet
  facet normal 0.844318 -0.535842 0
    outer loop
      vertex 11.392 -6.2628 -3
      vertex 10.5172 -7.64121 0
      vertex 10.5172 -7.64121 -3
    endloop
  endfacet
  facet normal -0.125325 -0.992116 0
    outer loop
      vertex -2.43596 -12.7697 -3
      vertex -0.816277 -12.9743 0
      vertex -2.43596 -12.7697 0
    endloop
  endfacet
  facet normal -0.125325 -0.992116 -0
    outer loop
      vertex -0.816277 -12.9743 0
      vertex -2.43596 -12.7697 -3
      vertex -0.816277 -12.9743 -3
    endloop
  endfacet
  facet normal -0.58779 -0.809014 0
    outer loop
      vertex -8.28651 -10.0167 -3
      vertex -6.96575 -10.9763 0
      vertex -8.28651 -10.0167 0
    endloop
  endfacet
  facet normal -0.58779 -0.809014 -0
    outer loop
      vertex -6.96575 -10.9763 0
      vertex -8.28651 -10.0167 -3
      vertex -6.96575 -10.9763 -3
    endloop
  endfacet
  facet normal -0.248691 -0.968583 0
    outer loop
      vertex -4.01722 -12.3637 -3
      vertex -2.43596 -12.7697 0
      vertex -4.01722 -12.3637 0
    endloop
  endfacet
  facet normal -0.248691 -0.968583 -0
    outer loop
      vertex -2.43596 -12.7697 0
      vertex -4.01722 -12.3637 -3
      vertex -2.43596 -12.7697 -3
    endloop
  endfacet
  facet normal -0.684557 -0.728959 0
    outer loop
      vertex -9.47659 -8.89911 -3
      vertex -8.28651 -10.0167 0
      vertex -9.47659 -8.89911 0
    endloop
  endfacet
  facet normal -0.684557 -0.728959 -0
    outer loop
      vertex -8.28651 -10.0167 0
      vertex -9.47659 -8.89911 -3
      vertex -8.28651 -10.0167 -3
    endloop
  endfacet
  facet normal -0.904829 -0.425775 0
    outer loop
      vertex -11.392 -6.2628 -3
      vertex -12.0871 -4.78562 0
      vertex -12.0871 -4.78562 -3
    endloop
  endfacet
  facet normal -0.904829 -0.425775 0
    outer loop
      vertex -12.0871 -4.78562 0
      vertex -11.392 -6.2628 -3
      vertex -11.392 -6.2628 0
    endloop
  endfacet
  facet normal 0.58779 -0.809014 0
    outer loop
      vertex 6.96575 -10.9763 -3
      vertex 8.28651 -10.0167 0
      vertex 6.96575 -10.9763 0
    endloop
  endfacet
  facet normal 0.58779 -0.809014 0
    outer loop
      vertex 8.28651 -10.0167 0
      vertex 6.96575 -10.9763 -3
      vertex 8.28651 -10.0167 -3
    endloop
  endfacet
  facet normal -0.481758 -0.876304 0
    outer loop
      vertex -6.96575 -10.9763 -3
      vertex -5.53513 -11.7628 0
      vertex -6.96575 -10.9763 0
    endloop
  endfacet
  facet normal -0.481758 -0.876304 -0
    outer loop
      vertex -5.53513 -11.7628 0
      vertex -6.96575 -10.9763 -3
      vertex -5.53513 -11.7628 -3
    endloop
  endfacet
  facet normal -0.844318 -0.535842 0
    outer loop
      vertex -10.5172 -7.64121 -3
      vertex -11.392 -6.2628 0
      vertex -11.392 -6.2628 -3
    endloop
  endfacet
  facet normal -0.844318 -0.535842 0
    outer loop
      vertex -11.392 -6.2628 0
      vertex -10.5172 -7.64121 -3
      vertex -10.5172 -7.64121 0
    endloop
  endfacet
  facet normal -0.904829 -0.425775 0
    outer loop
      vertex 2.55688 1.01234 -3
      vertex 2.40984 1.32482 0
      vertex 2.40984 1.32482 -3
    endloop
  endfacet
  facet normal -0.904829 -0.425775 0
    outer loop
      vertex 2.40984 1.32482 0
      vertex 2.55688 1.01234 -3
      vertex 2.55688 1.01234 0
    endloop
  endfacet
  facet normal -0.844339 -0.535809 0
    outer loop
      vertex 2.40984 1.32482 -3
      vertex 2.2248 1.61641 0
      vertex 2.2248 1.61641 -3
    endloop
  endfacet
  facet normal -0.844339 -0.535809 0
    outer loop
      vertex 2.2248 1.61641 0
      vertex 2.40984 1.32482 -3
      vertex 2.40984 1.32482 0
    endloop
  endfacet
  facet normal -0.368149 -0.929767 0
    outer loop
      vertex 0.849796 2.61541 -3
      vertex 1.17089 2.48827 0
      vertex 0.849796 2.61541 0
    endloop
  endfacet
  facet normal -0.368149 -0.929767 -0
    outer loop
      vertex 1.17089 2.48827 0
      vertex 0.849796 2.61541 -3
      vertex 1.17089 2.48827 -3
    endloop
  endfacet
  facet normal 0.368149 -0.929767 0
    outer loop
      vertex -1.17089 2.48827 -3
      vertex -0.849796 2.61541 0
      vertex -1.17089 2.48827 0
    endloop
  endfacet
  facet normal 0.368149 -0.929767 0
    outer loop
      vertex -0.849796 2.61541 0
      vertex -1.17089 2.48827 -3
      vertex -0.849796 2.61541 -3
    endloop
  endfacet
  facet normal 0.904829 -0.425775 0
    outer loop
      vertex -2.55688 1.01234 0
      vertex -2.40984 1.32482 -3
      vertex -2.40984 1.32482 0
    endloop
  endfacet
  facet normal 0.904829 -0.425775 0
    outer loop
      vertex -2.40984 1.32482 -3
      vertex -2.55688 1.01234 0
      vertex -2.55688 1.01234 -3
    endloop
  endfacet
  facet normal -0.998028 0.0627774 0
    outer loop
      vertex 2.72832 -0.344666 -3
      vertex 2.75 0 0
      vertex 2.75 0 -3
    endloop
  endfacet
  facet normal -0.998028 0.0627774 0
    outer loop
      vertex 2.75 0 0
      vertex 2.72832 -0.344666 -3
      vertex 2.72832 -0.344666 0
    endloop
  endfacet
  facet normal -0.684563 -0.728954 0
    outer loop
      vertex 1.75292 2.11891 -3
      vertex 2.00466 1.8825 0
      vertex 1.75292 2.11891 0
    endloop
  endfacet
  facet normal -0.684563 -0.728954 -0
    outer loop
      vertex 2.00466 1.8825 0
      vertex 1.75292 2.11891 -3
      vertex 2.00466 1.8825 -3
    endloop
  endfacet
  facet normal 0 -1 0
    outer loop
      vertex -0.172673 2.74457 -3
      vertex 0.172673 2.74457 0
      vertex -0.172673 2.74457 0
    endloop
  endfacet
  facet normal 0 -1 -0
    outer loop
      vertex 0.172673 2.74457 0
      vertex -0.172673 2.74457 -3
      vertex 0.172673 2.74457 -3
    endloop
  endfacet
  facet normal -0.587774 -0.809025 0
    outer loop
      vertex 1.47352 2.3219 -3
      vertex 1.75292 2.11891 0
      vertex 1.47352 2.3219 0
    endloop
  endfacet
  facet normal -0.587774 -0.809025 -0
    outer loop
      vertex 1.75292 2.11891 0
      vertex 1.47352 2.3219 -3
      vertex 1.75292 2.11891 -3
    endloop
  endfacet
  facet normal 0.998028 -0.0627774 0
    outer loop
      vertex -2.75 0 0
      vertex -2.72832 0.344666 -3
      vertex -2.72832 0.344666 0
    endloop
  endfacet
  facet normal 0.998028 -0.0627774 0
    outer loop
      vertex -2.72832 0.344666 -3
      vertex -2.75 0 0
      vertex -2.75 0 -3
    endloop
  endfacet
  facet normal 0.770497 -0.637443 0
    outer loop
      vertex -2.2248 1.61641 0
      vertex -2.00466 1.8825 -3
      vertex -2.00466 1.8825 0
    endloop
  endfacet
  facet normal 0.770497 -0.637443 0
    outer loop
      vertex -2.00466 1.8825 -3
      vertex -2.2248 1.61641 0
      vertex -2.2248 1.61641 -3
    endloop
  endfacet
  facet normal 0.481749 -0.876309 0
    outer loop
      vertex -1.47352 2.3219 -3
      vertex -1.17089 2.48827 0
      vertex -1.47352 2.3219 0
    endloop
  endfacet
  facet normal 0.481749 -0.876309 0
    outer loop
      vertex -1.17089 2.48827 0
      vertex -1.47352 2.3219 -3
      vertex -1.17089 2.48827 -3
    endloop
  endfacet
  facet normal 0.248678 -0.968586 0
    outer loop
      vertex -0.849796 2.61541 -3
      vertex -0.515298 2.70129 0
      vertex -0.849796 2.61541 0
    endloop
  endfacet
  facet normal 0.248678 -0.968586 0
    outer loop
      vertex -0.515298 2.70129 0
      vertex -0.849796 2.61541 -3
      vertex -0.515298 2.70129 -3
    endloop
  endfacet
  facet normal -0.904829 0.425775 0
    outer loop
      vertex 2.40984 -1.32482 -3
      vertex 2.55688 -1.01234 0
      vertex 2.55688 -1.01234 -3
    endloop
  endfacet
  facet normal -0.904829 0.425775 0
    outer loop
      vertex 2.55688 -1.01234 0
      vertex 2.40984 -1.32482 -3
      vertex 2.40984 -1.32482 0
    endloop
  endfacet
  facet normal 0.684563 0.728954 -0
    outer loop
      vertex -1.75292 -2.11891 -3
      vertex -2.00466 -1.8825 0
      vertex -1.75292 -2.11891 0
    endloop
  endfacet
  facet normal 0.684563 0.728954 0
    outer loop
      vertex -2.00466 -1.8825 0
      vertex -1.75292 -2.11891 -3
      vertex -2.00466 -1.8825 -3
    endloop
  endfacet
  facet normal 0.904829 0.425775 0
    outer loop
      vertex -2.40984 -1.32482 0
      vertex -2.55688 -1.01234 -3
      vertex -2.55688 -1.01234 0
    endloop
  endfacet
  facet normal 0.904829 0.425775 0
    outer loop
      vertex -2.55688 -1.01234 -3
      vertex -2.40984 -1.32482 0
      vertex -2.40984 -1.32482 -3
    endloop
  endfacet
  facet normal -0.481749 0.876309 0
    outer loop
      vertex 1.47352 -2.3219 -3
      vertex 1.17089 -2.48827 0
      vertex 1.47352 -2.3219 0
    endloop
  endfacet
  facet normal -0.481749 0.876309 0
    outer loop
      vertex 1.17089 -2.48827 0
      vertex 1.47352 -2.3219 -3
      vertex 1.17089 -2.48827 -3
    endloop
  endfacet
  facet normal -0.982283 -0.187404 0
    outer loop
      vertex 2.72832 0.344666 -3
      vertex 2.6636 0.683897 0
      vertex 2.6636 0.683897 -3
    endloop
  endfacet
  facet normal -0.982283 -0.187404 0
    outer loop
      vertex 2.6636 0.683897 0
      vertex 2.72832 0.344666 -3
      vertex 2.72832 0.344666 0
    endloop
  endfacet
  facet normal -0.951054 -0.309023 0
    outer loop
      vertex 2.6636 0.683897 -3
      vertex 2.55688 1.01234 0
      vertex 2.55688 1.01234 -3
    endloop
  endfacet
  facet normal -0.951054 -0.309023 0
    outer loop
      vertex 2.55688 1.01234 0
      vertex 2.6636 0.683897 -3
      vertex 2.6636 0.683897 0
    endloop
  endfacet
  facet normal -0.770497 -0.637443 0
    outer loop
      vertex 2.2248 1.61641 -3
      vertex 2.00466 1.8825 0
      vertex 2.00466 1.8825 -3
    endloop
  endfacet
  facet normal -0.770497 -0.637443 0
    outer loop
      vertex 2.00466 1.8825 0
      vertex 2.2248 1.61641 -3
      vertex 2.2248 1.61641 0
    endloop
  endfacet
  facet normal -0.248678 -0.968586 0
    outer loop
      vertex 0.515298 2.70129 -3
      vertex 0.849796 2.61541 0
      vertex 0.515298 2.70129 0
    endloop
  endfacet
  facet normal -0.248678 -0.968586 -0
    outer loop
      vertex 0.849796 2.61541 0
      vertex 0.515298 2.70129 -3
      vertex 0.849796 2.61541 -3
    endloop
  endfacet
  facet normal -0.125323 -0.992116 0
    outer loop
      vertex 0.172673 2.74457 -3
      vertex 0.515298 2.70129 0
      vertex 0.172673 2.74457 0
    endloop
  endfacet
  facet normal -0.125323 -0.992116 -0
    outer loop
      vertex 0.515298 2.70129 0
      vertex 0.172673 2.74457 -3
      vertex 0.515298 2.70129 -3
    endloop
  endfacet
  facet normal -0.481749 -0.876309 0
    outer loop
      vertex 1.17089 2.48827 -3
      vertex 1.47352 2.3219 0
      vertex 1.17089 2.48827 0
    endloop
  endfacet
  facet normal -0.481749 -0.876309 -0
    outer loop
      vertex 1.47352 2.3219 0
      vertex 1.17089 2.48827 -3
      vertex 1.47352 2.3219 -3
    endloop
  endfacet
  facet normal 0.951054 -0.309023 0
    outer loop
      vertex -2.6636 0.683897 0
      vertex -2.55688 1.01234 -3
      vertex -2.55688 1.01234 0
    endloop
  endfacet
  facet normal 0.951054 -0.309023 0
    outer loop
      vertex -2.55688 1.01234 -3
      vertex -2.6636 0.683897 0
      vertex -2.6636 0.683897 -3
    endloop
  endfacet
  facet normal 0.982283 -0.187404 0
    outer loop
      vertex -2.72832 0.344666 0
      vertex -2.6636 0.683897 -3
      vertex -2.6636 0.683897 0
    endloop
  endfacet
  facet normal 0.982283 -0.187404 0
    outer loop
      vertex -2.6636 0.683897 -3
      vertex -2.72832 0.344666 0
      vertex -2.72832 0.344666 -3
    endloop
  endfacet
  facet normal 0.844339 -0.535809 0
    outer loop
      vertex -2.40984 1.32482 0
      vertex -2.2248 1.61641 -3
      vertex -2.2248 1.61641 0
    endloop
  endfacet
  facet normal 0.844339 -0.535809 0
    outer loop
      vertex -2.2248 1.61641 -3
      vertex -2.40984 1.32482 0
      vertex -2.40984 1.32482 -3
    endloop
  endfacet
  facet normal 0.125323 -0.992116 0
    outer loop
      vertex -0.515298 2.70129 -3
      vertex -0.172673 2.74457 0
      vertex -0.515298 2.70129 0
    endloop
  endfacet
  facet normal 0.125323 -0.992116 0
    outer loop
      vertex -0.172673 2.74457 0
      vertex -0.515298 2.70129 -3
      vertex -0.172673 2.74457 -3
    endloop
  endfacet
  facet normal 0.587774 -0.809025 0
    outer loop
      vertex -1.75292 2.11891 -3
      vertex -1.47352 2.3219 0
      vertex -1.75292 2.11891 0
    endloop
  endfacet
  facet normal 0.587774 -0.809025 0
    outer loop
      vertex -1.47352 2.3219 0
      vertex -1.75292 2.11891 -3
      vertex -1.47352 2.3219 -3
    endloop
  endfacet
  facet normal 0.684563 -0.728954 0
    outer loop
      vertex -2.00466 1.8825 -3
      vertex -1.75292 2.11891 0
      vertex -2.00466 1.8825 0
    endloop
  endfacet
  facet normal 0.684563 -0.728954 0
    outer loop
      vertex -1.75292 2.11891 0
      vertex -2.00466 1.8825 -3
      vertex -1.75292 2.11891 -3
    endloop
  endfacet
  facet normal -0.998028 -0.0627774 0
    outer loop
      vertex 2.75 0 -3
      vertex 2.72832 0.344666 0
      vertex 2.72832 0.344666 -3
    endloop
  endfacet
  facet normal -0.998028 -0.0627774 0
    outer loop
      vertex 2.72832 0.344666 0
      vertex 2.75 0 -3
      vertex 2.75 0 0
    endloop
  endfacet
  facet normal -0.951054 0.309023 0
    outer loop
      vertex 2.55688 -1.01234 -3
      vertex 2.6636 -0.683897 0
      vertex 2.6636 -0.683897 -3
    endloop
  endfacet
  facet normal -0.951054 0.309023 0
    outer loop
      vertex 2.6636 -0.683897 0
      vertex 2.55688 -1.01234 -3
      vertex 2.55688 -1.01234 0
    endloop
  endfacet
  facet normal -0.770497 0.637443 0
    outer loop
      vertex 2.00466 -1.8825 -3
      vertex 2.2248 -1.61641 0
      vertex 2.2248 -1.61641 -3
    endloop
  endfacet
  facet normal -0.770497 0.637443 0
    outer loop
      vertex 2.2248 -1.61641 0
      vertex 2.00466 -1.8825 -3
      vertex 2.00466 -1.8825 0
    endloop
  endfacet
  facet normal 0.998028 0.0627774 0
    outer loop
      vertex -2.72832 -0.344666 0
      vertex -2.75 0 -3
      vertex -2.75 0 0
    endloop
  endfacet
  facet normal 0.998028 0.0627774 0
    outer loop
      vertex -2.75 0 -3
      vertex -2.72832 -0.344666 0
      vertex -2.72832 -0.344666 -3
    endloop
  endfacet
  facet normal 0.770497 0.637443 0
    outer loop
      vertex -2.00466 -1.8825 0
      vertex -2.2248 -1.61641 -3
      vertex -2.2248 -1.61641 0
    endloop
  endfacet
  facet normal 0.770497 0.637443 0
    outer loop
      vertex -2.2248 -1.61641 -3
      vertex -2.00466 -1.8825 0
      vertex -2.00466 -1.8825 -3
    endloop
  endfacet
  facet normal -0.125323 0.992116 0
    outer loop
      vertex 0.515298 -2.70129 -3
      vertex 0.172673 -2.74457 0
      vertex 0.515298 -2.70129 0
    endloop
  endfacet
  facet normal -0.125323 0.992116 0
    outer loop
      vertex 0.172673 -2.74457 0
      vertex 0.515298 -2.70129 -3
      vertex 0.172673 -2.74457 -3
    endloop
  endfacet
  facet normal -0.587774 0.809025 0
    outer loop
      vertex 1.75292 -2.11891 -3
      vertex 1.47352 -2.3219 0
      vertex 1.75292 -2.11891 0
    endloop
  endfacet
  facet normal -0.587774 0.809025 0
    outer loop
      vertex 1.47352 -2.3219 0
      vertex 1.75292 -2.11891 -3
      vertex 1.47352 -2.3219 -3
    endloop
  endfacet
  facet normal -0.844339 0.535809 0
    outer loop
      vertex 2.2248 -1.61641 -3
      vertex 2.40984 -1.32482 0
      vertex 2.40984 -1.32482 -3
    endloop
  endfacet
  facet normal -0.844339 0.535809 0
    outer loop
      vertex 2.40984 -1.32482 0
      vertex 2.2248 -1.61641 -3
      vertex 2.2248 -1.61641 0
    endloop
  endfacet
  facet normal 0.481749 0.876309 -0
    outer loop
      vertex -1.17089 -2.48827 -3
      vertex -1.47352 -2.3219 0
      vertex -1.17089 -2.48827 0
    endloop
  endfacet
  facet normal 0.481749 0.876309 0
    outer loop
      vertex -1.47352 -2.3219 0
      vertex -1.17089 -2.48827 -3
      vertex -1.47352 -2.3219 -3
    endloop
  endfacet
  facet normal 0 1 -0
    outer loop
      vertex 0.172673 -2.74457 -3
      vertex -0.172673 -2.74457 0
      vertex 0.172673 -2.74457 0
    endloop
  endfacet
  facet normal 0 1 0
    outer loop
      vertex -0.172673 -2.74457 0
      vertex 0.172673 -2.74457 -3
      vertex -0.172673 -2.74457 -3
    endloop
  endfacet
  facet normal 0.951054 0.309023 0
    outer loop
      vertex -2.55688 -1.01234 0
      vertex -2.6636 -0.683897 -3
      vertex -2.6636 -0.683897 0
    endloop
  endfacet
  facet normal 0.951054 0.309023 0
    outer loop
      vertex -2.6636 -0.683897 -3
      vertex -2.55688 -1.01234 0
      vertex -2.55688 -1.01234 -3
    endloop
  endfacet
  facet normal 0.982283 0.187404 0
    outer loop
      vertex -2.6636 -0.683897 0
      vertex -2.72832 -0.344666 -3
      vertex -2.72832 -0.344666 0
    endloop
  endfacet
  facet normal 0.982283 0.187404 0
    outer loop
      vertex -2.72832 -0.344666 -3
      vertex -2.6636 -0.683897 0
      vertex -2.6636 -0.683897 -3
    endloop
  endfacet
  facet normal -0.368149 0.929767 0
    outer loop
      vertex 1.17089 -2.48827 -3
      vertex 0.849796 -2.61541 0
      vertex 1.17089 -2.48827 0
    endloop
  endfacet
  facet normal -0.368149 0.929767 0
    outer loop
      vertex 0.849796 -2.61541 0
      vertex 1.17089 -2.48827 -3
      vertex 0.849796 -2.61541 -3
    endloop
  endfacet
  facet normal -0.248678 0.968586 0
    outer loop
      vertex 0.849796 -2.61541 -3
      vertex 0.515298 -2.70129 0
      vertex 0.849796 -2.61541 0
    endloop
  endfacet
  facet normal -0.248678 0.968586 0
    outer loop
      vertex 0.515298 -2.70129 0
      vertex 0.849796 -2.61541 -3
      vertex 0.515298 -2.70129 -3
    endloop
  endfacet
  facet normal -0.684563 0.728954 0
    outer loop
      vertex 2.00466 -1.8825 -3
      vertex 1.75292 -2.11891 0
      vertex 2.00466 -1.8825 0
    endloop
  endfacet
  facet normal -0.684563 0.728954 0
    outer loop
      vertex 1.75292 -2.11891 0
      vertex 2.00466 -1.8825 -3
      vertex 1.75292 -2.11891 -3
    endloop
  endfacet
  facet normal -0.982283 0.187404 0
    outer loop
      vertex 2.6636 -0.683897 -3
      vertex 2.72832 -0.344666 0
      vertex 2.72832 -0.344666 -3
    endloop
  endfacet
  facet normal -0.982283 0.187404 0
    outer loop
      vertex 2.72832 -0.344666 0
      vertex 2.6636 -0.683897 -3
      vertex 2.6636 -0.683897 0
    endloop
  endfacet
  facet normal 0.125323 0.992116 -0
    outer loop
      vertex -0.172673 -2.74457 -3
      vertex -0.515298 -2.70129 0
      vertex -0.172673 -2.74457 0
    endloop
  endfacet
  facet normal 0.125323 0.992116 0
    outer loop
      vertex -0.515298 -2.70129 0
      vertex -0.172673 -2.74457 -3
      vertex -0.515298 -2.70129 -3
    endloop
  endfacet
  facet normal 0.248678 0.968586 -0
    outer loop
      vertex -0.515298 -2.70129 -3
      vertex -0.849796 -2.61541 0
      vertex -0.515298 -2.70129 0
    endloop
  endfacet
  facet normal 0.248678 0.968586 0
    outer loop
      vertex -0.849796 -2.61541 0
      vertex -0.515298 -2.70129 -3
      vertex -0.849796 -2.61541 -3
    endloop
  endfacet
  facet normal 0.844339 0.535809 0
    outer loop
      vertex -2.2248 -1.61641 0
      vertex -2.40984 -1.32482 -3
      vertex -2.40984 -1.32482 0
    endloop
  endfacet
  facet normal 0.844339 0.535809 0
    outer loop
      vertex -2.40984 -1.32482 -3
      vertex -2.2248 -1.61641 0
      vertex -2.2248 -1.61641 -3
    endloop
  endfacet
  facet normal 0.587774 0.809025 -0
    outer loop
      vertex -1.47352 -2.3219 -3
      vertex -1.75292 -2.11891 0
      vertex -1.47352 -2.3219 0
    endloop
  endfacet
  facet normal 0.587774 0.809025 0
    outer loop
      vertex -1.75292 -2.11891 0
      vertex -1.47352 -2.3219 -3
      vertex -1.75292 -2.11891 -3
    endloop
  endfacet
  facet normal 0.368149 0.929767 -0
    outer loop
      vertex -0.849796 -2.61541 -3
      vertex -1.17089 -2.48827 0
      vertex -0.849796 -2.61541 0
    endloop
  endfacet
  facet normal 0.368149 0.929767 0
    outer loop
      vertex -1.17089 -2.48827 0
      vertex -0.849796 -2.61541 -3
      vertex -1.17089 -2.48827 -3
    endloop
  endfacet
endsolid OpenSCAD_Model
