solid OpenSCAD_Model
  facet normal 0.998027 0.0627879 0
    outer loop
      vertex 8 0 0
      vertex 7.93692 1.00267 -7
      vertex 7.93692 1.00267 0
    endloop
  endfacet
  facet normal 0.998027 0.0627879 0
    outer loop
      vertex 7.93692 1.00267 -7
      vertex 8 0 0
      vertex 8 0 -7
    endloop
  endfacet
  facet normal -0.998027 0.0627879 0
    outer loop
      vertex -8 0 -7
      vertex -7.93692 1.00267 0
      vertex -7.93692 1.00267 -7
    endloop
  endfacet
  facet normal -0.998027 0.0627879 0
    outer loop
      vertex -7.93692 1.00267 0
      vertex -8 0 -7
      vertex -8 0 0
    endloop
  endfacet
  facet normal 0 1 -0
    outer loop
      vertex 0.502324 7.98421 -7
      vertex -0.502324 7.98421 0
      vertex 0.502324 7.98421 0
    endloop
  endfacet
  facet normal 0 1 0
    outer loop
      vertex -0.502324 7.98421 0
      vertex 0.502324 7.98421 -7
      vertex -0.502324 7.98421 -7
    endloop
  endfacet
  facet normal 0 -1 0
    outer loop
      vertex -0.502324 -7.98421 -7
      vertex 0.502324 -7.98421 0
      vertex -0.502324 -7.98421 0
    endloop
  endfacet
  facet normal 0 -1 -0
    outer loop
      vertex 0.502324 -7.98421 0
      vertex -0.502324 -7.98421 -7
      vertex 0.502324 -7.98421 -7
    endloop
  endfacet
  facet normal 0.684546 0.72897 -0
    outer loop
      vertex 5.83175 5.47638 -7
      vertex 5.09939 6.16411 0
      vertex 5.83175 5.47638 0
    endloop
  endfacet
  facet normal 0.684546 0.72897 0
    outer loop
      vertex 5.09939 6.16411 0
      vertex 5.83175 5.47638 -7
      vertex 5.09939 6.16411 -7
    endloop
  endfacet
  facet normal -0.684546 0.72897 0
    outer loop
      vertex -5.09939 6.16411 -7
      vertex -5.83175 5.47638 0
      vertex -5.09939 6.16411 0
    endloop
  endfacet
  facet normal -0.684546 0.72897 0
    outer loop
      vertex -5.83175 5.47638 0
      vertex -5.09939 6.16411 -7
      vertex -5.83175 5.47638 -7
    endloop
  endfacet
  facet normal -0.368122 0.929777 0
    outer loop
      vertex -2.47214 7.60845 -7
      vertex -3.40623 7.23862 0
      vertex -2.47214 7.60845 0
    endloop
  endfacet
  facet normal -0.368122 0.929777 0
    outer loop
      vertex -3.40623 7.23862 0
      vertex -2.47214 7.60845 -7
      vertex -3.40623 7.23862 -7
    endloop
  endfacet
  facet normal 0.904826 -0.425782 0
    outer loop
      vertex 7.01045 -3.85403 0
      vertex 7.43821 -2.945 -7
      vertex 7.43821 -2.945 0
    endloop
  endfacet
  facet normal 0.904826 -0.425782 0
    outer loop
      vertex 7.43821 -2.945 -7
      vertex 7.01045 -3.85403 0
      vertex 7.01045 -3.85403 -7
    endloop
  endfacet
  facet normal 0.904826 0.425782 0
    outer loop
      vertex 7.43821 2.945 0
      vertex 7.01045 3.85403 -7
      vertex 7.01045 3.85403 0
    endloop
  endfacet
  facet normal 0.904826 0.425782 0
    outer loop
      vertex 7.01045 3.85403 -7
      vertex 7.43821 2.945 0
      vertex 7.43821 2.945 -7
    endloop
  endfacet
  facet normal 0.368122 0.929777 -0
    outer loop
      vertex 3.40623 7.23862 -7
      vertex 2.47214 7.60845 0
      vertex 3.40623 7.23862 0
    endloop
  endfacet
  facet normal 0.368122 0.929777 0
    outer loop
      vertex 2.47214 7.60845 0
      vertex 3.40623 7.23862 -7
      vertex 2.47214 7.60845 -7
    endloop
  endfacet
  facet normal 0.248693 0.968582 -0
    outer loop
      vertex 2.47214 7.60845 -7
      vertex 1.49905 7.8583 0
      vertex 2.47214 7.60845 0
    endloop
  endfacet
  facet normal 0.248693 0.968582 0
    outer loop
      vertex 1.49905 7.8583 0
      vertex 2.47214 7.60845 -7
      vertex 1.49905 7.8583 -7
    endloop
  endfacet
  facet normal 0.481759 0.876304 -0
    outer loop
      vertex 4.28661 6.75462 -7
      vertex 3.40623 7.23862 0
      vertex 4.28661 6.75462 0
    endloop
  endfacet
  facet normal 0.481759 0.876304 0
    outer loop
      vertex 3.40623 7.23862 0
      vertex 4.28661 6.75462 -7
      vertex 3.40623 7.23862 -7
    endloop
  endfacet
  facet normal -0.904826 0.425782 0
    outer loop
      vertex -7.43821 2.945 -7
      vertex -7.01045 3.85403 0
      vertex -7.01045 3.85403 -7
    endloop
  endfacet
  facet normal -0.904826 0.425782 0
    outer loop
      vertex -7.01045 3.85403 0
      vertex -7.43821 2.945 -7
      vertex -7.43821 2.945 0
    endloop
  endfacet
  facet normal -0.770514 0.637423 0
    outer loop
      vertex -6.47214 4.70228 -7
      vertex -5.83175 5.47638 0
      vertex -5.83175 5.47638 -7
    endloop
  endfacet
  facet normal -0.770514 0.637423 0
    outer loop
      vertex -5.83175 5.47638 0
      vertex -6.47214 4.70228 -7
      vertex -6.47214 4.70228 0
    endloop
  endfacet
  facet normal 0 0 1
    outer loop
      vertex 7.1 0 0
      vertex 8 0 0
      vertex 7.93692 1.00267 0
    endloop
  endfacet
  facet normal 0 0 1
    outer loop
      vertex 7.04401 0.889866 0
      vertex 7.93692 1.00267 0
      vertex 7.74866 1.98952 0
    endloop
  endfacet
  facet normal 0 0 1
    outer loop
      vertex 8 0 0
      vertex 7.1 0 0
      vertex 7.93692 -1.00267 0
    endloop
  endfacet
  facet normal 0 0 1
    outer loop
      vertex 6.87694 1.7657 0
      vertex 7.74866 1.98952 0
      vertex 7.43821 2.945 0
    endloop
  endfacet
  facet normal -0 0 1
    outer loop
      vertex 7.04401 -0.889866 0
      vertex 7.93692 -1.00267 0
      vertex 7.1 0 0
    endloop
  endfacet
  facet normal 0 0 1
    outer loop
      vertex 7.93692 -1.00267 0
      vertex 7.04401 -0.889866 0
      vertex 7.74866 -1.98952 0
    endloop
  endfacet
  facet normal 0 0 1
    outer loop
      vertex 7.93692 1.00267 0
      vertex 7.04401 0.889866 0
      vertex 7.1 0 0
    endloop
  endfacet
  facet normal 0 0 1
    outer loop
      vertex 6.60141 2.61368 0
      vertex 7.43821 2.945 0
      vertex 7.01045 3.85403 0
    endloop
  endfacet
  facet normal 0 0 1
    outer loop
      vertex 7.74866 1.98952 0
      vertex 6.87694 1.7657 0
      vertex 7.04401 0.889866 0
    endloop
  endfacet
  facet normal 0 0 1
    outer loop
      vertex 7.43821 2.945 0
      vertex 6.60141 2.61368 0
      vertex 6.87694 1.7657 0
    endloop
  endfacet
  facet normal 0 0 1
    outer loop
      vertex 6.22178 3.42045 0
      vertex 7.01045 3.85403 0
      vertex 6.47214 4.70228 0
    endloop
  endfacet
  facet normal 0 0 1
    outer loop
      vertex 7.01045 3.85403 0
      vertex 6.22178 3.42045 0
      vertex 6.60141 2.61368 0
    endloop
  endfacet
  facet normal 0 0 1
    outer loop
      vertex 5.74402 4.17327 0
      vertex 6.47214 4.70228 0
      vertex 5.83175 5.47638 0
    endloop
  endfacet
  facet normal 0 0 1
    outer loop
      vertex 6.47214 4.70228 0
      vertex 5.74402 4.17327 0
      vertex 6.22178 3.42045 0
    endloop
  endfacet
  facet normal 0 0 1
    outer loop
      vertex 5.83175 5.47638 0
      vertex 5.17568 4.86028 0
      vertex 5.74402 4.17327 0
    endloop
  endfacet
  facet normal 0 0 1
    outer loop
      vertex 5.09939 6.16411 0
      vertex 5.17568 4.86028 0
      vertex 5.83175 5.47638 0
    endloop
  endfacet
  facet normal 0 0 1
    outer loop
      vertex 5.09939 6.16411 0
      vertex 4.52571 5.47064 0
      vertex 5.17568 4.86028 0
    endloop
  endfacet
  facet normal 0 0 1
    outer loop
      vertex 4.28661 6.75462 0
      vertex 4.52571 5.47064 0
      vertex 5.09939 6.16411 0
    endloop
  endfacet
  facet normal 0 0 1
    outer loop
      vertex 4.28661 6.75462 0
      vertex 3.80437 5.99473 0
      vertex 4.52571 5.47064 0
    endloop
  endfacet
  facet normal 0 0 1
    outer loop
      vertex 3.40623 7.23862 0
      vertex 3.80437 5.99473 0
      vertex 4.28661 6.75462 0
    endloop
  endfacet
  facet normal 0 0 1
    outer loop
      vertex 3.40623 7.23862 0
      vertex 3.02303 6.42427 0
      vertex 3.80437 5.99473 0
    endloop
  endfacet
  facet normal 0 0 1
    outer loop
      vertex 2.47214 7.60845 0
      vertex 3.02303 6.42427 0
      vertex 3.40623 7.23862 0
    endloop
  endfacet
  facet normal 0 0 1
    outer loop
      vertex 2.47214 7.60845 0
      vertex 2.19402 6.7525 0
      vertex 3.02303 6.42427 0
    endloop
  endfacet
  facet normal 0 0 1
    outer loop
      vertex 1.49905 7.8583 0
      vertex 2.19402 6.7525 0
      vertex 2.47214 7.60845 0
    endloop
  endfacet
  facet normal 0 0 1
    outer loop
      vertex 1.49905 7.8583 0
      vertex 1.33041 6.97424 0
      vertex 2.19402 6.7525 0
    endloop
  endfacet
  facet normal 0 0 1
    outer loop
      vertex 0.502324 7.98421 0
      vertex 1.33041 6.97424 0
      vertex 1.49905 7.8583 0
    endloop
  endfacet
  facet normal 0 0 1
    outer loop
      vertex 0.502324 7.98421 0
      vertex 0.445812 7.08599 0
      vertex 1.33041 6.97424 0
    endloop
  endfacet
  facet normal 0 0 1
    outer loop
      vertex 0.502324 7.98421 0
      vertex -0.445812 7.08599 0
      vertex 0.445812 7.08599 0
    endloop
  endfacet
  facet normal -0 0 1
    outer loop
      vertex -0.502324 7.98421 0
      vertex -0.445812 7.08599 0
      vertex 0.502324 7.98421 0
    endloop
  endfacet
  facet normal 0 0 1
    outer loop
      vertex -0.502324 7.98421 0
      vertex -1.33041 6.97424 0
      vertex -0.445812 7.08599 0
    endloop
  endfacet
  facet normal -0 0 1
    outer loop
      vertex -1.49905 7.8583 0
      vertex -1.33041 6.97424 0
      vertex -0.502324 7.98421 0
    endloop
  endfacet
  facet normal 0 0 1
    outer loop
      vertex -1.49905 7.8583 0
      vertex -2.19402 6.7525 0
      vertex -1.33041 6.97424 0
    endloop
  endfacet
  facet normal -0 0 1
    outer loop
      vertex -2.47214 7.60845 0
      vertex -2.19402 6.7525 0
      vertex -1.49905 7.8583 0
    endloop
  endfacet
  facet normal 0 0 1
    outer loop
      vertex -2.47214 7.60845 0
      vertex -3.02303 6.42427 0
      vertex -2.19402 6.7525 0
    endloop
  endfacet
  facet normal -0 0 1
    outer loop
      vertex -3.40623 7.23862 0
      vertex -3.02303 6.42427 0
      vertex -2.47214 7.60845 0
    endloop
  endfacet
  facet normal 0 0 1
    outer loop
      vertex -3.40623 7.23862 0
      vertex -3.80437 5.99473 0
      vertex -3.02303 6.42427 0
    endloop
  endfacet
  facet normal -0 0 1
    outer loop
      vertex -4.28661 6.75462 0
      vertex -3.80437 5.99473 0
      vertex -3.40623 7.23862 0
    endloop
  endfacet
  facet normal 0 0 1
    outer loop
      vertex -4.28661 6.75462 0
      vertex -4.52571 5.47064 0
      vertex -3.80437 5.99473 0
    endloop
  endfacet
  facet normal -0 0 1
    outer loop
      vertex -5.09939 6.16411 0
      vertex -4.52571 5.47064 0
      vertex -4.28661 6.75462 0
    endloop
  endfacet
  facet normal 0 0 1
    outer loop
      vertex -5.09939 6.16411 0
      vertex -5.17568 4.86028 0
      vertex -4.52571 5.47064 0
    endloop
  endfacet
  facet normal -0 0 1
    outer loop
      vertex -5.83175 5.47638 0
      vertex -5.17568 4.86028 0
      vertex -5.09939 6.16411 0
    endloop
  endfacet
  facet normal 0 0 1
    outer loop
      vertex -5.17568 4.86028 0
      vertex -5.83175 5.47638 0
      vertex -5.74402 4.17327 0
    endloop
  endfacet
  facet normal -0 0 1
    outer loop
      vertex -6.47214 4.70228 0
      vertex -5.74402 4.17327 0
      vertex -5.83175 5.47638 0
    endloop
  endfacet
  facet normal 0 0 1
    outer loop
      vertex -5.74402 4.17327 0
      vertex -6.47214 4.70228 0
      vertex -6.22178 3.42045 0
    endloop
  endfacet
  facet normal -0 0 1
    outer loop
      vertex -7.01045 3.85403 0
      vertex -6.22178 3.42045 0
      vertex -6.47214 4.70228 0
    endloop
  endfacet
  facet normal 0 0 1
    outer loop
      vertex -6.22178 3.42045 0
      vertex -7.01045 3.85403 0
      vertex -6.60141 2.61368 0
    endloop
  endfacet
  facet normal -0 0 1
    outer loop
      vertex -7.43821 2.945 0
      vertex -6.60141 2.61368 0
      vertex -7.01045 3.85403 0
    endloop
  endfacet
  facet normal 0 0 1
    outer loop
      vertex -6.60141 2.61368 0
      vertex -7.43821 2.945 0
      vertex -6.87694 1.7657 0
    endloop
  endfacet
  facet normal -0 0 1
    outer loop
      vertex -7.74866 1.98952 0
      vertex -6.87694 1.7657 0
      vertex -7.43821 2.945 0
    endloop
  endfacet
  facet normal 0 0 1
    outer loop
      vertex -6.87694 1.7657 0
      vertex -7.74866 1.98952 0
      vertex -7.04401 0.889866 0
    endloop
  endfacet
  facet normal -0 0 1
    outer loop
      vertex 6.87694 -1.7657 0
      vertex 7.74866 -1.98952 0
      vertex 7.04401 -0.889866 0
    endloop
  endfacet
  facet normal 0 0 1
    outer loop
      vertex 7.74866 -1.98952 0
      vertex 6.87694 -1.7657 0
      vertex 7.43821 -2.945 0
    endloop
  endfacet
  facet normal -0 0 1
    outer loop
      vertex 6.60141 -2.61368 0
      vertex 7.43821 -2.945 0
      vertex 6.87694 -1.7657 0
    endloop
  endfacet
  facet normal 0 0 1
    outer loop
      vertex 7.43821 -2.945 0
      vertex 6.60141 -2.61368 0
      vertex 7.01045 -3.85403 0
    endloop
  endfacet
  facet normal -0 0 1
    outer loop
      vertex 6.22178 -3.42045 0
      vertex 7.01045 -3.85403 0
      vertex 6.60141 -2.61368 0
    endloop
  endfacet
  facet normal 0 0 1
    outer loop
      vertex 7.01045 -3.85403 0
      vertex 6.22178 -3.42045 0
      vertex 6.47214 -4.70228 0
    endloop
  endfacet
  facet normal -0 0 1
    outer loop
      vertex 5.74402 -4.17327 0
      vertex 6.47214 -4.70228 0
      vertex 6.22178 -3.42045 0
    endloop
  endfacet
  facet normal 0 0 1
    outer loop
      vertex 6.47214 -4.70228 0
      vertex 5.74402 -4.17327 0
      vertex 5.83175 -5.47638 0
    endloop
  endfacet
  facet normal -0 0 1
    outer loop
      vertex 5.17568 -4.86028 0
      vertex 5.83175 -5.47638 0
      vertex 5.74402 -4.17327 0
    endloop
  endfacet
  facet normal 0 0 1
    outer loop
      vertex 5.17568 -4.86028 0
      vertex 5.09939 -6.16411 0
      vertex 5.83175 -5.47638 0
    endloop
  endfacet
  facet normal -0 0 1
    outer loop
      vertex 4.52571 -5.47064 0
      vertex 5.09939 -6.16411 0
      vertex 5.17568 -4.86028 0
    endloop
  endfacet
  facet normal 0 0 1
    outer loop
      vertex 4.52571 -5.47064 0
      vertex 4.28661 -6.75462 0
      vertex 5.09939 -6.16411 0
    endloop
  endfacet
  facet normal -0 0 1
    outer loop
      vertex 3.80437 -5.99473 0
      vertex 4.28661 -6.75462 0
      vertex 4.52571 -5.47064 0
    endloop
  endfacet
  facet normal 0 0 1
    outer loop
      vertex 3.80437 -5.99473 0
      vertex 3.40623 -7.23862 0
      vertex 4.28661 -6.75462 0
    endloop
  endfacet
  facet normal -0 0 1
    outer loop
      vertex 3.02303 -6.42427 0
      vertex 3.40623 -7.23862 0
      vertex 3.80437 -5.99473 0
    endloop
  endfacet
  facet normal 0 0 1
    outer loop
      vertex 3.02303 -6.42427 0
      vertex 2.47214 -7.60845 0
      vertex 3.40623 -7.23862 0
    endloop
  endfacet
  facet normal -0 0 1
    outer loop
      vertex 2.19402 -6.7525 0
      vertex 2.47214 -7.60845 0
      vertex 3.02303 -6.42427 0
    endloop
  endfacet
  facet normal 0 0 1
    outer loop
      vertex 2.19402 -6.7525 0
      vertex 1.49905 -7.8583 0
      vertex 2.47214 -7.60845 0
    endloop
  endfacet
  facet normal -0 0 1
    outer loop
      vertex 1.33041 -6.97424 0
      vertex 1.49905 -7.8583 0
      vertex 2.19402 -6.7525 0
    endloop
  endfacet
  facet normal 0 0 1
    outer loop
      vertex 1.33041 -6.97424 0
      vertex 0.502324 -7.98421 0
      vertex 1.49905 -7.8583 0
    endloop
  endfacet
  facet normal -0 0 1
    outer loop
      vertex 0.445812 -7.08599 0
      vertex 0.502324 -7.98421 0
      vertex 1.33041 -6.97424 0
    endloop
  endfacet
  facet normal -0 0 1
    outer loop
      vertex -0.445812 -7.08599 0
      vertex 0.502324 -7.98421 0
      vertex 0.445812 -7.08599 0
    endloop
  endfacet
  facet normal 0 0 1
    outer loop
      vertex -0.445812 -7.08599 0
      vertex -0.502324 -7.98421 0
      vertex 0.502324 -7.98421 0
    endloop
  endfacet
  facet normal 0 0 1
    outer loop
      vertex -1.33041 -6.97424 0
      vertex -0.502324 -7.98421 0
      vertex -0.445812 -7.08599 0
    endloop
  endfacet
  facet normal 0 0 1
    outer loop
      vertex -1.33041 -6.97424 0
      vertex -1.49905 -7.8583 0
      vertex -0.502324 -7.98421 0
    endloop
  endfacet
  facet normal 0 0 1
    outer loop
      vertex -2.19402 -6.7525 0
      vertex -1.49905 -7.8583 0
      vertex -1.33041 -6.97424 0
    endloop
  endfacet
  facet normal 0 0 1
    outer loop
      vertex -2.19402 -6.7525 0
      vertex -2.47214 -7.60845 0
      vertex -1.49905 -7.8583 0
    endloop
  endfacet
  facet normal 0 0 1
    outer loop
      vertex -3.02303 -6.42427 0
      vertex -2.47214 -7.60845 0
      vertex -2.19402 -6.7525 0
    endloop
  endfacet
  facet normal 0 0 1
    outer loop
      vertex -3.02303 -6.42427 0
      vertex -3.40623 -7.23862 0
      vertex -2.47214 -7.60845 0
    endloop
  endfacet
  facet normal 0 0 1
    outer loop
      vertex -3.80437 -5.99473 0
      vertex -3.40623 -7.23862 0
      vertex -3.02303 -6.42427 0
    endloop
  endfacet
  facet normal 0 0 1
    outer loop
      vertex -3.80437 -5.99473 0
      vertex -4.28661 -6.75462 0
      vertex -3.40623 -7.23862 0
    endloop
  endfacet
  facet normal 0 0 1
    outer loop
      vertex -4.52571 -5.47064 0
      vertex -4.28661 -6.75462 0
      vertex -3.80437 -5.99473 0
    endloop
  endfacet
  facet normal 0 0 1
    outer loop
      vertex -4.52571 -5.47064 0
      vertex -5.09939 -6.16411 0
      vertex -4.28661 -6.75462 0
    endloop
  endfacet
  facet normal 0 0 1
    outer loop
      vertex -5.17568 -4.86028 0
      vertex -5.09939 -6.16411 0
      vertex -4.52571 -5.47064 0
    endloop
  endfacet
  facet normal 0 0 1
    outer loop
      vertex -5.83175 -5.47638 0
      vertex -5.17568 -4.86028 0
      vertex -5.74402 -4.17327 0
    endloop
  endfacet
  facet normal 0 0 1
    outer loop
      vertex -5.17568 -4.86028 0
      vertex -5.83175 -5.47638 0
      vertex -5.09939 -6.16411 0
    endloop
  endfacet
  facet normal 0 0 1
    outer loop
      vertex -6.47214 -4.70228 0
      vertex -5.74402 -4.17327 0
      vertex -6.22178 -3.42045 0
    endloop
  endfacet
  facet normal 0 0 1
    outer loop
      vertex -5.74402 -4.17327 0
      vertex -6.47214 -4.70228 0
      vertex -5.83175 -5.47638 0
    endloop
  endfacet
  facet normal 0 0 1
    outer loop
      vertex -7.01045 -3.85403 0
      vertex -6.22178 -3.42045 0
      vertex -6.60141 -2.61368 0
    endloop
  endfacet
  facet normal 0 0 1
    outer loop
      vertex -7.43821 -2.945 0
      vertex -6.60141 -2.61368 0
      vertex -6.87694 -1.7657 0
    endloop
  endfacet
  facet normal 0 0 1
    outer loop
      vertex -6.22178 -3.42045 0
      vertex -7.01045 -3.85403 0
      vertex -6.47214 -4.70228 0
    endloop
  endfacet
  facet normal 0 0 1
    outer loop
      vertex -7.74866 -1.98952 0
      vertex -6.87694 -1.7657 0
      vertex -7.04401 -0.889866 0
    endloop
  endfacet
  facet normal 0 0 1
    outer loop
      vertex -7.93692 -1.00267 0
      vertex -7.04401 -0.889866 0
      vertex -7.1 0 0
    endloop
  endfacet
  facet normal -0 0 1
    outer loop
      vertex -7.93692 1.00267 0
      vertex -7.04401 0.889866 0
      vertex -7.74866 1.98952 0
    endloop
  endfacet
  facet normal 0 0 1
    outer loop
      vertex -6.60141 -2.61368 0
      vertex -7.43821 -2.945 0
      vertex -7.01045 -3.85403 0
    endloop
  endfacet
  facet normal 0 0 1
    outer loop
      vertex -7.04401 0.889866 0
      vertex -7.93692 1.00267 0
      vertex -7.1 0 0
    endloop
  endfacet
  facet normal 0 0 1
    outer loop
      vertex -6.87694 -1.7657 0
      vertex -7.74866 -1.98952 0
      vertex -7.43821 -2.945 0
    endloop
  endfacet
  facet normal 0 0 1
    outer loop
      vertex -8 0 0
      vertex -7.1 0 0
      vertex -7.93692 1.00267 0
    endloop
  endfacet
  facet normal 0 0 1
    outer loop
      vertex -7.04401 -0.889866 0
      vertex -7.93692 -1.00267 0
      vertex -7.74866 -1.98952 0
    endloop
  endfacet
  facet normal 0 0 1
    outer loop
      vertex -7.1 0 0
      vertex -8 0 0
      vertex -7.93692 -1.00267 0
    endloop
  endfacet
  facet normal -0.248693 0.968582 0
    outer loop
      vertex -1.49905 7.8583 -7
      vertex -2.47214 7.60845 0
      vertex -1.49905 7.8583 0
    endloop
  endfacet
  facet normal -0.248693 0.968582 0
    outer loop
      vertex -2.47214 7.60845 0
      vertex -1.49905 7.8583 -7
      vertex -2.47214 7.60845 -7
    endloop
  endfacet
  facet normal 0 0 -1
    outer loop
      vertex 7.93692 -1.00267 -7
      vertex 7.93692 1.00267 -7
      vertex 8 0 -7
    endloop
  endfacet
  facet normal 0 0 -1
    outer loop
      vertex 7.74866 -1.98952 -7
      vertex 7.93692 1.00267 -7
      vertex 7.93692 -1.00267 -7
    endloop
  endfacet
  facet normal 0 0 -1
    outer loop
      vertex 7.74866 -1.98952 -7
      vertex 7.74866 1.98952 -7
      vertex 7.93692 1.00267 -7
    endloop
  endfacet
  facet normal 0 0 -1
    outer loop
      vertex 7.43821 -2.945 -7
      vertex 7.74866 1.98952 -7
      vertex 7.74866 -1.98952 -7
    endloop
  endfacet
  facet normal 0 0 -1
    outer loop
      vertex 7.43821 -2.945 -7
      vertex 7.43821 2.945 -7
      vertex 7.74866 1.98952 -7
    endloop
  endfacet
  facet normal 0 0 -1
    outer loop
      vertex 7.01045 -3.85403 -7
      vertex 7.43821 2.945 -7
      vertex 7.43821 -2.945 -7
    endloop
  endfacet
  facet normal 0 0 -1
    outer loop
      vertex 7.01045 -3.85403 -7
      vertex 7.01045 3.85403 -7
      vertex 7.43821 2.945 -7
    endloop
  endfacet
  facet normal 0 0 -1
    outer loop
      vertex 6.47214 -4.70228 -7
      vertex 7.01045 3.85403 -7
      vertex 7.01045 -3.85403 -7
    endloop
  endfacet
  facet normal 0 0 -1
    outer loop
      vertex 6.47214 -4.70228 -7
      vertex 6.47214 4.70228 -7
      vertex 7.01045 3.85403 -7
    endloop
  endfacet
  facet normal 0 0 -1
    outer loop
      vertex 5.83175 -5.47638 -7
      vertex 6.47214 4.70228 -7
      vertex 6.47214 -4.70228 -7
    endloop
  endfacet
  facet normal 0 0 -1
    outer loop
      vertex 5.83175 -5.47638 -7
      vertex 5.83175 5.47638 -7
      vertex 6.47214 4.70228 -7
    endloop
  endfacet
  facet normal 0 0 -1
    outer loop
      vertex 5.09939 -6.16411 -7
      vertex 5.83175 5.47638 -7
      vertex 5.83175 -5.47638 -7
    endloop
  endfacet
  facet normal 0 0 -1
    outer loop
      vertex 5.09939 -6.16411 -7
      vertex 5.09939 6.16411 -7
      vertex 5.83175 5.47638 -7
    endloop
  endfacet
  facet normal 0 0 -1
    outer loop
      vertex 4.28661 -6.75462 -7
      vertex 5.09939 6.16411 -7
      vertex 5.09939 -6.16411 -7
    endloop
  endfacet
  facet normal 0 0 -1
    outer loop
      vertex 4.28661 -6.75462 -7
      vertex 4.28661 6.75462 -7
      vertex 5.09939 6.16411 -7
    endloop
  endfacet
  facet normal 0 0 -1
    outer loop
      vertex 3.40623 -7.23862 -7
      vertex 4.28661 6.75462 -7
      vertex 4.28661 -6.75462 -7
    endloop
  endfacet
  facet normal 0 0 -1
    outer loop
      vertex 3.40623 -7.23862 -7
      vertex 3.40623 7.23862 -7
      vertex 4.28661 6.75462 -7
    endloop
  endfacet
  facet normal 0 0 -1
    outer loop
      vertex 2.47214 -7.60845 -7
      vertex 3.40623 7.23862 -7
      vertex 3.40623 -7.23862 -7
    endloop
  endfacet
  facet normal 0 0 -1
    outer loop
      vertex 2.47214 -7.60845 -7
      vertex 2.47214 7.60845 -7
      vertex 3.40623 7.23862 -7
    endloop
  endfacet
  facet normal 0 0 -1
    outer loop
      vertex 1.49905 -7.8583 -7
      vertex 2.47214 7.60845 -7
      vertex 2.47214 -7.60845 -7
    endloop
  endfacet
  facet normal 0 0 -1
    outer loop
      vertex 1.49905 -7.8583 -7
      vertex 1.49905 7.8583 -7
      vertex 2.47214 7.60845 -7
    endloop
  endfacet
  facet normal 0 0 -1
    outer loop
      vertex 0.502324 -7.98421 -7
      vertex 1.49905 7.8583 -7
      vertex 1.49905 -7.8583 -7
    endloop
  endfacet
  facet normal 0 0 -1
    outer loop
      vertex 0.502324 -7.98421 -7
      vertex 0.502324 7.98421 -7
      vertex 1.49905 7.8583 -7
    endloop
  endfacet
  facet normal 0 0 -1
    outer loop
      vertex -0.502324 -7.98421 -7
      vertex 0.502324 7.98421 -7
      vertex 0.502324 -7.98421 -7
    endloop
  endfacet
  facet normal 0 0 -1
    outer loop
      vertex -0.502324 -7.98421 -7
      vertex -0.502324 7.98421 -7
      vertex 0.502324 7.98421 -7
    endloop
  endfacet
  facet normal 0 0 -1
    outer loop
      vertex -1.49905 -7.8583 -7
      vertex -0.502324 7.98421 -7
      vertex -0.502324 -7.98421 -7
    endloop
  endfacet
  facet normal 0 0 -1
    outer loop
      vertex -1.49905 -7.8583 -7
      vertex -1.49905 7.8583 -7
      vertex -0.502324 7.98421 -7
    endloop
  endfacet
  facet normal 0 0 -1
    outer loop
      vertex -2.47214 -7.60845 -7
      vertex -1.49905 7.8583 -7
      vertex -1.49905 -7.8583 -7
    endloop
  endfacet
  facet normal 0 0 -1
    outer loop
      vertex -2.47214 -7.60845 -7
      vertex -2.47214 7.60845 -7
      vertex -1.49905 7.8583 -7
    endloop
  endfacet
  facet normal 0 0 -1
    outer loop
      vertex -3.40623 -7.23862 -7
      vertex -2.47214 7.60845 -7
      vertex -2.47214 -7.60845 -7
    endloop
  endfacet
  facet normal 0 0 -1
    outer loop
      vertex -3.40623 -7.23862 -7
      vertex -3.40623 7.23862 -7
      vertex -2.47214 7.60845 -7
    endloop
  endfacet
  facet normal 0 0 -1
    outer loop
      vertex -4.28661 -6.75462 -7
      vertex -3.40623 7.23862 -7
      vertex -3.40623 -7.23862 -7
    endloop
  endfacet
  facet normal 0 0 -1
    outer loop
      vertex -4.28661 -6.75462 -7
      vertex -4.28661 6.75462 -7
      vertex -3.40623 7.23862 -7
    endloop
  endfacet
  facet normal 0 0 -1
    outer loop
      vertex -5.09939 -6.16411 -7
      vertex -4.28661 6.75462 -7
      vertex -4.28661 -6.75462 -7
    endloop
  endfacet
  facet normal 0 0 -1
    outer loop
      vertex -5.09939 -6.16411 -7
      vertex -5.09939 6.16411 -7
      vertex -4.28661 6.75462 -7
    endloop
  endfacet
  facet normal 0 0 -1
    outer loop
      vertex -5.83175 -5.47638 -7
      vertex -5.09939 6.16411 -7
      vertex -5.09939 -6.16411 -7
    endloop
  endfacet
  facet normal 0 0 -1
    outer loop
      vertex -5.83175 -5.47638 -7
      vertex -5.83175 5.47638 -7
      vertex -5.09939 6.16411 -7
    endloop
  endfacet
  facet normal 0 0 -1
    outer loop
      vertex -6.47214 -4.70228 -7
      vertex -5.83175 5.47638 -7
      vertex -5.83175 -5.47638 -7
    endloop
  endfacet
  facet normal 0 0 -1
    outer loop
      vertex -6.47214 -4.70228 -7
      vertex -6.47214 4.70228 -7
      vertex -5.83175 5.47638 -7
    endloop
  endfacet
  facet normal 0 0 -1
    outer loop
      vertex -7.01045 -3.85403 -7
      vertex -6.47214 4.70228 -7
      vertex -6.47214 -4.70228 -7
    endloop
  endfacet
  facet normal 0 0 -1
    outer loop
      vertex -7.01045 -3.85403 -7
      vertex -7.01045 3.85403 -7
      vertex -6.47214 4.70228 -7
    endloop
  endfacet
  facet normal 0 0 -1
    outer loop
      vertex -7.43821 -2.945 -7
      vertex -7.01045 3.85403 -7
      vertex -7.01045 -3.85403 -7
    endloop
  endfacet
  facet normal 0 0 -1
    outer loop
      vertex -7.43821 -2.945 -7
      vertex -7.43821 2.945 -7
      vertex -7.01045 3.85403 -7
    endloop
  endfacet
  facet normal 0 0 -1
    outer loop
      vertex -7.74866 -1.98952 -7
      vertex -7.43821 2.945 -7
      vertex -7.43821 -2.945 -7
    endloop
  endfacet
  facet normal 0 0 -1
    outer loop
      vertex -7.74866 -1.98952 -7
      vertex -7.74866 1.98952 -7
      vertex -7.43821 2.945 -7
    endloop
  endfacet
  facet normal 0 0 -1
    outer loop
      vertex -7.93692 -1.00267 -7
      vertex -7.74866 1.98952 -7
      vertex -7.74866 -1.98952 -7
    endloop
  endfacet
  facet normal 0 0 -1
    outer loop
      vertex -7.93692 -1.00267 -7
      vertex -7.93692 1.00267 -7
      vertex -7.74866 1.98952 -7
    endloop
  endfacet
  facet normal 0 -0 -1
    outer loop
      vertex -7.93692 1.00267 -7
      vertex -7.93692 -1.00267 -7
      vertex -8 0 -7
    endloop
  endfacet
  facet normal 0.125328 -0.992115 0
    outer loop
      vertex 0.502324 -7.98421 -7
      vertex 1.49905 -7.8583 0
      vertex 0.502324 -7.98421 0
    endloop
  endfacet
  facet normal 0.125328 -0.992115 0
    outer loop
      vertex 1.49905 -7.8583 0
      vertex 0.502324 -7.98421 -7
      vertex 1.49905 -7.8583 -7
    endloop
  endfacet
  facet normal 0.951058 0.309013 0
    outer loop
      vertex 7.74866 1.98952 0
      vertex 7.43821 2.945 -7
      vertex 7.43821 2.945 0
    endloop
  endfacet
  facet normal 0.951058 0.309013 0
    outer loop
      vertex 7.43821 2.945 -7
      vertex 7.74866 1.98952 0
      vertex 7.74866 1.98952 -7
    endloop
  endfacet
  facet normal 0.982286 0.187389 0
    outer loop
      vertex 7.93692 1.00267 0
      vertex 7.74866 1.98952 -7
      vertex 7.74866 1.98952 0
    endloop
  endfacet
  facet normal 0.982286 0.187389 0
    outer loop
      vertex 7.74866 1.98952 -7
      vertex 7.93692 1.00267 0
      vertex 7.93692 1.00267 -7
    endloop
  endfacet
  facet normal 0.770514 0.637423 0
    outer loop
      vertex 6.47214 4.70228 0
      vertex 5.83175 5.47638 -7
      vertex 5.83175 5.47638 0
    endloop
  endfacet
  facet normal 0.770514 0.637423 0
    outer loop
      vertex 5.83175 5.47638 -7
      vertex 6.47214 4.70228 0
      vertex 6.47214 4.70228 -7
    endloop
  endfacet
  facet normal 0.844331 0.535823 0
    outer loop
      vertex 7.01045 3.85403 0
      vertex 6.47214 4.70228 -7
      vertex 6.47214 4.70228 0
    endloop
  endfacet
  facet normal 0.844331 0.535823 0
    outer loop
      vertex 6.47214 4.70228 -7
      vertex 7.01045 3.85403 0
      vertex 7.01045 3.85403 -7
    endloop
  endfacet
  facet normal 0.125328 0.992115 -0
    outer loop
      vertex 1.49905 7.8583 -7
      vertex 0.502324 7.98421 0
      vertex 1.49905 7.8583 0
    endloop
  endfacet
  facet normal 0.125328 0.992115 0
    outer loop
      vertex 0.502324 7.98421 0
      vertex 1.49905 7.8583 -7
      vertex 0.502324 7.98421 -7
    endloop
  endfacet
  facet normal 0.587779 0.809021 -0
    outer loop
      vertex 5.09939 6.16411 -7
      vertex 4.28661 6.75462 0
      vertex 5.09939 6.16411 0
    endloop
  endfacet
  facet normal 0.587779 0.809021 0
    outer loop
      vertex 4.28661 6.75462 0
      vertex 5.09939 6.16411 -7
      vertex 4.28661 6.75462 -7
    endloop
  endfacet
  facet normal -0.844331 0.535823 0
    outer loop
      vertex -7.01045 3.85403 -7
      vertex -6.47214 4.70228 0
      vertex -6.47214 4.70228 -7
    endloop
  endfacet
  facet normal -0.844331 0.535823 0
    outer loop
      vertex -6.47214 4.70228 0
      vertex -7.01045 3.85403 -7
      vertex -7.01045 3.85403 0
    endloop
  endfacet
  facet normal -0.951058 0.309013 0
    outer loop
      vertex -7.74866 1.98952 -7
      vertex -7.43821 2.945 0
      vertex -7.43821 2.945 -7
    endloop
  endfacet
  facet normal -0.951058 0.309013 0
    outer loop
      vertex -7.43821 2.945 0
      vertex -7.74866 1.98952 -7
      vertex -7.74866 1.98952 0
    endloop
  endfacet
  facet normal -0.982286 0.187389 0
    outer loop
      vertex -7.93692 1.00267 -7
      vertex -7.74866 1.98952 0
      vertex -7.74866 1.98952 -7
    endloop
  endfacet
  facet normal -0.982286 0.187389 0
    outer loop
      vertex -7.74866 1.98952 0
      vertex -7.93692 1.00267 -7
      vertex -7.93692 1.00267 0
    endloop
  endfacet
  facet normal -0.481759 0.876304 0
    outer loop
      vertex -3.40623 7.23862 -7
      vertex -4.28661 6.75462 0
      vertex -3.40623 7.23862 0
    endloop
  endfacet
  facet normal -0.481759 0.876304 0
    outer loop
      vertex -4.28661 6.75462 0
      vertex -3.40623 7.23862 -7
      vertex -4.28661 6.75462 -7
    endloop
  endfacet
  facet normal -0.587779 0.809021 0
    outer loop
      vertex -4.28661 6.75462 -7
      vertex -5.09939 6.16411 0
      vertex -4.28661 6.75462 0
    endloop
  endfacet
  facet normal -0.587779 0.809021 0
    outer loop
      vertex -5.09939 6.16411 0
      vertex -4.28661 6.75462 -7
      vertex -5.09939 6.16411 -7
    endloop
  endfacet
  facet normal -0.125328 0.992115 0
    outer loop
      vertex -0.502324 7.98421 -7
      vertex -1.49905 7.8583 0
      vertex -0.502324 7.98421 0
    endloop
  endfacet
  facet normal -0.125328 0.992115 0
    outer loop
      vertex -1.49905 7.8583 0
      vertex -0.502324 7.98421 -7
      vertex -1.49905 7.8583 -7
    endloop
  endfacet
  facet normal 0.998027 -0.0627879 0
    outer loop
      vertex 7.93692 -1.00267 0
      vertex 8 0 -7
      vertex 8 0 0
    endloop
  endfacet
  facet normal 0.998027 -0.0627879 0
    outer loop
      vertex 8 0 -7
      vertex 7.93692 -1.00267 0
      vertex 7.93692 -1.00267 -7
    endloop
  endfacet
  facet normal 0.770514 -0.637423 0
    outer loop
      vertex 5.83175 -5.47638 0
      vertex 6.47214 -4.70228 -7
      vertex 6.47214 -4.70228 0
    endloop
  endfacet
  facet normal 0.770514 -0.637423 0
    outer loop
      vertex 6.47214 -4.70228 -7
      vertex 5.83175 -5.47638 0
      vertex 5.83175 -5.47638 -7
    endloop
  endfacet
  facet normal -0.684546 -0.72897 0
    outer loop
      vertex -5.83175 -5.47638 -7
      vertex -5.09939 -6.16411 0
      vertex -5.83175 -5.47638 0
    endloop
  endfacet
  facet normal -0.684546 -0.72897 -0
    outer loop
      vertex -5.09939 -6.16411 0
      vertex -5.83175 -5.47638 -7
      vertex -5.09939 -6.16411 -7
    endloop
  endfacet
  facet normal -0.904826 -0.425782 0
    outer loop
      vertex -7.01045 -3.85403 -7
      vertex -7.43821 -2.945 0
      vertex -7.43821 -2.945 -7
    endloop
  endfacet
  facet normal -0.904826 -0.425782 0
    outer loop
      vertex -7.43821 -2.945 0
      vertex -7.01045 -3.85403 -7
      vertex -7.01045 -3.85403 0
    endloop
  endfacet
  facet normal -0.770514 -0.637423 0
    outer loop
      vertex -5.83175 -5.47638 -7
      vertex -6.47214 -4.70228 0
      vertex -6.47214 -4.70228 -7
    endloop
  endfacet
  facet normal -0.770514 -0.637423 0
    outer loop
      vertex -6.47214 -4.70228 0
      vertex -5.83175 -5.47638 -7
      vertex -5.83175 -5.47638 0
    endloop
  endfacet
  facet normal 0.481759 -0.876304 0
    outer loop
      vertex 3.40623 -7.23862 -7
      vertex 4.28661 -6.75462 0
      vertex 3.40623 -7.23862 0
    endloop
  endfacet
  facet normal 0.481759 -0.876304 0
    outer loop
      vertex 4.28661 -6.75462 0
      vertex 3.40623 -7.23862 -7
      vertex 4.28661 -6.75462 -7
    endloop
  endfacet
  facet normal 0.951058 -0.309013 0
    outer loop
      vertex 7.43821 -2.945 0
      vertex 7.74866 -1.98952 -7
      vertex 7.74866 -1.98952 0
    endloop
  endfacet
  facet normal 0.951058 -0.309013 0
    outer loop
      vertex 7.74866 -1.98952 -7
      vertex 7.43821 -2.945 0
      vertex 7.43821 -2.945 -7
    endloop
  endfacet
  facet normal 0.844331 -0.535823 0
    outer loop
      vertex 6.47214 -4.70228 0
      vertex 7.01045 -3.85403 -7
      vertex 7.01045 -3.85403 0
    endloop
  endfacet
  facet normal 0.844331 -0.535823 0
    outer loop
      vertex 7.01045 -3.85403 -7
      vertex 6.47214 -4.70228 0
      vertex 6.47214 -4.70228 -7
    endloop
  endfacet
  facet normal -0.248693 -0.968582 0
    outer loop
      vertex -2.47214 -7.60845 -7
      vertex -1.49905 -7.8583 0
      vertex -2.47214 -7.60845 0
    endloop
  endfacet
  facet normal -0.248693 -0.968582 -0
    outer loop
      vertex -1.49905 -7.8583 0
      vertex -2.47214 -7.60845 -7
      vertex -1.49905 -7.8583 -7
    endloop
  endfacet
  facet normal -0.982286 -0.187389 0
    outer loop
      vertex -7.74866 -1.98952 -7
      vertex -7.93692 -1.00267 0
      vertex -7.93692 -1.00267 -7
    endloop
  endfacet
  facet normal -0.982286 -0.187389 0
    outer loop
      vertex -7.93692 -1.00267 0
      vertex -7.74866 -1.98952 -7
      vertex -7.74866 -1.98952 0
    endloop
  endfacet
  facet normal -0.998027 -0.0627879 0
    outer loop
      vertex -7.93692 -1.00267 -7
      vertex -8 0 0
      vertex -8 0 -7
    endloop
  endfacet
  facet normal -0.998027 -0.0627879 0
    outer loop
      vertex -8 0 0
      vertex -7.93692 -1.00267 -7
      vertex -7.93692 -1.00267 0
    endloop
  endfacet
  facet normal -0.951058 -0.309013 0
    outer loop
      vertex -7.43821 -2.945 -7
      vertex -7.74866 -1.98952 0
      vertex -7.74866 -1.98952 -7
    endloop
  endfacet
  facet normal -0.951058 -0.309013 0
    outer loop
      vertex -7.74866 -1.98952 0
      vertex -7.43821 -2.945 -7
      vertex -7.43821 -2.945 0
    endloop
  endfacet
  facet normal 0.684546 -0.72897 0
    outer loop
      vertex 5.09939 -6.16411 -7
      vertex 5.83175 -5.47638 0
      vertex 5.09939 -6.16411 0
    endloop
  endfacet
  facet normal 0.684546 -0.72897 0
    outer loop
      vertex 5.83175 -5.47638 0
      vertex 5.09939 -6.16411 -7
      vertex 5.83175 -5.47638 -7
    endloop
  endfacet
  facet normal 0.368122 -0.929777 0
    outer loop
      vertex 2.47214 -7.60845 -7
      vertex 3.40623 -7.23862 0
      vertex 2.47214 -7.60845 0
    endloop
  endfacet
  facet normal 0.368122 -0.929777 0
    outer loop
      vertex 3.40623 -7.23862 0
      vertex 2.47214 -7.60845 -7
      vertex 3.40623 -7.23862 -7
    endloop
  endfacet
  facet normal 0.248693 -0.968582 0
    outer loop
      vertex 1.49905 -7.8583 -7
      vertex 2.47214 -7.60845 0
      vertex 1.49905 -7.8583 0
    endloop
  endfacet
  facet normal 0.248693 -0.968582 0
    outer loop
      vertex 2.47214 -7.60845 0
      vertex 1.49905 -7.8583 -7
      vertex 2.47214 -7.60845 -7
    endloop
  endfacet
  facet normal 0.982286 -0.187389 0
    outer loop
      vertex 7.74866 -1.98952 0
      vertex 7.93692 -1.00267 -7
      vertex 7.93692 -1.00267 0
    endloop
  endfacet
  facet normal 0.982286 -0.187389 0
    outer loop
      vertex 7.93692 -1.00267 -7
      vertex 7.74866 -1.98952 0
      vertex 7.74866 -1.98952 -7
    endloop
  endfacet
  facet normal -0.125328 -0.992115 0
    outer loop
      vertex -1.49905 -7.8583 -7
      vertex -0.502324 -7.98421 0
      vertex -1.49905 -7.8583 0
    endloop
  endfacet
  facet normal -0.125328 -0.992115 -0
    outer loop
      vertex -0.502324 -7.98421 0
      vertex -1.49905 -7.8583 -7
      vertex -0.502324 -7.98421 -7
    endloop
  endfacet
  facet normal -0.368122 -0.929777 0
    outer loop
      vertex -3.40623 -7.23862 -7
      vertex -2.47214 -7.60845 0
      vertex -3.40623 -7.23862 0
    endloop
  endfacet
  facet normal -0.368122 -0.929777 -0
    outer loop
      vertex -2.47214 -7.60845 0
      vertex -3.40623 -7.23862 -7
      vertex -2.47214 -7.60845 -7
    endloop
  endfacet
  facet normal -0.844331 -0.535823 0
    outer loop
      vertex -6.47214 -4.70228 -7
      vertex -7.01045 -3.85403 0
      vertex -7.01045 -3.85403 -7
    endloop
  endfacet
  facet normal -0.844331 -0.535823 0
    outer loop
      vertex -7.01045 -3.85403 0
      vertex -6.47214 -4.70228 -7
      vertex -6.47214 -4.70228 0
    endloop
  endfacet
  facet normal 0.587779 -0.809021 0
    outer loop
      vertex 4.28661 -6.75462 -7
      vertex 5.09939 -6.16411 0
      vertex 4.28661 -6.75462 0
    endloop
  endfacet
  facet normal 0.587779 -0.809021 0
    outer loop
      vertex 5.09939 -6.16411 0
      vertex 4.28661 -6.75462 -7
      vertex 5.09939 -6.16411 -7
    endloop
  endfacet
  facet normal -0.481759 -0.876304 0
    outer loop
      vertex -4.28661 -6.75462 -7
      vertex -3.40623 -7.23862 0
      vertex -4.28661 -6.75462 0
    endloop
  endfacet
  facet normal -0.481759 -0.876304 -0
    outer loop
      vertex -3.40623 -7.23862 0
      vertex -4.28661 -6.75462 -7
      vertex -3.40623 -7.23862 -7
    endloop
  endfacet
  facet normal -0.587779 -0.809021 0
    outer loop
      vertex -5.09939 -6.16411 -7
      vertex -4.28661 -6.75462 0
      vertex -5.09939 -6.16411 0
    endloop
  endfacet
  facet normal -0.587779 -0.809021 -0
    outer loop
      vertex -4.28661 -6.75462 0
      vertex -5.09939 -6.16411 -7
      vertex -4.28661 -6.75462 -7
    endloop
  endfacet
  facet normal -0.998026 -0.0627954 0
    outer loop
      vertex 7.1 0 -6
      vertex 7.04401 0.889866 0
      vertex 7.04401 0.889866 -6
    endloop
  endfacet
  facet normal -0.998026 -0.0627954 0
    outer loop
      vertex 7.04401 0.889866 0
      vertex 7.1 0 -6
      vertex 7.1 0 0
    endloop
  endfacet
  facet normal 0.998026 -0.0627954 0
    outer loop
      vertex -7.1 0 0
      vertex -7.04401 0.889866 -6
      vertex -7.04401 0.889866 0
    endloop
  endfacet
  facet normal 0.998026 -0.0627954 0
    outer loop
      vertex -7.04401 0.889866 -6
      vertex -7.1 0 0
      vertex -7.1 0 -6
    endloop
  endfacet
  facet normal 0 -1 0
    outer loop
      vertex -0.445812 7.08599 -6
      vertex 0.445812 7.08599 0
      vertex -0.445812 7.08599 0
    endloop
  endfacet
  facet normal 0 -1 -0
    outer loop
      vertex 0.445812 7.08599 0
      vertex -0.445812 7.08599 -6
      vertex 0.445812 7.08599 -6
    endloop
  endfacet
  facet normal 0 1 -0
    outer loop
      vertex 0.445812 -7.08599 -6
      vertex -0.445812 -7.08599 0
      vertex 0.445812 -7.08599 0
    endloop
  endfacet
  facet normal 0 1 0
    outer loop
      vertex -0.445812 -7.08599 0
      vertex 0.445812 -7.08599 -6
      vertex -0.445812 -7.08599 -6
    endloop
  endfacet
  facet normal -0.684546 -0.72897 0
    outer loop
      vertex 4.52571 5.47064 -6
      vertex 5.17568 4.86028 0
      vertex 4.52571 5.47064 0
    endloop
  endfacet
  facet normal -0.684546 -0.72897 -0
    outer loop
      vertex 5.17568 4.86028 0
      vertex 4.52571 5.47064 -6
      vertex 5.17568 4.86028 -6
    endloop
  endfacet
  facet normal 0.684546 -0.72897 0
    outer loop
      vertex -5.17568 4.86028 -6
      vertex -4.52571 5.47064 0
      vertex -5.17568 4.86028 0
    endloop
  endfacet
  facet normal 0.684546 -0.72897 0
    outer loop
      vertex -4.52571 5.47064 0
      vertex -5.17568 4.86028 -6
      vertex -4.52571 5.47064 -6
    endloop
  endfacet
  facet normal 0.368126 -0.929776 0
    outer loop
      vertex -3.02303 6.42427 -6
      vertex -2.19402 6.7525 0
      vertex -3.02303 6.42427 0
    endloop
  endfacet
  facet normal 0.368126 -0.929776 0
    outer loop
      vertex -2.19402 6.7525 0
      vertex -3.02303 6.42427 -6
      vertex -2.19402 6.7525 -6
    endloop
  endfacet
  facet normal -0.90483 -0.425773 0
    outer loop
      vertex 6.60141 2.61368 -6
      vertex 6.22178 3.42045 0
      vertex 6.22178 3.42045 -6
    endloop
  endfacet
  facet normal -0.90483 -0.425773 0
    outer loop
      vertex 6.22178 3.42045 0
      vertex 6.60141 2.61368 -6
      vertex 6.60141 2.61368 0
    endloop
  endfacet
  facet normal -0.844325 -0.535832 0
    outer loop
      vertex 6.22178 3.42045 -6
      vertex 5.74402 4.17327 0
      vertex 5.74402 4.17327 -6
    endloop
  endfacet
  facet normal -0.844325 -0.535832 0
    outer loop
      vertex 5.74402 4.17327 0
      vertex 6.22178 3.42045 -6
      vertex 6.22178 3.42045 0
    endloop
  endfacet
  facet normal -0.368126 -0.929776 0
    outer loop
      vertex 2.19402 6.7525 -6
      vertex 3.02303 6.42427 0
      vertex 2.19402 6.7525 0
    endloop
  endfacet
  facet normal -0.368126 -0.929776 -0
    outer loop
      vertex 3.02303 6.42427 0
      vertex 2.19402 6.7525 -6
      vertex 3.02303 6.42427 -6
    endloop
  endfacet
  facet normal -0.248693 -0.968582 0
    outer loop
      vertex 1.33041 6.97424 -6
      vertex 2.19402 6.7525 0
      vertex 1.33041 6.97424 0
    endloop
  endfacet
  facet normal -0.248693 -0.968582 -0
    outer loop
      vertex 2.19402 6.7525 0
      vertex 1.33041 6.97424 -6
      vertex 2.19402 6.7525 -6
    endloop
  endfacet
  facet normal -0.58779 -0.809014 0
    outer loop
      vertex 3.80437 5.99473 -6
      vertex 4.52571 5.47064 0
      vertex 3.80437 5.99473 0
    endloop
  endfacet
  facet normal -0.58779 -0.809014 -0
    outer loop
      vertex 4.52571 5.47064 0
      vertex 3.80437 5.99473 -6
      vertex 4.52571 5.47064 -6
    endloop
  endfacet
  facet normal 0.90483 -0.425773 0
    outer loop
      vertex -6.60141 2.61368 0
      vertex -6.22178 3.42045 -6
      vertex -6.22178 3.42045 0
    endloop
  endfacet
  facet normal 0.90483 -0.425773 0
    outer loop
      vertex -6.22178 3.42045 -6
      vertex -6.60141 2.61368 0
      vertex -6.60141 2.61368 -6
    endloop
  endfacet
  facet normal 0.770516 -0.637421 0
    outer loop
      vertex -5.74402 4.17327 0
      vertex -5.17568 4.86028 -6
      vertex -5.17568 4.86028 0
    endloop
  endfacet
  facet normal 0.770516 -0.637421 0
    outer loop
      vertex -5.17568 4.86028 -6
      vertex -5.74402 4.17327 0
      vertex -5.74402 4.17327 -6
    endloop
  endfacet
  facet normal 0.125332 -0.992115 0
    outer loop
      vertex -1.33041 6.97424 -6
      vertex -0.445812 7.08599 0
      vertex -1.33041 6.97424 0
    endloop
  endfacet
  facet normal 0.125332 -0.992115 0
    outer loop
      vertex -0.445812 7.08599 0
      vertex -1.33041 6.97424 -6
      vertex -0.445812 7.08599 -6
    endloop
  endfacet
  facet normal 0 0 1
    outer loop
      vertex 7.04401 0.889866 -6
      vertex 7.04401 -0.889866 -6
      vertex 7.1 0 -6
    endloop
  endfacet
  facet normal 0 0 1
    outer loop
      vertex 6.87694 1.7657 -6
      vertex 7.04401 -0.889866 -6
      vertex 7.04401 0.889866 -6
    endloop
  endfacet
  facet normal 0 0 1
    outer loop
      vertex 6.87694 1.7657 -6
      vertex 6.87694 -1.7657 -6
      vertex 7.04401 -0.889866 -6
    endloop
  endfacet
  facet normal 0 0 1
    outer loop
      vertex 6.60141 2.61368 -6
      vertex 6.87694 -1.7657 -6
      vertex 6.87694 1.7657 -6
    endloop
  endfacet
  facet normal 0 0 1
    outer loop
      vertex 6.60141 2.61368 -6
      vertex 6.60141 -2.61368 -6
      vertex 6.87694 -1.7657 -6
    endloop
  endfacet
  facet normal 0 0 1
    outer loop
      vertex 6.22178 3.42045 -6
      vertex 6.60141 -2.61368 -6
      vertex 6.60141 2.61368 -6
    endloop
  endfacet
  facet normal 0 0 1
    outer loop
      vertex 6.22178 3.42045 -6
      vertex 6.22178 -3.42045 -6
      vertex 6.60141 -2.61368 -6
    endloop
  endfacet
  facet normal 0 0 1
    outer loop
      vertex 5.74402 4.17327 -6
      vertex 6.22178 -3.42045 -6
      vertex 6.22178 3.42045 -6
    endloop
  endfacet
  facet normal 0 0 1
    outer loop
      vertex 5.74402 4.17327 -6
      vertex 5.74402 -4.17327 -6
      vertex 6.22178 -3.42045 -6
    endloop
  endfacet
  facet normal 0 0 1
    outer loop
      vertex 5.17568 4.86028 -6
      vertex 5.74402 -4.17327 -6
      vertex 5.74402 4.17327 -6
    endloop
  endfacet
  facet normal 0 0 1
    outer loop
      vertex 5.17568 4.86028 -6
      vertex 5.17568 -4.86028 -6
      vertex 5.74402 -4.17327 -6
    endloop
  endfacet
  facet normal 0 0 1
    outer loop
      vertex 4.52571 5.47064 -6
      vertex 5.17568 -4.86028 -6
      vertex 5.17568 4.86028 -6
    endloop
  endfacet
  facet normal 0 0 1
    outer loop
      vertex 4.52571 5.47064 -6
      vertex 4.52571 -5.47064 -6
      vertex 5.17568 -4.86028 -6
    endloop
  endfacet
  facet normal 0 0 1
    outer loop
      vertex 3.80437 5.99473 -6
      vertex 4.52571 -5.47064 -6
      vertex 4.52571 5.47064 -6
    endloop
  endfacet
  facet normal 0 0 1
    outer loop
      vertex 3.80437 5.99473 -6
      vertex 3.80437 -5.99473 -6
      vertex 4.52571 -5.47064 -6
    endloop
  endfacet
  facet normal 0 0 1
    outer loop
      vertex 3.02303 6.42427 -6
      vertex 3.80437 -5.99473 -6
      vertex 3.80437 5.99473 -6
    endloop
  endfacet
  facet normal 0 0 1
    outer loop
      vertex 3.02303 6.42427 -6
      vertex 3.02303 -6.42427 -6
      vertex 3.80437 -5.99473 -6
    endloop
  endfacet
  facet normal 0 0 1
    outer loop
      vertex 2.19402 6.7525 -6
      vertex 3.02303 -6.42427 -6
      vertex 3.02303 6.42427 -6
    endloop
  endfacet
  facet normal 0 0 1
    outer loop
      vertex 2.19402 6.7525 -6
      vertex 2.19402 -6.7525 -6
      vertex 3.02303 -6.42427 -6
    endloop
  endfacet
  facet normal 0 0 1
    outer loop
      vertex 1.33041 6.97424 -6
      vertex 2.19402 -6.7525 -6
      vertex 2.19402 6.7525 -6
    endloop
  endfacet
  facet normal 0 0 1
    outer loop
      vertex 1.33041 6.97424 -6
      vertex 1.33041 -6.97424 -6
      vertex 2.19402 -6.7525 -6
    endloop
  endfacet
  facet normal 0 0 1
    outer loop
      vertex 0.445812 7.08599 -6
      vertex 1.33041 -6.97424 -6
      vertex 1.33041 6.97424 -6
    endloop
  endfacet
  facet normal 0 0 1
    outer loop
      vertex 0.445812 7.08599 -6
      vertex 0.445812 -7.08599 -6
      vertex 1.33041 -6.97424 -6
    endloop
  endfacet
  facet normal -0 0 1
    outer loop
      vertex -0.445812 7.08599 -6
      vertex 0.445812 -7.08599 -6
      vertex 0.445812 7.08599 -6
    endloop
  endfacet
  facet normal 0 0 1
    outer loop
      vertex -0.445812 7.08599 -6
      vertex -0.445812 -7.08599 -6
      vertex 0.445812 -7.08599 -6
    endloop
  endfacet
  facet normal -0 0 1
    outer loop
      vertex -1.33041 6.97424 -6
      vertex -0.445812 -7.08599 -6
      vertex -0.445812 7.08599 -6
    endloop
  endfacet
  facet normal 0 0 1
    outer loop
      vertex -1.33041 6.97424 -6
      vertex -1.33041 -6.97424 -6
      vertex -0.445812 -7.08599 -6
    endloop
  endfacet
  facet normal -0 0 1
    outer loop
      vertex -2.19402 6.7525 -6
      vertex -1.33041 -6.97424 -6
      vertex -1.33041 6.97424 -6
    endloop
  endfacet
  facet normal 0 0 1
    outer loop
      vertex -2.19402 6.7525 -6
      vertex -2.19402 -6.7525 -6
      vertex -1.33041 -6.97424 -6
    endloop
  endfacet
  facet normal -0 0 1
    outer loop
      vertex -3.02303 6.42427 -6
      vertex -2.19402 -6.7525 -6
      vertex -2.19402 6.7525 -6
    endloop
  endfacet
  facet normal 0 0 1
    outer loop
      vertex -3.02303 6.42427 -6
      vertex -3.02303 -6.42427 -6
      vertex -2.19402 -6.7525 -6
    endloop
  endfacet
  facet normal -0 0 1
    outer loop
      vertex -3.80437 5.99473 -6
      vertex -3.02303 -6.42427 -6
      vertex -3.02303 6.42427 -6
    endloop
  endfacet
  facet normal 0 0 1
    outer loop
      vertex -3.80437 5.99473 -6
      vertex -3.80437 -5.99473 -6
      vertex -3.02303 -6.42427 -6
    endloop
  endfacet
  facet normal -0 0 1
    outer loop
      vertex -4.52571 5.47064 -6
      vertex -3.80437 -5.99473 -6
      vertex -3.80437 5.99473 -6
    endloop
  endfacet
  facet normal 0 0 1
    outer loop
      vertex -4.52571 5.47064 -6
      vertex -4.52571 -5.47064 -6
      vertex -3.80437 -5.99473 -6
    endloop
  endfacet
  facet normal -0 0 1
    outer loop
      vertex -5.17568 4.86028 -6
      vertex -4.52571 -5.47064 -6
      vertex -4.52571 5.47064 -6
    endloop
  endfacet
  facet normal 0 0 1
    outer loop
      vertex -5.17568 4.86028 -6
      vertex -5.17568 -4.86028 -6
      vertex -4.52571 -5.47064 -6
    endloop
  endfacet
  facet normal -0 0 1
    outer loop
      vertex -5.74402 4.17327 -6
      vertex -5.17568 -4.86028 -6
      vertex -5.17568 4.86028 -6
    endloop
  endfacet
  facet normal 0 0 1
    outer loop
      vertex -5.74402 4.17327 -6
      vertex -5.74402 -4.17327 -6
      vertex -5.17568 -4.86028 -6
    endloop
  endfacet
  facet normal -0 0 1
    outer loop
      vertex -6.22178 3.42045 -6
      vertex -5.74402 -4.17327 -6
      vertex -5.74402 4.17327 -6
    endloop
  endfacet
  facet normal 0 0 1
    outer loop
      vertex -6.22178 3.42045 -6
      vertex -6.22178 -3.42045 -6
      vertex -5.74402 -4.17327 -6
    endloop
  endfacet
  facet normal -0 0 1
    outer loop
      vertex -6.60141 2.61368 -6
      vertex -6.22178 -3.42045 -6
      vertex -6.22178 3.42045 -6
    endloop
  endfacet
  facet normal 0 0 1
    outer loop
      vertex -6.60141 2.61368 -6
      vertex -6.60141 -2.61368 -6
      vertex -6.22178 -3.42045 -6
    endloop
  endfacet
  facet normal -0 0 1
    outer loop
      vertex -6.87694 1.7657 -6
      vertex -6.60141 -2.61368 -6
      vertex -6.60141 2.61368 -6
    endloop
  endfacet
  facet normal 0 0 1
    outer loop
      vertex -6.87694 1.7657 -6
      vertex -6.87694 -1.7657 -6
      vertex -6.60141 -2.61368 -6
    endloop
  endfacet
  facet normal -0 0 1
    outer loop
      vertex -7.04401 0.889866 -6
      vertex -6.87694 -1.7657 -6
      vertex -6.87694 1.7657 -6
    endloop
  endfacet
  facet normal 0 0 1
    outer loop
      vertex -7.04401 0.889866 -6
      vertex -7.04401 -0.889866 -6
      vertex -6.87694 -1.7657 -6
    endloop
  endfacet
  facet normal 0 -0 1
    outer loop
      vertex -7.04401 -0.889866 -6
      vertex -7.04401 0.889866 -6
      vertex -7.1 0 -6
    endloop
  endfacet
  facet normal -0.125332 0.992115 0
    outer loop
      vertex 1.33041 -6.97424 -6
      vertex 0.445812 -7.08599 0
      vertex 1.33041 -6.97424 0
    endloop
  endfacet
  facet normal -0.125332 0.992115 0
    outer loop
      vertex 0.445812 -7.08599 0
      vertex 1.33041 -6.97424 -6
      vertex 0.445812 -7.08599 -6
    endloop
  endfacet
  facet normal -0.481749 0.876309 0
    outer loop
      vertex 3.80437 -5.99473 -6
      vertex 3.02303 -6.42427 0
      vertex 3.80437 -5.99473 0
    endloop
  endfacet
  facet normal -0.481749 0.876309 0
    outer loop
      vertex 3.02303 -6.42427 0
      vertex 3.80437 -5.99473 -6
      vertex 3.02303 -6.42427 -6
    endloop
  endfacet
  facet normal -0.951055 -0.309022 0
    outer loop
      vertex 6.87694 1.7657 -6
      vertex 6.60141 2.61368 0
      vertex 6.60141 2.61368 -6
    endloop
  endfacet
  facet normal -0.951055 -0.309022 0
    outer loop
      vertex 6.60141 2.61368 0
      vertex 6.87694 1.7657 -6
      vertex 6.87694 1.7657 0
    endloop
  endfacet
  facet normal -0.982288 -0.187377 0
    outer loop
      vertex 7.04401 0.889866 -6
      vertex 6.87694 1.7657 0
      vertex 6.87694 1.7657 -6
    endloop
  endfacet
  facet normal -0.982288 -0.187377 0
    outer loop
      vertex 6.87694 1.7657 0
      vertex 7.04401 0.889866 -6
      vertex 7.04401 0.889866 0
    endloop
  endfacet
  facet normal -0.770516 -0.637421 0
    outer loop
      vertex 5.74402 4.17327 -6
      vertex 5.17568 4.86028 0
      vertex 5.17568 4.86028 -6
    endloop
  endfacet
  facet normal -0.770516 -0.637421 0
    outer loop
      vertex 5.17568 4.86028 0
      vertex 5.74402 4.17327 -6
      vertex 5.74402 4.17327 0
    endloop
  endfacet
  facet normal -0.125332 -0.992115 0
    outer loop
      vertex 0.445812 7.08599 -6
      vertex 1.33041 6.97424 0
      vertex 0.445812 7.08599 0
    endloop
  endfacet
  facet normal -0.125332 -0.992115 -0
    outer loop
      vertex 1.33041 6.97424 0
      vertex 0.445812 7.08599 -6
      vertex 1.33041 6.97424 -6
    endloop
  endfacet
  facet normal -0.481749 -0.876309 0
    outer loop
      vertex 3.02303 6.42427 -6
      vertex 3.80437 5.99473 0
      vertex 3.02303 6.42427 0
    endloop
  endfacet
  facet normal -0.481749 -0.876309 -0
    outer loop
      vertex 3.80437 5.99473 0
      vertex 3.02303 6.42427 -6
      vertex 3.80437 5.99473 -6
    endloop
  endfacet
  facet normal 0.844325 -0.535832 0
    outer loop
      vertex -6.22178 3.42045 0
      vertex -5.74402 4.17327 -6
      vertex -5.74402 4.17327 0
    endloop
  endfacet
  facet normal 0.844325 -0.535832 0
    outer loop
      vertex -5.74402 4.17327 -6
      vertex -6.22178 3.42045 0
      vertex -6.22178 3.42045 -6
    endloop
  endfacet
  facet normal 0.951055 -0.309022 0
    outer loop
      vertex -6.87694 1.7657 0
      vertex -6.60141 2.61368 -6
      vertex -6.60141 2.61368 0
    endloop
  endfacet
  facet normal 0.951055 -0.309022 0
    outer loop
      vertex -6.60141 2.61368 -6
      vertex -6.87694 1.7657 0
      vertex -6.87694 1.7657 -6
    endloop
  endfacet
  facet normal 0.982288 -0.187377 0
    outer loop
      vertex -7.04401 0.889866 0
      vertex -6.87694 1.7657 -6
      vertex -6.87694 1.7657 0
    endloop
  endfacet
  facet normal 0.982288 -0.187377 0
    outer loop
      vertex -6.87694 1.7657 -6
      vertex -7.04401 0.889866 0
      vertex -7.04401 0.889866 -6
    endloop
  endfacet
  facet normal 0.481749 -0.876309 0
    outer loop
      vertex -3.80437 5.99473 -6
      vertex -3.02303 6.42427 0
      vertex -3.80437 5.99473 0
    endloop
  endfacet
  facet normal 0.481749 -0.876309 0
    outer loop
      vertex -3.02303 6.42427 0
      vertex -3.80437 5.99473 -6
      vertex -3.02303 6.42427 -6
    endloop
  endfacet
  facet normal 0.58779 -0.809014 0
    outer loop
      vertex -4.52571 5.47064 -6
      vertex -3.80437 5.99473 0
      vertex -4.52571 5.47064 0
    endloop
  endfacet
  facet normal 0.58779 -0.809014 0
    outer loop
      vertex -3.80437 5.99473 0
      vertex -4.52571 5.47064 -6
      vertex -3.80437 5.99473 -6
    endloop
  endfacet
  facet normal 0.248693 -0.968582 0
    outer loop
      vertex -2.19402 6.7525 -6
      vertex -1.33041 6.97424 0
      vertex -2.19402 6.7525 0
    endloop
  endfacet
  facet normal 0.248693 -0.968582 0
    outer loop
      vertex -1.33041 6.97424 0
      vertex -2.19402 6.7525 -6
      vertex -1.33041 6.97424 -6
    endloop
  endfacet
  facet normal -0.998026 0.0627954 0
    outer loop
      vertex 7.04401 -0.889866 -6
      vertex 7.1 0 0
      vertex 7.1 0 -6
    endloop
  endfacet
  facet normal -0.998026 0.0627954 0
    outer loop
      vertex 7.1 0 0
      vertex 7.04401 -0.889866 -6
      vertex 7.04401 -0.889866 0
    endloop
  endfacet
  facet normal -0.951055 0.309022 0
    outer loop
      vertex 6.60141 -2.61368 -6
      vertex 6.87694 -1.7657 0
      vertex 6.87694 -1.7657 -6
    endloop
  endfacet
  facet normal -0.951055 0.309022 0
    outer loop
      vertex 6.87694 -1.7657 0
      vertex 6.60141 -2.61368 -6
      vertex 6.60141 -2.61368 0
    endloop
  endfacet
  facet normal -0.982288 0.187377 0
    outer loop
      vertex 6.87694 -1.7657 -6
      vertex 7.04401 -0.889866 0
      vertex 7.04401 -0.889866 -6
    endloop
  endfacet
  facet normal -0.982288 0.187377 0
    outer loop
      vertex 7.04401 -0.889866 0
      vertex 6.87694 -1.7657 -6
      vertex 6.87694 -1.7657 0
    endloop
  endfacet
  facet normal 0.90483 0.425773 0
    outer loop
      vertex -6.22178 -3.42045 0
      vertex -6.60141 -2.61368 -6
      vertex -6.60141 -2.61368 0
    endloop
  endfacet
  facet normal 0.90483 0.425773 0
    outer loop
      vertex -6.60141 -2.61368 -6
      vertex -6.22178 -3.42045 0
      vertex -6.22178 -3.42045 -6
    endloop
  endfacet
  facet normal -0.58779 0.809014 0
    outer loop
      vertex 4.52571 -5.47064 -6
      vertex 3.80437 -5.99473 0
      vertex 4.52571 -5.47064 0
    endloop
  endfacet
  facet normal -0.58779 0.809014 0
    outer loop
      vertex 3.80437 -5.99473 0
      vertex 4.52571 -5.47064 -6
      vertex 3.80437 -5.99473 -6
    endloop
  endfacet
  facet normal 0.982288 0.187377 0
    outer loop
      vertex -6.87694 -1.7657 0
      vertex -7.04401 -0.889866 -6
      vertex -7.04401 -0.889866 0
    endloop
  endfacet
  facet normal 0.982288 0.187377 0
    outer loop
      vertex -7.04401 -0.889866 -6
      vertex -6.87694 -1.7657 0
      vertex -6.87694 -1.7657 -6
    endloop
  endfacet
  facet normal 0.998026 0.0627954 0
    outer loop
      vertex -7.04401 -0.889866 0
      vertex -7.1 0 -6
      vertex -7.1 0 0
    endloop
  endfacet
  facet normal 0.998026 0.0627954 0
    outer loop
      vertex -7.1 0 -6
      vertex -7.04401 -0.889866 0
      vertex -7.04401 -0.889866 -6
    endloop
  endfacet
  facet normal 0.951055 0.309022 0
    outer loop
      vertex -6.60141 -2.61368 0
      vertex -6.87694 -1.7657 -6
      vertex -6.87694 -1.7657 0
    endloop
  endfacet
  facet normal 0.951055 0.309022 0
    outer loop
      vertex -6.87694 -1.7657 -6
      vertex -6.60141 -2.61368 0
      vertex -6.60141 -2.61368 -6
    endloop
  endfacet
  facet normal -0.684546 0.72897 0
    outer loop
      vertex 5.17568 -4.86028 -6
      vertex 4.52571 -5.47064 0
      vertex 5.17568 -4.86028 0
    endloop
  endfacet
  facet normal -0.684546 0.72897 0
    outer loop
      vertex 4.52571 -5.47064 0
      vertex 5.17568 -4.86028 -6
      vertex 4.52571 -5.47064 -6
    endloop
  endfacet
  facet normal -0.248693 0.968582 0
    outer loop
      vertex 2.19402 -6.7525 -6
      vertex 1.33041 -6.97424 0
      vertex 2.19402 -6.7525 0
    endloop
  endfacet
  facet normal -0.248693 0.968582 0
    outer loop
      vertex 1.33041 -6.97424 0
      vertex 2.19402 -6.7525 -6
      vertex 1.33041 -6.97424 -6
    endloop
  endfacet
  facet normal -0.368126 0.929776 0
    outer loop
      vertex 3.02303 -6.42427 -6
      vertex 2.19402 -6.7525 0
      vertex 3.02303 -6.42427 0
    endloop
  endfacet
  facet normal -0.368126 0.929776 0
    outer loop
      vertex 2.19402 -6.7525 0
      vertex 3.02303 -6.42427 -6
      vertex 2.19402 -6.7525 -6
    endloop
  endfacet
  facet normal -0.90483 0.425773 0
    outer loop
      vertex 6.22178 -3.42045 -6
      vertex 6.60141 -2.61368 0
      vertex 6.60141 -2.61368 -6
    endloop
  endfacet
  facet normal -0.90483 0.425773 0
    outer loop
      vertex 6.60141 -2.61368 0
      vertex 6.22178 -3.42045 -6
      vertex 6.22178 -3.42045 0
    endloop
  endfacet
  facet normal -0.844325 0.535832 0
    outer loop
      vertex 5.74402 -4.17327 -6
      vertex 6.22178 -3.42045 0
      vertex 6.22178 -3.42045 -6
    endloop
  endfacet
  facet normal -0.844325 0.535832 0
    outer loop
      vertex 6.22178 -3.42045 0
      vertex 5.74402 -4.17327 -6
      vertex 5.74402 -4.17327 0
    endloop
  endfacet
  facet normal 0.125332 0.992115 -0
    outer loop
      vertex -0.445812 -7.08599 -6
      vertex -1.33041 -6.97424 0
      vertex -0.445812 -7.08599 0
    endloop
  endfacet
  facet normal 0.125332 0.992115 0
    outer loop
      vertex -1.33041 -6.97424 0
      vertex -0.445812 -7.08599 -6
      vertex -1.33041 -6.97424 -6
    endloop
  endfacet
  facet normal 0.368126 0.929776 -0
    outer loop
      vertex -2.19402 -6.7525 -6
      vertex -3.02303 -6.42427 0
      vertex -2.19402 -6.7525 0
    endloop
  endfacet
  facet normal 0.368126 0.929776 0
    outer loop
      vertex -3.02303 -6.42427 0
      vertex -2.19402 -6.7525 -6
      vertex -3.02303 -6.42427 -6
    endloop
  endfacet
  facet normal 0.58779 0.809014 -0
    outer loop
      vertex -3.80437 -5.99473 -6
      vertex -4.52571 -5.47064 0
      vertex -3.80437 -5.99473 0
    endloop
  endfacet
  facet normal 0.58779 0.809014 0
    outer loop
      vertex -4.52571 -5.47064 0
      vertex -3.80437 -5.99473 -6
      vertex -4.52571 -5.47064 -6
    endloop
  endfacet
  facet normal 0.248693 0.968582 -0
    outer loop
      vertex -1.33041 -6.97424 -6
      vertex -2.19402 -6.7525 0
      vertex -1.33041 -6.97424 0
    endloop
  endfacet
  facet normal 0.248693 0.968582 0
    outer loop
      vertex -2.19402 -6.7525 0
      vertex -1.33041 -6.97424 -6
      vertex -2.19402 -6.7525 -6
    endloop
  endfacet
  facet normal 0.770516 0.637421 0
    outer loop
      vertex -5.17568 -4.86028 0
      vertex -5.74402 -4.17327 -6
      vertex -5.74402 -4.17327 0
    endloop
  endfacet
  facet normal 0.770516 0.637421 0
    outer loop
      vertex -5.74402 -4.17327 -6
      vertex -5.17568 -4.86028 0
      vertex -5.17568 -4.86028 -6
    endloop
  endfacet
  facet normal 0.684546 0.72897 -0
    outer loop
      vertex -4.52571 -5.47064 -6
      vertex -5.17568 -4.86028 0
      vertex -4.52571 -5.47064 0
    endloop
  endfacet
  facet normal 0.684546 0.72897 0
    outer loop
      vertex -5.17568 -4.86028 0
      vertex -4.52571 -5.47064 -6
      vertex -5.17568 -4.86028 -6
    endloop
  endfacet
  facet normal -0.770516 0.637421 0
    outer loop
      vertex 5.17568 -4.86028 -6
      vertex 5.74402 -4.17327 0
      vertex 5.74402 -4.17327 -6
    endloop
  endfacet
  facet normal -0.770516 0.637421 0
    outer loop
      vertex 5.74402 -4.17327 0
      vertex 5.17568 -4.86028 -6
      vertex 5.17568 -4.86028 0
    endloop
  endfacet
  facet normal 0.481749 0.876309 -0
    outer loop
      vertex -3.02303 -6.42427 -6
      vertex -3.80437 -5.99473 0
      vertex -3.02303 -6.42427 0
    endloop
  endfacet
  facet normal 0.481749 0.876309 0
    outer loop
      vertex -3.80437 -5.99473 0
      vertex -3.02303 -6.42427 -6
      vertex -3.80437 -5.99473 -6
    endloop
  endfacet
  facet normal 0.844325 0.535832 0
    outer loop
      vertex -5.74402 -4.17327 0
      vertex -6.22178 -3.42045 -6
      vertex -6.22178 -3.42045 0
    endloop
  endfacet
  facet normal 0.844325 0.535832 0
    outer loop
      vertex -6.22178 -3.42045 -6
      vertex -5.74402 -4.17327 0
      vertex -5.74402 -4.17327 -6
    endloop
  endfacet
endsolid OpenSCAD_Model
