solid OpenSCAD_Model
  facet normal 0.998027 0.0627939 0
    outer loop
      vertex 7 0 39
      vertex 6.9448 0.877332 0
      vertex 6.9448 0.877332 39
    endloop
  endfacet
  facet normal 0.998027 0.0627939 0
    outer loop
      vertex 6.9448 0.877332 0
      vertex 7 0 39
      vertex 7 0 0
    endloop
  endfacet
  facet normal 0.904828 0.425778 0
    outer loop
      vertex 6.50844 2.57687 39
      vertex 6.13415 3.37228 0
      vertex 6.13415 3.37228 39
    endloop
  endfacet
  facet normal 0.904828 0.425778 0
    outer loop
      vertex 6.13415 3.37228 0
      vertex 6.50844 2.57687 39
      vertex 6.50844 2.57687 0
    endloop
  endfacet
  facet normal 0.982287 0.18738 0
    outer loop
      vertex 6.9448 0.877332 39
      vertex 6.78008 1.74083 0
      vertex 6.78008 1.74083 39
    endloop
  endfacet
  facet normal 0.982287 0.18738 0
    outer loop
      vertex 6.78008 1.74083 0
      vertex 6.9448 0.877332 39
      vertex 6.9448 0.877332 0
    endloop
  endfacet
  facet normal 0.951058 0.309011 0
    outer loop
      vertex 6.78008 1.74083 39
      vertex 6.50844 2.57687 0
      vertex 6.50844 2.57687 39
    endloop
  endfacet
  facet normal 0.951058 0.309011 0
    outer loop
      vertex 6.50844 2.57687 0
      vertex 6.78008 1.74083 39
      vertex 6.78008 1.74083 0
    endloop
  endfacet
  facet normal 0.844316 0.535846 0
    outer loop
      vertex 6.13415 3.37228 39
      vertex 6.00477 3.57614 0
      vertex 6.00477 3.57614 39
    endloop
  endfacet
  facet normal 0.844316 0.535846 0
    outer loop
      vertex 6.00477 3.57614 0
      vertex 6.13415 3.37228 39
      vertex 6.13415 3.37228 0
    endloop
  endfacet
  facet normal 0 0 1
    outer loop
      vertex 6.5 0 39
      vertex 7 0 39
      vertex 6.9448 0.877332 39
    endloop
  endfacet
  facet normal -0 0 1
    outer loop
      vertex 6.39355 1.692 39
      vertex 6.9448 0.877332 39
      vertex 6.78008 1.74083 39
    endloop
  endfacet
  facet normal 0 0 1
    outer loop
      vertex 7 0 39
      vertex 6.5 0 39
      vertex 6.9448 -0.877332 39
    endloop
  endfacet
  facet normal 0 0 1
    outer loop
      vertex 6.39355 1.692 39
      vertex 6.78008 1.74083 39
      vertex 6.50844 2.57687 39
    endloop
  endfacet
  facet normal 0 0 1
    outer loop
      vertex 6.39355 -1.692 39
      vertex 6.9448 -0.877332 39
      vertex 6.5 0 39
    endloop
  endfacet
  facet normal 0 0 1
    outer loop
      vertex 6.9448 -0.877332 39
      vertex 6.39355 -1.692 39
      vertex 6.78008 -1.74083 39
    endloop
  endfacet
  facet normal 0 0 1
    outer loop
      vertex 6.9448 0.877332 39
      vertex 6.39355 1.692 39
      vertex 6.5 0 39
    endloop
  endfacet
  facet normal -0 0 1
    outer loop
      vertex 6.07587 3.35731 39
      vertex 6.50844 2.57687 39
      vertex 6.13415 3.37228 39
    endloop
  endfacet
  facet normal 0 0 1
    outer loop
      vertex 6.50844 2.57687 39
      vertex 6.07587 3.35731 39
      vertex 6.39355 1.692 39
    endloop
  endfacet
  facet normal 0 -0 1
    outer loop
      vertex 6.07587 3.35731 39
      vertex 6.13415 3.37228 39
      vertex 6.00477 3.57614 39
    endloop
  endfacet
  facet normal 0 0 1
    outer loop
      vertex 6.78008 -1.74083 39
      vertex 6.39355 -1.692 39
      vertex 6.50844 -2.57687 39
    endloop
  endfacet
  facet normal 0 0 1
    outer loop
      vertex 6.07587 -3.35731 39
      vertex 6.50844 -2.57687 39
      vertex 6.39355 -1.692 39
    endloop
  endfacet
  facet normal 0 0 1
    outer loop
      vertex 6.50844 -2.57687 39
      vertex 6.07587 -3.35731 39
      vertex 6.13415 -3.37228 39
    endloop
  endfacet
  facet normal 0 0 1
    outer loop
      vertex 6.13415 -3.37228 39
      vertex 6.07587 -3.35731 39
      vertex 6.00477 -3.57614 39
    endloop
  endfacet
  facet normal 0.998027 -0.0627939 0
    outer loop
      vertex 6.9448 -0.877332 39
      vertex 7 0 0
      vertex 7 0 39
    endloop
  endfacet
  facet normal 0.998027 -0.0627939 0
    outer loop
      vertex 7 0 0
      vertex 6.9448 -0.877332 39
      vertex 6.9448 -0.877332 0
    endloop
  endfacet
  facet normal 0.904828 -0.425778 0
    outer loop
      vertex 6.13415 -3.37228 39
      vertex 6.50844 -2.57687 0
      vertex 6.50844 -2.57687 39
    endloop
  endfacet
  facet normal 0.904828 -0.425778 0
    outer loop
      vertex 6.50844 -2.57687 0
      vertex 6.13415 -3.37228 39
      vertex 6.13415 -3.37228 0
    endloop
  endfacet
  facet normal 0 0 -1
    outer loop
      vertex 6.5 0 0
      vertex 7 0 0
      vertex 6.9448 -0.877332 0
    endloop
  endfacet
  facet normal 0 0 -1
    outer loop
      vertex 6.39355 -1.692 0
      vertex 6.9448 -0.877332 0
      vertex 6.78008 -1.74083 0
    endloop
  endfacet
  facet normal 0 0 -1
    outer loop
      vertex 7 0 0
      vertex 6.5 0 0
      vertex 6.9448 0.877332 0
    endloop
  endfacet
  facet normal 0 0 -1
    outer loop
      vertex 6.39355 -1.692 0
      vertex 6.78008 -1.74083 0
      vertex 6.50844 -2.57687 0
    endloop
  endfacet
  facet normal 0 0 -1
    outer loop
      vertex 6.39355 1.692 0
      vertex 6.9448 0.877332 0
      vertex 6.5 0 0
    endloop
  endfacet
  facet normal 0 0 -1
    outer loop
      vertex 6.9448 0.877332 0
      vertex 6.39355 1.692 0
      vertex 6.78008 1.74083 0
    endloop
  endfacet
  facet normal -0 0 -1
    outer loop
      vertex 6.9448 -0.877332 0
      vertex 6.39355 -1.692 0
      vertex 6.5 0 0
    endloop
  endfacet
  facet normal 0 0 -1
    outer loop
      vertex 6.07587 -3.35731 0
      vertex 6.50844 -2.57687 0
      vertex 6.13415 -3.37228 0
    endloop
  endfacet
  facet normal -0 0 -1
    outer loop
      vertex 6.50844 -2.57687 0
      vertex 6.07587 -3.35731 0
      vertex 6.39355 -1.692 0
    endloop
  endfacet
  facet normal 0 -0 -1
    outer loop
      vertex 6.07587 -3.35731 0
      vertex 6.13415 -3.37228 0
      vertex 6.00477 -3.57614 0
    endloop
  endfacet
  facet normal -0 0 -1
    outer loop
      vertex 6.78008 1.74083 0
      vertex 6.39355 1.692 0
      vertex 6.50844 2.57687 0
    endloop
  endfacet
  facet normal 0 0 -1
    outer loop
      vertex 6.07587 3.35731 0
      vertex 6.50844 2.57687 0
      vertex 6.39355 1.692 0
    endloop
  endfacet
  facet normal 0 0 -1
    outer loop
      vertex 6.50844 2.57687 0
      vertex 6.07587 3.35731 0
      vertex 6.13415 3.37228 0
    endloop
  endfacet
  facet normal -0 0 -1
    outer loop
      vertex 6.13415 3.37228 0
      vertex 6.07587 3.35731 0
      vertex 6.00477 3.57614 0
    endloop
  endfacet
  facet normal 0.951058 -0.309011 0
    outer loop
      vertex 6.50844 -2.57687 39
      vertex 6.78008 -1.74083 0
      vertex 6.78008 -1.74083 39
    endloop
  endfacet
  facet normal 0.951058 -0.309011 0
    outer loop
      vertex 6.78008 -1.74083 0
      vertex 6.50844 -2.57687 39
      vertex 6.50844 -2.57687 0
    endloop
  endfacet
  facet normal 0.982287 -0.18738 0
    outer loop
      vertex 6.78008 -1.74083 39
      vertex 6.9448 -0.877332 0
      vertex 6.9448 -0.877332 39
    endloop
  endfacet
  facet normal 0.982287 -0.18738 0
    outer loop
      vertex 6.9448 -0.877332 0
      vertex 6.78008 -1.74083 39
      vertex 6.78008 -1.74083 0
    endloop
  endfacet
  facet normal 0.844316 -0.535846 0
    outer loop
      vertex 6.00477 -3.57614 39
      vertex 6.13415 -3.37228 0
      vertex 6.13415 -3.37228 39
    endloop
  endfacet
  facet normal 0.844316 -0.535846 0
    outer loop
      vertex 6.13415 -3.37228 0
      vertex 6.00477 -3.57614 39
      vertex 6.00477 -3.57614 0
    endloop
  endfacet
  facet normal -0.998027 -0.0627896 0
    outer loop
      vertex 6.5 0 0
      vertex 6.39355 1.692 39
      vertex 6.39355 1.692 0
    endloop
  endfacet
  facet normal -0.998027 -0.0627896 0
    outer loop
      vertex 6.39355 1.692 39
      vertex 6.5 0 0
      vertex 6.5 0 39
    endloop
  endfacet
  facet normal -0.951059 0.309008 0
    outer loop
      vertex 6.00477 -3.57614 0
      vertex 6.07587 -3.35731 39
      vertex 6.07587 -3.35731 0
    endloop
  endfacet
  facet normal -0.951059 0.309008 0
    outer loop
      vertex 6.07587 -3.35731 39
      vertex 6.00477 -3.57614 0
      vertex 6.00477 -3.57614 39
    endloop
  endfacet
  facet normal -0.982287 -0.187384 0
    outer loop
      vertex 6.39355 1.692 0
      vertex 6.07587 3.35731 39
      vertex 6.07587 3.35731 0
    endloop
  endfacet
  facet normal -0.982287 -0.187384 0
    outer loop
      vertex 6.07587 3.35731 39
      vertex 6.39355 1.692 0
      vertex 6.39355 1.692 39
    endloop
  endfacet
  facet normal -0.951059 -0.309008 0
    outer loop
      vertex 6.07587 3.35731 0
      vertex 6.00477 3.57614 39
      vertex 6.00477 3.57614 0
    endloop
  endfacet
  facet normal -0.951059 -0.309008 0
    outer loop
      vertex 6.00477 3.57614 39
      vertex 6.07587 3.35731 0
      vertex 6.07587 3.35731 39
    endloop
  endfacet
  facet normal -0.982287 0.187384 0
    outer loop
      vertex 6.07587 -3.35731 0
      vertex 6.39355 -1.692 39
      vertex 6.39355 -1.692 0
    endloop
  endfacet
  facet normal -0.982287 0.187384 0
    outer loop
      vertex 6.39355 -1.692 39
      vertex 6.07587 -3.35731 0
      vertex 6.07587 -3.35731 39
    endloop
  endfacet
  facet normal -0.998027 0.0627896 0
    outer loop
      vertex 6.39355 -1.692 0
      vertex 6.5 0 39
      vertex 6.5 0 0
    endloop
  endfacet
  facet normal -0.998027 0.0627896 0
    outer loop
      vertex 6.5 0 39
      vertex 6.39355 -1.692 0
      vertex 6.39355 -1.692 39
    endloop
  endfacet
endsolid OpenSCAD_Model
