solid OpenSCAD_Model
  facet normal 0.998026 0.062808 0
    outer loop
      vertex 16 0 0
      vertex 15.8738 2.00533 -4
      vertex 15.8738 2.00533 0
    endloop
  endfacet
  facet normal 0.998026 0.062808 0
    outer loop
      vertex 15.8738 2.00533 -4
      vertex 16 0 0
      vertex 16 0 -4
    endloop
  endfacet
  facet normal -0.998026 0.062808 0
    outer loop
      vertex -16 0 -4
      vertex -15.8738 2.00533 0
      vertex -15.8738 2.00533 -4
    endloop
  endfacet
  facet normal -0.998026 0.062808 0
    outer loop
      vertex -15.8738 2.00533 0
      vertex -16 0 -4
      vertex -16 0 0
    endloop
  endfacet
  facet normal 0 1 -0
    outer loop
      vertex 1.00465 15.9684 -4
      vertex -1.00465 15.9684 0
      vertex 1.00465 15.9684 0
    endloop
  endfacet
  facet normal 0 1 0
    outer loop
      vertex -1.00465 15.9684 0
      vertex 1.00465 15.9684 -4
      vertex -1.00465 15.9684 -4
    endloop
  endfacet
  facet normal 0 -1 0
    outer loop
      vertex -1.00465 -15.9684 -4
      vertex 1.00465 -15.9684 0
      vertex -1.00465 -15.9684 0
    endloop
  endfacet
  facet normal 0 -1 -0
    outer loop
      vertex 1.00465 -15.9684 0
      vertex -1.00465 -15.9684 -4
      vertex 1.00465 -15.9684 -4
    endloop
  endfacet
  facet normal 0.684535 0.72898 -0
    outer loop
      vertex 11.6635 10.9528 -4
      vertex 10.1988 12.3282 0
      vertex 11.6635 10.9528 0
    endloop
  endfacet
  facet normal 0.684535 0.72898 0
    outer loop
      vertex 10.1988 12.3282 0
      vertex 11.6635 10.9528 -4
      vertex 10.1988 12.3282 -4
    endloop
  endfacet
  facet normal -0.684535 0.72898 0
    outer loop
      vertex -10.1988 12.3282 -4
      vertex -11.6635 10.9528 0
      vertex -10.1988 12.3282 0
    endloop
  endfacet
  facet normal -0.684535 0.72898 0
    outer loop
      vertex -11.6635 10.9528 0
      vertex -10.1988 12.3282 -4
      vertex -11.6635 10.9528 -4
    endloop
  endfacet
  facet normal -0.368136 0.929772 0
    outer loop
      vertex -4.94427 15.2169 -4
      vertex -6.81247 14.4772 0
      vertex -4.94427 15.2169 0
    endloop
  endfacet
  facet normal -0.368136 0.929772 0
    outer loop
      vertex -6.81247 14.4772 0
      vertex -4.94427 15.2169 -4
      vertex -6.81247 14.4772 -4
    endloop
  endfacet
  facet normal 0.904831 0.425772 0
    outer loop
      vertex 14.8764 5.88999 0
      vertex 14.0209 7.70806 -4
      vertex 14.0209 7.70806 0
    endloop
  endfacet
  facet normal 0.904831 0.425772 0
    outer loop
      vertex 14.0209 7.70806 -4
      vertex 14.8764 5.88999 0
      vertex 14.8764 5.88999 -4
    endloop
  endfacet
  facet normal 0.368136 0.929772 -0
    outer loop
      vertex 6.81247 14.4772 -4
      vertex 4.94427 15.2169 0
      vertex 6.81247 14.4772 0
    endloop
  endfacet
  facet normal 0.368136 0.929772 0
    outer loop
      vertex 4.94427 15.2169 0
      vertex 6.81247 14.4772 -4
      vertex 4.94427 15.2169 -4
    endloop
  endfacet
  facet normal 0.248694 0.968582 -0
    outer loop
      vertex 4.94427 15.2169 -4
      vertex 2.9981 15.7166 0
      vertex 4.94427 15.2169 0
    endloop
  endfacet
  facet normal 0.248694 0.968582 0
    outer loop
      vertex 2.9981 15.7166 0
      vertex 4.94427 15.2169 -4
      vertex 2.9981 15.7166 -4
    endloop
  endfacet
  facet normal 0.481759 0.876304 -0
    outer loop
      vertex 8.57323 13.5092 -4
      vertex 6.81247 14.4772 0
      vertex 8.57323 13.5092 0
    endloop
  endfacet
  facet normal 0.481759 0.876304 0
    outer loop
      vertex 6.81247 14.4772 0
      vertex 8.57323 13.5092 -4
      vertex 6.81247 14.4772 -4
    endloop
  endfacet
  facet normal -0.904831 0.425772 0
    outer loop
      vertex -14.8764 5.88999 -4
      vertex -14.0209 7.70806 0
      vertex -14.0209 7.70806 -4
    endloop
  endfacet
  facet normal -0.904831 0.425772 0
    outer loop
      vertex -14.0209 7.70806 0
      vertex -14.8764 5.88999 -4
      vertex -14.8764 5.88999 0
    endloop
  endfacet
  facet normal -0.951057 0.309015 0
    outer loop
      vertex -15.4973 3.97904 -4
      vertex -14.8764 5.88999 0
      vertex -14.8764 5.88999 -4
    endloop
  endfacet
  facet normal -0.951057 0.309015 0
    outer loop
      vertex -14.8764 5.88999 0
      vertex -15.4973 3.97904 -4
      vertex -15.4973 3.97904 0
    endloop
  endfacet
  facet normal -0.125318 0.992117 0
    outer loop
      vertex -1.00465 15.9684 -4
      vertex -2.9981 15.7166 0
      vertex -1.00465 15.9684 0
    endloop
  endfacet
  facet normal -0.125318 0.992117 0
    outer loop
      vertex -2.9981 15.7166 0
      vertex -1.00465 15.9684 -4
      vertex -2.9981 15.7166 -4
    endloop
  endfacet
  facet normal 0.125318 -0.992117 0
    outer loop
      vertex 1.00465 -15.9684 -4
      vertex 2.9981 -15.7166 0
      vertex 1.00465 -15.9684 0
    endloop
  endfacet
  facet normal 0.125318 -0.992117 0
    outer loop
      vertex 2.9981 -15.7166 0
      vertex 1.00465 -15.9684 -4
      vertex 2.9981 -15.7166 -4
    endloop
  endfacet
  facet normal 0.951057 0.309015 0
    outer loop
      vertex 15.4973 3.97904 0
      vertex 14.8764 5.88999 -4
      vertex 14.8764 5.88999 0
    endloop
  endfacet
  facet normal 0.951057 0.309015 0
    outer loop
      vertex 14.8764 5.88999 -4
      vertex 15.4973 3.97904 0
      vertex 15.4973 3.97904 -4
    endloop
  endfacet
  facet normal 0.982288 0.187379 0
    outer loop
      vertex 15.8738 2.00533 0
      vertex 15.4973 3.97904 -4
      vertex 15.4973 3.97904 0
    endloop
  endfacet
  facet normal 0.982288 0.187379 0
    outer loop
      vertex 15.4973 3.97904 -4
      vertex 15.8738 2.00533 0
      vertex 15.8738 2.00533 -4
    endloop
  endfacet
  facet normal 0.770517 0.637419 0
    outer loop
      vertex 12.9443 9.40456 0
      vertex 11.6635 10.9528 -4
      vertex 11.6635 10.9528 0
    endloop
  endfacet
  facet normal 0.770517 0.637419 0
    outer loop
      vertex 11.6635 10.9528 -4
      vertex 12.9443 9.40456 0
      vertex 12.9443 9.40456 -4
    endloop
  endfacet
  facet normal 0.844335 0.535816 0
    outer loop
      vertex 14.0209 7.70806 0
      vertex 12.9443 9.40456 -4
      vertex 12.9443 9.40456 0
    endloop
  endfacet
  facet normal 0.844335 0.535816 0
    outer loop
      vertex 12.9443 9.40456 -4
      vertex 14.0209 7.70806 0
      vertex 14.0209 7.70806 -4
    endloop
  endfacet
  facet normal 0.125318 0.992117 -0
    outer loop
      vertex 2.9981 15.7166 -4
      vertex 1.00465 15.9684 0
      vertex 2.9981 15.7166 0
    endloop
  endfacet
  facet normal 0.125318 0.992117 0
    outer loop
      vertex 1.00465 15.9684 0
      vertex 2.9981 15.7166 -4
      vertex 1.00465 15.9684 -4
    endloop
  endfacet
  facet normal 0.58777 0.809028 -0
    outer loop
      vertex 10.1988 12.3282 -4
      vertex 8.57323 13.5092 0
      vertex 10.1988 12.3282 0
    endloop
  endfacet
  facet normal 0.58777 0.809028 0
    outer loop
      vertex 8.57323 13.5092 0
      vertex 10.1988 12.3282 -4
      vertex 8.57323 13.5092 -4
    endloop
  endfacet
  facet normal -0.844335 0.535816 0
    outer loop
      vertex -14.0209 7.70806 -4
      vertex -12.9443 9.40456 0
      vertex -12.9443 9.40456 -4
    endloop
  endfacet
  facet normal -0.844335 0.535816 0
    outer loop
      vertex -12.9443 9.40456 0
      vertex -14.0209 7.70806 -4
      vertex -14.0209 7.70806 0
    endloop
  endfacet
  facet normal -0.770517 0.637419 0
    outer loop
      vertex -12.9443 9.40456 -4
      vertex -11.6635 10.9528 0
      vertex -11.6635 10.9528 -4
    endloop
  endfacet
  facet normal -0.770517 0.637419 0
    outer loop
      vertex -11.6635 10.9528 0
      vertex -12.9443 9.40456 -4
      vertex -12.9443 9.40456 0
    endloop
  endfacet
  facet normal -0.982288 0.187379 0
    outer loop
      vertex -15.8738 2.00533 -4
      vertex -15.4973 3.97904 0
      vertex -15.4973 3.97904 -4
    endloop
  endfacet
  facet normal -0.982288 0.187379 0
    outer loop
      vertex -15.4973 3.97904 0
      vertex -15.8738 2.00533 -4
      vertex -15.8738 2.00533 0
    endloop
  endfacet
  facet normal 0 0 1
    outer loop
      vertex 15.1 0 0
      vertex 16 0 0
      vertex 15.8738 2.00533 0
    endloop
  endfacet
  facet normal 0 0 1
    outer loop
      vertex 14.9809 1.89253 0
      vertex 15.8738 2.00533 0
      vertex 15.4973 3.97904 0
    endloop
  endfacet
  facet normal 0 0 1
    outer loop
      vertex 16 0 0
      vertex 15.1 0 0
      vertex 15.8738 -2.00533 0
    endloop
  endfacet
  facet normal -0 0 1
    outer loop
      vertex 14.9809 -1.89253 0
      vertex 15.8738 -2.00533 0
      vertex 15.1 0 0
    endloop
  endfacet
  facet normal 0 0 1
    outer loop
      vertex 15.8738 2.00533 0
      vertex 14.9809 1.89253 0
      vertex 15.1 0 0
    endloop
  endfacet
  facet normal 0 0 1
    outer loop
      vertex 14.6256 3.75522 0
      vertex 15.4973 3.97904 0
      vertex 14.8764 5.88999 0
    endloop
  endfacet
  facet normal 0 0 1
    outer loop
      vertex 15.4973 3.97904 0
      vertex 14.6256 3.75522 0
      vertex 14.9809 1.89253 0
    endloop
  endfacet
  facet normal 0 0 1
    outer loop
      vertex 14.8764 5.88999 0
      vertex 14.0396 5.55868 0
      vertex 14.6256 3.75522 0
    endloop
  endfacet
  facet normal 0 0 1
    outer loop
      vertex 14.0209 7.70806 0
      vertex 14.0396 5.55868 0
      vertex 14.8764 5.88999 0
    endloop
  endfacet
  facet normal 0 0 1
    outer loop
      vertex 14.0209 7.70806 0
      vertex 13.2322 7.27448 0
      vertex 14.0396 5.55868 0
    endloop
  endfacet
  facet normal 0 0 1
    outer loop
      vertex 12.9443 9.40456 0
      vertex 13.2322 7.27448 0
      vertex 14.0209 7.70806 0
    endloop
  endfacet
  facet normal 0 0 1
    outer loop
      vertex 12.9443 9.40456 0
      vertex 12.2162 8.87556 0
      vertex 13.2322 7.27448 0
    endloop
  endfacet
  facet normal 0 0 1
    outer loop
      vertex 11.6635 10.9528 0
      vertex 12.2162 8.87556 0
      vertex 12.9443 9.40456 0
    endloop
  endfacet
  facet normal 0 0 1
    outer loop
      vertex 11.6635 10.9528 0
      vertex 11.0074 10.3367 0
      vertex 12.2162 8.87556 0
    endloop
  endfacet
  facet normal 0 0 1
    outer loop
      vertex 10.1988 12.3282 0
      vertex 11.0074 10.3367 0
      vertex 11.6635 10.9528 0
    endloop
  endfacet
  facet normal 0 0 1
    outer loop
      vertex 10.1988 12.3282 0
      vertex 9.6251 11.6347 0
      vertex 11.0074 10.3367 0
    endloop
  endfacet
  facet normal 0 0 1
    outer loop
      vertex 8.57323 13.5092 0
      vertex 9.6251 11.6347 0
      vertex 10.1988 12.3282 0
    endloop
  endfacet
  facet normal 0 0 1
    outer loop
      vertex 8.57323 13.5092 0
      vertex 8.09098 12.7494 0
      vertex 9.6251 11.6347 0
    endloop
  endfacet
  facet normal 0 0 1
    outer loop
      vertex 6.81247 14.4772 0
      vertex 8.09098 12.7494 0
      vertex 8.57323 13.5092 0
    endloop
  endfacet
  facet normal 0 0 1
    outer loop
      vertex 6.81247 14.4772 0
      vertex 6.42927 13.6629 0
      vertex 8.09098 12.7494 0
    endloop
  endfacet
  facet normal 0 0 1
    outer loop
      vertex 4.94427 15.2169 0
      vertex 6.42927 13.6629 0
      vertex 6.81247 14.4772 0
    endloop
  endfacet
  facet normal 0 0 1
    outer loop
      vertex 4.94427 15.2169 0
      vertex 4.66616 14.361 0
      vertex 6.42927 13.6629 0
    endloop
  endfacet
  facet normal 0 0 1
    outer loop
      vertex 2.9981 15.7166 0
      vertex 4.66616 14.361 0
      vertex 4.94427 15.2169 0
    endloop
  endfacet
  facet normal 0 0 1
    outer loop
      vertex 2.9981 15.7166 0
      vertex 2.82946 14.8325 0
      vertex 4.66616 14.361 0
    endloop
  endfacet
  facet normal 0 0 1
    outer loop
      vertex 1.00465 15.9684 0
      vertex 2.82946 14.8325 0
      vertex 2.9981 15.7166 0
    endloop
  endfacet
  facet normal 0 0 1
    outer loop
      vertex 1.00465 15.9684 0
      vertex 0.948136 15.0702 0
      vertex 2.82946 14.8325 0
    endloop
  endfacet
  facet normal 0 0 1
    outer loop
      vertex 1.00465 15.9684 0
      vertex -0.948136 15.0702 0
      vertex 0.948136 15.0702 0
    endloop
  endfacet
  facet normal -0 0 1
    outer loop
      vertex -1.00465 15.9684 0
      vertex -0.948136 15.0702 0
      vertex 1.00465 15.9684 0
    endloop
  endfacet
  facet normal 0 0 1
    outer loop
      vertex -1.00465 15.9684 0
      vertex -2.82946 14.8325 0
      vertex -0.948136 15.0702 0
    endloop
  endfacet
  facet normal -0 0 1
    outer loop
      vertex -2.9981 15.7166 0
      vertex -2.82946 14.8325 0
      vertex -1.00465 15.9684 0
    endloop
  endfacet
  facet normal 0 0 1
    outer loop
      vertex -2.9981 15.7166 0
      vertex -4.66616 14.361 0
      vertex -2.82946 14.8325 0
    endloop
  endfacet
  facet normal -0 0 1
    outer loop
      vertex -4.94427 15.2169 0
      vertex -4.66616 14.361 0
      vertex -2.9981 15.7166 0
    endloop
  endfacet
  facet normal 0 0 1
    outer loop
      vertex -4.94427 15.2169 0
      vertex -6.42927 13.6629 0
      vertex -4.66616 14.361 0
    endloop
  endfacet
  facet normal -0 0 1
    outer loop
      vertex -6.81247 14.4772 0
      vertex -6.42927 13.6629 0
      vertex -4.94427 15.2169 0
    endloop
  endfacet
  facet normal 0 0 1
    outer loop
      vertex -6.81247 14.4772 0
      vertex -8.09098 12.7494 0
      vertex -6.42927 13.6629 0
    endloop
  endfacet
  facet normal -0 0 1
    outer loop
      vertex -8.57323 13.5092 0
      vertex -8.09098 12.7494 0
      vertex -6.81247 14.4772 0
    endloop
  endfacet
  facet normal 0 0 1
    outer loop
      vertex -8.57323 13.5092 0
      vertex -9.6251 11.6347 0
      vertex -8.09098 12.7494 0
    endloop
  endfacet
  facet normal -0 0 1
    outer loop
      vertex -10.1988 12.3282 0
      vertex -9.6251 11.6347 0
      vertex -8.57323 13.5092 0
    endloop
  endfacet
  facet normal 0 0 1
    outer loop
      vertex -10.1988 12.3282 0
      vertex -11.0074 10.3367 0
      vertex -9.6251 11.6347 0
    endloop
  endfacet
  facet normal -0 0 1
    outer loop
      vertex -11.6635 10.9528 0
      vertex -11.0074 10.3367 0
      vertex -10.1988 12.3282 0
    endloop
  endfacet
  facet normal 0 0 1
    outer loop
      vertex -11.6635 10.9528 0
      vertex -12.2162 8.87556 0
      vertex -11.0074 10.3367 0
    endloop
  endfacet
  facet normal -0 0 1
    outer loop
      vertex -12.9443 9.40456 0
      vertex -12.2162 8.87556 0
      vertex -11.6635 10.9528 0
    endloop
  endfacet
  facet normal 0 0 1
    outer loop
      vertex -12.9443 9.40456 0
      vertex -13.2322 7.27448 0
      vertex -12.2162 8.87556 0
    endloop
  endfacet
  facet normal -0 0 1
    outer loop
      vertex -14.0209 7.70806 0
      vertex -13.2322 7.27448 0
      vertex -12.9443 9.40456 0
    endloop
  endfacet
  facet normal 0 0 1
    outer loop
      vertex -14.0209 7.70806 0
      vertex -14.0396 5.55868 0
      vertex -13.2322 7.27448 0
    endloop
  endfacet
  facet normal -0 0 1
    outer loop
      vertex -14.8764 5.88999 0
      vertex -14.0396 5.55868 0
      vertex -14.0209 7.70806 0
    endloop
  endfacet
  facet normal 0 0 1
    outer loop
      vertex -14.0396 5.55868 0
      vertex -14.8764 5.88999 0
      vertex -14.6256 3.75522 0
    endloop
  endfacet
  facet normal -0 0 1
    outer loop
      vertex -15.4973 3.97904 0
      vertex -14.6256 3.75522 0
      vertex -14.8764 5.88999 0
    endloop
  endfacet
  facet normal 0 0 1
    outer loop
      vertex -14.6256 3.75522 0
      vertex -15.4973 3.97904 0
      vertex -14.9809 1.89253 0
    endloop
  endfacet
  facet normal -0 0 1
    outer loop
      vertex -15.8738 2.00533 0
      vertex -14.9809 1.89253 0
      vertex -15.4973 3.97904 0
    endloop
  endfacet
  facet normal 0 0 1
    outer loop
      vertex 15.8738 -2.00533 0
      vertex 14.9809 -1.89253 0
      vertex 15.4973 -3.97904 0
    endloop
  endfacet
  facet normal -0 0 1
    outer loop
      vertex 14.6256 -3.75522 0
      vertex 15.4973 -3.97904 0
      vertex 14.9809 -1.89253 0
    endloop
  endfacet
  facet normal 0 0 1
    outer loop
      vertex 15.4973 -3.97904 0
      vertex 14.6256 -3.75522 0
      vertex 14.8764 -5.88999 0
    endloop
  endfacet
  facet normal -0 0 1
    outer loop
      vertex 14.0396 -5.55868 0
      vertex 14.8764 -5.88999 0
      vertex 14.6256 -3.75522 0
    endloop
  endfacet
  facet normal 0 0 1
    outer loop
      vertex 14.0396 -5.55868 0
      vertex 14.0209 -7.70806 0
      vertex 14.8764 -5.88999 0
    endloop
  endfacet
  facet normal -0 0 1
    outer loop
      vertex 13.2322 -7.27448 0
      vertex 14.0209 -7.70806 0
      vertex 14.0396 -5.55868 0
    endloop
  endfacet
  facet normal 0 0 1
    outer loop
      vertex 13.2322 -7.27448 0
      vertex 12.9443 -9.40456 0
      vertex 14.0209 -7.70806 0
    endloop
  endfacet
  facet normal -0 0 1
    outer loop
      vertex 12.2162 -8.87556 0
      vertex 12.9443 -9.40456 0
      vertex 13.2322 -7.27448 0
    endloop
  endfacet
  facet normal 0 0 1
    outer loop
      vertex 12.2162 -8.87556 0
      vertex 11.6635 -10.9528 0
      vertex 12.9443 -9.40456 0
    endloop
  endfacet
  facet normal -0 0 1
    outer loop
      vertex 11.0074 -10.3367 0
      vertex 11.6635 -10.9528 0
      vertex 12.2162 -8.87556 0
    endloop
  endfacet
  facet normal 0 0 1
    outer loop
      vertex 11.0074 -10.3367 0
      vertex 10.1988 -12.3282 0
      vertex 11.6635 -10.9528 0
    endloop
  endfacet
  facet normal -0 0 1
    outer loop
      vertex 9.6251 -11.6347 0
      vertex 10.1988 -12.3282 0
      vertex 11.0074 -10.3367 0
    endloop
  endfacet
  facet normal 0 0 1
    outer loop
      vertex 9.6251 -11.6347 0
      vertex 8.57323 -13.5092 0
      vertex 10.1988 -12.3282 0
    endloop
  endfacet
  facet normal -0 0 1
    outer loop
      vertex 8.09098 -12.7494 0
      vertex 8.57323 -13.5092 0
      vertex 9.6251 -11.6347 0
    endloop
  endfacet
  facet normal 0 0 1
    outer loop
      vertex 8.09098 -12.7494 0
      vertex 6.81247 -14.4772 0
      vertex 8.57323 -13.5092 0
    endloop
  endfacet
  facet normal -0 0 1
    outer loop
      vertex 6.42927 -13.6629 0
      vertex 6.81247 -14.4772 0
      vertex 8.09098 -12.7494 0
    endloop
  endfacet
  facet normal 0 0 1
    outer loop
      vertex 6.42927 -13.6629 0
      vertex 4.94427 -15.2169 0
      vertex 6.81247 -14.4772 0
    endloop
  endfacet
  facet normal -0 0 1
    outer loop
      vertex 4.66616 -14.361 0
      vertex 4.94427 -15.2169 0
      vertex 6.42927 -13.6629 0
    endloop
  endfacet
  facet normal 0 0 1
    outer loop
      vertex 4.66616 -14.361 0
      vertex 2.9981 -15.7166 0
      vertex 4.94427 -15.2169 0
    endloop
  endfacet
  facet normal -0 0 1
    outer loop
      vertex 2.82946 -14.8325 0
      vertex 2.9981 -15.7166 0
      vertex 4.66616 -14.361 0
    endloop
  endfacet
  facet normal 0 0 1
    outer loop
      vertex 2.82946 -14.8325 0
      vertex 1.00465 -15.9684 0
      vertex 2.9981 -15.7166 0
    endloop
  endfacet
  facet normal -0 0 1
    outer loop
      vertex 0.948136 -15.0702 0
      vertex 1.00465 -15.9684 0
      vertex 2.82946 -14.8325 0
    endloop
  endfacet
  facet normal -0 0 1
    outer loop
      vertex -0.948136 -15.0702 0
      vertex 1.00465 -15.9684 0
      vertex 0.948136 -15.0702 0
    endloop
  endfacet
  facet normal 0 0 1
    outer loop
      vertex -0.948136 -15.0702 0
      vertex -1.00465 -15.9684 0
      vertex 1.00465 -15.9684 0
    endloop
  endfacet
  facet normal 0 0 1
    outer loop
      vertex -2.82946 -14.8325 0
      vertex -1.00465 -15.9684 0
      vertex -0.948136 -15.0702 0
    endloop
  endfacet
  facet normal 0 0 1
    outer loop
      vertex -2.82946 -14.8325 0
      vertex -2.9981 -15.7166 0
      vertex -1.00465 -15.9684 0
    endloop
  endfacet
  facet normal 0 0 1
    outer loop
      vertex -4.66616 -14.361 0
      vertex -2.9981 -15.7166 0
      vertex -2.82946 -14.8325 0
    endloop
  endfacet
  facet normal 0 0 1
    outer loop
      vertex -4.66616 -14.361 0
      vertex -4.94427 -15.2169 0
      vertex -2.9981 -15.7166 0
    endloop
  endfacet
  facet normal 0 0 1
    outer loop
      vertex -6.42927 -13.6629 0
      vertex -4.94427 -15.2169 0
      vertex -4.66616 -14.361 0
    endloop
  endfacet
  facet normal 0 0 1
    outer loop
      vertex -6.42927 -13.6629 0
      vertex -6.81247 -14.4772 0
      vertex -4.94427 -15.2169 0
    endloop
  endfacet
  facet normal 0 0 1
    outer loop
      vertex -8.09098 -12.7494 0
      vertex -6.81247 -14.4772 0
      vertex -6.42927 -13.6629 0
    endloop
  endfacet
  facet normal 0 0 1
    outer loop
      vertex -8.09098 -12.7494 0
      vertex -8.57323 -13.5092 0
      vertex -6.81247 -14.4772 0
    endloop
  endfacet
  facet normal 0 0 1
    outer loop
      vertex -9.6251 -11.6347 0
      vertex -8.57323 -13.5092 0
      vertex -8.09098 -12.7494 0
    endloop
  endfacet
  facet normal 0 0 1
    outer loop
      vertex -9.6251 -11.6347 0
      vertex -10.1988 -12.3282 0
      vertex -8.57323 -13.5092 0
    endloop
  endfacet
  facet normal 0 0 1
    outer loop
      vertex -11.0074 -10.3367 0
      vertex -10.1988 -12.3282 0
      vertex -9.6251 -11.6347 0
    endloop
  endfacet
  facet normal 0 0 1
    outer loop
      vertex -11.0074 -10.3367 0
      vertex -11.6635 -10.9528 0
      vertex -10.1988 -12.3282 0
    endloop
  endfacet
  facet normal 0 0 1
    outer loop
      vertex -12.2162 -8.87556 0
      vertex -11.6635 -10.9528 0
      vertex -11.0074 -10.3367 0
    endloop
  endfacet
  facet normal 0 0 1
    outer loop
      vertex -12.2162 -8.87556 0
      vertex -12.9443 -9.40456 0
      vertex -11.6635 -10.9528 0
    endloop
  endfacet
  facet normal 0 0 1
    outer loop
      vertex -13.2322 -7.27448 0
      vertex -12.9443 -9.40456 0
      vertex -12.2162 -8.87556 0
    endloop
  endfacet
  facet normal 0 0 1
    outer loop
      vertex -13.2322 -7.27448 0
      vertex -14.0209 -7.70806 0
      vertex -12.9443 -9.40456 0
    endloop
  endfacet
  facet normal 0 0 1
    outer loop
      vertex -14.0396 -5.55868 0
      vertex -14.0209 -7.70806 0
      vertex -13.2322 -7.27448 0
    endloop
  endfacet
  facet normal 0 0 1
    outer loop
      vertex -14.8764 -5.88999 0
      vertex -14.0396 -5.55868 0
      vertex -14.6256 -3.75522 0
    endloop
  endfacet
  facet normal 0 0 1
    outer loop
      vertex -14.0396 -5.55868 0
      vertex -14.8764 -5.88999 0
      vertex -14.0209 -7.70806 0
    endloop
  endfacet
  facet normal 0 0 1
    outer loop
      vertex -15.4973 -3.97904 0
      vertex -14.6256 -3.75522 0
      vertex -14.9809 -1.89253 0
    endloop
  endfacet
  facet normal 0 0 1
    outer loop
      vertex -15.8738 -2.00533 0
      vertex -14.9809 -1.89253 0
      vertex -15.1 0 0
    endloop
  endfacet
  facet normal 0 0 1
    outer loop
      vertex -14.9809 1.89253 0
      vertex -15.8738 2.00533 0
      vertex -15.1 0 0
    endloop
  endfacet
  facet normal 0 0 1
    outer loop
      vertex -14.6256 -3.75522 0
      vertex -15.4973 -3.97904 0
      vertex -14.8764 -5.88999 0
    endloop
  endfacet
  facet normal 0 0 1
    outer loop
      vertex -16 0 0
      vertex -15.1 0 0
      vertex -15.8738 2.00533 0
    endloop
  endfacet
  facet normal 0 0 1
    outer loop
      vertex -14.9809 -1.89253 0
      vertex -15.8738 -2.00533 0
      vertex -15.4973 -3.97904 0
    endloop
  endfacet
  facet normal 0 0 1
    outer loop
      vertex -15.1 0 0
      vertex -16 0 0
      vertex -15.8738 -2.00533 0
    endloop
  endfacet
  facet normal -0.481759 0.876304 0
    outer loop
      vertex -6.81247 14.4772 -4
      vertex -8.57323 13.5092 0
      vertex -6.81247 14.4772 0
    endloop
  endfacet
  facet normal -0.481759 0.876304 0
    outer loop
      vertex -8.57323 13.5092 0
      vertex -6.81247 14.4772 -4
      vertex -8.57323 13.5092 -4
    endloop
  endfacet
  facet normal -0.58777 0.809028 0
    outer loop
      vertex -8.57323 13.5092 -4
      vertex -10.1988 12.3282 0
      vertex -8.57323 13.5092 0
    endloop
  endfacet
  facet normal -0.58777 0.809028 0
    outer loop
      vertex -10.1988 12.3282 0
      vertex -8.57323 13.5092 -4
      vertex -10.1988 12.3282 -4
    endloop
  endfacet
  facet normal -0.248694 0.968582 0
    outer loop
      vertex -2.9981 15.7166 -4
      vertex -4.94427 15.2169 0
      vertex -2.9981 15.7166 0
    endloop
  endfacet
  facet normal -0.248694 0.968582 0
    outer loop
      vertex -4.94427 15.2169 0
      vertex -2.9981 15.7166 -4
      vertex -4.94427 15.2169 -4
    endloop
  endfacet
  facet normal 0.998026 -0.062808 0
    outer loop
      vertex 15.8738 -2.00533 0
      vertex 16 0 -4
      vertex 16 0 0
    endloop
  endfacet
  facet normal 0.998026 -0.062808 0
    outer loop
      vertex 16 0 -4
      vertex 15.8738 -2.00533 0
      vertex 15.8738 -2.00533 -4
    endloop
  endfacet
  facet normal 0.904831 -0.425772 0
    outer loop
      vertex 14.0209 -7.70806 0
      vertex 14.8764 -5.88999 -4
      vertex 14.8764 -5.88999 0
    endloop
  endfacet
  facet normal 0.904831 -0.425772 0
    outer loop
      vertex 14.8764 -5.88999 -4
      vertex 14.0209 -7.70806 0
      vertex 14.0209 -7.70806 -4
    endloop
  endfacet
  facet normal -0.684535 -0.72898 0
    outer loop
      vertex -11.6635 -10.9528 -4
      vertex -10.1988 -12.3282 0
      vertex -11.6635 -10.9528 0
    endloop
  endfacet
  facet normal -0.684535 -0.72898 -0
    outer loop
      vertex -10.1988 -12.3282 0
      vertex -11.6635 -10.9528 -4
      vertex -10.1988 -12.3282 -4
    endloop
  endfacet
  facet normal -0.904831 -0.425772 0
    outer loop
      vertex -14.0209 -7.70806 -4
      vertex -14.8764 -5.88999 0
      vertex -14.8764 -5.88999 -4
    endloop
  endfacet
  facet normal -0.904831 -0.425772 0
    outer loop
      vertex -14.8764 -5.88999 0
      vertex -14.0209 -7.70806 -4
      vertex -14.0209 -7.70806 0
    endloop
  endfacet
  facet normal -0.844335 -0.535816 0
    outer loop
      vertex -12.9443 -9.40456 -4
      vertex -14.0209 -7.70806 0
      vertex -14.0209 -7.70806 -4
    endloop
  endfacet
  facet normal -0.844335 -0.535816 0
    outer loop
      vertex -14.0209 -7.70806 0
      vertex -12.9443 -9.40456 -4
      vertex -12.9443 -9.40456 0
    endloop
  endfacet
  facet normal 0 0 -1
    outer loop
      vertex 15.8738 -2.00533 -4
      vertex 15.8738 2.00533 -4
      vertex 16 0 -4
    endloop
  endfacet
  facet normal 0 0 -1
    outer loop
      vertex 15.4973 -3.97904 -4
      vertex 15.8738 2.00533 -4
      vertex 15.8738 -2.00533 -4
    endloop
  endfacet
  facet normal 0 0 -1
    outer loop
      vertex 15.4973 -3.97904 -4
      vertex 15.4973 3.97904 -4
      vertex 15.8738 2.00533 -4
    endloop
  endfacet
  facet normal 0 0 -1
    outer loop
      vertex 14.8764 -5.88999 -4
      vertex 15.4973 3.97904 -4
      vertex 15.4973 -3.97904 -4
    endloop
  endfacet
  facet normal 0 0 -1
    outer loop
      vertex 14.8764 -5.88999 -4
      vertex 14.8764 5.88999 -4
      vertex 15.4973 3.97904 -4
    endloop
  endfacet
  facet normal 0 0 -1
    outer loop
      vertex 14.0209 -7.70806 -4
      vertex 14.8764 5.88999 -4
      vertex 14.8764 -5.88999 -4
    endloop
  endfacet
  facet normal 0 0 -1
    outer loop
      vertex 14.0209 -7.70806 -4
      vertex 14.0209 7.70806 -4
      vertex 14.8764 5.88999 -4
    endloop
  endfacet
  facet normal 0 0 -1
    outer loop
      vertex 12.9443 -9.40456 -4
      vertex 14.0209 7.70806 -4
      vertex 14.0209 -7.70806 -4
    endloop
  endfacet
  facet normal 0 0 -1
    outer loop
      vertex 12.9443 -9.40456 -4
      vertex 12.9443 9.40456 -4
      vertex 14.0209 7.70806 -4
    endloop
  endfacet
  facet normal 0 0 -1
    outer loop
      vertex 11.6635 -10.9528 -4
      vertex 12.9443 9.40456 -4
      vertex 12.9443 -9.40456 -4
    endloop
  endfacet
  facet normal 0 0 -1
    outer loop
      vertex 11.6635 -10.9528 -4
      vertex 11.6635 10.9528 -4
      vertex 12.9443 9.40456 -4
    endloop
  endfacet
  facet normal 0 0 -1
    outer loop
      vertex 10.1988 -12.3282 -4
      vertex 11.6635 10.9528 -4
      vertex 11.6635 -10.9528 -4
    endloop
  endfacet
  facet normal 0 0 -1
    outer loop
      vertex 10.1988 -12.3282 -4
      vertex 10.1988 12.3282 -4
      vertex 11.6635 10.9528 -4
    endloop
  endfacet
  facet normal 0 0 -1
    outer loop
      vertex 8.57323 -13.5092 -4
      vertex 10.1988 12.3282 -4
      vertex 10.1988 -12.3282 -4
    endloop
  endfacet
  facet normal 0 0 -1
    outer loop
      vertex 8.57323 -13.5092 -4
      vertex 8.57323 13.5092 -4
      vertex 10.1988 12.3282 -4
    endloop
  endfacet
  facet normal 0 0 -1
    outer loop
      vertex 6.81247 -14.4772 -4
      vertex 8.57323 13.5092 -4
      vertex 8.57323 -13.5092 -4
    endloop
  endfacet
  facet normal 0 0 -1
    outer loop
      vertex 6.81247 -14.4772 -4
      vertex 6.81247 14.4772 -4
      vertex 8.57323 13.5092 -4
    endloop
  endfacet
  facet normal 0 0 -1
    outer loop
      vertex 4.94427 -15.2169 -4
      vertex 6.81247 14.4772 -4
      vertex 6.81247 -14.4772 -4
    endloop
  endfacet
  facet normal 0 0 -1
    outer loop
      vertex 4.94427 -15.2169 -4
      vertex 4.94427 15.2169 -4
      vertex 6.81247 14.4772 -4
    endloop
  endfacet
  facet normal 0 0 -1
    outer loop
      vertex 2.9981 -15.7166 -4
      vertex 4.94427 15.2169 -4
      vertex 4.94427 -15.2169 -4
    endloop
  endfacet
  facet normal 0 0 -1
    outer loop
      vertex 2.9981 -15.7166 -4
      vertex 2.9981 15.7166 -4
      vertex 4.94427 15.2169 -4
    endloop
  endfacet
  facet normal 0 0 -1
    outer loop
      vertex 1.00465 -15.9684 -4
      vertex 2.9981 15.7166 -4
      vertex 2.9981 -15.7166 -4
    endloop
  endfacet
  facet normal 0 0 -1
    outer loop
      vertex 1.00465 -15.9684 -4
      vertex 1.00465 15.9684 -4
      vertex 2.9981 15.7166 -4
    endloop
  endfacet
  facet normal 0 0 -1
    outer loop
      vertex -1.00465 -15.9684 -4
      vertex 1.00465 15.9684 -4
      vertex 1.00465 -15.9684 -4
    endloop
  endfacet
  facet normal 0 0 -1
    outer loop
      vertex -1.00465 -15.9684 -4
      vertex -1.00465 15.9684 -4
      vertex 1.00465 15.9684 -4
    endloop
  endfacet
  facet normal 0 0 -1
    outer loop
      vertex -2.9981 -15.7166 -4
      vertex -1.00465 15.9684 -4
      vertex -1.00465 -15.9684 -4
    endloop
  endfacet
  facet normal 0 0 -1
    outer loop
      vertex -2.9981 -15.7166 -4
      vertex -2.9981 15.7166 -4
      vertex -1.00465 15.9684 -4
    endloop
  endfacet
  facet normal 0 0 -1
    outer loop
      vertex -4.94427 -15.2169 -4
      vertex -2.9981 15.7166 -4
      vertex -2.9981 -15.7166 -4
    endloop
  endfacet
  facet normal 0 0 -1
    outer loop
      vertex -4.94427 -15.2169 -4
      vertex -4.94427 15.2169 -4
      vertex -2.9981 15.7166 -4
    endloop
  endfacet
  facet normal 0 0 -1
    outer loop
      vertex -6.81247 -14.4772 -4
      vertex -4.94427 15.2169 -4
      vertex -4.94427 -15.2169 -4
    endloop
  endfacet
  facet normal 0 0 -1
    outer loop
      vertex -6.81247 -14.4772 -4
      vertex -6.81247 14.4772 -4
      vertex -4.94427 15.2169 -4
    endloop
  endfacet
  facet normal 0 0 -1
    outer loop
      vertex -8.57323 -13.5092 -4
      vertex -6.81247 14.4772 -4
      vertex -6.81247 -14.4772 -4
    endloop
  endfacet
  facet normal 0 0 -1
    outer loop
      vertex -8.57323 -13.5092 -4
      vertex -8.57323 13.5092 -4
      vertex -6.81247 14.4772 -4
    endloop
  endfacet
  facet normal 0 0 -1
    outer loop
      vertex -10.1988 -12.3282 -4
      vertex -8.57323 13.5092 -4
      vertex -8.57323 -13.5092 -4
    endloop
  endfacet
  facet normal 0 0 -1
    outer loop
      vertex -10.1988 -12.3282 -4
      vertex -10.1988 12.3282 -4
      vertex -8.57323 13.5092 -4
    endloop
  endfacet
  facet normal 0 0 -1
    outer loop
      vertex -11.6635 -10.9528 -4
      vertex -10.1988 12.3282 -4
      vertex -10.1988 -12.3282 -4
    endloop
  endfacet
  facet normal 0 0 -1
    outer loop
      vertex -11.6635 -10.9528 -4
      vertex -11.6635 10.9528 -4
      vertex -10.1988 12.3282 -4
    endloop
  endfacet
  facet normal 0 0 -1
    outer loop
      vertex -12.9443 -9.40456 -4
      vertex -11.6635 10.9528 -4
      vertex -11.6635 -10.9528 -4
    endloop
  endfacet
  facet normal 0 0 -1
    outer loop
      vertex -12.9443 -9.40456 -4
      vertex -12.9443 9.40456 -4
      vertex -11.6635 10.9528 -4
    endloop
  endfacet
  facet normal 0 0 -1
    outer loop
      vertex -14.0209 -7.70806 -4
      vertex -12.9443 9.40456 -4
      vertex -12.9443 -9.40456 -4
    endloop
  endfacet
  facet normal 0 0 -1
    outer loop
      vertex -14.0209 -7.70806 -4
      vertex -14.0209 7.70806 -4
      vertex -12.9443 9.40456 -4
    endloop
  endfacet
  facet normal 0 0 -1
    outer loop
      vertex -14.8764 -5.88999 -4
      vertex -14.0209 7.70806 -4
      vertex -14.0209 -7.70806 -4
    endloop
  endfacet
  facet normal 0 0 -1
    outer loop
      vertex -14.8764 -5.88999 -4
      vertex -14.8764 5.88999 -4
      vertex -14.0209 7.70806 -4
    endloop
  endfacet
  facet normal 0 0 -1
    outer loop
      vertex -15.4973 -3.97904 -4
      vertex -14.8764 5.88999 -4
      vertex -14.8764 -5.88999 -4
    endloop
  endfacet
  facet normal 0 0 -1
    outer loop
      vertex -15.4973 -3.97904 -4
      vertex -15.4973 3.97904 -4
      vertex -14.8764 5.88999 -4
    endloop
  endfacet
  facet normal 0 0 -1
    outer loop
      vertex -15.8738 -2.00533 -4
      vertex -15.4973 3.97904 -4
      vertex -15.4973 -3.97904 -4
    endloop
  endfacet
  facet normal 0 0 -1
    outer loop
      vertex -15.8738 -2.00533 -4
      vertex -15.8738 2.00533 -4
      vertex -15.4973 3.97904 -4
    endloop
  endfacet
  facet normal 0 -0 -1
    outer loop
      vertex -15.8738 2.00533 -4
      vertex -15.8738 -2.00533 -4
      vertex -16 0 -4
    endloop
  endfacet
  facet normal 0.481759 -0.876304 0
    outer loop
      vertex 6.81247 -14.4772 -4
      vertex 8.57323 -13.5092 0
      vertex 6.81247 -14.4772 0
    endloop
  endfacet
  facet normal 0.481759 -0.876304 0
    outer loop
      vertex 8.57323 -13.5092 0
      vertex 6.81247 -14.4772 -4
      vertex 8.57323 -13.5092 -4
    endloop
  endfacet
  facet normal 0.951057 -0.309015 0
    outer loop
      vertex 14.8764 -5.88999 0
      vertex 15.4973 -3.97904 -4
      vertex 15.4973 -3.97904 0
    endloop
  endfacet
  facet normal 0.951057 -0.309015 0
    outer loop
      vertex 15.4973 -3.97904 -4
      vertex 14.8764 -5.88999 0
      vertex 14.8764 -5.88999 -4
    endloop
  endfacet
  facet normal -0.770517 -0.637419 0
    outer loop
      vertex -11.6635 -10.9528 -4
      vertex -12.9443 -9.40456 0
      vertex -12.9443 -9.40456 -4
    endloop
  endfacet
  facet normal -0.770517 -0.637419 0
    outer loop
      vertex -12.9443 -9.40456 0
      vertex -11.6635 -10.9528 -4
      vertex -11.6635 -10.9528 0
    endloop
  endfacet
  facet normal -0.951057 -0.309015 0
    outer loop
      vertex -14.8764 -5.88999 -4
      vertex -15.4973 -3.97904 0
      vertex -15.4973 -3.97904 -4
    endloop
  endfacet
  facet normal -0.951057 -0.309015 0
    outer loop
      vertex -15.4973 -3.97904 0
      vertex -14.8764 -5.88999 -4
      vertex -14.8764 -5.88999 0
    endloop
  endfacet
  facet normal 0.684535 -0.72898 0
    outer loop
      vertex 10.1988 -12.3282 -4
      vertex 11.6635 -10.9528 0
      vertex 10.1988 -12.3282 0
    endloop
  endfacet
  facet normal 0.684535 -0.72898 0
    outer loop
      vertex 11.6635 -10.9528 0
      vertex 10.1988 -12.3282 -4
      vertex 11.6635 -10.9528 -4
    endloop
  endfacet
  facet normal 0.368136 -0.929772 0
    outer loop
      vertex 4.94427 -15.2169 -4
      vertex 6.81247 -14.4772 0
      vertex 4.94427 -15.2169 0
    endloop
  endfacet
  facet normal 0.368136 -0.929772 0
    outer loop
      vertex 6.81247 -14.4772 0
      vertex 4.94427 -15.2169 -4
      vertex 6.81247 -14.4772 -4
    endloop
  endfacet
  facet normal 0.248694 -0.968582 0
    outer loop
      vertex 2.9981 -15.7166 -4
      vertex 4.94427 -15.2169 0
      vertex 2.9981 -15.7166 0
    endloop
  endfacet
  facet normal 0.248694 -0.968582 0
    outer loop
      vertex 4.94427 -15.2169 0
      vertex 2.9981 -15.7166 -4
      vertex 4.94427 -15.2169 -4
    endloop
  endfacet
  facet normal 0.982288 -0.187379 0
    outer loop
      vertex 15.4973 -3.97904 0
      vertex 15.8738 -2.00533 -4
      vertex 15.8738 -2.00533 0
    endloop
  endfacet
  facet normal 0.982288 -0.187379 0
    outer loop
      vertex 15.8738 -2.00533 -4
      vertex 15.4973 -3.97904 0
      vertex 15.4973 -3.97904 -4
    endloop
  endfacet
  facet normal 0.844335 -0.535816 0
    outer loop
      vertex 12.9443 -9.40456 0
      vertex 14.0209 -7.70806 -4
      vertex 14.0209 -7.70806 0
    endloop
  endfacet
  facet normal 0.844335 -0.535816 0
    outer loop
      vertex 14.0209 -7.70806 -4
      vertex 12.9443 -9.40456 0
      vertex 12.9443 -9.40456 -4
    endloop
  endfacet
  facet normal 0.770517 -0.637419 0
    outer loop
      vertex 11.6635 -10.9528 0
      vertex 12.9443 -9.40456 -4
      vertex 12.9443 -9.40456 0
    endloop
  endfacet
  facet normal 0.770517 -0.637419 0
    outer loop
      vertex 12.9443 -9.40456 -4
      vertex 11.6635 -10.9528 0
      vertex 11.6635 -10.9528 -4
    endloop
  endfacet
  facet normal -0.125318 -0.992117 0
    outer loop
      vertex -2.9981 -15.7166 -4
      vertex -1.00465 -15.9684 0
      vertex -2.9981 -15.7166 0
    endloop
  endfacet
  facet normal -0.125318 -0.992117 -0
    outer loop
      vertex -1.00465 -15.9684 0
      vertex -2.9981 -15.7166 -4
      vertex -1.00465 -15.9684 -4
    endloop
  endfacet
  facet normal -0.368136 -0.929772 0
    outer loop
      vertex -6.81247 -14.4772 -4
      vertex -4.94427 -15.2169 0
      vertex -6.81247 -14.4772 0
    endloop
  endfacet
  facet normal -0.368136 -0.929772 -0
    outer loop
      vertex -4.94427 -15.2169 0
      vertex -6.81247 -14.4772 -4
      vertex -4.94427 -15.2169 -4
    endloop
  endfacet
  facet normal -0.248694 -0.968582 0
    outer loop
      vertex -4.94427 -15.2169 -4
      vertex -2.9981 -15.7166 0
      vertex -4.94427 -15.2169 0
    endloop
  endfacet
  facet normal -0.248694 -0.968582 -0
    outer loop
      vertex -2.9981 -15.7166 0
      vertex -4.94427 -15.2169 -4
      vertex -2.9981 -15.7166 -4
    endloop
  endfacet
  facet normal -0.982288 -0.187379 0
    outer loop
      vertex -15.4973 -3.97904 -4
      vertex -15.8738 -2.00533 0
      vertex -15.8738 -2.00533 -4
    endloop
  endfacet
  facet normal -0.982288 -0.187379 0
    outer loop
      vertex -15.8738 -2.00533 0
      vertex -15.4973 -3.97904 -4
      vertex -15.4973 -3.97904 0
    endloop
  endfacet
  facet normal -0.998026 -0.062808 0
    outer loop
      vertex -15.8738 -2.00533 -4
      vertex -16 0 0
      vertex -16 0 -4
    endloop
  endfacet
  facet normal -0.998026 -0.062808 0
    outer loop
      vertex -16 0 0
      vertex -15.8738 -2.00533 -4
      vertex -15.8738 -2.00533 0
    endloop
  endfacet
  facet normal 0.58777 -0.809028 0
    outer loop
      vertex 8.57323 -13.5092 -4
      vertex 10.1988 -12.3282 0
      vertex 8.57323 -13.5092 0
    endloop
  endfacet
  facet normal 0.58777 -0.809028 0
    outer loop
      vertex 10.1988 -12.3282 0
      vertex 8.57323 -13.5092 -4
      vertex 10.1988 -12.3282 -4
    endloop
  endfacet
  facet normal -0.481759 -0.876304 0
    outer loop
      vertex -8.57323 -13.5092 -4
      vertex -6.81247 -14.4772 0
      vertex -8.57323 -13.5092 0
    endloop
  endfacet
  facet normal -0.481759 -0.876304 -0
    outer loop
      vertex -6.81247 -14.4772 0
      vertex -8.57323 -13.5092 -4
      vertex -6.81247 -14.4772 -4
    endloop
  endfacet
  facet normal -0.58777 -0.809028 0
    outer loop
      vertex -10.1988 -12.3282 -4
      vertex -8.57323 -13.5092 0
      vertex -10.1988 -12.3282 0
    endloop
  endfacet
  facet normal -0.58777 -0.809028 -0
    outer loop
      vertex -8.57323 -13.5092 0
      vertex -10.1988 -12.3282 -4
      vertex -8.57323 -13.5092 -4
    endloop
  endfacet
  facet normal -0.998026 -0.0628074 0
    outer loop
      vertex 15.1 0 -3
      vertex 14.9809 1.89253 0
      vertex 14.9809 1.89253 -3
    endloop
  endfacet
  facet normal -0.998026 -0.0628074 0
    outer loop
      vertex 14.9809 1.89253 0
      vertex 15.1 0 -3
      vertex 15.1 0 0
    endloop
  endfacet
  facet normal 0.998026 -0.0628074 0
    outer loop
      vertex -15.1 0 0
      vertex -14.9809 1.89253 -3
      vertex -14.9809 1.89253 0
    endloop
  endfacet
  facet normal 0.998026 -0.0628074 0
    outer loop
      vertex -14.9809 1.89253 -3
      vertex -15.1 0 0
      vertex -15.1 0 -3
    endloop
  endfacet
  facet normal 0 -1 0
    outer loop
      vertex -0.948136 15.0702 -3
      vertex 0.948136 15.0702 0
      vertex -0.948136 15.0702 0
    endloop
  endfacet
  facet normal 0 -1 -0
    outer loop
      vertex 0.948136 15.0702 0
      vertex -0.948136 15.0702 -3
      vertex 0.948136 15.0702 -3
    endloop
  endfacet
  facet normal 0 1 -0
    outer loop
      vertex 0.948136 -15.0702 -3
      vertex -0.948136 -15.0702 0
      vertex 0.948136 -15.0702 0
    endloop
  endfacet
  facet normal 0 1 0
    outer loop
      vertex -0.948136 -15.0702 0
      vertex 0.948136 -15.0702 -3
      vertex -0.948136 -15.0702 -3
    endloop
  endfacet
  facet normal -0.684529 -0.728986 0
    outer loop
      vertex 9.6251 11.6347 -3
      vertex 11.0074 10.3367 0
      vertex 9.6251 11.6347 0
    endloop
  endfacet
  facet normal -0.684529 -0.728986 -0
    outer loop
      vertex 11.0074 10.3367 0
      vertex 9.6251 11.6347 -3
      vertex 11.0074 10.3367 -3
    endloop
  endfacet
  facet normal 0.684529 -0.728986 0
    outer loop
      vertex -11.0074 10.3367 -3
      vertex -9.6251 11.6347 0
      vertex -11.0074 10.3367 0
    endloop
  endfacet
  facet normal 0.684529 -0.728986 0
    outer loop
      vertex -9.6251 11.6347 0
      vertex -11.0074 10.3367 -3
      vertex -9.6251 11.6347 -3
    endloop
  endfacet
  facet normal 0.368141 -0.92977 0
    outer loop
      vertex -6.42927 13.6629 -3
      vertex -4.66616 14.361 0
      vertex -6.42927 13.6629 0
    endloop
  endfacet
  facet normal 0.368141 -0.92977 0
    outer loop
      vertex -4.66616 14.361 0
      vertex -6.42927 13.6629 -3
      vertex -4.66616 14.361 -3
    endloop
  endfacet
  facet normal -0.904826 -0.425782 0
    outer loop
      vertex 14.0396 5.55868 -3
      vertex 13.2322 7.27448 0
      vertex 13.2322 7.27448 -3
    endloop
  endfacet
  facet normal -0.904826 -0.425782 0
    outer loop
      vertex 13.2322 7.27448 0
      vertex 14.0396 5.55868 -3
      vertex 14.0396 5.55868 0
    endloop
  endfacet
  facet normal -0.98229 -0.187368 0
    outer loop
      vertex 14.9809 1.89253 -3
      vertex 14.6256 3.75522 0
      vertex 14.6256 3.75522 -3
    endloop
  endfacet
  facet normal -0.98229 -0.187368 0
    outer loop
      vertex 14.6256 3.75522 0
      vertex 14.9809 1.89253 -3
      vertex 14.9809 1.89253 0
    endloop
  endfacet
  facet normal -0.844346 -0.535798 0
    outer loop
      vertex 13.2322 7.27448 -3
      vertex 12.2162 8.87556 0
      vertex 12.2162 8.87556 -3
    endloop
  endfacet
  facet normal -0.844346 -0.535798 0
    outer loop
      vertex 12.2162 8.87556 0
      vertex 13.2322 7.27448 -3
      vertex 13.2322 7.27448 0
    endloop
  endfacet
  facet normal -0.368141 -0.92977 0
    outer loop
      vertex 4.66616 14.361 -3
      vertex 6.42927 13.6629 0
      vertex 4.66616 14.361 0
    endloop
  endfacet
  facet normal -0.368141 -0.92977 -0
    outer loop
      vertex 6.42927 13.6629 0
      vertex 4.66616 14.361 -3
      vertex 6.42927 13.6629 -3
    endloop
  endfacet
  facet normal -0.587819 -0.808993 0
    outer loop
      vertex 8.09098 12.7494 -3
      vertex 9.6251 11.6347 0
      vertex 8.09098 12.7494 0
    endloop
  endfacet
  facet normal -0.587819 -0.808993 -0
    outer loop
      vertex 9.6251 11.6347 0
      vertex 8.09098 12.7494 -3
      vertex 9.6251 11.6347 -3
    endloop
  endfacet
  facet normal 0.904826 -0.425782 0
    outer loop
      vertex -14.0396 5.55868 0
      vertex -13.2322 7.27448 -3
      vertex -13.2322 7.27448 0
    endloop
  endfacet
  facet normal 0.904826 -0.425782 0
    outer loop
      vertex -13.2322 7.27448 -3
      vertex -14.0396 5.55868 0
      vertex -14.0396 5.55868 -3
    endloop
  endfacet
  facet normal 0.770503 -0.637436 0
    outer loop
      vertex -12.2162 8.87556 0
      vertex -11.0074 10.3367 -3
      vertex -11.0074 10.3367 0
    endloop
  endfacet
  facet normal 0.770503 -0.637436 0
    outer loop
      vertex -11.0074 10.3367 -3
      vertex -12.2162 8.87556 0
      vertex -12.2162 8.87556 -3
    endloop
  endfacet
  facet normal 0.951053 -0.309027 0
    outer loop
      vertex -14.6256 3.75522 0
      vertex -14.0396 5.55868 -3
      vertex -14.0396 5.55868 0
    endloop
  endfacet
  facet normal 0.951053 -0.309027 0
    outer loop
      vertex -14.0396 5.55868 -3
      vertex -14.6256 3.75522 0
      vertex -14.6256 3.75522 -3
    endloop
  endfacet
  facet normal 0.48174 -0.876314 0
    outer loop
      vertex -8.09098 12.7494 -3
      vertex -6.42927 13.6629 0
      vertex -8.09098 12.7494 0
    endloop
  endfacet
  facet normal 0.48174 -0.876314 0
    outer loop
      vertex -6.42927 13.6629 0
      vertex -8.09098 12.7494 -3
      vertex -6.42927 13.6629 -3
    endloop
  endfacet
  facet normal 0.248648 -0.968594 0
    outer loop
      vertex -4.66616 14.361 -3
      vertex -2.82946 14.8325 0
      vertex -4.66616 14.361 0
    endloop
  endfacet
  facet normal 0.248648 -0.968594 0
    outer loop
      vertex -2.82946 14.8325 0
      vertex -4.66616 14.361 -3
      vertex -2.82946 14.8325 -3
    endloop
  endfacet
  facet normal -0.368141 0.92977 0
    outer loop
      vertex 6.42927 -13.6629 -3
      vertex 4.66616 -14.361 0
      vertex 6.42927 -13.6629 0
    endloop
  endfacet
  facet normal -0.368141 0.92977 0
    outer loop
      vertex 4.66616 -14.361 0
      vertex 6.42927 -13.6629 -3
      vertex 4.66616 -14.361 -3
    endloop
  endfacet
  facet normal -0.951053 -0.309027 0
    outer loop
      vertex 14.6256 3.75522 -3
      vertex 14.0396 5.55868 0
      vertex 14.0396 5.55868 -3
    endloop
  endfacet
  facet normal -0.951053 -0.309027 0
    outer loop
      vertex 14.0396 5.55868 0
      vertex 14.6256 3.75522 -3
      vertex 14.6256 3.75522 0
    endloop
  endfacet
  facet normal -0.770503 -0.637436 0
    outer loop
      vertex 12.2162 8.87556 -3
      vertex 11.0074 10.3367 0
      vertex 11.0074 10.3367 -3
    endloop
  endfacet
  facet normal -0.770503 -0.637436 0
    outer loop
      vertex 11.0074 10.3367 0
      vertex 12.2162 8.87556 -3
      vertex 12.2162 8.87556 0
    endloop
  endfacet
  facet normal -0.248648 -0.968594 0
    outer loop
      vertex 2.82946 14.8325 -3
      vertex 4.66616 14.361 0
      vertex 2.82946 14.8325 0
    endloop
  endfacet
  facet normal -0.248648 -0.968594 -0
    outer loop
      vertex 4.66616 14.361 0
      vertex 2.82946 14.8325 -3
      vertex 4.66616 14.361 -3
    endloop
  endfacet
  facet normal -0.125351 -0.992113 0
    outer loop
      vertex 0.948136 15.0702 -3
      vertex 2.82946 14.8325 0
      vertex 0.948136 15.0702 0
    endloop
  endfacet
  facet normal -0.125351 -0.992113 -0
    outer loop
      vertex 2.82946 14.8325 0
      vertex 0.948136 15.0702 -3
      vertex 2.82946 14.8325 -3
    endloop
  endfacet
  facet normal -0.48174 -0.876314 0
    outer loop
      vertex 6.42927 13.6629 -3
      vertex 8.09098 12.7494 0
      vertex 6.42927 13.6629 0
    endloop
  endfacet
  facet normal -0.48174 -0.876314 -0
    outer loop
      vertex 8.09098 12.7494 0
      vertex 6.42927 13.6629 -3
      vertex 8.09098 12.7494 -3
    endloop
  endfacet
  facet normal 0.844346 -0.535798 0
    outer loop
      vertex -13.2322 7.27448 0
      vertex -12.2162 8.87556 -3
      vertex -12.2162 8.87556 0
    endloop
  endfacet
  facet normal 0.844346 -0.535798 0
    outer loop
      vertex -12.2162 8.87556 -3
      vertex -13.2322 7.27448 0
      vertex -13.2322 7.27448 -3
    endloop
  endfacet
  facet normal 0.98229 -0.187368 0
    outer loop
      vertex -14.9809 1.89253 0
      vertex -14.6256 3.75522 -3
      vertex -14.6256 3.75522 0
    endloop
  endfacet
  facet normal 0.98229 -0.187368 0
    outer loop
      vertex -14.6256 3.75522 -3
      vertex -14.9809 1.89253 0
      vertex -14.9809 1.89253 -3
    endloop
  endfacet
  facet normal 0.587819 -0.808993 0
    outer loop
      vertex -9.6251 11.6347 -3
      vertex -8.09098 12.7494 0
      vertex -9.6251 11.6347 0
    endloop
  endfacet
  facet normal 0.587819 -0.808993 0
    outer loop
      vertex -8.09098 12.7494 0
      vertex -9.6251 11.6347 -3
      vertex -8.09098 12.7494 -3
    endloop
  endfacet
  facet normal 0.125351 -0.992113 0
    outer loop
      vertex -2.82946 14.8325 -3
      vertex -0.948136 15.0702 0
      vertex -2.82946 14.8325 0
    endloop
  endfacet
  facet normal 0.125351 -0.992113 0
    outer loop
      vertex -0.948136 15.0702 0
      vertex -2.82946 14.8325 -3
      vertex -0.948136 15.0702 -3
    endloop
  endfacet
  facet normal -0.998026 0.0628074 0
    outer loop
      vertex 14.9809 -1.89253 -3
      vertex 15.1 0 0
      vertex 15.1 0 -3
    endloop
  endfacet
  facet normal -0.998026 0.0628074 0
    outer loop
      vertex 15.1 0 0
      vertex 14.9809 -1.89253 -3
      vertex 14.9809 -1.89253 0
    endloop
  endfacet
  facet normal -0.684529 0.728986 0
    outer loop
      vertex 11.0074 -10.3367 -3
      vertex 9.6251 -11.6347 0
      vertex 11.0074 -10.3367 0
    endloop
  endfacet
  facet normal -0.684529 0.728986 0
    outer loop
      vertex 9.6251 -11.6347 0
      vertex 11.0074 -10.3367 -3
      vertex 9.6251 -11.6347 -3
    endloop
  endfacet
  facet normal -0.98229 0.187368 0
    outer loop
      vertex 14.6256 -3.75522 -3
      vertex 14.9809 -1.89253 0
      vertex 14.9809 -1.89253 -3
    endloop
  endfacet
  facet normal -0.98229 0.187368 0
    outer loop
      vertex 14.9809 -1.89253 0
      vertex 14.6256 -3.75522 -3
      vertex 14.6256 -3.75522 0
    endloop
  endfacet
  facet normal 0 0 1
    outer loop
      vertex 14.9809 1.89253 -3
      vertex 14.9809 -1.89253 -3
      vertex 15.1 0 -3
    endloop
  endfacet
  facet normal 0 0 1
    outer loop
      vertex 14.6256 3.75522 -3
      vertex 14.9809 -1.89253 -3
      vertex 14.9809 1.89253 -3
    endloop
  endfacet
  facet normal 0 0 1
    outer loop
      vertex 14.6256 3.75522 -3
      vertex 14.6256 -3.75522 -3
      vertex 14.9809 -1.89253 -3
    endloop
  endfacet
  facet normal 0 0 1
    outer loop
      vertex 14.0396 5.55868 -3
      vertex 14.6256 -3.75522 -3
      vertex 14.6256 3.75522 -3
    endloop
  endfacet
  facet normal 0 0 1
    outer loop
      vertex 14.0396 5.55868 -3
      vertex 14.0396 -5.55868 -3
      vertex 14.6256 -3.75522 -3
    endloop
  endfacet
  facet normal 0 0 1
    outer loop
      vertex 13.2322 7.27448 -3
      vertex 14.0396 -5.55868 -3
      vertex 14.0396 5.55868 -3
    endloop
  endfacet
  facet normal 0 0 1
    outer loop
      vertex 13.2322 7.27448 -3
      vertex 13.2322 -7.27448 -3
      vertex 14.0396 -5.55868 -3
    endloop
  endfacet
  facet normal 0 0 1
    outer loop
      vertex 12.2162 8.87556 -3
      vertex 13.2322 -7.27448 -3
      vertex 13.2322 7.27448 -3
    endloop
  endfacet
  facet normal 0 0 1
    outer loop
      vertex 12.2162 8.87556 -3
      vertex 12.2162 -8.87556 -3
      vertex 13.2322 -7.27448 -3
    endloop
  endfacet
  facet normal 0 0 1
    outer loop
      vertex 11.0074 10.3367 -3
      vertex 12.2162 -8.87556 -3
      vertex 12.2162 8.87556 -3
    endloop
  endfacet
  facet normal 0 0 1
    outer loop
      vertex 11.0074 10.3367 -3
      vertex 11.0074 -10.3367 -3
      vertex 12.2162 -8.87556 -3
    endloop
  endfacet
  facet normal 0 0 1
    outer loop
      vertex 9.6251 11.6347 -3
      vertex 11.0074 -10.3367 -3
      vertex 11.0074 10.3367 -3
    endloop
  endfacet
  facet normal 0 0 1
    outer loop
      vertex 9.6251 11.6347 -3
      vertex 9.6251 -11.6347 -3
      vertex 11.0074 -10.3367 -3
    endloop
  endfacet
  facet normal 0 0 1
    outer loop
      vertex 8.09098 12.7494 -3
      vertex 9.6251 -11.6347 -3
      vertex 9.6251 11.6347 -3
    endloop
  endfacet
  facet normal 0 0 1
    outer loop
      vertex 8.09098 12.7494 -3
      vertex 8.09098 -12.7494 -3
      vertex 9.6251 -11.6347 -3
    endloop
  endfacet
  facet normal 0 0 1
    outer loop
      vertex 6.42927 13.6629 -3
      vertex 8.09098 -12.7494 -3
      vertex 8.09098 12.7494 -3
    endloop
  endfacet
  facet normal 0 0 1
    outer loop
      vertex 6.42927 13.6629 -3
      vertex 6.42927 -13.6629 -3
      vertex 8.09098 -12.7494 -3
    endloop
  endfacet
  facet normal 0 0 1
    outer loop
      vertex 4.66616 14.361 -3
      vertex 6.42927 -13.6629 -3
      vertex 6.42927 13.6629 -3
    endloop
  endfacet
  facet normal 0 0 1
    outer loop
      vertex 4.66616 14.361 -3
      vertex 4.66616 -14.361 -3
      vertex 6.42927 -13.6629 -3
    endloop
  endfacet
  facet normal 0 0 1
    outer loop
      vertex 2.82946 14.8325 -3
      vertex 4.66616 -14.361 -3
      vertex 4.66616 14.361 -3
    endloop
  endfacet
  facet normal 0 0 1
    outer loop
      vertex 2.82946 14.8325 -3
      vertex 2.82946 -14.8325 -3
      vertex 4.66616 -14.361 -3
    endloop
  endfacet
  facet normal 0 0 1
    outer loop
      vertex 0.948136 15.0702 -3
      vertex 2.82946 -14.8325 -3
      vertex 2.82946 14.8325 -3
    endloop
  endfacet
  facet normal 0 0 1
    outer loop
      vertex 0.948136 15.0702 -3
      vertex 0.948136 -15.0702 -3
      vertex 2.82946 -14.8325 -3
    endloop
  endfacet
  facet normal -0 0 1
    outer loop
      vertex -0.948136 15.0702 -3
      vertex 0.948136 -15.0702 -3
      vertex 0.948136 15.0702 -3
    endloop
  endfacet
  facet normal 0 0 1
    outer loop
      vertex -0.948136 15.0702 -3
      vertex -0.948136 -15.0702 -3
      vertex 0.948136 -15.0702 -3
    endloop
  endfacet
  facet normal -0 0 1
    outer loop
      vertex -2.82946 14.8325 -3
      vertex -0.948136 -15.0702 -3
      vertex -0.948136 15.0702 -3
    endloop
  endfacet
  facet normal 0 0 1
    outer loop
      vertex -2.82946 14.8325 -3
      vertex -2.82946 -14.8325 -3
      vertex -0.948136 -15.0702 -3
    endloop
  endfacet
  facet normal -0 0 1
    outer loop
      vertex -4.66616 14.361 -3
      vertex -2.82946 -14.8325 -3
      vertex -2.82946 14.8325 -3
    endloop
  endfacet
  facet normal 0 0 1
    outer loop
      vertex -4.66616 14.361 -3
      vertex -4.66616 -14.361 -3
      vertex -2.82946 -14.8325 -3
    endloop
  endfacet
  facet normal -0 0 1
    outer loop
      vertex -6.42927 13.6629 -3
      vertex -4.66616 -14.361 -3
      vertex -4.66616 14.361 -3
    endloop
  endfacet
  facet normal 0 0 1
    outer loop
      vertex -6.42927 13.6629 -3
      vertex -6.42927 -13.6629 -3
      vertex -4.66616 -14.361 -3
    endloop
  endfacet
  facet normal -0 0 1
    outer loop
      vertex -8.09098 12.7494 -3
      vertex -6.42927 -13.6629 -3
      vertex -6.42927 13.6629 -3
    endloop
  endfacet
  facet normal 0 0 1
    outer loop
      vertex -8.09098 12.7494 -3
      vertex -8.09098 -12.7494 -3
      vertex -6.42927 -13.6629 -3
    endloop
  endfacet
  facet normal -0 0 1
    outer loop
      vertex -9.6251 11.6347 -3
      vertex -8.09098 -12.7494 -3
      vertex -8.09098 12.7494 -3
    endloop
  endfacet
  facet normal 0 0 1
    outer loop
      vertex -9.6251 11.6347 -3
      vertex -9.6251 -11.6347 -3
      vertex -8.09098 -12.7494 -3
    endloop
  endfacet
  facet normal -0 0 1
    outer loop
      vertex -11.0074 10.3367 -3
      vertex -9.6251 -11.6347 -3
      vertex -9.6251 11.6347 -3
    endloop
  endfacet
  facet normal 0 0 1
    outer loop
      vertex -11.0074 10.3367 -3
      vertex -11.0074 -10.3367 -3
      vertex -9.6251 -11.6347 -3
    endloop
  endfacet
  facet normal -0 0 1
    outer loop
      vertex -12.2162 8.87556 -3
      vertex -11.0074 -10.3367 -3
      vertex -11.0074 10.3367 -3
    endloop
  endfacet
  facet normal 0 0 1
    outer loop
      vertex -12.2162 8.87556 -3
      vertex -12.2162 -8.87556 -3
      vertex -11.0074 -10.3367 -3
    endloop
  endfacet
  facet normal -0 0 1
    outer loop
      vertex -13.2322 7.27448 -3
      vertex -12.2162 -8.87556 -3
      vertex -12.2162 8.87556 -3
    endloop
  endfacet
  facet normal 0 0 1
    outer loop
      vertex -13.2322 7.27448 -3
      vertex -13.2322 -7.27448 -3
      vertex -12.2162 -8.87556 -3
    endloop
  endfacet
  facet normal -0 0 1
    outer loop
      vertex -14.0396 5.55868 -3
      vertex -13.2322 -7.27448 -3
      vertex -13.2322 7.27448 -3
    endloop
  endfacet
  facet normal 0 0 1
    outer loop
      vertex -14.0396 5.55868 -3
      vertex -14.0396 -5.55868 -3
      vertex -13.2322 -7.27448 -3
    endloop
  endfacet
  facet normal -0 0 1
    outer loop
      vertex -14.6256 3.75522 -3
      vertex -14.0396 -5.55868 -3
      vertex -14.0396 5.55868 -3
    endloop
  endfacet
  facet normal 0 0 1
    outer loop
      vertex -14.6256 3.75522 -3
      vertex -14.6256 -3.75522 -3
      vertex -14.0396 -5.55868 -3
    endloop
  endfacet
  facet normal -0 0 1
    outer loop
      vertex -14.9809 1.89253 -3
      vertex -14.6256 -3.75522 -3
      vertex -14.6256 3.75522 -3
    endloop
  endfacet
  facet normal 0 0 1
    outer loop
      vertex -14.9809 1.89253 -3
      vertex -14.9809 -1.89253 -3
      vertex -14.6256 -3.75522 -3
    endloop
  endfacet
  facet normal 0 -0 1
    outer loop
      vertex -14.9809 -1.89253 -3
      vertex -14.9809 1.89253 -3
      vertex -15.1 0 -3
    endloop
  endfacet
  facet normal -0.770503 0.637436 0
    outer loop
      vertex 11.0074 -10.3367 -3
      vertex 12.2162 -8.87556 0
      vertex 12.2162 -8.87556 -3
    endloop
  endfacet
  facet normal -0.770503 0.637436 0
    outer loop
      vertex 12.2162 -8.87556 0
      vertex 11.0074 -10.3367 -3
      vertex 11.0074 -10.3367 0
    endloop
  endfacet
  facet normal -0.48174 0.876314 0
    outer loop
      vertex 8.09098 -12.7494 -3
      vertex 6.42927 -13.6629 0
      vertex 8.09098 -12.7494 0
    endloop
  endfacet
  facet normal -0.48174 0.876314 0
    outer loop
      vertex 6.42927 -13.6629 0
      vertex 8.09098 -12.7494 -3
      vertex 6.42927 -13.6629 -3
    endloop
  endfacet
  facet normal -0.587819 0.808993 0
    outer loop
      vertex 9.6251 -11.6347 -3
      vertex 8.09098 -12.7494 0
      vertex 9.6251 -11.6347 0
    endloop
  endfacet
  facet normal -0.587819 0.808993 0
    outer loop
      vertex 8.09098 -12.7494 0
      vertex 9.6251 -11.6347 -3
      vertex 8.09098 -12.7494 -3
    endloop
  endfacet
  facet normal -0.904826 0.425782 0
    outer loop
      vertex 13.2322 -7.27448 -3
      vertex 14.0396 -5.55868 0
      vertex 14.0396 -5.55868 -3
    endloop
  endfacet
  facet normal -0.904826 0.425782 0
    outer loop
      vertex 14.0396 -5.55868 0
      vertex 13.2322 -7.27448 -3
      vertex 13.2322 -7.27448 0
    endloop
  endfacet
  facet normal 0.951053 0.309027 0
    outer loop
      vertex -14.0396 -5.55868 0
      vertex -14.6256 -3.75522 -3
      vertex -14.6256 -3.75522 0
    endloop
  endfacet
  facet normal 0.951053 0.309027 0
    outer loop
      vertex -14.6256 -3.75522 -3
      vertex -14.0396 -5.55868 0
      vertex -14.0396 -5.55868 -3
    endloop
  endfacet
  facet normal -0.248648 0.968594 0
    outer loop
      vertex 4.66616 -14.361 -3
      vertex 2.82946 -14.8325 0
      vertex 4.66616 -14.361 0
    endloop
  endfacet
  facet normal -0.248648 0.968594 0
    outer loop
      vertex 2.82946 -14.8325 0
      vertex 4.66616 -14.361 -3
      vertex 2.82946 -14.8325 -3
    endloop
  endfacet
  facet normal -0.125351 0.992113 0
    outer loop
      vertex 2.82946 -14.8325 -3
      vertex 0.948136 -15.0702 0
      vertex 2.82946 -14.8325 0
    endloop
  endfacet
  facet normal -0.125351 0.992113 0
    outer loop
      vertex 0.948136 -15.0702 0
      vertex 2.82946 -14.8325 -3
      vertex 0.948136 -15.0702 -3
    endloop
  endfacet
  facet normal -0.844346 0.535798 0
    outer loop
      vertex 12.2162 -8.87556 -3
      vertex 13.2322 -7.27448 0
      vertex 13.2322 -7.27448 -3
    endloop
  endfacet
  facet normal -0.844346 0.535798 0
    outer loop
      vertex 13.2322 -7.27448 0
      vertex 12.2162 -8.87556 -3
      vertex 12.2162 -8.87556 0
    endloop
  endfacet
  facet normal -0.951053 0.309027 0
    outer loop
      vertex 14.0396 -5.55868 -3
      vertex 14.6256 -3.75522 0
      vertex 14.6256 -3.75522 -3
    endloop
  endfacet
  facet normal -0.951053 0.309027 0
    outer loop
      vertex 14.6256 -3.75522 0
      vertex 14.0396 -5.55868 -3
      vertex 14.0396 -5.55868 0
    endloop
  endfacet
  facet normal 0.125351 0.992113 -0
    outer loop
      vertex -0.948136 -15.0702 -3
      vertex -2.82946 -14.8325 0
      vertex -0.948136 -15.0702 0
    endloop
  endfacet
  facet normal 0.125351 0.992113 0
    outer loop
      vertex -2.82946 -14.8325 0
      vertex -0.948136 -15.0702 -3
      vertex -2.82946 -14.8325 -3
    endloop
  endfacet
  facet normal 0.248648 0.968594 -0
    outer loop
      vertex -2.82946 -14.8325 -3
      vertex -4.66616 -14.361 0
      vertex -2.82946 -14.8325 0
    endloop
  endfacet
  facet normal 0.248648 0.968594 0
    outer loop
      vertex -4.66616 -14.361 0
      vertex -2.82946 -14.8325 -3
      vertex -4.66616 -14.361 -3
    endloop
  endfacet
  facet normal 0.904826 0.425782 0
    outer loop
      vertex -13.2322 -7.27448 0
      vertex -14.0396 -5.55868 -3
      vertex -14.0396 -5.55868 0
    endloop
  endfacet
  facet normal 0.904826 0.425782 0
    outer loop
      vertex -14.0396 -5.55868 -3
      vertex -13.2322 -7.27448 0
      vertex -13.2322 -7.27448 -3
    endloop
  endfacet
  facet normal 0.770503 0.637436 0
    outer loop
      vertex -11.0074 -10.3367 0
      vertex -12.2162 -8.87556 -3
      vertex -12.2162 -8.87556 0
    endloop
  endfacet
  facet normal 0.770503 0.637436 0
    outer loop
      vertex -12.2162 -8.87556 -3
      vertex -11.0074 -10.3367 0
      vertex -11.0074 -10.3367 -3
    endloop
  endfacet
  facet normal 0.844346 0.535798 0
    outer loop
      vertex -12.2162 -8.87556 0
      vertex -13.2322 -7.27448 -3
      vertex -13.2322 -7.27448 0
    endloop
  endfacet
  facet normal 0.844346 0.535798 0
    outer loop
      vertex -13.2322 -7.27448 -3
      vertex -12.2162 -8.87556 0
      vertex -12.2162 -8.87556 -3
    endloop
  endfacet
  facet normal 0.684529 0.728986 -0
    outer loop
      vertex -9.6251 -11.6347 -3
      vertex -11.0074 -10.3367 0
      vertex -9.6251 -11.6347 0
    endloop
  endfacet
  facet normal 0.684529 0.728986 0
    outer loop
      vertex -11.0074 -10.3367 0
      vertex -9.6251 -11.6347 -3
      vertex -11.0074 -10.3367 -3
    endloop
  endfacet
  facet normal 0.98229 0.187368 0
    outer loop
      vertex -14.6256 -3.75522 0
      vertex -14.9809 -1.89253 -3
      vertex -14.9809 -1.89253 0
    endloop
  endfacet
  facet normal 0.98229 0.187368 0
    outer loop
      vertex -14.9809 -1.89253 -3
      vertex -14.6256 -3.75522 0
      vertex -14.6256 -3.75522 -3
    endloop
  endfacet
  facet normal 0.998026 0.0628074 0
    outer loop
      vertex -14.9809 -1.89253 0
      vertex -15.1 0 -3
      vertex -15.1 0 0
    endloop
  endfacet
  facet normal 0.998026 0.0628074 0
    outer loop
      vertex -15.1 0 -3
      vertex -14.9809 -1.89253 0
      vertex -14.9809 -1.89253 -3
    endloop
  endfacet
  facet normal 0.587819 0.808993 -0
    outer loop
      vertex -8.09098 -12.7494 -3
      vertex -9.6251 -11.6347 0
      vertex -8.09098 -12.7494 0
    endloop
  endfacet
  facet normal 0.587819 0.808993 0
    outer loop
      vertex -9.6251 -11.6347 0
      vertex -8.09098 -12.7494 -3
      vertex -9.6251 -11.6347 -3
    endloop
  endfacet
  facet normal 0.48174 0.876314 -0
    outer loop
      vertex -6.42927 -13.6629 -3
      vertex -8.09098 -12.7494 0
      vertex -6.42927 -13.6629 0
    endloop
  endfacet
  facet normal 0.48174 0.876314 0
    outer loop
      vertex -8.09098 -12.7494 0
      vertex -6.42927 -13.6629 -3
      vertex -8.09098 -12.7494 -3
    endloop
  endfacet
  facet normal 0.368141 0.92977 -0
    outer loop
      vertex -4.66616 -14.361 -3
      vertex -6.42927 -13.6629 0
      vertex -4.66616 -14.361 0
    endloop
  endfacet
  facet normal 0.368141 0.92977 0
    outer loop
      vertex -6.42927 -13.6629 0
      vertex -4.66616 -14.361 -3
      vertex -6.42927 -13.6629 -3
    endloop
  endfacet
endsolid OpenSCAD_Model
