solid OpenSCAD_Model
  facet normal 0.998027 0.0627869 0
    outer loop
      vertex 16.5 0 0
      vertex 16.3699 2.068 -7
      vertex 16.3699 2.068 0
    endloop
  endfacet
  facet normal 0.998027 0.0627869 0
    outer loop
      vertex 16.3699 2.068 -7
      vertex 16.5 0 0
      vertex 16.5 0 -7
    endloop
  endfacet
  facet normal -0.998027 0.0627869 0
    outer loop
      vertex -16.5 0 -7
      vertex -16.3699 2.068 0
      vertex -16.3699 2.068 -7
    endloop
  endfacet
  facet normal -0.998027 0.0627869 0
    outer loop
      vertex -16.3699 2.068 0
      vertex -16.5 0 -7
      vertex -16.5 0 0
    endloop
  endfacet
  facet normal 0 1 -0
    outer loop
      vertex 1.03604 16.4674 -7
      vertex -1.03604 16.4674 0
      vertex 1.03604 16.4674 0
    endloop
  endfacet
  facet normal 0 1 0
    outer loop
      vertex -1.03604 16.4674 0
      vertex 1.03604 16.4674 -7
      vertex -1.03604 16.4674 -7
    endloop
  endfacet
  facet normal 0 -1 0
    outer loop
      vertex -1.03604 -16.4674 -7
      vertex 1.03604 -16.4674 0
      vertex -1.03604 -16.4674 0
    endloop
  endfacet
  facet normal 0 -1 -0
    outer loop
      vertex 1.03604 -16.4674 0
      vertex -1.03604 -16.4674 -7
      vertex 1.03604 -16.4674 -7
    endloop
  endfacet
  facet normal 0.684559 0.728958 -0
    outer loop
      vertex 12.028 11.295 -7
      vertex 10.5175 12.7135 0
      vertex 12.028 11.295 0
    endloop
  endfacet
  facet normal 0.684559 0.728958 0
    outer loop
      vertex 10.5175 12.7135 0
      vertex 12.028 11.295 -7
      vertex 10.5175 12.7135 -7
    endloop
  endfacet
  facet normal -0.684559 0.728958 0
    outer loop
      vertex -10.5175 12.7135 -7
      vertex -12.028 11.295 0
      vertex -10.5175 12.7135 0
    endloop
  endfacet
  facet normal -0.684559 0.728958 0
    outer loop
      vertex -12.028 11.295 0
      vertex -10.5175 12.7135 -7
      vertex -12.028 11.295 -7
    endloop
  endfacet
  facet normal -0.36813 0.929774 0
    outer loop
      vertex -5.09878 15.6924 -7
      vertex -7.02536 14.9296 0
      vertex -5.09878 15.6924 0
    endloop
  endfacet
  facet normal -0.36813 0.929774 0
    outer loop
      vertex -7.02536 14.9296 0
      vertex -5.09878 15.6924 -7
      vertex -7.02536 14.9296 -7
    endloop
  endfacet
  facet normal 0.904838 0.425757 0
    outer loop
      vertex 15.3413 6.07405 0
      vertex 14.4591 7.94894 -7
      vertex 14.4591 7.94894 0
    endloop
  endfacet
  facet normal 0.904838 0.425757 0
    outer loop
      vertex 14.4591 7.94894 -7
      vertex 15.3413 6.07405 0
      vertex 15.3413 6.07405 -7
    endloop
  endfacet
  facet normal 0.982285 0.187396 0
    outer loop
      vertex 16.3699 2.068 0
      vertex 15.9816 4.10338 -7
      vertex 15.9816 4.10338 0
    endloop
  endfacet
  facet normal 0.982285 0.187396 0
    outer loop
      vertex 15.9816 4.10338 -7
      vertex 16.3699 2.068 0
      vertex 16.3699 2.068 -7
    endloop
  endfacet
  facet normal 0.36813 0.929774 -0
    outer loop
      vertex 7.02536 14.9296 -7
      vertex 5.09878 15.6924 0
      vertex 7.02536 14.9296 0
    endloop
  endfacet
  facet normal 0.36813 0.929774 0
    outer loop
      vertex 5.09878 15.6924 0
      vertex 7.02536 14.9296 -7
      vertex 5.09878 15.6924 -7
    endloop
  endfacet
  facet normal 0.481741 0.876314 -0
    outer loop
      vertex 8.84114 13.9314 -7
      vertex 7.02536 14.9296 0
      vertex 8.84114 13.9314 0
    endloop
  endfacet
  facet normal 0.481741 0.876314 0
    outer loop
      vertex 7.02536 14.9296 0
      vertex 8.84114 13.9314 -7
      vertex 7.02536 14.9296 -7
    endloop
  endfacet
  facet normal -0.904838 0.425757 0
    outer loop
      vertex -15.3413 6.07405 -7
      vertex -14.4591 7.94894 0
      vertex -14.4591 7.94894 -7
    endloop
  endfacet
  facet normal -0.904838 0.425757 0
    outer loop
      vertex -14.4591 7.94894 0
      vertex -15.3413 6.07405 -7
      vertex -15.3413 6.07405 0
    endloop
  endfacet
  facet normal -0.951058 0.309013 0
    outer loop
      vertex -15.9816 4.10338 -7
      vertex -15.3413 6.07405 0
      vertex -15.3413 6.07405 -7
    endloop
  endfacet
  facet normal -0.951058 0.309013 0
    outer loop
      vertex -15.3413 6.07405 0
      vertex -15.9816 4.10338 -7
      vertex -15.9816 4.10338 0
    endloop
  endfacet
  facet normal -0.481741 0.876314 0
    outer loop
      vertex -7.02536 14.9296 -7
      vertex -8.84114 13.9314 0
      vertex -7.02536 14.9296 0
    endloop
  endfacet
  facet normal -0.481741 0.876314 0
    outer loop
      vertex -8.84114 13.9314 0
      vertex -7.02536 14.9296 -7
      vertex -8.84114 13.9314 -7
    endloop
  endfacet
  facet normal -0.248687 0.968584 0
    outer loop
      vertex -3.09179 16.2077 -7
      vertex -5.09878 15.6924 0
      vertex -3.09179 16.2077 0
    endloop
  endfacet
  facet normal -0.248687 0.968584 0
    outer loop
      vertex -5.09878 15.6924 0
      vertex -3.09179 16.2077 -7
      vertex -5.09878 15.6924 -7
    endloop
  endfacet
  facet normal 0.125332 -0.992115 0
    outer loop
      vertex 1.03604 -16.4674 -7
      vertex 3.09179 -16.2077 0
      vertex 1.03604 -16.4674 0
    endloop
  endfacet
  facet normal 0.125332 -0.992115 0
    outer loop
      vertex 3.09179 -16.2077 0
      vertex 1.03604 -16.4674 -7
      vertex 3.09179 -16.2077 -7
    endloop
  endfacet
  facet normal 0.36813 -0.929774 0
    outer loop
      vertex 5.09878 -15.6924 -7
      vertex 7.02536 -14.9296 0
      vertex 5.09878 -15.6924 0
    endloop
  endfacet
  facet normal 0.36813 -0.929774 0
    outer loop
      vertex 7.02536 -14.9296 0
      vertex 5.09878 -15.6924 -7
      vertex 7.02536 -14.9296 -7
    endloop
  endfacet
  facet normal 0.951058 0.309013 0
    outer loop
      vertex 15.9816 4.10338 0
      vertex 15.3413 6.07405 -7
      vertex 15.3413 6.07405 0
    endloop
  endfacet
  facet normal 0.951058 0.309013 0
    outer loop
      vertex 15.3413 6.07405 -7
      vertex 15.9816 4.10338 0
      vertex 15.9816 4.10338 -7
    endloop
  endfacet
  facet normal 0.770507 0.637432 0
    outer loop
      vertex 13.3488 9.69846 0
      vertex 12.028 11.295 -7
      vertex 12.028 11.295 0
    endloop
  endfacet
  facet normal 0.770507 0.637432 0
    outer loop
      vertex 12.028 11.295 -7
      vertex 13.3488 9.69846 0
      vertex 13.3488 9.69846 -7
    endloop
  endfacet
  facet normal 0.844323 0.535834 0
    outer loop
      vertex 14.4591 7.94894 0
      vertex 13.3488 9.69846 -7
      vertex 13.3488 9.69846 0
    endloop
  endfacet
  facet normal 0.844323 0.535834 0
    outer loop
      vertex 13.3488 9.69846 -7
      vertex 14.4591 7.94894 0
      vertex 14.4591 7.94894 -7
    endloop
  endfacet
  facet normal 0.248687 0.968584 -0
    outer loop
      vertex 5.09878 15.6924 -7
      vertex 3.09179 16.2077 0
      vertex 5.09878 15.6924 0
    endloop
  endfacet
  facet normal 0.248687 0.968584 0
    outer loop
      vertex 3.09179 16.2077 0
      vertex 5.09878 15.6924 -7
      vertex 3.09179 16.2077 -7
    endloop
  endfacet
  facet normal 0.125332 0.992115 -0
    outer loop
      vertex 3.09179 16.2077 -7
      vertex 1.03604 16.4674 0
      vertex 3.09179 16.2077 0
    endloop
  endfacet
  facet normal 0.125332 0.992115 0
    outer loop
      vertex 1.03604 16.4674 0
      vertex 3.09179 16.2077 -7
      vertex 1.03604 16.4674 -7
    endloop
  endfacet
  facet normal 0.58777 0.809028 -0
    outer loop
      vertex 10.5175 12.7135 -7
      vertex 8.84114 13.9314 0
      vertex 10.5175 12.7135 0
    endloop
  endfacet
  facet normal 0.58777 0.809028 0
    outer loop
      vertex 8.84114 13.9314 0
      vertex 10.5175 12.7135 -7
      vertex 8.84114 13.9314 -7
    endloop
  endfacet
  facet normal -0.844323 0.535834 0
    outer loop
      vertex -14.4591 7.94894 -7
      vertex -13.3488 9.69846 0
      vertex -13.3488 9.69846 -7
    endloop
  endfacet
  facet normal -0.844323 0.535834 0
    outer loop
      vertex -13.3488 9.69846 0
      vertex -14.4591 7.94894 -7
      vertex -14.4591 7.94894 0
    endloop
  endfacet
  facet normal -0.770507 0.637432 0
    outer loop
      vertex -13.3488 9.69846 -7
      vertex -12.028 11.295 0
      vertex -12.028 11.295 -7
    endloop
  endfacet
  facet normal -0.770507 0.637432 0
    outer loop
      vertex -12.028 11.295 0
      vertex -13.3488 9.69846 -7
      vertex -13.3488 9.69846 0
    endloop
  endfacet
  facet normal -0.982285 0.187396 0
    outer loop
      vertex -16.3699 2.068 -7
      vertex -15.9816 4.10338 0
      vertex -15.9816 4.10338 -7
    endloop
  endfacet
  facet normal -0.982285 0.187396 0
    outer loop
      vertex -15.9816 4.10338 0
      vertex -16.3699 2.068 -7
      vertex -16.3699 2.068 0
    endloop
  endfacet
  facet normal 0 0 1
    outer loop
      vertex 13.6 0 0
      vertex 16.5 0 0
      vertex 16.3699 2.068 0
    endloop
  endfacet
  facet normal 0 0 1
    outer loop
      vertex 13.4928 1.70453 0
      vertex 16.3699 2.068 0
      vertex 15.9816 4.10338 0
    endloop
  endfacet
  facet normal 0 0 1
    outer loop
      vertex 16.5 0 0
      vertex 13.6 0 0
      vertex 16.3699 -2.068 0
    endloop
  endfacet
  facet normal 0 0 1
    outer loop
      vertex 13.1727 3.38218 0
      vertex 15.9816 4.10338 0
      vertex 15.3413 6.07405 0
    endloop
  endfacet
  facet normal -0 0 1
    outer loop
      vertex 13.4928 -1.70453 0
      vertex 16.3699 -2.068 0
      vertex 13.6 0 0
    endloop
  endfacet
  facet normal 0 0 1
    outer loop
      vertex 12.645 5.00649 0
      vertex 15.3413 6.07405 0
      vertex 14.4591 7.94894 0
    endloop
  endfacet
  facet normal 0 0 1
    outer loop
      vertex 16.3699 -2.068 0
      vertex 13.4928 -1.70453 0
      vertex 15.9816 -4.10338 0
    endloop
  endfacet
  facet normal -0 0 1
    outer loop
      vertex 13.1727 -3.38218 0
      vertex 15.9816 -4.10338 0
      vertex 13.4928 -1.70453 0
    endloop
  endfacet
  facet normal 0 0 1
    outer loop
      vertex 16.3699 2.068 0
      vertex 13.4928 1.70453 0
      vertex 13.6 0 0
    endloop
  endfacet
  facet normal 0 0 1
    outer loop
      vertex 11.9178 6.55185 0
      vertex 14.4591 7.94894 0
      vertex 13.3488 9.69846 0
    endloop
  endfacet
  facet normal 0 0 1
    outer loop
      vertex 15.9816 4.10338 0
      vertex 13.1727 3.38218 0
      vertex 13.4928 1.70453 0
    endloop
  endfacet
  facet normal 0 0 1
    outer loop
      vertex 15.3413 6.07405 0
      vertex 12.645 5.00649 0
      vertex 13.1727 3.38218 0
    endloop
  endfacet
  facet normal 0 0 1
    outer loop
      vertex 11.0026 7.99388 0
      vertex 13.3488 9.69846 0
      vertex 12.028 11.295 0
    endloop
  endfacet
  facet normal 0 0 1
    outer loop
      vertex 14.4591 7.94894 0
      vertex 11.9178 6.55185 0
      vertex 12.645 5.00649 0
    endloop
  endfacet
  facet normal 0 0 1
    outer loop
      vertex 13.3488 9.69846 0
      vertex 11.0026 7.99388 0
      vertex 11.9178 6.55185 0
    endloop
  endfacet
  facet normal 0 0 1
    outer loop
      vertex 9.91397 9.30984 0
      vertex 12.028 11.295 0
      vertex 10.5175 12.7135 0
    endloop
  endfacet
  facet normal 0 0 1
    outer loop
      vertex 12.028 11.295 0
      vertex 9.91397 9.30984 0
      vertex 11.0026 7.99388 0
    endloop
  endfacet
  facet normal 0 0 1
    outer loop
      vertex 8.66897 10.479 0
      vertex 10.5175 12.7135 0
      vertex 8.84114 13.9314 0
    endloop
  endfacet
  facet normal 0 0 1
    outer loop
      vertex 10.5175 12.7135 0
      vertex 8.66897 10.479 0
      vertex 9.91397 9.30984 0
    endloop
  endfacet
  facet normal 0 0 1
    outer loop
      vertex 8.84114 13.9314 0
      vertex 7.28724 11.4829 0
      vertex 8.66897 10.479 0
    endloop
  endfacet
  facet normal 0 0 1
    outer loop
      vertex 7.02536 14.9296 0
      vertex 7.28724 11.4829 0
      vertex 8.84114 13.9314 0
    endloop
  endfacet
  facet normal 0 0 1
    outer loop
      vertex 7.02536 14.9296 0
      vertex 5.7906 12.3056 0
      vertex 7.28724 11.4829 0
    endloop
  endfacet
  facet normal 0 0 1
    outer loop
      vertex 5.09878 15.6924 0
      vertex 5.7906 12.3056 0
      vertex 7.02536 14.9296 0
    endloop
  endfacet
  facet normal 0 0 1
    outer loop
      vertex 5.09878 15.6924 0
      vertex 4.20263 12.9344 0
      vertex 5.7906 12.3056 0
    endloop
  endfacet
  facet normal 0 0 1
    outer loop
      vertex 3.09179 16.2077 0
      vertex 4.20263 12.9344 0
      vertex 5.09878 15.6924 0
    endloop
  endfacet
  facet normal 0 0 1
    outer loop
      vertex 3.09179 16.2077 0
      vertex 2.54839 13.3591 0
      vertex 4.20263 12.9344 0
    endloop
  endfacet
  facet normal 0 0 1
    outer loop
      vertex 1.03604 16.4674 0
      vertex 2.54839 13.3591 0
      vertex 3.09179 16.2077 0
    endloop
  endfacet
  facet normal 0 0 1
    outer loop
      vertex 1.03604 16.4674 0
      vertex 0.853951 13.5732 0
      vertex 2.54839 13.3591 0
    endloop
  endfacet
  facet normal 0 0 1
    outer loop
      vertex 1.03604 16.4674 0
      vertex -0.853951 13.5732 0
      vertex 0.853951 13.5732 0
    endloop
  endfacet
  facet normal -0 0 1
    outer loop
      vertex -1.03604 16.4674 0
      vertex -0.853951 13.5732 0
      vertex 1.03604 16.4674 0
    endloop
  endfacet
  facet normal 0 0 1
    outer loop
      vertex -1.03604 16.4674 0
      vertex -2.54839 13.3591 0
      vertex -0.853951 13.5732 0
    endloop
  endfacet
  facet normal -0 0 1
    outer loop
      vertex -3.09179 16.2077 0
      vertex -2.54839 13.3591 0
      vertex -1.03604 16.4674 0
    endloop
  endfacet
  facet normal 0 0 1
    outer loop
      vertex -3.09179 16.2077 0
      vertex -4.20263 12.9344 0
      vertex -2.54839 13.3591 0
    endloop
  endfacet
  facet normal -0 0 1
    outer loop
      vertex -5.09878 15.6924 0
      vertex -4.20263 12.9344 0
      vertex -3.09179 16.2077 0
    endloop
  endfacet
  facet normal 0 0 1
    outer loop
      vertex -5.09878 15.6924 0
      vertex -5.7906 12.3056 0
      vertex -4.20263 12.9344 0
    endloop
  endfacet
  facet normal -0 0 1
    outer loop
      vertex -7.02536 14.9296 0
      vertex -5.7906 12.3056 0
      vertex -5.09878 15.6924 0
    endloop
  endfacet
  facet normal 0 0 1
    outer loop
      vertex -7.02536 14.9296 0
      vertex -7.28724 11.4829 0
      vertex -5.7906 12.3056 0
    endloop
  endfacet
  facet normal -0 0 1
    outer loop
      vertex -8.84114 13.9314 0
      vertex -7.28724 11.4829 0
      vertex -7.02536 14.9296 0
    endloop
  endfacet
  facet normal 0 0 1
    outer loop
      vertex -7.28724 11.4829 0
      vertex -8.84114 13.9314 0
      vertex -8.66897 10.479 0
    endloop
  endfacet
  facet normal -0 0 1
    outer loop
      vertex -10.5175 12.7135 0
      vertex -8.66897 10.479 0
      vertex -8.84114 13.9314 0
    endloop
  endfacet
  facet normal 0 0 1
    outer loop
      vertex -8.66897 10.479 0
      vertex -10.5175 12.7135 0
      vertex -9.91397 9.30984 0
    endloop
  endfacet
  facet normal -0 0 1
    outer loop
      vertex -12.028 11.295 0
      vertex -9.91397 9.30984 0
      vertex -10.5175 12.7135 0
    endloop
  endfacet
  facet normal 0 0 1
    outer loop
      vertex -9.91397 9.30984 0
      vertex -12.028 11.295 0
      vertex -11.0026 7.99388 0
    endloop
  endfacet
  facet normal -0 0 1
    outer loop
      vertex -13.3488 9.69846 0
      vertex -11.0026 7.99388 0
      vertex -12.028 11.295 0
    endloop
  endfacet
  facet normal 0 0 1
    outer loop
      vertex -11.0026 7.99388 0
      vertex -13.3488 9.69846 0
      vertex -11.9178 6.55185 0
    endloop
  endfacet
  facet normal -0 0 1
    outer loop
      vertex -14.4591 7.94894 0
      vertex -11.9178 6.55185 0
      vertex -13.3488 9.69846 0
    endloop
  endfacet
  facet normal 0 0 1
    outer loop
      vertex -11.9178 6.55185 0
      vertex -14.4591 7.94894 0
      vertex -12.645 5.00649 0
    endloop
  endfacet
  facet normal -0 0 1
    outer loop
      vertex -15.3413 6.07405 0
      vertex -12.645 5.00649 0
      vertex -14.4591 7.94894 0
    endloop
  endfacet
  facet normal 0 0 1
    outer loop
      vertex -12.645 5.00649 0
      vertex -15.3413 6.07405 0
      vertex -13.1727 3.38218 0
    endloop
  endfacet
  facet normal -0 0 1
    outer loop
      vertex -15.9816 4.10338 0
      vertex -13.1727 3.38218 0
      vertex -15.3413 6.07405 0
    endloop
  endfacet
  facet normal 0 0 1
    outer loop
      vertex 15.9816 -4.10338 0
      vertex 13.1727 -3.38218 0
      vertex 15.3413 -6.07405 0
    endloop
  endfacet
  facet normal -0 0 1
    outer loop
      vertex 12.645 -5.00649 0
      vertex 15.3413 -6.07405 0
      vertex 13.1727 -3.38218 0
    endloop
  endfacet
  facet normal 0 0 1
    outer loop
      vertex 15.3413 -6.07405 0
      vertex 12.645 -5.00649 0
      vertex 14.4591 -7.94894 0
    endloop
  endfacet
  facet normal -0 0 1
    outer loop
      vertex 11.9178 -6.55185 0
      vertex 14.4591 -7.94894 0
      vertex 12.645 -5.00649 0
    endloop
  endfacet
  facet normal 0 0 1
    outer loop
      vertex 14.4591 -7.94894 0
      vertex 11.9178 -6.55185 0
      vertex 13.3488 -9.69846 0
    endloop
  endfacet
  facet normal -0 0 1
    outer loop
      vertex 11.0026 -7.99388 0
      vertex 13.3488 -9.69846 0
      vertex 11.9178 -6.55185 0
    endloop
  endfacet
  facet normal 0 0 1
    outer loop
      vertex 13.3488 -9.69846 0
      vertex 11.0026 -7.99388 0
      vertex 12.028 -11.295 0
    endloop
  endfacet
  facet normal -0 0 1
    outer loop
      vertex 9.91397 -9.30984 0
      vertex 12.028 -11.295 0
      vertex 11.0026 -7.99388 0
    endloop
  endfacet
  facet normal 0 0 1
    outer loop
      vertex 12.028 -11.295 0
      vertex 9.91397 -9.30984 0
      vertex 10.5175 -12.7135 0
    endloop
  endfacet
  facet normal -0 0 1
    outer loop
      vertex 8.66897 -10.479 0
      vertex 10.5175 -12.7135 0
      vertex 9.91397 -9.30984 0
    endloop
  endfacet
  facet normal 0 0 1
    outer loop
      vertex 10.5175 -12.7135 0
      vertex 8.66897 -10.479 0
      vertex 8.84114 -13.9314 0
    endloop
  endfacet
  facet normal -0 0 1
    outer loop
      vertex 7.28724 -11.4829 0
      vertex 8.84114 -13.9314 0
      vertex 8.66897 -10.479 0
    endloop
  endfacet
  facet normal 0 0 1
    outer loop
      vertex 7.28724 -11.4829 0
      vertex 7.02536 -14.9296 0
      vertex 8.84114 -13.9314 0
    endloop
  endfacet
  facet normal -0 0 1
    outer loop
      vertex 5.7906 -12.3056 0
      vertex 7.02536 -14.9296 0
      vertex 7.28724 -11.4829 0
    endloop
  endfacet
  facet normal 0 0 1
    outer loop
      vertex 5.7906 -12.3056 0
      vertex 5.09878 -15.6924 0
      vertex 7.02536 -14.9296 0
    endloop
  endfacet
  facet normal -0 0 1
    outer loop
      vertex 4.20263 -12.9344 0
      vertex 5.09878 -15.6924 0
      vertex 5.7906 -12.3056 0
    endloop
  endfacet
  facet normal 0 0 1
    outer loop
      vertex 4.20263 -12.9344 0
      vertex 3.09179 -16.2077 0
      vertex 5.09878 -15.6924 0
    endloop
  endfacet
  facet normal -0 0 1
    outer loop
      vertex 2.54839 -13.3591 0
      vertex 3.09179 -16.2077 0
      vertex 4.20263 -12.9344 0
    endloop
  endfacet
  facet normal 0 0 1
    outer loop
      vertex 2.54839 -13.3591 0
      vertex 1.03604 -16.4674 0
      vertex 3.09179 -16.2077 0
    endloop
  endfacet
  facet normal -0 0 1
    outer loop
      vertex 0.853951 -13.5732 0
      vertex 1.03604 -16.4674 0
      vertex 2.54839 -13.3591 0
    endloop
  endfacet
  facet normal -0 0 1
    outer loop
      vertex -0.853951 -13.5732 0
      vertex 1.03604 -16.4674 0
      vertex 0.853951 -13.5732 0
    endloop
  endfacet
  facet normal 0 0 1
    outer loop
      vertex -0.853951 -13.5732 0
      vertex -1.03604 -16.4674 0
      vertex 1.03604 -16.4674 0
    endloop
  endfacet
  facet normal 0 0 1
    outer loop
      vertex -2.54839 -13.3591 0
      vertex -1.03604 -16.4674 0
      vertex -0.853951 -13.5732 0
    endloop
  endfacet
  facet normal 0 0 1
    outer loop
      vertex -2.54839 -13.3591 0
      vertex -3.09179 -16.2077 0
      vertex -1.03604 -16.4674 0
    endloop
  endfacet
  facet normal 0 0 1
    outer loop
      vertex -4.20263 -12.9344 0
      vertex -3.09179 -16.2077 0
      vertex -2.54839 -13.3591 0
    endloop
  endfacet
  facet normal 0 0 1
    outer loop
      vertex -4.20263 -12.9344 0
      vertex -5.09878 -15.6924 0
      vertex -3.09179 -16.2077 0
    endloop
  endfacet
  facet normal 0 0 1
    outer loop
      vertex -5.7906 -12.3056 0
      vertex -5.09878 -15.6924 0
      vertex -4.20263 -12.9344 0
    endloop
  endfacet
  facet normal 0 0 1
    outer loop
      vertex -5.7906 -12.3056 0
      vertex -7.02536 -14.9296 0
      vertex -5.09878 -15.6924 0
    endloop
  endfacet
  facet normal 0 0 1
    outer loop
      vertex -7.28724 -11.4829 0
      vertex -7.02536 -14.9296 0
      vertex -5.7906 -12.3056 0
    endloop
  endfacet
  facet normal 0 0 1
    outer loop
      vertex -8.84114 -13.9314 0
      vertex -7.28724 -11.4829 0
      vertex -8.66897 -10.479 0
    endloop
  endfacet
  facet normal 0 0 1
    outer loop
      vertex -7.28724 -11.4829 0
      vertex -8.84114 -13.9314 0
      vertex -7.02536 -14.9296 0
    endloop
  endfacet
  facet normal 0 0 1
    outer loop
      vertex -10.5175 -12.7135 0
      vertex -8.66897 -10.479 0
      vertex -9.91397 -9.30984 0
    endloop
  endfacet
  facet normal 0 0 1
    outer loop
      vertex -8.66897 -10.479 0
      vertex -10.5175 -12.7135 0
      vertex -8.84114 -13.9314 0
    endloop
  endfacet
  facet normal 0 0 1
    outer loop
      vertex -12.028 -11.295 0
      vertex -9.91397 -9.30984 0
      vertex -11.0026 -7.99388 0
    endloop
  endfacet
  facet normal 0 0 1
    outer loop
      vertex -13.3488 -9.69846 0
      vertex -11.0026 -7.99388 0
      vertex -11.9178 -6.55185 0
    endloop
  endfacet
  facet normal 0 0 1
    outer loop
      vertex -9.91397 -9.30984 0
      vertex -12.028 -11.295 0
      vertex -10.5175 -12.7135 0
    endloop
  endfacet
  facet normal 0 0 1
    outer loop
      vertex -14.4591 -7.94894 0
      vertex -11.9178 -6.55185 0
      vertex -12.645 -5.00649 0
    endloop
  endfacet
  facet normal 0 0 1
    outer loop
      vertex -15.3413 -6.07405 0
      vertex -12.645 -5.00649 0
      vertex -13.1727 -3.38218 0
    endloop
  endfacet
  facet normal 0 0 1
    outer loop
      vertex -11.0026 -7.99388 0
      vertex -13.3488 -9.69846 0
      vertex -12.028 -11.295 0
    endloop
  endfacet
  facet normal 0 0 1
    outer loop
      vertex -15.9816 -4.10338 0
      vertex -13.1727 -3.38218 0
      vertex -13.4928 -1.70453 0
    endloop
  endfacet
  facet normal 0 0 1
    outer loop
      vertex -16.3699 -2.068 0
      vertex -13.4928 -1.70453 0
      vertex -13.6 0 0
    endloop
  endfacet
  facet normal 0 0 1
    outer loop
      vertex -13.1727 3.38218 0
      vertex -15.9816 4.10338 0
      vertex -13.4928 1.70453 0
    endloop
  endfacet
  facet normal 0 0 1
    outer loop
      vertex -11.9178 -6.55185 0
      vertex -14.4591 -7.94894 0
      vertex -13.3488 -9.69846 0
    endloop
  endfacet
  facet normal -0 0 1
    outer loop
      vertex -16.3699 2.068 0
      vertex -13.4928 1.70453 0
      vertex -15.9816 4.10338 0
    endloop
  endfacet
  facet normal 0 0 1
    outer loop
      vertex -12.645 -5.00649 0
      vertex -15.3413 -6.07405 0
      vertex -14.4591 -7.94894 0
    endloop
  endfacet
  facet normal 0 0 1
    outer loop
      vertex -13.4928 1.70453 0
      vertex -16.3699 2.068 0
      vertex -13.6 0 0
    endloop
  endfacet
  facet normal 0 0 1
    outer loop
      vertex -13.1727 -3.38218 0
      vertex -15.9816 -4.10338 0
      vertex -15.3413 -6.07405 0
    endloop
  endfacet
  facet normal 0 0 1
    outer loop
      vertex -16.5 0 0
      vertex -13.6 0 0
      vertex -16.3699 2.068 0
    endloop
  endfacet
  facet normal 0 0 1
    outer loop
      vertex -13.4928 -1.70453 0
      vertex -16.3699 -2.068 0
      vertex -15.9816 -4.10338 0
    endloop
  endfacet
  facet normal 0 0 1
    outer loop
      vertex -13.6 0 0
      vertex -16.5 0 0
      vertex -16.3699 -2.068 0
    endloop
  endfacet
  facet normal -0.58777 0.809028 0
    outer loop
      vertex -8.84114 13.9314 -7
      vertex -10.5175 12.7135 0
      vertex -8.84114 13.9314 0
    endloop
  endfacet
  facet normal -0.58777 0.809028 0
    outer loop
      vertex -10.5175 12.7135 0
      vertex -8.84114 13.9314 -7
      vertex -10.5175 12.7135 -7
    endloop
  endfacet
  facet normal -0.125332 0.992115 0
    outer loop
      vertex -1.03604 16.4674 -7
      vertex -3.09179 16.2077 0
      vertex -1.03604 16.4674 0
    endloop
  endfacet
  facet normal -0.125332 0.992115 0
    outer loop
      vertex -3.09179 16.2077 0
      vertex -1.03604 16.4674 -7
      vertex -3.09179 16.2077 -7
    endloop
  endfacet
  facet normal 0.998027 -0.0627869 0
    outer loop
      vertex 16.3699 -2.068 0
      vertex 16.5 0 -7
      vertex 16.5 0 0
    endloop
  endfacet
  facet normal 0.998027 -0.0627869 0
    outer loop
      vertex 16.5 0 -7
      vertex 16.3699 -2.068 0
      vertex 16.3699 -2.068 -7
    endloop
  endfacet
  facet normal 0.982285 -0.187396 0
    outer loop
      vertex 15.9816 -4.10338 0
      vertex 16.3699 -2.068 -7
      vertex 16.3699 -2.068 0
    endloop
  endfacet
  facet normal 0.982285 -0.187396 0
    outer loop
      vertex 16.3699 -2.068 -7
      vertex 15.9816 -4.10338 0
      vertex 15.9816 -4.10338 -7
    endloop
  endfacet
  facet normal -0.684559 -0.728958 0
    outer loop
      vertex -12.028 -11.295 -7
      vertex -10.5175 -12.7135 0
      vertex -12.028 -11.295 0
    endloop
  endfacet
  facet normal -0.684559 -0.728958 -0
    outer loop
      vertex -10.5175 -12.7135 0
      vertex -12.028 -11.295 -7
      vertex -10.5175 -12.7135 -7
    endloop
  endfacet
  facet normal -0.904838 -0.425757 0
    outer loop
      vertex -14.4591 -7.94894 -7
      vertex -15.3413 -6.07405 0
      vertex -15.3413 -6.07405 -7
    endloop
  endfacet
  facet normal -0.904838 -0.425757 0
    outer loop
      vertex -15.3413 -6.07405 0
      vertex -14.4591 -7.94894 -7
      vertex -14.4591 -7.94894 0
    endloop
  endfacet
  facet normal -0.844323 -0.535834 0
    outer loop
      vertex -13.3488 -9.69846 -7
      vertex -14.4591 -7.94894 0
      vertex -14.4591 -7.94894 -7
    endloop
  endfacet
  facet normal -0.844323 -0.535834 0
    outer loop
      vertex -14.4591 -7.94894 0
      vertex -13.3488 -9.69846 -7
      vertex -13.3488 -9.69846 0
    endloop
  endfacet
  facet normal 0 0 -1
    outer loop
      vertex 16.3699 -2.068 -7
      vertex 16.3699 2.068 -7
      vertex 16.5 0 -7
    endloop
  endfacet
  facet normal 0 0 -1
    outer loop
      vertex 15.9816 -4.10338 -7
      vertex 16.3699 2.068 -7
      vertex 16.3699 -2.068 -7
    endloop
  endfacet
  facet normal 0 0 -1
    outer loop
      vertex 15.9816 -4.10338 -7
      vertex 15.9816 4.10338 -7
      vertex 16.3699 2.068 -7
    endloop
  endfacet
  facet normal 0 0 -1
    outer loop
      vertex 15.3413 -6.07405 -7
      vertex 15.9816 4.10338 -7
      vertex 15.9816 -4.10338 -7
    endloop
  endfacet
  facet normal 0 0 -1
    outer loop
      vertex 15.3413 -6.07405 -7
      vertex 15.3413 6.07405 -7
      vertex 15.9816 4.10338 -7
    endloop
  endfacet
  facet normal 0 0 -1
    outer loop
      vertex 14.4591 -7.94894 -7
      vertex 15.3413 6.07405 -7
      vertex 15.3413 -6.07405 -7
    endloop
  endfacet
  facet normal 0 0 -1
    outer loop
      vertex 14.4591 -7.94894 -7
      vertex 14.4591 7.94894 -7
      vertex 15.3413 6.07405 -7
    endloop
  endfacet
  facet normal 0 0 -1
    outer loop
      vertex 13.3488 -9.69846 -7
      vertex 14.4591 7.94894 -7
      vertex 14.4591 -7.94894 -7
    endloop
  endfacet
  facet normal 0 0 -1
    outer loop
      vertex 13.3488 -9.69846 -7
      vertex 13.3488 9.69846 -7
      vertex 14.4591 7.94894 -7
    endloop
  endfacet
  facet normal 0 0 -1
    outer loop
      vertex 12.028 -11.295 -7
      vertex 13.3488 9.69846 -7
      vertex 13.3488 -9.69846 -7
    endloop
  endfacet
  facet normal 0 0 -1
    outer loop
      vertex 12.028 -11.295 -7
      vertex 12.028 11.295 -7
      vertex 13.3488 9.69846 -7
    endloop
  endfacet
  facet normal 0 0 -1
    outer loop
      vertex 10.5175 -12.7135 -7
      vertex 12.028 11.295 -7
      vertex 12.028 -11.295 -7
    endloop
  endfacet
  facet normal 0 0 -1
    outer loop
      vertex 10.5175 -12.7135 -7
      vertex 10.5175 12.7135 -7
      vertex 12.028 11.295 -7
    endloop
  endfacet
  facet normal 0 0 -1
    outer loop
      vertex 8.84114 -13.9314 -7
      vertex 10.5175 12.7135 -7
      vertex 10.5175 -12.7135 -7
    endloop
  endfacet
  facet normal 0 0 -1
    outer loop
      vertex 8.84114 -13.9314 -7
      vertex 8.84114 13.9314 -7
      vertex 10.5175 12.7135 -7
    endloop
  endfacet
  facet normal 0 0 -1
    outer loop
      vertex 7.02536 -14.9296 -7
      vertex 8.84114 13.9314 -7
      vertex 8.84114 -13.9314 -7
    endloop
  endfacet
  facet normal 0 0 -1
    outer loop
      vertex 7.02536 -14.9296 -7
      vertex 7.02536 14.9296 -7
      vertex 8.84114 13.9314 -7
    endloop
  endfacet
  facet normal 0 0 -1
    outer loop
      vertex 5.09878 -15.6924 -7
      vertex 7.02536 14.9296 -7
      vertex 7.02536 -14.9296 -7
    endloop
  endfacet
  facet normal 0 0 -1
    outer loop
      vertex 5.09878 -15.6924 -7
      vertex 5.09878 15.6924 -7
      vertex 7.02536 14.9296 -7
    endloop
  endfacet
  facet normal 0 0 -1
    outer loop
      vertex 3.09179 -16.2077 -7
      vertex 5.09878 15.6924 -7
      vertex 5.09878 -15.6924 -7
    endloop
  endfacet
  facet normal 0 0 -1
    outer loop
      vertex 3.09179 -16.2077 -7
      vertex 3.09179 16.2077 -7
      vertex 5.09878 15.6924 -7
    endloop
  endfacet
  facet normal 0 0 -1
    outer loop
      vertex 1.03604 -16.4674 -7
      vertex 3.09179 16.2077 -7
      vertex 3.09179 -16.2077 -7
    endloop
  endfacet
  facet normal 0 0 -1
    outer loop
      vertex 1.03604 -16.4674 -7
      vertex 1.03604 16.4674 -7
      vertex 3.09179 16.2077 -7
    endloop
  endfacet
  facet normal 0 0 -1
    outer loop
      vertex -1.03604 -16.4674 -7
      vertex 1.03604 16.4674 -7
      vertex 1.03604 -16.4674 -7
    endloop
  endfacet
  facet normal 0 0 -1
    outer loop
      vertex -1.03604 -16.4674 -7
      vertex -1.03604 16.4674 -7
      vertex 1.03604 16.4674 -7
    endloop
  endfacet
  facet normal 0 0 -1
    outer loop
      vertex -3.09179 -16.2077 -7
      vertex -1.03604 16.4674 -7
      vertex -1.03604 -16.4674 -7
    endloop
  endfacet
  facet normal 0 0 -1
    outer loop
      vertex -3.09179 -16.2077 -7
      vertex -3.09179 16.2077 -7
      vertex -1.03604 16.4674 -7
    endloop
  endfacet
  facet normal 0 0 -1
    outer loop
      vertex -5.09878 -15.6924 -7
      vertex -3.09179 16.2077 -7
      vertex -3.09179 -16.2077 -7
    endloop
  endfacet
  facet normal 0 0 -1
    outer loop
      vertex -5.09878 -15.6924 -7
      vertex -5.09878 15.6924 -7
      vertex -3.09179 16.2077 -7
    endloop
  endfacet
  facet normal 0 0 -1
    outer loop
      vertex -7.02536 -14.9296 -7
      vertex -5.09878 15.6924 -7
      vertex -5.09878 -15.6924 -7
    endloop
  endfacet
  facet normal 0 0 -1
    outer loop
      vertex -7.02536 -14.9296 -7
      vertex -7.02536 14.9296 -7
      vertex -5.09878 15.6924 -7
    endloop
  endfacet
  facet normal 0 0 -1
    outer loop
      vertex -8.84114 -13.9314 -7
      vertex -7.02536 14.9296 -7
      vertex -7.02536 -14.9296 -7
    endloop
  endfacet
  facet normal 0 0 -1
    outer loop
      vertex -8.84114 -13.9314 -7
      vertex -8.84114 13.9314 -7
      vertex -7.02536 14.9296 -7
    endloop
  endfacet
  facet normal 0 0 -1
    outer loop
      vertex -10.5175 -12.7135 -7
      vertex -8.84114 13.9314 -7
      vertex -8.84114 -13.9314 -7
    endloop
  endfacet
  facet normal 0 0 -1
    outer loop
      vertex -10.5175 -12.7135 -7
      vertex -10.5175 12.7135 -7
      vertex -8.84114 13.9314 -7
    endloop
  endfacet
  facet normal 0 0 -1
    outer loop
      vertex -12.028 -11.295 -7
      vertex -10.5175 12.7135 -7
      vertex -10.5175 -12.7135 -7
    endloop
  endfacet
  facet normal 0 0 -1
    outer loop
      vertex -12.028 -11.295 -7
      vertex -12.028 11.295 -7
      vertex -10.5175 12.7135 -7
    endloop
  endfacet
  facet normal 0 0 -1
    outer loop
      vertex -13.3488 -9.69846 -7
      vertex -12.028 11.295 -7
      vertex -12.028 -11.295 -7
    endloop
  endfacet
  facet normal 0 0 -1
    outer loop
      vertex -13.3488 -9.69846 -7
      vertex -13.3488 9.69846 -7
      vertex -12.028 11.295 -7
    endloop
  endfacet
  facet normal 0 0 -1
    outer loop
      vertex -14.4591 -7.94894 -7
      vertex -13.3488 9.69846 -7
      vertex -13.3488 -9.69846 -7
    endloop
  endfacet
  facet normal 0 0 -1
    outer loop
      vertex -14.4591 -7.94894 -7
      vertex -14.4591 7.94894 -7
      vertex -13.3488 9.69846 -7
    endloop
  endfacet
  facet normal 0 0 -1
    outer loop
      vertex -15.3413 -6.07405 -7
      vertex -14.4591 7.94894 -7
      vertex -14.4591 -7.94894 -7
    endloop
  endfacet
  facet normal 0 0 -1
    outer loop
      vertex -15.3413 -6.07405 -7
      vertex -15.3413 6.07405 -7
      vertex -14.4591 7.94894 -7
    endloop
  endfacet
  facet normal 0 0 -1
    outer loop
      vertex -15.9816 -4.10338 -7
      vertex -15.3413 6.07405 -7
      vertex -15.3413 -6.07405 -7
    endloop
  endfacet
  facet normal 0 0 -1
    outer loop
      vertex -15.9816 -4.10338 -7
      vertex -15.9816 4.10338 -7
      vertex -15.3413 6.07405 -7
    endloop
  endfacet
  facet normal 0 0 -1
    outer loop
      vertex -16.3699 -2.068 -7
      vertex -15.9816 4.10338 -7
      vertex -15.9816 -4.10338 -7
    endloop
  endfacet
  facet normal 0 0 -1
    outer loop
      vertex -16.3699 -2.068 -7
      vertex -16.3699 2.068 -7
      vertex -15.9816 4.10338 -7
    endloop
  endfacet
  facet normal 0 -0 -1
    outer loop
      vertex -16.3699 2.068 -7
      vertex -16.3699 -2.068 -7
      vertex -16.5 0 -7
    endloop
  endfacet
  facet normal 0.481741 -0.876314 0
    outer loop
      vertex 7.02536 -14.9296 -7
      vertex 8.84114 -13.9314 0
      vertex 7.02536 -14.9296 0
    endloop
  endfacet
  facet normal 0.481741 -0.876314 0
    outer loop
      vertex 8.84114 -13.9314 0
      vertex 7.02536 -14.9296 -7
      vertex 8.84114 -13.9314 -7
    endloop
  endfacet
  facet normal 0.904838 -0.425757 0
    outer loop
      vertex 14.4591 -7.94894 0
      vertex 15.3413 -6.07405 -7
      vertex 15.3413 -6.07405 0
    endloop
  endfacet
  facet normal 0.904838 -0.425757 0
    outer loop
      vertex 15.3413 -6.07405 -7
      vertex 14.4591 -7.94894 0
      vertex 14.4591 -7.94894 -7
    endloop
  endfacet
  facet normal -0.770507 -0.637432 0
    outer loop
      vertex -12.028 -11.295 -7
      vertex -13.3488 -9.69846 0
      vertex -13.3488 -9.69846 -7
    endloop
  endfacet
  facet normal -0.770507 -0.637432 0
    outer loop
      vertex -13.3488 -9.69846 0
      vertex -12.028 -11.295 -7
      vertex -12.028 -11.295 0
    endloop
  endfacet
  facet normal -0.951058 -0.309013 0
    outer loop
      vertex -15.3413 -6.07405 -7
      vertex -15.9816 -4.10338 0
      vertex -15.9816 -4.10338 -7
    endloop
  endfacet
  facet normal -0.951058 -0.309013 0
    outer loop
      vertex -15.9816 -4.10338 0
      vertex -15.3413 -6.07405 -7
      vertex -15.3413 -6.07405 0
    endloop
  endfacet
  facet normal 0.58777 -0.809028 0
    outer loop
      vertex 8.84114 -13.9314 -7
      vertex 10.5175 -12.7135 0
      vertex 8.84114 -13.9314 0
    endloop
  endfacet
  facet normal 0.58777 -0.809028 0
    outer loop
      vertex 10.5175 -12.7135 0
      vertex 8.84114 -13.9314 -7
      vertex 10.5175 -12.7135 -7
    endloop
  endfacet
  facet normal 0.248687 -0.968584 0
    outer loop
      vertex 3.09179 -16.2077 -7
      vertex 5.09878 -15.6924 0
      vertex 3.09179 -16.2077 0
    endloop
  endfacet
  facet normal 0.248687 -0.968584 0
    outer loop
      vertex 5.09878 -15.6924 0
      vertex 3.09179 -16.2077 -7
      vertex 5.09878 -15.6924 -7
    endloop
  endfacet
  facet normal 0.844323 -0.535834 0
    outer loop
      vertex 13.3488 -9.69846 0
      vertex 14.4591 -7.94894 -7
      vertex 14.4591 -7.94894 0
    endloop
  endfacet
  facet normal 0.844323 -0.535834 0
    outer loop
      vertex 14.4591 -7.94894 -7
      vertex 13.3488 -9.69846 0
      vertex 13.3488 -9.69846 -7
    endloop
  endfacet
  facet normal 0.770507 -0.637432 0
    outer loop
      vertex 12.028 -11.295 0
      vertex 13.3488 -9.69846 -7
      vertex 13.3488 -9.69846 0
    endloop
  endfacet
  facet normal 0.770507 -0.637432 0
    outer loop
      vertex 13.3488 -9.69846 -7
      vertex 12.028 -11.295 0
      vertex 12.028 -11.295 -7
    endloop
  endfacet
  facet normal 0.951058 -0.309013 0
    outer loop
      vertex 15.3413 -6.07405 0
      vertex 15.9816 -4.10338 -7
      vertex 15.9816 -4.10338 0
    endloop
  endfacet
  facet normal 0.951058 -0.309013 0
    outer loop
      vertex 15.9816 -4.10338 -7
      vertex 15.3413 -6.07405 0
      vertex 15.3413 -6.07405 -7
    endloop
  endfacet
  facet normal -0.125332 -0.992115 0
    outer loop
      vertex -3.09179 -16.2077 -7
      vertex -1.03604 -16.4674 0
      vertex -3.09179 -16.2077 0
    endloop
  endfacet
  facet normal -0.125332 -0.992115 -0
    outer loop
      vertex -1.03604 -16.4674 0
      vertex -3.09179 -16.2077 -7
      vertex -1.03604 -16.4674 -7
    endloop
  endfacet
  facet normal -0.36813 -0.929774 0
    outer loop
      vertex -7.02536 -14.9296 -7
      vertex -5.09878 -15.6924 0
      vertex -7.02536 -14.9296 0
    endloop
  endfacet
  facet normal -0.36813 -0.929774 -0
    outer loop
      vertex -5.09878 -15.6924 0
      vertex -7.02536 -14.9296 -7
      vertex -5.09878 -15.6924 -7
    endloop
  endfacet
  facet normal -0.248687 -0.968584 0
    outer loop
      vertex -5.09878 -15.6924 -7
      vertex -3.09179 -16.2077 0
      vertex -5.09878 -15.6924 0
    endloop
  endfacet
  facet normal -0.248687 -0.968584 -0
    outer loop
      vertex -3.09179 -16.2077 0
      vertex -5.09878 -15.6924 -7
      vertex -3.09179 -16.2077 -7
    endloop
  endfacet
  facet normal -0.982285 -0.187396 0
    outer loop
      vertex -15.9816 -4.10338 -7
      vertex -16.3699 -2.068 0
      vertex -16.3699 -2.068 -7
    endloop
  endfacet
  facet normal -0.982285 -0.187396 0
    outer loop
      vertex -16.3699 -2.068 0
      vertex -15.9816 -4.10338 -7
      vertex -15.9816 -4.10338 0
    endloop
  endfacet
  facet normal -0.998027 -0.0627869 0
    outer loop
      vertex -16.3699 -2.068 -7
      vertex -16.5 0 0
      vertex -16.5 0 -7
    endloop
  endfacet
  facet normal -0.998027 -0.0627869 0
    outer loop
      vertex -16.5 0 0
      vertex -16.3699 -2.068 -7
      vertex -16.3699 -2.068 0
    endloop
  endfacet
  facet normal 0.684559 -0.728958 0
    outer loop
      vertex 10.5175 -12.7135 -7
      vertex 12.028 -11.295 0
      vertex 10.5175 -12.7135 0
    endloop
  endfacet
  facet normal 0.684559 -0.728958 0
    outer loop
      vertex 12.028 -11.295 0
      vertex 10.5175 -12.7135 -7
      vertex 12.028 -11.295 -7
    endloop
  endfacet
  facet normal -0.481741 -0.876314 0
    outer loop
      vertex -8.84114 -13.9314 -7
      vertex -7.02536 -14.9296 0
      vertex -8.84114 -13.9314 0
    endloop
  endfacet
  facet normal -0.481741 -0.876314 -0
    outer loop
      vertex -7.02536 -14.9296 0
      vertex -8.84114 -13.9314 -7
      vertex -7.02536 -14.9296 -7
    endloop
  endfacet
  facet normal -0.58777 -0.809028 0
    outer loop
      vertex -10.5175 -12.7135 -7
      vertex -8.84114 -13.9314 0
      vertex -10.5175 -12.7135 0
    endloop
  endfacet
  facet normal -0.58777 -0.809028 -0
    outer loop
      vertex -8.84114 -13.9314 0
      vertex -10.5175 -12.7135 -7
      vertex -8.84114 -13.9314 -7
    endloop
  endfacet
  facet normal -0.998028 -0.0627672 0
    outer loop
      vertex 13.6 0 -6
      vertex 13.4928 1.70453 0
      vertex 13.4928 1.70453 -6
    endloop
  endfacet
  facet normal -0.998028 -0.0627672 0
    outer loop
      vertex 13.4928 1.70453 0
      vertex 13.6 0 -6
      vertex 13.6 0 0
    endloop
  endfacet
  facet normal 0.998028 -0.0627672 0
    outer loop
      vertex -13.6 0 0
      vertex -13.4928 1.70453 -6
      vertex -13.4928 1.70453 0
    endloop
  endfacet
  facet normal 0.998028 -0.0627672 0
    outer loop
      vertex -13.4928 1.70453 -6
      vertex -13.6 0 0
      vertex -13.6 0 -6
    endloop
  endfacet
  facet normal 0 -1 0
    outer loop
      vertex -0.853951 13.5732 -6
      vertex 0.853951 13.5732 0
      vertex -0.853951 13.5732 0
    endloop
  endfacet
  facet normal 0 -1 -0
    outer loop
      vertex 0.853951 13.5732 0
      vertex -0.853951 13.5732 -6
      vertex 0.853951 13.5732 -6
    endloop
  endfacet
  facet normal 0 1 -0
    outer loop
      vertex 0.853951 -13.5732 -6
      vertex -0.853951 -13.5732 0
      vertex 0.853951 -13.5732 0
    endloop
  endfacet
  facet normal 0 1 0
    outer loop
      vertex -0.853951 -13.5732 0
      vertex 0.853951 -13.5732 -6
      vertex -0.853951 -13.5732 -6
    endloop
  endfacet
  facet normal -0.684556 -0.728961 0
    outer loop
      vertex 8.66897 10.479 -6
      vertex 9.91397 9.30984 0
      vertex 8.66897 10.479 0
    endloop
  endfacet
  facet normal -0.684556 -0.728961 -0
    outer loop
      vertex 9.91397 9.30984 0
      vertex 8.66897 10.479 -6
      vertex 9.91397 9.30984 -6
    endloop
  endfacet
  facet normal 0.684556 -0.728961 0
    outer loop
      vertex -9.91397 9.30984 -6
      vertex -8.66897 10.479 0
      vertex -9.91397 9.30984 0
    endloop
  endfacet
  facet normal 0.684556 -0.728961 0
    outer loop
      vertex -8.66897 10.479 0
      vertex -9.91397 9.30984 -6
      vertex -8.66897 10.479 -6
    endloop
  endfacet
  facet normal 0.368164 -0.929761 0
    outer loop
      vertex -5.7906 12.3056 -6
      vertex -4.20263 12.9344 0
      vertex -5.7906 12.3056 0
    endloop
  endfacet
  facet normal 0.368164 -0.929761 0
    outer loop
      vertex -4.20263 12.9344 0
      vertex -5.7906 12.3056 -6
      vertex -4.20263 12.9344 -6
    endloop
  endfacet
  facet normal -0.904825 -0.425784 0
    outer loop
      vertex 12.645 5.00649 -6
      vertex 11.9178 6.55185 0
      vertex 11.9178 6.55185 -6
    endloop
  endfacet
  facet normal -0.904825 -0.425784 0
    outer loop
      vertex 11.9178 6.55185 0
      vertex 12.645 5.00649 -6
      vertex 12.645 5.00649 0
    endloop
  endfacet
  facet normal -0.98228 -0.187422 0
    outer loop
      vertex 13.4928 1.70453 -6
      vertex 13.1727 3.38218 0
      vertex 13.1727 3.38218 -6
    endloop
  endfacet
  facet normal -0.98228 -0.187422 0
    outer loop
      vertex 13.1727 3.38218 0
      vertex 13.4928 1.70453 -6
      vertex 13.4928 1.70453 0
    endloop
  endfacet
  facet normal -0.368164 -0.929761 0
    outer loop
      vertex 4.20263 12.9344 -6
      vertex 5.7906 12.3056 0
      vertex 4.20263 12.9344 0
    endloop
  endfacet
  facet normal -0.368164 -0.929761 -0
    outer loop
      vertex 5.7906 12.3056 0
      vertex 4.20263 12.9344 -6
      vertex 5.7906 12.3056 -6
    endloop
  endfacet
  facet normal -0.24867 -0.968588 0
    outer loop
      vertex 2.54839 13.3591 -6
      vertex 4.20263 12.9344 0
      vertex 2.54839 13.3591 0
    endloop
  endfacet
  facet normal -0.24867 -0.968588 -0
    outer loop
      vertex 4.20263 12.9344 0
      vertex 2.54839 13.3591 -6
      vertex 4.20263 12.9344 -6
    endloop
  endfacet
  facet normal -0.481716 -0.876328 0
    outer loop
      vertex 5.7906 12.3056 -6
      vertex 7.28724 11.4829 0
      vertex 5.7906 12.3056 0
    endloop
  endfacet
  facet normal -0.481716 -0.876328 -0
    outer loop
      vertex 7.28724 11.4829 0
      vertex 5.7906 12.3056 -6
      vertex 7.28724 11.4829 -6
    endloop
  endfacet
  facet normal 0.904825 -0.425784 0
    outer loop
      vertex -12.645 5.00649 0
      vertex -11.9178 6.55185 -6
      vertex -11.9178 6.55185 0
    endloop
  endfacet
  facet normal 0.904825 -0.425784 0
    outer loop
      vertex -11.9178 6.55185 -6
      vertex -12.645 5.00649 0
      vertex -12.645 5.00649 -6
    endloop
  endfacet
  facet normal 0.125358 -0.992112 0
    outer loop
      vertex -2.54839 13.3591 -6
      vertex -0.853951 13.5732 0
      vertex -2.54839 13.3591 0
    endloop
  endfacet
  facet normal 0.125358 -0.992112 0
    outer loop
      vertex -0.853951 13.5732 0
      vertex -2.54839 13.3591 -6
      vertex -0.853951 13.5732 -6
    endloop
  endfacet
  facet normal -0.98228 0.187422 0
    outer loop
      vertex 13.1727 -3.38218 -6
      vertex 13.4928 -1.70453 0
      vertex 13.4928 -1.70453 -6
    endloop
  endfacet
  facet normal -0.98228 0.187422 0
    outer loop
      vertex 13.4928 -1.70453 0
      vertex 13.1727 -3.38218 -6
      vertex 13.1727 -3.38218 0
    endloop
  endfacet
  facet normal 0 0 1
    outer loop
      vertex 13.4928 1.70453 -6
      vertex 13.4928 -1.70453 -6
      vertex 13.6 0 -6
    endloop
  endfacet
  facet normal 0 0 1
    outer loop
      vertex 13.1727 3.38218 -6
      vertex 13.4928 -1.70453 -6
      vertex 13.4928 1.70453 -6
    endloop
  endfacet
  facet normal 0 0 1
    outer loop
      vertex 13.1727 3.38218 -6
      vertex 13.1727 -3.38218 -6
      vertex 13.4928 -1.70453 -6
    endloop
  endfacet
  facet normal 0 0 1
    outer loop
      vertex 12.645 5.00649 -6
      vertex 13.1727 -3.38218 -6
      vertex 13.1727 3.38218 -6
    endloop
  endfacet
  facet normal 0 0 1
    outer loop
      vertex 12.645 5.00649 -6
      vertex 12.645 -5.00649 -6
      vertex 13.1727 -3.38218 -6
    endloop
  endfacet
  facet normal 0 0 1
    outer loop
      vertex 11.9178 6.55185 -6
      vertex 12.645 -5.00649 -6
      vertex 12.645 5.00649 -6
    endloop
  endfacet
  facet normal 0 0 1
    outer loop
      vertex 11.9178 6.55185 -6
      vertex 11.9178 -6.55185 -6
      vertex 12.645 -5.00649 -6
    endloop
  endfacet
  facet normal 0 0 1
    outer loop
      vertex 11.0026 7.99388 -6
      vertex 11.9178 -6.55185 -6
      vertex 11.9178 6.55185 -6
    endloop
  endfacet
  facet normal 0 0 1
    outer loop
      vertex 11.0026 7.99388 -6
      vertex 11.0026 -7.99388 -6
      vertex 11.9178 -6.55185 -6
    endloop
  endfacet
  facet normal 0 0 1
    outer loop
      vertex 9.91397 9.30984 -6
      vertex 11.0026 -7.99388 -6
      vertex 11.0026 7.99388 -6
    endloop
  endfacet
  facet normal 0 0 1
    outer loop
      vertex 9.91397 9.30984 -6
      vertex 9.91397 -9.30984 -6
      vertex 11.0026 -7.99388 -6
    endloop
  endfacet
  facet normal 0 0 1
    outer loop
      vertex 8.66897 10.479 -6
      vertex 9.91397 -9.30984 -6
      vertex 9.91397 9.30984 -6
    endloop
  endfacet
  facet normal 0 0 1
    outer loop
      vertex 8.66897 10.479 -6
      vertex 8.66897 -10.479 -6
      vertex 9.91397 -9.30984 -6
    endloop
  endfacet
  facet normal 0 0 1
    outer loop
      vertex 7.28724 11.4829 -6
      vertex 8.66897 -10.479 -6
      vertex 8.66897 10.479 -6
    endloop
  endfacet
  facet normal 0 0 1
    outer loop
      vertex 7.28724 11.4829 -6
      vertex 7.28724 -11.4829 -6
      vertex 8.66897 -10.479 -6
    endloop
  endfacet
  facet normal 0 0 1
    outer loop
      vertex 5.7906 12.3056 -6
      vertex 7.28724 -11.4829 -6
      vertex 7.28724 11.4829 -6
    endloop
  endfacet
  facet normal 0 0 1
    outer loop
      vertex 5.7906 12.3056 -6
      vertex 5.7906 -12.3056 -6
      vertex 7.28724 -11.4829 -6
    endloop
  endfacet
  facet normal 0 0 1
    outer loop
      vertex 4.20263 12.9344 -6
      vertex 5.7906 -12.3056 -6
      vertex 5.7906 12.3056 -6
    endloop
  endfacet
  facet normal 0 0 1
    outer loop
      vertex 4.20263 12.9344 -6
      vertex 4.20263 -12.9344 -6
      vertex 5.7906 -12.3056 -6
    endloop
  endfacet
  facet normal 0 0 1
    outer loop
      vertex 2.54839 13.3591 -6
      vertex 4.20263 -12.9344 -6
      vertex 4.20263 12.9344 -6
    endloop
  endfacet
  facet normal 0 0 1
    outer loop
      vertex 2.54839 13.3591 -6
      vertex 2.54839 -13.3591 -6
      vertex 4.20263 -12.9344 -6
    endloop
  endfacet
  facet normal 0 0 1
    outer loop
      vertex 0.853951 13.5732 -6
      vertex 2.54839 -13.3591 -6
      vertex 2.54839 13.3591 -6
    endloop
  endfacet
  facet normal 0 0 1
    outer loop
      vertex 0.853951 13.5732 -6
      vertex 0.853951 -13.5732 -6
      vertex 2.54839 -13.3591 -6
    endloop
  endfacet
  facet normal -0 0 1
    outer loop
      vertex -0.853951 13.5732 -6
      vertex 0.853951 -13.5732 -6
      vertex 0.853951 13.5732 -6
    endloop
  endfacet
  facet normal 0 0 1
    outer loop
      vertex -0.853951 13.5732 -6
      vertex -0.853951 -13.5732 -6
      vertex 0.853951 -13.5732 -6
    endloop
  endfacet
  facet normal -0 0 1
    outer loop
      vertex -2.54839 13.3591 -6
      vertex -0.853951 -13.5732 -6
      vertex -0.853951 13.5732 -6
    endloop
  endfacet
  facet normal 0 0 1
    outer loop
      vertex -2.54839 13.3591 -6
      vertex -2.54839 -13.3591 -6
      vertex -0.853951 -13.5732 -6
    endloop
  endfacet
  facet normal -0 0 1
    outer loop
      vertex -4.20263 12.9344 -6
      vertex -2.54839 -13.3591 -6
      vertex -2.54839 13.3591 -6
    endloop
  endfacet
  facet normal 0 0 1
    outer loop
      vertex -4.20263 12.9344 -6
      vertex -4.20263 -12.9344 -6
      vertex -2.54839 -13.3591 -6
    endloop
  endfacet
  facet normal -0 0 1
    outer loop
      vertex -5.7906 12.3056 -6
      vertex -4.20263 -12.9344 -6
      vertex -4.20263 12.9344 -6
    endloop
  endfacet
  facet normal 0 0 1
    outer loop
      vertex -5.7906 12.3056 -6
      vertex -5.7906 -12.3056 -6
      vertex -4.20263 -12.9344 -6
    endloop
  endfacet
  facet normal -0 0 1
    outer loop
      vertex -7.28724 11.4829 -6
      vertex -5.7906 -12.3056 -6
      vertex -5.7906 12.3056 -6
    endloop
  endfacet
  facet normal 0 0 1
    outer loop
      vertex -7.28724 11.4829 -6
      vertex -7.28724 -11.4829 -6
      vertex -5.7906 -12.3056 -6
    endloop
  endfacet
  facet normal -0 0 1
    outer loop
      vertex -8.66897 10.479 -6
      vertex -7.28724 -11.4829 -6
      vertex -7.28724 11.4829 -6
    endloop
  endfacet
  facet normal 0 0 1
    outer loop
      vertex -8.66897 10.479 -6
      vertex -8.66897 -10.479 -6
      vertex -7.28724 -11.4829 -6
    endloop
  endfacet
  facet normal -0 0 1
    outer loop
      vertex -9.91397 9.30984 -6
      vertex -8.66897 -10.479 -6
      vertex -8.66897 10.479 -6
    endloop
  endfacet
  facet normal 0 0 1
    outer loop
      vertex -9.91397 9.30984 -6
      vertex -9.91397 -9.30984 -6
      vertex -8.66897 -10.479 -6
    endloop
  endfacet
  facet normal -0 0 1
    outer loop
      vertex -11.0026 7.99388 -6
      vertex -9.91397 -9.30984 -6
      vertex -9.91397 9.30984 -6
    endloop
  endfacet
  facet normal 0 0 1
    outer loop
      vertex -11.0026 7.99388 -6
      vertex -11.0026 -7.99388 -6
      vertex -9.91397 -9.30984 -6
    endloop
  endfacet
  facet normal -0 0 1
    outer loop
      vertex -11.9178 6.55185 -6
      vertex -11.0026 -7.99388 -6
      vertex -11.0026 7.99388 -6
    endloop
  endfacet
  facet normal 0 0 1
    outer loop
      vertex -11.9178 6.55185 -6
      vertex -11.9178 -6.55185 -6
      vertex -11.0026 -7.99388 -6
    endloop
  endfacet
  facet normal -0 0 1
    outer loop
      vertex -12.645 5.00649 -6
      vertex -11.9178 -6.55185 -6
      vertex -11.9178 6.55185 -6
    endloop
  endfacet
  facet normal 0 0 1
    outer loop
      vertex -12.645 5.00649 -6
      vertex -12.645 -5.00649 -6
      vertex -11.9178 -6.55185 -6
    endloop
  endfacet
  facet normal -0 0 1
    outer loop
      vertex -13.1727 3.38218 -6
      vertex -12.645 -5.00649 -6
      vertex -12.645 5.00649 -6
    endloop
  endfacet
  facet normal 0 0 1
    outer loop
      vertex -13.1727 3.38218 -6
      vertex -13.1727 -3.38218 -6
      vertex -12.645 -5.00649 -6
    endloop
  endfacet
  facet normal -0 0 1
    outer loop
      vertex -13.4928 1.70453 -6
      vertex -13.1727 -3.38218 -6
      vertex -13.1727 3.38218 -6
    endloop
  endfacet
  facet normal 0 0 1
    outer loop
      vertex -13.4928 1.70453 -6
      vertex -13.4928 -1.70453 -6
      vertex -13.1727 -3.38218 -6
    endloop
  endfacet
  facet normal 0 -0 1
    outer loop
      vertex -13.4928 -1.70453 -6
      vertex -13.4928 1.70453 -6
      vertex -13.6 0 -6
    endloop
  endfacet
  facet normal -0.125358 0.992112 0
    outer loop
      vertex 2.54839 -13.3591 -6
      vertex 0.853951 -13.5732 0
      vertex 2.54839 -13.3591 0
    endloop
  endfacet
  facet normal -0.125358 0.992112 0
    outer loop
      vertex 0.853951 -13.5732 0
      vertex 2.54839 -13.3591 -6
      vertex 0.853951 -13.5732 -6
    endloop
  endfacet
  facet normal -0.951069 -0.30898 0
    outer loop
      vertex 13.1727 3.38218 -6
      vertex 12.645 5.00649 0
      vertex 12.645 5.00649 -6
    endloop
  endfacet
  facet normal -0.951069 -0.30898 0
    outer loop
      vertex 12.645 5.00649 0
      vertex 13.1727 3.38218 -6
      vertex 13.1727 3.38218 0
    endloop
  endfacet
  facet normal -0.770521 -0.637415 0
    outer loop
      vertex 11.0026 7.99388 -6
      vertex 9.91397 9.30984 0
      vertex 9.91397 9.30984 -6
    endloop
  endfacet
  facet normal -0.770521 -0.637415 0
    outer loop
      vertex 9.91397 9.30984 0
      vertex 11.0026 7.99388 -6
      vertex 11.0026 7.99388 0
    endloop
  endfacet
  facet normal -0.844312 -0.535852 0
    outer loop
      vertex 11.9178 6.55185 -6
      vertex 11.0026 7.99388 0
      vertex 11.0026 7.99388 -6
    endloop
  endfacet
  facet normal -0.844312 -0.535852 0
    outer loop
      vertex 11.0026 7.99388 0
      vertex 11.9178 6.55185 -6
      vertex 11.9178 6.55185 0
    endloop
  endfacet
  facet normal -0.125358 -0.992112 0
    outer loop
      vertex 0.853951 13.5732 -6
      vertex 2.54839 13.3591 0
      vertex 0.853951 13.5732 0
    endloop
  endfacet
  facet normal -0.125358 -0.992112 -0
    outer loop
      vertex 2.54839 13.3591 0
      vertex 0.853951 13.5732 -6
      vertex 2.54839 13.3591 -6
    endloop
  endfacet
  facet normal -0.587791 -0.809013 0
    outer loop
      vertex 7.28724 11.4829 -6
      vertex 8.66897 10.479 0
      vertex 7.28724 11.4829 0
    endloop
  endfacet
  facet normal -0.587791 -0.809013 -0
    outer loop
      vertex 8.66897 10.479 0
      vertex 7.28724 11.4829 -6
      vertex 8.66897 10.479 -6
    endloop
  endfacet
  facet normal 0.844312 -0.535852 0
    outer loop
      vertex -11.9178 6.55185 0
      vertex -11.0026 7.99388 -6
      vertex -11.0026 7.99388 0
    endloop
  endfacet
  facet normal 0.844312 -0.535852 0
    outer loop
      vertex -11.0026 7.99388 -6
      vertex -11.9178 6.55185 0
      vertex -11.9178 6.55185 -6
    endloop
  endfacet
  facet normal 0.770521 -0.637415 0
    outer loop
      vertex -11.0026 7.99388 0
      vertex -9.91397 9.30984 -6
      vertex -9.91397 9.30984 0
    endloop
  endfacet
  facet normal 0.770521 -0.637415 0
    outer loop
      vertex -9.91397 9.30984 -6
      vertex -11.0026 7.99388 0
      vertex -11.0026 7.99388 -6
    endloop
  endfacet
  facet normal 0.951069 -0.30898 0
    outer loop
      vertex -13.1727 3.38218 0
      vertex -12.645 5.00649 -6
      vertex -12.645 5.00649 0
    endloop
  endfacet
  facet normal 0.951069 -0.30898 0
    outer loop
      vertex -12.645 5.00649 -6
      vertex -13.1727 3.38218 0
      vertex -13.1727 3.38218 -6
    endloop
  endfacet
  facet normal 0.98228 -0.187422 0
    outer loop
      vertex -13.4928 1.70453 0
      vertex -13.1727 3.38218 -6
      vertex -13.1727 3.38218 0
    endloop
  endfacet
  facet normal 0.98228 -0.187422 0
    outer loop
      vertex -13.1727 3.38218 -6
      vertex -13.4928 1.70453 0
      vertex -13.4928 1.70453 -6
    endloop
  endfacet
  facet normal 0.481716 -0.876328 0
    outer loop
      vertex -7.28724 11.4829 -6
      vertex -5.7906 12.3056 0
      vertex -7.28724 11.4829 0
    endloop
  endfacet
  facet normal 0.481716 -0.876328 0
    outer loop
      vertex -5.7906 12.3056 0
      vertex -7.28724 11.4829 -6
      vertex -5.7906 12.3056 -6
    endloop
  endfacet
  facet normal 0.587791 -0.809013 0
    outer loop
      vertex -8.66897 10.479 -6
      vertex -7.28724 11.4829 0
      vertex -8.66897 10.479 0
    endloop
  endfacet
  facet normal 0.587791 -0.809013 0
    outer loop
      vertex -7.28724 11.4829 0
      vertex -8.66897 10.479 -6
      vertex -7.28724 11.4829 -6
    endloop
  endfacet
  facet normal 0.24867 -0.968588 0
    outer loop
      vertex -4.20263 12.9344 -6
      vertex -2.54839 13.3591 0
      vertex -4.20263 12.9344 0
    endloop
  endfacet
  facet normal 0.24867 -0.968588 0
    outer loop
      vertex -2.54839 13.3591 0
      vertex -4.20263 12.9344 -6
      vertex -2.54839 13.3591 -6
    endloop
  endfacet
  facet normal -0.998028 0.0627672 0
    outer loop
      vertex 13.4928 -1.70453 -6
      vertex 13.6 0 0
      vertex 13.6 0 -6
    endloop
  endfacet
  facet normal -0.998028 0.0627672 0
    outer loop
      vertex 13.6 0 0
      vertex 13.4928 -1.70453 -6
      vertex 13.4928 -1.70453 0
    endloop
  endfacet
  facet normal 0.684556 0.728961 -0
    outer loop
      vertex -8.66897 -10.479 -6
      vertex -9.91397 -9.30984 0
      vertex -8.66897 -10.479 0
    endloop
  endfacet
  facet normal 0.684556 0.728961 0
    outer loop
      vertex -9.91397 -9.30984 0
      vertex -8.66897 -10.479 -6
      vertex -9.91397 -9.30984 -6
    endloop
  endfacet
  facet normal 0.904825 0.425784 0
    outer loop
      vertex -11.9178 -6.55185 0
      vertex -12.645 -5.00649 -6
      vertex -12.645 -5.00649 0
    endloop
  endfacet
  facet normal 0.904825 0.425784 0
    outer loop
      vertex -12.645 -5.00649 -6
      vertex -11.9178 -6.55185 0
      vertex -11.9178 -6.55185 -6
    endloop
  endfacet
  facet normal 0.844312 0.535852 0
    outer loop
      vertex -11.0026 -7.99388 0
      vertex -11.9178 -6.55185 -6
      vertex -11.9178 -6.55185 0
    endloop
  endfacet
  facet normal 0.844312 0.535852 0
    outer loop
      vertex -11.9178 -6.55185 -6
      vertex -11.0026 -7.99388 0
      vertex -11.0026 -7.99388 -6
    endloop
  endfacet
  facet normal -0.481716 0.876328 0
    outer loop
      vertex 7.28724 -11.4829 -6
      vertex 5.7906 -12.3056 0
      vertex 7.28724 -11.4829 0
    endloop
  endfacet
  facet normal -0.481716 0.876328 0
    outer loop
      vertex 5.7906 -12.3056 0
      vertex 7.28724 -11.4829 -6
      vertex 5.7906 -12.3056 -6
    endloop
  endfacet
  facet normal -0.904825 0.425784 0
    outer loop
      vertex 11.9178 -6.55185 -6
      vertex 12.645 -5.00649 0
      vertex 12.645 -5.00649 -6
    endloop
  endfacet
  facet normal -0.904825 0.425784 0
    outer loop
      vertex 12.645 -5.00649 0
      vertex 11.9178 -6.55185 -6
      vertex 11.9178 -6.55185 0
    endloop
  endfacet
  facet normal 0.368164 0.929761 -0
    outer loop
      vertex -4.20263 -12.9344 -6
      vertex -5.7906 -12.3056 0
      vertex -4.20263 -12.9344 0
    endloop
  endfacet
  facet normal 0.368164 0.929761 0
    outer loop
      vertex -5.7906 -12.3056 0
      vertex -4.20263 -12.9344 -6
      vertex -5.7906 -12.3056 -6
    endloop
  endfacet
  facet normal 0.481716 0.876328 -0
    outer loop
      vertex -5.7906 -12.3056 -6
      vertex -7.28724 -11.4829 0
      vertex -5.7906 -12.3056 0
    endloop
  endfacet
  facet normal 0.481716 0.876328 0
    outer loop
      vertex -7.28724 -11.4829 0
      vertex -5.7906 -12.3056 -6
      vertex -7.28724 -11.4829 -6
    endloop
  endfacet
  facet normal 0.770521 0.637415 0
    outer loop
      vertex -9.91397 -9.30984 0
      vertex -11.0026 -7.99388 -6
      vertex -11.0026 -7.99388 0
    endloop
  endfacet
  facet normal 0.770521 0.637415 0
    outer loop
      vertex -11.0026 -7.99388 -6
      vertex -9.91397 -9.30984 0
      vertex -9.91397 -9.30984 -6
    endloop
  endfacet
  facet normal 0.98228 0.187422 0
    outer loop
      vertex -13.1727 -3.38218 0
      vertex -13.4928 -1.70453 -6
      vertex -13.4928 -1.70453 0
    endloop
  endfacet
  facet normal 0.98228 0.187422 0
    outer loop
      vertex -13.4928 -1.70453 -6
      vertex -13.1727 -3.38218 0
      vertex -13.1727 -3.38218 -6
    endloop
  endfacet
  facet normal 0.998028 0.0627672 0
    outer loop
      vertex -13.4928 -1.70453 0
      vertex -13.6 0 -6
      vertex -13.6 0 0
    endloop
  endfacet
  facet normal 0.998028 0.0627672 0
    outer loop
      vertex -13.6 0 -6
      vertex -13.4928 -1.70453 0
      vertex -13.4928 -1.70453 -6
    endloop
  endfacet
  facet normal 0.951069 0.30898 0
    outer loop
      vertex -12.645 -5.00649 0
      vertex -13.1727 -3.38218 -6
      vertex -13.1727 -3.38218 0
    endloop
  endfacet
  facet normal 0.951069 0.30898 0
    outer loop
      vertex -13.1727 -3.38218 -6
      vertex -12.645 -5.00649 0
      vertex -12.645 -5.00649 -6
    endloop
  endfacet
  facet normal -0.684556 0.728961 0
    outer loop
      vertex 9.91397 -9.30984 -6
      vertex 8.66897 -10.479 0
      vertex 9.91397 -9.30984 0
    endloop
  endfacet
  facet normal -0.684556 0.728961 0
    outer loop
      vertex 8.66897 -10.479 0
      vertex 9.91397 -9.30984 -6
      vertex 8.66897 -10.479 -6
    endloop
  endfacet
  facet normal -0.368164 0.929761 0
    outer loop
      vertex 5.7906 -12.3056 -6
      vertex 4.20263 -12.9344 0
      vertex 5.7906 -12.3056 0
    endloop
  endfacet
  facet normal -0.368164 0.929761 0
    outer loop
      vertex 4.20263 -12.9344 0
      vertex 5.7906 -12.3056 -6
      vertex 4.20263 -12.9344 -6
    endloop
  endfacet
  facet normal -0.24867 0.968588 0
    outer loop
      vertex 4.20263 -12.9344 -6
      vertex 2.54839 -13.3591 0
      vertex 4.20263 -12.9344 0
    endloop
  endfacet
  facet normal -0.24867 0.968588 0
    outer loop
      vertex 2.54839 -13.3591 0
      vertex 4.20263 -12.9344 -6
      vertex 2.54839 -13.3591 -6
    endloop
  endfacet
  facet normal -0.844312 0.535852 0
    outer loop
      vertex 11.0026 -7.99388 -6
      vertex 11.9178 -6.55185 0
      vertex 11.9178 -6.55185 -6
    endloop
  endfacet
  facet normal -0.844312 0.535852 0
    outer loop
      vertex 11.9178 -6.55185 0
      vertex 11.0026 -7.99388 -6
      vertex 11.0026 -7.99388 0
    endloop
  endfacet
  facet normal -0.770521 0.637415 0
    outer loop
      vertex 9.91397 -9.30984 -6
      vertex 11.0026 -7.99388 0
      vertex 11.0026 -7.99388 -6
    endloop
  endfacet
  facet normal -0.770521 0.637415 0
    outer loop
      vertex 11.0026 -7.99388 0
      vertex 9.91397 -9.30984 -6
      vertex 9.91397 -9.30984 0
    endloop
  endfacet
  facet normal -0.951069 0.30898 0
    outer loop
      vertex 12.645 -5.00649 -6
      vertex 13.1727 -3.38218 0
      vertex 13.1727 -3.38218 -6
    endloop
  endfacet
  facet normal -0.951069 0.30898 0
    outer loop
      vertex 13.1727 -3.38218 0
      vertex 12.645 -5.00649 -6
      vertex 12.645 -5.00649 0
    endloop
  endfacet
  facet normal 0.125358 0.992112 -0
    outer loop
      vertex -0.853951 -13.5732 -6
      vertex -2.54839 -13.3591 0
      vertex -0.853951 -13.5732 0
    endloop
  endfacet
  facet normal 0.125358 0.992112 0
    outer loop
      vertex -2.54839 -13.3591 0
      vertex -0.853951 -13.5732 -6
      vertex -2.54839 -13.3591 -6
    endloop
  endfacet
  facet normal 0.587791 0.809013 -0
    outer loop
      vertex -7.28724 -11.4829 -6
      vertex -8.66897 -10.479 0
      vertex -7.28724 -11.4829 0
    endloop
  endfacet
  facet normal 0.587791 0.809013 0
    outer loop
      vertex -8.66897 -10.479 0
      vertex -7.28724 -11.4829 -6
      vertex -8.66897 -10.479 -6
    endloop
  endfacet
  facet normal -0.587791 0.809013 0
    outer loop
      vertex 8.66897 -10.479 -6
      vertex 7.28724 -11.4829 0
      vertex 8.66897 -10.479 0
    endloop
  endfacet
  facet normal -0.587791 0.809013 0
    outer loop
      vertex 7.28724 -11.4829 0
      vertex 8.66897 -10.479 -6
      vertex 7.28724 -11.4829 -6
    endloop
  endfacet
  facet normal 0.24867 0.968588 -0
    outer loop
      vertex -2.54839 -13.3591 -6
      vertex -4.20263 -12.9344 0
      vertex -2.54839 -13.3591 0
    endloop
  endfacet
  facet normal 0.24867 0.968588 0
    outer loop
      vertex -4.20263 -12.9344 0
      vertex -2.54839 -13.3591 -6
      vertex -4.20263 -12.9344 -6
    endloop
  endfacet
endsolid OpenSCAD_Model
