solid OpenSCAD_Model
  facet normal 0.998027 0.0627907 0
    outer loop
      vertex 37.5 0 0
      vertex 37.2043 4.7 -6
      vertex 37.2043 4.7 0
    endloop
  endfacet
  facet normal 0.998027 0.0627907 0
    outer loop
      vertex 37.2043 4.7 -6
      vertex 37.5 0 0
      vertex 37.5 0 -6
    endloop
  endfacet
  facet normal 0.904829 0.425776 0
    outer loop
      vertex 34.8666 13.8047 0
      vertex 32.8615 18.0658 -6
      vertex 32.8615 18.0658 0
    endloop
  endfacet
  facet normal 0.904829 0.425776 0
    outer loop
      vertex 32.8615 18.0658 -6
      vertex 34.8666 13.8047 0
      vertex 34.8666 13.8047 -6
    endloop
  endfacet
  facet normal 0 0 -1
    outer loop
      vertex 37.2043 -4.7 -6
      vertex 37.2043 4.7 -6
      vertex 37.5 0 -6
    endloop
  endfacet
  facet normal 0 0 -1
    outer loop
      vertex 36.3219 -9.32587 -6
      vertex 37.2043 4.7 -6
      vertex 37.2043 -4.7 -6
    endloop
  endfacet
  facet normal 0 0 -1
    outer loop
      vertex 36.3219 -9.32587 -6
      vertex 36.3219 9.32587 -6
      vertex 37.2043 4.7 -6
    endloop
  endfacet
  facet normal 0 0 -1
    outer loop
      vertex 34.8666 -13.8047 -6
      vertex 36.3219 9.32587 -6
      vertex 36.3219 -9.32587 -6
    endloop
  endfacet
  facet normal 0 0 -1
    outer loop
      vertex 34.8666 -13.8047 -6
      vertex 34.8666 13.8047 -6
      vertex 36.3219 9.32587 -6
    endloop
  endfacet
  facet normal 0 0 -1
    outer loop
      vertex 32.8615 -18.0658 -6
      vertex 34.8666 13.8047 -6
      vertex 34.8666 -13.8047 -6
    endloop
  endfacet
  facet normal 0 0 -1
    outer loop
      vertex 32.8615 -18.0658 -6
      vertex 32.8615 18.0658 -6
      vertex 34.8666 13.8047 -6
    endloop
  endfacet
  facet normal 0 0 -1
    outer loop
      vertex 30.3381 -22.0419 -6
      vertex 32.8615 18.0658 -6
      vertex 32.8615 -18.0658 -6
    endloop
  endfacet
  facet normal 0 0 -1
    outer loop
      vertex 30.3381 -22.0419 -6
      vertex 30.3381 22.0419 -6
      vertex 32.8615 18.0658 -6
    endloop
  endfacet
  facet normal 0 0 -1
    outer loop
      vertex 27.3363 -25.6705 -6
      vertex 30.3381 22.0419 -6
      vertex 30.3381 -22.0419 -6
    endloop
  endfacet
  facet normal 0 0 -1
    outer loop
      vertex 27.3363 -25.6705 -6
      vertex 27.3363 25.6705 -6
      vertex 30.3381 22.0419 -6
    endloop
  endfacet
  facet normal 0 0 -1
    outer loop
      vertex 23.9034 -28.8942 -6
      vertex 27.3363 25.6705 -6
      vertex 27.3363 -25.6705 -6
    endloop
  endfacet
  facet normal 0 0 -1
    outer loop
      vertex 23.9034 -28.8942 -6
      vertex 23.9034 28.8942 -6
      vertex 27.3363 25.6705 -6
    endloop
  endfacet
  facet normal 0 0 -1
    outer loop
      vertex 20.0935 -31.6623 -6
      vertex 23.9034 28.8942 -6
      vertex 23.9034 -28.8942 -6
    endloop
  endfacet
  facet normal 0 0 -1
    outer loop
      vertex 20.0935 -31.6623 -6
      vertex 20.0935 31.6623 -6
      vertex 23.9034 28.8942 -6
    endloop
  endfacet
  facet normal 0 0 -1
    outer loop
      vertex 15.9667 -33.931 -6
      vertex 20.0935 31.6623 -6
      vertex 20.0935 -31.6623 -6
    endloop
  endfacet
  facet normal 0 0 -1
    outer loop
      vertex 15.9667 -33.931 -6
      vertex 15.9667 33.931 -6
      vertex 20.0935 31.6623 -6
    endloop
  endfacet
  facet normal 0 0 -1
    outer loop
      vertex 11.5881 -35.6646 -6
      vertex 15.9667 33.931 -6
      vertex 15.9667 -33.931 -6
    endloop
  endfacet
  facet normal 0 0 -1
    outer loop
      vertex 11.5881 -35.6646 -6
      vertex 11.5881 35.6646 -6
      vertex 15.9667 33.931 -6
    endloop
  endfacet
  facet normal 0 0 -1
    outer loop
      vertex 7.0268 -36.8358 -6
      vertex 11.5881 35.6646 -6
      vertex 11.5881 -35.6646 -6
    endloop
  endfacet
  facet normal 0 0 -1
    outer loop
      vertex 7.0268 -36.8358 -6
      vertex 7.0268 36.8358 -6
      vertex 11.5881 35.6646 -6
    endloop
  endfacet
  facet normal 0 0 -1
    outer loop
      vertex 2.35464 -37.426 -6
      vertex 7.0268 36.8358 -6
      vertex 7.0268 -36.8358 -6
    endloop
  endfacet
  facet normal 0 0 -1
    outer loop
      vertex 2.35464 -37.426 -6
      vertex 2.35464 37.426 -6
      vertex 7.0268 36.8358 -6
    endloop
  endfacet
  facet normal 0 0 -1
    outer loop
      vertex -2.35464 -37.426 -6
      vertex 2.35464 37.426 -6
      vertex 2.35464 -37.426 -6
    endloop
  endfacet
  facet normal 0 0 -1
    outer loop
      vertex -2.35464 -37.426 -6
      vertex -2.35464 37.426 -6
      vertex 2.35464 37.426 -6
    endloop
  endfacet
  facet normal 0 0 -1
    outer loop
      vertex -7.0268 -36.8358 -6
      vertex -2.35464 37.426 -6
      vertex -2.35464 -37.426 -6
    endloop
  endfacet
  facet normal 0 0 -1
    outer loop
      vertex -7.0268 -36.8358 -6
      vertex -7.0268 36.8358 -6
      vertex -2.35464 37.426 -6
    endloop
  endfacet
  facet normal 0 0 -1
    outer loop
      vertex -11.5881 -35.6646 -6
      vertex -7.0268 36.8358 -6
      vertex -7.0268 -36.8358 -6
    endloop
  endfacet
  facet normal 0 0 -1
    outer loop
      vertex -11.5881 -35.6646 -6
      vertex -11.5881 35.6646 -6
      vertex -7.0268 36.8358 -6
    endloop
  endfacet
  facet normal 0 0 -1
    outer loop
      vertex -15.9667 -33.931 -6
      vertex -11.5881 35.6646 -6
      vertex -11.5881 -35.6646 -6
    endloop
  endfacet
  facet normal 0 0 -1
    outer loop
      vertex -15.9667 -33.931 -6
      vertex -15.9667 33.931 -6
      vertex -11.5881 35.6646 -6
    endloop
  endfacet
  facet normal 0 0 -1
    outer loop
      vertex -20.0935 -31.6623 -6
      vertex -15.9667 33.931 -6
      vertex -15.9667 -33.931 -6
    endloop
  endfacet
  facet normal 0 0 -1
    outer loop
      vertex -20.0935 -31.6623 -6
      vertex -20.0935 31.6623 -6
      vertex -15.9667 33.931 -6
    endloop
  endfacet
  facet normal 0 0 -1
    outer loop
      vertex -23.9034 -28.8942 -6
      vertex -20.0935 31.6623 -6
      vertex -20.0935 -31.6623 -6
    endloop
  endfacet
  facet normal 0 0 -1
    outer loop
      vertex -23.9034 -28.8942 -6
      vertex -23.9034 28.8942 -6
      vertex -20.0935 31.6623 -6
    endloop
  endfacet
  facet normal 0 0 -1
    outer loop
      vertex -27.3363 -25.6705 -6
      vertex -23.9034 28.8942 -6
      vertex -23.9034 -28.8942 -6
    endloop
  endfacet
  facet normal 0 0 -1
    outer loop
      vertex -27.3363 -25.6705 -6
      vertex -27.3363 25.6705 -6
      vertex -23.9034 28.8942 -6
    endloop
  endfacet
  facet normal 0 0 -1
    outer loop
      vertex -30.3381 -22.0419 -6
      vertex -27.3363 25.6705 -6
      vertex -27.3363 -25.6705 -6
    endloop
  endfacet
  facet normal 0 0 -1
    outer loop
      vertex -30.3381 -22.0419 -6
      vertex -30.3381 22.0419 -6
      vertex -27.3363 25.6705 -6
    endloop
  endfacet
  facet normal 0 0 -1
    outer loop
      vertex -32.8615 -18.0658 -6
      vertex -30.3381 22.0419 -6
      vertex -30.3381 -22.0419 -6
    endloop
  endfacet
  facet normal 0 0 -1
    outer loop
      vertex -32.8615 -18.0658 -6
      vertex -32.8615 18.0658 -6
      vertex -30.3381 22.0419 -6
    endloop
  endfacet
  facet normal 0 0 -1
    outer loop
      vertex -34.8666 -13.8047 -6
      vertex -32.8615 18.0658 -6
      vertex -32.8615 -18.0658 -6
    endloop
  endfacet
  facet normal 0 0 -1
    outer loop
      vertex -34.8666 -13.8047 -6
      vertex -34.8666 13.8047 -6
      vertex -32.8615 18.0658 -6
    endloop
  endfacet
  facet normal 0 0 -1
    outer loop
      vertex -36.3219 -9.32587 -6
      vertex -34.8666 13.8047 -6
      vertex -34.8666 -13.8047 -6
    endloop
  endfacet
  facet normal 0 0 -1
    outer loop
      vertex -36.3219 -9.32587 -6
      vertex -36.3219 9.32587 -6
      vertex -34.8666 13.8047 -6
    endloop
  endfacet
  facet normal 0 0 -1
    outer loop
      vertex -37.2043 -4.7 -6
      vertex -36.3219 9.32587 -6
      vertex -36.3219 -9.32587 -6
    endloop
  endfacet
  facet normal 0 0 -1
    outer loop
      vertex -37.2043 -4.7 -6
      vertex -37.2043 4.7 -6
      vertex -36.3219 9.32587 -6
    endloop
  endfacet
  facet normal 0 -0 -1
    outer loop
      vertex -37.2043 4.7 -6
      vertex -37.2043 -4.7 -6
      vertex -37.5 0 -6
    endloop
  endfacet
  facet normal 0.844319 0.53584 0
    outer loop
      vertex 32.8615 18.0658 0
      vertex 30.3381 22.0419 -6
      vertex 30.3381 22.0419 0
    endloop
  endfacet
  facet normal 0.844319 0.53584 0
    outer loop
      vertex 30.3381 22.0419 -6
      vertex 32.8615 18.0658 0
      vertex 32.8615 18.0658 -6
    endloop
  endfacet
  facet normal 0.248701 0.96858 -0
    outer loop
      vertex 11.5881 35.6646 -6
      vertex 7.0268 36.8358 0
      vertex 11.5881 35.6646 0
    endloop
  endfacet
  facet normal 0.248701 0.96858 0
    outer loop
      vertex 7.0268 36.8358 0
      vertex 11.5881 35.6646 -6
      vertex 7.0268 36.8358 -6
    endloop
  endfacet
  facet normal 0.368123 0.929777 -0
    outer loop
      vertex 15.9667 33.931 -6
      vertex 11.5881 35.6646 0
      vertex 15.9667 33.931 0
    endloop
  endfacet
  facet normal 0.368123 0.929777 0
    outer loop
      vertex 11.5881 35.6646 0
      vertex 15.9667 33.931 -6
      vertex 11.5881 35.6646 -6
    endloop
  endfacet
  facet normal -0.368123 0.929777 0
    outer loop
      vertex -11.5881 35.6646 -6
      vertex -15.9667 33.931 0
      vertex -11.5881 35.6646 0
    endloop
  endfacet
  facet normal -0.368123 0.929777 0
    outer loop
      vertex -15.9667 33.931 0
      vertex -11.5881 35.6646 -6
      vertex -15.9667 33.931 -6
    endloop
  endfacet
  facet normal -0.904829 0.425776 0
    outer loop
      vertex -34.8666 13.8047 -6
      vertex -32.8615 18.0658 0
      vertex -32.8615 18.0658 -6
    endloop
  endfacet
  facet normal -0.904829 0.425776 0
    outer loop
      vertex -32.8615 18.0658 0
      vertex -34.8666 13.8047 -6
      vertex -34.8666 13.8047 0
    endloop
  endfacet
  facet normal 0 0 1
    outer loop
      vertex 37.2043 4.7 0
      vertex 37.2043 -4.7 0
      vertex 37.5 0 0
    endloop
  endfacet
  facet normal 0 0 1
    outer loop
      vertex 36.3219 9.32587 0
      vertex 37.2043 -4.7 0
      vertex 37.2043 4.7 0
    endloop
  endfacet
  facet normal 0 0 1
    outer loop
      vertex 36.3219 9.32587 0
      vertex 36.3219 -9.32587 0
      vertex 37.2043 -4.7 0
    endloop
  endfacet
  facet normal 0 0 1
    outer loop
      vertex 34.8666 13.8047 0
      vertex 36.3219 -9.32587 0
      vertex 36.3219 9.32587 0
    endloop
  endfacet
  facet normal 0 0 1
    outer loop
      vertex 34.8666 13.8047 0
      vertex 34.8666 -13.8047 0
      vertex 36.3219 -9.32587 0
    endloop
  endfacet
  facet normal 0 0 1
    outer loop
      vertex 32.8615 18.0658 0
      vertex 34.8666 -13.8047 0
      vertex 34.8666 13.8047 0
    endloop
  endfacet
  facet normal 0 0 1
    outer loop
      vertex 32.8615 18.0658 0
      vertex 32.8615 -18.0658 0
      vertex 34.8666 -13.8047 0
    endloop
  endfacet
  facet normal 0 0 1
    outer loop
      vertex 30.3381 22.0419 0
      vertex 32.8615 -18.0658 0
      vertex 32.8615 18.0658 0
    endloop
  endfacet
  facet normal 0 0 1
    outer loop
      vertex 30.3381 22.0419 0
      vertex 30.3381 -22.0419 0
      vertex 32.8615 -18.0658 0
    endloop
  endfacet
  facet normal 0 0 1
    outer loop
      vertex 27.3363 25.6705 0
      vertex 30.3381 -22.0419 0
      vertex 30.3381 22.0419 0
    endloop
  endfacet
  facet normal 0 0 1
    outer loop
      vertex 27.3363 25.6705 0
      vertex 27.3363 -25.6705 0
      vertex 30.3381 -22.0419 0
    endloop
  endfacet
  facet normal 0 0 1
    outer loop
      vertex 23.9034 28.8942 0
      vertex 27.3363 -25.6705 0
      vertex 27.3363 25.6705 0
    endloop
  endfacet
  facet normal 0 0 1
    outer loop
      vertex 23.9034 28.8942 0
      vertex 23.9034 -28.8942 0
      vertex 27.3363 -25.6705 0
    endloop
  endfacet
  facet normal 0 0 1
    outer loop
      vertex 20.0935 31.6623 0
      vertex 23.9034 -28.8942 0
      vertex 23.9034 28.8942 0
    endloop
  endfacet
  facet normal 0 0 1
    outer loop
      vertex 20.0935 31.6623 0
      vertex 20.0935 -31.6623 0
      vertex 23.9034 -28.8942 0
    endloop
  endfacet
  facet normal 0 0 1
    outer loop
      vertex 15.9667 33.931 0
      vertex 20.0935 -31.6623 0
      vertex 20.0935 31.6623 0
    endloop
  endfacet
  facet normal 0 0 1
    outer loop
      vertex 15.9667 33.931 0
      vertex 15.9667 -33.931 0
      vertex 20.0935 -31.6623 0
    endloop
  endfacet
  facet normal 0 0 1
    outer loop
      vertex 11.5881 35.6646 0
      vertex 15.9667 -33.931 0
      vertex 15.9667 33.931 0
    endloop
  endfacet
  facet normal 0 0 1
    outer loop
      vertex 11.5881 35.6646 0
      vertex 11.5881 -35.6646 0
      vertex 15.9667 -33.931 0
    endloop
  endfacet
  facet normal 0 0 1
    outer loop
      vertex 7.0268 36.8358 0
      vertex 11.5881 -35.6646 0
      vertex 11.5881 35.6646 0
    endloop
  endfacet
  facet normal 0 0 1
    outer loop
      vertex 7.0268 36.8358 0
      vertex 7.0268 -36.8358 0
      vertex 11.5881 -35.6646 0
    endloop
  endfacet
  facet normal 0 0 1
    outer loop
      vertex 2.35464 37.426 0
      vertex 7.0268 -36.8358 0
      vertex 7.0268 36.8358 0
    endloop
  endfacet
  facet normal 0 0 1
    outer loop
      vertex 2.35464 37.426 0
      vertex 2.35464 -37.426 0
      vertex 7.0268 -36.8358 0
    endloop
  endfacet
  facet normal -0 0 1
    outer loop
      vertex -2.35464 37.426 0
      vertex 2.35464 -37.426 0
      vertex 2.35464 37.426 0
    endloop
  endfacet
  facet normal 0 0 1
    outer loop
      vertex -2.35464 37.426 0
      vertex -2.35464 -37.426 0
      vertex 2.35464 -37.426 0
    endloop
  endfacet
  facet normal -0 0 1
    outer loop
      vertex -7.0268 36.8358 0
      vertex -2.35464 -37.426 0
      vertex -2.35464 37.426 0
    endloop
  endfacet
  facet normal 0 0 1
    outer loop
      vertex -7.0268 36.8358 0
      vertex -7.0268 -36.8358 0
      vertex -2.35464 -37.426 0
    endloop
  endfacet
  facet normal -0 0 1
    outer loop
      vertex -11.5881 35.6646 0
      vertex -7.0268 -36.8358 0
      vertex -7.0268 36.8358 0
    endloop
  endfacet
  facet normal 0 0 1
    outer loop
      vertex -11.5881 35.6646 0
      vertex -11.5881 -35.6646 0
      vertex -7.0268 -36.8358 0
    endloop
  endfacet
  facet normal -0 0 1
    outer loop
      vertex -15.9667 33.931 0
      vertex -11.5881 -35.6646 0
      vertex -11.5881 35.6646 0
    endloop
  endfacet
  facet normal 0 0 1
    outer loop
      vertex -15.9667 33.931 0
      vertex -15.9667 -33.931 0
      vertex -11.5881 -35.6646 0
    endloop
  endfacet
  facet normal -0 0 1
    outer loop
      vertex -20.0935 31.6623 0
      vertex -15.9667 -33.931 0
      vertex -15.9667 33.931 0
    endloop
  endfacet
  facet normal 0 0 1
    outer loop
      vertex -20.0935 31.6623 0
      vertex -20.0935 -31.6623 0
      vertex -15.9667 -33.931 0
    endloop
  endfacet
  facet normal -0 0 1
    outer loop
      vertex -23.9034 28.8942 0
      vertex -20.0935 -31.6623 0
      vertex -20.0935 31.6623 0
    endloop
  endfacet
  facet normal 0 0 1
    outer loop
      vertex -23.9034 28.8942 0
      vertex -23.9034 -28.8942 0
      vertex -20.0935 -31.6623 0
    endloop
  endfacet
  facet normal -0 0 1
    outer loop
      vertex -27.3363 25.6705 0
      vertex -23.9034 -28.8942 0
      vertex -23.9034 28.8942 0
    endloop
  endfacet
  facet normal 0 0 1
    outer loop
      vertex -27.3363 25.6705 0
      vertex -27.3363 -25.6705 0
      vertex -23.9034 -28.8942 0
    endloop
  endfacet
  facet normal -0 0 1
    outer loop
      vertex -30.3381 22.0419 0
      vertex -27.3363 -25.6705 0
      vertex -27.3363 25.6705 0
    endloop
  endfacet
  facet normal 0 0 1
    outer loop
      vertex -30.3381 22.0419 0
      vertex -30.3381 -22.0419 0
      vertex -27.3363 -25.6705 0
    endloop
  endfacet
  facet normal -0 0 1
    outer loop
      vertex -32.8615 18.0658 0
      vertex -30.3381 -22.0419 0
      vertex -30.3381 22.0419 0
    endloop
  endfacet
  facet normal 0 0 1
    outer loop
      vertex -32.8615 18.0658 0
      vertex -32.8615 -18.0658 0
      vertex -30.3381 -22.0419 0
    endloop
  endfacet
  facet normal -0 0 1
    outer loop
      vertex -34.8666 13.8047 0
      vertex -32.8615 -18.0658 0
      vertex -32.8615 18.0658 0
    endloop
  endfacet
  facet normal 0 0 1
    outer loop
      vertex -34.8666 13.8047 0
      vertex -34.8666 -13.8047 0
      vertex -32.8615 -18.0658 0
    endloop
  endfacet
  facet normal -0 0 1
    outer loop
      vertex -36.3219 9.32587 0
      vertex -34.8666 -13.8047 0
      vertex -34.8666 13.8047 0
    endloop
  endfacet
  facet normal 0 0 1
    outer loop
      vertex -36.3219 9.32587 0
      vertex -36.3219 -9.32587 0
      vertex -34.8666 -13.8047 0
    endloop
  endfacet
  facet normal -0 0 1
    outer loop
      vertex -37.2043 4.7 0
      vertex -36.3219 -9.32587 0
      vertex -36.3219 9.32587 0
    endloop
  endfacet
  facet normal 0 0 1
    outer loop
      vertex -37.2043 4.7 0
      vertex -37.2043 -4.7 0
      vertex -36.3219 -9.32587 0
    endloop
  endfacet
  facet normal 0 -0 1
    outer loop
      vertex -37.2043 -4.7 0
      vertex -37.2043 4.7 0
      vertex -37.5 0 0
    endloop
  endfacet
  facet normal 0.125327 0.992116 -0
    outer loop
      vertex 7.0268 36.8358 -6
      vertex 2.35464 37.426 0
      vertex 7.0268 36.8358 0
    endloop
  endfacet
  facet normal 0.125327 0.992116 0
    outer loop
      vertex 2.35464 37.426 0
      vertex 7.0268 36.8358 -6
      vertex 2.35464 37.426 -6
    endloop
  endfacet
  facet normal 0.481749 0.876309 -0
    outer loop
      vertex 20.0935 31.6623 -6
      vertex 15.9667 33.931 0
      vertex 20.0935 31.6623 0
    endloop
  endfacet
  facet normal 0.481749 0.876309 0
    outer loop
      vertex 15.9667 33.931 0
      vertex 20.0935 31.6623 -6
      vertex 15.9667 33.931 -6
    endloop
  endfacet
  facet normal -0.998027 0.0627907 0
    outer loop
      vertex -37.5 0 -6
      vertex -37.2043 4.7 0
      vertex -37.2043 4.7 -6
    endloop
  endfacet
  facet normal -0.998027 0.0627907 0
    outer loop
      vertex -37.2043 4.7 0
      vertex -37.5 0 -6
      vertex -37.5 0 0
    endloop
  endfacet
  facet normal -0.770517 0.637419 0
    outer loop
      vertex -30.3381 22.0419 -6
      vertex -27.3363 25.6705 0
      vertex -27.3363 25.6705 -6
    endloop
  endfacet
  facet normal -0.770517 0.637419 0
    outer loop
      vertex -27.3363 25.6705 0
      vertex -30.3381 22.0419 -6
      vertex -30.3381 22.0419 0
    endloop
  endfacet
  facet normal -0.125327 0.992116 0
    outer loop
      vertex -2.35464 37.426 -6
      vertex -7.0268 36.8358 0
      vertex -2.35464 37.426 0
    endloop
  endfacet
  facet normal -0.125327 0.992116 0
    outer loop
      vertex -7.0268 36.8358 0
      vertex -2.35464 37.426 -6
      vertex -7.0268 36.8358 -6
    endloop
  endfacet
  facet normal -0.684546 0.728969 0
    outer loop
      vertex -23.9034 28.8942 -6
      vertex -27.3363 25.6705 0
      vertex -23.9034 28.8942 0
    endloop
  endfacet
  facet normal -0.684546 0.728969 0
    outer loop
      vertex -27.3363 25.6705 0
      vertex -23.9034 28.8942 -6
      vertex -27.3363 25.6705 -6
    endloop
  endfacet
  facet normal -0.684546 -0.728969 0
    outer loop
      vertex -27.3363 -25.6705 -6
      vertex -23.9034 -28.8942 0
      vertex -27.3363 -25.6705 0
    endloop
  endfacet
  facet normal -0.684546 -0.728969 -0
    outer loop
      vertex -23.9034 -28.8942 0
      vertex -27.3363 -25.6705 -6
      vertex -23.9034 -28.8942 -6
    endloop
  endfacet
  facet normal 0.481749 -0.876309 0
    outer loop
      vertex 15.9667 -33.931 -6
      vertex 20.0935 -31.6623 0
      vertex 15.9667 -33.931 0
    endloop
  endfacet
  facet normal 0.481749 -0.876309 0
    outer loop
      vertex 20.0935 -31.6623 0
      vertex 15.9667 -33.931 -6
      vertex 20.0935 -31.6623 -6
    endloop
  endfacet
  facet normal 0.904829 -0.425776 0
    outer loop
      vertex 32.8615 -18.0658 0
      vertex 34.8666 -13.8047 -6
      vertex 34.8666 -13.8047 0
    endloop
  endfacet
  facet normal 0.904829 -0.425776 0
    outer loop
      vertex 34.8666 -13.8047 -6
      vertex 32.8615 -18.0658 0
      vertex 32.8615 -18.0658 -6
    endloop
  endfacet
  facet normal 0.982288 0.187375 0
    outer loop
      vertex 37.2043 4.7 0
      vertex 36.3219 9.32587 -6
      vertex 36.3219 9.32587 0
    endloop
  endfacet
  facet normal 0.982288 0.187375 0
    outer loop
      vertex 36.3219 9.32587 -6
      vertex 37.2043 4.7 0
      vertex 37.2043 4.7 -6
    endloop
  endfacet
  facet normal 0.951054 0.309025 0
    outer loop
      vertex 36.3219 9.32587 0
      vertex 34.8666 13.8047 -6
      vertex 34.8666 13.8047 0
    endloop
  endfacet
  facet normal 0.951054 0.309025 0
    outer loop
      vertex 34.8666 13.8047 -6
      vertex 36.3219 9.32587 0
      vertex 36.3219 9.32587 -6
    endloop
  endfacet
  facet normal 0.684546 0.728969 -0
    outer loop
      vertex 27.3363 25.6705 -6
      vertex 23.9034 28.8942 0
      vertex 27.3363 25.6705 0
    endloop
  endfacet
  facet normal 0.684546 0.728969 0
    outer loop
      vertex 23.9034 28.8942 0
      vertex 27.3363 25.6705 -6
      vertex 23.9034 28.8942 -6
    endloop
  endfacet
  facet normal 0.770517 0.637419 0
    outer loop
      vertex 30.3381 22.0419 0
      vertex 27.3363 25.6705 -6
      vertex 27.3363 25.6705 0
    endloop
  endfacet
  facet normal 0.770517 0.637419 0
    outer loop
      vertex 27.3363 25.6705 -6
      vertex 30.3381 22.0419 0
      vertex 30.3381 22.0419 -6
    endloop
  endfacet
  facet normal 0 1 -0
    outer loop
      vertex 2.35464 37.426 -6
      vertex -2.35464 37.426 0
      vertex 2.35464 37.426 0
    endloop
  endfacet
  facet normal 0 1 0
    outer loop
      vertex -2.35464 37.426 0
      vertex 2.35464 37.426 -6
      vertex -2.35464 37.426 -6
    endloop
  endfacet
  facet normal -0.951054 0.309025 0
    outer loop
      vertex -36.3219 9.32587 -6
      vertex -34.8666 13.8047 0
      vertex -34.8666 13.8047 -6
    endloop
  endfacet
  facet normal -0.951054 0.309025 0
    outer loop
      vertex -34.8666 13.8047 0
      vertex -36.3219 9.32587 -6
      vertex -36.3219 9.32587 0
    endloop
  endfacet
  facet normal -0.481749 0.876309 0
    outer loop
      vertex -15.9667 33.931 -6
      vertex -20.0935 31.6623 0
      vertex -15.9667 33.931 0
    endloop
  endfacet
  facet normal -0.481749 0.876309 0
    outer loop
      vertex -20.0935 31.6623 0
      vertex -15.9667 33.931 -6
      vertex -20.0935 31.6623 -6
    endloop
  endfacet
  facet normal 0.998027 -0.0627907 0
    outer loop
      vertex 37.2043 -4.7 0
      vertex 37.5 0 -6
      vertex 37.5 0 0
    endloop
  endfacet
  facet normal 0.998027 -0.0627907 0
    outer loop
      vertex 37.5 0 -6
      vertex 37.2043 -4.7 0
      vertex 37.2043 -4.7 -6
    endloop
  endfacet
  facet normal -0.998027 -0.0627907 0
    outer loop
      vertex -37.2043 -4.7 -6
      vertex -37.5 0 0
      vertex -37.5 0 -6
    endloop
  endfacet
  facet normal -0.998027 -0.0627907 0
    outer loop
      vertex -37.5 0 0
      vertex -37.2043 -4.7 -6
      vertex -37.2043 -4.7 0
    endloop
  endfacet
  facet normal -0.904829 -0.425776 0
    outer loop
      vertex -32.8615 -18.0658 -6
      vertex -34.8666 -13.8047 0
      vertex -34.8666 -13.8047 -6
    endloop
  endfacet
  facet normal -0.904829 -0.425776 0
    outer loop
      vertex -34.8666 -13.8047 0
      vertex -32.8615 -18.0658 -6
      vertex -32.8615 -18.0658 0
    endloop
  endfacet
  facet normal 0.770517 -0.637419 0
    outer loop
      vertex 27.3363 -25.6705 0
      vertex 30.3381 -22.0419 -6
      vertex 30.3381 -22.0419 0
    endloop
  endfacet
  facet normal 0.770517 -0.637419 0
    outer loop
      vertex 30.3381 -22.0419 -6
      vertex 27.3363 -25.6705 0
      vertex 27.3363 -25.6705 -6
    endloop
  endfacet
  facet normal 0 -1 0
    outer loop
      vertex -2.35464 -37.426 -6
      vertex 2.35464 -37.426 0
      vertex -2.35464 -37.426 0
    endloop
  endfacet
  facet normal 0 -1 -0
    outer loop
      vertex 2.35464 -37.426 0
      vertex -2.35464 -37.426 -6
      vertex 2.35464 -37.426 -6
    endloop
  endfacet
  facet normal 0.125327 -0.992116 0
    outer loop
      vertex 2.35464 -37.426 -6
      vertex 7.0268 -36.8358 0
      vertex 2.35464 -37.426 0
    endloop
  endfacet
  facet normal 0.125327 -0.992116 0
    outer loop
      vertex 7.0268 -36.8358 0
      vertex 2.35464 -37.426 -6
      vertex 7.0268 -36.8358 -6
    endloop
  endfacet
  facet normal 0.368123 -0.929777 0
    outer loop
      vertex 11.5881 -35.6646 -6
      vertex 15.9667 -33.931 0
      vertex 11.5881 -35.6646 0
    endloop
  endfacet
  facet normal 0.368123 -0.929777 0
    outer loop
      vertex 15.9667 -33.931 0
      vertex 11.5881 -35.6646 -6
      vertex 15.9667 -33.931 -6
    endloop
  endfacet
  facet normal 0.587792 0.809012 -0
    outer loop
      vertex 23.9034 28.8942 -6
      vertex 20.0935 31.6623 0
      vertex 23.9034 28.8942 0
    endloop
  endfacet
  facet normal 0.587792 0.809012 0
    outer loop
      vertex 20.0935 31.6623 0
      vertex 23.9034 28.8942 -6
      vertex 20.0935 31.6623 -6
    endloop
  endfacet
  facet normal -0.982288 0.187375 0
    outer loop
      vertex -37.2043 4.7 -6
      vertex -36.3219 9.32587 0
      vertex -36.3219 9.32587 -6
    endloop
  endfacet
  facet normal -0.982288 0.187375 0
    outer loop
      vertex -36.3219 9.32587 0
      vertex -37.2043 4.7 -6
      vertex -37.2043 4.7 0
    endloop
  endfacet
  facet normal -0.844319 0.53584 0
    outer loop
      vertex -32.8615 18.0658 -6
      vertex -30.3381 22.0419 0
      vertex -30.3381 22.0419 -6
    endloop
  endfacet
  facet normal -0.844319 0.53584 0
    outer loop
      vertex -30.3381 22.0419 0
      vertex -32.8615 18.0658 -6
      vertex -32.8615 18.0658 0
    endloop
  endfacet
  facet normal -0.248701 0.96858 0
    outer loop
      vertex -7.0268 36.8358 -6
      vertex -11.5881 35.6646 0
      vertex -7.0268 36.8358 0
    endloop
  endfacet
  facet normal -0.248701 0.96858 0
    outer loop
      vertex -11.5881 35.6646 0
      vertex -7.0268 36.8358 -6
      vertex -11.5881 35.6646 -6
    endloop
  endfacet
  facet normal -0.587792 0.809012 0
    outer loop
      vertex -20.0935 31.6623 -6
      vertex -23.9034 28.8942 0
      vertex -20.0935 31.6623 0
    endloop
  endfacet
  facet normal -0.587792 0.809012 0
    outer loop
      vertex -23.9034 28.8942 0
      vertex -20.0935 31.6623 -6
      vertex -23.9034 28.8942 -6
    endloop
  endfacet
  facet normal 0.982288 -0.187375 0
    outer loop
      vertex 36.3219 -9.32587 0
      vertex 37.2043 -4.7 -6
      vertex 37.2043 -4.7 0
    endloop
  endfacet
  facet normal 0.982288 -0.187375 0
    outer loop
      vertex 37.2043 -4.7 -6
      vertex 36.3219 -9.32587 0
      vertex 36.3219 -9.32587 -6
    endloop
  endfacet
  facet normal 0.844319 -0.53584 0
    outer loop
      vertex 30.3381 -22.0419 0
      vertex 32.8615 -18.0658 -6
      vertex 32.8615 -18.0658 0
    endloop
  endfacet
  facet normal 0.844319 -0.53584 0
    outer loop
      vertex 32.8615 -18.0658 -6
      vertex 30.3381 -22.0419 0
      vertex 30.3381 -22.0419 -6
    endloop
  endfacet
  facet normal -0.248701 -0.96858 0
    outer loop
      vertex -11.5881 -35.6646 -6
      vertex -7.0268 -36.8358 0
      vertex -11.5881 -35.6646 0
    endloop
  endfacet
  facet normal -0.248701 -0.96858 -0
    outer loop
      vertex -7.0268 -36.8358 0
      vertex -11.5881 -35.6646 -6
      vertex -7.0268 -36.8358 -6
    endloop
  endfacet
  facet normal -0.125327 -0.992116 0
    outer loop
      vertex -7.0268 -36.8358 -6
      vertex -2.35464 -37.426 0
      vertex -7.0268 -36.8358 0
    endloop
  endfacet
  facet normal -0.125327 -0.992116 -0
    outer loop
      vertex -2.35464 -37.426 0
      vertex -7.0268 -36.8358 -6
      vertex -2.35464 -37.426 -6
    endloop
  endfacet
  facet normal -0.770517 -0.637419 0
    outer loop
      vertex -27.3363 -25.6705 -6
      vertex -30.3381 -22.0419 0
      vertex -30.3381 -22.0419 -6
    endloop
  endfacet
  facet normal -0.770517 -0.637419 0
    outer loop
      vertex -30.3381 -22.0419 0
      vertex -27.3363 -25.6705 -6
      vertex -27.3363 -25.6705 0
    endloop
  endfacet
  facet normal -0.951054 -0.309025 0
    outer loop
      vertex -34.8666 -13.8047 -6
      vertex -36.3219 -9.32587 0
      vertex -36.3219 -9.32587 -6
    endloop
  endfacet
  facet normal -0.951054 -0.309025 0
    outer loop
      vertex -36.3219 -9.32587 0
      vertex -34.8666 -13.8047 -6
      vertex -34.8666 -13.8047 0
    endloop
  endfacet
  facet normal 0.684546 -0.728969 0
    outer loop
      vertex 23.9034 -28.8942 -6
      vertex 27.3363 -25.6705 0
      vertex 23.9034 -28.8942 0
    endloop
  endfacet
  facet normal 0.684546 -0.728969 0
    outer loop
      vertex 27.3363 -25.6705 0
      vertex 23.9034 -28.8942 -6
      vertex 27.3363 -25.6705 -6
    endloop
  endfacet
  facet normal 0.248701 -0.96858 0
    outer loop
      vertex 7.0268 -36.8358 -6
      vertex 11.5881 -35.6646 0
      vertex 7.0268 -36.8358 0
    endloop
  endfacet
  facet normal 0.248701 -0.96858 0
    outer loop
      vertex 11.5881 -35.6646 0
      vertex 7.0268 -36.8358 -6
      vertex 11.5881 -35.6646 -6
    endloop
  endfacet
  facet normal 0.951054 -0.309025 0
    outer loop
      vertex 34.8666 -13.8047 0
      vertex 36.3219 -9.32587 -6
      vertex 36.3219 -9.32587 0
    endloop
  endfacet
  facet normal 0.951054 -0.309025 0
    outer loop
      vertex 36.3219 -9.32587 -6
      vertex 34.8666 -13.8047 0
      vertex 34.8666 -13.8047 -6
    endloop
  endfacet
  facet normal -0.368123 -0.929777 0
    outer loop
      vertex -15.9667 -33.931 -6
      vertex -11.5881 -35.6646 0
      vertex -15.9667 -33.931 0
    endloop
  endfacet
  facet normal -0.368123 -0.929777 -0
    outer loop
      vertex -11.5881 -35.6646 0
      vertex -15.9667 -33.931 -6
      vertex -11.5881 -35.6646 -6
    endloop
  endfacet
  facet normal -0.481749 -0.876309 0
    outer loop
      vertex -20.0935 -31.6623 -6
      vertex -15.9667 -33.931 0
      vertex -20.0935 -31.6623 0
    endloop
  endfacet
  facet normal -0.481749 -0.876309 -0
    outer loop
      vertex -15.9667 -33.931 0
      vertex -20.0935 -31.6623 -6
      vertex -15.9667 -33.931 -6
    endloop
  endfacet
  facet normal -0.982288 -0.187375 0
    outer loop
      vertex -36.3219 -9.32587 -6
      vertex -37.2043 -4.7 0
      vertex -37.2043 -4.7 -6
    endloop
  endfacet
  facet normal -0.982288 -0.187375 0
    outer loop
      vertex -37.2043 -4.7 0
      vertex -36.3219 -9.32587 -6
      vertex -36.3219 -9.32587 0
    endloop
  endfacet
  facet normal 0.587792 -0.809012 0
    outer loop
      vertex 20.0935 -31.6623 -6
      vertex 23.9034 -28.8942 0
      vertex 20.0935 -31.6623 0
    endloop
  endfacet
  facet normal 0.587792 -0.809012 0
    outer loop
      vertex 23.9034 -28.8942 0
      vertex 20.0935 -31.6623 -6
      vertex 23.9034 -28.8942 -6
    endloop
  endfacet
  facet normal -0.587792 -0.809012 0
    outer loop
      vertex -23.9034 -28.8942 -6
      vertex -20.0935 -31.6623 0
      vertex -23.9034 -28.8942 0
    endloop
  endfacet
  facet normal -0.587792 -0.809012 -0
    outer loop
      vertex -20.0935 -31.6623 0
      vertex -23.9034 -28.8942 -6
      vertex -20.0935 -31.6623 -6
    endloop
  endfacet
  facet normal -0.844319 -0.53584 0
    outer loop
      vertex -30.3381 -22.0419 -6
      vertex -32.8615 -18.0658 0
      vertex -32.8615 -18.0658 -6
    endloop
  endfacet
  facet normal -0.844319 -0.53584 0
    outer loop
      vertex -32.8615 -18.0658 0
      vertex -30.3381 -22.0419 -6
      vertex -30.3381 -22.0419 0
    endloop
  endfacet
endsolid OpenSCAD_Model
