solid OpenSCAD_Model
  facet normal 0.998027 0.0627939 0
    outer loop
      vertex 7 0 -3
      vertex 6.9448 0.877332 -12
      vertex 6.9448 0.877332 -3
    endloop
  endfacet
  facet normal 0.998027 0.0627939 0
    outer loop
      vertex 6.9448 0.877332 -12
      vertex 7 0 -3
      vertex 7 0 -12
    endloop
  endfacet
  facet normal -0.998027 0.0627939 0
    outer loop
      vertex -7 0 -12
      vertex -6.9448 0.877332 -3
      vertex -6.9448 0.877332 -12
    endloop
  endfacet
  facet normal -0.998027 0.0627939 0
    outer loop
      vertex -6.9448 0.877332 -3
      vertex -7 0 -12
      vertex -7 0 -3
    endloop
  endfacet
  facet normal 0 1 -0
    outer loop
      vertex 0.439533 6.98619 -12
      vertex -0.439533 6.98619 -3
      vertex 0.439533 6.98619 -3
    endloop
  endfacet
  facet normal 0 1 0
    outer loop
      vertex -0.439533 6.98619 -3
      vertex 0.439533 6.98619 -12
      vertex -0.439533 6.98619 -12
    endloop
  endfacet
  facet normal 0 -1 0
    outer loop
      vertex -0.439533 -6.98619 -12
      vertex 0.439533 -6.98619 -3
      vertex -0.439533 -6.98619 -3
    endloop
  endfacet
  facet normal 0 -1 -0
    outer loop
      vertex 0.439533 -6.98619 -3
      vertex -0.439533 -6.98619 -12
      vertex 0.439533 -6.98619 -12
    endloop
  endfacet
  facet normal 0.684547 0.728969 -0
    outer loop
      vertex 5.10278 4.79183 -12
      vertex 4.46197 5.39359 -3
      vertex 5.10278 4.79183 -3
    endloop
  endfacet
  facet normal 0.684547 0.728969 0
    outer loop
      vertex 4.46197 5.39359 -3
      vertex 5.10278 4.79183 -12
      vertex 4.46197 5.39359 -12
    endloop
  endfacet
  facet normal -0.684547 0.728969 0
    outer loop
      vertex -4.46197 5.39359 -12
      vertex -5.10278 4.79183 -3
      vertex -4.46197 5.39359 -3
    endloop
  endfacet
  facet normal -0.684547 0.728969 0
    outer loop
      vertex -5.10278 4.79183 -3
      vertex -4.46197 5.39359 -12
      vertex -5.10278 4.79183 -12
    endloop
  endfacet
  facet normal -0.368131 0.929774 0
    outer loop
      vertex -2.16312 6.6574 -12
      vertex -2.98045 6.33379 -3
      vertex -2.16312 6.6574 -3
    endloop
  endfacet
  facet normal -0.368131 0.929774 0
    outer loop
      vertex -2.98045 6.33379 -3
      vertex -2.16312 6.6574 -12
      vertex -2.98045 6.33379 -12
    endloop
  endfacet
  facet normal 0.904828 0.425778 0
    outer loop
      vertex 6.50844 2.57687 -3
      vertex 6.13415 3.37228 -12
      vertex 6.13415 3.37228 -3
    endloop
  endfacet
  facet normal 0.904828 0.425778 0
    outer loop
      vertex 6.13415 3.37228 -12
      vertex 6.50844 2.57687 -3
      vertex 6.50844 2.57687 -12
    endloop
  endfacet
  facet normal 0.982287 0.18738 0
    outer loop
      vertex 6.9448 0.877332 -3
      vertex 6.78008 1.74083 -12
      vertex 6.78008 1.74083 -3
    endloop
  endfacet
  facet normal 0.982287 0.18738 0
    outer loop
      vertex 6.78008 1.74083 -12
      vertex 6.9448 0.877332 -3
      vertex 6.9448 0.877332 -12
    endloop
  endfacet
  facet normal 0.368131 0.929774 -0
    outer loop
      vertex 2.98045 6.33379 -12
      vertex 2.16312 6.6574 -3
      vertex 2.98045 6.33379 -3
    endloop
  endfacet
  facet normal 0.368131 0.929774 0
    outer loop
      vertex 2.16312 6.6574 -3
      vertex 2.98045 6.33379 -12
      vertex 2.16312 6.6574 -12
    endloop
  endfacet
  facet normal 0.481755 0.876306 -0
    outer loop
      vertex 3.75079 5.91029 -12
      vertex 2.98045 6.33379 -3
      vertex 3.75079 5.91029 -3
    endloop
  endfacet
  facet normal 0.481755 0.876306 0
    outer loop
      vertex 2.98045 6.33379 -3
      vertex 3.75079 5.91029 -12
      vertex 2.98045 6.33379 -12
    endloop
  endfacet
  facet normal -0.904828 0.425778 0
    outer loop
      vertex -6.50844 2.57687 -12
      vertex -6.13415 3.37228 -3
      vertex -6.13415 3.37228 -12
    endloop
  endfacet
  facet normal -0.904828 0.425778 0
    outer loop
      vertex -6.13415 3.37228 -3
      vertex -6.50844 2.57687 -12
      vertex -6.50844 2.57687 -3
    endloop
  endfacet
  facet normal -0.951058 0.309011 0
    outer loop
      vertex -6.78008 1.74083 -12
      vertex -6.50844 2.57687 -3
      vertex -6.50844 2.57687 -12
    endloop
  endfacet
  facet normal -0.951058 0.309011 0
    outer loop
      vertex -6.50844 2.57687 -3
      vertex -6.78008 1.74083 -12
      vertex -6.78008 1.74083 -3
    endloop
  endfacet
  facet normal -0.248684 0.968585 0
    outer loop
      vertex -1.31167 6.87601 -12
      vertex -2.16312 6.6574 -3
      vertex -1.31167 6.87601 -3
    endloop
  endfacet
  facet normal -0.248684 0.968585 0
    outer loop
      vertex -2.16312 6.6574 -3
      vertex -1.31167 6.87601 -12
      vertex -2.16312 6.6574 -12
    endloop
  endfacet
  facet normal 0.125337 -0.992114 0
    outer loop
      vertex 0.439533 -6.98619 -12
      vertex 1.31167 -6.87601 -3
      vertex 0.439533 -6.98619 -3
    endloop
  endfacet
  facet normal 0.125337 -0.992114 0
    outer loop
      vertex 1.31167 -6.87601 -3
      vertex 0.439533 -6.98619 -12
      vertex 1.31167 -6.87601 -12
    endloop
  endfacet
  facet normal 0.951058 0.309011 0
    outer loop
      vertex 6.78008 1.74083 -3
      vertex 6.50844 2.57687 -12
      vertex 6.50844 2.57687 -3
    endloop
  endfacet
  facet normal 0.951058 0.309011 0
    outer loop
      vertex 6.50844 2.57687 -12
      vertex 6.78008 1.74083 -3
      vertex 6.78008 1.74083 -12
    endloop
  endfacet
  facet normal 0.770511 0.637427 0
    outer loop
      vertex 5.66312 4.1145 -3
      vertex 5.10278 4.79183 -12
      vertex 5.10278 4.79183 -3
    endloop
  endfacet
  facet normal 0.770511 0.637427 0
    outer loop
      vertex 5.10278 4.79183 -12
      vertex 5.66312 4.1145 -3
      vertex 5.66312 4.1145 -12
    endloop
  endfacet
  facet normal 0.844326 0.535829 0
    outer loop
      vertex 6.13415 3.37228 -3
      vertex 5.66312 4.1145 -12
      vertex 5.66312 4.1145 -3
    endloop
  endfacet
  facet normal 0.844326 0.535829 0
    outer loop
      vertex 5.66312 4.1145 -12
      vertex 6.13415 3.37228 -3
      vertex 6.13415 3.37228 -12
    endloop
  endfacet
  facet normal 0.248684 0.968585 -0
    outer loop
      vertex 2.16312 6.6574 -12
      vertex 1.31167 6.87601 -3
      vertex 2.16312 6.6574 -3
    endloop
  endfacet
  facet normal 0.248684 0.968585 0
    outer loop
      vertex 1.31167 6.87601 -3
      vertex 2.16312 6.6574 -12
      vertex 1.31167 6.87601 -12
    endloop
  endfacet
  facet normal 0.125337 0.992114 -0
    outer loop
      vertex 1.31167 6.87601 -12
      vertex 0.439533 6.98619 -3
      vertex 1.31167 6.87601 -3
    endloop
  endfacet
  facet normal 0.125337 0.992114 0
    outer loop
      vertex 0.439533 6.98619 -3
      vertex 1.31167 6.87601 -12
      vertex 0.439533 6.98619 -12
    endloop
  endfacet
  facet normal 0.587783 0.809018 -0
    outer loop
      vertex 4.46197 5.39359 -12
      vertex 3.75079 5.91029 -3
      vertex 4.46197 5.39359 -3
    endloop
  endfacet
  facet normal 0.587783 0.809018 0
    outer loop
      vertex 3.75079 5.91029 -3
      vertex 4.46197 5.39359 -12
      vertex 3.75079 5.91029 -12
    endloop
  endfacet
  facet normal -0.844326 0.535829 0
    outer loop
      vertex -6.13415 3.37228 -12
      vertex -5.66312 4.1145 -3
      vertex -5.66312 4.1145 -12
    endloop
  endfacet
  facet normal -0.844326 0.535829 0
    outer loop
      vertex -5.66312 4.1145 -3
      vertex -6.13415 3.37228 -12
      vertex -6.13415 3.37228 -3
    endloop
  endfacet
  facet normal -0.770511 0.637427 0
    outer loop
      vertex -5.66312 4.1145 -12
      vertex -5.10278 4.79183 -3
      vertex -5.10278 4.79183 -12
    endloop
  endfacet
  facet normal -0.770511 0.637427 0
    outer loop
      vertex -5.10278 4.79183 -3
      vertex -5.66312 4.1145 -12
      vertex -5.66312 4.1145 -3
    endloop
  endfacet
  facet normal -0.982287 0.18738 0
    outer loop
      vertex -6.9448 0.877332 -12
      vertex -6.78008 1.74083 -3
      vertex -6.78008 1.74083 -12
    endloop
  endfacet
  facet normal -0.982287 0.18738 0
    outer loop
      vertex -6.78008 1.74083 -3
      vertex -6.9448 0.877332 -12
      vertex -6.9448 0.877332 -3
    endloop
  endfacet
  facet normal 0 0 1
    outer loop
      vertex 2.75 0 0
      vertex 17 0 0
      vertex 16.8659 2.13066 0
    endloop
  endfacet
  facet normal 0 0 1
    outer loop
      vertex 2.72832 0.344666 0
      vertex 16.8659 2.13066 0
      vertex 16.4659 4.22773 0
    endloop
  endfacet
  facet normal 0 0 1
    outer loop
      vertex 17 0 0
      vertex 2.75 0 0
      vertex 16.8659 -2.13066 0
    endloop
  endfacet
  facet normal 0 0 1
    outer loop
      vertex 2.6636 0.683897 0
      vertex 16.4659 4.22773 0
      vertex 15.8062 6.25812 0
    endloop
  endfacet
  facet normal -0 0 1
    outer loop
      vertex 2.72832 -0.344666 0
      vertex 16.8659 -2.13066 0
      vertex 2.75 0 0
    endloop
  endfacet
  facet normal 0 0 1
    outer loop
      vertex 2.55688 1.01234 0
      vertex 15.8062 6.25812 0
      vertex 14.8972 8.18981 0
    endloop
  endfacet
  facet normal 0 0 1
    outer loop
      vertex 16.8659 -2.13066 0
      vertex 2.72832 -0.344666 0
      vertex 16.4659 -4.22773 0
    endloop
  endfacet
  facet normal 0 0 1
    outer loop
      vertex 2.40984 1.32482 0
      vertex 14.8972 8.18981 0
      vertex 13.7533 9.99235 0
    endloop
  endfacet
  facet normal -0 0 1
    outer loop
      vertex 2.6636 -0.683897 0
      vertex 16.4659 -4.22773 0
      vertex 2.72832 -0.344666 0
    endloop
  endfacet
  facet normal 0 0 1
    outer loop
      vertex 2.2248 1.61641 0
      vertex 13.7533 9.99235 0
      vertex 12.3925 11.6373 0
    endloop
  endfacet
  facet normal 0 0 1
    outer loop
      vertex 16.4659 -4.22773 0
      vertex 2.6636 -0.683897 0
      vertex 15.8062 -6.25812 0
    endloop
  endfacet
  facet normal 0 0 1
    outer loop
      vertex 2.00466 1.8825 0
      vertex 12.3925 11.6373 0
      vertex 10.8362 13.0987 0
    endloop
  endfacet
  facet normal -0 0 1
    outer loop
      vertex 2.55688 -1.01234 0
      vertex 15.8062 -6.25812 0
      vertex 2.6636 -0.683897 0
    endloop
  endfacet
  facet normal 0 0 1
    outer loop
      vertex 1.75292 2.11891 0
      vertex 10.8362 13.0987 0
      vertex 9.10905 14.3536 0
    endloop
  endfacet
  facet normal 0 0 1
    outer loop
      vertex 15.8062 -6.25812 0
      vertex 2.55688 -1.01234 0
      vertex 14.8972 -8.18981 0
    endloop
  endfacet
  facet normal 0 0 1
    outer loop
      vertex 1.47352 2.3219 0
      vertex 9.10905 14.3536 0
      vertex 7.23825 15.3821 0
    endloop
  endfacet
  facet normal -0 0 1
    outer loop
      vertex 2.40984 -1.32482 0
      vertex 14.8972 -8.18981 0
      vertex 2.55688 -1.01234 0
    endloop
  endfacet
  facet normal 0 0 1
    outer loop
      vertex 1.17089 2.48827 0
      vertex 7.23825 15.3821 0
      vertex 5.25329 16.168 0
    endloop
  endfacet
  facet normal 0 0 1
    outer loop
      vertex 14.8972 -8.18981 0
      vertex 2.40984 -1.32482 0
      vertex 13.7533 -9.99235 0
    endloop
  endfacet
  facet normal 0 0 1
    outer loop
      vertex 0.849796 2.61541 0
      vertex 5.25329 16.168 0
      vertex 3.18548 16.6989 0
    endloop
  endfacet
  facet normal -0 0 1
    outer loop
      vertex 2.2248 -1.61641 0
      vertex 13.7533 -9.99235 0
      vertex 2.40984 -1.32482 0
    endloop
  endfacet
  facet normal 0 0 1
    outer loop
      vertex 13.7533 -9.99235 0
      vertex 2.2248 -1.61641 0
      vertex 12.3925 -11.6373 0
    endloop
  endfacet
  facet normal 0 0 1
    outer loop
      vertex 16.8659 2.13066 0
      vertex 2.72832 0.344666 0
      vertex 2.75 0 0
    endloop
  endfacet
  facet normal 0 0 1
    outer loop
      vertex 16.4659 4.22773 0
      vertex 2.6636 0.683897 0
      vertex 2.72832 0.344666 0
    endloop
  endfacet
  facet normal 0 0 1
    outer loop
      vertex 15.8062 6.25812 0
      vertex 2.55688 1.01234 0
      vertex 2.6636 0.683897 0
    endloop
  endfacet
  facet normal 0 0 1
    outer loop
      vertex 14.8972 8.18981 0
      vertex 2.40984 1.32482 0
      vertex 2.55688 1.01234 0
    endloop
  endfacet
  facet normal 0 0 1
    outer loop
      vertex 13.7533 9.99235 0
      vertex 2.2248 1.61641 0
      vertex 2.40984 1.32482 0
    endloop
  endfacet
  facet normal 0 0 1
    outer loop
      vertex 12.3925 11.6373 0
      vertex 2.00466 1.8825 0
      vertex 2.2248 1.61641 0
    endloop
  endfacet
  facet normal 0 0 1
    outer loop
      vertex 10.8362 13.0987 0
      vertex 1.75292 2.11891 0
      vertex 2.00466 1.8825 0
    endloop
  endfacet
  facet normal 0 0 1
    outer loop
      vertex 9.10905 14.3536 0
      vertex 1.47352 2.3219 0
      vertex 1.75292 2.11891 0
    endloop
  endfacet
  facet normal 0 0 1
    outer loop
      vertex 7.23825 15.3821 0
      vertex 1.17089 2.48827 0
      vertex 1.47352 2.3219 0
    endloop
  endfacet
  facet normal 0 0 1
    outer loop
      vertex 0.515298 2.70129 0
      vertex 3.18548 16.6989 0
      vertex 1.06744 16.9665 0
    endloop
  endfacet
  facet normal 0 0 1
    outer loop
      vertex 5.25329 16.168 0
      vertex 0.849796 2.61541 0
      vertex 1.17089 2.48827 0
    endloop
  endfacet
  facet normal 0 0 1
    outer loop
      vertex 3.18548 16.6989 0
      vertex 0.515298 2.70129 0
      vertex 0.849796 2.61541 0
    endloop
  endfacet
  facet normal 0 0 1
    outer loop
      vertex 1.06744 16.9665 0
      vertex 0.172673 2.74457 0
      vertex 0.515298 2.70129 0
    endloop
  endfacet
  facet normal 0 0 1
    outer loop
      vertex 1.06744 16.9665 0
      vertex -0.172673 2.74457 0
      vertex 0.172673 2.74457 0
    endloop
  endfacet
  facet normal -0 0 1
    outer loop
      vertex -1.06744 16.9665 0
      vertex -0.172673 2.74457 0
      vertex 1.06744 16.9665 0
    endloop
  endfacet
  facet normal 0 0 1
    outer loop
      vertex -0.172673 2.74457 0
      vertex -1.06744 16.9665 0
      vertex -0.515298 2.70129 0
    endloop
  endfacet
  facet normal -0 0 1
    outer loop
      vertex -3.18548 16.6989 0
      vertex -0.515298 2.70129 0
      vertex -1.06744 16.9665 0
    endloop
  endfacet
  facet normal 0 0 1
    outer loop
      vertex -0.515298 2.70129 0
      vertex -3.18548 16.6989 0
      vertex -0.849796 2.61541 0
    endloop
  endfacet
  facet normal -0 0 1
    outer loop
      vertex -5.25329 16.168 0
      vertex -0.849796 2.61541 0
      vertex -3.18548 16.6989 0
    endloop
  endfacet
  facet normal 0 0 1
    outer loop
      vertex -0.849796 2.61541 0
      vertex -5.25329 16.168 0
      vertex -1.17089 2.48827 0
    endloop
  endfacet
  facet normal -0 0 1
    outer loop
      vertex -7.23825 15.3821 0
      vertex -1.17089 2.48827 0
      vertex -5.25329 16.168 0
    endloop
  endfacet
  facet normal 0 0 1
    outer loop
      vertex -1.17089 2.48827 0
      vertex -7.23825 15.3821 0
      vertex -1.47352 2.3219 0
    endloop
  endfacet
  facet normal -0 0 1
    outer loop
      vertex -9.10905 14.3536 0
      vertex -1.47352 2.3219 0
      vertex -7.23825 15.3821 0
    endloop
  endfacet
  facet normal 0 0 1
    outer loop
      vertex -1.47352 2.3219 0
      vertex -9.10905 14.3536 0
      vertex -1.75292 2.11891 0
    endloop
  endfacet
  facet normal -0 0 1
    outer loop
      vertex -10.8362 13.0987 0
      vertex -1.75292 2.11891 0
      vertex -9.10905 14.3536 0
    endloop
  endfacet
  facet normal 0 0 1
    outer loop
      vertex -1.75292 2.11891 0
      vertex -10.8362 13.0987 0
      vertex -2.00466 1.8825 0
    endloop
  endfacet
  facet normal 0 0 1
    outer loop
      vertex -2.00466 1.8825 0
      vertex -12.3925 11.6373 0
      vertex -2.2248 1.61641 0
    endloop
  endfacet
  facet normal -0 0 1
    outer loop
      vertex -12.3925 11.6373 0
      vertex -2.00466 1.8825 0
      vertex -10.8362 13.0987 0
    endloop
  endfacet
  facet normal -0 0 1
    outer loop
      vertex 2.00466 -1.8825 0
      vertex 12.3925 -11.6373 0
      vertex 2.2248 -1.61641 0
    endloop
  endfacet
  facet normal 0 0 1
    outer loop
      vertex 12.3925 -11.6373 0
      vertex 2.00466 -1.8825 0
      vertex 10.8362 -13.0987 0
    endloop
  endfacet
  facet normal -0 0 1
    outer loop
      vertex 1.75292 -2.11891 0
      vertex 10.8362 -13.0987 0
      vertex 2.00466 -1.8825 0
    endloop
  endfacet
  facet normal 0 0 1
    outer loop
      vertex 10.8362 -13.0987 0
      vertex 1.75292 -2.11891 0
      vertex 9.10905 -14.3536 0
    endloop
  endfacet
  facet normal -0 0 1
    outer loop
      vertex 1.47352 -2.3219 0
      vertex 9.10905 -14.3536 0
      vertex 1.75292 -2.11891 0
    endloop
  endfacet
  facet normal 0 0 1
    outer loop
      vertex 9.10905 -14.3536 0
      vertex 1.47352 -2.3219 0
      vertex 7.23825 -15.3821 0
    endloop
  endfacet
  facet normal -0 0 1
    outer loop
      vertex 1.17089 -2.48827 0
      vertex 7.23825 -15.3821 0
      vertex 1.47352 -2.3219 0
    endloop
  endfacet
  facet normal 0 0 1
    outer loop
      vertex 7.23825 -15.3821 0
      vertex 1.17089 -2.48827 0
      vertex 5.25329 -16.168 0
    endloop
  endfacet
  facet normal -0 0 1
    outer loop
      vertex 0.849796 -2.61541 0
      vertex 5.25329 -16.168 0
      vertex 1.17089 -2.48827 0
    endloop
  endfacet
  facet normal 0 0 1
    outer loop
      vertex 5.25329 -16.168 0
      vertex 0.849796 -2.61541 0
      vertex 3.18548 -16.6989 0
    endloop
  endfacet
  facet normal -0 0 1
    outer loop
      vertex 0.515298 -2.70129 0
      vertex 3.18548 -16.6989 0
      vertex 0.849796 -2.61541 0
    endloop
  endfacet
  facet normal 0 0 1
    outer loop
      vertex 3.18548 -16.6989 0
      vertex 0.515298 -2.70129 0
      vertex 1.06744 -16.9665 0
    endloop
  endfacet
  facet normal -0 0 1
    outer loop
      vertex 0.172673 -2.74457 0
      vertex 1.06744 -16.9665 0
      vertex 0.515298 -2.70129 0
    endloop
  endfacet
  facet normal -0 0 1
    outer loop
      vertex -0.172673 -2.74457 0
      vertex 1.06744 -16.9665 0
      vertex 0.172673 -2.74457 0
    endloop
  endfacet
  facet normal 0 0 1
    outer loop
      vertex -1.06744 -16.9665 0
      vertex -0.172673 -2.74457 0
      vertex -0.515298 -2.70129 0
    endloop
  endfacet
  facet normal 0 0 1
    outer loop
      vertex -3.18548 -16.6989 0
      vertex -0.515298 -2.70129 0
      vertex -0.849796 -2.61541 0
    endloop
  endfacet
  facet normal 0 0 1
    outer loop
      vertex -0.172673 -2.74457 0
      vertex -1.06744 -16.9665 0
      vertex 1.06744 -16.9665 0
    endloop
  endfacet
  facet normal 0 0 1
    outer loop
      vertex -5.25329 -16.168 0
      vertex -0.849796 -2.61541 0
      vertex -1.17089 -2.48827 0
    endloop
  endfacet
  facet normal 0 0 1
    outer loop
      vertex -7.23825 -15.3821 0
      vertex -1.17089 -2.48827 0
      vertex -1.47352 -2.3219 0
    endloop
  endfacet
  facet normal 0 0 1
    outer loop
      vertex -9.10905 -14.3536 0
      vertex -1.47352 -2.3219 0
      vertex -1.75292 -2.11891 0
    endloop
  endfacet
  facet normal 0 0 1
    outer loop
      vertex -10.8362 -13.0987 0
      vertex -1.75292 -2.11891 0
      vertex -2.00466 -1.8825 0
    endloop
  endfacet
  facet normal 0 0 1
    outer loop
      vertex -12.3925 -11.6373 0
      vertex -2.00466 -1.8825 0
      vertex -2.2248 -1.61641 0
    endloop
  endfacet
  facet normal 0 0 1
    outer loop
      vertex -13.7533 -9.99235 0
      vertex -2.2248 -1.61641 0
      vertex -2.40984 -1.32482 0
    endloop
  endfacet
  facet normal 0 0 1
    outer loop
      vertex -14.8972 -8.18981 0
      vertex -2.40984 -1.32482 0
      vertex -2.55688 -1.01234 0
    endloop
  endfacet
  facet normal 0 0 1
    outer loop
      vertex -15.8062 -6.25812 0
      vertex -2.55688 -1.01234 0
      vertex -2.6636 -0.683897 0
    endloop
  endfacet
  facet normal 0 0 1
    outer loop
      vertex -16.4659 -4.22773 0
      vertex -2.6636 -0.683897 0
      vertex -2.72832 -0.344666 0
    endloop
  endfacet
  facet normal 0 0 1
    outer loop
      vertex -0.515298 -2.70129 0
      vertex -3.18548 -16.6989 0
      vertex -1.06744 -16.9665 0
    endloop
  endfacet
  facet normal 0 0 1
    outer loop
      vertex -16.8659 -2.13066 0
      vertex -2.72832 -0.344666 0
      vertex -2.75 0 0
    endloop
  endfacet
  facet normal -0 0 1
    outer loop
      vertex -13.7533 9.99235 0
      vertex -2.2248 1.61641 0
      vertex -12.3925 11.6373 0
    endloop
  endfacet
  facet normal 0 0 1
    outer loop
      vertex -2.2248 1.61641 0
      vertex -13.7533 9.99235 0
      vertex -2.40984 1.32482 0
    endloop
  endfacet
  facet normal 0 0 1
    outer loop
      vertex -0.849796 -2.61541 0
      vertex -5.25329 -16.168 0
      vertex -3.18548 -16.6989 0
    endloop
  endfacet
  facet normal -0 0 1
    outer loop
      vertex -14.8972 8.18981 0
      vertex -2.40984 1.32482 0
      vertex -13.7533 9.99235 0
    endloop
  endfacet
  facet normal 0 0 1
    outer loop
      vertex -1.17089 -2.48827 0
      vertex -7.23825 -15.3821 0
      vertex -5.25329 -16.168 0
    endloop
  endfacet
  facet normal 0 0 1
    outer loop
      vertex -2.40984 1.32482 0
      vertex -14.8972 8.18981 0
      vertex -2.55688 1.01234 0
    endloop
  endfacet
  facet normal 0 0 1
    outer loop
      vertex -1.47352 -2.3219 0
      vertex -9.10905 -14.3536 0
      vertex -7.23825 -15.3821 0
    endloop
  endfacet
  facet normal -0 0 1
    outer loop
      vertex -15.8062 6.25812 0
      vertex -2.55688 1.01234 0
      vertex -14.8972 8.18981 0
    endloop
  endfacet
  facet normal 0 0 1
    outer loop
      vertex -1.75292 -2.11891 0
      vertex -10.8362 -13.0987 0
      vertex -9.10905 -14.3536 0
    endloop
  endfacet
  facet normal 0 0 1
    outer loop
      vertex -2.55688 1.01234 0
      vertex -15.8062 6.25812 0
      vertex -2.6636 0.683897 0
    endloop
  endfacet
  facet normal 0 0 1
    outer loop
      vertex -2.00466 -1.8825 0
      vertex -12.3925 -11.6373 0
      vertex -10.8362 -13.0987 0
    endloop
  endfacet
  facet normal -0 0 1
    outer loop
      vertex -16.4659 4.22773 0
      vertex -2.6636 0.683897 0
      vertex -15.8062 6.25812 0
    endloop
  endfacet
  facet normal 0 0 1
    outer loop
      vertex -2.2248 -1.61641 0
      vertex -13.7533 -9.99235 0
      vertex -12.3925 -11.6373 0
    endloop
  endfacet
  facet normal 0 0 1
    outer loop
      vertex -2.6636 0.683897 0
      vertex -16.4659 4.22773 0
      vertex -2.72832 0.344666 0
    endloop
  endfacet
  facet normal 0 0 1
    outer loop
      vertex -2.40984 -1.32482 0
      vertex -14.8972 -8.18981 0
      vertex -13.7533 -9.99235 0
    endloop
  endfacet
  facet normal -0 0 1
    outer loop
      vertex -16.8659 2.13066 0
      vertex -2.72832 0.344666 0
      vertex -16.4659 4.22773 0
    endloop
  endfacet
  facet normal 0 0 1
    outer loop
      vertex -2.55688 -1.01234 0
      vertex -15.8062 -6.25812 0
      vertex -14.8972 -8.18981 0
    endloop
  endfacet
  facet normal 0 0 1
    outer loop
      vertex -2.72832 0.344666 0
      vertex -16.8659 2.13066 0
      vertex -2.75 0 0
    endloop
  endfacet
  facet normal 0 0 1
    outer loop
      vertex -2.6636 -0.683897 0
      vertex -16.4659 -4.22773 0
      vertex -15.8062 -6.25812 0
    endloop
  endfacet
  facet normal 0 0 1
    outer loop
      vertex -17 0 0
      vertex -2.75 0 0
      vertex -16.8659 2.13066 0
    endloop
  endfacet
  facet normal 0 0 1
    outer loop
      vertex -2.72832 -0.344666 0
      vertex -16.8659 -2.13066 0
      vertex -16.4659 -4.22773 0
    endloop
  endfacet
  facet normal 0 0 1
    outer loop
      vertex -2.75 0 0
      vertex -17 0 0
      vertex -16.8659 -2.13066 0
    endloop
  endfacet
  facet normal -0.481755 0.876306 0
    outer loop
      vertex -2.98045 6.33379 -12
      vertex -3.75079 5.91029 -3
      vertex -2.98045 6.33379 -3
    endloop
  endfacet
  facet normal -0.481755 0.876306 0
    outer loop
      vertex -3.75079 5.91029 -3
      vertex -2.98045 6.33379 -12
      vertex -3.75079 5.91029 -12
    endloop
  endfacet
  facet normal -0.587783 0.809018 0
    outer loop
      vertex -3.75079 5.91029 -12
      vertex -4.46197 5.39359 -3
      vertex -3.75079 5.91029 -3
    endloop
  endfacet
  facet normal -0.587783 0.809018 0
    outer loop
      vertex -4.46197 5.39359 -3
      vertex -3.75079 5.91029 -12
      vertex -4.46197 5.39359 -12
    endloop
  endfacet
  facet normal -0.125337 0.992114 0
    outer loop
      vertex -0.439533 6.98619 -12
      vertex -1.31167 6.87601 -3
      vertex -0.439533 6.98619 -3
    endloop
  endfacet
  facet normal -0.125337 0.992114 0
    outer loop
      vertex -1.31167 6.87601 -3
      vertex -0.439533 6.98619 -12
      vertex -1.31167 6.87601 -12
    endloop
  endfacet
  facet normal 0.998027 -0.0627939 0
    outer loop
      vertex 6.9448 -0.877332 -3
      vertex 7 0 -12
      vertex 7 0 -3
    endloop
  endfacet
  facet normal 0.998027 -0.0627939 0
    outer loop
      vertex 7 0 -12
      vertex 6.9448 -0.877332 -3
      vertex 6.9448 -0.877332 -12
    endloop
  endfacet
  facet normal 0.904828 -0.425778 0
    outer loop
      vertex 6.13415 -3.37228 -3
      vertex 6.50844 -2.57687 -12
      vertex 6.50844 -2.57687 -3
    endloop
  endfacet
  facet normal 0.904828 -0.425778 0
    outer loop
      vertex 6.50844 -2.57687 -12
      vertex 6.13415 -3.37228 -3
      vertex 6.13415 -3.37228 -12
    endloop
  endfacet
  facet normal -0.684547 -0.728969 0
    outer loop
      vertex -5.10278 -4.79183 -12
      vertex -4.46197 -5.39359 -3
      vertex -5.10278 -4.79183 -3
    endloop
  endfacet
  facet normal -0.684547 -0.728969 -0
    outer loop
      vertex -4.46197 -5.39359 -3
      vertex -5.10278 -4.79183 -12
      vertex -4.46197 -5.39359 -12
    endloop
  endfacet
  facet normal -0.904828 -0.425778 0
    outer loop
      vertex -6.13415 -3.37228 -12
      vertex -6.50844 -2.57687 -3
      vertex -6.50844 -2.57687 -12
    endloop
  endfacet
  facet normal -0.904828 -0.425778 0
    outer loop
      vertex -6.50844 -2.57687 -3
      vertex -6.13415 -3.37228 -12
      vertex -6.13415 -3.37228 -3
    endloop
  endfacet
  facet normal -0.844326 -0.535829 0
    outer loop
      vertex -5.66312 -4.1145 -12
      vertex -6.13415 -3.37228 -3
      vertex -6.13415 -3.37228 -12
    endloop
  endfacet
  facet normal -0.844326 -0.535829 0
    outer loop
      vertex -6.13415 -3.37228 -3
      vertex -5.66312 -4.1145 -12
      vertex -5.66312 -4.1145 -3
    endloop
  endfacet
  facet normal 0 0 -1
    outer loop
      vertex 2.75 0 -12
      vertex 7 0 -12
      vertex 6.9448 -0.877332 -12
    endloop
  endfacet
  facet normal 0 0 -1
    outer loop
      vertex 2.72832 -0.344666 -12
      vertex 6.9448 -0.877332 -12
      vertex 6.78008 -1.74083 -12
    endloop
  endfacet
  facet normal 0 0 -1
    outer loop
      vertex 7 0 -12
      vertex 2.75 0 -12
      vertex 6.9448 0.877332 -12
    endloop
  endfacet
  facet normal 0 0 -1
    outer loop
      vertex 2.6636 -0.683897 -12
      vertex 6.78008 -1.74083 -12
      vertex 6.50844 -2.57687 -12
    endloop
  endfacet
  facet normal 0 0 -1
    outer loop
      vertex 2.72832 0.344666 -12
      vertex 6.9448 0.877332 -12
      vertex 2.75 0 -12
    endloop
  endfacet
  facet normal 0 0 -1
    outer loop
      vertex 2.55688 -1.01234 -12
      vertex 6.50844 -2.57687 -12
      vertex 6.13415 -3.37228 -12
    endloop
  endfacet
  facet normal -0 0 -1
    outer loop
      vertex 6.9448 0.877332 -12
      vertex 2.72832 0.344666 -12
      vertex 6.78008 1.74083 -12
    endloop
  endfacet
  facet normal 0 0 -1
    outer loop
      vertex 2.40984 -1.32482 -12
      vertex 6.13415 -3.37228 -12
      vertex 5.66312 -4.1145 -12
    endloop
  endfacet
  facet normal 0 0 -1
    outer loop
      vertex 2.6636 0.683897 -12
      vertex 6.78008 1.74083 -12
      vertex 2.72832 0.344666 -12
    endloop
  endfacet
  facet normal 0 0 -1
    outer loop
      vertex 2.2248 -1.61641 -12
      vertex 5.66312 -4.1145 -12
      vertex 5.10278 -4.79183 -12
    endloop
  endfacet
  facet normal -0 0 -1
    outer loop
      vertex 6.78008 1.74083 -12
      vertex 2.6636 0.683897 -12
      vertex 6.50844 2.57687 -12
    endloop
  endfacet
  facet normal 0 0 -1
    outer loop
      vertex 2.00466 -1.8825 -12
      vertex 5.10278 -4.79183 -12
      vertex 4.46197 -5.39359 -12
    endloop
  endfacet
  facet normal 0 0 -1
    outer loop
      vertex 2.55688 1.01234 -12
      vertex 6.50844 2.57687 -12
      vertex 2.6636 0.683897 -12
    endloop
  endfacet
  facet normal 0 0 -1
    outer loop
      vertex 1.75292 -2.11891 -12
      vertex 4.46197 -5.39359 -12
      vertex 3.75079 -5.91029 -12
    endloop
  endfacet
  facet normal -0 0 -1
    outer loop
      vertex 6.50844 2.57687 -12
      vertex 2.55688 1.01234 -12
      vertex 6.13415 3.37228 -12
    endloop
  endfacet
  facet normal 0 0 -1
    outer loop
      vertex 1.47352 -2.3219 -12
      vertex 3.75079 -5.91029 -12
      vertex 2.98045 -6.33379 -12
    endloop
  endfacet
  facet normal 0 0 -1
    outer loop
      vertex 2.40984 1.32482 -12
      vertex 6.13415 3.37228 -12
      vertex 2.55688 1.01234 -12
    endloop
  endfacet
  facet normal -0 0 -1
    outer loop
      vertex 6.13415 3.37228 -12
      vertex 2.40984 1.32482 -12
      vertex 5.66312 4.1145 -12
    endloop
  endfacet
  facet normal 0 0 -1
    outer loop
      vertex 6.9448 -0.877332 -12
      vertex 2.72832 -0.344666 -12
      vertex 2.75 0 -12
    endloop
  endfacet
  facet normal 0 0 -1
    outer loop
      vertex 6.78008 -1.74083 -12
      vertex 2.6636 -0.683897 -12
      vertex 2.72832 -0.344666 -12
    endloop
  endfacet
  facet normal 0 0 -1
    outer loop
      vertex 6.50844 -2.57687 -12
      vertex 2.55688 -1.01234 -12
      vertex 2.6636 -0.683897 -12
    endloop
  endfacet
  facet normal 0 0 -1
    outer loop
      vertex 6.13415 -3.37228 -12
      vertex 2.40984 -1.32482 -12
      vertex 2.55688 -1.01234 -12
    endloop
  endfacet
  facet normal 0 0 -1
    outer loop
      vertex 5.66312 -4.1145 -12
      vertex 2.2248 -1.61641 -12
      vertex 2.40984 -1.32482 -12
    endloop
  endfacet
  facet normal 0 0 -1
    outer loop
      vertex 1.17089 -2.48827 -12
      vertex 2.98045 -6.33379 -12
      vertex 2.16312 -6.6574 -12
    endloop
  endfacet
  facet normal 0 0 -1
    outer loop
      vertex 5.10278 -4.79183 -12
      vertex 2.00466 -1.8825 -12
      vertex 2.2248 -1.61641 -12
    endloop
  endfacet
  facet normal 0 0 -1
    outer loop
      vertex 4.46197 -5.39359 -12
      vertex 1.75292 -2.11891 -12
      vertex 2.00466 -1.8825 -12
    endloop
  endfacet
  facet normal 0 0 -1
    outer loop
      vertex 3.75079 -5.91029 -12
      vertex 1.47352 -2.3219 -12
      vertex 1.75292 -2.11891 -12
    endloop
  endfacet
  facet normal 0 0 -1
    outer loop
      vertex 0.849796 -2.61541 -12
      vertex 2.16312 -6.6574 -12
      vertex 1.31167 -6.87601 -12
    endloop
  endfacet
  facet normal 0 0 -1
    outer loop
      vertex 2.98045 -6.33379 -12
      vertex 1.17089 -2.48827 -12
      vertex 1.47352 -2.3219 -12
    endloop
  endfacet
  facet normal 0 0 -1
    outer loop
      vertex 2.16312 -6.6574 -12
      vertex 0.849796 -2.61541 -12
      vertex 1.17089 -2.48827 -12
    endloop
  endfacet
  facet normal 0 0 -1
    outer loop
      vertex 1.31167 -6.87601 -12
      vertex 0.515298 -2.70129 -12
      vertex 0.849796 -2.61541 -12
    endloop
  endfacet
  facet normal 0 0 -1
    outer loop
      vertex 0.439533 -6.98619 -12
      vertex 0.515298 -2.70129 -12
      vertex 1.31167 -6.87601 -12
    endloop
  endfacet
  facet normal 0 0 -1
    outer loop
      vertex 0.439533 -6.98619 -12
      vertex 0.172673 -2.74457 -12
      vertex 0.515298 -2.70129 -12
    endloop
  endfacet
  facet normal 0 0 -1
    outer loop
      vertex 0.439533 -6.98619 -12
      vertex -0.172673 -2.74457 -12
      vertex 0.172673 -2.74457 -12
    endloop
  endfacet
  facet normal 0 0 -1
    outer loop
      vertex -0.439533 -6.98619 -12
      vertex -0.172673 -2.74457 -12
      vertex 0.439533 -6.98619 -12
    endloop
  endfacet
  facet normal 0 0 -1
    outer loop
      vertex -0.439533 -6.98619 -12
      vertex -0.515298 -2.70129 -12
      vertex -0.172673 -2.74457 -12
    endloop
  endfacet
  facet normal 0 0 -1
    outer loop
      vertex -1.31167 -6.87601 -12
      vertex -0.515298 -2.70129 -12
      vertex -0.439533 -6.98619 -12
    endloop
  endfacet
  facet normal -0 0 -1
    outer loop
      vertex -0.515298 -2.70129 -12
      vertex -1.31167 -6.87601 -12
      vertex -0.849796 -2.61541 -12
    endloop
  endfacet
  facet normal 0 0 -1
    outer loop
      vertex -2.16312 -6.6574 -12
      vertex -0.849796 -2.61541 -12
      vertex -1.31167 -6.87601 -12
    endloop
  endfacet
  facet normal -0 0 -1
    outer loop
      vertex -0.849796 -2.61541 -12
      vertex -2.16312 -6.6574 -12
      vertex -1.17089 -2.48827 -12
    endloop
  endfacet
  facet normal 0 0 -1
    outer loop
      vertex -2.98045 -6.33379 -12
      vertex -1.17089 -2.48827 -12
      vertex -2.16312 -6.6574 -12
    endloop
  endfacet
  facet normal -0 0 -1
    outer loop
      vertex -1.17089 -2.48827 -12
      vertex -2.98045 -6.33379 -12
      vertex -1.47352 -2.3219 -12
    endloop
  endfacet
  facet normal 0 0 -1
    outer loop
      vertex -3.75079 -5.91029 -12
      vertex -1.47352 -2.3219 -12
      vertex -2.98045 -6.33379 -12
    endloop
  endfacet
  facet normal -0 0 -1
    outer loop
      vertex -1.47352 -2.3219 -12
      vertex -3.75079 -5.91029 -12
      vertex -1.75292 -2.11891 -12
    endloop
  endfacet
  facet normal 0 0 -1
    outer loop
      vertex -4.46197 -5.39359 -12
      vertex -1.75292 -2.11891 -12
      vertex -3.75079 -5.91029 -12
    endloop
  endfacet
  facet normal -0 0 -1
    outer loop
      vertex -1.75292 -2.11891 -12
      vertex -4.46197 -5.39359 -12
      vertex -2.00466 -1.8825 -12
    endloop
  endfacet
  facet normal 0 0 -1
    outer loop
      vertex -5.10278 -4.79183 -12
      vertex -2.00466 -1.8825 -12
      vertex -4.46197 -5.39359 -12
    endloop
  endfacet
  facet normal -0 0 -1
    outer loop
      vertex -2.00466 -1.8825 -12
      vertex -5.10278 -4.79183 -12
      vertex -2.2248 -1.61641 -12
    endloop
  endfacet
  facet normal -0 0 -1
    outer loop
      vertex -2.2248 -1.61641 -12
      vertex -5.66312 -4.1145 -12
      vertex -2.40984 -1.32482 -12
    endloop
  endfacet
  facet normal 0 0 -1
    outer loop
      vertex -5.66312 -4.1145 -12
      vertex -2.2248 -1.61641 -12
      vertex -5.10278 -4.79183 -12
    endloop
  endfacet
  facet normal 0 0 -1
    outer loop
      vertex 2.2248 1.61641 -12
      vertex 5.66312 4.1145 -12
      vertex 2.40984 1.32482 -12
    endloop
  endfacet
  facet normal -0 0 -1
    outer loop
      vertex 5.66312 4.1145 -12
      vertex 2.2248 1.61641 -12
      vertex 5.10278 4.79183 -12
    endloop
  endfacet
  facet normal 0 0 -1
    outer loop
      vertex 2.00466 1.8825 -12
      vertex 5.10278 4.79183 -12
      vertex 2.2248 1.61641 -12
    endloop
  endfacet
  facet normal -0 0 -1
    outer loop
      vertex 5.10278 4.79183 -12
      vertex 2.00466 1.8825 -12
      vertex 4.46197 5.39359 -12
    endloop
  endfacet
  facet normal 0 0 -1
    outer loop
      vertex 1.75292 2.11891 -12
      vertex 4.46197 5.39359 -12
      vertex 2.00466 1.8825 -12
    endloop
  endfacet
  facet normal -0 0 -1
    outer loop
      vertex 4.46197 5.39359 -12
      vertex 1.75292 2.11891 -12
      vertex 3.75079 5.91029 -12
    endloop
  endfacet
  facet normal 0 0 -1
    outer loop
      vertex 1.47352 2.3219 -12
      vertex 3.75079 5.91029 -12
      vertex 1.75292 2.11891 -12
    endloop
  endfacet
  facet normal -0 0 -1
    outer loop
      vertex 3.75079 5.91029 -12
      vertex 1.47352 2.3219 -12
      vertex 2.98045 6.33379 -12
    endloop
  endfacet
  facet normal 0 0 -1
    outer loop
      vertex 1.17089 2.48827 -12
      vertex 2.98045 6.33379 -12
      vertex 1.47352 2.3219 -12
    endloop
  endfacet
  facet normal -0 0 -1
    outer loop
      vertex 2.98045 6.33379 -12
      vertex 1.17089 2.48827 -12
      vertex 2.16312 6.6574 -12
    endloop
  endfacet
  facet normal 0 0 -1
    outer loop
      vertex 0.849796 2.61541 -12
      vertex 2.16312 6.6574 -12
      vertex 1.17089 2.48827 -12
    endloop
  endfacet
  facet normal -0 0 -1
    outer loop
      vertex 2.16312 6.6574 -12
      vertex 0.849796 2.61541 -12
      vertex 1.31167 6.87601 -12
    endloop
  endfacet
  facet normal 0 0 -1
    outer loop
      vertex 0.515298 2.70129 -12
      vertex 1.31167 6.87601 -12
      vertex 0.849796 2.61541 -12
    endloop
  endfacet
  facet normal 0 0 -1
    outer loop
      vertex 0.515298 2.70129 -12
      vertex 0.439533 6.98619 -12
      vertex 1.31167 6.87601 -12
    endloop
  endfacet
  facet normal 0 0 -1
    outer loop
      vertex 0.172673 2.74457 -12
      vertex 0.439533 6.98619 -12
      vertex 0.515298 2.70129 -12
    endloop
  endfacet
  facet normal 0 0 -1
    outer loop
      vertex -0.172673 2.74457 -12
      vertex 0.439533 6.98619 -12
      vertex 0.172673 2.74457 -12
    endloop
  endfacet
  facet normal 0 0 -1
    outer loop
      vertex -0.172673 2.74457 -12
      vertex -0.439533 6.98619 -12
      vertex 0.439533 6.98619 -12
    endloop
  endfacet
  facet normal 0 0 -1
    outer loop
      vertex -0.515298 2.70129 -12
      vertex -0.439533 6.98619 -12
      vertex -0.172673 2.74457 -12
    endloop
  endfacet
  facet normal 0 0 -1
    outer loop
      vertex -1.31167 6.87601 -12
      vertex -0.515298 2.70129 -12
      vertex -0.849796 2.61541 -12
    endloop
  endfacet
  facet normal 0 0 -1
    outer loop
      vertex -2.16312 6.6574 -12
      vertex -0.849796 2.61541 -12
      vertex -1.17089 2.48827 -12
    endloop
  endfacet
  facet normal 0 0 -1
    outer loop
      vertex -0.515298 2.70129 -12
      vertex -1.31167 6.87601 -12
      vertex -0.439533 6.98619 -12
    endloop
  endfacet
  facet normal 0 0 -1
    outer loop
      vertex -2.98045 6.33379 -12
      vertex -1.17089 2.48827 -12
      vertex -1.47352 2.3219 -12
    endloop
  endfacet
  facet normal 0 0 -1
    outer loop
      vertex -3.75079 5.91029 -12
      vertex -1.47352 2.3219 -12
      vertex -1.75292 2.11891 -12
    endloop
  endfacet
  facet normal 0 0 -1
    outer loop
      vertex -4.46197 5.39359 -12
      vertex -1.75292 2.11891 -12
      vertex -2.00466 1.8825 -12
    endloop
  endfacet
  facet normal 0 0 -1
    outer loop
      vertex -0.849796 2.61541 -12
      vertex -2.16312 6.6574 -12
      vertex -1.31167 6.87601 -12
    endloop
  endfacet
  facet normal 0 0 -1
    outer loop
      vertex -5.10278 4.79183 -12
      vertex -2.00466 1.8825 -12
      vertex -2.2248 1.61641 -12
    endloop
  endfacet
  facet normal 0 0 -1
    outer loop
      vertex -5.66312 4.1145 -12
      vertex -2.2248 1.61641 -12
      vertex -2.40984 1.32482 -12
    endloop
  endfacet
  facet normal 0 0 -1
    outer loop
      vertex -6.13415 3.37228 -12
      vertex -2.40984 1.32482 -12
      vertex -2.55688 1.01234 -12
    endloop
  endfacet
  facet normal 0 0 -1
    outer loop
      vertex -6.50844 2.57687 -12
      vertex -2.55688 1.01234 -12
      vertex -2.6636 0.683897 -12
    endloop
  endfacet
  facet normal 0 0 -1
    outer loop
      vertex -6.78008 1.74083 -12
      vertex -2.6636 0.683897 -12
      vertex -2.72832 0.344666 -12
    endloop
  endfacet
  facet normal 0 0 -1
    outer loop
      vertex -1.17089 2.48827 -12
      vertex -2.98045 6.33379 -12
      vertex -2.16312 6.6574 -12
    endloop
  endfacet
  facet normal 0 0 -1
    outer loop
      vertex -6.9448 0.877332 -12
      vertex -2.72832 0.344666 -12
      vertex -2.75 0 -12
    endloop
  endfacet
  facet normal 0 0 -1
    outer loop
      vertex -6.13415 -3.37228 -12
      vertex -2.40984 -1.32482 -12
      vertex -5.66312 -4.1145 -12
    endloop
  endfacet
  facet normal -0 0 -1
    outer loop
      vertex -2.40984 -1.32482 -12
      vertex -6.13415 -3.37228 -12
      vertex -2.55688 -1.01234 -12
    endloop
  endfacet
  facet normal 0 0 -1
    outer loop
      vertex -1.47352 2.3219 -12
      vertex -3.75079 5.91029 -12
      vertex -2.98045 6.33379 -12
    endloop
  endfacet
  facet normal 0 0 -1
    outer loop
      vertex -6.50844 -2.57687 -12
      vertex -2.55688 -1.01234 -12
      vertex -6.13415 -3.37228 -12
    endloop
  endfacet
  facet normal 0 0 -1
    outer loop
      vertex -1.75292 2.11891 -12
      vertex -4.46197 5.39359 -12
      vertex -3.75079 5.91029 -12
    endloop
  endfacet
  facet normal -0 0 -1
    outer loop
      vertex -2.55688 -1.01234 -12
      vertex -6.50844 -2.57687 -12
      vertex -2.6636 -0.683897 -12
    endloop
  endfacet
  facet normal 0 0 -1
    outer loop
      vertex -2.00466 1.8825 -12
      vertex -5.10278 4.79183 -12
      vertex -4.46197 5.39359 -12
    endloop
  endfacet
  facet normal 0 0 -1
    outer loop
      vertex -6.78008 -1.74083 -12
      vertex -2.6636 -0.683897 -12
      vertex -6.50844 -2.57687 -12
    endloop
  endfacet
  facet normal 0 0 -1
    outer loop
      vertex -2.2248 1.61641 -12
      vertex -5.66312 4.1145 -12
      vertex -5.10278 4.79183 -12
    endloop
  endfacet
  facet normal -0 0 -1
    outer loop
      vertex -2.6636 -0.683897 -12
      vertex -6.78008 -1.74083 -12
      vertex -2.72832 -0.344666 -12
    endloop
  endfacet
  facet normal 0 0 -1
    outer loop
      vertex -2.40984 1.32482 -12
      vertex -6.13415 3.37228 -12
      vertex -5.66312 4.1145 -12
    endloop
  endfacet
  facet normal 0 0 -1
    outer loop
      vertex -6.9448 -0.877332 -12
      vertex -2.72832 -0.344666 -12
      vertex -6.78008 -1.74083 -12
    endloop
  endfacet
  facet normal 0 0 -1
    outer loop
      vertex -2.55688 1.01234 -12
      vertex -6.50844 2.57687 -12
      vertex -6.13415 3.37228 -12
    endloop
  endfacet
  facet normal -0 0 -1
    outer loop
      vertex -2.72832 -0.344666 -12
      vertex -6.9448 -0.877332 -12
      vertex -2.75 0 -12
    endloop
  endfacet
  facet normal 0 0 -1
    outer loop
      vertex -2.6636 0.683897 -12
      vertex -6.78008 1.74083 -12
      vertex -6.50844 2.57687 -12
    endloop
  endfacet
  facet normal 0 0 -1
    outer loop
      vertex -7 0 -12
      vertex -2.75 0 -12
      vertex -6.9448 -0.877332 -12
    endloop
  endfacet
  facet normal 0 0 -1
    outer loop
      vertex -2.72832 0.344666 -12
      vertex -6.9448 0.877332 -12
      vertex -6.78008 1.74083 -12
    endloop
  endfacet
  facet normal 0 0 -1
    outer loop
      vertex -2.75 0 -12
      vertex -7 0 -12
      vertex -6.9448 0.877332 -12
    endloop
  endfacet
  facet normal 0.481755 -0.876306 0
    outer loop
      vertex 2.98045 -6.33379 -12
      vertex 3.75079 -5.91029 -3
      vertex 2.98045 -6.33379 -3
    endloop
  endfacet
  facet normal 0.481755 -0.876306 0
    outer loop
      vertex 3.75079 -5.91029 -3
      vertex 2.98045 -6.33379 -12
      vertex 3.75079 -5.91029 -12
    endloop
  endfacet
  facet normal 0.951058 -0.309011 0
    outer loop
      vertex 6.50844 -2.57687 -3
      vertex 6.78008 -1.74083 -12
      vertex 6.78008 -1.74083 -3
    endloop
  endfacet
  facet normal 0.951058 -0.309011 0
    outer loop
      vertex 6.78008 -1.74083 -12
      vertex 6.50844 -2.57687 -3
      vertex 6.50844 -2.57687 -12
    endloop
  endfacet
  facet normal -0.770511 -0.637427 0
    outer loop
      vertex -5.10278 -4.79183 -12
      vertex -5.66312 -4.1145 -3
      vertex -5.66312 -4.1145 -12
    endloop
  endfacet
  facet normal -0.770511 -0.637427 0
    outer loop
      vertex -5.66312 -4.1145 -3
      vertex -5.10278 -4.79183 -12
      vertex -5.10278 -4.79183 -3
    endloop
  endfacet
  facet normal -0.951058 -0.309011 0
    outer loop
      vertex -6.50844 -2.57687 -12
      vertex -6.78008 -1.74083 -3
      vertex -6.78008 -1.74083 -12
    endloop
  endfacet
  facet normal -0.951058 -0.309011 0
    outer loop
      vertex -6.78008 -1.74083 -3
      vertex -6.50844 -2.57687 -12
      vertex -6.50844 -2.57687 -3
    endloop
  endfacet
  facet normal 0.684547 -0.728969 0
    outer loop
      vertex 4.46197 -5.39359 -12
      vertex 5.10278 -4.79183 -3
      vertex 4.46197 -5.39359 -3
    endloop
  endfacet
  facet normal 0.684547 -0.728969 0
    outer loop
      vertex 5.10278 -4.79183 -3
      vertex 4.46197 -5.39359 -12
      vertex 5.10278 -4.79183 -12
    endloop
  endfacet
  facet normal 0.368131 -0.929774 0
    outer loop
      vertex 2.16312 -6.6574 -12
      vertex 2.98045 -6.33379 -3
      vertex 2.16312 -6.6574 -3
    endloop
  endfacet
  facet normal 0.368131 -0.929774 0
    outer loop
      vertex 2.98045 -6.33379 -3
      vertex 2.16312 -6.6574 -12
      vertex 2.98045 -6.33379 -12
    endloop
  endfacet
  facet normal 0.248684 -0.968585 0
    outer loop
      vertex 1.31167 -6.87601 -12
      vertex 2.16312 -6.6574 -3
      vertex 1.31167 -6.87601 -3
    endloop
  endfacet
  facet normal 0.248684 -0.968585 0
    outer loop
      vertex 2.16312 -6.6574 -3
      vertex 1.31167 -6.87601 -12
      vertex 2.16312 -6.6574 -12
    endloop
  endfacet
  facet normal 0.982287 -0.18738 0
    outer loop
      vertex 6.78008 -1.74083 -3
      vertex 6.9448 -0.877332 -12
      vertex 6.9448 -0.877332 -3
    endloop
  endfacet
  facet normal 0.982287 -0.18738 0
    outer loop
      vertex 6.9448 -0.877332 -12
      vertex 6.78008 -1.74083 -3
      vertex 6.78008 -1.74083 -12
    endloop
  endfacet
  facet normal 0.844326 -0.535829 0
    outer loop
      vertex 5.66312 -4.1145 -3
      vertex 6.13415 -3.37228 -12
      vertex 6.13415 -3.37228 -3
    endloop
  endfacet
  facet normal 0.844326 -0.535829 0
    outer loop
      vertex 6.13415 -3.37228 -12
      vertex 5.66312 -4.1145 -3
      vertex 5.66312 -4.1145 -12
    endloop
  endfacet
  facet normal 0.770511 -0.637427 0
    outer loop
      vertex 5.10278 -4.79183 -3
      vertex 5.66312 -4.1145 -12
      vertex 5.66312 -4.1145 -3
    endloop
  endfacet
  facet normal 0.770511 -0.637427 0
    outer loop
      vertex 5.66312 -4.1145 -12
      vertex 5.10278 -4.79183 -3
      vertex 5.10278 -4.79183 -12
    endloop
  endfacet
  facet normal -0.125337 -0.992114 0
    outer loop
      vertex -1.31167 -6.87601 -12
      vertex -0.439533 -6.98619 -3
      vertex -1.31167 -6.87601 -3
    endloop
  endfacet
  facet normal -0.125337 -0.992114 -0
    outer loop
      vertex -0.439533 -6.98619 -3
      vertex -1.31167 -6.87601 -12
      vertex -0.439533 -6.98619 -12
    endloop
  endfacet
  facet normal -0.368131 -0.929774 0
    outer loop
      vertex -2.98045 -6.33379 -12
      vertex -2.16312 -6.6574 -3
      vertex -2.98045 -6.33379 -3
    endloop
  endfacet
  facet normal -0.368131 -0.929774 -0
    outer loop
      vertex -2.16312 -6.6574 -3
      vertex -2.98045 -6.33379 -12
      vertex -2.16312 -6.6574 -12
    endloop
  endfacet
  facet normal -0.248684 -0.968585 0
    outer loop
      vertex -2.16312 -6.6574 -12
      vertex -1.31167 -6.87601 -3
      vertex -2.16312 -6.6574 -3
    endloop
  endfacet
  facet normal -0.248684 -0.968585 -0
    outer loop
      vertex -1.31167 -6.87601 -3
      vertex -2.16312 -6.6574 -12
      vertex -1.31167 -6.87601 -12
    endloop
  endfacet
  facet normal -0.982287 -0.18738 0
    outer loop
      vertex -6.78008 -1.74083 -12
      vertex -6.9448 -0.877332 -3
      vertex -6.9448 -0.877332 -12
    endloop
  endfacet
  facet normal -0.982287 -0.18738 0
    outer loop
      vertex -6.9448 -0.877332 -3
      vertex -6.78008 -1.74083 -12
      vertex -6.78008 -1.74083 -3
    endloop
  endfacet
  facet normal -0.998027 -0.0627939 0
    outer loop
      vertex -6.9448 -0.877332 -12
      vertex -7 0 -3
      vertex -7 0 -12
    endloop
  endfacet
  facet normal -0.998027 -0.0627939 0
    outer loop
      vertex -7 0 -3
      vertex -6.9448 -0.877332 -12
      vertex -6.9448 -0.877332 -3
    endloop
  endfacet
  facet normal 0.587783 -0.809018 0
    outer loop
      vertex 3.75079 -5.91029 -12
      vertex 4.46197 -5.39359 -3
      vertex 3.75079 -5.91029 -3
    endloop
  endfacet
  facet normal 0.587783 -0.809018 0
    outer loop
      vertex 4.46197 -5.39359 -3
      vertex 3.75079 -5.91029 -12
      vertex 4.46197 -5.39359 -12
    endloop
  endfacet
  facet normal -0.481755 -0.876306 0
    outer loop
      vertex -3.75079 -5.91029 -12
      vertex -2.98045 -6.33379 -3
      vertex -3.75079 -5.91029 -3
    endloop
  endfacet
  facet normal -0.481755 -0.876306 -0
    outer loop
      vertex -2.98045 -6.33379 -3
      vertex -3.75079 -5.91029 -12
      vertex -2.98045 -6.33379 -12
    endloop
  endfacet
  facet normal -0.587783 -0.809018 0
    outer loop
      vertex -4.46197 -5.39359 -12
      vertex -3.75079 -5.91029 -3
      vertex -4.46197 -5.39359 -3
    endloop
  endfacet
  facet normal -0.587783 -0.809018 -0
    outer loop
      vertex -3.75079 -5.91029 -3
      vertex -4.46197 -5.39359 -12
      vertex -3.75079 -5.91029 -12
    endloop
  endfacet
  facet normal 0.998025 0.062814 0
    outer loop
      vertex 17 0 0
      vertex 16.8659 2.13066 -3
      vertex 16.8659 2.13066 0
    endloop
  endfacet
  facet normal 0.998025 0.062814 0
    outer loop
      vertex 16.8659 2.13066 -3
      vertex 17 0 0
      vertex 17 0 -3
    endloop
  endfacet
  facet normal -0.998025 0.062814 0
    outer loop
      vertex -17 0 -3
      vertex -16.8659 2.13066 0
      vertex -16.8659 2.13066 -3
    endloop
  endfacet
  facet normal -0.998025 0.062814 0
    outer loop
      vertex -16.8659 2.13066 0
      vertex -17 0 -3
      vertex -17 0 0
    endloop
  endfacet
  facet normal 0 1 -0
    outer loop
      vertex 1.06744 16.9665 -3
      vertex -1.06744 16.9665 0
      vertex 1.06744 16.9665 0
    endloop
  endfacet
  facet normal 0 1 0
    outer loop
      vertex -1.06744 16.9665 0
      vertex 1.06744 16.9665 -3
      vertex -1.06744 16.9665 -3
    endloop
  endfacet
  facet normal 0 -1 0
    outer loop
      vertex -1.06744 -16.9665 -3
      vertex 1.06744 -16.9665 0
      vertex -1.06744 -16.9665 0
    endloop
  endfacet
  facet normal 0 -1 -0
    outer loop
      vertex 1.06744 -16.9665 0
      vertex -1.06744 -16.9665 -3
      vertex 1.06744 -16.9665 -3
    endloop
  endfacet
  facet normal 0.684531 0.728983 -0
    outer loop
      vertex 12.3925 11.6373 -3
      vertex 10.8362 13.0987 0
      vertex 12.3925 11.6373 0
    endloop
  endfacet
  facet normal 0.684531 0.728983 0
    outer loop
      vertex 10.8362 13.0987 0
      vertex 12.3925 11.6373 -3
      vertex 10.8362 13.0987 -3
    endloop
  endfacet
  facet normal -0.684531 0.728983 0
    outer loop
      vertex -10.8362 13.0987 -3
      vertex -12.3925 11.6373 0
      vertex -10.8362 13.0987 0
    endloop
  endfacet
  facet normal -0.684531 0.728983 0
    outer loop
      vertex -12.3925 11.6373 0
      vertex -10.8362 13.0987 -3
      vertex -12.3925 11.6373 -3
    endloop
  endfacet
  facet normal -0.368124 0.929777 0
    outer loop
      vertex -5.25329 16.168 -3
      vertex -7.23825 15.3821 0
      vertex -5.25329 16.168 0
    endloop
  endfacet
  facet normal -0.368124 0.929777 0
    outer loop
      vertex -7.23825 15.3821 0
      vertex -5.25329 16.168 -3
      vertex -7.23825 15.3821 -3
    endloop
  endfacet
  facet normal 0.904824 0.425785 0
    outer loop
      vertex 15.8062 6.25812 0
      vertex 14.8972 8.18981 -3
      vertex 14.8972 8.18981 0
    endloop
  endfacet
  facet normal 0.904824 0.425785 0
    outer loop
      vertex 14.8972 8.18981 -3
      vertex 15.8062 6.25812 0
      vertex 15.8062 6.25812 -3
    endloop
  endfacet
  facet normal 0.368124 0.929777 -0
    outer loop
      vertex 7.23825 15.3821 -3
      vertex 5.25329 16.168 0
      vertex 7.23825 15.3821 0
    endloop
  endfacet
  facet normal 0.368124 0.929777 0
    outer loop
      vertex 5.25329 16.168 0
      vertex 7.23825 15.3821 -3
      vertex 5.25329 16.168 -3
    endloop
  endfacet
  facet normal 0.24868 0.968586 -0
    outer loop
      vertex 5.25329 16.168 -3
      vertex 3.18548 16.6989 0
      vertex 5.25329 16.168 0
    endloop
  endfacet
  facet normal 0.24868 0.968586 0
    outer loop
      vertex 3.18548 16.6989 0
      vertex 5.25329 16.168 -3
      vertex 3.18548 16.6989 -3
    endloop
  endfacet
  facet normal 0.481761 0.876303 -0
    outer loop
      vertex 9.10905 14.3536 -3
      vertex 7.23825 15.3821 0
      vertex 9.10905 14.3536 0
    endloop
  endfacet
  facet normal 0.481761 0.876303 0
    outer loop
      vertex 7.23825 15.3821 0
      vertex 9.10905 14.3536 -3
      vertex 7.23825 15.3821 -3
    endloop
  endfacet
  facet normal -0.904824 0.425785 0
    outer loop
      vertex -15.8062 6.25812 -3
      vertex -14.8972 8.18981 0
      vertex -14.8972 8.18981 -3
    endloop
  endfacet
  facet normal -0.904824 0.425785 0
    outer loop
      vertex -14.8972 8.18981 0
      vertex -15.8062 6.25812 -3
      vertex -15.8062 6.25812 0
    endloop
  endfacet
  facet normal -0.125347 0.992113 0
    outer loop
      vertex -1.06744 16.9665 -3
      vertex -3.18548 16.6989 0
      vertex -1.06744 16.9665 0
    endloop
  endfacet
  facet normal -0.125347 0.992113 0
    outer loop
      vertex -3.18548 16.6989 0
      vertex -1.06744 16.9665 -3
      vertex -3.18548 16.6989 -3
    endloop
  endfacet
  facet normal 0.98229 -0.187364 0
    outer loop
      vertex 16.4659 -4.22773 0
      vertex 16.8659 -2.13066 -3
      vertex 16.8659 -2.13066 0
    endloop
  endfacet
  facet normal 0.98229 -0.187364 0
    outer loop
      vertex 16.8659 -2.13066 -3
      vertex 16.4659 -4.22773 0
      vertex 16.4659 -4.22773 -3
    endloop
  endfacet
  facet normal 0 0 -1
    outer loop
      vertex 7 0 -3
      vertex 17 0 -3
      vertex 16.8659 -2.13066 -3
    endloop
  endfacet
  facet normal 0 0 -1
    outer loop
      vertex 6.9448 -0.877332 -3
      vertex 16.8659 -2.13066 -3
      vertex 16.4659 -4.22773 -3
    endloop
  endfacet
  facet normal 0 0 -1
    outer loop
      vertex 17 0 -3
      vertex 7 0 -3
      vertex 16.8659 2.13066 -3
    endloop
  endfacet
  facet normal 0 0 -1
    outer loop
      vertex 6.78008 -1.74083 -3
      vertex 16.4659 -4.22773 -3
      vertex 15.8062 -6.25812 -3
    endloop
  endfacet
  facet normal 0 0 -1
    outer loop
      vertex 6.9448 0.877332 -3
      vertex 16.8659 2.13066 -3
      vertex 7 0 -3
    endloop
  endfacet
  facet normal 0 0 -1
    outer loop
      vertex 6.50844 -2.57687 -3
      vertex 15.8062 -6.25812 -3
      vertex 14.8972 -8.18981 -3
    endloop
  endfacet
  facet normal -0 0 -1
    outer loop
      vertex 16.8659 2.13066 -3
      vertex 6.9448 0.877332 -3
      vertex 16.4659 4.22773 -3
    endloop
  endfacet
  facet normal 0 0 -1
    outer loop
      vertex 6.13415 -3.37228 -3
      vertex 14.8972 -8.18981 -3
      vertex 13.7533 -9.99235 -3
    endloop
  endfacet
  facet normal 0 0 -1
    outer loop
      vertex 6.78008 1.74083 -3
      vertex 16.4659 4.22773 -3
      vertex 6.9448 0.877332 -3
    endloop
  endfacet
  facet normal 0 0 -1
    outer loop
      vertex 5.66312 -4.1145 -3
      vertex 13.7533 -9.99235 -3
      vertex 12.3925 -11.6373 -3
    endloop
  endfacet
  facet normal -0 0 -1
    outer loop
      vertex 16.4659 4.22773 -3
      vertex 6.78008 1.74083 -3
      vertex 15.8062 6.25812 -3
    endloop
  endfacet
  facet normal 0 0 -1
    outer loop
      vertex 5.10278 -4.79183 -3
      vertex 12.3925 -11.6373 -3
      vertex 10.8362 -13.0987 -3
    endloop
  endfacet
  facet normal 0 0 -1
    outer loop
      vertex 6.50844 2.57687 -3
      vertex 15.8062 6.25812 -3
      vertex 6.78008 1.74083 -3
    endloop
  endfacet
  facet normal 0 0 -1
    outer loop
      vertex 4.46197 -5.39359 -3
      vertex 10.8362 -13.0987 -3
      vertex 9.10905 -14.3536 -3
    endloop
  endfacet
  facet normal -0 0 -1
    outer loop
      vertex 15.8062 6.25812 -3
      vertex 6.50844 2.57687 -3
      vertex 14.8972 8.18981 -3
    endloop
  endfacet
  facet normal 0 0 -1
    outer loop
      vertex 3.75079 -5.91029 -3
      vertex 9.10905 -14.3536 -3
      vertex 7.23825 -15.3821 -3
    endloop
  endfacet
  facet normal 0 0 -1
    outer loop
      vertex 6.13415 3.37228 -3
      vertex 14.8972 8.18981 -3
      vertex 6.50844 2.57687 -3
    endloop
  endfacet
  facet normal -0 0 -1
    outer loop
      vertex 14.8972 8.18981 -3
      vertex 6.13415 3.37228 -3
      vertex 13.7533 9.99235 -3
    endloop
  endfacet
  facet normal 0 0 -1
    outer loop
      vertex 16.8659 -2.13066 -3
      vertex 6.9448 -0.877332 -3
      vertex 7 0 -3
    endloop
  endfacet
  facet normal 0 0 -1
    outer loop
      vertex 16.4659 -4.22773 -3
      vertex 6.78008 -1.74083 -3
      vertex 6.9448 -0.877332 -3
    endloop
  endfacet
  facet normal 0 0 -1
    outer loop
      vertex 15.8062 -6.25812 -3
      vertex 6.50844 -2.57687 -3
      vertex 6.78008 -1.74083 -3
    endloop
  endfacet
  facet normal 0 0 -1
    outer loop
      vertex 14.8972 -8.18981 -3
      vertex 6.13415 -3.37228 -3
      vertex 6.50844 -2.57687 -3
    endloop
  endfacet
  facet normal 0 0 -1
    outer loop
      vertex 13.7533 -9.99235 -3
      vertex 5.66312 -4.1145 -3
      vertex 6.13415 -3.37228 -3
    endloop
  endfacet
  facet normal 0 0 -1
    outer loop
      vertex 2.98045 -6.33379 -3
      vertex 7.23825 -15.3821 -3
      vertex 5.25329 -16.168 -3
    endloop
  endfacet
  facet normal 0 0 -1
    outer loop
      vertex 12.3925 -11.6373 -3
      vertex 5.10278 -4.79183 -3
      vertex 5.66312 -4.1145 -3
    endloop
  endfacet
  facet normal 0 0 -1
    outer loop
      vertex 10.8362 -13.0987 -3
      vertex 4.46197 -5.39359 -3
      vertex 5.10278 -4.79183 -3
    endloop
  endfacet
  facet normal 0 0 -1
    outer loop
      vertex 9.10905 -14.3536 -3
      vertex 3.75079 -5.91029 -3
      vertex 4.46197 -5.39359 -3
    endloop
  endfacet
  facet normal 0 0 -1
    outer loop
      vertex 2.16312 -6.6574 -3
      vertex 5.25329 -16.168 -3
      vertex 3.18548 -16.6989 -3
    endloop
  endfacet
  facet normal 0 0 -1
    outer loop
      vertex 7.23825 -15.3821 -3
      vertex 2.98045 -6.33379 -3
      vertex 3.75079 -5.91029 -3
    endloop
  endfacet
  facet normal 0 0 -1
    outer loop
      vertex 5.25329 -16.168 -3
      vertex 2.16312 -6.6574 -3
      vertex 2.98045 -6.33379 -3
    endloop
  endfacet
  facet normal 0 0 -1
    outer loop
      vertex 3.18548 -16.6989 -3
      vertex 1.31167 -6.87601 -3
      vertex 2.16312 -6.6574 -3
    endloop
  endfacet
  facet normal 0 0 -1
    outer loop
      vertex 1.06744 -16.9665 -3
      vertex 1.31167 -6.87601 -3
      vertex 3.18548 -16.6989 -3
    endloop
  endfacet
  facet normal 0 0 -1
    outer loop
      vertex 1.06744 -16.9665 -3
      vertex 0.439533 -6.98619 -3
      vertex 1.31167 -6.87601 -3
    endloop
  endfacet
  facet normal 0 0 -1
    outer loop
      vertex 1.06744 -16.9665 -3
      vertex -0.439533 -6.98619 -3
      vertex 0.439533 -6.98619 -3
    endloop
  endfacet
  facet normal 0 0 -1
    outer loop
      vertex -1.06744 -16.9665 -3
      vertex -0.439533 -6.98619 -3
      vertex 1.06744 -16.9665 -3
    endloop
  endfacet
  facet normal 0 0 -1
    outer loop
      vertex -1.06744 -16.9665 -3
      vertex -1.31167 -6.87601 -3
      vertex -0.439533 -6.98619 -3
    endloop
  endfacet
  facet normal 0 0 -1
    outer loop
      vertex -3.18548 -16.6989 -3
      vertex -1.31167 -6.87601 -3
      vertex -1.06744 -16.9665 -3
    endloop
  endfacet
  facet normal -0 0 -1
    outer loop
      vertex -1.31167 -6.87601 -3
      vertex -3.18548 -16.6989 -3
      vertex -2.16312 -6.6574 -3
    endloop
  endfacet
  facet normal 0 0 -1
    outer loop
      vertex -5.25329 -16.168 -3
      vertex -2.16312 -6.6574 -3
      vertex -3.18548 -16.6989 -3
    endloop
  endfacet
  facet normal -0 0 -1
    outer loop
      vertex -2.16312 -6.6574 -3
      vertex -5.25329 -16.168 -3
      vertex -2.98045 -6.33379 -3
    endloop
  endfacet
  facet normal 0 0 -1
    outer loop
      vertex -7.23825 -15.3821 -3
      vertex -2.98045 -6.33379 -3
      vertex -5.25329 -16.168 -3
    endloop
  endfacet
  facet normal -0 0 -1
    outer loop
      vertex -2.98045 -6.33379 -3
      vertex -7.23825 -15.3821 -3
      vertex -3.75079 -5.91029 -3
    endloop
  endfacet
  facet normal 0 0 -1
    outer loop
      vertex -9.10905 -14.3536 -3
      vertex -3.75079 -5.91029 -3
      vertex -7.23825 -15.3821 -3
    endloop
  endfacet
  facet normal -0 0 -1
    outer loop
      vertex -3.75079 -5.91029 -3
      vertex -9.10905 -14.3536 -3
      vertex -4.46197 -5.39359 -3
    endloop
  endfacet
  facet normal 0 0 -1
    outer loop
      vertex -10.8362 -13.0987 -3
      vertex -4.46197 -5.39359 -3
      vertex -9.10905 -14.3536 -3
    endloop
  endfacet
  facet normal -0 0 -1
    outer loop
      vertex -4.46197 -5.39359 -3
      vertex -10.8362 -13.0987 -3
      vertex -5.10278 -4.79183 -3
    endloop
  endfacet
  facet normal 0 0 -1
    outer loop
      vertex -12.3925 -11.6373 -3
      vertex -5.10278 -4.79183 -3
      vertex -10.8362 -13.0987 -3
    endloop
  endfacet
  facet normal -0 0 -1
    outer loop
      vertex -5.10278 -4.79183 -3
      vertex -12.3925 -11.6373 -3
      vertex -5.66312 -4.1145 -3
    endloop
  endfacet
  facet normal -0 0 -1
    outer loop
      vertex -5.66312 -4.1145 -3
      vertex -13.7533 -9.99235 -3
      vertex -6.13415 -3.37228 -3
    endloop
  endfacet
  facet normal 0 0 -1
    outer loop
      vertex -13.7533 -9.99235 -3
      vertex -5.66312 -4.1145 -3
      vertex -12.3925 -11.6373 -3
    endloop
  endfacet
  facet normal 0 0 -1
    outer loop
      vertex 5.66312 4.1145 -3
      vertex 13.7533 9.99235 -3
      vertex 6.13415 3.37228 -3
    endloop
  endfacet
  facet normal -0 0 -1
    outer loop
      vertex 13.7533 9.99235 -3
      vertex 5.66312 4.1145 -3
      vertex 12.3925 11.6373 -3
    endloop
  endfacet
  facet normal 0 0 -1
    outer loop
      vertex 5.10278 4.79183 -3
      vertex 12.3925 11.6373 -3
      vertex 5.66312 4.1145 -3
    endloop
  endfacet
  facet normal -0 0 -1
    outer loop
      vertex 12.3925 11.6373 -3
      vertex 5.10278 4.79183 -3
      vertex 10.8362 13.0987 -3
    endloop
  endfacet
  facet normal 0 0 -1
    outer loop
      vertex 4.46197 5.39359 -3
      vertex 10.8362 13.0987 -3
      vertex 5.10278 4.79183 -3
    endloop
  endfacet
  facet normal -0 0 -1
    outer loop
      vertex 10.8362 13.0987 -3
      vertex 4.46197 5.39359 -3
      vertex 9.10905 14.3536 -3
    endloop
  endfacet
  facet normal 0 0 -1
    outer loop
      vertex 3.75079 5.91029 -3
      vertex 9.10905 14.3536 -3
      vertex 4.46197 5.39359 -3
    endloop
  endfacet
  facet normal -0 0 -1
    outer loop
      vertex 9.10905 14.3536 -3
      vertex 3.75079 5.91029 -3
      vertex 7.23825 15.3821 -3
    endloop
  endfacet
  facet normal 0 0 -1
    outer loop
      vertex 2.98045 6.33379 -3
      vertex 7.23825 15.3821 -3
      vertex 3.75079 5.91029 -3
    endloop
  endfacet
  facet normal -0 0 -1
    outer loop
      vertex 7.23825 15.3821 -3
      vertex 2.98045 6.33379 -3
      vertex 5.25329 16.168 -3
    endloop
  endfacet
  facet normal 0 0 -1
    outer loop
      vertex 2.16312 6.6574 -3
      vertex 5.25329 16.168 -3
      vertex 2.98045 6.33379 -3
    endloop
  endfacet
  facet normal -0 0 -1
    outer loop
      vertex 5.25329 16.168 -3
      vertex 2.16312 6.6574 -3
      vertex 3.18548 16.6989 -3
    endloop
  endfacet
  facet normal 0 0 -1
    outer loop
      vertex 1.31167 6.87601 -3
      vertex 3.18548 16.6989 -3
      vertex 2.16312 6.6574 -3
    endloop
  endfacet
  facet normal 0 0 -1
    outer loop
      vertex 1.31167 6.87601 -3
      vertex 1.06744 16.9665 -3
      vertex 3.18548 16.6989 -3
    endloop
  endfacet
  facet normal 0 0 -1
    outer loop
      vertex 0.439533 6.98619 -3
      vertex 1.06744 16.9665 -3
      vertex 1.31167 6.87601 -3
    endloop
  endfacet
  facet normal 0 0 -1
    outer loop
      vertex -0.439533 6.98619 -3
      vertex 1.06744 16.9665 -3
      vertex 0.439533 6.98619 -3
    endloop
  endfacet
  facet normal 0 0 -1
    outer loop
      vertex -0.439533 6.98619 -3
      vertex -1.06744 16.9665 -3
      vertex 1.06744 16.9665 -3
    endloop
  endfacet
  facet normal 0 0 -1
    outer loop
      vertex -1.31167 6.87601 -3
      vertex -1.06744 16.9665 -3
      vertex -0.439533 6.98619 -3
    endloop
  endfacet
  facet normal 0 0 -1
    outer loop
      vertex -3.18548 16.6989 -3
      vertex -1.31167 6.87601 -3
      vertex -2.16312 6.6574 -3
    endloop
  endfacet
  facet normal 0 0 -1
    outer loop
      vertex -5.25329 16.168 -3
      vertex -2.16312 6.6574 -3
      vertex -2.98045 6.33379 -3
    endloop
  endfacet
  facet normal 0 0 -1
    outer loop
      vertex -1.31167 6.87601 -3
      vertex -3.18548 16.6989 -3
      vertex -1.06744 16.9665 -3
    endloop
  endfacet
  facet normal 0 0 -1
    outer loop
      vertex -7.23825 15.3821 -3
      vertex -2.98045 6.33379 -3
      vertex -3.75079 5.91029 -3
    endloop
  endfacet
  facet normal 0 0 -1
    outer loop
      vertex -9.10905 14.3536 -3
      vertex -3.75079 5.91029 -3
      vertex -4.46197 5.39359 -3
    endloop
  endfacet
  facet normal 0 0 -1
    outer loop
      vertex -10.8362 13.0987 -3
      vertex -4.46197 5.39359 -3
      vertex -5.10278 4.79183 -3
    endloop
  endfacet
  facet normal 0 0 -1
    outer loop
      vertex -2.16312 6.6574 -3
      vertex -5.25329 16.168 -3
      vertex -3.18548 16.6989 -3
    endloop
  endfacet
  facet normal 0 0 -1
    outer loop
      vertex -12.3925 11.6373 -3
      vertex -5.10278 4.79183 -3
      vertex -5.66312 4.1145 -3
    endloop
  endfacet
  facet normal 0 0 -1
    outer loop
      vertex -13.7533 9.99235 -3
      vertex -5.66312 4.1145 -3
      vertex -6.13415 3.37228 -3
    endloop
  endfacet
  facet normal 0 0 -1
    outer loop
      vertex -14.8972 8.18981 -3
      vertex -6.13415 3.37228 -3
      vertex -6.50844 2.57687 -3
    endloop
  endfacet
  facet normal 0 0 -1
    outer loop
      vertex -15.8062 6.25812 -3
      vertex -6.50844 2.57687 -3
      vertex -6.78008 1.74083 -3
    endloop
  endfacet
  facet normal 0 0 -1
    outer loop
      vertex -16.4659 4.22773 -3
      vertex -6.78008 1.74083 -3
      vertex -6.9448 0.877332 -3
    endloop
  endfacet
  facet normal 0 0 -1
    outer loop
      vertex -2.98045 6.33379 -3
      vertex -7.23825 15.3821 -3
      vertex -5.25329 16.168 -3
    endloop
  endfacet
  facet normal 0 0 -1
    outer loop
      vertex -16.8659 2.13066 -3
      vertex -6.9448 0.877332 -3
      vertex -7 0 -3
    endloop
  endfacet
  facet normal 0 0 -1
    outer loop
      vertex -14.8972 -8.18981 -3
      vertex -6.13415 -3.37228 -3
      vertex -13.7533 -9.99235 -3
    endloop
  endfacet
  facet normal -0 0 -1
    outer loop
      vertex -6.13415 -3.37228 -3
      vertex -14.8972 -8.18981 -3
      vertex -6.50844 -2.57687 -3
    endloop
  endfacet
  facet normal 0 0 -1
    outer loop
      vertex -3.75079 5.91029 -3
      vertex -9.10905 14.3536 -3
      vertex -7.23825 15.3821 -3
    endloop
  endfacet
  facet normal 0 0 -1
    outer loop
      vertex -15.8062 -6.25812 -3
      vertex -6.50844 -2.57687 -3
      vertex -14.8972 -8.18981 -3
    endloop
  endfacet
  facet normal 0 0 -1
    outer loop
      vertex -4.46197 5.39359 -3
      vertex -10.8362 13.0987 -3
      vertex -9.10905 14.3536 -3
    endloop
  endfacet
  facet normal -0 0 -1
    outer loop
      vertex -6.50844 -2.57687 -3
      vertex -15.8062 -6.25812 -3
      vertex -6.78008 -1.74083 -3
    endloop
  endfacet
  facet normal 0 0 -1
    outer loop
      vertex -5.10278 4.79183 -3
      vertex -12.3925 11.6373 -3
      vertex -10.8362 13.0987 -3
    endloop
  endfacet
  facet normal 0 0 -1
    outer loop
      vertex -16.4659 -4.22773 -3
      vertex -6.78008 -1.74083 -3
      vertex -15.8062 -6.25812 -3
    endloop
  endfacet
  facet normal 0 0 -1
    outer loop
      vertex -5.66312 4.1145 -3
      vertex -13.7533 9.99235 -3
      vertex -12.3925 11.6373 -3
    endloop
  endfacet
  facet normal -0 0 -1
    outer loop
      vertex -6.78008 -1.74083 -3
      vertex -16.4659 -4.22773 -3
      vertex -6.9448 -0.877332 -3
    endloop
  endfacet
  facet normal 0 0 -1
    outer loop
      vertex -6.13415 3.37228 -3
      vertex -14.8972 8.18981 -3
      vertex -13.7533 9.99235 -3
    endloop
  endfacet
  facet normal 0 0 -1
    outer loop
      vertex -16.8659 -2.13066 -3
      vertex -6.9448 -0.877332 -3
      vertex -16.4659 -4.22773 -3
    endloop
  endfacet
  facet normal 0 0 -1
    outer loop
      vertex -6.50844 2.57687 -3
      vertex -15.8062 6.25812 -3
      vertex -14.8972 8.18981 -3
    endloop
  endfacet
  facet normal -0 0 -1
    outer loop
      vertex -6.9448 -0.877332 -3
      vertex -16.8659 -2.13066 -3
      vertex -7 0 -3
    endloop
  endfacet
  facet normal 0 0 -1
    outer loop
      vertex -6.78008 1.74083 -3
      vertex -16.4659 4.22773 -3
      vertex -15.8062 6.25812 -3
    endloop
  endfacet
  facet normal 0 0 -1
    outer loop
      vertex -17 0 -3
      vertex -7 0 -3
      vertex -16.8659 -2.13066 -3
    endloop
  endfacet
  facet normal 0 0 -1
    outer loop
      vertex -6.9448 0.877332 -3
      vertex -16.8659 2.13066 -3
      vertex -16.4659 4.22773 -3
    endloop
  endfacet
  facet normal 0 0 -1
    outer loop
      vertex -7 0 -3
      vertex -17 0 -3
      vertex -16.8659 2.13066 -3
    endloop
  endfacet
  facet normal 0.125347 -0.992113 0
    outer loop
      vertex 1.06744 -16.9665 -3
      vertex 3.18548 -16.6989 0
      vertex 1.06744 -16.9665 0
    endloop
  endfacet
  facet normal 0.125347 -0.992113 0
    outer loop
      vertex 3.18548 -16.6989 0
      vertex 1.06744 -16.9665 -3
      vertex 3.18548 -16.6989 -3
    endloop
  endfacet
  facet normal 0.951058 0.309011 0
    outer loop
      vertex 16.4659 4.22773 0
      vertex 15.8062 6.25812 -3
      vertex 15.8062 6.25812 0
    endloop
  endfacet
  facet normal 0.951058 0.309011 0
    outer loop
      vertex 15.8062 6.25812 -3
      vertex 16.4659 4.22773 0
      vertex 16.4659 4.22773 -3
    endloop
  endfacet
  facet normal 0.98229 0.187364 0
    outer loop
      vertex 16.8659 2.13066 0
      vertex 16.4659 4.22773 -3
      vertex 16.4659 4.22773 0
    endloop
  endfacet
  facet normal 0.98229 0.187364 0
    outer loop
      vertex 16.4659 4.22773 -3
      vertex 16.8659 2.13066 0
      vertex 16.8659 2.13066 -3
    endloop
  endfacet
  facet normal 0.770518 0.637418 0
    outer loop
      vertex 13.7533 9.99235 0
      vertex 12.3925 11.6373 -3
      vertex 12.3925 11.6373 0
    endloop
  endfacet
  facet normal 0.770518 0.637418 0
    outer loop
      vertex 12.3925 11.6373 -3
      vertex 13.7533 9.99235 0
      vertex 13.7533 9.99235 -3
    endloop
  endfacet
  facet normal 0.844334 0.535818 0
    outer loop
      vertex 14.8972 8.18981 0
      vertex 13.7533 9.99235 -3
      vertex 13.7533 9.99235 0
    endloop
  endfacet
  facet normal 0.844334 0.535818 0
    outer loop
      vertex 13.7533 9.99235 -3
      vertex 14.8972 8.18981 0
      vertex 14.8972 8.18981 -3
    endloop
  endfacet
  facet normal 0.125347 0.992113 -0
    outer loop
      vertex 3.18548 16.6989 -3
      vertex 1.06744 16.9665 0
      vertex 3.18548 16.6989 0
    endloop
  endfacet
  facet normal 0.125347 0.992113 0
    outer loop
      vertex 1.06744 16.9665 0
      vertex 3.18548 16.6989 -3
      vertex 1.06744 16.9665 -3
    endloop
  endfacet
  facet normal 0.587801 0.809005 -0
    outer loop
      vertex 10.8362 13.0987 -3
      vertex 9.10905 14.3536 0
      vertex 10.8362 13.0987 0
    endloop
  endfacet
  facet normal 0.587801 0.809005 0
    outer loop
      vertex 9.10905 14.3536 0
      vertex 10.8362 13.0987 -3
      vertex 9.10905 14.3536 -3
    endloop
  endfacet
  facet normal -0.844334 0.535818 0
    outer loop
      vertex -14.8972 8.18981 -3
      vertex -13.7533 9.99235 0
      vertex -13.7533 9.99235 -3
    endloop
  endfacet
  facet normal -0.844334 0.535818 0
    outer loop
      vertex -13.7533 9.99235 0
      vertex -14.8972 8.18981 -3
      vertex -14.8972 8.18981 0
    endloop
  endfacet
  facet normal -0.770518 0.637418 0
    outer loop
      vertex -13.7533 9.99235 -3
      vertex -12.3925 11.6373 0
      vertex -12.3925 11.6373 -3
    endloop
  endfacet
  facet normal -0.770518 0.637418 0
    outer loop
      vertex -12.3925 11.6373 0
      vertex -13.7533 9.99235 -3
      vertex -13.7533 9.99235 0
    endloop
  endfacet
  facet normal -0.951058 0.309011 0
    outer loop
      vertex -16.4659 4.22773 -3
      vertex -15.8062 6.25812 0
      vertex -15.8062 6.25812 -3
    endloop
  endfacet
  facet normal -0.951058 0.309011 0
    outer loop
      vertex -15.8062 6.25812 0
      vertex -16.4659 4.22773 -3
      vertex -16.4659 4.22773 0
    endloop
  endfacet
  facet normal -0.98229 0.187364 0
    outer loop
      vertex -16.8659 2.13066 -3
      vertex -16.4659 4.22773 0
      vertex -16.4659 4.22773 -3
    endloop
  endfacet
  facet normal -0.98229 0.187364 0
    outer loop
      vertex -16.4659 4.22773 0
      vertex -16.8659 2.13066 -3
      vertex -16.8659 2.13066 0
    endloop
  endfacet
  facet normal -0.481761 0.876303 0
    outer loop
      vertex -7.23825 15.3821 -3
      vertex -9.10905 14.3536 0
      vertex -7.23825 15.3821 0
    endloop
  endfacet
  facet normal -0.481761 0.876303 0
    outer loop
      vertex -9.10905 14.3536 0
      vertex -7.23825 15.3821 -3
      vertex -9.10905 14.3536 -3
    endloop
  endfacet
  facet normal -0.587801 0.809005 0
    outer loop
      vertex -9.10905 14.3536 -3
      vertex -10.8362 13.0987 0
      vertex -9.10905 14.3536 0
    endloop
  endfacet
  facet normal -0.587801 0.809005 0
    outer loop
      vertex -10.8362 13.0987 0
      vertex -9.10905 14.3536 -3
      vertex -10.8362 13.0987 -3
    endloop
  endfacet
  facet normal -0.24868 0.968586 0
    outer loop
      vertex -3.18548 16.6989 -3
      vertex -5.25329 16.168 0
      vertex -3.18548 16.6989 0
    endloop
  endfacet
  facet normal -0.24868 0.968586 0
    outer loop
      vertex -5.25329 16.168 0
      vertex -3.18548 16.6989 -3
      vertex -5.25329 16.168 -3
    endloop
  endfacet
  facet normal 0.998025 -0.062814 0
    outer loop
      vertex 16.8659 -2.13066 0
      vertex 17 0 -3
      vertex 17 0 0
    endloop
  endfacet
  facet normal 0.998025 -0.062814 0
    outer loop
      vertex 17 0 -3
      vertex 16.8659 -2.13066 0
      vertex 16.8659 -2.13066 -3
    endloop
  endfacet
  facet normal 0.904824 -0.425785 0
    outer loop
      vertex 14.8972 -8.18981 0
      vertex 15.8062 -6.25812 -3
      vertex 15.8062 -6.25812 0
    endloop
  endfacet
  facet normal 0.904824 -0.425785 0
    outer loop
      vertex 15.8062 -6.25812 -3
      vertex 14.8972 -8.18981 0
      vertex 14.8972 -8.18981 -3
    endloop
  endfacet
  facet normal -0.684531 -0.728983 0
    outer loop
      vertex -12.3925 -11.6373 -3
      vertex -10.8362 -13.0987 0
      vertex -12.3925 -11.6373 0
    endloop
  endfacet
  facet normal -0.684531 -0.728983 -0
    outer loop
      vertex -10.8362 -13.0987 0
      vertex -12.3925 -11.6373 -3
      vertex -10.8362 -13.0987 -3
    endloop
  endfacet
  facet normal -0.904824 -0.425785 0
    outer loop
      vertex -14.8972 -8.18981 -3
      vertex -15.8062 -6.25812 0
      vertex -15.8062 -6.25812 -3
    endloop
  endfacet
  facet normal -0.904824 -0.425785 0
    outer loop
      vertex -15.8062 -6.25812 0
      vertex -14.8972 -8.18981 -3
      vertex -14.8972 -8.18981 0
    endloop
  endfacet
  facet normal -0.844334 -0.535818 0
    outer loop
      vertex -13.7533 -9.99235 -3
      vertex -14.8972 -8.18981 0
      vertex -14.8972 -8.18981 -3
    endloop
  endfacet
  facet normal -0.844334 -0.535818 0
    outer loop
      vertex -14.8972 -8.18981 0
      vertex -13.7533 -9.99235 -3
      vertex -13.7533 -9.99235 0
    endloop
  endfacet
  facet normal -0.998025 -0.062814 0
    outer loop
      vertex -16.8659 -2.13066 -3
      vertex -17 0 0
      vertex -17 0 -3
    endloop
  endfacet
  facet normal -0.998025 -0.062814 0
    outer loop
      vertex -17 0 0
      vertex -16.8659 -2.13066 -3
      vertex -16.8659 -2.13066 0
    endloop
  endfacet
  facet normal 0.481761 -0.876303 0
    outer loop
      vertex 7.23825 -15.3821 -3
      vertex 9.10905 -14.3536 0
      vertex 7.23825 -15.3821 0
    endloop
  endfacet
  facet normal 0.481761 -0.876303 0
    outer loop
      vertex 9.10905 -14.3536 0
      vertex 7.23825 -15.3821 -3
      vertex 9.10905 -14.3536 -3
    endloop
  endfacet
  facet normal 0.951058 -0.309011 0
    outer loop
      vertex 15.8062 -6.25812 0
      vertex 16.4659 -4.22773 -3
      vertex 16.4659 -4.22773 0
    endloop
  endfacet
  facet normal 0.951058 -0.309011 0
    outer loop
      vertex 16.4659 -4.22773 -3
      vertex 15.8062 -6.25812 0
      vertex 15.8062 -6.25812 -3
    endloop
  endfacet
  facet normal -0.481761 -0.876303 0
    outer loop
      vertex -9.10905 -14.3536 -3
      vertex -7.23825 -15.3821 0
      vertex -9.10905 -14.3536 0
    endloop
  endfacet
  facet normal -0.481761 -0.876303 -0
    outer loop
      vertex -7.23825 -15.3821 0
      vertex -9.10905 -14.3536 -3
      vertex -7.23825 -15.3821 -3
    endloop
  endfacet
  facet normal -0.770518 -0.637418 0
    outer loop
      vertex -12.3925 -11.6373 -3
      vertex -13.7533 -9.99235 0
      vertex -13.7533 -9.99235 -3
    endloop
  endfacet
  facet normal -0.770518 -0.637418 0
    outer loop
      vertex -13.7533 -9.99235 0
      vertex -12.3925 -11.6373 -3
      vertex -12.3925 -11.6373 0
    endloop
  endfacet
  facet normal -0.98229 -0.187364 0
    outer loop
      vertex -16.4659 -4.22773 -3
      vertex -16.8659 -2.13066 0
      vertex -16.8659 -2.13066 -3
    endloop
  endfacet
  facet normal -0.98229 -0.187364 0
    outer loop
      vertex -16.8659 -2.13066 0
      vertex -16.4659 -4.22773 -3
      vertex -16.4659 -4.22773 0
    endloop
  endfacet
  facet normal -0.951058 -0.309011 0
    outer loop
      vertex -15.8062 -6.25812 -3
      vertex -16.4659 -4.22773 0
      vertex -16.4659 -4.22773 -3
    endloop
  endfacet
  facet normal -0.951058 -0.309011 0
    outer loop
      vertex -16.4659 -4.22773 0
      vertex -15.8062 -6.25812 -3
      vertex -15.8062 -6.25812 0
    endloop
  endfacet
  facet normal 0.684531 -0.728983 0
    outer loop
      vertex 10.8362 -13.0987 -3
      vertex 12.3925 -11.6373 0
      vertex 10.8362 -13.0987 0
    endloop
  endfacet
  facet normal 0.684531 -0.728983 0
    outer loop
      vertex 12.3925 -11.6373 0
      vertex 10.8362 -13.0987 -3
      vertex 12.3925 -11.6373 -3
    endloop
  endfacet
  facet normal 0.368124 -0.929777 0
    outer loop
      vertex 5.25329 -16.168 -3
      vertex 7.23825 -15.3821 0
      vertex 5.25329 -16.168 0
    endloop
  endfacet
  facet normal 0.368124 -0.929777 0
    outer loop
      vertex 7.23825 -15.3821 0
      vertex 5.25329 -16.168 -3
      vertex 7.23825 -15.3821 -3
    endloop
  endfacet
  facet normal 0.24868 -0.968586 0
    outer loop
      vertex 3.18548 -16.6989 -3
      vertex 5.25329 -16.168 0
      vertex 3.18548 -16.6989 0
    endloop
  endfacet
  facet normal 0.24868 -0.968586 0
    outer loop
      vertex 5.25329 -16.168 0
      vertex 3.18548 -16.6989 -3
      vertex 5.25329 -16.168 -3
    endloop
  endfacet
  facet normal 0.844334 -0.535818 0
    outer loop
      vertex 13.7533 -9.99235 0
      vertex 14.8972 -8.18981 -3
      vertex 14.8972 -8.18981 0
    endloop
  endfacet
  facet normal 0.844334 -0.535818 0
    outer loop
      vertex 14.8972 -8.18981 -3
      vertex 13.7533 -9.99235 0
      vertex 13.7533 -9.99235 -3
    endloop
  endfacet
  facet normal 0.770518 -0.637418 0
    outer loop
      vertex 12.3925 -11.6373 0
      vertex 13.7533 -9.99235 -3
      vertex 13.7533 -9.99235 0
    endloop
  endfacet
  facet normal 0.770518 -0.637418 0
    outer loop
      vertex 13.7533 -9.99235 -3
      vertex 12.3925 -11.6373 0
      vertex 12.3925 -11.6373 -3
    endloop
  endfacet
  facet normal -0.125347 -0.992113 0
    outer loop
      vertex -3.18548 -16.6989 -3
      vertex -1.06744 -16.9665 0
      vertex -3.18548 -16.6989 0
    endloop
  endfacet
  facet normal -0.125347 -0.992113 -0
    outer loop
      vertex -1.06744 -16.9665 0
      vertex -3.18548 -16.6989 -3
      vertex -1.06744 -16.9665 -3
    endloop
  endfacet
  facet normal -0.24868 -0.968586 0
    outer loop
      vertex -5.25329 -16.168 -3
      vertex -3.18548 -16.6989 0
      vertex -5.25329 -16.168 0
    endloop
  endfacet
  facet normal -0.24868 -0.968586 -0
    outer loop
      vertex -3.18548 -16.6989 0
      vertex -5.25329 -16.168 -3
      vertex -3.18548 -16.6989 -3
    endloop
  endfacet
  facet normal -0.368124 -0.929777 0
    outer loop
      vertex -7.23825 -15.3821 -3
      vertex -5.25329 -16.168 0
      vertex -7.23825 -15.3821 0
    endloop
  endfacet
  facet normal -0.368124 -0.929777 -0
    outer loop
      vertex -5.25329 -16.168 0
      vertex -7.23825 -15.3821 -3
      vertex -5.25329 -16.168 -3
    endloop
  endfacet
  facet normal -0.587801 -0.809005 0
    outer loop
      vertex -10.8362 -13.0987 -3
      vertex -9.10905 -14.3536 0
      vertex -10.8362 -13.0987 0
    endloop
  endfacet
  facet normal -0.587801 -0.809005 -0
    outer loop
      vertex -9.10905 -14.3536 0
      vertex -10.8362 -13.0987 -3
      vertex -9.10905 -14.3536 -3
    endloop
  endfacet
  facet normal 0.587801 -0.809005 0
    outer loop
      vertex 9.10905 -14.3536 -3
      vertex 10.8362 -13.0987 0
      vertex 9.10905 -14.3536 0
    endloop
  endfacet
  facet normal 0.587801 -0.809005 0
    outer loop
      vertex 10.8362 -13.0987 0
      vertex 9.10905 -14.3536 -3
      vertex 10.8362 -13.0987 -3
    endloop
  endfacet
  facet normal -0.998028 -0.0627774 0
    outer loop
      vertex 2.75 0 -12
      vertex 2.72832 0.344666 0
      vertex 2.72832 0.344666 -12
    endloop
  endfacet
  facet normal -0.998028 -0.0627774 0
    outer loop
      vertex 2.72832 0.344666 0
      vertex 2.75 0 -12
      vertex 2.75 0 0
    endloop
  endfacet
  facet normal 0.998028 -0.0627774 0
    outer loop
      vertex -2.75 0 0
      vertex -2.72832 0.344666 -12
      vertex -2.72832 0.344666 0
    endloop
  endfacet
  facet normal 0.998028 -0.0627774 0
    outer loop
      vertex -2.72832 0.344666 -12
      vertex -2.75 0 0
      vertex -2.75 0 -12
    endloop
  endfacet
  facet normal 0 -1 0
    outer loop
      vertex -0.172673 2.74457 -12
      vertex 0.172673 2.74457 0
      vertex -0.172673 2.74457 0
    endloop
  endfacet
  facet normal 0 -1 -0
    outer loop
      vertex 0.172673 2.74457 0
      vertex -0.172673 2.74457 -12
      vertex 0.172673 2.74457 -12
    endloop
  endfacet
  facet normal 0 1 -0
    outer loop
      vertex 0.172673 -2.74457 -12
      vertex -0.172673 -2.74457 0
      vertex 0.172673 -2.74457 0
    endloop
  endfacet
  facet normal 0 1 0
    outer loop
      vertex -0.172673 -2.74457 0
      vertex 0.172673 -2.74457 -12
      vertex -0.172673 -2.74457 -12
    endloop
  endfacet
  facet normal -0.684563 -0.728954 0
    outer loop
      vertex 1.75292 2.11891 -12
      vertex 2.00466 1.8825 0
      vertex 1.75292 2.11891 0
    endloop
  endfacet
  facet normal -0.684563 -0.728954 -0
    outer loop
      vertex 2.00466 1.8825 0
      vertex 1.75292 2.11891 -12
      vertex 2.00466 1.8825 -12
    endloop
  endfacet
  facet normal 0.684563 -0.728954 0
    outer loop
      vertex -2.00466 1.8825 -12
      vertex -1.75292 2.11891 0
      vertex -2.00466 1.8825 0
    endloop
  endfacet
  facet normal 0.684563 -0.728954 0
    outer loop
      vertex -1.75292 2.11891 0
      vertex -2.00466 1.8825 -12
      vertex -1.75292 2.11891 -12
    endloop
  endfacet
  facet normal 0.368149 -0.929767 0
    outer loop
      vertex -1.17089 2.48827 -12
      vertex -0.849796 2.61541 0
      vertex -1.17089 2.48827 0
    endloop
  endfacet
  facet normal 0.368149 -0.929767 0
    outer loop
      vertex -0.849796 2.61541 0
      vertex -1.17089 2.48827 -12
      vertex -0.849796 2.61541 -12
    endloop
  endfacet
  facet normal -0.904829 0.425775 0
    outer loop
      vertex 2.40984 -1.32482 -12
      vertex 2.55688 -1.01234 0
      vertex 2.55688 -1.01234 -12
    endloop
  endfacet
  facet normal -0.904829 0.425775 0
    outer loop
      vertex 2.55688 -1.01234 0
      vertex 2.40984 -1.32482 -12
      vertex 2.40984 -1.32482 0
    endloop
  endfacet
  facet normal -0.904829 -0.425775 0
    outer loop
      vertex 2.55688 1.01234 -12
      vertex 2.40984 1.32482 0
      vertex 2.40984 1.32482 -12
    endloop
  endfacet
  facet normal -0.904829 -0.425775 0
    outer loop
      vertex 2.40984 1.32482 0
      vertex 2.55688 1.01234 -12
      vertex 2.55688 1.01234 0
    endloop
  endfacet
  facet normal -0.368149 -0.929767 0
    outer loop
      vertex 0.849796 2.61541 -12
      vertex 1.17089 2.48827 0
      vertex 0.849796 2.61541 0
    endloop
  endfacet
  facet normal -0.368149 -0.929767 -0
    outer loop
      vertex 1.17089 2.48827 0
      vertex 0.849796 2.61541 -12
      vertex 1.17089 2.48827 -12
    endloop
  endfacet
  facet normal -0.587774 -0.809025 0
    outer loop
      vertex 1.47352 2.3219 -12
      vertex 1.75292 2.11891 0
      vertex 1.47352 2.3219 0
    endloop
  endfacet
  facet normal -0.587774 -0.809025 -0
    outer loop
      vertex 1.75292 2.11891 0
      vertex 1.47352 2.3219 -12
      vertex 1.75292 2.11891 -12
    endloop
  endfacet
  facet normal 0.904829 -0.425775 0
    outer loop
      vertex -2.55688 1.01234 0
      vertex -2.40984 1.32482 -12
      vertex -2.40984 1.32482 0
    endloop
  endfacet
  facet normal 0.904829 -0.425775 0
    outer loop
      vertex -2.40984 1.32482 -12
      vertex -2.55688 1.01234 0
      vertex -2.55688 1.01234 -12
    endloop
  endfacet
  facet normal 0.770497 -0.637443 0
    outer loop
      vertex -2.2248 1.61641 0
      vertex -2.00466 1.8825 -12
      vertex -2.00466 1.8825 0
    endloop
  endfacet
  facet normal 0.770497 -0.637443 0
    outer loop
      vertex -2.00466 1.8825 -12
      vertex -2.2248 1.61641 0
      vertex -2.2248 1.61641 -12
    endloop
  endfacet
  facet normal 0.481749 -0.876309 0
    outer loop
      vertex -1.47352 2.3219 -12
      vertex -1.17089 2.48827 0
      vertex -1.47352 2.3219 0
    endloop
  endfacet
  facet normal 0.481749 -0.876309 0
    outer loop
      vertex -1.17089 2.48827 0
      vertex -1.47352 2.3219 -12
      vertex -1.17089 2.48827 -12
    endloop
  endfacet
  facet normal 0.248678 -0.968586 0
    outer loop
      vertex -0.849796 2.61541 -12
      vertex -0.515298 2.70129 0
      vertex -0.849796 2.61541 0
    endloop
  endfacet
  facet normal 0.248678 -0.968586 0
    outer loop
      vertex -0.515298 2.70129 0
      vertex -0.849796 2.61541 -12
      vertex -0.515298 2.70129 -12
    endloop
  endfacet
  facet normal -0.982283 0.187404 0
    outer loop
      vertex 2.6636 -0.683897 -12
      vertex 2.72832 -0.344666 0
      vertex 2.72832 -0.344666 -12
    endloop
  endfacet
  facet normal -0.982283 0.187404 0
    outer loop
      vertex 2.72832 -0.344666 0
      vertex 2.6636 -0.683897 -12
      vertex 2.6636 -0.683897 0
    endloop
  endfacet
  facet normal -0.125323 0.992116 0
    outer loop
      vertex 0.515298 -2.70129 -12
      vertex 0.172673 -2.74457 0
      vertex 0.515298 -2.70129 0
    endloop
  endfacet
  facet normal -0.125323 0.992116 0
    outer loop
      vertex 0.172673 -2.74457 0
      vertex 0.515298 -2.70129 -12
      vertex 0.172673 -2.74457 -12
    endloop
  endfacet
  facet normal -0.951054 -0.309023 0
    outer loop
      vertex 2.6636 0.683897 -12
      vertex 2.55688 1.01234 0
      vertex 2.55688 1.01234 -12
    endloop
  endfacet
  facet normal -0.951054 -0.309023 0
    outer loop
      vertex 2.55688 1.01234 0
      vertex 2.6636 0.683897 -12
      vertex 2.6636 0.683897 0
    endloop
  endfacet
  facet normal -0.982283 -0.187404 0
    outer loop
      vertex 2.72832 0.344666 -12
      vertex 2.6636 0.683897 0
      vertex 2.6636 0.683897 -12
    endloop
  endfacet
  facet normal -0.982283 -0.187404 0
    outer loop
      vertex 2.6636 0.683897 0
      vertex 2.72832 0.344666 -12
      vertex 2.72832 0.344666 0
    endloop
  endfacet
  facet normal -0.770497 -0.637443 0
    outer loop
      vertex 2.2248 1.61641 -12
      vertex 2.00466 1.8825 0
      vertex 2.00466 1.8825 -12
    endloop
  endfacet
  facet normal -0.770497 -0.637443 0
    outer loop
      vertex 2.00466 1.8825 0
      vertex 2.2248 1.61641 -12
      vertex 2.2248 1.61641 0
    endloop
  endfacet
  facet normal -0.844339 -0.535809 0
    outer loop
      vertex 2.40984 1.32482 -12
      vertex 2.2248 1.61641 0
      vertex 2.2248 1.61641 -12
    endloop
  endfacet
  facet normal -0.844339 -0.535809 0
    outer loop
      vertex 2.2248 1.61641 0
      vertex 2.40984 1.32482 -12
      vertex 2.40984 1.32482 0
    endloop
  endfacet
  facet normal -0.248678 -0.968586 0
    outer loop
      vertex 0.515298 2.70129 -12
      vertex 0.849796 2.61541 0
      vertex 0.515298 2.70129 0
    endloop
  endfacet
  facet normal -0.248678 -0.968586 -0
    outer loop
      vertex 0.849796 2.61541 0
      vertex 0.515298 2.70129 -12
      vertex 0.849796 2.61541 -12
    endloop
  endfacet
  facet normal -0.125323 -0.992116 0
    outer loop
      vertex 0.172673 2.74457 -12
      vertex 0.515298 2.70129 0
      vertex 0.172673 2.74457 0
    endloop
  endfacet
  facet normal -0.125323 -0.992116 -0
    outer loop
      vertex 0.515298 2.70129 0
      vertex 0.172673 2.74457 -12
      vertex 0.515298 2.70129 -12
    endloop
  endfacet
  facet normal -0.481749 -0.876309 0
    outer loop
      vertex 1.17089 2.48827 -12
      vertex 1.47352 2.3219 0
      vertex 1.17089 2.48827 0
    endloop
  endfacet
  facet normal -0.481749 -0.876309 -0
    outer loop
      vertex 1.47352 2.3219 0
      vertex 1.17089 2.48827 -12
      vertex 1.47352 2.3219 -12
    endloop
  endfacet
  facet normal 0.844339 -0.535809 0
    outer loop
      vertex -2.40984 1.32482 0
      vertex -2.2248 1.61641 -12
      vertex -2.2248 1.61641 0
    endloop
  endfacet
  facet normal 0.844339 -0.535809 0
    outer loop
      vertex -2.2248 1.61641 -12
      vertex -2.40984 1.32482 0
      vertex -2.40984 1.32482 -12
    endloop
  endfacet
  facet normal 0.951054 -0.309023 0
    outer loop
      vertex -2.6636 0.683897 0
      vertex -2.55688 1.01234 -12
      vertex -2.55688 1.01234 0
    endloop
  endfacet
  facet normal 0.951054 -0.309023 0
    outer loop
      vertex -2.55688 1.01234 -12
      vertex -2.6636 0.683897 0
      vertex -2.6636 0.683897 -12
    endloop
  endfacet
  facet normal 0.982283 -0.187404 0
    outer loop
      vertex -2.72832 0.344666 0
      vertex -2.6636 0.683897 -12
      vertex -2.6636 0.683897 0
    endloop
  endfacet
  facet normal 0.982283 -0.187404 0
    outer loop
      vertex -2.6636 0.683897 -12
      vertex -2.72832 0.344666 0
      vertex -2.72832 0.344666 -12
    endloop
  endfacet
  facet normal 0.587774 -0.809025 0
    outer loop
      vertex -1.75292 2.11891 -12
      vertex -1.47352 2.3219 0
      vertex -1.75292 2.11891 0
    endloop
  endfacet
  facet normal 0.587774 -0.809025 0
    outer loop
      vertex -1.47352 2.3219 0
      vertex -1.75292 2.11891 -12
      vertex -1.47352 2.3219 -12
    endloop
  endfacet
  facet normal 0.125323 -0.992116 0
    outer loop
      vertex -0.515298 2.70129 -12
      vertex -0.172673 2.74457 0
      vertex -0.515298 2.70129 0
    endloop
  endfacet
  facet normal 0.125323 -0.992116 0
    outer loop
      vertex -0.172673 2.74457 0
      vertex -0.515298 2.70129 -12
      vertex -0.172673 2.74457 -12
    endloop
  endfacet
  facet normal -0.998028 0.0627774 0
    outer loop
      vertex 2.72832 -0.344666 -12
      vertex 2.75 0 0
      vertex 2.75 0 -12
    endloop
  endfacet
  facet normal -0.998028 0.0627774 0
    outer loop
      vertex 2.75 0 0
      vertex 2.72832 -0.344666 -12
      vertex 2.72832 -0.344666 0
    endloop
  endfacet
  facet normal -0.770497 0.637443 0
    outer loop
      vertex 2.00466 -1.8825 -12
      vertex 2.2248 -1.61641 0
      vertex 2.2248 -1.61641 -12
    endloop
  endfacet
  facet normal -0.770497 0.637443 0
    outer loop
      vertex 2.2248 -1.61641 0
      vertex 2.00466 -1.8825 -12
      vertex 2.00466 -1.8825 0
    endloop
  endfacet
  facet normal 0.904829 0.425775 0
    outer loop
      vertex -2.40984 -1.32482 0
      vertex -2.55688 -1.01234 -12
      vertex -2.55688 -1.01234 0
    endloop
  endfacet
  facet normal 0.904829 0.425775 0
    outer loop
      vertex -2.55688 -1.01234 -12
      vertex -2.40984 -1.32482 0
      vertex -2.40984 -1.32482 -12
    endloop
  endfacet
  facet normal 0.770497 0.637443 0
    outer loop
      vertex -2.00466 -1.8825 0
      vertex -2.2248 -1.61641 -12
      vertex -2.2248 -1.61641 0
    endloop
  endfacet
  facet normal 0.770497 0.637443 0
    outer loop
      vertex -2.2248 -1.61641 -12
      vertex -2.00466 -1.8825 0
      vertex -2.00466 -1.8825 -12
    endloop
  endfacet
  facet normal 0.998028 0.0627774 0
    outer loop
      vertex -2.72832 -0.344666 0
      vertex -2.75 0 -12
      vertex -2.75 0 0
    endloop
  endfacet
  facet normal 0.998028 0.0627774 0
    outer loop
      vertex -2.75 0 -12
      vertex -2.72832 -0.344666 0
      vertex -2.72832 -0.344666 -12
    endloop
  endfacet
  facet normal -0.481749 0.876309 0
    outer loop
      vertex 1.47352 -2.3219 -12
      vertex 1.17089 -2.48827 0
      vertex 1.47352 -2.3219 0
    endloop
  endfacet
  facet normal -0.481749 0.876309 0
    outer loop
      vertex 1.17089 -2.48827 0
      vertex 1.47352 -2.3219 -12
      vertex 1.17089 -2.48827 -12
    endloop
  endfacet
  facet normal -0.951054 0.309023 0
    outer loop
      vertex 2.55688 -1.01234 -12
      vertex 2.6636 -0.683897 0
      vertex 2.6636 -0.683897 -12
    endloop
  endfacet
  facet normal -0.951054 0.309023 0
    outer loop
      vertex 2.6636 -0.683897 0
      vertex 2.55688 -1.01234 -12
      vertex 2.55688 -1.01234 0
    endloop
  endfacet
  facet normal -0.844339 0.535809 0
    outer loop
      vertex 2.2248 -1.61641 -12
      vertex 2.40984 -1.32482 0
      vertex 2.40984 -1.32482 -12
    endloop
  endfacet
  facet normal -0.844339 0.535809 0
    outer loop
      vertex 2.40984 -1.32482 0
      vertex 2.2248 -1.61641 -12
      vertex 2.2248 -1.61641 0
    endloop
  endfacet
  facet normal 0.982283 0.187404 0
    outer loop
      vertex -2.6636 -0.683897 0
      vertex -2.72832 -0.344666 -12
      vertex -2.72832 -0.344666 0
    endloop
  endfacet
  facet normal 0.982283 0.187404 0
    outer loop
      vertex -2.72832 -0.344666 -12
      vertex -2.6636 -0.683897 0
      vertex -2.6636 -0.683897 -12
    endloop
  endfacet
  facet normal 0.951054 0.309023 0
    outer loop
      vertex -2.55688 -1.01234 0
      vertex -2.6636 -0.683897 -12
      vertex -2.6636 -0.683897 0
    endloop
  endfacet
  facet normal 0.951054 0.309023 0
    outer loop
      vertex -2.6636 -0.683897 -12
      vertex -2.55688 -1.01234 0
      vertex -2.55688 -1.01234 -12
    endloop
  endfacet
  facet normal -0.587774 0.809025 0
    outer loop
      vertex 1.75292 -2.11891 -12
      vertex 1.47352 -2.3219 0
      vertex 1.75292 -2.11891 0
    endloop
  endfacet
  facet normal -0.587774 0.809025 0
    outer loop
      vertex 1.47352 -2.3219 0
      vertex 1.75292 -2.11891 -12
      vertex 1.47352 -2.3219 -12
    endloop
  endfacet
  facet normal -0.368149 0.929767 0
    outer loop
      vertex 1.17089 -2.48827 -12
      vertex 0.849796 -2.61541 0
      vertex 1.17089 -2.48827 0
    endloop
  endfacet
  facet normal -0.368149 0.929767 0
    outer loop
      vertex 0.849796 -2.61541 0
      vertex 1.17089 -2.48827 -12
      vertex 0.849796 -2.61541 -12
    endloop
  endfacet
  facet normal -0.248678 0.968586 0
    outer loop
      vertex 0.849796 -2.61541 -12
      vertex 0.515298 -2.70129 0
      vertex 0.849796 -2.61541 0
    endloop
  endfacet
  facet normal -0.248678 0.968586 0
    outer loop
      vertex 0.515298 -2.70129 0
      vertex 0.849796 -2.61541 -12
      vertex 0.515298 -2.70129 -12
    endloop
  endfacet
  facet normal 0.248678 0.968586 -0
    outer loop
      vertex -0.515298 -2.70129 -12
      vertex -0.849796 -2.61541 0
      vertex -0.515298 -2.70129 0
    endloop
  endfacet
  facet normal 0.248678 0.968586 0
    outer loop
      vertex -0.849796 -2.61541 0
      vertex -0.515298 -2.70129 -12
      vertex -0.849796 -2.61541 -12
    endloop
  endfacet
  facet normal 0.844339 0.535809 0
    outer loop
      vertex -2.2248 -1.61641 0
      vertex -2.40984 -1.32482 -12
      vertex -2.40984 -1.32482 0
    endloop
  endfacet
  facet normal 0.844339 0.535809 0
    outer loop
      vertex -2.40984 -1.32482 -12
      vertex -2.2248 -1.61641 0
      vertex -2.2248 -1.61641 -12
    endloop
  endfacet
  facet normal -0.684563 0.728954 0
    outer loop
      vertex 2.00466 -1.8825 -12
      vertex 1.75292 -2.11891 0
      vertex 2.00466 -1.8825 0
    endloop
  endfacet
  facet normal -0.684563 0.728954 0
    outer loop
      vertex 1.75292 -2.11891 0
      vertex 2.00466 -1.8825 -12
      vertex 1.75292 -2.11891 -12
    endloop
  endfacet
  facet normal 0.684563 0.728954 -0
    outer loop
      vertex -1.75292 -2.11891 -12
      vertex -2.00466 -1.8825 0
      vertex -1.75292 -2.11891 0
    endloop
  endfacet
  facet normal 0.684563 0.728954 0
    outer loop
      vertex -2.00466 -1.8825 0
      vertex -1.75292 -2.11891 -12
      vertex -2.00466 -1.8825 -12
    endloop
  endfacet
  facet normal 0.481749 0.876309 -0
    outer loop
      vertex -1.17089 -2.48827 -12
      vertex -1.47352 -2.3219 0
      vertex -1.17089 -2.48827 0
    endloop
  endfacet
  facet normal 0.481749 0.876309 0
    outer loop
      vertex -1.47352 -2.3219 0
      vertex -1.17089 -2.48827 -12
      vertex -1.47352 -2.3219 -12
    endloop
  endfacet
  facet normal 0.125323 0.992116 -0
    outer loop
      vertex -0.172673 -2.74457 -12
      vertex -0.515298 -2.70129 0
      vertex -0.172673 -2.74457 0
    endloop
  endfacet
  facet normal 0.125323 0.992116 0
    outer loop
      vertex -0.515298 -2.70129 0
      vertex -0.172673 -2.74457 -12
      vertex -0.515298 -2.70129 -12
    endloop
  endfacet
  facet normal 0.587774 0.809025 -0
    outer loop
      vertex -1.47352 -2.3219 -12
      vertex -1.75292 -2.11891 0
      vertex -1.47352 -2.3219 0
    endloop
  endfacet
  facet normal 0.587774 0.809025 0
    outer loop
      vertex -1.75292 -2.11891 0
      vertex -1.47352 -2.3219 -12
      vertex -1.75292 -2.11891 -12
    endloop
  endfacet
  facet normal 0.368149 0.929767 -0
    outer loop
      vertex -0.849796 -2.61541 -12
      vertex -1.17089 -2.48827 0
      vertex -0.849796 -2.61541 0
    endloop
  endfacet
  facet normal 0.368149 0.929767 0
    outer loop
      vertex -1.17089 -2.48827 0
      vertex -0.849796 -2.61541 -12
      vertex -1.17089 -2.48827 -12
    endloop
  endfacet
endsolid OpenSCAD_Model
