<?xml version="1.0" standalone="no"?>
<!DOCTYPE svg PUBLIC "-//W3C//DTD SVG 1.1//EN" "http://www.w3.org/Graphics/SVG/1.1/DTD/svg11.dtd">
<svg width="26mm" height="47mm" viewBox="-13 -37 26 47" xmlns="http://www.w3.org/2000/svg" version="1.1">
<title>OpenSCAD Model</title>
<path d="
M 2.43594,-11.2303 L 4.01721,-11.6363 L 5.53513,-12.2373 L 6.96574,-13.0237 L 8.2865,-13.9833 L 9.47658,-15.1009
 L 10.5172,-16.3588 L 11.392,-17.7372 L 12.0871,-19.2144 L 12.5916,-20.767 L 12.8975,-22.3707 L 13,-24
 L 12.8975,-25.6293 L 12.5916,-27.233 L 12.0871,-28.7856 L 11.392,-30.2628 L 10.5172,-31.6412 L 9.47658,-32.8991
 L 8.2865,-34.0167 L 6.96574,-34.9763 L 5.53513,-35.7627 L 4.01721,-36.3637 L 2.43594,-36.7697 L 0.816269,-36.9743
 L -0.816269,-36.9743 L -2.43594,-36.7697 L -4.01721,-36.3637 L -5.53513,-35.7627 L -6.96574,-34.9763 L -8.2865,-34.0167
 L -9.47658,-32.8991 L -10.5172,-31.6412 L -11.392,-30.2628 L -12.0871,-28.7856 L -12.5916,-27.233 L -12.8975,-25.6293
 L -13,-24 L -12.8975,-22.3707 L -12.5916,-20.767 L -12.0871,-19.2144 L -11.392,-17.7372 L -10.5172,-16.3588
 L -9.47658,-15.1009 L -8.2865,-13.9833 L -6.96574,-13.0237 L -5.53513,-12.2373 L -4.01721,-11.6363 L -2.43594,-11.2303
 L -0.816269,-11.0257 L 0.816269,-11.0257 z
M -0.249115,-20.0403 L -0.743439,-20.1027 L -1.22604,-20.2266 L -1.6893,-20.41 L -2.12592,-20.6501 L -2.52902,-20.9429
 L -2.89223,-21.284 L -3.20982,-21.6679 L -3.47679,-22.0886 L -3.68895,-22.5394 L -3.84291,-23.0133 L -3.93628,-23.5027
 L -3.96756,-24 L -3.93628,-24.4973 L -3.84291,-24.9867 L -3.68895,-25.4606 L -3.47679,-25.9114 L -3.20982,-26.3321
 L -2.89223,-26.716 L -2.52902,-27.0571 L -2.12592,-27.3499 L -1.6893,-27.59 L -1.22604,-27.7734 L -0.743439,-27.8973
 L -0.249115,-27.9597 L 0.249115,-27.9597 L 0.743439,-27.8973 L 1.22604,-27.7734 L 1.6893,-27.59 L 2.12592,-27.3499
 L 2.52902,-27.0571 L 2.89223,-26.716 L 3.20982,-26.3321 L 3.47679,-25.9114 L 3.68895,-25.4606 L 3.84291,-24.9867
 L 3.93628,-24.4973 L 3.96756,-24 L 3.93628,-23.5027 L 3.84291,-23.0133 L 3.68895,-22.5394 L 3.47679,-22.0886
 L 3.20982,-21.6679 L 2.89223,-21.284 L 2.52902,-20.9429 L 2.12592,-20.6501 L 1.6893,-20.41 L 1.22604,-20.2266
 L 0.743439,-20.1027 L 0.249115,-20.0403 z
M 1.87381,9.82286 L 3.09016,9.51056 L 4.25778,9.04826 L 5.35826,8.44327 L 6.37424,7.70512 L 7.28967,6.84546
 L 8.09016,5.87784 L 8.76306,4.81754 L 9.29776,3.68124 L 9.68582,2.48689 L 9.92114,1.25333 L 10,-0
 L 9.92114,-1.25333 L 9.68582,-2.48689 L 9.29776,-3.68124 L 8.76306,-4.81754 L 8.09016,-5.87784 L 7.28967,-6.84546
 L 6.37424,-7.70512 L 5.35826,-8.44327 L 4.25778,-9.04826 L 3.09016,-9.51056 L 1.87381,-9.82286 L 0.627899,-9.98026
 L -0.627899,-9.98026 L -1.87381,-9.82286 L -3.09016,-9.51056 L -4.25778,-9.04826 L -5.35826,-8.44327 L -6.37424,-7.70512
 L -7.28967,-6.84546 L -8.09016,-5.87784 L -8.76306,-4.81754 L -9.29776,-3.68124 L -9.68582,-2.48689 L -9.92114,-1.25333
 L -10,-0 L -9.92114,1.25333 L -9.68582,2.48689 L -9.29776,3.68124 L -8.76306,4.81754 L -8.09016,5.87784
 L -7.28967,6.84546 L -6.37424,7.70512 L -5.35826,8.44327 L -4.25778,9.04826 L -3.09016,9.51056 L -1.87381,9.82286
 L -0.627899,9.98026 L 0.627899,9.98026 z
M -0.180511,2.86932 L -0.538712,2.82407 L -0.888412,2.73428 L -1.22411,2.60136 L -1.5405,2.42743 L -1.83258,2.21523
 L -2.09578,1.96806 L -2.32591,1.68988 L -2.51938,1.38504 L -2.6731,1.05835 L -2.78467,0.714981 L -2.85233,0.360321
 L -2.875,-0 L -2.85233,-0.360321 L -2.78467,-0.714981 L -2.6731,-1.05835 L -2.51938,-1.38504 L -2.32591,-1.68988
 L -2.09578,-1.96806 L -1.83258,-2.21523 L -1.5405,-2.42743 L -1.22411,-2.60136 L -0.888412,-2.73428 L -0.538712,-2.82407
 L -0.180511,-2.86932 L 0.180511,-2.86932 L 0.538712,-2.82407 L 0.888412,-2.73428 L 1.22411,-2.60136 L 1.5405,-2.42743
 L 1.83258,-2.21523 L 2.09578,-1.96806 L 2.32591,-1.68988 L 2.51938,-1.38504 L 2.6731,-1.05835 L 2.78467,-0.714981
 L 2.85233,-0.360321 L 2.875,-0 L 2.85233,0.360321 L 2.78467,0.714981 L 2.6731,1.05835 L 2.51938,1.38504
 L 2.32591,1.68988 L 2.09578,1.96806 L 1.83258,2.21523 L 1.5405,2.42743 L 1.22411,2.60136 L 0.888412,2.73428
 L 0.538712,2.82407 L 0.180511,2.86932 z
" stroke="black" fill="lightgray" stroke-width="0.5"/>
</svg>
