  0
SECTION
  2
BLOCKS
  0
ENDSEC
  0
SECTION
  2
ENTITIES
  0
LINE
  8
0
 10
2.34225
 20
-12.2786
 11
3.8627
 21
-11.8882
  0
LINE
  8
0
 10
3.8627
 20
-11.8882
 11
5.32224
 21
-11.3103
  0
LINE
  8
0
 10
5.32224
 20
-11.3103
 11
6.69783
 21
-10.5541
  0
LINE
  8
0
 10
6.69783
 20
-10.5541
 11
7.96779
 21
-9.63141
  0
LINE
  8
0
 10
7.96779
 20
-9.63141
 11
9.11211
 21
-8.55682
  0
LINE
  8
0
 10
9.11211
 20
-8.55682
 11
10.1127
 21
-7.34731
  0
LINE
  8
0
 10
10.1127
 20
-7.34731
 11
10.9538
 21
-6.02191
  0
LINE
  8
0
 10
10.9538
 20
-6.02191
 11
11.6222
 21
-4.60155
  0
LINE
  8
0
 10
11.6222
 20
-4.60155
 11
12.1073
 21
-3.10861
  0
LINE
  8
0
 10
12.1073
 20
-3.10861
 11
12.4014
 21
-1.56665
  0
LINE
  8
0
 10
12.4014
 20
-1.56665
 11
12.5
 21
0
  0
LINE
  8
0
 10
12.5
 20
0
 11
12.4014
 21
1.56665
  0
LINE
  8
0
 10
12.4014
 20
1.56665
 11
12.1073
 21
3.10861
  0
LINE
  8
0
 10
12.1073
 20
3.10861
 11
11.6222
 21
4.60155
  0
LINE
  8
0
 10
11.6222
 20
4.60155
 11
10.9538
 21
6.02191
  0
LINE
  8
0
 10
10.9538
 20
6.02191
 11
10.1127
 21
7.34731
  0
LINE
  8
0
 10
10.1127
 20
7.34731
 11
9.11211
 21
8.55682
  0
LINE
  8
0
 10
9.11211
 20
8.55682
 11
7.96779
 21
9.63141
  0
LINE
  8
0
 10
7.96779
 20
9.63141
 11
6.69783
 21
10.5541
  0
LINE
  8
0
 10
6.69783
 20
10.5541
 11
5.32224
 21
11.3103
  0
LINE
  8
0
 10
5.32224
 20
11.3103
 11
3.8627
 21
11.8882
  0
LINE
  8
0
 10
3.8627
 20
11.8882
 11
3.42726
 21
12
  0
LINE
  8
0
 10
3.42726
 20
12
 11
3.8627
 21
12.1118
  0
LINE
  8
0
 10
3.8627
 20
12.1118
 11
5.32224
 21
12.6897
  0
LINE
  8
0
 10
5.32224
 20
12.6897
 11
6.69783
 21
13.4459
  0
LINE
  8
0
 10
6.69783
 20
13.4459
 11
7.96779
 21
14.3686
  0
LINE
  8
0
 10
7.96779
 20
14.3686
 11
9.11211
 21
15.4432
  0
LINE
  8
0
 10
9.11211
 20
15.4432
 11
10.1127
 21
16.6527
  0
LINE
  8
0
 10
10.1127
 20
16.6527
 11
10.9538
 21
17.9781
  0
LINE
  8
0
 10
10.9538
 20
17.9781
 11
11.6222
 21
19.3985
  0
LINE
  8
0
 10
11.6222
 20
19.3985
 11
12.1073
 21
20.8914
  0
LINE
  8
0
 10
12.1073
 20
20.8914
 11
12.4014
 21
22.4333
  0
LINE
  8
0
 10
12.4014
 20
22.4333
 11
12.5
 21
24
  0
LINE
  8
0
 10
12.5
 20
24
 11
12.4014
 21
25.5667
  0
LINE
  8
0
 10
12.4014
 20
25.5667
 11
12.1073
 21
27.1086
  0
LINE
  8
0
 10
12.1073
 20
27.1086
 11
11.6222
 21
28.6015
  0
LINE
  8
0
 10
11.6222
 20
28.6015
 11
10.9538
 21
30.0219
  0
LINE
  8
0
 10
10.9538
 20
30.0219
 11
10.1127
 21
31.3473
  0
LINE
  8
0
 10
10.1127
 20
31.3473
 11
9.11211
 21
32.5568
  0
LINE
  8
0
 10
9.11211
 20
32.5568
 11
7.96779
 21
33.6314
  0
LINE
  8
0
 10
7.96779
 20
33.6314
 11
6.69783
 21
34.5541
  0
LINE
  8
0
 10
6.69783
 20
34.5541
 11
5.32224
 21
35.3103
  0
LINE
  8
0
 10
5.32224
 20
35.3103
 11
3.8627
 21
35.8882
  0
LINE
  8
0
 10
3.8627
 20
35.8882
 11
3.42726
 21
36
  0
LINE
  8
0
 10
3.42726
 20
36
 11
3.8627
 21
36.1118
  0
LINE
  8
0
 10
3.8627
 20
36.1118
 11
5.32224
 21
36.6897
  0
LINE
  8
0
 10
5.32224
 20
36.6897
 11
6.69783
 21
37.4459
  0
LINE
  8
0
 10
6.69783
 20
37.4459
 11
7.96779
 21
38.3686
  0
LINE
  8
0
 10
7.96779
 20
38.3686
 11
9.11211
 21
39.4432
  0
LINE
  8
0
 10
9.11211
 20
39.4432
 11
10.1127
 21
40.6527
  0
LINE
  8
0
 10
10.1127
 20
40.6527
 11
10.9538
 21
41.9781
  0
LINE
  8
0
 10
10.9538
 20
41.9781
 11
11.6222
 21
43.3985
  0
LINE
  8
0
 10
11.6222
 20
43.3985
 11
12.1073
 21
44.8914
  0
LINE
  8
0
 10
12.1073
 20
44.8914
 11
12.4014
 21
46.4333
  0
LINE
  8
0
 10
12.4014
 20
46.4333
 11
12.5
 21
48
  0
LINE
  8
0
 10
12.5
 20
48
 11
12.4014
 21
49.5667
  0
LINE
  8
0
 10
12.4014
 20
49.5667
 11
12.1073
 21
51.1086
  0
LINE
  8
0
 10
12.1073
 20
51.1086
 11
11.6222
 21
52.6015
  0
LINE
  8
0
 10
11.6222
 20
52.6015
 11
10.9538
 21
54.0219
  0
LINE
  8
0
 10
10.9538
 20
54.0219
 11
10.1127
 21
55.3473
  0
LINE
  8
0
 10
10.1127
 20
55.3473
 11
9.463
 21
56.1327
  0
LINE
  8
0
 10
9.463
 20
56.1327
 11
9.91278
 21
56.3799
  0
LINE
  8
0
 10
9.91278
 20
56.3799
 11
11.7923
 21
57.7455
  0
LINE
  8
0
 10
11.7923
 20
57.7455
 11
13.4859
 21
59.3359
  0
LINE
  8
0
 10
13.4859
 20
59.3359
 11
14.9668
 21
61.126
  0
LINE
  8
0
 10
14.9668
 20
61.126
 11
16.2117
 21
63.0876
  0
LINE
  8
0
 10
16.2117
 20
63.0876
 11
17.2009
 21
65.1897
  0
LINE
  8
0
 10
17.2009
 20
65.1897
 11
17.9188
 21
67.3992
  0
LINE
  8
0
 10
17.9188
 20
67.3992
 11
18.3541
 21
69.6813
  0
LINE
  8
0
 10
18.3541
 20
69.6813
 11
18.5
 21
72
  0
LINE
  8
0
 10
18.5
 20
72
 11
18.3541
 21
74.3187
  0
LINE
  8
0
 10
18.3541
 20
74.3187
 11
17.9188
 21
76.6008
  0
LINE
  8
0
 10
17.9188
 20
76.6008
 11
17.2009
 21
78.8103
  0
LINE
  8
0
 10
17.2009
 20
78.8103
 11
16.2117
 21
80.9124
  0
LINE
  8
0
 10
16.2117
 20
80.9124
 11
14.9668
 21
82.874
  0
LINE
  8
0
 10
14.9668
 20
82.874
 11
13.4859
 21
84.6641
  0
LINE
  8
0
 10
13.4859
 20
84.6641
 11
11.7923
 21
86.2545
  0
LINE
  8
0
 10
11.7923
 20
86.2545
 11
9.91278
 21
87.6201
  0
LINE
  8
0
 10
9.91278
 20
87.6201
 11
7.87691
 21
88.7393
  0
LINE
  8
0
 10
7.87691
 20
88.7393
 11
5.71681
 21
89.5945
  0
LINE
  8
0
 10
5.71681
 20
89.5945
 11
3.46655
 21
90.1723
  0
LINE
  8
0
 10
3.46655
 20
90.1723
 11
1.16162
 21
90.4635
  0
LINE
  8
0
 10
1.16162
 20
90.4635
 11
-1.16162
 21
90.4635
  0
LINE
  8
0
 10
-1.16162
 20
90.4635
 11
-3.46655
 21
90.1723
  0
LINE
  8
0
 10
-3.46655
 20
90.1723
 11
-5.71681
 21
89.5945
  0
LINE
  8
0
 10
-5.71681
 20
89.5945
 11
-7.87691
 21
88.7393
  0
LINE
  8
0
 10
-7.87691
 20
88.7393
 11
-9.91278
 21
87.6201
  0
LINE
  8
0
 10
-9.91278
 20
87.6201
 11
-11.7923
 21
86.2545
  0
LINE
  8
0
 10
-11.7923
 20
86.2545
 11
-13.4859
 21
84.6641
  0
LINE
  8
0
 10
-13.4859
 20
84.6641
 11
-14.9668
 21
82.874
  0
LINE
  8
0
 10
-14.9668
 20
82.874
 11
-16.2117
 21
80.9124
  0
LINE
  8
0
 10
-16.2117
 20
80.9124
 11
-17.2009
 21
78.8103
  0
LINE
  8
0
 10
-17.2009
 20
78.8103
 11
-17.9188
 21
76.6008
  0
LINE
  8
0
 10
-17.9188
 20
76.6008
 11
-18.3541
 21
74.3187
  0
LINE
  8
0
 10
-18.3541
 20
74.3187
 11
-18.5
 21
72
  0
LINE
  8
0
 10
-18.5
 20
72
 11
-18.3541
 21
69.6813
  0
LINE
  8
0
 10
-18.3541
 20
69.6813
 11
-17.9188
 21
67.3992
  0
LINE
  8
0
 10
-17.9188
 20
67.3992
 11
-17.2009
 21
65.1897
  0
LINE
  8
0
 10
-17.2009
 20
65.1897
 11
-16.2117
 21
63.0876
  0
LINE
  8
0
 10
-16.2117
 20
63.0876
 11
-14.9668
 21
61.126
  0
LINE
  8
0
 10
-14.9668
 20
61.126
 11
-13.4859
 21
59.3359
  0
LINE
  8
0
 10
-13.4859
 20
59.3359
 11
-11.7923
 21
57.7455
  0
LINE
  8
0
 10
-11.7923
 20
57.7455
 11
-9.91278
 21
56.3799
  0
LINE
  8
0
 10
-9.91278
 20
56.3799
 11
-9.463
 21
56.1327
  0
LINE
  8
0
 10
-9.463
 20
56.1327
 11
-10.1127
 21
55.3473
  0
LINE
  8
0
 10
-10.1127
 20
55.3473
 11
-10.9538
 21
54.0219
  0
LINE
  8
0
 10
-10.9538
 20
54.0219
 11
-11.6222
 21
52.6015
  0
LINE
  8
0
 10
-11.6222
 20
52.6015
 11
-12.1073
 21
51.1086
  0
LINE
  8
0
 10
-12.1073
 20
51.1086
 11
-12.4014
 21
49.5667
  0
LINE
  8
0
 10
-12.4014
 20
49.5667
 11
-12.5
 21
48
  0
LINE
  8
0
 10
-12.5
 20
48
 11
-12.4014
 21
46.4333
  0
LINE
  8
0
 10
-12.4014
 20
46.4333
 11
-12.1073
 21
44.8914
  0
LINE
  8
0
 10
-12.1073
 20
44.8914
 11
-11.6222
 21
43.3985
  0
LINE
  8
0
 10
-11.6222
 20
43.3985
 11
-10.9538
 21
41.9781
  0
LINE
  8
0
 10
-10.9538
 20
41.9781
 11
-10.1127
 21
40.6527
  0
LINE
  8
0
 10
-10.1127
 20
40.6527
 11
-9.11211
 21
39.4432
  0
LINE
  8
0
 10
-9.11211
 20
39.4432
 11
-7.96779
 21
38.3686
  0
LINE
  8
0
 10
-7.96779
 20
38.3686
 11
-6.69783
 21
37.4459
  0
LINE
  8
0
 10
-6.69783
 20
37.4459
 11
-5.32224
 21
36.6897
  0
LINE
  8
0
 10
-5.32224
 20
36.6897
 11
-3.8627
 21
36.1118
  0
LINE
  8
0
 10
-3.8627
 20
36.1118
 11
-3.42726
 21
36
  0
LINE
  8
0
 10
-3.42726
 20
36
 11
-3.8627
 21
35.8882
  0
LINE
  8
0
 10
-3.8627
 20
35.8882
 11
-5.32224
 21
35.3103
  0
LINE
  8
0
 10
-5.32224
 20
35.3103
 11
-6.69783
 21
34.5541
  0
LINE
  8
0
 10
-6.69783
 20
34.5541
 11
-7.96779
 21
33.6314
  0
LINE
  8
0
 10
-7.96779
 20
33.6314
 11
-9.11211
 21
32.5568
  0
LINE
  8
0
 10
-9.11211
 20
32.5568
 11
-10.1127
 21
31.3473
  0
LINE
  8
0
 10
-10.1127
 20
31.3473
 11
-10.9538
 21
30.0219
  0
LINE
  8
0
 10
-10.9538
 20
30.0219
 11
-11.6222
 21
28.6015
  0
LINE
  8
0
 10
-11.6222
 20
28.6015
 11
-12.1073
 21
27.1086
  0
LINE
  8
0
 10
-12.1073
 20
27.1086
 11
-12.4014
 21
25.5667
  0
LINE
  8
0
 10
-12.4014
 20
25.5667
 11
-12.5
 21
24
  0
LINE
  8
0
 10
-12.5
 20
24
 11
-12.4014
 21
22.4333
  0
LINE
  8
0
 10
-12.4014
 20
22.4333
 11
-12.1073
 21
20.8914
  0
LINE
  8
0
 10
-12.1073
 20
20.8914
 11
-11.6222
 21
19.3985
  0
LINE
  8
0
 10
-11.6222
 20
19.3985
 11
-10.9538
 21
17.9781
  0
LINE
  8
0
 10
-10.9538
 20
17.9781
 11
-10.1127
 21
16.6527
  0
LINE
  8
0
 10
-10.1127
 20
16.6527
 11
-9.11211
 21
15.4432
  0
LINE
  8
0
 10
-9.11211
 20
15.4432
 11
-7.96779
 21
14.3686
  0
LINE
  8
0
 10
-7.96779
 20
14.3686
 11
-6.69783
 21
13.4459
  0
LINE
  8
0
 10
-6.69783
 20
13.4459
 11
-5.32224
 21
12.6897
  0
LINE
  8
0
 10
-5.32224
 20
12.6897
 11
-3.8627
 21
12.1118
  0
LINE
  8
0
 10
-3.8627
 20
12.1118
 11
-3.42726
 21
12
  0
LINE
  8
0
 10
-3.42726
 20
12
 11
-3.8627
 21
11.8882
  0
LINE
  8
0
 10
-3.8627
 20
11.8882
 11
-5.32224
 21
11.3103
  0
LINE
  8
0
 10
-5.32224
 20
11.3103
 11
-6.69783
 21
10.5541
  0
LINE
  8
0
 10
-6.69783
 20
10.5541
 11
-7.96779
 21
9.63141
  0
LINE
  8
0
 10
-7.96779
 20
9.63141
 11
-9.11211
 21
8.55682
  0
LINE
  8
0
 10
-9.11211
 20
8.55682
 11
-10.1127
 21
7.34731
  0
LINE
  8
0
 10
-10.1127
 20
7.34731
 11
-10.9538
 21
6.02191
  0
LINE
  8
0
 10
-10.9538
 20
6.02191
 11
-11.6222
 21
4.60155
  0
LINE
  8
0
 10
-11.6222
 20
4.60155
 11
-12.1073
 21
3.10861
  0
LINE
  8
0
 10
-12.1073
 20
3.10861
 11
-12.4014
 21
1.56665
  0
LINE
  8
0
 10
-12.4014
 20
1.56665
 11
-12.5
 21
0
  0
LINE
  8
0
 10
-12.5
 20
0
 11
-12.4014
 21
-1.56665
  0
LINE
  8
0
 10
-12.4014
 20
-1.56665
 11
-12.1073
 21
-3.10861
  0
LINE
  8
0
 10
-12.1073
 20
-3.10861
 11
-11.6222
 21
-4.60155
  0
LINE
  8
0
 10
-11.6222
 20
-4.60155
 11
-10.9538
 21
-6.02191
  0
LINE
  8
0
 10
-10.9538
 20
-6.02191
 11
-10.1127
 21
-7.34731
  0
LINE
  8
0
 10
-10.1127
 20
-7.34731
 11
-9.11211
 21
-8.55682
  0
LINE
  8
0
 10
-9.11211
 20
-8.55682
 11
-7.96779
 21
-9.63141
  0
LINE
  8
0
 10
-7.96779
 20
-9.63141
 11
-6.69783
 21
-10.5541
  0
LINE
  8
0
 10
-6.69783
 20
-10.5541
 11
-5.32224
 21
-11.3103
  0
LINE
  8
0
 10
-5.32224
 20
-11.3103
 11
-3.8627
 21
-11.8882
  0
LINE
  8
0
 10
-3.8627
 20
-11.8882
 11
-2.34225
 21
-12.2786
  0
LINE
  8
0
 10
-2.34225
 20
-12.2786
 11
-0.784866
 21
-12.4753
  0
LINE
  8
0
 10
-0.784866
 20
-12.4753
 11
0.784866
 21
-12.4753
  0
LINE
  8
0
 10
0.784866
 20
-12.4753
 11
2.34225
 21
-12.2786
  0
LINE
  8
0
 10
-0.229599
 20
68.3505
 11
-0.685196
 21
68.408
  0
LINE
  8
0
 10
-0.685196
 20
68.408
 11
-1.12999
 21
68.5222
  0
LINE
  8
0
 10
-1.12999
 20
68.5222
 11
-1.55696
 21
68.6913
  0
LINE
  8
0
 10
-1.55696
 20
68.6913
 11
-1.95938
 21
68.9125
  0
LINE
  8
0
 10
-1.95938
 20
68.9125
 11
-2.3309
 21
69.1824
  0
LINE
  8
0
 10
-2.3309
 20
69.1824
 11
-2.66565
 21
69.4968
  0
LINE
  8
0
 10
-2.66565
 20
69.4968
 11
-2.95837
 21
69.8506
  0
LINE
  8
0
 10
-2.95837
 20
69.8506
 11
-3.20444
 21
70.2384
  0
LINE
  8
0
 10
-3.20444
 20
70.2384
 11
-3.39996
 21
70.6539
  0
LINE
  8
0
 10
-3.39996
 20
70.6539
 11
-3.54187
 21
71.0906
  0
LINE
  8
0
 10
-3.54187
 20
71.0906
 11
-3.62791
 21
71.5417
  0
LINE
  8
0
 10
-3.62791
 20
71.5417
 11
-3.65675
 21
72
  0
LINE
  8
0
 10
-3.65675
 20
72
 11
-3.62791
 21
72.4583
  0
LINE
  8
0
 10
-3.62791
 20
72.4583
 11
-3.54187
 21
72.9094
  0
LINE
  8
0
 10
-3.54187
 20
72.9094
 11
-3.39996
 21
73.3461
  0
LINE
  8
0
 10
-3.39996
 20
73.3461
 11
-3.20444
 21
73.7616
  0
LINE
  8
0
 10
-3.20444
 20
73.7616
 11
-2.95837
 21
74.1494
  0
LINE
  8
0
 10
-2.95837
 20
74.1494
 11
-2.66565
 21
74.5032
  0
LINE
  8
0
 10
-2.66565
 20
74.5032
 11
-2.3309
 21
74.8176
  0
LINE
  8
0
 10
-2.3309
 20
74.8176
 11
-1.95938
 21
75.0875
  0
LINE
  8
0
 10
-1.95938
 20
75.0875
 11
-1.55696
 21
75.3087
  0
LINE
  8
0
 10
-1.55696
 20
75.3087
 11
-1.12999
 21
75.4778
  0
LINE
  8
0
 10
-1.12999
 20
75.4778
 11
-0.685196
 21
75.592
  0
LINE
  8
0
 10
-0.685196
 20
75.592
 11
-0.229599
 21
75.6495
  0
LINE
  8
0
 10
-0.229599
 20
75.6495
 11
0.229599
 21
75.6495
  0
LINE
  8
0
 10
0.229599
 20
75.6495
 11
0.685196
 21
75.592
  0
LINE
  8
0
 10
0.685196
 20
75.592
 11
1.12999
 21
75.4778
  0
LINE
  8
0
 10
1.12999
 20
75.4778
 11
1.55696
 21
75.3087
  0
LINE
  8
0
 10
1.55696
 20
75.3087
 11
1.95938
 21
75.0875
  0
LINE
  8
0
 10
1.95938
 20
75.0875
 11
2.3309
 21
74.8176
  0
LINE
  8
0
 10
2.3309
 20
74.8176
 11
2.66565
 21
74.5032
  0
LINE
  8
0
 10
2.66565
 20
74.5032
 11
2.95837
 21
74.1494
  0
LINE
  8
0
 10
2.95837
 20
74.1494
 11
3.20444
 21
73.7616
  0
LINE
  8
0
 10
3.20444
 20
73.7616
 11
3.39996
 21
73.3461
  0
LINE
  8
0
 10
3.39996
 20
73.3461
 11
3.54187
 21
72.9094
  0
LINE
  8
0
 10
3.54187
 20
72.9094
 11
3.62791
 21
72.4583
  0
LINE
  8
0
 10
3.62791
 20
72.4583
 11
3.65675
 21
72
  0
LINE
  8
0
 10
3.65675
 20
72
 11
3.62791
 21
71.5417
  0
LINE
  8
0
 10
3.62791
 20
71.5417
 11
3.54187
 21
71.0906
  0
LINE
  8
0
 10
3.54187
 20
71.0906
 11
3.39996
 21
70.6539
  0
LINE
  8
0
 10
3.39996
 20
70.6539
 11
3.20444
 21
70.2384
  0
LINE
  8
0
 10
3.20444
 20
70.2384
 11
2.95837
 21
69.8506
  0
LINE
  8
0
 10
2.95837
 20
69.8506
 11
2.66565
 21
69.4968
  0
LINE
  8
0
 10
2.66565
 20
69.4968
 11
2.3309
 21
69.1824
  0
LINE
  8
0
 10
2.3309
 20
69.1824
 11
1.95938
 21
68.9125
  0
LINE
  8
0
 10
1.95938
 20
68.9125
 11
1.55696
 21
68.6913
  0
LINE
  8
0
 10
1.55696
 20
68.6913
 11
1.12999
 21
68.5222
  0
LINE
  8
0
 10
1.12999
 20
68.5222
 11
0.685196
 21
68.408
  0
LINE
  8
0
 10
0.685196
 20
68.408
 11
0.229599
 21
68.3505
  0
LINE
  8
0
 10
0.229599
 20
68.3505
 11
-0.229599
 21
68.3505
  0
LINE
  8
0
 10
-0.180511
 20
45.1307
 11
-0.538712
 21
45.1759
  0
LINE
  8
0
 10
-0.538712
 20
45.1759
 11
-0.888412
 21
45.2657
  0
LINE
  8
0
 10
-0.888412
 20
45.2657
 11
-1.22411
 21
45.3986
  0
LINE
  8
0
 10
-1.22411
 20
45.3986
 11
-1.5405
 21
45.5726
  0
LINE
  8
0
 10
-1.5405
 20
45.5726
 11
-1.83258
 21
45.7848
  0
LINE
  8
0
 10
-1.83258
 20
45.7848
 11
-2.09578
 21
46.0319
  0
LINE
  8
0
 10
-2.09578
 20
46.0319
 11
-2.32591
 21
46.3101
  0
LINE
  8
0
 10
-2.32591
 20
46.3101
 11
-2.51938
 21
46.615
  0
LINE
  8
0
 10
-2.51938
 20
46.615
 11
-2.6731
 21
46.9417
  0
LINE
  8
0
 10
-2.6731
 20
46.9417
 11
-2.78467
 21
47.285
  0
LINE
  8
0
 10
-2.78467
 20
47.285
 11
-2.85233
 21
47.6397
  0
LINE
  8
0
 10
-2.85233
 20
47.6397
 11
-2.875
 21
48
  0
LINE
  8
0
 10
-2.875
 20
48
 11
-2.85233
 21
48.3603
  0
LINE
  8
0
 10
-2.85233
 20
48.3603
 11
-2.78467
 21
48.715
  0
LINE
  8
0
 10
-2.78467
 20
48.715
 11
-2.6731
 21
49.0583
  0
LINE
  8
0
 10
-2.6731
 20
49.0583
 11
-2.51938
 21
49.385
  0
LINE
  8
0
 10
-2.51938
 20
49.385
 11
-2.32591
 21
49.6899
  0
LINE
  8
0
 10
-2.32591
 20
49.6899
 11
-2.09578
 21
49.9681
  0
LINE
  8
0
 10
-2.09578
 20
49.9681
 11
-1.83258
 21
50.2152
  0
LINE
  8
0
 10
-1.83258
 20
50.2152
 11
-1.5405
 21
50.4274
  0
LINE
  8
0
 10
-1.5405
 20
50.4274
 11
-1.22411
 21
50.6014
  0
LINE
  8
0
 10
-1.22411
 20
50.6014
 11
-0.888412
 21
50.7343
  0
LINE
  8
0
 10
-0.888412
 20
50.7343
 11
-0.538712
 21
50.8241
  0
LINE
  8
0
 10
-0.538712
 20
50.8241
 11
-0.180511
 21
50.8693
  0
LINE
  8
0
 10
-0.180511
 20
50.8693
 11
0.180511
 21
50.8693
  0
LINE
  8
0
 10
0.180511
 20
50.8693
 11
0.538712
 21
50.8241
  0
LINE
  8
0
 10
0.538712
 20
50.8241
 11
0.888412
 21
50.7343
  0
LINE
  8
0
 10
0.888412
 20
50.7343
 11
1.22411
 21
50.6014
  0
LINE
  8
0
 10
1.22411
 20
50.6014
 11
1.5405
 21
50.4274
  0
LINE
  8
0
 10
1.5405
 20
50.4274
 11
1.83258
 21
50.2152
  0
LINE
  8
0
 10
1.83258
 20
50.2152
 11
2.09578
 21
49.9681
  0
LINE
  8
0
 10
2.09578
 20
49.9681
 11
2.32591
 21
49.6899
  0
LINE
  8
0
 10
2.32591
 20
49.6899
 11
2.51938
 21
49.385
  0
LINE
  8
0
 10
2.51938
 20
49.385
 11
2.6731
 21
49.0583
  0
LINE
  8
0
 10
2.6731
 20
49.0583
 11
2.78467
 21
48.715
  0
LINE
  8
0
 10
2.78467
 20
48.715
 11
2.85233
 21
48.3603
  0
LINE
  8
0
 10
2.85233
 20
48.3603
 11
2.875
 21
48
  0
LINE
  8
0
 10
2.875
 20
48
 11
2.85233
 21
47.6397
  0
LINE
  8
0
 10
2.85233
 20
47.6397
 11
2.78467
 21
47.285
  0
LINE
  8
0
 10
2.78467
 20
47.285
 11
2.6731
 21
46.9417
  0
LINE
  8
0
 10
2.6731
 20
46.9417
 11
2.51938
 21
46.615
  0
LINE
  8
0
 10
2.51938
 20
46.615
 11
2.32591
 21
46.3101
  0
LINE
  8
0
 10
2.32591
 20
46.3101
 11
2.09578
 21
46.0319
  0
LINE
  8
0
 10
2.09578
 20
46.0319
 11
1.83258
 21
45.7848
  0
LINE
  8
0
 10
1.83258
 20
45.7848
 11
1.5405
 21
45.5726
  0
LINE
  8
0
 10
1.5405
 20
45.5726
 11
1.22411
 21
45.3986
  0
LINE
  8
0
 10
1.22411
 20
45.3986
 11
0.888412
 21
45.2657
  0
LINE
  8
0
 10
0.888412
 20
45.2657
 11
0.538712
 21
45.1759
  0
LINE
  8
0
 10
0.538712
 20
45.1759
 11
0.180511
 21
45.1307
  0
LINE
  8
0
 10
0.180511
 20
45.1307
 11
-0.180511
 21
45.1307
  0
LINE
  8
0
 10
-0.180511
 20
21.1307
 11
-0.538712
 21
21.1759
  0
LINE
  8
0
 10
-0.538712
 20
21.1759
 11
-0.888412
 21
21.2657
  0
LINE
  8
0
 10
-0.888412
 20
21.2657
 11
-1.22411
 21
21.3986
  0
LINE
  8
0
 10
-1.22411
 20
21.3986
 11
-1.5405
 21
21.5726
  0
LINE
  8
0
 10
-1.5405
 20
21.5726
 11
-1.83258
 21
21.7848
  0
LINE
  8
0
 10
-1.83258
 20
21.7848
 11
-2.09578
 21
22.0319
  0
LINE
  8
0
 10
-2.09578
 20
22.0319
 11
-2.32591
 21
22.3101
  0
LINE
  8
0
 10
-2.32591
 20
22.3101
 11
-2.51938
 21
22.615
  0
LINE
  8
0
 10
-2.51938
 20
22.615
 11
-2.6731
 21
22.9417
  0
LINE
  8
0
 10
-2.6731
 20
22.9417
 11
-2.78467
 21
23.285
  0
LINE
  8
0
 10
-2.78467
 20
23.285
 11
-2.85233
 21
23.6397
  0
LINE
  8
0
 10
-2.85233
 20
23.6397
 11
-2.875
 21
24
  0
LINE
  8
0
 10
-2.875
 20
24
 11
-2.85233
 21
24.3603
  0
LINE
  8
0
 10
-2.85233
 20
24.3603
 11
-2.78467
 21
24.715
  0
LINE
  8
0
 10
-2.78467
 20
24.715
 11
-2.6731
 21
25.0583
  0
LINE
  8
0
 10
-2.6731
 20
25.0583
 11
-2.51938
 21
25.385
  0
LINE
  8
0
 10
-2.51938
 20
25.385
 11
-2.32591
 21
25.6899
  0
LINE
  8
0
 10
-2.32591
 20
25.6899
 11
-2.09578
 21
25.9681
  0
LINE
  8
0
 10
-2.09578
 20
25.9681
 11
-1.83258
 21
26.2152
  0
LINE
  8
0
 10
-1.83258
 20
26.2152
 11
-1.5405
 21
26.4274
  0
LINE
  8
0
 10
-1.5405
 20
26.4274
 11
-1.22411
 21
26.6014
  0
LINE
  8
0
 10
-1.22411
 20
26.6014
 11
-0.888412
 21
26.7343
  0
LINE
  8
0
 10
-0.888412
 20
26.7343
 11
-0.538712
 21
26.8241
  0
LINE
  8
0
 10
-0.538712
 20
26.8241
 11
-0.180511
 21
26.8693
  0
LINE
  8
0
 10
-0.180511
 20
26.8693
 11
0.180511
 21
26.8693
  0
LINE
  8
0
 10
0.180511
 20
26.8693
 11
0.538712
 21
26.8241
  0
LINE
  8
0
 10
0.538712
 20
26.8241
 11
0.888412
 21
26.7343
  0
LINE
  8
0
 10
0.888412
 20
26.7343
 11
1.22411
 21
26.6014
  0
LINE
  8
0
 10
1.22411
 20
26.6014
 11
1.5405
 21
26.4274
  0
LINE
  8
0
 10
1.5405
 20
26.4274
 11
1.83258
 21
26.2152
  0
LINE
  8
0
 10
1.83258
 20
26.2152
 11
2.09578
 21
25.9681
  0
LINE
  8
0
 10
2.09578
 20
25.9681
 11
2.32591
 21
25.6899
  0
LINE
  8
0
 10
2.32591
 20
25.6899
 11
2.51938
 21
25.385
  0
LINE
  8
0
 10
2.51938
 20
25.385
 11
2.6731
 21
25.0583
  0
LINE
  8
0
 10
2.6731
 20
25.0583
 11
2.78467
 21
24.715
  0
LINE
  8
0
 10
2.78467
 20
24.715
 11
2.85233
 21
24.3603
  0
LINE
  8
0
 10
2.85233
 20
24.3603
 11
2.875
 21
24
  0
LINE
  8
0
 10
2.875
 20
24
 11
2.85233
 21
23.6397
  0
LINE
  8
0
 10
2.85233
 20
23.6397
 11
2.78467
 21
23.285
  0
LINE
  8
0
 10
2.78467
 20
23.285
 11
2.6731
 21
22.9417
  0
LINE
  8
0
 10
2.6731
 20
22.9417
 11
2.51938
 21
22.615
  0
LINE
  8
0
 10
2.51938
 20
22.615
 11
2.32591
 21
22.3101
  0
LINE
  8
0
 10
2.32591
 20
22.3101
 11
2.09578
 21
22.0319
  0
LINE
  8
0
 10
2.09578
 20
22.0319
 11
1.83258
 21
21.7848
  0
LINE
  8
0
 10
1.83258
 20
21.7848
 11
1.5405
 21
21.5726
  0
LINE
  8
0
 10
1.5405
 20
21.5726
 11
1.22411
 21
21.3986
  0
LINE
  8
0
 10
1.22411
 20
21.3986
 11
0.888412
 21
21.2657
  0
LINE
  8
0
 10
0.888412
 20
21.2657
 11
0.538712
 21
21.1759
  0
LINE
  8
0
 10
0.538712
 20
21.1759
 11
0.180511
 21
21.1307
  0
LINE
  8
0
 10
0.180511
 20
21.1307
 11
-0.180511
 21
21.1307
  0
LINE
  8
0
 10
-0.180511
 20
-2.86932
 11
-0.538712
 21
-2.82407
  0
LINE
  8
0
 10
-0.538712
 20
-2.82407
 11
-0.888412
 21
-2.73428
  0
LINE
  8
0
 10
-0.888412
 20
-2.73428
 11
-1.22411
 21
-2.60136
  0
LINE
  8
0
 10
-1.22411
 20
-2.60136
 11
-1.5405
 21
-2.42743
  0
LINE
  8
0
 10
-1.5405
 20
-2.42743
 11
-1.83258
 21
-2.21523
  0
LINE
  8
0
 10
-1.83258
 20
-2.21523
 11
-2.09578
 21
-1.96806
  0
LINE
  8
0
 10
-2.09578
 20
-1.96806
 11
-2.32591
 21
-1.68988
  0
LINE
  8
0
 10
-2.32591
 20
-1.68988
 11
-2.51938
 21
-1.38504
  0
LINE
  8
0
 10
-2.51938
 20
-1.38504
 11
-2.6731
 21
-1.05835
  0
LINE
  8
0
 10
-2.6731
 20
-1.05835
 11
-2.78467
 21
-0.714981
  0
LINE
  8
0
 10
-2.78467
 20
-0.714981
 11
-2.85233
 21
-0.360321
  0
LINE
  8
0
 10
-2.85233
 20
-0.360321
 11
-2.875
 21
0
  0
LINE
  8
0
 10
-2.875
 20
0
 11
-2.85233
 21
0.360321
  0
LINE
  8
0
 10
-2.85233
 20
0.360321
 11
-2.78467
 21
0.714981
  0
LINE
  8
0
 10
-2.78467
 20
0.714981
 11
-2.6731
 21
1.05835
  0
LINE
  8
0
 10
-2.6731
 20
1.05835
 11
-2.51938
 21
1.38504
  0
LINE
  8
0
 10
-2.51938
 20
1.38504
 11
-2.32591
 21
1.68988
  0
LINE
  8
0
 10
-2.32591
 20
1.68988
 11
-2.09578
 21
1.96806
  0
LINE
  8
0
 10
-2.09578
 20
1.96806
 11
-1.83258
 21
2.21523
  0
LINE
  8
0
 10
-1.83258
 20
2.21523
 11
-1.5405
 21
2.42743
  0
LINE
  8
0
 10
-1.5405
 20
2.42743
 11
-1.22411
 21
2.60136
  0
LINE
  8
0
 10
-1.22411
 20
2.60136
 11
-0.888412
 21
2.73428
  0
LINE
  8
0
 10
-0.888412
 20
2.73428
 11
-0.538712
 21
2.82407
  0
LINE
  8
0
 10
-0.538712
 20
2.82407
 11
-0.180511
 21
2.86932
  0
LINE
  8
0
 10
-0.180511
 20
2.86932
 11
0.180511
 21
2.86932
  0
LINE
  8
0
 10
0.180511
 20
2.86932
 11
0.538712
 21
2.82407
  0
LINE
  8
0
 10
0.538712
 20
2.82407
 11
0.888412
 21
2.73428
  0
LINE
  8
0
 10
0.888412
 20
2.73428
 11
1.22411
 21
2.60136
  0
LINE
  8
0
 10
1.22411
 20
2.60136
 11
1.5405
 21
2.42743
  0
LINE
  8
0
 10
1.5405
 20
2.42743
 11
1.83258
 21
2.21523
  0
LINE
  8
0
 10
1.83258
 20
2.21523
 11
2.09578
 21
1.96806
  0
LINE
  8
0
 10
2.09578
 20
1.96806
 11
2.32591
 21
1.68988
  0
LINE
  8
0
 10
2.32591
 20
1.68988
 11
2.51938
 21
1.38504
  0
LINE
  8
0
 10
2.51938
 20
1.38504
 11
2.6731
 21
1.05835
  0
LINE
  8
0
 10
2.6731
 20
1.05835
 11
2.78467
 21
0.714981
  0
LINE
  8
0
 10
2.78467
 20
0.714981
 11
2.85233
 21
0.360321
  0
LINE
  8
0
 10
2.85233
 20
0.360321
 11
2.875
 21
0
  0
LINE
  8
0
 10
2.875
 20
0
 11
2.85233
 21
-0.360321
  0
LINE
  8
0
 10
2.85233
 20
-0.360321
 11
2.78467
 21
-0.714981
  0
LINE
  8
0
 10
2.78467
 20
-0.714981
 11
2.6731
 21
-1.05835
  0
LINE
  8
0
 10
2.6731
 20
-1.05835
 11
2.51938
 21
-1.38504
  0
LINE
  8
0
 10
2.51938
 20
-1.38504
 11
2.32591
 21
-1.68988
  0
LINE
  8
0
 10
2.32591
 20
-1.68988
 11
2.09578
 21
-1.96806
  0
LINE
  8
0
 10
2.09578
 20
-1.96806
 11
1.83258
 21
-2.21523
  0
LINE
  8
0
 10
1.83258
 20
-2.21523
 11
1.5405
 21
-2.42743
  0
LINE
  8
0
 10
1.5405
 20
-2.42743
 11
1.22411
 21
-2.60136
  0
LINE
  8
0
 10
1.22411
 20
-2.60136
 11
0.888412
 21
-2.73428
  0
LINE
  8
0
 10
0.888412
 20
-2.73428
 11
0.538712
 21
-2.82407
  0
LINE
  8
0
 10
0.538712
 20
-2.82407
 11
0.180511
 21
-2.86932
  0
LINE
  8
0
 10
0.180511
 20
-2.86932
 11
-0.180511
 21
-2.86932
  0
ENDSEC
  0
SECTION
  2
OBJECTS
  0
DICTIONARY
  0
ENDSEC
  0
EOF
