<?xml version="1.0" standalone="no"?>
<!DOCTYPE svg PUBLIC "-//W3C//DTD SVG 1.1//EN" "http://www.w3.org/Graphics/SVG/1.1/DTD/svg11.dtd">
<svg width="38mm" height="104mm" viewBox="-19 -91 38 104" xmlns="http://www.w3.org/2000/svg" version="1.1">
<title>OpenSCAD Model</title>
<path d="
M 2.34225,12.2786 L 3.8627,11.8882 L 5.32224,11.3103 L 6.69783,10.5541 L 7.96779,9.63141 L 9.11211,8.55682
 L 10.1127,7.34731 L 10.9538,6.02191 L 11.6222,4.60155 L 12.1073,3.10861 L 12.4014,1.56665 L 12.5,-0
 L 12.4014,-1.56665 L 12.1073,-3.10861 L 11.6222,-4.60155 L 10.9538,-6.02191 L 10.1127,-7.34731 L 9.11211,-8.55682
 L 7.96779,-9.63141 L 6.69783,-10.5541 L 5.32224,-11.3103 L 3.8627,-11.8882 L 3.42726,-12 L 3.8627,-12.1118
 L 5.32224,-12.6897 L 6.69783,-13.4459 L 7.96779,-14.3686 L 9.11211,-15.4432 L 10.1127,-16.6527 L 10.9538,-17.9781
 L 11.6222,-19.3985 L 12.1073,-20.8914 L 12.4014,-22.4333 L 12.5,-24 L 12.4014,-25.5667 L 12.1073,-27.1086
 L 11.6222,-28.6015 L 10.9538,-30.0219 L 10.1127,-31.3473 L 9.11211,-32.5568 L 7.96779,-33.6314 L 6.69783,-34.5541
 L 5.32224,-35.3103 L 3.8627,-35.8882 L 3.42726,-36 L 3.8627,-36.1118 L 5.32224,-36.6897 L 6.69783,-37.4459
 L 7.96779,-38.3686 L 9.11211,-39.4432 L 10.1127,-40.6527 L 10.9538,-41.9781 L 11.6222,-43.3985 L 12.1073,-44.8914
 L 12.4014,-46.4333 L 12.5,-48 L 12.4014,-49.5667 L 12.1073,-51.1086 L 11.6222,-52.6015 L 10.9538,-54.0219
 L 10.1127,-55.3473 L 9.463,-56.1327 L 9.91278,-56.3799 L 11.7923,-57.7455 L 13.4859,-59.3359 L 14.9668,-61.126
 L 16.2117,-63.0876 L 17.2009,-65.1897 L 17.9188,-67.3992 L 18.3541,-69.6813 L 18.5,-72 L 18.3541,-74.3187
 L 17.9188,-76.6008 L 17.2009,-78.8103 L 16.2117,-80.9124 L 14.9668,-82.874 L 13.4859,-84.6641 L 11.7923,-86.2545
 L 9.91278,-87.6201 L 7.87691,-88.7393 L 5.71681,-89.5945 L 3.46655,-90.1723 L 1.16162,-90.4635 L -1.16162,-90.4635
 L -3.46655,-90.1723 L -5.71681,-89.5945 L -7.87691,-88.7393 L -9.91278,-87.6201 L -11.7923,-86.2545 L -13.4859,-84.6641
 L -14.9668,-82.874 L -16.2117,-80.9124 L -17.2009,-78.8103 L -17.9188,-76.6008 L -18.3541,-74.3187 L -18.5,-72
 L -18.3541,-69.6813 L -17.9188,-67.3992 L -17.2009,-65.1897 L -16.2117,-63.0876 L -14.9668,-61.126 L -13.4859,-59.3359
 L -11.7923,-57.7455 L -9.91278,-56.3799 L -9.463,-56.1327 L -10.1127,-55.3473 L -10.9538,-54.0219 L -11.6222,-52.6015
 L -12.1073,-51.1086 L -12.4014,-49.5667 L -12.5,-48 L -12.4014,-46.4333 L -12.1073,-44.8914 L -11.6222,-43.3985
 L -10.9538,-41.9781 L -10.1127,-40.6527 L -9.11211,-39.4432 L -7.96779,-38.3686 L -6.69783,-37.4459 L -5.32224,-36.6897
 L -3.8627,-36.1118 L -3.42726,-36 L -3.8627,-35.8882 L -5.32224,-35.3103 L -6.69783,-34.5541 L -7.96779,-33.6314
 L -9.11211,-32.5568 L -10.1127,-31.3473 L -10.9538,-30.0219 L -11.6222,-28.6015 L -12.1073,-27.1086 L -12.4014,-25.5667
 L -12.5,-24 L -12.4014,-22.4333 L -12.1073,-20.8914 L -11.6222,-19.3985 L -10.9538,-17.9781 L -10.1127,-16.6527
 L -9.11211,-15.4432 L -7.96779,-14.3686 L -6.69783,-13.4459 L -5.32224,-12.6897 L -3.8627,-12.1118 L -3.42726,-12
 L -3.8627,-11.8882 L -5.32224,-11.3103 L -6.69783,-10.5541 L -7.96779,-9.63141 L -9.11211,-8.55682 L -10.1127,-7.34731
 L -10.9538,-6.02191 L -11.6222,-4.60155 L -12.1073,-3.10861 L -12.4014,-1.56665 L -12.5,-0 L -12.4014,1.56665
 L -12.1073,3.10861 L -11.6222,4.60155 L -10.9538,6.02191 L -10.1127,7.34731 L -9.11211,8.55682 L -7.96779,9.63141
 L -6.69783,10.5541 L -5.32224,11.3103 L -3.8627,11.8882 L -2.34225,12.2786 L -0.784866,12.4753 L 0.784866,12.4753
 z
M -0.229599,-68.3505 L -0.685196,-68.408 L -1.12999,-68.5222 L -1.55696,-68.6913 L -1.95938,-68.9125 L -2.3309,-69.1824
 L -2.66565,-69.4968 L -2.95837,-69.8506 L -3.20444,-70.2384 L -3.39996,-70.6539 L -3.54187,-71.0906 L -3.62791,-71.5417
 L -3.65675,-72 L -3.62791,-72.4583 L -3.54187,-72.9094 L -3.39996,-73.3461 L -3.20444,-73.7616 L -2.95837,-74.1494
 L -2.66565,-74.5032 L -2.3309,-74.8176 L -1.95938,-75.0875 L -1.55696,-75.3087 L -1.12999,-75.4778 L -0.685196,-75.592
 L -0.229599,-75.6495 L 0.229599,-75.6495 L 0.685196,-75.592 L 1.12999,-75.4778 L 1.55696,-75.3087 L 1.95938,-75.0875
 L 2.3309,-74.8176 L 2.66565,-74.5032 L 2.95837,-74.1494 L 3.20444,-73.7616 L 3.39996,-73.3461 L 3.54187,-72.9094
 L 3.62791,-72.4583 L 3.65675,-72 L 3.62791,-71.5417 L 3.54187,-71.0906 L 3.39996,-70.6539 L 3.20444,-70.2384
 L 2.95837,-69.8506 L 2.66565,-69.4968 L 2.3309,-69.1824 L 1.95938,-68.9125 L 1.55696,-68.6913 L 1.12999,-68.5222
 L 0.685196,-68.408 L 0.229599,-68.3505 z
M -0.180511,-45.1307 L -0.538712,-45.1759 L -0.888412,-45.2657 L -1.22411,-45.3986 L -1.5405,-45.5726 L -1.83258,-45.7848
 L -2.09578,-46.0319 L -2.32591,-46.3101 L -2.51938,-46.615 L -2.6731,-46.9417 L -2.78467,-47.285 L -2.85233,-47.6397
 L -2.875,-48 L -2.85233,-48.3603 L -2.78467,-48.715 L -2.6731,-49.0583 L -2.51938,-49.385 L -2.32591,-49.6899
 L -2.09578,-49.9681 L -1.83258,-50.2152 L -1.5405,-50.4274 L -1.22411,-50.6014 L -0.888412,-50.7343 L -0.538712,-50.8241
 L -0.180511,-50.8693 L 0.180511,-50.8693 L 0.538712,-50.8241 L 0.888412,-50.7343 L 1.22411,-50.6014 L 1.5405,-50.4274
 L 1.83258,-50.2152 L 2.09578,-49.9681 L 2.32591,-49.6899 L 2.51938,-49.385 L 2.6731,-49.0583 L 2.78467,-48.715
 L 2.85233,-48.3603 L 2.875,-48 L 2.85233,-47.6397 L 2.78467,-47.285 L 2.6731,-46.9417 L 2.51938,-46.615
 L 2.32591,-46.3101 L 2.09578,-46.0319 L 1.83258,-45.7848 L 1.5405,-45.5726 L 1.22411,-45.3986 L 0.888412,-45.2657
 L 0.538712,-45.1759 L 0.180511,-45.1307 z
M -0.180511,-21.1307 L -0.538712,-21.1759 L -0.888412,-21.2657 L -1.22411,-21.3986 L -1.5405,-21.5726 L -1.83258,-21.7848
 L -2.09578,-22.0319 L -2.32591,-22.3101 L -2.51938,-22.615 L -2.6731,-22.9417 L -2.78467,-23.285 L -2.85233,-23.6397
 L -2.875,-24 L -2.85233,-24.3603 L -2.78467,-24.715 L -2.6731,-25.0583 L -2.51938,-25.385 L -2.32591,-25.6899
 L -2.09578,-25.9681 L -1.83258,-26.2152 L -1.5405,-26.4274 L -1.22411,-26.6014 L -0.888412,-26.7343 L -0.538712,-26.8241
 L -0.180511,-26.8693 L 0.180511,-26.8693 L 0.538712,-26.8241 L 0.888412,-26.7343 L 1.22411,-26.6014 L 1.5405,-26.4274
 L 1.83258,-26.2152 L 2.09578,-25.9681 L 2.32591,-25.6899 L 2.51938,-25.385 L 2.6731,-25.0583 L 2.78467,-24.715
 L 2.85233,-24.3603 L 2.875,-24 L 2.85233,-23.6397 L 2.78467,-23.285 L 2.6731,-22.9417 L 2.51938,-22.615
 L 2.32591,-22.3101 L 2.09578,-22.0319 L 1.83258,-21.7848 L 1.5405,-21.5726 L 1.22411,-21.3986 L 0.888412,-21.2657
 L 0.538712,-21.1759 L 0.180511,-21.1307 z
M -0.180511,2.86932 L -0.538712,2.82407 L -0.888412,2.73428 L -1.22411,2.60136 L -1.5405,2.42743 L -1.83258,2.21523
 L -2.09578,1.96806 L -2.32591,1.68988 L -2.51938,1.38504 L -2.6731,1.05835 L -2.78467,0.714981 L -2.85233,0.360321
 L -2.875,-0 L -2.85233,-0.360321 L -2.78467,-0.714981 L -2.6731,-1.05835 L -2.51938,-1.38504 L -2.32591,-1.68988
 L -2.09578,-1.96806 L -1.83258,-2.21523 L -1.5405,-2.42743 L -1.22411,-2.60136 L -0.888412,-2.73428 L -0.538712,-2.82407
 L -0.180511,-2.86932 L 0.180511,-2.86932 L 0.538712,-2.82407 L 0.888412,-2.73428 L 1.22411,-2.60136 L 1.5405,-2.42743
 L 1.83258,-2.21523 L 2.09578,-1.96806 L 2.32591,-1.68988 L 2.51938,-1.38504 L 2.6731,-1.05835 L 2.78467,-0.714981
 L 2.85233,-0.360321 L 2.875,-0 L 2.85233,0.360321 L 2.78467,0.714981 L 2.6731,1.05835 L 2.51938,1.38504
 L 2.32591,1.68988 L 2.09578,1.96806 L 1.83258,2.21523 L 1.5405,2.42743 L 1.22411,2.60136 L 0.888412,2.73428
 L 0.538712,2.82407 L 0.180511,2.86932 z
" stroke="black" fill="lightgray" stroke-width="0.5"/>
</svg>
