solid OpenSCAD_Model
  facet normal 0 0 -1
    outer loop
      vertex 2.875 0 -50
      vertex 4 0 -50
      vertex 3.96846 -0.501332 -50
    endloop
  endfacet
  facet normal 0 0 -1
    outer loop
      vertex 2.85233 -0.360332 -50
      vertex 3.96846 -0.501332 -50
      vertex 3.87433 -0.994759 -50
    endloop
  endfacet
  facet normal 0 0 -1
    outer loop
      vertex 4 0 -50
      vertex 2.875 0 -50
      vertex 3.96846 0.501332 -50
    endloop
  endfacet
  facet normal 0 0 -1
    outer loop
      vertex 2.78468 -0.714983 -50
      vertex 3.87433 -0.994759 -50
      vertex 3.71911 -1.4725 -50
    endloop
  endfacet
  facet normal 0 0 -1
    outer loop
      vertex 2.85233 0.360332 -50
      vertex 3.96846 0.501332 -50
      vertex 2.875 0 -50
    endloop
  endfacet
  facet normal 0 0 -1
    outer loop
      vertex 2.67311 -1.05836 -50
      vertex 3.71911 -1.4725 -50
      vertex 3.50523 -1.92701 -50
    endloop
  endfacet
  facet normal -0 0 -1
    outer loop
      vertex 3.96846 0.501332 -50
      vertex 2.85233 0.360332 -50
      vertex 3.87433 0.994759 -50
    endloop
  endfacet
  facet normal 0 0 -1
    outer loop
      vertex 2.51938 -1.38504 -50
      vertex 3.50523 -1.92701 -50
      vertex 3.23607 -2.35114 -50
    endloop
  endfacet
  facet normal 0 0 -1
    outer loop
      vertex 2.78468 0.714983 -50
      vertex 3.87433 0.994759 -50
      vertex 2.85233 0.360332 -50
    endloop
  endfacet
  facet normal 0 0 -1
    outer loop
      vertex 2.32592 -1.68988 -50
      vertex 3.23607 -2.35114 -50
      vertex 2.91587 -2.73819 -50
    endloop
  endfacet
  facet normal -0 0 -1
    outer loop
      vertex 3.87433 0.994759 -50
      vertex 2.78468 0.714983 -50
      vertex 3.71911 1.4725 -50
    endloop
  endfacet
  facet normal 0 0 -1
    outer loop
      vertex 2.67311 1.05836 -50
      vertex 3.71911 1.4725 -50
      vertex 2.78468 0.714983 -50
    endloop
  endfacet
  facet normal 0 0 -1
    outer loop
      vertex 3.96846 -0.501332 -50
      vertex 2.85233 -0.360332 -50
      vertex 2.875 0 -50
    endloop
  endfacet
  facet normal 0 0 -1
    outer loop
      vertex 3.87433 -0.994759 -50
      vertex 2.78468 -0.714983 -50
      vertex 2.85233 -0.360332 -50
    endloop
  endfacet
  facet normal 0 0 -1
    outer loop
      vertex 3.71911 -1.4725 -50
      vertex 2.67311 -1.05836 -50
      vertex 2.78468 -0.714983 -50
    endloop
  endfacet
  facet normal 0 0 -1
    outer loop
      vertex 2.09578 -1.96807 -50
      vertex 2.91587 -2.73819 -50
      vertex 2.5497 -3.08205 -50
    endloop
  endfacet
  facet normal 0 0 -1
    outer loop
      vertex 3.50523 -1.92701 -50
      vertex 2.51938 -1.38504 -50
      vertex 2.67311 -1.05836 -50
    endloop
  endfacet
  facet normal 0 0 -1
    outer loop
      vertex 3.23607 -2.35114 -50
      vertex 2.32592 -1.68988 -50
      vertex 2.51938 -1.38504 -50
    endloop
  endfacet
  facet normal 0 0 -1
    outer loop
      vertex 1.83259 -2.21523 -50
      vertex 2.5497 -3.08205 -50
      vertex 2.14331 -3.37731 -50
    endloop
  endfacet
  facet normal 0 0 -1
    outer loop
      vertex 2.91587 -2.73819 -50
      vertex 2.09578 -1.96807 -50
      vertex 2.32592 -1.68988 -50
    endloop
  endfacet
  facet normal 0 0 -1
    outer loop
      vertex 2.5497 -3.08205 -50
      vertex 1.83259 -2.21523 -50
      vertex 2.09578 -1.96807 -50
    endloop
  endfacet
  facet normal 0 0 -1
    outer loop
      vertex 1.5405 -2.42744 -50
      vertex 2.14331 -3.37731 -50
      vertex 1.70312 -3.61931 -50
    endloop
  endfacet
  facet normal 0 0 -1
    outer loop
      vertex 2.14331 -3.37731 -50
      vertex 1.5405 -2.42744 -50
      vertex 1.83259 -2.21523 -50
    endloop
  endfacet
  facet normal 0 0 -1
    outer loop
      vertex 1.22412 -2.60138 -50
      vertex 1.70312 -3.61931 -50
      vertex 1.23607 -3.80423 -50
    endloop
  endfacet
  facet normal 0 0 -1
    outer loop
      vertex 1.70312 -3.61931 -50
      vertex 1.22412 -2.60138 -50
      vertex 1.5405 -2.42744 -50
    endloop
  endfacet
  facet normal 0 0 -1
    outer loop
      vertex 1.23607 -3.80423 -50
      vertex 0.888423 -2.73429 -50
      vertex 1.22412 -2.60138 -50
    endloop
  endfacet
  facet normal 0 0 -1
    outer loop
      vertex 0.749525 -3.92915 -50
      vertex 0.888423 -2.73429 -50
      vertex 1.23607 -3.80423 -50
    endloop
  endfacet
  facet normal 0 0 -1
    outer loop
      vertex 0.749525 -3.92915 -50
      vertex 0.538721 -2.82408 -50
      vertex 0.888423 -2.73429 -50
    endloop
  endfacet
  facet normal 0 0 -1
    outer loop
      vertex 0.251162 -3.99211 -50
      vertex 0.538721 -2.82408 -50
      vertex 0.749525 -3.92915 -50
    endloop
  endfacet
  facet normal 0 0 -1
    outer loop
      vertex 0.251162 -3.99211 -50
      vertex 0.180522 -2.86933 -50
      vertex 0.538721 -2.82408 -50
    endloop
  endfacet
  facet normal 0 0 -1
    outer loop
      vertex 0.251162 -3.99211 -50
      vertex -0.180522 -2.86933 -50
      vertex 0.180522 -2.86933 -50
    endloop
  endfacet
  facet normal 0 0 -1
    outer loop
      vertex -0.251162 -3.99211 -50
      vertex -0.180522 -2.86933 -50
      vertex 0.251162 -3.99211 -50
    endloop
  endfacet
  facet normal 0 0 -1
    outer loop
      vertex -0.251162 -3.99211 -50
      vertex -0.538721 -2.82408 -50
      vertex -0.180522 -2.86933 -50
    endloop
  endfacet
  facet normal 0 0 -1
    outer loop
      vertex -0.749525 -3.92915 -50
      vertex -0.538721 -2.82408 -50
      vertex -0.251162 -3.99211 -50
    endloop
  endfacet
  facet normal 0 0 -1
    outer loop
      vertex -0.749525 -3.92915 -50
      vertex -0.888423 -2.73429 -50
      vertex -0.538721 -2.82408 -50
    endloop
  endfacet
  facet normal 0 0 -1
    outer loop
      vertex -1.23607 -3.80423 -50
      vertex -0.888423 -2.73429 -50
      vertex -0.749525 -3.92915 -50
    endloop
  endfacet
  facet normal -0 0 -1
    outer loop
      vertex -0.888423 -2.73429 -50
      vertex -1.23607 -3.80423 -50
      vertex -1.22412 -2.60138 -50
    endloop
  endfacet
  facet normal 0 0 -1
    outer loop
      vertex -1.70312 -3.61931 -50
      vertex -1.22412 -2.60138 -50
      vertex -1.23607 -3.80423 -50
    endloop
  endfacet
  facet normal -0 0 -1
    outer loop
      vertex -1.22412 -2.60138 -50
      vertex -1.70312 -3.61931 -50
      vertex -1.5405 -2.42744 -50
    endloop
  endfacet
  facet normal 0 0 -1
    outer loop
      vertex -2.14331 -3.37731 -50
      vertex -1.5405 -2.42744 -50
      vertex -1.70312 -3.61931 -50
    endloop
  endfacet
  facet normal -0 0 -1
    outer loop
      vertex -1.5405 -2.42744 -50
      vertex -2.14331 -3.37731 -50
      vertex -1.83259 -2.21523 -50
    endloop
  endfacet
  facet normal 0 0 -1
    outer loop
      vertex -2.5497 -3.08205 -50
      vertex -1.83259 -2.21523 -50
      vertex -2.14331 -3.37731 -50
    endloop
  endfacet
  facet normal -0 0 -1
    outer loop
      vertex -1.83259 -2.21523 -50
      vertex -2.5497 -3.08205 -50
      vertex -2.09578 -1.96807 -50
    endloop
  endfacet
  facet normal 0 0 -1
    outer loop
      vertex -2.91587 -2.73819 -50
      vertex -2.09578 -1.96807 -50
      vertex -2.5497 -3.08205 -50
    endloop
  endfacet
  facet normal -0 0 -1
    outer loop
      vertex -2.09578 -1.96807 -50
      vertex -2.91587 -2.73819 -50
      vertex -2.32592 -1.68988 -50
    endloop
  endfacet
  facet normal 0 0 -1
    outer loop
      vertex -3.23607 -2.35114 -50
      vertex -2.32592 -1.68988 -50
      vertex -2.91587 -2.73819 -50
    endloop
  endfacet
  facet normal -0 0 -1
    outer loop
      vertex -2.32592 -1.68988 -50
      vertex -3.23607 -2.35114 -50
      vertex -2.51938 -1.38504 -50
    endloop
  endfacet
  facet normal 0 0 -1
    outer loop
      vertex -3.50523 -1.92701 -50
      vertex -2.51938 -1.38504 -50
      vertex -3.23607 -2.35114 -50
    endloop
  endfacet
  facet normal 0 0 -1
    outer loop
      vertex -3.71911 -1.4725 -50
      vertex -2.67311 -1.05836 -50
      vertex -3.50523 -1.92701 -50
    endloop
  endfacet
  facet normal -0 0 -1
    outer loop
      vertex -2.51938 -1.38504 -50
      vertex -3.50523 -1.92701 -50
      vertex -2.67311 -1.05836 -50
    endloop
  endfacet
  facet normal -0 0 -1
    outer loop
      vertex 3.71911 1.4725 -50
      vertex 2.67311 1.05836 -50
      vertex 3.50523 1.92701 -50
    endloop
  endfacet
  facet normal 0 0 -1
    outer loop
      vertex 2.51938 1.38504 -50
      vertex 3.50523 1.92701 -50
      vertex 2.67311 1.05836 -50
    endloop
  endfacet
  facet normal -0 0 -1
    outer loop
      vertex 3.50523 1.92701 -50
      vertex 2.51938 1.38504 -50
      vertex 3.23607 2.35114 -50
    endloop
  endfacet
  facet normal 0 0 -1
    outer loop
      vertex 2.32592 1.68988 -50
      vertex 3.23607 2.35114 -50
      vertex 2.51938 1.38504 -50
    endloop
  endfacet
  facet normal -0 0 -1
    outer loop
      vertex 3.23607 2.35114 -50
      vertex 2.32592 1.68988 -50
      vertex 2.91587 2.73819 -50
    endloop
  endfacet
  facet normal 0 0 -1
    outer loop
      vertex 2.09578 1.96807 -50
      vertex 2.91587 2.73819 -50
      vertex 2.32592 1.68988 -50
    endloop
  endfacet
  facet normal -0 0 -1
    outer loop
      vertex 2.91587 2.73819 -50
      vertex 2.09578 1.96807 -50
      vertex 2.5497 3.08205 -50
    endloop
  endfacet
  facet normal 0 0 -1
    outer loop
      vertex 1.83259 2.21523 -50
      vertex 2.5497 3.08205 -50
      vertex 2.09578 1.96807 -50
    endloop
  endfacet
  facet normal -0 0 -1
    outer loop
      vertex 2.5497 3.08205 -50
      vertex 1.83259 2.21523 -50
      vertex 2.14331 3.37731 -50
    endloop
  endfacet
  facet normal 0 0 -1
    outer loop
      vertex 1.5405 2.42744 -50
      vertex 2.14331 3.37731 -50
      vertex 1.83259 2.21523 -50
    endloop
  endfacet
  facet normal -0 0 -1
    outer loop
      vertex 2.14331 3.37731 -50
      vertex 1.5405 2.42744 -50
      vertex 1.70312 3.61931 -50
    endloop
  endfacet
  facet normal 0 0 -1
    outer loop
      vertex 1.22412 2.60138 -50
      vertex 1.70312 3.61931 -50
      vertex 1.5405 2.42744 -50
    endloop
  endfacet
  facet normal -0 0 -1
    outer loop
      vertex 1.70312 3.61931 -50
      vertex 1.22412 2.60138 -50
      vertex 1.23607 3.80423 -50
    endloop
  endfacet
  facet normal 0 0 -1
    outer loop
      vertex 0.888423 2.73429 -50
      vertex 1.23607 3.80423 -50
      vertex 1.22412 2.60138 -50
    endloop
  endfacet
  facet normal 0 0 -1
    outer loop
      vertex 0.888423 2.73429 -50
      vertex 0.749525 3.92915 -50
      vertex 1.23607 3.80423 -50
    endloop
  endfacet
  facet normal 0 0 -1
    outer loop
      vertex 0.538721 2.82408 -50
      vertex 0.749525 3.92915 -50
      vertex 0.888423 2.73429 -50
    endloop
  endfacet
  facet normal 0 0 -1
    outer loop
      vertex 0.538721 2.82408 -50
      vertex 0.251162 3.99211 -50
      vertex 0.749525 3.92915 -50
    endloop
  endfacet
  facet normal 0 0 -1
    outer loop
      vertex 0.180522 2.86933 -50
      vertex 0.251162 3.99211 -50
      vertex 0.538721 2.82408 -50
    endloop
  endfacet
  facet normal 0 0 -1
    outer loop
      vertex -0.180522 2.86933 -50
      vertex 0.251162 3.99211 -50
      vertex 0.180522 2.86933 -50
    endloop
  endfacet
  facet normal 0 0 -1
    outer loop
      vertex -0.180522 2.86933 -50
      vertex -0.251162 3.99211 -50
      vertex 0.251162 3.99211 -50
    endloop
  endfacet
  facet normal 0 0 -1
    outer loop
      vertex -0.538721 2.82408 -50
      vertex -0.251162 3.99211 -50
      vertex -0.180522 2.86933 -50
    endloop
  endfacet
  facet normal 0 0 -1
    outer loop
      vertex -0.538721 2.82408 -50
      vertex -0.749525 3.92915 -50
      vertex -0.251162 3.99211 -50
    endloop
  endfacet
  facet normal 0 0 -1
    outer loop
      vertex -0.888423 2.73429 -50
      vertex -0.749525 3.92915 -50
      vertex -0.538721 2.82408 -50
    endloop
  endfacet
  facet normal 0 0 -1
    outer loop
      vertex -1.23607 3.80423 -50
      vertex -0.888423 2.73429 -50
      vertex -1.22412 2.60138 -50
    endloop
  endfacet
  facet normal 0 0 -1
    outer loop
      vertex -0.888423 2.73429 -50
      vertex -1.23607 3.80423 -50
      vertex -0.749525 3.92915 -50
    endloop
  endfacet
  facet normal 0 0 -1
    outer loop
      vertex -1.70312 3.61931 -50
      vertex -1.22412 2.60138 -50
      vertex -1.5405 2.42744 -50
    endloop
  endfacet
  facet normal 0 0 -1
    outer loop
      vertex -1.22412 2.60138 -50
      vertex -1.70312 3.61931 -50
      vertex -1.23607 3.80423 -50
    endloop
  endfacet
  facet normal 0 0 -1
    outer loop
      vertex -2.14331 3.37731 -50
      vertex -1.5405 2.42744 -50
      vertex -1.83259 2.21523 -50
    endloop
  endfacet
  facet normal 0 0 -1
    outer loop
      vertex -2.5497 3.08205 -50
      vertex -1.83259 2.21523 -50
      vertex -2.09578 1.96807 -50
    endloop
  endfacet
  facet normal 0 0 -1
    outer loop
      vertex -1.5405 2.42744 -50
      vertex -2.14331 3.37731 -50
      vertex -1.70312 3.61931 -50
    endloop
  endfacet
  facet normal 0 0 -1
    outer loop
      vertex -2.91587 2.73819 -50
      vertex -2.09578 1.96807 -50
      vertex -2.32592 1.68988 -50
    endloop
  endfacet
  facet normal 0 0 -1
    outer loop
      vertex -3.23607 2.35114 -50
      vertex -2.32592 1.68988 -50
      vertex -2.51938 1.38504 -50
    endloop
  endfacet
  facet normal 0 0 -1
    outer loop
      vertex -1.83259 2.21523 -50
      vertex -2.5497 3.08205 -50
      vertex -2.14331 3.37731 -50
    endloop
  endfacet
  facet normal 0 0 -1
    outer loop
      vertex -3.50523 1.92701 -50
      vertex -2.51938 1.38504 -50
      vertex -2.67311 1.05836 -50
    endloop
  endfacet
  facet normal 0 0 -1
    outer loop
      vertex -3.71911 1.4725 -50
      vertex -2.67311 1.05836 -50
      vertex -2.78468 0.714983 -50
    endloop
  endfacet
  facet normal 0 0 -1
    outer loop
      vertex -3.87433 0.994759 -50
      vertex -2.78468 0.714983 -50
      vertex -2.85233 0.360332 -50
    endloop
  endfacet
  facet normal 0 0 -1
    outer loop
      vertex -2.09578 1.96807 -50
      vertex -2.91587 2.73819 -50
      vertex -2.5497 3.08205 -50
    endloop
  endfacet
  facet normal 0 0 -1
    outer loop
      vertex -3.96846 0.501332 -50
      vertex -2.85233 0.360332 -50
      vertex -2.875 0 -50
    endloop
  endfacet
  facet normal -0 0 -1
    outer loop
      vertex -2.67311 -1.05836 -50
      vertex -3.71911 -1.4725 -50
      vertex -2.78468 -0.714983 -50
    endloop
  endfacet
  facet normal 0 0 -1
    outer loop
      vertex -3.87433 -0.994759 -50
      vertex -2.78468 -0.714983 -50
      vertex -3.71911 -1.4725 -50
    endloop
  endfacet
  facet normal 0 0 -1
    outer loop
      vertex -2.32592 1.68988 -50
      vertex -3.23607 2.35114 -50
      vertex -2.91587 2.73819 -50
    endloop
  endfacet
  facet normal -0 0 -1
    outer loop
      vertex -2.78468 -0.714983 -50
      vertex -3.87433 -0.994759 -50
      vertex -2.85233 -0.360332 -50
    endloop
  endfacet
  facet normal 0 0 -1
    outer loop
      vertex -2.51938 1.38504 -50
      vertex -3.50523 1.92701 -50
      vertex -3.23607 2.35114 -50
    endloop
  endfacet
  facet normal 0 0 -1
    outer loop
      vertex -3.96846 -0.501332 -50
      vertex -2.85233 -0.360332 -50
      vertex -3.87433 -0.994759 -50
    endloop
  endfacet
  facet normal 0 0 -1
    outer loop
      vertex -2.67311 1.05836 -50
      vertex -3.71911 1.4725 -50
      vertex -3.50523 1.92701 -50
    endloop
  endfacet
  facet normal -0 0 -1
    outer loop
      vertex -2.85233 -0.360332 -50
      vertex -3.96846 -0.501332 -50
      vertex -2.875 0 -50
    endloop
  endfacet
  facet normal 0 0 -1
    outer loop
      vertex -2.78468 0.714983 -50
      vertex -3.87433 0.994759 -50
      vertex -3.71911 1.4725 -50
    endloop
  endfacet
  facet normal 0 0 -1
    outer loop
      vertex -4 0 -50
      vertex -2.875 0 -50
      vertex -3.96846 -0.501332 -50
    endloop
  endfacet
  facet normal 0 0 -1
    outer loop
      vertex -2.85233 0.360332 -50
      vertex -3.96846 0.501332 -50
      vertex -3.87433 0.994759 -50
    endloop
  endfacet
  facet normal 0 0 -1
    outer loop
      vertex -2.875 0 -50
      vertex -4 0 -50
      vertex -3.96846 0.501332 -50
    endloop
  endfacet
  facet normal -0.759972 0.35763 0.542719
    outer loop
      vertex 2.51938 -1.38504 -3.9
      vertex 3.71911 -1.4725 -2.16238
      vertex 2.67311 -1.05836 -3.9
    endloop
  endfacet
  facet normal -0.759968 0.357642 0.542717
    outer loop
      vertex 3.71911 -1.4725 -2.16238
      vertex 2.51938 -1.38504 -3.9
      vertex 3.63387 -1.65363 -2.16238
    endloop
  endfacet
  facet normal -0.838257 -0.0527344 0.542719
    outer loop
      vertex 4 0 -2.16238
      vertex 3.98103 0.301544 -2.16238
      vertex 2.875 0 -3.9
    endloop
  endfacet
  facet normal -0.838257 -0.0527403 0.542719
    outer loop
      vertex 2.85233 0.360332 -3.9
      vertex 3.98103 0.301544 -2.16238
      vertex 3.96846 0.501332 -2.16238
    endloop
  endfacet
  facet normal -0.838257 -0.0527383 0.542719
    outer loop
      vertex 3.98103 0.301544 -2.16238
      vertex 2.85233 0.360332 -3.9
      vertex 2.875 0 -3.9
    endloop
  endfacet
  facet normal 0.75998 0.357611 0.54272
    outer loop
      vertex -3.50523 -1.92701 -2.16238
      vertex -2.51938 -1.38504 -3.9
      vertex -3.63387 -1.65363 -2.16238
    endloop
  endfacet
  facet normal -0.309174 0.780941 0.542718
    outer loop
      vertex 1.42219 -3.73053 -2.16238
      vertex 1.70312 -3.61931 -2.16238
      vertex 1.22412 -2.60138 -3.9
    endloop
  endfacet
  facet normal -0.838257 0.0527344 0.542719
    outer loop
      vertex 3.98103 -0.301544 -2.16238
      vertex 4 0 -2.16238
      vertex 2.875 0 -3.9
    endloop
  endfacet
  facet normal -0.825036 0.157396 0.542717
    outer loop
      vertex 2.78468 -0.714983 -3.9
      vertex 3.87433 -0.994759 -2.16238
      vertex 3.93095 -0.69797 -2.16238
    endloop
  endfacet
  facet normal -0.647161 0.535386 0.54272
    outer loop
      vertex 2.09578 -1.96807 -3.9
      vertex 2.91587 -2.73819 -2.16238
      vertex 3.10847 -2.50538 -2.16238
    endloop
  endfacet
  facet normal -0.75998 0.357611 0.54272
    outer loop
      vertex 3.50523 -1.92701 -2.16238
      vertex 3.63387 -1.65363 -2.16238
      vertex 2.51938 -1.38504 -3.9
    endloop
  endfacet
  facet normal -0.105271 0.833291 0.542719
    outer loop
      vertex 0.180522 -2.86933 -3.9
      vertex 0.251162 -3.99211 -2.16238
      vertex 0.449767 -3.96702 -2.16238
    endloop
  endfacet
  facet normal -0.105267 0.833292 0.542719
    outer loop
      vertex 0.180522 -2.86933 -3.9
      vertex 0.449767 -3.96702 -2.16238
      vertex 0.538721 -2.82408 -3.9
    endloop
  endfacet
  facet normal 0 0.839914 0.542719
    outer loop
      vertex 0.251162 -3.99211 -2.16238
      vertex 0.180522 -2.86933 -3.9
      vertex 0.251161 -3.99211 -2.16238
    endloop
  endfacet
  facet normal 0.208882 0.813527 0.542718
    outer loop
      vertex -0.749525 -3.92915 -2.16238
      vertex -0.538721 -2.82408 -3.9
      vertex -1.04217 -3.85401 -2.16238
    endloop
  endfacet
  facet normal 0.825038 0.157381 0.542719
    outer loop
      vertex -2.78468 -0.714983 -3.9
      vertex -3.96846 -0.501332 -2.16238
      vertex -3.93095 -0.69797 -2.16238
    endloop
  endfacet
  facet normal 0.825038 0.157377 0.542719
    outer loop
      vertex -3.96846 -0.501332 -2.16238
      vertex -2.78468 -0.714983 -3.9
      vertex -2.85233 -0.360332 -3.9
    endloop
  endfacet
  facet normal 0.709169 -0.450038 0.542721
    outer loop
      vertex -3.34333 2.18212 -2.16238
      vertex -2.32592 1.68988 -3.9
      vertex -3.23607 2.35114 -2.16238
    endloop
  endfacet
  facet normal 0.70916 -0.450053 0.54272
    outer loop
      vertex -2.32592 1.68988 -3.9
      vertex -3.34333 2.18212 -2.16238
      vertex -2.51938 1.38504 -3.9
    endloop
  endfacet
  facet normal -0.49368 -0.679512 0.542719
    outer loop
      vertex 1.83259 2.21523 -3.9
      vertex 2.38774 3.19972 -2.16238
      vertex 1.5405 2.42744 -3.9
    endloop
  endfacet
  facet normal -0.493687 -0.679507 0.542718
    outer loop
      vertex 2.38774 3.19972 -2.16238
      vertex 1.83259 2.21523 -3.9
      vertex 2.5497 3.08205 -2.16238
    endloop
  endfacet
  facet normal -0.798812 0.259533 0.542717
    outer loop
      vertex 3.78097 -1.28211 -2.16238
      vertex 3.87433 -0.994759 -2.16238
      vertex 2.78468 -0.714983 -3.9
    endloop
  endfacet
  facet normal -0.798806 0.259548 0.542719
    outer loop
      vertex 2.67311 -1.05836 -3.9
      vertex 3.78097 -1.28211 -2.16238
      vertex 2.78468 -0.714983 -3.9
    endloop
  endfacet
  facet normal -0.798808 0.259542 0.542719
    outer loop
      vertex 3.78097 -1.28211 -2.16238
      vertex 2.67311 -1.05836 -3.9
      vertex 3.71911 -1.4725 -2.16238
    endloop
  endfacet
  facet normal -0.70916 0.450053 0.54272
    outer loop
      vertex 3.50523 -1.92701 -2.16238
      vertex 2.51938 -1.38504 -3.9
      vertex 3.34333 -2.18212 -2.16238
    endloop
  endfacet
  facet normal -0.647163 0.535383 0.542721
    outer loop
      vertex 2.09578 -1.96807 -3.9
      vertex 3.23607 -2.35114 -2.16238
      vertex 2.32592 -1.68988 -3.9
    endloop
  endfacet
  facet normal -0.647161 0.535385 0.54272
    outer loop
      vertex 3.23607 -2.35114 -2.16238
      vertex 2.09578 -1.96807 -3.9
      vertex 3.10847 -2.50538 -2.16238
    endloop
  endfacet
  facet normal -0.404647 0.736015 0.542718
    outer loop
      vertex 1.70312 -3.61931 -2.16238
      vertex 1.96788 -3.47375 -2.16238
      vertex 1.22412 -2.60138 -3.9
    endloop
  endfacet
  facet normal 0.49368 0.679512 0.542719
    outer loop
      vertex -1.83259 -2.21523 -3.9
      vertex -2.38774 -3.19972 -2.16238
      vertex -1.5405 -2.42744 -3.9
    endloop
  endfacet
  facet normal 0.493687 0.679507 0.542718
    outer loop
      vertex -2.38774 -3.19972 -2.16238
      vertex -1.83259 -2.21523 -3.9
      vertex -2.5497 -3.08205 -2.16238
    endloop
  endfacet
  facet normal 0.70916 0.450053 0.54272
    outer loop
      vertex -2.51938 -1.38504 -3.9
      vertex -3.50523 -1.92701 -2.16238
      vertex -3.34333 -2.18212 -2.16238
    endloop
  endfacet
  facet normal 0.309189 0.780934 0.54272
    outer loop
      vertex -1.22412 -2.60138 -3.9
      vertex -1.23607 -3.80423 -2.16238
      vertex -0.888423 -2.73429 -3.9
    endloop
  endfacet
  facet normal 0.309231 0.780922 0.542712
    outer loop
      vertex -1.23607 -3.80423 -2.16238
      vertex -1.22412 -2.60138 -3.9
      vertex -1.42219 -3.73053 -2.16238
    endloop
  endfacet
  facet normal 0.309174 -0.780941 0.542718
    outer loop
      vertex -1.42219 3.73053 -2.16238
      vertex -1.70312 3.61931 -2.16238
      vertex -1.22412 2.60138 -3.9
    endloop
  endfacet
  facet normal 0.825036 -0.157396 0.542717
    outer loop
      vertex -2.78468 0.714983 -3.9
      vertex -3.87433 0.994759 -2.16238
      vertex -3.93095 0.69797 -2.16238
    endloop
  endfacet
  facet normal -0.75998 -0.357611 0.54272
    outer loop
      vertex 3.63387 1.65363 -2.16238
      vertex 3.50523 1.92701 -2.16238
      vertex 2.51938 1.38504 -3.9
    endloop
  endfacet
  facet normal -0.825038 0.157377 0.542719
    outer loop
      vertex 2.78468 -0.714983 -3.9
      vertex 3.96846 -0.501332 -2.16238
      vertex 2.85233 -0.360332 -3.9
    endloop
  endfacet
  facet normal -0.825038 0.157381 0.542719
    outer loop
      vertex 3.96846 -0.501332 -2.16238
      vertex 2.78468 -0.714983 -3.9
      vertex 3.93095 -0.69797 -2.16238
    endloop
  endfacet
  facet normal -0.70916 0.450053 0.54272
    outer loop
      vertex 2.32592 -1.68988 -3.9
      vertex 3.34333 -2.18212 -2.16238
      vertex 2.51938 -1.38504 -3.9
    endloop
  endfacet
  facet normal -0.709169 0.450038 0.542721
    outer loop
      vertex 3.34333 -2.18212 -2.16238
      vertex 2.32592 -1.68988 -3.9
      vertex 3.23607 -2.35114 -2.16238
    endloop
  endfacet
  facet normal -0.208882 0.813527 0.542718
    outer loop
      vertex 0.749525 -3.92915 -2.16238
      vertex 1.04217 -3.85401 -2.16238
      vertex 0.538721 -2.82408 -3.9
    endloop
  endfacet
  facet normal -0.105274 0.833291 0.542718
    outer loop
      vertex 0.749525 -3.92915 -2.16238
      vertex 0.538721 -2.82408 -3.9
      vertex 0.449767 -3.96702 -2.16238
    endloop
  endfacet
  facet normal -0.40462 0.736028 0.54272
    outer loop
      vertex 1.5405 -2.42744 -3.9
      vertex 1.96788 -3.47375 -2.16238
      vertex 2.14331 -3.37731 -2.16238
    endloop
  endfacet
  facet normal -0.404648 0.736015 0.542718
    outer loop
      vertex 1.96788 -3.47375 -2.16238
      vertex 1.5405 -2.42744 -3.9
      vertex 1.22412 -2.60138 -3.9
    endloop
  endfacet
  facet normal -0.574965 0.612266 0.54272
    outer loop
      vertex 2.09578 -1.96807 -3.9
      vertex 2.76995 -2.87522 -2.16238
      vertex 2.91587 -2.73819 -2.16238
    endloop
  endfacet
  facet normal -0.574971 0.612261 0.54272
    outer loop
      vertex 2.76995 -2.87522 -2.16238
      vertex 2.09578 -1.96807 -3.9
      vertex 1.83259 -2.21523 -3.9
    endloop
  endfacet
  facet normal 0.798812 0.259533 0.542717
    outer loop
      vertex -3.78097 -1.28211 -2.16238
      vertex -2.78468 -0.714983 -3.9
      vertex -3.87433 -0.994759 -2.16238
    endloop
  endfacet
  facet normal 0.825036 0.157396 0.542717
    outer loop
      vertex -3.87433 -0.994759 -2.16238
      vertex -2.78468 -0.714983 -3.9
      vertex -3.93095 -0.69797 -2.16238
    endloop
  endfacet
  facet normal 0.70916 0.450053 0.54272
    outer loop
      vertex -3.34333 -2.18212 -2.16238
      vertex -2.32592 -1.68988 -3.9
      vertex -2.51938 -1.38504 -3.9
    endloop
  endfacet
  facet normal 0.709169 0.450038 0.542721
    outer loop
      vertex -2.32592 -1.68988 -3.9
      vertex -3.34333 -2.18212 -2.16238
      vertex -3.23607 -2.35114 -2.16238
    endloop
  endfacet
  facet normal 0.574963 0.612269 0.542719
    outer loop
      vertex -2.5497 -3.08205 -2.16238
      vertex -1.83259 -2.21523 -3.9
      vertex -2.76995 -2.87522 -2.16238
    endloop
  endfacet
  facet normal 0.404648 0.736015 0.542718
    outer loop
      vertex -1.5405 -2.42744 -3.9
      vertex -1.96788 -3.47375 -2.16238
      vertex -1.22412 -2.60138 -3.9
    endloop
  endfacet
  facet normal 0.40462 0.736028 0.54272
    outer loop
      vertex -1.96788 -3.47375 -2.16238
      vertex -1.5405 -2.42744 -3.9
      vertex -2.14331 -3.37731 -2.16238
    endloop
  endfacet
  facet normal 0.208858 -0.813532 0.542719
    outer loop
      vertex -0.888423 2.73429 -3.9
      vertex -1.04217 3.85401 -2.16238
      vertex -1.23607 3.80423 -2.16238
    endloop
  endfacet
  facet normal 0.208882 -0.813527 0.542718
    outer loop
      vertex -1.04217 3.85401 -2.16238
      vertex -0.888423 2.73429 -3.9
      vertex -0.538721 2.82408 -3.9
    endloop
  endfacet
  facet normal 0.825038 -0.157381 0.542719
    outer loop
      vertex -3.96846 0.501332 -2.16238
      vertex -2.78468 0.714983 -3.9
      vertex -3.93095 0.69797 -2.16238
    endloop
  endfacet
  facet normal 0.825038 -0.157377 0.542719
    outer loop
      vertex -2.78468 0.714983 -3.9
      vertex -3.96846 0.501332 -2.16238
      vertex -2.85233 0.360332 -3.9
    endloop
  endfacet
  facet normal -0.825038 -0.157381 0.542719
    outer loop
      vertex 2.78468 0.714983 -3.9
      vertex 3.96846 0.501332 -2.16238
      vertex 3.93095 0.69797 -2.16238
    endloop
  endfacet
  facet normal -0.825038 -0.157377 0.542719
    outer loop
      vertex 3.96846 0.501332 -2.16238
      vertex 2.78468 0.714983 -3.9
      vertex 2.85233 0.360332 -3.9
    endloop
  endfacet
  facet normal 0 -0.839914 0.542719
    outer loop
      vertex 0.180522 2.86933 -3.9
      vertex 0.251162 3.99211 -2.16238
      vertex 0.251161 3.99211 -2.16238
    endloop
  endfacet
  facet normal -0.105271 -0.833291 0.542719
    outer loop
      vertex 0.251162 3.99211 -2.16238
      vertex 0.180522 2.86933 -3.9
      vertex 0.449767 3.96702 -2.16238
    endloop
  endfacet
  facet normal -0.105267 -0.833292 0.542719
    outer loop
      vertex 0.449767 3.96702 -2.16238
      vertex 0.180522 2.86933 -3.9
      vertex 0.538721 2.82408 -3.9
    endloop
  endfacet
  facet normal -0.838257 0.0527383 0.542719
    outer loop
      vertex 2.85233 -0.360332 -3.9
      vertex 3.98103 -0.301544 -2.16238
      vertex 2.875 0 -3.9
    endloop
  endfacet
  facet normal -0.838257 0.0527403 0.542719
    outer loop
      vertex 2.85233 -0.360332 -3.9
      vertex 3.96846 -0.501332 -2.16238
      vertex 3.98103 -0.301544 -2.16238
    endloop
  endfacet
  facet normal -0.208858 0.813532 0.542719
    outer loop
      vertex 0.888423 -2.73429 -3.9
      vertex 1.04217 -3.85401 -2.16238
      vertex 1.23607 -3.80423 -2.16238
    endloop
  endfacet
  facet normal -0.208882 0.813527 0.542718
    outer loop
      vertex 1.04217 -3.85401 -2.16238
      vertex 0.888423 -2.73429 -3.9
      vertex 0.538721 -2.82408 -3.9
    endloop
  endfacet
  facet normal -0.493691 0.679503 0.54272
    outer loop
      vertex 1.5405 -2.42744 -3.9
      vertex 2.14331 -3.37731 -2.16238
      vertex 2.38774 -3.19972 -2.16238
    endloop
  endfacet
  facet normal -0.574963 0.612269 0.542719
    outer loop
      vertex 2.5497 -3.08205 -2.16238
      vertex 2.76995 -2.87522 -2.16238
      vertex 1.83259 -2.21523 -3.9
    endloop
  endfacet
  facet normal -0.493687 0.679507 0.542718
    outer loop
      vertex 1.83259 -2.21523 -3.9
      vertex 2.38774 -3.19972 -2.16238
      vertex 2.5497 -3.08205 -2.16238
    endloop
  endfacet
  facet normal -0.49368 0.679512 0.542719
    outer loop
      vertex 2.38774 -3.19972 -2.16238
      vertex 1.83259 -2.21523 -3.9
      vertex 1.5405 -2.42744 -3.9
    endloop
  endfacet
  facet normal 0.798806 0.259548 0.542719
    outer loop
      vertex -3.78097 -1.28211 -2.16238
      vertex -2.67311 -1.05836 -3.9
      vertex -2.78468 -0.714983 -3.9
    endloop
  endfacet
  facet normal 0.798808 0.259542 0.542719
    outer loop
      vertex -2.67311 -1.05836 -3.9
      vertex -3.78097 -1.28211 -2.16238
      vertex -3.71911 -1.4725 -2.16238
    endloop
  endfacet
  facet normal 0.574971 0.612261 0.54272
    outer loop
      vertex -2.09578 -1.96807 -3.9
      vertex -2.76995 -2.87522 -2.16238
      vertex -1.83259 -2.21523 -3.9
    endloop
  endfacet
  facet normal 0.574965 0.612266 0.54272
    outer loop
      vertex -2.76995 -2.87522 -2.16238
      vertex -2.09578 -1.96807 -3.9
      vertex -2.91587 -2.73819 -2.16238
    endloop
  endfacet
  facet normal 0 0.839914 0.542719
    outer loop
      vertex 0.180522 -2.86933 -3.9
      vertex -0.251161 -3.99211 -2.16238
      vertex 0.251161 -3.99211 -2.16238
    endloop
  endfacet
  facet normal 0 0.839914 0.542719
    outer loop
      vertex -0.251161 -3.99211 -2.16238
      vertex 0.180522 -2.86933 -3.9
      vertex -0.180522 -2.86933 -3.9
    endloop
  endfacet
  facet normal 0.309174 0.780941 0.542718
    outer loop
      vertex -1.22412 -2.60138 -3.9
      vertex -1.70312 -3.61931 -2.16238
      vertex -1.42219 -3.73053 -2.16238
    endloop
  endfacet
  facet normal 0.404647 0.736015 0.542718
    outer loop
      vertex -1.70312 -3.61931 -2.16238
      vertex -1.22412 -2.60138 -3.9
      vertex -1.96788 -3.47375 -2.16238
    endloop
  endfacet
  facet normal 0.493691 0.679503 0.54272
    outer loop
      vertex -2.14331 -3.37731 -2.16238
      vertex -1.5405 -2.42744 -3.9
      vertex -2.38774 -3.19972 -2.16238
    endloop
  endfacet
  facet normal 0.105274 -0.833291 0.542718
    outer loop
      vertex -0.538721 2.82408 -3.9
      vertex -0.449767 3.96702 -2.16238
      vertex -0.749525 3.92915 -2.16238
    endloop
  endfacet
  facet normal 0.208882 -0.813527 0.542718
    outer loop
      vertex -0.538721 2.82408 -3.9
      vertex -0.749525 3.92915 -2.16238
      vertex -1.04217 3.85401 -2.16238
    endloop
  endfacet
  facet normal 0.647161 -0.535386 0.54272
    outer loop
      vertex -2.09578 1.96807 -3.9
      vertex -2.91587 2.73819 -2.16238
      vertex -3.10847 2.50538 -2.16238
    endloop
  endfacet
  facet normal 0.404647 -0.736015 0.542718
    outer loop
      vertex -1.22412 2.60138 -3.9
      vertex -1.70312 3.61931 -2.16238
      vertex -1.96788 3.47375 -2.16238
    endloop
  endfacet
  facet normal 0.574963 -0.612269 0.542719
    outer loop
      vertex -1.83259 2.21523 -3.9
      vertex -2.5497 3.08205 -2.16238
      vertex -2.76995 2.87522 -2.16238
    endloop
  endfacet
  facet normal 0.574965 -0.612266 0.54272
    outer loop
      vertex -2.09578 1.96807 -3.9
      vertex -2.76995 2.87522 -2.16238
      vertex -2.91587 2.73819 -2.16238
    endloop
  endfacet
  facet normal 0.574971 -0.612261 0.54272
    outer loop
      vertex -2.76995 2.87522 -2.16238
      vertex -2.09578 1.96807 -3.9
      vertex -1.83259 2.21523 -3.9
    endloop
  endfacet
  facet normal 0.838257 0.0527383 0.542719
    outer loop
      vertex -3.98103 -0.301544 -2.16238
      vertex -2.85233 -0.360332 -3.9
      vertex -2.875 0 -3.9
    endloop
  endfacet
  facet normal 0.838257 0.0527403 0.542719
    outer loop
      vertex -3.96846 -0.501332 -2.16238
      vertex -2.85233 -0.360332 -3.9
      vertex -3.98103 -0.301544 -2.16238
    endloop
  endfacet
  facet normal 0.798812 -0.259533 0.542717
    outer loop
      vertex -2.78468 0.714983 -3.9
      vertex -3.78097 1.28211 -2.16238
      vertex -3.87433 0.994759 -2.16238
    endloop
  endfacet
  facet normal 0.759968 -0.357642 0.542717
    outer loop
      vertex -3.71911 1.4725 -2.16238
      vertex -2.51938 1.38504 -3.9
      vertex -3.63387 1.65363 -2.16238
    endloop
  endfacet
  facet normal 0.759972 -0.35763 0.542719
    outer loop
      vertex -2.51938 1.38504 -3.9
      vertex -3.71911 1.4725 -2.16238
      vertex -2.67311 1.05836 -3.9
    endloop
  endfacet
  facet normal -0.798812 -0.259533 0.542717
    outer loop
      vertex 3.87433 0.994759 -2.16238
      vertex 3.78097 1.28211 -2.16238
      vertex 2.78468 0.714983 -3.9
    endloop
  endfacet
  facet normal -0.825036 -0.157396 0.542717
    outer loop
      vertex 3.87433 0.994759 -2.16238
      vertex 2.78468 0.714983 -3.9
      vertex 3.93095 0.69797 -2.16238
    endloop
  endfacet
  facet normal -0.574971 -0.612261 0.54272
    outer loop
      vertex 2.09578 1.96807 -3.9
      vertex 2.76995 2.87522 -2.16238
      vertex 1.83259 2.21523 -3.9
    endloop
  endfacet
  facet normal -0.574965 -0.612266 0.54272
    outer loop
      vertex 2.76995 2.87522 -2.16238
      vertex 2.09578 1.96807 -3.9
      vertex 2.91587 2.73819 -2.16238
    endloop
  endfacet
  facet normal -0.709169 -0.450038 0.542721
    outer loop
      vertex 2.32592 1.68988 -3.9
      vertex 3.34333 2.18212 -2.16238
      vertex 3.23607 2.35114 -2.16238
    endloop
  endfacet
  facet normal -0.70916 -0.450053 0.54272
    outer loop
      vertex 3.34333 2.18212 -2.16238
      vertex 2.32592 1.68988 -3.9
      vertex 2.51938 1.38504 -3.9
    endloop
  endfacet
  facet normal -0.70916 -0.450053 0.54272
    outer loop
      vertex 2.51938 1.38504 -3.9
      vertex 3.50523 1.92701 -2.16238
      vertex 3.34333 2.18212 -2.16238
    endloop
  endfacet
  facet normal -0.404647 -0.736015 0.542718
    outer loop
      vertex 1.96788 3.47375 -2.16238
      vertex 1.70312 3.61931 -2.16238
      vertex 1.22412 2.60138 -3.9
    endloop
  endfacet
  facet normal -0.208882 -0.813527 0.542718
    outer loop
      vertex 1.04217 3.85401 -2.16238
      vertex 0.749525 3.92915 -2.16238
      vertex 0.538721 2.82408 -3.9
    endloop
  endfacet
  facet normal 0.105271 -0.833291 0.542719
    outer loop
      vertex -0.180522 2.86933 -3.9
      vertex -0.251162 3.99211 -2.16238
      vertex -0.449767 3.96702 -2.16238
    endloop
  endfacet
  facet normal 0.105267 -0.833292 0.542719
    outer loop
      vertex -0.180522 2.86933 -3.9
      vertex -0.449767 3.96702 -2.16238
      vertex -0.538721 2.82408 -3.9
    endloop
  endfacet
  facet normal 0 -0.839914 0.542719
    outer loop
      vertex -0.251162 3.99211 -2.16238
      vertex -0.180522 2.86933 -3.9
      vertex -0.251161 3.99211 -2.16238
    endloop
  endfacet
  facet normal 0 -0.839914 0.542719
    outer loop
      vertex -0.180522 2.86933 -3.9
      vertex 0.251161 3.99211 -2.16238
      vertex -0.251161 3.99211 -2.16238
    endloop
  endfacet
  facet normal 0 -0.839914 0.542719
    outer loop
      vertex 0.251161 3.99211 -2.16238
      vertex -0.180522 2.86933 -3.9
      vertex 0.180522 2.86933 -3.9
    endloop
  endfacet
  facet normal -0.309231 0.780922 0.542712
    outer loop
      vertex 1.22412 -2.60138 -3.9
      vertex 1.23607 -3.80423 -2.16238
      vertex 1.42219 -3.73053 -2.16238
    endloop
  endfacet
  facet normal -0.309189 0.780934 0.54272
    outer loop
      vertex 1.23607 -3.80423 -2.16238
      vertex 1.22412 -2.60138 -3.9
      vertex 0.888423 -2.73429 -3.9
    endloop
  endfacet
  facet normal 0.759972 0.35763 0.542719
    outer loop
      vertex -3.71911 -1.4725 -2.16238
      vertex -2.51938 -1.38504 -3.9
      vertex -2.67311 -1.05836 -3.9
    endloop
  endfacet
  facet normal 0.759968 0.357642 0.542717
    outer loop
      vertex -2.51938 -1.38504 -3.9
      vertex -3.71911 -1.4725 -2.16238
      vertex -3.63387 -1.65363 -2.16238
    endloop
  endfacet
  facet normal 0.647161 0.535386 0.54272
    outer loop
      vertex -2.91587 -2.73819 -2.16238
      vertex -2.09578 -1.96807 -3.9
      vertex -3.10847 -2.50538 -2.16238
    endloop
  endfacet
  facet normal 0.647163 0.535383 0.542721
    outer loop
      vertex -3.23607 -2.35114 -2.16238
      vertex -2.09578 -1.96807 -3.9
      vertex -2.32592 -1.68988 -3.9
    endloop
  endfacet
  facet normal 0.647161 0.535385 0.54272
    outer loop
      vertex -2.09578 -1.96807 -3.9
      vertex -3.23607 -2.35114 -2.16238
      vertex -3.10847 -2.50538 -2.16238
    endloop
  endfacet
  facet normal 0.105274 0.833291 0.542718
    outer loop
      vertex -0.449767 -3.96702 -2.16238
      vertex -0.538721 -2.82408 -3.9
      vertex -0.749525 -3.92915 -2.16238
    endloop
  endfacet
  facet normal 0 0.839914 0.542719
    outer loop
      vertex -0.180522 -2.86933 -3.9
      vertex -0.251162 -3.99211 -2.16238
      vertex -0.251161 -3.99211 -2.16238
    endloop
  endfacet
  facet normal 0.105271 0.833291 0.542719
    outer loop
      vertex -0.251162 -3.99211 -2.16238
      vertex -0.180522 -2.86933 -3.9
      vertex -0.449767 -3.96702 -2.16238
    endloop
  endfacet
  facet normal 0.105267 0.833292 0.542719
    outer loop
      vertex -0.449767 -3.96702 -2.16238
      vertex -0.180522 -2.86933 -3.9
      vertex -0.538721 -2.82408 -3.9
    endloop
  endfacet
  facet normal 0.208882 0.813527 0.542718
    outer loop
      vertex -0.888423 -2.73429 -3.9
      vertex -1.04217 -3.85401 -2.16238
      vertex -0.538721 -2.82408 -3.9
    endloop
  endfacet
  facet normal 0.208858 0.813532 0.542719
    outer loop
      vertex -1.04217 -3.85401 -2.16238
      vertex -0.888423 -2.73429 -3.9
      vertex -1.23607 -3.80423 -2.16238
    endloop
  endfacet
  facet normal 0.40462 -0.736028 0.54272
    outer loop
      vertex -1.5405 2.42744 -3.9
      vertex -1.96788 3.47375 -2.16238
      vertex -2.14331 3.37731 -2.16238
    endloop
  endfacet
  facet normal 0.404648 -0.736015 0.542718
    outer loop
      vertex -1.96788 3.47375 -2.16238
      vertex -1.5405 2.42744 -3.9
      vertex -1.22412 2.60138 -3.9
    endloop
  endfacet
  facet normal 0.493691 -0.679503 0.54272
    outer loop
      vertex -1.5405 2.42744 -3.9
      vertex -2.14331 3.37731 -2.16238
      vertex -2.38774 3.19972 -2.16238
    endloop
  endfacet
  facet normal 0.493687 -0.679507 0.542718
    outer loop
      vertex -1.83259 2.21523 -3.9
      vertex -2.38774 3.19972 -2.16238
      vertex -2.5497 3.08205 -2.16238
    endloop
  endfacet
  facet normal 0.49368 -0.679512 0.542719
    outer loop
      vertex -2.38774 3.19972 -2.16238
      vertex -1.83259 2.21523 -3.9
      vertex -1.5405 2.42744 -3.9
    endloop
  endfacet
  facet normal 0.75998 -0.357611 0.54272
    outer loop
      vertex -2.51938 1.38504 -3.9
      vertex -3.50523 1.92701 -2.16238
      vertex -3.63387 1.65363 -2.16238
    endloop
  endfacet
  facet normal 0.70916 -0.450053 0.54272
    outer loop
      vertex -3.50523 1.92701 -2.16238
      vertex -2.51938 1.38504 -3.9
      vertex -3.34333 2.18212 -2.16238
    endloop
  endfacet
  facet normal 0.838257 0.0527344 0.542719
    outer loop
      vertex -3.98103 -0.301544 -2.16238
      vertex -2.875 0 -3.9
      vertex -4 0 -2.16238
    endloop
  endfacet
  facet normal 0.838257 -0.0527344 0.542719
    outer loop
      vertex -2.875 0 -3.9
      vertex -3.98103 0.301544 -2.16238
      vertex -4 0 -2.16238
    endloop
  endfacet
  facet normal 0.838257 -0.0527403 0.542719
    outer loop
      vertex -3.98103 0.301544 -2.16238
      vertex -2.85233 0.360332 -3.9
      vertex -3.96846 0.501332 -2.16238
    endloop
  endfacet
  facet normal 0.838257 -0.0527383 0.542719
    outer loop
      vertex -2.85233 0.360332 -3.9
      vertex -3.98103 0.301544 -2.16238
      vertex -2.875 0 -3.9
    endloop
  endfacet
  facet normal -0.798808 -0.259542 0.542719
    outer loop
      vertex 2.67311 1.05836 -3.9
      vertex 3.78097 1.28211 -2.16238
      vertex 3.71911 1.4725 -2.16238
    endloop
  endfacet
  facet normal -0.798806 -0.259548 0.542719
    outer loop
      vertex 3.78097 1.28211 -2.16238
      vertex 2.67311 1.05836 -3.9
      vertex 2.78468 0.714983 -3.9
    endloop
  endfacet
  facet normal -0.647161 -0.535386 0.54272
    outer loop
      vertex 2.91587 2.73819 -2.16238
      vertex 2.09578 1.96807 -3.9
      vertex 3.10847 2.50538 -2.16238
    endloop
  endfacet
  facet normal -0.574963 -0.612269 0.542719
    outer loop
      vertex 2.76995 2.87522 -2.16238
      vertex 2.5497 3.08205 -2.16238
      vertex 1.83259 2.21523 -3.9
    endloop
  endfacet
  facet normal -0.404648 -0.736015 0.542718
    outer loop
      vertex 1.5405 2.42744 -3.9
      vertex 1.96788 3.47375 -2.16238
      vertex 1.22412 2.60138 -3.9
    endloop
  endfacet
  facet normal -0.40462 -0.736028 0.54272
    outer loop
      vertex 1.96788 3.47375 -2.16238
      vertex 1.5405 2.42744 -3.9
      vertex 2.14331 3.37731 -2.16238
    endloop
  endfacet
  facet normal -0.493691 -0.679503 0.54272
    outer loop
      vertex 2.14331 3.37731 -2.16238
      vertex 1.5405 2.42744 -3.9
      vertex 2.38774 3.19972 -2.16238
    endloop
  endfacet
  facet normal -0.105274 -0.833291 0.542718
    outer loop
      vertex 0.538721 2.82408 -3.9
      vertex 0.749525 3.92915 -2.16238
      vertex 0.449767 3.96702 -2.16238
    endloop
  endfacet
  facet normal -0.208882 -0.813527 0.542718
    outer loop
      vertex 0.888423 2.73429 -3.9
      vertex 1.04217 3.85401 -2.16238
      vertex 0.538721 2.82408 -3.9
    endloop
  endfacet
  facet normal -0.208858 -0.813532 0.542719
    outer loop
      vertex 1.04217 3.85401 -2.16238
      vertex 0.888423 2.73429 -3.9
      vertex 1.23607 3.80423 -2.16238
    endloop
  endfacet
  facet normal 0.309231 -0.780922 0.542712
    outer loop
      vertex -1.22412 2.60138 -3.9
      vertex -1.23607 3.80423 -2.16238
      vertex -1.42219 3.73053 -2.16238
    endloop
  endfacet
  facet normal 0.309189 -0.780934 0.54272
    outer loop
      vertex -1.23607 3.80423 -2.16238
      vertex -1.22412 2.60138 -3.9
      vertex -0.888423 2.73429 -3.9
    endloop
  endfacet
  facet normal 0.647161 -0.535385 0.54272
    outer loop
      vertex -3.23607 2.35114 -2.16238
      vertex -2.09578 1.96807 -3.9
      vertex -3.10847 2.50538 -2.16238
    endloop
  endfacet
  facet normal 0.647163 -0.535383 0.542721
    outer loop
      vertex -2.09578 1.96807 -3.9
      vertex -3.23607 2.35114 -2.16238
      vertex -2.32592 1.68988 -3.9
    endloop
  endfacet
  facet normal 0.798808 -0.259542 0.542719
    outer loop
      vertex -3.78097 1.28211 -2.16238
      vertex -2.67311 1.05836 -3.9
      vertex -3.71911 1.4725 -2.16238
    endloop
  endfacet
  facet normal 0.798806 -0.259548 0.542719
    outer loop
      vertex -2.67311 1.05836 -3.9
      vertex -3.78097 1.28211 -2.16238
      vertex -2.78468 0.714983 -3.9
    endloop
  endfacet
  facet normal -0.759968 -0.357642 0.542717
    outer loop
      vertex 2.51938 1.38504 -3.9
      vertex 3.71911 1.4725 -2.16238
      vertex 3.63387 1.65363 -2.16238
    endloop
  endfacet
  facet normal -0.759972 -0.35763 0.542719
    outer loop
      vertex 3.71911 1.4725 -2.16238
      vertex 2.51938 1.38504 -3.9
      vertex 2.67311 1.05836 -3.9
    endloop
  endfacet
  facet normal -0.647161 -0.535385 0.54272
    outer loop
      vertex 2.09578 1.96807 -3.9
      vertex 3.23607 2.35114 -2.16238
      vertex 3.10847 2.50538 -2.16238
    endloop
  endfacet
  facet normal -0.647163 -0.535383 0.542721
    outer loop
      vertex 3.23607 2.35114 -2.16238
      vertex 2.09578 1.96807 -3.9
      vertex 2.32592 1.68988 -3.9
    endloop
  endfacet
  facet normal -0.309189 -0.780934 0.54272
    outer loop
      vertex 1.22412 2.60138 -3.9
      vertex 1.23607 3.80423 -2.16238
      vertex 0.888423 2.73429 -3.9
    endloop
  endfacet
  facet normal -0.309231 -0.780922 0.542712
    outer loop
      vertex 1.23607 3.80423 -2.16238
      vertex 1.22412 2.60138 -3.9
      vertex 1.42219 3.73053 -2.16238
    endloop
  endfacet
  facet normal -0.309174 -0.780941 0.542718
    outer loop
      vertex 1.22412 2.60138 -3.9
      vertex 1.70312 3.61931 -2.16238
      vertex 1.42219 3.73053 -2.16238
    endloop
  endfacet
  facet normal 0.951056 -0.309017 0
    outer loop
      vertex -2.78468 0.714983 -3.9
      vertex -2.67311 1.05836 -50
      vertex -2.67311 1.05836 -3.9
    endloop
  endfacet
  facet normal 0.951056 -0.309017 0
    outer loop
      vertex -2.67311 1.05836 -50
      vertex -2.78468 0.714983 -3.9
      vertex -2.78468 0.714983 -50
    endloop
  endfacet
  facet normal -0.844325 -0.535832 0
    outer loop
      vertex 2.51938 1.38504 -50
      vertex 2.32592 1.68988 -3.9
      vertex 2.32592 1.68988 -50
    endloop
  endfacet
  facet normal -0.844325 -0.535832 0
    outer loop
      vertex 2.32592 1.68988 -3.9
      vertex 2.51938 1.38504 -50
      vertex 2.51938 1.38504 -3.9
    endloop
  endfacet
  facet normal -0.36812 -0.929778 0
    outer loop
      vertex 0.888423 2.73429 -50
      vertex 1.22412 2.60138 -3.9
      vertex 0.888423 2.73429 -3.9
    endloop
  endfacet
  facet normal -0.36812 -0.929778 -0
    outer loop
      vertex 1.22412 2.60138 -3.9
      vertex 0.888423 2.73429 -50
      vertex 1.22412 2.60138 -50
    endloop
  endfacet
  facet normal 0.36812 -0.929778 0
    outer loop
      vertex -1.22412 2.60138 -50
      vertex -0.888423 2.73429 -3.9
      vertex -1.22412 2.60138 -3.9
    endloop
  endfacet
  facet normal 0.36812 -0.929778 0
    outer loop
      vertex -0.888423 2.73429 -3.9
      vertex -1.22412 2.60138 -50
      vertex -0.888423 2.73429 -50
    endloop
  endfacet
  facet normal 0.904821 -0.425793 0
    outer loop
      vertex -2.67311 1.05836 -3.9
      vertex -2.51938 1.38504 -50
      vertex -2.51938 1.38504 -3.9
    endloop
  endfacet
  facet normal 0.904821 -0.425793 0
    outer loop
      vertex -2.51938 1.38504 -50
      vertex -2.67311 1.05836 -3.9
      vertex -2.67311 1.05836 -50
    endloop
  endfacet
  facet normal -0.998027 0.0627901 0
    outer loop
      vertex 2.85233 -0.360332 -50
      vertex 2.875 0 -3.9
      vertex 2.875 0 -50
    endloop
  endfacet
  facet normal -0.998027 0.0627901 0
    outer loop
      vertex 2.875 0 -3.9
      vertex 2.85233 -0.360332 -50
      vertex 2.85233 -0.360332 -3.9
    endloop
  endfacet
  facet normal -0.36812 0.929778 0
    outer loop
      vertex 1.22412 -2.60138 -50
      vertex 0.888423 -2.73429 -3.9
      vertex 1.22412 -2.60138 -3.9
    endloop
  endfacet
  facet normal -0.36812 0.929778 0
    outer loop
      vertex 0.888423 -2.73429 -3.9
      vertex 1.22412 -2.60138 -50
      vertex 0.888423 -2.73429 -50
    endloop
  endfacet
  facet normal -0.982289 -0.187373 0
    outer loop
      vertex 2.85233 0.360332 -50
      vertex 2.78468 0.714983 -3.9
      vertex 2.78468 0.714983 -50
    endloop
  endfacet
  facet normal -0.982289 -0.187373 0
    outer loop
      vertex 2.78468 0.714983 -3.9
      vertex 2.85233 0.360332 -50
      vertex 2.85233 0.360332 -3.9
    endloop
  endfacet
  facet normal -0.684559 -0.728957 0
    outer loop
      vertex 1.83259 2.21523 -50
      vertex 2.09578 1.96807 -3.9
      vertex 1.83259 2.21523 -3.9
    endloop
  endfacet
  facet normal -0.684559 -0.728957 -0
    outer loop
      vertex 2.09578 1.96807 -3.9
      vertex 1.83259 2.21523 -50
      vertex 2.09578 1.96807 -50
    endloop
  endfacet
  facet normal -0.12533 -0.992115 0
    outer loop
      vertex 0.180522 2.86933 -50
      vertex 0.538721 2.82408 -3.9
      vertex 0.180522 2.86933 -3.9
    endloop
  endfacet
  facet normal -0.12533 -0.992115 -0
    outer loop
      vertex 0.538721 2.82408 -3.9
      vertex 0.180522 2.86933 -50
      vertex 0.538721 2.82408 -50
    endloop
  endfacet
  facet normal 0.770512 -0.637426 0
    outer loop
      vertex -2.32592 1.68988 -3.9
      vertex -2.09578 1.96807 -50
      vertex -2.09578 1.96807 -3.9
    endloop
  endfacet
  facet normal 0.770512 -0.637426 0
    outer loop
      vertex -2.09578 1.96807 -50
      vertex -2.32592 1.68988 -3.9
      vertex -2.32592 1.68988 -50
    endloop
  endfacet
  facet normal 0.12533 -0.992115 0
    outer loop
      vertex -0.538721 2.82408 -50
      vertex -0.180522 2.86933 -3.9
      vertex -0.538721 2.82408 -3.9
    endloop
  endfacet
  facet normal 0.12533 -0.992115 0
    outer loop
      vertex -0.180522 2.86933 -3.9
      vertex -0.538721 2.82408 -50
      vertex -0.180522 2.86933 -50
    endloop
  endfacet
  facet normal 0.684559 -0.728957 0
    outer loop
      vertex -2.09578 1.96807 -50
      vertex -1.83259 2.21523 -3.9
      vertex -2.09578 1.96807 -3.9
    endloop
  endfacet
  facet normal 0.684559 -0.728957 0
    outer loop
      vertex -1.83259 2.21523 -3.9
      vertex -2.09578 1.96807 -50
      vertex -1.83259 2.21523 -50
    endloop
  endfacet
  facet normal -0.998027 -0.0627901 0
    outer loop
      vertex 2.875 0 -50
      vertex 2.85233 0.360332 -3.9
      vertex 2.85233 0.360332 -50
    endloop
  endfacet
  facet normal -0.998027 -0.0627901 0
    outer loop
      vertex 2.85233 0.360332 -3.9
      vertex 2.875 0 -50
      vertex 2.875 0 -3.9
    endloop
  endfacet
  facet normal -0.248695 0.968582 0
    outer loop
      vertex 0.888423 -2.73429 -50
      vertex 0.538721 -2.82408 -3.9
      vertex 0.888423 -2.73429 -3.9
    endloop
  endfacet
  facet normal -0.248695 0.968582 0
    outer loop
      vertex 0.538721 -2.82408 -3.9
      vertex 0.888423 -2.73429 -50
      vertex 0.538721 -2.82408 -50
    endloop
  endfacet
  facet normal -0.770512 -0.637426 0
    outer loop
      vertex 2.32592 1.68988 -50
      vertex 2.09578 1.96807 -3.9
      vertex 2.09578 1.96807 -50
    endloop
  endfacet
  facet normal -0.770512 -0.637426 0
    outer loop
      vertex 2.09578 1.96807 -3.9
      vertex 2.32592 1.68988 -50
      vertex 2.32592 1.68988 -3.9
    endloop
  endfacet
  facet normal 0 -1 0
    outer loop
      vertex -0.180522 2.86933 -50
      vertex 0.180522 2.86933 -3.9
      vertex -0.180522 2.86933 -3.9
    endloop
  endfacet
  facet normal 0 -1 -0
    outer loop
      vertex 0.180522 2.86933 -3.9
      vertex -0.180522 2.86933 -50
      vertex 0.180522 2.86933 -50
    endloop
  endfacet
  facet normal -0.248695 -0.968582 0
    outer loop
      vertex 0.538721 2.82408 -50
      vertex 0.888423 2.73429 -3.9
      vertex 0.538721 2.82408 -3.9
    endloop
  endfacet
  facet normal -0.248695 -0.968582 -0
    outer loop
      vertex 0.888423 2.73429 -3.9
      vertex 0.538721 2.82408 -50
      vertex 0.888423 2.73429 -50
    endloop
  endfacet
  facet normal -0.587775 -0.809025 0
    outer loop
      vertex 1.5405 2.42744 -50
      vertex 1.83259 2.21523 -3.9
      vertex 1.5405 2.42744 -3.9
    endloop
  endfacet
  facet normal -0.587775 -0.809025 -0
    outer loop
      vertex 1.83259 2.21523 -3.9
      vertex 1.5405 2.42744 -50
      vertex 1.83259 2.21523 -50
    endloop
  endfacet
  facet normal -0.481772 -0.876297 0
    outer loop
      vertex 1.22412 2.60138 -50
      vertex 1.5405 2.42744 -3.9
      vertex 1.22412 2.60138 -3.9
    endloop
  endfacet
  facet normal -0.481772 -0.876297 -0
    outer loop
      vertex 1.5405 2.42744 -3.9
      vertex 1.22412 2.60138 -50
      vertex 1.5405 2.42744 -50
    endloop
  endfacet
  facet normal 0.998027 -0.0627901 0
    outer loop
      vertex -2.875 0 -3.9
      vertex -2.85233 0.360332 -50
      vertex -2.85233 0.360332 -3.9
    endloop
  endfacet
  facet normal 0.998027 -0.0627901 0
    outer loop
      vertex -2.85233 0.360332 -50
      vertex -2.875 0 -3.9
      vertex -2.875 0 -50
    endloop
  endfacet
  facet normal 0.844325 -0.535832 0
    outer loop
      vertex -2.51938 1.38504 -3.9
      vertex -2.32592 1.68988 -50
      vertex -2.32592 1.68988 -3.9
    endloop
  endfacet
  facet normal 0.844325 -0.535832 0
    outer loop
      vertex -2.32592 1.68988 -50
      vertex -2.51938 1.38504 -3.9
      vertex -2.51938 1.38504 -50
    endloop
  endfacet
  facet normal 0.481772 -0.876297 0
    outer loop
      vertex -1.5405 2.42744 -50
      vertex -1.22412 2.60138 -3.9
      vertex -1.5405 2.42744 -3.9
    endloop
  endfacet
  facet normal 0.481772 -0.876297 0
    outer loop
      vertex -1.22412 2.60138 -3.9
      vertex -1.5405 2.42744 -50
      vertex -1.22412 2.60138 -50
    endloop
  endfacet
  facet normal 0.587775 -0.809025 0
    outer loop
      vertex -1.83259 2.21523 -50
      vertex -1.5405 2.42744 -3.9
      vertex -1.83259 2.21523 -3.9
    endloop
  endfacet
  facet normal 0.587775 -0.809025 0
    outer loop
      vertex -1.5405 2.42744 -3.9
      vertex -1.83259 2.21523 -50
      vertex -1.5405 2.42744 -50
    endloop
  endfacet
  facet normal -0.982289 0.187373 0
    outer loop
      vertex 2.78468 -0.714983 -50
      vertex 2.85233 -0.360332 -3.9
      vertex 2.85233 -0.360332 -50
    endloop
  endfacet
  facet normal -0.982289 0.187373 0
    outer loop
      vertex 2.85233 -0.360332 -3.9
      vertex 2.78468 -0.714983 -50
      vertex 2.78468 -0.714983 -3.9
    endloop
  endfacet
  facet normal -0.12533 0.992115 0
    outer loop
      vertex 0.538721 -2.82408 -50
      vertex 0.180522 -2.86933 -3.9
      vertex 0.538721 -2.82408 -3.9
    endloop
  endfacet
  facet normal -0.12533 0.992115 0
    outer loop
      vertex 0.180522 -2.86933 -3.9
      vertex 0.538721 -2.82408 -50
      vertex 0.180522 -2.86933 -50
    endloop
  endfacet
  facet normal -0.904821 -0.425793 0
    outer loop
      vertex 2.67311 1.05836 -50
      vertex 2.51938 1.38504 -3.9
      vertex 2.51938 1.38504 -50
    endloop
  endfacet
  facet normal -0.904821 -0.425793 0
    outer loop
      vertex 2.51938 1.38504 -3.9
      vertex 2.67311 1.05836 -50
      vertex 2.67311 1.05836 -3.9
    endloop
  endfacet
  facet normal -0.951056 -0.309017 0
    outer loop
      vertex 2.78468 0.714983 -50
      vertex 2.67311 1.05836 -3.9
      vertex 2.67311 1.05836 -50
    endloop
  endfacet
  facet normal -0.951056 -0.309017 0
    outer loop
      vertex 2.67311 1.05836 -3.9
      vertex 2.78468 0.714983 -50
      vertex 2.78468 0.714983 -3.9
    endloop
  endfacet
  facet normal 0.982289 -0.187373 0
    outer loop
      vertex -2.85233 0.360332 -3.9
      vertex -2.78468 0.714983 -50
      vertex -2.78468 0.714983 -3.9
    endloop
  endfacet
  facet normal 0.982289 -0.187373 0
    outer loop
      vertex -2.78468 0.714983 -50
      vertex -2.85233 0.360332 -3.9
      vertex -2.85233 0.360332 -50
    endloop
  endfacet
  facet normal 0.248695 -0.968582 0
    outer loop
      vertex -0.888423 2.73429 -50
      vertex -0.538721 2.82408 -3.9
      vertex -0.888423 2.73429 -3.9
    endloop
  endfacet
  facet normal 0.248695 -0.968582 0
    outer loop
      vertex -0.538721 2.82408 -3.9
      vertex -0.888423 2.73429 -50
      vertex -0.538721 2.82408 -50
    endloop
  endfacet
  facet normal -0.481772 0.876297 0
    outer loop
      vertex 1.5405 -2.42744 -50
      vertex 1.22412 -2.60138 -3.9
      vertex 1.5405 -2.42744 -3.9
    endloop
  endfacet
  facet normal -0.481772 0.876297 0
    outer loop
      vertex 1.22412 -2.60138 -3.9
      vertex 1.5405 -2.42744 -50
      vertex 1.22412 -2.60138 -50
    endloop
  endfacet
  facet normal -0.684559 0.728957 0
    outer loop
      vertex 2.09578 -1.96807 -50
      vertex 1.83259 -2.21523 -3.9
      vertex 2.09578 -1.96807 -3.9
    endloop
  endfacet
  facet normal -0.684559 0.728957 0
    outer loop
      vertex 1.83259 -2.21523 -3.9
      vertex 2.09578 -1.96807 -50
      vertex 1.83259 -2.21523 -50
    endloop
  endfacet
  facet normal -0.770512 0.637426 0
    outer loop
      vertex 2.09578 -1.96807 -50
      vertex 2.32592 -1.68988 -3.9
      vertex 2.32592 -1.68988 -50
    endloop
  endfacet
  facet normal -0.770512 0.637426 0
    outer loop
      vertex 2.32592 -1.68988 -3.9
      vertex 2.09578 -1.96807 -50
      vertex 2.09578 -1.96807 -3.9
    endloop
  endfacet
  facet normal 0.36812 0.929778 -0
    outer loop
      vertex -0.888423 -2.73429 -50
      vertex -1.22412 -2.60138 -3.9
      vertex -0.888423 -2.73429 -3.9
    endloop
  endfacet
  facet normal 0.36812 0.929778 0
    outer loop
      vertex -1.22412 -2.60138 -3.9
      vertex -0.888423 -2.73429 -50
      vertex -1.22412 -2.60138 -50
    endloop
  endfacet
  facet normal 0.998027 0.0627901 0
    outer loop
      vertex -2.85233 -0.360332 -3.9
      vertex -2.875 0 -50
      vertex -2.875 0 -3.9
    endloop
  endfacet
  facet normal 0.998027 0.0627901 0
    outer loop
      vertex -2.875 0 -50
      vertex -2.85233 -0.360332 -3.9
      vertex -2.85233 -0.360332 -50
    endloop
  endfacet
  facet normal 0.904821 0.425793 0
    outer loop
      vertex -2.51938 -1.38504 -3.9
      vertex -2.67311 -1.05836 -50
      vertex -2.67311 -1.05836 -3.9
    endloop
  endfacet
  facet normal 0.904821 0.425793 0
    outer loop
      vertex -2.67311 -1.05836 -50
      vertex -2.51938 -1.38504 -3.9
      vertex -2.51938 -1.38504 -50
    endloop
  endfacet
  facet normal 0.951056 0.309017 0
    outer loop
      vertex -2.67311 -1.05836 -3.9
      vertex -2.78468 -0.714983 -50
      vertex -2.78468 -0.714983 -3.9
    endloop
  endfacet
  facet normal 0.951056 0.309017 0
    outer loop
      vertex -2.78468 -0.714983 -50
      vertex -2.67311 -1.05836 -3.9
      vertex -2.67311 -1.05836 -50
    endloop
  endfacet
  facet normal 0.684559 0.728957 -0
    outer loop
      vertex -1.83259 -2.21523 -50
      vertex -2.09578 -1.96807 -3.9
      vertex -1.83259 -2.21523 -3.9
    endloop
  endfacet
  facet normal 0.684559 0.728957 0
    outer loop
      vertex -2.09578 -1.96807 -3.9
      vertex -1.83259 -2.21523 -50
      vertex -2.09578 -1.96807 -50
    endloop
  endfacet
  facet normal -0.951056 0.309017 0
    outer loop
      vertex 2.67311 -1.05836 -50
      vertex 2.78468 -0.714983 -3.9
      vertex 2.78468 -0.714983 -50
    endloop
  endfacet
  facet normal -0.951056 0.309017 0
    outer loop
      vertex 2.78468 -0.714983 -3.9
      vertex 2.67311 -1.05836 -50
      vertex 2.67311 -1.05836 -3.9
    endloop
  endfacet
  facet normal -0.904821 0.425793 0
    outer loop
      vertex 2.51938 -1.38504 -50
      vertex 2.67311 -1.05836 -3.9
      vertex 2.67311 -1.05836 -50
    endloop
  endfacet
  facet normal -0.904821 0.425793 0
    outer loop
      vertex 2.67311 -1.05836 -3.9
      vertex 2.51938 -1.38504 -50
      vertex 2.51938 -1.38504 -3.9
    endloop
  endfacet
  facet normal -0.587775 0.809025 0
    outer loop
      vertex 1.83259 -2.21523 -50
      vertex 1.5405 -2.42744 -3.9
      vertex 1.83259 -2.21523 -3.9
    endloop
  endfacet
  facet normal -0.587775 0.809025 0
    outer loop
      vertex 1.5405 -2.42744 -3.9
      vertex 1.83259 -2.21523 -50
      vertex 1.5405 -2.42744 -50
    endloop
  endfacet
  facet normal -0.844325 0.535832 0
    outer loop
      vertex 2.32592 -1.68988 -50
      vertex 2.51938 -1.38504 -3.9
      vertex 2.51938 -1.38504 -50
    endloop
  endfacet
  facet normal -0.844325 0.535832 0
    outer loop
      vertex 2.51938 -1.38504 -3.9
      vertex 2.32592 -1.68988 -50
      vertex 2.32592 -1.68988 -3.9
    endloop
  endfacet
  facet normal 0 1 -0
    outer loop
      vertex 0.180522 -2.86933 -50
      vertex -0.180522 -2.86933 -3.9
      vertex 0.180522 -2.86933 -3.9
    endloop
  endfacet
  facet normal 0 1 0
    outer loop
      vertex -0.180522 -2.86933 -3.9
      vertex 0.180522 -2.86933 -50
      vertex -0.180522 -2.86933 -50
    endloop
  endfacet
  facet normal 0.12533 0.992115 -0
    outer loop
      vertex -0.180522 -2.86933 -50
      vertex -0.538721 -2.82408 -3.9
      vertex -0.180522 -2.86933 -3.9
    endloop
  endfacet
  facet normal 0.12533 0.992115 0
    outer loop
      vertex -0.538721 -2.82408 -3.9
      vertex -0.180522 -2.86933 -50
      vertex -0.538721 -2.82408 -50
    endloop
  endfacet
  facet normal 0.982289 0.187373 0
    outer loop
      vertex -2.78468 -0.714983 -3.9
      vertex -2.85233 -0.360332 -50
      vertex -2.85233 -0.360332 -3.9
    endloop
  endfacet
  facet normal 0.982289 0.187373 0
    outer loop
      vertex -2.85233 -0.360332 -50
      vertex -2.78468 -0.714983 -3.9
      vertex -2.78468 -0.714983 -50
    endloop
  endfacet
  facet normal 0.770512 0.637426 0
    outer loop
      vertex -2.09578 -1.96807 -3.9
      vertex -2.32592 -1.68988 -50
      vertex -2.32592 -1.68988 -3.9
    endloop
  endfacet
  facet normal 0.770512 0.637426 0
    outer loop
      vertex -2.32592 -1.68988 -50
      vertex -2.09578 -1.96807 -3.9
      vertex -2.09578 -1.96807 -50
    endloop
  endfacet
  facet normal 0.844325 0.535832 0
    outer loop
      vertex -2.32592 -1.68988 -3.9
      vertex -2.51938 -1.38504 -50
      vertex -2.51938 -1.38504 -3.9
    endloop
  endfacet
  facet normal 0.844325 0.535832 0
    outer loop
      vertex -2.51938 -1.38504 -50
      vertex -2.32592 -1.68988 -3.9
      vertex -2.32592 -1.68988 -50
    endloop
  endfacet
  facet normal 0.587775 0.809025 -0
    outer loop
      vertex -1.5405 -2.42744 -50
      vertex -1.83259 -2.21523 -3.9
      vertex -1.5405 -2.42744 -3.9
    endloop
  endfacet
  facet normal 0.587775 0.809025 0
    outer loop
      vertex -1.83259 -2.21523 -3.9
      vertex -1.5405 -2.42744 -50
      vertex -1.83259 -2.21523 -50
    endloop
  endfacet
  facet normal 0.481772 0.876297 -0
    outer loop
      vertex -1.22412 -2.60138 -50
      vertex -1.5405 -2.42744 -3.9
      vertex -1.22412 -2.60138 -3.9
    endloop
  endfacet
  facet normal 0.481772 0.876297 0
    outer loop
      vertex -1.5405 -2.42744 -3.9
      vertex -1.22412 -2.60138 -50
      vertex -1.5405 -2.42744 -50
    endloop
  endfacet
  facet normal 0.248695 0.968582 -0
    outer loop
      vertex -0.538721 -2.82408 -50
      vertex -0.888423 -2.73429 -3.9
      vertex -0.538721 -2.82408 -3.9
    endloop
  endfacet
  facet normal 0.248695 0.968582 0
    outer loop
      vertex -0.888423 -2.73429 -3.9
      vertex -0.538721 -2.82408 -50
      vertex -0.888423 -2.73429 -50
    endloop
  endfacet
  facet normal 0.998027 0.0627925 0
    outer loop
      vertex 3.98103 0.301544 -2.16238
      vertex 3.96846 0.501332 -50
      vertex 3.96846 0.501332 -2.16238
    endloop
  endfacet
  facet normal 0.998027 0.0627854 -2.97309e-08
    outer loop
      vertex 4 0 -2.16238
      vertex 3.96846 0.501332 -50
      vertex 3.98103 0.301544 -2.16238
    endloop
  endfacet
  facet normal 0.998027 0.0627883 0
    outer loop
      vertex 3.96846 0.501332 -50
      vertex 4 0 -2.16238
      vertex 4 0 -50
    endloop
  endfacet
  facet normal -0.998027 0.0627925 0
    outer loop
      vertex -3.96846 0.501332 -50
      vertex -3.98103 0.301544 -2.16238
      vertex -3.96846 0.501332 -2.16238
    endloop
  endfacet
  facet normal -0.998027 0.0627883 -1.78827e-08
    outer loop
      vertex -4 0 -50
      vertex -3.98103 0.301544 -2.16238
      vertex -3.96846 0.501332 -50
    endloop
  endfacet
  facet normal -0.998027 0.0627854 0
    outer loop
      vertex -3.98103 0.301544 -2.16238
      vertex -4 0 -50
      vertex -4 0 -2.16238
    endloop
  endfacet
  facet normal 0 1 -0
    outer loop
      vertex 0.251162 3.99211 -50
      vertex 0.251161 3.99211 -2.16238
      vertex 0.251162 3.99211 -2.16238
    endloop
  endfacet
  facet normal 0 1 0
    outer loop
      vertex 0.251161 3.99211 -2.16238
      vertex 0.251162 3.99211 -50
      vertex -0.251161 3.99211 -2.16238
    endloop
  endfacet
  facet normal 0 1 0
    outer loop
      vertex -0.251162 3.99211 -50
      vertex -0.251161 3.99211 -2.16238
      vertex 0.251162 3.99211 -50
    endloop
  endfacet
  facet normal 0 1 0
    outer loop
      vertex -0.251161 3.99211 -2.16238
      vertex -0.251162 3.99211 -50
      vertex -0.251162 3.99211 -2.16238
    endloop
  endfacet
  facet normal 0.684552 0.728964 -0
    outer loop
      vertex 2.91587 2.73819 -50
      vertex 2.76995 2.87522 -2.16238
      vertex 2.91587 2.73819 -2.16238
    endloop
  endfacet
  facet normal 0.68455 0.728966 -1.54909e-08
    outer loop
      vertex 2.91587 2.73819 -50
      vertex 2.5497 3.08205 -2.16238
      vertex 2.76995 2.87522 -2.16238
    endloop
  endfacet
  facet normal 0.684551 0.728965 0
    outer loop
      vertex 2.5497 3.08205 -2.16238
      vertex 2.91587 2.73819 -50
      vertex 2.5497 3.08205 -50
    endloop
  endfacet
  facet normal -0.68455 0.728966 0
    outer loop
      vertex -2.5497 3.08205 -50
      vertex -2.76995 2.87522 -2.16238
      vertex -2.5497 3.08205 -2.16238
    endloop
  endfacet
  facet normal -0.684552 0.728964 -2.33817e-08
    outer loop
      vertex -2.5497 3.08205 -50
      vertex -2.91587 2.73819 -2.16238
      vertex -2.76995 2.87522 -2.16238
    endloop
  endfacet
  facet normal -0.684551 0.728965 0
    outer loop
      vertex -2.91587 2.73819 -2.16238
      vertex -2.5497 3.08205 -50
      vertex -2.91587 2.73819 -50
    endloop
  endfacet
  facet normal -0.368167 0.92976 0
    outer loop
      vertex -1.23607 3.80423 -50
      vertex -1.42219 3.73053 -2.16238
      vertex -1.23607 3.80423 -2.16238
    endloop
  endfacet
  facet normal -0.368102 0.929786 2.9574e-07
    outer loop
      vertex -1.23607 3.80423 -50
      vertex -1.70312 3.61931 -2.16238
      vertex -1.42219 3.73053 -2.16238
    endloop
  endfacet
  facet normal -0.368128 0.929775 0
    outer loop
      vertex -1.70312 3.61931 -2.16238
      vertex -1.23607 3.80423 -50
      vertex -1.70312 3.61931 -50
    endloop
  endfacet
  facet normal 0.904831 0.425772 0
    outer loop
      vertex 3.63387 1.65363 -2.16238
      vertex 3.50523 1.92701 -50
      vertex 3.50523 1.92701 -2.16238
    endloop
  endfacet
  facet normal 0.904814 0.425807 2.45187e-07
    outer loop
      vertex 3.71911 1.4725 -2.16238
      vertex 3.50523 1.92701 -50
      vertex 3.63387 1.65363 -2.16238
    endloop
  endfacet
  facet normal 0.904824 0.425786 0
    outer loop
      vertex 3.50523 1.92701 -50
      vertex 3.71911 1.4725 -2.16238
      vertex 3.71911 1.4725 -50
    endloop
  endfacet
  facet normal 0.844336 0.535815 0
    outer loop
      vertex 3.34333 2.18212 -2.16238
      vertex 3.23607 2.35114 -50
      vertex 3.23607 2.35114 -2.16238
    endloop
  endfacet
  facet normal 0.844325 0.535832 8.5748e-08
    outer loop
      vertex 3.50523 1.92701 -2.16238
      vertex 3.23607 2.35114 -50
      vertex 3.34333 2.18212 -2.16238
    endloop
  endfacet
  facet normal 0.844329 0.535825 0
    outer loop
      vertex 3.23607 2.35114 -50
      vertex 3.50523 1.92701 -2.16238
      vertex 3.50523 1.92701 -50
    endloop
  endfacet
  facet normal 0.368102 0.929786 -0
    outer loop
      vertex 1.70312 3.61931 -50
      vertex 1.42219 3.73053 -2.16238
      vertex 1.70312 3.61931 -2.16238
    endloop
  endfacet
  facet normal 0.368167 0.92976 4.46379e-07
    outer loop
      vertex 1.70312 3.61931 -50
      vertex 1.23607 3.80423 -2.16238
      vertex 1.42219 3.73053 -2.16238
    endloop
  endfacet
  facet normal 0.368128 0.929775 0
    outer loop
      vertex 1.23607 3.80423 -2.16238
      vertex 1.70312 3.61931 -50
      vertex 1.23607 3.80423 -50
    endloop
  endfacet
  facet normal 0.248666 0.968589 -0
    outer loop
      vertex 1.23607 3.80423 -50
      vertex 1.04217 3.85401 -2.16238
      vertex 1.23607 3.80423 -2.16238
    endloop
  endfacet
  facet normal 0.248695 0.968582 1.23008e-07
    outer loop
      vertex 1.23607 3.80423 -50
      vertex 0.749525 3.92915 -2.16238
      vertex 1.04217 3.85401 -2.16238
    endloop
  endfacet
  facet normal 0.248683 0.968585 0
    outer loop
      vertex 0.749525 3.92915 -2.16238
      vertex 1.23607 3.80423 -50
      vertex 0.749525 3.92915 -50
    endloop
  endfacet
  facet normal 0.587783 0.809019 -0
    outer loop
      vertex 2.5497 3.08205 -50
      vertex 2.38774 3.19972 -2.16238
      vertex 2.5497 3.08205 -2.16238
    endloop
  endfacet
  facet normal 0.587788 0.809015 2.75577e-08
    outer loop
      vertex 2.5497 3.08205 -50
      vertex 2.14331 3.37731 -2.16238
      vertex 2.38774 3.19972 -2.16238
    endloop
  endfacet
  facet normal 0.587786 0.809017 0
    outer loop
      vertex 2.14331 3.37731 -2.16238
      vertex 2.5497 3.08205 -50
      vertex 2.14331 3.37731 -50
    endloop
  endfacet
  facet normal -0.844336 0.535815 0
    outer loop
      vertex -3.23607 2.35114 -50
      vertex -3.34333 2.18212 -2.16238
      vertex -3.23607 2.35114 -2.16238
    endloop
  endfacet
  facet normal -0.844329 0.535825 5.15768e-08
    outer loop
      vertex -3.50523 1.92701 -50
      vertex -3.34333 2.18212 -2.16238
      vertex -3.23607 2.35114 -50
    endloop
  endfacet
  facet normal -0.844325 0.535832 0
    outer loop
      vertex -3.34333 2.18212 -2.16238
      vertex -3.50523 1.92701 -50
      vertex -3.50523 1.92701 -2.16238
    endloop
  endfacet
  facet normal -0.770509 0.63743 0
    outer loop
      vertex -2.91587 2.73819 -50
      vertex -3.10847 2.50538 -2.16238
      vertex -2.91587 2.73819 -2.16238
    endloop
  endfacet
  facet normal -0.770509 0.637429 -2.82976e-09
    outer loop
      vertex -3.23607 2.35114 -50
      vertex -3.10847 2.50538 -2.16238
      vertex -2.91587 2.73819 -50
    endloop
  endfacet
  facet normal -0.770509 0.637429 0
    outer loop
      vertex -3.10847 2.50538 -2.16238
      vertex -3.23607 2.35114 -50
      vertex -3.23607 2.35114 -2.16238
    endloop
  endfacet
  facet normal -0.951059 0.30901 0
    outer loop
      vertex -3.71911 1.4725 -50
      vertex -3.78097 1.28211 -2.16238
      vertex -3.71911 1.4725 -2.16238
    endloop
  endfacet
  facet normal -0.951062 0.308999 -4.99851e-08
    outer loop
      vertex -3.71911 1.4725 -50
      vertex -3.87433 0.994759 -2.16238
      vertex -3.78097 1.28211 -2.16238
    endloop
  endfacet
  facet normal -0.951061 0.309004 0
    outer loop
      vertex -3.87433 0.994759 -50
      vertex -3.87433 0.994759 -2.16238
      vertex -3.71911 1.4725 -50
    endloop
  endfacet
  facet normal 0 0 1
    outer loop
      vertex -1.70312 3.61931 -2.16238
      vertex -2.14331 3.37731 -2.16238
      vertex -1.96788 3.47375 -2.16238
    endloop
  endfacet
  facet normal -0.481759 0.876304 0
    outer loop
      vertex -1.70312 3.61931 -50
      vertex -2.14331 3.37731 -2.16238
      vertex -1.70312 3.61931 -2.16238
    endloop
  endfacet
  facet normal -0.481759 0.876304 0
    outer loop
      vertex -2.14331 3.37731 -2.16238
      vertex -1.70312 3.61931 -50
      vertex -2.14331 3.37731 -50
    endloop
  endfacet
  facet normal -0.125335 0.992114 0
    outer loop
      vertex -0.251162 3.99211 -2.16238
      vertex -0.251162 3.99211 -50
      vertex -0.449767 3.96702 -2.16238
    endloop
  endfacet
  facet normal -0.125339 0.992114 -1.68213e-08
    outer loop
      vertex -0.251162 3.99211 -50
      vertex -0.749525 3.92915 -2.16238
      vertex -0.449767 3.96702 -2.16238
    endloop
  endfacet
  facet normal -0.125337 0.992114 0
    outer loop
      vertex -0.749525 3.92915 -2.16238
      vertex -0.251162 3.99211 -50
      vertex -0.749525 3.92915 -50
    endloop
  endfacet
  facet normal 0.998027 -0.0627854 0
    outer loop
      vertex 3.98103 -0.301544 -2.16238
      vertex 4 0 -50
      vertex 4 0 -2.16238
    endloop
  endfacet
  facet normal 0.998027 -0.0627925 -4.48734e-08
    outer loop
      vertex 3.96846 -0.501332 -2.16238
      vertex 4 0 -50
      vertex 3.98103 -0.301544 -2.16238
    endloop
  endfacet
  facet normal 0.998027 -0.0627883 0
    outer loop
      vertex 4 0 -50
      vertex 3.96846 -0.501332 -2.16238
      vertex 3.96846 -0.501332 -50
    endloop
  endfacet
  facet normal 0.125335 -0.992114 0
    outer loop
      vertex 0.251162 -3.99211 -2.16238
      vertex 0.251162 -3.99211 -50
      vertex 0.449767 -3.96702 -2.16238
    endloop
  endfacet
  facet normal 0.125339 -0.992114 -1.68213e-08
    outer loop
      vertex 0.251162 -3.99211 -50
      vertex 0.749525 -3.92915 -2.16238
      vertex 0.449767 -3.96702 -2.16238
    endloop
  endfacet
  facet normal 0.125337 -0.992114 0
    outer loop
      vertex 0.749525 -3.92915 -2.16238
      vertex 0.251162 -3.99211 -50
      vertex 0.749525 -3.92915 -50
    endloop
  endfacet
  facet normal 0.951059 0.30901 0
    outer loop
      vertex 3.78097 1.28211 -2.16238
      vertex 3.71911 1.4725 -50
      vertex 3.71911 1.4725 -2.16238
    endloop
  endfacet
  facet normal 0.951062 0.308999 -4.99851e-08
    outer loop
      vertex 3.87433 0.994759 -2.16238
      vertex 3.71911 1.4725 -50
      vertex 3.78097 1.28211 -2.16238
    endloop
  endfacet
  facet normal 0.951061 0.309004 0
    outer loop
      vertex 3.71911 1.4725 -50
      vertex 3.87433 0.994759 -2.16238
      vertex 3.87433 0.994759 -50
    endloop
  endfacet
  facet normal 0.982285 0.187396 0
    outer loop
      vertex 3.93095 0.69797 -2.16238
      vertex 3.87433 0.994759 -50
      vertex 3.87433 0.994759 -2.16238
    endloop
  endfacet
  facet normal 0.982288 0.187378 -1.13631e-07
    outer loop
      vertex 3.96846 0.501332 -2.16238
      vertex 3.87433 0.994759 -50
      vertex 3.93095 0.69797 -2.16238
    endloop
  endfacet
  facet normal 0.982286 0.187389 0
    outer loop
      vertex 3.96846 0.501332 -2.16238
      vertex 3.96846 0.501332 -50
      vertex 3.87433 0.994759 -50
    endloop
  endfacet
  facet normal 0.770509 0.63743 0
    outer loop
      vertex 3.10847 2.50538 -2.16238
      vertex 2.91587 2.73819 -50
      vertex 2.91587 2.73819 -2.16238
    endloop
  endfacet
  facet normal 0.770509 0.637429 -7.10101e-09
    outer loop
      vertex 3.23607 2.35114 -2.16238
      vertex 2.91587 2.73819 -50
      vertex 3.10847 2.50538 -2.16238
    endloop
  endfacet
  facet normal 0.770509 0.637429 0
    outer loop
      vertex 2.91587 2.73819 -50
      vertex 3.23607 2.35114 -2.16238
      vertex 3.23607 2.35114 -50
    endloop
  endfacet
  facet normal 0.125339 0.992114 -0
    outer loop
      vertex 0.749525 3.92915 -50
      vertex 0.449767 3.96702 -2.16238
      vertex 0.749525 3.92915 -2.16238
    endloop
  endfacet
  facet normal 0.125335 0.992114 -2.53887e-08
    outer loop
      vertex 0.749525 3.92915 -50
      vertex 0.251162 3.99211 -2.16238
      vertex 0.449767 3.96702 -2.16238
    endloop
  endfacet
  facet normal 0.125337 0.992114 0
    outer loop
      vertex 0.251162 3.99211 -2.16238
      vertex 0.749525 3.92915 -50
      vertex 0.251162 3.99211 -50
    endloop
  endfacet
  facet normal -0.904831 0.425772 0
    outer loop
      vertex -3.50523 1.92701 -50
      vertex -3.63387 1.65363 -2.16238
      vertex -3.50523 1.92701 -2.16238
    endloop
  endfacet
  facet normal -0.904824 0.425786 9.77123e-08
    outer loop
      vertex -3.71911 1.4725 -50
      vertex -3.63387 1.65363 -2.16238
      vertex -3.50523 1.92701 -50
    endloop
  endfacet
  facet normal -0.904814 0.425807 0
    outer loop
      vertex -3.63387 1.65363 -2.16238
      vertex -3.71911 1.4725 -50
      vertex -3.71911 1.4725 -2.16238
    endloop
  endfacet
  facet normal -0.248695 0.968582 0
    outer loop
      vertex -0.749525 3.92915 -2.16238
      vertex -0.749525 3.92915 -50
      vertex -1.04217 3.85401 -2.16238
    endloop
  endfacet
  facet normal -0.248666 0.968589 1.85652e-07
    outer loop
      vertex -0.749525 3.92915 -50
      vertex -1.23607 3.80423 -2.16238
      vertex -1.04217 3.85401 -2.16238
    endloop
  endfacet
  facet normal -0.248683 0.968585 0
    outer loop
      vertex -1.23607 3.80423 -2.16238
      vertex -0.749525 3.92915 -50
      vertex -1.23607 3.80423 -50
    endloop
  endfacet
  facet normal 0.951062 -0.308999 0
    outer loop
      vertex 3.78097 -1.28211 -2.16238
      vertex 3.87433 -0.994759 -50
      vertex 3.87433 -0.994759 -2.16238
    endloop
  endfacet
  facet normal 0.951059 -0.30901 -7.5441e-08
    outer loop
      vertex 3.71911 -1.4725 -2.16238
      vertex 3.87433 -0.994759 -50
      vertex 3.78097 -1.28211 -2.16238
    endloop
  endfacet
  facet normal 0.951061 -0.309004 0
    outer loop
      vertex 3.87433 -0.994759 -50
      vertex 3.71911 -1.4725 -2.16238
      vertex 3.71911 -1.4725 -50
    endloop
  endfacet
  facet normal 0.982288 -0.187378 0
    outer loop
      vertex 3.93095 -0.69797 -2.16238
      vertex 3.96846 -0.501332 -50
      vertex 3.96846 -0.501332 -2.16238
    endloop
  endfacet
  facet normal 0.982285 -0.187396 -7.52864e-08
    outer loop
      vertex 3.87433 -0.994759 -2.16238
      vertex 3.96846 -0.501332 -50
      vertex 3.93095 -0.69797 -2.16238
    endloop
  endfacet
  facet normal 0.982286 -0.187389 0
    outer loop
      vertex 3.96846 -0.501332 -50
      vertex 3.87433 -0.994759 -2.16238
      vertex 3.87433 -0.994759 -50
    endloop
  endfacet
  facet normal -0.951062 -0.308999 0
    outer loop
      vertex -3.87433 -0.994759 -50
      vertex -3.78097 -1.28211 -2.16238
      vertex -3.87433 -0.994759 -2.16238
    endloop
  endfacet
  facet normal -0.951059 -0.30901 -7.5441e-08
    outer loop
      vertex -3.87433 -0.994759 -50
      vertex -3.71911 -1.4725 -2.16238
      vertex -3.78097 -1.28211 -2.16238
    endloop
  endfacet
  facet normal -0.951061 -0.309004 0
    outer loop
      vertex -3.71911 -1.4725 -50
      vertex -3.71911 -1.4725 -2.16238
      vertex -3.87433 -0.994759 -50
    endloop
  endfacet
  facet normal 0.368167 -0.92976 0
    outer loop
      vertex 1.23607 -3.80423 -50
      vertex 1.42219 -3.73053 -2.16238
      vertex 1.23607 -3.80423 -2.16238
    endloop
  endfacet
  facet normal 0.368102 -0.929786 2.9574e-07
    outer loop
      vertex 1.23607 -3.80423 -50
      vertex 1.70312 -3.61931 -2.16238
      vertex 1.42219 -3.73053 -2.16238
    endloop
  endfacet
  facet normal 0.368128 -0.929775 0
    outer loop
      vertex 1.70312 -3.61931 -2.16238
      vertex 1.23607 -3.80423 -50
      vertex 1.70312 -3.61931 -50
    endloop
  endfacet
  facet normal 0.248695 -0.968582 0
    outer loop
      vertex 0.749525 -3.92915 -2.16238
      vertex 0.749525 -3.92915 -50
      vertex 1.04217 -3.85401 -2.16238
    endloop
  endfacet
  facet normal 0.248666 -0.968589 1.85652e-07
    outer loop
      vertex 0.749525 -3.92915 -50
      vertex 1.23607 -3.80423 -2.16238
      vertex 1.04217 -3.85401 -2.16238
    endloop
  endfacet
  facet normal 0.248683 -0.968585 0
    outer loop
      vertex 1.23607 -3.80423 -2.16238
      vertex 0.749525 -3.92915 -50
      vertex 1.23607 -3.80423 -50
    endloop
  endfacet
  facet normal 0 0 1
    outer loop
      vertex 2.14331 3.37731 -2.16238
      vertex 1.70312 3.61931 -2.16238
      vertex 1.96788 3.47375 -2.16238
    endloop
  endfacet
  facet normal 0.481759 0.876304 -0
    outer loop
      vertex 2.14331 3.37731 -50
      vertex 1.70312 3.61931 -2.16238
      vertex 2.14331 3.37731 -2.16238
    endloop
  endfacet
  facet normal 0.481759 0.876304 0
    outer loop
      vertex 1.70312 3.61931 -2.16238
      vertex 2.14331 3.37731 -50
      vertex 1.70312 3.61931 -50
    endloop
  endfacet
  facet normal -0.982285 0.187396 0
    outer loop
      vertex -3.87433 0.994759 -50
      vertex -3.93095 0.69797 -2.16238
      vertex -3.87433 0.994759 -2.16238
    endloop
  endfacet
  facet normal -0.982288 0.187378 -1.13631e-07
    outer loop
      vertex -3.87433 0.994759 -50
      vertex -3.96846 0.501332 -2.16238
      vertex -3.93095 0.69797 -2.16238
    endloop
  endfacet
  facet normal -0.982286 0.187389 0
    outer loop
      vertex -3.96846 0.501332 -50
      vertex -3.96846 0.501332 -2.16238
      vertex -3.87433 0.994759 -50
    endloop
  endfacet
  facet normal -0.587788 0.809015 0
    outer loop
      vertex -2.14331 3.37731 -50
      vertex -2.38774 3.19972 -2.16238
      vertex -2.14331 3.37731 -2.16238
    endloop
  endfacet
  facet normal -0.587783 0.809019 4.15903e-08
    outer loop
      vertex -2.14331 3.37731 -50
      vertex -2.5497 3.08205 -2.16238
      vertex -2.38774 3.19972 -2.16238
    endloop
  endfacet
  facet normal -0.587786 0.809017 0
    outer loop
      vertex -2.5497 3.08205 -2.16238
      vertex -2.14331 3.37731 -50
      vertex -2.5497 3.08205 -50
    endloop
  endfacet
  facet normal 0 0 1
    outer loop
      vertex 1.70312 -3.61931 -2.16238
      vertex 2.14331 -3.37731 -2.16238
      vertex 1.96788 -3.47375 -2.16238
    endloop
  endfacet
  facet normal 0.481759 -0.876304 0
    outer loop
      vertex 1.70312 -3.61931 -50
      vertex 2.14331 -3.37731 -2.16238
      vertex 1.70312 -3.61931 -2.16238
    endloop
  endfacet
  facet normal 0.481759 -0.876304 0
    outer loop
      vertex 2.14331 -3.37731 -2.16238
      vertex 1.70312 -3.61931 -50
      vertex 2.14331 -3.37731 -50
    endloop
  endfacet
  facet normal 0.770509 -0.637429 0
    outer loop
      vertex 3.10847 -2.50538 -2.16238
      vertex 3.23607 -2.35114 -50
      vertex 3.23607 -2.35114 -2.16238
    endloop
  endfacet
  facet normal 0.770509 -0.63743 -4.70452e-09
    outer loop
      vertex 2.91587 -2.73819 -2.16238
      vertex 3.23607 -2.35114 -50
      vertex 3.10847 -2.50538 -2.16238
    endloop
  endfacet
  facet normal 0.770509 -0.637429 0
    outer loop
      vertex 3.23607 -2.35114 -50
      vertex 2.91587 -2.73819 -2.16238
      vertex 2.91587 -2.73819 -50
    endloop
  endfacet
  facet normal 0.844325 -0.535832 0
    outer loop
      vertex 3.34333 -2.18212 -2.16238
      vertex 3.50523 -1.92701 -50
      vertex 3.50523 -1.92701 -2.16238
    endloop
  endfacet
  facet normal 0.844336 -0.535815 1.29425e-07
    outer loop
      vertex 3.23607 -2.35114 -2.16238
      vertex 3.50523 -1.92701 -50
      vertex 3.34333 -2.18212 -2.16238
    endloop
  endfacet
  facet normal 0.844329 -0.535825 0
    outer loop
      vertex 3.50523 -1.92701 -50
      vertex 3.23607 -2.35114 -2.16238
      vertex 3.23607 -2.35114 -50
    endloop
  endfacet
  facet normal -0.368102 -0.929786 0
    outer loop
      vertex -1.70312 -3.61931 -50
      vertex -1.42219 -3.73053 -2.16238
      vertex -1.70312 -3.61931 -2.16238
    endloop
  endfacet
  facet normal -0.368167 -0.92976 4.46379e-07
    outer loop
      vertex -1.70312 -3.61931 -50
      vertex -1.23607 -3.80423 -2.16238
      vertex -1.42219 -3.73053 -2.16238
    endloop
  endfacet
  facet normal -0.368128 -0.929775 -0
    outer loop
      vertex -1.23607 -3.80423 -2.16238
      vertex -1.70312 -3.61931 -50
      vertex -1.23607 -3.80423 -50
    endloop
  endfacet
  facet normal -0.770509 -0.637429 0
    outer loop
      vertex -3.23607 -2.35114 -50
      vertex -3.10847 -2.50538 -2.16238
      vertex -3.23607 -2.35114 -2.16238
    endloop
  endfacet
  facet normal -0.770509 -0.637429 -2.82976e-09
    outer loop
      vertex -2.91587 -2.73819 -50
      vertex -3.10847 -2.50538 -2.16238
      vertex -3.23607 -2.35114 -50
    endloop
  endfacet
  facet normal -0.770509 -0.63743 0
    outer loop
      vertex -3.10847 -2.50538 -2.16238
      vertex -2.91587 -2.73819 -50
      vertex -2.91587 -2.73819 -2.16238
    endloop
  endfacet
  facet normal -0.904814 -0.425807 0
    outer loop
      vertex -3.71911 -1.4725 -50
      vertex -3.63387 -1.65363 -2.16238
      vertex -3.71911 -1.4725 -2.16238
    endloop
  endfacet
  facet normal -0.904831 -0.425772 1.62454e-07
    outer loop
      vertex -3.71911 -1.4725 -50
      vertex -3.50523 -1.92701 -2.16238
      vertex -3.63387 -1.65363 -2.16238
    endloop
  endfacet
  facet normal -0.904824 -0.425786 0
    outer loop
      vertex -3.50523 -1.92701 -50
      vertex -3.50523 -1.92701 -2.16238
      vertex -3.71911 -1.4725 -50
    endloop
  endfacet
  facet normal -0.998027 -0.0627854 0
    outer loop
      vertex -4 0 -50
      vertex -3.98103 -0.301544 -2.16238
      vertex -4 0 -2.16238
    endloop
  endfacet
  facet normal -0.998027 -0.0627883 -1.78827e-08
    outer loop
      vertex -3.96846 -0.501332 -50
      vertex -3.98103 -0.301544 -2.16238
      vertex -4 0 -50
    endloop
  endfacet
  facet normal -0.998027 -0.0627925 0
    outer loop
      vertex -3.98103 -0.301544 -2.16238
      vertex -3.96846 -0.501332 -50
      vertex -3.96846 -0.501332 -2.16238
    endloop
  endfacet
  facet normal 0.68455 -0.728966 0
    outer loop
      vertex 2.5497 -3.08205 -50
      vertex 2.76995 -2.87522 -2.16238
      vertex 2.5497 -3.08205 -2.16238
    endloop
  endfacet
  facet normal 0.684552 -0.728964 -2.33817e-08
    outer loop
      vertex 2.5497 -3.08205 -50
      vertex 2.91587 -2.73819 -2.16238
      vertex 2.76995 -2.87522 -2.16238
    endloop
  endfacet
  facet normal 0.684551 -0.728965 0
    outer loop
      vertex 2.91587 -2.73819 -2.16238
      vertex 2.5497 -3.08205 -50
      vertex 2.91587 -2.73819 -50
    endloop
  endfacet
  facet normal 0.587788 -0.809015 0
    outer loop
      vertex 2.14331 -3.37731 -50
      vertex 2.38774 -3.19972 -2.16238
      vertex 2.14331 -3.37731 -2.16238
    endloop
  endfacet
  facet normal 0.587783 -0.809019 4.15903e-08
    outer loop
      vertex 2.14331 -3.37731 -50
      vertex 2.5497 -3.08205 -2.16238
      vertex 2.38774 -3.19972 -2.16238
    endloop
  endfacet
  facet normal 0.587786 -0.809017 0
    outer loop
      vertex 2.5497 -3.08205 -2.16238
      vertex 2.14331 -3.37731 -50
      vertex 2.5497 -3.08205 -50
    endloop
  endfacet
  facet normal 0.904814 -0.425807 0
    outer loop
      vertex 3.63387 -1.65363 -2.16238
      vertex 3.71911 -1.4725 -50
      vertex 3.71911 -1.4725 -2.16238
    endloop
  endfacet
  facet normal 0.904831 -0.425772 1.62454e-07
    outer loop
      vertex 3.50523 -1.92701 -2.16238
      vertex 3.71911 -1.4725 -50
      vertex 3.63387 -1.65363 -2.16238
    endloop
  endfacet
  facet normal 0.904824 -0.425786 0
    outer loop
      vertex 3.71911 -1.4725 -50
      vertex 3.50523 -1.92701 -2.16238
      vertex 3.50523 -1.92701 -50
    endloop
  endfacet
  facet normal 0 -1 0
    outer loop
      vertex -0.251162 -3.99211 -50
      vertex -0.251161 -3.99211 -2.16238
      vertex -0.251162 -3.99211 -2.16238
    endloop
  endfacet
  facet normal 0 -1 -0
    outer loop
      vertex -0.251161 -3.99211 -2.16238
      vertex -0.251162 -3.99211 -50
      vertex 0.251161 -3.99211 -2.16238
    endloop
  endfacet
  facet normal 0 -1 0
    outer loop
      vertex 0.251162 -3.99211 -50
      vertex 0.251161 -3.99211 -2.16238
      vertex -0.251162 -3.99211 -50
    endloop
  endfacet
  facet normal 0 -1 0
    outer loop
      vertex 0.251161 -3.99211 -2.16238
      vertex 0.251162 -3.99211 -50
      vertex 0.251162 -3.99211 -2.16238
    endloop
  endfacet
  facet normal -0.125339 -0.992114 0
    outer loop
      vertex -0.749525 -3.92915 -50
      vertex -0.449767 -3.96702 -2.16238
      vertex -0.749525 -3.92915 -2.16238
    endloop
  endfacet
  facet normal -0.125335 -0.992114 -2.53887e-08
    outer loop
      vertex -0.749525 -3.92915 -50
      vertex -0.251162 -3.99211 -2.16238
      vertex -0.449767 -3.96702 -2.16238
    endloop
  endfacet
  facet normal -0.125337 -0.992114 -0
    outer loop
      vertex -0.251162 -3.99211 -2.16238
      vertex -0.749525 -3.92915 -50
      vertex -0.251162 -3.99211 -50
    endloop
  endfacet
  facet normal -0.248666 -0.968589 0
    outer loop
      vertex -1.23607 -3.80423 -50
      vertex -1.04217 -3.85401 -2.16238
      vertex -1.23607 -3.80423 -2.16238
    endloop
  endfacet
  facet normal -0.248695 -0.968582 1.23008e-07
    outer loop
      vertex -1.23607 -3.80423 -50
      vertex -0.749525 -3.92915 -2.16238
      vertex -1.04217 -3.85401 -2.16238
    endloop
  endfacet
  facet normal -0.248683 -0.968585 -0
    outer loop
      vertex -0.749525 -3.92915 -2.16238
      vertex -1.23607 -3.80423 -50
      vertex -0.749525 -3.92915 -50
    endloop
  endfacet
  facet normal 0 0 1
    outer loop
      vertex -2.14331 -3.37731 -2.16238
      vertex -1.70312 -3.61931 -2.16238
      vertex -1.96788 -3.47375 -2.16238
    endloop
  endfacet
  facet normal -0.481759 -0.876304 0
    outer loop
      vertex -2.14331 -3.37731 -50
      vertex -1.70312 -3.61931 -2.16238
      vertex -2.14331 -3.37731 -2.16238
    endloop
  endfacet
  facet normal -0.481759 -0.876304 -0
    outer loop
      vertex -1.70312 -3.61931 -2.16238
      vertex -2.14331 -3.37731 -50
      vertex -1.70312 -3.61931 -50
    endloop
  endfacet
  facet normal -0.844325 -0.535832 0
    outer loop
      vertex -3.50523 -1.92701 -50
      vertex -3.34333 -2.18212 -2.16238
      vertex -3.50523 -1.92701 -2.16238
    endloop
  endfacet
  facet normal -0.844329 -0.535825 5.15768e-08
    outer loop
      vertex -3.23607 -2.35114 -50
      vertex -3.34333 -2.18212 -2.16238
      vertex -3.50523 -1.92701 -50
    endloop
  endfacet
  facet normal -0.844336 -0.535815 0
    outer loop
      vertex -3.34333 -2.18212 -2.16238
      vertex -3.23607 -2.35114 -50
      vertex -3.23607 -2.35114 -2.16238
    endloop
  endfacet
  facet normal -0.982288 -0.187378 0
    outer loop
      vertex -3.96846 -0.501332 -50
      vertex -3.93095 -0.69797 -2.16238
      vertex -3.96846 -0.501332 -2.16238
    endloop
  endfacet
  facet normal -0.982286 -0.187389 -4.52837e-08
    outer loop
      vertex -3.87433 -0.994759 -50
      vertex -3.93095 -0.69797 -2.16238
      vertex -3.96846 -0.501332 -50
    endloop
  endfacet
  facet normal -0.982285 -0.187396 0
    outer loop
      vertex -3.93095 -0.69797 -2.16238
      vertex -3.87433 -0.994759 -50
      vertex -3.87433 -0.994759 -2.16238
    endloop
  endfacet
  facet normal -0.684552 -0.728964 0
    outer loop
      vertex -2.91587 -2.73819 -50
      vertex -2.76995 -2.87522 -2.16238
      vertex -2.91587 -2.73819 -2.16238
    endloop
  endfacet
  facet normal -0.68455 -0.728966 -1.54909e-08
    outer loop
      vertex -2.91587 -2.73819 -50
      vertex -2.5497 -3.08205 -2.16238
      vertex -2.76995 -2.87522 -2.16238
    endloop
  endfacet
  facet normal -0.684551 -0.728965 -0
    outer loop
      vertex -2.5497 -3.08205 -2.16238
      vertex -2.91587 -2.73819 -50
      vertex -2.5497 -3.08205 -50
    endloop
  endfacet
  facet normal -0.587783 -0.809019 0
    outer loop
      vertex -2.5497 -3.08205 -50
      vertex -2.38774 -3.19972 -2.16238
      vertex -2.5497 -3.08205 -2.16238
    endloop
  endfacet
  facet normal -0.587788 -0.809015 2.75577e-08
    outer loop
      vertex -2.5497 -3.08205 -50
      vertex -2.14331 -3.37731 -2.16238
      vertex -2.38774 -3.19972 -2.16238
    endloop
  endfacet
  facet normal -0.587786 -0.809017 -0
    outer loop
      vertex -2.14331 -3.37731 -2.16238
      vertex -2.5497 -3.08205 -50
      vertex -2.14331 -3.37731 -50
    endloop
  endfacet
endsolid OpenSCAD_Model
