  0
SECTION
  2
BLOCKS
  0
ENDSEC
  0
SECTION
  2
ENTITIES
  0
LINE
  8
0
 10
9.87381
 20
11.1771
 11
11.0902
 21
11.4894
  0
LINE
  8
0
 10
11.0902
 20
11.4894
 11
12.2578
 21
11.9517
  0
LINE
  8
0
 10
12.2578
 20
11.9517
 11
13.3583
 21
12.5567
  0
LINE
  8
0
 10
13.3583
 20
12.5567
 11
14.3742
 21
13.2949
  0
LINE
  8
0
 10
14.3742
 20
13.2949
 11
15.2897
 21
14.1545
  0
LINE
  8
0
 10
15.2897
 20
14.1545
 11
16.0902
 21
15.1222
  0
LINE
  8
0
 10
16.0902
 20
15.1222
 11
16.7631
 21
16.1825
  0
LINE
  8
0
 10
16.7631
 20
16.1825
 11
17.2978
 21
17.3188
  0
LINE
  8
0
 10
17.2978
 20
17.3188
 11
17.6858
 21
18.5131
  0
LINE
  8
0
 10
17.6858
 20
18.5131
 11
17.9211
 21
19.7467
  0
LINE
  8
0
 10
17.9211
 20
19.7467
 11
18
 21
21
  0
LINE
  8
0
 10
18
 20
21
 11
18
 21
27
  0
LINE
  8
0
 10
18
 20
27
 11
17.9211
 21
28.2533
  0
LINE
  8
0
 10
17.9211
 20
28.2533
 11
17.6858
 21
29.4869
  0
LINE
  8
0
 10
17.6858
 20
29.4869
 11
17.2978
 21
30.6812
  0
LINE
  8
0
 10
17.2978
 20
30.6812
 11
16.7631
 21
31.8175
  0
LINE
  8
0
 10
16.7631
 20
31.8175
 11
16.0902
 21
32.8778
  0
LINE
  8
0
 10
16.0902
 20
32.8778
 11
15.2897
 21
33.8455
  0
LINE
  8
0
 10
15.2897
 20
33.8455
 11
14.3742
 21
34.7051
  0
LINE
  8
0
 10
14.3742
 20
34.7051
 11
13.3583
 21
35.4433
  0
LINE
  8
0
 10
13.3583
 20
35.4433
 11
12.2578
 21
36.0483
  0
LINE
  8
0
 10
12.2578
 20
36.0483
 11
11.0902
 21
36.5106
  0
LINE
  8
0
 10
11.0902
 20
36.5106
 11
9.87381
 21
36.8229
  0
LINE
  8
0
 10
9.87381
 20
36.8229
 11
8.6279
 21
36.9803
  0
LINE
  8
0
 10
8.6279
 20
36.9803
 11
-8.6279
 21
36.9803
  0
LINE
  8
0
 10
-8.6279
 20
36.9803
 11
-9.87381
 21
36.8229
  0
LINE
  8
0
 10
-9.87381
 20
36.8229
 11
-11.0902
 21
36.5106
  0
LINE
  8
0
 10
-11.0902
 20
36.5106
 11
-12.2578
 21
36.0483
  0
LINE
  8
0
 10
-12.2578
 20
36.0483
 11
-13.3583
 21
35.4433
  0
LINE
  8
0
 10
-13.3583
 20
35.4433
 11
-14.3742
 21
34.7051
  0
LINE
  8
0
 10
-14.3742
 20
34.7051
 11
-15.2897
 21
33.8455
  0
LINE
  8
0
 10
-15.2897
 20
33.8455
 11
-16.0902
 21
32.8778
  0
LINE
  8
0
 10
-16.0902
 20
32.8778
 11
-16.7631
 21
31.8175
  0
LINE
  8
0
 10
-16.7631
 20
31.8175
 11
-17.2978
 21
30.6812
  0
LINE
  8
0
 10
-17.2978
 20
30.6812
 11
-17.6858
 21
29.4869
  0
LINE
  8
0
 10
-17.6858
 20
29.4869
 11
-17.9211
 21
28.2533
  0
LINE
  8
0
 10
-17.9211
 20
28.2533
 11
-18
 21
27
  0
LINE
  8
0
 10
-18
 20
27
 11
-18
 21
21
  0
LINE
  8
0
 10
-18
 20
21
 11
-17.9211
 21
19.7467
  0
LINE
  8
0
 10
-17.9211
 20
19.7467
 11
-17.6858
 21
18.5131
  0
LINE
  8
0
 10
-17.6858
 20
18.5131
 11
-17.2978
 21
17.3188
  0
LINE
  8
0
 10
-17.2978
 20
17.3188
 11
-16.7631
 21
16.1825
  0
LINE
  8
0
 10
-16.7631
 20
16.1825
 11
-16.0902
 21
15.1222
  0
LINE
  8
0
 10
-16.0902
 20
15.1222
 11
-15.2897
 21
14.1545
  0
LINE
  8
0
 10
-15.2897
 20
14.1545
 11
-14.3742
 21
13.2949
  0
LINE
  8
0
 10
-14.3742
 20
13.2949
 11
-13.3583
 21
12.5567
  0
LINE
  8
0
 10
-13.3583
 20
12.5567
 11
-12.2578
 21
11.9517
  0
LINE
  8
0
 10
-12.2578
 20
11.9517
 11
-11.0902
 21
11.4894
  0
LINE
  8
0
 10
-11.0902
 20
11.4894
 11
-9.87381
 21
11.1771
  0
LINE
  8
0
 10
-9.87381
 20
11.1771
 11
-8.6279
 21
11.0197
  0
LINE
  8
0
 10
-8.6279
 20
11.0197
 11
8.6279
 21
11.0197
  0
LINE
  8
0
 10
8.6279
 20
11.0197
 11
9.87381
 21
11.1771
  0
LINE
  8
0
 10
-0.249115
 20
20.0403
 11
-0.743439
 21
20.1027
  0
LINE
  8
0
 10
-0.743439
 20
20.1027
 11
-1.22604
 21
20.2266
  0
LINE
  8
0
 10
-1.22604
 20
20.2266
 11
-1.6893
 21
20.41
  0
LINE
  8
0
 10
-1.6893
 20
20.41
 11
-2.12592
 21
20.6501
  0
LINE
  8
0
 10
-2.12592
 20
20.6501
 11
-2.52902
 21
20.9429
  0
LINE
  8
0
 10
-2.52902
 20
20.9429
 11
-2.89223
 21
21.284
  0
LINE
  8
0
 10
-2.89223
 20
21.284
 11
-3.20982
 21
21.6679
  0
LINE
  8
0
 10
-3.20982
 20
21.6679
 11
-3.47679
 21
22.0886
  0
LINE
  8
0
 10
-3.47679
 20
22.0886
 11
-3.68895
 21
22.5394
  0
LINE
  8
0
 10
-3.68895
 20
22.5394
 11
-3.84291
 21
23.0133
  0
LINE
  8
0
 10
-3.84291
 20
23.0133
 11
-3.93628
 21
23.5027
  0
LINE
  8
0
 10
-3.93628
 20
23.5027
 11
-3.96756
 21
24
  0
LINE
  8
0
 10
-3.96756
 20
24
 11
-3.93628
 21
24.4973
  0
LINE
  8
0
 10
-3.93628
 20
24.4973
 11
-3.84291
 21
24.9867
  0
LINE
  8
0
 10
-3.84291
 20
24.9867
 11
-3.68895
 21
25.4606
  0
LINE
  8
0
 10
-3.68895
 20
25.4606
 11
-3.47679
 21
25.9114
  0
LINE
  8
0
 10
-3.47679
 20
25.9114
 11
-3.20982
 21
26.3321
  0
LINE
  8
0
 10
-3.20982
 20
26.3321
 11
-2.89223
 21
26.716
  0
LINE
  8
0
 10
-2.89223
 20
26.716
 11
-2.52902
 21
27.0571
  0
LINE
  8
0
 10
-2.52902
 20
27.0571
 11
-2.12592
 21
27.3499
  0
LINE
  8
0
 10
-2.12592
 20
27.3499
 11
-1.6893
 21
27.59
  0
LINE
  8
0
 10
-1.6893
 20
27.59
 11
-1.22604
 21
27.7734
  0
LINE
  8
0
 10
-1.22604
 20
27.7734
 11
-0.743439
 21
27.8973
  0
LINE
  8
0
 10
-0.743439
 20
27.8973
 11
-0.249115
 21
27.9597
  0
LINE
  8
0
 10
-0.249115
 20
27.9597
 11
0.249115
 21
27.9597
  0
LINE
  8
0
 10
0.249115
 20
27.9597
 11
0.743439
 21
27.8973
  0
LINE
  8
0
 10
0.743439
 20
27.8973
 11
1.22604
 21
27.7734
  0
LINE
  8
0
 10
1.22604
 20
27.7734
 11
1.6893
 21
27.59
  0
LINE
  8
0
 10
1.6893
 20
27.59
 11
2.12592
 21
27.3499
  0
LINE
  8
0
 10
2.12592
 20
27.3499
 11
2.52902
 21
27.0571
  0
LINE
  8
0
 10
2.52902
 20
27.0571
 11
2.89223
 21
26.716
  0
LINE
  8
0
 10
2.89223
 20
26.716
 11
3.20982
 21
26.3321
  0
LINE
  8
0
 10
3.20982
 20
26.3321
 11
3.47679
 21
25.9114
  0
LINE
  8
0
 10
3.47679
 20
25.9114
 11
3.68895
 21
25.4606
  0
LINE
  8
0
 10
3.68895
 20
25.4606
 11
3.84291
 21
24.9867
  0
LINE
  8
0
 10
3.84291
 20
24.9867
 11
3.93628
 21
24.4973
  0
LINE
  8
0
 10
3.93628
 20
24.4973
 11
3.96756
 21
24
  0
LINE
  8
0
 10
3.96756
 20
24
 11
3.93628
 21
23.5027
  0
LINE
  8
0
 10
3.93628
 20
23.5027
 11
3.84291
 21
23.0133
  0
LINE
  8
0
 10
3.84291
 20
23.0133
 11
3.68895
 21
22.5394
  0
LINE
  8
0
 10
3.68895
 20
22.5394
 11
3.47679
 21
22.0886
  0
LINE
  8
0
 10
3.47679
 20
22.0886
 11
3.20982
 21
21.6679
  0
LINE
  8
0
 10
3.20982
 20
21.6679
 11
2.89223
 21
21.284
  0
LINE
  8
0
 10
2.89223
 20
21.284
 11
2.52902
 21
20.9429
  0
LINE
  8
0
 10
2.52902
 20
20.9429
 11
2.12592
 21
20.6501
  0
LINE
  8
0
 10
2.12592
 20
20.6501
 11
1.6893
 21
20.41
  0
LINE
  8
0
 10
1.6893
 20
20.41
 11
1.22604
 21
20.2266
  0
LINE
  8
0
 10
1.22604
 20
20.2266
 11
0.743439
 21
20.1027
  0
LINE
  8
0
 10
0.743439
 20
20.1027
 11
0.249115
 21
20.0403
  0
LINE
  8
0
 10
0.249115
 20
20.0403
 11
-0.249115
 21
20.0403
  0
LINE
  8
0
 10
6.87381
 20
-9.82286
 11
8.09016
 21
-9.51056
  0
LINE
  8
0
 10
8.09016
 20
-9.51056
 11
9.25778
 21
-9.04826
  0
LINE
  8
0
 10
9.25778
 20
-9.04826
 11
10.3583
 21
-8.44327
  0
LINE
  8
0
 10
10.3583
 20
-8.44327
 11
11.3742
 21
-7.70512
  0
LINE
  8
0
 10
11.3742
 20
-7.70512
 11
12.2897
 21
-6.84546
  0
LINE
  8
0
 10
12.2897
 20
-6.84546
 11
13.0902
 21
-5.87784
  0
LINE
  8
0
 10
13.0902
 20
-5.87784
 11
13.7631
 21
-4.81754
  0
LINE
  8
0
 10
13.7631
 20
-4.81754
 11
14.2978
 21
-3.68124
  0
LINE
  8
0
 10
14.2978
 20
-3.68124
 11
14.6858
 21
-2.48689
  0
LINE
  8
0
 10
14.6858
 20
-2.48689
 11
14.9211
 21
-1.25333
  0
LINE
  8
0
 10
14.9211
 20
-1.25333
 11
15
 21
0
  0
LINE
  8
0
 10
15
 20
0
 11
14.9211
 21
1.25333
  0
LINE
  8
0
 10
14.9211
 20
1.25333
 11
14.6858
 21
2.48689
  0
LINE
  8
0
 10
14.6858
 20
2.48689
 11
14.2978
 21
3.68124
  0
LINE
  8
0
 10
14.2978
 20
3.68124
 11
13.7631
 21
4.81754
  0
LINE
  8
0
 10
13.7631
 20
4.81754
 11
13.0902
 21
5.87784
  0
LINE
  8
0
 10
13.0902
 20
5.87784
 11
12.2897
 21
6.84546
  0
LINE
  8
0
 10
12.2897
 20
6.84546
 11
11.3742
 21
7.70512
  0
LINE
  8
0
 10
11.3742
 20
7.70512
 11
10.3583
 21
8.44327
  0
LINE
  8
0
 10
10.3583
 20
8.44327
 11
9.25778
 21
9.04826
  0
LINE
  8
0
 10
9.25778
 20
9.04826
 11
8.09016
 21
9.51056
  0
LINE
  8
0
 10
8.09016
 20
9.51056
 11
6.87381
 21
9.82286
  0
LINE
  8
0
 10
6.87381
 20
9.82286
 11
5.6279
 21
9.98026
  0
LINE
  8
0
 10
5.6279
 20
9.98026
 11
-5.6279
 21
9.98026
  0
LINE
  8
0
 10
-5.6279
 20
9.98026
 11
-6.87381
 21
9.82286
  0
LINE
  8
0
 10
-6.87381
 20
9.82286
 11
-8.09016
 21
9.51056
  0
LINE
  8
0
 10
-8.09016
 20
9.51056
 11
-9.25778
 21
9.04826
  0
LINE
  8
0
 10
-9.25778
 20
9.04826
 11
-10.3583
 21
8.44327
  0
LINE
  8
0
 10
-10.3583
 20
8.44327
 11
-11.3742
 21
7.70512
  0
LINE
  8
0
 10
-11.3742
 20
7.70512
 11
-12.2897
 21
6.84546
  0
LINE
  8
0
 10
-12.2897
 20
6.84546
 11
-13.0902
 21
5.87784
  0
LINE
  8
0
 10
-13.0902
 20
5.87784
 11
-13.7631
 21
4.81754
  0
LINE
  8
0
 10
-13.7631
 20
4.81754
 11
-14.2978
 21
3.68124
  0
LINE
  8
0
 10
-14.2978
 20
3.68124
 11
-14.6858
 21
2.48689
  0
LINE
  8
0
 10
-14.6858
 20
2.48689
 11
-14.9211
 21
1.25333
  0
LINE
  8
0
 10
-14.9211
 20
1.25333
 11
-15
 21
0
  0
LINE
  8
0
 10
-15
 20
0
 11
-14.9211
 21
-1.25333
  0
LINE
  8
0
 10
-14.9211
 20
-1.25333
 11
-14.6858
 21
-2.48689
  0
LINE
  8
0
 10
-14.6858
 20
-2.48689
 11
-14.2978
 21
-3.68124
  0
LINE
  8
0
 10
-14.2978
 20
-3.68124
 11
-13.7631
 21
-4.81754
  0
LINE
  8
0
 10
-13.7631
 20
-4.81754
 11
-13.0902
 21
-5.87784
  0
LINE
  8
0
 10
-13.0902
 20
-5.87784
 11
-12.2897
 21
-6.84546
  0
LINE
  8
0
 10
-12.2897
 20
-6.84546
 11
-11.3742
 21
-7.70512
  0
LINE
  8
0
 10
-11.3742
 20
-7.70512
 11
-10.3583
 21
-8.44327
  0
LINE
  8
0
 10
-10.3583
 20
-8.44327
 11
-9.25778
 21
-9.04826
  0
LINE
  8
0
 10
-9.25778
 20
-9.04826
 11
-8.09016
 21
-9.51056
  0
LINE
  8
0
 10
-8.09016
 20
-9.51056
 11
-6.87381
 21
-9.82286
  0
LINE
  8
0
 10
-6.87381
 20
-9.82286
 11
-5.6279
 21
-9.98026
  0
LINE
  8
0
 10
-5.6279
 20
-9.98026
 11
5.6279
 21
-9.98026
  0
LINE
  8
0
 10
5.6279
 20
-9.98026
 11
6.87381
 21
-9.82286
  0
LINE
  8
0
 10
-0.180511
 20
-2.86932
 11
-0.538712
 21
-2.82407
  0
LINE
  8
0
 10
-0.538712
 20
-2.82407
 11
-0.888412
 21
-2.73428
  0
LINE
  8
0
 10
-0.888412
 20
-2.73428
 11
-1.22411
 21
-2.60136
  0
LINE
  8
0
 10
-1.22411
 20
-2.60136
 11
-1.5405
 21
-2.42743
  0
LINE
  8
0
 10
-1.5405
 20
-2.42743
 11
-1.83258
 21
-2.21523
  0
LINE
  8
0
 10
-1.83258
 20
-2.21523
 11
-2.09578
 21
-1.96806
  0
LINE
  8
0
 10
-2.09578
 20
-1.96806
 11
-2.32591
 21
-1.68988
  0
LINE
  8
0
 10
-2.32591
 20
-1.68988
 11
-2.51938
 21
-1.38504
  0
LINE
  8
0
 10
-2.51938
 20
-1.38504
 11
-2.6731
 21
-1.05835
  0
LINE
  8
0
 10
-2.6731
 20
-1.05835
 11
-2.78467
 21
-0.714981
  0
LINE
  8
0
 10
-2.78467
 20
-0.714981
 11
-2.85233
 21
-0.360321
  0
LINE
  8
0
 10
-2.85233
 20
-0.360321
 11
-2.875
 21
0
  0
LINE
  8
0
 10
-2.875
 20
0
 11
-2.85233
 21
0.360321
  0
LINE
  8
0
 10
-2.85233
 20
0.360321
 11
-2.78467
 21
0.714981
  0
LINE
  8
0
 10
-2.78467
 20
0.714981
 11
-2.6731
 21
1.05835
  0
LINE
  8
0
 10
-2.6731
 20
1.05835
 11
-2.51938
 21
1.38504
  0
LINE
  8
0
 10
-2.51938
 20
1.38504
 11
-2.32591
 21
1.68988
  0
LINE
  8
0
 10
-2.32591
 20
1.68988
 11
-2.09578
 21
1.96806
  0
LINE
  8
0
 10
-2.09578
 20
1.96806
 11
-1.83258
 21
2.21523
  0
LINE
  8
0
 10
-1.83258
 20
2.21523
 11
-1.5405
 21
2.42743
  0
LINE
  8
0
 10
-1.5405
 20
2.42743
 11
-1.22411
 21
2.60136
  0
LINE
  8
0
 10
-1.22411
 20
2.60136
 11
-0.888412
 21
2.73428
  0
LINE
  8
0
 10
-0.888412
 20
2.73428
 11
-0.538712
 21
2.82407
  0
LINE
  8
0
 10
-0.538712
 20
2.82407
 11
-0.180511
 21
2.86932
  0
LINE
  8
0
 10
-0.180511
 20
2.86932
 11
0.180511
 21
2.86932
  0
LINE
  8
0
 10
0.180511
 20
2.86932
 11
0.538712
 21
2.82407
  0
LINE
  8
0
 10
0.538712
 20
2.82407
 11
0.888412
 21
2.73428
  0
LINE
  8
0
 10
0.888412
 20
2.73428
 11
1.22411
 21
2.60136
  0
LINE
  8
0
 10
1.22411
 20
2.60136
 11
1.5405
 21
2.42743
  0
LINE
  8
0
 10
1.5405
 20
2.42743
 11
1.83258
 21
2.21523
  0
LINE
  8
0
 10
1.83258
 20
2.21523
 11
2.09578
 21
1.96806
  0
LINE
  8
0
 10
2.09578
 20
1.96806
 11
2.32591
 21
1.68988
  0
LINE
  8
0
 10
2.32591
 20
1.68988
 11
2.51938
 21
1.38504
  0
LINE
  8
0
 10
2.51938
 20
1.38504
 11
2.6731
 21
1.05835
  0
LINE
  8
0
 10
2.6731
 20
1.05835
 11
2.78467
 21
0.714981
  0
LINE
  8
0
 10
2.78467
 20
0.714981
 11
2.85233
 21
0.360321
  0
LINE
  8
0
 10
2.85233
 20
0.360321
 11
2.875
 21
0
  0
LINE
  8
0
 10
2.875
 20
0
 11
2.85233
 21
-0.360321
  0
LINE
  8
0
 10
2.85233
 20
-0.360321
 11
2.78467
 21
-0.714981
  0
LINE
  8
0
 10
2.78467
 20
-0.714981
 11
2.6731
 21
-1.05835
  0
LINE
  8
0
 10
2.6731
 20
-1.05835
 11
2.51938
 21
-1.38504
  0
LINE
  8
0
 10
2.51938
 20
-1.38504
 11
2.32591
 21
-1.68988
  0
LINE
  8
0
 10
2.32591
 20
-1.68988
 11
2.09578
 21
-1.96806
  0
LINE
  8
0
 10
2.09578
 20
-1.96806
 11
1.83258
 21
-2.21523
  0
LINE
  8
0
 10
1.83258
 20
-2.21523
 11
1.5405
 21
-2.42743
  0
LINE
  8
0
 10
1.5405
 20
-2.42743
 11
1.22411
 21
-2.60136
  0
LINE
  8
0
 10
1.22411
 20
-2.60136
 11
0.888412
 21
-2.73428
  0
LINE
  8
0
 10
0.888412
 20
-2.73428
 11
0.538712
 21
-2.82407
  0
LINE
  8
0
 10
0.538712
 20
-2.82407
 11
0.180511
 21
-2.86932
  0
LINE
  8
0
 10
0.180511
 20
-2.86932
 11
-0.180511
 21
-2.86932
  0
ENDSEC
  0
SECTION
  2
OBJECTS
  0
DICTIONARY
  0
ENDSEC
  0
EOF
