<?xml version="1.0" standalone="no"?>
<!DOCTYPE svg PUBLIC "-//W3C//DTD SVG 1.1//EN" "http://www.w3.org/Graphics/SVG/1.1/DTD/svg11.dtd">
<svg width="36mm" height="47mm" viewBox="-18 -37 36 47" xmlns="http://www.w3.org/2000/svg" version="1.1">
<title>OpenSCAD Model</title>
<path d="
M 9.87381,-11.1771 L 11.0902,-11.4894 L 12.2578,-11.9517 L 13.3583,-12.5567 L 14.3742,-13.2949 L 15.2897,-14.1545
 L 16.0902,-15.1222 L 16.7631,-16.1825 L 17.2978,-17.3188 L 17.6858,-18.5131 L 17.9211,-19.7467 L 18,-21
 L 18,-27 L 17.9211,-28.2533 L 17.6858,-29.4869 L 17.2978,-30.6812 L 16.7631,-31.8175 L 16.0902,-32.8778
 L 15.2897,-33.8455 L 14.3742,-34.7051 L 13.3583,-35.4433 L 12.2578,-36.0483 L 11.0902,-36.5106 L 9.87381,-36.8229
 L 8.6279,-36.9803 L -8.6279,-36.9803 L -9.87381,-36.8229 L -11.0902,-36.5106 L -12.2578,-36.0483 L -13.3583,-35.4433
 L -14.3742,-34.7051 L -15.2897,-33.8455 L -16.0902,-32.8778 L -16.7631,-31.8175 L -17.2978,-30.6812 L -17.6858,-29.4869
 L -17.9211,-28.2533 L -18,-27 L -18,-21 L -17.9211,-19.7467 L -17.6858,-18.5131 L -17.2978,-17.3188
 L -16.7631,-16.1825 L -16.0902,-15.1222 L -15.2897,-14.1545 L -14.3742,-13.2949 L -13.3583,-12.5567 L -12.2578,-11.9517
 L -11.0902,-11.4894 L -9.87381,-11.1771 L -8.6279,-11.0197 L 8.6279,-11.0197 z
M -0.249115,-20.0403 L -0.743439,-20.1027 L -1.22604,-20.2266 L -1.6893,-20.41 L -2.12592,-20.6501 L -2.52902,-20.9429
 L -2.89223,-21.284 L -3.20982,-21.6679 L -3.47679,-22.0886 L -3.68895,-22.5394 L -3.84291,-23.0133 L -3.93628,-23.5027
 L -3.96756,-24 L -3.93628,-24.4973 L -3.84291,-24.9867 L -3.68895,-25.4606 L -3.47679,-25.9114 L -3.20982,-26.3321
 L -2.89223,-26.716 L -2.52902,-27.0571 L -2.12592,-27.3499 L -1.6893,-27.59 L -1.22604,-27.7734 L -0.743439,-27.8973
 L -0.249115,-27.9597 L 0.249115,-27.9597 L 0.743439,-27.8973 L 1.22604,-27.7734 L 1.6893,-27.59 L 2.12592,-27.3499
 L 2.52902,-27.0571 L 2.89223,-26.716 L 3.20982,-26.3321 L 3.47679,-25.9114 L 3.68895,-25.4606 L 3.84291,-24.9867
 L 3.93628,-24.4973 L 3.96756,-24 L 3.93628,-23.5027 L 3.84291,-23.0133 L 3.68895,-22.5394 L 3.47679,-22.0886
 L 3.20982,-21.6679 L 2.89223,-21.284 L 2.52902,-20.9429 L 2.12592,-20.6501 L 1.6893,-20.41 L 1.22604,-20.2266
 L 0.743439,-20.1027 L 0.249115,-20.0403 z
M 6.87381,9.82286 L 8.09016,9.51056 L 9.25778,9.04826 L 10.3583,8.44327 L 11.3742,7.70512 L 12.2897,6.84546
 L 13.0902,5.87784 L 13.7631,4.81754 L 14.2978,3.68124 L 14.6858,2.48689 L 14.9211,1.25333 L 15,-0
 L 14.9211,-1.25333 L 14.6858,-2.48689 L 14.2978,-3.68124 L 13.7631,-4.81754 L 13.0902,-5.87784 L 12.2897,-6.84546
 L 11.3742,-7.70512 L 10.3583,-8.44327 L 9.25778,-9.04826 L 8.09016,-9.51056 L 6.87381,-9.82286 L 5.6279,-9.98026
 L -5.6279,-9.98026 L -6.87381,-9.82286 L -8.09016,-9.51056 L -9.25778,-9.04826 L -10.3583,-8.44327 L -11.3742,-7.70512
 L -12.2897,-6.84546 L -13.0902,-5.87784 L -13.7631,-4.81754 L -14.2978,-3.68124 L -14.6858,-2.48689 L -14.9211,-1.25333
 L -15,-0 L -14.9211,1.25333 L -14.6858,2.48689 L -14.2978,3.68124 L -13.7631,4.81754 L -13.0902,5.87784
 L -12.2897,6.84546 L -11.3742,7.70512 L -10.3583,8.44327 L -9.25778,9.04826 L -8.09016,9.51056 L -6.87381,9.82286
 L -5.6279,9.98026 L 5.6279,9.98026 z
M -0.180511,2.86932 L -0.538712,2.82407 L -0.888412,2.73428 L -1.22411,2.60136 L -1.5405,2.42743 L -1.83258,2.21523
 L -2.09578,1.96806 L -2.32591,1.68988 L -2.51938,1.38504 L -2.6731,1.05835 L -2.78467,0.714981 L -2.85233,0.360321
 L -2.875,-0 L -2.85233,-0.360321 L -2.78467,-0.714981 L -2.6731,-1.05835 L -2.51938,-1.38504 L -2.32591,-1.68988
 L -2.09578,-1.96806 L -1.83258,-2.21523 L -1.5405,-2.42743 L -1.22411,-2.60136 L -0.888412,-2.73428 L -0.538712,-2.82407
 L -0.180511,-2.86932 L 0.180511,-2.86932 L 0.538712,-2.82407 L 0.888412,-2.73428 L 1.22411,-2.60136 L 1.5405,-2.42743
 L 1.83258,-2.21523 L 2.09578,-1.96806 L 2.32591,-1.68988 L 2.51938,-1.38504 L 2.6731,-1.05835 L 2.78467,-0.714981
 L 2.85233,-0.360321 L 2.875,-0 L 2.85233,0.360321 L 2.78467,0.714981 L 2.6731,1.05835 L 2.51938,1.38504
 L 2.32591,1.68988 L 2.09578,1.96806 L 1.83258,2.21523 L 1.5405,2.42743 L 1.22411,2.60136 L 0.888412,2.73428
 L 0.538712,2.82407 L 0.180511,2.86932 z
" stroke="black" fill="lightgray" stroke-width="0.5"/>
</svg>
