solid OpenSCAD_Model
  facet normal 0.998027 0.0627869 0
    outer loop
      vertex 16.5 0 0
      vertex 16.3699 2.068 -4
      vertex 16.3699 2.068 0
    endloop
  endfacet
  facet normal 0.998027 0.0627869 0
    outer loop
      vertex 16.3699 2.068 -4
      vertex 16.5 0 0
      vertex 16.5 0 -4
    endloop
  endfacet
  facet normal -0.998027 0.0627869 0
    outer loop
      vertex -16.5 0 -4
      vertex -16.3699 2.068 0
      vertex -16.3699 2.068 -4
    endloop
  endfacet
  facet normal -0.998027 0.0627869 0
    outer loop
      vertex -16.3699 2.068 0
      vertex -16.5 0 -4
      vertex -16.5 0 0
    endloop
  endfacet
  facet normal 0 1 -0
    outer loop
      vertex 1.03604 16.4674 -4
      vertex -1.03604 16.4674 0
      vertex 1.03604 16.4674 0
    endloop
  endfacet
  facet normal 0 1 0
    outer loop
      vertex -1.03604 16.4674 0
      vertex 1.03604 16.4674 -4
      vertex -1.03604 16.4674 -4
    endloop
  endfacet
  facet normal 0 -1 0
    outer loop
      vertex -1.03604 -16.4674 -4
      vertex 1.03604 -16.4674 0
      vertex -1.03604 -16.4674 0
    endloop
  endfacet
  facet normal 0 -1 -0
    outer loop
      vertex 1.03604 -16.4674 0
      vertex -1.03604 -16.4674 -4
      vertex 1.03604 -16.4674 -4
    endloop
  endfacet
  facet normal 0.684559 0.728958 -0
    outer loop
      vertex 12.028 11.295 -4
      vertex 10.5175 12.7135 0
      vertex 12.028 11.295 0
    endloop
  endfacet
  facet normal 0.684559 0.728958 0
    outer loop
      vertex 10.5175 12.7135 0
      vertex 12.028 11.295 -4
      vertex 10.5175 12.7135 -4
    endloop
  endfacet
  facet normal -0.684559 0.728958 0
    outer loop
      vertex -10.5175 12.7135 -4
      vertex -12.028 11.295 0
      vertex -10.5175 12.7135 0
    endloop
  endfacet
  facet normal -0.684559 0.728958 0
    outer loop
      vertex -12.028 11.295 0
      vertex -10.5175 12.7135 -4
      vertex -12.028 11.295 -4
    endloop
  endfacet
  facet normal -0.36813 0.929774 0
    outer loop
      vertex -5.09878 15.6924 -4
      vertex -7.02536 14.9296 0
      vertex -5.09878 15.6924 0
    endloop
  endfacet
  facet normal -0.36813 0.929774 0
    outer loop
      vertex -7.02536 14.9296 0
      vertex -5.09878 15.6924 -4
      vertex -7.02536 14.9296 -4
    endloop
  endfacet
  facet normal 0.904838 0.425757 0
    outer loop
      vertex 15.3413 6.07405 0
      vertex 14.4591 7.94894 -4
      vertex 14.4591 7.94894 0
    endloop
  endfacet
  facet normal 0.904838 0.425757 0
    outer loop
      vertex 14.4591 7.94894 -4
      vertex 15.3413 6.07405 0
      vertex 15.3413 6.07405 -4
    endloop
  endfacet
  facet normal 0.982285 0.187396 0
    outer loop
      vertex 16.3699 2.068 0
      vertex 15.9816 4.10338 -4
      vertex 15.9816 4.10338 0
    endloop
  endfacet
  facet normal 0.982285 0.187396 0
    outer loop
      vertex 15.9816 4.10338 -4
      vertex 16.3699 2.068 0
      vertex 16.3699 2.068 -4
    endloop
  endfacet
  facet normal 0.36813 0.929774 -0
    outer loop
      vertex 7.02536 14.9296 -4
      vertex 5.09878 15.6924 0
      vertex 7.02536 14.9296 0
    endloop
  endfacet
  facet normal 0.36813 0.929774 0
    outer loop
      vertex 5.09878 15.6924 0
      vertex 7.02536 14.9296 -4
      vertex 5.09878 15.6924 -4
    endloop
  endfacet
  facet normal 0.481741 0.876314 -0
    outer loop
      vertex 8.84114 13.9314 -4
      vertex 7.02536 14.9296 0
      vertex 8.84114 13.9314 0
    endloop
  endfacet
  facet normal 0.481741 0.876314 0
    outer loop
      vertex 7.02536 14.9296 0
      vertex 8.84114 13.9314 -4
      vertex 7.02536 14.9296 -4
    endloop
  endfacet
  facet normal -0.904838 0.425757 0
    outer loop
      vertex -15.3413 6.07405 -4
      vertex -14.4591 7.94894 0
      vertex -14.4591 7.94894 -4
    endloop
  endfacet
  facet normal -0.904838 0.425757 0
    outer loop
      vertex -14.4591 7.94894 0
      vertex -15.3413 6.07405 -4
      vertex -15.3413 6.07405 0
    endloop
  endfacet
  facet normal -0.951058 0.309013 0
    outer loop
      vertex -15.9816 4.10338 -4
      vertex -15.3413 6.07405 0
      vertex -15.3413 6.07405 -4
    endloop
  endfacet
  facet normal -0.951058 0.309013 0
    outer loop
      vertex -15.3413 6.07405 0
      vertex -15.9816 4.10338 -4
      vertex -15.9816 4.10338 0
    endloop
  endfacet
  facet normal -0.481741 0.876314 0
    outer loop
      vertex -7.02536 14.9296 -4
      vertex -8.84114 13.9314 0
      vertex -7.02536 14.9296 0
    endloop
  endfacet
  facet normal -0.481741 0.876314 0
    outer loop
      vertex -8.84114 13.9314 0
      vertex -7.02536 14.9296 -4
      vertex -8.84114 13.9314 -4
    endloop
  endfacet
  facet normal -0.248687 0.968584 0
    outer loop
      vertex -3.09179 16.2077 -4
      vertex -5.09878 15.6924 0
      vertex -3.09179 16.2077 0
    endloop
  endfacet
  facet normal -0.248687 0.968584 0
    outer loop
      vertex -5.09878 15.6924 0
      vertex -3.09179 16.2077 -4
      vertex -5.09878 15.6924 -4
    endloop
  endfacet
  facet normal 0.36813 -0.929774 0
    outer loop
      vertex 5.09878 -15.6924 -4
      vertex 7.02536 -14.9296 0
      vertex 5.09878 -15.6924 0
    endloop
  endfacet
  facet normal 0.36813 -0.929774 0
    outer loop
      vertex 7.02536 -14.9296 0
      vertex 5.09878 -15.6924 -4
      vertex 7.02536 -14.9296 -4
    endloop
  endfacet
  facet normal 0.951058 0.309013 0
    outer loop
      vertex 15.9816 4.10338 0
      vertex 15.3413 6.07405 -4
      vertex 15.3413 6.07405 0
    endloop
  endfacet
  facet normal 0.951058 0.309013 0
    outer loop
      vertex 15.3413 6.07405 -4
      vertex 15.9816 4.10338 0
      vertex 15.9816 4.10338 -4
    endloop
  endfacet
  facet normal 0.770507 0.637432 0
    outer loop
      vertex 13.3488 9.69846 0
      vertex 12.028 11.295 -4
      vertex 12.028 11.295 0
    endloop
  endfacet
  facet normal 0.770507 0.637432 0
    outer loop
      vertex 12.028 11.295 -4
      vertex 13.3488 9.69846 0
      vertex 13.3488 9.69846 -4
    endloop
  endfacet
  facet normal 0.844323 0.535834 0
    outer loop
      vertex 14.4591 7.94894 0
      vertex 13.3488 9.69846 -4
      vertex 13.3488 9.69846 0
    endloop
  endfacet
  facet normal 0.844323 0.535834 0
    outer loop
      vertex 13.3488 9.69846 -4
      vertex 14.4591 7.94894 0
      vertex 14.4591 7.94894 -4
    endloop
  endfacet
  facet normal 0.248687 0.968584 -0
    outer loop
      vertex 5.09878 15.6924 -4
      vertex 3.09179 16.2077 0
      vertex 5.09878 15.6924 0
    endloop
  endfacet
  facet normal 0.248687 0.968584 0
    outer loop
      vertex 3.09179 16.2077 0
      vertex 5.09878 15.6924 -4
      vertex 3.09179 16.2077 -4
    endloop
  endfacet
  facet normal 0.125332 0.992115 -0
    outer loop
      vertex 3.09179 16.2077 -4
      vertex 1.03604 16.4674 0
      vertex 3.09179 16.2077 0
    endloop
  endfacet
  facet normal 0.125332 0.992115 0
    outer loop
      vertex 1.03604 16.4674 0
      vertex 3.09179 16.2077 -4
      vertex 1.03604 16.4674 -4
    endloop
  endfacet
  facet normal 0.58777 0.809028 -0
    outer loop
      vertex 10.5175 12.7135 -4
      vertex 8.84114 13.9314 0
      vertex 10.5175 12.7135 0
    endloop
  endfacet
  facet normal 0.58777 0.809028 0
    outer loop
      vertex 8.84114 13.9314 0
      vertex 10.5175 12.7135 -4
      vertex 8.84114 13.9314 -4
    endloop
  endfacet
  facet normal -0.844323 0.535834 0
    outer loop
      vertex -14.4591 7.94894 -4
      vertex -13.3488 9.69846 0
      vertex -13.3488 9.69846 -4
    endloop
  endfacet
  facet normal -0.844323 0.535834 0
    outer loop
      vertex -13.3488 9.69846 0
      vertex -14.4591 7.94894 -4
      vertex -14.4591 7.94894 0
    endloop
  endfacet
  facet normal -0.770507 0.637432 0
    outer loop
      vertex -13.3488 9.69846 -4
      vertex -12.028 11.295 0
      vertex -12.028 11.295 -4
    endloop
  endfacet
  facet normal -0.770507 0.637432 0
    outer loop
      vertex -12.028 11.295 0
      vertex -13.3488 9.69846 -4
      vertex -13.3488 9.69846 0
    endloop
  endfacet
  facet normal -0.982285 0.187396 0
    outer loop
      vertex -16.3699 2.068 -4
      vertex -15.9816 4.10338 0
      vertex -15.9816 4.10338 -4
    endloop
  endfacet
  facet normal -0.982285 0.187396 0
    outer loop
      vertex -15.9816 4.10338 0
      vertex -16.3699 2.068 -4
      vertex -16.3699 2.068 0
    endloop
  endfacet
  facet normal 0 0 1
    outer loop
      vertex 10.6 0 0
      vertex 16.5 0 0
      vertex 16.3699 2.068 0
    endloop
  endfacet
  facet normal 0 0 1
    outer loop
      vertex 10.5164 1.32853 0
      vertex 16.3699 2.068 0
      vertex 15.9816 4.10338 0
    endloop
  endfacet
  facet normal 0 0 1
    outer loop
      vertex 16.5 0 0
      vertex 10.6 0 0
      vertex 16.3699 -2.068 0
    endloop
  endfacet
  facet normal 0 0 1
    outer loop
      vertex 10.267 2.63611 0
      vertex 15.9816 4.10338 0
      vertex 15.3413 6.07405 0
    endloop
  endfacet
  facet normal -0 0 1
    outer loop
      vertex 10.5164 -1.32853 0
      vertex 16.3699 -2.068 0
      vertex 10.6 0 0
    endloop
  endfacet
  facet normal 0 0 1
    outer loop
      vertex 9.85563 3.90212 0
      vertex 15.3413 6.07405 0
      vertex 14.4591 7.94894 0
    endloop
  endfacet
  facet normal 0 0 1
    outer loop
      vertex 16.3699 -2.068 0
      vertex 10.5164 -1.32853 0
      vertex 15.9816 -4.10338 0
    endloop
  endfacet
  facet normal 0 0 1
    outer loop
      vertex 9.28885 5.10659 0
      vertex 14.4591 7.94894 0
      vertex 13.3488 9.69846 0
    endloop
  endfacet
  facet normal -0 0 1
    outer loop
      vertex 10.267 -2.63611 0
      vertex 15.9816 -4.10338 0
      vertex 10.5164 -1.32853 0
    endloop
  endfacet
  facet normal 0 0 1
    outer loop
      vertex 8.57558 6.23052 0
      vertex 13.3488 9.69846 0
      vertex 12.028 11.295 0
    endloop
  endfacet
  facet normal 0 0 1
    outer loop
      vertex 15.9816 -4.10338 0
      vertex 10.267 -2.63611 0
      vertex 15.3413 -6.07405 0
    endloop
  endfacet
  facet normal -0 0 1
    outer loop
      vertex 9.85563 -3.90212 0
      vertex 15.3413 -6.07405 0
      vertex 10.267 -2.63611 0
    endloop
  endfacet
  facet normal 0 0 1
    outer loop
      vertex 7.72707 7.2562 0
      vertex 12.028 11.295 0
      vertex 10.5175 12.7135 0
    endloop
  endfacet
  facet normal 0 0 1
    outer loop
      vertex 16.3699 2.068 0
      vertex 10.5164 1.32853 0
      vertex 10.6 0 0
    endloop
  endfacet
  facet normal 0 0 1
    outer loop
      vertex 15.9816 4.10338 0
      vertex 10.267 2.63611 0
      vertex 10.5164 1.32853 0
    endloop
  endfacet
  facet normal 0 0 1
    outer loop
      vertex 15.3413 6.07405 0
      vertex 9.85563 3.90212 0
      vertex 10.267 2.63611 0
    endloop
  endfacet
  facet normal 0 0 1
    outer loop
      vertex 14.4591 7.94894 0
      vertex 9.28885 5.10659 0
      vertex 9.85563 3.90212 0
    endloop
  endfacet
  facet normal 0 0 1
    outer loop
      vertex 6.75669 8.16744 0
      vertex 10.5175 12.7135 0
      vertex 8.84114 13.9314 0
    endloop
  endfacet
  facet normal 0 0 1
    outer loop
      vertex 13.3488 9.69846 0
      vertex 8.57558 6.23052 0
      vertex 9.28885 5.10659 0
    endloop
  endfacet
  facet normal 0 0 1
    outer loop
      vertex 12.028 11.295 0
      vertex 7.72707 7.2562 0
      vertex 8.57558 6.23052 0
    endloop
  endfacet
  facet normal 0 0 1
    outer loop
      vertex 5.67976 8.94988 0
      vertex 8.84114 13.9314 0
      vertex 7.02536 14.9296 0
    endloop
  endfacet
  facet normal 0 0 1
    outer loop
      vertex 10.5175 12.7135 0
      vertex 6.75669 8.16744 0
      vertex 7.72707 7.2562 0
    endloop
  endfacet
  facet normal 0 0 1
    outer loop
      vertex 8.84114 13.9314 0
      vertex 5.67976 8.94988 0
      vertex 6.75669 8.16744 0
    endloop
  endfacet
  facet normal 0 0 1
    outer loop
      vertex 4.51326 9.59117 0
      vertex 7.02536 14.9296 0
      vertex 5.09878 15.6924 0
    endloop
  endfacet
  facet normal 0 0 1
    outer loop
      vertex 7.02536 14.9296 0
      vertex 4.51326 9.59117 0
      vertex 5.67976 8.94988 0
    endloop
  endfacet
  facet normal 0 0 1
    outer loop
      vertex 5.09878 15.6924 0
      vertex 3.27558 10.0812 0
      vertex 4.51326 9.59117 0
    endloop
  endfacet
  facet normal 0 0 1
    outer loop
      vertex 3.09179 16.2077 0
      vertex 3.27558 10.0812 0
      vertex 5.09878 15.6924 0
    endloop
  endfacet
  facet normal 0 0 1
    outer loop
      vertex 3.09179 16.2077 0
      vertex 1.98624 10.4122 0
      vertex 3.27558 10.0812 0
    endloop
  endfacet
  facet normal 0 0 1
    outer loop
      vertex 1.03604 16.4674 0
      vertex 1.98624 10.4122 0
      vertex 3.09179 16.2077 0
    endloop
  endfacet
  facet normal 0 0 1
    outer loop
      vertex 1.03604 16.4674 0
      vertex 0.665579 10.5791 0
      vertex 1.98624 10.4122 0
    endloop
  endfacet
  facet normal 0 0 1
    outer loop
      vertex 1.03604 16.4674 0
      vertex -0.665579 10.5791 0
      vertex 0.665579 10.5791 0
    endloop
  endfacet
  facet normal -0 0 1
    outer loop
      vertex -1.03604 16.4674 0
      vertex -0.665579 10.5791 0
      vertex 1.03604 16.4674 0
    endloop
  endfacet
  facet normal 0 0 1
    outer loop
      vertex -1.03604 16.4674 0
      vertex -1.98624 10.4122 0
      vertex -0.665579 10.5791 0
    endloop
  endfacet
  facet normal -0 0 1
    outer loop
      vertex -3.09179 16.2077 0
      vertex -1.98624 10.4122 0
      vertex -1.03604 16.4674 0
    endloop
  endfacet
  facet normal 0 0 1
    outer loop
      vertex -3.09179 16.2077 0
      vertex -3.27558 10.0812 0
      vertex -1.98624 10.4122 0
    endloop
  endfacet
  facet normal -0 0 1
    outer loop
      vertex -5.09878 15.6924 0
      vertex -3.27558 10.0812 0
      vertex -3.09179 16.2077 0
    endloop
  endfacet
  facet normal 0 0 1
    outer loop
      vertex -3.27558 10.0812 0
      vertex -5.09878 15.6924 0
      vertex -4.51326 9.59117 0
    endloop
  endfacet
  facet normal -0 0 1
    outer loop
      vertex -7.02536 14.9296 0
      vertex -4.51326 9.59117 0
      vertex -5.09878 15.6924 0
    endloop
  endfacet
  facet normal 0 0 1
    outer loop
      vertex -4.51326 9.59117 0
      vertex -7.02536 14.9296 0
      vertex -5.67976 8.94988 0
    endloop
  endfacet
  facet normal -0 0 1
    outer loop
      vertex -8.84114 13.9314 0
      vertex -5.67976 8.94988 0
      vertex -7.02536 14.9296 0
    endloop
  endfacet
  facet normal 0 0 1
    outer loop
      vertex -5.67976 8.94988 0
      vertex -8.84114 13.9314 0
      vertex -6.75669 8.16744 0
    endloop
  endfacet
  facet normal -0 0 1
    outer loop
      vertex -10.5175 12.7135 0
      vertex -6.75669 8.16744 0
      vertex -8.84114 13.9314 0
    endloop
  endfacet
  facet normal 0 0 1
    outer loop
      vertex -6.75669 8.16744 0
      vertex -10.5175 12.7135 0
      vertex -7.72707 7.2562 0
    endloop
  endfacet
  facet normal -0 0 1
    outer loop
      vertex -12.028 11.295 0
      vertex -7.72707 7.2562 0
      vertex -10.5175 12.7135 0
    endloop
  endfacet
  facet normal 0 0 1
    outer loop
      vertex -7.72707 7.2562 0
      vertex -12.028 11.295 0
      vertex -8.57558 6.23052 0
    endloop
  endfacet
  facet normal -0 0 1
    outer loop
      vertex -13.3488 9.69846 0
      vertex -8.57558 6.23052 0
      vertex -12.028 11.295 0
    endloop
  endfacet
  facet normal 0 0 1
    outer loop
      vertex -8.57558 6.23052 0
      vertex -13.3488 9.69846 0
      vertex -9.28885 5.10659 0
    endloop
  endfacet
  facet normal -0 0 1
    outer loop
      vertex -14.4591 7.94894 0
      vertex -9.28885 5.10659 0
      vertex -13.3488 9.69846 0
    endloop
  endfacet
  facet normal 0 0 1
    outer loop
      vertex -9.28885 5.10659 0
      vertex -14.4591 7.94894 0
      vertex -9.85563 3.90212 0
    endloop
  endfacet
  facet normal -0 0 1
    outer loop
      vertex -15.3413 6.07405 0
      vertex -9.85563 3.90212 0
      vertex -14.4591 7.94894 0
    endloop
  endfacet
  facet normal 0 0 1
    outer loop
      vertex 15.3413 -6.07405 0
      vertex 9.85563 -3.90212 0
      vertex 14.4591 -7.94894 0
    endloop
  endfacet
  facet normal -0 0 1
    outer loop
      vertex 9.28885 -5.10659 0
      vertex 14.4591 -7.94894 0
      vertex 9.85563 -3.90212 0
    endloop
  endfacet
  facet normal 0 0 1
    outer loop
      vertex 14.4591 -7.94894 0
      vertex 9.28885 -5.10659 0
      vertex 13.3488 -9.69846 0
    endloop
  endfacet
  facet normal -0 0 1
    outer loop
      vertex 8.57558 -6.23052 0
      vertex 13.3488 -9.69846 0
      vertex 9.28885 -5.10659 0
    endloop
  endfacet
  facet normal 0 0 1
    outer loop
      vertex 13.3488 -9.69846 0
      vertex 8.57558 -6.23052 0
      vertex 12.028 -11.295 0
    endloop
  endfacet
  facet normal -0 0 1
    outer loop
      vertex 7.72707 -7.2562 0
      vertex 12.028 -11.295 0
      vertex 8.57558 -6.23052 0
    endloop
  endfacet
  facet normal 0 0 1
    outer loop
      vertex 12.028 -11.295 0
      vertex 7.72707 -7.2562 0
      vertex 10.5175 -12.7135 0
    endloop
  endfacet
  facet normal -0 0 1
    outer loop
      vertex 6.75669 -8.16744 0
      vertex 10.5175 -12.7135 0
      vertex 7.72707 -7.2562 0
    endloop
  endfacet
  facet normal 0 0 1
    outer loop
      vertex 10.5175 -12.7135 0
      vertex 6.75669 -8.16744 0
      vertex 8.84114 -13.9314 0
    endloop
  endfacet
  facet normal -0 0 1
    outer loop
      vertex 5.67976 -8.94988 0
      vertex 8.84114 -13.9314 0
      vertex 6.75669 -8.16744 0
    endloop
  endfacet
  facet normal 0 0 1
    outer loop
      vertex 8.84114 -13.9314 0
      vertex 5.67976 -8.94988 0
      vertex 7.02536 -14.9296 0
    endloop
  endfacet
  facet normal -0 0 1
    outer loop
      vertex 4.51326 -9.59117 0
      vertex 7.02536 -14.9296 0
      vertex 5.67976 -8.94988 0
    endloop
  endfacet
  facet normal 0 0 1
    outer loop
      vertex 7.02536 -14.9296 0
      vertex 4.51326 -9.59117 0
      vertex 5.09878 -15.6924 0
    endloop
  endfacet
  facet normal -0 0 1
    outer loop
      vertex 3.27558 -10.0812 0
      vertex 5.09878 -15.6924 0
      vertex 4.51326 -9.59117 0
    endloop
  endfacet
  facet normal 0 0 1
    outer loop
      vertex 3.27558 -10.0812 0
      vertex 3.09179 -16.2077 0
      vertex 5.09878 -15.6924 0
    endloop
  endfacet
  facet normal -0 0 1
    outer loop
      vertex 1.98624 -10.4122 0
      vertex 3.09179 -16.2077 0
      vertex 3.27558 -10.0812 0
    endloop
  endfacet
  facet normal 0 0 1
    outer loop
      vertex 1.98624 -10.4122 0
      vertex 1.03604 -16.4674 0
      vertex 3.09179 -16.2077 0
    endloop
  endfacet
  facet normal -0 0 1
    outer loop
      vertex 0.665579 -10.5791 0
      vertex 1.03604 -16.4674 0
      vertex 1.98624 -10.4122 0
    endloop
  endfacet
  facet normal -0 0 1
    outer loop
      vertex -0.665579 -10.5791 0
      vertex 1.03604 -16.4674 0
      vertex 0.665579 -10.5791 0
    endloop
  endfacet
  facet normal 0 0 1
    outer loop
      vertex -0.665579 -10.5791 0
      vertex -1.03604 -16.4674 0
      vertex 1.03604 -16.4674 0
    endloop
  endfacet
  facet normal 0 0 1
    outer loop
      vertex -1.98624 -10.4122 0
      vertex -1.03604 -16.4674 0
      vertex -0.665579 -10.5791 0
    endloop
  endfacet
  facet normal 0 0 1
    outer loop
      vertex -1.98624 -10.4122 0
      vertex -3.09179 -16.2077 0
      vertex -1.03604 -16.4674 0
    endloop
  endfacet
  facet normal 0 0 1
    outer loop
      vertex -3.27558 -10.0812 0
      vertex -3.09179 -16.2077 0
      vertex -1.98624 -10.4122 0
    endloop
  endfacet
  facet normal 0 0 1
    outer loop
      vertex -5.09878 -15.6924 0
      vertex -3.27558 -10.0812 0
      vertex -4.51326 -9.59117 0
    endloop
  endfacet
  facet normal 0 0 1
    outer loop
      vertex -3.27558 -10.0812 0
      vertex -5.09878 -15.6924 0
      vertex -3.09179 -16.2077 0
    endloop
  endfacet
  facet normal 0 0 1
    outer loop
      vertex -7.02536 -14.9296 0
      vertex -4.51326 -9.59117 0
      vertex -5.67976 -8.94988 0
    endloop
  endfacet
  facet normal 0 0 1
    outer loop
      vertex -8.84114 -13.9314 0
      vertex -5.67976 -8.94988 0
      vertex -6.75669 -8.16744 0
    endloop
  endfacet
  facet normal 0 0 1
    outer loop
      vertex -4.51326 -9.59117 0
      vertex -7.02536 -14.9296 0
      vertex -5.09878 -15.6924 0
    endloop
  endfacet
  facet normal 0 0 1
    outer loop
      vertex -10.5175 -12.7135 0
      vertex -6.75669 -8.16744 0
      vertex -7.72707 -7.2562 0
    endloop
  endfacet
  facet normal 0 0 1
    outer loop
      vertex -12.028 -11.295 0
      vertex -7.72707 -7.2562 0
      vertex -8.57558 -6.23052 0
    endloop
  endfacet
  facet normal 0 0 1
    outer loop
      vertex -5.67976 -8.94988 0
      vertex -8.84114 -13.9314 0
      vertex -7.02536 -14.9296 0
    endloop
  endfacet
  facet normal 0 0 1
    outer loop
      vertex -13.3488 -9.69846 0
      vertex -8.57558 -6.23052 0
      vertex -9.28885 -5.10659 0
    endloop
  endfacet
  facet normal 0 0 1
    outer loop
      vertex -14.4591 -7.94894 0
      vertex -9.28885 -5.10659 0
      vertex -9.85563 -3.90212 0
    endloop
  endfacet
  facet normal 0 0 1
    outer loop
      vertex -15.3413 -6.07405 0
      vertex -9.85563 -3.90212 0
      vertex -10.267 -2.63611 0
    endloop
  endfacet
  facet normal 0 0 1
    outer loop
      vertex -15.9816 -4.10338 0
      vertex -10.267 -2.63611 0
      vertex -10.5164 -1.32853 0
    endloop
  endfacet
  facet normal 0 0 1
    outer loop
      vertex -6.75669 -8.16744 0
      vertex -10.5175 -12.7135 0
      vertex -8.84114 -13.9314 0
    endloop
  endfacet
  facet normal 0 0 1
    outer loop
      vertex -16.3699 -2.068 0
      vertex -10.5164 -1.32853 0
      vertex -10.6 0 0
    endloop
  endfacet
  facet normal 0 0 1
    outer loop
      vertex -9.85563 3.90212 0
      vertex -15.3413 6.07405 0
      vertex -10.267 2.63611 0
    endloop
  endfacet
  facet normal 0 0 1
    outer loop
      vertex -7.72707 -7.2562 0
      vertex -12.028 -11.295 0
      vertex -10.5175 -12.7135 0
    endloop
  endfacet
  facet normal -0 0 1
    outer loop
      vertex -15.9816 4.10338 0
      vertex -10.267 2.63611 0
      vertex -15.3413 6.07405 0
    endloop
  endfacet
  facet normal 0 0 1
    outer loop
      vertex -8.57558 -6.23052 0
      vertex -13.3488 -9.69846 0
      vertex -12.028 -11.295 0
    endloop
  endfacet
  facet normal 0 0 1
    outer loop
      vertex -10.267 2.63611 0
      vertex -15.9816 4.10338 0
      vertex -10.5164 1.32853 0
    endloop
  endfacet
  facet normal 0 0 1
    outer loop
      vertex -9.28885 -5.10659 0
      vertex -14.4591 -7.94894 0
      vertex -13.3488 -9.69846 0
    endloop
  endfacet
  facet normal -0 0 1
    outer loop
      vertex -16.3699 2.068 0
      vertex -10.5164 1.32853 0
      vertex -15.9816 4.10338 0
    endloop
  endfacet
  facet normal 0 0 1
    outer loop
      vertex -9.85563 -3.90212 0
      vertex -15.3413 -6.07405 0
      vertex -14.4591 -7.94894 0
    endloop
  endfacet
  facet normal 0 0 1
    outer loop
      vertex -10.5164 1.32853 0
      vertex -16.3699 2.068 0
      vertex -10.6 0 0
    endloop
  endfacet
  facet normal 0 0 1
    outer loop
      vertex -10.267 -2.63611 0
      vertex -15.9816 -4.10338 0
      vertex -15.3413 -6.07405 0
    endloop
  endfacet
  facet normal 0 0 1
    outer loop
      vertex -16.5 0 0
      vertex -10.6 0 0
      vertex -16.3699 2.068 0
    endloop
  endfacet
  facet normal 0 0 1
    outer loop
      vertex -10.5164 -1.32853 0
      vertex -16.3699 -2.068 0
      vertex -15.9816 -4.10338 0
    endloop
  endfacet
  facet normal 0 0 1
    outer loop
      vertex -10.6 0 0
      vertex -16.5 0 0
      vertex -16.3699 -2.068 0
    endloop
  endfacet
  facet normal -0.58777 0.809028 0
    outer loop
      vertex -8.84114 13.9314 -4
      vertex -10.5175 12.7135 0
      vertex -8.84114 13.9314 0
    endloop
  endfacet
  facet normal -0.58777 0.809028 0
    outer loop
      vertex -10.5175 12.7135 0
      vertex -8.84114 13.9314 -4
      vertex -10.5175 12.7135 -4
    endloop
  endfacet
  facet normal -0.125332 0.992115 0
    outer loop
      vertex -1.03604 16.4674 -4
      vertex -3.09179 16.2077 0
      vertex -1.03604 16.4674 0
    endloop
  endfacet
  facet normal -0.125332 0.992115 0
    outer loop
      vertex -3.09179 16.2077 0
      vertex -1.03604 16.4674 -4
      vertex -3.09179 16.2077 -4
    endloop
  endfacet
  facet normal 0.998027 -0.0627869 0
    outer loop
      vertex 16.3699 -2.068 0
      vertex 16.5 0 -4
      vertex 16.5 0 0
    endloop
  endfacet
  facet normal 0.998027 -0.0627869 0
    outer loop
      vertex 16.5 0 -4
      vertex 16.3699 -2.068 0
      vertex 16.3699 -2.068 -4
    endloop
  endfacet
  facet normal 0.982285 -0.187396 0
    outer loop
      vertex 15.9816 -4.10338 0
      vertex 16.3699 -2.068 -4
      vertex 16.3699 -2.068 0
    endloop
  endfacet
  facet normal 0.982285 -0.187396 0
    outer loop
      vertex 16.3699 -2.068 -4
      vertex 15.9816 -4.10338 0
      vertex 15.9816 -4.10338 -4
    endloop
  endfacet
  facet normal -0.904838 -0.425757 0
    outer loop
      vertex -14.4591 -7.94894 -4
      vertex -15.3413 -6.07405 0
      vertex -15.3413 -6.07405 -4
    endloop
  endfacet
  facet normal -0.904838 -0.425757 0
    outer loop
      vertex -15.3413 -6.07405 0
      vertex -14.4591 -7.94894 -4
      vertex -14.4591 -7.94894 0
    endloop
  endfacet
  facet normal -0.844323 -0.535834 0
    outer loop
      vertex -13.3488 -9.69846 -4
      vertex -14.4591 -7.94894 0
      vertex -14.4591 -7.94894 -4
    endloop
  endfacet
  facet normal -0.844323 -0.535834 0
    outer loop
      vertex -14.4591 -7.94894 0
      vertex -13.3488 -9.69846 -4
      vertex -13.3488 -9.69846 0
    endloop
  endfacet
  facet normal 0 0 -1
    outer loop
      vertex 16.3699 -2.068 -4
      vertex 16.3699 2.068 -4
      vertex 16.5 0 -4
    endloop
  endfacet
  facet normal 0 0 -1
    outer loop
      vertex 15.9816 -4.10338 -4
      vertex 16.3699 2.068 -4
      vertex 16.3699 -2.068 -4
    endloop
  endfacet
  facet normal 0 0 -1
    outer loop
      vertex 15.9816 -4.10338 -4
      vertex 15.9816 4.10338 -4
      vertex 16.3699 2.068 -4
    endloop
  endfacet
  facet normal 0 0 -1
    outer loop
      vertex 15.3413 -6.07405 -4
      vertex 15.9816 4.10338 -4
      vertex 15.9816 -4.10338 -4
    endloop
  endfacet
  facet normal 0 0 -1
    outer loop
      vertex 15.3413 -6.07405 -4
      vertex 15.3413 6.07405 -4
      vertex 15.9816 4.10338 -4
    endloop
  endfacet
  facet normal 0 0 -1
    outer loop
      vertex 14.4591 -7.94894 -4
      vertex 15.3413 6.07405 -4
      vertex 15.3413 -6.07405 -4
    endloop
  endfacet
  facet normal 0 0 -1
    outer loop
      vertex 14.4591 -7.94894 -4
      vertex 14.4591 7.94894 -4
      vertex 15.3413 6.07405 -4
    endloop
  endfacet
  facet normal 0 0 -1
    outer loop
      vertex 13.3488 -9.69846 -4
      vertex 14.4591 7.94894 -4
      vertex 14.4591 -7.94894 -4
    endloop
  endfacet
  facet normal 0 0 -1
    outer loop
      vertex 13.3488 -9.69846 -4
      vertex 13.3488 9.69846 -4
      vertex 14.4591 7.94894 -4
    endloop
  endfacet
  facet normal 0 0 -1
    outer loop
      vertex 12.028 -11.295 -4
      vertex 13.3488 9.69846 -4
      vertex 13.3488 -9.69846 -4
    endloop
  endfacet
  facet normal 0 0 -1
    outer loop
      vertex 12.028 -11.295 -4
      vertex 12.028 11.295 -4
      vertex 13.3488 9.69846 -4
    endloop
  endfacet
  facet normal 0 0 -1
    outer loop
      vertex 10.5175 -12.7135 -4
      vertex 12.028 11.295 -4
      vertex 12.028 -11.295 -4
    endloop
  endfacet
  facet normal 0 0 -1
    outer loop
      vertex 10.5175 -12.7135 -4
      vertex 10.5175 12.7135 -4
      vertex 12.028 11.295 -4
    endloop
  endfacet
  facet normal 0 0 -1
    outer loop
      vertex 8.84114 -13.9314 -4
      vertex 10.5175 12.7135 -4
      vertex 10.5175 -12.7135 -4
    endloop
  endfacet
  facet normal 0 0 -1
    outer loop
      vertex 8.84114 -13.9314 -4
      vertex 8.84114 13.9314 -4
      vertex 10.5175 12.7135 -4
    endloop
  endfacet
  facet normal 0 0 -1
    outer loop
      vertex 7.02536 -14.9296 -4
      vertex 8.84114 13.9314 -4
      vertex 8.84114 -13.9314 -4
    endloop
  endfacet
  facet normal 0 0 -1
    outer loop
      vertex 7.02536 -14.9296 -4
      vertex 7.02536 14.9296 -4
      vertex 8.84114 13.9314 -4
    endloop
  endfacet
  facet normal 0 0 -1
    outer loop
      vertex 5.09878 -15.6924 -4
      vertex 7.02536 14.9296 -4
      vertex 7.02536 -14.9296 -4
    endloop
  endfacet
  facet normal 0 0 -1
    outer loop
      vertex 5.09878 -15.6924 -4
      vertex 5.09878 15.6924 -4
      vertex 7.02536 14.9296 -4
    endloop
  endfacet
  facet normal 0 0 -1
    outer loop
      vertex 3.09179 -16.2077 -4
      vertex 5.09878 15.6924 -4
      vertex 5.09878 -15.6924 -4
    endloop
  endfacet
  facet normal 0 0 -1
    outer loop
      vertex 3.09179 -16.2077 -4
      vertex 3.09179 16.2077 -4
      vertex 5.09878 15.6924 -4
    endloop
  endfacet
  facet normal 0 0 -1
    outer loop
      vertex 1.03604 -16.4674 -4
      vertex 3.09179 16.2077 -4
      vertex 3.09179 -16.2077 -4
    endloop
  endfacet
  facet normal 0 0 -1
    outer loop
      vertex 1.03604 -16.4674 -4
      vertex 1.03604 16.4674 -4
      vertex 3.09179 16.2077 -4
    endloop
  endfacet
  facet normal 0 0 -1
    outer loop
      vertex -1.03604 -16.4674 -4
      vertex 1.03604 16.4674 -4
      vertex 1.03604 -16.4674 -4
    endloop
  endfacet
  facet normal 0 0 -1
    outer loop
      vertex -1.03604 -16.4674 -4
      vertex -1.03604 16.4674 -4
      vertex 1.03604 16.4674 -4
    endloop
  endfacet
  facet normal 0 0 -1
    outer loop
      vertex -3.09179 -16.2077 -4
      vertex -1.03604 16.4674 -4
      vertex -1.03604 -16.4674 -4
    endloop
  endfacet
  facet normal 0 0 -1
    outer loop
      vertex -3.09179 -16.2077 -4
      vertex -3.09179 16.2077 -4
      vertex -1.03604 16.4674 -4
    endloop
  endfacet
  facet normal 0 0 -1
    outer loop
      vertex -5.09878 -15.6924 -4
      vertex -3.09179 16.2077 -4
      vertex -3.09179 -16.2077 -4
    endloop
  endfacet
  facet normal 0 0 -1
    outer loop
      vertex -5.09878 -15.6924 -4
      vertex -5.09878 15.6924 -4
      vertex -3.09179 16.2077 -4
    endloop
  endfacet
  facet normal 0 0 -1
    outer loop
      vertex -7.02536 -14.9296 -4
      vertex -5.09878 15.6924 -4
      vertex -5.09878 -15.6924 -4
    endloop
  endfacet
  facet normal 0 0 -1
    outer loop
      vertex -7.02536 -14.9296 -4
      vertex -7.02536 14.9296 -4
      vertex -5.09878 15.6924 -4
    endloop
  endfacet
  facet normal 0 0 -1
    outer loop
      vertex -8.84114 -13.9314 -4
      vertex -7.02536 14.9296 -4
      vertex -7.02536 -14.9296 -4
    endloop
  endfacet
  facet normal 0 0 -1
    outer loop
      vertex -8.84114 -13.9314 -4
      vertex -8.84114 13.9314 -4
      vertex -7.02536 14.9296 -4
    endloop
  endfacet
  facet normal 0 0 -1
    outer loop
      vertex -10.5175 -12.7135 -4
      vertex -8.84114 13.9314 -4
      vertex -8.84114 -13.9314 -4
    endloop
  endfacet
  facet normal 0 0 -1
    outer loop
      vertex -10.5175 -12.7135 -4
      vertex -10.5175 12.7135 -4
      vertex -8.84114 13.9314 -4
    endloop
  endfacet
  facet normal 0 0 -1
    outer loop
      vertex -12.028 -11.295 -4
      vertex -10.5175 12.7135 -4
      vertex -10.5175 -12.7135 -4
    endloop
  endfacet
  facet normal 0 0 -1
    outer loop
      vertex -12.028 -11.295 -4
      vertex -12.028 11.295 -4
      vertex -10.5175 12.7135 -4
    endloop
  endfacet
  facet normal 0 0 -1
    outer loop
      vertex -13.3488 -9.69846 -4
      vertex -12.028 11.295 -4
      vertex -12.028 -11.295 -4
    endloop
  endfacet
  facet normal 0 0 -1
    outer loop
      vertex -13.3488 -9.69846 -4
      vertex -13.3488 9.69846 -4
      vertex -12.028 11.295 -4
    endloop
  endfacet
  facet normal 0 0 -1
    outer loop
      vertex -14.4591 -7.94894 -4
      vertex -13.3488 9.69846 -4
      vertex -13.3488 -9.69846 -4
    endloop
  endfacet
  facet normal 0 0 -1
    outer loop
      vertex -14.4591 -7.94894 -4
      vertex -14.4591 7.94894 -4
      vertex -13.3488 9.69846 -4
    endloop
  endfacet
  facet normal 0 0 -1
    outer loop
      vertex -15.3413 -6.07405 -4
      vertex -14.4591 7.94894 -4
      vertex -14.4591 -7.94894 -4
    endloop
  endfacet
  facet normal 0 0 -1
    outer loop
      vertex -15.3413 -6.07405 -4
      vertex -15.3413 6.07405 -4
      vertex -14.4591 7.94894 -4
    endloop
  endfacet
  facet normal 0 0 -1
    outer loop
      vertex -15.9816 -4.10338 -4
      vertex -15.3413 6.07405 -4
      vertex -15.3413 -6.07405 -4
    endloop
  endfacet
  facet normal 0 0 -1
    outer loop
      vertex -15.9816 -4.10338 -4
      vertex -15.9816 4.10338 -4
      vertex -15.3413 6.07405 -4
    endloop
  endfacet
  facet normal 0 0 -1
    outer loop
      vertex -16.3699 -2.068 -4
      vertex -15.9816 4.10338 -4
      vertex -15.9816 -4.10338 -4
    endloop
  endfacet
  facet normal 0 0 -1
    outer loop
      vertex -16.3699 -2.068 -4
      vertex -16.3699 2.068 -4
      vertex -15.9816 4.10338 -4
    endloop
  endfacet
  facet normal 0 -0 -1
    outer loop
      vertex -16.3699 2.068 -4
      vertex -16.3699 -2.068 -4
      vertex -16.5 0 -4
    endloop
  endfacet
  facet normal 0.481741 -0.876314 0
    outer loop
      vertex 7.02536 -14.9296 -4
      vertex 8.84114 -13.9314 0
      vertex 7.02536 -14.9296 0
    endloop
  endfacet
  facet normal 0.481741 -0.876314 0
    outer loop
      vertex 8.84114 -13.9314 0
      vertex 7.02536 -14.9296 -4
      vertex 8.84114 -13.9314 -4
    endloop
  endfacet
  facet normal 0.904838 -0.425757 0
    outer loop
      vertex 14.4591 -7.94894 0
      vertex 15.3413 -6.07405 -4
      vertex 15.3413 -6.07405 0
    endloop
  endfacet
  facet normal 0.904838 -0.425757 0
    outer loop
      vertex 15.3413 -6.07405 -4
      vertex 14.4591 -7.94894 0
      vertex 14.4591 -7.94894 -4
    endloop
  endfacet
  facet normal -0.770507 -0.637432 0
    outer loop
      vertex -12.028 -11.295 -4
      vertex -13.3488 -9.69846 0
      vertex -13.3488 -9.69846 -4
    endloop
  endfacet
  facet normal -0.770507 -0.637432 0
    outer loop
      vertex -13.3488 -9.69846 0
      vertex -12.028 -11.295 -4
      vertex -12.028 -11.295 0
    endloop
  endfacet
  facet normal -0.951058 -0.309013 0
    outer loop
      vertex -15.3413 -6.07405 -4
      vertex -15.9816 -4.10338 0
      vertex -15.9816 -4.10338 -4
    endloop
  endfacet
  facet normal -0.951058 -0.309013 0
    outer loop
      vertex -15.9816 -4.10338 0
      vertex -15.3413 -6.07405 -4
      vertex -15.3413 -6.07405 0
    endloop
  endfacet
  facet normal 0.58777 -0.809028 0
    outer loop
      vertex 8.84114 -13.9314 -4
      vertex 10.5175 -12.7135 0
      vertex 8.84114 -13.9314 0
    endloop
  endfacet
  facet normal 0.58777 -0.809028 0
    outer loop
      vertex 10.5175 -12.7135 0
      vertex 8.84114 -13.9314 -4
      vertex 10.5175 -12.7135 -4
    endloop
  endfacet
  facet normal 0.248687 -0.968584 0
    outer loop
      vertex 3.09179 -16.2077 -4
      vertex 5.09878 -15.6924 0
      vertex 3.09179 -16.2077 0
    endloop
  endfacet
  facet normal 0.248687 -0.968584 0
    outer loop
      vertex 5.09878 -15.6924 0
      vertex 3.09179 -16.2077 -4
      vertex 5.09878 -15.6924 -4
    endloop
  endfacet
  facet normal 0.125332 -0.992115 0
    outer loop
      vertex 1.03604 -16.4674 -4
      vertex 3.09179 -16.2077 0
      vertex 1.03604 -16.4674 0
    endloop
  endfacet
  facet normal 0.125332 -0.992115 0
    outer loop
      vertex 3.09179 -16.2077 0
      vertex 1.03604 -16.4674 -4
      vertex 3.09179 -16.2077 -4
    endloop
  endfacet
  facet normal 0.844323 -0.535834 0
    outer loop
      vertex 13.3488 -9.69846 0
      vertex 14.4591 -7.94894 -4
      vertex 14.4591 -7.94894 0
    endloop
  endfacet
  facet normal 0.844323 -0.535834 0
    outer loop
      vertex 14.4591 -7.94894 -4
      vertex 13.3488 -9.69846 0
      vertex 13.3488 -9.69846 -4
    endloop
  endfacet
  facet normal 0.770507 -0.637432 0
    outer loop
      vertex 12.028 -11.295 0
      vertex 13.3488 -9.69846 -4
      vertex 13.3488 -9.69846 0
    endloop
  endfacet
  facet normal 0.770507 -0.637432 0
    outer loop
      vertex 13.3488 -9.69846 -4
      vertex 12.028 -11.295 0
      vertex 12.028 -11.295 -4
    endloop
  endfacet
  facet normal 0.951058 -0.309013 0
    outer loop
      vertex 15.3413 -6.07405 0
      vertex 15.9816 -4.10338 -4
      vertex 15.9816 -4.10338 0
    endloop
  endfacet
  facet normal 0.951058 -0.309013 0
    outer loop
      vertex 15.9816 -4.10338 -4
      vertex 15.3413 -6.07405 0
      vertex 15.3413 -6.07405 -4
    endloop
  endfacet
  facet normal -0.125332 -0.992115 0
    outer loop
      vertex -3.09179 -16.2077 -4
      vertex -1.03604 -16.4674 0
      vertex -3.09179 -16.2077 0
    endloop
  endfacet
  facet normal -0.125332 -0.992115 -0
    outer loop
      vertex -1.03604 -16.4674 0
      vertex -3.09179 -16.2077 -4
      vertex -1.03604 -16.4674 -4
    endloop
  endfacet
  facet normal -0.36813 -0.929774 0
    outer loop
      vertex -7.02536 -14.9296 -4
      vertex -5.09878 -15.6924 0
      vertex -7.02536 -14.9296 0
    endloop
  endfacet
  facet normal -0.36813 -0.929774 -0
    outer loop
      vertex -5.09878 -15.6924 0
      vertex -7.02536 -14.9296 -4
      vertex -5.09878 -15.6924 -4
    endloop
  endfacet
  facet normal -0.248687 -0.968584 0
    outer loop
      vertex -5.09878 -15.6924 -4
      vertex -3.09179 -16.2077 0
      vertex -5.09878 -15.6924 0
    endloop
  endfacet
  facet normal -0.248687 -0.968584 -0
    outer loop
      vertex -3.09179 -16.2077 0
      vertex -5.09878 -15.6924 -4
      vertex -3.09179 -16.2077 -4
    endloop
  endfacet
  facet normal -0.982285 -0.187396 0
    outer loop
      vertex -15.9816 -4.10338 -4
      vertex -16.3699 -2.068 0
      vertex -16.3699 -2.068 -4
    endloop
  endfacet
  facet normal -0.982285 -0.187396 0
    outer loop
      vertex -16.3699 -2.068 0
      vertex -15.9816 -4.10338 -4
      vertex -15.9816 -4.10338 0
    endloop
  endfacet
  facet normal -0.998027 -0.0627869 0
    outer loop
      vertex -16.3699 -2.068 -4
      vertex -16.5 0 0
      vertex -16.5 0 -4
    endloop
  endfacet
  facet normal -0.998027 -0.0627869 0
    outer loop
      vertex -16.5 0 0
      vertex -16.3699 -2.068 -4
      vertex -16.3699 -2.068 0
    endloop
  endfacet
  facet normal 0.684559 -0.728958 0
    outer loop
      vertex 10.5175 -12.7135 -4
      vertex 12.028 -11.295 0
      vertex 10.5175 -12.7135 0
    endloop
  endfacet
  facet normal 0.684559 -0.728958 0
    outer loop
      vertex 12.028 -11.295 0
      vertex 10.5175 -12.7135 -4
      vertex 12.028 -11.295 -4
    endloop
  endfacet
  facet normal -0.481741 -0.876314 0
    outer loop
      vertex -8.84114 -13.9314 -4
      vertex -7.02536 -14.9296 0
      vertex -8.84114 -13.9314 0
    endloop
  endfacet
  facet normal -0.481741 -0.876314 -0
    outer loop
      vertex -7.02536 -14.9296 0
      vertex -8.84114 -13.9314 -4
      vertex -7.02536 -14.9296 -4
    endloop
  endfacet
  facet normal -0.58777 -0.809028 0
    outer loop
      vertex -10.5175 -12.7135 -4
      vertex -8.84114 -13.9314 0
      vertex -10.5175 -12.7135 0
    endloop
  endfacet
  facet normal -0.58777 -0.809028 -0
    outer loop
      vertex -8.84114 -13.9314 0
      vertex -10.5175 -12.7135 -4
      vertex -8.84114 -13.9314 -4
    endloop
  endfacet
  facet normal -0.684559 -0.728958 0
    outer loop
      vertex -12.028 -11.295 -4
      vertex -10.5175 -12.7135 0
      vertex -12.028 -11.295 0
    endloop
  endfacet
  facet normal -0.684559 -0.728958 -0
    outer loop
      vertex -10.5175 -12.7135 0
      vertex -12.028 -11.295 -4
      vertex -10.5175 -12.7135 -4
    endloop
  endfacet
  facet normal -0.844327 -0.535828 0
    outer loop
      vertex 9.28885 5.10659 -3
      vertex 8.57558 6.23052 0
      vertex 8.57558 6.23052 -3
    endloop
  endfacet
  facet normal -0.844327 -0.535828 0
    outer loop
      vertex 8.57558 6.23052 0
      vertex 9.28885 5.10659 -3
      vertex 9.28885 5.10659 0
    endloop
  endfacet
  facet normal -0.248657 -0.968592 0
    outer loop
      vertex 1.98624 10.4122 -3
      vertex 3.27558 10.0812 0
      vertex 1.98624 10.4122 0
    endloop
  endfacet
  facet normal -0.248657 -0.968592 -0
    outer loop
      vertex 3.27558 10.0812 0
      vertex 1.98624 10.4122 -3
      vertex 3.27558 10.0812 -3
    endloop
  endfacet
  facet normal -0.368123 -0.929777 0
    outer loop
      vertex 3.27558 10.0812 -3
      vertex 4.51326 9.59117 0
      vertex 3.27558 10.0812 0
    endloop
  endfacet
  facet normal -0.368123 -0.929777 -0
    outer loop
      vertex 4.51326 9.59117 0
      vertex 3.27558 10.0812 -3
      vertex 4.51326 9.59117 -3
    endloop
  endfacet
  facet normal 0.368123 -0.929777 0
    outer loop
      vertex -4.51326 9.59117 -3
      vertex -3.27558 10.0812 0
      vertex -4.51326 9.59117 0
    endloop
  endfacet
  facet normal 0.368123 -0.929777 0
    outer loop
      vertex -3.27558 10.0812 0
      vertex -4.51326 9.59117 -3
      vertex -3.27558 10.0812 -3
    endloop
  endfacet
  facet normal 0.904827 -0.425779 0
    outer loop
      vertex -9.85563 3.90212 0
      vertex -9.28885 5.10659 -3
      vertex -9.28885 5.10659 0
    endloop
  endfacet
  facet normal 0.904827 -0.425779 0
    outer loop
      vertex -9.28885 5.10659 -3
      vertex -9.85563 3.90212 0
      vertex -9.85563 3.90212 -3
    endloop
  endfacet
  facet normal -0.982292 -0.187357 0
    outer loop
      vertex 10.5164 1.32853 -3
      vertex 10.267 2.63611 0
      vertex 10.267 2.63611 -3
    endloop
  endfacet
  facet normal -0.982292 -0.187357 0
    outer loop
      vertex 10.267 2.63611 0
      vertex 10.5164 1.32853 -3
      vertex 10.5164 1.32853 0
    endloop
  endfacet
  facet normal -0.684544 -0.728971 0
    outer loop
      vertex 6.75669 8.16744 -3
      vertex 7.72707 7.2562 0
      vertex 6.75669 8.16744 0
    endloop
  endfacet
  facet normal -0.684544 -0.728971 -0
    outer loop
      vertex 7.72707 7.2562 0
      vertex 6.75669 8.16744 -3
      vertex 7.72707 7.2562 -3
    endloop
  endfacet
  facet normal -0.587787 -0.809015 0
    outer loop
      vertex 5.67976 8.94988 -3
      vertex 6.75669 8.16744 0
      vertex 5.67976 8.94988 0
    endloop
  endfacet
  facet normal -0.587787 -0.809015 -0
    outer loop
      vertex 6.75669 8.16744 0
      vertex 5.67976 8.94988 -3
      vertex 6.75669 8.16744 -3
    endloop
  endfacet
  facet normal 0.998026 -0.0628025 0
    outer loop
      vertex -10.6 0 0
      vertex -10.5164 1.32853 -3
      vertex -10.5164 1.32853 0
    endloop
  endfacet
  facet normal 0.998026 -0.0628025 0
    outer loop
      vertex -10.5164 1.32853 -3
      vertex -10.6 0 0
      vertex -10.6 0 -3
    endloop
  endfacet
  facet normal 0.770516 -0.637421 0
    outer loop
      vertex -8.57558 6.23052 0
      vertex -7.72707 7.2562 -3
      vertex -7.72707 7.2562 0
    endloop
  endfacet
  facet normal 0.770516 -0.637421 0
    outer loop
      vertex -7.72707 7.2562 -3
      vertex -8.57558 6.23052 0
      vertex -8.57558 6.23052 -3
    endloop
  endfacet
  facet normal 0.481754 -0.876306 0
    outer loop
      vertex -5.67976 8.94988 -3
      vertex -4.51326 9.59117 0
      vertex -5.67976 8.94988 0
    endloop
  endfacet
  facet normal 0.481754 -0.876306 0
    outer loop
      vertex -4.51326 9.59117 0
      vertex -5.67976 8.94988 -3
      vertex -4.51326 9.59117 -3
    endloop
  endfacet
  facet normal 0.125379 -0.992109 0
    outer loop
      vertex -1.98624 10.4122 -3
      vertex -0.665579 10.5791 0
      vertex -1.98624 10.4122 0
    endloop
  endfacet
  facet normal 0.125379 -0.992109 0
    outer loop
      vertex -0.665579 10.5791 0
      vertex -1.98624 10.4122 -3
      vertex -0.665579 10.5791 -3
    endloop
  endfacet
  facet normal 0.684544 0.728971 -0
    outer loop
      vertex -6.75669 -8.16744 -3
      vertex -7.72707 -7.2562 0
      vertex -6.75669 -8.16744 0
    endloop
  endfacet
  facet normal 0.684544 0.728971 0
    outer loop
      vertex -7.72707 -7.2562 0
      vertex -6.75669 -8.16744 -3
      vertex -7.72707 -7.2562 -3
    endloop
  endfacet
  facet normal 0.904827 0.425779 0
    outer loop
      vertex -9.28885 -5.10659 0
      vertex -9.85563 -3.90212 -3
      vertex -9.85563 -3.90212 0
    endloop
  endfacet
  facet normal 0.904827 0.425779 0
    outer loop
      vertex -9.85563 -3.90212 -3
      vertex -9.28885 -5.10659 0
      vertex -9.28885 -5.10659 -3
    endloop
  endfacet
  facet normal -0.481754 0.876306 0
    outer loop
      vertex 5.67976 -8.94988 -3
      vertex 4.51326 -9.59117 0
      vertex 5.67976 -8.94988 0
    endloop
  endfacet
  facet normal -0.481754 0.876306 0
    outer loop
      vertex 4.51326 -9.59117 0
      vertex 5.67976 -8.94988 -3
      vertex 4.51326 -9.59117 -3
    endloop
  endfacet
  facet normal -0.770516 -0.637421 0
    outer loop
      vertex 8.57558 6.23052 -3
      vertex 7.72707 7.2562 0
      vertex 7.72707 7.2562 -3
    endloop
  endfacet
  facet normal -0.770516 -0.637421 0
    outer loop
      vertex 7.72707 7.2562 0
      vertex 8.57558 6.23052 -3
      vertex 8.57558 6.23052 0
    endloop
  endfacet
  facet normal 0 -1 0
    outer loop
      vertex -0.665579 10.5791 -3
      vertex 0.665579 10.5791 0
      vertex -0.665579 10.5791 0
    endloop
  endfacet
  facet normal 0 -1 -0
    outer loop
      vertex 0.665579 10.5791 0
      vertex -0.665579 10.5791 -3
      vertex 0.665579 10.5791 -3
    endloop
  endfacet
  facet normal -0.481754 -0.876306 0
    outer loop
      vertex 4.51326 9.59117 -3
      vertex 5.67976 8.94988 0
      vertex 4.51326 9.59117 0
    endloop
  endfacet
  facet normal -0.481754 -0.876306 -0
    outer loop
      vertex 5.67976 8.94988 0
      vertex 4.51326 9.59117 -3
      vertex 5.67976 8.94988 -3
    endloop
  endfacet
  facet normal 0.951052 -0.30903 0
    outer loop
      vertex -10.267 2.63611 0
      vertex -9.85563 3.90212 -3
      vertex -9.85563 3.90212 0
    endloop
  endfacet
  facet normal 0.951052 -0.30903 0
    outer loop
      vertex -9.85563 3.90212 -3
      vertex -10.267 2.63611 0
      vertex -10.267 2.63611 -3
    endloop
  endfacet
  facet normal 0.982292 -0.187357 0
    outer loop
      vertex -10.5164 1.32853 0
      vertex -10.267 2.63611 -3
      vertex -10.267 2.63611 0
    endloop
  endfacet
  facet normal 0.982292 -0.187357 0
    outer loop
      vertex -10.267 2.63611 -3
      vertex -10.5164 1.32853 0
      vertex -10.5164 1.32853 -3
    endloop
  endfacet
  facet normal 0.844327 -0.535828 0
    outer loop
      vertex -9.28885 5.10659 0
      vertex -8.57558 6.23052 -3
      vertex -8.57558 6.23052 0
    endloop
  endfacet
  facet normal 0.844327 -0.535828 0
    outer loop
      vertex -8.57558 6.23052 -3
      vertex -9.28885 5.10659 0
      vertex -9.28885 5.10659 -3
    endloop
  endfacet
  facet normal 0.248657 -0.968592 0
    outer loop
      vertex -3.27558 10.0812 -3
      vertex -1.98624 10.4122 0
      vertex -3.27558 10.0812 0
    endloop
  endfacet
  facet normal 0.248657 -0.968592 0
    outer loop
      vertex -1.98624 10.4122 0
      vertex -3.27558 10.0812 -3
      vertex -1.98624 10.4122 -3
    endloop
  endfacet
  facet normal 0.587787 -0.809015 0
    outer loop
      vertex -6.75669 8.16744 -3
      vertex -5.67976 8.94988 0
      vertex -6.75669 8.16744 0
    endloop
  endfacet
  facet normal 0.587787 -0.809015 0
    outer loop
      vertex -5.67976 8.94988 0
      vertex -6.75669 8.16744 -3
      vertex -5.67976 8.94988 -3
    endloop
  endfacet
  facet normal 0.684544 -0.728971 0
    outer loop
      vertex -7.72707 7.2562 -3
      vertex -6.75669 8.16744 0
      vertex -7.72707 7.2562 0
    endloop
  endfacet
  facet normal 0.684544 -0.728971 0
    outer loop
      vertex -6.75669 8.16744 0
      vertex -7.72707 7.2562 -3
      vertex -6.75669 8.16744 -3
    endloop
  endfacet
  facet normal -0.998026 -0.0628025 0
    outer loop
      vertex 10.6 0 -3
      vertex 10.5164 1.32853 0
      vertex 10.5164 1.32853 -3
    endloop
  endfacet
  facet normal -0.998026 -0.0628025 0
    outer loop
      vertex 10.5164 1.32853 0
      vertex 10.6 0 -3
      vertex 10.6 0 0
    endloop
  endfacet
  facet normal -0.998026 0.0628025 0
    outer loop
      vertex 10.5164 -1.32853 -3
      vertex 10.6 0 0
      vertex 10.6 0 -3
    endloop
  endfacet
  facet normal -0.998026 0.0628025 0
    outer loop
      vertex 10.6 0 0
      vertex 10.5164 -1.32853 -3
      vertex 10.5164 -1.32853 0
    endloop
  endfacet
  facet normal -0.982292 0.187357 0
    outer loop
      vertex 10.267 -2.63611 -3
      vertex 10.5164 -1.32853 0
      vertex 10.5164 -1.32853 -3
    endloop
  endfacet
  facet normal -0.982292 0.187357 0
    outer loop
      vertex 10.5164 -1.32853 0
      vertex 10.267 -2.63611 -3
      vertex 10.267 -2.63611 0
    endloop
  endfacet
  facet normal -0.770516 0.637421 0
    outer loop
      vertex 7.72707 -7.2562 -3
      vertex 8.57558 -6.23052 0
      vertex 8.57558 -6.23052 -3
    endloop
  endfacet
  facet normal -0.770516 0.637421 0
    outer loop
      vertex 8.57558 -6.23052 0
      vertex 7.72707 -7.2562 -3
      vertex 7.72707 -7.2562 0
    endloop
  endfacet
  facet normal 0 1 -0
    outer loop
      vertex 0.665579 -10.5791 -3
      vertex -0.665579 -10.5791 0
      vertex 0.665579 -10.5791 0
    endloop
  endfacet
  facet normal 0 1 0
    outer loop
      vertex -0.665579 -10.5791 0
      vertex 0.665579 -10.5791 -3
      vertex -0.665579 -10.5791 -3
    endloop
  endfacet
  facet normal 0.998026 0.0628025 0
    outer loop
      vertex -10.5164 -1.32853 0
      vertex -10.6 0 -3
      vertex -10.6 0 0
    endloop
  endfacet
  facet normal 0.998026 0.0628025 0
    outer loop
      vertex -10.6 0 -3
      vertex -10.5164 -1.32853 0
      vertex -10.5164 -1.32853 -3
    endloop
  endfacet
  facet normal 0 0 1
    outer loop
      vertex 10.5164 1.32853 -3
      vertex 10.5164 -1.32853 -3
      vertex 10.6 0 -3
    endloop
  endfacet
  facet normal 0 0 1
    outer loop
      vertex 10.267 2.63611 -3
      vertex 10.5164 -1.32853 -3
      vertex 10.5164 1.32853 -3
    endloop
  endfacet
  facet normal 0 0 1
    outer loop
      vertex 10.267 2.63611 -3
      vertex 10.267 -2.63611 -3
      vertex 10.5164 -1.32853 -3
    endloop
  endfacet
  facet normal 0 0 1
    outer loop
      vertex 9.85563 3.90212 -3
      vertex 10.267 -2.63611 -3
      vertex 10.267 2.63611 -3
    endloop
  endfacet
  facet normal 0 0 1
    outer loop
      vertex 9.85563 3.90212 -3
      vertex 9.85563 -3.90212 -3
      vertex 10.267 -2.63611 -3
    endloop
  endfacet
  facet normal 0 0 1
    outer loop
      vertex 9.28885 5.10659 -3
      vertex 9.85563 -3.90212 -3
      vertex 9.85563 3.90212 -3
    endloop
  endfacet
  facet normal 0 0 1
    outer loop
      vertex 9.28885 5.10659 -3
      vertex 9.28885 -5.10659 -3
      vertex 9.85563 -3.90212 -3
    endloop
  endfacet
  facet normal 0 0 1
    outer loop
      vertex 8.57558 6.23052 -3
      vertex 9.28885 -5.10659 -3
      vertex 9.28885 5.10659 -3
    endloop
  endfacet
  facet normal 0 0 1
    outer loop
      vertex 8.57558 6.23052 -3
      vertex 8.57558 -6.23052 -3
      vertex 9.28885 -5.10659 -3
    endloop
  endfacet
  facet normal 0 0 1
    outer loop
      vertex 7.72707 7.2562 -3
      vertex 8.57558 -6.23052 -3
      vertex 8.57558 6.23052 -3
    endloop
  endfacet
  facet normal 0 0 1
    outer loop
      vertex 7.72707 7.2562 -3
      vertex 7.72707 -7.2562 -3
      vertex 8.57558 -6.23052 -3
    endloop
  endfacet
  facet normal 0 0 1
    outer loop
      vertex 6.75669 8.16744 -3
      vertex 7.72707 -7.2562 -3
      vertex 7.72707 7.2562 -3
    endloop
  endfacet
  facet normal 0 0 1
    outer loop
      vertex 6.75669 8.16744 -3
      vertex 6.75669 -8.16744 -3
      vertex 7.72707 -7.2562 -3
    endloop
  endfacet
  facet normal 0 0 1
    outer loop
      vertex 5.67976 8.94988 -3
      vertex 6.75669 -8.16744 -3
      vertex 6.75669 8.16744 -3
    endloop
  endfacet
  facet normal 0 0 1
    outer loop
      vertex 5.67976 8.94988 -3
      vertex 5.67976 -8.94988 -3
      vertex 6.75669 -8.16744 -3
    endloop
  endfacet
  facet normal 0 0 1
    outer loop
      vertex 4.51326 9.59117 -3
      vertex 5.67976 -8.94988 -3
      vertex 5.67976 8.94988 -3
    endloop
  endfacet
  facet normal 0 0 1
    outer loop
      vertex 4.51326 9.59117 -3
      vertex 4.51326 -9.59117 -3
      vertex 5.67976 -8.94988 -3
    endloop
  endfacet
  facet normal 0 0 1
    outer loop
      vertex 3.27558 10.0812 -3
      vertex 4.51326 -9.59117 -3
      vertex 4.51326 9.59117 -3
    endloop
  endfacet
  facet normal 0 0 1
    outer loop
      vertex 3.27558 10.0812 -3
      vertex 3.27558 -10.0812 -3
      vertex 4.51326 -9.59117 -3
    endloop
  endfacet
  facet normal 0 0 1
    outer loop
      vertex 1.98624 10.4122 -3
      vertex 3.27558 -10.0812 -3
      vertex 3.27558 10.0812 -3
    endloop
  endfacet
  facet normal 0 0 1
    outer loop
      vertex 1.98624 10.4122 -3
      vertex 1.98624 -10.4122 -3
      vertex 3.27558 -10.0812 -3
    endloop
  endfacet
  facet normal 0 0 1
    outer loop
      vertex 0.665579 10.5791 -3
      vertex 1.98624 -10.4122 -3
      vertex 1.98624 10.4122 -3
    endloop
  endfacet
  facet normal 0 0 1
    outer loop
      vertex 0.665579 10.5791 -3
      vertex 0.665579 -10.5791 -3
      vertex 1.98624 -10.4122 -3
    endloop
  endfacet
  facet normal -0 0 1
    outer loop
      vertex -0.665579 10.5791 -3
      vertex 0.665579 -10.5791 -3
      vertex 0.665579 10.5791 -3
    endloop
  endfacet
  facet normal 0 0 1
    outer loop
      vertex -0.665579 10.5791 -3
      vertex -0.665579 -10.5791 -3
      vertex 0.665579 -10.5791 -3
    endloop
  endfacet
  facet normal -0 0 1
    outer loop
      vertex -1.98624 10.4122 -3
      vertex -0.665579 -10.5791 -3
      vertex -0.665579 10.5791 -3
    endloop
  endfacet
  facet normal 0 0 1
    outer loop
      vertex -1.98624 10.4122 -3
      vertex -1.98624 -10.4122 -3
      vertex -0.665579 -10.5791 -3
    endloop
  endfacet
  facet normal -0 0 1
    outer loop
      vertex -3.27558 10.0812 -3
      vertex -1.98624 -10.4122 -3
      vertex -1.98624 10.4122 -3
    endloop
  endfacet
  facet normal 0 0 1
    outer loop
      vertex -3.27558 10.0812 -3
      vertex -3.27558 -10.0812 -3
      vertex -1.98624 -10.4122 -3
    endloop
  endfacet
  facet normal -0 0 1
    outer loop
      vertex -4.51326 9.59117 -3
      vertex -3.27558 -10.0812 -3
      vertex -3.27558 10.0812 -3
    endloop
  endfacet
  facet normal 0 0 1
    outer loop
      vertex -4.51326 9.59117 -3
      vertex -4.51326 -9.59117 -3
      vertex -3.27558 -10.0812 -3
    endloop
  endfacet
  facet normal -0 0 1
    outer loop
      vertex -5.67976 8.94988 -3
      vertex -4.51326 -9.59117 -3
      vertex -4.51326 9.59117 -3
    endloop
  endfacet
  facet normal 0 0 1
    outer loop
      vertex -5.67976 8.94988 -3
      vertex -5.67976 -8.94988 -3
      vertex -4.51326 -9.59117 -3
    endloop
  endfacet
  facet normal -0 0 1
    outer loop
      vertex -6.75669 8.16744 -3
      vertex -5.67976 -8.94988 -3
      vertex -5.67976 8.94988 -3
    endloop
  endfacet
  facet normal 0 0 1
    outer loop
      vertex -6.75669 8.16744 -3
      vertex -6.75669 -8.16744 -3
      vertex -5.67976 -8.94988 -3
    endloop
  endfacet
  facet normal -0 0 1
    outer loop
      vertex -7.72707 7.2562 -3
      vertex -6.75669 -8.16744 -3
      vertex -6.75669 8.16744 -3
    endloop
  endfacet
  facet normal 0 0 1
    outer loop
      vertex -7.72707 7.2562 -3
      vertex -7.72707 -7.2562 -3
      vertex -6.75669 -8.16744 -3
    endloop
  endfacet
  facet normal -0 0 1
    outer loop
      vertex -8.57558 6.23052 -3
      vertex -7.72707 -7.2562 -3
      vertex -7.72707 7.2562 -3
    endloop
  endfacet
  facet normal 0 0 1
    outer loop
      vertex -8.57558 6.23052 -3
      vertex -8.57558 -6.23052 -3
      vertex -7.72707 -7.2562 -3
    endloop
  endfacet
  facet normal -0 0 1
    outer loop
      vertex -9.28885 5.10659 -3
      vertex -8.57558 -6.23052 -3
      vertex -8.57558 6.23052 -3
    endloop
  endfacet
  facet normal 0 0 1
    outer loop
      vertex -9.28885 5.10659 -3
      vertex -9.28885 -5.10659 -3
      vertex -8.57558 -6.23052 -3
    endloop
  endfacet
  facet normal -0 0 1
    outer loop
      vertex -9.85563 3.90212 -3
      vertex -9.28885 -5.10659 -3
      vertex -9.28885 5.10659 -3
    endloop
  endfacet
  facet normal 0 0 1
    outer loop
      vertex -9.85563 3.90212 -3
      vertex -9.85563 -3.90212 -3
      vertex -9.28885 -5.10659 -3
    endloop
  endfacet
  facet normal -0 0 1
    outer loop
      vertex -10.267 2.63611 -3
      vertex -9.85563 -3.90212 -3
      vertex -9.85563 3.90212 -3
    endloop
  endfacet
  facet normal 0 0 1
    outer loop
      vertex -10.267 2.63611 -3
      vertex -10.267 -2.63611 -3
      vertex -9.85563 -3.90212 -3
    endloop
  endfacet
  facet normal -0 0 1
    outer loop
      vertex -10.5164 1.32853 -3
      vertex -10.267 -2.63611 -3
      vertex -10.267 2.63611 -3
    endloop
  endfacet
  facet normal 0 0 1
    outer loop
      vertex -10.5164 1.32853 -3
      vertex -10.5164 -1.32853 -3
      vertex -10.267 -2.63611 -3
    endloop
  endfacet
  facet normal 0 -0 1
    outer loop
      vertex -10.5164 -1.32853 -3
      vertex -10.5164 1.32853 -3
      vertex -10.6 0 -3
    endloop
  endfacet
  facet normal 0.844327 0.535828 0
    outer loop
      vertex -8.57558 -6.23052 0
      vertex -9.28885 -5.10659 -3
      vertex -9.28885 -5.10659 0
    endloop
  endfacet
  facet normal 0.844327 0.535828 0
    outer loop
      vertex -9.28885 -5.10659 -3
      vertex -8.57558 -6.23052 0
      vertex -8.57558 -6.23052 -3
    endloop
  endfacet
  facet normal -0.125379 0.992109 0
    outer loop
      vertex 1.98624 -10.4122 -3
      vertex 0.665579 -10.5791 0
      vertex 1.98624 -10.4122 0
    endloop
  endfacet
  facet normal -0.125379 0.992109 0
    outer loop
      vertex 0.665579 -10.5791 0
      vertex 1.98624 -10.4122 -3
      vertex 0.665579 -10.5791 -3
    endloop
  endfacet
  facet normal -0.904827 -0.425779 0
    outer loop
      vertex 9.85563 3.90212 -3
      vertex 9.28885 5.10659 0
      vertex 9.28885 5.10659 -3
    endloop
  endfacet
  facet normal -0.904827 -0.425779 0
    outer loop
      vertex 9.28885 5.10659 0
      vertex 9.85563 3.90212 -3
      vertex 9.85563 3.90212 0
    endloop
  endfacet
  facet normal -0.951052 -0.30903 0
    outer loop
      vertex 10.267 2.63611 -3
      vertex 9.85563 3.90212 0
      vertex 9.85563 3.90212 -3
    endloop
  endfacet
  facet normal -0.951052 -0.30903 0
    outer loop
      vertex 9.85563 3.90212 0
      vertex 10.267 2.63611 -3
      vertex 10.267 2.63611 0
    endloop
  endfacet
  facet normal -0.125379 -0.992109 0
    outer loop
      vertex 0.665579 10.5791 -3
      vertex 1.98624 10.4122 0
      vertex 0.665579 10.5791 0
    endloop
  endfacet
  facet normal -0.125379 -0.992109 -0
    outer loop
      vertex 1.98624 10.4122 0
      vertex 0.665579 10.5791 -3
      vertex 1.98624 10.4122 -3
    endloop
  endfacet
  facet normal -0.904827 0.425779 0
    outer loop
      vertex 9.28885 -5.10659 -3
      vertex 9.85563 -3.90212 0
      vertex 9.85563 -3.90212 -3
    endloop
  endfacet
  facet normal -0.904827 0.425779 0
    outer loop
      vertex 9.85563 -3.90212 0
      vertex 9.28885 -5.10659 -3
      vertex 9.28885 -5.10659 0
    endloop
  endfacet
  facet normal 0.951052 0.30903 0
    outer loop
      vertex -9.85563 -3.90212 0
      vertex -10.267 -2.63611 -3
      vertex -10.267 -2.63611 0
    endloop
  endfacet
  facet normal 0.951052 0.30903 0
    outer loop
      vertex -10.267 -2.63611 -3
      vertex -9.85563 -3.90212 0
      vertex -9.85563 -3.90212 -3
    endloop
  endfacet
  facet normal 0.982292 0.187357 0
    outer loop
      vertex -10.267 -2.63611 0
      vertex -10.5164 -1.32853 -3
      vertex -10.5164 -1.32853 0
    endloop
  endfacet
  facet normal 0.982292 0.187357 0
    outer loop
      vertex -10.5164 -1.32853 -3
      vertex -10.267 -2.63611 0
      vertex -10.267 -2.63611 -3
    endloop
  endfacet
  facet normal 0.770516 0.637421 0
    outer loop
      vertex -7.72707 -7.2562 0
      vertex -8.57558 -6.23052 -3
      vertex -8.57558 -6.23052 0
    endloop
  endfacet
  facet normal 0.770516 0.637421 0
    outer loop
      vertex -8.57558 -6.23052 -3
      vertex -7.72707 -7.2562 0
      vertex -7.72707 -7.2562 -3
    endloop
  endfacet
  facet normal -0.368123 0.929777 0
    outer loop
      vertex 4.51326 -9.59117 -3
      vertex 3.27558 -10.0812 0
      vertex 4.51326 -9.59117 0
    endloop
  endfacet
  facet normal -0.368123 0.929777 0
    outer loop
      vertex 3.27558 -10.0812 0
      vertex 4.51326 -9.59117 -3
      vertex 3.27558 -10.0812 -3
    endloop
  endfacet
  facet normal -0.248657 0.968592 0
    outer loop
      vertex 3.27558 -10.0812 -3
      vertex 1.98624 -10.4122 0
      vertex 3.27558 -10.0812 0
    endloop
  endfacet
  facet normal -0.248657 0.968592 0
    outer loop
      vertex 1.98624 -10.4122 0
      vertex 3.27558 -10.0812 -3
      vertex 1.98624 -10.4122 -3
    endloop
  endfacet
  facet normal -0.587787 0.809015 0
    outer loop
      vertex 6.75669 -8.16744 -3
      vertex 5.67976 -8.94988 0
      vertex 6.75669 -8.16744 0
    endloop
  endfacet
  facet normal -0.587787 0.809015 0
    outer loop
      vertex 5.67976 -8.94988 0
      vertex 6.75669 -8.16744 -3
      vertex 5.67976 -8.94988 -3
    endloop
  endfacet
  facet normal -0.844327 0.535828 0
    outer loop
      vertex 8.57558 -6.23052 -3
      vertex 9.28885 -5.10659 0
      vertex 9.28885 -5.10659 -3
    endloop
  endfacet
  facet normal -0.844327 0.535828 0
    outer loop
      vertex 9.28885 -5.10659 0
      vertex 8.57558 -6.23052 -3
      vertex 8.57558 -6.23052 0
    endloop
  endfacet
  facet normal -0.951052 0.30903 0
    outer loop
      vertex 9.85563 -3.90212 -3
      vertex 10.267 -2.63611 0
      vertex 10.267 -2.63611 -3
    endloop
  endfacet
  facet normal -0.951052 0.30903 0
    outer loop
      vertex 10.267 -2.63611 0
      vertex 9.85563 -3.90212 -3
      vertex 9.85563 -3.90212 0
    endloop
  endfacet
  facet normal 0.125379 0.992109 -0
    outer loop
      vertex -0.665579 -10.5791 -3
      vertex -1.98624 -10.4122 0
      vertex -0.665579 -10.5791 0
    endloop
  endfacet
  facet normal 0.125379 0.992109 0
    outer loop
      vertex -1.98624 -10.4122 0
      vertex -0.665579 -10.5791 -3
      vertex -1.98624 -10.4122 -3
    endloop
  endfacet
  facet normal 0.481754 0.876306 -0
    outer loop
      vertex -4.51326 -9.59117 -3
      vertex -5.67976 -8.94988 0
      vertex -4.51326 -9.59117 0
    endloop
  endfacet
  facet normal 0.481754 0.876306 0
    outer loop
      vertex -5.67976 -8.94988 0
      vertex -4.51326 -9.59117 -3
      vertex -5.67976 -8.94988 -3
    endloop
  endfacet
  facet normal 0.248657 0.968592 -0
    outer loop
      vertex -1.98624 -10.4122 -3
      vertex -3.27558 -10.0812 0
      vertex -1.98624 -10.4122 0
    endloop
  endfacet
  facet normal 0.248657 0.968592 0
    outer loop
      vertex -3.27558 -10.0812 0
      vertex -1.98624 -10.4122 -3
      vertex -3.27558 -10.0812 -3
    endloop
  endfacet
  facet normal 0.368123 0.929777 -0
    outer loop
      vertex -3.27558 -10.0812 -3
      vertex -4.51326 -9.59117 0
      vertex -3.27558 -10.0812 0
    endloop
  endfacet
  facet normal 0.368123 0.929777 0
    outer loop
      vertex -4.51326 -9.59117 0
      vertex -3.27558 -10.0812 -3
      vertex -4.51326 -9.59117 -3
    endloop
  endfacet
  facet normal -0.684544 0.728971 0
    outer loop
      vertex 7.72707 -7.2562 -3
      vertex 6.75669 -8.16744 0
      vertex 7.72707 -7.2562 0
    endloop
  endfacet
  facet normal -0.684544 0.728971 0
    outer loop
      vertex 6.75669 -8.16744 0
      vertex 7.72707 -7.2562 -3
      vertex 6.75669 -8.16744 -3
    endloop
  endfacet
  facet normal 0.587787 0.809015 -0
    outer loop
      vertex -5.67976 -8.94988 -3
      vertex -6.75669 -8.16744 0
      vertex -5.67976 -8.94988 0
    endloop
  endfacet
  facet normal 0.587787 0.809015 0
    outer loop
      vertex -6.75669 -8.16744 0
      vertex -5.67976 -8.94988 -3
      vertex -6.75669 -8.16744 -3
    endloop
  endfacet
endsolid OpenSCAD_Model
