solid OpenSCAD_Model
  facet normal 0.998027 0.0627939 0
    outer loop
      vertex 7 0 -3
      vertex 6.9448 0.877332 -51
      vertex 6.9448 0.877332 -3
    endloop
  endfacet
  facet normal 0.998027 0.0627939 0
    outer loop
      vertex 6.9448 0.877332 -51
      vertex 7 0 -3
      vertex 7 0 -51
    endloop
  endfacet
  facet normal -0.998027 0.0627939 0
    outer loop
      vertex -7 0 -51
      vertex -6.9448 0.877332 -3
      vertex -6.9448 0.877332 -51
    endloop
  endfacet
  facet normal -0.998027 0.0627939 0
    outer loop
      vertex -6.9448 0.877332 -3
      vertex -7 0 -51
      vertex -7 0 -3
    endloop
  endfacet
  facet normal 0 1 -0
    outer loop
      vertex 0.439533 6.98619 -51
      vertex -0.439533 6.98619 -3
      vertex 0.439533 6.98619 -3
    endloop
  endfacet
  facet normal 0 1 0
    outer loop
      vertex -0.439533 6.98619 -3
      vertex 0.439533 6.98619 -51
      vertex -0.439533 6.98619 -51
    endloop
  endfacet
  facet normal 0 -1 0
    outer loop
      vertex -0.439533 -6.98619 -51
      vertex 0.439533 -6.98619 -3
      vertex -0.439533 -6.98619 -3
    endloop
  endfacet
  facet normal 0 -1 -0
    outer loop
      vertex 0.439533 -6.98619 -3
      vertex -0.439533 -6.98619 -51
      vertex 0.439533 -6.98619 -51
    endloop
  endfacet
  facet normal 0.684547 0.728969 -0
    outer loop
      vertex 5.10278 4.79183 -51
      vertex 4.46197 5.39359 -3
      vertex 5.10278 4.79183 -3
    endloop
  endfacet
  facet normal 0.684547 0.728969 0
    outer loop
      vertex 4.46197 5.39359 -3
      vertex 5.10278 4.79183 -51
      vertex 4.46197 5.39359 -51
    endloop
  endfacet
  facet normal -0.684547 0.728969 0
    outer loop
      vertex -4.46197 5.39359 -51
      vertex -5.10278 4.79183 -3
      vertex -4.46197 5.39359 -3
    endloop
  endfacet
  facet normal -0.684547 0.728969 0
    outer loop
      vertex -5.10278 4.79183 -3
      vertex -4.46197 5.39359 -51
      vertex -5.10278 4.79183 -51
    endloop
  endfacet
  facet normal -0.368131 0.929774 0
    outer loop
      vertex -2.16312 6.6574 -51
      vertex -2.98045 6.33379 -3
      vertex -2.16312 6.6574 -3
    endloop
  endfacet
  facet normal -0.368131 0.929774 0
    outer loop
      vertex -2.98045 6.33379 -3
      vertex -2.16312 6.6574 -51
      vertex -2.98045 6.33379 -51
    endloop
  endfacet
  facet normal 0.904828 0.425778 0
    outer loop
      vertex 6.50844 2.57687 -3
      vertex 6.13415 3.37228 -51
      vertex 6.13415 3.37228 -3
    endloop
  endfacet
  facet normal 0.904828 0.425778 0
    outer loop
      vertex 6.13415 3.37228 -51
      vertex 6.50844 2.57687 -3
      vertex 6.50844 2.57687 -51
    endloop
  endfacet
  facet normal 0.982287 0.18738 0
    outer loop
      vertex 6.9448 0.877332 -3
      vertex 6.78008 1.74083 -51
      vertex 6.78008 1.74083 -3
    endloop
  endfacet
  facet normal 0.982287 0.18738 0
    outer loop
      vertex 6.78008 1.74083 -51
      vertex 6.9448 0.877332 -3
      vertex 6.9448 0.877332 -51
    endloop
  endfacet
  facet normal 0.368131 0.929774 -0
    outer loop
      vertex 2.98045 6.33379 -51
      vertex 2.16312 6.6574 -3
      vertex 2.98045 6.33379 -3
    endloop
  endfacet
  facet normal 0.368131 0.929774 0
    outer loop
      vertex 2.16312 6.6574 -3
      vertex 2.98045 6.33379 -51
      vertex 2.16312 6.6574 -51
    endloop
  endfacet
  facet normal 0.481755 0.876306 -0
    outer loop
      vertex 3.75079 5.91029 -51
      vertex 2.98045 6.33379 -3
      vertex 3.75079 5.91029 -3
    endloop
  endfacet
  facet normal 0.481755 0.876306 0
    outer loop
      vertex 2.98045 6.33379 -3
      vertex 3.75079 5.91029 -51
      vertex 2.98045 6.33379 -51
    endloop
  endfacet
  facet normal -0.904828 0.425778 0
    outer loop
      vertex -6.50844 2.57687 -51
      vertex -6.13415 3.37228 -3
      vertex -6.13415 3.37228 -51
    endloop
  endfacet
  facet normal -0.904828 0.425778 0
    outer loop
      vertex -6.13415 3.37228 -3
      vertex -6.50844 2.57687 -51
      vertex -6.50844 2.57687 -3
    endloop
  endfacet
  facet normal -0.951058 0.309011 0
    outer loop
      vertex -6.78008 1.74083 -51
      vertex -6.50844 2.57687 -3
      vertex -6.50844 2.57687 -51
    endloop
  endfacet
  facet normal -0.951058 0.309011 0
    outer loop
      vertex -6.50844 2.57687 -3
      vertex -6.78008 1.74083 -51
      vertex -6.78008 1.74083 -3
    endloop
  endfacet
  facet normal -0.248684 0.968585 0
    outer loop
      vertex -1.31167 6.87601 -51
      vertex -2.16312 6.6574 -3
      vertex -1.31167 6.87601 -3
    endloop
  endfacet
  facet normal -0.248684 0.968585 0
    outer loop
      vertex -2.16312 6.6574 -3
      vertex -1.31167 6.87601 -51
      vertex -2.16312 6.6574 -51
    endloop
  endfacet
  facet normal 0.951058 0.309011 0
    outer loop
      vertex 6.78008 1.74083 -3
      vertex 6.50844 2.57687 -51
      vertex 6.50844 2.57687 -3
    endloop
  endfacet
  facet normal 0.951058 0.309011 0
    outer loop
      vertex 6.50844 2.57687 -51
      vertex 6.78008 1.74083 -3
      vertex 6.78008 1.74083 -51
    endloop
  endfacet
  facet normal 0.770511 0.637427 0
    outer loop
      vertex 5.66312 4.1145 -3
      vertex 5.10278 4.79183 -51
      vertex 5.10278 4.79183 -3
    endloop
  endfacet
  facet normal 0.770511 0.637427 0
    outer loop
      vertex 5.10278 4.79183 -51
      vertex 5.66312 4.1145 -3
      vertex 5.66312 4.1145 -51
    endloop
  endfacet
  facet normal 0.844326 0.535829 0
    outer loop
      vertex 6.13415 3.37228 -3
      vertex 5.66312 4.1145 -51
      vertex 5.66312 4.1145 -3
    endloop
  endfacet
  facet normal 0.844326 0.535829 0
    outer loop
      vertex 5.66312 4.1145 -51
      vertex 6.13415 3.37228 -3
      vertex 6.13415 3.37228 -51
    endloop
  endfacet
  facet normal 0.248684 0.968585 -0
    outer loop
      vertex 2.16312 6.6574 -51
      vertex 1.31167 6.87601 -3
      vertex 2.16312 6.6574 -3
    endloop
  endfacet
  facet normal 0.248684 0.968585 0
    outer loop
      vertex 1.31167 6.87601 -3
      vertex 2.16312 6.6574 -51
      vertex 1.31167 6.87601 -51
    endloop
  endfacet
  facet normal 0.125337 0.992114 -0
    outer loop
      vertex 1.31167 6.87601 -51
      vertex 0.439533 6.98619 -3
      vertex 1.31167 6.87601 -3
    endloop
  endfacet
  facet normal 0.125337 0.992114 0
    outer loop
      vertex 0.439533 6.98619 -3
      vertex 1.31167 6.87601 -51
      vertex 0.439533 6.98619 -51
    endloop
  endfacet
  facet normal 0.587783 0.809018 -0
    outer loop
      vertex 4.46197 5.39359 -51
      vertex 3.75079 5.91029 -3
      vertex 4.46197 5.39359 -3
    endloop
  endfacet
  facet normal 0.587783 0.809018 0
    outer loop
      vertex 3.75079 5.91029 -3
      vertex 4.46197 5.39359 -51
      vertex 3.75079 5.91029 -51
    endloop
  endfacet
  facet normal -0.844326 0.535829 0
    outer loop
      vertex -6.13415 3.37228 -51
      vertex -5.66312 4.1145 -3
      vertex -5.66312 4.1145 -51
    endloop
  endfacet
  facet normal -0.844326 0.535829 0
    outer loop
      vertex -5.66312 4.1145 -3
      vertex -6.13415 3.37228 -51
      vertex -6.13415 3.37228 -3
    endloop
  endfacet
  facet normal -0.770511 0.637427 0
    outer loop
      vertex -5.66312 4.1145 -51
      vertex -5.10278 4.79183 -3
      vertex -5.10278 4.79183 -51
    endloop
  endfacet
  facet normal -0.770511 0.637427 0
    outer loop
      vertex -5.10278 4.79183 -3
      vertex -5.66312 4.1145 -51
      vertex -5.66312 4.1145 -3
    endloop
  endfacet
  facet normal -0.982287 0.18738 0
    outer loop
      vertex -6.9448 0.877332 -51
      vertex -6.78008 1.74083 -3
      vertex -6.78008 1.74083 -51
    endloop
  endfacet
  facet normal -0.982287 0.18738 0
    outer loop
      vertex -6.78008 1.74083 -3
      vertex -6.9448 0.877332 -51
      vertex -6.9448 0.877332 -3
    endloop
  endfacet
  facet normal 0 0 1
    outer loop
      vertex 2.25 0 0
      vertex 10 0 0
      vertex 9.92115 1.25333 0
    endloop
  endfacet
  facet normal 0 0 1
    outer loop
      vertex 2.23226 0.282 0
      vertex 9.92115 1.25333 0
      vertex 9.68583 2.4869 0
    endloop
  endfacet
  facet normal 0 0 1
    outer loop
      vertex 10 0 0
      vertex 2.25 0 0
      vertex 9.92115 -1.25333 0
    endloop
  endfacet
  facet normal 0 0 1
    outer loop
      vertex 2.17931 0.559552 0
      vertex 9.68583 2.4869 0
      vertex 9.29776 3.68124 0
    endloop
  endfacet
  facet normal -0 0 1
    outer loop
      vertex 2.23226 -0.282 0
      vertex 9.92115 -1.25333 0
      vertex 2.25 0 0
    endloop
  endfacet
  facet normal 0 0 1
    outer loop
      vertex 2.092 0.828279 0
      vertex 9.29776 3.68124 0
      vertex 8.76307 4.81754 0
    endloop
  endfacet
  facet normal 0 0 1
    outer loop
      vertex 9.92115 -1.25333 0
      vertex 2.23226 -0.282 0
      vertex 9.68583 -2.4869 0
    endloop
  endfacet
  facet normal 0 0 1
    outer loop
      vertex 1.97169 1.08395 0
      vertex 8.76307 4.81754 0
      vertex 8.09017 5.87785 0
    endloop
  endfacet
  facet normal -0 0 1
    outer loop
      vertex 2.17931 -0.559552 0
      vertex 9.68583 -2.4869 0
      vertex 2.23226 -0.282 0
    endloop
  endfacet
  facet normal 0 0 1
    outer loop
      vertex 1.82029 1.32252 0
      vertex 8.09017 5.87785 0
      vertex 7.28969 6.84547 0
    endloop
  endfacet
  facet normal 0 0 1
    outer loop
      vertex 9.68583 -2.4869 0
      vertex 2.17931 -0.559552 0
      vertex 9.29776 -3.68124 0
    endloop
  endfacet
  facet normal 0 0 1
    outer loop
      vertex 1.64018 1.54023 0
      vertex 7.28969 6.84547 0
      vertex 6.37424 7.70513 0
    endloop
  endfacet
  facet normal -0 0 1
    outer loop
      vertex 2.092 -0.828279 0
      vertex 9.29776 -3.68124 0
      vertex 2.17931 -0.559552 0
    endloop
  endfacet
  facet normal 0 0 1
    outer loop
      vertex 1.4342 1.73365 0
      vertex 6.37424 7.70513 0
      vertex 5.35827 8.44328 0
    endloop
  endfacet
  facet normal 0 0 1
    outer loop
      vertex 9.29776 -3.68124 0
      vertex 2.092 -0.828279 0
      vertex 8.76307 -4.81754 0
    endloop
  endfacet
  facet normal 0 0 1
    outer loop
      vertex 1.20561 1.89974 0
      vertex 5.35827 8.44328 0
      vertex 4.25779 9.04827 0
    endloop
  endfacet
  facet normal -0 0 1
    outer loop
      vertex 1.97169 -1.08395 0
      vertex 8.76307 -4.81754 0
      vertex 2.092 -0.828279 0
    endloop
  endfacet
  facet normal 0 0 1
    outer loop
      vertex 0.958003 2.03586 0
      vertex 4.25779 9.04827 0
      vertex 3.09017 9.51056 0
    endloop
  endfacet
  facet normal 0 0 1
    outer loop
      vertex 8.76307 -4.81754 0
      vertex 1.97169 -1.08395 0
      vertex 8.09017 -5.87785 0
    endloop
  endfacet
  facet normal -0 0 1
    outer loop
      vertex 1.82029 -1.32252 0
      vertex 8.09017 -5.87785 0
      vertex 1.97169 -1.08395 0
    endloop
  endfacet
  facet normal 0 0 1
    outer loop
      vertex 9.92115 1.25333 0
      vertex 2.23226 0.282 0
      vertex 2.25 0 0
    endloop
  endfacet
  facet normal 0 0 1
    outer loop
      vertex 9.68583 2.4869 0
      vertex 2.17931 0.559552 0
      vertex 2.23226 0.282 0
    endloop
  endfacet
  facet normal 0 0 1
    outer loop
      vertex 9.29776 3.68124 0
      vertex 2.092 0.828279 0
      vertex 2.17931 0.559552 0
    endloop
  endfacet
  facet normal 0 0 1
    outer loop
      vertex 8.76307 4.81754 0
      vertex 1.97169 1.08395 0
      vertex 2.092 0.828279 0
    endloop
  endfacet
  facet normal 0 0 1
    outer loop
      vertex 0.695288 2.13988 0
      vertex 3.09017 9.51056 0
      vertex 1.87381 9.82287 0
    endloop
  endfacet
  facet normal 0 0 1
    outer loop
      vertex 8.09017 5.87785 0
      vertex 1.82029 1.32252 0
      vertex 1.97169 1.08395 0
    endloop
  endfacet
  facet normal 0 0 1
    outer loop
      vertex 7.28969 6.84547 0
      vertex 1.64018 1.54023 0
      vertex 1.82029 1.32252 0
    endloop
  endfacet
  facet normal 0 0 1
    outer loop
      vertex 6.37424 7.70513 0
      vertex 1.4342 1.73365 0
      vertex 1.64018 1.54023 0
    endloop
  endfacet
  facet normal 0 0 1
    outer loop
      vertex 5.35827 8.44328 0
      vertex 1.20561 1.89974 0
      vertex 1.4342 1.73365 0
    endloop
  endfacet
  facet normal 0 0 1
    outer loop
      vertex 4.25779 9.04827 0
      vertex 0.958003 2.03586 0
      vertex 1.20561 1.89974 0
    endloop
  endfacet
  facet normal 0 0 1
    outer loop
      vertex 3.09017 9.51056 0
      vertex 0.695288 2.13988 0
      vertex 0.958003 2.03586 0
    endloop
  endfacet
  facet normal 0 0 1
    outer loop
      vertex 0.421607 2.21015 0
      vertex 1.87381 9.82287 0
      vertex 0.627905 9.98027 0
    endloop
  endfacet
  facet normal 0 0 1
    outer loop
      vertex 1.87381 9.82287 0
      vertex 0.421607 2.21015 0
      vertex 0.695288 2.13988 0
    endloop
  endfacet
  facet normal 0 0 1
    outer loop
      vertex 0.627905 9.98027 0
      vertex 0.141278 2.24556 0
      vertex 0.421607 2.21015 0
    endloop
  endfacet
  facet normal 0 0 1
    outer loop
      vertex 0.627905 9.98027 0
      vertex -0.141278 2.24556 0
      vertex 0.141278 2.24556 0
    endloop
  endfacet
  facet normal -0 0 1
    outer loop
      vertex -0.627905 9.98027 0
      vertex -0.141278 2.24556 0
      vertex 0.627905 9.98027 0
    endloop
  endfacet
  facet normal 0 0 1
    outer loop
      vertex -0.141278 2.24556 0
      vertex -0.627905 9.98027 0
      vertex -0.421607 2.21015 0
    endloop
  endfacet
  facet normal -0 0 1
    outer loop
      vertex -1.87381 9.82287 0
      vertex -0.421607 2.21015 0
      vertex -0.627905 9.98027 0
    endloop
  endfacet
  facet normal 0 0 1
    outer loop
      vertex -0.421607 2.21015 0
      vertex -1.87381 9.82287 0
      vertex -0.695288 2.13988 0
    endloop
  endfacet
  facet normal -0 0 1
    outer loop
      vertex -3.09017 9.51056 0
      vertex -0.695288 2.13988 0
      vertex -1.87381 9.82287 0
    endloop
  endfacet
  facet normal 0 0 1
    outer loop
      vertex -0.695288 2.13988 0
      vertex -3.09017 9.51056 0
      vertex -0.958003 2.03586 0
    endloop
  endfacet
  facet normal -0 0 1
    outer loop
      vertex -4.25779 9.04827 0
      vertex -0.958003 2.03586 0
      vertex -3.09017 9.51056 0
    endloop
  endfacet
  facet normal 0 0 1
    outer loop
      vertex -0.958003 2.03586 0
      vertex -4.25779 9.04827 0
      vertex -1.20561 1.89974 0
    endloop
  endfacet
  facet normal -0 0 1
    outer loop
      vertex -5.35827 8.44328 0
      vertex -1.20561 1.89974 0
      vertex -4.25779 9.04827 0
    endloop
  endfacet
  facet normal 0 0 1
    outer loop
      vertex -1.20561 1.89974 0
      vertex -5.35827 8.44328 0
      vertex -1.4342 1.73365 0
    endloop
  endfacet
  facet normal -0 0 1
    outer loop
      vertex -6.37424 7.70513 0
      vertex -1.4342 1.73365 0
      vertex -5.35827 8.44328 0
    endloop
  endfacet
  facet normal 0 0 1
    outer loop
      vertex -1.4342 1.73365 0
      vertex -6.37424 7.70513 0
      vertex -1.64018 1.54023 0
    endloop
  endfacet
  facet normal -0 0 1
    outer loop
      vertex -7.28969 6.84547 0
      vertex -1.64018 1.54023 0
      vertex -6.37424 7.70513 0
    endloop
  endfacet
  facet normal 0 0 1
    outer loop
      vertex -1.64018 1.54023 0
      vertex -7.28969 6.84547 0
      vertex -1.82029 1.32252 0
    endloop
  endfacet
  facet normal -0 0 1
    outer loop
      vertex -8.09017 5.87785 0
      vertex -1.82029 1.32252 0
      vertex -7.28969 6.84547 0
    endloop
  endfacet
  facet normal 0 0 1
    outer loop
      vertex 8.09017 -5.87785 0
      vertex 1.82029 -1.32252 0
      vertex 7.28969 -6.84547 0
    endloop
  endfacet
  facet normal -0 0 1
    outer loop
      vertex 1.64018 -1.54023 0
      vertex 7.28969 -6.84547 0
      vertex 1.82029 -1.32252 0
    endloop
  endfacet
  facet normal 0 0 1
    outer loop
      vertex 7.28969 -6.84547 0
      vertex 1.64018 -1.54023 0
      vertex 6.37424 -7.70513 0
    endloop
  endfacet
  facet normal -0 0 1
    outer loop
      vertex 1.4342 -1.73365 0
      vertex 6.37424 -7.70513 0
      vertex 1.64018 -1.54023 0
    endloop
  endfacet
  facet normal 0 0 1
    outer loop
      vertex 6.37424 -7.70513 0
      vertex 1.4342 -1.73365 0
      vertex 5.35827 -8.44328 0
    endloop
  endfacet
  facet normal -0 0 1
    outer loop
      vertex 1.20561 -1.89974 0
      vertex 5.35827 -8.44328 0
      vertex 1.4342 -1.73365 0
    endloop
  endfacet
  facet normal 0 0 1
    outer loop
      vertex 5.35827 -8.44328 0
      vertex 1.20561 -1.89974 0
      vertex 4.25779 -9.04827 0
    endloop
  endfacet
  facet normal -0 0 1
    outer loop
      vertex 0.958003 -2.03586 0
      vertex 4.25779 -9.04827 0
      vertex 1.20561 -1.89974 0
    endloop
  endfacet
  facet normal 0 0 1
    outer loop
      vertex 4.25779 -9.04827 0
      vertex 0.958003 -2.03586 0
      vertex 3.09017 -9.51056 0
    endloop
  endfacet
  facet normal -0 0 1
    outer loop
      vertex 0.695288 -2.13988 0
      vertex 3.09017 -9.51056 0
      vertex 0.958003 -2.03586 0
    endloop
  endfacet
  facet normal 0 0 1
    outer loop
      vertex 3.09017 -9.51056 0
      vertex 0.695288 -2.13988 0
      vertex 1.87381 -9.82287 0
    endloop
  endfacet
  facet normal -0 0 1
    outer loop
      vertex 0.421607 -2.21015 0
      vertex 1.87381 -9.82287 0
      vertex 0.695288 -2.13988 0
    endloop
  endfacet
  facet normal 0 0 1
    outer loop
      vertex 1.87381 -9.82287 0
      vertex 0.421607 -2.21015 0
      vertex 0.627905 -9.98027 0
    endloop
  endfacet
  facet normal -0 0 1
    outer loop
      vertex 0.141278 -2.24556 0
      vertex 0.627905 -9.98027 0
      vertex 0.421607 -2.21015 0
    endloop
  endfacet
  facet normal -0 0 1
    outer loop
      vertex -0.141278 -2.24556 0
      vertex 0.627905 -9.98027 0
      vertex 0.141278 -2.24556 0
    endloop
  endfacet
  facet normal 0 0 1
    outer loop
      vertex -0.627905 -9.98027 0
      vertex -0.141278 -2.24556 0
      vertex -0.421607 -2.21015 0
    endloop
  endfacet
  facet normal 0 0 1
    outer loop
      vertex -0.141278 -2.24556 0
      vertex -0.627905 -9.98027 0
      vertex 0.627905 -9.98027 0
    endloop
  endfacet
  facet normal 0 0 1
    outer loop
      vertex -1.87381 -9.82287 0
      vertex -0.421607 -2.21015 0
      vertex -0.695288 -2.13988 0
    endloop
  endfacet
  facet normal 0 0 1
    outer loop
      vertex -3.09017 -9.51056 0
      vertex -0.695288 -2.13988 0
      vertex -0.958003 -2.03586 0
    endloop
  endfacet
  facet normal 0 0 1
    outer loop
      vertex -4.25779 -9.04827 0
      vertex -0.958003 -2.03586 0
      vertex -1.20561 -1.89974 0
    endloop
  endfacet
  facet normal 0 0 1
    outer loop
      vertex -5.35827 -8.44328 0
      vertex -1.20561 -1.89974 0
      vertex -1.4342 -1.73365 0
    endloop
  endfacet
  facet normal 0 0 1
    outer loop
      vertex -6.37424 -7.70513 0
      vertex -1.4342 -1.73365 0
      vertex -1.64018 -1.54023 0
    endloop
  endfacet
  facet normal 0 0 1
    outer loop
      vertex -7.28969 -6.84547 0
      vertex -1.64018 -1.54023 0
      vertex -1.82029 -1.32252 0
    endloop
  endfacet
  facet normal 0 0 1
    outer loop
      vertex -0.421607 -2.21015 0
      vertex -1.87381 -9.82287 0
      vertex -0.627905 -9.98027 0
    endloop
  endfacet
  facet normal 0 0 1
    outer loop
      vertex -8.09017 -5.87785 0
      vertex -1.82029 -1.32252 0
      vertex -1.97169 -1.08395 0
    endloop
  endfacet
  facet normal 0 0 1
    outer loop
      vertex -8.76307 -4.81754 0
      vertex -1.97169 -1.08395 0
      vertex -2.092 -0.828279 0
    endloop
  endfacet
  facet normal 0 0 1
    outer loop
      vertex -9.29776 -3.68124 0
      vertex -2.092 -0.828279 0
      vertex -2.17931 -0.559552 0
    endloop
  endfacet
  facet normal 0 0 1
    outer loop
      vertex -9.68583 -2.4869 0
      vertex -2.17931 -0.559552 0
      vertex -2.23226 -0.282 0
    endloop
  endfacet
  facet normal 0 0 1
    outer loop
      vertex -9.92115 -1.25333 0
      vertex -2.23226 -0.282 0
      vertex -2.25 0 0
    endloop
  endfacet
  facet normal 0 0 1
    outer loop
      vertex -1.82029 1.32252 0
      vertex -8.09017 5.87785 0
      vertex -1.97169 1.08395 0
    endloop
  endfacet
  facet normal 0 0 1
    outer loop
      vertex -0.695288 -2.13988 0
      vertex -3.09017 -9.51056 0
      vertex -1.87381 -9.82287 0
    endloop
  endfacet
  facet normal -0 0 1
    outer loop
      vertex -8.76307 4.81754 0
      vertex -1.97169 1.08395 0
      vertex -8.09017 5.87785 0
    endloop
  endfacet
  facet normal 0 0 1
    outer loop
      vertex -0.958003 -2.03586 0
      vertex -4.25779 -9.04827 0
      vertex -3.09017 -9.51056 0
    endloop
  endfacet
  facet normal 0 0 1
    outer loop
      vertex -1.97169 1.08395 0
      vertex -8.76307 4.81754 0
      vertex -2.092 0.828279 0
    endloop
  endfacet
  facet normal 0 0 1
    outer loop
      vertex -1.20561 -1.89974 0
      vertex -5.35827 -8.44328 0
      vertex -4.25779 -9.04827 0
    endloop
  endfacet
  facet normal -0 0 1
    outer loop
      vertex -9.29776 3.68124 0
      vertex -2.092 0.828279 0
      vertex -8.76307 4.81754 0
    endloop
  endfacet
  facet normal 0 0 1
    outer loop
      vertex -1.4342 -1.73365 0
      vertex -6.37424 -7.70513 0
      vertex -5.35827 -8.44328 0
    endloop
  endfacet
  facet normal 0 0 1
    outer loop
      vertex -2.092 0.828279 0
      vertex -9.29776 3.68124 0
      vertex -2.17931 0.559552 0
    endloop
  endfacet
  facet normal 0 0 1
    outer loop
      vertex -1.64018 -1.54023 0
      vertex -7.28969 -6.84547 0
      vertex -6.37424 -7.70513 0
    endloop
  endfacet
  facet normal -0 0 1
    outer loop
      vertex -9.68583 2.4869 0
      vertex -2.17931 0.559552 0
      vertex -9.29776 3.68124 0
    endloop
  endfacet
  facet normal 0 0 1
    outer loop
      vertex -1.82029 -1.32252 0
      vertex -8.09017 -5.87785 0
      vertex -7.28969 -6.84547 0
    endloop
  endfacet
  facet normal 0 0 1
    outer loop
      vertex -2.17931 0.559552 0
      vertex -9.68583 2.4869 0
      vertex -2.23226 0.282 0
    endloop
  endfacet
  facet normal 0 0 1
    outer loop
      vertex -1.97169 -1.08395 0
      vertex -8.76307 -4.81754 0
      vertex -8.09017 -5.87785 0
    endloop
  endfacet
  facet normal -0 0 1
    outer loop
      vertex -9.92115 1.25333 0
      vertex -2.23226 0.282 0
      vertex -9.68583 2.4869 0
    endloop
  endfacet
  facet normal 0 0 1
    outer loop
      vertex -2.092 -0.828279 0
      vertex -9.29776 -3.68124 0
      vertex -8.76307 -4.81754 0
    endloop
  endfacet
  facet normal 0 0 1
    outer loop
      vertex -2.23226 0.282 0
      vertex -9.92115 1.25333 0
      vertex -2.25 0 0
    endloop
  endfacet
  facet normal 0 0 1
    outer loop
      vertex -2.17931 -0.559552 0
      vertex -9.68583 -2.4869 0
      vertex -9.29776 -3.68124 0
    endloop
  endfacet
  facet normal 0 0 1
    outer loop
      vertex -10 0 0
      vertex -2.25 0 0
      vertex -9.92115 1.25333 0
    endloop
  endfacet
  facet normal 0 0 1
    outer loop
      vertex -2.23226 -0.282 0
      vertex -9.92115 -1.25333 0
      vertex -9.68583 -2.4869 0
    endloop
  endfacet
  facet normal 0 0 1
    outer loop
      vertex -2.25 0 0
      vertex -10 0 0
      vertex -9.92115 -1.25333 0
    endloop
  endfacet
  facet normal -0.481755 0.876306 0
    outer loop
      vertex -2.98045 6.33379 -51
      vertex -3.75079 5.91029 -3
      vertex -2.98045 6.33379 -3
    endloop
  endfacet
  facet normal -0.481755 0.876306 0
    outer loop
      vertex -3.75079 5.91029 -3
      vertex -2.98045 6.33379 -51
      vertex -3.75079 5.91029 -51
    endloop
  endfacet
  facet normal -0.587783 0.809018 0
    outer loop
      vertex -3.75079 5.91029 -51
      vertex -4.46197 5.39359 -3
      vertex -3.75079 5.91029 -3
    endloop
  endfacet
  facet normal -0.587783 0.809018 0
    outer loop
      vertex -4.46197 5.39359 -3
      vertex -3.75079 5.91029 -51
      vertex -4.46197 5.39359 -51
    endloop
  endfacet
  facet normal -0.125337 0.992114 0
    outer loop
      vertex -0.439533 6.98619 -51
      vertex -1.31167 6.87601 -3
      vertex -0.439533 6.98619 -3
    endloop
  endfacet
  facet normal -0.125337 0.992114 0
    outer loop
      vertex -1.31167 6.87601 -3
      vertex -0.439533 6.98619 -51
      vertex -1.31167 6.87601 -51
    endloop
  endfacet
  facet normal 0.998027 -0.0627939 0
    outer loop
      vertex 6.9448 -0.877332 -3
      vertex 7 0 -51
      vertex 7 0 -3
    endloop
  endfacet
  facet normal 0.998027 -0.0627939 0
    outer loop
      vertex 7 0 -51
      vertex 6.9448 -0.877332 -3
      vertex 6.9448 -0.877332 -51
    endloop
  endfacet
  facet normal 0.904828 -0.425778 0
    outer loop
      vertex 6.13415 -3.37228 -3
      vertex 6.50844 -2.57687 -51
      vertex 6.50844 -2.57687 -3
    endloop
  endfacet
  facet normal 0.904828 -0.425778 0
    outer loop
      vertex 6.50844 -2.57687 -51
      vertex 6.13415 -3.37228 -3
      vertex 6.13415 -3.37228 -51
    endloop
  endfacet
  facet normal -0.684547 -0.728969 0
    outer loop
      vertex -5.10278 -4.79183 -51
      vertex -4.46197 -5.39359 -3
      vertex -5.10278 -4.79183 -3
    endloop
  endfacet
  facet normal -0.684547 -0.728969 -0
    outer loop
      vertex -4.46197 -5.39359 -3
      vertex -5.10278 -4.79183 -51
      vertex -4.46197 -5.39359 -51
    endloop
  endfacet
  facet normal -0.904828 -0.425778 0
    outer loop
      vertex -6.13415 -3.37228 -51
      vertex -6.50844 -2.57687 -3
      vertex -6.50844 -2.57687 -51
    endloop
  endfacet
  facet normal -0.904828 -0.425778 0
    outer loop
      vertex -6.50844 -2.57687 -3
      vertex -6.13415 -3.37228 -51
      vertex -6.13415 -3.37228 -3
    endloop
  endfacet
  facet normal -0.844326 -0.535829 0
    outer loop
      vertex -5.66312 -4.1145 -51
      vertex -6.13415 -3.37228 -3
      vertex -6.13415 -3.37228 -51
    endloop
  endfacet
  facet normal -0.844326 -0.535829 0
    outer loop
      vertex -6.13415 -3.37228 -3
      vertex -5.66312 -4.1145 -51
      vertex -5.66312 -4.1145 -3
    endloop
  endfacet
  facet normal 0 0 -1
    outer loop
      vertex 2.25 0 -51
      vertex 7 0 -51
      vertex 6.9448 -0.877332 -51
    endloop
  endfacet
  facet normal 0 0 -1
    outer loop
      vertex 2.23226 -0.282 -51
      vertex 6.9448 -0.877332 -51
      vertex 6.78008 -1.74083 -51
    endloop
  endfacet
  facet normal 0 0 -1
    outer loop
      vertex 7 0 -51
      vertex 2.25 0 -51
      vertex 6.9448 0.877332 -51
    endloop
  endfacet
  facet normal 0 0 -1
    outer loop
      vertex 2.17931 -0.559552 -51
      vertex 6.78008 -1.74083 -51
      vertex 6.50844 -2.57687 -51
    endloop
  endfacet
  facet normal 0 0 -1
    outer loop
      vertex 2.23226 0.282 -51
      vertex 6.9448 0.877332 -51
      vertex 2.25 0 -51
    endloop
  endfacet
  facet normal 0 0 -1
    outer loop
      vertex 2.092 -0.828279 -51
      vertex 6.50844 -2.57687 -51
      vertex 6.13415 -3.37228 -51
    endloop
  endfacet
  facet normal -0 0 -1
    outer loop
      vertex 6.9448 0.877332 -51
      vertex 2.23226 0.282 -51
      vertex 6.78008 1.74083 -51
    endloop
  endfacet
  facet normal 0 0 -1
    outer loop
      vertex 1.97169 -1.08395 -51
      vertex 6.13415 -3.37228 -51
      vertex 5.66312 -4.1145 -51
    endloop
  endfacet
  facet normal 0 0 -1
    outer loop
      vertex 2.17931 0.559552 -51
      vertex 6.78008 1.74083 -51
      vertex 2.23226 0.282 -51
    endloop
  endfacet
  facet normal 0 0 -1
    outer loop
      vertex 1.82029 -1.32252 -51
      vertex 5.66312 -4.1145 -51
      vertex 5.10278 -4.79183 -51
    endloop
  endfacet
  facet normal -0 0 -1
    outer loop
      vertex 6.78008 1.74083 -51
      vertex 2.17931 0.559552 -51
      vertex 6.50844 2.57687 -51
    endloop
  endfacet
  facet normal 0 0 -1
    outer loop
      vertex 1.64018 -1.54023 -51
      vertex 5.10278 -4.79183 -51
      vertex 4.46197 -5.39359 -51
    endloop
  endfacet
  facet normal 0 0 -1
    outer loop
      vertex 2.092 0.828279 -51
      vertex 6.50844 2.57687 -51
      vertex 2.17931 0.559552 -51
    endloop
  endfacet
  facet normal 0 0 -1
    outer loop
      vertex 1.4342 -1.73365 -51
      vertex 4.46197 -5.39359 -51
      vertex 3.75079 -5.91029 -51
    endloop
  endfacet
  facet normal -0 0 -1
    outer loop
      vertex 6.50844 2.57687 -51
      vertex 2.092 0.828279 -51
      vertex 6.13415 3.37228 -51
    endloop
  endfacet
  facet normal 0 0 -1
    outer loop
      vertex 1.20561 -1.89974 -51
      vertex 3.75079 -5.91029 -51
      vertex 2.98045 -6.33379 -51
    endloop
  endfacet
  facet normal 0 0 -1
    outer loop
      vertex 1.97169 1.08395 -51
      vertex 6.13415 3.37228 -51
      vertex 2.092 0.828279 -51
    endloop
  endfacet
  facet normal -0 0 -1
    outer loop
      vertex 6.13415 3.37228 -51
      vertex 1.97169 1.08395 -51
      vertex 5.66312 4.1145 -51
    endloop
  endfacet
  facet normal 0 0 -1
    outer loop
      vertex 6.9448 -0.877332 -51
      vertex 2.23226 -0.282 -51
      vertex 2.25 0 -51
    endloop
  endfacet
  facet normal 0 0 -1
    outer loop
      vertex 6.78008 -1.74083 -51
      vertex 2.17931 -0.559552 -51
      vertex 2.23226 -0.282 -51
    endloop
  endfacet
  facet normal 0 0 -1
    outer loop
      vertex 0.958003 -2.03586 -51
      vertex 2.98045 -6.33379 -51
      vertex 2.16312 -6.6574 -51
    endloop
  endfacet
  facet normal 0 0 -1
    outer loop
      vertex 6.50844 -2.57687 -51
      vertex 2.092 -0.828279 -51
      vertex 2.17931 -0.559552 -51
    endloop
  endfacet
  facet normal 0 0 -1
    outer loop
      vertex 6.13415 -3.37228 -51
      vertex 1.97169 -1.08395 -51
      vertex 2.092 -0.828279 -51
    endloop
  endfacet
  facet normal 0 0 -1
    outer loop
      vertex 5.66312 -4.1145 -51
      vertex 1.82029 -1.32252 -51
      vertex 1.97169 -1.08395 -51
    endloop
  endfacet
  facet normal 0 0 -1
    outer loop
      vertex 5.10278 -4.79183 -51
      vertex 1.64018 -1.54023 -51
      vertex 1.82029 -1.32252 -51
    endloop
  endfacet
  facet normal 0 0 -1
    outer loop
      vertex 4.46197 -5.39359 -51
      vertex 1.4342 -1.73365 -51
      vertex 1.64018 -1.54023 -51
    endloop
  endfacet
  facet normal 0 0 -1
    outer loop
      vertex 0.695288 -2.13988 -51
      vertex 2.16312 -6.6574 -51
      vertex 1.31167 -6.87601 -51
    endloop
  endfacet
  facet normal 0 0 -1
    outer loop
      vertex 3.75079 -5.91029 -51
      vertex 1.20561 -1.89974 -51
      vertex 1.4342 -1.73365 -51
    endloop
  endfacet
  facet normal 0 0 -1
    outer loop
      vertex 2.98045 -6.33379 -51
      vertex 0.958003 -2.03586 -51
      vertex 1.20561 -1.89974 -51
    endloop
  endfacet
  facet normal 0 0 -1
    outer loop
      vertex 2.16312 -6.6574 -51
      vertex 0.695288 -2.13988 -51
      vertex 0.958003 -2.03586 -51
    endloop
  endfacet
  facet normal 0 0 -1
    outer loop
      vertex 0.421607 -2.21015 -51
      vertex 1.31167 -6.87601 -51
      vertex 0.439533 -6.98619 -51
    endloop
  endfacet
  facet normal 0 0 -1
    outer loop
      vertex 1.31167 -6.87601 -51
      vertex 0.421607 -2.21015 -51
      vertex 0.695288 -2.13988 -51
    endloop
  endfacet
  facet normal 0 0 -1
    outer loop
      vertex 0.439533 -6.98619 -51
      vertex 0.141278 -2.24556 -51
      vertex 0.421607 -2.21015 -51
    endloop
  endfacet
  facet normal 0 0 -1
    outer loop
      vertex 0.439533 -6.98619 -51
      vertex -0.141278 -2.24556 -51
      vertex 0.141278 -2.24556 -51
    endloop
  endfacet
  facet normal 0 0 -1
    outer loop
      vertex -0.439533 -6.98619 -51
      vertex -0.141278 -2.24556 -51
      vertex 0.439533 -6.98619 -51
    endloop
  endfacet
  facet normal -0 0 -1
    outer loop
      vertex -0.141278 -2.24556 -51
      vertex -0.439533 -6.98619 -51
      vertex -0.421607 -2.21015 -51
    endloop
  endfacet
  facet normal 0 0 -1
    outer loop
      vertex -1.31167 -6.87601 -51
      vertex -0.421607 -2.21015 -51
      vertex -0.439533 -6.98619 -51
    endloop
  endfacet
  facet normal -0 0 -1
    outer loop
      vertex -0.421607 -2.21015 -51
      vertex -1.31167 -6.87601 -51
      vertex -0.695288 -2.13988 -51
    endloop
  endfacet
  facet normal 0 0 -1
    outer loop
      vertex -2.16312 -6.6574 -51
      vertex -0.695288 -2.13988 -51
      vertex -1.31167 -6.87601 -51
    endloop
  endfacet
  facet normal -0 0 -1
    outer loop
      vertex -0.695288 -2.13988 -51
      vertex -2.16312 -6.6574 -51
      vertex -0.958003 -2.03586 -51
    endloop
  endfacet
  facet normal 0 0 -1
    outer loop
      vertex -2.98045 -6.33379 -51
      vertex -0.958003 -2.03586 -51
      vertex -2.16312 -6.6574 -51
    endloop
  endfacet
  facet normal -0 0 -1
    outer loop
      vertex -0.958003 -2.03586 -51
      vertex -2.98045 -6.33379 -51
      vertex -1.20561 -1.89974 -51
    endloop
  endfacet
  facet normal 0 0 -1
    outer loop
      vertex -3.75079 -5.91029 -51
      vertex -1.20561 -1.89974 -51
      vertex -2.98045 -6.33379 -51
    endloop
  endfacet
  facet normal -0 0 -1
    outer loop
      vertex -1.20561 -1.89974 -51
      vertex -3.75079 -5.91029 -51
      vertex -1.4342 -1.73365 -51
    endloop
  endfacet
  facet normal 0 0 -1
    outer loop
      vertex -4.46197 -5.39359 -51
      vertex -1.4342 -1.73365 -51
      vertex -3.75079 -5.91029 -51
    endloop
  endfacet
  facet normal -0 0 -1
    outer loop
      vertex -1.4342 -1.73365 -51
      vertex -4.46197 -5.39359 -51
      vertex -1.64018 -1.54023 -51
    endloop
  endfacet
  facet normal 0 0 -1
    outer loop
      vertex -5.10278 -4.79183 -51
      vertex -1.64018 -1.54023 -51
      vertex -4.46197 -5.39359 -51
    endloop
  endfacet
  facet normal -0 0 -1
    outer loop
      vertex -1.64018 -1.54023 -51
      vertex -5.10278 -4.79183 -51
      vertex -1.82029 -1.32252 -51
    endloop
  endfacet
  facet normal 0 0 -1
    outer loop
      vertex -5.66312 -4.1145 -51
      vertex -1.82029 -1.32252 -51
      vertex -5.10278 -4.79183 -51
    endloop
  endfacet
  facet normal -0 0 -1
    outer loop
      vertex -1.82029 -1.32252 -51
      vertex -5.66312 -4.1145 -51
      vertex -1.97169 -1.08395 -51
    endloop
  endfacet
  facet normal 0 0 -1
    outer loop
      vertex 1.82029 1.32252 -51
      vertex 5.66312 4.1145 -51
      vertex 1.97169 1.08395 -51
    endloop
  endfacet
  facet normal -0 0 -1
    outer loop
      vertex 5.66312 4.1145 -51
      vertex 1.82029 1.32252 -51
      vertex 5.10278 4.79183 -51
    endloop
  endfacet
  facet normal 0 0 -1
    outer loop
      vertex 1.64018 1.54023 -51
      vertex 5.10278 4.79183 -51
      vertex 1.82029 1.32252 -51
    endloop
  endfacet
  facet normal -0 0 -1
    outer loop
      vertex 5.10278 4.79183 -51
      vertex 1.64018 1.54023 -51
      vertex 4.46197 5.39359 -51
    endloop
  endfacet
  facet normal 0 0 -1
    outer loop
      vertex 1.4342 1.73365 -51
      vertex 4.46197 5.39359 -51
      vertex 1.64018 1.54023 -51
    endloop
  endfacet
  facet normal -0 0 -1
    outer loop
      vertex 4.46197 5.39359 -51
      vertex 1.4342 1.73365 -51
      vertex 3.75079 5.91029 -51
    endloop
  endfacet
  facet normal 0 0 -1
    outer loop
      vertex 1.20561 1.89974 -51
      vertex 3.75079 5.91029 -51
      vertex 1.4342 1.73365 -51
    endloop
  endfacet
  facet normal -0 0 -1
    outer loop
      vertex 3.75079 5.91029 -51
      vertex 1.20561 1.89974 -51
      vertex 2.98045 6.33379 -51
    endloop
  endfacet
  facet normal 0 0 -1
    outer loop
      vertex 0.958003 2.03586 -51
      vertex 2.98045 6.33379 -51
      vertex 1.20561 1.89974 -51
    endloop
  endfacet
  facet normal -0 0 -1
    outer loop
      vertex 2.98045 6.33379 -51
      vertex 0.958003 2.03586 -51
      vertex 2.16312 6.6574 -51
    endloop
  endfacet
  facet normal 0 0 -1
    outer loop
      vertex 0.695288 2.13988 -51
      vertex 2.16312 6.6574 -51
      vertex 0.958003 2.03586 -51
    endloop
  endfacet
  facet normal -0 0 -1
    outer loop
      vertex 2.16312 6.6574 -51
      vertex 0.695288 2.13988 -51
      vertex 1.31167 6.87601 -51
    endloop
  endfacet
  facet normal 0 0 -1
    outer loop
      vertex 0.421607 2.21015 -51
      vertex 1.31167 6.87601 -51
      vertex 0.695288 2.13988 -51
    endloop
  endfacet
  facet normal -0 0 -1
    outer loop
      vertex 1.31167 6.87601 -51
      vertex 0.421607 2.21015 -51
      vertex 0.439533 6.98619 -51
    endloop
  endfacet
  facet normal 0 0 -1
    outer loop
      vertex 0.141278 2.24556 -51
      vertex 0.439533 6.98619 -51
      vertex 0.421607 2.21015 -51
    endloop
  endfacet
  facet normal 0 0 -1
    outer loop
      vertex -0.141278 2.24556 -51
      vertex 0.439533 6.98619 -51
      vertex 0.141278 2.24556 -51
    endloop
  endfacet
  facet normal 0 0 -1
    outer loop
      vertex -0.439533 6.98619 -51
      vertex -0.141278 2.24556 -51
      vertex -0.421607 2.21015 -51
    endloop
  endfacet
  facet normal 0 0 -1
    outer loop
      vertex -0.141278 2.24556 -51
      vertex -0.439533 6.98619 -51
      vertex 0.439533 6.98619 -51
    endloop
  endfacet
  facet normal 0 0 -1
    outer loop
      vertex -1.31167 6.87601 -51
      vertex -0.421607 2.21015 -51
      vertex -0.695288 2.13988 -51
    endloop
  endfacet
  facet normal 0 0 -1
    outer loop
      vertex -2.16312 6.6574 -51
      vertex -0.695288 2.13988 -51
      vertex -0.958003 2.03586 -51
    endloop
  endfacet
  facet normal 0 0 -1
    outer loop
      vertex -2.98045 6.33379 -51
      vertex -0.958003 2.03586 -51
      vertex -1.20561 1.89974 -51
    endloop
  endfacet
  facet normal 0 0 -1
    outer loop
      vertex -0.421607 2.21015 -51
      vertex -1.31167 6.87601 -51
      vertex -0.439533 6.98619 -51
    endloop
  endfacet
  facet normal 0 0 -1
    outer loop
      vertex -3.75079 5.91029 -51
      vertex -1.20561 1.89974 -51
      vertex -1.4342 1.73365 -51
    endloop
  endfacet
  facet normal 0 0 -1
    outer loop
      vertex -4.46197 5.39359 -51
      vertex -1.4342 1.73365 -51
      vertex -1.64018 1.54023 -51
    endloop
  endfacet
  facet normal 0 0 -1
    outer loop
      vertex -5.10278 4.79183 -51
      vertex -1.64018 1.54023 -51
      vertex -1.82029 1.32252 -51
    endloop
  endfacet
  facet normal 0 0 -1
    outer loop
      vertex -5.66312 4.1145 -51
      vertex -1.82029 1.32252 -51
      vertex -1.97169 1.08395 -51
    endloop
  endfacet
  facet normal 0 0 -1
    outer loop
      vertex -6.13415 3.37228 -51
      vertex -1.97169 1.08395 -51
      vertex -2.092 0.828279 -51
    endloop
  endfacet
  facet normal 0 0 -1
    outer loop
      vertex -0.695288 2.13988 -51
      vertex -2.16312 6.6574 -51
      vertex -1.31167 6.87601 -51
    endloop
  endfacet
  facet normal 0 0 -1
    outer loop
      vertex -6.50844 2.57687 -51
      vertex -2.092 0.828279 -51
      vertex -2.17931 0.559552 -51
    endloop
  endfacet
  facet normal 0 0 -1
    outer loop
      vertex -6.78008 1.74083 -51
      vertex -2.17931 0.559552 -51
      vertex -2.23226 0.282 -51
    endloop
  endfacet
  facet normal 0 0 -1
    outer loop
      vertex -6.9448 0.877332 -51
      vertex -2.23226 0.282 -51
      vertex -2.25 0 -51
    endloop
  endfacet
  facet normal 0 0 -1
    outer loop
      vertex -6.13415 -3.37228 -51
      vertex -1.97169 -1.08395 -51
      vertex -5.66312 -4.1145 -51
    endloop
  endfacet
  facet normal 0 0 -1
    outer loop
      vertex -0.958003 2.03586 -51
      vertex -2.98045 6.33379 -51
      vertex -2.16312 6.6574 -51
    endloop
  endfacet
  facet normal -0 0 -1
    outer loop
      vertex -1.97169 -1.08395 -51
      vertex -6.13415 -3.37228 -51
      vertex -2.092 -0.828279 -51
    endloop
  endfacet
  facet normal 0 0 -1
    outer loop
      vertex -1.20561 1.89974 -51
      vertex -3.75079 5.91029 -51
      vertex -2.98045 6.33379 -51
    endloop
  endfacet
  facet normal 0 0 -1
    outer loop
      vertex -6.50844 -2.57687 -51
      vertex -2.092 -0.828279 -51
      vertex -6.13415 -3.37228 -51
    endloop
  endfacet
  facet normal 0 0 -1
    outer loop
      vertex -1.4342 1.73365 -51
      vertex -4.46197 5.39359 -51
      vertex -3.75079 5.91029 -51
    endloop
  endfacet
  facet normal -0 0 -1
    outer loop
      vertex -2.092 -0.828279 -51
      vertex -6.50844 -2.57687 -51
      vertex -2.17931 -0.559552 -51
    endloop
  endfacet
  facet normal 0 0 -1
    outer loop
      vertex -1.64018 1.54023 -51
      vertex -5.10278 4.79183 -51
      vertex -4.46197 5.39359 -51
    endloop
  endfacet
  facet normal 0 0 -1
    outer loop
      vertex -6.78008 -1.74083 -51
      vertex -2.17931 -0.559552 -51
      vertex -6.50844 -2.57687 -51
    endloop
  endfacet
  facet normal 0 0 -1
    outer loop
      vertex -1.82029 1.32252 -51
      vertex -5.66312 4.1145 -51
      vertex -5.10278 4.79183 -51
    endloop
  endfacet
  facet normal -0 0 -1
    outer loop
      vertex -2.17931 -0.559552 -51
      vertex -6.78008 -1.74083 -51
      vertex -2.23226 -0.282 -51
    endloop
  endfacet
  facet normal 0 0 -1
    outer loop
      vertex -1.97169 1.08395 -51
      vertex -6.13415 3.37228 -51
      vertex -5.66312 4.1145 -51
    endloop
  endfacet
  facet normal 0 0 -1
    outer loop
      vertex -6.9448 -0.877332 -51
      vertex -2.23226 -0.282 -51
      vertex -6.78008 -1.74083 -51
    endloop
  endfacet
  facet normal 0 0 -1
    outer loop
      vertex -2.092 0.828279 -51
      vertex -6.50844 2.57687 -51
      vertex -6.13415 3.37228 -51
    endloop
  endfacet
  facet normal -0 0 -1
    outer loop
      vertex -2.23226 -0.282 -51
      vertex -6.9448 -0.877332 -51
      vertex -2.25 0 -51
    endloop
  endfacet
  facet normal 0 0 -1
    outer loop
      vertex -2.17931 0.559552 -51
      vertex -6.78008 1.74083 -51
      vertex -6.50844 2.57687 -51
    endloop
  endfacet
  facet normal 0 0 -1
    outer loop
      vertex -7 0 -51
      vertex -2.25 0 -51
      vertex -6.9448 -0.877332 -51
    endloop
  endfacet
  facet normal 0 0 -1
    outer loop
      vertex -2.23226 0.282 -51
      vertex -6.9448 0.877332 -51
      vertex -6.78008 1.74083 -51
    endloop
  endfacet
  facet normal 0 0 -1
    outer loop
      vertex -2.25 0 -51
      vertex -7 0 -51
      vertex -6.9448 0.877332 -51
    endloop
  endfacet
  facet normal 0.481755 -0.876306 0
    outer loop
      vertex 2.98045 -6.33379 -51
      vertex 3.75079 -5.91029 -3
      vertex 2.98045 -6.33379 -3
    endloop
  endfacet
  facet normal 0.481755 -0.876306 0
    outer loop
      vertex 3.75079 -5.91029 -3
      vertex 2.98045 -6.33379 -51
      vertex 3.75079 -5.91029 -51
    endloop
  endfacet
  facet normal 0.951058 -0.309011 0
    outer loop
      vertex 6.50844 -2.57687 -3
      vertex 6.78008 -1.74083 -51
      vertex 6.78008 -1.74083 -3
    endloop
  endfacet
  facet normal 0.951058 -0.309011 0
    outer loop
      vertex 6.78008 -1.74083 -51
      vertex 6.50844 -2.57687 -3
      vertex 6.50844 -2.57687 -51
    endloop
  endfacet
  facet normal -0.770511 -0.637427 0
    outer loop
      vertex -5.10278 -4.79183 -51
      vertex -5.66312 -4.1145 -3
      vertex -5.66312 -4.1145 -51
    endloop
  endfacet
  facet normal -0.770511 -0.637427 0
    outer loop
      vertex -5.66312 -4.1145 -3
      vertex -5.10278 -4.79183 -51
      vertex -5.10278 -4.79183 -3
    endloop
  endfacet
  facet normal -0.951058 -0.309011 0
    outer loop
      vertex -6.50844 -2.57687 -51
      vertex -6.78008 -1.74083 -3
      vertex -6.78008 -1.74083 -51
    endloop
  endfacet
  facet normal -0.951058 -0.309011 0
    outer loop
      vertex -6.78008 -1.74083 -3
      vertex -6.50844 -2.57687 -51
      vertex -6.50844 -2.57687 -3
    endloop
  endfacet
  facet normal 0.684547 -0.728969 0
    outer loop
      vertex 4.46197 -5.39359 -51
      vertex 5.10278 -4.79183 -3
      vertex 4.46197 -5.39359 -3
    endloop
  endfacet
  facet normal 0.684547 -0.728969 0
    outer loop
      vertex 5.10278 -4.79183 -3
      vertex 4.46197 -5.39359 -51
      vertex 5.10278 -4.79183 -51
    endloop
  endfacet
  facet normal 0.368131 -0.929774 0
    outer loop
      vertex 2.16312 -6.6574 -51
      vertex 2.98045 -6.33379 -3
      vertex 2.16312 -6.6574 -3
    endloop
  endfacet
  facet normal 0.368131 -0.929774 0
    outer loop
      vertex 2.98045 -6.33379 -3
      vertex 2.16312 -6.6574 -51
      vertex 2.98045 -6.33379 -51
    endloop
  endfacet
  facet normal 0.248684 -0.968585 0
    outer loop
      vertex 1.31167 -6.87601 -51
      vertex 2.16312 -6.6574 -3
      vertex 1.31167 -6.87601 -3
    endloop
  endfacet
  facet normal 0.248684 -0.968585 0
    outer loop
      vertex 2.16312 -6.6574 -3
      vertex 1.31167 -6.87601 -51
      vertex 2.16312 -6.6574 -51
    endloop
  endfacet
  facet normal 0.125337 -0.992114 0
    outer loop
      vertex 0.439533 -6.98619 -51
      vertex 1.31167 -6.87601 -3
      vertex 0.439533 -6.98619 -3
    endloop
  endfacet
  facet normal 0.125337 -0.992114 0
    outer loop
      vertex 1.31167 -6.87601 -3
      vertex 0.439533 -6.98619 -51
      vertex 1.31167 -6.87601 -51
    endloop
  endfacet
  facet normal 0.982287 -0.18738 0
    outer loop
      vertex 6.78008 -1.74083 -3
      vertex 6.9448 -0.877332 -51
      vertex 6.9448 -0.877332 -3
    endloop
  endfacet
  facet normal 0.982287 -0.18738 0
    outer loop
      vertex 6.9448 -0.877332 -51
      vertex 6.78008 -1.74083 -3
      vertex 6.78008 -1.74083 -51
    endloop
  endfacet
  facet normal 0.844326 -0.535829 0
    outer loop
      vertex 5.66312 -4.1145 -3
      vertex 6.13415 -3.37228 -51
      vertex 6.13415 -3.37228 -3
    endloop
  endfacet
  facet normal 0.844326 -0.535829 0
    outer loop
      vertex 6.13415 -3.37228 -51
      vertex 5.66312 -4.1145 -3
      vertex 5.66312 -4.1145 -51
    endloop
  endfacet
  facet normal 0.770511 -0.637427 0
    outer loop
      vertex 5.10278 -4.79183 -3
      vertex 5.66312 -4.1145 -51
      vertex 5.66312 -4.1145 -3
    endloop
  endfacet
  facet normal 0.770511 -0.637427 0
    outer loop
      vertex 5.66312 -4.1145 -51
      vertex 5.10278 -4.79183 -3
      vertex 5.10278 -4.79183 -51
    endloop
  endfacet
  facet normal -0.125337 -0.992114 0
    outer loop
      vertex -1.31167 -6.87601 -51
      vertex -0.439533 -6.98619 -3
      vertex -1.31167 -6.87601 -3
    endloop
  endfacet
  facet normal -0.125337 -0.992114 -0
    outer loop
      vertex -0.439533 -6.98619 -3
      vertex -1.31167 -6.87601 -51
      vertex -0.439533 -6.98619 -51
    endloop
  endfacet
  facet normal -0.368131 -0.929774 0
    outer loop
      vertex -2.98045 -6.33379 -51
      vertex -2.16312 -6.6574 -3
      vertex -2.98045 -6.33379 -3
    endloop
  endfacet
  facet normal -0.368131 -0.929774 -0
    outer loop
      vertex -2.16312 -6.6574 -3
      vertex -2.98045 -6.33379 -51
      vertex -2.16312 -6.6574 -51
    endloop
  endfacet
  facet normal -0.248684 -0.968585 0
    outer loop
      vertex -2.16312 -6.6574 -51
      vertex -1.31167 -6.87601 -3
      vertex -2.16312 -6.6574 -3
    endloop
  endfacet
  facet normal -0.248684 -0.968585 -0
    outer loop
      vertex -1.31167 -6.87601 -3
      vertex -2.16312 -6.6574 -51
      vertex -1.31167 -6.87601 -51
    endloop
  endfacet
  facet normal -0.982287 -0.18738 0
    outer loop
      vertex -6.78008 -1.74083 -51
      vertex -6.9448 -0.877332 -3
      vertex -6.9448 -0.877332 -51
    endloop
  endfacet
  facet normal -0.982287 -0.18738 0
    outer loop
      vertex -6.9448 -0.877332 -3
      vertex -6.78008 -1.74083 -51
      vertex -6.78008 -1.74083 -3
    endloop
  endfacet
  facet normal -0.998027 -0.0627939 0
    outer loop
      vertex -6.9448 -0.877332 -51
      vertex -7 0 -3
      vertex -7 0 -51
    endloop
  endfacet
  facet normal -0.998027 -0.0627939 0
    outer loop
      vertex -7 0 -3
      vertex -6.9448 -0.877332 -51
      vertex -6.9448 -0.877332 -3
    endloop
  endfacet
  facet normal 0.587783 -0.809018 0
    outer loop
      vertex 3.75079 -5.91029 -51
      vertex 4.46197 -5.39359 -3
      vertex 3.75079 -5.91029 -3
    endloop
  endfacet
  facet normal 0.587783 -0.809018 0
    outer loop
      vertex 4.46197 -5.39359 -3
      vertex 3.75079 -5.91029 -51
      vertex 4.46197 -5.39359 -51
    endloop
  endfacet
  facet normal -0.481755 -0.876306 0
    outer loop
      vertex -3.75079 -5.91029 -51
      vertex -2.98045 -6.33379 -3
      vertex -3.75079 -5.91029 -3
    endloop
  endfacet
  facet normal -0.481755 -0.876306 -0
    outer loop
      vertex -2.98045 -6.33379 -3
      vertex -3.75079 -5.91029 -51
      vertex -2.98045 -6.33379 -51
    endloop
  endfacet
  facet normal -0.587783 -0.809018 0
    outer loop
      vertex -4.46197 -5.39359 -51
      vertex -3.75079 -5.91029 -3
      vertex -4.46197 -5.39359 -3
    endloop
  endfacet
  facet normal -0.587783 -0.809018 -0
    outer loop
      vertex -3.75079 -5.91029 -3
      vertex -4.46197 -5.39359 -51
      vertex -3.75079 -5.91029 -51
    endloop
  endfacet
  facet normal 0.904831 0.425771 0
    outer loop
      vertex 9.29776 3.68124 0
      vertex 8.76307 4.81754 -3
      vertex 8.76307 4.81754 0
    endloop
  endfacet
  facet normal 0.904831 0.425771 0
    outer loop
      vertex 8.76307 4.81754 -3
      vertex 9.29776 3.68124 0
      vertex 9.29776 3.68124 -3
    endloop
  endfacet
  facet normal -0.951055 0.309021 0
    outer loop
      vertex -9.68583 2.4869 -3
      vertex -9.29776 3.68124 0
      vertex -9.29776 3.68124 -3
    endloop
  endfacet
  facet normal -0.951055 0.309021 0
    outer loop
      vertex -9.29776 3.68124 0
      vertex -9.68583 2.4869 -3
      vertex -9.68583 2.4869 0
    endloop
  endfacet
  facet normal 0.844325 0.535831 0
    outer loop
      vertex 8.76307 4.81754 0
      vertex 8.09017 5.87785 -3
      vertex 8.09017 5.87785 0
    endloop
  endfacet
  facet normal 0.844325 0.535831 0
    outer loop
      vertex 8.09017 5.87785 -3
      vertex 8.76307 4.81754 0
      vertex 8.76307 4.81754 -3
    endloop
  endfacet
  facet normal 0.248691 0.968583 -0
    outer loop
      vertex 3.09017 9.51056 -3
      vertex 1.87381 9.82287 0
      vertex 3.09017 9.51056 0
    endloop
  endfacet
  facet normal 0.248691 0.968583 0
    outer loop
      vertex 1.87381 9.82287 0
      vertex 3.09017 9.51056 -3
      vertex 1.87381 9.82287 -3
    endloop
  endfacet
  facet normal 0.368122 0.929777 -0
    outer loop
      vertex 4.25779 9.04827 -3
      vertex 3.09017 9.51056 0
      vertex 4.25779 9.04827 0
    endloop
  endfacet
  facet normal 0.368122 0.929777 0
    outer loop
      vertex 3.09017 9.51056 0
      vertex 4.25779 9.04827 -3
      vertex 3.09017 9.51056 -3
    endloop
  endfacet
  facet normal -0.368122 0.929777 0
    outer loop
      vertex -3.09017 9.51056 -3
      vertex -4.25779 9.04827 0
      vertex -3.09017 9.51056 0
    endloop
  endfacet
  facet normal -0.368122 0.929777 0
    outer loop
      vertex -4.25779 9.04827 0
      vertex -3.09017 9.51056 -3
      vertex -4.25779 9.04827 -3
    endloop
  endfacet
  facet normal -0.904831 0.425771 0
    outer loop
      vertex -9.29776 3.68124 -3
      vertex -8.76307 4.81754 0
      vertex -8.76307 4.81754 -3
    endloop
  endfacet
  facet normal -0.904831 0.425771 0
    outer loop
      vertex -8.76307 4.81754 0
      vertex -9.29776 3.68124 -3
      vertex -9.29776 3.68124 0
    endloop
  endfacet
  facet normal 0.982287 -0.187384 0
    outer loop
      vertex 9.68583 -2.4869 0
      vertex 9.92115 -1.25333 -3
      vertex 9.92115 -1.25333 0
    endloop
  endfacet
  facet normal 0.982287 -0.187384 0
    outer loop
      vertex 9.92115 -1.25333 -3
      vertex 9.68583 -2.4869 0
      vertex 9.68583 -2.4869 -3
    endloop
  endfacet
  facet normal 0.481751 0.876308 -0
    outer loop
      vertex 5.35827 8.44328 -3
      vertex 4.25779 9.04827 0
      vertex 5.35827 8.44328 0
    endloop
  endfacet
  facet normal 0.481751 0.876308 0
    outer loop
      vertex 4.25779 9.04827 0
      vertex 5.35827 8.44328 -3
      vertex 4.25779 9.04827 -3
    endloop
  endfacet
  facet normal -0.770515 0.637422 0
    outer loop
      vertex -8.09017 5.87785 -3
      vertex -7.28969 6.84547 0
      vertex -7.28969 6.84547 -3
    endloop
  endfacet
  facet normal -0.770515 0.637422 0
    outer loop
      vertex -7.28969 6.84547 0
      vertex -8.09017 5.87785 -3
      vertex -8.09017 5.87785 0
    endloop
  endfacet
  facet normal -0.481751 0.876308 0
    outer loop
      vertex -4.25779 9.04827 -3
      vertex -5.35827 8.44328 0
      vertex -4.25779 9.04827 0
    endloop
  endfacet
  facet normal -0.481751 0.876308 0
    outer loop
      vertex -5.35827 8.44328 0
      vertex -4.25779 9.04827 -3
      vertex -5.35827 8.44328 -3
    endloop
  endfacet
  facet normal -0.125338 0.992114 0
    outer loop
      vertex -0.627905 9.98027 -3
      vertex -1.87381 9.82287 0
      vertex -0.627905 9.98027 0
    endloop
  endfacet
  facet normal -0.125338 0.992114 0
    outer loop
      vertex -1.87381 9.82287 0
      vertex -0.627905 9.98027 -3
      vertex -1.87381 9.82287 -3
    endloop
  endfacet
  facet normal 0.998027 0.0627883 0
    outer loop
      vertex 10 0 0
      vertex 9.92115 1.25333 -3
      vertex 9.92115 1.25333 0
    endloop
  endfacet
  facet normal 0.998027 0.0627883 0
    outer loop
      vertex 9.92115 1.25333 -3
      vertex 10 0 0
      vertex 10 0 -3
    endloop
  endfacet
  facet normal 0.951055 -0.309021 0
    outer loop
      vertex 9.29776 -3.68124 0
      vertex 9.68583 -2.4869 -3
      vertex 9.68583 -2.4869 0
    endloop
  endfacet
  facet normal 0.951055 -0.309021 0
    outer loop
      vertex 9.68583 -2.4869 -3
      vertex 9.29776 -3.68124 0
      vertex 9.29776 -3.68124 -3
    endloop
  endfacet
  facet normal -0.684545 -0.728971 0
    outer loop
      vertex -7.28969 -6.84547 -3
      vertex -6.37424 -7.70513 0
      vertex -7.28969 -6.84547 0
    endloop
  endfacet
  facet normal -0.684545 -0.728971 -0
    outer loop
      vertex -6.37424 -7.70513 0
      vertex -7.28969 -6.84547 -3
      vertex -6.37424 -7.70513 -3
    endloop
  endfacet
  facet normal -0.904831 -0.425771 0
    outer loop
      vertex -8.76307 -4.81754 -3
      vertex -9.29776 -3.68124 0
      vertex -9.29776 -3.68124 -3
    endloop
  endfacet
  facet normal -0.904831 -0.425771 0
    outer loop
      vertex -9.29776 -3.68124 0
      vertex -8.76307 -4.81754 -3
      vertex -8.76307 -4.81754 0
    endloop
  endfacet
  facet normal 0.982287 0.187384 0
    outer loop
      vertex 9.92115 1.25333 0
      vertex 9.68583 2.4869 -3
      vertex 9.68583 2.4869 0
    endloop
  endfacet
  facet normal 0.982287 0.187384 0
    outer loop
      vertex 9.68583 2.4869 -3
      vertex 9.92115 1.25333 0
      vertex 9.92115 1.25333 -3
    endloop
  endfacet
  facet normal 0.951055 0.309021 0
    outer loop
      vertex 9.68583 2.4869 0
      vertex 9.29776 3.68124 -3
      vertex 9.29776 3.68124 0
    endloop
  endfacet
  facet normal 0.951055 0.309021 0
    outer loop
      vertex 9.29776 3.68124 -3
      vertex 9.68583 2.4869 0
      vertex 9.68583 2.4869 -3
    endloop
  endfacet
  facet normal 0.684545 0.728971 -0
    outer loop
      vertex 7.28969 6.84547 -3
      vertex 6.37424 7.70513 0
      vertex 7.28969 6.84547 0
    endloop
  endfacet
  facet normal 0.684545 0.728971 0
    outer loop
      vertex 6.37424 7.70513 0
      vertex 7.28969 6.84547 -3
      vertex 6.37424 7.70513 -3
    endloop
  endfacet
  facet normal 0 1 -0
    outer loop
      vertex 0.627905 9.98027 -3
      vertex -0.627905 9.98027 0
      vertex 0.627905 9.98027 0
    endloop
  endfacet
  facet normal 0 1 0
    outer loop
      vertex -0.627905 9.98027 0
      vertex 0.627905 9.98027 -3
      vertex -0.627905 9.98027 -3
    endloop
  endfacet
  facet normal 0.587788 0.809015 -0
    outer loop
      vertex 6.37424 7.70513 -3
      vertex 5.35827 8.44328 0
      vertex 6.37424 7.70513 0
    endloop
  endfacet
  facet normal 0.587788 0.809015 0
    outer loop
      vertex 5.35827 8.44328 0
      vertex 6.37424 7.70513 -3
      vertex 5.35827 8.44328 -3
    endloop
  endfacet
  facet normal -0.998027 0.0627883 0
    outer loop
      vertex -10 0 -3
      vertex -9.92115 1.25333 0
      vertex -9.92115 1.25333 -3
    endloop
  endfacet
  facet normal -0.998027 0.0627883 0
    outer loop
      vertex -9.92115 1.25333 0
      vertex -10 0 -3
      vertex -10 0 0
    endloop
  endfacet
  facet normal -0.844325 0.535831 0
    outer loop
      vertex -8.76307 4.81754 -3
      vertex -8.09017 5.87785 0
      vertex -8.09017 5.87785 -3
    endloop
  endfacet
  facet normal -0.844325 0.535831 0
    outer loop
      vertex -8.09017 5.87785 0
      vertex -8.76307 4.81754 -3
      vertex -8.76307 4.81754 0
    endloop
  endfacet
  facet normal -0.248691 0.968583 0
    outer loop
      vertex -1.87381 9.82287 -3
      vertex -3.09017 9.51056 0
      vertex -1.87381 9.82287 0
    endloop
  endfacet
  facet normal -0.248691 0.968583 0
    outer loop
      vertex -3.09017 9.51056 0
      vertex -1.87381 9.82287 -3
      vertex -3.09017 9.51056 -3
    endloop
  endfacet
  facet normal -0.587788 0.809015 0
    outer loop
      vertex -5.35827 8.44328 -3
      vertex -6.37424 7.70513 0
      vertex -5.35827 8.44328 0
    endloop
  endfacet
  facet normal -0.587788 0.809015 0
    outer loop
      vertex -6.37424 7.70513 0
      vertex -5.35827 8.44328 -3
      vertex -6.37424 7.70513 -3
    endloop
  endfacet
  facet normal -0.684545 0.728971 0
    outer loop
      vertex -6.37424 7.70513 -3
      vertex -7.28969 6.84547 0
      vertex -6.37424 7.70513 0
    endloop
  endfacet
  facet normal -0.684545 0.728971 0
    outer loop
      vertex -7.28969 6.84547 0
      vertex -6.37424 7.70513 -3
      vertex -7.28969 6.84547 -3
    endloop
  endfacet
  facet normal 0.998027 -0.0627883 0
    outer loop
      vertex 9.92115 -1.25333 0
      vertex 10 0 -3
      vertex 10 0 0
    endloop
  endfacet
  facet normal 0.998027 -0.0627883 0
    outer loop
      vertex 10 0 -3
      vertex 9.92115 -1.25333 0
      vertex 9.92115 -1.25333 -3
    endloop
  endfacet
  facet normal -0.770515 -0.637422 0
    outer loop
      vertex -7.28969 -6.84547 -3
      vertex -8.09017 -5.87785 0
      vertex -8.09017 -5.87785 -3
    endloop
  endfacet
  facet normal -0.770515 -0.637422 0
    outer loop
      vertex -8.09017 -5.87785 0
      vertex -7.28969 -6.84547 -3
      vertex -7.28969 -6.84547 0
    endloop
  endfacet
  facet normal 0.125338 -0.992114 0
    outer loop
      vertex 0.627905 -9.98027 -3
      vertex 1.87381 -9.82287 0
      vertex 0.627905 -9.98027 0
    endloop
  endfacet
  facet normal 0.125338 -0.992114 0
    outer loop
      vertex 1.87381 -9.82287 0
      vertex 0.627905 -9.98027 -3
      vertex 1.87381 -9.82287 -3
    endloop
  endfacet
  facet normal 0.368122 -0.929777 0
    outer loop
      vertex 3.09017 -9.51056 -3
      vertex 4.25779 -9.04827 0
      vertex 3.09017 -9.51056 0
    endloop
  endfacet
  facet normal 0.368122 -0.929777 0
    outer loop
      vertex 4.25779 -9.04827 0
      vertex 3.09017 -9.51056 -3
      vertex 4.25779 -9.04827 -3
    endloop
  endfacet
  facet normal 0.770515 0.637422 0
    outer loop
      vertex 8.09017 5.87785 0
      vertex 7.28969 6.84547 -3
      vertex 7.28969 6.84547 0
    endloop
  endfacet
  facet normal 0.770515 0.637422 0
    outer loop
      vertex 7.28969 6.84547 -3
      vertex 8.09017 5.87785 0
      vertex 8.09017 5.87785 -3
    endloop
  endfacet
  facet normal 0.125338 0.992114 -0
    outer loop
      vertex 1.87381 9.82287 -3
      vertex 0.627905 9.98027 0
      vertex 1.87381 9.82287 0
    endloop
  endfacet
  facet normal 0.125338 0.992114 0
    outer loop
      vertex 0.627905 9.98027 0
      vertex 1.87381 9.82287 -3
      vertex 0.627905 9.98027 -3
    endloop
  endfacet
  facet normal -0.982287 0.187384 0
    outer loop
      vertex -9.92115 1.25333 -3
      vertex -9.68583 2.4869 0
      vertex -9.68583 2.4869 -3
    endloop
  endfacet
  facet normal -0.982287 0.187384 0
    outer loop
      vertex -9.68583 2.4869 0
      vertex -9.92115 1.25333 -3
      vertex -9.92115 1.25333 0
    endloop
  endfacet
  facet normal 0.770515 -0.637422 0
    outer loop
      vertex 7.28969 -6.84547 0
      vertex 8.09017 -5.87785 -3
      vertex 8.09017 -5.87785 0
    endloop
  endfacet
  facet normal 0.770515 -0.637422 0
    outer loop
      vertex 8.09017 -5.87785 -3
      vertex 7.28969 -6.84547 0
      vertex 7.28969 -6.84547 -3
    endloop
  endfacet
  facet normal 0.844325 -0.535831 0
    outer loop
      vertex 8.09017 -5.87785 0
      vertex 8.76307 -4.81754 -3
      vertex 8.76307 -4.81754 0
    endloop
  endfacet
  facet normal 0.844325 -0.535831 0
    outer loop
      vertex 8.76307 -4.81754 -3
      vertex 8.09017 -5.87785 0
      vertex 8.09017 -5.87785 -3
    endloop
  endfacet
  facet normal -0.368122 -0.929777 0
    outer loop
      vertex -4.25779 -9.04827 -3
      vertex -3.09017 -9.51056 0
      vertex -4.25779 -9.04827 0
    endloop
  endfacet
  facet normal -0.368122 -0.929777 -0
    outer loop
      vertex -3.09017 -9.51056 0
      vertex -4.25779 -9.04827 -3
      vertex -3.09017 -9.51056 -3
    endloop
  endfacet
  facet normal -0.248691 -0.968583 0
    outer loop
      vertex -3.09017 -9.51056 -3
      vertex -1.87381 -9.82287 0
      vertex -3.09017 -9.51056 0
    endloop
  endfacet
  facet normal -0.248691 -0.968583 -0
    outer loop
      vertex -1.87381 -9.82287 0
      vertex -3.09017 -9.51056 -3
      vertex -1.87381 -9.82287 -3
    endloop
  endfacet
  facet normal -0.125338 -0.992114 0
    outer loop
      vertex -1.87381 -9.82287 -3
      vertex -0.627905 -9.98027 0
      vertex -1.87381 -9.82287 0
    endloop
  endfacet
  facet normal -0.125338 -0.992114 -0
    outer loop
      vertex -0.627905 -9.98027 0
      vertex -1.87381 -9.82287 -3
      vertex -0.627905 -9.98027 -3
    endloop
  endfacet
  facet normal -0.998027 -0.0627883 0
    outer loop
      vertex -9.92115 -1.25333 -3
      vertex -10 0 0
      vertex -10 0 -3
    endloop
  endfacet
  facet normal -0.998027 -0.0627883 0
    outer loop
      vertex -10 0 0
      vertex -9.92115 -1.25333 -3
      vertex -9.92115 -1.25333 0
    endloop
  endfacet
  facet normal -0.951055 -0.309021 0
    outer loop
      vertex -9.29776 -3.68124 -3
      vertex -9.68583 -2.4869 0
      vertex -9.68583 -2.4869 -3
    endloop
  endfacet
  facet normal -0.951055 -0.309021 0
    outer loop
      vertex -9.68583 -2.4869 0
      vertex -9.29776 -3.68124 -3
      vertex -9.29776 -3.68124 0
    endloop
  endfacet
  facet normal 0.248691 -0.968583 0
    outer loop
      vertex 1.87381 -9.82287 -3
      vertex 3.09017 -9.51056 0
      vertex 1.87381 -9.82287 0
    endloop
  endfacet
  facet normal 0.248691 -0.968583 0
    outer loop
      vertex 3.09017 -9.51056 0
      vertex 1.87381 -9.82287 -3
      vertex 3.09017 -9.51056 -3
    endloop
  endfacet
  facet normal 0.684545 -0.728971 0
    outer loop
      vertex 6.37424 -7.70513 -3
      vertex 7.28969 -6.84547 0
      vertex 6.37424 -7.70513 0
    endloop
  endfacet
  facet normal 0.684545 -0.728971 0
    outer loop
      vertex 7.28969 -6.84547 0
      vertex 6.37424 -7.70513 -3
      vertex 7.28969 -6.84547 -3
    endloop
  endfacet
  facet normal 0.587788 -0.809015 0
    outer loop
      vertex 5.35827 -8.44328 -3
      vertex 6.37424 -7.70513 0
      vertex 5.35827 -8.44328 0
    endloop
  endfacet
  facet normal 0.587788 -0.809015 0
    outer loop
      vertex 6.37424 -7.70513 0
      vertex 5.35827 -8.44328 -3
      vertex 6.37424 -7.70513 -3
    endloop
  endfacet
  facet normal 0.481751 -0.876308 0
    outer loop
      vertex 4.25779 -9.04827 -3
      vertex 5.35827 -8.44328 0
      vertex 4.25779 -9.04827 0
    endloop
  endfacet
  facet normal 0.481751 -0.876308 0
    outer loop
      vertex 5.35827 -8.44328 0
      vertex 4.25779 -9.04827 -3
      vertex 5.35827 -8.44328 -3
    endloop
  endfacet
  facet normal 0.904831 -0.425771 0
    outer loop
      vertex 8.76307 -4.81754 0
      vertex 9.29776 -3.68124 -3
      vertex 9.29776 -3.68124 0
    endloop
  endfacet
  facet normal 0.904831 -0.425771 0
    outer loop
      vertex 9.29776 -3.68124 -3
      vertex 8.76307 -4.81754 0
      vertex 8.76307 -4.81754 -3
    endloop
  endfacet
  facet normal 0 -1 0
    outer loop
      vertex -0.627905 -9.98027 -3
      vertex 0.627905 -9.98027 0
      vertex -0.627905 -9.98027 0
    endloop
  endfacet
  facet normal 0 -1 -0
    outer loop
      vertex 0.627905 -9.98027 0
      vertex -0.627905 -9.98027 -3
      vertex 0.627905 -9.98027 -3
    endloop
  endfacet
  facet normal -0.481751 -0.876308 0
    outer loop
      vertex -5.35827 -8.44328 -3
      vertex -4.25779 -9.04827 0
      vertex -5.35827 -8.44328 0
    endloop
  endfacet
  facet normal -0.481751 -0.876308 -0
    outer loop
      vertex -4.25779 -9.04827 0
      vertex -5.35827 -8.44328 -3
      vertex -4.25779 -9.04827 -3
    endloop
  endfacet
  facet normal 0 0 -1
    outer loop
      vertex 7 0 -3
      vertex 10 0 -3
      vertex 9.92115 -1.25333 -3
    endloop
  endfacet
  facet normal 0 0 -1
    outer loop
      vertex 6.9448 -0.877332 -3
      vertex 9.92115 -1.25333 -3
      vertex 9.68583 -2.4869 -3
    endloop
  endfacet
  facet normal 0 0 -1
    outer loop
      vertex 10 0 -3
      vertex 7 0 -3
      vertex 9.92115 1.25333 -3
    endloop
  endfacet
  facet normal 0 0 -1
    outer loop
      vertex 6.78008 -1.74083 -3
      vertex 9.68583 -2.4869 -3
      vertex 9.29776 -3.68124 -3
    endloop
  endfacet
  facet normal 0 0 -1
    outer loop
      vertex 6.9448 0.877332 -3
      vertex 9.92115 1.25333 -3
      vertex 7 0 -3
    endloop
  endfacet
  facet normal 0 0 -1
    outer loop
      vertex 6.50844 -2.57687 -3
      vertex 9.29776 -3.68124 -3
      vertex 8.76307 -4.81754 -3
    endloop
  endfacet
  facet normal -0 0 -1
    outer loop
      vertex 9.92115 1.25333 -3
      vertex 6.9448 0.877332 -3
      vertex 9.68583 2.4869 -3
    endloop
  endfacet
  facet normal 0 0 -1
    outer loop
      vertex 6.13415 -3.37228 -3
      vertex 8.76307 -4.81754 -3
      vertex 8.09017 -5.87785 -3
    endloop
  endfacet
  facet normal 0 0 -1
    outer loop
      vertex 6.78008 1.74083 -3
      vertex 9.68583 2.4869 -3
      vertex 6.9448 0.877332 -3
    endloop
  endfacet
  facet normal 0 0 -1
    outer loop
      vertex 5.66312 -4.1145 -3
      vertex 8.09017 -5.87785 -3
      vertex 7.28969 -6.84547 -3
    endloop
  endfacet
  facet normal -0 0 -1
    outer loop
      vertex 9.68583 2.4869 -3
      vertex 6.78008 1.74083 -3
      vertex 9.29776 3.68124 -3
    endloop
  endfacet
  facet normal 0 0 -1
    outer loop
      vertex 6.50844 2.57687 -3
      vertex 9.29776 3.68124 -3
      vertex 6.78008 1.74083 -3
    endloop
  endfacet
  facet normal 0 0 -1
    outer loop
      vertex 9.92115 -1.25333 -3
      vertex 6.9448 -0.877332 -3
      vertex 7 0 -3
    endloop
  endfacet
  facet normal 0 0 -1
    outer loop
      vertex 9.68583 -2.4869 -3
      vertex 6.78008 -1.74083 -3
      vertex 6.9448 -0.877332 -3
    endloop
  endfacet
  facet normal 0 0 -1
    outer loop
      vertex 9.29776 -3.68124 -3
      vertex 6.50844 -2.57687 -3
      vertex 6.78008 -1.74083 -3
    endloop
  endfacet
  facet normal 0 0 -1
    outer loop
      vertex 5.10278 -4.79183 -3
      vertex 7.28969 -6.84547 -3
      vertex 6.37424 -7.70513 -3
    endloop
  endfacet
  facet normal 0 0 -1
    outer loop
      vertex 8.76307 -4.81754 -3
      vertex 6.13415 -3.37228 -3
      vertex 6.50844 -2.57687 -3
    endloop
  endfacet
  facet normal 0 0 -1
    outer loop
      vertex 8.09017 -5.87785 -3
      vertex 5.66312 -4.1145 -3
      vertex 6.13415 -3.37228 -3
    endloop
  endfacet
  facet normal 0 0 -1
    outer loop
      vertex 4.46197 -5.39359 -3
      vertex 6.37424 -7.70513 -3
      vertex 5.35827 -8.44328 -3
    endloop
  endfacet
  facet normal 0 0 -1
    outer loop
      vertex 7.28969 -6.84547 -3
      vertex 5.10278 -4.79183 -3
      vertex 5.66312 -4.1145 -3
    endloop
  endfacet
  facet normal 0 0 -1
    outer loop
      vertex 6.37424 -7.70513 -3
      vertex 4.46197 -5.39359 -3
      vertex 5.10278 -4.79183 -3
    endloop
  endfacet
  facet normal 0 0 -1
    outer loop
      vertex 3.75079 -5.91029 -3
      vertex 5.35827 -8.44328 -3
      vertex 4.25779 -9.04827 -3
    endloop
  endfacet
  facet normal 0 0 -1
    outer loop
      vertex 5.35827 -8.44328 -3
      vertex 3.75079 -5.91029 -3
      vertex 4.46197 -5.39359 -3
    endloop
  endfacet
  facet normal 0 0 -1
    outer loop
      vertex 2.98045 -6.33379 -3
      vertex 4.25779 -9.04827 -3
      vertex 3.09017 -9.51056 -3
    endloop
  endfacet
  facet normal 0 0 -1
    outer loop
      vertex 4.25779 -9.04827 -3
      vertex 2.98045 -6.33379 -3
      vertex 3.75079 -5.91029 -3
    endloop
  endfacet
  facet normal 0 0 -1
    outer loop
      vertex 3.09017 -9.51056 -3
      vertex 2.16312 -6.6574 -3
      vertex 2.98045 -6.33379 -3
    endloop
  endfacet
  facet normal 0 0 -1
    outer loop
      vertex 1.87381 -9.82287 -3
      vertex 2.16312 -6.6574 -3
      vertex 3.09017 -9.51056 -3
    endloop
  endfacet
  facet normal 0 0 -1
    outer loop
      vertex 1.87381 -9.82287 -3
      vertex 1.31167 -6.87601 -3
      vertex 2.16312 -6.6574 -3
    endloop
  endfacet
  facet normal 0 0 -1
    outer loop
      vertex 0.627905 -9.98027 -3
      vertex 1.31167 -6.87601 -3
      vertex 1.87381 -9.82287 -3
    endloop
  endfacet
  facet normal 0 0 -1
    outer loop
      vertex 0.627905 -9.98027 -3
      vertex 0.439533 -6.98619 -3
      vertex 1.31167 -6.87601 -3
    endloop
  endfacet
  facet normal 0 0 -1
    outer loop
      vertex 0.627905 -9.98027 -3
      vertex -0.439533 -6.98619 -3
      vertex 0.439533 -6.98619 -3
    endloop
  endfacet
  facet normal 0 0 -1
    outer loop
      vertex -0.627905 -9.98027 -3
      vertex -0.439533 -6.98619 -3
      vertex 0.627905 -9.98027 -3
    endloop
  endfacet
  facet normal 0 0 -1
    outer loop
      vertex -0.627905 -9.98027 -3
      vertex -1.31167 -6.87601 -3
      vertex -0.439533 -6.98619 -3
    endloop
  endfacet
  facet normal 0 0 -1
    outer loop
      vertex -1.87381 -9.82287 -3
      vertex -1.31167 -6.87601 -3
      vertex -0.627905 -9.98027 -3
    endloop
  endfacet
  facet normal 0 0 -1
    outer loop
      vertex -1.87381 -9.82287 -3
      vertex -2.16312 -6.6574 -3
      vertex -1.31167 -6.87601 -3
    endloop
  endfacet
  facet normal 0 0 -1
    outer loop
      vertex -3.09017 -9.51056 -3
      vertex -2.16312 -6.6574 -3
      vertex -1.87381 -9.82287 -3
    endloop
  endfacet
  facet normal -0 0 -1
    outer loop
      vertex -2.16312 -6.6574 -3
      vertex -3.09017 -9.51056 -3
      vertex -2.98045 -6.33379 -3
    endloop
  endfacet
  facet normal 0 0 -1
    outer loop
      vertex -4.25779 -9.04827 -3
      vertex -2.98045 -6.33379 -3
      vertex -3.09017 -9.51056 -3
    endloop
  endfacet
  facet normal -0 0 -1
    outer loop
      vertex -2.98045 -6.33379 -3
      vertex -4.25779 -9.04827 -3
      vertex -3.75079 -5.91029 -3
    endloop
  endfacet
  facet normal 0 0 -1
    outer loop
      vertex -5.35827 -8.44328 -3
      vertex -3.75079 -5.91029 -3
      vertex -4.25779 -9.04827 -3
    endloop
  endfacet
  facet normal -0 0 -1
    outer loop
      vertex -3.75079 -5.91029 -3
      vertex -5.35827 -8.44328 -3
      vertex -4.46197 -5.39359 -3
    endloop
  endfacet
  facet normal 0 0 -1
    outer loop
      vertex -6.37424 -7.70513 -3
      vertex -4.46197 -5.39359 -3
      vertex -5.35827 -8.44328 -3
    endloop
  endfacet
  facet normal -0 0 -1
    outer loop
      vertex -4.46197 -5.39359 -3
      vertex -6.37424 -7.70513 -3
      vertex -5.10278 -4.79183 -3
    endloop
  endfacet
  facet normal 0 0 -1
    outer loop
      vertex -7.28969 -6.84547 -3
      vertex -5.10278 -4.79183 -3
      vertex -6.37424 -7.70513 -3
    endloop
  endfacet
  facet normal -0 0 -1
    outer loop
      vertex -5.10278 -4.79183 -3
      vertex -7.28969 -6.84547 -3
      vertex -5.66312 -4.1145 -3
    endloop
  endfacet
  facet normal 0 0 -1
    outer loop
      vertex -8.09017 -5.87785 -3
      vertex -5.66312 -4.1145 -3
      vertex -7.28969 -6.84547 -3
    endloop
  endfacet
  facet normal -0 0 -1
    outer loop
      vertex -5.66312 -4.1145 -3
      vertex -8.09017 -5.87785 -3
      vertex -6.13415 -3.37228 -3
    endloop
  endfacet
  facet normal 0 0 -1
    outer loop
      vertex -8.76307 -4.81754 -3
      vertex -6.13415 -3.37228 -3
      vertex -8.09017 -5.87785 -3
    endloop
  endfacet
  facet normal 0 0 -1
    outer loop
      vertex -9.29776 -3.68124 -3
      vertex -6.50844 -2.57687 -3
      vertex -8.76307 -4.81754 -3
    endloop
  endfacet
  facet normal -0 0 -1
    outer loop
      vertex -6.13415 -3.37228 -3
      vertex -8.76307 -4.81754 -3
      vertex -6.50844 -2.57687 -3
    endloop
  endfacet
  facet normal -0 0 -1
    outer loop
      vertex 9.29776 3.68124 -3
      vertex 6.50844 2.57687 -3
      vertex 8.76307 4.81754 -3
    endloop
  endfacet
  facet normal 0 0 -1
    outer loop
      vertex 6.13415 3.37228 -3
      vertex 8.76307 4.81754 -3
      vertex 6.50844 2.57687 -3
    endloop
  endfacet
  facet normal -0 0 -1
    outer loop
      vertex 8.76307 4.81754 -3
      vertex 6.13415 3.37228 -3
      vertex 8.09017 5.87785 -3
    endloop
  endfacet
  facet normal 0 0 -1
    outer loop
      vertex 5.66312 4.1145 -3
      vertex 8.09017 5.87785 -3
      vertex 6.13415 3.37228 -3
    endloop
  endfacet
  facet normal -0 0 -1
    outer loop
      vertex 8.09017 5.87785 -3
      vertex 5.66312 4.1145 -3
      vertex 7.28969 6.84547 -3
    endloop
  endfacet
  facet normal 0 0 -1
    outer loop
      vertex 5.10278 4.79183 -3
      vertex 7.28969 6.84547 -3
      vertex 5.66312 4.1145 -3
    endloop
  endfacet
  facet normal -0 0 -1
    outer loop
      vertex 7.28969 6.84547 -3
      vertex 5.10278 4.79183 -3
      vertex 6.37424 7.70513 -3
    endloop
  endfacet
  facet normal 0 0 -1
    outer loop
      vertex 4.46197 5.39359 -3
      vertex 6.37424 7.70513 -3
      vertex 5.10278 4.79183 -3
    endloop
  endfacet
  facet normal -0 0 -1
    outer loop
      vertex 6.37424 7.70513 -3
      vertex 4.46197 5.39359 -3
      vertex 5.35827 8.44328 -3
    endloop
  endfacet
  facet normal 0 0 -1
    outer loop
      vertex 3.75079 5.91029 -3
      vertex 5.35827 8.44328 -3
      vertex 4.46197 5.39359 -3
    endloop
  endfacet
  facet normal -0 0 -1
    outer loop
      vertex 5.35827 8.44328 -3
      vertex 3.75079 5.91029 -3
      vertex 4.25779 9.04827 -3
    endloop
  endfacet
  facet normal 0 0 -1
    outer loop
      vertex 2.98045 6.33379 -3
      vertex 4.25779 9.04827 -3
      vertex 3.75079 5.91029 -3
    endloop
  endfacet
  facet normal -0 0 -1
    outer loop
      vertex 4.25779 9.04827 -3
      vertex 2.98045 6.33379 -3
      vertex 3.09017 9.51056 -3
    endloop
  endfacet
  facet normal 0 0 -1
    outer loop
      vertex 2.16312 6.6574 -3
      vertex 3.09017 9.51056 -3
      vertex 2.98045 6.33379 -3
    endloop
  endfacet
  facet normal 0 0 -1
    outer loop
      vertex 2.16312 6.6574 -3
      vertex 1.87381 9.82287 -3
      vertex 3.09017 9.51056 -3
    endloop
  endfacet
  facet normal 0 0 -1
    outer loop
      vertex 1.31167 6.87601 -3
      vertex 1.87381 9.82287 -3
      vertex 2.16312 6.6574 -3
    endloop
  endfacet
  facet normal 0 0 -1
    outer loop
      vertex 1.31167 6.87601 -3
      vertex 0.627905 9.98027 -3
      vertex 1.87381 9.82287 -3
    endloop
  endfacet
  facet normal 0 0 -1
    outer loop
      vertex 0.439533 6.98619 -3
      vertex 0.627905 9.98027 -3
      vertex 1.31167 6.87601 -3
    endloop
  endfacet
  facet normal 0 0 -1
    outer loop
      vertex -0.439533 6.98619 -3
      vertex 0.627905 9.98027 -3
      vertex 0.439533 6.98619 -3
    endloop
  endfacet
  facet normal 0 0 -1
    outer loop
      vertex -0.439533 6.98619 -3
      vertex -0.627905 9.98027 -3
      vertex 0.627905 9.98027 -3
    endloop
  endfacet
  facet normal 0 0 -1
    outer loop
      vertex -1.31167 6.87601 -3
      vertex -0.627905 9.98027 -3
      vertex -0.439533 6.98619 -3
    endloop
  endfacet
  facet normal 0 0 -1
    outer loop
      vertex -1.31167 6.87601 -3
      vertex -1.87381 9.82287 -3
      vertex -0.627905 9.98027 -3
    endloop
  endfacet
  facet normal 0 0 -1
    outer loop
      vertex -2.16312 6.6574 -3
      vertex -1.87381 9.82287 -3
      vertex -1.31167 6.87601 -3
    endloop
  endfacet
  facet normal 0 0 -1
    outer loop
      vertex -3.09017 9.51056 -3
      vertex -2.16312 6.6574 -3
      vertex -2.98045 6.33379 -3
    endloop
  endfacet
  facet normal 0 0 -1
    outer loop
      vertex -2.16312 6.6574 -3
      vertex -3.09017 9.51056 -3
      vertex -1.87381 9.82287 -3
    endloop
  endfacet
  facet normal 0 0 -1
    outer loop
      vertex -4.25779 9.04827 -3
      vertex -2.98045 6.33379 -3
      vertex -3.75079 5.91029 -3
    endloop
  endfacet
  facet normal 0 0 -1
    outer loop
      vertex -2.98045 6.33379 -3
      vertex -4.25779 9.04827 -3
      vertex -3.09017 9.51056 -3
    endloop
  endfacet
  facet normal 0 0 -1
    outer loop
      vertex -5.35827 8.44328 -3
      vertex -3.75079 5.91029 -3
      vertex -4.46197 5.39359 -3
    endloop
  endfacet
  facet normal 0 0 -1
    outer loop
      vertex -6.37424 7.70513 -3
      vertex -4.46197 5.39359 -3
      vertex -5.10278 4.79183 -3
    endloop
  endfacet
  facet normal 0 0 -1
    outer loop
      vertex -3.75079 5.91029 -3
      vertex -5.35827 8.44328 -3
      vertex -4.25779 9.04827 -3
    endloop
  endfacet
  facet normal 0 0 -1
    outer loop
      vertex -7.28969 6.84547 -3
      vertex -5.10278 4.79183 -3
      vertex -5.66312 4.1145 -3
    endloop
  endfacet
  facet normal 0 0 -1
    outer loop
      vertex -8.09017 5.87785 -3
      vertex -5.66312 4.1145 -3
      vertex -6.13415 3.37228 -3
    endloop
  endfacet
  facet normal 0 0 -1
    outer loop
      vertex -4.46197 5.39359 -3
      vertex -6.37424 7.70513 -3
      vertex -5.35827 8.44328 -3
    endloop
  endfacet
  facet normal 0 0 -1
    outer loop
      vertex -8.76307 4.81754 -3
      vertex -6.13415 3.37228 -3
      vertex -6.50844 2.57687 -3
    endloop
  endfacet
  facet normal 0 0 -1
    outer loop
      vertex -9.29776 3.68124 -3
      vertex -6.50844 2.57687 -3
      vertex -6.78008 1.74083 -3
    endloop
  endfacet
  facet normal 0 0 -1
    outer loop
      vertex -9.68583 2.4869 -3
      vertex -6.78008 1.74083 -3
      vertex -6.9448 0.877332 -3
    endloop
  endfacet
  facet normal 0 0 -1
    outer loop
      vertex -5.10278 4.79183 -3
      vertex -7.28969 6.84547 -3
      vertex -6.37424 7.70513 -3
    endloop
  endfacet
  facet normal 0 0 -1
    outer loop
      vertex -9.92115 1.25333 -3
      vertex -6.9448 0.877332 -3
      vertex -7 0 -3
    endloop
  endfacet
  facet normal -0 0 -1
    outer loop
      vertex -6.50844 -2.57687 -3
      vertex -9.29776 -3.68124 -3
      vertex -6.78008 -1.74083 -3
    endloop
  endfacet
  facet normal 0 0 -1
    outer loop
      vertex -9.68583 -2.4869 -3
      vertex -6.78008 -1.74083 -3
      vertex -9.29776 -3.68124 -3
    endloop
  endfacet
  facet normal 0 0 -1
    outer loop
      vertex -5.66312 4.1145 -3
      vertex -8.09017 5.87785 -3
      vertex -7.28969 6.84547 -3
    endloop
  endfacet
  facet normal -0 0 -1
    outer loop
      vertex -6.78008 -1.74083 -3
      vertex -9.68583 -2.4869 -3
      vertex -6.9448 -0.877332 -3
    endloop
  endfacet
  facet normal 0 0 -1
    outer loop
      vertex -6.13415 3.37228 -3
      vertex -8.76307 4.81754 -3
      vertex -8.09017 5.87785 -3
    endloop
  endfacet
  facet normal 0 0 -1
    outer loop
      vertex -9.92115 -1.25333 -3
      vertex -6.9448 -0.877332 -3
      vertex -9.68583 -2.4869 -3
    endloop
  endfacet
  facet normal 0 0 -1
    outer loop
      vertex -6.50844 2.57687 -3
      vertex -9.29776 3.68124 -3
      vertex -8.76307 4.81754 -3
    endloop
  endfacet
  facet normal -0 0 -1
    outer loop
      vertex -6.9448 -0.877332 -3
      vertex -9.92115 -1.25333 -3
      vertex -7 0 -3
    endloop
  endfacet
  facet normal 0 0 -1
    outer loop
      vertex -6.78008 1.74083 -3
      vertex -9.68583 2.4869 -3
      vertex -9.29776 3.68124 -3
    endloop
  endfacet
  facet normal 0 0 -1
    outer loop
      vertex -10 0 -3
      vertex -7 0 -3
      vertex -9.92115 -1.25333 -3
    endloop
  endfacet
  facet normal 0 0 -1
    outer loop
      vertex -6.9448 0.877332 -3
      vertex -9.92115 1.25333 -3
      vertex -9.68583 2.4869 -3
    endloop
  endfacet
  facet normal 0 0 -1
    outer loop
      vertex -7 0 -3
      vertex -10 0 -3
      vertex -9.92115 1.25333 -3
    endloop
  endfacet
  facet normal -0.982287 -0.187384 0
    outer loop
      vertex -9.68583 -2.4869 -3
      vertex -9.92115 -1.25333 0
      vertex -9.92115 -1.25333 -3
    endloop
  endfacet
  facet normal -0.982287 -0.187384 0
    outer loop
      vertex -9.92115 -1.25333 0
      vertex -9.68583 -2.4869 -3
      vertex -9.68583 -2.4869 0
    endloop
  endfacet
  facet normal -0.844325 -0.535831 0
    outer loop
      vertex -8.09017 -5.87785 -3
      vertex -8.76307 -4.81754 0
      vertex -8.76307 -4.81754 -3
    endloop
  endfacet
  facet normal -0.844325 -0.535831 0
    outer loop
      vertex -8.76307 -4.81754 0
      vertex -8.09017 -5.87785 -3
      vertex -8.09017 -5.87785 0
    endloop
  endfacet
  facet normal -0.587788 -0.809015 0
    outer loop
      vertex -6.37424 -7.70513 -3
      vertex -5.35827 -8.44328 0
      vertex -6.37424 -7.70513 0
    endloop
  endfacet
  facet normal -0.587788 -0.809015 -0
    outer loop
      vertex -5.35827 -8.44328 0
      vertex -6.37424 -7.70513 -3
      vertex -5.35827 -8.44328 -3
    endloop
  endfacet
  facet normal -0.998027 -0.0627837 0
    outer loop
      vertex 2.25 0 -51
      vertex 2.23226 0.282 0
      vertex 2.23226 0.282 -51
    endloop
  endfacet
  facet normal -0.998027 -0.0627837 0
    outer loop
      vertex 2.23226 0.282 0
      vertex 2.25 0 -51
      vertex 2.25 0 0
    endloop
  endfacet
  facet normal 0.998027 -0.0627837 0
    outer loop
      vertex -2.25 0 0
      vertex -2.23226 0.282 -51
      vertex -2.23226 0.282 0
    endloop
  endfacet
  facet normal 0.998027 -0.0627837 0
    outer loop
      vertex -2.23226 0.282 -51
      vertex -2.25 0 0
      vertex -2.25 0 -51
    endloop
  endfacet
  facet normal 0 -1 0
    outer loop
      vertex -0.141278 2.24556 -51
      vertex 0.141278 2.24556 0
      vertex -0.141278 2.24556 0
    endloop
  endfacet
  facet normal 0 -1 -0
    outer loop
      vertex 0.141278 2.24556 0
      vertex -0.141278 2.24556 -51
      vertex 0.141278 2.24556 -51
    endloop
  endfacet
  facet normal 0 1 -0
    outer loop
      vertex 0.141278 -2.24556 -51
      vertex -0.141278 -2.24556 0
      vertex 0.141278 -2.24556 0
    endloop
  endfacet
  facet normal 0 1 0
    outer loop
      vertex -0.141278 -2.24556 0
      vertex 0.141278 -2.24556 -51
      vertex -0.141278 -2.24556 -51
    endloop
  endfacet
  facet normal -0.684532 -0.728983 0
    outer loop
      vertex 1.4342 1.73365 -51
      vertex 1.64018 1.54023 0
      vertex 1.4342 1.73365 0
    endloop
  endfacet
  facet normal -0.684532 -0.728983 -0
    outer loop
      vertex 1.64018 1.54023 0
      vertex 1.4342 1.73365 -51
      vertex 1.64018 1.54023 -51
    endloop
  endfacet
  facet normal 0.684532 -0.728983 0
    outer loop
      vertex -1.64018 1.54023 -51
      vertex -1.4342 1.73365 0
      vertex -1.64018 1.54023 0
    endloop
  endfacet
  facet normal 0.684532 -0.728983 0
    outer loop
      vertex -1.4342 1.73365 0
      vertex -1.64018 1.54023 -51
      vertex -1.4342 1.73365 -51
    endloop
  endfacet
  facet normal 0.368136 -0.929772 0
    outer loop
      vertex -0.958003 2.03586 -51
      vertex -0.695288 2.13988 0
      vertex -0.958003 2.03586 0
    endloop
  endfacet
  facet normal 0.368136 -0.929772 0
    outer loop
      vertex -0.695288 2.13988 0
      vertex -0.958003 2.03586 -51
      vertex -0.695288 2.13988 -51
    endloop
  endfacet
  facet normal -0.951061 0.309002 0
    outer loop
      vertex 2.092 -0.828279 -51
      vertex 2.17931 -0.559552 0
      vertex 2.17931 -0.559552 -51
    endloop
  endfacet
  facet normal -0.951061 0.309002 0
    outer loop
      vertex 2.17931 -0.559552 0
      vertex 2.092 -0.828279 -51
      vertex 2.092 -0.828279 0
    endloop
  endfacet
  facet normal -0.904827 -0.42578 0
    outer loop
      vertex 2.092 0.828279 -51
      vertex 1.97169 1.08395 0
      vertex 1.97169 1.08395 -51
    endloop
  endfacet
  facet normal -0.904827 -0.42578 0
    outer loop
      vertex 1.97169 1.08395 0
      vertex 2.092 0.828279 -51
      vertex 2.092 0.828279 0
    endloop
  endfacet
  facet normal -0.982285 -0.187395 0
    outer loop
      vertex 2.23226 0.282 -51
      vertex 2.17931 0.559552 0
      vertex 2.17931 0.559552 -51
    endloop
  endfacet
  facet normal -0.982285 -0.187395 0
    outer loop
      vertex 2.17931 0.559552 0
      vertex 2.23226 0.282 -51
      vertex 2.23226 0.282 0
    endloop
  endfacet
  facet normal -0.368136 -0.929772 0
    outer loop
      vertex 0.695288 2.13988 -51
      vertex 0.958003 2.03586 0
      vertex 0.695288 2.13988 0
    endloop
  endfacet
  facet normal -0.368136 -0.929772 -0
    outer loop
      vertex 0.958003 2.03586 0
      vertex 0.695288 2.13988 -51
      vertex 0.958003 2.03586 -51
    endloop
  endfacet
  facet normal -0.248692 -0.968583 0
    outer loop
      vertex 0.421607 2.21015 -51
      vertex 0.695288 2.13988 0
      vertex 0.421607 2.21015 0
    endloop
  endfacet
  facet normal -0.248692 -0.968583 -0
    outer loop
      vertex 0.695288 2.13988 0
      vertex 0.421607 2.21015 -51
      vertex 0.695288 2.13988 -51
    endloop
  endfacet
  facet normal -0.587808 -0.809001 0
    outer loop
      vertex 1.20561 1.89974 -51
      vertex 1.4342 1.73365 0
      vertex 1.20561 1.89974 0
    endloop
  endfacet
  facet normal -0.587808 -0.809001 -0
    outer loop
      vertex 1.4342 1.73365 0
      vertex 1.20561 1.89974 -51
      vertex 1.4342 1.73365 -51
    endloop
  endfacet
  facet normal 0.904827 -0.42578 0
    outer loop
      vertex -2.092 0.828279 0
      vertex -1.97169 1.08395 -51
      vertex -1.97169 1.08395 0
    endloop
  endfacet
  facet normal 0.904827 -0.42578 0
    outer loop
      vertex -1.97169 1.08395 -51
      vertex -2.092 0.828279 0
      vertex -2.092 0.828279 -51
    endloop
  endfacet
  facet normal 0.770505 -0.637434 0
    outer loop
      vertex -1.82029 1.32252 0
      vertex -1.64018 1.54023 -51
      vertex -1.64018 1.54023 0
    endloop
  endfacet
  facet normal 0.770505 -0.637434 0
    outer loop
      vertex -1.64018 1.54023 -51
      vertex -1.82029 1.32252 0
      vertex -1.82029 1.32252 -51
    endloop
  endfacet
  facet normal 0.951061 -0.309002 0
    outer loop
      vertex -2.17931 0.559552 0
      vertex -2.092 0.828279 -51
      vertex -2.092 0.828279 0
    endloop
  endfacet
  facet normal 0.951061 -0.309002 0
    outer loop
      vertex -2.092 0.828279 -51
      vertex -2.17931 0.559552 0
      vertex -2.17931 0.559552 -51
    endloop
  endfacet
  facet normal 0.481745 -0.876311 0
    outer loop
      vertex -1.20561 1.89974 -51
      vertex -0.958003 2.03586 0
      vertex -1.20561 1.89974 0
    endloop
  endfacet
  facet normal 0.481745 -0.876311 0
    outer loop
      vertex -0.958003 2.03586 0
      vertex -1.20561 1.89974 -51
      vertex -0.958003 2.03586 -51
    endloop
  endfacet
  facet normal 0.12532 -0.992116 0
    outer loop
      vertex -0.421607 2.21015 -51
      vertex -0.141278 2.24556 0
      vertex -0.421607 2.21015 0
    endloop
  endfacet
  facet normal 0.12532 -0.992116 0
    outer loop
      vertex -0.141278 2.24556 0
      vertex -0.421607 2.21015 -51
      vertex -0.141278 2.24556 -51
    endloop
  endfacet
  facet normal -0.12532 0.992116 0
    outer loop
      vertex 0.421607 -2.21015 -51
      vertex 0.141278 -2.24556 0
      vertex 0.421607 -2.21015 0
    endloop
  endfacet
  facet normal -0.12532 0.992116 0
    outer loop
      vertex 0.141278 -2.24556 0
      vertex 0.421607 -2.21015 -51
      vertex 0.141278 -2.24556 -51
    endloop
  endfacet
  facet normal -0.951061 -0.309002 0
    outer loop
      vertex 2.17931 0.559552 -51
      vertex 2.092 0.828279 0
      vertex 2.092 0.828279 -51
    endloop
  endfacet
  facet normal -0.951061 -0.309002 0
    outer loop
      vertex 2.092 0.828279 0
      vertex 2.17931 0.559552 -51
      vertex 2.17931 0.559552 0
    endloop
  endfacet
  facet normal -0.770505 -0.637434 0
    outer loop
      vertex 1.82029 1.32252 -51
      vertex 1.64018 1.54023 0
      vertex 1.64018 1.54023 -51
    endloop
  endfacet
  facet normal -0.770505 -0.637434 0
    outer loop
      vertex 1.64018 1.54023 0
      vertex 1.82029 1.32252 -51
      vertex 1.82029 1.32252 0
    endloop
  endfacet
  facet normal -0.84433 -0.535824 0
    outer loop
      vertex 1.97169 1.08395 -51
      vertex 1.82029 1.32252 0
      vertex 1.82029 1.32252 -51
    endloop
  endfacet
  facet normal -0.84433 -0.535824 0
    outer loop
      vertex 1.82029 1.32252 0
      vertex 1.97169 1.08395 -51
      vertex 1.97169 1.08395 0
    endloop
  endfacet
  facet normal -0.12532 -0.992116 0
    outer loop
      vertex 0.141278 2.24556 -51
      vertex 0.421607 2.21015 0
      vertex 0.141278 2.24556 0
    endloop
  endfacet
  facet normal -0.12532 -0.992116 -0
    outer loop
      vertex 0.421607 2.21015 0
      vertex 0.141278 2.24556 -51
      vertex 0.421607 2.21015 -51
    endloop
  endfacet
  facet normal -0.481745 -0.876311 0
    outer loop
      vertex 0.958003 2.03586 -51
      vertex 1.20561 1.89974 0
      vertex 0.958003 2.03586 0
    endloop
  endfacet
  facet normal -0.481745 -0.876311 -0
    outer loop
      vertex 1.20561 1.89974 0
      vertex 0.958003 2.03586 -51
      vertex 1.20561 1.89974 -51
    endloop
  endfacet
  facet normal 0.84433 -0.535824 0
    outer loop
      vertex -1.97169 1.08395 0
      vertex -1.82029 1.32252 -51
      vertex -1.82029 1.32252 0
    endloop
  endfacet
  facet normal 0.84433 -0.535824 0
    outer loop
      vertex -1.82029 1.32252 -51
      vertex -1.97169 1.08395 0
      vertex -1.97169 1.08395 -51
    endloop
  endfacet
  facet normal 0.982285 -0.187395 0
    outer loop
      vertex -2.23226 0.282 0
      vertex -2.17931 0.559552 -51
      vertex -2.17931 0.559552 0
    endloop
  endfacet
  facet normal 0.982285 -0.187395 0
    outer loop
      vertex -2.17931 0.559552 -51
      vertex -2.23226 0.282 0
      vertex -2.23226 0.282 -51
    endloop
  endfacet
  facet normal 0.587808 -0.809001 0
    outer loop
      vertex -1.4342 1.73365 -51
      vertex -1.20561 1.89974 0
      vertex -1.4342 1.73365 0
    endloop
  endfacet
  facet normal 0.587808 -0.809001 0
    outer loop
      vertex -1.20561 1.89974 0
      vertex -1.4342 1.73365 -51
      vertex -1.20561 1.89974 -51
    endloop
  endfacet
  facet normal 0.248692 -0.968583 0
    outer loop
      vertex -0.695288 2.13988 -51
      vertex -0.421607 2.21015 0
      vertex -0.695288 2.13988 0
    endloop
  endfacet
  facet normal 0.248692 -0.968583 0
    outer loop
      vertex -0.421607 2.21015 0
      vertex -0.695288 2.13988 -51
      vertex -0.421607 2.21015 -51
    endloop
  endfacet
  facet normal -0.998027 0.0627837 0
    outer loop
      vertex 2.23226 -0.282 -51
      vertex 2.25 0 0
      vertex 2.25 0 -51
    endloop
  endfacet
  facet normal -0.998027 0.0627837 0
    outer loop
      vertex 2.25 0 0
      vertex 2.23226 -0.282 -51
      vertex 2.23226 -0.282 0
    endloop
  endfacet
  facet normal -0.84433 0.535824 0
    outer loop
      vertex 1.82029 -1.32252 -51
      vertex 1.97169 -1.08395 0
      vertex 1.97169 -1.08395 -51
    endloop
  endfacet
  facet normal -0.84433 0.535824 0
    outer loop
      vertex 1.97169 -1.08395 0
      vertex 1.82029 -1.32252 -51
      vertex 1.82029 -1.32252 0
    endloop
  endfacet
  facet normal -0.982285 0.187395 0
    outer loop
      vertex 2.17931 -0.559552 -51
      vertex 2.23226 -0.282 0
      vertex 2.23226 -0.282 -51
    endloop
  endfacet
  facet normal -0.982285 0.187395 0
    outer loop
      vertex 2.23226 -0.282 0
      vertex 2.17931 -0.559552 -51
      vertex 2.17931 -0.559552 0
    endloop
  endfacet
  facet normal 0.684532 0.728983 -0
    outer loop
      vertex -1.4342 -1.73365 -51
      vertex -1.64018 -1.54023 0
      vertex -1.4342 -1.73365 0
    endloop
  endfacet
  facet normal 0.684532 0.728983 0
    outer loop
      vertex -1.64018 -1.54023 0
      vertex -1.4342 -1.73365 -51
      vertex -1.64018 -1.54023 -51
    endloop
  endfacet
  facet normal 0.770505 0.637434 0
    outer loop
      vertex -1.64018 -1.54023 0
      vertex -1.82029 -1.32252 -51
      vertex -1.82029 -1.32252 0
    endloop
  endfacet
  facet normal 0.770505 0.637434 0
    outer loop
      vertex -1.82029 -1.32252 -51
      vertex -1.64018 -1.54023 0
      vertex -1.64018 -1.54023 -51
    endloop
  endfacet
  facet normal -0.587808 0.809001 0
    outer loop
      vertex 1.4342 -1.73365 -51
      vertex 1.20561 -1.89974 0
      vertex 1.4342 -1.73365 0
    endloop
  endfacet
  facet normal -0.587808 0.809001 0
    outer loop
      vertex 1.20561 -1.89974 0
      vertex 1.4342 -1.73365 -51
      vertex 1.20561 -1.89974 -51
    endloop
  endfacet
  facet normal -0.904827 0.42578 0
    outer loop
      vertex 1.97169 -1.08395 -51
      vertex 2.092 -0.828279 0
      vertex 2.092 -0.828279 -51
    endloop
  endfacet
  facet normal -0.904827 0.42578 0
    outer loop
      vertex 2.092 -0.828279 0
      vertex 1.97169 -1.08395 -51
      vertex 1.97169 -1.08395 0
    endloop
  endfacet
  facet normal 0.368136 0.929772 -0
    outer loop
      vertex -0.695288 -2.13988 -51
      vertex -0.958003 -2.03586 0
      vertex -0.695288 -2.13988 0
    endloop
  endfacet
  facet normal 0.368136 0.929772 0
    outer loop
      vertex -0.958003 -2.03586 0
      vertex -0.695288 -2.13988 -51
      vertex -0.958003 -2.03586 -51
    endloop
  endfacet
  facet normal 0.951061 0.309002 0
    outer loop
      vertex -2.092 -0.828279 0
      vertex -2.17931 -0.559552 -51
      vertex -2.17931 -0.559552 0
    endloop
  endfacet
  facet normal 0.951061 0.309002 0
    outer loop
      vertex -2.17931 -0.559552 -51
      vertex -2.092 -0.828279 0
      vertex -2.092 -0.828279 -51
    endloop
  endfacet
  facet normal 0.998027 0.0627837 0
    outer loop
      vertex -2.23226 -0.282 0
      vertex -2.25 0 -51
      vertex -2.25 0 0
    endloop
  endfacet
  facet normal 0.998027 0.0627837 0
    outer loop
      vertex -2.25 0 -51
      vertex -2.23226 -0.282 0
      vertex -2.23226 -0.282 -51
    endloop
  endfacet
  facet normal -0.770505 0.637434 0
    outer loop
      vertex 1.64018 -1.54023 -51
      vertex 1.82029 -1.32252 0
      vertex 1.82029 -1.32252 -51
    endloop
  endfacet
  facet normal -0.770505 0.637434 0
    outer loop
      vertex 1.82029 -1.32252 0
      vertex 1.64018 -1.54023 -51
      vertex 1.64018 -1.54023 0
    endloop
  endfacet
  facet normal -0.368136 0.929772 0
    outer loop
      vertex 0.958003 -2.03586 -51
      vertex 0.695288 -2.13988 0
      vertex 0.958003 -2.03586 0
    endloop
  endfacet
  facet normal -0.368136 0.929772 0
    outer loop
      vertex 0.695288 -2.13988 0
      vertex 0.958003 -2.03586 -51
      vertex 0.695288 -2.13988 -51
    endloop
  endfacet
  facet normal -0.248692 0.968583 0
    outer loop
      vertex 0.695288 -2.13988 -51
      vertex 0.421607 -2.21015 0
      vertex 0.695288 -2.13988 0
    endloop
  endfacet
  facet normal -0.248692 0.968583 0
    outer loop
      vertex 0.421607 -2.21015 0
      vertex 0.695288 -2.13988 -51
      vertex 0.421607 -2.21015 -51
    endloop
  endfacet
  facet normal 0.481745 0.876311 -0
    outer loop
      vertex -0.958003 -2.03586 -51
      vertex -1.20561 -1.89974 0
      vertex -0.958003 -2.03586 0
    endloop
  endfacet
  facet normal 0.481745 0.876311 0
    outer loop
      vertex -1.20561 -1.89974 0
      vertex -0.958003 -2.03586 -51
      vertex -1.20561 -1.89974 -51
    endloop
  endfacet
  facet normal 0.84433 0.535824 0
    outer loop
      vertex -1.82029 -1.32252 0
      vertex -1.97169 -1.08395 -51
      vertex -1.97169 -1.08395 0
    endloop
  endfacet
  facet normal 0.84433 0.535824 0
    outer loop
      vertex -1.97169 -1.08395 -51
      vertex -1.82029 -1.32252 0
      vertex -1.82029 -1.32252 -51
    endloop
  endfacet
  facet normal 0.904827 0.42578 0
    outer loop
      vertex -1.97169 -1.08395 0
      vertex -2.092 -0.828279 -51
      vertex -2.092 -0.828279 0
    endloop
  endfacet
  facet normal 0.904827 0.42578 0
    outer loop
      vertex -2.092 -0.828279 -51
      vertex -1.97169 -1.08395 0
      vertex -1.97169 -1.08395 -51
    endloop
  endfacet
  facet normal 0.982285 0.187395 0
    outer loop
      vertex -2.17931 -0.559552 0
      vertex -2.23226 -0.282 -51
      vertex -2.23226 -0.282 0
    endloop
  endfacet
  facet normal 0.982285 0.187395 0
    outer loop
      vertex -2.23226 -0.282 -51
      vertex -2.17931 -0.559552 0
      vertex -2.17931 -0.559552 -51
    endloop
  endfacet
  facet normal -0.684532 0.728983 0
    outer loop
      vertex 1.64018 -1.54023 -51
      vertex 1.4342 -1.73365 0
      vertex 1.64018 -1.54023 0
    endloop
  endfacet
  facet normal -0.684532 0.728983 0
    outer loop
      vertex 1.4342 -1.73365 0
      vertex 1.64018 -1.54023 -51
      vertex 1.4342 -1.73365 -51
    endloop
  endfacet
  facet normal -0.481745 0.876311 0
    outer loop
      vertex 1.20561 -1.89974 -51
      vertex 0.958003 -2.03586 0
      vertex 1.20561 -1.89974 0
    endloop
  endfacet
  facet normal -0.481745 0.876311 0
    outer loop
      vertex 0.958003 -2.03586 0
      vertex 1.20561 -1.89974 -51
      vertex 0.958003 -2.03586 -51
    endloop
  endfacet
  facet normal 0.248692 0.968583 -0
    outer loop
      vertex -0.421607 -2.21015 -51
      vertex -0.695288 -2.13988 0
      vertex -0.421607 -2.21015 0
    endloop
  endfacet
  facet normal 0.248692 0.968583 0
    outer loop
      vertex -0.695288 -2.13988 0
      vertex -0.421607 -2.21015 -51
      vertex -0.695288 -2.13988 -51
    endloop
  endfacet
  facet normal 0.12532 0.992116 -0
    outer loop
      vertex -0.141278 -2.24556 -51
      vertex -0.421607 -2.21015 0
      vertex -0.141278 -2.24556 0
    endloop
  endfacet
  facet normal 0.12532 0.992116 0
    outer loop
      vertex -0.421607 -2.21015 0
      vertex -0.141278 -2.24556 -51
      vertex -0.421607 -2.21015 -51
    endloop
  endfacet
  facet normal 0.587808 0.809001 -0
    outer loop
      vertex -1.20561 -1.89974 -51
      vertex -1.4342 -1.73365 0
      vertex -1.20561 -1.89974 0
    endloop
  endfacet
  facet normal 0.587808 0.809001 0
    outer loop
      vertex -1.4342 -1.73365 0
      vertex -1.20561 -1.89974 -51
      vertex -1.4342 -1.73365 -51
    endloop
  endfacet
endsolid OpenSCAD_Model
