solid OpenSCAD_Model
  facet normal 0.998027 0.0627939 0
    outer loop
      vertex 7 0 -6
      vertex 6.9448 0.877332 -45
      vertex 6.9448 0.877332 -6
    endloop
  endfacet
  facet normal 0.998027 0.0627939 0
    outer loop
      vertex 6.9448 0.877332 -45
      vertex 7 0 -6
      vertex 7 0 -45
    endloop
  endfacet
  facet normal -0.998027 0.0627939 0
    outer loop
      vertex -7 0 -45
      vertex -6.9448 0.877332 -6
      vertex -6.9448 0.877332 -45
    endloop
  endfacet
  facet normal -0.998027 0.0627939 0
    outer loop
      vertex -6.9448 0.877332 -6
      vertex -7 0 -45
      vertex -7 0 -6
    endloop
  endfacet
  facet normal 0 1 -0
    outer loop
      vertex 0.439533 6.98619 -45
      vertex -0.439533 6.98619 -6
      vertex 0.439533 6.98619 -6
    endloop
  endfacet
  facet normal 0 1 0
    outer loop
      vertex -0.439533 6.98619 -6
      vertex 0.439533 6.98619 -45
      vertex -0.439533 6.98619 -45
    endloop
  endfacet
  facet normal 0 -1 0
    outer loop
      vertex -0.439533 -6.98619 -45
      vertex 0.439533 -6.98619 -6
      vertex -0.439533 -6.98619 -6
    endloop
  endfacet
  facet normal 0 -1 -0
    outer loop
      vertex 0.439533 -6.98619 -6
      vertex -0.439533 -6.98619 -45
      vertex 0.439533 -6.98619 -45
    endloop
  endfacet
  facet normal 0.684547 0.728969 -0
    outer loop
      vertex 5.10278 4.79183 -45
      vertex 4.46197 5.39359 -6
      vertex 5.10278 4.79183 -6
    endloop
  endfacet
  facet normal 0.684547 0.728969 0
    outer loop
      vertex 4.46197 5.39359 -6
      vertex 5.10278 4.79183 -45
      vertex 4.46197 5.39359 -45
    endloop
  endfacet
  facet normal -0.684547 0.728969 0
    outer loop
      vertex -4.46197 5.39359 -45
      vertex -5.10278 4.79183 -6
      vertex -4.46197 5.39359 -6
    endloop
  endfacet
  facet normal -0.684547 0.728969 0
    outer loop
      vertex -5.10278 4.79183 -6
      vertex -4.46197 5.39359 -45
      vertex -5.10278 4.79183 -45
    endloop
  endfacet
  facet normal -0.368131 0.929774 0
    outer loop
      vertex -2.16312 6.6574 -45
      vertex -2.98045 6.33379 -6
      vertex -2.16312 6.6574 -6
    endloop
  endfacet
  facet normal -0.368131 0.929774 0
    outer loop
      vertex -2.98045 6.33379 -6
      vertex -2.16312 6.6574 -45
      vertex -2.98045 6.33379 -45
    endloop
  endfacet
  facet normal 0.904828 0.425778 0
    outer loop
      vertex 6.50844 2.57687 -6
      vertex 6.13415 3.37228 -45
      vertex 6.13415 3.37228 -6
    endloop
  endfacet
  facet normal 0.904828 0.425778 0
    outer loop
      vertex 6.13415 3.37228 -45
      vertex 6.50844 2.57687 -6
      vertex 6.50844 2.57687 -45
    endloop
  endfacet
  facet normal 0.982287 0.18738 0
    outer loop
      vertex 6.9448 0.877332 -6
      vertex 6.78008 1.74083 -45
      vertex 6.78008 1.74083 -6
    endloop
  endfacet
  facet normal 0.982287 0.18738 0
    outer loop
      vertex 6.78008 1.74083 -45
      vertex 6.9448 0.877332 -6
      vertex 6.9448 0.877332 -45
    endloop
  endfacet
  facet normal 0.368131 0.929774 -0
    outer loop
      vertex 2.98045 6.33379 -45
      vertex 2.16312 6.6574 -6
      vertex 2.98045 6.33379 -6
    endloop
  endfacet
  facet normal 0.368131 0.929774 0
    outer loop
      vertex 2.16312 6.6574 -6
      vertex 2.98045 6.33379 -45
      vertex 2.16312 6.6574 -45
    endloop
  endfacet
  facet normal 0.481755 0.876306 -0
    outer loop
      vertex 3.75079 5.91029 -45
      vertex 2.98045 6.33379 -6
      vertex 3.75079 5.91029 -6
    endloop
  endfacet
  facet normal 0.481755 0.876306 0
    outer loop
      vertex 2.98045 6.33379 -6
      vertex 3.75079 5.91029 -45
      vertex 2.98045 6.33379 -45
    endloop
  endfacet
  facet normal -0.904828 0.425778 0
    outer loop
      vertex -6.50844 2.57687 -45
      vertex -6.13415 3.37228 -6
      vertex -6.13415 3.37228 -45
    endloop
  endfacet
  facet normal -0.904828 0.425778 0
    outer loop
      vertex -6.13415 3.37228 -6
      vertex -6.50844 2.57687 -45
      vertex -6.50844 2.57687 -6
    endloop
  endfacet
  facet normal -0.951058 0.309011 0
    outer loop
      vertex -6.78008 1.74083 -45
      vertex -6.50844 2.57687 -6
      vertex -6.50844 2.57687 -45
    endloop
  endfacet
  facet normal -0.951058 0.309011 0
    outer loop
      vertex -6.50844 2.57687 -6
      vertex -6.78008 1.74083 -45
      vertex -6.78008 1.74083 -6
    endloop
  endfacet
  facet normal -0.248684 0.968585 0
    outer loop
      vertex -1.31167 6.87601 -45
      vertex -2.16312 6.6574 -6
      vertex -1.31167 6.87601 -6
    endloop
  endfacet
  facet normal -0.248684 0.968585 0
    outer loop
      vertex -2.16312 6.6574 -6
      vertex -1.31167 6.87601 -45
      vertex -2.16312 6.6574 -45
    endloop
  endfacet
  facet normal 0.125337 -0.992114 0
    outer loop
      vertex 0.439533 -6.98619 -45
      vertex 1.31167 -6.87601 -6
      vertex 0.439533 -6.98619 -6
    endloop
  endfacet
  facet normal 0.125337 -0.992114 0
    outer loop
      vertex 1.31167 -6.87601 -6
      vertex 0.439533 -6.98619 -45
      vertex 1.31167 -6.87601 -45
    endloop
  endfacet
  facet normal 0.951058 0.309011 0
    outer loop
      vertex 6.78008 1.74083 -6
      vertex 6.50844 2.57687 -45
      vertex 6.50844 2.57687 -6
    endloop
  endfacet
  facet normal 0.951058 0.309011 0
    outer loop
      vertex 6.50844 2.57687 -45
      vertex 6.78008 1.74083 -6
      vertex 6.78008 1.74083 -45
    endloop
  endfacet
  facet normal 0.770511 0.637427 0
    outer loop
      vertex 5.66312 4.1145 -6
      vertex 5.10278 4.79183 -45
      vertex 5.10278 4.79183 -6
    endloop
  endfacet
  facet normal 0.770511 0.637427 0
    outer loop
      vertex 5.10278 4.79183 -45
      vertex 5.66312 4.1145 -6
      vertex 5.66312 4.1145 -45
    endloop
  endfacet
  facet normal 0.844326 0.535829 0
    outer loop
      vertex 6.13415 3.37228 -6
      vertex 5.66312 4.1145 -45
      vertex 5.66312 4.1145 -6
    endloop
  endfacet
  facet normal 0.844326 0.535829 0
    outer loop
      vertex 5.66312 4.1145 -45
      vertex 6.13415 3.37228 -6
      vertex 6.13415 3.37228 -45
    endloop
  endfacet
  facet normal 0.248684 0.968585 -0
    outer loop
      vertex 2.16312 6.6574 -45
      vertex 1.31167 6.87601 -6
      vertex 2.16312 6.6574 -6
    endloop
  endfacet
  facet normal 0.248684 0.968585 0
    outer loop
      vertex 1.31167 6.87601 -6
      vertex 2.16312 6.6574 -45
      vertex 1.31167 6.87601 -45
    endloop
  endfacet
  facet normal 0.125337 0.992114 -0
    outer loop
      vertex 1.31167 6.87601 -45
      vertex 0.439533 6.98619 -6
      vertex 1.31167 6.87601 -6
    endloop
  endfacet
  facet normal 0.125337 0.992114 0
    outer loop
      vertex 0.439533 6.98619 -6
      vertex 1.31167 6.87601 -45
      vertex 0.439533 6.98619 -45
    endloop
  endfacet
  facet normal 0.587783 0.809018 -0
    outer loop
      vertex 4.46197 5.39359 -45
      vertex 3.75079 5.91029 -6
      vertex 4.46197 5.39359 -6
    endloop
  endfacet
  facet normal 0.587783 0.809018 0
    outer loop
      vertex 3.75079 5.91029 -6
      vertex 4.46197 5.39359 -45
      vertex 3.75079 5.91029 -45
    endloop
  endfacet
  facet normal -0.844326 0.535829 0
    outer loop
      vertex -6.13415 3.37228 -45
      vertex -5.66312 4.1145 -6
      vertex -5.66312 4.1145 -45
    endloop
  endfacet
  facet normal -0.844326 0.535829 0
    outer loop
      vertex -5.66312 4.1145 -6
      vertex -6.13415 3.37228 -45
      vertex -6.13415 3.37228 -6
    endloop
  endfacet
  facet normal -0.770511 0.637427 0
    outer loop
      vertex -5.66312 4.1145 -45
      vertex -5.10278 4.79183 -6
      vertex -5.10278 4.79183 -45
    endloop
  endfacet
  facet normal -0.770511 0.637427 0
    outer loop
      vertex -5.10278 4.79183 -6
      vertex -5.66312 4.1145 -45
      vertex -5.66312 4.1145 -6
    endloop
  endfacet
  facet normal -0.982287 0.18738 0
    outer loop
      vertex -6.9448 0.877332 -45
      vertex -6.78008 1.74083 -6
      vertex -6.78008 1.74083 -45
    endloop
  endfacet
  facet normal -0.982287 0.18738 0
    outer loop
      vertex -6.78008 1.74083 -6
      vertex -6.9448 0.877332 -45
      vertex -6.9448 0.877332 -6
    endloop
  endfacet
  facet normal 0 0 1
    outer loop
      vertex 2.75 0 0
      vertex 13 0 0
      vertex 12.8975 1.62933 0
    endloop
  endfacet
  facet normal 0 0 1
    outer loop
      vertex 2.72832 0.344666 0
      vertex 12.8975 1.62933 0
      vertex 12.5916 3.23297 0
    endloop
  endfacet
  facet normal 0 0 1
    outer loop
      vertex 13 0 0
      vertex 2.75 0 0
      vertex 12.8975 -1.62933 0
    endloop
  endfacet
  facet normal 0 0 1
    outer loop
      vertex 2.6636 0.683897 0
      vertex 12.5916 3.23297 0
      vertex 12.0871 4.78562 0
    endloop
  endfacet
  facet normal -0 0 1
    outer loop
      vertex 2.72832 -0.344666 0
      vertex 12.8975 -1.62933 0
      vertex 2.75 0 0
    endloop
  endfacet
  facet normal 0 0 1
    outer loop
      vertex 2.55688 1.01234 0
      vertex 12.0871 4.78562 0
      vertex 11.392 6.2628 0
    endloop
  endfacet
  facet normal 0 0 1
    outer loop
      vertex 12.8975 -1.62933 0
      vertex 2.72832 -0.344666 0
      vertex 12.5916 -3.23297 0
    endloop
  endfacet
  facet normal 0 0 1
    outer loop
      vertex 2.40984 1.32482 0
      vertex 11.392 6.2628 0
      vertex 10.5172 7.64121 0
    endloop
  endfacet
  facet normal -0 0 1
    outer loop
      vertex 2.6636 -0.683897 0
      vertex 12.5916 -3.23297 0
      vertex 2.72832 -0.344666 0
    endloop
  endfacet
  facet normal 0 0 1
    outer loop
      vertex 2.2248 1.61641 0
      vertex 10.5172 7.64121 0
      vertex 9.47659 8.89911 0
    endloop
  endfacet
  facet normal 0 0 1
    outer loop
      vertex 12.5916 -3.23297 0
      vertex 2.6636 -0.683897 0
      vertex 12.0871 -4.78562 0
    endloop
  endfacet
  facet normal 0 0 1
    outer loop
      vertex 2.00466 1.8825 0
      vertex 9.47659 8.89911 0
      vertex 8.28651 10.0167 0
    endloop
  endfacet
  facet normal -0 0 1
    outer loop
      vertex 2.55688 -1.01234 0
      vertex 12.0871 -4.78562 0
      vertex 2.6636 -0.683897 0
    endloop
  endfacet
  facet normal 0 0 1
    outer loop
      vertex 1.75292 2.11891 0
      vertex 8.28651 10.0167 0
      vertex 6.96575 10.9763 0
    endloop
  endfacet
  facet normal 0 0 1
    outer loop
      vertex 12.0871 -4.78562 0
      vertex 2.55688 -1.01234 0
      vertex 11.392 -6.2628 0
    endloop
  endfacet
  facet normal 0 0 1
    outer loop
      vertex 1.47352 2.3219 0
      vertex 6.96575 10.9763 0
      vertex 5.53513 11.7628 0
    endloop
  endfacet
  facet normal -0 0 1
    outer loop
      vertex 2.40984 -1.32482 0
      vertex 11.392 -6.2628 0
      vertex 2.55688 -1.01234 0
    endloop
  endfacet
  facet normal 0 0 1
    outer loop
      vertex 1.17089 2.48827 0
      vertex 5.53513 11.7628 0
      vertex 4.01722 12.3637 0
    endloop
  endfacet
  facet normal 0 0 1
    outer loop
      vertex 11.392 -6.2628 0
      vertex 2.40984 -1.32482 0
      vertex 10.5172 -7.64121 0
    endloop
  endfacet
  facet normal -0 0 1
    outer loop
      vertex 2.2248 -1.61641 0
      vertex 10.5172 -7.64121 0
      vertex 2.40984 -1.32482 0
    endloop
  endfacet
  facet normal 0 0 1
    outer loop
      vertex 12.8975 1.62933 0
      vertex 2.72832 0.344666 0
      vertex 2.75 0 0
    endloop
  endfacet
  facet normal 0 0 1
    outer loop
      vertex 12.5916 3.23297 0
      vertex 2.6636 0.683897 0
      vertex 2.72832 0.344666 0
    endloop
  endfacet
  facet normal 0 0 1
    outer loop
      vertex 12.0871 4.78562 0
      vertex 2.55688 1.01234 0
      vertex 2.6636 0.683897 0
    endloop
  endfacet
  facet normal 0 0 1
    outer loop
      vertex 0.849796 2.61541 0
      vertex 4.01722 12.3637 0
      vertex 2.43596 12.7697 0
    endloop
  endfacet
  facet normal 0 0 1
    outer loop
      vertex 11.392 6.2628 0
      vertex 2.40984 1.32482 0
      vertex 2.55688 1.01234 0
    endloop
  endfacet
  facet normal 0 0 1
    outer loop
      vertex 10.5172 7.64121 0
      vertex 2.2248 1.61641 0
      vertex 2.40984 1.32482 0
    endloop
  endfacet
  facet normal 0 0 1
    outer loop
      vertex 9.47659 8.89911 0
      vertex 2.00466 1.8825 0
      vertex 2.2248 1.61641 0
    endloop
  endfacet
  facet normal 0 0 1
    outer loop
      vertex 8.28651 10.0167 0
      vertex 1.75292 2.11891 0
      vertex 2.00466 1.8825 0
    endloop
  endfacet
  facet normal 0 0 1
    outer loop
      vertex 6.96575 10.9763 0
      vertex 1.47352 2.3219 0
      vertex 1.75292 2.11891 0
    endloop
  endfacet
  facet normal 0 0 1
    outer loop
      vertex 5.53513 11.7628 0
      vertex 1.17089 2.48827 0
      vertex 1.47352 2.3219 0
    endloop
  endfacet
  facet normal 0 0 1
    outer loop
      vertex 4.01722 12.3637 0
      vertex 0.849796 2.61541 0
      vertex 1.17089 2.48827 0
    endloop
  endfacet
  facet normal 0 0 1
    outer loop
      vertex 0.515298 2.70129 0
      vertex 2.43596 12.7697 0
      vertex 0.816277 12.9743 0
    endloop
  endfacet
  facet normal 0 0 1
    outer loop
      vertex 2.43596 12.7697 0
      vertex 0.515298 2.70129 0
      vertex 0.849796 2.61541 0
    endloop
  endfacet
  facet normal 0 0 1
    outer loop
      vertex 0.816277 12.9743 0
      vertex 0.172673 2.74457 0
      vertex 0.515298 2.70129 0
    endloop
  endfacet
  facet normal 0 0 1
    outer loop
      vertex 0.816277 12.9743 0
      vertex -0.172673 2.74457 0
      vertex 0.172673 2.74457 0
    endloop
  endfacet
  facet normal -0 0 1
    outer loop
      vertex -0.816277 12.9743 0
      vertex -0.172673 2.74457 0
      vertex 0.816277 12.9743 0
    endloop
  endfacet
  facet normal 0 0 1
    outer loop
      vertex -0.172673 2.74457 0
      vertex -0.816277 12.9743 0
      vertex -0.515298 2.70129 0
    endloop
  endfacet
  facet normal -0 0 1
    outer loop
      vertex -2.43596 12.7697 0
      vertex -0.515298 2.70129 0
      vertex -0.816277 12.9743 0
    endloop
  endfacet
  facet normal 0 0 1
    outer loop
      vertex -0.515298 2.70129 0
      vertex -2.43596 12.7697 0
      vertex -0.849796 2.61541 0
    endloop
  endfacet
  facet normal -0 0 1
    outer loop
      vertex -4.01722 12.3637 0
      vertex -0.849796 2.61541 0
      vertex -2.43596 12.7697 0
    endloop
  endfacet
  facet normal 0 0 1
    outer loop
      vertex -0.849796 2.61541 0
      vertex -4.01722 12.3637 0
      vertex -1.17089 2.48827 0
    endloop
  endfacet
  facet normal -0 0 1
    outer loop
      vertex -5.53513 11.7628 0
      vertex -1.17089 2.48827 0
      vertex -4.01722 12.3637 0
    endloop
  endfacet
  facet normal 0 0 1
    outer loop
      vertex -1.17089 2.48827 0
      vertex -5.53513 11.7628 0
      vertex -1.47352 2.3219 0
    endloop
  endfacet
  facet normal -0 0 1
    outer loop
      vertex -6.96575 10.9763 0
      vertex -1.47352 2.3219 0
      vertex -5.53513 11.7628 0
    endloop
  endfacet
  facet normal 0 0 1
    outer loop
      vertex -1.47352 2.3219 0
      vertex -6.96575 10.9763 0
      vertex -1.75292 2.11891 0
    endloop
  endfacet
  facet normal -0 0 1
    outer loop
      vertex -8.28651 10.0167 0
      vertex -1.75292 2.11891 0
      vertex -6.96575 10.9763 0
    endloop
  endfacet
  facet normal 0 0 1
    outer loop
      vertex -1.75292 2.11891 0
      vertex -8.28651 10.0167 0
      vertex -2.00466 1.8825 0
    endloop
  endfacet
  facet normal -0 0 1
    outer loop
      vertex -9.47659 8.89911 0
      vertex -2.00466 1.8825 0
      vertex -8.28651 10.0167 0
    endloop
  endfacet
  facet normal 0 0 1
    outer loop
      vertex -2.00466 1.8825 0
      vertex -9.47659 8.89911 0
      vertex -2.2248 1.61641 0
    endloop
  endfacet
  facet normal -0 0 1
    outer loop
      vertex -10.5172 7.64121 0
      vertex -2.2248 1.61641 0
      vertex -9.47659 8.89911 0
    endloop
  endfacet
  facet normal 0 0 1
    outer loop
      vertex 10.5172 -7.64121 0
      vertex 2.2248 -1.61641 0
      vertex 9.47659 -8.89911 0
    endloop
  endfacet
  facet normal -0 0 1
    outer loop
      vertex 2.00466 -1.8825 0
      vertex 9.47659 -8.89911 0
      vertex 2.2248 -1.61641 0
    endloop
  endfacet
  facet normal 0 0 1
    outer loop
      vertex 9.47659 -8.89911 0
      vertex 2.00466 -1.8825 0
      vertex 8.28651 -10.0167 0
    endloop
  endfacet
  facet normal -0 0 1
    outer loop
      vertex 1.75292 -2.11891 0
      vertex 8.28651 -10.0167 0
      vertex 2.00466 -1.8825 0
    endloop
  endfacet
  facet normal 0 0 1
    outer loop
      vertex 8.28651 -10.0167 0
      vertex 1.75292 -2.11891 0
      vertex 6.96575 -10.9763 0
    endloop
  endfacet
  facet normal -0 0 1
    outer loop
      vertex 1.47352 -2.3219 0
      vertex 6.96575 -10.9763 0
      vertex 1.75292 -2.11891 0
    endloop
  endfacet
  facet normal 0 0 1
    outer loop
      vertex 6.96575 -10.9763 0
      vertex 1.47352 -2.3219 0
      vertex 5.53513 -11.7628 0
    endloop
  endfacet
  facet normal -0 0 1
    outer loop
      vertex 1.17089 -2.48827 0
      vertex 5.53513 -11.7628 0
      vertex 1.47352 -2.3219 0
    endloop
  endfacet
  facet normal 0 0 1
    outer loop
      vertex 5.53513 -11.7628 0
      vertex 1.17089 -2.48827 0
      vertex 4.01722 -12.3637 0
    endloop
  endfacet
  facet normal -0 0 1
    outer loop
      vertex 0.849796 -2.61541 0
      vertex 4.01722 -12.3637 0
      vertex 1.17089 -2.48827 0
    endloop
  endfacet
  facet normal 0 0 1
    outer loop
      vertex 4.01722 -12.3637 0
      vertex 0.849796 -2.61541 0
      vertex 2.43596 -12.7697 0
    endloop
  endfacet
  facet normal -0 0 1
    outer loop
      vertex 0.515298 -2.70129 0
      vertex 2.43596 -12.7697 0
      vertex 0.849796 -2.61541 0
    endloop
  endfacet
  facet normal 0 0 1
    outer loop
      vertex 2.43596 -12.7697 0
      vertex 0.515298 -2.70129 0
      vertex 0.816277 -12.9743 0
    endloop
  endfacet
  facet normal -0 0 1
    outer loop
      vertex 0.172673 -2.74457 0
      vertex 0.816277 -12.9743 0
      vertex 0.515298 -2.70129 0
    endloop
  endfacet
  facet normal -0 0 1
    outer loop
      vertex -0.172673 -2.74457 0
      vertex 0.816277 -12.9743 0
      vertex 0.172673 -2.74457 0
    endloop
  endfacet
  facet normal 0 0 1
    outer loop
      vertex -0.816277 -12.9743 0
      vertex -0.172673 -2.74457 0
      vertex -0.515298 -2.70129 0
    endloop
  endfacet
  facet normal 0 0 1
    outer loop
      vertex -0.172673 -2.74457 0
      vertex -0.816277 -12.9743 0
      vertex 0.816277 -12.9743 0
    endloop
  endfacet
  facet normal 0 0 1
    outer loop
      vertex -2.43596 -12.7697 0
      vertex -0.515298 -2.70129 0
      vertex -0.849796 -2.61541 0
    endloop
  endfacet
  facet normal 0 0 1
    outer loop
      vertex -4.01722 -12.3637 0
      vertex -0.849796 -2.61541 0
      vertex -1.17089 -2.48827 0
    endloop
  endfacet
  facet normal 0 0 1
    outer loop
      vertex -5.53513 -11.7628 0
      vertex -1.17089 -2.48827 0
      vertex -1.47352 -2.3219 0
    endloop
  endfacet
  facet normal 0 0 1
    outer loop
      vertex -6.96575 -10.9763 0
      vertex -1.47352 -2.3219 0
      vertex -1.75292 -2.11891 0
    endloop
  endfacet
  facet normal 0 0 1
    outer loop
      vertex -8.28651 -10.0167 0
      vertex -1.75292 -2.11891 0
      vertex -2.00466 -1.8825 0
    endloop
  endfacet
  facet normal 0 0 1
    outer loop
      vertex -9.47659 -8.89911 0
      vertex -2.00466 -1.8825 0
      vertex -2.2248 -1.61641 0
    endloop
  endfacet
  facet normal 0 0 1
    outer loop
      vertex -10.5172 -7.64121 0
      vertex -2.2248 -1.61641 0
      vertex -2.40984 -1.32482 0
    endloop
  endfacet
  facet normal 0 0 1
    outer loop
      vertex -0.515298 -2.70129 0
      vertex -2.43596 -12.7697 0
      vertex -0.816277 -12.9743 0
    endloop
  endfacet
  facet normal 0 0 1
    outer loop
      vertex -11.392 -6.2628 0
      vertex -2.40984 -1.32482 0
      vertex -2.55688 -1.01234 0
    endloop
  endfacet
  facet normal 0 0 1
    outer loop
      vertex -12.0871 -4.78562 0
      vertex -2.55688 -1.01234 0
      vertex -2.6636 -0.683897 0
    endloop
  endfacet
  facet normal 0 0 1
    outer loop
      vertex -12.5916 -3.23297 0
      vertex -2.6636 -0.683897 0
      vertex -2.72832 -0.344666 0
    endloop
  endfacet
  facet normal 0 0 1
    outer loop
      vertex -12.8975 -1.62933 0
      vertex -2.72832 -0.344666 0
      vertex -2.75 0 0
    endloop
  endfacet
  facet normal 0 0 1
    outer loop
      vertex -2.2248 1.61641 0
      vertex -10.5172 7.64121 0
      vertex -2.40984 1.32482 0
    endloop
  endfacet
  facet normal 0 0 1
    outer loop
      vertex -0.849796 -2.61541 0
      vertex -4.01722 -12.3637 0
      vertex -2.43596 -12.7697 0
    endloop
  endfacet
  facet normal -0 0 1
    outer loop
      vertex -11.392 6.2628 0
      vertex -2.40984 1.32482 0
      vertex -10.5172 7.64121 0
    endloop
  endfacet
  facet normal 0 0 1
    outer loop
      vertex -1.17089 -2.48827 0
      vertex -5.53513 -11.7628 0
      vertex -4.01722 -12.3637 0
    endloop
  endfacet
  facet normal 0 0 1
    outer loop
      vertex -2.40984 1.32482 0
      vertex -11.392 6.2628 0
      vertex -2.55688 1.01234 0
    endloop
  endfacet
  facet normal 0 0 1
    outer loop
      vertex -1.47352 -2.3219 0
      vertex -6.96575 -10.9763 0
      vertex -5.53513 -11.7628 0
    endloop
  endfacet
  facet normal -0 0 1
    outer loop
      vertex -12.0871 4.78562 0
      vertex -2.55688 1.01234 0
      vertex -11.392 6.2628 0
    endloop
  endfacet
  facet normal 0 0 1
    outer loop
      vertex -1.75292 -2.11891 0
      vertex -8.28651 -10.0167 0
      vertex -6.96575 -10.9763 0
    endloop
  endfacet
  facet normal 0 0 1
    outer loop
      vertex -2.55688 1.01234 0
      vertex -12.0871 4.78562 0
      vertex -2.6636 0.683897 0
    endloop
  endfacet
  facet normal 0 0 1
    outer loop
      vertex -2.00466 -1.8825 0
      vertex -9.47659 -8.89911 0
      vertex -8.28651 -10.0167 0
    endloop
  endfacet
  facet normal -0 0 1
    outer loop
      vertex -12.5916 3.23297 0
      vertex -2.6636 0.683897 0
      vertex -12.0871 4.78562 0
    endloop
  endfacet
  facet normal 0 0 1
    outer loop
      vertex -2.2248 -1.61641 0
      vertex -10.5172 -7.64121 0
      vertex -9.47659 -8.89911 0
    endloop
  endfacet
  facet normal 0 0 1
    outer loop
      vertex -2.6636 0.683897 0
      vertex -12.5916 3.23297 0
      vertex -2.72832 0.344666 0
    endloop
  endfacet
  facet normal 0 0 1
    outer loop
      vertex -2.40984 -1.32482 0
      vertex -11.392 -6.2628 0
      vertex -10.5172 -7.64121 0
    endloop
  endfacet
  facet normal -0 0 1
    outer loop
      vertex -12.8975 1.62933 0
      vertex -2.72832 0.344666 0
      vertex -12.5916 3.23297 0
    endloop
  endfacet
  facet normal 0 0 1
    outer loop
      vertex -2.55688 -1.01234 0
      vertex -12.0871 -4.78562 0
      vertex -11.392 -6.2628 0
    endloop
  endfacet
  facet normal 0 0 1
    outer loop
      vertex -2.72832 0.344666 0
      vertex -12.8975 1.62933 0
      vertex -2.75 0 0
    endloop
  endfacet
  facet normal 0 0 1
    outer loop
      vertex -2.6636 -0.683897 0
      vertex -12.5916 -3.23297 0
      vertex -12.0871 -4.78562 0
    endloop
  endfacet
  facet normal 0 0 1
    outer loop
      vertex -13 0 0
      vertex -2.75 0 0
      vertex -12.8975 1.62933 0
    endloop
  endfacet
  facet normal 0 0 1
    outer loop
      vertex -2.72832 -0.344666 0
      vertex -12.8975 -1.62933 0
      vertex -12.5916 -3.23297 0
    endloop
  endfacet
  facet normal 0 0 1
    outer loop
      vertex -2.75 0 0
      vertex -13 0 0
      vertex -12.8975 -1.62933 0
    endloop
  endfacet
  facet normal -0.481755 0.876306 0
    outer loop
      vertex -2.98045 6.33379 -45
      vertex -3.75079 5.91029 -6
      vertex -2.98045 6.33379 -6
    endloop
  endfacet
  facet normal -0.481755 0.876306 0
    outer loop
      vertex -3.75079 5.91029 -6
      vertex -2.98045 6.33379 -45
      vertex -3.75079 5.91029 -45
    endloop
  endfacet
  facet normal -0.587783 0.809018 0
    outer loop
      vertex -3.75079 5.91029 -45
      vertex -4.46197 5.39359 -6
      vertex -3.75079 5.91029 -6
    endloop
  endfacet
  facet normal -0.587783 0.809018 0
    outer loop
      vertex -4.46197 5.39359 -6
      vertex -3.75079 5.91029 -45
      vertex -4.46197 5.39359 -45
    endloop
  endfacet
  facet normal -0.125337 0.992114 0
    outer loop
      vertex -0.439533 6.98619 -45
      vertex -1.31167 6.87601 -6
      vertex -0.439533 6.98619 -6
    endloop
  endfacet
  facet normal -0.125337 0.992114 0
    outer loop
      vertex -1.31167 6.87601 -6
      vertex -0.439533 6.98619 -45
      vertex -1.31167 6.87601 -45
    endloop
  endfacet
  facet normal 0.998027 -0.0627939 0
    outer loop
      vertex 6.9448 -0.877332 -6
      vertex 7 0 -45
      vertex 7 0 -6
    endloop
  endfacet
  facet normal 0.998027 -0.0627939 0
    outer loop
      vertex 7 0 -45
      vertex 6.9448 -0.877332 -6
      vertex 6.9448 -0.877332 -45
    endloop
  endfacet
  facet normal 0.904828 -0.425778 0
    outer loop
      vertex 6.13415 -3.37228 -6
      vertex 6.50844 -2.57687 -45
      vertex 6.50844 -2.57687 -6
    endloop
  endfacet
  facet normal 0.904828 -0.425778 0
    outer loop
      vertex 6.50844 -2.57687 -45
      vertex 6.13415 -3.37228 -6
      vertex 6.13415 -3.37228 -45
    endloop
  endfacet
  facet normal -0.684547 -0.728969 0
    outer loop
      vertex -5.10278 -4.79183 -45
      vertex -4.46197 -5.39359 -6
      vertex -5.10278 -4.79183 -6
    endloop
  endfacet
  facet normal -0.684547 -0.728969 -0
    outer loop
      vertex -4.46197 -5.39359 -6
      vertex -5.10278 -4.79183 -45
      vertex -4.46197 -5.39359 -45
    endloop
  endfacet
  facet normal -0.904828 -0.425778 0
    outer loop
      vertex -6.13415 -3.37228 -45
      vertex -6.50844 -2.57687 -6
      vertex -6.50844 -2.57687 -45
    endloop
  endfacet
  facet normal -0.904828 -0.425778 0
    outer loop
      vertex -6.50844 -2.57687 -6
      vertex -6.13415 -3.37228 -45
      vertex -6.13415 -3.37228 -6
    endloop
  endfacet
  facet normal -0.844326 -0.535829 0
    outer loop
      vertex -5.66312 -4.1145 -45
      vertex -6.13415 -3.37228 -6
      vertex -6.13415 -3.37228 -45
    endloop
  endfacet
  facet normal -0.844326 -0.535829 0
    outer loop
      vertex -6.13415 -3.37228 -6
      vertex -5.66312 -4.1145 -45
      vertex -5.66312 -4.1145 -6
    endloop
  endfacet
  facet normal 0 0 -1
    outer loop
      vertex 2.75 0 -45
      vertex 7 0 -45
      vertex 6.9448 -0.877332 -45
    endloop
  endfacet
  facet normal 0 0 -1
    outer loop
      vertex 2.72832 -0.344666 -45
      vertex 6.9448 -0.877332 -45
      vertex 6.78008 -1.74083 -45
    endloop
  endfacet
  facet normal 0 0 -1
    outer loop
      vertex 7 0 -45
      vertex 2.75 0 -45
      vertex 6.9448 0.877332 -45
    endloop
  endfacet
  facet normal 0 0 -1
    outer loop
      vertex 2.6636 -0.683897 -45
      vertex 6.78008 -1.74083 -45
      vertex 6.50844 -2.57687 -45
    endloop
  endfacet
  facet normal 0 0 -1
    outer loop
      vertex 2.72832 0.344666 -45
      vertex 6.9448 0.877332 -45
      vertex 2.75 0 -45
    endloop
  endfacet
  facet normal 0 0 -1
    outer loop
      vertex 2.55688 -1.01234 -45
      vertex 6.50844 -2.57687 -45
      vertex 6.13415 -3.37228 -45
    endloop
  endfacet
  facet normal -0 0 -1
    outer loop
      vertex 6.9448 0.877332 -45
      vertex 2.72832 0.344666 -45
      vertex 6.78008 1.74083 -45
    endloop
  endfacet
  facet normal 0 0 -1
    outer loop
      vertex 2.40984 -1.32482 -45
      vertex 6.13415 -3.37228 -45
      vertex 5.66312 -4.1145 -45
    endloop
  endfacet
  facet normal 0 0 -1
    outer loop
      vertex 2.6636 0.683897 -45
      vertex 6.78008 1.74083 -45
      vertex 2.72832 0.344666 -45
    endloop
  endfacet
  facet normal 0 0 -1
    outer loop
      vertex 2.2248 -1.61641 -45
      vertex 5.66312 -4.1145 -45
      vertex 5.10278 -4.79183 -45
    endloop
  endfacet
  facet normal -0 0 -1
    outer loop
      vertex 6.78008 1.74083 -45
      vertex 2.6636 0.683897 -45
      vertex 6.50844 2.57687 -45
    endloop
  endfacet
  facet normal 0 0 -1
    outer loop
      vertex 2.00466 -1.8825 -45
      vertex 5.10278 -4.79183 -45
      vertex 4.46197 -5.39359 -45
    endloop
  endfacet
  facet normal 0 0 -1
    outer loop
      vertex 2.55688 1.01234 -45
      vertex 6.50844 2.57687 -45
      vertex 2.6636 0.683897 -45
    endloop
  endfacet
  facet normal 0 0 -1
    outer loop
      vertex 1.75292 -2.11891 -45
      vertex 4.46197 -5.39359 -45
      vertex 3.75079 -5.91029 -45
    endloop
  endfacet
  facet normal -0 0 -1
    outer loop
      vertex 6.50844 2.57687 -45
      vertex 2.55688 1.01234 -45
      vertex 6.13415 3.37228 -45
    endloop
  endfacet
  facet normal 0 0 -1
    outer loop
      vertex 1.47352 -2.3219 -45
      vertex 3.75079 -5.91029 -45
      vertex 2.98045 -6.33379 -45
    endloop
  endfacet
  facet normal 0 0 -1
    outer loop
      vertex 2.40984 1.32482 -45
      vertex 6.13415 3.37228 -45
      vertex 2.55688 1.01234 -45
    endloop
  endfacet
  facet normal -0 0 -1
    outer loop
      vertex 6.13415 3.37228 -45
      vertex 2.40984 1.32482 -45
      vertex 5.66312 4.1145 -45
    endloop
  endfacet
  facet normal 0 0 -1
    outer loop
      vertex 6.9448 -0.877332 -45
      vertex 2.72832 -0.344666 -45
      vertex 2.75 0 -45
    endloop
  endfacet
  facet normal 0 0 -1
    outer loop
      vertex 6.78008 -1.74083 -45
      vertex 2.6636 -0.683897 -45
      vertex 2.72832 -0.344666 -45
    endloop
  endfacet
  facet normal 0 0 -1
    outer loop
      vertex 6.50844 -2.57687 -45
      vertex 2.55688 -1.01234 -45
      vertex 2.6636 -0.683897 -45
    endloop
  endfacet
  facet normal 0 0 -1
    outer loop
      vertex 6.13415 -3.37228 -45
      vertex 2.40984 -1.32482 -45
      vertex 2.55688 -1.01234 -45
    endloop
  endfacet
  facet normal 0 0 -1
    outer loop
      vertex 5.66312 -4.1145 -45
      vertex 2.2248 -1.61641 -45
      vertex 2.40984 -1.32482 -45
    endloop
  endfacet
  facet normal 0 0 -1
    outer loop
      vertex 1.17089 -2.48827 -45
      vertex 2.98045 -6.33379 -45
      vertex 2.16312 -6.6574 -45
    endloop
  endfacet
  facet normal 0 0 -1
    outer loop
      vertex 5.10278 -4.79183 -45
      vertex 2.00466 -1.8825 -45
      vertex 2.2248 -1.61641 -45
    endloop
  endfacet
  facet normal 0 0 -1
    outer loop
      vertex 4.46197 -5.39359 -45
      vertex 1.75292 -2.11891 -45
      vertex 2.00466 -1.8825 -45
    endloop
  endfacet
  facet normal 0 0 -1
    outer loop
      vertex 3.75079 -5.91029 -45
      vertex 1.47352 -2.3219 -45
      vertex 1.75292 -2.11891 -45
    endloop
  endfacet
  facet normal 0 0 -1
    outer loop
      vertex 0.849796 -2.61541 -45
      vertex 2.16312 -6.6574 -45
      vertex 1.31167 -6.87601 -45
    endloop
  endfacet
  facet normal 0 0 -1
    outer loop
      vertex 2.98045 -6.33379 -45
      vertex 1.17089 -2.48827 -45
      vertex 1.47352 -2.3219 -45
    endloop
  endfacet
  facet normal 0 0 -1
    outer loop
      vertex 2.16312 -6.6574 -45
      vertex 0.849796 -2.61541 -45
      vertex 1.17089 -2.48827 -45
    endloop
  endfacet
  facet normal 0 0 -1
    outer loop
      vertex 1.31167 -6.87601 -45
      vertex 0.515298 -2.70129 -45
      vertex 0.849796 -2.61541 -45
    endloop
  endfacet
  facet normal 0 0 -1
    outer loop
      vertex 0.439533 -6.98619 -45
      vertex 0.515298 -2.70129 -45
      vertex 1.31167 -6.87601 -45
    endloop
  endfacet
  facet normal 0 0 -1
    outer loop
      vertex 0.439533 -6.98619 -45
      vertex 0.172673 -2.74457 -45
      vertex 0.515298 -2.70129 -45
    endloop
  endfacet
  facet normal 0 0 -1
    outer loop
      vertex 0.439533 -6.98619 -45
      vertex -0.172673 -2.74457 -45
      vertex 0.172673 -2.74457 -45
    endloop
  endfacet
  facet normal 0 0 -1
    outer loop
      vertex -0.439533 -6.98619 -45
      vertex -0.172673 -2.74457 -45
      vertex 0.439533 -6.98619 -45
    endloop
  endfacet
  facet normal 0 0 -1
    outer loop
      vertex -0.439533 -6.98619 -45
      vertex -0.515298 -2.70129 -45
      vertex -0.172673 -2.74457 -45
    endloop
  endfacet
  facet normal 0 0 -1
    outer loop
      vertex -1.31167 -6.87601 -45
      vertex -0.515298 -2.70129 -45
      vertex -0.439533 -6.98619 -45
    endloop
  endfacet
  facet normal -0 0 -1
    outer loop
      vertex -0.515298 -2.70129 -45
      vertex -1.31167 -6.87601 -45
      vertex -0.849796 -2.61541 -45
    endloop
  endfacet
  facet normal 0 0 -1
    outer loop
      vertex -2.16312 -6.6574 -45
      vertex -0.849796 -2.61541 -45
      vertex -1.31167 -6.87601 -45
    endloop
  endfacet
  facet normal -0 0 -1
    outer loop
      vertex -0.849796 -2.61541 -45
      vertex -2.16312 -6.6574 -45
      vertex -1.17089 -2.48827 -45
    endloop
  endfacet
  facet normal 0 0 -1
    outer loop
      vertex -2.98045 -6.33379 -45
      vertex -1.17089 -2.48827 -45
      vertex -2.16312 -6.6574 -45
    endloop
  endfacet
  facet normal -0 0 -1
    outer loop
      vertex -1.17089 -2.48827 -45
      vertex -2.98045 -6.33379 -45
      vertex -1.47352 -2.3219 -45
    endloop
  endfacet
  facet normal 0 0 -1
    outer loop
      vertex -3.75079 -5.91029 -45
      vertex -1.47352 -2.3219 -45
      vertex -2.98045 -6.33379 -45
    endloop
  endfacet
  facet normal -0 0 -1
    outer loop
      vertex -1.47352 -2.3219 -45
      vertex -3.75079 -5.91029 -45
      vertex -1.75292 -2.11891 -45
    endloop
  endfacet
  facet normal 0 0 -1
    outer loop
      vertex -4.46197 -5.39359 -45
      vertex -1.75292 -2.11891 -45
      vertex -3.75079 -5.91029 -45
    endloop
  endfacet
  facet normal -0 0 -1
    outer loop
      vertex -1.75292 -2.11891 -45
      vertex -4.46197 -5.39359 -45
      vertex -2.00466 -1.8825 -45
    endloop
  endfacet
  facet normal 0 0 -1
    outer loop
      vertex -5.10278 -4.79183 -45
      vertex -2.00466 -1.8825 -45
      vertex -4.46197 -5.39359 -45
    endloop
  endfacet
  facet normal -0 0 -1
    outer loop
      vertex -2.00466 -1.8825 -45
      vertex -5.10278 -4.79183 -45
      vertex -2.2248 -1.61641 -45
    endloop
  endfacet
  facet normal -0 0 -1
    outer loop
      vertex -2.2248 -1.61641 -45
      vertex -5.66312 -4.1145 -45
      vertex -2.40984 -1.32482 -45
    endloop
  endfacet
  facet normal 0 0 -1
    outer loop
      vertex -5.66312 -4.1145 -45
      vertex -2.2248 -1.61641 -45
      vertex -5.10278 -4.79183 -45
    endloop
  endfacet
  facet normal 0 0 -1
    outer loop
      vertex 2.2248 1.61641 -45
      vertex 5.66312 4.1145 -45
      vertex 2.40984 1.32482 -45
    endloop
  endfacet
  facet normal -0 0 -1
    outer loop
      vertex 5.66312 4.1145 -45
      vertex 2.2248 1.61641 -45
      vertex 5.10278 4.79183 -45
    endloop
  endfacet
  facet normal 0 0 -1
    outer loop
      vertex 2.00466 1.8825 -45
      vertex 5.10278 4.79183 -45
      vertex 2.2248 1.61641 -45
    endloop
  endfacet
  facet normal -0 0 -1
    outer loop
      vertex 5.10278 4.79183 -45
      vertex 2.00466 1.8825 -45
      vertex 4.46197 5.39359 -45
    endloop
  endfacet
  facet normal 0 0 -1
    outer loop
      vertex 1.75292 2.11891 -45
      vertex 4.46197 5.39359 -45
      vertex 2.00466 1.8825 -45
    endloop
  endfacet
  facet normal -0 0 -1
    outer loop
      vertex 4.46197 5.39359 -45
      vertex 1.75292 2.11891 -45
      vertex 3.75079 5.91029 -45
    endloop
  endfacet
  facet normal 0 0 -1
    outer loop
      vertex 1.47352 2.3219 -45
      vertex 3.75079 5.91029 -45
      vertex 1.75292 2.11891 -45
    endloop
  endfacet
  facet normal -0 0 -1
    outer loop
      vertex 3.75079 5.91029 -45
      vertex 1.47352 2.3219 -45
      vertex 2.98045 6.33379 -45
    endloop
  endfacet
  facet normal 0 0 -1
    outer loop
      vertex 1.17089 2.48827 -45
      vertex 2.98045 6.33379 -45
      vertex 1.47352 2.3219 -45
    endloop
  endfacet
  facet normal -0 0 -1
    outer loop
      vertex 2.98045 6.33379 -45
      vertex 1.17089 2.48827 -45
      vertex 2.16312 6.6574 -45
    endloop
  endfacet
  facet normal 0 0 -1
    outer loop
      vertex 0.849796 2.61541 -45
      vertex 2.16312 6.6574 -45
      vertex 1.17089 2.48827 -45
    endloop
  endfacet
  facet normal -0 0 -1
    outer loop
      vertex 2.16312 6.6574 -45
      vertex 0.849796 2.61541 -45
      vertex 1.31167 6.87601 -45
    endloop
  endfacet
  facet normal 0 0 -1
    outer loop
      vertex 0.515298 2.70129 -45
      vertex 1.31167 6.87601 -45
      vertex 0.849796 2.61541 -45
    endloop
  endfacet
  facet normal 0 0 -1
    outer loop
      vertex 0.515298 2.70129 -45
      vertex 0.439533 6.98619 -45
      vertex 1.31167 6.87601 -45
    endloop
  endfacet
  facet normal 0 0 -1
    outer loop
      vertex 0.172673 2.74457 -45
      vertex 0.439533 6.98619 -45
      vertex 0.515298 2.70129 -45
    endloop
  endfacet
  facet normal 0 0 -1
    outer loop
      vertex -0.172673 2.74457 -45
      vertex 0.439533 6.98619 -45
      vertex 0.172673 2.74457 -45
    endloop
  endfacet
  facet normal 0 0 -1
    outer loop
      vertex -0.172673 2.74457 -45
      vertex -0.439533 6.98619 -45
      vertex 0.439533 6.98619 -45
    endloop
  endfacet
  facet normal 0 0 -1
    outer loop
      vertex -0.515298 2.70129 -45
      vertex -0.439533 6.98619 -45
      vertex -0.172673 2.74457 -45
    endloop
  endfacet
  facet normal 0 0 -1
    outer loop
      vertex -1.31167 6.87601 -45
      vertex -0.515298 2.70129 -45
      vertex -0.849796 2.61541 -45
    endloop
  endfacet
  facet normal 0 0 -1
    outer loop
      vertex -2.16312 6.6574 -45
      vertex -0.849796 2.61541 -45
      vertex -1.17089 2.48827 -45
    endloop
  endfacet
  facet normal 0 0 -1
    outer loop
      vertex -0.515298 2.70129 -45
      vertex -1.31167 6.87601 -45
      vertex -0.439533 6.98619 -45
    endloop
  endfacet
  facet normal 0 0 -1
    outer loop
      vertex -2.98045 6.33379 -45
      vertex -1.17089 2.48827 -45
      vertex -1.47352 2.3219 -45
    endloop
  endfacet
  facet normal 0 0 -1
    outer loop
      vertex -3.75079 5.91029 -45
      vertex -1.47352 2.3219 -45
      vertex -1.75292 2.11891 -45
    endloop
  endfacet
  facet normal 0 0 -1
    outer loop
      vertex -4.46197 5.39359 -45
      vertex -1.75292 2.11891 -45
      vertex -2.00466 1.8825 -45
    endloop
  endfacet
  facet normal 0 0 -1
    outer loop
      vertex -0.849796 2.61541 -45
      vertex -2.16312 6.6574 -45
      vertex -1.31167 6.87601 -45
    endloop
  endfacet
  facet normal 0 0 -1
    outer loop
      vertex -5.10278 4.79183 -45
      vertex -2.00466 1.8825 -45
      vertex -2.2248 1.61641 -45
    endloop
  endfacet
  facet normal 0 0 -1
    outer loop
      vertex -5.66312 4.1145 -45
      vertex -2.2248 1.61641 -45
      vertex -2.40984 1.32482 -45
    endloop
  endfacet
  facet normal 0 0 -1
    outer loop
      vertex -6.13415 3.37228 -45
      vertex -2.40984 1.32482 -45
      vertex -2.55688 1.01234 -45
    endloop
  endfacet
  facet normal 0 0 -1
    outer loop
      vertex -6.50844 2.57687 -45
      vertex -2.55688 1.01234 -45
      vertex -2.6636 0.683897 -45
    endloop
  endfacet
  facet normal 0 0 -1
    outer loop
      vertex -6.78008 1.74083 -45
      vertex -2.6636 0.683897 -45
      vertex -2.72832 0.344666 -45
    endloop
  endfacet
  facet normal 0 0 -1
    outer loop
      vertex -1.17089 2.48827 -45
      vertex -2.98045 6.33379 -45
      vertex -2.16312 6.6574 -45
    endloop
  endfacet
  facet normal 0 0 -1
    outer loop
      vertex -6.9448 0.877332 -45
      vertex -2.72832 0.344666 -45
      vertex -2.75 0 -45
    endloop
  endfacet
  facet normal 0 0 -1
    outer loop
      vertex -6.13415 -3.37228 -45
      vertex -2.40984 -1.32482 -45
      vertex -5.66312 -4.1145 -45
    endloop
  endfacet
  facet normal -0 0 -1
    outer loop
      vertex -2.40984 -1.32482 -45
      vertex -6.13415 -3.37228 -45
      vertex -2.55688 -1.01234 -45
    endloop
  endfacet
  facet normal 0 0 -1
    outer loop
      vertex -1.47352 2.3219 -45
      vertex -3.75079 5.91029 -45
      vertex -2.98045 6.33379 -45
    endloop
  endfacet
  facet normal 0 0 -1
    outer loop
      vertex -6.50844 -2.57687 -45
      vertex -2.55688 -1.01234 -45
      vertex -6.13415 -3.37228 -45
    endloop
  endfacet
  facet normal 0 0 -1
    outer loop
      vertex -1.75292 2.11891 -45
      vertex -4.46197 5.39359 -45
      vertex -3.75079 5.91029 -45
    endloop
  endfacet
  facet normal -0 0 -1
    outer loop
      vertex -2.55688 -1.01234 -45
      vertex -6.50844 -2.57687 -45
      vertex -2.6636 -0.683897 -45
    endloop
  endfacet
  facet normal 0 0 -1
    outer loop
      vertex -2.00466 1.8825 -45
      vertex -5.10278 4.79183 -45
      vertex -4.46197 5.39359 -45
    endloop
  endfacet
  facet normal 0 0 -1
    outer loop
      vertex -6.78008 -1.74083 -45
      vertex -2.6636 -0.683897 -45
      vertex -6.50844 -2.57687 -45
    endloop
  endfacet
  facet normal 0 0 -1
    outer loop
      vertex -2.2248 1.61641 -45
      vertex -5.66312 4.1145 -45
      vertex -5.10278 4.79183 -45
    endloop
  endfacet
  facet normal -0 0 -1
    outer loop
      vertex -2.6636 -0.683897 -45
      vertex -6.78008 -1.74083 -45
      vertex -2.72832 -0.344666 -45
    endloop
  endfacet
  facet normal 0 0 -1
    outer loop
      vertex -2.40984 1.32482 -45
      vertex -6.13415 3.37228 -45
      vertex -5.66312 4.1145 -45
    endloop
  endfacet
  facet normal 0 0 -1
    outer loop
      vertex -6.9448 -0.877332 -45
      vertex -2.72832 -0.344666 -45
      vertex -6.78008 -1.74083 -45
    endloop
  endfacet
  facet normal 0 0 -1
    outer loop
      vertex -2.55688 1.01234 -45
      vertex -6.50844 2.57687 -45
      vertex -6.13415 3.37228 -45
    endloop
  endfacet
  facet normal -0 0 -1
    outer loop
      vertex -2.72832 -0.344666 -45
      vertex -6.9448 -0.877332 -45
      vertex -2.75 0 -45
    endloop
  endfacet
  facet normal 0 0 -1
    outer loop
      vertex -2.6636 0.683897 -45
      vertex -6.78008 1.74083 -45
      vertex -6.50844 2.57687 -45
    endloop
  endfacet
  facet normal 0 0 -1
    outer loop
      vertex -7 0 -45
      vertex -2.75 0 -45
      vertex -6.9448 -0.877332 -45
    endloop
  endfacet
  facet normal 0 0 -1
    outer loop
      vertex -2.72832 0.344666 -45
      vertex -6.9448 0.877332 -45
      vertex -6.78008 1.74083 -45
    endloop
  endfacet
  facet normal 0 0 -1
    outer loop
      vertex -2.75 0 -45
      vertex -7 0 -45
      vertex -6.9448 0.877332 -45
    endloop
  endfacet
  facet normal 0.481755 -0.876306 0
    outer loop
      vertex 2.98045 -6.33379 -45
      vertex 3.75079 -5.91029 -6
      vertex 2.98045 -6.33379 -6
    endloop
  endfacet
  facet normal 0.481755 -0.876306 0
    outer loop
      vertex 3.75079 -5.91029 -6
      vertex 2.98045 -6.33379 -45
      vertex 3.75079 -5.91029 -45
    endloop
  endfacet
  facet normal 0.951058 -0.309011 0
    outer loop
      vertex 6.50844 -2.57687 -6
      vertex 6.78008 -1.74083 -45
      vertex 6.78008 -1.74083 -6
    endloop
  endfacet
  facet normal 0.951058 -0.309011 0
    outer loop
      vertex 6.78008 -1.74083 -45
      vertex 6.50844 -2.57687 -6
      vertex 6.50844 -2.57687 -45
    endloop
  endfacet
  facet normal -0.770511 -0.637427 0
    outer loop
      vertex -5.10278 -4.79183 -45
      vertex -5.66312 -4.1145 -6
      vertex -5.66312 -4.1145 -45
    endloop
  endfacet
  facet normal -0.770511 -0.637427 0
    outer loop
      vertex -5.66312 -4.1145 -6
      vertex -5.10278 -4.79183 -45
      vertex -5.10278 -4.79183 -6
    endloop
  endfacet
  facet normal -0.951058 -0.309011 0
    outer loop
      vertex -6.50844 -2.57687 -45
      vertex -6.78008 -1.74083 -6
      vertex -6.78008 -1.74083 -45
    endloop
  endfacet
  facet normal -0.951058 -0.309011 0
    outer loop
      vertex -6.78008 -1.74083 -6
      vertex -6.50844 -2.57687 -45
      vertex -6.50844 -2.57687 -6
    endloop
  endfacet
  facet normal 0.684547 -0.728969 0
    outer loop
      vertex 4.46197 -5.39359 -45
      vertex 5.10278 -4.79183 -6
      vertex 4.46197 -5.39359 -6
    endloop
  endfacet
  facet normal 0.684547 -0.728969 0
    outer loop
      vertex 5.10278 -4.79183 -6
      vertex 4.46197 -5.39359 -45
      vertex 5.10278 -4.79183 -45
    endloop
  endfacet
  facet normal 0.368131 -0.929774 0
    outer loop
      vertex 2.16312 -6.6574 -45
      vertex 2.98045 -6.33379 -6
      vertex 2.16312 -6.6574 -6
    endloop
  endfacet
  facet normal 0.368131 -0.929774 0
    outer loop
      vertex 2.98045 -6.33379 -6
      vertex 2.16312 -6.6574 -45
      vertex 2.98045 -6.33379 -45
    endloop
  endfacet
  facet normal 0.248684 -0.968585 0
    outer loop
      vertex 1.31167 -6.87601 -45
      vertex 2.16312 -6.6574 -6
      vertex 1.31167 -6.87601 -6
    endloop
  endfacet
  facet normal 0.248684 -0.968585 0
    outer loop
      vertex 2.16312 -6.6574 -6
      vertex 1.31167 -6.87601 -45
      vertex 2.16312 -6.6574 -45
    endloop
  endfacet
  facet normal 0.982287 -0.18738 0
    outer loop
      vertex 6.78008 -1.74083 -6
      vertex 6.9448 -0.877332 -45
      vertex 6.9448 -0.877332 -6
    endloop
  endfacet
  facet normal 0.982287 -0.18738 0
    outer loop
      vertex 6.9448 -0.877332 -45
      vertex 6.78008 -1.74083 -6
      vertex 6.78008 -1.74083 -45
    endloop
  endfacet
  facet normal 0.844326 -0.535829 0
    outer loop
      vertex 5.66312 -4.1145 -6
      vertex 6.13415 -3.37228 -45
      vertex 6.13415 -3.37228 -6
    endloop
  endfacet
  facet normal 0.844326 -0.535829 0
    outer loop
      vertex 6.13415 -3.37228 -45
      vertex 5.66312 -4.1145 -6
      vertex 5.66312 -4.1145 -45
    endloop
  endfacet
  facet normal 0.770511 -0.637427 0
    outer loop
      vertex 5.10278 -4.79183 -6
      vertex 5.66312 -4.1145 -45
      vertex 5.66312 -4.1145 -6
    endloop
  endfacet
  facet normal 0.770511 -0.637427 0
    outer loop
      vertex 5.66312 -4.1145 -45
      vertex 5.10278 -4.79183 -6
      vertex 5.10278 -4.79183 -45
    endloop
  endfacet
  facet normal -0.125337 -0.992114 0
    outer loop
      vertex -1.31167 -6.87601 -45
      vertex -0.439533 -6.98619 -6
      vertex -1.31167 -6.87601 -6
    endloop
  endfacet
  facet normal -0.125337 -0.992114 -0
    outer loop
      vertex -0.439533 -6.98619 -6
      vertex -1.31167 -6.87601 -45
      vertex -0.439533 -6.98619 -45
    endloop
  endfacet
  facet normal -0.368131 -0.929774 0
    outer loop
      vertex -2.98045 -6.33379 -45
      vertex -2.16312 -6.6574 -6
      vertex -2.98045 -6.33379 -6
    endloop
  endfacet
  facet normal -0.368131 -0.929774 -0
    outer loop
      vertex -2.16312 -6.6574 -6
      vertex -2.98045 -6.33379 -45
      vertex -2.16312 -6.6574 -45
    endloop
  endfacet
  facet normal -0.248684 -0.968585 0
    outer loop
      vertex -2.16312 -6.6574 -45
      vertex -1.31167 -6.87601 -6
      vertex -2.16312 -6.6574 -6
    endloop
  endfacet
  facet normal -0.248684 -0.968585 -0
    outer loop
      vertex -1.31167 -6.87601 -6
      vertex -2.16312 -6.6574 -45
      vertex -1.31167 -6.87601 -45
    endloop
  endfacet
  facet normal -0.982287 -0.18738 0
    outer loop
      vertex -6.78008 -1.74083 -45
      vertex -6.9448 -0.877332 -6
      vertex -6.9448 -0.877332 -45
    endloop
  endfacet
  facet normal -0.982287 -0.18738 0
    outer loop
      vertex -6.9448 -0.877332 -6
      vertex -6.78008 -1.74083 -45
      vertex -6.78008 -1.74083 -6
    endloop
  endfacet
  facet normal -0.998027 -0.0627939 0
    outer loop
      vertex -6.9448 -0.877332 -45
      vertex -7 0 -6
      vertex -7 0 -45
    endloop
  endfacet
  facet normal -0.998027 -0.0627939 0
    outer loop
      vertex -7 0 -6
      vertex -6.9448 -0.877332 -45
      vertex -6.9448 -0.877332 -6
    endloop
  endfacet
  facet normal 0.587783 -0.809018 0
    outer loop
      vertex 3.75079 -5.91029 -45
      vertex 4.46197 -5.39359 -6
      vertex 3.75079 -5.91029 -6
    endloop
  endfacet
  facet normal 0.587783 -0.809018 0
    outer loop
      vertex 4.46197 -5.39359 -6
      vertex 3.75079 -5.91029 -45
      vertex 4.46197 -5.39359 -45
    endloop
  endfacet
  facet normal -0.481755 -0.876306 0
    outer loop
      vertex -3.75079 -5.91029 -45
      vertex -2.98045 -6.33379 -6
      vertex -3.75079 -5.91029 -6
    endloop
  endfacet
  facet normal -0.481755 -0.876306 -0
    outer loop
      vertex -2.98045 -6.33379 -6
      vertex -3.75079 -5.91029 -45
      vertex -2.98045 -6.33379 -45
    endloop
  endfacet
  facet normal -0.587783 -0.809018 0
    outer loop
      vertex -4.46197 -5.39359 -45
      vertex -3.75079 -5.91029 -6
      vertex -4.46197 -5.39359 -6
    endloop
  endfacet
  facet normal -0.587783 -0.809018 -0
    outer loop
      vertex -3.75079 -5.91029 -6
      vertex -4.46197 -5.39359 -45
      vertex -3.75079 -5.91029 -45
    endloop
  endfacet
  facet normal 0.998027 0.0627852 0
    outer loop
      vertex 13 0 0
      vertex 12.8975 1.62933 -6
      vertex 12.8975 1.62933 0
    endloop
  endfacet
  facet normal 0.998027 0.0627852 0
    outer loop
      vertex 12.8975 1.62933 -6
      vertex 13 0 0
      vertex 13 0 -6
    endloop
  endfacet
  facet normal -0.998027 0.0627852 0
    outer loop
      vertex -13 0 -6
      vertex -12.8975 1.62933 0
      vertex -12.8975 1.62933 -6
    endloop
  endfacet
  facet normal -0.998027 0.0627852 0
    outer loop
      vertex -12.8975 1.62933 0
      vertex -13 0 -6
      vertex -13 0 0
    endloop
  endfacet
  facet normal 0 1 -0
    outer loop
      vertex 0.816277 12.9743 -6
      vertex -0.816277 12.9743 0
      vertex 0.816277 12.9743 0
    endloop
  endfacet
  facet normal 0 1 0
    outer loop
      vertex -0.816277 12.9743 0
      vertex 0.816277 12.9743 -6
      vertex -0.816277 12.9743 -6
    endloop
  endfacet
  facet normal 0 -1 0
    outer loop
      vertex -0.816277 -12.9743 -6
      vertex 0.816277 -12.9743 0
      vertex -0.816277 -12.9743 0
    endloop
  endfacet
  facet normal 0 -1 -0
    outer loop
      vertex 0.816277 -12.9743 0
      vertex -0.816277 -12.9743 -6
      vertex 0.816277 -12.9743 -6
    endloop
  endfacet
  facet normal 0.770518 -0.637418 0
    outer loop
      vertex 9.47659 -8.89911 0
      vertex 10.5172 -7.64121 -6
      vertex 10.5172 -7.64121 0
    endloop
  endfacet
  facet normal 0.770518 -0.637418 0
    outer loop
      vertex 10.5172 -7.64121 -6
      vertex 9.47659 -8.89911 0
      vertex 9.47659 -8.89911 -6
    endloop
  endfacet
  facet normal 0.684557 0.728959 -0
    outer loop
      vertex 9.47659 8.89911 -6
      vertex 8.28651 10.0167 0
      vertex 9.47659 8.89911 0
    endloop
  endfacet
  facet normal 0.684557 0.728959 0
    outer loop
      vertex 8.28651 10.0167 0
      vertex 9.47659 8.89911 -6
      vertex 8.28651 10.0167 -6
    endloop
  endfacet
  facet normal -0.684557 0.728959 0
    outer loop
      vertex -8.28651 10.0167 -6
      vertex -9.47659 8.89911 0
      vertex -8.28651 10.0167 0
    endloop
  endfacet
  facet normal -0.684557 0.728959 0
    outer loop
      vertex -9.47659 8.89911 0
      vertex -8.28651 10.0167 -6
      vertex -9.47659 8.89911 -6
    endloop
  endfacet
  facet normal -0.368081 0.929794 0
    outer loop
      vertex -4.01722 12.3637 -6
      vertex -5.53513 11.7628 0
      vertex -4.01722 12.3637 0
    endloop
  endfacet
  facet normal -0.368081 0.929794 0
    outer loop
      vertex -5.53513 11.7628 0
      vertex -4.01722 12.3637 -6
      vertex -5.53513 11.7628 -6
    endloop
  endfacet
  facet normal 0.904829 0.425775 0
    outer loop
      vertex 12.0871 4.78562 0
      vertex 11.392 6.2628 -6
      vertex 11.392 6.2628 0
    endloop
  endfacet
  facet normal 0.904829 0.425775 0
    outer loop
      vertex 11.392 6.2628 -6
      vertex 12.0871 4.78562 0
      vertex 12.0871 4.78562 -6
    endloop
  endfacet
  facet normal 0.368081 0.929794 -0
    outer loop
      vertex 5.53513 11.7628 -6
      vertex 4.01722 12.3637 0
      vertex 5.53513 11.7628 0
    endloop
  endfacet
  facet normal 0.368081 0.929794 0
    outer loop
      vertex 4.01722 12.3637 0
      vertex 5.53513 11.7628 -6
      vertex 4.01722 12.3637 -6
    endloop
  endfacet
  facet normal 0.481758 0.876304 -0
    outer loop
      vertex 6.96575 10.9763 -6
      vertex 5.53513 11.7628 0
      vertex 6.96575 10.9763 0
    endloop
  endfacet
  facet normal 0.481758 0.876304 0
    outer loop
      vertex 5.53513 11.7628 0
      vertex 6.96575 10.9763 -6
      vertex 5.53513 11.7628 -6
    endloop
  endfacet
  facet normal -0.904829 0.425775 0
    outer loop
      vertex -12.0871 4.78562 -6
      vertex -11.392 6.2628 0
      vertex -11.392 6.2628 -6
    endloop
  endfacet
  facet normal -0.904829 0.425775 0
    outer loop
      vertex -11.392 6.2628 0
      vertex -12.0871 4.78562 -6
      vertex -12.0871 4.78562 0
    endloop
  endfacet
  facet normal -0.770518 0.637418 0
    outer loop
      vertex -10.5172 7.64121 -6
      vertex -9.47659 8.89911 0
      vertex -9.47659 8.89911 -6
    endloop
  endfacet
  facet normal -0.770518 0.637418 0
    outer loop
      vertex -9.47659 8.89911 0
      vertex -10.5172 7.64121 -6
      vertex -10.5172 7.64121 0
    endloop
  endfacet
  facet normal -0.248691 0.968583 0
    outer loop
      vertex -2.43596 12.7697 -6
      vertex -4.01722 12.3637 0
      vertex -2.43596 12.7697 0
    endloop
  endfacet
  facet normal -0.248691 0.968583 0
    outer loop
      vertex -4.01722 12.3637 0
      vertex -2.43596 12.7697 -6
      vertex -4.01722 12.3637 -6
    endloop
  endfacet
  facet normal 0 0 -1
    outer loop
      vertex 7 0 -6
      vertex 13 0 -6
      vertex 12.8975 -1.62933 -6
    endloop
  endfacet
  facet normal 0 0 -1
    outer loop
      vertex 6.9448 -0.877332 -6
      vertex 12.8975 -1.62933 -6
      vertex 12.5916 -3.23297 -6
    endloop
  endfacet
  facet normal 0 0 -1
    outer loop
      vertex 13 0 -6
      vertex 7 0 -6
      vertex 12.8975 1.62933 -6
    endloop
  endfacet
  facet normal 0 0 -1
    outer loop
      vertex 6.78008 -1.74083 -6
      vertex 12.5916 -3.23297 -6
      vertex 12.0871 -4.78562 -6
    endloop
  endfacet
  facet normal 0 0 -1
    outer loop
      vertex 6.9448 0.877332 -6
      vertex 12.8975 1.62933 -6
      vertex 7 0 -6
    endloop
  endfacet
  facet normal 0 0 -1
    outer loop
      vertex 6.50844 -2.57687 -6
      vertex 12.0871 -4.78562 -6
      vertex 11.392 -6.2628 -6
    endloop
  endfacet
  facet normal -0 0 -1
    outer loop
      vertex 12.8975 1.62933 -6
      vertex 6.9448 0.877332 -6
      vertex 12.5916 3.23297 -6
    endloop
  endfacet
  facet normal 0 0 -1
    outer loop
      vertex 6.13415 -3.37228 -6
      vertex 11.392 -6.2628 -6
      vertex 10.5172 -7.64121 -6
    endloop
  endfacet
  facet normal 0 0 -1
    outer loop
      vertex 6.78008 1.74083 -6
      vertex 12.5916 3.23297 -6
      vertex 6.9448 0.877332 -6
    endloop
  endfacet
  facet normal 0 0 -1
    outer loop
      vertex 5.66312 -4.1145 -6
      vertex 10.5172 -7.64121 -6
      vertex 9.47659 -8.89911 -6
    endloop
  endfacet
  facet normal -0 0 -1
    outer loop
      vertex 12.5916 3.23297 -6
      vertex 6.78008 1.74083 -6
      vertex 12.0871 4.78562 -6
    endloop
  endfacet
  facet normal 0 0 -1
    outer loop
      vertex 5.10278 -4.79183 -6
      vertex 9.47659 -8.89911 -6
      vertex 8.28651 -10.0167 -6
    endloop
  endfacet
  facet normal 0 0 -1
    outer loop
      vertex 6.50844 2.57687 -6
      vertex 12.0871 4.78562 -6
      vertex 6.78008 1.74083 -6
    endloop
  endfacet
  facet normal -0 0 -1
    outer loop
      vertex 12.0871 4.78562 -6
      vertex 6.50844 2.57687 -6
      vertex 11.392 6.2628 -6
    endloop
  endfacet
  facet normal 0 0 -1
    outer loop
      vertex 4.46197 -5.39359 -6
      vertex 8.28651 -10.0167 -6
      vertex 6.96575 -10.9763 -6
    endloop
  endfacet
  facet normal 0 0 -1
    outer loop
      vertex 12.8975 -1.62933 -6
      vertex 6.9448 -0.877332 -6
      vertex 7 0 -6
    endloop
  endfacet
  facet normal 0 0 -1
    outer loop
      vertex 12.5916 -3.23297 -6
      vertex 6.78008 -1.74083 -6
      vertex 6.9448 -0.877332 -6
    endloop
  endfacet
  facet normal 0 0 -1
    outer loop
      vertex 12.0871 -4.78562 -6
      vertex 6.50844 -2.57687 -6
      vertex 6.78008 -1.74083 -6
    endloop
  endfacet
  facet normal 0 0 -1
    outer loop
      vertex 11.392 -6.2628 -6
      vertex 6.13415 -3.37228 -6
      vertex 6.50844 -2.57687 -6
    endloop
  endfacet
  facet normal 0 0 -1
    outer loop
      vertex 10.5172 -7.64121 -6
      vertex 5.66312 -4.1145 -6
      vertex 6.13415 -3.37228 -6
    endloop
  endfacet
  facet normal 0 0 -1
    outer loop
      vertex 3.75079 -5.91029 -6
      vertex 6.96575 -10.9763 -6
      vertex 5.53513 -11.7628 -6
    endloop
  endfacet
  facet normal 0 0 -1
    outer loop
      vertex 9.47659 -8.89911 -6
      vertex 5.10278 -4.79183 -6
      vertex 5.66312 -4.1145 -6
    endloop
  endfacet
  facet normal 0 0 -1
    outer loop
      vertex 8.28651 -10.0167 -6
      vertex 4.46197 -5.39359 -6
      vertex 5.10278 -4.79183 -6
    endloop
  endfacet
  facet normal 0 0 -1
    outer loop
      vertex 2.98045 -6.33379 -6
      vertex 5.53513 -11.7628 -6
      vertex 4.01722 -12.3637 -6
    endloop
  endfacet
  facet normal 0 0 -1
    outer loop
      vertex 6.96575 -10.9763 -6
      vertex 3.75079 -5.91029 -6
      vertex 4.46197 -5.39359 -6
    endloop
  endfacet
  facet normal 0 0 -1
    outer loop
      vertex 5.53513 -11.7628 -6
      vertex 2.98045 -6.33379 -6
      vertex 3.75079 -5.91029 -6
    endloop
  endfacet
  facet normal 0 0 -1
    outer loop
      vertex 2.16312 -6.6574 -6
      vertex 4.01722 -12.3637 -6
      vertex 2.43596 -12.7697 -6
    endloop
  endfacet
  facet normal 0 0 -1
    outer loop
      vertex 4.01722 -12.3637 -6
      vertex 2.16312 -6.6574 -6
      vertex 2.98045 -6.33379 -6
    endloop
  endfacet
  facet normal 0 0 -1
    outer loop
      vertex 2.43596 -12.7697 -6
      vertex 1.31167 -6.87601 -6
      vertex 2.16312 -6.6574 -6
    endloop
  endfacet
  facet normal 0 0 -1
    outer loop
      vertex 0.816277 -12.9743 -6
      vertex 1.31167 -6.87601 -6
      vertex 2.43596 -12.7697 -6
    endloop
  endfacet
  facet normal 0 0 -1
    outer loop
      vertex 0.816277 -12.9743 -6
      vertex 0.439533 -6.98619 -6
      vertex 1.31167 -6.87601 -6
    endloop
  endfacet
  facet normal 0 0 -1
    outer loop
      vertex 0.816277 -12.9743 -6
      vertex -0.439533 -6.98619 -6
      vertex 0.439533 -6.98619 -6
    endloop
  endfacet
  facet normal 0 0 -1
    outer loop
      vertex -0.816277 -12.9743 -6
      vertex -0.439533 -6.98619 -6
      vertex 0.816277 -12.9743 -6
    endloop
  endfacet
  facet normal 0 0 -1
    outer loop
      vertex -0.816277 -12.9743 -6
      vertex -1.31167 -6.87601 -6
      vertex -0.439533 -6.98619 -6
    endloop
  endfacet
  facet normal 0 0 -1
    outer loop
      vertex -2.43596 -12.7697 -6
      vertex -1.31167 -6.87601 -6
      vertex -0.816277 -12.9743 -6
    endloop
  endfacet
  facet normal -0 0 -1
    outer loop
      vertex -1.31167 -6.87601 -6
      vertex -2.43596 -12.7697 -6
      vertex -2.16312 -6.6574 -6
    endloop
  endfacet
  facet normal 0 0 -1
    outer loop
      vertex -4.01722 -12.3637 -6
      vertex -2.16312 -6.6574 -6
      vertex -2.43596 -12.7697 -6
    endloop
  endfacet
  facet normal -0 0 -1
    outer loop
      vertex -2.16312 -6.6574 -6
      vertex -4.01722 -12.3637 -6
      vertex -2.98045 -6.33379 -6
    endloop
  endfacet
  facet normal 0 0 -1
    outer loop
      vertex -5.53513 -11.7628 -6
      vertex -2.98045 -6.33379 -6
      vertex -4.01722 -12.3637 -6
    endloop
  endfacet
  facet normal -0 0 -1
    outer loop
      vertex -2.98045 -6.33379 -6
      vertex -5.53513 -11.7628 -6
      vertex -3.75079 -5.91029 -6
    endloop
  endfacet
  facet normal 0 0 -1
    outer loop
      vertex -6.96575 -10.9763 -6
      vertex -3.75079 -5.91029 -6
      vertex -5.53513 -11.7628 -6
    endloop
  endfacet
  facet normal -0 0 -1
    outer loop
      vertex -3.75079 -5.91029 -6
      vertex -6.96575 -10.9763 -6
      vertex -4.46197 -5.39359 -6
    endloop
  endfacet
  facet normal 0 0 -1
    outer loop
      vertex -8.28651 -10.0167 -6
      vertex -4.46197 -5.39359 -6
      vertex -6.96575 -10.9763 -6
    endloop
  endfacet
  facet normal -0 0 -1
    outer loop
      vertex -4.46197 -5.39359 -6
      vertex -8.28651 -10.0167 -6
      vertex -5.10278 -4.79183 -6
    endloop
  endfacet
  facet normal 0 0 -1
    outer loop
      vertex -9.47659 -8.89911 -6
      vertex -5.10278 -4.79183 -6
      vertex -8.28651 -10.0167 -6
    endloop
  endfacet
  facet normal -0 0 -1
    outer loop
      vertex -5.10278 -4.79183 -6
      vertex -9.47659 -8.89911 -6
      vertex -5.66312 -4.1145 -6
    endloop
  endfacet
  facet normal 0 0 -1
    outer loop
      vertex -10.5172 -7.64121 -6
      vertex -5.66312 -4.1145 -6
      vertex -9.47659 -8.89911 -6
    endloop
  endfacet
  facet normal -0 0 -1
    outer loop
      vertex -5.66312 -4.1145 -6
      vertex -10.5172 -7.64121 -6
      vertex -6.13415 -3.37228 -6
    endloop
  endfacet
  facet normal 0 0 -1
    outer loop
      vertex -11.392 -6.2628 -6
      vertex -6.13415 -3.37228 -6
      vertex -10.5172 -7.64121 -6
    endloop
  endfacet
  facet normal -0 0 -1
    outer loop
      vertex -6.13415 -3.37228 -6
      vertex -11.392 -6.2628 -6
      vertex -6.50844 -2.57687 -6
    endloop
  endfacet
  facet normal 0 0 -1
    outer loop
      vertex 6.13415 3.37228 -6
      vertex 11.392 6.2628 -6
      vertex 6.50844 2.57687 -6
    endloop
  endfacet
  facet normal -0 0 -1
    outer loop
      vertex 11.392 6.2628 -6
      vertex 6.13415 3.37228 -6
      vertex 10.5172 7.64121 -6
    endloop
  endfacet
  facet normal 0 0 -1
    outer loop
      vertex 5.66312 4.1145 -6
      vertex 10.5172 7.64121 -6
      vertex 6.13415 3.37228 -6
    endloop
  endfacet
  facet normal -0 0 -1
    outer loop
      vertex 10.5172 7.64121 -6
      vertex 5.66312 4.1145 -6
      vertex 9.47659 8.89911 -6
    endloop
  endfacet
  facet normal 0 0 -1
    outer loop
      vertex 5.10278 4.79183 -6
      vertex 9.47659 8.89911 -6
      vertex 5.66312 4.1145 -6
    endloop
  endfacet
  facet normal -0 0 -1
    outer loop
      vertex 9.47659 8.89911 -6
      vertex 5.10278 4.79183 -6
      vertex 8.28651 10.0167 -6
    endloop
  endfacet
  facet normal 0 0 -1
    outer loop
      vertex 4.46197 5.39359 -6
      vertex 8.28651 10.0167 -6
      vertex 5.10278 4.79183 -6
    endloop
  endfacet
  facet normal -0 0 -1
    outer loop
      vertex 8.28651 10.0167 -6
      vertex 4.46197 5.39359 -6
      vertex 6.96575 10.9763 -6
    endloop
  endfacet
  facet normal 0 0 -1
    outer loop
      vertex 3.75079 5.91029 -6
      vertex 6.96575 10.9763 -6
      vertex 4.46197 5.39359 -6
    endloop
  endfacet
  facet normal -0 0 -1
    outer loop
      vertex 6.96575 10.9763 -6
      vertex 3.75079 5.91029 -6
      vertex 5.53513 11.7628 -6
    endloop
  endfacet
  facet normal 0 0 -1
    outer loop
      vertex 2.98045 6.33379 -6
      vertex 5.53513 11.7628 -6
      vertex 3.75079 5.91029 -6
    endloop
  endfacet
  facet normal -0 0 -1
    outer loop
      vertex 5.53513 11.7628 -6
      vertex 2.98045 6.33379 -6
      vertex 4.01722 12.3637 -6
    endloop
  endfacet
  facet normal 0 0 -1
    outer loop
      vertex 2.16312 6.6574 -6
      vertex 4.01722 12.3637 -6
      vertex 2.98045 6.33379 -6
    endloop
  endfacet
  facet normal -0 0 -1
    outer loop
      vertex 4.01722 12.3637 -6
      vertex 2.16312 6.6574 -6
      vertex 2.43596 12.7697 -6
    endloop
  endfacet
  facet normal 0 0 -1
    outer loop
      vertex 1.31167 6.87601 -6
      vertex 2.43596 12.7697 -6
      vertex 2.16312 6.6574 -6
    endloop
  endfacet
  facet normal 0 0 -1
    outer loop
      vertex 1.31167 6.87601 -6
      vertex 0.816277 12.9743 -6
      vertex 2.43596 12.7697 -6
    endloop
  endfacet
  facet normal 0 0 -1
    outer loop
      vertex 0.439533 6.98619 -6
      vertex 0.816277 12.9743 -6
      vertex 1.31167 6.87601 -6
    endloop
  endfacet
  facet normal 0 0 -1
    outer loop
      vertex -0.439533 6.98619 -6
      vertex 0.816277 12.9743 -6
      vertex 0.439533 6.98619 -6
    endloop
  endfacet
  facet normal 0 0 -1
    outer loop
      vertex -0.439533 6.98619 -6
      vertex -0.816277 12.9743 -6
      vertex 0.816277 12.9743 -6
    endloop
  endfacet
  facet normal 0 0 -1
    outer loop
      vertex -1.31167 6.87601 -6
      vertex -0.816277 12.9743 -6
      vertex -0.439533 6.98619 -6
    endloop
  endfacet
  facet normal 0 0 -1
    outer loop
      vertex -2.43596 12.7697 -6
      vertex -1.31167 6.87601 -6
      vertex -2.16312 6.6574 -6
    endloop
  endfacet
  facet normal 0 0 -1
    outer loop
      vertex -1.31167 6.87601 -6
      vertex -2.43596 12.7697 -6
      vertex -0.816277 12.9743 -6
    endloop
  endfacet
  facet normal 0 0 -1
    outer loop
      vertex -4.01722 12.3637 -6
      vertex -2.16312 6.6574 -6
      vertex -2.98045 6.33379 -6
    endloop
  endfacet
  facet normal 0 0 -1
    outer loop
      vertex -5.53513 11.7628 -6
      vertex -2.98045 6.33379 -6
      vertex -3.75079 5.91029 -6
    endloop
  endfacet
  facet normal 0 0 -1
    outer loop
      vertex -2.16312 6.6574 -6
      vertex -4.01722 12.3637 -6
      vertex -2.43596 12.7697 -6
    endloop
  endfacet
  facet normal 0 0 -1
    outer loop
      vertex -6.96575 10.9763 -6
      vertex -3.75079 5.91029 -6
      vertex -4.46197 5.39359 -6
    endloop
  endfacet
  facet normal 0 0 -1
    outer loop
      vertex -8.28651 10.0167 -6
      vertex -4.46197 5.39359 -6
      vertex -5.10278 4.79183 -6
    endloop
  endfacet
  facet normal 0 0 -1
    outer loop
      vertex -2.98045 6.33379 -6
      vertex -5.53513 11.7628 -6
      vertex -4.01722 12.3637 -6
    endloop
  endfacet
  facet normal 0 0 -1
    outer loop
      vertex -9.47659 8.89911 -6
      vertex -5.10278 4.79183 -6
      vertex -5.66312 4.1145 -6
    endloop
  endfacet
  facet normal 0 0 -1
    outer loop
      vertex -10.5172 7.64121 -6
      vertex -5.66312 4.1145 -6
      vertex -6.13415 3.37228 -6
    endloop
  endfacet
  facet normal 0 0 -1
    outer loop
      vertex -11.392 6.2628 -6
      vertex -6.13415 3.37228 -6
      vertex -6.50844 2.57687 -6
    endloop
  endfacet
  facet normal 0 0 -1
    outer loop
      vertex -12.0871 4.78562 -6
      vertex -6.50844 2.57687 -6
      vertex -6.78008 1.74083 -6
    endloop
  endfacet
  facet normal 0 0 -1
    outer loop
      vertex -12.5916 3.23297 -6
      vertex -6.78008 1.74083 -6
      vertex -6.9448 0.877332 -6
    endloop
  endfacet
  facet normal 0 0 -1
    outer loop
      vertex -3.75079 5.91029 -6
      vertex -6.96575 10.9763 -6
      vertex -5.53513 11.7628 -6
    endloop
  endfacet
  facet normal 0 0 -1
    outer loop
      vertex -12.8975 1.62933 -6
      vertex -6.9448 0.877332 -6
      vertex -7 0 -6
    endloop
  endfacet
  facet normal 0 0 -1
    outer loop
      vertex -12.0871 -4.78562 -6
      vertex -6.50844 -2.57687 -6
      vertex -11.392 -6.2628 -6
    endloop
  endfacet
  facet normal 0 0 -1
    outer loop
      vertex -4.46197 5.39359 -6
      vertex -8.28651 10.0167 -6
      vertex -6.96575 10.9763 -6
    endloop
  endfacet
  facet normal -0 0 -1
    outer loop
      vertex -6.50844 -2.57687 -6
      vertex -12.0871 -4.78562 -6
      vertex -6.78008 -1.74083 -6
    endloop
  endfacet
  facet normal 0 0 -1
    outer loop
      vertex -5.10278 4.79183 -6
      vertex -9.47659 8.89911 -6
      vertex -8.28651 10.0167 -6
    endloop
  endfacet
  facet normal 0 0 -1
    outer loop
      vertex -12.5916 -3.23297 -6
      vertex -6.78008 -1.74083 -6
      vertex -12.0871 -4.78562 -6
    endloop
  endfacet
  facet normal 0 0 -1
    outer loop
      vertex -5.66312 4.1145 -6
      vertex -10.5172 7.64121 -6
      vertex -9.47659 8.89911 -6
    endloop
  endfacet
  facet normal -0 0 -1
    outer loop
      vertex -6.78008 -1.74083 -6
      vertex -12.5916 -3.23297 -6
      vertex -6.9448 -0.877332 -6
    endloop
  endfacet
  facet normal 0 0 -1
    outer loop
      vertex -6.13415 3.37228 -6
      vertex -11.392 6.2628 -6
      vertex -10.5172 7.64121 -6
    endloop
  endfacet
  facet normal 0 0 -1
    outer loop
      vertex -12.8975 -1.62933 -6
      vertex -6.9448 -0.877332 -6
      vertex -12.5916 -3.23297 -6
    endloop
  endfacet
  facet normal 0 0 -1
    outer loop
      vertex -6.50844 2.57687 -6
      vertex -12.0871 4.78562 -6
      vertex -11.392 6.2628 -6
    endloop
  endfacet
  facet normal -0 0 -1
    outer loop
      vertex -6.9448 -0.877332 -6
      vertex -12.8975 -1.62933 -6
      vertex -7 0 -6
    endloop
  endfacet
  facet normal 0 0 -1
    outer loop
      vertex -6.78008 1.74083 -6
      vertex -12.5916 3.23297 -6
      vertex -12.0871 4.78562 -6
    endloop
  endfacet
  facet normal 0 0 -1
    outer loop
      vertex -13 0 -6
      vertex -7 0 -6
      vertex -12.8975 -1.62933 -6
    endloop
  endfacet
  facet normal 0 0 -1
    outer loop
      vertex -6.9448 0.877332 -6
      vertex -12.8975 1.62933 -6
      vertex -12.5916 3.23297 -6
    endloop
  endfacet
  facet normal 0 0 -1
    outer loop
      vertex -7 0 -6
      vertex -13 0 -6
      vertex -12.8975 1.62933 -6
    endloop
  endfacet
  facet normal 0.125325 -0.992116 0
    outer loop
      vertex 0.816277 -12.9743 -6
      vertex 2.43596 -12.7697 0
      vertex 0.816277 -12.9743 0
    endloop
  endfacet
  facet normal 0.125325 -0.992116 0
    outer loop
      vertex 2.43596 -12.7697 0
      vertex 0.816277 -12.9743 -6
      vertex 2.43596 -12.7697 -6
    endloop
  endfacet
  facet normal 0.982288 -0.187375 0
    outer loop
      vertex 12.5916 -3.23297 0
      vertex 12.8975 -1.62933 -6
      vertex 12.8975 -1.62933 0
    endloop
  endfacet
  facet normal 0.982288 -0.187375 0
    outer loop
      vertex 12.8975 -1.62933 -6
      vertex 12.5916 -3.23297 0
      vertex 12.5916 -3.23297 -6
    endloop
  endfacet
  facet normal 0.951054 0.309024 0
    outer loop
      vertex 12.5916 3.23297 0
      vertex 12.0871 4.78562 -6
      vertex 12.0871 4.78562 0
    endloop
  endfacet
  facet normal 0.951054 0.309024 0
    outer loop
      vertex 12.0871 4.78562 -6
      vertex 12.5916 3.23297 0
      vertex 12.5916 3.23297 -6
    endloop
  endfacet
  facet normal 0.982288 0.187375 0
    outer loop
      vertex 12.8975 1.62933 0
      vertex 12.5916 3.23297 -6
      vertex 12.5916 3.23297 0
    endloop
  endfacet
  facet normal 0.982288 0.187375 0
    outer loop
      vertex 12.5916 3.23297 -6
      vertex 12.8975 1.62933 0
      vertex 12.8975 1.62933 -6
    endloop
  endfacet
  facet normal 0.770518 0.637418 0
    outer loop
      vertex 10.5172 7.64121 0
      vertex 9.47659 8.89911 -6
      vertex 9.47659 8.89911 0
    endloop
  endfacet
  facet normal 0.770518 0.637418 0
    outer loop
      vertex 9.47659 8.89911 -6
      vertex 10.5172 7.64121 0
      vertex 10.5172 7.64121 -6
    endloop
  endfacet
  facet normal 0.844318 0.535842 0
    outer loop
      vertex 11.392 6.2628 0
      vertex 10.5172 7.64121 -6
      vertex 10.5172 7.64121 0
    endloop
  endfacet
  facet normal 0.844318 0.535842 0
    outer loop
      vertex 10.5172 7.64121 -6
      vertex 11.392 6.2628 0
      vertex 11.392 6.2628 -6
    endloop
  endfacet
  facet normal 0.248691 0.968583 -0
    outer loop
      vertex 4.01722 12.3637 -6
      vertex 2.43596 12.7697 0
      vertex 4.01722 12.3637 0
    endloop
  endfacet
  facet normal 0.248691 0.968583 0
    outer loop
      vertex 2.43596 12.7697 0
      vertex 4.01722 12.3637 -6
      vertex 2.43596 12.7697 -6
    endloop
  endfacet
  facet normal 0.125325 0.992116 -0
    outer loop
      vertex 2.43596 12.7697 -6
      vertex 0.816277 12.9743 0
      vertex 2.43596 12.7697 0
    endloop
  endfacet
  facet normal 0.125325 0.992116 0
    outer loop
      vertex 0.816277 12.9743 0
      vertex 2.43596 12.7697 -6
      vertex 0.816277 12.9743 -6
    endloop
  endfacet
  facet normal 0.58779 0.809014 -0
    outer loop
      vertex 8.28651 10.0167 -6
      vertex 6.96575 10.9763 0
      vertex 8.28651 10.0167 0
    endloop
  endfacet
  facet normal 0.58779 0.809014 0
    outer loop
      vertex 6.96575 10.9763 0
      vertex 8.28651 10.0167 -6
      vertex 6.96575 10.9763 -6
    endloop
  endfacet
  facet normal -0.844318 0.535842 0
    outer loop
      vertex -11.392 6.2628 -6
      vertex -10.5172 7.64121 0
      vertex -10.5172 7.64121 -6
    endloop
  endfacet
  facet normal -0.844318 0.535842 0
    outer loop
      vertex -10.5172 7.64121 0
      vertex -11.392 6.2628 -6
      vertex -11.392 6.2628 0
    endloop
  endfacet
  facet normal -0.951054 0.309024 0
    outer loop
      vertex -12.5916 3.23297 -6
      vertex -12.0871 4.78562 0
      vertex -12.0871 4.78562 -6
    endloop
  endfacet
  facet normal -0.951054 0.309024 0
    outer loop
      vertex -12.0871 4.78562 0
      vertex -12.5916 3.23297 -6
      vertex -12.5916 3.23297 0
    endloop
  endfacet
  facet normal -0.982288 0.187375 0
    outer loop
      vertex -12.8975 1.62933 -6
      vertex -12.5916 3.23297 0
      vertex -12.5916 3.23297 -6
    endloop
  endfacet
  facet normal -0.982288 0.187375 0
    outer loop
      vertex -12.5916 3.23297 0
      vertex -12.8975 1.62933 -6
      vertex -12.8975 1.62933 0
    endloop
  endfacet
  facet normal -0.481758 0.876304 0
    outer loop
      vertex -5.53513 11.7628 -6
      vertex -6.96575 10.9763 0
      vertex -5.53513 11.7628 0
    endloop
  endfacet
  facet normal -0.481758 0.876304 0
    outer loop
      vertex -6.96575 10.9763 0
      vertex -5.53513 11.7628 -6
      vertex -6.96575 10.9763 -6
    endloop
  endfacet
  facet normal -0.58779 0.809014 0
    outer loop
      vertex -6.96575 10.9763 -6
      vertex -8.28651 10.0167 0
      vertex -6.96575 10.9763 0
    endloop
  endfacet
  facet normal -0.58779 0.809014 0
    outer loop
      vertex -8.28651 10.0167 0
      vertex -6.96575 10.9763 -6
      vertex -8.28651 10.0167 -6
    endloop
  endfacet
  facet normal -0.125325 0.992116 0
    outer loop
      vertex -0.816277 12.9743 -6
      vertex -2.43596 12.7697 0
      vertex -0.816277 12.9743 0
    endloop
  endfacet
  facet normal -0.125325 0.992116 0
    outer loop
      vertex -2.43596 12.7697 0
      vertex -0.816277 12.9743 -6
      vertex -2.43596 12.7697 -6
    endloop
  endfacet
  facet normal 0.998027 -0.0627852 0
    outer loop
      vertex 12.8975 -1.62933 0
      vertex 13 0 -6
      vertex 13 0 0
    endloop
  endfacet
  facet normal 0.998027 -0.0627852 0
    outer loop
      vertex 13 0 -6
      vertex 12.8975 -1.62933 0
      vertex 12.8975 -1.62933 -6
    endloop
  endfacet
  facet normal -0.904829 -0.425775 0
    outer loop
      vertex -11.392 -6.2628 -6
      vertex -12.0871 -4.78562 0
      vertex -12.0871 -4.78562 -6
    endloop
  endfacet
  facet normal -0.904829 -0.425775 0
    outer loop
      vertex -12.0871 -4.78562 0
      vertex -11.392 -6.2628 -6
      vertex -11.392 -6.2628 0
    endloop
  endfacet
  facet normal -0.998027 -0.0627852 0
    outer loop
      vertex -12.8975 -1.62933 -6
      vertex -13 0 0
      vertex -13 0 -6
    endloop
  endfacet
  facet normal -0.998027 -0.0627852 0
    outer loop
      vertex -13 0 0
      vertex -12.8975 -1.62933 -6
      vertex -12.8975 -1.62933 0
    endloop
  endfacet
  facet normal 0.481758 -0.876304 0
    outer loop
      vertex 5.53513 -11.7628 -6
      vertex 6.96575 -10.9763 0
      vertex 5.53513 -11.7628 0
    endloop
  endfacet
  facet normal 0.481758 -0.876304 0
    outer loop
      vertex 6.96575 -10.9763 0
      vertex 5.53513 -11.7628 -6
      vertex 6.96575 -10.9763 -6
    endloop
  endfacet
  facet normal 0.951054 -0.309024 0
    outer loop
      vertex 12.0871 -4.78562 0
      vertex 12.5916 -3.23297 -6
      vertex 12.5916 -3.23297 0
    endloop
  endfacet
  facet normal 0.951054 -0.309024 0
    outer loop
      vertex 12.5916 -3.23297 -6
      vertex 12.0871 -4.78562 0
      vertex 12.0871 -4.78562 -6
    endloop
  endfacet
  facet normal -0.982288 -0.187375 0
    outer loop
      vertex -12.5916 -3.23297 -6
      vertex -12.8975 -1.62933 0
      vertex -12.8975 -1.62933 -6
    endloop
  endfacet
  facet normal -0.982288 -0.187375 0
    outer loop
      vertex -12.8975 -1.62933 0
      vertex -12.5916 -3.23297 -6
      vertex -12.5916 -3.23297 0
    endloop
  endfacet
  facet normal -0.951054 -0.309024 0
    outer loop
      vertex -12.0871 -4.78562 -6
      vertex -12.5916 -3.23297 0
      vertex -12.5916 -3.23297 -6
    endloop
  endfacet
  facet normal -0.951054 -0.309024 0
    outer loop
      vertex -12.5916 -3.23297 0
      vertex -12.0871 -4.78562 -6
      vertex -12.0871 -4.78562 0
    endloop
  endfacet
  facet normal 0.684557 -0.728959 0
    outer loop
      vertex 8.28651 -10.0167 -6
      vertex 9.47659 -8.89911 0
      vertex 8.28651 -10.0167 0
    endloop
  endfacet
  facet normal 0.684557 -0.728959 0
    outer loop
      vertex 9.47659 -8.89911 0
      vertex 8.28651 -10.0167 -6
      vertex 9.47659 -8.89911 -6
    endloop
  endfacet
  facet normal 0.368081 -0.929794 0
    outer loop
      vertex 4.01722 -12.3637 -6
      vertex 5.53513 -11.7628 0
      vertex 4.01722 -12.3637 0
    endloop
  endfacet
  facet normal 0.368081 -0.929794 0
    outer loop
      vertex 5.53513 -11.7628 0
      vertex 4.01722 -12.3637 -6
      vertex 5.53513 -11.7628 -6
    endloop
  endfacet
  facet normal 0.248691 -0.968583 0
    outer loop
      vertex 2.43596 -12.7697 -6
      vertex 4.01722 -12.3637 0
      vertex 2.43596 -12.7697 0
    endloop
  endfacet
  facet normal 0.248691 -0.968583 0
    outer loop
      vertex 4.01722 -12.3637 0
      vertex 2.43596 -12.7697 -6
      vertex 4.01722 -12.3637 -6
    endloop
  endfacet
  facet normal 0.844318 -0.535842 0
    outer loop
      vertex 10.5172 -7.64121 0
      vertex 11.392 -6.2628 -6
      vertex 11.392 -6.2628 0
    endloop
  endfacet
  facet normal 0.844318 -0.535842 0
    outer loop
      vertex 11.392 -6.2628 -6
      vertex 10.5172 -7.64121 0
      vertex 10.5172 -7.64121 -6
    endloop
  endfacet
  facet normal -0.368081 -0.929794 0
    outer loop
      vertex -5.53513 -11.7628 -6
      vertex -4.01722 -12.3637 0
      vertex -5.53513 -11.7628 0
    endloop
  endfacet
  facet normal -0.368081 -0.929794 -0
    outer loop
      vertex -4.01722 -12.3637 0
      vertex -5.53513 -11.7628 -6
      vertex -4.01722 -12.3637 -6
    endloop
  endfacet
  facet normal -0.248691 -0.968583 0
    outer loop
      vertex -4.01722 -12.3637 -6
      vertex -2.43596 -12.7697 0
      vertex -4.01722 -12.3637 0
    endloop
  endfacet
  facet normal -0.248691 -0.968583 -0
    outer loop
      vertex -2.43596 -12.7697 0
      vertex -4.01722 -12.3637 -6
      vertex -2.43596 -12.7697 -6
    endloop
  endfacet
  facet normal -0.770518 -0.637418 0
    outer loop
      vertex -9.47659 -8.89911 -6
      vertex -10.5172 -7.64121 0
      vertex -10.5172 -7.64121 -6
    endloop
  endfacet
  facet normal -0.770518 -0.637418 0
    outer loop
      vertex -10.5172 -7.64121 0
      vertex -9.47659 -8.89911 -6
      vertex -9.47659 -8.89911 0
    endloop
  endfacet
  facet normal -0.844318 -0.535842 0
    outer loop
      vertex -10.5172 -7.64121 -6
      vertex -11.392 -6.2628 0
      vertex -11.392 -6.2628 -6
    endloop
  endfacet
  facet normal -0.844318 -0.535842 0
    outer loop
      vertex -11.392 -6.2628 0
      vertex -10.5172 -7.64121 -6
      vertex -10.5172 -7.64121 0
    endloop
  endfacet
  facet normal -0.684557 -0.728959 0
    outer loop
      vertex -9.47659 -8.89911 -6
      vertex -8.28651 -10.0167 0
      vertex -9.47659 -8.89911 0
    endloop
  endfacet
  facet normal -0.684557 -0.728959 -0
    outer loop
      vertex -8.28651 -10.0167 0
      vertex -9.47659 -8.89911 -6
      vertex -8.28651 -10.0167 -6
    endloop
  endfacet
  facet normal 0.58779 -0.809014 0
    outer loop
      vertex 6.96575 -10.9763 -6
      vertex 8.28651 -10.0167 0
      vertex 6.96575 -10.9763 0
    endloop
  endfacet
  facet normal 0.58779 -0.809014 0
    outer loop
      vertex 8.28651 -10.0167 0
      vertex 6.96575 -10.9763 -6
      vertex 8.28651 -10.0167 -6
    endloop
  endfacet
  facet normal 0.904829 -0.425775 0
    outer loop
      vertex 11.392 -6.2628 0
      vertex 12.0871 -4.78562 -6
      vertex 12.0871 -4.78562 0
    endloop
  endfacet
  facet normal 0.904829 -0.425775 0
    outer loop
      vertex 12.0871 -4.78562 -6
      vertex 11.392 -6.2628 0
      vertex 11.392 -6.2628 -6
    endloop
  endfacet
  facet normal -0.58779 -0.809014 0
    outer loop
      vertex -8.28651 -10.0167 -6
      vertex -6.96575 -10.9763 0
      vertex -8.28651 -10.0167 0
    endloop
  endfacet
  facet normal -0.58779 -0.809014 -0
    outer loop
      vertex -6.96575 -10.9763 0
      vertex -8.28651 -10.0167 -6
      vertex -6.96575 -10.9763 -6
    endloop
  endfacet
  facet normal -0.125325 -0.992116 0
    outer loop
      vertex -2.43596 -12.7697 -6
      vertex -0.816277 -12.9743 0
      vertex -2.43596 -12.7697 0
    endloop
  endfacet
  facet normal -0.125325 -0.992116 -0
    outer loop
      vertex -0.816277 -12.9743 0
      vertex -2.43596 -12.7697 -6
      vertex -0.816277 -12.9743 -6
    endloop
  endfacet
  facet normal -0.481758 -0.876304 0
    outer loop
      vertex -6.96575 -10.9763 -6
      vertex -5.53513 -11.7628 0
      vertex -6.96575 -10.9763 0
    endloop
  endfacet
  facet normal -0.481758 -0.876304 -0
    outer loop
      vertex -5.53513 -11.7628 0
      vertex -6.96575 -10.9763 -6
      vertex -5.53513 -11.7628 -6
    endloop
  endfacet
  facet normal -0.998028 -0.0627774 0
    outer loop
      vertex 2.75 0 -45
      vertex 2.72832 0.344666 0
      vertex 2.72832 0.344666 -45
    endloop
  endfacet
  facet normal -0.998028 -0.0627774 0
    outer loop
      vertex 2.72832 0.344666 0
      vertex 2.75 0 -45
      vertex 2.75 0 0
    endloop
  endfacet
  facet normal 0.998028 -0.0627774 0
    outer loop
      vertex -2.75 0 0
      vertex -2.72832 0.344666 -45
      vertex -2.72832 0.344666 0
    endloop
  endfacet
  facet normal 0.998028 -0.0627774 0
    outer loop
      vertex -2.72832 0.344666 -45
      vertex -2.75 0 0
      vertex -2.75 0 -45
    endloop
  endfacet
  facet normal 0 -1 0
    outer loop
      vertex -0.172673 2.74457 -45
      vertex 0.172673 2.74457 0
      vertex -0.172673 2.74457 0
    endloop
  endfacet
  facet normal 0 -1 -0
    outer loop
      vertex 0.172673 2.74457 0
      vertex -0.172673 2.74457 -45
      vertex 0.172673 2.74457 -45
    endloop
  endfacet
  facet normal 0 1 -0
    outer loop
      vertex 0.172673 -2.74457 -45
      vertex -0.172673 -2.74457 0
      vertex 0.172673 -2.74457 0
    endloop
  endfacet
  facet normal 0 1 0
    outer loop
      vertex -0.172673 -2.74457 0
      vertex 0.172673 -2.74457 -45
      vertex -0.172673 -2.74457 -45
    endloop
  endfacet
  facet normal -0.684563 -0.728954 0
    outer loop
      vertex 1.75292 2.11891 -45
      vertex 2.00466 1.8825 0
      vertex 1.75292 2.11891 0
    endloop
  endfacet
  facet normal -0.684563 -0.728954 -0
    outer loop
      vertex 2.00466 1.8825 0
      vertex 1.75292 2.11891 -45
      vertex 2.00466 1.8825 -45
    endloop
  endfacet
  facet normal 0.684563 -0.728954 0
    outer loop
      vertex -2.00466 1.8825 -45
      vertex -1.75292 2.11891 0
      vertex -2.00466 1.8825 0
    endloop
  endfacet
  facet normal 0.684563 -0.728954 0
    outer loop
      vertex -1.75292 2.11891 0
      vertex -2.00466 1.8825 -45
      vertex -1.75292 2.11891 -45
    endloop
  endfacet
  facet normal 0.368149 -0.929767 0
    outer loop
      vertex -1.17089 2.48827 -45
      vertex -0.849796 2.61541 0
      vertex -1.17089 2.48827 0
    endloop
  endfacet
  facet normal 0.368149 -0.929767 0
    outer loop
      vertex -0.849796 2.61541 0
      vertex -1.17089 2.48827 -45
      vertex -0.849796 2.61541 -45
    endloop
  endfacet
  facet normal -0.904829 -0.425775 0
    outer loop
      vertex 2.55688 1.01234 -45
      vertex 2.40984 1.32482 0
      vertex 2.40984 1.32482 -45
    endloop
  endfacet
  facet normal -0.904829 -0.425775 0
    outer loop
      vertex 2.40984 1.32482 0
      vertex 2.55688 1.01234 -45
      vertex 2.55688 1.01234 0
    endloop
  endfacet
  facet normal -0.368149 -0.929767 0
    outer loop
      vertex 0.849796 2.61541 -45
      vertex 1.17089 2.48827 0
      vertex 0.849796 2.61541 0
    endloop
  endfacet
  facet normal -0.368149 -0.929767 -0
    outer loop
      vertex 1.17089 2.48827 0
      vertex 0.849796 2.61541 -45
      vertex 1.17089 2.48827 -45
    endloop
  endfacet
  facet normal -0.587774 -0.809025 0
    outer loop
      vertex 1.47352 2.3219 -45
      vertex 1.75292 2.11891 0
      vertex 1.47352 2.3219 0
    endloop
  endfacet
  facet normal -0.587774 -0.809025 -0
    outer loop
      vertex 1.75292 2.11891 0
      vertex 1.47352 2.3219 -45
      vertex 1.75292 2.11891 -45
    endloop
  endfacet
  facet normal 0.844339 -0.535809 0
    outer loop
      vertex -2.40984 1.32482 0
      vertex -2.2248 1.61641 -45
      vertex -2.2248 1.61641 0
    endloop
  endfacet
  facet normal 0.844339 -0.535809 0
    outer loop
      vertex -2.2248 1.61641 -45
      vertex -2.40984 1.32482 0
      vertex -2.40984 1.32482 -45
    endloop
  endfacet
  facet normal 0.770497 -0.637443 0
    outer loop
      vertex -2.2248 1.61641 0
      vertex -2.00466 1.8825 -45
      vertex -2.00466 1.8825 0
    endloop
  endfacet
  facet normal 0.770497 -0.637443 0
    outer loop
      vertex -2.00466 1.8825 -45
      vertex -2.2248 1.61641 0
      vertex -2.2248 1.61641 -45
    endloop
  endfacet
  facet normal 0.481749 -0.876309 0
    outer loop
      vertex -1.47352 2.3219 -45
      vertex -1.17089 2.48827 0
      vertex -1.47352 2.3219 0
    endloop
  endfacet
  facet normal 0.481749 -0.876309 0
    outer loop
      vertex -1.17089 2.48827 0
      vertex -1.47352 2.3219 -45
      vertex -1.17089 2.48827 -45
    endloop
  endfacet
  facet normal 0.248678 -0.968586 0
    outer loop
      vertex -0.849796 2.61541 -45
      vertex -0.515298 2.70129 0
      vertex -0.849796 2.61541 0
    endloop
  endfacet
  facet normal 0.248678 -0.968586 0
    outer loop
      vertex -0.515298 2.70129 0
      vertex -0.849796 2.61541 -45
      vertex -0.515298 2.70129 -45
    endloop
  endfacet
  facet normal -0.125323 0.992116 0
    outer loop
      vertex 0.515298 -2.70129 -45
      vertex 0.172673 -2.74457 0
      vertex 0.515298 -2.70129 0
    endloop
  endfacet
  facet normal -0.125323 0.992116 0
    outer loop
      vertex 0.172673 -2.74457 0
      vertex 0.515298 -2.70129 -45
      vertex 0.172673 -2.74457 -45
    endloop
  endfacet
  facet normal -0.951054 -0.309023 0
    outer loop
      vertex 2.6636 0.683897 -45
      vertex 2.55688 1.01234 0
      vertex 2.55688 1.01234 -45
    endloop
  endfacet
  facet normal -0.951054 -0.309023 0
    outer loop
      vertex 2.55688 1.01234 0
      vertex 2.6636 0.683897 -45
      vertex 2.6636 0.683897 0
    endloop
  endfacet
  facet normal -0.982283 -0.187404 0
    outer loop
      vertex 2.72832 0.344666 -45
      vertex 2.6636 0.683897 0
      vertex 2.6636 0.683897 -45
    endloop
  endfacet
  facet normal -0.982283 -0.187404 0
    outer loop
      vertex 2.6636 0.683897 0
      vertex 2.72832 0.344666 -45
      vertex 2.72832 0.344666 0
    endloop
  endfacet
  facet normal -0.770497 -0.637443 0
    outer loop
      vertex 2.2248 1.61641 -45
      vertex 2.00466 1.8825 0
      vertex 2.00466 1.8825 -45
    endloop
  endfacet
  facet normal -0.770497 -0.637443 0
    outer loop
      vertex 2.00466 1.8825 0
      vertex 2.2248 1.61641 -45
      vertex 2.2248 1.61641 0
    endloop
  endfacet
  facet normal -0.844339 -0.535809 0
    outer loop
      vertex 2.40984 1.32482 -45
      vertex 2.2248 1.61641 0
      vertex 2.2248 1.61641 -45
    endloop
  endfacet
  facet normal -0.844339 -0.535809 0
    outer loop
      vertex 2.2248 1.61641 0
      vertex 2.40984 1.32482 -45
      vertex 2.40984 1.32482 0
    endloop
  endfacet
  facet normal -0.248678 -0.968586 0
    outer loop
      vertex 0.515298 2.70129 -45
      vertex 0.849796 2.61541 0
      vertex 0.515298 2.70129 0
    endloop
  endfacet
  facet normal -0.248678 -0.968586 -0
    outer loop
      vertex 0.849796 2.61541 0
      vertex 0.515298 2.70129 -45
      vertex 0.849796 2.61541 -45
    endloop
  endfacet
  facet normal -0.125323 -0.992116 0
    outer loop
      vertex 0.172673 2.74457 -45
      vertex 0.515298 2.70129 0
      vertex 0.172673 2.74457 0
    endloop
  endfacet
  facet normal -0.125323 -0.992116 -0
    outer loop
      vertex 0.515298 2.70129 0
      vertex 0.172673 2.74457 -45
      vertex 0.515298 2.70129 -45
    endloop
  endfacet
  facet normal 0.904829 -0.425775 0
    outer loop
      vertex -2.55688 1.01234 0
      vertex -2.40984 1.32482 -45
      vertex -2.40984 1.32482 0
    endloop
  endfacet
  facet normal 0.904829 -0.425775 0
    outer loop
      vertex -2.40984 1.32482 -45
      vertex -2.55688 1.01234 0
      vertex -2.55688 1.01234 -45
    endloop
  endfacet
  facet normal 0.951054 -0.309023 0
    outer loop
      vertex -2.6636 0.683897 0
      vertex -2.55688 1.01234 -45
      vertex -2.55688 1.01234 0
    endloop
  endfacet
  facet normal 0.951054 -0.309023 0
    outer loop
      vertex -2.55688 1.01234 -45
      vertex -2.6636 0.683897 0
      vertex -2.6636 0.683897 -45
    endloop
  endfacet
  facet normal 0.982283 -0.187404 0
    outer loop
      vertex -2.72832 0.344666 0
      vertex -2.6636 0.683897 -45
      vertex -2.6636 0.683897 0
    endloop
  endfacet
  facet normal 0.982283 -0.187404 0
    outer loop
      vertex -2.6636 0.683897 -45
      vertex -2.72832 0.344666 0
      vertex -2.72832 0.344666 -45
    endloop
  endfacet
  facet normal 0.125323 -0.992116 0
    outer loop
      vertex -0.515298 2.70129 -45
      vertex -0.172673 2.74457 0
      vertex -0.515298 2.70129 0
    endloop
  endfacet
  facet normal 0.125323 -0.992116 0
    outer loop
      vertex -0.172673 2.74457 0
      vertex -0.515298 2.70129 -45
      vertex -0.172673 2.74457 -45
    endloop
  endfacet
  facet normal -0.998028 0.0627774 0
    outer loop
      vertex 2.72832 -0.344666 -45
      vertex 2.75 0 0
      vertex 2.75 0 -45
    endloop
  endfacet
  facet normal -0.998028 0.0627774 0
    outer loop
      vertex 2.75 0 0
      vertex 2.72832 -0.344666 -45
      vertex 2.72832 -0.344666 0
    endloop
  endfacet
  facet normal -0.770497 0.637443 0
    outer loop
      vertex 2.00466 -1.8825 -45
      vertex 2.2248 -1.61641 0
      vertex 2.2248 -1.61641 -45
    endloop
  endfacet
  facet normal -0.770497 0.637443 0
    outer loop
      vertex 2.2248 -1.61641 0
      vertex 2.00466 -1.8825 -45
      vertex 2.00466 -1.8825 0
    endloop
  endfacet
  facet normal 0.368149 0.929767 -0
    outer loop
      vertex -0.849796 -2.61541 -45
      vertex -1.17089 -2.48827 0
      vertex -0.849796 -2.61541 0
    endloop
  endfacet
  facet normal 0.368149 0.929767 0
    outer loop
      vertex -1.17089 -2.48827 0
      vertex -0.849796 -2.61541 -45
      vertex -1.17089 -2.48827 -45
    endloop
  endfacet
  facet normal -0.481749 0.876309 0
    outer loop
      vertex 1.47352 -2.3219 -45
      vertex 1.17089 -2.48827 0
      vertex 1.47352 -2.3219 0
    endloop
  endfacet
  facet normal -0.481749 0.876309 0
    outer loop
      vertex 1.17089 -2.48827 0
      vertex 1.47352 -2.3219 -45
      vertex 1.17089 -2.48827 -45
    endloop
  endfacet
  facet normal -0.368149 0.929767 0
    outer loop
      vertex 1.17089 -2.48827 -45
      vertex 0.849796 -2.61541 0
      vertex 1.17089 -2.48827 0
    endloop
  endfacet
  facet normal -0.368149 0.929767 0
    outer loop
      vertex 0.849796 -2.61541 0
      vertex 1.17089 -2.48827 -45
      vertex 0.849796 -2.61541 -45
    endloop
  endfacet
  facet normal -0.481749 -0.876309 0
    outer loop
      vertex 1.17089 2.48827 -45
      vertex 1.47352 2.3219 0
      vertex 1.17089 2.48827 0
    endloop
  endfacet
  facet normal -0.481749 -0.876309 -0
    outer loop
      vertex 1.47352 2.3219 0
      vertex 1.17089 2.48827 -45
      vertex 1.47352 2.3219 -45
    endloop
  endfacet
  facet normal 0.587774 -0.809025 0
    outer loop
      vertex -1.75292 2.11891 -45
      vertex -1.47352 2.3219 0
      vertex -1.75292 2.11891 0
    endloop
  endfacet
  facet normal 0.587774 -0.809025 0
    outer loop
      vertex -1.47352 2.3219 0
      vertex -1.75292 2.11891 -45
      vertex -1.47352 2.3219 -45
    endloop
  endfacet
  facet normal -0.951054 0.309023 0
    outer loop
      vertex 2.55688 -1.01234 -45
      vertex 2.6636 -0.683897 0
      vertex 2.6636 -0.683897 -45
    endloop
  endfacet
  facet normal -0.951054 0.309023 0
    outer loop
      vertex 2.6636 -0.683897 0
      vertex 2.55688 -1.01234 -45
      vertex 2.55688 -1.01234 0
    endloop
  endfacet
  facet normal -0.982283 0.187404 0
    outer loop
      vertex 2.6636 -0.683897 -45
      vertex 2.72832 -0.344666 0
      vertex 2.72832 -0.344666 -45
    endloop
  endfacet
  facet normal -0.982283 0.187404 0
    outer loop
      vertex 2.72832 -0.344666 0
      vertex 2.6636 -0.683897 -45
      vertex 2.6636 -0.683897 0
    endloop
  endfacet
  facet normal -0.904829 0.425775 0
    outer loop
      vertex 2.40984 -1.32482 -45
      vertex 2.55688 -1.01234 0
      vertex 2.55688 -1.01234 -45
    endloop
  endfacet
  facet normal -0.904829 0.425775 0
    outer loop
      vertex 2.55688 -1.01234 0
      vertex 2.40984 -1.32482 -45
      vertex 2.40984 -1.32482 0
    endloop
  endfacet
  facet normal -0.844339 0.535809 0
    outer loop
      vertex 2.2248 -1.61641 -45
      vertex 2.40984 -1.32482 0
      vertex 2.40984 -1.32482 -45
    endloop
  endfacet
  facet normal -0.844339 0.535809 0
    outer loop
      vertex 2.40984 -1.32482 0
      vertex 2.2248 -1.61641 -45
      vertex 2.2248 -1.61641 0
    endloop
  endfacet
  facet normal 0.770497 0.637443 0
    outer loop
      vertex -2.00466 -1.8825 0
      vertex -2.2248 -1.61641 -45
      vertex -2.2248 -1.61641 0
    endloop
  endfacet
  facet normal 0.770497 0.637443 0
    outer loop
      vertex -2.2248 -1.61641 -45
      vertex -2.00466 -1.8825 0
      vertex -2.00466 -1.8825 -45
    endloop
  endfacet
  facet normal 0.904829 0.425775 0
    outer loop
      vertex -2.40984 -1.32482 0
      vertex -2.55688 -1.01234 -45
      vertex -2.55688 -1.01234 0
    endloop
  endfacet
  facet normal 0.904829 0.425775 0
    outer loop
      vertex -2.55688 -1.01234 -45
      vertex -2.40984 -1.32482 0
      vertex -2.40984 -1.32482 -45
    endloop
  endfacet
  facet normal 0.998028 0.0627774 0
    outer loop
      vertex -2.72832 -0.344666 0
      vertex -2.75 0 -45
      vertex -2.75 0 0
    endloop
  endfacet
  facet normal 0.998028 0.0627774 0
    outer loop
      vertex -2.75 0 -45
      vertex -2.72832 -0.344666 0
      vertex -2.72832 -0.344666 -45
    endloop
  endfacet
  facet normal 0.982283 0.187404 0
    outer loop
      vertex -2.6636 -0.683897 0
      vertex -2.72832 -0.344666 -45
      vertex -2.72832 -0.344666 0
    endloop
  endfacet
  facet normal 0.982283 0.187404 0
    outer loop
      vertex -2.72832 -0.344666 -45
      vertex -2.6636 -0.683897 0
      vertex -2.6636 -0.683897 -45
    endloop
  endfacet
  facet normal 0.951054 0.309023 0
    outer loop
      vertex -2.55688 -1.01234 0
      vertex -2.6636 -0.683897 -45
      vertex -2.6636 -0.683897 0
    endloop
  endfacet
  facet normal 0.951054 0.309023 0
    outer loop
      vertex -2.6636 -0.683897 -45
      vertex -2.55688 -1.01234 0
      vertex -2.55688 -1.01234 -45
    endloop
  endfacet
  facet normal -0.587774 0.809025 0
    outer loop
      vertex 1.75292 -2.11891 -45
      vertex 1.47352 -2.3219 0
      vertex 1.75292 -2.11891 0
    endloop
  endfacet
  facet normal -0.587774 0.809025 0
    outer loop
      vertex 1.47352 -2.3219 0
      vertex 1.75292 -2.11891 -45
      vertex 1.47352 -2.3219 -45
    endloop
  endfacet
  facet normal -0.248678 0.968586 0
    outer loop
      vertex 0.849796 -2.61541 -45
      vertex 0.515298 -2.70129 0
      vertex 0.849796 -2.61541 0
    endloop
  endfacet
  facet normal -0.248678 0.968586 0
    outer loop
      vertex 0.515298 -2.70129 0
      vertex 0.849796 -2.61541 -45
      vertex 0.515298 -2.70129 -45
    endloop
  endfacet
  facet normal 0.125323 0.992116 -0
    outer loop
      vertex -0.172673 -2.74457 -45
      vertex -0.515298 -2.70129 0
      vertex -0.172673 -2.74457 0
    endloop
  endfacet
  facet normal 0.125323 0.992116 0
    outer loop
      vertex -0.515298 -2.70129 0
      vertex -0.172673 -2.74457 -45
      vertex -0.515298 -2.70129 -45
    endloop
  endfacet
  facet normal 0.481749 0.876309 -0
    outer loop
      vertex -1.17089 -2.48827 -45
      vertex -1.47352 -2.3219 0
      vertex -1.17089 -2.48827 0
    endloop
  endfacet
  facet normal 0.481749 0.876309 0
    outer loop
      vertex -1.47352 -2.3219 0
      vertex -1.17089 -2.48827 -45
      vertex -1.47352 -2.3219 -45
    endloop
  endfacet
  facet normal 0.248678 0.968586 -0
    outer loop
      vertex -0.515298 -2.70129 -45
      vertex -0.849796 -2.61541 0
      vertex -0.515298 -2.70129 0
    endloop
  endfacet
  facet normal 0.248678 0.968586 0
    outer loop
      vertex -0.849796 -2.61541 0
      vertex -0.515298 -2.70129 -45
      vertex -0.849796 -2.61541 -45
    endloop
  endfacet
  facet normal 0.844339 0.535809 0
    outer loop
      vertex -2.2248 -1.61641 0
      vertex -2.40984 -1.32482 -45
      vertex -2.40984 -1.32482 0
    endloop
  endfacet
  facet normal 0.844339 0.535809 0
    outer loop
      vertex -2.40984 -1.32482 -45
      vertex -2.2248 -1.61641 0
      vertex -2.2248 -1.61641 -45
    endloop
  endfacet
  facet normal -0.684563 0.728954 0
    outer loop
      vertex 2.00466 -1.8825 -45
      vertex 1.75292 -2.11891 0
      vertex 2.00466 -1.8825 0
    endloop
  endfacet
  facet normal -0.684563 0.728954 0
    outer loop
      vertex 1.75292 -2.11891 0
      vertex 2.00466 -1.8825 -45
      vertex 1.75292 -2.11891 -45
    endloop
  endfacet
  facet normal 0.684563 0.728954 -0
    outer loop
      vertex -1.75292 -2.11891 -45
      vertex -2.00466 -1.8825 0
      vertex -1.75292 -2.11891 0
    endloop
  endfacet
  facet normal 0.684563 0.728954 0
    outer loop
      vertex -2.00466 -1.8825 0
      vertex -1.75292 -2.11891 -45
      vertex -2.00466 -1.8825 -45
    endloop
  endfacet
  facet normal 0.587774 0.809025 -0
    outer loop
      vertex -1.47352 -2.3219 -45
      vertex -1.75292 -2.11891 0
      vertex -1.47352 -2.3219 0
    endloop
  endfacet
  facet normal 0.587774 0.809025 0
    outer loop
      vertex -1.75292 -2.11891 0
      vertex -1.47352 -2.3219 -45
      vertex -1.75292 -2.11891 -45
    endloop
  endfacet
endsolid OpenSCAD_Model
