solid OpenSCAD_Model
  facet normal 0 0 1
    outer loop
      vertex 3.75 0 0
      vertex 7 0 0
      vertex 6.9448 0.877332 0
    endloop
  endfacet
  facet normal 0 0 1
    outer loop
      vertex 3.72043 0.469999 0
      vertex 6.9448 0.877332 0
      vertex 6.78008 1.74083 0
    endloop
  endfacet
  facet normal 0 0 1
    outer loop
      vertex 7 0 0
      vertex 3.75 0 0
      vertex 6.9448 -0.877332 0
    endloop
  endfacet
  facet normal 0 0 1
    outer loop
      vertex 3.63219 0.932587 0
      vertex 6.78008 1.74083 0
      vertex 6.50844 2.57687 0
    endloop
  endfacet
  facet normal -0 0 1
    outer loop
      vertex 3.72043 -0.469999 0
      vertex 6.9448 -0.877332 0
      vertex 3.75 0 0
    endloop
  endfacet
  facet normal 0 0 1
    outer loop
      vertex 3.48666 1.38047 0
      vertex 6.50844 2.57687 0
      vertex 6.13415 3.37228 0
    endloop
  endfacet
  facet normal 0 0 1
    outer loop
      vertex 6.9448 -0.877332 0
      vertex 3.72043 -0.469999 0
      vertex 6.78008 -1.74083 0
    endloop
  endfacet
  facet normal 0 0 1
    outer loop
      vertex 3.28615 1.80658 0
      vertex 6.13415 3.37228 0
      vertex 5.66312 4.1145 0
    endloop
  endfacet
  facet normal -0 0 1
    outer loop
      vertex 3.63219 -0.932587 0
      vertex 6.78008 -1.74083 0
      vertex 3.72043 -0.469999 0
    endloop
  endfacet
  facet normal 0 0 1
    outer loop
      vertex 3.03381 2.20419 0
      vertex 5.66312 4.1145 0
      vertex 5.10278 4.79183 0
    endloop
  endfacet
  facet normal 0 0 1
    outer loop
      vertex 6.78008 -1.74083 0
      vertex 3.63219 -0.932587 0
      vertex 6.50844 -2.57687 0
    endloop
  endfacet
  facet normal 0 0 1
    outer loop
      vertex 2.73363 2.56705 0
      vertex 5.10278 4.79183 0
      vertex 4.46197 5.39359 0
    endloop
  endfacet
  facet normal -0 0 1
    outer loop
      vertex 3.48666 -1.38047 0
      vertex 6.50844 -2.57687 0
      vertex 3.63219 -0.932587 0
    endloop
  endfacet
  facet normal 0 0 1
    outer loop
      vertex 2.39034 2.88942 0
      vertex 4.46197 5.39359 0
      vertex 3.75079 5.91029 0
    endloop
  endfacet
  facet normal 0 0 1
    outer loop
      vertex 6.50844 -2.57687 0
      vertex 3.48666 -1.38047 0
      vertex 6.13415 -3.37228 0
    endloop
  endfacet
  facet normal -0 0 1
    outer loop
      vertex 3.28615 -1.80658 0
      vertex 6.13415 -3.37228 0
      vertex 3.48666 -1.38047 0
    endloop
  endfacet
  facet normal 0 0 1
    outer loop
      vertex 6.9448 0.877332 0
      vertex 3.72043 0.469999 0
      vertex 3.75 0 0
    endloop
  endfacet
  facet normal 0 0 1
    outer loop
      vertex 6.78008 1.74083 0
      vertex 3.63219 0.932587 0
      vertex 3.72043 0.469999 0
    endloop
  endfacet
  facet normal 0 0 1
    outer loop
      vertex 6.50844 2.57687 0
      vertex 3.48666 1.38047 0
      vertex 3.63219 0.932587 0
    endloop
  endfacet
  facet normal 0 0 1
    outer loop
      vertex 6.13415 3.37228 0
      vertex 3.28615 1.80658 0
      vertex 3.48666 1.38047 0
    endloop
  endfacet
  facet normal 0 0 1
    outer loop
      vertex 5.66312 4.1145 0
      vertex 3.03381 2.20419 0
      vertex 3.28615 1.80658 0
    endloop
  endfacet
  facet normal 0 0 1
    outer loop
      vertex 2.00935 3.16623 0
      vertex 3.75079 5.91029 0
      vertex 2.98045 6.33379 0
    endloop
  endfacet
  facet normal 0 0 1
    outer loop
      vertex 5.10278 4.79183 0
      vertex 2.73363 2.56705 0
      vertex 3.03381 2.20419 0
    endloop
  endfacet
  facet normal 0 0 1
    outer loop
      vertex 4.46197 5.39359 0
      vertex 2.39034 2.88942 0
      vertex 2.73363 2.56705 0
    endloop
  endfacet
  facet normal 0 0 1
    outer loop
      vertex 1.59667 3.3931 0
      vertex 2.98045 6.33379 0
      vertex 2.16312 6.6574 0
    endloop
  endfacet
  facet normal 0 0 1
    outer loop
      vertex 3.75079 5.91029 0
      vertex 2.00935 3.16623 0
      vertex 2.39034 2.88942 0
    endloop
  endfacet
  facet normal 0 0 1
    outer loop
      vertex 2.98045 6.33379 0
      vertex 1.59667 3.3931 0
      vertex 2.00935 3.16623 0
    endloop
  endfacet
  facet normal 0 0 1
    outer loop
      vertex 1.15881 3.56646 0
      vertex 2.16312 6.6574 0
      vertex 1.31167 6.87601 0
    endloop
  endfacet
  facet normal 0 0 1
    outer loop
      vertex 2.16312 6.6574 0
      vertex 1.15881 3.56646 0
      vertex 1.59667 3.3931 0
    endloop
  endfacet
  facet normal 0 0 1
    outer loop
      vertex 1.31167 6.87601 0
      vertex 0.70268 3.68358 0
      vertex 1.15881 3.56646 0
    endloop
  endfacet
  facet normal 0 0 1
    outer loop
      vertex 0.439533 6.98619 0
      vertex 0.70268 3.68358 0
      vertex 1.31167 6.87601 0
    endloop
  endfacet
  facet normal 0 0 1
    outer loop
      vertex 0.439533 6.98619 0
      vertex 0.235464 3.7426 0
      vertex 0.70268 3.68358 0
    endloop
  endfacet
  facet normal 0 0 1
    outer loop
      vertex 0.439533 6.98619 0
      vertex -0.235464 3.7426 0
      vertex 0.235464 3.7426 0
    endloop
  endfacet
  facet normal -0 0 1
    outer loop
      vertex -0.439533 6.98619 0
      vertex -0.235464 3.7426 0
      vertex 0.439533 6.98619 0
    endloop
  endfacet
  facet normal 0 0 1
    outer loop
      vertex -0.439533 6.98619 0
      vertex -0.70268 3.68358 0
      vertex -0.235464 3.7426 0
    endloop
  endfacet
  facet normal -0 0 1
    outer loop
      vertex -1.31167 6.87601 0
      vertex -0.70268 3.68358 0
      vertex -0.439533 6.98619 0
    endloop
  endfacet
  facet normal 0 0 1
    outer loop
      vertex -0.70268 3.68358 0
      vertex -1.31167 6.87601 0
      vertex -1.15881 3.56646 0
    endloop
  endfacet
  facet normal -0 0 1
    outer loop
      vertex -2.16312 6.6574 0
      vertex -1.15881 3.56646 0
      vertex -1.31167 6.87601 0
    endloop
  endfacet
  facet normal 0 0 1
    outer loop
      vertex -1.15881 3.56646 0
      vertex -2.16312 6.6574 0
      vertex -1.59667 3.3931 0
    endloop
  endfacet
  facet normal -0 0 1
    outer loop
      vertex -2.98045 6.33379 0
      vertex -1.59667 3.3931 0
      vertex -2.16312 6.6574 0
    endloop
  endfacet
  facet normal 0 0 1
    outer loop
      vertex -1.59667 3.3931 0
      vertex -2.98045 6.33379 0
      vertex -2.00935 3.16623 0
    endloop
  endfacet
  facet normal -0 0 1
    outer loop
      vertex -3.75079 5.91029 0
      vertex -2.00935 3.16623 0
      vertex -2.98045 6.33379 0
    endloop
  endfacet
  facet normal 0 0 1
    outer loop
      vertex -2.00935 3.16623 0
      vertex -3.75079 5.91029 0
      vertex -2.39034 2.88942 0
    endloop
  endfacet
  facet normal -0 0 1
    outer loop
      vertex -4.46197 5.39359 0
      vertex -2.39034 2.88942 0
      vertex -3.75079 5.91029 0
    endloop
  endfacet
  facet normal 0 0 1
    outer loop
      vertex -2.39034 2.88942 0
      vertex -4.46197 5.39359 0
      vertex -2.73363 2.56705 0
    endloop
  endfacet
  facet normal -0 0 1
    outer loop
      vertex -5.10278 4.79183 0
      vertex -2.73363 2.56705 0
      vertex -4.46197 5.39359 0
    endloop
  endfacet
  facet normal 0 0 1
    outer loop
      vertex -2.73363 2.56705 0
      vertex -5.10278 4.79183 0
      vertex -3.03381 2.20419 0
    endloop
  endfacet
  facet normal -0 0 1
    outer loop
      vertex -5.66312 4.1145 0
      vertex -3.03381 2.20419 0
      vertex -5.10278 4.79183 0
    endloop
  endfacet
  facet normal -0 0 1
    outer loop
      vertex -6.13415 3.37228 0
      vertex -3.28615 1.80658 0
      vertex -5.66312 4.1145 0
    endloop
  endfacet
  facet normal 0 0 1
    outer loop
      vertex -3.03381 2.20419 0
      vertex -5.66312 4.1145 0
      vertex -3.28615 1.80658 0
    endloop
  endfacet
  facet normal 0 0 1
    outer loop
      vertex 6.13415 -3.37228 0
      vertex 3.28615 -1.80658 0
      vertex 5.66312 -4.1145 0
    endloop
  endfacet
  facet normal -0 0 1
    outer loop
      vertex 3.03381 -2.20419 0
      vertex 5.66312 -4.1145 0
      vertex 3.28615 -1.80658 0
    endloop
  endfacet
  facet normal 0 0 1
    outer loop
      vertex 5.66312 -4.1145 0
      vertex 3.03381 -2.20419 0
      vertex 5.10278 -4.79183 0
    endloop
  endfacet
  facet normal -0 0 1
    outer loop
      vertex 2.73363 -2.56705 0
      vertex 5.10278 -4.79183 0
      vertex 3.03381 -2.20419 0
    endloop
  endfacet
  facet normal 0 0 1
    outer loop
      vertex 5.10278 -4.79183 0
      vertex 2.73363 -2.56705 0
      vertex 4.46197 -5.39359 0
    endloop
  endfacet
  facet normal -0 0 1
    outer loop
      vertex 2.39034 -2.88942 0
      vertex 4.46197 -5.39359 0
      vertex 2.73363 -2.56705 0
    endloop
  endfacet
  facet normal 0 0 1
    outer loop
      vertex 4.46197 -5.39359 0
      vertex 2.39034 -2.88942 0
      vertex 3.75079 -5.91029 0
    endloop
  endfacet
  facet normal -0 0 1
    outer loop
      vertex 2.00935 -3.16623 0
      vertex 3.75079 -5.91029 0
      vertex 2.39034 -2.88942 0
    endloop
  endfacet
  facet normal 0 0 1
    outer loop
      vertex 3.75079 -5.91029 0
      vertex 2.00935 -3.16623 0
      vertex 2.98045 -6.33379 0
    endloop
  endfacet
  facet normal -0 0 1
    outer loop
      vertex 1.59667 -3.3931 0
      vertex 2.98045 -6.33379 0
      vertex 2.00935 -3.16623 0
    endloop
  endfacet
  facet normal 0 0 1
    outer loop
      vertex 2.98045 -6.33379 0
      vertex 1.59667 -3.3931 0
      vertex 2.16312 -6.6574 0
    endloop
  endfacet
  facet normal -0 0 1
    outer loop
      vertex 1.15881 -3.56646 0
      vertex 2.16312 -6.6574 0
      vertex 1.59667 -3.3931 0
    endloop
  endfacet
  facet normal 0 0 1
    outer loop
      vertex 2.16312 -6.6574 0
      vertex 1.15881 -3.56646 0
      vertex 1.31167 -6.87601 0
    endloop
  endfacet
  facet normal -0 0 1
    outer loop
      vertex 0.70268 -3.68358 0
      vertex 1.31167 -6.87601 0
      vertex 1.15881 -3.56646 0
    endloop
  endfacet
  facet normal 0 0 1
    outer loop
      vertex 0.70268 -3.68358 0
      vertex 0.439533 -6.98619 0
      vertex 1.31167 -6.87601 0
    endloop
  endfacet
  facet normal -0 0 1
    outer loop
      vertex 0.235464 -3.7426 0
      vertex 0.439533 -6.98619 0
      vertex 0.70268 -3.68358 0
    endloop
  endfacet
  facet normal -0 0 1
    outer loop
      vertex -0.235464 -3.7426 0
      vertex 0.439533 -6.98619 0
      vertex 0.235464 -3.7426 0
    endloop
  endfacet
  facet normal 0 0 1
    outer loop
      vertex -0.235464 -3.7426 0
      vertex -0.439533 -6.98619 0
      vertex 0.439533 -6.98619 0
    endloop
  endfacet
  facet normal 0 0 1
    outer loop
      vertex -0.70268 -3.68358 0
      vertex -0.439533 -6.98619 0
      vertex -0.235464 -3.7426 0
    endloop
  endfacet
  facet normal 0 0 1
    outer loop
      vertex -1.31167 -6.87601 0
      vertex -0.70268 -3.68358 0
      vertex -1.15881 -3.56646 0
    endloop
  endfacet
  facet normal 0 0 1
    outer loop
      vertex -0.70268 -3.68358 0
      vertex -1.31167 -6.87601 0
      vertex -0.439533 -6.98619 0
    endloop
  endfacet
  facet normal 0 0 1
    outer loop
      vertex -2.16312 -6.6574 0
      vertex -1.15881 -3.56646 0
      vertex -1.59667 -3.3931 0
    endloop
  endfacet
  facet normal 0 0 1
    outer loop
      vertex -2.98045 -6.33379 0
      vertex -1.59667 -3.3931 0
      vertex -2.00935 -3.16623 0
    endloop
  endfacet
  facet normal 0 0 1
    outer loop
      vertex -1.15881 -3.56646 0
      vertex -2.16312 -6.6574 0
      vertex -1.31167 -6.87601 0
    endloop
  endfacet
  facet normal 0 0 1
    outer loop
      vertex -3.75079 -5.91029 0
      vertex -2.00935 -3.16623 0
      vertex -2.39034 -2.88942 0
    endloop
  endfacet
  facet normal 0 0 1
    outer loop
      vertex -4.46197 -5.39359 0
      vertex -2.39034 -2.88942 0
      vertex -2.73363 -2.56705 0
    endloop
  endfacet
  facet normal 0 0 1
    outer loop
      vertex -1.59667 -3.3931 0
      vertex -2.98045 -6.33379 0
      vertex -2.16312 -6.6574 0
    endloop
  endfacet
  facet normal 0 0 1
    outer loop
      vertex -5.10278 -4.79183 0
      vertex -2.73363 -2.56705 0
      vertex -3.03381 -2.20419 0
    endloop
  endfacet
  facet normal 0 0 1
    outer loop
      vertex -5.66312 -4.1145 0
      vertex -3.03381 -2.20419 0
      vertex -3.28615 -1.80658 0
    endloop
  endfacet
  facet normal 0 0 1
    outer loop
      vertex -6.13415 -3.37228 0
      vertex -3.28615 -1.80658 0
      vertex -3.48666 -1.38047 0
    endloop
  endfacet
  facet normal 0 0 1
    outer loop
      vertex -6.50844 -2.57687 0
      vertex -3.48666 -1.38047 0
      vertex -3.63219 -0.932587 0
    endloop
  endfacet
  facet normal 0 0 1
    outer loop
      vertex -6.78008 -1.74083 0
      vertex -3.63219 -0.932587 0
      vertex -3.72043 -0.469999 0
    endloop
  endfacet
  facet normal 0 0 1
    outer loop
      vertex -2.00935 -3.16623 0
      vertex -3.75079 -5.91029 0
      vertex -2.98045 -6.33379 0
    endloop
  endfacet
  facet normal 0 0 1
    outer loop
      vertex -6.9448 -0.877332 0
      vertex -3.72043 -0.469999 0
      vertex -3.75 0 0
    endloop
  endfacet
  facet normal 0 0 1
    outer loop
      vertex -3.28615 1.80658 0
      vertex -6.13415 3.37228 0
      vertex -3.48666 1.38047 0
    endloop
  endfacet
  facet normal -0 0 1
    outer loop
      vertex -6.50844 2.57687 0
      vertex -3.48666 1.38047 0
      vertex -6.13415 3.37228 0
    endloop
  endfacet
  facet normal 0 0 1
    outer loop
      vertex -2.39034 -2.88942 0
      vertex -4.46197 -5.39359 0
      vertex -3.75079 -5.91029 0
    endloop
  endfacet
  facet normal 0 0 1
    outer loop
      vertex -3.48666 1.38047 0
      vertex -6.50844 2.57687 0
      vertex -3.63219 0.932587 0
    endloop
  endfacet
  facet normal 0 0 1
    outer loop
      vertex -2.73363 -2.56705 0
      vertex -5.10278 -4.79183 0
      vertex -4.46197 -5.39359 0
    endloop
  endfacet
  facet normal -0 0 1
    outer loop
      vertex -6.78008 1.74083 0
      vertex -3.63219 0.932587 0
      vertex -6.50844 2.57687 0
    endloop
  endfacet
  facet normal 0 0 1
    outer loop
      vertex -3.03381 -2.20419 0
      vertex -5.66312 -4.1145 0
      vertex -5.10278 -4.79183 0
    endloop
  endfacet
  facet normal 0 0 1
    outer loop
      vertex -3.63219 0.932587 0
      vertex -6.78008 1.74083 0
      vertex -3.72043 0.469999 0
    endloop
  endfacet
  facet normal 0 0 1
    outer loop
      vertex -3.28615 -1.80658 0
      vertex -6.13415 -3.37228 0
      vertex -5.66312 -4.1145 0
    endloop
  endfacet
  facet normal -0 0 1
    outer loop
      vertex -6.9448 0.877332 0
      vertex -3.72043 0.469999 0
      vertex -6.78008 1.74083 0
    endloop
  endfacet
  facet normal 0 0 1
    outer loop
      vertex -3.48666 -1.38047 0
      vertex -6.50844 -2.57687 0
      vertex -6.13415 -3.37228 0
    endloop
  endfacet
  facet normal 0 0 1
    outer loop
      vertex -3.72043 0.469999 0
      vertex -6.9448 0.877332 0
      vertex -3.75 0 0
    endloop
  endfacet
  facet normal 0 0 1
    outer loop
      vertex -3.63219 -0.932587 0
      vertex -6.78008 -1.74083 0
      vertex -6.50844 -2.57687 0
    endloop
  endfacet
  facet normal 0 0 1
    outer loop
      vertex -7 0 0
      vertex -3.75 0 0
      vertex -6.9448 0.877332 0
    endloop
  endfacet
  facet normal 0 0 1
    outer loop
      vertex -3.72043 -0.469999 0
      vertex -6.9448 -0.877332 0
      vertex -6.78008 -1.74083 0
    endloop
  endfacet
  facet normal 0 0 1
    outer loop
      vertex -3.75 0 0
      vertex -7 0 0
      vertex -6.9448 -0.877332 0
    endloop
  endfacet
  facet normal 0 0 -1
    outer loop
      vertex 2.125 0 -90
      vertex 7 0 -90
      vertex 6.9448 -0.877332 -90
    endloop
  endfacet
  facet normal 0 0 -1
    outer loop
      vertex 2.10824 -0.266333 -90
      vertex 6.9448 -0.877332 -90
      vertex 6.78008 -1.74083 -90
    endloop
  endfacet
  facet normal 0 0 -1
    outer loop
      vertex 7 0 -90
      vertex 2.125 0 -90
      vertex 6.9448 0.877332 -90
    endloop
  endfacet
  facet normal 0 0 -1
    outer loop
      vertex 2.05824 -0.528465 -90
      vertex 6.78008 -1.74083 -90
      vertex 6.50844 -2.57687 -90
    endloop
  endfacet
  facet normal 0 0 -1
    outer loop
      vertex 2.10824 0.266333 -90
      vertex 6.9448 0.877332 -90
      vertex 2.125 0 -90
    endloop
  endfacet
  facet normal 0 0 -1
    outer loop
      vertex 1.97577 -0.782264 -90
      vertex 6.50844 -2.57687 -90
      vertex 6.13415 -3.37228 -90
    endloop
  endfacet
  facet normal -0 0 -1
    outer loop
      vertex 6.9448 0.877332 -90
      vertex 2.10824 0.266333 -90
      vertex 6.78008 1.74083 -90
    endloop
  endfacet
  facet normal 0 0 -1
    outer loop
      vertex 1.86215 -1.02373 -90
      vertex 6.13415 -3.37228 -90
      vertex 5.66312 -4.1145 -90
    endloop
  endfacet
  facet normal 0 0 -1
    outer loop
      vertex 2.05824 0.528465 -90
      vertex 6.78008 1.74083 -90
      vertex 2.10824 0.266333 -90
    endloop
  endfacet
  facet normal 0 0 -1
    outer loop
      vertex 1.71916 -1.24904 -90
      vertex 5.66312 -4.1145 -90
      vertex 5.10278 -4.79183 -90
    endloop
  endfacet
  facet normal -0 0 -1
    outer loop
      vertex 6.78008 1.74083 -90
      vertex 2.05824 0.528465 -90
      vertex 6.50844 2.57687 -90
    endloop
  endfacet
  facet normal 0 0 -1
    outer loop
      vertex 1.54906 -1.45466 -90
      vertex 5.10278 -4.79183 -90
      vertex 4.46197 -5.39359 -90
    endloop
  endfacet
  facet normal 0 0 -1
    outer loop
      vertex 1.97577 0.782264 -90
      vertex 6.50844 2.57687 -90
      vertex 2.05824 0.528465 -90
    endloop
  endfacet
  facet normal 0 0 -1
    outer loop
      vertex 1.35453 -1.63734 -90
      vertex 4.46197 -5.39359 -90
      vertex 3.75079 -5.91029 -90
    endloop
  endfacet
  facet normal -0 0 -1
    outer loop
      vertex 6.50844 2.57687 -90
      vertex 1.97577 0.782264 -90
      vertex 6.13415 3.37228 -90
    endloop
  endfacet
  facet normal 0 0 -1
    outer loop
      vertex 1.13863 -1.7942 -90
      vertex 3.75079 -5.91029 -90
      vertex 2.98045 -6.33379 -90
    endloop
  endfacet
  facet normal 0 0 -1
    outer loop
      vertex 1.86215 1.02373 -90
      vertex 6.13415 3.37228 -90
      vertex 1.97577 0.782264 -90
    endloop
  endfacet
  facet normal 0 0 -1
    outer loop
      vertex 0.90478 -1.92276 -90
      vertex 2.98045 -6.33379 -90
      vertex 2.16312 -6.6574 -90
    endloop
  endfacet
  facet normal -0 0 -1
    outer loop
      vertex 6.13415 3.37228 -90
      vertex 1.86215 1.02373 -90
      vertex 5.66312 4.1145 -90
    endloop
  endfacet
  facet normal 0 0 -1
    outer loop
      vertex 1.71916 1.24904 -90
      vertex 5.66312 4.1145 -90
      vertex 1.86215 1.02373 -90
    endloop
  endfacet
  facet normal 0 0 -1
    outer loop
      vertex 6.9448 -0.877332 -90
      vertex 2.10824 -0.266333 -90
      vertex 2.125 0 -90
    endloop
  endfacet
  facet normal 0 0 -1
    outer loop
      vertex 6.78008 -1.74083 -90
      vertex 2.05824 -0.528465 -90
      vertex 2.10824 -0.266333 -90
    endloop
  endfacet
  facet normal 0 0 -1
    outer loop
      vertex 6.50844 -2.57687 -90
      vertex 1.97577 -0.782264 -90
      vertex 2.05824 -0.528465 -90
    endloop
  endfacet
  facet normal 0 0 -1
    outer loop
      vertex 6.13415 -3.37228 -90
      vertex 1.86215 -1.02373 -90
      vertex 1.97577 -0.782264 -90
    endloop
  endfacet
  facet normal 0 0 -1
    outer loop
      vertex 5.66312 -4.1145 -90
      vertex 1.71916 -1.24904 -90
      vertex 1.86215 -1.02373 -90
    endloop
  endfacet
  facet normal 0 0 -1
    outer loop
      vertex 5.10278 -4.79183 -90
      vertex 1.54906 -1.45466 -90
      vertex 1.71916 -1.24904 -90
    endloop
  endfacet
  facet normal 0 0 -1
    outer loop
      vertex 4.46197 -5.39359 -90
      vertex 1.35453 -1.63734 -90
      vertex 1.54906 -1.45466 -90
    endloop
  endfacet
  facet normal 0 0 -1
    outer loop
      vertex 0.656661 -2.02099 -90
      vertex 2.16312 -6.6574 -90
      vertex 1.31167 -6.87601 -90
    endloop
  endfacet
  facet normal 0 0 -1
    outer loop
      vertex 3.75079 -5.91029 -90
      vertex 1.13863 -1.7942 -90
      vertex 1.35453 -1.63734 -90
    endloop
  endfacet
  facet normal 0 0 -1
    outer loop
      vertex 2.98045 -6.33379 -90
      vertex 0.90478 -1.92276 -90
      vertex 1.13863 -1.7942 -90
    endloop
  endfacet
  facet normal 0 0 -1
    outer loop
      vertex 2.16312 -6.6574 -90
      vertex 0.656661 -2.02099 -90
      vertex 0.90478 -1.92276 -90
    endloop
  endfacet
  facet normal 0 0 -1
    outer loop
      vertex 0.398185 -2.08736 -90
      vertex 1.31167 -6.87601 -90
      vertex 0.439533 -6.98619 -90
    endloop
  endfacet
  facet normal 0 0 -1
    outer loop
      vertex 1.31167 -6.87601 -90
      vertex 0.398185 -2.08736 -90
      vertex 0.656661 -2.02099 -90
    endloop
  endfacet
  facet normal 0 0 -1
    outer loop
      vertex 0.439533 -6.98619 -90
      vertex 0.13343 -2.12081 -90
      vertex 0.398185 -2.08736 -90
    endloop
  endfacet
  facet normal 0 0 -1
    outer loop
      vertex 0.439533 -6.98619 -90
      vertex -0.13343 -2.12081 -90
      vertex 0.13343 -2.12081 -90
    endloop
  endfacet
  facet normal 0 0 -1
    outer loop
      vertex -0.439533 -6.98619 -90
      vertex -0.13343 -2.12081 -90
      vertex 0.439533 -6.98619 -90
    endloop
  endfacet
  facet normal -0 0 -1
    outer loop
      vertex -0.13343 -2.12081 -90
      vertex -0.439533 -6.98619 -90
      vertex -0.398185 -2.08736 -90
    endloop
  endfacet
  facet normal 0 0 -1
    outer loop
      vertex -1.31167 -6.87601 -90
      vertex -0.398185 -2.08736 -90
      vertex -0.439533 -6.98619 -90
    endloop
  endfacet
  facet normal -0 0 -1
    outer loop
      vertex -0.398185 -2.08736 -90
      vertex -1.31167 -6.87601 -90
      vertex -0.656661 -2.02099 -90
    endloop
  endfacet
  facet normal 0 0 -1
    outer loop
      vertex -2.16312 -6.6574 -90
      vertex -0.656661 -2.02099 -90
      vertex -1.31167 -6.87601 -90
    endloop
  endfacet
  facet normal -0 0 -1
    outer loop
      vertex -0.656661 -2.02099 -90
      vertex -2.16312 -6.6574 -90
      vertex -0.90478 -1.92276 -90
    endloop
  endfacet
  facet normal 0 0 -1
    outer loop
      vertex -2.98045 -6.33379 -90
      vertex -0.90478 -1.92276 -90
      vertex -2.16312 -6.6574 -90
    endloop
  endfacet
  facet normal -0 0 -1
    outer loop
      vertex -0.90478 -1.92276 -90
      vertex -2.98045 -6.33379 -90
      vertex -1.13863 -1.7942 -90
    endloop
  endfacet
  facet normal 0 0 -1
    outer loop
      vertex -3.75079 -5.91029 -90
      vertex -1.13863 -1.7942 -90
      vertex -2.98045 -6.33379 -90
    endloop
  endfacet
  facet normal -0 0 -1
    outer loop
      vertex -1.13863 -1.7942 -90
      vertex -3.75079 -5.91029 -90
      vertex -1.35453 -1.63734 -90
    endloop
  endfacet
  facet normal 0 0 -1
    outer loop
      vertex -4.46197 -5.39359 -90
      vertex -1.35453 -1.63734 -90
      vertex -3.75079 -5.91029 -90
    endloop
  endfacet
  facet normal -0 0 -1
    outer loop
      vertex -1.35453 -1.63734 -90
      vertex -4.46197 -5.39359 -90
      vertex -1.54906 -1.45466 -90
    endloop
  endfacet
  facet normal 0 0 -1
    outer loop
      vertex -5.10278 -4.79183 -90
      vertex -1.54906 -1.45466 -90
      vertex -4.46197 -5.39359 -90
    endloop
  endfacet
  facet normal 0 0 -1
    outer loop
      vertex -5.66312 -4.1145 -90
      vertex -1.71916 -1.24904 -90
      vertex -5.10278 -4.79183 -90
    endloop
  endfacet
  facet normal -0 0 -1
    outer loop
      vertex -1.54906 -1.45466 -90
      vertex -5.10278 -4.79183 -90
      vertex -1.71916 -1.24904 -90
    endloop
  endfacet
  facet normal -0 0 -1
    outer loop
      vertex 5.66312 4.1145 -90
      vertex 1.71916 1.24904 -90
      vertex 5.10278 4.79183 -90
    endloop
  endfacet
  facet normal 0 0 -1
    outer loop
      vertex 1.54906 1.45466 -90
      vertex 5.10278 4.79183 -90
      vertex 1.71916 1.24904 -90
    endloop
  endfacet
  facet normal -0 0 -1
    outer loop
      vertex 5.10278 4.79183 -90
      vertex 1.54906 1.45466 -90
      vertex 4.46197 5.39359 -90
    endloop
  endfacet
  facet normal 0 0 -1
    outer loop
      vertex 1.35453 1.63734 -90
      vertex 4.46197 5.39359 -90
      vertex 1.54906 1.45466 -90
    endloop
  endfacet
  facet normal -0 0 -1
    outer loop
      vertex 4.46197 5.39359 -90
      vertex 1.35453 1.63734 -90
      vertex 3.75079 5.91029 -90
    endloop
  endfacet
  facet normal 0 0 -1
    outer loop
      vertex 1.13863 1.7942 -90
      vertex 3.75079 5.91029 -90
      vertex 1.35453 1.63734 -90
    endloop
  endfacet
  facet normal -0 0 -1
    outer loop
      vertex 3.75079 5.91029 -90
      vertex 1.13863 1.7942 -90
      vertex 2.98045 6.33379 -90
    endloop
  endfacet
  facet normal 0 0 -1
    outer loop
      vertex 0.90478 1.92276 -90
      vertex 2.98045 6.33379 -90
      vertex 1.13863 1.7942 -90
    endloop
  endfacet
  facet normal -0 0 -1
    outer loop
      vertex 2.98045 6.33379 -90
      vertex 0.90478 1.92276 -90
      vertex 2.16312 6.6574 -90
    endloop
  endfacet
  facet normal 0 0 -1
    outer loop
      vertex 0.656661 2.02099 -90
      vertex 2.16312 6.6574 -90
      vertex 0.90478 1.92276 -90
    endloop
  endfacet
  facet normal -0 0 -1
    outer loop
      vertex 2.16312 6.6574 -90
      vertex 0.656661 2.02099 -90
      vertex 1.31167 6.87601 -90
    endloop
  endfacet
  facet normal 0 0 -1
    outer loop
      vertex 0.398185 2.08736 -90
      vertex 1.31167 6.87601 -90
      vertex 0.656661 2.02099 -90
    endloop
  endfacet
  facet normal -0 0 -1
    outer loop
      vertex 1.31167 6.87601 -90
      vertex 0.398185 2.08736 -90
      vertex 0.439533 6.98619 -90
    endloop
  endfacet
  facet normal 0 0 -1
    outer loop
      vertex 0.13343 2.12081 -90
      vertex 0.439533 6.98619 -90
      vertex 0.398185 2.08736 -90
    endloop
  endfacet
  facet normal 0 0 -1
    outer loop
      vertex -0.13343 2.12081 -90
      vertex 0.439533 6.98619 -90
      vertex 0.13343 2.12081 -90
    endloop
  endfacet
  facet normal 0 0 -1
    outer loop
      vertex -0.439533 6.98619 -90
      vertex -0.13343 2.12081 -90
      vertex -0.398185 2.08736 -90
    endloop
  endfacet
  facet normal 0 0 -1
    outer loop
      vertex -0.13343 2.12081 -90
      vertex -0.439533 6.98619 -90
      vertex 0.439533 6.98619 -90
    endloop
  endfacet
  facet normal 0 0 -1
    outer loop
      vertex -1.31167 6.87601 -90
      vertex -0.398185 2.08736 -90
      vertex -0.656661 2.02099 -90
    endloop
  endfacet
  facet normal 0 0 -1
    outer loop
      vertex -2.16312 6.6574 -90
      vertex -0.656661 2.02099 -90
      vertex -0.90478 1.92276 -90
    endloop
  endfacet
  facet normal 0 0 -1
    outer loop
      vertex -2.98045 6.33379 -90
      vertex -0.90478 1.92276 -90
      vertex -1.13863 1.7942 -90
    endloop
  endfacet
  facet normal 0 0 -1
    outer loop
      vertex -0.398185 2.08736 -90
      vertex -1.31167 6.87601 -90
      vertex -0.439533 6.98619 -90
    endloop
  endfacet
  facet normal 0 0 -1
    outer loop
      vertex -3.75079 5.91029 -90
      vertex -1.13863 1.7942 -90
      vertex -1.35453 1.63734 -90
    endloop
  endfacet
  facet normal 0 0 -1
    outer loop
      vertex -4.46197 5.39359 -90
      vertex -1.35453 1.63734 -90
      vertex -1.54906 1.45466 -90
    endloop
  endfacet
  facet normal 0 0 -1
    outer loop
      vertex -5.10278 4.79183 -90
      vertex -1.54906 1.45466 -90
      vertex -1.71916 1.24904 -90
    endloop
  endfacet
  facet normal 0 0 -1
    outer loop
      vertex -5.66312 4.1145 -90
      vertex -1.71916 1.24904 -90
      vertex -1.86215 1.02373 -90
    endloop
  endfacet
  facet normal 0 0 -1
    outer loop
      vertex -6.13415 3.37228 -90
      vertex -1.86215 1.02373 -90
      vertex -1.97577 0.782264 -90
    endloop
  endfacet
  facet normal 0 0 -1
    outer loop
      vertex -6.50844 2.57687 -90
      vertex -1.97577 0.782264 -90
      vertex -2.05824 0.528465 -90
    endloop
  endfacet
  facet normal 0 0 -1
    outer loop
      vertex -6.78008 1.74083 -90
      vertex -2.05824 0.528465 -90
      vertex -2.10824 0.266333 -90
    endloop
  endfacet
  facet normal 0 0 -1
    outer loop
      vertex -0.656661 2.02099 -90
      vertex -2.16312 6.6574 -90
      vertex -1.31167 6.87601 -90
    endloop
  endfacet
  facet normal 0 0 -1
    outer loop
      vertex -6.9448 0.877332 -90
      vertex -2.10824 0.266333 -90
      vertex -2.125 0 -90
    endloop
  endfacet
  facet normal -0 0 -1
    outer loop
      vertex -1.71916 -1.24904 -90
      vertex -5.66312 -4.1145 -90
      vertex -1.86215 -1.02373 -90
    endloop
  endfacet
  facet normal 0 0 -1
    outer loop
      vertex -6.13415 -3.37228 -90
      vertex -1.86215 -1.02373 -90
      vertex -5.66312 -4.1145 -90
    endloop
  endfacet
  facet normal 0 0 -1
    outer loop
      vertex -0.90478 1.92276 -90
      vertex -2.98045 6.33379 -90
      vertex -2.16312 6.6574 -90
    endloop
  endfacet
  facet normal -0 0 -1
    outer loop
      vertex -1.86215 -1.02373 -90
      vertex -6.13415 -3.37228 -90
      vertex -1.97577 -0.782264 -90
    endloop
  endfacet
  facet normal 0 0 -1
    outer loop
      vertex -1.13863 1.7942 -90
      vertex -3.75079 5.91029 -90
      vertex -2.98045 6.33379 -90
    endloop
  endfacet
  facet normal 0 0 -1
    outer loop
      vertex -6.50844 -2.57687 -90
      vertex -1.97577 -0.782264 -90
      vertex -6.13415 -3.37228 -90
    endloop
  endfacet
  facet normal 0 0 -1
    outer loop
      vertex -1.35453 1.63734 -90
      vertex -4.46197 5.39359 -90
      vertex -3.75079 5.91029 -90
    endloop
  endfacet
  facet normal -0 0 -1
    outer loop
      vertex -1.97577 -0.782264 -90
      vertex -6.50844 -2.57687 -90
      vertex -2.05824 -0.528465 -90
    endloop
  endfacet
  facet normal 0 0 -1
    outer loop
      vertex -1.54906 1.45466 -90
      vertex -5.10278 4.79183 -90
      vertex -4.46197 5.39359 -90
    endloop
  endfacet
  facet normal 0 0 -1
    outer loop
      vertex -6.78008 -1.74083 -90
      vertex -2.05824 -0.528465 -90
      vertex -6.50844 -2.57687 -90
    endloop
  endfacet
  facet normal 0 0 -1
    outer loop
      vertex -1.71916 1.24904 -90
      vertex -5.66312 4.1145 -90
      vertex -5.10278 4.79183 -90
    endloop
  endfacet
  facet normal -0 0 -1
    outer loop
      vertex -2.05824 -0.528465 -90
      vertex -6.78008 -1.74083 -90
      vertex -2.10824 -0.266333 -90
    endloop
  endfacet
  facet normal 0 0 -1
    outer loop
      vertex -1.86215 1.02373 -90
      vertex -6.13415 3.37228 -90
      vertex -5.66312 4.1145 -90
    endloop
  endfacet
  facet normal 0 0 -1
    outer loop
      vertex -6.9448 -0.877332 -90
      vertex -2.10824 -0.266333 -90
      vertex -6.78008 -1.74083 -90
    endloop
  endfacet
  facet normal 0 0 -1
    outer loop
      vertex -1.97577 0.782264 -90
      vertex -6.50844 2.57687 -90
      vertex -6.13415 3.37228 -90
    endloop
  endfacet
  facet normal -0 0 -1
    outer loop
      vertex -2.10824 -0.266333 -90
      vertex -6.9448 -0.877332 -90
      vertex -2.125 0 -90
    endloop
  endfacet
  facet normal 0 0 -1
    outer loop
      vertex -2.05824 0.528465 -90
      vertex -6.78008 1.74083 -90
      vertex -6.50844 2.57687 -90
    endloop
  endfacet
  facet normal 0 0 -1
    outer loop
      vertex -7 0 -90
      vertex -2.125 0 -90
      vertex -6.9448 -0.877332 -90
    endloop
  endfacet
  facet normal 0 0 -1
    outer loop
      vertex -2.10824 0.266333 -90
      vertex -6.9448 0.877332 -90
      vertex -6.78008 1.74083 -90
    endloop
  endfacet
  facet normal 0 0 -1
    outer loop
      vertex -2.125 0 -90
      vertex -7 0 -90
      vertex -6.9448 0.877332 -90
    endloop
  endfacet
  facet normal -0.110248 0.87275 0.475555
    outer loop
      vertex 0.235464 -3.7426 0
      vertex 0.70268 -3.68358 0
      vertex 0.13343 -2.12081 -3
    endloop
  endfacet
  facet normal -0.87795 -0.0552362 0.475556
    outer loop
      vertex 3.75 0 0
      vertex 3.72043 0.469999 0
      vertex 2.125 0 -3
    endloop
  endfacet
  facet normal -0.877948 -0.0552482 0.475557
    outer loop
      vertex 2.125 0 -3
      vertex 3.72043 0.469999 0
      vertex 2.10824 0.266333 -3
    endloop
  endfacet
  facet normal -0.877948 0.0552482 0.475557
    outer loop
      vertex 3.72043 -0.469999 0
      vertex 2.125 0 -3
      vertex 2.10824 -0.266333 -3
    endloop
  endfacet
  facet normal 0.864106 0.164823 0.475557
    outer loop
      vertex -2.05824 -0.528465 -3
      vertex -2.10824 -0.266333 -3
      vertex -3.72043 -0.469999 0
    endloop
  endfacet
  facet normal 0.218779 -0.852046 0.475556
    outer loop
      vertex -0.398185 2.08736 -3
      vertex -0.70268 3.68358 0
      vertex -1.15881 3.56646 0
    endloop
  endfacet
  facet normal -0.864105 0.16483 0.475556
    outer loop
      vertex 3.63219 -0.932587 0
      vertex 3.72043 -0.469999 0
      vertex 2.05824 -0.528465 -3
    endloop
  endfacet
  facet normal -0.677816 0.560726 0.475555
    outer loop
      vertex 2.73363 -2.56705 0
      vertex 1.71916 -1.24904 -3
      vertex 1.54906 -1.45466 -3
    endloop
  endfacet
  facet normal -0.423788 0.770877 0.475555
    outer loop
      vertex 1.59667 -3.3931 0
      vertex 2.00935 -3.16623 0
      vertex 0.90478 -1.92276 -3
    endloop
  endfacet
  facet normal -0.323832 0.817912 0.475555
    outer loop
      vertex 1.15881 -3.56646 0
      vertex 1.59667 -3.3931 0
      vertex 0.90478 -1.92276 -3
    endloop
  endfacet
  facet normal -0.517072 0.711677 0.475555
    outer loop
      vertex 2.00935 -3.16623 0
      vertex 2.39034 -2.88942 0
      vertex 1.35453 -1.63734 -3
    endloop
  endfacet
  facet normal -0.602186 0.641264 0.475556
    outer loop
      vertex 2.39034 -2.88942 0
      vertex 2.73363 -2.56705 0
      vertex 1.54906 -1.45466 -3
    endloop
  endfacet
  facet normal 0.517072 0.711677 0.475555
    outer loop
      vertex -2.00935 -3.16623 0
      vertex -1.35453 -1.63734 -3
      vertex -2.39034 -2.88942 0
    endloop
  endfacet
  facet normal 0.742735 -0.471371 0.475556
    outer loop
      vertex -1.71916 1.24904 -3
      vertex -3.03381 2.20419 0
      vertex -3.28615 1.80658 0
    endloop
  endfacet
  facet normal -0.836628 0.271844 0.475556
    outer loop
      vertex 3.48666 -1.38047 0
      vertex 3.63219 -0.932587 0
      vertex 2.05824 -0.528465 -3
    endloop
  endfacet
  facet normal -0.87795 0.0552362 0.475556
    outer loop
      vertex 3.72043 -0.469999 0
      vertex 3.75 0 0
      vertex 2.125 0 -3
    endloop
  endfacet
  facet normal -0.836624 0.271855 0.475557
    outer loop
      vertex 3.48666 -1.38047 0
      vertex 2.05824 -0.528465 -3
      vertex 1.97577 -0.782264 -3
    endloop
  endfacet
  facet normal -0.795964 0.374548 0.475557
    outer loop
      vertex 3.28615 -1.80658 0
      vertex 3.48666 -1.38047 0
      vertex 1.97577 -0.782264 -3
    endloop
  endfacet
  facet normal -0.323813 0.817919 0.475557
    outer loop
      vertex 1.15881 -3.56646 0
      vertex 0.90478 -1.92276 -3
      vertex 0.656661 -2.02099 -3
    endloop
  endfacet
  facet normal -0.218783 0.852044 0.475557
    outer loop
      vertex 1.15881 -3.56646 0
      vertex 0.656661 -2.02099 -3
      vertex 0.398185 -2.08736 -3
    endloop
  endfacet
  facet normal -0.602194 0.641257 0.475554
    outer loop
      vertex 2.39034 -2.88942 0
      vertex 1.54906 -1.45466 -3
      vertex 1.35453 -1.63734 -3
    endloop
  endfacet
  facet normal -0.742737 -0.471368 0.475556
    outer loop
      vertex 1.86215 1.02373 -3
      vertex 3.28615 1.80658 0
      vertex 1.71916 1.24904 -3
    endloop
  endfacet
  facet normal -0.423788 -0.770877 0.475555
    outer loop
      vertex 2.00935 3.16623 0
      vertex 1.59667 3.3931 0
      vertex 0.90478 1.92276 -3
    endloop
  endfacet
  facet normal 0.677813 -0.560728 0.475556
    outer loop
      vertex -1.71916 1.24904 -3
      vertex -2.73363 2.56705 0
      vertex -3.03381 2.20419 0
    endloop
  endfacet
  facet normal 0.79597 -0.374538 0.475556
    outer loop
      vertex -1.97577 0.782264 -3
      vertex -1.86215 1.02373 -3
      vertex -3.28615 1.80658 0
    endloop
  endfacet
  facet normal -0.864106 0.164823 0.475557
    outer loop
      vertex 3.72043 -0.469999 0
      vertex 2.10824 -0.266333 -3
      vertex 2.05824 -0.528465 -3
    endloop
  endfacet
  facet normal -0.79597 0.374538 0.475556
    outer loop
      vertex 3.28615 -1.80658 0
      vertex 1.97577 -0.782264 -3
      vertex 1.86215 -1.02373 -3
    endloop
  endfacet
  facet normal -0.742737 0.471368 0.475556
    outer loop
      vertex 3.28615 -1.80658 0
      vertex 1.86215 -1.02373 -3
      vertex 1.71916 -1.24904 -3
    endloop
  endfacet
  facet normal -0.218779 0.852046 0.475556
    outer loop
      vertex 0.70268 -3.68358 0
      vertex 1.15881 -3.56646 0
      vertex 0.398185 -2.08736 -3
    endloop
  endfacet
  facet normal -0.110266 0.872747 0.475557
    outer loop
      vertex 0.70268 -3.68358 0
      vertex 0.398185 -2.08736 -3
      vertex 0.13343 -2.12081 -3
    endloop
  endfacet
  facet normal -0.517065 0.711681 0.475556
    outer loop
      vertex 2.00935 -3.16623 0
      vertex 1.35453 -1.63734 -3
      vertex 1.13863 -1.7942 -3
    endloop
  endfacet
  facet normal 0.864105 0.16483 0.475556
    outer loop
      vertex -3.63219 -0.932587 0
      vertex -2.05824 -0.528465 -3
      vertex -3.72043 -0.469999 0
    endloop
  endfacet
  facet normal 0.423788 0.770877 0.475555
    outer loop
      vertex -1.59667 -3.3931 0
      vertex -0.90478 -1.92276 -3
      vertex -2.00935 -3.16623 0
    endloop
  endfacet
  facet normal 0.218779 0.852046 0.475556
    outer loop
      vertex -0.70268 -3.68358 0
      vertex -0.398185 -2.08736 -3
      vertex -1.15881 -3.56646 0
    endloop
  endfacet
  facet normal 0.517065 0.711681 0.475556
    outer loop
      vertex -1.13863 -1.7942 -3
      vertex -1.35453 -1.63734 -3
      vertex -2.00935 -3.16623 0
    endloop
  endfacet
  facet normal 0.742735 0.471371 0.475556
    outer loop
      vertex -3.03381 -2.20419 0
      vertex -1.71916 -1.24904 -3
      vertex -3.28615 -1.80658 0
    endloop
  endfacet
  facet normal 0.677813 0.560728 0.475556
    outer loop
      vertex -2.73363 -2.56705 0
      vertex -1.71916 -1.24904 -3
      vertex -3.03381 -2.20419 0
    endloop
  endfacet
  facet normal -0.517065 -0.711681 0.475556
    outer loop
      vertex 1.35453 1.63734 -3
      vertex 2.00935 3.16623 0
      vertex 1.13863 1.7942 -3
    endloop
  endfacet
  facet normal -0.110266 -0.872747 0.475557
    outer loop
      vertex 0.398185 2.08736 -3
      vertex 0.70268 3.68358 0
      vertex 0.13343 2.12081 -3
    endloop
  endfacet
  facet normal 0.742737 -0.471368 0.475556
    outer loop
      vertex -1.86215 1.02373 -3
      vertex -1.71916 1.24904 -3
      vertex -3.28615 1.80658 0
    endloop
  endfacet
  facet normal 0.517072 -0.711677 0.475555
    outer loop
      vertex -1.35453 1.63734 -3
      vertex -2.00935 3.16623 0
      vertex -2.39034 2.88942 0
    endloop
  endfacet
  facet normal 0.423788 -0.770877 0.475555
    outer loop
      vertex -0.90478 1.92276 -3
      vertex -1.59667 3.3931 0
      vertex -2.00935 3.16623 0
    endloop
  endfacet
  facet normal 0.323813 -0.817919 0.475557
    outer loop
      vertex -0.90478 1.92276 -3
      vertex -0.656661 2.02099 -3
      vertex -1.15881 3.56646 0
    endloop
  endfacet
  facet normal -0.742735 0.471371 0.475556
    outer loop
      vertex 3.03381 -2.20419 0
      vertex 3.28615 -1.80658 0
      vertex 1.71916 -1.24904 -3
    endloop
  endfacet
  facet normal -0.677813 0.560728 0.475556
    outer loop
      vertex 2.73363 -2.56705 0
      vertex 3.03381 -2.20419 0
      vertex 1.71916 -1.24904 -3
    endloop
  endfacet
  facet normal -0.423791 0.770875 0.475556
    outer loop
      vertex 2.00935 -3.16623 0
      vertex 1.13863 -1.7942 -3
      vertex 0.90478 -1.92276 -3
    endloop
  endfacet
  facet normal 0.836624 0.271855 0.475557
    outer loop
      vertex -1.97577 -0.782264 -3
      vertex -2.05824 -0.528465 -3
      vertex -3.48666 -1.38047 0
    endloop
  endfacet
  facet normal 0.795964 0.374548 0.475557
    outer loop
      vertex -3.28615 -1.80658 0
      vertex -1.97577 -0.782264 -3
      vertex -3.48666 -1.38047 0
    endloop
  endfacet
  facet normal 0.423791 0.770875 0.475556
    outer loop
      vertex -0.90478 -1.92276 -3
      vertex -1.13863 -1.7942 -3
      vertex -2.00935 -3.16623 0
    endloop
  endfacet
  facet normal 0.218783 0.852044 0.475557
    outer loop
      vertex -0.398185 -2.08736 -3
      vertex -0.656661 -2.02099 -3
      vertex -1.15881 -3.56646 0
    endloop
  endfacet
  facet normal 0.323832 0.817912 0.475555
    outer loop
      vertex -1.15881 -3.56646 0
      vertex -0.90478 -1.92276 -3
      vertex -1.59667 -3.3931 0
    endloop
  endfacet
  facet normal 0.602194 0.641257 0.475554
    outer loop
      vertex -1.35453 -1.63734 -3
      vertex -1.54906 -1.45466 -3
      vertex -2.39034 -2.88942 0
    endloop
  endfacet
  facet normal -0.677813 -0.560728 0.475556
    outer loop
      vertex 3.03381 2.20419 0
      vertex 2.73363 2.56705 0
      vertex 1.71916 1.24904 -3
    endloop
  endfacet
  facet normal -0.517072 -0.711677 0.475555
    outer loop
      vertex 2.39034 2.88942 0
      vertex 2.00935 3.16623 0
      vertex 1.35453 1.63734 -3
    endloop
  endfacet
  facet normal -0.110248 -0.87275 0.475555
    outer loop
      vertex 0.70268 3.68358 0
      vertex 0.235464 3.7426 0
      vertex 0.13343 2.12081 -3
    endloop
  endfacet
  facet normal -0.218783 -0.852044 0.475557
    outer loop
      vertex 0.656661 2.02099 -3
      vertex 1.15881 3.56646 0
      vertex 0.398185 2.08736 -3
    endloop
  endfacet
  facet normal -0.323832 -0.817912 0.475555
    outer loop
      vertex 1.59667 3.3931 0
      vertex 1.15881 3.56646 0
      vertex 0.90478 1.92276 -3
    endloop
  endfacet
  facet normal 0.87795 0.0552362 0.475556
    outer loop
      vertex -3.72043 -0.469999 0
      vertex -2.125 0 -3
      vertex -3.75 0 0
    endloop
  endfacet
  facet normal 0.87795 -0.0552362 0.475556
    outer loop
      vertex -2.125 0 -3
      vertex -3.72043 0.469999 0
      vertex -3.75 0 0
    endloop
  endfacet
  facet normal 0.836628 -0.271844 0.475556
    outer loop
      vertex -2.05824 0.528465 -3
      vertex -3.48666 1.38047 0
      vertex -3.63219 0.932587 0
    endloop
  endfacet
  facet normal 0.677816 -0.560726 0.475555
    outer loop
      vertex -1.71916 1.24904 -3
      vertex -1.54906 1.45466 -3
      vertex -2.73363 2.56705 0
    endloop
  endfacet
  facet normal 0.602186 -0.641264 0.475556
    outer loop
      vertex -1.54906 1.45466 -3
      vertex -2.39034 2.88942 0
      vertex -2.73363 2.56705 0
    endloop
  endfacet
  facet normal 0.517065 -0.711681 0.475556
    outer loop
      vertex -1.35453 1.63734 -3
      vertex -1.13863 1.7942 -3
      vertex -2.00935 3.16623 0
    endloop
  endfacet
  facet normal 0.423791 -0.770875 0.475556
    outer loop
      vertex -1.13863 1.7942 -3
      vertex -0.90478 1.92276 -3
      vertex -2.00935 3.16623 0
    endloop
  endfacet
  facet normal 0.323832 -0.817912 0.475555
    outer loop
      vertex -0.90478 1.92276 -3
      vertex -1.15881 3.56646 0
      vertex -1.59667 3.3931 0
    endloop
  endfacet
  facet normal 0.218783 -0.852044 0.475557
    outer loop
      vertex -0.656661 2.02099 -3
      vertex -0.398185 2.08736 -3
      vertex -1.15881 3.56646 0
    endloop
  endfacet
  facet normal 0.742737 0.471368 0.475556
    outer loop
      vertex -1.71916 -1.24904 -3
      vertex -1.86215 -1.02373 -3
      vertex -3.28615 -1.80658 0
    endloop
  endfacet
  facet normal 0.79597 0.374538 0.475556
    outer loop
      vertex -1.86215 -1.02373 -3
      vertex -1.97577 -0.782264 -3
      vertex -3.28615 -1.80658 0
    endloop
  endfacet
  facet normal 0.836628 0.271844 0.475556
    outer loop
      vertex -3.48666 -1.38047 0
      vertex -2.05824 -0.528465 -3
      vertex -3.63219 -0.932587 0
    endloop
  endfacet
  facet normal 0.323813 0.817919 0.475557
    outer loop
      vertex -0.656661 -2.02099 -3
      vertex -0.90478 -1.92276 -3
      vertex -1.15881 -3.56646 0
    endloop
  endfacet
  facet normal 0.110248 0.87275 0.475555
    outer loop
      vertex -0.235464 -3.7426 0
      vertex -0.13343 -2.12081 -3
      vertex -0.70268 -3.68358 0
    endloop
  endfacet
  facet normal 0 0.879686 0.475555
    outer loop
      vertex 0.13343 -2.12081 -3
      vertex -0.235464 -3.7426 0
      vertex 0.235464 -3.7426 0
    endloop
  endfacet
  facet normal 0 0.879686 0.475555
    outer loop
      vertex -0.235464 -3.7426 0
      vertex 0.13343 -2.12081 -3
      vertex -0.13343 -2.12081 -3
    endloop
  endfacet
  facet normal 0.677816 0.560726 0.475555
    outer loop
      vertex -1.54906 -1.45466 -3
      vertex -1.71916 -1.24904 -3
      vertex -2.73363 -2.56705 0
    endloop
  endfacet
  facet normal 0.602186 0.641264 0.475556
    outer loop
      vertex -2.39034 -2.88942 0
      vertex -1.54906 -1.45466 -3
      vertex -2.73363 -2.56705 0
    endloop
  endfacet
  facet normal -0.79597 -0.374538 0.475556
    outer loop
      vertex 1.97577 0.782264 -3
      vertex 3.28615 1.80658 0
      vertex 1.86215 1.02373 -3
    endloop
  endfacet
  facet normal -0.677816 -0.560726 0.475555
    outer loop
      vertex 1.71916 1.24904 -3
      vertex 2.73363 2.56705 0
      vertex 1.54906 1.45466 -3
    endloop
  endfacet
  facet normal -0.742735 -0.471371 0.475556
    outer loop
      vertex 3.28615 1.80658 0
      vertex 3.03381 2.20419 0
      vertex 1.71916 1.24904 -3
    endloop
  endfacet
  facet normal -0.218779 -0.852046 0.475556
    outer loop
      vertex 1.15881 3.56646 0
      vertex 0.70268 3.68358 0
      vertex 0.398185 2.08736 -3
    endloop
  endfacet
  facet normal -0.423791 -0.770875 0.475556
    outer loop
      vertex 1.13863 1.7942 -3
      vertex 2.00935 3.16623 0
      vertex 0.90478 1.92276 -3
    endloop
  endfacet
  facet normal -0.323813 -0.817919 0.475557
    outer loop
      vertex 0.90478 1.92276 -3
      vertex 1.15881 3.56646 0
      vertex 0.656661 2.02099 -3
    endloop
  endfacet
  facet normal 0.864105 -0.16483 0.475556
    outer loop
      vertex -2.05824 0.528465 -3
      vertex -3.63219 0.932587 0
      vertex -3.72043 0.469999 0
    endloop
  endfacet
  facet normal 0.877948 0.0552482 0.475557
    outer loop
      vertex -2.10824 -0.266333 -3
      vertex -2.125 0 -3
      vertex -3.72043 -0.469999 0
    endloop
  endfacet
  facet normal 0.836624 -0.271855 0.475557
    outer loop
      vertex -2.05824 0.528465 -3
      vertex -1.97577 0.782264 -3
      vertex -3.48666 1.38047 0
    endloop
  endfacet
  facet normal 0.795964 -0.374548 0.475557
    outer loop
      vertex -1.97577 0.782264 -3
      vertex -3.28615 1.80658 0
      vertex -3.48666 1.38047 0
    endloop
  endfacet
  facet normal 0.602194 -0.641257 0.475554
    outer loop
      vertex -1.54906 1.45466 -3
      vertex -1.35453 1.63734 -3
      vertex -2.39034 2.88942 0
    endloop
  endfacet
  facet normal 0.110266 0.872747 0.475557
    outer loop
      vertex -0.13343 -2.12081 -3
      vertex -0.398185 -2.08736 -3
      vertex -0.70268 -3.68358 0
    endloop
  endfacet
  facet normal -0.864105 -0.16483 0.475556
    outer loop
      vertex 3.72043 0.469999 0
      vertex 3.63219 0.932587 0
      vertex 2.05824 0.528465 -3
    endloop
  endfacet
  facet normal -0.864106 -0.164823 0.475557
    outer loop
      vertex 2.10824 0.266333 -3
      vertex 3.72043 0.469999 0
      vertex 2.05824 0.528465 -3
    endloop
  endfacet
  facet normal 0.110248 -0.87275 0.475555
    outer loop
      vertex -0.13343 2.12081 -3
      vertex -0.235464 3.7426 0
      vertex -0.70268 3.68358 0
    endloop
  endfacet
  facet normal 0 -0.879686 0.475555
    outer loop
      vertex -0.13343 2.12081 -3
      vertex 0.235464 3.7426 0
      vertex -0.235464 3.7426 0
    endloop
  endfacet
  facet normal 0 -0.879686 0.475555
    outer loop
      vertex 0.235464 3.7426 0
      vertex -0.13343 2.12081 -3
      vertex 0.13343 2.12081 -3
    endloop
  endfacet
  facet normal 0.877948 -0.0552482 0.475557
    outer loop
      vertex -2.125 0 -3
      vertex -2.10824 0.266333 -3
      vertex -3.72043 0.469999 0
    endloop
  endfacet
  facet normal 0.864106 -0.164823 0.475557
    outer loop
      vertex -2.10824 0.266333 -3
      vertex -2.05824 0.528465 -3
      vertex -3.72043 0.469999 0
    endloop
  endfacet
  facet normal -0.836628 -0.271844 0.475556
    outer loop
      vertex 3.63219 0.932587 0
      vertex 3.48666 1.38047 0
      vertex 2.05824 0.528465 -3
    endloop
  endfacet
  facet normal -0.602194 -0.641257 0.475554
    outer loop
      vertex 1.54906 1.45466 -3
      vertex 2.39034 2.88942 0
      vertex 1.35453 1.63734 -3
    endloop
  endfacet
  facet normal -0.602186 -0.641264 0.475556
    outer loop
      vertex 2.73363 2.56705 0
      vertex 2.39034 2.88942 0
      vertex 1.54906 1.45466 -3
    endloop
  endfacet
  facet normal 0.110266 -0.872747 0.475557
    outer loop
      vertex -0.398185 2.08736 -3
      vertex -0.13343 2.12081 -3
      vertex -0.70268 3.68358 0
    endloop
  endfacet
  facet normal -0.795964 -0.374548 0.475557
    outer loop
      vertex 3.48666 1.38047 0
      vertex 3.28615 1.80658 0
      vertex 1.97577 0.782264 -3
    endloop
  endfacet
  facet normal -0.836624 -0.271855 0.475557
    outer loop
      vertex 2.05824 0.528465 -3
      vertex 3.48666 1.38047 0
      vertex 1.97577 0.782264 -3
    endloop
  endfacet
  facet normal -0.844321 -0.535837 0
    outer loop
      vertex 1.86215 1.02373 -90
      vertex 1.71916 1.24904 -3
      vertex 1.71916 1.24904 -90
    endloop
  endfacet
  facet normal -0.844321 -0.535837 0
    outer loop
      vertex 1.71916 1.24904 -3
      vertex 1.86215 1.02373 -90
      vertex 1.86215 1.02373 -3
    endloop
  endfacet
  facet normal -0.368101 -0.929786 0
    outer loop
      vertex 0.656661 2.02099 -90
      vertex 0.90478 1.92276 -3
      vertex 0.656661 2.02099 -3
    endloop
  endfacet
  facet normal -0.368101 -0.929786 -0
    outer loop
      vertex 0.90478 1.92276 -3
      vertex 0.656661 2.02099 -90
      vertex 0.90478 1.92276 -90
    endloop
  endfacet
  facet normal 0.368101 -0.929786 0
    outer loop
      vertex -0.90478 1.92276 -90
      vertex -0.656661 2.02099 -3
      vertex -0.90478 1.92276 -3
    endloop
  endfacet
  facet normal 0.368101 -0.929786 0
    outer loop
      vertex -0.656661 2.02099 -3
      vertex -0.90478 1.92276 -90
      vertex -0.656661 2.02099 -90
    endloop
  endfacet
  facet normal 0.904835 -0.425763 0
    outer loop
      vertex -1.97577 0.782264 -3
      vertex -1.86215 1.02373 -90
      vertex -1.86215 1.02373 -3
    endloop
  endfacet
  facet normal 0.904835 -0.425763 0
    outer loop
      vertex -1.86215 1.02373 -90
      vertex -1.97577 0.782264 -3
      vertex -1.97577 0.782264 -90
    endloop
  endfacet
  facet normal -0.98229 0.187366 0
    outer loop
      vertex 2.05824 -0.528465 -90
      vertex 2.10824 -0.266333 -3
      vertex 2.10824 -0.266333 -90
    endloop
  endfacet
  facet normal -0.98229 0.187366 0
    outer loop
      vertex 2.10824 -0.266333 -3
      vertex 2.05824 -0.528465 -90
      vertex 2.05824 -0.528465 -3
    endloop
  endfacet
  facet normal -0.98229 -0.187366 0
    outer loop
      vertex 2.10824 0.266333 -90
      vertex 2.05824 0.528465 -3
      vertex 2.05824 0.528465 -90
    endloop
  endfacet
  facet normal -0.98229 -0.187366 0
    outer loop
      vertex 2.05824 0.528465 -3
      vertex 2.10824 0.266333 -90
      vertex 2.10824 0.266333 -3
    endloop
  endfacet
  facet normal -0.481753 -0.876307 0
    outer loop
      vertex 0.90478 1.92276 -90
      vertex 1.13863 1.7942 -3
      vertex 0.90478 1.92276 -3
    endloop
  endfacet
  facet normal -0.481753 -0.876307 -0
    outer loop
      vertex 1.13863 1.7942 -3
      vertex 0.90478 1.92276 -90
      vertex 1.13863 1.7942 -90
    endloop
  endfacet
  facet normal 0.77052 -0.637416 0
    outer loop
      vertex -1.71916 1.24904 -3
      vertex -1.54906 1.45466 -90
      vertex -1.54906 1.45466 -3
    endloop
  endfacet
  facet normal 0.77052 -0.637416 0
    outer loop
      vertex -1.54906 1.45466 -90
      vertex -1.71916 1.24904 -3
      vertex -1.71916 1.24904 -90
    endloop
  endfacet
  facet normal 0.125347 -0.992113 0
    outer loop
      vertex -0.398185 2.08736 -90
      vertex -0.13343 2.12081 -3
      vertex -0.398185 2.08736 -3
    endloop
  endfacet
  facet normal 0.125347 -0.992113 0
    outer loop
      vertex -0.13343 2.12081 -3
      vertex -0.398185 2.08736 -90
      vertex -0.13343 2.12081 -90
    endloop
  endfacet
  facet normal 0.684555 -0.728961 0
    outer loop
      vertex -1.54906 1.45466 -90
      vertex -1.35453 1.63734 -3
      vertex -1.54906 1.45466 -3
    endloop
  endfacet
  facet normal 0.684555 -0.728961 0
    outer loop
      vertex -1.35453 1.63734 -3
      vertex -1.54906 1.45466 -90
      vertex -1.35453 1.63734 -90
    endloop
  endfacet
  facet normal -0.998026 -0.0628045 0
    outer loop
      vertex 2.125 0 -90
      vertex 2.10824 0.266333 -3
      vertex 2.10824 0.266333 -90
    endloop
  endfacet
  facet normal -0.998026 -0.0628045 0
    outer loop
      vertex 2.10824 0.266333 -3
      vertex 2.125 0 -90
      vertex 2.125 0 -3
    endloop
  endfacet
  facet normal -0.95105 0.309036 0
    outer loop
      vertex 1.97577 -0.782264 -90
      vertex 2.05824 -0.528465 -3
      vertex 2.05824 -0.528465 -90
    endloop
  endfacet
  facet normal -0.95105 0.309036 0
    outer loop
      vertex 2.05824 -0.528465 -3
      vertex 1.97577 -0.782264 -90
      vertex 1.97577 -0.782264 -3
    endloop
  endfacet
  facet normal -0.684555 -0.728961 0
    outer loop
      vertex 1.35453 1.63734 -90
      vertex 1.54906 1.45466 -3
      vertex 1.35453 1.63734 -3
    endloop
  endfacet
  facet normal -0.684555 -0.728961 -0
    outer loop
      vertex 1.54906 1.45466 -3
      vertex 1.35453 1.63734 -90
      vertex 1.54906 1.45466 -90
    endloop
  endfacet
  facet normal 0 -1 0
    outer loop
      vertex -0.13343 2.12081 -90
      vertex 0.13343 2.12081 -3
      vertex -0.13343 2.12081 -3
    endloop
  endfacet
  facet normal 0 -1 -0
    outer loop
      vertex 0.13343 2.12081 -3
      vertex -0.13343 2.12081 -90
      vertex 0.13343 2.12081 -90
    endloop
  endfacet
  facet normal -0.248706 -0.968579 0
    outer loop
      vertex 0.398185 2.08736 -90
      vertex 0.656661 2.02099 -3
      vertex 0.398185 2.08736 -3
    endloop
  endfacet
  facet normal -0.248706 -0.968579 -0
    outer loop
      vertex 0.656661 2.02099 -3
      vertex 0.398185 2.08736 -90
      vertex 0.656661 2.02099 -90
    endloop
  endfacet
  facet normal -0.587784 -0.809018 0
    outer loop
      vertex 1.13863 1.7942 -90
      vertex 1.35453 1.63734 -3
      vertex 1.13863 1.7942 -3
    endloop
  endfacet
  facet normal -0.587784 -0.809018 -0
    outer loop
      vertex 1.35453 1.63734 -3
      vertex 1.13863 1.7942 -90
      vertex 1.35453 1.63734 -90
    endloop
  endfacet
  facet normal 0.998026 -0.0628045 0
    outer loop
      vertex -2.125 0 -3
      vertex -2.10824 0.266333 -90
      vertex -2.10824 0.266333 -3
    endloop
  endfacet
  facet normal 0.998026 -0.0628045 0
    outer loop
      vertex -2.10824 0.266333 -90
      vertex -2.125 0 -3
      vertex -2.125 0 -90
    endloop
  endfacet
  facet normal 0.95105 -0.309036 0
    outer loop
      vertex -2.05824 0.528465 -3
      vertex -1.97577 0.782264 -90
      vertex -1.97577 0.782264 -3
    endloop
  endfacet
  facet normal 0.95105 -0.309036 0
    outer loop
      vertex -1.97577 0.782264 -90
      vertex -2.05824 0.528465 -3
      vertex -2.05824 0.528465 -90
    endloop
  endfacet
  facet normal 0.844321 -0.535837 0
    outer loop
      vertex -1.86215 1.02373 -3
      vertex -1.71916 1.24904 -90
      vertex -1.71916 1.24904 -3
    endloop
  endfacet
  facet normal 0.844321 -0.535837 0
    outer loop
      vertex -1.71916 1.24904 -90
      vertex -1.86215 1.02373 -3
      vertex -1.86215 1.02373 -90
    endloop
  endfacet
  facet normal 0.248706 -0.968579 0
    outer loop
      vertex -0.656661 2.02099 -90
      vertex -0.398185 2.08736 -3
      vertex -0.656661 2.02099 -3
    endloop
  endfacet
  facet normal 0.248706 -0.968579 0
    outer loop
      vertex -0.398185 2.08736 -3
      vertex -0.656661 2.02099 -90
      vertex -0.398185 2.08736 -90
    endloop
  endfacet
  facet normal 0.587784 -0.809018 0
    outer loop
      vertex -1.35453 1.63734 -90
      vertex -1.13863 1.7942 -3
      vertex -1.35453 1.63734 -3
    endloop
  endfacet
  facet normal 0.587784 -0.809018 0
    outer loop
      vertex -1.13863 1.7942 -3
      vertex -1.35453 1.63734 -90
      vertex -1.13863 1.7942 -90
    endloop
  endfacet
  facet normal 0.481753 -0.876307 0
    outer loop
      vertex -1.13863 1.7942 -90
      vertex -0.90478 1.92276 -3
      vertex -1.13863 1.7942 -3
    endloop
  endfacet
  facet normal 0.481753 -0.876307 0
    outer loop
      vertex -0.90478 1.92276 -3
      vertex -1.13863 1.7942 -90
      vertex -0.90478 1.92276 -90
    endloop
  endfacet
  facet normal -0.998026 0.0628045 0
    outer loop
      vertex 2.10824 -0.266333 -90
      vertex 2.125 0 -3
      vertex 2.125 0 -90
    endloop
  endfacet
  facet normal -0.998026 0.0628045 0
    outer loop
      vertex 2.125 0 -3
      vertex 2.10824 -0.266333 -90
      vertex 2.10824 -0.266333 -3
    endloop
  endfacet
  facet normal -0.125347 0.992113 0
    outer loop
      vertex 0.398185 -2.08736 -90
      vertex 0.13343 -2.12081 -3
      vertex 0.398185 -2.08736 -3
    endloop
  endfacet
  facet normal -0.125347 0.992113 0
    outer loop
      vertex 0.13343 -2.12081 -3
      vertex 0.398185 -2.08736 -90
      vertex 0.13343 -2.12081 -90
    endloop
  endfacet
  facet normal -0.904835 -0.425763 0
    outer loop
      vertex 1.97577 0.782264 -90
      vertex 1.86215 1.02373 -3
      vertex 1.86215 1.02373 -90
    endloop
  endfacet
  facet normal -0.904835 -0.425763 0
    outer loop
      vertex 1.86215 1.02373 -3
      vertex 1.97577 0.782264 -90
      vertex 1.97577 0.782264 -3
    endloop
  endfacet
  facet normal -0.95105 -0.309036 0
    outer loop
      vertex 2.05824 0.528465 -90
      vertex 1.97577 0.782264 -3
      vertex 1.97577 0.782264 -90
    endloop
  endfacet
  facet normal -0.95105 -0.309036 0
    outer loop
      vertex 1.97577 0.782264 -3
      vertex 2.05824 0.528465 -90
      vertex 2.05824 0.528465 -3
    endloop
  endfacet
  facet normal -0.77052 -0.637416 0
    outer loop
      vertex 1.71916 1.24904 -90
      vertex 1.54906 1.45466 -3
      vertex 1.54906 1.45466 -90
    endloop
  endfacet
  facet normal -0.77052 -0.637416 0
    outer loop
      vertex 1.54906 1.45466 -3
      vertex 1.71916 1.24904 -90
      vertex 1.71916 1.24904 -3
    endloop
  endfacet
  facet normal -0.125347 -0.992113 0
    outer loop
      vertex 0.13343 2.12081 -90
      vertex 0.398185 2.08736 -3
      vertex 0.13343 2.12081 -3
    endloop
  endfacet
  facet normal -0.125347 -0.992113 -0
    outer loop
      vertex 0.398185 2.08736 -3
      vertex 0.13343 2.12081 -90
      vertex 0.398185 2.08736 -90
    endloop
  endfacet
  facet normal 0.98229 -0.187366 0
    outer loop
      vertex -2.10824 0.266333 -3
      vertex -2.05824 0.528465 -90
      vertex -2.05824 0.528465 -3
    endloop
  endfacet
  facet normal 0.98229 -0.187366 0
    outer loop
      vertex -2.05824 0.528465 -90
      vertex -2.10824 0.266333 -3
      vertex -2.10824 0.266333 -90
    endloop
  endfacet
  facet normal -0.844321 0.535837 0
    outer loop
      vertex 1.71916 -1.24904 -90
      vertex 1.86215 -1.02373 -3
      vertex 1.86215 -1.02373 -90
    endloop
  endfacet
  facet normal -0.844321 0.535837 0
    outer loop
      vertex 1.86215 -1.02373 -3
      vertex 1.71916 -1.24904 -90
      vertex 1.71916 -1.24904 -3
    endloop
  endfacet
  facet normal -0.904835 0.425763 0
    outer loop
      vertex 1.86215 -1.02373 -90
      vertex 1.97577 -0.782264 -3
      vertex 1.97577 -0.782264 -90
    endloop
  endfacet
  facet normal -0.904835 0.425763 0
    outer loop
      vertex 1.97577 -0.782264 -3
      vertex 1.86215 -1.02373 -90
      vertex 1.86215 -1.02373 -3
    endloop
  endfacet
  facet normal 0.998026 0.0628045 0
    outer loop
      vertex -2.10824 -0.266333 -3
      vertex -2.125 0 -90
      vertex -2.125 0 -3
    endloop
  endfacet
  facet normal 0.998026 0.0628045 0
    outer loop
      vertex -2.125 0 -90
      vertex -2.10824 -0.266333 -3
      vertex -2.10824 -0.266333 -90
    endloop
  endfacet
  facet normal 0.98229 0.187366 0
    outer loop
      vertex -2.05824 -0.528465 -3
      vertex -2.10824 -0.266333 -90
      vertex -2.10824 -0.266333 -3
    endloop
  endfacet
  facet normal 0.98229 0.187366 0
    outer loop
      vertex -2.10824 -0.266333 -90
      vertex -2.05824 -0.528465 -3
      vertex -2.05824 -0.528465 -90
    endloop
  endfacet
  facet normal 0.77052 0.637416 0
    outer loop
      vertex -1.54906 -1.45466 -3
      vertex -1.71916 -1.24904 -90
      vertex -1.71916 -1.24904 -3
    endloop
  endfacet
  facet normal 0.77052 0.637416 0
    outer loop
      vertex -1.71916 -1.24904 -90
      vertex -1.54906 -1.45466 -3
      vertex -1.54906 -1.45466 -90
    endloop
  endfacet
  facet normal 0.904835 0.425763 0
    outer loop
      vertex -1.86215 -1.02373 -3
      vertex -1.97577 -0.782264 -90
      vertex -1.97577 -0.782264 -3
    endloop
  endfacet
  facet normal 0.904835 0.425763 0
    outer loop
      vertex -1.97577 -0.782264 -90
      vertex -1.86215 -1.02373 -3
      vertex -1.86215 -1.02373 -90
    endloop
  endfacet
  facet normal -0.368101 0.929786 0
    outer loop
      vertex 0.90478 -1.92276 -90
      vertex 0.656661 -2.02099 -3
      vertex 0.90478 -1.92276 -3
    endloop
  endfacet
  facet normal -0.368101 0.929786 0
    outer loop
      vertex 0.656661 -2.02099 -3
      vertex 0.90478 -1.92276 -90
      vertex 0.656661 -2.02099 -90
    endloop
  endfacet
  facet normal -0.248706 0.968579 0
    outer loop
      vertex 0.656661 -2.02099 -90
      vertex 0.398185 -2.08736 -3
      vertex 0.656661 -2.02099 -3
    endloop
  endfacet
  facet normal -0.248706 0.968579 0
    outer loop
      vertex 0.398185 -2.08736 -3
      vertex 0.656661 -2.02099 -90
      vertex 0.398185 -2.08736 -90
    endloop
  endfacet
  facet normal -0.684555 0.728961 0
    outer loop
      vertex 1.54906 -1.45466 -90
      vertex 1.35453 -1.63734 -3
      vertex 1.54906 -1.45466 -3
    endloop
  endfacet
  facet normal -0.684555 0.728961 0
    outer loop
      vertex 1.35453 -1.63734 -3
      vertex 1.54906 -1.45466 -90
      vertex 1.35453 -1.63734 -90
    endloop
  endfacet
  facet normal 0.368101 0.929786 -0
    outer loop
      vertex -0.656661 -2.02099 -90
      vertex -0.90478 -1.92276 -3
      vertex -0.656661 -2.02099 -3
    endloop
  endfacet
  facet normal 0.368101 0.929786 0
    outer loop
      vertex -0.90478 -1.92276 -3
      vertex -0.656661 -2.02099 -90
      vertex -0.90478 -1.92276 -90
    endloop
  endfacet
  facet normal 0 1 -0
    outer loop
      vertex 0.13343 -2.12081 -90
      vertex -0.13343 -2.12081 -3
      vertex 0.13343 -2.12081 -3
    endloop
  endfacet
  facet normal 0 1 0
    outer loop
      vertex -0.13343 -2.12081 -3
      vertex 0.13343 -2.12081 -90
      vertex -0.13343 -2.12081 -90
    endloop
  endfacet
  facet normal 0.125347 0.992113 -0
    outer loop
      vertex -0.13343 -2.12081 -90
      vertex -0.398185 -2.08736 -3
      vertex -0.13343 -2.12081 -3
    endloop
  endfacet
  facet normal 0.125347 0.992113 0
    outer loop
      vertex -0.398185 -2.08736 -3
      vertex -0.13343 -2.12081 -90
      vertex -0.398185 -2.08736 -90
    endloop
  endfacet
  facet normal 0.248706 0.968579 -0
    outer loop
      vertex -0.398185 -2.08736 -90
      vertex -0.656661 -2.02099 -3
      vertex -0.398185 -2.08736 -3
    endloop
  endfacet
  facet normal 0.248706 0.968579 0
    outer loop
      vertex -0.656661 -2.02099 -3
      vertex -0.398185 -2.08736 -90
      vertex -0.656661 -2.02099 -90
    endloop
  endfacet
  facet normal 0.844321 0.535837 0
    outer loop
      vertex -1.71916 -1.24904 -3
      vertex -1.86215 -1.02373 -90
      vertex -1.86215 -1.02373 -3
    endloop
  endfacet
  facet normal 0.844321 0.535837 0
    outer loop
      vertex -1.86215 -1.02373 -90
      vertex -1.71916 -1.24904 -3
      vertex -1.71916 -1.24904 -90
    endloop
  endfacet
  facet normal -0.77052 0.637416 0
    outer loop
      vertex 1.54906 -1.45466 -90
      vertex 1.71916 -1.24904 -3
      vertex 1.71916 -1.24904 -90
    endloop
  endfacet
  facet normal -0.77052 0.637416 0
    outer loop
      vertex 1.71916 -1.24904 -3
      vertex 1.54906 -1.45466 -90
      vertex 1.54906 -1.45466 -3
    endloop
  endfacet
  facet normal -0.587784 0.809018 0
    outer loop
      vertex 1.35453 -1.63734 -90
      vertex 1.13863 -1.7942 -3
      vertex 1.35453 -1.63734 -3
    endloop
  endfacet
  facet normal -0.587784 0.809018 0
    outer loop
      vertex 1.13863 -1.7942 -3
      vertex 1.35453 -1.63734 -90
      vertex 1.13863 -1.7942 -90
    endloop
  endfacet
  facet normal -0.481753 0.876307 0
    outer loop
      vertex 1.13863 -1.7942 -90
      vertex 0.90478 -1.92276 -3
      vertex 1.13863 -1.7942 -3
    endloop
  endfacet
  facet normal -0.481753 0.876307 0
    outer loop
      vertex 0.90478 -1.92276 -3
      vertex 1.13863 -1.7942 -90
      vertex 0.90478 -1.92276 -90
    endloop
  endfacet
  facet normal 0.95105 0.309036 0
    outer loop
      vertex -1.97577 -0.782264 -3
      vertex -2.05824 -0.528465 -90
      vertex -2.05824 -0.528465 -3
    endloop
  endfacet
  facet normal 0.95105 0.309036 0
    outer loop
      vertex -2.05824 -0.528465 -90
      vertex -1.97577 -0.782264 -3
      vertex -1.97577 -0.782264 -90
    endloop
  endfacet
  facet normal 0.684555 0.728961 -0
    outer loop
      vertex -1.35453 -1.63734 -90
      vertex -1.54906 -1.45466 -3
      vertex -1.35453 -1.63734 -3
    endloop
  endfacet
  facet normal 0.684555 0.728961 0
    outer loop
      vertex -1.54906 -1.45466 -3
      vertex -1.35453 -1.63734 -90
      vertex -1.54906 -1.45466 -90
    endloop
  endfacet
  facet normal 0.481753 0.876307 -0
    outer loop
      vertex -0.90478 -1.92276 -90
      vertex -1.13863 -1.7942 -3
      vertex -0.90478 -1.92276 -3
    endloop
  endfacet
  facet normal 0.481753 0.876307 0
    outer loop
      vertex -1.13863 -1.7942 -3
      vertex -0.90478 -1.92276 -90
      vertex -1.13863 -1.7942 -90
    endloop
  endfacet
  facet normal 0.587784 0.809018 -0
    outer loop
      vertex -1.13863 -1.7942 -90
      vertex -1.35453 -1.63734 -3
      vertex -1.13863 -1.7942 -3
    endloop
  endfacet
  facet normal 0.587784 0.809018 0
    outer loop
      vertex -1.35453 -1.63734 -3
      vertex -1.13863 -1.7942 -90
      vertex -1.35453 -1.63734 -90
    endloop
  endfacet
  facet normal -0.951058 0.309011 0
    outer loop
      vertex -6.78008 1.74083 -90
      vertex -6.50844 2.57687 0
      vertex -6.50844 2.57687 -90
    endloop
  endfacet
  facet normal -0.951058 0.309011 0
    outer loop
      vertex -6.50844 2.57687 0
      vertex -6.78008 1.74083 -90
      vertex -6.78008 1.74083 0
    endloop
  endfacet
  facet normal 0.844326 0.535829 0
    outer loop
      vertex 6.13415 3.37228 0
      vertex 5.66312 4.1145 -90
      vertex 5.66312 4.1145 0
    endloop
  endfacet
  facet normal 0.844326 0.535829 0
    outer loop
      vertex 5.66312 4.1145 -90
      vertex 6.13415 3.37228 0
      vertex 6.13415 3.37228 -90
    endloop
  endfacet
  facet normal 0.368131 0.929774 -0
    outer loop
      vertex 2.98045 6.33379 -90
      vertex 2.16312 6.6574 0
      vertex 2.98045 6.33379 0
    endloop
  endfacet
  facet normal 0.368131 0.929774 0
    outer loop
      vertex 2.16312 6.6574 0
      vertex 2.98045 6.33379 -90
      vertex 2.16312 6.6574 -90
    endloop
  endfacet
  facet normal -0.368131 0.929774 0
    outer loop
      vertex -2.16312 6.6574 -90
      vertex -2.98045 6.33379 0
      vertex -2.16312 6.6574 0
    endloop
  endfacet
  facet normal -0.368131 0.929774 0
    outer loop
      vertex -2.98045 6.33379 0
      vertex -2.16312 6.6574 -90
      vertex -2.98045 6.33379 -90
    endloop
  endfacet
  facet normal -0.904828 0.425778 0
    outer loop
      vertex -6.50844 2.57687 -90
      vertex -6.13415 3.37228 0
      vertex -6.13415 3.37228 -90
    endloop
  endfacet
  facet normal -0.904828 0.425778 0
    outer loop
      vertex -6.13415 3.37228 0
      vertex -6.50844 2.57687 -90
      vertex -6.50844 2.57687 0
    endloop
  endfacet
  facet normal 0.998027 -0.0627939 0
    outer loop
      vertex 6.9448 -0.877332 0
      vertex 7 0 -90
      vertex 7 0 0
    endloop
  endfacet
  facet normal 0.998027 -0.0627939 0
    outer loop
      vertex 7 0 -90
      vertex 6.9448 -0.877332 0
      vertex 6.9448 -0.877332 -90
    endloop
  endfacet
  facet normal 0.684547 0.728969 -0
    outer loop
      vertex 5.10278 4.79183 -90
      vertex 4.46197 5.39359 0
      vertex 5.10278 4.79183 0
    endloop
  endfacet
  facet normal 0.684547 0.728969 0
    outer loop
      vertex 4.46197 5.39359 0
      vertex 5.10278 4.79183 -90
      vertex 4.46197 5.39359 -90
    endloop
  endfacet
  facet normal 0 1 -0
    outer loop
      vertex 0.439533 6.98619 -90
      vertex -0.439533 6.98619 0
      vertex 0.439533 6.98619 0
    endloop
  endfacet
  facet normal 0 1 0
    outer loop
      vertex -0.439533 6.98619 0
      vertex 0.439533 6.98619 -90
      vertex -0.439533 6.98619 -90
    endloop
  endfacet
  facet normal 0.481755 0.876306 -0
    outer loop
      vertex 3.75079 5.91029 -90
      vertex 2.98045 6.33379 0
      vertex 3.75079 5.91029 0
    endloop
  endfacet
  facet normal 0.481755 0.876306 0
    outer loop
      vertex 2.98045 6.33379 0
      vertex 3.75079 5.91029 -90
      vertex 2.98045 6.33379 -90
    endloop
  endfacet
  facet normal -0.982287 0.18738 0
    outer loop
      vertex -6.9448 0.877332 -90
      vertex -6.78008 1.74083 0
      vertex -6.78008 1.74083 -90
    endloop
  endfacet
  facet normal -0.982287 0.18738 0
    outer loop
      vertex -6.78008 1.74083 0
      vertex -6.9448 0.877332 -90
      vertex -6.9448 0.877332 0
    endloop
  endfacet
  facet normal -0.770511 0.637427 0
    outer loop
      vertex -5.66312 4.1145 -90
      vertex -5.10278 4.79183 0
      vertex -5.10278 4.79183 -90
    endloop
  endfacet
  facet normal -0.770511 0.637427 0
    outer loop
      vertex -5.10278 4.79183 0
      vertex -5.66312 4.1145 -90
      vertex -5.66312 4.1145 0
    endloop
  endfacet
  facet normal -0.248684 0.968585 0
    outer loop
      vertex -1.31167 6.87601 -90
      vertex -2.16312 6.6574 0
      vertex -1.31167 6.87601 0
    endloop
  endfacet
  facet normal -0.248684 0.968585 0
    outer loop
      vertex -2.16312 6.6574 0
      vertex -1.31167 6.87601 -90
      vertex -2.16312 6.6574 -90
    endloop
  endfacet
  facet normal -0.684547 0.728969 0
    outer loop
      vertex -4.46197 5.39359 -90
      vertex -5.10278 4.79183 0
      vertex -4.46197 5.39359 0
    endloop
  endfacet
  facet normal -0.684547 0.728969 0
    outer loop
      vertex -5.10278 4.79183 0
      vertex -4.46197 5.39359 -90
      vertex -5.10278 4.79183 -90
    endloop
  endfacet
  facet normal 0.904828 -0.425778 0
    outer loop
      vertex 6.13415 -3.37228 0
      vertex 6.50844 -2.57687 -90
      vertex 6.50844 -2.57687 0
    endloop
  endfacet
  facet normal 0.904828 -0.425778 0
    outer loop
      vertex 6.50844 -2.57687 -90
      vertex 6.13415 -3.37228 0
      vertex 6.13415 -3.37228 -90
    endloop
  endfacet
  facet normal -0.684547 -0.728969 0
    outer loop
      vertex -5.10278 -4.79183 -90
      vertex -4.46197 -5.39359 0
      vertex -5.10278 -4.79183 0
    endloop
  endfacet
  facet normal -0.684547 -0.728969 -0
    outer loop
      vertex -4.46197 -5.39359 0
      vertex -5.10278 -4.79183 -90
      vertex -4.46197 -5.39359 -90
    endloop
  endfacet
  facet normal -0.904828 -0.425778 0
    outer loop
      vertex -6.13415 -3.37228 -90
      vertex -6.50844 -2.57687 0
      vertex -6.50844 -2.57687 -90
    endloop
  endfacet
  facet normal -0.904828 -0.425778 0
    outer loop
      vertex -6.50844 -2.57687 0
      vertex -6.13415 -3.37228 -90
      vertex -6.13415 -3.37228 0
    endloop
  endfacet
  facet normal 0.481755 -0.876306 0
    outer loop
      vertex 2.98045 -6.33379 -90
      vertex 3.75079 -5.91029 0
      vertex 2.98045 -6.33379 0
    endloop
  endfacet
  facet normal 0.481755 -0.876306 0
    outer loop
      vertex 3.75079 -5.91029 0
      vertex 2.98045 -6.33379 -90
      vertex 3.75079 -5.91029 -90
    endloop
  endfacet
  facet normal 0.770511 0.637427 0
    outer loop
      vertex 5.66312 4.1145 0
      vertex 5.10278 4.79183 -90
      vertex 5.10278 4.79183 0
    endloop
  endfacet
  facet normal 0.770511 0.637427 0
    outer loop
      vertex 5.10278 4.79183 -90
      vertex 5.66312 4.1145 0
      vertex 5.66312 4.1145 -90
    endloop
  endfacet
  facet normal 0.248684 0.968585 -0
    outer loop
      vertex 2.16312 6.6574 -90
      vertex 1.31167 6.87601 0
      vertex 2.16312 6.6574 0
    endloop
  endfacet
  facet normal 0.248684 0.968585 0
    outer loop
      vertex 1.31167 6.87601 0
      vertex 2.16312 6.6574 -90
      vertex 1.31167 6.87601 -90
    endloop
  endfacet
  facet normal 0.125337 0.992114 -0
    outer loop
      vertex 1.31167 6.87601 -90
      vertex 0.439533 6.98619 0
      vertex 1.31167 6.87601 0
    endloop
  endfacet
  facet normal 0.125337 0.992114 0
    outer loop
      vertex 0.439533 6.98619 0
      vertex 1.31167 6.87601 -90
      vertex 0.439533 6.98619 -90
    endloop
  endfacet
  facet normal 0.587783 0.809018 -0
    outer loop
      vertex 4.46197 5.39359 -90
      vertex 3.75079 5.91029 0
      vertex 4.46197 5.39359 0
    endloop
  endfacet
  facet normal 0.587783 0.809018 0
    outer loop
      vertex 3.75079 5.91029 0
      vertex 4.46197 5.39359 -90
      vertex 3.75079 5.91029 -90
    endloop
  endfacet
  facet normal -0.998027 0.0627939 0
    outer loop
      vertex -7 0 -90
      vertex -6.9448 0.877332 0
      vertex -6.9448 0.877332 -90
    endloop
  endfacet
  facet normal -0.998027 0.0627939 0
    outer loop
      vertex -6.9448 0.877332 0
      vertex -7 0 -90
      vertex -7 0 0
    endloop
  endfacet
  facet normal -0.844326 0.535829 0
    outer loop
      vertex -6.13415 3.37228 -90
      vertex -5.66312 4.1145 0
      vertex -5.66312 4.1145 -90
    endloop
  endfacet
  facet normal -0.844326 0.535829 0
    outer loop
      vertex -5.66312 4.1145 0
      vertex -6.13415 3.37228 -90
      vertex -6.13415 3.37228 0
    endloop
  endfacet
  facet normal -0.125337 0.992114 0
    outer loop
      vertex -0.439533 6.98619 -90
      vertex -1.31167 6.87601 0
      vertex -0.439533 6.98619 0
    endloop
  endfacet
  facet normal -0.125337 0.992114 0
    outer loop
      vertex -1.31167 6.87601 0
      vertex -0.439533 6.98619 -90
      vertex -1.31167 6.87601 -90
    endloop
  endfacet
  facet normal -0.587783 0.809018 0
    outer loop
      vertex -3.75079 5.91029 -90
      vertex -4.46197 5.39359 0
      vertex -3.75079 5.91029 0
    endloop
  endfacet
  facet normal -0.587783 0.809018 0
    outer loop
      vertex -4.46197 5.39359 0
      vertex -3.75079 5.91029 -90
      vertex -4.46197 5.39359 -90
    endloop
  endfacet
  facet normal -0.481755 0.876306 0
    outer loop
      vertex -2.98045 6.33379 -90
      vertex -3.75079 5.91029 0
      vertex -2.98045 6.33379 0
    endloop
  endfacet
  facet normal -0.481755 0.876306 0
    outer loop
      vertex -3.75079 5.91029 0
      vertex -2.98045 6.33379 -90
      vertex -3.75079 5.91029 -90
    endloop
  endfacet
  facet normal 0.998027 0.0627939 0
    outer loop
      vertex 7 0 0
      vertex 6.9448 0.877332 -90
      vertex 6.9448 0.877332 0
    endloop
  endfacet
  facet normal 0.998027 0.0627939 0
    outer loop
      vertex 6.9448 0.877332 -90
      vertex 7 0 0
      vertex 7 0 -90
    endloop
  endfacet
  facet normal 0.770511 -0.637427 0
    outer loop
      vertex 5.10278 -4.79183 0
      vertex 5.66312 -4.1145 -90
      vertex 5.66312 -4.1145 0
    endloop
  endfacet
  facet normal 0.770511 -0.637427 0
    outer loop
      vertex 5.66312 -4.1145 -90
      vertex 5.10278 -4.79183 0
      vertex 5.10278 -4.79183 -90
    endloop
  endfacet
  facet normal -0.844326 -0.535829 0
    outer loop
      vertex -5.66312 -4.1145 -90
      vertex -6.13415 -3.37228 0
      vertex -6.13415 -3.37228 -90
    endloop
  endfacet
  facet normal -0.844326 -0.535829 0
    outer loop
      vertex -6.13415 -3.37228 0
      vertex -5.66312 -4.1145 -90
      vertex -5.66312 -4.1145 0
    endloop
  endfacet
  facet normal 0.125337 -0.992114 0
    outer loop
      vertex 0.439533 -6.98619 -90
      vertex 1.31167 -6.87601 0
      vertex 0.439533 -6.98619 0
    endloop
  endfacet
  facet normal 0.125337 -0.992114 0
    outer loop
      vertex 1.31167 -6.87601 0
      vertex 0.439533 -6.98619 -90
      vertex 1.31167 -6.87601 -90
    endloop
  endfacet
  facet normal 0.904828 0.425778 0
    outer loop
      vertex 6.50844 2.57687 0
      vertex 6.13415 3.37228 -90
      vertex 6.13415 3.37228 0
    endloop
  endfacet
  facet normal 0.904828 0.425778 0
    outer loop
      vertex 6.13415 3.37228 -90
      vertex 6.50844 2.57687 0
      vertex 6.50844 2.57687 -90
    endloop
  endfacet
  facet normal 0.951058 0.309011 0
    outer loop
      vertex 6.78008 1.74083 0
      vertex 6.50844 2.57687 -90
      vertex 6.50844 2.57687 0
    endloop
  endfacet
  facet normal 0.951058 0.309011 0
    outer loop
      vertex 6.50844 2.57687 -90
      vertex 6.78008 1.74083 0
      vertex 6.78008 1.74083 -90
    endloop
  endfacet
  facet normal 0.982287 0.18738 0
    outer loop
      vertex 6.9448 0.877332 0
      vertex 6.78008 1.74083 -90
      vertex 6.78008 1.74083 0
    endloop
  endfacet
  facet normal 0.982287 0.18738 0
    outer loop
      vertex 6.78008 1.74083 -90
      vertex 6.9448 0.877332 0
      vertex 6.9448 0.877332 -90
    endloop
  endfacet
  facet normal 0.982287 -0.18738 0
    outer loop
      vertex 6.78008 -1.74083 0
      vertex 6.9448 -0.877332 -90
      vertex 6.9448 -0.877332 0
    endloop
  endfacet
  facet normal 0.982287 -0.18738 0
    outer loop
      vertex 6.9448 -0.877332 -90
      vertex 6.78008 -1.74083 0
      vertex 6.78008 -1.74083 -90
    endloop
  endfacet
  facet normal 0.844326 -0.535829 0
    outer loop
      vertex 5.66312 -4.1145 0
      vertex 6.13415 -3.37228 -90
      vertex 6.13415 -3.37228 0
    endloop
  endfacet
  facet normal 0.844326 -0.535829 0
    outer loop
      vertex 6.13415 -3.37228 -90
      vertex 5.66312 -4.1145 0
      vertex 5.66312 -4.1145 -90
    endloop
  endfacet
  facet normal -0.368131 -0.929774 0
    outer loop
      vertex -2.98045 -6.33379 -90
      vertex -2.16312 -6.6574 0
      vertex -2.98045 -6.33379 0
    endloop
  endfacet
  facet normal -0.368131 -0.929774 -0
    outer loop
      vertex -2.16312 -6.6574 0
      vertex -2.98045 -6.33379 -90
      vertex -2.16312 -6.6574 -90
    endloop
  endfacet
  facet normal 0 -1 0
    outer loop
      vertex -0.439533 -6.98619 -90
      vertex 0.439533 -6.98619 0
      vertex -0.439533 -6.98619 0
    endloop
  endfacet
  facet normal 0 -1 -0
    outer loop
      vertex 0.439533 -6.98619 0
      vertex -0.439533 -6.98619 -90
      vertex 0.439533 -6.98619 -90
    endloop
  endfacet
  facet normal -0.998027 -0.0627939 0
    outer loop
      vertex -6.9448 -0.877332 -90
      vertex -7 0 0
      vertex -7 0 -90
    endloop
  endfacet
  facet normal -0.998027 -0.0627939 0
    outer loop
      vertex -7 0 0
      vertex -6.9448 -0.877332 -90
      vertex -6.9448 -0.877332 0
    endloop
  endfacet
  facet normal -0.951058 -0.309011 0
    outer loop
      vertex -6.50844 -2.57687 -90
      vertex -6.78008 -1.74083 0
      vertex -6.78008 -1.74083 -90
    endloop
  endfacet
  facet normal -0.951058 -0.309011 0
    outer loop
      vertex -6.78008 -1.74083 0
      vertex -6.50844 -2.57687 -90
      vertex -6.50844 -2.57687 0
    endloop
  endfacet
  facet normal -0.770511 -0.637427 0
    outer loop
      vertex -5.10278 -4.79183 -90
      vertex -5.66312 -4.1145 0
      vertex -5.66312 -4.1145 -90
    endloop
  endfacet
  facet normal -0.770511 -0.637427 0
    outer loop
      vertex -5.66312 -4.1145 0
      vertex -5.10278 -4.79183 -90
      vertex -5.10278 -4.79183 0
    endloop
  endfacet
  facet normal 0.368131 -0.929774 0
    outer loop
      vertex 2.16312 -6.6574 -90
      vertex 2.98045 -6.33379 0
      vertex 2.16312 -6.6574 0
    endloop
  endfacet
  facet normal 0.368131 -0.929774 0
    outer loop
      vertex 2.98045 -6.33379 0
      vertex 2.16312 -6.6574 -90
      vertex 2.98045 -6.33379 -90
    endloop
  endfacet
  facet normal 0.248684 -0.968585 0
    outer loop
      vertex 1.31167 -6.87601 -90
      vertex 2.16312 -6.6574 0
      vertex 1.31167 -6.87601 0
    endloop
  endfacet
  facet normal 0.248684 -0.968585 0
    outer loop
      vertex 2.16312 -6.6574 0
      vertex 1.31167 -6.87601 -90
      vertex 2.16312 -6.6574 -90
    endloop
  endfacet
  facet normal 0.684547 -0.728969 0
    outer loop
      vertex 4.46197 -5.39359 -90
      vertex 5.10278 -4.79183 0
      vertex 4.46197 -5.39359 0
    endloop
  endfacet
  facet normal 0.684547 -0.728969 0
    outer loop
      vertex 5.10278 -4.79183 0
      vertex 4.46197 -5.39359 -90
      vertex 5.10278 -4.79183 -90
    endloop
  endfacet
  facet normal 0.951058 -0.309011 0
    outer loop
      vertex 6.50844 -2.57687 0
      vertex 6.78008 -1.74083 -90
      vertex 6.78008 -1.74083 0
    endloop
  endfacet
  facet normal 0.951058 -0.309011 0
    outer loop
      vertex 6.78008 -1.74083 -90
      vertex 6.50844 -2.57687 0
      vertex 6.50844 -2.57687 -90
    endloop
  endfacet
  facet normal -0.248684 -0.968585 0
    outer loop
      vertex -2.16312 -6.6574 -90
      vertex -1.31167 -6.87601 0
      vertex -2.16312 -6.6574 0
    endloop
  endfacet
  facet normal -0.248684 -0.968585 -0
    outer loop
      vertex -1.31167 -6.87601 0
      vertex -2.16312 -6.6574 -90
      vertex -1.31167 -6.87601 -90
    endloop
  endfacet
  facet normal -0.481755 -0.876306 0
    outer loop
      vertex -3.75079 -5.91029 -90
      vertex -2.98045 -6.33379 0
      vertex -3.75079 -5.91029 0
    endloop
  endfacet
  facet normal -0.481755 -0.876306 -0
    outer loop
      vertex -2.98045 -6.33379 0
      vertex -3.75079 -5.91029 -90
      vertex -2.98045 -6.33379 -90
    endloop
  endfacet
  facet normal -0.982287 -0.18738 0
    outer loop
      vertex -6.78008 -1.74083 -90
      vertex -6.9448 -0.877332 0
      vertex -6.9448 -0.877332 -90
    endloop
  endfacet
  facet normal -0.982287 -0.18738 0
    outer loop
      vertex -6.9448 -0.877332 0
      vertex -6.78008 -1.74083 -90
      vertex -6.78008 -1.74083 0
    endloop
  endfacet
  facet normal 0.587783 -0.809018 0
    outer loop
      vertex 3.75079 -5.91029 -90
      vertex 4.46197 -5.39359 0
      vertex 3.75079 -5.91029 0
    endloop
  endfacet
  facet normal 0.587783 -0.809018 0
    outer loop
      vertex 4.46197 -5.39359 0
      vertex 3.75079 -5.91029 -90
      vertex 4.46197 -5.39359 -90
    endloop
  endfacet
  facet normal -0.125337 -0.992114 0
    outer loop
      vertex -1.31167 -6.87601 -90
      vertex -0.439533 -6.98619 0
      vertex -1.31167 -6.87601 0
    endloop
  endfacet
  facet normal -0.125337 -0.992114 -0
    outer loop
      vertex -0.439533 -6.98619 0
      vertex -1.31167 -6.87601 -90
      vertex -0.439533 -6.98619 -90
    endloop
  endfacet
  facet normal -0.587783 -0.809018 0
    outer loop
      vertex -4.46197 -5.39359 -90
      vertex -3.75079 -5.91029 0
      vertex -4.46197 -5.39359 0
    endloop
  endfacet
  facet normal -0.587783 -0.809018 -0
    outer loop
      vertex -3.75079 -5.91029 0
      vertex -4.46197 -5.39359 -90
      vertex -3.75079 -5.91029 -90
    endloop
  endfacet
endsolid OpenSCAD_Model
