solid OpenSCAD_Model
  facet normal 0 0 1
    outer loop
      vertex 2.25 0 0
      vertex 17 0 0
      vertex 16.8659 2.13066 0
    endloop
  endfacet
  facet normal 0 0 1
    outer loop
      vertex 2.23226 0.282 0
      vertex 16.8659 2.13066 0
      vertex 16.4659 4.22773 0
    endloop
  endfacet
  facet normal 0 0 1
    outer loop
      vertex 17 0 0
      vertex 2.25 0 0
      vertex 16.8659 -2.13066 0
    endloop
  endfacet
  facet normal 0 0 1
    outer loop
      vertex 2.17931 0.559552 0
      vertex 16.4659 4.22773 0
      vertex 15.8062 6.25812 0
    endloop
  endfacet
  facet normal -0 0 1
    outer loop
      vertex 2.23226 -0.282 0
      vertex 16.8659 -2.13066 0
      vertex 2.25 0 0
    endloop
  endfacet
  facet normal 0 0 1
    outer loop
      vertex 2.092 0.828279 0
      vertex 15.8062 6.25812 0
      vertex 14.8972 8.18981 0
    endloop
  endfacet
  facet normal 0 0 1
    outer loop
      vertex 16.8659 -2.13066 0
      vertex 2.23226 -0.282 0
      vertex 16.4659 -4.22773 0
    endloop
  endfacet
  facet normal 0 0 1
    outer loop
      vertex 1.97169 1.08395 0
      vertex 14.8972 8.18981 0
      vertex 13.7533 9.99235 0
    endloop
  endfacet
  facet normal -0 0 1
    outer loop
      vertex 2.17931 -0.559552 0
      vertex 16.4659 -4.22773 0
      vertex 2.23226 -0.282 0
    endloop
  endfacet
  facet normal 0 0 1
    outer loop
      vertex 1.82029 1.32252 0
      vertex 13.7533 9.99235 0
      vertex 12.3925 11.6373 0
    endloop
  endfacet
  facet normal 0 0 1
    outer loop
      vertex 16.4659 -4.22773 0
      vertex 2.17931 -0.559552 0
      vertex 15.8062 -6.25812 0
    endloop
  endfacet
  facet normal 0 0 1
    outer loop
      vertex 1.64018 1.54023 0
      vertex 12.3925 11.6373 0
      vertex 10.8362 13.0987 0
    endloop
  endfacet
  facet normal -0 0 1
    outer loop
      vertex 2.092 -0.828279 0
      vertex 15.8062 -6.25812 0
      vertex 2.17931 -0.559552 0
    endloop
  endfacet
  facet normal 0 0 1
    outer loop
      vertex 1.4342 1.73365 0
      vertex 10.8362 13.0987 0
      vertex 9.10905 14.3536 0
    endloop
  endfacet
  facet normal 0 0 1
    outer loop
      vertex 15.8062 -6.25812 0
      vertex 2.092 -0.828279 0
      vertex 14.8972 -8.18981 0
    endloop
  endfacet
  facet normal 0 0 1
    outer loop
      vertex 1.20561 1.89974 0
      vertex 9.10905 14.3536 0
      vertex 7.23825 15.3821 0
    endloop
  endfacet
  facet normal -0 0 1
    outer loop
      vertex 1.97169 -1.08395 0
      vertex 14.8972 -8.18981 0
      vertex 2.092 -0.828279 0
    endloop
  endfacet
  facet normal 0 0 1
    outer loop
      vertex 0.958003 2.03586 0
      vertex 7.23825 15.3821 0
      vertex 5.25329 16.168 0
    endloop
  endfacet
  facet normal 0 0 1
    outer loop
      vertex 14.8972 -8.18981 0
      vertex 1.97169 -1.08395 0
      vertex 13.7533 -9.99235 0
    endloop
  endfacet
  facet normal 0 0 1
    outer loop
      vertex 0.695288 2.13988 0
      vertex 5.25329 16.168 0
      vertex 3.18548 16.6989 0
    endloop
  endfacet
  facet normal -0 0 1
    outer loop
      vertex 1.82029 -1.32252 0
      vertex 13.7533 -9.99235 0
      vertex 1.97169 -1.08395 0
    endloop
  endfacet
  facet normal 0 0 1
    outer loop
      vertex 13.7533 -9.99235 0
      vertex 1.82029 -1.32252 0
      vertex 12.3925 -11.6373 0
    endloop
  endfacet
  facet normal 0 0 1
    outer loop
      vertex 16.8659 2.13066 0
      vertex 2.23226 0.282 0
      vertex 2.25 0 0
    endloop
  endfacet
  facet normal 0 0 1
    outer loop
      vertex 16.4659 4.22773 0
      vertex 2.17931 0.559552 0
      vertex 2.23226 0.282 0
    endloop
  endfacet
  facet normal 0 0 1
    outer loop
      vertex 15.8062 6.25812 0
      vertex 2.092 0.828279 0
      vertex 2.17931 0.559552 0
    endloop
  endfacet
  facet normal 0 0 1
    outer loop
      vertex 14.8972 8.18981 0
      vertex 1.97169 1.08395 0
      vertex 2.092 0.828279 0
    endloop
  endfacet
  facet normal 0 0 1
    outer loop
      vertex 13.7533 9.99235 0
      vertex 1.82029 1.32252 0
      vertex 1.97169 1.08395 0
    endloop
  endfacet
  facet normal 0 0 1
    outer loop
      vertex 12.3925 11.6373 0
      vertex 1.64018 1.54023 0
      vertex 1.82029 1.32252 0
    endloop
  endfacet
  facet normal 0 0 1
    outer loop
      vertex 10.8362 13.0987 0
      vertex 1.4342 1.73365 0
      vertex 1.64018 1.54023 0
    endloop
  endfacet
  facet normal 0 0 1
    outer loop
      vertex 9.10905 14.3536 0
      vertex 1.20561 1.89974 0
      vertex 1.4342 1.73365 0
    endloop
  endfacet
  facet normal 0 0 1
    outer loop
      vertex 0.421607 2.21015 0
      vertex 3.18548 16.6989 0
      vertex 1.06744 16.9665 0
    endloop
  endfacet
  facet normal 0 0 1
    outer loop
      vertex 7.23825 15.3821 0
      vertex 0.958003 2.03586 0
      vertex 1.20561 1.89974 0
    endloop
  endfacet
  facet normal 0 0 1
    outer loop
      vertex 5.25329 16.168 0
      vertex 0.695288 2.13988 0
      vertex 0.958003 2.03586 0
    endloop
  endfacet
  facet normal 0 0 1
    outer loop
      vertex 3.18548 16.6989 0
      vertex 0.421607 2.21015 0
      vertex 0.695288 2.13988 0
    endloop
  endfacet
  facet normal 0 0 1
    outer loop
      vertex 1.06744 16.9665 0
      vertex 0.141278 2.24556 0
      vertex 0.421607 2.21015 0
    endloop
  endfacet
  facet normal 0 0 1
    outer loop
      vertex 1.06744 16.9665 0
      vertex -0.141278 2.24556 0
      vertex 0.141278 2.24556 0
    endloop
  endfacet
  facet normal -0 0 1
    outer loop
      vertex -1.06744 16.9665 0
      vertex -0.141278 2.24556 0
      vertex 1.06744 16.9665 0
    endloop
  endfacet
  facet normal 0 0 1
    outer loop
      vertex -0.141278 2.24556 0
      vertex -1.06744 16.9665 0
      vertex -0.421607 2.21015 0
    endloop
  endfacet
  facet normal -0 0 1
    outer loop
      vertex -3.18548 16.6989 0
      vertex -0.421607 2.21015 0
      vertex -1.06744 16.9665 0
    endloop
  endfacet
  facet normal 0 0 1
    outer loop
      vertex -0.421607 2.21015 0
      vertex -3.18548 16.6989 0
      vertex -0.695288 2.13988 0
    endloop
  endfacet
  facet normal -0 0 1
    outer loop
      vertex -5.25329 16.168 0
      vertex -0.695288 2.13988 0
      vertex -3.18548 16.6989 0
    endloop
  endfacet
  facet normal 0 0 1
    outer loop
      vertex -0.695288 2.13988 0
      vertex -5.25329 16.168 0
      vertex -0.958003 2.03586 0
    endloop
  endfacet
  facet normal -0 0 1
    outer loop
      vertex -7.23825 15.3821 0
      vertex -0.958003 2.03586 0
      vertex -5.25329 16.168 0
    endloop
  endfacet
  facet normal 0 0 1
    outer loop
      vertex -0.958003 2.03586 0
      vertex -7.23825 15.3821 0
      vertex -1.20561 1.89974 0
    endloop
  endfacet
  facet normal -0 0 1
    outer loop
      vertex -9.10905 14.3536 0
      vertex -1.20561 1.89974 0
      vertex -7.23825 15.3821 0
    endloop
  endfacet
  facet normal 0 0 1
    outer loop
      vertex -1.20561 1.89974 0
      vertex -9.10905 14.3536 0
      vertex -1.4342 1.73365 0
    endloop
  endfacet
  facet normal -0 0 1
    outer loop
      vertex -10.8362 13.0987 0
      vertex -1.4342 1.73365 0
      vertex -9.10905 14.3536 0
    endloop
  endfacet
  facet normal 0 0 1
    outer loop
      vertex -1.4342 1.73365 0
      vertex -10.8362 13.0987 0
      vertex -1.64018 1.54023 0
    endloop
  endfacet
  facet normal 0 0 1
    outer loop
      vertex -1.64018 1.54023 0
      vertex -12.3925 11.6373 0
      vertex -1.82029 1.32252 0
    endloop
  endfacet
  facet normal -0 0 1
    outer loop
      vertex -12.3925 11.6373 0
      vertex -1.64018 1.54023 0
      vertex -10.8362 13.0987 0
    endloop
  endfacet
  facet normal -0 0 1
    outer loop
      vertex 1.64018 -1.54023 0
      vertex 12.3925 -11.6373 0
      vertex 1.82029 -1.32252 0
    endloop
  endfacet
  facet normal 0 0 1
    outer loop
      vertex 12.3925 -11.6373 0
      vertex 1.64018 -1.54023 0
      vertex 10.8362 -13.0987 0
    endloop
  endfacet
  facet normal -0 0 1
    outer loop
      vertex 1.4342 -1.73365 0
      vertex 10.8362 -13.0987 0
      vertex 1.64018 -1.54023 0
    endloop
  endfacet
  facet normal 0 0 1
    outer loop
      vertex 10.8362 -13.0987 0
      vertex 1.4342 -1.73365 0
      vertex 9.10905 -14.3536 0
    endloop
  endfacet
  facet normal -0 0 1
    outer loop
      vertex 1.20561 -1.89974 0
      vertex 9.10905 -14.3536 0
      vertex 1.4342 -1.73365 0
    endloop
  endfacet
  facet normal 0 0 1
    outer loop
      vertex 9.10905 -14.3536 0
      vertex 1.20561 -1.89974 0
      vertex 7.23825 -15.3821 0
    endloop
  endfacet
  facet normal -0 0 1
    outer loop
      vertex 0.958003 -2.03586 0
      vertex 7.23825 -15.3821 0
      vertex 1.20561 -1.89974 0
    endloop
  endfacet
  facet normal 0 0 1
    outer loop
      vertex 7.23825 -15.3821 0
      vertex 0.958003 -2.03586 0
      vertex 5.25329 -16.168 0
    endloop
  endfacet
  facet normal -0 0 1
    outer loop
      vertex 0.695288 -2.13988 0
      vertex 5.25329 -16.168 0
      vertex 0.958003 -2.03586 0
    endloop
  endfacet
  facet normal 0 0 1
    outer loop
      vertex 5.25329 -16.168 0
      vertex 0.695288 -2.13988 0
      vertex 3.18548 -16.6989 0
    endloop
  endfacet
  facet normal -0 0 1
    outer loop
      vertex 0.421607 -2.21015 0
      vertex 3.18548 -16.6989 0
      vertex 0.695288 -2.13988 0
    endloop
  endfacet
  facet normal 0 0 1
    outer loop
      vertex 3.18548 -16.6989 0
      vertex 0.421607 -2.21015 0
      vertex 1.06744 -16.9665 0
    endloop
  endfacet
  facet normal -0 0 1
    outer loop
      vertex 0.141278 -2.24556 0
      vertex 1.06744 -16.9665 0
      vertex 0.421607 -2.21015 0
    endloop
  endfacet
  facet normal -0 0 1
    outer loop
      vertex -0.141278 -2.24556 0
      vertex 1.06744 -16.9665 0
      vertex 0.141278 -2.24556 0
    endloop
  endfacet
  facet normal 0 0 1
    outer loop
      vertex -1.06744 -16.9665 0
      vertex -0.141278 -2.24556 0
      vertex -0.421607 -2.21015 0
    endloop
  endfacet
  facet normal 0 0 1
    outer loop
      vertex -3.18548 -16.6989 0
      vertex -0.421607 -2.21015 0
      vertex -0.695288 -2.13988 0
    endloop
  endfacet
  facet normal 0 0 1
    outer loop
      vertex -5.25329 -16.168 0
      vertex -0.695288 -2.13988 0
      vertex -0.958003 -2.03586 0
    endloop
  endfacet
  facet normal 0 0 1
    outer loop
      vertex -0.141278 -2.24556 0
      vertex -1.06744 -16.9665 0
      vertex 1.06744 -16.9665 0
    endloop
  endfacet
  facet normal 0 0 1
    outer loop
      vertex -7.23825 -15.3821 0
      vertex -0.958003 -2.03586 0
      vertex -1.20561 -1.89974 0
    endloop
  endfacet
  facet normal 0 0 1
    outer loop
      vertex -9.10905 -14.3536 0
      vertex -1.20561 -1.89974 0
      vertex -1.4342 -1.73365 0
    endloop
  endfacet
  facet normal 0 0 1
    outer loop
      vertex -10.8362 -13.0987 0
      vertex -1.4342 -1.73365 0
      vertex -1.64018 -1.54023 0
    endloop
  endfacet
  facet normal 0 0 1
    outer loop
      vertex -12.3925 -11.6373 0
      vertex -1.64018 -1.54023 0
      vertex -1.82029 -1.32252 0
    endloop
  endfacet
  facet normal 0 0 1
    outer loop
      vertex -13.7533 -9.99235 0
      vertex -1.82029 -1.32252 0
      vertex -1.97169 -1.08395 0
    endloop
  endfacet
  facet normal 0 0 1
    outer loop
      vertex -14.8972 -8.18981 0
      vertex -1.97169 -1.08395 0
      vertex -2.092 -0.828279 0
    endloop
  endfacet
  facet normal 0 0 1
    outer loop
      vertex -15.8062 -6.25812 0
      vertex -2.092 -0.828279 0
      vertex -2.17931 -0.559552 0
    endloop
  endfacet
  facet normal 0 0 1
    outer loop
      vertex -16.4659 -4.22773 0
      vertex -2.17931 -0.559552 0
      vertex -2.23226 -0.282 0
    endloop
  endfacet
  facet normal 0 0 1
    outer loop
      vertex -0.421607 -2.21015 0
      vertex -3.18548 -16.6989 0
      vertex -1.06744 -16.9665 0
    endloop
  endfacet
  facet normal 0 0 1
    outer loop
      vertex -16.8659 -2.13066 0
      vertex -2.23226 -0.282 0
      vertex -2.25 0 0
    endloop
  endfacet
  facet normal -0 0 1
    outer loop
      vertex -13.7533 9.99235 0
      vertex -1.82029 1.32252 0
      vertex -12.3925 11.6373 0
    endloop
  endfacet
  facet normal 0 0 1
    outer loop
      vertex -1.82029 1.32252 0
      vertex -13.7533 9.99235 0
      vertex -1.97169 1.08395 0
    endloop
  endfacet
  facet normal 0 0 1
    outer loop
      vertex -0.695288 -2.13988 0
      vertex -5.25329 -16.168 0
      vertex -3.18548 -16.6989 0
    endloop
  endfacet
  facet normal -0 0 1
    outer loop
      vertex -14.8972 8.18981 0
      vertex -1.97169 1.08395 0
      vertex -13.7533 9.99235 0
    endloop
  endfacet
  facet normal 0 0 1
    outer loop
      vertex -0.958003 -2.03586 0
      vertex -7.23825 -15.3821 0
      vertex -5.25329 -16.168 0
    endloop
  endfacet
  facet normal 0 0 1
    outer loop
      vertex -1.97169 1.08395 0
      vertex -14.8972 8.18981 0
      vertex -2.092 0.828279 0
    endloop
  endfacet
  facet normal 0 0 1
    outer loop
      vertex -1.20561 -1.89974 0
      vertex -9.10905 -14.3536 0
      vertex -7.23825 -15.3821 0
    endloop
  endfacet
  facet normal -0 0 1
    outer loop
      vertex -15.8062 6.25812 0
      vertex -2.092 0.828279 0
      vertex -14.8972 8.18981 0
    endloop
  endfacet
  facet normal 0 0 1
    outer loop
      vertex -1.4342 -1.73365 0
      vertex -10.8362 -13.0987 0
      vertex -9.10905 -14.3536 0
    endloop
  endfacet
  facet normal 0 0 1
    outer loop
      vertex -2.092 0.828279 0
      vertex -15.8062 6.25812 0
      vertex -2.17931 0.559552 0
    endloop
  endfacet
  facet normal 0 0 1
    outer loop
      vertex -1.64018 -1.54023 0
      vertex -12.3925 -11.6373 0
      vertex -10.8362 -13.0987 0
    endloop
  endfacet
  facet normal -0 0 1
    outer loop
      vertex -16.4659 4.22773 0
      vertex -2.17931 0.559552 0
      vertex -15.8062 6.25812 0
    endloop
  endfacet
  facet normal 0 0 1
    outer loop
      vertex -1.82029 -1.32252 0
      vertex -13.7533 -9.99235 0
      vertex -12.3925 -11.6373 0
    endloop
  endfacet
  facet normal 0 0 1
    outer loop
      vertex -2.17931 0.559552 0
      vertex -16.4659 4.22773 0
      vertex -2.23226 0.282 0
    endloop
  endfacet
  facet normal 0 0 1
    outer loop
      vertex -1.97169 -1.08395 0
      vertex -14.8972 -8.18981 0
      vertex -13.7533 -9.99235 0
    endloop
  endfacet
  facet normal -0 0 1
    outer loop
      vertex -16.8659 2.13066 0
      vertex -2.23226 0.282 0
      vertex -16.4659 4.22773 0
    endloop
  endfacet
  facet normal 0 0 1
    outer loop
      vertex -2.092 -0.828279 0
      vertex -15.8062 -6.25812 0
      vertex -14.8972 -8.18981 0
    endloop
  endfacet
  facet normal 0 0 1
    outer loop
      vertex -2.23226 0.282 0
      vertex -16.8659 2.13066 0
      vertex -2.25 0 0
    endloop
  endfacet
  facet normal 0 0 1
    outer loop
      vertex -2.17931 -0.559552 0
      vertex -16.4659 -4.22773 0
      vertex -15.8062 -6.25812 0
    endloop
  endfacet
  facet normal 0 0 1
    outer loop
      vertex -17 0 0
      vertex -2.25 0 0
      vertex -16.8659 2.13066 0
    endloop
  endfacet
  facet normal 0 0 1
    outer loop
      vertex -2.23226 -0.282 0
      vertex -16.8659 -2.13066 0
      vertex -16.4659 -4.22773 0
    endloop
  endfacet
  facet normal 0 0 1
    outer loop
      vertex -2.25 0 0
      vertex -17 0 0
      vertex -16.8659 -2.13066 0
    endloop
  endfacet
  facet normal 0.998025 0.062814 0
    outer loop
      vertex 17 0 0
      vertex 16.8659 2.13066 -6
      vertex 16.8659 2.13066 0
    endloop
  endfacet
  facet normal 0.998025 0.062814 0
    outer loop
      vertex 16.8659 2.13066 -6
      vertex 17 0 0
      vertex 17 0 -6
    endloop
  endfacet
  facet normal -0.998025 0.062814 0
    outer loop
      vertex -17 0 -6
      vertex -16.8659 2.13066 0
      vertex -16.8659 2.13066 -6
    endloop
  endfacet
  facet normal -0.998025 0.062814 0
    outer loop
      vertex -16.8659 2.13066 0
      vertex -17 0 -6
      vertex -17 0 0
    endloop
  endfacet
  facet normal 0 1 -0
    outer loop
      vertex 1.06744 16.9665 -6
      vertex -1.06744 16.9665 0
      vertex 1.06744 16.9665 0
    endloop
  endfacet
  facet normal 0 1 0
    outer loop
      vertex -1.06744 16.9665 0
      vertex 1.06744 16.9665 -6
      vertex -1.06744 16.9665 -6
    endloop
  endfacet
  facet normal 0 -1 0
    outer loop
      vertex -1.06744 -16.9665 -6
      vertex 1.06744 -16.9665 0
      vertex -1.06744 -16.9665 0
    endloop
  endfacet
  facet normal 0 -1 -0
    outer loop
      vertex 1.06744 -16.9665 0
      vertex -1.06744 -16.9665 -6
      vertex 1.06744 -16.9665 -6
    endloop
  endfacet
  facet normal 0.684531 0.728983 -0
    outer loop
      vertex 12.3925 11.6373 -6
      vertex 10.8362 13.0987 0
      vertex 12.3925 11.6373 0
    endloop
  endfacet
  facet normal 0.684531 0.728983 0
    outer loop
      vertex 10.8362 13.0987 0
      vertex 12.3925 11.6373 -6
      vertex 10.8362 13.0987 -6
    endloop
  endfacet
  facet normal -0.684531 0.728983 0
    outer loop
      vertex -10.8362 13.0987 -6
      vertex -12.3925 11.6373 0
      vertex -10.8362 13.0987 0
    endloop
  endfacet
  facet normal -0.684531 0.728983 0
    outer loop
      vertex -12.3925 11.6373 0
      vertex -10.8362 13.0987 -6
      vertex -12.3925 11.6373 -6
    endloop
  endfacet
  facet normal -0.368124 0.929777 0
    outer loop
      vertex -5.25329 16.168 -6
      vertex -7.23825 15.3821 0
      vertex -5.25329 16.168 0
    endloop
  endfacet
  facet normal -0.368124 0.929777 0
    outer loop
      vertex -7.23825 15.3821 0
      vertex -5.25329 16.168 -6
      vertex -7.23825 15.3821 -6
    endloop
  endfacet
  facet normal 0.904824 0.425785 0
    outer loop
      vertex 15.8062 6.25812 0
      vertex 14.8972 8.18981 -6
      vertex 14.8972 8.18981 0
    endloop
  endfacet
  facet normal 0.904824 0.425785 0
    outer loop
      vertex 14.8972 8.18981 -6
      vertex 15.8062 6.25812 0
      vertex 15.8062 6.25812 -6
    endloop
  endfacet
  facet normal 0.368124 0.929777 -0
    outer loop
      vertex 7.23825 15.3821 -6
      vertex 5.25329 16.168 0
      vertex 7.23825 15.3821 0
    endloop
  endfacet
  facet normal 0.368124 0.929777 0
    outer loop
      vertex 5.25329 16.168 0
      vertex 7.23825 15.3821 -6
      vertex 5.25329 16.168 -6
    endloop
  endfacet
  facet normal 0.24868 0.968586 -0
    outer loop
      vertex 5.25329 16.168 -6
      vertex 3.18548 16.6989 0
      vertex 5.25329 16.168 0
    endloop
  endfacet
  facet normal 0.24868 0.968586 0
    outer loop
      vertex 3.18548 16.6989 0
      vertex 5.25329 16.168 -6
      vertex 3.18548 16.6989 -6
    endloop
  endfacet
  facet normal 0.481761 0.876303 -0
    outer loop
      vertex 9.10905 14.3536 -6
      vertex 7.23825 15.3821 0
      vertex 9.10905 14.3536 0
    endloop
  endfacet
  facet normal 0.481761 0.876303 0
    outer loop
      vertex 7.23825 15.3821 0
      vertex 9.10905 14.3536 -6
      vertex 7.23825 15.3821 -6
    endloop
  endfacet
  facet normal -0.904824 0.425785 0
    outer loop
      vertex -15.8062 6.25812 -6
      vertex -14.8972 8.18981 0
      vertex -14.8972 8.18981 -6
    endloop
  endfacet
  facet normal -0.904824 0.425785 0
    outer loop
      vertex -14.8972 8.18981 0
      vertex -15.8062 6.25812 -6
      vertex -15.8062 6.25812 0
    endloop
  endfacet
  facet normal -0.125347 0.992113 0
    outer loop
      vertex -1.06744 16.9665 -6
      vertex -3.18548 16.6989 0
      vertex -1.06744 16.9665 0
    endloop
  endfacet
  facet normal -0.125347 0.992113 0
    outer loop
      vertex -3.18548 16.6989 0
      vertex -1.06744 16.9665 -6
      vertex -3.18548 16.6989 -6
    endloop
  endfacet
  facet normal 0.98229 -0.187364 0
    outer loop
      vertex 16.4659 -4.22773 0
      vertex 16.8659 -2.13066 -6
      vertex 16.8659 -2.13066 0
    endloop
  endfacet
  facet normal 0.98229 -0.187364 0
    outer loop
      vertex 16.8659 -2.13066 -6
      vertex 16.4659 -4.22773 0
      vertex 16.4659 -4.22773 -6
    endloop
  endfacet
  facet normal 0 0 -1
    outer loop
      vertex 16.8659 -2.13066 -6
      vertex 16.8659 2.13066 -6
      vertex 17 0 -6
    endloop
  endfacet
  facet normal 0 0 -1
    outer loop
      vertex 16.4659 -4.22773 -6
      vertex 16.8659 2.13066 -6
      vertex 16.8659 -2.13066 -6
    endloop
  endfacet
  facet normal 0 0 -1
    outer loop
      vertex 16.4659 -4.22773 -6
      vertex 16.4659 4.22773 -6
      vertex 16.8659 2.13066 -6
    endloop
  endfacet
  facet normal 0 0 -1
    outer loop
      vertex 15.8062 -6.25812 -6
      vertex 16.4659 4.22773 -6
      vertex 16.4659 -4.22773 -6
    endloop
  endfacet
  facet normal 0 0 -1
    outer loop
      vertex 15.8062 -6.25812 -6
      vertex 15.8062 6.25812 -6
      vertex 16.4659 4.22773 -6
    endloop
  endfacet
  facet normal 0 0 -1
    outer loop
      vertex 14.8972 -8.18981 -6
      vertex 15.8062 6.25812 -6
      vertex 15.8062 -6.25812 -6
    endloop
  endfacet
  facet normal 0 0 -1
    outer loop
      vertex 14.8972 -8.18981 -6
      vertex 14.8972 8.18981 -6
      vertex 15.8062 6.25812 -6
    endloop
  endfacet
  facet normal 0 0 -1
    outer loop
      vertex 13.7533 -9.99235 -6
      vertex 14.8972 8.18981 -6
      vertex 14.8972 -8.18981 -6
    endloop
  endfacet
  facet normal 0 0 -1
    outer loop
      vertex 13.7533 -9.99235 -6
      vertex 13.7533 9.99235 -6
      vertex 14.8972 8.18981 -6
    endloop
  endfacet
  facet normal 0 0 -1
    outer loop
      vertex 12.3925 -11.6373 -6
      vertex 13.7533 9.99235 -6
      vertex 13.7533 -9.99235 -6
    endloop
  endfacet
  facet normal 0 0 -1
    outer loop
      vertex 12.3925 -11.6373 -6
      vertex 12.3925 11.6373 -6
      vertex 13.7533 9.99235 -6
    endloop
  endfacet
  facet normal 0 0 -1
    outer loop
      vertex 10.8362 -13.0987 -6
      vertex 12.3925 11.6373 -6
      vertex 12.3925 -11.6373 -6
    endloop
  endfacet
  facet normal 0 0 -1
    outer loop
      vertex 10.8362 -13.0987 -6
      vertex 10.8362 13.0987 -6
      vertex 12.3925 11.6373 -6
    endloop
  endfacet
  facet normal 0 0 -1
    outer loop
      vertex 9.10905 -14.3536 -6
      vertex 10.8362 13.0987 -6
      vertex 10.8362 -13.0987 -6
    endloop
  endfacet
  facet normal 0 0 -1
    outer loop
      vertex 9.10905 -14.3536 -6
      vertex 9.10905 14.3536 -6
      vertex 10.8362 13.0987 -6
    endloop
  endfacet
  facet normal 0 0 -1
    outer loop
      vertex 7.23825 -15.3821 -6
      vertex 9.10905 14.3536 -6
      vertex 9.10905 -14.3536 -6
    endloop
  endfacet
  facet normal 0 0 -1
    outer loop
      vertex 7.23825 -15.3821 -6
      vertex 7.23825 15.3821 -6
      vertex 9.10905 14.3536 -6
    endloop
  endfacet
  facet normal 0 0 -1
    outer loop
      vertex 5.25329 -16.168 -6
      vertex 7.23825 15.3821 -6
      vertex 7.23825 -15.3821 -6
    endloop
  endfacet
  facet normal 0 0 -1
    outer loop
      vertex 5.25329 -16.168 -6
      vertex 5.25329 16.168 -6
      vertex 7.23825 15.3821 -6
    endloop
  endfacet
  facet normal 0 0 -1
    outer loop
      vertex 3.18548 -16.6989 -6
      vertex 5.25329 16.168 -6
      vertex 5.25329 -16.168 -6
    endloop
  endfacet
  facet normal 0 0 -1
    outer loop
      vertex 3.18548 -16.6989 -6
      vertex 3.18548 16.6989 -6
      vertex 5.25329 16.168 -6
    endloop
  endfacet
  facet normal 0 0 -1
    outer loop
      vertex 1.06744 -16.9665 -6
      vertex 3.18548 16.6989 -6
      vertex 3.18548 -16.6989 -6
    endloop
  endfacet
  facet normal 0 0 -1
    outer loop
      vertex 1.06744 -16.9665 -6
      vertex 1.06744 16.9665 -6
      vertex 3.18548 16.6989 -6
    endloop
  endfacet
  facet normal 0 0 -1
    outer loop
      vertex -1.06744 -16.9665 -6
      vertex 1.06744 16.9665 -6
      vertex 1.06744 -16.9665 -6
    endloop
  endfacet
  facet normal 0 0 -1
    outer loop
      vertex -1.06744 -16.9665 -6
      vertex -1.06744 16.9665 -6
      vertex 1.06744 16.9665 -6
    endloop
  endfacet
  facet normal 0 0 -1
    outer loop
      vertex -3.18548 -16.6989 -6
      vertex -1.06744 16.9665 -6
      vertex -1.06744 -16.9665 -6
    endloop
  endfacet
  facet normal 0 0 -1
    outer loop
      vertex -3.18548 -16.6989 -6
      vertex -3.18548 16.6989 -6
      vertex -1.06744 16.9665 -6
    endloop
  endfacet
  facet normal 0 0 -1
    outer loop
      vertex -5.25329 -16.168 -6
      vertex -3.18548 16.6989 -6
      vertex -3.18548 -16.6989 -6
    endloop
  endfacet
  facet normal 0 0 -1
    outer loop
      vertex -5.25329 -16.168 -6
      vertex -5.25329 16.168 -6
      vertex -3.18548 16.6989 -6
    endloop
  endfacet
  facet normal 0 0 -1
    outer loop
      vertex -7.23825 -15.3821 -6
      vertex -5.25329 16.168 -6
      vertex -5.25329 -16.168 -6
    endloop
  endfacet
  facet normal 0 0 -1
    outer loop
      vertex -7.23825 -15.3821 -6
      vertex -7.23825 15.3821 -6
      vertex -5.25329 16.168 -6
    endloop
  endfacet
  facet normal 0 0 -1
    outer loop
      vertex -9.10905 -14.3536 -6
      vertex -7.23825 15.3821 -6
      vertex -7.23825 -15.3821 -6
    endloop
  endfacet
  facet normal 0 0 -1
    outer loop
      vertex -9.10905 -14.3536 -6
      vertex -9.10905 14.3536 -6
      vertex -7.23825 15.3821 -6
    endloop
  endfacet
  facet normal 0 0 -1
    outer loop
      vertex -10.8362 -13.0987 -6
      vertex -9.10905 14.3536 -6
      vertex -9.10905 -14.3536 -6
    endloop
  endfacet
  facet normal 0 0 -1
    outer loop
      vertex -10.8362 -13.0987 -6
      vertex -10.8362 13.0987 -6
      vertex -9.10905 14.3536 -6
    endloop
  endfacet
  facet normal 0 0 -1
    outer loop
      vertex -12.3925 -11.6373 -6
      vertex -10.8362 13.0987 -6
      vertex -10.8362 -13.0987 -6
    endloop
  endfacet
  facet normal 0 0 -1
    outer loop
      vertex -12.3925 -11.6373 -6
      vertex -12.3925 11.6373 -6
      vertex -10.8362 13.0987 -6
    endloop
  endfacet
  facet normal 0 0 -1
    outer loop
      vertex -13.7533 -9.99235 -6
      vertex -12.3925 11.6373 -6
      vertex -12.3925 -11.6373 -6
    endloop
  endfacet
  facet normal 0 0 -1
    outer loop
      vertex -13.7533 -9.99235 -6
      vertex -13.7533 9.99235 -6
      vertex -12.3925 11.6373 -6
    endloop
  endfacet
  facet normal 0 0 -1
    outer loop
      vertex -14.8972 -8.18981 -6
      vertex -13.7533 9.99235 -6
      vertex -13.7533 -9.99235 -6
    endloop
  endfacet
  facet normal 0 0 -1
    outer loop
      vertex -14.8972 -8.18981 -6
      vertex -14.8972 8.18981 -6
      vertex -13.7533 9.99235 -6
    endloop
  endfacet
  facet normal 0 0 -1
    outer loop
      vertex -15.8062 -6.25812 -6
      vertex -14.8972 8.18981 -6
      vertex -14.8972 -8.18981 -6
    endloop
  endfacet
  facet normal 0 0 -1
    outer loop
      vertex -15.8062 -6.25812 -6
      vertex -15.8062 6.25812 -6
      vertex -14.8972 8.18981 -6
    endloop
  endfacet
  facet normal 0 0 -1
    outer loop
      vertex -16.4659 -4.22773 -6
      vertex -15.8062 6.25812 -6
      vertex -15.8062 -6.25812 -6
    endloop
  endfacet
  facet normal 0 0 -1
    outer loop
      vertex -16.4659 -4.22773 -6
      vertex -16.4659 4.22773 -6
      vertex -15.8062 6.25812 -6
    endloop
  endfacet
  facet normal 0 0 -1
    outer loop
      vertex -16.8659 -2.13066 -6
      vertex -16.4659 4.22773 -6
      vertex -16.4659 -4.22773 -6
    endloop
  endfacet
  facet normal 0 0 -1
    outer loop
      vertex -16.8659 -2.13066 -6
      vertex -16.8659 2.13066 -6
      vertex -16.4659 4.22773 -6
    endloop
  endfacet
  facet normal 0 -0 -1
    outer loop
      vertex -16.8659 2.13066 -6
      vertex -16.8659 -2.13066 -6
      vertex -17 0 -6
    endloop
  endfacet
  facet normal 0.125347 -0.992113 0
    outer loop
      vertex 1.06744 -16.9665 -6
      vertex 3.18548 -16.6989 0
      vertex 1.06744 -16.9665 0
    endloop
  endfacet
  facet normal 0.125347 -0.992113 0
    outer loop
      vertex 3.18548 -16.6989 0
      vertex 1.06744 -16.9665 -6
      vertex 3.18548 -16.6989 -6
    endloop
  endfacet
  facet normal 0.951058 0.309011 0
    outer loop
      vertex 16.4659 4.22773 0
      vertex 15.8062 6.25812 -6
      vertex 15.8062 6.25812 0
    endloop
  endfacet
  facet normal 0.951058 0.309011 0
    outer loop
      vertex 15.8062 6.25812 -6
      vertex 16.4659 4.22773 0
      vertex 16.4659 4.22773 -6
    endloop
  endfacet
  facet normal 0.98229 0.187364 0
    outer loop
      vertex 16.8659 2.13066 0
      vertex 16.4659 4.22773 -6
      vertex 16.4659 4.22773 0
    endloop
  endfacet
  facet normal 0.98229 0.187364 0
    outer loop
      vertex 16.4659 4.22773 -6
      vertex 16.8659 2.13066 0
      vertex 16.8659 2.13066 -6
    endloop
  endfacet
  facet normal 0.770518 0.637418 0
    outer loop
      vertex 13.7533 9.99235 0
      vertex 12.3925 11.6373 -6
      vertex 12.3925 11.6373 0
    endloop
  endfacet
  facet normal 0.770518 0.637418 0
    outer loop
      vertex 12.3925 11.6373 -6
      vertex 13.7533 9.99235 0
      vertex 13.7533 9.99235 -6
    endloop
  endfacet
  facet normal 0.844334 0.535818 0
    outer loop
      vertex 14.8972 8.18981 0
      vertex 13.7533 9.99235 -6
      vertex 13.7533 9.99235 0
    endloop
  endfacet
  facet normal 0.844334 0.535818 0
    outer loop
      vertex 13.7533 9.99235 -6
      vertex 14.8972 8.18981 0
      vertex 14.8972 8.18981 -6
    endloop
  endfacet
  facet normal 0.125347 0.992113 -0
    outer loop
      vertex 3.18548 16.6989 -6
      vertex 1.06744 16.9665 0
      vertex 3.18548 16.6989 0
    endloop
  endfacet
  facet normal 0.125347 0.992113 0
    outer loop
      vertex 1.06744 16.9665 0
      vertex 3.18548 16.6989 -6
      vertex 1.06744 16.9665 -6
    endloop
  endfacet
  facet normal 0.587801 0.809005 -0
    outer loop
      vertex 10.8362 13.0987 -6
      vertex 9.10905 14.3536 0
      vertex 10.8362 13.0987 0
    endloop
  endfacet
  facet normal 0.587801 0.809005 0
    outer loop
      vertex 9.10905 14.3536 0
      vertex 10.8362 13.0987 -6
      vertex 9.10905 14.3536 -6
    endloop
  endfacet
  facet normal -0.844334 0.535818 0
    outer loop
      vertex -14.8972 8.18981 -6
      vertex -13.7533 9.99235 0
      vertex -13.7533 9.99235 -6
    endloop
  endfacet
  facet normal -0.844334 0.535818 0
    outer loop
      vertex -13.7533 9.99235 0
      vertex -14.8972 8.18981 -6
      vertex -14.8972 8.18981 0
    endloop
  endfacet
  facet normal -0.770518 0.637418 0
    outer loop
      vertex -13.7533 9.99235 -6
      vertex -12.3925 11.6373 0
      vertex -12.3925 11.6373 -6
    endloop
  endfacet
  facet normal -0.770518 0.637418 0
    outer loop
      vertex -12.3925 11.6373 0
      vertex -13.7533 9.99235 -6
      vertex -13.7533 9.99235 0
    endloop
  endfacet
  facet normal -0.951058 0.309011 0
    outer loop
      vertex -16.4659 4.22773 -6
      vertex -15.8062 6.25812 0
      vertex -15.8062 6.25812 -6
    endloop
  endfacet
  facet normal -0.951058 0.309011 0
    outer loop
      vertex -15.8062 6.25812 0
      vertex -16.4659 4.22773 -6
      vertex -16.4659 4.22773 0
    endloop
  endfacet
  facet normal -0.98229 0.187364 0
    outer loop
      vertex -16.8659 2.13066 -6
      vertex -16.4659 4.22773 0
      vertex -16.4659 4.22773 -6
    endloop
  endfacet
  facet normal -0.98229 0.187364 0
    outer loop
      vertex -16.4659 4.22773 0
      vertex -16.8659 2.13066 -6
      vertex -16.8659 2.13066 0
    endloop
  endfacet
  facet normal -0.481761 0.876303 0
    outer loop
      vertex -7.23825 15.3821 -6
      vertex -9.10905 14.3536 0
      vertex -7.23825 15.3821 0
    endloop
  endfacet
  facet normal -0.481761 0.876303 0
    outer loop
      vertex -9.10905 14.3536 0
      vertex -7.23825 15.3821 -6
      vertex -9.10905 14.3536 -6
    endloop
  endfacet
  facet normal -0.587801 0.809005 0
    outer loop
      vertex -9.10905 14.3536 -6
      vertex -10.8362 13.0987 0
      vertex -9.10905 14.3536 0
    endloop
  endfacet
  facet normal -0.587801 0.809005 0
    outer loop
      vertex -10.8362 13.0987 0
      vertex -9.10905 14.3536 -6
      vertex -10.8362 13.0987 -6
    endloop
  endfacet
  facet normal -0.24868 0.968586 0
    outer loop
      vertex -3.18548 16.6989 -6
      vertex -5.25329 16.168 0
      vertex -3.18548 16.6989 0
    endloop
  endfacet
  facet normal -0.24868 0.968586 0
    outer loop
      vertex -5.25329 16.168 0
      vertex -3.18548 16.6989 -6
      vertex -5.25329 16.168 -6
    endloop
  endfacet
  facet normal 0.998025 -0.062814 0
    outer loop
      vertex 16.8659 -2.13066 0
      vertex 17 0 -6
      vertex 17 0 0
    endloop
  endfacet
  facet normal 0.998025 -0.062814 0
    outer loop
      vertex 17 0 -6
      vertex 16.8659 -2.13066 0
      vertex 16.8659 -2.13066 -6
    endloop
  endfacet
  facet normal 0.904824 -0.425785 0
    outer loop
      vertex 14.8972 -8.18981 0
      vertex 15.8062 -6.25812 -6
      vertex 15.8062 -6.25812 0
    endloop
  endfacet
  facet normal 0.904824 -0.425785 0
    outer loop
      vertex 15.8062 -6.25812 -6
      vertex 14.8972 -8.18981 0
      vertex 14.8972 -8.18981 -6
    endloop
  endfacet
  facet normal -0.684531 -0.728983 0
    outer loop
      vertex -12.3925 -11.6373 -6
      vertex -10.8362 -13.0987 0
      vertex -12.3925 -11.6373 0
    endloop
  endfacet
  facet normal -0.684531 -0.728983 -0
    outer loop
      vertex -10.8362 -13.0987 0
      vertex -12.3925 -11.6373 -6
      vertex -10.8362 -13.0987 -6
    endloop
  endfacet
  facet normal -0.904824 -0.425785 0
    outer loop
      vertex -14.8972 -8.18981 -6
      vertex -15.8062 -6.25812 0
      vertex -15.8062 -6.25812 -6
    endloop
  endfacet
  facet normal -0.904824 -0.425785 0
    outer loop
      vertex -15.8062 -6.25812 0
      vertex -14.8972 -8.18981 -6
      vertex -14.8972 -8.18981 0
    endloop
  endfacet
  facet normal -0.844334 -0.535818 0
    outer loop
      vertex -13.7533 -9.99235 -6
      vertex -14.8972 -8.18981 0
      vertex -14.8972 -8.18981 -6
    endloop
  endfacet
  facet normal -0.844334 -0.535818 0
    outer loop
      vertex -14.8972 -8.18981 0
      vertex -13.7533 -9.99235 -6
      vertex -13.7533 -9.99235 0
    endloop
  endfacet
  facet normal -0.998025 -0.062814 0
    outer loop
      vertex -16.8659 -2.13066 -6
      vertex -17 0 0
      vertex -17 0 -6
    endloop
  endfacet
  facet normal -0.998025 -0.062814 0
    outer loop
      vertex -17 0 0
      vertex -16.8659 -2.13066 -6
      vertex -16.8659 -2.13066 0
    endloop
  endfacet
  facet normal 0.481761 -0.876303 0
    outer loop
      vertex 7.23825 -15.3821 -6
      vertex 9.10905 -14.3536 0
      vertex 7.23825 -15.3821 0
    endloop
  endfacet
  facet normal 0.481761 -0.876303 0
    outer loop
      vertex 9.10905 -14.3536 0
      vertex 7.23825 -15.3821 -6
      vertex 9.10905 -14.3536 -6
    endloop
  endfacet
  facet normal 0.951058 -0.309011 0
    outer loop
      vertex 15.8062 -6.25812 0
      vertex 16.4659 -4.22773 -6
      vertex 16.4659 -4.22773 0
    endloop
  endfacet
  facet normal 0.951058 -0.309011 0
    outer loop
      vertex 16.4659 -4.22773 -6
      vertex 15.8062 -6.25812 0
      vertex 15.8062 -6.25812 -6
    endloop
  endfacet
  facet normal 0.770518 -0.637418 0
    outer loop
      vertex 12.3925 -11.6373 0
      vertex 13.7533 -9.99235 -6
      vertex 13.7533 -9.99235 0
    endloop
  endfacet
  facet normal 0.770518 -0.637418 0
    outer loop
      vertex 13.7533 -9.99235 -6
      vertex 12.3925 -11.6373 0
      vertex 12.3925 -11.6373 -6
    endloop
  endfacet
  facet normal -0.770518 -0.637418 0
    outer loop
      vertex -12.3925 -11.6373 -6
      vertex -13.7533 -9.99235 0
      vertex -13.7533 -9.99235 -6
    endloop
  endfacet
  facet normal -0.770518 -0.637418 0
    outer loop
      vertex -13.7533 -9.99235 0
      vertex -12.3925 -11.6373 -6
      vertex -12.3925 -11.6373 0
    endloop
  endfacet
  facet normal -0.98229 -0.187364 0
    outer loop
      vertex -16.4659 -4.22773 -6
      vertex -16.8659 -2.13066 0
      vertex -16.8659 -2.13066 -6
    endloop
  endfacet
  facet normal -0.98229 -0.187364 0
    outer loop
      vertex -16.8659 -2.13066 0
      vertex -16.4659 -4.22773 -6
      vertex -16.4659 -4.22773 0
    endloop
  endfacet
  facet normal -0.951058 -0.309011 0
    outer loop
      vertex -15.8062 -6.25812 -6
      vertex -16.4659 -4.22773 0
      vertex -16.4659 -4.22773 -6
    endloop
  endfacet
  facet normal -0.951058 -0.309011 0
    outer loop
      vertex -16.4659 -4.22773 0
      vertex -15.8062 -6.25812 -6
      vertex -15.8062 -6.25812 0
    endloop
  endfacet
  facet normal 0.684531 -0.728983 0
    outer loop
      vertex 10.8362 -13.0987 -6
      vertex 12.3925 -11.6373 0
      vertex 10.8362 -13.0987 0
    endloop
  endfacet
  facet normal 0.684531 -0.728983 0
    outer loop
      vertex 12.3925 -11.6373 0
      vertex 10.8362 -13.0987 -6
      vertex 12.3925 -11.6373 -6
    endloop
  endfacet
  facet normal 0.368124 -0.929777 0
    outer loop
      vertex 5.25329 -16.168 -6
      vertex 7.23825 -15.3821 0
      vertex 5.25329 -16.168 0
    endloop
  endfacet
  facet normal 0.368124 -0.929777 0
    outer loop
      vertex 7.23825 -15.3821 0
      vertex 5.25329 -16.168 -6
      vertex 7.23825 -15.3821 -6
    endloop
  endfacet
  facet normal 0.24868 -0.968586 0
    outer loop
      vertex 3.18548 -16.6989 -6
      vertex 5.25329 -16.168 0
      vertex 3.18548 -16.6989 0
    endloop
  endfacet
  facet normal 0.24868 -0.968586 0
    outer loop
      vertex 5.25329 -16.168 0
      vertex 3.18548 -16.6989 -6
      vertex 5.25329 -16.168 -6
    endloop
  endfacet
  facet normal 0.844334 -0.535818 0
    outer loop
      vertex 13.7533 -9.99235 0
      vertex 14.8972 -8.18981 -6
      vertex 14.8972 -8.18981 0
    endloop
  endfacet
  facet normal 0.844334 -0.535818 0
    outer loop
      vertex 14.8972 -8.18981 -6
      vertex 13.7533 -9.99235 0
      vertex 13.7533 -9.99235 -6
    endloop
  endfacet
  facet normal -0.24868 -0.968586 0
    outer loop
      vertex -5.25329 -16.168 -6
      vertex -3.18548 -16.6989 0
      vertex -5.25329 -16.168 0
    endloop
  endfacet
  facet normal -0.24868 -0.968586 -0
    outer loop
      vertex -3.18548 -16.6989 0
      vertex -5.25329 -16.168 -6
      vertex -3.18548 -16.6989 -6
    endloop
  endfacet
  facet normal -0.368124 -0.929777 0
    outer loop
      vertex -7.23825 -15.3821 -6
      vertex -5.25329 -16.168 0
      vertex -7.23825 -15.3821 0
    endloop
  endfacet
  facet normal -0.368124 -0.929777 -0
    outer loop
      vertex -5.25329 -16.168 0
      vertex -7.23825 -15.3821 -6
      vertex -5.25329 -16.168 -6
    endloop
  endfacet
  facet normal -0.125347 -0.992113 0
    outer loop
      vertex -3.18548 -16.6989 -6
      vertex -1.06744 -16.9665 0
      vertex -3.18548 -16.6989 0
    endloop
  endfacet
  facet normal -0.125347 -0.992113 -0
    outer loop
      vertex -1.06744 -16.9665 0
      vertex -3.18548 -16.6989 -6
      vertex -1.06744 -16.9665 -6
    endloop
  endfacet
  facet normal -0.587801 -0.809005 0
    outer loop
      vertex -10.8362 -13.0987 -6
      vertex -9.10905 -14.3536 0
      vertex -10.8362 -13.0987 0
    endloop
  endfacet
  facet normal -0.587801 -0.809005 -0
    outer loop
      vertex -9.10905 -14.3536 0
      vertex -10.8362 -13.0987 -6
      vertex -9.10905 -14.3536 -6
    endloop
  endfacet
  facet normal -0.481761 -0.876303 0
    outer loop
      vertex -9.10905 -14.3536 -6
      vertex -7.23825 -15.3821 0
      vertex -9.10905 -14.3536 0
    endloop
  endfacet
  facet normal -0.481761 -0.876303 -0
    outer loop
      vertex -7.23825 -15.3821 0
      vertex -9.10905 -14.3536 -6
      vertex -7.23825 -15.3821 -6
    endloop
  endfacet
  facet normal 0.587801 -0.809005 0
    outer loop
      vertex 9.10905 -14.3536 -6
      vertex 10.8362 -13.0987 0
      vertex 9.10905 -14.3536 0
    endloop
  endfacet
  facet normal 0.587801 -0.809005 0
    outer loop
      vertex 10.8362 -13.0987 0
      vertex 9.10905 -14.3536 -6
      vertex 10.8362 -13.0987 -6
    endloop
  endfacet
  facet normal -0.998027 -0.0627837 0
    outer loop
      vertex 2.25 0 -3
      vertex 2.23226 0.282 0
      vertex 2.23226 0.282 -3
    endloop
  endfacet
  facet normal -0.998027 -0.0627837 0
    outer loop
      vertex 2.23226 0.282 0
      vertex 2.25 0 -3
      vertex 2.25 0 0
    endloop
  endfacet
  facet normal 0.998027 -0.0627837 0
    outer loop
      vertex -2.25 0 0
      vertex -2.23226 0.282 -3
      vertex -2.23226 0.282 0
    endloop
  endfacet
  facet normal 0.998027 -0.0627837 0
    outer loop
      vertex -2.23226 0.282 -3
      vertex -2.25 0 0
      vertex -2.25 0 -3
    endloop
  endfacet
  facet normal 0 -1 0
    outer loop
      vertex -0.141278 2.24556 -3
      vertex 0.141278 2.24556 0
      vertex -0.141278 2.24556 0
    endloop
  endfacet
  facet normal 0 -1 -0
    outer loop
      vertex 0.141278 2.24556 0
      vertex -0.141278 2.24556 -3
      vertex 0.141278 2.24556 -3
    endloop
  endfacet
  facet normal 0 1 -0
    outer loop
      vertex 0.141278 -2.24556 -3
      vertex -0.141278 -2.24556 0
      vertex 0.141278 -2.24556 0
    endloop
  endfacet
  facet normal 0 1 0
    outer loop
      vertex -0.141278 -2.24556 0
      vertex 0.141278 -2.24556 -3
      vertex -0.141278 -2.24556 -3
    endloop
  endfacet
  facet normal -0.684532 -0.728983 0
    outer loop
      vertex 1.4342 1.73365 -3
      vertex 1.64018 1.54023 0
      vertex 1.4342 1.73365 0
    endloop
  endfacet
  facet normal -0.684532 -0.728983 -0
    outer loop
      vertex 1.64018 1.54023 0
      vertex 1.4342 1.73365 -3
      vertex 1.64018 1.54023 -3
    endloop
  endfacet
  facet normal 0.684532 -0.728983 0
    outer loop
      vertex -1.64018 1.54023 -3
      vertex -1.4342 1.73365 0
      vertex -1.64018 1.54023 0
    endloop
  endfacet
  facet normal 0.684532 -0.728983 0
    outer loop
      vertex -1.4342 1.73365 0
      vertex -1.64018 1.54023 -3
      vertex -1.4342 1.73365 -3
    endloop
  endfacet
  facet normal 0.368136 -0.929772 0
    outer loop
      vertex -0.958003 2.03586 -3
      vertex -0.695288 2.13988 0
      vertex -0.958003 2.03586 0
    endloop
  endfacet
  facet normal 0.368136 -0.929772 0
    outer loop
      vertex -0.695288 2.13988 0
      vertex -0.958003 2.03586 -3
      vertex -0.695288 2.13988 -3
    endloop
  endfacet
  facet normal -0.904827 -0.42578 0
    outer loop
      vertex 2.092 0.828279 -3
      vertex 1.97169 1.08395 0
      vertex 1.97169 1.08395 -3
    endloop
  endfacet
  facet normal -0.904827 -0.42578 0
    outer loop
      vertex 1.97169 1.08395 0
      vertex 2.092 0.828279 -3
      vertex 2.092 0.828279 0
    endloop
  endfacet
  facet normal -0.982285 -0.187395 0
    outer loop
      vertex 2.23226 0.282 -3
      vertex 2.17931 0.559552 0
      vertex 2.17931 0.559552 -3
    endloop
  endfacet
  facet normal -0.982285 -0.187395 0
    outer loop
      vertex 2.17931 0.559552 0
      vertex 2.23226 0.282 -3
      vertex 2.23226 0.282 0
    endloop
  endfacet
  facet normal -0.368136 -0.929772 0
    outer loop
      vertex 0.695288 2.13988 -3
      vertex 0.958003 2.03586 0
      vertex 0.695288 2.13988 0
    endloop
  endfacet
  facet normal -0.368136 -0.929772 -0
    outer loop
      vertex 0.958003 2.03586 0
      vertex 0.695288 2.13988 -3
      vertex 0.958003 2.03586 -3
    endloop
  endfacet
  facet normal -0.248692 -0.968583 0
    outer loop
      vertex 0.421607 2.21015 -3
      vertex 0.695288 2.13988 0
      vertex 0.421607 2.21015 0
    endloop
  endfacet
  facet normal -0.248692 -0.968583 -0
    outer loop
      vertex 0.695288 2.13988 0
      vertex 0.421607 2.21015 -3
      vertex 0.695288 2.13988 -3
    endloop
  endfacet
  facet normal -0.587808 -0.809001 0
    outer loop
      vertex 1.20561 1.89974 -3
      vertex 1.4342 1.73365 0
      vertex 1.20561 1.89974 0
    endloop
  endfacet
  facet normal -0.587808 -0.809001 -0
    outer loop
      vertex 1.4342 1.73365 0
      vertex 1.20561 1.89974 -3
      vertex 1.4342 1.73365 -3
    endloop
  endfacet
  facet normal 0.84433 -0.535824 0
    outer loop
      vertex -1.97169 1.08395 0
      vertex -1.82029 1.32252 -3
      vertex -1.82029 1.32252 0
    endloop
  endfacet
  facet normal 0.84433 -0.535824 0
    outer loop
      vertex -1.82029 1.32252 -3
      vertex -1.97169 1.08395 0
      vertex -1.97169 1.08395 -3
    endloop
  endfacet
  facet normal 0.770505 -0.637434 0
    outer loop
      vertex -1.82029 1.32252 0
      vertex -1.64018 1.54023 -3
      vertex -1.64018 1.54023 0
    endloop
  endfacet
  facet normal 0.770505 -0.637434 0
    outer loop
      vertex -1.64018 1.54023 -3
      vertex -1.82029 1.32252 0
      vertex -1.82029 1.32252 -3
    endloop
  endfacet
  facet normal 0.951061 -0.309002 0
    outer loop
      vertex -2.17931 0.559552 0
      vertex -2.092 0.828279 -3
      vertex -2.092 0.828279 0
    endloop
  endfacet
  facet normal 0.951061 -0.309002 0
    outer loop
      vertex -2.092 0.828279 -3
      vertex -2.17931 0.559552 0
      vertex -2.17931 0.559552 -3
    endloop
  endfacet
  facet normal 0.481745 -0.876311 0
    outer loop
      vertex -1.20561 1.89974 -3
      vertex -0.958003 2.03586 0
      vertex -1.20561 1.89974 0
    endloop
  endfacet
  facet normal 0.481745 -0.876311 0
    outer loop
      vertex -0.958003 2.03586 0
      vertex -1.20561 1.89974 -3
      vertex -0.958003 2.03586 -3
    endloop
  endfacet
  facet normal 0.12532 -0.992116 0
    outer loop
      vertex -0.421607 2.21015 -3
      vertex -0.141278 2.24556 0
      vertex -0.421607 2.21015 0
    endloop
  endfacet
  facet normal 0.12532 -0.992116 0
    outer loop
      vertex -0.141278 2.24556 0
      vertex -0.421607 2.21015 -3
      vertex -0.141278 2.24556 -3
    endloop
  endfacet
  facet normal -0.12532 0.992116 0
    outer loop
      vertex 0.421607 -2.21015 -3
      vertex 0.141278 -2.24556 0
      vertex 0.421607 -2.21015 0
    endloop
  endfacet
  facet normal -0.12532 0.992116 0
    outer loop
      vertex 0.141278 -2.24556 0
      vertex 0.421607 -2.21015 -3
      vertex 0.141278 -2.24556 -3
    endloop
  endfacet
  facet normal -0.951061 -0.309002 0
    outer loop
      vertex 2.17931 0.559552 -3
      vertex 2.092 0.828279 0
      vertex 2.092 0.828279 -3
    endloop
  endfacet
  facet normal -0.951061 -0.309002 0
    outer loop
      vertex 2.092 0.828279 0
      vertex 2.17931 0.559552 -3
      vertex 2.17931 0.559552 0
    endloop
  endfacet
  facet normal -0.770505 -0.637434 0
    outer loop
      vertex 1.82029 1.32252 -3
      vertex 1.64018 1.54023 0
      vertex 1.64018 1.54023 -3
    endloop
  endfacet
  facet normal -0.770505 -0.637434 0
    outer loop
      vertex 1.64018 1.54023 0
      vertex 1.82029 1.32252 -3
      vertex 1.82029 1.32252 0
    endloop
  endfacet
  facet normal -0.84433 -0.535824 0
    outer loop
      vertex 1.97169 1.08395 -3
      vertex 1.82029 1.32252 0
      vertex 1.82029 1.32252 -3
    endloop
  endfacet
  facet normal -0.84433 -0.535824 0
    outer loop
      vertex 1.82029 1.32252 0
      vertex 1.97169 1.08395 -3
      vertex 1.97169 1.08395 0
    endloop
  endfacet
  facet normal -0.12532 -0.992116 0
    outer loop
      vertex 0.141278 2.24556 -3
      vertex 0.421607 2.21015 0
      vertex 0.141278 2.24556 0
    endloop
  endfacet
  facet normal -0.12532 -0.992116 -0
    outer loop
      vertex 0.421607 2.21015 0
      vertex 0.141278 2.24556 -3
      vertex 0.421607 2.21015 -3
    endloop
  endfacet
  facet normal 0.904827 -0.42578 0
    outer loop
      vertex -2.092 0.828279 0
      vertex -1.97169 1.08395 -3
      vertex -1.97169 1.08395 0
    endloop
  endfacet
  facet normal 0.904827 -0.42578 0
    outer loop
      vertex -1.97169 1.08395 -3
      vertex -2.092 0.828279 0
      vertex -2.092 0.828279 -3
    endloop
  endfacet
  facet normal 0.982285 -0.187395 0
    outer loop
      vertex -2.23226 0.282 0
      vertex -2.17931 0.559552 -3
      vertex -2.17931 0.559552 0
    endloop
  endfacet
  facet normal 0.982285 -0.187395 0
    outer loop
      vertex -2.17931 0.559552 -3
      vertex -2.23226 0.282 0
      vertex -2.23226 0.282 -3
    endloop
  endfacet
  facet normal -0.998027 0.0627837 0
    outer loop
      vertex 2.23226 -0.282 -3
      vertex 2.25 0 0
      vertex 2.25 0 -3
    endloop
  endfacet
  facet normal -0.998027 0.0627837 0
    outer loop
      vertex 2.25 0 0
      vertex 2.23226 -0.282 -3
      vertex 2.23226 -0.282 0
    endloop
  endfacet
  facet normal -0.84433 0.535824 0
    outer loop
      vertex 1.82029 -1.32252 -3
      vertex 1.97169 -1.08395 0
      vertex 1.97169 -1.08395 -3
    endloop
  endfacet
  facet normal -0.84433 0.535824 0
    outer loop
      vertex 1.97169 -1.08395 0
      vertex 1.82029 -1.32252 -3
      vertex 1.82029 -1.32252 0
    endloop
  endfacet
  facet normal -0.982285 0.187395 0
    outer loop
      vertex 2.17931 -0.559552 -3
      vertex 2.23226 -0.282 0
      vertex 2.23226 -0.282 -3
    endloop
  endfacet
  facet normal -0.982285 0.187395 0
    outer loop
      vertex 2.23226 -0.282 0
      vertex 2.17931 -0.559552 -3
      vertex 2.17931 -0.559552 0
    endloop
  endfacet
  facet normal 0.481745 0.876311 -0
    outer loop
      vertex -0.958003 -2.03586 -3
      vertex -1.20561 -1.89974 0
      vertex -0.958003 -2.03586 0
    endloop
  endfacet
  facet normal 0.481745 0.876311 0
    outer loop
      vertex -1.20561 -1.89974 0
      vertex -0.958003 -2.03586 -3
      vertex -1.20561 -1.89974 -3
    endloop
  endfacet
  facet normal 0 0 1
    outer loop
      vertex 2.23226 0.282 -3
      vertex 2.23226 -0.282 -3
      vertex 2.25 0 -3
    endloop
  endfacet
  facet normal 0 0 1
    outer loop
      vertex 2.17931 0.559552 -3
      vertex 2.23226 -0.282 -3
      vertex 2.23226 0.282 -3
    endloop
  endfacet
  facet normal 0 0 1
    outer loop
      vertex 2.17931 0.559552 -3
      vertex 2.17931 -0.559552 -3
      vertex 2.23226 -0.282 -3
    endloop
  endfacet
  facet normal 0 0 1
    outer loop
      vertex 2.092 0.828279 -3
      vertex 2.17931 -0.559552 -3
      vertex 2.17931 0.559552 -3
    endloop
  endfacet
  facet normal 0 0 1
    outer loop
      vertex 2.092 0.828279 -3
      vertex 2.092 -0.828279 -3
      vertex 2.17931 -0.559552 -3
    endloop
  endfacet
  facet normal 0 0 1
    outer loop
      vertex 1.97169 1.08395 -3
      vertex 2.092 -0.828279 -3
      vertex 2.092 0.828279 -3
    endloop
  endfacet
  facet normal 0 0 1
    outer loop
      vertex 1.97169 1.08395 -3
      vertex 1.97169 -1.08395 -3
      vertex 2.092 -0.828279 -3
    endloop
  endfacet
  facet normal 0 0 1
    outer loop
      vertex 1.82029 1.32252 -3
      vertex 1.97169 -1.08395 -3
      vertex 1.97169 1.08395 -3
    endloop
  endfacet
  facet normal 0 0 1
    outer loop
      vertex 1.82029 1.32252 -3
      vertex 1.82029 -1.32252 -3
      vertex 1.97169 -1.08395 -3
    endloop
  endfacet
  facet normal 0 0 1
    outer loop
      vertex 1.64018 1.54023 -3
      vertex 1.82029 -1.32252 -3
      vertex 1.82029 1.32252 -3
    endloop
  endfacet
  facet normal 0 0 1
    outer loop
      vertex 1.64018 1.54023 -3
      vertex 1.64018 -1.54023 -3
      vertex 1.82029 -1.32252 -3
    endloop
  endfacet
  facet normal 0 0 1
    outer loop
      vertex 1.4342 1.73365 -3
      vertex 1.64018 -1.54023 -3
      vertex 1.64018 1.54023 -3
    endloop
  endfacet
  facet normal 0 0 1
    outer loop
      vertex 1.4342 1.73365 -3
      vertex 1.4342 -1.73365 -3
      vertex 1.64018 -1.54023 -3
    endloop
  endfacet
  facet normal 0 0 1
    outer loop
      vertex 1.20561 1.89974 -3
      vertex 1.4342 -1.73365 -3
      vertex 1.4342 1.73365 -3
    endloop
  endfacet
  facet normal 0 0 1
    outer loop
      vertex 1.20561 1.89974 -3
      vertex 1.20561 -1.89974 -3
      vertex 1.4342 -1.73365 -3
    endloop
  endfacet
  facet normal 0 0 1
    outer loop
      vertex 0.958003 2.03586 -3
      vertex 1.20561 -1.89974 -3
      vertex 1.20561 1.89974 -3
    endloop
  endfacet
  facet normal 0 0 1
    outer loop
      vertex 0.958003 2.03586 -3
      vertex 0.958003 -2.03586 -3
      vertex 1.20561 -1.89974 -3
    endloop
  endfacet
  facet normal 0 0 1
    outer loop
      vertex 0.695288 2.13988 -3
      vertex 0.958003 -2.03586 -3
      vertex 0.958003 2.03586 -3
    endloop
  endfacet
  facet normal 0 0 1
    outer loop
      vertex 0.695288 2.13988 -3
      vertex 0.695288 -2.13988 -3
      vertex 0.958003 -2.03586 -3
    endloop
  endfacet
  facet normal 0 0 1
    outer loop
      vertex 0.421607 2.21015 -3
      vertex 0.695288 -2.13988 -3
      vertex 0.695288 2.13988 -3
    endloop
  endfacet
  facet normal 0 0 1
    outer loop
      vertex 0.421607 2.21015 -3
      vertex 0.421607 -2.21015 -3
      vertex 0.695288 -2.13988 -3
    endloop
  endfacet
  facet normal 0 0 1
    outer loop
      vertex 0.141278 2.24556 -3
      vertex 0.421607 -2.21015 -3
      vertex 0.421607 2.21015 -3
    endloop
  endfacet
  facet normal 0 0 1
    outer loop
      vertex 0.141278 2.24556 -3
      vertex 0.141278 -2.24556 -3
      vertex 0.421607 -2.21015 -3
    endloop
  endfacet
  facet normal -0 0 1
    outer loop
      vertex -0.141278 2.24556 -3
      vertex 0.141278 -2.24556 -3
      vertex 0.141278 2.24556 -3
    endloop
  endfacet
  facet normal 0 0 1
    outer loop
      vertex -0.141278 2.24556 -3
      vertex -0.141278 -2.24556 -3
      vertex 0.141278 -2.24556 -3
    endloop
  endfacet
  facet normal -0 0 1
    outer loop
      vertex -0.421607 2.21015 -3
      vertex -0.141278 -2.24556 -3
      vertex -0.141278 2.24556 -3
    endloop
  endfacet
  facet normal 0 0 1
    outer loop
      vertex -0.421607 2.21015 -3
      vertex -0.421607 -2.21015 -3
      vertex -0.141278 -2.24556 -3
    endloop
  endfacet
  facet normal -0 0 1
    outer loop
      vertex -0.695288 2.13988 -3
      vertex -0.421607 -2.21015 -3
      vertex -0.421607 2.21015 -3
    endloop
  endfacet
  facet normal 0 0 1
    outer loop
      vertex -0.695288 2.13988 -3
      vertex -0.695288 -2.13988 -3
      vertex -0.421607 -2.21015 -3
    endloop
  endfacet
  facet normal -0 0 1
    outer loop
      vertex -0.958003 2.03586 -3
      vertex -0.695288 -2.13988 -3
      vertex -0.695288 2.13988 -3
    endloop
  endfacet
  facet normal 0 0 1
    outer loop
      vertex -0.958003 2.03586 -3
      vertex -0.958003 -2.03586 -3
      vertex -0.695288 -2.13988 -3
    endloop
  endfacet
  facet normal -0 0 1
    outer loop
      vertex -1.20561 1.89974 -3
      vertex -0.958003 -2.03586 -3
      vertex -0.958003 2.03586 -3
    endloop
  endfacet
  facet normal 0 0 1
    outer loop
      vertex -1.20561 1.89974 -3
      vertex -1.20561 -1.89974 -3
      vertex -0.958003 -2.03586 -3
    endloop
  endfacet
  facet normal -0 0 1
    outer loop
      vertex -1.4342 1.73365 -3
      vertex -1.20561 -1.89974 -3
      vertex -1.20561 1.89974 -3
    endloop
  endfacet
  facet normal 0 0 1
    outer loop
      vertex -1.4342 1.73365 -3
      vertex -1.4342 -1.73365 -3
      vertex -1.20561 -1.89974 -3
    endloop
  endfacet
  facet normal -0 0 1
    outer loop
      vertex -1.64018 1.54023 -3
      vertex -1.4342 -1.73365 -3
      vertex -1.4342 1.73365 -3
    endloop
  endfacet
  facet normal 0 0 1
    outer loop
      vertex -1.64018 1.54023 -3
      vertex -1.64018 -1.54023 -3
      vertex -1.4342 -1.73365 -3
    endloop
  endfacet
  facet normal -0 0 1
    outer loop
      vertex -1.82029 1.32252 -3
      vertex -1.64018 -1.54023 -3
      vertex -1.64018 1.54023 -3
    endloop
  endfacet
  facet normal 0 0 1
    outer loop
      vertex -1.82029 1.32252 -3
      vertex -1.82029 -1.32252 -3
      vertex -1.64018 -1.54023 -3
    endloop
  endfacet
  facet normal -0 0 1
    outer loop
      vertex -1.97169 1.08395 -3
      vertex -1.82029 -1.32252 -3
      vertex -1.82029 1.32252 -3
    endloop
  endfacet
  facet normal 0 0 1
    outer loop
      vertex -1.97169 1.08395 -3
      vertex -1.97169 -1.08395 -3
      vertex -1.82029 -1.32252 -3
    endloop
  endfacet
  facet normal -0 0 1
    outer loop
      vertex -2.092 0.828279 -3
      vertex -1.97169 -1.08395 -3
      vertex -1.97169 1.08395 -3
    endloop
  endfacet
  facet normal 0 0 1
    outer loop
      vertex -2.092 0.828279 -3
      vertex -2.092 -0.828279 -3
      vertex -1.97169 -1.08395 -3
    endloop
  endfacet
  facet normal -0 0 1
    outer loop
      vertex -2.17931 0.559552 -3
      vertex -2.092 -0.828279 -3
      vertex -2.092 0.828279 -3
    endloop
  endfacet
  facet normal 0 0 1
    outer loop
      vertex -2.17931 0.559552 -3
      vertex -2.17931 -0.559552 -3
      vertex -2.092 -0.828279 -3
    endloop
  endfacet
  facet normal -0 0 1
    outer loop
      vertex -2.23226 0.282 -3
      vertex -2.17931 -0.559552 -3
      vertex -2.17931 0.559552 -3
    endloop
  endfacet
  facet normal 0 0 1
    outer loop
      vertex -2.23226 0.282 -3
      vertex -2.23226 -0.282 -3
      vertex -2.17931 -0.559552 -3
    endloop
  endfacet
  facet normal 0 -0 1
    outer loop
      vertex -2.23226 -0.282 -3
      vertex -2.23226 0.282 -3
      vertex -2.25 0 -3
    endloop
  endfacet
  facet normal -0.684532 0.728983 0
    outer loop
      vertex 1.64018 -1.54023 -3
      vertex 1.4342 -1.73365 0
      vertex 1.64018 -1.54023 0
    endloop
  endfacet
  facet normal -0.684532 0.728983 0
    outer loop
      vertex 1.4342 -1.73365 0
      vertex 1.64018 -1.54023 -3
      vertex 1.4342 -1.73365 -3
    endloop
  endfacet
  facet normal -0.368136 0.929772 0
    outer loop
      vertex 0.958003 -2.03586 -3
      vertex 0.695288 -2.13988 0
      vertex 0.958003 -2.03586 0
    endloop
  endfacet
  facet normal -0.368136 0.929772 0
    outer loop
      vertex 0.695288 -2.13988 0
      vertex 0.958003 -2.03586 -3
      vertex 0.695288 -2.13988 -3
    endloop
  endfacet
  facet normal -0.481745 -0.876311 0
    outer loop
      vertex 0.958003 2.03586 -3
      vertex 1.20561 1.89974 0
      vertex 0.958003 2.03586 0
    endloop
  endfacet
  facet normal -0.481745 -0.876311 -0
    outer loop
      vertex 1.20561 1.89974 0
      vertex 0.958003 2.03586 -3
      vertex 1.20561 1.89974 -3
    endloop
  endfacet
  facet normal 0.587808 -0.809001 0
    outer loop
      vertex -1.4342 1.73365 -3
      vertex -1.20561 1.89974 0
      vertex -1.4342 1.73365 0
    endloop
  endfacet
  facet normal 0.587808 -0.809001 0
    outer loop
      vertex -1.20561 1.89974 0
      vertex -1.4342 1.73365 -3
      vertex -1.20561 1.89974 -3
    endloop
  endfacet
  facet normal 0.248692 -0.968583 0
    outer loop
      vertex -0.695288 2.13988 -3
      vertex -0.421607 2.21015 0
      vertex -0.695288 2.13988 0
    endloop
  endfacet
  facet normal 0.248692 -0.968583 0
    outer loop
      vertex -0.421607 2.21015 0
      vertex -0.695288 2.13988 -3
      vertex -0.421607 2.21015 -3
    endloop
  endfacet
  facet normal -0.951061 0.309002 0
    outer loop
      vertex 2.092 -0.828279 -3
      vertex 2.17931 -0.559552 0
      vertex 2.17931 -0.559552 -3
    endloop
  endfacet
  facet normal -0.951061 0.309002 0
    outer loop
      vertex 2.17931 -0.559552 0
      vertex 2.092 -0.828279 -3
      vertex 2.092 -0.828279 0
    endloop
  endfacet
  facet normal -0.904827 0.42578 0
    outer loop
      vertex 1.97169 -1.08395 -3
      vertex 2.092 -0.828279 0
      vertex 2.092 -0.828279 -3
    endloop
  endfacet
  facet normal -0.904827 0.42578 0
    outer loop
      vertex 2.092 -0.828279 0
      vertex 1.97169 -1.08395 -3
      vertex 1.97169 -1.08395 0
    endloop
  endfacet
  facet normal 0.368136 0.929772 -0
    outer loop
      vertex -0.695288 -2.13988 -3
      vertex -0.958003 -2.03586 0
      vertex -0.695288 -2.13988 0
    endloop
  endfacet
  facet normal 0.368136 0.929772 0
    outer loop
      vertex -0.958003 -2.03586 0
      vertex -0.695288 -2.13988 -3
      vertex -0.958003 -2.03586 -3
    endloop
  endfacet
  facet normal 0.770505 0.637434 0
    outer loop
      vertex -1.64018 -1.54023 0
      vertex -1.82029 -1.32252 -3
      vertex -1.82029 -1.32252 0
    endloop
  endfacet
  facet normal 0.770505 0.637434 0
    outer loop
      vertex -1.82029 -1.32252 -3
      vertex -1.64018 -1.54023 0
      vertex -1.64018 -1.54023 -3
    endloop
  endfacet
  facet normal 0.951061 0.309002 0
    outer loop
      vertex -2.092 -0.828279 0
      vertex -2.17931 -0.559552 -3
      vertex -2.17931 -0.559552 0
    endloop
  endfacet
  facet normal 0.951061 0.309002 0
    outer loop
      vertex -2.17931 -0.559552 -3
      vertex -2.092 -0.828279 0
      vertex -2.092 -0.828279 -3
    endloop
  endfacet
  facet normal -0.770505 0.637434 0
    outer loop
      vertex 1.64018 -1.54023 -3
      vertex 1.82029 -1.32252 0
      vertex 1.82029 -1.32252 -3
    endloop
  endfacet
  facet normal -0.770505 0.637434 0
    outer loop
      vertex 1.82029 -1.32252 0
      vertex 1.64018 -1.54023 -3
      vertex 1.64018 -1.54023 0
    endloop
  endfacet
  facet normal -0.587808 0.809001 0
    outer loop
      vertex 1.4342 -1.73365 -3
      vertex 1.20561 -1.89974 0
      vertex 1.4342 -1.73365 0
    endloop
  endfacet
  facet normal -0.587808 0.809001 0
    outer loop
      vertex 1.20561 -1.89974 0
      vertex 1.4342 -1.73365 -3
      vertex 1.20561 -1.89974 -3
    endloop
  endfacet
  facet normal -0.481745 0.876311 0
    outer loop
      vertex 1.20561 -1.89974 -3
      vertex 0.958003 -2.03586 0
      vertex 1.20561 -1.89974 0
    endloop
  endfacet
  facet normal -0.481745 0.876311 0
    outer loop
      vertex 0.958003 -2.03586 0
      vertex 1.20561 -1.89974 -3
      vertex 0.958003 -2.03586 -3
    endloop
  endfacet
  facet normal -0.248692 0.968583 0
    outer loop
      vertex 0.695288 -2.13988 -3
      vertex 0.421607 -2.21015 0
      vertex 0.695288 -2.13988 0
    endloop
  endfacet
  facet normal -0.248692 0.968583 0
    outer loop
      vertex 0.421607 -2.21015 0
      vertex 0.695288 -2.13988 -3
      vertex 0.421607 -2.21015 -3
    endloop
  endfacet
  facet normal 0.684532 0.728983 -0
    outer loop
      vertex -1.4342 -1.73365 -3
      vertex -1.64018 -1.54023 0
      vertex -1.4342 -1.73365 0
    endloop
  endfacet
  facet normal 0.684532 0.728983 0
    outer loop
      vertex -1.64018 -1.54023 0
      vertex -1.4342 -1.73365 -3
      vertex -1.64018 -1.54023 -3
    endloop
  endfacet
  facet normal 0.84433 0.535824 0
    outer loop
      vertex -1.82029 -1.32252 0
      vertex -1.97169 -1.08395 -3
      vertex -1.97169 -1.08395 0
    endloop
  endfacet
  facet normal 0.84433 0.535824 0
    outer loop
      vertex -1.97169 -1.08395 -3
      vertex -1.82029 -1.32252 0
      vertex -1.82029 -1.32252 -3
    endloop
  endfacet
  facet normal 0.904827 0.42578 0
    outer loop
      vertex -1.97169 -1.08395 0
      vertex -2.092 -0.828279 -3
      vertex -2.092 -0.828279 0
    endloop
  endfacet
  facet normal 0.904827 0.42578 0
    outer loop
      vertex -2.092 -0.828279 -3
      vertex -1.97169 -1.08395 0
      vertex -1.97169 -1.08395 -3
    endloop
  endfacet
  facet normal 0.982285 0.187395 0
    outer loop
      vertex -2.17931 -0.559552 0
      vertex -2.23226 -0.282 -3
      vertex -2.23226 -0.282 0
    endloop
  endfacet
  facet normal 0.982285 0.187395 0
    outer loop
      vertex -2.23226 -0.282 -3
      vertex -2.17931 -0.559552 0
      vertex -2.17931 -0.559552 -3
    endloop
  endfacet
  facet normal 0.998027 0.0627837 0
    outer loop
      vertex -2.23226 -0.282 0
      vertex -2.25 0 -3
      vertex -2.25 0 0
    endloop
  endfacet
  facet normal 0.998027 0.0627837 0
    outer loop
      vertex -2.25 0 -3
      vertex -2.23226 -0.282 0
      vertex -2.23226 -0.282 -3
    endloop
  endfacet
  facet normal 0.248692 0.968583 -0
    outer loop
      vertex -0.421607 -2.21015 -3
      vertex -0.695288 -2.13988 0
      vertex -0.421607 -2.21015 0
    endloop
  endfacet
  facet normal 0.248692 0.968583 0
    outer loop
      vertex -0.695288 -2.13988 0
      vertex -0.421607 -2.21015 -3
      vertex -0.695288 -2.13988 -3
    endloop
  endfacet
  facet normal 0.12532 0.992116 -0
    outer loop
      vertex -0.141278 -2.24556 -3
      vertex -0.421607 -2.21015 0
      vertex -0.141278 -2.24556 0
    endloop
  endfacet
  facet normal 0.12532 0.992116 0
    outer loop
      vertex -0.421607 -2.21015 0
      vertex -0.141278 -2.24556 -3
      vertex -0.421607 -2.21015 -3
    endloop
  endfacet
  facet normal 0.587808 0.809001 -0
    outer loop
      vertex -1.20561 -1.89974 -3
      vertex -1.4342 -1.73365 0
      vertex -1.20561 -1.89974 0
    endloop
  endfacet
  facet normal 0.587808 0.809001 0
    outer loop
      vertex -1.4342 -1.73365 0
      vertex -1.20561 -1.89974 -3
      vertex -1.4342 -1.73365 -3
    endloop
  endfacet
endsolid OpenSCAD_Model
