solid OpenSCAD_Model
  facet normal 0.998026 0.0628038 0
    outer loop
      vertex 11.5 0 0
      vertex 11.4093 1.44133 -7
      vertex 11.4093 1.44133 0
    endloop
  endfacet
  facet normal 0.998026 0.0628038 0
    outer loop
      vertex 11.4093 1.44133 -7
      vertex 11.5 0 0
      vertex 11.5 0 -7
    endloop
  endfacet
  facet normal -0.998026 0.0628038 0
    outer loop
      vertex -11.5 0 -7
      vertex -11.4093 1.44133 0
      vertex -11.4093 1.44133 -7
    endloop
  endfacet
  facet normal -0.998026 0.0628038 0
    outer loop
      vertex -11.4093 1.44133 0
      vertex -11.5 0 -7
      vertex -11.5 0 0
    endloop
  endfacet
  facet normal 0 1 -0
    outer loop
      vertex 0.722091 11.4773 -7
      vertex -0.722091 11.4773 0
      vertex 0.722091 11.4773 0
    endloop
  endfacet
  facet normal 0 1 0
    outer loop
      vertex -0.722091 11.4773 0
      vertex 0.722091 11.4773 -7
      vertex -0.722091 11.4773 -7
    endloop
  endfacet
  facet normal 0 -1 0
    outer loop
      vertex -0.722091 -11.4773 -7
      vertex 0.722091 -11.4773 0
      vertex -0.722091 -11.4773 0
    endloop
  endfacet
  facet normal 0 -1 -0
    outer loop
      vertex 0.722091 -11.4773 0
      vertex -0.722091 -11.4773 -7
      vertex 0.722091 -11.4773 -7
    endloop
  endfacet
  facet normal 0.770515 -0.637422 0
    outer loop
      vertex 8.38314 -7.87229 0
      vertex 9.30369 -6.75953 -7
      vertex 9.30369 -6.75953 0
    endloop
  endfacet
  facet normal 0.770515 -0.637422 0
    outer loop
      vertex 9.30369 -6.75953 -7
      vertex 8.38314 -7.87229 0
      vertex 8.38314 -7.87229 -7
    endloop
  endfacet
  facet normal 0.684548 0.728968 -0
    outer loop
      vertex 8.38314 7.87229 -7
      vertex 7.33038 8.8609 0
      vertex 8.38314 7.87229 0
    endloop
  endfacet
  facet normal 0.684548 0.728968 0
    outer loop
      vertex 7.33038 8.8609 0
      vertex 8.38314 7.87229 -7
      vertex 7.33038 8.8609 -7
    endloop
  endfacet
  facet normal -0.684548 0.728968 0
    outer loop
      vertex -7.33038 8.8609 -7
      vertex -8.38314 7.87229 0
      vertex -7.33038 8.8609 0
    endloop
  endfacet
  facet normal -0.684548 0.728968 0
    outer loop
      vertex -8.38314 7.87229 0
      vertex -7.33038 8.8609 -7
      vertex -8.38314 7.87229 -7
    endloop
  endfacet
  facet normal -0.3681 0.929786 0
    outer loop
      vertex -3.55369 10.9371 -7
      vertex -4.89646 10.4055 0
      vertex -3.55369 10.9371 0
    endloop
  endfacet
  facet normal -0.3681 0.929786 0
    outer loop
      vertex -4.89646 10.4055 0
      vertex -3.55369 10.9371 -7
      vertex -4.89646 10.4055 -7
    endloop
  endfacet
  facet normal 0.904828 0.425776 0
    outer loop
      vertex 10.6924 4.23343 0
      vertex 10.0775 5.54017 -7
      vertex 10.0775 5.54017 0
    endloop
  endfacet
  facet normal 0.904828 0.425776 0
    outer loop
      vertex 10.0775 5.54017 -7
      vertex 10.6924 4.23343 0
      vertex 10.6924 4.23343 -7
    endloop
  endfacet
  facet normal 0.3681 0.929786 -0
    outer loop
      vertex 4.89646 10.4055 -7
      vertex 3.55369 10.9371 0
      vertex 4.89646 10.4055 0
    endloop
  endfacet
  facet normal 0.3681 0.929786 0
    outer loop
      vertex 3.55369 10.9371 0
      vertex 4.89646 10.4055 -7
      vertex 3.55369 10.9371 -7
    endloop
  endfacet
  facet normal 0.481747 0.87631 -0
    outer loop
      vertex 6.16201 9.70977 -7
      vertex 4.89646 10.4055 0
      vertex 6.16201 9.70977 0
    endloop
  endfacet
  facet normal 0.481747 0.87631 0
    outer loop
      vertex 4.89646 10.4055 0
      vertex 6.16201 9.70977 -7
      vertex 4.89646 10.4055 -7
    endloop
  endfacet
  facet normal -0.904828 0.425776 0
    outer loop
      vertex -10.6924 4.23343 -7
      vertex -10.0775 5.54017 0
      vertex -10.0775 5.54017 -7
    endloop
  endfacet
  facet normal -0.904828 0.425776 0
    outer loop
      vertex -10.0775 5.54017 0
      vertex -10.6924 4.23343 -7
      vertex -10.6924 4.23343 0
    endloop
  endfacet
  facet normal -0.770515 0.637422 0
    outer loop
      vertex -9.30369 6.75953 -7
      vertex -8.38314 7.87229 0
      vertex -8.38314 7.87229 -7
    endloop
  endfacet
  facet normal -0.770515 0.637422 0
    outer loop
      vertex -8.38314 7.87229 0
      vertex -9.30369 6.75953 -7
      vertex -9.30369 6.75953 0
    endloop
  endfacet
  facet normal 0 0 1
    outer loop
      vertex 8.6 0 0
      vertex 11.5 0 0
      vertex 11.4093 1.44133 0
    endloop
  endfacet
  facet normal 0 0 1
    outer loop
      vertex 8.53219 1.07787 0
      vertex 11.4093 1.44133 0
      vertex 11.1387 2.85993 0
    endloop
  endfacet
  facet normal 0 0 1
    outer loop
      vertex 11.5 0 0
      vertex 8.6 0 0
      vertex 11.4093 -1.44133 0
    endloop
  endfacet
  facet normal 0 0 1
    outer loop
      vertex 8.32981 2.13873 0
      vertex 11.1387 2.85993 0
      vertex 10.6924 4.23343 0
    endloop
  endfacet
  facet normal -0 0 1
    outer loop
      vertex 8.53219 -1.07787 0
      vertex 11.4093 -1.44133 0
      vertex 8.6 0 0
    endloop
  endfacet
  facet normal 0 0 1
    outer loop
      vertex 7.99608 3.16587 0
      vertex 10.6924 4.23343 0
      vertex 10.0775 5.54017 0
    endloop
  endfacet
  facet normal 0 0 1
    outer loop
      vertex 11.4093 -1.44133 0
      vertex 8.53219 -1.07787 0
      vertex 11.1387 -2.85993 0
    endloop
  endfacet
  facet normal 0 0 1
    outer loop
      vertex 7.53624 4.14308 0
      vertex 10.0775 5.54017 0
      vertex 9.30369 6.75953 0
    endloop
  endfacet
  facet normal -0 0 1
    outer loop
      vertex 8.32981 -2.13873 0
      vertex 11.1387 -2.85993 0
      vertex 8.53219 -1.07787 0
    endloop
  endfacet
  facet normal 0 0 1
    outer loop
      vertex 11.1387 -2.85993 0
      vertex 8.32981 -2.13873 0
      vertex 10.6924 -4.23343 0
    endloop
  endfacet
  facet normal 0 0 1
    outer loop
      vertex 11.4093 1.44133 0
      vertex 8.53219 1.07787 0
      vertex 8.6 0 0
    endloop
  endfacet
  facet normal 0 0 1
    outer loop
      vertex 6.95755 5.05495 0
      vertex 9.30369 6.75953 0
      vertex 8.38314 7.87229 0
    endloop
  endfacet
  facet normal 0 0 1
    outer loop
      vertex 11.1387 2.85993 0
      vertex 8.32981 2.13873 0
      vertex 8.53219 1.07787 0
    endloop
  endfacet
  facet normal 0 0 1
    outer loop
      vertex 10.6924 4.23343 0
      vertex 7.99608 3.16587 0
      vertex 8.32981 2.13873 0
    endloop
  endfacet
  facet normal 0 0 1
    outer loop
      vertex 10.0775 5.54017 0
      vertex 7.53624 4.14308 0
      vertex 7.99608 3.16587 0
    endloop
  endfacet
  facet normal 0 0 1
    outer loop
      vertex 6.26913 5.8871 0
      vertex 8.38314 7.87229 0
      vertex 7.33038 8.8609 0
    endloop
  endfacet
  facet normal 0 0 1
    outer loop
      vertex 9.30369 6.75953 0
      vertex 6.95755 5.05495 0
      vertex 7.53624 4.14308 0
    endloop
  endfacet
  facet normal 0 0 1
    outer loop
      vertex 8.38314 7.87229 0
      vertex 6.26913 5.8871 0
      vertex 6.95755 5.05495 0
    endloop
  endfacet
  facet normal 0 0 1
    outer loop
      vertex 5.48185 6.62641 0
      vertex 7.33038 8.8609 0
      vertex 6.16201 9.70977 0
    endloop
  endfacet
  facet normal 0 0 1
    outer loop
      vertex 7.33038 8.8609 0
      vertex 5.48185 6.62641 0
      vertex 6.26913 5.8871 0
    endloop
  endfacet
  facet normal 0 0 1
    outer loop
      vertex 4.60811 7.26122 0
      vertex 6.16201 9.70977 0
      vertex 4.89646 10.4055 0
    endloop
  endfacet
  facet normal 0 0 1
    outer loop
      vertex 6.16201 9.70977 0
      vertex 4.60811 7.26122 0
      vertex 5.48185 6.62641 0
    endloop
  endfacet
  facet normal 0 0 1
    outer loop
      vertex 4.89646 10.4055 0
      vertex 3.6617 7.78151 0
      vertex 4.60811 7.26122 0
    endloop
  endfacet
  facet normal 0 0 1
    outer loop
      vertex 3.55369 10.9371 0
      vertex 3.6617 7.78151 0
      vertex 4.89646 10.4055 0
    endloop
  endfacet
  facet normal 0 0 1
    outer loop
      vertex 3.55369 10.9371 0
      vertex 2.65755 8.17909 0
      vertex 3.6617 7.78151 0
    endloop
  endfacet
  facet normal 0 0 1
    outer loop
      vertex 2.15488 11.2963 0
      vertex 2.65755 8.17909 0
      vertex 3.55369 10.9371 0
    endloop
  endfacet
  facet normal 0 0 1
    outer loop
      vertex 2.15488 11.2963 0
      vertex 1.61148 8.44767 0
      vertex 2.65755 8.17909 0
    endloop
  endfacet
  facet normal 0 0 1
    outer loop
      vertex 0.722091 11.4773 0
      vertex 1.61148 8.44767 0
      vertex 2.15488 11.2963 0
    endloop
  endfacet
  facet normal 0 0 1
    outer loop
      vertex 0.722091 11.4773 0
      vertex 0.539998 8.58303 0
      vertex 1.61148 8.44767 0
    endloop
  endfacet
  facet normal 0 0 1
    outer loop
      vertex 0.722091 11.4773 0
      vertex -0.539998 8.58303 0
      vertex 0.539998 8.58303 0
    endloop
  endfacet
  facet normal -0 0 1
    outer loop
      vertex -0.722091 11.4773 0
      vertex -0.539998 8.58303 0
      vertex 0.722091 11.4773 0
    endloop
  endfacet
  facet normal 0 0 1
    outer loop
      vertex -0.722091 11.4773 0
      vertex -1.61148 8.44767 0
      vertex -0.539998 8.58303 0
    endloop
  endfacet
  facet normal -0 0 1
    outer loop
      vertex -2.15488 11.2963 0
      vertex -1.61148 8.44767 0
      vertex -0.722091 11.4773 0
    endloop
  endfacet
  facet normal 0 0 1
    outer loop
      vertex -2.15488 11.2963 0
      vertex -2.65755 8.17909 0
      vertex -1.61148 8.44767 0
    endloop
  endfacet
  facet normal -0 0 1
    outer loop
      vertex -3.55369 10.9371 0
      vertex -2.65755 8.17909 0
      vertex -2.15488 11.2963 0
    endloop
  endfacet
  facet normal 0 0 1
    outer loop
      vertex -3.55369 10.9371 0
      vertex -3.6617 7.78151 0
      vertex -2.65755 8.17909 0
    endloop
  endfacet
  facet normal -0 0 1
    outer loop
      vertex -4.89646 10.4055 0
      vertex -3.6617 7.78151 0
      vertex -3.55369 10.9371 0
    endloop
  endfacet
  facet normal 0 0 1
    outer loop
      vertex -3.6617 7.78151 0
      vertex -4.89646 10.4055 0
      vertex -4.60811 7.26122 0
    endloop
  endfacet
  facet normal -0 0 1
    outer loop
      vertex -6.16201 9.70977 0
      vertex -4.60811 7.26122 0
      vertex -4.89646 10.4055 0
    endloop
  endfacet
  facet normal 0 0 1
    outer loop
      vertex -4.60811 7.26122 0
      vertex -6.16201 9.70977 0
      vertex -5.48185 6.62641 0
    endloop
  endfacet
  facet normal -0 0 1
    outer loop
      vertex -7.33038 8.8609 0
      vertex -5.48185 6.62641 0
      vertex -6.16201 9.70977 0
    endloop
  endfacet
  facet normal 0 0 1
    outer loop
      vertex -5.48185 6.62641 0
      vertex -7.33038 8.8609 0
      vertex -6.26913 5.8871 0
    endloop
  endfacet
  facet normal -0 0 1
    outer loop
      vertex -8.38314 7.87229 0
      vertex -6.26913 5.8871 0
      vertex -7.33038 8.8609 0
    endloop
  endfacet
  facet normal 0 0 1
    outer loop
      vertex -6.26913 5.8871 0
      vertex -8.38314 7.87229 0
      vertex -6.95755 5.05495 0
    endloop
  endfacet
  facet normal -0 0 1
    outer loop
      vertex -9.30369 6.75953 0
      vertex -6.95755 5.05495 0
      vertex -8.38314 7.87229 0
    endloop
  endfacet
  facet normal 0 0 1
    outer loop
      vertex -6.95755 5.05495 0
      vertex -9.30369 6.75953 0
      vertex -7.53624 4.14308 0
    endloop
  endfacet
  facet normal -0 0 1
    outer loop
      vertex -10.0775 5.54017 0
      vertex -7.53624 4.14308 0
      vertex -9.30369 6.75953 0
    endloop
  endfacet
  facet normal 0 0 1
    outer loop
      vertex -7.53624 4.14308 0
      vertex -10.0775 5.54017 0
      vertex -7.99608 3.16587 0
    endloop
  endfacet
  facet normal -0 0 1
    outer loop
      vertex -10.6924 4.23343 0
      vertex -7.99608 3.16587 0
      vertex -10.0775 5.54017 0
    endloop
  endfacet
  facet normal 0 0 1
    outer loop
      vertex -7.99608 3.16587 0
      vertex -10.6924 4.23343 0
      vertex -8.32981 2.13873 0
    endloop
  endfacet
  facet normal -0 0 1
    outer loop
      vertex 7.99608 -3.16587 0
      vertex 10.6924 -4.23343 0
      vertex 8.32981 -2.13873 0
    endloop
  endfacet
  facet normal 0 0 1
    outer loop
      vertex 10.6924 -4.23343 0
      vertex 7.99608 -3.16587 0
      vertex 10.0775 -5.54017 0
    endloop
  endfacet
  facet normal -0 0 1
    outer loop
      vertex 7.53624 -4.14308 0
      vertex 10.0775 -5.54017 0
      vertex 7.99608 -3.16587 0
    endloop
  endfacet
  facet normal 0 0 1
    outer loop
      vertex 10.0775 -5.54017 0
      vertex 7.53624 -4.14308 0
      vertex 9.30369 -6.75953 0
    endloop
  endfacet
  facet normal -0 0 1
    outer loop
      vertex 6.95755 -5.05495 0
      vertex 9.30369 -6.75953 0
      vertex 7.53624 -4.14308 0
    endloop
  endfacet
  facet normal 0 0 1
    outer loop
      vertex 9.30369 -6.75953 0
      vertex 6.95755 -5.05495 0
      vertex 8.38314 -7.87229 0
    endloop
  endfacet
  facet normal -0 0 1
    outer loop
      vertex 6.26913 -5.8871 0
      vertex 8.38314 -7.87229 0
      vertex 6.95755 -5.05495 0
    endloop
  endfacet
  facet normal 0 0 1
    outer loop
      vertex 8.38314 -7.87229 0
      vertex 6.26913 -5.8871 0
      vertex 7.33038 -8.8609 0
    endloop
  endfacet
  facet normal -0 0 1
    outer loop
      vertex 5.48185 -6.62641 0
      vertex 7.33038 -8.8609 0
      vertex 6.26913 -5.8871 0
    endloop
  endfacet
  facet normal 0 0 1
    outer loop
      vertex 7.33038 -8.8609 0
      vertex 5.48185 -6.62641 0
      vertex 6.16201 -9.70977 0
    endloop
  endfacet
  facet normal -0 0 1
    outer loop
      vertex 4.60811 -7.26122 0
      vertex 6.16201 -9.70977 0
      vertex 5.48185 -6.62641 0
    endloop
  endfacet
  facet normal 0 0 1
    outer loop
      vertex 6.16201 -9.70977 0
      vertex 4.60811 -7.26122 0
      vertex 4.89646 -10.4055 0
    endloop
  endfacet
  facet normal -0 0 1
    outer loop
      vertex 3.6617 -7.78151 0
      vertex 4.89646 -10.4055 0
      vertex 4.60811 -7.26122 0
    endloop
  endfacet
  facet normal 0 0 1
    outer loop
      vertex 3.6617 -7.78151 0
      vertex 3.55369 -10.9371 0
      vertex 4.89646 -10.4055 0
    endloop
  endfacet
  facet normal -0 0 1
    outer loop
      vertex 2.65755 -8.17909 0
      vertex 3.55369 -10.9371 0
      vertex 3.6617 -7.78151 0
    endloop
  endfacet
  facet normal 0 0 1
    outer loop
      vertex 2.65755 -8.17909 0
      vertex 2.15488 -11.2963 0
      vertex 3.55369 -10.9371 0
    endloop
  endfacet
  facet normal -0 0 1
    outer loop
      vertex 1.61148 -8.44767 0
      vertex 2.15488 -11.2963 0
      vertex 2.65755 -8.17909 0
    endloop
  endfacet
  facet normal 0 0 1
    outer loop
      vertex 1.61148 -8.44767 0
      vertex 0.722091 -11.4773 0
      vertex 2.15488 -11.2963 0
    endloop
  endfacet
  facet normal -0 0 1
    outer loop
      vertex 0.539998 -8.58303 0
      vertex 0.722091 -11.4773 0
      vertex 1.61148 -8.44767 0
    endloop
  endfacet
  facet normal -0 0 1
    outer loop
      vertex -0.539998 -8.58303 0
      vertex 0.722091 -11.4773 0
      vertex 0.539998 -8.58303 0
    endloop
  endfacet
  facet normal 0 0 1
    outer loop
      vertex -0.539998 -8.58303 0
      vertex -0.722091 -11.4773 0
      vertex 0.722091 -11.4773 0
    endloop
  endfacet
  facet normal 0 0 1
    outer loop
      vertex -1.61148 -8.44767 0
      vertex -0.722091 -11.4773 0
      vertex -0.539998 -8.58303 0
    endloop
  endfacet
  facet normal 0 0 1
    outer loop
      vertex -1.61148 -8.44767 0
      vertex -2.15488 -11.2963 0
      vertex -0.722091 -11.4773 0
    endloop
  endfacet
  facet normal 0 0 1
    outer loop
      vertex -2.65755 -8.17909 0
      vertex -2.15488 -11.2963 0
      vertex -1.61148 -8.44767 0
    endloop
  endfacet
  facet normal 0 0 1
    outer loop
      vertex -2.65755 -8.17909 0
      vertex -3.55369 -10.9371 0
      vertex -2.15488 -11.2963 0
    endloop
  endfacet
  facet normal 0 0 1
    outer loop
      vertex -3.6617 -7.78151 0
      vertex -3.55369 -10.9371 0
      vertex -2.65755 -8.17909 0
    endloop
  endfacet
  facet normal 0 0 1
    outer loop
      vertex -4.89646 -10.4055 0
      vertex -3.6617 -7.78151 0
      vertex -4.60811 -7.26122 0
    endloop
  endfacet
  facet normal 0 0 1
    outer loop
      vertex -3.6617 -7.78151 0
      vertex -4.89646 -10.4055 0
      vertex -3.55369 -10.9371 0
    endloop
  endfacet
  facet normal 0 0 1
    outer loop
      vertex -6.16201 -9.70977 0
      vertex -4.60811 -7.26122 0
      vertex -5.48185 -6.62641 0
    endloop
  endfacet
  facet normal 0 0 1
    outer loop
      vertex -4.60811 -7.26122 0
      vertex -6.16201 -9.70977 0
      vertex -4.89646 -10.4055 0
    endloop
  endfacet
  facet normal 0 0 1
    outer loop
      vertex -7.33038 -8.8609 0
      vertex -5.48185 -6.62641 0
      vertex -6.26913 -5.8871 0
    endloop
  endfacet
  facet normal 0 0 1
    outer loop
      vertex -8.38314 -7.87229 0
      vertex -6.26913 -5.8871 0
      vertex -6.95755 -5.05495 0
    endloop
  endfacet
  facet normal 0 0 1
    outer loop
      vertex -5.48185 -6.62641 0
      vertex -7.33038 -8.8609 0
      vertex -6.16201 -9.70977 0
    endloop
  endfacet
  facet normal 0 0 1
    outer loop
      vertex -9.30369 -6.75953 0
      vertex -6.95755 -5.05495 0
      vertex -7.53624 -4.14308 0
    endloop
  endfacet
  facet normal 0 0 1
    outer loop
      vertex -10.0775 -5.54017 0
      vertex -7.53624 -4.14308 0
      vertex -7.99608 -3.16587 0
    endloop
  endfacet
  facet normal 0 0 1
    outer loop
      vertex -10.6924 -4.23343 0
      vertex -7.99608 -3.16587 0
      vertex -8.32981 -2.13873 0
    endloop
  endfacet
  facet normal 0 0 1
    outer loop
      vertex -6.26913 -5.8871 0
      vertex -8.38314 -7.87229 0
      vertex -7.33038 -8.8609 0
    endloop
  endfacet
  facet normal 0 0 1
    outer loop
      vertex -11.1387 -2.85993 0
      vertex -8.32981 -2.13873 0
      vertex -8.53219 -1.07787 0
    endloop
  endfacet
  facet normal 0 0 1
    outer loop
      vertex -11.4093 -1.44133 0
      vertex -8.53219 -1.07787 0
      vertex -8.6 0 0
    endloop
  endfacet
  facet normal -0 0 1
    outer loop
      vertex -11.1387 2.85993 0
      vertex -8.32981 2.13873 0
      vertex -10.6924 4.23343 0
    endloop
  endfacet
  facet normal 0 0 1
    outer loop
      vertex -6.95755 -5.05495 0
      vertex -9.30369 -6.75953 0
      vertex -8.38314 -7.87229 0
    endloop
  endfacet
  facet normal 0 0 1
    outer loop
      vertex -8.32981 2.13873 0
      vertex -11.1387 2.85993 0
      vertex -8.53219 1.07787 0
    endloop
  endfacet
  facet normal 0 0 1
    outer loop
      vertex -7.53624 -4.14308 0
      vertex -10.0775 -5.54017 0
      vertex -9.30369 -6.75953 0
    endloop
  endfacet
  facet normal -0 0 1
    outer loop
      vertex -11.4093 1.44133 0
      vertex -8.53219 1.07787 0
      vertex -11.1387 2.85993 0
    endloop
  endfacet
  facet normal 0 0 1
    outer loop
      vertex -7.99608 -3.16587 0
      vertex -10.6924 -4.23343 0
      vertex -10.0775 -5.54017 0
    endloop
  endfacet
  facet normal 0 0 1
    outer loop
      vertex -8.53219 1.07787 0
      vertex -11.4093 1.44133 0
      vertex -8.6 0 0
    endloop
  endfacet
  facet normal 0 0 1
    outer loop
      vertex -8.32981 -2.13873 0
      vertex -11.1387 -2.85993 0
      vertex -10.6924 -4.23343 0
    endloop
  endfacet
  facet normal 0 0 1
    outer loop
      vertex -11.5 0 0
      vertex -8.6 0 0
      vertex -11.4093 1.44133 0
    endloop
  endfacet
  facet normal 0 0 1
    outer loop
      vertex -8.53219 -1.07787 0
      vertex -11.4093 -1.44133 0
      vertex -11.1387 -2.85993 0
    endloop
  endfacet
  facet normal 0 0 1
    outer loop
      vertex -8.6 0 0
      vertex -11.5 0 0
      vertex -11.4093 -1.44133 0
    endloop
  endfacet
  facet normal -0.125331 0.992115 0
    outer loop
      vertex -0.722091 11.4773 -7
      vertex -2.15488 11.2963 0
      vertex -0.722091 11.4773 0
    endloop
  endfacet
  facet normal -0.125331 0.992115 0
    outer loop
      vertex -2.15488 11.2963 0
      vertex -0.722091 11.4773 -7
      vertex -2.15488 11.2963 -7
    endloop
  endfacet
  facet normal 0 0 -1
    outer loop
      vertex 11.4093 -1.44133 -7
      vertex 11.4093 1.44133 -7
      vertex 11.5 0 -7
    endloop
  endfacet
  facet normal 0 0 -1
    outer loop
      vertex 11.1387 -2.85993 -7
      vertex 11.4093 1.44133 -7
      vertex 11.4093 -1.44133 -7
    endloop
  endfacet
  facet normal 0 0 -1
    outer loop
      vertex 11.1387 -2.85993 -7
      vertex 11.1387 2.85993 -7
      vertex 11.4093 1.44133 -7
    endloop
  endfacet
  facet normal 0 0 -1
    outer loop
      vertex 10.6924 -4.23343 -7
      vertex 11.1387 2.85993 -7
      vertex 11.1387 -2.85993 -7
    endloop
  endfacet
  facet normal 0 0 -1
    outer loop
      vertex 10.6924 -4.23343 -7
      vertex 10.6924 4.23343 -7
      vertex 11.1387 2.85993 -7
    endloop
  endfacet
  facet normal 0 0 -1
    outer loop
      vertex 10.0775 -5.54017 -7
      vertex 10.6924 4.23343 -7
      vertex 10.6924 -4.23343 -7
    endloop
  endfacet
  facet normal 0 0 -1
    outer loop
      vertex 10.0775 -5.54017 -7
      vertex 10.0775 5.54017 -7
      vertex 10.6924 4.23343 -7
    endloop
  endfacet
  facet normal 0 0 -1
    outer loop
      vertex 9.30369 -6.75953 -7
      vertex 10.0775 5.54017 -7
      vertex 10.0775 -5.54017 -7
    endloop
  endfacet
  facet normal 0 0 -1
    outer loop
      vertex 9.30369 -6.75953 -7
      vertex 9.30369 6.75953 -7
      vertex 10.0775 5.54017 -7
    endloop
  endfacet
  facet normal 0 0 -1
    outer loop
      vertex 8.38314 -7.87229 -7
      vertex 9.30369 6.75953 -7
      vertex 9.30369 -6.75953 -7
    endloop
  endfacet
  facet normal 0 0 -1
    outer loop
      vertex 8.38314 -7.87229 -7
      vertex 8.38314 7.87229 -7
      vertex 9.30369 6.75953 -7
    endloop
  endfacet
  facet normal 0 0 -1
    outer loop
      vertex 7.33038 -8.8609 -7
      vertex 8.38314 7.87229 -7
      vertex 8.38314 -7.87229 -7
    endloop
  endfacet
  facet normal 0 0 -1
    outer loop
      vertex 7.33038 -8.8609 -7
      vertex 7.33038 8.8609 -7
      vertex 8.38314 7.87229 -7
    endloop
  endfacet
  facet normal 0 0 -1
    outer loop
      vertex 6.16201 -9.70977 -7
      vertex 7.33038 8.8609 -7
      vertex 7.33038 -8.8609 -7
    endloop
  endfacet
  facet normal 0 0 -1
    outer loop
      vertex 6.16201 -9.70977 -7
      vertex 6.16201 9.70977 -7
      vertex 7.33038 8.8609 -7
    endloop
  endfacet
  facet normal 0 0 -1
    outer loop
      vertex 4.89646 -10.4055 -7
      vertex 6.16201 9.70977 -7
      vertex 6.16201 -9.70977 -7
    endloop
  endfacet
  facet normal 0 0 -1
    outer loop
      vertex 4.89646 -10.4055 -7
      vertex 4.89646 10.4055 -7
      vertex 6.16201 9.70977 -7
    endloop
  endfacet
  facet normal 0 0 -1
    outer loop
      vertex 3.55369 -10.9371 -7
      vertex 4.89646 10.4055 -7
      vertex 4.89646 -10.4055 -7
    endloop
  endfacet
  facet normal 0 0 -1
    outer loop
      vertex 3.55369 -10.9371 -7
      vertex 3.55369 10.9371 -7
      vertex 4.89646 10.4055 -7
    endloop
  endfacet
  facet normal 0 0 -1
    outer loop
      vertex 2.15488 -11.2963 -7
      vertex 3.55369 10.9371 -7
      vertex 3.55369 -10.9371 -7
    endloop
  endfacet
  facet normal 0 0 -1
    outer loop
      vertex 2.15488 -11.2963 -7
      vertex 2.15488 11.2963 -7
      vertex 3.55369 10.9371 -7
    endloop
  endfacet
  facet normal 0 0 -1
    outer loop
      vertex 0.722091 -11.4773 -7
      vertex 2.15488 11.2963 -7
      vertex 2.15488 -11.2963 -7
    endloop
  endfacet
  facet normal 0 0 -1
    outer loop
      vertex 0.722091 -11.4773 -7
      vertex 0.722091 11.4773 -7
      vertex 2.15488 11.2963 -7
    endloop
  endfacet
  facet normal 0 0 -1
    outer loop
      vertex -0.722091 -11.4773 -7
      vertex 0.722091 11.4773 -7
      vertex 0.722091 -11.4773 -7
    endloop
  endfacet
  facet normal 0 0 -1
    outer loop
      vertex -0.722091 -11.4773 -7
      vertex -0.722091 11.4773 -7
      vertex 0.722091 11.4773 -7
    endloop
  endfacet
  facet normal 0 0 -1
    outer loop
      vertex -2.15488 -11.2963 -7
      vertex -0.722091 11.4773 -7
      vertex -0.722091 -11.4773 -7
    endloop
  endfacet
  facet normal 0 0 -1
    outer loop
      vertex -2.15488 -11.2963 -7
      vertex -2.15488 11.2963 -7
      vertex -0.722091 11.4773 -7
    endloop
  endfacet
  facet normal 0 0 -1
    outer loop
      vertex -3.55369 -10.9371 -7
      vertex -2.15488 11.2963 -7
      vertex -2.15488 -11.2963 -7
    endloop
  endfacet
  facet normal 0 0 -1
    outer loop
      vertex -3.55369 -10.9371 -7
      vertex -3.55369 10.9371 -7
      vertex -2.15488 11.2963 -7
    endloop
  endfacet
  facet normal 0 0 -1
    outer loop
      vertex -4.89646 -10.4055 -7
      vertex -3.55369 10.9371 -7
      vertex -3.55369 -10.9371 -7
    endloop
  endfacet
  facet normal 0 0 -1
    outer loop
      vertex -4.89646 -10.4055 -7
      vertex -4.89646 10.4055 -7
      vertex -3.55369 10.9371 -7
    endloop
  endfacet
  facet normal 0 0 -1
    outer loop
      vertex -6.16201 -9.70977 -7
      vertex -4.89646 10.4055 -7
      vertex -4.89646 -10.4055 -7
    endloop
  endfacet
  facet normal 0 0 -1
    outer loop
      vertex -6.16201 -9.70977 -7
      vertex -6.16201 9.70977 -7
      vertex -4.89646 10.4055 -7
    endloop
  endfacet
  facet normal 0 0 -1
    outer loop
      vertex -7.33038 -8.8609 -7
      vertex -6.16201 9.70977 -7
      vertex -6.16201 -9.70977 -7
    endloop
  endfacet
  facet normal 0 0 -1
    outer loop
      vertex -7.33038 -8.8609 -7
      vertex -7.33038 8.8609 -7
      vertex -6.16201 9.70977 -7
    endloop
  endfacet
  facet normal 0 0 -1
    outer loop
      vertex -8.38314 -7.87229 -7
      vertex -7.33038 8.8609 -7
      vertex -7.33038 -8.8609 -7
    endloop
  endfacet
  facet normal 0 0 -1
    outer loop
      vertex -8.38314 -7.87229 -7
      vertex -8.38314 7.87229 -7
      vertex -7.33038 8.8609 -7
    endloop
  endfacet
  facet normal 0 0 -1
    outer loop
      vertex -9.30369 -6.75953 -7
      vertex -8.38314 7.87229 -7
      vertex -8.38314 -7.87229 -7
    endloop
  endfacet
  facet normal 0 0 -1
    outer loop
      vertex -9.30369 -6.75953 -7
      vertex -9.30369 6.75953 -7
      vertex -8.38314 7.87229 -7
    endloop
  endfacet
  facet normal 0 0 -1
    outer loop
      vertex -10.0775 -5.54017 -7
      vertex -9.30369 6.75953 -7
      vertex -9.30369 -6.75953 -7
    endloop
  endfacet
  facet normal 0 0 -1
    outer loop
      vertex -10.0775 -5.54017 -7
      vertex -10.0775 5.54017 -7
      vertex -9.30369 6.75953 -7
    endloop
  endfacet
  facet normal 0 0 -1
    outer loop
      vertex -10.6924 -4.23343 -7
      vertex -10.0775 5.54017 -7
      vertex -10.0775 -5.54017 -7
    endloop
  endfacet
  facet normal 0 0 -1
    outer loop
      vertex -10.6924 -4.23343 -7
      vertex -10.6924 4.23343 -7
      vertex -10.0775 5.54017 -7
    endloop
  endfacet
  facet normal 0 0 -1
    outer loop
      vertex -11.1387 -2.85993 -7
      vertex -10.6924 4.23343 -7
      vertex -10.6924 -4.23343 -7
    endloop
  endfacet
  facet normal 0 0 -1
    outer loop
      vertex -11.1387 -2.85993 -7
      vertex -11.1387 2.85993 -7
      vertex -10.6924 4.23343 -7
    endloop
  endfacet
  facet normal 0 0 -1
    outer loop
      vertex -11.4093 -1.44133 -7
      vertex -11.1387 2.85993 -7
      vertex -11.1387 -2.85993 -7
    endloop
  endfacet
  facet normal 0 0 -1
    outer loop
      vertex -11.4093 -1.44133 -7
      vertex -11.4093 1.44133 -7
      vertex -11.1387 2.85993 -7
    endloop
  endfacet
  facet normal 0 -0 -1
    outer loop
      vertex -11.4093 1.44133 -7
      vertex -11.4093 -1.44133 -7
      vertex -11.5 0 -7
    endloop
  endfacet
  facet normal 0.125331 -0.992115 0
    outer loop
      vertex 0.722091 -11.4773 -7
      vertex 2.15488 -11.2963 0
      vertex 0.722091 -11.4773 0
    endloop
  endfacet
  facet normal 0.125331 -0.992115 0
    outer loop
      vertex 2.15488 -11.2963 0
      vertex 0.722091 -11.4773 -7
      vertex 2.15488 -11.2963 -7
    endloop
  endfacet
  facet normal 0.951052 0.309031 0
    outer loop
      vertex 11.1387 2.85993 0
      vertex 10.6924 4.23343 -7
      vertex 10.6924 4.23343 0
    endloop
  endfacet
  facet normal 0.951052 0.309031 0
    outer loop
      vertex 10.6924 4.23343 -7
      vertex 11.1387 2.85993 0
      vertex 11.1387 2.85993 -7
    endloop
  endfacet
  facet normal 0.982289 0.187373 0
    outer loop
      vertex 11.4093 1.44133 0
      vertex 11.1387 2.85993 -7
      vertex 11.1387 2.85993 0
    endloop
  endfacet
  facet normal 0.982289 0.187373 0
    outer loop
      vertex 11.1387 2.85993 -7
      vertex 11.4093 1.44133 0
      vertex 11.4093 1.44133 -7
    endloop
  endfacet
  facet normal 0.770515 0.637422 0
    outer loop
      vertex 9.30369 6.75953 0
      vertex 8.38314 7.87229 -7
      vertex 8.38314 7.87229 0
    endloop
  endfacet
  facet normal 0.770515 0.637422 0
    outer loop
      vertex 8.38314 7.87229 -7
      vertex 9.30369 6.75953 0
      vertex 9.30369 6.75953 -7
    endloop
  endfacet
  facet normal 0.844334 0.535817 0
    outer loop
      vertex 10.0775 5.54017 0
      vertex 9.30369 6.75953 -7
      vertex 9.30369 6.75953 0
    endloop
  endfacet
  facet normal 0.844334 0.535817 0
    outer loop
      vertex 9.30369 6.75953 -7
      vertex 10.0775 5.54017 0
      vertex 10.0775 5.54017 -7
    endloop
  endfacet
  facet normal 0.24872 0.968575 -0
    outer loop
      vertex 3.55369 10.9371 -7
      vertex 2.15488 11.2963 0
      vertex 3.55369 10.9371 0
    endloop
  endfacet
  facet normal 0.24872 0.968575 0
    outer loop
      vertex 2.15488 11.2963 0
      vertex 3.55369 10.9371 -7
      vertex 2.15488 11.2963 -7
    endloop
  endfacet
  facet normal 0.125331 0.992115 -0
    outer loop
      vertex 2.15488 11.2963 -7
      vertex 0.722091 11.4773 0
      vertex 2.15488 11.2963 0
    endloop
  endfacet
  facet normal 0.125331 0.992115 0
    outer loop
      vertex 0.722091 11.4773 0
      vertex 2.15488 11.2963 -7
      vertex 0.722091 11.4773 -7
    endloop
  endfacet
  facet normal 0.587785 0.809017 -0
    outer loop
      vertex 7.33038 8.8609 -7
      vertex 6.16201 9.70977 0
      vertex 7.33038 8.8609 0
    endloop
  endfacet
  facet normal 0.587785 0.809017 0
    outer loop
      vertex 6.16201 9.70977 0
      vertex 7.33038 8.8609 -7
      vertex 6.16201 9.70977 -7
    endloop
  endfacet
  facet normal -0.844334 0.535817 0
    outer loop
      vertex -10.0775 5.54017 -7
      vertex -9.30369 6.75953 0
      vertex -9.30369 6.75953 -7
    endloop
  endfacet
  facet normal -0.844334 0.535817 0
    outer loop
      vertex -9.30369 6.75953 0
      vertex -10.0775 5.54017 -7
      vertex -10.0775 5.54017 0
    endloop
  endfacet
  facet normal -0.951052 0.309031 0
    outer loop
      vertex -11.1387 2.85993 -7
      vertex -10.6924 4.23343 0
      vertex -10.6924 4.23343 -7
    endloop
  endfacet
  facet normal -0.951052 0.309031 0
    outer loop
      vertex -10.6924 4.23343 0
      vertex -11.1387 2.85993 -7
      vertex -11.1387 2.85993 0
    endloop
  endfacet
  facet normal -0.982289 0.187373 0
    outer loop
      vertex -11.4093 1.44133 -7
      vertex -11.1387 2.85993 0
      vertex -11.1387 2.85993 -7
    endloop
  endfacet
  facet normal -0.982289 0.187373 0
    outer loop
      vertex -11.1387 2.85993 0
      vertex -11.4093 1.44133 -7
      vertex -11.4093 1.44133 0
    endloop
  endfacet
  facet normal -0.481747 0.87631 0
    outer loop
      vertex -4.89646 10.4055 -7
      vertex -6.16201 9.70977 0
      vertex -4.89646 10.4055 0
    endloop
  endfacet
  facet normal -0.481747 0.87631 0
    outer loop
      vertex -6.16201 9.70977 0
      vertex -4.89646 10.4055 -7
      vertex -6.16201 9.70977 -7
    endloop
  endfacet
  facet normal -0.587785 0.809017 0
    outer loop
      vertex -6.16201 9.70977 -7
      vertex -7.33038 8.8609 0
      vertex -6.16201 9.70977 0
    endloop
  endfacet
  facet normal -0.587785 0.809017 0
    outer loop
      vertex -7.33038 8.8609 0
      vertex -6.16201 9.70977 -7
      vertex -7.33038 8.8609 -7
    endloop
  endfacet
  facet normal -0.24872 0.968575 0
    outer loop
      vertex -2.15488 11.2963 -7
      vertex -3.55369 10.9371 0
      vertex -2.15488 11.2963 0
    endloop
  endfacet
  facet normal -0.24872 0.968575 0
    outer loop
      vertex -3.55369 10.9371 0
      vertex -2.15488 11.2963 -7
      vertex -3.55369 10.9371 -7
    endloop
  endfacet
  facet normal 0.998026 -0.0628038 0
    outer loop
      vertex 11.4093 -1.44133 0
      vertex 11.5 0 -7
      vertex 11.5 0 0
    endloop
  endfacet
  facet normal 0.998026 -0.0628038 0
    outer loop
      vertex 11.5 0 -7
      vertex 11.4093 -1.44133 0
      vertex 11.4093 -1.44133 -7
    endloop
  endfacet
  facet normal -0.904828 -0.425776 0
    outer loop
      vertex -10.0775 -5.54017 -7
      vertex -10.6924 -4.23343 0
      vertex -10.6924 -4.23343 -7
    endloop
  endfacet
  facet normal -0.904828 -0.425776 0
    outer loop
      vertex -10.6924 -4.23343 0
      vertex -10.0775 -5.54017 -7
      vertex -10.0775 -5.54017 0
    endloop
  endfacet
  facet normal 0.481747 -0.87631 0
    outer loop
      vertex 4.89646 -10.4055 -7
      vertex 6.16201 -9.70977 0
      vertex 4.89646 -10.4055 0
    endloop
  endfacet
  facet normal 0.481747 -0.87631 0
    outer loop
      vertex 6.16201 -9.70977 0
      vertex 4.89646 -10.4055 -7
      vertex 6.16201 -9.70977 -7
    endloop
  endfacet
  facet normal 0.951052 -0.309031 0
    outer loop
      vertex 10.6924 -4.23343 0
      vertex 11.1387 -2.85993 -7
      vertex 11.1387 -2.85993 0
    endloop
  endfacet
  facet normal 0.951052 -0.309031 0
    outer loop
      vertex 11.1387 -2.85993 -7
      vertex 10.6924 -4.23343 0
      vertex 10.6924 -4.23343 -7
    endloop
  endfacet
  facet normal -0.24872 -0.968575 0
    outer loop
      vertex -3.55369 -10.9371 -7
      vertex -2.15488 -11.2963 0
      vertex -3.55369 -10.9371 0
    endloop
  endfacet
  facet normal -0.24872 -0.968575 -0
    outer loop
      vertex -2.15488 -11.2963 0
      vertex -3.55369 -10.9371 -7
      vertex -2.15488 -11.2963 -7
    endloop
  endfacet
  facet normal -0.982289 -0.187373 0
    outer loop
      vertex -11.1387 -2.85993 -7
      vertex -11.4093 -1.44133 0
      vertex -11.4093 -1.44133 -7
    endloop
  endfacet
  facet normal -0.982289 -0.187373 0
    outer loop
      vertex -11.4093 -1.44133 0
      vertex -11.1387 -2.85993 -7
      vertex -11.1387 -2.85993 0
    endloop
  endfacet
  facet normal -0.998026 -0.0628038 0
    outer loop
      vertex -11.4093 -1.44133 -7
      vertex -11.5 0 0
      vertex -11.5 0 -7
    endloop
  endfacet
  facet normal -0.998026 -0.0628038 0
    outer loop
      vertex -11.5 0 0
      vertex -11.4093 -1.44133 -7
      vertex -11.4093 -1.44133 0
    endloop
  endfacet
  facet normal -0.951052 -0.309031 0
    outer loop
      vertex -10.6924 -4.23343 -7
      vertex -11.1387 -2.85993 0
      vertex -11.1387 -2.85993 -7
    endloop
  endfacet
  facet normal -0.951052 -0.309031 0
    outer loop
      vertex -11.1387 -2.85993 0
      vertex -10.6924 -4.23343 -7
      vertex -10.6924 -4.23343 0
    endloop
  endfacet
  facet normal 0.684548 -0.728968 0
    outer loop
      vertex 7.33038 -8.8609 -7
      vertex 8.38314 -7.87229 0
      vertex 7.33038 -8.8609 0
    endloop
  endfacet
  facet normal 0.684548 -0.728968 0
    outer loop
      vertex 8.38314 -7.87229 0
      vertex 7.33038 -8.8609 -7
      vertex 8.38314 -7.87229 -7
    endloop
  endfacet
  facet normal 0.3681 -0.929786 0
    outer loop
      vertex 3.55369 -10.9371 -7
      vertex 4.89646 -10.4055 0
      vertex 3.55369 -10.9371 0
    endloop
  endfacet
  facet normal 0.3681 -0.929786 0
    outer loop
      vertex 4.89646 -10.4055 0
      vertex 3.55369 -10.9371 -7
      vertex 4.89646 -10.4055 -7
    endloop
  endfacet
  facet normal 0.24872 -0.968575 0
    outer loop
      vertex 2.15488 -11.2963 -7
      vertex 3.55369 -10.9371 0
      vertex 2.15488 -11.2963 0
    endloop
  endfacet
  facet normal 0.24872 -0.968575 0
    outer loop
      vertex 3.55369 -10.9371 0
      vertex 2.15488 -11.2963 -7
      vertex 3.55369 -10.9371 -7
    endloop
  endfacet
  facet normal 0.844334 -0.535817 0
    outer loop
      vertex 9.30369 -6.75953 0
      vertex 10.0775 -5.54017 -7
      vertex 10.0775 -5.54017 0
    endloop
  endfacet
  facet normal 0.844334 -0.535817 0
    outer loop
      vertex 10.0775 -5.54017 -7
      vertex 9.30369 -6.75953 0
      vertex 9.30369 -6.75953 -7
    endloop
  endfacet
  facet normal 0.982289 -0.187373 0
    outer loop
      vertex 11.1387 -2.85993 0
      vertex 11.4093 -1.44133 -7
      vertex 11.4093 -1.44133 0
    endloop
  endfacet
  facet normal 0.982289 -0.187373 0
    outer loop
      vertex 11.4093 -1.44133 -7
      vertex 11.1387 -2.85993 0
      vertex 11.1387 -2.85993 -7
    endloop
  endfacet
  facet normal -0.125331 -0.992115 0
    outer loop
      vertex -2.15488 -11.2963 -7
      vertex -0.722091 -11.4773 0
      vertex -2.15488 -11.2963 0
    endloop
  endfacet
  facet normal -0.125331 -0.992115 -0
    outer loop
      vertex -0.722091 -11.4773 0
      vertex -2.15488 -11.2963 -7
      vertex -0.722091 -11.4773 -7
    endloop
  endfacet
  facet normal -0.3681 -0.929786 0
    outer loop
      vertex -4.89646 -10.4055 -7
      vertex -3.55369 -10.9371 0
      vertex -4.89646 -10.4055 0
    endloop
  endfacet
  facet normal -0.3681 -0.929786 -0
    outer loop
      vertex -3.55369 -10.9371 0
      vertex -4.89646 -10.4055 -7
      vertex -3.55369 -10.9371 -7
    endloop
  endfacet
  facet normal -0.770515 -0.637422 0
    outer loop
      vertex -8.38314 -7.87229 -7
      vertex -9.30369 -6.75953 0
      vertex -9.30369 -6.75953 -7
    endloop
  endfacet
  facet normal -0.770515 -0.637422 0
    outer loop
      vertex -9.30369 -6.75953 0
      vertex -8.38314 -7.87229 -7
      vertex -8.38314 -7.87229 0
    endloop
  endfacet
  facet normal -0.684548 -0.728968 0
    outer loop
      vertex -8.38314 -7.87229 -7
      vertex -7.33038 -8.8609 0
      vertex -8.38314 -7.87229 0
    endloop
  endfacet
  facet normal -0.684548 -0.728968 -0
    outer loop
      vertex -7.33038 -8.8609 0
      vertex -8.38314 -7.87229 -7
      vertex -7.33038 -8.8609 -7
    endloop
  endfacet
  facet normal 0.587785 -0.809017 0
    outer loop
      vertex 6.16201 -9.70977 -7
      vertex 7.33038 -8.8609 0
      vertex 6.16201 -9.70977 0
    endloop
  endfacet
  facet normal 0.587785 -0.809017 0
    outer loop
      vertex 7.33038 -8.8609 0
      vertex 6.16201 -9.70977 -7
      vertex 7.33038 -8.8609 -7
    endloop
  endfacet
  facet normal 0.904828 -0.425776 0
    outer loop
      vertex 10.0775 -5.54017 0
      vertex 10.6924 -4.23343 -7
      vertex 10.6924 -4.23343 0
    endloop
  endfacet
  facet normal 0.904828 -0.425776 0
    outer loop
      vertex 10.6924 -4.23343 -7
      vertex 10.0775 -5.54017 0
      vertex 10.0775 -5.54017 -7
    endloop
  endfacet
  facet normal -0.844334 -0.535817 0
    outer loop
      vertex -9.30369 -6.75953 -7
      vertex -10.0775 -5.54017 0
      vertex -10.0775 -5.54017 -7
    endloop
  endfacet
  facet normal -0.844334 -0.535817 0
    outer loop
      vertex -10.0775 -5.54017 0
      vertex -9.30369 -6.75953 -7
      vertex -9.30369 -6.75953 0
    endloop
  endfacet
  facet normal -0.481747 -0.87631 0
    outer loop
      vertex -6.16201 -9.70977 -7
      vertex -4.89646 -10.4055 0
      vertex -6.16201 -9.70977 0
    endloop
  endfacet
  facet normal -0.481747 -0.87631 -0
    outer loop
      vertex -4.89646 -10.4055 0
      vertex -6.16201 -9.70977 -7
      vertex -4.89646 -10.4055 -7
    endloop
  endfacet
  facet normal -0.587785 -0.809017 0
    outer loop
      vertex -7.33038 -8.8609 -7
      vertex -6.16201 -9.70977 0
      vertex -7.33038 -8.8609 0
    endloop
  endfacet
  facet normal -0.587785 -0.809017 -0
    outer loop
      vertex -6.16201 -9.70977 0
      vertex -7.33038 -8.8609 -7
      vertex -6.16201 -9.70977 -7
    endloop
  endfacet
  facet normal -0.998027 -0.062787 0
    outer loop
      vertex 8.6 0 -6
      vertex 8.53219 1.07787 0
      vertex 8.53219 1.07787 -6
    endloop
  endfacet
  facet normal -0.998027 -0.062787 0
    outer loop
      vertex 8.53219 1.07787 0
      vertex 8.6 0 -6
      vertex 8.6 0 0
    endloop
  endfacet
  facet normal 0.998027 -0.062787 0
    outer loop
      vertex -8.6 0 0
      vertex -8.53219 1.07787 -6
      vertex -8.53219 1.07787 0
    endloop
  endfacet
  facet normal 0.998027 -0.062787 0
    outer loop
      vertex -8.53219 1.07787 -6
      vertex -8.6 0 0
      vertex -8.6 0 -6
    endloop
  endfacet
  facet normal 0 -1 0
    outer loop
      vertex -0.539998 8.58303 -6
      vertex 0.539998 8.58303 0
      vertex -0.539998 8.58303 0
    endloop
  endfacet
  facet normal 0 -1 -0
    outer loop
      vertex 0.539998 8.58303 0
      vertex -0.539998 8.58303 -6
      vertex 0.539998 8.58303 -6
    endloop
  endfacet
  facet normal 0 1 -0
    outer loop
      vertex 0.539998 -8.58303 -6
      vertex -0.539998 -8.58303 0
      vertex 0.539998 -8.58303 0
    endloop
  endfacet
  facet normal 0 1 0
    outer loop
      vertex -0.539998 -8.58303 0
      vertex 0.539998 -8.58303 -6
      vertex -0.539998 -8.58303 -6
    endloop
  endfacet
  facet normal -0.68455 0.728966 0
    outer loop
      vertex 6.26913 -5.8871 -6
      vertex 5.48185 -6.62641 0
      vertex 6.26913 -5.8871 0
    endloop
  endfacet
  facet normal -0.68455 0.728966 0
    outer loop
      vertex 5.48185 -6.62641 0
      vertex 6.26913 -5.8871 -6
      vertex 5.48185 -6.62641 -6
    endloop
  endfacet
  facet normal -0.68455 -0.728966 0
    outer loop
      vertex 5.48185 6.62641 -6
      vertex 6.26913 5.8871 0
      vertex 5.48185 6.62641 0
    endloop
  endfacet
  facet normal -0.68455 -0.728966 -0
    outer loop
      vertex 6.26913 5.8871 0
      vertex 5.48185 6.62641 -6
      vertex 6.26913 5.8871 -6
    endloop
  endfacet
  facet normal 0.68455 -0.728966 0
    outer loop
      vertex -6.26913 5.8871 -6
      vertex -5.48185 6.62641 0
      vertex -6.26913 5.8871 0
    endloop
  endfacet
  facet normal 0.68455 -0.728966 0
    outer loop
      vertex -5.48185 6.62641 0
      vertex -6.26913 5.8871 -6
      vertex -5.48185 6.62641 -6
    endloop
  endfacet
  facet normal 0.368132 -0.929774 0
    outer loop
      vertex -3.6617 7.78151 -6
      vertex -2.65755 8.17909 0
      vertex -3.6617 7.78151 0
    endloop
  endfacet
  facet normal 0.368132 -0.929774 0
    outer loop
      vertex -2.65755 8.17909 0
      vertex -3.6617 7.78151 -6
      vertex -2.65755 8.17909 -6
    endloop
  endfacet
  facet normal -0.904827 -0.425779 0
    outer loop
      vertex 7.99608 3.16587 -6
      vertex 7.53624 4.14308 0
      vertex 7.53624 4.14308 -6
    endloop
  endfacet
  facet normal -0.904827 -0.425779 0
    outer loop
      vertex 7.53624 4.14308 0
      vertex 7.99608 3.16587 -6
      vertex 7.99608 3.16587 0
    endloop
  endfacet
  facet normal -0.982286 -0.18739 0
    outer loop
      vertex 8.53219 1.07787 -6
      vertex 8.32981 2.13873 0
      vertex 8.32981 2.13873 -6
    endloop
  endfacet
  facet normal -0.982286 -0.18739 0
    outer loop
      vertex 8.32981 2.13873 0
      vertex 8.53219 1.07787 -6
      vertex 8.53219 1.07787 0
    endloop
  endfacet
  facet normal -0.368132 -0.929774 0
    outer loop
      vertex 2.65755 8.17909 -6
      vertex 3.6617 7.78151 0
      vertex 2.65755 8.17909 0
    endloop
  endfacet
  facet normal -0.368132 -0.929774 -0
    outer loop
      vertex 3.6617 7.78151 0
      vertex 2.65755 8.17909 -6
      vertex 3.6617 7.78151 -6
    endloop
  endfacet
  facet normal -0.587786 -0.809017 0
    outer loop
      vertex 4.60811 7.26122 -6
      vertex 5.48185 6.62641 0
      vertex 4.60811 7.26122 0
    endloop
  endfacet
  facet normal -0.587786 -0.809017 -0
    outer loop
      vertex 5.48185 6.62641 0
      vertex 4.60811 7.26122 -6
      vertex 5.48185 6.62641 -6
    endloop
  endfacet
  facet normal 0.844328 -0.535827 0
    outer loop
      vertex -7.53624 4.14308 0
      vertex -6.95755 5.05495 -6
      vertex -6.95755 5.05495 0
    endloop
  endfacet
  facet normal 0.844328 -0.535827 0
    outer loop
      vertex -6.95755 5.05495 -6
      vertex -7.53624 4.14308 0
      vertex -7.53624 4.14308 -6
    endloop
  endfacet
  facet normal 0.770511 -0.637427 0
    outer loop
      vertex -6.95755 5.05495 0
      vertex -6.26913 5.8871 -6
      vertex -6.26913 5.8871 0
    endloop
  endfacet
  facet normal 0.770511 -0.637427 0
    outer loop
      vertex -6.26913 5.8871 -6
      vertex -6.95755 5.05495 0
      vertex -6.95755 5.05495 -6
    endloop
  endfacet
  facet normal 0.951059 -0.30901 0
    outer loop
      vertex -8.32981 2.13873 0
      vertex -7.99608 3.16587 -6
      vertex -7.99608 3.16587 0
    endloop
  endfacet
  facet normal 0.951059 -0.30901 0
    outer loop
      vertex -7.99608 3.16587 -6
      vertex -8.32981 2.13873 0
      vertex -8.32981 2.13873 -6
    endloop
  endfacet
  facet normal 0.481751 -0.876308 0
    outer loop
      vertex -4.60811 7.26122 -6
      vertex -3.6617 7.78151 0
      vertex -4.60811 7.26122 0
    endloop
  endfacet
  facet normal 0.481751 -0.876308 0
    outer loop
      vertex -3.6617 7.78151 0
      vertex -4.60811 7.26122 -6
      vertex -3.6617 7.78151 -6
    endloop
  endfacet
  facet normal 0.248685 -0.968584 0
    outer loop
      vertex -2.65755 8.17909 -6
      vertex -1.61148 8.44767 0
      vertex -2.65755 8.17909 0
    endloop
  endfacet
  facet normal 0.248685 -0.968584 0
    outer loop
      vertex -1.61148 8.44767 0
      vertex -2.65755 8.17909 -6
      vertex -1.61148 8.44767 -6
    endloop
  endfacet
  facet normal -0.951059 0.30901 0
    outer loop
      vertex 7.99608 -3.16587 -6
      vertex 8.32981 -2.13873 0
      vertex 8.32981 -2.13873 -6
    endloop
  endfacet
  facet normal -0.951059 0.30901 0
    outer loop
      vertex 8.32981 -2.13873 0
      vertex 7.99608 -3.16587 -6
      vertex 7.99608 -3.16587 0
    endloop
  endfacet
  facet normal -0.125334 0.992115 0
    outer loop
      vertex 1.61148 -8.44767 -6
      vertex 0.539998 -8.58303 0
      vertex 1.61148 -8.44767 0
    endloop
  endfacet
  facet normal -0.125334 0.992115 0
    outer loop
      vertex 0.539998 -8.58303 0
      vertex 1.61148 -8.44767 -6
      vertex 0.539998 -8.58303 -6
    endloop
  endfacet
  facet normal -0.951059 -0.30901 0
    outer loop
      vertex 8.32981 2.13873 -6
      vertex 7.99608 3.16587 0
      vertex 7.99608 3.16587 -6
    endloop
  endfacet
  facet normal -0.951059 -0.30901 0
    outer loop
      vertex 7.99608 3.16587 0
      vertex 8.32981 2.13873 -6
      vertex 8.32981 2.13873 0
    endloop
  endfacet
  facet normal -0.770511 -0.637427 0
    outer loop
      vertex 6.95755 5.05495 -6
      vertex 6.26913 5.8871 0
      vertex 6.26913 5.8871 -6
    endloop
  endfacet
  facet normal -0.770511 -0.637427 0
    outer loop
      vertex 6.26913 5.8871 0
      vertex 6.95755 5.05495 -6
      vertex 6.95755 5.05495 0
    endloop
  endfacet
  facet normal -0.844328 -0.535827 0
    outer loop
      vertex 7.53624 4.14308 -6
      vertex 6.95755 5.05495 0
      vertex 6.95755 5.05495 -6
    endloop
  endfacet
  facet normal -0.844328 -0.535827 0
    outer loop
      vertex 6.95755 5.05495 0
      vertex 7.53624 4.14308 -6
      vertex 7.53624 4.14308 0
    endloop
  endfacet
  facet normal -0.248685 -0.968584 0
    outer loop
      vertex 1.61148 8.44767 -6
      vertex 2.65755 8.17909 0
      vertex 1.61148 8.44767 0
    endloop
  endfacet
  facet normal -0.248685 -0.968584 -0
    outer loop
      vertex 2.65755 8.17909 0
      vertex 1.61148 8.44767 -6
      vertex 2.65755 8.17909 -6
    endloop
  endfacet
  facet normal -0.125334 -0.992115 0
    outer loop
      vertex 0.539998 8.58303 -6
      vertex 1.61148 8.44767 0
      vertex 0.539998 8.58303 0
    endloop
  endfacet
  facet normal -0.125334 -0.992115 -0
    outer loop
      vertex 1.61148 8.44767 0
      vertex 0.539998 8.58303 -6
      vertex 1.61148 8.44767 -6
    endloop
  endfacet
  facet normal -0.481751 -0.876308 0
    outer loop
      vertex 3.6617 7.78151 -6
      vertex 4.60811 7.26122 0
      vertex 3.6617 7.78151 0
    endloop
  endfacet
  facet normal -0.481751 -0.876308 -0
    outer loop
      vertex 4.60811 7.26122 0
      vertex 3.6617 7.78151 -6
      vertex 4.60811 7.26122 -6
    endloop
  endfacet
  facet normal 0.904827 -0.425779 0
    outer loop
      vertex -7.99608 3.16587 0
      vertex -7.53624 4.14308 -6
      vertex -7.53624 4.14308 0
    endloop
  endfacet
  facet normal 0.904827 -0.425779 0
    outer loop
      vertex -7.53624 4.14308 -6
      vertex -7.99608 3.16587 0
      vertex -7.99608 3.16587 -6
    endloop
  endfacet
  facet normal 0.982286 -0.18739 0
    outer loop
      vertex -8.53219 1.07787 0
      vertex -8.32981 2.13873 -6
      vertex -8.32981 2.13873 0
    endloop
  endfacet
  facet normal 0.982286 -0.18739 0
    outer loop
      vertex -8.32981 2.13873 -6
      vertex -8.53219 1.07787 0
      vertex -8.53219 1.07787 -6
    endloop
  endfacet
  facet normal 0.587786 -0.809017 0
    outer loop
      vertex -5.48185 6.62641 -6
      vertex -4.60811 7.26122 0
      vertex -5.48185 6.62641 0
    endloop
  endfacet
  facet normal 0.587786 -0.809017 0
    outer loop
      vertex -4.60811 7.26122 0
      vertex -5.48185 6.62641 -6
      vertex -4.60811 7.26122 -6
    endloop
  endfacet
  facet normal 0.125334 -0.992115 0
    outer loop
      vertex -1.61148 8.44767 -6
      vertex -0.539998 8.58303 0
      vertex -1.61148 8.44767 0
    endloop
  endfacet
  facet normal 0.125334 -0.992115 0
    outer loop
      vertex -0.539998 8.58303 0
      vertex -1.61148 8.44767 -6
      vertex -0.539998 8.58303 -6
    endloop
  endfacet
  facet normal -0.998027 0.062787 0
    outer loop
      vertex 8.53219 -1.07787 -6
      vertex 8.6 0 0
      vertex 8.6 0 -6
    endloop
  endfacet
  facet normal -0.998027 0.062787 0
    outer loop
      vertex 8.6 0 0
      vertex 8.53219 -1.07787 -6
      vertex 8.53219 -1.07787 0
    endloop
  endfacet
  facet normal -0.982286 0.18739 0
    outer loop
      vertex 8.32981 -2.13873 -6
      vertex 8.53219 -1.07787 0
      vertex 8.53219 -1.07787 -6
    endloop
  endfacet
  facet normal -0.982286 0.18739 0
    outer loop
      vertex 8.53219 -1.07787 0
      vertex 8.32981 -2.13873 -6
      vertex 8.32981 -2.13873 0
    endloop
  endfacet
  facet normal 0 0 1
    outer loop
      vertex 8.53219 1.07787 -6
      vertex 8.53219 -1.07787 -6
      vertex 8.6 0 -6
    endloop
  endfacet
  facet normal 0 0 1
    outer loop
      vertex 8.32981 2.13873 -6
      vertex 8.53219 -1.07787 -6
      vertex 8.53219 1.07787 -6
    endloop
  endfacet
  facet normal 0 0 1
    outer loop
      vertex 8.32981 2.13873 -6
      vertex 8.32981 -2.13873 -6
      vertex 8.53219 -1.07787 -6
    endloop
  endfacet
  facet normal 0 0 1
    outer loop
      vertex 7.99608 3.16587 -6
      vertex 8.32981 -2.13873 -6
      vertex 8.32981 2.13873 -6
    endloop
  endfacet
  facet normal 0 0 1
    outer loop
      vertex 7.99608 3.16587 -6
      vertex 7.99608 -3.16587 -6
      vertex 8.32981 -2.13873 -6
    endloop
  endfacet
  facet normal 0 0 1
    outer loop
      vertex 7.53624 4.14308 -6
      vertex 7.99608 -3.16587 -6
      vertex 7.99608 3.16587 -6
    endloop
  endfacet
  facet normal 0 0 1
    outer loop
      vertex 7.53624 4.14308 -6
      vertex 7.53624 -4.14308 -6
      vertex 7.99608 -3.16587 -6
    endloop
  endfacet
  facet normal 0 0 1
    outer loop
      vertex 6.95755 5.05495 -6
      vertex 7.53624 -4.14308 -6
      vertex 7.53624 4.14308 -6
    endloop
  endfacet
  facet normal 0 0 1
    outer loop
      vertex 6.95755 5.05495 -6
      vertex 6.95755 -5.05495 -6
      vertex 7.53624 -4.14308 -6
    endloop
  endfacet
  facet normal 0 0 1
    outer loop
      vertex 6.26913 5.8871 -6
      vertex 6.95755 -5.05495 -6
      vertex 6.95755 5.05495 -6
    endloop
  endfacet
  facet normal 0 0 1
    outer loop
      vertex 6.26913 5.8871 -6
      vertex 6.26913 -5.8871 -6
      vertex 6.95755 -5.05495 -6
    endloop
  endfacet
  facet normal 0 0 1
    outer loop
      vertex 5.48185 6.62641 -6
      vertex 6.26913 -5.8871 -6
      vertex 6.26913 5.8871 -6
    endloop
  endfacet
  facet normal 0 0 1
    outer loop
      vertex 5.48185 6.62641 -6
      vertex 5.48185 -6.62641 -6
      vertex 6.26913 -5.8871 -6
    endloop
  endfacet
  facet normal 0 0 1
    outer loop
      vertex 4.60811 7.26122 -6
      vertex 5.48185 -6.62641 -6
      vertex 5.48185 6.62641 -6
    endloop
  endfacet
  facet normal 0 0 1
    outer loop
      vertex 4.60811 7.26122 -6
      vertex 4.60811 -7.26122 -6
      vertex 5.48185 -6.62641 -6
    endloop
  endfacet
  facet normal 0 0 1
    outer loop
      vertex 3.6617 7.78151 -6
      vertex 4.60811 -7.26122 -6
      vertex 4.60811 7.26122 -6
    endloop
  endfacet
  facet normal 0 0 1
    outer loop
      vertex 3.6617 7.78151 -6
      vertex 3.6617 -7.78151 -6
      vertex 4.60811 -7.26122 -6
    endloop
  endfacet
  facet normal 0 0 1
    outer loop
      vertex 2.65755 8.17909 -6
      vertex 3.6617 -7.78151 -6
      vertex 3.6617 7.78151 -6
    endloop
  endfacet
  facet normal 0 0 1
    outer loop
      vertex 2.65755 8.17909 -6
      vertex 2.65755 -8.17909 -6
      vertex 3.6617 -7.78151 -6
    endloop
  endfacet
  facet normal 0 0 1
    outer loop
      vertex 1.61148 8.44767 -6
      vertex 2.65755 -8.17909 -6
      vertex 2.65755 8.17909 -6
    endloop
  endfacet
  facet normal 0 0 1
    outer loop
      vertex 1.61148 8.44767 -6
      vertex 1.61148 -8.44767 -6
      vertex 2.65755 -8.17909 -6
    endloop
  endfacet
  facet normal 0 0 1
    outer loop
      vertex 0.539998 8.58303 -6
      vertex 1.61148 -8.44767 -6
      vertex 1.61148 8.44767 -6
    endloop
  endfacet
  facet normal 0 0 1
    outer loop
      vertex 0.539998 8.58303 -6
      vertex 0.539998 -8.58303 -6
      vertex 1.61148 -8.44767 -6
    endloop
  endfacet
  facet normal -0 0 1
    outer loop
      vertex -0.539998 8.58303 -6
      vertex 0.539998 -8.58303 -6
      vertex 0.539998 8.58303 -6
    endloop
  endfacet
  facet normal 0 0 1
    outer loop
      vertex -0.539998 8.58303 -6
      vertex -0.539998 -8.58303 -6
      vertex 0.539998 -8.58303 -6
    endloop
  endfacet
  facet normal -0 0 1
    outer loop
      vertex -1.61148 8.44767 -6
      vertex -0.539998 -8.58303 -6
      vertex -0.539998 8.58303 -6
    endloop
  endfacet
  facet normal 0 0 1
    outer loop
      vertex -1.61148 8.44767 -6
      vertex -1.61148 -8.44767 -6
      vertex -0.539998 -8.58303 -6
    endloop
  endfacet
  facet normal -0 0 1
    outer loop
      vertex -2.65755 8.17909 -6
      vertex -1.61148 -8.44767 -6
      vertex -1.61148 8.44767 -6
    endloop
  endfacet
  facet normal 0 0 1
    outer loop
      vertex -2.65755 8.17909 -6
      vertex -2.65755 -8.17909 -6
      vertex -1.61148 -8.44767 -6
    endloop
  endfacet
  facet normal -0 0 1
    outer loop
      vertex -3.6617 7.78151 -6
      vertex -2.65755 -8.17909 -6
      vertex -2.65755 8.17909 -6
    endloop
  endfacet
  facet normal 0 0 1
    outer loop
      vertex -3.6617 7.78151 -6
      vertex -3.6617 -7.78151 -6
      vertex -2.65755 -8.17909 -6
    endloop
  endfacet
  facet normal -0 0 1
    outer loop
      vertex -4.60811 7.26122 -6
      vertex -3.6617 -7.78151 -6
      vertex -3.6617 7.78151 -6
    endloop
  endfacet
  facet normal 0 0 1
    outer loop
      vertex -4.60811 7.26122 -6
      vertex -4.60811 -7.26122 -6
      vertex -3.6617 -7.78151 -6
    endloop
  endfacet
  facet normal -0 0 1
    outer loop
      vertex -5.48185 6.62641 -6
      vertex -4.60811 -7.26122 -6
      vertex -4.60811 7.26122 -6
    endloop
  endfacet
  facet normal 0 0 1
    outer loop
      vertex -5.48185 6.62641 -6
      vertex -5.48185 -6.62641 -6
      vertex -4.60811 -7.26122 -6
    endloop
  endfacet
  facet normal -0 0 1
    outer loop
      vertex -6.26913 5.8871 -6
      vertex -5.48185 -6.62641 -6
      vertex -5.48185 6.62641 -6
    endloop
  endfacet
  facet normal 0 0 1
    outer loop
      vertex -6.26913 5.8871 -6
      vertex -6.26913 -5.8871 -6
      vertex -5.48185 -6.62641 -6
    endloop
  endfacet
  facet normal -0 0 1
    outer loop
      vertex -6.95755 5.05495 -6
      vertex -6.26913 -5.8871 -6
      vertex -6.26913 5.8871 -6
    endloop
  endfacet
  facet normal 0 0 1
    outer loop
      vertex -6.95755 5.05495 -6
      vertex -6.95755 -5.05495 -6
      vertex -6.26913 -5.8871 -6
    endloop
  endfacet
  facet normal -0 0 1
    outer loop
      vertex -7.53624 4.14308 -6
      vertex -6.95755 -5.05495 -6
      vertex -6.95755 5.05495 -6
    endloop
  endfacet
  facet normal 0 0 1
    outer loop
      vertex -7.53624 4.14308 -6
      vertex -7.53624 -4.14308 -6
      vertex -6.95755 -5.05495 -6
    endloop
  endfacet
  facet normal -0 0 1
    outer loop
      vertex -7.99608 3.16587 -6
      vertex -7.53624 -4.14308 -6
      vertex -7.53624 4.14308 -6
    endloop
  endfacet
  facet normal 0 0 1
    outer loop
      vertex -7.99608 3.16587 -6
      vertex -7.99608 -3.16587 -6
      vertex -7.53624 -4.14308 -6
    endloop
  endfacet
  facet normal -0 0 1
    outer loop
      vertex -8.32981 2.13873 -6
      vertex -7.99608 -3.16587 -6
      vertex -7.99608 3.16587 -6
    endloop
  endfacet
  facet normal 0 0 1
    outer loop
      vertex -8.32981 2.13873 -6
      vertex -8.32981 -2.13873 -6
      vertex -7.99608 -3.16587 -6
    endloop
  endfacet
  facet normal -0 0 1
    outer loop
      vertex -8.53219 1.07787 -6
      vertex -8.32981 -2.13873 -6
      vertex -8.32981 2.13873 -6
    endloop
  endfacet
  facet normal 0 0 1
    outer loop
      vertex -8.53219 1.07787 -6
      vertex -8.53219 -1.07787 -6
      vertex -8.32981 -2.13873 -6
    endloop
  endfacet
  facet normal 0 -0 1
    outer loop
      vertex -8.53219 -1.07787 -6
      vertex -8.53219 1.07787 -6
      vertex -8.6 0 -6
    endloop
  endfacet
  facet normal -0.481751 0.876308 0
    outer loop
      vertex 4.60811 -7.26122 -6
      vertex 3.6617 -7.78151 0
      vertex 4.60811 -7.26122 0
    endloop
  endfacet
  facet normal -0.481751 0.876308 0
    outer loop
      vertex 3.6617 -7.78151 0
      vertex 4.60811 -7.26122 -6
      vertex 3.6617 -7.78151 -6
    endloop
  endfacet
  facet normal -0.368132 0.929774 0
    outer loop
      vertex 3.6617 -7.78151 -6
      vertex 2.65755 -8.17909 0
      vertex 3.6617 -7.78151 0
    endloop
  endfacet
  facet normal -0.368132 0.929774 0
    outer loop
      vertex 2.65755 -8.17909 0
      vertex 3.6617 -7.78151 -6
      vertex 2.65755 -8.17909 -6
    endloop
  endfacet
  facet normal -0.770511 0.637427 0
    outer loop
      vertex 6.26913 -5.8871 -6
      vertex 6.95755 -5.05495 0
      vertex 6.95755 -5.05495 -6
    endloop
  endfacet
  facet normal -0.770511 0.637427 0
    outer loop
      vertex 6.95755 -5.05495 0
      vertex 6.26913 -5.8871 -6
      vertex 6.26913 -5.8871 0
    endloop
  endfacet
  facet normal -0.904827 0.425779 0
    outer loop
      vertex 7.53624 -4.14308 -6
      vertex 7.99608 -3.16587 0
      vertex 7.99608 -3.16587 -6
    endloop
  endfacet
  facet normal -0.904827 0.425779 0
    outer loop
      vertex 7.99608 -3.16587 0
      vertex 7.53624 -4.14308 -6
      vertex 7.53624 -4.14308 0
    endloop
  endfacet
  facet normal 0.481751 0.876308 -0
    outer loop
      vertex -3.6617 -7.78151 -6
      vertex -4.60811 -7.26122 0
      vertex -3.6617 -7.78151 0
    endloop
  endfacet
  facet normal 0.481751 0.876308 0
    outer loop
      vertex -4.60811 -7.26122 0
      vertex -3.6617 -7.78151 -6
      vertex -4.60811 -7.26122 -6
    endloop
  endfacet
  facet normal 0.770511 0.637427 0
    outer loop
      vertex -6.26913 -5.8871 0
      vertex -6.95755 -5.05495 -6
      vertex -6.95755 -5.05495 0
    endloop
  endfacet
  facet normal 0.770511 0.637427 0
    outer loop
      vertex -6.95755 -5.05495 -6
      vertex -6.26913 -5.8871 0
      vertex -6.26913 -5.8871 -6
    endloop
  endfacet
  facet normal 0.951059 0.30901 0
    outer loop
      vertex -7.99608 -3.16587 0
      vertex -8.32981 -2.13873 -6
      vertex -8.32981 -2.13873 0
    endloop
  endfacet
  facet normal 0.951059 0.30901 0
    outer loop
      vertex -8.32981 -2.13873 -6
      vertex -7.99608 -3.16587 0
      vertex -7.99608 -3.16587 -6
    endloop
  endfacet
  facet normal 0.998027 0.062787 0
    outer loop
      vertex -8.53219 -1.07787 0
      vertex -8.6 0 -6
      vertex -8.6 0 0
    endloop
  endfacet
  facet normal 0.998027 0.062787 0
    outer loop
      vertex -8.6 0 -6
      vertex -8.53219 -1.07787 0
      vertex -8.53219 -1.07787 -6
    endloop
  endfacet
  facet normal -0.587786 0.809017 0
    outer loop
      vertex 5.48185 -6.62641 -6
      vertex 4.60811 -7.26122 0
      vertex 5.48185 -6.62641 0
    endloop
  endfacet
  facet normal -0.587786 0.809017 0
    outer loop
      vertex 4.60811 -7.26122 0
      vertex 5.48185 -6.62641 -6
      vertex 4.60811 -7.26122 -6
    endloop
  endfacet
  facet normal -0.248685 0.968584 0
    outer loop
      vertex 2.65755 -8.17909 -6
      vertex 1.61148 -8.44767 0
      vertex 2.65755 -8.17909 0
    endloop
  endfacet
  facet normal -0.248685 0.968584 0
    outer loop
      vertex 1.61148 -8.44767 0
      vertex 2.65755 -8.17909 -6
      vertex 1.61148 -8.44767 -6
    endloop
  endfacet
  facet normal -0.844328 0.535827 0
    outer loop
      vertex 6.95755 -5.05495 -6
      vertex 7.53624 -4.14308 0
      vertex 7.53624 -4.14308 -6
    endloop
  endfacet
  facet normal -0.844328 0.535827 0
    outer loop
      vertex 7.53624 -4.14308 0
      vertex 6.95755 -5.05495 -6
      vertex 6.95755 -5.05495 0
    endloop
  endfacet
  facet normal 0.248685 0.968584 -0
    outer loop
      vertex -1.61148 -8.44767 -6
      vertex -2.65755 -8.17909 0
      vertex -1.61148 -8.44767 0
    endloop
  endfacet
  facet normal 0.248685 0.968584 0
    outer loop
      vertex -2.65755 -8.17909 0
      vertex -1.61148 -8.44767 -6
      vertex -2.65755 -8.17909 -6
    endloop
  endfacet
  facet normal 0.844328 0.535827 0
    outer loop
      vertex -6.95755 -5.05495 0
      vertex -7.53624 -4.14308 -6
      vertex -7.53624 -4.14308 0
    endloop
  endfacet
  facet normal 0.844328 0.535827 0
    outer loop
      vertex -7.53624 -4.14308 -6
      vertex -6.95755 -5.05495 0
      vertex -6.95755 -5.05495 -6
    endloop
  endfacet
  facet normal 0.904827 0.425779 0
    outer loop
      vertex -7.53624 -4.14308 0
      vertex -7.99608 -3.16587 -6
      vertex -7.99608 -3.16587 0
    endloop
  endfacet
  facet normal 0.904827 0.425779 0
    outer loop
      vertex -7.99608 -3.16587 -6
      vertex -7.53624 -4.14308 0
      vertex -7.53624 -4.14308 -6
    endloop
  endfacet
  facet normal 0.982286 0.18739 0
    outer loop
      vertex -8.32981 -2.13873 0
      vertex -8.53219 -1.07787 -6
      vertex -8.53219 -1.07787 0
    endloop
  endfacet
  facet normal 0.982286 0.18739 0
    outer loop
      vertex -8.53219 -1.07787 -6
      vertex -8.32981 -2.13873 0
      vertex -8.32981 -2.13873 -6
    endloop
  endfacet
  facet normal 0.368132 0.929774 -0
    outer loop
      vertex -2.65755 -8.17909 -6
      vertex -3.6617 -7.78151 0
      vertex -2.65755 -8.17909 0
    endloop
  endfacet
  facet normal 0.368132 0.929774 0
    outer loop
      vertex -3.6617 -7.78151 0
      vertex -2.65755 -8.17909 -6
      vertex -3.6617 -7.78151 -6
    endloop
  endfacet
  facet normal 0.68455 0.728966 -0
    outer loop
      vertex -5.48185 -6.62641 -6
      vertex -6.26913 -5.8871 0
      vertex -5.48185 -6.62641 0
    endloop
  endfacet
  facet normal 0.68455 0.728966 0
    outer loop
      vertex -6.26913 -5.8871 0
      vertex -5.48185 -6.62641 -6
      vertex -6.26913 -5.8871 -6
    endloop
  endfacet
  facet normal 0.125334 0.992115 -0
    outer loop
      vertex -0.539998 -8.58303 -6
      vertex -1.61148 -8.44767 0
      vertex -0.539998 -8.58303 0
    endloop
  endfacet
  facet normal 0.125334 0.992115 0
    outer loop
      vertex -1.61148 -8.44767 0
      vertex -0.539998 -8.58303 -6
      vertex -1.61148 -8.44767 -6
    endloop
  endfacet
  facet normal 0.587786 0.809017 -0
    outer loop
      vertex -4.60811 -7.26122 -6
      vertex -5.48185 -6.62641 0
      vertex -4.60811 -7.26122 0
    endloop
  endfacet
  facet normal 0.587786 0.809017 0
    outer loop
      vertex -5.48185 -6.62641 0
      vertex -4.60811 -7.26122 -6
      vertex -5.48185 -6.62641 -6
    endloop
  endfacet
endsolid OpenSCAD_Model
