solid OpenSCAD_Model
  facet normal 0.998028 0.0627704 0
    outer loop
      vertex 14.5 0 0
      vertex 14.3857 1.81733 -7
      vertex 14.3857 1.81733 0
    endloop
  endfacet
  facet normal 0.998028 0.0627704 0
    outer loop
      vertex 14.3857 1.81733 -7
      vertex 14.5 0 0
      vertex 14.5 0 -7
    endloop
  endfacet
  facet normal -0.998028 0.0627704 0
    outer loop
      vertex -14.5 0 -7
      vertex -14.3857 1.81733 0
      vertex -14.3857 1.81733 -7
    endloop
  endfacet
  facet normal -0.998028 0.0627704 0
    outer loop
      vertex -14.3857 1.81733 0
      vertex -14.5 0 -7
      vertex -14.5 0 0
    endloop
  endfacet
  facet normal 0 1 -0
    outer loop
      vertex 0.910462 14.4714 -7
      vertex -0.910462 14.4714 0
      vertex 0.910462 14.4714 0
    endloop
  endfacet
  facet normal 0 1 0
    outer loop
      vertex -0.910462 14.4714 0
      vertex 0.910462 14.4714 -7
      vertex -0.910462 14.4714 -7
    endloop
  endfacet
  facet normal 0 -1 0
    outer loop
      vertex -0.910462 -14.4714 -7
      vertex 0.910462 -14.4714 0
      vertex -0.910462 -14.4714 0
    endloop
  endfacet
  facet normal 0 -1 -0
    outer loop
      vertex 0.910462 -14.4714 0
      vertex -0.910462 -14.4714 -7
      vertex 0.910462 -14.4714 -7
    endloop
  endfacet
  facet normal 0.684549 0.728967 -0
    outer loop
      vertex 10.57 9.92593 -7
      vertex 9.24265 11.1724 0
      vertex 10.57 9.92593 0
    endloop
  endfacet
  facet normal 0.684549 0.728967 0
    outer loop
      vertex 9.24265 11.1724 0
      vertex 10.57 9.92593 -7
      vertex 9.24265 11.1724 -7
    endloop
  endfacet
  facet normal -0.684549 0.728967 0
    outer loop
      vertex -9.24265 11.1724 -7
      vertex -10.57 9.92593 0
      vertex -9.24265 11.1724 0
    endloop
  endfacet
  facet normal -0.684549 0.728967 0
    outer loop
      vertex -10.57 9.92593 0
      vertex -9.24265 11.1724 -7
      vertex -10.57 9.92593 -7
    endloop
  endfacet
  facet normal -0.368112 0.929781 0
    outer loop
      vertex -4.48075 13.7903 -7
      vertex -6.1738 13.12 0
      vertex -4.48075 13.7903 0
    endloop
  endfacet
  facet normal -0.368112 0.929781 0
    outer loop
      vertex -6.1738 13.12 0
      vertex -4.48075 13.7903 -7
      vertex -6.1738 13.12 -7
    endloop
  endfacet
  facet normal 0.904808 0.425819 0
    outer loop
      vertex 13.4818 5.33781 0
      vertex 12.7064 6.98543 -7
      vertex 12.7064 6.98543 0
    endloop
  endfacet
  facet normal 0.904808 0.425819 0
    outer loop
      vertex 12.7064 6.98543 -7
      vertex 13.4818 5.33781 0
      vertex 13.4818 5.33781 -7
    endloop
  endfacet
  facet normal 0.982288 0.187378 0
    outer loop
      vertex 14.3857 1.81733 0
      vertex 14.0445 3.606 -7
      vertex 14.0445 3.606 0
    endloop
  endfacet
  facet normal 0.982288 0.187378 0
    outer loop
      vertex 14.0445 3.606 -7
      vertex 14.3857 1.81733 0
      vertex 14.3857 1.81733 -7
    endloop
  endfacet
  facet normal 0.368112 0.929781 -0
    outer loop
      vertex 6.1738 13.12 -7
      vertex 4.48075 13.7903 0
      vertex 6.1738 13.12 0
    endloop
  endfacet
  facet normal 0.368112 0.929781 0
    outer loop
      vertex 4.48075 13.7903 0
      vertex 6.1738 13.12 -7
      vertex 4.48075 13.7903 -7
    endloop
  endfacet
  facet normal 0.248718 0.968576 -0
    outer loop
      vertex 4.48075 13.7903 -7
      vertex 2.71703 14.2432 0
      vertex 4.48075 13.7903 0
    endloop
  endfacet
  facet normal 0.248718 0.968576 0
    outer loop
      vertex 2.71703 14.2432 0
      vertex 4.48075 13.7903 -7
      vertex 2.71703 14.2432 -7
    endloop
  endfacet
  facet normal 0.481738 0.876315 -0
    outer loop
      vertex 7.76949 12.2428 -7
      vertex 6.1738 13.12 0
      vertex 7.76949 12.2428 0
    endloop
  endfacet
  facet normal 0.481738 0.876315 0
    outer loop
      vertex 6.1738 13.12 0
      vertex 7.76949 12.2428 -7
      vertex 6.1738 13.12 -7
    endloop
  endfacet
  facet normal -0.904808 0.425819 0
    outer loop
      vertex -13.4818 5.33781 -7
      vertex -12.7064 6.98543 0
      vertex -12.7064 6.98543 -7
    endloop
  endfacet
  facet normal -0.904808 0.425819 0
    outer loop
      vertex -12.7064 6.98543 0
      vertex -13.4818 5.33781 -7
      vertex -13.4818 5.33781 0
    endloop
  endfacet
  facet normal -0.951056 0.309017 0
    outer loop
      vertex -14.0445 3.606 -7
      vertex -13.4818 5.33781 0
      vertex -13.4818 5.33781 -7
    endloop
  endfacet
  facet normal -0.951056 0.309017 0
    outer loop
      vertex -13.4818 5.33781 0
      vertex -14.0445 3.606 -7
      vertex -14.0445 3.606 0
    endloop
  endfacet
  facet normal -0.125321 0.992116 0
    outer loop
      vertex -0.910462 14.4714 -7
      vertex -2.71703 14.2432 0
      vertex -0.910462 14.4714 0
    endloop
  endfacet
  facet normal -0.125321 0.992116 0
    outer loop
      vertex -2.71703 14.2432 0
      vertex -0.910462 14.4714 -7
      vertex -2.71703 14.2432 -7
    endloop
  endfacet
  facet normal 0.125321 -0.992116 0
    outer loop
      vertex 0.910462 -14.4714 -7
      vertex 2.71703 -14.2432 0
      vertex 0.910462 -14.4714 0
    endloop
  endfacet
  facet normal 0.125321 -0.992116 0
    outer loop
      vertex 2.71703 -14.2432 0
      vertex 0.910462 -14.4714 -7
      vertex 2.71703 -14.2432 -7
    endloop
  endfacet
  facet normal 0.951056 0.309017 0
    outer loop
      vertex 14.0445 3.606 0
      vertex 13.4818 5.33781 -7
      vertex 13.4818 5.33781 0
    endloop
  endfacet
  facet normal 0.951056 0.309017 0
    outer loop
      vertex 13.4818 5.33781 -7
      vertex 14.0445 3.606 0
      vertex 14.0445 3.606 -7
    endloop
  endfacet
  facet normal 0.770512 0.637425 0
    outer loop
      vertex 11.7307 8.52289 0
      vertex 10.57 9.92593 -7
      vertex 10.57 9.92593 0
    endloop
  endfacet
  facet normal 0.770512 0.637425 0
    outer loop
      vertex 10.57 9.92593 -7
      vertex 11.7307 8.52289 0
      vertex 11.7307 8.52289 -7
    endloop
  endfacet
  facet normal 0.844328 0.535826 0
    outer loop
      vertex 12.7064 6.98543 0
      vertex 11.7307 8.52289 -7
      vertex 11.7307 8.52289 0
    endloop
  endfacet
  facet normal 0.844328 0.535826 0
    outer loop
      vertex 11.7307 8.52289 -7
      vertex 12.7064 6.98543 0
      vertex 12.7064 6.98543 -7
    endloop
  endfacet
  facet normal 0.125321 0.992116 -0
    outer loop
      vertex 2.71703 14.2432 -7
      vertex 0.910462 14.4714 0
      vertex 2.71703 14.2432 0
    endloop
  endfacet
  facet normal 0.125321 0.992116 0
    outer loop
      vertex 0.910462 14.4714 0
      vertex 2.71703 14.2432 -7
      vertex 0.910462 14.4714 -7
    endloop
  endfacet
  facet normal 0.587816 0.808994 -0
    outer loop
      vertex 9.24265 11.1724 -7
      vertex 7.76949 12.2428 0
      vertex 9.24265 11.1724 0
    endloop
  endfacet
  facet normal 0.587816 0.808994 0
    outer loop
      vertex 7.76949 12.2428 0
      vertex 9.24265 11.1724 -7
      vertex 7.76949 12.2428 -7
    endloop
  endfacet
  facet normal -0.844328 0.535826 0
    outer loop
      vertex -12.7064 6.98543 -7
      vertex -11.7307 8.52289 0
      vertex -11.7307 8.52289 -7
    endloop
  endfacet
  facet normal -0.844328 0.535826 0
    outer loop
      vertex -11.7307 8.52289 0
      vertex -12.7064 6.98543 -7
      vertex -12.7064 6.98543 0
    endloop
  endfacet
  facet normal -0.770512 0.637425 0
    outer loop
      vertex -11.7307 8.52289 -7
      vertex -10.57 9.92593 0
      vertex -10.57 9.92593 -7
    endloop
  endfacet
  facet normal -0.770512 0.637425 0
    outer loop
      vertex -10.57 9.92593 0
      vertex -11.7307 8.52289 -7
      vertex -11.7307 8.52289 0
    endloop
  endfacet
  facet normal -0.982288 0.187378 0
    outer loop
      vertex -14.3857 1.81733 -7
      vertex -14.0445 3.606 0
      vertex -14.0445 3.606 -7
    endloop
  endfacet
  facet normal -0.982288 0.187378 0
    outer loop
      vertex -14.0445 3.606 0
      vertex -14.3857 1.81733 -7
      vertex -14.3857 1.81733 0
    endloop
  endfacet
  facet normal 0 0 1
    outer loop
      vertex 8.6 0 0
      vertex 14.5 0 0
      vertex 14.3857 1.81733 0
    endloop
  endfacet
  facet normal 0 0 1
    outer loop
      vertex 8.53219 1.07787 0
      vertex 14.3857 1.81733 0
      vertex 14.0445 3.606 0
    endloop
  endfacet
  facet normal 0 0 1
    outer loop
      vertex 14.5 0 0
      vertex 8.6 0 0
      vertex 14.3857 -1.81733 0
    endloop
  endfacet
  facet normal 0 0 1
    outer loop
      vertex 8.32981 2.13873 0
      vertex 14.0445 3.606 0
      vertex 13.4818 5.33781 0
    endloop
  endfacet
  facet normal -0 0 1
    outer loop
      vertex 8.53219 -1.07787 0
      vertex 14.3857 -1.81733 0
      vertex 8.6 0 0
    endloop
  endfacet
  facet normal 0 0 1
    outer loop
      vertex 7.99608 3.16587 0
      vertex 13.4818 5.33781 0
      vertex 12.7064 6.98543 0
    endloop
  endfacet
  facet normal 0 0 1
    outer loop
      vertex 14.3857 -1.81733 0
      vertex 8.53219 -1.07787 0
      vertex 14.0445 -3.606 0
    endloop
  endfacet
  facet normal 0 0 1
    outer loop
      vertex 7.53624 4.14308 0
      vertex 12.7064 6.98543 0
      vertex 11.7307 8.52289 0
    endloop
  endfacet
  facet normal -0 0 1
    outer loop
      vertex 8.32981 -2.13873 0
      vertex 14.0445 -3.606 0
      vertex 8.53219 -1.07787 0
    endloop
  endfacet
  facet normal 0 0 1
    outer loop
      vertex 6.95755 5.05495 0
      vertex 11.7307 8.52289 0
      vertex 10.57 9.92593 0
    endloop
  endfacet
  facet normal 0 0 1
    outer loop
      vertex 14.0445 -3.606 0
      vertex 8.32981 -2.13873 0
      vertex 13.4818 -5.33781 0
    endloop
  endfacet
  facet normal 0 0 1
    outer loop
      vertex 6.26913 5.8871 0
      vertex 10.57 9.92593 0
      vertex 9.24265 11.1724 0
    endloop
  endfacet
  facet normal -0 0 1
    outer loop
      vertex 7.99608 -3.16587 0
      vertex 13.4818 -5.33781 0
      vertex 8.32981 -2.13873 0
    endloop
  endfacet
  facet normal 0 0 1
    outer loop
      vertex 13.4818 -5.33781 0
      vertex 7.99608 -3.16587 0
      vertex 12.7064 -6.98543 0
    endloop
  endfacet
  facet normal 0 0 1
    outer loop
      vertex 14.3857 1.81733 0
      vertex 8.53219 1.07787 0
      vertex 8.6 0 0
    endloop
  endfacet
  facet normal 0 0 1
    outer loop
      vertex 14.0445 3.606 0
      vertex 8.32981 2.13873 0
      vertex 8.53219 1.07787 0
    endloop
  endfacet
  facet normal 0 0 1
    outer loop
      vertex 13.4818 5.33781 0
      vertex 7.99608 3.16587 0
      vertex 8.32981 2.13873 0
    endloop
  endfacet
  facet normal 0 0 1
    outer loop
      vertex 5.48185 6.62641 0
      vertex 9.24265 11.1724 0
      vertex 7.76949 12.2428 0
    endloop
  endfacet
  facet normal 0 0 1
    outer loop
      vertex 12.7064 6.98543 0
      vertex 7.53624 4.14308 0
      vertex 7.99608 3.16587 0
    endloop
  endfacet
  facet normal 0 0 1
    outer loop
      vertex 11.7307 8.52289 0
      vertex 6.95755 5.05495 0
      vertex 7.53624 4.14308 0
    endloop
  endfacet
  facet normal 0 0 1
    outer loop
      vertex 10.57 9.92593 0
      vertex 6.26913 5.8871 0
      vertex 6.95755 5.05495 0
    endloop
  endfacet
  facet normal 0 0 1
    outer loop
      vertex 4.60811 7.26122 0
      vertex 7.76949 12.2428 0
      vertex 6.1738 13.12 0
    endloop
  endfacet
  facet normal 0 0 1
    outer loop
      vertex 9.24265 11.1724 0
      vertex 5.48185 6.62641 0
      vertex 6.26913 5.8871 0
    endloop
  endfacet
  facet normal 0 0 1
    outer loop
      vertex 7.76949 12.2428 0
      vertex 4.60811 7.26122 0
      vertex 5.48185 6.62641 0
    endloop
  endfacet
  facet normal 0 0 1
    outer loop
      vertex 3.6617 7.78151 0
      vertex 6.1738 13.12 0
      vertex 4.48075 13.7903 0
    endloop
  endfacet
  facet normal 0 0 1
    outer loop
      vertex 6.1738 13.12 0
      vertex 3.6617 7.78151 0
      vertex 4.60811 7.26122 0
    endloop
  endfacet
  facet normal 0 0 1
    outer loop
      vertex 2.65755 8.17909 0
      vertex 4.48075 13.7903 0
      vertex 2.71703 14.2432 0
    endloop
  endfacet
  facet normal 0 0 1
    outer loop
      vertex 4.48075 13.7903 0
      vertex 2.65755 8.17909 0
      vertex 3.6617 7.78151 0
    endloop
  endfacet
  facet normal 0 0 1
    outer loop
      vertex 2.71703 14.2432 0
      vertex 1.61148 8.44767 0
      vertex 2.65755 8.17909 0
    endloop
  endfacet
  facet normal 0 0 1
    outer loop
      vertex 0.910462 14.4714 0
      vertex 1.61148 8.44767 0
      vertex 2.71703 14.2432 0
    endloop
  endfacet
  facet normal 0 0 1
    outer loop
      vertex 0.910462 14.4714 0
      vertex 0.539998 8.58303 0
      vertex 1.61148 8.44767 0
    endloop
  endfacet
  facet normal 0 0 1
    outer loop
      vertex 0.910462 14.4714 0
      vertex -0.539998 8.58303 0
      vertex 0.539998 8.58303 0
    endloop
  endfacet
  facet normal -0 0 1
    outer loop
      vertex -0.910462 14.4714 0
      vertex -0.539998 8.58303 0
      vertex 0.910462 14.4714 0
    endloop
  endfacet
  facet normal 0 0 1
    outer loop
      vertex -0.910462 14.4714 0
      vertex -1.61148 8.44767 0
      vertex -0.539998 8.58303 0
    endloop
  endfacet
  facet normal -0 0 1
    outer loop
      vertex -2.71703 14.2432 0
      vertex -1.61148 8.44767 0
      vertex -0.910462 14.4714 0
    endloop
  endfacet
  facet normal 0 0 1
    outer loop
      vertex -1.61148 8.44767 0
      vertex -2.71703 14.2432 0
      vertex -2.65755 8.17909 0
    endloop
  endfacet
  facet normal -0 0 1
    outer loop
      vertex -4.48075 13.7903 0
      vertex -2.65755 8.17909 0
      vertex -2.71703 14.2432 0
    endloop
  endfacet
  facet normal 0 0 1
    outer loop
      vertex -2.65755 8.17909 0
      vertex -4.48075 13.7903 0
      vertex -3.6617 7.78151 0
    endloop
  endfacet
  facet normal -0 0 1
    outer loop
      vertex -6.1738 13.12 0
      vertex -3.6617 7.78151 0
      vertex -4.48075 13.7903 0
    endloop
  endfacet
  facet normal 0 0 1
    outer loop
      vertex -3.6617 7.78151 0
      vertex -6.1738 13.12 0
      vertex -4.60811 7.26122 0
    endloop
  endfacet
  facet normal -0 0 1
    outer loop
      vertex -7.76949 12.2428 0
      vertex -4.60811 7.26122 0
      vertex -6.1738 13.12 0
    endloop
  endfacet
  facet normal 0 0 1
    outer loop
      vertex -4.60811 7.26122 0
      vertex -7.76949 12.2428 0
      vertex -5.48185 6.62641 0
    endloop
  endfacet
  facet normal -0 0 1
    outer loop
      vertex -9.24265 11.1724 0
      vertex -5.48185 6.62641 0
      vertex -7.76949 12.2428 0
    endloop
  endfacet
  facet normal 0 0 1
    outer loop
      vertex -5.48185 6.62641 0
      vertex -9.24265 11.1724 0
      vertex -6.26913 5.8871 0
    endloop
  endfacet
  facet normal -0 0 1
    outer loop
      vertex -10.57 9.92593 0
      vertex -6.26913 5.8871 0
      vertex -9.24265 11.1724 0
    endloop
  endfacet
  facet normal 0 0 1
    outer loop
      vertex -6.26913 5.8871 0
      vertex -10.57 9.92593 0
      vertex -6.95755 5.05495 0
    endloop
  endfacet
  facet normal -0 0 1
    outer loop
      vertex -11.7307 8.52289 0
      vertex -6.95755 5.05495 0
      vertex -10.57 9.92593 0
    endloop
  endfacet
  facet normal 0 0 1
    outer loop
      vertex -6.95755 5.05495 0
      vertex -11.7307 8.52289 0
      vertex -7.53624 4.14308 0
    endloop
  endfacet
  facet normal 0 0 1
    outer loop
      vertex -7.53624 4.14308 0
      vertex -12.7064 6.98543 0
      vertex -7.99608 3.16587 0
    endloop
  endfacet
  facet normal -0 0 1
    outer loop
      vertex -12.7064 6.98543 0
      vertex -7.53624 4.14308 0
      vertex -11.7307 8.52289 0
    endloop
  endfacet
  facet normal -0 0 1
    outer loop
      vertex 7.53624 -4.14308 0
      vertex 12.7064 -6.98543 0
      vertex 7.99608 -3.16587 0
    endloop
  endfacet
  facet normal 0 0 1
    outer loop
      vertex 12.7064 -6.98543 0
      vertex 7.53624 -4.14308 0
      vertex 11.7307 -8.52289 0
    endloop
  endfacet
  facet normal -0 0 1
    outer loop
      vertex 6.95755 -5.05495 0
      vertex 11.7307 -8.52289 0
      vertex 7.53624 -4.14308 0
    endloop
  endfacet
  facet normal 0 0 1
    outer loop
      vertex 11.7307 -8.52289 0
      vertex 6.95755 -5.05495 0
      vertex 10.57 -9.92593 0
    endloop
  endfacet
  facet normal -0 0 1
    outer loop
      vertex 6.26913 -5.8871 0
      vertex 10.57 -9.92593 0
      vertex 6.95755 -5.05495 0
    endloop
  endfacet
  facet normal 0 0 1
    outer loop
      vertex 10.57 -9.92593 0
      vertex 6.26913 -5.8871 0
      vertex 9.24265 -11.1724 0
    endloop
  endfacet
  facet normal -0 0 1
    outer loop
      vertex 5.48185 -6.62641 0
      vertex 9.24265 -11.1724 0
      vertex 6.26913 -5.8871 0
    endloop
  endfacet
  facet normal 0 0 1
    outer loop
      vertex 9.24265 -11.1724 0
      vertex 5.48185 -6.62641 0
      vertex 7.76949 -12.2428 0
    endloop
  endfacet
  facet normal -0 0 1
    outer loop
      vertex 4.60811 -7.26122 0
      vertex 7.76949 -12.2428 0
      vertex 5.48185 -6.62641 0
    endloop
  endfacet
  facet normal 0 0 1
    outer loop
      vertex 7.76949 -12.2428 0
      vertex 4.60811 -7.26122 0
      vertex 6.1738 -13.12 0
    endloop
  endfacet
  facet normal -0 0 1
    outer loop
      vertex 3.6617 -7.78151 0
      vertex 6.1738 -13.12 0
      vertex 4.60811 -7.26122 0
    endloop
  endfacet
  facet normal 0 0 1
    outer loop
      vertex 6.1738 -13.12 0
      vertex 3.6617 -7.78151 0
      vertex 4.48075 -13.7903 0
    endloop
  endfacet
  facet normal -0 0 1
    outer loop
      vertex 2.65755 -8.17909 0
      vertex 4.48075 -13.7903 0
      vertex 3.6617 -7.78151 0
    endloop
  endfacet
  facet normal 0 0 1
    outer loop
      vertex 4.48075 -13.7903 0
      vertex 2.65755 -8.17909 0
      vertex 2.71703 -14.2432 0
    endloop
  endfacet
  facet normal -0 0 1
    outer loop
      vertex 1.61148 -8.44767 0
      vertex 2.71703 -14.2432 0
      vertex 2.65755 -8.17909 0
    endloop
  endfacet
  facet normal 0 0 1
    outer loop
      vertex 1.61148 -8.44767 0
      vertex 0.910462 -14.4714 0
      vertex 2.71703 -14.2432 0
    endloop
  endfacet
  facet normal -0 0 1
    outer loop
      vertex 0.539998 -8.58303 0
      vertex 0.910462 -14.4714 0
      vertex 1.61148 -8.44767 0
    endloop
  endfacet
  facet normal -0 0 1
    outer loop
      vertex -0.539998 -8.58303 0
      vertex 0.910462 -14.4714 0
      vertex 0.539998 -8.58303 0
    endloop
  endfacet
  facet normal 0 0 1
    outer loop
      vertex -0.539998 -8.58303 0
      vertex -0.910462 -14.4714 0
      vertex 0.910462 -14.4714 0
    endloop
  endfacet
  facet normal 0 0 1
    outer loop
      vertex -1.61148 -8.44767 0
      vertex -0.910462 -14.4714 0
      vertex -0.539998 -8.58303 0
    endloop
  endfacet
  facet normal 0 0 1
    outer loop
      vertex -2.71703 -14.2432 0
      vertex -1.61148 -8.44767 0
      vertex -2.65755 -8.17909 0
    endloop
  endfacet
  facet normal 0 0 1
    outer loop
      vertex -1.61148 -8.44767 0
      vertex -2.71703 -14.2432 0
      vertex -0.910462 -14.4714 0
    endloop
  endfacet
  facet normal 0 0 1
    outer loop
      vertex -4.48075 -13.7903 0
      vertex -2.65755 -8.17909 0
      vertex -3.6617 -7.78151 0
    endloop
  endfacet
  facet normal 0 0 1
    outer loop
      vertex -2.65755 -8.17909 0
      vertex -4.48075 -13.7903 0
      vertex -2.71703 -14.2432 0
    endloop
  endfacet
  facet normal 0 0 1
    outer loop
      vertex -6.1738 -13.12 0
      vertex -3.6617 -7.78151 0
      vertex -4.60811 -7.26122 0
    endloop
  endfacet
  facet normal 0 0 1
    outer loop
      vertex -7.76949 -12.2428 0
      vertex -4.60811 -7.26122 0
      vertex -5.48185 -6.62641 0
    endloop
  endfacet
  facet normal 0 0 1
    outer loop
      vertex -3.6617 -7.78151 0
      vertex -6.1738 -13.12 0
      vertex -4.48075 -13.7903 0
    endloop
  endfacet
  facet normal 0 0 1
    outer loop
      vertex -9.24265 -11.1724 0
      vertex -5.48185 -6.62641 0
      vertex -6.26913 -5.8871 0
    endloop
  endfacet
  facet normal 0 0 1
    outer loop
      vertex -10.57 -9.92593 0
      vertex -6.26913 -5.8871 0
      vertex -6.95755 -5.05495 0
    endloop
  endfacet
  facet normal 0 0 1
    outer loop
      vertex -11.7307 -8.52289 0
      vertex -6.95755 -5.05495 0
      vertex -7.53624 -4.14308 0
    endloop
  endfacet
  facet normal 0 0 1
    outer loop
      vertex -4.60811 -7.26122 0
      vertex -7.76949 -12.2428 0
      vertex -6.1738 -13.12 0
    endloop
  endfacet
  facet normal 0 0 1
    outer loop
      vertex -12.7064 -6.98543 0
      vertex -7.53624 -4.14308 0
      vertex -7.99608 -3.16587 0
    endloop
  endfacet
  facet normal 0 0 1
    outer loop
      vertex -13.4818 -5.33781 0
      vertex -7.99608 -3.16587 0
      vertex -8.32981 -2.13873 0
    endloop
  endfacet
  facet normal 0 0 1
    outer loop
      vertex -14.0445 -3.606 0
      vertex -8.32981 -2.13873 0
      vertex -8.53219 -1.07787 0
    endloop
  endfacet
  facet normal 0 0 1
    outer loop
      vertex -5.48185 -6.62641 0
      vertex -9.24265 -11.1724 0
      vertex -7.76949 -12.2428 0
    endloop
  endfacet
  facet normal 0 0 1
    outer loop
      vertex -14.3857 -1.81733 0
      vertex -8.53219 -1.07787 0
      vertex -8.6 0 0
    endloop
  endfacet
  facet normal -0 0 1
    outer loop
      vertex -13.4818 5.33781 0
      vertex -7.99608 3.16587 0
      vertex -12.7064 6.98543 0
    endloop
  endfacet
  facet normal 0 0 1
    outer loop
      vertex -7.99608 3.16587 0
      vertex -13.4818 5.33781 0
      vertex -8.32981 2.13873 0
    endloop
  endfacet
  facet normal 0 0 1
    outer loop
      vertex -6.26913 -5.8871 0
      vertex -10.57 -9.92593 0
      vertex -9.24265 -11.1724 0
    endloop
  endfacet
  facet normal -0 0 1
    outer loop
      vertex -14.0445 3.606 0
      vertex -8.32981 2.13873 0
      vertex -13.4818 5.33781 0
    endloop
  endfacet
  facet normal 0 0 1
    outer loop
      vertex -6.95755 -5.05495 0
      vertex -11.7307 -8.52289 0
      vertex -10.57 -9.92593 0
    endloop
  endfacet
  facet normal 0 0 1
    outer loop
      vertex -8.32981 2.13873 0
      vertex -14.0445 3.606 0
      vertex -8.53219 1.07787 0
    endloop
  endfacet
  facet normal 0 0 1
    outer loop
      vertex -7.53624 -4.14308 0
      vertex -12.7064 -6.98543 0
      vertex -11.7307 -8.52289 0
    endloop
  endfacet
  facet normal -0 0 1
    outer loop
      vertex -14.3857 1.81733 0
      vertex -8.53219 1.07787 0
      vertex -14.0445 3.606 0
    endloop
  endfacet
  facet normal 0 0 1
    outer loop
      vertex -7.99608 -3.16587 0
      vertex -13.4818 -5.33781 0
      vertex -12.7064 -6.98543 0
    endloop
  endfacet
  facet normal 0 0 1
    outer loop
      vertex -8.53219 1.07787 0
      vertex -14.3857 1.81733 0
      vertex -8.6 0 0
    endloop
  endfacet
  facet normal 0 0 1
    outer loop
      vertex -8.32981 -2.13873 0
      vertex -14.0445 -3.606 0
      vertex -13.4818 -5.33781 0
    endloop
  endfacet
  facet normal 0 0 1
    outer loop
      vertex -14.5 0 0
      vertex -8.6 0 0
      vertex -14.3857 1.81733 0
    endloop
  endfacet
  facet normal 0 0 1
    outer loop
      vertex -8.53219 -1.07787 0
      vertex -14.3857 -1.81733 0
      vertex -14.0445 -3.606 0
    endloop
  endfacet
  facet normal 0 0 1
    outer loop
      vertex -8.6 0 0
      vertex -14.5 0 0
      vertex -14.3857 -1.81733 0
    endloop
  endfacet
  facet normal -0.481738 0.876315 0
    outer loop
      vertex -6.1738 13.12 -7
      vertex -7.76949 12.2428 0
      vertex -6.1738 13.12 0
    endloop
  endfacet
  facet normal -0.481738 0.876315 0
    outer loop
      vertex -7.76949 12.2428 0
      vertex -6.1738 13.12 -7
      vertex -7.76949 12.2428 -7
    endloop
  endfacet
  facet normal -0.587816 0.808994 0
    outer loop
      vertex -7.76949 12.2428 -7
      vertex -9.24265 11.1724 0
      vertex -7.76949 12.2428 0
    endloop
  endfacet
  facet normal -0.587816 0.808994 0
    outer loop
      vertex -9.24265 11.1724 0
      vertex -7.76949 12.2428 -7
      vertex -9.24265 11.1724 -7
    endloop
  endfacet
  facet normal -0.248718 0.968576 0
    outer loop
      vertex -2.71703 14.2432 -7
      vertex -4.48075 13.7903 0
      vertex -2.71703 14.2432 0
    endloop
  endfacet
  facet normal -0.248718 0.968576 0
    outer loop
      vertex -4.48075 13.7903 0
      vertex -2.71703 14.2432 -7
      vertex -4.48075 13.7903 -7
    endloop
  endfacet
  facet normal 0.998028 -0.0627704 0
    outer loop
      vertex 14.3857 -1.81733 0
      vertex 14.5 0 -7
      vertex 14.5 0 0
    endloop
  endfacet
  facet normal 0.998028 -0.0627704 0
    outer loop
      vertex 14.5 0 -7
      vertex 14.3857 -1.81733 0
      vertex 14.3857 -1.81733 -7
    endloop
  endfacet
  facet normal 0.982288 -0.187378 0
    outer loop
      vertex 14.0445 -3.606 0
      vertex 14.3857 -1.81733 -7
      vertex 14.3857 -1.81733 0
    endloop
  endfacet
  facet normal 0.982288 -0.187378 0
    outer loop
      vertex 14.3857 -1.81733 -7
      vertex 14.0445 -3.606 0
      vertex 14.0445 -3.606 -7
    endloop
  endfacet
  facet normal -0.904808 -0.425819 0
    outer loop
      vertex -12.7064 -6.98543 -7
      vertex -13.4818 -5.33781 0
      vertex -13.4818 -5.33781 -7
    endloop
  endfacet
  facet normal -0.904808 -0.425819 0
    outer loop
      vertex -13.4818 -5.33781 0
      vertex -12.7064 -6.98543 -7
      vertex -12.7064 -6.98543 0
    endloop
  endfacet
  facet normal -0.844328 -0.535826 0
    outer loop
      vertex -11.7307 -8.52289 -7
      vertex -12.7064 -6.98543 0
      vertex -12.7064 -6.98543 -7
    endloop
  endfacet
  facet normal -0.844328 -0.535826 0
    outer loop
      vertex -12.7064 -6.98543 0
      vertex -11.7307 -8.52289 -7
      vertex -11.7307 -8.52289 0
    endloop
  endfacet
  facet normal 0 0 -1
    outer loop
      vertex 14.3857 -1.81733 -7
      vertex 14.3857 1.81733 -7
      vertex 14.5 0 -7
    endloop
  endfacet
  facet normal 0 0 -1
    outer loop
      vertex 14.0445 -3.606 -7
      vertex 14.3857 1.81733 -7
      vertex 14.3857 -1.81733 -7
    endloop
  endfacet
  facet normal 0 0 -1
    outer loop
      vertex 14.0445 -3.606 -7
      vertex 14.0445 3.606 -7
      vertex 14.3857 1.81733 -7
    endloop
  endfacet
  facet normal 0 0 -1
    outer loop
      vertex 13.4818 -5.33781 -7
      vertex 14.0445 3.606 -7
      vertex 14.0445 -3.606 -7
    endloop
  endfacet
  facet normal 0 0 -1
    outer loop
      vertex 13.4818 -5.33781 -7
      vertex 13.4818 5.33781 -7
      vertex 14.0445 3.606 -7
    endloop
  endfacet
  facet normal 0 0 -1
    outer loop
      vertex 12.7064 -6.98543 -7
      vertex 13.4818 5.33781 -7
      vertex 13.4818 -5.33781 -7
    endloop
  endfacet
  facet normal 0 0 -1
    outer loop
      vertex 12.7064 -6.98543 -7
      vertex 12.7064 6.98543 -7
      vertex 13.4818 5.33781 -7
    endloop
  endfacet
  facet normal 0 0 -1
    outer loop
      vertex 11.7307 -8.52289 -7
      vertex 12.7064 6.98543 -7
      vertex 12.7064 -6.98543 -7
    endloop
  endfacet
  facet normal 0 0 -1
    outer loop
      vertex 11.7307 -8.52289 -7
      vertex 11.7307 8.52289 -7
      vertex 12.7064 6.98543 -7
    endloop
  endfacet
  facet normal 0 0 -1
    outer loop
      vertex 10.57 -9.92593 -7
      vertex 11.7307 8.52289 -7
      vertex 11.7307 -8.52289 -7
    endloop
  endfacet
  facet normal 0 0 -1
    outer loop
      vertex 10.57 -9.92593 -7
      vertex 10.57 9.92593 -7
      vertex 11.7307 8.52289 -7
    endloop
  endfacet
  facet normal 0 0 -1
    outer loop
      vertex 9.24265 -11.1724 -7
      vertex 10.57 9.92593 -7
      vertex 10.57 -9.92593 -7
    endloop
  endfacet
  facet normal 0 0 -1
    outer loop
      vertex 9.24265 -11.1724 -7
      vertex 9.24265 11.1724 -7
      vertex 10.57 9.92593 -7
    endloop
  endfacet
  facet normal 0 0 -1
    outer loop
      vertex 7.76949 -12.2428 -7
      vertex 9.24265 11.1724 -7
      vertex 9.24265 -11.1724 -7
    endloop
  endfacet
  facet normal 0 0 -1
    outer loop
      vertex 7.76949 -12.2428 -7
      vertex 7.76949 12.2428 -7
      vertex 9.24265 11.1724 -7
    endloop
  endfacet
  facet normal 0 0 -1
    outer loop
      vertex 6.1738 -13.12 -7
      vertex 7.76949 12.2428 -7
      vertex 7.76949 -12.2428 -7
    endloop
  endfacet
  facet normal 0 0 -1
    outer loop
      vertex 6.1738 -13.12 -7
      vertex 6.1738 13.12 -7
      vertex 7.76949 12.2428 -7
    endloop
  endfacet
  facet normal 0 0 -1
    outer loop
      vertex 4.48075 -13.7903 -7
      vertex 6.1738 13.12 -7
      vertex 6.1738 -13.12 -7
    endloop
  endfacet
  facet normal 0 0 -1
    outer loop
      vertex 4.48075 -13.7903 -7
      vertex 4.48075 13.7903 -7
      vertex 6.1738 13.12 -7
    endloop
  endfacet
  facet normal 0 0 -1
    outer loop
      vertex 2.71703 -14.2432 -7
      vertex 4.48075 13.7903 -7
      vertex 4.48075 -13.7903 -7
    endloop
  endfacet
  facet normal 0 0 -1
    outer loop
      vertex 2.71703 -14.2432 -7
      vertex 2.71703 14.2432 -7
      vertex 4.48075 13.7903 -7
    endloop
  endfacet
  facet normal 0 0 -1
    outer loop
      vertex 0.910462 -14.4714 -7
      vertex 2.71703 14.2432 -7
      vertex 2.71703 -14.2432 -7
    endloop
  endfacet
  facet normal 0 0 -1
    outer loop
      vertex 0.910462 -14.4714 -7
      vertex 0.910462 14.4714 -7
      vertex 2.71703 14.2432 -7
    endloop
  endfacet
  facet normal 0 0 -1
    outer loop
      vertex -0.910462 -14.4714 -7
      vertex 0.910462 14.4714 -7
      vertex 0.910462 -14.4714 -7
    endloop
  endfacet
  facet normal 0 0 -1
    outer loop
      vertex -0.910462 -14.4714 -7
      vertex -0.910462 14.4714 -7
      vertex 0.910462 14.4714 -7
    endloop
  endfacet
  facet normal 0 0 -1
    outer loop
      vertex -2.71703 -14.2432 -7
      vertex -0.910462 14.4714 -7
      vertex -0.910462 -14.4714 -7
    endloop
  endfacet
  facet normal 0 0 -1
    outer loop
      vertex -2.71703 -14.2432 -7
      vertex -2.71703 14.2432 -7
      vertex -0.910462 14.4714 -7
    endloop
  endfacet
  facet normal 0 0 -1
    outer loop
      vertex -4.48075 -13.7903 -7
      vertex -2.71703 14.2432 -7
      vertex -2.71703 -14.2432 -7
    endloop
  endfacet
  facet normal 0 0 -1
    outer loop
      vertex -4.48075 -13.7903 -7
      vertex -4.48075 13.7903 -7
      vertex -2.71703 14.2432 -7
    endloop
  endfacet
  facet normal 0 0 -1
    outer loop
      vertex -6.1738 -13.12 -7
      vertex -4.48075 13.7903 -7
      vertex -4.48075 -13.7903 -7
    endloop
  endfacet
  facet normal 0 0 -1
    outer loop
      vertex -6.1738 -13.12 -7
      vertex -6.1738 13.12 -7
      vertex -4.48075 13.7903 -7
    endloop
  endfacet
  facet normal 0 0 -1
    outer loop
      vertex -7.76949 -12.2428 -7
      vertex -6.1738 13.12 -7
      vertex -6.1738 -13.12 -7
    endloop
  endfacet
  facet normal 0 0 -1
    outer loop
      vertex -7.76949 -12.2428 -7
      vertex -7.76949 12.2428 -7
      vertex -6.1738 13.12 -7
    endloop
  endfacet
  facet normal 0 0 -1
    outer loop
      vertex -9.24265 -11.1724 -7
      vertex -7.76949 12.2428 -7
      vertex -7.76949 -12.2428 -7
    endloop
  endfacet
  facet normal 0 0 -1
    outer loop
      vertex -9.24265 -11.1724 -7
      vertex -9.24265 11.1724 -7
      vertex -7.76949 12.2428 -7
    endloop
  endfacet
  facet normal 0 0 -1
    outer loop
      vertex -10.57 -9.92593 -7
      vertex -9.24265 11.1724 -7
      vertex -9.24265 -11.1724 -7
    endloop
  endfacet
  facet normal 0 0 -1
    outer loop
      vertex -10.57 -9.92593 -7
      vertex -10.57 9.92593 -7
      vertex -9.24265 11.1724 -7
    endloop
  endfacet
  facet normal 0 0 -1
    outer loop
      vertex -11.7307 -8.52289 -7
      vertex -10.57 9.92593 -7
      vertex -10.57 -9.92593 -7
    endloop
  endfacet
  facet normal 0 0 -1
    outer loop
      vertex -11.7307 -8.52289 -7
      vertex -11.7307 8.52289 -7
      vertex -10.57 9.92593 -7
    endloop
  endfacet
  facet normal 0 0 -1
    outer loop
      vertex -12.7064 -6.98543 -7
      vertex -11.7307 8.52289 -7
      vertex -11.7307 -8.52289 -7
    endloop
  endfacet
  facet normal 0 0 -1
    outer loop
      vertex -12.7064 -6.98543 -7
      vertex -12.7064 6.98543 -7
      vertex -11.7307 8.52289 -7
    endloop
  endfacet
  facet normal 0 0 -1
    outer loop
      vertex -13.4818 -5.33781 -7
      vertex -12.7064 6.98543 -7
      vertex -12.7064 -6.98543 -7
    endloop
  endfacet
  facet normal 0 0 -1
    outer loop
      vertex -13.4818 -5.33781 -7
      vertex -13.4818 5.33781 -7
      vertex -12.7064 6.98543 -7
    endloop
  endfacet
  facet normal 0 0 -1
    outer loop
      vertex -14.0445 -3.606 -7
      vertex -13.4818 5.33781 -7
      vertex -13.4818 -5.33781 -7
    endloop
  endfacet
  facet normal 0 0 -1
    outer loop
      vertex -14.0445 -3.606 -7
      vertex -14.0445 3.606 -7
      vertex -13.4818 5.33781 -7
    endloop
  endfacet
  facet normal 0 0 -1
    outer loop
      vertex -14.3857 -1.81733 -7
      vertex -14.0445 3.606 -7
      vertex -14.0445 -3.606 -7
    endloop
  endfacet
  facet normal 0 0 -1
    outer loop
      vertex -14.3857 -1.81733 -7
      vertex -14.3857 1.81733 -7
      vertex -14.0445 3.606 -7
    endloop
  endfacet
  facet normal 0 -0 -1
    outer loop
      vertex -14.3857 1.81733 -7
      vertex -14.3857 -1.81733 -7
      vertex -14.5 0 -7
    endloop
  endfacet
  facet normal 0.481738 -0.876315 0
    outer loop
      vertex 6.1738 -13.12 -7
      vertex 7.76949 -12.2428 0
      vertex 6.1738 -13.12 0
    endloop
  endfacet
  facet normal 0.481738 -0.876315 0
    outer loop
      vertex 7.76949 -12.2428 0
      vertex 6.1738 -13.12 -7
      vertex 7.76949 -12.2428 -7
    endloop
  endfacet
  facet normal 0.904808 -0.425819 0
    outer loop
      vertex 12.7064 -6.98543 0
      vertex 13.4818 -5.33781 -7
      vertex 13.4818 -5.33781 0
    endloop
  endfacet
  facet normal 0.904808 -0.425819 0
    outer loop
      vertex 13.4818 -5.33781 -7
      vertex 12.7064 -6.98543 0
      vertex 12.7064 -6.98543 -7
    endloop
  endfacet
  facet normal -0.770512 -0.637425 0
    outer loop
      vertex -10.57 -9.92593 -7
      vertex -11.7307 -8.52289 0
      vertex -11.7307 -8.52289 -7
    endloop
  endfacet
  facet normal -0.770512 -0.637425 0
    outer loop
      vertex -11.7307 -8.52289 0
      vertex -10.57 -9.92593 -7
      vertex -10.57 -9.92593 0
    endloop
  endfacet
  facet normal -0.951056 -0.309017 0
    outer loop
      vertex -13.4818 -5.33781 -7
      vertex -14.0445 -3.606 0
      vertex -14.0445 -3.606 -7
    endloop
  endfacet
  facet normal -0.951056 -0.309017 0
    outer loop
      vertex -14.0445 -3.606 0
      vertex -13.4818 -5.33781 -7
      vertex -13.4818 -5.33781 0
    endloop
  endfacet
  facet normal 0.684549 -0.728967 0
    outer loop
      vertex 9.24265 -11.1724 -7
      vertex 10.57 -9.92593 0
      vertex 9.24265 -11.1724 0
    endloop
  endfacet
  facet normal 0.684549 -0.728967 0
    outer loop
      vertex 10.57 -9.92593 0
      vertex 9.24265 -11.1724 -7
      vertex 10.57 -9.92593 -7
    endloop
  endfacet
  facet normal 0.368112 -0.929781 0
    outer loop
      vertex 4.48075 -13.7903 -7
      vertex 6.1738 -13.12 0
      vertex 4.48075 -13.7903 0
    endloop
  endfacet
  facet normal 0.368112 -0.929781 0
    outer loop
      vertex 6.1738 -13.12 0
      vertex 4.48075 -13.7903 -7
      vertex 6.1738 -13.12 -7
    endloop
  endfacet
  facet normal 0.248718 -0.968576 0
    outer loop
      vertex 2.71703 -14.2432 -7
      vertex 4.48075 -13.7903 0
      vertex 2.71703 -14.2432 0
    endloop
  endfacet
  facet normal 0.248718 -0.968576 0
    outer loop
      vertex 4.48075 -13.7903 0
      vertex 2.71703 -14.2432 -7
      vertex 4.48075 -13.7903 -7
    endloop
  endfacet
  facet normal 0.844328 -0.535826 0
    outer loop
      vertex 11.7307 -8.52289 0
      vertex 12.7064 -6.98543 -7
      vertex 12.7064 -6.98543 0
    endloop
  endfacet
  facet normal 0.844328 -0.535826 0
    outer loop
      vertex 12.7064 -6.98543 -7
      vertex 11.7307 -8.52289 0
      vertex 11.7307 -8.52289 -7
    endloop
  endfacet
  facet normal 0.770512 -0.637425 0
    outer loop
      vertex 10.57 -9.92593 0
      vertex 11.7307 -8.52289 -7
      vertex 11.7307 -8.52289 0
    endloop
  endfacet
  facet normal 0.770512 -0.637425 0
    outer loop
      vertex 11.7307 -8.52289 -7
      vertex 10.57 -9.92593 0
      vertex 10.57 -9.92593 -7
    endloop
  endfacet
  facet normal 0.951056 -0.309017 0
    outer loop
      vertex 13.4818 -5.33781 0
      vertex 14.0445 -3.606 -7
      vertex 14.0445 -3.606 0
    endloop
  endfacet
  facet normal 0.951056 -0.309017 0
    outer loop
      vertex 14.0445 -3.606 -7
      vertex 13.4818 -5.33781 0
      vertex 13.4818 -5.33781 -7
    endloop
  endfacet
  facet normal -0.125321 -0.992116 0
    outer loop
      vertex -2.71703 -14.2432 -7
      vertex -0.910462 -14.4714 0
      vertex -2.71703 -14.2432 0
    endloop
  endfacet
  facet normal -0.125321 -0.992116 -0
    outer loop
      vertex -0.910462 -14.4714 0
      vertex -2.71703 -14.2432 -7
      vertex -0.910462 -14.4714 -7
    endloop
  endfacet
  facet normal -0.368112 -0.929781 0
    outer loop
      vertex -6.1738 -13.12 -7
      vertex -4.48075 -13.7903 0
      vertex -6.1738 -13.12 0
    endloop
  endfacet
  facet normal -0.368112 -0.929781 -0
    outer loop
      vertex -4.48075 -13.7903 0
      vertex -6.1738 -13.12 -7
      vertex -4.48075 -13.7903 -7
    endloop
  endfacet
  facet normal -0.248718 -0.968576 0
    outer loop
      vertex -4.48075 -13.7903 -7
      vertex -2.71703 -14.2432 0
      vertex -4.48075 -13.7903 0
    endloop
  endfacet
  facet normal -0.248718 -0.968576 -0
    outer loop
      vertex -2.71703 -14.2432 0
      vertex -4.48075 -13.7903 -7
      vertex -2.71703 -14.2432 -7
    endloop
  endfacet
  facet normal -0.982288 -0.187378 0
    outer loop
      vertex -14.0445 -3.606 -7
      vertex -14.3857 -1.81733 0
      vertex -14.3857 -1.81733 -7
    endloop
  endfacet
  facet normal -0.982288 -0.187378 0
    outer loop
      vertex -14.3857 -1.81733 0
      vertex -14.0445 -3.606 -7
      vertex -14.0445 -3.606 0
    endloop
  endfacet
  facet normal -0.998028 -0.0627704 0
    outer loop
      vertex -14.3857 -1.81733 -7
      vertex -14.5 0 0
      vertex -14.5 0 -7
    endloop
  endfacet
  facet normal -0.998028 -0.0627704 0
    outer loop
      vertex -14.5 0 0
      vertex -14.3857 -1.81733 -7
      vertex -14.3857 -1.81733 0
    endloop
  endfacet
  facet normal 0.587816 -0.808994 0
    outer loop
      vertex 7.76949 -12.2428 -7
      vertex 9.24265 -11.1724 0
      vertex 7.76949 -12.2428 0
    endloop
  endfacet
  facet normal 0.587816 -0.808994 0
    outer loop
      vertex 9.24265 -11.1724 0
      vertex 7.76949 -12.2428 -7
      vertex 9.24265 -11.1724 -7
    endloop
  endfacet
  facet normal -0.481738 -0.876315 0
    outer loop
      vertex -7.76949 -12.2428 -7
      vertex -6.1738 -13.12 0
      vertex -7.76949 -12.2428 0
    endloop
  endfacet
  facet normal -0.481738 -0.876315 -0
    outer loop
      vertex -6.1738 -13.12 0
      vertex -7.76949 -12.2428 -7
      vertex -6.1738 -13.12 -7
    endloop
  endfacet
  facet normal -0.587816 -0.808994 0
    outer loop
      vertex -9.24265 -11.1724 -7
      vertex -7.76949 -12.2428 0
      vertex -9.24265 -11.1724 0
    endloop
  endfacet
  facet normal -0.587816 -0.808994 -0
    outer loop
      vertex -7.76949 -12.2428 0
      vertex -9.24265 -11.1724 -7
      vertex -7.76949 -12.2428 -7
    endloop
  endfacet
  facet normal -0.684549 -0.728967 0
    outer loop
      vertex -10.57 -9.92593 -7
      vertex -9.24265 -11.1724 0
      vertex -10.57 -9.92593 0
    endloop
  endfacet
  facet normal -0.684549 -0.728967 -0
    outer loop
      vertex -9.24265 -11.1724 0
      vertex -10.57 -9.92593 -7
      vertex -9.24265 -11.1724 -7
    endloop
  endfacet
  facet normal 0.951059 -0.30901 0
    outer loop
      vertex -8.32981 2.13873 0
      vertex -7.99608 3.16587 -6
      vertex -7.99608 3.16587 0
    endloop
  endfacet
  facet normal 0.951059 -0.30901 0
    outer loop
      vertex -7.99608 3.16587 -6
      vertex -8.32981 2.13873 0
      vertex -8.32981 2.13873 -6
    endloop
  endfacet
  facet normal -0.844328 -0.535827 0
    outer loop
      vertex 7.53624 4.14308 -6
      vertex 6.95755 5.05495 0
      vertex 6.95755 5.05495 -6
    endloop
  endfacet
  facet normal -0.844328 -0.535827 0
    outer loop
      vertex 6.95755 5.05495 0
      vertex 7.53624 4.14308 -6
      vertex 7.53624 4.14308 0
    endloop
  endfacet
  facet normal -0.368132 -0.929774 0
    outer loop
      vertex 2.65755 8.17909 -6
      vertex 3.6617 7.78151 0
      vertex 2.65755 8.17909 0
    endloop
  endfacet
  facet normal -0.368132 -0.929774 -0
    outer loop
      vertex 3.6617 7.78151 0
      vertex 2.65755 8.17909 -6
      vertex 3.6617 7.78151 -6
    endloop
  endfacet
  facet normal 0.368132 -0.929774 0
    outer loop
      vertex -3.6617 7.78151 -6
      vertex -2.65755 8.17909 0
      vertex -3.6617 7.78151 0
    endloop
  endfacet
  facet normal 0.368132 -0.929774 0
    outer loop
      vertex -2.65755 8.17909 0
      vertex -3.6617 7.78151 -6
      vertex -2.65755 8.17909 -6
    endloop
  endfacet
  facet normal 0.904827 -0.425779 0
    outer loop
      vertex -7.99608 3.16587 0
      vertex -7.53624 4.14308 -6
      vertex -7.53624 4.14308 0
    endloop
  endfacet
  facet normal 0.904827 -0.425779 0
    outer loop
      vertex -7.53624 4.14308 -6
      vertex -7.99608 3.16587 0
      vertex -7.99608 3.16587 -6
    endloop
  endfacet
  facet normal -0.982286 0.18739 0
    outer loop
      vertex 8.32981 -2.13873 -6
      vertex 8.53219 -1.07787 0
      vertex 8.53219 -1.07787 -6
    endloop
  endfacet
  facet normal -0.982286 0.18739 0
    outer loop
      vertex 8.53219 -1.07787 0
      vertex 8.32981 -2.13873 -6
      vertex 8.32981 -2.13873 0
    endloop
  endfacet
  facet normal -0.68455 -0.728966 0
    outer loop
      vertex 5.48185 6.62641 -6
      vertex 6.26913 5.8871 0
      vertex 5.48185 6.62641 0
    endloop
  endfacet
  facet normal -0.68455 -0.728966 -0
    outer loop
      vertex 6.26913 5.8871 0
      vertex 5.48185 6.62641 -6
      vertex 6.26913 5.8871 -6
    endloop
  endfacet
  facet normal 0 -1 0
    outer loop
      vertex -0.539998 8.58303 -6
      vertex 0.539998 8.58303 0
      vertex -0.539998 8.58303 0
    endloop
  endfacet
  facet normal 0 -1 -0
    outer loop
      vertex 0.539998 8.58303 0
      vertex -0.539998 8.58303 -6
      vertex 0.539998 8.58303 -6
    endloop
  endfacet
  facet normal -0.587786 -0.809017 0
    outer loop
      vertex 4.60811 7.26122 -6
      vertex 5.48185 6.62641 0
      vertex 4.60811 7.26122 0
    endloop
  endfacet
  facet normal -0.587786 -0.809017 -0
    outer loop
      vertex 5.48185 6.62641 0
      vertex 4.60811 7.26122 -6
      vertex 5.48185 6.62641 -6
    endloop
  endfacet
  facet normal 0.982286 -0.18739 0
    outer loop
      vertex -8.53219 1.07787 0
      vertex -8.32981 2.13873 -6
      vertex -8.32981 2.13873 0
    endloop
  endfacet
  facet normal 0.982286 -0.18739 0
    outer loop
      vertex -8.32981 2.13873 -6
      vertex -8.53219 1.07787 0
      vertex -8.53219 1.07787 -6
    endloop
  endfacet
  facet normal 0.770511 -0.637427 0
    outer loop
      vertex -6.95755 5.05495 0
      vertex -6.26913 5.8871 -6
      vertex -6.26913 5.8871 0
    endloop
  endfacet
  facet normal 0.770511 -0.637427 0
    outer loop
      vertex -6.26913 5.8871 -6
      vertex -6.95755 5.05495 0
      vertex -6.95755 5.05495 -6
    endloop
  endfacet
  facet normal 0.481751 -0.876308 0
    outer loop
      vertex -4.60811 7.26122 -6
      vertex -3.6617 7.78151 0
      vertex -4.60811 7.26122 0
    endloop
  endfacet
  facet normal 0.481751 -0.876308 0
    outer loop
      vertex -3.6617 7.78151 0
      vertex -4.60811 7.26122 -6
      vertex -3.6617 7.78151 -6
    endloop
  endfacet
  facet normal 0.248685 -0.968584 0
    outer loop
      vertex -2.65755 8.17909 -6
      vertex -1.61148 8.44767 0
      vertex -2.65755 8.17909 0
    endloop
  endfacet
  facet normal 0.248685 -0.968584 0
    outer loop
      vertex -1.61148 8.44767 0
      vertex -2.65755 8.17909 -6
      vertex -1.61148 8.44767 -6
    endloop
  endfacet
  facet normal -0.998027 -0.062787 0
    outer loop
      vertex 8.6 0 -6
      vertex 8.53219 1.07787 0
      vertex 8.53219 1.07787 -6
    endloop
  endfacet
  facet normal -0.998027 -0.062787 0
    outer loop
      vertex 8.53219 1.07787 0
      vertex 8.6 0 -6
      vertex 8.6 0 0
    endloop
  endfacet
  facet normal 0.68455 0.728966 -0
    outer loop
      vertex -5.48185 -6.62641 -6
      vertex -6.26913 -5.8871 0
      vertex -5.48185 -6.62641 0
    endloop
  endfacet
  facet normal 0.68455 0.728966 0
    outer loop
      vertex -6.26913 -5.8871 0
      vertex -5.48185 -6.62641 -6
      vertex -6.26913 -5.8871 -6
    endloop
  endfacet
  facet normal 0.904827 0.425779 0
    outer loop
      vertex -7.53624 -4.14308 0
      vertex -7.99608 -3.16587 -6
      vertex -7.99608 -3.16587 0
    endloop
  endfacet
  facet normal 0.904827 0.425779 0
    outer loop
      vertex -7.99608 -3.16587 -6
      vertex -7.53624 -4.14308 0
      vertex -7.53624 -4.14308 -6
    endloop
  endfacet
  facet normal -0.481751 0.876308 0
    outer loop
      vertex 4.60811 -7.26122 -6
      vertex 3.6617 -7.78151 0
      vertex 4.60811 -7.26122 0
    endloop
  endfacet
  facet normal -0.481751 0.876308 0
    outer loop
      vertex 3.6617 -7.78151 0
      vertex 4.60811 -7.26122 -6
      vertex 3.6617 -7.78151 -6
    endloop
  endfacet
  facet normal -0.770511 -0.637427 0
    outer loop
      vertex 6.95755 5.05495 -6
      vertex 6.26913 5.8871 0
      vertex 6.26913 5.8871 -6
    endloop
  endfacet
  facet normal -0.770511 -0.637427 0
    outer loop
      vertex 6.26913 5.8871 0
      vertex 6.95755 5.05495 -6
      vertex 6.95755 5.05495 0
    endloop
  endfacet
  facet normal -0.248685 -0.968584 0
    outer loop
      vertex 1.61148 8.44767 -6
      vertex 2.65755 8.17909 0
      vertex 1.61148 8.44767 0
    endloop
  endfacet
  facet normal -0.248685 -0.968584 -0
    outer loop
      vertex 2.65755 8.17909 0
      vertex 1.61148 8.44767 -6
      vertex 2.65755 8.17909 -6
    endloop
  endfacet
  facet normal -0.125334 -0.992115 0
    outer loop
      vertex 0.539998 8.58303 -6
      vertex 1.61148 8.44767 0
      vertex 0.539998 8.58303 0
    endloop
  endfacet
  facet normal -0.125334 -0.992115 -0
    outer loop
      vertex 1.61148 8.44767 0
      vertex 0.539998 8.58303 -6
      vertex 1.61148 8.44767 -6
    endloop
  endfacet
  facet normal -0.481751 -0.876308 0
    outer loop
      vertex 3.6617 7.78151 -6
      vertex 4.60811 7.26122 0
      vertex 3.6617 7.78151 0
    endloop
  endfacet
  facet normal -0.481751 -0.876308 -0
    outer loop
      vertex 4.60811 7.26122 0
      vertex 3.6617 7.78151 -6
      vertex 4.60811 7.26122 -6
    endloop
  endfacet
  facet normal 0.998027 -0.062787 0
    outer loop
      vertex -8.6 0 0
      vertex -8.53219 1.07787 -6
      vertex -8.53219 1.07787 0
    endloop
  endfacet
  facet normal 0.998027 -0.062787 0
    outer loop
      vertex -8.53219 1.07787 -6
      vertex -8.6 0 0
      vertex -8.6 0 -6
    endloop
  endfacet
  facet normal 0.844328 -0.535827 0
    outer loop
      vertex -7.53624 4.14308 0
      vertex -6.95755 5.05495 -6
      vertex -6.95755 5.05495 0
    endloop
  endfacet
  facet normal 0.844328 -0.535827 0
    outer loop
      vertex -6.95755 5.05495 -6
      vertex -7.53624 4.14308 0
      vertex -7.53624 4.14308 -6
    endloop
  endfacet
  facet normal 0.125334 -0.992115 0
    outer loop
      vertex -1.61148 8.44767 -6
      vertex -0.539998 8.58303 0
      vertex -1.61148 8.44767 0
    endloop
  endfacet
  facet normal 0.125334 -0.992115 0
    outer loop
      vertex -0.539998 8.58303 0
      vertex -1.61148 8.44767 -6
      vertex -0.539998 8.58303 -6
    endloop
  endfacet
  facet normal 0.587786 -0.809017 0
    outer loop
      vertex -5.48185 6.62641 -6
      vertex -4.60811 7.26122 0
      vertex -5.48185 6.62641 0
    endloop
  endfacet
  facet normal 0.587786 -0.809017 0
    outer loop
      vertex -4.60811 7.26122 0
      vertex -5.48185 6.62641 -6
      vertex -4.60811 7.26122 -6
    endloop
  endfacet
  facet normal 0.68455 -0.728966 0
    outer loop
      vertex -6.26913 5.8871 -6
      vertex -5.48185 6.62641 0
      vertex -6.26913 5.8871 0
    endloop
  endfacet
  facet normal 0.68455 -0.728966 0
    outer loop
      vertex -5.48185 6.62641 0
      vertex -6.26913 5.8871 -6
      vertex -5.48185 6.62641 -6
    endloop
  endfacet
  facet normal 0 1 -0
    outer loop
      vertex 0.539998 -8.58303 -6
      vertex -0.539998 -8.58303 0
      vertex 0.539998 -8.58303 0
    endloop
  endfacet
  facet normal 0 1 0
    outer loop
      vertex -0.539998 -8.58303 0
      vertex 0.539998 -8.58303 -6
      vertex -0.539998 -8.58303 -6
    endloop
  endfacet
  facet normal 0.951059 0.30901 0
    outer loop
      vertex -7.99608 -3.16587 0
      vertex -8.32981 -2.13873 -6
      vertex -8.32981 -2.13873 0
    endloop
  endfacet
  facet normal 0.951059 0.30901 0
    outer loop
      vertex -8.32981 -2.13873 -6
      vertex -7.99608 -3.16587 0
      vertex -7.99608 -3.16587 -6
    endloop
  endfacet
  facet normal 0.770511 0.637427 0
    outer loop
      vertex -6.26913 -5.8871 0
      vertex -6.95755 -5.05495 -6
      vertex -6.95755 -5.05495 0
    endloop
  endfacet
  facet normal 0.770511 0.637427 0
    outer loop
      vertex -6.95755 -5.05495 -6
      vertex -6.26913 -5.8871 0
      vertex -6.26913 -5.8871 -6
    endloop
  endfacet
  facet normal -0.125334 0.992115 0
    outer loop
      vertex 1.61148 -8.44767 -6
      vertex 0.539998 -8.58303 0
      vertex 1.61148 -8.44767 0
    endloop
  endfacet
  facet normal -0.125334 0.992115 0
    outer loop
      vertex 0.539998 -8.58303 0
      vertex 1.61148 -8.44767 -6
      vertex 0.539998 -8.58303 -6
    endloop
  endfacet
  facet normal -0.68455 0.728966 0
    outer loop
      vertex 6.26913 -5.8871 -6
      vertex 5.48185 -6.62641 0
      vertex 6.26913 -5.8871 0
    endloop
  endfacet
  facet normal -0.68455 0.728966 0
    outer loop
      vertex 5.48185 -6.62641 0
      vertex 6.26913 -5.8871 -6
      vertex 5.48185 -6.62641 -6
    endloop
  endfacet
  facet normal -0.904827 -0.425779 0
    outer loop
      vertex 7.99608 3.16587 -6
      vertex 7.53624 4.14308 0
      vertex 7.53624 4.14308 -6
    endloop
  endfacet
  facet normal -0.904827 -0.425779 0
    outer loop
      vertex 7.53624 4.14308 0
      vertex 7.99608 3.16587 -6
      vertex 7.99608 3.16587 0
    endloop
  endfacet
  facet normal -0.951059 -0.30901 0
    outer loop
      vertex 8.32981 2.13873 -6
      vertex 7.99608 3.16587 0
      vertex 7.99608 3.16587 -6
    endloop
  endfacet
  facet normal -0.951059 -0.30901 0
    outer loop
      vertex 7.99608 3.16587 0
      vertex 8.32981 2.13873 -6
      vertex 8.32981 2.13873 0
    endloop
  endfacet
  facet normal -0.982286 -0.18739 0
    outer loop
      vertex 8.53219 1.07787 -6
      vertex 8.32981 2.13873 0
      vertex 8.32981 2.13873 -6
    endloop
  endfacet
  facet normal -0.982286 -0.18739 0
    outer loop
      vertex 8.32981 2.13873 0
      vertex 8.53219 1.07787 -6
      vertex 8.53219 1.07787 0
    endloop
  endfacet
  facet normal -0.998027 0.062787 0
    outer loop
      vertex 8.53219 -1.07787 -6
      vertex 8.6 0 0
      vertex 8.6 0 -6
    endloop
  endfacet
  facet normal -0.998027 0.062787 0
    outer loop
      vertex 8.6 0 0
      vertex 8.53219 -1.07787 -6
      vertex 8.53219 -1.07787 0
    endloop
  endfacet
  facet normal -0.904827 0.425779 0
    outer loop
      vertex 7.53624 -4.14308 -6
      vertex 7.99608 -3.16587 0
      vertex 7.99608 -3.16587 -6
    endloop
  endfacet
  facet normal -0.904827 0.425779 0
    outer loop
      vertex 7.99608 -3.16587 0
      vertex 7.53624 -4.14308 -6
      vertex 7.53624 -4.14308 0
    endloop
  endfacet
  facet normal -0.951059 0.30901 0
    outer loop
      vertex 7.99608 -3.16587 -6
      vertex 8.32981 -2.13873 0
      vertex 8.32981 -2.13873 -6
    endloop
  endfacet
  facet normal -0.951059 0.30901 0
    outer loop
      vertex 8.32981 -2.13873 0
      vertex 7.99608 -3.16587 -6
      vertex 7.99608 -3.16587 0
    endloop
  endfacet
  facet normal 0.587786 0.809017 -0
    outer loop
      vertex -4.60811 -7.26122 -6
      vertex -5.48185 -6.62641 0
      vertex -4.60811 -7.26122 0
    endloop
  endfacet
  facet normal 0.587786 0.809017 0
    outer loop
      vertex -5.48185 -6.62641 0
      vertex -4.60811 -7.26122 -6
      vertex -5.48185 -6.62641 -6
    endloop
  endfacet
  facet normal 0.998027 0.062787 0
    outer loop
      vertex -8.53219 -1.07787 0
      vertex -8.6 0 -6
      vertex -8.6 0 0
    endloop
  endfacet
  facet normal 0.998027 0.062787 0
    outer loop
      vertex -8.6 0 -6
      vertex -8.53219 -1.07787 0
      vertex -8.53219 -1.07787 -6
    endloop
  endfacet
  facet normal 0 0 1
    outer loop
      vertex 8.53219 1.07787 -6
      vertex 8.53219 -1.07787 -6
      vertex 8.6 0 -6
    endloop
  endfacet
  facet normal 0 0 1
    outer loop
      vertex 8.32981 2.13873 -6
      vertex 8.53219 -1.07787 -6
      vertex 8.53219 1.07787 -6
    endloop
  endfacet
  facet normal 0 0 1
    outer loop
      vertex 8.32981 2.13873 -6
      vertex 8.32981 -2.13873 -6
      vertex 8.53219 -1.07787 -6
    endloop
  endfacet
  facet normal 0 0 1
    outer loop
      vertex 7.99608 3.16587 -6
      vertex 8.32981 -2.13873 -6
      vertex 8.32981 2.13873 -6
    endloop
  endfacet
  facet normal 0 0 1
    outer loop
      vertex 7.99608 3.16587 -6
      vertex 7.99608 -3.16587 -6
      vertex 8.32981 -2.13873 -6
    endloop
  endfacet
  facet normal 0 0 1
    outer loop
      vertex 7.53624 4.14308 -6
      vertex 7.99608 -3.16587 -6
      vertex 7.99608 3.16587 -6
    endloop
  endfacet
  facet normal 0 0 1
    outer loop
      vertex 7.53624 4.14308 -6
      vertex 7.53624 -4.14308 -6
      vertex 7.99608 -3.16587 -6
    endloop
  endfacet
  facet normal 0 0 1
    outer loop
      vertex 6.95755 5.05495 -6
      vertex 7.53624 -4.14308 -6
      vertex 7.53624 4.14308 -6
    endloop
  endfacet
  facet normal 0 0 1
    outer loop
      vertex 6.95755 5.05495 -6
      vertex 6.95755 -5.05495 -6
      vertex 7.53624 -4.14308 -6
    endloop
  endfacet
  facet normal 0 0 1
    outer loop
      vertex 6.26913 5.8871 -6
      vertex 6.95755 -5.05495 -6
      vertex 6.95755 5.05495 -6
    endloop
  endfacet
  facet normal 0 0 1
    outer loop
      vertex 6.26913 5.8871 -6
      vertex 6.26913 -5.8871 -6
      vertex 6.95755 -5.05495 -6
    endloop
  endfacet
  facet normal 0 0 1
    outer loop
      vertex 5.48185 6.62641 -6
      vertex 6.26913 -5.8871 -6
      vertex 6.26913 5.8871 -6
    endloop
  endfacet
  facet normal 0 0 1
    outer loop
      vertex 5.48185 6.62641 -6
      vertex 5.48185 -6.62641 -6
      vertex 6.26913 -5.8871 -6
    endloop
  endfacet
  facet normal 0 0 1
    outer loop
      vertex 4.60811 7.26122 -6
      vertex 5.48185 -6.62641 -6
      vertex 5.48185 6.62641 -6
    endloop
  endfacet
  facet normal 0 0 1
    outer loop
      vertex 4.60811 7.26122 -6
      vertex 4.60811 -7.26122 -6
      vertex 5.48185 -6.62641 -6
    endloop
  endfacet
  facet normal 0 0 1
    outer loop
      vertex 3.6617 7.78151 -6
      vertex 4.60811 -7.26122 -6
      vertex 4.60811 7.26122 -6
    endloop
  endfacet
  facet normal 0 0 1
    outer loop
      vertex 3.6617 7.78151 -6
      vertex 3.6617 -7.78151 -6
      vertex 4.60811 -7.26122 -6
    endloop
  endfacet
  facet normal 0 0 1
    outer loop
      vertex 2.65755 8.17909 -6
      vertex 3.6617 -7.78151 -6
      vertex 3.6617 7.78151 -6
    endloop
  endfacet
  facet normal 0 0 1
    outer loop
      vertex 2.65755 8.17909 -6
      vertex 2.65755 -8.17909 -6
      vertex 3.6617 -7.78151 -6
    endloop
  endfacet
  facet normal 0 0 1
    outer loop
      vertex 1.61148 8.44767 -6
      vertex 2.65755 -8.17909 -6
      vertex 2.65755 8.17909 -6
    endloop
  endfacet
  facet normal 0 0 1
    outer loop
      vertex 1.61148 8.44767 -6
      vertex 1.61148 -8.44767 -6
      vertex 2.65755 -8.17909 -6
    endloop
  endfacet
  facet normal 0 0 1
    outer loop
      vertex 0.539998 8.58303 -6
      vertex 1.61148 -8.44767 -6
      vertex 1.61148 8.44767 -6
    endloop
  endfacet
  facet normal 0 0 1
    outer loop
      vertex 0.539998 8.58303 -6
      vertex 0.539998 -8.58303 -6
      vertex 1.61148 -8.44767 -6
    endloop
  endfacet
  facet normal -0 0 1
    outer loop
      vertex -0.539998 8.58303 -6
      vertex 0.539998 -8.58303 -6
      vertex 0.539998 8.58303 -6
    endloop
  endfacet
  facet normal 0 0 1
    outer loop
      vertex -0.539998 8.58303 -6
      vertex -0.539998 -8.58303 -6
      vertex 0.539998 -8.58303 -6
    endloop
  endfacet
  facet normal -0 0 1
    outer loop
      vertex -1.61148 8.44767 -6
      vertex -0.539998 -8.58303 -6
      vertex -0.539998 8.58303 -6
    endloop
  endfacet
  facet normal 0 0 1
    outer loop
      vertex -1.61148 8.44767 -6
      vertex -1.61148 -8.44767 -6
      vertex -0.539998 -8.58303 -6
    endloop
  endfacet
  facet normal -0 0 1
    outer loop
      vertex -2.65755 8.17909 -6
      vertex -1.61148 -8.44767 -6
      vertex -1.61148 8.44767 -6
    endloop
  endfacet
  facet normal 0 0 1
    outer loop
      vertex -2.65755 8.17909 -6
      vertex -2.65755 -8.17909 -6
      vertex -1.61148 -8.44767 -6
    endloop
  endfacet
  facet normal -0 0 1
    outer loop
      vertex -3.6617 7.78151 -6
      vertex -2.65755 -8.17909 -6
      vertex -2.65755 8.17909 -6
    endloop
  endfacet
  facet normal 0 0 1
    outer loop
      vertex -3.6617 7.78151 -6
      vertex -3.6617 -7.78151 -6
      vertex -2.65755 -8.17909 -6
    endloop
  endfacet
  facet normal -0 0 1
    outer loop
      vertex -4.60811 7.26122 -6
      vertex -3.6617 -7.78151 -6
      vertex -3.6617 7.78151 -6
    endloop
  endfacet
  facet normal 0 0 1
    outer loop
      vertex -4.60811 7.26122 -6
      vertex -4.60811 -7.26122 -6
      vertex -3.6617 -7.78151 -6
    endloop
  endfacet
  facet normal -0 0 1
    outer loop
      vertex -5.48185 6.62641 -6
      vertex -4.60811 -7.26122 -6
      vertex -4.60811 7.26122 -6
    endloop
  endfacet
  facet normal 0 0 1
    outer loop
      vertex -5.48185 6.62641 -6
      vertex -5.48185 -6.62641 -6
      vertex -4.60811 -7.26122 -6
    endloop
  endfacet
  facet normal -0 0 1
    outer loop
      vertex -6.26913 5.8871 -6
      vertex -5.48185 -6.62641 -6
      vertex -5.48185 6.62641 -6
    endloop
  endfacet
  facet normal 0 0 1
    outer loop
      vertex -6.26913 5.8871 -6
      vertex -6.26913 -5.8871 -6
      vertex -5.48185 -6.62641 -6
    endloop
  endfacet
  facet normal -0 0 1
    outer loop
      vertex -6.95755 5.05495 -6
      vertex -6.26913 -5.8871 -6
      vertex -6.26913 5.8871 -6
    endloop
  endfacet
  facet normal 0 0 1
    outer loop
      vertex -6.95755 5.05495 -6
      vertex -6.95755 -5.05495 -6
      vertex -6.26913 -5.8871 -6
    endloop
  endfacet
  facet normal -0 0 1
    outer loop
      vertex -7.53624 4.14308 -6
      vertex -6.95755 -5.05495 -6
      vertex -6.95755 5.05495 -6
    endloop
  endfacet
  facet normal 0 0 1
    outer loop
      vertex -7.53624 4.14308 -6
      vertex -7.53624 -4.14308 -6
      vertex -6.95755 -5.05495 -6
    endloop
  endfacet
  facet normal -0 0 1
    outer loop
      vertex -7.99608 3.16587 -6
      vertex -7.53624 -4.14308 -6
      vertex -7.53624 4.14308 -6
    endloop
  endfacet
  facet normal 0 0 1
    outer loop
      vertex -7.99608 3.16587 -6
      vertex -7.99608 -3.16587 -6
      vertex -7.53624 -4.14308 -6
    endloop
  endfacet
  facet normal -0 0 1
    outer loop
      vertex -8.32981 2.13873 -6
      vertex -7.99608 -3.16587 -6
      vertex -7.99608 3.16587 -6
    endloop
  endfacet
  facet normal 0 0 1
    outer loop
      vertex -8.32981 2.13873 -6
      vertex -8.32981 -2.13873 -6
      vertex -7.99608 -3.16587 -6
    endloop
  endfacet
  facet normal -0 0 1
    outer loop
      vertex -8.53219 1.07787 -6
      vertex -8.32981 -2.13873 -6
      vertex -8.32981 2.13873 -6
    endloop
  endfacet
  facet normal 0 0 1
    outer loop
      vertex -8.53219 1.07787 -6
      vertex -8.53219 -1.07787 -6
      vertex -8.32981 -2.13873 -6
    endloop
  endfacet
  facet normal 0 -0 1
    outer loop
      vertex -8.53219 -1.07787 -6
      vertex -8.53219 1.07787 -6
      vertex -8.6 0 -6
    endloop
  endfacet
  facet normal -0.368132 0.929774 0
    outer loop
      vertex 3.6617 -7.78151 -6
      vertex 2.65755 -8.17909 0
      vertex 3.6617 -7.78151 0
    endloop
  endfacet
  facet normal -0.368132 0.929774 0
    outer loop
      vertex 2.65755 -8.17909 0
      vertex 3.6617 -7.78151 -6
      vertex 2.65755 -8.17909 -6
    endloop
  endfacet
  facet normal -0.248685 0.968584 0
    outer loop
      vertex 2.65755 -8.17909 -6
      vertex 1.61148 -8.44767 0
      vertex 2.65755 -8.17909 0
    endloop
  endfacet
  facet normal -0.248685 0.968584 0
    outer loop
      vertex 1.61148 -8.44767 0
      vertex 2.65755 -8.17909 -6
      vertex 1.61148 -8.44767 -6
    endloop
  endfacet
  facet normal -0.587786 0.809017 0
    outer loop
      vertex 5.48185 -6.62641 -6
      vertex 4.60811 -7.26122 0
      vertex 5.48185 -6.62641 0
    endloop
  endfacet
  facet normal -0.587786 0.809017 0
    outer loop
      vertex 4.60811 -7.26122 0
      vertex 5.48185 -6.62641 -6
      vertex 4.60811 -7.26122 -6
    endloop
  endfacet
  facet normal -0.844328 0.535827 0
    outer loop
      vertex 6.95755 -5.05495 -6
      vertex 7.53624 -4.14308 0
      vertex 7.53624 -4.14308 -6
    endloop
  endfacet
  facet normal -0.844328 0.535827 0
    outer loop
      vertex 7.53624 -4.14308 0
      vertex 6.95755 -5.05495 -6
      vertex 6.95755 -5.05495 0
    endloop
  endfacet
  facet normal -0.770511 0.637427 0
    outer loop
      vertex 6.26913 -5.8871 -6
      vertex 6.95755 -5.05495 0
      vertex 6.95755 -5.05495 -6
    endloop
  endfacet
  facet normal -0.770511 0.637427 0
    outer loop
      vertex 6.95755 -5.05495 0
      vertex 6.26913 -5.8871 -6
      vertex 6.26913 -5.8871 0
    endloop
  endfacet
  facet normal 0.125334 0.992115 -0
    outer loop
      vertex -0.539998 -8.58303 -6
      vertex -1.61148 -8.44767 0
      vertex -0.539998 -8.58303 0
    endloop
  endfacet
  facet normal 0.125334 0.992115 0
    outer loop
      vertex -1.61148 -8.44767 0
      vertex -0.539998 -8.58303 -6
      vertex -1.61148 -8.44767 -6
    endloop
  endfacet
  facet normal 0.982286 0.18739 0
    outer loop
      vertex -8.32981 -2.13873 0
      vertex -8.53219 -1.07787 -6
      vertex -8.53219 -1.07787 0
    endloop
  endfacet
  facet normal 0.982286 0.18739 0
    outer loop
      vertex -8.53219 -1.07787 -6
      vertex -8.32981 -2.13873 0
      vertex -8.32981 -2.13873 -6
    endloop
  endfacet
  facet normal 0.844328 0.535827 0
    outer loop
      vertex -6.95755 -5.05495 0
      vertex -7.53624 -4.14308 -6
      vertex -7.53624 -4.14308 0
    endloop
  endfacet
  facet normal 0.844328 0.535827 0
    outer loop
      vertex -7.53624 -4.14308 -6
      vertex -6.95755 -5.05495 0
      vertex -6.95755 -5.05495 -6
    endloop
  endfacet
  facet normal 0.368132 0.929774 -0
    outer loop
      vertex -2.65755 -8.17909 -6
      vertex -3.6617 -7.78151 0
      vertex -2.65755 -8.17909 0
    endloop
  endfacet
  facet normal 0.368132 0.929774 0
    outer loop
      vertex -3.6617 -7.78151 0
      vertex -2.65755 -8.17909 -6
      vertex -3.6617 -7.78151 -6
    endloop
  endfacet
  facet normal 0.248685 0.968584 -0
    outer loop
      vertex -1.61148 -8.44767 -6
      vertex -2.65755 -8.17909 0
      vertex -1.61148 -8.44767 0
    endloop
  endfacet
  facet normal 0.248685 0.968584 0
    outer loop
      vertex -2.65755 -8.17909 0
      vertex -1.61148 -8.44767 -6
      vertex -2.65755 -8.17909 -6
    endloop
  endfacet
  facet normal 0.481751 0.876308 -0
    outer loop
      vertex -3.6617 -7.78151 -6
      vertex -4.60811 -7.26122 0
      vertex -3.6617 -7.78151 0
    endloop
  endfacet
  facet normal 0.481751 0.876308 0
    outer loop
      vertex -4.60811 -7.26122 0
      vertex -3.6617 -7.78151 -6
      vertex -4.60811 -7.26122 -6
    endloop
  endfacet
endsolid OpenSCAD_Model
