solid OpenSCAD_Model
  facet normal 0.998025 0.062814 0
    outer loop
      vertex 17 0 0
      vertex 16.8659 2.13066 -7
      vertex 16.8659 2.13066 0
    endloop
  endfacet
  facet normal 0.998025 0.062814 0
    outer loop
      vertex 16.8659 2.13066 -7
      vertex 17 0 0
      vertex 17 0 -7
    endloop
  endfacet
  facet normal -0.998025 0.062814 0
    outer loop
      vertex -17 0 -7
      vertex -16.8659 2.13066 0
      vertex -16.8659 2.13066 -7
    endloop
  endfacet
  facet normal -0.998025 0.062814 0
    outer loop
      vertex -16.8659 2.13066 0
      vertex -17 0 -7
      vertex -17 0 0
    endloop
  endfacet
  facet normal 0 1 -0
    outer loop
      vertex 1.06744 16.9665 -7
      vertex -1.06744 16.9665 0
      vertex 1.06744 16.9665 0
    endloop
  endfacet
  facet normal 0 1 0
    outer loop
      vertex -1.06744 16.9665 0
      vertex 1.06744 16.9665 -7
      vertex -1.06744 16.9665 -7
    endloop
  endfacet
  facet normal 0 -1 0
    outer loop
      vertex -1.06744 -16.9665 -7
      vertex 1.06744 -16.9665 0
      vertex -1.06744 -16.9665 0
    endloop
  endfacet
  facet normal 0 -1 -0
    outer loop
      vertex 1.06744 -16.9665 0
      vertex -1.06744 -16.9665 -7
      vertex 1.06744 -16.9665 -7
    endloop
  endfacet
  facet normal 0.684531 0.728983 -0
    outer loop
      vertex 12.3925 11.6373 -7
      vertex 10.8362 13.0987 0
      vertex 12.3925 11.6373 0
    endloop
  endfacet
  facet normal 0.684531 0.728983 0
    outer loop
      vertex 10.8362 13.0987 0
      vertex 12.3925 11.6373 -7
      vertex 10.8362 13.0987 -7
    endloop
  endfacet
  facet normal -0.684531 0.728983 0
    outer loop
      vertex -10.8362 13.0987 -7
      vertex -12.3925 11.6373 0
      vertex -10.8362 13.0987 0
    endloop
  endfacet
  facet normal -0.684531 0.728983 0
    outer loop
      vertex -12.3925 11.6373 0
      vertex -10.8362 13.0987 -7
      vertex -12.3925 11.6373 -7
    endloop
  endfacet
  facet normal -0.368124 0.929777 0
    outer loop
      vertex -5.25329 16.168 -7
      vertex -7.23825 15.3821 0
      vertex -5.25329 16.168 0
    endloop
  endfacet
  facet normal -0.368124 0.929777 0
    outer loop
      vertex -7.23825 15.3821 0
      vertex -5.25329 16.168 -7
      vertex -7.23825 15.3821 -7
    endloop
  endfacet
  facet normal 0.904824 0.425785 0
    outer loop
      vertex 15.8062 6.25812 0
      vertex 14.8972 8.18981 -7
      vertex 14.8972 8.18981 0
    endloop
  endfacet
  facet normal 0.904824 0.425785 0
    outer loop
      vertex 14.8972 8.18981 -7
      vertex 15.8062 6.25812 0
      vertex 15.8062 6.25812 -7
    endloop
  endfacet
  facet normal 0.368124 0.929777 -0
    outer loop
      vertex 7.23825 15.3821 -7
      vertex 5.25329 16.168 0
      vertex 7.23825 15.3821 0
    endloop
  endfacet
  facet normal 0.368124 0.929777 0
    outer loop
      vertex 5.25329 16.168 0
      vertex 7.23825 15.3821 -7
      vertex 5.25329 16.168 -7
    endloop
  endfacet
  facet normal 0.24868 0.968586 -0
    outer loop
      vertex 5.25329 16.168 -7
      vertex 3.18548 16.6989 0
      vertex 5.25329 16.168 0
    endloop
  endfacet
  facet normal 0.24868 0.968586 0
    outer loop
      vertex 3.18548 16.6989 0
      vertex 5.25329 16.168 -7
      vertex 3.18548 16.6989 -7
    endloop
  endfacet
  facet normal 0.481761 0.876303 -0
    outer loop
      vertex 9.10905 14.3536 -7
      vertex 7.23825 15.3821 0
      vertex 9.10905 14.3536 0
    endloop
  endfacet
  facet normal 0.481761 0.876303 0
    outer loop
      vertex 7.23825 15.3821 0
      vertex 9.10905 14.3536 -7
      vertex 7.23825 15.3821 -7
    endloop
  endfacet
  facet normal -0.904824 0.425785 0
    outer loop
      vertex -15.8062 6.25812 -7
      vertex -14.8972 8.18981 0
      vertex -14.8972 8.18981 -7
    endloop
  endfacet
  facet normal -0.904824 0.425785 0
    outer loop
      vertex -14.8972 8.18981 0
      vertex -15.8062 6.25812 -7
      vertex -15.8062 6.25812 0
    endloop
  endfacet
  facet normal 0 0 1
    outer loop
      vertex 11.1 0 0
      vertex 17 0 0
      vertex 16.8659 2.13066 0
    endloop
  endfacet
  facet normal 0 0 1
    outer loop
      vertex 11.0125 1.3912 0
      vertex 16.8659 2.13066 0
      vertex 16.4659 4.22773 0
    endloop
  endfacet
  facet normal 0 0 1
    outer loop
      vertex 17 0 0
      vertex 11.1 0 0
      vertex 16.8659 -2.13066 0
    endloop
  endfacet
  facet normal 0 0 1
    outer loop
      vertex 10.7513 2.76046 0
      vertex 16.4659 4.22773 0
      vertex 15.8062 6.25812 0
    endloop
  endfacet
  facet normal -0 0 1
    outer loop
      vertex 11.0125 -1.3912 0
      vertex 16.8659 -2.13066 0
      vertex 11.1 0 0
    endloop
  endfacet
  facet normal 0 0 1
    outer loop
      vertex 10.3205 4.08618 0
      vertex 15.8062 6.25812 0
      vertex 14.8972 8.18981 0
    endloop
  endfacet
  facet normal 0 0 1
    outer loop
      vertex 16.8659 -2.13066 0
      vertex 11.0125 -1.3912 0
      vertex 16.4659 -4.22773 0
    endloop
  endfacet
  facet normal 0 0 1
    outer loop
      vertex 9.727 5.34747 0
      vertex 14.8972 8.18981 0
      vertex 13.7533 9.99235 0
    endloop
  endfacet
  facet normal -0 0 1
    outer loop
      vertex 10.7513 -2.76046 0
      vertex 16.4659 -4.22773 0
      vertex 11.0125 -1.3912 0
    endloop
  endfacet
  facet normal 0 0 1
    outer loop
      vertex 8.98009 6.52442 0
      vertex 13.7533 9.99235 0
      vertex 12.3925 11.6373 0
    endloop
  endfacet
  facet normal 0 0 1
    outer loop
      vertex 16.4659 -4.22773 0
      vertex 10.7513 -2.76046 0
      vertex 15.8062 -6.25812 0
    endloop
  endfacet
  facet normal -0 0 1
    outer loop
      vertex 10.3205 -4.08618 0
      vertex 15.8062 -6.25812 0
      vertex 10.7513 -2.76046 0
    endloop
  endfacet
  facet normal 0 0 1
    outer loop
      vertex 16.8659 2.13066 0
      vertex 11.0125 1.3912 0
      vertex 11.1 0 0
    endloop
  endfacet
  facet normal 0 0 1
    outer loop
      vertex 8.09155 7.59847 0
      vertex 12.3925 11.6373 0
      vertex 10.8362 13.0987 0
    endloop
  endfacet
  facet normal 0 0 1
    outer loop
      vertex 16.4659 4.22773 0
      vertex 10.7513 2.76046 0
      vertex 11.0125 1.3912 0
    endloop
  endfacet
  facet normal 0 0 1
    outer loop
      vertex 15.8062 6.25812 0
      vertex 10.3205 4.08618 0
      vertex 10.7513 2.76046 0
    endloop
  endfacet
  facet normal 0 0 1
    outer loop
      vertex 14.8972 8.18981 0
      vertex 9.727 5.34747 0
      vertex 10.3205 4.08618 0
    endloop
  endfacet
  facet normal 0 0 1
    outer loop
      vertex 7.07541 8.5527 0
      vertex 10.8362 13.0987 0
      vertex 9.10905 14.3536 0
    endloop
  endfacet
  facet normal 0 0 1
    outer loop
      vertex 13.7533 9.99235 0
      vertex 8.98009 6.52442 0
      vertex 9.727 5.34747 0
    endloop
  endfacet
  facet normal 0 0 1
    outer loop
      vertex 12.3925 11.6373 0
      vertex 8.09155 7.59847 0
      vertex 8.98009 6.52442 0
    endloop
  endfacet
  facet normal 0 0 1
    outer loop
      vertex 5.94768 9.37204 0
      vertex 9.10905 14.3536 0
      vertex 7.23825 15.3821 0
    endloop
  endfacet
  facet normal 0 0 1
    outer loop
      vertex 10.8362 13.0987 0
      vertex 7.07541 8.5527 0
      vertex 8.09155 7.59847 0
    endloop
  endfacet
  facet normal 0 0 1
    outer loop
      vertex 9.10905 14.3536 0
      vertex 5.94768 9.37204 0
      vertex 7.07541 8.5527 0
    endloop
  endfacet
  facet normal 0 0 1
    outer loop
      vertex 4.72615 10.0436 0
      vertex 7.23825 15.3821 0
      vertex 5.25329 16.168 0
    endloop
  endfacet
  facet normal 0 0 1
    outer loop
      vertex 7.23825 15.3821 0
      vertex 4.72615 10.0436 0
      vertex 5.94768 9.37204 0
    endloop
  endfacet
  facet normal 0 0 1
    outer loop
      vertex 5.25329 16.168 0
      vertex 3.43009 10.5567 0
      vertex 4.72615 10.0436 0
    endloop
  endfacet
  facet normal 0 0 1
    outer loop
      vertex 3.18548 16.6989 0
      vertex 3.43009 10.5567 0
      vertex 5.25329 16.168 0
    endloop
  endfacet
  facet normal 0 0 1
    outer loop
      vertex 3.18548 16.6989 0
      vertex 2.07993 10.9034 0
      vertex 3.43009 10.5567 0
    endloop
  endfacet
  facet normal 0 0 1
    outer loop
      vertex 1.06744 16.9665 0
      vertex 2.07993 10.9034 0
      vertex 3.18548 16.6989 0
    endloop
  endfacet
  facet normal 0 0 1
    outer loop
      vertex 1.06744 16.9665 0
      vertex 0.696975 11.0781 0
      vertex 2.07993 10.9034 0
    endloop
  endfacet
  facet normal 0 0 1
    outer loop
      vertex 1.06744 16.9665 0
      vertex -0.696975 11.0781 0
      vertex 0.696975 11.0781 0
    endloop
  endfacet
  facet normal -0 0 1
    outer loop
      vertex -1.06744 16.9665 0
      vertex -0.696975 11.0781 0
      vertex 1.06744 16.9665 0
    endloop
  endfacet
  facet normal 0 0 1
    outer loop
      vertex -1.06744 16.9665 0
      vertex -2.07993 10.9034 0
      vertex -0.696975 11.0781 0
    endloop
  endfacet
  facet normal -0 0 1
    outer loop
      vertex -3.18548 16.6989 0
      vertex -2.07993 10.9034 0
      vertex -1.06744 16.9665 0
    endloop
  endfacet
  facet normal 0 0 1
    outer loop
      vertex -3.18548 16.6989 0
      vertex -3.43009 10.5567 0
      vertex -2.07993 10.9034 0
    endloop
  endfacet
  facet normal -0 0 1
    outer loop
      vertex -5.25329 16.168 0
      vertex -3.43009 10.5567 0
      vertex -3.18548 16.6989 0
    endloop
  endfacet
  facet normal 0 0 1
    outer loop
      vertex -3.43009 10.5567 0
      vertex -5.25329 16.168 0
      vertex -4.72615 10.0436 0
    endloop
  endfacet
  facet normal -0 0 1
    outer loop
      vertex -7.23825 15.3821 0
      vertex -4.72615 10.0436 0
      vertex -5.25329 16.168 0
    endloop
  endfacet
  facet normal 0 0 1
    outer loop
      vertex -4.72615 10.0436 0
      vertex -7.23825 15.3821 0
      vertex -5.94768 9.37204 0
    endloop
  endfacet
  facet normal -0 0 1
    outer loop
      vertex -9.10905 14.3536 0
      vertex -5.94768 9.37204 0
      vertex -7.23825 15.3821 0
    endloop
  endfacet
  facet normal 0 0 1
    outer loop
      vertex -5.94768 9.37204 0
      vertex -9.10905 14.3536 0
      vertex -7.07541 8.5527 0
    endloop
  endfacet
  facet normal -0 0 1
    outer loop
      vertex -10.8362 13.0987 0
      vertex -7.07541 8.5527 0
      vertex -9.10905 14.3536 0
    endloop
  endfacet
  facet normal 0 0 1
    outer loop
      vertex -7.07541 8.5527 0
      vertex -10.8362 13.0987 0
      vertex -8.09155 7.59847 0
    endloop
  endfacet
  facet normal -0 0 1
    outer loop
      vertex -12.3925 11.6373 0
      vertex -8.09155 7.59847 0
      vertex -10.8362 13.0987 0
    endloop
  endfacet
  facet normal 0 0 1
    outer loop
      vertex -8.09155 7.59847 0
      vertex -12.3925 11.6373 0
      vertex -8.98009 6.52442 0
    endloop
  endfacet
  facet normal -0 0 1
    outer loop
      vertex -13.7533 9.99235 0
      vertex -8.98009 6.52442 0
      vertex -12.3925 11.6373 0
    endloop
  endfacet
  facet normal 0 0 1
    outer loop
      vertex -8.98009 6.52442 0
      vertex -13.7533 9.99235 0
      vertex -9.727 5.34747 0
    endloop
  endfacet
  facet normal -0 0 1
    outer loop
      vertex -14.8972 8.18981 0
      vertex -9.727 5.34747 0
      vertex -13.7533 9.99235 0
    endloop
  endfacet
  facet normal 0 0 1
    outer loop
      vertex -9.727 5.34747 0
      vertex -14.8972 8.18981 0
      vertex -10.3205 4.08618 0
    endloop
  endfacet
  facet normal -0 0 1
    outer loop
      vertex -15.8062 6.25812 0
      vertex -10.3205 4.08618 0
      vertex -14.8972 8.18981 0
    endloop
  endfacet
  facet normal 0 0 1
    outer loop
      vertex 15.8062 -6.25812 0
      vertex 10.3205 -4.08618 0
      vertex 14.8972 -8.18981 0
    endloop
  endfacet
  facet normal -0 0 1
    outer loop
      vertex 9.727 -5.34747 0
      vertex 14.8972 -8.18981 0
      vertex 10.3205 -4.08618 0
    endloop
  endfacet
  facet normal 0 0 1
    outer loop
      vertex 14.8972 -8.18981 0
      vertex 9.727 -5.34747 0
      vertex 13.7533 -9.99235 0
    endloop
  endfacet
  facet normal -0 0 1
    outer loop
      vertex 8.98009 -6.52442 0
      vertex 13.7533 -9.99235 0
      vertex 9.727 -5.34747 0
    endloop
  endfacet
  facet normal 0 0 1
    outer loop
      vertex 13.7533 -9.99235 0
      vertex 8.98009 -6.52442 0
      vertex 12.3925 -11.6373 0
    endloop
  endfacet
  facet normal -0 0 1
    outer loop
      vertex 8.09155 -7.59847 0
      vertex 12.3925 -11.6373 0
      vertex 8.98009 -6.52442 0
    endloop
  endfacet
  facet normal 0 0 1
    outer loop
      vertex 12.3925 -11.6373 0
      vertex 8.09155 -7.59847 0
      vertex 10.8362 -13.0987 0
    endloop
  endfacet
  facet normal -0 0 1
    outer loop
      vertex 7.07541 -8.5527 0
      vertex 10.8362 -13.0987 0
      vertex 8.09155 -7.59847 0
    endloop
  endfacet
  facet normal 0 0 1
    outer loop
      vertex 10.8362 -13.0987 0
      vertex 7.07541 -8.5527 0
      vertex 9.10905 -14.3536 0
    endloop
  endfacet
  facet normal -0 0 1
    outer loop
      vertex 5.94768 -9.37204 0
      vertex 9.10905 -14.3536 0
      vertex 7.07541 -8.5527 0
    endloop
  endfacet
  facet normal 0 0 1
    outer loop
      vertex 9.10905 -14.3536 0
      vertex 5.94768 -9.37204 0
      vertex 7.23825 -15.3821 0
    endloop
  endfacet
  facet normal -0 0 1
    outer loop
      vertex 4.72615 -10.0436 0
      vertex 7.23825 -15.3821 0
      vertex 5.94768 -9.37204 0
    endloop
  endfacet
  facet normal 0 0 1
    outer loop
      vertex 7.23825 -15.3821 0
      vertex 4.72615 -10.0436 0
      vertex 5.25329 -16.168 0
    endloop
  endfacet
  facet normal -0 0 1
    outer loop
      vertex 3.43009 -10.5567 0
      vertex 5.25329 -16.168 0
      vertex 4.72615 -10.0436 0
    endloop
  endfacet
  facet normal 0 0 1
    outer loop
      vertex 3.43009 -10.5567 0
      vertex 3.18548 -16.6989 0
      vertex 5.25329 -16.168 0
    endloop
  endfacet
  facet normal -0 0 1
    outer loop
      vertex 2.07993 -10.9034 0
      vertex 3.18548 -16.6989 0
      vertex 3.43009 -10.5567 0
    endloop
  endfacet
  facet normal 0 0 1
    outer loop
      vertex 2.07993 -10.9034 0
      vertex 1.06744 -16.9665 0
      vertex 3.18548 -16.6989 0
    endloop
  endfacet
  facet normal -0 0 1
    outer loop
      vertex 0.696975 -11.0781 0
      vertex 1.06744 -16.9665 0
      vertex 2.07993 -10.9034 0
    endloop
  endfacet
  facet normal -0 0 1
    outer loop
      vertex -0.696975 -11.0781 0
      vertex 1.06744 -16.9665 0
      vertex 0.696975 -11.0781 0
    endloop
  endfacet
  facet normal 0 0 1
    outer loop
      vertex -0.696975 -11.0781 0
      vertex -1.06744 -16.9665 0
      vertex 1.06744 -16.9665 0
    endloop
  endfacet
  facet normal 0 0 1
    outer loop
      vertex -2.07993 -10.9034 0
      vertex -1.06744 -16.9665 0
      vertex -0.696975 -11.0781 0
    endloop
  endfacet
  facet normal 0 0 1
    outer loop
      vertex -2.07993 -10.9034 0
      vertex -3.18548 -16.6989 0
      vertex -1.06744 -16.9665 0
    endloop
  endfacet
  facet normal 0 0 1
    outer loop
      vertex -3.43009 -10.5567 0
      vertex -3.18548 -16.6989 0
      vertex -2.07993 -10.9034 0
    endloop
  endfacet
  facet normal 0 0 1
    outer loop
      vertex -5.25329 -16.168 0
      vertex -3.43009 -10.5567 0
      vertex -4.72615 -10.0436 0
    endloop
  endfacet
  facet normal 0 0 1
    outer loop
      vertex -3.43009 -10.5567 0
      vertex -5.25329 -16.168 0
      vertex -3.18548 -16.6989 0
    endloop
  endfacet
  facet normal 0 0 1
    outer loop
      vertex -7.23825 -15.3821 0
      vertex -4.72615 -10.0436 0
      vertex -5.94768 -9.37204 0
    endloop
  endfacet
  facet normal 0 0 1
    outer loop
      vertex -9.10905 -14.3536 0
      vertex -5.94768 -9.37204 0
      vertex -7.07541 -8.5527 0
    endloop
  endfacet
  facet normal 0 0 1
    outer loop
      vertex -4.72615 -10.0436 0
      vertex -7.23825 -15.3821 0
      vertex -5.25329 -16.168 0
    endloop
  endfacet
  facet normal 0 0 1
    outer loop
      vertex -10.8362 -13.0987 0
      vertex -7.07541 -8.5527 0
      vertex -8.09155 -7.59847 0
    endloop
  endfacet
  facet normal 0 0 1
    outer loop
      vertex -12.3925 -11.6373 0
      vertex -8.09155 -7.59847 0
      vertex -8.98009 -6.52442 0
    endloop
  endfacet
  facet normal 0 0 1
    outer loop
      vertex -5.94768 -9.37204 0
      vertex -9.10905 -14.3536 0
      vertex -7.23825 -15.3821 0
    endloop
  endfacet
  facet normal 0 0 1
    outer loop
      vertex -13.7533 -9.99235 0
      vertex -8.98009 -6.52442 0
      vertex -9.727 -5.34747 0
    endloop
  endfacet
  facet normal 0 0 1
    outer loop
      vertex -14.8972 -8.18981 0
      vertex -9.727 -5.34747 0
      vertex -10.3205 -4.08618 0
    endloop
  endfacet
  facet normal 0 0 1
    outer loop
      vertex -15.8062 -6.25812 0
      vertex -10.3205 -4.08618 0
      vertex -10.7513 -2.76046 0
    endloop
  endfacet
  facet normal 0 0 1
    outer loop
      vertex -7.07541 -8.5527 0
      vertex -10.8362 -13.0987 0
      vertex -9.10905 -14.3536 0
    endloop
  endfacet
  facet normal 0 0 1
    outer loop
      vertex -16.4659 -4.22773 0
      vertex -10.7513 -2.76046 0
      vertex -11.0125 -1.3912 0
    endloop
  endfacet
  facet normal 0 0 1
    outer loop
      vertex -16.8659 -2.13066 0
      vertex -11.0125 -1.3912 0
      vertex -11.1 0 0
    endloop
  endfacet
  facet normal 0 0 1
    outer loop
      vertex -10.3205 4.08618 0
      vertex -15.8062 6.25812 0
      vertex -10.7513 2.76046 0
    endloop
  endfacet
  facet normal 0 0 1
    outer loop
      vertex -8.09155 -7.59847 0
      vertex -12.3925 -11.6373 0
      vertex -10.8362 -13.0987 0
    endloop
  endfacet
  facet normal -0 0 1
    outer loop
      vertex -16.4659 4.22773 0
      vertex -10.7513 2.76046 0
      vertex -15.8062 6.25812 0
    endloop
  endfacet
  facet normal 0 0 1
    outer loop
      vertex -8.98009 -6.52442 0
      vertex -13.7533 -9.99235 0
      vertex -12.3925 -11.6373 0
    endloop
  endfacet
  facet normal 0 0 1
    outer loop
      vertex -10.7513 2.76046 0
      vertex -16.4659 4.22773 0
      vertex -11.0125 1.3912 0
    endloop
  endfacet
  facet normal 0 0 1
    outer loop
      vertex -9.727 -5.34747 0
      vertex -14.8972 -8.18981 0
      vertex -13.7533 -9.99235 0
    endloop
  endfacet
  facet normal -0 0 1
    outer loop
      vertex -16.8659 2.13066 0
      vertex -11.0125 1.3912 0
      vertex -16.4659 4.22773 0
    endloop
  endfacet
  facet normal 0 0 1
    outer loop
      vertex -10.3205 -4.08618 0
      vertex -15.8062 -6.25812 0
      vertex -14.8972 -8.18981 0
    endloop
  endfacet
  facet normal 0 0 1
    outer loop
      vertex -11.0125 1.3912 0
      vertex -16.8659 2.13066 0
      vertex -11.1 0 0
    endloop
  endfacet
  facet normal 0 0 1
    outer loop
      vertex -10.7513 -2.76046 0
      vertex -16.4659 -4.22773 0
      vertex -15.8062 -6.25812 0
    endloop
  endfacet
  facet normal 0 0 1
    outer loop
      vertex -17 0 0
      vertex -11.1 0 0
      vertex -16.8659 2.13066 0
    endloop
  endfacet
  facet normal 0 0 1
    outer loop
      vertex -11.0125 -1.3912 0
      vertex -16.8659 -2.13066 0
      vertex -16.4659 -4.22773 0
    endloop
  endfacet
  facet normal 0 0 1
    outer loop
      vertex -11.1 0 0
      vertex -17 0 0
      vertex -16.8659 -2.13066 0
    endloop
  endfacet
  facet normal -0.125347 0.992113 0
    outer loop
      vertex -1.06744 16.9665 -7
      vertex -3.18548 16.6989 0
      vertex -1.06744 16.9665 0
    endloop
  endfacet
  facet normal -0.125347 0.992113 0
    outer loop
      vertex -3.18548 16.6989 0
      vertex -1.06744 16.9665 -7
      vertex -3.18548 16.6989 -7
    endloop
  endfacet
  facet normal 0.98229 -0.187364 0
    outer loop
      vertex 16.4659 -4.22773 0
      vertex 16.8659 -2.13066 -7
      vertex 16.8659 -2.13066 0
    endloop
  endfacet
  facet normal 0.98229 -0.187364 0
    outer loop
      vertex 16.8659 -2.13066 -7
      vertex 16.4659 -4.22773 0
      vertex 16.4659 -4.22773 -7
    endloop
  endfacet
  facet normal 0 0 -1
    outer loop
      vertex 16.8659 -2.13066 -7
      vertex 16.8659 2.13066 -7
      vertex 17 0 -7
    endloop
  endfacet
  facet normal 0 0 -1
    outer loop
      vertex 16.4659 -4.22773 -7
      vertex 16.8659 2.13066 -7
      vertex 16.8659 -2.13066 -7
    endloop
  endfacet
  facet normal 0 0 -1
    outer loop
      vertex 16.4659 -4.22773 -7
      vertex 16.4659 4.22773 -7
      vertex 16.8659 2.13066 -7
    endloop
  endfacet
  facet normal 0 0 -1
    outer loop
      vertex 15.8062 -6.25812 -7
      vertex 16.4659 4.22773 -7
      vertex 16.4659 -4.22773 -7
    endloop
  endfacet
  facet normal 0 0 -1
    outer loop
      vertex 15.8062 -6.25812 -7
      vertex 15.8062 6.25812 -7
      vertex 16.4659 4.22773 -7
    endloop
  endfacet
  facet normal 0 0 -1
    outer loop
      vertex 14.8972 -8.18981 -7
      vertex 15.8062 6.25812 -7
      vertex 15.8062 -6.25812 -7
    endloop
  endfacet
  facet normal 0 0 -1
    outer loop
      vertex 14.8972 -8.18981 -7
      vertex 14.8972 8.18981 -7
      vertex 15.8062 6.25812 -7
    endloop
  endfacet
  facet normal 0 0 -1
    outer loop
      vertex 13.7533 -9.99235 -7
      vertex 14.8972 8.18981 -7
      vertex 14.8972 -8.18981 -7
    endloop
  endfacet
  facet normal 0 0 -1
    outer loop
      vertex 13.7533 -9.99235 -7
      vertex 13.7533 9.99235 -7
      vertex 14.8972 8.18981 -7
    endloop
  endfacet
  facet normal 0 0 -1
    outer loop
      vertex 12.3925 -11.6373 -7
      vertex 13.7533 9.99235 -7
      vertex 13.7533 -9.99235 -7
    endloop
  endfacet
  facet normal 0 0 -1
    outer loop
      vertex 12.3925 -11.6373 -7
      vertex 12.3925 11.6373 -7
      vertex 13.7533 9.99235 -7
    endloop
  endfacet
  facet normal 0 0 -1
    outer loop
      vertex 10.8362 -13.0987 -7
      vertex 12.3925 11.6373 -7
      vertex 12.3925 -11.6373 -7
    endloop
  endfacet
  facet normal 0 0 -1
    outer loop
      vertex 10.8362 -13.0987 -7
      vertex 10.8362 13.0987 -7
      vertex 12.3925 11.6373 -7
    endloop
  endfacet
  facet normal 0 0 -1
    outer loop
      vertex 9.10905 -14.3536 -7
      vertex 10.8362 13.0987 -7
      vertex 10.8362 -13.0987 -7
    endloop
  endfacet
  facet normal 0 0 -1
    outer loop
      vertex 9.10905 -14.3536 -7
      vertex 9.10905 14.3536 -7
      vertex 10.8362 13.0987 -7
    endloop
  endfacet
  facet normal 0 0 -1
    outer loop
      vertex 7.23825 -15.3821 -7
      vertex 9.10905 14.3536 -7
      vertex 9.10905 -14.3536 -7
    endloop
  endfacet
  facet normal 0 0 -1
    outer loop
      vertex 7.23825 -15.3821 -7
      vertex 7.23825 15.3821 -7
      vertex 9.10905 14.3536 -7
    endloop
  endfacet
  facet normal 0 0 -1
    outer loop
      vertex 5.25329 -16.168 -7
      vertex 7.23825 15.3821 -7
      vertex 7.23825 -15.3821 -7
    endloop
  endfacet
  facet normal 0 0 -1
    outer loop
      vertex 5.25329 -16.168 -7
      vertex 5.25329 16.168 -7
      vertex 7.23825 15.3821 -7
    endloop
  endfacet
  facet normal 0 0 -1
    outer loop
      vertex 3.18548 -16.6989 -7
      vertex 5.25329 16.168 -7
      vertex 5.25329 -16.168 -7
    endloop
  endfacet
  facet normal 0 0 -1
    outer loop
      vertex 3.18548 -16.6989 -7
      vertex 3.18548 16.6989 -7
      vertex 5.25329 16.168 -7
    endloop
  endfacet
  facet normal 0 0 -1
    outer loop
      vertex 1.06744 -16.9665 -7
      vertex 3.18548 16.6989 -7
      vertex 3.18548 -16.6989 -7
    endloop
  endfacet
  facet normal 0 0 -1
    outer loop
      vertex 1.06744 -16.9665 -7
      vertex 1.06744 16.9665 -7
      vertex 3.18548 16.6989 -7
    endloop
  endfacet
  facet normal 0 0 -1
    outer loop
      vertex -1.06744 -16.9665 -7
      vertex 1.06744 16.9665 -7
      vertex 1.06744 -16.9665 -7
    endloop
  endfacet
  facet normal 0 0 -1
    outer loop
      vertex -1.06744 -16.9665 -7
      vertex -1.06744 16.9665 -7
      vertex 1.06744 16.9665 -7
    endloop
  endfacet
  facet normal 0 0 -1
    outer loop
      vertex -3.18548 -16.6989 -7
      vertex -1.06744 16.9665 -7
      vertex -1.06744 -16.9665 -7
    endloop
  endfacet
  facet normal 0 0 -1
    outer loop
      vertex -3.18548 -16.6989 -7
      vertex -3.18548 16.6989 -7
      vertex -1.06744 16.9665 -7
    endloop
  endfacet
  facet normal 0 0 -1
    outer loop
      vertex -5.25329 -16.168 -7
      vertex -3.18548 16.6989 -7
      vertex -3.18548 -16.6989 -7
    endloop
  endfacet
  facet normal 0 0 -1
    outer loop
      vertex -5.25329 -16.168 -7
      vertex -5.25329 16.168 -7
      vertex -3.18548 16.6989 -7
    endloop
  endfacet
  facet normal 0 0 -1
    outer loop
      vertex -7.23825 -15.3821 -7
      vertex -5.25329 16.168 -7
      vertex -5.25329 -16.168 -7
    endloop
  endfacet
  facet normal 0 0 -1
    outer loop
      vertex -7.23825 -15.3821 -7
      vertex -7.23825 15.3821 -7
      vertex -5.25329 16.168 -7
    endloop
  endfacet
  facet normal 0 0 -1
    outer loop
      vertex -9.10905 -14.3536 -7
      vertex -7.23825 15.3821 -7
      vertex -7.23825 -15.3821 -7
    endloop
  endfacet
  facet normal 0 0 -1
    outer loop
      vertex -9.10905 -14.3536 -7
      vertex -9.10905 14.3536 -7
      vertex -7.23825 15.3821 -7
    endloop
  endfacet
  facet normal 0 0 -1
    outer loop
      vertex -10.8362 -13.0987 -7
      vertex -9.10905 14.3536 -7
      vertex -9.10905 -14.3536 -7
    endloop
  endfacet
  facet normal 0 0 -1
    outer loop
      vertex -10.8362 -13.0987 -7
      vertex -10.8362 13.0987 -7
      vertex -9.10905 14.3536 -7
    endloop
  endfacet
  facet normal 0 0 -1
    outer loop
      vertex -12.3925 -11.6373 -7
      vertex -10.8362 13.0987 -7
      vertex -10.8362 -13.0987 -7
    endloop
  endfacet
  facet normal 0 0 -1
    outer loop
      vertex -12.3925 -11.6373 -7
      vertex -12.3925 11.6373 -7
      vertex -10.8362 13.0987 -7
    endloop
  endfacet
  facet normal 0 0 -1
    outer loop
      vertex -13.7533 -9.99235 -7
      vertex -12.3925 11.6373 -7
      vertex -12.3925 -11.6373 -7
    endloop
  endfacet
  facet normal 0 0 -1
    outer loop
      vertex -13.7533 -9.99235 -7
      vertex -13.7533 9.99235 -7
      vertex -12.3925 11.6373 -7
    endloop
  endfacet
  facet normal 0 0 -1
    outer loop
      vertex -14.8972 -8.18981 -7
      vertex -13.7533 9.99235 -7
      vertex -13.7533 -9.99235 -7
    endloop
  endfacet
  facet normal 0 0 -1
    outer loop
      vertex -14.8972 -8.18981 -7
      vertex -14.8972 8.18981 -7
      vertex -13.7533 9.99235 -7
    endloop
  endfacet
  facet normal 0 0 -1
    outer loop
      vertex -15.8062 -6.25812 -7
      vertex -14.8972 8.18981 -7
      vertex -14.8972 -8.18981 -7
    endloop
  endfacet
  facet normal 0 0 -1
    outer loop
      vertex -15.8062 -6.25812 -7
      vertex -15.8062 6.25812 -7
      vertex -14.8972 8.18981 -7
    endloop
  endfacet
  facet normal 0 0 -1
    outer loop
      vertex -16.4659 -4.22773 -7
      vertex -15.8062 6.25812 -7
      vertex -15.8062 -6.25812 -7
    endloop
  endfacet
  facet normal 0 0 -1
    outer loop
      vertex -16.4659 -4.22773 -7
      vertex -16.4659 4.22773 -7
      vertex -15.8062 6.25812 -7
    endloop
  endfacet
  facet normal 0 0 -1
    outer loop
      vertex -16.8659 -2.13066 -7
      vertex -16.4659 4.22773 -7
      vertex -16.4659 -4.22773 -7
    endloop
  endfacet
  facet normal 0 0 -1
    outer loop
      vertex -16.8659 -2.13066 -7
      vertex -16.8659 2.13066 -7
      vertex -16.4659 4.22773 -7
    endloop
  endfacet
  facet normal 0 -0 -1
    outer loop
      vertex -16.8659 2.13066 -7
      vertex -16.8659 -2.13066 -7
      vertex -17 0 -7
    endloop
  endfacet
  facet normal 0.125347 -0.992113 0
    outer loop
      vertex 1.06744 -16.9665 -7
      vertex 3.18548 -16.6989 0
      vertex 1.06744 -16.9665 0
    endloop
  endfacet
  facet normal 0.125347 -0.992113 0
    outer loop
      vertex 3.18548 -16.6989 0
      vertex 1.06744 -16.9665 -7
      vertex 3.18548 -16.6989 -7
    endloop
  endfacet
  facet normal 0.951058 0.309011 0
    outer loop
      vertex 16.4659 4.22773 0
      vertex 15.8062 6.25812 -7
      vertex 15.8062 6.25812 0
    endloop
  endfacet
  facet normal 0.951058 0.309011 0
    outer loop
      vertex 15.8062 6.25812 -7
      vertex 16.4659 4.22773 0
      vertex 16.4659 4.22773 -7
    endloop
  endfacet
  facet normal 0.98229 0.187364 0
    outer loop
      vertex 16.8659 2.13066 0
      vertex 16.4659 4.22773 -7
      vertex 16.4659 4.22773 0
    endloop
  endfacet
  facet normal 0.98229 0.187364 0
    outer loop
      vertex 16.4659 4.22773 -7
      vertex 16.8659 2.13066 0
      vertex 16.8659 2.13066 -7
    endloop
  endfacet
  facet normal 0.770518 0.637418 0
    outer loop
      vertex 13.7533 9.99235 0
      vertex 12.3925 11.6373 -7
      vertex 12.3925 11.6373 0
    endloop
  endfacet
  facet normal 0.770518 0.637418 0
    outer loop
      vertex 12.3925 11.6373 -7
      vertex 13.7533 9.99235 0
      vertex 13.7533 9.99235 -7
    endloop
  endfacet
  facet normal 0.844334 0.535818 0
    outer loop
      vertex 14.8972 8.18981 0
      vertex 13.7533 9.99235 -7
      vertex 13.7533 9.99235 0
    endloop
  endfacet
  facet normal 0.844334 0.535818 0
    outer loop
      vertex 13.7533 9.99235 -7
      vertex 14.8972 8.18981 0
      vertex 14.8972 8.18981 -7
    endloop
  endfacet
  facet normal 0.125347 0.992113 -0
    outer loop
      vertex 3.18548 16.6989 -7
      vertex 1.06744 16.9665 0
      vertex 3.18548 16.6989 0
    endloop
  endfacet
  facet normal 0.125347 0.992113 0
    outer loop
      vertex 1.06744 16.9665 0
      vertex 3.18548 16.6989 -7
      vertex 1.06744 16.9665 -7
    endloop
  endfacet
  facet normal 0.587801 0.809005 -0
    outer loop
      vertex 10.8362 13.0987 -7
      vertex 9.10905 14.3536 0
      vertex 10.8362 13.0987 0
    endloop
  endfacet
  facet normal 0.587801 0.809005 0
    outer loop
      vertex 9.10905 14.3536 0
      vertex 10.8362 13.0987 -7
      vertex 9.10905 14.3536 -7
    endloop
  endfacet
  facet normal -0.844334 0.535818 0
    outer loop
      vertex -14.8972 8.18981 -7
      vertex -13.7533 9.99235 0
      vertex -13.7533 9.99235 -7
    endloop
  endfacet
  facet normal -0.844334 0.535818 0
    outer loop
      vertex -13.7533 9.99235 0
      vertex -14.8972 8.18981 -7
      vertex -14.8972 8.18981 0
    endloop
  endfacet
  facet normal -0.770518 0.637418 0
    outer loop
      vertex -13.7533 9.99235 -7
      vertex -12.3925 11.6373 0
      vertex -12.3925 11.6373 -7
    endloop
  endfacet
  facet normal -0.770518 0.637418 0
    outer loop
      vertex -12.3925 11.6373 0
      vertex -13.7533 9.99235 -7
      vertex -13.7533 9.99235 0
    endloop
  endfacet
  facet normal -0.951058 0.309011 0
    outer loop
      vertex -16.4659 4.22773 -7
      vertex -15.8062 6.25812 0
      vertex -15.8062 6.25812 -7
    endloop
  endfacet
  facet normal -0.951058 0.309011 0
    outer loop
      vertex -15.8062 6.25812 0
      vertex -16.4659 4.22773 -7
      vertex -16.4659 4.22773 0
    endloop
  endfacet
  facet normal -0.98229 0.187364 0
    outer loop
      vertex -16.8659 2.13066 -7
      vertex -16.4659 4.22773 0
      vertex -16.4659 4.22773 -7
    endloop
  endfacet
  facet normal -0.98229 0.187364 0
    outer loop
      vertex -16.4659 4.22773 0
      vertex -16.8659 2.13066 -7
      vertex -16.8659 2.13066 0
    endloop
  endfacet
  facet normal -0.481761 0.876303 0
    outer loop
      vertex -7.23825 15.3821 -7
      vertex -9.10905 14.3536 0
      vertex -7.23825 15.3821 0
    endloop
  endfacet
  facet normal -0.481761 0.876303 0
    outer loop
      vertex -9.10905 14.3536 0
      vertex -7.23825 15.3821 -7
      vertex -9.10905 14.3536 -7
    endloop
  endfacet
  facet normal -0.587801 0.809005 0
    outer loop
      vertex -9.10905 14.3536 -7
      vertex -10.8362 13.0987 0
      vertex -9.10905 14.3536 0
    endloop
  endfacet
  facet normal -0.587801 0.809005 0
    outer loop
      vertex -10.8362 13.0987 0
      vertex -9.10905 14.3536 -7
      vertex -10.8362 13.0987 -7
    endloop
  endfacet
  facet normal -0.24868 0.968586 0
    outer loop
      vertex -3.18548 16.6989 -7
      vertex -5.25329 16.168 0
      vertex -3.18548 16.6989 0
    endloop
  endfacet
  facet normal -0.24868 0.968586 0
    outer loop
      vertex -5.25329 16.168 0
      vertex -3.18548 16.6989 -7
      vertex -5.25329 16.168 -7
    endloop
  endfacet
  facet normal 0.998025 -0.062814 0
    outer loop
      vertex 16.8659 -2.13066 0
      vertex 17 0 -7
      vertex 17 0 0
    endloop
  endfacet
  facet normal 0.998025 -0.062814 0
    outer loop
      vertex 17 0 -7
      vertex 16.8659 -2.13066 0
      vertex 16.8659 -2.13066 -7
    endloop
  endfacet
  facet normal 0.904824 -0.425785 0
    outer loop
      vertex 14.8972 -8.18981 0
      vertex 15.8062 -6.25812 -7
      vertex 15.8062 -6.25812 0
    endloop
  endfacet
  facet normal 0.904824 -0.425785 0
    outer loop
      vertex 15.8062 -6.25812 -7
      vertex 14.8972 -8.18981 0
      vertex 14.8972 -8.18981 -7
    endloop
  endfacet
  facet normal -0.684531 -0.728983 0
    outer loop
      vertex -12.3925 -11.6373 -7
      vertex -10.8362 -13.0987 0
      vertex -12.3925 -11.6373 0
    endloop
  endfacet
  facet normal -0.684531 -0.728983 -0
    outer loop
      vertex -10.8362 -13.0987 0
      vertex -12.3925 -11.6373 -7
      vertex -10.8362 -13.0987 -7
    endloop
  endfacet
  facet normal -0.904824 -0.425785 0
    outer loop
      vertex -14.8972 -8.18981 -7
      vertex -15.8062 -6.25812 0
      vertex -15.8062 -6.25812 -7
    endloop
  endfacet
  facet normal -0.904824 -0.425785 0
    outer loop
      vertex -15.8062 -6.25812 0
      vertex -14.8972 -8.18981 -7
      vertex -14.8972 -8.18981 0
    endloop
  endfacet
  facet normal -0.844334 -0.535818 0
    outer loop
      vertex -13.7533 -9.99235 -7
      vertex -14.8972 -8.18981 0
      vertex -14.8972 -8.18981 -7
    endloop
  endfacet
  facet normal -0.844334 -0.535818 0
    outer loop
      vertex -14.8972 -8.18981 0
      vertex -13.7533 -9.99235 -7
      vertex -13.7533 -9.99235 0
    endloop
  endfacet
  facet normal 0.481761 -0.876303 0
    outer loop
      vertex 7.23825 -15.3821 -7
      vertex 9.10905 -14.3536 0
      vertex 7.23825 -15.3821 0
    endloop
  endfacet
  facet normal 0.481761 -0.876303 0
    outer loop
      vertex 9.10905 -14.3536 0
      vertex 7.23825 -15.3821 -7
      vertex 9.10905 -14.3536 -7
    endloop
  endfacet
  facet normal 0.951058 -0.309011 0
    outer loop
      vertex 15.8062 -6.25812 0
      vertex 16.4659 -4.22773 -7
      vertex 16.4659 -4.22773 0
    endloop
  endfacet
  facet normal 0.951058 -0.309011 0
    outer loop
      vertex 16.4659 -4.22773 -7
      vertex 15.8062 -6.25812 0
      vertex 15.8062 -6.25812 -7
    endloop
  endfacet
  facet normal -0.770518 -0.637418 0
    outer loop
      vertex -12.3925 -11.6373 -7
      vertex -13.7533 -9.99235 0
      vertex -13.7533 -9.99235 -7
    endloop
  endfacet
  facet normal -0.770518 -0.637418 0
    outer loop
      vertex -13.7533 -9.99235 0
      vertex -12.3925 -11.6373 -7
      vertex -12.3925 -11.6373 0
    endloop
  endfacet
  facet normal -0.98229 -0.187364 0
    outer loop
      vertex -16.4659 -4.22773 -7
      vertex -16.8659 -2.13066 0
      vertex -16.8659 -2.13066 -7
    endloop
  endfacet
  facet normal -0.98229 -0.187364 0
    outer loop
      vertex -16.8659 -2.13066 0
      vertex -16.4659 -4.22773 -7
      vertex -16.4659 -4.22773 0
    endloop
  endfacet
  facet normal -0.998025 -0.062814 0
    outer loop
      vertex -16.8659 -2.13066 -7
      vertex -17 0 0
      vertex -17 0 -7
    endloop
  endfacet
  facet normal -0.998025 -0.062814 0
    outer loop
      vertex -17 0 0
      vertex -16.8659 -2.13066 -7
      vertex -16.8659 -2.13066 0
    endloop
  endfacet
  facet normal -0.951058 -0.309011 0
    outer loop
      vertex -15.8062 -6.25812 -7
      vertex -16.4659 -4.22773 0
      vertex -16.4659 -4.22773 -7
    endloop
  endfacet
  facet normal -0.951058 -0.309011 0
    outer loop
      vertex -16.4659 -4.22773 0
      vertex -15.8062 -6.25812 -7
      vertex -15.8062 -6.25812 0
    endloop
  endfacet
  facet normal 0.684531 -0.728983 0
    outer loop
      vertex 10.8362 -13.0987 -7
      vertex 12.3925 -11.6373 0
      vertex 10.8362 -13.0987 0
    endloop
  endfacet
  facet normal 0.684531 -0.728983 0
    outer loop
      vertex 12.3925 -11.6373 0
      vertex 10.8362 -13.0987 -7
      vertex 12.3925 -11.6373 -7
    endloop
  endfacet
  facet normal 0.368124 -0.929777 0
    outer loop
      vertex 5.25329 -16.168 -7
      vertex 7.23825 -15.3821 0
      vertex 5.25329 -16.168 0
    endloop
  endfacet
  facet normal 0.368124 -0.929777 0
    outer loop
      vertex 7.23825 -15.3821 0
      vertex 5.25329 -16.168 -7
      vertex 7.23825 -15.3821 -7
    endloop
  endfacet
  facet normal 0.24868 -0.968586 0
    outer loop
      vertex 3.18548 -16.6989 -7
      vertex 5.25329 -16.168 0
      vertex 3.18548 -16.6989 0
    endloop
  endfacet
  facet normal 0.24868 -0.968586 0
    outer loop
      vertex 5.25329 -16.168 0
      vertex 3.18548 -16.6989 -7
      vertex 5.25329 -16.168 -7
    endloop
  endfacet
  facet normal 0.844334 -0.535818 0
    outer loop
      vertex 13.7533 -9.99235 0
      vertex 14.8972 -8.18981 -7
      vertex 14.8972 -8.18981 0
    endloop
  endfacet
  facet normal 0.844334 -0.535818 0
    outer loop
      vertex 14.8972 -8.18981 -7
      vertex 13.7533 -9.99235 0
      vertex 13.7533 -9.99235 -7
    endloop
  endfacet
  facet normal 0.770518 -0.637418 0
    outer loop
      vertex 12.3925 -11.6373 0
      vertex 13.7533 -9.99235 -7
      vertex 13.7533 -9.99235 0
    endloop
  endfacet
  facet normal 0.770518 -0.637418 0
    outer loop
      vertex 13.7533 -9.99235 -7
      vertex 12.3925 -11.6373 0
      vertex 12.3925 -11.6373 -7
    endloop
  endfacet
  facet normal -0.125347 -0.992113 0
    outer loop
      vertex -3.18548 -16.6989 -7
      vertex -1.06744 -16.9665 0
      vertex -3.18548 -16.6989 0
    endloop
  endfacet
  facet normal -0.125347 -0.992113 -0
    outer loop
      vertex -1.06744 -16.9665 0
      vertex -3.18548 -16.6989 -7
      vertex -1.06744 -16.9665 -7
    endloop
  endfacet
  facet normal -0.368124 -0.929777 0
    outer loop
      vertex -7.23825 -15.3821 -7
      vertex -5.25329 -16.168 0
      vertex -7.23825 -15.3821 0
    endloop
  endfacet
  facet normal -0.368124 -0.929777 -0
    outer loop
      vertex -5.25329 -16.168 0
      vertex -7.23825 -15.3821 -7
      vertex -5.25329 -16.168 -7
    endloop
  endfacet
  facet normal -0.587801 -0.809005 0
    outer loop
      vertex -10.8362 -13.0987 -7
      vertex -9.10905 -14.3536 0
      vertex -10.8362 -13.0987 0
    endloop
  endfacet
  facet normal -0.587801 -0.809005 -0
    outer loop
      vertex -9.10905 -14.3536 0
      vertex -10.8362 -13.0987 -7
      vertex -9.10905 -14.3536 -7
    endloop
  endfacet
  facet normal 0.587801 -0.809005 0
    outer loop
      vertex 9.10905 -14.3536 -7
      vertex 10.8362 -13.0987 0
      vertex 9.10905 -14.3536 0
    endloop
  endfacet
  facet normal 0.587801 -0.809005 0
    outer loop
      vertex 10.8362 -13.0987 0
      vertex 9.10905 -14.3536 -7
      vertex 10.8362 -13.0987 -7
    endloop
  endfacet
  facet normal -0.24868 -0.968586 0
    outer loop
      vertex -5.25329 -16.168 -7
      vertex -3.18548 -16.6989 0
      vertex -5.25329 -16.168 0
    endloop
  endfacet
  facet normal -0.24868 -0.968586 -0
    outer loop
      vertex -3.18548 -16.6989 0
      vertex -5.25329 -16.168 -7
      vertex -3.18548 -16.6989 -7
    endloop
  endfacet
  facet normal -0.481761 -0.876303 0
    outer loop
      vertex -9.10905 -14.3536 -7
      vertex -7.23825 -15.3821 0
      vertex -9.10905 -14.3536 0
    endloop
  endfacet
  facet normal -0.481761 -0.876303 -0
    outer loop
      vertex -7.23825 -15.3821 0
      vertex -9.10905 -14.3536 -7
      vertex -7.23825 -15.3821 -7
    endloop
  endfacet
  facet normal -0.998028 -0.0627713 0
    outer loop
      vertex 11.1 0 -6
      vertex 11.0125 1.3912 0
      vertex 11.0125 1.3912 -6
    endloop
  endfacet
  facet normal -0.998028 -0.0627713 0
    outer loop
      vertex 11.0125 1.3912 0
      vertex 11.1 0 -6
      vertex 11.1 0 0
    endloop
  endfacet
  facet normal 0.998028 -0.0627713 0
    outer loop
      vertex -11.1 0 0
      vertex -11.0125 1.3912 -6
      vertex -11.0125 1.3912 0
    endloop
  endfacet
  facet normal 0.998028 -0.0627713 0
    outer loop
      vertex -11.0125 1.3912 -6
      vertex -11.1 0 0
      vertex -11.1 0 -6
    endloop
  endfacet
  facet normal 0 -1 0
    outer loop
      vertex -0.696975 11.0781 -6
      vertex 0.696975 11.0781 0
      vertex -0.696975 11.0781 0
    endloop
  endfacet
  facet normal 0 -1 -0
    outer loop
      vertex 0.696975 11.0781 0
      vertex -0.696975 11.0781 -6
      vertex 0.696975 11.0781 -6
    endloop
  endfacet
  facet normal -0.684551 -0.728965 0
    outer loop
      vertex 7.07541 8.5527 -6
      vertex 8.09155 7.59847 0
      vertex 7.07541 8.5527 0
    endloop
  endfacet
  facet normal -0.684551 -0.728965 -0
    outer loop
      vertex 8.09155 7.59847 0
      vertex 7.07541 8.5527 -6
      vertex 8.09155 7.59847 -6
    endloop
  endfacet
  facet normal 0.684551 -0.728965 0
    outer loop
      vertex -8.09155 7.59847 -6
      vertex -7.07541 8.5527 0
      vertex -8.09155 7.59847 0
    endloop
  endfacet
  facet normal 0.684551 -0.728965 0
    outer loop
      vertex -7.07541 8.5527 0
      vertex -8.09155 7.59847 -6
      vertex -7.07541 8.5527 -6
    endloop
  endfacet
  facet normal 0.368096 -0.929788 0
    outer loop
      vertex -4.72615 10.0436 -6
      vertex -3.43009 10.5567 0
      vertex -4.72615 10.0436 0
    endloop
  endfacet
  facet normal 0.368096 -0.929788 0
    outer loop
      vertex -3.43009 10.5567 0
      vertex -4.72615 10.0436 -6
      vertex -3.43009 10.5567 -6
    endloop
  endfacet
  facet normal -0.904832 -0.425769 0
    outer loop
      vertex 10.3205 4.08618 -6
      vertex 9.727 5.34747 0
      vertex 9.727 5.34747 -6
    endloop
  endfacet
  facet normal -0.904832 -0.425769 0
    outer loop
      vertex 9.727 5.34747 0
      vertex 10.3205 4.08618 -6
      vertex 10.3205 4.08618 0
    endloop
  endfacet
  facet normal -0.84433 -0.535824 0
    outer loop
      vertex 9.727 5.34747 -6
      vertex 8.98009 6.52442 0
      vertex 8.98009 6.52442 -6
    endloop
  endfacet
  facet normal -0.84433 -0.535824 0
    outer loop
      vertex 8.98009 6.52442 0
      vertex 9.727 5.34747 -6
      vertex 9.727 5.34747 0
    endloop
  endfacet
  facet normal -0.368096 -0.929788 0
    outer loop
      vertex 3.43009 10.5567 -6
      vertex 4.72615 10.0436 0
      vertex 3.43009 10.5567 0
    endloop
  endfacet
  facet normal -0.368096 -0.929788 -0
    outer loop
      vertex 4.72615 10.0436 0
      vertex 3.43009 10.5567 -6
      vertex 4.72615 10.0436 -6
    endloop
  endfacet
  facet normal -0.248715 -0.968577 0
    outer loop
      vertex 2.07993 10.9034 -6
      vertex 3.43009 10.5567 0
      vertex 2.07993 10.9034 0
    endloop
  endfacet
  facet normal -0.248715 -0.968577 -0
    outer loop
      vertex 3.43009 10.5567 0
      vertex 2.07993 10.9034 -6
      vertex 3.43009 10.5567 -6
    endloop
  endfacet
  facet normal -0.587783 -0.809018 0
    outer loop
      vertex 5.94768 9.37204 -6
      vertex 7.07541 8.5527 0
      vertex 5.94768 9.37204 0
    endloop
  endfacet
  facet normal -0.587783 -0.809018 -0
    outer loop
      vertex 7.07541 8.5527 0
      vertex 5.94768 9.37204 -6
      vertex 7.07541 8.5527 -6
    endloop
  endfacet
  facet normal 0.904832 -0.425769 0
    outer loop
      vertex -10.3205 4.08618 0
      vertex -9.727 5.34747 -6
      vertex -9.727 5.34747 0
    endloop
  endfacet
  facet normal 0.904832 -0.425769 0
    outer loop
      vertex -9.727 5.34747 -6
      vertex -10.3205 4.08618 0
      vertex -10.3205 4.08618 -6
    endloop
  endfacet
  facet normal 0.84433 -0.535824 0
    outer loop
      vertex -9.727 5.34747 0
      vertex -8.98009 6.52442 -6
      vertex -8.98009 6.52442 0
    endloop
  endfacet
  facet normal 0.84433 -0.535824 0
    outer loop
      vertex -8.98009 6.52442 -6
      vertex -9.727 5.34747 0
      vertex -9.727 5.34747 -6
    endloop
  endfacet
  facet normal 0.982287 -0.187381 0
    outer loop
      vertex -11.0125 1.3912 0
      vertex -10.7513 2.76046 -6
      vertex -10.7513 2.76046 0
    endloop
  endfacet
  facet normal 0.982287 -0.187381 0
    outer loop
      vertex -10.7513 2.76046 -6
      vertex -11.0125 1.3912 0
      vertex -11.0125 1.3912 -6
    endloop
  endfacet
  facet normal 0.481764 -0.876301 0
    outer loop
      vertex -5.94768 9.37204 -6
      vertex -4.72615 10.0436 0
      vertex -5.94768 9.37204 0
    endloop
  endfacet
  facet normal 0.481764 -0.876301 0
    outer loop
      vertex -4.72615 10.0436 0
      vertex -5.94768 9.37204 -6
      vertex -4.72615 10.0436 -6
    endloop
  endfacet
  facet normal 0.125328 -0.992115 0
    outer loop
      vertex -2.07993 10.9034 -6
      vertex -0.696975 11.0781 0
      vertex -2.07993 10.9034 0
    endloop
  endfacet
  facet normal 0.125328 -0.992115 0
    outer loop
      vertex -0.696975 11.0781 0
      vertex -2.07993 10.9034 -6
      vertex -0.696975 11.0781 -6
    endloop
  endfacet
  facet normal 0.248715 0.968577 -0
    outer loop
      vertex -2.07993 -10.9034 -6
      vertex -3.43009 -10.5567 0
      vertex -2.07993 -10.9034 0
    endloop
  endfacet
  facet normal 0.248715 0.968577 0
    outer loop
      vertex -3.43009 -10.5567 0
      vertex -2.07993 -10.9034 -6
      vertex -3.43009 -10.5567 -6
    endloop
  endfacet
  facet normal 0.904832 0.425769 0
    outer loop
      vertex -9.727 -5.34747 0
      vertex -10.3205 -4.08618 -6
      vertex -10.3205 -4.08618 0
    endloop
  endfacet
  facet normal 0.904832 0.425769 0
    outer loop
      vertex -10.3205 -4.08618 -6
      vertex -9.727 -5.34747 0
      vertex -9.727 -5.34747 -6
    endloop
  endfacet
  facet normal -0.125328 0.992115 0
    outer loop
      vertex 2.07993 -10.9034 -6
      vertex 0.696975 -11.0781 0
      vertex 2.07993 -10.9034 0
    endloop
  endfacet
  facet normal -0.125328 0.992115 0
    outer loop
      vertex 0.696975 -11.0781 0
      vertex 2.07993 -10.9034 -6
      vertex 0.696975 -11.0781 -6
    endloop
  endfacet
  facet normal -0.951047 -0.309048 0
    outer loop
      vertex 10.7513 2.76046 -6
      vertex 10.3205 4.08618 0
      vertex 10.3205 4.08618 -6
    endloop
  endfacet
  facet normal -0.951047 -0.309048 0
    outer loop
      vertex 10.3205 4.08618 0
      vertex 10.7513 2.76046 -6
      vertex 10.7513 2.76046 0
    endloop
  endfacet
  facet normal -0.982287 -0.187381 0
    outer loop
      vertex 11.0125 1.3912 -6
      vertex 10.7513 2.76046 0
      vertex 10.7513 2.76046 -6
    endloop
  endfacet
  facet normal -0.982287 -0.187381 0
    outer loop
      vertex 10.7513 2.76046 0
      vertex 11.0125 1.3912 -6
      vertex 11.0125 1.3912 0
    endloop
  endfacet
  facet normal -0.77051 -0.637428 0
    outer loop
      vertex 8.98009 6.52442 -6
      vertex 8.09155 7.59847 0
      vertex 8.09155 7.59847 -6
    endloop
  endfacet
  facet normal -0.77051 -0.637428 0
    outer loop
      vertex 8.09155 7.59847 0
      vertex 8.98009 6.52442 -6
      vertex 8.98009 6.52442 0
    endloop
  endfacet
  facet normal -0.125328 -0.992115 0
    outer loop
      vertex 0.696975 11.0781 -6
      vertex 2.07993 10.9034 0
      vertex 0.696975 11.0781 0
    endloop
  endfacet
  facet normal -0.125328 -0.992115 -0
    outer loop
      vertex 2.07993 10.9034 0
      vertex 0.696975 11.0781 -6
      vertex 2.07993 10.9034 -6
    endloop
  endfacet
  facet normal -0.481764 -0.876301 0
    outer loop
      vertex 4.72615 10.0436 -6
      vertex 5.94768 9.37204 0
      vertex 4.72615 10.0436 0
    endloop
  endfacet
  facet normal -0.481764 -0.876301 -0
    outer loop
      vertex 5.94768 9.37204 0
      vertex 4.72615 10.0436 -6
      vertex 5.94768 9.37204 -6
    endloop
  endfacet
  facet normal 0.587783 -0.809018 0
    outer loop
      vertex -7.07541 8.5527 -6
      vertex -5.94768 9.37204 0
      vertex -7.07541 8.5527 0
    endloop
  endfacet
  facet normal 0.587783 -0.809018 0
    outer loop
      vertex -5.94768 9.37204 0
      vertex -7.07541 8.5527 -6
      vertex -5.94768 9.37204 -6
    endloop
  endfacet
  facet normal 0.248715 -0.968577 0
    outer loop
      vertex -3.43009 10.5567 -6
      vertex -2.07993 10.9034 0
      vertex -3.43009 10.5567 0
    endloop
  endfacet
  facet normal 0.248715 -0.968577 0
    outer loop
      vertex -2.07993 10.9034 0
      vertex -3.43009 10.5567 -6
      vertex -2.07993 10.9034 -6
    endloop
  endfacet
  facet normal -0.982287 0.187381 0
    outer loop
      vertex 10.7513 -2.76046 -6
      vertex 11.0125 -1.3912 0
      vertex 11.0125 -1.3912 -6
    endloop
  endfacet
  facet normal -0.982287 0.187381 0
    outer loop
      vertex 11.0125 -1.3912 0
      vertex 10.7513 -2.76046 -6
      vertex 10.7513 -2.76046 0
    endloop
  endfacet
  facet normal -0.998028 0.0627713 0
    outer loop
      vertex 11.0125 -1.3912 -6
      vertex 11.1 0 0
      vertex 11.1 0 -6
    endloop
  endfacet
  facet normal -0.998028 0.0627713 0
    outer loop
      vertex 11.1 0 0
      vertex 11.0125 -1.3912 -6
      vertex 11.0125 -1.3912 0
    endloop
  endfacet
  facet normal -0.904832 0.425769 0
    outer loop
      vertex 9.727 -5.34747 -6
      vertex 10.3205 -4.08618 0
      vertex 10.3205 -4.08618 -6
    endloop
  endfacet
  facet normal -0.904832 0.425769 0
    outer loop
      vertex 10.3205 -4.08618 0
      vertex 9.727 -5.34747 -6
      vertex 9.727 -5.34747 0
    endloop
  endfacet
  facet normal 0.125328 0.992115 -0
    outer loop
      vertex -0.696975 -11.0781 -6
      vertex -2.07993 -10.9034 0
      vertex -0.696975 -11.0781 0
    endloop
  endfacet
  facet normal 0.125328 0.992115 0
    outer loop
      vertex -2.07993 -10.9034 0
      vertex -0.696975 -11.0781 -6
      vertex -2.07993 -10.9034 -6
    endloop
  endfacet
  facet normal 0.84433 0.535824 0
    outer loop
      vertex -8.98009 -6.52442 0
      vertex -9.727 -5.34747 -6
      vertex -9.727 -5.34747 0
    endloop
  endfacet
  facet normal 0.84433 0.535824 0
    outer loop
      vertex -9.727 -5.34747 -6
      vertex -8.98009 -6.52442 0
      vertex -8.98009 -6.52442 -6
    endloop
  endfacet
  facet normal 0.998028 0.0627713 0
    outer loop
      vertex -11.0125 -1.3912 0
      vertex -11.1 0 -6
      vertex -11.1 0 0
    endloop
  endfacet
  facet normal 0.998028 0.0627713 0
    outer loop
      vertex -11.1 0 -6
      vertex -11.0125 -1.3912 0
      vertex -11.0125 -1.3912 -6
    endloop
  endfacet
  facet normal -0.368096 0.929788 0
    outer loop
      vertex 4.72615 -10.0436 -6
      vertex 3.43009 -10.5567 0
      vertex 4.72615 -10.0436 0
    endloop
  endfacet
  facet normal -0.368096 0.929788 0
    outer loop
      vertex 3.43009 -10.5567 0
      vertex 4.72615 -10.0436 -6
      vertex 3.43009 -10.5567 -6
    endloop
  endfacet
  facet normal -0.248715 0.968577 0
    outer loop
      vertex 3.43009 -10.5567 -6
      vertex 2.07993 -10.9034 0
      vertex 3.43009 -10.5567 0
    endloop
  endfacet
  facet normal -0.248715 0.968577 0
    outer loop
      vertex 2.07993 -10.9034 0
      vertex 3.43009 -10.5567 -6
      vertex 2.07993 -10.9034 -6
    endloop
  endfacet
  facet normal 0.77051 -0.637428 0
    outer loop
      vertex -8.98009 6.52442 0
      vertex -8.09155 7.59847 -6
      vertex -8.09155 7.59847 0
    endloop
  endfacet
  facet normal 0.77051 -0.637428 0
    outer loop
      vertex -8.09155 7.59847 -6
      vertex -8.98009 6.52442 0
      vertex -8.98009 6.52442 -6
    endloop
  endfacet
  facet normal 0.951047 -0.309048 0
    outer loop
      vertex -10.7513 2.76046 0
      vertex -10.3205 4.08618 -6
      vertex -10.3205 4.08618 0
    endloop
  endfacet
  facet normal 0.951047 -0.309048 0
    outer loop
      vertex -10.3205 4.08618 -6
      vertex -10.7513 2.76046 0
      vertex -10.7513 2.76046 -6
    endloop
  endfacet
  facet normal -0.84433 0.535824 0
    outer loop
      vertex 8.98009 -6.52442 -6
      vertex 9.727 -5.34747 0
      vertex 9.727 -5.34747 -6
    endloop
  endfacet
  facet normal -0.84433 0.535824 0
    outer loop
      vertex 9.727 -5.34747 0
      vertex 8.98009 -6.52442 -6
      vertex 8.98009 -6.52442 0
    endloop
  endfacet
  facet normal -0.481764 0.876301 0
    outer loop
      vertex 5.94768 -9.37204 -6
      vertex 4.72615 -10.0436 0
      vertex 5.94768 -9.37204 0
    endloop
  endfacet
  facet normal -0.481764 0.876301 0
    outer loop
      vertex 4.72615 -10.0436 0
      vertex 5.94768 -9.37204 -6
      vertex 4.72615 -10.0436 -6
    endloop
  endfacet
  facet normal 0.368096 0.929788 -0
    outer loop
      vertex -3.43009 -10.5567 -6
      vertex -4.72615 -10.0436 0
      vertex -3.43009 -10.5567 0
    endloop
  endfacet
  facet normal 0.368096 0.929788 0
    outer loop
      vertex -4.72615 -10.0436 0
      vertex -3.43009 -10.5567 -6
      vertex -4.72615 -10.0436 -6
    endloop
  endfacet
  facet normal 0.77051 0.637428 0
    outer loop
      vertex -8.09155 -7.59847 0
      vertex -8.98009 -6.52442 -6
      vertex -8.98009 -6.52442 0
    endloop
  endfacet
  facet normal 0.77051 0.637428 0
    outer loop
      vertex -8.98009 -6.52442 -6
      vertex -8.09155 -7.59847 0
      vertex -8.09155 -7.59847 -6
    endloop
  endfacet
  facet normal -0.951047 0.309048 0
    outer loop
      vertex 10.3205 -4.08618 -6
      vertex 10.7513 -2.76046 0
      vertex 10.7513 -2.76046 -6
    endloop
  endfacet
  facet normal -0.951047 0.309048 0
    outer loop
      vertex 10.7513 -2.76046 0
      vertex 10.3205 -4.08618 -6
      vertex 10.3205 -4.08618 0
    endloop
  endfacet
  facet normal -0.587783 0.809018 0
    outer loop
      vertex 7.07541 -8.5527 -6
      vertex 5.94768 -9.37204 0
      vertex 7.07541 -8.5527 0
    endloop
  endfacet
  facet normal -0.587783 0.809018 0
    outer loop
      vertex 5.94768 -9.37204 0
      vertex 7.07541 -8.5527 -6
      vertex 5.94768 -9.37204 -6
    endloop
  endfacet
  facet normal 0 1 -0
    outer loop
      vertex 0.696975 -11.0781 -6
      vertex -0.696975 -11.0781 0
      vertex 0.696975 -11.0781 0
    endloop
  endfacet
  facet normal 0 1 0
    outer loop
      vertex -0.696975 -11.0781 0
      vertex 0.696975 -11.0781 -6
      vertex -0.696975 -11.0781 -6
    endloop
  endfacet
  facet normal 0.684551 0.728965 -0
    outer loop
      vertex -7.07541 -8.5527 -6
      vertex -8.09155 -7.59847 0
      vertex -7.07541 -8.5527 0
    endloop
  endfacet
  facet normal 0.684551 0.728965 0
    outer loop
      vertex -8.09155 -7.59847 0
      vertex -7.07541 -8.5527 -6
      vertex -8.09155 -7.59847 -6
    endloop
  endfacet
  facet normal 0.951047 0.309048 0
    outer loop
      vertex -10.3205 -4.08618 0
      vertex -10.7513 -2.76046 -6
      vertex -10.7513 -2.76046 0
    endloop
  endfacet
  facet normal 0.951047 0.309048 0
    outer loop
      vertex -10.7513 -2.76046 -6
      vertex -10.3205 -4.08618 0
      vertex -10.3205 -4.08618 -6
    endloop
  endfacet
  facet normal 0 0 1
    outer loop
      vertex 11.0125 1.3912 -6
      vertex 11.0125 -1.3912 -6
      vertex 11.1 0 -6
    endloop
  endfacet
  facet normal 0 0 1
    outer loop
      vertex 10.7513 2.76046 -6
      vertex 11.0125 -1.3912 -6
      vertex 11.0125 1.3912 -6
    endloop
  endfacet
  facet normal 0 0 1
    outer loop
      vertex 10.7513 2.76046 -6
      vertex 10.7513 -2.76046 -6
      vertex 11.0125 -1.3912 -6
    endloop
  endfacet
  facet normal 0 0 1
    outer loop
      vertex 10.3205 4.08618 -6
      vertex 10.7513 -2.76046 -6
      vertex 10.7513 2.76046 -6
    endloop
  endfacet
  facet normal 0 0 1
    outer loop
      vertex 10.3205 4.08618 -6
      vertex 10.3205 -4.08618 -6
      vertex 10.7513 -2.76046 -6
    endloop
  endfacet
  facet normal 0 0 1
    outer loop
      vertex 9.727 5.34747 -6
      vertex 10.3205 -4.08618 -6
      vertex 10.3205 4.08618 -6
    endloop
  endfacet
  facet normal 0 0 1
    outer loop
      vertex 9.727 5.34747 -6
      vertex 9.727 -5.34747 -6
      vertex 10.3205 -4.08618 -6
    endloop
  endfacet
  facet normal 0 0 1
    outer loop
      vertex 8.98009 6.52442 -6
      vertex 9.727 -5.34747 -6
      vertex 9.727 5.34747 -6
    endloop
  endfacet
  facet normal 0 0 1
    outer loop
      vertex 8.98009 6.52442 -6
      vertex 8.98009 -6.52442 -6
      vertex 9.727 -5.34747 -6
    endloop
  endfacet
  facet normal 0 0 1
    outer loop
      vertex 8.09155 7.59847 -6
      vertex 8.98009 -6.52442 -6
      vertex 8.98009 6.52442 -6
    endloop
  endfacet
  facet normal 0 0 1
    outer loop
      vertex 8.09155 7.59847 -6
      vertex 8.09155 -7.59847 -6
      vertex 8.98009 -6.52442 -6
    endloop
  endfacet
  facet normal 0 0 1
    outer loop
      vertex 7.07541 8.5527 -6
      vertex 8.09155 -7.59847 -6
      vertex 8.09155 7.59847 -6
    endloop
  endfacet
  facet normal 0 0 1
    outer loop
      vertex 7.07541 8.5527 -6
      vertex 7.07541 -8.5527 -6
      vertex 8.09155 -7.59847 -6
    endloop
  endfacet
  facet normal 0 0 1
    outer loop
      vertex 5.94768 9.37204 -6
      vertex 7.07541 -8.5527 -6
      vertex 7.07541 8.5527 -6
    endloop
  endfacet
  facet normal 0 0 1
    outer loop
      vertex 5.94768 9.37204 -6
      vertex 5.94768 -9.37204 -6
      vertex 7.07541 -8.5527 -6
    endloop
  endfacet
  facet normal 0 0 1
    outer loop
      vertex 4.72615 10.0436 -6
      vertex 5.94768 -9.37204 -6
      vertex 5.94768 9.37204 -6
    endloop
  endfacet
  facet normal 0 0 1
    outer loop
      vertex 4.72615 10.0436 -6
      vertex 4.72615 -10.0436 -6
      vertex 5.94768 -9.37204 -6
    endloop
  endfacet
  facet normal 0 0 1
    outer loop
      vertex 3.43009 10.5567 -6
      vertex 4.72615 -10.0436 -6
      vertex 4.72615 10.0436 -6
    endloop
  endfacet
  facet normal 0 0 1
    outer loop
      vertex 3.43009 10.5567 -6
      vertex 3.43009 -10.5567 -6
      vertex 4.72615 -10.0436 -6
    endloop
  endfacet
  facet normal 0 0 1
    outer loop
      vertex 2.07993 10.9034 -6
      vertex 3.43009 -10.5567 -6
      vertex 3.43009 10.5567 -6
    endloop
  endfacet
  facet normal 0 0 1
    outer loop
      vertex 2.07993 10.9034 -6
      vertex 2.07993 -10.9034 -6
      vertex 3.43009 -10.5567 -6
    endloop
  endfacet
  facet normal 0 0 1
    outer loop
      vertex 0.696975 11.0781 -6
      vertex 2.07993 -10.9034 -6
      vertex 2.07993 10.9034 -6
    endloop
  endfacet
  facet normal 0 0 1
    outer loop
      vertex 0.696975 11.0781 -6
      vertex 0.696975 -11.0781 -6
      vertex 2.07993 -10.9034 -6
    endloop
  endfacet
  facet normal -0 0 1
    outer loop
      vertex -0.696975 11.0781 -6
      vertex 0.696975 -11.0781 -6
      vertex 0.696975 11.0781 -6
    endloop
  endfacet
  facet normal 0 0 1
    outer loop
      vertex -0.696975 11.0781 -6
      vertex -0.696975 -11.0781 -6
      vertex 0.696975 -11.0781 -6
    endloop
  endfacet
  facet normal -0 0 1
    outer loop
      vertex -2.07993 10.9034 -6
      vertex -0.696975 -11.0781 -6
      vertex -0.696975 11.0781 -6
    endloop
  endfacet
  facet normal 0 0 1
    outer loop
      vertex -2.07993 10.9034 -6
      vertex -2.07993 -10.9034 -6
      vertex -0.696975 -11.0781 -6
    endloop
  endfacet
  facet normal -0 0 1
    outer loop
      vertex -3.43009 10.5567 -6
      vertex -2.07993 -10.9034 -6
      vertex -2.07993 10.9034 -6
    endloop
  endfacet
  facet normal 0 0 1
    outer loop
      vertex -3.43009 10.5567 -6
      vertex -3.43009 -10.5567 -6
      vertex -2.07993 -10.9034 -6
    endloop
  endfacet
  facet normal -0 0 1
    outer loop
      vertex -4.72615 10.0436 -6
      vertex -3.43009 -10.5567 -6
      vertex -3.43009 10.5567 -6
    endloop
  endfacet
  facet normal 0 0 1
    outer loop
      vertex -4.72615 10.0436 -6
      vertex -4.72615 -10.0436 -6
      vertex -3.43009 -10.5567 -6
    endloop
  endfacet
  facet normal -0 0 1
    outer loop
      vertex -5.94768 9.37204 -6
      vertex -4.72615 -10.0436 -6
      vertex -4.72615 10.0436 -6
    endloop
  endfacet
  facet normal 0 0 1
    outer loop
      vertex -5.94768 9.37204 -6
      vertex -5.94768 -9.37204 -6
      vertex -4.72615 -10.0436 -6
    endloop
  endfacet
  facet normal -0 0 1
    outer loop
      vertex -7.07541 8.5527 -6
      vertex -5.94768 -9.37204 -6
      vertex -5.94768 9.37204 -6
    endloop
  endfacet
  facet normal 0 0 1
    outer loop
      vertex -7.07541 8.5527 -6
      vertex -7.07541 -8.5527 -6
      vertex -5.94768 -9.37204 -6
    endloop
  endfacet
  facet normal -0 0 1
    outer loop
      vertex -8.09155 7.59847 -6
      vertex -7.07541 -8.5527 -6
      vertex -7.07541 8.5527 -6
    endloop
  endfacet
  facet normal 0 0 1
    outer loop
      vertex -8.09155 7.59847 -6
      vertex -8.09155 -7.59847 -6
      vertex -7.07541 -8.5527 -6
    endloop
  endfacet
  facet normal -0 0 1
    outer loop
      vertex -8.98009 6.52442 -6
      vertex -8.09155 -7.59847 -6
      vertex -8.09155 7.59847 -6
    endloop
  endfacet
  facet normal 0 0 1
    outer loop
      vertex -8.98009 6.52442 -6
      vertex -8.98009 -6.52442 -6
      vertex -8.09155 -7.59847 -6
    endloop
  endfacet
  facet normal -0 0 1
    outer loop
      vertex -9.727 5.34747 -6
      vertex -8.98009 -6.52442 -6
      vertex -8.98009 6.52442 -6
    endloop
  endfacet
  facet normal 0 0 1
    outer loop
      vertex -9.727 5.34747 -6
      vertex -9.727 -5.34747 -6
      vertex -8.98009 -6.52442 -6
    endloop
  endfacet
  facet normal -0 0 1
    outer loop
      vertex -10.3205 4.08618 -6
      vertex -9.727 -5.34747 -6
      vertex -9.727 5.34747 -6
    endloop
  endfacet
  facet normal 0 0 1
    outer loop
      vertex -10.3205 4.08618 -6
      vertex -10.3205 -4.08618 -6
      vertex -9.727 -5.34747 -6
    endloop
  endfacet
  facet normal -0 0 1
    outer loop
      vertex -10.7513 2.76046 -6
      vertex -10.3205 -4.08618 -6
      vertex -10.3205 4.08618 -6
    endloop
  endfacet
  facet normal 0 0 1
    outer loop
      vertex -10.7513 2.76046 -6
      vertex -10.7513 -2.76046 -6
      vertex -10.3205 -4.08618 -6
    endloop
  endfacet
  facet normal -0 0 1
    outer loop
      vertex -11.0125 1.3912 -6
      vertex -10.7513 -2.76046 -6
      vertex -10.7513 2.76046 -6
    endloop
  endfacet
  facet normal 0 0 1
    outer loop
      vertex -11.0125 1.3912 -6
      vertex -11.0125 -1.3912 -6
      vertex -10.7513 -2.76046 -6
    endloop
  endfacet
  facet normal 0 -0 1
    outer loop
      vertex -11.0125 -1.3912 -6
      vertex -11.0125 1.3912 -6
      vertex -11.1 0 -6
    endloop
  endfacet
  facet normal 0.982287 0.187381 0
    outer loop
      vertex -10.7513 -2.76046 0
      vertex -11.0125 -1.3912 -6
      vertex -11.0125 -1.3912 0
    endloop
  endfacet
  facet normal 0.982287 0.187381 0
    outer loop
      vertex -11.0125 -1.3912 -6
      vertex -10.7513 -2.76046 0
      vertex -10.7513 -2.76046 -6
    endloop
  endfacet
  facet normal -0.77051 0.637428 0
    outer loop
      vertex 8.09155 -7.59847 -6
      vertex 8.98009 -6.52442 0
      vertex 8.98009 -6.52442 -6
    endloop
  endfacet
  facet normal -0.77051 0.637428 0
    outer loop
      vertex 8.98009 -6.52442 0
      vertex 8.09155 -7.59847 -6
      vertex 8.09155 -7.59847 0
    endloop
  endfacet
  facet normal -0.684551 0.728965 0
    outer loop
      vertex 8.09155 -7.59847 -6
      vertex 7.07541 -8.5527 0
      vertex 8.09155 -7.59847 0
    endloop
  endfacet
  facet normal -0.684551 0.728965 0
    outer loop
      vertex 7.07541 -8.5527 0
      vertex 8.09155 -7.59847 -6
      vertex 7.07541 -8.5527 -6
    endloop
  endfacet
  facet normal 0.587783 0.809018 -0
    outer loop
      vertex -5.94768 -9.37204 -6
      vertex -7.07541 -8.5527 0
      vertex -5.94768 -9.37204 0
    endloop
  endfacet
  facet normal 0.587783 0.809018 0
    outer loop
      vertex -7.07541 -8.5527 0
      vertex -5.94768 -9.37204 -6
      vertex -7.07541 -8.5527 -6
    endloop
  endfacet
  facet normal 0.481764 0.876301 -0
    outer loop
      vertex -4.72615 -10.0436 -6
      vertex -5.94768 -9.37204 0
      vertex -4.72615 -10.0436 0
    endloop
  endfacet
  facet normal 0.481764 0.876301 0
    outer loop
      vertex -5.94768 -9.37204 0
      vertex -4.72615 -10.0436 -6
      vertex -5.94768 -9.37204 -6
    endloop
  endfacet
endsolid OpenSCAD_Model
