<?xml version="1.0" standalone="no"?>
<!DOCTYPE svg PUBLIC "-//W3C//DTD SVG 1.1//EN" "http://www.w3.org/Graphics/SVG/1.1/DTD/svg11.dtd">
<svg width="36mm" height="124mm" viewBox="-18 -114 36 124" xmlns="http://www.w3.org/2000/svg" version="1.1">
<title>OpenSCAD Model</title>
<path d="
M 1.87381,-38.1771 L 3.09016,-38.4894 L 4.25778,-38.9517 L 5.35826,-39.5567 L 6.37424,-40.2949 L 7.28967,-41.1545
 L 8.09016,-42.1222 L 8.76306,-43.1825 L 9.29776,-44.3188 L 9.68582,-45.5131 L 9.92114,-46.7467 L 10,-48
 L 9.92114,-49.2533 L 9.68582,-50.4869 L 9.29776,-51.6812 L 8.76306,-52.8175 L 8.09016,-53.8778 L 7.28967,-54.8455
 L 6.37424,-55.7051 L 6.34392,-55.7272 L 7.45113,-56.1655 L 9.37697,-57.2243 L 11.1549,-58.516 L 12.7569,-60.0204
 L 14.1578,-61.7138 L 15.3354,-63.5693 L 16.2711,-65.5578 L 16.9502,-67.6479 L 17.362,-69.8067 L 17.5,-72
 L 17.362,-74.1933 L 16.9502,-76.3521 L 16.2711,-78.4422 L 15.3354,-80.4307 L 14.1578,-82.2862 L 12.7569,-83.9796
 L 12.7352,-84 L 12.7569,-84.0204 L 14.1578,-85.7138 L 15.3354,-87.5693 L 16.2711,-89.5578 L 16.9502,-91.6479
 L 17.362,-93.8067 L 17.5,-96 L 17.362,-98.1933 L 16.9502,-100.352 L 16.2711,-102.442 L 15.3354,-104.431
 L 14.1578,-106.286 L 12.7569,-107.98 L 11.1549,-109.484 L 9.37697,-110.776 L 7.45113,-111.834 L 5.40779,-112.643
 L 3.27916,-113.19 L 1.09883,-113.465 L -1.09883,-113.465 L -3.27916,-113.19 L -5.40779,-112.643 L -7.45113,-111.834
 L -9.37697,-110.776 L -11.1549,-109.484 L -12.7569,-107.98 L -14.1578,-106.286 L -15.3354,-104.431 L -16.2711,-102.442
 L -16.9502,-100.352 L -17.362,-98.1933 L -17.5,-96 L -17.362,-93.8067 L -16.9502,-91.6479 L -16.2711,-89.5578
 L -15.3354,-87.5693 L -14.1578,-85.7138 L -12.7569,-84.0204 L -12.7352,-84 L -12.7569,-83.9796 L -14.1578,-82.2862
 L -15.3354,-80.4307 L -16.2711,-78.4422 L -16.9502,-76.3521 L -17.362,-74.1933 L -17.5,-72 L -17.362,-69.8067
 L -16.9502,-67.6479 L -16.2711,-65.5578 L -15.3354,-63.5693 L -14.1578,-61.7138 L -12.7569,-60.0204 L -11.1549,-58.516
 L -9.37697,-57.2243 L -7.45113,-56.1655 L -6.34392,-55.7272 L -6.37424,-55.7051 L -7.28967,-54.8455 L -8.09016,-53.8778
 L -8.76306,-52.8175 L -9.29776,-51.6812 L -9.68582,-50.4869 L -9.92114,-49.2533 L -10,-48 L -9.92114,-46.7467
 L -9.68582,-45.5131 L -9.29776,-44.3188 L -8.76306,-43.1825 L -8.09016,-42.1222 L -7.28967,-41.1545 L -6.37424,-40.2949
 L -5.35826,-39.5567 L -4.25778,-38.9517 L -3.09016,-38.4894 L -1.87381,-38.1771 L -0.627899,-38.0197 L 0.627899,-38.0197
 z
M -3.19464,-98.1023 L -3.58087,-98.1511 L -3.95795,-98.2479 L -4.3199,-98.3912 L -4.66106,-98.5787 L -4.97601,-98.8076
 L -5.2598,-99.0741 L -5.50795,-99.374 L -5.71654,-99.7027 L -5.88229,-100.055 L -6.00259,-100.425 L -6.07555,-100.808
 L -6.09999,-101.196 L -6.07555,-101.585 L -6.00259,-101.967 L -5.88229,-102.337 L -5.71654,-102.69 L -5.50795,-103.018
 L -5.2598,-103.318 L -4.97601,-103.585 L -4.66106,-103.814 L -4.3199,-104.001 L -3.95795,-104.144 L -3.58087,-104.241
 L -3.19464,-104.29 L -2.80534,-104.29 L -2.41911,-104.241 L -2.04204,-104.144 L -1.68008,-104.001 L -1.33893,-103.814
 L -1.02397,-103.585 L -0.740189,-103.318 L -0.492035,-103.018 L -0.283447,-102.69 L -0.117691,-102.337 L 0.00259399,-101.967
 L 0.0755463,-101.585 L 0.0999908,-101.196 L 0.0755463,-100.808 L 0.00259399,-100.425 L -0.117691,-100.055 L -0.283447,-99.7027
 L -0.492035,-99.374 L -0.740189,-99.0741 L -1.02397,-98.8076 L -1.33893,-98.5787 L -1.68008,-98.3912 L -2.04204,-98.2479
 L -2.41911,-98.1511 L -2.80534,-98.1023 z
M 5.80534,-92.9061 L 5.41911,-92.9549 L 5.04204,-93.0517 L 4.68008,-93.195 L 4.33893,-93.3826 L 4.02397,-93.6114
 L 3.74019,-93.8779 L 3.49203,-94.1779 L 3.28345,-94.5066 L 3.11769,-94.8588 L 2.99739,-95.2291 L 2.92444,-95.6115
 L 2.89999,-96 L 2.92444,-96.3885 L 2.99739,-96.7709 L 3.11769,-97.1412 L 3.28345,-97.4934 L 3.49203,-97.8221
 L 3.74019,-98.1221 L 4.02397,-98.3886 L 4.33893,-98.6174 L 4.68008,-98.805 L 5.04204,-98.9483 L 5.41911,-99.0451
 L 5.80534,-99.0939 L 6.19464,-99.0939 L 6.58087,-99.0451 L 6.95795,-98.9483 L 7.3199,-98.805 L 7.66106,-98.6174
 L 7.97601,-98.3886 L 8.2598,-98.1221 L 8.50795,-97.8221 L 8.71654,-97.4934 L 8.88229,-97.1412 L 9.00259,-96.7709
 L 9.07555,-96.3885 L 9.09999,-96 L 9.07555,-95.6115 L 9.00259,-95.2291 L 8.88229,-94.8588 L 8.71654,-94.5066
 L 8.50795,-94.1779 L 8.2598,-93.8779 L 7.97601,-93.6114 L 7.66106,-93.3826 L 7.3199,-93.195 L 6.95795,-93.0517
 L 6.58087,-92.9549 L 6.19464,-92.9061 z
M -5.2598,-88.6818 L -5.50795,-88.9817 L -5.71654,-89.3104 L -5.88229,-89.6627 L -6.00259,-90.0329 L -6.07555,-90.4153
 L -6.09999,-90.8038 L -6.07555,-91.1924 L -6.00259,-91.5748 L -5.88229,-91.945 L -5.71654,-92.2973 L -5.50795,-92.626
 L -5.2598,-92.9259 L -4.97601,-93.1924 L -4.66106,-93.4213 L -4.3199,-93.6088 L -3.95795,-93.7521 L -3.58087,-93.8489
 L -3.19464,-93.8977 L -2.80534,-93.8977 L -2.41911,-93.8489 L -2.04204,-93.7521 L -1.68008,-93.6088 L -1.33893,-93.4213
 L -1.02397,-93.1924 L -0.740189,-92.9259 L -0.492035,-92.626 L -0.283447,-92.2973 L -0.117691,-91.945 L 0.00259399,-91.5748
 L 0.0755463,-91.1924 L 0.0999908,-90.8038 L 0.0755463,-90.4153 L 0.00259399,-90.0329 L -0.117691,-89.6627 L -0.210495,-89.4655
 L -1.09883,-89.4655 L -3.27916,-89.19 L -5.25955,-88.6815 z
M -3.13342,-75.0753 L -3.39818,-75.1088 L -3.65665,-75.1752 L -3.90477,-75.2734 L -4.13863,-75.4019 L -4.35452,-75.5588
 L -4.54906,-75.7415 L -4.71915,-75.9471 L -4.86214,-76.1724 L -4.97577,-76.4139 L -5.05823,-76.6677 L -5.10823,-76.9298
 L -5.125,-77.1962 L -5.10823,-77.4625 L -5.05823,-77.7246 L -4.97577,-77.9784 L -4.86214,-78.2199 L -4.71915,-78.4452
 L -4.54906,-78.6508 L -4.35452,-78.8335 L -4.13863,-78.9903 L -4.08864,-79.0178 L -3.27916,-78.81 L -1.38463,-78.5706
 L -1.28084,-78.4452 L -1.13785,-78.2199 L -1.02422,-77.9784 L -0.941757,-77.7246 L -0.891754,-77.4625 L -0.875,-77.1962
 L -0.891754,-76.9298 L -0.941757,-76.6677 L -1.02422,-76.4139 L -1.13785,-76.1724 L -1.28084,-75.9471 L -1.45093,-75.7415
 L -1.64546,-75.5588 L -1.86136,-75.4019 L -2.09521,-75.2734 L -2.34334,-75.1752 L -2.60181,-75.1088 L -2.86656,-75.0753
 z
M 5.86656,-69.8792 L 5.60181,-69.9126 L 5.34334,-69.979 L 5.09521,-70.0773 L 4.86136,-70.2058 L 4.64546,-70.3627
 L 4.45093,-70.5453 L 4.28084,-70.751 L 4.13785,-70.9763 L 4.02422,-71.2177 L 3.94176,-71.4715 L 3.89175,-71.7337
 L 3.875,-72 L 3.89175,-72.2663 L 3.94176,-72.5285 L 4.02422,-72.7823 L 4.13785,-73.0237 L 4.28084,-73.249
 L 4.45093,-73.4547 L 4.64546,-73.6373 L 4.86136,-73.7942 L 5.09521,-73.9227 L 5.34334,-74.021 L 5.60181,-74.0874
 L 5.86656,-74.1208 L 6.13342,-74.1208 L 6.39818,-74.0874 L 6.65665,-74.021 L 6.90477,-73.9227 L 7.13863,-73.7942
 L 7.35452,-73.6373 L 7.54906,-73.4547 L 7.71915,-73.249 L 7.86214,-73.0237 L 7.97577,-72.7823 L 8.05823,-72.5285
 L 8.10823,-72.2663 L 8.125,-72 L 8.10823,-71.7337 L 8.05823,-71.4715 L 7.97577,-71.2177 L 7.86214,-70.9763
 L 7.71915,-70.751 L 7.54906,-70.5453 L 7.35452,-70.3627 L 7.13863,-70.2058 L 6.90477,-70.0773 L 6.65665,-69.979
 L 6.39818,-69.9126 L 6.13342,-69.8792 z
M -3.13342,-64.683 L -3.39818,-64.7165 L -3.65665,-64.7829 L -3.90477,-64.8811 L -4.13863,-65.0097 L -4.35452,-65.1665
 L -4.54906,-65.3492 L -4.71915,-65.5548 L -4.86214,-65.7801 L -4.97577,-66.0216 L -5.05823,-66.2754 L -5.10823,-66.5375
 L -5.125,-66.8038 L -5.10823,-67.0702 L -5.05823,-67.3323 L -4.97577,-67.5861 L -4.86214,-67.8276 L -4.71915,-68.0529
 L -4.54906,-68.2585 L -4.35452,-68.4412 L -4.13863,-68.5981 L -3.90477,-68.7266 L -3.65665,-68.8248 L -3.39818,-68.8912
 L -3.13342,-68.9247 L -2.86656,-68.9247 L -2.60181,-68.8912 L -2.34334,-68.8248 L -2.09521,-68.7266 L -1.86136,-68.5981
 L -1.64546,-68.4412 L -1.45093,-68.2585 L -1.28084,-68.0529 L -1.13785,-67.8276 L -1.02422,-67.5861 L -0.941757,-67.3323
 L -0.891754,-67.0702 L -0.875,-66.8038 L -0.891754,-66.5375 L -0.941757,-66.2754 L -1.02422,-66.0216 L -1.13785,-65.7801
 L -1.28084,-65.5548 L -1.45093,-65.3492 L -1.64546,-65.1665 L -1.86136,-65.0097 L -2.09521,-64.8811 L -2.34334,-64.7829
 L -2.60181,-64.7165 L -2.86656,-64.683 z
M -3.13342,-51.0753 L -3.39818,-51.1088 L -3.65665,-51.1752 L -3.90477,-51.2734 L -4.13863,-51.4019 L -4.35452,-51.5588
 L -4.54906,-51.7415 L -4.71915,-51.9471 L -4.86214,-52.1724 L -4.97577,-52.4139 L -5.05823,-52.6677 L -5.10823,-52.9298
 L -5.125,-53.1962 L -5.10823,-53.4625 L -5.05823,-53.7246 L -4.97577,-53.9784 L -4.86214,-54.2199 L -4.71915,-54.4452
 L -4.54906,-54.6508 L -4.35452,-54.8335 L -4.13863,-54.9903 L -4.08864,-55.0178 L -3.27916,-54.81 L -1.38463,-54.5706
 L -1.28084,-54.4452 L -1.13785,-54.2199 L -1.02422,-53.9784 L -0.941757,-53.7246 L -0.891754,-53.4625 L -0.875,-53.1962
 L -0.891754,-52.9298 L -0.941757,-52.6677 L -1.02422,-52.4139 L -1.13785,-52.1724 L -1.28084,-51.9471 L -1.45093,-51.7415
 L -1.64546,-51.5588 L -1.86136,-51.4019 L -2.09521,-51.2734 L -2.34334,-51.1752 L -2.60181,-51.1088 L -2.86656,-51.0753
 z
M 5.86656,-45.8792 L 5.60181,-45.9126 L 5.34334,-45.979 L 5.09521,-46.0773 L 4.86136,-46.2058 L 4.64546,-46.3627
 L 4.45093,-46.5453 L 4.28084,-46.751 L 4.13785,-46.9763 L 4.02422,-47.2177 L 3.94176,-47.4715 L 3.89175,-47.7337
 L 3.875,-48 L 3.89175,-48.2663 L 3.94176,-48.5285 L 4.02422,-48.7823 L 4.13785,-49.0237 L 4.28084,-49.249
 L 4.45093,-49.4547 L 4.64546,-49.6373 L 4.86136,-49.7942 L 5.09521,-49.9227 L 5.34334,-50.021 L 5.60181,-50.0874
 L 5.86656,-50.1208 L 6.13342,-50.1208 L 6.39818,-50.0874 L 6.65665,-50.021 L 6.90477,-49.9227 L 7.13863,-49.7942
 L 7.35452,-49.6373 L 7.54906,-49.4547 L 7.71915,-49.249 L 7.86214,-49.0237 L 7.97577,-48.7823 L 8.05823,-48.5285
 L 8.10823,-48.2663 L 8.125,-48 L 8.10823,-47.7337 L 8.05823,-47.4715 L 7.97577,-47.2177 L 7.86214,-46.9763
 L 7.71915,-46.751 L 7.54906,-46.5453 L 7.35452,-46.3627 L 7.13863,-46.2058 L 6.90477,-46.0773 L 6.65665,-45.979
 L 6.39818,-45.9126 L 6.13342,-45.8792 z
M -3.13342,-40.683 L -3.39818,-40.7165 L -3.65665,-40.7829 L -3.90477,-40.8811 L -4.13863,-41.0097 L -4.35452,-41.1665
 L -4.54906,-41.3492 L -4.71915,-41.5548 L -4.86214,-41.7801 L -4.97577,-42.0216 L -5.05823,-42.2754 L -5.10823,-42.5375
 L -5.125,-42.8038 L -5.10823,-43.0702 L -5.05823,-43.3323 L -4.97577,-43.5861 L -4.86214,-43.8276 L -4.71915,-44.0529
 L -4.54906,-44.2585 L -4.35452,-44.4412 L -4.13863,-44.5981 L -3.90477,-44.7266 L -3.65665,-44.8248 L -3.39818,-44.8912
 L -3.13342,-44.9247 L -2.86656,-44.9247 L -2.60181,-44.8912 L -2.34334,-44.8248 L -2.09521,-44.7266 L -1.86136,-44.5981
 L -1.64546,-44.4412 L -1.45093,-44.2585 L -1.28084,-44.0529 L -1.13785,-43.8276 L -1.02422,-43.5861 L -0.941757,-43.3323
 L -0.891754,-43.0702 L -0.875,-42.8038 L -0.891754,-42.5375 L -0.941757,-42.2754 L -1.02422,-42.0216 L -1.13785,-41.7801
 L -1.28084,-41.5548 L -1.45093,-41.3492 L -1.64546,-41.1665 L -1.86136,-41.0097 L -2.09521,-40.8811 L -2.34334,-40.7829
 L -2.60181,-40.7165 L -2.86656,-40.683 z
M 1.87381,-14.1771 L 3.09016,-14.4894 L 4.25778,-14.9517 L 5.35826,-15.5567 L 6.37424,-16.2949 L 7.28967,-17.1545
 L 8.09016,-18.1222 L 8.76306,-19.1825 L 9.29776,-20.3188 L 9.68582,-21.5131 L 9.92114,-22.7467 L 10,-24
 L 9.92114,-25.2533 L 9.68582,-26.4869 L 9.29776,-27.6812 L 8.76306,-28.8175 L 8.09016,-29.8778 L 7.28967,-30.8455
 L 6.37424,-31.7051 L 5.35826,-32.4433 L 4.25778,-33.0483 L 3.09016,-33.5106 L 1.87381,-33.8229 L 0.627899,-33.9803
 L -0.627899,-33.9803 L -1.87381,-33.8229 L -3.09016,-33.5106 L -4.25778,-33.0483 L -5.35826,-32.4433 L -6.37424,-31.7051
 L -7.28967,-30.8455 L -8.09016,-29.8778 L -8.76306,-28.8175 L -9.29776,-27.6812 L -9.68582,-26.4869 L -9.92114,-25.2533
 L -10,-24 L -9.92114,-22.7467 L -9.68582,-21.5131 L -9.29776,-20.3188 L -8.76306,-19.1825 L -8.09016,-18.1222
 L -7.28967,-17.1545 L -6.37424,-16.2949 L -5.35826,-15.5567 L -4.25778,-14.9517 L -3.09016,-14.4894 L -1.87381,-14.1771
 L -0.627899,-14.0197 L 0.627899,-14.0197 z
M -3.13342,-27.0753 L -3.39818,-27.1088 L -3.65665,-27.1752 L -3.90477,-27.2734 L -4.13863,-27.4019 L -4.35452,-27.5588
 L -4.54906,-27.7415 L -4.71915,-27.9471 L -4.86214,-28.1724 L -4.97577,-28.4139 L -5.05823,-28.6677 L -5.10823,-28.9298
 L -5.125,-29.1962 L -5.10823,-29.4625 L -5.05823,-29.7246 L -4.97577,-29.9784 L -4.86214,-30.2199 L -4.71915,-30.4452
 L -4.54906,-30.6508 L -4.35452,-30.8335 L -4.13863,-30.9903 L -3.90477,-31.1189 L -3.65665,-31.2171 L -3.39818,-31.2835
 L -3.13342,-31.317 L -2.86656,-31.317 L -2.60181,-31.2835 L -2.34334,-31.2171 L -2.09521,-31.1189 L -1.86136,-30.9903
 L -1.64546,-30.8335 L -1.45093,-30.6508 L -1.28084,-30.4452 L -1.13785,-30.2199 L -1.02422,-29.9784 L -0.941757,-29.7246
 L -0.891754,-29.4625 L -0.875,-29.1962 L -0.891754,-28.9298 L -0.941757,-28.6677 L -1.02422,-28.4139 L -1.13785,-28.1724
 L -1.28084,-27.9471 L -1.45093,-27.7415 L -1.64546,-27.5588 L -1.86136,-27.4019 L -2.09521,-27.2734 L -2.34334,-27.1752
 L -2.60181,-27.1088 L -2.86656,-27.0753 z
M 5.86656,-21.8792 L 5.60181,-21.9126 L 5.34334,-21.979 L 5.09521,-22.0773 L 4.86136,-22.2058 L 4.64546,-22.3627
 L 4.45093,-22.5453 L 4.28084,-22.751 L 4.13785,-22.9763 L 4.02422,-23.2177 L 3.94176,-23.4715 L 3.89175,-23.7337
 L 3.875,-24 L 3.89175,-24.2663 L 3.94176,-24.5285 L 4.02422,-24.7823 L 4.13785,-25.0237 L 4.28084,-25.249
 L 4.45093,-25.4547 L 4.64546,-25.6373 L 4.86136,-25.7942 L 5.09521,-25.9227 L 5.34334,-26.021 L 5.60181,-26.0874
 L 5.86656,-26.1208 L 6.13342,-26.1208 L 6.39818,-26.0874 L 6.65665,-26.021 L 6.90477,-25.9227 L 7.13863,-25.7942
 L 7.35452,-25.6373 L 7.54906,-25.4547 L 7.71915,-25.249 L 7.86214,-25.0237 L 7.97577,-24.7823 L 8.05823,-24.5285
 L 8.10823,-24.2663 L 8.125,-24 L 8.10823,-23.7337 L 8.05823,-23.4715 L 7.97577,-23.2177 L 7.86214,-22.9763
 L 7.71915,-22.751 L 7.54906,-22.5453 L 7.35452,-22.3627 L 7.13863,-22.2058 L 6.90477,-22.0773 L 6.65665,-21.979
 L 6.39818,-21.9126 L 6.13342,-21.8792 z
M -3.13342,-16.683 L -3.39818,-16.7165 L -3.65665,-16.7829 L -3.90477,-16.8811 L -4.13863,-17.0097 L -4.35452,-17.1665
 L -4.54906,-17.3492 L -4.71915,-17.5548 L -4.86214,-17.7801 L -4.97577,-18.0216 L -5.05823,-18.2754 L -5.10823,-18.5375
 L -5.125,-18.8038 L -5.10823,-19.0702 L -5.05823,-19.3323 L -4.97577,-19.5861 L -4.86214,-19.8276 L -4.71915,-20.0529
 L -4.54906,-20.2585 L -4.35452,-20.4412 L -4.13863,-20.5981 L -3.90477,-20.7266 L -3.65665,-20.8248 L -3.39818,-20.8912
 L -3.13342,-20.9247 L -2.86656,-20.9247 L -2.60181,-20.8912 L -2.34334,-20.8248 L -2.09521,-20.7266 L -1.86136,-20.5981
 L -1.64546,-20.4412 L -1.45093,-20.2585 L -1.28084,-20.0529 L -1.13785,-19.8276 L -1.02422,-19.5861 L -0.941757,-19.3323
 L -0.891754,-19.0702 L -0.875,-18.8038 L -0.891754,-18.5375 L -0.941757,-18.2754 L -1.02422,-18.0216 L -1.13785,-17.7801
 L -1.28084,-17.5548 L -1.45093,-17.3492 L -1.64546,-17.1665 L -1.86136,-17.0097 L -2.09521,-16.8811 L -2.34334,-16.7829
 L -2.60181,-16.7165 L -2.86656,-16.683 z
M 1.87381,9.82286 L 3.09016,9.51056 L 4.25778,9.04826 L 5.35826,8.44327 L 6.37424,7.70512 L 7.28967,6.84546
 L 8.09016,5.87784 L 8.76306,4.81754 L 9.29776,3.68124 L 9.68582,2.48689 L 9.92114,1.25333 L 10,-0
 L 9.92114,-1.25333 L 9.68582,-2.48689 L 9.29776,-3.68124 L 8.76306,-4.81754 L 8.09016,-5.87784 L 7.28967,-6.84546
 L 6.37424,-7.70512 L 5.35826,-8.44327 L 4.25778,-9.04826 L 3.09016,-9.51056 L 1.87381,-9.82286 L 0.627899,-9.98026
 L -0.627899,-9.98026 L -1.87381,-9.82286 L -3.09016,-9.51056 L -4.25778,-9.04826 L -5.35826,-8.44327 L -6.37424,-7.70512
 L -7.28967,-6.84546 L -8.09016,-5.87784 L -8.76306,-4.81754 L -9.29776,-3.68124 L -9.68582,-2.48689 L -9.92114,-1.25333
 L -10,-0 L -9.92114,1.25333 L -9.68582,2.48689 L -9.29776,3.68124 L -8.76306,4.81754 L -8.09016,5.87784
 L -7.28967,6.84546 L -6.37424,7.70512 L -5.35826,8.44327 L -4.25778,9.04826 L -3.09016,9.51056 L -1.87381,9.82286
 L -0.627899,9.98026 L 0.627899,9.98026 z
M -3.13342,-3.07533 L -3.39818,-3.10878 L -3.65665,-3.17516 L -3.90477,-3.27339 L -4.13863,-3.40195 L -4.35452,-3.55881
 L -4.54906,-3.74149 L -4.71915,-3.9471 L -4.86214,-4.17242 L -4.97577,-4.41388 L -5.05823,-4.66768 L -5.10823,-4.92981
 L -5.125,-5.19615 L -5.10823,-5.46248 L -5.05823,-5.72461 L -4.97577,-5.97841 L -4.86214,-6.21986 L -4.71915,-6.44519
 L -4.54906,-6.6508 L -4.35452,-6.83348 L -4.13863,-6.99034 L -3.90477,-7.1189 L -3.65665,-7.21713 L -3.39818,-7.28351
 L -3.13342,-7.31696 L -2.86656,-7.31696 L -2.60181,-7.28351 L -2.34334,-7.21713 L -2.09521,-7.1189 L -1.86136,-6.99034
 L -1.64546,-6.83348 L -1.45093,-6.6508 L -1.28084,-6.44519 L -1.13785,-6.21986 L -1.02422,-5.97841 L -0.941757,-5.72461
 L -0.891754,-5.46248 L -0.875,-5.19615 L -0.891754,-4.92981 L -0.941757,-4.66768 L -1.02422,-4.41388 L -1.13785,-4.17242
 L -1.28084,-3.9471 L -1.45093,-3.74149 L -1.64546,-3.55881 L -1.86136,-3.40195 L -2.09521,-3.27339 L -2.34334,-3.17516
 L -2.60181,-3.10878 L -2.86656,-3.07533 z
M 5.86656,2.1208 L 5.60181,2.08736 L 5.34334,2.02098 L 5.09521,1.92274 L 4.86136,1.79419 L 4.64546,1.63733
 L 4.45093,1.45465 L 4.28084,1.24904 L 4.13785,1.02371 L 4.02422,0.782257 L 3.94176,0.528458 L 3.89175,0.266327
 L 3.875,-0 L 3.89175,-0.266327 L 3.94176,-0.528458 L 4.02422,-0.782257 L 4.13785,-1.02371 L 4.28084,-1.24904
 L 4.45093,-1.45465 L 4.64546,-1.63733 L 4.86136,-1.79419 L 5.09521,-1.92274 L 5.34334,-2.02098 L 5.60181,-2.08736
 L 5.86656,-2.1208 L 6.13342,-2.1208 L 6.39818,-2.08736 L 6.65665,-2.02098 L 6.90477,-1.92274 L 7.13863,-1.79419
 L 7.35452,-1.63733 L 7.54906,-1.45465 L 7.71915,-1.24904 L 7.86214,-1.02371 L 7.97577,-0.782257 L 8.05823,-0.528458
 L 8.10823,-0.266327 L 8.125,-0 L 8.10823,0.266327 L 8.05823,0.528458 L 7.97577,0.782257 L 7.86214,1.02371
 L 7.71915,1.24904 L 7.54906,1.45465 L 7.35452,1.63733 L 7.13863,1.79419 L 6.90477,1.92274 L 6.65665,2.02098
 L 6.39818,2.08736 L 6.13342,2.1208 z
M -3.13342,7.31696 L -3.39818,7.28351 L -3.65665,7.21713 L -3.90477,7.1189 L -4.13863,6.99034 L -4.35452,6.83348
 L -4.54906,6.6508 L -4.71915,6.44519 L -4.86214,6.21986 L -4.97577,5.97841 L -5.05823,5.72461 L -5.10823,5.46248
 L -5.125,5.19615 L -5.10823,4.92981 L -5.05823,4.66768 L -4.97577,4.41388 L -4.86214,4.17242 L -4.71915,3.9471
 L -4.54906,3.74149 L -4.35452,3.55881 L -4.13863,3.40195 L -3.90477,3.27339 L -3.65665,3.17516 L -3.39818,3.10878
 L -3.13342,3.07533 L -2.86656,3.07533 L -2.60181,3.10878 L -2.34334,3.17516 L -2.09521,3.27339 L -1.86136,3.40195
 L -1.64546,3.55881 L -1.45093,3.74149 L -1.28084,3.9471 L -1.13785,4.17242 L -1.02422,4.41388 L -0.941757,4.66768
 L -0.891754,4.92981 L -0.875,5.19615 L -0.891754,5.46248 L -0.941757,5.72461 L -1.02422,5.97841 L -1.13785,6.21986
 L -1.28084,6.44519 L -1.45093,6.6508 L -1.64546,6.83348 L -1.86136,6.99034 L -2.09521,7.1189 L -2.34334,7.21713
 L -2.60181,7.28351 L -2.86656,7.31696 z
" stroke="black" fill="lightgray" stroke-width="0.5"/>
</svg>
