  0
SECTION
  2
BLOCKS
  0
ENDSEC
  0
SECTION
  2
ENTITIES
  0
LINE
  8
0
 10
1.87381
 20
38.1771
 11
3.09016
 21
38.4894
  0
LINE
  8
0
 10
3.09016
 20
38.4894
 11
4.25778
 21
38.9517
  0
LINE
  8
0
 10
4.25778
 20
38.9517
 11
5.35826
 21
39.5567
  0
LINE
  8
0
 10
5.35826
 20
39.5567
 11
6.37424
 21
40.2949
  0
LINE
  8
0
 10
6.37424
 20
40.2949
 11
7.28967
 21
41.1545
  0
LINE
  8
0
 10
7.28967
 20
41.1545
 11
8.09016
 21
42.1222
  0
LINE
  8
0
 10
8.09016
 20
42.1222
 11
8.76306
 21
43.1825
  0
LINE
  8
0
 10
8.76306
 20
43.1825
 11
9.29776
 21
44.3188
  0
LINE
  8
0
 10
9.29776
 20
44.3188
 11
9.68582
 21
45.5131
  0
LINE
  8
0
 10
9.68582
 20
45.5131
 11
9.92114
 21
46.7467
  0
LINE
  8
0
 10
9.92114
 20
46.7467
 11
10
 21
48
  0
LINE
  8
0
 10
10
 20
48
 11
9.92114
 21
49.2533
  0
LINE
  8
0
 10
9.92114
 20
49.2533
 11
9.68582
 21
50.4869
  0
LINE
  8
0
 10
9.68582
 20
50.4869
 11
9.29776
 21
51.6812
  0
LINE
  8
0
 10
9.29776
 20
51.6812
 11
8.76306
 21
52.8175
  0
LINE
  8
0
 10
8.76306
 20
52.8175
 11
8.09016
 21
53.8778
  0
LINE
  8
0
 10
8.09016
 20
53.8778
 11
7.28967
 21
54.8455
  0
LINE
  8
0
 10
7.28967
 20
54.8455
 11
6.37424
 21
55.7051
  0
LINE
  8
0
 10
6.37424
 20
55.7051
 11
6.34392
 21
55.7272
  0
LINE
  8
0
 10
6.34392
 20
55.7272
 11
7.45113
 21
56.1655
  0
LINE
  8
0
 10
7.45113
 20
56.1655
 11
9.37697
 21
57.2243
  0
LINE
  8
0
 10
9.37697
 20
57.2243
 11
11.1549
 21
58.516
  0
LINE
  8
0
 10
11.1549
 20
58.516
 11
12.7569
 21
60.0204
  0
LINE
  8
0
 10
12.7569
 20
60.0204
 11
14.1578
 21
61.7138
  0
LINE
  8
0
 10
14.1578
 20
61.7138
 11
15.3354
 21
63.5693
  0
LINE
  8
0
 10
15.3354
 20
63.5693
 11
16.2711
 21
65.5578
  0
LINE
  8
0
 10
16.2711
 20
65.5578
 11
16.9502
 21
67.6479
  0
LINE
  8
0
 10
16.9502
 20
67.6479
 11
17.362
 21
69.8067
  0
LINE
  8
0
 10
17.362
 20
69.8067
 11
17.5
 21
72
  0
LINE
  8
0
 10
17.5
 20
72
 11
17.362
 21
74.1933
  0
LINE
  8
0
 10
17.362
 20
74.1933
 11
16.9502
 21
76.3521
  0
LINE
  8
0
 10
16.9502
 20
76.3521
 11
16.2711
 21
78.4422
  0
LINE
  8
0
 10
16.2711
 20
78.4422
 11
15.3354
 21
80.4307
  0
LINE
  8
0
 10
15.3354
 20
80.4307
 11
14.1578
 21
82.2862
  0
LINE
  8
0
 10
14.1578
 20
82.2862
 11
12.7569
 21
83.9796
  0
LINE
  8
0
 10
12.7569
 20
83.9796
 11
12.7352
 21
84
  0
LINE
  8
0
 10
12.7352
 20
84
 11
12.7569
 21
84.0204
  0
LINE
  8
0
 10
12.7569
 20
84.0204
 11
14.1578
 21
85.7138
  0
LINE
  8
0
 10
14.1578
 20
85.7138
 11
15.3354
 21
87.5693
  0
LINE
  8
0
 10
15.3354
 20
87.5693
 11
16.2711
 21
89.5578
  0
LINE
  8
0
 10
16.2711
 20
89.5578
 11
16.9502
 21
91.6479
  0
LINE
  8
0
 10
16.9502
 20
91.6479
 11
17.362
 21
93.8067
  0
LINE
  8
0
 10
17.362
 20
93.8067
 11
17.5
 21
96
  0
LINE
  8
0
 10
17.5
 20
96
 11
17.362
 21
98.1933
  0
LINE
  8
0
 10
17.362
 20
98.1933
 11
16.9502
 21
100.352
  0
LINE
  8
0
 10
16.9502
 20
100.352
 11
16.2711
 21
102.442
  0
LINE
  8
0
 10
16.2711
 20
102.442
 11
15.3354
 21
104.431
  0
LINE
  8
0
 10
15.3354
 20
104.431
 11
14.1578
 21
106.286
  0
LINE
  8
0
 10
14.1578
 20
106.286
 11
12.7569
 21
107.98
  0
LINE
  8
0
 10
12.7569
 20
107.98
 11
11.1549
 21
109.484
  0
LINE
  8
0
 10
11.1549
 20
109.484
 11
9.37697
 21
110.776
  0
LINE
  8
0
 10
9.37697
 20
110.776
 11
7.45113
 21
111.834
  0
LINE
  8
0
 10
7.45113
 20
111.834
 11
5.40779
 21
112.643
  0
LINE
  8
0
 10
5.40779
 20
112.643
 11
3.27916
 21
113.19
  0
LINE
  8
0
 10
3.27916
 20
113.19
 11
1.09883
 21
113.465
  0
LINE
  8
0
 10
1.09883
 20
113.465
 11
-1.09883
 21
113.465
  0
LINE
  8
0
 10
-1.09883
 20
113.465
 11
-3.27916
 21
113.19
  0
LINE
  8
0
 10
-3.27916
 20
113.19
 11
-5.40779
 21
112.643
  0
LINE
  8
0
 10
-5.40779
 20
112.643
 11
-7.45113
 21
111.834
  0
LINE
  8
0
 10
-7.45113
 20
111.834
 11
-9.37697
 21
110.776
  0
LINE
  8
0
 10
-9.37697
 20
110.776
 11
-11.1549
 21
109.484
  0
LINE
  8
0
 10
-11.1549
 20
109.484
 11
-12.7569
 21
107.98
  0
LINE
  8
0
 10
-12.7569
 20
107.98
 11
-14.1578
 21
106.286
  0
LINE
  8
0
 10
-14.1578
 20
106.286
 11
-15.3354
 21
104.431
  0
LINE
  8
0
 10
-15.3354
 20
104.431
 11
-16.2711
 21
102.442
  0
LINE
  8
0
 10
-16.2711
 20
102.442
 11
-16.9502
 21
100.352
  0
LINE
  8
0
 10
-16.9502
 20
100.352
 11
-17.362
 21
98.1933
  0
LINE
  8
0
 10
-17.362
 20
98.1933
 11
-17.5
 21
96
  0
LINE
  8
0
 10
-17.5
 20
96
 11
-17.362
 21
93.8067
  0
LINE
  8
0
 10
-17.362
 20
93.8067
 11
-16.9502
 21
91.6479
  0
LINE
  8
0
 10
-16.9502
 20
91.6479
 11
-16.2711
 21
89.5578
  0
LINE
  8
0
 10
-16.2711
 20
89.5578
 11
-15.3354
 21
87.5693
  0
LINE
  8
0
 10
-15.3354
 20
87.5693
 11
-14.1578
 21
85.7138
  0
LINE
  8
0
 10
-14.1578
 20
85.7138
 11
-12.7569
 21
84.0204
  0
LINE
  8
0
 10
-12.7569
 20
84.0204
 11
-12.7352
 21
84
  0
LINE
  8
0
 10
-12.7352
 20
84
 11
-12.7569
 21
83.9796
  0
LINE
  8
0
 10
-12.7569
 20
83.9796
 11
-14.1578
 21
82.2862
  0
LINE
  8
0
 10
-14.1578
 20
82.2862
 11
-15.3354
 21
80.4307
  0
LINE
  8
0
 10
-15.3354
 20
80.4307
 11
-16.2711
 21
78.4422
  0
LINE
  8
0
 10
-16.2711
 20
78.4422
 11
-16.9502
 21
76.3521
  0
LINE
  8
0
 10
-16.9502
 20
76.3521
 11
-17.362
 21
74.1933
  0
LINE
  8
0
 10
-17.362
 20
74.1933
 11
-17.5
 21
72
  0
LINE
  8
0
 10
-17.5
 20
72
 11
-17.362
 21
69.8067
  0
LINE
  8
0
 10
-17.362
 20
69.8067
 11
-16.9502
 21
67.6479
  0
LINE
  8
0
 10
-16.9502
 20
67.6479
 11
-16.2711
 21
65.5578
  0
LINE
  8
0
 10
-16.2711
 20
65.5578
 11
-15.3354
 21
63.5693
  0
LINE
  8
0
 10
-15.3354
 20
63.5693
 11
-14.1578
 21
61.7138
  0
LINE
  8
0
 10
-14.1578
 20
61.7138
 11
-12.7569
 21
60.0204
  0
LINE
  8
0
 10
-12.7569
 20
60.0204
 11
-11.1549
 21
58.516
  0
LINE
  8
0
 10
-11.1549
 20
58.516
 11
-9.37697
 21
57.2243
  0
LINE
  8
0
 10
-9.37697
 20
57.2243
 11
-7.45113
 21
56.1655
  0
LINE
  8
0
 10
-7.45113
 20
56.1655
 11
-6.34392
 21
55.7272
  0
LINE
  8
0
 10
-6.34392
 20
55.7272
 11
-6.37424
 21
55.7051
  0
LINE
  8
0
 10
-6.37424
 20
55.7051
 11
-7.28967
 21
54.8455
  0
LINE
  8
0
 10
-7.28967
 20
54.8455
 11
-8.09016
 21
53.8778
  0
LINE
  8
0
 10
-8.09016
 20
53.8778
 11
-8.76306
 21
52.8175
  0
LINE
  8
0
 10
-8.76306
 20
52.8175
 11
-9.29776
 21
51.6812
  0
LINE
  8
0
 10
-9.29776
 20
51.6812
 11
-9.68582
 21
50.4869
  0
LINE
  8
0
 10
-9.68582
 20
50.4869
 11
-9.92114
 21
49.2533
  0
LINE
  8
0
 10
-9.92114
 20
49.2533
 11
-10
 21
48
  0
LINE
  8
0
 10
-10
 20
48
 11
-9.92114
 21
46.7467
  0
LINE
  8
0
 10
-9.92114
 20
46.7467
 11
-9.68582
 21
45.5131
  0
LINE
  8
0
 10
-9.68582
 20
45.5131
 11
-9.29776
 21
44.3188
  0
LINE
  8
0
 10
-9.29776
 20
44.3188
 11
-8.76306
 21
43.1825
  0
LINE
  8
0
 10
-8.76306
 20
43.1825
 11
-8.09016
 21
42.1222
  0
LINE
  8
0
 10
-8.09016
 20
42.1222
 11
-7.28967
 21
41.1545
  0
LINE
  8
0
 10
-7.28967
 20
41.1545
 11
-6.37424
 21
40.2949
  0
LINE
  8
0
 10
-6.37424
 20
40.2949
 11
-5.35826
 21
39.5567
  0
LINE
  8
0
 10
-5.35826
 20
39.5567
 11
-4.25778
 21
38.9517
  0
LINE
  8
0
 10
-4.25778
 20
38.9517
 11
-3.09016
 21
38.4894
  0
LINE
  8
0
 10
-3.09016
 20
38.4894
 11
-1.87381
 21
38.1771
  0
LINE
  8
0
 10
-1.87381
 20
38.1771
 11
-0.627899
 21
38.0197
  0
LINE
  8
0
 10
-0.627899
 20
38.0197
 11
0.627899
 21
38.0197
  0
LINE
  8
0
 10
0.627899
 20
38.0197
 11
1.87381
 21
38.1771
  0
LINE
  8
0
 10
-3.19464
 20
98.1023
 11
-3.58087
 21
98.1511
  0
LINE
  8
0
 10
-3.58087
 20
98.1511
 11
-3.95795
 21
98.2479
  0
LINE
  8
0
 10
-3.95795
 20
98.2479
 11
-4.3199
 21
98.3912
  0
LINE
  8
0
 10
-4.3199
 20
98.3912
 11
-4.66106
 21
98.5787
  0
LINE
  8
0
 10
-4.66106
 20
98.5787
 11
-4.97601
 21
98.8076
  0
LINE
  8
0
 10
-4.97601
 20
98.8076
 11
-5.2598
 21
99.0741
  0
LINE
  8
0
 10
-5.2598
 20
99.0741
 11
-5.50795
 21
99.374
  0
LINE
  8
0
 10
-5.50795
 20
99.374
 11
-5.71654
 21
99.7027
  0
LINE
  8
0
 10
-5.71654
 20
99.7027
 11
-5.88229
 21
100.055
  0
LINE
  8
0
 10
-5.88229
 20
100.055
 11
-6.00259
 21
100.425
  0
LINE
  8
0
 10
-6.00259
 20
100.425
 11
-6.07555
 21
100.808
  0
LINE
  8
0
 10
-6.07555
 20
100.808
 11
-6.09999
 21
101.196
  0
LINE
  8
0
 10
-6.09999
 20
101.196
 11
-6.07555
 21
101.585
  0
LINE
  8
0
 10
-6.07555
 20
101.585
 11
-6.00259
 21
101.967
  0
LINE
  8
0
 10
-6.00259
 20
101.967
 11
-5.88229
 21
102.337
  0
LINE
  8
0
 10
-5.88229
 20
102.337
 11
-5.71654
 21
102.69
  0
LINE
  8
0
 10
-5.71654
 20
102.69
 11
-5.50795
 21
103.018
  0
LINE
  8
0
 10
-5.50795
 20
103.018
 11
-5.2598
 21
103.318
  0
LINE
  8
0
 10
-5.2598
 20
103.318
 11
-4.97601
 21
103.585
  0
LINE
  8
0
 10
-4.97601
 20
103.585
 11
-4.66106
 21
103.814
  0
LINE
  8
0
 10
-4.66106
 20
103.814
 11
-4.3199
 21
104.001
  0
LINE
  8
0
 10
-4.3199
 20
104.001
 11
-3.95795
 21
104.144
  0
LINE
  8
0
 10
-3.95795
 20
104.144
 11
-3.58087
 21
104.241
  0
LINE
  8
0
 10
-3.58087
 20
104.241
 11
-3.19464
 21
104.29
  0
LINE
  8
0
 10
-3.19464
 20
104.29
 11
-2.80534
 21
104.29
  0
LINE
  8
0
 10
-2.80534
 20
104.29
 11
-2.41911
 21
104.241
  0
LINE
  8
0
 10
-2.41911
 20
104.241
 11
-2.04204
 21
104.144
  0
LINE
  8
0
 10
-2.04204
 20
104.144
 11
-1.68008
 21
104.001
  0
LINE
  8
0
 10
-1.68008
 20
104.001
 11
-1.33893
 21
103.814
  0
LINE
  8
0
 10
-1.33893
 20
103.814
 11
-1.02397
 21
103.585
  0
LINE
  8
0
 10
-1.02397
 20
103.585
 11
-0.740189
 21
103.318
  0
LINE
  8
0
 10
-0.740189
 20
103.318
 11
-0.492035
 21
103.018
  0
LINE
  8
0
 10
-0.492035
 20
103.018
 11
-0.283447
 21
102.69
  0
LINE
  8
0
 10
-0.283447
 20
102.69
 11
-0.117691
 21
102.337
  0
LINE
  8
0
 10
-0.117691
 20
102.337
 11
0.00259399
 21
101.967
  0
LINE
  8
0
 10
0.00259399
 20
101.967
 11
0.0755463
 21
101.585
  0
LINE
  8
0
 10
0.0755463
 20
101.585
 11
0.0999908
 21
101.196
  0
LINE
  8
0
 10
0.0999908
 20
101.196
 11
0.0755463
 21
100.808
  0
LINE
  8
0
 10
0.0755463
 20
100.808
 11
0.00259399
 21
100.425
  0
LINE
  8
0
 10
0.00259399
 20
100.425
 11
-0.117691
 21
100.055
  0
LINE
  8
0
 10
-0.117691
 20
100.055
 11
-0.283447
 21
99.7027
  0
LINE
  8
0
 10
-0.283447
 20
99.7027
 11
-0.492035
 21
99.374
  0
LINE
  8
0
 10
-0.492035
 20
99.374
 11
-0.740189
 21
99.0741
  0
LINE
  8
0
 10
-0.740189
 20
99.0741
 11
-1.02397
 21
98.8076
  0
LINE
  8
0
 10
-1.02397
 20
98.8076
 11
-1.33893
 21
98.5787
  0
LINE
  8
0
 10
-1.33893
 20
98.5787
 11
-1.68008
 21
98.3912
  0
LINE
  8
0
 10
-1.68008
 20
98.3912
 11
-2.04204
 21
98.2479
  0
LINE
  8
0
 10
-2.04204
 20
98.2479
 11
-2.41911
 21
98.1511
  0
LINE
  8
0
 10
-2.41911
 20
98.1511
 11
-2.80534
 21
98.1023
  0
LINE
  8
0
 10
-2.80534
 20
98.1023
 11
-3.19464
 21
98.1023
  0
LINE
  8
0
 10
5.80534
 20
92.9061
 11
5.41911
 21
92.9549
  0
LINE
  8
0
 10
5.41911
 20
92.9549
 11
5.04204
 21
93.0517
  0
LINE
  8
0
 10
5.04204
 20
93.0517
 11
4.68008
 21
93.195
  0
LINE
  8
0
 10
4.68008
 20
93.195
 11
4.33893
 21
93.3826
  0
LINE
  8
0
 10
4.33893
 20
93.3826
 11
4.02397
 21
93.6114
  0
LINE
  8
0
 10
4.02397
 20
93.6114
 11
3.74019
 21
93.8779
  0
LINE
  8
0
 10
3.74019
 20
93.8779
 11
3.49203
 21
94.1779
  0
LINE
  8
0
 10
3.49203
 20
94.1779
 11
3.28345
 21
94.5066
  0
LINE
  8
0
 10
3.28345
 20
94.5066
 11
3.11769
 21
94.8588
  0
LINE
  8
0
 10
3.11769
 20
94.8588
 11
2.99739
 21
95.2291
  0
LINE
  8
0
 10
2.99739
 20
95.2291
 11
2.92444
 21
95.6115
  0
LINE
  8
0
 10
2.92444
 20
95.6115
 11
2.89999
 21
96
  0
LINE
  8
0
 10
2.89999
 20
96
 11
2.92444
 21
96.3885
  0
LINE
  8
0
 10
2.92444
 20
96.3885
 11
2.99739
 21
96.7709
  0
LINE
  8
0
 10
2.99739
 20
96.7709
 11
3.11769
 21
97.1412
  0
LINE
  8
0
 10
3.11769
 20
97.1412
 11
3.28345
 21
97.4934
  0
LINE
  8
0
 10
3.28345
 20
97.4934
 11
3.49203
 21
97.8221
  0
LINE
  8
0
 10
3.49203
 20
97.8221
 11
3.74019
 21
98.1221
  0
LINE
  8
0
 10
3.74019
 20
98.1221
 11
4.02397
 21
98.3886
  0
LINE
  8
0
 10
4.02397
 20
98.3886
 11
4.33893
 21
98.6174
  0
LINE
  8
0
 10
4.33893
 20
98.6174
 11
4.68008
 21
98.805
  0
LINE
  8
0
 10
4.68008
 20
98.805
 11
5.04204
 21
98.9483
  0
LINE
  8
0
 10
5.04204
 20
98.9483
 11
5.41911
 21
99.0451
  0
LINE
  8
0
 10
5.41911
 20
99.0451
 11
5.80534
 21
99.0939
  0
LINE
  8
0
 10
5.80534
 20
99.0939
 11
6.19464
 21
99.0939
  0
LINE
  8
0
 10
6.19464
 20
99.0939
 11
6.58087
 21
99.0451
  0
LINE
  8
0
 10
6.58087
 20
99.0451
 11
6.95795
 21
98.9483
  0
LINE
  8
0
 10
6.95795
 20
98.9483
 11
7.3199
 21
98.805
  0
LINE
  8
0
 10
7.3199
 20
98.805
 11
7.66106
 21
98.6174
  0
LINE
  8
0
 10
7.66106
 20
98.6174
 11
7.97601
 21
98.3886
  0
LINE
  8
0
 10
7.97601
 20
98.3886
 11
8.2598
 21
98.1221
  0
LINE
  8
0
 10
8.2598
 20
98.1221
 11
8.50795
 21
97.8221
  0
LINE
  8
0
 10
8.50795
 20
97.8221
 11
8.71654
 21
97.4934
  0
LINE
  8
0
 10
8.71654
 20
97.4934
 11
8.88229
 21
97.1412
  0
LINE
  8
0
 10
8.88229
 20
97.1412
 11
9.00259
 21
96.7709
  0
LINE
  8
0
 10
9.00259
 20
96.7709
 11
9.07555
 21
96.3885
  0
LINE
  8
0
 10
9.07555
 20
96.3885
 11
9.09999
 21
96
  0
LINE
  8
0
 10
9.09999
 20
96
 11
9.07555
 21
95.6115
  0
LINE
  8
0
 10
9.07555
 20
95.6115
 11
9.00259
 21
95.2291
  0
LINE
  8
0
 10
9.00259
 20
95.2291
 11
8.88229
 21
94.8588
  0
LINE
  8
0
 10
8.88229
 20
94.8588
 11
8.71654
 21
94.5066
  0
LINE
  8
0
 10
8.71654
 20
94.5066
 11
8.50795
 21
94.1779
  0
LINE
  8
0
 10
8.50795
 20
94.1779
 11
8.2598
 21
93.8779
  0
LINE
  8
0
 10
8.2598
 20
93.8779
 11
7.97601
 21
93.6114
  0
LINE
  8
0
 10
7.97601
 20
93.6114
 11
7.66106
 21
93.3826
  0
LINE
  8
0
 10
7.66106
 20
93.3826
 11
7.3199
 21
93.195
  0
LINE
  8
0
 10
7.3199
 20
93.195
 11
6.95795
 21
93.0517
  0
LINE
  8
0
 10
6.95795
 20
93.0517
 11
6.58087
 21
92.9549
  0
LINE
  8
0
 10
6.58087
 20
92.9549
 11
6.19464
 21
92.9061
  0
LINE
  8
0
 10
6.19464
 20
92.9061
 11
5.80534
 21
92.9061
  0
LINE
  8
0
 10
-5.2598
 20
88.6818
 11
-5.50795
 21
88.9817
  0
LINE
  8
0
 10
-5.50795
 20
88.9817
 11
-5.71654
 21
89.3104
  0
LINE
  8
0
 10
-5.71654
 20
89.3104
 11
-5.88229
 21
89.6627
  0
LINE
  8
0
 10
-5.88229
 20
89.6627
 11
-6.00259
 21
90.0329
  0
LINE
  8
0
 10
-6.00259
 20
90.0329
 11
-6.07555
 21
90.4153
  0
LINE
  8
0
 10
-6.07555
 20
90.4153
 11
-6.09999
 21
90.8038
  0
LINE
  8
0
 10
-6.09999
 20
90.8038
 11
-6.07555
 21
91.1924
  0
LINE
  8
0
 10
-6.07555
 20
91.1924
 11
-6.00259
 21
91.5748
  0
LINE
  8
0
 10
-6.00259
 20
91.5748
 11
-5.88229
 21
91.945
  0
LINE
  8
0
 10
-5.88229
 20
91.945
 11
-5.71654
 21
92.2973
  0
LINE
  8
0
 10
-5.71654
 20
92.2973
 11
-5.50795
 21
92.626
  0
LINE
  8
0
 10
-5.50795
 20
92.626
 11
-5.2598
 21
92.9259
  0
LINE
  8
0
 10
-5.2598
 20
92.9259
 11
-4.97601
 21
93.1924
  0
LINE
  8
0
 10
-4.97601
 20
93.1924
 11
-4.66106
 21
93.4213
  0
LINE
  8
0
 10
-4.66106
 20
93.4213
 11
-4.3199
 21
93.6088
  0
LINE
  8
0
 10
-4.3199
 20
93.6088
 11
-3.95795
 21
93.7521
  0
LINE
  8
0
 10
-3.95795
 20
93.7521
 11
-3.58087
 21
93.8489
  0
LINE
  8
0
 10
-3.58087
 20
93.8489
 11
-3.19464
 21
93.8977
  0
LINE
  8
0
 10
-3.19464
 20
93.8977
 11
-2.80534
 21
93.8977
  0
LINE
  8
0
 10
-2.80534
 20
93.8977
 11
-2.41911
 21
93.8489
  0
LINE
  8
0
 10
-2.41911
 20
93.8489
 11
-2.04204
 21
93.7521
  0
LINE
  8
0
 10
-2.04204
 20
93.7521
 11
-1.68008
 21
93.6088
  0
LINE
  8
0
 10
-1.68008
 20
93.6088
 11
-1.33893
 21
93.4213
  0
LINE
  8
0
 10
-1.33893
 20
93.4213
 11
-1.02397
 21
93.1924
  0
LINE
  8
0
 10
-1.02397
 20
93.1924
 11
-0.740189
 21
92.9259
  0
LINE
  8
0
 10
-0.740189
 20
92.9259
 11
-0.492035
 21
92.626
  0
LINE
  8
0
 10
-0.492035
 20
92.626
 11
-0.283447
 21
92.2973
  0
LINE
  8
0
 10
-0.283447
 20
92.2973
 11
-0.117691
 21
91.945
  0
LINE
  8
0
 10
-0.117691
 20
91.945
 11
0.00259399
 21
91.5748
  0
LINE
  8
0
 10
0.00259399
 20
91.5748
 11
0.0755463
 21
91.1924
  0
LINE
  8
0
 10
0.0755463
 20
91.1924
 11
0.0999908
 21
90.8038
  0
LINE
  8
0
 10
0.0999908
 20
90.8038
 11
0.0755463
 21
90.4153
  0
LINE
  8
0
 10
0.0755463
 20
90.4153
 11
0.00259399
 21
90.0329
  0
LINE
  8
0
 10
0.00259399
 20
90.0329
 11
-0.117691
 21
89.6627
  0
LINE
  8
0
 10
-0.117691
 20
89.6627
 11
-0.210495
 21
89.4655
  0
LINE
  8
0
 10
-0.210495
 20
89.4655
 11
-1.09883
 21
89.4655
  0
LINE
  8
0
 10
-1.09883
 20
89.4655
 11
-3.27916
 21
89.19
  0
LINE
  8
0
 10
-3.27916
 20
89.19
 11
-5.25955
 21
88.6815
  0
LINE
  8
0
 10
-5.25955
 20
88.6815
 11
-5.2598
 21
88.6818
  0
LINE
  8
0
 10
-3.13342
 20
75.0753
 11
-3.39818
 21
75.1088
  0
LINE
  8
0
 10
-3.39818
 20
75.1088
 11
-3.65665
 21
75.1752
  0
LINE
  8
0
 10
-3.65665
 20
75.1752
 11
-3.90477
 21
75.2734
  0
LINE
  8
0
 10
-3.90477
 20
75.2734
 11
-4.13863
 21
75.4019
  0
LINE
  8
0
 10
-4.13863
 20
75.4019
 11
-4.35452
 21
75.5588
  0
LINE
  8
0
 10
-4.35452
 20
75.5588
 11
-4.54906
 21
75.7415
  0
LINE
  8
0
 10
-4.54906
 20
75.7415
 11
-4.71915
 21
75.9471
  0
LINE
  8
0
 10
-4.71915
 20
75.9471
 11
-4.86214
 21
76.1724
  0
LINE
  8
0
 10
-4.86214
 20
76.1724
 11
-4.97577
 21
76.4139
  0
LINE
  8
0
 10
-4.97577
 20
76.4139
 11
-5.05823
 21
76.6677
  0
LINE
  8
0
 10
-5.05823
 20
76.6677
 11
-5.10823
 21
76.9298
  0
LINE
  8
0
 10
-5.10823
 20
76.9298
 11
-5.125
 21
77.1962
  0
LINE
  8
0
 10
-5.125
 20
77.1962
 11
-5.10823
 21
77.4625
  0
LINE
  8
0
 10
-5.10823
 20
77.4625
 11
-5.05823
 21
77.7246
  0
LINE
  8
0
 10
-5.05823
 20
77.7246
 11
-4.97577
 21
77.9784
  0
LINE
  8
0
 10
-4.97577
 20
77.9784
 11
-4.86214
 21
78.2199
  0
LINE
  8
0
 10
-4.86214
 20
78.2199
 11
-4.71915
 21
78.4452
  0
LINE
  8
0
 10
-4.71915
 20
78.4452
 11
-4.54906
 21
78.6508
  0
LINE
  8
0
 10
-4.54906
 20
78.6508
 11
-4.35452
 21
78.8335
  0
LINE
  8
0
 10
-4.35452
 20
78.8335
 11
-4.13863
 21
78.9903
  0
LINE
  8
0
 10
-4.13863
 20
78.9903
 11
-4.08864
 21
79.0178
  0
LINE
  8
0
 10
-4.08864
 20
79.0178
 11
-3.27916
 21
78.81
  0
LINE
  8
0
 10
-3.27916
 20
78.81
 11
-1.38463
 21
78.5706
  0
LINE
  8
0
 10
-1.38463
 20
78.5706
 11
-1.28084
 21
78.4452
  0
LINE
  8
0
 10
-1.28084
 20
78.4452
 11
-1.13785
 21
78.2199
  0
LINE
  8
0
 10
-1.13785
 20
78.2199
 11
-1.02422
 21
77.9784
  0
LINE
  8
0
 10
-1.02422
 20
77.9784
 11
-0.941757
 21
77.7246
  0
LINE
  8
0
 10
-0.941757
 20
77.7246
 11
-0.891754
 21
77.4625
  0
LINE
  8
0
 10
-0.891754
 20
77.4625
 11
-0.875
 21
77.1962
  0
LINE
  8
0
 10
-0.875
 20
77.1962
 11
-0.891754
 21
76.9298
  0
LINE
  8
0
 10
-0.891754
 20
76.9298
 11
-0.941757
 21
76.6677
  0
LINE
  8
0
 10
-0.941757
 20
76.6677
 11
-1.02422
 21
76.4139
  0
LINE
  8
0
 10
-1.02422
 20
76.4139
 11
-1.13785
 21
76.1724
  0
LINE
  8
0
 10
-1.13785
 20
76.1724
 11
-1.28084
 21
75.9471
  0
LINE
  8
0
 10
-1.28084
 20
75.9471
 11
-1.45093
 21
75.7415
  0
LINE
  8
0
 10
-1.45093
 20
75.7415
 11
-1.64546
 21
75.5588
  0
LINE
  8
0
 10
-1.64546
 20
75.5588
 11
-1.86136
 21
75.4019
  0
LINE
  8
0
 10
-1.86136
 20
75.4019
 11
-2.09521
 21
75.2734
  0
LINE
  8
0
 10
-2.09521
 20
75.2734
 11
-2.34334
 21
75.1752
  0
LINE
  8
0
 10
-2.34334
 20
75.1752
 11
-2.60181
 21
75.1088
  0
LINE
  8
0
 10
-2.60181
 20
75.1088
 11
-2.86656
 21
75.0753
  0
LINE
  8
0
 10
-2.86656
 20
75.0753
 11
-3.13342
 21
75.0753
  0
LINE
  8
0
 10
5.86656
 20
69.8792
 11
5.60181
 21
69.9126
  0
LINE
  8
0
 10
5.60181
 20
69.9126
 11
5.34334
 21
69.979
  0
LINE
  8
0
 10
5.34334
 20
69.979
 11
5.09521
 21
70.0773
  0
LINE
  8
0
 10
5.09521
 20
70.0773
 11
4.86136
 21
70.2058
  0
LINE
  8
0
 10
4.86136
 20
70.2058
 11
4.64546
 21
70.3627
  0
LINE
  8
0
 10
4.64546
 20
70.3627
 11
4.45093
 21
70.5453
  0
LINE
  8
0
 10
4.45093
 20
70.5453
 11
4.28084
 21
70.751
  0
LINE
  8
0
 10
4.28084
 20
70.751
 11
4.13785
 21
70.9763
  0
LINE
  8
0
 10
4.13785
 20
70.9763
 11
4.02422
 21
71.2177
  0
LINE
  8
0
 10
4.02422
 20
71.2177
 11
3.94176
 21
71.4715
  0
LINE
  8
0
 10
3.94176
 20
71.4715
 11
3.89175
 21
71.7337
  0
LINE
  8
0
 10
3.89175
 20
71.7337
 11
3.875
 21
72
  0
LINE
  8
0
 10
3.875
 20
72
 11
3.89175
 21
72.2663
  0
LINE
  8
0
 10
3.89175
 20
72.2663
 11
3.94176
 21
72.5285
  0
LINE
  8
0
 10
3.94176
 20
72.5285
 11
4.02422
 21
72.7823
  0
LINE
  8
0
 10
4.02422
 20
72.7823
 11
4.13785
 21
73.0237
  0
LINE
  8
0
 10
4.13785
 20
73.0237
 11
4.28084
 21
73.249
  0
LINE
  8
0
 10
4.28084
 20
73.249
 11
4.45093
 21
73.4547
  0
LINE
  8
0
 10
4.45093
 20
73.4547
 11
4.64546
 21
73.6373
  0
LINE
  8
0
 10
4.64546
 20
73.6373
 11
4.86136
 21
73.7942
  0
LINE
  8
0
 10
4.86136
 20
73.7942
 11
5.09521
 21
73.9227
  0
LINE
  8
0
 10
5.09521
 20
73.9227
 11
5.34334
 21
74.021
  0
LINE
  8
0
 10
5.34334
 20
74.021
 11
5.60181
 21
74.0874
  0
LINE
  8
0
 10
5.60181
 20
74.0874
 11
5.86656
 21
74.1208
  0
LINE
  8
0
 10
5.86656
 20
74.1208
 11
6.13342
 21
74.1208
  0
LINE
  8
0
 10
6.13342
 20
74.1208
 11
6.39818
 21
74.0874
  0
LINE
  8
0
 10
6.39818
 20
74.0874
 11
6.65665
 21
74.021
  0
LINE
  8
0
 10
6.65665
 20
74.021
 11
6.90477
 21
73.9227
  0
LINE
  8
0
 10
6.90477
 20
73.9227
 11
7.13863
 21
73.7942
  0
LINE
  8
0
 10
7.13863
 20
73.7942
 11
7.35452
 21
73.6373
  0
LINE
  8
0
 10
7.35452
 20
73.6373
 11
7.54906
 21
73.4547
  0
LINE
  8
0
 10
7.54906
 20
73.4547
 11
7.71915
 21
73.249
  0
LINE
  8
0
 10
7.71915
 20
73.249
 11
7.86214
 21
73.0237
  0
LINE
  8
0
 10
7.86214
 20
73.0237
 11
7.97577
 21
72.7823
  0
LINE
  8
0
 10
7.97577
 20
72.7823
 11
8.05823
 21
72.5285
  0
LINE
  8
0
 10
8.05823
 20
72.5285
 11
8.10823
 21
72.2663
  0
LINE
  8
0
 10
8.10823
 20
72.2663
 11
8.125
 21
72
  0
LINE
  8
0
 10
8.125
 20
72
 11
8.10823
 21
71.7337
  0
LINE
  8
0
 10
8.10823
 20
71.7337
 11
8.05823
 21
71.4715
  0
LINE
  8
0
 10
8.05823
 20
71.4715
 11
7.97577
 21
71.2177
  0
LINE
  8
0
 10
7.97577
 20
71.2177
 11
7.86214
 21
70.9763
  0
LINE
  8
0
 10
7.86214
 20
70.9763
 11
7.71915
 21
70.751
  0
LINE
  8
0
 10
7.71915
 20
70.751
 11
7.54906
 21
70.5453
  0
LINE
  8
0
 10
7.54906
 20
70.5453
 11
7.35452
 21
70.3627
  0
LINE
  8
0
 10
7.35452
 20
70.3627
 11
7.13863
 21
70.2058
  0
LINE
  8
0
 10
7.13863
 20
70.2058
 11
6.90477
 21
70.0773
  0
LINE
  8
0
 10
6.90477
 20
70.0773
 11
6.65665
 21
69.979
  0
LINE
  8
0
 10
6.65665
 20
69.979
 11
6.39818
 21
69.9126
  0
LINE
  8
0
 10
6.39818
 20
69.9126
 11
6.13342
 21
69.8792
  0
LINE
  8
0
 10
6.13342
 20
69.8792
 11
5.86656
 21
69.8792
  0
LINE
  8
0
 10
-3.13342
 20
64.683
 11
-3.39818
 21
64.7165
  0
LINE
  8
0
 10
-3.39818
 20
64.7165
 11
-3.65665
 21
64.7829
  0
LINE
  8
0
 10
-3.65665
 20
64.7829
 11
-3.90477
 21
64.8811
  0
LINE
  8
0
 10
-3.90477
 20
64.8811
 11
-4.13863
 21
65.0097
  0
LINE
  8
0
 10
-4.13863
 20
65.0097
 11
-4.35452
 21
65.1665
  0
LINE
  8
0
 10
-4.35452
 20
65.1665
 11
-4.54906
 21
65.3492
  0
LINE
  8
0
 10
-4.54906
 20
65.3492
 11
-4.71915
 21
65.5548
  0
LINE
  8
0
 10
-4.71915
 20
65.5548
 11
-4.86214
 21
65.7801
  0
LINE
  8
0
 10
-4.86214
 20
65.7801
 11
-4.97577
 21
66.0216
  0
LINE
  8
0
 10
-4.97577
 20
66.0216
 11
-5.05823
 21
66.2754
  0
LINE
  8
0
 10
-5.05823
 20
66.2754
 11
-5.10823
 21
66.5375
  0
LINE
  8
0
 10
-5.10823
 20
66.5375
 11
-5.125
 21
66.8038
  0
LINE
  8
0
 10
-5.125
 20
66.8038
 11
-5.10823
 21
67.0702
  0
LINE
  8
0
 10
-5.10823
 20
67.0702
 11
-5.05823
 21
67.3323
  0
LINE
  8
0
 10
-5.05823
 20
67.3323
 11
-4.97577
 21
67.5861
  0
LINE
  8
0
 10
-4.97577
 20
67.5861
 11
-4.86214
 21
67.8276
  0
LINE
  8
0
 10
-4.86214
 20
67.8276
 11
-4.71915
 21
68.0529
  0
LINE
  8
0
 10
-4.71915
 20
68.0529
 11
-4.54906
 21
68.2585
  0
LINE
  8
0
 10
-4.54906
 20
68.2585
 11
-4.35452
 21
68.4412
  0
LINE
  8
0
 10
-4.35452
 20
68.4412
 11
-4.13863
 21
68.5981
  0
LINE
  8
0
 10
-4.13863
 20
68.5981
 11
-3.90477
 21
68.7266
  0
LINE
  8
0
 10
-3.90477
 20
68.7266
 11
-3.65665
 21
68.8248
  0
LINE
  8
0
 10
-3.65665
 20
68.8248
 11
-3.39818
 21
68.8912
  0
LINE
  8
0
 10
-3.39818
 20
68.8912
 11
-3.13342
 21
68.9247
  0
LINE
  8
0
 10
-3.13342
 20
68.9247
 11
-2.86656
 21
68.9247
  0
LINE
  8
0
 10
-2.86656
 20
68.9247
 11
-2.60181
 21
68.8912
  0
LINE
  8
0
 10
-2.60181
 20
68.8912
 11
-2.34334
 21
68.8248
  0
LINE
  8
0
 10
-2.34334
 20
68.8248
 11
-2.09521
 21
68.7266
  0
LINE
  8
0
 10
-2.09521
 20
68.7266
 11
-1.86136
 21
68.5981
  0
LINE
  8
0
 10
-1.86136
 20
68.5981
 11
-1.64546
 21
68.4412
  0
LINE
  8
0
 10
-1.64546
 20
68.4412
 11
-1.45093
 21
68.2585
  0
LINE
  8
0
 10
-1.45093
 20
68.2585
 11
-1.28084
 21
68.0529
  0
LINE
  8
0
 10
-1.28084
 20
68.0529
 11
-1.13785
 21
67.8276
  0
LINE
  8
0
 10
-1.13785
 20
67.8276
 11
-1.02422
 21
67.5861
  0
LINE
  8
0
 10
-1.02422
 20
67.5861
 11
-0.941757
 21
67.3323
  0
LINE
  8
0
 10
-0.941757
 20
67.3323
 11
-0.891754
 21
67.0702
  0
LINE
  8
0
 10
-0.891754
 20
67.0702
 11
-0.875
 21
66.8038
  0
LINE
  8
0
 10
-0.875
 20
66.8038
 11
-0.891754
 21
66.5375
  0
LINE
  8
0
 10
-0.891754
 20
66.5375
 11
-0.941757
 21
66.2754
  0
LINE
  8
0
 10
-0.941757
 20
66.2754
 11
-1.02422
 21
66.0216
  0
LINE
  8
0
 10
-1.02422
 20
66.0216
 11
-1.13785
 21
65.7801
  0
LINE
  8
0
 10
-1.13785
 20
65.7801
 11
-1.28084
 21
65.5548
  0
LINE
  8
0
 10
-1.28084
 20
65.5548
 11
-1.45093
 21
65.3492
  0
LINE
  8
0
 10
-1.45093
 20
65.3492
 11
-1.64546
 21
65.1665
  0
LINE
  8
0
 10
-1.64546
 20
65.1665
 11
-1.86136
 21
65.0097
  0
LINE
  8
0
 10
-1.86136
 20
65.0097
 11
-2.09521
 21
64.8811
  0
LINE
  8
0
 10
-2.09521
 20
64.8811
 11
-2.34334
 21
64.7829
  0
LINE
  8
0
 10
-2.34334
 20
64.7829
 11
-2.60181
 21
64.7165
  0
LINE
  8
0
 10
-2.60181
 20
64.7165
 11
-2.86656
 21
64.683
  0
LINE
  8
0
 10
-2.86656
 20
64.683
 11
-3.13342
 21
64.683
  0
LINE
  8
0
 10
-3.13342
 20
51.0753
 11
-3.39818
 21
51.1088
  0
LINE
  8
0
 10
-3.39818
 20
51.1088
 11
-3.65665
 21
51.1752
  0
LINE
  8
0
 10
-3.65665
 20
51.1752
 11
-3.90477
 21
51.2734
  0
LINE
  8
0
 10
-3.90477
 20
51.2734
 11
-4.13863
 21
51.4019
  0
LINE
  8
0
 10
-4.13863
 20
51.4019
 11
-4.35452
 21
51.5588
  0
LINE
  8
0
 10
-4.35452
 20
51.5588
 11
-4.54906
 21
51.7415
  0
LINE
  8
0
 10
-4.54906
 20
51.7415
 11
-4.71915
 21
51.9471
  0
LINE
  8
0
 10
-4.71915
 20
51.9471
 11
-4.86214
 21
52.1724
  0
LINE
  8
0
 10
-4.86214
 20
52.1724
 11
-4.97577
 21
52.4139
  0
LINE
  8
0
 10
-4.97577
 20
52.4139
 11
-5.05823
 21
52.6677
  0
LINE
  8
0
 10
-5.05823
 20
52.6677
 11
-5.10823
 21
52.9298
  0
LINE
  8
0
 10
-5.10823
 20
52.9298
 11
-5.125
 21
53.1962
  0
LINE
  8
0
 10
-5.125
 20
53.1962
 11
-5.10823
 21
53.4625
  0
LINE
  8
0
 10
-5.10823
 20
53.4625
 11
-5.05823
 21
53.7246
  0
LINE
  8
0
 10
-5.05823
 20
53.7246
 11
-4.97577
 21
53.9784
  0
LINE
  8
0
 10
-4.97577
 20
53.9784
 11
-4.86214
 21
54.2199
  0
LINE
  8
0
 10
-4.86214
 20
54.2199
 11
-4.71915
 21
54.4452
  0
LINE
  8
0
 10
-4.71915
 20
54.4452
 11
-4.54906
 21
54.6508
  0
LINE
  8
0
 10
-4.54906
 20
54.6508
 11
-4.35452
 21
54.8335
  0
LINE
  8
0
 10
-4.35452
 20
54.8335
 11
-4.13863
 21
54.9903
  0
LINE
  8
0
 10
-4.13863
 20
54.9903
 11
-4.08864
 21
55.0178
  0
LINE
  8
0
 10
-4.08864
 20
55.0178
 11
-3.27916
 21
54.81
  0
LINE
  8
0
 10
-3.27916
 20
54.81
 11
-1.38463
 21
54.5706
  0
LINE
  8
0
 10
-1.38463
 20
54.5706
 11
-1.28084
 21
54.4452
  0
LINE
  8
0
 10
-1.28084
 20
54.4452
 11
-1.13785
 21
54.2199
  0
LINE
  8
0
 10
-1.13785
 20
54.2199
 11
-1.02422
 21
53.9784
  0
LINE
  8
0
 10
-1.02422
 20
53.9784
 11
-0.941757
 21
53.7246
  0
LINE
  8
0
 10
-0.941757
 20
53.7246
 11
-0.891754
 21
53.4625
  0
LINE
  8
0
 10
-0.891754
 20
53.4625
 11
-0.875
 21
53.1962
  0
LINE
  8
0
 10
-0.875
 20
53.1962
 11
-0.891754
 21
52.9298
  0
LINE
  8
0
 10
-0.891754
 20
52.9298
 11
-0.941757
 21
52.6677
  0
LINE
  8
0
 10
-0.941757
 20
52.6677
 11
-1.02422
 21
52.4139
  0
LINE
  8
0
 10
-1.02422
 20
52.4139
 11
-1.13785
 21
52.1724
  0
LINE
  8
0
 10
-1.13785
 20
52.1724
 11
-1.28084
 21
51.9471
  0
LINE
  8
0
 10
-1.28084
 20
51.9471
 11
-1.45093
 21
51.7415
  0
LINE
  8
0
 10
-1.45093
 20
51.7415
 11
-1.64546
 21
51.5588
  0
LINE
  8
0
 10
-1.64546
 20
51.5588
 11
-1.86136
 21
51.4019
  0
LINE
  8
0
 10
-1.86136
 20
51.4019
 11
-2.09521
 21
51.2734
  0
LINE
  8
0
 10
-2.09521
 20
51.2734
 11
-2.34334
 21
51.1752
  0
LINE
  8
0
 10
-2.34334
 20
51.1752
 11
-2.60181
 21
51.1088
  0
LINE
  8
0
 10
-2.60181
 20
51.1088
 11
-2.86656
 21
51.0753
  0
LINE
  8
0
 10
-2.86656
 20
51.0753
 11
-3.13342
 21
51.0753
  0
LINE
  8
0
 10
5.86656
 20
45.8792
 11
5.60181
 21
45.9126
  0
LINE
  8
0
 10
5.60181
 20
45.9126
 11
5.34334
 21
45.979
  0
LINE
  8
0
 10
5.34334
 20
45.979
 11
5.09521
 21
46.0773
  0
LINE
  8
0
 10
5.09521
 20
46.0773
 11
4.86136
 21
46.2058
  0
LINE
  8
0
 10
4.86136
 20
46.2058
 11
4.64546
 21
46.3627
  0
LINE
  8
0
 10
4.64546
 20
46.3627
 11
4.45093
 21
46.5453
  0
LINE
  8
0
 10
4.45093
 20
46.5453
 11
4.28084
 21
46.751
  0
LINE
  8
0
 10
4.28084
 20
46.751
 11
4.13785
 21
46.9763
  0
LINE
  8
0
 10
4.13785
 20
46.9763
 11
4.02422
 21
47.2177
  0
LINE
  8
0
 10
4.02422
 20
47.2177
 11
3.94176
 21
47.4715
  0
LINE
  8
0
 10
3.94176
 20
47.4715
 11
3.89175
 21
47.7337
  0
LINE
  8
0
 10
3.89175
 20
47.7337
 11
3.875
 21
48
  0
LINE
  8
0
 10
3.875
 20
48
 11
3.89175
 21
48.2663
  0
LINE
  8
0
 10
3.89175
 20
48.2663
 11
3.94176
 21
48.5285
  0
LINE
  8
0
 10
3.94176
 20
48.5285
 11
4.02422
 21
48.7823
  0
LINE
  8
0
 10
4.02422
 20
48.7823
 11
4.13785
 21
49.0237
  0
LINE
  8
0
 10
4.13785
 20
49.0237
 11
4.28084
 21
49.249
  0
LINE
  8
0
 10
4.28084
 20
49.249
 11
4.45093
 21
49.4547
  0
LINE
  8
0
 10
4.45093
 20
49.4547
 11
4.64546
 21
49.6373
  0
LINE
  8
0
 10
4.64546
 20
49.6373
 11
4.86136
 21
49.7942
  0
LINE
  8
0
 10
4.86136
 20
49.7942
 11
5.09521
 21
49.9227
  0
LINE
  8
0
 10
5.09521
 20
49.9227
 11
5.34334
 21
50.021
  0
LINE
  8
0
 10
5.34334
 20
50.021
 11
5.60181
 21
50.0874
  0
LINE
  8
0
 10
5.60181
 20
50.0874
 11
5.86656
 21
50.1208
  0
LINE
  8
0
 10
5.86656
 20
50.1208
 11
6.13342
 21
50.1208
  0
LINE
  8
0
 10
6.13342
 20
50.1208
 11
6.39818
 21
50.0874
  0
LINE
  8
0
 10
6.39818
 20
50.0874
 11
6.65665
 21
50.021
  0
LINE
  8
0
 10
6.65665
 20
50.021
 11
6.90477
 21
49.9227
  0
LINE
  8
0
 10
6.90477
 20
49.9227
 11
7.13863
 21
49.7942
  0
LINE
  8
0
 10
7.13863
 20
49.7942
 11
7.35452
 21
49.6373
  0
LINE
  8
0
 10
7.35452
 20
49.6373
 11
7.54906
 21
49.4547
  0
LINE
  8
0
 10
7.54906
 20
49.4547
 11
7.71915
 21
49.249
  0
LINE
  8
0
 10
7.71915
 20
49.249
 11
7.86214
 21
49.0237
  0
LINE
  8
0
 10
7.86214
 20
49.0237
 11
7.97577
 21
48.7823
  0
LINE
  8
0
 10
7.97577
 20
48.7823
 11
8.05823
 21
48.5285
  0
LINE
  8
0
 10
8.05823
 20
48.5285
 11
8.10823
 21
48.2663
  0
LINE
  8
0
 10
8.10823
 20
48.2663
 11
8.125
 21
48
  0
LINE
  8
0
 10
8.125
 20
48
 11
8.10823
 21
47.7337
  0
LINE
  8
0
 10
8.10823
 20
47.7337
 11
8.05823
 21
47.4715
  0
LINE
  8
0
 10
8.05823
 20
47.4715
 11
7.97577
 21
47.2177
  0
LINE
  8
0
 10
7.97577
 20
47.2177
 11
7.86214
 21
46.9763
  0
LINE
  8
0
 10
7.86214
 20
46.9763
 11
7.71915
 21
46.751
  0
LINE
  8
0
 10
7.71915
 20
46.751
 11
7.54906
 21
46.5453
  0
LINE
  8
0
 10
7.54906
 20
46.5453
 11
7.35452
 21
46.3627
  0
LINE
  8
0
 10
7.35452
 20
46.3627
 11
7.13863
 21
46.2058
  0
LINE
  8
0
 10
7.13863
 20
46.2058
 11
6.90477
 21
46.0773
  0
LINE
  8
0
 10
6.90477
 20
46.0773
 11
6.65665
 21
45.979
  0
LINE
  8
0
 10
6.65665
 20
45.979
 11
6.39818
 21
45.9126
  0
LINE
  8
0
 10
6.39818
 20
45.9126
 11
6.13342
 21
45.8792
  0
LINE
  8
0
 10
6.13342
 20
45.8792
 11
5.86656
 21
45.8792
  0
LINE
  8
0
 10
-3.13342
 20
40.683
 11
-3.39818
 21
40.7165
  0
LINE
  8
0
 10
-3.39818
 20
40.7165
 11
-3.65665
 21
40.7829
  0
LINE
  8
0
 10
-3.65665
 20
40.7829
 11
-3.90477
 21
40.8811
  0
LINE
  8
0
 10
-3.90477
 20
40.8811
 11
-4.13863
 21
41.0097
  0
LINE
  8
0
 10
-4.13863
 20
41.0097
 11
-4.35452
 21
41.1665
  0
LINE
  8
0
 10
-4.35452
 20
41.1665
 11
-4.54906
 21
41.3492
  0
LINE
  8
0
 10
-4.54906
 20
41.3492
 11
-4.71915
 21
41.5548
  0
LINE
  8
0
 10
-4.71915
 20
41.5548
 11
-4.86214
 21
41.7801
  0
LINE
  8
0
 10
-4.86214
 20
41.7801
 11
-4.97577
 21
42.0216
  0
LINE
  8
0
 10
-4.97577
 20
42.0216
 11
-5.05823
 21
42.2754
  0
LINE
  8
0
 10
-5.05823
 20
42.2754
 11
-5.10823
 21
42.5375
  0
LINE
  8
0
 10
-5.10823
 20
42.5375
 11
-5.125
 21
42.8038
  0
LINE
  8
0
 10
-5.125
 20
42.8038
 11
-5.10823
 21
43.0702
  0
LINE
  8
0
 10
-5.10823
 20
43.0702
 11
-5.05823
 21
43.3323
  0
LINE
  8
0
 10
-5.05823
 20
43.3323
 11
-4.97577
 21
43.5861
  0
LINE
  8
0
 10
-4.97577
 20
43.5861
 11
-4.86214
 21
43.8276
  0
LINE
  8
0
 10
-4.86214
 20
43.8276
 11
-4.71915
 21
44.0529
  0
LINE
  8
0
 10
-4.71915
 20
44.0529
 11
-4.54906
 21
44.2585
  0
LINE
  8
0
 10
-4.54906
 20
44.2585
 11
-4.35452
 21
44.4412
  0
LINE
  8
0
 10
-4.35452
 20
44.4412
 11
-4.13863
 21
44.5981
  0
LINE
  8
0
 10
-4.13863
 20
44.5981
 11
-3.90477
 21
44.7266
  0
LINE
  8
0
 10
-3.90477
 20
44.7266
 11
-3.65665
 21
44.8248
  0
LINE
  8
0
 10
-3.65665
 20
44.8248
 11
-3.39818
 21
44.8912
  0
LINE
  8
0
 10
-3.39818
 20
44.8912
 11
-3.13342
 21
44.9247
  0
LINE
  8
0
 10
-3.13342
 20
44.9247
 11
-2.86656
 21
44.9247
  0
LINE
  8
0
 10
-2.86656
 20
44.9247
 11
-2.60181
 21
44.8912
  0
LINE
  8
0
 10
-2.60181
 20
44.8912
 11
-2.34334
 21
44.8248
  0
LINE
  8
0
 10
-2.34334
 20
44.8248
 11
-2.09521
 21
44.7266
  0
LINE
  8
0
 10
-2.09521
 20
44.7266
 11
-1.86136
 21
44.5981
  0
LINE
  8
0
 10
-1.86136
 20
44.5981
 11
-1.64546
 21
44.4412
  0
LINE
  8
0
 10
-1.64546
 20
44.4412
 11
-1.45093
 21
44.2585
  0
LINE
  8
0
 10
-1.45093
 20
44.2585
 11
-1.28084
 21
44.0529
  0
LINE
  8
0
 10
-1.28084
 20
44.0529
 11
-1.13785
 21
43.8276
  0
LINE
  8
0
 10
-1.13785
 20
43.8276
 11
-1.02422
 21
43.5861
  0
LINE
  8
0
 10
-1.02422
 20
43.5861
 11
-0.941757
 21
43.3323
  0
LINE
  8
0
 10
-0.941757
 20
43.3323
 11
-0.891754
 21
43.0702
  0
LINE
  8
0
 10
-0.891754
 20
43.0702
 11
-0.875
 21
42.8038
  0
LINE
  8
0
 10
-0.875
 20
42.8038
 11
-0.891754
 21
42.5375
  0
LINE
  8
0
 10
-0.891754
 20
42.5375
 11
-0.941757
 21
42.2754
  0
LINE
  8
0
 10
-0.941757
 20
42.2754
 11
-1.02422
 21
42.0216
  0
LINE
  8
0
 10
-1.02422
 20
42.0216
 11
-1.13785
 21
41.7801
  0
LINE
  8
0
 10
-1.13785
 20
41.7801
 11
-1.28084
 21
41.5548
  0
LINE
  8
0
 10
-1.28084
 20
41.5548
 11
-1.45093
 21
41.3492
  0
LINE
  8
0
 10
-1.45093
 20
41.3492
 11
-1.64546
 21
41.1665
  0
LINE
  8
0
 10
-1.64546
 20
41.1665
 11
-1.86136
 21
41.0097
  0
LINE
  8
0
 10
-1.86136
 20
41.0097
 11
-2.09521
 21
40.8811
  0
LINE
  8
0
 10
-2.09521
 20
40.8811
 11
-2.34334
 21
40.7829
  0
LINE
  8
0
 10
-2.34334
 20
40.7829
 11
-2.60181
 21
40.7165
  0
LINE
  8
0
 10
-2.60181
 20
40.7165
 11
-2.86656
 21
40.683
  0
LINE
  8
0
 10
-2.86656
 20
40.683
 11
-3.13342
 21
40.683
  0
LINE
  8
0
 10
1.87381
 20
14.1771
 11
3.09016
 21
14.4894
  0
LINE
  8
0
 10
3.09016
 20
14.4894
 11
4.25778
 21
14.9517
  0
LINE
  8
0
 10
4.25778
 20
14.9517
 11
5.35826
 21
15.5567
  0
LINE
  8
0
 10
5.35826
 20
15.5567
 11
6.37424
 21
16.2949
  0
LINE
  8
0
 10
6.37424
 20
16.2949
 11
7.28967
 21
17.1545
  0
LINE
  8
0
 10
7.28967
 20
17.1545
 11
8.09016
 21
18.1222
  0
LINE
  8
0
 10
8.09016
 20
18.1222
 11
8.76306
 21
19.1825
  0
LINE
  8
0
 10
8.76306
 20
19.1825
 11
9.29776
 21
20.3188
  0
LINE
  8
0
 10
9.29776
 20
20.3188
 11
9.68582
 21
21.5131
  0
LINE
  8
0
 10
9.68582
 20
21.5131
 11
9.92114
 21
22.7467
  0
LINE
  8
0
 10
9.92114
 20
22.7467
 11
10
 21
24
  0
LINE
  8
0
 10
10
 20
24
 11
9.92114
 21
25.2533
  0
LINE
  8
0
 10
9.92114
 20
25.2533
 11
9.68582
 21
26.4869
  0
LINE
  8
0
 10
9.68582
 20
26.4869
 11
9.29776
 21
27.6812
  0
LINE
  8
0
 10
9.29776
 20
27.6812
 11
8.76306
 21
28.8175
  0
LINE
  8
0
 10
8.76306
 20
28.8175
 11
8.09016
 21
29.8778
  0
LINE
  8
0
 10
8.09016
 20
29.8778
 11
7.28967
 21
30.8455
  0
LINE
  8
0
 10
7.28967
 20
30.8455
 11
6.37424
 21
31.7051
  0
LINE
  8
0
 10
6.37424
 20
31.7051
 11
5.35826
 21
32.4433
  0
LINE
  8
0
 10
5.35826
 20
32.4433
 11
4.25778
 21
33.0483
  0
LINE
  8
0
 10
4.25778
 20
33.0483
 11
3.09016
 21
33.5106
  0
LINE
  8
0
 10
3.09016
 20
33.5106
 11
1.87381
 21
33.8229
  0
LINE
  8
0
 10
1.87381
 20
33.8229
 11
0.627899
 21
33.9803
  0
LINE
  8
0
 10
0.627899
 20
33.9803
 11
-0.627899
 21
33.9803
  0
LINE
  8
0
 10
-0.627899
 20
33.9803
 11
-1.87381
 21
33.8229
  0
LINE
  8
0
 10
-1.87381
 20
33.8229
 11
-3.09016
 21
33.5106
  0
LINE
  8
0
 10
-3.09016
 20
33.5106
 11
-4.25778
 21
33.0483
  0
LINE
  8
0
 10
-4.25778
 20
33.0483
 11
-5.35826
 21
32.4433
  0
LINE
  8
0
 10
-5.35826
 20
32.4433
 11
-6.37424
 21
31.7051
  0
LINE
  8
0
 10
-6.37424
 20
31.7051
 11
-7.28967
 21
30.8455
  0
LINE
  8
0
 10
-7.28967
 20
30.8455
 11
-8.09016
 21
29.8778
  0
LINE
  8
0
 10
-8.09016
 20
29.8778
 11
-8.76306
 21
28.8175
  0
LINE
  8
0
 10
-8.76306
 20
28.8175
 11
-9.29776
 21
27.6812
  0
LINE
  8
0
 10
-9.29776
 20
27.6812
 11
-9.68582
 21
26.4869
  0
LINE
  8
0
 10
-9.68582
 20
26.4869
 11
-9.92114
 21
25.2533
  0
LINE
  8
0
 10
-9.92114
 20
25.2533
 11
-10
 21
24
  0
LINE
  8
0
 10
-10
 20
24
 11
-9.92114
 21
22.7467
  0
LINE
  8
0
 10
-9.92114
 20
22.7467
 11
-9.68582
 21
21.5131
  0
LINE
  8
0
 10
-9.68582
 20
21.5131
 11
-9.29776
 21
20.3188
  0
LINE
  8
0
 10
-9.29776
 20
20.3188
 11
-8.76306
 21
19.1825
  0
LINE
  8
0
 10
-8.76306
 20
19.1825
 11
-8.09016
 21
18.1222
  0
LINE
  8
0
 10
-8.09016
 20
18.1222
 11
-7.28967
 21
17.1545
  0
LINE
  8
0
 10
-7.28967
 20
17.1545
 11
-6.37424
 21
16.2949
  0
LINE
  8
0
 10
-6.37424
 20
16.2949
 11
-5.35826
 21
15.5567
  0
LINE
  8
0
 10
-5.35826
 20
15.5567
 11
-4.25778
 21
14.9517
  0
LINE
  8
0
 10
-4.25778
 20
14.9517
 11
-3.09016
 21
14.4894
  0
LINE
  8
0
 10
-3.09016
 20
14.4894
 11
-1.87381
 21
14.1771
  0
LINE
  8
0
 10
-1.87381
 20
14.1771
 11
-0.627899
 21
14.0197
  0
LINE
  8
0
 10
-0.627899
 20
14.0197
 11
0.627899
 21
14.0197
  0
LINE
  8
0
 10
0.627899
 20
14.0197
 11
1.87381
 21
14.1771
  0
LINE
  8
0
 10
-3.13342
 20
27.0753
 11
-3.39818
 21
27.1088
  0
LINE
  8
0
 10
-3.39818
 20
27.1088
 11
-3.65665
 21
27.1752
  0
LINE
  8
0
 10
-3.65665
 20
27.1752
 11
-3.90477
 21
27.2734
  0
LINE
  8
0
 10
-3.90477
 20
27.2734
 11
-4.13863
 21
27.4019
  0
LINE
  8
0
 10
-4.13863
 20
27.4019
 11
-4.35452
 21
27.5588
  0
LINE
  8
0
 10
-4.35452
 20
27.5588
 11
-4.54906
 21
27.7415
  0
LINE
  8
0
 10
-4.54906
 20
27.7415
 11
-4.71915
 21
27.9471
  0
LINE
  8
0
 10
-4.71915
 20
27.9471
 11
-4.86214
 21
28.1724
  0
LINE
  8
0
 10
-4.86214
 20
28.1724
 11
-4.97577
 21
28.4139
  0
LINE
  8
0
 10
-4.97577
 20
28.4139
 11
-5.05823
 21
28.6677
  0
LINE
  8
0
 10
-5.05823
 20
28.6677
 11
-5.10823
 21
28.9298
  0
LINE
  8
0
 10
-5.10823
 20
28.9298
 11
-5.125
 21
29.1962
  0
LINE
  8
0
 10
-5.125
 20
29.1962
 11
-5.10823
 21
29.4625
  0
LINE
  8
0
 10
-5.10823
 20
29.4625
 11
-5.05823
 21
29.7246
  0
LINE
  8
0
 10
-5.05823
 20
29.7246
 11
-4.97577
 21
29.9784
  0
LINE
  8
0
 10
-4.97577
 20
29.9784
 11
-4.86214
 21
30.2199
  0
LINE
  8
0
 10
-4.86214
 20
30.2199
 11
-4.71915
 21
30.4452
  0
LINE
  8
0
 10
-4.71915
 20
30.4452
 11
-4.54906
 21
30.6508
  0
LINE
  8
0
 10
-4.54906
 20
30.6508
 11
-4.35452
 21
30.8335
  0
LINE
  8
0
 10
-4.35452
 20
30.8335
 11
-4.13863
 21
30.9903
  0
LINE
  8
0
 10
-4.13863
 20
30.9903
 11
-3.90477
 21
31.1189
  0
LINE
  8
0
 10
-3.90477
 20
31.1189
 11
-3.65665
 21
31.2171
  0
LINE
  8
0
 10
-3.65665
 20
31.2171
 11
-3.39818
 21
31.2835
  0
LINE
  8
0
 10
-3.39818
 20
31.2835
 11
-3.13342
 21
31.317
  0
LINE
  8
0
 10
-3.13342
 20
31.317
 11
-2.86656
 21
31.317
  0
LINE
  8
0
 10
-2.86656
 20
31.317
 11
-2.60181
 21
31.2835
  0
LINE
  8
0
 10
-2.60181
 20
31.2835
 11
-2.34334
 21
31.2171
  0
LINE
  8
0
 10
-2.34334
 20
31.2171
 11
-2.09521
 21
31.1189
  0
LINE
  8
0
 10
-2.09521
 20
31.1189
 11
-1.86136
 21
30.9903
  0
LINE
  8
0
 10
-1.86136
 20
30.9903
 11
-1.64546
 21
30.8335
  0
LINE
  8
0
 10
-1.64546
 20
30.8335
 11
-1.45093
 21
30.6508
  0
LINE
  8
0
 10
-1.45093
 20
30.6508
 11
-1.28084
 21
30.4452
  0
LINE
  8
0
 10
-1.28084
 20
30.4452
 11
-1.13785
 21
30.2199
  0
LINE
  8
0
 10
-1.13785
 20
30.2199
 11
-1.02422
 21
29.9784
  0
LINE
  8
0
 10
-1.02422
 20
29.9784
 11
-0.941757
 21
29.7246
  0
LINE
  8
0
 10
-0.941757
 20
29.7246
 11
-0.891754
 21
29.4625
  0
LINE
  8
0
 10
-0.891754
 20
29.4625
 11
-0.875
 21
29.1962
  0
LINE
  8
0
 10
-0.875
 20
29.1962
 11
-0.891754
 21
28.9298
  0
LINE
  8
0
 10
-0.891754
 20
28.9298
 11
-0.941757
 21
28.6677
  0
LINE
  8
0
 10
-0.941757
 20
28.6677
 11
-1.02422
 21
28.4139
  0
LINE
  8
0
 10
-1.02422
 20
28.4139
 11
-1.13785
 21
28.1724
  0
LINE
  8
0
 10
-1.13785
 20
28.1724
 11
-1.28084
 21
27.9471
  0
LINE
  8
0
 10
-1.28084
 20
27.9471
 11
-1.45093
 21
27.7415
  0
LINE
  8
0
 10
-1.45093
 20
27.7415
 11
-1.64546
 21
27.5588
  0
LINE
  8
0
 10
-1.64546
 20
27.5588
 11
-1.86136
 21
27.4019
  0
LINE
  8
0
 10
-1.86136
 20
27.4019
 11
-2.09521
 21
27.2734
  0
LINE
  8
0
 10
-2.09521
 20
27.2734
 11
-2.34334
 21
27.1752
  0
LINE
  8
0
 10
-2.34334
 20
27.1752
 11
-2.60181
 21
27.1088
  0
LINE
  8
0
 10
-2.60181
 20
27.1088
 11
-2.86656
 21
27.0753
  0
LINE
  8
0
 10
-2.86656
 20
27.0753
 11
-3.13342
 21
27.0753
  0
LINE
  8
0
 10
5.86656
 20
21.8792
 11
5.60181
 21
21.9126
  0
LINE
  8
0
 10
5.60181
 20
21.9126
 11
5.34334
 21
21.979
  0
LINE
  8
0
 10
5.34334
 20
21.979
 11
5.09521
 21
22.0773
  0
LINE
  8
0
 10
5.09521
 20
22.0773
 11
4.86136
 21
22.2058
  0
LINE
  8
0
 10
4.86136
 20
22.2058
 11
4.64546
 21
22.3627
  0
LINE
  8
0
 10
4.64546
 20
22.3627
 11
4.45093
 21
22.5453
  0
LINE
  8
0
 10
4.45093
 20
22.5453
 11
4.28084
 21
22.751
  0
LINE
  8
0
 10
4.28084
 20
22.751
 11
4.13785
 21
22.9763
  0
LINE
  8
0
 10
4.13785
 20
22.9763
 11
4.02422
 21
23.2177
  0
LINE
  8
0
 10
4.02422
 20
23.2177
 11
3.94176
 21
23.4715
  0
LINE
  8
0
 10
3.94176
 20
23.4715
 11
3.89175
 21
23.7337
  0
LINE
  8
0
 10
3.89175
 20
23.7337
 11
3.875
 21
24
  0
LINE
  8
0
 10
3.875
 20
24
 11
3.89175
 21
24.2663
  0
LINE
  8
0
 10
3.89175
 20
24.2663
 11
3.94176
 21
24.5285
  0
LINE
  8
0
 10
3.94176
 20
24.5285
 11
4.02422
 21
24.7823
  0
LINE
  8
0
 10
4.02422
 20
24.7823
 11
4.13785
 21
25.0237
  0
LINE
  8
0
 10
4.13785
 20
25.0237
 11
4.28084
 21
25.249
  0
LINE
  8
0
 10
4.28084
 20
25.249
 11
4.45093
 21
25.4547
  0
LINE
  8
0
 10
4.45093
 20
25.4547
 11
4.64546
 21
25.6373
  0
LINE
  8
0
 10
4.64546
 20
25.6373
 11
4.86136
 21
25.7942
  0
LINE
  8
0
 10
4.86136
 20
25.7942
 11
5.09521
 21
25.9227
  0
LINE
  8
0
 10
5.09521
 20
25.9227
 11
5.34334
 21
26.021
  0
LINE
  8
0
 10
5.34334
 20
26.021
 11
5.60181
 21
26.0874
  0
LINE
  8
0
 10
5.60181
 20
26.0874
 11
5.86656
 21
26.1208
  0
LINE
  8
0
 10
5.86656
 20
26.1208
 11
6.13342
 21
26.1208
  0
LINE
  8
0
 10
6.13342
 20
26.1208
 11
6.39818
 21
26.0874
  0
LINE
  8
0
 10
6.39818
 20
26.0874
 11
6.65665
 21
26.021
  0
LINE
  8
0
 10
6.65665
 20
26.021
 11
6.90477
 21
25.9227
  0
LINE
  8
0
 10
6.90477
 20
25.9227
 11
7.13863
 21
25.7942
  0
LINE
  8
0
 10
7.13863
 20
25.7942
 11
7.35452
 21
25.6373
  0
LINE
  8
0
 10
7.35452
 20
25.6373
 11
7.54906
 21
25.4547
  0
LINE
  8
0
 10
7.54906
 20
25.4547
 11
7.71915
 21
25.249
  0
LINE
  8
0
 10
7.71915
 20
25.249
 11
7.86214
 21
25.0237
  0
LINE
  8
0
 10
7.86214
 20
25.0237
 11
7.97577
 21
24.7823
  0
LINE
  8
0
 10
7.97577
 20
24.7823
 11
8.05823
 21
24.5285
  0
LINE
  8
0
 10
8.05823
 20
24.5285
 11
8.10823
 21
24.2663
  0
LINE
  8
0
 10
8.10823
 20
24.2663
 11
8.125
 21
24
  0
LINE
  8
0
 10
8.125
 20
24
 11
8.10823
 21
23.7337
  0
LINE
  8
0
 10
8.10823
 20
23.7337
 11
8.05823
 21
23.4715
  0
LINE
  8
0
 10
8.05823
 20
23.4715
 11
7.97577
 21
23.2177
  0
LINE
  8
0
 10
7.97577
 20
23.2177
 11
7.86214
 21
22.9763
  0
LINE
  8
0
 10
7.86214
 20
22.9763
 11
7.71915
 21
22.751
  0
LINE
  8
0
 10
7.71915
 20
22.751
 11
7.54906
 21
22.5453
  0
LINE
  8
0
 10
7.54906
 20
22.5453
 11
7.35452
 21
22.3627
  0
LINE
  8
0
 10
7.35452
 20
22.3627
 11
7.13863
 21
22.2058
  0
LINE
  8
0
 10
7.13863
 20
22.2058
 11
6.90477
 21
22.0773
  0
LINE
  8
0
 10
6.90477
 20
22.0773
 11
6.65665
 21
21.979
  0
LINE
  8
0
 10
6.65665
 20
21.979
 11
6.39818
 21
21.9126
  0
LINE
  8
0
 10
6.39818
 20
21.9126
 11
6.13342
 21
21.8792
  0
LINE
  8
0
 10
6.13342
 20
21.8792
 11
5.86656
 21
21.8792
  0
LINE
  8
0
 10
-3.13342
 20
16.683
 11
-3.39818
 21
16.7165
  0
LINE
  8
0
 10
-3.39818
 20
16.7165
 11
-3.65665
 21
16.7829
  0
LINE
  8
0
 10
-3.65665
 20
16.7829
 11
-3.90477
 21
16.8811
  0
LINE
  8
0
 10
-3.90477
 20
16.8811
 11
-4.13863
 21
17.0097
  0
LINE
  8
0
 10
-4.13863
 20
17.0097
 11
-4.35452
 21
17.1665
  0
LINE
  8
0
 10
-4.35452
 20
17.1665
 11
-4.54906
 21
17.3492
  0
LINE
  8
0
 10
-4.54906
 20
17.3492
 11
-4.71915
 21
17.5548
  0
LINE
  8
0
 10
-4.71915
 20
17.5548
 11
-4.86214
 21
17.7801
  0
LINE
  8
0
 10
-4.86214
 20
17.7801
 11
-4.97577
 21
18.0216
  0
LINE
  8
0
 10
-4.97577
 20
18.0216
 11
-5.05823
 21
18.2754
  0
LINE
  8
0
 10
-5.05823
 20
18.2754
 11
-5.10823
 21
18.5375
  0
LINE
  8
0
 10
-5.10823
 20
18.5375
 11
-5.125
 21
18.8038
  0
LINE
  8
0
 10
-5.125
 20
18.8038
 11
-5.10823
 21
19.0702
  0
LINE
  8
0
 10
-5.10823
 20
19.0702
 11
-5.05823
 21
19.3323
  0
LINE
  8
0
 10
-5.05823
 20
19.3323
 11
-4.97577
 21
19.5861
  0
LINE
  8
0
 10
-4.97577
 20
19.5861
 11
-4.86214
 21
19.8276
  0
LINE
  8
0
 10
-4.86214
 20
19.8276
 11
-4.71915
 21
20.0529
  0
LINE
  8
0
 10
-4.71915
 20
20.0529
 11
-4.54906
 21
20.2585
  0
LINE
  8
0
 10
-4.54906
 20
20.2585
 11
-4.35452
 21
20.4412
  0
LINE
  8
0
 10
-4.35452
 20
20.4412
 11
-4.13863
 21
20.5981
  0
LINE
  8
0
 10
-4.13863
 20
20.5981
 11
-3.90477
 21
20.7266
  0
LINE
  8
0
 10
-3.90477
 20
20.7266
 11
-3.65665
 21
20.8248
  0
LINE
  8
0
 10
-3.65665
 20
20.8248
 11
-3.39818
 21
20.8912
  0
LINE
  8
0
 10
-3.39818
 20
20.8912
 11
-3.13342
 21
20.9247
  0
LINE
  8
0
 10
-3.13342
 20
20.9247
 11
-2.86656
 21
20.9247
  0
LINE
  8
0
 10
-2.86656
 20
20.9247
 11
-2.60181
 21
20.8912
  0
LINE
  8
0
 10
-2.60181
 20
20.8912
 11
-2.34334
 21
20.8248
  0
LINE
  8
0
 10
-2.34334
 20
20.8248
 11
-2.09521
 21
20.7266
  0
LINE
  8
0
 10
-2.09521
 20
20.7266
 11
-1.86136
 21
20.5981
  0
LINE
  8
0
 10
-1.86136
 20
20.5981
 11
-1.64546
 21
20.4412
  0
LINE
  8
0
 10
-1.64546
 20
20.4412
 11
-1.45093
 21
20.2585
  0
LINE
  8
0
 10
-1.45093
 20
20.2585
 11
-1.28084
 21
20.0529
  0
LINE
  8
0
 10
-1.28084
 20
20.0529
 11
-1.13785
 21
19.8276
  0
LINE
  8
0
 10
-1.13785
 20
19.8276
 11
-1.02422
 21
19.5861
  0
LINE
  8
0
 10
-1.02422
 20
19.5861
 11
-0.941757
 21
19.3323
  0
LINE
  8
0
 10
-0.941757
 20
19.3323
 11
-0.891754
 21
19.0702
  0
LINE
  8
0
 10
-0.891754
 20
19.0702
 11
-0.875
 21
18.8038
  0
LINE
  8
0
 10
-0.875
 20
18.8038
 11
-0.891754
 21
18.5375
  0
LINE
  8
0
 10
-0.891754
 20
18.5375
 11
-0.941757
 21
18.2754
  0
LINE
  8
0
 10
-0.941757
 20
18.2754
 11
-1.02422
 21
18.0216
  0
LINE
  8
0
 10
-1.02422
 20
18.0216
 11
-1.13785
 21
17.7801
  0
LINE
  8
0
 10
-1.13785
 20
17.7801
 11
-1.28084
 21
17.5548
  0
LINE
  8
0
 10
-1.28084
 20
17.5548
 11
-1.45093
 21
17.3492
  0
LINE
  8
0
 10
-1.45093
 20
17.3492
 11
-1.64546
 21
17.1665
  0
LINE
  8
0
 10
-1.64546
 20
17.1665
 11
-1.86136
 21
17.0097
  0
LINE
  8
0
 10
-1.86136
 20
17.0097
 11
-2.09521
 21
16.8811
  0
LINE
  8
0
 10
-2.09521
 20
16.8811
 11
-2.34334
 21
16.7829
  0
LINE
  8
0
 10
-2.34334
 20
16.7829
 11
-2.60181
 21
16.7165
  0
LINE
  8
0
 10
-2.60181
 20
16.7165
 11
-2.86656
 21
16.683
  0
LINE
  8
0
 10
-2.86656
 20
16.683
 11
-3.13342
 21
16.683
  0
LINE
  8
0
 10
1.87381
 20
-9.82286
 11
3.09016
 21
-9.51056
  0
LINE
  8
0
 10
3.09016
 20
-9.51056
 11
4.25778
 21
-9.04826
  0
LINE
  8
0
 10
4.25778
 20
-9.04826
 11
5.35826
 21
-8.44327
  0
LINE
  8
0
 10
5.35826
 20
-8.44327
 11
6.37424
 21
-7.70512
  0
LINE
  8
0
 10
6.37424
 20
-7.70512
 11
7.28967
 21
-6.84546
  0
LINE
  8
0
 10
7.28967
 20
-6.84546
 11
8.09016
 21
-5.87784
  0
LINE
  8
0
 10
8.09016
 20
-5.87784
 11
8.76306
 21
-4.81754
  0
LINE
  8
0
 10
8.76306
 20
-4.81754
 11
9.29776
 21
-3.68124
  0
LINE
  8
0
 10
9.29776
 20
-3.68124
 11
9.68582
 21
-2.48689
  0
LINE
  8
0
 10
9.68582
 20
-2.48689
 11
9.92114
 21
-1.25333
  0
LINE
  8
0
 10
9.92114
 20
-1.25333
 11
10
 21
0
  0
LINE
  8
0
 10
10
 20
0
 11
9.92114
 21
1.25333
  0
LINE
  8
0
 10
9.92114
 20
1.25333
 11
9.68582
 21
2.48689
  0
LINE
  8
0
 10
9.68582
 20
2.48689
 11
9.29776
 21
3.68124
  0
LINE
  8
0
 10
9.29776
 20
3.68124
 11
8.76306
 21
4.81754
  0
LINE
  8
0
 10
8.76306
 20
4.81754
 11
8.09016
 21
5.87784
  0
LINE
  8
0
 10
8.09016
 20
5.87784
 11
7.28967
 21
6.84546
  0
LINE
  8
0
 10
7.28967
 20
6.84546
 11
6.37424
 21
7.70512
  0
LINE
  8
0
 10
6.37424
 20
7.70512
 11
5.35826
 21
8.44327
  0
LINE
  8
0
 10
5.35826
 20
8.44327
 11
4.25778
 21
9.04826
  0
LINE
  8
0
 10
4.25778
 20
9.04826
 11
3.09016
 21
9.51056
  0
LINE
  8
0
 10
3.09016
 20
9.51056
 11
1.87381
 21
9.82286
  0
LINE
  8
0
 10
1.87381
 20
9.82286
 11
0.627899
 21
9.98026
  0
LINE
  8
0
 10
0.627899
 20
9.98026
 11
-0.627899
 21
9.98026
  0
LINE
  8
0
 10
-0.627899
 20
9.98026
 11
-1.87381
 21
9.82286
  0
LINE
  8
0
 10
-1.87381
 20
9.82286
 11
-3.09016
 21
9.51056
  0
LINE
  8
0
 10
-3.09016
 20
9.51056
 11
-4.25778
 21
9.04826
  0
LINE
  8
0
 10
-4.25778
 20
9.04826
 11
-5.35826
 21
8.44327
  0
LINE
  8
0
 10
-5.35826
 20
8.44327
 11
-6.37424
 21
7.70512
  0
LINE
  8
0
 10
-6.37424
 20
7.70512
 11
-7.28967
 21
6.84546
  0
LINE
  8
0
 10
-7.28967
 20
6.84546
 11
-8.09016
 21
5.87784
  0
LINE
  8
0
 10
-8.09016
 20
5.87784
 11
-8.76306
 21
4.81754
  0
LINE
  8
0
 10
-8.76306
 20
4.81754
 11
-9.29776
 21
3.68124
  0
LINE
  8
0
 10
-9.29776
 20
3.68124
 11
-9.68582
 21
2.48689
  0
LINE
  8
0
 10
-9.68582
 20
2.48689
 11
-9.92114
 21
1.25333
  0
LINE
  8
0
 10
-9.92114
 20
1.25333
 11
-10
 21
0
  0
LINE
  8
0
 10
-10
 20
0
 11
-9.92114
 21
-1.25333
  0
LINE
  8
0
 10
-9.92114
 20
-1.25333
 11
-9.68582
 21
-2.48689
  0
LINE
  8
0
 10
-9.68582
 20
-2.48689
 11
-9.29776
 21
-3.68124
  0
LINE
  8
0
 10
-9.29776
 20
-3.68124
 11
-8.76306
 21
-4.81754
  0
LINE
  8
0
 10
-8.76306
 20
-4.81754
 11
-8.09016
 21
-5.87784
  0
LINE
  8
0
 10
-8.09016
 20
-5.87784
 11
-7.28967
 21
-6.84546
  0
LINE
  8
0
 10
-7.28967
 20
-6.84546
 11
-6.37424
 21
-7.70512
  0
LINE
  8
0
 10
-6.37424
 20
-7.70512
 11
-5.35826
 21
-8.44327
  0
LINE
  8
0
 10
-5.35826
 20
-8.44327
 11
-4.25778
 21
-9.04826
  0
LINE
  8
0
 10
-4.25778
 20
-9.04826
 11
-3.09016
 21
-9.51056
  0
LINE
  8
0
 10
-3.09016
 20
-9.51056
 11
-1.87381
 21
-9.82286
  0
LINE
  8
0
 10
-1.87381
 20
-9.82286
 11
-0.627899
 21
-9.98026
  0
LINE
  8
0
 10
-0.627899
 20
-9.98026
 11
0.627899
 21
-9.98026
  0
LINE
  8
0
 10
0.627899
 20
-9.98026
 11
1.87381
 21
-9.82286
  0
LINE
  8
0
 10
-3.13342
 20
3.07533
 11
-3.39818
 21
3.10878
  0
LINE
  8
0
 10
-3.39818
 20
3.10878
 11
-3.65665
 21
3.17516
  0
LINE
  8
0
 10
-3.65665
 20
3.17516
 11
-3.90477
 21
3.27339
  0
LINE
  8
0
 10
-3.90477
 20
3.27339
 11
-4.13863
 21
3.40195
  0
LINE
  8
0
 10
-4.13863
 20
3.40195
 11
-4.35452
 21
3.55881
  0
LINE
  8
0
 10
-4.35452
 20
3.55881
 11
-4.54906
 21
3.74149
  0
LINE
  8
0
 10
-4.54906
 20
3.74149
 11
-4.71915
 21
3.9471
  0
LINE
  8
0
 10
-4.71915
 20
3.9471
 11
-4.86214
 21
4.17242
  0
LINE
  8
0
 10
-4.86214
 20
4.17242
 11
-4.97577
 21
4.41388
  0
LINE
  8
0
 10
-4.97577
 20
4.41388
 11
-5.05823
 21
4.66768
  0
LINE
  8
0
 10
-5.05823
 20
4.66768
 11
-5.10823
 21
4.92981
  0
LINE
  8
0
 10
-5.10823
 20
4.92981
 11
-5.125
 21
5.19615
  0
LINE
  8
0
 10
-5.125
 20
5.19615
 11
-5.10823
 21
5.46248
  0
LINE
  8
0
 10
-5.10823
 20
5.46248
 11
-5.05823
 21
5.72461
  0
LINE
  8
0
 10
-5.05823
 20
5.72461
 11
-4.97577
 21
5.97841
  0
LINE
  8
0
 10
-4.97577
 20
5.97841
 11
-4.86214
 21
6.21986
  0
LINE
  8
0
 10
-4.86214
 20
6.21986
 11
-4.71915
 21
6.44519
  0
LINE
  8
0
 10
-4.71915
 20
6.44519
 11
-4.54906
 21
6.6508
  0
LINE
  8
0
 10
-4.54906
 20
6.6508
 11
-4.35452
 21
6.83348
  0
LINE
  8
0
 10
-4.35452
 20
6.83348
 11
-4.13863
 21
6.99034
  0
LINE
  8
0
 10
-4.13863
 20
6.99034
 11
-3.90477
 21
7.1189
  0
LINE
  8
0
 10
-3.90477
 20
7.1189
 11
-3.65665
 21
7.21713
  0
LINE
  8
0
 10
-3.65665
 20
7.21713
 11
-3.39818
 21
7.28351
  0
LINE
  8
0
 10
-3.39818
 20
7.28351
 11
-3.13342
 21
7.31696
  0
LINE
  8
0
 10
-3.13342
 20
7.31696
 11
-2.86656
 21
7.31696
  0
LINE
  8
0
 10
-2.86656
 20
7.31696
 11
-2.60181
 21
7.28351
  0
LINE
  8
0
 10
-2.60181
 20
7.28351
 11
-2.34334
 21
7.21713
  0
LINE
  8
0
 10
-2.34334
 20
7.21713
 11
-2.09521
 21
7.1189
  0
LINE
  8
0
 10
-2.09521
 20
7.1189
 11
-1.86136
 21
6.99034
  0
LINE
  8
0
 10
-1.86136
 20
6.99034
 11
-1.64546
 21
6.83348
  0
LINE
  8
0
 10
-1.64546
 20
6.83348
 11
-1.45093
 21
6.6508
  0
LINE
  8
0
 10
-1.45093
 20
6.6508
 11
-1.28084
 21
6.44519
  0
LINE
  8
0
 10
-1.28084
 20
6.44519
 11
-1.13785
 21
6.21986
  0
LINE
  8
0
 10
-1.13785
 20
6.21986
 11
-1.02422
 21
5.97841
  0
LINE
  8
0
 10
-1.02422
 20
5.97841
 11
-0.941757
 21
5.72461
  0
LINE
  8
0
 10
-0.941757
 20
5.72461
 11
-0.891754
 21
5.46248
  0
LINE
  8
0
 10
-0.891754
 20
5.46248
 11
-0.875
 21
5.19615
  0
LINE
  8
0
 10
-0.875
 20
5.19615
 11
-0.891754
 21
4.92981
  0
LINE
  8
0
 10
-0.891754
 20
4.92981
 11
-0.941757
 21
4.66768
  0
LINE
  8
0
 10
-0.941757
 20
4.66768
 11
-1.02422
 21
4.41388
  0
LINE
  8
0
 10
-1.02422
 20
4.41388
 11
-1.13785
 21
4.17242
  0
LINE
  8
0
 10
-1.13785
 20
4.17242
 11
-1.28084
 21
3.9471
  0
LINE
  8
0
 10
-1.28084
 20
3.9471
 11
-1.45093
 21
3.74149
  0
LINE
  8
0
 10
-1.45093
 20
3.74149
 11
-1.64546
 21
3.55881
  0
LINE
  8
0
 10
-1.64546
 20
3.55881
 11
-1.86136
 21
3.40195
  0
LINE
  8
0
 10
-1.86136
 20
3.40195
 11
-2.09521
 21
3.27339
  0
LINE
  8
0
 10
-2.09521
 20
3.27339
 11
-2.34334
 21
3.17516
  0
LINE
  8
0
 10
-2.34334
 20
3.17516
 11
-2.60181
 21
3.10878
  0
LINE
  8
0
 10
-2.60181
 20
3.10878
 11
-2.86656
 21
3.07533
  0
LINE
  8
0
 10
-2.86656
 20
3.07533
 11
-3.13342
 21
3.07533
  0
LINE
  8
0
 10
5.86656
 20
-2.1208
 11
5.60181
 21
-2.08736
  0
LINE
  8
0
 10
5.60181
 20
-2.08736
 11
5.34334
 21
-2.02098
  0
LINE
  8
0
 10
5.34334
 20
-2.02098
 11
5.09521
 21
-1.92274
  0
LINE
  8
0
 10
5.09521
 20
-1.92274
 11
4.86136
 21
-1.79419
  0
LINE
  8
0
 10
4.86136
 20
-1.79419
 11
4.64546
 21
-1.63733
  0
LINE
  8
0
 10
4.64546
 20
-1.63733
 11
4.45093
 21
-1.45465
  0
LINE
  8
0
 10
4.45093
 20
-1.45465
 11
4.28084
 21
-1.24904
  0
LINE
  8
0
 10
4.28084
 20
-1.24904
 11
4.13785
 21
-1.02371
  0
LINE
  8
0
 10
4.13785
 20
-1.02371
 11
4.02422
 21
-0.782257
  0
LINE
  8
0
 10
4.02422
 20
-0.782257
 11
3.94176
 21
-0.528458
  0
LINE
  8
0
 10
3.94176
 20
-0.528458
 11
3.89175
 21
-0.266327
  0
LINE
  8
0
 10
3.89175
 20
-0.266327
 11
3.875
 21
0
  0
LINE
  8
0
 10
3.875
 20
0
 11
3.89175
 21
0.266327
  0
LINE
  8
0
 10
3.89175
 20
0.266327
 11
3.94176
 21
0.528458
  0
LINE
  8
0
 10
3.94176
 20
0.528458
 11
4.02422
 21
0.782257
  0
LINE
  8
0
 10
4.02422
 20
0.782257
 11
4.13785
 21
1.02371
  0
LINE
  8
0
 10
4.13785
 20
1.02371
 11
4.28084
 21
1.24904
  0
LINE
  8
0
 10
4.28084
 20
1.24904
 11
4.45093
 21
1.45465
  0
LINE
  8
0
 10
4.45093
 20
1.45465
 11
4.64546
 21
1.63733
  0
LINE
  8
0
 10
4.64546
 20
1.63733
 11
4.86136
 21
1.79419
  0
LINE
  8
0
 10
4.86136
 20
1.79419
 11
5.09521
 21
1.92274
  0
LINE
  8
0
 10
5.09521
 20
1.92274
 11
5.34334
 21
2.02098
  0
LINE
  8
0
 10
5.34334
 20
2.02098
 11
5.60181
 21
2.08736
  0
LINE
  8
0
 10
5.60181
 20
2.08736
 11
5.86656
 21
2.1208
  0
LINE
  8
0
 10
5.86656
 20
2.1208
 11
6.13342
 21
2.1208
  0
LINE
  8
0
 10
6.13342
 20
2.1208
 11
6.39818
 21
2.08736
  0
LINE
  8
0
 10
6.39818
 20
2.08736
 11
6.65665
 21
2.02098
  0
LINE
  8
0
 10
6.65665
 20
2.02098
 11
6.90477
 21
1.92274
  0
LINE
  8
0
 10
6.90477
 20
1.92274
 11
7.13863
 21
1.79419
  0
LINE
  8
0
 10
7.13863
 20
1.79419
 11
7.35452
 21
1.63733
  0
LINE
  8
0
 10
7.35452
 20
1.63733
 11
7.54906
 21
1.45465
  0
LINE
  8
0
 10
7.54906
 20
1.45465
 11
7.71915
 21
1.24904
  0
LINE
  8
0
 10
7.71915
 20
1.24904
 11
7.86214
 21
1.02371
  0
LINE
  8
0
 10
7.86214
 20
1.02371
 11
7.97577
 21
0.782257
  0
LINE
  8
0
 10
7.97577
 20
0.782257
 11
8.05823
 21
0.528458
  0
LINE
  8
0
 10
8.05823
 20
0.528458
 11
8.10823
 21
0.266327
  0
LINE
  8
0
 10
8.10823
 20
0.266327
 11
8.125
 21
0
  0
LINE
  8
0
 10
8.125
 20
0
 11
8.10823
 21
-0.266327
  0
LINE
  8
0
 10
8.10823
 20
-0.266327
 11
8.05823
 21
-0.528458
  0
LINE
  8
0
 10
8.05823
 20
-0.528458
 11
7.97577
 21
-0.782257
  0
LINE
  8
0
 10
7.97577
 20
-0.782257
 11
7.86214
 21
-1.02371
  0
LINE
  8
0
 10
7.86214
 20
-1.02371
 11
7.71915
 21
-1.24904
  0
LINE
  8
0
 10
7.71915
 20
-1.24904
 11
7.54906
 21
-1.45465
  0
LINE
  8
0
 10
7.54906
 20
-1.45465
 11
7.35452
 21
-1.63733
  0
LINE
  8
0
 10
7.35452
 20
-1.63733
 11
7.13863
 21
-1.79419
  0
LINE
  8
0
 10
7.13863
 20
-1.79419
 11
6.90477
 21
-1.92274
  0
LINE
  8
0
 10
6.90477
 20
-1.92274
 11
6.65665
 21
-2.02098
  0
LINE
  8
0
 10
6.65665
 20
-2.02098
 11
6.39818
 21
-2.08736
  0
LINE
  8
0
 10
6.39818
 20
-2.08736
 11
6.13342
 21
-2.1208
  0
LINE
  8
0
 10
6.13342
 20
-2.1208
 11
5.86656
 21
-2.1208
  0
LINE
  8
0
 10
-3.13342
 20
-7.31696
 11
-3.39818
 21
-7.28351
  0
LINE
  8
0
 10
-3.39818
 20
-7.28351
 11
-3.65665
 21
-7.21713
  0
LINE
  8
0
 10
-3.65665
 20
-7.21713
 11
-3.90477
 21
-7.1189
  0
LINE
  8
0
 10
-3.90477
 20
-7.1189
 11
-4.13863
 21
-6.99034
  0
LINE
  8
0
 10
-4.13863
 20
-6.99034
 11
-4.35452
 21
-6.83348
  0
LINE
  8
0
 10
-4.35452
 20
-6.83348
 11
-4.54906
 21
-6.6508
  0
LINE
  8
0
 10
-4.54906
 20
-6.6508
 11
-4.71915
 21
-6.44519
  0
LINE
  8
0
 10
-4.71915
 20
-6.44519
 11
-4.86214
 21
-6.21986
  0
LINE
  8
0
 10
-4.86214
 20
-6.21986
 11
-4.97577
 21
-5.97841
  0
LINE
  8
0
 10
-4.97577
 20
-5.97841
 11
-5.05823
 21
-5.72461
  0
LINE
  8
0
 10
-5.05823
 20
-5.72461
 11
-5.10823
 21
-5.46248
  0
LINE
  8
0
 10
-5.10823
 20
-5.46248
 11
-5.125
 21
-5.19615
  0
LINE
  8
0
 10
-5.125
 20
-5.19615
 11
-5.10823
 21
-4.92981
  0
LINE
  8
0
 10
-5.10823
 20
-4.92981
 11
-5.05823
 21
-4.66768
  0
LINE
  8
0
 10
-5.05823
 20
-4.66768
 11
-4.97577
 21
-4.41388
  0
LINE
  8
0
 10
-4.97577
 20
-4.41388
 11
-4.86214
 21
-4.17242
  0
LINE
  8
0
 10
-4.86214
 20
-4.17242
 11
-4.71915
 21
-3.9471
  0
LINE
  8
0
 10
-4.71915
 20
-3.9471
 11
-4.54906
 21
-3.74149
  0
LINE
  8
0
 10
-4.54906
 20
-3.74149
 11
-4.35452
 21
-3.55881
  0
LINE
  8
0
 10
-4.35452
 20
-3.55881
 11
-4.13863
 21
-3.40195
  0
LINE
  8
0
 10
-4.13863
 20
-3.40195
 11
-3.90477
 21
-3.27339
  0
LINE
  8
0
 10
-3.90477
 20
-3.27339
 11
-3.65665
 21
-3.17516
  0
LINE
  8
0
 10
-3.65665
 20
-3.17516
 11
-3.39818
 21
-3.10878
  0
LINE
  8
0
 10
-3.39818
 20
-3.10878
 11
-3.13342
 21
-3.07533
  0
LINE
  8
0
 10
-3.13342
 20
-3.07533
 11
-2.86656
 21
-3.07533
  0
LINE
  8
0
 10
-2.86656
 20
-3.07533
 11
-2.60181
 21
-3.10878
  0
LINE
  8
0
 10
-2.60181
 20
-3.10878
 11
-2.34334
 21
-3.17516
  0
LINE
  8
0
 10
-2.34334
 20
-3.17516
 11
-2.09521
 21
-3.27339
  0
LINE
  8
0
 10
-2.09521
 20
-3.27339
 11
-1.86136
 21
-3.40195
  0
LINE
  8
0
 10
-1.86136
 20
-3.40195
 11
-1.64546
 21
-3.55881
  0
LINE
  8
0
 10
-1.64546
 20
-3.55881
 11
-1.45093
 21
-3.74149
  0
LINE
  8
0
 10
-1.45093
 20
-3.74149
 11
-1.28084
 21
-3.9471
  0
LINE
  8
0
 10
-1.28084
 20
-3.9471
 11
-1.13785
 21
-4.17242
  0
LINE
  8
0
 10
-1.13785
 20
-4.17242
 11
-1.02422
 21
-4.41388
  0
LINE
  8
0
 10
-1.02422
 20
-4.41388
 11
-0.941757
 21
-4.66768
  0
LINE
  8
0
 10
-0.941757
 20
-4.66768
 11
-0.891754
 21
-4.92981
  0
LINE
  8
0
 10
-0.891754
 20
-4.92981
 11
-0.875
 21
-5.19615
  0
LINE
  8
0
 10
-0.875
 20
-5.19615
 11
-0.891754
 21
-5.46248
  0
LINE
  8
0
 10
-0.891754
 20
-5.46248
 11
-0.941757
 21
-5.72461
  0
LINE
  8
0
 10
-0.941757
 20
-5.72461
 11
-1.02422
 21
-5.97841
  0
LINE
  8
0
 10
-1.02422
 20
-5.97841
 11
-1.13785
 21
-6.21986
  0
LINE
  8
0
 10
-1.13785
 20
-6.21986
 11
-1.28084
 21
-6.44519
  0
LINE
  8
0
 10
-1.28084
 20
-6.44519
 11
-1.45093
 21
-6.6508
  0
LINE
  8
0
 10
-1.45093
 20
-6.6508
 11
-1.64546
 21
-6.83348
  0
LINE
  8
0
 10
-1.64546
 20
-6.83348
 11
-1.86136
 21
-6.99034
  0
LINE
  8
0
 10
-1.86136
 20
-6.99034
 11
-2.09521
 21
-7.1189
  0
LINE
  8
0
 10
-2.09521
 20
-7.1189
 11
-2.34334
 21
-7.21713
  0
LINE
  8
0
 10
-2.34334
 20
-7.21713
 11
-2.60181
 21
-7.28351
  0
LINE
  8
0
 10
-2.60181
 20
-7.28351
 11
-2.86656
 21
-7.31696
  0
LINE
  8
0
 10
-2.86656
 20
-7.31696
 11
-3.13342
 21
-7.31696
  0
ENDSEC
  0
SECTION
  2
OBJECTS
  0
DICTIONARY
  0
ENDSEC
  0
EOF
