solid OpenSCAD_Model
  facet normal 0.998026 0.0628001 0
    outer loop
      vertex 18.5 0 0
      vertex 18.3541 2.31866 -7
      vertex 18.3541 2.31866 0
    endloop
  endfacet
  facet normal 0.998026 0.0628001 0
    outer loop
      vertex 18.3541 2.31866 -7
      vertex 18.5 0 0
      vertex 18.5 0 -7
    endloop
  endfacet
  facet normal -0.998026 0.0628001 0
    outer loop
      vertex -18.5 0 -7
      vertex -18.3541 2.31866 0
      vertex -18.3541 2.31866 -7
    endloop
  endfacet
  facet normal -0.998026 0.0628001 0
    outer loop
      vertex -18.3541 2.31866 0
      vertex -18.5 0 -7
      vertex -18.5 0 0
    endloop
  endfacet
  facet normal 0 1 -0
    outer loop
      vertex 1.16162 18.4635 -7
      vertex -1.16162 18.4635 0
      vertex 1.16162 18.4635 0
    endloop
  endfacet
  facet normal 0 1 0
    outer loop
      vertex -1.16162 18.4635 0
      vertex 1.16162 18.4635 -7
      vertex -1.16162 18.4635 -7
    endloop
  endfacet
  facet normal 0 -1 0
    outer loop
      vertex -1.16162 -18.4635 -7
      vertex 1.16162 -18.4635 0
      vertex -1.16162 -18.4635 0
    endloop
  endfacet
  facet normal 0 -1 -0
    outer loop
      vertex 1.16162 -18.4635 0
      vertex -1.16162 -18.4635 -7
      vertex 1.16162 -18.4635 -7
    endloop
  endfacet
  facet normal 0.684548 0.728968 -0
    outer loop
      vertex 13.4859 12.6641 -7
      vertex 11.7923 14.2545 0
      vertex 13.4859 12.6641 0
    endloop
  endfacet
  facet normal 0.684548 0.728968 0
    outer loop
      vertex 11.7923 14.2545 0
      vertex 13.4859 12.6641 -7
      vertex 11.7923 14.2545 -7
    endloop
  endfacet
  facet normal -0.684548 0.728968 0
    outer loop
      vertex -11.7923 14.2545 -7
      vertex -13.4859 12.6641 0
      vertex -11.7923 14.2545 0
    endloop
  endfacet
  facet normal -0.684548 0.728968 0
    outer loop
      vertex -13.4859 12.6641 0
      vertex -11.7923 14.2545 -7
      vertex -13.4859 12.6641 -7
    endloop
  endfacet
  facet normal -0.368107 0.929784 0
    outer loop
      vertex -5.71681 17.5945 -7
      vertex -7.87692 16.7393 0
      vertex -5.71681 17.5945 0
    endloop
  endfacet
  facet normal -0.368107 0.929784 0
    outer loop
      vertex -7.87692 16.7393 0
      vertex -5.71681 17.5945 -7
      vertex -7.87692 16.7393 -7
    endloop
  endfacet
  facet normal 0.904826 0.425782 0
    outer loop
      vertex 17.2009 6.8103 0
      vertex 16.2117 8.91244 -7
      vertex 16.2117 8.91244 0
    endloop
  endfacet
  facet normal 0.904826 0.425782 0
    outer loop
      vertex 16.2117 8.91244 -7
      vertex 17.2009 6.8103 0
      vertex 17.2009 6.8103 -7
    endloop
  endfacet
  facet normal 0.844317 0.535844 0
    outer loop
      vertex 16.2117 8.91244 0
      vertex 14.9668 10.874 -7
      vertex 14.9668 10.874 0
    endloop
  endfacet
  facet normal 0.844317 0.535844 0
    outer loop
      vertex 14.9668 10.874 -7
      vertex 16.2117 8.91244 0
      vertex 16.2117 8.91244 -7
    endloop
  endfacet
  facet normal 0.368107 0.929784 -0
    outer loop
      vertex 7.87692 16.7393 -7
      vertex 5.71681 17.5945 0
      vertex 7.87692 16.7393 0
    endloop
  endfacet
  facet normal 0.368107 0.929784 0
    outer loop
      vertex 5.71681 17.5945 0
      vertex 7.87692 16.7393 -7
      vertex 5.71681 17.5945 -7
    endloop
  endfacet
  facet normal 0.481742 0.876313 -0
    outer loop
      vertex 9.9128 15.6201 -7
      vertex 7.87692 16.7393 0
      vertex 9.9128 15.6201 0
    endloop
  endfacet
  facet normal 0.481742 0.876313 0
    outer loop
      vertex 7.87692 16.7393 0
      vertex 9.9128 15.6201 -7
      vertex 7.87692 16.7393 -7
    endloop
  endfacet
  facet normal -0.904826 0.425782 0
    outer loop
      vertex -17.2009 6.8103 -7
      vertex -16.2117 8.91244 0
      vertex -16.2117 8.91244 -7
    endloop
  endfacet
  facet normal -0.904826 0.425782 0
    outer loop
      vertex -16.2117 8.91244 0
      vertex -17.2009 6.8103 -7
      vertex -17.2009 6.8103 0
    endloop
  endfacet
  facet normal -0.770513 0.637424 0
    outer loop
      vertex -14.9668 10.874 -7
      vertex -13.4859 12.6641 0
      vertex -13.4859 12.6641 -7
    endloop
  endfacet
  facet normal -0.770513 0.637424 0
    outer loop
      vertex -13.4859 12.6641 0
      vertex -14.9668 10.874 -7
      vertex -14.9668 10.874 0
    endloop
  endfacet
  facet normal -0.951059 0.309008 0
    outer loop
      vertex -17.9188 4.60076 -7
      vertex -17.2009 6.8103 0
      vertex -17.2009 6.8103 -7
    endloop
  endfacet
  facet normal -0.951059 0.309008 0
    outer loop
      vertex -17.2009 6.8103 0
      vertex -17.9188 4.60076 -7
      vertex -17.9188 4.60076 0
    endloop
  endfacet
  facet normal -0.248703 0.96858 0
    outer loop
      vertex -3.46655 18.1723 -7
      vertex -5.71681 17.5945 0
      vertex -3.46655 18.1723 0
    endloop
  endfacet
  facet normal -0.248703 0.96858 0
    outer loop
      vertex -5.71681 17.5945 0
      vertex -3.46655 18.1723 -7
      vertex -5.71681 17.5945 -7
    endloop
  endfacet
  facet normal 0.951059 0.309008 0
    outer loop
      vertex 17.9188 4.60076 0
      vertex 17.2009 6.8103 -7
      vertex 17.2009 6.8103 0
    endloop
  endfacet
  facet normal 0.951059 0.309008 0
    outer loop
      vertex 17.2009 6.8103 -7
      vertex 17.9188 4.60076 0
      vertex 17.9188 4.60076 -7
    endloop
  endfacet
  facet normal 0.98229 0.187367 0
    outer loop
      vertex 18.3541 2.31866 0
      vertex 17.9188 4.60076 -7
      vertex 17.9188 4.60076 0
    endloop
  endfacet
  facet normal 0.98229 0.187367 0
    outer loop
      vertex 17.9188 4.60076 -7
      vertex 18.3541 2.31866 0
      vertex 18.3541 2.31866 -7
    endloop
  endfacet
  facet normal 0.770513 0.637424 0
    outer loop
      vertex 14.9668 10.874 0
      vertex 13.4859 12.6641 -7
      vertex 13.4859 12.6641 0
    endloop
  endfacet
  facet normal 0.770513 0.637424 0
    outer loop
      vertex 13.4859 12.6641 -7
      vertex 14.9668 10.874 0
      vertex 14.9668 10.874 -7
    endloop
  endfacet
  facet normal 0.248703 0.96858 -0
    outer loop
      vertex 5.71681 17.5945 -7
      vertex 3.46655 18.1723 0
      vertex 5.71681 17.5945 0
    endloop
  endfacet
  facet normal 0.248703 0.96858 0
    outer loop
      vertex 3.46655 18.1723 0
      vertex 5.71681 17.5945 -7
      vertex 3.46655 18.1723 -7
    endloop
  endfacet
  facet normal 0.125342 0.992114 -0
    outer loop
      vertex 3.46655 18.1723 -7
      vertex 1.16162 18.4635 0
      vertex 3.46655 18.1723 0
    endloop
  endfacet
  facet normal 0.125342 0.992114 0
    outer loop
      vertex 1.16162 18.4635 0
      vertex 3.46655 18.1723 -7
      vertex 1.16162 18.4635 -7
    endloop
  endfacet
  facet normal 0.587803 0.809004 -0
    outer loop
      vertex 11.7923 14.2545 -7
      vertex 9.9128 15.6201 0
      vertex 11.7923 14.2545 0
    endloop
  endfacet
  facet normal 0.587803 0.809004 0
    outer loop
      vertex 9.9128 15.6201 0
      vertex 11.7923 14.2545 -7
      vertex 9.9128 15.6201 -7
    endloop
  endfacet
  facet normal -0.844317 0.535844 0
    outer loop
      vertex -16.2117 8.91244 -7
      vertex -14.9668 10.874 0
      vertex -14.9668 10.874 -7
    endloop
  endfacet
  facet normal -0.844317 0.535844 0
    outer loop
      vertex -14.9668 10.874 0
      vertex -16.2117 8.91244 -7
      vertex -16.2117 8.91244 0
    endloop
  endfacet
  facet normal -0.98229 0.187367 0
    outer loop
      vertex -18.3541 2.31866 -7
      vertex -17.9188 4.60076 0
      vertex -17.9188 4.60076 -7
    endloop
  endfacet
  facet normal -0.98229 0.187367 0
    outer loop
      vertex -17.9188 4.60076 0
      vertex -18.3541 2.31866 -7
      vertex -18.3541 2.31866 0
    endloop
  endfacet
  facet normal 0 0 1
    outer loop
      vertex 12.6 0 0
      vertex 18.5 0 0
      vertex 18.3541 2.31866 0
    endloop
  endfacet
  facet normal 0 0 1
    outer loop
      vertex 12.5006 1.5792 0
      vertex 18.3541 2.31866 0
      vertex 17.9188 4.60076 0
    endloop
  endfacet
  facet normal 0 0 1
    outer loop
      vertex 18.5 0 0
      vertex 12.6 0 0
      vertex 18.3541 -2.31866 0
    endloop
  endfacet
  facet normal 0 0 1
    outer loop
      vertex 12.2041 3.13349 0
      vertex 17.9188 4.60076 0
      vertex 17.2009 6.8103 0
    endloop
  endfacet
  facet normal -0 0 1
    outer loop
      vertex 12.5006 -1.5792 0
      vertex 18.3541 -2.31866 0
      vertex 12.6 0 0
    endloop
  endfacet
  facet normal 0 0 1
    outer loop
      vertex 11.7152 4.63837 0
      vertex 17.2009 6.8103 0
      vertex 16.2117 8.91244 0
    endloop
  endfacet
  facet normal 0 0 1
    outer loop
      vertex 18.3541 -2.31866 0
      vertex 12.5006 -1.5792 0
      vertex 17.9188 -4.60076 0
    endloop
  endfacet
  facet normal 0 0 1
    outer loop
      vertex 11.0415 6.0701 0
      vertex 16.2117 8.91244 0
      vertex 14.9668 10.874 0
    endloop
  endfacet
  facet normal -0 0 1
    outer loop
      vertex 12.2041 -3.13349 0
      vertex 17.9188 -4.60076 0
      vertex 12.5006 -1.5792 0
    endloop
  endfacet
  facet normal 0 0 1
    outer loop
      vertex 10.1936 7.40609 0
      vertex 14.9668 10.874 0
      vertex 13.4859 12.6641 0
    endloop
  endfacet
  facet normal 0 0 1
    outer loop
      vertex 17.9188 -4.60076 0
      vertex 12.2041 -3.13349 0
      vertex 17.2009 -6.8103 0
    endloop
  endfacet
  facet normal -0 0 1
    outer loop
      vertex 11.7152 -4.63837 0
      vertex 17.2009 -6.8103 0
      vertex 12.2041 -3.13349 0
    endloop
  endfacet
  facet normal 0 0 1
    outer loop
      vertex 18.3541 2.31866 0
      vertex 12.5006 1.5792 0
      vertex 12.6 0 0
    endloop
  endfacet
  facet normal 0 0 1
    outer loop
      vertex 17.9188 4.60076 0
      vertex 12.2041 3.13349 0
      vertex 12.5006 1.5792 0
    endloop
  endfacet
  facet normal 0 0 1
    outer loop
      vertex 9.185 8.62529 0
      vertex 13.4859 12.6641 0
      vertex 11.7923 14.2545 0
    endloop
  endfacet
  facet normal 0 0 1
    outer loop
      vertex 17.2009 6.8103 0
      vertex 11.7152 4.63837 0
      vertex 12.2041 3.13349 0
    endloop
  endfacet
  facet normal 0 0 1
    outer loop
      vertex 16.2117 8.91244 0
      vertex 11.0415 6.0701 0
      vertex 11.7152 4.63837 0
    endloop
  endfacet
  facet normal 0 0 1
    outer loop
      vertex 14.9668 10.874 0
      vertex 10.1936 7.40609 0
      vertex 11.0415 6.0701 0
    endloop
  endfacet
  facet normal 0 0 1
    outer loop
      vertex 8.03154 9.70847 0
      vertex 11.7923 14.2545 0
      vertex 9.9128 15.6201 0
    endloop
  endfacet
  facet normal 0 0 1
    outer loop
      vertex 13.4859 12.6641 0
      vertex 9.185 8.62529 0
      vertex 10.1936 7.40609 0
    endloop
  endfacet
  facet normal 0 0 1
    outer loop
      vertex 11.7923 14.2545 0
      vertex 8.03154 9.70847 0
      vertex 9.185 8.62529 0
    endloop
  endfacet
  facet normal 0 0 1
    outer loop
      vertex 6.75142 10.6385 0
      vertex 9.9128 15.6201 0
      vertex 7.87692 16.7393 0
    endloop
  endfacet
  facet normal 0 0 1
    outer loop
      vertex 9.9128 15.6201 0
      vertex 6.75142 10.6385 0
      vertex 8.03154 9.70847 0
    endloop
  endfacet
  facet normal 0 0 1
    outer loop
      vertex 5.36482 11.4008 0
      vertex 7.87692 16.7393 0
      vertex 5.71681 17.5945 0
    endloop
  endfacet
  facet normal 0 0 1
    outer loop
      vertex 7.87692 16.7393 0
      vertex 5.36482 11.4008 0
      vertex 6.75142 10.6385 0
    endloop
  endfacet
  facet normal 0 0 1
    outer loop
      vertex 5.71681 17.5945 0
      vertex 3.89361 11.9833 0
      vertex 5.36482 11.4008 0
    endloop
  endfacet
  facet normal 0 0 1
    outer loop
      vertex 3.46655 18.1723 0
      vertex 3.89361 11.9833 0
      vertex 5.71681 17.5945 0
    endloop
  endfacet
  facet normal 0 0 1
    outer loop
      vertex 3.46655 18.1723 0
      vertex 2.361 12.3768 0
      vertex 3.89361 11.9833 0
    endloop
  endfacet
  facet normal 0 0 1
    outer loop
      vertex 1.16162 18.4635 0
      vertex 2.361 12.3768 0
      vertex 3.46655 18.1723 0
    endloop
  endfacet
  facet normal 0 0 1
    outer loop
      vertex 1.16162 18.4635 0
      vertex 0.79116 12.5751 0
      vertex 2.361 12.3768 0
    endloop
  endfacet
  facet normal 0 0 1
    outer loop
      vertex 1.16162 18.4635 0
      vertex -0.79116 12.5751 0
      vertex 0.79116 12.5751 0
    endloop
  endfacet
  facet normal -0 0 1
    outer loop
      vertex -1.16162 18.4635 0
      vertex -0.79116 12.5751 0
      vertex 1.16162 18.4635 0
    endloop
  endfacet
  facet normal 0 0 1
    outer loop
      vertex -1.16162 18.4635 0
      vertex -2.361 12.3768 0
      vertex -0.79116 12.5751 0
    endloop
  endfacet
  facet normal -0 0 1
    outer loop
      vertex -3.46655 18.1723 0
      vertex -2.361 12.3768 0
      vertex -1.16162 18.4635 0
    endloop
  endfacet
  facet normal 0 0 1
    outer loop
      vertex -3.46655 18.1723 0
      vertex -3.89361 11.9833 0
      vertex -2.361 12.3768 0
    endloop
  endfacet
  facet normal -0 0 1
    outer loop
      vertex -5.71681 17.5945 0
      vertex -3.89361 11.9833 0
      vertex -3.46655 18.1723 0
    endloop
  endfacet
  facet normal 0 0 1
    outer loop
      vertex -3.89361 11.9833 0
      vertex -5.71681 17.5945 0
      vertex -5.36482 11.4008 0
    endloop
  endfacet
  facet normal -0 0 1
    outer loop
      vertex -7.87692 16.7393 0
      vertex -5.36482 11.4008 0
      vertex -5.71681 17.5945 0
    endloop
  endfacet
  facet normal 0 0 1
    outer loop
      vertex -5.36482 11.4008 0
      vertex -7.87692 16.7393 0
      vertex -6.75142 10.6385 0
    endloop
  endfacet
  facet normal -0 0 1
    outer loop
      vertex -9.9128 15.6201 0
      vertex -6.75142 10.6385 0
      vertex -7.87692 16.7393 0
    endloop
  endfacet
  facet normal 0 0 1
    outer loop
      vertex -6.75142 10.6385 0
      vertex -9.9128 15.6201 0
      vertex -8.03154 9.70847 0
    endloop
  endfacet
  facet normal -0 0 1
    outer loop
      vertex -11.7923 14.2545 0
      vertex -8.03154 9.70847 0
      vertex -9.9128 15.6201 0
    endloop
  endfacet
  facet normal 0 0 1
    outer loop
      vertex -8.03154 9.70847 0
      vertex -11.7923 14.2545 0
      vertex -9.185 8.62529 0
    endloop
  endfacet
  facet normal -0 0 1
    outer loop
      vertex -13.4859 12.6641 0
      vertex -9.185 8.62529 0
      vertex -11.7923 14.2545 0
    endloop
  endfacet
  facet normal 0 0 1
    outer loop
      vertex -9.185 8.62529 0
      vertex -13.4859 12.6641 0
      vertex -10.1936 7.40609 0
    endloop
  endfacet
  facet normal -0 0 1
    outer loop
      vertex -14.9668 10.874 0
      vertex -10.1936 7.40609 0
      vertex -13.4859 12.6641 0
    endloop
  endfacet
  facet normal 0 0 1
    outer loop
      vertex -10.1936 7.40609 0
      vertex -14.9668 10.874 0
      vertex -11.0415 6.0701 0
    endloop
  endfacet
  facet normal -0 0 1
    outer loop
      vertex -16.2117 8.91244 0
      vertex -11.0415 6.0701 0
      vertex -14.9668 10.874 0
    endloop
  endfacet
  facet normal 0 0 1
    outer loop
      vertex -11.0415 6.0701 0
      vertex -16.2117 8.91244 0
      vertex -11.7152 4.63837 0
    endloop
  endfacet
  facet normal -0 0 1
    outer loop
      vertex -17.2009 6.8103 0
      vertex -11.7152 4.63837 0
      vertex -16.2117 8.91244 0
    endloop
  endfacet
  facet normal 0 0 1
    outer loop
      vertex 17.2009 -6.8103 0
      vertex 11.7152 -4.63837 0
      vertex 16.2117 -8.91244 0
    endloop
  endfacet
  facet normal -0 0 1
    outer loop
      vertex 11.0415 -6.0701 0
      vertex 16.2117 -8.91244 0
      vertex 11.7152 -4.63837 0
    endloop
  endfacet
  facet normal 0 0 1
    outer loop
      vertex 16.2117 -8.91244 0
      vertex 11.0415 -6.0701 0
      vertex 14.9668 -10.874 0
    endloop
  endfacet
  facet normal -0 0 1
    outer loop
      vertex 10.1936 -7.40609 0
      vertex 14.9668 -10.874 0
      vertex 11.0415 -6.0701 0
    endloop
  endfacet
  facet normal 0 0 1
    outer loop
      vertex 14.9668 -10.874 0
      vertex 10.1936 -7.40609 0
      vertex 13.4859 -12.6641 0
    endloop
  endfacet
  facet normal -0 0 1
    outer loop
      vertex 9.185 -8.62529 0
      vertex 13.4859 -12.6641 0
      vertex 10.1936 -7.40609 0
    endloop
  endfacet
  facet normal 0 0 1
    outer loop
      vertex 13.4859 -12.6641 0
      vertex 9.185 -8.62529 0
      vertex 11.7923 -14.2545 0
    endloop
  endfacet
  facet normal -0 0 1
    outer loop
      vertex 8.03154 -9.70847 0
      vertex 11.7923 -14.2545 0
      vertex 9.185 -8.62529 0
    endloop
  endfacet
  facet normal 0 0 1
    outer loop
      vertex 11.7923 -14.2545 0
      vertex 8.03154 -9.70847 0
      vertex 9.9128 -15.6201 0
    endloop
  endfacet
  facet normal -0 0 1
    outer loop
      vertex 6.75142 -10.6385 0
      vertex 9.9128 -15.6201 0
      vertex 8.03154 -9.70847 0
    endloop
  endfacet
  facet normal 0 0 1
    outer loop
      vertex 9.9128 -15.6201 0
      vertex 6.75142 -10.6385 0
      vertex 7.87692 -16.7393 0
    endloop
  endfacet
  facet normal -0 0 1
    outer loop
      vertex 5.36482 -11.4008 0
      vertex 7.87692 -16.7393 0
      vertex 6.75142 -10.6385 0
    endloop
  endfacet
  facet normal 0 0 1
    outer loop
      vertex 7.87692 -16.7393 0
      vertex 5.36482 -11.4008 0
      vertex 5.71681 -17.5945 0
    endloop
  endfacet
  facet normal -0 0 1
    outer loop
      vertex 3.89361 -11.9833 0
      vertex 5.71681 -17.5945 0
      vertex 5.36482 -11.4008 0
    endloop
  endfacet
  facet normal 0 0 1
    outer loop
      vertex 3.89361 -11.9833 0
      vertex 3.46655 -18.1723 0
      vertex 5.71681 -17.5945 0
    endloop
  endfacet
  facet normal -0 0 1
    outer loop
      vertex 2.361 -12.3768 0
      vertex 3.46655 -18.1723 0
      vertex 3.89361 -11.9833 0
    endloop
  endfacet
  facet normal 0 0 1
    outer loop
      vertex 2.361 -12.3768 0
      vertex 1.16162 -18.4635 0
      vertex 3.46655 -18.1723 0
    endloop
  endfacet
  facet normal -0 0 1
    outer loop
      vertex 0.79116 -12.5751 0
      vertex 1.16162 -18.4635 0
      vertex 2.361 -12.3768 0
    endloop
  endfacet
  facet normal -0 0 1
    outer loop
      vertex -0.79116 -12.5751 0
      vertex 1.16162 -18.4635 0
      vertex 0.79116 -12.5751 0
    endloop
  endfacet
  facet normal 0 0 1
    outer loop
      vertex -0.79116 -12.5751 0
      vertex -1.16162 -18.4635 0
      vertex 1.16162 -18.4635 0
    endloop
  endfacet
  facet normal 0 0 1
    outer loop
      vertex -2.361 -12.3768 0
      vertex -1.16162 -18.4635 0
      vertex -0.79116 -12.5751 0
    endloop
  endfacet
  facet normal 0 0 1
    outer loop
      vertex -2.361 -12.3768 0
      vertex -3.46655 -18.1723 0
      vertex -1.16162 -18.4635 0
    endloop
  endfacet
  facet normal 0 0 1
    outer loop
      vertex -3.89361 -11.9833 0
      vertex -3.46655 -18.1723 0
      vertex -2.361 -12.3768 0
    endloop
  endfacet
  facet normal 0 0 1
    outer loop
      vertex -5.71681 -17.5945 0
      vertex -3.89361 -11.9833 0
      vertex -5.36482 -11.4008 0
    endloop
  endfacet
  facet normal 0 0 1
    outer loop
      vertex -3.89361 -11.9833 0
      vertex -5.71681 -17.5945 0
      vertex -3.46655 -18.1723 0
    endloop
  endfacet
  facet normal 0 0 1
    outer loop
      vertex -7.87692 -16.7393 0
      vertex -5.36482 -11.4008 0
      vertex -6.75142 -10.6385 0
    endloop
  endfacet
  facet normal 0 0 1
    outer loop
      vertex -5.36482 -11.4008 0
      vertex -7.87692 -16.7393 0
      vertex -5.71681 -17.5945 0
    endloop
  endfacet
  facet normal 0 0 1
    outer loop
      vertex -9.9128 -15.6201 0
      vertex -6.75142 -10.6385 0
      vertex -8.03154 -9.70847 0
    endloop
  endfacet
  facet normal 0 0 1
    outer loop
      vertex -11.7923 -14.2545 0
      vertex -8.03154 -9.70847 0
      vertex -9.185 -8.62529 0
    endloop
  endfacet
  facet normal 0 0 1
    outer loop
      vertex -6.75142 -10.6385 0
      vertex -9.9128 -15.6201 0
      vertex -7.87692 -16.7393 0
    endloop
  endfacet
  facet normal 0 0 1
    outer loop
      vertex -13.4859 -12.6641 0
      vertex -9.185 -8.62529 0
      vertex -10.1936 -7.40609 0
    endloop
  endfacet
  facet normal 0 0 1
    outer loop
      vertex -14.9668 -10.874 0
      vertex -10.1936 -7.40609 0
      vertex -11.0415 -6.0701 0
    endloop
  endfacet
  facet normal 0 0 1
    outer loop
      vertex -16.2117 -8.91244 0
      vertex -11.0415 -6.0701 0
      vertex -11.7152 -4.63837 0
    endloop
  endfacet
  facet normal 0 0 1
    outer loop
      vertex -8.03154 -9.70847 0
      vertex -11.7923 -14.2545 0
      vertex -9.9128 -15.6201 0
    endloop
  endfacet
  facet normal 0 0 1
    outer loop
      vertex -17.2009 -6.8103 0
      vertex -11.7152 -4.63837 0
      vertex -12.2041 -3.13349 0
    endloop
  endfacet
  facet normal 0 0 1
    outer loop
      vertex -17.9188 -4.60076 0
      vertex -12.2041 -3.13349 0
      vertex -12.5006 -1.5792 0
    endloop
  endfacet
  facet normal 0 0 1
    outer loop
      vertex -18.3541 -2.31866 0
      vertex -12.5006 -1.5792 0
      vertex -12.6 0 0
    endloop
  endfacet
  facet normal 0 0 1
    outer loop
      vertex -11.7152 4.63837 0
      vertex -17.2009 6.8103 0
      vertex -12.2041 3.13349 0
    endloop
  endfacet
  facet normal 0 0 1
    outer loop
      vertex -9.185 -8.62529 0
      vertex -13.4859 -12.6641 0
      vertex -11.7923 -14.2545 0
    endloop
  endfacet
  facet normal -0 0 1
    outer loop
      vertex -17.9188 4.60076 0
      vertex -12.2041 3.13349 0
      vertex -17.2009 6.8103 0
    endloop
  endfacet
  facet normal 0 0 1
    outer loop
      vertex -10.1936 -7.40609 0
      vertex -14.9668 -10.874 0
      vertex -13.4859 -12.6641 0
    endloop
  endfacet
  facet normal 0 0 1
    outer loop
      vertex -12.2041 3.13349 0
      vertex -17.9188 4.60076 0
      vertex -12.5006 1.5792 0
    endloop
  endfacet
  facet normal 0 0 1
    outer loop
      vertex -11.0415 -6.0701 0
      vertex -16.2117 -8.91244 0
      vertex -14.9668 -10.874 0
    endloop
  endfacet
  facet normal -0 0 1
    outer loop
      vertex -18.3541 2.31866 0
      vertex -12.5006 1.5792 0
      vertex -17.9188 4.60076 0
    endloop
  endfacet
  facet normal 0 0 1
    outer loop
      vertex -11.7152 -4.63837 0
      vertex -17.2009 -6.8103 0
      vertex -16.2117 -8.91244 0
    endloop
  endfacet
  facet normal 0 0 1
    outer loop
      vertex -12.5006 1.5792 0
      vertex -18.3541 2.31866 0
      vertex -12.6 0 0
    endloop
  endfacet
  facet normal 0 0 1
    outer loop
      vertex -12.2041 -3.13349 0
      vertex -17.9188 -4.60076 0
      vertex -17.2009 -6.8103 0
    endloop
  endfacet
  facet normal 0 0 1
    outer loop
      vertex -18.5 0 0
      vertex -12.6 0 0
      vertex -18.3541 2.31866 0
    endloop
  endfacet
  facet normal 0 0 1
    outer loop
      vertex -12.5006 -1.5792 0
      vertex -18.3541 -2.31866 0
      vertex -17.9188 -4.60076 0
    endloop
  endfacet
  facet normal 0 0 1
    outer loop
      vertex -12.6 0 0
      vertex -18.5 0 0
      vertex -18.3541 -2.31866 0
    endloop
  endfacet
  facet normal -0.481742 0.876313 0
    outer loop
      vertex -7.87692 16.7393 -7
      vertex -9.9128 15.6201 0
      vertex -7.87692 16.7393 0
    endloop
  endfacet
  facet normal -0.481742 0.876313 0
    outer loop
      vertex -9.9128 15.6201 0
      vertex -7.87692 16.7393 -7
      vertex -9.9128 15.6201 -7
    endloop
  endfacet
  facet normal -0.587803 0.809004 0
    outer loop
      vertex -9.9128 15.6201 -7
      vertex -11.7923 14.2545 0
      vertex -9.9128 15.6201 0
    endloop
  endfacet
  facet normal -0.587803 0.809004 0
    outer loop
      vertex -11.7923 14.2545 0
      vertex -9.9128 15.6201 -7
      vertex -11.7923 14.2545 -7
    endloop
  endfacet
  facet normal -0.125342 0.992114 0
    outer loop
      vertex -1.16162 18.4635 -7
      vertex -3.46655 18.1723 0
      vertex -1.16162 18.4635 0
    endloop
  endfacet
  facet normal -0.125342 0.992114 0
    outer loop
      vertex -3.46655 18.1723 0
      vertex -1.16162 18.4635 -7
      vertex -3.46655 18.1723 -7
    endloop
  endfacet
  facet normal 0.998026 -0.0628001 0
    outer loop
      vertex 18.3541 -2.31866 0
      vertex 18.5 0 -7
      vertex 18.5 0 0
    endloop
  endfacet
  facet normal 0.998026 -0.0628001 0
    outer loop
      vertex 18.5 0 -7
      vertex 18.3541 -2.31866 0
      vertex 18.3541 -2.31866 -7
    endloop
  endfacet
  facet normal 0.770513 -0.637424 0
    outer loop
      vertex 13.4859 -12.6641 0
      vertex 14.9668 -10.874 -7
      vertex 14.9668 -10.874 0
    endloop
  endfacet
  facet normal 0.770513 -0.637424 0
    outer loop
      vertex 14.9668 -10.874 -7
      vertex 13.4859 -12.6641 0
      vertex 13.4859 -12.6641 -7
    endloop
  endfacet
  facet normal 0.951059 -0.309008 0
    outer loop
      vertex 17.2009 -6.8103 0
      vertex 17.9188 -4.60076 -7
      vertex 17.9188 -4.60076 0
    endloop
  endfacet
  facet normal 0.951059 -0.309008 0
    outer loop
      vertex 17.9188 -4.60076 -7
      vertex 17.2009 -6.8103 0
      vertex 17.2009 -6.8103 -7
    endloop
  endfacet
  facet normal 0.98229 -0.187367 0
    outer loop
      vertex 17.9188 -4.60076 0
      vertex 18.3541 -2.31866 -7
      vertex 18.3541 -2.31866 0
    endloop
  endfacet
  facet normal 0.98229 -0.187367 0
    outer loop
      vertex 18.3541 -2.31866 -7
      vertex 17.9188 -4.60076 0
      vertex 17.9188 -4.60076 -7
    endloop
  endfacet
  facet normal -0.904826 -0.425782 0
    outer loop
      vertex -16.2117 -8.91244 -7
      vertex -17.2009 -6.8103 0
      vertex -17.2009 -6.8103 -7
    endloop
  endfacet
  facet normal -0.904826 -0.425782 0
    outer loop
      vertex -17.2009 -6.8103 0
      vertex -16.2117 -8.91244 -7
      vertex -16.2117 -8.91244 0
    endloop
  endfacet
  facet normal 0 0 -1
    outer loop
      vertex 18.3541 -2.31866 -7
      vertex 18.3541 2.31866 -7
      vertex 18.5 0 -7
    endloop
  endfacet
  facet normal 0 0 -1
    outer loop
      vertex 17.9188 -4.60076 -7
      vertex 18.3541 2.31866 -7
      vertex 18.3541 -2.31866 -7
    endloop
  endfacet
  facet normal 0 0 -1
    outer loop
      vertex 17.9188 -4.60076 -7
      vertex 17.9188 4.60076 -7
      vertex 18.3541 2.31866 -7
    endloop
  endfacet
  facet normal 0 0 -1
    outer loop
      vertex 17.2009 -6.8103 -7
      vertex 17.9188 4.60076 -7
      vertex 17.9188 -4.60076 -7
    endloop
  endfacet
  facet normal 0 0 -1
    outer loop
      vertex 17.2009 -6.8103 -7
      vertex 17.2009 6.8103 -7
      vertex 17.9188 4.60076 -7
    endloop
  endfacet
  facet normal 0 0 -1
    outer loop
      vertex 16.2117 -8.91244 -7
      vertex 17.2009 6.8103 -7
      vertex 17.2009 -6.8103 -7
    endloop
  endfacet
  facet normal 0 0 -1
    outer loop
      vertex 16.2117 -8.91244 -7
      vertex 16.2117 8.91244 -7
      vertex 17.2009 6.8103 -7
    endloop
  endfacet
  facet normal 0 0 -1
    outer loop
      vertex 14.9668 -10.874 -7
      vertex 16.2117 8.91244 -7
      vertex 16.2117 -8.91244 -7
    endloop
  endfacet
  facet normal 0 0 -1
    outer loop
      vertex 14.9668 -10.874 -7
      vertex 14.9668 10.874 -7
      vertex 16.2117 8.91244 -7
    endloop
  endfacet
  facet normal 0 0 -1
    outer loop
      vertex 13.4859 -12.6641 -7
      vertex 14.9668 10.874 -7
      vertex 14.9668 -10.874 -7
    endloop
  endfacet
  facet normal 0 0 -1
    outer loop
      vertex 13.4859 -12.6641 -7
      vertex 13.4859 12.6641 -7
      vertex 14.9668 10.874 -7
    endloop
  endfacet
  facet normal 0 0 -1
    outer loop
      vertex 11.7923 -14.2545 -7
      vertex 13.4859 12.6641 -7
      vertex 13.4859 -12.6641 -7
    endloop
  endfacet
  facet normal 0 0 -1
    outer loop
      vertex 11.7923 -14.2545 -7
      vertex 11.7923 14.2545 -7
      vertex 13.4859 12.6641 -7
    endloop
  endfacet
  facet normal 0 0 -1
    outer loop
      vertex 9.9128 -15.6201 -7
      vertex 11.7923 14.2545 -7
      vertex 11.7923 -14.2545 -7
    endloop
  endfacet
  facet normal 0 0 -1
    outer loop
      vertex 9.9128 -15.6201 -7
      vertex 9.9128 15.6201 -7
      vertex 11.7923 14.2545 -7
    endloop
  endfacet
  facet normal 0 0 -1
    outer loop
      vertex 7.87692 -16.7393 -7
      vertex 9.9128 15.6201 -7
      vertex 9.9128 -15.6201 -7
    endloop
  endfacet
  facet normal 0 0 -1
    outer loop
      vertex 7.87692 -16.7393 -7
      vertex 7.87692 16.7393 -7
      vertex 9.9128 15.6201 -7
    endloop
  endfacet
  facet normal 0 0 -1
    outer loop
      vertex 5.71681 -17.5945 -7
      vertex 7.87692 16.7393 -7
      vertex 7.87692 -16.7393 -7
    endloop
  endfacet
  facet normal 0 0 -1
    outer loop
      vertex 5.71681 -17.5945 -7
      vertex 5.71681 17.5945 -7
      vertex 7.87692 16.7393 -7
    endloop
  endfacet
  facet normal 0 0 -1
    outer loop
      vertex 3.46655 -18.1723 -7
      vertex 5.71681 17.5945 -7
      vertex 5.71681 -17.5945 -7
    endloop
  endfacet
  facet normal 0 0 -1
    outer loop
      vertex 3.46655 -18.1723 -7
      vertex 3.46655 18.1723 -7
      vertex 5.71681 17.5945 -7
    endloop
  endfacet
  facet normal 0 0 -1
    outer loop
      vertex 1.16162 -18.4635 -7
      vertex 3.46655 18.1723 -7
      vertex 3.46655 -18.1723 -7
    endloop
  endfacet
  facet normal 0 0 -1
    outer loop
      vertex 1.16162 -18.4635 -7
      vertex 1.16162 18.4635 -7
      vertex 3.46655 18.1723 -7
    endloop
  endfacet
  facet normal 0 0 -1
    outer loop
      vertex -1.16162 -18.4635 -7
      vertex 1.16162 18.4635 -7
      vertex 1.16162 -18.4635 -7
    endloop
  endfacet
  facet normal 0 0 -1
    outer loop
      vertex -1.16162 -18.4635 -7
      vertex -1.16162 18.4635 -7
      vertex 1.16162 18.4635 -7
    endloop
  endfacet
  facet normal 0 0 -1
    outer loop
      vertex -3.46655 -18.1723 -7
      vertex -1.16162 18.4635 -7
      vertex -1.16162 -18.4635 -7
    endloop
  endfacet
  facet normal 0 0 -1
    outer loop
      vertex -3.46655 -18.1723 -7
      vertex -3.46655 18.1723 -7
      vertex -1.16162 18.4635 -7
    endloop
  endfacet
  facet normal 0 0 -1
    outer loop
      vertex -5.71681 -17.5945 -7
      vertex -3.46655 18.1723 -7
      vertex -3.46655 -18.1723 -7
    endloop
  endfacet
  facet normal 0 0 -1
    outer loop
      vertex -5.71681 -17.5945 -7
      vertex -5.71681 17.5945 -7
      vertex -3.46655 18.1723 -7
    endloop
  endfacet
  facet normal 0 0 -1
    outer loop
      vertex -7.87692 -16.7393 -7
      vertex -5.71681 17.5945 -7
      vertex -5.71681 -17.5945 -7
    endloop
  endfacet
  facet normal 0 0 -1
    outer loop
      vertex -7.87692 -16.7393 -7
      vertex -7.87692 16.7393 -7
      vertex -5.71681 17.5945 -7
    endloop
  endfacet
  facet normal 0 0 -1
    outer loop
      vertex -9.9128 -15.6201 -7
      vertex -7.87692 16.7393 -7
      vertex -7.87692 -16.7393 -7
    endloop
  endfacet
  facet normal 0 0 -1
    outer loop
      vertex -9.9128 -15.6201 -7
      vertex -9.9128 15.6201 -7
      vertex -7.87692 16.7393 -7
    endloop
  endfacet
  facet normal 0 0 -1
    outer loop
      vertex -11.7923 -14.2545 -7
      vertex -9.9128 15.6201 -7
      vertex -9.9128 -15.6201 -7
    endloop
  endfacet
  facet normal 0 0 -1
    outer loop
      vertex -11.7923 -14.2545 -7
      vertex -11.7923 14.2545 -7
      vertex -9.9128 15.6201 -7
    endloop
  endfacet
  facet normal 0 0 -1
    outer loop
      vertex -13.4859 -12.6641 -7
      vertex -11.7923 14.2545 -7
      vertex -11.7923 -14.2545 -7
    endloop
  endfacet
  facet normal 0 0 -1
    outer loop
      vertex -13.4859 -12.6641 -7
      vertex -13.4859 12.6641 -7
      vertex -11.7923 14.2545 -7
    endloop
  endfacet
  facet normal 0 0 -1
    outer loop
      vertex -14.9668 -10.874 -7
      vertex -13.4859 12.6641 -7
      vertex -13.4859 -12.6641 -7
    endloop
  endfacet
  facet normal 0 0 -1
    outer loop
      vertex -14.9668 -10.874 -7
      vertex -14.9668 10.874 -7
      vertex -13.4859 12.6641 -7
    endloop
  endfacet
  facet normal 0 0 -1
    outer loop
      vertex -16.2117 -8.91244 -7
      vertex -14.9668 10.874 -7
      vertex -14.9668 -10.874 -7
    endloop
  endfacet
  facet normal 0 0 -1
    outer loop
      vertex -16.2117 -8.91244 -7
      vertex -16.2117 8.91244 -7
      vertex -14.9668 10.874 -7
    endloop
  endfacet
  facet normal 0 0 -1
    outer loop
      vertex -17.2009 -6.8103 -7
      vertex -16.2117 8.91244 -7
      vertex -16.2117 -8.91244 -7
    endloop
  endfacet
  facet normal 0 0 -1
    outer loop
      vertex -17.2009 -6.8103 -7
      vertex -17.2009 6.8103 -7
      vertex -16.2117 8.91244 -7
    endloop
  endfacet
  facet normal 0 0 -1
    outer loop
      vertex -17.9188 -4.60076 -7
      vertex -17.2009 6.8103 -7
      vertex -17.2009 -6.8103 -7
    endloop
  endfacet
  facet normal 0 0 -1
    outer loop
      vertex -17.9188 -4.60076 -7
      vertex -17.9188 4.60076 -7
      vertex -17.2009 6.8103 -7
    endloop
  endfacet
  facet normal 0 0 -1
    outer loop
      vertex -18.3541 -2.31866 -7
      vertex -17.9188 4.60076 -7
      vertex -17.9188 -4.60076 -7
    endloop
  endfacet
  facet normal 0 0 -1
    outer loop
      vertex -18.3541 -2.31866 -7
      vertex -18.3541 2.31866 -7
      vertex -17.9188 4.60076 -7
    endloop
  endfacet
  facet normal 0 -0 -1
    outer loop
      vertex -18.3541 2.31866 -7
      vertex -18.3541 -2.31866 -7
      vertex -18.5 0 -7
    endloop
  endfacet
  facet normal 0.684548 -0.728968 0
    outer loop
      vertex 11.7923 -14.2545 -7
      vertex 13.4859 -12.6641 0
      vertex 11.7923 -14.2545 0
    endloop
  endfacet
  facet normal 0.684548 -0.728968 0
    outer loop
      vertex 13.4859 -12.6641 0
      vertex 11.7923 -14.2545 -7
      vertex 13.4859 -12.6641 -7
    endloop
  endfacet
  facet normal 0.844317 -0.535844 0
    outer loop
      vertex 14.9668 -10.874 0
      vertex 16.2117 -8.91244 -7
      vertex 16.2117 -8.91244 0
    endloop
  endfacet
  facet normal 0.844317 -0.535844 0
    outer loop
      vertex 16.2117 -8.91244 -7
      vertex 14.9668 -10.874 0
      vertex 14.9668 -10.874 -7
    endloop
  endfacet
  facet normal -0.951059 -0.309008 0
    outer loop
      vertex -17.2009 -6.8103 -7
      vertex -17.9188 -4.60076 0
      vertex -17.9188 -4.60076 -7
    endloop
  endfacet
  facet normal -0.951059 -0.309008 0
    outer loop
      vertex -17.9188 -4.60076 0
      vertex -17.2009 -6.8103 -7
      vertex -17.2009 -6.8103 0
    endloop
  endfacet
  facet normal 0.368107 -0.929784 0
    outer loop
      vertex 5.71681 -17.5945 -7
      vertex 7.87692 -16.7393 0
      vertex 5.71681 -17.5945 0
    endloop
  endfacet
  facet normal 0.368107 -0.929784 0
    outer loop
      vertex 7.87692 -16.7393 0
      vertex 5.71681 -17.5945 -7
      vertex 7.87692 -16.7393 -7
    endloop
  endfacet
  facet normal 0.248703 -0.96858 0
    outer loop
      vertex 3.46655 -18.1723 -7
      vertex 5.71681 -17.5945 0
      vertex 3.46655 -18.1723 0
    endloop
  endfacet
  facet normal 0.248703 -0.96858 0
    outer loop
      vertex 5.71681 -17.5945 0
      vertex 3.46655 -18.1723 -7
      vertex 5.71681 -17.5945 -7
    endloop
  endfacet
  facet normal 0.125342 -0.992114 0
    outer loop
      vertex 1.16162 -18.4635 -7
      vertex 3.46655 -18.1723 0
      vertex 1.16162 -18.4635 0
    endloop
  endfacet
  facet normal 0.125342 -0.992114 0
    outer loop
      vertex 3.46655 -18.1723 0
      vertex 1.16162 -18.4635 -7
      vertex 3.46655 -18.1723 -7
    endloop
  endfacet
  facet normal 0.904826 -0.425782 0
    outer loop
      vertex 16.2117 -8.91244 0
      vertex 17.2009 -6.8103 -7
      vertex 17.2009 -6.8103 0
    endloop
  endfacet
  facet normal 0.904826 -0.425782 0
    outer loop
      vertex 17.2009 -6.8103 -7
      vertex 16.2117 -8.91244 0
      vertex 16.2117 -8.91244 -7
    endloop
  endfacet
  facet normal -0.368107 -0.929784 0
    outer loop
      vertex -7.87692 -16.7393 -7
      vertex -5.71681 -17.5945 0
      vertex -7.87692 -16.7393 0
    endloop
  endfacet
  facet normal -0.368107 -0.929784 -0
    outer loop
      vertex -5.71681 -17.5945 0
      vertex -7.87692 -16.7393 -7
      vertex -5.71681 -17.5945 -7
    endloop
  endfacet
  facet normal -0.248703 -0.96858 0
    outer loop
      vertex -5.71681 -17.5945 -7
      vertex -3.46655 -18.1723 0
      vertex -5.71681 -17.5945 0
    endloop
  endfacet
  facet normal -0.248703 -0.96858 -0
    outer loop
      vertex -3.46655 -18.1723 0
      vertex -5.71681 -17.5945 -7
      vertex -3.46655 -18.1723 -7
    endloop
  endfacet
  facet normal -0.770513 -0.637424 0
    outer loop
      vertex -13.4859 -12.6641 -7
      vertex -14.9668 -10.874 0
      vertex -14.9668 -10.874 -7
    endloop
  endfacet
  facet normal -0.770513 -0.637424 0
    outer loop
      vertex -14.9668 -10.874 0
      vertex -13.4859 -12.6641 -7
      vertex -13.4859 -12.6641 0
    endloop
  endfacet
  facet normal -0.684548 -0.728968 0
    outer loop
      vertex -13.4859 -12.6641 -7
      vertex -11.7923 -14.2545 0
      vertex -13.4859 -12.6641 0
    endloop
  endfacet
  facet normal -0.684548 -0.728968 -0
    outer loop
      vertex -11.7923 -14.2545 0
      vertex -13.4859 -12.6641 -7
      vertex -11.7923 -14.2545 -7
    endloop
  endfacet
  facet normal -0.98229 -0.187367 0
    outer loop
      vertex -17.9188 -4.60076 -7
      vertex -18.3541 -2.31866 0
      vertex -18.3541 -2.31866 -7
    endloop
  endfacet
  facet normal -0.98229 -0.187367 0
    outer loop
      vertex -18.3541 -2.31866 0
      vertex -17.9188 -4.60076 -7
      vertex -17.9188 -4.60076 0
    endloop
  endfacet
  facet normal -0.998026 -0.0628001 0
    outer loop
      vertex -18.3541 -2.31866 -7
      vertex -18.5 0 0
      vertex -18.5 0 -7
    endloop
  endfacet
  facet normal -0.998026 -0.0628001 0
    outer loop
      vertex -18.5 0 0
      vertex -18.3541 -2.31866 -7
      vertex -18.3541 -2.31866 0
    endloop
  endfacet
  facet normal 0.587803 -0.809004 0
    outer loop
      vertex 9.9128 -15.6201 -7
      vertex 11.7923 -14.2545 0
      vertex 9.9128 -15.6201 0
    endloop
  endfacet
  facet normal 0.587803 -0.809004 0
    outer loop
      vertex 11.7923 -14.2545 0
      vertex 9.9128 -15.6201 -7
      vertex 11.7923 -14.2545 -7
    endloop
  endfacet
  facet normal 0.481742 -0.876313 0
    outer loop
      vertex 7.87692 -16.7393 -7
      vertex 9.9128 -15.6201 0
      vertex 7.87692 -16.7393 0
    endloop
  endfacet
  facet normal 0.481742 -0.876313 0
    outer loop
      vertex 9.9128 -15.6201 0
      vertex 7.87692 -16.7393 -7
      vertex 9.9128 -15.6201 -7
    endloop
  endfacet
  facet normal -0.125342 -0.992114 0
    outer loop
      vertex -3.46655 -18.1723 -7
      vertex -1.16162 -18.4635 0
      vertex -3.46655 -18.1723 0
    endloop
  endfacet
  facet normal -0.125342 -0.992114 -0
    outer loop
      vertex -1.16162 -18.4635 0
      vertex -3.46655 -18.1723 -7
      vertex -1.16162 -18.4635 -7
    endloop
  endfacet
  facet normal -0.844317 -0.535844 0
    outer loop
      vertex -14.9668 -10.874 -7
      vertex -16.2117 -8.91244 0
      vertex -16.2117 -8.91244 -7
    endloop
  endfacet
  facet normal -0.844317 -0.535844 0
    outer loop
      vertex -16.2117 -8.91244 0
      vertex -14.9668 -10.874 -7
      vertex -14.9668 -10.874 0
    endloop
  endfacet
  facet normal -0.481742 -0.876313 0
    outer loop
      vertex -9.9128 -15.6201 -7
      vertex -7.87692 -16.7393 0
      vertex -9.9128 -15.6201 0
    endloop
  endfacet
  facet normal -0.481742 -0.876313 -0
    outer loop
      vertex -7.87692 -16.7393 0
      vertex -9.9128 -15.6201 -7
      vertex -7.87692 -16.7393 -7
    endloop
  endfacet
  facet normal -0.587803 -0.809004 0
    outer loop
      vertex -11.7923 -14.2545 -7
      vertex -9.9128 -15.6201 0
      vertex -11.7923 -14.2545 0
    endloop
  endfacet
  facet normal -0.587803 -0.809004 -0
    outer loop
      vertex -9.9128 -15.6201 0
      vertex -11.7923 -14.2545 -7
      vertex -9.9128 -15.6201 -7
    endloop
  endfacet
  facet normal 0.951069 -0.30898 0
    outer loop
      vertex -12.2041 3.13349 0
      vertex -11.7152 4.63837 -6
      vertex -11.7152 4.63837 0
    endloop
  endfacet
  facet normal 0.951069 -0.30898 0
    outer loop
      vertex -11.7152 4.63837 -6
      vertex -12.2041 3.13349 0
      vertex -12.2041 3.13349 -6
    endloop
  endfacet
  facet normal -0.844312 -0.535852 0
    outer loop
      vertex 11.0415 6.0701 -6
      vertex 10.1936 7.40609 0
      vertex 10.1936 7.40609 -6
    endloop
  endfacet
  facet normal -0.844312 -0.535852 0
    outer loop
      vertex 10.1936 7.40609 0
      vertex 11.0415 6.0701 -6
      vertex 11.0415 6.0701 0
    endloop
  endfacet
  facet normal -0.368128 -0.929775 0
    outer loop
      vertex 3.89361 11.9833 -6
      vertex 5.36482 11.4008 0
      vertex 3.89361 11.9833 0
    endloop
  endfacet
  facet normal -0.368128 -0.929775 -0
    outer loop
      vertex 5.36482 11.4008 0
      vertex 3.89361 11.9833 -6
      vertex 5.36482 11.4008 -6
    endloop
  endfacet
  facet normal 0.368128 -0.929775 0
    outer loop
      vertex -5.36482 11.4008 -6
      vertex -3.89361 11.9833 0
      vertex -5.36482 11.4008 0
    endloop
  endfacet
  facet normal 0.368128 -0.929775 0
    outer loop
      vertex -3.89361 11.9833 0
      vertex -5.36482 11.4008 -6
      vertex -3.89361 11.9833 -6
    endloop
  endfacet
  facet normal 0.904832 -0.425768 0
    outer loop
      vertex -11.7152 4.63837 0
      vertex -11.0415 6.0701 -6
      vertex -11.0415 6.0701 0
    endloop
  endfacet
  facet normal 0.904832 -0.425768 0
    outer loop
      vertex -11.0415 6.0701 -6
      vertex -11.7152 4.63837 0
      vertex -11.7152 4.63837 -6
    endloop
  endfacet
  facet normal -0.998025 0.0628189 0
    outer loop
      vertex 12.5006 -1.5792 -6
      vertex 12.6 0 0
      vertex 12.6 0 -6
    endloop
  endfacet
  facet normal -0.998025 0.0628189 0
    outer loop
      vertex 12.6 0 0
      vertex 12.5006 -1.5792 -6
      vertex 12.5006 -1.5792 0
    endloop
  endfacet
  facet normal -0.368128 0.929775 0
    outer loop
      vertex 5.36482 -11.4008 -6
      vertex 3.89361 -11.9833 0
      vertex 5.36482 -11.4008 0
    endloop
  endfacet
  facet normal -0.368128 0.929775 0
    outer loop
      vertex 3.89361 -11.9833 0
      vertex 5.36482 -11.4008 -6
      vertex 3.89361 -11.9833 -6
    endloop
  endfacet
  facet normal -0.982287 -0.187383 0
    outer loop
      vertex 12.5006 1.5792 -6
      vertex 12.2041 3.13349 0
      vertex 12.2041 3.13349 -6
    endloop
  endfacet
  facet normal -0.982287 -0.187383 0
    outer loop
      vertex 12.2041 3.13349 0
      vertex 12.5006 1.5792 -6
      vertex 12.5006 1.5792 0
    endloop
  endfacet
  facet normal 0 -1 0
    outer loop
      vertex -0.79116 12.5751 -6
      vertex 0.79116 12.5751 0
      vertex -0.79116 12.5751 0
    endloop
  endfacet
  facet normal 0 -1 -0
    outer loop
      vertex 0.79116 12.5751 0
      vertex -0.79116 12.5751 -6
      vertex 0.79116 12.5751 -6
    endloop
  endfacet
  facet normal 0.770516 -0.63742 0
    outer loop
      vertex -10.1936 7.40609 0
      vertex -9.185 8.62529 -6
      vertex -9.185 8.62529 0
    endloop
  endfacet
  facet normal 0.770516 -0.63742 0
    outer loop
      vertex -9.185 8.62529 -6
      vertex -10.1936 7.40609 0
      vertex -10.1936 7.40609 -6
    endloop
  endfacet
  facet normal 0.68455 -0.728966 0
    outer loop
      vertex -9.185 8.62529 -6
      vertex -8.03154 9.70847 0
      vertex -9.185 8.62529 0
    endloop
  endfacet
  facet normal 0.68455 -0.728966 0
    outer loop
      vertex -8.03154 9.70847 0
      vertex -9.185 8.62529 -6
      vertex -8.03154 9.70847 -6
    endloop
  endfacet
  facet normal -0.998025 -0.0628189 0
    outer loop
      vertex 12.6 0 -6
      vertex 12.5006 1.5792 0
      vertex 12.5006 1.5792 -6
    endloop
  endfacet
  facet normal -0.998025 -0.0628189 0
    outer loop
      vertex 12.5006 1.5792 0
      vertex 12.6 0 -6
      vertex 12.6 0 0
    endloop
  endfacet
  facet normal -0.904832 0.425768 0
    outer loop
      vertex 11.0415 -6.0701 -6
      vertex 11.7152 -4.63837 0
      vertex 11.7152 -4.63837 -6
    endloop
  endfacet
  facet normal -0.904832 0.425768 0
    outer loop
      vertex 11.7152 -4.63837 0
      vertex 11.0415 -6.0701 -6
      vertex 11.0415 -6.0701 0
    endloop
  endfacet
  facet normal -0.248686 0.968584 0
    outer loop
      vertex 3.89361 -11.9833 -6
      vertex 2.361 -12.3768 0
      vertex 3.89361 -11.9833 0
    endloop
  endfacet
  facet normal -0.248686 0.968584 0
    outer loop
      vertex 2.361 -12.3768 0
      vertex 3.89361 -11.9833 -6
      vertex 2.361 -12.3768 -6
    endloop
  endfacet
  facet normal -0.68455 -0.728966 0
    outer loop
      vertex 8.03154 9.70847 -6
      vertex 9.185 8.62529 0
      vertex 8.03154 9.70847 0
    endloop
  endfacet
  facet normal -0.68455 -0.728966 -0
    outer loop
      vertex 9.185 8.62529 0
      vertex 8.03154 9.70847 -6
      vertex 9.185 8.62529 -6
    endloop
  endfacet
  facet normal -0.770516 -0.63742 0
    outer loop
      vertex 10.1936 7.40609 -6
      vertex 9.185 8.62529 0
      vertex 9.185 8.62529 -6
    endloop
  endfacet
  facet normal -0.770516 -0.63742 0
    outer loop
      vertex 9.185 8.62529 0
      vertex 10.1936 7.40609 -6
      vertex 10.1936 7.40609 0
    endloop
  endfacet
  facet normal -0.248686 -0.968584 0
    outer loop
      vertex 2.361 12.3768 -6
      vertex 3.89361 11.9833 0
      vertex 2.361 12.3768 0
    endloop
  endfacet
  facet normal -0.248686 -0.968584 -0
    outer loop
      vertex 3.89361 11.9833 0
      vertex 2.361 12.3768 -6
      vertex 3.89361 11.9833 -6
    endloop
  endfacet
  facet normal -0.125323 -0.992116 0
    outer loop
      vertex 0.79116 12.5751 -6
      vertex 2.361 12.3768 0
      vertex 0.79116 12.5751 0
    endloop
  endfacet
  facet normal -0.125323 -0.992116 -0
    outer loop
      vertex 2.361 12.3768 0
      vertex 0.79116 12.5751 -6
      vertex 2.361 12.3768 -6
    endloop
  endfacet
  facet normal -0.587772 -0.809026 0
    outer loop
      vertex 6.75142 10.6385 -6
      vertex 8.03154 9.70847 0
      vertex 6.75142 10.6385 0
    endloop
  endfacet
  facet normal -0.587772 -0.809026 -0
    outer loop
      vertex 8.03154 9.70847 0
      vertex 6.75142 10.6385 -6
      vertex 8.03154 9.70847 -6
    endloop
  endfacet
  facet normal -0.481759 -0.876304 0
    outer loop
      vertex 5.36482 11.4008 -6
      vertex 6.75142 10.6385 0
      vertex 5.36482 11.4008 0
    endloop
  endfacet
  facet normal -0.481759 -0.876304 -0
    outer loop
      vertex 6.75142 10.6385 0
      vertex 5.36482 11.4008 -6
      vertex 6.75142 10.6385 -6
    endloop
  endfacet
  facet normal 0.998025 -0.0628189 0
    outer loop
      vertex -12.6 0 0
      vertex -12.5006 1.5792 -6
      vertex -12.5006 1.5792 0
    endloop
  endfacet
  facet normal 0.998025 -0.0628189 0
    outer loop
      vertex -12.5006 1.5792 -6
      vertex -12.6 0 0
      vertex -12.6 0 -6
    endloop
  endfacet
  facet normal 0.982287 -0.187383 0
    outer loop
      vertex -12.5006 1.5792 0
      vertex -12.2041 3.13349 -6
      vertex -12.2041 3.13349 0
    endloop
  endfacet
  facet normal 0.982287 -0.187383 0
    outer loop
      vertex -12.2041 3.13349 -6
      vertex -12.5006 1.5792 0
      vertex -12.5006 1.5792 -6
    endloop
  endfacet
  facet normal 0.844312 -0.535852 0
    outer loop
      vertex -11.0415 6.0701 0
      vertex -10.1936 7.40609 -6
      vertex -10.1936 7.40609 0
    endloop
  endfacet
  facet normal 0.844312 -0.535852 0
    outer loop
      vertex -10.1936 7.40609 -6
      vertex -11.0415 6.0701 0
      vertex -11.0415 6.0701 -6
    endloop
  endfacet
  facet normal 0.125323 -0.992116 0
    outer loop
      vertex -2.361 12.3768 -6
      vertex -0.79116 12.5751 0
      vertex -2.361 12.3768 0
    endloop
  endfacet
  facet normal 0.125323 -0.992116 0
    outer loop
      vertex -0.79116 12.5751 0
      vertex -2.361 12.3768 -6
      vertex -0.79116 12.5751 -6
    endloop
  endfacet
  facet normal 0.248686 -0.968584 0
    outer loop
      vertex -3.89361 11.9833 -6
      vertex -2.361 12.3768 0
      vertex -3.89361 11.9833 0
    endloop
  endfacet
  facet normal 0.248686 -0.968584 0
    outer loop
      vertex -2.361 12.3768 0
      vertex -3.89361 11.9833 -6
      vertex -2.361 12.3768 -6
    endloop
  endfacet
  facet normal 0.481759 -0.876304 0
    outer loop
      vertex -6.75142 10.6385 -6
      vertex -5.36482 11.4008 0
      vertex -6.75142 10.6385 0
    endloop
  endfacet
  facet normal 0.481759 -0.876304 0
    outer loop
      vertex -5.36482 11.4008 0
      vertex -6.75142 10.6385 -6
      vertex -5.36482 11.4008 -6
    endloop
  endfacet
  facet normal 0.587772 -0.809026 0
    outer loop
      vertex -8.03154 9.70847 -6
      vertex -6.75142 10.6385 0
      vertex -8.03154 9.70847 0
    endloop
  endfacet
  facet normal 0.587772 -0.809026 0
    outer loop
      vertex -6.75142 10.6385 0
      vertex -8.03154 9.70847 -6
      vertex -6.75142 10.6385 -6
    endloop
  endfacet
  facet normal -0.982287 0.187383 0
    outer loop
      vertex 12.2041 -3.13349 -6
      vertex 12.5006 -1.5792 0
      vertex 12.5006 -1.5792 -6
    endloop
  endfacet
  facet normal -0.982287 0.187383 0
    outer loop
      vertex 12.5006 -1.5792 0
      vertex 12.2041 -3.13349 -6
      vertex 12.2041 -3.13349 0
    endloop
  endfacet
  facet normal -0.125323 0.992116 0
    outer loop
      vertex 2.361 -12.3768 -6
      vertex 0.79116 -12.5751 0
      vertex 2.361 -12.3768 0
    endloop
  endfacet
  facet normal -0.125323 0.992116 0
    outer loop
      vertex 0.79116 -12.5751 0
      vertex 2.361 -12.3768 -6
      vertex 0.79116 -12.5751 -6
    endloop
  endfacet
  facet normal -0.904832 -0.425768 0
    outer loop
      vertex 11.7152 4.63837 -6
      vertex 11.0415 6.0701 0
      vertex 11.0415 6.0701 -6
    endloop
  endfacet
  facet normal -0.904832 -0.425768 0
    outer loop
      vertex 11.0415 6.0701 0
      vertex 11.7152 4.63837 -6
      vertex 11.7152 4.63837 0
    endloop
  endfacet
  facet normal -0.951069 -0.30898 0
    outer loop
      vertex 12.2041 3.13349 -6
      vertex 11.7152 4.63837 0
      vertex 11.7152 4.63837 -6
    endloop
  endfacet
  facet normal -0.951069 -0.30898 0
    outer loop
      vertex 11.7152 4.63837 0
      vertex 12.2041 3.13349 -6
      vertex 12.2041 3.13349 0
    endloop
  endfacet
  facet normal -0.481759 0.876304 0
    outer loop
      vertex 6.75142 -10.6385 -6
      vertex 5.36482 -11.4008 0
      vertex 6.75142 -10.6385 0
    endloop
  endfacet
  facet normal -0.481759 0.876304 0
    outer loop
      vertex 5.36482 -11.4008 0
      vertex 6.75142 -10.6385 -6
      vertex 5.36482 -11.4008 -6
    endloop
  endfacet
  facet normal -0.68455 0.728966 0
    outer loop
      vertex 9.185 -8.62529 -6
      vertex 8.03154 -9.70847 0
      vertex 9.185 -8.62529 0
    endloop
  endfacet
  facet normal -0.68455 0.728966 0
    outer loop
      vertex 8.03154 -9.70847 0
      vertex 9.185 -8.62529 -6
      vertex 8.03154 -9.70847 -6
    endloop
  endfacet
  facet normal -0.844312 0.535852 0
    outer loop
      vertex 10.1936 -7.40609 -6
      vertex 11.0415 -6.0701 0
      vertex 11.0415 -6.0701 -6
    endloop
  endfacet
  facet normal -0.844312 0.535852 0
    outer loop
      vertex 11.0415 -6.0701 0
      vertex 10.1936 -7.40609 -6
      vertex 10.1936 -7.40609 0
    endloop
  endfacet
  facet normal 0.368128 0.929775 -0
    outer loop
      vertex -3.89361 -11.9833 -6
      vertex -5.36482 -11.4008 0
      vertex -3.89361 -11.9833 0
    endloop
  endfacet
  facet normal 0.368128 0.929775 0
    outer loop
      vertex -5.36482 -11.4008 0
      vertex -3.89361 -11.9833 -6
      vertex -5.36482 -11.4008 -6
    endloop
  endfacet
  facet normal 0 1 -0
    outer loop
      vertex 0.79116 -12.5751 -6
      vertex -0.79116 -12.5751 0
      vertex 0.79116 -12.5751 0
    endloop
  endfacet
  facet normal 0 1 0
    outer loop
      vertex -0.79116 -12.5751 0
      vertex 0.79116 -12.5751 -6
      vertex -0.79116 -12.5751 -6
    endloop
  endfacet
  facet normal 0.998025 0.0628189 0
    outer loop
      vertex -12.5006 -1.5792 0
      vertex -12.6 0 -6
      vertex -12.6 0 0
    endloop
  endfacet
  facet normal 0.998025 0.0628189 0
    outer loop
      vertex -12.6 0 -6
      vertex -12.5006 -1.5792 0
      vertex -12.5006 -1.5792 -6
    endloop
  endfacet
  facet normal 0.904832 0.425768 0
    outer loop
      vertex -11.0415 -6.0701 0
      vertex -11.7152 -4.63837 -6
      vertex -11.7152 -4.63837 0
    endloop
  endfacet
  facet normal 0.904832 0.425768 0
    outer loop
      vertex -11.7152 -4.63837 -6
      vertex -11.0415 -6.0701 0
      vertex -11.0415 -6.0701 -6
    endloop
  endfacet
  facet normal 0.951069 0.30898 0
    outer loop
      vertex -11.7152 -4.63837 0
      vertex -12.2041 -3.13349 -6
      vertex -12.2041 -3.13349 0
    endloop
  endfacet
  facet normal 0.951069 0.30898 0
    outer loop
      vertex -12.2041 -3.13349 -6
      vertex -11.7152 -4.63837 0
      vertex -11.7152 -4.63837 -6
    endloop
  endfacet
  facet normal 0.844312 0.535852 0
    outer loop
      vertex -10.1936 -7.40609 0
      vertex -11.0415 -6.0701 -6
      vertex -11.0415 -6.0701 0
    endloop
  endfacet
  facet normal 0.844312 0.535852 0
    outer loop
      vertex -11.0415 -6.0701 -6
      vertex -10.1936 -7.40609 0
      vertex -10.1936 -7.40609 -6
    endloop
  endfacet
  facet normal 0.770516 0.63742 0
    outer loop
      vertex -9.185 -8.62529 0
      vertex -10.1936 -7.40609 -6
      vertex -10.1936 -7.40609 0
    endloop
  endfacet
  facet normal 0.770516 0.63742 0
    outer loop
      vertex -10.1936 -7.40609 -6
      vertex -9.185 -8.62529 0
      vertex -9.185 -8.62529 -6
    endloop
  endfacet
  facet normal -0.951069 0.30898 0
    outer loop
      vertex 11.7152 -4.63837 -6
      vertex 12.2041 -3.13349 0
      vertex 12.2041 -3.13349 -6
    endloop
  endfacet
  facet normal -0.951069 0.30898 0
    outer loop
      vertex 12.2041 -3.13349 0
      vertex 11.7152 -4.63837 -6
      vertex 11.7152 -4.63837 0
    endloop
  endfacet
  facet normal -0.587772 0.809026 0
    outer loop
      vertex 8.03154 -9.70847 -6
      vertex 6.75142 -10.6385 0
      vertex 8.03154 -9.70847 0
    endloop
  endfacet
  facet normal -0.587772 0.809026 0
    outer loop
      vertex 6.75142 -10.6385 0
      vertex 8.03154 -9.70847 -6
      vertex 6.75142 -10.6385 -6
    endloop
  endfacet
  facet normal 0.587772 0.809026 -0
    outer loop
      vertex -6.75142 -10.6385 -6
      vertex -8.03154 -9.70847 0
      vertex -6.75142 -10.6385 0
    endloop
  endfacet
  facet normal 0.587772 0.809026 0
    outer loop
      vertex -8.03154 -9.70847 0
      vertex -6.75142 -10.6385 -6
      vertex -8.03154 -9.70847 -6
    endloop
  endfacet
  facet normal 0.125323 0.992116 -0
    outer loop
      vertex -0.79116 -12.5751 -6
      vertex -2.361 -12.3768 0
      vertex -0.79116 -12.5751 0
    endloop
  endfacet
  facet normal 0.125323 0.992116 0
    outer loop
      vertex -2.361 -12.3768 0
      vertex -0.79116 -12.5751 -6
      vertex -2.361 -12.3768 -6
    endloop
  endfacet
  facet normal 0.248686 0.968584 -0
    outer loop
      vertex -2.361 -12.3768 -6
      vertex -3.89361 -11.9833 0
      vertex -2.361 -12.3768 0
    endloop
  endfacet
  facet normal 0.248686 0.968584 0
    outer loop
      vertex -3.89361 -11.9833 0
      vertex -2.361 -12.3768 -6
      vertex -3.89361 -11.9833 -6
    endloop
  endfacet
  facet normal 0 0 1
    outer loop
      vertex 12.5006 1.5792 -6
      vertex 12.5006 -1.5792 -6
      vertex 12.6 0 -6
    endloop
  endfacet
  facet normal 0 0 1
    outer loop
      vertex 12.2041 3.13349 -6
      vertex 12.5006 -1.5792 -6
      vertex 12.5006 1.5792 -6
    endloop
  endfacet
  facet normal 0 0 1
    outer loop
      vertex 12.2041 3.13349 -6
      vertex 12.2041 -3.13349 -6
      vertex 12.5006 -1.5792 -6
    endloop
  endfacet
  facet normal 0 0 1
    outer loop
      vertex 11.7152 4.63837 -6
      vertex 12.2041 -3.13349 -6
      vertex 12.2041 3.13349 -6
    endloop
  endfacet
  facet normal 0 0 1
    outer loop
      vertex 11.7152 4.63837 -6
      vertex 11.7152 -4.63837 -6
      vertex 12.2041 -3.13349 -6
    endloop
  endfacet
  facet normal 0 0 1
    outer loop
      vertex 11.0415 6.0701 -6
      vertex 11.7152 -4.63837 -6
      vertex 11.7152 4.63837 -6
    endloop
  endfacet
  facet normal 0 0 1
    outer loop
      vertex 11.0415 6.0701 -6
      vertex 11.0415 -6.0701 -6
      vertex 11.7152 -4.63837 -6
    endloop
  endfacet
  facet normal 0 0 1
    outer loop
      vertex 10.1936 7.40609 -6
      vertex 11.0415 -6.0701 -6
      vertex 11.0415 6.0701 -6
    endloop
  endfacet
  facet normal 0 0 1
    outer loop
      vertex 10.1936 7.40609 -6
      vertex 10.1936 -7.40609 -6
      vertex 11.0415 -6.0701 -6
    endloop
  endfacet
  facet normal 0 0 1
    outer loop
      vertex 9.185 8.62529 -6
      vertex 10.1936 -7.40609 -6
      vertex 10.1936 7.40609 -6
    endloop
  endfacet
  facet normal 0 0 1
    outer loop
      vertex 9.185 8.62529 -6
      vertex 9.185 -8.62529 -6
      vertex 10.1936 -7.40609 -6
    endloop
  endfacet
  facet normal 0 0 1
    outer loop
      vertex 8.03154 9.70847 -6
      vertex 9.185 -8.62529 -6
      vertex 9.185 8.62529 -6
    endloop
  endfacet
  facet normal 0 0 1
    outer loop
      vertex 8.03154 9.70847 -6
      vertex 8.03154 -9.70847 -6
      vertex 9.185 -8.62529 -6
    endloop
  endfacet
  facet normal 0 0 1
    outer loop
      vertex 6.75142 10.6385 -6
      vertex 8.03154 -9.70847 -6
      vertex 8.03154 9.70847 -6
    endloop
  endfacet
  facet normal 0 0 1
    outer loop
      vertex 6.75142 10.6385 -6
      vertex 6.75142 -10.6385 -6
      vertex 8.03154 -9.70847 -6
    endloop
  endfacet
  facet normal 0 0 1
    outer loop
      vertex 5.36482 11.4008 -6
      vertex 6.75142 -10.6385 -6
      vertex 6.75142 10.6385 -6
    endloop
  endfacet
  facet normal 0 0 1
    outer loop
      vertex 5.36482 11.4008 -6
      vertex 5.36482 -11.4008 -6
      vertex 6.75142 -10.6385 -6
    endloop
  endfacet
  facet normal 0 0 1
    outer loop
      vertex 3.89361 11.9833 -6
      vertex 5.36482 -11.4008 -6
      vertex 5.36482 11.4008 -6
    endloop
  endfacet
  facet normal 0 0 1
    outer loop
      vertex 3.89361 11.9833 -6
      vertex 3.89361 -11.9833 -6
      vertex 5.36482 -11.4008 -6
    endloop
  endfacet
  facet normal 0 0 1
    outer loop
      vertex 2.361 12.3768 -6
      vertex 3.89361 -11.9833 -6
      vertex 3.89361 11.9833 -6
    endloop
  endfacet
  facet normal 0 0 1
    outer loop
      vertex 2.361 12.3768 -6
      vertex 2.361 -12.3768 -6
      vertex 3.89361 -11.9833 -6
    endloop
  endfacet
  facet normal 0 0 1
    outer loop
      vertex 0.79116 12.5751 -6
      vertex 2.361 -12.3768 -6
      vertex 2.361 12.3768 -6
    endloop
  endfacet
  facet normal 0 0 1
    outer loop
      vertex 0.79116 12.5751 -6
      vertex 0.79116 -12.5751 -6
      vertex 2.361 -12.3768 -6
    endloop
  endfacet
  facet normal -0 0 1
    outer loop
      vertex -0.79116 12.5751 -6
      vertex 0.79116 -12.5751 -6
      vertex 0.79116 12.5751 -6
    endloop
  endfacet
  facet normal 0 0 1
    outer loop
      vertex -0.79116 12.5751 -6
      vertex -0.79116 -12.5751 -6
      vertex 0.79116 -12.5751 -6
    endloop
  endfacet
  facet normal -0 0 1
    outer loop
      vertex -2.361 12.3768 -6
      vertex -0.79116 -12.5751 -6
      vertex -0.79116 12.5751 -6
    endloop
  endfacet
  facet normal 0 0 1
    outer loop
      vertex -2.361 12.3768 -6
      vertex -2.361 -12.3768 -6
      vertex -0.79116 -12.5751 -6
    endloop
  endfacet
  facet normal -0 0 1
    outer loop
      vertex -3.89361 11.9833 -6
      vertex -2.361 -12.3768 -6
      vertex -2.361 12.3768 -6
    endloop
  endfacet
  facet normal 0 0 1
    outer loop
      vertex -3.89361 11.9833 -6
      vertex -3.89361 -11.9833 -6
      vertex -2.361 -12.3768 -6
    endloop
  endfacet
  facet normal -0 0 1
    outer loop
      vertex -5.36482 11.4008 -6
      vertex -3.89361 -11.9833 -6
      vertex -3.89361 11.9833 -6
    endloop
  endfacet
  facet normal 0 0 1
    outer loop
      vertex -5.36482 11.4008 -6
      vertex -5.36482 -11.4008 -6
      vertex -3.89361 -11.9833 -6
    endloop
  endfacet
  facet normal -0 0 1
    outer loop
      vertex -6.75142 10.6385 -6
      vertex -5.36482 -11.4008 -6
      vertex -5.36482 11.4008 -6
    endloop
  endfacet
  facet normal 0 0 1
    outer loop
      vertex -6.75142 10.6385 -6
      vertex -6.75142 -10.6385 -6
      vertex -5.36482 -11.4008 -6
    endloop
  endfacet
  facet normal -0 0 1
    outer loop
      vertex -8.03154 9.70847 -6
      vertex -6.75142 -10.6385 -6
      vertex -6.75142 10.6385 -6
    endloop
  endfacet
  facet normal 0 0 1
    outer loop
      vertex -8.03154 9.70847 -6
      vertex -8.03154 -9.70847 -6
      vertex -6.75142 -10.6385 -6
    endloop
  endfacet
  facet normal -0 0 1
    outer loop
      vertex -9.185 8.62529 -6
      vertex -8.03154 -9.70847 -6
      vertex -8.03154 9.70847 -6
    endloop
  endfacet
  facet normal 0 0 1
    outer loop
      vertex -9.185 8.62529 -6
      vertex -9.185 -8.62529 -6
      vertex -8.03154 -9.70847 -6
    endloop
  endfacet
  facet normal -0 0 1
    outer loop
      vertex -10.1936 7.40609 -6
      vertex -9.185 -8.62529 -6
      vertex -9.185 8.62529 -6
    endloop
  endfacet
  facet normal 0 0 1
    outer loop
      vertex -10.1936 7.40609 -6
      vertex -10.1936 -7.40609 -6
      vertex -9.185 -8.62529 -6
    endloop
  endfacet
  facet normal -0 0 1
    outer loop
      vertex -11.0415 6.0701 -6
      vertex -10.1936 -7.40609 -6
      vertex -10.1936 7.40609 -6
    endloop
  endfacet
  facet normal 0 0 1
    outer loop
      vertex -11.0415 6.0701 -6
      vertex -11.0415 -6.0701 -6
      vertex -10.1936 -7.40609 -6
    endloop
  endfacet
  facet normal -0 0 1
    outer loop
      vertex -11.7152 4.63837 -6
      vertex -11.0415 -6.0701 -6
      vertex -11.0415 6.0701 -6
    endloop
  endfacet
  facet normal 0 0 1
    outer loop
      vertex -11.7152 4.63837 -6
      vertex -11.7152 -4.63837 -6
      vertex -11.0415 -6.0701 -6
    endloop
  endfacet
  facet normal -0 0 1
    outer loop
      vertex -12.2041 3.13349 -6
      vertex -11.7152 -4.63837 -6
      vertex -11.7152 4.63837 -6
    endloop
  endfacet
  facet normal 0 0 1
    outer loop
      vertex -12.2041 3.13349 -6
      vertex -12.2041 -3.13349 -6
      vertex -11.7152 -4.63837 -6
    endloop
  endfacet
  facet normal -0 0 1
    outer loop
      vertex -12.5006 1.5792 -6
      vertex -12.2041 -3.13349 -6
      vertex -12.2041 3.13349 -6
    endloop
  endfacet
  facet normal 0 0 1
    outer loop
      vertex -12.5006 1.5792 -6
      vertex -12.5006 -1.5792 -6
      vertex -12.2041 -3.13349 -6
    endloop
  endfacet
  facet normal 0 -0 1
    outer loop
      vertex -12.5006 -1.5792 -6
      vertex -12.5006 1.5792 -6
      vertex -12.6 0 -6
    endloop
  endfacet
  facet normal 0.982287 0.187383 0
    outer loop
      vertex -12.2041 -3.13349 0
      vertex -12.5006 -1.5792 -6
      vertex -12.5006 -1.5792 0
    endloop
  endfacet
  facet normal 0.982287 0.187383 0
    outer loop
      vertex -12.5006 -1.5792 -6
      vertex -12.2041 -3.13349 0
      vertex -12.2041 -3.13349 -6
    endloop
  endfacet
  facet normal 0.68455 0.728966 -0
    outer loop
      vertex -8.03154 -9.70847 -6
      vertex -9.185 -8.62529 0
      vertex -8.03154 -9.70847 0
    endloop
  endfacet
  facet normal 0.68455 0.728966 0
    outer loop
      vertex -9.185 -8.62529 0
      vertex -8.03154 -9.70847 -6
      vertex -9.185 -8.62529 -6
    endloop
  endfacet
  facet normal -0.770516 0.63742 0
    outer loop
      vertex 9.185 -8.62529 -6
      vertex 10.1936 -7.40609 0
      vertex 10.1936 -7.40609 -6
    endloop
  endfacet
  facet normal -0.770516 0.63742 0
    outer loop
      vertex 10.1936 -7.40609 0
      vertex 9.185 -8.62529 -6
      vertex 9.185 -8.62529 0
    endloop
  endfacet
  facet normal 0.481759 0.876304 -0
    outer loop
      vertex -5.36482 -11.4008 -6
      vertex -6.75142 -10.6385 0
      vertex -5.36482 -11.4008 0
    endloop
  endfacet
  facet normal 0.481759 0.876304 0
    outer loop
      vertex -6.75142 -10.6385 0
      vertex -5.36482 -11.4008 -6
      vertex -6.75142 -10.6385 -6
    endloop
  endfacet
endsolid OpenSCAD_Model
