solid OpenSCAD_Model
  facet normal 0.998026 0.0627961 0
    outer loop
      vertex 5 0 0
      vertex 4.96057 0.626666 -4
      vertex 4.96057 0.626666 0
    endloop
  endfacet
  facet normal 0.998026 0.0627961 0
    outer loop
      vertex 4.96057 0.626666 -4
      vertex 5 0 0
      vertex 5 0 -4
    endloop
  endfacet
  facet normal -0.998026 0.0627961 0
    outer loop
      vertex -5 0 -4
      vertex -4.96057 0.626666 0
      vertex -4.96057 0.626666 -4
    endloop
  endfacet
  facet normal -0.998026 0.0627961 0
    outer loop
      vertex -4.96057 0.626666 0
      vertex -5 0 -4
      vertex -5 0 0
    endloop
  endfacet
  facet normal 0 1 -0
    outer loop
      vertex 0.313952 4.99013 -4
      vertex -0.313952 4.99013 0
      vertex 0.313952 4.99013 0
    endloop
  endfacet
  facet normal 0 1 0
    outer loop
      vertex -0.313952 4.99013 0
      vertex 0.313952 4.99013 -4
      vertex -0.313952 4.99013 -4
    endloop
  endfacet
  facet normal 0 -1 0
    outer loop
      vertex -0.313952 -4.99013 -4
      vertex 0.313952 -4.99013 0
      vertex -0.313952 -4.99013 0
    endloop
  endfacet
  facet normal 0 -1 -0
    outer loop
      vertex 0.313952 -4.99013 0
      vertex -0.313952 -4.99013 -4
      vertex 0.313952 -4.99013 -4
    endloop
  endfacet
  facet normal 0.684549 -0.728967 0
    outer loop
      vertex 3.18712 -3.85257 -4
      vertex 3.64484 -3.42274 0
      vertex 3.18712 -3.85257 0
    endloop
  endfacet
  facet normal 0.684549 -0.728967 0
    outer loop
      vertex 3.64484 -3.42274 0
      vertex 3.18712 -3.85257 -4
      vertex 3.64484 -3.42274 -4
    endloop
  endfacet
  facet normal 0.684549 0.728967 -0
    outer loop
      vertex 3.64484 3.42274 -4
      vertex 3.18712 3.85257 0
      vertex 3.64484 3.42274 0
    endloop
  endfacet
  facet normal 0.684549 0.728967 0
    outer loop
      vertex 3.18712 3.85257 0
      vertex 3.64484 3.42274 -4
      vertex 3.18712 3.85257 -4
    endloop
  endfacet
  facet normal -0.684549 0.728967 0
    outer loop
      vertex -3.18712 3.85257 -4
      vertex -3.64484 3.42274 0
      vertex -3.18712 3.85257 0
    endloop
  endfacet
  facet normal -0.684549 0.728967 0
    outer loop
      vertex -3.64484 3.42274 0
      vertex -3.18712 3.85257 -4
      vertex -3.64484 3.42274 -4
    endloop
  endfacet
  facet normal -0.368124 0.929777 0
    outer loop
      vertex -1.54508 4.75528 -4
      vertex -2.1289 4.52413 0
      vertex -1.54508 4.75528 0
    endloop
  endfacet
  facet normal -0.368124 0.929777 0
    outer loop
      vertex -2.1289 4.52413 0
      vertex -1.54508 4.75528 -4
      vertex -2.1289 4.52413 -4
    endloop
  endfacet
  facet normal 0.904828 0.425778 0
    outer loop
      vertex 4.64888 1.84062 0
      vertex 4.38153 2.40877 -4
      vertex 4.38153 2.40877 0
    endloop
  endfacet
  facet normal 0.904828 0.425778 0
    outer loop
      vertex 4.38153 2.40877 -4
      vertex 4.64888 1.84062 0
      vertex 4.64888 1.84062 -4
    endloop
  endfacet
  facet normal 0.98229 0.187369 0
    outer loop
      vertex 4.96057 0.626666 0
      vertex 4.84292 1.24345 -4
      vertex 4.84292 1.24345 0
    endloop
  endfacet
  facet normal 0.98229 0.187369 0
    outer loop
      vertex 4.84292 1.24345 -4
      vertex 4.96057 0.626666 0
      vertex 4.96057 0.626666 -4
    endloop
  endfacet
  facet normal 0.368124 0.929777 -0
    outer loop
      vertex 2.1289 4.52413 -4
      vertex 1.54508 4.75528 0
      vertex 2.1289 4.52413 0
    endloop
  endfacet
  facet normal 0.368124 0.929777 0
    outer loop
      vertex 1.54508 4.75528 0
      vertex 2.1289 4.52413 -4
      vertex 1.54508 4.75528 -4
    endloop
  endfacet
  facet normal 0.248701 0.96858 -0
    outer loop
      vertex 1.54508 4.75528 -4
      vertex 0.936906 4.91144 0
      vertex 1.54508 4.75528 0
    endloop
  endfacet
  facet normal 0.248701 0.96858 0
    outer loop
      vertex 0.936906 4.91144 0
      vertex 1.54508 4.75528 -4
      vertex 0.936906 4.91144 -4
    endloop
  endfacet
  facet normal 0.481752 0.876308 -0
    outer loop
      vertex 2.67913 4.22164 -4
      vertex 2.1289 4.52413 0
      vertex 2.67913 4.22164 0
    endloop
  endfacet
  facet normal 0.481752 0.876308 0
    outer loop
      vertex 2.1289 4.52413 0
      vertex 2.67913 4.22164 -4
      vertex 2.1289 4.52413 -4
    endloop
  endfacet
  facet normal -0.844328 0.535827 0
    outer loop
      vertex -4.38153 2.40877 -4
      vertex -4.04508 2.93893 0
      vertex -4.04508 2.93893 -4
    endloop
  endfacet
  facet normal -0.844328 0.535827 0
    outer loop
      vertex -4.04508 2.93893 0
      vertex -4.38153 2.40877 -4
      vertex -4.38153 2.40877 0
    endloop
  endfacet
  facet normal -0.770515 0.637422 0
    outer loop
      vertex -4.04508 2.93893 -4
      vertex -3.64484 3.42274 0
      vertex -3.64484 3.42274 -4
    endloop
  endfacet
  facet normal -0.770515 0.637422 0
    outer loop
      vertex -3.64484 3.42274 0
      vertex -4.04508 2.93893 -4
      vertex -4.04508 2.93893 0
    endloop
  endfacet
  facet normal -0.951053 0.309028 0
    outer loop
      vertex -4.84292 1.24345 -4
      vertex -4.64888 1.84062 0
      vertex -4.64888 1.84062 -4
    endloop
  endfacet
  facet normal -0.951053 0.309028 0
    outer loop
      vertex -4.64888 1.84062 0
      vertex -4.84292 1.24345 -4
      vertex -4.84292 1.24345 0
    endloop
  endfacet
  facet normal -0.587779 0.809022 0
    outer loop
      vertex -2.67913 4.22164 -4
      vertex -3.18712 3.85257 0
      vertex -2.67913 4.22164 0
    endloop
  endfacet
  facet normal -0.587779 0.809022 0
    outer loop
      vertex -3.18712 3.85257 0
      vertex -2.67913 4.22164 -4
      vertex -3.18712 3.85257 -4
    endloop
  endfacet
  facet normal -0.248701 0.96858 0
    outer loop
      vertex -0.936906 4.91144 -4
      vertex -1.54508 4.75528 0
      vertex -0.936906 4.91144 0
    endloop
  endfacet
  facet normal -0.248701 0.96858 0
    outer loop
      vertex -1.54508 4.75528 0
      vertex -0.936906 4.91144 -4
      vertex -1.54508 4.75528 -4
    endloop
  endfacet
  facet normal 0.125322 -0.992116 0
    outer loop
      vertex 0.313952 -4.99013 -4
      vertex 0.936906 -4.91144 0
      vertex 0.313952 -4.99013 0
    endloop
  endfacet
  facet normal 0.125322 -0.992116 0
    outer loop
      vertex 0.936906 -4.91144 0
      vertex 0.313952 -4.99013 -4
      vertex 0.936906 -4.91144 -4
    endloop
  endfacet
  facet normal 0.951053 0.309028 0
    outer loop
      vertex 4.84292 1.24345 0
      vertex 4.64888 1.84062 -4
      vertex 4.64888 1.84062 0
    endloop
  endfacet
  facet normal 0.951053 0.309028 0
    outer loop
      vertex 4.64888 1.84062 -4
      vertex 4.84292 1.24345 0
      vertex 4.84292 1.24345 -4
    endloop
  endfacet
  facet normal 0.770515 0.637422 0
    outer loop
      vertex 4.04508 2.93893 0
      vertex 3.64484 3.42274 -4
      vertex 3.64484 3.42274 0
    endloop
  endfacet
  facet normal 0.770515 0.637422 0
    outer loop
      vertex 3.64484 3.42274 -4
      vertex 4.04508 2.93893 0
      vertex 4.04508 2.93893 -4
    endloop
  endfacet
  facet normal 0.844328 0.535827 0
    outer loop
      vertex 4.38153 2.40877 0
      vertex 4.04508 2.93893 -4
      vertex 4.04508 2.93893 0
    endloop
  endfacet
  facet normal 0.844328 0.535827 0
    outer loop
      vertex 4.04508 2.93893 -4
      vertex 4.38153 2.40877 0
      vertex 4.38153 2.40877 -4
    endloop
  endfacet
  facet normal 0.125322 0.992116 -0
    outer loop
      vertex 0.936906 4.91144 -4
      vertex 0.313952 4.99013 0
      vertex 0.936906 4.91144 0
    endloop
  endfacet
  facet normal 0.125322 0.992116 0
    outer loop
      vertex 0.313952 4.99013 0
      vertex 0.936906 4.91144 -4
      vertex 0.313952 4.99013 -4
    endloop
  endfacet
  facet normal 0.587779 0.809022 -0
    outer loop
      vertex 3.18712 3.85257 -4
      vertex 2.67913 4.22164 0
      vertex 3.18712 3.85257 0
    endloop
  endfacet
  facet normal 0.587779 0.809022 0
    outer loop
      vertex 2.67913 4.22164 0
      vertex 3.18712 3.85257 -4
      vertex 2.67913 4.22164 -4
    endloop
  endfacet
  facet normal -0.904828 0.425778 0
    outer loop
      vertex -4.64888 1.84062 -4
      vertex -4.38153 2.40877 0
      vertex -4.38153 2.40877 -4
    endloop
  endfacet
  facet normal -0.904828 0.425778 0
    outer loop
      vertex -4.38153 2.40877 0
      vertex -4.64888 1.84062 -4
      vertex -4.64888 1.84062 0
    endloop
  endfacet
  facet normal -0.98229 0.187369 0
    outer loop
      vertex -4.96057 0.626666 -4
      vertex -4.84292 1.24345 0
      vertex -4.84292 1.24345 -4
    endloop
  endfacet
  facet normal -0.98229 0.187369 0
    outer loop
      vertex -4.84292 1.24345 0
      vertex -4.96057 0.626666 -4
      vertex -4.96057 0.626666 0
    endloop
  endfacet
  facet normal 0 0 1
    outer loop
      vertex 4.1 0 0
      vertex 5 0 0
      vertex 4.96057 0.626666 0
    endloop
  endfacet
  facet normal 0 0 1
    outer loop
      vertex 4.06767 0.513865 0
      vertex 4.96057 0.626666 0
      vertex 4.84292 1.24345 0
    endloop
  endfacet
  facet normal 0 0 1
    outer loop
      vertex 5 0 0
      vertex 4.1 0 0
      vertex 4.96057 -0.626666 0
    endloop
  endfacet
  facet normal 0 0 1
    outer loop
      vertex 3.97119 1.01963 0
      vertex 4.84292 1.24345 0
      vertex 4.64888 1.84062 0
    endloop
  endfacet
  facet normal -0 0 1
    outer loop
      vertex 4.06767 -0.513865 0
      vertex 4.96057 -0.626666 0
      vertex 4.1 0 0
    endloop
  endfacet
  facet normal 0 0 1
    outer loop
      vertex 3.81208 1.50931 0
      vertex 4.64888 1.84062 0
      vertex 4.38153 2.40877 0
    endloop
  endfacet
  facet normal 0 0 1
    outer loop
      vertex 4.96057 -0.626666 0
      vertex 4.06767 -0.513865 0
      vertex 4.84292 -1.24345 0
    endloop
  endfacet
  facet normal -0 0 1
    outer loop
      vertex 3.97119 -1.01963 0
      vertex 4.84292 -1.24345 0
      vertex 4.06767 -0.513865 0
    endloop
  endfacet
  facet normal 0 0 1
    outer loop
      vertex 4.96057 0.626666 0
      vertex 4.06767 0.513865 0
      vertex 4.1 0 0
    endloop
  endfacet
  facet normal 0 0 1
    outer loop
      vertex 3.59286 1.97519 0
      vertex 4.38153 2.40877 0
      vertex 4.04508 2.93893 0
    endloop
  endfacet
  facet normal 0 0 1
    outer loop
      vertex 4.84292 1.24345 0
      vertex 3.97119 1.01963 0
      vertex 4.06767 0.513865 0
    endloop
  endfacet
  facet normal 0 0 1
    outer loop
      vertex 4.64888 1.84062 0
      vertex 3.81208 1.50931 0
      vertex 3.97119 1.01963 0
    endloop
  endfacet
  facet normal 0 0 1
    outer loop
      vertex 3.31697 2.40992 0
      vertex 4.04508 2.93893 0
      vertex 3.64484 3.42274 0
    endloop
  endfacet
  facet normal 0 0 1
    outer loop
      vertex 4.38153 2.40877 0
      vertex 3.59286 1.97519 0
      vertex 3.81208 1.50931 0
    endloop
  endfacet
  facet normal 0 0 1
    outer loop
      vertex 4.04508 2.93893 0
      vertex 3.31697 2.40992 0
      vertex 3.59286 1.97519 0
    endloop
  endfacet
  facet normal 0 0 1
    outer loop
      vertex 2.98877 2.80664 0
      vertex 3.64484 3.42274 0
      vertex 3.18712 3.85257 0
    endloop
  endfacet
  facet normal 0 0 1
    outer loop
      vertex 3.64484 3.42274 0
      vertex 2.98877 2.80664 0
      vertex 3.31697 2.40992 0
    endloop
  endfacet
  facet normal 0 0 1
    outer loop
      vertex 2.61344 3.1591 0
      vertex 3.18712 3.85257 0
      vertex 2.67913 4.22164 0
    endloop
  endfacet
  facet normal 0 0 1
    outer loop
      vertex 3.18712 3.85257 0
      vertex 2.61344 3.1591 0
      vertex 2.98877 2.80664 0
    endloop
  endfacet
  facet normal 0 0 1
    outer loop
      vertex 2.67913 4.22164 0
      vertex 2.19689 3.46174 0
      vertex 2.61344 3.1591 0
    endloop
  endfacet
  facet normal 0 0 1
    outer loop
      vertex 2.1289 4.52413 0
      vertex 2.19689 3.46174 0
      vertex 2.67913 4.22164 0
    endloop
  endfacet
  facet normal 0 0 1
    outer loop
      vertex 2.1289 4.52413 0
      vertex 1.74569 3.70979 0
      vertex 2.19689 3.46174 0
    endloop
  endfacet
  facet normal 0 0 1
    outer loop
      vertex 1.54508 4.75528 0
      vertex 1.74569 3.70979 0
      vertex 2.1289 4.52413 0
    endloop
  endfacet
  facet normal 0 0 1
    outer loop
      vertex 1.54508 4.75528 0
      vertex 1.26697 3.89933 0
      vertex 1.74569 3.70979 0
    endloop
  endfacet
  facet normal 0 0 1
    outer loop
      vertex 0.936906 4.91144 0
      vertex 1.26697 3.89933 0
      vertex 1.54508 4.75528 0
    endloop
  endfacet
  facet normal 0 0 1
    outer loop
      vertex 0.936906 4.91144 0
      vertex 0.768263 4.02738 0
      vertex 1.26697 3.89933 0
    endloop
  endfacet
  facet normal 0 0 1
    outer loop
      vertex 0.313952 4.99013 0
      vertex 0.768263 4.02738 0
      vertex 0.936906 4.91144 0
    endloop
  endfacet
  facet normal 0 0 1
    outer loop
      vertex 0.313952 4.99013 0
      vertex 0.257441 4.09191 0
      vertex 0.768263 4.02738 0
    endloop
  endfacet
  facet normal 0 0 1
    outer loop
      vertex 0.313952 4.99013 0
      vertex -0.257441 4.09191 0
      vertex 0.257441 4.09191 0
    endloop
  endfacet
  facet normal -0 0 1
    outer loop
      vertex -0.313952 4.99013 0
      vertex -0.257441 4.09191 0
      vertex 0.313952 4.99013 0
    endloop
  endfacet
  facet normal 0 0 1
    outer loop
      vertex -0.313952 4.99013 0
      vertex -0.768263 4.02738 0
      vertex -0.257441 4.09191 0
    endloop
  endfacet
  facet normal -0 0 1
    outer loop
      vertex -0.936906 4.91144 0
      vertex -0.768263 4.02738 0
      vertex -0.313952 4.99013 0
    endloop
  endfacet
  facet normal 0 0 1
    outer loop
      vertex -0.936906 4.91144 0
      vertex -1.26697 3.89933 0
      vertex -0.768263 4.02738 0
    endloop
  endfacet
  facet normal -0 0 1
    outer loop
      vertex -1.54508 4.75528 0
      vertex -1.26697 3.89933 0
      vertex -0.936906 4.91144 0
    endloop
  endfacet
  facet normal 0 0 1
    outer loop
      vertex -1.54508 4.75528 0
      vertex -1.74569 3.70979 0
      vertex -1.26697 3.89933 0
    endloop
  endfacet
  facet normal -0 0 1
    outer loop
      vertex -2.1289 4.52413 0
      vertex -1.74569 3.70979 0
      vertex -1.54508 4.75528 0
    endloop
  endfacet
  facet normal 0 0 1
    outer loop
      vertex -2.1289 4.52413 0
      vertex -2.19689 3.46174 0
      vertex -1.74569 3.70979 0
    endloop
  endfacet
  facet normal -0 0 1
    outer loop
      vertex -2.67913 4.22164 0
      vertex -2.19689 3.46174 0
      vertex -2.1289 4.52413 0
    endloop
  endfacet
  facet normal 0 0 1
    outer loop
      vertex -2.19689 3.46174 0
      vertex -2.67913 4.22164 0
      vertex -2.61344 3.1591 0
    endloop
  endfacet
  facet normal -0 0 1
    outer loop
      vertex -3.18712 3.85257 0
      vertex -2.61344 3.1591 0
      vertex -2.67913 4.22164 0
    endloop
  endfacet
  facet normal 0 0 1
    outer loop
      vertex -2.61344 3.1591 0
      vertex -3.18712 3.85257 0
      vertex -2.98877 2.80664 0
    endloop
  endfacet
  facet normal -0 0 1
    outer loop
      vertex -3.64484 3.42274 0
      vertex -2.98877 2.80664 0
      vertex -3.18712 3.85257 0
    endloop
  endfacet
  facet normal 0 0 1
    outer loop
      vertex -2.98877 2.80664 0
      vertex -3.64484 3.42274 0
      vertex -3.31697 2.40992 0
    endloop
  endfacet
  facet normal -0 0 1
    outer loop
      vertex -4.04508 2.93893 0
      vertex -3.31697 2.40992 0
      vertex -3.64484 3.42274 0
    endloop
  endfacet
  facet normal 0 0 1
    outer loop
      vertex -3.31697 2.40992 0
      vertex -4.04508 2.93893 0
      vertex -3.59286 1.97519 0
    endloop
  endfacet
  facet normal -0 0 1
    outer loop
      vertex -4.38153 2.40877 0
      vertex -3.59286 1.97519 0
      vertex -4.04508 2.93893 0
    endloop
  endfacet
  facet normal 0 0 1
    outer loop
      vertex -3.59286 1.97519 0
      vertex -4.38153 2.40877 0
      vertex -3.81208 1.50931 0
    endloop
  endfacet
  facet normal -0 0 1
    outer loop
      vertex -4.64888 1.84062 0
      vertex -3.81208 1.50931 0
      vertex -4.38153 2.40877 0
    endloop
  endfacet
  facet normal 0 0 1
    outer loop
      vertex -3.81208 1.50931 0
      vertex -4.64888 1.84062 0
      vertex -3.97119 1.01963 0
    endloop
  endfacet
  facet normal -0 0 1
    outer loop
      vertex -4.84292 1.24345 0
      vertex -3.97119 1.01963 0
      vertex -4.64888 1.84062 0
    endloop
  endfacet
  facet normal 0 0 1
    outer loop
      vertex 4.84292 -1.24345 0
      vertex 3.97119 -1.01963 0
      vertex 4.64888 -1.84062 0
    endloop
  endfacet
  facet normal -0 0 1
    outer loop
      vertex 3.81208 -1.50931 0
      vertex 4.64888 -1.84062 0
      vertex 3.97119 -1.01963 0
    endloop
  endfacet
  facet normal 0 0 1
    outer loop
      vertex 4.64888 -1.84062 0
      vertex 3.81208 -1.50931 0
      vertex 4.38153 -2.40877 0
    endloop
  endfacet
  facet normal -0 0 1
    outer loop
      vertex 3.59286 -1.97519 0
      vertex 4.38153 -2.40877 0
      vertex 3.81208 -1.50931 0
    endloop
  endfacet
  facet normal 0 0 1
    outer loop
      vertex 4.38153 -2.40877 0
      vertex 3.59286 -1.97519 0
      vertex 4.04508 -2.93893 0
    endloop
  endfacet
  facet normal -0 0 1
    outer loop
      vertex 3.31697 -2.40992 0
      vertex 4.04508 -2.93893 0
      vertex 3.59286 -1.97519 0
    endloop
  endfacet
  facet normal 0 0 1
    outer loop
      vertex 4.04508 -2.93893 0
      vertex 3.31697 -2.40992 0
      vertex 3.64484 -3.42274 0
    endloop
  endfacet
  facet normal -0 0 1
    outer loop
      vertex 2.98877 -2.80664 0
      vertex 3.64484 -3.42274 0
      vertex 3.31697 -2.40992 0
    endloop
  endfacet
  facet normal 0 0 1
    outer loop
      vertex 3.64484 -3.42274 0
      vertex 2.98877 -2.80664 0
      vertex 3.18712 -3.85257 0
    endloop
  endfacet
  facet normal -0 0 1
    outer loop
      vertex 2.61344 -3.1591 0
      vertex 3.18712 -3.85257 0
      vertex 2.98877 -2.80664 0
    endloop
  endfacet
  facet normal 0 0 1
    outer loop
      vertex 3.18712 -3.85257 0
      vertex 2.61344 -3.1591 0
      vertex 2.67913 -4.22164 0
    endloop
  endfacet
  facet normal -0 0 1
    outer loop
      vertex 2.19689 -3.46174 0
      vertex 2.67913 -4.22164 0
      vertex 2.61344 -3.1591 0
    endloop
  endfacet
  facet normal 0 0 1
    outer loop
      vertex 2.19689 -3.46174 0
      vertex 2.1289 -4.52413 0
      vertex 2.67913 -4.22164 0
    endloop
  endfacet
  facet normal -0 0 1
    outer loop
      vertex 1.74569 -3.70979 0
      vertex 2.1289 -4.52413 0
      vertex 2.19689 -3.46174 0
    endloop
  endfacet
  facet normal 0 0 1
    outer loop
      vertex 1.74569 -3.70979 0
      vertex 1.54508 -4.75528 0
      vertex 2.1289 -4.52413 0
    endloop
  endfacet
  facet normal -0 0 1
    outer loop
      vertex 1.26697 -3.89933 0
      vertex 1.54508 -4.75528 0
      vertex 1.74569 -3.70979 0
    endloop
  endfacet
  facet normal 0 0 1
    outer loop
      vertex 1.26697 -3.89933 0
      vertex 0.936906 -4.91144 0
      vertex 1.54508 -4.75528 0
    endloop
  endfacet
  facet normal -0 0 1
    outer loop
      vertex 0.768263 -4.02738 0
      vertex 0.936906 -4.91144 0
      vertex 1.26697 -3.89933 0
    endloop
  endfacet
  facet normal 0 0 1
    outer loop
      vertex 0.768263 -4.02738 0
      vertex 0.313952 -4.99013 0
      vertex 0.936906 -4.91144 0
    endloop
  endfacet
  facet normal -0 0 1
    outer loop
      vertex 0.257441 -4.09191 0
      vertex 0.313952 -4.99013 0
      vertex 0.768263 -4.02738 0
    endloop
  endfacet
  facet normal -0 0 1
    outer loop
      vertex -0.257441 -4.09191 0
      vertex 0.313952 -4.99013 0
      vertex 0.257441 -4.09191 0
    endloop
  endfacet
  facet normal 0 0 1
    outer loop
      vertex -0.257441 -4.09191 0
      vertex -0.313952 -4.99013 0
      vertex 0.313952 -4.99013 0
    endloop
  endfacet
  facet normal 0 0 1
    outer loop
      vertex -0.768263 -4.02738 0
      vertex -0.313952 -4.99013 0
      vertex -0.257441 -4.09191 0
    endloop
  endfacet
  facet normal 0 0 1
    outer loop
      vertex -0.768263 -4.02738 0
      vertex -0.936906 -4.91144 0
      vertex -0.313952 -4.99013 0
    endloop
  endfacet
  facet normal 0 0 1
    outer loop
      vertex -1.26697 -3.89933 0
      vertex -0.936906 -4.91144 0
      vertex -0.768263 -4.02738 0
    endloop
  endfacet
  facet normal 0 0 1
    outer loop
      vertex -1.26697 -3.89933 0
      vertex -1.54508 -4.75528 0
      vertex -0.936906 -4.91144 0
    endloop
  endfacet
  facet normal 0 0 1
    outer loop
      vertex -1.74569 -3.70979 0
      vertex -1.54508 -4.75528 0
      vertex -1.26697 -3.89933 0
    endloop
  endfacet
  facet normal 0 0 1
    outer loop
      vertex -1.74569 -3.70979 0
      vertex -2.1289 -4.52413 0
      vertex -1.54508 -4.75528 0
    endloop
  endfacet
  facet normal 0 0 1
    outer loop
      vertex -2.19689 -3.46174 0
      vertex -2.1289 -4.52413 0
      vertex -1.74569 -3.70979 0
    endloop
  endfacet
  facet normal 0 0 1
    outer loop
      vertex -2.67913 -4.22164 0
      vertex -2.19689 -3.46174 0
      vertex -2.61344 -3.1591 0
    endloop
  endfacet
  facet normal 0 0 1
    outer loop
      vertex -2.19689 -3.46174 0
      vertex -2.67913 -4.22164 0
      vertex -2.1289 -4.52413 0
    endloop
  endfacet
  facet normal 0 0 1
    outer loop
      vertex -3.18712 -3.85257 0
      vertex -2.61344 -3.1591 0
      vertex -2.98877 -2.80664 0
    endloop
  endfacet
  facet normal 0 0 1
    outer loop
      vertex -2.61344 -3.1591 0
      vertex -3.18712 -3.85257 0
      vertex -2.67913 -4.22164 0
    endloop
  endfacet
  facet normal 0 0 1
    outer loop
      vertex -3.64484 -3.42274 0
      vertex -2.98877 -2.80664 0
      vertex -3.31697 -2.40992 0
    endloop
  endfacet
  facet normal 0 0 1
    outer loop
      vertex -4.04508 -2.93893 0
      vertex -3.31697 -2.40992 0
      vertex -3.59286 -1.97519 0
    endloop
  endfacet
  facet normal 0 0 1
    outer loop
      vertex -2.98877 -2.80664 0
      vertex -3.64484 -3.42274 0
      vertex -3.18712 -3.85257 0
    endloop
  endfacet
  facet normal 0 0 1
    outer loop
      vertex -4.38153 -2.40877 0
      vertex -3.59286 -1.97519 0
      vertex -3.81208 -1.50931 0
    endloop
  endfacet
  facet normal 0 0 1
    outer loop
      vertex -4.64888 -1.84062 0
      vertex -3.81208 -1.50931 0
      vertex -3.97119 -1.01963 0
    endloop
  endfacet
  facet normal 0 0 1
    outer loop
      vertex -3.31697 -2.40992 0
      vertex -4.04508 -2.93893 0
      vertex -3.64484 -3.42274 0
    endloop
  endfacet
  facet normal 0 0 1
    outer loop
      vertex -4.84292 -1.24345 0
      vertex -3.97119 -1.01963 0
      vertex -4.06767 -0.513865 0
    endloop
  endfacet
  facet normal 0 0 1
    outer loop
      vertex -4.96057 -0.626666 0
      vertex -4.06767 -0.513865 0
      vertex -4.1 0 0
    endloop
  endfacet
  facet normal 0 0 1
    outer loop
      vertex -3.97119 1.01963 0
      vertex -4.84292 1.24345 0
      vertex -4.06767 0.513865 0
    endloop
  endfacet
  facet normal 0 0 1
    outer loop
      vertex -3.59286 -1.97519 0
      vertex -4.38153 -2.40877 0
      vertex -4.04508 -2.93893 0
    endloop
  endfacet
  facet normal -0 0 1
    outer loop
      vertex -4.96057 0.626666 0
      vertex -4.06767 0.513865 0
      vertex -4.84292 1.24345 0
    endloop
  endfacet
  facet normal 0 0 1
    outer loop
      vertex -3.81208 -1.50931 0
      vertex -4.64888 -1.84062 0
      vertex -4.38153 -2.40877 0
    endloop
  endfacet
  facet normal 0 0 1
    outer loop
      vertex -4.06767 0.513865 0
      vertex -4.96057 0.626666 0
      vertex -4.1 0 0
    endloop
  endfacet
  facet normal 0 0 1
    outer loop
      vertex -3.97119 -1.01963 0
      vertex -4.84292 -1.24345 0
      vertex -4.64888 -1.84062 0
    endloop
  endfacet
  facet normal 0 0 1
    outer loop
      vertex -5 0 0
      vertex -4.1 0 0
      vertex -4.96057 0.626666 0
    endloop
  endfacet
  facet normal 0 0 1
    outer loop
      vertex -4.06767 -0.513865 0
      vertex -4.96057 -0.626666 0
      vertex -4.84292 -1.24345 0
    endloop
  endfacet
  facet normal 0 0 1
    outer loop
      vertex -4.1 0 0
      vertex -5 0 0
      vertex -4.96057 -0.626666 0
    endloop
  endfacet
  facet normal -0.125322 0.992116 0
    outer loop
      vertex -0.313952 4.99013 -4
      vertex -0.936906 4.91144 0
      vertex -0.313952 4.99013 0
    endloop
  endfacet
  facet normal -0.125322 0.992116 0
    outer loop
      vertex -0.936906 4.91144 0
      vertex -0.313952 4.99013 -4
      vertex -0.936906 4.91144 -4
    endloop
  endfacet
  facet normal 0.998026 -0.0627961 0
    outer loop
      vertex 4.96057 -0.626666 0
      vertex 5 0 -4
      vertex 5 0 0
    endloop
  endfacet
  facet normal 0.998026 -0.0627961 0
    outer loop
      vertex 5 0 -4
      vertex 4.96057 -0.626666 0
      vertex 4.96057 -0.626666 -4
    endloop
  endfacet
  facet normal 0.98229 -0.187369 0
    outer loop
      vertex 4.84292 -1.24345 0
      vertex 4.96057 -0.626666 -4
      vertex 4.96057 -0.626666 0
    endloop
  endfacet
  facet normal 0.98229 -0.187369 0
    outer loop
      vertex 4.96057 -0.626666 -4
      vertex 4.84292 -1.24345 0
      vertex 4.84292 -1.24345 -4
    endloop
  endfacet
  facet normal -0.368124 -0.929777 0
    outer loop
      vertex -2.1289 -4.52413 -4
      vertex -1.54508 -4.75528 0
      vertex -2.1289 -4.52413 0
    endloop
  endfacet
  facet normal -0.368124 -0.929777 -0
    outer loop
      vertex -1.54508 -4.75528 0
      vertex -2.1289 -4.52413 -4
      vertex -1.54508 -4.75528 -4
    endloop
  endfacet
  facet normal 0 0 -1
    outer loop
      vertex 4.96057 -0.626666 -4
      vertex 4.96057 0.626666 -4
      vertex 5 0 -4
    endloop
  endfacet
  facet normal 0 0 -1
    outer loop
      vertex 4.84292 -1.24345 -4
      vertex 4.96057 0.626666 -4
      vertex 4.96057 -0.626666 -4
    endloop
  endfacet
  facet normal 0 0 -1
    outer loop
      vertex 4.84292 -1.24345 -4
      vertex 4.84292 1.24345 -4
      vertex 4.96057 0.626666 -4
    endloop
  endfacet
  facet normal 0 0 -1
    outer loop
      vertex 4.64888 -1.84062 -4
      vertex 4.84292 1.24345 -4
      vertex 4.84292 -1.24345 -4
    endloop
  endfacet
  facet normal 0 0 -1
    outer loop
      vertex 4.64888 -1.84062 -4
      vertex 4.64888 1.84062 -4
      vertex 4.84292 1.24345 -4
    endloop
  endfacet
  facet normal 0 0 -1
    outer loop
      vertex 4.38153 -2.40877 -4
      vertex 4.64888 1.84062 -4
      vertex 4.64888 -1.84062 -4
    endloop
  endfacet
  facet normal 0 0 -1
    outer loop
      vertex 4.38153 -2.40877 -4
      vertex 4.38153 2.40877 -4
      vertex 4.64888 1.84062 -4
    endloop
  endfacet
  facet normal 0 0 -1
    outer loop
      vertex 4.04508 -2.93893 -4
      vertex 4.38153 2.40877 -4
      vertex 4.38153 -2.40877 -4
    endloop
  endfacet
  facet normal 0 0 -1
    outer loop
      vertex 4.04508 -2.93893 -4
      vertex 4.04508 2.93893 -4
      vertex 4.38153 2.40877 -4
    endloop
  endfacet
  facet normal 0 0 -1
    outer loop
      vertex 3.64484 -3.42274 -4
      vertex 4.04508 2.93893 -4
      vertex 4.04508 -2.93893 -4
    endloop
  endfacet
  facet normal 0 0 -1
    outer loop
      vertex 3.64484 -3.42274 -4
      vertex 3.64484 3.42274 -4
      vertex 4.04508 2.93893 -4
    endloop
  endfacet
  facet normal 0 0 -1
    outer loop
      vertex 3.18712 -3.85257 -4
      vertex 3.64484 3.42274 -4
      vertex 3.64484 -3.42274 -4
    endloop
  endfacet
  facet normal 0 0 -1
    outer loop
      vertex 3.18712 -3.85257 -4
      vertex 3.18712 3.85257 -4
      vertex 3.64484 3.42274 -4
    endloop
  endfacet
  facet normal 0 0 -1
    outer loop
      vertex 2.67913 -4.22164 -4
      vertex 3.18712 3.85257 -4
      vertex 3.18712 -3.85257 -4
    endloop
  endfacet
  facet normal 0 0 -1
    outer loop
      vertex 2.67913 -4.22164 -4
      vertex 2.67913 4.22164 -4
      vertex 3.18712 3.85257 -4
    endloop
  endfacet
  facet normal 0 0 -1
    outer loop
      vertex 2.1289 -4.52413 -4
      vertex 2.67913 4.22164 -4
      vertex 2.67913 -4.22164 -4
    endloop
  endfacet
  facet normal 0 0 -1
    outer loop
      vertex 2.1289 -4.52413 -4
      vertex 2.1289 4.52413 -4
      vertex 2.67913 4.22164 -4
    endloop
  endfacet
  facet normal 0 0 -1
    outer loop
      vertex 1.54508 -4.75528 -4
      vertex 2.1289 4.52413 -4
      vertex 2.1289 -4.52413 -4
    endloop
  endfacet
  facet normal 0 0 -1
    outer loop
      vertex 1.54508 -4.75528 -4
      vertex 1.54508 4.75528 -4
      vertex 2.1289 4.52413 -4
    endloop
  endfacet
  facet normal 0 0 -1
    outer loop
      vertex 0.936906 -4.91144 -4
      vertex 1.54508 4.75528 -4
      vertex 1.54508 -4.75528 -4
    endloop
  endfacet
  facet normal 0 0 -1
    outer loop
      vertex 0.936906 -4.91144 -4
      vertex 0.936906 4.91144 -4
      vertex 1.54508 4.75528 -4
    endloop
  endfacet
  facet normal 0 0 -1
    outer loop
      vertex 0.313952 -4.99013 -4
      vertex 0.936906 4.91144 -4
      vertex 0.936906 -4.91144 -4
    endloop
  endfacet
  facet normal 0 0 -1
    outer loop
      vertex 0.313952 -4.99013 -4
      vertex 0.313952 4.99013 -4
      vertex 0.936906 4.91144 -4
    endloop
  endfacet
  facet normal 0 0 -1
    outer loop
      vertex -0.313952 -4.99013 -4
      vertex 0.313952 4.99013 -4
      vertex 0.313952 -4.99013 -4
    endloop
  endfacet
  facet normal 0 0 -1
    outer loop
      vertex -0.313952 -4.99013 -4
      vertex -0.313952 4.99013 -4
      vertex 0.313952 4.99013 -4
    endloop
  endfacet
  facet normal 0 0 -1
    outer loop
      vertex -0.936906 -4.91144 -4
      vertex -0.313952 4.99013 -4
      vertex -0.313952 -4.99013 -4
    endloop
  endfacet
  facet normal 0 0 -1
    outer loop
      vertex -0.936906 -4.91144 -4
      vertex -0.936906 4.91144 -4
      vertex -0.313952 4.99013 -4
    endloop
  endfacet
  facet normal 0 0 -1
    outer loop
      vertex -1.54508 -4.75528 -4
      vertex -0.936906 4.91144 -4
      vertex -0.936906 -4.91144 -4
    endloop
  endfacet
  facet normal 0 0 -1
    outer loop
      vertex -1.54508 -4.75528 -4
      vertex -1.54508 4.75528 -4
      vertex -0.936906 4.91144 -4
    endloop
  endfacet
  facet normal 0 0 -1
    outer loop
      vertex -2.1289 -4.52413 -4
      vertex -1.54508 4.75528 -4
      vertex -1.54508 -4.75528 -4
    endloop
  endfacet
  facet normal 0 0 -1
    outer loop
      vertex -2.1289 -4.52413 -4
      vertex -2.1289 4.52413 -4
      vertex -1.54508 4.75528 -4
    endloop
  endfacet
  facet normal 0 0 -1
    outer loop
      vertex -2.67913 -4.22164 -4
      vertex -2.1289 4.52413 -4
      vertex -2.1289 -4.52413 -4
    endloop
  endfacet
  facet normal 0 0 -1
    outer loop
      vertex -2.67913 -4.22164 -4
      vertex -2.67913 4.22164 -4
      vertex -2.1289 4.52413 -4
    endloop
  endfacet
  facet normal 0 0 -1
    outer loop
      vertex -3.18712 -3.85257 -4
      vertex -2.67913 4.22164 -4
      vertex -2.67913 -4.22164 -4
    endloop
  endfacet
  facet normal 0 0 -1
    outer loop
      vertex -3.18712 -3.85257 -4
      vertex -3.18712 3.85257 -4
      vertex -2.67913 4.22164 -4
    endloop
  endfacet
  facet normal 0 0 -1
    outer loop
      vertex -3.64484 -3.42274 -4
      vertex -3.18712 3.85257 -4
      vertex -3.18712 -3.85257 -4
    endloop
  endfacet
  facet normal 0 0 -1
    outer loop
      vertex -3.64484 -3.42274 -4
      vertex -3.64484 3.42274 -4
      vertex -3.18712 3.85257 -4
    endloop
  endfacet
  facet normal 0 0 -1
    outer loop
      vertex -4.04508 -2.93893 -4
      vertex -3.64484 3.42274 -4
      vertex -3.64484 -3.42274 -4
    endloop
  endfacet
  facet normal 0 0 -1
    outer loop
      vertex -4.04508 -2.93893 -4
      vertex -4.04508 2.93893 -4
      vertex -3.64484 3.42274 -4
    endloop
  endfacet
  facet normal 0 0 -1
    outer loop
      vertex -4.38153 -2.40877 -4
      vertex -4.04508 2.93893 -4
      vertex -4.04508 -2.93893 -4
    endloop
  endfacet
  facet normal 0 0 -1
    outer loop
      vertex -4.38153 -2.40877 -4
      vertex -4.38153 2.40877 -4
      vertex -4.04508 2.93893 -4
    endloop
  endfacet
  facet normal 0 0 -1
    outer loop
      vertex -4.64888 -1.84062 -4
      vertex -4.38153 2.40877 -4
      vertex -4.38153 -2.40877 -4
    endloop
  endfacet
  facet normal 0 0 -1
    outer loop
      vertex -4.64888 -1.84062 -4
      vertex -4.64888 1.84062 -4
      vertex -4.38153 2.40877 -4
    endloop
  endfacet
  facet normal 0 0 -1
    outer loop
      vertex -4.84292 -1.24345 -4
      vertex -4.64888 1.84062 -4
      vertex -4.64888 -1.84062 -4
    endloop
  endfacet
  facet normal 0 0 -1
    outer loop
      vertex -4.84292 -1.24345 -4
      vertex -4.84292 1.24345 -4
      vertex -4.64888 1.84062 -4
    endloop
  endfacet
  facet normal 0 0 -1
    outer loop
      vertex -4.96057 -0.626666 -4
      vertex -4.84292 1.24345 -4
      vertex -4.84292 -1.24345 -4
    endloop
  endfacet
  facet normal 0 0 -1
    outer loop
      vertex -4.96057 -0.626666 -4
      vertex -4.96057 0.626666 -4
      vertex -4.84292 1.24345 -4
    endloop
  endfacet
  facet normal 0 -0 -1
    outer loop
      vertex -4.96057 0.626666 -4
      vertex -4.96057 -0.626666 -4
      vertex -5 0 -4
    endloop
  endfacet
  facet normal 0.587779 -0.809022 0
    outer loop
      vertex 2.67913 -4.22164 -4
      vertex 3.18712 -3.85257 0
      vertex 2.67913 -4.22164 0
    endloop
  endfacet
  facet normal 0.587779 -0.809022 0
    outer loop
      vertex 3.18712 -3.85257 0
      vertex 2.67913 -4.22164 -4
      vertex 3.18712 -3.85257 -4
    endloop
  endfacet
  facet normal 0.368124 -0.929777 0
    outer loop
      vertex 1.54508 -4.75528 -4
      vertex 2.1289 -4.52413 0
      vertex 1.54508 -4.75528 0
    endloop
  endfacet
  facet normal 0.368124 -0.929777 0
    outer loop
      vertex 2.1289 -4.52413 0
      vertex 1.54508 -4.75528 -4
      vertex 2.1289 -4.52413 -4
    endloop
  endfacet
  facet normal -0.481752 0.876308 0
    outer loop
      vertex -2.1289 4.52413 -4
      vertex -2.67913 4.22164 0
      vertex -2.1289 4.52413 0
    endloop
  endfacet
  facet normal -0.481752 0.876308 0
    outer loop
      vertex -2.67913 4.22164 0
      vertex -2.1289 4.52413 -4
      vertex -2.67913 4.22164 -4
    endloop
  endfacet
  facet normal 0.904828 -0.425778 0
    outer loop
      vertex 4.38153 -2.40877 0
      vertex 4.64888 -1.84062 -4
      vertex 4.64888 -1.84062 0
    endloop
  endfacet
  facet normal 0.904828 -0.425778 0
    outer loop
      vertex 4.64888 -1.84062 -4
      vertex 4.38153 -2.40877 0
      vertex 4.38153 -2.40877 -4
    endloop
  endfacet
  facet normal -0.248701 -0.96858 0
    outer loop
      vertex -1.54508 -4.75528 -4
      vertex -0.936906 -4.91144 0
      vertex -1.54508 -4.75528 0
    endloop
  endfacet
  facet normal -0.248701 -0.96858 -0
    outer loop
      vertex -0.936906 -4.91144 0
      vertex -1.54508 -4.75528 -4
      vertex -0.936906 -4.91144 -4
    endloop
  endfacet
  facet normal -0.770515 -0.637422 0
    outer loop
      vertex -3.64484 -3.42274 -4
      vertex -4.04508 -2.93893 0
      vertex -4.04508 -2.93893 -4
    endloop
  endfacet
  facet normal -0.770515 -0.637422 0
    outer loop
      vertex -4.04508 -2.93893 0
      vertex -3.64484 -3.42274 -4
      vertex -3.64484 -3.42274 0
    endloop
  endfacet
  facet normal -0.951053 -0.309028 0
    outer loop
      vertex -4.64888 -1.84062 -4
      vertex -4.84292 -1.24345 0
      vertex -4.84292 -1.24345 -4
    endloop
  endfacet
  facet normal -0.951053 -0.309028 0
    outer loop
      vertex -4.84292 -1.24345 0
      vertex -4.64888 -1.84062 -4
      vertex -4.64888 -1.84062 0
    endloop
  endfacet
  facet normal 0.481752 -0.876308 0
    outer loop
      vertex 2.1289 -4.52413 -4
      vertex 2.67913 -4.22164 0
      vertex 2.1289 -4.52413 0
    endloop
  endfacet
  facet normal 0.481752 -0.876308 0
    outer loop
      vertex 2.67913 -4.22164 0
      vertex 2.1289 -4.52413 -4
      vertex 2.67913 -4.22164 -4
    endloop
  endfacet
  facet normal 0.248701 -0.96858 0
    outer loop
      vertex 0.936906 -4.91144 -4
      vertex 1.54508 -4.75528 0
      vertex 0.936906 -4.91144 0
    endloop
  endfacet
  facet normal 0.248701 -0.96858 0
    outer loop
      vertex 1.54508 -4.75528 0
      vertex 0.936906 -4.91144 -4
      vertex 1.54508 -4.75528 -4
    endloop
  endfacet
  facet normal 0.844328 -0.535827 0
    outer loop
      vertex 4.04508 -2.93893 0
      vertex 4.38153 -2.40877 -4
      vertex 4.38153 -2.40877 0
    endloop
  endfacet
  facet normal 0.844328 -0.535827 0
    outer loop
      vertex 4.38153 -2.40877 -4
      vertex 4.04508 -2.93893 0
      vertex 4.04508 -2.93893 -4
    endloop
  endfacet
  facet normal 0.770515 -0.637422 0
    outer loop
      vertex 3.64484 -3.42274 0
      vertex 4.04508 -2.93893 -4
      vertex 4.04508 -2.93893 0
    endloop
  endfacet
  facet normal 0.770515 -0.637422 0
    outer loop
      vertex 4.04508 -2.93893 -4
      vertex 3.64484 -3.42274 0
      vertex 3.64484 -3.42274 -4
    endloop
  endfacet
  facet normal 0.951053 -0.309028 0
    outer loop
      vertex 4.64888 -1.84062 0
      vertex 4.84292 -1.24345 -4
      vertex 4.84292 -1.24345 0
    endloop
  endfacet
  facet normal 0.951053 -0.309028 0
    outer loop
      vertex 4.84292 -1.24345 -4
      vertex 4.64888 -1.84062 0
      vertex 4.64888 -1.84062 -4
    endloop
  endfacet
  facet normal -0.125322 -0.992116 0
    outer loop
      vertex -0.936906 -4.91144 -4
      vertex -0.313952 -4.99013 0
      vertex -0.936906 -4.91144 0
    endloop
  endfacet
  facet normal -0.125322 -0.992116 -0
    outer loop
      vertex -0.313952 -4.99013 0
      vertex -0.936906 -4.91144 -4
      vertex -0.313952 -4.99013 -4
    endloop
  endfacet
  facet normal -0.684549 -0.728967 0
    outer loop
      vertex -3.64484 -3.42274 -4
      vertex -3.18712 -3.85257 0
      vertex -3.64484 -3.42274 0
    endloop
  endfacet
  facet normal -0.684549 -0.728967 -0
    outer loop
      vertex -3.18712 -3.85257 0
      vertex -3.64484 -3.42274 -4
      vertex -3.18712 -3.85257 -4
    endloop
  endfacet
  facet normal -0.844328 -0.535827 0
    outer loop
      vertex -4.04508 -2.93893 -4
      vertex -4.38153 -2.40877 0
      vertex -4.38153 -2.40877 -4
    endloop
  endfacet
  facet normal -0.844328 -0.535827 0
    outer loop
      vertex -4.38153 -2.40877 0
      vertex -4.04508 -2.93893 -4
      vertex -4.04508 -2.93893 0
    endloop
  endfacet
  facet normal -0.904828 -0.425778 0
    outer loop
      vertex -4.38153 -2.40877 -4
      vertex -4.64888 -1.84062 0
      vertex -4.64888 -1.84062 -4
    endloop
  endfacet
  facet normal -0.904828 -0.425778 0
    outer loop
      vertex -4.64888 -1.84062 0
      vertex -4.38153 -2.40877 -4
      vertex -4.38153 -2.40877 0
    endloop
  endfacet
  facet normal -0.98229 -0.187369 0
    outer loop
      vertex -4.84292 -1.24345 -4
      vertex -4.96057 -0.626666 0
      vertex -4.96057 -0.626666 -4
    endloop
  endfacet
  facet normal -0.98229 -0.187369 0
    outer loop
      vertex -4.96057 -0.626666 0
      vertex -4.84292 -1.24345 -4
      vertex -4.84292 -1.24345 0
    endloop
  endfacet
  facet normal -0.998026 -0.0627961 0
    outer loop
      vertex -4.96057 -0.626666 -4
      vertex -5 0 0
      vertex -5 0 -4
    endloop
  endfacet
  facet normal -0.998026 -0.0627961 0
    outer loop
      vertex -5 0 0
      vertex -4.96057 -0.626666 -4
      vertex -4.96057 -0.626666 0
    endloop
  endfacet
  facet normal -0.481752 -0.876308 0
    outer loop
      vertex -2.67913 -4.22164 -4
      vertex -2.1289 -4.52413 0
      vertex -2.67913 -4.22164 0
    endloop
  endfacet
  facet normal -0.481752 -0.876308 -0
    outer loop
      vertex -2.1289 -4.52413 0
      vertex -2.67913 -4.22164 -4
      vertex -2.1289 -4.52413 -4
    endloop
  endfacet
  facet normal -0.587779 -0.809022 0
    outer loop
      vertex -3.18712 -3.85257 -4
      vertex -2.67913 -4.22164 0
      vertex -3.18712 -3.85257 0
    endloop
  endfacet
  facet normal -0.587779 -0.809022 -0
    outer loop
      vertex -2.67913 -4.22164 0
      vertex -3.18712 -3.85257 -4
      vertex -2.67913 -4.22164 -4
    endloop
  endfacet
  facet normal -0.998027 -0.0627912 0
    outer loop
      vertex 4.1 0 -3
      vertex 4.06767 0.513865 0
      vertex 4.06767 0.513865 -3
    endloop
  endfacet
  facet normal -0.998027 -0.0627912 0
    outer loop
      vertex 4.06767 0.513865 0
      vertex 4.1 0 -3
      vertex 4.1 0 0
    endloop
  endfacet
  facet normal 0.998027 -0.0627912 0
    outer loop
      vertex -4.1 0 0
      vertex -4.06767 0.513865 -3
      vertex -4.06767 0.513865 0
    endloop
  endfacet
  facet normal 0.998027 -0.0627912 0
    outer loop
      vertex -4.06767 0.513865 -3
      vertex -4.1 0 0
      vertex -4.1 0 -3
    endloop
  endfacet
  facet normal 0 -1 0
    outer loop
      vertex -0.257441 4.09191 -3
      vertex 0.257441 4.09191 0
      vertex -0.257441 4.09191 0
    endloop
  endfacet
  facet normal 0 -1 -0
    outer loop
      vertex 0.257441 4.09191 0
      vertex -0.257441 4.09191 -3
      vertex 0.257441 4.09191 -3
    endloop
  endfacet
  facet normal 0 1 -0
    outer loop
      vertex 0.257441 -4.09191 -3
      vertex -0.257441 -4.09191 0
      vertex 0.257441 -4.09191 0
    endloop
  endfacet
  facet normal 0 1 0
    outer loop
      vertex -0.257441 -4.09191 0
      vertex 0.257441 -4.09191 -3
      vertex -0.257441 -4.09191 -3
    endloop
  endfacet
  facet normal -0.684549 -0.728967 0
    outer loop
      vertex 2.61344 3.1591 -3
      vertex 2.98877 2.80664 0
      vertex 2.61344 3.1591 0
    endloop
  endfacet
  facet normal -0.684549 -0.728967 -0
    outer loop
      vertex 2.98877 2.80664 0
      vertex 2.61344 3.1591 -3
      vertex 2.98877 2.80664 -3
    endloop
  endfacet
  facet normal 0.684549 -0.728967 0
    outer loop
      vertex -2.98877 2.80664 -3
      vertex -2.61344 3.1591 0
      vertex -2.98877 2.80664 0
    endloop
  endfacet
  facet normal 0.684549 -0.728967 0
    outer loop
      vertex -2.61344 3.1591 0
      vertex -2.98877 2.80664 -3
      vertex -2.61344 3.1591 -3
    endloop
  endfacet
  facet normal 0.368127 -0.929776 0
    outer loop
      vertex -1.74569 3.70979 -3
      vertex -1.26697 3.89933 0
      vertex -1.74569 3.70979 0
    endloop
  endfacet
  facet normal 0.368127 -0.929776 0
    outer loop
      vertex -1.26697 3.89933 0
      vertex -1.74569 3.70979 -3
      vertex -1.26697 3.89933 -3
    endloop
  endfacet
  facet normal -0.904832 -0.425769 0
    outer loop
      vertex 3.81208 1.50931 -3
      vertex 3.59286 1.97519 0
      vertex 3.59286 1.97519 -3
    endloop
  endfacet
  facet normal -0.904832 -0.425769 0
    outer loop
      vertex 3.59286 1.97519 0
      vertex 3.81208 1.50931 -3
      vertex 3.81208 1.50931 0
    endloop
  endfacet
  facet normal -0.982287 -0.187382 0
    outer loop
      vertex 4.06767 0.513865 -3
      vertex 3.97119 1.01963 0
      vertex 3.97119 1.01963 -3
    endloop
  endfacet
  facet normal -0.982287 -0.187382 0
    outer loop
      vertex 3.97119 1.01963 0
      vertex 4.06767 0.513865 -3
      vertex 4.06767 0.513865 0
    endloop
  endfacet
  facet normal -0.368127 -0.929776 0
    outer loop
      vertex 1.26697 3.89933 -3
      vertex 1.74569 3.70979 0
      vertex 1.26697 3.89933 0
    endloop
  endfacet
  facet normal -0.368127 -0.929776 -0
    outer loop
      vertex 1.74569 3.70979 0
      vertex 1.26697 3.89933 -3
      vertex 1.74569 3.70979 -3
    endloop
  endfacet
  facet normal -0.587784 -0.809018 0
    outer loop
      vertex 2.19689 3.46174 -3
      vertex 2.61344 3.1591 0
      vertex 2.19689 3.46174 0
    endloop
  endfacet
  facet normal -0.587784 -0.809018 -0
    outer loop
      vertex 2.61344 3.1591 0
      vertex 2.19689 3.46174 -3
      vertex 2.61344 3.1591 -3
    endloop
  endfacet
  facet normal 0.904832 -0.425769 0
    outer loop
      vertex -3.81208 1.50931 0
      vertex -3.59286 1.97519 -3
      vertex -3.59286 1.97519 0
    endloop
  endfacet
  facet normal 0.904832 -0.425769 0
    outer loop
      vertex -3.59286 1.97519 -3
      vertex -3.81208 1.50931 0
      vertex -3.81208 1.50931 -3
    endloop
  endfacet
  facet normal 0.951055 -0.309023 0
    outer loop
      vertex -3.97119 1.01963 0
      vertex -3.81208 1.50931 -3
      vertex -3.81208 1.50931 0
    endloop
  endfacet
  facet normal 0.951055 -0.309023 0
    outer loop
      vertex -3.81208 1.50931 -3
      vertex -3.97119 1.01963 0
      vertex -3.97119 1.01963 -3
    endloop
  endfacet
  facet normal 0.481755 -0.876306 0
    outer loop
      vertex -2.19689 3.46174 -3
      vertex -1.74569 3.70979 0
      vertex -2.19689 3.46174 0
    endloop
  endfacet
  facet normal 0.481755 -0.876306 0
    outer loop
      vertex -1.74569 3.70979 0
      vertex -2.19689 3.46174 -3
      vertex -1.74569 3.70979 -3
    endloop
  endfacet
  facet normal 0.248697 -0.968581 0
    outer loop
      vertex -1.26697 3.89933 -3
      vertex -0.768263 4.02738 0
      vertex -1.26697 3.89933 0
    endloop
  endfacet
  facet normal 0.248697 -0.968581 0
    outer loop
      vertex -0.768263 4.02738 0
      vertex -1.26697 3.89933 -3
      vertex -0.768263 4.02738 -3
    endloop
  endfacet
  facet normal -0.12533 0.992115 0
    outer loop
      vertex 0.768263 -4.02738 -3
      vertex 0.257441 -4.09191 0
      vertex 0.768263 -4.02738 0
    endloop
  endfacet
  facet normal -0.12533 0.992115 0
    outer loop
      vertex 0.257441 -4.09191 0
      vertex 0.768263 -4.02738 -3
      vertex 0.257441 -4.09191 -3
    endloop
  endfacet
  facet normal -0.951055 -0.309023 0
    outer loop
      vertex 3.97119 1.01963 -3
      vertex 3.81208 1.50931 0
      vertex 3.81208 1.50931 -3
    endloop
  endfacet
  facet normal -0.951055 -0.309023 0
    outer loop
      vertex 3.81208 1.50931 0
      vertex 3.97119 1.01963 -3
      vertex 3.97119 1.01963 0
    endloop
  endfacet
  facet normal -0.770509 -0.637429 0
    outer loop
      vertex 3.31697 2.40992 -3
      vertex 2.98877 2.80664 0
      vertex 2.98877 2.80664 -3
    endloop
  endfacet
  facet normal -0.770509 -0.637429 0
    outer loop
      vertex 2.98877 2.80664 0
      vertex 3.31697 2.40992 -3
      vertex 3.31697 2.40992 0
    endloop
  endfacet
  facet normal -0.844326 -0.535829 0
    outer loop
      vertex 3.59286 1.97519 -3
      vertex 3.31697 2.40992 0
      vertex 3.31697 2.40992 -3
    endloop
  endfacet
  facet normal -0.844326 -0.535829 0
    outer loop
      vertex 3.31697 2.40992 0
      vertex 3.59286 1.97519 -3
      vertex 3.59286 1.97519 0
    endloop
  endfacet
  facet normal -0.248697 -0.968581 0
    outer loop
      vertex 0.768263 4.02738 -3
      vertex 1.26697 3.89933 0
      vertex 0.768263 4.02738 0
    endloop
  endfacet
  facet normal -0.248697 -0.968581 -0
    outer loop
      vertex 1.26697 3.89933 0
      vertex 0.768263 4.02738 -3
      vertex 1.26697 3.89933 -3
    endloop
  endfacet
  facet normal -0.12533 -0.992115 0
    outer loop
      vertex 0.257441 4.09191 -3
      vertex 0.768263 4.02738 0
      vertex 0.257441 4.09191 0
    endloop
  endfacet
  facet normal -0.12533 -0.992115 -0
    outer loop
      vertex 0.768263 4.02738 0
      vertex 0.257441 4.09191 -3
      vertex 0.768263 4.02738 -3
    endloop
  endfacet
  facet normal -0.481755 -0.876306 0
    outer loop
      vertex 1.74569 3.70979 -3
      vertex 2.19689 3.46174 0
      vertex 1.74569 3.70979 0
    endloop
  endfacet
  facet normal -0.481755 -0.876306 -0
    outer loop
      vertex 2.19689 3.46174 0
      vertex 1.74569 3.70979 -3
      vertex 2.19689 3.46174 -3
    endloop
  endfacet
  facet normal 0.844326 -0.535829 0
    outer loop
      vertex -3.59286 1.97519 0
      vertex -3.31697 2.40992 -3
      vertex -3.31697 2.40992 0
    endloop
  endfacet
  facet normal 0.844326 -0.535829 0
    outer loop
      vertex -3.31697 2.40992 -3
      vertex -3.59286 1.97519 0
      vertex -3.59286 1.97519 -3
    endloop
  endfacet
  facet normal 0.770509 -0.637429 0
    outer loop
      vertex -3.31697 2.40992 0
      vertex -2.98877 2.80664 -3
      vertex -2.98877 2.80664 0
    endloop
  endfacet
  facet normal 0.770509 -0.637429 0
    outer loop
      vertex -2.98877 2.80664 -3
      vertex -3.31697 2.40992 0
      vertex -3.31697 2.40992 -3
    endloop
  endfacet
  facet normal 0.982287 -0.187382 0
    outer loop
      vertex -4.06767 0.513865 0
      vertex -3.97119 1.01963 -3
      vertex -3.97119 1.01963 0
    endloop
  endfacet
  facet normal 0.982287 -0.187382 0
    outer loop
      vertex -3.97119 1.01963 -3
      vertex -4.06767 0.513865 0
      vertex -4.06767 0.513865 -3
    endloop
  endfacet
  facet normal 0.587784 -0.809018 0
    outer loop
      vertex -2.61344 3.1591 -3
      vertex -2.19689 3.46174 0
      vertex -2.61344 3.1591 0
    endloop
  endfacet
  facet normal 0.587784 -0.809018 0
    outer loop
      vertex -2.19689 3.46174 0
      vertex -2.61344 3.1591 -3
      vertex -2.19689 3.46174 -3
    endloop
  endfacet
  facet normal 0.12533 -0.992115 0
    outer loop
      vertex -0.768263 4.02738 -3
      vertex -0.257441 4.09191 0
      vertex -0.768263 4.02738 0
    endloop
  endfacet
  facet normal 0.12533 -0.992115 0
    outer loop
      vertex -0.257441 4.09191 0
      vertex -0.768263 4.02738 -3
      vertex -0.257441 4.09191 -3
    endloop
  endfacet
  facet normal -0.998027 0.0627912 0
    outer loop
      vertex 4.06767 -0.513865 -3
      vertex 4.1 0 0
      vertex 4.1 0 -3
    endloop
  endfacet
  facet normal -0.998027 0.0627912 0
    outer loop
      vertex 4.1 0 0
      vertex 4.06767 -0.513865 -3
      vertex 4.06767 -0.513865 0
    endloop
  endfacet
  facet normal 0.684549 0.728967 -0
    outer loop
      vertex -2.61344 -3.1591 -3
      vertex -2.98877 -2.80664 0
      vertex -2.61344 -3.1591 0
    endloop
  endfacet
  facet normal 0.684549 0.728967 0
    outer loop
      vertex -2.98877 -2.80664 0
      vertex -2.61344 -3.1591 -3
      vertex -2.98877 -2.80664 -3
    endloop
  endfacet
  facet normal 0.904832 0.425769 0
    outer loop
      vertex -3.59286 -1.97519 0
      vertex -3.81208 -1.50931 -3
      vertex -3.81208 -1.50931 0
    endloop
  endfacet
  facet normal 0.904832 0.425769 0
    outer loop
      vertex -3.81208 -1.50931 -3
      vertex -3.59286 -1.97519 0
      vertex -3.59286 -1.97519 -3
    endloop
  endfacet
  facet normal 0.844326 0.535829 0
    outer loop
      vertex -3.31697 -2.40992 0
      vertex -3.59286 -1.97519 -3
      vertex -3.59286 -1.97519 0
    endloop
  endfacet
  facet normal 0.844326 0.535829 0
    outer loop
      vertex -3.59286 -1.97519 -3
      vertex -3.31697 -2.40992 0
      vertex -3.31697 -2.40992 -3
    endloop
  endfacet
  facet normal 0 0 1
    outer loop
      vertex 4.06767 0.513865 -3
      vertex 4.06767 -0.513865 -3
      vertex 4.1 0 -3
    endloop
  endfacet
  facet normal 0 0 1
    outer loop
      vertex 3.97119 1.01963 -3
      vertex 4.06767 -0.513865 -3
      vertex 4.06767 0.513865 -3
    endloop
  endfacet
  facet normal 0 0 1
    outer loop
      vertex 3.97119 1.01963 -3
      vertex 3.97119 -1.01963 -3
      vertex 4.06767 -0.513865 -3
    endloop
  endfacet
  facet normal 0 0 1
    outer loop
      vertex 3.81208 1.50931 -3
      vertex 3.97119 -1.01963 -3
      vertex 3.97119 1.01963 -3
    endloop
  endfacet
  facet normal 0 0 1
    outer loop
      vertex 3.81208 1.50931 -3
      vertex 3.81208 -1.50931 -3
      vertex 3.97119 -1.01963 -3
    endloop
  endfacet
  facet normal 0 0 1
    outer loop
      vertex 3.59286 1.97519 -3
      vertex 3.81208 -1.50931 -3
      vertex 3.81208 1.50931 -3
    endloop
  endfacet
  facet normal 0 0 1
    outer loop
      vertex 3.59286 1.97519 -3
      vertex 3.59286 -1.97519 -3
      vertex 3.81208 -1.50931 -3
    endloop
  endfacet
  facet normal 0 0 1
    outer loop
      vertex 3.31697 2.40992 -3
      vertex 3.59286 -1.97519 -3
      vertex 3.59286 1.97519 -3
    endloop
  endfacet
  facet normal 0 0 1
    outer loop
      vertex 3.31697 2.40992 -3
      vertex 3.31697 -2.40992 -3
      vertex 3.59286 -1.97519 -3
    endloop
  endfacet
  facet normal 0 0 1
    outer loop
      vertex 2.98877 2.80664 -3
      vertex 3.31697 -2.40992 -3
      vertex 3.31697 2.40992 -3
    endloop
  endfacet
  facet normal 0 0 1
    outer loop
      vertex 2.98877 2.80664 -3
      vertex 2.98877 -2.80664 -3
      vertex 3.31697 -2.40992 -3
    endloop
  endfacet
  facet normal 0 0 1
    outer loop
      vertex 2.61344 3.1591 -3
      vertex 2.98877 -2.80664 -3
      vertex 2.98877 2.80664 -3
    endloop
  endfacet
  facet normal 0 0 1
    outer loop
      vertex 2.61344 3.1591 -3
      vertex 2.61344 -3.1591 -3
      vertex 2.98877 -2.80664 -3
    endloop
  endfacet
  facet normal 0 0 1
    outer loop
      vertex 2.19689 3.46174 -3
      vertex 2.61344 -3.1591 -3
      vertex 2.61344 3.1591 -3
    endloop
  endfacet
  facet normal 0 0 1
    outer loop
      vertex 2.19689 3.46174 -3
      vertex 2.19689 -3.46174 -3
      vertex 2.61344 -3.1591 -3
    endloop
  endfacet
  facet normal 0 0 1
    outer loop
      vertex 1.74569 3.70979 -3
      vertex 2.19689 -3.46174 -3
      vertex 2.19689 3.46174 -3
    endloop
  endfacet
  facet normal 0 0 1
    outer loop
      vertex 1.74569 3.70979 -3
      vertex 1.74569 -3.70979 -3
      vertex 2.19689 -3.46174 -3
    endloop
  endfacet
  facet normal 0 0 1
    outer loop
      vertex 1.26697 3.89933 -3
      vertex 1.74569 -3.70979 -3
      vertex 1.74569 3.70979 -3
    endloop
  endfacet
  facet normal 0 0 1
    outer loop
      vertex 1.26697 3.89933 -3
      vertex 1.26697 -3.89933 -3
      vertex 1.74569 -3.70979 -3
    endloop
  endfacet
  facet normal 0 0 1
    outer loop
      vertex 0.768263 4.02738 -3
      vertex 1.26697 -3.89933 -3
      vertex 1.26697 3.89933 -3
    endloop
  endfacet
  facet normal 0 0 1
    outer loop
      vertex 0.768263 4.02738 -3
      vertex 0.768263 -4.02738 -3
      vertex 1.26697 -3.89933 -3
    endloop
  endfacet
  facet normal 0 0 1
    outer loop
      vertex 0.257441 4.09191 -3
      vertex 0.768263 -4.02738 -3
      vertex 0.768263 4.02738 -3
    endloop
  endfacet
  facet normal 0 0 1
    outer loop
      vertex 0.257441 4.09191 -3
      vertex 0.257441 -4.09191 -3
      vertex 0.768263 -4.02738 -3
    endloop
  endfacet
  facet normal -0 0 1
    outer loop
      vertex -0.257441 4.09191 -3
      vertex 0.257441 -4.09191 -3
      vertex 0.257441 4.09191 -3
    endloop
  endfacet
  facet normal 0 0 1
    outer loop
      vertex -0.257441 4.09191 -3
      vertex -0.257441 -4.09191 -3
      vertex 0.257441 -4.09191 -3
    endloop
  endfacet
  facet normal -0 0 1
    outer loop
      vertex -0.768263 4.02738 -3
      vertex -0.257441 -4.09191 -3
      vertex -0.257441 4.09191 -3
    endloop
  endfacet
  facet normal 0 0 1
    outer loop
      vertex -0.768263 4.02738 -3
      vertex -0.768263 -4.02738 -3
      vertex -0.257441 -4.09191 -3
    endloop
  endfacet
  facet normal -0 0 1
    outer loop
      vertex -1.26697 3.89933 -3
      vertex -0.768263 -4.02738 -3
      vertex -0.768263 4.02738 -3
    endloop
  endfacet
  facet normal 0 0 1
    outer loop
      vertex -1.26697 3.89933 -3
      vertex -1.26697 -3.89933 -3
      vertex -0.768263 -4.02738 -3
    endloop
  endfacet
  facet normal -0 0 1
    outer loop
      vertex -1.74569 3.70979 -3
      vertex -1.26697 -3.89933 -3
      vertex -1.26697 3.89933 -3
    endloop
  endfacet
  facet normal 0 0 1
    outer loop
      vertex -1.74569 3.70979 -3
      vertex -1.74569 -3.70979 -3
      vertex -1.26697 -3.89933 -3
    endloop
  endfacet
  facet normal -0 0 1
    outer loop
      vertex -2.19689 3.46174 -3
      vertex -1.74569 -3.70979 -3
      vertex -1.74569 3.70979 -3
    endloop
  endfacet
  facet normal 0 0 1
    outer loop
      vertex -2.19689 3.46174 -3
      vertex -2.19689 -3.46174 -3
      vertex -1.74569 -3.70979 -3
    endloop
  endfacet
  facet normal -0 0 1
    outer loop
      vertex -2.61344 3.1591 -3
      vertex -2.19689 -3.46174 -3
      vertex -2.19689 3.46174 -3
    endloop
  endfacet
  facet normal 0 0 1
    outer loop
      vertex -2.61344 3.1591 -3
      vertex -2.61344 -3.1591 -3
      vertex -2.19689 -3.46174 -3
    endloop
  endfacet
  facet normal -0 0 1
    outer loop
      vertex -2.98877 2.80664 -3
      vertex -2.61344 -3.1591 -3
      vertex -2.61344 3.1591 -3
    endloop
  endfacet
  facet normal 0 0 1
    outer loop
      vertex -2.98877 2.80664 -3
      vertex -2.98877 -2.80664 -3
      vertex -2.61344 -3.1591 -3
    endloop
  endfacet
  facet normal -0 0 1
    outer loop
      vertex -3.31697 2.40992 -3
      vertex -2.98877 -2.80664 -3
      vertex -2.98877 2.80664 -3
    endloop
  endfacet
  facet normal 0 0 1
    outer loop
      vertex -3.31697 2.40992 -3
      vertex -3.31697 -2.40992 -3
      vertex -2.98877 -2.80664 -3
    endloop
  endfacet
  facet normal -0 0 1
    outer loop
      vertex -3.59286 1.97519 -3
      vertex -3.31697 -2.40992 -3
      vertex -3.31697 2.40992 -3
    endloop
  endfacet
  facet normal 0 0 1
    outer loop
      vertex -3.59286 1.97519 -3
      vertex -3.59286 -1.97519 -3
      vertex -3.31697 -2.40992 -3
    endloop
  endfacet
  facet normal -0 0 1
    outer loop
      vertex -3.81208 1.50931 -3
      vertex -3.59286 -1.97519 -3
      vertex -3.59286 1.97519 -3
    endloop
  endfacet
  facet normal 0 0 1
    outer loop
      vertex -3.81208 1.50931 -3
      vertex -3.81208 -1.50931 -3
      vertex -3.59286 -1.97519 -3
    endloop
  endfacet
  facet normal -0 0 1
    outer loop
      vertex -3.97119 1.01963 -3
      vertex -3.81208 -1.50931 -3
      vertex -3.81208 1.50931 -3
    endloop
  endfacet
  facet normal 0 0 1
    outer loop
      vertex -3.97119 1.01963 -3
      vertex -3.97119 -1.01963 -3
      vertex -3.81208 -1.50931 -3
    endloop
  endfacet
  facet normal -0 0 1
    outer loop
      vertex -4.06767 0.513865 -3
      vertex -3.97119 -1.01963 -3
      vertex -3.97119 1.01963 -3
    endloop
  endfacet
  facet normal 0 0 1
    outer loop
      vertex -4.06767 0.513865 -3
      vertex -4.06767 -0.513865 -3
      vertex -3.97119 -1.01963 -3
    endloop
  endfacet
  facet normal 0 -0 1
    outer loop
      vertex -4.06767 -0.513865 -3
      vertex -4.06767 0.513865 -3
      vertex -4.1 0 -3
    endloop
  endfacet
  facet normal -0.481755 0.876306 0
    outer loop
      vertex 2.19689 -3.46174 -3
      vertex 1.74569 -3.70979 0
      vertex 2.19689 -3.46174 0
    endloop
  endfacet
  facet normal -0.481755 0.876306 0
    outer loop
      vertex 1.74569 -3.70979 0
      vertex 2.19689 -3.46174 -3
      vertex 1.74569 -3.70979 -3
    endloop
  endfacet
  facet normal -0.684549 0.728967 0
    outer loop
      vertex 2.98877 -2.80664 -3
      vertex 2.61344 -3.1591 0
      vertex 2.98877 -2.80664 0
    endloop
  endfacet
  facet normal -0.684549 0.728967 0
    outer loop
      vertex 2.61344 -3.1591 0
      vertex 2.98877 -2.80664 -3
      vertex 2.61344 -3.1591 -3
    endloop
  endfacet
  facet normal -0.904832 0.425769 0
    outer loop
      vertex 3.59286 -1.97519 -3
      vertex 3.81208 -1.50931 0
      vertex 3.81208 -1.50931 -3
    endloop
  endfacet
  facet normal -0.904832 0.425769 0
    outer loop
      vertex 3.81208 -1.50931 0
      vertex 3.59286 -1.97519 -3
      vertex 3.59286 -1.97519 0
    endloop
  endfacet
  facet normal 0.368127 0.929776 -0
    outer loop
      vertex -1.26697 -3.89933 -3
      vertex -1.74569 -3.70979 0
      vertex -1.26697 -3.89933 0
    endloop
  endfacet
  facet normal 0.368127 0.929776 0
    outer loop
      vertex -1.74569 -3.70979 0
      vertex -1.26697 -3.89933 -3
      vertex -1.74569 -3.70979 -3
    endloop
  endfacet
  facet normal 0.770509 0.637429 0
    outer loop
      vertex -2.98877 -2.80664 0
      vertex -3.31697 -2.40992 -3
      vertex -3.31697 -2.40992 0
    endloop
  endfacet
  facet normal 0.770509 0.637429 0
    outer loop
      vertex -3.31697 -2.40992 -3
      vertex -2.98877 -2.80664 0
      vertex -2.98877 -2.80664 -3
    endloop
  endfacet
  facet normal 0.951055 0.309023 0
    outer loop
      vertex -3.81208 -1.50931 0
      vertex -3.97119 -1.01963 -3
      vertex -3.97119 -1.01963 0
    endloop
  endfacet
  facet normal 0.951055 0.309023 0
    outer loop
      vertex -3.97119 -1.01963 -3
      vertex -3.81208 -1.50931 0
      vertex -3.81208 -1.50931 -3
    endloop
  endfacet
  facet normal -0.368127 0.929776 0
    outer loop
      vertex 1.74569 -3.70979 -3
      vertex 1.26697 -3.89933 0
      vertex 1.74569 -3.70979 0
    endloop
  endfacet
  facet normal -0.368127 0.929776 0
    outer loop
      vertex 1.26697 -3.89933 0
      vertex 1.74569 -3.70979 -3
      vertex 1.26697 -3.89933 -3
    endloop
  endfacet
  facet normal -0.248697 0.968581 0
    outer loop
      vertex 1.26697 -3.89933 -3
      vertex 0.768263 -4.02738 0
      vertex 1.26697 -3.89933 0
    endloop
  endfacet
  facet normal -0.248697 0.968581 0
    outer loop
      vertex 0.768263 -4.02738 0
      vertex 1.26697 -3.89933 -3
      vertex 0.768263 -4.02738 -3
    endloop
  endfacet
  facet normal -0.587784 0.809018 0
    outer loop
      vertex 2.61344 -3.1591 -3
      vertex 2.19689 -3.46174 0
      vertex 2.61344 -3.1591 0
    endloop
  endfacet
  facet normal -0.587784 0.809018 0
    outer loop
      vertex 2.19689 -3.46174 0
      vertex 2.61344 -3.1591 -3
      vertex 2.19689 -3.46174 -3
    endloop
  endfacet
  facet normal -0.770509 0.637429 0
    outer loop
      vertex 2.98877 -2.80664 -3
      vertex 3.31697 -2.40992 0
      vertex 3.31697 -2.40992 -3
    endloop
  endfacet
  facet normal -0.770509 0.637429 0
    outer loop
      vertex 3.31697 -2.40992 0
      vertex 2.98877 -2.80664 -3
      vertex 2.98877 -2.80664 0
    endloop
  endfacet
  facet normal -0.982287 0.187382 0
    outer loop
      vertex 3.97119 -1.01963 -3
      vertex 4.06767 -0.513865 0
      vertex 4.06767 -0.513865 -3
    endloop
  endfacet
  facet normal -0.982287 0.187382 0
    outer loop
      vertex 4.06767 -0.513865 0
      vertex 3.97119 -1.01963 -3
      vertex 3.97119 -1.01963 0
    endloop
  endfacet
  facet normal -0.951055 0.309023 0
    outer loop
      vertex 3.81208 -1.50931 -3
      vertex 3.97119 -1.01963 0
      vertex 3.97119 -1.01963 -3
    endloop
  endfacet
  facet normal -0.951055 0.309023 0
    outer loop
      vertex 3.97119 -1.01963 0
      vertex 3.81208 -1.50931 -3
      vertex 3.81208 -1.50931 0
    endloop
  endfacet
  facet normal 0.12533 0.992115 -0
    outer loop
      vertex -0.257441 -4.09191 -3
      vertex -0.768263 -4.02738 0
      vertex -0.257441 -4.09191 0
    endloop
  endfacet
  facet normal 0.12533 0.992115 0
    outer loop
      vertex -0.768263 -4.02738 0
      vertex -0.257441 -4.09191 -3
      vertex -0.768263 -4.02738 -3
    endloop
  endfacet
  facet normal 0.481755 0.876306 -0
    outer loop
      vertex -1.74569 -3.70979 -3
      vertex -2.19689 -3.46174 0
      vertex -1.74569 -3.70979 0
    endloop
  endfacet
  facet normal 0.481755 0.876306 0
    outer loop
      vertex -2.19689 -3.46174 0
      vertex -1.74569 -3.70979 -3
      vertex -2.19689 -3.46174 -3
    endloop
  endfacet
  facet normal 0.587784 0.809018 -0
    outer loop
      vertex -2.19689 -3.46174 -3
      vertex -2.61344 -3.1591 0
      vertex -2.19689 -3.46174 0
    endloop
  endfacet
  facet normal 0.587784 0.809018 0
    outer loop
      vertex -2.61344 -3.1591 0
      vertex -2.19689 -3.46174 -3
      vertex -2.61344 -3.1591 -3
    endloop
  endfacet
  facet normal 0.982287 0.187382 0
    outer loop
      vertex -3.97119 -1.01963 0
      vertex -4.06767 -0.513865 -3
      vertex -4.06767 -0.513865 0
    endloop
  endfacet
  facet normal 0.982287 0.187382 0
    outer loop
      vertex -4.06767 -0.513865 -3
      vertex -3.97119 -1.01963 0
      vertex -3.97119 -1.01963 -3
    endloop
  endfacet
  facet normal 0.998027 0.0627912 0
    outer loop
      vertex -4.06767 -0.513865 0
      vertex -4.1 0 -3
      vertex -4.1 0 0
    endloop
  endfacet
  facet normal 0.998027 0.0627912 0
    outer loop
      vertex -4.1 0 -3
      vertex -4.06767 -0.513865 0
      vertex -4.06767 -0.513865 -3
    endloop
  endfacet
  facet normal -0.844326 0.535829 0
    outer loop
      vertex 3.31697 -2.40992 -3
      vertex 3.59286 -1.97519 0
      vertex 3.59286 -1.97519 -3
    endloop
  endfacet
  facet normal -0.844326 0.535829 0
    outer loop
      vertex 3.59286 -1.97519 0
      vertex 3.31697 -2.40992 -3
      vertex 3.31697 -2.40992 0
    endloop
  endfacet
  facet normal 0.248697 0.968581 -0
    outer loop
      vertex -0.768263 -4.02738 -3
      vertex -1.26697 -3.89933 0
      vertex -0.768263 -4.02738 0
    endloop
  endfacet
  facet normal 0.248697 0.968581 0
    outer loop
      vertex -1.26697 -3.89933 0
      vertex -0.768263 -4.02738 -3
      vertex -1.26697 -3.89933 -3
    endloop
  endfacet
endsolid OpenSCAD_Model
