solid OpenSCAD_Model
  facet normal 0 0 1
    outer loop
      vertex 3.75 0 0
      vertex 20 0 0
      vertex 19.8423 2.50666 0
    endloop
  endfacet
  facet normal 0 0 1
    outer loop
      vertex 3.72043 0.469999 0
      vertex 19.8423 2.50666 0
      vertex 19.3717 4.9738 0
    endloop
  endfacet
  facet normal 0 0 1
    outer loop
      vertex 20 0 0
      vertex 3.75 0 0
      vertex 19.8423 -2.50666 0
    endloop
  endfacet
  facet normal 0 0 1
    outer loop
      vertex 3.63219 0.932587 0
      vertex 19.3717 4.9738 0
      vertex 18.5955 7.36249 0
    endloop
  endfacet
  facet normal -0 0 1
    outer loop
      vertex 3.72043 -0.469999 0
      vertex 19.8423 -2.50666 0
      vertex 3.75 0 0
    endloop
  endfacet
  facet normal 0 0 1
    outer loop
      vertex 3.48666 1.38047 0
      vertex 18.5955 7.36249 0
      vertex 17.5261 9.63507 0
    endloop
  endfacet
  facet normal 0 0 1
    outer loop
      vertex 19.8423 -2.50666 0
      vertex 3.72043 -0.469999 0
      vertex 19.3717 -4.9738 0
    endloop
  endfacet
  facet normal 0 0 1
    outer loop
      vertex 3.28615 1.80658 0
      vertex 17.5261 9.63507 0
      vertex 16.1803 11.7557 0
    endloop
  endfacet
  facet normal -0 0 1
    outer loop
      vertex 3.63219 -0.932587 0
      vertex 19.3717 -4.9738 0
      vertex 3.72043 -0.469999 0
    endloop
  endfacet
  facet normal 0 0 1
    outer loop
      vertex 3.03381 2.20419 0
      vertex 16.1803 11.7557 0
      vertex 14.5794 13.6909 0
    endloop
  endfacet
  facet normal 0 0 1
    outer loop
      vertex 19.3717 -4.9738 0
      vertex 3.63219 -0.932587 0
      vertex 18.5955 -7.36249 0
    endloop
  endfacet
  facet normal 0 0 1
    outer loop
      vertex 2.73363 2.56705 0
      vertex 14.5794 13.6909 0
      vertex 12.7485 15.4103 0
    endloop
  endfacet
  facet normal -0 0 1
    outer loop
      vertex 3.48666 -1.38047 0
      vertex 18.5955 -7.36249 0
      vertex 3.63219 -0.932587 0
    endloop
  endfacet
  facet normal 0 0 1
    outer loop
      vertex 2.39034 2.88942 0
      vertex 12.7485 15.4103 0
      vertex 10.7165 16.8866 0
    endloop
  endfacet
  facet normal 0 0 1
    outer loop
      vertex 18.5955 -7.36249 0
      vertex 3.48666 -1.38047 0
      vertex 17.5261 -9.63507 0
    endloop
  endfacet
  facet normal 0 0 1
    outer loop
      vertex 2.00935 3.16623 0
      vertex 10.7165 16.8866 0
      vertex 8.51558 18.0965 0
    endloop
  endfacet
  facet normal -0 0 1
    outer loop
      vertex 3.28615 -1.80658 0
      vertex 17.5261 -9.63507 0
      vertex 3.48666 -1.38047 0
    endloop
  endfacet
  facet normal 0 0 1
    outer loop
      vertex 1.59667 3.3931 0
      vertex 8.51558 18.0965 0
      vertex 6.18034 19.0211 0
    endloop
  endfacet
  facet normal 0 0 1
    outer loop
      vertex 17.5261 -9.63507 0
      vertex 3.28615 -1.80658 0
      vertex 16.1803 -11.7557 0
    endloop
  endfacet
  facet normal -0 0 1
    outer loop
      vertex 3.03381 -2.20419 0
      vertex 16.1803 -11.7557 0
      vertex 3.28615 -1.80658 0
    endloop
  endfacet
  facet normal 0 0 1
    outer loop
      vertex 1.15881 3.56646 0
      vertex 6.18034 19.0211 0
      vertex 3.74763 19.6457 0
    endloop
  endfacet
  facet normal 0 0 1
    outer loop
      vertex 19.8423 2.50666 0
      vertex 3.72043 0.469999 0
      vertex 3.75 0 0
    endloop
  endfacet
  facet normal 0 0 1
    outer loop
      vertex 19.3717 4.9738 0
      vertex 3.63219 0.932587 0
      vertex 3.72043 0.469999 0
    endloop
  endfacet
  facet normal 0 0 1
    outer loop
      vertex 18.5955 7.36249 0
      vertex 3.48666 1.38047 0
      vertex 3.63219 0.932587 0
    endloop
  endfacet
  facet normal 0 0 1
    outer loop
      vertex 17.5261 9.63507 0
      vertex 3.28615 1.80658 0
      vertex 3.48666 1.38047 0
    endloop
  endfacet
  facet normal 0 0 1
    outer loop
      vertex 16.1803 11.7557 0
      vertex 3.03381 2.20419 0
      vertex 3.28615 1.80658 0
    endloop
  endfacet
  facet normal 0 0 1
    outer loop
      vertex 14.5794 13.6909 0
      vertex 2.73363 2.56705 0
      vertex 3.03381 2.20419 0
    endloop
  endfacet
  facet normal 0 0 1
    outer loop
      vertex 12.7485 15.4103 0
      vertex 2.39034 2.88942 0
      vertex 2.73363 2.56705 0
    endloop
  endfacet
  facet normal 0 0 1
    outer loop
      vertex 10.7165 16.8866 0
      vertex 2.00935 3.16623 0
      vertex 2.39034 2.88942 0
    endloop
  endfacet
  facet normal 0 0 1
    outer loop
      vertex 8.51558 18.0965 0
      vertex 1.59667 3.3931 0
      vertex 2.00935 3.16623 0
    endloop
  endfacet
  facet normal 0 0 1
    outer loop
      vertex 0.70268 3.68358 0
      vertex 3.74763 19.6457 0
      vertex 1.25581 19.9605 0
    endloop
  endfacet
  facet normal 0 0 1
    outer loop
      vertex 6.18034 19.0211 0
      vertex 1.15881 3.56646 0
      vertex 1.59667 3.3931 0
    endloop
  endfacet
  facet normal 0 0 1
    outer loop
      vertex 3.74763 19.6457 0
      vertex 0.70268 3.68358 0
      vertex 1.15881 3.56646 0
    endloop
  endfacet
  facet normal 0 0 1
    outer loop
      vertex 1.25581 19.9605 0
      vertex 0.235464 3.7426 0
      vertex 0.70268 3.68358 0
    endloop
  endfacet
  facet normal 0 0 1
    outer loop
      vertex 1.25581 19.9605 0
      vertex -0.235464 3.7426 0
      vertex 0.235464 3.7426 0
    endloop
  endfacet
  facet normal -0 0 1
    outer loop
      vertex -1.25581 19.9605 0
      vertex -0.235464 3.7426 0
      vertex 1.25581 19.9605 0
    endloop
  endfacet
  facet normal 0 0 1
    outer loop
      vertex -0.235464 3.7426 0
      vertex -1.25581 19.9605 0
      vertex -0.70268 3.68358 0
    endloop
  endfacet
  facet normal -0 0 1
    outer loop
      vertex -3.74763 19.6457 0
      vertex -0.70268 3.68358 0
      vertex -1.25581 19.9605 0
    endloop
  endfacet
  facet normal 0 0 1
    outer loop
      vertex -0.70268 3.68358 0
      vertex -3.74763 19.6457 0
      vertex -1.15881 3.56646 0
    endloop
  endfacet
  facet normal -0 0 1
    outer loop
      vertex -6.18034 19.0211 0
      vertex -1.15881 3.56646 0
      vertex -3.74763 19.6457 0
    endloop
  endfacet
  facet normal 0 0 1
    outer loop
      vertex -1.15881 3.56646 0
      vertex -6.18034 19.0211 0
      vertex -1.59667 3.3931 0
    endloop
  endfacet
  facet normal -0 0 1
    outer loop
      vertex -8.51558 18.0965 0
      vertex -1.59667 3.3931 0
      vertex -6.18034 19.0211 0
    endloop
  endfacet
  facet normal 0 0 1
    outer loop
      vertex -1.59667 3.3931 0
      vertex -8.51558 18.0965 0
      vertex -2.00935 3.16623 0
    endloop
  endfacet
  facet normal -0 0 1
    outer loop
      vertex -10.7165 16.8866 0
      vertex -2.00935 3.16623 0
      vertex -8.51558 18.0965 0
    endloop
  endfacet
  facet normal 0 0 1
    outer loop
      vertex -2.00935 3.16623 0
      vertex -10.7165 16.8866 0
      vertex -2.39034 2.88942 0
    endloop
  endfacet
  facet normal -0 0 1
    outer loop
      vertex -12.7485 15.4103 0
      vertex -2.39034 2.88942 0
      vertex -10.7165 16.8866 0
    endloop
  endfacet
  facet normal 0 0 1
    outer loop
      vertex -2.39034 2.88942 0
      vertex -12.7485 15.4103 0
      vertex -2.73363 2.56705 0
    endloop
  endfacet
  facet normal -0 0 1
    outer loop
      vertex -14.5794 13.6909 0
      vertex -2.73363 2.56705 0
      vertex -12.7485 15.4103 0
    endloop
  endfacet
  facet normal 0 0 1
    outer loop
      vertex -2.73363 2.56705 0
      vertex -14.5794 13.6909 0
      vertex -3.03381 2.20419 0
    endloop
  endfacet
  facet normal -0 0 1
    outer loop
      vertex -16.1803 11.7557 0
      vertex -3.03381 2.20419 0
      vertex -14.5794 13.6909 0
    endloop
  endfacet
  facet normal 0 0 1
    outer loop
      vertex 16.1803 -11.7557 0
      vertex 3.03381 -2.20419 0
      vertex 14.5794 -13.6909 0
    endloop
  endfacet
  facet normal -0 0 1
    outer loop
      vertex 2.73363 -2.56705 0
      vertex 14.5794 -13.6909 0
      vertex 3.03381 -2.20419 0
    endloop
  endfacet
  facet normal 0 0 1
    outer loop
      vertex 14.5794 -13.6909 0
      vertex 2.73363 -2.56705 0
      vertex 12.7485 -15.4103 0
    endloop
  endfacet
  facet normal -0 0 1
    outer loop
      vertex 2.39034 -2.88942 0
      vertex 12.7485 -15.4103 0
      vertex 2.73363 -2.56705 0
    endloop
  endfacet
  facet normal 0 0 1
    outer loop
      vertex 12.7485 -15.4103 0
      vertex 2.39034 -2.88942 0
      vertex 10.7165 -16.8866 0
    endloop
  endfacet
  facet normal -0 0 1
    outer loop
      vertex 2.00935 -3.16623 0
      vertex 10.7165 -16.8866 0
      vertex 2.39034 -2.88942 0
    endloop
  endfacet
  facet normal 0 0 1
    outer loop
      vertex 10.7165 -16.8866 0
      vertex 2.00935 -3.16623 0
      vertex 8.51558 -18.0965 0
    endloop
  endfacet
  facet normal -0 0 1
    outer loop
      vertex 1.59667 -3.3931 0
      vertex 8.51558 -18.0965 0
      vertex 2.00935 -3.16623 0
    endloop
  endfacet
  facet normal 0 0 1
    outer loop
      vertex 8.51558 -18.0965 0
      vertex 1.59667 -3.3931 0
      vertex 6.18034 -19.0211 0
    endloop
  endfacet
  facet normal -0 0 1
    outer loop
      vertex 1.15881 -3.56646 0
      vertex 6.18034 -19.0211 0
      vertex 1.59667 -3.3931 0
    endloop
  endfacet
  facet normal 0 0 1
    outer loop
      vertex 6.18034 -19.0211 0
      vertex 1.15881 -3.56646 0
      vertex 3.74763 -19.6457 0
    endloop
  endfacet
  facet normal -0 0 1
    outer loop
      vertex 0.70268 -3.68358 0
      vertex 3.74763 -19.6457 0
      vertex 1.15881 -3.56646 0
    endloop
  endfacet
  facet normal 0 0 1
    outer loop
      vertex 3.74763 -19.6457 0
      vertex 0.70268 -3.68358 0
      vertex 1.25581 -19.9605 0
    endloop
  endfacet
  facet normal -0 0 1
    outer loop
      vertex 0.235464 -3.7426 0
      vertex 1.25581 -19.9605 0
      vertex 0.70268 -3.68358 0
    endloop
  endfacet
  facet normal -0 0 1
    outer loop
      vertex -0.235464 -3.7426 0
      vertex 1.25581 -19.9605 0
      vertex 0.235464 -3.7426 0
    endloop
  endfacet
  facet normal 0 0 1
    outer loop
      vertex -1.25581 -19.9605 0
      vertex -0.235464 -3.7426 0
      vertex -0.70268 -3.68358 0
    endloop
  endfacet
  facet normal 0 0 1
    outer loop
      vertex -3.74763 -19.6457 0
      vertex -0.70268 -3.68358 0
      vertex -1.15881 -3.56646 0
    endloop
  endfacet
  facet normal 0 0 1
    outer loop
      vertex -0.235464 -3.7426 0
      vertex -1.25581 -19.9605 0
      vertex 1.25581 -19.9605 0
    endloop
  endfacet
  facet normal 0 0 1
    outer loop
      vertex -6.18034 -19.0211 0
      vertex -1.15881 -3.56646 0
      vertex -1.59667 -3.3931 0
    endloop
  endfacet
  facet normal 0 0 1
    outer loop
      vertex -8.51558 -18.0965 0
      vertex -1.59667 -3.3931 0
      vertex -2.00935 -3.16623 0
    endloop
  endfacet
  facet normal 0 0 1
    outer loop
      vertex -10.7165 -16.8866 0
      vertex -2.00935 -3.16623 0
      vertex -2.39034 -2.88942 0
    endloop
  endfacet
  facet normal 0 0 1
    outer loop
      vertex -12.7485 -15.4103 0
      vertex -2.39034 -2.88942 0
      vertex -2.73363 -2.56705 0
    endloop
  endfacet
  facet normal 0 0 1
    outer loop
      vertex -14.5794 -13.6909 0
      vertex -2.73363 -2.56705 0
      vertex -3.03381 -2.20419 0
    endloop
  endfacet
  facet normal 0 0 1
    outer loop
      vertex -16.1803 -11.7557 0
      vertex -3.03381 -2.20419 0
      vertex -3.28615 -1.80658 0
    endloop
  endfacet
  facet normal 0 0 1
    outer loop
      vertex -17.5261 -9.63507 0
      vertex -3.28615 -1.80658 0
      vertex -3.48666 -1.38047 0
    endloop
  endfacet
  facet normal 0 0 1
    outer loop
      vertex -18.5955 -7.36249 0
      vertex -3.48666 -1.38047 0
      vertex -3.63219 -0.932587 0
    endloop
  endfacet
  facet normal 0 0 1
    outer loop
      vertex -19.3717 -4.9738 0
      vertex -3.63219 -0.932587 0
      vertex -3.72043 -0.469999 0
    endloop
  endfacet
  facet normal 0 0 1
    outer loop
      vertex -0.70268 -3.68358 0
      vertex -3.74763 -19.6457 0
      vertex -1.25581 -19.9605 0
    endloop
  endfacet
  facet normal 0 0 1
    outer loop
      vertex -19.8423 -2.50666 0
      vertex -3.72043 -0.469999 0
      vertex -3.75 0 0
    endloop
  endfacet
  facet normal 0 0 1
    outer loop
      vertex -3.03381 2.20419 0
      vertex -16.1803 11.7557 0
      vertex -3.28615 1.80658 0
    endloop
  endfacet
  facet normal 0 0 1
    outer loop
      vertex -1.15881 -3.56646 0
      vertex -6.18034 -19.0211 0
      vertex -3.74763 -19.6457 0
    endloop
  endfacet
  facet normal -0 0 1
    outer loop
      vertex -17.5261 9.63507 0
      vertex -3.28615 1.80658 0
      vertex -16.1803 11.7557 0
    endloop
  endfacet
  facet normal 0 0 1
    outer loop
      vertex -1.59667 -3.3931 0
      vertex -8.51558 -18.0965 0
      vertex -6.18034 -19.0211 0
    endloop
  endfacet
  facet normal 0 0 1
    outer loop
      vertex -3.28615 1.80658 0
      vertex -17.5261 9.63507 0
      vertex -3.48666 1.38047 0
    endloop
  endfacet
  facet normal 0 0 1
    outer loop
      vertex -2.00935 -3.16623 0
      vertex -10.7165 -16.8866 0
      vertex -8.51558 -18.0965 0
    endloop
  endfacet
  facet normal -0 0 1
    outer loop
      vertex -18.5955 7.36249 0
      vertex -3.48666 1.38047 0
      vertex -17.5261 9.63507 0
    endloop
  endfacet
  facet normal 0 0 1
    outer loop
      vertex -2.39034 -2.88942 0
      vertex -12.7485 -15.4103 0
      vertex -10.7165 -16.8866 0
    endloop
  endfacet
  facet normal 0 0 1
    outer loop
      vertex -3.48666 1.38047 0
      vertex -18.5955 7.36249 0
      vertex -3.63219 0.932587 0
    endloop
  endfacet
  facet normal 0 0 1
    outer loop
      vertex -2.73363 -2.56705 0
      vertex -14.5794 -13.6909 0
      vertex -12.7485 -15.4103 0
    endloop
  endfacet
  facet normal -0 0 1
    outer loop
      vertex -19.3717 4.9738 0
      vertex -3.63219 0.932587 0
      vertex -18.5955 7.36249 0
    endloop
  endfacet
  facet normal 0 0 1
    outer loop
      vertex -3.03381 -2.20419 0
      vertex -16.1803 -11.7557 0
      vertex -14.5794 -13.6909 0
    endloop
  endfacet
  facet normal 0 0 1
    outer loop
      vertex -3.63219 0.932587 0
      vertex -19.3717 4.9738 0
      vertex -3.72043 0.469999 0
    endloop
  endfacet
  facet normal 0 0 1
    outer loop
      vertex -3.28615 -1.80658 0
      vertex -17.5261 -9.63507 0
      vertex -16.1803 -11.7557 0
    endloop
  endfacet
  facet normal -0 0 1
    outer loop
      vertex -19.8423 2.50666 0
      vertex -3.72043 0.469999 0
      vertex -19.3717 4.9738 0
    endloop
  endfacet
  facet normal 0 0 1
    outer loop
      vertex -3.48666 -1.38047 0
      vertex -18.5955 -7.36249 0
      vertex -17.5261 -9.63507 0
    endloop
  endfacet
  facet normal 0 0 1
    outer loop
      vertex -3.72043 0.469999 0
      vertex -19.8423 2.50666 0
      vertex -3.75 0 0
    endloop
  endfacet
  facet normal 0 0 1
    outer loop
      vertex -3.63219 -0.932587 0
      vertex -19.3717 -4.9738 0
      vertex -18.5955 -7.36249 0
    endloop
  endfacet
  facet normal 0 0 1
    outer loop
      vertex -20 0 0
      vertex -3.75 0 0
      vertex -19.8423 2.50666 0
    endloop
  endfacet
  facet normal 0 0 1
    outer loop
      vertex -3.72043 -0.469999 0
      vertex -19.8423 -2.50666 0
      vertex -19.3717 -4.9738 0
    endloop
  endfacet
  facet normal 0 0 1
    outer loop
      vertex -3.75 0 0
      vertex -20 0 0
      vertex -19.8423 -2.50666 0
    endloop
  endfacet
  facet normal 0.998027 0.0627883 0
    outer loop
      vertex 20 0 0
      vertex 19.8423 2.50666 -6
      vertex 19.8423 2.50666 0
    endloop
  endfacet
  facet normal 0.998027 0.0627883 0
    outer loop
      vertex 19.8423 2.50666 -6
      vertex 20 0 0
      vertex 20 0 -6
    endloop
  endfacet
  facet normal -0.998027 0.0627883 0
    outer loop
      vertex -20 0 -6
      vertex -19.8423 2.50666 0
      vertex -19.8423 2.50666 -6
    endloop
  endfacet
  facet normal -0.998027 0.0627883 0
    outer loop
      vertex -19.8423 2.50666 0
      vertex -20 0 -6
      vertex -20 0 0
    endloop
  endfacet
  facet normal 0 1 -0
    outer loop
      vertex 1.25581 19.9605 -6
      vertex -1.25581 19.9605 0
      vertex 1.25581 19.9605 0
    endloop
  endfacet
  facet normal 0 1 0
    outer loop
      vertex -1.25581 19.9605 0
      vertex 1.25581 19.9605 -6
      vertex -1.25581 19.9605 -6
    endloop
  endfacet
  facet normal 0 -1 0
    outer loop
      vertex -1.25581 -19.9605 -6
      vertex 1.25581 -19.9605 0
      vertex -1.25581 -19.9605 0
    endloop
  endfacet
  facet normal 0 -1 -0
    outer loop
      vertex 1.25581 -19.9605 0
      vertex -1.25581 -19.9605 -6
      vertex 1.25581 -19.9605 -6
    endloop
  endfacet
  facet normal 0.684562 0.728955 -0
    outer loop
      vertex 14.5794 13.6909 -6
      vertex 12.7485 15.4103 0
      vertex 14.5794 13.6909 0
    endloop
  endfacet
  facet normal 0.684562 0.728955 0
    outer loop
      vertex 12.7485 15.4103 0
      vertex 14.5794 13.6909 -6
      vertex 12.7485 15.4103 -6
    endloop
  endfacet
  facet normal -0.684562 0.728955 0
    outer loop
      vertex -12.7485 15.4103 -6
      vertex -14.5794 13.6909 0
      vertex -12.7485 15.4103 0
    endloop
  endfacet
  facet normal -0.684562 0.728955 0
    outer loop
      vertex -14.5794 13.6909 0
      vertex -12.7485 15.4103 -6
      vertex -14.5794 13.6909 -6
    endloop
  endfacet
  facet normal -0.368129 0.929775 0
    outer loop
      vertex -6.18034 19.0211 -6
      vertex -8.51558 18.0965 0
      vertex -6.18034 19.0211 0
    endloop
  endfacet
  facet normal -0.368129 0.929775 0
    outer loop
      vertex -8.51558 18.0965 0
      vertex -6.18034 19.0211 -6
      vertex -8.51558 18.0965 -6
    endloop
  endfacet
  facet normal 0.904826 -0.425781 0
    outer loop
      vertex 17.5261 -9.63507 0
      vertex 18.5955 -7.36249 -6
      vertex 18.5955 -7.36249 0
    endloop
  endfacet
  facet normal 0.904826 -0.425781 0
    outer loop
      vertex 18.5955 -7.36249 -6
      vertex 17.5261 -9.63507 0
      vertex 17.5261 -9.63507 -6
    endloop
  endfacet
  facet normal 0.904826 0.425781 0
    outer loop
      vertex 18.5955 7.36249 0
      vertex 17.5261 9.63507 -6
      vertex 17.5261 9.63507 0
    endloop
  endfacet
  facet normal 0.904826 0.425781 0
    outer loop
      vertex 17.5261 9.63507 -6
      vertex 18.5955 7.36249 0
      vertex 18.5955 7.36249 -6
    endloop
  endfacet
  facet normal 0.368129 0.929775 -0
    outer loop
      vertex 8.51558 18.0965 -6
      vertex 6.18034 19.0211 0
      vertex 8.51558 18.0965 0
    endloop
  endfacet
  facet normal 0.368129 0.929775 0
    outer loop
      vertex 6.18034 19.0211 0
      vertex 8.51558 18.0965 -6
      vertex 6.18034 19.0211 -6
    endloop
  endfacet
  facet normal 0.587776 0.809024 -0
    outer loop
      vertex 12.7485 15.4103 -6
      vertex 10.7165 16.8866 0
      vertex 12.7485 15.4103 0
    endloop
  endfacet
  facet normal 0.587776 0.809024 0
    outer loop
      vertex 10.7165 16.8866 0
      vertex 12.7485 15.4103 -6
      vertex 10.7165 16.8866 -6
    endloop
  endfacet
  facet normal -0.904826 0.425781 0
    outer loop
      vertex -18.5955 7.36249 -6
      vertex -17.5261 9.63507 0
      vertex -17.5261 9.63507 -6
    endloop
  endfacet
  facet normal -0.904826 0.425781 0
    outer loop
      vertex -17.5261 9.63507 0
      vertex -18.5955 7.36249 -6
      vertex -18.5955 7.36249 0
    endloop
  endfacet
  facet normal -0.77052 0.637415 0
    outer loop
      vertex -16.1803 11.7557 -6
      vertex -14.5794 13.6909 0
      vertex -14.5794 13.6909 -6
    endloop
  endfacet
  facet normal -0.77052 0.637415 0
    outer loop
      vertex -14.5794 13.6909 0
      vertex -16.1803 11.7557 -6
      vertex -16.1803 11.7557 0
    endloop
  endfacet
  facet normal -0.951049 0.309041 0
    outer loop
      vertex -19.3717 4.9738 -6
      vertex -18.5955 7.36249 0
      vertex -18.5955 7.36249 -6
    endloop
  endfacet
  facet normal -0.951049 0.309041 0
    outer loop
      vertex -18.5955 7.36249 0
      vertex -19.3717 4.9738 -6
      vertex -19.3717 4.9738 0
    endloop
  endfacet
  facet normal -0.481733 0.876318 0
    outer loop
      vertex -8.51558 18.0965 -6
      vertex -10.7165 16.8866 0
      vertex -8.51558 18.0965 0
    endloop
  endfacet
  facet normal -0.481733 0.876318 0
    outer loop
      vertex -10.7165 16.8866 0
      vertex -8.51558 18.0965 -6
      vertex -10.7165 16.8866 -6
    endloop
  endfacet
  facet normal -0.248685 0.968584 0
    outer loop
      vertex -3.74763 19.6457 -6
      vertex -6.18034 19.0211 0
      vertex -3.74763 19.6457 0
    endloop
  endfacet
  facet normal -0.248685 0.968584 0
    outer loop
      vertex -6.18034 19.0211 0
      vertex -3.74763 19.6457 -6
      vertex -6.18034 19.0211 -6
    endloop
  endfacet
  facet normal 0.368129 -0.929775 0
    outer loop
      vertex 6.18034 -19.0211 -6
      vertex 8.51558 -18.0965 0
      vertex 6.18034 -19.0211 0
    endloop
  endfacet
  facet normal 0.368129 -0.929775 0
    outer loop
      vertex 8.51558 -18.0965 0
      vertex 6.18034 -19.0211 -6
      vertex 8.51558 -18.0965 -6
    endloop
  endfacet
  facet normal 0.951049 0.309041 0
    outer loop
      vertex 19.3717 4.9738 0
      vertex 18.5955 7.36249 -6
      vertex 18.5955 7.36249 0
    endloop
  endfacet
  facet normal 0.951049 0.309041 0
    outer loop
      vertex 18.5955 7.36249 -6
      vertex 19.3717 4.9738 0
      vertex 19.3717 4.9738 -6
    endloop
  endfacet
  facet normal 0.98229 0.187369 0
    outer loop
      vertex 19.8423 2.50666 0
      vertex 19.3717 4.9738 -6
      vertex 19.3717 4.9738 0
    endloop
  endfacet
  facet normal 0.98229 0.187369 0
    outer loop
      vertex 19.3717 4.9738 -6
      vertex 19.8423 2.50666 0
      vertex 19.8423 2.50666 -6
    endloop
  endfacet
  facet normal 0.77052 0.637415 0
    outer loop
      vertex 16.1803 11.7557 0
      vertex 14.5794 13.6909 -6
      vertex 14.5794 13.6909 0
    endloop
  endfacet
  facet normal 0.77052 0.637415 0
    outer loop
      vertex 14.5794 13.6909 -6
      vertex 16.1803 11.7557 0
      vertex 16.1803 11.7557 -6
    endloop
  endfacet
  facet normal 0.844327 0.535829 0
    outer loop
      vertex 17.5261 9.63507 0
      vertex 16.1803 11.7557 -6
      vertex 16.1803 11.7557 0
    endloop
  endfacet
  facet normal 0.844327 0.535829 0
    outer loop
      vertex 16.1803 11.7557 -6
      vertex 17.5261 9.63507 0
      vertex 17.5261 9.63507 -6
    endloop
  endfacet
  facet normal 0.248685 0.968584 -0
    outer loop
      vertex 6.18034 19.0211 -6
      vertex 3.74763 19.6457 0
      vertex 6.18034 19.0211 0
    endloop
  endfacet
  facet normal 0.248685 0.968584 0
    outer loop
      vertex 3.74763 19.6457 0
      vertex 6.18034 19.0211 -6
      vertex 3.74763 19.6457 -6
    endloop
  endfacet
  facet normal 0.125337 0.992114 -0
    outer loop
      vertex 3.74763 19.6457 -6
      vertex 1.25581 19.9605 0
      vertex 3.74763 19.6457 0
    endloop
  endfacet
  facet normal 0.125337 0.992114 0
    outer loop
      vertex 1.25581 19.9605 0
      vertex 3.74763 19.6457 -6
      vertex 1.25581 19.9605 -6
    endloop
  endfacet
  facet normal 0.481733 0.876318 -0
    outer loop
      vertex 10.7165 16.8866 -6
      vertex 8.51558 18.0965 0
      vertex 10.7165 16.8866 0
    endloop
  endfacet
  facet normal 0.481733 0.876318 0
    outer loop
      vertex 8.51558 18.0965 0
      vertex 10.7165 16.8866 -6
      vertex 8.51558 18.0965 -6
    endloop
  endfacet
  facet normal -0.844327 0.535829 0
    outer loop
      vertex -17.5261 9.63507 -6
      vertex -16.1803 11.7557 0
      vertex -16.1803 11.7557 -6
    endloop
  endfacet
  facet normal -0.844327 0.535829 0
    outer loop
      vertex -16.1803 11.7557 0
      vertex -17.5261 9.63507 -6
      vertex -17.5261 9.63507 0
    endloop
  endfacet
  facet normal -0.98229 0.187369 0
    outer loop
      vertex -19.8423 2.50666 -6
      vertex -19.3717 4.9738 0
      vertex -19.3717 4.9738 -6
    endloop
  endfacet
  facet normal -0.98229 0.187369 0
    outer loop
      vertex -19.3717 4.9738 0
      vertex -19.8423 2.50666 -6
      vertex -19.8423 2.50666 0
    endloop
  endfacet
  facet normal -0.587776 0.809024 0
    outer loop
      vertex -10.7165 16.8866 -6
      vertex -12.7485 15.4103 0
      vertex -10.7165 16.8866 0
    endloop
  endfacet
  facet normal -0.587776 0.809024 0
    outer loop
      vertex -12.7485 15.4103 0
      vertex -10.7165 16.8866 -6
      vertex -12.7485 15.4103 -6
    endloop
  endfacet
  facet normal -0.125337 0.992114 0
    outer loop
      vertex -1.25581 19.9605 -6
      vertex -3.74763 19.6457 0
      vertex -1.25581 19.9605 0
    endloop
  endfacet
  facet normal -0.125337 0.992114 0
    outer loop
      vertex -3.74763 19.6457 0
      vertex -1.25581 19.9605 -6
      vertex -3.74763 19.6457 -6
    endloop
  endfacet
  facet normal 0.77052 -0.637415 0
    outer loop
      vertex 14.5794 -13.6909 0
      vertex 16.1803 -11.7557 -6
      vertex 16.1803 -11.7557 0
    endloop
  endfacet
  facet normal 0.77052 -0.637415 0
    outer loop
      vertex 16.1803 -11.7557 -6
      vertex 14.5794 -13.6909 0
      vertex 14.5794 -13.6909 -6
    endloop
  endfacet
  facet normal 0.951049 -0.309041 0
    outer loop
      vertex 18.5955 -7.36249 0
      vertex 19.3717 -4.9738 -6
      vertex 19.3717 -4.9738 0
    endloop
  endfacet
  facet normal 0.951049 -0.309041 0
    outer loop
      vertex 19.3717 -4.9738 -6
      vertex 18.5955 -7.36249 0
      vertex 18.5955 -7.36249 -6
    endloop
  endfacet
  facet normal 0.98229 -0.187369 0
    outer loop
      vertex 19.3717 -4.9738 0
      vertex 19.8423 -2.50666 -6
      vertex 19.8423 -2.50666 0
    endloop
  endfacet
  facet normal 0.98229 -0.187369 0
    outer loop
      vertex 19.8423 -2.50666 -6
      vertex 19.3717 -4.9738 0
      vertex 19.3717 -4.9738 -6
    endloop
  endfacet
  facet normal -0.77052 -0.637415 0
    outer loop
      vertex -14.5794 -13.6909 -6
      vertex -16.1803 -11.7557 0
      vertex -16.1803 -11.7557 -6
    endloop
  endfacet
  facet normal -0.77052 -0.637415 0
    outer loop
      vertex -16.1803 -11.7557 0
      vertex -14.5794 -13.6909 -6
      vertex -14.5794 -13.6909 0
    endloop
  endfacet
  facet normal 0 0 -1
    outer loop
      vertex 19.8423 -2.50666 -6
      vertex 19.8423 2.50666 -6
      vertex 20 0 -6
    endloop
  endfacet
  facet normal 0 0 -1
    outer loop
      vertex 19.3717 -4.9738 -6
      vertex 19.8423 2.50666 -6
      vertex 19.8423 -2.50666 -6
    endloop
  endfacet
  facet normal 0 0 -1
    outer loop
      vertex 19.3717 -4.9738 -6
      vertex 19.3717 4.9738 -6
      vertex 19.8423 2.50666 -6
    endloop
  endfacet
  facet normal 0 0 -1
    outer loop
      vertex 18.5955 -7.36249 -6
      vertex 19.3717 4.9738 -6
      vertex 19.3717 -4.9738 -6
    endloop
  endfacet
  facet normal 0 0 -1
    outer loop
      vertex 18.5955 -7.36249 -6
      vertex 18.5955 7.36249 -6
      vertex 19.3717 4.9738 -6
    endloop
  endfacet
  facet normal 0 0 -1
    outer loop
      vertex 17.5261 -9.63507 -6
      vertex 18.5955 7.36249 -6
      vertex 18.5955 -7.36249 -6
    endloop
  endfacet
  facet normal 0 0 -1
    outer loop
      vertex 17.5261 -9.63507 -6
      vertex 17.5261 9.63507 -6
      vertex 18.5955 7.36249 -6
    endloop
  endfacet
  facet normal 0 0 -1
    outer loop
      vertex 16.1803 -11.7557 -6
      vertex 17.5261 9.63507 -6
      vertex 17.5261 -9.63507 -6
    endloop
  endfacet
  facet normal 0 0 -1
    outer loop
      vertex 16.1803 -11.7557 -6
      vertex 16.1803 11.7557 -6
      vertex 17.5261 9.63507 -6
    endloop
  endfacet
  facet normal 0 0 -1
    outer loop
      vertex 14.5794 -13.6909 -6
      vertex 16.1803 11.7557 -6
      vertex 16.1803 -11.7557 -6
    endloop
  endfacet
  facet normal 0 0 -1
    outer loop
      vertex 14.5794 -13.6909 -6
      vertex 14.5794 13.6909 -6
      vertex 16.1803 11.7557 -6
    endloop
  endfacet
  facet normal 0 0 -1
    outer loop
      vertex 12.7485 -15.4103 -6
      vertex 14.5794 13.6909 -6
      vertex 14.5794 -13.6909 -6
    endloop
  endfacet
  facet normal 0 0 -1
    outer loop
      vertex 12.7485 -15.4103 -6
      vertex 12.7485 15.4103 -6
      vertex 14.5794 13.6909 -6
    endloop
  endfacet
  facet normal 0 0 -1
    outer loop
      vertex 10.7165 -16.8866 -6
      vertex 12.7485 15.4103 -6
      vertex 12.7485 -15.4103 -6
    endloop
  endfacet
  facet normal 0 0 -1
    outer loop
      vertex 10.7165 -16.8866 -6
      vertex 10.7165 16.8866 -6
      vertex 12.7485 15.4103 -6
    endloop
  endfacet
  facet normal 0 0 -1
    outer loop
      vertex 8.51558 -18.0965 -6
      vertex 10.7165 16.8866 -6
      vertex 10.7165 -16.8866 -6
    endloop
  endfacet
  facet normal 0 0 -1
    outer loop
      vertex 8.51558 -18.0965 -6
      vertex 8.51558 18.0965 -6
      vertex 10.7165 16.8866 -6
    endloop
  endfacet
  facet normal 0 0 -1
    outer loop
      vertex 6.18034 -19.0211 -6
      vertex 8.51558 18.0965 -6
      vertex 8.51558 -18.0965 -6
    endloop
  endfacet
  facet normal 0 0 -1
    outer loop
      vertex 6.18034 -19.0211 -6
      vertex 6.18034 19.0211 -6
      vertex 8.51558 18.0965 -6
    endloop
  endfacet
  facet normal 0 0 -1
    outer loop
      vertex 3.74763 -19.6457 -6
      vertex 6.18034 19.0211 -6
      vertex 6.18034 -19.0211 -6
    endloop
  endfacet
  facet normal 0 0 -1
    outer loop
      vertex 3.74763 -19.6457 -6
      vertex 3.74763 19.6457 -6
      vertex 6.18034 19.0211 -6
    endloop
  endfacet
  facet normal 0 0 -1
    outer loop
      vertex 1.25581 -19.9605 -6
      vertex 3.74763 19.6457 -6
      vertex 3.74763 -19.6457 -6
    endloop
  endfacet
  facet normal 0 0 -1
    outer loop
      vertex 1.25581 -19.9605 -6
      vertex 1.25581 19.9605 -6
      vertex 3.74763 19.6457 -6
    endloop
  endfacet
  facet normal 0 0 -1
    outer loop
      vertex -1.25581 -19.9605 -6
      vertex 1.25581 19.9605 -6
      vertex 1.25581 -19.9605 -6
    endloop
  endfacet
  facet normal 0 0 -1
    outer loop
      vertex -1.25581 -19.9605 -6
      vertex -1.25581 19.9605 -6
      vertex 1.25581 19.9605 -6
    endloop
  endfacet
  facet normal 0 0 -1
    outer loop
      vertex -3.74763 -19.6457 -6
      vertex -1.25581 19.9605 -6
      vertex -1.25581 -19.9605 -6
    endloop
  endfacet
  facet normal 0 0 -1
    outer loop
      vertex -3.74763 -19.6457 -6
      vertex -3.74763 19.6457 -6
      vertex -1.25581 19.9605 -6
    endloop
  endfacet
  facet normal 0 0 -1
    outer loop
      vertex -6.18034 -19.0211 -6
      vertex -3.74763 19.6457 -6
      vertex -3.74763 -19.6457 -6
    endloop
  endfacet
  facet normal 0 0 -1
    outer loop
      vertex -6.18034 -19.0211 -6
      vertex -6.18034 19.0211 -6
      vertex -3.74763 19.6457 -6
    endloop
  endfacet
  facet normal 0 0 -1
    outer loop
      vertex -8.51558 -18.0965 -6
      vertex -6.18034 19.0211 -6
      vertex -6.18034 -19.0211 -6
    endloop
  endfacet
  facet normal 0 0 -1
    outer loop
      vertex -8.51558 -18.0965 -6
      vertex -8.51558 18.0965 -6
      vertex -6.18034 19.0211 -6
    endloop
  endfacet
  facet normal 0 0 -1
    outer loop
      vertex -10.7165 -16.8866 -6
      vertex -8.51558 18.0965 -6
      vertex -8.51558 -18.0965 -6
    endloop
  endfacet
  facet normal 0 0 -1
    outer loop
      vertex -10.7165 -16.8866 -6
      vertex -10.7165 16.8866 -6
      vertex -8.51558 18.0965 -6
    endloop
  endfacet
  facet normal 0 0 -1
    outer loop
      vertex -12.7485 -15.4103 -6
      vertex -10.7165 16.8866 -6
      vertex -10.7165 -16.8866 -6
    endloop
  endfacet
  facet normal 0 0 -1
    outer loop
      vertex -12.7485 -15.4103 -6
      vertex -12.7485 15.4103 -6
      vertex -10.7165 16.8866 -6
    endloop
  endfacet
  facet normal 0 0 -1
    outer loop
      vertex -14.5794 -13.6909 -6
      vertex -12.7485 15.4103 -6
      vertex -12.7485 -15.4103 -6
    endloop
  endfacet
  facet normal 0 0 -1
    outer loop
      vertex -14.5794 -13.6909 -6
      vertex -14.5794 13.6909 -6
      vertex -12.7485 15.4103 -6
    endloop
  endfacet
  facet normal 0 0 -1
    outer loop
      vertex -16.1803 -11.7557 -6
      vertex -14.5794 13.6909 -6
      vertex -14.5794 -13.6909 -6
    endloop
  endfacet
  facet normal 0 0 -1
    outer loop
      vertex -16.1803 -11.7557 -6
      vertex -16.1803 11.7557 -6
      vertex -14.5794 13.6909 -6
    endloop
  endfacet
  facet normal 0 0 -1
    outer loop
      vertex -17.5261 -9.63507 -6
      vertex -16.1803 11.7557 -6
      vertex -16.1803 -11.7557 -6
    endloop
  endfacet
  facet normal 0 0 -1
    outer loop
      vertex -17.5261 -9.63507 -6
      vertex -17.5261 9.63507 -6
      vertex -16.1803 11.7557 -6
    endloop
  endfacet
  facet normal 0 0 -1
    outer loop
      vertex -18.5955 -7.36249 -6
      vertex -17.5261 9.63507 -6
      vertex -17.5261 -9.63507 -6
    endloop
  endfacet
  facet normal 0 0 -1
    outer loop
      vertex -18.5955 -7.36249 -6
      vertex -18.5955 7.36249 -6
      vertex -17.5261 9.63507 -6
    endloop
  endfacet
  facet normal 0 0 -1
    outer loop
      vertex -19.3717 -4.9738 -6
      vertex -18.5955 7.36249 -6
      vertex -18.5955 -7.36249 -6
    endloop
  endfacet
  facet normal 0 0 -1
    outer loop
      vertex -19.3717 -4.9738 -6
      vertex -19.3717 4.9738 -6
      vertex -18.5955 7.36249 -6
    endloop
  endfacet
  facet normal 0 0 -1
    outer loop
      vertex -19.8423 -2.50666 -6
      vertex -19.3717 4.9738 -6
      vertex -19.3717 -4.9738 -6
    endloop
  endfacet
  facet normal 0 0 -1
    outer loop
      vertex -19.8423 -2.50666 -6
      vertex -19.8423 2.50666 -6
      vertex -19.3717 4.9738 -6
    endloop
  endfacet
  facet normal 0 -0 -1
    outer loop
      vertex -19.8423 2.50666 -6
      vertex -19.8423 -2.50666 -6
      vertex -20 0 -6
    endloop
  endfacet
  facet normal 0.844327 -0.535829 0
    outer loop
      vertex 16.1803 -11.7557 0
      vertex 17.5261 -9.63507 -6
      vertex 17.5261 -9.63507 0
    endloop
  endfacet
  facet normal 0.844327 -0.535829 0
    outer loop
      vertex 17.5261 -9.63507 -6
      vertex 16.1803 -11.7557 0
      vertex 16.1803 -11.7557 -6
    endloop
  endfacet
  facet normal 0.998027 -0.0627883 0
    outer loop
      vertex 19.8423 -2.50666 0
      vertex 20 0 -6
      vertex 20 0 0
    endloop
  endfacet
  facet normal 0.998027 -0.0627883 0
    outer loop
      vertex 20 0 -6
      vertex 19.8423 -2.50666 0
      vertex 19.8423 -2.50666 -6
    endloop
  endfacet
  facet normal -0.951049 -0.309041 0
    outer loop
      vertex -18.5955 -7.36249 -6
      vertex -19.3717 -4.9738 0
      vertex -19.3717 -4.9738 -6
    endloop
  endfacet
  facet normal -0.951049 -0.309041 0
    outer loop
      vertex -19.3717 -4.9738 0
      vertex -18.5955 -7.36249 -6
      vertex -18.5955 -7.36249 0
    endloop
  endfacet
  facet normal 0.248685 -0.968584 0
    outer loop
      vertex 3.74763 -19.6457 -6
      vertex 6.18034 -19.0211 0
      vertex 3.74763 -19.6457 0
    endloop
  endfacet
  facet normal 0.248685 -0.968584 0
    outer loop
      vertex 6.18034 -19.0211 0
      vertex 3.74763 -19.6457 -6
      vertex 6.18034 -19.0211 -6
    endloop
  endfacet
  facet normal 0.125337 -0.992114 0
    outer loop
      vertex 1.25581 -19.9605 -6
      vertex 3.74763 -19.6457 0
      vertex 1.25581 -19.9605 0
    endloop
  endfacet
  facet normal 0.125337 -0.992114 0
    outer loop
      vertex 3.74763 -19.6457 0
      vertex 1.25581 -19.9605 -6
      vertex 3.74763 -19.6457 -6
    endloop
  endfacet
  facet normal 0.684562 -0.728955 0
    outer loop
      vertex 12.7485 -15.4103 -6
      vertex 14.5794 -13.6909 0
      vertex 12.7485 -15.4103 0
    endloop
  endfacet
  facet normal 0.684562 -0.728955 0
    outer loop
      vertex 14.5794 -13.6909 0
      vertex 12.7485 -15.4103 -6
      vertex 14.5794 -13.6909 -6
    endloop
  endfacet
  facet normal 0.587776 -0.809024 0
    outer loop
      vertex 10.7165 -16.8866 -6
      vertex 12.7485 -15.4103 0
      vertex 10.7165 -16.8866 0
    endloop
  endfacet
  facet normal 0.587776 -0.809024 0
    outer loop
      vertex 12.7485 -15.4103 0
      vertex 10.7165 -16.8866 -6
      vertex 12.7485 -15.4103 -6
    endloop
  endfacet
  facet normal 0.481733 -0.876318 0
    outer loop
      vertex 8.51558 -18.0965 -6
      vertex 10.7165 -16.8866 0
      vertex 8.51558 -18.0965 0
    endloop
  endfacet
  facet normal 0.481733 -0.876318 0
    outer loop
      vertex 10.7165 -16.8866 0
      vertex 8.51558 -18.0965 -6
      vertex 10.7165 -16.8866 -6
    endloop
  endfacet
  facet normal -0.125337 -0.992114 0
    outer loop
      vertex -3.74763 -19.6457 -6
      vertex -1.25581 -19.9605 0
      vertex -3.74763 -19.6457 0
    endloop
  endfacet
  facet normal -0.125337 -0.992114 -0
    outer loop
      vertex -1.25581 -19.9605 0
      vertex -3.74763 -19.6457 -6
      vertex -1.25581 -19.9605 -6
    endloop
  endfacet
  facet normal -0.368129 -0.929775 0
    outer loop
      vertex -8.51558 -18.0965 -6
      vertex -6.18034 -19.0211 0
      vertex -8.51558 -18.0965 0
    endloop
  endfacet
  facet normal -0.368129 -0.929775 -0
    outer loop
      vertex -6.18034 -19.0211 0
      vertex -8.51558 -18.0965 -6
      vertex -6.18034 -19.0211 -6
    endloop
  endfacet
  facet normal -0.248685 -0.968584 0
    outer loop
      vertex -6.18034 -19.0211 -6
      vertex -3.74763 -19.6457 0
      vertex -6.18034 -19.0211 0
    endloop
  endfacet
  facet normal -0.248685 -0.968584 -0
    outer loop
      vertex -3.74763 -19.6457 0
      vertex -6.18034 -19.0211 -6
      vertex -3.74763 -19.6457 -6
    endloop
  endfacet
  facet normal -0.844327 -0.535829 0
    outer loop
      vertex -16.1803 -11.7557 -6
      vertex -17.5261 -9.63507 0
      vertex -17.5261 -9.63507 -6
    endloop
  endfacet
  facet normal -0.844327 -0.535829 0
    outer loop
      vertex -17.5261 -9.63507 0
      vertex -16.1803 -11.7557 -6
      vertex -16.1803 -11.7557 0
    endloop
  endfacet
  facet normal -0.904826 -0.425781 0
    outer loop
      vertex -17.5261 -9.63507 -6
      vertex -18.5955 -7.36249 0
      vertex -18.5955 -7.36249 -6
    endloop
  endfacet
  facet normal -0.904826 -0.425781 0
    outer loop
      vertex -18.5955 -7.36249 0
      vertex -17.5261 -9.63507 -6
      vertex -17.5261 -9.63507 0
    endloop
  endfacet
  facet normal -0.98229 -0.187369 0
    outer loop
      vertex -19.3717 -4.9738 -6
      vertex -19.8423 -2.50666 0
      vertex -19.8423 -2.50666 -6
    endloop
  endfacet
  facet normal -0.98229 -0.187369 0
    outer loop
      vertex -19.8423 -2.50666 0
      vertex -19.3717 -4.9738 -6
      vertex -19.3717 -4.9738 0
    endloop
  endfacet
  facet normal -0.998027 -0.0627883 0
    outer loop
      vertex -19.8423 -2.50666 -6
      vertex -20 0 0
      vertex -20 0 -6
    endloop
  endfacet
  facet normal -0.998027 -0.0627883 0
    outer loop
      vertex -20 0 0
      vertex -19.8423 -2.50666 -6
      vertex -19.8423 -2.50666 0
    endloop
  endfacet
  facet normal -0.481733 -0.876318 0
    outer loop
      vertex -10.7165 -16.8866 -6
      vertex -8.51558 -18.0965 0
      vertex -10.7165 -16.8866 0
    endloop
  endfacet
  facet normal -0.481733 -0.876318 -0
    outer loop
      vertex -8.51558 -18.0965 0
      vertex -10.7165 -16.8866 -6
      vertex -8.51558 -18.0965 -6
    endloop
  endfacet
  facet normal -0.587776 -0.809024 0
    outer loop
      vertex -12.7485 -15.4103 -6
      vertex -10.7165 -16.8866 0
      vertex -12.7485 -15.4103 0
    endloop
  endfacet
  facet normal -0.587776 -0.809024 -0
    outer loop
      vertex -10.7165 -16.8866 0
      vertex -12.7485 -15.4103 -6
      vertex -10.7165 -16.8866 -6
    endloop
  endfacet
  facet normal -0.684562 -0.728955 0
    outer loop
      vertex -14.5794 -13.6909 -6
      vertex -12.7485 -15.4103 0
      vertex -14.5794 -13.6909 0
    endloop
  endfacet
  facet normal -0.684562 -0.728955 -0
    outer loop
      vertex -12.7485 -15.4103 0
      vertex -14.5794 -13.6909 -6
      vertex -12.7485 -15.4103 -6
    endloop
  endfacet
  facet normal 0 0 1
    outer loop
      vertex 2.10824 0.266333 -3
      vertex 2.10824 -0.266333 -3
      vertex 2.125 0 -3
    endloop
  endfacet
  facet normal 0 0 1
    outer loop
      vertex 2.05824 0.528465 -3
      vertex 2.10824 -0.266333 -3
      vertex 2.10824 0.266333 -3
    endloop
  endfacet
  facet normal 0 0 1
    outer loop
      vertex 2.05824 0.528465 -3
      vertex 2.05824 -0.528465 -3
      vertex 2.10824 -0.266333 -3
    endloop
  endfacet
  facet normal 0 0 1
    outer loop
      vertex 1.97577 0.782264 -3
      vertex 2.05824 -0.528465 -3
      vertex 2.05824 0.528465 -3
    endloop
  endfacet
  facet normal 0 0 1
    outer loop
      vertex 1.97577 0.782264 -3
      vertex 1.97577 -0.782264 -3
      vertex 2.05824 -0.528465 -3
    endloop
  endfacet
  facet normal 0 0 1
    outer loop
      vertex 1.86215 1.02373 -3
      vertex 1.97577 -0.782264 -3
      vertex 1.97577 0.782264 -3
    endloop
  endfacet
  facet normal 0 0 1
    outer loop
      vertex 1.86215 1.02373 -3
      vertex 1.86215 -1.02373 -3
      vertex 1.97577 -0.782264 -3
    endloop
  endfacet
  facet normal 0 0 1
    outer loop
      vertex 1.71916 1.24904 -3
      vertex 1.86215 -1.02373 -3
      vertex 1.86215 1.02373 -3
    endloop
  endfacet
  facet normal 0 0 1
    outer loop
      vertex 1.71916 1.24904 -3
      vertex 1.71916 -1.24904 -3
      vertex 1.86215 -1.02373 -3
    endloop
  endfacet
  facet normal 0 0 1
    outer loop
      vertex 1.54906 1.45466 -3
      vertex 1.71916 -1.24904 -3
      vertex 1.71916 1.24904 -3
    endloop
  endfacet
  facet normal 0 0 1
    outer loop
      vertex 1.54906 1.45466 -3
      vertex 1.54906 -1.45466 -3
      vertex 1.71916 -1.24904 -3
    endloop
  endfacet
  facet normal 0 0 1
    outer loop
      vertex 1.35453 1.63734 -3
      vertex 1.54906 -1.45466 -3
      vertex 1.54906 1.45466 -3
    endloop
  endfacet
  facet normal 0 0 1
    outer loop
      vertex 1.35453 1.63734 -3
      vertex 1.35453 -1.63734 -3
      vertex 1.54906 -1.45466 -3
    endloop
  endfacet
  facet normal 0 0 1
    outer loop
      vertex 1.13863 1.7942 -3
      vertex 1.35453 -1.63734 -3
      vertex 1.35453 1.63734 -3
    endloop
  endfacet
  facet normal 0 0 1
    outer loop
      vertex 1.13863 1.7942 -3
      vertex 1.13863 -1.7942 -3
      vertex 1.35453 -1.63734 -3
    endloop
  endfacet
  facet normal 0 0 1
    outer loop
      vertex 0.90478 1.92276 -3
      vertex 1.13863 -1.7942 -3
      vertex 1.13863 1.7942 -3
    endloop
  endfacet
  facet normal 0 0 1
    outer loop
      vertex 0.90478 1.92276 -3
      vertex 0.90478 -1.92276 -3
      vertex 1.13863 -1.7942 -3
    endloop
  endfacet
  facet normal 0 0 1
    outer loop
      vertex 0.656661 2.02099 -3
      vertex 0.90478 -1.92276 -3
      vertex 0.90478 1.92276 -3
    endloop
  endfacet
  facet normal 0 0 1
    outer loop
      vertex 0.656661 2.02099 -3
      vertex 0.656661 -2.02099 -3
      vertex 0.90478 -1.92276 -3
    endloop
  endfacet
  facet normal 0 0 1
    outer loop
      vertex 0.398185 2.08736 -3
      vertex 0.656661 -2.02099 -3
      vertex 0.656661 2.02099 -3
    endloop
  endfacet
  facet normal 0 0 1
    outer loop
      vertex 0.398185 2.08736 -3
      vertex 0.398185 -2.08736 -3
      vertex 0.656661 -2.02099 -3
    endloop
  endfacet
  facet normal 0 0 1
    outer loop
      vertex 0.13343 2.12081 -3
      vertex 0.398185 -2.08736 -3
      vertex 0.398185 2.08736 -3
    endloop
  endfacet
  facet normal 0 0 1
    outer loop
      vertex 0.13343 2.12081 -3
      vertex 0.13343 -2.12081 -3
      vertex 0.398185 -2.08736 -3
    endloop
  endfacet
  facet normal -0 0 1
    outer loop
      vertex -0.13343 2.12081 -3
      vertex 0.13343 -2.12081 -3
      vertex 0.13343 2.12081 -3
    endloop
  endfacet
  facet normal 0 0 1
    outer loop
      vertex -0.13343 2.12081 -3
      vertex -0.13343 -2.12081 -3
      vertex 0.13343 -2.12081 -3
    endloop
  endfacet
  facet normal -0 0 1
    outer loop
      vertex -0.398185 2.08736 -3
      vertex -0.13343 -2.12081 -3
      vertex -0.13343 2.12081 -3
    endloop
  endfacet
  facet normal 0 0 1
    outer loop
      vertex -0.398185 2.08736 -3
      vertex -0.398185 -2.08736 -3
      vertex -0.13343 -2.12081 -3
    endloop
  endfacet
  facet normal -0 0 1
    outer loop
      vertex -0.656661 2.02099 -3
      vertex -0.398185 -2.08736 -3
      vertex -0.398185 2.08736 -3
    endloop
  endfacet
  facet normal 0 0 1
    outer loop
      vertex -0.656661 2.02099 -3
      vertex -0.656661 -2.02099 -3
      vertex -0.398185 -2.08736 -3
    endloop
  endfacet
  facet normal -0 0 1
    outer loop
      vertex -0.90478 1.92276 -3
      vertex -0.656661 -2.02099 -3
      vertex -0.656661 2.02099 -3
    endloop
  endfacet
  facet normal 0 0 1
    outer loop
      vertex -0.90478 1.92276 -3
      vertex -0.90478 -1.92276 -3
      vertex -0.656661 -2.02099 -3
    endloop
  endfacet
  facet normal -0 0 1
    outer loop
      vertex -1.13863 1.7942 -3
      vertex -0.90478 -1.92276 -3
      vertex -0.90478 1.92276 -3
    endloop
  endfacet
  facet normal 0 0 1
    outer loop
      vertex -1.13863 1.7942 -3
      vertex -1.13863 -1.7942 -3
      vertex -0.90478 -1.92276 -3
    endloop
  endfacet
  facet normal -0 0 1
    outer loop
      vertex -1.35453 1.63734 -3
      vertex -1.13863 -1.7942 -3
      vertex -1.13863 1.7942 -3
    endloop
  endfacet
  facet normal 0 0 1
    outer loop
      vertex -1.35453 1.63734 -3
      vertex -1.35453 -1.63734 -3
      vertex -1.13863 -1.7942 -3
    endloop
  endfacet
  facet normal -0 0 1
    outer loop
      vertex -1.54906 1.45466 -3
      vertex -1.35453 -1.63734 -3
      vertex -1.35453 1.63734 -3
    endloop
  endfacet
  facet normal 0 0 1
    outer loop
      vertex -1.54906 1.45466 -3
      vertex -1.54906 -1.45466 -3
      vertex -1.35453 -1.63734 -3
    endloop
  endfacet
  facet normal -0 0 1
    outer loop
      vertex -1.71916 1.24904 -3
      vertex -1.54906 -1.45466 -3
      vertex -1.54906 1.45466 -3
    endloop
  endfacet
  facet normal 0 0 1
    outer loop
      vertex -1.71916 1.24904 -3
      vertex -1.71916 -1.24904 -3
      vertex -1.54906 -1.45466 -3
    endloop
  endfacet
  facet normal -0 0 1
    outer loop
      vertex -1.86215 1.02373 -3
      vertex -1.71916 -1.24904 -3
      vertex -1.71916 1.24904 -3
    endloop
  endfacet
  facet normal 0 0 1
    outer loop
      vertex -1.86215 1.02373 -3
      vertex -1.86215 -1.02373 -3
      vertex -1.71916 -1.24904 -3
    endloop
  endfacet
  facet normal -0 0 1
    outer loop
      vertex -1.97577 0.782264 -3
      vertex -1.86215 -1.02373 -3
      vertex -1.86215 1.02373 -3
    endloop
  endfacet
  facet normal 0 0 1
    outer loop
      vertex -1.97577 0.782264 -3
      vertex -1.97577 -0.782264 -3
      vertex -1.86215 -1.02373 -3
    endloop
  endfacet
  facet normal -0 0 1
    outer loop
      vertex -2.05824 0.528465 -3
      vertex -1.97577 -0.782264 -3
      vertex -1.97577 0.782264 -3
    endloop
  endfacet
  facet normal 0 0 1
    outer loop
      vertex -2.05824 0.528465 -3
      vertex -2.05824 -0.528465 -3
      vertex -1.97577 -0.782264 -3
    endloop
  endfacet
  facet normal -0 0 1
    outer loop
      vertex -2.10824 0.266333 -3
      vertex -2.05824 -0.528465 -3
      vertex -2.05824 0.528465 -3
    endloop
  endfacet
  facet normal 0 0 1
    outer loop
      vertex -2.10824 0.266333 -3
      vertex -2.10824 -0.266333 -3
      vertex -2.05824 -0.528465 -3
    endloop
  endfacet
  facet normal 0 -0 1
    outer loop
      vertex -2.10824 -0.266333 -3
      vertex -2.10824 0.266333 -3
      vertex -2.125 0 -3
    endloop
  endfacet
  facet normal -0.110248 0.87275 0.475555
    outer loop
      vertex 0.235464 -3.7426 0
      vertex 0.70268 -3.68358 0
      vertex 0.13343 -2.12081 -3
    endloop
  endfacet
  facet normal -0.87795 -0.0552362 0.475556
    outer loop
      vertex 3.75 0 0
      vertex 3.72043 0.469999 0
      vertex 2.125 0 -3
    endloop
  endfacet
  facet normal -0.877948 -0.0552482 0.475557
    outer loop
      vertex 2.125 0 -3
      vertex 3.72043 0.469999 0
      vertex 2.10824 0.266333 -3
    endloop
  endfacet
  facet normal -0.877948 0.0552482 0.475557
    outer loop
      vertex 3.72043 -0.469999 0
      vertex 2.125 0 -3
      vertex 2.10824 -0.266333 -3
    endloop
  endfacet
  facet normal 0.864106 0.164823 0.475557
    outer loop
      vertex -2.05824 -0.528465 -3
      vertex -2.10824 -0.266333 -3
      vertex -3.72043 -0.469999 0
    endloop
  endfacet
  facet normal 0.218779 -0.852046 0.475556
    outer loop
      vertex -0.398185 2.08736 -3
      vertex -0.70268 3.68358 0
      vertex -1.15881 3.56646 0
    endloop
  endfacet
  facet normal -0.864105 0.16483 0.475556
    outer loop
      vertex 3.63219 -0.932587 0
      vertex 3.72043 -0.469999 0
      vertex 2.05824 -0.528465 -3
    endloop
  endfacet
  facet normal -0.677816 0.560726 0.475555
    outer loop
      vertex 2.73363 -2.56705 0
      vertex 1.71916 -1.24904 -3
      vertex 1.54906 -1.45466 -3
    endloop
  endfacet
  facet normal -0.423788 0.770877 0.475555
    outer loop
      vertex 1.59667 -3.3931 0
      vertex 2.00935 -3.16623 0
      vertex 0.90478 -1.92276 -3
    endloop
  endfacet
  facet normal -0.323832 0.817912 0.475555
    outer loop
      vertex 1.15881 -3.56646 0
      vertex 1.59667 -3.3931 0
      vertex 0.90478 -1.92276 -3
    endloop
  endfacet
  facet normal -0.517072 0.711677 0.475555
    outer loop
      vertex 2.00935 -3.16623 0
      vertex 2.39034 -2.88942 0
      vertex 1.35453 -1.63734 -3
    endloop
  endfacet
  facet normal -0.602186 0.641264 0.475556
    outer loop
      vertex 2.39034 -2.88942 0
      vertex 2.73363 -2.56705 0
      vertex 1.54906 -1.45466 -3
    endloop
  endfacet
  facet normal 0.517072 0.711677 0.475555
    outer loop
      vertex -2.00935 -3.16623 0
      vertex -1.35453 -1.63734 -3
      vertex -2.39034 -2.88942 0
    endloop
  endfacet
  facet normal 0.742735 -0.471371 0.475556
    outer loop
      vertex -1.71916 1.24904 -3
      vertex -3.03381 2.20419 0
      vertex -3.28615 1.80658 0
    endloop
  endfacet
  facet normal -0.836628 0.271844 0.475556
    outer loop
      vertex 3.48666 -1.38047 0
      vertex 3.63219 -0.932587 0
      vertex 2.05824 -0.528465 -3
    endloop
  endfacet
  facet normal -0.87795 0.0552362 0.475556
    outer loop
      vertex 3.72043 -0.469999 0
      vertex 3.75 0 0
      vertex 2.125 0 -3
    endloop
  endfacet
  facet normal -0.836624 0.271855 0.475557
    outer loop
      vertex 3.48666 -1.38047 0
      vertex 2.05824 -0.528465 -3
      vertex 1.97577 -0.782264 -3
    endloop
  endfacet
  facet normal -0.795964 0.374548 0.475557
    outer loop
      vertex 3.28615 -1.80658 0
      vertex 3.48666 -1.38047 0
      vertex 1.97577 -0.782264 -3
    endloop
  endfacet
  facet normal -0.323813 0.817919 0.475557
    outer loop
      vertex 1.15881 -3.56646 0
      vertex 0.90478 -1.92276 -3
      vertex 0.656661 -2.02099 -3
    endloop
  endfacet
  facet normal -0.218783 0.852044 0.475557
    outer loop
      vertex 1.15881 -3.56646 0
      vertex 0.656661 -2.02099 -3
      vertex 0.398185 -2.08736 -3
    endloop
  endfacet
  facet normal -0.602194 0.641257 0.475554
    outer loop
      vertex 2.39034 -2.88942 0
      vertex 1.54906 -1.45466 -3
      vertex 1.35453 -1.63734 -3
    endloop
  endfacet
  facet normal -0.742737 -0.471368 0.475556
    outer loop
      vertex 1.86215 1.02373 -3
      vertex 3.28615 1.80658 0
      vertex 1.71916 1.24904 -3
    endloop
  endfacet
  facet normal -0.423788 -0.770877 0.475555
    outer loop
      vertex 2.00935 3.16623 0
      vertex 1.59667 3.3931 0
      vertex 0.90478 1.92276 -3
    endloop
  endfacet
  facet normal 0.677813 -0.560728 0.475556
    outer loop
      vertex -1.71916 1.24904 -3
      vertex -2.73363 2.56705 0
      vertex -3.03381 2.20419 0
    endloop
  endfacet
  facet normal 0.79597 -0.374538 0.475556
    outer loop
      vertex -1.97577 0.782264 -3
      vertex -1.86215 1.02373 -3
      vertex -3.28615 1.80658 0
    endloop
  endfacet
  facet normal -0.864106 0.164823 0.475557
    outer loop
      vertex 3.72043 -0.469999 0
      vertex 2.10824 -0.266333 -3
      vertex 2.05824 -0.528465 -3
    endloop
  endfacet
  facet normal -0.79597 0.374538 0.475556
    outer loop
      vertex 3.28615 -1.80658 0
      vertex 1.97577 -0.782264 -3
      vertex 1.86215 -1.02373 -3
    endloop
  endfacet
  facet normal -0.742737 0.471368 0.475556
    outer loop
      vertex 3.28615 -1.80658 0
      vertex 1.86215 -1.02373 -3
      vertex 1.71916 -1.24904 -3
    endloop
  endfacet
  facet normal -0.218779 0.852046 0.475556
    outer loop
      vertex 0.70268 -3.68358 0
      vertex 1.15881 -3.56646 0
      vertex 0.398185 -2.08736 -3
    endloop
  endfacet
  facet normal -0.110266 0.872747 0.475557
    outer loop
      vertex 0.70268 -3.68358 0
      vertex 0.398185 -2.08736 -3
      vertex 0.13343 -2.12081 -3
    endloop
  endfacet
  facet normal -0.517065 0.711681 0.475556
    outer loop
      vertex 2.00935 -3.16623 0
      vertex 1.35453 -1.63734 -3
      vertex 1.13863 -1.7942 -3
    endloop
  endfacet
  facet normal 0.864105 0.16483 0.475556
    outer loop
      vertex -3.63219 -0.932587 0
      vertex -2.05824 -0.528465 -3
      vertex -3.72043 -0.469999 0
    endloop
  endfacet
  facet normal 0.423788 0.770877 0.475555
    outer loop
      vertex -1.59667 -3.3931 0
      vertex -0.90478 -1.92276 -3
      vertex -2.00935 -3.16623 0
    endloop
  endfacet
  facet normal 0.218779 0.852046 0.475556
    outer loop
      vertex -0.70268 -3.68358 0
      vertex -0.398185 -2.08736 -3
      vertex -1.15881 -3.56646 0
    endloop
  endfacet
  facet normal 0.517065 0.711681 0.475556
    outer loop
      vertex -1.13863 -1.7942 -3
      vertex -1.35453 -1.63734 -3
      vertex -2.00935 -3.16623 0
    endloop
  endfacet
  facet normal 0.742735 0.471371 0.475556
    outer loop
      vertex -3.03381 -2.20419 0
      vertex -1.71916 -1.24904 -3
      vertex -3.28615 -1.80658 0
    endloop
  endfacet
  facet normal 0.677813 0.560728 0.475556
    outer loop
      vertex -2.73363 -2.56705 0
      vertex -1.71916 -1.24904 -3
      vertex -3.03381 -2.20419 0
    endloop
  endfacet
  facet normal -0.517065 -0.711681 0.475556
    outer loop
      vertex 1.35453 1.63734 -3
      vertex 2.00935 3.16623 0
      vertex 1.13863 1.7942 -3
    endloop
  endfacet
  facet normal -0.110266 -0.872747 0.475557
    outer loop
      vertex 0.398185 2.08736 -3
      vertex 0.70268 3.68358 0
      vertex 0.13343 2.12081 -3
    endloop
  endfacet
  facet normal 0.742737 -0.471368 0.475556
    outer loop
      vertex -1.86215 1.02373 -3
      vertex -1.71916 1.24904 -3
      vertex -3.28615 1.80658 0
    endloop
  endfacet
  facet normal 0.517072 -0.711677 0.475555
    outer loop
      vertex -1.35453 1.63734 -3
      vertex -2.00935 3.16623 0
      vertex -2.39034 2.88942 0
    endloop
  endfacet
  facet normal 0.423788 -0.770877 0.475555
    outer loop
      vertex -0.90478 1.92276 -3
      vertex -1.59667 3.3931 0
      vertex -2.00935 3.16623 0
    endloop
  endfacet
  facet normal 0.323813 -0.817919 0.475557
    outer loop
      vertex -0.90478 1.92276 -3
      vertex -0.656661 2.02099 -3
      vertex -1.15881 3.56646 0
    endloop
  endfacet
  facet normal -0.742735 0.471371 0.475556
    outer loop
      vertex 3.03381 -2.20419 0
      vertex 3.28615 -1.80658 0
      vertex 1.71916 -1.24904 -3
    endloop
  endfacet
  facet normal -0.677813 0.560728 0.475556
    outer loop
      vertex 2.73363 -2.56705 0
      vertex 3.03381 -2.20419 0
      vertex 1.71916 -1.24904 -3
    endloop
  endfacet
  facet normal -0.423791 0.770875 0.475556
    outer loop
      vertex 2.00935 -3.16623 0
      vertex 1.13863 -1.7942 -3
      vertex 0.90478 -1.92276 -3
    endloop
  endfacet
  facet normal 0.836624 0.271855 0.475557
    outer loop
      vertex -1.97577 -0.782264 -3
      vertex -2.05824 -0.528465 -3
      vertex -3.48666 -1.38047 0
    endloop
  endfacet
  facet normal 0.795964 0.374548 0.475557
    outer loop
      vertex -3.28615 -1.80658 0
      vertex -1.97577 -0.782264 -3
      vertex -3.48666 -1.38047 0
    endloop
  endfacet
  facet normal 0.423791 0.770875 0.475556
    outer loop
      vertex -0.90478 -1.92276 -3
      vertex -1.13863 -1.7942 -3
      vertex -2.00935 -3.16623 0
    endloop
  endfacet
  facet normal 0.218783 0.852044 0.475557
    outer loop
      vertex -0.398185 -2.08736 -3
      vertex -0.656661 -2.02099 -3
      vertex -1.15881 -3.56646 0
    endloop
  endfacet
  facet normal 0.323832 0.817912 0.475555
    outer loop
      vertex -1.15881 -3.56646 0
      vertex -0.90478 -1.92276 -3
      vertex -1.59667 -3.3931 0
    endloop
  endfacet
  facet normal 0.602194 0.641257 0.475554
    outer loop
      vertex -1.35453 -1.63734 -3
      vertex -1.54906 -1.45466 -3
      vertex -2.39034 -2.88942 0
    endloop
  endfacet
  facet normal -0.677813 -0.560728 0.475556
    outer loop
      vertex 3.03381 2.20419 0
      vertex 2.73363 2.56705 0
      vertex 1.71916 1.24904 -3
    endloop
  endfacet
  facet normal -0.517072 -0.711677 0.475555
    outer loop
      vertex 2.39034 2.88942 0
      vertex 2.00935 3.16623 0
      vertex 1.35453 1.63734 -3
    endloop
  endfacet
  facet normal -0.110248 -0.87275 0.475555
    outer loop
      vertex 0.70268 3.68358 0
      vertex 0.235464 3.7426 0
      vertex 0.13343 2.12081 -3
    endloop
  endfacet
  facet normal -0.218783 -0.852044 0.475557
    outer loop
      vertex 0.656661 2.02099 -3
      vertex 1.15881 3.56646 0
      vertex 0.398185 2.08736 -3
    endloop
  endfacet
  facet normal -0.323832 -0.817912 0.475555
    outer loop
      vertex 1.59667 3.3931 0
      vertex 1.15881 3.56646 0
      vertex 0.90478 1.92276 -3
    endloop
  endfacet
  facet normal 0.87795 0.0552362 0.475556
    outer loop
      vertex -3.72043 -0.469999 0
      vertex -2.125 0 -3
      vertex -3.75 0 0
    endloop
  endfacet
  facet normal 0.87795 -0.0552362 0.475556
    outer loop
      vertex -2.125 0 -3
      vertex -3.72043 0.469999 0
      vertex -3.75 0 0
    endloop
  endfacet
  facet normal 0.836628 -0.271844 0.475556
    outer loop
      vertex -2.05824 0.528465 -3
      vertex -3.48666 1.38047 0
      vertex -3.63219 0.932587 0
    endloop
  endfacet
  facet normal 0.677816 -0.560726 0.475555
    outer loop
      vertex -1.71916 1.24904 -3
      vertex -1.54906 1.45466 -3
      vertex -2.73363 2.56705 0
    endloop
  endfacet
  facet normal 0.602186 -0.641264 0.475556
    outer loop
      vertex -1.54906 1.45466 -3
      vertex -2.39034 2.88942 0
      vertex -2.73363 2.56705 0
    endloop
  endfacet
  facet normal 0.517065 -0.711681 0.475556
    outer loop
      vertex -1.35453 1.63734 -3
      vertex -1.13863 1.7942 -3
      vertex -2.00935 3.16623 0
    endloop
  endfacet
  facet normal 0.423791 -0.770875 0.475556
    outer loop
      vertex -1.13863 1.7942 -3
      vertex -0.90478 1.92276 -3
      vertex -2.00935 3.16623 0
    endloop
  endfacet
  facet normal 0.323832 -0.817912 0.475555
    outer loop
      vertex -0.90478 1.92276 -3
      vertex -1.15881 3.56646 0
      vertex -1.59667 3.3931 0
    endloop
  endfacet
  facet normal 0.218783 -0.852044 0.475557
    outer loop
      vertex -0.656661 2.02099 -3
      vertex -0.398185 2.08736 -3
      vertex -1.15881 3.56646 0
    endloop
  endfacet
  facet normal 0.742737 0.471368 0.475556
    outer loop
      vertex -1.71916 -1.24904 -3
      vertex -1.86215 -1.02373 -3
      vertex -3.28615 -1.80658 0
    endloop
  endfacet
  facet normal 0.79597 0.374538 0.475556
    outer loop
      vertex -1.86215 -1.02373 -3
      vertex -1.97577 -0.782264 -3
      vertex -3.28615 -1.80658 0
    endloop
  endfacet
  facet normal 0.836628 0.271844 0.475556
    outer loop
      vertex -3.48666 -1.38047 0
      vertex -2.05824 -0.528465 -3
      vertex -3.63219 -0.932587 0
    endloop
  endfacet
  facet normal 0.323813 0.817919 0.475557
    outer loop
      vertex -0.656661 -2.02099 -3
      vertex -0.90478 -1.92276 -3
      vertex -1.15881 -3.56646 0
    endloop
  endfacet
  facet normal 0.110248 0.87275 0.475555
    outer loop
      vertex -0.235464 -3.7426 0
      vertex -0.13343 -2.12081 -3
      vertex -0.70268 -3.68358 0
    endloop
  endfacet
  facet normal 0 0.879686 0.475555
    outer loop
      vertex 0.13343 -2.12081 -3
      vertex -0.235464 -3.7426 0
      vertex 0.235464 -3.7426 0
    endloop
  endfacet
  facet normal 0 0.879686 0.475555
    outer loop
      vertex -0.235464 -3.7426 0
      vertex 0.13343 -2.12081 -3
      vertex -0.13343 -2.12081 -3
    endloop
  endfacet
  facet normal 0.677816 0.560726 0.475555
    outer loop
      vertex -1.54906 -1.45466 -3
      vertex -1.71916 -1.24904 -3
      vertex -2.73363 -2.56705 0
    endloop
  endfacet
  facet normal 0.602186 0.641264 0.475556
    outer loop
      vertex -2.39034 -2.88942 0
      vertex -1.54906 -1.45466 -3
      vertex -2.73363 -2.56705 0
    endloop
  endfacet
  facet normal -0.79597 -0.374538 0.475556
    outer loop
      vertex 1.97577 0.782264 -3
      vertex 3.28615 1.80658 0
      vertex 1.86215 1.02373 -3
    endloop
  endfacet
  facet normal -0.677816 -0.560726 0.475555
    outer loop
      vertex 1.71916 1.24904 -3
      vertex 2.73363 2.56705 0
      vertex 1.54906 1.45466 -3
    endloop
  endfacet
  facet normal -0.742735 -0.471371 0.475556
    outer loop
      vertex 3.28615 1.80658 0
      vertex 3.03381 2.20419 0
      vertex 1.71916 1.24904 -3
    endloop
  endfacet
  facet normal -0.218779 -0.852046 0.475556
    outer loop
      vertex 1.15881 3.56646 0
      vertex 0.70268 3.68358 0
      vertex 0.398185 2.08736 -3
    endloop
  endfacet
  facet normal -0.423791 -0.770875 0.475556
    outer loop
      vertex 1.13863 1.7942 -3
      vertex 2.00935 3.16623 0
      vertex 0.90478 1.92276 -3
    endloop
  endfacet
  facet normal -0.323813 -0.817919 0.475557
    outer loop
      vertex 0.90478 1.92276 -3
      vertex 1.15881 3.56646 0
      vertex 0.656661 2.02099 -3
    endloop
  endfacet
  facet normal 0.864105 -0.16483 0.475556
    outer loop
      vertex -2.05824 0.528465 -3
      vertex -3.63219 0.932587 0
      vertex -3.72043 0.469999 0
    endloop
  endfacet
  facet normal 0.877948 0.0552482 0.475557
    outer loop
      vertex -2.10824 -0.266333 -3
      vertex -2.125 0 -3
      vertex -3.72043 -0.469999 0
    endloop
  endfacet
  facet normal 0.836624 -0.271855 0.475557
    outer loop
      vertex -2.05824 0.528465 -3
      vertex -1.97577 0.782264 -3
      vertex -3.48666 1.38047 0
    endloop
  endfacet
  facet normal 0.795964 -0.374548 0.475557
    outer loop
      vertex -1.97577 0.782264 -3
      vertex -3.28615 1.80658 0
      vertex -3.48666 1.38047 0
    endloop
  endfacet
  facet normal 0.602194 -0.641257 0.475554
    outer loop
      vertex -1.54906 1.45466 -3
      vertex -1.35453 1.63734 -3
      vertex -2.39034 2.88942 0
    endloop
  endfacet
  facet normal 0.110266 0.872747 0.475557
    outer loop
      vertex -0.13343 -2.12081 -3
      vertex -0.398185 -2.08736 -3
      vertex -0.70268 -3.68358 0
    endloop
  endfacet
  facet normal -0.864105 -0.16483 0.475556
    outer loop
      vertex 3.72043 0.469999 0
      vertex 3.63219 0.932587 0
      vertex 2.05824 0.528465 -3
    endloop
  endfacet
  facet normal -0.864106 -0.164823 0.475557
    outer loop
      vertex 2.10824 0.266333 -3
      vertex 3.72043 0.469999 0
      vertex 2.05824 0.528465 -3
    endloop
  endfacet
  facet normal 0.110248 -0.87275 0.475555
    outer loop
      vertex -0.13343 2.12081 -3
      vertex -0.235464 3.7426 0
      vertex -0.70268 3.68358 0
    endloop
  endfacet
  facet normal 0 -0.879686 0.475555
    outer loop
      vertex -0.13343 2.12081 -3
      vertex 0.235464 3.7426 0
      vertex -0.235464 3.7426 0
    endloop
  endfacet
  facet normal 0 -0.879686 0.475555
    outer loop
      vertex 0.235464 3.7426 0
      vertex -0.13343 2.12081 -3
      vertex 0.13343 2.12081 -3
    endloop
  endfacet
  facet normal 0.877948 -0.0552482 0.475557
    outer loop
      vertex -2.125 0 -3
      vertex -2.10824 0.266333 -3
      vertex -3.72043 0.469999 0
    endloop
  endfacet
  facet normal 0.864106 -0.164823 0.475557
    outer loop
      vertex -2.10824 0.266333 -3
      vertex -2.05824 0.528465 -3
      vertex -3.72043 0.469999 0
    endloop
  endfacet
  facet normal -0.836628 -0.271844 0.475556
    outer loop
      vertex 3.63219 0.932587 0
      vertex 3.48666 1.38047 0
      vertex 2.05824 0.528465 -3
    endloop
  endfacet
  facet normal -0.602194 -0.641257 0.475554
    outer loop
      vertex 1.54906 1.45466 -3
      vertex 2.39034 2.88942 0
      vertex 1.35453 1.63734 -3
    endloop
  endfacet
  facet normal -0.602186 -0.641264 0.475556
    outer loop
      vertex 2.73363 2.56705 0
      vertex 2.39034 2.88942 0
      vertex 1.54906 1.45466 -3
    endloop
  endfacet
  facet normal 0.110266 -0.872747 0.475557
    outer loop
      vertex -0.398185 2.08736 -3
      vertex -0.13343 2.12081 -3
      vertex -0.70268 3.68358 0
    endloop
  endfacet
  facet normal -0.795964 -0.374548 0.475557
    outer loop
      vertex 3.48666 1.38047 0
      vertex 3.28615 1.80658 0
      vertex 1.97577 0.782264 -3
    endloop
  endfacet
  facet normal -0.836624 -0.271855 0.475557
    outer loop
      vertex 2.05824 0.528465 -3
      vertex 3.48666 1.38047 0
      vertex 1.97577 0.782264 -3
    endloop
  endfacet
endsolid OpenSCAD_Model
