solid OpenSCAD_Model
  facet normal 0.998028 0.0627774 0
    outer loop
      vertex 27.5 0 0
      vertex 27.2832 3.44666 -6
      vertex 27.2832 3.44666 0
    endloop
  endfacet
  facet normal 0.998028 0.0627774 0
    outer loop
      vertex 27.2832 3.44666 -6
      vertex 27.5 0 0
      vertex 27.5 0 -6
    endloop
  endfacet
  facet normal 0 0 -1
    outer loop
      vertex 27.2832 -3.44666 -6
      vertex 27.2832 3.44666 -6
      vertex 27.5 0 -6
    endloop
  endfacet
  facet normal 0 0 -1
    outer loop
      vertex 26.636 -6.83897 -6
      vertex 27.2832 3.44666 -6
      vertex 27.2832 -3.44666 -6
    endloop
  endfacet
  facet normal 0 0 -1
    outer loop
      vertex 26.636 -6.83897 -6
      vertex 26.636 6.83897 -6
      vertex 27.2832 3.44666 -6
    endloop
  endfacet
  facet normal 0 0 -1
    outer loop
      vertex 25.5689 -10.1234 -6
      vertex 26.636 6.83897 -6
      vertex 26.636 -6.83897 -6
    endloop
  endfacet
  facet normal 0 0 -1
    outer loop
      vertex 25.5689 -10.1234 -6
      vertex 25.5689 10.1234 -6
      vertex 26.636 6.83897 -6
    endloop
  endfacet
  facet normal 0 0 -1
    outer loop
      vertex 24.0984 -13.2482 -6
      vertex 25.5689 10.1234 -6
      vertex 25.5689 -10.1234 -6
    endloop
  endfacet
  facet normal 0 0 -1
    outer loop
      vertex 24.0984 -13.2482 -6
      vertex 24.0984 13.2482 -6
      vertex 25.5689 10.1234 -6
    endloop
  endfacet
  facet normal 0 0 -1
    outer loop
      vertex 22.248 -16.1641 -6
      vertex 24.0984 13.2482 -6
      vertex 24.0984 -13.2482 -6
    endloop
  endfacet
  facet normal 0 0 -1
    outer loop
      vertex 22.248 -16.1641 -6
      vertex 22.248 16.1641 -6
      vertex 24.0984 13.2482 -6
    endloop
  endfacet
  facet normal 0 0 -1
    outer loop
      vertex 20.0466 -18.825 -6
      vertex 22.248 16.1641 -6
      vertex 22.248 -16.1641 -6
    endloop
  endfacet
  facet normal 0 0 -1
    outer loop
      vertex 20.0466 -18.825 -6
      vertex 20.0466 18.825 -6
      vertex 22.248 16.1641 -6
    endloop
  endfacet
  facet normal 0 0 -1
    outer loop
      vertex 17.5292 -21.1891 -6
      vertex 20.0466 18.825 -6
      vertex 20.0466 -18.825 -6
    endloop
  endfacet
  facet normal 0 0 -1
    outer loop
      vertex 17.5292 -21.1891 -6
      vertex 17.5292 21.1891 -6
      vertex 20.0466 18.825 -6
    endloop
  endfacet
  facet normal 0 0 -1
    outer loop
      vertex 14.7352 -23.219 -6
      vertex 17.5292 21.1891 -6
      vertex 17.5292 -21.1891 -6
    endloop
  endfacet
  facet normal 0 0 -1
    outer loop
      vertex 14.7352 -23.219 -6
      vertex 14.7352 23.219 -6
      vertex 17.5292 21.1891 -6
    endloop
  endfacet
  facet normal 0 0 -1
    outer loop
      vertex 11.7089 -24.8827 -6
      vertex 14.7352 23.219 -6
      vertex 14.7352 -23.219 -6
    endloop
  endfacet
  facet normal 0 0 -1
    outer loop
      vertex 11.7089 -24.8827 -6
      vertex 11.7089 24.8827 -6
      vertex 14.7352 23.219 -6
    endloop
  endfacet
  facet normal 0 0 -1
    outer loop
      vertex 8.49797 -26.1541 -6
      vertex 11.7089 24.8827 -6
      vertex 11.7089 -24.8827 -6
    endloop
  endfacet
  facet normal 0 0 -1
    outer loop
      vertex 8.49797 -26.1541 -6
      vertex 8.49797 26.1541 -6
      vertex 11.7089 24.8827 -6
    endloop
  endfacet
  facet normal 0 0 -1
    outer loop
      vertex 5.15299 -27.0129 -6
      vertex 8.49797 26.1541 -6
      vertex 8.49797 -26.1541 -6
    endloop
  endfacet
  facet normal 0 0 -1
    outer loop
      vertex 5.15299 -27.0129 -6
      vertex 5.15299 27.0129 -6
      vertex 8.49797 26.1541 -6
    endloop
  endfacet
  facet normal 0 0 -1
    outer loop
      vertex 1.72674 -27.4457 -6
      vertex 5.15299 27.0129 -6
      vertex 5.15299 -27.0129 -6
    endloop
  endfacet
  facet normal 0 0 -1
    outer loop
      vertex 1.72674 -27.4457 -6
      vertex 1.72674 27.4457 -6
      vertex 5.15299 27.0129 -6
    endloop
  endfacet
  facet normal 0 0 -1
    outer loop
      vertex -1.72674 -27.4457 -6
      vertex 1.72674 27.4457 -6
      vertex 1.72674 -27.4457 -6
    endloop
  endfacet
  facet normal 0 0 -1
    outer loop
      vertex -1.72674 -27.4457 -6
      vertex -1.72674 27.4457 -6
      vertex 1.72674 27.4457 -6
    endloop
  endfacet
  facet normal 0 0 -1
    outer loop
      vertex -5.15299 -27.0129 -6
      vertex -1.72674 27.4457 -6
      vertex -1.72674 -27.4457 -6
    endloop
  endfacet
  facet normal 0 0 -1
    outer loop
      vertex -5.15299 -27.0129 -6
      vertex -5.15299 27.0129 -6
      vertex -1.72674 27.4457 -6
    endloop
  endfacet
  facet normal 0 0 -1
    outer loop
      vertex -8.49797 -26.1541 -6
      vertex -5.15299 27.0129 -6
      vertex -5.15299 -27.0129 -6
    endloop
  endfacet
  facet normal 0 0 -1
    outer loop
      vertex -8.49797 -26.1541 -6
      vertex -8.49797 26.1541 -6
      vertex -5.15299 27.0129 -6
    endloop
  endfacet
  facet normal 0 0 -1
    outer loop
      vertex -11.7089 -24.8827 -6
      vertex -8.49797 26.1541 -6
      vertex -8.49797 -26.1541 -6
    endloop
  endfacet
  facet normal 0 0 -1
    outer loop
      vertex -11.7089 -24.8827 -6
      vertex -11.7089 24.8827 -6
      vertex -8.49797 26.1541 -6
    endloop
  endfacet
  facet normal 0 0 -1
    outer loop
      vertex -14.7352 -23.219 -6
      vertex -11.7089 24.8827 -6
      vertex -11.7089 -24.8827 -6
    endloop
  endfacet
  facet normal 0 0 -1
    outer loop
      vertex -14.7352 -23.219 -6
      vertex -14.7352 23.219 -6
      vertex -11.7089 24.8827 -6
    endloop
  endfacet
  facet normal 0 0 -1
    outer loop
      vertex -17.5292 -21.1891 -6
      vertex -14.7352 23.219 -6
      vertex -14.7352 -23.219 -6
    endloop
  endfacet
  facet normal 0 0 -1
    outer loop
      vertex -17.5292 -21.1891 -6
      vertex -17.5292 21.1891 -6
      vertex -14.7352 23.219 -6
    endloop
  endfacet
  facet normal 0 0 -1
    outer loop
      vertex -20.0466 -18.825 -6
      vertex -17.5292 21.1891 -6
      vertex -17.5292 -21.1891 -6
    endloop
  endfacet
  facet normal 0 0 -1
    outer loop
      vertex -20.0466 -18.825 -6
      vertex -20.0466 18.825 -6
      vertex -17.5292 21.1891 -6
    endloop
  endfacet
  facet normal 0 0 -1
    outer loop
      vertex -22.248 -16.1641 -6
      vertex -20.0466 18.825 -6
      vertex -20.0466 -18.825 -6
    endloop
  endfacet
  facet normal 0 0 -1
    outer loop
      vertex -22.248 -16.1641 -6
      vertex -22.248 16.1641 -6
      vertex -20.0466 18.825 -6
    endloop
  endfacet
  facet normal 0 0 -1
    outer loop
      vertex -24.0984 -13.2482 -6
      vertex -22.248 16.1641 -6
      vertex -22.248 -16.1641 -6
    endloop
  endfacet
  facet normal 0 0 -1
    outer loop
      vertex -24.0984 -13.2482 -6
      vertex -24.0984 13.2482 -6
      vertex -22.248 16.1641 -6
    endloop
  endfacet
  facet normal 0 0 -1
    outer loop
      vertex -25.5689 -10.1234 -6
      vertex -24.0984 13.2482 -6
      vertex -24.0984 -13.2482 -6
    endloop
  endfacet
  facet normal 0 0 -1
    outer loop
      vertex -25.5689 -10.1234 -6
      vertex -25.5689 10.1234 -6
      vertex -24.0984 13.2482 -6
    endloop
  endfacet
  facet normal 0 0 -1
    outer loop
      vertex -26.636 -6.83897 -6
      vertex -25.5689 10.1234 -6
      vertex -25.5689 -10.1234 -6
    endloop
  endfacet
  facet normal 0 0 -1
    outer loop
      vertex -26.636 -6.83897 -6
      vertex -26.636 6.83897 -6
      vertex -25.5689 10.1234 -6
    endloop
  endfacet
  facet normal 0 0 -1
    outer loop
      vertex -27.2832 -3.44666 -6
      vertex -26.636 6.83897 -6
      vertex -26.636 -6.83897 -6
    endloop
  endfacet
  facet normal 0 0 -1
    outer loop
      vertex -27.2832 -3.44666 -6
      vertex -27.2832 3.44666 -6
      vertex -26.636 6.83897 -6
    endloop
  endfacet
  facet normal 0 -0 -1
    outer loop
      vertex -27.2832 3.44666 -6
      vertex -27.2832 -3.44666 -6
      vertex -27.5 0 -6
    endloop
  endfacet
  facet normal -0.951063 0.308997 0
    outer loop
      vertex -26.636 6.83897 -6
      vertex -25.5689 10.1234 0
      vertex -25.5689 10.1234 -6
    endloop
  endfacet
  facet normal -0.951063 0.308997 0
    outer loop
      vertex -25.5689 10.1234 0
      vertex -26.636 6.83897 -6
      vertex -26.636 6.83897 0
    endloop
  endfacet
  facet normal 0.844339 0.535809 0
    outer loop
      vertex 24.0984 13.2482 0
      vertex 22.248 16.1641 -6
      vertex 22.248 16.1641 0
    endloop
  endfacet
  facet normal 0.844339 0.535809 0
    outer loop
      vertex 22.248 16.1641 -6
      vertex 24.0984 13.2482 0
      vertex 24.0984 13.2482 -6
    endloop
  endfacet
  facet normal 0.36815 0.929766 -0
    outer loop
      vertex 11.7089 24.8827 -6
      vertex 8.49797 26.1541 0
      vertex 11.7089 24.8827 0
    endloop
  endfacet
  facet normal 0.36815 0.929766 0
    outer loop
      vertex 8.49797 26.1541 0
      vertex 11.7089 24.8827 -6
      vertex 8.49797 26.1541 -6
    endloop
  endfacet
  facet normal -0.36815 0.929766 0
    outer loop
      vertex -8.49797 26.1541 -6
      vertex -11.7089 24.8827 0
      vertex -8.49797 26.1541 0
    endloop
  endfacet
  facet normal -0.36815 0.929766 0
    outer loop
      vertex -11.7089 24.8827 0
      vertex -8.49797 26.1541 -6
      vertex -11.7089 24.8827 -6
    endloop
  endfacet
  facet normal 0.982283 -0.187404 0
    outer loop
      vertex 26.636 -6.83897 0
      vertex 27.2832 -3.44666 -6
      vertex 27.2832 -3.44666 0
    endloop
  endfacet
  facet normal 0.982283 -0.187404 0
    outer loop
      vertex 27.2832 -3.44666 -6
      vertex 26.636 -6.83897 0
      vertex 26.636 -6.83897 -6
    endloop
  endfacet
  facet normal 0.982283 0.187404 0
    outer loop
      vertex 27.2832 3.44666 0
      vertex 26.636 6.83897 -6
      vertex 26.636 6.83897 0
    endloop
  endfacet
  facet normal 0.982283 0.187404 0
    outer loop
      vertex 26.636 6.83897 -6
      vertex 27.2832 3.44666 0
      vertex 27.2832 3.44666 -6
    endloop
  endfacet
  facet normal 0 0 1
    outer loop
      vertex 27.2832 3.44666 0
      vertex 27.2832 -3.44666 0
      vertex 27.5 0 0
    endloop
  endfacet
  facet normal 0 0 1
    outer loop
      vertex 26.636 6.83897 0
      vertex 27.2832 -3.44666 0
      vertex 27.2832 3.44666 0
    endloop
  endfacet
  facet normal 0 0 1
    outer loop
      vertex 26.636 6.83897 0
      vertex 26.636 -6.83897 0
      vertex 27.2832 -3.44666 0
    endloop
  endfacet
  facet normal 0 0 1
    outer loop
      vertex 25.5689 10.1234 0
      vertex 26.636 -6.83897 0
      vertex 26.636 6.83897 0
    endloop
  endfacet
  facet normal 0 0 1
    outer loop
      vertex 25.5689 10.1234 0
      vertex 25.5689 -10.1234 0
      vertex 26.636 -6.83897 0
    endloop
  endfacet
  facet normal 0 0 1
    outer loop
      vertex 24.0984 13.2482 0
      vertex 25.5689 -10.1234 0
      vertex 25.5689 10.1234 0
    endloop
  endfacet
  facet normal 0 0 1
    outer loop
      vertex 24.0984 13.2482 0
      vertex 24.0984 -13.2482 0
      vertex 25.5689 -10.1234 0
    endloop
  endfacet
  facet normal 0 0 1
    outer loop
      vertex 22.248 16.1641 0
      vertex 24.0984 -13.2482 0
      vertex 24.0984 13.2482 0
    endloop
  endfacet
  facet normal 0 0 1
    outer loop
      vertex 22.248 16.1641 0
      vertex 22.248 -16.1641 0
      vertex 24.0984 -13.2482 0
    endloop
  endfacet
  facet normal 0 0 1
    outer loop
      vertex 20.0466 18.825 0
      vertex 22.248 -16.1641 0
      vertex 22.248 16.1641 0
    endloop
  endfacet
  facet normal 0 0 1
    outer loop
      vertex 20.0466 18.825 0
      vertex 20.0466 -18.825 0
      vertex 22.248 -16.1641 0
    endloop
  endfacet
  facet normal 0 0 1
    outer loop
      vertex 17.5292 21.1891 0
      vertex 20.0466 -18.825 0
      vertex 20.0466 18.825 0
    endloop
  endfacet
  facet normal 0 0 1
    outer loop
      vertex 17.5292 21.1891 0
      vertex 17.5292 -21.1891 0
      vertex 20.0466 -18.825 0
    endloop
  endfacet
  facet normal 0 0 1
    outer loop
      vertex 14.7352 23.219 0
      vertex 17.5292 -21.1891 0
      vertex 17.5292 21.1891 0
    endloop
  endfacet
  facet normal 0 0 1
    outer loop
      vertex 14.7352 23.219 0
      vertex 14.7352 -23.219 0
      vertex 17.5292 -21.1891 0
    endloop
  endfacet
  facet normal 0 0 1
    outer loop
      vertex 11.7089 24.8827 0
      vertex 14.7352 -23.219 0
      vertex 14.7352 23.219 0
    endloop
  endfacet
  facet normal 0 0 1
    outer loop
      vertex 11.7089 24.8827 0
      vertex 11.7089 -24.8827 0
      vertex 14.7352 -23.219 0
    endloop
  endfacet
  facet normal 0 0 1
    outer loop
      vertex 8.49797 26.1541 0
      vertex 11.7089 -24.8827 0
      vertex 11.7089 24.8827 0
    endloop
  endfacet
  facet normal 0 0 1
    outer loop
      vertex 8.49797 26.1541 0
      vertex 8.49797 -26.1541 0
      vertex 11.7089 -24.8827 0
    endloop
  endfacet
  facet normal 0 0 1
    outer loop
      vertex 5.15299 27.0129 0
      vertex 8.49797 -26.1541 0
      vertex 8.49797 26.1541 0
    endloop
  endfacet
  facet normal 0 0 1
    outer loop
      vertex 5.15299 27.0129 0
      vertex 5.15299 -27.0129 0
      vertex 8.49797 -26.1541 0
    endloop
  endfacet
  facet normal 0 0 1
    outer loop
      vertex 1.72674 27.4457 0
      vertex 5.15299 -27.0129 0
      vertex 5.15299 27.0129 0
    endloop
  endfacet
  facet normal 0 0 1
    outer loop
      vertex 1.72674 27.4457 0
      vertex 1.72674 -27.4457 0
      vertex 5.15299 -27.0129 0
    endloop
  endfacet
  facet normal -0 0 1
    outer loop
      vertex -1.72674 27.4457 0
      vertex 1.72674 -27.4457 0
      vertex 1.72674 27.4457 0
    endloop
  endfacet
  facet normal 0 0 1
    outer loop
      vertex -1.72674 27.4457 0
      vertex -1.72674 -27.4457 0
      vertex 1.72674 -27.4457 0
    endloop
  endfacet
  facet normal -0 0 1
    outer loop
      vertex -5.15299 27.0129 0
      vertex -1.72674 -27.4457 0
      vertex -1.72674 27.4457 0
    endloop
  endfacet
  facet normal 0 0 1
    outer loop
      vertex -5.15299 27.0129 0
      vertex -5.15299 -27.0129 0
      vertex -1.72674 -27.4457 0
    endloop
  endfacet
  facet normal -0 0 1
    outer loop
      vertex -8.49797 26.1541 0
      vertex -5.15299 -27.0129 0
      vertex -5.15299 27.0129 0
    endloop
  endfacet
  facet normal 0 0 1
    outer loop
      vertex -8.49797 26.1541 0
      vertex -8.49797 -26.1541 0
      vertex -5.15299 -27.0129 0
    endloop
  endfacet
  facet normal -0 0 1
    outer loop
      vertex -11.7089 24.8827 0
      vertex -8.49797 -26.1541 0
      vertex -8.49797 26.1541 0
    endloop
  endfacet
  facet normal 0 0 1
    outer loop
      vertex -11.7089 24.8827 0
      vertex -11.7089 -24.8827 0
      vertex -8.49797 -26.1541 0
    endloop
  endfacet
  facet normal -0 0 1
    outer loop
      vertex -14.7352 23.219 0
      vertex -11.7089 -24.8827 0
      vertex -11.7089 24.8827 0
    endloop
  endfacet
  facet normal 0 0 1
    outer loop
      vertex -14.7352 23.219 0
      vertex -14.7352 -23.219 0
      vertex -11.7089 -24.8827 0
    endloop
  endfacet
  facet normal -0 0 1
    outer loop
      vertex -17.5292 21.1891 0
      vertex -14.7352 -23.219 0
      vertex -14.7352 23.219 0
    endloop
  endfacet
  facet normal 0 0 1
    outer loop
      vertex -17.5292 21.1891 0
      vertex -17.5292 -21.1891 0
      vertex -14.7352 -23.219 0
    endloop
  endfacet
  facet normal -0 0 1
    outer loop
      vertex -20.0466 18.825 0
      vertex -17.5292 -21.1891 0
      vertex -17.5292 21.1891 0
    endloop
  endfacet
  facet normal 0 0 1
    outer loop
      vertex -20.0466 18.825 0
      vertex -20.0466 -18.825 0
      vertex -17.5292 -21.1891 0
    endloop
  endfacet
  facet normal -0 0 1
    outer loop
      vertex -22.248 16.1641 0
      vertex -20.0466 -18.825 0
      vertex -20.0466 18.825 0
    endloop
  endfacet
  facet normal 0 0 1
    outer loop
      vertex -22.248 16.1641 0
      vertex -22.248 -16.1641 0
      vertex -20.0466 -18.825 0
    endloop
  endfacet
  facet normal -0 0 1
    outer loop
      vertex -24.0984 13.2482 0
      vertex -22.248 -16.1641 0
      vertex -22.248 16.1641 0
    endloop
  endfacet
  facet normal 0 0 1
    outer loop
      vertex -24.0984 13.2482 0
      vertex -24.0984 -13.2482 0
      vertex -22.248 -16.1641 0
    endloop
  endfacet
  facet normal -0 0 1
    outer loop
      vertex -25.5689 10.1234 0
      vertex -24.0984 -13.2482 0
      vertex -24.0984 13.2482 0
    endloop
  endfacet
  facet normal 0 0 1
    outer loop
      vertex -25.5689 10.1234 0
      vertex -25.5689 -10.1234 0
      vertex -24.0984 -13.2482 0
    endloop
  endfacet
  facet normal -0 0 1
    outer loop
      vertex -26.636 6.83897 0
      vertex -25.5689 -10.1234 0
      vertex -25.5689 10.1234 0
    endloop
  endfacet
  facet normal 0 0 1
    outer loop
      vertex -26.636 6.83897 0
      vertex -26.636 -6.83897 0
      vertex -25.5689 -10.1234 0
    endloop
  endfacet
  facet normal -0 0 1
    outer loop
      vertex -27.2832 3.44666 0
      vertex -26.636 -6.83897 0
      vertex -26.636 6.83897 0
    endloop
  endfacet
  facet normal 0 0 1
    outer loop
      vertex -27.2832 3.44666 0
      vertex -27.2832 -3.44666 0
      vertex -26.636 -6.83897 0
    endloop
  endfacet
  facet normal 0 -0 1
    outer loop
      vertex -27.2832 -3.44666 0
      vertex -27.2832 3.44666 0
      vertex -27.5 0 0
    endloop
  endfacet
  facet normal 0.904818 0.425798 0
    outer loop
      vertex 25.5689 10.1234 0
      vertex 24.0984 13.2482 -6
      vertex 24.0984 13.2482 0
    endloop
  endfacet
  facet normal 0.904818 0.425798 0
    outer loop
      vertex 24.0984 13.2482 -6
      vertex 25.5689 10.1234 0
      vertex 25.5689 10.1234 -6
    endloop
  endfacet
  facet normal 0 1 -0
    outer loop
      vertex 1.72674 27.4457 -6
      vertex -1.72674 27.4457 0
      vertex 1.72674 27.4457 0
    endloop
  endfacet
  facet normal 0 1 0
    outer loop
      vertex -1.72674 27.4457 0
      vertex 1.72674 27.4457 -6
      vertex -1.72674 27.4457 -6
    endloop
  endfacet
  facet normal 0.481749 0.876309 -0
    outer loop
      vertex 14.7352 23.219 -6
      vertex 11.7089 24.8827 0
      vertex 14.7352 23.219 0
    endloop
  endfacet
  facet normal 0.481749 0.876309 0
    outer loop
      vertex 11.7089 24.8827 0
      vertex 14.7352 23.219 -6
      vertex 11.7089 24.8827 -6
    endloop
  endfacet
  facet normal -0.982283 0.187404 0
    outer loop
      vertex -27.2832 3.44666 -6
      vertex -26.636 6.83897 0
      vertex -26.636 6.83897 -6
    endloop
  endfacet
  facet normal -0.982283 0.187404 0
    outer loop
      vertex -26.636 6.83897 0
      vertex -27.2832 3.44666 -6
      vertex -27.2832 3.44666 0
    endloop
  endfacet
  facet normal -0.770497 0.637443 0
    outer loop
      vertex -22.248 16.1641 -6
      vertex -20.0466 18.825 0
      vertex -20.0466 18.825 -6
    endloop
  endfacet
  facet normal -0.770497 0.637443 0
    outer loop
      vertex -20.0466 18.825 0
      vertex -22.248 16.1641 -6
      vertex -22.248 16.1641 0
    endloop
  endfacet
  facet normal -0.248678 0.968586 0
    outer loop
      vertex -5.15299 27.0129 -6
      vertex -8.49797 26.1541 0
      vertex -5.15299 27.0129 0
    endloop
  endfacet
  facet normal -0.248678 0.968586 0
    outer loop
      vertex -8.49797 26.1541 0
      vertex -5.15299 27.0129 -6
      vertex -8.49797 26.1541 -6
    endloop
  endfacet
  facet normal 0.481749 -0.876309 0
    outer loop
      vertex 11.7089 -24.8827 -6
      vertex 14.7352 -23.219 0
      vertex 11.7089 -24.8827 0
    endloop
  endfacet
  facet normal 0.481749 -0.876309 0
    outer loop
      vertex 14.7352 -23.219 0
      vertex 11.7089 -24.8827 -6
      vertex 14.7352 -23.219 -6
    endloop
  endfacet
  facet normal -0.684563 -0.728954 0
    outer loop
      vertex -20.0466 -18.825 -6
      vertex -17.5292 -21.1891 0
      vertex -20.0466 -18.825 0
    endloop
  endfacet
  facet normal -0.684563 -0.728954 -0
    outer loop
      vertex -17.5292 -21.1891 0
      vertex -20.0466 -18.825 -6
      vertex -17.5292 -21.1891 -6
    endloop
  endfacet
  facet normal -0.951063 -0.308997 0
    outer loop
      vertex -25.5689 -10.1234 -6
      vertex -26.636 -6.83897 0
      vertex -26.636 -6.83897 -6
    endloop
  endfacet
  facet normal -0.951063 -0.308997 0
    outer loop
      vertex -26.636 -6.83897 0
      vertex -25.5689 -10.1234 -6
      vertex -25.5689 -10.1234 0
    endloop
  endfacet
  facet normal 0.684563 0.728954 -0
    outer loop
      vertex 20.0466 18.825 -6
      vertex 17.5292 21.1891 0
      vertex 20.0466 18.825 0
    endloop
  endfacet
  facet normal 0.684563 0.728954 0
    outer loop
      vertex 17.5292 21.1891 0
      vertex 20.0466 18.825 -6
      vertex 17.5292 21.1891 -6
    endloop
  endfacet
  facet normal 0.770497 0.637443 0
    outer loop
      vertex 22.248 16.1641 0
      vertex 20.0466 18.825 -6
      vertex 20.0466 18.825 0
    endloop
  endfacet
  facet normal 0.770497 0.637443 0
    outer loop
      vertex 20.0466 18.825 -6
      vertex 22.248 16.1641 0
      vertex 22.248 16.1641 -6
    endloop
  endfacet
  facet normal 0.248678 0.968586 -0
    outer loop
      vertex 8.49797 26.1541 -6
      vertex 5.15299 27.0129 0
      vertex 8.49797 26.1541 0
    endloop
  endfacet
  facet normal 0.248678 0.968586 0
    outer loop
      vertex 5.15299 27.0129 0
      vertex 8.49797 26.1541 -6
      vertex 5.15299 27.0129 -6
    endloop
  endfacet
  facet normal 0.125323 0.992116 -0
    outer loop
      vertex 5.15299 27.0129 -6
      vertex 1.72674 27.4457 0
      vertex 5.15299 27.0129 0
    endloop
  endfacet
  facet normal 0.125323 0.992116 0
    outer loop
      vertex 1.72674 27.4457 0
      vertex 5.15299 27.0129 -6
      vertex 1.72674 27.4457 -6
    endloop
  endfacet
  facet normal -0.998028 0.0627774 0
    outer loop
      vertex -27.5 0 -6
      vertex -27.2832 3.44666 0
      vertex -27.2832 3.44666 -6
    endloop
  endfacet
  facet normal -0.998028 0.0627774 0
    outer loop
      vertex -27.2832 3.44666 0
      vertex -27.5 0 -6
      vertex -27.5 0 0
    endloop
  endfacet
  facet normal -0.904818 0.425798 0
    outer loop
      vertex -25.5689 10.1234 -6
      vertex -24.0984 13.2482 0
      vertex -24.0984 13.2482 -6
    endloop
  endfacet
  facet normal -0.904818 0.425798 0
    outer loop
      vertex -24.0984 13.2482 0
      vertex -25.5689 10.1234 -6
      vertex -25.5689 10.1234 0
    endloop
  endfacet
  facet normal -0.844339 0.535809 0
    outer loop
      vertex -24.0984 13.2482 -6
      vertex -22.248 16.1641 0
      vertex -22.248 16.1641 -6
    endloop
  endfacet
  facet normal -0.844339 0.535809 0
    outer loop
      vertex -22.248 16.1641 0
      vertex -24.0984 13.2482 -6
      vertex -24.0984 13.2482 0
    endloop
  endfacet
  facet normal -0.684563 0.728954 0
    outer loop
      vertex -17.5292 21.1891 -6
      vertex -20.0466 18.825 0
      vertex -17.5292 21.1891 0
    endloop
  endfacet
  facet normal -0.684563 0.728954 0
    outer loop
      vertex -20.0466 18.825 0
      vertex -17.5292 21.1891 -6
      vertex -20.0466 18.825 -6
    endloop
  endfacet
  facet normal -0.481749 0.876309 0
    outer loop
      vertex -11.7089 24.8827 -6
      vertex -14.7352 23.219 0
      vertex -11.7089 24.8827 0
    endloop
  endfacet
  facet normal -0.481749 0.876309 0
    outer loop
      vertex -14.7352 23.219 0
      vertex -11.7089 24.8827 -6
      vertex -14.7352 23.219 -6
    endloop
  endfacet
  facet normal 0.998028 -0.0627774 0
    outer loop
      vertex 27.2832 -3.44666 0
      vertex 27.5 0 -6
      vertex 27.5 0 0
    endloop
  endfacet
  facet normal 0.998028 -0.0627774 0
    outer loop
      vertex 27.5 0 -6
      vertex 27.2832 -3.44666 0
      vertex 27.2832 -3.44666 -6
    endloop
  endfacet
  facet normal 0.951063 -0.308997 0
    outer loop
      vertex 25.5689 -10.1234 0
      vertex 26.636 -6.83897 -6
      vertex 26.636 -6.83897 0
    endloop
  endfacet
  facet normal 0.951063 -0.308997 0
    outer loop
      vertex 26.636 -6.83897 -6
      vertex 25.5689 -10.1234 0
      vertex 25.5689 -10.1234 -6
    endloop
  endfacet
  facet normal 0.770497 -0.637443 0
    outer loop
      vertex 20.0466 -18.825 0
      vertex 22.248 -16.1641 -6
      vertex 22.248 -16.1641 0
    endloop
  endfacet
  facet normal 0.770497 -0.637443 0
    outer loop
      vertex 22.248 -16.1641 -6
      vertex 20.0466 -18.825 0
      vertex 20.0466 -18.825 -6
    endloop
  endfacet
  facet normal 0 -1 0
    outer loop
      vertex -1.72674 -27.4457 -6
      vertex 1.72674 -27.4457 0
      vertex -1.72674 -27.4457 0
    endloop
  endfacet
  facet normal 0 -1 -0
    outer loop
      vertex 1.72674 -27.4457 0
      vertex -1.72674 -27.4457 -6
      vertex 1.72674 -27.4457 -6
    endloop
  endfacet
  facet normal 0.125323 -0.992116 0
    outer loop
      vertex 1.72674 -27.4457 -6
      vertex 5.15299 -27.0129 0
      vertex 1.72674 -27.4457 0
    endloop
  endfacet
  facet normal 0.125323 -0.992116 0
    outer loop
      vertex 5.15299 -27.0129 0
      vertex 1.72674 -27.4457 -6
      vertex 5.15299 -27.0129 -6
    endloop
  endfacet
  facet normal 0.951063 0.308997 0
    outer loop
      vertex 26.636 6.83897 0
      vertex 25.5689 10.1234 -6
      vertex 25.5689 10.1234 0
    endloop
  endfacet
  facet normal 0.951063 0.308997 0
    outer loop
      vertex 25.5689 10.1234 -6
      vertex 26.636 6.83897 0
      vertex 26.636 6.83897 -6
    endloop
  endfacet
  facet normal 0.587774 0.809025 -0
    outer loop
      vertex 17.5292 21.1891 -6
      vertex 14.7352 23.219 0
      vertex 17.5292 21.1891 0
    endloop
  endfacet
  facet normal 0.587774 0.809025 0
    outer loop
      vertex 14.7352 23.219 0
      vertex 17.5292 21.1891 -6
      vertex 14.7352 23.219 -6
    endloop
  endfacet
  facet normal -0.125323 0.992116 0
    outer loop
      vertex -1.72674 27.4457 -6
      vertex -5.15299 27.0129 0
      vertex -1.72674 27.4457 0
    endloop
  endfacet
  facet normal -0.125323 0.992116 0
    outer loop
      vertex -5.15299 27.0129 0
      vertex -1.72674 27.4457 -6
      vertex -5.15299 27.0129 -6
    endloop
  endfacet
  facet normal -0.587774 0.809025 0
    outer loop
      vertex -14.7352 23.219 -6
      vertex -17.5292 21.1891 0
      vertex -14.7352 23.219 0
    endloop
  endfacet
  facet normal -0.587774 0.809025 0
    outer loop
      vertex -17.5292 21.1891 0
      vertex -14.7352 23.219 -6
      vertex -17.5292 21.1891 -6
    endloop
  endfacet
  facet normal 0.904818 -0.425798 0
    outer loop
      vertex 24.0984 -13.2482 0
      vertex 25.5689 -10.1234 -6
      vertex 25.5689 -10.1234 0
    endloop
  endfacet
  facet normal 0.904818 -0.425798 0
    outer loop
      vertex 25.5689 -10.1234 -6
      vertex 24.0984 -13.2482 0
      vertex 24.0984 -13.2482 -6
    endloop
  endfacet
  facet normal -0.125323 -0.992116 0
    outer loop
      vertex -5.15299 -27.0129 -6
      vertex -1.72674 -27.4457 0
      vertex -5.15299 -27.0129 0
    endloop
  endfacet
  facet normal -0.125323 -0.992116 -0
    outer loop
      vertex -1.72674 -27.4457 0
      vertex -5.15299 -27.0129 -6
      vertex -1.72674 -27.4457 -6
    endloop
  endfacet
  facet normal -0.998028 -0.0627774 0
    outer loop
      vertex -27.2832 -3.44666 -6
      vertex -27.5 0 0
      vertex -27.5 0 -6
    endloop
  endfacet
  facet normal -0.998028 -0.0627774 0
    outer loop
      vertex -27.5 0 0
      vertex -27.2832 -3.44666 -6
      vertex -27.2832 -3.44666 0
    endloop
  endfacet
  facet normal -0.982283 -0.187404 0
    outer loop
      vertex -26.636 -6.83897 -6
      vertex -27.2832 -3.44666 0
      vertex -27.2832 -3.44666 -6
    endloop
  endfacet
  facet normal -0.982283 -0.187404 0
    outer loop
      vertex -27.2832 -3.44666 0
      vertex -26.636 -6.83897 -6
      vertex -26.636 -6.83897 0
    endloop
  endfacet
  facet normal -0.904818 -0.425798 0
    outer loop
      vertex -24.0984 -13.2482 -6
      vertex -25.5689 -10.1234 0
      vertex -25.5689 -10.1234 -6
    endloop
  endfacet
  facet normal -0.904818 -0.425798 0
    outer loop
      vertex -25.5689 -10.1234 0
      vertex -24.0984 -13.2482 -6
      vertex -24.0984 -13.2482 0
    endloop
  endfacet
  facet normal -0.844339 -0.535809 0
    outer loop
      vertex -22.248 -16.1641 -6
      vertex -24.0984 -13.2482 0
      vertex -24.0984 -13.2482 -6
    endloop
  endfacet
  facet normal -0.844339 -0.535809 0
    outer loop
      vertex -24.0984 -13.2482 0
      vertex -22.248 -16.1641 -6
      vertex -22.248 -16.1641 0
    endloop
  endfacet
  facet normal -0.770497 -0.637443 0
    outer loop
      vertex -20.0466 -18.825 -6
      vertex -22.248 -16.1641 0
      vertex -22.248 -16.1641 -6
    endloop
  endfacet
  facet normal -0.770497 -0.637443 0
    outer loop
      vertex -22.248 -16.1641 0
      vertex -20.0466 -18.825 -6
      vertex -20.0466 -18.825 0
    endloop
  endfacet
  facet normal 0.248678 -0.968586 0
    outer loop
      vertex 5.15299 -27.0129 -6
      vertex 8.49797 -26.1541 0
      vertex 5.15299 -27.0129 0
    endloop
  endfacet
  facet normal 0.248678 -0.968586 0
    outer loop
      vertex 8.49797 -26.1541 0
      vertex 5.15299 -27.0129 -6
      vertex 8.49797 -26.1541 -6
    endloop
  endfacet
  facet normal 0.36815 -0.929766 0
    outer loop
      vertex 8.49797 -26.1541 -6
      vertex 11.7089 -24.8827 0
      vertex 8.49797 -26.1541 0
    endloop
  endfacet
  facet normal 0.36815 -0.929766 0
    outer loop
      vertex 11.7089 -24.8827 0
      vertex 8.49797 -26.1541 -6
      vertex 11.7089 -24.8827 -6
    endloop
  endfacet
  facet normal 0.684563 -0.728954 0
    outer loop
      vertex 17.5292 -21.1891 -6
      vertex 20.0466 -18.825 0
      vertex 17.5292 -21.1891 0
    endloop
  endfacet
  facet normal 0.684563 -0.728954 0
    outer loop
      vertex 20.0466 -18.825 0
      vertex 17.5292 -21.1891 -6
      vertex 20.0466 -18.825 -6
    endloop
  endfacet
  facet normal 0.844339 -0.535809 0
    outer loop
      vertex 22.248 -16.1641 0
      vertex 24.0984 -13.2482 -6
      vertex 24.0984 -13.2482 0
    endloop
  endfacet
  facet normal 0.844339 -0.535809 0
    outer loop
      vertex 24.0984 -13.2482 -6
      vertex 22.248 -16.1641 0
      vertex 22.248 -16.1641 -6
    endloop
  endfacet
  facet normal -0.481749 -0.876309 0
    outer loop
      vertex -14.7352 -23.219 -6
      vertex -11.7089 -24.8827 0
      vertex -14.7352 -23.219 0
    endloop
  endfacet
  facet normal -0.481749 -0.876309 -0
    outer loop
      vertex -11.7089 -24.8827 0
      vertex -14.7352 -23.219 -6
      vertex -11.7089 -24.8827 -6
    endloop
  endfacet
  facet normal -0.36815 -0.929766 0
    outer loop
      vertex -11.7089 -24.8827 -6
      vertex -8.49797 -26.1541 0
      vertex -11.7089 -24.8827 0
    endloop
  endfacet
  facet normal -0.36815 -0.929766 -0
    outer loop
      vertex -8.49797 -26.1541 0
      vertex -11.7089 -24.8827 -6
      vertex -8.49797 -26.1541 -6
    endloop
  endfacet
  facet normal -0.248678 -0.968586 0
    outer loop
      vertex -8.49797 -26.1541 -6
      vertex -5.15299 -27.0129 0
      vertex -8.49797 -26.1541 0
    endloop
  endfacet
  facet normal -0.248678 -0.968586 -0
    outer loop
      vertex -5.15299 -27.0129 0
      vertex -8.49797 -26.1541 -6
      vertex -5.15299 -27.0129 -6
    endloop
  endfacet
  facet normal 0.587774 -0.809025 0
    outer loop
      vertex 14.7352 -23.219 -6
      vertex 17.5292 -21.1891 0
      vertex 14.7352 -23.219 0
    endloop
  endfacet
  facet normal 0.587774 -0.809025 0
    outer loop
      vertex 17.5292 -21.1891 0
      vertex 14.7352 -23.219 -6
      vertex 17.5292 -21.1891 -6
    endloop
  endfacet
  facet normal -0.587774 -0.809025 0
    outer loop
      vertex -17.5292 -21.1891 -6
      vertex -14.7352 -23.219 0
      vertex -17.5292 -21.1891 0
    endloop
  endfacet
  facet normal -0.587774 -0.809025 -0
    outer loop
      vertex -14.7352 -23.219 0
      vertex -17.5292 -21.1891 -6
      vertex -14.7352 -23.219 -6
    endloop
  endfacet
endsolid OpenSCAD_Model
