solid OpenSCAD_Model
  facet normal 0.998026 0.0627953 0
    outer loop
      vertex 8.5 0 0
      vertex 8.43297 1.06533 -4
      vertex 8.43297 1.06533 0
    endloop
  endfacet
  facet normal 0.998026 0.0627953 0
    outer loop
      vertex 8.43297 1.06533 -4
      vertex 8.5 0 0
      vertex 8.5 0 -4
    endloop
  endfacet
  facet normal -0.998026 0.0627953 0
    outer loop
      vertex -8.5 0 -4
      vertex -8.43297 1.06533 0
      vertex -8.43297 1.06533 -4
    endloop
  endfacet
  facet normal -0.998026 0.0627953 0
    outer loop
      vertex -8.43297 1.06533 0
      vertex -8.5 0 -4
      vertex -8.5 0 0
    endloop
  endfacet
  facet normal 0 1 -0
    outer loop
      vertex 0.533719 8.48323 -4
      vertex -0.533719 8.48323 0
      vertex 0.533719 8.48323 0
    endloop
  endfacet
  facet normal 0 1 0
    outer loop
      vertex -0.533719 8.48323 0
      vertex 0.533719 8.48323 -4
      vertex -0.533719 8.48323 -4
    endloop
  endfacet
  facet normal 0 -1 0
    outer loop
      vertex -0.533719 -8.48323 -4
      vertex 0.533719 -8.48323 0
      vertex -0.533719 -8.48323 0
    endloop
  endfacet
  facet normal 0 -1 -0
    outer loop
      vertex 0.533719 -8.48323 0
      vertex -0.533719 -8.48323 -4
      vertex 0.533719 -8.48323 -4
    endloop
  endfacet
  facet normal 0.684546 0.72897 -0
    outer loop
      vertex 6.19623 5.81865 -4
      vertex 5.4181 6.54936 0
      vertex 6.19623 5.81865 0
    endloop
  endfacet
  facet normal 0.684546 0.72897 0
    outer loop
      vertex 5.4181 6.54936 0
      vertex 6.19623 5.81865 -4
      vertex 5.4181 6.54936 -4
    endloop
  endfacet
  facet normal -0.684546 0.72897 0
    outer loop
      vertex -5.4181 6.54936 -4
      vertex -6.19623 5.81865 0
      vertex -5.4181 6.54936 0
    endloop
  endfacet
  facet normal -0.684546 0.72897 0
    outer loop
      vertex -6.19623 5.81865 0
      vertex -5.4181 6.54936 -4
      vertex -6.19623 5.81865 -4
    endloop
  endfacet
  facet normal -0.368124 0.929777 0
    outer loop
      vertex -2.62664 8.08398 -4
      vertex -3.61912 7.69103 0
      vertex -2.62664 8.08398 0
    endloop
  endfacet
  facet normal -0.368124 0.929777 0
    outer loop
      vertex -3.61912 7.69103 0
      vertex -2.62664 8.08398 -4
      vertex -3.61912 7.69103 -4
    endloop
  endfacet
  facet normal 0.904829 0.425776 0
    outer loop
      vertex 7.9031 3.12906 0
      vertex 7.44861 4.09491 -4
      vertex 7.44861 4.09491 0
    endloop
  endfacet
  facet normal 0.904829 0.425776 0
    outer loop
      vertex 7.44861 4.09491 -4
      vertex 7.9031 3.12906 0
      vertex 7.9031 3.12906 -4
    endloop
  endfacet
  facet normal 0.368124 0.929777 -0
    outer loop
      vertex 3.61912 7.69103 -4
      vertex 2.62664 8.08398 0
      vertex 3.61912 7.69103 0
    endloop
  endfacet
  facet normal 0.368124 0.929777 0
    outer loop
      vertex 2.62664 8.08398 0
      vertex 3.61912 7.69103 -4
      vertex 2.62664 8.08398 -4
    endloop
  endfacet
  facet normal 0.24869 0.968583 -0
    outer loop
      vertex 2.62664 8.08398 -4
      vertex 1.59274 8.34944 0
      vertex 2.62664 8.08398 0
    endloop
  endfacet
  facet normal 0.24869 0.968583 0
    outer loop
      vertex 1.59274 8.34944 0
      vertex 2.62664 8.08398 -4
      vertex 1.59274 8.34944 -4
    endloop
  endfacet
  facet normal 0.481749 0.876309 -0
    outer loop
      vertex 4.55453 7.17679 -4
      vertex 3.61912 7.69103 0
      vertex 4.55453 7.17679 0
    endloop
  endfacet
  facet normal 0.481749 0.876309 0
    outer loop
      vertex 3.61912 7.69103 0
      vertex 4.55453 7.17679 -4
      vertex 3.61912 7.69103 -4
    endloop
  endfacet
  facet normal -0.904829 0.425776 0
    outer loop
      vertex -7.9031 3.12906 -4
      vertex -7.44861 4.09491 0
      vertex -7.44861 4.09491 -4
    endloop
  endfacet
  facet normal -0.904829 0.425776 0
    outer loop
      vertex -7.44861 4.09491 0
      vertex -7.9031 3.12906 -4
      vertex -7.9031 3.12906 0
    endloop
  endfacet
  facet normal 0 0 1
    outer loop
      vertex 7.6 0 0
      vertex 8.5 0 0
      vertex 8.43297 1.06533 0
    endloop
  endfacet
  facet normal 0 0 1
    outer loop
      vertex 7.54007 0.952532 0
      vertex 8.43297 1.06533 0
      vertex 8.23296 2.11386 0
    endloop
  endfacet
  facet normal 0 0 1
    outer loop
      vertex 8.5 0 0
      vertex 7.6 0 0
      vertex 8.43297 -1.06533 0
    endloop
  endfacet
  facet normal 0 0 1
    outer loop
      vertex 7.36123 1.89004 0
      vertex 8.23296 2.11386 0
      vertex 7.9031 3.12906 0
    endloop
  endfacet
  facet normal -0 0 1
    outer loop
      vertex 7.54007 -0.952532 0
      vertex 8.43297 -1.06533 0
      vertex 7.6 0 0
    endloop
  endfacet
  facet normal 0 0 1
    outer loop
      vertex 8.43297 -1.06533 0
      vertex 7.54007 -0.952532 0
      vertex 8.23296 -2.11386 0
    endloop
  endfacet
  facet normal 0 0 1
    outer loop
      vertex 8.43297 1.06533 0
      vertex 7.54007 0.952532 0
      vertex 7.6 0 0
    endloop
  endfacet
  facet normal 0 0 1
    outer loop
      vertex 7.0663 2.79775 0
      vertex 7.9031 3.12906 0
      vertex 7.44861 4.09491 0
    endloop
  endfacet
  facet normal 0 0 1
    outer loop
      vertex 8.23296 2.11386 0
      vertex 7.36123 1.89004 0
      vertex 7.54007 0.952532 0
    endloop
  endfacet
  facet normal 0 0 1
    outer loop
      vertex 7.9031 3.12906 0
      vertex 7.0663 2.79775 0
      vertex 7.36123 1.89004 0
    endloop
  endfacet
  facet normal 0 0 1
    outer loop
      vertex 6.65993 3.66133 0
      vertex 7.44861 4.09491 0
      vertex 6.87664 4.99617 0
    endloop
  endfacet
  facet normal 0 0 1
    outer loop
      vertex 7.44861 4.09491 0
      vertex 6.65993 3.66133 0
      vertex 7.0663 2.79775 0
    endloop
  endfacet
  facet normal 0 0 1
    outer loop
      vertex 6.14853 4.46717 0
      vertex 6.87664 4.99617 0
      vertex 6.19623 5.81865 0
    endloop
  endfacet
  facet normal 0 0 1
    outer loop
      vertex 6.87664 4.99617 0
      vertex 6.14853 4.46717 0
      vertex 6.65993 3.66133 0
    endloop
  endfacet
  facet normal 0 0 1
    outer loop
      vertex 6.19623 5.81865 0
      vertex 5.54016 5.20256 0
      vertex 6.14853 4.46717 0
    endloop
  endfacet
  facet normal 0 0 1
    outer loop
      vertex 5.4181 6.54936 0
      vertex 5.54016 5.20256 0
      vertex 6.19623 5.81865 0
    endloop
  endfacet
  facet normal 0 0 1
    outer loop
      vertex 5.4181 6.54936 0
      vertex 4.84442 5.8559 0
      vertex 5.54016 5.20256 0
    endloop
  endfacet
  facet normal 0 0 1
    outer loop
      vertex 4.55453 7.17679 0
      vertex 4.84442 5.8559 0
      vertex 5.4181 6.54936 0
    endloop
  endfacet
  facet normal 0 0 1
    outer loop
      vertex 4.55453 7.17679 0
      vertex 4.07228 6.41689 0
      vertex 4.84442 5.8559 0
    endloop
  endfacet
  facet normal 0 0 1
    outer loop
      vertex 3.61912 7.69103 0
      vertex 4.07228 6.41689 0
      vertex 4.55453 7.17679 0
    endloop
  endfacet
  facet normal 0 0 1
    outer loop
      vertex 3.61912 7.69103 0
      vertex 3.23592 6.87669 0
      vertex 4.07228 6.41689 0
    endloop
  endfacet
  facet normal 0 0 1
    outer loop
      vertex 2.62664 8.08398 0
      vertex 3.23592 6.87669 0
      vertex 3.61912 7.69103 0
    endloop
  endfacet
  facet normal 0 0 1
    outer loop
      vertex 2.62664 8.08398 0
      vertex 2.34853 7.22803 0
      vertex 3.23592 6.87669 0
    endloop
  endfacet
  facet normal 0 0 1
    outer loop
      vertex 1.59274 8.34944 0
      vertex 2.34853 7.22803 0
      vertex 2.62664 8.08398 0
    endloop
  endfacet
  facet normal 0 0 1
    outer loop
      vertex 1.59274 8.34944 0
      vertex 1.4241 7.46538 0
      vertex 2.34853 7.22803 0
    endloop
  endfacet
  facet normal 0 0 1
    outer loop
      vertex 0.533719 8.48323 0
      vertex 1.4241 7.46538 0
      vertex 1.59274 8.34944 0
    endloop
  endfacet
  facet normal 0 0 1
    outer loop
      vertex 0.533719 8.48323 0
      vertex 0.477207 7.585 0
      vertex 1.4241 7.46538 0
    endloop
  endfacet
  facet normal 0 0 1
    outer loop
      vertex 0.533719 8.48323 0
      vertex -0.477207 7.585 0
      vertex 0.477207 7.585 0
    endloop
  endfacet
  facet normal -0 0 1
    outer loop
      vertex -0.533719 8.48323 0
      vertex -0.477207 7.585 0
      vertex 0.533719 8.48323 0
    endloop
  endfacet
  facet normal 0 0 1
    outer loop
      vertex -0.533719 8.48323 0
      vertex -1.4241 7.46538 0
      vertex -0.477207 7.585 0
    endloop
  endfacet
  facet normal -0 0 1
    outer loop
      vertex -1.59274 8.34944 0
      vertex -1.4241 7.46538 0
      vertex -0.533719 8.48323 0
    endloop
  endfacet
  facet normal 0 0 1
    outer loop
      vertex -1.59274 8.34944 0
      vertex -2.34853 7.22803 0
      vertex -1.4241 7.46538 0
    endloop
  endfacet
  facet normal -0 0 1
    outer loop
      vertex -2.62664 8.08398 0
      vertex -2.34853 7.22803 0
      vertex -1.59274 8.34944 0
    endloop
  endfacet
  facet normal 0 0 1
    outer loop
      vertex -2.62664 8.08398 0
      vertex -3.23592 6.87669 0
      vertex -2.34853 7.22803 0
    endloop
  endfacet
  facet normal -0 0 1
    outer loop
      vertex -3.61912 7.69103 0
      vertex -3.23592 6.87669 0
      vertex -2.62664 8.08398 0
    endloop
  endfacet
  facet normal 0 0 1
    outer loop
      vertex -3.61912 7.69103 0
      vertex -4.07228 6.41689 0
      vertex -3.23592 6.87669 0
    endloop
  endfacet
  facet normal -0 0 1
    outer loop
      vertex -4.55453 7.17679 0
      vertex -4.07228 6.41689 0
      vertex -3.61912 7.69103 0
    endloop
  endfacet
  facet normal 0 0 1
    outer loop
      vertex -4.55453 7.17679 0
      vertex -4.84442 5.8559 0
      vertex -4.07228 6.41689 0
    endloop
  endfacet
  facet normal -0 0 1
    outer loop
      vertex -5.4181 6.54936 0
      vertex -4.84442 5.8559 0
      vertex -4.55453 7.17679 0
    endloop
  endfacet
  facet normal 0 0 1
    outer loop
      vertex -5.4181 6.54936 0
      vertex -5.54016 5.20256 0
      vertex -4.84442 5.8559 0
    endloop
  endfacet
  facet normal -0 0 1
    outer loop
      vertex -6.19623 5.81865 0
      vertex -5.54016 5.20256 0
      vertex -5.4181 6.54936 0
    endloop
  endfacet
  facet normal 0 0 1
    outer loop
      vertex -5.54016 5.20256 0
      vertex -6.19623 5.81865 0
      vertex -6.14853 4.46717 0
    endloop
  endfacet
  facet normal -0 0 1
    outer loop
      vertex -6.87664 4.99617 0
      vertex -6.14853 4.46717 0
      vertex -6.19623 5.81865 0
    endloop
  endfacet
  facet normal 0 0 1
    outer loop
      vertex -6.14853 4.46717 0
      vertex -6.87664 4.99617 0
      vertex -6.65993 3.66133 0
    endloop
  endfacet
  facet normal -0 0 1
    outer loop
      vertex -7.44861 4.09491 0
      vertex -6.65993 3.66133 0
      vertex -6.87664 4.99617 0
    endloop
  endfacet
  facet normal 0 0 1
    outer loop
      vertex -6.65993 3.66133 0
      vertex -7.44861 4.09491 0
      vertex -7.0663 2.79775 0
    endloop
  endfacet
  facet normal -0 0 1
    outer loop
      vertex -7.9031 3.12906 0
      vertex -7.0663 2.79775 0
      vertex -7.44861 4.09491 0
    endloop
  endfacet
  facet normal 0 0 1
    outer loop
      vertex -7.0663 2.79775 0
      vertex -7.9031 3.12906 0
      vertex -7.36123 1.89004 0
    endloop
  endfacet
  facet normal -0 0 1
    outer loop
      vertex -8.23296 2.11386 0
      vertex -7.36123 1.89004 0
      vertex -7.9031 3.12906 0
    endloop
  endfacet
  facet normal 0 0 1
    outer loop
      vertex -7.36123 1.89004 0
      vertex -8.23296 2.11386 0
      vertex -7.54007 0.952532 0
    endloop
  endfacet
  facet normal -0 0 1
    outer loop
      vertex 7.36123 -1.89004 0
      vertex 8.23296 -2.11386 0
      vertex 7.54007 -0.952532 0
    endloop
  endfacet
  facet normal 0 0 1
    outer loop
      vertex 8.23296 -2.11386 0
      vertex 7.36123 -1.89004 0
      vertex 7.9031 -3.12906 0
    endloop
  endfacet
  facet normal -0 0 1
    outer loop
      vertex 7.0663 -2.79775 0
      vertex 7.9031 -3.12906 0
      vertex 7.36123 -1.89004 0
    endloop
  endfacet
  facet normal 0 0 1
    outer loop
      vertex 7.9031 -3.12906 0
      vertex 7.0663 -2.79775 0
      vertex 7.44861 -4.09491 0
    endloop
  endfacet
  facet normal -0 0 1
    outer loop
      vertex 6.65993 -3.66133 0
      vertex 7.44861 -4.09491 0
      vertex 7.0663 -2.79775 0
    endloop
  endfacet
  facet normal 0 0 1
    outer loop
      vertex 7.44861 -4.09491 0
      vertex 6.65993 -3.66133 0
      vertex 6.87664 -4.99617 0
    endloop
  endfacet
  facet normal -0 0 1
    outer loop
      vertex 6.14853 -4.46717 0
      vertex 6.87664 -4.99617 0
      vertex 6.65993 -3.66133 0
    endloop
  endfacet
  facet normal 0 0 1
    outer loop
      vertex 6.87664 -4.99617 0
      vertex 6.14853 -4.46717 0
      vertex 6.19623 -5.81865 0
    endloop
  endfacet
  facet normal -0 0 1
    outer loop
      vertex 5.54016 -5.20256 0
      vertex 6.19623 -5.81865 0
      vertex 6.14853 -4.46717 0
    endloop
  endfacet
  facet normal 0 0 1
    outer loop
      vertex 5.54016 -5.20256 0
      vertex 5.4181 -6.54936 0
      vertex 6.19623 -5.81865 0
    endloop
  endfacet
  facet normal -0 0 1
    outer loop
      vertex 4.84442 -5.8559 0
      vertex 5.4181 -6.54936 0
      vertex 5.54016 -5.20256 0
    endloop
  endfacet
  facet normal 0 0 1
    outer loop
      vertex 4.84442 -5.8559 0
      vertex 4.55453 -7.17679 0
      vertex 5.4181 -6.54936 0
    endloop
  endfacet
  facet normal -0 0 1
    outer loop
      vertex 4.07228 -6.41689 0
      vertex 4.55453 -7.17679 0
      vertex 4.84442 -5.8559 0
    endloop
  endfacet
  facet normal 0 0 1
    outer loop
      vertex 4.07228 -6.41689 0
      vertex 3.61912 -7.69103 0
      vertex 4.55453 -7.17679 0
    endloop
  endfacet
  facet normal -0 0 1
    outer loop
      vertex 3.23592 -6.87669 0
      vertex 3.61912 -7.69103 0
      vertex 4.07228 -6.41689 0
    endloop
  endfacet
  facet normal 0 0 1
    outer loop
      vertex 3.23592 -6.87669 0
      vertex 2.62664 -8.08398 0
      vertex 3.61912 -7.69103 0
    endloop
  endfacet
  facet normal -0 0 1
    outer loop
      vertex 2.34853 -7.22803 0
      vertex 2.62664 -8.08398 0
      vertex 3.23592 -6.87669 0
    endloop
  endfacet
  facet normal 0 0 1
    outer loop
      vertex 2.34853 -7.22803 0
      vertex 1.59274 -8.34944 0
      vertex 2.62664 -8.08398 0
    endloop
  endfacet
  facet normal -0 0 1
    outer loop
      vertex 1.4241 -7.46538 0
      vertex 1.59274 -8.34944 0
      vertex 2.34853 -7.22803 0
    endloop
  endfacet
  facet normal 0 0 1
    outer loop
      vertex 1.4241 -7.46538 0
      vertex 0.533719 -8.48323 0
      vertex 1.59274 -8.34944 0
    endloop
  endfacet
  facet normal -0 0 1
    outer loop
      vertex 0.477207 -7.585 0
      vertex 0.533719 -8.48323 0
      vertex 1.4241 -7.46538 0
    endloop
  endfacet
  facet normal -0 0 1
    outer loop
      vertex -0.477207 -7.585 0
      vertex 0.533719 -8.48323 0
      vertex 0.477207 -7.585 0
    endloop
  endfacet
  facet normal 0 0 1
    outer loop
      vertex -0.477207 -7.585 0
      vertex -0.533719 -8.48323 0
      vertex 0.533719 -8.48323 0
    endloop
  endfacet
  facet normal 0 0 1
    outer loop
      vertex -1.4241 -7.46538 0
      vertex -0.533719 -8.48323 0
      vertex -0.477207 -7.585 0
    endloop
  endfacet
  facet normal 0 0 1
    outer loop
      vertex -1.4241 -7.46538 0
      vertex -1.59274 -8.34944 0
      vertex -0.533719 -8.48323 0
    endloop
  endfacet
  facet normal 0 0 1
    outer loop
      vertex -2.34853 -7.22803 0
      vertex -1.59274 -8.34944 0
      vertex -1.4241 -7.46538 0
    endloop
  endfacet
  facet normal 0 0 1
    outer loop
      vertex -2.34853 -7.22803 0
      vertex -2.62664 -8.08398 0
      vertex -1.59274 -8.34944 0
    endloop
  endfacet
  facet normal 0 0 1
    outer loop
      vertex -3.23592 -6.87669 0
      vertex -2.62664 -8.08398 0
      vertex -2.34853 -7.22803 0
    endloop
  endfacet
  facet normal 0 0 1
    outer loop
      vertex -3.23592 -6.87669 0
      vertex -3.61912 -7.69103 0
      vertex -2.62664 -8.08398 0
    endloop
  endfacet
  facet normal 0 0 1
    outer loop
      vertex -4.07228 -6.41689 0
      vertex -3.61912 -7.69103 0
      vertex -3.23592 -6.87669 0
    endloop
  endfacet
  facet normal 0 0 1
    outer loop
      vertex -4.07228 -6.41689 0
      vertex -4.55453 -7.17679 0
      vertex -3.61912 -7.69103 0
    endloop
  endfacet
  facet normal 0 0 1
    outer loop
      vertex -4.84442 -5.8559 0
      vertex -4.55453 -7.17679 0
      vertex -4.07228 -6.41689 0
    endloop
  endfacet
  facet normal 0 0 1
    outer loop
      vertex -4.84442 -5.8559 0
      vertex -5.4181 -6.54936 0
      vertex -4.55453 -7.17679 0
    endloop
  endfacet
  facet normal 0 0 1
    outer loop
      vertex -5.54016 -5.20256 0
      vertex -5.4181 -6.54936 0
      vertex -4.84442 -5.8559 0
    endloop
  endfacet
  facet normal 0 0 1
    outer loop
      vertex -6.19623 -5.81865 0
      vertex -5.54016 -5.20256 0
      vertex -6.14853 -4.46717 0
    endloop
  endfacet
  facet normal 0 0 1
    outer loop
      vertex -5.54016 -5.20256 0
      vertex -6.19623 -5.81865 0
      vertex -5.4181 -6.54936 0
    endloop
  endfacet
  facet normal 0 0 1
    outer loop
      vertex -6.87664 -4.99617 0
      vertex -6.14853 -4.46717 0
      vertex -6.65993 -3.66133 0
    endloop
  endfacet
  facet normal 0 0 1
    outer loop
      vertex -6.14853 -4.46717 0
      vertex -6.87664 -4.99617 0
      vertex -6.19623 -5.81865 0
    endloop
  endfacet
  facet normal 0 0 1
    outer loop
      vertex -7.44861 -4.09491 0
      vertex -6.65993 -3.66133 0
      vertex -7.0663 -2.79775 0
    endloop
  endfacet
  facet normal 0 0 1
    outer loop
      vertex -7.9031 -3.12906 0
      vertex -7.0663 -2.79775 0
      vertex -7.36123 -1.89004 0
    endloop
  endfacet
  facet normal 0 0 1
    outer loop
      vertex -6.65993 -3.66133 0
      vertex -7.44861 -4.09491 0
      vertex -6.87664 -4.99617 0
    endloop
  endfacet
  facet normal 0 0 1
    outer loop
      vertex -8.23296 -2.11386 0
      vertex -7.36123 -1.89004 0
      vertex -7.54007 -0.952532 0
    endloop
  endfacet
  facet normal 0 0 1
    outer loop
      vertex -8.43297 -1.06533 0
      vertex -7.54007 -0.952532 0
      vertex -7.6 0 0
    endloop
  endfacet
  facet normal -0 0 1
    outer loop
      vertex -8.43297 1.06533 0
      vertex -7.54007 0.952532 0
      vertex -8.23296 2.11386 0
    endloop
  endfacet
  facet normal 0 0 1
    outer loop
      vertex -7.0663 -2.79775 0
      vertex -7.9031 -3.12906 0
      vertex -7.44861 -4.09491 0
    endloop
  endfacet
  facet normal 0 0 1
    outer loop
      vertex -7.54007 0.952532 0
      vertex -8.43297 1.06533 0
      vertex -7.6 0 0
    endloop
  endfacet
  facet normal 0 0 1
    outer loop
      vertex -7.36123 -1.89004 0
      vertex -8.23296 -2.11386 0
      vertex -7.9031 -3.12906 0
    endloop
  endfacet
  facet normal 0 0 1
    outer loop
      vertex -8.5 0 0
      vertex -7.6 0 0
      vertex -8.43297 1.06533 0
    endloop
  endfacet
  facet normal 0 0 1
    outer loop
      vertex -7.54007 -0.952532 0
      vertex -8.43297 -1.06533 0
      vertex -8.23296 -2.11386 0
    endloop
  endfacet
  facet normal 0 0 1
    outer loop
      vertex -7.6 0 0
      vertex -8.5 0 0
      vertex -8.43297 -1.06533 0
    endloop
  endfacet
  facet normal -0.125337 0.992114 0
    outer loop
      vertex -0.533719 8.48323 -4
      vertex -1.59274 8.34944 0
      vertex -0.533719 8.48323 0
    endloop
  endfacet
  facet normal -0.125337 0.992114 0
    outer loop
      vertex -1.59274 8.34944 0
      vertex -0.533719 8.48323 -4
      vertex -1.59274 8.34944 -4
    endloop
  endfacet
  facet normal 0 0 -1
    outer loop
      vertex 8.43297 -1.06533 -4
      vertex 8.43297 1.06533 -4
      vertex 8.5 0 -4
    endloop
  endfacet
  facet normal 0 0 -1
    outer loop
      vertex 8.23296 -2.11386 -4
      vertex 8.43297 1.06533 -4
      vertex 8.43297 -1.06533 -4
    endloop
  endfacet
  facet normal 0 0 -1
    outer loop
      vertex 8.23296 -2.11386 -4
      vertex 8.23296 2.11386 -4
      vertex 8.43297 1.06533 -4
    endloop
  endfacet
  facet normal 0 0 -1
    outer loop
      vertex 7.9031 -3.12906 -4
      vertex 8.23296 2.11386 -4
      vertex 8.23296 -2.11386 -4
    endloop
  endfacet
  facet normal 0 0 -1
    outer loop
      vertex 7.9031 -3.12906 -4
      vertex 7.9031 3.12906 -4
      vertex 8.23296 2.11386 -4
    endloop
  endfacet
  facet normal 0 0 -1
    outer loop
      vertex 7.44861 -4.09491 -4
      vertex 7.9031 3.12906 -4
      vertex 7.9031 -3.12906 -4
    endloop
  endfacet
  facet normal 0 0 -1
    outer loop
      vertex 7.44861 -4.09491 -4
      vertex 7.44861 4.09491 -4
      vertex 7.9031 3.12906 -4
    endloop
  endfacet
  facet normal 0 0 -1
    outer loop
      vertex 6.87664 -4.99617 -4
      vertex 7.44861 4.09491 -4
      vertex 7.44861 -4.09491 -4
    endloop
  endfacet
  facet normal 0 0 -1
    outer loop
      vertex 6.87664 -4.99617 -4
      vertex 6.87664 4.99617 -4
      vertex 7.44861 4.09491 -4
    endloop
  endfacet
  facet normal 0 0 -1
    outer loop
      vertex 6.19623 -5.81865 -4
      vertex 6.87664 4.99617 -4
      vertex 6.87664 -4.99617 -4
    endloop
  endfacet
  facet normal 0 0 -1
    outer loop
      vertex 6.19623 -5.81865 -4
      vertex 6.19623 5.81865 -4
      vertex 6.87664 4.99617 -4
    endloop
  endfacet
  facet normal 0 0 -1
    outer loop
      vertex 5.4181 -6.54936 -4
      vertex 6.19623 5.81865 -4
      vertex 6.19623 -5.81865 -4
    endloop
  endfacet
  facet normal 0 0 -1
    outer loop
      vertex 5.4181 -6.54936 -4
      vertex 5.4181 6.54936 -4
      vertex 6.19623 5.81865 -4
    endloop
  endfacet
  facet normal 0 0 -1
    outer loop
      vertex 4.55453 -7.17679 -4
      vertex 5.4181 6.54936 -4
      vertex 5.4181 -6.54936 -4
    endloop
  endfacet
  facet normal 0 0 -1
    outer loop
      vertex 4.55453 -7.17679 -4
      vertex 4.55453 7.17679 -4
      vertex 5.4181 6.54936 -4
    endloop
  endfacet
  facet normal 0 0 -1
    outer loop
      vertex 3.61912 -7.69103 -4
      vertex 4.55453 7.17679 -4
      vertex 4.55453 -7.17679 -4
    endloop
  endfacet
  facet normal 0 0 -1
    outer loop
      vertex 3.61912 -7.69103 -4
      vertex 3.61912 7.69103 -4
      vertex 4.55453 7.17679 -4
    endloop
  endfacet
  facet normal 0 0 -1
    outer loop
      vertex 2.62664 -8.08398 -4
      vertex 3.61912 7.69103 -4
      vertex 3.61912 -7.69103 -4
    endloop
  endfacet
  facet normal 0 0 -1
    outer loop
      vertex 2.62664 -8.08398 -4
      vertex 2.62664 8.08398 -4
      vertex 3.61912 7.69103 -4
    endloop
  endfacet
  facet normal 0 0 -1
    outer loop
      vertex 1.59274 -8.34944 -4
      vertex 2.62664 8.08398 -4
      vertex 2.62664 -8.08398 -4
    endloop
  endfacet
  facet normal 0 0 -1
    outer loop
      vertex 1.59274 -8.34944 -4
      vertex 1.59274 8.34944 -4
      vertex 2.62664 8.08398 -4
    endloop
  endfacet
  facet normal 0 0 -1
    outer loop
      vertex 0.533719 -8.48323 -4
      vertex 1.59274 8.34944 -4
      vertex 1.59274 -8.34944 -4
    endloop
  endfacet
  facet normal 0 0 -1
    outer loop
      vertex 0.533719 -8.48323 -4
      vertex 0.533719 8.48323 -4
      vertex 1.59274 8.34944 -4
    endloop
  endfacet
  facet normal 0 0 -1
    outer loop
      vertex -0.533719 -8.48323 -4
      vertex 0.533719 8.48323 -4
      vertex 0.533719 -8.48323 -4
    endloop
  endfacet
  facet normal 0 0 -1
    outer loop
      vertex -0.533719 -8.48323 -4
      vertex -0.533719 8.48323 -4
      vertex 0.533719 8.48323 -4
    endloop
  endfacet
  facet normal 0 0 -1
    outer loop
      vertex -1.59274 -8.34944 -4
      vertex -0.533719 8.48323 -4
      vertex -0.533719 -8.48323 -4
    endloop
  endfacet
  facet normal 0 0 -1
    outer loop
      vertex -1.59274 -8.34944 -4
      vertex -1.59274 8.34944 -4
      vertex -0.533719 8.48323 -4
    endloop
  endfacet
  facet normal 0 0 -1
    outer loop
      vertex -2.62664 -8.08398 -4
      vertex -1.59274 8.34944 -4
      vertex -1.59274 -8.34944 -4
    endloop
  endfacet
  facet normal 0 0 -1
    outer loop
      vertex -2.62664 -8.08398 -4
      vertex -2.62664 8.08398 -4
      vertex -1.59274 8.34944 -4
    endloop
  endfacet
  facet normal 0 0 -1
    outer loop
      vertex -3.61912 -7.69103 -4
      vertex -2.62664 8.08398 -4
      vertex -2.62664 -8.08398 -4
    endloop
  endfacet
  facet normal 0 0 -1
    outer loop
      vertex -3.61912 -7.69103 -4
      vertex -3.61912 7.69103 -4
      vertex -2.62664 8.08398 -4
    endloop
  endfacet
  facet normal 0 0 -1
    outer loop
      vertex -4.55453 -7.17679 -4
      vertex -3.61912 7.69103 -4
      vertex -3.61912 -7.69103 -4
    endloop
  endfacet
  facet normal 0 0 -1
    outer loop
      vertex -4.55453 -7.17679 -4
      vertex -4.55453 7.17679 -4
      vertex -3.61912 7.69103 -4
    endloop
  endfacet
  facet normal 0 0 -1
    outer loop
      vertex -5.4181 -6.54936 -4
      vertex -4.55453 7.17679 -4
      vertex -4.55453 -7.17679 -4
    endloop
  endfacet
  facet normal 0 0 -1
    outer loop
      vertex -5.4181 -6.54936 -4
      vertex -5.4181 6.54936 -4
      vertex -4.55453 7.17679 -4
    endloop
  endfacet
  facet normal 0 0 -1
    outer loop
      vertex -6.19623 -5.81865 -4
      vertex -5.4181 6.54936 -4
      vertex -5.4181 -6.54936 -4
    endloop
  endfacet
  facet normal 0 0 -1
    outer loop
      vertex -6.19623 -5.81865 -4
      vertex -6.19623 5.81865 -4
      vertex -5.4181 6.54936 -4
    endloop
  endfacet
  facet normal 0 0 -1
    outer loop
      vertex -6.87664 -4.99617 -4
      vertex -6.19623 5.81865 -4
      vertex -6.19623 -5.81865 -4
    endloop
  endfacet
  facet normal 0 0 -1
    outer loop
      vertex -6.87664 -4.99617 -4
      vertex -6.87664 4.99617 -4
      vertex -6.19623 5.81865 -4
    endloop
  endfacet
  facet normal 0 0 -1
    outer loop
      vertex -7.44861 -4.09491 -4
      vertex -6.87664 4.99617 -4
      vertex -6.87664 -4.99617 -4
    endloop
  endfacet
  facet normal 0 0 -1
    outer loop
      vertex -7.44861 -4.09491 -4
      vertex -7.44861 4.09491 -4
      vertex -6.87664 4.99617 -4
    endloop
  endfacet
  facet normal 0 0 -1
    outer loop
      vertex -7.9031 -3.12906 -4
      vertex -7.44861 4.09491 -4
      vertex -7.44861 -4.09491 -4
    endloop
  endfacet
  facet normal 0 0 -1
    outer loop
      vertex -7.9031 -3.12906 -4
      vertex -7.9031 3.12906 -4
      vertex -7.44861 4.09491 -4
    endloop
  endfacet
  facet normal 0 0 -1
    outer loop
      vertex -8.23296 -2.11386 -4
      vertex -7.9031 3.12906 -4
      vertex -7.9031 -3.12906 -4
    endloop
  endfacet
  facet normal 0 0 -1
    outer loop
      vertex -8.23296 -2.11386 -4
      vertex -8.23296 2.11386 -4
      vertex -7.9031 3.12906 -4
    endloop
  endfacet
  facet normal 0 0 -1
    outer loop
      vertex -8.43297 -1.06533 -4
      vertex -8.23296 2.11386 -4
      vertex -8.23296 -2.11386 -4
    endloop
  endfacet
  facet normal 0 0 -1
    outer loop
      vertex -8.43297 -1.06533 -4
      vertex -8.43297 1.06533 -4
      vertex -8.23296 2.11386 -4
    endloop
  endfacet
  facet normal 0 -0 -1
    outer loop
      vertex -8.43297 1.06533 -4
      vertex -8.43297 -1.06533 -4
      vertex -8.5 0 -4
    endloop
  endfacet
  facet normal 0.125337 -0.992114 0
    outer loop
      vertex 0.533719 -8.48323 -4
      vertex 1.59274 -8.34944 0
      vertex 0.533719 -8.48323 0
    endloop
  endfacet
  facet normal 0.125337 -0.992114 0
    outer loop
      vertex 1.59274 -8.34944 0
      vertex 0.533719 -8.48323 -4
      vertex 1.59274 -8.34944 -4
    endloop
  endfacet
  facet normal 0.951056 0.309018 0
    outer loop
      vertex 8.23296 2.11386 0
      vertex 7.9031 3.12906 -4
      vertex 7.9031 3.12906 0
    endloop
  endfacet
  facet normal 0.951056 0.309018 0
    outer loop
      vertex 7.9031 3.12906 -4
      vertex 8.23296 2.11386 0
      vertex 8.23296 2.11386 -4
    endloop
  endfacet
  facet normal 0.982289 0.187374 0
    outer loop
      vertex 8.43297 1.06533 0
      vertex 8.23296 2.11386 -4
      vertex 8.23296 2.11386 0
    endloop
  endfacet
  facet normal 0.982289 0.187374 0
    outer loop
      vertex 8.23296 2.11386 -4
      vertex 8.43297 1.06533 0
      vertex 8.43297 1.06533 -4
    endloop
  endfacet
  facet normal 0.770515 0.637421 0
    outer loop
      vertex 6.87664 4.99617 0
      vertex 6.19623 5.81865 -4
      vertex 6.19623 5.81865 0
    endloop
  endfacet
  facet normal 0.770515 0.637421 0
    outer loop
      vertex 6.19623 5.81865 -4
      vertex 6.87664 4.99617 0
      vertex 6.87664 4.99617 -4
    endloop
  endfacet
  facet normal 0.844322 0.535835 0
    outer loop
      vertex 7.44861 4.09491 0
      vertex 6.87664 4.99617 -4
      vertex 6.87664 4.99617 0
    endloop
  endfacet
  facet normal 0.844322 0.535835 0
    outer loop
      vertex 6.87664 4.99617 -4
      vertex 7.44861 4.09491 0
      vertex 7.44861 4.09491 -4
    endloop
  endfacet
  facet normal 0.125337 0.992114 -0
    outer loop
      vertex 1.59274 8.34944 -4
      vertex 0.533719 8.48323 0
      vertex 1.59274 8.34944 0
    endloop
  endfacet
  facet normal 0.125337 0.992114 0
    outer loop
      vertex 0.533719 8.48323 0
      vertex 1.59274 8.34944 -4
      vertex 0.533719 8.48323 -4
    endloop
  endfacet
  facet normal 0.587791 0.809013 -0
    outer loop
      vertex 5.4181 6.54936 -4
      vertex 4.55453 7.17679 0
      vertex 5.4181 6.54936 0
    endloop
  endfacet
  facet normal 0.587791 0.809013 0
    outer loop
      vertex 4.55453 7.17679 0
      vertex 5.4181 6.54936 -4
      vertex 4.55453 7.17679 -4
    endloop
  endfacet
  facet normal -0.844322 0.535835 0
    outer loop
      vertex -7.44861 4.09491 -4
      vertex -6.87664 4.99617 0
      vertex -6.87664 4.99617 -4
    endloop
  endfacet
  facet normal -0.844322 0.535835 0
    outer loop
      vertex -6.87664 4.99617 0
      vertex -7.44861 4.09491 -4
      vertex -7.44861 4.09491 0
    endloop
  endfacet
  facet normal -0.770515 0.637421 0
    outer loop
      vertex -6.87664 4.99617 -4
      vertex -6.19623 5.81865 0
      vertex -6.19623 5.81865 -4
    endloop
  endfacet
  facet normal -0.770515 0.637421 0
    outer loop
      vertex -6.19623 5.81865 0
      vertex -6.87664 4.99617 -4
      vertex -6.87664 4.99617 0
    endloop
  endfacet
  facet normal -0.951056 0.309018 0
    outer loop
      vertex -8.23296 2.11386 -4
      vertex -7.9031 3.12906 0
      vertex -7.9031 3.12906 -4
    endloop
  endfacet
  facet normal -0.951056 0.309018 0
    outer loop
      vertex -7.9031 3.12906 0
      vertex -8.23296 2.11386 -4
      vertex -8.23296 2.11386 0
    endloop
  endfacet
  facet normal -0.982289 0.187374 0
    outer loop
      vertex -8.43297 1.06533 -4
      vertex -8.23296 2.11386 0
      vertex -8.23296 2.11386 -4
    endloop
  endfacet
  facet normal -0.982289 0.187374 0
    outer loop
      vertex -8.23296 2.11386 0
      vertex -8.43297 1.06533 -4
      vertex -8.43297 1.06533 0
    endloop
  endfacet
  facet normal -0.481749 0.876309 0
    outer loop
      vertex -3.61912 7.69103 -4
      vertex -4.55453 7.17679 0
      vertex -3.61912 7.69103 0
    endloop
  endfacet
  facet normal -0.481749 0.876309 0
    outer loop
      vertex -4.55453 7.17679 0
      vertex -3.61912 7.69103 -4
      vertex -4.55453 7.17679 -4
    endloop
  endfacet
  facet normal -0.587791 0.809013 0
    outer loop
      vertex -4.55453 7.17679 -4
      vertex -5.4181 6.54936 0
      vertex -4.55453 7.17679 0
    endloop
  endfacet
  facet normal -0.587791 0.809013 0
    outer loop
      vertex -5.4181 6.54936 0
      vertex -4.55453 7.17679 -4
      vertex -5.4181 6.54936 -4
    endloop
  endfacet
  facet normal -0.24869 0.968583 0
    outer loop
      vertex -1.59274 8.34944 -4
      vertex -2.62664 8.08398 0
      vertex -1.59274 8.34944 0
    endloop
  endfacet
  facet normal -0.24869 0.968583 0
    outer loop
      vertex -2.62664 8.08398 0
      vertex -1.59274 8.34944 -4
      vertex -2.62664 8.08398 -4
    endloop
  endfacet
  facet normal 0.998026 -0.0627953 0
    outer loop
      vertex 8.43297 -1.06533 0
      vertex 8.5 0 -4
      vertex 8.5 0 0
    endloop
  endfacet
  facet normal 0.998026 -0.0627953 0
    outer loop
      vertex 8.5 0 -4
      vertex 8.43297 -1.06533 0
      vertex 8.43297 -1.06533 -4
    endloop
  endfacet
  facet normal 0.904829 -0.425776 0
    outer loop
      vertex 7.44861 -4.09491 0
      vertex 7.9031 -3.12906 -4
      vertex 7.9031 -3.12906 0
    endloop
  endfacet
  facet normal 0.904829 -0.425776 0
    outer loop
      vertex 7.9031 -3.12906 -4
      vertex 7.44861 -4.09491 0
      vertex 7.44861 -4.09491 -4
    endloop
  endfacet
  facet normal -0.684546 -0.72897 0
    outer loop
      vertex -6.19623 -5.81865 -4
      vertex -5.4181 -6.54936 0
      vertex -6.19623 -5.81865 0
    endloop
  endfacet
  facet normal -0.684546 -0.72897 -0
    outer loop
      vertex -5.4181 -6.54936 0
      vertex -6.19623 -5.81865 -4
      vertex -5.4181 -6.54936 -4
    endloop
  endfacet
  facet normal -0.904829 -0.425776 0
    outer loop
      vertex -7.44861 -4.09491 -4
      vertex -7.9031 -3.12906 0
      vertex -7.9031 -3.12906 -4
    endloop
  endfacet
  facet normal -0.904829 -0.425776 0
    outer loop
      vertex -7.9031 -3.12906 0
      vertex -7.44861 -4.09491 -4
      vertex -7.44861 -4.09491 0
    endloop
  endfacet
  facet normal -0.844322 -0.535835 0
    outer loop
      vertex -6.87664 -4.99617 -4
      vertex -7.44861 -4.09491 0
      vertex -7.44861 -4.09491 -4
    endloop
  endfacet
  facet normal -0.844322 -0.535835 0
    outer loop
      vertex -7.44861 -4.09491 0
      vertex -6.87664 -4.99617 -4
      vertex -6.87664 -4.99617 0
    endloop
  endfacet
  facet normal 0.481749 -0.876309 0
    outer loop
      vertex 3.61912 -7.69103 -4
      vertex 4.55453 -7.17679 0
      vertex 3.61912 -7.69103 0
    endloop
  endfacet
  facet normal 0.481749 -0.876309 0
    outer loop
      vertex 4.55453 -7.17679 0
      vertex 3.61912 -7.69103 -4
      vertex 4.55453 -7.17679 -4
    endloop
  endfacet
  facet normal 0.951056 -0.309018 0
    outer loop
      vertex 7.9031 -3.12906 0
      vertex 8.23296 -2.11386 -4
      vertex 8.23296 -2.11386 0
    endloop
  endfacet
  facet normal 0.951056 -0.309018 0
    outer loop
      vertex 8.23296 -2.11386 -4
      vertex 7.9031 -3.12906 0
      vertex 7.9031 -3.12906 -4
    endloop
  endfacet
  facet normal -0.770515 -0.637421 0
    outer loop
      vertex -6.19623 -5.81865 -4
      vertex -6.87664 -4.99617 0
      vertex -6.87664 -4.99617 -4
    endloop
  endfacet
  facet normal -0.770515 -0.637421 0
    outer loop
      vertex -6.87664 -4.99617 0
      vertex -6.19623 -5.81865 -4
      vertex -6.19623 -5.81865 0
    endloop
  endfacet
  facet normal -0.982289 -0.187374 0
    outer loop
      vertex -8.23296 -2.11386 -4
      vertex -8.43297 -1.06533 0
      vertex -8.43297 -1.06533 -4
    endloop
  endfacet
  facet normal -0.982289 -0.187374 0
    outer loop
      vertex -8.43297 -1.06533 0
      vertex -8.23296 -2.11386 -4
      vertex -8.23296 -2.11386 0
    endloop
  endfacet
  facet normal -0.998026 -0.0627953 0
    outer loop
      vertex -8.43297 -1.06533 -4
      vertex -8.5 0 0
      vertex -8.5 0 -4
    endloop
  endfacet
  facet normal -0.998026 -0.0627953 0
    outer loop
      vertex -8.5 0 0
      vertex -8.43297 -1.06533 -4
      vertex -8.43297 -1.06533 0
    endloop
  endfacet
  facet normal -0.951056 -0.309018 0
    outer loop
      vertex -7.9031 -3.12906 -4
      vertex -8.23296 -2.11386 0
      vertex -8.23296 -2.11386 -4
    endloop
  endfacet
  facet normal -0.951056 -0.309018 0
    outer loop
      vertex -8.23296 -2.11386 0
      vertex -7.9031 -3.12906 -4
      vertex -7.9031 -3.12906 0
    endloop
  endfacet
  facet normal 0.684546 -0.72897 0
    outer loop
      vertex 5.4181 -6.54936 -4
      vertex 6.19623 -5.81865 0
      vertex 5.4181 -6.54936 0
    endloop
  endfacet
  facet normal 0.684546 -0.72897 0
    outer loop
      vertex 6.19623 -5.81865 0
      vertex 5.4181 -6.54936 -4
      vertex 6.19623 -5.81865 -4
    endloop
  endfacet
  facet normal 0.368124 -0.929777 0
    outer loop
      vertex 2.62664 -8.08398 -4
      vertex 3.61912 -7.69103 0
      vertex 2.62664 -8.08398 0
    endloop
  endfacet
  facet normal 0.368124 -0.929777 0
    outer loop
      vertex 3.61912 -7.69103 0
      vertex 2.62664 -8.08398 -4
      vertex 3.61912 -7.69103 -4
    endloop
  endfacet
  facet normal 0.24869 -0.968583 0
    outer loop
      vertex 1.59274 -8.34944 -4
      vertex 2.62664 -8.08398 0
      vertex 1.59274 -8.34944 0
    endloop
  endfacet
  facet normal 0.24869 -0.968583 0
    outer loop
      vertex 2.62664 -8.08398 0
      vertex 1.59274 -8.34944 -4
      vertex 2.62664 -8.08398 -4
    endloop
  endfacet
  facet normal 0.982289 -0.187374 0
    outer loop
      vertex 8.23296 -2.11386 0
      vertex 8.43297 -1.06533 -4
      vertex 8.43297 -1.06533 0
    endloop
  endfacet
  facet normal 0.982289 -0.187374 0
    outer loop
      vertex 8.43297 -1.06533 -4
      vertex 8.23296 -2.11386 0
      vertex 8.23296 -2.11386 -4
    endloop
  endfacet
  facet normal 0.844322 -0.535835 0
    outer loop
      vertex 6.87664 -4.99617 0
      vertex 7.44861 -4.09491 -4
      vertex 7.44861 -4.09491 0
    endloop
  endfacet
  facet normal 0.844322 -0.535835 0
    outer loop
      vertex 7.44861 -4.09491 -4
      vertex 6.87664 -4.99617 0
      vertex 6.87664 -4.99617 -4
    endloop
  endfacet
  facet normal 0.770515 -0.637421 0
    outer loop
      vertex 6.19623 -5.81865 0
      vertex 6.87664 -4.99617 -4
      vertex 6.87664 -4.99617 0
    endloop
  endfacet
  facet normal 0.770515 -0.637421 0
    outer loop
      vertex 6.87664 -4.99617 -4
      vertex 6.19623 -5.81865 0
      vertex 6.19623 -5.81865 -4
    endloop
  endfacet
  facet normal -0.125337 -0.992114 0
    outer loop
      vertex -1.59274 -8.34944 -4
      vertex -0.533719 -8.48323 0
      vertex -1.59274 -8.34944 0
    endloop
  endfacet
  facet normal -0.125337 -0.992114 -0
    outer loop
      vertex -0.533719 -8.48323 0
      vertex -1.59274 -8.34944 -4
      vertex -0.533719 -8.48323 -4
    endloop
  endfacet
  facet normal -0.587791 -0.809013 0
    outer loop
      vertex -5.4181 -6.54936 -4
      vertex -4.55453 -7.17679 0
      vertex -5.4181 -6.54936 0
    endloop
  endfacet
  facet normal -0.587791 -0.809013 -0
    outer loop
      vertex -4.55453 -7.17679 0
      vertex -5.4181 -6.54936 -4
      vertex -4.55453 -7.17679 -4
    endloop
  endfacet
  facet normal 0.587791 -0.809013 0
    outer loop
      vertex 4.55453 -7.17679 -4
      vertex 5.4181 -6.54936 0
      vertex 4.55453 -7.17679 0
    endloop
  endfacet
  facet normal 0.587791 -0.809013 0
    outer loop
      vertex 5.4181 -6.54936 0
      vertex 4.55453 -7.17679 -4
      vertex 5.4181 -6.54936 -4
    endloop
  endfacet
  facet normal -0.24869 -0.968583 0
    outer loop
      vertex -2.62664 -8.08398 -4
      vertex -1.59274 -8.34944 0
      vertex -2.62664 -8.08398 0
    endloop
  endfacet
  facet normal -0.24869 -0.968583 -0
    outer loop
      vertex -1.59274 -8.34944 0
      vertex -2.62664 -8.08398 -4
      vertex -1.59274 -8.34944 -4
    endloop
  endfacet
  facet normal -0.368124 -0.929777 0
    outer loop
      vertex -3.61912 -7.69103 -4
      vertex -2.62664 -8.08398 0
      vertex -3.61912 -7.69103 0
    endloop
  endfacet
  facet normal -0.368124 -0.929777 -0
    outer loop
      vertex -2.62664 -8.08398 0
      vertex -3.61912 -7.69103 -4
      vertex -2.62664 -8.08398 -4
    endloop
  endfacet
  facet normal -0.481749 -0.876309 0
    outer loop
      vertex -4.55453 -7.17679 -4
      vertex -3.61912 -7.69103 0
      vertex -4.55453 -7.17679 0
    endloop
  endfacet
  facet normal -0.481749 -0.876309 -0
    outer loop
      vertex -3.61912 -7.69103 0
      vertex -4.55453 -7.17679 -4
      vertex -3.61912 -7.69103 -4
    endloop
  endfacet
  facet normal -0.998027 -0.0627924 0
    outer loop
      vertex 7.6 0 -3
      vertex 7.54007 0.952532 0
      vertex 7.54007 0.952532 -3
    endloop
  endfacet
  facet normal -0.998027 -0.0627924 0
    outer loop
      vertex 7.54007 0.952532 0
      vertex 7.6 0 -3
      vertex 7.6 0 0
    endloop
  endfacet
  facet normal 0.998027 -0.0627924 0
    outer loop
      vertex -7.6 0 0
      vertex -7.54007 0.952532 -3
      vertex -7.54007 0.952532 0
    endloop
  endfacet
  facet normal 0.998027 -0.0627924 0
    outer loop
      vertex -7.54007 0.952532 -3
      vertex -7.6 0 0
      vertex -7.6 0 -3
    endloop
  endfacet
  facet normal 0 -1 0
    outer loop
      vertex -0.477207 7.585 -3
      vertex 0.477207 7.585 0
      vertex -0.477207 7.585 0
    endloop
  endfacet
  facet normal 0 -1 -0
    outer loop
      vertex 0.477207 7.585 0
      vertex -0.477207 7.585 -3
      vertex 0.477207 7.585 -3
    endloop
  endfacet
  facet normal 0 1 -0
    outer loop
      vertex 0.477207 -7.585 -3
      vertex -0.477207 -7.585 0
      vertex 0.477207 -7.585 0
    endloop
  endfacet
  facet normal 0 1 0
    outer loop
      vertex -0.477207 -7.585 0
      vertex 0.477207 -7.585 -3
      vertex -0.477207 -7.585 -3
    endloop
  endfacet
  facet normal -0.684545 -0.72897 0
    outer loop
      vertex 4.84442 5.8559 -3
      vertex 5.54016 5.20256 0
      vertex 4.84442 5.8559 0
    endloop
  endfacet
  facet normal -0.684545 -0.72897 -0
    outer loop
      vertex 5.54016 5.20256 0
      vertex 4.84442 5.8559 -3
      vertex 5.54016 5.20256 -3
    endloop
  endfacet
  facet normal 0.684545 -0.72897 0
    outer loop
      vertex -5.54016 5.20256 -3
      vertex -4.84442 5.8559 0
      vertex -5.54016 5.20256 0
    endloop
  endfacet
  facet normal 0.684545 -0.72897 0
    outer loop
      vertex -4.84442 5.8559 0
      vertex -5.54016 5.20256 -3
      vertex -4.84442 5.8559 -3
    endloop
  endfacet
  facet normal 0.368122 -0.929777 0
    outer loop
      vertex -3.23592 6.87669 -3
      vertex -2.34853 7.22803 0
      vertex -3.23592 6.87669 0
    endloop
  endfacet
  facet normal 0.368122 -0.929777 0
    outer loop
      vertex -2.34853 7.22803 0
      vertex -3.23592 6.87669 -3
      vertex -2.34853 7.22803 -3
    endloop
  endfacet
  facet normal -0.951057 0.309014 0
    outer loop
      vertex 7.0663 -2.79775 -3
      vertex 7.36123 -1.89004 0
      vertex 7.36123 -1.89004 -3
    endloop
  endfacet
  facet normal -0.951057 0.309014 0
    outer loop
      vertex 7.36123 -1.89004 0
      vertex 7.0663 -2.79775 -3
      vertex 7.0663 -2.79775 0
    endloop
  endfacet
  facet normal -0.904827 -0.425779 0
    outer loop
      vertex 7.0663 2.79775 -3
      vertex 6.65993 3.66133 0
      vertex 6.65993 3.66133 -3
    endloop
  endfacet
  facet normal -0.904827 -0.425779 0
    outer loop
      vertex 6.65993 3.66133 0
      vertex 7.0663 2.79775 -3
      vertex 7.0663 2.79775 0
    endloop
  endfacet
  facet normal -0.982287 -0.187382 0
    outer loop
      vertex 7.54007 0.952532 -3
      vertex 7.36123 1.89004 0
      vertex 7.36123 1.89004 -3
    endloop
  endfacet
  facet normal -0.982287 -0.187382 0
    outer loop
      vertex 7.36123 1.89004 0
      vertex 7.54007 0.952532 -3
      vertex 7.54007 0.952532 0
    endloop
  endfacet
  facet normal -0.844329 -0.535826 0
    outer loop
      vertex 6.65993 3.66133 -3
      vertex 6.14853 4.46717 0
      vertex 6.14853 4.46717 -3
    endloop
  endfacet
  facet normal -0.844329 -0.535826 0
    outer loop
      vertex 6.14853 4.46717 0
      vertex 6.65993 3.66133 -3
      vertex 6.65993 3.66133 0
    endloop
  endfacet
  facet normal -0.368122 -0.929777 0
    outer loop
      vertex 2.34853 7.22803 -3
      vertex 3.23592 6.87669 0
      vertex 2.34853 7.22803 0
    endloop
  endfacet
  facet normal -0.368122 -0.929777 -0
    outer loop
      vertex 3.23592 6.87669 0
      vertex 2.34853 7.22803 -3
      vertex 3.23592 6.87669 -3
    endloop
  endfacet
  facet normal -0.587784 -0.809018 0
    outer loop
      vertex 4.07228 6.41689 -3
      vertex 4.84442 5.8559 0
      vertex 4.07228 6.41689 0
    endloop
  endfacet
  facet normal -0.587784 -0.809018 -0
    outer loop
      vertex 4.84442 5.8559 0
      vertex 4.07228 6.41689 -3
      vertex 4.84442 5.8559 -3
    endloop
  endfacet
  facet normal 0.904827 -0.425779 0
    outer loop
      vertex -7.0663 2.79775 0
      vertex -6.65993 3.66133 -3
      vertex -6.65993 3.66133 0
    endloop
  endfacet
  facet normal 0.904827 -0.425779 0
    outer loop
      vertex -6.65993 3.66133 -3
      vertex -7.0663 2.79775 0
      vertex -7.0663 2.79775 -3
    endloop
  endfacet
  facet normal 0.770512 -0.637426 0
    outer loop
      vertex -6.14853 4.46717 0
      vertex -5.54016 5.20256 -3
      vertex -5.54016 5.20256 0
    endloop
  endfacet
  facet normal 0.770512 -0.637426 0
    outer loop
      vertex -5.54016 5.20256 -3
      vertex -6.14853 4.46717 0
      vertex -6.14853 4.46717 -3
    endloop
  endfacet
  facet normal 0.951057 -0.309014 0
    outer loop
      vertex -7.36123 1.89004 0
      vertex -7.0663 2.79775 -3
      vertex -7.0663 2.79775 0
    endloop
  endfacet
  facet normal 0.951057 -0.309014 0
    outer loop
      vertex -7.0663 2.79775 -3
      vertex -7.36123 1.89004 0
      vertex -7.36123 1.89004 -3
    endloop
  endfacet
  facet normal 0.481759 -0.876303 0
    outer loop
      vertex -4.07228 6.41689 -3
      vertex -3.23592 6.87669 0
      vertex -4.07228 6.41689 0
    endloop
  endfacet
  facet normal 0.481759 -0.876303 0
    outer loop
      vertex -3.23592 6.87669 0
      vertex -4.07228 6.41689 -3
      vertex -3.23592 6.87669 -3
    endloop
  endfacet
  facet normal 0.248687 -0.968584 0
    outer loop
      vertex -2.34853 7.22803 -3
      vertex -1.4241 7.46538 0
      vertex -2.34853 7.22803 0
    endloop
  endfacet
  facet normal 0.248687 -0.968584 0
    outer loop
      vertex -1.4241 7.46538 0
      vertex -2.34853 7.22803 -3
      vertex -1.4241 7.46538 -3
    endloop
  endfacet
  facet normal -0.982287 0.187382 0
    outer loop
      vertex 7.36123 -1.89004 -3
      vertex 7.54007 -0.952532 0
      vertex 7.54007 -0.952532 -3
    endloop
  endfacet
  facet normal -0.982287 0.187382 0
    outer loop
      vertex 7.54007 -0.952532 0
      vertex 7.36123 -1.89004 -3
      vertex 7.36123 -1.89004 0
    endloop
  endfacet
  facet normal -0.368122 0.929777 0
    outer loop
      vertex 3.23592 -6.87669 -3
      vertex 2.34853 -7.22803 0
      vertex 3.23592 -6.87669 0
    endloop
  endfacet
  facet normal -0.368122 0.929777 0
    outer loop
      vertex 2.34853 -7.22803 0
      vertex 3.23592 -6.87669 -3
      vertex 2.34853 -7.22803 -3
    endloop
  endfacet
  facet normal -0.951057 -0.309014 0
    outer loop
      vertex 7.36123 1.89004 -3
      vertex 7.0663 2.79775 0
      vertex 7.0663 2.79775 -3
    endloop
  endfacet
  facet normal -0.951057 -0.309014 0
    outer loop
      vertex 7.0663 2.79775 0
      vertex 7.36123 1.89004 -3
      vertex 7.36123 1.89004 0
    endloop
  endfacet
  facet normal -0.770512 -0.637426 0
    outer loop
      vertex 6.14853 4.46717 -3
      vertex 5.54016 5.20256 0
      vertex 5.54016 5.20256 -3
    endloop
  endfacet
  facet normal -0.770512 -0.637426 0
    outer loop
      vertex 5.54016 5.20256 0
      vertex 6.14853 4.46717 -3
      vertex 6.14853 4.46717 0
    endloop
  endfacet
  facet normal -0.248687 -0.968584 0
    outer loop
      vertex 1.4241 7.46538 -3
      vertex 2.34853 7.22803 0
      vertex 1.4241 7.46538 0
    endloop
  endfacet
  facet normal -0.248687 -0.968584 -0
    outer loop
      vertex 2.34853 7.22803 0
      vertex 1.4241 7.46538 -3
      vertex 2.34853 7.22803 -3
    endloop
  endfacet
  facet normal -0.125333 -0.992115 0
    outer loop
      vertex 0.477207 7.585 -3
      vertex 1.4241 7.46538 0
      vertex 0.477207 7.585 0
    endloop
  endfacet
  facet normal -0.125333 -0.992115 -0
    outer loop
      vertex 1.4241 7.46538 0
      vertex 0.477207 7.585 -3
      vertex 1.4241 7.46538 -3
    endloop
  endfacet
  facet normal -0.481759 -0.876303 0
    outer loop
      vertex 3.23592 6.87669 -3
      vertex 4.07228 6.41689 0
      vertex 3.23592 6.87669 0
    endloop
  endfacet
  facet normal -0.481759 -0.876303 -0
    outer loop
      vertex 4.07228 6.41689 0
      vertex 3.23592 6.87669 -3
      vertex 4.07228 6.41689 -3
    endloop
  endfacet
  facet normal 0.844329 -0.535826 0
    outer loop
      vertex -6.65993 3.66133 0
      vertex -6.14853 4.46717 -3
      vertex -6.14853 4.46717 0
    endloop
  endfacet
  facet normal 0.844329 -0.535826 0
    outer loop
      vertex -6.14853 4.46717 -3
      vertex -6.65993 3.66133 0
      vertex -6.65993 3.66133 -3
    endloop
  endfacet
  facet normal 0.982287 -0.187382 0
    outer loop
      vertex -7.54007 0.952532 0
      vertex -7.36123 1.89004 -3
      vertex -7.36123 1.89004 0
    endloop
  endfacet
  facet normal 0.982287 -0.187382 0
    outer loop
      vertex -7.36123 1.89004 -3
      vertex -7.54007 0.952532 0
      vertex -7.54007 0.952532 -3
    endloop
  endfacet
  facet normal 0.587784 -0.809018 0
    outer loop
      vertex -4.84442 5.8559 -3
      vertex -4.07228 6.41689 0
      vertex -4.84442 5.8559 0
    endloop
  endfacet
  facet normal 0.587784 -0.809018 0
    outer loop
      vertex -4.07228 6.41689 0
      vertex -4.84442 5.8559 -3
      vertex -4.07228 6.41689 -3
    endloop
  endfacet
  facet normal 0.125333 -0.992115 0
    outer loop
      vertex -1.4241 7.46538 -3
      vertex -0.477207 7.585 0
      vertex -1.4241 7.46538 0
    endloop
  endfacet
  facet normal 0.125333 -0.992115 0
    outer loop
      vertex -0.477207 7.585 0
      vertex -1.4241 7.46538 -3
      vertex -0.477207 7.585 -3
    endloop
  endfacet
  facet normal -0.998027 0.0627924 0
    outer loop
      vertex 7.54007 -0.952532 -3
      vertex 7.6 0 0
      vertex 7.6 0 -3
    endloop
  endfacet
  facet normal -0.998027 0.0627924 0
    outer loop
      vertex 7.6 0 0
      vertex 7.54007 -0.952532 -3
      vertex 7.54007 -0.952532 0
    endloop
  endfacet
  facet normal -0.844329 0.535826 0
    outer loop
      vertex 6.14853 -4.46717 -3
      vertex 6.65993 -3.66133 0
      vertex 6.65993 -3.66133 -3
    endloop
  endfacet
  facet normal -0.844329 0.535826 0
    outer loop
      vertex 6.65993 -3.66133 0
      vertex 6.14853 -4.46717 -3
      vertex 6.14853 -4.46717 0
    endloop
  endfacet
  facet normal 0.684545 0.72897 -0
    outer loop
      vertex -4.84442 -5.8559 -3
      vertex -5.54016 -5.20256 0
      vertex -4.84442 -5.8559 0
    endloop
  endfacet
  facet normal 0.684545 0.72897 0
    outer loop
      vertex -5.54016 -5.20256 0
      vertex -4.84442 -5.8559 -3
      vertex -5.54016 -5.20256 -3
    endloop
  endfacet
  facet normal 0.904827 0.425779 0
    outer loop
      vertex -6.65993 -3.66133 0
      vertex -7.0663 -2.79775 -3
      vertex -7.0663 -2.79775 0
    endloop
  endfacet
  facet normal 0.904827 0.425779 0
    outer loop
      vertex -7.0663 -2.79775 -3
      vertex -6.65993 -3.66133 0
      vertex -6.65993 -3.66133 -3
    endloop
  endfacet
  facet normal 0.770512 0.637426 0
    outer loop
      vertex -5.54016 -5.20256 0
      vertex -6.14853 -4.46717 -3
      vertex -6.14853 -4.46717 0
    endloop
  endfacet
  facet normal 0.770512 0.637426 0
    outer loop
      vertex -6.14853 -4.46717 -3
      vertex -5.54016 -5.20256 0
      vertex -5.54016 -5.20256 -3
    endloop
  endfacet
  facet normal 0 0 1
    outer loop
      vertex 7.54007 0.952532 -3
      vertex 7.54007 -0.952532 -3
      vertex 7.6 0 -3
    endloop
  endfacet
  facet normal 0 0 1
    outer loop
      vertex 7.36123 1.89004 -3
      vertex 7.54007 -0.952532 -3
      vertex 7.54007 0.952532 -3
    endloop
  endfacet
  facet normal 0 0 1
    outer loop
      vertex 7.36123 1.89004 -3
      vertex 7.36123 -1.89004 -3
      vertex 7.54007 -0.952532 -3
    endloop
  endfacet
  facet normal 0 0 1
    outer loop
      vertex 7.0663 2.79775 -3
      vertex 7.36123 -1.89004 -3
      vertex 7.36123 1.89004 -3
    endloop
  endfacet
  facet normal 0 0 1
    outer loop
      vertex 7.0663 2.79775 -3
      vertex 7.0663 -2.79775 -3
      vertex 7.36123 -1.89004 -3
    endloop
  endfacet
  facet normal 0 0 1
    outer loop
      vertex 6.65993 3.66133 -3
      vertex 7.0663 -2.79775 -3
      vertex 7.0663 2.79775 -3
    endloop
  endfacet
  facet normal 0 0 1
    outer loop
      vertex 6.65993 3.66133 -3
      vertex 6.65993 -3.66133 -3
      vertex 7.0663 -2.79775 -3
    endloop
  endfacet
  facet normal 0 0 1
    outer loop
      vertex 6.14853 4.46717 -3
      vertex 6.65993 -3.66133 -3
      vertex 6.65993 3.66133 -3
    endloop
  endfacet
  facet normal 0 0 1
    outer loop
      vertex 6.14853 4.46717 -3
      vertex 6.14853 -4.46717 -3
      vertex 6.65993 -3.66133 -3
    endloop
  endfacet
  facet normal 0 0 1
    outer loop
      vertex 5.54016 5.20256 -3
      vertex 6.14853 -4.46717 -3
      vertex 6.14853 4.46717 -3
    endloop
  endfacet
  facet normal 0 0 1
    outer loop
      vertex 5.54016 5.20256 -3
      vertex 5.54016 -5.20256 -3
      vertex 6.14853 -4.46717 -3
    endloop
  endfacet
  facet normal 0 0 1
    outer loop
      vertex 4.84442 5.8559 -3
      vertex 5.54016 -5.20256 -3
      vertex 5.54016 5.20256 -3
    endloop
  endfacet
  facet normal 0 0 1
    outer loop
      vertex 4.84442 5.8559 -3
      vertex 4.84442 -5.8559 -3
      vertex 5.54016 -5.20256 -3
    endloop
  endfacet
  facet normal 0 0 1
    outer loop
      vertex 4.07228 6.41689 -3
      vertex 4.84442 -5.8559 -3
      vertex 4.84442 5.8559 -3
    endloop
  endfacet
  facet normal 0 0 1
    outer loop
      vertex 4.07228 6.41689 -3
      vertex 4.07228 -6.41689 -3
      vertex 4.84442 -5.8559 -3
    endloop
  endfacet
  facet normal 0 0 1
    outer loop
      vertex 3.23592 6.87669 -3
      vertex 4.07228 -6.41689 -3
      vertex 4.07228 6.41689 -3
    endloop
  endfacet
  facet normal 0 0 1
    outer loop
      vertex 3.23592 6.87669 -3
      vertex 3.23592 -6.87669 -3
      vertex 4.07228 -6.41689 -3
    endloop
  endfacet
  facet normal 0 0 1
    outer loop
      vertex 2.34853 7.22803 -3
      vertex 3.23592 -6.87669 -3
      vertex 3.23592 6.87669 -3
    endloop
  endfacet
  facet normal 0 0 1
    outer loop
      vertex 2.34853 7.22803 -3
      vertex 2.34853 -7.22803 -3
      vertex 3.23592 -6.87669 -3
    endloop
  endfacet
  facet normal 0 0 1
    outer loop
      vertex 1.4241 7.46538 -3
      vertex 2.34853 -7.22803 -3
      vertex 2.34853 7.22803 -3
    endloop
  endfacet
  facet normal 0 0 1
    outer loop
      vertex 1.4241 7.46538 -3
      vertex 1.4241 -7.46538 -3
      vertex 2.34853 -7.22803 -3
    endloop
  endfacet
  facet normal 0 0 1
    outer loop
      vertex 0.477207 7.585 -3
      vertex 1.4241 -7.46538 -3
      vertex 1.4241 7.46538 -3
    endloop
  endfacet
  facet normal 0 0 1
    outer loop
      vertex 0.477207 7.585 -3
      vertex 0.477207 -7.585 -3
      vertex 1.4241 -7.46538 -3
    endloop
  endfacet
  facet normal -0 0 1
    outer loop
      vertex -0.477207 7.585 -3
      vertex 0.477207 -7.585 -3
      vertex 0.477207 7.585 -3
    endloop
  endfacet
  facet normal 0 0 1
    outer loop
      vertex -0.477207 7.585 -3
      vertex -0.477207 -7.585 -3
      vertex 0.477207 -7.585 -3
    endloop
  endfacet
  facet normal -0 0 1
    outer loop
      vertex -1.4241 7.46538 -3
      vertex -0.477207 -7.585 -3
      vertex -0.477207 7.585 -3
    endloop
  endfacet
  facet normal 0 0 1
    outer loop
      vertex -1.4241 7.46538 -3
      vertex -1.4241 -7.46538 -3
      vertex -0.477207 -7.585 -3
    endloop
  endfacet
  facet normal -0 0 1
    outer loop
      vertex -2.34853 7.22803 -3
      vertex -1.4241 -7.46538 -3
      vertex -1.4241 7.46538 -3
    endloop
  endfacet
  facet normal 0 0 1
    outer loop
      vertex -2.34853 7.22803 -3
      vertex -2.34853 -7.22803 -3
      vertex -1.4241 -7.46538 -3
    endloop
  endfacet
  facet normal -0 0 1
    outer loop
      vertex -3.23592 6.87669 -3
      vertex -2.34853 -7.22803 -3
      vertex -2.34853 7.22803 -3
    endloop
  endfacet
  facet normal 0 0 1
    outer loop
      vertex -3.23592 6.87669 -3
      vertex -3.23592 -6.87669 -3
      vertex -2.34853 -7.22803 -3
    endloop
  endfacet
  facet normal -0 0 1
    outer loop
      vertex -4.07228 6.41689 -3
      vertex -3.23592 -6.87669 -3
      vertex -3.23592 6.87669 -3
    endloop
  endfacet
  facet normal 0 0 1
    outer loop
      vertex -4.07228 6.41689 -3
      vertex -4.07228 -6.41689 -3
      vertex -3.23592 -6.87669 -3
    endloop
  endfacet
  facet normal -0 0 1
    outer loop
      vertex -4.84442 5.8559 -3
      vertex -4.07228 -6.41689 -3
      vertex -4.07228 6.41689 -3
    endloop
  endfacet
  facet normal 0 0 1
    outer loop
      vertex -4.84442 5.8559 -3
      vertex -4.84442 -5.8559 -3
      vertex -4.07228 -6.41689 -3
    endloop
  endfacet
  facet normal -0 0 1
    outer loop
      vertex -5.54016 5.20256 -3
      vertex -4.84442 -5.8559 -3
      vertex -4.84442 5.8559 -3
    endloop
  endfacet
  facet normal 0 0 1
    outer loop
      vertex -5.54016 5.20256 -3
      vertex -5.54016 -5.20256 -3
      vertex -4.84442 -5.8559 -3
    endloop
  endfacet
  facet normal -0 0 1
    outer loop
      vertex -6.14853 4.46717 -3
      vertex -5.54016 -5.20256 -3
      vertex -5.54016 5.20256 -3
    endloop
  endfacet
  facet normal 0 0 1
    outer loop
      vertex -6.14853 4.46717 -3
      vertex -6.14853 -4.46717 -3
      vertex -5.54016 -5.20256 -3
    endloop
  endfacet
  facet normal -0 0 1
    outer loop
      vertex -6.65993 3.66133 -3
      vertex -6.14853 -4.46717 -3
      vertex -6.14853 4.46717 -3
    endloop
  endfacet
  facet normal 0 0 1
    outer loop
      vertex -6.65993 3.66133 -3
      vertex -6.65993 -3.66133 -3
      vertex -6.14853 -4.46717 -3
    endloop
  endfacet
  facet normal -0 0 1
    outer loop
      vertex -7.0663 2.79775 -3
      vertex -6.65993 -3.66133 -3
      vertex -6.65993 3.66133 -3
    endloop
  endfacet
  facet normal 0 0 1
    outer loop
      vertex -7.0663 2.79775 -3
      vertex -7.0663 -2.79775 -3
      vertex -6.65993 -3.66133 -3
    endloop
  endfacet
  facet normal -0 0 1
    outer loop
      vertex -7.36123 1.89004 -3
      vertex -7.0663 -2.79775 -3
      vertex -7.0663 2.79775 -3
    endloop
  endfacet
  facet normal 0 0 1
    outer loop
      vertex -7.36123 1.89004 -3
      vertex -7.36123 -1.89004 -3
      vertex -7.0663 -2.79775 -3
    endloop
  endfacet
  facet normal -0 0 1
    outer loop
      vertex -7.54007 0.952532 -3
      vertex -7.36123 -1.89004 -3
      vertex -7.36123 1.89004 -3
    endloop
  endfacet
  facet normal 0 0 1
    outer loop
      vertex -7.54007 0.952532 -3
      vertex -7.54007 -0.952532 -3
      vertex -7.36123 -1.89004 -3
    endloop
  endfacet
  facet normal 0 -0 1
    outer loop
      vertex -7.54007 -0.952532 -3
      vertex -7.54007 0.952532 -3
      vertex -7.6 0 -3
    endloop
  endfacet
  facet normal -0.587784 0.809018 0
    outer loop
      vertex 4.84442 -5.8559 -3
      vertex 4.07228 -6.41689 0
      vertex 4.84442 -5.8559 0
    endloop
  endfacet
  facet normal -0.587784 0.809018 0
    outer loop
      vertex 4.07228 -6.41689 0
      vertex 4.84442 -5.8559 -3
      vertex 4.07228 -6.41689 -3
    endloop
  endfacet
  facet normal -0.904827 0.425779 0
    outer loop
      vertex 6.65993 -3.66133 -3
      vertex 7.0663 -2.79775 0
      vertex 7.0663 -2.79775 -3
    endloop
  endfacet
  facet normal -0.904827 0.425779 0
    outer loop
      vertex 7.0663 -2.79775 0
      vertex 6.65993 -3.66133 -3
      vertex 6.65993 -3.66133 0
    endloop
  endfacet
  facet normal 0.951057 0.309014 0
    outer loop
      vertex -7.0663 -2.79775 0
      vertex -7.36123 -1.89004 -3
      vertex -7.36123 -1.89004 0
    endloop
  endfacet
  facet normal 0.951057 0.309014 0
    outer loop
      vertex -7.36123 -1.89004 -3
      vertex -7.0663 -2.79775 0
      vertex -7.0663 -2.79775 -3
    endloop
  endfacet
  facet normal -0.770512 0.637426 0
    outer loop
      vertex 5.54016 -5.20256 -3
      vertex 6.14853 -4.46717 0
      vertex 6.14853 -4.46717 -3
    endloop
  endfacet
  facet normal -0.770512 0.637426 0
    outer loop
      vertex 6.14853 -4.46717 0
      vertex 5.54016 -5.20256 -3
      vertex 5.54016 -5.20256 0
    endloop
  endfacet
  facet normal -0.481759 0.876303 0
    outer loop
      vertex 4.07228 -6.41689 -3
      vertex 3.23592 -6.87669 0
      vertex 4.07228 -6.41689 0
    endloop
  endfacet
  facet normal -0.481759 0.876303 0
    outer loop
      vertex 3.23592 -6.87669 0
      vertex 4.07228 -6.41689 -3
      vertex 3.23592 -6.87669 -3
    endloop
  endfacet
  facet normal 0.125333 0.992115 -0
    outer loop
      vertex -0.477207 -7.585 -3
      vertex -1.4241 -7.46538 0
      vertex -0.477207 -7.585 0
    endloop
  endfacet
  facet normal 0.125333 0.992115 0
    outer loop
      vertex -1.4241 -7.46538 0
      vertex -0.477207 -7.585 -3
      vertex -1.4241 -7.46538 -3
    endloop
  endfacet
  facet normal 0.368122 0.929777 -0
    outer loop
      vertex -2.34853 -7.22803 -3
      vertex -3.23592 -6.87669 0
      vertex -2.34853 -7.22803 0
    endloop
  endfacet
  facet normal 0.368122 0.929777 0
    outer loop
      vertex -3.23592 -6.87669 0
      vertex -2.34853 -7.22803 -3
      vertex -3.23592 -6.87669 -3
    endloop
  endfacet
  facet normal 0.248687 0.968584 -0
    outer loop
      vertex -1.4241 -7.46538 -3
      vertex -2.34853 -7.22803 0
      vertex -1.4241 -7.46538 0
    endloop
  endfacet
  facet normal 0.248687 0.968584 0
    outer loop
      vertex -2.34853 -7.22803 0
      vertex -1.4241 -7.46538 -3
      vertex -2.34853 -7.22803 -3
    endloop
  endfacet
  facet normal 0.844329 0.535826 0
    outer loop
      vertex -6.14853 -4.46717 0
      vertex -6.65993 -3.66133 -3
      vertex -6.65993 -3.66133 0
    endloop
  endfacet
  facet normal 0.844329 0.535826 0
    outer loop
      vertex -6.65993 -3.66133 -3
      vertex -6.14853 -4.46717 0
      vertex -6.14853 -4.46717 -3
    endloop
  endfacet
  facet normal 0.982287 0.187382 0
    outer loop
      vertex -7.36123 -1.89004 0
      vertex -7.54007 -0.952532 -3
      vertex -7.54007 -0.952532 0
    endloop
  endfacet
  facet normal 0.982287 0.187382 0
    outer loop
      vertex -7.54007 -0.952532 -3
      vertex -7.36123 -1.89004 0
      vertex -7.36123 -1.89004 -3
    endloop
  endfacet
  facet normal 0.998027 0.0627924 0
    outer loop
      vertex -7.54007 -0.952532 0
      vertex -7.6 0 -3
      vertex -7.6 0 0
    endloop
  endfacet
  facet normal 0.998027 0.0627924 0
    outer loop
      vertex -7.6 0 -3
      vertex -7.54007 -0.952532 0
      vertex -7.54007 -0.952532 -3
    endloop
  endfacet
  facet normal -0.684545 0.72897 0
    outer loop
      vertex 5.54016 -5.20256 -3
      vertex 4.84442 -5.8559 0
      vertex 5.54016 -5.20256 0
    endloop
  endfacet
  facet normal -0.684545 0.72897 0
    outer loop
      vertex 4.84442 -5.8559 0
      vertex 5.54016 -5.20256 -3
      vertex 4.84442 -5.8559 -3
    endloop
  endfacet
  facet normal -0.248687 0.968584 0
    outer loop
      vertex 2.34853 -7.22803 -3
      vertex 1.4241 -7.46538 0
      vertex 2.34853 -7.22803 0
    endloop
  endfacet
  facet normal -0.248687 0.968584 0
    outer loop
      vertex 1.4241 -7.46538 0
      vertex 2.34853 -7.22803 -3
      vertex 1.4241 -7.46538 -3
    endloop
  endfacet
  facet normal -0.125333 0.992115 0
    outer loop
      vertex 1.4241 -7.46538 -3
      vertex 0.477207 -7.585 0
      vertex 1.4241 -7.46538 0
    endloop
  endfacet
  facet normal -0.125333 0.992115 0
    outer loop
      vertex 0.477207 -7.585 0
      vertex 1.4241 -7.46538 -3
      vertex 0.477207 -7.585 -3
    endloop
  endfacet
  facet normal 0.481759 0.876303 -0
    outer loop
      vertex -3.23592 -6.87669 -3
      vertex -4.07228 -6.41689 0
      vertex -3.23592 -6.87669 0
    endloop
  endfacet
  facet normal 0.481759 0.876303 0
    outer loop
      vertex -4.07228 -6.41689 0
      vertex -3.23592 -6.87669 -3
      vertex -4.07228 -6.41689 -3
    endloop
  endfacet
  facet normal 0.587784 0.809018 -0
    outer loop
      vertex -4.07228 -6.41689 -3
      vertex -4.84442 -5.8559 0
      vertex -4.07228 -6.41689 0
    endloop
  endfacet
  facet normal 0.587784 0.809018 0
    outer loop
      vertex -4.84442 -5.8559 0
      vertex -4.07228 -6.41689 -3
      vertex -4.84442 -5.8559 -3
    endloop
  endfacet
endsolid OpenSCAD_Model
