solid OpenSCAD_Model
  facet normal 0.998027 0.0627908 0
    outer loop
      vertex 7.5 0 0
      vertex 7.44086 0.939999 -4
      vertex 7.44086 0.939999 0
    endloop
  endfacet
  facet normal 0.998027 0.0627908 0
    outer loop
      vertex 7.44086 0.939999 -4
      vertex 7.5 0 0
      vertex 7.5 0 -4
    endloop
  endfacet
  facet normal -0.998027 0.0627908 0
    outer loop
      vertex -7.5 0 -4
      vertex -7.44086 0.939999 0
      vertex -7.44086 0.939999 -4
    endloop
  endfacet
  facet normal -0.998027 0.0627908 0
    outer loop
      vertex -7.44086 0.939999 0
      vertex -7.5 0 -4
      vertex -7.5 0 0
    endloop
  endfacet
  facet normal 0 1 -0
    outer loop
      vertex 0.470928 7.4852 -4
      vertex -0.470928 7.4852 0
      vertex 0.470928 7.4852 0
    endloop
  endfacet
  facet normal 0 1 0
    outer loop
      vertex -0.470928 7.4852 0
      vertex 0.470928 7.4852 -4
      vertex -0.470928 7.4852 -4
    endloop
  endfacet
  facet normal 0 -1 0
    outer loop
      vertex -0.470928 -7.4852 -4
      vertex 0.470928 -7.4852 0
      vertex -0.470928 -7.4852 0
    endloop
  endfacet
  facet normal 0 -1 -0
    outer loop
      vertex 0.470928 -7.4852 0
      vertex -0.470928 -7.4852 -4
      vertex 0.470928 -7.4852 -4
    endloop
  endfacet
  facet normal 0.684552 0.728964 -0
    outer loop
      vertex 5.46726 5.1341 -4
      vertex 4.78068 5.77885 0
      vertex 5.46726 5.1341 0
    endloop
  endfacet
  facet normal 0.684552 0.728964 0
    outer loop
      vertex 4.78068 5.77885 0
      vertex 5.46726 5.1341 -4
      vertex 4.78068 5.77885 -4
    endloop
  endfacet
  facet normal -0.684552 0.728964 0
    outer loop
      vertex -4.78068 5.77885 -4
      vertex -5.46726 5.1341 0
      vertex -4.78068 5.77885 0
    endloop
  endfacet
  facet normal -0.684552 0.728964 0
    outer loop
      vertex -5.46726 5.1341 0
      vertex -4.78068 5.77885 -4
      vertex -5.46726 5.1341 -4
    endloop
  endfacet
  facet normal -0.368126 0.929776 0
    outer loop
      vertex -2.31763 7.13292 -4
      vertex -3.19334 6.7862 0
      vertex -2.31763 7.13292 0
    endloop
  endfacet
  facet normal -0.368126 0.929776 0
    outer loop
      vertex -3.19334 6.7862 0
      vertex -2.31763 7.13292 -4
      vertex -3.19334 6.7862 -4
    endloop
  endfacet
  facet normal 0.84433 -0.535823 0
    outer loop
      vertex 6.06763 -4.40839 0
      vertex 6.5723 -3.61315 -4
      vertex 6.5723 -3.61315 0
    endloop
  endfacet
  facet normal 0.84433 -0.535823 0
    outer loop
      vertex 6.5723 -3.61315 -4
      vertex 6.06763 -4.40839 0
      vertex 6.06763 -4.40839 -4
    endloop
  endfacet
  facet normal 0.904829 0.425776 0
    outer loop
      vertex 6.97332 2.76093 0
      vertex 6.5723 3.61315 -4
      vertex 6.5723 3.61315 0
    endloop
  endfacet
  facet normal 0.904829 0.425776 0
    outer loop
      vertex 6.5723 3.61315 -4
      vertex 6.97332 2.76093 0
      vertex 6.97332 2.76093 -4
    endloop
  endfacet
  facet normal 0.368126 0.929776 -0
    outer loop
      vertex 3.19334 6.7862 -4
      vertex 2.31763 7.13292 0
      vertex 3.19334 6.7862 0
    endloop
  endfacet
  facet normal 0.368126 0.929776 0
    outer loop
      vertex 2.31763 7.13292 0
      vertex 3.19334 6.7862 -4
      vertex 2.31763 7.13292 -4
    endloop
  endfacet
  facet normal 0.248689 0.968583 -0
    outer loop
      vertex 2.31763 7.13292 -4
      vertex 1.40536 7.36715 0
      vertex 2.31763 7.13292 0
    endloop
  endfacet
  facet normal 0.248689 0.968583 0
    outer loop
      vertex 1.40536 7.36715 0
      vertex 2.31763 7.13292 -4
      vertex 1.40536 7.36715 -4
    endloop
  endfacet
  facet normal 0.481749 0.876309 -0
    outer loop
      vertex 4.0187 6.33246 -4
      vertex 3.19334 6.7862 0
      vertex 4.0187 6.33246 0
    endloop
  endfacet
  facet normal 0.481749 0.876309 0
    outer loop
      vertex 3.19334 6.7862 0
      vertex 4.0187 6.33246 -4
      vertex 3.19334 6.7862 -4
    endloop
  endfacet
  facet normal -0.904829 0.425776 0
    outer loop
      vertex -6.97332 2.76093 -4
      vertex -6.5723 3.61315 0
      vertex -6.5723 3.61315 -4
    endloop
  endfacet
  facet normal -0.904829 0.425776 0
    outer loop
      vertex -6.5723 3.61315 0
      vertex -6.97332 2.76093 -4
      vertex -6.97332 2.76093 0
    endloop
  endfacet
  facet normal 0 0 1
    outer loop
      vertex 4.6 0 0
      vertex 7.5 0 0
      vertex 7.44086 0.939999 0
    endloop
  endfacet
  facet normal 0 0 1
    outer loop
      vertex 4.56373 0.576532 0
      vertex 7.44086 0.939999 0
      vertex 7.26437 1.86517 0
    endloop
  endfacet
  facet normal 0 0 1
    outer loop
      vertex 7.5 0 0
      vertex 4.6 0 0
      vertex 7.44086 -0.939999 0
    endloop
  endfacet
  facet normal 0 0 1
    outer loop
      vertex 4.45548 1.14397 0
      vertex 7.26437 1.86517 0
      vertex 6.97332 2.76093 0
    endloop
  endfacet
  facet normal -0 0 1
    outer loop
      vertex 4.56373 -0.576532 0
      vertex 7.44086 -0.939999 0
      vertex 4.6 0 0
    endloop
  endfacet
  facet normal 0 0 1
    outer loop
      vertex 4.27697 1.69337 0
      vertex 6.97332 2.76093 0
      vertex 6.5723 3.61315 0
    endloop
  endfacet
  facet normal 0 0 1
    outer loop
      vertex 7.44086 -0.939999 0
      vertex 4.56373 -0.576532 0
      vertex 7.26437 -1.86517 0
    endloop
  endfacet
  facet normal 0 0 1
    outer loop
      vertex 4.03101 2.21607 0
      vertex 6.5723 3.61315 0
      vertex 6.06763 4.40839 0
    endloop
  endfacet
  facet normal -0 0 1
    outer loop
      vertex 4.45548 -1.14397 0
      vertex 7.26437 -1.86517 0
      vertex 4.56373 -0.576532 0
    endloop
  endfacet
  facet normal 0 0 1
    outer loop
      vertex 3.72148 2.70381 0
      vertex 6.06763 4.40839 0
      vertex 5.46726 5.1341 0
    endloop
  endfacet
  facet normal 0 0 1
    outer loop
      vertex 7.26437 -1.86517 0
      vertex 4.45548 -1.14397 0
      vertex 6.97332 -2.76093 0
    endloop
  endfacet
  facet normal 0 0 1
    outer loop
      vertex 3.35326 3.14892 0
      vertex 5.46726 5.1341 0
      vertex 4.78068 5.77885 0
    endloop
  endfacet
  facet normal -0 0 1
    outer loop
      vertex 4.27697 -1.69337 0
      vertex 6.97332 -2.76093 0
      vertex 4.45548 -1.14397 0
    endloop
  endfacet
  facet normal 0 0 1
    outer loop
      vertex 6.97332 -2.76093 0
      vertex 4.27697 -1.69337 0
      vertex 6.5723 -3.61315 0
    endloop
  endfacet
  facet normal 0 0 1
    outer loop
      vertex 7.44086 0.939999 0
      vertex 4.56373 0.576532 0
      vertex 4.6 0 0
    endloop
  endfacet
  facet normal 0 0 1
    outer loop
      vertex 7.26437 1.86517 0
      vertex 4.45548 1.14397 0
      vertex 4.56373 0.576532 0
    endloop
  endfacet
  facet normal 0 0 1
    outer loop
      vertex 6.97332 2.76093 0
      vertex 4.27697 1.69337 0
      vertex 4.45548 1.14397 0
    endloop
  endfacet
  facet normal 0 0 1
    outer loop
      vertex 6.5723 3.61315 0
      vertex 4.03101 2.21607 0
      vertex 4.27697 1.69337 0
    endloop
  endfacet
  facet normal 0 0 1
    outer loop
      vertex 2.93215 3.54436 0
      vertex 4.78068 5.77885 0
      vertex 4.0187 6.33246 0
    endloop
  endfacet
  facet normal 0 0 1
    outer loop
      vertex 6.06763 4.40839 0
      vertex 3.72148 2.70381 0
      vertex 4.03101 2.21607 0
    endloop
  endfacet
  facet normal 0 0 1
    outer loop
      vertex 5.46726 5.1341 0
      vertex 3.35326 3.14892 0
      vertex 3.72148 2.70381 0
    endloop
  endfacet
  facet normal 0 0 1
    outer loop
      vertex 2.4648 3.88391 0
      vertex 4.0187 6.33246 0
      vertex 3.19334 6.7862 0
    endloop
  endfacet
  facet normal 0 0 1
    outer loop
      vertex 4.78068 5.77885 0
      vertex 2.93215 3.54436 0
      vertex 3.35326 3.14892 0
    endloop
  endfacet
  facet normal 0 0 1
    outer loop
      vertex 4.0187 6.33246 0
      vertex 2.4648 3.88391 0
      vertex 2.93215 3.54436 0
    endloop
  endfacet
  facet normal 0 0 1
    outer loop
      vertex 1.95858 4.1622 0
      vertex 3.19334 6.7862 0
      vertex 2.31763 7.13292 0
    endloop
  endfacet
  facet normal 0 0 1
    outer loop
      vertex 3.19334 6.7862 0
      vertex 1.95858 4.1622 0
      vertex 2.4648 3.88391 0
    endloop
  endfacet
  facet normal 0 0 1
    outer loop
      vertex 2.31763 7.13292 0
      vertex 1.42148 4.37486 0
      vertex 1.95858 4.1622 0
    endloop
  endfacet
  facet normal 0 0 1
    outer loop
      vertex 1.40536 7.36715 0
      vertex 1.42148 4.37486 0
      vertex 2.31763 7.13292 0
    endloop
  endfacet
  facet normal 0 0 1
    outer loop
      vertex 1.40536 7.36715 0
      vertex 0.861954 4.51852 0
      vertex 1.42148 4.37486 0
    endloop
  endfacet
  facet normal 0 0 1
    outer loop
      vertex 0.470928 7.4852 0
      vertex 0.861954 4.51852 0
      vertex 1.40536 7.36715 0
    endloop
  endfacet
  facet normal 0 0 1
    outer loop
      vertex 0.470928 7.4852 0
      vertex 0.288836 4.59092 0
      vertex 0.861954 4.51852 0
    endloop
  endfacet
  facet normal 0 0 1
    outer loop
      vertex 0.470928 7.4852 0
      vertex -0.288836 4.59092 0
      vertex 0.288836 4.59092 0
    endloop
  endfacet
  facet normal -0 0 1
    outer loop
      vertex -0.470928 7.4852 0
      vertex -0.288836 4.59092 0
      vertex 0.470928 7.4852 0
    endloop
  endfacet
  facet normal 0 0 1
    outer loop
      vertex -0.470928 7.4852 0
      vertex -0.861954 4.51852 0
      vertex -0.288836 4.59092 0
    endloop
  endfacet
  facet normal -0 0 1
    outer loop
      vertex -1.40536 7.36715 0
      vertex -0.861954 4.51852 0
      vertex -0.470928 7.4852 0
    endloop
  endfacet
  facet normal 0 0 1
    outer loop
      vertex -1.40536 7.36715 0
      vertex -1.42148 4.37486 0
      vertex -0.861954 4.51852 0
    endloop
  endfacet
  facet normal -0 0 1
    outer loop
      vertex -2.31763 7.13292 0
      vertex -1.42148 4.37486 0
      vertex -1.40536 7.36715 0
    endloop
  endfacet
  facet normal 0 0 1
    outer loop
      vertex -1.42148 4.37486 0
      vertex -2.31763 7.13292 0
      vertex -1.95858 4.1622 0
    endloop
  endfacet
  facet normal -0 0 1
    outer loop
      vertex -3.19334 6.7862 0
      vertex -1.95858 4.1622 0
      vertex -2.31763 7.13292 0
    endloop
  endfacet
  facet normal 0 0 1
    outer loop
      vertex -1.95858 4.1622 0
      vertex -3.19334 6.7862 0
      vertex -2.4648 3.88391 0
    endloop
  endfacet
  facet normal -0 0 1
    outer loop
      vertex -4.0187 6.33246 0
      vertex -2.4648 3.88391 0
      vertex -3.19334 6.7862 0
    endloop
  endfacet
  facet normal 0 0 1
    outer loop
      vertex -2.4648 3.88391 0
      vertex -4.0187 6.33246 0
      vertex -2.93215 3.54436 0
    endloop
  endfacet
  facet normal -0 0 1
    outer loop
      vertex -4.78068 5.77885 0
      vertex -2.93215 3.54436 0
      vertex -4.0187 6.33246 0
    endloop
  endfacet
  facet normal 0 0 1
    outer loop
      vertex -2.93215 3.54436 0
      vertex -4.78068 5.77885 0
      vertex -3.35326 3.14892 0
    endloop
  endfacet
  facet normal -0 0 1
    outer loop
      vertex -5.46726 5.1341 0
      vertex -3.35326 3.14892 0
      vertex -4.78068 5.77885 0
    endloop
  endfacet
  facet normal 0 0 1
    outer loop
      vertex -3.35326 3.14892 0
      vertex -5.46726 5.1341 0
      vertex -3.72148 2.70381 0
    endloop
  endfacet
  facet normal -0 0 1
    outer loop
      vertex -6.06763 4.40839 0
      vertex -3.72148 2.70381 0
      vertex -5.46726 5.1341 0
    endloop
  endfacet
  facet normal 0 0 1
    outer loop
      vertex -3.72148 2.70381 0
      vertex -6.06763 4.40839 0
      vertex -4.03101 2.21607 0
    endloop
  endfacet
  facet normal 0 0 1
    outer loop
      vertex -4.03101 2.21607 0
      vertex -6.5723 3.61315 0
      vertex -4.27697 1.69337 0
    endloop
  endfacet
  facet normal -0 0 1
    outer loop
      vertex -6.5723 3.61315 0
      vertex -4.03101 2.21607 0
      vertex -6.06763 4.40839 0
    endloop
  endfacet
  facet normal -0 0 1
    outer loop
      vertex 4.03101 -2.21607 0
      vertex 6.5723 -3.61315 0
      vertex 4.27697 -1.69337 0
    endloop
  endfacet
  facet normal 0 0 1
    outer loop
      vertex 6.5723 -3.61315 0
      vertex 4.03101 -2.21607 0
      vertex 6.06763 -4.40839 0
    endloop
  endfacet
  facet normal -0 0 1
    outer loop
      vertex 3.72148 -2.70381 0
      vertex 6.06763 -4.40839 0
      vertex 4.03101 -2.21607 0
    endloop
  endfacet
  facet normal 0 0 1
    outer loop
      vertex 6.06763 -4.40839 0
      vertex 3.72148 -2.70381 0
      vertex 5.46726 -5.1341 0
    endloop
  endfacet
  facet normal -0 0 1
    outer loop
      vertex 3.35326 -3.14892 0
      vertex 5.46726 -5.1341 0
      vertex 3.72148 -2.70381 0
    endloop
  endfacet
  facet normal 0 0 1
    outer loop
      vertex 5.46726 -5.1341 0
      vertex 3.35326 -3.14892 0
      vertex 4.78068 -5.77885 0
    endloop
  endfacet
  facet normal -0 0 1
    outer loop
      vertex 2.93215 -3.54436 0
      vertex 4.78068 -5.77885 0
      vertex 3.35326 -3.14892 0
    endloop
  endfacet
  facet normal 0 0 1
    outer loop
      vertex 4.78068 -5.77885 0
      vertex 2.93215 -3.54436 0
      vertex 4.0187 -6.33246 0
    endloop
  endfacet
  facet normal -0 0 1
    outer loop
      vertex 2.4648 -3.88391 0
      vertex 4.0187 -6.33246 0
      vertex 2.93215 -3.54436 0
    endloop
  endfacet
  facet normal 0 0 1
    outer loop
      vertex 4.0187 -6.33246 0
      vertex 2.4648 -3.88391 0
      vertex 3.19334 -6.7862 0
    endloop
  endfacet
  facet normal -0 0 1
    outer loop
      vertex 1.95858 -4.1622 0
      vertex 3.19334 -6.7862 0
      vertex 2.4648 -3.88391 0
    endloop
  endfacet
  facet normal 0 0 1
    outer loop
      vertex 3.19334 -6.7862 0
      vertex 1.95858 -4.1622 0
      vertex 2.31763 -7.13292 0
    endloop
  endfacet
  facet normal -0 0 1
    outer loop
      vertex 1.42148 -4.37486 0
      vertex 2.31763 -7.13292 0
      vertex 1.95858 -4.1622 0
    endloop
  endfacet
  facet normal 0 0 1
    outer loop
      vertex 1.42148 -4.37486 0
      vertex 1.40536 -7.36715 0
      vertex 2.31763 -7.13292 0
    endloop
  endfacet
  facet normal -0 0 1
    outer loop
      vertex 0.861954 -4.51852 0
      vertex 1.40536 -7.36715 0
      vertex 1.42148 -4.37486 0
    endloop
  endfacet
  facet normal 0 0 1
    outer loop
      vertex 0.861954 -4.51852 0
      vertex 0.470928 -7.4852 0
      vertex 1.40536 -7.36715 0
    endloop
  endfacet
  facet normal -0 0 1
    outer loop
      vertex 0.288836 -4.59092 0
      vertex 0.470928 -7.4852 0
      vertex 0.861954 -4.51852 0
    endloop
  endfacet
  facet normal -0 0 1
    outer loop
      vertex -0.288836 -4.59092 0
      vertex 0.470928 -7.4852 0
      vertex 0.288836 -4.59092 0
    endloop
  endfacet
  facet normal 0 0 1
    outer loop
      vertex -0.288836 -4.59092 0
      vertex -0.470928 -7.4852 0
      vertex 0.470928 -7.4852 0
    endloop
  endfacet
  facet normal 0 0 1
    outer loop
      vertex -0.861954 -4.51852 0
      vertex -0.470928 -7.4852 0
      vertex -0.288836 -4.59092 0
    endloop
  endfacet
  facet normal 0 0 1
    outer loop
      vertex -0.861954 -4.51852 0
      vertex -1.40536 -7.36715 0
      vertex -0.470928 -7.4852 0
    endloop
  endfacet
  facet normal 0 0 1
    outer loop
      vertex -1.42148 -4.37486 0
      vertex -1.40536 -7.36715 0
      vertex -0.861954 -4.51852 0
    endloop
  endfacet
  facet normal 0 0 1
    outer loop
      vertex -2.31763 -7.13292 0
      vertex -1.42148 -4.37486 0
      vertex -1.95858 -4.1622 0
    endloop
  endfacet
  facet normal 0 0 1
    outer loop
      vertex -1.42148 -4.37486 0
      vertex -2.31763 -7.13292 0
      vertex -1.40536 -7.36715 0
    endloop
  endfacet
  facet normal 0 0 1
    outer loop
      vertex -3.19334 -6.7862 0
      vertex -1.95858 -4.1622 0
      vertex -2.4648 -3.88391 0
    endloop
  endfacet
  facet normal 0 0 1
    outer loop
      vertex -4.0187 -6.33246 0
      vertex -2.4648 -3.88391 0
      vertex -2.93215 -3.54436 0
    endloop
  endfacet
  facet normal 0 0 1
    outer loop
      vertex -1.95858 -4.1622 0
      vertex -3.19334 -6.7862 0
      vertex -2.31763 -7.13292 0
    endloop
  endfacet
  facet normal 0 0 1
    outer loop
      vertex -4.78068 -5.77885 0
      vertex -2.93215 -3.54436 0
      vertex -3.35326 -3.14892 0
    endloop
  endfacet
  facet normal 0 0 1
    outer loop
      vertex -5.46726 -5.1341 0
      vertex -3.35326 -3.14892 0
      vertex -3.72148 -2.70381 0
    endloop
  endfacet
  facet normal 0 0 1
    outer loop
      vertex -2.4648 -3.88391 0
      vertex -4.0187 -6.33246 0
      vertex -3.19334 -6.7862 0
    endloop
  endfacet
  facet normal 0 0 1
    outer loop
      vertex -6.06763 -4.40839 0
      vertex -3.72148 -2.70381 0
      vertex -4.03101 -2.21607 0
    endloop
  endfacet
  facet normal 0 0 1
    outer loop
      vertex -6.5723 -3.61315 0
      vertex -4.03101 -2.21607 0
      vertex -4.27697 -1.69337 0
    endloop
  endfacet
  facet normal 0 0 1
    outer loop
      vertex -6.97332 -2.76093 0
      vertex -4.27697 -1.69337 0
      vertex -4.45548 -1.14397 0
    endloop
  endfacet
  facet normal 0 0 1
    outer loop
      vertex -7.26437 -1.86517 0
      vertex -4.45548 -1.14397 0
      vertex -4.56373 -0.576532 0
    endloop
  endfacet
  facet normal 0 0 1
    outer loop
      vertex -2.93215 -3.54436 0
      vertex -4.78068 -5.77885 0
      vertex -4.0187 -6.33246 0
    endloop
  endfacet
  facet normal 0 0 1
    outer loop
      vertex -7.44086 -0.939999 0
      vertex -4.56373 -0.576532 0
      vertex -4.6 0 0
    endloop
  endfacet
  facet normal -0 0 1
    outer loop
      vertex -6.97332 2.76093 0
      vertex -4.27697 1.69337 0
      vertex -6.5723 3.61315 0
    endloop
  endfacet
  facet normal 0 0 1
    outer loop
      vertex -4.27697 1.69337 0
      vertex -6.97332 2.76093 0
      vertex -4.45548 1.14397 0
    endloop
  endfacet
  facet normal 0 0 1
    outer loop
      vertex -3.35326 -3.14892 0
      vertex -5.46726 -5.1341 0
      vertex -4.78068 -5.77885 0
    endloop
  endfacet
  facet normal -0 0 1
    outer loop
      vertex -7.26437 1.86517 0
      vertex -4.45548 1.14397 0
      vertex -6.97332 2.76093 0
    endloop
  endfacet
  facet normal 0 0 1
    outer loop
      vertex -3.72148 -2.70381 0
      vertex -6.06763 -4.40839 0
      vertex -5.46726 -5.1341 0
    endloop
  endfacet
  facet normal 0 0 1
    outer loop
      vertex -4.45548 1.14397 0
      vertex -7.26437 1.86517 0
      vertex -4.56373 0.576532 0
    endloop
  endfacet
  facet normal 0 0 1
    outer loop
      vertex -4.03101 -2.21607 0
      vertex -6.5723 -3.61315 0
      vertex -6.06763 -4.40839 0
    endloop
  endfacet
  facet normal -0 0 1
    outer loop
      vertex -7.44086 0.939999 0
      vertex -4.56373 0.576532 0
      vertex -7.26437 1.86517 0
    endloop
  endfacet
  facet normal 0 0 1
    outer loop
      vertex -4.27697 -1.69337 0
      vertex -6.97332 -2.76093 0
      vertex -6.5723 -3.61315 0
    endloop
  endfacet
  facet normal 0 0 1
    outer loop
      vertex -4.56373 0.576532 0
      vertex -7.44086 0.939999 0
      vertex -4.6 0 0
    endloop
  endfacet
  facet normal 0 0 1
    outer loop
      vertex -4.45548 -1.14397 0
      vertex -7.26437 -1.86517 0
      vertex -6.97332 -2.76093 0
    endloop
  endfacet
  facet normal 0 0 1
    outer loop
      vertex -7.5 0 0
      vertex -4.6 0 0
      vertex -7.44086 0.939999 0
    endloop
  endfacet
  facet normal 0 0 1
    outer loop
      vertex -4.56373 -0.576532 0
      vertex -7.44086 -0.939999 0
      vertex -7.26437 -1.86517 0
    endloop
  endfacet
  facet normal 0 0 1
    outer loop
      vertex -4.6 0 0
      vertex -7.5 0 0
      vertex -7.44086 -0.939999 0
    endloop
  endfacet
  facet normal -0.125337 0.992114 0
    outer loop
      vertex -0.470928 7.4852 -4
      vertex -1.40536 7.36715 0
      vertex -0.470928 7.4852 0
    endloop
  endfacet
  facet normal -0.125337 0.992114 0
    outer loop
      vertex -1.40536 7.36715 0
      vertex -0.470928 7.4852 -4
      vertex -1.40536 7.36715 -4
    endloop
  endfacet
  facet normal 0.125337 -0.992114 0
    outer loop
      vertex 0.470928 -7.4852 -4
      vertex 1.40536 -7.36715 0
      vertex 0.470928 -7.4852 0
    endloop
  endfacet
  facet normal 0.125337 -0.992114 0
    outer loop
      vertex 1.40536 -7.36715 0
      vertex 0.470928 -7.4852 -4
      vertex 1.40536 -7.36715 -4
    endloop
  endfacet
  facet normal 0.368126 -0.929776 0
    outer loop
      vertex 2.31763 -7.13292 -4
      vertex 3.19334 -6.7862 0
      vertex 2.31763 -7.13292 0
    endloop
  endfacet
  facet normal 0.368126 -0.929776 0
    outer loop
      vertex 3.19334 -6.7862 0
      vertex 2.31763 -7.13292 -4
      vertex 3.19334 -6.7862 -4
    endloop
  endfacet
  facet normal 0.951057 0.309017 0
    outer loop
      vertex 7.26437 1.86517 0
      vertex 6.97332 2.76093 -4
      vertex 6.97332 2.76093 0
    endloop
  endfacet
  facet normal 0.951057 0.309017 0
    outer loop
      vertex 6.97332 2.76093 -4
      vertex 7.26437 1.86517 0
      vertex 7.26437 1.86517 -4
    endloop
  endfacet
  facet normal 0.982286 0.187386 0
    outer loop
      vertex 7.44086 0.939999 0
      vertex 7.26437 1.86517 -4
      vertex 7.26437 1.86517 0
    endloop
  endfacet
  facet normal 0.982286 0.187386 0
    outer loop
      vertex 7.26437 1.86517 -4
      vertex 7.44086 0.939999 0
      vertex 7.44086 0.939999 -4
    endloop
  endfacet
  facet normal 0.770508 0.637431 0
    outer loop
      vertex 6.06763 4.40839 0
      vertex 5.46726 5.1341 -4
      vertex 5.46726 5.1341 0
    endloop
  endfacet
  facet normal 0.770508 0.637431 0
    outer loop
      vertex 5.46726 5.1341 -4
      vertex 6.06763 4.40839 0
      vertex 6.06763 4.40839 -4
    endloop
  endfacet
  facet normal 0.84433 0.535823 0
    outer loop
      vertex 6.5723 3.61315 0
      vertex 6.06763 4.40839 -4
      vertex 6.06763 4.40839 0
    endloop
  endfacet
  facet normal 0.84433 0.535823 0
    outer loop
      vertex 6.06763 4.40839 -4
      vertex 6.5723 3.61315 0
      vertex 6.5723 3.61315 -4
    endloop
  endfacet
  facet normal 0.125337 0.992114 -0
    outer loop
      vertex 1.40536 7.36715 -4
      vertex 0.470928 7.4852 0
      vertex 1.40536 7.36715 0
    endloop
  endfacet
  facet normal 0.125337 0.992114 0
    outer loop
      vertex 0.470928 7.4852 0
      vertex 1.40536 7.36715 -4
      vertex 0.470928 7.4852 -4
    endloop
  endfacet
  facet normal 0.587785 0.809017 -0
    outer loop
      vertex 4.78068 5.77885 -4
      vertex 4.0187 6.33246 0
      vertex 4.78068 5.77885 0
    endloop
  endfacet
  facet normal 0.587785 0.809017 0
    outer loop
      vertex 4.0187 6.33246 0
      vertex 4.78068 5.77885 -4
      vertex 4.0187 6.33246 -4
    endloop
  endfacet
  facet normal -0.84433 0.535823 0
    outer loop
      vertex -6.5723 3.61315 -4
      vertex -6.06763 4.40839 0
      vertex -6.06763 4.40839 -4
    endloop
  endfacet
  facet normal -0.84433 0.535823 0
    outer loop
      vertex -6.06763 4.40839 0
      vertex -6.5723 3.61315 -4
      vertex -6.5723 3.61315 0
    endloop
  endfacet
  facet normal -0.770508 0.637431 0
    outer loop
      vertex -6.06763 4.40839 -4
      vertex -5.46726 5.1341 0
      vertex -5.46726 5.1341 -4
    endloop
  endfacet
  facet normal -0.770508 0.637431 0
    outer loop
      vertex -5.46726 5.1341 0
      vertex -6.06763 4.40839 -4
      vertex -6.06763 4.40839 0
    endloop
  endfacet
  facet normal -0.951057 0.309017 0
    outer loop
      vertex -7.26437 1.86517 -4
      vertex -6.97332 2.76093 0
      vertex -6.97332 2.76093 -4
    endloop
  endfacet
  facet normal -0.951057 0.309017 0
    outer loop
      vertex -6.97332 2.76093 0
      vertex -7.26437 1.86517 -4
      vertex -7.26437 1.86517 0
    endloop
  endfacet
  facet normal -0.982286 0.187386 0
    outer loop
      vertex -7.44086 0.939999 -4
      vertex -7.26437 1.86517 0
      vertex -7.26437 1.86517 -4
    endloop
  endfacet
  facet normal -0.982286 0.187386 0
    outer loop
      vertex -7.26437 1.86517 0
      vertex -7.44086 0.939999 -4
      vertex -7.44086 0.939999 0
    endloop
  endfacet
  facet normal -0.481749 0.876309 0
    outer loop
      vertex -3.19334 6.7862 -4
      vertex -4.0187 6.33246 0
      vertex -3.19334 6.7862 0
    endloop
  endfacet
  facet normal -0.481749 0.876309 0
    outer loop
      vertex -4.0187 6.33246 0
      vertex -3.19334 6.7862 -4
      vertex -4.0187 6.33246 -4
    endloop
  endfacet
  facet normal -0.587785 0.809017 0
    outer loop
      vertex -4.0187 6.33246 -4
      vertex -4.78068 5.77885 0
      vertex -4.0187 6.33246 0
    endloop
  endfacet
  facet normal -0.587785 0.809017 0
    outer loop
      vertex -4.78068 5.77885 0
      vertex -4.0187 6.33246 -4
      vertex -4.78068 5.77885 -4
    endloop
  endfacet
  facet normal -0.248689 0.968583 0
    outer loop
      vertex -1.40536 7.36715 -4
      vertex -2.31763 7.13292 0
      vertex -1.40536 7.36715 0
    endloop
  endfacet
  facet normal -0.248689 0.968583 0
    outer loop
      vertex -2.31763 7.13292 0
      vertex -1.40536 7.36715 -4
      vertex -2.31763 7.13292 -4
    endloop
  endfacet
  facet normal 0.998027 -0.0627908 0
    outer loop
      vertex 7.44086 -0.939999 0
      vertex 7.5 0 -4
      vertex 7.5 0 0
    endloop
  endfacet
  facet normal 0.998027 -0.0627908 0
    outer loop
      vertex 7.5 0 -4
      vertex 7.44086 -0.939999 0
      vertex 7.44086 -0.939999 -4
    endloop
  endfacet
  facet normal 0.481749 -0.876309 0
    outer loop
      vertex 3.19334 -6.7862 -4
      vertex 4.0187 -6.33246 0
      vertex 3.19334 -6.7862 0
    endloop
  endfacet
  facet normal 0.481749 -0.876309 0
    outer loop
      vertex 4.0187 -6.33246 0
      vertex 3.19334 -6.7862 -4
      vertex 4.0187 -6.33246 -4
    endloop
  endfacet
  facet normal 0.770508 -0.637431 0
    outer loop
      vertex 5.46726 -5.1341 0
      vertex 6.06763 -4.40839 -4
      vertex 6.06763 -4.40839 0
    endloop
  endfacet
  facet normal 0.770508 -0.637431 0
    outer loop
      vertex 6.06763 -4.40839 -4
      vertex 5.46726 -5.1341 0
      vertex 5.46726 -5.1341 -4
    endloop
  endfacet
  facet normal 0.982286 -0.187386 0
    outer loop
      vertex 7.26437 -1.86517 0
      vertex 7.44086 -0.939999 -4
      vertex 7.44086 -0.939999 0
    endloop
  endfacet
  facet normal 0.982286 -0.187386 0
    outer loop
      vertex 7.44086 -0.939999 -4
      vertex 7.26437 -1.86517 0
      vertex 7.26437 -1.86517 -4
    endloop
  endfacet
  facet normal -0.951057 -0.309017 0
    outer loop
      vertex -6.97332 -2.76093 -4
      vertex -7.26437 -1.86517 0
      vertex -7.26437 -1.86517 -4
    endloop
  endfacet
  facet normal -0.951057 -0.309017 0
    outer loop
      vertex -7.26437 -1.86517 0
      vertex -6.97332 -2.76093 -4
      vertex -6.97332 -2.76093 0
    endloop
  endfacet
  facet normal 0.684552 -0.728964 0
    outer loop
      vertex 4.78068 -5.77885 -4
      vertex 5.46726 -5.1341 0
      vertex 4.78068 -5.77885 0
    endloop
  endfacet
  facet normal 0.684552 -0.728964 0
    outer loop
      vertex 5.46726 -5.1341 0
      vertex 4.78068 -5.77885 -4
      vertex 5.46726 -5.1341 -4
    endloop
  endfacet
  facet normal 0.904829 -0.425776 0
    outer loop
      vertex 6.5723 -3.61315 0
      vertex 6.97332 -2.76093 -4
      vertex 6.97332 -2.76093 0
    endloop
  endfacet
  facet normal 0.904829 -0.425776 0
    outer loop
      vertex 6.97332 -2.76093 -4
      vertex 6.5723 -3.61315 0
      vertex 6.5723 -3.61315 -4
    endloop
  endfacet
  facet normal -0.684552 -0.728964 0
    outer loop
      vertex -5.46726 -5.1341 -4
      vertex -4.78068 -5.77885 0
      vertex -5.46726 -5.1341 0
    endloop
  endfacet
  facet normal -0.684552 -0.728964 -0
    outer loop
      vertex -4.78068 -5.77885 0
      vertex -5.46726 -5.1341 -4
      vertex -4.78068 -5.77885 -4
    endloop
  endfacet
  facet normal -0.84433 -0.535823 0
    outer loop
      vertex -6.06763 -4.40839 -4
      vertex -6.5723 -3.61315 0
      vertex -6.5723 -3.61315 -4
    endloop
  endfacet
  facet normal -0.84433 -0.535823 0
    outer loop
      vertex -6.5723 -3.61315 0
      vertex -6.06763 -4.40839 -4
      vertex -6.06763 -4.40839 0
    endloop
  endfacet
  facet normal 0 0 -1
    outer loop
      vertex 7.44086 -0.939999 -4
      vertex 7.44086 0.939999 -4
      vertex 7.5 0 -4
    endloop
  endfacet
  facet normal 0 0 -1
    outer loop
      vertex 7.26437 -1.86517 -4
      vertex 7.44086 0.939999 -4
      vertex 7.44086 -0.939999 -4
    endloop
  endfacet
  facet normal 0 0 -1
    outer loop
      vertex 7.26437 -1.86517 -4
      vertex 7.26437 1.86517 -4
      vertex 7.44086 0.939999 -4
    endloop
  endfacet
  facet normal 0 0 -1
    outer loop
      vertex 6.97332 -2.76093 -4
      vertex 7.26437 1.86517 -4
      vertex 7.26437 -1.86517 -4
    endloop
  endfacet
  facet normal 0 0 -1
    outer loop
      vertex 6.97332 -2.76093 -4
      vertex 6.97332 2.76093 -4
      vertex 7.26437 1.86517 -4
    endloop
  endfacet
  facet normal 0 0 -1
    outer loop
      vertex 6.5723 -3.61315 -4
      vertex 6.97332 2.76093 -4
      vertex 6.97332 -2.76093 -4
    endloop
  endfacet
  facet normal 0 0 -1
    outer loop
      vertex 6.5723 -3.61315 -4
      vertex 6.5723 3.61315 -4
      vertex 6.97332 2.76093 -4
    endloop
  endfacet
  facet normal 0 0 -1
    outer loop
      vertex 6.06763 -4.40839 -4
      vertex 6.5723 3.61315 -4
      vertex 6.5723 -3.61315 -4
    endloop
  endfacet
  facet normal 0 0 -1
    outer loop
      vertex 6.06763 -4.40839 -4
      vertex 6.06763 4.40839 -4
      vertex 6.5723 3.61315 -4
    endloop
  endfacet
  facet normal 0 0 -1
    outer loop
      vertex 5.46726 -5.1341 -4
      vertex 6.06763 4.40839 -4
      vertex 6.06763 -4.40839 -4
    endloop
  endfacet
  facet normal 0 0 -1
    outer loop
      vertex 5.46726 -5.1341 -4
      vertex 5.46726 5.1341 -4
      vertex 6.06763 4.40839 -4
    endloop
  endfacet
  facet normal 0 0 -1
    outer loop
      vertex 4.78068 -5.77885 -4
      vertex 5.46726 5.1341 -4
      vertex 5.46726 -5.1341 -4
    endloop
  endfacet
  facet normal 0 0 -1
    outer loop
      vertex 4.78068 -5.77885 -4
      vertex 4.78068 5.77885 -4
      vertex 5.46726 5.1341 -4
    endloop
  endfacet
  facet normal 0 0 -1
    outer loop
      vertex 4.0187 -6.33246 -4
      vertex 4.78068 5.77885 -4
      vertex 4.78068 -5.77885 -4
    endloop
  endfacet
  facet normal 0 0 -1
    outer loop
      vertex 4.0187 -6.33246 -4
      vertex 4.0187 6.33246 -4
      vertex 4.78068 5.77885 -4
    endloop
  endfacet
  facet normal 0 0 -1
    outer loop
      vertex 3.19334 -6.7862 -4
      vertex 4.0187 6.33246 -4
      vertex 4.0187 -6.33246 -4
    endloop
  endfacet
  facet normal 0 0 -1
    outer loop
      vertex 3.19334 -6.7862 -4
      vertex 3.19334 6.7862 -4
      vertex 4.0187 6.33246 -4
    endloop
  endfacet
  facet normal 0 0 -1
    outer loop
      vertex 2.31763 -7.13292 -4
      vertex 3.19334 6.7862 -4
      vertex 3.19334 -6.7862 -4
    endloop
  endfacet
  facet normal 0 0 -1
    outer loop
      vertex 2.31763 -7.13292 -4
      vertex 2.31763 7.13292 -4
      vertex 3.19334 6.7862 -4
    endloop
  endfacet
  facet normal 0 0 -1
    outer loop
      vertex 1.40536 -7.36715 -4
      vertex 2.31763 7.13292 -4
      vertex 2.31763 -7.13292 -4
    endloop
  endfacet
  facet normal 0 0 -1
    outer loop
      vertex 1.40536 -7.36715 -4
      vertex 1.40536 7.36715 -4
      vertex 2.31763 7.13292 -4
    endloop
  endfacet
  facet normal 0 0 -1
    outer loop
      vertex 0.470928 -7.4852 -4
      vertex 1.40536 7.36715 -4
      vertex 1.40536 -7.36715 -4
    endloop
  endfacet
  facet normal 0 0 -1
    outer loop
      vertex 0.470928 -7.4852 -4
      vertex 0.470928 7.4852 -4
      vertex 1.40536 7.36715 -4
    endloop
  endfacet
  facet normal 0 0 -1
    outer loop
      vertex -0.470928 -7.4852 -4
      vertex 0.470928 7.4852 -4
      vertex 0.470928 -7.4852 -4
    endloop
  endfacet
  facet normal 0 0 -1
    outer loop
      vertex -0.470928 -7.4852 -4
      vertex -0.470928 7.4852 -4
      vertex 0.470928 7.4852 -4
    endloop
  endfacet
  facet normal 0 0 -1
    outer loop
      vertex -1.40536 -7.36715 -4
      vertex -0.470928 7.4852 -4
      vertex -0.470928 -7.4852 -4
    endloop
  endfacet
  facet normal 0 0 -1
    outer loop
      vertex -1.40536 -7.36715 -4
      vertex -1.40536 7.36715 -4
      vertex -0.470928 7.4852 -4
    endloop
  endfacet
  facet normal 0 0 -1
    outer loop
      vertex -2.31763 -7.13292 -4
      vertex -1.40536 7.36715 -4
      vertex -1.40536 -7.36715 -4
    endloop
  endfacet
  facet normal 0 0 -1
    outer loop
      vertex -2.31763 -7.13292 -4
      vertex -2.31763 7.13292 -4
      vertex -1.40536 7.36715 -4
    endloop
  endfacet
  facet normal 0 0 -1
    outer loop
      vertex -3.19334 -6.7862 -4
      vertex -2.31763 7.13292 -4
      vertex -2.31763 -7.13292 -4
    endloop
  endfacet
  facet normal 0 0 -1
    outer loop
      vertex -3.19334 -6.7862 -4
      vertex -3.19334 6.7862 -4
      vertex -2.31763 7.13292 -4
    endloop
  endfacet
  facet normal 0 0 -1
    outer loop
      vertex -4.0187 -6.33246 -4
      vertex -3.19334 6.7862 -4
      vertex -3.19334 -6.7862 -4
    endloop
  endfacet
  facet normal 0 0 -1
    outer loop
      vertex -4.0187 -6.33246 -4
      vertex -4.0187 6.33246 -4
      vertex -3.19334 6.7862 -4
    endloop
  endfacet
  facet normal 0 0 -1
    outer loop
      vertex -4.78068 -5.77885 -4
      vertex -4.0187 6.33246 -4
      vertex -4.0187 -6.33246 -4
    endloop
  endfacet
  facet normal 0 0 -1
    outer loop
      vertex -4.78068 -5.77885 -4
      vertex -4.78068 5.77885 -4
      vertex -4.0187 6.33246 -4
    endloop
  endfacet
  facet normal 0 0 -1
    outer loop
      vertex -5.46726 -5.1341 -4
      vertex -4.78068 5.77885 -4
      vertex -4.78068 -5.77885 -4
    endloop
  endfacet
  facet normal 0 0 -1
    outer loop
      vertex -5.46726 -5.1341 -4
      vertex -5.46726 5.1341 -4
      vertex -4.78068 5.77885 -4
    endloop
  endfacet
  facet normal 0 0 -1
    outer loop
      vertex -6.06763 -4.40839 -4
      vertex -5.46726 5.1341 -4
      vertex -5.46726 -5.1341 -4
    endloop
  endfacet
  facet normal 0 0 -1
    outer loop
      vertex -6.06763 -4.40839 -4
      vertex -6.06763 4.40839 -4
      vertex -5.46726 5.1341 -4
    endloop
  endfacet
  facet normal 0 0 -1
    outer loop
      vertex -6.5723 -3.61315 -4
      vertex -6.06763 4.40839 -4
      vertex -6.06763 -4.40839 -4
    endloop
  endfacet
  facet normal 0 0 -1
    outer loop
      vertex -6.5723 -3.61315 -4
      vertex -6.5723 3.61315 -4
      vertex -6.06763 4.40839 -4
    endloop
  endfacet
  facet normal 0 0 -1
    outer loop
      vertex -6.97332 -2.76093 -4
      vertex -6.5723 3.61315 -4
      vertex -6.5723 -3.61315 -4
    endloop
  endfacet
  facet normal 0 0 -1
    outer loop
      vertex -6.97332 -2.76093 -4
      vertex -6.97332 2.76093 -4
      vertex -6.5723 3.61315 -4
    endloop
  endfacet
  facet normal 0 0 -1
    outer loop
      vertex -7.26437 -1.86517 -4
      vertex -6.97332 2.76093 -4
      vertex -6.97332 -2.76093 -4
    endloop
  endfacet
  facet normal 0 0 -1
    outer loop
      vertex -7.26437 -1.86517 -4
      vertex -7.26437 1.86517 -4
      vertex -6.97332 2.76093 -4
    endloop
  endfacet
  facet normal 0 0 -1
    outer loop
      vertex -7.44086 -0.939999 -4
      vertex -7.26437 1.86517 -4
      vertex -7.26437 -1.86517 -4
    endloop
  endfacet
  facet normal 0 0 -1
    outer loop
      vertex -7.44086 -0.939999 -4
      vertex -7.44086 0.939999 -4
      vertex -7.26437 1.86517 -4
    endloop
  endfacet
  facet normal 0 -0 -1
    outer loop
      vertex -7.44086 0.939999 -4
      vertex -7.44086 -0.939999 -4
      vertex -7.5 0 -4
    endloop
  endfacet
  facet normal 0.248689 -0.968583 0
    outer loop
      vertex 1.40536 -7.36715 -4
      vertex 2.31763 -7.13292 0
      vertex 1.40536 -7.36715 0
    endloop
  endfacet
  facet normal 0.248689 -0.968583 0
    outer loop
      vertex 2.31763 -7.13292 0
      vertex 1.40536 -7.36715 -4
      vertex 2.31763 -7.13292 -4
    endloop
  endfacet
  facet normal 0.587785 -0.809017 0
    outer loop
      vertex 4.0187 -6.33246 -4
      vertex 4.78068 -5.77885 0
      vertex 4.0187 -6.33246 0
    endloop
  endfacet
  facet normal 0.587785 -0.809017 0
    outer loop
      vertex 4.78068 -5.77885 0
      vertex 4.0187 -6.33246 -4
      vertex 4.78068 -5.77885 -4
    endloop
  endfacet
  facet normal 0.951057 -0.309017 0
    outer loop
      vertex 6.97332 -2.76093 0
      vertex 7.26437 -1.86517 -4
      vertex 7.26437 -1.86517 0
    endloop
  endfacet
  facet normal 0.951057 -0.309017 0
    outer loop
      vertex 7.26437 -1.86517 -4
      vertex 6.97332 -2.76093 0
      vertex 6.97332 -2.76093 -4
    endloop
  endfacet
  facet normal -0.125337 -0.992114 0
    outer loop
      vertex -1.40536 -7.36715 -4
      vertex -0.470928 -7.4852 0
      vertex -1.40536 -7.36715 0
    endloop
  endfacet
  facet normal -0.125337 -0.992114 -0
    outer loop
      vertex -0.470928 -7.4852 0
      vertex -1.40536 -7.36715 -4
      vertex -0.470928 -7.4852 -4
    endloop
  endfacet
  facet normal -0.368126 -0.929776 0
    outer loop
      vertex -3.19334 -6.7862 -4
      vertex -2.31763 -7.13292 0
      vertex -3.19334 -6.7862 0
    endloop
  endfacet
  facet normal -0.368126 -0.929776 -0
    outer loop
      vertex -2.31763 -7.13292 0
      vertex -3.19334 -6.7862 -4
      vertex -2.31763 -7.13292 -4
    endloop
  endfacet
  facet normal -0.248689 -0.968583 0
    outer loop
      vertex -2.31763 -7.13292 -4
      vertex -1.40536 -7.36715 0
      vertex -2.31763 -7.13292 0
    endloop
  endfacet
  facet normal -0.248689 -0.968583 -0
    outer loop
      vertex -1.40536 -7.36715 0
      vertex -2.31763 -7.13292 -4
      vertex -1.40536 -7.36715 -4
    endloop
  endfacet
  facet normal -0.770508 -0.637431 0
    outer loop
      vertex -5.46726 -5.1341 -4
      vertex -6.06763 -4.40839 0
      vertex -6.06763 -4.40839 -4
    endloop
  endfacet
  facet normal -0.770508 -0.637431 0
    outer loop
      vertex -6.06763 -4.40839 0
      vertex -5.46726 -5.1341 -4
      vertex -5.46726 -5.1341 0
    endloop
  endfacet
  facet normal -0.904829 -0.425776 0
    outer loop
      vertex -6.5723 -3.61315 -4
      vertex -6.97332 -2.76093 0
      vertex -6.97332 -2.76093 -4
    endloop
  endfacet
  facet normal -0.904829 -0.425776 0
    outer loop
      vertex -6.97332 -2.76093 0
      vertex -6.5723 -3.61315 -4
      vertex -6.5723 -3.61315 0
    endloop
  endfacet
  facet normal -0.982286 -0.187386 0
    outer loop
      vertex -7.26437 -1.86517 -4
      vertex -7.44086 -0.939999 0
      vertex -7.44086 -0.939999 -4
    endloop
  endfacet
  facet normal -0.982286 -0.187386 0
    outer loop
      vertex -7.44086 -0.939999 0
      vertex -7.26437 -1.86517 -4
      vertex -7.26437 -1.86517 0
    endloop
  endfacet
  facet normal -0.998027 -0.0627908 0
    outer loop
      vertex -7.44086 -0.939999 -4
      vertex -7.5 0 0
      vertex -7.5 0 -4
    endloop
  endfacet
  facet normal -0.998027 -0.0627908 0
    outer loop
      vertex -7.5 0 0
      vertex -7.44086 -0.939999 -4
      vertex -7.44086 -0.939999 0
    endloop
  endfacet
  facet normal -0.481749 -0.876309 0
    outer loop
      vertex -4.0187 -6.33246 -4
      vertex -3.19334 -6.7862 0
      vertex -4.0187 -6.33246 0
    endloop
  endfacet
  facet normal -0.481749 -0.876309 -0
    outer loop
      vertex -3.19334 -6.7862 0
      vertex -4.0187 -6.33246 -4
      vertex -3.19334 -6.7862 -4
    endloop
  endfacet
  facet normal -0.587785 -0.809017 0
    outer loop
      vertex -4.78068 -5.77885 -4
      vertex -4.0187 -6.33246 0
      vertex -4.78068 -5.77885 0
    endloop
  endfacet
  facet normal -0.587785 -0.809017 -0
    outer loop
      vertex -4.0187 -6.33246 0
      vertex -4.78068 -5.77885 -4
      vertex -4.0187 -6.33246 -4
    endloop
  endfacet
  facet normal -0.998027 -0.0627865 0
    outer loop
      vertex 4.6 0 -3
      vertex 4.56373 0.576532 0
      vertex 4.56373 0.576532 -3
    endloop
  endfacet
  facet normal -0.998027 -0.0627865 0
    outer loop
      vertex 4.56373 0.576532 0
      vertex 4.6 0 -3
      vertex 4.6 0 0
    endloop
  endfacet
  facet normal 0.998027 -0.0627865 0
    outer loop
      vertex -4.6 0 0
      vertex -4.56373 0.576532 -3
      vertex -4.56373 0.576532 0
    endloop
  endfacet
  facet normal 0.998027 -0.0627865 0
    outer loop
      vertex -4.56373 0.576532 -3
      vertex -4.6 0 0
      vertex -4.6 0 -3
    endloop
  endfacet
  facet normal 0 -1 0
    outer loop
      vertex -0.288836 4.59092 -3
      vertex 0.288836 4.59092 0
      vertex -0.288836 4.59092 0
    endloop
  endfacet
  facet normal 0 -1 -0
    outer loop
      vertex 0.288836 4.59092 0
      vertex -0.288836 4.59092 -3
      vertex 0.288836 4.59092 -3
    endloop
  endfacet
  facet normal 0 1 -0
    outer loop
      vertex 0.288836 -4.59092 -3
      vertex -0.288836 -4.59092 0
      vertex 0.288836 -4.59092 0
    endloop
  endfacet
  facet normal 0 1 0
    outer loop
      vertex -0.288836 -4.59092 0
      vertex 0.288836 -4.59092 -3
      vertex -0.288836 -4.59092 -3
    endloop
  endfacet
  facet normal -0.684539 -0.728976 0
    outer loop
      vertex 2.93215 3.54436 -3
      vertex 3.35326 3.14892 0
      vertex 2.93215 3.54436 0
    endloop
  endfacet
  facet normal -0.684539 -0.728976 -0
    outer loop
      vertex 3.35326 3.14892 0
      vertex 2.93215 3.54436 -3
      vertex 3.35326 3.14892 -3
    endloop
  endfacet
  facet normal 0.684539 -0.728976 0
    outer loop
      vertex -3.35326 3.14892 -3
      vertex -2.93215 3.54436 0
      vertex -3.35326 3.14892 0
    endloop
  endfacet
  facet normal 0.684539 -0.728976 0
    outer loop
      vertex -2.93215 3.54436 0
      vertex -3.35326 3.14892 -3
      vertex -2.93215 3.54436 -3
    endloop
  endfacet
  facet normal 0.368135 -0.929772 0
    outer loop
      vertex -1.95858 4.1622 -3
      vertex -1.42148 4.37486 0
      vertex -1.95858 4.1622 0
    endloop
  endfacet
  facet normal 0.368135 -0.929772 0
    outer loop
      vertex -1.42148 4.37486 0
      vertex -1.95858 4.1622 -3
      vertex -1.42148 4.37486 -3
    endloop
  endfacet
  facet normal -0.90483 -0.425774 0
    outer loop
      vertex 4.27697 1.69337 -3
      vertex 4.03101 2.21607 0
      vertex 4.03101 2.21607 -3
    endloop
  endfacet
  facet normal -0.90483 -0.425774 0
    outer loop
      vertex 4.03101 2.21607 0
      vertex 4.27697 1.69337 -3
      vertex 4.27697 1.69337 0
    endloop
  endfacet
  facet normal -0.982286 -0.18739 0
    outer loop
      vertex 4.56373 0.576532 -3
      vertex 4.45548 1.14397 0
      vertex 4.45548 1.14397 -3
    endloop
  endfacet
  facet normal -0.982286 -0.18739 0
    outer loop
      vertex 4.45548 1.14397 0
      vertex 4.56373 0.576532 -3
      vertex 4.56373 0.576532 0
    endloop
  endfacet
  facet normal -0.368135 -0.929772 0
    outer loop
      vertex 1.42148 4.37486 -3
      vertex 1.95858 4.1622 0
      vertex 1.42148 4.37486 0
    endloop
  endfacet
  facet normal -0.368135 -0.929772 -0
    outer loop
      vertex 1.95858 4.1622 0
      vertex 1.42148 4.37486 -3
      vertex 1.95858 4.1622 -3
    endloop
  endfacet
  facet normal -0.248687 -0.968584 0
    outer loop
      vertex 0.861954 4.51852 -3
      vertex 1.42148 4.37486 0
      vertex 0.861954 4.51852 0
    endloop
  endfacet
  facet normal -0.248687 -0.968584 -0
    outer loop
      vertex 1.42148 4.37486 0
      vertex 0.861954 4.51852 -3
      vertex 1.42148 4.37486 -3
    endloop
  endfacet
  facet normal -0.587786 -0.809017 0
    outer loop
      vertex 2.4648 3.88391 -3
      vertex 2.93215 3.54436 0
      vertex 2.4648 3.88391 0
    endloop
  endfacet
  facet normal -0.587786 -0.809017 -0
    outer loop
      vertex 2.93215 3.54436 0
      vertex 2.4648 3.88391 -3
      vertex 2.93215 3.54436 -3
    endloop
  endfacet
  facet normal 0.90483 -0.425774 0
    outer loop
      vertex -4.27697 1.69337 0
      vertex -4.03101 2.21607 -3
      vertex -4.03101 2.21607 0
    endloop
  endfacet
  facet normal 0.90483 -0.425774 0
    outer loop
      vertex -4.03101 2.21607 -3
      vertex -4.27697 1.69337 0
      vertex -4.27697 1.69337 -3
    endloop
  endfacet
  facet normal 0.951057 -0.309016 0
    outer loop
      vertex -4.45548 1.14397 0
      vertex -4.27697 1.69337 -3
      vertex -4.27697 1.69337 0
    endloop
  endfacet
  facet normal 0.951057 -0.309016 0
    outer loop
      vertex -4.27697 1.69337 -3
      vertex -4.45548 1.14397 0
      vertex -4.45548 1.14397 -3
    endloop
  endfacet
  facet normal 0.481745 -0.876312 0
    outer loop
      vertex -2.4648 3.88391 -3
      vertex -1.95858 4.1622 0
      vertex -2.4648 3.88391 0
    endloop
  endfacet
  facet normal 0.481745 -0.876312 0
    outer loop
      vertex -1.95858 4.1622 0
      vertex -2.4648 3.88391 -3
      vertex -1.95858 4.1622 -3
    endloop
  endfacet
  facet normal 0.12533 -0.992115 0
    outer loop
      vertex -0.861954 4.51852 -3
      vertex -0.288836 4.59092 0
      vertex -0.861954 4.51852 0
    endloop
  endfacet
  facet normal 0.12533 -0.992115 0
    outer loop
      vertex -0.288836 4.59092 0
      vertex -0.861954 4.51852 -3
      vertex -0.288836 4.59092 -3
    endloop
  endfacet
  facet normal -0.12533 0.992115 0
    outer loop
      vertex 0.861954 -4.51852 -3
      vertex 0.288836 -4.59092 0
      vertex 0.861954 -4.51852 0
    endloop
  endfacet
  facet normal -0.12533 0.992115 0
    outer loop
      vertex 0.288836 -4.59092 0
      vertex 0.861954 -4.51852 -3
      vertex 0.288836 -4.59092 -3
    endloop
  endfacet
  facet normal -0.951057 0.309016 0
    outer loop
      vertex 4.27697 -1.69337 -3
      vertex 4.45548 -1.14397 0
      vertex 4.45548 -1.14397 -3
    endloop
  endfacet
  facet normal -0.951057 0.309016 0
    outer loop
      vertex 4.45548 -1.14397 0
      vertex 4.27697 -1.69337 -3
      vertex 4.27697 -1.69337 0
    endloop
  endfacet
  facet normal -0.951057 -0.309016 0
    outer loop
      vertex 4.45548 1.14397 -3
      vertex 4.27697 1.69337 0
      vertex 4.27697 1.69337 -3
    endloop
  endfacet
  facet normal -0.951057 -0.309016 0
    outer loop
      vertex 4.27697 1.69337 0
      vertex 4.45548 1.14397 -3
      vertex 4.45548 1.14397 0
    endloop
  endfacet
  facet normal -0.770519 -0.637417 0
    outer loop
      vertex 3.72148 2.70381 -3
      vertex 3.35326 3.14892 0
      vertex 3.35326 3.14892 -3
    endloop
  endfacet
  facet normal -0.770519 -0.637417 0
    outer loop
      vertex 3.35326 3.14892 0
      vertex 3.72148 2.70381 -3
      vertex 3.72148 2.70381 0
    endloop
  endfacet
  facet normal -0.844327 -0.535828 0
    outer loop
      vertex 4.03101 2.21607 -3
      vertex 3.72148 2.70381 0
      vertex 3.72148 2.70381 -3
    endloop
  endfacet
  facet normal -0.844327 -0.535828 0
    outer loop
      vertex 3.72148 2.70381 0
      vertex 4.03101 2.21607 -3
      vertex 4.03101 2.21607 0
    endloop
  endfacet
  facet normal -0.12533 -0.992115 0
    outer loop
      vertex 0.288836 4.59092 -3
      vertex 0.861954 4.51852 0
      vertex 0.288836 4.59092 0
    endloop
  endfacet
  facet normal -0.12533 -0.992115 -0
    outer loop
      vertex 0.861954 4.51852 0
      vertex 0.288836 4.59092 -3
      vertex 0.861954 4.51852 -3
    endloop
  endfacet
  facet normal -0.481745 -0.876312 0
    outer loop
      vertex 1.95858 4.1622 -3
      vertex 2.4648 3.88391 0
      vertex 1.95858 4.1622 0
    endloop
  endfacet
  facet normal -0.481745 -0.876312 -0
    outer loop
      vertex 2.4648 3.88391 0
      vertex 1.95858 4.1622 -3
      vertex 2.4648 3.88391 -3
    endloop
  endfacet
  facet normal 0.844327 -0.535828 0
    outer loop
      vertex -4.03101 2.21607 0
      vertex -3.72148 2.70381 -3
      vertex -3.72148 2.70381 0
    endloop
  endfacet
  facet normal 0.844327 -0.535828 0
    outer loop
      vertex -3.72148 2.70381 -3
      vertex -4.03101 2.21607 0
      vertex -4.03101 2.21607 -3
    endloop
  endfacet
  facet normal 0.770519 -0.637417 0
    outer loop
      vertex -3.72148 2.70381 0
      vertex -3.35326 3.14892 -3
      vertex -3.35326 3.14892 0
    endloop
  endfacet
  facet normal 0.770519 -0.637417 0
    outer loop
      vertex -3.35326 3.14892 -3
      vertex -3.72148 2.70381 0
      vertex -3.72148 2.70381 -3
    endloop
  endfacet
  facet normal 0.982286 -0.18739 0
    outer loop
      vertex -4.56373 0.576532 0
      vertex -4.45548 1.14397 -3
      vertex -4.45548 1.14397 0
    endloop
  endfacet
  facet normal 0.982286 -0.18739 0
    outer loop
      vertex -4.45548 1.14397 -3
      vertex -4.56373 0.576532 0
      vertex -4.56373 0.576532 -3
    endloop
  endfacet
  facet normal 0.587786 -0.809017 0
    outer loop
      vertex -2.93215 3.54436 -3
      vertex -2.4648 3.88391 0
      vertex -2.93215 3.54436 0
    endloop
  endfacet
  facet normal 0.587786 -0.809017 0
    outer loop
      vertex -2.4648 3.88391 0
      vertex -2.93215 3.54436 -3
      vertex -2.4648 3.88391 -3
    endloop
  endfacet
  facet normal 0.248687 -0.968584 0
    outer loop
      vertex -1.42148 4.37486 -3
      vertex -0.861954 4.51852 0
      vertex -1.42148 4.37486 0
    endloop
  endfacet
  facet normal 0.248687 -0.968584 0
    outer loop
      vertex -0.861954 4.51852 0
      vertex -1.42148 4.37486 -3
      vertex -0.861954 4.51852 -3
    endloop
  endfacet
  facet normal 0.684539 0.728976 -0
    outer loop
      vertex -2.93215 -3.54436 -3
      vertex -3.35326 -3.14892 0
      vertex -2.93215 -3.54436 0
    endloop
  endfacet
  facet normal 0.684539 0.728976 0
    outer loop
      vertex -3.35326 -3.14892 0
      vertex -2.93215 -3.54436 -3
      vertex -3.35326 -3.14892 -3
    endloop
  endfacet
  facet normal 0.90483 0.425774 0
    outer loop
      vertex -4.03101 -2.21607 0
      vertex -4.27697 -1.69337 -3
      vertex -4.27697 -1.69337 0
    endloop
  endfacet
  facet normal 0.90483 0.425774 0
    outer loop
      vertex -4.27697 -1.69337 -3
      vertex -4.03101 -2.21607 0
      vertex -4.03101 -2.21607 -3
    endloop
  endfacet
  facet normal 0.844327 0.535828 0
    outer loop
      vertex -3.72148 -2.70381 0
      vertex -4.03101 -2.21607 -3
      vertex -4.03101 -2.21607 0
    endloop
  endfacet
  facet normal 0.844327 0.535828 0
    outer loop
      vertex -4.03101 -2.21607 -3
      vertex -3.72148 -2.70381 0
      vertex -3.72148 -2.70381 -3
    endloop
  endfacet
  facet normal 0 0 1
    outer loop
      vertex 4.56373 0.576532 -3
      vertex 4.56373 -0.576532 -3
      vertex 4.6 0 -3
    endloop
  endfacet
  facet normal 0 0 1
    outer loop
      vertex 4.45548 1.14397 -3
      vertex 4.56373 -0.576532 -3
      vertex 4.56373 0.576532 -3
    endloop
  endfacet
  facet normal 0 0 1
    outer loop
      vertex 4.45548 1.14397 -3
      vertex 4.45548 -1.14397 -3
      vertex 4.56373 -0.576532 -3
    endloop
  endfacet
  facet normal 0 0 1
    outer loop
      vertex 4.27697 1.69337 -3
      vertex 4.45548 -1.14397 -3
      vertex 4.45548 1.14397 -3
    endloop
  endfacet
  facet normal 0 0 1
    outer loop
      vertex 4.27697 1.69337 -3
      vertex 4.27697 -1.69337 -3
      vertex 4.45548 -1.14397 -3
    endloop
  endfacet
  facet normal 0 0 1
    outer loop
      vertex 4.03101 2.21607 -3
      vertex 4.27697 -1.69337 -3
      vertex 4.27697 1.69337 -3
    endloop
  endfacet
  facet normal 0 0 1
    outer loop
      vertex 4.03101 2.21607 -3
      vertex 4.03101 -2.21607 -3
      vertex 4.27697 -1.69337 -3
    endloop
  endfacet
  facet normal 0 0 1
    outer loop
      vertex 3.72148 2.70381 -3
      vertex 4.03101 -2.21607 -3
      vertex 4.03101 2.21607 -3
    endloop
  endfacet
  facet normal 0 0 1
    outer loop
      vertex 3.72148 2.70381 -3
      vertex 3.72148 -2.70381 -3
      vertex 4.03101 -2.21607 -3
    endloop
  endfacet
  facet normal 0 0 1
    outer loop
      vertex 3.35326 3.14892 -3
      vertex 3.72148 -2.70381 -3
      vertex 3.72148 2.70381 -3
    endloop
  endfacet
  facet normal 0 0 1
    outer loop
      vertex 3.35326 3.14892 -3
      vertex 3.35326 -3.14892 -3
      vertex 3.72148 -2.70381 -3
    endloop
  endfacet
  facet normal 0 0 1
    outer loop
      vertex 2.93215 3.54436 -3
      vertex 3.35326 -3.14892 -3
      vertex 3.35326 3.14892 -3
    endloop
  endfacet
  facet normal 0 0 1
    outer loop
      vertex 2.93215 3.54436 -3
      vertex 2.93215 -3.54436 -3
      vertex 3.35326 -3.14892 -3
    endloop
  endfacet
  facet normal 0 0 1
    outer loop
      vertex 2.4648 3.88391 -3
      vertex 2.93215 -3.54436 -3
      vertex 2.93215 3.54436 -3
    endloop
  endfacet
  facet normal 0 0 1
    outer loop
      vertex 2.4648 3.88391 -3
      vertex 2.4648 -3.88391 -3
      vertex 2.93215 -3.54436 -3
    endloop
  endfacet
  facet normal 0 0 1
    outer loop
      vertex 1.95858 4.1622 -3
      vertex 2.4648 -3.88391 -3
      vertex 2.4648 3.88391 -3
    endloop
  endfacet
  facet normal 0 0 1
    outer loop
      vertex 1.95858 4.1622 -3
      vertex 1.95858 -4.1622 -3
      vertex 2.4648 -3.88391 -3
    endloop
  endfacet
  facet normal 0 0 1
    outer loop
      vertex 1.42148 4.37486 -3
      vertex 1.95858 -4.1622 -3
      vertex 1.95858 4.1622 -3
    endloop
  endfacet
  facet normal 0 0 1
    outer loop
      vertex 1.42148 4.37486 -3
      vertex 1.42148 -4.37486 -3
      vertex 1.95858 -4.1622 -3
    endloop
  endfacet
  facet normal 0 0 1
    outer loop
      vertex 0.861954 4.51852 -3
      vertex 1.42148 -4.37486 -3
      vertex 1.42148 4.37486 -3
    endloop
  endfacet
  facet normal 0 0 1
    outer loop
      vertex 0.861954 4.51852 -3
      vertex 0.861954 -4.51852 -3
      vertex 1.42148 -4.37486 -3
    endloop
  endfacet
  facet normal 0 0 1
    outer loop
      vertex 0.288836 4.59092 -3
      vertex 0.861954 -4.51852 -3
      vertex 0.861954 4.51852 -3
    endloop
  endfacet
  facet normal 0 0 1
    outer loop
      vertex 0.288836 4.59092 -3
      vertex 0.288836 -4.59092 -3
      vertex 0.861954 -4.51852 -3
    endloop
  endfacet
  facet normal -0 0 1
    outer loop
      vertex -0.288836 4.59092 -3
      vertex 0.288836 -4.59092 -3
      vertex 0.288836 4.59092 -3
    endloop
  endfacet
  facet normal 0 0 1
    outer loop
      vertex -0.288836 4.59092 -3
      vertex -0.288836 -4.59092 -3
      vertex 0.288836 -4.59092 -3
    endloop
  endfacet
  facet normal -0 0 1
    outer loop
      vertex -0.861954 4.51852 -3
      vertex -0.288836 -4.59092 -3
      vertex -0.288836 4.59092 -3
    endloop
  endfacet
  facet normal 0 0 1
    outer loop
      vertex -0.861954 4.51852 -3
      vertex -0.861954 -4.51852 -3
      vertex -0.288836 -4.59092 -3
    endloop
  endfacet
  facet normal -0 0 1
    outer loop
      vertex -1.42148 4.37486 -3
      vertex -0.861954 -4.51852 -3
      vertex -0.861954 4.51852 -3
    endloop
  endfacet
  facet normal 0 0 1
    outer loop
      vertex -1.42148 4.37486 -3
      vertex -1.42148 -4.37486 -3
      vertex -0.861954 -4.51852 -3
    endloop
  endfacet
  facet normal -0 0 1
    outer loop
      vertex -1.95858 4.1622 -3
      vertex -1.42148 -4.37486 -3
      vertex -1.42148 4.37486 -3
    endloop
  endfacet
  facet normal 0 0 1
    outer loop
      vertex -1.95858 4.1622 -3
      vertex -1.95858 -4.1622 -3
      vertex -1.42148 -4.37486 -3
    endloop
  endfacet
  facet normal -0 0 1
    outer loop
      vertex -2.4648 3.88391 -3
      vertex -1.95858 -4.1622 -3
      vertex -1.95858 4.1622 -3
    endloop
  endfacet
  facet normal 0 0 1
    outer loop
      vertex -2.4648 3.88391 -3
      vertex -2.4648 -3.88391 -3
      vertex -1.95858 -4.1622 -3
    endloop
  endfacet
  facet normal -0 0 1
    outer loop
      vertex -2.93215 3.54436 -3
      vertex -2.4648 -3.88391 -3
      vertex -2.4648 3.88391 -3
    endloop
  endfacet
  facet normal 0 0 1
    outer loop
      vertex -2.93215 3.54436 -3
      vertex -2.93215 -3.54436 -3
      vertex -2.4648 -3.88391 -3
    endloop
  endfacet
  facet normal -0 0 1
    outer loop
      vertex -3.35326 3.14892 -3
      vertex -2.93215 -3.54436 -3
      vertex -2.93215 3.54436 -3
    endloop
  endfacet
  facet normal 0 0 1
    outer loop
      vertex -3.35326 3.14892 -3
      vertex -3.35326 -3.14892 -3
      vertex -2.93215 -3.54436 -3
    endloop
  endfacet
  facet normal -0 0 1
    outer loop
      vertex -3.72148 2.70381 -3
      vertex -3.35326 -3.14892 -3
      vertex -3.35326 3.14892 -3
    endloop
  endfacet
  facet normal 0 0 1
    outer loop
      vertex -3.72148 2.70381 -3
      vertex -3.72148 -2.70381 -3
      vertex -3.35326 -3.14892 -3
    endloop
  endfacet
  facet normal -0 0 1
    outer loop
      vertex -4.03101 2.21607 -3
      vertex -3.72148 -2.70381 -3
      vertex -3.72148 2.70381 -3
    endloop
  endfacet
  facet normal 0 0 1
    outer loop
      vertex -4.03101 2.21607 -3
      vertex -4.03101 -2.21607 -3
      vertex -3.72148 -2.70381 -3
    endloop
  endfacet
  facet normal -0 0 1
    outer loop
      vertex -4.27697 1.69337 -3
      vertex -4.03101 -2.21607 -3
      vertex -4.03101 2.21607 -3
    endloop
  endfacet
  facet normal 0 0 1
    outer loop
      vertex -4.27697 1.69337 -3
      vertex -4.27697 -1.69337 -3
      vertex -4.03101 -2.21607 -3
    endloop
  endfacet
  facet normal -0 0 1
    outer loop
      vertex -4.45548 1.14397 -3
      vertex -4.27697 -1.69337 -3
      vertex -4.27697 1.69337 -3
    endloop
  endfacet
  facet normal 0 0 1
    outer loop
      vertex -4.45548 1.14397 -3
      vertex -4.45548 -1.14397 -3
      vertex -4.27697 -1.69337 -3
    endloop
  endfacet
  facet normal -0 0 1
    outer loop
      vertex -4.56373 0.576532 -3
      vertex -4.45548 -1.14397 -3
      vertex -4.45548 1.14397 -3
    endloop
  endfacet
  facet normal 0 0 1
    outer loop
      vertex -4.56373 0.576532 -3
      vertex -4.56373 -0.576532 -3
      vertex -4.45548 -1.14397 -3
    endloop
  endfacet
  facet normal 0 -0 1
    outer loop
      vertex -4.56373 -0.576532 -3
      vertex -4.56373 0.576532 -3
      vertex -4.6 0 -3
    endloop
  endfacet
  facet normal -0.481745 0.876312 0
    outer loop
      vertex 2.4648 -3.88391 -3
      vertex 1.95858 -4.1622 0
      vertex 2.4648 -3.88391 0
    endloop
  endfacet
  facet normal -0.481745 0.876312 0
    outer loop
      vertex 1.95858 -4.1622 0
      vertex 2.4648 -3.88391 -3
      vertex 1.95858 -4.1622 -3
    endloop
  endfacet
  facet normal -0.90483 0.425774 0
    outer loop
      vertex 4.03101 -2.21607 -3
      vertex 4.27697 -1.69337 0
      vertex 4.27697 -1.69337 -3
    endloop
  endfacet
  facet normal -0.90483 0.425774 0
    outer loop
      vertex 4.27697 -1.69337 0
      vertex 4.03101 -2.21607 -3
      vertex 4.03101 -2.21607 0
    endloop
  endfacet
  facet normal -0.982286 0.18739 0
    outer loop
      vertex 4.45548 -1.14397 -3
      vertex 4.56373 -0.576532 0
      vertex 4.56373 -0.576532 -3
    endloop
  endfacet
  facet normal -0.982286 0.18739 0
    outer loop
      vertex 4.56373 -0.576532 0
      vertex 4.45548 -1.14397 -3
      vertex 4.45548 -1.14397 0
    endloop
  endfacet
  facet normal -0.998027 0.0627865 0
    outer loop
      vertex 4.56373 -0.576532 -3
      vertex 4.6 0 0
      vertex 4.6 0 -3
    endloop
  endfacet
  facet normal -0.998027 0.0627865 0
    outer loop
      vertex 4.6 0 0
      vertex 4.56373 -0.576532 -3
      vertex 4.56373 -0.576532 0
    endloop
  endfacet
  facet normal 0.770519 0.637417 0
    outer loop
      vertex -3.35326 -3.14892 0
      vertex -3.72148 -2.70381 -3
      vertex -3.72148 -2.70381 0
    endloop
  endfacet
  facet normal 0.770519 0.637417 0
    outer loop
      vertex -3.72148 -2.70381 -3
      vertex -3.35326 -3.14892 0
      vertex -3.35326 -3.14892 -3
    endloop
  endfacet
  facet normal 0.951057 0.309016 0
    outer loop
      vertex -4.27697 -1.69337 0
      vertex -4.45548 -1.14397 -3
      vertex -4.45548 -1.14397 0
    endloop
  endfacet
  facet normal 0.951057 0.309016 0
    outer loop
      vertex -4.45548 -1.14397 -3
      vertex -4.27697 -1.69337 0
      vertex -4.27697 -1.69337 -3
    endloop
  endfacet
  facet normal -0.368135 0.929772 0
    outer loop
      vertex 1.95858 -4.1622 -3
      vertex 1.42148 -4.37486 0
      vertex 1.95858 -4.1622 0
    endloop
  endfacet
  facet normal -0.368135 0.929772 0
    outer loop
      vertex 1.42148 -4.37486 0
      vertex 1.95858 -4.1622 -3
      vertex 1.42148 -4.37486 -3
    endloop
  endfacet
  facet normal -0.248687 0.968584 0
    outer loop
      vertex 1.42148 -4.37486 -3
      vertex 0.861954 -4.51852 0
      vertex 1.42148 -4.37486 0
    endloop
  endfacet
  facet normal -0.248687 0.968584 0
    outer loop
      vertex 0.861954 -4.51852 0
      vertex 1.42148 -4.37486 -3
      vertex 0.861954 -4.51852 -3
    endloop
  endfacet
  facet normal -0.770519 0.637417 0
    outer loop
      vertex 3.35326 -3.14892 -3
      vertex 3.72148 -2.70381 0
      vertex 3.72148 -2.70381 -3
    endloop
  endfacet
  facet normal -0.770519 0.637417 0
    outer loop
      vertex 3.72148 -2.70381 0
      vertex 3.35326 -3.14892 -3
      vertex 3.35326 -3.14892 0
    endloop
  endfacet
  facet normal -0.587786 0.809017 0
    outer loop
      vertex 2.93215 -3.54436 -3
      vertex 2.4648 -3.88391 0
      vertex 2.93215 -3.54436 0
    endloop
  endfacet
  facet normal -0.587786 0.809017 0
    outer loop
      vertex 2.4648 -3.88391 0
      vertex 2.93215 -3.54436 -3
      vertex 2.4648 -3.88391 -3
    endloop
  endfacet
  facet normal 0.12533 0.992115 -0
    outer loop
      vertex -0.288836 -4.59092 -3
      vertex -0.861954 -4.51852 0
      vertex -0.288836 -4.59092 0
    endloop
  endfacet
  facet normal 0.12533 0.992115 0
    outer loop
      vertex -0.861954 -4.51852 0
      vertex -0.288836 -4.59092 -3
      vertex -0.861954 -4.51852 -3
    endloop
  endfacet
  facet normal 0.368135 0.929772 -0
    outer loop
      vertex -1.42148 -4.37486 -3
      vertex -1.95858 -4.1622 0
      vertex -1.42148 -4.37486 0
    endloop
  endfacet
  facet normal 0.368135 0.929772 0
    outer loop
      vertex -1.95858 -4.1622 0
      vertex -1.42148 -4.37486 -3
      vertex -1.95858 -4.1622 -3
    endloop
  endfacet
  facet normal 0.248687 0.968584 -0
    outer loop
      vertex -0.861954 -4.51852 -3
      vertex -1.42148 -4.37486 0
      vertex -0.861954 -4.51852 0
    endloop
  endfacet
  facet normal 0.248687 0.968584 0
    outer loop
      vertex -1.42148 -4.37486 0
      vertex -0.861954 -4.51852 -3
      vertex -1.42148 -4.37486 -3
    endloop
  endfacet
  facet normal 0.982286 0.18739 0
    outer loop
      vertex -4.45548 -1.14397 0
      vertex -4.56373 -0.576532 -3
      vertex -4.56373 -0.576532 0
    endloop
  endfacet
  facet normal 0.982286 0.18739 0
    outer loop
      vertex -4.56373 -0.576532 -3
      vertex -4.45548 -1.14397 0
      vertex -4.45548 -1.14397 -3
    endloop
  endfacet
  facet normal 0.998027 0.0627865 0
    outer loop
      vertex -4.56373 -0.576532 0
      vertex -4.6 0 -3
      vertex -4.6 0 0
    endloop
  endfacet
  facet normal 0.998027 0.0627865 0
    outer loop
      vertex -4.6 0 -3
      vertex -4.56373 -0.576532 0
      vertex -4.56373 -0.576532 -3
    endloop
  endfacet
  facet normal -0.844327 0.535828 0
    outer loop
      vertex 3.72148 -2.70381 -3
      vertex 4.03101 -2.21607 0
      vertex 4.03101 -2.21607 -3
    endloop
  endfacet
  facet normal -0.844327 0.535828 0
    outer loop
      vertex 4.03101 -2.21607 0
      vertex 3.72148 -2.70381 -3
      vertex 3.72148 -2.70381 0
    endloop
  endfacet
  facet normal -0.684539 0.728976 0
    outer loop
      vertex 3.35326 -3.14892 -3
      vertex 2.93215 -3.54436 0
      vertex 3.35326 -3.14892 0
    endloop
  endfacet
  facet normal -0.684539 0.728976 0
    outer loop
      vertex 2.93215 -3.54436 0
      vertex 3.35326 -3.14892 -3
      vertex 2.93215 -3.54436 -3
    endloop
  endfacet
  facet normal 0.587786 0.809017 -0
    outer loop
      vertex -2.4648 -3.88391 -3
      vertex -2.93215 -3.54436 0
      vertex -2.4648 -3.88391 0
    endloop
  endfacet
  facet normal 0.587786 0.809017 0
    outer loop
      vertex -2.93215 -3.54436 0
      vertex -2.4648 -3.88391 -3
      vertex -2.93215 -3.54436 -3
    endloop
  endfacet
  facet normal 0.481745 0.876312 -0
    outer loop
      vertex -1.95858 -4.1622 -3
      vertex -2.4648 -3.88391 0
      vertex -1.95858 -4.1622 0
    endloop
  endfacet
  facet normal 0.481745 0.876312 0
    outer loop
      vertex -2.4648 -3.88391 0
      vertex -1.95858 -4.1622 -3
      vertex -2.4648 -3.88391 -3
    endloop
  endfacet
endsolid OpenSCAD_Model
