solid OpenSCAD_Model
  facet normal 0.998027 0.0627883 0
    outer loop
      vertex 10 0 -6
      vertex 9.92115 1.25333 -54
      vertex 9.92115 1.25333 -6
    endloop
  endfacet
  facet normal 0.998027 0.0627883 0
    outer loop
      vertex 9.92115 1.25333 -54
      vertex 10 0 -6
      vertex 10 0 -54
    endloop
  endfacet
  facet normal -0.998027 0.0627883 0
    outer loop
      vertex -10 0 -54
      vertex -9.92115 1.25333 -6
      vertex -9.92115 1.25333 -54
    endloop
  endfacet
  facet normal -0.998027 0.0627883 0
    outer loop
      vertex -9.92115 1.25333 -6
      vertex -10 0 -54
      vertex -10 0 -6
    endloop
  endfacet
  facet normal 0 1 -0
    outer loop
      vertex 0.627905 9.98027 -54
      vertex -0.627905 9.98027 -6
      vertex 0.627905 9.98027 -6
    endloop
  endfacet
  facet normal 0 1 0
    outer loop
      vertex -0.627905 9.98027 -6
      vertex 0.627905 9.98027 -54
      vertex -0.627905 9.98027 -54
    endloop
  endfacet
  facet normal 0 -1 0
    outer loop
      vertex -0.627905 -9.98027 -54
      vertex 0.627905 -9.98027 -6
      vertex -0.627905 -9.98027 -6
    endloop
  endfacet
  facet normal 0 -1 -0
    outer loop
      vertex 0.627905 -9.98027 -6
      vertex -0.627905 -9.98027 -54
      vertex 0.627905 -9.98027 -54
    endloop
  endfacet
  facet normal 0.684545 0.728971 -0
    outer loop
      vertex 7.28969 6.84547 -54
      vertex 6.37424 7.70513 -6
      vertex 7.28969 6.84547 -6
    endloop
  endfacet
  facet normal 0.684545 0.728971 0
    outer loop
      vertex 6.37424 7.70513 -6
      vertex 7.28969 6.84547 -54
      vertex 6.37424 7.70513 -54
    endloop
  endfacet
  facet normal -0.684545 0.728971 0
    outer loop
      vertex -6.37424 7.70513 -54
      vertex -7.28969 6.84547 -6
      vertex -6.37424 7.70513 -6
    endloop
  endfacet
  facet normal -0.684545 0.728971 0
    outer loop
      vertex -7.28969 6.84547 -6
      vertex -6.37424 7.70513 -54
      vertex -7.28969 6.84547 -54
    endloop
  endfacet
  facet normal -0.368122 0.929777 0
    outer loop
      vertex -3.09017 9.51056 -54
      vertex -4.25779 9.04827 -6
      vertex -3.09017 9.51056 -6
    endloop
  endfacet
  facet normal -0.368122 0.929777 0
    outer loop
      vertex -4.25779 9.04827 -6
      vertex -3.09017 9.51056 -54
      vertex -4.25779 9.04827 -54
    endloop
  endfacet
  facet normal 0.904831 0.425771 0
    outer loop
      vertex 9.29776 3.68124 -6
      vertex 8.76307 4.81754 -54
      vertex 8.76307 4.81754 -6
    endloop
  endfacet
  facet normal 0.904831 0.425771 0
    outer loop
      vertex 8.76307 4.81754 -54
      vertex 9.29776 3.68124 -6
      vertex 9.29776 3.68124 -54
    endloop
  endfacet
  facet normal 0.844325 0.535831 0
    outer loop
      vertex 8.76307 4.81754 -6
      vertex 8.09017 5.87785 -54
      vertex 8.09017 5.87785 -6
    endloop
  endfacet
  facet normal 0.844325 0.535831 0
    outer loop
      vertex 8.09017 5.87785 -54
      vertex 8.76307 4.81754 -6
      vertex 8.76307 4.81754 -54
    endloop
  endfacet
  facet normal 0.368122 0.929777 -0
    outer loop
      vertex 4.25779 9.04827 -54
      vertex 3.09017 9.51056 -6
      vertex 4.25779 9.04827 -6
    endloop
  endfacet
  facet normal 0.368122 0.929777 0
    outer loop
      vertex 3.09017 9.51056 -6
      vertex 4.25779 9.04827 -54
      vertex 3.09017 9.51056 -54
    endloop
  endfacet
  facet normal 0.248691 0.968583 -0
    outer loop
      vertex 3.09017 9.51056 -54
      vertex 1.87381 9.82287 -6
      vertex 3.09017 9.51056 -6
    endloop
  endfacet
  facet normal 0.248691 0.968583 0
    outer loop
      vertex 1.87381 9.82287 -6
      vertex 3.09017 9.51056 -54
      vertex 1.87381 9.82287 -54
    endloop
  endfacet
  facet normal 0.481751 0.876308 -0
    outer loop
      vertex 5.35827 8.44328 -54
      vertex 4.25779 9.04827 -6
      vertex 5.35827 8.44328 -6
    endloop
  endfacet
  facet normal 0.481751 0.876308 0
    outer loop
      vertex 4.25779 9.04827 -6
      vertex 5.35827 8.44328 -54
      vertex 4.25779 9.04827 -54
    endloop
  endfacet
  facet normal -0.904831 0.425771 0
    outer loop
      vertex -9.29776 3.68124 -54
      vertex -8.76307 4.81754 -6
      vertex -8.76307 4.81754 -54
    endloop
  endfacet
  facet normal -0.904831 0.425771 0
    outer loop
      vertex -8.76307 4.81754 -6
      vertex -9.29776 3.68124 -54
      vertex -9.29776 3.68124 -6
    endloop
  endfacet
  facet normal -0.770515 0.637422 0
    outer loop
      vertex -8.09017 5.87785 -54
      vertex -7.28969 6.84547 -6
      vertex -7.28969 6.84547 -54
    endloop
  endfacet
  facet normal -0.770515 0.637422 0
    outer loop
      vertex -7.28969 6.84547 -6
      vertex -8.09017 5.87785 -54
      vertex -8.09017 5.87785 -6
    endloop
  endfacet
  facet normal -0.951055 0.309021 0
    outer loop
      vertex -9.68583 2.4869 -54
      vertex -9.29776 3.68124 -6
      vertex -9.29776 3.68124 -54
    endloop
  endfacet
  facet normal -0.951055 0.309021 0
    outer loop
      vertex -9.29776 3.68124 -6
      vertex -9.68583 2.4869 -54
      vertex -9.68583 2.4869 -6
    endloop
  endfacet
  facet normal -0.481751 0.876308 0
    outer loop
      vertex -4.25779 9.04827 -54
      vertex -5.35827 8.44328 -6
      vertex -4.25779 9.04827 -6
    endloop
  endfacet
  facet normal -0.481751 0.876308 0
    outer loop
      vertex -5.35827 8.44328 -6
      vertex -4.25779 9.04827 -54
      vertex -5.35827 8.44328 -54
    endloop
  endfacet
  facet normal -0.125338 0.992114 0
    outer loop
      vertex -0.627905 9.98027 -54
      vertex -1.87381 9.82287 -6
      vertex -0.627905 9.98027 -6
    endloop
  endfacet
  facet normal -0.125338 0.992114 0
    outer loop
      vertex -1.87381 9.82287 -6
      vertex -0.627905 9.98027 -54
      vertex -1.87381 9.82287 -54
    endloop
  endfacet
  facet normal 0.125338 -0.992114 0
    outer loop
      vertex 0.627905 -9.98027 -54
      vertex 1.87381 -9.82287 -6
      vertex 0.627905 -9.98027 -6
    endloop
  endfacet
  facet normal 0.125338 -0.992114 0
    outer loop
      vertex 1.87381 -9.82287 -6
      vertex 0.627905 -9.98027 -54
      vertex 1.87381 -9.82287 -54
    endloop
  endfacet
  facet normal 0.368122 -0.929777 0
    outer loop
      vertex 3.09017 -9.51056 -54
      vertex 4.25779 -9.04827 -6
      vertex 3.09017 -9.51056 -6
    endloop
  endfacet
  facet normal 0.368122 -0.929777 0
    outer loop
      vertex 4.25779 -9.04827 -6
      vertex 3.09017 -9.51056 -54
      vertex 4.25779 -9.04827 -54
    endloop
  endfacet
  facet normal 0.951055 0.309021 0
    outer loop
      vertex 9.68583 2.4869 -6
      vertex 9.29776 3.68124 -54
      vertex 9.29776 3.68124 -6
    endloop
  endfacet
  facet normal 0.951055 0.309021 0
    outer loop
      vertex 9.29776 3.68124 -54
      vertex 9.68583 2.4869 -6
      vertex 9.68583 2.4869 -54
    endloop
  endfacet
  facet normal 0.982287 0.187384 0
    outer loop
      vertex 9.92115 1.25333 -6
      vertex 9.68583 2.4869 -54
      vertex 9.68583 2.4869 -6
    endloop
  endfacet
  facet normal 0.982287 0.187384 0
    outer loop
      vertex 9.68583 2.4869 -54
      vertex 9.92115 1.25333 -6
      vertex 9.92115 1.25333 -54
    endloop
  endfacet
  facet normal 0.770515 0.637422 0
    outer loop
      vertex 8.09017 5.87785 -6
      vertex 7.28969 6.84547 -54
      vertex 7.28969 6.84547 -6
    endloop
  endfacet
  facet normal 0.770515 0.637422 0
    outer loop
      vertex 7.28969 6.84547 -54
      vertex 8.09017 5.87785 -6
      vertex 8.09017 5.87785 -54
    endloop
  endfacet
  facet normal 0.125338 0.992114 -0
    outer loop
      vertex 1.87381 9.82287 -54
      vertex 0.627905 9.98027 -6
      vertex 1.87381 9.82287 -6
    endloop
  endfacet
  facet normal 0.125338 0.992114 0
    outer loop
      vertex 0.627905 9.98027 -6
      vertex 1.87381 9.82287 -54
      vertex 0.627905 9.98027 -54
    endloop
  endfacet
  facet normal 0.587788 0.809015 -0
    outer loop
      vertex 6.37424 7.70513 -54
      vertex 5.35827 8.44328 -6
      vertex 6.37424 7.70513 -6
    endloop
  endfacet
  facet normal 0.587788 0.809015 0
    outer loop
      vertex 5.35827 8.44328 -6
      vertex 6.37424 7.70513 -54
      vertex 5.35827 8.44328 -54
    endloop
  endfacet
  facet normal -0.844325 0.535831 0
    outer loop
      vertex -8.76307 4.81754 -54
      vertex -8.09017 5.87785 -6
      vertex -8.09017 5.87785 -54
    endloop
  endfacet
  facet normal -0.844325 0.535831 0
    outer loop
      vertex -8.09017 5.87785 -6
      vertex -8.76307 4.81754 -54
      vertex -8.76307 4.81754 -6
    endloop
  endfacet
  facet normal -0.982287 0.187384 0
    outer loop
      vertex -9.92115 1.25333 -54
      vertex -9.68583 2.4869 -6
      vertex -9.68583 2.4869 -54
    endloop
  endfacet
  facet normal -0.982287 0.187384 0
    outer loop
      vertex -9.68583 2.4869 -6
      vertex -9.92115 1.25333 -54
      vertex -9.92115 1.25333 -6
    endloop
  endfacet
  facet normal 0 0 1
    outer loop
      vertex 2.25 0 0
      vertex 16 0 0
      vertex 15.8738 2.00533 0
    endloop
  endfacet
  facet normal 0 0 1
    outer loop
      vertex 2.23226 0.282 0
      vertex 15.8738 2.00533 0
      vertex 15.4973 3.97904 0
    endloop
  endfacet
  facet normal 0 0 1
    outer loop
      vertex 16 0 0
      vertex 2.25 0 0
      vertex 15.8738 -2.00533 0
    endloop
  endfacet
  facet normal 0 0 1
    outer loop
      vertex 2.17931 0.559552 0
      vertex 15.4973 3.97904 0
      vertex 14.8764 5.88999 0
    endloop
  endfacet
  facet normal -0 0 1
    outer loop
      vertex 2.23226 -0.282 0
      vertex 15.8738 -2.00533 0
      vertex 2.25 0 0
    endloop
  endfacet
  facet normal 0 0 1
    outer loop
      vertex 2.092 0.828279 0
      vertex 14.8764 5.88999 0
      vertex 14.0209 7.70806 0
    endloop
  endfacet
  facet normal 0 0 1
    outer loop
      vertex 15.8738 -2.00533 0
      vertex 2.23226 -0.282 0
      vertex 15.4973 -3.97904 0
    endloop
  endfacet
  facet normal 0 0 1
    outer loop
      vertex 1.97169 1.08395 0
      vertex 14.0209 7.70806 0
      vertex 12.9443 9.40456 0
    endloop
  endfacet
  facet normal -0 0 1
    outer loop
      vertex 2.17931 -0.559552 0
      vertex 15.4973 -3.97904 0
      vertex 2.23226 -0.282 0
    endloop
  endfacet
  facet normal 0 0 1
    outer loop
      vertex 1.82029 1.32252 0
      vertex 12.9443 9.40456 0
      vertex 11.6635 10.9528 0
    endloop
  endfacet
  facet normal 0 0 1
    outer loop
      vertex 15.4973 -3.97904 0
      vertex 2.17931 -0.559552 0
      vertex 14.8764 -5.88999 0
    endloop
  endfacet
  facet normal 0 0 1
    outer loop
      vertex 1.64018 1.54023 0
      vertex 11.6635 10.9528 0
      vertex 10.1988 12.3282 0
    endloop
  endfacet
  facet normal -0 0 1
    outer loop
      vertex 2.092 -0.828279 0
      vertex 14.8764 -5.88999 0
      vertex 2.17931 -0.559552 0
    endloop
  endfacet
  facet normal 0 0 1
    outer loop
      vertex 1.4342 1.73365 0
      vertex 10.1988 12.3282 0
      vertex 8.57323 13.5092 0
    endloop
  endfacet
  facet normal 0 0 1
    outer loop
      vertex 14.8764 -5.88999 0
      vertex 2.092 -0.828279 0
      vertex 14.0209 -7.70806 0
    endloop
  endfacet
  facet normal 0 0 1
    outer loop
      vertex 1.20561 1.89974 0
      vertex 8.57323 13.5092 0
      vertex 6.81247 14.4772 0
    endloop
  endfacet
  facet normal -0 0 1
    outer loop
      vertex 1.97169 -1.08395 0
      vertex 14.0209 -7.70806 0
      vertex 2.092 -0.828279 0
    endloop
  endfacet
  facet normal 0 0 1
    outer loop
      vertex 0.958003 2.03586 0
      vertex 6.81247 14.4772 0
      vertex 4.94427 15.2169 0
    endloop
  endfacet
  facet normal 0 0 1
    outer loop
      vertex 14.0209 -7.70806 0
      vertex 1.97169 -1.08395 0
      vertex 12.9443 -9.40456 0
    endloop
  endfacet
  facet normal 0 0 1
    outer loop
      vertex 0.695288 2.13988 0
      vertex 4.94427 15.2169 0
      vertex 2.9981 15.7166 0
    endloop
  endfacet
  facet normal -0 0 1
    outer loop
      vertex 1.82029 -1.32252 0
      vertex 12.9443 -9.40456 0
      vertex 1.97169 -1.08395 0
    endloop
  endfacet
  facet normal 0 0 1
    outer loop
      vertex 12.9443 -9.40456 0
      vertex 1.82029 -1.32252 0
      vertex 11.6635 -10.9528 0
    endloop
  endfacet
  facet normal 0 0 1
    outer loop
      vertex 15.8738 2.00533 0
      vertex 2.23226 0.282 0
      vertex 2.25 0 0
    endloop
  endfacet
  facet normal 0 0 1
    outer loop
      vertex 15.4973 3.97904 0
      vertex 2.17931 0.559552 0
      vertex 2.23226 0.282 0
    endloop
  endfacet
  facet normal 0 0 1
    outer loop
      vertex 14.8764 5.88999 0
      vertex 2.092 0.828279 0
      vertex 2.17931 0.559552 0
    endloop
  endfacet
  facet normal 0 0 1
    outer loop
      vertex 14.0209 7.70806 0
      vertex 1.97169 1.08395 0
      vertex 2.092 0.828279 0
    endloop
  endfacet
  facet normal 0 0 1
    outer loop
      vertex 12.9443 9.40456 0
      vertex 1.82029 1.32252 0
      vertex 1.97169 1.08395 0
    endloop
  endfacet
  facet normal 0 0 1
    outer loop
      vertex 11.6635 10.9528 0
      vertex 1.64018 1.54023 0
      vertex 1.82029 1.32252 0
    endloop
  endfacet
  facet normal 0 0 1
    outer loop
      vertex 10.1988 12.3282 0
      vertex 1.4342 1.73365 0
      vertex 1.64018 1.54023 0
    endloop
  endfacet
  facet normal 0 0 1
    outer loop
      vertex 8.57323 13.5092 0
      vertex 1.20561 1.89974 0
      vertex 1.4342 1.73365 0
    endloop
  endfacet
  facet normal 0 0 1
    outer loop
      vertex 0.421607 2.21015 0
      vertex 2.9981 15.7166 0
      vertex 1.00465 15.9684 0
    endloop
  endfacet
  facet normal 0 0 1
    outer loop
      vertex 6.81247 14.4772 0
      vertex 0.958003 2.03586 0
      vertex 1.20561 1.89974 0
    endloop
  endfacet
  facet normal 0 0 1
    outer loop
      vertex 4.94427 15.2169 0
      vertex 0.695288 2.13988 0
      vertex 0.958003 2.03586 0
    endloop
  endfacet
  facet normal 0 0 1
    outer loop
      vertex 2.9981 15.7166 0
      vertex 0.421607 2.21015 0
      vertex 0.695288 2.13988 0
    endloop
  endfacet
  facet normal 0 0 1
    outer loop
      vertex 1.00465 15.9684 0
      vertex 0.141278 2.24556 0
      vertex 0.421607 2.21015 0
    endloop
  endfacet
  facet normal 0 0 1
    outer loop
      vertex 1.00465 15.9684 0
      vertex -0.141278 2.24556 0
      vertex 0.141278 2.24556 0
    endloop
  endfacet
  facet normal -0 0 1
    outer loop
      vertex -1.00465 15.9684 0
      vertex -0.141278 2.24556 0
      vertex 1.00465 15.9684 0
    endloop
  endfacet
  facet normal 0 0 1
    outer loop
      vertex -0.141278 2.24556 0
      vertex -1.00465 15.9684 0
      vertex -0.421607 2.21015 0
    endloop
  endfacet
  facet normal -0 0 1
    outer loop
      vertex -2.9981 15.7166 0
      vertex -0.421607 2.21015 0
      vertex -1.00465 15.9684 0
    endloop
  endfacet
  facet normal 0 0 1
    outer loop
      vertex -0.421607 2.21015 0
      vertex -2.9981 15.7166 0
      vertex -0.695288 2.13988 0
    endloop
  endfacet
  facet normal -0 0 1
    outer loop
      vertex -4.94427 15.2169 0
      vertex -0.695288 2.13988 0
      vertex -2.9981 15.7166 0
    endloop
  endfacet
  facet normal 0 0 1
    outer loop
      vertex -0.695288 2.13988 0
      vertex -4.94427 15.2169 0
      vertex -0.958003 2.03586 0
    endloop
  endfacet
  facet normal -0 0 1
    outer loop
      vertex -6.81247 14.4772 0
      vertex -0.958003 2.03586 0
      vertex -4.94427 15.2169 0
    endloop
  endfacet
  facet normal 0 0 1
    outer loop
      vertex -0.958003 2.03586 0
      vertex -6.81247 14.4772 0
      vertex -1.20561 1.89974 0
    endloop
  endfacet
  facet normal -0 0 1
    outer loop
      vertex -8.57323 13.5092 0
      vertex -1.20561 1.89974 0
      vertex -6.81247 14.4772 0
    endloop
  endfacet
  facet normal 0 0 1
    outer loop
      vertex -1.20561 1.89974 0
      vertex -8.57323 13.5092 0
      vertex -1.4342 1.73365 0
    endloop
  endfacet
  facet normal -0 0 1
    outer loop
      vertex -10.1988 12.3282 0
      vertex -1.4342 1.73365 0
      vertex -8.57323 13.5092 0
    endloop
  endfacet
  facet normal 0 0 1
    outer loop
      vertex -1.4342 1.73365 0
      vertex -10.1988 12.3282 0
      vertex -1.64018 1.54023 0
    endloop
  endfacet
  facet normal 0 0 1
    outer loop
      vertex -1.64018 1.54023 0
      vertex -11.6635 10.9528 0
      vertex -1.82029 1.32252 0
    endloop
  endfacet
  facet normal -0 0 1
    outer loop
      vertex -11.6635 10.9528 0
      vertex -1.64018 1.54023 0
      vertex -10.1988 12.3282 0
    endloop
  endfacet
  facet normal -0 0 1
    outer loop
      vertex 1.64018 -1.54023 0
      vertex 11.6635 -10.9528 0
      vertex 1.82029 -1.32252 0
    endloop
  endfacet
  facet normal 0 0 1
    outer loop
      vertex 11.6635 -10.9528 0
      vertex 1.64018 -1.54023 0
      vertex 10.1988 -12.3282 0
    endloop
  endfacet
  facet normal -0 0 1
    outer loop
      vertex 1.4342 -1.73365 0
      vertex 10.1988 -12.3282 0
      vertex 1.64018 -1.54023 0
    endloop
  endfacet
  facet normal 0 0 1
    outer loop
      vertex 10.1988 -12.3282 0
      vertex 1.4342 -1.73365 0
      vertex 8.57323 -13.5092 0
    endloop
  endfacet
  facet normal -0 0 1
    outer loop
      vertex 1.20561 -1.89974 0
      vertex 8.57323 -13.5092 0
      vertex 1.4342 -1.73365 0
    endloop
  endfacet
  facet normal 0 0 1
    outer loop
      vertex 8.57323 -13.5092 0
      vertex 1.20561 -1.89974 0
      vertex 6.81247 -14.4772 0
    endloop
  endfacet
  facet normal -0 0 1
    outer loop
      vertex 0.958003 -2.03586 0
      vertex 6.81247 -14.4772 0
      vertex 1.20561 -1.89974 0
    endloop
  endfacet
  facet normal 0 0 1
    outer loop
      vertex 6.81247 -14.4772 0
      vertex 0.958003 -2.03586 0
      vertex 4.94427 -15.2169 0
    endloop
  endfacet
  facet normal -0 0 1
    outer loop
      vertex 0.695288 -2.13988 0
      vertex 4.94427 -15.2169 0
      vertex 0.958003 -2.03586 0
    endloop
  endfacet
  facet normal 0 0 1
    outer loop
      vertex 4.94427 -15.2169 0
      vertex 0.695288 -2.13988 0
      vertex 2.9981 -15.7166 0
    endloop
  endfacet
  facet normal -0 0 1
    outer loop
      vertex 0.421607 -2.21015 0
      vertex 2.9981 -15.7166 0
      vertex 0.695288 -2.13988 0
    endloop
  endfacet
  facet normal 0 0 1
    outer loop
      vertex 2.9981 -15.7166 0
      vertex 0.421607 -2.21015 0
      vertex 1.00465 -15.9684 0
    endloop
  endfacet
  facet normal -0 0 1
    outer loop
      vertex 0.141278 -2.24556 0
      vertex 1.00465 -15.9684 0
      vertex 0.421607 -2.21015 0
    endloop
  endfacet
  facet normal -0 0 1
    outer loop
      vertex -0.141278 -2.24556 0
      vertex 1.00465 -15.9684 0
      vertex 0.141278 -2.24556 0
    endloop
  endfacet
  facet normal 0 0 1
    outer loop
      vertex -1.00465 -15.9684 0
      vertex -0.141278 -2.24556 0
      vertex -0.421607 -2.21015 0
    endloop
  endfacet
  facet normal 0 0 1
    outer loop
      vertex -2.9981 -15.7166 0
      vertex -0.421607 -2.21015 0
      vertex -0.695288 -2.13988 0
    endloop
  endfacet
  facet normal 0 0 1
    outer loop
      vertex -4.94427 -15.2169 0
      vertex -0.695288 -2.13988 0
      vertex -0.958003 -2.03586 0
    endloop
  endfacet
  facet normal 0 0 1
    outer loop
      vertex -0.141278 -2.24556 0
      vertex -1.00465 -15.9684 0
      vertex 1.00465 -15.9684 0
    endloop
  endfacet
  facet normal 0 0 1
    outer loop
      vertex -6.81247 -14.4772 0
      vertex -0.958003 -2.03586 0
      vertex -1.20561 -1.89974 0
    endloop
  endfacet
  facet normal 0 0 1
    outer loop
      vertex -8.57323 -13.5092 0
      vertex -1.20561 -1.89974 0
      vertex -1.4342 -1.73365 0
    endloop
  endfacet
  facet normal 0 0 1
    outer loop
      vertex -10.1988 -12.3282 0
      vertex -1.4342 -1.73365 0
      vertex -1.64018 -1.54023 0
    endloop
  endfacet
  facet normal 0 0 1
    outer loop
      vertex -11.6635 -10.9528 0
      vertex -1.64018 -1.54023 0
      vertex -1.82029 -1.32252 0
    endloop
  endfacet
  facet normal 0 0 1
    outer loop
      vertex -12.9443 -9.40456 0
      vertex -1.82029 -1.32252 0
      vertex -1.97169 -1.08395 0
    endloop
  endfacet
  facet normal 0 0 1
    outer loop
      vertex -14.0209 -7.70806 0
      vertex -1.97169 -1.08395 0
      vertex -2.092 -0.828279 0
    endloop
  endfacet
  facet normal 0 0 1
    outer loop
      vertex -14.8764 -5.88999 0
      vertex -2.092 -0.828279 0
      vertex -2.17931 -0.559552 0
    endloop
  endfacet
  facet normal 0 0 1
    outer loop
      vertex -15.4973 -3.97904 0
      vertex -2.17931 -0.559552 0
      vertex -2.23226 -0.282 0
    endloop
  endfacet
  facet normal 0 0 1
    outer loop
      vertex -0.421607 -2.21015 0
      vertex -2.9981 -15.7166 0
      vertex -1.00465 -15.9684 0
    endloop
  endfacet
  facet normal 0 0 1
    outer loop
      vertex -15.8738 -2.00533 0
      vertex -2.23226 -0.282 0
      vertex -2.25 0 0
    endloop
  endfacet
  facet normal -0 0 1
    outer loop
      vertex -12.9443 9.40456 0
      vertex -1.82029 1.32252 0
      vertex -11.6635 10.9528 0
    endloop
  endfacet
  facet normal 0 0 1
    outer loop
      vertex -1.82029 1.32252 0
      vertex -12.9443 9.40456 0
      vertex -1.97169 1.08395 0
    endloop
  endfacet
  facet normal 0 0 1
    outer loop
      vertex -0.695288 -2.13988 0
      vertex -4.94427 -15.2169 0
      vertex -2.9981 -15.7166 0
    endloop
  endfacet
  facet normal -0 0 1
    outer loop
      vertex -14.0209 7.70806 0
      vertex -1.97169 1.08395 0
      vertex -12.9443 9.40456 0
    endloop
  endfacet
  facet normal 0 0 1
    outer loop
      vertex -0.958003 -2.03586 0
      vertex -6.81247 -14.4772 0
      vertex -4.94427 -15.2169 0
    endloop
  endfacet
  facet normal 0 0 1
    outer loop
      vertex -1.97169 1.08395 0
      vertex -14.0209 7.70806 0
      vertex -2.092 0.828279 0
    endloop
  endfacet
  facet normal 0 0 1
    outer loop
      vertex -1.20561 -1.89974 0
      vertex -8.57323 -13.5092 0
      vertex -6.81247 -14.4772 0
    endloop
  endfacet
  facet normal -0 0 1
    outer loop
      vertex -14.8764 5.88999 0
      vertex -2.092 0.828279 0
      vertex -14.0209 7.70806 0
    endloop
  endfacet
  facet normal 0 0 1
    outer loop
      vertex -1.4342 -1.73365 0
      vertex -10.1988 -12.3282 0
      vertex -8.57323 -13.5092 0
    endloop
  endfacet
  facet normal 0 0 1
    outer loop
      vertex -2.092 0.828279 0
      vertex -14.8764 5.88999 0
      vertex -2.17931 0.559552 0
    endloop
  endfacet
  facet normal 0 0 1
    outer loop
      vertex -1.64018 -1.54023 0
      vertex -11.6635 -10.9528 0
      vertex -10.1988 -12.3282 0
    endloop
  endfacet
  facet normal -0 0 1
    outer loop
      vertex -15.4973 3.97904 0
      vertex -2.17931 0.559552 0
      vertex -14.8764 5.88999 0
    endloop
  endfacet
  facet normal 0 0 1
    outer loop
      vertex -1.82029 -1.32252 0
      vertex -12.9443 -9.40456 0
      vertex -11.6635 -10.9528 0
    endloop
  endfacet
  facet normal 0 0 1
    outer loop
      vertex -2.17931 0.559552 0
      vertex -15.4973 3.97904 0
      vertex -2.23226 0.282 0
    endloop
  endfacet
  facet normal 0 0 1
    outer loop
      vertex -1.97169 -1.08395 0
      vertex -14.0209 -7.70806 0
      vertex -12.9443 -9.40456 0
    endloop
  endfacet
  facet normal -0 0 1
    outer loop
      vertex -15.8738 2.00533 0
      vertex -2.23226 0.282 0
      vertex -15.4973 3.97904 0
    endloop
  endfacet
  facet normal 0 0 1
    outer loop
      vertex -2.092 -0.828279 0
      vertex -14.8764 -5.88999 0
      vertex -14.0209 -7.70806 0
    endloop
  endfacet
  facet normal 0 0 1
    outer loop
      vertex -2.23226 0.282 0
      vertex -15.8738 2.00533 0
      vertex -2.25 0 0
    endloop
  endfacet
  facet normal 0 0 1
    outer loop
      vertex -2.17931 -0.559552 0
      vertex -15.4973 -3.97904 0
      vertex -14.8764 -5.88999 0
    endloop
  endfacet
  facet normal 0 0 1
    outer loop
      vertex -16 0 0
      vertex -2.25 0 0
      vertex -15.8738 2.00533 0
    endloop
  endfacet
  facet normal 0 0 1
    outer loop
      vertex -2.23226 -0.282 0
      vertex -15.8738 -2.00533 0
      vertex -15.4973 -3.97904 0
    endloop
  endfacet
  facet normal 0 0 1
    outer loop
      vertex -2.25 0 0
      vertex -16 0 0
      vertex -15.8738 -2.00533 0
    endloop
  endfacet
  facet normal -0.587788 0.809015 0
    outer loop
      vertex -5.35827 8.44328 -54
      vertex -6.37424 7.70513 -6
      vertex -5.35827 8.44328 -6
    endloop
  endfacet
  facet normal -0.587788 0.809015 0
    outer loop
      vertex -6.37424 7.70513 -6
      vertex -5.35827 8.44328 -54
      vertex -6.37424 7.70513 -54
    endloop
  endfacet
  facet normal -0.248691 0.968583 0
    outer loop
      vertex -1.87381 9.82287 -54
      vertex -3.09017 9.51056 -6
      vertex -1.87381 9.82287 -6
    endloop
  endfacet
  facet normal -0.248691 0.968583 0
    outer loop
      vertex -3.09017 9.51056 -6
      vertex -1.87381 9.82287 -54
      vertex -3.09017 9.51056 -54
    endloop
  endfacet
  facet normal 0.998027 -0.0627883 0
    outer loop
      vertex 9.92115 -1.25333 -6
      vertex 10 0 -54
      vertex 10 0 -6
    endloop
  endfacet
  facet normal 0.998027 -0.0627883 0
    outer loop
      vertex 10 0 -54
      vertex 9.92115 -1.25333 -6
      vertex 9.92115 -1.25333 -54
    endloop
  endfacet
  facet normal 0.481751 -0.876308 0
    outer loop
      vertex 4.25779 -9.04827 -54
      vertex 5.35827 -8.44328 -6
      vertex 4.25779 -9.04827 -6
    endloop
  endfacet
  facet normal 0.481751 -0.876308 0
    outer loop
      vertex 5.35827 -8.44328 -6
      vertex 4.25779 -9.04827 -54
      vertex 5.35827 -8.44328 -54
    endloop
  endfacet
  facet normal 0.770515 -0.637422 0
    outer loop
      vertex 7.28969 -6.84547 -6
      vertex 8.09017 -5.87785 -54
      vertex 8.09017 -5.87785 -6
    endloop
  endfacet
  facet normal 0.770515 -0.637422 0
    outer loop
      vertex 8.09017 -5.87785 -54
      vertex 7.28969 -6.84547 -6
      vertex 7.28969 -6.84547 -54
    endloop
  endfacet
  facet normal 0.951055 -0.309021 0
    outer loop
      vertex 9.29776 -3.68124 -6
      vertex 9.68583 -2.4869 -54
      vertex 9.68583 -2.4869 -6
    endloop
  endfacet
  facet normal 0.951055 -0.309021 0
    outer loop
      vertex 9.68583 -2.4869 -54
      vertex 9.29776 -3.68124 -6
      vertex 9.29776 -3.68124 -54
    endloop
  endfacet
  facet normal 0.982287 -0.187384 0
    outer loop
      vertex 9.68583 -2.4869 -6
      vertex 9.92115 -1.25333 -54
      vertex 9.92115 -1.25333 -6
    endloop
  endfacet
  facet normal 0.982287 -0.187384 0
    outer loop
      vertex 9.92115 -1.25333 -54
      vertex 9.68583 -2.4869 -6
      vertex 9.68583 -2.4869 -54
    endloop
  endfacet
  facet normal -0.684545 -0.728971 0
    outer loop
      vertex -7.28969 -6.84547 -54
      vertex -6.37424 -7.70513 -6
      vertex -7.28969 -6.84547 -6
    endloop
  endfacet
  facet normal -0.684545 -0.728971 -0
    outer loop
      vertex -6.37424 -7.70513 -6
      vertex -7.28969 -6.84547 -54
      vertex -6.37424 -7.70513 -54
    endloop
  endfacet
  facet normal -0.904831 -0.425771 0
    outer loop
      vertex -8.76307 -4.81754 -54
      vertex -9.29776 -3.68124 -6
      vertex -9.29776 -3.68124 -54
    endloop
  endfacet
  facet normal -0.904831 -0.425771 0
    outer loop
      vertex -9.29776 -3.68124 -6
      vertex -8.76307 -4.81754 -54
      vertex -8.76307 -4.81754 -6
    endloop
  endfacet
  facet normal -0.770515 -0.637422 0
    outer loop
      vertex -7.28969 -6.84547 -54
      vertex -8.09017 -5.87785 -6
      vertex -8.09017 -5.87785 -54
    endloop
  endfacet
  facet normal -0.770515 -0.637422 0
    outer loop
      vertex -8.09017 -5.87785 -6
      vertex -7.28969 -6.84547 -54
      vertex -7.28969 -6.84547 -6
    endloop
  endfacet
  facet normal 0 0 -1
    outer loop
      vertex 2.25 0 -54
      vertex 10 0 -54
      vertex 9.92115 -1.25333 -54
    endloop
  endfacet
  facet normal 0 0 -1
    outer loop
      vertex 2.23226 -0.282 -54
      vertex 9.92115 -1.25333 -54
      vertex 9.68583 -2.4869 -54
    endloop
  endfacet
  facet normal 0 0 -1
    outer loop
      vertex 10 0 -54
      vertex 2.25 0 -54
      vertex 9.92115 1.25333 -54
    endloop
  endfacet
  facet normal 0 0 -1
    outer loop
      vertex 2.17931 -0.559552 -54
      vertex 9.68583 -2.4869 -54
      vertex 9.29776 -3.68124 -54
    endloop
  endfacet
  facet normal 0 0 -1
    outer loop
      vertex 2.23226 0.282 -54
      vertex 9.92115 1.25333 -54
      vertex 2.25 0 -54
    endloop
  endfacet
  facet normal 0 0 -1
    outer loop
      vertex 2.092 -0.828279 -54
      vertex 9.29776 -3.68124 -54
      vertex 8.76307 -4.81754 -54
    endloop
  endfacet
  facet normal -0 0 -1
    outer loop
      vertex 9.92115 1.25333 -54
      vertex 2.23226 0.282 -54
      vertex 9.68583 2.4869 -54
    endloop
  endfacet
  facet normal 0 0 -1
    outer loop
      vertex 1.97169 -1.08395 -54
      vertex 8.76307 -4.81754 -54
      vertex 8.09017 -5.87785 -54
    endloop
  endfacet
  facet normal 0 0 -1
    outer loop
      vertex 2.17931 0.559552 -54
      vertex 9.68583 2.4869 -54
      vertex 2.23226 0.282 -54
    endloop
  endfacet
  facet normal 0 0 -1
    outer loop
      vertex 1.82029 -1.32252 -54
      vertex 8.09017 -5.87785 -54
      vertex 7.28969 -6.84547 -54
    endloop
  endfacet
  facet normal -0 0 -1
    outer loop
      vertex 9.68583 2.4869 -54
      vertex 2.17931 0.559552 -54
      vertex 9.29776 3.68124 -54
    endloop
  endfacet
  facet normal 0 0 -1
    outer loop
      vertex 1.64018 -1.54023 -54
      vertex 7.28969 -6.84547 -54
      vertex 6.37424 -7.70513 -54
    endloop
  endfacet
  facet normal 0 0 -1
    outer loop
      vertex 2.092 0.828279 -54
      vertex 9.29776 3.68124 -54
      vertex 2.17931 0.559552 -54
    endloop
  endfacet
  facet normal 0 0 -1
    outer loop
      vertex 1.4342 -1.73365 -54
      vertex 6.37424 -7.70513 -54
      vertex 5.35827 -8.44328 -54
    endloop
  endfacet
  facet normal -0 0 -1
    outer loop
      vertex 9.29776 3.68124 -54
      vertex 2.092 0.828279 -54
      vertex 8.76307 4.81754 -54
    endloop
  endfacet
  facet normal 0 0 -1
    outer loop
      vertex 1.20561 -1.89974 -54
      vertex 5.35827 -8.44328 -54
      vertex 4.25779 -9.04827 -54
    endloop
  endfacet
  facet normal 0 0 -1
    outer loop
      vertex 1.97169 1.08395 -54
      vertex 8.76307 4.81754 -54
      vertex 2.092 0.828279 -54
    endloop
  endfacet
  facet normal 0 0 -1
    outer loop
      vertex 0.958003 -2.03586 -54
      vertex 4.25779 -9.04827 -54
      vertex 3.09017 -9.51056 -54
    endloop
  endfacet
  facet normal -0 0 -1
    outer loop
      vertex 8.76307 4.81754 -54
      vertex 1.97169 1.08395 -54
      vertex 8.09017 5.87785 -54
    endloop
  endfacet
  facet normal 0 0 -1
    outer loop
      vertex 1.82029 1.32252 -54
      vertex 8.09017 5.87785 -54
      vertex 1.97169 1.08395 -54
    endloop
  endfacet
  facet normal 0 0 -1
    outer loop
      vertex 9.92115 -1.25333 -54
      vertex 2.23226 -0.282 -54
      vertex 2.25 0 -54
    endloop
  endfacet
  facet normal 0 0 -1
    outer loop
      vertex 9.68583 -2.4869 -54
      vertex 2.17931 -0.559552 -54
      vertex 2.23226 -0.282 -54
    endloop
  endfacet
  facet normal 0 0 -1
    outer loop
      vertex 9.29776 -3.68124 -54
      vertex 2.092 -0.828279 -54
      vertex 2.17931 -0.559552 -54
    endloop
  endfacet
  facet normal 0 0 -1
    outer loop
      vertex 8.76307 -4.81754 -54
      vertex 1.97169 -1.08395 -54
      vertex 2.092 -0.828279 -54
    endloop
  endfacet
  facet normal 0 0 -1
    outer loop
      vertex 0.695288 -2.13988 -54
      vertex 3.09017 -9.51056 -54
      vertex 1.87381 -9.82287 -54
    endloop
  endfacet
  facet normal 0 0 -1
    outer loop
      vertex 8.09017 -5.87785 -54
      vertex 1.82029 -1.32252 -54
      vertex 1.97169 -1.08395 -54
    endloop
  endfacet
  facet normal 0 0 -1
    outer loop
      vertex 7.28969 -6.84547 -54
      vertex 1.64018 -1.54023 -54
      vertex 1.82029 -1.32252 -54
    endloop
  endfacet
  facet normal 0 0 -1
    outer loop
      vertex 6.37424 -7.70513 -54
      vertex 1.4342 -1.73365 -54
      vertex 1.64018 -1.54023 -54
    endloop
  endfacet
  facet normal 0 0 -1
    outer loop
      vertex 5.35827 -8.44328 -54
      vertex 1.20561 -1.89974 -54
      vertex 1.4342 -1.73365 -54
    endloop
  endfacet
  facet normal 0 0 -1
    outer loop
      vertex 4.25779 -9.04827 -54
      vertex 0.958003 -2.03586 -54
      vertex 1.20561 -1.89974 -54
    endloop
  endfacet
  facet normal 0 0 -1
    outer loop
      vertex 3.09017 -9.51056 -54
      vertex 0.695288 -2.13988 -54
      vertex 0.958003 -2.03586 -54
    endloop
  endfacet
  facet normal 0 0 -1
    outer loop
      vertex 0.421607 -2.21015 -54
      vertex 1.87381 -9.82287 -54
      vertex 0.627905 -9.98027 -54
    endloop
  endfacet
  facet normal 0 0 -1
    outer loop
      vertex 1.87381 -9.82287 -54
      vertex 0.421607 -2.21015 -54
      vertex 0.695288 -2.13988 -54
    endloop
  endfacet
  facet normal 0 0 -1
    outer loop
      vertex 0.627905 -9.98027 -54
      vertex 0.141278 -2.24556 -54
      vertex 0.421607 -2.21015 -54
    endloop
  endfacet
  facet normal 0 0 -1
    outer loop
      vertex 0.627905 -9.98027 -54
      vertex -0.141278 -2.24556 -54
      vertex 0.141278 -2.24556 -54
    endloop
  endfacet
  facet normal 0 0 -1
    outer loop
      vertex -0.627905 -9.98027 -54
      vertex -0.141278 -2.24556 -54
      vertex 0.627905 -9.98027 -54
    endloop
  endfacet
  facet normal -0 0 -1
    outer loop
      vertex -0.141278 -2.24556 -54
      vertex -0.627905 -9.98027 -54
      vertex -0.421607 -2.21015 -54
    endloop
  endfacet
  facet normal 0 0 -1
    outer loop
      vertex -1.87381 -9.82287 -54
      vertex -0.421607 -2.21015 -54
      vertex -0.627905 -9.98027 -54
    endloop
  endfacet
  facet normal -0 0 -1
    outer loop
      vertex -0.421607 -2.21015 -54
      vertex -1.87381 -9.82287 -54
      vertex -0.695288 -2.13988 -54
    endloop
  endfacet
  facet normal 0 0 -1
    outer loop
      vertex -3.09017 -9.51056 -54
      vertex -0.695288 -2.13988 -54
      vertex -1.87381 -9.82287 -54
    endloop
  endfacet
  facet normal -0 0 -1
    outer loop
      vertex -0.695288 -2.13988 -54
      vertex -3.09017 -9.51056 -54
      vertex -0.958003 -2.03586 -54
    endloop
  endfacet
  facet normal 0 0 -1
    outer loop
      vertex -4.25779 -9.04827 -54
      vertex -0.958003 -2.03586 -54
      vertex -3.09017 -9.51056 -54
    endloop
  endfacet
  facet normal -0 0 -1
    outer loop
      vertex -0.958003 -2.03586 -54
      vertex -4.25779 -9.04827 -54
      vertex -1.20561 -1.89974 -54
    endloop
  endfacet
  facet normal 0 0 -1
    outer loop
      vertex -5.35827 -8.44328 -54
      vertex -1.20561 -1.89974 -54
      vertex -4.25779 -9.04827 -54
    endloop
  endfacet
  facet normal -0 0 -1
    outer loop
      vertex -1.20561 -1.89974 -54
      vertex -5.35827 -8.44328 -54
      vertex -1.4342 -1.73365 -54
    endloop
  endfacet
  facet normal 0 0 -1
    outer loop
      vertex -6.37424 -7.70513 -54
      vertex -1.4342 -1.73365 -54
      vertex -5.35827 -8.44328 -54
    endloop
  endfacet
  facet normal -0 0 -1
    outer loop
      vertex -1.4342 -1.73365 -54
      vertex -6.37424 -7.70513 -54
      vertex -1.64018 -1.54023 -54
    endloop
  endfacet
  facet normal 0 0 -1
    outer loop
      vertex -7.28969 -6.84547 -54
      vertex -1.64018 -1.54023 -54
      vertex -6.37424 -7.70513 -54
    endloop
  endfacet
  facet normal -0 0 -1
    outer loop
      vertex -1.64018 -1.54023 -54
      vertex -7.28969 -6.84547 -54
      vertex -1.82029 -1.32252 -54
    endloop
  endfacet
  facet normal 0 0 -1
    outer loop
      vertex -8.09017 -5.87785 -54
      vertex -1.82029 -1.32252 -54
      vertex -7.28969 -6.84547 -54
    endloop
  endfacet
  facet normal -0 0 -1
    outer loop
      vertex 8.09017 5.87785 -54
      vertex 1.82029 1.32252 -54
      vertex 7.28969 6.84547 -54
    endloop
  endfacet
  facet normal 0 0 -1
    outer loop
      vertex 1.64018 1.54023 -54
      vertex 7.28969 6.84547 -54
      vertex 1.82029 1.32252 -54
    endloop
  endfacet
  facet normal -0 0 -1
    outer loop
      vertex 7.28969 6.84547 -54
      vertex 1.64018 1.54023 -54
      vertex 6.37424 7.70513 -54
    endloop
  endfacet
  facet normal 0 0 -1
    outer loop
      vertex 1.4342 1.73365 -54
      vertex 6.37424 7.70513 -54
      vertex 1.64018 1.54023 -54
    endloop
  endfacet
  facet normal -0 0 -1
    outer loop
      vertex 6.37424 7.70513 -54
      vertex 1.4342 1.73365 -54
      vertex 5.35827 8.44328 -54
    endloop
  endfacet
  facet normal 0 0 -1
    outer loop
      vertex 1.20561 1.89974 -54
      vertex 5.35827 8.44328 -54
      vertex 1.4342 1.73365 -54
    endloop
  endfacet
  facet normal -0 0 -1
    outer loop
      vertex 5.35827 8.44328 -54
      vertex 1.20561 1.89974 -54
      vertex 4.25779 9.04827 -54
    endloop
  endfacet
  facet normal 0 0 -1
    outer loop
      vertex 0.958003 2.03586 -54
      vertex 4.25779 9.04827 -54
      vertex 1.20561 1.89974 -54
    endloop
  endfacet
  facet normal -0 0 -1
    outer loop
      vertex 4.25779 9.04827 -54
      vertex 0.958003 2.03586 -54
      vertex 3.09017 9.51056 -54
    endloop
  endfacet
  facet normal 0 0 -1
    outer loop
      vertex 0.695288 2.13988 -54
      vertex 3.09017 9.51056 -54
      vertex 0.958003 2.03586 -54
    endloop
  endfacet
  facet normal -0 0 -1
    outer loop
      vertex 3.09017 9.51056 -54
      vertex 0.695288 2.13988 -54
      vertex 1.87381 9.82287 -54
    endloop
  endfacet
  facet normal 0 0 -1
    outer loop
      vertex 0.421607 2.21015 -54
      vertex 1.87381 9.82287 -54
      vertex 0.695288 2.13988 -54
    endloop
  endfacet
  facet normal -0 0 -1
    outer loop
      vertex 1.87381 9.82287 -54
      vertex 0.421607 2.21015 -54
      vertex 0.627905 9.98027 -54
    endloop
  endfacet
  facet normal 0 0 -1
    outer loop
      vertex 0.141278 2.24556 -54
      vertex 0.627905 9.98027 -54
      vertex 0.421607 2.21015 -54
    endloop
  endfacet
  facet normal 0 0 -1
    outer loop
      vertex -0.141278 2.24556 -54
      vertex 0.627905 9.98027 -54
      vertex 0.141278 2.24556 -54
    endloop
  endfacet
  facet normal 0 0 -1
    outer loop
      vertex -0.627905 9.98027 -54
      vertex -0.141278 2.24556 -54
      vertex -0.421607 2.21015 -54
    endloop
  endfacet
  facet normal 0 0 -1
    outer loop
      vertex -0.141278 2.24556 -54
      vertex -0.627905 9.98027 -54
      vertex 0.627905 9.98027 -54
    endloop
  endfacet
  facet normal 0 0 -1
    outer loop
      vertex -1.87381 9.82287 -54
      vertex -0.421607 2.21015 -54
      vertex -0.695288 2.13988 -54
    endloop
  endfacet
  facet normal 0 0 -1
    outer loop
      vertex -3.09017 9.51056 -54
      vertex -0.695288 2.13988 -54
      vertex -0.958003 2.03586 -54
    endloop
  endfacet
  facet normal 0 0 -1
    outer loop
      vertex -4.25779 9.04827 -54
      vertex -0.958003 2.03586 -54
      vertex -1.20561 1.89974 -54
    endloop
  endfacet
  facet normal 0 0 -1
    outer loop
      vertex -5.35827 8.44328 -54
      vertex -1.20561 1.89974 -54
      vertex -1.4342 1.73365 -54
    endloop
  endfacet
  facet normal 0 0 -1
    outer loop
      vertex -6.37424 7.70513 -54
      vertex -1.4342 1.73365 -54
      vertex -1.64018 1.54023 -54
    endloop
  endfacet
  facet normal 0 0 -1
    outer loop
      vertex -7.28969 6.84547 -54
      vertex -1.64018 1.54023 -54
      vertex -1.82029 1.32252 -54
    endloop
  endfacet
  facet normal 0 0 -1
    outer loop
      vertex -0.421607 2.21015 -54
      vertex -1.87381 9.82287 -54
      vertex -0.627905 9.98027 -54
    endloop
  endfacet
  facet normal 0 0 -1
    outer loop
      vertex -8.09017 5.87785 -54
      vertex -1.82029 1.32252 -54
      vertex -1.97169 1.08395 -54
    endloop
  endfacet
  facet normal 0 0 -1
    outer loop
      vertex -8.76307 4.81754 -54
      vertex -1.97169 1.08395 -54
      vertex -2.092 0.828279 -54
    endloop
  endfacet
  facet normal 0 0 -1
    outer loop
      vertex -9.29776 3.68124 -54
      vertex -2.092 0.828279 -54
      vertex -2.17931 0.559552 -54
    endloop
  endfacet
  facet normal 0 0 -1
    outer loop
      vertex -9.68583 2.4869 -54
      vertex -2.17931 0.559552 -54
      vertex -2.23226 0.282 -54
    endloop
  endfacet
  facet normal 0 0 -1
    outer loop
      vertex -9.92115 1.25333 -54
      vertex -2.23226 0.282 -54
      vertex -2.25 0 -54
    endloop
  endfacet
  facet normal -0 0 -1
    outer loop
      vertex -1.82029 -1.32252 -54
      vertex -8.09017 -5.87785 -54
      vertex -1.97169 -1.08395 -54
    endloop
  endfacet
  facet normal 0 0 -1
    outer loop
      vertex -0.695288 2.13988 -54
      vertex -3.09017 9.51056 -54
      vertex -1.87381 9.82287 -54
    endloop
  endfacet
  facet normal 0 0 -1
    outer loop
      vertex -8.76307 -4.81754 -54
      vertex -1.97169 -1.08395 -54
      vertex -8.09017 -5.87785 -54
    endloop
  endfacet
  facet normal 0 0 -1
    outer loop
      vertex -0.958003 2.03586 -54
      vertex -4.25779 9.04827 -54
      vertex -3.09017 9.51056 -54
    endloop
  endfacet
  facet normal -0 0 -1
    outer loop
      vertex -1.97169 -1.08395 -54
      vertex -8.76307 -4.81754 -54
      vertex -2.092 -0.828279 -54
    endloop
  endfacet
  facet normal 0 0 -1
    outer loop
      vertex -1.20561 1.89974 -54
      vertex -5.35827 8.44328 -54
      vertex -4.25779 9.04827 -54
    endloop
  endfacet
  facet normal 0 0 -1
    outer loop
      vertex -9.29776 -3.68124 -54
      vertex -2.092 -0.828279 -54
      vertex -8.76307 -4.81754 -54
    endloop
  endfacet
  facet normal 0 0 -1
    outer loop
      vertex -1.4342 1.73365 -54
      vertex -6.37424 7.70513 -54
      vertex -5.35827 8.44328 -54
    endloop
  endfacet
  facet normal -0 0 -1
    outer loop
      vertex -2.092 -0.828279 -54
      vertex -9.29776 -3.68124 -54
      vertex -2.17931 -0.559552 -54
    endloop
  endfacet
  facet normal 0 0 -1
    outer loop
      vertex -1.64018 1.54023 -54
      vertex -7.28969 6.84547 -54
      vertex -6.37424 7.70513 -54
    endloop
  endfacet
  facet normal 0 0 -1
    outer loop
      vertex -9.68583 -2.4869 -54
      vertex -2.17931 -0.559552 -54
      vertex -9.29776 -3.68124 -54
    endloop
  endfacet
  facet normal 0 0 -1
    outer loop
      vertex -1.82029 1.32252 -54
      vertex -8.09017 5.87785 -54
      vertex -7.28969 6.84547 -54
    endloop
  endfacet
  facet normal -0 0 -1
    outer loop
      vertex -2.17931 -0.559552 -54
      vertex -9.68583 -2.4869 -54
      vertex -2.23226 -0.282 -54
    endloop
  endfacet
  facet normal 0 0 -1
    outer loop
      vertex -1.97169 1.08395 -54
      vertex -8.76307 4.81754 -54
      vertex -8.09017 5.87785 -54
    endloop
  endfacet
  facet normal 0 0 -1
    outer loop
      vertex -9.92115 -1.25333 -54
      vertex -2.23226 -0.282 -54
      vertex -9.68583 -2.4869 -54
    endloop
  endfacet
  facet normal 0 0 -1
    outer loop
      vertex -2.092 0.828279 -54
      vertex -9.29776 3.68124 -54
      vertex -8.76307 4.81754 -54
    endloop
  endfacet
  facet normal -0 0 -1
    outer loop
      vertex -2.23226 -0.282 -54
      vertex -9.92115 -1.25333 -54
      vertex -2.25 0 -54
    endloop
  endfacet
  facet normal 0 0 -1
    outer loop
      vertex -2.17931 0.559552 -54
      vertex -9.68583 2.4869 -54
      vertex -9.29776 3.68124 -54
    endloop
  endfacet
  facet normal 0 0 -1
    outer loop
      vertex -10 0 -54
      vertex -2.25 0 -54
      vertex -9.92115 -1.25333 -54
    endloop
  endfacet
  facet normal 0 0 -1
    outer loop
      vertex -2.23226 0.282 -54
      vertex -9.92115 1.25333 -54
      vertex -9.68583 2.4869 -54
    endloop
  endfacet
  facet normal 0 0 -1
    outer loop
      vertex -2.25 0 -54
      vertex -10 0 -54
      vertex -9.92115 1.25333 -54
    endloop
  endfacet
  facet normal 0.844325 -0.535831 0
    outer loop
      vertex 8.09017 -5.87785 -6
      vertex 8.76307 -4.81754 -54
      vertex 8.76307 -4.81754 -6
    endloop
  endfacet
  facet normal 0.844325 -0.535831 0
    outer loop
      vertex 8.76307 -4.81754 -54
      vertex 8.09017 -5.87785 -6
      vertex 8.09017 -5.87785 -54
    endloop
  endfacet
  facet normal -0.951055 -0.309021 0
    outer loop
      vertex -9.29776 -3.68124 -54
      vertex -9.68583 -2.4869 -6
      vertex -9.68583 -2.4869 -54
    endloop
  endfacet
  facet normal -0.951055 -0.309021 0
    outer loop
      vertex -9.68583 -2.4869 -6
      vertex -9.29776 -3.68124 -54
      vertex -9.29776 -3.68124 -6
    endloop
  endfacet
  facet normal 0.248691 -0.968583 0
    outer loop
      vertex 1.87381 -9.82287 -54
      vertex 3.09017 -9.51056 -6
      vertex 1.87381 -9.82287 -6
    endloop
  endfacet
  facet normal 0.248691 -0.968583 0
    outer loop
      vertex 3.09017 -9.51056 -6
      vertex 1.87381 -9.82287 -54
      vertex 3.09017 -9.51056 -54
    endloop
  endfacet
  facet normal 0.684545 -0.728971 0
    outer loop
      vertex 6.37424 -7.70513 -54
      vertex 7.28969 -6.84547 -6
      vertex 6.37424 -7.70513 -6
    endloop
  endfacet
  facet normal 0.684545 -0.728971 0
    outer loop
      vertex 7.28969 -6.84547 -6
      vertex 6.37424 -7.70513 -54
      vertex 7.28969 -6.84547 -54
    endloop
  endfacet
  facet normal 0.587788 -0.809015 0
    outer loop
      vertex 5.35827 -8.44328 -54
      vertex 6.37424 -7.70513 -6
      vertex 5.35827 -8.44328 -6
    endloop
  endfacet
  facet normal 0.587788 -0.809015 0
    outer loop
      vertex 6.37424 -7.70513 -6
      vertex 5.35827 -8.44328 -54
      vertex 6.37424 -7.70513 -54
    endloop
  endfacet
  facet normal 0.904831 -0.425771 0
    outer loop
      vertex 8.76307 -4.81754 -6
      vertex 9.29776 -3.68124 -54
      vertex 9.29776 -3.68124 -6
    endloop
  endfacet
  facet normal 0.904831 -0.425771 0
    outer loop
      vertex 9.29776 -3.68124 -54
      vertex 8.76307 -4.81754 -6
      vertex 8.76307 -4.81754 -54
    endloop
  endfacet
  facet normal -0.125338 -0.992114 0
    outer loop
      vertex -1.87381 -9.82287 -54
      vertex -0.627905 -9.98027 -6
      vertex -1.87381 -9.82287 -6
    endloop
  endfacet
  facet normal -0.125338 -0.992114 -0
    outer loop
      vertex -0.627905 -9.98027 -6
      vertex -1.87381 -9.82287 -54
      vertex -0.627905 -9.98027 -54
    endloop
  endfacet
  facet normal -0.368122 -0.929777 0
    outer loop
      vertex -4.25779 -9.04827 -54
      vertex -3.09017 -9.51056 -6
      vertex -4.25779 -9.04827 -6
    endloop
  endfacet
  facet normal -0.368122 -0.929777 -0
    outer loop
      vertex -3.09017 -9.51056 -6
      vertex -4.25779 -9.04827 -54
      vertex -3.09017 -9.51056 -54
    endloop
  endfacet
  facet normal -0.248691 -0.968583 0
    outer loop
      vertex -3.09017 -9.51056 -54
      vertex -1.87381 -9.82287 -6
      vertex -3.09017 -9.51056 -6
    endloop
  endfacet
  facet normal -0.248691 -0.968583 -0
    outer loop
      vertex -1.87381 -9.82287 -6
      vertex -3.09017 -9.51056 -54
      vertex -1.87381 -9.82287 -54
    endloop
  endfacet
  facet normal -0.844325 -0.535831 0
    outer loop
      vertex -8.09017 -5.87785 -54
      vertex -8.76307 -4.81754 -6
      vertex -8.76307 -4.81754 -54
    endloop
  endfacet
  facet normal -0.844325 -0.535831 0
    outer loop
      vertex -8.76307 -4.81754 -6
      vertex -8.09017 -5.87785 -54
      vertex -8.09017 -5.87785 -6
    endloop
  endfacet
  facet normal -0.982287 -0.187384 0
    outer loop
      vertex -9.68583 -2.4869 -54
      vertex -9.92115 -1.25333 -6
      vertex -9.92115 -1.25333 -54
    endloop
  endfacet
  facet normal -0.982287 -0.187384 0
    outer loop
      vertex -9.92115 -1.25333 -6
      vertex -9.68583 -2.4869 -54
      vertex -9.68583 -2.4869 -6
    endloop
  endfacet
  facet normal -0.998027 -0.0627883 0
    outer loop
      vertex -9.92115 -1.25333 -54
      vertex -10 0 -6
      vertex -10 0 -54
    endloop
  endfacet
  facet normal -0.998027 -0.0627883 0
    outer loop
      vertex -10 0 -6
      vertex -9.92115 -1.25333 -54
      vertex -9.92115 -1.25333 -6
    endloop
  endfacet
  facet normal -0.481751 -0.876308 0
    outer loop
      vertex -5.35827 -8.44328 -54
      vertex -4.25779 -9.04827 -6
      vertex -5.35827 -8.44328 -6
    endloop
  endfacet
  facet normal -0.481751 -0.876308 -0
    outer loop
      vertex -4.25779 -9.04827 -6
      vertex -5.35827 -8.44328 -54
      vertex -4.25779 -9.04827 -54
    endloop
  endfacet
  facet normal -0.587788 -0.809015 0
    outer loop
      vertex -6.37424 -7.70513 -54
      vertex -5.35827 -8.44328 -6
      vertex -6.37424 -7.70513 -6
    endloop
  endfacet
  facet normal -0.587788 -0.809015 -0
    outer loop
      vertex -5.35827 -8.44328 -6
      vertex -6.37424 -7.70513 -54
      vertex -5.35827 -8.44328 -54
    endloop
  endfacet
  facet normal 0.998026 0.062808 0
    outer loop
      vertex 16 0 0
      vertex 15.8738 2.00533 -6
      vertex 15.8738 2.00533 0
    endloop
  endfacet
  facet normal 0.998026 0.062808 0
    outer loop
      vertex 15.8738 2.00533 -6
      vertex 16 0 0
      vertex 16 0 -6
    endloop
  endfacet
  facet normal -0.998026 0.062808 0
    outer loop
      vertex -16 0 -6
      vertex -15.8738 2.00533 0
      vertex -15.8738 2.00533 -6
    endloop
  endfacet
  facet normal -0.998026 0.062808 0
    outer loop
      vertex -15.8738 2.00533 0
      vertex -16 0 -6
      vertex -16 0 0
    endloop
  endfacet
  facet normal 0 1 -0
    outer loop
      vertex 1.00465 15.9684 -6
      vertex -1.00465 15.9684 0
      vertex 1.00465 15.9684 0
    endloop
  endfacet
  facet normal 0 1 0
    outer loop
      vertex -1.00465 15.9684 0
      vertex 1.00465 15.9684 -6
      vertex -1.00465 15.9684 -6
    endloop
  endfacet
  facet normal 0 -1 0
    outer loop
      vertex -1.00465 -15.9684 -6
      vertex 1.00465 -15.9684 0
      vertex -1.00465 -15.9684 0
    endloop
  endfacet
  facet normal 0 -1 -0
    outer loop
      vertex 1.00465 -15.9684 0
      vertex -1.00465 -15.9684 -6
      vertex 1.00465 -15.9684 -6
    endloop
  endfacet
  facet normal 0.684535 -0.72898 0
    outer loop
      vertex 10.1988 -12.3282 -6
      vertex 11.6635 -10.9528 0
      vertex 10.1988 -12.3282 0
    endloop
  endfacet
  facet normal 0.684535 -0.72898 0
    outer loop
      vertex 11.6635 -10.9528 0
      vertex 10.1988 -12.3282 -6
      vertex 11.6635 -10.9528 -6
    endloop
  endfacet
  facet normal 0.684535 0.72898 -0
    outer loop
      vertex 11.6635 10.9528 -6
      vertex 10.1988 12.3282 0
      vertex 11.6635 10.9528 0
    endloop
  endfacet
  facet normal 0.684535 0.72898 0
    outer loop
      vertex 10.1988 12.3282 0
      vertex 11.6635 10.9528 -6
      vertex 10.1988 12.3282 -6
    endloop
  endfacet
  facet normal -0.684535 0.72898 0
    outer loop
      vertex -10.1988 12.3282 -6
      vertex -11.6635 10.9528 0
      vertex -10.1988 12.3282 0
    endloop
  endfacet
  facet normal -0.684535 0.72898 0
    outer loop
      vertex -11.6635 10.9528 0
      vertex -10.1988 12.3282 -6
      vertex -11.6635 10.9528 -6
    endloop
  endfacet
  facet normal -0.368136 0.929772 0
    outer loop
      vertex -4.94427 15.2169 -6
      vertex -6.81247 14.4772 0
      vertex -4.94427 15.2169 0
    endloop
  endfacet
  facet normal -0.368136 0.929772 0
    outer loop
      vertex -6.81247 14.4772 0
      vertex -4.94427 15.2169 -6
      vertex -6.81247 14.4772 -6
    endloop
  endfacet
  facet normal 0.904831 0.425772 0
    outer loop
      vertex 14.8764 5.88999 0
      vertex 14.0209 7.70806 -6
      vertex 14.0209 7.70806 0
    endloop
  endfacet
  facet normal 0.904831 0.425772 0
    outer loop
      vertex 14.0209 7.70806 -6
      vertex 14.8764 5.88999 0
      vertex 14.8764 5.88999 -6
    endloop
  endfacet
  facet normal 0.368136 0.929772 -0
    outer loop
      vertex 6.81247 14.4772 -6
      vertex 4.94427 15.2169 0
      vertex 6.81247 14.4772 0
    endloop
  endfacet
  facet normal 0.368136 0.929772 0
    outer loop
      vertex 4.94427 15.2169 0
      vertex 6.81247 14.4772 -6
      vertex 4.94427 15.2169 -6
    endloop
  endfacet
  facet normal 0.248694 0.968582 -0
    outer loop
      vertex 4.94427 15.2169 -6
      vertex 2.9981 15.7166 0
      vertex 4.94427 15.2169 0
    endloop
  endfacet
  facet normal 0.248694 0.968582 0
    outer loop
      vertex 2.9981 15.7166 0
      vertex 4.94427 15.2169 -6
      vertex 2.9981 15.7166 -6
    endloop
  endfacet
  facet normal 0.481759 0.876304 -0
    outer loop
      vertex 8.57323 13.5092 -6
      vertex 6.81247 14.4772 0
      vertex 8.57323 13.5092 0
    endloop
  endfacet
  facet normal 0.481759 0.876304 0
    outer loop
      vertex 6.81247 14.4772 0
      vertex 8.57323 13.5092 -6
      vertex 6.81247 14.4772 -6
    endloop
  endfacet
  facet normal -0.904831 0.425772 0
    outer loop
      vertex -14.8764 5.88999 -6
      vertex -14.0209 7.70806 0
      vertex -14.0209 7.70806 -6
    endloop
  endfacet
  facet normal -0.904831 0.425772 0
    outer loop
      vertex -14.0209 7.70806 0
      vertex -14.8764 5.88999 -6
      vertex -14.8764 5.88999 0
    endloop
  endfacet
  facet normal -0.844335 0.535816 0
    outer loop
      vertex -14.0209 7.70806 -6
      vertex -12.9443 9.40456 0
      vertex -12.9443 9.40456 -6
    endloop
  endfacet
  facet normal -0.844335 0.535816 0
    outer loop
      vertex -12.9443 9.40456 0
      vertex -14.0209 7.70806 -6
      vertex -14.0209 7.70806 0
    endloop
  endfacet
  facet normal -0.951057 0.309015 0
    outer loop
      vertex -15.4973 3.97904 -6
      vertex -14.8764 5.88999 0
      vertex -14.8764 5.88999 -6
    endloop
  endfacet
  facet normal -0.951057 0.309015 0
    outer loop
      vertex -14.8764 5.88999 0
      vertex -15.4973 3.97904 -6
      vertex -15.4973 3.97904 0
    endloop
  endfacet
  facet normal -0.58777 0.809028 0
    outer loop
      vertex -8.57323 13.5092 -6
      vertex -10.1988 12.3282 0
      vertex -8.57323 13.5092 0
    endloop
  endfacet
  facet normal -0.58777 0.809028 0
    outer loop
      vertex -10.1988 12.3282 0
      vertex -8.57323 13.5092 -6
      vertex -10.1988 12.3282 -6
    endloop
  endfacet
  facet normal -0.125318 0.992117 0
    outer loop
      vertex -1.00465 15.9684 -6
      vertex -2.9981 15.7166 0
      vertex -1.00465 15.9684 0
    endloop
  endfacet
  facet normal -0.125318 0.992117 0
    outer loop
      vertex -2.9981 15.7166 0
      vertex -1.00465 15.9684 -6
      vertex -2.9981 15.7166 -6
    endloop
  endfacet
  facet normal 0.125318 -0.992117 0
    outer loop
      vertex 1.00465 -15.9684 -6
      vertex 2.9981 -15.7166 0
      vertex 1.00465 -15.9684 0
    endloop
  endfacet
  facet normal 0.125318 -0.992117 0
    outer loop
      vertex 2.9981 -15.7166 0
      vertex 1.00465 -15.9684 -6
      vertex 2.9981 -15.7166 -6
    endloop
  endfacet
  facet normal 0.951057 0.309015 0
    outer loop
      vertex 15.4973 3.97904 0
      vertex 14.8764 5.88999 -6
      vertex 14.8764 5.88999 0
    endloop
  endfacet
  facet normal 0.951057 0.309015 0
    outer loop
      vertex 14.8764 5.88999 -6
      vertex 15.4973 3.97904 0
      vertex 15.4973 3.97904 -6
    endloop
  endfacet
  facet normal 0.982288 0.187379 0
    outer loop
      vertex 15.8738 2.00533 0
      vertex 15.4973 3.97904 -6
      vertex 15.4973 3.97904 0
    endloop
  endfacet
  facet normal 0.982288 0.187379 0
    outer loop
      vertex 15.4973 3.97904 -6
      vertex 15.8738 2.00533 0
      vertex 15.8738 2.00533 -6
    endloop
  endfacet
  facet normal 0.770517 0.637419 0
    outer loop
      vertex 12.9443 9.40456 0
      vertex 11.6635 10.9528 -6
      vertex 11.6635 10.9528 0
    endloop
  endfacet
  facet normal 0.770517 0.637419 0
    outer loop
      vertex 11.6635 10.9528 -6
      vertex 12.9443 9.40456 0
      vertex 12.9443 9.40456 -6
    endloop
  endfacet
  facet normal 0.844335 0.535816 0
    outer loop
      vertex 14.0209 7.70806 0
      vertex 12.9443 9.40456 -6
      vertex 12.9443 9.40456 0
    endloop
  endfacet
  facet normal 0.844335 0.535816 0
    outer loop
      vertex 12.9443 9.40456 -6
      vertex 14.0209 7.70806 0
      vertex 14.0209 7.70806 -6
    endloop
  endfacet
  facet normal 0.125318 0.992117 -0
    outer loop
      vertex 2.9981 15.7166 -6
      vertex 1.00465 15.9684 0
      vertex 2.9981 15.7166 0
    endloop
  endfacet
  facet normal 0.125318 0.992117 0
    outer loop
      vertex 1.00465 15.9684 0
      vertex 2.9981 15.7166 -6
      vertex 1.00465 15.9684 -6
    endloop
  endfacet
  facet normal 0.58777 0.809028 -0
    outer loop
      vertex 10.1988 12.3282 -6
      vertex 8.57323 13.5092 0
      vertex 10.1988 12.3282 0
    endloop
  endfacet
  facet normal 0.58777 0.809028 0
    outer loop
      vertex 8.57323 13.5092 0
      vertex 10.1988 12.3282 -6
      vertex 8.57323 13.5092 -6
    endloop
  endfacet
  facet normal -0.770517 0.637419 0
    outer loop
      vertex -12.9443 9.40456 -6
      vertex -11.6635 10.9528 0
      vertex -11.6635 10.9528 -6
    endloop
  endfacet
  facet normal -0.770517 0.637419 0
    outer loop
      vertex -11.6635 10.9528 0
      vertex -12.9443 9.40456 -6
      vertex -12.9443 9.40456 0
    endloop
  endfacet
  facet normal -0.982288 0.187379 0
    outer loop
      vertex -15.8738 2.00533 -6
      vertex -15.4973 3.97904 0
      vertex -15.4973 3.97904 -6
    endloop
  endfacet
  facet normal -0.982288 0.187379 0
    outer loop
      vertex -15.4973 3.97904 0
      vertex -15.8738 2.00533 -6
      vertex -15.8738 2.00533 0
    endloop
  endfacet
  facet normal -0.481759 0.876304 0
    outer loop
      vertex -6.81247 14.4772 -6
      vertex -8.57323 13.5092 0
      vertex -6.81247 14.4772 0
    endloop
  endfacet
  facet normal -0.481759 0.876304 0
    outer loop
      vertex -8.57323 13.5092 0
      vertex -6.81247 14.4772 -6
      vertex -8.57323 13.5092 -6
    endloop
  endfacet
  facet normal -0.248694 0.968582 0
    outer loop
      vertex -2.9981 15.7166 -6
      vertex -4.94427 15.2169 0
      vertex -2.9981 15.7166 0
    endloop
  endfacet
  facet normal -0.248694 0.968582 0
    outer loop
      vertex -4.94427 15.2169 0
      vertex -2.9981 15.7166 -6
      vertex -4.94427 15.2169 -6
    endloop
  endfacet
  facet normal 0.998026 -0.062808 0
    outer loop
      vertex 15.8738 -2.00533 0
      vertex 16 0 -6
      vertex 16 0 0
    endloop
  endfacet
  facet normal 0.998026 -0.062808 0
    outer loop
      vertex 16 0 -6
      vertex 15.8738 -2.00533 0
      vertex 15.8738 -2.00533 -6
    endloop
  endfacet
  facet normal 0.904831 -0.425772 0
    outer loop
      vertex 14.0209 -7.70806 0
      vertex 14.8764 -5.88999 -6
      vertex 14.8764 -5.88999 0
    endloop
  endfacet
  facet normal 0.904831 -0.425772 0
    outer loop
      vertex 14.8764 -5.88999 -6
      vertex 14.0209 -7.70806 0
      vertex 14.0209 -7.70806 -6
    endloop
  endfacet
  facet normal -0.844335 -0.535816 0
    outer loop
      vertex -12.9443 -9.40456 -6
      vertex -14.0209 -7.70806 0
      vertex -14.0209 -7.70806 -6
    endloop
  endfacet
  facet normal -0.844335 -0.535816 0
    outer loop
      vertex -14.0209 -7.70806 0
      vertex -12.9443 -9.40456 -6
      vertex -12.9443 -9.40456 0
    endloop
  endfacet
  facet normal -0.904831 -0.425772 0
    outer loop
      vertex -14.0209 -7.70806 -6
      vertex -14.8764 -5.88999 0
      vertex -14.8764 -5.88999 -6
    endloop
  endfacet
  facet normal -0.904831 -0.425772 0
    outer loop
      vertex -14.8764 -5.88999 0
      vertex -14.0209 -7.70806 -6
      vertex -14.0209 -7.70806 0
    endloop
  endfacet
  facet normal 0 0 -1
    outer loop
      vertex 10 0 -6
      vertex 16 0 -6
      vertex 15.8738 -2.00533 -6
    endloop
  endfacet
  facet normal 0 0 -1
    outer loop
      vertex 9.92115 -1.25333 -6
      vertex 15.8738 -2.00533 -6
      vertex 15.4973 -3.97904 -6
    endloop
  endfacet
  facet normal 0 0 -1
    outer loop
      vertex 16 0 -6
      vertex 10 0 -6
      vertex 15.8738 2.00533 -6
    endloop
  endfacet
  facet normal 0 0 -1
    outer loop
      vertex 9.68583 -2.4869 -6
      vertex 15.4973 -3.97904 -6
      vertex 14.8764 -5.88999 -6
    endloop
  endfacet
  facet normal 0 0 -1
    outer loop
      vertex 9.92115 1.25333 -6
      vertex 15.8738 2.00533 -6
      vertex 10 0 -6
    endloop
  endfacet
  facet normal 0 0 -1
    outer loop
      vertex 9.29776 -3.68124 -6
      vertex 14.8764 -5.88999 -6
      vertex 14.0209 -7.70806 -6
    endloop
  endfacet
  facet normal -0 0 -1
    outer loop
      vertex 15.8738 2.00533 -6
      vertex 9.92115 1.25333 -6
      vertex 15.4973 3.97904 -6
    endloop
  endfacet
  facet normal 0 0 -1
    outer loop
      vertex 8.76307 -4.81754 -6
      vertex 14.0209 -7.70806 -6
      vertex 12.9443 -9.40456 -6
    endloop
  endfacet
  facet normal 0 0 -1
    outer loop
      vertex 9.68583 2.4869 -6
      vertex 15.4973 3.97904 -6
      vertex 9.92115 1.25333 -6
    endloop
  endfacet
  facet normal 0 0 -1
    outer loop
      vertex 8.09017 -5.87785 -6
      vertex 12.9443 -9.40456 -6
      vertex 11.6635 -10.9528 -6
    endloop
  endfacet
  facet normal -0 0 -1
    outer loop
      vertex 15.4973 3.97904 -6
      vertex 9.68583 2.4869 -6
      vertex 14.8764 5.88999 -6
    endloop
  endfacet
  facet normal 0 0 -1
    outer loop
      vertex 7.28969 -6.84547 -6
      vertex 11.6635 -10.9528 -6
      vertex 10.1988 -12.3282 -6
    endloop
  endfacet
  facet normal 0 0 -1
    outer loop
      vertex 9.29776 3.68124 -6
      vertex 14.8764 5.88999 -6
      vertex 9.68583 2.4869 -6
    endloop
  endfacet
  facet normal -0 0 -1
    outer loop
      vertex 14.8764 5.88999 -6
      vertex 9.29776 3.68124 -6
      vertex 14.0209 7.70806 -6
    endloop
  endfacet
  facet normal 0 0 -1
    outer loop
      vertex 15.8738 -2.00533 -6
      vertex 9.92115 -1.25333 -6
      vertex 10 0 -6
    endloop
  endfacet
  facet normal 0 0 -1
    outer loop
      vertex 15.4973 -3.97904 -6
      vertex 9.68583 -2.4869 -6
      vertex 9.92115 -1.25333 -6
    endloop
  endfacet
  facet normal 0 0 -1
    outer loop
      vertex 14.8764 -5.88999 -6
      vertex 9.29776 -3.68124 -6
      vertex 9.68583 -2.4869 -6
    endloop
  endfacet
  facet normal 0 0 -1
    outer loop
      vertex 14.0209 -7.70806 -6
      vertex 8.76307 -4.81754 -6
      vertex 9.29776 -3.68124 -6
    endloop
  endfacet
  facet normal 0 0 -1
    outer loop
      vertex 6.37424 -7.70513 -6
      vertex 10.1988 -12.3282 -6
      vertex 8.57323 -13.5092 -6
    endloop
  endfacet
  facet normal 0 0 -1
    outer loop
      vertex 12.9443 -9.40456 -6
      vertex 8.09017 -5.87785 -6
      vertex 8.76307 -4.81754 -6
    endloop
  endfacet
  facet normal 0 0 -1
    outer loop
      vertex 11.6635 -10.9528 -6
      vertex 7.28969 -6.84547 -6
      vertex 8.09017 -5.87785 -6
    endloop
  endfacet
  facet normal 0 0 -1
    outer loop
      vertex 5.35827 -8.44328 -6
      vertex 8.57323 -13.5092 -6
      vertex 6.81247 -14.4772 -6
    endloop
  endfacet
  facet normal 0 0 -1
    outer loop
      vertex 10.1988 -12.3282 -6
      vertex 6.37424 -7.70513 -6
      vertex 7.28969 -6.84547 -6
    endloop
  endfacet
  facet normal 0 0 -1
    outer loop
      vertex 8.57323 -13.5092 -6
      vertex 5.35827 -8.44328 -6
      vertex 6.37424 -7.70513 -6
    endloop
  endfacet
  facet normal 0 0 -1
    outer loop
      vertex 4.25779 -9.04827 -6
      vertex 6.81247 -14.4772 -6
      vertex 4.94427 -15.2169 -6
    endloop
  endfacet
  facet normal 0 0 -1
    outer loop
      vertex 6.81247 -14.4772 -6
      vertex 4.25779 -9.04827 -6
      vertex 5.35827 -8.44328 -6
    endloop
  endfacet
  facet normal 0 0 -1
    outer loop
      vertex 4.94427 -15.2169 -6
      vertex 3.09017 -9.51056 -6
      vertex 4.25779 -9.04827 -6
    endloop
  endfacet
  facet normal 0 0 -1
    outer loop
      vertex 2.9981 -15.7166 -6
      vertex 3.09017 -9.51056 -6
      vertex 4.94427 -15.2169 -6
    endloop
  endfacet
  facet normal 0 0 -1
    outer loop
      vertex 2.9981 -15.7166 -6
      vertex 1.87381 -9.82287 -6
      vertex 3.09017 -9.51056 -6
    endloop
  endfacet
  facet normal 0 0 -1
    outer loop
      vertex 1.00465 -15.9684 -6
      vertex 1.87381 -9.82287 -6
      vertex 2.9981 -15.7166 -6
    endloop
  endfacet
  facet normal 0 0 -1
    outer loop
      vertex 1.00465 -15.9684 -6
      vertex 0.627905 -9.98027 -6
      vertex 1.87381 -9.82287 -6
    endloop
  endfacet
  facet normal 0 0 -1
    outer loop
      vertex 1.00465 -15.9684 -6
      vertex -0.627905 -9.98027 -6
      vertex 0.627905 -9.98027 -6
    endloop
  endfacet
  facet normal 0 0 -1
    outer loop
      vertex -1.00465 -15.9684 -6
      vertex -0.627905 -9.98027 -6
      vertex 1.00465 -15.9684 -6
    endloop
  endfacet
  facet normal 0 0 -1
    outer loop
      vertex -1.00465 -15.9684 -6
      vertex -1.87381 -9.82287 -6
      vertex -0.627905 -9.98027 -6
    endloop
  endfacet
  facet normal 0 0 -1
    outer loop
      vertex -2.9981 -15.7166 -6
      vertex -1.87381 -9.82287 -6
      vertex -1.00465 -15.9684 -6
    endloop
  endfacet
  facet normal 0 0 -1
    outer loop
      vertex -2.9981 -15.7166 -6
      vertex -3.09017 -9.51056 -6
      vertex -1.87381 -9.82287 -6
    endloop
  endfacet
  facet normal 0 0 -1
    outer loop
      vertex -4.94427 -15.2169 -6
      vertex -3.09017 -9.51056 -6
      vertex -2.9981 -15.7166 -6
    endloop
  endfacet
  facet normal -0 0 -1
    outer loop
      vertex -3.09017 -9.51056 -6
      vertex -4.94427 -15.2169 -6
      vertex -4.25779 -9.04827 -6
    endloop
  endfacet
  facet normal 0 0 -1
    outer loop
      vertex -6.81247 -14.4772 -6
      vertex -4.25779 -9.04827 -6
      vertex -4.94427 -15.2169 -6
    endloop
  endfacet
  facet normal -0 0 -1
    outer loop
      vertex -4.25779 -9.04827 -6
      vertex -6.81247 -14.4772 -6
      vertex -5.35827 -8.44328 -6
    endloop
  endfacet
  facet normal 0 0 -1
    outer loop
      vertex -8.57323 -13.5092 -6
      vertex -5.35827 -8.44328 -6
      vertex -6.81247 -14.4772 -6
    endloop
  endfacet
  facet normal -0 0 -1
    outer loop
      vertex -5.35827 -8.44328 -6
      vertex -8.57323 -13.5092 -6
      vertex -6.37424 -7.70513 -6
    endloop
  endfacet
  facet normal 0 0 -1
    outer loop
      vertex -10.1988 -12.3282 -6
      vertex -6.37424 -7.70513 -6
      vertex -8.57323 -13.5092 -6
    endloop
  endfacet
  facet normal -0 0 -1
    outer loop
      vertex -6.37424 -7.70513 -6
      vertex -10.1988 -12.3282 -6
      vertex -7.28969 -6.84547 -6
    endloop
  endfacet
  facet normal 0 0 -1
    outer loop
      vertex -11.6635 -10.9528 -6
      vertex -7.28969 -6.84547 -6
      vertex -10.1988 -12.3282 -6
    endloop
  endfacet
  facet normal -0 0 -1
    outer loop
      vertex -7.28969 -6.84547 -6
      vertex -11.6635 -10.9528 -6
      vertex -8.09017 -5.87785 -6
    endloop
  endfacet
  facet normal 0 0 -1
    outer loop
      vertex -12.9443 -9.40456 -6
      vertex -8.09017 -5.87785 -6
      vertex -11.6635 -10.9528 -6
    endloop
  endfacet
  facet normal -0 0 -1
    outer loop
      vertex -8.09017 -5.87785 -6
      vertex -12.9443 -9.40456 -6
      vertex -8.76307 -4.81754 -6
    endloop
  endfacet
  facet normal -0 0 -1
    outer loop
      vertex -8.76307 -4.81754 -6
      vertex -14.0209 -7.70806 -6
      vertex -9.29776 -3.68124 -6
    endloop
  endfacet
  facet normal 0 0 -1
    outer loop
      vertex -14.0209 -7.70806 -6
      vertex -8.76307 -4.81754 -6
      vertex -12.9443 -9.40456 -6
    endloop
  endfacet
  facet normal 0 0 -1
    outer loop
      vertex 8.76307 4.81754 -6
      vertex 14.0209 7.70806 -6
      vertex 9.29776 3.68124 -6
    endloop
  endfacet
  facet normal -0 0 -1
    outer loop
      vertex 14.0209 7.70806 -6
      vertex 8.76307 4.81754 -6
      vertex 12.9443 9.40456 -6
    endloop
  endfacet
  facet normal 0 0 -1
    outer loop
      vertex 8.09017 5.87785 -6
      vertex 12.9443 9.40456 -6
      vertex 8.76307 4.81754 -6
    endloop
  endfacet
  facet normal -0 0 -1
    outer loop
      vertex 12.9443 9.40456 -6
      vertex 8.09017 5.87785 -6
      vertex 11.6635 10.9528 -6
    endloop
  endfacet
  facet normal 0 0 -1
    outer loop
      vertex 7.28969 6.84547 -6
      vertex 11.6635 10.9528 -6
      vertex 8.09017 5.87785 -6
    endloop
  endfacet
  facet normal -0 0 -1
    outer loop
      vertex 11.6635 10.9528 -6
      vertex 7.28969 6.84547 -6
      vertex 10.1988 12.3282 -6
    endloop
  endfacet
  facet normal 0 0 -1
    outer loop
      vertex 6.37424 7.70513 -6
      vertex 10.1988 12.3282 -6
      vertex 7.28969 6.84547 -6
    endloop
  endfacet
  facet normal -0 0 -1
    outer loop
      vertex 10.1988 12.3282 -6
      vertex 6.37424 7.70513 -6
      vertex 8.57323 13.5092 -6
    endloop
  endfacet
  facet normal 0 0 -1
    outer loop
      vertex 5.35827 8.44328 -6
      vertex 8.57323 13.5092 -6
      vertex 6.37424 7.70513 -6
    endloop
  endfacet
  facet normal -0 0 -1
    outer loop
      vertex 8.57323 13.5092 -6
      vertex 5.35827 8.44328 -6
      vertex 6.81247 14.4772 -6
    endloop
  endfacet
  facet normal 0 0 -1
    outer loop
      vertex 4.25779 9.04827 -6
      vertex 6.81247 14.4772 -6
      vertex 5.35827 8.44328 -6
    endloop
  endfacet
  facet normal -0 0 -1
    outer loop
      vertex 6.81247 14.4772 -6
      vertex 4.25779 9.04827 -6
      vertex 4.94427 15.2169 -6
    endloop
  endfacet
  facet normal 0 0 -1
    outer loop
      vertex 3.09017 9.51056 -6
      vertex 4.94427 15.2169 -6
      vertex 4.25779 9.04827 -6
    endloop
  endfacet
  facet normal 0 0 -1
    outer loop
      vertex 3.09017 9.51056 -6
      vertex 2.9981 15.7166 -6
      vertex 4.94427 15.2169 -6
    endloop
  endfacet
  facet normal 0 0 -1
    outer loop
      vertex 1.87381 9.82287 -6
      vertex 2.9981 15.7166 -6
      vertex 3.09017 9.51056 -6
    endloop
  endfacet
  facet normal 0 0 -1
    outer loop
      vertex 1.87381 9.82287 -6
      vertex 1.00465 15.9684 -6
      vertex 2.9981 15.7166 -6
    endloop
  endfacet
  facet normal 0 0 -1
    outer loop
      vertex 0.627905 9.98027 -6
      vertex 1.00465 15.9684 -6
      vertex 1.87381 9.82287 -6
    endloop
  endfacet
  facet normal 0 0 -1
    outer loop
      vertex -0.627905 9.98027 -6
      vertex 1.00465 15.9684 -6
      vertex 0.627905 9.98027 -6
    endloop
  endfacet
  facet normal 0 0 -1
    outer loop
      vertex -0.627905 9.98027 -6
      vertex -1.00465 15.9684 -6
      vertex 1.00465 15.9684 -6
    endloop
  endfacet
  facet normal 0 0 -1
    outer loop
      vertex -1.87381 9.82287 -6
      vertex -1.00465 15.9684 -6
      vertex -0.627905 9.98027 -6
    endloop
  endfacet
  facet normal 0 0 -1
    outer loop
      vertex -1.87381 9.82287 -6
      vertex -2.9981 15.7166 -6
      vertex -1.00465 15.9684 -6
    endloop
  endfacet
  facet normal 0 0 -1
    outer loop
      vertex -3.09017 9.51056 -6
      vertex -2.9981 15.7166 -6
      vertex -1.87381 9.82287 -6
    endloop
  endfacet
  facet normal 0 0 -1
    outer loop
      vertex -4.94427 15.2169 -6
      vertex -3.09017 9.51056 -6
      vertex -4.25779 9.04827 -6
    endloop
  endfacet
  facet normal 0 0 -1
    outer loop
      vertex -3.09017 9.51056 -6
      vertex -4.94427 15.2169 -6
      vertex -2.9981 15.7166 -6
    endloop
  endfacet
  facet normal 0 0 -1
    outer loop
      vertex -6.81247 14.4772 -6
      vertex -4.25779 9.04827 -6
      vertex -5.35827 8.44328 -6
    endloop
  endfacet
  facet normal 0 0 -1
    outer loop
      vertex -8.57323 13.5092 -6
      vertex -5.35827 8.44328 -6
      vertex -6.37424 7.70513 -6
    endloop
  endfacet
  facet normal 0 0 -1
    outer loop
      vertex -4.25779 9.04827 -6
      vertex -6.81247 14.4772 -6
      vertex -4.94427 15.2169 -6
    endloop
  endfacet
  facet normal 0 0 -1
    outer loop
      vertex -10.1988 12.3282 -6
      vertex -6.37424 7.70513 -6
      vertex -7.28969 6.84547 -6
    endloop
  endfacet
  facet normal 0 0 -1
    outer loop
      vertex -11.6635 10.9528 -6
      vertex -7.28969 6.84547 -6
      vertex -8.09017 5.87785 -6
    endloop
  endfacet
  facet normal 0 0 -1
    outer loop
      vertex -5.35827 8.44328 -6
      vertex -8.57323 13.5092 -6
      vertex -6.81247 14.4772 -6
    endloop
  endfacet
  facet normal 0 0 -1
    outer loop
      vertex -12.9443 9.40456 -6
      vertex -8.09017 5.87785 -6
      vertex -8.76307 4.81754 -6
    endloop
  endfacet
  facet normal 0 0 -1
    outer loop
      vertex -14.0209 7.70806 -6
      vertex -8.76307 4.81754 -6
      vertex -9.29776 3.68124 -6
    endloop
  endfacet
  facet normal 0 0 -1
    outer loop
      vertex -14.8764 5.88999 -6
      vertex -9.29776 3.68124 -6
      vertex -9.68583 2.4869 -6
    endloop
  endfacet
  facet normal 0 0 -1
    outer loop
      vertex -15.4973 3.97904 -6
      vertex -9.68583 2.4869 -6
      vertex -9.92115 1.25333 -6
    endloop
  endfacet
  facet normal 0 0 -1
    outer loop
      vertex -6.37424 7.70513 -6
      vertex -10.1988 12.3282 -6
      vertex -8.57323 13.5092 -6
    endloop
  endfacet
  facet normal 0 0 -1
    outer loop
      vertex -15.8738 2.00533 -6
      vertex -9.92115 1.25333 -6
      vertex -10 0 -6
    endloop
  endfacet
  facet normal 0 0 -1
    outer loop
      vertex -14.8764 -5.88999 -6
      vertex -9.29776 -3.68124 -6
      vertex -14.0209 -7.70806 -6
    endloop
  endfacet
  facet normal -0 0 -1
    outer loop
      vertex -9.29776 -3.68124 -6
      vertex -14.8764 -5.88999 -6
      vertex -9.68583 -2.4869 -6
    endloop
  endfacet
  facet normal 0 0 -1
    outer loop
      vertex -7.28969 6.84547 -6
      vertex -11.6635 10.9528 -6
      vertex -10.1988 12.3282 -6
    endloop
  endfacet
  facet normal 0 0 -1
    outer loop
      vertex -15.4973 -3.97904 -6
      vertex -9.68583 -2.4869 -6
      vertex -14.8764 -5.88999 -6
    endloop
  endfacet
  facet normal 0 0 -1
    outer loop
      vertex -8.09017 5.87785 -6
      vertex -12.9443 9.40456 -6
      vertex -11.6635 10.9528 -6
    endloop
  endfacet
  facet normal -0 0 -1
    outer loop
      vertex -9.68583 -2.4869 -6
      vertex -15.4973 -3.97904 -6
      vertex -9.92115 -1.25333 -6
    endloop
  endfacet
  facet normal 0 0 -1
    outer loop
      vertex -8.76307 4.81754 -6
      vertex -14.0209 7.70806 -6
      vertex -12.9443 9.40456 -6
    endloop
  endfacet
  facet normal 0 0 -1
    outer loop
      vertex -15.8738 -2.00533 -6
      vertex -9.92115 -1.25333 -6
      vertex -15.4973 -3.97904 -6
    endloop
  endfacet
  facet normal 0 0 -1
    outer loop
      vertex -9.29776 3.68124 -6
      vertex -14.8764 5.88999 -6
      vertex -14.0209 7.70806 -6
    endloop
  endfacet
  facet normal -0 0 -1
    outer loop
      vertex -9.92115 -1.25333 -6
      vertex -15.8738 -2.00533 -6
      vertex -10 0 -6
    endloop
  endfacet
  facet normal 0 0 -1
    outer loop
      vertex -9.68583 2.4869 -6
      vertex -15.4973 3.97904 -6
      vertex -14.8764 5.88999 -6
    endloop
  endfacet
  facet normal 0 0 -1
    outer loop
      vertex -16 0 -6
      vertex -10 0 -6
      vertex -15.8738 -2.00533 -6
    endloop
  endfacet
  facet normal 0 0 -1
    outer loop
      vertex -9.92115 1.25333 -6
      vertex -15.8738 2.00533 -6
      vertex -15.4973 3.97904 -6
    endloop
  endfacet
  facet normal 0 0 -1
    outer loop
      vertex -10 0 -6
      vertex -16 0 -6
      vertex -15.8738 2.00533 -6
    endloop
  endfacet
  facet normal 0.368136 -0.929772 0
    outer loop
      vertex 4.94427 -15.2169 -6
      vertex 6.81247 -14.4772 0
      vertex 4.94427 -15.2169 0
    endloop
  endfacet
  facet normal 0.368136 -0.929772 0
    outer loop
      vertex 6.81247 -14.4772 0
      vertex 4.94427 -15.2169 -6
      vertex 6.81247 -14.4772 -6
    endloop
  endfacet
  facet normal 0.951057 -0.309015 0
    outer loop
      vertex 14.8764 -5.88999 0
      vertex 15.4973 -3.97904 -6
      vertex 15.4973 -3.97904 0
    endloop
  endfacet
  facet normal 0.951057 -0.309015 0
    outer loop
      vertex 15.4973 -3.97904 -6
      vertex 14.8764 -5.88999 0
      vertex 14.8764 -5.88999 -6
    endloop
  endfacet
  facet normal 0.770517 -0.637419 0
    outer loop
      vertex 11.6635 -10.9528 0
      vertex 12.9443 -9.40456 -6
      vertex 12.9443 -9.40456 0
    endloop
  endfacet
  facet normal 0.770517 -0.637419 0
    outer loop
      vertex 12.9443 -9.40456 -6
      vertex 11.6635 -10.9528 0
      vertex 11.6635 -10.9528 -6
    endloop
  endfacet
  facet normal -0.951057 -0.309015 0
    outer loop
      vertex -14.8764 -5.88999 -6
      vertex -15.4973 -3.97904 0
      vertex -15.4973 -3.97904 -6
    endloop
  endfacet
  facet normal -0.951057 -0.309015 0
    outer loop
      vertex -15.4973 -3.97904 0
      vertex -14.8764 -5.88999 -6
      vertex -14.8764 -5.88999 0
    endloop
  endfacet
  facet normal -0.998026 -0.062808 0
    outer loop
      vertex -15.8738 -2.00533 -6
      vertex -16 0 0
      vertex -16 0 -6
    endloop
  endfacet
  facet normal -0.998026 -0.062808 0
    outer loop
      vertex -16 0 0
      vertex -15.8738 -2.00533 -6
      vertex -15.8738 -2.00533 0
    endloop
  endfacet
  facet normal 0.481759 -0.876304 0
    outer loop
      vertex 6.81247 -14.4772 -6
      vertex 8.57323 -13.5092 0
      vertex 6.81247 -14.4772 0
    endloop
  endfacet
  facet normal 0.481759 -0.876304 0
    outer loop
      vertex 8.57323 -13.5092 0
      vertex 6.81247 -14.4772 -6
      vertex 8.57323 -13.5092 -6
    endloop
  endfacet
  facet normal 0.248694 -0.968582 0
    outer loop
      vertex 2.9981 -15.7166 -6
      vertex 4.94427 -15.2169 0
      vertex 2.9981 -15.7166 0
    endloop
  endfacet
  facet normal 0.248694 -0.968582 0
    outer loop
      vertex 4.94427 -15.2169 0
      vertex 2.9981 -15.7166 -6
      vertex 4.94427 -15.2169 -6
    endloop
  endfacet
  facet normal 0.982288 -0.187379 0
    outer loop
      vertex 15.4973 -3.97904 0
      vertex 15.8738 -2.00533 -6
      vertex 15.8738 -2.00533 0
    endloop
  endfacet
  facet normal 0.982288 -0.187379 0
    outer loop
      vertex 15.8738 -2.00533 -6
      vertex 15.4973 -3.97904 0
      vertex 15.4973 -3.97904 -6
    endloop
  endfacet
  facet normal 0.844335 -0.535816 0
    outer loop
      vertex 12.9443 -9.40456 0
      vertex 14.0209 -7.70806 -6
      vertex 14.0209 -7.70806 0
    endloop
  endfacet
  facet normal 0.844335 -0.535816 0
    outer loop
      vertex 14.0209 -7.70806 -6
      vertex 12.9443 -9.40456 0
      vertex 12.9443 -9.40456 -6
    endloop
  endfacet
  facet normal -0.125318 -0.992117 0
    outer loop
      vertex -2.9981 -15.7166 -6
      vertex -1.00465 -15.9684 0
      vertex -2.9981 -15.7166 0
    endloop
  endfacet
  facet normal -0.125318 -0.992117 -0
    outer loop
      vertex -1.00465 -15.9684 0
      vertex -2.9981 -15.7166 -6
      vertex -1.00465 -15.9684 -6
    endloop
  endfacet
  facet normal -0.684535 -0.72898 0
    outer loop
      vertex -11.6635 -10.9528 -6
      vertex -10.1988 -12.3282 0
      vertex -11.6635 -10.9528 0
    endloop
  endfacet
  facet normal -0.684535 -0.72898 -0
    outer loop
      vertex -10.1988 -12.3282 0
      vertex -11.6635 -10.9528 -6
      vertex -10.1988 -12.3282 -6
    endloop
  endfacet
  facet normal -0.248694 -0.968582 0
    outer loop
      vertex -4.94427 -15.2169 -6
      vertex -2.9981 -15.7166 0
      vertex -4.94427 -15.2169 0
    endloop
  endfacet
  facet normal -0.248694 -0.968582 -0
    outer loop
      vertex -2.9981 -15.7166 0
      vertex -4.94427 -15.2169 -6
      vertex -2.9981 -15.7166 -6
    endloop
  endfacet
  facet normal -0.770517 -0.637419 0
    outer loop
      vertex -11.6635 -10.9528 -6
      vertex -12.9443 -9.40456 0
      vertex -12.9443 -9.40456 -6
    endloop
  endfacet
  facet normal -0.770517 -0.637419 0
    outer loop
      vertex -12.9443 -9.40456 0
      vertex -11.6635 -10.9528 -6
      vertex -11.6635 -10.9528 0
    endloop
  endfacet
  facet normal -0.982288 -0.187379 0
    outer loop
      vertex -15.4973 -3.97904 -6
      vertex -15.8738 -2.00533 0
      vertex -15.8738 -2.00533 -6
    endloop
  endfacet
  facet normal -0.982288 -0.187379 0
    outer loop
      vertex -15.8738 -2.00533 0
      vertex -15.4973 -3.97904 -6
      vertex -15.4973 -3.97904 0
    endloop
  endfacet
  facet normal 0.58777 -0.809028 0
    outer loop
      vertex 8.57323 -13.5092 -6
      vertex 10.1988 -12.3282 0
      vertex 8.57323 -13.5092 0
    endloop
  endfacet
  facet normal 0.58777 -0.809028 0
    outer loop
      vertex 10.1988 -12.3282 0
      vertex 8.57323 -13.5092 -6
      vertex 10.1988 -12.3282 -6
    endloop
  endfacet
  facet normal -0.58777 -0.809028 0
    outer loop
      vertex -10.1988 -12.3282 -6
      vertex -8.57323 -13.5092 0
      vertex -10.1988 -12.3282 0
    endloop
  endfacet
  facet normal -0.58777 -0.809028 -0
    outer loop
      vertex -8.57323 -13.5092 0
      vertex -10.1988 -12.3282 -6
      vertex -8.57323 -13.5092 -6
    endloop
  endfacet
  facet normal -0.368136 -0.929772 0
    outer loop
      vertex -6.81247 -14.4772 -6
      vertex -4.94427 -15.2169 0
      vertex -6.81247 -14.4772 0
    endloop
  endfacet
  facet normal -0.368136 -0.929772 -0
    outer loop
      vertex -4.94427 -15.2169 0
      vertex -6.81247 -14.4772 -6
      vertex -4.94427 -15.2169 -6
    endloop
  endfacet
  facet normal -0.481759 -0.876304 0
    outer loop
      vertex -8.57323 -13.5092 -6
      vertex -6.81247 -14.4772 0
      vertex -8.57323 -13.5092 0
    endloop
  endfacet
  facet normal -0.481759 -0.876304 -0
    outer loop
      vertex -6.81247 -14.4772 0
      vertex -8.57323 -13.5092 -6
      vertex -6.81247 -14.4772 -6
    endloop
  endfacet
  facet normal 0.951061 -0.309002 0
    outer loop
      vertex -2.17931 0.559552 0
      vertex -2.092 0.828279 -54
      vertex -2.092 0.828279 0
    endloop
  endfacet
  facet normal 0.951061 -0.309002 0
    outer loop
      vertex -2.092 0.828279 -54
      vertex -2.17931 0.559552 0
      vertex -2.17931 0.559552 -54
    endloop
  endfacet
  facet normal -0.84433 -0.535824 0
    outer loop
      vertex 1.97169 1.08395 -54
      vertex 1.82029 1.32252 0
      vertex 1.82029 1.32252 -54
    endloop
  endfacet
  facet normal -0.84433 -0.535824 0
    outer loop
      vertex 1.82029 1.32252 0
      vertex 1.97169 1.08395 -54
      vertex 1.97169 1.08395 0
    endloop
  endfacet
  facet normal -0.248692 -0.968583 0
    outer loop
      vertex 0.421607 2.21015 -54
      vertex 0.695288 2.13988 0
      vertex 0.421607 2.21015 0
    endloop
  endfacet
  facet normal -0.248692 -0.968583 -0
    outer loop
      vertex 0.695288 2.13988 0
      vertex 0.421607 2.21015 -54
      vertex 0.695288 2.13988 -54
    endloop
  endfacet
  facet normal -0.368136 -0.929772 0
    outer loop
      vertex 0.695288 2.13988 -54
      vertex 0.958003 2.03586 0
      vertex 0.695288 2.13988 0
    endloop
  endfacet
  facet normal -0.368136 -0.929772 -0
    outer loop
      vertex 0.958003 2.03586 0
      vertex 0.695288 2.13988 -54
      vertex 0.958003 2.03586 -54
    endloop
  endfacet
  facet normal 0.368136 -0.929772 0
    outer loop
      vertex -0.958003 2.03586 -54
      vertex -0.695288 2.13988 0
      vertex -0.958003 2.03586 0
    endloop
  endfacet
  facet normal 0.368136 -0.929772 0
    outer loop
      vertex -0.695288 2.13988 0
      vertex -0.958003 2.03586 -54
      vertex -0.695288 2.13988 -54
    endloop
  endfacet
  facet normal 0.904827 -0.42578 0
    outer loop
      vertex -2.092 0.828279 0
      vertex -1.97169 1.08395 -54
      vertex -1.97169 1.08395 0
    endloop
  endfacet
  facet normal 0.904827 -0.42578 0
    outer loop
      vertex -1.97169 1.08395 -54
      vertex -2.092 0.828279 0
      vertex -2.092 0.828279 -54
    endloop
  endfacet
  facet normal -0.998027 0.0627837 0
    outer loop
      vertex 2.23226 -0.282 -54
      vertex 2.25 0 0
      vertex 2.25 0 -54
    endloop
  endfacet
  facet normal -0.998027 0.0627837 0
    outer loop
      vertex 2.25 0 0
      vertex 2.23226 -0.282 -54
      vertex 2.23226 -0.282 0
    endloop
  endfacet
  facet normal -0.982285 -0.187395 0
    outer loop
      vertex 2.23226 0.282 -54
      vertex 2.17931 0.559552 0
      vertex 2.17931 0.559552 -54
    endloop
  endfacet
  facet normal -0.982285 -0.187395 0
    outer loop
      vertex 2.17931 0.559552 0
      vertex 2.23226 0.282 -54
      vertex 2.23226 0.282 0
    endloop
  endfacet
  facet normal -0.684532 -0.728983 0
    outer loop
      vertex 1.4342 1.73365 -54
      vertex 1.64018 1.54023 0
      vertex 1.4342 1.73365 0
    endloop
  endfacet
  facet normal -0.684532 -0.728983 -0
    outer loop
      vertex 1.64018 1.54023 0
      vertex 1.4342 1.73365 -54
      vertex 1.64018 1.54023 -54
    endloop
  endfacet
  facet normal -0.12532 -0.992116 0
    outer loop
      vertex 0.141278 2.24556 -54
      vertex 0.421607 2.21015 0
      vertex 0.141278 2.24556 0
    endloop
  endfacet
  facet normal -0.12532 -0.992116 -0
    outer loop
      vertex 0.421607 2.21015 0
      vertex 0.141278 2.24556 -54
      vertex 0.421607 2.21015 -54
    endloop
  endfacet
  facet normal -0.587808 -0.809001 0
    outer loop
      vertex 1.20561 1.89974 -54
      vertex 1.4342 1.73365 0
      vertex 1.20561 1.89974 0
    endloop
  endfacet
  facet normal -0.587808 -0.809001 -0
    outer loop
      vertex 1.4342 1.73365 0
      vertex 1.20561 1.89974 -54
      vertex 1.4342 1.73365 -54
    endloop
  endfacet
  facet normal 0.770505 -0.637434 0
    outer loop
      vertex -1.82029 1.32252 0
      vertex -1.64018 1.54023 -54
      vertex -1.64018 1.54023 0
    endloop
  endfacet
  facet normal 0.770505 -0.637434 0
    outer loop
      vertex -1.64018 1.54023 -54
      vertex -1.82029 1.32252 0
      vertex -1.82029 1.32252 -54
    endloop
  endfacet
  facet normal 0.481745 -0.876311 0
    outer loop
      vertex -1.20561 1.89974 -54
      vertex -0.958003 2.03586 0
      vertex -1.20561 1.89974 0
    endloop
  endfacet
  facet normal 0.481745 -0.876311 0
    outer loop
      vertex -0.958003 2.03586 0
      vertex -1.20561 1.89974 -54
      vertex -0.958003 2.03586 -54
    endloop
  endfacet
  facet normal 0.12532 -0.992116 0
    outer loop
      vertex -0.421607 2.21015 -54
      vertex -0.141278 2.24556 0
      vertex -0.421607 2.21015 0
    endloop
  endfacet
  facet normal 0.12532 -0.992116 0
    outer loop
      vertex -0.141278 2.24556 0
      vertex -0.421607 2.21015 -54
      vertex -0.141278 2.24556 -54
    endloop
  endfacet
  facet normal 0.587808 -0.809001 0
    outer loop
      vertex -1.4342 1.73365 -54
      vertex -1.20561 1.89974 0
      vertex -1.4342 1.73365 0
    endloop
  endfacet
  facet normal 0.587808 -0.809001 0
    outer loop
      vertex -1.20561 1.89974 0
      vertex -1.4342 1.73365 -54
      vertex -1.20561 1.89974 -54
    endloop
  endfacet
  facet normal -0.998027 -0.0627837 0
    outer loop
      vertex 2.25 0 -54
      vertex 2.23226 0.282 0
      vertex 2.23226 0.282 -54
    endloop
  endfacet
  facet normal -0.998027 -0.0627837 0
    outer loop
      vertex 2.23226 0.282 0
      vertex 2.25 0 -54
      vertex 2.25 0 0
    endloop
  endfacet
  facet normal -0.84433 0.535824 0
    outer loop
      vertex 1.82029 -1.32252 -54
      vertex 1.97169 -1.08395 0
      vertex 1.97169 -1.08395 -54
    endloop
  endfacet
  facet normal -0.84433 0.535824 0
    outer loop
      vertex 1.97169 -1.08395 0
      vertex 1.82029 -1.32252 -54
      vertex 1.82029 -1.32252 0
    endloop
  endfacet
  facet normal 0.12532 0.992116 -0
    outer loop
      vertex -0.141278 -2.24556 -54
      vertex -0.421607 -2.21015 0
      vertex -0.141278 -2.24556 0
    endloop
  endfacet
  facet normal 0.12532 0.992116 0
    outer loop
      vertex -0.421607 -2.21015 0
      vertex -0.141278 -2.24556 -54
      vertex -0.421607 -2.21015 -54
    endloop
  endfacet
  facet normal -0.248692 0.968583 0
    outer loop
      vertex 0.695288 -2.13988 -54
      vertex 0.421607 -2.21015 0
      vertex 0.695288 -2.13988 0
    endloop
  endfacet
  facet normal -0.248692 0.968583 0
    outer loop
      vertex 0.421607 -2.21015 0
      vertex 0.695288 -2.13988 -54
      vertex 0.421607 -2.21015 -54
    endloop
  endfacet
  facet normal -0.770505 -0.637434 0
    outer loop
      vertex 1.82029 1.32252 -54
      vertex 1.64018 1.54023 0
      vertex 1.64018 1.54023 -54
    endloop
  endfacet
  facet normal -0.770505 -0.637434 0
    outer loop
      vertex 1.64018 1.54023 0
      vertex 1.82029 1.32252 -54
      vertex 1.82029 1.32252 0
    endloop
  endfacet
  facet normal 0 -1 0
    outer loop
      vertex -0.141278 2.24556 -54
      vertex 0.141278 2.24556 0
      vertex -0.141278 2.24556 0
    endloop
  endfacet
  facet normal 0 -1 -0
    outer loop
      vertex 0.141278 2.24556 0
      vertex -0.141278 2.24556 -54
      vertex 0.141278 2.24556 -54
    endloop
  endfacet
  facet normal -0.481745 -0.876311 0
    outer loop
      vertex 0.958003 2.03586 -54
      vertex 1.20561 1.89974 0
      vertex 0.958003 2.03586 0
    endloop
  endfacet
  facet normal -0.481745 -0.876311 -0
    outer loop
      vertex 1.20561 1.89974 0
      vertex 0.958003 2.03586 -54
      vertex 1.20561 1.89974 -54
    endloop
  endfacet
  facet normal 0.998027 -0.0627837 0
    outer loop
      vertex -2.25 0 0
      vertex -2.23226 0.282 -54
      vertex -2.23226 0.282 0
    endloop
  endfacet
  facet normal 0.998027 -0.0627837 0
    outer loop
      vertex -2.23226 0.282 -54
      vertex -2.25 0 0
      vertex -2.25 0 -54
    endloop
  endfacet
  facet normal 0.982285 -0.187395 0
    outer loop
      vertex -2.23226 0.282 0
      vertex -2.17931 0.559552 -54
      vertex -2.17931 0.559552 0
    endloop
  endfacet
  facet normal 0.982285 -0.187395 0
    outer loop
      vertex -2.17931 0.559552 -54
      vertex -2.23226 0.282 0
      vertex -2.23226 0.282 -54
    endloop
  endfacet
  facet normal 0.84433 -0.535824 0
    outer loop
      vertex -1.97169 1.08395 0
      vertex -1.82029 1.32252 -54
      vertex -1.82029 1.32252 0
    endloop
  endfacet
  facet normal 0.84433 -0.535824 0
    outer loop
      vertex -1.82029 1.32252 -54
      vertex -1.97169 1.08395 0
      vertex -1.97169 1.08395 -54
    endloop
  endfacet
  facet normal 0.248692 -0.968583 0
    outer loop
      vertex -0.695288 2.13988 -54
      vertex -0.421607 2.21015 0
      vertex -0.695288 2.13988 0
    endloop
  endfacet
  facet normal 0.248692 -0.968583 0
    outer loop
      vertex -0.421607 2.21015 0
      vertex -0.695288 2.13988 -54
      vertex -0.421607 2.21015 -54
    endloop
  endfacet
  facet normal 0.684532 -0.728983 0
    outer loop
      vertex -1.64018 1.54023 -54
      vertex -1.4342 1.73365 0
      vertex -1.64018 1.54023 0
    endloop
  endfacet
  facet normal 0.684532 -0.728983 0
    outer loop
      vertex -1.4342 1.73365 0
      vertex -1.64018 1.54023 -54
      vertex -1.4342 1.73365 -54
    endloop
  endfacet
  facet normal -0.982285 0.187395 0
    outer loop
      vertex 2.17931 -0.559552 -54
      vertex 2.23226 -0.282 0
      vertex 2.23226 -0.282 -54
    endloop
  endfacet
  facet normal -0.982285 0.187395 0
    outer loop
      vertex 2.23226 -0.282 0
      vertex 2.17931 -0.559552 -54
      vertex 2.17931 -0.559552 0
    endloop
  endfacet
  facet normal -0.12532 0.992116 0
    outer loop
      vertex 0.421607 -2.21015 -54
      vertex 0.141278 -2.24556 0
      vertex 0.421607 -2.21015 0
    endloop
  endfacet
  facet normal -0.12532 0.992116 0
    outer loop
      vertex 0.141278 -2.24556 0
      vertex 0.421607 -2.21015 -54
      vertex 0.141278 -2.24556 -54
    endloop
  endfacet
  facet normal -0.770505 0.637434 0
    outer loop
      vertex 1.64018 -1.54023 -54
      vertex 1.82029 -1.32252 0
      vertex 1.82029 -1.32252 -54
    endloop
  endfacet
  facet normal -0.770505 0.637434 0
    outer loop
      vertex 1.82029 -1.32252 0
      vertex 1.64018 -1.54023 -54
      vertex 1.64018 -1.54023 0
    endloop
  endfacet
  facet normal -0.904827 -0.42578 0
    outer loop
      vertex 2.092 0.828279 -54
      vertex 1.97169 1.08395 0
      vertex 1.97169 1.08395 -54
    endloop
  endfacet
  facet normal -0.904827 -0.42578 0
    outer loop
      vertex 1.97169 1.08395 0
      vertex 2.092 0.828279 -54
      vertex 2.092 0.828279 0
    endloop
  endfacet
  facet normal -0.951061 -0.309002 0
    outer loop
      vertex 2.17931 0.559552 -54
      vertex 2.092 0.828279 0
      vertex 2.092 0.828279 -54
    endloop
  endfacet
  facet normal -0.951061 -0.309002 0
    outer loop
      vertex 2.092 0.828279 0
      vertex 2.17931 0.559552 -54
      vertex 2.17931 0.559552 0
    endloop
  endfacet
  facet normal -0.951061 0.309002 0
    outer loop
      vertex 2.092 -0.828279 -54
      vertex 2.17931 -0.559552 0
      vertex 2.17931 -0.559552 -54
    endloop
  endfacet
  facet normal -0.951061 0.309002 0
    outer loop
      vertex 2.17931 -0.559552 0
      vertex 2.092 -0.828279 -54
      vertex 2.092 -0.828279 0
    endloop
  endfacet
  facet normal -0.904827 0.42578 0
    outer loop
      vertex 1.97169 -1.08395 -54
      vertex 2.092 -0.828279 0
      vertex 2.092 -0.828279 -54
    endloop
  endfacet
  facet normal -0.904827 0.42578 0
    outer loop
      vertex 2.092 -0.828279 0
      vertex 1.97169 -1.08395 -54
      vertex 1.97169 -1.08395 0
    endloop
  endfacet
  facet normal 0.481745 0.876311 -0
    outer loop
      vertex -0.958003 -2.03586 -54
      vertex -1.20561 -1.89974 0
      vertex -0.958003 -2.03586 0
    endloop
  endfacet
  facet normal 0.481745 0.876311 0
    outer loop
      vertex -1.20561 -1.89974 0
      vertex -0.958003 -2.03586 -54
      vertex -1.20561 -1.89974 -54
    endloop
  endfacet
  facet normal 0.998027 0.0627837 0
    outer loop
      vertex -2.23226 -0.282 0
      vertex -2.25 0 -54
      vertex -2.25 0 0
    endloop
  endfacet
  facet normal 0.998027 0.0627837 0
    outer loop
      vertex -2.25 0 -54
      vertex -2.23226 -0.282 0
      vertex -2.23226 -0.282 -54
    endloop
  endfacet
  facet normal 0.951061 0.309002 0
    outer loop
      vertex -2.092 -0.828279 0
      vertex -2.17931 -0.559552 -54
      vertex -2.17931 -0.559552 0
    endloop
  endfacet
  facet normal 0.951061 0.309002 0
    outer loop
      vertex -2.17931 -0.559552 -54
      vertex -2.092 -0.828279 0
      vertex -2.092 -0.828279 -54
    endloop
  endfacet
  facet normal 0.770505 0.637434 0
    outer loop
      vertex -1.64018 -1.54023 0
      vertex -1.82029 -1.32252 -54
      vertex -1.82029 -1.32252 0
    endloop
  endfacet
  facet normal 0.770505 0.637434 0
    outer loop
      vertex -1.82029 -1.32252 -54
      vertex -1.64018 -1.54023 0
      vertex -1.64018 -1.54023 -54
    endloop
  endfacet
  facet normal -0.368136 0.929772 0
    outer loop
      vertex 0.958003 -2.03586 -54
      vertex 0.695288 -2.13988 0
      vertex 0.958003 -2.03586 0
    endloop
  endfacet
  facet normal -0.368136 0.929772 0
    outer loop
      vertex 0.695288 -2.13988 0
      vertex 0.958003 -2.03586 -54
      vertex 0.695288 -2.13988 -54
    endloop
  endfacet
  facet normal -0.587808 0.809001 0
    outer loop
      vertex 1.4342 -1.73365 -54
      vertex 1.20561 -1.89974 0
      vertex 1.4342 -1.73365 0
    endloop
  endfacet
  facet normal -0.587808 0.809001 0
    outer loop
      vertex 1.20561 -1.89974 0
      vertex 1.4342 -1.73365 -54
      vertex 1.20561 -1.89974 -54
    endloop
  endfacet
  facet normal 0.684532 0.728983 -0
    outer loop
      vertex -1.4342 -1.73365 -54
      vertex -1.64018 -1.54023 0
      vertex -1.4342 -1.73365 0
    endloop
  endfacet
  facet normal 0.684532 0.728983 0
    outer loop
      vertex -1.64018 -1.54023 0
      vertex -1.4342 -1.73365 -54
      vertex -1.64018 -1.54023 -54
    endloop
  endfacet
  facet normal 0 1 -0
    outer loop
      vertex 0.141278 -2.24556 -54
      vertex -0.141278 -2.24556 0
      vertex 0.141278 -2.24556 0
    endloop
  endfacet
  facet normal 0 1 0
    outer loop
      vertex -0.141278 -2.24556 0
      vertex 0.141278 -2.24556 -54
      vertex -0.141278 -2.24556 -54
    endloop
  endfacet
  facet normal 0.587808 0.809001 -0
    outer loop
      vertex -1.20561 -1.89974 -54
      vertex -1.4342 -1.73365 0
      vertex -1.20561 -1.89974 0
    endloop
  endfacet
  facet normal 0.587808 0.809001 0
    outer loop
      vertex -1.4342 -1.73365 0
      vertex -1.20561 -1.89974 -54
      vertex -1.4342 -1.73365 -54
    endloop
  endfacet
  facet normal 0.982285 0.187395 0
    outer loop
      vertex -2.17931 -0.559552 0
      vertex -2.23226 -0.282 -54
      vertex -2.23226 -0.282 0
    endloop
  endfacet
  facet normal 0.982285 0.187395 0
    outer loop
      vertex -2.23226 -0.282 -54
      vertex -2.17931 -0.559552 0
      vertex -2.17931 -0.559552 -54
    endloop
  endfacet
  facet normal 0.84433 0.535824 0
    outer loop
      vertex -1.82029 -1.32252 0
      vertex -1.97169 -1.08395 -54
      vertex -1.97169 -1.08395 0
    endloop
  endfacet
  facet normal 0.84433 0.535824 0
    outer loop
      vertex -1.97169 -1.08395 -54
      vertex -1.82029 -1.32252 0
      vertex -1.82029 -1.32252 -54
    endloop
  endfacet
  facet normal 0.904827 0.42578 0
    outer loop
      vertex -1.97169 -1.08395 0
      vertex -2.092 -0.828279 -54
      vertex -2.092 -0.828279 0
    endloop
  endfacet
  facet normal 0.904827 0.42578 0
    outer loop
      vertex -2.092 -0.828279 -54
      vertex -1.97169 -1.08395 0
      vertex -1.97169 -1.08395 -54
    endloop
  endfacet
  facet normal -0.481745 0.876311 0
    outer loop
      vertex 1.20561 -1.89974 -54
      vertex 0.958003 -2.03586 0
      vertex 1.20561 -1.89974 0
    endloop
  endfacet
  facet normal -0.481745 0.876311 0
    outer loop
      vertex 0.958003 -2.03586 0
      vertex 1.20561 -1.89974 -54
      vertex 0.958003 -2.03586 -54
    endloop
  endfacet
  facet normal -0.684532 0.728983 0
    outer loop
      vertex 1.64018 -1.54023 -54
      vertex 1.4342 -1.73365 0
      vertex 1.64018 -1.54023 0
    endloop
  endfacet
  facet normal -0.684532 0.728983 0
    outer loop
      vertex 1.4342 -1.73365 0
      vertex 1.64018 -1.54023 -54
      vertex 1.4342 -1.73365 -54
    endloop
  endfacet
  facet normal 0.248692 0.968583 -0
    outer loop
      vertex -0.421607 -2.21015 -54
      vertex -0.695288 -2.13988 0
      vertex -0.421607 -2.21015 0
    endloop
  endfacet
  facet normal 0.248692 0.968583 0
    outer loop
      vertex -0.695288 -2.13988 0
      vertex -0.421607 -2.21015 -54
      vertex -0.695288 -2.13988 -54
    endloop
  endfacet
  facet normal 0.368136 0.929772 -0
    outer loop
      vertex -0.695288 -2.13988 -54
      vertex -0.958003 -2.03586 0
      vertex -0.695288 -2.13988 0
    endloop
  endfacet
  facet normal 0.368136 0.929772 0
    outer loop
      vertex -0.958003 -2.03586 0
      vertex -0.695288 -2.13988 -54
      vertex -0.958003 -2.03586 -54
    endloop
  endfacet
endsolid OpenSCAD_Model
