solid OpenSCAD_Model
  facet normal 0 0 1
    outer loop
      vertex 3.75 0 0
      vertex 10 0 0
      vertex 9.92115 1.25333 0
    endloop
  endfacet
  facet normal 0 0 1
    outer loop
      vertex 3.72043 0.469999 0
      vertex 9.92115 1.25333 0
      vertex 9.68583 2.4869 0
    endloop
  endfacet
  facet normal 0 0 1
    outer loop
      vertex 10 0 0
      vertex 3.75 0 0
      vertex 9.92115 -1.25333 0
    endloop
  endfacet
  facet normal 0 0 1
    outer loop
      vertex 3.63219 0.932587 0
      vertex 9.68583 2.4869 0
      vertex 9.29776 3.68124 0
    endloop
  endfacet
  facet normal -0 0 1
    outer loop
      vertex 3.72043 -0.469999 0
      vertex 9.92115 -1.25333 0
      vertex 3.75 0 0
    endloop
  endfacet
  facet normal 0 0 1
    outer loop
      vertex 3.48666 1.38047 0
      vertex 9.29776 3.68124 0
      vertex 8.76307 4.81754 0
    endloop
  endfacet
  facet normal 0 0 1
    outer loop
      vertex 9.92115 -1.25333 0
      vertex 3.72043 -0.469999 0
      vertex 9.68583 -2.4869 0
    endloop
  endfacet
  facet normal 0 0 1
    outer loop
      vertex 3.28615 1.80658 0
      vertex 8.76307 4.81754 0
      vertex 8.09017 5.87785 0
    endloop
  endfacet
  facet normal -0 0 1
    outer loop
      vertex 3.63219 -0.932587 0
      vertex 9.68583 -2.4869 0
      vertex 3.72043 -0.469999 0
    endloop
  endfacet
  facet normal 0 0 1
    outer loop
      vertex 3.03381 2.20419 0
      vertex 8.09017 5.87785 0
      vertex 7.28969 6.84547 0
    endloop
  endfacet
  facet normal 0 0 1
    outer loop
      vertex 9.68583 -2.4869 0
      vertex 3.63219 -0.932587 0
      vertex 9.29776 -3.68124 0
    endloop
  endfacet
  facet normal 0 0 1
    outer loop
      vertex 2.73363 2.56705 0
      vertex 7.28969 6.84547 0
      vertex 6.37424 7.70513 0
    endloop
  endfacet
  facet normal -0 0 1
    outer loop
      vertex 3.48666 -1.38047 0
      vertex 9.29776 -3.68124 0
      vertex 3.63219 -0.932587 0
    endloop
  endfacet
  facet normal 0 0 1
    outer loop
      vertex 2.39034 2.88942 0
      vertex 6.37424 7.70513 0
      vertex 5.35827 8.44328 0
    endloop
  endfacet
  facet normal 0 0 1
    outer loop
      vertex 9.29776 -3.68124 0
      vertex 3.48666 -1.38047 0
      vertex 8.76307 -4.81754 0
    endloop
  endfacet
  facet normal 0 0 1
    outer loop
      vertex 2.00935 3.16623 0
      vertex 5.35827 8.44328 0
      vertex 4.25779 9.04827 0
    endloop
  endfacet
  facet normal -0 0 1
    outer loop
      vertex 3.28615 -1.80658 0
      vertex 8.76307 -4.81754 0
      vertex 3.48666 -1.38047 0
    endloop
  endfacet
  facet normal 0 0 1
    outer loop
      vertex 8.76307 -4.81754 0
      vertex 3.28615 -1.80658 0
      vertex 8.09017 -5.87785 0
    endloop
  endfacet
  facet normal 0 0 1
    outer loop
      vertex 9.92115 1.25333 0
      vertex 3.72043 0.469999 0
      vertex 3.75 0 0
    endloop
  endfacet
  facet normal 0 0 1
    outer loop
      vertex 9.68583 2.4869 0
      vertex 3.63219 0.932587 0
      vertex 3.72043 0.469999 0
    endloop
  endfacet
  facet normal 0 0 1
    outer loop
      vertex 9.29776 3.68124 0
      vertex 3.48666 1.38047 0
      vertex 3.63219 0.932587 0
    endloop
  endfacet
  facet normal 0 0 1
    outer loop
      vertex 8.76307 4.81754 0
      vertex 3.28615 1.80658 0
      vertex 3.48666 1.38047 0
    endloop
  endfacet
  facet normal 0 0 1
    outer loop
      vertex 1.59667 3.3931 0
      vertex 4.25779 9.04827 0
      vertex 3.09017 9.51056 0
    endloop
  endfacet
  facet normal 0 0 1
    outer loop
      vertex 8.09017 5.87785 0
      vertex 3.03381 2.20419 0
      vertex 3.28615 1.80658 0
    endloop
  endfacet
  facet normal 0 0 1
    outer loop
      vertex 7.28969 6.84547 0
      vertex 2.73363 2.56705 0
      vertex 3.03381 2.20419 0
    endloop
  endfacet
  facet normal 0 0 1
    outer loop
      vertex 6.37424 7.70513 0
      vertex 2.39034 2.88942 0
      vertex 2.73363 2.56705 0
    endloop
  endfacet
  facet normal 0 0 1
    outer loop
      vertex 5.35827 8.44328 0
      vertex 2.00935 3.16623 0
      vertex 2.39034 2.88942 0
    endloop
  endfacet
  facet normal 0 0 1
    outer loop
      vertex 1.15881 3.56646 0
      vertex 3.09017 9.51056 0
      vertex 1.87381 9.82287 0
    endloop
  endfacet
  facet normal 0 0 1
    outer loop
      vertex 4.25779 9.04827 0
      vertex 1.59667 3.3931 0
      vertex 2.00935 3.16623 0
    endloop
  endfacet
  facet normal 0 0 1
    outer loop
      vertex 3.09017 9.51056 0
      vertex 1.15881 3.56646 0
      vertex 1.59667 3.3931 0
    endloop
  endfacet
  facet normal 0 0 1
    outer loop
      vertex 1.87381 9.82287 0
      vertex 0.70268 3.68358 0
      vertex 1.15881 3.56646 0
    endloop
  endfacet
  facet normal 0 0 1
    outer loop
      vertex 0.627905 9.98027 0
      vertex 0.70268 3.68358 0
      vertex 1.87381 9.82287 0
    endloop
  endfacet
  facet normal 0 0 1
    outer loop
      vertex 0.627905 9.98027 0
      vertex 0.235464 3.7426 0
      vertex 0.70268 3.68358 0
    endloop
  endfacet
  facet normal 0 0 1
    outer loop
      vertex 0.627905 9.98027 0
      vertex -0.235464 3.7426 0
      vertex 0.235464 3.7426 0
    endloop
  endfacet
  facet normal -0 0 1
    outer loop
      vertex -0.627905 9.98027 0
      vertex -0.235464 3.7426 0
      vertex 0.627905 9.98027 0
    endloop
  endfacet
  facet normal 0 0 1
    outer loop
      vertex -0.627905 9.98027 0
      vertex -0.70268 3.68358 0
      vertex -0.235464 3.7426 0
    endloop
  endfacet
  facet normal -0 0 1
    outer loop
      vertex -1.87381 9.82287 0
      vertex -0.70268 3.68358 0
      vertex -0.627905 9.98027 0
    endloop
  endfacet
  facet normal 0 0 1
    outer loop
      vertex -0.70268 3.68358 0
      vertex -1.87381 9.82287 0
      vertex -1.15881 3.56646 0
    endloop
  endfacet
  facet normal -0 0 1
    outer loop
      vertex -3.09017 9.51056 0
      vertex -1.15881 3.56646 0
      vertex -1.87381 9.82287 0
    endloop
  endfacet
  facet normal 0 0 1
    outer loop
      vertex -1.15881 3.56646 0
      vertex -3.09017 9.51056 0
      vertex -1.59667 3.3931 0
    endloop
  endfacet
  facet normal -0 0 1
    outer loop
      vertex -4.25779 9.04827 0
      vertex -1.59667 3.3931 0
      vertex -3.09017 9.51056 0
    endloop
  endfacet
  facet normal 0 0 1
    outer loop
      vertex -1.59667 3.3931 0
      vertex -4.25779 9.04827 0
      vertex -2.00935 3.16623 0
    endloop
  endfacet
  facet normal -0 0 1
    outer loop
      vertex -5.35827 8.44328 0
      vertex -2.00935 3.16623 0
      vertex -4.25779 9.04827 0
    endloop
  endfacet
  facet normal 0 0 1
    outer loop
      vertex -2.00935 3.16623 0
      vertex -5.35827 8.44328 0
      vertex -2.39034 2.88942 0
    endloop
  endfacet
  facet normal -0 0 1
    outer loop
      vertex -6.37424 7.70513 0
      vertex -2.39034 2.88942 0
      vertex -5.35827 8.44328 0
    endloop
  endfacet
  facet normal 0 0 1
    outer loop
      vertex -2.39034 2.88942 0
      vertex -6.37424 7.70513 0
      vertex -2.73363 2.56705 0
    endloop
  endfacet
  facet normal -0 0 1
    outer loop
      vertex -7.28969 6.84547 0
      vertex -2.73363 2.56705 0
      vertex -6.37424 7.70513 0
    endloop
  endfacet
  facet normal 0 0 1
    outer loop
      vertex -2.73363 2.56705 0
      vertex -7.28969 6.84547 0
      vertex -3.03381 2.20419 0
    endloop
  endfacet
  facet normal 0 0 1
    outer loop
      vertex -3.03381 2.20419 0
      vertex -8.09017 5.87785 0
      vertex -3.28615 1.80658 0
    endloop
  endfacet
  facet normal -0 0 1
    outer loop
      vertex -8.09017 5.87785 0
      vertex -3.03381 2.20419 0
      vertex -7.28969 6.84547 0
    endloop
  endfacet
  facet normal -0 0 1
    outer loop
      vertex 3.03381 -2.20419 0
      vertex 8.09017 -5.87785 0
      vertex 3.28615 -1.80658 0
    endloop
  endfacet
  facet normal 0 0 1
    outer loop
      vertex 8.09017 -5.87785 0
      vertex 3.03381 -2.20419 0
      vertex 7.28969 -6.84547 0
    endloop
  endfacet
  facet normal -0 0 1
    outer loop
      vertex 2.73363 -2.56705 0
      vertex 7.28969 -6.84547 0
      vertex 3.03381 -2.20419 0
    endloop
  endfacet
  facet normal 0 0 1
    outer loop
      vertex 7.28969 -6.84547 0
      vertex 2.73363 -2.56705 0
      vertex 6.37424 -7.70513 0
    endloop
  endfacet
  facet normal -0 0 1
    outer loop
      vertex 2.39034 -2.88942 0
      vertex 6.37424 -7.70513 0
      vertex 2.73363 -2.56705 0
    endloop
  endfacet
  facet normal 0 0 1
    outer loop
      vertex 6.37424 -7.70513 0
      vertex 2.39034 -2.88942 0
      vertex 5.35827 -8.44328 0
    endloop
  endfacet
  facet normal -0 0 1
    outer loop
      vertex 2.00935 -3.16623 0
      vertex 5.35827 -8.44328 0
      vertex 2.39034 -2.88942 0
    endloop
  endfacet
  facet normal 0 0 1
    outer loop
      vertex 5.35827 -8.44328 0
      vertex 2.00935 -3.16623 0
      vertex 4.25779 -9.04827 0
    endloop
  endfacet
  facet normal -0 0 1
    outer loop
      vertex 1.59667 -3.3931 0
      vertex 4.25779 -9.04827 0
      vertex 2.00935 -3.16623 0
    endloop
  endfacet
  facet normal 0 0 1
    outer loop
      vertex 4.25779 -9.04827 0
      vertex 1.59667 -3.3931 0
      vertex 3.09017 -9.51056 0
    endloop
  endfacet
  facet normal -0 0 1
    outer loop
      vertex 1.15881 -3.56646 0
      vertex 3.09017 -9.51056 0
      vertex 1.59667 -3.3931 0
    endloop
  endfacet
  facet normal 0 0 1
    outer loop
      vertex 3.09017 -9.51056 0
      vertex 1.15881 -3.56646 0
      vertex 1.87381 -9.82287 0
    endloop
  endfacet
  facet normal -0 0 1
    outer loop
      vertex 0.70268 -3.68358 0
      vertex 1.87381 -9.82287 0
      vertex 1.15881 -3.56646 0
    endloop
  endfacet
  facet normal 0 0 1
    outer loop
      vertex 0.70268 -3.68358 0
      vertex 0.627905 -9.98027 0
      vertex 1.87381 -9.82287 0
    endloop
  endfacet
  facet normal -0 0 1
    outer loop
      vertex 0.235464 -3.7426 0
      vertex 0.627905 -9.98027 0
      vertex 0.70268 -3.68358 0
    endloop
  endfacet
  facet normal -0 0 1
    outer loop
      vertex -0.235464 -3.7426 0
      vertex 0.627905 -9.98027 0
      vertex 0.235464 -3.7426 0
    endloop
  endfacet
  facet normal 0 0 1
    outer loop
      vertex -0.235464 -3.7426 0
      vertex -0.627905 -9.98027 0
      vertex 0.627905 -9.98027 0
    endloop
  endfacet
  facet normal 0 0 1
    outer loop
      vertex -0.70268 -3.68358 0
      vertex -0.627905 -9.98027 0
      vertex -0.235464 -3.7426 0
    endloop
  endfacet
  facet normal 0 0 1
    outer loop
      vertex -1.87381 -9.82287 0
      vertex -0.70268 -3.68358 0
      vertex -1.15881 -3.56646 0
    endloop
  endfacet
  facet normal 0 0 1
    outer loop
      vertex -3.09017 -9.51056 0
      vertex -1.15881 -3.56646 0
      vertex -1.59667 -3.3931 0
    endloop
  endfacet
  facet normal 0 0 1
    outer loop
      vertex -0.70268 -3.68358 0
      vertex -1.87381 -9.82287 0
      vertex -0.627905 -9.98027 0
    endloop
  endfacet
  facet normal 0 0 1
    outer loop
      vertex -4.25779 -9.04827 0
      vertex -1.59667 -3.3931 0
      vertex -2.00935 -3.16623 0
    endloop
  endfacet
  facet normal 0 0 1
    outer loop
      vertex -5.35827 -8.44328 0
      vertex -2.00935 -3.16623 0
      vertex -2.39034 -2.88942 0
    endloop
  endfacet
  facet normal 0 0 1
    outer loop
      vertex -6.37424 -7.70513 0
      vertex -2.39034 -2.88942 0
      vertex -2.73363 -2.56705 0
    endloop
  endfacet
  facet normal 0 0 1
    outer loop
      vertex -7.28969 -6.84547 0
      vertex -2.73363 -2.56705 0
      vertex -3.03381 -2.20419 0
    endloop
  endfacet
  facet normal 0 0 1
    outer loop
      vertex -1.15881 -3.56646 0
      vertex -3.09017 -9.51056 0
      vertex -1.87381 -9.82287 0
    endloop
  endfacet
  facet normal 0 0 1
    outer loop
      vertex -8.09017 -5.87785 0
      vertex -3.03381 -2.20419 0
      vertex -3.28615 -1.80658 0
    endloop
  endfacet
  facet normal 0 0 1
    outer loop
      vertex -8.76307 -4.81754 0
      vertex -3.28615 -1.80658 0
      vertex -3.48666 -1.38047 0
    endloop
  endfacet
  facet normal 0 0 1
    outer loop
      vertex -9.29776 -3.68124 0
      vertex -3.48666 -1.38047 0
      vertex -3.63219 -0.932587 0
    endloop
  endfacet
  facet normal 0 0 1
    outer loop
      vertex -9.68583 -2.4869 0
      vertex -3.63219 -0.932587 0
      vertex -3.72043 -0.469999 0
    endloop
  endfacet
  facet normal 0 0 1
    outer loop
      vertex -1.59667 -3.3931 0
      vertex -4.25779 -9.04827 0
      vertex -3.09017 -9.51056 0
    endloop
  endfacet
  facet normal 0 0 1
    outer loop
      vertex -9.92115 -1.25333 0
      vertex -3.72043 -0.469999 0
      vertex -3.75 0 0
    endloop
  endfacet
  facet normal -0 0 1
    outer loop
      vertex -8.76307 4.81754 0
      vertex -3.28615 1.80658 0
      vertex -8.09017 5.87785 0
    endloop
  endfacet
  facet normal 0 0 1
    outer loop
      vertex -3.28615 1.80658 0
      vertex -8.76307 4.81754 0
      vertex -3.48666 1.38047 0
    endloop
  endfacet
  facet normal 0 0 1
    outer loop
      vertex -2.00935 -3.16623 0
      vertex -5.35827 -8.44328 0
      vertex -4.25779 -9.04827 0
    endloop
  endfacet
  facet normal -0 0 1
    outer loop
      vertex -9.29776 3.68124 0
      vertex -3.48666 1.38047 0
      vertex -8.76307 4.81754 0
    endloop
  endfacet
  facet normal 0 0 1
    outer loop
      vertex -2.39034 -2.88942 0
      vertex -6.37424 -7.70513 0
      vertex -5.35827 -8.44328 0
    endloop
  endfacet
  facet normal 0 0 1
    outer loop
      vertex -3.48666 1.38047 0
      vertex -9.29776 3.68124 0
      vertex -3.63219 0.932587 0
    endloop
  endfacet
  facet normal 0 0 1
    outer loop
      vertex -2.73363 -2.56705 0
      vertex -7.28969 -6.84547 0
      vertex -6.37424 -7.70513 0
    endloop
  endfacet
  facet normal -0 0 1
    outer loop
      vertex -9.68583 2.4869 0
      vertex -3.63219 0.932587 0
      vertex -9.29776 3.68124 0
    endloop
  endfacet
  facet normal 0 0 1
    outer loop
      vertex -3.03381 -2.20419 0
      vertex -8.09017 -5.87785 0
      vertex -7.28969 -6.84547 0
    endloop
  endfacet
  facet normal 0 0 1
    outer loop
      vertex -3.63219 0.932587 0
      vertex -9.68583 2.4869 0
      vertex -3.72043 0.469999 0
    endloop
  endfacet
  facet normal 0 0 1
    outer loop
      vertex -3.28615 -1.80658 0
      vertex -8.76307 -4.81754 0
      vertex -8.09017 -5.87785 0
    endloop
  endfacet
  facet normal -0 0 1
    outer loop
      vertex -9.92115 1.25333 0
      vertex -3.72043 0.469999 0
      vertex -9.68583 2.4869 0
    endloop
  endfacet
  facet normal 0 0 1
    outer loop
      vertex -3.48666 -1.38047 0
      vertex -9.29776 -3.68124 0
      vertex -8.76307 -4.81754 0
    endloop
  endfacet
  facet normal 0 0 1
    outer loop
      vertex -3.72043 0.469999 0
      vertex -9.92115 1.25333 0
      vertex -3.75 0 0
    endloop
  endfacet
  facet normal 0 0 1
    outer loop
      vertex -3.63219 -0.932587 0
      vertex -9.68583 -2.4869 0
      vertex -9.29776 -3.68124 0
    endloop
  endfacet
  facet normal 0 0 1
    outer loop
      vertex -10 0 0
      vertex -3.75 0 0
      vertex -9.92115 1.25333 0
    endloop
  endfacet
  facet normal 0 0 1
    outer loop
      vertex -3.72043 -0.469999 0
      vertex -9.92115 -1.25333 0
      vertex -9.68583 -2.4869 0
    endloop
  endfacet
  facet normal 0 0 1
    outer loop
      vertex -3.75 0 0
      vertex -10 0 0
      vertex -9.92115 -1.25333 0
    endloop
  endfacet
  facet normal 0 0 -1
    outer loop
      vertex 2.125 0 -36
      vertex 10 0 -36
      vertex 9.92115 -1.25333 -36
    endloop
  endfacet
  facet normal 0 0 -1
    outer loop
      vertex 2.10824 -0.266333 -36
      vertex 9.92115 -1.25333 -36
      vertex 9.68583 -2.4869 -36
    endloop
  endfacet
  facet normal 0 0 -1
    outer loop
      vertex 10 0 -36
      vertex 2.125 0 -36
      vertex 9.92115 1.25333 -36
    endloop
  endfacet
  facet normal 0 0 -1
    outer loop
      vertex 2.05824 -0.528465 -36
      vertex 9.68583 -2.4869 -36
      vertex 9.29776 -3.68124 -36
    endloop
  endfacet
  facet normal 0 0 -1
    outer loop
      vertex 2.10824 0.266333 -36
      vertex 9.92115 1.25333 -36
      vertex 2.125 0 -36
    endloop
  endfacet
  facet normal 0 0 -1
    outer loop
      vertex 1.97577 -0.782264 -36
      vertex 9.29776 -3.68124 -36
      vertex 8.76307 -4.81754 -36
    endloop
  endfacet
  facet normal -0 0 -1
    outer loop
      vertex 9.92115 1.25333 -36
      vertex 2.10824 0.266333 -36
      vertex 9.68583 2.4869 -36
    endloop
  endfacet
  facet normal 0 0 -1
    outer loop
      vertex 1.86215 -1.02373 -36
      vertex 8.76307 -4.81754 -36
      vertex 8.09017 -5.87785 -36
    endloop
  endfacet
  facet normal 0 0 -1
    outer loop
      vertex 2.05824 0.528465 -36
      vertex 9.68583 2.4869 -36
      vertex 2.10824 0.266333 -36
    endloop
  endfacet
  facet normal 0 0 -1
    outer loop
      vertex 1.71916 -1.24904 -36
      vertex 8.09017 -5.87785 -36
      vertex 7.28969 -6.84547 -36
    endloop
  endfacet
  facet normal -0 0 -1
    outer loop
      vertex 9.68583 2.4869 -36
      vertex 2.05824 0.528465 -36
      vertex 9.29776 3.68124 -36
    endloop
  endfacet
  facet normal 0 0 -1
    outer loop
      vertex 1.54906 -1.45466 -36
      vertex 7.28969 -6.84547 -36
      vertex 6.37424 -7.70513 -36
    endloop
  endfacet
  facet normal 0 0 -1
    outer loop
      vertex 1.97577 0.782264 -36
      vertex 9.29776 3.68124 -36
      vertex 2.05824 0.528465 -36
    endloop
  endfacet
  facet normal 0 0 -1
    outer loop
      vertex 1.35453 -1.63734 -36
      vertex 6.37424 -7.70513 -36
      vertex 5.35827 -8.44328 -36
    endloop
  endfacet
  facet normal -0 0 -1
    outer loop
      vertex 9.29776 3.68124 -36
      vertex 1.97577 0.782264 -36
      vertex 8.76307 4.81754 -36
    endloop
  endfacet
  facet normal 0 0 -1
    outer loop
      vertex 1.13863 -1.7942 -36
      vertex 5.35827 -8.44328 -36
      vertex 4.25779 -9.04827 -36
    endloop
  endfacet
  facet normal 0 0 -1
    outer loop
      vertex 1.86215 1.02373 -36
      vertex 8.76307 4.81754 -36
      vertex 1.97577 0.782264 -36
    endloop
  endfacet
  facet normal 0 0 -1
    outer loop
      vertex 0.90478 -1.92276 -36
      vertex 4.25779 -9.04827 -36
      vertex 3.09017 -9.51056 -36
    endloop
  endfacet
  facet normal -0 0 -1
    outer loop
      vertex 8.76307 4.81754 -36
      vertex 1.86215 1.02373 -36
      vertex 8.09017 5.87785 -36
    endloop
  endfacet
  facet normal 0 0 -1
    outer loop
      vertex 1.71916 1.24904 -36
      vertex 8.09017 5.87785 -36
      vertex 1.86215 1.02373 -36
    endloop
  endfacet
  facet normal 0 0 -1
    outer loop
      vertex 9.92115 -1.25333 -36
      vertex 2.10824 -0.266333 -36
      vertex 2.125 0 -36
    endloop
  endfacet
  facet normal 0 0 -1
    outer loop
      vertex 9.68583 -2.4869 -36
      vertex 2.05824 -0.528465 -36
      vertex 2.10824 -0.266333 -36
    endloop
  endfacet
  facet normal 0 0 -1
    outer loop
      vertex 9.29776 -3.68124 -36
      vertex 1.97577 -0.782264 -36
      vertex 2.05824 -0.528465 -36
    endloop
  endfacet
  facet normal 0 0 -1
    outer loop
      vertex 0.656661 -2.02099 -36
      vertex 3.09017 -9.51056 -36
      vertex 1.87381 -9.82287 -36
    endloop
  endfacet
  facet normal 0 0 -1
    outer loop
      vertex 8.76307 -4.81754 -36
      vertex 1.86215 -1.02373 -36
      vertex 1.97577 -0.782264 -36
    endloop
  endfacet
  facet normal 0 0 -1
    outer loop
      vertex 8.09017 -5.87785 -36
      vertex 1.71916 -1.24904 -36
      vertex 1.86215 -1.02373 -36
    endloop
  endfacet
  facet normal 0 0 -1
    outer loop
      vertex 7.28969 -6.84547 -36
      vertex 1.54906 -1.45466 -36
      vertex 1.71916 -1.24904 -36
    endloop
  endfacet
  facet normal 0 0 -1
    outer loop
      vertex 6.37424 -7.70513 -36
      vertex 1.35453 -1.63734 -36
      vertex 1.54906 -1.45466 -36
    endloop
  endfacet
  facet normal 0 0 -1
    outer loop
      vertex 5.35827 -8.44328 -36
      vertex 1.13863 -1.7942 -36
      vertex 1.35453 -1.63734 -36
    endloop
  endfacet
  facet normal 0 0 -1
    outer loop
      vertex 4.25779 -9.04827 -36
      vertex 0.90478 -1.92276 -36
      vertex 1.13863 -1.7942 -36
    endloop
  endfacet
  facet normal 0 0 -1
    outer loop
      vertex 3.09017 -9.51056 -36
      vertex 0.656661 -2.02099 -36
      vertex 0.90478 -1.92276 -36
    endloop
  endfacet
  facet normal 0 0 -1
    outer loop
      vertex 0.398185 -2.08736 -36
      vertex 1.87381 -9.82287 -36
      vertex 0.627905 -9.98027 -36
    endloop
  endfacet
  facet normal 0 0 -1
    outer loop
      vertex 1.87381 -9.82287 -36
      vertex 0.398185 -2.08736 -36
      vertex 0.656661 -2.02099 -36
    endloop
  endfacet
  facet normal 0 0 -1
    outer loop
      vertex 0.627905 -9.98027 -36
      vertex 0.13343 -2.12081 -36
      vertex 0.398185 -2.08736 -36
    endloop
  endfacet
  facet normal 0 0 -1
    outer loop
      vertex 0.627905 -9.98027 -36
      vertex -0.13343 -2.12081 -36
      vertex 0.13343 -2.12081 -36
    endloop
  endfacet
  facet normal 0 0 -1
    outer loop
      vertex -0.627905 -9.98027 -36
      vertex -0.13343 -2.12081 -36
      vertex 0.627905 -9.98027 -36
    endloop
  endfacet
  facet normal -0 0 -1
    outer loop
      vertex -0.13343 -2.12081 -36
      vertex -0.627905 -9.98027 -36
      vertex -0.398185 -2.08736 -36
    endloop
  endfacet
  facet normal 0 0 -1
    outer loop
      vertex -1.87381 -9.82287 -36
      vertex -0.398185 -2.08736 -36
      vertex -0.627905 -9.98027 -36
    endloop
  endfacet
  facet normal -0 0 -1
    outer loop
      vertex -0.398185 -2.08736 -36
      vertex -1.87381 -9.82287 -36
      vertex -0.656661 -2.02099 -36
    endloop
  endfacet
  facet normal 0 0 -1
    outer loop
      vertex -3.09017 -9.51056 -36
      vertex -0.656661 -2.02099 -36
      vertex -1.87381 -9.82287 -36
    endloop
  endfacet
  facet normal -0 0 -1
    outer loop
      vertex -0.656661 -2.02099 -36
      vertex -3.09017 -9.51056 -36
      vertex -0.90478 -1.92276 -36
    endloop
  endfacet
  facet normal 0 0 -1
    outer loop
      vertex -4.25779 -9.04827 -36
      vertex -0.90478 -1.92276 -36
      vertex -3.09017 -9.51056 -36
    endloop
  endfacet
  facet normal -0 0 -1
    outer loop
      vertex -0.90478 -1.92276 -36
      vertex -4.25779 -9.04827 -36
      vertex -1.13863 -1.7942 -36
    endloop
  endfacet
  facet normal 0 0 -1
    outer loop
      vertex -5.35827 -8.44328 -36
      vertex -1.13863 -1.7942 -36
      vertex -4.25779 -9.04827 -36
    endloop
  endfacet
  facet normal -0 0 -1
    outer loop
      vertex -1.13863 -1.7942 -36
      vertex -5.35827 -8.44328 -36
      vertex -1.35453 -1.63734 -36
    endloop
  endfacet
  facet normal 0 0 -1
    outer loop
      vertex -6.37424 -7.70513 -36
      vertex -1.35453 -1.63734 -36
      vertex -5.35827 -8.44328 -36
    endloop
  endfacet
  facet normal -0 0 -1
    outer loop
      vertex -1.35453 -1.63734 -36
      vertex -6.37424 -7.70513 -36
      vertex -1.54906 -1.45466 -36
    endloop
  endfacet
  facet normal 0 0 -1
    outer loop
      vertex -7.28969 -6.84547 -36
      vertex -1.54906 -1.45466 -36
      vertex -6.37424 -7.70513 -36
    endloop
  endfacet
  facet normal -0 0 -1
    outer loop
      vertex -1.54906 -1.45466 -36
      vertex -7.28969 -6.84547 -36
      vertex -1.71916 -1.24904 -36
    endloop
  endfacet
  facet normal 0 0 -1
    outer loop
      vertex -8.09017 -5.87785 -36
      vertex -1.71916 -1.24904 -36
      vertex -7.28969 -6.84547 -36
    endloop
  endfacet
  facet normal -0 0 -1
    outer loop
      vertex 8.09017 5.87785 -36
      vertex 1.71916 1.24904 -36
      vertex 7.28969 6.84547 -36
    endloop
  endfacet
  facet normal 0 0 -1
    outer loop
      vertex 1.54906 1.45466 -36
      vertex 7.28969 6.84547 -36
      vertex 1.71916 1.24904 -36
    endloop
  endfacet
  facet normal -0 0 -1
    outer loop
      vertex 7.28969 6.84547 -36
      vertex 1.54906 1.45466 -36
      vertex 6.37424 7.70513 -36
    endloop
  endfacet
  facet normal 0 0 -1
    outer loop
      vertex 1.35453 1.63734 -36
      vertex 6.37424 7.70513 -36
      vertex 1.54906 1.45466 -36
    endloop
  endfacet
  facet normal -0 0 -1
    outer loop
      vertex 6.37424 7.70513 -36
      vertex 1.35453 1.63734 -36
      vertex 5.35827 8.44328 -36
    endloop
  endfacet
  facet normal 0 0 -1
    outer loop
      vertex 1.13863 1.7942 -36
      vertex 5.35827 8.44328 -36
      vertex 1.35453 1.63734 -36
    endloop
  endfacet
  facet normal -0 0 -1
    outer loop
      vertex 5.35827 8.44328 -36
      vertex 1.13863 1.7942 -36
      vertex 4.25779 9.04827 -36
    endloop
  endfacet
  facet normal 0 0 -1
    outer loop
      vertex 0.90478 1.92276 -36
      vertex 4.25779 9.04827 -36
      vertex 1.13863 1.7942 -36
    endloop
  endfacet
  facet normal -0 0 -1
    outer loop
      vertex 4.25779 9.04827 -36
      vertex 0.90478 1.92276 -36
      vertex 3.09017 9.51056 -36
    endloop
  endfacet
  facet normal 0 0 -1
    outer loop
      vertex 0.656661 2.02099 -36
      vertex 3.09017 9.51056 -36
      vertex 0.90478 1.92276 -36
    endloop
  endfacet
  facet normal -0 0 -1
    outer loop
      vertex 3.09017 9.51056 -36
      vertex 0.656661 2.02099 -36
      vertex 1.87381 9.82287 -36
    endloop
  endfacet
  facet normal 0 0 -1
    outer loop
      vertex 0.398185 2.08736 -36
      vertex 1.87381 9.82287 -36
      vertex 0.656661 2.02099 -36
    endloop
  endfacet
  facet normal -0 0 -1
    outer loop
      vertex 1.87381 9.82287 -36
      vertex 0.398185 2.08736 -36
      vertex 0.627905 9.98027 -36
    endloop
  endfacet
  facet normal 0 0 -1
    outer loop
      vertex 0.13343 2.12081 -36
      vertex 0.627905 9.98027 -36
      vertex 0.398185 2.08736 -36
    endloop
  endfacet
  facet normal 0 0 -1
    outer loop
      vertex -0.13343 2.12081 -36
      vertex 0.627905 9.98027 -36
      vertex 0.13343 2.12081 -36
    endloop
  endfacet
  facet normal 0 0 -1
    outer loop
      vertex -0.627905 9.98027 -36
      vertex -0.13343 2.12081 -36
      vertex -0.398185 2.08736 -36
    endloop
  endfacet
  facet normal 0 0 -1
    outer loop
      vertex -0.13343 2.12081 -36
      vertex -0.627905 9.98027 -36
      vertex 0.627905 9.98027 -36
    endloop
  endfacet
  facet normal 0 0 -1
    outer loop
      vertex -1.87381 9.82287 -36
      vertex -0.398185 2.08736 -36
      vertex -0.656661 2.02099 -36
    endloop
  endfacet
  facet normal 0 0 -1
    outer loop
      vertex -3.09017 9.51056 -36
      vertex -0.656661 2.02099 -36
      vertex -0.90478 1.92276 -36
    endloop
  endfacet
  facet normal 0 0 -1
    outer loop
      vertex -4.25779 9.04827 -36
      vertex -0.90478 1.92276 -36
      vertex -1.13863 1.7942 -36
    endloop
  endfacet
  facet normal 0 0 -1
    outer loop
      vertex -5.35827 8.44328 -36
      vertex -1.13863 1.7942 -36
      vertex -1.35453 1.63734 -36
    endloop
  endfacet
  facet normal 0 0 -1
    outer loop
      vertex -6.37424 7.70513 -36
      vertex -1.35453 1.63734 -36
      vertex -1.54906 1.45466 -36
    endloop
  endfacet
  facet normal 0 0 -1
    outer loop
      vertex -7.28969 6.84547 -36
      vertex -1.54906 1.45466 -36
      vertex -1.71916 1.24904 -36
    endloop
  endfacet
  facet normal 0 0 -1
    outer loop
      vertex -8.09017 5.87785 -36
      vertex -1.71916 1.24904 -36
      vertex -1.86215 1.02373 -36
    endloop
  endfacet
  facet normal 0 0 -1
    outer loop
      vertex -0.398185 2.08736 -36
      vertex -1.87381 9.82287 -36
      vertex -0.627905 9.98027 -36
    endloop
  endfacet
  facet normal 0 0 -1
    outer loop
      vertex -8.76307 4.81754 -36
      vertex -1.86215 1.02373 -36
      vertex -1.97577 0.782264 -36
    endloop
  endfacet
  facet normal 0 0 -1
    outer loop
      vertex -9.29776 3.68124 -36
      vertex -1.97577 0.782264 -36
      vertex -2.05824 0.528465 -36
    endloop
  endfacet
  facet normal 0 0 -1
    outer loop
      vertex -9.68583 2.4869 -36
      vertex -2.05824 0.528465 -36
      vertex -2.10824 0.266333 -36
    endloop
  endfacet
  facet normal 0 0 -1
    outer loop
      vertex -9.92115 1.25333 -36
      vertex -2.10824 0.266333 -36
      vertex -2.125 0 -36
    endloop
  endfacet
  facet normal -0 0 -1
    outer loop
      vertex -1.71916 -1.24904 -36
      vertex -8.09017 -5.87785 -36
      vertex -1.86215 -1.02373 -36
    endloop
  endfacet
  facet normal 0 0 -1
    outer loop
      vertex -0.656661 2.02099 -36
      vertex -3.09017 9.51056 -36
      vertex -1.87381 9.82287 -36
    endloop
  endfacet
  facet normal 0 0 -1
    outer loop
      vertex -8.76307 -4.81754 -36
      vertex -1.86215 -1.02373 -36
      vertex -8.09017 -5.87785 -36
    endloop
  endfacet
  facet normal 0 0 -1
    outer loop
      vertex -0.90478 1.92276 -36
      vertex -4.25779 9.04827 -36
      vertex -3.09017 9.51056 -36
    endloop
  endfacet
  facet normal -0 0 -1
    outer loop
      vertex -1.86215 -1.02373 -36
      vertex -8.76307 -4.81754 -36
      vertex -1.97577 -0.782264 -36
    endloop
  endfacet
  facet normal 0 0 -1
    outer loop
      vertex -1.13863 1.7942 -36
      vertex -5.35827 8.44328 -36
      vertex -4.25779 9.04827 -36
    endloop
  endfacet
  facet normal 0 0 -1
    outer loop
      vertex -9.29776 -3.68124 -36
      vertex -1.97577 -0.782264 -36
      vertex -8.76307 -4.81754 -36
    endloop
  endfacet
  facet normal 0 0 -1
    outer loop
      vertex -1.35453 1.63734 -36
      vertex -6.37424 7.70513 -36
      vertex -5.35827 8.44328 -36
    endloop
  endfacet
  facet normal -0 0 -1
    outer loop
      vertex -1.97577 -0.782264 -36
      vertex -9.29776 -3.68124 -36
      vertex -2.05824 -0.528465 -36
    endloop
  endfacet
  facet normal 0 0 -1
    outer loop
      vertex -1.54906 1.45466 -36
      vertex -7.28969 6.84547 -36
      vertex -6.37424 7.70513 -36
    endloop
  endfacet
  facet normal 0 0 -1
    outer loop
      vertex -9.68583 -2.4869 -36
      vertex -2.05824 -0.528465 -36
      vertex -9.29776 -3.68124 -36
    endloop
  endfacet
  facet normal 0 0 -1
    outer loop
      vertex -1.71916 1.24904 -36
      vertex -8.09017 5.87785 -36
      vertex -7.28969 6.84547 -36
    endloop
  endfacet
  facet normal -0 0 -1
    outer loop
      vertex -2.05824 -0.528465 -36
      vertex -9.68583 -2.4869 -36
      vertex -2.10824 -0.266333 -36
    endloop
  endfacet
  facet normal 0 0 -1
    outer loop
      vertex -1.86215 1.02373 -36
      vertex -8.76307 4.81754 -36
      vertex -8.09017 5.87785 -36
    endloop
  endfacet
  facet normal 0 0 -1
    outer loop
      vertex -9.92115 -1.25333 -36
      vertex -2.10824 -0.266333 -36
      vertex -9.68583 -2.4869 -36
    endloop
  endfacet
  facet normal 0 0 -1
    outer loop
      vertex -1.97577 0.782264 -36
      vertex -9.29776 3.68124 -36
      vertex -8.76307 4.81754 -36
    endloop
  endfacet
  facet normal -0 0 -1
    outer loop
      vertex -2.10824 -0.266333 -36
      vertex -9.92115 -1.25333 -36
      vertex -2.125 0 -36
    endloop
  endfacet
  facet normal 0 0 -1
    outer loop
      vertex -2.05824 0.528465 -36
      vertex -9.68583 2.4869 -36
      vertex -9.29776 3.68124 -36
    endloop
  endfacet
  facet normal 0 0 -1
    outer loop
      vertex -10 0 -36
      vertex -2.125 0 -36
      vertex -9.92115 -1.25333 -36
    endloop
  endfacet
  facet normal 0 0 -1
    outer loop
      vertex -2.10824 0.266333 -36
      vertex -9.92115 1.25333 -36
      vertex -9.68583 2.4869 -36
    endloop
  endfacet
  facet normal 0 0 -1
    outer loop
      vertex -2.125 0 -36
      vertex -10 0 -36
      vertex -9.92115 1.25333 -36
    endloop
  endfacet
  facet normal -0.87795 -0.0552362 0.475556
    outer loop
      vertex 3.75 0 0
      vertex 3.72043 0.469999 0
      vertex 2.125 0 -3
    endloop
  endfacet
  facet normal -0.877948 -0.0552482 0.475557
    outer loop
      vertex 2.125 0 -3
      vertex 3.72043 0.469999 0
      vertex 2.10824 0.266333 -3
    endloop
  endfacet
  facet normal -0.836628 0.271844 0.475556
    outer loop
      vertex 3.48666 -1.38047 0
      vertex 3.63219 -0.932587 0
      vertex 2.05824 -0.528465 -3
    endloop
  endfacet
  facet normal 0.864106 0.164823 0.475557
    outer loop
      vertex -2.05824 -0.528465 -3
      vertex -2.10824 -0.266333 -3
      vertex -3.72043 -0.469999 0
    endloop
  endfacet
  facet normal 0.742735 -0.471371 0.475556
    outer loop
      vertex -1.71916 1.24904 -3
      vertex -3.03381 2.20419 0
      vertex -3.28615 1.80658 0
    endloop
  endfacet
  facet normal -0.795964 0.374548 0.475557
    outer loop
      vertex 3.28615 -1.80658 0
      vertex 3.48666 -1.38047 0
      vertex 1.97577 -0.782264 -3
    endloop
  endfacet
  facet normal -0.218779 0.852046 0.475556
    outer loop
      vertex 0.70268 -3.68358 0
      vertex 1.15881 -3.56646 0
      vertex 0.398185 -2.08736 -3
    endloop
  endfacet
  facet normal 0.110266 -0.872747 0.475557
    outer loop
      vertex -0.398185 2.08736 -3
      vertex -0.13343 2.12081 -3
      vertex -0.70268 3.68358 0
    endloop
  endfacet
  facet normal -0.836624 0.271855 0.475557
    outer loop
      vertex 3.48666 -1.38047 0
      vertex 2.05824 -0.528465 -3
      vertex 1.97577 -0.782264 -3
    endloop
  endfacet
  facet normal -0.602186 0.641264 0.475556
    outer loop
      vertex 2.39034 -2.88942 0
      vertex 2.73363 -2.56705 0
      vertex 1.54906 -1.45466 -3
    endloop
  endfacet
  facet normal -0.323832 0.817912 0.475555
    outer loop
      vertex 1.15881 -3.56646 0
      vertex 1.59667 -3.3931 0
      vertex 0.90478 -1.92276 -3
    endloop
  endfacet
  facet normal -0.602194 0.641257 0.475554
    outer loop
      vertex 2.39034 -2.88942 0
      vertex 1.54906 -1.45466 -3
      vertex 1.35453 -1.63734 -3
    endloop
  endfacet
  facet normal 0.218779 0.852046 0.475556
    outer loop
      vertex -0.70268 -3.68358 0
      vertex -0.398185 -2.08736 -3
      vertex -1.15881 -3.56646 0
    endloop
  endfacet
  facet normal -0.87795 0.0552362 0.475556
    outer loop
      vertex 3.72043 -0.469999 0
      vertex 3.75 0 0
      vertex 2.125 0 -3
    endloop
  endfacet
  facet normal -0.864106 0.164823 0.475557
    outer loop
      vertex 3.72043 -0.469999 0
      vertex 2.10824 -0.266333 -3
      vertex 2.05824 -0.528465 -3
    endloop
  endfacet
  facet normal -0.864105 0.16483 0.475556
    outer loop
      vertex 3.63219 -0.932587 0
      vertex 3.72043 -0.469999 0
      vertex 2.05824 -0.528465 -3
    endloop
  endfacet
  facet normal -0.79597 0.374538 0.475556
    outer loop
      vertex 3.28615 -1.80658 0
      vertex 1.97577 -0.782264 -3
      vertex 1.86215 -1.02373 -3
    endloop
  endfacet
  facet normal -0.110248 0.87275 0.475555
    outer loop
      vertex 0.235464 -3.7426 0
      vertex 0.70268 -3.68358 0
      vertex 0.13343 -2.12081 -3
    endloop
  endfacet
  facet normal -0.110266 0.872747 0.475557
    outer loop
      vertex 0.70268 -3.68358 0
      vertex 0.398185 -2.08736 -3
      vertex 0.13343 -2.12081 -3
    endloop
  endfacet
  facet normal -0.323813 0.817919 0.475557
    outer loop
      vertex 1.15881 -3.56646 0
      vertex 0.90478 -1.92276 -3
      vertex 0.656661 -2.02099 -3
    endloop
  endfacet
  facet normal -0.517072 0.711677 0.475555
    outer loop
      vertex 2.00935 -3.16623 0
      vertex 2.39034 -2.88942 0
      vertex 1.35453 -1.63734 -3
    endloop
  endfacet
  facet normal 0.864105 0.16483 0.475556
    outer loop
      vertex -3.63219 -0.932587 0
      vertex -2.05824 -0.528465 -3
      vertex -3.72043 -0.469999 0
    endloop
  endfacet
  facet normal 0.742735 0.471371 0.475556
    outer loop
      vertex -3.03381 -2.20419 0
      vertex -1.71916 -1.24904 -3
      vertex -3.28615 -1.80658 0
    endloop
  endfacet
  facet normal 0.323813 0.817919 0.475557
    outer loop
      vertex -0.656661 -2.02099 -3
      vertex -0.90478 -1.92276 -3
      vertex -1.15881 -3.56646 0
    endloop
  endfacet
  facet normal 0 -0.879686 0.475555
    outer loop
      vertex -0.13343 2.12081 -3
      vertex 0.235464 3.7426 0
      vertex -0.235464 3.7426 0
    endloop
  endfacet
  facet normal 0 -0.879686 0.475555
    outer loop
      vertex 0.235464 3.7426 0
      vertex -0.13343 2.12081 -3
      vertex 0.13343 2.12081 -3
    endloop
  endfacet
  facet normal 0.864105 -0.16483 0.475556
    outer loop
      vertex -2.05824 0.528465 -3
      vertex -3.63219 0.932587 0
      vertex -3.72043 0.469999 0
    endloop
  endfacet
  facet normal -0.877948 0.0552482 0.475557
    outer loop
      vertex 3.72043 -0.469999 0
      vertex 2.125 0 -3
      vertex 2.10824 -0.266333 -3
    endloop
  endfacet
  facet normal -0.742735 0.471371 0.475556
    outer loop
      vertex 3.03381 -2.20419 0
      vertex 3.28615 -1.80658 0
      vertex 1.71916 -1.24904 -3
    endloop
  endfacet
  facet normal -0.677816 0.560726 0.475555
    outer loop
      vertex 2.73363 -2.56705 0
      vertex 1.71916 -1.24904 -3
      vertex 1.54906 -1.45466 -3
    endloop
  endfacet
  facet normal -0.677813 0.560728 0.475556
    outer loop
      vertex 2.73363 -2.56705 0
      vertex 3.03381 -2.20419 0
      vertex 1.71916 -1.24904 -3
    endloop
  endfacet
  facet normal -0.218783 0.852044 0.475557
    outer loop
      vertex 1.15881 -3.56646 0
      vertex 0.656661 -2.02099 -3
      vertex 0.398185 -2.08736 -3
    endloop
  endfacet
  facet normal -0.423788 0.770877 0.475555
    outer loop
      vertex 1.59667 -3.3931 0
      vertex 2.00935 -3.16623 0
      vertex 0.90478 -1.92276 -3
    endloop
  endfacet
  facet normal 0.795964 0.374548 0.475557
    outer loop
      vertex -3.28615 -1.80658 0
      vertex -1.97577 -0.782264 -3
      vertex -3.48666 -1.38047 0
    endloop
  endfacet
  facet normal 0.602194 0.641257 0.475554
    outer loop
      vertex -1.35453 -1.63734 -3
      vertex -1.54906 -1.45466 -3
      vertex -2.39034 -2.88942 0
    endloop
  endfacet
  facet normal 0.423791 0.770875 0.475556
    outer loop
      vertex -0.90478 -1.92276 -3
      vertex -1.13863 -1.7942 -3
      vertex -2.00935 -3.16623 0
    endloop
  endfacet
  facet normal -0.218779 -0.852046 0.475556
    outer loop
      vertex 1.15881 3.56646 0
      vertex 0.70268 3.68358 0
      vertex 0.398185 2.08736 -3
    endloop
  endfacet
  facet normal -0.864106 -0.164823 0.475557
    outer loop
      vertex 2.10824 0.266333 -3
      vertex 3.72043 0.469999 0
      vertex 2.05824 0.528465 -3
    endloop
  endfacet
  facet normal -0.864105 -0.16483 0.475556
    outer loop
      vertex 3.72043 0.469999 0
      vertex 3.63219 0.932587 0
      vertex 2.05824 0.528465 -3
    endloop
  endfacet
  facet normal 0.677816 -0.560726 0.475555
    outer loop
      vertex -1.71916 1.24904 -3
      vertex -1.54906 1.45466 -3
      vertex -2.73363 2.56705 0
    endloop
  endfacet
  facet normal 0.423791 -0.770875 0.475556
    outer loop
      vertex -1.13863 1.7942 -3
      vertex -0.90478 1.92276 -3
      vertex -2.00935 3.16623 0
    endloop
  endfacet
  facet normal 0.517072 -0.711677 0.475555
    outer loop
      vertex -1.35453 1.63734 -3
      vertex -2.00935 3.16623 0
      vertex -2.39034 2.88942 0
    endloop
  endfacet
  facet normal 0.218779 -0.852046 0.475556
    outer loop
      vertex -0.398185 2.08736 -3
      vertex -0.70268 3.68358 0
      vertex -1.15881 3.56646 0
    endloop
  endfacet
  facet normal -0.742737 0.471368 0.475556
    outer loop
      vertex 3.28615 -1.80658 0
      vertex 1.86215 -1.02373 -3
      vertex 1.71916 -1.24904 -3
    endloop
  endfacet
  facet normal -0.517065 0.711681 0.475556
    outer loop
      vertex 2.00935 -3.16623 0
      vertex 1.35453 -1.63734 -3
      vertex 1.13863 -1.7942 -3
    endloop
  endfacet
  facet normal -0.423791 0.770875 0.475556
    outer loop
      vertex 2.00935 -3.16623 0
      vertex 1.13863 -1.7942 -3
      vertex 0.90478 -1.92276 -3
    endloop
  endfacet
  facet normal 0.836628 0.271844 0.475556
    outer loop
      vertex -3.48666 -1.38047 0
      vertex -2.05824 -0.528465 -3
      vertex -3.63219 -0.932587 0
    endloop
  endfacet
  facet normal 0.836624 0.271855 0.475557
    outer loop
      vertex -1.97577 -0.782264 -3
      vertex -2.05824 -0.528465 -3
      vertex -3.48666 -1.38047 0
    endloop
  endfacet
  facet normal 0.742737 0.471368 0.475556
    outer loop
      vertex -1.71916 -1.24904 -3
      vertex -1.86215 -1.02373 -3
      vertex -3.28615 -1.80658 0
    endloop
  endfacet
  facet normal 0.677816 0.560726 0.475555
    outer loop
      vertex -1.54906 -1.45466 -3
      vertex -1.71916 -1.24904 -3
      vertex -2.73363 -2.56705 0
    endloop
  endfacet
  facet normal 0.602186 0.641264 0.475556
    outer loop
      vertex -2.39034 -2.88942 0
      vertex -1.54906 -1.45466 -3
      vertex -2.73363 -2.56705 0
    endloop
  endfacet
  facet normal 0 0.879686 0.475555
    outer loop
      vertex 0.13343 -2.12081 -3
      vertex -0.235464 -3.7426 0
      vertex 0.235464 -3.7426 0
    endloop
  endfacet
  facet normal 0 0.879686 0.475555
    outer loop
      vertex -0.235464 -3.7426 0
      vertex 0.13343 -2.12081 -3
      vertex -0.13343 -2.12081 -3
    endloop
  endfacet
  facet normal 0.323832 0.817912 0.475555
    outer loop
      vertex -1.15881 -3.56646 0
      vertex -0.90478 -1.92276 -3
      vertex -1.59667 -3.3931 0
    endloop
  endfacet
  facet normal 0.423788 0.770877 0.475555
    outer loop
      vertex -1.59667 -3.3931 0
      vertex -0.90478 -1.92276 -3
      vertex -2.00935 -3.16623 0
    endloop
  endfacet
  facet normal 0.517072 0.711677 0.475555
    outer loop
      vertex -2.00935 -3.16623 0
      vertex -1.35453 -1.63734 -3
      vertex -2.39034 -2.88942 0
    endloop
  endfacet
  facet normal 0.517065 0.711681 0.475556
    outer loop
      vertex -1.13863 -1.7942 -3
      vertex -1.35453 -1.63734 -3
      vertex -2.00935 -3.16623 0
    endloop
  endfacet
  facet normal 0.110248 -0.87275 0.475555
    outer loop
      vertex -0.13343 2.12081 -3
      vertex -0.235464 3.7426 0
      vertex -0.70268 3.68358 0
    endloop
  endfacet
  facet normal -0.323813 -0.817919 0.475557
    outer loop
      vertex 0.90478 1.92276 -3
      vertex 1.15881 3.56646 0
      vertex 0.656661 2.02099 -3
    endloop
  endfacet
  facet normal -0.323832 -0.817912 0.475555
    outer loop
      vertex 1.59667 3.3931 0
      vertex 1.15881 3.56646 0
      vertex 0.90478 1.92276 -3
    endloop
  endfacet
  facet normal -0.677813 -0.560728 0.475556
    outer loop
      vertex 3.03381 2.20419 0
      vertex 2.73363 2.56705 0
      vertex 1.71916 1.24904 -3
    endloop
  endfacet
  facet normal -0.795964 -0.374548 0.475557
    outer loop
      vertex 3.48666 1.38047 0
      vertex 3.28615 1.80658 0
      vertex 1.97577 0.782264 -3
    endloop
  endfacet
  facet normal 0.877948 0.0552482 0.475557
    outer loop
      vertex -2.10824 -0.266333 -3
      vertex -2.125 0 -3
      vertex -3.72043 -0.469999 0
    endloop
  endfacet
  facet normal 0.79597 -0.374538 0.475556
    outer loop
      vertex -1.97577 0.782264 -3
      vertex -1.86215 1.02373 -3
      vertex -3.28615 1.80658 0
    endloop
  endfacet
  facet normal 0.836628 -0.271844 0.475556
    outer loop
      vertex -2.05824 0.528465 -3
      vertex -3.48666 1.38047 0
      vertex -3.63219 0.932587 0
    endloop
  endfacet
  facet normal 0.742737 -0.471368 0.475556
    outer loop
      vertex -1.86215 1.02373 -3
      vertex -1.71916 1.24904 -3
      vertex -3.28615 1.80658 0
    endloop
  endfacet
  facet normal 0.517065 -0.711681 0.475556
    outer loop
      vertex -1.35453 1.63734 -3
      vertex -1.13863 1.7942 -3
      vertex -2.00935 3.16623 0
    endloop
  endfacet
  facet normal 0.602186 -0.641264 0.475556
    outer loop
      vertex -1.54906 1.45466 -3
      vertex -2.39034 2.88942 0
      vertex -2.73363 2.56705 0
    endloop
  endfacet
  facet normal 0.677813 -0.560728 0.475556
    outer loop
      vertex -1.71916 1.24904 -3
      vertex -2.73363 2.56705 0
      vertex -3.03381 2.20419 0
    endloop
  endfacet
  facet normal 0.79597 0.374538 0.475556
    outer loop
      vertex -1.86215 -1.02373 -3
      vertex -1.97577 -0.782264 -3
      vertex -3.28615 -1.80658 0
    endloop
  endfacet
  facet normal 0.677813 0.560728 0.475556
    outer loop
      vertex -2.73363 -2.56705 0
      vertex -1.71916 -1.24904 -3
      vertex -3.03381 -2.20419 0
    endloop
  endfacet
  facet normal 0.110248 0.87275 0.475555
    outer loop
      vertex -0.235464 -3.7426 0
      vertex -0.13343 -2.12081 -3
      vertex -0.70268 -3.68358 0
    endloop
  endfacet
  facet normal 0.110266 0.872747 0.475557
    outer loop
      vertex -0.13343 -2.12081 -3
      vertex -0.398185 -2.08736 -3
      vertex -0.70268 -3.68358 0
    endloop
  endfacet
  facet normal 0.218783 0.852044 0.475557
    outer loop
      vertex -0.398185 -2.08736 -3
      vertex -0.656661 -2.02099 -3
      vertex -1.15881 -3.56646 0
    endloop
  endfacet
  facet normal -0.110248 -0.87275 0.475555
    outer loop
      vertex 0.70268 3.68358 0
      vertex 0.235464 3.7426 0
      vertex 0.13343 2.12081 -3
    endloop
  endfacet
  facet normal -0.110266 -0.872747 0.475557
    outer loop
      vertex 0.398185 2.08736 -3
      vertex 0.70268 3.68358 0
      vertex 0.13343 2.12081 -3
    endloop
  endfacet
  facet normal -0.218783 -0.852044 0.475557
    outer loop
      vertex 0.656661 2.02099 -3
      vertex 1.15881 3.56646 0
      vertex 0.398185 2.08736 -3
    endloop
  endfacet
  facet normal -0.423788 -0.770877 0.475555
    outer loop
      vertex 2.00935 3.16623 0
      vertex 1.59667 3.3931 0
      vertex 0.90478 1.92276 -3
    endloop
  endfacet
  facet normal -0.742735 -0.471371 0.475556
    outer loop
      vertex 3.28615 1.80658 0
      vertex 3.03381 2.20419 0
      vertex 1.71916 1.24904 -3
    endloop
  endfacet
  facet normal -0.423791 -0.770875 0.475556
    outer loop
      vertex 1.13863 1.7942 -3
      vertex 2.00935 3.16623 0
      vertex 0.90478 1.92276 -3
    endloop
  endfacet
  facet normal -0.517072 -0.711677 0.475555
    outer loop
      vertex 2.39034 2.88942 0
      vertex 2.00935 3.16623 0
      vertex 1.35453 1.63734 -3
    endloop
  endfacet
  facet normal -0.836628 -0.271844 0.475556
    outer loop
      vertex 3.63219 0.932587 0
      vertex 3.48666 1.38047 0
      vertex 2.05824 0.528465 -3
    endloop
  endfacet
  facet normal -0.836624 -0.271855 0.475557
    outer loop
      vertex 2.05824 0.528465 -3
      vertex 3.48666 1.38047 0
      vertex 1.97577 0.782264 -3
    endloop
  endfacet
  facet normal -0.742737 -0.471368 0.475556
    outer loop
      vertex 1.86215 1.02373 -3
      vertex 3.28615 1.80658 0
      vertex 1.71916 1.24904 -3
    endloop
  endfacet
  facet normal 0.87795 0.0552362 0.475556
    outer loop
      vertex -3.72043 -0.469999 0
      vertex -2.125 0 -3
      vertex -3.75 0 0
    endloop
  endfacet
  facet normal 0.87795 -0.0552362 0.475556
    outer loop
      vertex -2.125 0 -3
      vertex -3.72043 0.469999 0
      vertex -3.75 0 0
    endloop
  endfacet
  facet normal 0.836624 -0.271855 0.475557
    outer loop
      vertex -2.05824 0.528465 -3
      vertex -1.97577 0.782264 -3
      vertex -3.48666 1.38047 0
    endloop
  endfacet
  facet normal 0.795964 -0.374548 0.475557
    outer loop
      vertex -1.97577 0.782264 -3
      vertex -3.28615 1.80658 0
      vertex -3.48666 1.38047 0
    endloop
  endfacet
  facet normal 0.602194 -0.641257 0.475554
    outer loop
      vertex -1.54906 1.45466 -3
      vertex -1.35453 1.63734 -3
      vertex -2.39034 2.88942 0
    endloop
  endfacet
  facet normal 0.323832 -0.817912 0.475555
    outer loop
      vertex -0.90478 1.92276 -3
      vertex -1.15881 3.56646 0
      vertex -1.59667 3.3931 0
    endloop
  endfacet
  facet normal 0.423788 -0.770877 0.475555
    outer loop
      vertex -0.90478 1.92276 -3
      vertex -1.59667 3.3931 0
      vertex -2.00935 3.16623 0
    endloop
  endfacet
  facet normal 0.323813 -0.817919 0.475557
    outer loop
      vertex -0.90478 1.92276 -3
      vertex -0.656661 2.02099 -3
      vertex -1.15881 3.56646 0
    endloop
  endfacet
  facet normal 0.218783 -0.852044 0.475557
    outer loop
      vertex -0.656661 2.02099 -3
      vertex -0.398185 2.08736 -3
      vertex -1.15881 3.56646 0
    endloop
  endfacet
  facet normal -0.602186 -0.641264 0.475556
    outer loop
      vertex 2.73363 2.56705 0
      vertex 2.39034 2.88942 0
      vertex 1.54906 1.45466 -3
    endloop
  endfacet
  facet normal -0.677816 -0.560726 0.475555
    outer loop
      vertex 1.71916 1.24904 -3
      vertex 2.73363 2.56705 0
      vertex 1.54906 1.45466 -3
    endloop
  endfacet
  facet normal -0.517065 -0.711681 0.475556
    outer loop
      vertex 1.35453 1.63734 -3
      vertex 2.00935 3.16623 0
      vertex 1.13863 1.7942 -3
    endloop
  endfacet
  facet normal -0.79597 -0.374538 0.475556
    outer loop
      vertex 1.97577 0.782264 -3
      vertex 3.28615 1.80658 0
      vertex 1.86215 1.02373 -3
    endloop
  endfacet
  facet normal 0.877948 -0.0552482 0.475557
    outer loop
      vertex -2.125 0 -3
      vertex -2.10824 0.266333 -3
      vertex -3.72043 0.469999 0
    endloop
  endfacet
  facet normal 0.864106 -0.164823 0.475557
    outer loop
      vertex -2.10824 0.266333 -3
      vertex -2.05824 0.528465 -3
      vertex -3.72043 0.469999 0
    endloop
  endfacet
  facet normal -0.602194 -0.641257 0.475554
    outer loop
      vertex 1.54906 1.45466 -3
      vertex 2.39034 2.88942 0
      vertex 1.35453 1.63734 -3
    endloop
  endfacet
  facet normal 0.95105 -0.309036 0
    outer loop
      vertex -2.05824 0.528465 -3
      vertex -1.97577 0.782264 -36
      vertex -1.97577 0.782264 -3
    endloop
  endfacet
  facet normal 0.95105 -0.309036 0
    outer loop
      vertex -1.97577 0.782264 -36
      vertex -2.05824 0.528465 -3
      vertex -2.05824 0.528465 -36
    endloop
  endfacet
  facet normal -0.844321 -0.535837 0
    outer loop
      vertex 1.86215 1.02373 -36
      vertex 1.71916 1.24904 -3
      vertex 1.71916 1.24904 -36
    endloop
  endfacet
  facet normal -0.844321 -0.535837 0
    outer loop
      vertex 1.71916 1.24904 -3
      vertex 1.86215 1.02373 -36
      vertex 1.86215 1.02373 -3
    endloop
  endfacet
  facet normal -0.368101 -0.929786 0
    outer loop
      vertex 0.656661 2.02099 -36
      vertex 0.90478 1.92276 -3
      vertex 0.656661 2.02099 -3
    endloop
  endfacet
  facet normal -0.368101 -0.929786 -0
    outer loop
      vertex 0.90478 1.92276 -3
      vertex 0.656661 2.02099 -36
      vertex 0.90478 1.92276 -36
    endloop
  endfacet
  facet normal 0.368101 -0.929786 0
    outer loop
      vertex -0.90478 1.92276 -36
      vertex -0.656661 2.02099 -3
      vertex -0.90478 1.92276 -3
    endloop
  endfacet
  facet normal 0.368101 -0.929786 0
    outer loop
      vertex -0.656661 2.02099 -3
      vertex -0.90478 1.92276 -36
      vertex -0.656661 2.02099 -36
    endloop
  endfacet
  facet normal 0.904835 -0.425763 0
    outer loop
      vertex -1.97577 0.782264 -3
      vertex -1.86215 1.02373 -36
      vertex -1.86215 1.02373 -3
    endloop
  endfacet
  facet normal 0.904835 -0.425763 0
    outer loop
      vertex -1.86215 1.02373 -36
      vertex -1.97577 0.782264 -3
      vertex -1.97577 0.782264 -36
    endloop
  endfacet
  facet normal -0.998026 0.0628045 0
    outer loop
      vertex 2.10824 -0.266333 -36
      vertex 2.125 0 -3
      vertex 2.125 0 -36
    endloop
  endfacet
  facet normal -0.998026 0.0628045 0
    outer loop
      vertex 2.125 0 -3
      vertex 2.10824 -0.266333 -36
      vertex 2.10824 -0.266333 -3
    endloop
  endfacet
  facet normal -0.368101 0.929786 0
    outer loop
      vertex 0.90478 -1.92276 -36
      vertex 0.656661 -2.02099 -3
      vertex 0.90478 -1.92276 -3
    endloop
  endfacet
  facet normal -0.368101 0.929786 0
    outer loop
      vertex 0.656661 -2.02099 -3
      vertex 0.90478 -1.92276 -36
      vertex 0.656661 -2.02099 -36
    endloop
  endfacet
  facet normal -0.125347 -0.992113 0
    outer loop
      vertex 0.13343 2.12081 -36
      vertex 0.398185 2.08736 -3
      vertex 0.13343 2.12081 -3
    endloop
  endfacet
  facet normal -0.125347 -0.992113 -0
    outer loop
      vertex 0.398185 2.08736 -3
      vertex 0.13343 2.12081 -36
      vertex 0.398185 2.08736 -36
    endloop
  endfacet
  facet normal 0.77052 -0.637416 0
    outer loop
      vertex -1.71916 1.24904 -3
      vertex -1.54906 1.45466 -36
      vertex -1.54906 1.45466 -3
    endloop
  endfacet
  facet normal 0.77052 -0.637416 0
    outer loop
      vertex -1.54906 1.45466 -36
      vertex -1.71916 1.24904 -3
      vertex -1.71916 1.24904 -36
    endloop
  endfacet
  facet normal 0.125347 -0.992113 0
    outer loop
      vertex -0.398185 2.08736 -36
      vertex -0.13343 2.12081 -3
      vertex -0.398185 2.08736 -3
    endloop
  endfacet
  facet normal 0.125347 -0.992113 0
    outer loop
      vertex -0.13343 2.12081 -3
      vertex -0.398185 2.08736 -36
      vertex -0.13343 2.12081 -36
    endloop
  endfacet
  facet normal 0.684555 -0.728961 0
    outer loop
      vertex -1.54906 1.45466 -36
      vertex -1.35453 1.63734 -3
      vertex -1.54906 1.45466 -3
    endloop
  endfacet
  facet normal 0.684555 -0.728961 0
    outer loop
      vertex -1.35453 1.63734 -3
      vertex -1.54906 1.45466 -36
      vertex -1.35453 1.63734 -36
    endloop
  endfacet
  facet normal -0.998026 -0.0628045 0
    outer loop
      vertex 2.125 0 -36
      vertex 2.10824 0.266333 -3
      vertex 2.10824 0.266333 -36
    endloop
  endfacet
  facet normal -0.998026 -0.0628045 0
    outer loop
      vertex 2.10824 0.266333 -3
      vertex 2.125 0 -36
      vertex 2.125 0 -3
    endloop
  endfacet
  facet normal -0.95105 0.309036 0
    outer loop
      vertex 1.97577 -0.782264 -36
      vertex 2.05824 -0.528465 -3
      vertex 2.05824 -0.528465 -36
    endloop
  endfacet
  facet normal -0.95105 0.309036 0
    outer loop
      vertex 2.05824 -0.528465 -3
      vertex 1.97577 -0.782264 -36
      vertex 1.97577 -0.782264 -3
    endloop
  endfacet
  facet normal -0.248706 0.968579 0
    outer loop
      vertex 0.656661 -2.02099 -36
      vertex 0.398185 -2.08736 -3
      vertex 0.656661 -2.02099 -3
    endloop
  endfacet
  facet normal -0.248706 0.968579 0
    outer loop
      vertex 0.398185 -2.08736 -3
      vertex 0.656661 -2.02099 -36
      vertex 0.398185 -2.08736 -36
    endloop
  endfacet
  facet normal -0.684555 -0.728961 0
    outer loop
      vertex 1.35453 1.63734 -36
      vertex 1.54906 1.45466 -3
      vertex 1.35453 1.63734 -3
    endloop
  endfacet
  facet normal -0.684555 -0.728961 -0
    outer loop
      vertex 1.54906 1.45466 -3
      vertex 1.35453 1.63734 -36
      vertex 1.54906 1.45466 -36
    endloop
  endfacet
  facet normal -0.77052 -0.637416 0
    outer loop
      vertex 1.71916 1.24904 -36
      vertex 1.54906 1.45466 -3
      vertex 1.54906 1.45466 -36
    endloop
  endfacet
  facet normal -0.77052 -0.637416 0
    outer loop
      vertex 1.54906 1.45466 -3
      vertex 1.71916 1.24904 -36
      vertex 1.71916 1.24904 -3
    endloop
  endfacet
  facet normal 0 -1 0
    outer loop
      vertex -0.13343 2.12081 -36
      vertex 0.13343 2.12081 -3
      vertex -0.13343 2.12081 -3
    endloop
  endfacet
  facet normal 0 -1 -0
    outer loop
      vertex 0.13343 2.12081 -3
      vertex -0.13343 2.12081 -36
      vertex 0.13343 2.12081 -36
    endloop
  endfacet
  facet normal -0.248706 -0.968579 0
    outer loop
      vertex 0.398185 2.08736 -36
      vertex 0.656661 2.02099 -3
      vertex 0.398185 2.08736 -3
    endloop
  endfacet
  facet normal -0.248706 -0.968579 -0
    outer loop
      vertex 0.656661 2.02099 -3
      vertex 0.398185 2.08736 -36
      vertex 0.656661 2.02099 -36
    endloop
  endfacet
  facet normal -0.587784 -0.809018 0
    outer loop
      vertex 1.13863 1.7942 -36
      vertex 1.35453 1.63734 -3
      vertex 1.13863 1.7942 -3
    endloop
  endfacet
  facet normal -0.587784 -0.809018 -0
    outer loop
      vertex 1.35453 1.63734 -3
      vertex 1.13863 1.7942 -36
      vertex 1.35453 1.63734 -36
    endloop
  endfacet
  facet normal -0.481753 -0.876307 0
    outer loop
      vertex 0.90478 1.92276 -36
      vertex 1.13863 1.7942 -3
      vertex 0.90478 1.92276 -3
    endloop
  endfacet
  facet normal -0.481753 -0.876307 -0
    outer loop
      vertex 1.13863 1.7942 -3
      vertex 0.90478 1.92276 -36
      vertex 1.13863 1.7942 -36
    endloop
  endfacet
  facet normal 0.998026 -0.0628045 0
    outer loop
      vertex -2.125 0 -3
      vertex -2.10824 0.266333 -36
      vertex -2.10824 0.266333 -3
    endloop
  endfacet
  facet normal 0.998026 -0.0628045 0
    outer loop
      vertex -2.10824 0.266333 -36
      vertex -2.125 0 -3
      vertex -2.125 0 -36
    endloop
  endfacet
  facet normal 0.844321 -0.535837 0
    outer loop
      vertex -1.86215 1.02373 -3
      vertex -1.71916 1.24904 -36
      vertex -1.71916 1.24904 -3
    endloop
  endfacet
  facet normal 0.844321 -0.535837 0
    outer loop
      vertex -1.71916 1.24904 -36
      vertex -1.86215 1.02373 -3
      vertex -1.86215 1.02373 -36
    endloop
  endfacet
  facet normal 0.248706 -0.968579 0
    outer loop
      vertex -0.656661 2.02099 -36
      vertex -0.398185 2.08736 -3
      vertex -0.656661 2.02099 -3
    endloop
  endfacet
  facet normal 0.248706 -0.968579 0
    outer loop
      vertex -0.398185 2.08736 -3
      vertex -0.656661 2.02099 -36
      vertex -0.398185 2.08736 -36
    endloop
  endfacet
  facet normal 0.481753 -0.876307 0
    outer loop
      vertex -1.13863 1.7942 -36
      vertex -0.90478 1.92276 -3
      vertex -1.13863 1.7942 -3
    endloop
  endfacet
  facet normal 0.481753 -0.876307 0
    outer loop
      vertex -0.90478 1.92276 -3
      vertex -1.13863 1.7942 -36
      vertex -0.90478 1.92276 -36
    endloop
  endfacet
  facet normal 0.587784 -0.809018 0
    outer loop
      vertex -1.35453 1.63734 -36
      vertex -1.13863 1.7942 -3
      vertex -1.35453 1.63734 -3
    endloop
  endfacet
  facet normal 0.587784 -0.809018 0
    outer loop
      vertex -1.13863 1.7942 -3
      vertex -1.35453 1.63734 -36
      vertex -1.13863 1.7942 -36
    endloop
  endfacet
  facet normal -0.98229 0.187366 0
    outer loop
      vertex 2.05824 -0.528465 -36
      vertex 2.10824 -0.266333 -3
      vertex 2.10824 -0.266333 -36
    endloop
  endfacet
  facet normal -0.98229 0.187366 0
    outer loop
      vertex 2.10824 -0.266333 -3
      vertex 2.05824 -0.528465 -36
      vertex 2.05824 -0.528465 -3
    endloop
  endfacet
  facet normal -0.125347 0.992113 0
    outer loop
      vertex 0.398185 -2.08736 -36
      vertex 0.13343 -2.12081 -3
      vertex 0.398185 -2.08736 -3
    endloop
  endfacet
  facet normal -0.125347 0.992113 0
    outer loop
      vertex 0.13343 -2.12081 -3
      vertex 0.398185 -2.08736 -36
      vertex 0.13343 -2.12081 -36
    endloop
  endfacet
  facet normal -0.904835 -0.425763 0
    outer loop
      vertex 1.97577 0.782264 -36
      vertex 1.86215 1.02373 -3
      vertex 1.86215 1.02373 -36
    endloop
  endfacet
  facet normal -0.904835 -0.425763 0
    outer loop
      vertex 1.86215 1.02373 -3
      vertex 1.97577 0.782264 -36
      vertex 1.97577 0.782264 -3
    endloop
  endfacet
  facet normal -0.95105 -0.309036 0
    outer loop
      vertex 2.05824 0.528465 -36
      vertex 1.97577 0.782264 -3
      vertex 1.97577 0.782264 -36
    endloop
  endfacet
  facet normal -0.95105 -0.309036 0
    outer loop
      vertex 1.97577 0.782264 -3
      vertex 2.05824 0.528465 -36
      vertex 2.05824 0.528465 -3
    endloop
  endfacet
  facet normal -0.98229 -0.187366 0
    outer loop
      vertex 2.10824 0.266333 -36
      vertex 2.05824 0.528465 -3
      vertex 2.05824 0.528465 -36
    endloop
  endfacet
  facet normal -0.98229 -0.187366 0
    outer loop
      vertex 2.05824 0.528465 -3
      vertex 2.10824 0.266333 -36
      vertex 2.10824 0.266333 -3
    endloop
  endfacet
  facet normal 0.98229 -0.187366 0
    outer loop
      vertex -2.10824 0.266333 -3
      vertex -2.05824 0.528465 -36
      vertex -2.05824 0.528465 -3
    endloop
  endfacet
  facet normal 0.98229 -0.187366 0
    outer loop
      vertex -2.05824 0.528465 -36
      vertex -2.10824 0.266333 -3
      vertex -2.10824 0.266333 -36
    endloop
  endfacet
  facet normal -0.684555 0.728961 0
    outer loop
      vertex 1.54906 -1.45466 -36
      vertex 1.35453 -1.63734 -3
      vertex 1.54906 -1.45466 -3
    endloop
  endfacet
  facet normal -0.684555 0.728961 0
    outer loop
      vertex 1.35453 -1.63734 -3
      vertex 1.54906 -1.45466 -36
      vertex 1.35453 -1.63734 -36
    endloop
  endfacet
  facet normal -0.844321 0.535837 0
    outer loop
      vertex 1.71916 -1.24904 -36
      vertex 1.86215 -1.02373 -3
      vertex 1.86215 -1.02373 -36
    endloop
  endfacet
  facet normal -0.844321 0.535837 0
    outer loop
      vertex 1.86215 -1.02373 -3
      vertex 1.71916 -1.24904 -36
      vertex 1.71916 -1.24904 -3
    endloop
  endfacet
  facet normal 0.368101 0.929786 -0
    outer loop
      vertex -0.656661 -2.02099 -36
      vertex -0.90478 -1.92276 -3
      vertex -0.656661 -2.02099 -3
    endloop
  endfacet
  facet normal 0.368101 0.929786 0
    outer loop
      vertex -0.90478 -1.92276 -3
      vertex -0.656661 -2.02099 -36
      vertex -0.90478 -1.92276 -36
    endloop
  endfacet
  facet normal 0.998026 0.0628045 0
    outer loop
      vertex -2.10824 -0.266333 -3
      vertex -2.125 0 -36
      vertex -2.125 0 -3
    endloop
  endfacet
  facet normal 0.998026 0.0628045 0
    outer loop
      vertex -2.125 0 -36
      vertex -2.10824 -0.266333 -3
      vertex -2.10824 -0.266333 -36
    endloop
  endfacet
  facet normal 0.904835 0.425763 0
    outer loop
      vertex -1.86215 -1.02373 -3
      vertex -1.97577 -0.782264 -36
      vertex -1.97577 -0.782264 -3
    endloop
  endfacet
  facet normal 0.904835 0.425763 0
    outer loop
      vertex -1.97577 -0.782264 -36
      vertex -1.86215 -1.02373 -3
      vertex -1.86215 -1.02373 -36
    endloop
  endfacet
  facet normal 0.95105 0.309036 0
    outer loop
      vertex -1.97577 -0.782264 -3
      vertex -2.05824 -0.528465 -36
      vertex -2.05824 -0.528465 -3
    endloop
  endfacet
  facet normal 0.95105 0.309036 0
    outer loop
      vertex -2.05824 -0.528465 -36
      vertex -1.97577 -0.782264 -3
      vertex -1.97577 -0.782264 -36
    endloop
  endfacet
  facet normal -0.481753 0.876307 0
    outer loop
      vertex 1.13863 -1.7942 -36
      vertex 0.90478 -1.92276 -3
      vertex 1.13863 -1.7942 -3
    endloop
  endfacet
  facet normal -0.481753 0.876307 0
    outer loop
      vertex 0.90478 -1.92276 -3
      vertex 1.13863 -1.7942 -36
      vertex 0.90478 -1.92276 -36
    endloop
  endfacet
  facet normal -0.904835 0.425763 0
    outer loop
      vertex 1.86215 -1.02373 -36
      vertex 1.97577 -0.782264 -3
      vertex 1.97577 -0.782264 -36
    endloop
  endfacet
  facet normal -0.904835 0.425763 0
    outer loop
      vertex 1.97577 -0.782264 -3
      vertex 1.86215 -1.02373 -36
      vertex 1.86215 -1.02373 -3
    endloop
  endfacet
  facet normal 0.587784 0.809018 -0
    outer loop
      vertex -1.13863 -1.7942 -36
      vertex -1.35453 -1.63734 -3
      vertex -1.13863 -1.7942 -3
    endloop
  endfacet
  facet normal 0.587784 0.809018 0
    outer loop
      vertex -1.35453 -1.63734 -3
      vertex -1.13863 -1.7942 -36
      vertex -1.35453 -1.63734 -36
    endloop
  endfacet
  facet normal 0 1 -0
    outer loop
      vertex 0.13343 -2.12081 -36
      vertex -0.13343 -2.12081 -3
      vertex 0.13343 -2.12081 -3
    endloop
  endfacet
  facet normal 0 1 0
    outer loop
      vertex -0.13343 -2.12081 -3
      vertex 0.13343 -2.12081 -36
      vertex -0.13343 -2.12081 -36
    endloop
  endfacet
  facet normal 0.125347 0.992113 -0
    outer loop
      vertex -0.13343 -2.12081 -36
      vertex -0.398185 -2.08736 -3
      vertex -0.13343 -2.12081 -3
    endloop
  endfacet
  facet normal 0.125347 0.992113 0
    outer loop
      vertex -0.398185 -2.08736 -3
      vertex -0.13343 -2.12081 -36
      vertex -0.398185 -2.08736 -36
    endloop
  endfacet
  facet normal 0.248706 0.968579 -0
    outer loop
      vertex -0.398185 -2.08736 -36
      vertex -0.656661 -2.02099 -3
      vertex -0.398185 -2.08736 -3
    endloop
  endfacet
  facet normal 0.248706 0.968579 0
    outer loop
      vertex -0.656661 -2.02099 -3
      vertex -0.398185 -2.08736 -36
      vertex -0.656661 -2.02099 -36
    endloop
  endfacet
  facet normal 0.98229 0.187366 0
    outer loop
      vertex -2.05824 -0.528465 -3
      vertex -2.10824 -0.266333 -36
      vertex -2.10824 -0.266333 -3
    endloop
  endfacet
  facet normal 0.98229 0.187366 0
    outer loop
      vertex -2.10824 -0.266333 -36
      vertex -2.05824 -0.528465 -3
      vertex -2.05824 -0.528465 -36
    endloop
  endfacet
  facet normal 0.684555 0.728961 -0
    outer loop
      vertex -1.35453 -1.63734 -36
      vertex -1.54906 -1.45466 -3
      vertex -1.35453 -1.63734 -3
    endloop
  endfacet
  facet normal 0.684555 0.728961 0
    outer loop
      vertex -1.54906 -1.45466 -3
      vertex -1.35453 -1.63734 -36
      vertex -1.54906 -1.45466 -36
    endloop
  endfacet
  facet normal 0.77052 0.637416 0
    outer loop
      vertex -1.54906 -1.45466 -3
      vertex -1.71916 -1.24904 -36
      vertex -1.71916 -1.24904 -3
    endloop
  endfacet
  facet normal 0.77052 0.637416 0
    outer loop
      vertex -1.71916 -1.24904 -36
      vertex -1.54906 -1.45466 -3
      vertex -1.54906 -1.45466 -36
    endloop
  endfacet
  facet normal -0.587784 0.809018 0
    outer loop
      vertex 1.35453 -1.63734 -36
      vertex 1.13863 -1.7942 -3
      vertex 1.35453 -1.63734 -3
    endloop
  endfacet
  facet normal -0.587784 0.809018 0
    outer loop
      vertex 1.13863 -1.7942 -3
      vertex 1.35453 -1.63734 -36
      vertex 1.13863 -1.7942 -36
    endloop
  endfacet
  facet normal -0.77052 0.637416 0
    outer loop
      vertex 1.54906 -1.45466 -36
      vertex 1.71916 -1.24904 -3
      vertex 1.71916 -1.24904 -36
    endloop
  endfacet
  facet normal -0.77052 0.637416 0
    outer loop
      vertex 1.71916 -1.24904 -3
      vertex 1.54906 -1.45466 -36
      vertex 1.54906 -1.45466 -3
    endloop
  endfacet
  facet normal 0.844321 0.535837 0
    outer loop
      vertex -1.71916 -1.24904 -3
      vertex -1.86215 -1.02373 -36
      vertex -1.86215 -1.02373 -3
    endloop
  endfacet
  facet normal 0.844321 0.535837 0
    outer loop
      vertex -1.86215 -1.02373 -36
      vertex -1.71916 -1.24904 -3
      vertex -1.71916 -1.24904 -36
    endloop
  endfacet
  facet normal 0.481753 0.876307 -0
    outer loop
      vertex -0.90478 -1.92276 -36
      vertex -1.13863 -1.7942 -3
      vertex -0.90478 -1.92276 -3
    endloop
  endfacet
  facet normal 0.481753 0.876307 0
    outer loop
      vertex -1.13863 -1.7942 -3
      vertex -0.90478 -1.92276 -36
      vertex -1.13863 -1.7942 -36
    endloop
  endfacet
  facet normal 0.998027 0.0627883 0
    outer loop
      vertex 10 0 0
      vertex 9.92115 1.25333 -36
      vertex 9.92115 1.25333 0
    endloop
  endfacet
  facet normal 0.998027 0.0627883 0
    outer loop
      vertex 9.92115 1.25333 -36
      vertex 10 0 0
      vertex 10 0 -36
    endloop
  endfacet
  facet normal -0.998027 0.0627883 0
    outer loop
      vertex -10 0 -36
      vertex -9.92115 1.25333 0
      vertex -9.92115 1.25333 -36
    endloop
  endfacet
  facet normal -0.998027 0.0627883 0
    outer loop
      vertex -9.92115 1.25333 0
      vertex -10 0 -36
      vertex -10 0 0
    endloop
  endfacet
  facet normal 0 1 -0
    outer loop
      vertex 0.627905 9.98027 -36
      vertex -0.627905 9.98027 0
      vertex 0.627905 9.98027 0
    endloop
  endfacet
  facet normal 0 1 0
    outer loop
      vertex -0.627905 9.98027 0
      vertex 0.627905 9.98027 -36
      vertex -0.627905 9.98027 -36
    endloop
  endfacet
  facet normal 0 -1 0
    outer loop
      vertex -0.627905 -9.98027 -36
      vertex 0.627905 -9.98027 0
      vertex -0.627905 -9.98027 0
    endloop
  endfacet
  facet normal 0 -1 -0
    outer loop
      vertex 0.627905 -9.98027 0
      vertex -0.627905 -9.98027 -36
      vertex 0.627905 -9.98027 -36
    endloop
  endfacet
  facet normal 0.684545 0.728971 -0
    outer loop
      vertex 7.28969 6.84547 -36
      vertex 6.37424 7.70513 0
      vertex 7.28969 6.84547 0
    endloop
  endfacet
  facet normal 0.684545 0.728971 0
    outer loop
      vertex 6.37424 7.70513 0
      vertex 7.28969 6.84547 -36
      vertex 6.37424 7.70513 -36
    endloop
  endfacet
  facet normal -0.684545 0.728971 0
    outer loop
      vertex -6.37424 7.70513 -36
      vertex -7.28969 6.84547 0
      vertex -6.37424 7.70513 0
    endloop
  endfacet
  facet normal -0.684545 0.728971 0
    outer loop
      vertex -7.28969 6.84547 0
      vertex -6.37424 7.70513 -36
      vertex -7.28969 6.84547 -36
    endloop
  endfacet
  facet normal -0.368122 0.929777 0
    outer loop
      vertex -3.09017 9.51056 -36
      vertex -4.25779 9.04827 0
      vertex -3.09017 9.51056 0
    endloop
  endfacet
  facet normal -0.368122 0.929777 0
    outer loop
      vertex -4.25779 9.04827 0
      vertex -3.09017 9.51056 -36
      vertex -4.25779 9.04827 -36
    endloop
  endfacet
  facet normal 0.904831 -0.425771 0
    outer loop
      vertex 8.76307 -4.81754 0
      vertex 9.29776 -3.68124 -36
      vertex 9.29776 -3.68124 0
    endloop
  endfacet
  facet normal 0.904831 -0.425771 0
    outer loop
      vertex 9.29776 -3.68124 -36
      vertex 8.76307 -4.81754 0
      vertex 8.76307 -4.81754 -36
    endloop
  endfacet
  facet normal 0.904831 0.425771 0
    outer loop
      vertex 9.29776 3.68124 0
      vertex 8.76307 4.81754 -36
      vertex 8.76307 4.81754 0
    endloop
  endfacet
  facet normal 0.904831 0.425771 0
    outer loop
      vertex 8.76307 4.81754 -36
      vertex 9.29776 3.68124 0
      vertex 9.29776 3.68124 -36
    endloop
  endfacet
  facet normal 0.844325 0.535831 0
    outer loop
      vertex 8.76307 4.81754 0
      vertex 8.09017 5.87785 -36
      vertex 8.09017 5.87785 0
    endloop
  endfacet
  facet normal 0.844325 0.535831 0
    outer loop
      vertex 8.09017 5.87785 -36
      vertex 8.76307 4.81754 0
      vertex 8.76307 4.81754 -36
    endloop
  endfacet
  facet normal 0.368122 0.929777 -0
    outer loop
      vertex 4.25779 9.04827 -36
      vertex 3.09017 9.51056 0
      vertex 4.25779 9.04827 0
    endloop
  endfacet
  facet normal 0.368122 0.929777 0
    outer loop
      vertex 3.09017 9.51056 0
      vertex 4.25779 9.04827 -36
      vertex 3.09017 9.51056 -36
    endloop
  endfacet
  facet normal 0.248691 0.968583 -0
    outer loop
      vertex 3.09017 9.51056 -36
      vertex 1.87381 9.82287 0
      vertex 3.09017 9.51056 0
    endloop
  endfacet
  facet normal 0.248691 0.968583 0
    outer loop
      vertex 1.87381 9.82287 0
      vertex 3.09017 9.51056 -36
      vertex 1.87381 9.82287 -36
    endloop
  endfacet
  facet normal 0.481751 0.876308 -0
    outer loop
      vertex 5.35827 8.44328 -36
      vertex 4.25779 9.04827 0
      vertex 5.35827 8.44328 0
    endloop
  endfacet
  facet normal 0.481751 0.876308 0
    outer loop
      vertex 4.25779 9.04827 0
      vertex 5.35827 8.44328 -36
      vertex 4.25779 9.04827 -36
    endloop
  endfacet
  facet normal -0.904831 0.425771 0
    outer loop
      vertex -9.29776 3.68124 -36
      vertex -8.76307 4.81754 0
      vertex -8.76307 4.81754 -36
    endloop
  endfacet
  facet normal -0.904831 0.425771 0
    outer loop
      vertex -8.76307 4.81754 0
      vertex -9.29776 3.68124 -36
      vertex -9.29776 3.68124 0
    endloop
  endfacet
  facet normal -0.770515 0.637422 0
    outer loop
      vertex -8.09017 5.87785 -36
      vertex -7.28969 6.84547 0
      vertex -7.28969 6.84547 -36
    endloop
  endfacet
  facet normal -0.770515 0.637422 0
    outer loop
      vertex -7.28969 6.84547 0
      vertex -8.09017 5.87785 -36
      vertex -8.09017 5.87785 0
    endloop
  endfacet
  facet normal -0.951055 0.309021 0
    outer loop
      vertex -9.68583 2.4869 -36
      vertex -9.29776 3.68124 0
      vertex -9.29776 3.68124 -36
    endloop
  endfacet
  facet normal -0.951055 0.309021 0
    outer loop
      vertex -9.29776 3.68124 0
      vertex -9.68583 2.4869 -36
      vertex -9.68583 2.4869 0
    endloop
  endfacet
  facet normal -0.481751 0.876308 0
    outer loop
      vertex -4.25779 9.04827 -36
      vertex -5.35827 8.44328 0
      vertex -4.25779 9.04827 0
    endloop
  endfacet
  facet normal -0.481751 0.876308 0
    outer loop
      vertex -5.35827 8.44328 0
      vertex -4.25779 9.04827 -36
      vertex -5.35827 8.44328 -36
    endloop
  endfacet
  facet normal -0.125338 0.992114 0
    outer loop
      vertex -0.627905 9.98027 -36
      vertex -1.87381 9.82287 0
      vertex -0.627905 9.98027 0
    endloop
  endfacet
  facet normal -0.125338 0.992114 0
    outer loop
      vertex -1.87381 9.82287 0
      vertex -0.627905 9.98027 -36
      vertex -1.87381 9.82287 -36
    endloop
  endfacet
  facet normal 0.125338 -0.992114 0
    outer loop
      vertex 0.627905 -9.98027 -36
      vertex 1.87381 -9.82287 0
      vertex 0.627905 -9.98027 0
    endloop
  endfacet
  facet normal 0.125338 -0.992114 0
    outer loop
      vertex 1.87381 -9.82287 0
      vertex 0.627905 -9.98027 -36
      vertex 1.87381 -9.82287 -36
    endloop
  endfacet
  facet normal 0.368122 -0.929777 0
    outer loop
      vertex 3.09017 -9.51056 -36
      vertex 4.25779 -9.04827 0
      vertex 3.09017 -9.51056 0
    endloop
  endfacet
  facet normal 0.368122 -0.929777 0
    outer loop
      vertex 4.25779 -9.04827 0
      vertex 3.09017 -9.51056 -36
      vertex 4.25779 -9.04827 -36
    endloop
  endfacet
  facet normal 0.951055 0.309021 0
    outer loop
      vertex 9.68583 2.4869 0
      vertex 9.29776 3.68124 -36
      vertex 9.29776 3.68124 0
    endloop
  endfacet
  facet normal 0.951055 0.309021 0
    outer loop
      vertex 9.29776 3.68124 -36
      vertex 9.68583 2.4869 0
      vertex 9.68583 2.4869 -36
    endloop
  endfacet
  facet normal 0.982287 0.187384 0
    outer loop
      vertex 9.92115 1.25333 0
      vertex 9.68583 2.4869 -36
      vertex 9.68583 2.4869 0
    endloop
  endfacet
  facet normal 0.982287 0.187384 0
    outer loop
      vertex 9.68583 2.4869 -36
      vertex 9.92115 1.25333 0
      vertex 9.92115 1.25333 -36
    endloop
  endfacet
  facet normal 0.770515 0.637422 0
    outer loop
      vertex 8.09017 5.87785 0
      vertex 7.28969 6.84547 -36
      vertex 7.28969 6.84547 0
    endloop
  endfacet
  facet normal 0.770515 0.637422 0
    outer loop
      vertex 7.28969 6.84547 -36
      vertex 8.09017 5.87785 0
      vertex 8.09017 5.87785 -36
    endloop
  endfacet
  facet normal 0.125338 0.992114 -0
    outer loop
      vertex 1.87381 9.82287 -36
      vertex 0.627905 9.98027 0
      vertex 1.87381 9.82287 0
    endloop
  endfacet
  facet normal 0.125338 0.992114 0
    outer loop
      vertex 0.627905 9.98027 0
      vertex 1.87381 9.82287 -36
      vertex 0.627905 9.98027 -36
    endloop
  endfacet
  facet normal 0.587788 0.809015 -0
    outer loop
      vertex 6.37424 7.70513 -36
      vertex 5.35827 8.44328 0
      vertex 6.37424 7.70513 0
    endloop
  endfacet
  facet normal 0.587788 0.809015 0
    outer loop
      vertex 5.35827 8.44328 0
      vertex 6.37424 7.70513 -36
      vertex 5.35827 8.44328 -36
    endloop
  endfacet
  facet normal -0.844325 0.535831 0
    outer loop
      vertex -8.76307 4.81754 -36
      vertex -8.09017 5.87785 0
      vertex -8.09017 5.87785 -36
    endloop
  endfacet
  facet normal -0.844325 0.535831 0
    outer loop
      vertex -8.09017 5.87785 0
      vertex -8.76307 4.81754 -36
      vertex -8.76307 4.81754 0
    endloop
  endfacet
  facet normal -0.982287 0.187384 0
    outer loop
      vertex -9.92115 1.25333 -36
      vertex -9.68583 2.4869 0
      vertex -9.68583 2.4869 -36
    endloop
  endfacet
  facet normal -0.982287 0.187384 0
    outer loop
      vertex -9.68583 2.4869 0
      vertex -9.92115 1.25333 -36
      vertex -9.92115 1.25333 0
    endloop
  endfacet
  facet normal -0.587788 0.809015 0
    outer loop
      vertex -5.35827 8.44328 -36
      vertex -6.37424 7.70513 0
      vertex -5.35827 8.44328 0
    endloop
  endfacet
  facet normal -0.587788 0.809015 0
    outer loop
      vertex -6.37424 7.70513 0
      vertex -5.35827 8.44328 -36
      vertex -6.37424 7.70513 -36
    endloop
  endfacet
  facet normal -0.248691 0.968583 0
    outer loop
      vertex -1.87381 9.82287 -36
      vertex -3.09017 9.51056 0
      vertex -1.87381 9.82287 0
    endloop
  endfacet
  facet normal -0.248691 0.968583 0
    outer loop
      vertex -3.09017 9.51056 0
      vertex -1.87381 9.82287 -36
      vertex -3.09017 9.51056 -36
    endloop
  endfacet
  facet normal 0.998027 -0.0627883 0
    outer loop
      vertex 9.92115 -1.25333 0
      vertex 10 0 -36
      vertex 10 0 0
    endloop
  endfacet
  facet normal 0.998027 -0.0627883 0
    outer loop
      vertex 10 0 -36
      vertex 9.92115 -1.25333 0
      vertex 9.92115 -1.25333 -36
    endloop
  endfacet
  facet normal 0.770515 -0.637422 0
    outer loop
      vertex 7.28969 -6.84547 0
      vertex 8.09017 -5.87785 -36
      vertex 8.09017 -5.87785 0
    endloop
  endfacet
  facet normal 0.770515 -0.637422 0
    outer loop
      vertex 8.09017 -5.87785 -36
      vertex 7.28969 -6.84547 0
      vertex 7.28969 -6.84547 -36
    endloop
  endfacet
  facet normal 0.951055 -0.309021 0
    outer loop
      vertex 9.29776 -3.68124 0
      vertex 9.68583 -2.4869 -36
      vertex 9.68583 -2.4869 0
    endloop
  endfacet
  facet normal 0.951055 -0.309021 0
    outer loop
      vertex 9.68583 -2.4869 -36
      vertex 9.29776 -3.68124 0
      vertex 9.29776 -3.68124 -36
    endloop
  endfacet
  facet normal 0.982287 -0.187384 0
    outer loop
      vertex 9.68583 -2.4869 0
      vertex 9.92115 -1.25333 -36
      vertex 9.92115 -1.25333 0
    endloop
  endfacet
  facet normal 0.982287 -0.187384 0
    outer loop
      vertex 9.92115 -1.25333 -36
      vertex 9.68583 -2.4869 0
      vertex 9.68583 -2.4869 -36
    endloop
  endfacet
  facet normal -0.770515 -0.637422 0
    outer loop
      vertex -7.28969 -6.84547 -36
      vertex -8.09017 -5.87785 0
      vertex -8.09017 -5.87785 -36
    endloop
  endfacet
  facet normal -0.770515 -0.637422 0
    outer loop
      vertex -8.09017 -5.87785 0
      vertex -7.28969 -6.84547 -36
      vertex -7.28969 -6.84547 0
    endloop
  endfacet
  facet normal 0.844325 -0.535831 0
    outer loop
      vertex 8.09017 -5.87785 0
      vertex 8.76307 -4.81754 -36
      vertex 8.76307 -4.81754 0
    endloop
  endfacet
  facet normal 0.844325 -0.535831 0
    outer loop
      vertex 8.76307 -4.81754 -36
      vertex 8.09017 -5.87785 0
      vertex 8.09017 -5.87785 -36
    endloop
  endfacet
  facet normal -0.951055 -0.309021 0
    outer loop
      vertex -9.29776 -3.68124 -36
      vertex -9.68583 -2.4869 0
      vertex -9.68583 -2.4869 -36
    endloop
  endfacet
  facet normal -0.951055 -0.309021 0
    outer loop
      vertex -9.68583 -2.4869 0
      vertex -9.29776 -3.68124 -36
      vertex -9.29776 -3.68124 0
    endloop
  endfacet
  facet normal 0.248691 -0.968583 0
    outer loop
      vertex 1.87381 -9.82287 -36
      vertex 3.09017 -9.51056 0
      vertex 1.87381 -9.82287 0
    endloop
  endfacet
  facet normal 0.248691 -0.968583 0
    outer loop
      vertex 3.09017 -9.51056 0
      vertex 1.87381 -9.82287 -36
      vertex 3.09017 -9.51056 -36
    endloop
  endfacet
  facet normal 0.684545 -0.728971 0
    outer loop
      vertex 6.37424 -7.70513 -36
      vertex 7.28969 -6.84547 0
      vertex 6.37424 -7.70513 0
    endloop
  endfacet
  facet normal 0.684545 -0.728971 0
    outer loop
      vertex 7.28969 -6.84547 0
      vertex 6.37424 -7.70513 -36
      vertex 7.28969 -6.84547 -36
    endloop
  endfacet
  facet normal 0.587788 -0.809015 0
    outer loop
      vertex 5.35827 -8.44328 -36
      vertex 6.37424 -7.70513 0
      vertex 5.35827 -8.44328 0
    endloop
  endfacet
  facet normal 0.587788 -0.809015 0
    outer loop
      vertex 6.37424 -7.70513 0
      vertex 5.35827 -8.44328 -36
      vertex 6.37424 -7.70513 -36
    endloop
  endfacet
  facet normal 0.481751 -0.876308 0
    outer loop
      vertex 4.25779 -9.04827 -36
      vertex 5.35827 -8.44328 0
      vertex 4.25779 -9.04827 0
    endloop
  endfacet
  facet normal 0.481751 -0.876308 0
    outer loop
      vertex 5.35827 -8.44328 0
      vertex 4.25779 -9.04827 -36
      vertex 5.35827 -8.44328 -36
    endloop
  endfacet
  facet normal -0.125338 -0.992114 0
    outer loop
      vertex -1.87381 -9.82287 -36
      vertex -0.627905 -9.98027 0
      vertex -1.87381 -9.82287 0
    endloop
  endfacet
  facet normal -0.125338 -0.992114 -0
    outer loop
      vertex -0.627905 -9.98027 0
      vertex -1.87381 -9.82287 -36
      vertex -0.627905 -9.98027 -36
    endloop
  endfacet
  facet normal -0.248691 -0.968583 0
    outer loop
      vertex -3.09017 -9.51056 -36
      vertex -1.87381 -9.82287 0
      vertex -3.09017 -9.51056 0
    endloop
  endfacet
  facet normal -0.248691 -0.968583 -0
    outer loop
      vertex -1.87381 -9.82287 0
      vertex -3.09017 -9.51056 -36
      vertex -1.87381 -9.82287 -36
    endloop
  endfacet
  facet normal -0.844325 -0.535831 0
    outer loop
      vertex -8.09017 -5.87785 -36
      vertex -8.76307 -4.81754 0
      vertex -8.76307 -4.81754 -36
    endloop
  endfacet
  facet normal -0.844325 -0.535831 0
    outer loop
      vertex -8.76307 -4.81754 0
      vertex -8.09017 -5.87785 -36
      vertex -8.09017 -5.87785 0
    endloop
  endfacet
  facet normal -0.904831 -0.425771 0
    outer loop
      vertex -8.76307 -4.81754 -36
      vertex -9.29776 -3.68124 0
      vertex -9.29776 -3.68124 -36
    endloop
  endfacet
  facet normal -0.904831 -0.425771 0
    outer loop
      vertex -9.29776 -3.68124 0
      vertex -8.76307 -4.81754 -36
      vertex -8.76307 -4.81754 0
    endloop
  endfacet
  facet normal -0.982287 -0.187384 0
    outer loop
      vertex -9.68583 -2.4869 -36
      vertex -9.92115 -1.25333 0
      vertex -9.92115 -1.25333 -36
    endloop
  endfacet
  facet normal -0.982287 -0.187384 0
    outer loop
      vertex -9.92115 -1.25333 0
      vertex -9.68583 -2.4869 -36
      vertex -9.68583 -2.4869 0
    endloop
  endfacet
  facet normal -0.998027 -0.0627883 0
    outer loop
      vertex -9.92115 -1.25333 -36
      vertex -10 0 0
      vertex -10 0 -36
    endloop
  endfacet
  facet normal -0.998027 -0.0627883 0
    outer loop
      vertex -10 0 0
      vertex -9.92115 -1.25333 -36
      vertex -9.92115 -1.25333 0
    endloop
  endfacet
  facet normal -0.684545 -0.728971 0
    outer loop
      vertex -7.28969 -6.84547 -36
      vertex -6.37424 -7.70513 0
      vertex -7.28969 -6.84547 0
    endloop
  endfacet
  facet normal -0.684545 -0.728971 -0
    outer loop
      vertex -6.37424 -7.70513 0
      vertex -7.28969 -6.84547 -36
      vertex -6.37424 -7.70513 -36
    endloop
  endfacet
  facet normal -0.587788 -0.809015 0
    outer loop
      vertex -6.37424 -7.70513 -36
      vertex -5.35827 -8.44328 0
      vertex -6.37424 -7.70513 0
    endloop
  endfacet
  facet normal -0.587788 -0.809015 -0
    outer loop
      vertex -5.35827 -8.44328 0
      vertex -6.37424 -7.70513 -36
      vertex -5.35827 -8.44328 -36
    endloop
  endfacet
  facet normal -0.368122 -0.929777 0
    outer loop
      vertex -4.25779 -9.04827 -36
      vertex -3.09017 -9.51056 0
      vertex -4.25779 -9.04827 0
    endloop
  endfacet
  facet normal -0.368122 -0.929777 -0
    outer loop
      vertex -3.09017 -9.51056 0
      vertex -4.25779 -9.04827 -36
      vertex -3.09017 -9.51056 -36
    endloop
  endfacet
  facet normal -0.481751 -0.876308 0
    outer loop
      vertex -5.35827 -8.44328 -36
      vertex -4.25779 -9.04827 0
      vertex -5.35827 -8.44328 0
    endloop
  endfacet
  facet normal -0.481751 -0.876308 -0
    outer loop
      vertex -4.25779 -9.04827 0
      vertex -5.35827 -8.44328 -36
      vertex -4.25779 -9.04827 -36
    endloop
  endfacet
endsolid OpenSCAD_Model
