solid OpenSCAD_Model
  facet normal 0 0 -1
    outer loop
      vertex 2.875 0 -15
      vertex 5 0 -15
      vertex 4.96057 -0.626666 -15
    endloop
  endfacet
  facet normal 0 0 -1
    outer loop
      vertex 2.85233 -0.360332 -15
      vertex 4.96057 -0.626666 -15
      vertex 4.84292 -1.24345 -15
    endloop
  endfacet
  facet normal 0 0 -1
    outer loop
      vertex 5 0 -15
      vertex 2.875 0 -15
      vertex 4.96057 0.626666 -15
    endloop
  endfacet
  facet normal 0 0 -1
    outer loop
      vertex 2.78468 -0.714983 -15
      vertex 4.84292 -1.24345 -15
      vertex 4.64888 -1.84062 -15
    endloop
  endfacet
  facet normal 0 0 -1
    outer loop
      vertex 2.85233 0.360332 -15
      vertex 4.96057 0.626666 -15
      vertex 2.875 0 -15
    endloop
  endfacet
  facet normal 0 0 -1
    outer loop
      vertex 2.67311 -1.05836 -15
      vertex 4.64888 -1.84062 -15
      vertex 4.38153 -2.40877 -15
    endloop
  endfacet
  facet normal -0 0 -1
    outer loop
      vertex 4.96057 0.626666 -15
      vertex 2.85233 0.360332 -15
      vertex 4.84292 1.24345 -15
    endloop
  endfacet
  facet normal 0 0 -1
    outer loop
      vertex 2.51938 -1.38504 -15
      vertex 4.38153 -2.40877 -15
      vertex 4.04508 -2.93893 -15
    endloop
  endfacet
  facet normal 0 0 -1
    outer loop
      vertex 2.78468 0.714983 -15
      vertex 4.84292 1.24345 -15
      vertex 2.85233 0.360332 -15
    endloop
  endfacet
  facet normal 0 0 -1
    outer loop
      vertex 2.32592 -1.68988 -15
      vertex 4.04508 -2.93893 -15
      vertex 3.64484 -3.42274 -15
    endloop
  endfacet
  facet normal -0 0 -1
    outer loop
      vertex 4.84292 1.24345 -15
      vertex 2.78468 0.714983 -15
      vertex 4.64888 1.84062 -15
    endloop
  endfacet
  facet normal 0 0 -1
    outer loop
      vertex 2.09578 -1.96807 -15
      vertex 3.64484 -3.42274 -15
      vertex 3.18712 -3.85257 -15
    endloop
  endfacet
  facet normal 0 0 -1
    outer loop
      vertex 2.67311 1.05836 -15
      vertex 4.64888 1.84062 -15
      vertex 2.78468 0.714983 -15
    endloop
  endfacet
  facet normal -0 0 -1
    outer loop
      vertex 4.64888 1.84062 -15
      vertex 2.67311 1.05836 -15
      vertex 4.38153 2.40877 -15
    endloop
  endfacet
  facet normal 0 0 -1
    outer loop
      vertex 4.96057 -0.626666 -15
      vertex 2.85233 -0.360332 -15
      vertex 2.875 0 -15
    endloop
  endfacet
  facet normal 0 0 -1
    outer loop
      vertex 4.84292 -1.24345 -15
      vertex 2.78468 -0.714983 -15
      vertex 2.85233 -0.360332 -15
    endloop
  endfacet
  facet normal 0 0 -1
    outer loop
      vertex 1.83259 -2.21523 -15
      vertex 3.18712 -3.85257 -15
      vertex 2.67913 -4.22164 -15
    endloop
  endfacet
  facet normal 0 0 -1
    outer loop
      vertex 4.64888 -1.84062 -15
      vertex 2.67311 -1.05836 -15
      vertex 2.78468 -0.714983 -15
    endloop
  endfacet
  facet normal 0 0 -1
    outer loop
      vertex 4.38153 -2.40877 -15
      vertex 2.51938 -1.38504 -15
      vertex 2.67311 -1.05836 -15
    endloop
  endfacet
  facet normal 0 0 -1
    outer loop
      vertex 4.04508 -2.93893 -15
      vertex 2.32592 -1.68988 -15
      vertex 2.51938 -1.38504 -15
    endloop
  endfacet
  facet normal 0 0 -1
    outer loop
      vertex 1.5405 -2.42744 -15
      vertex 2.67913 -4.22164 -15
      vertex 2.1289 -4.52413 -15
    endloop
  endfacet
  facet normal 0 0 -1
    outer loop
      vertex 3.64484 -3.42274 -15
      vertex 2.09578 -1.96807 -15
      vertex 2.32592 -1.68988 -15
    endloop
  endfacet
  facet normal 0 0 -1
    outer loop
      vertex 3.18712 -3.85257 -15
      vertex 1.83259 -2.21523 -15
      vertex 2.09578 -1.96807 -15
    endloop
  endfacet
  facet normal 0 0 -1
    outer loop
      vertex 1.22412 -2.60138 -15
      vertex 2.1289 -4.52413 -15
      vertex 1.54508 -4.75528 -15
    endloop
  endfacet
  facet normal 0 0 -1
    outer loop
      vertex 2.67913 -4.22164 -15
      vertex 1.5405 -2.42744 -15
      vertex 1.83259 -2.21523 -15
    endloop
  endfacet
  facet normal 0 0 -1
    outer loop
      vertex 2.1289 -4.52413 -15
      vertex 1.22412 -2.60138 -15
      vertex 1.5405 -2.42744 -15
    endloop
  endfacet
  facet normal 0 0 -1
    outer loop
      vertex 0.888423 -2.73429 -15
      vertex 1.54508 -4.75528 -15
      vertex 0.936906 -4.91144 -15
    endloop
  endfacet
  facet normal 0 0 -1
    outer loop
      vertex 1.54508 -4.75528 -15
      vertex 0.888423 -2.73429 -15
      vertex 1.22412 -2.60138 -15
    endloop
  endfacet
  facet normal 0 0 -1
    outer loop
      vertex 0.936906 -4.91144 -15
      vertex 0.538721 -2.82408 -15
      vertex 0.888423 -2.73429 -15
    endloop
  endfacet
  facet normal 0 0 -1
    outer loop
      vertex 0.313952 -4.99013 -15
      vertex 0.538721 -2.82408 -15
      vertex 0.936906 -4.91144 -15
    endloop
  endfacet
  facet normal 0 0 -1
    outer loop
      vertex 0.313952 -4.99013 -15
      vertex 0.180522 -2.86933 -15
      vertex 0.538721 -2.82408 -15
    endloop
  endfacet
  facet normal 0 0 -1
    outer loop
      vertex 0.313952 -4.99013 -15
      vertex -0.180522 -2.86933 -15
      vertex 0.180522 -2.86933 -15
    endloop
  endfacet
  facet normal 0 0 -1
    outer loop
      vertex -0.313952 -4.99013 -15
      vertex -0.180522 -2.86933 -15
      vertex 0.313952 -4.99013 -15
    endloop
  endfacet
  facet normal 0 0 -1
    outer loop
      vertex -0.313952 -4.99013 -15
      vertex -0.538721 -2.82408 -15
      vertex -0.180522 -2.86933 -15
    endloop
  endfacet
  facet normal 0 0 -1
    outer loop
      vertex -0.936906 -4.91144 -15
      vertex -0.538721 -2.82408 -15
      vertex -0.313952 -4.99013 -15
    endloop
  endfacet
  facet normal -0 0 -1
    outer loop
      vertex -0.538721 -2.82408 -15
      vertex -0.936906 -4.91144 -15
      vertex -0.888423 -2.73429 -15
    endloop
  endfacet
  facet normal 0 0 -1
    outer loop
      vertex -1.54508 -4.75528 -15
      vertex -0.888423 -2.73429 -15
      vertex -0.936906 -4.91144 -15
    endloop
  endfacet
  facet normal -0 0 -1
    outer loop
      vertex -0.888423 -2.73429 -15
      vertex -1.54508 -4.75528 -15
      vertex -1.22412 -2.60138 -15
    endloop
  endfacet
  facet normal 0 0 -1
    outer loop
      vertex -2.1289 -4.52413 -15
      vertex -1.22412 -2.60138 -15
      vertex -1.54508 -4.75528 -15
    endloop
  endfacet
  facet normal -0 0 -1
    outer loop
      vertex -1.22412 -2.60138 -15
      vertex -2.1289 -4.52413 -15
      vertex -1.5405 -2.42744 -15
    endloop
  endfacet
  facet normal 0 0 -1
    outer loop
      vertex -2.67913 -4.22164 -15
      vertex -1.5405 -2.42744 -15
      vertex -2.1289 -4.52413 -15
    endloop
  endfacet
  facet normal -0 0 -1
    outer loop
      vertex -1.5405 -2.42744 -15
      vertex -2.67913 -4.22164 -15
      vertex -1.83259 -2.21523 -15
    endloop
  endfacet
  facet normal 0 0 -1
    outer loop
      vertex -3.18712 -3.85257 -15
      vertex -1.83259 -2.21523 -15
      vertex -2.67913 -4.22164 -15
    endloop
  endfacet
  facet normal -0 0 -1
    outer loop
      vertex -1.83259 -2.21523 -15
      vertex -3.18712 -3.85257 -15
      vertex -2.09578 -1.96807 -15
    endloop
  endfacet
  facet normal 0 0 -1
    outer loop
      vertex -3.64484 -3.42274 -15
      vertex -2.09578 -1.96807 -15
      vertex -3.18712 -3.85257 -15
    endloop
  endfacet
  facet normal -0 0 -1
    outer loop
      vertex -2.09578 -1.96807 -15
      vertex -3.64484 -3.42274 -15
      vertex -2.32592 -1.68988 -15
    endloop
  endfacet
  facet normal 0 0 -1
    outer loop
      vertex -4.04508 -2.93893 -15
      vertex -2.32592 -1.68988 -15
      vertex -3.64484 -3.42274 -15
    endloop
  endfacet
  facet normal -0 0 -1
    outer loop
      vertex -2.32592 -1.68988 -15
      vertex -4.04508 -2.93893 -15
      vertex -2.51938 -1.38504 -15
    endloop
  endfacet
  facet normal 0 0 -1
    outer loop
      vertex -4.38153 -2.40877 -15
      vertex -2.51938 -1.38504 -15
      vertex -4.04508 -2.93893 -15
    endloop
  endfacet
  facet normal -0 0 -1
    outer loop
      vertex -2.51938 -1.38504 -15
      vertex -4.38153 -2.40877 -15
      vertex -2.67311 -1.05836 -15
    endloop
  endfacet
  facet normal 0 0 -1
    outer loop
      vertex 2.51938 1.38504 -15
      vertex 4.38153 2.40877 -15
      vertex 2.67311 1.05836 -15
    endloop
  endfacet
  facet normal -0 0 -1
    outer loop
      vertex 4.38153 2.40877 -15
      vertex 2.51938 1.38504 -15
      vertex 4.04508 2.93893 -15
    endloop
  endfacet
  facet normal 0 0 -1
    outer loop
      vertex 2.32592 1.68988 -15
      vertex 4.04508 2.93893 -15
      vertex 2.51938 1.38504 -15
    endloop
  endfacet
  facet normal -0 0 -1
    outer loop
      vertex 4.04508 2.93893 -15
      vertex 2.32592 1.68988 -15
      vertex 3.64484 3.42274 -15
    endloop
  endfacet
  facet normal 0 0 -1
    outer loop
      vertex 2.09578 1.96807 -15
      vertex 3.64484 3.42274 -15
      vertex 2.32592 1.68988 -15
    endloop
  endfacet
  facet normal -0 0 -1
    outer loop
      vertex 3.64484 3.42274 -15
      vertex 2.09578 1.96807 -15
      vertex 3.18712 3.85257 -15
    endloop
  endfacet
  facet normal 0 0 -1
    outer loop
      vertex 1.83259 2.21523 -15
      vertex 3.18712 3.85257 -15
      vertex 2.09578 1.96807 -15
    endloop
  endfacet
  facet normal -0 0 -1
    outer loop
      vertex 3.18712 3.85257 -15
      vertex 1.83259 2.21523 -15
      vertex 2.67913 4.22164 -15
    endloop
  endfacet
  facet normal 0 0 -1
    outer loop
      vertex 1.5405 2.42744 -15
      vertex 2.67913 4.22164 -15
      vertex 1.83259 2.21523 -15
    endloop
  endfacet
  facet normal -0 0 -1
    outer loop
      vertex 2.67913 4.22164 -15
      vertex 1.5405 2.42744 -15
      vertex 2.1289 4.52413 -15
    endloop
  endfacet
  facet normal 0 0 -1
    outer loop
      vertex 1.22412 2.60138 -15
      vertex 2.1289 4.52413 -15
      vertex 1.5405 2.42744 -15
    endloop
  endfacet
  facet normal -0 0 -1
    outer loop
      vertex 2.1289 4.52413 -15
      vertex 1.22412 2.60138 -15
      vertex 1.54508 4.75528 -15
    endloop
  endfacet
  facet normal 0 0 -1
    outer loop
      vertex 0.888423 2.73429 -15
      vertex 1.54508 4.75528 -15
      vertex 1.22412 2.60138 -15
    endloop
  endfacet
  facet normal -0 0 -1
    outer loop
      vertex 1.54508 4.75528 -15
      vertex 0.888423 2.73429 -15
      vertex 0.936906 4.91144 -15
    endloop
  endfacet
  facet normal 0 0 -1
    outer loop
      vertex 0.538721 2.82408 -15
      vertex 0.936906 4.91144 -15
      vertex 0.888423 2.73429 -15
    endloop
  endfacet
  facet normal 0 0 -1
    outer loop
      vertex 0.538721 2.82408 -15
      vertex 0.313952 4.99013 -15
      vertex 0.936906 4.91144 -15
    endloop
  endfacet
  facet normal 0 0 -1
    outer loop
      vertex 0.180522 2.86933 -15
      vertex 0.313952 4.99013 -15
      vertex 0.538721 2.82408 -15
    endloop
  endfacet
  facet normal 0 0 -1
    outer loop
      vertex -0.180522 2.86933 -15
      vertex 0.313952 4.99013 -15
      vertex 0.180522 2.86933 -15
    endloop
  endfacet
  facet normal 0 0 -1
    outer loop
      vertex -0.180522 2.86933 -15
      vertex -0.313952 4.99013 -15
      vertex 0.313952 4.99013 -15
    endloop
  endfacet
  facet normal 0 0 -1
    outer loop
      vertex -0.538721 2.82408 -15
      vertex -0.313952 4.99013 -15
      vertex -0.180522 2.86933 -15
    endloop
  endfacet
  facet normal 0 0 -1
    outer loop
      vertex -0.936906 4.91144 -15
      vertex -0.538721 2.82408 -15
      vertex -0.888423 2.73429 -15
    endloop
  endfacet
  facet normal 0 0 -1
    outer loop
      vertex -0.538721 2.82408 -15
      vertex -0.936906 4.91144 -15
      vertex -0.313952 4.99013 -15
    endloop
  endfacet
  facet normal 0 0 -1
    outer loop
      vertex -1.54508 4.75528 -15
      vertex -0.888423 2.73429 -15
      vertex -1.22412 2.60138 -15
    endloop
  endfacet
  facet normal 0 0 -1
    outer loop
      vertex -2.1289 4.52413 -15
      vertex -1.22412 2.60138 -15
      vertex -1.5405 2.42744 -15
    endloop
  endfacet
  facet normal 0 0 -1
    outer loop
      vertex -0.888423 2.73429 -15
      vertex -1.54508 4.75528 -15
      vertex -0.936906 4.91144 -15
    endloop
  endfacet
  facet normal 0 0 -1
    outer loop
      vertex -2.67913 4.22164 -15
      vertex -1.5405 2.42744 -15
      vertex -1.83259 2.21523 -15
    endloop
  endfacet
  facet normal 0 0 -1
    outer loop
      vertex -3.18712 3.85257 -15
      vertex -1.83259 2.21523 -15
      vertex -2.09578 1.96807 -15
    endloop
  endfacet
  facet normal 0 0 -1
    outer loop
      vertex -1.22412 2.60138 -15
      vertex -2.1289 4.52413 -15
      vertex -1.54508 4.75528 -15
    endloop
  endfacet
  facet normal 0 0 -1
    outer loop
      vertex -3.64484 3.42274 -15
      vertex -2.09578 1.96807 -15
      vertex -2.32592 1.68988 -15
    endloop
  endfacet
  facet normal 0 0 -1
    outer loop
      vertex -4.04508 2.93893 -15
      vertex -2.32592 1.68988 -15
      vertex -2.51938 1.38504 -15
    endloop
  endfacet
  facet normal 0 0 -1
    outer loop
      vertex -4.38153 2.40877 -15
      vertex -2.51938 1.38504 -15
      vertex -2.67311 1.05836 -15
    endloop
  endfacet
  facet normal 0 0 -1
    outer loop
      vertex -1.5405 2.42744 -15
      vertex -2.67913 4.22164 -15
      vertex -2.1289 4.52413 -15
    endloop
  endfacet
  facet normal 0 0 -1
    outer loop
      vertex -4.64888 1.84062 -15
      vertex -2.67311 1.05836 -15
      vertex -2.78468 0.714983 -15
    endloop
  endfacet
  facet normal 0 0 -1
    outer loop
      vertex -4.84292 1.24345 -15
      vertex -2.78468 0.714983 -15
      vertex -2.85233 0.360332 -15
    endloop
  endfacet
  facet normal 0 0 -1
    outer loop
      vertex -4.96057 0.626666 -15
      vertex -2.85233 0.360332 -15
      vertex -2.875 0 -15
    endloop
  endfacet
  facet normal 0 0 -1
    outer loop
      vertex -4.64888 -1.84062 -15
      vertex -2.67311 -1.05836 -15
      vertex -4.38153 -2.40877 -15
    endloop
  endfacet
  facet normal 0 0 -1
    outer loop
      vertex -1.83259 2.21523 -15
      vertex -3.18712 3.85257 -15
      vertex -2.67913 4.22164 -15
    endloop
  endfacet
  facet normal -0 0 -1
    outer loop
      vertex -2.67311 -1.05836 -15
      vertex -4.64888 -1.84062 -15
      vertex -2.78468 -0.714983 -15
    endloop
  endfacet
  facet normal 0 0 -1
    outer loop
      vertex -2.09578 1.96807 -15
      vertex -3.64484 3.42274 -15
      vertex -3.18712 3.85257 -15
    endloop
  endfacet
  facet normal 0 0 -1
    outer loop
      vertex -4.84292 -1.24345 -15
      vertex -2.78468 -0.714983 -15
      vertex -4.64888 -1.84062 -15
    endloop
  endfacet
  facet normal 0 0 -1
    outer loop
      vertex -2.32592 1.68988 -15
      vertex -4.04508 2.93893 -15
      vertex -3.64484 3.42274 -15
    endloop
  endfacet
  facet normal -0 0 -1
    outer loop
      vertex -2.78468 -0.714983 -15
      vertex -4.84292 -1.24345 -15
      vertex -2.85233 -0.360332 -15
    endloop
  endfacet
  facet normal 0 0 -1
    outer loop
      vertex -2.51938 1.38504 -15
      vertex -4.38153 2.40877 -15
      vertex -4.04508 2.93893 -15
    endloop
  endfacet
  facet normal 0 0 -1
    outer loop
      vertex -4.96057 -0.626666 -15
      vertex -2.85233 -0.360332 -15
      vertex -4.84292 -1.24345 -15
    endloop
  endfacet
  facet normal 0 0 -1
    outer loop
      vertex -2.67311 1.05836 -15
      vertex -4.64888 1.84062 -15
      vertex -4.38153 2.40877 -15
    endloop
  endfacet
  facet normal -0 0 -1
    outer loop
      vertex -2.85233 -0.360332 -15
      vertex -4.96057 -0.626666 -15
      vertex -2.875 0 -15
    endloop
  endfacet
  facet normal 0 0 -1
    outer loop
      vertex -2.78468 0.714983 -15
      vertex -4.84292 1.24345 -15
      vertex -4.64888 1.84062 -15
    endloop
  endfacet
  facet normal 0 0 -1
    outer loop
      vertex -5 0 -15
      vertex -2.875 0 -15
      vertex -4.96057 -0.626666 -15
    endloop
  endfacet
  facet normal 0 0 -1
    outer loop
      vertex -2.85233 0.360332 -15
      vertex -4.96057 0.626666 -15
      vertex -4.84292 1.24345 -15
    endloop
  endfacet
  facet normal 0 0 -1
    outer loop
      vertex -2.875 0 -15
      vertex -5 0 -15
      vertex -4.96057 0.626666 -15
    endloop
  endfacet
  facet normal -0.647161 0.535386 0.542719
    outer loop
      vertex 3.64484 -3.42274 -0.617821
      vertex 4.00863 -2.983 -0.617821
      vertex 2.09578 -1.96807 -3.9
    endloop
  endfacet
  facet normal -0.838257 -0.0527449 0.542718
    outer loop
      vertex 5 0 -0.617821
      vertex 4.96416 0.569583 -0.617822
      vertex 2.875 0 -3.9
    endloop
  endfacet
  facet normal -0.83826 -0.0527189 0.542717
    outer loop
      vertex 2.85233 0.360332 -3.9
      vertex 4.96416 0.569583 -0.617822
      vertex 4.96057 0.626666 -0.617822
    endloop
  endfacet
  facet normal -0.838258 -0.0527383 0.542717
    outer loop
      vertex 4.96416 0.569583 -0.617822
      vertex 2.85233 0.360332 -3.9
      vertex 2.875 0 -3.9
    endloop
  endfacet
  facet normal -0.838258 0.0527383 0.542717
    outer loop
      vertex 2.85233 -0.360332 -3.9
      vertex 4.96416 -0.569583 -0.617822
      vertex 2.875 0 -3.9
    endloop
  endfacet
  facet normal -0.83826 0.0527189 0.542717
    outer loop
      vertex 4.96416 -0.569583 -0.617822
      vertex 2.85233 -0.360332 -3.9
      vertex 4.96057 -0.626666 -0.617822
    endloop
  endfacet
  facet normal 0.982311 0.187258 0
    outer loop
      vertex -4.94986 -0.682848 -0.617822
      vertex -4.96057 -0.626666 -0.617822
      vertex -4.96057 -0.626666 -0.617821
    endloop
  endfacet
  facet normal 0.825051 0.15728 0.542728
    outer loop
      vertex -4.96057 -0.626666 -0.617822
      vertex -4.94986 -0.682848 -0.617822
      vertex -2.78468 -0.714983 -3.9
    endloop
  endfacet
  facet normal 0.825039 0.157377 0.542718
    outer loop
      vertex -4.96057 -0.626666 -0.617822
      vertex -2.78468 -0.714983 -3.9
      vertex -2.85233 -0.360332 -3.9
    endloop
  endfacet
  facet normal -0.105267 0.833293 0.542717
    outer loop
      vertex 0.180522 -2.86933 -3.9
      vertex 0.370697 -4.98296 -0.617822
      vertex 0.538721 -2.82408 -3.9
    endloop
  endfacet
  facet normal -0.10529 0.83329 0.542716
    outer loop
      vertex 0.370697 -4.98296 -0.617822
      vertex 0.180522 -2.86933 -3.9
      vertex 0.313952 -4.99013 -0.617822
    endloop
  endfacet
  facet normal 0.105256 -0.833294 0.542718
    outer loop
      vertex -0.936906 4.91144 -0.617822
      vertex -0.538721 2.82408 -3.9
      vertex -0.370697 4.98296 -0.617822
    endloop
  endfacet
  facet normal -0.493681 -0.679512 0.542717
    outer loop
      vertex 1.83259 2.21523 -3.9
      vertex 3.14085 3.88618 -0.617822
      vertex 1.5405 2.42744 -3.9
    endloop
  endfacet
  facet normal -0.493622 -0.679556 0.542716
    outer loop
      vertex 3.14085 3.88618 -0.617822
      vertex 1.83259 2.21523 -3.9
      vertex 3.18712 3.85257 -0.617822
    endloop
  endfacet
  facet normal -0.798807 0.259546 0.542718
    outer loop
      vertex 4.84292 -1.24345 -0.617821
      vertex 2.78468 -0.714983 -3.9
      vertex 4.66656 -1.78623 -0.617823
    endloop
  endfacet
  facet normal -0.838257 0.0527449 0.542718
    outer loop
      vertex 4.96416 -0.569583 -0.617822
      vertex 5 0 -0.617821
      vertex 2.875 0 -3.9
    endloop
  endfacet
  facet normal 0.647161 0.535386 0.542719
    outer loop
      vertex -4.00863 -2.983 -0.617821
      vertex -3.64484 -3.42274 -0.617821
      vertex -2.09578 -1.96807 -3.9
    endloop
  endfacet
  facet normal 0.49369 0.679505 0.542718
    outer loop
      vertex -2.67913 -4.22164 -0.617822
      vertex -1.5405 -2.42744 -3.9
      vertex -3.14085 -3.88618 -0.617822
    endloop
  endfacet
  facet normal 0.709178 -0.450027 0.542718
    outer loop
      vertex -4.07573 2.89063 -0.617821
      vertex -2.32592 1.68988 -3.9
      vertex -4.04508 2.93893 -0.617821
    endloop
  endfacet
  facet normal 0.709161 -0.450053 0.542718
    outer loop
      vertex -2.32592 1.68988 -3.9
      vertex -4.07573 2.89063 -0.617821
      vertex -2.51938 1.38504 -3.9
    endloop
  endfacet
  facet normal -0.798806 0.259548 0.542718
    outer loop
      vertex 2.67311 -1.05836 -3.9
      vertex 4.66656 -1.78623 -0.617823
      vertex 2.78468 -0.714983 -3.9
    endloop
  endfacet
  facet normal -0.798772 0.259649 0.54272
    outer loop
      vertex 4.64888 -1.84062 -0.617823
      vertex 4.66656 -1.78623 -0.617823
      vertex 2.67311 -1.05836 -3.9
    endloop
  endfacet
  facet normal -0.951017 0.309137 0
    outer loop
      vertex 4.66656 -1.78623 -0.617823
      vertex 4.64888 -1.84062 -0.617823
      vertex 4.64888 -1.84062 -0.617822
    endloop
  endfacet
  facet normal -0.759973 0.35763 0.542717
    outer loop
      vertex 2.51938 -1.38504 -3.9
      vertex 4.64888 -1.84062 -0.617823
      vertex 2.67311 -1.05836 -3.9
    endloop
  endfacet
  facet normal -0.759986 0.357597 0.54272
    outer loop
      vertex 4.64888 -1.84062 -0.617823
      vertex 2.51938 -1.38504 -3.9
      vertex 4.62453 -1.89237 -0.617823
    endloop
  endfacet
  facet normal -0.404591 0.736047 0.542717
    outer loop
      vertex 1.5405 -2.42744 -3.9
      vertex 2.62901 -4.24919 -0.617822
      vertex 2.67913 -4.22164 -0.617822
    endloop
  endfacet
  facet normal -0.404648 0.736015 0.542718
    outer loop
      vertex 2.62901 -4.24919 -0.617822
      vertex 1.5405 -2.42744 -3.9
      vertex 1.22412 -2.60138 -3.9
    endloop
  endfacet
  facet normal -0.404635 0.736022 0.542717
    outer loop
      vertex 2.1289 -4.52413 -0.617822
      vertex 2.62901 -4.24919 -0.617822
      vertex 1.22412 -2.60138 -3.9
    endloop
  endfacet
  facet normal 0.3092 0.780931 0.542717
    outer loop
      vertex -2.1289 -4.52413 -0.617822
      vertex -1.59826 -4.73423 -0.617822
      vertex -1.22412 -2.60138 -3.9
    endloop
  endfacet
  facet normal 0.647164 0.535383 0.542718
    outer loop
      vertex -4.04508 -2.93893 -0.617821
      vertex -2.09578 -1.96807 -3.9
      vertex -2.32592 -1.68988 -3.9
    endloop
  endfacet
  facet normal 0.647217 0.535309 0.542728
    outer loop
      vertex -2.09578 -1.96807 -3.9
      vertex -4.04508 -2.93893 -0.617821
      vertex -4.00863 -2.983 -0.617821
    endloop
  endfacet
  facet normal -0.105256 -0.833294 0.542718
    outer loop
      vertex 0.538721 2.82408 -3.9
      vertex 0.936906 4.91144 -0.617822
      vertex 0.370697 4.98296 -0.617822
    endloop
  endfacet
  facet normal -0.709162 -0.450052 0.542718
    outer loop
      vertex 4.38153 2.40877 -0.617822
      vertex 4.07573 2.89063 -0.617821
      vertex 2.51938 1.38504 -3.9
    endloop
  endfacet
  facet normal -0.825039 0.157377 0.542718
    outer loop
      vertex 2.78468 -0.714983 -3.9
      vertex 4.96057 -0.626666 -0.617822
      vertex 2.85233 -0.360332 -3.9
    endloop
  endfacet
  facet normal -0.825051 0.15728 0.542728
    outer loop
      vertex 4.94986 -0.682848 -0.617822
      vertex 4.96057 -0.626666 -0.617822
      vertex 2.78468 -0.714983 -3.9
    endloop
  endfacet
  facet normal -0.982311 0.187258 0
    outer loop
      vertex 4.96057 -0.626666 -0.617822
      vertex 4.94986 -0.682848 -0.617822
      vertex 4.96057 -0.626666 -0.617821
    endloop
  endfacet
  facet normal -0.825038 0.157385 0.542718
    outer loop
      vertex 4.84292 -1.24345 -0.617821
      vertex 4.94986 -0.682848 -0.617822
      vertex 2.78468 -0.714983 -3.9
    endloop
  endfacet
  facet normal -0.709162 0.450052 0.542718
    outer loop
      vertex 4.07573 -2.89063 -0.617821
      vertex 4.38153 -2.40877 -0.617822
      vertex 2.51938 -1.38504 -3.9
    endloop
  endfacet
  facet normal -0.759977 0.35762 0.542718
    outer loop
      vertex 4.38153 -2.40877 -0.617822
      vertex 4.62453 -1.89237 -0.617823
      vertex 2.51938 -1.38504 -3.9
    endloop
  endfacet
  facet normal -0.709161 0.450053 0.542718
    outer loop
      vertex 2.32592 -1.68988 -3.9
      vertex 4.07573 -2.89063 -0.617821
      vertex 2.51938 -1.38504 -3.9
    endloop
  endfacet
  facet normal -0.709178 0.450027 0.542718
    outer loop
      vertex 4.04508 -2.93893 -0.617821
      vertex 4.07573 -2.89063 -0.617821
      vertex 2.32592 -1.68988 -3.9
    endloop
  endfacet
  facet normal -0.647164 0.535383 0.542718
    outer loop
      vertex 2.09578 -1.96807 -3.9
      vertex 4.04508 -2.93893 -0.617821
      vertex 2.32592 -1.68988 -3.9
    endloop
  endfacet
  facet normal -0.647217 0.535309 0.542728
    outer loop
      vertex 4.04508 -2.93893 -0.617821
      vertex 2.09578 -1.96807 -3.9
      vertex 4.00863 -2.983 -0.617821
    endloop
  endfacet
  facet normal -0.574963 0.612269 0.542718
    outer loop
      vertex 3.18712 -3.85257 -0.617822
      vertex 3.60315 -3.46189 -0.617821
      vertex 1.83259 -2.21523 -3.9
    endloop
  endfacet
  facet normal -0.493622 0.679556 0.542716
    outer loop
      vertex 1.83259 -2.21523 -3.9
      vertex 3.14085 -3.88618 -0.617822
      vertex 3.18712 -3.85257 -0.617822
    endloop
  endfacet
  facet normal -0.493681 0.679512 0.542717
    outer loop
      vertex 3.14085 -3.88618 -0.617822
      vertex 1.83259 -2.21523 -3.9
      vertex 1.5405 -2.42744 -3.9
    endloop
  endfacet
  facet normal -0.3092 0.780931 0.542717
    outer loop
      vertex 1.59826 -4.73423 -0.617822
      vertex 2.1289 -4.52413 -0.617822
      vertex 1.22412 -2.60138 -3.9
    endloop
  endfacet
  facet normal -0.208992 0.813497 0.54272
    outer loop
      vertex 0.888423 -2.73429 -3.9
      vertex 1.48969 -4.76951 -0.617822
      vertex 1.54508 -4.75528 -0.617822
    endloop
  endfacet
  facet normal -0.208882 0.813526 0.542719
    outer loop
      vertex 1.48969 -4.76951 -0.617822
      vertex 0.888423 -2.73429 -3.9
      vertex 0.538721 -2.82408 -3.9
    endloop
  endfacet
  facet normal 0.208877 0.813528 0.542718
    outer loop
      vertex -0.936906 -4.91144 -0.617822
      vertex -0.538721 -2.82408 -3.9
      vertex -1.48969 -4.76951 -0.617822
    endloop
  endfacet
  facet normal 0.493681 0.679512 0.542717
    outer loop
      vertex -1.83259 -2.21523 -3.9
      vertex -3.14085 -3.88618 -0.617822
      vertex -1.5405 -2.42744 -3.9
    endloop
  endfacet
  facet normal 0.493622 0.679556 0.542716
    outer loop
      vertex -3.14085 -3.88618 -0.617822
      vertex -1.83259 -2.21523 -3.9
      vertex -3.18712 -3.85257 -0.617822
    endloop
  endfacet
  facet normal 0.709162 0.450052 0.542718
    outer loop
      vertex -4.38153 -2.40877 -0.617822
      vertex -4.07573 -2.89063 -0.617821
      vertex -2.51938 -1.38504 -3.9
    endloop
  endfacet
  facet normal 0.759977 0.35762 0.542718
    outer loop
      vertex -4.38153 -2.40877 -0.617822
      vertex -2.51938 -1.38504 -3.9
      vertex -4.62453 -1.89237 -0.617823
    endloop
  endfacet
  facet normal 0.798806 0.259548 0.542718
    outer loop
      vertex -4.66656 -1.78623 -0.617823
      vertex -2.67311 -1.05836 -3.9
      vertex -2.78468 -0.714983 -3.9
    endloop
  endfacet
  facet normal 0.951017 0.309137 -0
    outer loop
      vertex -4.64888 -1.84062 -0.617823
      vertex -4.66656 -1.78623 -0.617823
      vertex -4.64888 -1.84062 -0.617822
    endloop
  endfacet
  facet normal 0.798772 0.259649 0.54272
    outer loop
      vertex -4.66656 -1.78623 -0.617823
      vertex -4.64888 -1.84062 -0.617823
      vertex -2.67311 -1.05836 -3.9
    endloop
  endfacet
  facet normal 0.404635 -0.736022 0.542717
    outer loop
      vertex -1.22412 2.60138 -3.9
      vertex -2.1289 4.52413 -0.617822
      vertex -2.62901 4.24919 -0.617822
    endloop
  endfacet
  facet normal 0.647161 -0.535386 0.542719
    outer loop
      vertex -3.64484 3.42274 -0.617821
      vertex -4.00863 2.983 -0.617821
      vertex -2.09578 1.96807 -3.9
    endloop
  endfacet
  facet normal 0.982311 -0.187258 0
    outer loop
      vertex -4.96057 0.626666 -0.617822
      vertex -4.94986 0.682848 -0.617822
      vertex -4.96057 0.626666 -0.617821
    endloop
  endfacet
  facet normal 0.825051 -0.15728 0.542728
    outer loop
      vertex -4.94986 0.682848 -0.617822
      vertex -4.96057 0.626666 -0.617822
      vertex -2.78468 0.714983 -3.9
    endloop
  endfacet
  facet normal 0.825039 -0.157377 0.542718
    outer loop
      vertex -2.78468 0.714983 -3.9
      vertex -4.96057 0.626666 -0.617822
      vertex -2.85233 0.360332 -3.9
    endloop
  endfacet
  facet normal 0.838257 0.0527449 0.542718
    outer loop
      vertex -4.96416 -0.569583 -0.617822
      vertex -2.875 0 -3.9
      vertex -5 0 -0.617821
    endloop
  endfacet
  facet normal 0 -0.839916 0.542717
    outer loop
      vertex -0.180522 2.86933 -3.9
      vertex 0.313952 4.99013 -0.617822
      vertex -0.313952 4.99013 -0.617822
    endloop
  endfacet
  facet normal 0 -0.839916 0.542717
    outer loop
      vertex 0.313952 4.99013 -0.617822
      vertex -0.180522 2.86933 -3.9
      vertex 0.180522 2.86933 -3.9
    endloop
  endfacet
  facet normal -0.759977 -0.35762 0.542718
    outer loop
      vertex 4.62453 1.89237 -0.617823
      vertex 4.38153 2.40877 -0.617822
      vertex 2.51938 1.38504 -3.9
    endloop
  endfacet
  facet normal -0.208877 0.813528 0.542718
    outer loop
      vertex 0.936906 -4.91144 -0.617822
      vertex 1.48969 -4.76951 -0.617822
      vertex 0.538721 -2.82408 -3.9
    endloop
  endfacet
  facet normal -0.105256 0.833294 0.542718
    outer loop
      vertex 0.936906 -4.91144 -0.617822
      vertex 0.538721 -2.82408 -3.9
      vertex 0.370697 -4.98296 -0.617822
    endloop
  endfacet
  facet normal -0.49369 0.679505 0.542718
    outer loop
      vertex 1.5405 -2.42744 -3.9
      vertex 2.67913 -4.22164 -0.617822
      vertex 3.14085 -3.88618 -0.617822
    endloop
  endfacet
  facet normal -0.574965 0.612268 0.542719
    outer loop
      vertex 2.09578 -1.96807 -3.9
      vertex 3.60315 -3.46189 -0.617821
      vertex 3.64484 -3.42274 -0.617821
    endloop
  endfacet
  facet normal -0.574971 0.612262 0.542719
    outer loop
      vertex 3.60315 -3.46189 -0.617821
      vertex 2.09578 -1.96807 -3.9
      vertex 1.83259 -2.21523 -3.9
    endloop
  endfacet
  facet normal 0.798807 0.259546 0.542718
    outer loop
      vertex -2.78468 -0.714983 -3.9
      vertex -4.84292 -1.24345 -0.617821
      vertex -4.66656 -1.78623 -0.617823
    endloop
  endfacet
  facet normal 0.825038 0.157385 0.542718
    outer loop
      vertex -4.84292 -1.24345 -0.617821
      vertex -2.78468 -0.714983 -3.9
      vertex -4.94986 -0.682848 -0.617822
    endloop
  endfacet
  facet normal 0.30919 0.780935 0.542717
    outer loop
      vertex -1.22412 -2.60138 -3.9
      vertex -1.54508 -4.75528 -0.617822
      vertex -0.888423 -2.73429 -3.9
    endloop
  endfacet
  facet normal 0.309123 0.780957 0.542725
    outer loop
      vertex -1.54508 -4.75528 -0.617822
      vertex -1.22412 -2.60138 -3.9
      vertex -1.59826 -4.73423 -0.617822
    endloop
  endfacet
  facet normal 0.404635 0.736022 0.542717
    outer loop
      vertex -2.1289 -4.52413 -0.617822
      vertex -1.22412 -2.60138 -3.9
      vertex -2.62901 -4.24919 -0.617822
    endloop
  endfacet
  facet normal 0.404648 0.736015 0.542718
    outer loop
      vertex -1.5405 -2.42744 -3.9
      vertex -2.62901 -4.24919 -0.617822
      vertex -1.22412 -2.60138 -3.9
    endloop
  endfacet
  facet normal 0.404591 0.736047 0.542717
    outer loop
      vertex -2.62901 -4.24919 -0.617822
      vertex -1.5405 -2.42744 -3.9
      vertex -2.67913 -4.22164 -0.617822
    endloop
  endfacet
  facet normal 0 0.839916 0.542717
    outer loop
      vertex 0.180522 -2.86933 -3.9
      vertex -0.313952 -4.99013 -0.617822
      vertex 0.313952 -4.99013 -0.617822
    endloop
  endfacet
  facet normal 0 0.839916 0.542717
    outer loop
      vertex -0.313952 -4.99013 -0.617822
      vertex 0.180522 -2.86933 -3.9
      vertex -0.180522 -2.86933 -3.9
    endloop
  endfacet
  facet normal 0.574971 0.612262 0.542719
    outer loop
      vertex -2.09578 -1.96807 -3.9
      vertex -3.60315 -3.46189 -0.617821
      vertex -1.83259 -2.21523 -3.9
    endloop
  endfacet
  facet normal 0.574965 0.612268 0.542719
    outer loop
      vertex -3.60315 -3.46189 -0.617821
      vertex -2.09578 -1.96807 -3.9
      vertex -3.64484 -3.42274 -0.617821
    endloop
  endfacet
  facet normal 0.574963 0.612269 0.542718
    outer loop
      vertex -3.18712 -3.85257 -0.617822
      vertex -1.83259 -2.21523 -3.9
      vertex -3.60315 -3.46189 -0.617821
    endloop
  endfacet
  facet normal 0.709161 0.450053 0.542718
    outer loop
      vertex -4.07573 -2.89063 -0.617821
      vertex -2.32592 -1.68988 -3.9
      vertex -2.51938 -1.38504 -3.9
    endloop
  endfacet
  facet normal 0.709178 0.450027 0.542718
    outer loop
      vertex -4.07573 -2.89063 -0.617821
      vertex -4.04508 -2.93893 -0.617821
      vertex -2.32592 -1.68988 -3.9
    endloop
  endfacet
  facet normal 0.208877 -0.813528 0.542718
    outer loop
      vertex -0.538721 2.82408 -3.9
      vertex -0.936906 4.91144 -0.617822
      vertex -1.48969 4.76951 -0.617822
    endloop
  endfacet
  facet normal 0.404591 -0.736047 0.542717
    outer loop
      vertex -1.5405 2.42744 -3.9
      vertex -2.62901 4.24919 -0.617822
      vertex -2.67913 4.22164 -0.617822
    endloop
  endfacet
  facet normal 0.404648 -0.736015 0.542718
    outer loop
      vertex -2.62901 4.24919 -0.617822
      vertex -1.5405 2.42744 -3.9
      vertex -1.22412 2.60138 -3.9
    endloop
  endfacet
  facet normal 0.574963 -0.612269 0.542718
    outer loop
      vertex -1.83259 2.21523 -3.9
      vertex -3.18712 3.85257 -0.617822
      vertex -3.60315 3.46189 -0.617821
    endloop
  endfacet
  facet normal 0.574965 -0.612268 0.542719
    outer loop
      vertex -2.09578 1.96807 -3.9
      vertex -3.60315 3.46189 -0.617821
      vertex -3.64484 3.42274 -0.617821
    endloop
  endfacet
  facet normal 0.574971 -0.612262 0.542719
    outer loop
      vertex -3.60315 3.46189 -0.617821
      vertex -2.09578 1.96807 -3.9
      vertex -1.83259 2.21523 -3.9
    endloop
  endfacet
  facet normal 0.825038 -0.157385 0.542718
    outer loop
      vertex -2.78468 0.714983 -3.9
      vertex -4.84292 1.24345 -0.617821
      vertex -4.94986 0.682848 -0.617822
    endloop
  endfacet
  facet normal 0.798807 -0.259546 0.542718
    outer loop
      vertex -4.84292 1.24345 -0.617821
      vertex -2.78468 0.714983 -3.9
      vertex -4.66656 1.78623 -0.617823
    endloop
  endfacet
  facet normal 0.759986 -0.357597 0.54272
    outer loop
      vertex -4.64888 1.84062 -0.617823
      vertex -2.51938 1.38504 -3.9
      vertex -4.62453 1.89237 -0.617823
    endloop
  endfacet
  facet normal 0.759973 -0.35763 0.542717
    outer loop
      vertex -2.51938 1.38504 -3.9
      vertex -4.64888 1.84062 -0.617823
      vertex -2.67311 1.05836 -3.9
    endloop
  endfacet
  facet normal -0.208882 -0.813526 0.542719
    outer loop
      vertex 0.888423 2.73429 -3.9
      vertex 1.48969 4.76951 -0.617822
      vertex 0.538721 2.82408 -3.9
    endloop
  endfacet
  facet normal -0.208992 -0.813497 0.54272
    outer loop
      vertex 1.48969 4.76951 -0.617822
      vertex 0.888423 2.73429 -3.9
      vertex 1.54508 4.75528 -0.617822
    endloop
  endfacet
  facet normal -0.10529 -0.83329 0.542716
    outer loop
      vertex 0.180522 2.86933 -3.9
      vertex 0.370697 4.98296 -0.617822
      vertex 0.313952 4.99013 -0.617822
    endloop
  endfacet
  facet normal -0.105267 -0.833293 0.542717
    outer loop
      vertex 0.370697 4.98296 -0.617822
      vertex 0.180522 2.86933 -3.9
      vertex 0.538721 2.82408 -3.9
    endloop
  endfacet
  facet normal 0.105267 -0.833293 0.542717
    outer loop
      vertex -0.180522 2.86933 -3.9
      vertex -0.370697 4.98296 -0.617822
      vertex -0.538721 2.82408 -3.9
    endloop
  endfacet
  facet normal 0.10529 -0.83329 0.542716
    outer loop
      vertex -0.370697 4.98296 -0.617822
      vertex -0.180522 2.86933 -3.9
      vertex -0.313952 4.99013 -0.617822
    endloop
  endfacet
  facet normal -0.759986 -0.357597 0.54272
    outer loop
      vertex 2.51938 1.38504 -3.9
      vertex 4.64888 1.84062 -0.617823
      vertex 4.62453 1.89237 -0.617823
    endloop
  endfacet
  facet normal -0.759973 -0.35763 0.542717
    outer loop
      vertex 4.64888 1.84062 -0.617823
      vertex 2.51938 1.38504 -3.9
      vertex 2.67311 1.05836 -3.9
    endloop
  endfacet
  facet normal -0.647161 -0.535386 0.542719
    outer loop
      vertex 4.00863 2.983 -0.617821
      vertex 3.64484 3.42274 -0.617821
      vertex 2.09578 1.96807 -3.9
    endloop
  endfacet
  facet normal -0.309123 0.780957 0.542725
    outer loop
      vertex 1.22412 -2.60138 -3.9
      vertex 1.54508 -4.75528 -0.617822
      vertex 1.59826 -4.73423 -0.617822
    endloop
  endfacet
  facet normal -0.30919 0.780935 0.542717
    outer loop
      vertex 1.54508 -4.75528 -0.617822
      vertex 1.22412 -2.60138 -3.9
      vertex 0.888423 -2.73429 -3.9
    endloop
  endfacet
  facet normal 0.759973 0.35763 0.542717
    outer loop
      vertex -4.64888 -1.84062 -0.617823
      vertex -2.51938 -1.38504 -3.9
      vertex -2.67311 -1.05836 -3.9
    endloop
  endfacet
  facet normal 0.759986 0.357597 0.54272
    outer loop
      vertex -2.51938 -1.38504 -3.9
      vertex -4.64888 -1.84062 -0.617823
      vertex -4.62453 -1.89237 -0.617823
    endloop
  endfacet
  facet normal 0.208882 0.813526 0.542719
    outer loop
      vertex -0.888423 -2.73429 -3.9
      vertex -1.48969 -4.76951 -0.617822
      vertex -0.538721 -2.82408 -3.9
    endloop
  endfacet
  facet normal 0.208992 0.813497 0.54272
    outer loop
      vertex -1.48969 -4.76951 -0.617822
      vertex -0.888423 -2.73429 -3.9
      vertex -1.54508 -4.75528 -0.617822
    endloop
  endfacet
  facet normal 0.105256 0.833294 0.542718
    outer loop
      vertex -0.538721 -2.82408 -3.9
      vertex -0.936906 -4.91144 -0.617822
      vertex -0.370697 -4.98296 -0.617822
    endloop
  endfacet
  facet normal 0.10529 0.83329 0.542716
    outer loop
      vertex -0.180522 -2.86933 -3.9
      vertex -0.370697 -4.98296 -0.617822
      vertex -0.313952 -4.99013 -0.617822
    endloop
  endfacet
  facet normal 0.105267 0.833293 0.542717
    outer loop
      vertex -0.370697 -4.98296 -0.617822
      vertex -0.180522 -2.86933 -3.9
      vertex -0.538721 -2.82408 -3.9
    endloop
  endfacet
  facet normal 0.49369 -0.679505 0.542718
    outer loop
      vertex -1.5405 2.42744 -3.9
      vertex -2.67913 4.22164 -0.617822
      vertex -3.14085 3.88618 -0.617822
    endloop
  endfacet
  facet normal 0.3092 -0.780931 0.542717
    outer loop
      vertex -1.59826 4.73423 -0.617822
      vertex -2.1289 4.52413 -0.617822
      vertex -1.22412 2.60138 -3.9
    endloop
  endfacet
  facet normal 0.493622 -0.679556 0.542716
    outer loop
      vertex -1.83259 2.21523 -3.9
      vertex -3.14085 3.88618 -0.617822
      vertex -3.18712 3.85257 -0.617822
    endloop
  endfacet
  facet normal 0.493681 -0.679512 0.542717
    outer loop
      vertex -3.14085 3.88618 -0.617822
      vertex -1.83259 2.21523 -3.9
      vertex -1.5405 2.42744 -3.9
    endloop
  endfacet
  facet normal 0.759977 -0.35762 0.542718
    outer loop
      vertex -2.51938 1.38504 -3.9
      vertex -4.38153 2.40877 -0.617822
      vertex -4.62453 1.89237 -0.617823
    endloop
  endfacet
  facet normal 0.709162 -0.450052 0.542718
    outer loop
      vertex -4.07573 2.89063 -0.617821
      vertex -4.38153 2.40877 -0.617822
      vertex -2.51938 1.38504 -3.9
    endloop
  endfacet
  facet normal 0.838257 -0.0527449 0.542718
    outer loop
      vertex -2.875 0 -3.9
      vertex -4.96416 0.569583 -0.617822
      vertex -5 0 -0.617821
    endloop
  endfacet
  facet normal 0.83826 -0.0527189 0.542717
    outer loop
      vertex -4.96416 0.569583 -0.617822
      vertex -2.85233 0.360332 -3.9
      vertex -4.96057 0.626666 -0.617822
    endloop
  endfacet
  facet normal 0.838258 -0.0527383 0.542717
    outer loop
      vertex -2.85233 0.360332 -3.9
      vertex -4.96416 0.569583 -0.617822
      vertex -2.875 0 -3.9
    endloop
  endfacet
  facet normal -0.3092 -0.780931 0.542717
    outer loop
      vertex 2.1289 4.52413 -0.617822
      vertex 1.59826 4.73423 -0.617822
      vertex 1.22412 2.60138 -3.9
    endloop
  endfacet
  facet normal -0.208877 -0.813528 0.542718
    outer loop
      vertex 1.48969 4.76951 -0.617822
      vertex 0.936906 4.91144 -0.617822
      vertex 0.538721 2.82408 -3.9
    endloop
  endfacet
  facet normal -0.825038 -0.157385 0.542718
    outer loop
      vertex 4.94986 0.682848 -0.617822
      vertex 4.84292 1.24345 -0.617821
      vertex 2.78468 0.714983 -3.9
    endloop
  endfacet
  facet normal -0.825051 -0.15728 0.542728
    outer loop
      vertex 4.96057 0.626666 -0.617822
      vertex 4.94986 0.682848 -0.617822
      vertex 2.78468 0.714983 -3.9
    endloop
  endfacet
  facet normal -0.982311 -0.187258 0
    outer loop
      vertex 4.94986 0.682848 -0.617822
      vertex 4.96057 0.626666 -0.617822
      vertex 4.96057 0.626666 -0.617821
    endloop
  endfacet
  facet normal -0.825039 -0.157377 0.542718
    outer loop
      vertex 4.96057 0.626666 -0.617822
      vertex 2.78468 0.714983 -3.9
      vertex 2.85233 0.360332 -3.9
    endloop
  endfacet
  facet normal -0.574971 -0.612262 0.542719
    outer loop
      vertex 2.09578 1.96807 -3.9
      vertex 3.60315 3.46189 -0.617821
      vertex 1.83259 2.21523 -3.9
    endloop
  endfacet
  facet normal -0.574965 -0.612268 0.542719
    outer loop
      vertex 3.60315 3.46189 -0.617821
      vertex 2.09578 1.96807 -3.9
      vertex 3.64484 3.42274 -0.617821
    endloop
  endfacet
  facet normal -0.574963 -0.612269 0.542718
    outer loop
      vertex 3.60315 3.46189 -0.617821
      vertex 3.18712 3.85257 -0.617822
      vertex 1.83259 2.21523 -3.9
    endloop
  endfacet
  facet normal -0.647217 -0.535309 0.542728
    outer loop
      vertex 2.09578 1.96807 -3.9
      vertex 4.04508 2.93893 -0.617821
      vertex 4.00863 2.983 -0.617821
    endloop
  endfacet
  facet normal -0.647164 -0.535383 0.542718
    outer loop
      vertex 4.04508 2.93893 -0.617821
      vertex 2.09578 1.96807 -3.9
      vertex 2.32592 1.68988 -3.9
    endloop
  endfacet
  facet normal -0.709178 -0.450027 0.542718
    outer loop
      vertex 2.32592 1.68988 -3.9
      vertex 4.07573 2.89063 -0.617821
      vertex 4.04508 2.93893 -0.617821
    endloop
  endfacet
  facet normal -0.709161 -0.450053 0.542718
    outer loop
      vertex 4.07573 2.89063 -0.617821
      vertex 2.32592 1.68988 -3.9
      vertex 2.51938 1.38504 -3.9
    endloop
  endfacet
  facet normal 0.309123 -0.780957 0.542725
    outer loop
      vertex -1.22412 2.60138 -3.9
      vertex -1.54508 4.75528 -0.617822
      vertex -1.59826 4.73423 -0.617822
    endloop
  endfacet
  facet normal 0.30919 -0.780935 0.542717
    outer loop
      vertex -1.54508 4.75528 -0.617822
      vertex -1.22412 2.60138 -3.9
      vertex -0.888423 2.73429 -3.9
    endloop
  endfacet
  facet normal 0.208992 -0.813497 0.54272
    outer loop
      vertex -0.888423 2.73429 -3.9
      vertex -1.48969 4.76951 -0.617822
      vertex -1.54508 4.75528 -0.617822
    endloop
  endfacet
  facet normal 0.208882 -0.813526 0.542719
    outer loop
      vertex -1.48969 4.76951 -0.617822
      vertex -0.888423 2.73429 -3.9
      vertex -0.538721 2.82408 -3.9
    endloop
  endfacet
  facet normal 0.647217 -0.535309 0.542728
    outer loop
      vertex -4.04508 2.93893 -0.617821
      vertex -2.09578 1.96807 -3.9
      vertex -4.00863 2.983 -0.617821
    endloop
  endfacet
  facet normal 0.647164 -0.535383 0.542718
    outer loop
      vertex -2.09578 1.96807 -3.9
      vertex -4.04508 2.93893 -0.617821
      vertex -2.32592 1.68988 -3.9
    endloop
  endfacet
  facet normal 0.951017 -0.309137 0
    outer loop
      vertex -4.66656 1.78623 -0.617823
      vertex -4.64888 1.84062 -0.617823
      vertex -4.64888 1.84062 -0.617822
    endloop
  endfacet
  facet normal 0.798772 -0.259649 0.54272
    outer loop
      vertex -4.66656 1.78623 -0.617823
      vertex -2.67311 1.05836 -3.9
      vertex -4.64888 1.84062 -0.617823
    endloop
  endfacet
  facet normal 0.798806 -0.259548 0.542718
    outer loop
      vertex -2.67311 1.05836 -3.9
      vertex -4.66656 1.78623 -0.617823
      vertex -2.78468 0.714983 -3.9
    endloop
  endfacet
  facet normal 0.838258 0.0527383 0.542717
    outer loop
      vertex -4.96416 -0.569583 -0.617822
      vertex -2.85233 -0.360332 -3.9
      vertex -2.875 0 -3.9
    endloop
  endfacet
  facet normal 0.83826 0.0527189 0.542717
    outer loop
      vertex -2.85233 -0.360332 -3.9
      vertex -4.96416 -0.569583 -0.617822
      vertex -4.96057 -0.626666 -0.617822
    endloop
  endfacet
  facet normal -0.30919 -0.780935 0.542717
    outer loop
      vertex 1.22412 2.60138 -3.9
      vertex 1.54508 4.75528 -0.617822
      vertex 0.888423 2.73429 -3.9
    endloop
  endfacet
  facet normal -0.309123 -0.780957 0.542725
    outer loop
      vertex 1.54508 4.75528 -0.617822
      vertex 1.22412 2.60138 -3.9
      vertex 1.59826 4.73423 -0.617822
    endloop
  endfacet
  facet normal -0.49369 -0.679505 0.542718
    outer loop
      vertex 2.67913 4.22164 -0.617822
      vertex 1.5405 2.42744 -3.9
      vertex 3.14085 3.88618 -0.617822
    endloop
  endfacet
  facet normal -0.951017 -0.309137 0
    outer loop
      vertex 4.64888 1.84062 -0.617823
      vertex 4.66656 1.78623 -0.617823
      vertex 4.64888 1.84062 -0.617822
    endloop
  endfacet
  facet normal -0.798772 -0.259649 0.54272
    outer loop
      vertex 2.67311 1.05836 -3.9
      vertex 4.66656 1.78623 -0.617823
      vertex 4.64888 1.84062 -0.617823
    endloop
  endfacet
  facet normal -0.798806 -0.259548 0.542718
    outer loop
      vertex 4.66656 1.78623 -0.617823
      vertex 2.67311 1.05836 -3.9
      vertex 2.78468 0.714983 -3.9
    endloop
  endfacet
  facet normal -0.798807 -0.259546 0.542718
    outer loop
      vertex 2.78468 0.714983 -3.9
      vertex 4.84292 1.24345 -0.617821
      vertex 4.66656 1.78623 -0.617823
    endloop
  endfacet
  facet normal -0.404635 -0.736022 0.542717
    outer loop
      vertex 2.62901 4.24919 -0.617822
      vertex 2.1289 4.52413 -0.617822
      vertex 1.22412 2.60138 -3.9
    endloop
  endfacet
  facet normal -0.404648 -0.736015 0.542718
    outer loop
      vertex 1.5405 2.42744 -3.9
      vertex 2.62901 4.24919 -0.617822
      vertex 1.22412 2.60138 -3.9
    endloop
  endfacet
  facet normal -0.404591 -0.736047 0.542717
    outer loop
      vertex 2.62901 4.24919 -0.617822
      vertex 1.5405 2.42744 -3.9
      vertex 2.67913 4.22164 -0.617822
    endloop
  endfacet
  facet normal 0.951056 -0.309017 0
    outer loop
      vertex -2.78468 0.714983 -3.9
      vertex -2.67311 1.05836 -15
      vertex -2.67311 1.05836 -3.9
    endloop
  endfacet
  facet normal 0.951056 -0.309017 0
    outer loop
      vertex -2.67311 1.05836 -15
      vertex -2.78468 0.714983 -3.9
      vertex -2.78468 0.714983 -15
    endloop
  endfacet
  facet normal -0.844325 -0.535832 0
    outer loop
      vertex 2.51938 1.38504 -15
      vertex 2.32592 1.68988 -3.9
      vertex 2.32592 1.68988 -15
    endloop
  endfacet
  facet normal -0.844325 -0.535832 0
    outer loop
      vertex 2.32592 1.68988 -3.9
      vertex 2.51938 1.38504 -15
      vertex 2.51938 1.38504 -3.9
    endloop
  endfacet
  facet normal -0.36812 -0.929778 0
    outer loop
      vertex 0.888423 2.73429 -15
      vertex 1.22412 2.60138 -3.9
      vertex 0.888423 2.73429 -3.9
    endloop
  endfacet
  facet normal -0.36812 -0.929778 -0
    outer loop
      vertex 1.22412 2.60138 -3.9
      vertex 0.888423 2.73429 -15
      vertex 1.22412 2.60138 -15
    endloop
  endfacet
  facet normal 0.36812 -0.929778 0
    outer loop
      vertex -1.22412 2.60138 -15
      vertex -0.888423 2.73429 -3.9
      vertex -1.22412 2.60138 -3.9
    endloop
  endfacet
  facet normal 0.36812 -0.929778 0
    outer loop
      vertex -0.888423 2.73429 -3.9
      vertex -1.22412 2.60138 -15
      vertex -0.888423 2.73429 -15
    endloop
  endfacet
  facet normal 0.904821 -0.425793 0
    outer loop
      vertex -2.67311 1.05836 -3.9
      vertex -2.51938 1.38504 -15
      vertex -2.51938 1.38504 -3.9
    endloop
  endfacet
  facet normal 0.904821 -0.425793 0
    outer loop
      vertex -2.51938 1.38504 -15
      vertex -2.67311 1.05836 -3.9
      vertex -2.67311 1.05836 -15
    endloop
  endfacet
  facet normal -0.982289 0.187373 0
    outer loop
      vertex 2.78468 -0.714983 -15
      vertex 2.85233 -0.360332 -3.9
      vertex 2.85233 -0.360332 -15
    endloop
  endfacet
  facet normal -0.982289 0.187373 0
    outer loop
      vertex 2.85233 -0.360332 -3.9
      vertex 2.78468 -0.714983 -15
      vertex 2.78468 -0.714983 -3.9
    endloop
  endfacet
  facet normal -0.982289 -0.187373 0
    outer loop
      vertex 2.85233 0.360332 -15
      vertex 2.78468 0.714983 -3.9
      vertex 2.78468 0.714983 -15
    endloop
  endfacet
  facet normal -0.982289 -0.187373 0
    outer loop
      vertex 2.78468 0.714983 -3.9
      vertex 2.85233 0.360332 -15
      vertex 2.85233 0.360332 -3.9
    endloop
  endfacet
  facet normal -0.684559 -0.728957 0
    outer loop
      vertex 1.83259 2.21523 -15
      vertex 2.09578 1.96807 -3.9
      vertex 1.83259 2.21523 -3.9
    endloop
  endfacet
  facet normal -0.684559 -0.728957 -0
    outer loop
      vertex 2.09578 1.96807 -3.9
      vertex 1.83259 2.21523 -15
      vertex 2.09578 1.96807 -15
    endloop
  endfacet
  facet normal -0.481772 -0.876297 0
    outer loop
      vertex 1.22412 2.60138 -15
      vertex 1.5405 2.42744 -3.9
      vertex 1.22412 2.60138 -3.9
    endloop
  endfacet
  facet normal -0.481772 -0.876297 -0
    outer loop
      vertex 1.5405 2.42744 -3.9
      vertex 1.22412 2.60138 -15
      vertex 1.5405 2.42744 -15
    endloop
  endfacet
  facet normal 0.770512 -0.637426 0
    outer loop
      vertex -2.32592 1.68988 -3.9
      vertex -2.09578 1.96807 -15
      vertex -2.09578 1.96807 -3.9
    endloop
  endfacet
  facet normal 0.770512 -0.637426 0
    outer loop
      vertex -2.09578 1.96807 -15
      vertex -2.32592 1.68988 -3.9
      vertex -2.32592 1.68988 -15
    endloop
  endfacet
  facet normal 0.12533 -0.992115 0
    outer loop
      vertex -0.538721 2.82408 -15
      vertex -0.180522 2.86933 -3.9
      vertex -0.538721 2.82408 -3.9
    endloop
  endfacet
  facet normal 0.12533 -0.992115 0
    outer loop
      vertex -0.180522 2.86933 -3.9
      vertex -0.538721 2.82408 -15
      vertex -0.180522 2.86933 -15
    endloop
  endfacet
  facet normal 0.684559 -0.728957 0
    outer loop
      vertex -2.09578 1.96807 -15
      vertex -1.83259 2.21523 -3.9
      vertex -2.09578 1.96807 -3.9
    endloop
  endfacet
  facet normal 0.684559 -0.728957 0
    outer loop
      vertex -1.83259 2.21523 -3.9
      vertex -2.09578 1.96807 -15
      vertex -1.83259 2.21523 -15
    endloop
  endfacet
  facet normal -0.998027 -0.0627901 0
    outer loop
      vertex 2.875 0 -15
      vertex 2.85233 0.360332 -3.9
      vertex 2.85233 0.360332 -15
    endloop
  endfacet
  facet normal -0.998027 -0.0627901 0
    outer loop
      vertex 2.85233 0.360332 -3.9
      vertex 2.875 0 -15
      vertex 2.875 0 -3.9
    endloop
  endfacet
  facet normal -0.481772 0.876297 0
    outer loop
      vertex 1.5405 -2.42744 -15
      vertex 1.22412 -2.60138 -3.9
      vertex 1.5405 -2.42744 -3.9
    endloop
  endfacet
  facet normal -0.481772 0.876297 0
    outer loop
      vertex 1.22412 -2.60138 -3.9
      vertex 1.5405 -2.42744 -15
      vertex 1.22412 -2.60138 -15
    endloop
  endfacet
  facet normal -0.770512 -0.637426 0
    outer loop
      vertex 2.32592 1.68988 -15
      vertex 2.09578 1.96807 -3.9
      vertex 2.09578 1.96807 -15
    endloop
  endfacet
  facet normal -0.770512 -0.637426 0
    outer loop
      vertex 2.09578 1.96807 -3.9
      vertex 2.32592 1.68988 -15
      vertex 2.32592 1.68988 -3.9
    endloop
  endfacet
  facet normal 0 -1 0
    outer loop
      vertex -0.180522 2.86933 -15
      vertex 0.180522 2.86933 -3.9
      vertex -0.180522 2.86933 -3.9
    endloop
  endfacet
  facet normal 0 -1 -0
    outer loop
      vertex 0.180522 2.86933 -3.9
      vertex -0.180522 2.86933 -15
      vertex 0.180522 2.86933 -15
    endloop
  endfacet
  facet normal -0.248695 -0.968582 0
    outer loop
      vertex 0.538721 2.82408 -15
      vertex 0.888423 2.73429 -3.9
      vertex 0.538721 2.82408 -3.9
    endloop
  endfacet
  facet normal -0.248695 -0.968582 -0
    outer loop
      vertex 0.888423 2.73429 -3.9
      vertex 0.538721 2.82408 -15
      vertex 0.888423 2.73429 -15
    endloop
  endfacet
  facet normal -0.587775 -0.809025 0
    outer loop
      vertex 1.5405 2.42744 -15
      vertex 1.83259 2.21523 -3.9
      vertex 1.5405 2.42744 -3.9
    endloop
  endfacet
  facet normal -0.587775 -0.809025 -0
    outer loop
      vertex 1.83259 2.21523 -3.9
      vertex 1.5405 2.42744 -15
      vertex 1.83259 2.21523 -15
    endloop
  endfacet
  facet normal 0.998027 -0.0627901 0
    outer loop
      vertex -2.875 0 -3.9
      vertex -2.85233 0.360332 -15
      vertex -2.85233 0.360332 -3.9
    endloop
  endfacet
  facet normal 0.998027 -0.0627901 0
    outer loop
      vertex -2.85233 0.360332 -15
      vertex -2.875 0 -3.9
      vertex -2.875 0 -15
    endloop
  endfacet
  facet normal 0.844325 -0.535832 0
    outer loop
      vertex -2.51938 1.38504 -3.9
      vertex -2.32592 1.68988 -15
      vertex -2.32592 1.68988 -3.9
    endloop
  endfacet
  facet normal 0.844325 -0.535832 0
    outer loop
      vertex -2.32592 1.68988 -15
      vertex -2.51938 1.38504 -3.9
      vertex -2.51938 1.38504 -15
    endloop
  endfacet
  facet normal 0.248695 -0.968582 0
    outer loop
      vertex -0.888423 2.73429 -15
      vertex -0.538721 2.82408 -3.9
      vertex -0.888423 2.73429 -3.9
    endloop
  endfacet
  facet normal 0.248695 -0.968582 0
    outer loop
      vertex -0.538721 2.82408 -3.9
      vertex -0.888423 2.73429 -15
      vertex -0.538721 2.82408 -15
    endloop
  endfacet
  facet normal 0.587775 -0.809025 0
    outer loop
      vertex -1.83259 2.21523 -15
      vertex -1.5405 2.42744 -3.9
      vertex -1.83259 2.21523 -3.9
    endloop
  endfacet
  facet normal 0.587775 -0.809025 0
    outer loop
      vertex -1.5405 2.42744 -3.9
      vertex -1.83259 2.21523 -15
      vertex -1.5405 2.42744 -15
    endloop
  endfacet
  facet normal 0.481772 -0.876297 0
    outer loop
      vertex -1.5405 2.42744 -15
      vertex -1.22412 2.60138 -3.9
      vertex -1.5405 2.42744 -3.9
    endloop
  endfacet
  facet normal 0.481772 -0.876297 0
    outer loop
      vertex -1.22412 2.60138 -3.9
      vertex -1.5405 2.42744 -15
      vertex -1.22412 2.60138 -15
    endloop
  endfacet
  facet normal -0.998027 0.0627901 0
    outer loop
      vertex 2.85233 -0.360332 -15
      vertex 2.875 0 -3.9
      vertex 2.875 0 -15
    endloop
  endfacet
  facet normal -0.998027 0.0627901 0
    outer loop
      vertex 2.875 0 -3.9
      vertex 2.85233 -0.360332 -15
      vertex 2.85233 -0.360332 -3.9
    endloop
  endfacet
  facet normal 0.844325 0.535832 0
    outer loop
      vertex -2.32592 -1.68988 -3.9
      vertex -2.51938 -1.38504 -15
      vertex -2.51938 -1.38504 -3.9
    endloop
  endfacet
  facet normal 0.844325 0.535832 0
    outer loop
      vertex -2.51938 -1.38504 -15
      vertex -2.32592 -1.68988 -3.9
      vertex -2.32592 -1.68988 -15
    endloop
  endfacet
  facet normal -0.12533 0.992115 0
    outer loop
      vertex 0.538721 -2.82408 -15
      vertex 0.180522 -2.86933 -3.9
      vertex 0.538721 -2.82408 -3.9
    endloop
  endfacet
  facet normal -0.12533 0.992115 0
    outer loop
      vertex 0.180522 -2.86933 -3.9
      vertex 0.538721 -2.82408 -15
      vertex 0.180522 -2.86933 -15
    endloop
  endfacet
  facet normal -0.36812 0.929778 0
    outer loop
      vertex 1.22412 -2.60138 -15
      vertex 0.888423 -2.73429 -3.9
      vertex 1.22412 -2.60138 -3.9
    endloop
  endfacet
  facet normal -0.36812 0.929778 0
    outer loop
      vertex 0.888423 -2.73429 -3.9
      vertex 1.22412 -2.60138 -15
      vertex 0.888423 -2.73429 -15
    endloop
  endfacet
  facet normal -0.904821 -0.425793 0
    outer loop
      vertex 2.67311 1.05836 -15
      vertex 2.51938 1.38504 -3.9
      vertex 2.51938 1.38504 -15
    endloop
  endfacet
  facet normal -0.904821 -0.425793 0
    outer loop
      vertex 2.51938 1.38504 -3.9
      vertex 2.67311 1.05836 -15
      vertex 2.67311 1.05836 -3.9
    endloop
  endfacet
  facet normal -0.951056 -0.309017 0
    outer loop
      vertex 2.78468 0.714983 -15
      vertex 2.67311 1.05836 -3.9
      vertex 2.67311 1.05836 -15
    endloop
  endfacet
  facet normal -0.951056 -0.309017 0
    outer loop
      vertex 2.67311 1.05836 -3.9
      vertex 2.78468 0.714983 -15
      vertex 2.78468 0.714983 -3.9
    endloop
  endfacet
  facet normal -0.12533 -0.992115 0
    outer loop
      vertex 0.180522 2.86933 -15
      vertex 0.538721 2.82408 -3.9
      vertex 0.180522 2.86933 -3.9
    endloop
  endfacet
  facet normal -0.12533 -0.992115 -0
    outer loop
      vertex 0.538721 2.82408 -3.9
      vertex 0.180522 2.86933 -15
      vertex 0.538721 2.82408 -15
    endloop
  endfacet
  facet normal 0.982289 -0.187373 0
    outer loop
      vertex -2.85233 0.360332 -3.9
      vertex -2.78468 0.714983 -15
      vertex -2.78468 0.714983 -3.9
    endloop
  endfacet
  facet normal 0.982289 -0.187373 0
    outer loop
      vertex -2.78468 0.714983 -15
      vertex -2.85233 0.360332 -3.9
      vertex -2.85233 0.360332 -15
    endloop
  endfacet
  facet normal -0.904821 0.425793 0
    outer loop
      vertex 2.51938 -1.38504 -15
      vertex 2.67311 -1.05836 -3.9
      vertex 2.67311 -1.05836 -15
    endloop
  endfacet
  facet normal -0.904821 0.425793 0
    outer loop
      vertex 2.67311 -1.05836 -3.9
      vertex 2.51938 -1.38504 -15
      vertex 2.51938 -1.38504 -3.9
    endloop
  endfacet
  facet normal -0.951056 0.309017 0
    outer loop
      vertex 2.67311 -1.05836 -15
      vertex 2.78468 -0.714983 -3.9
      vertex 2.78468 -0.714983 -15
    endloop
  endfacet
  facet normal -0.951056 0.309017 0
    outer loop
      vertex 2.78468 -0.714983 -3.9
      vertex 2.67311 -1.05836 -15
      vertex 2.67311 -1.05836 -3.9
    endloop
  endfacet
  facet normal -0.684559 0.728957 0
    outer loop
      vertex 2.09578 -1.96807 -15
      vertex 1.83259 -2.21523 -3.9
      vertex 2.09578 -1.96807 -3.9
    endloop
  endfacet
  facet normal -0.684559 0.728957 0
    outer loop
      vertex 1.83259 -2.21523 -3.9
      vertex 2.09578 -1.96807 -15
      vertex 1.83259 -2.21523 -15
    endloop
  endfacet
  facet normal -0.770512 0.637426 0
    outer loop
      vertex 2.09578 -1.96807 -15
      vertex 2.32592 -1.68988 -3.9
      vertex 2.32592 -1.68988 -15
    endloop
  endfacet
  facet normal -0.770512 0.637426 0
    outer loop
      vertex 2.32592 -1.68988 -3.9
      vertex 2.09578 -1.96807 -15
      vertex 2.09578 -1.96807 -3.9
    endloop
  endfacet
  facet normal 0.248695 0.968582 -0
    outer loop
      vertex -0.538721 -2.82408 -15
      vertex -0.888423 -2.73429 -3.9
      vertex -0.538721 -2.82408 -3.9
    endloop
  endfacet
  facet normal 0.248695 0.968582 0
    outer loop
      vertex -0.888423 -2.73429 -3.9
      vertex -0.538721 -2.82408 -15
      vertex -0.888423 -2.73429 -15
    endloop
  endfacet
  facet normal 0.12533 0.992115 -0
    outer loop
      vertex -0.180522 -2.86933 -15
      vertex -0.538721 -2.82408 -3.9
      vertex -0.180522 -2.86933 -3.9
    endloop
  endfacet
  facet normal 0.12533 0.992115 0
    outer loop
      vertex -0.538721 -2.82408 -3.9
      vertex -0.180522 -2.86933 -15
      vertex -0.538721 -2.82408 -15
    endloop
  endfacet
  facet normal 0.998027 0.0627901 0
    outer loop
      vertex -2.85233 -0.360332 -3.9
      vertex -2.875 0 -15
      vertex -2.875 0 -3.9
    endloop
  endfacet
  facet normal 0.998027 0.0627901 0
    outer loop
      vertex -2.875 0 -15
      vertex -2.85233 -0.360332 -3.9
      vertex -2.85233 -0.360332 -15
    endloop
  endfacet
  facet normal 0.904821 0.425793 0
    outer loop
      vertex -2.51938 -1.38504 -3.9
      vertex -2.67311 -1.05836 -15
      vertex -2.67311 -1.05836 -3.9
    endloop
  endfacet
  facet normal 0.904821 0.425793 0
    outer loop
      vertex -2.67311 -1.05836 -15
      vertex -2.51938 -1.38504 -3.9
      vertex -2.51938 -1.38504 -15
    endloop
  endfacet
  facet normal 0.684559 0.728957 -0
    outer loop
      vertex -1.83259 -2.21523 -15
      vertex -2.09578 -1.96807 -3.9
      vertex -1.83259 -2.21523 -3.9
    endloop
  endfacet
  facet normal 0.684559 0.728957 0
    outer loop
      vertex -2.09578 -1.96807 -3.9
      vertex -1.83259 -2.21523 -15
      vertex -2.09578 -1.96807 -15
    endloop
  endfacet
  facet normal -0.248695 0.968582 0
    outer loop
      vertex 0.888423 -2.73429 -15
      vertex 0.538721 -2.82408 -3.9
      vertex 0.888423 -2.73429 -3.9
    endloop
  endfacet
  facet normal -0.248695 0.968582 0
    outer loop
      vertex 0.538721 -2.82408 -3.9
      vertex 0.888423 -2.73429 -15
      vertex 0.538721 -2.82408 -15
    endloop
  endfacet
  facet normal -0.587775 0.809025 0
    outer loop
      vertex 1.83259 -2.21523 -15
      vertex 1.5405 -2.42744 -3.9
      vertex 1.83259 -2.21523 -3.9
    endloop
  endfacet
  facet normal -0.587775 0.809025 0
    outer loop
      vertex 1.5405 -2.42744 -3.9
      vertex 1.83259 -2.21523 -15
      vertex 1.5405 -2.42744 -15
    endloop
  endfacet
  facet normal -0.844325 0.535832 0
    outer loop
      vertex 2.32592 -1.68988 -15
      vertex 2.51938 -1.38504 -3.9
      vertex 2.51938 -1.38504 -15
    endloop
  endfacet
  facet normal -0.844325 0.535832 0
    outer loop
      vertex 2.51938 -1.38504 -3.9
      vertex 2.32592 -1.68988 -15
      vertex 2.32592 -1.68988 -3.9
    endloop
  endfacet
  facet normal 0.36812 0.929778 -0
    outer loop
      vertex -0.888423 -2.73429 -15
      vertex -1.22412 -2.60138 -3.9
      vertex -0.888423 -2.73429 -3.9
    endloop
  endfacet
  facet normal 0.36812 0.929778 0
    outer loop
      vertex -1.22412 -2.60138 -3.9
      vertex -0.888423 -2.73429 -15
      vertex -1.22412 -2.60138 -15
    endloop
  endfacet
  facet normal 0 1 -0
    outer loop
      vertex 0.180522 -2.86933 -15
      vertex -0.180522 -2.86933 -3.9
      vertex 0.180522 -2.86933 -3.9
    endloop
  endfacet
  facet normal 0 1 0
    outer loop
      vertex -0.180522 -2.86933 -3.9
      vertex 0.180522 -2.86933 -15
      vertex -0.180522 -2.86933 -15
    endloop
  endfacet
  facet normal 0.587775 0.809025 -0
    outer loop
      vertex -1.5405 -2.42744 -15
      vertex -1.83259 -2.21523 -3.9
      vertex -1.5405 -2.42744 -3.9
    endloop
  endfacet
  facet normal 0.587775 0.809025 0
    outer loop
      vertex -1.83259 -2.21523 -3.9
      vertex -1.5405 -2.42744 -15
      vertex -1.83259 -2.21523 -15
    endloop
  endfacet
  facet normal 0.481772 0.876297 -0
    outer loop
      vertex -1.22412 -2.60138 -15
      vertex -1.5405 -2.42744 -3.9
      vertex -1.22412 -2.60138 -3.9
    endloop
  endfacet
  facet normal 0.481772 0.876297 0
    outer loop
      vertex -1.5405 -2.42744 -3.9
      vertex -1.22412 -2.60138 -15
      vertex -1.5405 -2.42744 -15
    endloop
  endfacet
  facet normal 0.951056 0.309017 0
    outer loop
      vertex -2.67311 -1.05836 -3.9
      vertex -2.78468 -0.714983 -15
      vertex -2.78468 -0.714983 -3.9
    endloop
  endfacet
  facet normal 0.951056 0.309017 0
    outer loop
      vertex -2.78468 -0.714983 -15
      vertex -2.67311 -1.05836 -3.9
      vertex -2.67311 -1.05836 -15
    endloop
  endfacet
  facet normal 0.982289 0.187373 0
    outer loop
      vertex -2.78468 -0.714983 -3.9
      vertex -2.85233 -0.360332 -15
      vertex -2.85233 -0.360332 -3.9
    endloop
  endfacet
  facet normal 0.982289 0.187373 0
    outer loop
      vertex -2.85233 -0.360332 -15
      vertex -2.78468 -0.714983 -3.9
      vertex -2.78468 -0.714983 -15
    endloop
  endfacet
  facet normal 0.770512 0.637426 0
    outer loop
      vertex -2.09578 -1.96807 -3.9
      vertex -2.32592 -1.68988 -15
      vertex -2.32592 -1.68988 -3.9
    endloop
  endfacet
  facet normal 0.770512 0.637426 0
    outer loop
      vertex -2.32592 -1.68988 -15
      vertex -2.09578 -1.96807 -3.9
      vertex -2.09578 -1.96807 -15
    endloop
  endfacet
  facet normal 0 -0 0
    outer loop
      vertex 4.96057 0.626666 -0.617822
      vertex 4.96057 0.626666 -15
      vertex 4.96057 0.626666 -0.617821
    endloop
  endfacet
  facet normal 0.998028 0.0627669 0
    outer loop
      vertex 4.96416 0.569583 -0.617822
      vertex 4.96057 0.626666 -15
      vertex 4.96057 0.626666 -0.617822
    endloop
  endfacet
  facet normal 0.998026 0.062799 1.28136e-07
    outer loop
      vertex 5 0 -0.617821
      vertex 4.96057 0.626666 -15
      vertex 4.96416 0.569583 -0.617822
    endloop
  endfacet
  facet normal 0.998026 0.0627961 0
    outer loop
      vertex 4.96057 0.626666 -15
      vertex 5 0 -0.617821
      vertex 5 0 -15
    endloop
  endfacet
  facet normal 0 0 0
    outer loop
      vertex -4.96057 0.626666 -15
      vertex -4.96057 0.626666 -0.617822
      vertex -4.96057 0.626666 -0.617821
    endloop
  endfacet
  facet normal -0.998028 0.0627669 0
    outer loop
      vertex -4.96057 0.626666 -15
      vertex -4.96416 0.569583 -0.617822
      vertex -4.96057 0.626666 -0.617822
    endloop
  endfacet
  facet normal -0.998026 0.0627961 1.16465e-07
    outer loop
      vertex -5 0 -15
      vertex -4.96416 0.569583 -0.617822
      vertex -4.96057 0.626666 -15
    endloop
  endfacet
  facet normal -0.998026 0.062799 0
    outer loop
      vertex -4.96416 0.569583 -0.617822
      vertex -5 0 -15
      vertex -5 0 -0.617821
    endloop
  endfacet
  facet normal 0 1 0
    outer loop
      vertex 0.313952 4.99013 -0.617822
      vertex 0.313952 4.99013 -15
      vertex -0.313952 4.99013 -0.617822
    endloop
  endfacet
  facet normal 0 1 0
    outer loop
      vertex -0.313952 4.99013 -15
      vertex -0.313952 4.99013 -0.617822
      vertex 0.313952 4.99013 -15
    endloop
  endfacet
  facet normal 0 -1 0
    outer loop
      vertex -0.313952 -4.99013 -0.617822
      vertex -0.313952 -4.99013 -15
      vertex 0.313952 -4.99013 -0.617822
    endloop
  endfacet
  facet normal 0 -1 0
    outer loop
      vertex 0.313952 -4.99013 -15
      vertex 0.313952 -4.99013 -0.617822
      vertex -0.313952 -4.99013 -15
    endloop
  endfacet
  facet normal 0.684552 0.728964 -0
    outer loop
      vertex 3.64484 3.42274 -15
      vertex 3.60315 3.46189 -0.617821
      vertex 3.64484 3.42274 -0.617821
    endloop
  endfacet
  facet normal 0.684549 0.728967 -1.52655e-08
    outer loop
      vertex 3.64484 3.42274 -15
      vertex 3.18712 3.85257 -0.617822
      vertex 3.60315 3.46189 -0.617821
    endloop
  endfacet
  facet normal 0.684549 0.728967 0
    outer loop
      vertex 3.18712 3.85257 -0.617822
      vertex 3.64484 3.42274 -15
      vertex 3.18712 3.85257 -15
    endloop
  endfacet
  facet normal -0.684549 0.728967 0
    outer loop
      vertex -3.18712 3.85257 -15
      vertex -3.60315 3.46189 -0.617821
      vertex -3.18712 3.85257 -0.617822
    endloop
  endfacet
  facet normal -0.684549 0.728967 -1.3875e-08
    outer loop
      vertex -3.64484 3.42274 -15
      vertex -3.60315 3.46189 -0.617821
      vertex -3.18712 3.85257 -15
    endloop
  endfacet
  facet normal -0.684552 0.728964 0
    outer loop
      vertex -3.60315 3.46189 -0.617821
      vertex -3.64484 3.42274 -15
      vertex -3.64484 3.42274 -0.617821
    endloop
  endfacet
  facet normal -0.368042 0.929809 0
    outer loop
      vertex -1.54508 4.75528 -15
      vertex -1.59826 4.73423 -0.617822
      vertex -1.54508 4.75528 -0.617822
    endloop
  endfacet
  facet normal -0.368132 0.929774 -3.83276e-07
    outer loop
      vertex -1.54508 4.75528 -15
      vertex -2.1289 4.52413 -0.617822
      vertex -1.59826 4.73423 -0.617822
    endloop
  endfacet
  facet normal -0.368124 0.929777 0
    outer loop
      vertex -2.1289 4.52413 -0.617822
      vertex -1.54508 4.75528 -15
      vertex -2.1289 4.52413 -15
    endloop
  endfacet
  facet normal 0.904827 0.42578 0
    outer loop
      vertex 4.62453 1.89237 -0.617823
      vertex 4.38153 2.40877 -15
      vertex 4.38153 2.40877 -0.617822
    endloop
  endfacet
  facet normal 0.904839 0.425755 -0
    outer loop
      vertex 4.64888 1.84062 -15
      vertex 4.62453 1.89237 -0.617823
      vertex 4.64888 1.84062 -0.617823
    endloop
  endfacet
  facet normal 0 0 0
    outer loop
      vertex 4.64888 1.84062 -15
      vertex 4.64888 1.84062 -0.617823
      vertex 4.64888 1.84062 -0.617822
    endloop
  endfacet
  facet normal 0.904828 0.425778 -1.00767e-07
    outer loop
      vertex 4.62453 1.89237 -0.617823
      vertex 4.64888 1.84062 -15
      vertex 4.38153 2.40877 -15
    endloop
  endfacet
  facet normal 0.982287 0.18738 0
    outer loop
      vertex 4.94986 0.682848 -0.617822
      vertex 4.84292 1.24345 -15
      vertex 4.84292 1.24345 -0.617821
    endloop
  endfacet
  facet normal 0.982311 0.187258 -0
    outer loop
      vertex 4.96057 0.626666 -15
      vertex 4.94986 0.682848 -0.617822
      vertex 4.96057 0.626666 -0.617821
    endloop
  endfacet
  facet normal 0.98229 0.187369 -4.491e-07
    outer loop
      vertex 4.94986 0.682848 -0.617822
      vertex 4.96057 0.626666 -15
      vertex 4.84292 1.24345 -15
    endloop
  endfacet
  facet normal 0.368132 0.929774 -0
    outer loop
      vertex 2.1289 4.52413 -15
      vertex 1.59826 4.73423 -0.617822
      vertex 2.1289 4.52413 -0.617822
    endloop
  endfacet
  facet normal 0.368124 0.929777 -3.48364e-07
    outer loop
      vertex 1.54508 4.75528 -15
      vertex 1.59826 4.73423 -0.617822
      vertex 2.1289 4.52413 -15
    endloop
  endfacet
  facet normal 0.368042 0.929809 0
    outer loop
      vertex 1.59826 4.73423 -0.617822
      vertex 1.54508 4.75528 -15
      vertex 1.54508 4.75528 -0.617822
    endloop
  endfacet
  facet normal 0.248689 0.968584 -5.62081e-07
    outer loop
      vertex 1.48969 4.76951 -0.617822
      vertex 1.54508 4.75528 -15
      vertex 0.936906 4.91144 -0.617822
    endloop
  endfacet
  facet normal 0.248825 0.968548 -0
    outer loop
      vertex 1.54508 4.75528 -15
      vertex 1.48969 4.76951 -0.617822
      vertex 1.54508 4.75528 -0.617822
    endloop
  endfacet
  facet normal 0.248701 0.96858 -0
    outer loop
      vertex 0.936906 4.91144 -15
      vertex 0.936906 4.91144 -0.617822
      vertex 1.54508 4.75528 -15
    endloop
  endfacet
  facet normal 0.481704 0.876334 -0
    outer loop
      vertex 2.67913 4.22164 -15
      vertex 2.62901 4.24919 -0.617822
      vertex 2.67913 4.22164 -0.617822
    endloop
  endfacet
  facet normal 0.481757 0.876305 2.39073e-07
    outer loop
      vertex 2.62901 4.24919 -0.617822
      vertex 2.67913 4.22164 -15
      vertex 2.1289 4.52413 -0.617822
    endloop
  endfacet
  facet normal 0.481752 0.876308 -0
    outer loop
      vertex 2.1289 4.52413 -15
      vertex 2.1289 4.52413 -0.617822
      vertex 2.67913 4.22164 -15
    endloop
  endfacet
  facet normal -0.904827 0.42578 0
    outer loop
      vertex -4.38153 2.40877 -15
      vertex -4.62453 1.89237 -0.617823
      vertex -4.38153 2.40877 -0.617822
    endloop
  endfacet
  facet normal -0.904828 0.425778 -1.00767e-07
    outer loop
      vertex -4.64888 1.84062 -15
      vertex -4.62453 1.89237 -0.617823
      vertex -4.38153 2.40877 -15
    endloop
  endfacet
  facet normal -0.904839 0.425755 0
    outer loop
      vertex -4.62453 1.89237 -0.617823
      vertex -4.64888 1.84062 -15
      vertex -4.64888 1.84062 -0.617823
    endloop
  endfacet
  facet normal 0 -0 0
    outer loop
      vertex -4.64888 1.84062 -0.617823
      vertex -4.64888 1.84062 -15
      vertex -4.64888 1.84062 -0.617822
    endloop
  endfacet
  facet normal -0.770509 0.63743 0
    outer loop
      vertex -3.64484 3.42274 -15
      vertex -4.00863 2.983 -0.617821
      vertex -3.64484 3.42274 -0.617821
    endloop
  endfacet
  facet normal -0.770515 0.637422 -4.09971e-07
    outer loop
      vertex -4.04508 2.93893 -15
      vertex -4.00863 2.983 -0.617821
      vertex -3.64484 3.42274 -15
    endloop
  endfacet
  facet normal -0.770581 0.637342 0
    outer loop
      vertex -4.00863 2.983 -0.617821
      vertex -4.04508 2.93893 -15
      vertex -4.04508 2.93893 -0.617821
    endloop
  endfacet
  facet normal -0.951017 0.309137 0
    outer loop
      vertex -4.64888 1.84062 -15
      vertex -4.66656 1.78623 -0.617823
      vertex -4.64888 1.84062 -0.617822
    endloop
  endfacet
  facet normal -0.951053 0.309028 -4.57333e-07
    outer loop
      vertex -4.84292 1.24345 -15
      vertex -4.66656 1.78623 -0.617823
      vertex -4.64888 1.84062 -15
    endloop
  endfacet
  facet normal -0.951056 0.309017 0
    outer loop
      vertex -4.66656 1.78623 -0.617823
      vertex -4.84292 1.24345 -15
      vertex -4.84292 1.24345 -0.617821
    endloop
  endfacet
  facet normal -0.248689 0.968584 0
    outer loop
      vertex -0.936906 4.91144 -15
      vertex -1.48969 4.76951 -0.617822
      vertex -0.936906 4.91144 -0.617822
    endloop
  endfacet
  facet normal -0.248701 0.96858 -5.10887e-07
    outer loop
      vertex -1.54508 4.75528 -15
      vertex -1.48969 4.76951 -0.617822
      vertex -0.936906 4.91144 -15
    endloop
  endfacet
  facet normal -0.248825 0.968548 0
    outer loop
      vertex -1.48969 4.76951 -0.617822
      vertex -1.54508 4.75528 -15
      vertex -1.54508 4.75528 -0.617822
    endloop
  endfacet
  facet normal 0.125358 -0.992112 0
    outer loop
      vertex 0.313952 -4.99013 -0.617822
      vertex 0.313952 -4.99013 -15
      vertex 0.370697 -4.98296 -0.617822
    endloop
  endfacet
  facet normal 0.125318 -0.992117 1.60347e-07
    outer loop
      vertex 0.313952 -4.99013 -15
      vertex 0.936906 -4.91144 -0.617822
      vertex 0.370697 -4.98296 -0.617822
    endloop
  endfacet
  facet normal 0.125322 -0.992116 0
    outer loop
      vertex 0.936906 -4.91144 -0.617822
      vertex 0.313952 -4.99013 -15
      vertex 0.936906 -4.91144 -15
    endloop
  endfacet
  facet normal 0.951017 0.309137 0
    outer loop
      vertex 4.66656 1.78623 -0.617823
      vertex 4.64888 1.84062 -15
      vertex 4.64888 1.84062 -0.617822
    endloop
  endfacet
  facet normal 0.951056 0.309017 -5.03162e-07
    outer loop
      vertex 4.84292 1.24345 -0.617821
      vertex 4.64888 1.84062 -15
      vertex 4.66656 1.78623 -0.617823
    endloop
  endfacet
  facet normal 0.951053 0.309028 0
    outer loop
      vertex 4.64888 1.84062 -15
      vertex 4.84292 1.24345 -0.617821
      vertex 4.84292 1.24345 -15
    endloop
  endfacet
  facet normal 0.770509 0.63743 0
    outer loop
      vertex 4.00863 2.983 -0.617821
      vertex 3.64484 3.42274 -15
      vertex 3.64484 3.42274 -0.617821
    endloop
  endfacet
  facet normal 0.770581 0.637342 -0
    outer loop
      vertex 4.04508 2.93893 -15
      vertex 4.00863 2.983 -0.617821
      vertex 4.04508 2.93893 -0.617821
    endloop
  endfacet
  facet normal 0.770515 0.637422 -4.09971e-07
    outer loop
      vertex 4.00863 2.983 -0.617821
      vertex 4.04508 2.93893 -15
      vertex 3.64484 3.42274 -15
    endloop
  endfacet
  facet normal 0.844345 0.5358 0
    outer loop
      vertex 4.07573 2.89063 -0.617821
      vertex 4.04508 2.93893 -15
      vertex 4.04508 2.93893 -0.617821
    endloop
  endfacet
  facet normal 0.844326 0.53583 1.37793e-07
    outer loop
      vertex 4.38153 2.40877 -0.617822
      vertex 4.04508 2.93893 -15
      vertex 4.07573 2.89063 -0.617821
    endloop
  endfacet
  facet normal 0.844328 0.535827 0
    outer loop
      vertex 4.04508 2.93893 -15
      vertex 4.38153 2.40877 -0.617822
      vertex 4.38153 2.40877 -15
    endloop
  endfacet
  facet normal 0.125318 0.992117 0
    outer loop
      vertex 0.936906 4.91144 -0.617822
      vertex 0.936906 4.91144 -15
      vertex 0.370697 4.98296 -0.617822
    endloop
  endfacet
  facet normal 0.125322 0.992116 1.45741e-07
    outer loop
      vertex 0.313952 4.99013 -15
      vertex 0.370697 4.98296 -0.617822
      vertex 0.936906 4.91144 -15
    endloop
  endfacet
  facet normal 0.125358 0.992112 0
    outer loop
      vertex 0.370697 4.98296 -0.617822
      vertex 0.313952 4.99013 -15
      vertex 0.313952 4.99013 -0.617822
    endloop
  endfacet
  facet normal 0.587704 0.809076 0
    outer loop
      vertex 3.18712 3.85257 -0.617822
      vertex 3.18712 3.85257 -15
      vertex 3.14085 3.88618 -0.617822
    endloop
  endfacet
  facet normal 0.587786 0.809016 4.05084e-07
    outer loop
      vertex 3.18712 3.85257 -15
      vertex 2.67913 4.22164 -0.617822
      vertex 3.14085 3.88618 -0.617822
    endloop
  endfacet
  facet normal 0.587779 0.809022 0
    outer loop
      vertex 2.67913 4.22164 -0.617822
      vertex 3.18712 3.85257 -15
      vertex 2.67913 4.22164 -15
    endloop
  endfacet
  facet normal -0.844345 0.5358 0
    outer loop
      vertex -4.04508 2.93893 -15
      vertex -4.07573 2.89063 -0.617821
      vertex -4.04508 2.93893 -0.617821
    endloop
  endfacet
  facet normal -0.844328 0.535827 1.2524e-07
    outer loop
      vertex -4.38153 2.40877 -15
      vertex -4.07573 2.89063 -0.617821
      vertex -4.04508 2.93893 -15
    endloop
  endfacet
  facet normal -0.844326 0.53583 0
    outer loop
      vertex -4.07573 2.89063 -0.617821
      vertex -4.38153 2.40877 -15
      vertex -4.38153 2.40877 -0.617822
    endloop
  endfacet
  facet normal -0.982287 0.18738 0
    outer loop
      vertex -4.84292 1.24345 -15
      vertex -4.94986 0.682848 -0.617822
      vertex -4.84292 1.24345 -0.617821
    endloop
  endfacet
  facet normal -0.98229 0.187369 -4.491e-07
    outer loop
      vertex -4.96057 0.626666 -15
      vertex -4.94986 0.682848 -0.617822
      vertex -4.84292 1.24345 -15
    endloop
  endfacet
  facet normal -0.982311 0.187258 0
    outer loop
      vertex -4.94986 0.682848 -0.617822
      vertex -4.96057 0.626666 -15
      vertex -4.96057 0.626666 -0.617821
    endloop
  endfacet
  facet normal -0.481757 0.876305 0
    outer loop
      vertex -2.1289 4.52413 -15
      vertex -2.62901 4.24919 -0.617822
      vertex -2.1289 4.52413 -0.617822
    endloop
  endfacet
  facet normal -0.481752 0.876308 2.17297e-07
    outer loop
      vertex -2.67913 4.22164 -15
      vertex -2.62901 4.24919 -0.617822
      vertex -2.1289 4.52413 -15
    endloop
  endfacet
  facet normal -0.481704 0.876334 0
    outer loop
      vertex -2.62901 4.24919 -0.617822
      vertex -2.67913 4.22164 -15
      vertex -2.67913 4.22164 -0.617822
    endloop
  endfacet
  facet normal -0.587786 0.809016 0
    outer loop
      vertex -2.67913 4.22164 -0.617822
      vertex -2.67913 4.22164 -15
      vertex -3.14085 3.88618 -0.617822
    endloop
  endfacet
  facet normal -0.587779 0.809022 3.6819e-07
    outer loop
      vertex -3.18712 3.85257 -15
      vertex -3.14085 3.88618 -0.617822
      vertex -2.67913 4.22164 -15
    endloop
  endfacet
  facet normal -0.587704 0.809076 0
    outer loop
      vertex -3.14085 3.88618 -0.617822
      vertex -3.18712 3.85257 -15
      vertex -3.18712 3.85257 -0.617822
    endloop
  endfacet
  facet normal -0.125358 0.992112 0
    outer loop
      vertex -0.313952 4.99013 -0.617822
      vertex -0.313952 4.99013 -15
      vertex -0.370697 4.98296 -0.617822
    endloop
  endfacet
  facet normal -0.125318 0.992117 1.60347e-07
    outer loop
      vertex -0.313952 4.99013 -15
      vertex -0.936906 4.91144 -0.617822
      vertex -0.370697 4.98296 -0.617822
    endloop
  endfacet
  facet normal -0.125322 0.992116 0
    outer loop
      vertex -0.936906 4.91144 -0.617822
      vertex -0.313952 4.99013 -15
      vertex -0.936906 4.91144 -15
    endloop
  endfacet
  facet normal 0.998026 -0.062799 0
    outer loop
      vertex 4.96416 -0.569583 -0.617822
      vertex 5 0 -15
      vertex 5 0 -0.617821
    endloop
  endfacet
  facet normal 0.998028 -0.0627669 0
    outer loop
      vertex 4.96057 -0.626666 -15
      vertex 4.96416 -0.569583 -0.617822
      vertex 4.96057 -0.626666 -0.617822
    endloop
  endfacet
  facet normal 0 0 0
    outer loop
      vertex 4.96057 -0.626666 -15
      vertex 4.96057 -0.626666 -0.617822
      vertex 4.96057 -0.626666 -0.617821
    endloop
  endfacet
  facet normal 0.998026 -0.0627961 1.16465e-07
    outer loop
      vertex 4.96416 -0.569583 -0.617822
      vertex 4.96057 -0.626666 -15
      vertex 5 0 -15
    endloop
  endfacet
  facet normal 0.982311 -0.187258 0
    outer loop
      vertex 4.94986 -0.682848 -0.617822
      vertex 4.96057 -0.626666 -15
      vertex 4.96057 -0.626666 -0.617821
    endloop
  endfacet
  facet normal 0.982287 -0.18738 -4.94107e-07
    outer loop
      vertex 4.84292 -1.24345 -0.617821
      vertex 4.96057 -0.626666 -15
      vertex 4.94986 -0.682848 -0.617822
    endloop
  endfacet
  facet normal 0.98229 -0.187369 0
    outer loop
      vertex 4.84292 -1.24345 -0.617821
      vertex 4.84292 -1.24345 -15
      vertex 4.96057 -0.626666 -15
    endloop
  endfacet
  facet normal -0.684552 -0.728964 0
    outer loop
      vertex -3.64484 -3.42274 -15
      vertex -3.60315 -3.46189 -0.617821
      vertex -3.64484 -3.42274 -0.617821
    endloop
  endfacet
  facet normal -0.684549 -0.728967 -1.52655e-08
    outer loop
      vertex -3.64484 -3.42274 -15
      vertex -3.18712 -3.85257 -0.617822
      vertex -3.60315 -3.46189 -0.617821
    endloop
  endfacet
  facet normal -0.684549 -0.728967 -0
    outer loop
      vertex -3.18712 -3.85257 -0.617822
      vertex -3.64484 -3.42274 -15
      vertex -3.18712 -3.85257 -15
    endloop
  endfacet
  facet normal -0.770581 -0.637342 0
    outer loop
      vertex -4.04508 -2.93893 -15
      vertex -4.00863 -2.983 -0.617821
      vertex -4.04508 -2.93893 -0.617821
    endloop
  endfacet
  facet normal -0.770515 -0.637422 -4.09971e-07
    outer loop
      vertex -3.64484 -3.42274 -15
      vertex -4.00863 -2.983 -0.617821
      vertex -4.04508 -2.93893 -15
    endloop
  endfacet
  facet normal -0.770509 -0.63743 0
    outer loop
      vertex -4.00863 -2.983 -0.617821
      vertex -3.64484 -3.42274 -15
      vertex -3.64484 -3.42274 -0.617821
    endloop
  endfacet
  facet normal 0.481757 -0.876305 0
    outer loop
      vertex 2.1289 -4.52413 -15
      vertex 2.62901 -4.24919 -0.617822
      vertex 2.1289 -4.52413 -0.617822
    endloop
  endfacet
  facet normal 0.481752 -0.876308 2.17297e-07
    outer loop
      vertex 2.67913 -4.22164 -15
      vertex 2.62901 -4.24919 -0.617822
      vertex 2.1289 -4.52413 -15
    endloop
  endfacet
  facet normal 0.481704 -0.876334 0
    outer loop
      vertex 2.62901 -4.24919 -0.617822
      vertex 2.67913 -4.22164 -15
      vertex 2.67913 -4.22164 -0.617822
    endloop
  endfacet
  facet normal 0 -0 0
    outer loop
      vertex 4.64888 -1.84062 -0.617823
      vertex 4.64888 -1.84062 -15
      vertex 4.64888 -1.84062 -0.617822
    endloop
  endfacet
  facet normal 0.904839 -0.425755 0
    outer loop
      vertex 4.62453 -1.89237 -0.617823
      vertex 4.64888 -1.84062 -15
      vertex 4.64888 -1.84062 -0.617823
    endloop
  endfacet
  facet normal 0.904827 -0.42578 -1.10865e-07
    outer loop
      vertex 4.38153 -2.40877 -0.617822
      vertex 4.64888 -1.84062 -15
      vertex 4.62453 -1.89237 -0.617823
    endloop
  endfacet
  facet normal 0.904828 -0.425778 0
    outer loop
      vertex 4.38153 -2.40877 -0.617822
      vertex 4.38153 -2.40877 -15
      vertex 4.64888 -1.84062 -15
    endloop
  endfacet
  facet normal -0.951056 -0.309017 0
    outer loop
      vertex -4.84292 -1.24345 -15
      vertex -4.66656 -1.78623 -0.617823
      vertex -4.84292 -1.24345 -0.617821
    endloop
  endfacet
  facet normal -0.951053 -0.309028 -4.57333e-07
    outer loop
      vertex -4.64888 -1.84062 -15
      vertex -4.66656 -1.78623 -0.617823
      vertex -4.84292 -1.24345 -15
    endloop
  endfacet
  facet normal -0.951017 -0.309137 0
    outer loop
      vertex -4.66656 -1.78623 -0.617823
      vertex -4.64888 -1.84062 -15
      vertex -4.64888 -1.84062 -0.617822
    endloop
  endfacet
  facet normal -0.998026 -0.062799 0
    outer loop
      vertex -5 0 -15
      vertex -4.96416 -0.569583 -0.617822
      vertex -5 0 -0.617821
    endloop
  endfacet
  facet normal -0.998026 -0.0627961 1.16465e-07
    outer loop
      vertex -4.96057 -0.626666 -15
      vertex -4.96416 -0.569583 -0.617822
      vertex -5 0 -15
    endloop
  endfacet
  facet normal -0.998028 -0.0627669 0
    outer loop
      vertex -4.96416 -0.569583 -0.617822
      vertex -4.96057 -0.626666 -15
      vertex -4.96057 -0.626666 -0.617822
    endloop
  endfacet
  facet normal 0 -0 0
    outer loop
      vertex -4.96057 -0.626666 -0.617822
      vertex -4.96057 -0.626666 -15
      vertex -4.96057 -0.626666 -0.617821
    endloop
  endfacet
  facet normal 0.684549 -0.728967 0
    outer loop
      vertex 3.18712 -3.85257 -15
      vertex 3.60315 -3.46189 -0.617821
      vertex 3.18712 -3.85257 -0.617822
    endloop
  endfacet
  facet normal 0.684549 -0.728967 -1.3875e-08
    outer loop
      vertex 3.64484 -3.42274 -15
      vertex 3.60315 -3.46189 -0.617821
      vertex 3.18712 -3.85257 -15
    endloop
  endfacet
  facet normal 0.684552 -0.728964 0
    outer loop
      vertex 3.60315 -3.46189 -0.617821
      vertex 3.64484 -3.42274 -15
      vertex 3.64484 -3.42274 -0.617821
    endloop
  endfacet
  facet normal 0.368042 -0.929809 0
    outer loop
      vertex 1.54508 -4.75528 -15
      vertex 1.59826 -4.73423 -0.617822
      vertex 1.54508 -4.75528 -0.617822
    endloop
  endfacet
  facet normal 0.368132 -0.929774 -3.83276e-07
    outer loop
      vertex 1.54508 -4.75528 -15
      vertex 2.1289 -4.52413 -0.617822
      vertex 1.59826 -4.73423 -0.617822
    endloop
  endfacet
  facet normal 0.368124 -0.929777 0
    outer loop
      vertex 2.1289 -4.52413 -0.617822
      vertex 1.54508 -4.75528 -15
      vertex 2.1289 -4.52413 -15
    endloop
  endfacet
  facet normal 0.248689 -0.968584 0
    outer loop
      vertex 0.936906 -4.91144 -15
      vertex 1.48969 -4.76951 -0.617822
      vertex 0.936906 -4.91144 -0.617822
    endloop
  endfacet
  facet normal 0.248701 -0.96858 -5.10887e-07
    outer loop
      vertex 1.54508 -4.75528 -15
      vertex 1.48969 -4.76951 -0.617822
      vertex 0.936906 -4.91144 -15
    endloop
  endfacet
  facet normal 0.248825 -0.968548 0
    outer loop
      vertex 1.48969 -4.76951 -0.617822
      vertex 1.54508 -4.75528 -15
      vertex 1.54508 -4.75528 -0.617822
    endloop
  endfacet
  facet normal 0.844326 -0.53583 0
    outer loop
      vertex 4.07573 -2.89063 -0.617821
      vertex 4.38153 -2.40877 -15
      vertex 4.38153 -2.40877 -0.617822
    endloop
  endfacet
  facet normal 0.844345 -0.5358 0
    outer loop
      vertex 4.04508 -2.93893 -15
      vertex 4.07573 -2.89063 -0.617821
      vertex 4.04508 -2.93893 -0.617821
    endloop
  endfacet
  facet normal 0.844328 -0.535827 1.2524e-07
    outer loop
      vertex 4.07573 -2.89063 -0.617821
      vertex 4.04508 -2.93893 -15
      vertex 4.38153 -2.40877 -15
    endloop
  endfacet
  facet normal 0.770581 -0.637342 0
    outer loop
      vertex 4.00863 -2.983 -0.617821
      vertex 4.04508 -2.93893 -15
      vertex 4.04508 -2.93893 -0.617821
    endloop
  endfacet
  facet normal 0.770509 -0.63743 -4.51054e-07
    outer loop
      vertex 3.64484 -3.42274 -0.617821
      vertex 4.04508 -2.93893 -15
      vertex 4.00863 -2.983 -0.617821
    endloop
  endfacet
  facet normal 0.770515 -0.637422 0
    outer loop
      vertex 4.04508 -2.93893 -15
      vertex 3.64484 -3.42274 -0.617821
      vertex 3.64484 -3.42274 -15
    endloop
  endfacet
  facet normal 0.951056 -0.309017 0
    outer loop
      vertex 4.66656 -1.78623 -0.617823
      vertex 4.84292 -1.24345 -15
      vertex 4.84292 -1.24345 -0.617821
    endloop
  endfacet
  facet normal 0.951017 -0.309137 0
    outer loop
      vertex 4.64888 -1.84062 -15
      vertex 4.66656 -1.78623 -0.617823
      vertex 4.64888 -1.84062 -0.617822
    endloop
  endfacet
  facet normal 0.951053 -0.309028 -4.57333e-07
    outer loop
      vertex 4.66656 -1.78623 -0.617823
      vertex 4.64888 -1.84062 -15
      vertex 4.84292 -1.24345 -15
    endloop
  endfacet
  facet normal -0.125318 -0.992117 -0
    outer loop
      vertex -0.936906 -4.91144 -0.617822
      vertex -0.936906 -4.91144 -15
      vertex -0.370697 -4.98296 -0.617822
    endloop
  endfacet
  facet normal -0.125322 -0.992116 1.45741e-07
    outer loop
      vertex -0.313952 -4.99013 -15
      vertex -0.370697 -4.98296 -0.617822
      vertex -0.936906 -4.91144 -15
    endloop
  endfacet
  facet normal -0.125358 -0.992112 0
    outer loop
      vertex -0.370697 -4.98296 -0.617822
      vertex -0.313952 -4.99013 -15
      vertex -0.313952 -4.99013 -0.617822
    endloop
  endfacet
  facet normal -0.248689 -0.968584 -5.62081e-07
    outer loop
      vertex -1.48969 -4.76951 -0.617822
      vertex -1.54508 -4.75528 -15
      vertex -0.936906 -4.91144 -0.617822
    endloop
  endfacet
  facet normal -0.248825 -0.968548 0
    outer loop
      vertex -1.54508 -4.75528 -15
      vertex -1.48969 -4.76951 -0.617822
      vertex -1.54508 -4.75528 -0.617822
    endloop
  endfacet
  facet normal -0.248701 -0.96858 0
    outer loop
      vertex -0.936906 -4.91144 -15
      vertex -0.936906 -4.91144 -0.617822
      vertex -1.54508 -4.75528 -15
    endloop
  endfacet
  facet normal -0.844326 -0.53583 0
    outer loop
      vertex -4.38153 -2.40877 -15
      vertex -4.07573 -2.89063 -0.617821
      vertex -4.38153 -2.40877 -0.617822
    endloop
  endfacet
  facet normal -0.844328 -0.535827 1.2524e-07
    outer loop
      vertex -4.04508 -2.93893 -15
      vertex -4.07573 -2.89063 -0.617821
      vertex -4.38153 -2.40877 -15
    endloop
  endfacet
  facet normal -0.844345 -0.5358 0
    outer loop
      vertex -4.07573 -2.89063 -0.617821
      vertex -4.04508 -2.93893 -15
      vertex -4.04508 -2.93893 -0.617821
    endloop
  endfacet
  facet normal 0 0 0
    outer loop
      vertex -4.64888 -1.84062 -15
      vertex -4.64888 -1.84062 -0.617823
      vertex -4.64888 -1.84062 -0.617822
    endloop
  endfacet
  facet normal -0.904839 -0.425755 0
    outer loop
      vertex -4.64888 -1.84062 -15
      vertex -4.62453 -1.89237 -0.617823
      vertex -4.64888 -1.84062 -0.617823
    endloop
  endfacet
  facet normal -0.904827 -0.42578 -1.10865e-07
    outer loop
      vertex -4.64888 -1.84062 -15
      vertex -4.38153 -2.40877 -0.617822
      vertex -4.62453 -1.89237 -0.617823
    endloop
  endfacet
  facet normal -0.904828 -0.425778 0
    outer loop
      vertex -4.38153 -2.40877 -15
      vertex -4.38153 -2.40877 -0.617822
      vertex -4.64888 -1.84062 -15
    endloop
  endfacet
  facet normal -0.982311 -0.187258 0
    outer loop
      vertex -4.96057 -0.626666 -15
      vertex -4.94986 -0.682848 -0.617822
      vertex -4.96057 -0.626666 -0.617821
    endloop
  endfacet
  facet normal -0.982287 -0.18738 -4.94107e-07
    outer loop
      vertex -4.96057 -0.626666 -15
      vertex -4.84292 -1.24345 -0.617821
      vertex -4.94986 -0.682848 -0.617822
    endloop
  endfacet
  facet normal -0.98229 -0.187369 0
    outer loop
      vertex -4.84292 -1.24345 -15
      vertex -4.84292 -1.24345 -0.617821
      vertex -4.96057 -0.626666 -15
    endloop
  endfacet
  facet normal 0.587786 -0.809016 0
    outer loop
      vertex 2.67913 -4.22164 -0.617822
      vertex 2.67913 -4.22164 -15
      vertex 3.14085 -3.88618 -0.617822
    endloop
  endfacet
  facet normal 0.587779 -0.809022 3.6819e-07
    outer loop
      vertex 3.18712 -3.85257 -15
      vertex 3.14085 -3.88618 -0.617822
      vertex 2.67913 -4.22164 -15
    endloop
  endfacet
  facet normal 0.587704 -0.809076 0
    outer loop
      vertex 3.14085 -3.88618 -0.617822
      vertex 3.18712 -3.85257 -15
      vertex 3.18712 -3.85257 -0.617822
    endloop
  endfacet
  facet normal -0.587704 -0.809076 -0
    outer loop
      vertex -3.18712 -3.85257 -0.617822
      vertex -3.18712 -3.85257 -15
      vertex -3.14085 -3.88618 -0.617822
    endloop
  endfacet
  facet normal -0.587786 -0.809016 4.05084e-07
    outer loop
      vertex -3.18712 -3.85257 -15
      vertex -2.67913 -4.22164 -0.617822
      vertex -3.14085 -3.88618 -0.617822
    endloop
  endfacet
  facet normal -0.587779 -0.809022 -0
    outer loop
      vertex -2.67913 -4.22164 -0.617822
      vertex -3.18712 -3.85257 -15
      vertex -2.67913 -4.22164 -15
    endloop
  endfacet
  facet normal -0.368132 -0.929774 0
    outer loop
      vertex -2.1289 -4.52413 -15
      vertex -1.59826 -4.73423 -0.617822
      vertex -2.1289 -4.52413 -0.617822
    endloop
  endfacet
  facet normal -0.368124 -0.929777 -3.48364e-07
    outer loop
      vertex -1.54508 -4.75528 -15
      vertex -1.59826 -4.73423 -0.617822
      vertex -2.1289 -4.52413 -15
    endloop
  endfacet
  facet normal -0.368042 -0.929809 0
    outer loop
      vertex -1.59826 -4.73423 -0.617822
      vertex -1.54508 -4.75528 -15
      vertex -1.54508 -4.75528 -0.617822
    endloop
  endfacet
  facet normal -0.481704 -0.876334 0
    outer loop
      vertex -2.67913 -4.22164 -15
      vertex -2.62901 -4.24919 -0.617822
      vertex -2.67913 -4.22164 -0.617822
    endloop
  endfacet
  facet normal -0.481757 -0.876305 2.39073e-07
    outer loop
      vertex -2.62901 -4.24919 -0.617822
      vertex -2.67913 -4.22164 -15
      vertex -2.1289 -4.52413 -0.617822
    endloop
  endfacet
  facet normal -0.481752 -0.876308 0
    outer loop
      vertex -2.1289 -4.52413 -15
      vertex -2.1289 -4.52413 -0.617822
      vertex -2.67913 -4.22164 -15
    endloop
  endfacet
endsolid OpenSCAD_Model
