  0
SECTION
  2
BLOCKS
  0
ENDSEC
  0
SECTION
  2
ENTITIES
  0
LINE
  8
0
 10
2.43594
 20
11.2303
 11
4.01721
 21
11.6363
  0
LINE
  8
0
 10
4.01721
 20
11.6363
 11
5.53513
 21
12.2373
  0
LINE
  8
0
 10
5.53513
 20
12.2373
 11
6.96574
 21
13.0237
  0
LINE
  8
0
 10
6.96574
 20
13.0237
 11
8.2865
 21
13.9833
  0
LINE
  8
0
 10
8.2865
 20
13.9833
 11
9.47658
 21
15.1009
  0
LINE
  8
0
 10
9.47658
 20
15.1009
 11
10.5172
 21
16.3588
  0
LINE
  8
0
 10
10.5172
 20
16.3588
 11
11.392
 21
17.7372
  0
LINE
  8
0
 10
11.392
 20
17.7372
 11
12.0871
 21
19.2144
  0
LINE
  8
0
 10
12.0871
 20
19.2144
 11
12.5916
 21
20.767
  0
LINE
  8
0
 10
12.5916
 20
20.767
 11
12.8975
 21
22.3707
  0
LINE
  8
0
 10
12.8975
 20
22.3707
 11
13
 21
24
  0
LINE
  8
0
 10
13
 20
24
 11
12.8975
 21
25.6293
  0
LINE
  8
0
 10
12.8975
 20
25.6293
 11
12.5916
 21
27.233
  0
LINE
  8
0
 10
12.5916
 20
27.233
 11
12.0871
 21
28.7856
  0
LINE
  8
0
 10
12.0871
 20
28.7856
 11
11.392
 21
30.2628
  0
LINE
  8
0
 10
11.392
 20
30.2628
 11
10.5172
 21
31.6412
  0
LINE
  8
0
 10
10.5172
 20
31.6412
 11
9.47658
 21
32.8991
  0
LINE
  8
0
 10
9.47658
 20
32.8991
 11
8.2865
 21
34.0167
  0
LINE
  8
0
 10
8.2865
 20
34.0167
 11
6.96574
 21
34.9763
  0
LINE
  8
0
 10
6.96574
 20
34.9763
 11
5.53513
 21
35.7627
  0
LINE
  8
0
 10
5.53513
 20
35.7627
 11
4.01721
 21
36.3637
  0
LINE
  8
0
 10
4.01721
 20
36.3637
 11
2.43594
 21
36.7697
  0
LINE
  8
0
 10
2.43594
 20
36.7697
 11
0.816269
 21
36.9743
  0
LINE
  8
0
 10
0.816269
 20
36.9743
 11
-0.816269
 21
36.9743
  0
LINE
  8
0
 10
-0.816269
 20
36.9743
 11
-2.43594
 21
36.7697
  0
LINE
  8
0
 10
-2.43594
 20
36.7697
 11
-4.01721
 21
36.3637
  0
LINE
  8
0
 10
-4.01721
 20
36.3637
 11
-5.53513
 21
35.7627
  0
LINE
  8
0
 10
-5.53513
 20
35.7627
 11
-6.96574
 21
34.9763
  0
LINE
  8
0
 10
-6.96574
 20
34.9763
 11
-8.2865
 21
34.0167
  0
LINE
  8
0
 10
-8.2865
 20
34.0167
 11
-9.47658
 21
32.8991
  0
LINE
  8
0
 10
-9.47658
 20
32.8991
 11
-10.5172
 21
31.6412
  0
LINE
  8
0
 10
-10.5172
 20
31.6412
 11
-11.392
 21
30.2628
  0
LINE
  8
0
 10
-11.392
 20
30.2628
 11
-12.0871
 21
28.7856
  0
LINE
  8
0
 10
-12.0871
 20
28.7856
 11
-12.5916
 21
27.233
  0
LINE
  8
0
 10
-12.5916
 20
27.233
 11
-12.8975
 21
25.6293
  0
LINE
  8
0
 10
-12.8975
 20
25.6293
 11
-13
 21
24
  0
LINE
  8
0
 10
-13
 20
24
 11
-12.8975
 21
22.3707
  0
LINE
  8
0
 10
-12.8975
 20
22.3707
 11
-12.5916
 21
20.767
  0
LINE
  8
0
 10
-12.5916
 20
20.767
 11
-12.0871
 21
19.2144
  0
LINE
  8
0
 10
-12.0871
 20
19.2144
 11
-11.392
 21
17.7372
  0
LINE
  8
0
 10
-11.392
 20
17.7372
 11
-10.5172
 21
16.3588
  0
LINE
  8
0
 10
-10.5172
 20
16.3588
 11
-9.47658
 21
15.1009
  0
LINE
  8
0
 10
-9.47658
 20
15.1009
 11
-8.2865
 21
13.9833
  0
LINE
  8
0
 10
-8.2865
 20
13.9833
 11
-6.96574
 21
13.0237
  0
LINE
  8
0
 10
-6.96574
 20
13.0237
 11
-5.53513
 21
12.2373
  0
LINE
  8
0
 10
-5.53513
 20
12.2373
 11
-4.01721
 21
11.6363
  0
LINE
  8
0
 10
-4.01721
 20
11.6363
 11
-2.43594
 21
11.2303
  0
LINE
  8
0
 10
-2.43594
 20
11.2303
 11
-0.816269
 21
11.0257
  0
LINE
  8
0
 10
-0.816269
 20
11.0257
 11
0.816269
 21
11.0257
  0
LINE
  8
0
 10
0.816269
 20
11.0257
 11
2.43594
 21
11.2303
  0
LINE
  8
0
 10
-0.249115
 20
20.0403
 11
-0.743439
 21
20.1027
  0
LINE
  8
0
 10
-0.743439
 20
20.1027
 11
-1.22604
 21
20.2266
  0
LINE
  8
0
 10
-1.22604
 20
20.2266
 11
-1.6893
 21
20.41
  0
LINE
  8
0
 10
-1.6893
 20
20.41
 11
-2.12592
 21
20.6501
  0
LINE
  8
0
 10
-2.12592
 20
20.6501
 11
-2.52902
 21
20.9429
  0
LINE
  8
0
 10
-2.52902
 20
20.9429
 11
-2.89223
 21
21.284
  0
LINE
  8
0
 10
-2.89223
 20
21.284
 11
-3.20982
 21
21.6679
  0
LINE
  8
0
 10
-3.20982
 20
21.6679
 11
-3.47679
 21
22.0886
  0
LINE
  8
0
 10
-3.47679
 20
22.0886
 11
-3.68895
 21
22.5394
  0
LINE
  8
0
 10
-3.68895
 20
22.5394
 11
-3.84291
 21
23.0133
  0
LINE
  8
0
 10
-3.84291
 20
23.0133
 11
-3.93628
 21
23.5027
  0
LINE
  8
0
 10
-3.93628
 20
23.5027
 11
-3.96756
 21
24
  0
LINE
  8
0
 10
-3.96756
 20
24
 11
-3.93628
 21
24.4973
  0
LINE
  8
0
 10
-3.93628
 20
24.4973
 11
-3.84291
 21
24.9867
  0
LINE
  8
0
 10
-3.84291
 20
24.9867
 11
-3.68895
 21
25.4606
  0
LINE
  8
0
 10
-3.68895
 20
25.4606
 11
-3.47679
 21
25.9114
  0
LINE
  8
0
 10
-3.47679
 20
25.9114
 11
-3.20982
 21
26.3321
  0
LINE
  8
0
 10
-3.20982
 20
26.3321
 11
-2.89223
 21
26.716
  0
LINE
  8
0
 10
-2.89223
 20
26.716
 11
-2.52902
 21
27.0571
  0
LINE
  8
0
 10
-2.52902
 20
27.0571
 11
-2.12592
 21
27.3499
  0
LINE
  8
0
 10
-2.12592
 20
27.3499
 11
-1.6893
 21
27.59
  0
LINE
  8
0
 10
-1.6893
 20
27.59
 11
-1.22604
 21
27.7734
  0
LINE
  8
0
 10
-1.22604
 20
27.7734
 11
-0.743439
 21
27.8973
  0
LINE
  8
0
 10
-0.743439
 20
27.8973
 11
-0.249115
 21
27.9597
  0
LINE
  8
0
 10
-0.249115
 20
27.9597
 11
0.249115
 21
27.9597
  0
LINE
  8
0
 10
0.249115
 20
27.9597
 11
0.743439
 21
27.8973
  0
LINE
  8
0
 10
0.743439
 20
27.8973
 11
1.22604
 21
27.7734
  0
LINE
  8
0
 10
1.22604
 20
27.7734
 11
1.6893
 21
27.59
  0
LINE
  8
0
 10
1.6893
 20
27.59
 11
2.12592
 21
27.3499
  0
LINE
  8
0
 10
2.12592
 20
27.3499
 11
2.52902
 21
27.0571
  0
LINE
  8
0
 10
2.52902
 20
27.0571
 11
2.89223
 21
26.716
  0
LINE
  8
0
 10
2.89223
 20
26.716
 11
3.20982
 21
26.3321
  0
LINE
  8
0
 10
3.20982
 20
26.3321
 11
3.47679
 21
25.9114
  0
LINE
  8
0
 10
3.47679
 20
25.9114
 11
3.68895
 21
25.4606
  0
LINE
  8
0
 10
3.68895
 20
25.4606
 11
3.84291
 21
24.9867
  0
LINE
  8
0
 10
3.84291
 20
24.9867
 11
3.93628
 21
24.4973
  0
LINE
  8
0
 10
3.93628
 20
24.4973
 11
3.96756
 21
24
  0
LINE
  8
0
 10
3.96756
 20
24
 11
3.93628
 21
23.5027
  0
LINE
  8
0
 10
3.93628
 20
23.5027
 11
3.84291
 21
23.0133
  0
LINE
  8
0
 10
3.84291
 20
23.0133
 11
3.68895
 21
22.5394
  0
LINE
  8
0
 10
3.68895
 20
22.5394
 11
3.47679
 21
22.0886
  0
LINE
  8
0
 10
3.47679
 20
22.0886
 11
3.20982
 21
21.6679
  0
LINE
  8
0
 10
3.20982
 20
21.6679
 11
2.89223
 21
21.284
  0
LINE
  8
0
 10
2.89223
 20
21.284
 11
2.52902
 21
20.9429
  0
LINE
  8
0
 10
2.52902
 20
20.9429
 11
2.12592
 21
20.6501
  0
LINE
  8
0
 10
2.12592
 20
20.6501
 11
1.6893
 21
20.41
  0
LINE
  8
0
 10
1.6893
 20
20.41
 11
1.22604
 21
20.2266
  0
LINE
  8
0
 10
1.22604
 20
20.2266
 11
0.743439
 21
20.1027
  0
LINE
  8
0
 10
0.743439
 20
20.1027
 11
0.249115
 21
20.0403
  0
LINE
  8
0
 10
0.249115
 20
20.0403
 11
-0.249115
 21
20.0403
  0
LINE
  8
0
 10
1.87381
 20
-9.82286
 11
3.09016
 21
-9.51056
  0
LINE
  8
0
 10
3.09016
 20
-9.51056
 11
4.25778
 21
-9.04826
  0
LINE
  8
0
 10
4.25778
 20
-9.04826
 11
5.35826
 21
-8.44327
  0
LINE
  8
0
 10
5.35826
 20
-8.44327
 11
6.37424
 21
-7.70512
  0
LINE
  8
0
 10
6.37424
 20
-7.70512
 11
7.28967
 21
-6.84546
  0
LINE
  8
0
 10
7.28967
 20
-6.84546
 11
8.09016
 21
-5.87784
  0
LINE
  8
0
 10
8.09016
 20
-5.87784
 11
8.76306
 21
-4.81754
  0
LINE
  8
0
 10
8.76306
 20
-4.81754
 11
9.29776
 21
-3.68124
  0
LINE
  8
0
 10
9.29776
 20
-3.68124
 11
9.68582
 21
-2.48689
  0
LINE
  8
0
 10
9.68582
 20
-2.48689
 11
9.92114
 21
-1.25333
  0
LINE
  8
0
 10
9.92114
 20
-1.25333
 11
10
 21
0
  0
LINE
  8
0
 10
10
 20
0
 11
9.92114
 21
1.25333
  0
LINE
  8
0
 10
9.92114
 20
1.25333
 11
9.68582
 21
2.48689
  0
LINE
  8
0
 10
9.68582
 20
2.48689
 11
9.29776
 21
3.68124
  0
LINE
  8
0
 10
9.29776
 20
3.68124
 11
8.76306
 21
4.81754
  0
LINE
  8
0
 10
8.76306
 20
4.81754
 11
8.09016
 21
5.87784
  0
LINE
  8
0
 10
8.09016
 20
5.87784
 11
7.28967
 21
6.84546
  0
LINE
  8
0
 10
7.28967
 20
6.84546
 11
6.37424
 21
7.70512
  0
LINE
  8
0
 10
6.37424
 20
7.70512
 11
5.35826
 21
8.44327
  0
LINE
  8
0
 10
5.35826
 20
8.44327
 11
4.25778
 21
9.04826
  0
LINE
  8
0
 10
4.25778
 20
9.04826
 11
3.09016
 21
9.51056
  0
LINE
  8
0
 10
3.09016
 20
9.51056
 11
1.87381
 21
9.82286
  0
LINE
  8
0
 10
1.87381
 20
9.82286
 11
0.627899
 21
9.98026
  0
LINE
  8
0
 10
0.627899
 20
9.98026
 11
-0.627899
 21
9.98026
  0
LINE
  8
0
 10
-0.627899
 20
9.98026
 11
-1.87381
 21
9.82286
  0
LINE
  8
0
 10
-1.87381
 20
9.82286
 11
-3.09016
 21
9.51056
  0
LINE
  8
0
 10
-3.09016
 20
9.51056
 11
-4.25778
 21
9.04826
  0
LINE
  8
0
 10
-4.25778
 20
9.04826
 11
-5.35826
 21
8.44327
  0
LINE
  8
0
 10
-5.35826
 20
8.44327
 11
-6.37424
 21
7.70512
  0
LINE
  8
0
 10
-6.37424
 20
7.70512
 11
-7.28967
 21
6.84546
  0
LINE
  8
0
 10
-7.28967
 20
6.84546
 11
-8.09016
 21
5.87784
  0
LINE
  8
0
 10
-8.09016
 20
5.87784
 11
-8.76306
 21
4.81754
  0
LINE
  8
0
 10
-8.76306
 20
4.81754
 11
-9.29776
 21
3.68124
  0
LINE
  8
0
 10
-9.29776
 20
3.68124
 11
-9.68582
 21
2.48689
  0
LINE
  8
0
 10
-9.68582
 20
2.48689
 11
-9.92114
 21
1.25333
  0
LINE
  8
0
 10
-9.92114
 20
1.25333
 11
-10
 21
0
  0
LINE
  8
0
 10
-10
 20
0
 11
-9.92114
 21
-1.25333
  0
LINE
  8
0
 10
-9.92114
 20
-1.25333
 11
-9.68582
 21
-2.48689
  0
LINE
  8
0
 10
-9.68582
 20
-2.48689
 11
-9.29776
 21
-3.68124
  0
LINE
  8
0
 10
-9.29776
 20
-3.68124
 11
-8.76306
 21
-4.81754
  0
LINE
  8
0
 10
-8.76306
 20
-4.81754
 11
-8.09016
 21
-5.87784
  0
LINE
  8
0
 10
-8.09016
 20
-5.87784
 11
-7.28967
 21
-6.84546
  0
LINE
  8
0
 10
-7.28967
 20
-6.84546
 11
-6.37424
 21
-7.70512
  0
LINE
  8
0
 10
-6.37424
 20
-7.70512
 11
-5.35826
 21
-8.44327
  0
LINE
  8
0
 10
-5.35826
 20
-8.44327
 11
-4.25778
 21
-9.04826
  0
LINE
  8
0
 10
-4.25778
 20
-9.04826
 11
-3.09016
 21
-9.51056
  0
LINE
  8
0
 10
-3.09016
 20
-9.51056
 11
-1.87381
 21
-9.82286
  0
LINE
  8
0
 10
-1.87381
 20
-9.82286
 11
-0.627899
 21
-9.98026
  0
LINE
  8
0
 10
-0.627899
 20
-9.98026
 11
0.627899
 21
-9.98026
  0
LINE
  8
0
 10
0.627899
 20
-9.98026
 11
1.87381
 21
-9.82286
  0
LINE
  8
0
 10
-0.180511
 20
-2.86932
 11
-0.538712
 21
-2.82407
  0
LINE
  8
0
 10
-0.538712
 20
-2.82407
 11
-0.888412
 21
-2.73428
  0
LINE
  8
0
 10
-0.888412
 20
-2.73428
 11
-1.22411
 21
-2.60136
  0
LINE
  8
0
 10
-1.22411
 20
-2.60136
 11
-1.5405
 21
-2.42743
  0
LINE
  8
0
 10
-1.5405
 20
-2.42743
 11
-1.83258
 21
-2.21523
  0
LINE
  8
0
 10
-1.83258
 20
-2.21523
 11
-2.09578
 21
-1.96806
  0
LINE
  8
0
 10
-2.09578
 20
-1.96806
 11
-2.32591
 21
-1.68988
  0
LINE
  8
0
 10
-2.32591
 20
-1.68988
 11
-2.51938
 21
-1.38504
  0
LINE
  8
0
 10
-2.51938
 20
-1.38504
 11
-2.6731
 21
-1.05835
  0
LINE
  8
0
 10
-2.6731
 20
-1.05835
 11
-2.78467
 21
-0.714981
  0
LINE
  8
0
 10
-2.78467
 20
-0.714981
 11
-2.85233
 21
-0.360321
  0
LINE
  8
0
 10
-2.85233
 20
-0.360321
 11
-2.875
 21
0
  0
LINE
  8
0
 10
-2.875
 20
0
 11
-2.85233
 21
0.360321
  0
LINE
  8
0
 10
-2.85233
 20
0.360321
 11
-2.78467
 21
0.714981
  0
LINE
  8
0
 10
-2.78467
 20
0.714981
 11
-2.6731
 21
1.05835
  0
LINE
  8
0
 10
-2.6731
 20
1.05835
 11
-2.51938
 21
1.38504
  0
LINE
  8
0
 10
-2.51938
 20
1.38504
 11
-2.32591
 21
1.68988
  0
LINE
  8
0
 10
-2.32591
 20
1.68988
 11
-2.09578
 21
1.96806
  0
LINE
  8
0
 10
-2.09578
 20
1.96806
 11
-1.83258
 21
2.21523
  0
LINE
  8
0
 10
-1.83258
 20
2.21523
 11
-1.5405
 21
2.42743
  0
LINE
  8
0
 10
-1.5405
 20
2.42743
 11
-1.22411
 21
2.60136
  0
LINE
  8
0
 10
-1.22411
 20
2.60136
 11
-0.888412
 21
2.73428
  0
LINE
  8
0
 10
-0.888412
 20
2.73428
 11
-0.538712
 21
2.82407
  0
LINE
  8
0
 10
-0.538712
 20
2.82407
 11
-0.180511
 21
2.86932
  0
LINE
  8
0
 10
-0.180511
 20
2.86932
 11
0.180511
 21
2.86932
  0
LINE
  8
0
 10
0.180511
 20
2.86932
 11
0.538712
 21
2.82407
  0
LINE
  8
0
 10
0.538712
 20
2.82407
 11
0.888412
 21
2.73428
  0
LINE
  8
0
 10
0.888412
 20
2.73428
 11
1.22411
 21
2.60136
  0
LINE
  8
0
 10
1.22411
 20
2.60136
 11
1.5405
 21
2.42743
  0
LINE
  8
0
 10
1.5405
 20
2.42743
 11
1.83258
 21
2.21523
  0
LINE
  8
0
 10
1.83258
 20
2.21523
 11
2.09578
 21
1.96806
  0
LINE
  8
0
 10
2.09578
 20
1.96806
 11
2.32591
 21
1.68988
  0
LINE
  8
0
 10
2.32591
 20
1.68988
 11
2.51938
 21
1.38504
  0
LINE
  8
0
 10
2.51938
 20
1.38504
 11
2.6731
 21
1.05835
  0
LINE
  8
0
 10
2.6731
 20
1.05835
 11
2.78467
 21
0.714981
  0
LINE
  8
0
 10
2.78467
 20
0.714981
 11
2.85233
 21
0.360321
  0
LINE
  8
0
 10
2.85233
 20
0.360321
 11
2.875
 21
0
  0
LINE
  8
0
 10
2.875
 20
0
 11
2.85233
 21
-0.360321
  0
LINE
  8
0
 10
2.85233
 20
-0.360321
 11
2.78467
 21
-0.714981
  0
LINE
  8
0
 10
2.78467
 20
-0.714981
 11
2.6731
 21
-1.05835
  0
LINE
  8
0
 10
2.6731
 20
-1.05835
 11
2.51938
 21
-1.38504
  0
LINE
  8
0
 10
2.51938
 20
-1.38504
 11
2.32591
 21
-1.68988
  0
LINE
  8
0
 10
2.32591
 20
-1.68988
 11
2.09578
 21
-1.96806
  0
LINE
  8
0
 10
2.09578
 20
-1.96806
 11
1.83258
 21
-2.21523
  0
LINE
  8
0
 10
1.83258
 20
-2.21523
 11
1.5405
 21
-2.42743
  0
LINE
  8
0
 10
1.5405
 20
-2.42743
 11
1.22411
 21
-2.60136
  0
LINE
  8
0
 10
1.22411
 20
-2.60136
 11
0.888412
 21
-2.73428
  0
LINE
  8
0
 10
0.888412
 20
-2.73428
 11
0.538712
 21
-2.82407
  0
LINE
  8
0
 10
0.538712
 20
-2.82407
 11
0.180511
 21
-2.86932
  0
LINE
  8
0
 10
0.180511
 20
-2.86932
 11
-0.180511
 21
-2.86932
  0
ENDSEC
  0
SECTION
  2
OBJECTS
  0
DICTIONARY
  0
ENDSEC
  0
EOF
