solid OpenSCAD_Model
  facet normal 0.998028 0.0627632 0
    outer loop
      vertex 11 0 0
      vertex 10.9133 1.37866 -4
      vertex 10.9133 1.37866 0
    endloop
  endfacet
  facet normal 0.998028 0.0627632 0
    outer loop
      vertex 10.9133 1.37866 -4
      vertex 11 0 0
      vertex 11 0 -4
    endloop
  endfacet
  facet normal -0.998028 0.0627632 0
    outer loop
      vertex -11 0 -4
      vertex -10.9133 1.37866 0
      vertex -10.9133 1.37866 -4
    endloop
  endfacet
  facet normal -0.998028 0.0627632 0
    outer loop
      vertex -10.9133 1.37866 0
      vertex -11 0 -4
      vertex -11 0 0
    endloop
  endfacet
  facet normal 0 1 -0
    outer loop
      vertex 0.690695 10.9783 -4
      vertex -0.690695 10.9783 0
      vertex 0.690695 10.9783 0
    endloop
  endfacet
  facet normal 0 1 0
    outer loop
      vertex -0.690695 10.9783 0
      vertex 0.690695 10.9783 -4
      vertex -0.690695 10.9783 -4
    endloop
  endfacet
  facet normal 0 -1 0
    outer loop
      vertex -0.690695 -10.9783 -4
      vertex 0.690695 -10.9783 0
      vertex -0.690695 -10.9783 0
    endloop
  endfacet
  facet normal 0 -1 -0
    outer loop
      vertex 0.690695 -10.9783 0
      vertex -0.690695 -10.9783 -4
      vertex 0.690695 -10.9783 -4
    endloop
  endfacet
  facet normal 0.684548 0.728967 -0
    outer loop
      vertex 8.01865 7.53002 -4
      vertex 7.01166 8.47565 0
      vertex 8.01865 7.53002 0
    endloop
  endfacet
  facet normal 0.684548 0.728967 0
    outer loop
      vertex 7.01166 8.47565 0
      vertex 8.01865 7.53002 -4
      vertex 7.01166 8.47565 -4
    endloop
  endfacet
  facet normal -0.684548 0.728967 0
    outer loop
      vertex -7.01166 8.47565 -4
      vertex -8.01865 7.53002 0
      vertex -7.01166 8.47565 0
    endloop
  endfacet
  facet normal -0.684548 0.728967 0
    outer loop
      vertex -8.01865 7.53002 0
      vertex -7.01166 8.47565 -4
      vertex -8.01865 7.53002 -4
    endloop
  endfacet
  facet normal -0.368111 0.929782 0
    outer loop
      vertex -3.39919 10.4616 -4
      vertex -4.68357 9.9531 0
      vertex -3.39919 10.4616 0
    endloop
  endfacet
  facet normal -0.368111 0.929782 0
    outer loop
      vertex -4.68357 9.9531 0
      vertex -3.39919 10.4616 -4
      vertex -4.68357 9.9531 -4
    endloop
  endfacet
  facet normal 0.904838 0.425757 0
    outer loop
      vertex 10.2275 4.04937 0
      vertex 9.63937 5.29929 -4
      vertex 9.63937 5.29929 0
    endloop
  endfacet
  facet normal 0.904838 0.425757 0
    outer loop
      vertex 9.63937 5.29929 -4
      vertex 10.2275 4.04937 0
      vertex 10.2275 4.04937 -4
    endloop
  endfacet
  facet normal 0.368111 0.929782 -0
    outer loop
      vertex 4.68357 9.9531 -4
      vertex 3.39919 10.4616 0
      vertex 4.68357 9.9531 0
    endloop
  endfacet
  facet normal 0.368111 0.929782 0
    outer loop
      vertex 3.39919 10.4616 0
      vertex 4.68357 9.9531 -4
      vertex 3.39919 10.4616 -4
    endloop
  endfacet
  facet normal 0.248731 0.968573 -0
    outer loop
      vertex 3.39919 10.4616 -4
      vertex 2.06119 10.8052 0
      vertex 3.39919 10.4616 0
    endloop
  endfacet
  facet normal 0.248731 0.968573 0
    outer loop
      vertex 2.06119 10.8052 0
      vertex 3.39919 10.4616 -4
      vertex 2.06119 10.8052 -4
    endloop
  endfacet
  facet normal 0.481754 0.876306 -0
    outer loop
      vertex 5.89409 9.28761 -4
      vertex 4.68357 9.9531 0
      vertex 5.89409 9.28761 0
    endloop
  endfacet
  facet normal 0.481754 0.876306 0
    outer loop
      vertex 4.68357 9.9531 0
      vertex 5.89409 9.28761 -4
      vertex 4.68357 9.9531 -4
    endloop
  endfacet
  facet normal -0.904838 0.425757 0
    outer loop
      vertex -10.2275 4.04937 -4
      vertex -9.63937 5.29929 0
      vertex -9.63937 5.29929 -4
    endloop
  endfacet
  facet normal -0.904838 0.425757 0
    outer loop
      vertex -9.63937 5.29929 0
      vertex -10.2275 4.04937 -4
      vertex -10.2275 4.04937 0
    endloop
  endfacet
  facet normal 0 0 1
    outer loop
      vertex 10.1 0 0
      vertex 11 0 0
      vertex 10.9133 1.37866 0
    endloop
  endfacet
  facet normal 0 0 1
    outer loop
      vertex 10.0204 1.26587 0
      vertex 10.9133 1.37866 0
      vertex 10.6544 2.73559 0
    endloop
  endfacet
  facet normal 0 0 1
    outer loop
      vertex 11 0 0
      vertex 10.1 0 0
      vertex 10.9133 -1.37866 0
    endloop
  endfacet
  facet normal 0 0 1
    outer loop
      vertex 9.78269 2.51177 0
      vertex 10.6544 2.73559 0
      vertex 10.2275 4.04937 0
    endloop
  endfacet
  facet normal -0 0 1
    outer loop
      vertex 10.0204 -1.26587 0
      vertex 10.9133 -1.37866 0
      vertex 10.1 0 0
    endloop
  endfacet
  facet normal 0 0 1
    outer loop
      vertex 10.9133 -1.37866 0
      vertex 10.0204 -1.26587 0
      vertex 10.6544 -2.73559 0
    endloop
  endfacet
  facet normal 0 0 1
    outer loop
      vertex 10.9133 1.37866 0
      vertex 10.0204 1.26587 0
      vertex 10.1 0 0
    endloop
  endfacet
  facet normal 0 0 1
    outer loop
      vertex 10.6544 2.73559 0
      vertex 9.78269 2.51177 0
      vertex 10.0204 1.26587 0
    endloop
  endfacet
  facet normal 0 0 1
    outer loop
      vertex 9.39074 3.71806 0
      vertex 10.2275 4.04937 0
      vertex 9.63937 5.29929 0
    endloop
  endfacet
  facet normal 0 0 1
    outer loop
      vertex 10.2275 4.04937 0
      vertex 9.39074 3.71806 0
      vertex 9.78269 2.51177 0
    endloop
  endfacet
  facet normal 0 0 1
    outer loop
      vertex 8.8507 4.86571 0
      vertex 9.63937 5.29929 0
      vertex 8.89919 6.46564 0
    endloop
  endfacet
  facet normal 0 0 1
    outer loop
      vertex 9.63937 5.29929 0
      vertex 8.8507 4.86571 0
      vertex 9.39074 3.71806 0
    endloop
  endfacet
  facet normal 0 0 1
    outer loop
      vertex 8.89919 6.46564 0
      vertex 8.17107 5.93663 0
      vertex 8.8507 4.86571 0
    endloop
  endfacet
  facet normal 0 0 1
    outer loop
      vertex 8.01865 7.53002 0
      vertex 8.17107 5.93663 0
      vertex 8.89919 6.46564 0
    endloop
  endfacet
  facet normal 0 0 1
    outer loop
      vertex 8.01865 7.53002 0
      vertex 7.36258 6.91393 0
      vertex 8.17107 5.93663 0
    endloop
  endfacet
  facet normal 0 0 1
    outer loop
      vertex 7.01166 8.47565 0
      vertex 7.36258 6.91393 0
      vertex 8.01865 7.53002 0
    endloop
  endfacet
  facet normal 0 0 1
    outer loop
      vertex 7.01166 8.47565 0
      vertex 6.43798 7.78218 0
      vertex 7.36258 6.91393 0
    endloop
  endfacet
  facet normal 0 0 1
    outer loop
      vertex 5.89409 9.28761 0
      vertex 6.43798 7.78218 0
      vertex 7.01166 8.47565 0
    endloop
  endfacet
  facet normal 0 0 1
    outer loop
      vertex 5.89409 9.28761 0
      vertex 5.41185 8.52771 0
      vertex 6.43798 7.78218 0
    endloop
  endfacet
  facet normal 0 0 1
    outer loop
      vertex 4.68357 9.9531 0
      vertex 5.41185 8.52771 0
      vertex 5.89409 9.28761 0
    endloop
  endfacet
  facet normal 0 0 1
    outer loop
      vertex 4.68357 9.9531 0
      vertex 4.30037 9.13875 0
      vertex 5.41185 8.52771 0
    endloop
  endfacet
  facet normal 0 0 1
    outer loop
      vertex 3.39919 10.4616 0
      vertex 4.30037 9.13875 0
      vertex 4.68357 9.9531 0
    endloop
  endfacet
  facet normal 0 0 1
    outer loop
      vertex 3.39919 10.4616 0
      vertex 3.12107 9.60567 0
      vertex 4.30037 9.13875 0
    endloop
  endfacet
  facet normal 0 0 1
    outer loop
      vertex 2.06119 10.8052 0
      vertex 3.12107 9.60567 0
      vertex 3.39919 10.4616 0
    endloop
  endfacet
  facet normal 0 0 1
    outer loop
      vertex 2.06119 10.8052 0
      vertex 1.89255 9.9211 0
      vertex 3.12107 9.60567 0
    endloop
  endfacet
  facet normal 0 0 1
    outer loop
      vertex 0.690695 10.9783 0
      vertex 1.89255 9.9211 0
      vertex 2.06119 10.8052 0
    endloop
  endfacet
  facet normal 0 0 1
    outer loop
      vertex 0.690695 10.9783 0
      vertex 0.634184 10.0801 0
      vertex 1.89255 9.9211 0
    endloop
  endfacet
  facet normal 0 0 1
    outer loop
      vertex 0.690695 10.9783 0
      vertex -0.634184 10.0801 0
      vertex 0.634184 10.0801 0
    endloop
  endfacet
  facet normal -0 0 1
    outer loop
      vertex -0.690695 10.9783 0
      vertex -0.634184 10.0801 0
      vertex 0.690695 10.9783 0
    endloop
  endfacet
  facet normal 0 0 1
    outer loop
      vertex -0.690695 10.9783 0
      vertex -1.89255 9.9211 0
      vertex -0.634184 10.0801 0
    endloop
  endfacet
  facet normal -0 0 1
    outer loop
      vertex -2.06119 10.8052 0
      vertex -1.89255 9.9211 0
      vertex -0.690695 10.9783 0
    endloop
  endfacet
  facet normal 0 0 1
    outer loop
      vertex -2.06119 10.8052 0
      vertex -3.12107 9.60567 0
      vertex -1.89255 9.9211 0
    endloop
  endfacet
  facet normal -0 0 1
    outer loop
      vertex -3.39919 10.4616 0
      vertex -3.12107 9.60567 0
      vertex -2.06119 10.8052 0
    endloop
  endfacet
  facet normal 0 0 1
    outer loop
      vertex -3.39919 10.4616 0
      vertex -4.30037 9.13875 0
      vertex -3.12107 9.60567 0
    endloop
  endfacet
  facet normal -0 0 1
    outer loop
      vertex -4.68357 9.9531 0
      vertex -4.30037 9.13875 0
      vertex -3.39919 10.4616 0
    endloop
  endfacet
  facet normal 0 0 1
    outer loop
      vertex -4.68357 9.9531 0
      vertex -5.41185 8.52771 0
      vertex -4.30037 9.13875 0
    endloop
  endfacet
  facet normal -0 0 1
    outer loop
      vertex -5.89409 9.28761 0
      vertex -5.41185 8.52771 0
      vertex -4.68357 9.9531 0
    endloop
  endfacet
  facet normal 0 0 1
    outer loop
      vertex -5.89409 9.28761 0
      vertex -6.43798 7.78218 0
      vertex -5.41185 8.52771 0
    endloop
  endfacet
  facet normal -0 0 1
    outer loop
      vertex -7.01166 8.47565 0
      vertex -6.43798 7.78218 0
      vertex -5.89409 9.28761 0
    endloop
  endfacet
  facet normal 0 0 1
    outer loop
      vertex -7.01166 8.47565 0
      vertex -7.36258 6.91393 0
      vertex -6.43798 7.78218 0
    endloop
  endfacet
  facet normal -0 0 1
    outer loop
      vertex -8.01865 7.53002 0
      vertex -7.36258 6.91393 0
      vertex -7.01166 8.47565 0
    endloop
  endfacet
  facet normal 0 0 1
    outer loop
      vertex -8.01865 7.53002 0
      vertex -8.17107 5.93663 0
      vertex -7.36258 6.91393 0
    endloop
  endfacet
  facet normal -0 0 1
    outer loop
      vertex -8.89919 6.46564 0
      vertex -8.17107 5.93663 0
      vertex -8.01865 7.53002 0
    endloop
  endfacet
  facet normal 0 0 1
    outer loop
      vertex -8.17107 5.93663 0
      vertex -8.89919 6.46564 0
      vertex -8.8507 4.86571 0
    endloop
  endfacet
  facet normal -0 0 1
    outer loop
      vertex -9.63937 5.29929 0
      vertex -8.8507 4.86571 0
      vertex -8.89919 6.46564 0
    endloop
  endfacet
  facet normal 0 0 1
    outer loop
      vertex -8.8507 4.86571 0
      vertex -9.63937 5.29929 0
      vertex -9.39074 3.71806 0
    endloop
  endfacet
  facet normal -0 0 1
    outer loop
      vertex -10.2275 4.04937 0
      vertex -9.39074 3.71806 0
      vertex -9.63937 5.29929 0
    endloop
  endfacet
  facet normal 0 0 1
    outer loop
      vertex -9.39074 3.71806 0
      vertex -10.2275 4.04937 0
      vertex -9.78269 2.51177 0
    endloop
  endfacet
  facet normal 0 0 1
    outer loop
      vertex -9.78269 2.51177 0
      vertex -10.6544 2.73559 0
      vertex -10.0204 1.26587 0
    endloop
  endfacet
  facet normal -0 0 1
    outer loop
      vertex -10.6544 2.73559 0
      vertex -9.78269 2.51177 0
      vertex -10.2275 4.04937 0
    endloop
  endfacet
  facet normal -0 0 1
    outer loop
      vertex 9.78269 -2.51177 0
      vertex 10.6544 -2.73559 0
      vertex 10.0204 -1.26587 0
    endloop
  endfacet
  facet normal 0 0 1
    outer loop
      vertex 10.6544 -2.73559 0
      vertex 9.78269 -2.51177 0
      vertex 10.2275 -4.04937 0
    endloop
  endfacet
  facet normal -0 0 1
    outer loop
      vertex 9.39074 -3.71806 0
      vertex 10.2275 -4.04937 0
      vertex 9.78269 -2.51177 0
    endloop
  endfacet
  facet normal 0 0 1
    outer loop
      vertex 10.2275 -4.04937 0
      vertex 9.39074 -3.71806 0
      vertex 9.63937 -5.29929 0
    endloop
  endfacet
  facet normal -0 0 1
    outer loop
      vertex 8.8507 -4.86571 0
      vertex 9.63937 -5.29929 0
      vertex 9.39074 -3.71806 0
    endloop
  endfacet
  facet normal 0 0 1
    outer loop
      vertex 9.63937 -5.29929 0
      vertex 8.8507 -4.86571 0
      vertex 8.89919 -6.46564 0
    endloop
  endfacet
  facet normal -0 0 1
    outer loop
      vertex 8.17107 -5.93663 0
      vertex 8.89919 -6.46564 0
      vertex 8.8507 -4.86571 0
    endloop
  endfacet
  facet normal 0 0 1
    outer loop
      vertex 8.17107 -5.93663 0
      vertex 8.01865 -7.53002 0
      vertex 8.89919 -6.46564 0
    endloop
  endfacet
  facet normal -0 0 1
    outer loop
      vertex 7.36258 -6.91393 0
      vertex 8.01865 -7.53002 0
      vertex 8.17107 -5.93663 0
    endloop
  endfacet
  facet normal 0 0 1
    outer loop
      vertex 7.36258 -6.91393 0
      vertex 7.01166 -8.47565 0
      vertex 8.01865 -7.53002 0
    endloop
  endfacet
  facet normal -0 0 1
    outer loop
      vertex 6.43798 -7.78218 0
      vertex 7.01166 -8.47565 0
      vertex 7.36258 -6.91393 0
    endloop
  endfacet
  facet normal 0 0 1
    outer loop
      vertex 6.43798 -7.78218 0
      vertex 5.89409 -9.28761 0
      vertex 7.01166 -8.47565 0
    endloop
  endfacet
  facet normal -0 0 1
    outer loop
      vertex 5.41185 -8.52771 0
      vertex 5.89409 -9.28761 0
      vertex 6.43798 -7.78218 0
    endloop
  endfacet
  facet normal 0 0 1
    outer loop
      vertex 5.41185 -8.52771 0
      vertex 4.68357 -9.9531 0
      vertex 5.89409 -9.28761 0
    endloop
  endfacet
  facet normal -0 0 1
    outer loop
      vertex 4.30037 -9.13875 0
      vertex 4.68357 -9.9531 0
      vertex 5.41185 -8.52771 0
    endloop
  endfacet
  facet normal 0 0 1
    outer loop
      vertex 4.30037 -9.13875 0
      vertex 3.39919 -10.4616 0
      vertex 4.68357 -9.9531 0
    endloop
  endfacet
  facet normal -0 0 1
    outer loop
      vertex 3.12107 -9.60567 0
      vertex 3.39919 -10.4616 0
      vertex 4.30037 -9.13875 0
    endloop
  endfacet
  facet normal 0 0 1
    outer loop
      vertex 3.12107 -9.60567 0
      vertex 2.06119 -10.8052 0
      vertex 3.39919 -10.4616 0
    endloop
  endfacet
  facet normal -0 0 1
    outer loop
      vertex 1.89255 -9.9211 0
      vertex 2.06119 -10.8052 0
      vertex 3.12107 -9.60567 0
    endloop
  endfacet
  facet normal 0 0 1
    outer loop
      vertex 1.89255 -9.9211 0
      vertex 0.690695 -10.9783 0
      vertex 2.06119 -10.8052 0
    endloop
  endfacet
  facet normal -0 0 1
    outer loop
      vertex 0.634184 -10.0801 0
      vertex 0.690695 -10.9783 0
      vertex 1.89255 -9.9211 0
    endloop
  endfacet
  facet normal -0 0 1
    outer loop
      vertex -0.634184 -10.0801 0
      vertex 0.690695 -10.9783 0
      vertex 0.634184 -10.0801 0
    endloop
  endfacet
  facet normal 0 0 1
    outer loop
      vertex -0.634184 -10.0801 0
      vertex -0.690695 -10.9783 0
      vertex 0.690695 -10.9783 0
    endloop
  endfacet
  facet normal 0 0 1
    outer loop
      vertex -1.89255 -9.9211 0
      vertex -0.690695 -10.9783 0
      vertex -0.634184 -10.0801 0
    endloop
  endfacet
  facet normal 0 0 1
    outer loop
      vertex -1.89255 -9.9211 0
      vertex -2.06119 -10.8052 0
      vertex -0.690695 -10.9783 0
    endloop
  endfacet
  facet normal 0 0 1
    outer loop
      vertex -3.12107 -9.60567 0
      vertex -2.06119 -10.8052 0
      vertex -1.89255 -9.9211 0
    endloop
  endfacet
  facet normal 0 0 1
    outer loop
      vertex -3.12107 -9.60567 0
      vertex -3.39919 -10.4616 0
      vertex -2.06119 -10.8052 0
    endloop
  endfacet
  facet normal 0 0 1
    outer loop
      vertex -4.30037 -9.13875 0
      vertex -3.39919 -10.4616 0
      vertex -3.12107 -9.60567 0
    endloop
  endfacet
  facet normal 0 0 1
    outer loop
      vertex -4.30037 -9.13875 0
      vertex -4.68357 -9.9531 0
      vertex -3.39919 -10.4616 0
    endloop
  endfacet
  facet normal 0 0 1
    outer loop
      vertex -5.41185 -8.52771 0
      vertex -4.68357 -9.9531 0
      vertex -4.30037 -9.13875 0
    endloop
  endfacet
  facet normal 0 0 1
    outer loop
      vertex -5.41185 -8.52771 0
      vertex -5.89409 -9.28761 0
      vertex -4.68357 -9.9531 0
    endloop
  endfacet
  facet normal 0 0 1
    outer loop
      vertex -6.43798 -7.78218 0
      vertex -5.89409 -9.28761 0
      vertex -5.41185 -8.52771 0
    endloop
  endfacet
  facet normal 0 0 1
    outer loop
      vertex -6.43798 -7.78218 0
      vertex -7.01166 -8.47565 0
      vertex -5.89409 -9.28761 0
    endloop
  endfacet
  facet normal 0 0 1
    outer loop
      vertex -7.36258 -6.91393 0
      vertex -7.01166 -8.47565 0
      vertex -6.43798 -7.78218 0
    endloop
  endfacet
  facet normal 0 0 1
    outer loop
      vertex -7.36258 -6.91393 0
      vertex -8.01865 -7.53002 0
      vertex -7.01166 -8.47565 0
    endloop
  endfacet
  facet normal 0 0 1
    outer loop
      vertex -8.17107 -5.93663 0
      vertex -8.01865 -7.53002 0
      vertex -7.36258 -6.91393 0
    endloop
  endfacet
  facet normal 0 0 1
    outer loop
      vertex -8.89919 -6.46564 0
      vertex -8.17107 -5.93663 0
      vertex -8.8507 -4.86571 0
    endloop
  endfacet
  facet normal 0 0 1
    outer loop
      vertex -8.17107 -5.93663 0
      vertex -8.89919 -6.46564 0
      vertex -8.01865 -7.53002 0
    endloop
  endfacet
  facet normal 0 0 1
    outer loop
      vertex -9.63937 -5.29929 0
      vertex -8.8507 -4.86571 0
      vertex -9.39074 -3.71806 0
    endloop
  endfacet
  facet normal 0 0 1
    outer loop
      vertex -8.8507 -4.86571 0
      vertex -9.63937 -5.29929 0
      vertex -8.89919 -6.46564 0
    endloop
  endfacet
  facet normal 0 0 1
    outer loop
      vertex -10.2275 -4.04937 0
      vertex -9.39074 -3.71806 0
      vertex -9.78269 -2.51177 0
    endloop
  endfacet
  facet normal 0 0 1
    outer loop
      vertex -10.6544 -2.73559 0
      vertex -9.78269 -2.51177 0
      vertex -10.0204 -1.26587 0
    endloop
  endfacet
  facet normal 0 0 1
    outer loop
      vertex -9.39074 -3.71806 0
      vertex -10.2275 -4.04937 0
      vertex -9.63937 -5.29929 0
    endloop
  endfacet
  facet normal 0 0 1
    outer loop
      vertex -10.9133 -1.37866 0
      vertex -10.0204 -1.26587 0
      vertex -10.1 0 0
    endloop
  endfacet
  facet normal -0 0 1
    outer loop
      vertex -10.9133 1.37866 0
      vertex -10.0204 1.26587 0
      vertex -10.6544 2.73559 0
    endloop
  endfacet
  facet normal 0 0 1
    outer loop
      vertex -10.0204 1.26587 0
      vertex -10.9133 1.37866 0
      vertex -10.1 0 0
    endloop
  endfacet
  facet normal 0 0 1
    outer loop
      vertex -9.78269 -2.51177 0
      vertex -10.6544 -2.73559 0
      vertex -10.2275 -4.04937 0
    endloop
  endfacet
  facet normal 0 0 1
    outer loop
      vertex -11 0 0
      vertex -10.1 0 0
      vertex -10.9133 1.37866 0
    endloop
  endfacet
  facet normal 0 0 1
    outer loop
      vertex -10.0204 -1.26587 0
      vertex -10.9133 -1.37866 0
      vertex -10.6544 -2.73559 0
    endloop
  endfacet
  facet normal 0 0 1
    outer loop
      vertex -10.1 0 0
      vertex -11 0 0
      vertex -10.9133 -1.37866 0
    endloop
  endfacet
  facet normal -0.125309 0.992118 0
    outer loop
      vertex -0.690695 10.9783 -4
      vertex -2.06119 10.8052 0
      vertex -0.690695 10.9783 0
    endloop
  endfacet
  facet normal -0.125309 0.992118 0
    outer loop
      vertex -2.06119 10.8052 0
      vertex -0.690695 10.9783 -4
      vertex -2.06119 10.8052 -4
    endloop
  endfacet
  facet normal 0 0 -1
    outer loop
      vertex 10.9133 -1.37866 -4
      vertex 10.9133 1.37866 -4
      vertex 11 0 -4
    endloop
  endfacet
  facet normal 0 0 -1
    outer loop
      vertex 10.6544 -2.73559 -4
      vertex 10.9133 1.37866 -4
      vertex 10.9133 -1.37866 -4
    endloop
  endfacet
  facet normal 0 0 -1
    outer loop
      vertex 10.6544 -2.73559 -4
      vertex 10.6544 2.73559 -4
      vertex 10.9133 1.37866 -4
    endloop
  endfacet
  facet normal 0 0 -1
    outer loop
      vertex 10.2275 -4.04937 -4
      vertex 10.6544 2.73559 -4
      vertex 10.6544 -2.73559 -4
    endloop
  endfacet
  facet normal 0 0 -1
    outer loop
      vertex 10.2275 -4.04937 -4
      vertex 10.2275 4.04937 -4
      vertex 10.6544 2.73559 -4
    endloop
  endfacet
  facet normal 0 0 -1
    outer loop
      vertex 9.63937 -5.29929 -4
      vertex 10.2275 4.04937 -4
      vertex 10.2275 -4.04937 -4
    endloop
  endfacet
  facet normal 0 0 -1
    outer loop
      vertex 9.63937 -5.29929 -4
      vertex 9.63937 5.29929 -4
      vertex 10.2275 4.04937 -4
    endloop
  endfacet
  facet normal 0 0 -1
    outer loop
      vertex 8.89919 -6.46564 -4
      vertex 9.63937 5.29929 -4
      vertex 9.63937 -5.29929 -4
    endloop
  endfacet
  facet normal 0 0 -1
    outer loop
      vertex 8.89919 -6.46564 -4
      vertex 8.89919 6.46564 -4
      vertex 9.63937 5.29929 -4
    endloop
  endfacet
  facet normal 0 0 -1
    outer loop
      vertex 8.01865 -7.53002 -4
      vertex 8.89919 6.46564 -4
      vertex 8.89919 -6.46564 -4
    endloop
  endfacet
  facet normal 0 0 -1
    outer loop
      vertex 8.01865 -7.53002 -4
      vertex 8.01865 7.53002 -4
      vertex 8.89919 6.46564 -4
    endloop
  endfacet
  facet normal 0 0 -1
    outer loop
      vertex 7.01166 -8.47565 -4
      vertex 8.01865 7.53002 -4
      vertex 8.01865 -7.53002 -4
    endloop
  endfacet
  facet normal 0 0 -1
    outer loop
      vertex 7.01166 -8.47565 -4
      vertex 7.01166 8.47565 -4
      vertex 8.01865 7.53002 -4
    endloop
  endfacet
  facet normal 0 0 -1
    outer loop
      vertex 5.89409 -9.28761 -4
      vertex 7.01166 8.47565 -4
      vertex 7.01166 -8.47565 -4
    endloop
  endfacet
  facet normal 0 0 -1
    outer loop
      vertex 5.89409 -9.28761 -4
      vertex 5.89409 9.28761 -4
      vertex 7.01166 8.47565 -4
    endloop
  endfacet
  facet normal 0 0 -1
    outer loop
      vertex 4.68357 -9.9531 -4
      vertex 5.89409 9.28761 -4
      vertex 5.89409 -9.28761 -4
    endloop
  endfacet
  facet normal 0 0 -1
    outer loop
      vertex 4.68357 -9.9531 -4
      vertex 4.68357 9.9531 -4
      vertex 5.89409 9.28761 -4
    endloop
  endfacet
  facet normal 0 0 -1
    outer loop
      vertex 3.39919 -10.4616 -4
      vertex 4.68357 9.9531 -4
      vertex 4.68357 -9.9531 -4
    endloop
  endfacet
  facet normal 0 0 -1
    outer loop
      vertex 3.39919 -10.4616 -4
      vertex 3.39919 10.4616 -4
      vertex 4.68357 9.9531 -4
    endloop
  endfacet
  facet normal 0 0 -1
    outer loop
      vertex 2.06119 -10.8052 -4
      vertex 3.39919 10.4616 -4
      vertex 3.39919 -10.4616 -4
    endloop
  endfacet
  facet normal 0 0 -1
    outer loop
      vertex 2.06119 -10.8052 -4
      vertex 2.06119 10.8052 -4
      vertex 3.39919 10.4616 -4
    endloop
  endfacet
  facet normal 0 0 -1
    outer loop
      vertex 0.690695 -10.9783 -4
      vertex 2.06119 10.8052 -4
      vertex 2.06119 -10.8052 -4
    endloop
  endfacet
  facet normal 0 0 -1
    outer loop
      vertex 0.690695 -10.9783 -4
      vertex 0.690695 10.9783 -4
      vertex 2.06119 10.8052 -4
    endloop
  endfacet
  facet normal 0 0 -1
    outer loop
      vertex -0.690695 -10.9783 -4
      vertex 0.690695 10.9783 -4
      vertex 0.690695 -10.9783 -4
    endloop
  endfacet
  facet normal 0 0 -1
    outer loop
      vertex -0.690695 -10.9783 -4
      vertex -0.690695 10.9783 -4
      vertex 0.690695 10.9783 -4
    endloop
  endfacet
  facet normal 0 0 -1
    outer loop
      vertex -2.06119 -10.8052 -4
      vertex -0.690695 10.9783 -4
      vertex -0.690695 -10.9783 -4
    endloop
  endfacet
  facet normal 0 0 -1
    outer loop
      vertex -2.06119 -10.8052 -4
      vertex -2.06119 10.8052 -4
      vertex -0.690695 10.9783 -4
    endloop
  endfacet
  facet normal 0 0 -1
    outer loop
      vertex -3.39919 -10.4616 -4
      vertex -2.06119 10.8052 -4
      vertex -2.06119 -10.8052 -4
    endloop
  endfacet
  facet normal 0 0 -1
    outer loop
      vertex -3.39919 -10.4616 -4
      vertex -3.39919 10.4616 -4
      vertex -2.06119 10.8052 -4
    endloop
  endfacet
  facet normal 0 0 -1
    outer loop
      vertex -4.68357 -9.9531 -4
      vertex -3.39919 10.4616 -4
      vertex -3.39919 -10.4616 -4
    endloop
  endfacet
  facet normal 0 0 -1
    outer loop
      vertex -4.68357 -9.9531 -4
      vertex -4.68357 9.9531 -4
      vertex -3.39919 10.4616 -4
    endloop
  endfacet
  facet normal 0 0 -1
    outer loop
      vertex -5.89409 -9.28761 -4
      vertex -4.68357 9.9531 -4
      vertex -4.68357 -9.9531 -4
    endloop
  endfacet
  facet normal 0 0 -1
    outer loop
      vertex -5.89409 -9.28761 -4
      vertex -5.89409 9.28761 -4
      vertex -4.68357 9.9531 -4
    endloop
  endfacet
  facet normal 0 0 -1
    outer loop
      vertex -7.01166 -8.47565 -4
      vertex -5.89409 9.28761 -4
      vertex -5.89409 -9.28761 -4
    endloop
  endfacet
  facet normal 0 0 -1
    outer loop
      vertex -7.01166 -8.47565 -4
      vertex -7.01166 8.47565 -4
      vertex -5.89409 9.28761 -4
    endloop
  endfacet
  facet normal 0 0 -1
    outer loop
      vertex -8.01865 -7.53002 -4
      vertex -7.01166 8.47565 -4
      vertex -7.01166 -8.47565 -4
    endloop
  endfacet
  facet normal 0 0 -1
    outer loop
      vertex -8.01865 -7.53002 -4
      vertex -8.01865 7.53002 -4
      vertex -7.01166 8.47565 -4
    endloop
  endfacet
  facet normal 0 0 -1
    outer loop
      vertex -8.89919 -6.46564 -4
      vertex -8.01865 7.53002 -4
      vertex -8.01865 -7.53002 -4
    endloop
  endfacet
  facet normal 0 0 -1
    outer loop
      vertex -8.89919 -6.46564 -4
      vertex -8.89919 6.46564 -4
      vertex -8.01865 7.53002 -4
    endloop
  endfacet
  facet normal 0 0 -1
    outer loop
      vertex -9.63937 -5.29929 -4
      vertex -8.89919 6.46564 -4
      vertex -8.89919 -6.46564 -4
    endloop
  endfacet
  facet normal 0 0 -1
    outer loop
      vertex -9.63937 -5.29929 -4
      vertex -9.63937 5.29929 -4
      vertex -8.89919 6.46564 -4
    endloop
  endfacet
  facet normal 0 0 -1
    outer loop
      vertex -10.2275 -4.04937 -4
      vertex -9.63937 5.29929 -4
      vertex -9.63937 -5.29929 -4
    endloop
  endfacet
  facet normal 0 0 -1
    outer loop
      vertex -10.2275 -4.04937 -4
      vertex -10.2275 4.04937 -4
      vertex -9.63937 5.29929 -4
    endloop
  endfacet
  facet normal 0 0 -1
    outer loop
      vertex -10.6544 -2.73559 -4
      vertex -10.2275 4.04937 -4
      vertex -10.2275 -4.04937 -4
    endloop
  endfacet
  facet normal 0 0 -1
    outer loop
      vertex -10.6544 -2.73559 -4
      vertex -10.6544 2.73559 -4
      vertex -10.2275 4.04937 -4
    endloop
  endfacet
  facet normal 0 0 -1
    outer loop
      vertex -10.9133 -1.37866 -4
      vertex -10.6544 2.73559 -4
      vertex -10.6544 -2.73559 -4
    endloop
  endfacet
  facet normal 0 0 -1
    outer loop
      vertex -10.9133 -1.37866 -4
      vertex -10.9133 1.37866 -4
      vertex -10.6544 2.73559 -4
    endloop
  endfacet
  facet normal 0 -0 -1
    outer loop
      vertex -10.9133 1.37866 -4
      vertex -10.9133 -1.37866 -4
      vertex -11 0 -4
    endloop
  endfacet
  facet normal 0.125309 -0.992118 0
    outer loop
      vertex 0.690695 -10.9783 -4
      vertex 2.06119 -10.8052 0
      vertex 0.690695 -10.9783 0
    endloop
  endfacet
  facet normal 0.125309 -0.992118 0
    outer loop
      vertex 2.06119 -10.8052 0
      vertex 0.690695 -10.9783 -4
      vertex 2.06119 -10.8052 -4
    endloop
  endfacet
  facet normal 0.951051 0.309035 0
    outer loop
      vertex 10.6544 2.73559 0
      vertex 10.2275 4.04937 -4
      vertex 10.2275 4.04937 0
    endloop
  endfacet
  facet normal 0.951051 0.309035 0
    outer loop
      vertex 10.2275 4.04937 -4
      vertex 10.6544 2.73559 0
      vertex 10.6544 2.73559 -4
    endloop
  endfacet
  facet normal 0.98228 0.187417 0
    outer loop
      vertex 10.9133 1.37866 0
      vertex 10.6544 2.73559 -4
      vertex 10.6544 2.73559 0
    endloop
  endfacet
  facet normal 0.98228 0.187417 0
    outer loop
      vertex 10.6544 2.73559 -4
      vertex 10.9133 1.37866 0
      vertex 10.9133 1.37866 -4
    endloop
  endfacet
  facet normal 0.77051 0.637428 0
    outer loop
      vertex 8.89919 6.46564 0
      vertex 8.01865 7.53002 -4
      vertex 8.01865 7.53002 0
    endloop
  endfacet
  facet normal 0.77051 0.637428 0
    outer loop
      vertex 8.01865 7.53002 -4
      vertex 8.89919 6.46564 0
      vertex 8.89919 6.46564 -4
    endloop
  endfacet
  facet normal 0.844331 0.535823 0
    outer loop
      vertex 9.63937 5.29929 0
      vertex 8.89919 6.46564 -4
      vertex 8.89919 6.46564 0
    endloop
  endfacet
  facet normal 0.844331 0.535823 0
    outer loop
      vertex 8.89919 6.46564 -4
      vertex 9.63937 5.29929 0
      vertex 9.63937 5.29929 -4
    endloop
  endfacet
  facet normal 0.125309 0.992118 -0
    outer loop
      vertex 2.06119 10.8052 -4
      vertex 0.690695 10.9783 0
      vertex 2.06119 10.8052 0
    endloop
  endfacet
  facet normal 0.125309 0.992118 0
    outer loop
      vertex 0.690695 10.9783 0
      vertex 2.06119 10.8052 -4
      vertex 0.690695 10.9783 -4
    endloop
  endfacet
  facet normal 0.587784 0.809018 -0
    outer loop
      vertex 7.01166 8.47565 -4
      vertex 5.89409 9.28761 0
      vertex 7.01166 8.47565 0
    endloop
  endfacet
  facet normal 0.587784 0.809018 0
    outer loop
      vertex 5.89409 9.28761 0
      vertex 7.01166 8.47565 -4
      vertex 5.89409 9.28761 -4
    endloop
  endfacet
  facet normal -0.844331 0.535823 0
    outer loop
      vertex -9.63937 5.29929 -4
      vertex -8.89919 6.46564 0
      vertex -8.89919 6.46564 -4
    endloop
  endfacet
  facet normal -0.844331 0.535823 0
    outer loop
      vertex -8.89919 6.46564 0
      vertex -9.63937 5.29929 -4
      vertex -9.63937 5.29929 0
    endloop
  endfacet
  facet normal -0.77051 0.637428 0
    outer loop
      vertex -8.89919 6.46564 -4
      vertex -8.01865 7.53002 0
      vertex -8.01865 7.53002 -4
    endloop
  endfacet
  facet normal -0.77051 0.637428 0
    outer loop
      vertex -8.01865 7.53002 0
      vertex -8.89919 6.46564 -4
      vertex -8.89919 6.46564 0
    endloop
  endfacet
  facet normal -0.951051 0.309035 0
    outer loop
      vertex -10.6544 2.73559 -4
      vertex -10.2275 4.04937 0
      vertex -10.2275 4.04937 -4
    endloop
  endfacet
  facet normal -0.951051 0.309035 0
    outer loop
      vertex -10.2275 4.04937 0
      vertex -10.6544 2.73559 -4
      vertex -10.6544 2.73559 0
    endloop
  endfacet
  facet normal -0.98228 0.187417 0
    outer loop
      vertex -10.9133 1.37866 -4
      vertex -10.6544 2.73559 0
      vertex -10.6544 2.73559 -4
    endloop
  endfacet
  facet normal -0.98228 0.187417 0
    outer loop
      vertex -10.6544 2.73559 0
      vertex -10.9133 1.37866 -4
      vertex -10.9133 1.37866 0
    endloop
  endfacet
  facet normal -0.481754 0.876306 0
    outer loop
      vertex -4.68357 9.9531 -4
      vertex -5.89409 9.28761 0
      vertex -4.68357 9.9531 0
    endloop
  endfacet
  facet normal -0.481754 0.876306 0
    outer loop
      vertex -5.89409 9.28761 0
      vertex -4.68357 9.9531 -4
      vertex -5.89409 9.28761 -4
    endloop
  endfacet
  facet normal -0.587784 0.809018 0
    outer loop
      vertex -5.89409 9.28761 -4
      vertex -7.01166 8.47565 0
      vertex -5.89409 9.28761 0
    endloop
  endfacet
  facet normal -0.587784 0.809018 0
    outer loop
      vertex -7.01166 8.47565 0
      vertex -5.89409 9.28761 -4
      vertex -7.01166 8.47565 -4
    endloop
  endfacet
  facet normal -0.248731 0.968573 0
    outer loop
      vertex -2.06119 10.8052 -4
      vertex -3.39919 10.4616 0
      vertex -2.06119 10.8052 0
    endloop
  endfacet
  facet normal -0.248731 0.968573 0
    outer loop
      vertex -3.39919 10.4616 0
      vertex -2.06119 10.8052 -4
      vertex -3.39919 10.4616 -4
    endloop
  endfacet
  facet normal 0.998028 -0.0627632 0
    outer loop
      vertex 10.9133 -1.37866 0
      vertex 11 0 -4
      vertex 11 0 0
    endloop
  endfacet
  facet normal 0.998028 -0.0627632 0
    outer loop
      vertex 11 0 -4
      vertex 10.9133 -1.37866 0
      vertex 10.9133 -1.37866 -4
    endloop
  endfacet
  facet normal 0.904838 -0.425757 0
    outer loop
      vertex 9.63937 -5.29929 0
      vertex 10.2275 -4.04937 -4
      vertex 10.2275 -4.04937 0
    endloop
  endfacet
  facet normal 0.904838 -0.425757 0
    outer loop
      vertex 10.2275 -4.04937 -4
      vertex 9.63937 -5.29929 0
      vertex 9.63937 -5.29929 -4
    endloop
  endfacet
  facet normal -0.684548 -0.728967 0
    outer loop
      vertex -8.01865 -7.53002 -4
      vertex -7.01166 -8.47565 0
      vertex -8.01865 -7.53002 0
    endloop
  endfacet
  facet normal -0.684548 -0.728967 -0
    outer loop
      vertex -7.01166 -8.47565 0
      vertex -8.01865 -7.53002 -4
      vertex -7.01166 -8.47565 -4
    endloop
  endfacet
  facet normal -0.904838 -0.425757 0
    outer loop
      vertex -9.63937 -5.29929 -4
      vertex -10.2275 -4.04937 0
      vertex -10.2275 -4.04937 -4
    endloop
  endfacet
  facet normal -0.904838 -0.425757 0
    outer loop
      vertex -10.2275 -4.04937 0
      vertex -9.63937 -5.29929 -4
      vertex -9.63937 -5.29929 0
    endloop
  endfacet
  facet normal -0.844331 -0.535823 0
    outer loop
      vertex -8.89919 -6.46564 -4
      vertex -9.63937 -5.29929 0
      vertex -9.63937 -5.29929 -4
    endloop
  endfacet
  facet normal -0.844331 -0.535823 0
    outer loop
      vertex -9.63937 -5.29929 0
      vertex -8.89919 -6.46564 -4
      vertex -8.89919 -6.46564 0
    endloop
  endfacet
  facet normal 0.481754 -0.876306 0
    outer loop
      vertex 4.68357 -9.9531 -4
      vertex 5.89409 -9.28761 0
      vertex 4.68357 -9.9531 0
    endloop
  endfacet
  facet normal 0.481754 -0.876306 0
    outer loop
      vertex 5.89409 -9.28761 0
      vertex 4.68357 -9.9531 -4
      vertex 5.89409 -9.28761 -4
    endloop
  endfacet
  facet normal 0.951051 -0.309035 0
    outer loop
      vertex 10.2275 -4.04937 0
      vertex 10.6544 -2.73559 -4
      vertex 10.6544 -2.73559 0
    endloop
  endfacet
  facet normal 0.951051 -0.309035 0
    outer loop
      vertex 10.6544 -2.73559 -4
      vertex 10.2275 -4.04937 0
      vertex 10.2275 -4.04937 -4
    endloop
  endfacet
  facet normal -0.77051 -0.637428 0
    outer loop
      vertex -8.01865 -7.53002 -4
      vertex -8.89919 -6.46564 0
      vertex -8.89919 -6.46564 -4
    endloop
  endfacet
  facet normal -0.77051 -0.637428 0
    outer loop
      vertex -8.89919 -6.46564 0
      vertex -8.01865 -7.53002 -4
      vertex -8.01865 -7.53002 0
    endloop
  endfacet
  facet normal -0.98228 -0.187417 0
    outer loop
      vertex -10.6544 -2.73559 -4
      vertex -10.9133 -1.37866 0
      vertex -10.9133 -1.37866 -4
    endloop
  endfacet
  facet normal -0.98228 -0.187417 0
    outer loop
      vertex -10.9133 -1.37866 0
      vertex -10.6544 -2.73559 -4
      vertex -10.6544 -2.73559 0
    endloop
  endfacet
  facet normal -0.998028 -0.0627632 0
    outer loop
      vertex -10.9133 -1.37866 -4
      vertex -11 0 0
      vertex -11 0 -4
    endloop
  endfacet
  facet normal -0.998028 -0.0627632 0
    outer loop
      vertex -11 0 0
      vertex -10.9133 -1.37866 -4
      vertex -10.9133 -1.37866 0
    endloop
  endfacet
  facet normal -0.951051 -0.309035 0
    outer loop
      vertex -10.2275 -4.04937 -4
      vertex -10.6544 -2.73559 0
      vertex -10.6544 -2.73559 -4
    endloop
  endfacet
  facet normal -0.951051 -0.309035 0
    outer loop
      vertex -10.6544 -2.73559 0
      vertex -10.2275 -4.04937 -4
      vertex -10.2275 -4.04937 0
    endloop
  endfacet
  facet normal 0.684548 -0.728967 0
    outer loop
      vertex 7.01166 -8.47565 -4
      vertex 8.01865 -7.53002 0
      vertex 7.01166 -8.47565 0
    endloop
  endfacet
  facet normal 0.684548 -0.728967 0
    outer loop
      vertex 8.01865 -7.53002 0
      vertex 7.01166 -8.47565 -4
      vertex 8.01865 -7.53002 -4
    endloop
  endfacet
  facet normal 0.368111 -0.929782 0
    outer loop
      vertex 3.39919 -10.4616 -4
      vertex 4.68357 -9.9531 0
      vertex 3.39919 -10.4616 0
    endloop
  endfacet
  facet normal 0.368111 -0.929782 0
    outer loop
      vertex 4.68357 -9.9531 0
      vertex 3.39919 -10.4616 -4
      vertex 4.68357 -9.9531 -4
    endloop
  endfacet
  facet normal 0.248731 -0.968573 0
    outer loop
      vertex 2.06119 -10.8052 -4
      vertex 3.39919 -10.4616 0
      vertex 2.06119 -10.8052 0
    endloop
  endfacet
  facet normal 0.248731 -0.968573 0
    outer loop
      vertex 3.39919 -10.4616 0
      vertex 2.06119 -10.8052 -4
      vertex 3.39919 -10.4616 -4
    endloop
  endfacet
  facet normal 0.98228 -0.187417 0
    outer loop
      vertex 10.6544 -2.73559 0
      vertex 10.9133 -1.37866 -4
      vertex 10.9133 -1.37866 0
    endloop
  endfacet
  facet normal 0.98228 -0.187417 0
    outer loop
      vertex 10.9133 -1.37866 -4
      vertex 10.6544 -2.73559 0
      vertex 10.6544 -2.73559 -4
    endloop
  endfacet
  facet normal 0.844331 -0.535823 0
    outer loop
      vertex 8.89919 -6.46564 0
      vertex 9.63937 -5.29929 -4
      vertex 9.63937 -5.29929 0
    endloop
  endfacet
  facet normal 0.844331 -0.535823 0
    outer loop
      vertex 9.63937 -5.29929 -4
      vertex 8.89919 -6.46564 0
      vertex 8.89919 -6.46564 -4
    endloop
  endfacet
  facet normal 0.77051 -0.637428 0
    outer loop
      vertex 8.01865 -7.53002 0
      vertex 8.89919 -6.46564 -4
      vertex 8.89919 -6.46564 0
    endloop
  endfacet
  facet normal 0.77051 -0.637428 0
    outer loop
      vertex 8.89919 -6.46564 -4
      vertex 8.01865 -7.53002 0
      vertex 8.01865 -7.53002 -4
    endloop
  endfacet
  facet normal -0.125309 -0.992118 0
    outer loop
      vertex -2.06119 -10.8052 -4
      vertex -0.690695 -10.9783 0
      vertex -2.06119 -10.8052 0
    endloop
  endfacet
  facet normal -0.125309 -0.992118 -0
    outer loop
      vertex -0.690695 -10.9783 0
      vertex -2.06119 -10.8052 -4
      vertex -0.690695 -10.9783 -4
    endloop
  endfacet
  facet normal -0.368111 -0.929782 0
    outer loop
      vertex -4.68357 -9.9531 -4
      vertex -3.39919 -10.4616 0
      vertex -4.68357 -9.9531 0
    endloop
  endfacet
  facet normal -0.368111 -0.929782 -0
    outer loop
      vertex -3.39919 -10.4616 0
      vertex -4.68357 -9.9531 -4
      vertex -3.39919 -10.4616 -4
    endloop
  endfacet
  facet normal -0.587784 -0.809018 0
    outer loop
      vertex -7.01166 -8.47565 -4
      vertex -5.89409 -9.28761 0
      vertex -7.01166 -8.47565 0
    endloop
  endfacet
  facet normal -0.587784 -0.809018 -0
    outer loop
      vertex -5.89409 -9.28761 0
      vertex -7.01166 -8.47565 -4
      vertex -5.89409 -9.28761 -4
    endloop
  endfacet
  facet normal 0.587784 -0.809018 0
    outer loop
      vertex 5.89409 -9.28761 -4
      vertex 7.01166 -8.47565 0
      vertex 5.89409 -9.28761 0
    endloop
  endfacet
  facet normal 0.587784 -0.809018 0
    outer loop
      vertex 7.01166 -8.47565 0
      vertex 5.89409 -9.28761 -4
      vertex 7.01166 -8.47565 -4
    endloop
  endfacet
  facet normal -0.248731 -0.968573 0
    outer loop
      vertex -3.39919 -10.4616 -4
      vertex -2.06119 -10.8052 0
      vertex -3.39919 -10.4616 0
    endloop
  endfacet
  facet normal -0.248731 -0.968573 -0
    outer loop
      vertex -2.06119 -10.8052 0
      vertex -3.39919 -10.4616 -4
      vertex -2.06119 -10.8052 -4
    endloop
  endfacet
  facet normal -0.481754 -0.876306 0
    outer loop
      vertex -5.89409 -9.28761 -4
      vertex -4.68357 -9.9531 0
      vertex -5.89409 -9.28761 0
    endloop
  endfacet
  facet normal -0.481754 -0.876306 -0
    outer loop
      vertex -4.68357 -9.9531 0
      vertex -5.89409 -9.28761 -4
      vertex -4.68357 -9.9531 -4
    endloop
  endfacet
  facet normal -0.998029 -0.0627577 0
    outer loop
      vertex 10.1 0 -3
      vertex 10.0204 1.26587 0
      vertex 10.0204 1.26587 -3
    endloop
  endfacet
  facet normal -0.998029 -0.0627577 0
    outer loop
      vertex 10.0204 1.26587 0
      vertex 10.1 0 -3
      vertex 10.1 0 0
    endloop
  endfacet
  facet normal 0.998029 -0.0627577 0
    outer loop
      vertex -10.1 0 0
      vertex -10.0204 1.26587 -3
      vertex -10.0204 1.26587 0
    endloop
  endfacet
  facet normal 0.998029 -0.0627577 0
    outer loop
      vertex -10.0204 1.26587 -3
      vertex -10.1 0 0
      vertex -10.1 0 -3
    endloop
  endfacet
  facet normal 0 -1 0
    outer loop
      vertex -0.634184 10.0801 -3
      vertex 0.634184 10.0801 0
      vertex -0.634184 10.0801 0
    endloop
  endfacet
  facet normal 0 -1 -0
    outer loop
      vertex 0.634184 10.0801 0
      vertex -0.634184 10.0801 -3
      vertex 0.634184 10.0801 -3
    endloop
  endfacet
  facet normal 0 1 -0
    outer loop
      vertex 0.634184 -10.0801 -3
      vertex -0.634184 -10.0801 0
      vertex 0.634184 -10.0801 0
    endloop
  endfacet
  facet normal 0 1 0
    outer loop
      vertex -0.634184 -10.0801 0
      vertex 0.634184 -10.0801 -3
      vertex -0.634184 -10.0801 -3
    endloop
  endfacet
  facet normal -0.770514 0.637423 0
    outer loop
      vertex 7.36258 -6.91393 -3
      vertex 8.17107 -5.93663 0
      vertex 8.17107 -5.93663 -3
    endloop
  endfacet
  facet normal -0.770514 0.637423 0
    outer loop
      vertex 8.17107 -5.93663 0
      vertex 7.36258 -6.91393 -3
      vertex 7.36258 -6.91393 0
    endloop
  endfacet
  facet normal -0.684544 -0.728971 0
    outer loop
      vertex 6.43798 7.78218 -3
      vertex 7.36258 6.91393 0
      vertex 6.43798 7.78218 0
    endloop
  endfacet
  facet normal -0.684544 -0.728971 -0
    outer loop
      vertex 7.36258 6.91393 0
      vertex 6.43798 7.78218 -3
      vertex 7.36258 6.91393 -3
    endloop
  endfacet
  facet normal 0.684544 -0.728971 0
    outer loop
      vertex -7.36258 6.91393 -3
      vertex -6.43798 7.78218 0
      vertex -7.36258 6.91393 0
    endloop
  endfacet
  facet normal 0.684544 -0.728971 0
    outer loop
      vertex -6.43798 7.78218 0
      vertex -7.36258 6.91393 -3
      vertex -6.43798 7.78218 -3
    endloop
  endfacet
  facet normal 0.368126 -0.929776 0
    outer loop
      vertex -4.30037 9.13875 -3
      vertex -3.12107 9.60567 0
      vertex -4.30037 9.13875 0
    endloop
  endfacet
  facet normal 0.368126 -0.929776 0
    outer loop
      vertex -3.12107 9.60567 0
      vertex -4.30037 9.13875 -3
      vertex -3.12107 9.60567 -3
    endloop
  endfacet
  facet normal -0.904828 -0.425777 0
    outer loop
      vertex 9.39074 3.71806 -3
      vertex 8.8507 4.86571 0
      vertex 8.8507 4.86571 -3
    endloop
  endfacet
  facet normal -0.904828 -0.425777 0
    outer loop
      vertex 8.8507 4.86571 0
      vertex 9.39074 3.71806 -3
      vertex 9.39074 3.71806 0
    endloop
  endfacet
  facet normal -0.844327 -0.535829 0
    outer loop
      vertex 8.8507 4.86571 -3
      vertex 8.17107 5.93663 0
      vertex 8.17107 5.93663 -3
    endloop
  endfacet
  facet normal -0.844327 -0.535829 0
    outer loop
      vertex 8.17107 5.93663 0
      vertex 8.8507 4.86571 -3
      vertex 8.8507 4.86571 0
    endloop
  endfacet
  facet normal -0.368126 -0.929776 0
    outer loop
      vertex 3.12107 9.60567 -3
      vertex 4.30037 9.13875 0
      vertex 3.12107 9.60567 0
    endloop
  endfacet
  facet normal -0.368126 -0.929776 -0
    outer loop
      vertex 4.30037 9.13875 0
      vertex 3.12107 9.60567 -3
      vertex 4.30037 9.13875 -3
    endloop
  endfacet
  facet normal -0.481753 -0.876307 0
    outer loop
      vertex 4.30037 9.13875 -3
      vertex 5.41185 8.52771 0
      vertex 4.30037 9.13875 0
    endloop
  endfacet
  facet normal -0.481753 -0.876307 -0
    outer loop
      vertex 5.41185 8.52771 0
      vertex 4.30037 9.13875 -3
      vertex 5.41185 8.52771 -3
    endloop
  endfacet
  facet normal 0.844327 -0.535829 0
    outer loop
      vertex -8.8507 4.86571 0
      vertex -8.17107 5.93663 -3
      vertex -8.17107 5.93663 0
    endloop
  endfacet
  facet normal 0.844327 -0.535829 0
    outer loop
      vertex -8.17107 5.93663 -3
      vertex -8.8507 4.86571 0
      vertex -8.8507 4.86571 -3
    endloop
  endfacet
  facet normal 0.770514 -0.637423 0
    outer loop
      vertex -8.17107 5.93663 0
      vertex -7.36258 6.91393 -3
      vertex -7.36258 6.91393 0
    endloop
  endfacet
  facet normal 0.770514 -0.637423 0
    outer loop
      vertex -7.36258 6.91393 -3
      vertex -8.17107 5.93663 0
      vertex -8.17107 5.93663 -3
    endloop
  endfacet
  facet normal 0.587787 -0.809016 0
    outer loop
      vertex -6.43798 7.78218 -3
      vertex -5.41185 8.52771 0
      vertex -6.43798 7.78218 0
    endloop
  endfacet
  facet normal 0.587787 -0.809016 0
    outer loop
      vertex -5.41185 8.52771 0
      vertex -6.43798 7.78218 -3
      vertex -5.41185 8.52771 -3
    endloop
  endfacet
  facet normal 0.125358 -0.992112 0
    outer loop
      vertex -1.89255 9.9211 -3
      vertex -0.634184 10.0801 0
      vertex -1.89255 9.9211 0
    endloop
  endfacet
  facet normal 0.125358 -0.992112 0
    outer loop
      vertex -0.634184 10.0801 0
      vertex -1.89255 9.9211 -3
      vertex -0.634184 10.0801 -3
    endloop
  endfacet
  facet normal 0 0 1
    outer loop
      vertex 10.0204 1.26587 -3
      vertex 10.0204 -1.26587 -3
      vertex 10.1 0 -3
    endloop
  endfacet
  facet normal 0 0 1
    outer loop
      vertex 9.78269 2.51177 -3
      vertex 10.0204 -1.26587 -3
      vertex 10.0204 1.26587 -3
    endloop
  endfacet
  facet normal 0 0 1
    outer loop
      vertex 9.78269 2.51177 -3
      vertex 9.78269 -2.51177 -3
      vertex 10.0204 -1.26587 -3
    endloop
  endfacet
  facet normal 0 0 1
    outer loop
      vertex 9.39074 3.71806 -3
      vertex 9.78269 -2.51177 -3
      vertex 9.78269 2.51177 -3
    endloop
  endfacet
  facet normal 0 0 1
    outer loop
      vertex 9.39074 3.71806 -3
      vertex 9.39074 -3.71806 -3
      vertex 9.78269 -2.51177 -3
    endloop
  endfacet
  facet normal 0 0 1
    outer loop
      vertex 8.8507 4.86571 -3
      vertex 9.39074 -3.71806 -3
      vertex 9.39074 3.71806 -3
    endloop
  endfacet
  facet normal 0 0 1
    outer loop
      vertex 8.8507 4.86571 -3
      vertex 8.8507 -4.86571 -3
      vertex 9.39074 -3.71806 -3
    endloop
  endfacet
  facet normal 0 0 1
    outer loop
      vertex 8.17107 5.93663 -3
      vertex 8.8507 -4.86571 -3
      vertex 8.8507 4.86571 -3
    endloop
  endfacet
  facet normal 0 0 1
    outer loop
      vertex 8.17107 5.93663 -3
      vertex 8.17107 -5.93663 -3
      vertex 8.8507 -4.86571 -3
    endloop
  endfacet
  facet normal 0 0 1
    outer loop
      vertex 7.36258 6.91393 -3
      vertex 8.17107 -5.93663 -3
      vertex 8.17107 5.93663 -3
    endloop
  endfacet
  facet normal 0 0 1
    outer loop
      vertex 7.36258 6.91393 -3
      vertex 7.36258 -6.91393 -3
      vertex 8.17107 -5.93663 -3
    endloop
  endfacet
  facet normal 0 0 1
    outer loop
      vertex 6.43798 7.78218 -3
      vertex 7.36258 -6.91393 -3
      vertex 7.36258 6.91393 -3
    endloop
  endfacet
  facet normal 0 0 1
    outer loop
      vertex 6.43798 7.78218 -3
      vertex 6.43798 -7.78218 -3
      vertex 7.36258 -6.91393 -3
    endloop
  endfacet
  facet normal 0 0 1
    outer loop
      vertex 5.41185 8.52771 -3
      vertex 6.43798 -7.78218 -3
      vertex 6.43798 7.78218 -3
    endloop
  endfacet
  facet normal 0 0 1
    outer loop
      vertex 5.41185 8.52771 -3
      vertex 5.41185 -8.52771 -3
      vertex 6.43798 -7.78218 -3
    endloop
  endfacet
  facet normal 0 0 1
    outer loop
      vertex 4.30037 9.13875 -3
      vertex 5.41185 -8.52771 -3
      vertex 5.41185 8.52771 -3
    endloop
  endfacet
  facet normal 0 0 1
    outer loop
      vertex 4.30037 9.13875 -3
      vertex 4.30037 -9.13875 -3
      vertex 5.41185 -8.52771 -3
    endloop
  endfacet
  facet normal 0 0 1
    outer loop
      vertex 3.12107 9.60567 -3
      vertex 4.30037 -9.13875 -3
      vertex 4.30037 9.13875 -3
    endloop
  endfacet
  facet normal 0 0 1
    outer loop
      vertex 3.12107 9.60567 -3
      vertex 3.12107 -9.60567 -3
      vertex 4.30037 -9.13875 -3
    endloop
  endfacet
  facet normal 0 0 1
    outer loop
      vertex 1.89255 9.9211 -3
      vertex 3.12107 -9.60567 -3
      vertex 3.12107 9.60567 -3
    endloop
  endfacet
  facet normal 0 0 1
    outer loop
      vertex 1.89255 9.9211 -3
      vertex 1.89255 -9.9211 -3
      vertex 3.12107 -9.60567 -3
    endloop
  endfacet
  facet normal 0 0 1
    outer loop
      vertex 0.634184 10.0801 -3
      vertex 1.89255 -9.9211 -3
      vertex 1.89255 9.9211 -3
    endloop
  endfacet
  facet normal 0 0 1
    outer loop
      vertex 0.634184 10.0801 -3
      vertex 0.634184 -10.0801 -3
      vertex 1.89255 -9.9211 -3
    endloop
  endfacet
  facet normal -0 0 1
    outer loop
      vertex -0.634184 10.0801 -3
      vertex 0.634184 -10.0801 -3
      vertex 0.634184 10.0801 -3
    endloop
  endfacet
  facet normal 0 0 1
    outer loop
      vertex -0.634184 10.0801 -3
      vertex -0.634184 -10.0801 -3
      vertex 0.634184 -10.0801 -3
    endloop
  endfacet
  facet normal -0 0 1
    outer loop
      vertex -1.89255 9.9211 -3
      vertex -0.634184 -10.0801 -3
      vertex -0.634184 10.0801 -3
    endloop
  endfacet
  facet normal 0 0 1
    outer loop
      vertex -1.89255 9.9211 -3
      vertex -1.89255 -9.9211 -3
      vertex -0.634184 -10.0801 -3
    endloop
  endfacet
  facet normal -0 0 1
    outer loop
      vertex -3.12107 9.60567 -3
      vertex -1.89255 -9.9211 -3
      vertex -1.89255 9.9211 -3
    endloop
  endfacet
  facet normal 0 0 1
    outer loop
      vertex -3.12107 9.60567 -3
      vertex -3.12107 -9.60567 -3
      vertex -1.89255 -9.9211 -3
    endloop
  endfacet
  facet normal -0 0 1
    outer loop
      vertex -4.30037 9.13875 -3
      vertex -3.12107 -9.60567 -3
      vertex -3.12107 9.60567 -3
    endloop
  endfacet
  facet normal 0 0 1
    outer loop
      vertex -4.30037 9.13875 -3
      vertex -4.30037 -9.13875 -3
      vertex -3.12107 -9.60567 -3
    endloop
  endfacet
  facet normal -0 0 1
    outer loop
      vertex -5.41185 8.52771 -3
      vertex -4.30037 -9.13875 -3
      vertex -4.30037 9.13875 -3
    endloop
  endfacet
  facet normal 0 0 1
    outer loop
      vertex -5.41185 8.52771 -3
      vertex -5.41185 -8.52771 -3
      vertex -4.30037 -9.13875 -3
    endloop
  endfacet
  facet normal -0 0 1
    outer loop
      vertex -6.43798 7.78218 -3
      vertex -5.41185 -8.52771 -3
      vertex -5.41185 8.52771 -3
    endloop
  endfacet
  facet normal 0 0 1
    outer loop
      vertex -6.43798 7.78218 -3
      vertex -6.43798 -7.78218 -3
      vertex -5.41185 -8.52771 -3
    endloop
  endfacet
  facet normal -0 0 1
    outer loop
      vertex -7.36258 6.91393 -3
      vertex -6.43798 -7.78218 -3
      vertex -6.43798 7.78218 -3
    endloop
  endfacet
  facet normal 0 0 1
    outer loop
      vertex -7.36258 6.91393 -3
      vertex -7.36258 -6.91393 -3
      vertex -6.43798 -7.78218 -3
    endloop
  endfacet
  facet normal -0 0 1
    outer loop
      vertex -8.17107 5.93663 -3
      vertex -7.36258 -6.91393 -3
      vertex -7.36258 6.91393 -3
    endloop
  endfacet
  facet normal 0 0 1
    outer loop
      vertex -8.17107 5.93663 -3
      vertex -8.17107 -5.93663 -3
      vertex -7.36258 -6.91393 -3
    endloop
  endfacet
  facet normal -0 0 1
    outer loop
      vertex -8.8507 4.86571 -3
      vertex -8.17107 -5.93663 -3
      vertex -8.17107 5.93663 -3
    endloop
  endfacet
  facet normal 0 0 1
    outer loop
      vertex -8.8507 4.86571 -3
      vertex -8.8507 -4.86571 -3
      vertex -8.17107 -5.93663 -3
    endloop
  endfacet
  facet normal -0 0 1
    outer loop
      vertex -9.39074 3.71806 -3
      vertex -8.8507 -4.86571 -3
      vertex -8.8507 4.86571 -3
    endloop
  endfacet
  facet normal 0 0 1
    outer loop
      vertex -9.39074 3.71806 -3
      vertex -9.39074 -3.71806 -3
      vertex -8.8507 -4.86571 -3
    endloop
  endfacet
  facet normal -0 0 1
    outer loop
      vertex -9.78269 2.51177 -3
      vertex -9.39074 -3.71806 -3
      vertex -9.39074 3.71806 -3
    endloop
  endfacet
  facet normal 0 0 1
    outer loop
      vertex -9.78269 2.51177 -3
      vertex -9.78269 -2.51177 -3
      vertex -9.39074 -3.71806 -3
    endloop
  endfacet
  facet normal -0 0 1
    outer loop
      vertex -10.0204 1.26587 -3
      vertex -9.78269 -2.51177 -3
      vertex -9.78269 2.51177 -3
    endloop
  endfacet
  facet normal 0 0 1
    outer loop
      vertex -10.0204 1.26587 -3
      vertex -10.0204 -1.26587 -3
      vertex -9.78269 -2.51177 -3
    endloop
  endfacet
  facet normal 0 -0 1
    outer loop
      vertex -10.0204 -1.26587 -3
      vertex -10.0204 1.26587 -3
      vertex -10.1 0 -3
    endloop
  endfacet
  facet normal -0.125358 0.992112 0
    outer loop
      vertex 1.89255 -9.9211 -3
      vertex 0.634184 -10.0801 0
      vertex 1.89255 -9.9211 0
    endloop
  endfacet
  facet normal -0.125358 0.992112 0
    outer loop
      vertex 0.634184 -10.0801 0
      vertex 1.89255 -9.9211 -3
      vertex 0.634184 -10.0801 -3
    endloop
  endfacet
  facet normal -0.951056 -0.309019 0
    outer loop
      vertex 9.78269 2.51177 -3
      vertex 9.39074 3.71806 0
      vertex 9.39074 3.71806 -3
    endloop
  endfacet
  facet normal -0.951056 -0.309019 0
    outer loop
      vertex 9.39074 3.71806 0
      vertex 9.78269 2.51177 -3
      vertex 9.78269 2.51177 0
    endloop
  endfacet
  facet normal -0.982281 -0.187413 0
    outer loop
      vertex 10.0204 1.26587 -3
      vertex 9.78269 2.51177 0
      vertex 9.78269 2.51177 -3
    endloop
  endfacet
  facet normal -0.982281 -0.187413 0
    outer loop
      vertex 9.78269 2.51177 0
      vertex 10.0204 1.26587 -3
      vertex 10.0204 1.26587 0
    endloop
  endfacet
  facet normal -0.770514 -0.637423 0
    outer loop
      vertex 8.17107 5.93663 -3
      vertex 7.36258 6.91393 0
      vertex 7.36258 6.91393 -3
    endloop
  endfacet
  facet normal -0.770514 -0.637423 0
    outer loop
      vertex 7.36258 6.91393 0
      vertex 8.17107 5.93663 -3
      vertex 8.17107 5.93663 0
    endloop
  endfacet
  facet normal -0.24869 -0.968583 0
    outer loop
      vertex 1.89255 9.9211 -3
      vertex 3.12107 9.60567 0
      vertex 1.89255 9.9211 0
    endloop
  endfacet
  facet normal -0.24869 -0.968583 -0
    outer loop
      vertex 3.12107 9.60567 0
      vertex 1.89255 9.9211 -3
      vertex 3.12107 9.60567 -3
    endloop
  endfacet
  facet normal -0.125358 -0.992112 0
    outer loop
      vertex 0.634184 10.0801 -3
      vertex 1.89255 9.9211 0
      vertex 0.634184 10.0801 0
    endloop
  endfacet
  facet normal -0.125358 -0.992112 -0
    outer loop
      vertex 1.89255 9.9211 0
      vertex 0.634184 10.0801 -3
      vertex 1.89255 9.9211 -3
    endloop
  endfacet
  facet normal -0.587787 -0.809016 0
    outer loop
      vertex 5.41185 8.52771 -3
      vertex 6.43798 7.78218 0
      vertex 5.41185 8.52771 0
    endloop
  endfacet
  facet normal -0.587787 -0.809016 -0
    outer loop
      vertex 6.43798 7.78218 0
      vertex 5.41185 8.52771 -3
      vertex 6.43798 7.78218 -3
    endloop
  endfacet
  facet normal 0.904828 -0.425777 0
    outer loop
      vertex -9.39074 3.71806 0
      vertex -8.8507 4.86571 -3
      vertex -8.8507 4.86571 0
    endloop
  endfacet
  facet normal 0.904828 -0.425777 0
    outer loop
      vertex -8.8507 4.86571 -3
      vertex -9.39074 3.71806 0
      vertex -9.39074 3.71806 -3
    endloop
  endfacet
  facet normal 0.951056 -0.309019 0
    outer loop
      vertex -9.78269 2.51177 0
      vertex -9.39074 3.71806 -3
      vertex -9.39074 3.71806 0
    endloop
  endfacet
  facet normal 0.951056 -0.309019 0
    outer loop
      vertex -9.39074 3.71806 -3
      vertex -9.78269 2.51177 0
      vertex -9.78269 2.51177 -3
    endloop
  endfacet
  facet normal 0.982281 -0.187413 0
    outer loop
      vertex -10.0204 1.26587 0
      vertex -9.78269 2.51177 -3
      vertex -9.78269 2.51177 0
    endloop
  endfacet
  facet normal 0.982281 -0.187413 0
    outer loop
      vertex -9.78269 2.51177 -3
      vertex -10.0204 1.26587 0
      vertex -10.0204 1.26587 -3
    endloop
  endfacet
  facet normal 0.481753 -0.876307 0
    outer loop
      vertex -5.41185 8.52771 -3
      vertex -4.30037 9.13875 0
      vertex -5.41185 8.52771 0
    endloop
  endfacet
  facet normal 0.481753 -0.876307 0
    outer loop
      vertex -4.30037 9.13875 0
      vertex -5.41185 8.52771 -3
      vertex -4.30037 9.13875 -3
    endloop
  endfacet
  facet normal 0.24869 -0.968583 0
    outer loop
      vertex -3.12107 9.60567 -3
      vertex -1.89255 9.9211 0
      vertex -3.12107 9.60567 0
    endloop
  endfacet
  facet normal 0.24869 -0.968583 0
    outer loop
      vertex -1.89255 9.9211 0
      vertex -3.12107 9.60567 -3
      vertex -1.89255 9.9211 -3
    endloop
  endfacet
  facet normal -0.951056 0.309019 0
    outer loop
      vertex 9.39074 -3.71806 -3
      vertex 9.78269 -2.51177 0
      vertex 9.78269 -2.51177 -3
    endloop
  endfacet
  facet normal -0.951056 0.309019 0
    outer loop
      vertex 9.78269 -2.51177 0
      vertex 9.39074 -3.71806 -3
      vertex 9.39074 -3.71806 0
    endloop
  endfacet
  facet normal -0.982281 0.187413 0
    outer loop
      vertex 9.78269 -2.51177 -3
      vertex 10.0204 -1.26587 0
      vertex 10.0204 -1.26587 -3
    endloop
  endfacet
  facet normal -0.982281 0.187413 0
    outer loop
      vertex 10.0204 -1.26587 0
      vertex 9.78269 -2.51177 -3
      vertex 9.78269 -2.51177 0
    endloop
  endfacet
  facet normal -0.587787 0.809016 0
    outer loop
      vertex 6.43798 -7.78218 -3
      vertex 5.41185 -8.52771 0
      vertex 6.43798 -7.78218 0
    endloop
  endfacet
  facet normal -0.587787 0.809016 0
    outer loop
      vertex 5.41185 -8.52771 0
      vertex 6.43798 -7.78218 -3
      vertex 5.41185 -8.52771 -3
    endloop
  endfacet
  facet normal -0.481753 0.876307 0
    outer loop
      vertex 5.41185 -8.52771 -3
      vertex 4.30037 -9.13875 0
      vertex 5.41185 -8.52771 0
    endloop
  endfacet
  facet normal -0.481753 0.876307 0
    outer loop
      vertex 4.30037 -9.13875 0
      vertex 5.41185 -8.52771 -3
      vertex 4.30037 -9.13875 -3
    endloop
  endfacet
  facet normal -0.844327 0.535829 0
    outer loop
      vertex 8.17107 -5.93663 -3
      vertex 8.8507 -4.86571 0
      vertex 8.8507 -4.86571 -3
    endloop
  endfacet
  facet normal -0.844327 0.535829 0
    outer loop
      vertex 8.8507 -4.86571 0
      vertex 8.17107 -5.93663 -3
      vertex 8.17107 -5.93663 0
    endloop
  endfacet
  facet normal -0.998029 0.0627577 0
    outer loop
      vertex 10.0204 -1.26587 -3
      vertex 10.1 0 0
      vertex 10.1 0 -3
    endloop
  endfacet
  facet normal -0.998029 0.0627577 0
    outer loop
      vertex 10.1 0 0
      vertex 10.0204 -1.26587 -3
      vertex 10.0204 -1.26587 0
    endloop
  endfacet
  facet normal 0.368126 0.929776 -0
    outer loop
      vertex -3.12107 -9.60567 -3
      vertex -4.30037 -9.13875 0
      vertex -3.12107 -9.60567 0
    endloop
  endfacet
  facet normal 0.368126 0.929776 0
    outer loop
      vertex -4.30037 -9.13875 0
      vertex -3.12107 -9.60567 -3
      vertex -4.30037 -9.13875 -3
    endloop
  endfacet
  facet normal 0.24869 0.968583 -0
    outer loop
      vertex -1.89255 -9.9211 -3
      vertex -3.12107 -9.60567 0
      vertex -1.89255 -9.9211 0
    endloop
  endfacet
  facet normal 0.24869 0.968583 0
    outer loop
      vertex -3.12107 -9.60567 0
      vertex -1.89255 -9.9211 -3
      vertex -3.12107 -9.60567 -3
    endloop
  endfacet
  facet normal 0.770514 0.637423 0
    outer loop
      vertex -7.36258 -6.91393 0
      vertex -8.17107 -5.93663 -3
      vertex -8.17107 -5.93663 0
    endloop
  endfacet
  facet normal 0.770514 0.637423 0
    outer loop
      vertex -8.17107 -5.93663 -3
      vertex -7.36258 -6.91393 0
      vertex -7.36258 -6.91393 -3
    endloop
  endfacet
  facet normal 0.998029 0.0627577 0
    outer loop
      vertex -10.0204 -1.26587 0
      vertex -10.1 0 -3
      vertex -10.1 0 0
    endloop
  endfacet
  facet normal 0.998029 0.0627577 0
    outer loop
      vertex -10.1 0 -3
      vertex -10.0204 -1.26587 0
      vertex -10.0204 -1.26587 -3
    endloop
  endfacet
  facet normal 0.982281 0.187413 0
    outer loop
      vertex -9.78269 -2.51177 0
      vertex -10.0204 -1.26587 -3
      vertex -10.0204 -1.26587 0
    endloop
  endfacet
  facet normal 0.982281 0.187413 0
    outer loop
      vertex -10.0204 -1.26587 -3
      vertex -9.78269 -2.51177 0
      vertex -9.78269 -2.51177 -3
    endloop
  endfacet
  facet normal 0.951056 0.309019 0
    outer loop
      vertex -9.39074 -3.71806 0
      vertex -9.78269 -2.51177 -3
      vertex -9.78269 -2.51177 0
    endloop
  endfacet
  facet normal 0.951056 0.309019 0
    outer loop
      vertex -9.78269 -2.51177 -3
      vertex -9.39074 -3.71806 0
      vertex -9.39074 -3.71806 -3
    endloop
  endfacet
  facet normal -0.684544 0.728971 0
    outer loop
      vertex 7.36258 -6.91393 -3
      vertex 6.43798 -7.78218 0
      vertex 7.36258 -6.91393 0
    endloop
  endfacet
  facet normal -0.684544 0.728971 0
    outer loop
      vertex 6.43798 -7.78218 0
      vertex 7.36258 -6.91393 -3
      vertex 6.43798 -7.78218 -3
    endloop
  endfacet
  facet normal -0.904828 0.425777 0
    outer loop
      vertex 8.8507 -4.86571 -3
      vertex 9.39074 -3.71806 0
      vertex 9.39074 -3.71806 -3
    endloop
  endfacet
  facet normal -0.904828 0.425777 0
    outer loop
      vertex 9.39074 -3.71806 0
      vertex 8.8507 -4.86571 -3
      vertex 8.8507 -4.86571 0
    endloop
  endfacet
  facet normal 0.125358 0.992112 -0
    outer loop
      vertex -0.634184 -10.0801 -3
      vertex -1.89255 -9.9211 0
      vertex -0.634184 -10.0801 0
    endloop
  endfacet
  facet normal 0.125358 0.992112 0
    outer loop
      vertex -1.89255 -9.9211 0
      vertex -0.634184 -10.0801 -3
      vertex -1.89255 -9.9211 -3
    endloop
  endfacet
  facet normal 0.587787 0.809016 -0
    outer loop
      vertex -5.41185 -8.52771 -3
      vertex -6.43798 -7.78218 0
      vertex -5.41185 -8.52771 0
    endloop
  endfacet
  facet normal 0.587787 0.809016 0
    outer loop
      vertex -6.43798 -7.78218 0
      vertex -5.41185 -8.52771 -3
      vertex -6.43798 -7.78218 -3
    endloop
  endfacet
  facet normal 0.684544 0.728971 -0
    outer loop
      vertex -6.43798 -7.78218 -3
      vertex -7.36258 -6.91393 0
      vertex -6.43798 -7.78218 0
    endloop
  endfacet
  facet normal 0.684544 0.728971 0
    outer loop
      vertex -7.36258 -6.91393 0
      vertex -6.43798 -7.78218 -3
      vertex -7.36258 -6.91393 -3
    endloop
  endfacet
  facet normal 0.844327 0.535829 0
    outer loop
      vertex -8.17107 -5.93663 0
      vertex -8.8507 -4.86571 -3
      vertex -8.8507 -4.86571 0
    endloop
  endfacet
  facet normal 0.844327 0.535829 0
    outer loop
      vertex -8.8507 -4.86571 -3
      vertex -8.17107 -5.93663 0
      vertex -8.17107 -5.93663 -3
    endloop
  endfacet
  facet normal 0.904828 0.425777 0
    outer loop
      vertex -8.8507 -4.86571 0
      vertex -9.39074 -3.71806 -3
      vertex -9.39074 -3.71806 0
    endloop
  endfacet
  facet normal 0.904828 0.425777 0
    outer loop
      vertex -9.39074 -3.71806 -3
      vertex -8.8507 -4.86571 0
      vertex -8.8507 -4.86571 -3
    endloop
  endfacet
  facet normal -0.24869 0.968583 0
    outer loop
      vertex 3.12107 -9.60567 -3
      vertex 1.89255 -9.9211 0
      vertex 3.12107 -9.60567 0
    endloop
  endfacet
  facet normal -0.24869 0.968583 0
    outer loop
      vertex 1.89255 -9.9211 0
      vertex 3.12107 -9.60567 -3
      vertex 1.89255 -9.9211 -3
    endloop
  endfacet
  facet normal -0.368126 0.929776 0
    outer loop
      vertex 4.30037 -9.13875 -3
      vertex 3.12107 -9.60567 0
      vertex 4.30037 -9.13875 0
    endloop
  endfacet
  facet normal -0.368126 0.929776 0
    outer loop
      vertex 3.12107 -9.60567 0
      vertex 4.30037 -9.13875 -3
      vertex 3.12107 -9.60567 -3
    endloop
  endfacet
  facet normal 0.481753 0.876307 -0
    outer loop
      vertex -4.30037 -9.13875 -3
      vertex -5.41185 -8.52771 0
      vertex -4.30037 -9.13875 0
    endloop
  endfacet
  facet normal 0.481753 0.876307 0
    outer loop
      vertex -5.41185 -8.52771 0
      vertex -4.30037 -9.13875 -3
      vertex -5.41185 -8.52771 -3
    endloop
  endfacet
endsolid OpenSCAD_Model
