solid OpenSCAD_Model
  facet normal 0 0 1
    outer loop
      vertex 4.5 0 0
      vertex 7 0 0
      vertex 6.9448 0.877332 0
    endloop
  endfacet
  facet normal 0 0 1
    outer loop
      vertex 4.46452 0.563999 0
      vertex 6.9448 0.877332 0
      vertex 6.78008 1.74083 0
    endloop
  endfacet
  facet normal 0 0 1
    outer loop
      vertex 7 0 0
      vertex 4.5 0 0
      vertex 6.9448 -0.877332 0
    endloop
  endfacet
  facet normal 0 0 1
    outer loop
      vertex 4.35862 1.1191 0
      vertex 6.78008 1.74083 0
      vertex 6.50844 2.57687 0
    endloop
  endfacet
  facet normal -0 0 1
    outer loop
      vertex 4.46452 -0.563999 0
      vertex 6.9448 -0.877332 0
      vertex 4.5 0 0
    endloop
  endfacet
  facet normal 0 0 1
    outer loop
      vertex 4.18399 1.65656 0
      vertex 6.50844 2.57687 0
      vertex 6.13415 3.37228 0
    endloop
  endfacet
  facet normal 0 0 1
    outer loop
      vertex 6.9448 -0.877332 0
      vertex 4.46452 -0.563999 0
      vertex 6.78008 -1.74083 0
    endloop
  endfacet
  facet normal 0 0 1
    outer loop
      vertex 3.94338 2.16789 0
      vertex 6.13415 3.37228 0
      vertex 5.66312 4.1145 0
    endloop
  endfacet
  facet normal -0 0 1
    outer loop
      vertex 4.35862 -1.1191 0
      vertex 6.78008 -1.74083 0
      vertex 4.46452 -0.563999 0
    endloop
  endfacet
  facet normal 0 0 1
    outer loop
      vertex 3.64058 2.64503 0
      vertex 5.66312 4.1145 0
      vertex 5.10278 4.79183 0
    endloop
  endfacet
  facet normal 0 0 1
    outer loop
      vertex 6.78008 -1.74083 0
      vertex 4.35862 -1.1191 0
      vertex 6.50844 -2.57687 0
    endloop
  endfacet
  facet normal -0 0 1
    outer loop
      vertex 4.18399 -1.65656 0
      vertex 6.50844 -2.57687 0
      vertex 4.35862 -1.1191 0
    endloop
  endfacet
  facet normal 0 0 1
    outer loop
      vertex 6.9448 0.877332 0
      vertex 4.46452 0.563999 0
      vertex 4.5 0 0
    endloop
  endfacet
  facet normal 0 0 1
    outer loop
      vertex 3.28036 3.08046 0
      vertex 5.10278 4.79183 0
      vertex 4.46197 5.39359 0
    endloop
  endfacet
  facet normal 0 0 1
    outer loop
      vertex 6.78008 1.74083 0
      vertex 4.35862 1.1191 0
      vertex 4.46452 0.563999 0
    endloop
  endfacet
  facet normal 0 0 1
    outer loop
      vertex 6.50844 2.57687 0
      vertex 4.18399 1.65656 0
      vertex 4.35862 1.1191 0
    endloop
  endfacet
  facet normal 0 0 1
    outer loop
      vertex 6.13415 3.37228 0
      vertex 3.94338 2.16789 0
      vertex 4.18399 1.65656 0
    endloop
  endfacet
  facet normal 0 0 1
    outer loop
      vertex 2.86841 3.46731 0
      vertex 4.46197 5.39359 0
      vertex 3.75079 5.91029 0
    endloop
  endfacet
  facet normal 0 0 1
    outer loop
      vertex 5.66312 4.1145 0
      vertex 3.64058 2.64503 0
      vertex 3.94338 2.16789 0
    endloop
  endfacet
  facet normal 0 0 1
    outer loop
      vertex 5.10278 4.79183 0
      vertex 3.28036 3.08046 0
      vertex 3.64058 2.64503 0
    endloop
  endfacet
  facet normal 0 0 1
    outer loop
      vertex 2.41122 3.79947 0
      vertex 3.75079 5.91029 0
      vertex 2.98045 6.33379 0
    endloop
  endfacet
  facet normal 0 0 1
    outer loop
      vertex 4.46197 5.39359 0
      vertex 2.86841 3.46731 0
      vertex 3.28036 3.08046 0
    endloop
  endfacet
  facet normal 0 0 1
    outer loop
      vertex 3.75079 5.91029 0
      vertex 2.41122 3.79947 0
      vertex 2.86841 3.46731 0
    endloop
  endfacet
  facet normal 0 0 1
    outer loop
      vertex 1.91601 4.07172 0
      vertex 2.98045 6.33379 0
      vertex 2.16312 6.6574 0
    endloop
  endfacet
  facet normal 0 0 1
    outer loop
      vertex 2.98045 6.33379 0
      vertex 1.91601 4.07172 0
      vertex 2.41122 3.79947 0
    endloop
  endfacet
  facet normal 0 0 1
    outer loop
      vertex 2.16312 6.6574 0
      vertex 1.39058 4.27975 0
      vertex 1.91601 4.07172 0
    endloop
  endfacet
  facet normal 0 0 1
    outer loop
      vertex 1.31167 6.87601 0
      vertex 1.39058 4.27975 0
      vertex 2.16312 6.6574 0
    endloop
  endfacet
  facet normal 0 0 1
    outer loop
      vertex 1.31167 6.87601 0
      vertex 0.843215 4.42029 0
      vertex 1.39058 4.27975 0
    endloop
  endfacet
  facet normal 0 0 1
    outer loop
      vertex 0.439533 6.98619 0
      vertex 0.843215 4.42029 0
      vertex 1.31167 6.87601 0
    endloop
  endfacet
  facet normal 0 0 1
    outer loop
      vertex 0.439533 6.98619 0
      vertex 0.282557 4.49112 0
      vertex 0.843215 4.42029 0
    endloop
  endfacet
  facet normal 0 0 1
    outer loop
      vertex 0.439533 6.98619 0
      vertex -0.282557 4.49112 0
      vertex 0.282557 4.49112 0
    endloop
  endfacet
  facet normal -0 0 1
    outer loop
      vertex -0.439533 6.98619 0
      vertex -0.282557 4.49112 0
      vertex 0.439533 6.98619 0
    endloop
  endfacet
  facet normal 0 0 1
    outer loop
      vertex -0.439533 6.98619 0
      vertex -0.843215 4.42029 0
      vertex -0.282557 4.49112 0
    endloop
  endfacet
  facet normal -0 0 1
    outer loop
      vertex -1.31167 6.87601 0
      vertex -0.843215 4.42029 0
      vertex -0.439533 6.98619 0
    endloop
  endfacet
  facet normal 0 0 1
    outer loop
      vertex -1.31167 6.87601 0
      vertex -1.39058 4.27975 0
      vertex -0.843215 4.42029 0
    endloop
  endfacet
  facet normal -0 0 1
    outer loop
      vertex -2.16312 6.6574 0
      vertex -1.39058 4.27975 0
      vertex -1.31167 6.87601 0
    endloop
  endfacet
  facet normal 0 0 1
    outer loop
      vertex -1.39058 4.27975 0
      vertex -2.16312 6.6574 0
      vertex -1.91601 4.07172 0
    endloop
  endfacet
  facet normal -0 0 1
    outer loop
      vertex -2.98045 6.33379 0
      vertex -1.91601 4.07172 0
      vertex -2.16312 6.6574 0
    endloop
  endfacet
  facet normal 0 0 1
    outer loop
      vertex -1.91601 4.07172 0
      vertex -2.98045 6.33379 0
      vertex -2.41122 3.79947 0
    endloop
  endfacet
  facet normal -0 0 1
    outer loop
      vertex -3.75079 5.91029 0
      vertex -2.41122 3.79947 0
      vertex -2.98045 6.33379 0
    endloop
  endfacet
  facet normal 0 0 1
    outer loop
      vertex -2.41122 3.79947 0
      vertex -3.75079 5.91029 0
      vertex -2.86841 3.46731 0
    endloop
  endfacet
  facet normal -0 0 1
    outer loop
      vertex -4.46197 5.39359 0
      vertex -2.86841 3.46731 0
      vertex -3.75079 5.91029 0
    endloop
  endfacet
  facet normal 0 0 1
    outer loop
      vertex -2.86841 3.46731 0
      vertex -4.46197 5.39359 0
      vertex -3.28036 3.08046 0
    endloop
  endfacet
  facet normal -0 0 1
    outer loop
      vertex -5.10278 4.79183 0
      vertex -3.28036 3.08046 0
      vertex -4.46197 5.39359 0
    endloop
  endfacet
  facet normal 0 0 1
    outer loop
      vertex -3.28036 3.08046 0
      vertex -5.10278 4.79183 0
      vertex -3.64058 2.64503 0
    endloop
  endfacet
  facet normal -0 0 1
    outer loop
      vertex -5.66312 4.1145 0
      vertex -3.64058 2.64503 0
      vertex -5.10278 4.79183 0
    endloop
  endfacet
  facet normal 0 0 1
    outer loop
      vertex -3.64058 2.64503 0
      vertex -5.66312 4.1145 0
      vertex -3.94338 2.16789 0
    endloop
  endfacet
  facet normal -0 0 1
    outer loop
      vertex -6.13415 3.37228 0
      vertex -3.94338 2.16789 0
      vertex -5.66312 4.1145 0
    endloop
  endfacet
  facet normal 0 0 1
    outer loop
      vertex -3.94338 2.16789 0
      vertex -6.13415 3.37228 0
      vertex -4.18399 1.65656 0
    endloop
  endfacet
  facet normal -0 0 1
    outer loop
      vertex -6.50844 2.57687 0
      vertex -4.18399 1.65656 0
      vertex -6.13415 3.37228 0
    endloop
  endfacet
  facet normal 0 0 1
    outer loop
      vertex 6.50844 -2.57687 0
      vertex 4.18399 -1.65656 0
      vertex 6.13415 -3.37228 0
    endloop
  endfacet
  facet normal -0 0 1
    outer loop
      vertex 3.94338 -2.16789 0
      vertex 6.13415 -3.37228 0
      vertex 4.18399 -1.65656 0
    endloop
  endfacet
  facet normal 0 0 1
    outer loop
      vertex 6.13415 -3.37228 0
      vertex 3.94338 -2.16789 0
      vertex 5.66312 -4.1145 0
    endloop
  endfacet
  facet normal -0 0 1
    outer loop
      vertex 3.64058 -2.64503 0
      vertex 5.66312 -4.1145 0
      vertex 3.94338 -2.16789 0
    endloop
  endfacet
  facet normal 0 0 1
    outer loop
      vertex 5.66312 -4.1145 0
      vertex 3.64058 -2.64503 0
      vertex 5.10278 -4.79183 0
    endloop
  endfacet
  facet normal -0 0 1
    outer loop
      vertex 3.28036 -3.08046 0
      vertex 5.10278 -4.79183 0
      vertex 3.64058 -2.64503 0
    endloop
  endfacet
  facet normal 0 0 1
    outer loop
      vertex 5.10278 -4.79183 0
      vertex 3.28036 -3.08046 0
      vertex 4.46197 -5.39359 0
    endloop
  endfacet
  facet normal -0 0 1
    outer loop
      vertex 2.86841 -3.46731 0
      vertex 4.46197 -5.39359 0
      vertex 3.28036 -3.08046 0
    endloop
  endfacet
  facet normal 0 0 1
    outer loop
      vertex 4.46197 -5.39359 0
      vertex 2.86841 -3.46731 0
      vertex 3.75079 -5.91029 0
    endloop
  endfacet
  facet normal -0 0 1
    outer loop
      vertex 2.41122 -3.79947 0
      vertex 3.75079 -5.91029 0
      vertex 2.86841 -3.46731 0
    endloop
  endfacet
  facet normal 0 0 1
    outer loop
      vertex 3.75079 -5.91029 0
      vertex 2.41122 -3.79947 0
      vertex 2.98045 -6.33379 0
    endloop
  endfacet
  facet normal -0 0 1
    outer loop
      vertex 1.91601 -4.07172 0
      vertex 2.98045 -6.33379 0
      vertex 2.41122 -3.79947 0
    endloop
  endfacet
  facet normal 0 0 1
    outer loop
      vertex 2.98045 -6.33379 0
      vertex 1.91601 -4.07172 0
      vertex 2.16312 -6.6574 0
    endloop
  endfacet
  facet normal -0 0 1
    outer loop
      vertex 1.39058 -4.27975 0
      vertex 2.16312 -6.6574 0
      vertex 1.91601 -4.07172 0
    endloop
  endfacet
  facet normal 0 0 1
    outer loop
      vertex 1.39058 -4.27975 0
      vertex 1.31167 -6.87601 0
      vertex 2.16312 -6.6574 0
    endloop
  endfacet
  facet normal -0 0 1
    outer loop
      vertex 0.843215 -4.42029 0
      vertex 1.31167 -6.87601 0
      vertex 1.39058 -4.27975 0
    endloop
  endfacet
  facet normal 0 0 1
    outer loop
      vertex 0.843215 -4.42029 0
      vertex 0.439533 -6.98619 0
      vertex 1.31167 -6.87601 0
    endloop
  endfacet
  facet normal -0 0 1
    outer loop
      vertex 0.282557 -4.49112 0
      vertex 0.439533 -6.98619 0
      vertex 0.843215 -4.42029 0
    endloop
  endfacet
  facet normal -0 0 1
    outer loop
      vertex -0.282557 -4.49112 0
      vertex 0.439533 -6.98619 0
      vertex 0.282557 -4.49112 0
    endloop
  endfacet
  facet normal 0 0 1
    outer loop
      vertex -0.282557 -4.49112 0
      vertex -0.439533 -6.98619 0
      vertex 0.439533 -6.98619 0
    endloop
  endfacet
  facet normal 0 0 1
    outer loop
      vertex -0.843215 -4.42029 0
      vertex -0.439533 -6.98619 0
      vertex -0.282557 -4.49112 0
    endloop
  endfacet
  facet normal 0 0 1
    outer loop
      vertex -0.843215 -4.42029 0
      vertex -1.31167 -6.87601 0
      vertex -0.439533 -6.98619 0
    endloop
  endfacet
  facet normal 0 0 1
    outer loop
      vertex -1.39058 -4.27975 0
      vertex -1.31167 -6.87601 0
      vertex -0.843215 -4.42029 0
    endloop
  endfacet
  facet normal 0 0 1
    outer loop
      vertex -2.16312 -6.6574 0
      vertex -1.39058 -4.27975 0
      vertex -1.91601 -4.07172 0
    endloop
  endfacet
  facet normal 0 0 1
    outer loop
      vertex -1.39058 -4.27975 0
      vertex -2.16312 -6.6574 0
      vertex -1.31167 -6.87601 0
    endloop
  endfacet
  facet normal 0 0 1
    outer loop
      vertex -2.98045 -6.33379 0
      vertex -1.91601 -4.07172 0
      vertex -2.41122 -3.79947 0
    endloop
  endfacet
  facet normal 0 0 1
    outer loop
      vertex -3.75079 -5.91029 0
      vertex -2.41122 -3.79947 0
      vertex -2.86841 -3.46731 0
    endloop
  endfacet
  facet normal 0 0 1
    outer loop
      vertex -1.91601 -4.07172 0
      vertex -2.98045 -6.33379 0
      vertex -2.16312 -6.6574 0
    endloop
  endfacet
  facet normal 0 0 1
    outer loop
      vertex -4.46197 -5.39359 0
      vertex -2.86841 -3.46731 0
      vertex -3.28036 -3.08046 0
    endloop
  endfacet
  facet normal 0 0 1
    outer loop
      vertex -5.10278 -4.79183 0
      vertex -3.28036 -3.08046 0
      vertex -3.64058 -2.64503 0
    endloop
  endfacet
  facet normal 0 0 1
    outer loop
      vertex -2.41122 -3.79947 0
      vertex -3.75079 -5.91029 0
      vertex -2.98045 -6.33379 0
    endloop
  endfacet
  facet normal 0 0 1
    outer loop
      vertex -5.66312 -4.1145 0
      vertex -3.64058 -2.64503 0
      vertex -3.94338 -2.16789 0
    endloop
  endfacet
  facet normal 0 0 1
    outer loop
      vertex -6.13415 -3.37228 0
      vertex -3.94338 -2.16789 0
      vertex -4.18399 -1.65656 0
    endloop
  endfacet
  facet normal 0 0 1
    outer loop
      vertex -6.50844 -2.57687 0
      vertex -4.18399 -1.65656 0
      vertex -4.35862 -1.1191 0
    endloop
  endfacet
  facet normal 0 0 1
    outer loop
      vertex -2.86841 -3.46731 0
      vertex -4.46197 -5.39359 0
      vertex -3.75079 -5.91029 0
    endloop
  endfacet
  facet normal 0 0 1
    outer loop
      vertex -6.78008 -1.74083 0
      vertex -4.35862 -1.1191 0
      vertex -4.46452 -0.563999 0
    endloop
  endfacet
  facet normal 0 0 1
    outer loop
      vertex -6.9448 -0.877332 0
      vertex -4.46452 -0.563999 0
      vertex -4.5 0 0
    endloop
  endfacet
  facet normal 0 0 1
    outer loop
      vertex -4.18399 1.65656 0
      vertex -6.50844 2.57687 0
      vertex -4.35862 1.1191 0
    endloop
  endfacet
  facet normal 0 0 1
    outer loop
      vertex -3.28036 -3.08046 0
      vertex -5.10278 -4.79183 0
      vertex -4.46197 -5.39359 0
    endloop
  endfacet
  facet normal -0 0 1
    outer loop
      vertex -6.78008 1.74083 0
      vertex -4.35862 1.1191 0
      vertex -6.50844 2.57687 0
    endloop
  endfacet
  facet normal 0 0 1
    outer loop
      vertex -3.64058 -2.64503 0
      vertex -5.66312 -4.1145 0
      vertex -5.10278 -4.79183 0
    endloop
  endfacet
  facet normal 0 0 1
    outer loop
      vertex -4.35862 1.1191 0
      vertex -6.78008 1.74083 0
      vertex -4.46452 0.563999 0
    endloop
  endfacet
  facet normal 0 0 1
    outer loop
      vertex -3.94338 -2.16789 0
      vertex -6.13415 -3.37228 0
      vertex -5.66312 -4.1145 0
    endloop
  endfacet
  facet normal -0 0 1
    outer loop
      vertex -6.9448 0.877332 0
      vertex -4.46452 0.563999 0
      vertex -6.78008 1.74083 0
    endloop
  endfacet
  facet normal 0 0 1
    outer loop
      vertex -4.18399 -1.65656 0
      vertex -6.50844 -2.57687 0
      vertex -6.13415 -3.37228 0
    endloop
  endfacet
  facet normal 0 0 1
    outer loop
      vertex -4.46452 0.563999 0
      vertex -6.9448 0.877332 0
      vertex -4.5 0 0
    endloop
  endfacet
  facet normal 0 0 1
    outer loop
      vertex -4.35862 -1.1191 0
      vertex -6.78008 -1.74083 0
      vertex -6.50844 -2.57687 0
    endloop
  endfacet
  facet normal 0 0 1
    outer loop
      vertex -7 0 0
      vertex -4.5 0 0
      vertex -6.9448 0.877332 0
    endloop
  endfacet
  facet normal 0 0 1
    outer loop
      vertex -4.46452 -0.563999 0
      vertex -6.9448 -0.877332 0
      vertex -6.78008 -1.74083 0
    endloop
  endfacet
  facet normal 0 0 1
    outer loop
      vertex -4.5 0 0
      vertex -7 0 0
      vertex -6.9448 -0.877332 0
    endloop
  endfacet
  facet normal 0 0 -1
    outer loop
      vertex 2.375 0 -60
      vertex 7 0 -60
      vertex 6.9448 -0.877332 -60
    endloop
  endfacet
  facet normal 0 0 -1
    outer loop
      vertex 2.35627 -0.297666 -60
      vertex 6.9448 -0.877332 -60
      vertex 6.78008 -1.74083 -60
    endloop
  endfacet
  facet normal 0 0 -1
    outer loop
      vertex 7 0 -60
      vertex 2.375 0 -60
      vertex 6.9448 0.877332 -60
    endloop
  endfacet
  facet normal 0 0 -1
    outer loop
      vertex 2.30038 -0.590638 -60
      vertex 6.78008 -1.74083 -60
      vertex 6.50844 -2.57687 -60
    endloop
  endfacet
  facet normal 0 0 -1
    outer loop
      vertex 2.35627 0.297666 -60
      vertex 6.9448 0.877332 -60
      vertex 2.375 0 -60
    endloop
  endfacet
  facet normal 0 0 -1
    outer loop
      vertex 2.20822 -0.874295 -60
      vertex 6.50844 -2.57687 -60
      vertex 6.13415 -3.37228 -60
    endloop
  endfacet
  facet normal -0 0 -1
    outer loop
      vertex 6.9448 0.877332 -60
      vertex 2.35627 0.297666 -60
      vertex 6.78008 1.74083 -60
    endloop
  endfacet
  facet normal 0 0 -1
    outer loop
      vertex 2.08123 -1.14416 -60
      vertex 6.13415 -3.37228 -60
      vertex 5.66312 -4.1145 -60
    endloop
  endfacet
  facet normal 0 0 -1
    outer loop
      vertex 2.30038 0.590638 -60
      vertex 6.78008 1.74083 -60
      vertex 2.35627 0.297666 -60
    endloop
  endfacet
  facet normal 0 0 -1
    outer loop
      vertex 1.92142 -1.39599 -60
      vertex 5.66312 -4.1145 -60
      vertex 5.10278 -4.79183 -60
    endloop
  endfacet
  facet normal -0 0 -1
    outer loop
      vertex 6.78008 1.74083 -60
      vertex 2.30038 0.590638 -60
      vertex 6.50844 2.57687 -60
    endloop
  endfacet
  facet normal 0 0 -1
    outer loop
      vertex 1.7313 -1.6258 -60
      vertex 5.10278 -4.79183 -60
      vertex 4.46197 -5.39359 -60
    endloop
  endfacet
  facet normal 0 0 -1
    outer loop
      vertex 2.20822 0.874295 -60
      vertex 6.50844 2.57687 -60
      vertex 2.30038 0.590638 -60
    endloop
  endfacet
  facet normal 0 0 -1
    outer loop
      vertex 1.51388 -1.82997 -60
      vertex 4.46197 -5.39359 -60
      vertex 3.75079 -5.91029 -60
    endloop
  endfacet
  facet normal -0 0 -1
    outer loop
      vertex 6.50844 2.57687 -60
      vertex 2.20822 0.874295 -60
      vertex 6.13415 3.37228 -60
    endloop
  endfacet
  facet normal 0 0 -1
    outer loop
      vertex 1.27259 -2.00528 -60
      vertex 3.75079 -5.91029 -60
      vertex 2.98045 -6.33379 -60
    endloop
  endfacet
  facet normal 0 0 -1
    outer loop
      vertex 2.08123 1.14416 -60
      vertex 6.13415 3.37228 -60
      vertex 2.20822 0.874295 -60
    endloop
  endfacet
  facet normal -0 0 -1
    outer loop
      vertex 6.13415 3.37228 -60
      vertex 2.08123 1.14416 -60
      vertex 5.66312 4.1145 -60
    endloop
  endfacet
  facet normal 0 0 -1
    outer loop
      vertex 6.9448 -0.877332 -60
      vertex 2.35627 -0.297666 -60
      vertex 2.375 0 -60
    endloop
  endfacet
  facet normal 0 0 -1
    outer loop
      vertex 6.78008 -1.74083 -60
      vertex 2.30038 -0.590638 -60
      vertex 2.35627 -0.297666 -60
    endloop
  endfacet
  facet normal 0 0 -1
    outer loop
      vertex 6.50844 -2.57687 -60
      vertex 2.20822 -0.874295 -60
      vertex 2.30038 -0.590638 -60
    endloop
  endfacet
  facet normal 0 0 -1
    outer loop
      vertex 1.01123 -2.14896 -60
      vertex 2.98045 -6.33379 -60
      vertex 2.16312 -6.6574 -60
    endloop
  endfacet
  facet normal 0 0 -1
    outer loop
      vertex 6.13415 -3.37228 -60
      vertex 2.08123 -1.14416 -60
      vertex 2.20822 -0.874295 -60
    endloop
  endfacet
  facet normal 0 0 -1
    outer loop
      vertex 5.66312 -4.1145 -60
      vertex 1.92142 -1.39599 -60
      vertex 2.08123 -1.14416 -60
    endloop
  endfacet
  facet normal 0 0 -1
    outer loop
      vertex 5.10278 -4.79183 -60
      vertex 1.7313 -1.6258 -60
      vertex 1.92142 -1.39599 -60
    endloop
  endfacet
  facet normal 0 0 -1
    outer loop
      vertex 4.46197 -5.39359 -60
      vertex 1.51388 -1.82997 -60
      vertex 1.7313 -1.6258 -60
    endloop
  endfacet
  facet normal 0 0 -1
    outer loop
      vertex 0.733915 -2.25876 -60
      vertex 2.16312 -6.6574 -60
      vertex 1.31167 -6.87601 -60
    endloop
  endfacet
  facet normal 0 0 -1
    outer loop
      vertex 3.75079 -5.91029 -60
      vertex 1.27259 -2.00528 -60
      vertex 1.51388 -1.82997 -60
    endloop
  endfacet
  facet normal 0 0 -1
    outer loop
      vertex 2.98045 -6.33379 -60
      vertex 1.01123 -2.14896 -60
      vertex 1.27259 -2.00528 -60
    endloop
  endfacet
  facet normal 0 0 -1
    outer loop
      vertex 2.16312 -6.6574 -60
      vertex 0.733915 -2.25876 -60
      vertex 1.01123 -2.14896 -60
    endloop
  endfacet
  facet normal 0 0 -1
    outer loop
      vertex 1.31167 -6.87601 -60
      vertex 0.44503 -2.33293 -60
      vertex 0.733915 -2.25876 -60
    endloop
  endfacet
  facet normal 0 0 -1
    outer loop
      vertex 0.439533 -6.98619 -60
      vertex 0.44503 -2.33293 -60
      vertex 1.31167 -6.87601 -60
    endloop
  endfacet
  facet normal 0 0 -1
    outer loop
      vertex 0.439533 -6.98619 -60
      vertex 0.149127 -2.37031 -60
      vertex 0.44503 -2.33293 -60
    endloop
  endfacet
  facet normal 0 0 -1
    outer loop
      vertex 0.439533 -6.98619 -60
      vertex -0.149127 -2.37031 -60
      vertex 0.149127 -2.37031 -60
    endloop
  endfacet
  facet normal 0 0 -1
    outer loop
      vertex -0.439533 -6.98619 -60
      vertex -0.149127 -2.37031 -60
      vertex 0.439533 -6.98619 -60
    endloop
  endfacet
  facet normal 0 0 -1
    outer loop
      vertex -0.439533 -6.98619 -60
      vertex -0.44503 -2.33293 -60
      vertex -0.149127 -2.37031 -60
    endloop
  endfacet
  facet normal 0 0 -1
    outer loop
      vertex -1.31167 -6.87601 -60
      vertex -0.44503 -2.33293 -60
      vertex -0.439533 -6.98619 -60
    endloop
  endfacet
  facet normal -0 0 -1
    outer loop
      vertex -0.44503 -2.33293 -60
      vertex -1.31167 -6.87601 -60
      vertex -0.733915 -2.25876 -60
    endloop
  endfacet
  facet normal 0 0 -1
    outer loop
      vertex -2.16312 -6.6574 -60
      vertex -0.733915 -2.25876 -60
      vertex -1.31167 -6.87601 -60
    endloop
  endfacet
  facet normal -0 0 -1
    outer loop
      vertex -0.733915 -2.25876 -60
      vertex -2.16312 -6.6574 -60
      vertex -1.01123 -2.14896 -60
    endloop
  endfacet
  facet normal 0 0 -1
    outer loop
      vertex -2.98045 -6.33379 -60
      vertex -1.01123 -2.14896 -60
      vertex -2.16312 -6.6574 -60
    endloop
  endfacet
  facet normal -0 0 -1
    outer loop
      vertex -1.01123 -2.14896 -60
      vertex -2.98045 -6.33379 -60
      vertex -1.27259 -2.00528 -60
    endloop
  endfacet
  facet normal 0 0 -1
    outer loop
      vertex -3.75079 -5.91029 -60
      vertex -1.27259 -2.00528 -60
      vertex -2.98045 -6.33379 -60
    endloop
  endfacet
  facet normal -0 0 -1
    outer loop
      vertex -1.27259 -2.00528 -60
      vertex -3.75079 -5.91029 -60
      vertex -1.51388 -1.82997 -60
    endloop
  endfacet
  facet normal 0 0 -1
    outer loop
      vertex -4.46197 -5.39359 -60
      vertex -1.51388 -1.82997 -60
      vertex -3.75079 -5.91029 -60
    endloop
  endfacet
  facet normal -0 0 -1
    outer loop
      vertex -1.51388 -1.82997 -60
      vertex -4.46197 -5.39359 -60
      vertex -1.7313 -1.6258 -60
    endloop
  endfacet
  facet normal 0 0 -1
    outer loop
      vertex -5.10278 -4.79183 -60
      vertex -1.7313 -1.6258 -60
      vertex -4.46197 -5.39359 -60
    endloop
  endfacet
  facet normal -0 0 -1
    outer loop
      vertex -1.7313 -1.6258 -60
      vertex -5.10278 -4.79183 -60
      vertex -1.92142 -1.39599 -60
    endloop
  endfacet
  facet normal 0 0 -1
    outer loop
      vertex -5.66312 -4.1145 -60
      vertex -1.92142 -1.39599 -60
      vertex -5.10278 -4.79183 -60
    endloop
  endfacet
  facet normal -0 0 -1
    outer loop
      vertex -1.92142 -1.39599 -60
      vertex -5.66312 -4.1145 -60
      vertex -2.08123 -1.14416 -60
    endloop
  endfacet
  facet normal 0 0 -1
    outer loop
      vertex 1.92142 1.39599 -60
      vertex 5.66312 4.1145 -60
      vertex 2.08123 1.14416 -60
    endloop
  endfacet
  facet normal -0 0 -1
    outer loop
      vertex 5.66312 4.1145 -60
      vertex 1.92142 1.39599 -60
      vertex 5.10278 4.79183 -60
    endloop
  endfacet
  facet normal 0 0 -1
    outer loop
      vertex 1.7313 1.6258 -60
      vertex 5.10278 4.79183 -60
      vertex 1.92142 1.39599 -60
    endloop
  endfacet
  facet normal -0 0 -1
    outer loop
      vertex 5.10278 4.79183 -60
      vertex 1.7313 1.6258 -60
      vertex 4.46197 5.39359 -60
    endloop
  endfacet
  facet normal 0 0 -1
    outer loop
      vertex 1.51388 1.82997 -60
      vertex 4.46197 5.39359 -60
      vertex 1.7313 1.6258 -60
    endloop
  endfacet
  facet normal -0 0 -1
    outer loop
      vertex 4.46197 5.39359 -60
      vertex 1.51388 1.82997 -60
      vertex 3.75079 5.91029 -60
    endloop
  endfacet
  facet normal 0 0 -1
    outer loop
      vertex 1.27259 2.00528 -60
      vertex 3.75079 5.91029 -60
      vertex 1.51388 1.82997 -60
    endloop
  endfacet
  facet normal -0 0 -1
    outer loop
      vertex 3.75079 5.91029 -60
      vertex 1.27259 2.00528 -60
      vertex 2.98045 6.33379 -60
    endloop
  endfacet
  facet normal 0 0 -1
    outer loop
      vertex 1.01123 2.14896 -60
      vertex 2.98045 6.33379 -60
      vertex 1.27259 2.00528 -60
    endloop
  endfacet
  facet normal -0 0 -1
    outer loop
      vertex 2.98045 6.33379 -60
      vertex 1.01123 2.14896 -60
      vertex 2.16312 6.6574 -60
    endloop
  endfacet
  facet normal 0 0 -1
    outer loop
      vertex 0.733915 2.25876 -60
      vertex 2.16312 6.6574 -60
      vertex 1.01123 2.14896 -60
    endloop
  endfacet
  facet normal -0 0 -1
    outer loop
      vertex 2.16312 6.6574 -60
      vertex 0.733915 2.25876 -60
      vertex 1.31167 6.87601 -60
    endloop
  endfacet
  facet normal 0 0 -1
    outer loop
      vertex 0.44503 2.33293 -60
      vertex 1.31167 6.87601 -60
      vertex 0.733915 2.25876 -60
    endloop
  endfacet
  facet normal 0 0 -1
    outer loop
      vertex 0.44503 2.33293 -60
      vertex 0.439533 6.98619 -60
      vertex 1.31167 6.87601 -60
    endloop
  endfacet
  facet normal 0 0 -1
    outer loop
      vertex 0.149127 2.37031 -60
      vertex 0.439533 6.98619 -60
      vertex 0.44503 2.33293 -60
    endloop
  endfacet
  facet normal 0 0 -1
    outer loop
      vertex -0.149127 2.37031 -60
      vertex 0.439533 6.98619 -60
      vertex 0.149127 2.37031 -60
    endloop
  endfacet
  facet normal 0 0 -1
    outer loop
      vertex -0.149127 2.37031 -60
      vertex -0.439533 6.98619 -60
      vertex 0.439533 6.98619 -60
    endloop
  endfacet
  facet normal 0 0 -1
    outer loop
      vertex -0.44503 2.33293 -60
      vertex -0.439533 6.98619 -60
      vertex -0.149127 2.37031 -60
    endloop
  endfacet
  facet normal 0 0 -1
    outer loop
      vertex -1.31167 6.87601 -60
      vertex -0.44503 2.33293 -60
      vertex -0.733915 2.25876 -60
    endloop
  endfacet
  facet normal 0 0 -1
    outer loop
      vertex -2.16312 6.6574 -60
      vertex -0.733915 2.25876 -60
      vertex -1.01123 2.14896 -60
    endloop
  endfacet
  facet normal 0 0 -1
    outer loop
      vertex -2.98045 6.33379 -60
      vertex -1.01123 2.14896 -60
      vertex -1.27259 2.00528 -60
    endloop
  endfacet
  facet normal 0 0 -1
    outer loop
      vertex -0.44503 2.33293 -60
      vertex -1.31167 6.87601 -60
      vertex -0.439533 6.98619 -60
    endloop
  endfacet
  facet normal 0 0 -1
    outer loop
      vertex -3.75079 5.91029 -60
      vertex -1.27259 2.00528 -60
      vertex -1.51388 1.82997 -60
    endloop
  endfacet
  facet normal 0 0 -1
    outer loop
      vertex -4.46197 5.39359 -60
      vertex -1.51388 1.82997 -60
      vertex -1.7313 1.6258 -60
    endloop
  endfacet
  facet normal 0 0 -1
    outer loop
      vertex -5.10278 4.79183 -60
      vertex -1.7313 1.6258 -60
      vertex -1.92142 1.39599 -60
    endloop
  endfacet
  facet normal 0 0 -1
    outer loop
      vertex -5.66312 4.1145 -60
      vertex -1.92142 1.39599 -60
      vertex -2.08123 1.14416 -60
    endloop
  endfacet
  facet normal 0 0 -1
    outer loop
      vertex -0.733915 2.25876 -60
      vertex -2.16312 6.6574 -60
      vertex -1.31167 6.87601 -60
    endloop
  endfacet
  facet normal 0 0 -1
    outer loop
      vertex -6.13415 3.37228 -60
      vertex -2.08123 1.14416 -60
      vertex -2.20822 0.874295 -60
    endloop
  endfacet
  facet normal 0 0 -1
    outer loop
      vertex -6.50844 2.57687 -60
      vertex -2.20822 0.874295 -60
      vertex -2.30038 0.590638 -60
    endloop
  endfacet
  facet normal 0 0 -1
    outer loop
      vertex -6.78008 1.74083 -60
      vertex -2.30038 0.590638 -60
      vertex -2.35627 0.297666 -60
    endloop
  endfacet
  facet normal 0 0 -1
    outer loop
      vertex -6.9448 0.877332 -60
      vertex -2.35627 0.297666 -60
      vertex -2.375 0 -60
    endloop
  endfacet
  facet normal 0 0 -1
    outer loop
      vertex -6.13415 -3.37228 -60
      vertex -2.08123 -1.14416 -60
      vertex -5.66312 -4.1145 -60
    endloop
  endfacet
  facet normal 0 0 -1
    outer loop
      vertex -1.01123 2.14896 -60
      vertex -2.98045 6.33379 -60
      vertex -2.16312 6.6574 -60
    endloop
  endfacet
  facet normal -0 0 -1
    outer loop
      vertex -2.08123 -1.14416 -60
      vertex -6.13415 -3.37228 -60
      vertex -2.20822 -0.874295 -60
    endloop
  endfacet
  facet normal 0 0 -1
    outer loop
      vertex -1.27259 2.00528 -60
      vertex -3.75079 5.91029 -60
      vertex -2.98045 6.33379 -60
    endloop
  endfacet
  facet normal 0 0 -1
    outer loop
      vertex -6.50844 -2.57687 -60
      vertex -2.20822 -0.874295 -60
      vertex -6.13415 -3.37228 -60
    endloop
  endfacet
  facet normal 0 0 -1
    outer loop
      vertex -1.51388 1.82997 -60
      vertex -4.46197 5.39359 -60
      vertex -3.75079 5.91029 -60
    endloop
  endfacet
  facet normal -0 0 -1
    outer loop
      vertex -2.20822 -0.874295 -60
      vertex -6.50844 -2.57687 -60
      vertex -2.30038 -0.590638 -60
    endloop
  endfacet
  facet normal 0 0 -1
    outer loop
      vertex -1.7313 1.6258 -60
      vertex -5.10278 4.79183 -60
      vertex -4.46197 5.39359 -60
    endloop
  endfacet
  facet normal 0 0 -1
    outer loop
      vertex -6.78008 -1.74083 -60
      vertex -2.30038 -0.590638 -60
      vertex -6.50844 -2.57687 -60
    endloop
  endfacet
  facet normal 0 0 -1
    outer loop
      vertex -1.92142 1.39599 -60
      vertex -5.66312 4.1145 -60
      vertex -5.10278 4.79183 -60
    endloop
  endfacet
  facet normal -0 0 -1
    outer loop
      vertex -2.30038 -0.590638 -60
      vertex -6.78008 -1.74083 -60
      vertex -2.35627 -0.297666 -60
    endloop
  endfacet
  facet normal 0 0 -1
    outer loop
      vertex -2.08123 1.14416 -60
      vertex -6.13415 3.37228 -60
      vertex -5.66312 4.1145 -60
    endloop
  endfacet
  facet normal 0 0 -1
    outer loop
      vertex -6.9448 -0.877332 -60
      vertex -2.35627 -0.297666 -60
      vertex -6.78008 -1.74083 -60
    endloop
  endfacet
  facet normal 0 0 -1
    outer loop
      vertex -2.20822 0.874295 -60
      vertex -6.50844 2.57687 -60
      vertex -6.13415 3.37228 -60
    endloop
  endfacet
  facet normal -0 0 -1
    outer loop
      vertex -2.35627 -0.297666 -60
      vertex -6.9448 -0.877332 -60
      vertex -2.375 0 -60
    endloop
  endfacet
  facet normal 0 0 -1
    outer loop
      vertex -2.30038 0.590638 -60
      vertex -6.78008 1.74083 -60
      vertex -6.50844 2.57687 -60
    endloop
  endfacet
  facet normal 0 0 -1
    outer loop
      vertex -7 0 -60
      vertex -2.375 0 -60
      vertex -6.9448 -0.877332 -60
    endloop
  endfacet
  facet normal 0 0 -1
    outer loop
      vertex -2.35627 0.297666 -60
      vertex -6.9448 0.877332 -60
      vertex -6.78008 1.74083 -60
    endloop
  endfacet
  facet normal 0 0 -1
    outer loop
      vertex -2.375 0 -60
      vertex -7 0 -60
      vertex -6.9448 0.877332 -60
    endloop
  endfacet
  facet normal -0.687799 0.568998 0.450748
    outer loop
      vertex 3.28036 -3.08046 0
      vertex 3.64058 -2.64503 0
      vertex 1.7313 -1.6258 -4.2
    endloop
  endfacet
  facet normal -0.89089 -0.056044 0.450748
    outer loop
      vertex 4.5 0 0
      vertex 4.46452 0.563999 0
      vertex 2.375 0 -4.2
    endloop
  endfacet
  facet normal -0.890889 -0.0560573 0.450749
    outer loop
      vertex 2.375 0 -4.2
      vertex 4.46452 0.563999 0
      vertex 2.35627 0.297666 -4.2
    endloop
  endfacet
  facet normal -0.890889 0.0560573 0.450749
    outer loop
      vertex 4.46452 -0.563999 0
      vertex 2.375 0 -4.2
      vertex 2.35627 -0.297666 -4.2
    endloop
  endfacet
  facet normal 0.876838 0.167274 0.450749
    outer loop
      vertex -2.30038 -0.590638 -4.2
      vertex -2.35627 -0.297666 -4.2
      vertex -4.46452 -0.563999 0
    endloop
  endfacet
  facet normal 0.221994 -0.864607 0.450748
    outer loop
      vertex -0.44503 2.33293 -4.2
      vertex -0.843215 4.42029 0
      vertex -1.39058 4.27975 0
    endloop
  endfacet
  facet normal -0.111875 0.885613 0.450748
    outer loop
      vertex 0.282557 -4.49112 0
      vertex 0.44503 -2.33293 -4.2
      vertex 0.149127 -2.37031 -4.2
    endloop
  endfacet
  facet normal -0.876837 0.16728 0.450748
    outer loop
      vertex 4.35862 -1.1191 0
      vertex 4.46452 -0.563999 0
      vertex 2.30038 -0.590638 -4.2
    endloop
  endfacet
  facet normal -0.807697 0.380068 0.450748
    outer loop
      vertex 3.94338 -2.16789 0
      vertex 4.18399 -1.65656 0
      vertex 2.08123 -1.14416 -4.2
    endloop
  endfacet
  facet normal 0.61106 0.650716 0.450748
    outer loop
      vertex -1.51388 -1.82997 -4.2
      vertex -1.7313 -1.6258 -4.2
      vertex -2.86841 -3.46731 0
    endloop
  endfacet
  facet normal 0.111875 -0.885613 0.450748
    outer loop
      vertex -0.149127 2.37031 -4.2
      vertex -0.282557 4.49112 0
      vertex -0.44503 2.33293 -4.2
    endloop
  endfacet
  facet normal 0.687793 -0.569006 0.450747
    outer loop
      vertex -1.92142 1.39599 -4.2
      vertex -1.7313 1.6258 -4.2
      vertex -3.64058 2.64503 0
    endloop
  endfacet
  facet normal -0.848962 0.275843 0.450748
    outer loop
      vertex 4.18399 -1.65656 0
      vertex 4.35862 -1.1191 0
      vertex 2.30038 -0.590638 -4.2
    endloop
  endfacet
  facet normal -0.89089 0.056044 0.450748
    outer loop
      vertex 4.46452 -0.563999 0
      vertex 4.5 0 0
      vertex 2.375 0 -4.2
    endloop
  endfacet
  facet normal -0.848967 0.275829 0.450747
    outer loop
      vertex 4.18399 -1.65656 0
      vertex 2.30038 -0.590638 -4.2
      vertex 2.20822 -0.874295 -4.2
    endloop
  endfacet
  facet normal -0.753699 0.478293 0.450748
    outer loop
      vertex 3.94338 -2.16789 0
      vertex 2.08123 -1.14416 -4.2
      vertex 1.92142 -1.39599 -4.2
    endloop
  endfacet
  facet normal -0.807694 0.380075 0.450747
    outer loop
      vertex 4.18399 -1.65656 0
      vertex 2.20822 -0.874295 -4.2
      vertex 2.08123 -1.14416 -4.2
    endloop
  endfacet
  facet normal -0.430029 0.782242 0.450746
    outer loop
      vertex 2.41122 -3.79947 0
      vertex 1.27259 -2.00528 -4.2
      vertex 1.01123 -2.14896 -4.2
    endloop
  endfacet
  facet normal -0.430045 0.782232 0.450748
    outer loop
      vertex 1.91601 -4.07172 0
      vertex 2.41122 -3.79947 0
      vertex 1.01123 -2.14896 -4.2
    endloop
  endfacet
  facet normal -0.430045 -0.782232 0.450748
    outer loop
      vertex 2.41122 3.79947 0
      vertex 1.91601 4.07172 0
      vertex 1.01123 2.14896 -4.2
    endloop
  endfacet
  facet normal 0.848962 -0.275843 0.450748
    outer loop
      vertex -2.30038 0.590638 -4.2
      vertex -4.18399 1.65656 0
      vertex -4.35862 1.1191 0
    endloop
  endfacet
  facet normal 0.430029 -0.782242 0.450746
    outer loop
      vertex -1.27259 2.00528 -4.2
      vertex -1.01123 2.14896 -4.2
      vertex -2.41122 3.79947 0
    endloop
  endfacet
  facet normal -0.876838 0.167274 0.450749
    outer loop
      vertex 4.46452 -0.563999 0
      vertex 2.35627 -0.297666 -4.2
      vertex 2.30038 -0.590638 -4.2
    endloop
  endfacet
  facet normal -0.753692 0.478304 0.450747
    outer loop
      vertex 3.64058 -2.64503 0
      vertex 3.94338 -2.16789 0
      vertex 1.92142 -1.39599 -4.2
    endloop
  endfacet
  facet normal -0.687793 0.569006 0.450747
    outer loop
      vertex 3.64058 -2.64503 0
      vertex 1.92142 -1.39599 -4.2
      vertex 1.7313 -1.6258 -4.2
    endloop
  endfacet
  facet normal -0.328603 0.829967 0.450748
    outer loop
      vertex 1.39058 -4.27975 0
      vertex 1.91601 -4.07172 0
      vertex 1.01123 -2.14896 -4.2
    endloop
  endfacet
  facet normal -0.61106 0.650716 0.450748
    outer loop
      vertex 2.86841 -3.46731 0
      vertex 1.7313 -1.6258 -4.2
      vertex 1.51388 -1.82997 -4.2
    endloop
  endfacet
  facet normal -0.221985 0.86461 0.450747
    outer loop
      vertex 1.39058 -4.27975 0
      vertex 0.733915 -2.25876 -4.2
      vertex 0.44503 -2.33293 -4.2
    endloop
  endfacet
  facet normal 0.848962 0.275843 0.450748
    outer loop
      vertex -4.18399 -1.65656 0
      vertex -2.30038 -0.590638 -4.2
      vertex -4.35862 -1.1191 0
    endloop
  endfacet
  facet normal 0.876837 0.16728 0.450748
    outer loop
      vertex -4.35862 -1.1191 0
      vertex -2.30038 -0.590638 -4.2
      vertex -4.46452 -0.563999 0
    endloop
  endfacet
  facet normal 0.328615 0.829963 0.450747
    outer loop
      vertex -0.733915 -2.25876 -4.2
      vertex -1.01123 -2.14896 -4.2
      vertex -1.39058 -4.27975 0
    endloop
  endfacet
  facet normal 0.221994 0.864607 0.450748
    outer loop
      vertex -0.843215 -4.42029 0
      vertex -0.44503 -2.33293 -4.2
      vertex -1.39058 -4.27975 0
    endloop
  endfacet
  facet normal 0.221985 0.86461 0.450747
    outer loop
      vertex -0.44503 -2.33293 -4.2
      vertex -0.733915 -2.25876 -4.2
      vertex -1.39058 -4.27975 0
    endloop
  endfacet
  facet normal 0.524693 0.722167 0.450747
    outer loop
      vertex -1.27259 -2.00528 -4.2
      vertex -1.51388 -1.82997 -4.2
      vertex -2.41122 -3.79947 0
    endloop
  endfacet
  facet normal 0.524679 0.722176 0.450748
    outer loop
      vertex -2.41122 -3.79947 0
      vertex -1.51388 -1.82997 -4.2
      vertex -2.86841 -3.46731 0
    endloop
  endfacet
  facet normal 0.753699 0.478293 0.450748
    outer loop
      vertex -1.92142 -1.39599 -4.2
      vertex -2.08123 -1.14416 -4.2
      vertex -3.94338 -2.16789 0
    endloop
  endfacet
  facet normal 0.611065 0.650712 0.450748
    outer loop
      vertex -2.86841 -3.46731 0
      vertex -1.7313 -1.6258 -4.2
      vertex -3.28036 -3.08046 0
    endloop
  endfacet
  facet normal -0.611065 -0.650712 0.450748
    outer loop
      vertex 3.28036 3.08046 0
      vertex 2.86841 3.46731 0
      vertex 1.7313 1.6258 -4.2
    endloop
  endfacet
  facet normal -0.524693 -0.722167 0.450747
    outer loop
      vertex 1.51388 1.82997 -4.2
      vertex 2.41122 3.79947 0
      vertex 1.27259 2.00528 -4.2
    endloop
  endfacet
  facet normal -0.111883 -0.885612 0.450748
    outer loop
      vertex 0.44503 2.33293 -4.2
      vertex 0.843215 4.42029 0
      vertex 0.282557 4.49112 0
    endloop
  endfacet
  facet normal 0.111883 -0.885612 0.450748
    outer loop
      vertex -0.44503 2.33293 -4.2
      vertex -0.282557 4.49112 0
      vertex -0.843215 4.42029 0
    endloop
  endfacet
  facet normal 0.876837 -0.16728 0.450748
    outer loop
      vertex -2.30038 0.590638 -4.2
      vertex -4.35862 1.1191 0
      vertex -4.46452 0.563999 0
    endloop
  endfacet
  facet normal 0.753699 -0.478293 0.450748
    outer loop
      vertex -2.08123 1.14416 -4.2
      vertex -1.92142 1.39599 -4.2
      vertex -3.94338 2.16789 0
    endloop
  endfacet
  facet normal 0.753692 -0.478304 0.450747
    outer loop
      vertex -1.92142 1.39599 -4.2
      vertex -3.64058 2.64503 0
      vertex -3.94338 2.16789 0
    endloop
  endfacet
  facet normal 0.687799 -0.568998 0.450748
    outer loop
      vertex -1.7313 1.6258 -4.2
      vertex -3.28036 3.08046 0
      vertex -3.64058 2.64503 0
    endloop
  endfacet
  facet normal -0.221994 0.864607 0.450748
    outer loop
      vertex 0.843215 -4.42029 0
      vertex 1.39058 -4.27975 0
      vertex 0.44503 -2.33293 -4.2
    endloop
  endfacet
  facet normal -0.111883 0.885612 0.450748
    outer loop
      vertex 0.843215 -4.42029 0
      vertex 0.44503 -2.33293 -4.2
      vertex 0.282557 -4.49112 0
    endloop
  endfacet
  facet normal -0.524679 0.722176 0.450748
    outer loop
      vertex 2.41122 -3.79947 0
      vertex 2.86841 -3.46731 0
      vertex 1.51388 -1.82997 -4.2
    endloop
  endfacet
  facet normal -0.611065 0.650712 0.450748
    outer loop
      vertex 2.86841 -3.46731 0
      vertex 3.28036 -3.08046 0
      vertex 1.7313 -1.6258 -4.2
    endloop
  endfacet
  facet normal 0.328603 0.829967 0.450748
    outer loop
      vertex -1.39058 -4.27975 0
      vertex -1.01123 -2.14896 -4.2
      vertex -1.91601 -4.07172 0
    endloop
  endfacet
  facet normal 0.111883 0.885612 0.450748
    outer loop
      vertex -0.282557 -4.49112 0
      vertex -0.44503 -2.33293 -4.2
      vertex -0.843215 -4.42029 0
    endloop
  endfacet
  facet normal 0.687799 0.568998 0.450748
    outer loop
      vertex -3.28036 -3.08046 0
      vertex -1.7313 -1.6258 -4.2
      vertex -3.64058 -2.64503 0
    endloop
  endfacet
  facet normal -0.753692 -0.478304 0.450747
    outer loop
      vertex 3.94338 2.16789 0
      vertex 3.64058 2.64503 0
      vertex 1.92142 1.39599 -4.2
    endloop
  endfacet
  facet normal -0.687799 -0.568998 0.450748
    outer loop
      vertex 3.64058 2.64503 0
      vertex 3.28036 3.08046 0
      vertex 1.7313 1.6258 -4.2
    endloop
  endfacet
  facet normal -0.221994 -0.864607 0.450748
    outer loop
      vertex 1.39058 4.27975 0
      vertex 0.843215 4.42029 0
      vertex 0.44503 2.33293 -4.2
    endloop
  endfacet
  facet normal -0.430029 -0.782242 0.450746
    outer loop
      vertex 1.27259 2.00528 -4.2
      vertex 2.41122 3.79947 0
      vertex 1.01123 2.14896 -4.2
    endloop
  endfacet
  facet normal 0.524679 -0.722176 0.450748
    outer loop
      vertex -1.51388 1.82997 -4.2
      vertex -2.41122 3.79947 0
      vertex -2.86841 3.46731 0
    endloop
  endfacet
  facet normal 0.61106 -0.650716 0.450748
    outer loop
      vertex -1.7313 1.6258 -4.2
      vertex -1.51388 1.82997 -4.2
      vertex -2.86841 3.46731 0
    endloop
  endfacet
  facet normal 0.328603 -0.829967 0.450748
    outer loop
      vertex -1.01123 2.14896 -4.2
      vertex -1.39058 4.27975 0
      vertex -1.91601 4.07172 0
    endloop
  endfacet
  facet normal 0.430045 -0.782232 0.450748
    outer loop
      vertex -1.01123 2.14896 -4.2
      vertex -1.91601 4.07172 0
      vertex -2.41122 3.79947 0
    endloop
  endfacet
  facet normal 0.328615 -0.829963 0.450747
    outer loop
      vertex -1.01123 2.14896 -4.2
      vertex -0.733915 2.25876 -4.2
      vertex -1.39058 4.27975 0
    endloop
  endfacet
  facet normal 0.221985 -0.86461 0.450747
    outer loop
      vertex -0.733915 2.25876 -4.2
      vertex -0.44503 2.33293 -4.2
      vertex -1.39058 4.27975 0
    endloop
  endfacet
  facet normal 0.807697 -0.380068 0.450748
    outer loop
      vertex -2.08123 1.14416 -4.2
      vertex -3.94338 2.16789 0
      vertex -4.18399 1.65656 0
    endloop
  endfacet
  facet normal 0.89089 -0.056044 0.450748
    outer loop
      vertex -2.375 0 -4.2
      vertex -4.46452 0.563999 0
      vertex -4.5 0 0
    endloop
  endfacet
  facet normal 0.890889 -0.0560573 0.450749
    outer loop
      vertex -2.375 0 -4.2
      vertex -2.35627 0.297666 -4.2
      vertex -4.46452 0.563999 0
    endloop
  endfacet
  facet normal -0.328615 0.829963 0.450747
    outer loop
      vertex 1.39058 -4.27975 0
      vertex 1.01123 -2.14896 -4.2
      vertex 0.733915 -2.25876 -4.2
    endloop
  endfacet
  facet normal -0.524693 0.722167 0.450747
    outer loop
      vertex 2.41122 -3.79947 0
      vertex 1.51388 -1.82997 -4.2
      vertex 1.27259 -2.00528 -4.2
    endloop
  endfacet
  facet normal 0.807697 0.380068 0.450748
    outer loop
      vertex -3.94338 -2.16789 0
      vertex -2.08123 -1.14416 -4.2
      vertex -4.18399 -1.65656 0
    endloop
  endfacet
  facet normal 0.430045 0.782232 0.450748
    outer loop
      vertex -1.91601 -4.07172 0
      vertex -1.01123 -2.14896 -4.2
      vertex -2.41122 -3.79947 0
    endloop
  endfacet
  facet normal 0.430029 0.782242 0.450746
    outer loop
      vertex -1.01123 -2.14896 -4.2
      vertex -1.27259 -2.00528 -4.2
      vertex -2.41122 -3.79947 0
    endloop
  endfacet
  facet normal 0 0.892651 0.450748
    outer loop
      vertex 0.149127 -2.37031 -4.2
      vertex -0.282557 -4.49112 0
      vertex 0.282557 -4.49112 0
    endloop
  endfacet
  facet normal 0 0.892651 0.450748
    outer loop
      vertex -0.282557 -4.49112 0
      vertex 0.149127 -2.37031 -4.2
      vertex -0.149127 -2.37031 -4.2
    endloop
  endfacet
  facet normal 0.687793 0.569006 0.450747
    outer loop
      vertex -1.7313 -1.6258 -4.2
      vertex -1.92142 -1.39599 -4.2
      vertex -3.64058 -2.64503 0
    endloop
  endfacet
  facet normal 0.753692 0.478304 0.450747
    outer loop
      vertex -3.64058 -2.64503 0
      vertex -1.92142 -1.39599 -4.2
      vertex -3.94338 -2.16789 0
    endloop
  endfacet
  facet normal -0.61106 -0.650716 0.450748
    outer loop
      vertex 1.7313 1.6258 -4.2
      vertex 2.86841 3.46731 0
      vertex 1.51388 1.82997 -4.2
    endloop
  endfacet
  facet normal -0.524679 -0.722176 0.450748
    outer loop
      vertex 2.86841 3.46731 0
      vertex 2.41122 3.79947 0
      vertex 1.51388 1.82997 -4.2
    endloop
  endfacet
  facet normal -0.111875 -0.885613 0.450748
    outer loop
      vertex 0.44503 2.33293 -4.2
      vertex 0.282557 4.49112 0
      vertex 0.149127 2.37031 -4.2
    endloop
  endfacet
  facet normal -0.328603 -0.829967 0.450748
    outer loop
      vertex 1.91601 4.07172 0
      vertex 1.39058 4.27975 0
      vertex 1.01123 2.14896 -4.2
    endloop
  endfacet
  facet normal -0.221985 -0.86461 0.450747
    outer loop
      vertex 0.733915 2.25876 -4.2
      vertex 1.39058 4.27975 0
      vertex 0.44503 2.33293 -4.2
    endloop
  endfacet
  facet normal -0.328615 -0.829963 0.450747
    outer loop
      vertex 1.01123 2.14896 -4.2
      vertex 1.39058 4.27975 0
      vertex 0.733915 2.25876 -4.2
    endloop
  endfacet
  facet normal 0.524693 -0.722167 0.450747
    outer loop
      vertex -1.51388 1.82997 -4.2
      vertex -1.27259 2.00528 -4.2
      vertex -2.41122 3.79947 0
    endloop
  endfacet
  facet normal 0.611065 -0.650712 0.450748
    outer loop
      vertex -1.7313 1.6258 -4.2
      vertex -2.86841 3.46731 0
      vertex -3.28036 3.08046 0
    endloop
  endfacet
  facet normal 0.848967 -0.275829 0.450747
    outer loop
      vertex -2.30038 0.590638 -4.2
      vertex -2.20822 0.874295 -4.2
      vertex -4.18399 1.65656 0
    endloop
  endfacet
  facet normal 0.807694 -0.380075 0.450747
    outer loop
      vertex -2.20822 0.874295 -4.2
      vertex -2.08123 1.14416 -4.2
      vertex -4.18399 1.65656 0
    endloop
  endfacet
  facet normal 0.89089 0.056044 0.450748
    outer loop
      vertex -4.46452 -0.563999 0
      vertex -2.375 0 -4.2
      vertex -4.5 0 0
    endloop
  endfacet
  facet normal 0.807694 0.380075 0.450747
    outer loop
      vertex -2.08123 -1.14416 -4.2
      vertex -2.20822 -0.874295 -4.2
      vertex -4.18399 -1.65656 0
    endloop
  endfacet
  facet normal 0.848967 0.275829 0.450747
    outer loop
      vertex -2.20822 -0.874295 -4.2
      vertex -2.30038 -0.590638 -4.2
      vertex -4.18399 -1.65656 0
    endloop
  endfacet
  facet normal 0.111875 0.885613 0.450748
    outer loop
      vertex -0.282557 -4.49112 0
      vertex -0.149127 -2.37031 -4.2
      vertex -0.44503 -2.33293 -4.2
    endloop
  endfacet
  facet normal -0.687793 -0.569006 0.450747
    outer loop
      vertex 1.92142 1.39599 -4.2
      vertex 3.64058 2.64503 0
      vertex 1.7313 1.6258 -4.2
    endloop
  endfacet
  facet normal -0.876837 -0.16728 0.450748
    outer loop
      vertex 4.46452 0.563999 0
      vertex 4.35862 1.1191 0
      vertex 2.30038 0.590638 -4.2
    endloop
  endfacet
  facet normal -0.876838 -0.167274 0.450749
    outer loop
      vertex 2.35627 0.297666 -4.2
      vertex 4.46452 0.563999 0
      vertex 2.30038 0.590638 -4.2
    endloop
  endfacet
  facet normal -0.807697 -0.380068 0.450748
    outer loop
      vertex 4.18399 1.65656 0
      vertex 3.94338 2.16789 0
      vertex 2.08123 1.14416 -4.2
    endloop
  endfacet
  facet normal -0.753699 -0.478293 0.450748
    outer loop
      vertex 2.08123 1.14416 -4.2
      vertex 3.94338 2.16789 0
      vertex 1.92142 1.39599 -4.2
    endloop
  endfacet
  facet normal 0 -0.892651 0.450748
    outer loop
      vertex -0.149127 2.37031 -4.2
      vertex 0.282557 4.49112 0
      vertex -0.282557 4.49112 0
    endloop
  endfacet
  facet normal 0 -0.892651 0.450748
    outer loop
      vertex 0.282557 4.49112 0
      vertex -0.149127 2.37031 -4.2
      vertex 0.149127 2.37031 -4.2
    endloop
  endfacet
  facet normal 0.890889 0.0560573 0.450749
    outer loop
      vertex -2.35627 -0.297666 -4.2
      vertex -2.375 0 -4.2
      vertex -4.46452 -0.563999 0
    endloop
  endfacet
  facet normal -0.807694 -0.380075 0.450747
    outer loop
      vertex 2.20822 0.874295 -4.2
      vertex 4.18399 1.65656 0
      vertex 2.08123 1.14416 -4.2
    endloop
  endfacet
  facet normal -0.848967 -0.275829 0.450747
    outer loop
      vertex 2.30038 0.590638 -4.2
      vertex 4.18399 1.65656 0
      vertex 2.20822 0.874295 -4.2
    endloop
  endfacet
  facet normal -0.848962 -0.275843 0.450748
    outer loop
      vertex 4.35862 1.1191 0
      vertex 4.18399 1.65656 0
      vertex 2.30038 0.590638 -4.2
    endloop
  endfacet
  facet normal 0.876838 -0.167274 0.450749
    outer loop
      vertex -2.35627 0.297666 -4.2
      vertex -2.30038 0.590638 -4.2
      vertex -4.46452 0.563999 0
    endloop
  endfacet
  facet normal -0.998026 -0.0627987 0
    outer loop
      vertex 2.375 0 -60
      vertex 2.35627 0.297666 -4.2
      vertex 2.35627 0.297666 -60
    endloop
  endfacet
  facet normal -0.998026 -0.0627987 0
    outer loop
      vertex 2.35627 0.297666 -4.2
      vertex 2.375 0 -60
      vertex 2.375 0 -4.2
    endloop
  endfacet
  facet normal 0.998026 -0.0627987 0
    outer loop
      vertex -2.375 0 -4.2
      vertex -2.35627 0.297666 -60
      vertex -2.35627 0.297666 -4.2
    endloop
  endfacet
  facet normal 0.998026 -0.0627987 0
    outer loop
      vertex -2.35627 0.297666 -60
      vertex -2.375 0 -4.2
      vertex -2.375 0 -60
    endloop
  endfacet
  facet normal 0 -1 0
    outer loop
      vertex -0.149127 2.37031 -60
      vertex 0.149127 2.37031 -4.2
      vertex -0.149127 2.37031 -4.2
    endloop
  endfacet
  facet normal 0 -1 -0
    outer loop
      vertex 0.149127 2.37031 -4.2
      vertex -0.149127 2.37031 -60
      vertex 0.149127 2.37031 -60
    endloop
  endfacet
  facet normal 0 1 -0
    outer loop
      vertex 0.149127 -2.37031 -60
      vertex -0.149127 -2.37031 -4.2
      vertex 0.149127 -2.37031 -4.2
    endloop
  endfacet
  facet normal 0 1 0
    outer loop
      vertex -0.149127 -2.37031 -4.2
      vertex 0.149127 -2.37031 -60
      vertex -0.149127 -2.37031 -60
    endloop
  endfacet
  facet normal -0.684545 0.72897 0
    outer loop
      vertex 1.7313 -1.6258 -60
      vertex 1.51388 -1.82997 -4.2
      vertex 1.7313 -1.6258 -4.2
    endloop
  endfacet
  facet normal -0.684545 0.72897 0
    outer loop
      vertex 1.51388 -1.82997 -4.2
      vertex 1.7313 -1.6258 -60
      vertex 1.51388 -1.82997 -60
    endloop
  endfacet
  facet normal -0.684545 -0.72897 0
    outer loop
      vertex 1.51388 1.82997 -60
      vertex 1.7313 1.6258 -4.2
      vertex 1.51388 1.82997 -4.2
    endloop
  endfacet
  facet normal -0.684545 -0.72897 -0
    outer loop
      vertex 1.7313 1.6258 -4.2
      vertex 1.51388 1.82997 -60
      vertex 1.7313 1.6258 -60
    endloop
  endfacet
  facet normal 0.684545 -0.72897 0
    outer loop
      vertex -1.7313 1.6258 -60
      vertex -1.51388 1.82997 -4.2
      vertex -1.7313 1.6258 -4.2
    endloop
  endfacet
  facet normal 0.684545 -0.72897 0
    outer loop
      vertex -1.51388 1.82997 -4.2
      vertex -1.7313 1.6258 -60
      vertex -1.51388 1.82997 -60
    endloop
  endfacet
  facet normal 0.368134 -0.929773 0
    outer loop
      vertex -1.01123 2.14896 -60
      vertex -0.733915 2.25876 -4.2
      vertex -1.01123 2.14896 -4.2
    endloop
  endfacet
  facet normal 0.368134 -0.929773 0
    outer loop
      vertex -0.733915 2.25876 -4.2
      vertex -1.01123 2.14896 -60
      vertex -0.733915 2.25876 -60
    endloop
  endfacet
  facet normal -0.904826 -0.425783 0
    outer loop
      vertex 2.20822 0.874295 -60
      vertex 2.08123 1.14416 -4.2
      vertex 2.08123 1.14416 -60
    endloop
  endfacet
  facet normal -0.904826 -0.425783 0
    outer loop
      vertex 2.08123 1.14416 -4.2
      vertex 2.20822 0.874295 -60
      vertex 2.20822 0.874295 -4.2
    endloop
  endfacet
  facet normal -0.982286 -0.18739 0
    outer loop
      vertex 2.35627 0.297666 -60
      vertex 2.30038 0.590638 -4.2
      vertex 2.30038 0.590638 -60
    endloop
  endfacet
  facet normal -0.982286 -0.18739 0
    outer loop
      vertex 2.30038 0.590638 -4.2
      vertex 2.35627 0.297666 -60
      vertex 2.35627 0.297666 -4.2
    endloop
  endfacet
  facet normal -0.368134 -0.929773 0
    outer loop
      vertex 0.733915 2.25876 -60
      vertex 1.01123 2.14896 -4.2
      vertex 0.733915 2.25876 -4.2
    endloop
  endfacet
  facet normal -0.368134 -0.929773 -0
    outer loop
      vertex 1.01123 2.14896 -4.2
      vertex 0.733915 2.25876 -60
      vertex 1.01123 2.14896 -60
    endloop
  endfacet
  facet normal -0.24868 -0.968586 0
    outer loop
      vertex 0.44503 2.33293 -60
      vertex 0.733915 2.25876 -4.2
      vertex 0.44503 2.33293 -4.2
    endloop
  endfacet
  facet normal -0.24868 -0.968586 -0
    outer loop
      vertex 0.733915 2.25876 -4.2
      vertex 0.44503 2.33293 -60
      vertex 0.733915 2.25876 -60
    endloop
  endfacet
  facet normal -0.481744 -0.876312 0
    outer loop
      vertex 1.01123 2.14896 -60
      vertex 1.27259 2.00528 -4.2
      vertex 1.01123 2.14896 -4.2
    endloop
  endfacet
  facet normal -0.481744 -0.876312 -0
    outer loop
      vertex 1.27259 2.00528 -4.2
      vertex 1.01123 2.14896 -60
      vertex 1.27259 2.00528 -60
    endloop
  endfacet
  facet normal 0.844337 -0.535812 0
    outer loop
      vertex -2.08123 1.14416 -4.2
      vertex -1.92142 1.39599 -60
      vertex -1.92142 1.39599 -4.2
    endloop
  endfacet
  facet normal 0.844337 -0.535812 0
    outer loop
      vertex -1.92142 1.39599 -60
      vertex -2.08123 1.14416 -4.2
      vertex -2.08123 1.14416 -60
    endloop
  endfacet
  facet normal 0.770506 -0.637433 0
    outer loop
      vertex -1.92142 1.39599 -4.2
      vertex -1.7313 1.6258 -60
      vertex -1.7313 1.6258 -4.2
    endloop
  endfacet
  facet normal 0.770506 -0.637433 0
    outer loop
      vertex -1.7313 1.6258 -60
      vertex -1.92142 1.39599 -4.2
      vertex -1.92142 1.39599 -60
    endloop
  endfacet
  facet normal 0.951062 -0.309 0
    outer loop
      vertex -2.30038 0.590638 -4.2
      vertex -2.20822 0.874295 -60
      vertex -2.20822 0.874295 -4.2
    endloop
  endfacet
  facet normal 0.951062 -0.309 0
    outer loop
      vertex -2.20822 0.874295 -60
      vertex -2.30038 0.590638 -4.2
      vertex -2.30038 0.590638 -60
    endloop
  endfacet
  facet normal 0.587791 -0.809013 0
    outer loop
      vertex -1.51388 1.82997 -60
      vertex -1.27259 2.00528 -4.2
      vertex -1.51388 1.82997 -4.2
    endloop
  endfacet
  facet normal 0.587791 -0.809013 0
    outer loop
      vertex -1.27259 2.00528 -4.2
      vertex -1.51388 1.82997 -60
      vertex -1.27259 2.00528 -60
    endloop
  endfacet
  facet normal 0.125329 -0.992115 0
    outer loop
      vertex -0.44503 2.33293 -60
      vertex -0.149127 2.37031 -4.2
      vertex -0.44503 2.33293 -4.2
    endloop
  endfacet
  facet normal 0.125329 -0.992115 0
    outer loop
      vertex -0.149127 2.37031 -4.2
      vertex -0.44503 2.33293 -60
      vertex -0.149127 2.37031 -60
    endloop
  endfacet
  facet normal -0.951062 0.309 0
    outer loop
      vertex 2.20822 -0.874295 -60
      vertex 2.30038 -0.590638 -4.2
      vertex 2.30038 -0.590638 -60
    endloop
  endfacet
  facet normal -0.951062 0.309 0
    outer loop
      vertex 2.30038 -0.590638 -4.2
      vertex 2.20822 -0.874295 -60
      vertex 2.20822 -0.874295 -4.2
    endloop
  endfacet
  facet normal -0.125329 0.992115 0
    outer loop
      vertex 0.44503 -2.33293 -60
      vertex 0.149127 -2.37031 -4.2
      vertex 0.44503 -2.33293 -4.2
    endloop
  endfacet
  facet normal -0.125329 0.992115 0
    outer loop
      vertex 0.149127 -2.37031 -4.2
      vertex 0.44503 -2.33293 -60
      vertex 0.149127 -2.37031 -60
    endloop
  endfacet
  facet normal -0.951062 -0.309 0
    outer loop
      vertex 2.30038 0.590638 -60
      vertex 2.20822 0.874295 -4.2
      vertex 2.20822 0.874295 -60
    endloop
  endfacet
  facet normal -0.951062 -0.309 0
    outer loop
      vertex 2.20822 0.874295 -4.2
      vertex 2.30038 0.590638 -60
      vertex 2.30038 0.590638 -4.2
    endloop
  endfacet
  facet normal -0.770506 -0.637433 0
    outer loop
      vertex 1.92142 1.39599 -60
      vertex 1.7313 1.6258 -4.2
      vertex 1.7313 1.6258 -60
    endloop
  endfacet
  facet normal -0.770506 -0.637433 0
    outer loop
      vertex 1.7313 1.6258 -4.2
      vertex 1.92142 1.39599 -60
      vertex 1.92142 1.39599 -4.2
    endloop
  endfacet
  facet normal -0.844337 -0.535812 0
    outer loop
      vertex 2.08123 1.14416 -60
      vertex 1.92142 1.39599 -4.2
      vertex 1.92142 1.39599 -60
    endloop
  endfacet
  facet normal -0.844337 -0.535812 0
    outer loop
      vertex 1.92142 1.39599 -4.2
      vertex 2.08123 1.14416 -60
      vertex 2.08123 1.14416 -4.2
    endloop
  endfacet
  facet normal -0.125329 -0.992115 0
    outer loop
      vertex 0.149127 2.37031 -60
      vertex 0.44503 2.33293 -4.2
      vertex 0.149127 2.37031 -4.2
    endloop
  endfacet
  facet normal -0.125329 -0.992115 -0
    outer loop
      vertex 0.44503 2.33293 -4.2
      vertex 0.149127 2.37031 -60
      vertex 0.44503 2.33293 -60
    endloop
  endfacet
  facet normal -0.587791 -0.809013 0
    outer loop
      vertex 1.27259 2.00528 -60
      vertex 1.51388 1.82997 -4.2
      vertex 1.27259 2.00528 -4.2
    endloop
  endfacet
  facet normal -0.587791 -0.809013 -0
    outer loop
      vertex 1.51388 1.82997 -4.2
      vertex 1.27259 2.00528 -60
      vertex 1.51388 1.82997 -60
    endloop
  endfacet
  facet normal 0.904826 -0.425783 0
    outer loop
      vertex -2.20822 0.874295 -4.2
      vertex -2.08123 1.14416 -60
      vertex -2.08123 1.14416 -4.2
    endloop
  endfacet
  facet normal 0.904826 -0.425783 0
    outer loop
      vertex -2.08123 1.14416 -60
      vertex -2.20822 0.874295 -4.2
      vertex -2.20822 0.874295 -60
    endloop
  endfacet
  facet normal 0.982286 -0.18739 0
    outer loop
      vertex -2.35627 0.297666 -4.2
      vertex -2.30038 0.590638 -60
      vertex -2.30038 0.590638 -4.2
    endloop
  endfacet
  facet normal 0.982286 -0.18739 0
    outer loop
      vertex -2.30038 0.590638 -60
      vertex -2.35627 0.297666 -4.2
      vertex -2.35627 0.297666 -60
    endloop
  endfacet
  facet normal 0.481744 -0.876312 0
    outer loop
      vertex -1.27259 2.00528 -60
      vertex -1.01123 2.14896 -4.2
      vertex -1.27259 2.00528 -4.2
    endloop
  endfacet
  facet normal 0.481744 -0.876312 0
    outer loop
      vertex -1.01123 2.14896 -4.2
      vertex -1.27259 2.00528 -60
      vertex -1.01123 2.14896 -60
    endloop
  endfacet
  facet normal 0.24868 -0.968586 0
    outer loop
      vertex -0.733915 2.25876 -60
      vertex -0.44503 2.33293 -4.2
      vertex -0.733915 2.25876 -4.2
    endloop
  endfacet
  facet normal 0.24868 -0.968586 0
    outer loop
      vertex -0.44503 2.33293 -4.2
      vertex -0.733915 2.25876 -60
      vertex -0.44503 2.33293 -60
    endloop
  endfacet
  facet normal -0.982286 0.18739 0
    outer loop
      vertex 2.30038 -0.590638 -60
      vertex 2.35627 -0.297666 -4.2
      vertex 2.35627 -0.297666 -60
    endloop
  endfacet
  facet normal -0.982286 0.18739 0
    outer loop
      vertex 2.35627 -0.297666 -4.2
      vertex 2.30038 -0.590638 -60
      vertex 2.30038 -0.590638 -4.2
    endloop
  endfacet
  facet normal -0.368134 0.929773 0
    outer loop
      vertex 1.01123 -2.14896 -60
      vertex 0.733915 -2.25876 -4.2
      vertex 1.01123 -2.14896 -4.2
    endloop
  endfacet
  facet normal -0.368134 0.929773 0
    outer loop
      vertex 0.733915 -2.25876 -4.2
      vertex 1.01123 -2.14896 -60
      vertex 0.733915 -2.25876 -60
    endloop
  endfacet
  facet normal -0.904826 0.425783 0
    outer loop
      vertex 2.08123 -1.14416 -60
      vertex 2.20822 -0.874295 -4.2
      vertex 2.20822 -0.874295 -60
    endloop
  endfacet
  facet normal -0.904826 0.425783 0
    outer loop
      vertex 2.20822 -0.874295 -4.2
      vertex 2.08123 -1.14416 -60
      vertex 2.08123 -1.14416 -4.2
    endloop
  endfacet
  facet normal -0.998026 0.0627987 0
    outer loop
      vertex 2.35627 -0.297666 -60
      vertex 2.375 0 -4.2
      vertex 2.375 0 -60
    endloop
  endfacet
  facet normal -0.998026 0.0627987 0
    outer loop
      vertex 2.375 0 -4.2
      vertex 2.35627 -0.297666 -60
      vertex 2.35627 -0.297666 -4.2
    endloop
  endfacet
  facet normal 0.481744 0.876312 -0
    outer loop
      vertex -1.01123 -2.14896 -60
      vertex -1.27259 -2.00528 -4.2
      vertex -1.01123 -2.14896 -4.2
    endloop
  endfacet
  facet normal 0.481744 0.876312 0
    outer loop
      vertex -1.27259 -2.00528 -4.2
      vertex -1.01123 -2.14896 -60
      vertex -1.27259 -2.00528 -60
    endloop
  endfacet
  facet normal 0.684545 0.72897 -0
    outer loop
      vertex -1.51388 -1.82997 -60
      vertex -1.7313 -1.6258 -4.2
      vertex -1.51388 -1.82997 -4.2
    endloop
  endfacet
  facet normal 0.684545 0.72897 0
    outer loop
      vertex -1.7313 -1.6258 -4.2
      vertex -1.51388 -1.82997 -60
      vertex -1.7313 -1.6258 -60
    endloop
  endfacet
  facet normal 0.770506 0.637433 0
    outer loop
      vertex -1.7313 -1.6258 -4.2
      vertex -1.92142 -1.39599 -60
      vertex -1.92142 -1.39599 -4.2
    endloop
  endfacet
  facet normal 0.770506 0.637433 0
    outer loop
      vertex -1.92142 -1.39599 -60
      vertex -1.7313 -1.6258 -4.2
      vertex -1.7313 -1.6258 -60
    endloop
  endfacet
  facet normal 0.951062 0.309 0
    outer loop
      vertex -2.20822 -0.874295 -4.2
      vertex -2.30038 -0.590638 -60
      vertex -2.30038 -0.590638 -4.2
    endloop
  endfacet
  facet normal 0.951062 0.309 0
    outer loop
      vertex -2.30038 -0.590638 -60
      vertex -2.20822 -0.874295 -4.2
      vertex -2.20822 -0.874295 -60
    endloop
  endfacet
  facet normal -0.481744 0.876312 0
    outer loop
      vertex 1.27259 -2.00528 -60
      vertex 1.01123 -2.14896 -4.2
      vertex 1.27259 -2.00528 -4.2
    endloop
  endfacet
  facet normal -0.481744 0.876312 0
    outer loop
      vertex 1.01123 -2.14896 -4.2
      vertex 1.27259 -2.00528 -60
      vertex 1.01123 -2.14896 -60
    endloop
  endfacet
  facet normal -0.24868 0.968586 0
    outer loop
      vertex 0.733915 -2.25876 -60
      vertex 0.44503 -2.33293 -4.2
      vertex 0.733915 -2.25876 -4.2
    endloop
  endfacet
  facet normal -0.24868 0.968586 0
    outer loop
      vertex 0.44503 -2.33293 -4.2
      vertex 0.733915 -2.25876 -60
      vertex 0.44503 -2.33293 -60
    endloop
  endfacet
  facet normal -0.844337 0.535812 0
    outer loop
      vertex 1.92142 -1.39599 -60
      vertex 2.08123 -1.14416 -4.2
      vertex 2.08123 -1.14416 -60
    endloop
  endfacet
  facet normal -0.844337 0.535812 0
    outer loop
      vertex 2.08123 -1.14416 -4.2
      vertex 1.92142 -1.39599 -60
      vertex 1.92142 -1.39599 -4.2
    endloop
  endfacet
  facet normal -0.770506 0.637433 0
    outer loop
      vertex 1.7313 -1.6258 -60
      vertex 1.92142 -1.39599 -4.2
      vertex 1.92142 -1.39599 -60
    endloop
  endfacet
  facet normal -0.770506 0.637433 0
    outer loop
      vertex 1.92142 -1.39599 -4.2
      vertex 1.7313 -1.6258 -60
      vertex 1.7313 -1.6258 -4.2
    endloop
  endfacet
  facet normal 0.24868 0.968586 -0
    outer loop
      vertex -0.44503 -2.33293 -60
      vertex -0.733915 -2.25876 -4.2
      vertex -0.44503 -2.33293 -4.2
    endloop
  endfacet
  facet normal 0.24868 0.968586 0
    outer loop
      vertex -0.733915 -2.25876 -4.2
      vertex -0.44503 -2.33293 -60
      vertex -0.733915 -2.25876 -60
    endloop
  endfacet
  facet normal 0.368134 0.929773 -0
    outer loop
      vertex -0.733915 -2.25876 -60
      vertex -1.01123 -2.14896 -4.2
      vertex -0.733915 -2.25876 -4.2
    endloop
  endfacet
  facet normal 0.368134 0.929773 0
    outer loop
      vertex -1.01123 -2.14896 -4.2
      vertex -0.733915 -2.25876 -60
      vertex -1.01123 -2.14896 -60
    endloop
  endfacet
  facet normal 0.125329 0.992115 -0
    outer loop
      vertex -0.149127 -2.37031 -60
      vertex -0.44503 -2.33293 -4.2
      vertex -0.149127 -2.37031 -4.2
    endloop
  endfacet
  facet normal 0.125329 0.992115 0
    outer loop
      vertex -0.44503 -2.33293 -4.2
      vertex -0.149127 -2.37031 -60
      vertex -0.44503 -2.33293 -60
    endloop
  endfacet
  facet normal 0.587791 0.809013 -0
    outer loop
      vertex -1.27259 -2.00528 -60
      vertex -1.51388 -1.82997 -4.2
      vertex -1.27259 -2.00528 -4.2
    endloop
  endfacet
  facet normal 0.587791 0.809013 0
    outer loop
      vertex -1.51388 -1.82997 -4.2
      vertex -1.27259 -2.00528 -60
      vertex -1.51388 -1.82997 -60
    endloop
  endfacet
  facet normal 0.844337 0.535812 0
    outer loop
      vertex -1.92142 -1.39599 -4.2
      vertex -2.08123 -1.14416 -60
      vertex -2.08123 -1.14416 -4.2
    endloop
  endfacet
  facet normal 0.844337 0.535812 0
    outer loop
      vertex -2.08123 -1.14416 -60
      vertex -1.92142 -1.39599 -4.2
      vertex -1.92142 -1.39599 -60
    endloop
  endfacet
  facet normal 0.904826 0.425783 0
    outer loop
      vertex -2.08123 -1.14416 -4.2
      vertex -2.20822 -0.874295 -60
      vertex -2.20822 -0.874295 -4.2
    endloop
  endfacet
  facet normal 0.904826 0.425783 0
    outer loop
      vertex -2.20822 -0.874295 -60
      vertex -2.08123 -1.14416 -4.2
      vertex -2.08123 -1.14416 -60
    endloop
  endfacet
  facet normal 0.982286 0.18739 0
    outer loop
      vertex -2.30038 -0.590638 -4.2
      vertex -2.35627 -0.297666 -60
      vertex -2.35627 -0.297666 -4.2
    endloop
  endfacet
  facet normal 0.982286 0.18739 0
    outer loop
      vertex -2.35627 -0.297666 -60
      vertex -2.30038 -0.590638 -4.2
      vertex -2.30038 -0.590638 -60
    endloop
  endfacet
  facet normal 0.998026 0.0627987 0
    outer loop
      vertex -2.35627 -0.297666 -4.2
      vertex -2.375 0 -60
      vertex -2.375 0 -4.2
    endloop
  endfacet
  facet normal 0.998026 0.0627987 0
    outer loop
      vertex -2.375 0 -60
      vertex -2.35627 -0.297666 -4.2
      vertex -2.35627 -0.297666 -60
    endloop
  endfacet
  facet normal -0.587791 0.809013 0
    outer loop
      vertex 1.51388 -1.82997 -60
      vertex 1.27259 -2.00528 -4.2
      vertex 1.51388 -1.82997 -4.2
    endloop
  endfacet
  facet normal -0.587791 0.809013 0
    outer loop
      vertex 1.27259 -2.00528 -4.2
      vertex 1.51388 -1.82997 -60
      vertex 1.27259 -2.00528 -60
    endloop
  endfacet
  facet normal 0.844326 0.535829 0
    outer loop
      vertex 6.13415 3.37228 0
      vertex 5.66312 4.1145 -60
      vertex 5.66312 4.1145 0
    endloop
  endfacet
  facet normal 0.844326 0.535829 0
    outer loop
      vertex 5.66312 4.1145 -60
      vertex 6.13415 3.37228 0
      vertex 6.13415 3.37228 -60
    endloop
  endfacet
  facet normal 0.368131 0.929774 -0
    outer loop
      vertex 2.98045 6.33379 -60
      vertex 2.16312 6.6574 0
      vertex 2.98045 6.33379 0
    endloop
  endfacet
  facet normal 0.368131 0.929774 0
    outer loop
      vertex 2.16312 6.6574 0
      vertex 2.98045 6.33379 -60
      vertex 2.16312 6.6574 -60
    endloop
  endfacet
  facet normal -0.368131 0.929774 0
    outer loop
      vertex -2.16312 6.6574 -60
      vertex -2.98045 6.33379 0
      vertex -2.16312 6.6574 0
    endloop
  endfacet
  facet normal -0.368131 0.929774 0
    outer loop
      vertex -2.98045 6.33379 0
      vertex -2.16312 6.6574 -60
      vertex -2.98045 6.33379 -60
    endloop
  endfacet
  facet normal -0.904828 0.425778 0
    outer loop
      vertex -6.50844 2.57687 -60
      vertex -6.13415 3.37228 0
      vertex -6.13415 3.37228 -60
    endloop
  endfacet
  facet normal -0.904828 0.425778 0
    outer loop
      vertex -6.13415 3.37228 0
      vertex -6.50844 2.57687 -60
      vertex -6.50844 2.57687 0
    endloop
  endfacet
  facet normal 0.998027 -0.0627939 0
    outer loop
      vertex 6.9448 -0.877332 0
      vertex 7 0 -60
      vertex 7 0 0
    endloop
  endfacet
  facet normal 0.998027 -0.0627939 0
    outer loop
      vertex 7 0 -60
      vertex 6.9448 -0.877332 0
      vertex 6.9448 -0.877332 -60
    endloop
  endfacet
  facet normal 0.982287 0.18738 0
    outer loop
      vertex 6.9448 0.877332 0
      vertex 6.78008 1.74083 -60
      vertex 6.78008 1.74083 0
    endloop
  endfacet
  facet normal 0.982287 0.18738 0
    outer loop
      vertex 6.78008 1.74083 -60
      vertex 6.9448 0.877332 0
      vertex 6.9448 0.877332 -60
    endloop
  endfacet
  facet normal 0.684547 0.728969 -0
    outer loop
      vertex 5.10278 4.79183 -60
      vertex 4.46197 5.39359 0
      vertex 5.10278 4.79183 0
    endloop
  endfacet
  facet normal 0.684547 0.728969 0
    outer loop
      vertex 4.46197 5.39359 0
      vertex 5.10278 4.79183 -60
      vertex 4.46197 5.39359 -60
    endloop
  endfacet
  facet normal 0 1 -0
    outer loop
      vertex 0.439533 6.98619 -60
      vertex -0.439533 6.98619 0
      vertex 0.439533 6.98619 0
    endloop
  endfacet
  facet normal 0 1 0
    outer loop
      vertex -0.439533 6.98619 0
      vertex 0.439533 6.98619 -60
      vertex -0.439533 6.98619 -60
    endloop
  endfacet
  facet normal 0.481755 0.876306 -0
    outer loop
      vertex 3.75079 5.91029 -60
      vertex 2.98045 6.33379 0
      vertex 3.75079 5.91029 0
    endloop
  endfacet
  facet normal 0.481755 0.876306 0
    outer loop
      vertex 2.98045 6.33379 0
      vertex 3.75079 5.91029 -60
      vertex 2.98045 6.33379 -60
    endloop
  endfacet
  facet normal -0.982287 0.18738 0
    outer loop
      vertex -6.9448 0.877332 -60
      vertex -6.78008 1.74083 0
      vertex -6.78008 1.74083 -60
    endloop
  endfacet
  facet normal -0.982287 0.18738 0
    outer loop
      vertex -6.78008 1.74083 0
      vertex -6.9448 0.877332 -60
      vertex -6.9448 0.877332 0
    endloop
  endfacet
  facet normal -0.770511 0.637427 0
    outer loop
      vertex -5.66312 4.1145 -60
      vertex -5.10278 4.79183 0
      vertex -5.10278 4.79183 -60
    endloop
  endfacet
  facet normal -0.770511 0.637427 0
    outer loop
      vertex -5.10278 4.79183 0
      vertex -5.66312 4.1145 -60
      vertex -5.66312 4.1145 0
    endloop
  endfacet
  facet normal -0.248684 0.968585 0
    outer loop
      vertex -1.31167 6.87601 -60
      vertex -2.16312 6.6574 0
      vertex -1.31167 6.87601 0
    endloop
  endfacet
  facet normal -0.248684 0.968585 0
    outer loop
      vertex -2.16312 6.6574 0
      vertex -1.31167 6.87601 -60
      vertex -2.16312 6.6574 -60
    endloop
  endfacet
  facet normal -0.684547 0.728969 0
    outer loop
      vertex -4.46197 5.39359 -60
      vertex -5.10278 4.79183 0
      vertex -4.46197 5.39359 0
    endloop
  endfacet
  facet normal -0.684547 0.728969 0
    outer loop
      vertex -5.10278 4.79183 0
      vertex -4.46197 5.39359 -60
      vertex -5.10278 4.79183 -60
    endloop
  endfacet
  facet normal 0.904828 -0.425778 0
    outer loop
      vertex 6.13415 -3.37228 0
      vertex 6.50844 -2.57687 -60
      vertex 6.50844 -2.57687 0
    endloop
  endfacet
  facet normal 0.904828 -0.425778 0
    outer loop
      vertex 6.50844 -2.57687 -60
      vertex 6.13415 -3.37228 0
      vertex 6.13415 -3.37228 -60
    endloop
  endfacet
  facet normal -0.684547 -0.728969 0
    outer loop
      vertex -5.10278 -4.79183 -60
      vertex -4.46197 -5.39359 0
      vertex -5.10278 -4.79183 0
    endloop
  endfacet
  facet normal -0.684547 -0.728969 -0
    outer loop
      vertex -4.46197 -5.39359 0
      vertex -5.10278 -4.79183 -60
      vertex -4.46197 -5.39359 -60
    endloop
  endfacet
  facet normal -0.904828 -0.425778 0
    outer loop
      vertex -6.13415 -3.37228 -60
      vertex -6.50844 -2.57687 0
      vertex -6.50844 -2.57687 -60
    endloop
  endfacet
  facet normal -0.904828 -0.425778 0
    outer loop
      vertex -6.50844 -2.57687 0
      vertex -6.13415 -3.37228 -60
      vertex -6.13415 -3.37228 0
    endloop
  endfacet
  facet normal 0.481755 -0.876306 0
    outer loop
      vertex 2.98045 -6.33379 -60
      vertex 3.75079 -5.91029 0
      vertex 2.98045 -6.33379 0
    endloop
  endfacet
  facet normal 0.481755 -0.876306 0
    outer loop
      vertex 3.75079 -5.91029 0
      vertex 2.98045 -6.33379 -60
      vertex 3.75079 -5.91029 -60
    endloop
  endfacet
  facet normal 0.770511 0.637427 0
    outer loop
      vertex 5.66312 4.1145 0
      vertex 5.10278 4.79183 -60
      vertex 5.10278 4.79183 0
    endloop
  endfacet
  facet normal 0.770511 0.637427 0
    outer loop
      vertex 5.10278 4.79183 -60
      vertex 5.66312 4.1145 0
      vertex 5.66312 4.1145 -60
    endloop
  endfacet
  facet normal 0.248684 0.968585 -0
    outer loop
      vertex 2.16312 6.6574 -60
      vertex 1.31167 6.87601 0
      vertex 2.16312 6.6574 0
    endloop
  endfacet
  facet normal 0.248684 0.968585 0
    outer loop
      vertex 1.31167 6.87601 0
      vertex 2.16312 6.6574 -60
      vertex 1.31167 6.87601 -60
    endloop
  endfacet
  facet normal 0.125337 0.992114 -0
    outer loop
      vertex 1.31167 6.87601 -60
      vertex 0.439533 6.98619 0
      vertex 1.31167 6.87601 0
    endloop
  endfacet
  facet normal 0.125337 0.992114 0
    outer loop
      vertex 0.439533 6.98619 0
      vertex 1.31167 6.87601 -60
      vertex 0.439533 6.98619 -60
    endloop
  endfacet
  facet normal 0.587783 0.809018 -0
    outer loop
      vertex 4.46197 5.39359 -60
      vertex 3.75079 5.91029 0
      vertex 4.46197 5.39359 0
    endloop
  endfacet
  facet normal 0.587783 0.809018 0
    outer loop
      vertex 3.75079 5.91029 0
      vertex 4.46197 5.39359 -60
      vertex 3.75079 5.91029 -60
    endloop
  endfacet
  facet normal -0.998027 0.0627939 0
    outer loop
      vertex -7 0 -60
      vertex -6.9448 0.877332 0
      vertex -6.9448 0.877332 -60
    endloop
  endfacet
  facet normal -0.998027 0.0627939 0
    outer loop
      vertex -6.9448 0.877332 0
      vertex -7 0 -60
      vertex -7 0 0
    endloop
  endfacet
  facet normal -0.951058 0.309011 0
    outer loop
      vertex -6.78008 1.74083 -60
      vertex -6.50844 2.57687 0
      vertex -6.50844 2.57687 -60
    endloop
  endfacet
  facet normal -0.951058 0.309011 0
    outer loop
      vertex -6.50844 2.57687 0
      vertex -6.78008 1.74083 -60
      vertex -6.78008 1.74083 0
    endloop
  endfacet
  facet normal -0.844326 0.535829 0
    outer loop
      vertex -6.13415 3.37228 -60
      vertex -5.66312 4.1145 0
      vertex -5.66312 4.1145 -60
    endloop
  endfacet
  facet normal -0.844326 0.535829 0
    outer loop
      vertex -5.66312 4.1145 0
      vertex -6.13415 3.37228 -60
      vertex -6.13415 3.37228 0
    endloop
  endfacet
  facet normal -0.125337 0.992114 0
    outer loop
      vertex -0.439533 6.98619 -60
      vertex -1.31167 6.87601 0
      vertex -0.439533 6.98619 0
    endloop
  endfacet
  facet normal -0.125337 0.992114 0
    outer loop
      vertex -1.31167 6.87601 0
      vertex -0.439533 6.98619 -60
      vertex -1.31167 6.87601 -60
    endloop
  endfacet
  facet normal -0.587783 0.809018 0
    outer loop
      vertex -3.75079 5.91029 -60
      vertex -4.46197 5.39359 0
      vertex -3.75079 5.91029 0
    endloop
  endfacet
  facet normal -0.587783 0.809018 0
    outer loop
      vertex -4.46197 5.39359 0
      vertex -3.75079 5.91029 -60
      vertex -4.46197 5.39359 -60
    endloop
  endfacet
  facet normal -0.481755 0.876306 0
    outer loop
      vertex -2.98045 6.33379 -60
      vertex -3.75079 5.91029 0
      vertex -2.98045 6.33379 0
    endloop
  endfacet
  facet normal -0.481755 0.876306 0
    outer loop
      vertex -3.75079 5.91029 0
      vertex -2.98045 6.33379 -60
      vertex -3.75079 5.91029 -60
    endloop
  endfacet
  facet normal 0.998027 0.0627939 0
    outer loop
      vertex 7 0 0
      vertex 6.9448 0.877332 -60
      vertex 6.9448 0.877332 0
    endloop
  endfacet
  facet normal 0.998027 0.0627939 0
    outer loop
      vertex 6.9448 0.877332 -60
      vertex 7 0 0
      vertex 7 0 -60
    endloop
  endfacet
  facet normal 0 -1 0
    outer loop
      vertex -0.439533 -6.98619 -60
      vertex 0.439533 -6.98619 0
      vertex -0.439533 -6.98619 0
    endloop
  endfacet
  facet normal 0 -1 -0
    outer loop
      vertex 0.439533 -6.98619 0
      vertex -0.439533 -6.98619 -60
      vertex 0.439533 -6.98619 -60
    endloop
  endfacet
  facet normal -0.951058 -0.309011 0
    outer loop
      vertex -6.50844 -2.57687 -60
      vertex -6.78008 -1.74083 0
      vertex -6.78008 -1.74083 -60
    endloop
  endfacet
  facet normal -0.951058 -0.309011 0
    outer loop
      vertex -6.78008 -1.74083 0
      vertex -6.50844 -2.57687 -60
      vertex -6.50844 -2.57687 0
    endloop
  endfacet
  facet normal -0.844326 -0.535829 0
    outer loop
      vertex -5.66312 -4.1145 -60
      vertex -6.13415 -3.37228 0
      vertex -6.13415 -3.37228 -60
    endloop
  endfacet
  facet normal -0.844326 -0.535829 0
    outer loop
      vertex -6.13415 -3.37228 0
      vertex -5.66312 -4.1145 -60
      vertex -5.66312 -4.1145 0
    endloop
  endfacet
  facet normal 0.125337 -0.992114 0
    outer loop
      vertex 0.439533 -6.98619 -60
      vertex 1.31167 -6.87601 0
      vertex 0.439533 -6.98619 0
    endloop
  endfacet
  facet normal 0.125337 -0.992114 0
    outer loop
      vertex 1.31167 -6.87601 0
      vertex 0.439533 -6.98619 -60
      vertex 1.31167 -6.87601 -60
    endloop
  endfacet
  facet normal 0.904828 0.425778 0
    outer loop
      vertex 6.50844 2.57687 0
      vertex 6.13415 3.37228 -60
      vertex 6.13415 3.37228 0
    endloop
  endfacet
  facet normal 0.904828 0.425778 0
    outer loop
      vertex 6.13415 3.37228 -60
      vertex 6.50844 2.57687 0
      vertex 6.50844 2.57687 -60
    endloop
  endfacet
  facet normal 0.951058 0.309011 0
    outer loop
      vertex 6.78008 1.74083 0
      vertex 6.50844 2.57687 -60
      vertex 6.50844 2.57687 0
    endloop
  endfacet
  facet normal 0.951058 0.309011 0
    outer loop
      vertex 6.50844 2.57687 -60
      vertex 6.78008 1.74083 0
      vertex 6.78008 1.74083 -60
    endloop
  endfacet
  facet normal 0.982287 -0.18738 0
    outer loop
      vertex 6.78008 -1.74083 0
      vertex 6.9448 -0.877332 -60
      vertex 6.9448 -0.877332 0
    endloop
  endfacet
  facet normal 0.982287 -0.18738 0
    outer loop
      vertex 6.9448 -0.877332 -60
      vertex 6.78008 -1.74083 0
      vertex 6.78008 -1.74083 -60
    endloop
  endfacet
  facet normal -0.368131 -0.929774 0
    outer loop
      vertex -2.98045 -6.33379 -60
      vertex -2.16312 -6.6574 0
      vertex -2.98045 -6.33379 0
    endloop
  endfacet
  facet normal -0.368131 -0.929774 -0
    outer loop
      vertex -2.16312 -6.6574 0
      vertex -2.98045 -6.33379 -60
      vertex -2.16312 -6.6574 -60
    endloop
  endfacet
  facet normal -0.248684 -0.968585 0
    outer loop
      vertex -2.16312 -6.6574 -60
      vertex -1.31167 -6.87601 0
      vertex -2.16312 -6.6574 0
    endloop
  endfacet
  facet normal -0.248684 -0.968585 -0
    outer loop
      vertex -1.31167 -6.87601 0
      vertex -2.16312 -6.6574 -60
      vertex -1.31167 -6.87601 -60
    endloop
  endfacet
  facet normal -0.998027 -0.0627939 0
    outer loop
      vertex -6.9448 -0.877332 -60
      vertex -7 0 0
      vertex -7 0 -60
    endloop
  endfacet
  facet normal -0.998027 -0.0627939 0
    outer loop
      vertex -7 0 0
      vertex -6.9448 -0.877332 -60
      vertex -6.9448 -0.877332 0
    endloop
  endfacet
  facet normal -0.770511 -0.637427 0
    outer loop
      vertex -5.10278 -4.79183 -60
      vertex -5.66312 -4.1145 0
      vertex -5.66312 -4.1145 -60
    endloop
  endfacet
  facet normal -0.770511 -0.637427 0
    outer loop
      vertex -5.66312 -4.1145 0
      vertex -5.10278 -4.79183 -60
      vertex -5.10278 -4.79183 0
    endloop
  endfacet
  facet normal 0.368131 -0.929774 0
    outer loop
      vertex 2.16312 -6.6574 -60
      vertex 2.98045 -6.33379 0
      vertex 2.16312 -6.6574 0
    endloop
  endfacet
  facet normal 0.368131 -0.929774 0
    outer loop
      vertex 2.98045 -6.33379 0
      vertex 2.16312 -6.6574 -60
      vertex 2.98045 -6.33379 -60
    endloop
  endfacet
  facet normal 0.248684 -0.968585 0
    outer loop
      vertex 1.31167 -6.87601 -60
      vertex 2.16312 -6.6574 0
      vertex 1.31167 -6.87601 0
    endloop
  endfacet
  facet normal 0.248684 -0.968585 0
    outer loop
      vertex 2.16312 -6.6574 0
      vertex 1.31167 -6.87601 -60
      vertex 2.16312 -6.6574 -60
    endloop
  endfacet
  facet normal 0.684547 -0.728969 0
    outer loop
      vertex 4.46197 -5.39359 -60
      vertex 5.10278 -4.79183 0
      vertex 4.46197 -5.39359 0
    endloop
  endfacet
  facet normal 0.684547 -0.728969 0
    outer loop
      vertex 5.10278 -4.79183 0
      vertex 4.46197 -5.39359 -60
      vertex 5.10278 -4.79183 -60
    endloop
  endfacet
  facet normal 0.951058 -0.309011 0
    outer loop
      vertex 6.50844 -2.57687 0
      vertex 6.78008 -1.74083 -60
      vertex 6.78008 -1.74083 0
    endloop
  endfacet
  facet normal 0.951058 -0.309011 0
    outer loop
      vertex 6.78008 -1.74083 -60
      vertex 6.50844 -2.57687 0
      vertex 6.50844 -2.57687 -60
    endloop
  endfacet
  facet normal 0.844326 -0.535829 0
    outer loop
      vertex 5.66312 -4.1145 0
      vertex 6.13415 -3.37228 -60
      vertex 6.13415 -3.37228 0
    endloop
  endfacet
  facet normal 0.844326 -0.535829 0
    outer loop
      vertex 6.13415 -3.37228 -60
      vertex 5.66312 -4.1145 0
      vertex 5.66312 -4.1145 -60
    endloop
  endfacet
  facet normal 0.770511 -0.637427 0
    outer loop
      vertex 5.10278 -4.79183 0
      vertex 5.66312 -4.1145 -60
      vertex 5.66312 -4.1145 0
    endloop
  endfacet
  facet normal 0.770511 -0.637427 0
    outer loop
      vertex 5.66312 -4.1145 -60
      vertex 5.10278 -4.79183 0
      vertex 5.10278 -4.79183 -60
    endloop
  endfacet
  facet normal -0.125337 -0.992114 0
    outer loop
      vertex -1.31167 -6.87601 -60
      vertex -0.439533 -6.98619 0
      vertex -1.31167 -6.87601 0
    endloop
  endfacet
  facet normal -0.125337 -0.992114 -0
    outer loop
      vertex -0.439533 -6.98619 0
      vertex -1.31167 -6.87601 -60
      vertex -0.439533 -6.98619 -60
    endloop
  endfacet
  facet normal -0.481755 -0.876306 0
    outer loop
      vertex -3.75079 -5.91029 -60
      vertex -2.98045 -6.33379 0
      vertex -3.75079 -5.91029 0
    endloop
  endfacet
  facet normal -0.481755 -0.876306 -0
    outer loop
      vertex -2.98045 -6.33379 0
      vertex -3.75079 -5.91029 -60
      vertex -2.98045 -6.33379 -60
    endloop
  endfacet
  facet normal -0.982287 -0.18738 0
    outer loop
      vertex -6.78008 -1.74083 -60
      vertex -6.9448 -0.877332 0
      vertex -6.9448 -0.877332 -60
    endloop
  endfacet
  facet normal -0.982287 -0.18738 0
    outer loop
      vertex -6.9448 -0.877332 0
      vertex -6.78008 -1.74083 -60
      vertex -6.78008 -1.74083 0
    endloop
  endfacet
  facet normal 0.587783 -0.809018 0
    outer loop
      vertex 3.75079 -5.91029 -60
      vertex 4.46197 -5.39359 0
      vertex 3.75079 -5.91029 0
    endloop
  endfacet
  facet normal 0.587783 -0.809018 0
    outer loop
      vertex 4.46197 -5.39359 0
      vertex 3.75079 -5.91029 -60
      vertex 4.46197 -5.39359 -60
    endloop
  endfacet
  facet normal -0.587783 -0.809018 0
    outer loop
      vertex -4.46197 -5.39359 -60
      vertex -3.75079 -5.91029 0
      vertex -4.46197 -5.39359 0
    endloop
  endfacet
  facet normal -0.587783 -0.809018 -0
    outer loop
      vertex -3.75079 -5.91029 0
      vertex -4.46197 -5.39359 -60
      vertex -3.75079 -5.91029 -60
    endloop
  endfacet
endsolid OpenSCAD_Model
