solid OpenSCAD_Model
  facet normal 0.998026 0.0628038 0
    outer loop
      vertex 23 0 0
      vertex 22.8186 2.88266 -4
      vertex 22.8186 2.88266 0
    endloop
  endfacet
  facet normal 0.998026 0.0628038 0
    outer loop
      vertex 22.8186 2.88266 -4
      vertex 23 0 0
      vertex 23 0 -4
    endloop
  endfacet
  facet normal -0.998026 0.0628038 0
    outer loop
      vertex -23 0 -4
      vertex -22.8186 2.88266 0
      vertex -22.8186 2.88266 -4
    endloop
  endfacet
  facet normal -0.998026 0.0628038 0
    outer loop
      vertex -22.8186 2.88266 0
      vertex -23 0 -4
      vertex -23 0 0
    endloop
  endfacet
  facet normal 0 1 -0
    outer loop
      vertex 1.44418 22.9546 -4
      vertex -1.44418 22.9546 0
      vertex 1.44418 22.9546 0
    endloop
  endfacet
  facet normal 0 1 0
    outer loop
      vertex -1.44418 22.9546 0
      vertex 1.44418 22.9546 -4
      vertex -1.44418 22.9546 -4
    endloop
  endfacet
  facet normal 0 -1 0
    outer loop
      vertex -1.44418 -22.9546 -4
      vertex 1.44418 -22.9546 0
      vertex -1.44418 -22.9546 0
    endloop
  endfacet
  facet normal 0 -1 -0
    outer loop
      vertex 1.44418 -22.9546 0
      vertex -1.44418 -22.9546 -4
      vertex 1.44418 -22.9546 -4
    endloop
  endfacet
  facet normal 0.684548 0.728968 -0
    outer loop
      vertex 16.7663 15.7446 -4
      vertex 14.6608 17.7218 0
      vertex 16.7663 15.7446 0
    endloop
  endfacet
  facet normal 0.684548 0.728968 0
    outer loop
      vertex 14.6608 17.7218 0
      vertex 16.7663 15.7446 -4
      vertex 14.6608 17.7218 -4
    endloop
  endfacet
  facet normal -0.684548 0.728968 0
    outer loop
      vertex -14.6608 17.7218 -4
      vertex -16.7663 15.7446 0
      vertex -14.6608 17.7218 0
    endloop
  endfacet
  facet normal -0.684548 0.728968 0
    outer loop
      vertex -16.7663 15.7446 0
      vertex -14.6608 17.7218 -4
      vertex -16.7663 15.7446 -4
    endloop
  endfacet
  facet normal -0.368132 0.929774 0
    outer loop
      vertex -7.10739 21.8743 -4
      vertex -9.79292 20.811 0
      vertex -7.10739 21.8743 0
    endloop
  endfacet
  facet normal -0.368132 0.929774 0
    outer loop
      vertex -9.79292 20.811 0
      vertex -7.10739 21.8743 -4
      vertex -9.79292 20.811 -4
    endloop
  endfacet
  facet normal 0.904826 -0.425782 0
    outer loop
      vertex 20.1551 -11.0803 0
      vertex 21.3849 -8.46686 -4
      vertex 21.3849 -8.46686 0
    endloop
  endfacet
  facet normal 0.904826 -0.425782 0
    outer loop
      vertex 21.3849 -8.46686 -4
      vertex 20.1551 -11.0803 0
      vertex 20.1551 -11.0803 -4
    endloop
  endfacet
  facet normal 0.904826 0.425782 0
    outer loop
      vertex 21.3849 8.46686 0
      vertex 20.1551 11.0803 -4
      vertex 20.1551 11.0803 0
    endloop
  endfacet
  facet normal 0.904826 0.425782 0
    outer loop
      vertex 20.1551 11.0803 -4
      vertex 21.3849 8.46686 0
      vertex 21.3849 8.46686 -4
    endloop
  endfacet
  facet normal 0.368132 0.929774 -0
    outer loop
      vertex 9.79292 20.811 -4
      vertex 7.10739 21.8743 0
      vertex 9.79292 20.811 0
    endloop
  endfacet
  facet normal 0.368132 0.929774 0
    outer loop
      vertex 7.10739 21.8743 0
      vertex 9.79292 20.811 -4
      vertex 7.10739 21.8743 -4
    endloop
  endfacet
  facet normal 0.248688 0.968584 -0
    outer loop
      vertex 7.10739 21.8743 -4
      vertex 4.30977 22.5926 0
      vertex 7.10739 21.8743 0
    endloop
  endfacet
  facet normal 0.248688 0.968584 0
    outer loop
      vertex 4.30977 22.5926 0
      vertex 7.10739 21.8743 -4
      vertex 4.30977 22.5926 -4
    endloop
  endfacet
  facet normal 0.481761 0.876303 -0
    outer loop
      vertex 12.324 19.4195 -4
      vertex 9.79292 20.811 0
      vertex 12.324 19.4195 0
    endloop
  endfacet
  facet normal 0.481761 0.876303 0
    outer loop
      vertex 9.79292 20.811 0
      vertex 12.324 19.4195 -4
      vertex 9.79292 20.811 -4
    endloop
  endfacet
  facet normal -0.904826 0.425782 0
    outer loop
      vertex -21.3849 8.46686 -4
      vertex -20.1551 11.0803 0
      vertex -20.1551 11.0803 -4
    endloop
  endfacet
  facet normal -0.904826 0.425782 0
    outer loop
      vertex -20.1551 11.0803 0
      vertex -21.3849 8.46686 -4
      vertex -21.3849 8.46686 0
    endloop
  endfacet
  facet normal -0.770512 0.637425 0
    outer loop
      vertex -18.6074 13.5191 -4
      vertex -16.7663 15.7446 0
      vertex -16.7663 15.7446 -4
    endloop
  endfacet
  facet normal -0.770512 0.637425 0
    outer loop
      vertex -16.7663 15.7446 0
      vertex -18.6074 13.5191 -4
      vertex -18.6074 13.5191 0
    endloop
  endfacet
  facet normal -0.951062 0.309001 0
    outer loop
      vertex -22.2774 5.71987 -4
      vertex -21.3849 8.46686 0
      vertex -21.3849 8.46686 -4
    endloop
  endfacet
  facet normal -0.951062 0.309001 0
    outer loop
      vertex -21.3849 8.46686 0
      vertex -22.2774 5.71987 -4
      vertex -22.2774 5.71987 0
    endloop
  endfacet
  facet normal -0.12533 0.992115 0
    outer loop
      vertex -1.44418 22.9546 -4
      vertex -4.30977 22.5926 0
      vertex -1.44418 22.9546 0
    endloop
  endfacet
  facet normal -0.12533 0.992115 0
    outer loop
      vertex -4.30977 22.5926 0
      vertex -1.44418 22.9546 -4
      vertex -4.30977 22.5926 -4
    endloop
  endfacet
  facet normal 0.982289 -0.187372 0
    outer loop
      vertex 22.2774 -5.71987 0
      vertex 22.8186 -2.88266 -4
      vertex 22.8186 -2.88266 0
    endloop
  endfacet
  facet normal 0.982289 -0.187372 0
    outer loop
      vertex 22.8186 -2.88266 -4
      vertex 22.2774 -5.71987 0
      vertex 22.2774 -5.71987 -4
    endloop
  endfacet
  facet normal 0.12533 -0.992115 0
    outer loop
      vertex 1.44418 -22.9546 -4
      vertex 4.30977 -22.5926 0
      vertex 1.44418 -22.9546 0
    endloop
  endfacet
  facet normal 0.12533 -0.992115 0
    outer loop
      vertex 4.30977 -22.5926 0
      vertex 1.44418 -22.9546 -4
      vertex 4.30977 -22.5926 -4
    endloop
  endfacet
  facet normal 0.951062 0.309001 0
    outer loop
      vertex 22.2774 5.71987 0
      vertex 21.3849 8.46686 -4
      vertex 21.3849 8.46686 0
    endloop
  endfacet
  facet normal 0.951062 0.309001 0
    outer loop
      vertex 21.3849 8.46686 -4
      vertex 22.2774 5.71987 0
      vertex 22.2774 5.71987 -4
    endloop
  endfacet
  facet normal 0.982289 0.187372 0
    outer loop
      vertex 22.8186 2.88266 0
      vertex 22.2774 5.71987 -4
      vertex 22.2774 5.71987 0
    endloop
  endfacet
  facet normal 0.982289 0.187372 0
    outer loop
      vertex 22.2774 5.71987 -4
      vertex 22.8186 2.88266 0
      vertex 22.8186 2.88266 -4
    endloop
  endfacet
  facet normal 0.770512 0.637425 0
    outer loop
      vertex 18.6074 13.5191 0
      vertex 16.7663 15.7446 -4
      vertex 16.7663 15.7446 0
    endloop
  endfacet
  facet normal 0.770512 0.637425 0
    outer loop
      vertex 16.7663 15.7446 -4
      vertex 18.6074 13.5191 0
      vertex 18.6074 13.5191 -4
    endloop
  endfacet
  facet normal 0.844329 0.535824 0
    outer loop
      vertex 20.1551 11.0803 0
      vertex 18.6074 13.5191 -4
      vertex 18.6074 13.5191 0
    endloop
  endfacet
  facet normal 0.844329 0.535824 0
    outer loop
      vertex 18.6074 13.5191 -4
      vertex 20.1551 11.0803 0
      vertex 20.1551 11.0803 -4
    endloop
  endfacet
  facet normal 0.12533 0.992115 -0
    outer loop
      vertex 4.30977 22.5926 -4
      vertex 1.44418 22.9546 0
      vertex 4.30977 22.5926 0
    endloop
  endfacet
  facet normal 0.12533 0.992115 0
    outer loop
      vertex 1.44418 22.9546 0
      vertex 4.30977 22.5926 -4
      vertex 1.44418 22.9546 -4
    endloop
  endfacet
  facet normal 0.587766 0.809031 -0
    outer loop
      vertex 14.6608 17.7218 -4
      vertex 12.324 19.4195 0
      vertex 14.6608 17.7218 0
    endloop
  endfacet
  facet normal 0.587766 0.809031 0
    outer loop
      vertex 12.324 19.4195 0
      vertex 14.6608 17.7218 -4
      vertex 12.324 19.4195 -4
    endloop
  endfacet
  facet normal -0.844329 0.535824 0
    outer loop
      vertex -20.1551 11.0803 -4
      vertex -18.6074 13.5191 0
      vertex -18.6074 13.5191 -4
    endloop
  endfacet
  facet normal -0.844329 0.535824 0
    outer loop
      vertex -18.6074 13.5191 0
      vertex -20.1551 11.0803 -4
      vertex -20.1551 11.0803 0
    endloop
  endfacet
  facet normal -0.982289 0.187372 0
    outer loop
      vertex -22.8186 2.88266 -4
      vertex -22.2774 5.71987 0
      vertex -22.2774 5.71987 -4
    endloop
  endfacet
  facet normal -0.982289 0.187372 0
    outer loop
      vertex -22.2774 5.71987 0
      vertex -22.8186 2.88266 -4
      vertex -22.8186 2.88266 0
    endloop
  endfacet
  facet normal 0 0 1
    outer loop
      vertex 17.1 0 0
      vertex 23 0 0
      vertex 22.8186 2.88266 0
    endloop
  endfacet
  facet normal 0 0 1
    outer loop
      vertex 16.9652 2.1432 0
      vertex 22.8186 2.88266 0
      vertex 22.2774 5.71987 0
    endloop
  endfacet
  facet normal 0 0 1
    outer loop
      vertex 23 0 0
      vertex 17.1 0 0
      vertex 22.8186 -2.88266 0
    endloop
  endfacet
  facet normal 0 0 1
    outer loop
      vertex 16.5628 4.2526 0
      vertex 22.2774 5.71987 0
      vertex 21.3849 8.46686 0
    endloop
  endfacet
  facet normal -0 0 1
    outer loop
      vertex 16.9652 -2.1432 0
      vertex 22.8186 -2.88266 0
      vertex 17.1 0 0
    endloop
  endfacet
  facet normal 0 0 1
    outer loop
      vertex 15.8992 6.29493 0
      vertex 21.3849 8.46686 0
      vertex 20.1551 11.0803 0
    endloop
  endfacet
  facet normal 0 0 1
    outer loop
      vertex 22.8186 -2.88266 0
      vertex 16.9652 -2.1432 0
      vertex 22.2774 -5.71987 0
    endloop
  endfacet
  facet normal 0 0 1
    outer loop
      vertex 14.9848 8.23799 0
      vertex 20.1551 11.0803 0
      vertex 18.6074 13.5191 0
    endloop
  endfacet
  facet normal -0 0 1
    outer loop
      vertex 16.5628 -4.2526 0
      vertex 22.2774 -5.71987 0
      vertex 16.9652 -2.1432 0
    endloop
  endfacet
  facet normal 0 0 1
    outer loop
      vertex 22.2774 -5.71987 0
      vertex 16.5628 -4.2526 0
      vertex 21.3849 -8.46686 0
    endloop
  endfacet
  facet normal 0 0 1
    outer loop
      vertex 22.8186 2.88266 0
      vertex 16.9652 2.1432 0
      vertex 17.1 0 0
    endloop
  endfacet
  facet normal 0 0 1
    outer loop
      vertex 13.8342 10.0511 0
      vertex 18.6074 13.5191 0
      vertex 16.7663 15.7446 0
    endloop
  endfacet
  facet normal 0 0 1
    outer loop
      vertex 22.2774 5.71987 0
      vertex 16.5628 4.2526 0
      vertex 16.9652 2.1432 0
    endloop
  endfacet
  facet normal 0 0 1
    outer loop
      vertex 21.3849 8.46686 0
      vertex 15.8992 6.29493 0
      vertex 16.5628 4.2526 0
    endloop
  endfacet
  facet normal 0 0 1
    outer loop
      vertex 20.1551 11.0803 0
      vertex 14.9848 8.23799 0
      vertex 15.8992 6.29493 0
    endloop
  endfacet
  facet normal 0 0 1
    outer loop
      vertex 12.4654 11.7058 0
      vertex 16.7663 15.7446 0
      vertex 14.6608 17.7218 0
    endloop
  endfacet
  facet normal 0 0 1
    outer loop
      vertex 18.6074 13.5191 0
      vertex 13.8342 10.0511 0
      vertex 14.9848 8.23799 0
    endloop
  endfacet
  facet normal 0 0 1
    outer loop
      vertex 16.7663 15.7446 0
      vertex 12.4654 11.7058 0
      vertex 13.8342 10.0511 0
    endloop
  endfacet
  facet normal 0 0 1
    outer loop
      vertex 10.9 13.1758 0
      vertex 14.6608 17.7218 0
      vertex 12.324 19.4195 0
    endloop
  endfacet
  facet normal 0 0 1
    outer loop
      vertex 14.6608 17.7218 0
      vertex 10.9 13.1758 0
      vertex 12.4654 11.7058 0
    endloop
  endfacet
  facet normal 0 0 1
    outer loop
      vertex 9.16264 14.438 0
      vertex 12.324 19.4195 0
      vertex 9.79292 20.811 0
    endloop
  endfacet
  facet normal 0 0 1
    outer loop
      vertex 12.324 19.4195 0
      vertex 9.16264 14.438 0
      vertex 10.9 13.1758 0
    endloop
  endfacet
  facet normal 0 0 1
    outer loop
      vertex 9.79292 20.811 0
      vertex 7.28083 15.4725 0
      vertex 9.16264 14.438 0
    endloop
  endfacet
  facet normal 0 0 1
    outer loop
      vertex 7.10739 21.8743 0
      vertex 7.28083 15.4725 0
      vertex 9.79292 20.811 0
    endloop
  endfacet
  facet normal 0 0 1
    outer loop
      vertex 7.10739 21.8743 0
      vertex 5.28419 16.2631 0
      vertex 7.28083 15.4725 0
    endloop
  endfacet
  facet normal 0 0 1
    outer loop
      vertex 4.30977 22.5926 0
      vertex 5.28419 16.2631 0
      vertex 7.10739 21.8743 0
    endloop
  endfacet
  facet normal 0 0 1
    outer loop
      vertex 4.30977 22.5926 0
      vertex 3.20422 16.7971 0
      vertex 5.28419 16.2631 0
    endloop
  endfacet
  facet normal 0 0 1
    outer loop
      vertex 1.44418 22.9546 0
      vertex 3.20422 16.7971 0
      vertex 4.30977 22.5926 0
    endloop
  endfacet
  facet normal 0 0 1
    outer loop
      vertex 1.44418 22.9546 0
      vertex 1.07372 17.0663 0
      vertex 3.20422 16.7971 0
    endloop
  endfacet
  facet normal 0 0 1
    outer loop
      vertex 1.44418 22.9546 0
      vertex -1.07372 17.0663 0
      vertex 1.07372 17.0663 0
    endloop
  endfacet
  facet normal -0 0 1
    outer loop
      vertex -1.44418 22.9546 0
      vertex -1.07372 17.0663 0
      vertex 1.44418 22.9546 0
    endloop
  endfacet
  facet normal 0 0 1
    outer loop
      vertex -1.44418 22.9546 0
      vertex -3.20422 16.7971 0
      vertex -1.07372 17.0663 0
    endloop
  endfacet
  facet normal -0 0 1
    outer loop
      vertex -4.30977 22.5926 0
      vertex -3.20422 16.7971 0
      vertex -1.44418 22.9546 0
    endloop
  endfacet
  facet normal 0 0 1
    outer loop
      vertex -4.30977 22.5926 0
      vertex -5.28419 16.2631 0
      vertex -3.20422 16.7971 0
    endloop
  endfacet
  facet normal -0 0 1
    outer loop
      vertex -7.10739 21.8743 0
      vertex -5.28419 16.2631 0
      vertex -4.30977 22.5926 0
    endloop
  endfacet
  facet normal 0 0 1
    outer loop
      vertex -7.10739 21.8743 0
      vertex -7.28083 15.4725 0
      vertex -5.28419 16.2631 0
    endloop
  endfacet
  facet normal -0 0 1
    outer loop
      vertex -9.79292 20.811 0
      vertex -7.28083 15.4725 0
      vertex -7.10739 21.8743 0
    endloop
  endfacet
  facet normal 0 0 1
    outer loop
      vertex -7.28083 15.4725 0
      vertex -9.79292 20.811 0
      vertex -9.16264 14.438 0
    endloop
  endfacet
  facet normal -0 0 1
    outer loop
      vertex -12.324 19.4195 0
      vertex -9.16264 14.438 0
      vertex -9.79292 20.811 0
    endloop
  endfacet
  facet normal 0 0 1
    outer loop
      vertex -9.16264 14.438 0
      vertex -12.324 19.4195 0
      vertex -10.9 13.1758 0
    endloop
  endfacet
  facet normal -0 0 1
    outer loop
      vertex -14.6608 17.7218 0
      vertex -10.9 13.1758 0
      vertex -12.324 19.4195 0
    endloop
  endfacet
  facet normal 0 0 1
    outer loop
      vertex -10.9 13.1758 0
      vertex -14.6608 17.7218 0
      vertex -12.4654 11.7058 0
    endloop
  endfacet
  facet normal -0 0 1
    outer loop
      vertex -16.7663 15.7446 0
      vertex -12.4654 11.7058 0
      vertex -14.6608 17.7218 0
    endloop
  endfacet
  facet normal 0 0 1
    outer loop
      vertex -12.4654 11.7058 0
      vertex -16.7663 15.7446 0
      vertex -13.8342 10.0511 0
    endloop
  endfacet
  facet normal -0 0 1
    outer loop
      vertex -18.6074 13.5191 0
      vertex -13.8342 10.0511 0
      vertex -16.7663 15.7446 0
    endloop
  endfacet
  facet normal 0 0 1
    outer loop
      vertex -13.8342 10.0511 0
      vertex -18.6074 13.5191 0
      vertex -14.9848 8.23799 0
    endloop
  endfacet
  facet normal -0 0 1
    outer loop
      vertex -20.1551 11.0803 0
      vertex -14.9848 8.23799 0
      vertex -18.6074 13.5191 0
    endloop
  endfacet
  facet normal 0 0 1
    outer loop
      vertex -14.9848 8.23799 0
      vertex -20.1551 11.0803 0
      vertex -15.8992 6.29493 0
    endloop
  endfacet
  facet normal -0 0 1
    outer loop
      vertex -21.3849 8.46686 0
      vertex -15.8992 6.29493 0
      vertex -20.1551 11.0803 0
    endloop
  endfacet
  facet normal 0 0 1
    outer loop
      vertex -15.8992 6.29493 0
      vertex -21.3849 8.46686 0
      vertex -16.5628 4.2526 0
    endloop
  endfacet
  facet normal -0 0 1
    outer loop
      vertex 15.8992 -6.29493 0
      vertex 21.3849 -8.46686 0
      vertex 16.5628 -4.2526 0
    endloop
  endfacet
  facet normal 0 0 1
    outer loop
      vertex 21.3849 -8.46686 0
      vertex 15.8992 -6.29493 0
      vertex 20.1551 -11.0803 0
    endloop
  endfacet
  facet normal -0 0 1
    outer loop
      vertex 14.9848 -8.23799 0
      vertex 20.1551 -11.0803 0
      vertex 15.8992 -6.29493 0
    endloop
  endfacet
  facet normal 0 0 1
    outer loop
      vertex 20.1551 -11.0803 0
      vertex 14.9848 -8.23799 0
      vertex 18.6074 -13.5191 0
    endloop
  endfacet
  facet normal -0 0 1
    outer loop
      vertex 13.8342 -10.0511 0
      vertex 18.6074 -13.5191 0
      vertex 14.9848 -8.23799 0
    endloop
  endfacet
  facet normal 0 0 1
    outer loop
      vertex 18.6074 -13.5191 0
      vertex 13.8342 -10.0511 0
      vertex 16.7663 -15.7446 0
    endloop
  endfacet
  facet normal -0 0 1
    outer loop
      vertex 12.4654 -11.7058 0
      vertex 16.7663 -15.7446 0
      vertex 13.8342 -10.0511 0
    endloop
  endfacet
  facet normal 0 0 1
    outer loop
      vertex 16.7663 -15.7446 0
      vertex 12.4654 -11.7058 0
      vertex 14.6608 -17.7218 0
    endloop
  endfacet
  facet normal -0 0 1
    outer loop
      vertex 10.9 -13.1758 0
      vertex 14.6608 -17.7218 0
      vertex 12.4654 -11.7058 0
    endloop
  endfacet
  facet normal 0 0 1
    outer loop
      vertex 14.6608 -17.7218 0
      vertex 10.9 -13.1758 0
      vertex 12.324 -19.4195 0
    endloop
  endfacet
  facet normal -0 0 1
    outer loop
      vertex 9.16264 -14.438 0
      vertex 12.324 -19.4195 0
      vertex 10.9 -13.1758 0
    endloop
  endfacet
  facet normal 0 0 1
    outer loop
      vertex 12.324 -19.4195 0
      vertex 9.16264 -14.438 0
      vertex 9.79292 -20.811 0
    endloop
  endfacet
  facet normal -0 0 1
    outer loop
      vertex 7.28083 -15.4725 0
      vertex 9.79292 -20.811 0
      vertex 9.16264 -14.438 0
    endloop
  endfacet
  facet normal 0 0 1
    outer loop
      vertex 7.28083 -15.4725 0
      vertex 7.10739 -21.8743 0
      vertex 9.79292 -20.811 0
    endloop
  endfacet
  facet normal -0 0 1
    outer loop
      vertex 5.28419 -16.2631 0
      vertex 7.10739 -21.8743 0
      vertex 7.28083 -15.4725 0
    endloop
  endfacet
  facet normal 0 0 1
    outer loop
      vertex 5.28419 -16.2631 0
      vertex 4.30977 -22.5926 0
      vertex 7.10739 -21.8743 0
    endloop
  endfacet
  facet normal -0 0 1
    outer loop
      vertex 3.20422 -16.7971 0
      vertex 4.30977 -22.5926 0
      vertex 5.28419 -16.2631 0
    endloop
  endfacet
  facet normal 0 0 1
    outer loop
      vertex 3.20422 -16.7971 0
      vertex 1.44418 -22.9546 0
      vertex 4.30977 -22.5926 0
    endloop
  endfacet
  facet normal -0 0 1
    outer loop
      vertex 1.07372 -17.0663 0
      vertex 1.44418 -22.9546 0
      vertex 3.20422 -16.7971 0
    endloop
  endfacet
  facet normal -0 0 1
    outer loop
      vertex -1.07372 -17.0663 0
      vertex 1.44418 -22.9546 0
      vertex 1.07372 -17.0663 0
    endloop
  endfacet
  facet normal 0 0 1
    outer loop
      vertex -1.07372 -17.0663 0
      vertex -1.44418 -22.9546 0
      vertex 1.44418 -22.9546 0
    endloop
  endfacet
  facet normal 0 0 1
    outer loop
      vertex -3.20422 -16.7971 0
      vertex -1.44418 -22.9546 0
      vertex -1.07372 -17.0663 0
    endloop
  endfacet
  facet normal 0 0 1
    outer loop
      vertex -3.20422 -16.7971 0
      vertex -4.30977 -22.5926 0
      vertex -1.44418 -22.9546 0
    endloop
  endfacet
  facet normal 0 0 1
    outer loop
      vertex -5.28419 -16.2631 0
      vertex -4.30977 -22.5926 0
      vertex -3.20422 -16.7971 0
    endloop
  endfacet
  facet normal 0 0 1
    outer loop
      vertex -5.28419 -16.2631 0
      vertex -7.10739 -21.8743 0
      vertex -4.30977 -22.5926 0
    endloop
  endfacet
  facet normal 0 0 1
    outer loop
      vertex -7.28083 -15.4725 0
      vertex -7.10739 -21.8743 0
      vertex -5.28419 -16.2631 0
    endloop
  endfacet
  facet normal 0 0 1
    outer loop
      vertex -9.79292 -20.811 0
      vertex -7.28083 -15.4725 0
      vertex -9.16264 -14.438 0
    endloop
  endfacet
  facet normal 0 0 1
    outer loop
      vertex -7.28083 -15.4725 0
      vertex -9.79292 -20.811 0
      vertex -7.10739 -21.8743 0
    endloop
  endfacet
  facet normal 0 0 1
    outer loop
      vertex -12.324 -19.4195 0
      vertex -9.16264 -14.438 0
      vertex -10.9 -13.1758 0
    endloop
  endfacet
  facet normal 0 0 1
    outer loop
      vertex -9.16264 -14.438 0
      vertex -12.324 -19.4195 0
      vertex -9.79292 -20.811 0
    endloop
  endfacet
  facet normal 0 0 1
    outer loop
      vertex -14.6608 -17.7218 0
      vertex -10.9 -13.1758 0
      vertex -12.4654 -11.7058 0
    endloop
  endfacet
  facet normal 0 0 1
    outer loop
      vertex -16.7663 -15.7446 0
      vertex -12.4654 -11.7058 0
      vertex -13.8342 -10.0511 0
    endloop
  endfacet
  facet normal 0 0 1
    outer loop
      vertex -10.9 -13.1758 0
      vertex -14.6608 -17.7218 0
      vertex -12.324 -19.4195 0
    endloop
  endfacet
  facet normal 0 0 1
    outer loop
      vertex -18.6074 -13.5191 0
      vertex -13.8342 -10.0511 0
      vertex -14.9848 -8.23799 0
    endloop
  endfacet
  facet normal 0 0 1
    outer loop
      vertex -20.1551 -11.0803 0
      vertex -14.9848 -8.23799 0
      vertex -15.8992 -6.29493 0
    endloop
  endfacet
  facet normal 0 0 1
    outer loop
      vertex -21.3849 -8.46686 0
      vertex -15.8992 -6.29493 0
      vertex -16.5628 -4.2526 0
    endloop
  endfacet
  facet normal 0 0 1
    outer loop
      vertex -12.4654 -11.7058 0
      vertex -16.7663 -15.7446 0
      vertex -14.6608 -17.7218 0
    endloop
  endfacet
  facet normal 0 0 1
    outer loop
      vertex -22.2774 -5.71987 0
      vertex -16.5628 -4.2526 0
      vertex -16.9652 -2.1432 0
    endloop
  endfacet
  facet normal 0 0 1
    outer loop
      vertex -22.8186 -2.88266 0
      vertex -16.9652 -2.1432 0
      vertex -17.1 0 0
    endloop
  endfacet
  facet normal -0 0 1
    outer loop
      vertex -22.2774 5.71987 0
      vertex -16.5628 4.2526 0
      vertex -21.3849 8.46686 0
    endloop
  endfacet
  facet normal 0 0 1
    outer loop
      vertex -13.8342 -10.0511 0
      vertex -18.6074 -13.5191 0
      vertex -16.7663 -15.7446 0
    endloop
  endfacet
  facet normal 0 0 1
    outer loop
      vertex -16.5628 4.2526 0
      vertex -22.2774 5.71987 0
      vertex -16.9652 2.1432 0
    endloop
  endfacet
  facet normal 0 0 1
    outer loop
      vertex -14.9848 -8.23799 0
      vertex -20.1551 -11.0803 0
      vertex -18.6074 -13.5191 0
    endloop
  endfacet
  facet normal -0 0 1
    outer loop
      vertex -22.8186 2.88266 0
      vertex -16.9652 2.1432 0
      vertex -22.2774 5.71987 0
    endloop
  endfacet
  facet normal 0 0 1
    outer loop
      vertex -15.8992 -6.29493 0
      vertex -21.3849 -8.46686 0
      vertex -20.1551 -11.0803 0
    endloop
  endfacet
  facet normal 0 0 1
    outer loop
      vertex -16.9652 2.1432 0
      vertex -22.8186 2.88266 0
      vertex -17.1 0 0
    endloop
  endfacet
  facet normal 0 0 1
    outer loop
      vertex -16.5628 -4.2526 0
      vertex -22.2774 -5.71987 0
      vertex -21.3849 -8.46686 0
    endloop
  endfacet
  facet normal 0 0 1
    outer loop
      vertex -23 0 0
      vertex -17.1 0 0
      vertex -22.8186 2.88266 0
    endloop
  endfacet
  facet normal 0 0 1
    outer loop
      vertex -16.9652 -2.1432 0
      vertex -22.8186 -2.88266 0
      vertex -22.2774 -5.71987 0
    endloop
  endfacet
  facet normal 0 0 1
    outer loop
      vertex -17.1 0 0
      vertex -23 0 0
      vertex -22.8186 -2.88266 0
    endloop
  endfacet
  facet normal -0.481761 0.876303 0
    outer loop
      vertex -9.79292 20.811 -4
      vertex -12.324 19.4195 0
      vertex -9.79292 20.811 0
    endloop
  endfacet
  facet normal -0.481761 0.876303 0
    outer loop
      vertex -12.324 19.4195 0
      vertex -9.79292 20.811 -4
      vertex -12.324 19.4195 -4
    endloop
  endfacet
  facet normal -0.587766 0.809031 0
    outer loop
      vertex -12.324 19.4195 -4
      vertex -14.6608 17.7218 0
      vertex -12.324 19.4195 0
    endloop
  endfacet
  facet normal -0.587766 0.809031 0
    outer loop
      vertex -14.6608 17.7218 0
      vertex -12.324 19.4195 -4
      vertex -14.6608 17.7218 -4
    endloop
  endfacet
  facet normal -0.248688 0.968584 0
    outer loop
      vertex -4.30977 22.5926 -4
      vertex -7.10739 21.8743 0
      vertex -4.30977 22.5926 0
    endloop
  endfacet
  facet normal -0.248688 0.968584 0
    outer loop
      vertex -7.10739 21.8743 0
      vertex -4.30977 22.5926 -4
      vertex -7.10739 21.8743 -4
    endloop
  endfacet
  facet normal 0.998026 -0.0628038 0
    outer loop
      vertex 22.8186 -2.88266 0
      vertex 23 0 -4
      vertex 23 0 0
    endloop
  endfacet
  facet normal 0.998026 -0.0628038 0
    outer loop
      vertex 23 0 -4
      vertex 22.8186 -2.88266 0
      vertex 22.8186 -2.88266 -4
    endloop
  endfacet
  facet normal 0.770512 -0.637425 0
    outer loop
      vertex 16.7663 -15.7446 0
      vertex 18.6074 -13.5191 -4
      vertex 18.6074 -13.5191 0
    endloop
  endfacet
  facet normal 0.770512 -0.637425 0
    outer loop
      vertex 18.6074 -13.5191 -4
      vertex 16.7663 -15.7446 0
      vertex 16.7663 -15.7446 -4
    endloop
  endfacet
  facet normal -0.684548 -0.728968 0
    outer loop
      vertex -16.7663 -15.7446 -4
      vertex -14.6608 -17.7218 0
      vertex -16.7663 -15.7446 0
    endloop
  endfacet
  facet normal -0.684548 -0.728968 -0
    outer loop
      vertex -14.6608 -17.7218 0
      vertex -16.7663 -15.7446 -4
      vertex -14.6608 -17.7218 -4
    endloop
  endfacet
  facet normal -0.770512 -0.637425 0
    outer loop
      vertex -16.7663 -15.7446 -4
      vertex -18.6074 -13.5191 0
      vertex -18.6074 -13.5191 -4
    endloop
  endfacet
  facet normal -0.770512 -0.637425 0
    outer loop
      vertex -18.6074 -13.5191 0
      vertex -16.7663 -15.7446 -4
      vertex -16.7663 -15.7446 0
    endloop
  endfacet
  facet normal 0 0 -1
    outer loop
      vertex 22.8186 -2.88266 -4
      vertex 22.8186 2.88266 -4
      vertex 23 0 -4
    endloop
  endfacet
  facet normal 0 0 -1
    outer loop
      vertex 22.2774 -5.71987 -4
      vertex 22.8186 2.88266 -4
      vertex 22.8186 -2.88266 -4
    endloop
  endfacet
  facet normal 0 0 -1
    outer loop
      vertex 22.2774 -5.71987 -4
      vertex 22.2774 5.71987 -4
      vertex 22.8186 2.88266 -4
    endloop
  endfacet
  facet normal 0 0 -1
    outer loop
      vertex 21.3849 -8.46686 -4
      vertex 22.2774 5.71987 -4
      vertex 22.2774 -5.71987 -4
    endloop
  endfacet
  facet normal 0 0 -1
    outer loop
      vertex 21.3849 -8.46686 -4
      vertex 21.3849 8.46686 -4
      vertex 22.2774 5.71987 -4
    endloop
  endfacet
  facet normal 0 0 -1
    outer loop
      vertex 20.1551 -11.0803 -4
      vertex 21.3849 8.46686 -4
      vertex 21.3849 -8.46686 -4
    endloop
  endfacet
  facet normal 0 0 -1
    outer loop
      vertex 20.1551 -11.0803 -4
      vertex 20.1551 11.0803 -4
      vertex 21.3849 8.46686 -4
    endloop
  endfacet
  facet normal 0 0 -1
    outer loop
      vertex 18.6074 -13.5191 -4
      vertex 20.1551 11.0803 -4
      vertex 20.1551 -11.0803 -4
    endloop
  endfacet
  facet normal 0 0 -1
    outer loop
      vertex 18.6074 -13.5191 -4
      vertex 18.6074 13.5191 -4
      vertex 20.1551 11.0803 -4
    endloop
  endfacet
  facet normal 0 0 -1
    outer loop
      vertex 16.7663 -15.7446 -4
      vertex 18.6074 13.5191 -4
      vertex 18.6074 -13.5191 -4
    endloop
  endfacet
  facet normal 0 0 -1
    outer loop
      vertex 16.7663 -15.7446 -4
      vertex 16.7663 15.7446 -4
      vertex 18.6074 13.5191 -4
    endloop
  endfacet
  facet normal 0 0 -1
    outer loop
      vertex 14.6608 -17.7218 -4
      vertex 16.7663 15.7446 -4
      vertex 16.7663 -15.7446 -4
    endloop
  endfacet
  facet normal 0 0 -1
    outer loop
      vertex 14.6608 -17.7218 -4
      vertex 14.6608 17.7218 -4
      vertex 16.7663 15.7446 -4
    endloop
  endfacet
  facet normal 0 0 -1
    outer loop
      vertex 12.324 -19.4195 -4
      vertex 14.6608 17.7218 -4
      vertex 14.6608 -17.7218 -4
    endloop
  endfacet
  facet normal 0 0 -1
    outer loop
      vertex 12.324 -19.4195 -4
      vertex 12.324 19.4195 -4
      vertex 14.6608 17.7218 -4
    endloop
  endfacet
  facet normal 0 0 -1
    outer loop
      vertex 9.79292 -20.811 -4
      vertex 12.324 19.4195 -4
      vertex 12.324 -19.4195 -4
    endloop
  endfacet
  facet normal 0 0 -1
    outer loop
      vertex 9.79292 -20.811 -4
      vertex 9.79292 20.811 -4
      vertex 12.324 19.4195 -4
    endloop
  endfacet
  facet normal 0 0 -1
    outer loop
      vertex 7.10739 -21.8743 -4
      vertex 9.79292 20.811 -4
      vertex 9.79292 -20.811 -4
    endloop
  endfacet
  facet normal 0 0 -1
    outer loop
      vertex 7.10739 -21.8743 -4
      vertex 7.10739 21.8743 -4
      vertex 9.79292 20.811 -4
    endloop
  endfacet
  facet normal 0 0 -1
    outer loop
      vertex 4.30977 -22.5926 -4
      vertex 7.10739 21.8743 -4
      vertex 7.10739 -21.8743 -4
    endloop
  endfacet
  facet normal 0 0 -1
    outer loop
      vertex 4.30977 -22.5926 -4
      vertex 4.30977 22.5926 -4
      vertex 7.10739 21.8743 -4
    endloop
  endfacet
  facet normal 0 0 -1
    outer loop
      vertex 1.44418 -22.9546 -4
      vertex 4.30977 22.5926 -4
      vertex 4.30977 -22.5926 -4
    endloop
  endfacet
  facet normal 0 0 -1
    outer loop
      vertex 1.44418 -22.9546 -4
      vertex 1.44418 22.9546 -4
      vertex 4.30977 22.5926 -4
    endloop
  endfacet
  facet normal 0 0 -1
    outer loop
      vertex -1.44418 -22.9546 -4
      vertex 1.44418 22.9546 -4
      vertex 1.44418 -22.9546 -4
    endloop
  endfacet
  facet normal 0 0 -1
    outer loop
      vertex -1.44418 -22.9546 -4
      vertex -1.44418 22.9546 -4
      vertex 1.44418 22.9546 -4
    endloop
  endfacet
  facet normal 0 0 -1
    outer loop
      vertex -4.30977 -22.5926 -4
      vertex -1.44418 22.9546 -4
      vertex -1.44418 -22.9546 -4
    endloop
  endfacet
  facet normal 0 0 -1
    outer loop
      vertex -4.30977 -22.5926 -4
      vertex -4.30977 22.5926 -4
      vertex -1.44418 22.9546 -4
    endloop
  endfacet
  facet normal 0 0 -1
    outer loop
      vertex -7.10739 -21.8743 -4
      vertex -4.30977 22.5926 -4
      vertex -4.30977 -22.5926 -4
    endloop
  endfacet
  facet normal 0 0 -1
    outer loop
      vertex -7.10739 -21.8743 -4
      vertex -7.10739 21.8743 -4
      vertex -4.30977 22.5926 -4
    endloop
  endfacet
  facet normal 0 0 -1
    outer loop
      vertex -9.79292 -20.811 -4
      vertex -7.10739 21.8743 -4
      vertex -7.10739 -21.8743 -4
    endloop
  endfacet
  facet normal 0 0 -1
    outer loop
      vertex -9.79292 -20.811 -4
      vertex -9.79292 20.811 -4
      vertex -7.10739 21.8743 -4
    endloop
  endfacet
  facet normal 0 0 -1
    outer loop
      vertex -12.324 -19.4195 -4
      vertex -9.79292 20.811 -4
      vertex -9.79292 -20.811 -4
    endloop
  endfacet
  facet normal 0 0 -1
    outer loop
      vertex -12.324 -19.4195 -4
      vertex -12.324 19.4195 -4
      vertex -9.79292 20.811 -4
    endloop
  endfacet
  facet normal 0 0 -1
    outer loop
      vertex -14.6608 -17.7218 -4
      vertex -12.324 19.4195 -4
      vertex -12.324 -19.4195 -4
    endloop
  endfacet
  facet normal 0 0 -1
    outer loop
      vertex -14.6608 -17.7218 -4
      vertex -14.6608 17.7218 -4
      vertex -12.324 19.4195 -4
    endloop
  endfacet
  facet normal 0 0 -1
    outer loop
      vertex -16.7663 -15.7446 -4
      vertex -14.6608 17.7218 -4
      vertex -14.6608 -17.7218 -4
    endloop
  endfacet
  facet normal 0 0 -1
    outer loop
      vertex -16.7663 -15.7446 -4
      vertex -16.7663 15.7446 -4
      vertex -14.6608 17.7218 -4
    endloop
  endfacet
  facet normal 0 0 -1
    outer loop
      vertex -18.6074 -13.5191 -4
      vertex -16.7663 15.7446 -4
      vertex -16.7663 -15.7446 -4
    endloop
  endfacet
  facet normal 0 0 -1
    outer loop
      vertex -18.6074 -13.5191 -4
      vertex -18.6074 13.5191 -4
      vertex -16.7663 15.7446 -4
    endloop
  endfacet
  facet normal 0 0 -1
    outer loop
      vertex -20.1551 -11.0803 -4
      vertex -18.6074 13.5191 -4
      vertex -18.6074 -13.5191 -4
    endloop
  endfacet
  facet normal 0 0 -1
    outer loop
      vertex -20.1551 -11.0803 -4
      vertex -20.1551 11.0803 -4
      vertex -18.6074 13.5191 -4
    endloop
  endfacet
  facet normal 0 0 -1
    outer loop
      vertex -21.3849 -8.46686 -4
      vertex -20.1551 11.0803 -4
      vertex -20.1551 -11.0803 -4
    endloop
  endfacet
  facet normal 0 0 -1
    outer loop
      vertex -21.3849 -8.46686 -4
      vertex -21.3849 8.46686 -4
      vertex -20.1551 11.0803 -4
    endloop
  endfacet
  facet normal 0 0 -1
    outer loop
      vertex -22.2774 -5.71987 -4
      vertex -21.3849 8.46686 -4
      vertex -21.3849 -8.46686 -4
    endloop
  endfacet
  facet normal 0 0 -1
    outer loop
      vertex -22.2774 -5.71987 -4
      vertex -22.2774 5.71987 -4
      vertex -21.3849 8.46686 -4
    endloop
  endfacet
  facet normal 0 0 -1
    outer loop
      vertex -22.8186 -2.88266 -4
      vertex -22.2774 5.71987 -4
      vertex -22.2774 -5.71987 -4
    endloop
  endfacet
  facet normal 0 0 -1
    outer loop
      vertex -22.8186 -2.88266 -4
      vertex -22.8186 2.88266 -4
      vertex -22.2774 5.71987 -4
    endloop
  endfacet
  facet normal 0 -0 -1
    outer loop
      vertex -22.8186 2.88266 -4
      vertex -22.8186 -2.88266 -4
      vertex -23 0 -4
    endloop
  endfacet
  facet normal 0.481761 -0.876303 0
    outer loop
      vertex 9.79292 -20.811 -4
      vertex 12.324 -19.4195 0
      vertex 9.79292 -20.811 0
    endloop
  endfacet
  facet normal 0.481761 -0.876303 0
    outer loop
      vertex 12.324 -19.4195 0
      vertex 9.79292 -20.811 -4
      vertex 12.324 -19.4195 -4
    endloop
  endfacet
  facet normal 0.951062 -0.309001 0
    outer loop
      vertex 21.3849 -8.46686 0
      vertex 22.2774 -5.71987 -4
      vertex 22.2774 -5.71987 0
    endloop
  endfacet
  facet normal 0.951062 -0.309001 0
    outer loop
      vertex 22.2774 -5.71987 -4
      vertex 21.3849 -8.46686 0
      vertex 21.3849 -8.46686 -4
    endloop
  endfacet
  facet normal 0.844329 -0.535824 0
    outer loop
      vertex 18.6074 -13.5191 0
      vertex 20.1551 -11.0803 -4
      vertex 20.1551 -11.0803 0
    endloop
  endfacet
  facet normal 0.844329 -0.535824 0
    outer loop
      vertex 20.1551 -11.0803 -4
      vertex 18.6074 -13.5191 0
      vertex 18.6074 -13.5191 -4
    endloop
  endfacet
  facet normal -0.951062 -0.309001 0
    outer loop
      vertex -21.3849 -8.46686 -4
      vertex -22.2774 -5.71987 0
      vertex -22.2774 -5.71987 -4
    endloop
  endfacet
  facet normal -0.951062 -0.309001 0
    outer loop
      vertex -22.2774 -5.71987 0
      vertex -21.3849 -8.46686 -4
      vertex -21.3849 -8.46686 0
    endloop
  endfacet
  facet normal 0.684548 -0.728968 0
    outer loop
      vertex 14.6608 -17.7218 -4
      vertex 16.7663 -15.7446 0
      vertex 14.6608 -17.7218 0
    endloop
  endfacet
  facet normal 0.684548 -0.728968 0
    outer loop
      vertex 16.7663 -15.7446 0
      vertex 14.6608 -17.7218 -4
      vertex 16.7663 -15.7446 -4
    endloop
  endfacet
  facet normal 0.368132 -0.929774 0
    outer loop
      vertex 7.10739 -21.8743 -4
      vertex 9.79292 -20.811 0
      vertex 7.10739 -21.8743 0
    endloop
  endfacet
  facet normal 0.368132 -0.929774 0
    outer loop
      vertex 9.79292 -20.811 0
      vertex 7.10739 -21.8743 -4
      vertex 9.79292 -20.811 -4
    endloop
  endfacet
  facet normal 0.248688 -0.968584 0
    outer loop
      vertex 4.30977 -22.5926 -4
      vertex 7.10739 -21.8743 0
      vertex 4.30977 -22.5926 0
    endloop
  endfacet
  facet normal 0.248688 -0.968584 0
    outer loop
      vertex 7.10739 -21.8743 0
      vertex 4.30977 -22.5926 -4
      vertex 7.10739 -21.8743 -4
    endloop
  endfacet
  facet normal -0.12533 -0.992115 0
    outer loop
      vertex -4.30977 -22.5926 -4
      vertex -1.44418 -22.9546 0
      vertex -4.30977 -22.5926 0
    endloop
  endfacet
  facet normal -0.12533 -0.992115 -0
    outer loop
      vertex -1.44418 -22.9546 0
      vertex -4.30977 -22.5926 -4
      vertex -1.44418 -22.9546 -4
    endloop
  endfacet
  facet normal -0.587766 -0.809031 0
    outer loop
      vertex -14.6608 -17.7218 -4
      vertex -12.324 -19.4195 0
      vertex -14.6608 -17.7218 0
    endloop
  endfacet
  facet normal -0.587766 -0.809031 -0
    outer loop
      vertex -12.324 -19.4195 0
      vertex -14.6608 -17.7218 -4
      vertex -12.324 -19.4195 -4
    endloop
  endfacet
  facet normal -0.844329 -0.535824 0
    outer loop
      vertex -18.6074 -13.5191 -4
      vertex -20.1551 -11.0803 0
      vertex -20.1551 -11.0803 -4
    endloop
  endfacet
  facet normal -0.844329 -0.535824 0
    outer loop
      vertex -20.1551 -11.0803 0
      vertex -18.6074 -13.5191 -4
      vertex -18.6074 -13.5191 0
    endloop
  endfacet
  facet normal -0.904826 -0.425782 0
    outer loop
      vertex -20.1551 -11.0803 -4
      vertex -21.3849 -8.46686 0
      vertex -21.3849 -8.46686 -4
    endloop
  endfacet
  facet normal -0.904826 -0.425782 0
    outer loop
      vertex -21.3849 -8.46686 0
      vertex -20.1551 -11.0803 -4
      vertex -20.1551 -11.0803 0
    endloop
  endfacet
  facet normal -0.982289 -0.187372 0
    outer loop
      vertex -22.2774 -5.71987 -4
      vertex -22.8186 -2.88266 0
      vertex -22.8186 -2.88266 -4
    endloop
  endfacet
  facet normal -0.982289 -0.187372 0
    outer loop
      vertex -22.8186 -2.88266 0
      vertex -22.2774 -5.71987 -4
      vertex -22.2774 -5.71987 0
    endloop
  endfacet
  facet normal -0.998026 -0.0628038 0
    outer loop
      vertex -22.8186 -2.88266 -4
      vertex -23 0 0
      vertex -23 0 -4
    endloop
  endfacet
  facet normal -0.998026 -0.0628038 0
    outer loop
      vertex -23 0 0
      vertex -22.8186 -2.88266 -4
      vertex -22.8186 -2.88266 0
    endloop
  endfacet
  facet normal 0.587766 -0.809031 0
    outer loop
      vertex 12.324 -19.4195 -4
      vertex 14.6608 -17.7218 0
      vertex 12.324 -19.4195 0
    endloop
  endfacet
  facet normal 0.587766 -0.809031 0
    outer loop
      vertex 14.6608 -17.7218 0
      vertex 12.324 -19.4195 -4
      vertex 14.6608 -17.7218 -4
    endloop
  endfacet
  facet normal -0.248688 -0.968584 0
    outer loop
      vertex -7.10739 -21.8743 -4
      vertex -4.30977 -22.5926 0
      vertex -7.10739 -21.8743 0
    endloop
  endfacet
  facet normal -0.248688 -0.968584 -0
    outer loop
      vertex -4.30977 -22.5926 0
      vertex -7.10739 -21.8743 -4
      vertex -4.30977 -22.5926 -4
    endloop
  endfacet
  facet normal -0.368132 -0.929774 0
    outer loop
      vertex -9.79292 -20.811 -4
      vertex -7.10739 -21.8743 0
      vertex -9.79292 -20.811 0
    endloop
  endfacet
  facet normal -0.368132 -0.929774 -0
    outer loop
      vertex -7.10739 -21.8743 0
      vertex -9.79292 -20.811 -4
      vertex -7.10739 -21.8743 -4
    endloop
  endfacet
  facet normal -0.481761 -0.876303 0
    outer loop
      vertex -12.324 -19.4195 -4
      vertex -9.79292 -20.811 0
      vertex -12.324 -19.4195 0
    endloop
  endfacet
  facet normal -0.481761 -0.876303 -0
    outer loop
      vertex -9.79292 -20.811 0
      vertex -12.324 -19.4195 -4
      vertex -9.79292 -20.811 -4
    endloop
  endfacet
  facet normal -0.844335 -0.535815 0
    outer loop
      vertex 14.9848 8.23799 -3
      vertex 13.8342 10.0511 0
      vertex 13.8342 10.0511 -3
    endloop
  endfacet
  facet normal -0.844335 -0.535815 0
    outer loop
      vertex 13.8342 10.0511 0
      vertex 14.9848 8.23799 -3
      vertex 14.9848 8.23799 0
    endloop
  endfacet
  facet normal -0.368154 -0.929765 0
    outer loop
      vertex 5.28419 16.2631 -3
      vertex 7.28083 15.4725 0
      vertex 5.28419 16.2631 0
    endloop
  endfacet
  facet normal -0.368154 -0.929765 -0
    outer loop
      vertex 7.28083 15.4725 0
      vertex 5.28419 16.2631 -3
      vertex 7.28083 15.4725 -3
    endloop
  endfacet
  facet normal 0.368154 -0.929765 0
    outer loop
      vertex -7.28083 15.4725 -3
      vertex -5.28419 16.2631 0
      vertex -7.28083 15.4725 0
    endloop
  endfacet
  facet normal 0.368154 -0.929765 0
    outer loop
      vertex -5.28419 16.2631 0
      vertex -7.28083 15.4725 -3
      vertex -5.28419 16.2631 -3
    endloop
  endfacet
  facet normal 0.904815 -0.425804 0
    outer loop
      vertex -15.8992 6.29493 0
      vertex -14.9848 8.23799 -3
      vertex -14.9848 8.23799 0
    endloop
  endfacet
  facet normal 0.904815 -0.425804 0
    outer loop
      vertex -14.9848 8.23799 -3
      vertex -15.8992 6.29493 0
      vertex -15.8992 6.29493 -3
    endloop
  endfacet
  facet normal -0.998028 0.0627726 0
    outer loop
      vertex 16.9652 -2.1432 -3
      vertex 17.1 0 0
      vertex 17.1 0 -3
    endloop
  endfacet
  facet normal -0.998028 0.0627726 0
    outer loop
      vertex 17.1 0 0
      vertex 16.9652 -2.1432 -3
      vertex 16.9652 -2.1432 0
    endloop
  endfacet
  facet normal -0.368154 0.929765 0
    outer loop
      vertex 7.28083 -15.4725 -3
      vertex 5.28419 -16.2631 0
      vertex 7.28083 -15.4725 0
    endloop
  endfacet
  facet normal -0.368154 0.929765 0
    outer loop
      vertex 5.28419 -16.2631 0
      vertex 7.28083 -15.4725 -3
      vertex 5.28419 -16.2631 -3
    endloop
  endfacet
  facet normal -0.982286 -0.187386 0
    outer loop
      vertex 16.9652 2.1432 -3
      vertex 16.5628 4.2526 0
      vertex 16.5628 4.2526 -3
    endloop
  endfacet
  facet normal -0.982286 -0.187386 0
    outer loop
      vertex 16.5628 4.2526 0
      vertex 16.9652 2.1432 -3
      vertex 16.9652 2.1432 0
    endloop
  endfacet
  facet normal -0.684545 -0.728971 0
    outer loop
      vertex 10.9 13.1758 -3
      vertex 12.4654 11.7058 0
      vertex 10.9 13.1758 0
    endloop
  endfacet
  facet normal -0.684545 -0.728971 -0
    outer loop
      vertex 12.4654 11.7058 0
      vertex 10.9 13.1758 -3
      vertex 12.4654 11.7058 -3
    endloop
  endfacet
  facet normal 0 -1 0
    outer loop
      vertex -1.07372 17.0663 -3
      vertex 1.07372 17.0663 0
      vertex -1.07372 17.0663 0
    endloop
  endfacet
  facet normal 0 -1 -0
    outer loop
      vertex 1.07372 17.0663 0
      vertex -1.07372 17.0663 -3
      vertex 1.07372 17.0663 -3
    endloop
  endfacet
  facet normal -0.587765 -0.809032 0
    outer loop
      vertex 9.16264 14.438 -3
      vertex 10.9 13.1758 0
      vertex 9.16264 14.438 0
    endloop
  endfacet
  facet normal -0.587765 -0.809032 -0
    outer loop
      vertex 10.9 13.1758 0
      vertex 9.16264 14.438 -3
      vertex 10.9 13.1758 -3
    endloop
  endfacet
  facet normal 0.998028 -0.0627726 0
    outer loop
      vertex -17.1 0 0
      vertex -16.9652 2.1432 -3
      vertex -16.9652 2.1432 0
    endloop
  endfacet
  facet normal 0.998028 -0.0627726 0
    outer loop
      vertex -16.9652 2.1432 -3
      vertex -17.1 0 0
      vertex -17.1 0 -3
    endloop
  endfacet
  facet normal 0.982286 -0.187386 0
    outer loop
      vertex -16.9652 2.1432 0
      vertex -16.5628 4.2526 -3
      vertex -16.5628 4.2526 0
    endloop
  endfacet
  facet normal 0.982286 -0.187386 0
    outer loop
      vertex -16.5628 4.2526 -3
      vertex -16.9652 2.1432 0
      vertex -16.9652 2.1432 -3
    endloop
  endfacet
  facet normal 0.770533 -0.6374 0
    outer loop
      vertex -13.8342 10.0511 0
      vertex -12.4654 11.7058 -3
      vertex -12.4654 11.7058 0
    endloop
  endfacet
  facet normal 0.770533 -0.6374 0
    outer loop
      vertex -12.4654 11.7058 -3
      vertex -13.8342 10.0511 0
      vertex -13.8342 10.0511 -3
    endloop
  endfacet
  facet normal 0.481742 -0.876313 0
    outer loop
      vertex -9.16264 14.438 -3
      vertex -7.28083 15.4725 0
      vertex -9.16264 14.438 0
    endloop
  endfacet
  facet normal 0.481742 -0.876313 0
    outer loop
      vertex -7.28083 15.4725 0
      vertex -9.16264 14.438 -3
      vertex -7.28083 15.4725 -3
    endloop
  endfacet
  facet normal 0.587765 -0.809032 0
    outer loop
      vertex -10.9 13.1758 -3
      vertex -9.16264 14.438 0
      vertex -10.9 13.1758 0
    endloop
  endfacet
  facet normal 0.587765 -0.809032 0
    outer loop
      vertex -9.16264 14.438 0
      vertex -10.9 13.1758 -3
      vertex -9.16264 14.438 -3
    endloop
  endfacet
  facet normal -0.982286 0.187386 0
    outer loop
      vertex 16.5628 -4.2526 -3
      vertex 16.9652 -2.1432 0
      vertex 16.9652 -2.1432 -3
    endloop
  endfacet
  facet normal -0.982286 0.187386 0
    outer loop
      vertex 16.9652 -2.1432 0
      vertex 16.5628 -4.2526 -3
      vertex 16.5628 -4.2526 0
    endloop
  endfacet
  facet normal -0.481742 0.876313 0
    outer loop
      vertex 9.16264 -14.438 -3
      vertex 7.28083 -15.4725 0
      vertex 9.16264 -14.438 0
    endloop
  endfacet
  facet normal -0.481742 0.876313 0
    outer loop
      vertex 7.28083 -15.4725 0
      vertex 9.16264 -14.438 -3
      vertex 7.28083 -15.4725 -3
    endloop
  endfacet
  facet normal -0.24867 0.968588 0
    outer loop
      vertex 5.28419 -16.2631 -3
      vertex 3.20422 -16.7971 0
      vertex 5.28419 -16.2631 0
    endloop
  endfacet
  facet normal -0.24867 0.968588 0
    outer loop
      vertex 3.20422 -16.7971 0
      vertex 5.28419 -16.2631 -3
      vertex 3.20422 -16.7971 -3
    endloop
  endfacet
  facet normal -0.770533 -0.6374 0
    outer loop
      vertex 13.8342 10.0511 -3
      vertex 12.4654 11.7058 0
      vertex 12.4654 11.7058 -3
    endloop
  endfacet
  facet normal -0.770533 -0.6374 0
    outer loop
      vertex 12.4654 11.7058 0
      vertex 13.8342 10.0511 -3
      vertex 13.8342 10.0511 0
    endloop
  endfacet
  facet normal -0.24867 -0.968588 0
    outer loop
      vertex 3.20422 16.7971 -3
      vertex 5.28419 16.2631 0
      vertex 3.20422 16.7971 0
    endloop
  endfacet
  facet normal -0.24867 -0.968588 -0
    outer loop
      vertex 5.28419 16.2631 0
      vertex 3.20422 16.7971 -3
      vertex 5.28419 16.2631 -3
    endloop
  endfacet
  facet normal -0.125359 -0.992112 0
    outer loop
      vertex 1.07372 17.0663 -3
      vertex 3.20422 16.7971 0
      vertex 1.07372 17.0663 0
    endloop
  endfacet
  facet normal -0.125359 -0.992112 -0
    outer loop
      vertex 3.20422 16.7971 0
      vertex 1.07372 17.0663 -3
      vertex 3.20422 16.7971 -3
    endloop
  endfacet
  facet normal 0.844335 -0.535815 0
    outer loop
      vertex -14.9848 8.23799 0
      vertex -13.8342 10.0511 -3
      vertex -13.8342 10.0511 0
    endloop
  endfacet
  facet normal 0.844335 -0.535815 0
    outer loop
      vertex -13.8342 10.0511 -3
      vertex -14.9848 8.23799 0
      vertex -14.9848 8.23799 -3
    endloop
  endfacet
  facet normal 0.125359 -0.992112 0
    outer loop
      vertex -3.20422 16.7971 -3
      vertex -1.07372 17.0663 0
      vertex -3.20422 16.7971 0
    endloop
  endfacet
  facet normal 0.125359 -0.992112 0
    outer loop
      vertex -1.07372 17.0663 0
      vertex -3.20422 16.7971 -3
      vertex -1.07372 17.0663 -3
    endloop
  endfacet
  facet normal 0.24867 -0.968588 0
    outer loop
      vertex -5.28419 16.2631 -3
      vertex -3.20422 16.7971 0
      vertex -5.28419 16.2631 0
    endloop
  endfacet
  facet normal 0.24867 -0.968588 0
    outer loop
      vertex -3.20422 16.7971 0
      vertex -5.28419 16.2631 -3
      vertex -3.20422 16.7971 -3
    endloop
  endfacet
  facet normal 0.684545 -0.728971 0
    outer loop
      vertex -12.4654 11.7058 -3
      vertex -10.9 13.1758 0
      vertex -12.4654 11.7058 0
    endloop
  endfacet
  facet normal 0.684545 -0.728971 0
    outer loop
      vertex -10.9 13.1758 0
      vertex -12.4654 11.7058 -3
      vertex -10.9 13.1758 -3
    endloop
  endfacet
  facet normal -0.998028 -0.0627726 0
    outer loop
      vertex 17.1 0 -3
      vertex 16.9652 2.1432 0
      vertex 16.9652 2.1432 -3
    endloop
  endfacet
  facet normal -0.998028 -0.0627726 0
    outer loop
      vertex 16.9652 2.1432 0
      vertex 17.1 0 -3
      vertex 17.1 0 0
    endloop
  endfacet
  facet normal -0.770533 0.6374 0
    outer loop
      vertex 12.4654 -11.7058 -3
      vertex 13.8342 -10.0511 0
      vertex 13.8342 -10.0511 -3
    endloop
  endfacet
  facet normal -0.770533 0.6374 0
    outer loop
      vertex 13.8342 -10.0511 0
      vertex 12.4654 -11.7058 -3
      vertex 12.4654 -11.7058 0
    endloop
  endfacet
  facet normal -0.844335 0.535815 0
    outer loop
      vertex 13.8342 -10.0511 -3
      vertex 14.9848 -8.23799 0
      vertex 14.9848 -8.23799 -3
    endloop
  endfacet
  facet normal -0.844335 0.535815 0
    outer loop
      vertex 14.9848 -8.23799 0
      vertex 13.8342 -10.0511 -3
      vertex 13.8342 -10.0511 0
    endloop
  endfacet
  facet normal 0.998028 0.0627726 0
    outer loop
      vertex -16.9652 -2.1432 0
      vertex -17.1 0 -3
      vertex -17.1 0 0
    endloop
  endfacet
  facet normal 0.998028 0.0627726 0
    outer loop
      vertex -17.1 0 -3
      vertex -16.9652 -2.1432 0
      vertex -16.9652 -2.1432 -3
    endloop
  endfacet
  facet normal 0.844335 0.535815 0
    outer loop
      vertex -13.8342 -10.0511 0
      vertex -14.9848 -8.23799 -3
      vertex -14.9848 -8.23799 0
    endloop
  endfacet
  facet normal 0.844335 0.535815 0
    outer loop
      vertex -14.9848 -8.23799 -3
      vertex -13.8342 -10.0511 0
      vertex -13.8342 -10.0511 -3
    endloop
  endfacet
  facet normal 0.982286 0.187386 0
    outer loop
      vertex -16.5628 -4.2526 0
      vertex -16.9652 -2.1432 -3
      vertex -16.9652 -2.1432 0
    endloop
  endfacet
  facet normal 0.982286 0.187386 0
    outer loop
      vertex -16.9652 -2.1432 -3
      vertex -16.5628 -4.2526 0
      vertex -16.5628 -4.2526 -3
    endloop
  endfacet
  facet normal 0.904815 0.425804 0
    outer loop
      vertex -14.9848 -8.23799 0
      vertex -15.8992 -6.29493 -3
      vertex -15.8992 -6.29493 0
    endloop
  endfacet
  facet normal 0.904815 0.425804 0
    outer loop
      vertex -15.8992 -6.29493 -3
      vertex -14.9848 -8.23799 0
      vertex -14.9848 -8.23799 -3
    endloop
  endfacet
  facet normal -0.125359 0.992112 0
    outer loop
      vertex 3.20422 -16.7971 -3
      vertex 1.07372 -17.0663 0
      vertex 3.20422 -16.7971 0
    endloop
  endfacet
  facet normal -0.125359 0.992112 0
    outer loop
      vertex 1.07372 -17.0663 0
      vertex 3.20422 -16.7971 -3
      vertex 1.07372 -17.0663 -3
    endloop
  endfacet
  facet normal -0.904815 -0.425804 0
    outer loop
      vertex 15.8992 6.29493 -3
      vertex 14.9848 8.23799 0
      vertex 14.9848 8.23799 -3
    endloop
  endfacet
  facet normal -0.904815 -0.425804 0
    outer loop
      vertex 14.9848 8.23799 0
      vertex 15.8992 6.29493 -3
      vertex 15.8992 6.29493 0
    endloop
  endfacet
  facet normal -0.951056 -0.30902 0
    outer loop
      vertex 16.5628 4.2526 -3
      vertex 15.8992 6.29493 0
      vertex 15.8992 6.29493 -3
    endloop
  endfacet
  facet normal -0.951056 -0.30902 0
    outer loop
      vertex 15.8992 6.29493 0
      vertex 16.5628 4.2526 -3
      vertex 16.5628 4.2526 0
    endloop
  endfacet
  facet normal -0.481742 -0.876313 0
    outer loop
      vertex 7.28083 15.4725 -3
      vertex 9.16264 14.438 0
      vertex 7.28083 15.4725 0
    endloop
  endfacet
  facet normal -0.481742 -0.876313 -0
    outer loop
      vertex 9.16264 14.438 0
      vertex 7.28083 15.4725 -3
      vertex 9.16264 14.438 -3
    endloop
  endfacet
  facet normal 0.951056 -0.30902 0
    outer loop
      vertex -16.5628 4.2526 0
      vertex -15.8992 6.29493 -3
      vertex -15.8992 6.29493 0
    endloop
  endfacet
  facet normal 0.951056 -0.30902 0
    outer loop
      vertex -15.8992 6.29493 -3
      vertex -16.5628 4.2526 0
      vertex -16.5628 4.2526 -3
    endloop
  endfacet
  facet normal -0.951056 0.30902 0
    outer loop
      vertex 15.8992 -6.29493 -3
      vertex 16.5628 -4.2526 0
      vertex 16.5628 -4.2526 -3
    endloop
  endfacet
  facet normal -0.951056 0.30902 0
    outer loop
      vertex 16.5628 -4.2526 0
      vertex 15.8992 -6.29493 -3
      vertex 15.8992 -6.29493 0
    endloop
  endfacet
  facet normal -0.904815 0.425804 0
    outer loop
      vertex 14.9848 -8.23799 -3
      vertex 15.8992 -6.29493 0
      vertex 15.8992 -6.29493 -3
    endloop
  endfacet
  facet normal -0.904815 0.425804 0
    outer loop
      vertex 15.8992 -6.29493 0
      vertex 14.9848 -8.23799 -3
      vertex 14.9848 -8.23799 0
    endloop
  endfacet
  facet normal 0 1 -0
    outer loop
      vertex 1.07372 -17.0663 -3
      vertex -1.07372 -17.0663 0
      vertex 1.07372 -17.0663 0
    endloop
  endfacet
  facet normal 0 1 0
    outer loop
      vertex -1.07372 -17.0663 0
      vertex 1.07372 -17.0663 -3
      vertex -1.07372 -17.0663 -3
    endloop
  endfacet
  facet normal 0.368154 0.929765 -0
    outer loop
      vertex -5.28419 -16.2631 -3
      vertex -7.28083 -15.4725 0
      vertex -5.28419 -16.2631 0
    endloop
  endfacet
  facet normal 0.368154 0.929765 0
    outer loop
      vertex -7.28083 -15.4725 0
      vertex -5.28419 -16.2631 -3
      vertex -7.28083 -15.4725 -3
    endloop
  endfacet
  facet normal 0 0 1
    outer loop
      vertex 16.9652 2.1432 -3
      vertex 16.9652 -2.1432 -3
      vertex 17.1 0 -3
    endloop
  endfacet
  facet normal 0 0 1
    outer loop
      vertex 16.5628 4.2526 -3
      vertex 16.9652 -2.1432 -3
      vertex 16.9652 2.1432 -3
    endloop
  endfacet
  facet normal 0 0 1
    outer loop
      vertex 16.5628 4.2526 -3
      vertex 16.5628 -4.2526 -3
      vertex 16.9652 -2.1432 -3
    endloop
  endfacet
  facet normal 0 0 1
    outer loop
      vertex 15.8992 6.29493 -3
      vertex 16.5628 -4.2526 -3
      vertex 16.5628 4.2526 -3
    endloop
  endfacet
  facet normal 0 0 1
    outer loop
      vertex 15.8992 6.29493 -3
      vertex 15.8992 -6.29493 -3
      vertex 16.5628 -4.2526 -3
    endloop
  endfacet
  facet normal 0 0 1
    outer loop
      vertex 14.9848 8.23799 -3
      vertex 15.8992 -6.29493 -3
      vertex 15.8992 6.29493 -3
    endloop
  endfacet
  facet normal 0 0 1
    outer loop
      vertex 14.9848 8.23799 -3
      vertex 14.9848 -8.23799 -3
      vertex 15.8992 -6.29493 -3
    endloop
  endfacet
  facet normal 0 0 1
    outer loop
      vertex 13.8342 10.0511 -3
      vertex 14.9848 -8.23799 -3
      vertex 14.9848 8.23799 -3
    endloop
  endfacet
  facet normal 0 0 1
    outer loop
      vertex 13.8342 10.0511 -3
      vertex 13.8342 -10.0511 -3
      vertex 14.9848 -8.23799 -3
    endloop
  endfacet
  facet normal 0 0 1
    outer loop
      vertex 12.4654 11.7058 -3
      vertex 13.8342 -10.0511 -3
      vertex 13.8342 10.0511 -3
    endloop
  endfacet
  facet normal 0 0 1
    outer loop
      vertex 12.4654 11.7058 -3
      vertex 12.4654 -11.7058 -3
      vertex 13.8342 -10.0511 -3
    endloop
  endfacet
  facet normal 0 0 1
    outer loop
      vertex 10.9 13.1758 -3
      vertex 12.4654 -11.7058 -3
      vertex 12.4654 11.7058 -3
    endloop
  endfacet
  facet normal 0 0 1
    outer loop
      vertex 10.9 13.1758 -3
      vertex 10.9 -13.1758 -3
      vertex 12.4654 -11.7058 -3
    endloop
  endfacet
  facet normal 0 0 1
    outer loop
      vertex 9.16264 14.438 -3
      vertex 10.9 -13.1758 -3
      vertex 10.9 13.1758 -3
    endloop
  endfacet
  facet normal 0 0 1
    outer loop
      vertex 9.16264 14.438 -3
      vertex 9.16264 -14.438 -3
      vertex 10.9 -13.1758 -3
    endloop
  endfacet
  facet normal 0 0 1
    outer loop
      vertex 7.28083 15.4725 -3
      vertex 9.16264 -14.438 -3
      vertex 9.16264 14.438 -3
    endloop
  endfacet
  facet normal 0 0 1
    outer loop
      vertex 7.28083 15.4725 -3
      vertex 7.28083 -15.4725 -3
      vertex 9.16264 -14.438 -3
    endloop
  endfacet
  facet normal 0 0 1
    outer loop
      vertex 5.28419 16.2631 -3
      vertex 7.28083 -15.4725 -3
      vertex 7.28083 15.4725 -3
    endloop
  endfacet
  facet normal 0 0 1
    outer loop
      vertex 5.28419 16.2631 -3
      vertex 5.28419 -16.2631 -3
      vertex 7.28083 -15.4725 -3
    endloop
  endfacet
  facet normal 0 0 1
    outer loop
      vertex 3.20422 16.7971 -3
      vertex 5.28419 -16.2631 -3
      vertex 5.28419 16.2631 -3
    endloop
  endfacet
  facet normal 0 0 1
    outer loop
      vertex 3.20422 16.7971 -3
      vertex 3.20422 -16.7971 -3
      vertex 5.28419 -16.2631 -3
    endloop
  endfacet
  facet normal 0 0 1
    outer loop
      vertex 1.07372 17.0663 -3
      vertex 3.20422 -16.7971 -3
      vertex 3.20422 16.7971 -3
    endloop
  endfacet
  facet normal 0 0 1
    outer loop
      vertex 1.07372 17.0663 -3
      vertex 1.07372 -17.0663 -3
      vertex 3.20422 -16.7971 -3
    endloop
  endfacet
  facet normal -0 0 1
    outer loop
      vertex -1.07372 17.0663 -3
      vertex 1.07372 -17.0663 -3
      vertex 1.07372 17.0663 -3
    endloop
  endfacet
  facet normal 0 0 1
    outer loop
      vertex -1.07372 17.0663 -3
      vertex -1.07372 -17.0663 -3
      vertex 1.07372 -17.0663 -3
    endloop
  endfacet
  facet normal -0 0 1
    outer loop
      vertex -3.20422 16.7971 -3
      vertex -1.07372 -17.0663 -3
      vertex -1.07372 17.0663 -3
    endloop
  endfacet
  facet normal 0 0 1
    outer loop
      vertex -3.20422 16.7971 -3
      vertex -3.20422 -16.7971 -3
      vertex -1.07372 -17.0663 -3
    endloop
  endfacet
  facet normal -0 0 1
    outer loop
      vertex -5.28419 16.2631 -3
      vertex -3.20422 -16.7971 -3
      vertex -3.20422 16.7971 -3
    endloop
  endfacet
  facet normal 0 0 1
    outer loop
      vertex -5.28419 16.2631 -3
      vertex -5.28419 -16.2631 -3
      vertex -3.20422 -16.7971 -3
    endloop
  endfacet
  facet normal -0 0 1
    outer loop
      vertex -7.28083 15.4725 -3
      vertex -5.28419 -16.2631 -3
      vertex -5.28419 16.2631 -3
    endloop
  endfacet
  facet normal 0 0 1
    outer loop
      vertex -7.28083 15.4725 -3
      vertex -7.28083 -15.4725 -3
      vertex -5.28419 -16.2631 -3
    endloop
  endfacet
  facet normal -0 0 1
    outer loop
      vertex -9.16264 14.438 -3
      vertex -7.28083 -15.4725 -3
      vertex -7.28083 15.4725 -3
    endloop
  endfacet
  facet normal 0 0 1
    outer loop
      vertex -9.16264 14.438 -3
      vertex -9.16264 -14.438 -3
      vertex -7.28083 -15.4725 -3
    endloop
  endfacet
  facet normal -0 0 1
    outer loop
      vertex -10.9 13.1758 -3
      vertex -9.16264 -14.438 -3
      vertex -9.16264 14.438 -3
    endloop
  endfacet
  facet normal 0 0 1
    outer loop
      vertex -10.9 13.1758 -3
      vertex -10.9 -13.1758 -3
      vertex -9.16264 -14.438 -3
    endloop
  endfacet
  facet normal -0 0 1
    outer loop
      vertex -12.4654 11.7058 -3
      vertex -10.9 -13.1758 -3
      vertex -10.9 13.1758 -3
    endloop
  endfacet
  facet normal 0 0 1
    outer loop
      vertex -12.4654 11.7058 -3
      vertex -12.4654 -11.7058 -3
      vertex -10.9 -13.1758 -3
    endloop
  endfacet
  facet normal -0 0 1
    outer loop
      vertex -13.8342 10.0511 -3
      vertex -12.4654 -11.7058 -3
      vertex -12.4654 11.7058 -3
    endloop
  endfacet
  facet normal 0 0 1
    outer loop
      vertex -13.8342 10.0511 -3
      vertex -13.8342 -10.0511 -3
      vertex -12.4654 -11.7058 -3
    endloop
  endfacet
  facet normal -0 0 1
    outer loop
      vertex -14.9848 8.23799 -3
      vertex -13.8342 -10.0511 -3
      vertex -13.8342 10.0511 -3
    endloop
  endfacet
  facet normal 0 0 1
    outer loop
      vertex -14.9848 8.23799 -3
      vertex -14.9848 -8.23799 -3
      vertex -13.8342 -10.0511 -3
    endloop
  endfacet
  facet normal -0 0 1
    outer loop
      vertex -15.8992 6.29493 -3
      vertex -14.9848 -8.23799 -3
      vertex -14.9848 8.23799 -3
    endloop
  endfacet
  facet normal 0 0 1
    outer loop
      vertex -15.8992 6.29493 -3
      vertex -15.8992 -6.29493 -3
      vertex -14.9848 -8.23799 -3
    endloop
  endfacet
  facet normal -0 0 1
    outer loop
      vertex -16.5628 4.2526 -3
      vertex -15.8992 -6.29493 -3
      vertex -15.8992 6.29493 -3
    endloop
  endfacet
  facet normal 0 0 1
    outer loop
      vertex -16.5628 4.2526 -3
      vertex -16.5628 -4.2526 -3
      vertex -15.8992 -6.29493 -3
    endloop
  endfacet
  facet normal -0 0 1
    outer loop
      vertex -16.9652 2.1432 -3
      vertex -16.5628 -4.2526 -3
      vertex -16.5628 4.2526 -3
    endloop
  endfacet
  facet normal 0 0 1
    outer loop
      vertex -16.9652 2.1432 -3
      vertex -16.9652 -2.1432 -3
      vertex -16.5628 -4.2526 -3
    endloop
  endfacet
  facet normal 0 -0 1
    outer loop
      vertex -16.9652 -2.1432 -3
      vertex -16.9652 2.1432 -3
      vertex -17.1 0 -3
    endloop
  endfacet
  facet normal 0.951056 0.30902 0
    outer loop
      vertex -15.8992 -6.29493 0
      vertex -16.5628 -4.2526 -3
      vertex -16.5628 -4.2526 0
    endloop
  endfacet
  facet normal 0.951056 0.30902 0
    outer loop
      vertex -16.5628 -4.2526 -3
      vertex -15.8992 -6.29493 0
      vertex -15.8992 -6.29493 -3
    endloop
  endfacet
  facet normal -0.587765 0.809032 0
    outer loop
      vertex 10.9 -13.1758 -3
      vertex 9.16264 -14.438 0
      vertex 10.9 -13.1758 0
    endloop
  endfacet
  facet normal -0.587765 0.809032 0
    outer loop
      vertex 9.16264 -14.438 0
      vertex 10.9 -13.1758 -3
      vertex 9.16264 -14.438 -3
    endloop
  endfacet
  facet normal 0.684545 0.728971 -0
    outer loop
      vertex -10.9 -13.1758 -3
      vertex -12.4654 -11.7058 0
      vertex -10.9 -13.1758 0
    endloop
  endfacet
  facet normal 0.684545 0.728971 0
    outer loop
      vertex -12.4654 -11.7058 0
      vertex -10.9 -13.1758 -3
      vertex -12.4654 -11.7058 -3
    endloop
  endfacet
  facet normal 0.24867 0.968588 -0
    outer loop
      vertex -3.20422 -16.7971 -3
      vertex -5.28419 -16.2631 0
      vertex -3.20422 -16.7971 0
    endloop
  endfacet
  facet normal 0.24867 0.968588 0
    outer loop
      vertex -5.28419 -16.2631 0
      vertex -3.20422 -16.7971 -3
      vertex -5.28419 -16.2631 -3
    endloop
  endfacet
  facet normal 0.481742 0.876313 -0
    outer loop
      vertex -7.28083 -15.4725 -3
      vertex -9.16264 -14.438 0
      vertex -7.28083 -15.4725 0
    endloop
  endfacet
  facet normal 0.481742 0.876313 0
    outer loop
      vertex -9.16264 -14.438 0
      vertex -7.28083 -15.4725 -3
      vertex -9.16264 -14.438 -3
    endloop
  endfacet
  facet normal 0.770533 0.6374 0
    outer loop
      vertex -12.4654 -11.7058 0
      vertex -13.8342 -10.0511 -3
      vertex -13.8342 -10.0511 0
    endloop
  endfacet
  facet normal 0.770533 0.6374 0
    outer loop
      vertex -13.8342 -10.0511 -3
      vertex -12.4654 -11.7058 0
      vertex -12.4654 -11.7058 -3
    endloop
  endfacet
  facet normal -0.684545 0.728971 0
    outer loop
      vertex 12.4654 -11.7058 -3
      vertex 10.9 -13.1758 0
      vertex 12.4654 -11.7058 0
    endloop
  endfacet
  facet normal -0.684545 0.728971 0
    outer loop
      vertex 10.9 -13.1758 0
      vertex 12.4654 -11.7058 -3
      vertex 10.9 -13.1758 -3
    endloop
  endfacet
  facet normal 0.125359 0.992112 -0
    outer loop
      vertex -1.07372 -17.0663 -3
      vertex -3.20422 -16.7971 0
      vertex -1.07372 -17.0663 0
    endloop
  endfacet
  facet normal 0.125359 0.992112 0
    outer loop
      vertex -3.20422 -16.7971 0
      vertex -1.07372 -17.0663 -3
      vertex -3.20422 -16.7971 -3
    endloop
  endfacet
  facet normal 0.587765 0.809032 -0
    outer loop
      vertex -9.16264 -14.438 -3
      vertex -10.9 -13.1758 0
      vertex -9.16264 -14.438 0
    endloop
  endfacet
  facet normal 0.587765 0.809032 0
    outer loop
      vertex -10.9 -13.1758 0
      vertex -9.16264 -14.438 -3
      vertex -10.9 -13.1758 -3
    endloop
  endfacet
endsolid OpenSCAD_Model
