<?xml version="1.0" standalone="no"?>
<!DOCTYPE svg PUBLIC "-//W3C//DTD SVG 1.1//EN" "http://www.w3.org/Graphics/SVG/1.1/DTD/svg11.dtd">
<svg width="36mm" height="84mm" viewBox="-18 -66 36 84" xmlns="http://www.w3.org/2000/svg" version="1.1">
<title>OpenSCAD Model</title>
<path d="
M 3.27916,17.19 L 5.40779,16.6435 L 7.45113,15.8345 L 9.37697,14.7757 L 11.1549,13.484 L 12.7569,11.9796
 L 14.1578,10.2862 L 15.3354,8.43068 L 16.2711,6.44217 L 16.9502,4.35207 L 17.362,2.19333 L 17.5,-0
 L 17.362,-2.19333 L 16.9502,-4.35207 L 16.2711,-6.44217 L 15.3354,-8.43068 L 14.1578,-10.2862 L 12.7569,-11.9796
 L 12.7352,-12 L 12.7569,-12.0204 L 14.1578,-13.7138 L 15.3354,-15.5693 L 16.2711,-17.5578 L 16.9502,-19.6479
 L 17.362,-21.8067 L 17.5,-24 L 17.362,-26.1933 L 16.9502,-28.3521 L 16.2711,-30.4422 L 15.3354,-32.4307
 L 14.1578,-34.2862 L 12.7569,-35.9796 L 12.7352,-36 L 12.7569,-36.0204 L 14.1578,-37.7138 L 15.3354,-39.5693
 L 16.2711,-41.5578 L 16.9502,-43.6479 L 17.362,-45.8067 L 17.5,-48 L 17.362,-50.1933 L 16.9502,-52.3521
 L 16.2711,-54.4422 L 15.3354,-56.4307 L 14.1578,-58.2862 L 12.7569,-59.9796 L 11.1549,-61.484 L 9.37697,-62.7757
 L 7.45113,-63.8345 L 5.40779,-64.6435 L 3.27916,-65.19 L 1.09883,-65.4655 L -1.09883,-65.4655 L -3.27916,-65.19
 L -5.40779,-64.6435 L -7.45113,-63.8345 L -9.37697,-62.7757 L -11.1549,-61.484 L -12.7569,-59.9796 L -14.1578,-58.2862
 L -15.3354,-56.4307 L -16.2711,-54.4422 L -16.9502,-52.3521 L -17.362,-50.1933 L -17.5,-48 L -17.362,-45.8067
 L -16.9502,-43.6479 L -16.2711,-41.5578 L -15.3354,-39.5693 L -14.1578,-37.7138 L -12.7569,-36.0204 L -12.7352,-36
 L -12.7569,-35.9796 L -14.1578,-34.2862 L -15.3354,-32.4307 L -16.2711,-30.4422 L -16.9502,-28.3521 L -17.362,-26.1933
 L -17.5,-24 L -17.362,-21.8067 L -16.9502,-19.6479 L -16.2711,-17.5578 L -15.3354,-15.5693 L -14.1578,-13.7138
 L -12.7569,-12.0204 L -12.7352,-12 L -12.7569,-11.9796 L -14.1578,-10.2862 L -15.3354,-8.43068 L -16.2711,-6.44217
 L -16.9502,-4.35207 L -17.362,-2.19333 L -17.5,-0 L -17.362,2.19333 L -16.9502,4.35207 L -16.2711,6.44217
 L -15.3354,8.43068 L -14.1578,10.2862 L -12.7569,11.9796 L -11.1549,13.484 L -9.37697,14.7757 L -7.45113,15.8345
 L -5.40779,16.6435 L -3.27916,17.19 L -1.09883,17.4655 L 1.09883,17.4655 z
M -3.24644,-49.2789 L -3.73546,-49.3407 L -4.21289,-49.4632 L -4.67117,-49.6447 L -5.10312,-49.8822 L -5.50188,-50.1719
 L -5.86119,-50.5093 L -6.17538,-50.8891 L -6.4395,-51.3053 L -6.64937,-51.7513 L -6.80168,-52.22 L -6.89404,-52.7042
 L -6.92499,-53.1962 L -6.89404,-53.6881 L -6.80168,-54.1723 L -6.64937,-54.641 L -6.4395,-55.087 L -6.17538,-55.5032
 L -5.86119,-55.883 L -5.50188,-56.2204 L -5.10312,-56.5101 L -4.67117,-56.7476 L -4.21289,-56.929 L -3.73546,-57.0516
 L -3.24644,-57.1134 L -2.75354,-57.1134 L -2.26453,-57.0516 L -1.78709,-56.929 L -1.32881,-56.7476 L -0.896866,-56.5101
 L -0.498108,-56.2204 L -0.138794,-55.883 L 0.175385,-55.5032 L 0.439499,-55.087 L 0.649368,-54.641 L 0.801682,-54.1723
 L 0.894043,-53.6881 L 0.924988,-53.1962 L 0.894043,-52.7042 L 0.801682,-52.22 L 0.649368,-51.7513 L 0.439499,-51.3053
 L 0.175385,-50.8891 L -0.138794,-50.5093 L -0.498108,-50.1719 L -0.896866,-49.8822 L -1.32881,-49.6447 L -1.78709,-49.4632
 L -2.26453,-49.3407 L -2.75354,-49.2789 z
M 5.75354,-44.0827 L 5.26453,-44.1445 L 4.78709,-44.2671 L 4.32881,-44.4486 L 3.89687,-44.686 L 3.49811,-44.9757
 L 3.13879,-45.3132 L 2.8246,-45.6929 L 2.56049,-46.1091 L 2.35062,-46.5551 L 2.1983,-47.0239 L 2.10594,-47.5081
 L 2.075,-48 L 2.10594,-48.4919 L 2.1983,-48.9761 L 2.35062,-49.4449 L 2.56049,-49.8909 L 2.8246,-50.3071
 L 3.13879,-50.6868 L 3.49811,-51.0243 L 3.89687,-51.314 L 4.32881,-51.5514 L 4.78709,-51.7329 L 5.26453,-51.8555
 L 5.75354,-51.9173 L 6.24644,-51.9173 L 6.73546,-51.8555 L 7.21289,-51.7329 L 7.67117,-51.5514 L 8.10312,-51.314
 L 8.50188,-51.0243 L 8.86119,-50.6868 L 9.17538,-50.3071 L 9.4395,-49.8909 L 9.64937,-49.4449 L 9.80168,-48.9761
 L 9.89404,-48.4919 L 9.92499,-48 L 9.89404,-47.5081 L 9.80168,-47.0239 L 9.64937,-46.5551 L 9.4395,-46.1091
 L 9.17538,-45.6929 L 8.86119,-45.3132 L 8.50188,-44.9757 L 8.10312,-44.686 L 7.67117,-44.4486 L 7.21289,-44.2671
 L 6.73546,-44.1445 L 6.24644,-44.0827 z
M -6.17538,-40.4968 L -6.4395,-40.913 L -6.64937,-41.359 L -6.80168,-41.8277 L -6.89404,-42.3119 L -6.92499,-42.8038
 L -6.89404,-43.2958 L -6.80168,-43.78 L -6.64937,-44.2487 L -6.4395,-44.6947 L -6.17538,-45.1109 L -5.86119,-45.4907
 L -5.50188,-45.8281 L -5.10312,-46.1178 L -4.67117,-46.3553 L -4.21289,-46.5368 L -3.73546,-46.6593 L -3.24644,-46.7211
 L -2.75354,-46.7211 L -2.26453,-46.6593 L -1.78709,-46.5368 L -1.32881,-46.3553 L -0.896866,-46.1178 L -0.498108,-45.8281
 L -0.138794,-45.4907 L 0.175385,-45.1109 L 0.439499,-44.6947 L 0.649368,-44.2487 L 0.801682,-43.78 L 0.894043,-43.2958
 L 0.924988,-42.8038 L 0.894043,-42.3119 L 0.801682,-41.8277 L 0.683975,-41.4655 L -1.09883,-41.4655 L -3.27916,-41.19
 L -5.40779,-40.6435 L -6.07741,-40.3784 z
M -3.14284,-26.9256 L -3.42628,-26.9614 L -3.703,-27.0325 L -3.96864,-27.1377 L -4.21899,-27.2753 L -4.45013,-27.4432
 L -4.6584,-27.6388 L -4.8405,-27.8589 L -4.99359,-28.1002 L -5.11523,-28.3587 L -5.20352,-28.6304 L -5.25705,-28.911
 L -5.27499,-29.1962 L -5.25705,-29.4813 L -5.20352,-29.7619 L -5.11523,-30.0336 L -4.99359,-30.2921 L -4.8405,-30.5334
 L -4.6584,-30.7535 L -4.45013,-30.9491 L -4.28581,-31.0685 L -3.27916,-30.81 L -1.16766,-30.5432 L -1.15948,-30.5334
 L -1.00639,-30.2921 L -0.88475,-30.0336 L -0.796463,-29.7619 L -0.742935,-29.4813 L -0.724991,-29.1962 L -0.742935,-28.911
 L -0.796463,-28.6304 L -0.88475,-28.3587 L -1.00639,-28.1002 L -1.15948,-27.8589 L -1.34158,-27.6388 L -1.54985,-27.4432
 L -1.78099,-27.2753 L -2.03134,-27.1377 L -2.29698,-27.0325 L -2.5737,-26.9614 L -2.85715,-26.9256 z
M 5.85715,-21.7295 L 5.5737,-21.7653 L 5.29698,-21.8363 L 5.03134,-21.9415 L 4.78099,-22.0792 L 4.54985,-22.2471
 L 4.34158,-22.4427 L 4.15948,-22.6628 L 4.00639,-22.904 L 3.88475,-23.1625 L 3.79646,-23.4342 L 3.74294,-23.7149
 L 3.72499,-24 L 3.74294,-24.2851 L 3.79646,-24.5658 L 3.88475,-24.8375 L 4.00639,-25.096 L 4.15948,-25.3372
 L 4.34158,-25.5573 L 4.54985,-25.7529 L 4.78099,-25.9208 L 5.03134,-26.0585 L 5.29698,-26.1637 L 5.5737,-26.2347
 L 5.85715,-26.2705 L 6.14284,-26.2705 L 6.42628,-26.2347 L 6.703,-26.1637 L 6.96864,-26.0585 L 7.21899,-25.9208
 L 7.45013,-25.7529 L 7.6584,-25.5573 L 7.8405,-25.3372 L 7.99359,-25.096 L 8.11523,-24.8375 L 8.20352,-24.5658
 L 8.25705,-24.2851 L 8.27499,-24 L 8.25705,-23.7149 L 8.20352,-23.4342 L 8.11523,-23.1625 L 7.99359,-22.904
 L 7.8405,-22.6628 L 7.6584,-22.4427 L 7.45013,-22.2471 L 7.21899,-22.0792 L 6.96864,-21.9415 L 6.703,-21.8363
 L 6.42628,-21.7653 L 6.14284,-21.7295 z
M -4.45013,-17.0509 L -4.6584,-17.2465 L -4.8405,-17.4666 L -4.99359,-17.7079 L -5.11523,-17.9664 L -5.20352,-18.2381
 L -5.25705,-18.5187 L -5.27499,-18.8038 L -5.25705,-19.089 L -5.20352,-19.3696 L -5.11523,-19.6413 L -4.99359,-19.8998
 L -4.8405,-20.1411 L -4.6584,-20.3612 L -4.45013,-20.5568 L -4.21899,-20.7247 L -3.96864,-20.8623 L -3.703,-20.9675
 L -3.42628,-21.0386 L -3.14284,-21.0744 L -2.85715,-21.0744 L -2.5737,-21.0386 L -2.29698,-20.9675 L -2.03134,-20.8623
 L -1.78099,-20.7247 L -1.54985,-20.5568 L -1.34158,-20.3612 L -1.15948,-20.1411 L -1.00639,-19.8998 L -0.88475,-19.6413
 L -0.796463,-19.3696 L -0.742935,-19.089 L -0.724991,-18.8038 L -0.742935,-18.5187 L -0.796463,-18.2381 L -0.88475,-17.9664
 L -1.00639,-17.7079 L -1.15948,-17.4666 L -1.16766,-17.4568 L -3.27916,-17.19 L -4.28581,-16.9315 z
M -3.13342,-3.07533 L -3.39818,-3.10878 L -3.65665,-3.17516 L -3.90477,-3.27339 L -4.13863,-3.40195 L -4.35452,-3.55881
 L -4.54906,-3.74149 L -4.71915,-3.9471 L -4.86214,-4.17242 L -4.97577,-4.41388 L -5.05823,-4.66768 L -5.10823,-4.92981
 L -5.125,-5.19615 L -5.10823,-5.46248 L -5.05823,-5.72461 L -4.97577,-5.97841 L -4.86214,-6.21986 L -4.71915,-6.44519
 L -4.54906,-6.6508 L -4.35452,-6.83348 L -4.13863,-6.99034 L -4.08864,-7.01782 L -3.27916,-6.80998 L -1.38463,-6.57065
 L -1.28084,-6.44519 L -1.13785,-6.21986 L -1.02422,-5.97841 L -0.941757,-5.72461 L -0.891754,-5.46248 L -0.875,-5.19615
 L -0.891754,-4.92981 L -0.941757,-4.66768 L -1.02422,-4.41388 L -1.13785,-4.17242 L -1.28084,-3.9471 L -1.45093,-3.74149
 L -1.64546,-3.55881 L -1.86136,-3.40195 L -2.09521,-3.27339 L -2.34334,-3.17516 L -2.60181,-3.10878 L -2.86656,-3.07533
 z
M 5.86656,2.1208 L 5.60181,2.08736 L 5.34334,2.02098 L 5.09521,1.92274 L 4.86136,1.79419 L 4.64546,1.63733
 L 4.45093,1.45465 L 4.28084,1.24904 L 4.13785,1.02371 L 4.02422,0.782257 L 3.94176,0.528458 L 3.89175,0.266327
 L 3.875,-0 L 3.89175,-0.266327 L 3.94176,-0.528458 L 4.02422,-0.782257 L 4.13785,-1.02371 L 4.28084,-1.24904
 L 4.45093,-1.45465 L 4.64546,-1.63733 L 4.86136,-1.79419 L 5.09521,-1.92274 L 5.34334,-2.02098 L 5.60181,-2.08736
 L 5.86656,-2.1208 L 6.13342,-2.1208 L 6.39818,-2.08736 L 6.65665,-2.02098 L 6.90477,-1.92274 L 7.13863,-1.79419
 L 7.35452,-1.63733 L 7.54906,-1.45465 L 7.71915,-1.24904 L 7.86214,-1.02371 L 7.97577,-0.782257 L 8.05823,-0.528458
 L 8.10823,-0.266327 L 8.125,-0 L 8.10823,0.266327 L 8.05823,0.528458 L 7.97577,0.782257 L 7.86214,1.02371
 L 7.71915,1.24904 L 7.54906,1.45465 L 7.35452,1.63733 L 7.13863,1.79419 L 6.90477,1.92274 L 6.65665,2.02098
 L 6.39818,2.08736 L 6.13342,2.1208 z
M -3.13342,7.31696 L -3.39818,7.28351 L -3.65665,7.21713 L -3.90477,7.1189 L -4.13863,6.99034 L -4.35452,6.83348
 L -4.54906,6.6508 L -4.71915,6.44519 L -4.86214,6.21986 L -4.97577,5.97841 L -5.05823,5.72461 L -5.10823,5.46248
 L -5.125,5.19615 L -5.10823,4.92981 L -5.05823,4.66768 L -4.97577,4.41388 L -4.86214,4.17242 L -4.71915,3.9471
 L -4.54906,3.74149 L -4.35452,3.55881 L -4.13863,3.40195 L -3.90477,3.27339 L -3.65665,3.17516 L -3.39818,3.10878
 L -3.13342,3.07533 L -2.86656,3.07533 L -2.60181,3.10878 L -2.34334,3.17516 L -2.09521,3.27339 L -1.86136,3.40195
 L -1.64546,3.55881 L -1.45093,3.74149 L -1.28084,3.9471 L -1.13785,4.17242 L -1.02422,4.41388 L -0.941757,4.66768
 L -0.891754,4.92981 L -0.875,5.19615 L -0.891754,5.46248 L -0.941757,5.72461 L -1.02422,5.97841 L -1.13785,6.21986
 L -1.28084,6.44519 L -1.45093,6.6508 L -1.64546,6.83348 L -1.86136,6.99034 L -2.09521,7.1189 L -2.34334,7.21713
 L -2.60181,7.28351 L -2.86656,7.31696 z
" stroke="black" fill="lightgray" stroke-width="0.5"/>
</svg>
