  0
SECTION
  2
BLOCKS
  0
ENDSEC
  0
SECTION
  2
ENTITIES
  0
LINE
  8
0
 10
3.27916
 20
-17.19
 11
5.40779
 21
-16.6435
  0
LINE
  8
0
 10
5.40779
 20
-16.6435
 11
7.45113
 21
-15.8345
  0
LINE
  8
0
 10
7.45113
 20
-15.8345
 11
9.37697
 21
-14.7757
  0
LINE
  8
0
 10
9.37697
 20
-14.7757
 11
11.1549
 21
-13.484
  0
LINE
  8
0
 10
11.1549
 20
-13.484
 11
12.7569
 21
-11.9796
  0
LINE
  8
0
 10
12.7569
 20
-11.9796
 11
14.1578
 21
-10.2862
  0
LINE
  8
0
 10
14.1578
 20
-10.2862
 11
15.3354
 21
-8.43068
  0
LINE
  8
0
 10
15.3354
 20
-8.43068
 11
16.2711
 21
-6.44217
  0
LINE
  8
0
 10
16.2711
 20
-6.44217
 11
16.9502
 21
-4.35207
  0
LINE
  8
0
 10
16.9502
 20
-4.35207
 11
17.362
 21
-2.19333
  0
LINE
  8
0
 10
17.362
 20
-2.19333
 11
17.5
 21
0
  0
LINE
  8
0
 10
17.5
 20
0
 11
17.362
 21
2.19333
  0
LINE
  8
0
 10
17.362
 20
2.19333
 11
16.9502
 21
4.35207
  0
LINE
  8
0
 10
16.9502
 20
4.35207
 11
16.2711
 21
6.44217
  0
LINE
  8
0
 10
16.2711
 20
6.44217
 11
15.3354
 21
8.43068
  0
LINE
  8
0
 10
15.3354
 20
8.43068
 11
14.1578
 21
10.2862
  0
LINE
  8
0
 10
14.1578
 20
10.2862
 11
12.7569
 21
11.9796
  0
LINE
  8
0
 10
12.7569
 20
11.9796
 11
12.7352
 21
12
  0
LINE
  8
0
 10
12.7352
 20
12
 11
12.7569
 21
12.0204
  0
LINE
  8
0
 10
12.7569
 20
12.0204
 11
14.1578
 21
13.7138
  0
LINE
  8
0
 10
14.1578
 20
13.7138
 11
15.3354
 21
15.5693
  0
LINE
  8
0
 10
15.3354
 20
15.5693
 11
16.2711
 21
17.5578
  0
LINE
  8
0
 10
16.2711
 20
17.5578
 11
16.9502
 21
19.6479
  0
LINE
  8
0
 10
16.9502
 20
19.6479
 11
17.362
 21
21.8067
  0
LINE
  8
0
 10
17.362
 20
21.8067
 11
17.5
 21
24
  0
LINE
  8
0
 10
17.5
 20
24
 11
17.362
 21
26.1933
  0
LINE
  8
0
 10
17.362
 20
26.1933
 11
16.9502
 21
28.3521
  0
LINE
  8
0
 10
16.9502
 20
28.3521
 11
16.2711
 21
30.4422
  0
LINE
  8
0
 10
16.2711
 20
30.4422
 11
15.3354
 21
32.4307
  0
LINE
  8
0
 10
15.3354
 20
32.4307
 11
14.1578
 21
34.2862
  0
LINE
  8
0
 10
14.1578
 20
34.2862
 11
12.7569
 21
35.9796
  0
LINE
  8
0
 10
12.7569
 20
35.9796
 11
12.7352
 21
36
  0
LINE
  8
0
 10
12.7352
 20
36
 11
12.7569
 21
36.0204
  0
LINE
  8
0
 10
12.7569
 20
36.0204
 11
14.1578
 21
37.7138
  0
LINE
  8
0
 10
14.1578
 20
37.7138
 11
15.3354
 21
39.5693
  0
LINE
  8
0
 10
15.3354
 20
39.5693
 11
16.2711
 21
41.5578
  0
LINE
  8
0
 10
16.2711
 20
41.5578
 11
16.9502
 21
43.6479
  0
LINE
  8
0
 10
16.9502
 20
43.6479
 11
17.362
 21
45.8067
  0
LINE
  8
0
 10
17.362
 20
45.8067
 11
17.5
 21
48
  0
LINE
  8
0
 10
17.5
 20
48
 11
17.362
 21
50.1933
  0
LINE
  8
0
 10
17.362
 20
50.1933
 11
16.9502
 21
52.3521
  0
LINE
  8
0
 10
16.9502
 20
52.3521
 11
16.2711
 21
54.4422
  0
LINE
  8
0
 10
16.2711
 20
54.4422
 11
15.3354
 21
56.4307
  0
LINE
  8
0
 10
15.3354
 20
56.4307
 11
14.1578
 21
58.2862
  0
LINE
  8
0
 10
14.1578
 20
58.2862
 11
12.7569
 21
59.9796
  0
LINE
  8
0
 10
12.7569
 20
59.9796
 11
11.1549
 21
61.484
  0
LINE
  8
0
 10
11.1549
 20
61.484
 11
9.37697
 21
62.7757
  0
LINE
  8
0
 10
9.37697
 20
62.7757
 11
7.45113
 21
63.8345
  0
LINE
  8
0
 10
7.45113
 20
63.8345
 11
5.40779
 21
64.6435
  0
LINE
  8
0
 10
5.40779
 20
64.6435
 11
3.27916
 21
65.19
  0
LINE
  8
0
 10
3.27916
 20
65.19
 11
1.09883
 21
65.4655
  0
LINE
  8
0
 10
1.09883
 20
65.4655
 11
-1.09883
 21
65.4655
  0
LINE
  8
0
 10
-1.09883
 20
65.4655
 11
-3.27916
 21
65.19
  0
LINE
  8
0
 10
-3.27916
 20
65.19
 11
-5.40779
 21
64.6435
  0
LINE
  8
0
 10
-5.40779
 20
64.6435
 11
-7.45113
 21
63.8345
  0
LINE
  8
0
 10
-7.45113
 20
63.8345
 11
-9.37697
 21
62.7757
  0
LINE
  8
0
 10
-9.37697
 20
62.7757
 11
-11.1549
 21
61.484
  0
LINE
  8
0
 10
-11.1549
 20
61.484
 11
-12.7569
 21
59.9796
  0
LINE
  8
0
 10
-12.7569
 20
59.9796
 11
-14.1578
 21
58.2862
  0
LINE
  8
0
 10
-14.1578
 20
58.2862
 11
-15.3354
 21
56.4307
  0
LINE
  8
0
 10
-15.3354
 20
56.4307
 11
-16.2711
 21
54.4422
  0
LINE
  8
0
 10
-16.2711
 20
54.4422
 11
-16.9502
 21
52.3521
  0
LINE
  8
0
 10
-16.9502
 20
52.3521
 11
-17.362
 21
50.1933
  0
LINE
  8
0
 10
-17.362
 20
50.1933
 11
-17.5
 21
48
  0
LINE
  8
0
 10
-17.5
 20
48
 11
-17.362
 21
45.8067
  0
LINE
  8
0
 10
-17.362
 20
45.8067
 11
-16.9502
 21
43.6479
  0
LINE
  8
0
 10
-16.9502
 20
43.6479
 11
-16.2711
 21
41.5578
  0
LINE
  8
0
 10
-16.2711
 20
41.5578
 11
-15.3354
 21
39.5693
  0
LINE
  8
0
 10
-15.3354
 20
39.5693
 11
-14.1578
 21
37.7138
  0
LINE
  8
0
 10
-14.1578
 20
37.7138
 11
-12.7569
 21
36.0204
  0
LINE
  8
0
 10
-12.7569
 20
36.0204
 11
-12.7352
 21
36
  0
LINE
  8
0
 10
-12.7352
 20
36
 11
-12.7569
 21
35.9796
  0
LINE
  8
0
 10
-12.7569
 20
35.9796
 11
-14.1578
 21
34.2862
  0
LINE
  8
0
 10
-14.1578
 20
34.2862
 11
-15.3354
 21
32.4307
  0
LINE
  8
0
 10
-15.3354
 20
32.4307
 11
-16.2711
 21
30.4422
  0
LINE
  8
0
 10
-16.2711
 20
30.4422
 11
-16.9502
 21
28.3521
  0
LINE
  8
0
 10
-16.9502
 20
28.3521
 11
-17.362
 21
26.1933
  0
LINE
  8
0
 10
-17.362
 20
26.1933
 11
-17.5
 21
24
  0
LINE
  8
0
 10
-17.5
 20
24
 11
-17.362
 21
21.8067
  0
LINE
  8
0
 10
-17.362
 20
21.8067
 11
-16.9502
 21
19.6479
  0
LINE
  8
0
 10
-16.9502
 20
19.6479
 11
-16.2711
 21
17.5578
  0
LINE
  8
0
 10
-16.2711
 20
17.5578
 11
-15.3354
 21
15.5693
  0
LINE
  8
0
 10
-15.3354
 20
15.5693
 11
-14.1578
 21
13.7138
  0
LINE
  8
0
 10
-14.1578
 20
13.7138
 11
-12.7569
 21
12.0204
  0
LINE
  8
0
 10
-12.7569
 20
12.0204
 11
-12.7352
 21
12
  0
LINE
  8
0
 10
-12.7352
 20
12
 11
-12.7569
 21
11.9796
  0
LINE
  8
0
 10
-12.7569
 20
11.9796
 11
-14.1578
 21
10.2862
  0
LINE
  8
0
 10
-14.1578
 20
10.2862
 11
-15.3354
 21
8.43068
  0
LINE
  8
0
 10
-15.3354
 20
8.43068
 11
-16.2711
 21
6.44217
  0
LINE
  8
0
 10
-16.2711
 20
6.44217
 11
-16.9502
 21
4.35207
  0
LINE
  8
0
 10
-16.9502
 20
4.35207
 11
-17.362
 21
2.19333
  0
LINE
  8
0
 10
-17.362
 20
2.19333
 11
-17.5
 21
0
  0
LINE
  8
0
 10
-17.5
 20
0
 11
-17.362
 21
-2.19333
  0
LINE
  8
0
 10
-17.362
 20
-2.19333
 11
-16.9502
 21
-4.35207
  0
LINE
  8
0
 10
-16.9502
 20
-4.35207
 11
-16.2711
 21
-6.44217
  0
LINE
  8
0
 10
-16.2711
 20
-6.44217
 11
-15.3354
 21
-8.43068
  0
LINE
  8
0
 10
-15.3354
 20
-8.43068
 11
-14.1578
 21
-10.2862
  0
LINE
  8
0
 10
-14.1578
 20
-10.2862
 11
-12.7569
 21
-11.9796
  0
LINE
  8
0
 10
-12.7569
 20
-11.9796
 11
-11.1549
 21
-13.484
  0
LINE
  8
0
 10
-11.1549
 20
-13.484
 11
-9.37697
 21
-14.7757
  0
LINE
  8
0
 10
-9.37697
 20
-14.7757
 11
-7.45113
 21
-15.8345
  0
LINE
  8
0
 10
-7.45113
 20
-15.8345
 11
-5.40779
 21
-16.6435
  0
LINE
  8
0
 10
-5.40779
 20
-16.6435
 11
-3.27916
 21
-17.19
  0
LINE
  8
0
 10
-3.27916
 20
-17.19
 11
-1.09883
 21
-17.4655
  0
LINE
  8
0
 10
-1.09883
 20
-17.4655
 11
1.09883
 21
-17.4655
  0
LINE
  8
0
 10
1.09883
 20
-17.4655
 11
3.27916
 21
-17.19
  0
LINE
  8
0
 10
-3.24644
 20
49.2789
 11
-3.73546
 21
49.3407
  0
LINE
  8
0
 10
-3.73546
 20
49.3407
 11
-4.21289
 21
49.4632
  0
LINE
  8
0
 10
-4.21289
 20
49.4632
 11
-4.67117
 21
49.6447
  0
LINE
  8
0
 10
-4.67117
 20
49.6447
 11
-5.10312
 21
49.8822
  0
LINE
  8
0
 10
-5.10312
 20
49.8822
 11
-5.50188
 21
50.1719
  0
LINE
  8
0
 10
-5.50188
 20
50.1719
 11
-5.86119
 21
50.5093
  0
LINE
  8
0
 10
-5.86119
 20
50.5093
 11
-6.17538
 21
50.8891
  0
LINE
  8
0
 10
-6.17538
 20
50.8891
 11
-6.4395
 21
51.3053
  0
LINE
  8
0
 10
-6.4395
 20
51.3053
 11
-6.64937
 21
51.7513
  0
LINE
  8
0
 10
-6.64937
 20
51.7513
 11
-6.80168
 21
52.22
  0
LINE
  8
0
 10
-6.80168
 20
52.22
 11
-6.89404
 21
52.7042
  0
LINE
  8
0
 10
-6.89404
 20
52.7042
 11
-6.92499
 21
53.1962
  0
LINE
  8
0
 10
-6.92499
 20
53.1962
 11
-6.89404
 21
53.6881
  0
LINE
  8
0
 10
-6.89404
 20
53.6881
 11
-6.80168
 21
54.1723
  0
LINE
  8
0
 10
-6.80168
 20
54.1723
 11
-6.64937
 21
54.641
  0
LINE
  8
0
 10
-6.64937
 20
54.641
 11
-6.4395
 21
55.087
  0
LINE
  8
0
 10
-6.4395
 20
55.087
 11
-6.17538
 21
55.5032
  0
LINE
  8
0
 10
-6.17538
 20
55.5032
 11
-5.86119
 21
55.883
  0
LINE
  8
0
 10
-5.86119
 20
55.883
 11
-5.50188
 21
56.2204
  0
LINE
  8
0
 10
-5.50188
 20
56.2204
 11
-5.10312
 21
56.5101
  0
LINE
  8
0
 10
-5.10312
 20
56.5101
 11
-4.67117
 21
56.7476
  0
LINE
  8
0
 10
-4.67117
 20
56.7476
 11
-4.21289
 21
56.929
  0
LINE
  8
0
 10
-4.21289
 20
56.929
 11
-3.73546
 21
57.0516
  0
LINE
  8
0
 10
-3.73546
 20
57.0516
 11
-3.24644
 21
57.1134
  0
LINE
  8
0
 10
-3.24644
 20
57.1134
 11
-2.75354
 21
57.1134
  0
LINE
  8
0
 10
-2.75354
 20
57.1134
 11
-2.26453
 21
57.0516
  0
LINE
  8
0
 10
-2.26453
 20
57.0516
 11
-1.78709
 21
56.929
  0
LINE
  8
0
 10
-1.78709
 20
56.929
 11
-1.32881
 21
56.7476
  0
LINE
  8
0
 10
-1.32881
 20
56.7476
 11
-0.896866
 21
56.5101
  0
LINE
  8
0
 10
-0.896866
 20
56.5101
 11
-0.498108
 21
56.2204
  0
LINE
  8
0
 10
-0.498108
 20
56.2204
 11
-0.138794
 21
55.883
  0
LINE
  8
0
 10
-0.138794
 20
55.883
 11
0.175385
 21
55.5032
  0
LINE
  8
0
 10
0.175385
 20
55.5032
 11
0.439499
 21
55.087
  0
LINE
  8
0
 10
0.439499
 20
55.087
 11
0.649368
 21
54.641
  0
LINE
  8
0
 10
0.649368
 20
54.641
 11
0.801682
 21
54.1723
  0
LINE
  8
0
 10
0.801682
 20
54.1723
 11
0.894043
 21
53.6881
  0
LINE
  8
0
 10
0.894043
 20
53.6881
 11
0.924988
 21
53.1962
  0
LINE
  8
0
 10
0.924988
 20
53.1962
 11
0.894043
 21
52.7042
  0
LINE
  8
0
 10
0.894043
 20
52.7042
 11
0.801682
 21
52.22
  0
LINE
  8
0
 10
0.801682
 20
52.22
 11
0.649368
 21
51.7513
  0
LINE
  8
0
 10
0.649368
 20
51.7513
 11
0.439499
 21
51.3053
  0
LINE
  8
0
 10
0.439499
 20
51.3053
 11
0.175385
 21
50.8891
  0
LINE
  8
0
 10
0.175385
 20
50.8891
 11
-0.138794
 21
50.5093
  0
LINE
  8
0
 10
-0.138794
 20
50.5093
 11
-0.498108
 21
50.1719
  0
LINE
  8
0
 10
-0.498108
 20
50.1719
 11
-0.896866
 21
49.8822
  0
LINE
  8
0
 10
-0.896866
 20
49.8822
 11
-1.32881
 21
49.6447
  0
LINE
  8
0
 10
-1.32881
 20
49.6447
 11
-1.78709
 21
49.4632
  0
LINE
  8
0
 10
-1.78709
 20
49.4632
 11
-2.26453
 21
49.3407
  0
LINE
  8
0
 10
-2.26453
 20
49.3407
 11
-2.75354
 21
49.2789
  0
LINE
  8
0
 10
-2.75354
 20
49.2789
 11
-3.24644
 21
49.2789
  0
LINE
  8
0
 10
5.75354
 20
44.0827
 11
5.26453
 21
44.1445
  0
LINE
  8
0
 10
5.26453
 20
44.1445
 11
4.78709
 21
44.2671
  0
LINE
  8
0
 10
4.78709
 20
44.2671
 11
4.32881
 21
44.4486
  0
LINE
  8
0
 10
4.32881
 20
44.4486
 11
3.89687
 21
44.686
  0
LINE
  8
0
 10
3.89687
 20
44.686
 11
3.49811
 21
44.9757
  0
LINE
  8
0
 10
3.49811
 20
44.9757
 11
3.13879
 21
45.3132
  0
LINE
  8
0
 10
3.13879
 20
45.3132
 11
2.8246
 21
45.6929
  0
LINE
  8
0
 10
2.8246
 20
45.6929
 11
2.56049
 21
46.1091
  0
LINE
  8
0
 10
2.56049
 20
46.1091
 11
2.35062
 21
46.5551
  0
LINE
  8
0
 10
2.35062
 20
46.5551
 11
2.1983
 21
47.0239
  0
LINE
  8
0
 10
2.1983
 20
47.0239
 11
2.10594
 21
47.5081
  0
LINE
  8
0
 10
2.10594
 20
47.5081
 11
2.075
 21
48
  0
LINE
  8
0
 10
2.075
 20
48
 11
2.10594
 21
48.4919
  0
LINE
  8
0
 10
2.10594
 20
48.4919
 11
2.1983
 21
48.9761
  0
LINE
  8
0
 10
2.1983
 20
48.9761
 11
2.35062
 21
49.4449
  0
LINE
  8
0
 10
2.35062
 20
49.4449
 11
2.56049
 21
49.8909
  0
LINE
  8
0
 10
2.56049
 20
49.8909
 11
2.8246
 21
50.3071
  0
LINE
  8
0
 10
2.8246
 20
50.3071
 11
3.13879
 21
50.6868
  0
LINE
  8
0
 10
3.13879
 20
50.6868
 11
3.49811
 21
51.0243
  0
LINE
  8
0
 10
3.49811
 20
51.0243
 11
3.89687
 21
51.314
  0
LINE
  8
0
 10
3.89687
 20
51.314
 11
4.32881
 21
51.5514
  0
LINE
  8
0
 10
4.32881
 20
51.5514
 11
4.78709
 21
51.7329
  0
LINE
  8
0
 10
4.78709
 20
51.7329
 11
5.26453
 21
51.8555
  0
LINE
  8
0
 10
5.26453
 20
51.8555
 11
5.75354
 21
51.9173
  0
LINE
  8
0
 10
5.75354
 20
51.9173
 11
6.24644
 21
51.9173
  0
LINE
  8
0
 10
6.24644
 20
51.9173
 11
6.73546
 21
51.8555
  0
LINE
  8
0
 10
6.73546
 20
51.8555
 11
7.21289
 21
51.7329
  0
LINE
  8
0
 10
7.21289
 20
51.7329
 11
7.67117
 21
51.5514
  0
LINE
  8
0
 10
7.67117
 20
51.5514
 11
8.10312
 21
51.314
  0
LINE
  8
0
 10
8.10312
 20
51.314
 11
8.50188
 21
51.0243
  0
LINE
  8
0
 10
8.50188
 20
51.0243
 11
8.86119
 21
50.6868
  0
LINE
  8
0
 10
8.86119
 20
50.6868
 11
9.17538
 21
50.3071
  0
LINE
  8
0
 10
9.17538
 20
50.3071
 11
9.4395
 21
49.8909
  0
LINE
  8
0
 10
9.4395
 20
49.8909
 11
9.64937
 21
49.4449
  0
LINE
  8
0
 10
9.64937
 20
49.4449
 11
9.80168
 21
48.9761
  0
LINE
  8
0
 10
9.80168
 20
48.9761
 11
9.89404
 21
48.4919
  0
LINE
  8
0
 10
9.89404
 20
48.4919
 11
9.92499
 21
48
  0
LINE
  8
0
 10
9.92499
 20
48
 11
9.89404
 21
47.5081
  0
LINE
  8
0
 10
9.89404
 20
47.5081
 11
9.80168
 21
47.0239
  0
LINE
  8
0
 10
9.80168
 20
47.0239
 11
9.64937
 21
46.5551
  0
LINE
  8
0
 10
9.64937
 20
46.5551
 11
9.4395
 21
46.1091
  0
LINE
  8
0
 10
9.4395
 20
46.1091
 11
9.17538
 21
45.6929
  0
LINE
  8
0
 10
9.17538
 20
45.6929
 11
8.86119
 21
45.3132
  0
LINE
  8
0
 10
8.86119
 20
45.3132
 11
8.50188
 21
44.9757
  0
LINE
  8
0
 10
8.50188
 20
44.9757
 11
8.10312
 21
44.686
  0
LINE
  8
0
 10
8.10312
 20
44.686
 11
7.67117
 21
44.4486
  0
LINE
  8
0
 10
7.67117
 20
44.4486
 11
7.21289
 21
44.2671
  0
LINE
  8
0
 10
7.21289
 20
44.2671
 11
6.73546
 21
44.1445
  0
LINE
  8
0
 10
6.73546
 20
44.1445
 11
6.24644
 21
44.0827
  0
LINE
  8
0
 10
6.24644
 20
44.0827
 11
5.75354
 21
44.0827
  0
LINE
  8
0
 10
-6.17538
 20
40.4968
 11
-6.4395
 21
40.913
  0
LINE
  8
0
 10
-6.4395
 20
40.913
 11
-6.64937
 21
41.359
  0
LINE
  8
0
 10
-6.64937
 20
41.359
 11
-6.80168
 21
41.8277
  0
LINE
  8
0
 10
-6.80168
 20
41.8277
 11
-6.89404
 21
42.3119
  0
LINE
  8
0
 10
-6.89404
 20
42.3119
 11
-6.92499
 21
42.8038
  0
LINE
  8
0
 10
-6.92499
 20
42.8038
 11
-6.89404
 21
43.2958
  0
LINE
  8
0
 10
-6.89404
 20
43.2958
 11
-6.80168
 21
43.78
  0
LINE
  8
0
 10
-6.80168
 20
43.78
 11
-6.64937
 21
44.2487
  0
LINE
  8
0
 10
-6.64937
 20
44.2487
 11
-6.4395
 21
44.6947
  0
LINE
  8
0
 10
-6.4395
 20
44.6947
 11
-6.17538
 21
45.1109
  0
LINE
  8
0
 10
-6.17538
 20
45.1109
 11
-5.86119
 21
45.4907
  0
LINE
  8
0
 10
-5.86119
 20
45.4907
 11
-5.50188
 21
45.8281
  0
LINE
  8
0
 10
-5.50188
 20
45.8281
 11
-5.10312
 21
46.1178
  0
LINE
  8
0
 10
-5.10312
 20
46.1178
 11
-4.67117
 21
46.3553
  0
LINE
  8
0
 10
-4.67117
 20
46.3553
 11
-4.21289
 21
46.5368
  0
LINE
  8
0
 10
-4.21289
 20
46.5368
 11
-3.73546
 21
46.6593
  0
LINE
  8
0
 10
-3.73546
 20
46.6593
 11
-3.24644
 21
46.7211
  0
LINE
  8
0
 10
-3.24644
 20
46.7211
 11
-2.75354
 21
46.7211
  0
LINE
  8
0
 10
-2.75354
 20
46.7211
 11
-2.26453
 21
46.6593
  0
LINE
  8
0
 10
-2.26453
 20
46.6593
 11
-1.78709
 21
46.5368
  0
LINE
  8
0
 10
-1.78709
 20
46.5368
 11
-1.32881
 21
46.3553
  0
LINE
  8
0
 10
-1.32881
 20
46.3553
 11
-0.896866
 21
46.1178
  0
LINE
  8
0
 10
-0.896866
 20
46.1178
 11
-0.498108
 21
45.8281
  0
LINE
  8
0
 10
-0.498108
 20
45.8281
 11
-0.138794
 21
45.4907
  0
LINE
  8
0
 10
-0.138794
 20
45.4907
 11
0.175385
 21
45.1109
  0
LINE
  8
0
 10
0.175385
 20
45.1109
 11
0.439499
 21
44.6947
  0
LINE
  8
0
 10
0.439499
 20
44.6947
 11
0.649368
 21
44.2487
  0
LINE
  8
0
 10
0.649368
 20
44.2487
 11
0.801682
 21
43.78
  0
LINE
  8
0
 10
0.801682
 20
43.78
 11
0.894043
 21
43.2958
  0
LINE
  8
0
 10
0.894043
 20
43.2958
 11
0.924988
 21
42.8038
  0
LINE
  8
0
 10
0.924988
 20
42.8038
 11
0.894043
 21
42.3119
  0
LINE
  8
0
 10
0.894043
 20
42.3119
 11
0.801682
 21
41.8277
  0
LINE
  8
0
 10
0.801682
 20
41.8277
 11
0.683975
 21
41.4655
  0
LINE
  8
0
 10
0.683975
 20
41.4655
 11
-1.09883
 21
41.4655
  0
LINE
  8
0
 10
-1.09883
 20
41.4655
 11
-3.27916
 21
41.19
  0
LINE
  8
0
 10
-3.27916
 20
41.19
 11
-5.40779
 21
40.6435
  0
LINE
  8
0
 10
-5.40779
 20
40.6435
 11
-6.07741
 21
40.3784
  0
LINE
  8
0
 10
-6.07741
 20
40.3784
 11
-6.17538
 21
40.4968
  0
LINE
  8
0
 10
-3.14284
 20
26.9256
 11
-3.42628
 21
26.9614
  0
LINE
  8
0
 10
-3.42628
 20
26.9614
 11
-3.703
 21
27.0325
  0
LINE
  8
0
 10
-3.703
 20
27.0325
 11
-3.96864
 21
27.1377
  0
LINE
  8
0
 10
-3.96864
 20
27.1377
 11
-4.21899
 21
27.2753
  0
LINE
  8
0
 10
-4.21899
 20
27.2753
 11
-4.45013
 21
27.4432
  0
LINE
  8
0
 10
-4.45013
 20
27.4432
 11
-4.6584
 21
27.6388
  0
LINE
  8
0
 10
-4.6584
 20
27.6388
 11
-4.8405
 21
27.8589
  0
LINE
  8
0
 10
-4.8405
 20
27.8589
 11
-4.99359
 21
28.1002
  0
LINE
  8
0
 10
-4.99359
 20
28.1002
 11
-5.11523
 21
28.3587
  0
LINE
  8
0
 10
-5.11523
 20
28.3587
 11
-5.20352
 21
28.6304
  0
LINE
  8
0
 10
-5.20352
 20
28.6304
 11
-5.25705
 21
28.911
  0
LINE
  8
0
 10
-5.25705
 20
28.911
 11
-5.27499
 21
29.1962
  0
LINE
  8
0
 10
-5.27499
 20
29.1962
 11
-5.25705
 21
29.4813
  0
LINE
  8
0
 10
-5.25705
 20
29.4813
 11
-5.20352
 21
29.7619
  0
LINE
  8
0
 10
-5.20352
 20
29.7619
 11
-5.11523
 21
30.0336
  0
LINE
  8
0
 10
-5.11523
 20
30.0336
 11
-4.99359
 21
30.2921
  0
LINE
  8
0
 10
-4.99359
 20
30.2921
 11
-4.8405
 21
30.5334
  0
LINE
  8
0
 10
-4.8405
 20
30.5334
 11
-4.6584
 21
30.7535
  0
LINE
  8
0
 10
-4.6584
 20
30.7535
 11
-4.45013
 21
30.9491
  0
LINE
  8
0
 10
-4.45013
 20
30.9491
 11
-4.28581
 21
31.0685
  0
LINE
  8
0
 10
-4.28581
 20
31.0685
 11
-3.27916
 21
30.81
  0
LINE
  8
0
 10
-3.27916
 20
30.81
 11
-1.16766
 21
30.5432
  0
LINE
  8
0
 10
-1.16766
 20
30.5432
 11
-1.15948
 21
30.5334
  0
LINE
  8
0
 10
-1.15948
 20
30.5334
 11
-1.00639
 21
30.2921
  0
LINE
  8
0
 10
-1.00639
 20
30.2921
 11
-0.88475
 21
30.0336
  0
LINE
  8
0
 10
-0.88475
 20
30.0336
 11
-0.796463
 21
29.7619
  0
LINE
  8
0
 10
-0.796463
 20
29.7619
 11
-0.742935
 21
29.4813
  0
LINE
  8
0
 10
-0.742935
 20
29.4813
 11
-0.724991
 21
29.1962
  0
LINE
  8
0
 10
-0.724991
 20
29.1962
 11
-0.742935
 21
28.911
  0
LINE
  8
0
 10
-0.742935
 20
28.911
 11
-0.796463
 21
28.6304
  0
LINE
  8
0
 10
-0.796463
 20
28.6304
 11
-0.88475
 21
28.3587
  0
LINE
  8
0
 10
-0.88475
 20
28.3587
 11
-1.00639
 21
28.1002
  0
LINE
  8
0
 10
-1.00639
 20
28.1002
 11
-1.15948
 21
27.8589
  0
LINE
  8
0
 10
-1.15948
 20
27.8589
 11
-1.34158
 21
27.6388
  0
LINE
  8
0
 10
-1.34158
 20
27.6388
 11
-1.54985
 21
27.4432
  0
LINE
  8
0
 10
-1.54985
 20
27.4432
 11
-1.78099
 21
27.2753
  0
LINE
  8
0
 10
-1.78099
 20
27.2753
 11
-2.03134
 21
27.1377
  0
LINE
  8
0
 10
-2.03134
 20
27.1377
 11
-2.29698
 21
27.0325
  0
LINE
  8
0
 10
-2.29698
 20
27.0325
 11
-2.5737
 21
26.9614
  0
LINE
  8
0
 10
-2.5737
 20
26.9614
 11
-2.85715
 21
26.9256
  0
LINE
  8
0
 10
-2.85715
 20
26.9256
 11
-3.14284
 21
26.9256
  0
LINE
  8
0
 10
5.85715
 20
21.7295
 11
5.5737
 21
21.7653
  0
LINE
  8
0
 10
5.5737
 20
21.7653
 11
5.29698
 21
21.8363
  0
LINE
  8
0
 10
5.29698
 20
21.8363
 11
5.03134
 21
21.9415
  0
LINE
  8
0
 10
5.03134
 20
21.9415
 11
4.78099
 21
22.0792
  0
LINE
  8
0
 10
4.78099
 20
22.0792
 11
4.54985
 21
22.2471
  0
LINE
  8
0
 10
4.54985
 20
22.2471
 11
4.34158
 21
22.4427
  0
LINE
  8
0
 10
4.34158
 20
22.4427
 11
4.15948
 21
22.6628
  0
LINE
  8
0
 10
4.15948
 20
22.6628
 11
4.00639
 21
22.904
  0
LINE
  8
0
 10
4.00639
 20
22.904
 11
3.88475
 21
23.1625
  0
LINE
  8
0
 10
3.88475
 20
23.1625
 11
3.79646
 21
23.4342
  0
LINE
  8
0
 10
3.79646
 20
23.4342
 11
3.74294
 21
23.7149
  0
LINE
  8
0
 10
3.74294
 20
23.7149
 11
3.72499
 21
24
  0
LINE
  8
0
 10
3.72499
 20
24
 11
3.74294
 21
24.2851
  0
LINE
  8
0
 10
3.74294
 20
24.2851
 11
3.79646
 21
24.5658
  0
LINE
  8
0
 10
3.79646
 20
24.5658
 11
3.88475
 21
24.8375
  0
LINE
  8
0
 10
3.88475
 20
24.8375
 11
4.00639
 21
25.096
  0
LINE
  8
0
 10
4.00639
 20
25.096
 11
4.15948
 21
25.3372
  0
LINE
  8
0
 10
4.15948
 20
25.3372
 11
4.34158
 21
25.5573
  0
LINE
  8
0
 10
4.34158
 20
25.5573
 11
4.54985
 21
25.7529
  0
LINE
  8
0
 10
4.54985
 20
25.7529
 11
4.78099
 21
25.9208
  0
LINE
  8
0
 10
4.78099
 20
25.9208
 11
5.03134
 21
26.0585
  0
LINE
  8
0
 10
5.03134
 20
26.0585
 11
5.29698
 21
26.1637
  0
LINE
  8
0
 10
5.29698
 20
26.1637
 11
5.5737
 21
26.2347
  0
LINE
  8
0
 10
5.5737
 20
26.2347
 11
5.85715
 21
26.2705
  0
LINE
  8
0
 10
5.85715
 20
26.2705
 11
6.14284
 21
26.2705
  0
LINE
  8
0
 10
6.14284
 20
26.2705
 11
6.42628
 21
26.2347
  0
LINE
  8
0
 10
6.42628
 20
26.2347
 11
6.703
 21
26.1637
  0
LINE
  8
0
 10
6.703
 20
26.1637
 11
6.96864
 21
26.0585
  0
LINE
  8
0
 10
6.96864
 20
26.0585
 11
7.21899
 21
25.9208
  0
LINE
  8
0
 10
7.21899
 20
25.9208
 11
7.45013
 21
25.7529
  0
LINE
  8
0
 10
7.45013
 20
25.7529
 11
7.6584
 21
25.5573
  0
LINE
  8
0
 10
7.6584
 20
25.5573
 11
7.8405
 21
25.3372
  0
LINE
  8
0
 10
7.8405
 20
25.3372
 11
7.99359
 21
25.096
  0
LINE
  8
0
 10
7.99359
 20
25.096
 11
8.11523
 21
24.8375
  0
LINE
  8
0
 10
8.11523
 20
24.8375
 11
8.20352
 21
24.5658
  0
LINE
  8
0
 10
8.20352
 20
24.5658
 11
8.25705
 21
24.2851
  0
LINE
  8
0
 10
8.25705
 20
24.2851
 11
8.27499
 21
24
  0
LINE
  8
0
 10
8.27499
 20
24
 11
8.25705
 21
23.7149
  0
LINE
  8
0
 10
8.25705
 20
23.7149
 11
8.20352
 21
23.4342
  0
LINE
  8
0
 10
8.20352
 20
23.4342
 11
8.11523
 21
23.1625
  0
LINE
  8
0
 10
8.11523
 20
23.1625
 11
7.99359
 21
22.904
  0
LINE
  8
0
 10
7.99359
 20
22.904
 11
7.8405
 21
22.6628
  0
LINE
  8
0
 10
7.8405
 20
22.6628
 11
7.6584
 21
22.4427
  0
LINE
  8
0
 10
7.6584
 20
22.4427
 11
7.45013
 21
22.2471
  0
LINE
  8
0
 10
7.45013
 20
22.2471
 11
7.21899
 21
22.0792
  0
LINE
  8
0
 10
7.21899
 20
22.0792
 11
6.96864
 21
21.9415
  0
LINE
  8
0
 10
6.96864
 20
21.9415
 11
6.703
 21
21.8363
  0
LINE
  8
0
 10
6.703
 20
21.8363
 11
6.42628
 21
21.7653
  0
LINE
  8
0
 10
6.42628
 20
21.7653
 11
6.14284
 21
21.7295
  0
LINE
  8
0
 10
6.14284
 20
21.7295
 11
5.85715
 21
21.7295
  0
LINE
  8
0
 10
-4.45013
 20
17.0509
 11
-4.6584
 21
17.2465
  0
LINE
  8
0
 10
-4.6584
 20
17.2465
 11
-4.8405
 21
17.4666
  0
LINE
  8
0
 10
-4.8405
 20
17.4666
 11
-4.99359
 21
17.7079
  0
LINE
  8
0
 10
-4.99359
 20
17.7079
 11
-5.11523
 21
17.9664
  0
LINE
  8
0
 10
-5.11523
 20
17.9664
 11
-5.20352
 21
18.2381
  0
LINE
  8
0
 10
-5.20352
 20
18.2381
 11
-5.25705
 21
18.5187
  0
LINE
  8
0
 10
-5.25705
 20
18.5187
 11
-5.27499
 21
18.8038
  0
LINE
  8
0
 10
-5.27499
 20
18.8038
 11
-5.25705
 21
19.089
  0
LINE
  8
0
 10
-5.25705
 20
19.089
 11
-5.20352
 21
19.3696
  0
LINE
  8
0
 10
-5.20352
 20
19.3696
 11
-5.11523
 21
19.6413
  0
LINE
  8
0
 10
-5.11523
 20
19.6413
 11
-4.99359
 21
19.8998
  0
LINE
  8
0
 10
-4.99359
 20
19.8998
 11
-4.8405
 21
20.1411
  0
LINE
  8
0
 10
-4.8405
 20
20.1411
 11
-4.6584
 21
20.3612
  0
LINE
  8
0
 10
-4.6584
 20
20.3612
 11
-4.45013
 21
20.5568
  0
LINE
  8
0
 10
-4.45013
 20
20.5568
 11
-4.21899
 21
20.7247
  0
LINE
  8
0
 10
-4.21899
 20
20.7247
 11
-3.96864
 21
20.8623
  0
LINE
  8
0
 10
-3.96864
 20
20.8623
 11
-3.703
 21
20.9675
  0
LINE
  8
0
 10
-3.703
 20
20.9675
 11
-3.42628
 21
21.0386
  0
LINE
  8
0
 10
-3.42628
 20
21.0386
 11
-3.14284
 21
21.0744
  0
LINE
  8
0
 10
-3.14284
 20
21.0744
 11
-2.85715
 21
21.0744
  0
LINE
  8
0
 10
-2.85715
 20
21.0744
 11
-2.5737
 21
21.0386
  0
LINE
  8
0
 10
-2.5737
 20
21.0386
 11
-2.29698
 21
20.9675
  0
LINE
  8
0
 10
-2.29698
 20
20.9675
 11
-2.03134
 21
20.8623
  0
LINE
  8
0
 10
-2.03134
 20
20.8623
 11
-1.78099
 21
20.7247
  0
LINE
  8
0
 10
-1.78099
 20
20.7247
 11
-1.54985
 21
20.5568
  0
LINE
  8
0
 10
-1.54985
 20
20.5568
 11
-1.34158
 21
20.3612
  0
LINE
  8
0
 10
-1.34158
 20
20.3612
 11
-1.15948
 21
20.1411
  0
LINE
  8
0
 10
-1.15948
 20
20.1411
 11
-1.00639
 21
19.8998
  0
LINE
  8
0
 10
-1.00639
 20
19.8998
 11
-0.88475
 21
19.6413
  0
LINE
  8
0
 10
-0.88475
 20
19.6413
 11
-0.796463
 21
19.3696
  0
LINE
  8
0
 10
-0.796463
 20
19.3696
 11
-0.742935
 21
19.089
  0
LINE
  8
0
 10
-0.742935
 20
19.089
 11
-0.724991
 21
18.8038
  0
LINE
  8
0
 10
-0.724991
 20
18.8038
 11
-0.742935
 21
18.5187
  0
LINE
  8
0
 10
-0.742935
 20
18.5187
 11
-0.796463
 21
18.2381
  0
LINE
  8
0
 10
-0.796463
 20
18.2381
 11
-0.88475
 21
17.9664
  0
LINE
  8
0
 10
-0.88475
 20
17.9664
 11
-1.00639
 21
17.7079
  0
LINE
  8
0
 10
-1.00639
 20
17.7079
 11
-1.15948
 21
17.4666
  0
LINE
  8
0
 10
-1.15948
 20
17.4666
 11
-1.16766
 21
17.4568
  0
LINE
  8
0
 10
-1.16766
 20
17.4568
 11
-3.27916
 21
17.19
  0
LINE
  8
0
 10
-3.27916
 20
17.19
 11
-4.28581
 21
16.9315
  0
LINE
  8
0
 10
-4.28581
 20
16.9315
 11
-4.45013
 21
17.0509
  0
LINE
  8
0
 10
-3.13342
 20
3.07533
 11
-3.39818
 21
3.10878
  0
LINE
  8
0
 10
-3.39818
 20
3.10878
 11
-3.65665
 21
3.17516
  0
LINE
  8
0
 10
-3.65665
 20
3.17516
 11
-3.90477
 21
3.27339
  0
LINE
  8
0
 10
-3.90477
 20
3.27339
 11
-4.13863
 21
3.40195
  0
LINE
  8
0
 10
-4.13863
 20
3.40195
 11
-4.35452
 21
3.55881
  0
LINE
  8
0
 10
-4.35452
 20
3.55881
 11
-4.54906
 21
3.74149
  0
LINE
  8
0
 10
-4.54906
 20
3.74149
 11
-4.71915
 21
3.9471
  0
LINE
  8
0
 10
-4.71915
 20
3.9471
 11
-4.86214
 21
4.17242
  0
LINE
  8
0
 10
-4.86214
 20
4.17242
 11
-4.97577
 21
4.41388
  0
LINE
  8
0
 10
-4.97577
 20
4.41388
 11
-5.05823
 21
4.66768
  0
LINE
  8
0
 10
-5.05823
 20
4.66768
 11
-5.10823
 21
4.92981
  0
LINE
  8
0
 10
-5.10823
 20
4.92981
 11
-5.125
 21
5.19615
  0
LINE
  8
0
 10
-5.125
 20
5.19615
 11
-5.10823
 21
5.46248
  0
LINE
  8
0
 10
-5.10823
 20
5.46248
 11
-5.05823
 21
5.72461
  0
LINE
  8
0
 10
-5.05823
 20
5.72461
 11
-4.97577
 21
5.97841
  0
LINE
  8
0
 10
-4.97577
 20
5.97841
 11
-4.86214
 21
6.21986
  0
LINE
  8
0
 10
-4.86214
 20
6.21986
 11
-4.71915
 21
6.44519
  0
LINE
  8
0
 10
-4.71915
 20
6.44519
 11
-4.54906
 21
6.6508
  0
LINE
  8
0
 10
-4.54906
 20
6.6508
 11
-4.35452
 21
6.83348
  0
LINE
  8
0
 10
-4.35452
 20
6.83348
 11
-4.13863
 21
6.99034
  0
LINE
  8
0
 10
-4.13863
 20
6.99034
 11
-4.08864
 21
7.01782
  0
LINE
  8
0
 10
-4.08864
 20
7.01782
 11
-3.27916
 21
6.80998
  0
LINE
  8
0
 10
-3.27916
 20
6.80998
 11
-1.38463
 21
6.57065
  0
LINE
  8
0
 10
-1.38463
 20
6.57065
 11
-1.28084
 21
6.44519
  0
LINE
  8
0
 10
-1.28084
 20
6.44519
 11
-1.13785
 21
6.21986
  0
LINE
  8
0
 10
-1.13785
 20
6.21986
 11
-1.02422
 21
5.97841
  0
LINE
  8
0
 10
-1.02422
 20
5.97841
 11
-0.941757
 21
5.72461
  0
LINE
  8
0
 10
-0.941757
 20
5.72461
 11
-0.891754
 21
5.46248
  0
LINE
  8
0
 10
-0.891754
 20
5.46248
 11
-0.875
 21
5.19615
  0
LINE
  8
0
 10
-0.875
 20
5.19615
 11
-0.891754
 21
4.92981
  0
LINE
  8
0
 10
-0.891754
 20
4.92981
 11
-0.941757
 21
4.66768
  0
LINE
  8
0
 10
-0.941757
 20
4.66768
 11
-1.02422
 21
4.41388
  0
LINE
  8
0
 10
-1.02422
 20
4.41388
 11
-1.13785
 21
4.17242
  0
LINE
  8
0
 10
-1.13785
 20
4.17242
 11
-1.28084
 21
3.9471
  0
LINE
  8
0
 10
-1.28084
 20
3.9471
 11
-1.45093
 21
3.74149
  0
LINE
  8
0
 10
-1.45093
 20
3.74149
 11
-1.64546
 21
3.55881
  0
LINE
  8
0
 10
-1.64546
 20
3.55881
 11
-1.86136
 21
3.40195
  0
LINE
  8
0
 10
-1.86136
 20
3.40195
 11
-2.09521
 21
3.27339
  0
LINE
  8
0
 10
-2.09521
 20
3.27339
 11
-2.34334
 21
3.17516
  0
LINE
  8
0
 10
-2.34334
 20
3.17516
 11
-2.60181
 21
3.10878
  0
LINE
  8
0
 10
-2.60181
 20
3.10878
 11
-2.86656
 21
3.07533
  0
LINE
  8
0
 10
-2.86656
 20
3.07533
 11
-3.13342
 21
3.07533
  0
LINE
  8
0
 10
5.86656
 20
-2.1208
 11
5.60181
 21
-2.08736
  0
LINE
  8
0
 10
5.60181
 20
-2.08736
 11
5.34334
 21
-2.02098
  0
LINE
  8
0
 10
5.34334
 20
-2.02098
 11
5.09521
 21
-1.92274
  0
LINE
  8
0
 10
5.09521
 20
-1.92274
 11
4.86136
 21
-1.79419
  0
LINE
  8
0
 10
4.86136
 20
-1.79419
 11
4.64546
 21
-1.63733
  0
LINE
  8
0
 10
4.64546
 20
-1.63733
 11
4.45093
 21
-1.45465
  0
LINE
  8
0
 10
4.45093
 20
-1.45465
 11
4.28084
 21
-1.24904
  0
LINE
  8
0
 10
4.28084
 20
-1.24904
 11
4.13785
 21
-1.02371
  0
LINE
  8
0
 10
4.13785
 20
-1.02371
 11
4.02422
 21
-0.782257
  0
LINE
  8
0
 10
4.02422
 20
-0.782257
 11
3.94176
 21
-0.528458
  0
LINE
  8
0
 10
3.94176
 20
-0.528458
 11
3.89175
 21
-0.266327
  0
LINE
  8
0
 10
3.89175
 20
-0.266327
 11
3.875
 21
0
  0
LINE
  8
0
 10
3.875
 20
0
 11
3.89175
 21
0.266327
  0
LINE
  8
0
 10
3.89175
 20
0.266327
 11
3.94176
 21
0.528458
  0
LINE
  8
0
 10
3.94176
 20
0.528458
 11
4.02422
 21
0.782257
  0
LINE
  8
0
 10
4.02422
 20
0.782257
 11
4.13785
 21
1.02371
  0
LINE
  8
0
 10
4.13785
 20
1.02371
 11
4.28084
 21
1.24904
  0
LINE
  8
0
 10
4.28084
 20
1.24904
 11
4.45093
 21
1.45465
  0
LINE
  8
0
 10
4.45093
 20
1.45465
 11
4.64546
 21
1.63733
  0
LINE
  8
0
 10
4.64546
 20
1.63733
 11
4.86136
 21
1.79419
  0
LINE
  8
0
 10
4.86136
 20
1.79419
 11
5.09521
 21
1.92274
  0
LINE
  8
0
 10
5.09521
 20
1.92274
 11
5.34334
 21
2.02098
  0
LINE
  8
0
 10
5.34334
 20
2.02098
 11
5.60181
 21
2.08736
  0
LINE
  8
0
 10
5.60181
 20
2.08736
 11
5.86656
 21
2.1208
  0
LINE
  8
0
 10
5.86656
 20
2.1208
 11
6.13342
 21
2.1208
  0
LINE
  8
0
 10
6.13342
 20
2.1208
 11
6.39818
 21
2.08736
  0
LINE
  8
0
 10
6.39818
 20
2.08736
 11
6.65665
 21
2.02098
  0
LINE
  8
0
 10
6.65665
 20
2.02098
 11
6.90477
 21
1.92274
  0
LINE
  8
0
 10
6.90477
 20
1.92274
 11
7.13863
 21
1.79419
  0
LINE
  8
0
 10
7.13863
 20
1.79419
 11
7.35452
 21
1.63733
  0
LINE
  8
0
 10
7.35452
 20
1.63733
 11
7.54906
 21
1.45465
  0
LINE
  8
0
 10
7.54906
 20
1.45465
 11
7.71915
 21
1.24904
  0
LINE
  8
0
 10
7.71915
 20
1.24904
 11
7.86214
 21
1.02371
  0
LINE
  8
0
 10
7.86214
 20
1.02371
 11
7.97577
 21
0.782257
  0
LINE
  8
0
 10
7.97577
 20
0.782257
 11
8.05823
 21
0.528458
  0
LINE
  8
0
 10
8.05823
 20
0.528458
 11
8.10823
 21
0.266327
  0
LINE
  8
0
 10
8.10823
 20
0.266327
 11
8.125
 21
0
  0
LINE
  8
0
 10
8.125
 20
0
 11
8.10823
 21
-0.266327
  0
LINE
  8
0
 10
8.10823
 20
-0.266327
 11
8.05823
 21
-0.528458
  0
LINE
  8
0
 10
8.05823
 20
-0.528458
 11
7.97577
 21
-0.782257
  0
LINE
  8
0
 10
7.97577
 20
-0.782257
 11
7.86214
 21
-1.02371
  0
LINE
  8
0
 10
7.86214
 20
-1.02371
 11
7.71915
 21
-1.24904
  0
LINE
  8
0
 10
7.71915
 20
-1.24904
 11
7.54906
 21
-1.45465
  0
LINE
  8
0
 10
7.54906
 20
-1.45465
 11
7.35452
 21
-1.63733
  0
LINE
  8
0
 10
7.35452
 20
-1.63733
 11
7.13863
 21
-1.79419
  0
LINE
  8
0
 10
7.13863
 20
-1.79419
 11
6.90477
 21
-1.92274
  0
LINE
  8
0
 10
6.90477
 20
-1.92274
 11
6.65665
 21
-2.02098
  0
LINE
  8
0
 10
6.65665
 20
-2.02098
 11
6.39818
 21
-2.08736
  0
LINE
  8
0
 10
6.39818
 20
-2.08736
 11
6.13342
 21
-2.1208
  0
LINE
  8
0
 10
6.13342
 20
-2.1208
 11
5.86656
 21
-2.1208
  0
LINE
  8
0
 10
-3.13342
 20
-7.31696
 11
-3.39818
 21
-7.28351
  0
LINE
  8
0
 10
-3.39818
 20
-7.28351
 11
-3.65665
 21
-7.21713
  0
LINE
  8
0
 10
-3.65665
 20
-7.21713
 11
-3.90477
 21
-7.1189
  0
LINE
  8
0
 10
-3.90477
 20
-7.1189
 11
-4.13863
 21
-6.99034
  0
LINE
  8
0
 10
-4.13863
 20
-6.99034
 11
-4.35452
 21
-6.83348
  0
LINE
  8
0
 10
-4.35452
 20
-6.83348
 11
-4.54906
 21
-6.6508
  0
LINE
  8
0
 10
-4.54906
 20
-6.6508
 11
-4.71915
 21
-6.44519
  0
LINE
  8
0
 10
-4.71915
 20
-6.44519
 11
-4.86214
 21
-6.21986
  0
LINE
  8
0
 10
-4.86214
 20
-6.21986
 11
-4.97577
 21
-5.97841
  0
LINE
  8
0
 10
-4.97577
 20
-5.97841
 11
-5.05823
 21
-5.72461
  0
LINE
  8
0
 10
-5.05823
 20
-5.72461
 11
-5.10823
 21
-5.46248
  0
LINE
  8
0
 10
-5.10823
 20
-5.46248
 11
-5.125
 21
-5.19615
  0
LINE
  8
0
 10
-5.125
 20
-5.19615
 11
-5.10823
 21
-4.92981
  0
LINE
  8
0
 10
-5.10823
 20
-4.92981
 11
-5.05823
 21
-4.66768
  0
LINE
  8
0
 10
-5.05823
 20
-4.66768
 11
-4.97577
 21
-4.41388
  0
LINE
  8
0
 10
-4.97577
 20
-4.41388
 11
-4.86214
 21
-4.17242
  0
LINE
  8
0
 10
-4.86214
 20
-4.17242
 11
-4.71915
 21
-3.9471
  0
LINE
  8
0
 10
-4.71915
 20
-3.9471
 11
-4.54906
 21
-3.74149
  0
LINE
  8
0
 10
-4.54906
 20
-3.74149
 11
-4.35452
 21
-3.55881
  0
LINE
  8
0
 10
-4.35452
 20
-3.55881
 11
-4.13863
 21
-3.40195
  0
LINE
  8
0
 10
-4.13863
 20
-3.40195
 11
-3.90477
 21
-3.27339
  0
LINE
  8
0
 10
-3.90477
 20
-3.27339
 11
-3.65665
 21
-3.17516
  0
LINE
  8
0
 10
-3.65665
 20
-3.17516
 11
-3.39818
 21
-3.10878
  0
LINE
  8
0
 10
-3.39818
 20
-3.10878
 11
-3.13342
 21
-3.07533
  0
LINE
  8
0
 10
-3.13342
 20
-3.07533
 11
-2.86656
 21
-3.07533
  0
LINE
  8
0
 10
-2.86656
 20
-3.07533
 11
-2.60181
 21
-3.10878
  0
LINE
  8
0
 10
-2.60181
 20
-3.10878
 11
-2.34334
 21
-3.17516
  0
LINE
  8
0
 10
-2.34334
 20
-3.17516
 11
-2.09521
 21
-3.27339
  0
LINE
  8
0
 10
-2.09521
 20
-3.27339
 11
-1.86136
 21
-3.40195
  0
LINE
  8
0
 10
-1.86136
 20
-3.40195
 11
-1.64546
 21
-3.55881
  0
LINE
  8
0
 10
-1.64546
 20
-3.55881
 11
-1.45093
 21
-3.74149
  0
LINE
  8
0
 10
-1.45093
 20
-3.74149
 11
-1.28084
 21
-3.9471
  0
LINE
  8
0
 10
-1.28084
 20
-3.9471
 11
-1.13785
 21
-4.17242
  0
LINE
  8
0
 10
-1.13785
 20
-4.17242
 11
-1.02422
 21
-4.41388
  0
LINE
  8
0
 10
-1.02422
 20
-4.41388
 11
-0.941757
 21
-4.66768
  0
LINE
  8
0
 10
-0.941757
 20
-4.66768
 11
-0.891754
 21
-4.92981
  0
LINE
  8
0
 10
-0.891754
 20
-4.92981
 11
-0.875
 21
-5.19615
  0
LINE
  8
0
 10
-0.875
 20
-5.19615
 11
-0.891754
 21
-5.46248
  0
LINE
  8
0
 10
-0.891754
 20
-5.46248
 11
-0.941757
 21
-5.72461
  0
LINE
  8
0
 10
-0.941757
 20
-5.72461
 11
-1.02422
 21
-5.97841
  0
LINE
  8
0
 10
-1.02422
 20
-5.97841
 11
-1.13785
 21
-6.21986
  0
LINE
  8
0
 10
-1.13785
 20
-6.21986
 11
-1.28084
 21
-6.44519
  0
LINE
  8
0
 10
-1.28084
 20
-6.44519
 11
-1.45093
 21
-6.6508
  0
LINE
  8
0
 10
-1.45093
 20
-6.6508
 11
-1.64546
 21
-6.83348
  0
LINE
  8
0
 10
-1.64546
 20
-6.83348
 11
-1.86136
 21
-6.99034
  0
LINE
  8
0
 10
-1.86136
 20
-6.99034
 11
-2.09521
 21
-7.1189
  0
LINE
  8
0
 10
-2.09521
 20
-7.1189
 11
-2.34334
 21
-7.21713
  0
LINE
  8
0
 10
-2.34334
 20
-7.21713
 11
-2.60181
 21
-7.28351
  0
LINE
  8
0
 10
-2.60181
 20
-7.28351
 11
-2.86656
 21
-7.31696
  0
LINE
  8
0
 10
-2.86656
 20
-7.31696
 11
-3.13342
 21
-7.31696
  0
ENDSEC
  0
SECTION
  2
OBJECTS
  0
DICTIONARY
  0
ENDSEC
  0
EOF
