<?xml version="1.0" standalone="no"?>
<!DOCTYPE svg PUBLIC "-//W3C//DTD SVG 1.1//EN" "http://www.w3.org/Graphics/SVG/1.1/DTD/svg11.dtd">
<svg width="36mm" height="316mm" viewBox="-18 -306 36 316" xmlns="http://www.w3.org/2000/svg" version="1.1">
<title>OpenSCAD Model</title>
<path d="
M 1.87381,-230.177 L 3.09016,-230.489 L 4.25778,-230.952 L 5.35826,-231.557 L 6.37424,-232.295 L 7.28967,-233.155
 L 8.09016,-234.122 L 8.76306,-235.182 L 9.29776,-236.319 L 9.68582,-237.513 L 9.92114,-238.747 L 10,-240
 L 9.92114,-241.253 L 9.68582,-242.487 L 9.29776,-243.681 L 8.76306,-244.818 L 8.09016,-245.878 L 7.28967,-246.845
 L 6.37424,-247.705 L 6.34392,-247.727 L 7.45113,-248.166 L 9.37697,-249.224 L 11.1549,-250.516 L 12.7569,-252.02
 L 14.1578,-253.714 L 15.3354,-255.569 L 16.2711,-257.558 L 16.9502,-259.648 L 17.362,-261.807 L 17.5,-264
 L 17.362,-266.193 L 16.9502,-268.352 L 16.2711,-270.442 L 15.3354,-272.431 L 14.1578,-274.286 L 12.7569,-275.98
 L 12.7352,-276 L 12.7569,-276.02 L 14.1578,-277.714 L 15.3354,-279.569 L 16.2711,-281.558 L 16.9502,-283.648
 L 17.362,-285.807 L 17.5,-288 L 17.362,-290.193 L 16.9502,-292.352 L 16.2711,-294.442 L 15.3354,-296.431
 L 14.1578,-298.286 L 12.7569,-299.98 L 11.1549,-301.484 L 9.37697,-302.776 L 7.45113,-303.834 L 5.40779,-304.643
 L 3.27916,-305.19 L 1.09883,-305.465 L -1.09883,-305.465 L -3.27916,-305.19 L -5.40779,-304.643 L -7.45113,-303.834
 L -9.37697,-302.776 L -11.1549,-301.484 L -12.7569,-299.98 L -14.1578,-298.286 L -15.3354,-296.431 L -16.2711,-294.442
 L -16.9502,-292.352 L -17.362,-290.193 L -17.5,-288 L -17.362,-285.807 L -16.9502,-283.648 L -16.2711,-281.558
 L -15.3354,-279.569 L -14.1578,-277.714 L -12.7569,-276.02 L -12.7352,-276 L -12.7569,-275.98 L -14.1578,-274.286
 L -15.3354,-272.431 L -16.2711,-270.442 L -16.9502,-268.352 L -17.362,-266.193 L -17.5,-264 L -17.362,-261.807
 L -16.9502,-259.648 L -16.2711,-257.558 L -15.3354,-255.569 L -14.1578,-253.714 L -12.7569,-252.02 L -11.1549,-250.516
 L -9.37697,-249.224 L -7.45113,-248.166 L -6.34392,-247.727 L -6.37424,-247.705 L -7.28967,-246.845 L -8.09016,-245.878
 L -8.76306,-244.818 L -9.29776,-243.681 L -9.68582,-242.487 L -9.92114,-241.253 L -10,-240 L -9.92114,-238.747
 L -9.68582,-237.513 L -9.29776,-236.319 L -8.76306,-235.182 L -8.09016,-234.122 L -7.28967,-233.155 L -6.37424,-232.295
 L -5.35826,-231.557 L -4.25778,-230.952 L -3.09016,-230.489 L -1.87381,-230.177 L -0.627899,-230.02 L 0.627899,-230.02
 z
M -3.20799,-289.89 L -3.6207,-289.942 L -4.02361,-290.046 L -4.41039,-290.199 L -4.77492,-290.399 L -5.11147,-290.644
 L -5.4147,-290.929 L -5.67986,-291.249 L -5.90276,-291.6 L -6.07988,-291.977 L -6.20842,-292.372 L -6.28638,-292.781
 L -6.3125,-293.196 L -6.28638,-293.611 L -6.20842,-294.02 L -6.07988,-294.416 L -5.90276,-294.792 L -5.67986,-295.143
 L -5.4147,-295.464 L -5.11147,-295.748 L -4.77492,-295.993 L -4.41039,-296.193 L -4.02361,-296.347 L -3.6207,-296.45
 L -3.20799,-296.502 L -2.79199,-296.502 L -2.37929,-296.45 L -1.97638,-296.347 L -1.5896,-296.193 L -1.22507,-295.993
 L -0.888519,-295.748 L -0.585281,-295.464 L -0.320129,-295.143 L -0.097229,-294.792 L 0.0798798,-294.416 L 0.20842,-294.02
 L 0.286377,-293.611 L 0.312485,-293.196 L 0.286377,-292.781 L 0.20842,-292.372 L 0.0798798,-291.977 L -0.097229,-291.6
 L -0.320129,-291.249 L -0.585281,-290.929 L -0.888519,-290.644 L -1.22507,-290.399 L -1.5896,-290.199 L -1.97638,-290.046
 L -2.37929,-289.942 L -2.79199,-289.89 z
M 5.79199,-284.694 L 5.37929,-284.746 L 4.97638,-284.85 L 4.5896,-285.003 L 4.22507,-285.203 L 3.88852,-285.448
 L 3.58528,-285.732 L 3.32013,-286.053 L 3.09723,-286.404 L 2.9201,-286.781 L 2.79156,-287.176 L 2.71361,-287.585
 L 2.6875,-288 L 2.71361,-288.415 L 2.79156,-288.824 L 2.9201,-289.219 L 3.09723,-289.596 L 3.32013,-289.947
 L 3.58528,-290.268 L 3.88852,-290.552 L 4.22507,-290.797 L 4.5896,-290.997 L 4.97638,-291.15 L 5.37929,-291.254
 L 5.79199,-291.306 L 6.20799,-291.306 L 6.6207,-291.254 L 7.02361,-291.15 L 7.41039,-290.997 L 7.77492,-290.797
 L 8.11147,-290.552 L 8.4147,-290.268 L 8.67986,-289.947 L 8.90276,-289.596 L 9.07988,-289.219 L 9.20842,-288.824
 L 9.28638,-288.415 L 9.3125,-288 L 9.28638,-287.585 L 9.20842,-287.176 L 9.07988,-286.781 L 8.90276,-286.404
 L 8.67986,-286.053 L 8.4147,-285.732 L 8.11147,-285.448 L 7.77492,-285.203 L 7.41039,-285.003 L 7.02361,-284.85
 L 6.6207,-284.746 L 6.20799,-284.694 z
M -5.67986,-280.857 L -5.90276,-281.208 L -6.07988,-281.584 L -6.20842,-281.98 L -6.28638,-282.389 L -6.3125,-282.804
 L -6.28638,-283.219 L -6.20842,-283.628 L -6.07988,-284.023 L -5.90276,-284.4 L -5.67986,-284.751 L -5.4147,-285.071
 L -5.11147,-285.356 L -4.77492,-285.601 L -4.41039,-285.801 L -4.02361,-285.954 L -3.6207,-286.058 L -3.20799,-286.11
 L -2.79199,-286.11 L -2.37929,-286.058 L -1.97638,-285.954 L -1.5896,-285.801 L -1.22507,-285.601 L -0.888519,-285.356
 L -0.585281,-285.071 L -0.320129,-284.751 L -0.097229,-284.4 L 0.0798798,-284.023 L 0.20842,-283.628 L 0.286377,-283.219
 L 0.312485,-282.804 L 0.286377,-282.389 L 0.20842,-281.98 L 0.0798798,-281.584 L 0.0238953,-281.465 L -1.09883,-281.465
 L -3.27916,-281.19 L -5.40779,-280.643 L -5.4798,-280.615 z
M -3.15697,-266.701 L -3.46844,-266.74 L -3.77254,-266.818 L -4.06444,-266.934 L -4.33955,-267.085 L -4.59355,-267.27
 L -4.82242,-267.485 L -5.02254,-267.727 L -5.19077,-267.992 L -5.32443,-268.276 L -5.42145,-268.574 L -5.48029,-268.883
 L -5.5,-269.196 L -5.48029,-269.509 L -5.42145,-269.818 L -5.32443,-270.116 L -5.19077,-270.401 L -5.02254,-270.666
 L -4.82242,-270.908 L -4.59355,-271.122 L -4.56808,-271.141 L -3.27916,-270.81 L -1.09883,-270.535 L -0.894272,-270.535
 L -0.809219,-270.401 L -0.675552,-270.116 L -0.578537,-269.818 L -0.519699,-269.509 L -0.5,-269.196 L -0.519699,-268.883
 L -0.578537,-268.574 L -0.675552,-268.276 L -0.809219,-267.992 L -0.977448,-267.727 L -1.17757,-267.485 L -1.40643,-267.27
 L -1.66043,-267.085 L -1.93555,-266.934 L -2.22745,-266.818 L -2.53154,-266.74 L -2.84302,-266.701 z
M 5.84302,-261.505 L 5.53154,-261.544 L 5.22745,-261.622 L 4.93555,-261.738 L 4.66043,-261.889 L 4.40643,-262.074
 L 4.17757,-262.289 L 3.97745,-262.531 L 3.80922,-262.796 L 3.67555,-263.08 L 3.57854,-263.378 L 3.5197,-263.687
 L 3.5,-264 L 3.5197,-264.313 L 3.57854,-264.622 L 3.67555,-264.92 L 3.80922,-265.204 L 3.97745,-265.469
 L 4.17757,-265.711 L 4.40643,-265.926 L 4.66043,-266.111 L 4.93555,-266.262 L 5.22745,-266.378 L 5.53154,-266.456
 L 5.84302,-266.495 L 6.15697,-266.495 L 6.46844,-266.456 L 6.77254,-266.378 L 7.06444,-266.262 L 7.33955,-266.111
 L 7.59355,-265.926 L 7.82242,-265.711 L 8.02254,-265.469 L 8.19077,-265.204 L 8.32443,-264.92 L 8.42145,-264.622
 L 8.48029,-264.313 L 8.5,-264 L 8.48029,-263.687 L 8.42145,-263.378 L 8.32443,-263.08 L 8.19077,-262.796
 L 8.02254,-262.531 L 7.82242,-262.289 L 7.59355,-262.074 L 7.33955,-261.889 L 7.06444,-261.738 L 6.77254,-261.622
 L 6.46844,-261.544 L 6.15697,-261.505 z
M -3.15697,-256.309 L -3.46844,-256.348 L -3.77254,-256.426 L -4.06444,-256.542 L -4.33955,-256.693 L -4.59355,-256.878
 L -4.82242,-257.092 L -5.02254,-257.334 L -5.19077,-257.599 L -5.32443,-257.884 L -5.42145,-258.182 L -5.48029,-258.491
 L -5.5,-258.804 L -5.48029,-259.117 L -5.42145,-259.426 L -5.32443,-259.724 L -5.19077,-260.008 L -5.02254,-260.273
 L -4.82242,-260.515 L -4.59355,-260.73 L -4.33955,-260.915 L -4.06444,-261.066 L -3.77254,-261.182 L -3.46844,-261.26
 L -3.15697,-261.299 L -2.84302,-261.299 L -2.53154,-261.26 L -2.22745,-261.182 L -1.93555,-261.066 L -1.66043,-260.915
 L -1.40643,-260.73 L -1.17757,-260.515 L -0.977448,-260.273 L -0.809219,-260.008 L -0.675552,-259.724 L -0.578537,-259.426
 L -0.519699,-259.117 L -0.5,-258.804 L -0.519699,-258.491 L -0.578537,-258.182 L -0.675552,-257.884 L -0.809219,-257.599
 L -0.977448,-257.334 L -1.17757,-257.092 L -1.40643,-256.878 L -1.66043,-256.693 L -1.93555,-256.542 L -2.22745,-256.426
 L -2.53154,-256.348 L -2.84302,-256.309 z
M -3.15697,-242.701 L -3.46844,-242.74 L -3.77254,-242.818 L -4.06444,-242.934 L -4.33955,-243.085 L -4.59355,-243.27
 L -4.82242,-243.485 L -5.02254,-243.727 L -5.19077,-243.992 L -5.32443,-244.276 L -5.42145,-244.574 L -5.48029,-244.883
 L -5.5,-245.196 L -5.48029,-245.509 L -5.42145,-245.818 L -5.32443,-246.116 L -5.19077,-246.401 L -5.02254,-246.666
 L -4.82242,-246.908 L -4.59355,-247.122 L -4.56808,-247.141 L -3.27916,-246.81 L -1.09883,-246.535 L -0.894272,-246.535
 L -0.809219,-246.401 L -0.675552,-246.116 L -0.578537,-245.818 L -0.519699,-245.509 L -0.5,-245.196 L -0.519699,-244.883
 L -0.578537,-244.574 L -0.675552,-244.276 L -0.809219,-243.992 L -0.977448,-243.727 L -1.17757,-243.485 L -1.40643,-243.27
 L -1.66043,-243.085 L -1.93555,-242.934 L -2.22745,-242.818 L -2.53154,-242.74 L -2.84302,-242.701 z
M 5.84302,-237.505 L 5.53154,-237.544 L 5.22745,-237.622 L 4.93555,-237.738 L 4.66043,-237.889 L 4.40643,-238.074
 L 4.17757,-238.289 L 3.97745,-238.531 L 3.80922,-238.796 L 3.67555,-239.08 L 3.57854,-239.378 L 3.5197,-239.687
 L 3.5,-240 L 3.5197,-240.313 L 3.57854,-240.622 L 3.67555,-240.92 L 3.80922,-241.204 L 3.97745,-241.469
 L 4.17757,-241.711 L 4.40643,-241.926 L 4.66043,-242.111 L 4.93555,-242.262 L 5.22745,-242.378 L 5.53154,-242.456
 L 5.84302,-242.495 L 6.15697,-242.495 L 6.46844,-242.456 L 6.77254,-242.378 L 7.06444,-242.262 L 7.33955,-242.111
 L 7.59355,-241.926 L 7.82242,-241.711 L 8.02254,-241.469 L 8.19077,-241.204 L 8.32443,-240.92 L 8.42145,-240.622
 L 8.48029,-240.313 L 8.5,-240 L 8.48029,-239.687 L 8.42145,-239.378 L 8.32443,-239.08 L 8.19077,-238.796
 L 8.02254,-238.531 L 7.82242,-238.289 L 7.59355,-238.074 L 7.33955,-237.889 L 7.06444,-237.738 L 6.77254,-237.622
 L 6.46844,-237.544 L 6.15697,-237.505 z
M -3.15697,-232.309 L -3.46844,-232.348 L -3.77254,-232.426 L -4.06444,-232.542 L -4.33955,-232.693 L -4.59355,-232.878
 L -4.82242,-233.092 L -5.02254,-233.334 L -5.19077,-233.599 L -5.32443,-233.884 L -5.42145,-234.182 L -5.48029,-234.491
 L -5.5,-234.804 L -5.48029,-235.117 L -5.42145,-235.426 L -5.32443,-235.724 L -5.19077,-236.008 L -5.02254,-236.273
 L -4.82242,-236.515 L -4.59355,-236.73 L -4.33955,-236.915 L -4.06444,-237.066 L -3.77254,-237.182 L -3.46844,-237.26
 L -3.15697,-237.299 L -2.84302,-237.299 L -2.53154,-237.26 L -2.22745,-237.182 L -1.93555,-237.066 L -1.66043,-236.915
 L -1.40643,-236.73 L -1.17757,-236.515 L -0.977448,-236.273 L -0.809219,-236.008 L -0.675552,-235.724 L -0.578537,-235.426
 L -0.519699,-235.117 L -0.5,-234.804 L -0.519699,-234.491 L -0.578537,-234.182 L -0.675552,-233.884 L -0.809219,-233.599
 L -0.977448,-233.334 L -1.17757,-233.092 L -1.40643,-232.878 L -1.66043,-232.693 L -1.93555,-232.542 L -2.22745,-232.426
 L -2.53154,-232.348 L -2.84302,-232.309 z
M 1.87381,-206.177 L 3.09016,-206.489 L 4.25778,-206.952 L 5.35826,-207.557 L 6.37424,-208.295 L 7.28967,-209.155
 L 8.09016,-210.122 L 8.76306,-211.182 L 9.29776,-212.319 L 9.68582,-213.513 L 9.92114,-214.747 L 10,-216
 L 9.92114,-217.253 L 9.68582,-218.487 L 9.29776,-219.681 L 8.76306,-220.818 L 8.09016,-221.878 L 7.28967,-222.845
 L 6.37424,-223.705 L 5.35826,-224.443 L 4.25778,-225.048 L 3.09016,-225.511 L 1.87381,-225.823 L 0.627899,-225.98
 L -0.627899,-225.98 L -1.87381,-225.823 L -3.09016,-225.511 L -4.25778,-225.048 L -5.35826,-224.443 L -6.37424,-223.705
 L -7.28967,-222.845 L -8.09016,-221.878 L -8.76306,-220.818 L -9.29776,-219.681 L -9.68582,-218.487 L -9.92114,-217.253
 L -10,-216 L -9.92114,-214.747 L -9.68582,-213.513 L -9.29776,-212.319 L -8.76306,-211.182 L -8.09016,-210.122
 L -7.28967,-209.155 L -6.37424,-208.295 L -5.35826,-207.557 L -4.25778,-206.952 L -3.09016,-206.489 L -1.87381,-206.177
 L -0.627899,-206.02 L 0.627899,-206.02 z
M -3.15697,-218.701 L -3.46844,-218.74 L -3.77254,-218.818 L -4.06444,-218.934 L -4.33955,-219.085 L -4.59355,-219.27
 L -4.82242,-219.485 L -5.02254,-219.727 L -5.19077,-219.992 L -5.32443,-220.276 L -5.42145,-220.574 L -5.48029,-220.883
 L -5.5,-221.196 L -5.48029,-221.509 L -5.42145,-221.818 L -5.32443,-222.116 L -5.19077,-222.401 L -5.02254,-222.666
 L -4.82242,-222.908 L -4.59355,-223.122 L -4.33955,-223.307 L -4.06444,-223.458 L -3.77254,-223.574 L -3.46844,-223.652
 L -3.15697,-223.691 L -2.84302,-223.691 L -2.53154,-223.652 L -2.22745,-223.574 L -1.93555,-223.458 L -1.66043,-223.307
 L -1.40643,-223.122 L -1.17757,-222.908 L -0.977448,-222.666 L -0.809219,-222.401 L -0.675552,-222.116 L -0.578537,-221.818
 L -0.519699,-221.509 L -0.5,-221.196 L -0.519699,-220.883 L -0.578537,-220.574 L -0.675552,-220.276 L -0.809219,-219.992
 L -0.977448,-219.727 L -1.17757,-219.485 L -1.40643,-219.27 L -1.66043,-219.085 L -1.93555,-218.934 L -2.22745,-218.818
 L -2.53154,-218.74 L -2.84302,-218.701 z
M 5.84302,-213.505 L 5.53154,-213.544 L 5.22745,-213.622 L 4.93555,-213.738 L 4.66043,-213.889 L 4.40643,-214.074
 L 4.17757,-214.289 L 3.97745,-214.531 L 3.80922,-214.796 L 3.67555,-215.08 L 3.57854,-215.378 L 3.5197,-215.687
 L 3.5,-216 L 3.5197,-216.313 L 3.57854,-216.622 L 3.67555,-216.92 L 3.80922,-217.204 L 3.97745,-217.469
 L 4.17757,-217.711 L 4.40643,-217.926 L 4.66043,-218.111 L 4.93555,-218.262 L 5.22745,-218.378 L 5.53154,-218.456
 L 5.84302,-218.495 L 6.15697,-218.495 L 6.46844,-218.456 L 6.77254,-218.378 L 7.06444,-218.262 L 7.33955,-218.111
 L 7.59355,-217.926 L 7.82242,-217.711 L 8.02254,-217.469 L 8.19077,-217.204 L 8.32443,-216.92 L 8.42145,-216.622
 L 8.48029,-216.313 L 8.5,-216 L 8.48029,-215.687 L 8.42145,-215.378 L 8.32443,-215.08 L 8.19077,-214.796
 L 8.02254,-214.531 L 7.82242,-214.289 L 7.59355,-214.074 L 7.33955,-213.889 L 7.06444,-213.738 L 6.77254,-213.622
 L 6.46844,-213.544 L 6.15697,-213.505 z
M -3.15697,-208.309 L -3.46844,-208.348 L -3.77254,-208.426 L -4.06444,-208.542 L -4.33955,-208.693 L -4.59355,-208.878
 L -4.82242,-209.092 L -5.02254,-209.334 L -5.19077,-209.599 L -5.32443,-209.884 L -5.42145,-210.182 L -5.48029,-210.491
 L -5.5,-210.804 L -5.48029,-211.117 L -5.42145,-211.426 L -5.32443,-211.724 L -5.19077,-212.008 L -5.02254,-212.273
 L -4.82242,-212.515 L -4.59355,-212.73 L -4.33955,-212.915 L -4.06444,-213.066 L -3.77254,-213.182 L -3.46844,-213.26
 L -3.15697,-213.299 L -2.84302,-213.299 L -2.53154,-213.26 L -2.22745,-213.182 L -1.93555,-213.066 L -1.66043,-212.915
 L -1.40643,-212.73 L -1.17757,-212.515 L -0.977448,-212.273 L -0.809219,-212.008 L -0.675552,-211.724 L -0.578537,-211.426
 L -0.519699,-211.117 L -0.5,-210.804 L -0.519699,-210.491 L -0.578537,-210.182 L -0.675552,-209.884 L -0.809219,-209.599
 L -0.977448,-209.334 L -1.17757,-209.092 L -1.40643,-208.878 L -1.66043,-208.693 L -1.93555,-208.542 L -2.22745,-208.426
 L -2.53154,-208.348 L -2.84302,-208.309 z
M 1.87381,-182.177 L 3.09016,-182.489 L 4.25778,-182.952 L 5.35826,-183.557 L 6.37424,-184.295 L 7.28967,-185.155
 L 8.09016,-186.122 L 8.76306,-187.182 L 9.29776,-188.319 L 9.68582,-189.513 L 9.92114,-190.747 L 10,-192
 L 9.92114,-193.253 L 9.68582,-194.487 L 9.29776,-195.681 L 8.76306,-196.818 L 8.09016,-197.878 L 7.28967,-198.845
 L 6.37424,-199.705 L 5.35826,-200.443 L 4.25778,-201.048 L 3.09016,-201.511 L 1.87381,-201.823 L 0.627899,-201.98
 L -0.627899,-201.98 L -1.87381,-201.823 L -3.09016,-201.511 L -4.25778,-201.048 L -5.35826,-200.443 L -6.37424,-199.705
 L -7.28967,-198.845 L -8.09016,-197.878 L -8.76306,-196.818 L -9.29776,-195.681 L -9.68582,-194.487 L -9.92114,-193.253
 L -10,-192 L -9.92114,-190.747 L -9.68582,-189.513 L -9.29776,-188.319 L -8.76306,-187.182 L -8.09016,-186.122
 L -7.28967,-185.155 L -6.37424,-184.295 L -5.35826,-183.557 L -4.25778,-182.952 L -3.09016,-182.489 L -1.87381,-182.177
 L -0.627899,-182.02 L 0.627899,-182.02 z
M -3.15697,-194.701 L -3.46844,-194.74 L -3.77254,-194.818 L -4.06444,-194.934 L -4.33955,-195.085 L -4.59355,-195.27
 L -4.82242,-195.485 L -5.02254,-195.727 L -5.19077,-195.992 L -5.32443,-196.276 L -5.42145,-196.574 L -5.48029,-196.883
 L -5.5,-197.196 L -5.48029,-197.509 L -5.42145,-197.818 L -5.32443,-198.116 L -5.19077,-198.401 L -5.02254,-198.666
 L -4.82242,-198.908 L -4.59355,-199.122 L -4.33955,-199.307 L -4.06444,-199.458 L -3.77254,-199.574 L -3.46844,-199.652
 L -3.15697,-199.691 L -2.84302,-199.691 L -2.53154,-199.652 L -2.22745,-199.574 L -1.93555,-199.458 L -1.66043,-199.307
 L -1.40643,-199.122 L -1.17757,-198.908 L -0.977448,-198.666 L -0.809219,-198.401 L -0.675552,-198.116 L -0.578537,-197.818
 L -0.519699,-197.509 L -0.5,-197.196 L -0.519699,-196.883 L -0.578537,-196.574 L -0.675552,-196.276 L -0.809219,-195.992
 L -0.977448,-195.727 L -1.17757,-195.485 L -1.40643,-195.27 L -1.66043,-195.085 L -1.93555,-194.934 L -2.22745,-194.818
 L -2.53154,-194.74 L -2.84302,-194.701 z
M 5.84302,-189.505 L 5.53154,-189.544 L 5.22745,-189.622 L 4.93555,-189.738 L 4.66043,-189.889 L 4.40643,-190.074
 L 4.17757,-190.289 L 3.97745,-190.531 L 3.80922,-190.796 L 3.67555,-191.08 L 3.57854,-191.378 L 3.5197,-191.687
 L 3.5,-192 L 3.5197,-192.313 L 3.57854,-192.622 L 3.67555,-192.92 L 3.80922,-193.204 L 3.97745,-193.469
 L 4.17757,-193.711 L 4.40643,-193.926 L 4.66043,-194.111 L 4.93555,-194.262 L 5.22745,-194.378 L 5.53154,-194.456
 L 5.84302,-194.495 L 6.15697,-194.495 L 6.46844,-194.456 L 6.77254,-194.378 L 7.06444,-194.262 L 7.33955,-194.111
 L 7.59355,-193.926 L 7.82242,-193.711 L 8.02254,-193.469 L 8.19077,-193.204 L 8.32443,-192.92 L 8.42145,-192.622
 L 8.48029,-192.313 L 8.5,-192 L 8.48029,-191.687 L 8.42145,-191.378 L 8.32443,-191.08 L 8.19077,-190.796
 L 8.02254,-190.531 L 7.82242,-190.289 L 7.59355,-190.074 L 7.33955,-189.889 L 7.06444,-189.738 L 6.77254,-189.622
 L 6.46844,-189.544 L 6.15697,-189.505 z
M -3.15697,-184.309 L -3.46844,-184.348 L -3.77254,-184.426 L -4.06444,-184.542 L -4.33955,-184.693 L -4.59355,-184.878
 L -4.82242,-185.092 L -5.02254,-185.334 L -5.19077,-185.599 L -5.32443,-185.884 L -5.42145,-186.182 L -5.48029,-186.491
 L -5.5,-186.804 L -5.48029,-187.117 L -5.42145,-187.426 L -5.32443,-187.724 L -5.19077,-188.008 L -5.02254,-188.273
 L -4.82242,-188.515 L -4.59355,-188.73 L -4.33955,-188.915 L -4.06444,-189.066 L -3.77254,-189.182 L -3.46844,-189.26
 L -3.15697,-189.299 L -2.84302,-189.299 L -2.53154,-189.26 L -2.22745,-189.182 L -1.93555,-189.066 L -1.66043,-188.915
 L -1.40643,-188.73 L -1.17757,-188.515 L -0.977448,-188.273 L -0.809219,-188.008 L -0.675552,-187.724 L -0.578537,-187.426
 L -0.519699,-187.117 L -0.5,-186.804 L -0.519699,-186.491 L -0.578537,-186.182 L -0.675552,-185.884 L -0.809219,-185.599
 L -0.977448,-185.334 L -1.17757,-185.092 L -1.40643,-184.878 L -1.66043,-184.693 L -1.93555,-184.542 L -2.22745,-184.426
 L -2.53154,-184.348 L -2.84302,-184.309 z
M 1.87381,-158.177 L 3.09016,-158.489 L 4.25778,-158.952 L 5.35826,-159.557 L 6.37424,-160.295 L 7.28967,-161.155
 L 8.09016,-162.122 L 8.76306,-163.182 L 9.29776,-164.319 L 9.68582,-165.513 L 9.92114,-166.747 L 10,-168
 L 9.92114,-169.253 L 9.68582,-170.487 L 9.29776,-171.681 L 8.76306,-172.818 L 8.09016,-173.878 L 7.28967,-174.845
 L 6.37424,-175.705 L 5.35826,-176.443 L 4.25778,-177.048 L 3.09016,-177.511 L 1.87381,-177.823 L 0.627899,-177.98
 L -0.627899,-177.98 L -1.87381,-177.823 L -3.09016,-177.511 L -4.25778,-177.048 L -5.35826,-176.443 L -6.37424,-175.705
 L -7.28967,-174.845 L -8.09016,-173.878 L -8.76306,-172.818 L -9.29776,-171.681 L -9.68582,-170.487 L -9.92114,-169.253
 L -10,-168 L -9.92114,-166.747 L -9.68582,-165.513 L -9.29776,-164.319 L -8.76306,-163.182 L -8.09016,-162.122
 L -7.28967,-161.155 L -6.37424,-160.295 L -5.35826,-159.557 L -4.25778,-158.952 L -3.09016,-158.489 L -1.87381,-158.177
 L -0.627899,-158.02 L 0.627899,-158.02 z
M -3.15697,-170.701 L -3.46844,-170.74 L -3.77254,-170.818 L -4.06444,-170.934 L -4.33955,-171.085 L -4.59355,-171.27
 L -4.82242,-171.485 L -5.02254,-171.727 L -5.19077,-171.992 L -5.32443,-172.276 L -5.42145,-172.574 L -5.48029,-172.883
 L -5.5,-173.196 L -5.48029,-173.509 L -5.42145,-173.818 L -5.32443,-174.116 L -5.19077,-174.401 L -5.02254,-174.666
 L -4.82242,-174.908 L -4.59355,-175.122 L -4.33955,-175.307 L -4.06444,-175.458 L -3.77254,-175.574 L -3.46844,-175.652
 L -3.15697,-175.691 L -2.84302,-175.691 L -2.53154,-175.652 L -2.22745,-175.574 L -1.93555,-175.458 L -1.66043,-175.307
 L -1.40643,-175.122 L -1.17757,-174.908 L -0.977448,-174.666 L -0.809219,-174.401 L -0.675552,-174.116 L -0.578537,-173.818
 L -0.519699,-173.509 L -0.5,-173.196 L -0.519699,-172.883 L -0.578537,-172.574 L -0.675552,-172.276 L -0.809219,-171.992
 L -0.977448,-171.727 L -1.17757,-171.485 L -1.40643,-171.27 L -1.66043,-171.085 L -1.93555,-170.934 L -2.22745,-170.818
 L -2.53154,-170.74 L -2.84302,-170.701 z
M 5.84302,-165.505 L 5.53154,-165.544 L 5.22745,-165.622 L 4.93555,-165.738 L 4.66043,-165.889 L 4.40643,-166.074
 L 4.17757,-166.289 L 3.97745,-166.531 L 3.80922,-166.796 L 3.67555,-167.08 L 3.57854,-167.378 L 3.5197,-167.687
 L 3.5,-168 L 3.5197,-168.313 L 3.57854,-168.622 L 3.67555,-168.92 L 3.80922,-169.204 L 3.97745,-169.469
 L 4.17757,-169.711 L 4.40643,-169.926 L 4.66043,-170.111 L 4.93555,-170.262 L 5.22745,-170.378 L 5.53154,-170.456
 L 5.84302,-170.495 L 6.15697,-170.495 L 6.46844,-170.456 L 6.77254,-170.378 L 7.06444,-170.262 L 7.33955,-170.111
 L 7.59355,-169.926 L 7.82242,-169.711 L 8.02254,-169.469 L 8.19077,-169.204 L 8.32443,-168.92 L 8.42145,-168.622
 L 8.48029,-168.313 L 8.5,-168 L 8.48029,-167.687 L 8.42145,-167.378 L 8.32443,-167.08 L 8.19077,-166.796
 L 8.02254,-166.531 L 7.82242,-166.289 L 7.59355,-166.074 L 7.33955,-165.889 L 7.06444,-165.738 L 6.77254,-165.622
 L 6.46844,-165.544 L 6.15697,-165.505 z
M -3.15697,-160.309 L -3.46844,-160.348 L -3.77254,-160.426 L -4.06444,-160.542 L -4.33955,-160.693 L -4.59355,-160.878
 L -4.82242,-161.092 L -5.02254,-161.334 L -5.19077,-161.599 L -5.32443,-161.884 L -5.42145,-162.182 L -5.48029,-162.491
 L -5.5,-162.804 L -5.48029,-163.117 L -5.42145,-163.426 L -5.32443,-163.724 L -5.19077,-164.008 L -5.02254,-164.273
 L -4.82242,-164.515 L -4.59355,-164.73 L -4.33955,-164.915 L -4.06444,-165.066 L -3.77254,-165.182 L -3.46844,-165.26
 L -3.15697,-165.299 L -2.84302,-165.299 L -2.53154,-165.26 L -2.22745,-165.182 L -1.93555,-165.066 L -1.66043,-164.915
 L -1.40643,-164.73 L -1.17757,-164.515 L -0.977448,-164.273 L -0.809219,-164.008 L -0.675552,-163.724 L -0.578537,-163.426
 L -0.519699,-163.117 L -0.5,-162.804 L -0.519699,-162.491 L -0.578537,-162.182 L -0.675552,-161.884 L -0.809219,-161.599
 L -0.977448,-161.334 L -1.17757,-161.092 L -1.40643,-160.878 L -1.66043,-160.693 L -1.93555,-160.542 L -2.22745,-160.426
 L -2.53154,-160.348 L -2.84302,-160.309 z
M 1.87381,-134.177 L 3.09016,-134.489 L 4.25778,-134.952 L 5.35826,-135.557 L 6.37424,-136.295 L 7.28967,-137.155
 L 8.09016,-138.122 L 8.76306,-139.182 L 9.29776,-140.319 L 9.68582,-141.513 L 9.92114,-142.747 L 10,-144
 L 9.92114,-145.253 L 9.68582,-146.487 L 9.29776,-147.681 L 8.76306,-148.818 L 8.09016,-149.878 L 7.28967,-150.845
 L 6.37424,-151.705 L 5.35826,-152.443 L 4.25778,-153.048 L 3.09016,-153.511 L 1.87381,-153.823 L 0.627899,-153.98
 L -0.627899,-153.98 L -1.87381,-153.823 L -3.09016,-153.511 L -4.25778,-153.048 L -5.35826,-152.443 L -6.37424,-151.705
 L -7.28967,-150.845 L -8.09016,-149.878 L -8.76306,-148.818 L -9.29776,-147.681 L -9.68582,-146.487 L -9.92114,-145.253
 L -10,-144 L -9.92114,-142.747 L -9.68582,-141.513 L -9.29776,-140.319 L -8.76306,-139.182 L -8.09016,-138.122
 L -7.28967,-137.155 L -6.37424,-136.295 L -5.35826,-135.557 L -4.25778,-134.952 L -3.09016,-134.489 L -1.87381,-134.177
 L -0.627899,-134.02 L 0.627899,-134.02 z
M -3.15697,-146.701 L -3.46844,-146.74 L -3.77254,-146.818 L -4.06444,-146.934 L -4.33955,-147.085 L -4.59355,-147.27
 L -4.82242,-147.485 L -5.02254,-147.727 L -5.19077,-147.992 L -5.32443,-148.276 L -5.42145,-148.574 L -5.48029,-148.883
 L -5.5,-149.196 L -5.48029,-149.509 L -5.42145,-149.818 L -5.32443,-150.116 L -5.19077,-150.401 L -5.02254,-150.666
 L -4.82242,-150.908 L -4.59355,-151.122 L -4.33955,-151.307 L -4.06444,-151.458 L -3.77254,-151.574 L -3.46844,-151.652
 L -3.15697,-151.691 L -2.84302,-151.691 L -2.53154,-151.652 L -2.22745,-151.574 L -1.93555,-151.458 L -1.66043,-151.307
 L -1.40643,-151.122 L -1.17757,-150.908 L -0.977448,-150.666 L -0.809219,-150.401 L -0.675552,-150.116 L -0.578537,-149.818
 L -0.519699,-149.509 L -0.5,-149.196 L -0.519699,-148.883 L -0.578537,-148.574 L -0.675552,-148.276 L -0.809219,-147.992
 L -0.977448,-147.727 L -1.17757,-147.485 L -1.40643,-147.27 L -1.66043,-147.085 L -1.93555,-146.934 L -2.22745,-146.818
 L -2.53154,-146.74 L -2.84302,-146.701 z
M 5.84302,-141.505 L 5.53154,-141.544 L 5.22745,-141.622 L 4.93555,-141.738 L 4.66043,-141.889 L 4.40643,-142.074
 L 4.17757,-142.289 L 3.97745,-142.531 L 3.80922,-142.796 L 3.67555,-143.08 L 3.57854,-143.378 L 3.5197,-143.687
 L 3.5,-144 L 3.5197,-144.313 L 3.57854,-144.622 L 3.67555,-144.92 L 3.80922,-145.204 L 3.97745,-145.469
 L 4.17757,-145.711 L 4.40643,-145.926 L 4.66043,-146.111 L 4.93555,-146.262 L 5.22745,-146.378 L 5.53154,-146.456
 L 5.84302,-146.495 L 6.15697,-146.495 L 6.46844,-146.456 L 6.77254,-146.378 L 7.06444,-146.262 L 7.33955,-146.111
 L 7.59355,-145.926 L 7.82242,-145.711 L 8.02254,-145.469 L 8.19077,-145.204 L 8.32443,-144.92 L 8.42145,-144.622
 L 8.48029,-144.313 L 8.5,-144 L 8.48029,-143.687 L 8.42145,-143.378 L 8.32443,-143.08 L 8.19077,-142.796
 L 8.02254,-142.531 L 7.82242,-142.289 L 7.59355,-142.074 L 7.33955,-141.889 L 7.06444,-141.738 L 6.77254,-141.622
 L 6.46844,-141.544 L 6.15697,-141.505 z
M -3.15697,-136.309 L -3.46844,-136.348 L -3.77254,-136.426 L -4.06444,-136.542 L -4.33955,-136.693 L -4.59355,-136.878
 L -4.82242,-137.092 L -5.02254,-137.334 L -5.19077,-137.599 L -5.32443,-137.884 L -5.42145,-138.182 L -5.48029,-138.491
 L -5.5,-138.804 L -5.48029,-139.117 L -5.42145,-139.426 L -5.32443,-139.724 L -5.19077,-140.008 L -5.02254,-140.273
 L -4.82242,-140.515 L -4.59355,-140.73 L -4.33955,-140.915 L -4.06444,-141.066 L -3.77254,-141.182 L -3.46844,-141.26
 L -3.15697,-141.299 L -2.84302,-141.299 L -2.53154,-141.26 L -2.22745,-141.182 L -1.93555,-141.066 L -1.66043,-140.915
 L -1.40643,-140.73 L -1.17757,-140.515 L -0.977448,-140.273 L -0.809219,-140.008 L -0.675552,-139.724 L -0.578537,-139.426
 L -0.519699,-139.117 L -0.5,-138.804 L -0.519699,-138.491 L -0.578537,-138.182 L -0.675552,-137.884 L -0.809219,-137.599
 L -0.977448,-137.334 L -1.17757,-137.092 L -1.40643,-136.878 L -1.66043,-136.693 L -1.93555,-136.542 L -2.22745,-136.426
 L -2.53154,-136.348 L -2.84302,-136.309 z
M 1.87381,-110.177 L 3.09016,-110.489 L 4.25778,-110.952 L 5.35826,-111.557 L 6.37424,-112.295 L 7.28967,-113.155
 L 8.09016,-114.122 L 8.76306,-115.182 L 9.29776,-116.319 L 9.68582,-117.513 L 9.92114,-118.747 L 10,-120
 L 9.92114,-121.253 L 9.68582,-122.487 L 9.29776,-123.681 L 8.76306,-124.818 L 8.09016,-125.878 L 7.28967,-126.845
 L 6.37424,-127.705 L 5.35826,-128.443 L 4.25778,-129.048 L 3.09016,-129.511 L 1.87381,-129.823 L 0.627899,-129.98
 L -0.627899,-129.98 L -1.87381,-129.823 L -3.09016,-129.511 L -4.25778,-129.048 L -5.35826,-128.443 L -6.37424,-127.705
 L -7.28967,-126.845 L -8.09016,-125.878 L -8.76306,-124.818 L -9.29776,-123.681 L -9.68582,-122.487 L -9.92114,-121.253
 L -10,-120 L -9.92114,-118.747 L -9.68582,-117.513 L -9.29776,-116.319 L -8.76306,-115.182 L -8.09016,-114.122
 L -7.28967,-113.155 L -6.37424,-112.295 L -5.35826,-111.557 L -4.25778,-110.952 L -3.09016,-110.489 L -1.87381,-110.177
 L -0.627899,-110.02 L 0.627899,-110.02 z
M -3.15697,-122.701 L -3.46844,-122.74 L -3.77254,-122.818 L -4.06444,-122.934 L -4.33955,-123.085 L -4.59355,-123.27
 L -4.82242,-123.485 L -5.02254,-123.727 L -5.19077,-123.992 L -5.32443,-124.276 L -5.42145,-124.574 L -5.48029,-124.883
 L -5.5,-125.196 L -5.48029,-125.509 L -5.42145,-125.818 L -5.32443,-126.116 L -5.19077,-126.401 L -5.02254,-126.666
 L -4.82242,-126.908 L -4.59355,-127.122 L -4.33955,-127.307 L -4.06444,-127.458 L -3.77254,-127.574 L -3.46844,-127.652
 L -3.15697,-127.691 L -2.84302,-127.691 L -2.53154,-127.652 L -2.22745,-127.574 L -1.93555,-127.458 L -1.66043,-127.307
 L -1.40643,-127.122 L -1.17757,-126.908 L -0.977448,-126.666 L -0.809219,-126.401 L -0.675552,-126.116 L -0.578537,-125.818
 L -0.519699,-125.509 L -0.5,-125.196 L -0.519699,-124.883 L -0.578537,-124.574 L -0.675552,-124.276 L -0.809219,-123.992
 L -0.977448,-123.727 L -1.17757,-123.485 L -1.40643,-123.27 L -1.66043,-123.085 L -1.93555,-122.934 L -2.22745,-122.818
 L -2.53154,-122.74 L -2.84302,-122.701 z
M 5.84302,-117.505 L 5.53154,-117.544 L 5.22745,-117.622 L 4.93555,-117.738 L 4.66043,-117.889 L 4.40643,-118.074
 L 4.17757,-118.289 L 3.97745,-118.531 L 3.80922,-118.796 L 3.67555,-119.08 L 3.57854,-119.378 L 3.5197,-119.687
 L 3.5,-120 L 3.5197,-120.313 L 3.57854,-120.622 L 3.67555,-120.92 L 3.80922,-121.204 L 3.97745,-121.469
 L 4.17757,-121.711 L 4.40643,-121.926 L 4.66043,-122.111 L 4.93555,-122.262 L 5.22745,-122.378 L 5.53154,-122.456
 L 5.84302,-122.495 L 6.15697,-122.495 L 6.46844,-122.456 L 6.77254,-122.378 L 7.06444,-122.262 L 7.33955,-122.111
 L 7.59355,-121.926 L 7.82242,-121.711 L 8.02254,-121.469 L 8.19077,-121.204 L 8.32443,-120.92 L 8.42145,-120.622
 L 8.48029,-120.313 L 8.5,-120 L 8.48029,-119.687 L 8.42145,-119.378 L 8.32443,-119.08 L 8.19077,-118.796
 L 8.02254,-118.531 L 7.82242,-118.289 L 7.59355,-118.074 L 7.33955,-117.889 L 7.06444,-117.738 L 6.77254,-117.622
 L 6.46844,-117.544 L 6.15697,-117.505 z
M -3.15697,-112.309 L -3.46844,-112.348 L -3.77254,-112.426 L -4.06444,-112.542 L -4.33955,-112.693 L -4.59355,-112.878
 L -4.82242,-113.092 L -5.02254,-113.334 L -5.19077,-113.599 L -5.32443,-113.884 L -5.42145,-114.182 L -5.48029,-114.491
 L -5.5,-114.804 L -5.48029,-115.117 L -5.42145,-115.426 L -5.32443,-115.724 L -5.19077,-116.008 L -5.02254,-116.273
 L -4.82242,-116.515 L -4.59355,-116.73 L -4.33955,-116.915 L -4.06444,-117.066 L -3.77254,-117.182 L -3.46844,-117.26
 L -3.15697,-117.299 L -2.84302,-117.299 L -2.53154,-117.26 L -2.22745,-117.182 L -1.93555,-117.066 L -1.66043,-116.915
 L -1.40643,-116.73 L -1.17757,-116.515 L -0.977448,-116.273 L -0.809219,-116.008 L -0.675552,-115.724 L -0.578537,-115.426
 L -0.519699,-115.117 L -0.5,-114.804 L -0.519699,-114.491 L -0.578537,-114.182 L -0.675552,-113.884 L -0.809219,-113.599
 L -0.977448,-113.334 L -1.17757,-113.092 L -1.40643,-112.878 L -1.66043,-112.693 L -1.93555,-112.542 L -2.22745,-112.426
 L -2.53154,-112.348 L -2.84302,-112.309 z
M 1.87381,-86.1771 L 3.09016,-86.4894 L 4.25778,-86.9517 L 5.35826,-87.5567 L 6.37424,-88.2949 L 7.28967,-89.1545
 L 8.09016,-90.1222 L 8.76306,-91.1825 L 9.29776,-92.3188 L 9.68582,-93.5131 L 9.92114,-94.7467 L 10,-96
 L 9.92114,-97.2533 L 9.68582,-98.4869 L 9.29776,-99.6812 L 8.76306,-100.818 L 8.09016,-101.878 L 7.28967,-102.845
 L 6.37424,-103.705 L 5.35826,-104.443 L 4.25778,-105.048 L 3.09016,-105.511 L 1.87381,-105.823 L 0.627899,-105.98
 L -0.627899,-105.98 L -1.87381,-105.823 L -3.09016,-105.511 L -4.25778,-105.048 L -5.35826,-104.443 L -6.37424,-103.705
 L -7.28967,-102.845 L -8.09016,-101.878 L -8.76306,-100.818 L -9.29776,-99.6812 L -9.68582,-98.4869 L -9.92114,-97.2533
 L -10,-96 L -9.92114,-94.7467 L -9.68582,-93.5131 L -9.29776,-92.3188 L -8.76306,-91.1825 L -8.09016,-90.1222
 L -7.28967,-89.1545 L -6.37424,-88.2949 L -5.35826,-87.5567 L -4.25778,-86.9517 L -3.09016,-86.4894 L -1.87381,-86.1771
 L -0.627899,-86.0197 L 0.627899,-86.0197 z
M -3.15697,-98.7011 L -3.46844,-98.7404 L -3.77254,-98.8185 L -4.06444,-98.9341 L -4.33955,-99.0853 L -4.59355,-99.2699
 L -4.82242,-99.4848 L -5.02254,-99.7267 L -5.19077,-99.9918 L -5.32443,-100.276 L -5.42145,-100.574 L -5.48029,-100.883
 L -5.5,-101.196 L -5.48029,-101.509 L -5.42145,-101.818 L -5.32443,-102.116 L -5.19077,-102.401 L -5.02254,-102.666
 L -4.82242,-102.908 L -4.59355,-103.122 L -4.33955,-103.307 L -4.06444,-103.458 L -3.77254,-103.574 L -3.46844,-103.652
 L -3.15697,-103.691 L -2.84302,-103.691 L -2.53154,-103.652 L -2.22745,-103.574 L -1.93555,-103.458 L -1.66043,-103.307
 L -1.40643,-103.122 L -1.17757,-102.908 L -0.977448,-102.666 L -0.809219,-102.401 L -0.675552,-102.116 L -0.578537,-101.818
 L -0.519699,-101.509 L -0.5,-101.196 L -0.519699,-100.883 L -0.578537,-100.574 L -0.675552,-100.276 L -0.809219,-99.9918
 L -0.977448,-99.7267 L -1.17757,-99.4848 L -1.40643,-99.2699 L -1.66043,-99.0853 L -1.93555,-98.9341 L -2.22745,-98.8185
 L -2.53154,-98.7404 L -2.84302,-98.7011 z
M 5.84302,-93.5049 L 5.53154,-93.5443 L 5.22745,-93.6224 L 4.93555,-93.7379 L 4.66043,-93.8892 L 4.40643,-94.0737
 L 4.17757,-94.2886 L 3.97745,-94.5305 L 3.80922,-94.7956 L 3.67555,-95.0797 L 3.57854,-95.3783 L 3.5197,-95.6867
 L 3.5,-96 L 3.5197,-96.3133 L 3.57854,-96.6217 L 3.67555,-96.9203 L 3.80922,-97.2044 L 3.97745,-97.4695
 L 4.17757,-97.7114 L 4.40643,-97.9263 L 4.66043,-98.1108 L 4.93555,-98.2621 L 5.22745,-98.3776 L 5.53154,-98.4557
 L 5.84302,-98.4951 L 6.15697,-98.4951 L 6.46844,-98.4557 L 6.77254,-98.3776 L 7.06444,-98.2621 L 7.33955,-98.1108
 L 7.59355,-97.9263 L 7.82242,-97.7114 L 8.02254,-97.4695 L 8.19077,-97.2044 L 8.32443,-96.9203 L 8.42145,-96.6217
 L 8.48029,-96.3133 L 8.5,-96 L 8.48029,-95.6867 L 8.42145,-95.3783 L 8.32443,-95.0797 L 8.19077,-94.7956
 L 8.02254,-94.5305 L 7.82242,-94.2886 L 7.59355,-94.0737 L 7.33955,-93.8892 L 7.06444,-93.7379 L 6.77254,-93.6224
 L 6.46844,-93.5443 L 6.15697,-93.5049 z
M -3.15697,-88.3088 L -3.46844,-88.3481 L -3.77254,-88.4262 L -4.06444,-88.5418 L -4.33955,-88.693 L -4.59355,-88.8776
 L -4.82242,-89.0925 L -5.02254,-89.3344 L -5.19077,-89.5995 L -5.32443,-89.8835 L -5.42145,-90.1821 L -5.48029,-90.4905
 L -5.5,-90.8038 L -5.48029,-91.1172 L -5.42145,-91.4256 L -5.32443,-91.7242 L -5.19077,-92.0082 L -5.02254,-92.2733
 L -4.82242,-92.5152 L -4.59355,-92.7301 L -4.33955,-92.9147 L -4.06444,-93.0659 L -3.77254,-93.1815 L -3.46844,-93.2596
 L -3.15697,-93.2989 L -2.84302,-93.2989 L -2.53154,-93.2596 L -2.22745,-93.1815 L -1.93555,-93.0659 L -1.66043,-92.9147
 L -1.40643,-92.7301 L -1.17757,-92.5152 L -0.977448,-92.2733 L -0.809219,-92.0082 L -0.675552,-91.7242 L -0.578537,-91.4256
 L -0.519699,-91.1172 L -0.5,-90.8038 L -0.519699,-90.4905 L -0.578537,-90.1821 L -0.675552,-89.8835 L -0.809219,-89.5995
 L -0.977448,-89.3344 L -1.17757,-89.0925 L -1.40643,-88.8776 L -1.66043,-88.693 L -1.93555,-88.5418 L -2.22745,-88.4262
 L -2.53154,-88.3481 L -2.84302,-88.3088 z
M 1.87381,-62.1771 L 3.09016,-62.4894 L 4.25778,-62.9517 L 5.35826,-63.5567 L 6.37424,-64.2949 L 7.28967,-65.1545
 L 8.09016,-66.1222 L 8.76306,-67.1825 L 9.29776,-68.3188 L 9.68582,-69.5131 L 9.92114,-70.7467 L 10,-72
 L 9.92114,-73.2533 L 9.68582,-74.4869 L 9.29776,-75.6812 L 8.76306,-76.8175 L 8.09016,-77.8778 L 7.28967,-78.8455
 L 6.37424,-79.7051 L 5.35826,-80.4433 L 4.25778,-81.0483 L 3.09016,-81.5106 L 1.87381,-81.8229 L 0.627899,-81.9803
 L -0.627899,-81.9803 L -1.87381,-81.8229 L -3.09016,-81.5106 L -4.25778,-81.0483 L -5.35826,-80.4433 L -6.37424,-79.7051
 L -7.28967,-78.8455 L -8.09016,-77.8778 L -8.76306,-76.8175 L -9.29776,-75.6812 L -9.68582,-74.4869 L -9.92114,-73.2533
 L -10,-72 L -9.92114,-70.7467 L -9.68582,-69.5131 L -9.29776,-68.3188 L -8.76306,-67.1825 L -8.09016,-66.1222
 L -7.28967,-65.1545 L -6.37424,-64.2949 L -5.35826,-63.5567 L -4.25778,-62.9517 L -3.09016,-62.4894 L -1.87381,-62.1771
 L -0.627899,-62.0197 L 0.627899,-62.0197 z
M -3.15697,-74.7011 L -3.46844,-74.7404 L -3.77254,-74.8185 L -4.06444,-74.9341 L -4.33955,-75.0853 L -4.59355,-75.2699
 L -4.82242,-75.4848 L -5.02254,-75.7267 L -5.19077,-75.9918 L -5.32443,-76.2758 L -5.42145,-76.5744 L -5.48029,-76.8828
 L -5.5,-77.1962 L -5.48029,-77.5095 L -5.42145,-77.8179 L -5.32443,-78.1165 L -5.19077,-78.4005 L -5.02254,-78.6656
 L -4.82242,-78.9075 L -4.59355,-79.1224 L -4.33955,-79.307 L -4.06444,-79.4582 L -3.77254,-79.5738 L -3.46844,-79.6519
 L -3.15697,-79.6912 L -2.84302,-79.6912 L -2.53154,-79.6519 L -2.22745,-79.5738 L -1.93555,-79.4582 L -1.66043,-79.307
 L -1.40643,-79.1224 L -1.17757,-78.9075 L -0.977448,-78.6656 L -0.809219,-78.4005 L -0.675552,-78.1165 L -0.578537,-77.8179
 L -0.519699,-77.5095 L -0.5,-77.1962 L -0.519699,-76.8828 L -0.578537,-76.5744 L -0.675552,-76.2758 L -0.809219,-75.9918
 L -0.977448,-75.7267 L -1.17757,-75.4848 L -1.40643,-75.2699 L -1.66043,-75.0853 L -1.93555,-74.9341 L -2.22745,-74.8185
 L -2.53154,-74.7404 L -2.84302,-74.7011 z
M 5.84302,-69.5049 L 5.53154,-69.5443 L 5.22745,-69.6224 L 4.93555,-69.7379 L 4.66043,-69.8892 L 4.40643,-70.0737
 L 4.17757,-70.2886 L 3.97745,-70.5305 L 3.80922,-70.7956 L 3.67555,-71.0797 L 3.57854,-71.3783 L 3.5197,-71.6867
 L 3.5,-72 L 3.5197,-72.3133 L 3.57854,-72.6217 L 3.67555,-72.9203 L 3.80922,-73.2044 L 3.97745,-73.4695
 L 4.17757,-73.7114 L 4.40643,-73.9263 L 4.66043,-74.1108 L 4.93555,-74.2621 L 5.22745,-74.3776 L 5.53154,-74.4557
 L 5.84302,-74.4951 L 6.15697,-74.4951 L 6.46844,-74.4557 L 6.77254,-74.3776 L 7.06444,-74.2621 L 7.33955,-74.1108
 L 7.59355,-73.9263 L 7.82242,-73.7114 L 8.02254,-73.4695 L 8.19077,-73.2044 L 8.32443,-72.9203 L 8.42145,-72.6217
 L 8.48029,-72.3133 L 8.5,-72 L 8.48029,-71.6867 L 8.42145,-71.3783 L 8.32443,-71.0797 L 8.19077,-70.7956
 L 8.02254,-70.5305 L 7.82242,-70.2886 L 7.59355,-70.0737 L 7.33955,-69.8892 L 7.06444,-69.7379 L 6.77254,-69.6224
 L 6.46844,-69.5443 L 6.15697,-69.5049 z
M -3.15697,-64.3088 L -3.46844,-64.3481 L -3.77254,-64.4262 L -4.06444,-64.5418 L -4.33955,-64.693 L -4.59355,-64.8776
 L -4.82242,-65.0925 L -5.02254,-65.3344 L -5.19077,-65.5995 L -5.32443,-65.8835 L -5.42145,-66.1821 L -5.48029,-66.4905
 L -5.5,-66.8038 L -5.48029,-67.1172 L -5.42145,-67.4256 L -5.32443,-67.7242 L -5.19077,-68.0082 L -5.02254,-68.2733
 L -4.82242,-68.5152 L -4.59355,-68.7301 L -4.33955,-68.9147 L -4.06444,-69.0659 L -3.77254,-69.1815 L -3.46844,-69.2596
 L -3.15697,-69.2989 L -2.84302,-69.2989 L -2.53154,-69.2596 L -2.22745,-69.1815 L -1.93555,-69.0659 L -1.66043,-68.9147
 L -1.40643,-68.7301 L -1.17757,-68.5152 L -0.977448,-68.2733 L -0.809219,-68.0082 L -0.675552,-67.7242 L -0.578537,-67.4256
 L -0.519699,-67.1172 L -0.5,-66.8038 L -0.519699,-66.4905 L -0.578537,-66.1821 L -0.675552,-65.8835 L -0.809219,-65.5995
 L -0.977448,-65.3344 L -1.17757,-65.0925 L -1.40643,-64.8776 L -1.66043,-64.693 L -1.93555,-64.5418 L -2.22745,-64.4262
 L -2.53154,-64.3481 L -2.84302,-64.3088 z
M 1.87381,-38.1771 L 3.09016,-38.4894 L 4.25778,-38.9517 L 5.35826,-39.5567 L 6.37424,-40.2949 L 7.28967,-41.1545
 L 8.09016,-42.1222 L 8.76306,-43.1825 L 9.29776,-44.3188 L 9.68582,-45.5131 L 9.92114,-46.7467 L 10,-48
 L 9.92114,-49.2533 L 9.68582,-50.4869 L 9.29776,-51.6812 L 8.76306,-52.8175 L 8.09016,-53.8778 L 7.28967,-54.8455
 L 6.37424,-55.7051 L 5.35826,-56.4433 L 4.25778,-57.0483 L 3.09016,-57.5106 L 1.87381,-57.8229 L 0.627899,-57.9803
 L -0.627899,-57.9803 L -1.87381,-57.8229 L -3.09016,-57.5106 L -4.25778,-57.0483 L -5.35826,-56.4433 L -6.37424,-55.7051
 L -7.28967,-54.8455 L -8.09016,-53.8778 L -8.76306,-52.8175 L -9.29776,-51.6812 L -9.68582,-50.4869 L -9.92114,-49.2533
 L -10,-48 L -9.92114,-46.7467 L -9.68582,-45.5131 L -9.29776,-44.3188 L -8.76306,-43.1825 L -8.09016,-42.1222
 L -7.28967,-41.1545 L -6.37424,-40.2949 L -5.35826,-39.5567 L -4.25778,-38.9517 L -3.09016,-38.4894 L -1.87381,-38.1771
 L -0.627899,-38.0197 L 0.627899,-38.0197 z
M -3.15697,-50.7011 L -3.46844,-50.7404 L -3.77254,-50.8185 L -4.06444,-50.9341 L -4.33955,-51.0853 L -4.59355,-51.2699
 L -4.82242,-51.4848 L -5.02254,-51.7267 L -5.19077,-51.9918 L -5.32443,-52.2758 L -5.42145,-52.5744 L -5.48029,-52.8828
 L -5.5,-53.1962 L -5.48029,-53.5095 L -5.42145,-53.8179 L -5.32443,-54.1165 L -5.19077,-54.4005 L -5.02254,-54.6656
 L -4.82242,-54.9075 L -4.59355,-55.1224 L -4.33955,-55.307 L -4.06444,-55.4582 L -3.77254,-55.5738 L -3.46844,-55.6519
 L -3.15697,-55.6912 L -2.84302,-55.6912 L -2.53154,-55.6519 L -2.22745,-55.5738 L -1.93555,-55.4582 L -1.66043,-55.307
 L -1.40643,-55.1224 L -1.17757,-54.9075 L -0.977448,-54.6656 L -0.809219,-54.4005 L -0.675552,-54.1165 L -0.578537,-53.8179
 L -0.519699,-53.5095 L -0.5,-53.1962 L -0.519699,-52.8828 L -0.578537,-52.5744 L -0.675552,-52.2758 L -0.809219,-51.9918
 L -0.977448,-51.7267 L -1.17757,-51.4848 L -1.40643,-51.2699 L -1.66043,-51.0853 L -1.93555,-50.9341 L -2.22745,-50.8185
 L -2.53154,-50.7404 L -2.84302,-50.7011 z
M 5.84302,-45.5049 L 5.53154,-45.5443 L 5.22745,-45.6224 L 4.93555,-45.7379 L 4.66043,-45.8892 L 4.40643,-46.0737
 L 4.17757,-46.2886 L 3.97745,-46.5305 L 3.80922,-46.7956 L 3.67555,-47.0797 L 3.57854,-47.3783 L 3.5197,-47.6867
 L 3.5,-48 L 3.5197,-48.3133 L 3.57854,-48.6217 L 3.67555,-48.9203 L 3.80922,-49.2044 L 3.97745,-49.4695
 L 4.17757,-49.7114 L 4.40643,-49.9263 L 4.66043,-50.1108 L 4.93555,-50.2621 L 5.22745,-50.3776 L 5.53154,-50.4557
 L 5.84302,-50.4951 L 6.15697,-50.4951 L 6.46844,-50.4557 L 6.77254,-50.3776 L 7.06444,-50.2621 L 7.33955,-50.1108
 L 7.59355,-49.9263 L 7.82242,-49.7114 L 8.02254,-49.4695 L 8.19077,-49.2044 L 8.32443,-48.9203 L 8.42145,-48.6217
 L 8.48029,-48.3133 L 8.5,-48 L 8.48029,-47.6867 L 8.42145,-47.3783 L 8.32443,-47.0797 L 8.19077,-46.7956
 L 8.02254,-46.5305 L 7.82242,-46.2886 L 7.59355,-46.0737 L 7.33955,-45.8892 L 7.06444,-45.7379 L 6.77254,-45.6224
 L 6.46844,-45.5443 L 6.15697,-45.5049 z
M -3.15697,-40.3088 L -3.46844,-40.3481 L -3.77254,-40.4262 L -4.06444,-40.5418 L -4.33955,-40.693 L -4.59355,-40.8776
 L -4.82242,-41.0925 L -5.02254,-41.3344 L -5.19077,-41.5995 L -5.32443,-41.8835 L -5.42145,-42.1821 L -5.48029,-42.4905
 L -5.5,-42.8038 L -5.48029,-43.1172 L -5.42145,-43.4256 L -5.32443,-43.7242 L -5.19077,-44.0082 L -5.02254,-44.2733
 L -4.82242,-44.5152 L -4.59355,-44.7301 L -4.33955,-44.9147 L -4.06444,-45.0659 L -3.77254,-45.1815 L -3.46844,-45.2596
 L -3.15697,-45.2989 L -2.84302,-45.2989 L -2.53154,-45.2596 L -2.22745,-45.1815 L -1.93555,-45.0659 L -1.66043,-44.9147
 L -1.40643,-44.7301 L -1.17757,-44.5152 L -0.977448,-44.2733 L -0.809219,-44.0082 L -0.675552,-43.7242 L -0.578537,-43.4256
 L -0.519699,-43.1172 L -0.5,-42.8038 L -0.519699,-42.4905 L -0.578537,-42.1821 L -0.675552,-41.8835 L -0.809219,-41.5995
 L -0.977448,-41.3344 L -1.17757,-41.0925 L -1.40643,-40.8776 L -1.66043,-40.693 L -1.93555,-40.5418 L -2.22745,-40.4262
 L -2.53154,-40.3481 L -2.84302,-40.3088 z
M 1.87381,-14.1771 L 3.09016,-14.4894 L 4.25778,-14.9517 L 5.35826,-15.5567 L 6.37424,-16.2949 L 7.28967,-17.1545
 L 8.09016,-18.1222 L 8.76306,-19.1825 L 9.29776,-20.3188 L 9.68582,-21.5131 L 9.92114,-22.7467 L 10,-24
 L 9.92114,-25.2533 L 9.68582,-26.4869 L 9.29776,-27.6812 L 8.76306,-28.8175 L 8.09016,-29.8778 L 7.28967,-30.8455
 L 6.37424,-31.7051 L 5.35826,-32.4433 L 4.25778,-33.0483 L 3.09016,-33.5106 L 1.87381,-33.8229 L 0.627899,-33.9803
 L -0.627899,-33.9803 L -1.87381,-33.8229 L -3.09016,-33.5106 L -4.25778,-33.0483 L -5.35826,-32.4433 L -6.37424,-31.7051
 L -7.28967,-30.8455 L -8.09016,-29.8778 L -8.76306,-28.8175 L -9.29776,-27.6812 L -9.68582,-26.4869 L -9.92114,-25.2533
 L -10,-24 L -9.92114,-22.7467 L -9.68582,-21.5131 L -9.29776,-20.3188 L -8.76306,-19.1825 L -8.09016,-18.1222
 L -7.28967,-17.1545 L -6.37424,-16.2949 L -5.35826,-15.5567 L -4.25778,-14.9517 L -3.09016,-14.4894 L -1.87381,-14.1771
 L -0.627899,-14.0197 L 0.627899,-14.0197 z
M -3.15697,-26.7011 L -3.46844,-26.7404 L -3.77254,-26.8185 L -4.06444,-26.9341 L -4.33955,-27.0853 L -4.59355,-27.2699
 L -4.82242,-27.4848 L -5.02254,-27.7267 L -5.19077,-27.9918 L -5.32443,-28.2758 L -5.42145,-28.5744 L -5.48029,-28.8828
 L -5.5,-29.1962 L -5.48029,-29.5095 L -5.42145,-29.8179 L -5.32443,-30.1165 L -5.19077,-30.4005 L -5.02254,-30.6656
 L -4.82242,-30.9075 L -4.59355,-31.1224 L -4.33955,-31.307 L -4.06444,-31.4582 L -3.77254,-31.5738 L -3.46844,-31.6519
 L -3.15697,-31.6912 L -2.84302,-31.6912 L -2.53154,-31.6519 L -2.22745,-31.5738 L -1.93555,-31.4582 L -1.66043,-31.307
 L -1.40643,-31.1224 L -1.17757,-30.9075 L -0.977448,-30.6656 L -0.809219,-30.4005 L -0.675552,-30.1165 L -0.578537,-29.8179
 L -0.519699,-29.5095 L -0.5,-29.1962 L -0.519699,-28.8828 L -0.578537,-28.5744 L -0.675552,-28.2758 L -0.809219,-27.9918
 L -0.977448,-27.7267 L -1.17757,-27.4848 L -1.40643,-27.2699 L -1.66043,-27.0853 L -1.93555,-26.9341 L -2.22745,-26.8185
 L -2.53154,-26.7404 L -2.84302,-26.7011 z
M 5.84302,-21.5049 L 5.53154,-21.5443 L 5.22745,-21.6224 L 4.93555,-21.7379 L 4.66043,-21.8892 L 4.40643,-22.0737
 L 4.17757,-22.2886 L 3.97745,-22.5305 L 3.80922,-22.7956 L 3.67555,-23.0797 L 3.57854,-23.3783 L 3.5197,-23.6867
 L 3.5,-24 L 3.5197,-24.3133 L 3.57854,-24.6217 L 3.67555,-24.9203 L 3.80922,-25.2044 L 3.97745,-25.4695
 L 4.17757,-25.7114 L 4.40643,-25.9263 L 4.66043,-26.1108 L 4.93555,-26.2621 L 5.22745,-26.3776 L 5.53154,-26.4557
 L 5.84302,-26.4951 L 6.15697,-26.4951 L 6.46844,-26.4557 L 6.77254,-26.3776 L 7.06444,-26.2621 L 7.33955,-26.1108
 L 7.59355,-25.9263 L 7.82242,-25.7114 L 8.02254,-25.4695 L 8.19077,-25.2044 L 8.32443,-24.9203 L 8.42145,-24.6217
 L 8.48029,-24.3133 L 8.5,-24 L 8.48029,-23.6867 L 8.42145,-23.3783 L 8.32443,-23.0797 L 8.19077,-22.7956
 L 8.02254,-22.5305 L 7.82242,-22.2886 L 7.59355,-22.0737 L 7.33955,-21.8892 L 7.06444,-21.7379 L 6.77254,-21.6224
 L 6.46844,-21.5443 L 6.15697,-21.5049 z
M -3.15697,-16.3088 L -3.46844,-16.3481 L -3.77254,-16.4262 L -4.06444,-16.5418 L -4.33955,-16.693 L -4.59355,-16.8776
 L -4.82242,-17.0925 L -5.02254,-17.3344 L -5.19077,-17.5995 L -5.32443,-17.8835 L -5.42145,-18.1821 L -5.48029,-18.4905
 L -5.5,-18.8038 L -5.48029,-19.1172 L -5.42145,-19.4256 L -5.32443,-19.7242 L -5.19077,-20.0082 L -5.02254,-20.2733
 L -4.82242,-20.5152 L -4.59355,-20.7301 L -4.33955,-20.9147 L -4.06444,-21.0659 L -3.77254,-21.1815 L -3.46844,-21.2596
 L -3.15697,-21.2989 L -2.84302,-21.2989 L -2.53154,-21.2596 L -2.22745,-21.1815 L -1.93555,-21.0659 L -1.66043,-20.9147
 L -1.40643,-20.7301 L -1.17757,-20.5152 L -0.977448,-20.2733 L -0.809219,-20.0082 L -0.675552,-19.7242 L -0.578537,-19.4256
 L -0.519699,-19.1172 L -0.5,-18.8038 L -0.519699,-18.4905 L -0.578537,-18.1821 L -0.675552,-17.8835 L -0.809219,-17.5995
 L -0.977448,-17.3344 L -1.17757,-17.0925 L -1.40643,-16.8776 L -1.66043,-16.693 L -1.93555,-16.5418 L -2.22745,-16.4262
 L -2.53154,-16.3481 L -2.84302,-16.3088 z
M 1.87381,9.82286 L 3.09016,9.51056 L 4.25778,9.04826 L 5.35826,8.44327 L 6.37424,7.70512 L 7.28967,6.84546
 L 8.09016,5.87784 L 8.76306,4.81754 L 9.29776,3.68124 L 9.68582,2.48689 L 9.92114,1.25333 L 10,-0
 L 9.92114,-1.25333 L 9.68582,-2.48689 L 9.29776,-3.68124 L 8.76306,-4.81754 L 8.09016,-5.87784 L 7.28967,-6.84546
 L 6.37424,-7.70512 L 5.35826,-8.44327 L 4.25778,-9.04826 L 3.09016,-9.51056 L 1.87381,-9.82286 L 0.627899,-9.98026
 L -0.627899,-9.98026 L -1.87381,-9.82286 L -3.09016,-9.51056 L -4.25778,-9.04826 L -5.35826,-8.44327 L -6.37424,-7.70512
 L -7.28967,-6.84546 L -8.09016,-5.87784 L -8.76306,-4.81754 L -9.29776,-3.68124 L -9.68582,-2.48689 L -9.92114,-1.25333
 L -10,-0 L -9.92114,1.25333 L -9.68582,2.48689 L -9.29776,3.68124 L -8.76306,4.81754 L -8.09016,5.87784
 L -7.28967,6.84546 L -6.37424,7.70512 L -5.35826,8.44327 L -4.25778,9.04826 L -3.09016,9.51056 L -1.87381,9.82286
 L -0.627899,9.98026 L 0.627899,9.98026 z
M -3.15697,-2.70108 L -3.46844,-2.74043 L -3.77254,-2.8185 L -4.06444,-2.93408 L -4.33955,-3.08533 L -4.59355,-3.26987
 L -4.82242,-3.48477 L -5.02254,-3.72668 L -5.19077,-3.99176 L -5.32443,-4.27583 L -5.42145,-4.57442 L -5.48029,-4.88281
 L -5.5,-5.19615 L -5.48029,-5.50948 L -5.42145,-5.81787 L -5.32443,-6.11646 L -5.19077,-6.40053 L -5.02254,-6.6656
 L -4.82242,-6.90752 L -4.59355,-7.12242 L -4.33955,-7.30696 L -4.06444,-7.45821 L -3.77254,-7.57379 L -3.46844,-7.65186
 L -3.15697,-7.69121 L -2.84302,-7.69121 L -2.53154,-7.65186 L -2.22745,-7.57379 L -1.93555,-7.45821 L -1.66043,-7.30696
 L -1.40643,-7.12242 L -1.17757,-6.90752 L -0.977448,-6.6656 L -0.809219,-6.40053 L -0.675552,-6.11646 L -0.578537,-5.81787
 L -0.519699,-5.50948 L -0.5,-5.19615 L -0.519699,-4.88281 L -0.578537,-4.57442 L -0.675552,-4.27583 L -0.809219,-3.99176
 L -0.977448,-3.72668 L -1.17757,-3.48477 L -1.40643,-3.26987 L -1.66043,-3.08533 L -1.93555,-2.93408 L -2.22745,-2.8185
 L -2.53154,-2.74043 L -2.84302,-2.70108 z
M 5.84302,2.49506 L 5.53154,2.4557 L 5.22745,2.37764 L 4.93555,2.26205 L 4.66043,2.11081 L 4.40643,1.92627
 L 4.17757,1.71136 L 3.97745,1.46945 L 3.80922,1.20438 L 3.67555,0.920303 L 3.57854,0.621719 L 3.5197,0.313324
 L 3.5,-0 L 3.5197,-0.313324 L 3.57854,-0.621719 L 3.67555,-0.920303 L 3.80922,-1.20438 L 3.97745,-1.46945
 L 4.17757,-1.71136 L 4.40643,-1.92627 L 4.66043,-2.11081 L 4.93555,-2.26205 L 5.22745,-2.37764 L 5.53154,-2.4557
 L 5.84302,-2.49506 L 6.15697,-2.49506 L 6.46844,-2.4557 L 6.77254,-2.37764 L 7.06444,-2.26205 L 7.33955,-2.11081
 L 7.59355,-1.92627 L 7.82242,-1.71136 L 8.02254,-1.46945 L 8.19077,-1.20438 L 8.32443,-0.920303 L 8.42145,-0.621719
 L 8.48029,-0.313324 L 8.5,-0 L 8.48029,0.313324 L 8.42145,0.621719 L 8.32443,0.920303 L 8.19077,1.20438
 L 8.02254,1.46945 L 7.82242,1.71136 L 7.59355,1.92627 L 7.33955,2.11081 L 7.06444,2.26205 L 6.77254,2.37764
 L 6.46844,2.4557 L 6.15697,2.49506 z
M -3.15697,7.69121 L -3.46844,7.65186 L -3.77254,7.57379 L -4.06444,7.45821 L -4.33955,7.30696 L -4.59355,7.12242
 L -4.82242,6.90752 L -5.02254,6.6656 L -5.19077,6.40053 L -5.32443,6.11646 L -5.42145,5.81787 L -5.48029,5.50948
 L -5.5,5.19615 L -5.48029,4.88281 L -5.42145,4.57442 L -5.32443,4.27583 L -5.19077,3.99176 L -5.02254,3.72668
 L -4.82242,3.48477 L -4.59355,3.26987 L -4.33955,3.08533 L -4.06444,2.93408 L -3.77254,2.8185 L -3.46844,2.74043
 L -3.15697,2.70108 L -2.84302,2.70108 L -2.53154,2.74043 L -2.22745,2.8185 L -1.93555,2.93408 L -1.66043,3.08533
 L -1.40643,3.26987 L -1.17757,3.48477 L -0.977448,3.72668 L -0.809219,3.99176 L -0.675552,4.27583 L -0.578537,4.57442
 L -0.519699,4.88281 L -0.5,5.19615 L -0.519699,5.50948 L -0.578537,5.81787 L -0.675552,6.11646 L -0.809219,6.40053
 L -0.977448,6.6656 L -1.17757,6.90752 L -1.40643,7.12242 L -1.66043,7.30696 L -1.93555,7.45821 L -2.22745,7.57379
 L -2.53154,7.65186 L -2.84302,7.69121 z
" stroke="black" fill="lightgray" stroke-width="0.5"/>
</svg>
