  0
SECTION
  2
BLOCKS
  0
ENDSEC
  0
SECTION
  2
ENTITIES
  0
LINE
  8
0
 10
1.87381
 20
230.177
 11
3.09016
 21
230.489
  0
LINE
  8
0
 10
3.09016
 20
230.489
 11
4.25778
 21
230.952
  0
LINE
  8
0
 10
4.25778
 20
230.952
 11
5.35826
 21
231.557
  0
LINE
  8
0
 10
5.35826
 20
231.557
 11
6.37424
 21
232.295
  0
LINE
  8
0
 10
6.37424
 20
232.295
 11
7.28967
 21
233.155
  0
LINE
  8
0
 10
7.28967
 20
233.155
 11
8.09016
 21
234.122
  0
LINE
  8
0
 10
8.09016
 20
234.122
 11
8.76306
 21
235.182
  0
LINE
  8
0
 10
8.76306
 20
235.182
 11
9.29776
 21
236.319
  0
LINE
  8
0
 10
9.29776
 20
236.319
 11
9.68582
 21
237.513
  0
LINE
  8
0
 10
9.68582
 20
237.513
 11
9.92114
 21
238.747
  0
LINE
  8
0
 10
9.92114
 20
238.747
 11
10
 21
240
  0
LINE
  8
0
 10
10
 20
240
 11
9.92114
 21
241.253
  0
LINE
  8
0
 10
9.92114
 20
241.253
 11
9.68582
 21
242.487
  0
LINE
  8
0
 10
9.68582
 20
242.487
 11
9.29776
 21
243.681
  0
LINE
  8
0
 10
9.29776
 20
243.681
 11
8.76306
 21
244.818
  0
LINE
  8
0
 10
8.76306
 20
244.818
 11
8.09016
 21
245.878
  0
LINE
  8
0
 10
8.09016
 20
245.878
 11
7.28967
 21
246.845
  0
LINE
  8
0
 10
7.28967
 20
246.845
 11
6.37424
 21
247.705
  0
LINE
  8
0
 10
6.37424
 20
247.705
 11
6.34392
 21
247.727
  0
LINE
  8
0
 10
6.34392
 20
247.727
 11
7.45113
 21
248.166
  0
LINE
  8
0
 10
7.45113
 20
248.166
 11
9.37697
 21
249.224
  0
LINE
  8
0
 10
9.37697
 20
249.224
 11
11.1549
 21
250.516
  0
LINE
  8
0
 10
11.1549
 20
250.516
 11
12.7569
 21
252.02
  0
LINE
  8
0
 10
12.7569
 20
252.02
 11
14.1578
 21
253.714
  0
LINE
  8
0
 10
14.1578
 20
253.714
 11
15.3354
 21
255.569
  0
LINE
  8
0
 10
15.3354
 20
255.569
 11
16.2711
 21
257.558
  0
LINE
  8
0
 10
16.2711
 20
257.558
 11
16.9502
 21
259.648
  0
LINE
  8
0
 10
16.9502
 20
259.648
 11
17.362
 21
261.807
  0
LINE
  8
0
 10
17.362
 20
261.807
 11
17.5
 21
264
  0
LINE
  8
0
 10
17.5
 20
264
 11
17.362
 21
266.193
  0
LINE
  8
0
 10
17.362
 20
266.193
 11
16.9502
 21
268.352
  0
LINE
  8
0
 10
16.9502
 20
268.352
 11
16.2711
 21
270.442
  0
LINE
  8
0
 10
16.2711
 20
270.442
 11
15.3354
 21
272.431
  0
LINE
  8
0
 10
15.3354
 20
272.431
 11
14.1578
 21
274.286
  0
LINE
  8
0
 10
14.1578
 20
274.286
 11
12.7569
 21
275.98
  0
LINE
  8
0
 10
12.7569
 20
275.98
 11
12.7352
 21
276
  0
LINE
  8
0
 10
12.7352
 20
276
 11
12.7569
 21
276.02
  0
LINE
  8
0
 10
12.7569
 20
276.02
 11
14.1578
 21
277.714
  0
LINE
  8
0
 10
14.1578
 20
277.714
 11
15.3354
 21
279.569
  0
LINE
  8
0
 10
15.3354
 20
279.569
 11
16.2711
 21
281.558
  0
LINE
  8
0
 10
16.2711
 20
281.558
 11
16.9502
 21
283.648
  0
LINE
  8
0
 10
16.9502
 20
283.648
 11
17.362
 21
285.807
  0
LINE
  8
0
 10
17.362
 20
285.807
 11
17.5
 21
288
  0
LINE
  8
0
 10
17.5
 20
288
 11
17.362
 21
290.193
  0
LINE
  8
0
 10
17.362
 20
290.193
 11
16.9502
 21
292.352
  0
LINE
  8
0
 10
16.9502
 20
292.352
 11
16.2711
 21
294.442
  0
LINE
  8
0
 10
16.2711
 20
294.442
 11
15.3354
 21
296.431
  0
LINE
  8
0
 10
15.3354
 20
296.431
 11
14.1578
 21
298.286
  0
LINE
  8
0
 10
14.1578
 20
298.286
 11
12.7569
 21
299.98
  0
LINE
  8
0
 10
12.7569
 20
299.98
 11
11.1549
 21
301.484
  0
LINE
  8
0
 10
11.1549
 20
301.484
 11
9.37697
 21
302.776
  0
LINE
  8
0
 10
9.37697
 20
302.776
 11
7.45113
 21
303.834
  0
LINE
  8
0
 10
7.45113
 20
303.834
 11
5.40779
 21
304.643
  0
LINE
  8
0
 10
5.40779
 20
304.643
 11
3.27916
 21
305.19
  0
LINE
  8
0
 10
3.27916
 20
305.19
 11
1.09883
 21
305.465
  0
LINE
  8
0
 10
1.09883
 20
305.465
 11
-1.09883
 21
305.465
  0
LINE
  8
0
 10
-1.09883
 20
305.465
 11
-3.27916
 21
305.19
  0
LINE
  8
0
 10
-3.27916
 20
305.19
 11
-5.40779
 21
304.643
  0
LINE
  8
0
 10
-5.40779
 20
304.643
 11
-7.45113
 21
303.834
  0
LINE
  8
0
 10
-7.45113
 20
303.834
 11
-9.37697
 21
302.776
  0
LINE
  8
0
 10
-9.37697
 20
302.776
 11
-11.1549
 21
301.484
  0
LINE
  8
0
 10
-11.1549
 20
301.484
 11
-12.7569
 21
299.98
  0
LINE
  8
0
 10
-12.7569
 20
299.98
 11
-14.1578
 21
298.286
  0
LINE
  8
0
 10
-14.1578
 20
298.286
 11
-15.3354
 21
296.431
  0
LINE
  8
0
 10
-15.3354
 20
296.431
 11
-16.2711
 21
294.442
  0
LINE
  8
0
 10
-16.2711
 20
294.442
 11
-16.9502
 21
292.352
  0
LINE
  8
0
 10
-16.9502
 20
292.352
 11
-17.362
 21
290.193
  0
LINE
  8
0
 10
-17.362
 20
290.193
 11
-17.5
 21
288
  0
LINE
  8
0
 10
-17.5
 20
288
 11
-17.362
 21
285.807
  0
LINE
  8
0
 10
-17.362
 20
285.807
 11
-16.9502
 21
283.648
  0
LINE
  8
0
 10
-16.9502
 20
283.648
 11
-16.2711
 21
281.558
  0
LINE
  8
0
 10
-16.2711
 20
281.558
 11
-15.3354
 21
279.569
  0
LINE
  8
0
 10
-15.3354
 20
279.569
 11
-14.1578
 21
277.714
  0
LINE
  8
0
 10
-14.1578
 20
277.714
 11
-12.7569
 21
276.02
  0
LINE
  8
0
 10
-12.7569
 20
276.02
 11
-12.7352
 21
276
  0
LINE
  8
0
 10
-12.7352
 20
276
 11
-12.7569
 21
275.98
  0
LINE
  8
0
 10
-12.7569
 20
275.98
 11
-14.1578
 21
274.286
  0
LINE
  8
0
 10
-14.1578
 20
274.286
 11
-15.3354
 21
272.431
  0
LINE
  8
0
 10
-15.3354
 20
272.431
 11
-16.2711
 21
270.442
  0
LINE
  8
0
 10
-16.2711
 20
270.442
 11
-16.9502
 21
268.352
  0
LINE
  8
0
 10
-16.9502
 20
268.352
 11
-17.362
 21
266.193
  0
LINE
  8
0
 10
-17.362
 20
266.193
 11
-17.5
 21
264
  0
LINE
  8
0
 10
-17.5
 20
264
 11
-17.362
 21
261.807
  0
LINE
  8
0
 10
-17.362
 20
261.807
 11
-16.9502
 21
259.648
  0
LINE
  8
0
 10
-16.9502
 20
259.648
 11
-16.2711
 21
257.558
  0
LINE
  8
0
 10
-16.2711
 20
257.558
 11
-15.3354
 21
255.569
  0
LINE
  8
0
 10
-15.3354
 20
255.569
 11
-14.1578
 21
253.714
  0
LINE
  8
0
 10
-14.1578
 20
253.714
 11
-12.7569
 21
252.02
  0
LINE
  8
0
 10
-12.7569
 20
252.02
 11
-11.1549
 21
250.516
  0
LINE
  8
0
 10
-11.1549
 20
250.516
 11
-9.37697
 21
249.224
  0
LINE
  8
0
 10
-9.37697
 20
249.224
 11
-7.45113
 21
248.166
  0
LINE
  8
0
 10
-7.45113
 20
248.166
 11
-6.34392
 21
247.727
  0
LINE
  8
0
 10
-6.34392
 20
247.727
 11
-6.37424
 21
247.705
  0
LINE
  8
0
 10
-6.37424
 20
247.705
 11
-7.28967
 21
246.845
  0
LINE
  8
0
 10
-7.28967
 20
246.845
 11
-8.09016
 21
245.878
  0
LINE
  8
0
 10
-8.09016
 20
245.878
 11
-8.76306
 21
244.818
  0
LINE
  8
0
 10
-8.76306
 20
244.818
 11
-9.29776
 21
243.681
  0
LINE
  8
0
 10
-9.29776
 20
243.681
 11
-9.68582
 21
242.487
  0
LINE
  8
0
 10
-9.68582
 20
242.487
 11
-9.92114
 21
241.253
  0
LINE
  8
0
 10
-9.92114
 20
241.253
 11
-10
 21
240
  0
LINE
  8
0
 10
-10
 20
240
 11
-9.92114
 21
238.747
  0
LINE
  8
0
 10
-9.92114
 20
238.747
 11
-9.68582
 21
237.513
  0
LINE
  8
0
 10
-9.68582
 20
237.513
 11
-9.29776
 21
236.319
  0
LINE
  8
0
 10
-9.29776
 20
236.319
 11
-8.76306
 21
235.182
  0
LINE
  8
0
 10
-8.76306
 20
235.182
 11
-8.09016
 21
234.122
  0
LINE
  8
0
 10
-8.09016
 20
234.122
 11
-7.28967
 21
233.155
  0
LINE
  8
0
 10
-7.28967
 20
233.155
 11
-6.37424
 21
232.295
  0
LINE
  8
0
 10
-6.37424
 20
232.295
 11
-5.35826
 21
231.557
  0
LINE
  8
0
 10
-5.35826
 20
231.557
 11
-4.25778
 21
230.952
  0
LINE
  8
0
 10
-4.25778
 20
230.952
 11
-3.09016
 21
230.489
  0
LINE
  8
0
 10
-3.09016
 20
230.489
 11
-1.87381
 21
230.177
  0
LINE
  8
0
 10
-1.87381
 20
230.177
 11
-0.627899
 21
230.02
  0
LINE
  8
0
 10
-0.627899
 20
230.02
 11
0.627899
 21
230.02
  0
LINE
  8
0
 10
0.627899
 20
230.02
 11
1.87381
 21
230.177
  0
LINE
  8
0
 10
-3.20799
 20
289.89
 11
-3.6207
 21
289.942
  0
LINE
  8
0
 10
-3.6207
 20
289.942
 11
-4.02361
 21
290.046
  0
LINE
  8
0
 10
-4.02361
 20
290.046
 11
-4.41039
 21
290.199
  0
LINE
  8
0
 10
-4.41039
 20
290.199
 11
-4.77492
 21
290.399
  0
LINE
  8
0
 10
-4.77492
 20
290.399
 11
-5.11147
 21
290.644
  0
LINE
  8
0
 10
-5.11147
 20
290.644
 11
-5.4147
 21
290.929
  0
LINE
  8
0
 10
-5.4147
 20
290.929
 11
-5.67986
 21
291.249
  0
LINE
  8
0
 10
-5.67986
 20
291.249
 11
-5.90276
 21
291.6
  0
LINE
  8
0
 10
-5.90276
 20
291.6
 11
-6.07988
 21
291.977
  0
LINE
  8
0
 10
-6.07988
 20
291.977
 11
-6.20842
 21
292.372
  0
LINE
  8
0
 10
-6.20842
 20
292.372
 11
-6.28638
 21
292.781
  0
LINE
  8
0
 10
-6.28638
 20
292.781
 11
-6.3125
 21
293.196
  0
LINE
  8
0
 10
-6.3125
 20
293.196
 11
-6.28638
 21
293.611
  0
LINE
  8
0
 10
-6.28638
 20
293.611
 11
-6.20842
 21
294.02
  0
LINE
  8
0
 10
-6.20842
 20
294.02
 11
-6.07988
 21
294.416
  0
LINE
  8
0
 10
-6.07988
 20
294.416
 11
-5.90276
 21
294.792
  0
LINE
  8
0
 10
-5.90276
 20
294.792
 11
-5.67986
 21
295.143
  0
LINE
  8
0
 10
-5.67986
 20
295.143
 11
-5.4147
 21
295.464
  0
LINE
  8
0
 10
-5.4147
 20
295.464
 11
-5.11147
 21
295.748
  0
LINE
  8
0
 10
-5.11147
 20
295.748
 11
-4.77492
 21
295.993
  0
LINE
  8
0
 10
-4.77492
 20
295.993
 11
-4.41039
 21
296.193
  0
LINE
  8
0
 10
-4.41039
 20
296.193
 11
-4.02361
 21
296.347
  0
LINE
  8
0
 10
-4.02361
 20
296.347
 11
-3.6207
 21
296.45
  0
LINE
  8
0
 10
-3.6207
 20
296.45
 11
-3.20799
 21
296.502
  0
LINE
  8
0
 10
-3.20799
 20
296.502
 11
-2.79199
 21
296.502
  0
LINE
  8
0
 10
-2.79199
 20
296.502
 11
-2.37929
 21
296.45
  0
LINE
  8
0
 10
-2.37929
 20
296.45
 11
-1.97638
 21
296.347
  0
LINE
  8
0
 10
-1.97638
 20
296.347
 11
-1.5896
 21
296.193
  0
LINE
  8
0
 10
-1.5896
 20
296.193
 11
-1.22507
 21
295.993
  0
LINE
  8
0
 10
-1.22507
 20
295.993
 11
-0.888519
 21
295.748
  0
LINE
  8
0
 10
-0.888519
 20
295.748
 11
-0.585281
 21
295.464
  0
LINE
  8
0
 10
-0.585281
 20
295.464
 11
-0.320129
 21
295.143
  0
LINE
  8
0
 10
-0.320129
 20
295.143
 11
-0.097229
 21
294.792
  0
LINE
  8
0
 10
-0.097229
 20
294.792
 11
0.0798798
 21
294.416
  0
LINE
  8
0
 10
0.0798798
 20
294.416
 11
0.20842
 21
294.02
  0
LINE
  8
0
 10
0.20842
 20
294.02
 11
0.286377
 21
293.611
  0
LINE
  8
0
 10
0.286377
 20
293.611
 11
0.312485
 21
293.196
  0
LINE
  8
0
 10
0.312485
 20
293.196
 11
0.286377
 21
292.781
  0
LINE
  8
0
 10
0.286377
 20
292.781
 11
0.20842
 21
292.372
  0
LINE
  8
0
 10
0.20842
 20
292.372
 11
0.0798798
 21
291.977
  0
LINE
  8
0
 10
0.0798798
 20
291.977
 11
-0.097229
 21
291.6
  0
LINE
  8
0
 10
-0.097229
 20
291.6
 11
-0.320129
 21
291.249
  0
LINE
  8
0
 10
-0.320129
 20
291.249
 11
-0.585281
 21
290.929
  0
LINE
  8
0
 10
-0.585281
 20
290.929
 11
-0.888519
 21
290.644
  0
LINE
  8
0
 10
-0.888519
 20
290.644
 11
-1.22507
 21
290.399
  0
LINE
  8
0
 10
-1.22507
 20
290.399
 11
-1.5896
 21
290.199
  0
LINE
  8
0
 10
-1.5896
 20
290.199
 11
-1.97638
 21
290.046
  0
LINE
  8
0
 10
-1.97638
 20
290.046
 11
-2.37929
 21
289.942
  0
LINE
  8
0
 10
-2.37929
 20
289.942
 11
-2.79199
 21
289.89
  0
LINE
  8
0
 10
-2.79199
 20
289.89
 11
-3.20799
 21
289.89
  0
LINE
  8
0
 10
5.79199
 20
284.694
 11
5.37929
 21
284.746
  0
LINE
  8
0
 10
5.37929
 20
284.746
 11
4.97638
 21
284.85
  0
LINE
  8
0
 10
4.97638
 20
284.85
 11
4.5896
 21
285.003
  0
LINE
  8
0
 10
4.5896
 20
285.003
 11
4.22507
 21
285.203
  0
LINE
  8
0
 10
4.22507
 20
285.203
 11
3.88852
 21
285.448
  0
LINE
  8
0
 10
3.88852
 20
285.448
 11
3.58528
 21
285.732
  0
LINE
  8
0
 10
3.58528
 20
285.732
 11
3.32013
 21
286.053
  0
LINE
  8
0
 10
3.32013
 20
286.053
 11
3.09723
 21
286.404
  0
LINE
  8
0
 10
3.09723
 20
286.404
 11
2.9201
 21
286.781
  0
LINE
  8
0
 10
2.9201
 20
286.781
 11
2.79156
 21
287.176
  0
LINE
  8
0
 10
2.79156
 20
287.176
 11
2.71361
 21
287.585
  0
LINE
  8
0
 10
2.71361
 20
287.585
 11
2.6875
 21
288
  0
LINE
  8
0
 10
2.6875
 20
288
 11
2.71361
 21
288.415
  0
LINE
  8
0
 10
2.71361
 20
288.415
 11
2.79156
 21
288.824
  0
LINE
  8
0
 10
2.79156
 20
288.824
 11
2.9201
 21
289.219
  0
LINE
  8
0
 10
2.9201
 20
289.219
 11
3.09723
 21
289.596
  0
LINE
  8
0
 10
3.09723
 20
289.596
 11
3.32013
 21
289.947
  0
LINE
  8
0
 10
3.32013
 20
289.947
 11
3.58528
 21
290.268
  0
LINE
  8
0
 10
3.58528
 20
290.268
 11
3.88852
 21
290.552
  0
LINE
  8
0
 10
3.88852
 20
290.552
 11
4.22507
 21
290.797
  0
LINE
  8
0
 10
4.22507
 20
290.797
 11
4.5896
 21
290.997
  0
LINE
  8
0
 10
4.5896
 20
290.997
 11
4.97638
 21
291.15
  0
LINE
  8
0
 10
4.97638
 20
291.15
 11
5.37929
 21
291.254
  0
LINE
  8
0
 10
5.37929
 20
291.254
 11
5.79199
 21
291.306
  0
LINE
  8
0
 10
5.79199
 20
291.306
 11
6.20799
 21
291.306
  0
LINE
  8
0
 10
6.20799
 20
291.306
 11
6.6207
 21
291.254
  0
LINE
  8
0
 10
6.6207
 20
291.254
 11
7.02361
 21
291.15
  0
LINE
  8
0
 10
7.02361
 20
291.15
 11
7.41039
 21
290.997
  0
LINE
  8
0
 10
7.41039
 20
290.997
 11
7.77492
 21
290.797
  0
LINE
  8
0
 10
7.77492
 20
290.797
 11
8.11147
 21
290.552
  0
LINE
  8
0
 10
8.11147
 20
290.552
 11
8.4147
 21
290.268
  0
LINE
  8
0
 10
8.4147
 20
290.268
 11
8.67986
 21
289.947
  0
LINE
  8
0
 10
8.67986
 20
289.947
 11
8.90276
 21
289.596
  0
LINE
  8
0
 10
8.90276
 20
289.596
 11
9.07988
 21
289.219
  0
LINE
  8
0
 10
9.07988
 20
289.219
 11
9.20842
 21
288.824
  0
LINE
  8
0
 10
9.20842
 20
288.824
 11
9.28638
 21
288.415
  0
LINE
  8
0
 10
9.28638
 20
288.415
 11
9.3125
 21
288
  0
LINE
  8
0
 10
9.3125
 20
288
 11
9.28638
 21
287.585
  0
LINE
  8
0
 10
9.28638
 20
287.585
 11
9.20842
 21
287.176
  0
LINE
  8
0
 10
9.20842
 20
287.176
 11
9.07988
 21
286.781
  0
LINE
  8
0
 10
9.07988
 20
286.781
 11
8.90276
 21
286.404
  0
LINE
  8
0
 10
8.90276
 20
286.404
 11
8.67986
 21
286.053
  0
LINE
  8
0
 10
8.67986
 20
286.053
 11
8.4147
 21
285.732
  0
LINE
  8
0
 10
8.4147
 20
285.732
 11
8.11147
 21
285.448
  0
LINE
  8
0
 10
8.11147
 20
285.448
 11
7.77492
 21
285.203
  0
LINE
  8
0
 10
7.77492
 20
285.203
 11
7.41039
 21
285.003
  0
LINE
  8
0
 10
7.41039
 20
285.003
 11
7.02361
 21
284.85
  0
LINE
  8
0
 10
7.02361
 20
284.85
 11
6.6207
 21
284.746
  0
LINE
  8
0
 10
6.6207
 20
284.746
 11
6.20799
 21
284.694
  0
LINE
  8
0
 10
6.20799
 20
284.694
 11
5.79199
 21
284.694
  0
LINE
  8
0
 10
-5.67986
 20
280.857
 11
-5.90276
 21
281.208
  0
LINE
  8
0
 10
-5.90276
 20
281.208
 11
-6.07988
 21
281.584
  0
LINE
  8
0
 10
-6.07988
 20
281.584
 11
-6.20842
 21
281.98
  0
LINE
  8
0
 10
-6.20842
 20
281.98
 11
-6.28638
 21
282.389
  0
LINE
  8
0
 10
-6.28638
 20
282.389
 11
-6.3125
 21
282.804
  0
LINE
  8
0
 10
-6.3125
 20
282.804
 11
-6.28638
 21
283.219
  0
LINE
  8
0
 10
-6.28638
 20
283.219
 11
-6.20842
 21
283.628
  0
LINE
  8
0
 10
-6.20842
 20
283.628
 11
-6.07988
 21
284.023
  0
LINE
  8
0
 10
-6.07988
 20
284.023
 11
-5.90276
 21
284.4
  0
LINE
  8
0
 10
-5.90276
 20
284.4
 11
-5.67986
 21
284.751
  0
LINE
  8
0
 10
-5.67986
 20
284.751
 11
-5.4147
 21
285.071
  0
LINE
  8
0
 10
-5.4147
 20
285.071
 11
-5.11147
 21
285.356
  0
LINE
  8
0
 10
-5.11147
 20
285.356
 11
-4.77492
 21
285.601
  0
LINE
  8
0
 10
-4.77492
 20
285.601
 11
-4.41039
 21
285.801
  0
LINE
  8
0
 10
-4.41039
 20
285.801
 11
-4.02361
 21
285.954
  0
LINE
  8
0
 10
-4.02361
 20
285.954
 11
-3.6207
 21
286.058
  0
LINE
  8
0
 10
-3.6207
 20
286.058
 11
-3.20799
 21
286.11
  0
LINE
  8
0
 10
-3.20799
 20
286.11
 11
-2.79199
 21
286.11
  0
LINE
  8
0
 10
-2.79199
 20
286.11
 11
-2.37929
 21
286.058
  0
LINE
  8
0
 10
-2.37929
 20
286.058
 11
-1.97638
 21
285.954
  0
LINE
  8
0
 10
-1.97638
 20
285.954
 11
-1.5896
 21
285.801
  0
LINE
  8
0
 10
-1.5896
 20
285.801
 11
-1.22507
 21
285.601
  0
LINE
  8
0
 10
-1.22507
 20
285.601
 11
-0.888519
 21
285.356
  0
LINE
  8
0
 10
-0.888519
 20
285.356
 11
-0.585281
 21
285.071
  0
LINE
  8
0
 10
-0.585281
 20
285.071
 11
-0.320129
 21
284.751
  0
LINE
  8
0
 10
-0.320129
 20
284.751
 11
-0.097229
 21
284.4
  0
LINE
  8
0
 10
-0.097229
 20
284.4
 11
0.0798798
 21
284.023
  0
LINE
  8
0
 10
0.0798798
 20
284.023
 11
0.20842
 21
283.628
  0
LINE
  8
0
 10
0.20842
 20
283.628
 11
0.286377
 21
283.219
  0
LINE
  8
0
 10
0.286377
 20
283.219
 11
0.312485
 21
282.804
  0
LINE
  8
0
 10
0.312485
 20
282.804
 11
0.286377
 21
282.389
  0
LINE
  8
0
 10
0.286377
 20
282.389
 11
0.20842
 21
281.98
  0
LINE
  8
0
 10
0.20842
 20
281.98
 11
0.0798798
 21
281.584
  0
LINE
  8
0
 10
0.0798798
 20
281.584
 11
0.0238953
 21
281.465
  0
LINE
  8
0
 10
0.0238953
 20
281.465
 11
-1.09883
 21
281.465
  0
LINE
  8
0
 10
-1.09883
 20
281.465
 11
-3.27916
 21
281.19
  0
LINE
  8
0
 10
-3.27916
 20
281.19
 11
-5.40779
 21
280.643
  0
LINE
  8
0
 10
-5.40779
 20
280.643
 11
-5.4798
 21
280.615
  0
LINE
  8
0
 10
-5.4798
 20
280.615
 11
-5.67986
 21
280.857
  0
LINE
  8
0
 10
-3.15697
 20
266.701
 11
-3.46844
 21
266.74
  0
LINE
  8
0
 10
-3.46844
 20
266.74
 11
-3.77254
 21
266.818
  0
LINE
  8
0
 10
-3.77254
 20
266.818
 11
-4.06444
 21
266.934
  0
LINE
  8
0
 10
-4.06444
 20
266.934
 11
-4.33955
 21
267.085
  0
LINE
  8
0
 10
-4.33955
 20
267.085
 11
-4.59355
 21
267.27
  0
LINE
  8
0
 10
-4.59355
 20
267.27
 11
-4.82242
 21
267.485
  0
LINE
  8
0
 10
-4.82242
 20
267.485
 11
-5.02254
 21
267.727
  0
LINE
  8
0
 10
-5.02254
 20
267.727
 11
-5.19077
 21
267.992
  0
LINE
  8
0
 10
-5.19077
 20
267.992
 11
-5.32443
 21
268.276
  0
LINE
  8
0
 10
-5.32443
 20
268.276
 11
-5.42145
 21
268.574
  0
LINE
  8
0
 10
-5.42145
 20
268.574
 11
-5.48029
 21
268.883
  0
LINE
  8
0
 10
-5.48029
 20
268.883
 11
-5.5
 21
269.196
  0
LINE
  8
0
 10
-5.5
 20
269.196
 11
-5.48029
 21
269.509
  0
LINE
  8
0
 10
-5.48029
 20
269.509
 11
-5.42145
 21
269.818
  0
LINE
  8
0
 10
-5.42145
 20
269.818
 11
-5.32443
 21
270.116
  0
LINE
  8
0
 10
-5.32443
 20
270.116
 11
-5.19077
 21
270.401
  0
LINE
  8
0
 10
-5.19077
 20
270.401
 11
-5.02254
 21
270.666
  0
LINE
  8
0
 10
-5.02254
 20
270.666
 11
-4.82242
 21
270.908
  0
LINE
  8
0
 10
-4.82242
 20
270.908
 11
-4.59355
 21
271.122
  0
LINE
  8
0
 10
-4.59355
 20
271.122
 11
-4.56808
 21
271.141
  0
LINE
  8
0
 10
-4.56808
 20
271.141
 11
-3.27916
 21
270.81
  0
LINE
  8
0
 10
-3.27916
 20
270.81
 11
-1.09883
 21
270.535
  0
LINE
  8
0
 10
-1.09883
 20
270.535
 11
-0.894272
 21
270.535
  0
LINE
  8
0
 10
-0.894272
 20
270.535
 11
-0.809219
 21
270.401
  0
LINE
  8
0
 10
-0.809219
 20
270.401
 11
-0.675552
 21
270.116
  0
LINE
  8
0
 10
-0.675552
 20
270.116
 11
-0.578537
 21
269.818
  0
LINE
  8
0
 10
-0.578537
 20
269.818
 11
-0.519699
 21
269.509
  0
LINE
  8
0
 10
-0.519699
 20
269.509
 11
-0.5
 21
269.196
  0
LINE
  8
0
 10
-0.5
 20
269.196
 11
-0.519699
 21
268.883
  0
LINE
  8
0
 10
-0.519699
 20
268.883
 11
-0.578537
 21
268.574
  0
LINE
  8
0
 10
-0.578537
 20
268.574
 11
-0.675552
 21
268.276
  0
LINE
  8
0
 10
-0.675552
 20
268.276
 11
-0.809219
 21
267.992
  0
LINE
  8
0
 10
-0.809219
 20
267.992
 11
-0.977448
 21
267.727
  0
LINE
  8
0
 10
-0.977448
 20
267.727
 11
-1.17757
 21
267.485
  0
LINE
  8
0
 10
-1.17757
 20
267.485
 11
-1.40643
 21
267.27
  0
LINE
  8
0
 10
-1.40643
 20
267.27
 11
-1.66043
 21
267.085
  0
LINE
  8
0
 10
-1.66043
 20
267.085
 11
-1.93555
 21
266.934
  0
LINE
  8
0
 10
-1.93555
 20
266.934
 11
-2.22745
 21
266.818
  0
LINE
  8
0
 10
-2.22745
 20
266.818
 11
-2.53154
 21
266.74
  0
LINE
  8
0
 10
-2.53154
 20
266.74
 11
-2.84302
 21
266.701
  0
LINE
  8
0
 10
-2.84302
 20
266.701
 11
-3.15697
 21
266.701
  0
LINE
  8
0
 10
5.84302
 20
261.505
 11
5.53154
 21
261.544
  0
LINE
  8
0
 10
5.53154
 20
261.544
 11
5.22745
 21
261.622
  0
LINE
  8
0
 10
5.22745
 20
261.622
 11
4.93555
 21
261.738
  0
LINE
  8
0
 10
4.93555
 20
261.738
 11
4.66043
 21
261.889
  0
LINE
  8
0
 10
4.66043
 20
261.889
 11
4.40643
 21
262.074
  0
LINE
  8
0
 10
4.40643
 20
262.074
 11
4.17757
 21
262.289
  0
LINE
  8
0
 10
4.17757
 20
262.289
 11
3.97745
 21
262.531
  0
LINE
  8
0
 10
3.97745
 20
262.531
 11
3.80922
 21
262.796
  0
LINE
  8
0
 10
3.80922
 20
262.796
 11
3.67555
 21
263.08
  0
LINE
  8
0
 10
3.67555
 20
263.08
 11
3.57854
 21
263.378
  0
LINE
  8
0
 10
3.57854
 20
263.378
 11
3.5197
 21
263.687
  0
LINE
  8
0
 10
3.5197
 20
263.687
 11
3.5
 21
264
  0
LINE
  8
0
 10
3.5
 20
264
 11
3.5197
 21
264.313
  0
LINE
  8
0
 10
3.5197
 20
264.313
 11
3.57854
 21
264.622
  0
LINE
  8
0
 10
3.57854
 20
264.622
 11
3.67555
 21
264.92
  0
LINE
  8
0
 10
3.67555
 20
264.92
 11
3.80922
 21
265.204
  0
LINE
  8
0
 10
3.80922
 20
265.204
 11
3.97745
 21
265.469
  0
LINE
  8
0
 10
3.97745
 20
265.469
 11
4.17757
 21
265.711
  0
LINE
  8
0
 10
4.17757
 20
265.711
 11
4.40643
 21
265.926
  0
LINE
  8
0
 10
4.40643
 20
265.926
 11
4.66043
 21
266.111
  0
LINE
  8
0
 10
4.66043
 20
266.111
 11
4.93555
 21
266.262
  0
LINE
  8
0
 10
4.93555
 20
266.262
 11
5.22745
 21
266.378
  0
LINE
  8
0
 10
5.22745
 20
266.378
 11
5.53154
 21
266.456
  0
LINE
  8
0
 10
5.53154
 20
266.456
 11
5.84302
 21
266.495
  0
LINE
  8
0
 10
5.84302
 20
266.495
 11
6.15697
 21
266.495
  0
LINE
  8
0
 10
6.15697
 20
266.495
 11
6.46844
 21
266.456
  0
LINE
  8
0
 10
6.46844
 20
266.456
 11
6.77254
 21
266.378
  0
LINE
  8
0
 10
6.77254
 20
266.378
 11
7.06444
 21
266.262
  0
LINE
  8
0
 10
7.06444
 20
266.262
 11
7.33955
 21
266.111
  0
LINE
  8
0
 10
7.33955
 20
266.111
 11
7.59355
 21
265.926
  0
LINE
  8
0
 10
7.59355
 20
265.926
 11
7.82242
 21
265.711
  0
LINE
  8
0
 10
7.82242
 20
265.711
 11
8.02254
 21
265.469
  0
LINE
  8
0
 10
8.02254
 20
265.469
 11
8.19077
 21
265.204
  0
LINE
  8
0
 10
8.19077
 20
265.204
 11
8.32443
 21
264.92
  0
LINE
  8
0
 10
8.32443
 20
264.92
 11
8.42145
 21
264.622
  0
LINE
  8
0
 10
8.42145
 20
264.622
 11
8.48029
 21
264.313
  0
LINE
  8
0
 10
8.48029
 20
264.313
 11
8.5
 21
264
  0
LINE
  8
0
 10
8.5
 20
264
 11
8.48029
 21
263.687
  0
LINE
  8
0
 10
8.48029
 20
263.687
 11
8.42145
 21
263.378
  0
LINE
  8
0
 10
8.42145
 20
263.378
 11
8.32443
 21
263.08
  0
LINE
  8
0
 10
8.32443
 20
263.08
 11
8.19077
 21
262.796
  0
LINE
  8
0
 10
8.19077
 20
262.796
 11
8.02254
 21
262.531
  0
LINE
  8
0
 10
8.02254
 20
262.531
 11
7.82242
 21
262.289
  0
LINE
  8
0
 10
7.82242
 20
262.289
 11
7.59355
 21
262.074
  0
LINE
  8
0
 10
7.59355
 20
262.074
 11
7.33955
 21
261.889
  0
LINE
  8
0
 10
7.33955
 20
261.889
 11
7.06444
 21
261.738
  0
LINE
  8
0
 10
7.06444
 20
261.738
 11
6.77254
 21
261.622
  0
LINE
  8
0
 10
6.77254
 20
261.622
 11
6.46844
 21
261.544
  0
LINE
  8
0
 10
6.46844
 20
261.544
 11
6.15697
 21
261.505
  0
LINE
  8
0
 10
6.15697
 20
261.505
 11
5.84302
 21
261.505
  0
LINE
  8
0
 10
-3.15697
 20
256.309
 11
-3.46844
 21
256.348
  0
LINE
  8
0
 10
-3.46844
 20
256.348
 11
-3.77254
 21
256.426
  0
LINE
  8
0
 10
-3.77254
 20
256.426
 11
-4.06444
 21
256.542
  0
LINE
  8
0
 10
-4.06444
 20
256.542
 11
-4.33955
 21
256.693
  0
LINE
  8
0
 10
-4.33955
 20
256.693
 11
-4.59355
 21
256.878
  0
LINE
  8
0
 10
-4.59355
 20
256.878
 11
-4.82242
 21
257.092
  0
LINE
  8
0
 10
-4.82242
 20
257.092
 11
-5.02254
 21
257.334
  0
LINE
  8
0
 10
-5.02254
 20
257.334
 11
-5.19077
 21
257.599
  0
LINE
  8
0
 10
-5.19077
 20
257.599
 11
-5.32443
 21
257.884
  0
LINE
  8
0
 10
-5.32443
 20
257.884
 11
-5.42145
 21
258.182
  0
LINE
  8
0
 10
-5.42145
 20
258.182
 11
-5.48029
 21
258.491
  0
LINE
  8
0
 10
-5.48029
 20
258.491
 11
-5.5
 21
258.804
  0
LINE
  8
0
 10
-5.5
 20
258.804
 11
-5.48029
 21
259.117
  0
LINE
  8
0
 10
-5.48029
 20
259.117
 11
-5.42145
 21
259.426
  0
LINE
  8
0
 10
-5.42145
 20
259.426
 11
-5.32443
 21
259.724
  0
LINE
  8
0
 10
-5.32443
 20
259.724
 11
-5.19077
 21
260.008
  0
LINE
  8
0
 10
-5.19077
 20
260.008
 11
-5.02254
 21
260.273
  0
LINE
  8
0
 10
-5.02254
 20
260.273
 11
-4.82242
 21
260.515
  0
LINE
  8
0
 10
-4.82242
 20
260.515
 11
-4.59355
 21
260.73
  0
LINE
  8
0
 10
-4.59355
 20
260.73
 11
-4.33955
 21
260.915
  0
LINE
  8
0
 10
-4.33955
 20
260.915
 11
-4.06444
 21
261.066
  0
LINE
  8
0
 10
-4.06444
 20
261.066
 11
-3.77254
 21
261.182
  0
LINE
  8
0
 10
-3.77254
 20
261.182
 11
-3.46844
 21
261.26
  0
LINE
  8
0
 10
-3.46844
 20
261.26
 11
-3.15697
 21
261.299
  0
LINE
  8
0
 10
-3.15697
 20
261.299
 11
-2.84302
 21
261.299
  0
LINE
  8
0
 10
-2.84302
 20
261.299
 11
-2.53154
 21
261.26
  0
LINE
  8
0
 10
-2.53154
 20
261.26
 11
-2.22745
 21
261.182
  0
LINE
  8
0
 10
-2.22745
 20
261.182
 11
-1.93555
 21
261.066
  0
LINE
  8
0
 10
-1.93555
 20
261.066
 11
-1.66043
 21
260.915
  0
LINE
  8
0
 10
-1.66043
 20
260.915
 11
-1.40643
 21
260.73
  0
LINE
  8
0
 10
-1.40643
 20
260.73
 11
-1.17757
 21
260.515
  0
LINE
  8
0
 10
-1.17757
 20
260.515
 11
-0.977448
 21
260.273
  0
LINE
  8
0
 10
-0.977448
 20
260.273
 11
-0.809219
 21
260.008
  0
LINE
  8
0
 10
-0.809219
 20
260.008
 11
-0.675552
 21
259.724
  0
LINE
  8
0
 10
-0.675552
 20
259.724
 11
-0.578537
 21
259.426
  0
LINE
  8
0
 10
-0.578537
 20
259.426
 11
-0.519699
 21
259.117
  0
LINE
  8
0
 10
-0.519699
 20
259.117
 11
-0.5
 21
258.804
  0
LINE
  8
0
 10
-0.5
 20
258.804
 11
-0.519699
 21
258.491
  0
LINE
  8
0
 10
-0.519699
 20
258.491
 11
-0.578537
 21
258.182
  0
LINE
  8
0
 10
-0.578537
 20
258.182
 11
-0.675552
 21
257.884
  0
LINE
  8
0
 10
-0.675552
 20
257.884
 11
-0.809219
 21
257.599
  0
LINE
  8
0
 10
-0.809219
 20
257.599
 11
-0.977448
 21
257.334
  0
LINE
  8
0
 10
-0.977448
 20
257.334
 11
-1.17757
 21
257.092
  0
LINE
  8
0
 10
-1.17757
 20
257.092
 11
-1.40643
 21
256.878
  0
LINE
  8
0
 10
-1.40643
 20
256.878
 11
-1.66043
 21
256.693
  0
LINE
  8
0
 10
-1.66043
 20
256.693
 11
-1.93555
 21
256.542
  0
LINE
  8
0
 10
-1.93555
 20
256.542
 11
-2.22745
 21
256.426
  0
LINE
  8
0
 10
-2.22745
 20
256.426
 11
-2.53154
 21
256.348
  0
LINE
  8
0
 10
-2.53154
 20
256.348
 11
-2.84302
 21
256.309
  0
LINE
  8
0
 10
-2.84302
 20
256.309
 11
-3.15697
 21
256.309
  0
LINE
  8
0
 10
-3.15697
 20
242.701
 11
-3.46844
 21
242.74
  0
LINE
  8
0
 10
-3.46844
 20
242.74
 11
-3.77254
 21
242.818
  0
LINE
  8
0
 10
-3.77254
 20
242.818
 11
-4.06444
 21
242.934
  0
LINE
  8
0
 10
-4.06444
 20
242.934
 11
-4.33955
 21
243.085
  0
LINE
  8
0
 10
-4.33955
 20
243.085
 11
-4.59355
 21
243.27
  0
LINE
  8
0
 10
-4.59355
 20
243.27
 11
-4.82242
 21
243.485
  0
LINE
  8
0
 10
-4.82242
 20
243.485
 11
-5.02254
 21
243.727
  0
LINE
  8
0
 10
-5.02254
 20
243.727
 11
-5.19077
 21
243.992
  0
LINE
  8
0
 10
-5.19077
 20
243.992
 11
-5.32443
 21
244.276
  0
LINE
  8
0
 10
-5.32443
 20
244.276
 11
-5.42145
 21
244.574
  0
LINE
  8
0
 10
-5.42145
 20
244.574
 11
-5.48029
 21
244.883
  0
LINE
  8
0
 10
-5.48029
 20
244.883
 11
-5.5
 21
245.196
  0
LINE
  8
0
 10
-5.5
 20
245.196
 11
-5.48029
 21
245.509
  0
LINE
  8
0
 10
-5.48029
 20
245.509
 11
-5.42145
 21
245.818
  0
LINE
  8
0
 10
-5.42145
 20
245.818
 11
-5.32443
 21
246.116
  0
LINE
  8
0
 10
-5.32443
 20
246.116
 11
-5.19077
 21
246.401
  0
LINE
  8
0
 10
-5.19077
 20
246.401
 11
-5.02254
 21
246.666
  0
LINE
  8
0
 10
-5.02254
 20
246.666
 11
-4.82242
 21
246.908
  0
LINE
  8
0
 10
-4.82242
 20
246.908
 11
-4.59355
 21
247.122
  0
LINE
  8
0
 10
-4.59355
 20
247.122
 11
-4.56808
 21
247.141
  0
LINE
  8
0
 10
-4.56808
 20
247.141
 11
-3.27916
 21
246.81
  0
LINE
  8
0
 10
-3.27916
 20
246.81
 11
-1.09883
 21
246.535
  0
LINE
  8
0
 10
-1.09883
 20
246.535
 11
-0.894272
 21
246.535
  0
LINE
  8
0
 10
-0.894272
 20
246.535
 11
-0.809219
 21
246.401
  0
LINE
  8
0
 10
-0.809219
 20
246.401
 11
-0.675552
 21
246.116
  0
LINE
  8
0
 10
-0.675552
 20
246.116
 11
-0.578537
 21
245.818
  0
LINE
  8
0
 10
-0.578537
 20
245.818
 11
-0.519699
 21
245.509
  0
LINE
  8
0
 10
-0.519699
 20
245.509
 11
-0.5
 21
245.196
  0
LINE
  8
0
 10
-0.5
 20
245.196
 11
-0.519699
 21
244.883
  0
LINE
  8
0
 10
-0.519699
 20
244.883
 11
-0.578537
 21
244.574
  0
LINE
  8
0
 10
-0.578537
 20
244.574
 11
-0.675552
 21
244.276
  0
LINE
  8
0
 10
-0.675552
 20
244.276
 11
-0.809219
 21
243.992
  0
LINE
  8
0
 10
-0.809219
 20
243.992
 11
-0.977448
 21
243.727
  0
LINE
  8
0
 10
-0.977448
 20
243.727
 11
-1.17757
 21
243.485
  0
LINE
  8
0
 10
-1.17757
 20
243.485
 11
-1.40643
 21
243.27
  0
LINE
  8
0
 10
-1.40643
 20
243.27
 11
-1.66043
 21
243.085
  0
LINE
  8
0
 10
-1.66043
 20
243.085
 11
-1.93555
 21
242.934
  0
LINE
  8
0
 10
-1.93555
 20
242.934
 11
-2.22745
 21
242.818
  0
LINE
  8
0
 10
-2.22745
 20
242.818
 11
-2.53154
 21
242.74
  0
LINE
  8
0
 10
-2.53154
 20
242.74
 11
-2.84302
 21
242.701
  0
LINE
  8
0
 10
-2.84302
 20
242.701
 11
-3.15697
 21
242.701
  0
LINE
  8
0
 10
5.84302
 20
237.505
 11
5.53154
 21
237.544
  0
LINE
  8
0
 10
5.53154
 20
237.544
 11
5.22745
 21
237.622
  0
LINE
  8
0
 10
5.22745
 20
237.622
 11
4.93555
 21
237.738
  0
LINE
  8
0
 10
4.93555
 20
237.738
 11
4.66043
 21
237.889
  0
LINE
  8
0
 10
4.66043
 20
237.889
 11
4.40643
 21
238.074
  0
LINE
  8
0
 10
4.40643
 20
238.074
 11
4.17757
 21
238.289
  0
LINE
  8
0
 10
4.17757
 20
238.289
 11
3.97745
 21
238.531
  0
LINE
  8
0
 10
3.97745
 20
238.531
 11
3.80922
 21
238.796
  0
LINE
  8
0
 10
3.80922
 20
238.796
 11
3.67555
 21
239.08
  0
LINE
  8
0
 10
3.67555
 20
239.08
 11
3.57854
 21
239.378
  0
LINE
  8
0
 10
3.57854
 20
239.378
 11
3.5197
 21
239.687
  0
LINE
  8
0
 10
3.5197
 20
239.687
 11
3.5
 21
240
  0
LINE
  8
0
 10
3.5
 20
240
 11
3.5197
 21
240.313
  0
LINE
  8
0
 10
3.5197
 20
240.313
 11
3.57854
 21
240.622
  0
LINE
  8
0
 10
3.57854
 20
240.622
 11
3.67555
 21
240.92
  0
LINE
  8
0
 10
3.67555
 20
240.92
 11
3.80922
 21
241.204
  0
LINE
  8
0
 10
3.80922
 20
241.204
 11
3.97745
 21
241.469
  0
LINE
  8
0
 10
3.97745
 20
241.469
 11
4.17757
 21
241.711
  0
LINE
  8
0
 10
4.17757
 20
241.711
 11
4.40643
 21
241.926
  0
LINE
  8
0
 10
4.40643
 20
241.926
 11
4.66043
 21
242.111
  0
LINE
  8
0
 10
4.66043
 20
242.111
 11
4.93555
 21
242.262
  0
LINE
  8
0
 10
4.93555
 20
242.262
 11
5.22745
 21
242.378
  0
LINE
  8
0
 10
5.22745
 20
242.378
 11
5.53154
 21
242.456
  0
LINE
  8
0
 10
5.53154
 20
242.456
 11
5.84302
 21
242.495
  0
LINE
  8
0
 10
5.84302
 20
242.495
 11
6.15697
 21
242.495
  0
LINE
  8
0
 10
6.15697
 20
242.495
 11
6.46844
 21
242.456
  0
LINE
  8
0
 10
6.46844
 20
242.456
 11
6.77254
 21
242.378
  0
LINE
  8
0
 10
6.77254
 20
242.378
 11
7.06444
 21
242.262
  0
LINE
  8
0
 10
7.06444
 20
242.262
 11
7.33955
 21
242.111
  0
LINE
  8
0
 10
7.33955
 20
242.111
 11
7.59355
 21
241.926
  0
LINE
  8
0
 10
7.59355
 20
241.926
 11
7.82242
 21
241.711
  0
LINE
  8
0
 10
7.82242
 20
241.711
 11
8.02254
 21
241.469
  0
LINE
  8
0
 10
8.02254
 20
241.469
 11
8.19077
 21
241.204
  0
LINE
  8
0
 10
8.19077
 20
241.204
 11
8.32443
 21
240.92
  0
LINE
  8
0
 10
8.32443
 20
240.92
 11
8.42145
 21
240.622
  0
LINE
  8
0
 10
8.42145
 20
240.622
 11
8.48029
 21
240.313
  0
LINE
  8
0
 10
8.48029
 20
240.313
 11
8.5
 21
240
  0
LINE
  8
0
 10
8.5
 20
240
 11
8.48029
 21
239.687
  0
LINE
  8
0
 10
8.48029
 20
239.687
 11
8.42145
 21
239.378
  0
LINE
  8
0
 10
8.42145
 20
239.378
 11
8.32443
 21
239.08
  0
LINE
  8
0
 10
8.32443
 20
239.08
 11
8.19077
 21
238.796
  0
LINE
  8
0
 10
8.19077
 20
238.796
 11
8.02254
 21
238.531
  0
LINE
  8
0
 10
8.02254
 20
238.531
 11
7.82242
 21
238.289
  0
LINE
  8
0
 10
7.82242
 20
238.289
 11
7.59355
 21
238.074
  0
LINE
  8
0
 10
7.59355
 20
238.074
 11
7.33955
 21
237.889
  0
LINE
  8
0
 10
7.33955
 20
237.889
 11
7.06444
 21
237.738
  0
LINE
  8
0
 10
7.06444
 20
237.738
 11
6.77254
 21
237.622
  0
LINE
  8
0
 10
6.77254
 20
237.622
 11
6.46844
 21
237.544
  0
LINE
  8
0
 10
6.46844
 20
237.544
 11
6.15697
 21
237.505
  0
LINE
  8
0
 10
6.15697
 20
237.505
 11
5.84302
 21
237.505
  0
LINE
  8
0
 10
-3.15697
 20
232.309
 11
-3.46844
 21
232.348
  0
LINE
  8
0
 10
-3.46844
 20
232.348
 11
-3.77254
 21
232.426
  0
LINE
  8
0
 10
-3.77254
 20
232.426
 11
-4.06444
 21
232.542
  0
LINE
  8
0
 10
-4.06444
 20
232.542
 11
-4.33955
 21
232.693
  0
LINE
  8
0
 10
-4.33955
 20
232.693
 11
-4.59355
 21
232.878
  0
LINE
  8
0
 10
-4.59355
 20
232.878
 11
-4.82242
 21
233.092
  0
LINE
  8
0
 10
-4.82242
 20
233.092
 11
-5.02254
 21
233.334
  0
LINE
  8
0
 10
-5.02254
 20
233.334
 11
-5.19077
 21
233.599
  0
LINE
  8
0
 10
-5.19077
 20
233.599
 11
-5.32443
 21
233.884
  0
LINE
  8
0
 10
-5.32443
 20
233.884
 11
-5.42145
 21
234.182
  0
LINE
  8
0
 10
-5.42145
 20
234.182
 11
-5.48029
 21
234.491
  0
LINE
  8
0
 10
-5.48029
 20
234.491
 11
-5.5
 21
234.804
  0
LINE
  8
0
 10
-5.5
 20
234.804
 11
-5.48029
 21
235.117
  0
LINE
  8
0
 10
-5.48029
 20
235.117
 11
-5.42145
 21
235.426
  0
LINE
  8
0
 10
-5.42145
 20
235.426
 11
-5.32443
 21
235.724
  0
LINE
  8
0
 10
-5.32443
 20
235.724
 11
-5.19077
 21
236.008
  0
LINE
  8
0
 10
-5.19077
 20
236.008
 11
-5.02254
 21
236.273
  0
LINE
  8
0
 10
-5.02254
 20
236.273
 11
-4.82242
 21
236.515
  0
LINE
  8
0
 10
-4.82242
 20
236.515
 11
-4.59355
 21
236.73
  0
LINE
  8
0
 10
-4.59355
 20
236.73
 11
-4.33955
 21
236.915
  0
LINE
  8
0
 10
-4.33955
 20
236.915
 11
-4.06444
 21
237.066
  0
LINE
  8
0
 10
-4.06444
 20
237.066
 11
-3.77254
 21
237.182
  0
LINE
  8
0
 10
-3.77254
 20
237.182
 11
-3.46844
 21
237.26
  0
LINE
  8
0
 10
-3.46844
 20
237.26
 11
-3.15697
 21
237.299
  0
LINE
  8
0
 10
-3.15697
 20
237.299
 11
-2.84302
 21
237.299
  0
LINE
  8
0
 10
-2.84302
 20
237.299
 11
-2.53154
 21
237.26
  0
LINE
  8
0
 10
-2.53154
 20
237.26
 11
-2.22745
 21
237.182
  0
LINE
  8
0
 10
-2.22745
 20
237.182
 11
-1.93555
 21
237.066
  0
LINE
  8
0
 10
-1.93555
 20
237.066
 11
-1.66043
 21
236.915
  0
LINE
  8
0
 10
-1.66043
 20
236.915
 11
-1.40643
 21
236.73
  0
LINE
  8
0
 10
-1.40643
 20
236.73
 11
-1.17757
 21
236.515
  0
LINE
  8
0
 10
-1.17757
 20
236.515
 11
-0.977448
 21
236.273
  0
LINE
  8
0
 10
-0.977448
 20
236.273
 11
-0.809219
 21
236.008
  0
LINE
  8
0
 10
-0.809219
 20
236.008
 11
-0.675552
 21
235.724
  0
LINE
  8
0
 10
-0.675552
 20
235.724
 11
-0.578537
 21
235.426
  0
LINE
  8
0
 10
-0.578537
 20
235.426
 11
-0.519699
 21
235.117
  0
LINE
  8
0
 10
-0.519699
 20
235.117
 11
-0.5
 21
234.804
  0
LINE
  8
0
 10
-0.5
 20
234.804
 11
-0.519699
 21
234.491
  0
LINE
  8
0
 10
-0.519699
 20
234.491
 11
-0.578537
 21
234.182
  0
LINE
  8
0
 10
-0.578537
 20
234.182
 11
-0.675552
 21
233.884
  0
LINE
  8
0
 10
-0.675552
 20
233.884
 11
-0.809219
 21
233.599
  0
LINE
  8
0
 10
-0.809219
 20
233.599
 11
-0.977448
 21
233.334
  0
LINE
  8
0
 10
-0.977448
 20
233.334
 11
-1.17757
 21
233.092
  0
LINE
  8
0
 10
-1.17757
 20
233.092
 11
-1.40643
 21
232.878
  0
LINE
  8
0
 10
-1.40643
 20
232.878
 11
-1.66043
 21
232.693
  0
LINE
  8
0
 10
-1.66043
 20
232.693
 11
-1.93555
 21
232.542
  0
LINE
  8
0
 10
-1.93555
 20
232.542
 11
-2.22745
 21
232.426
  0
LINE
  8
0
 10
-2.22745
 20
232.426
 11
-2.53154
 21
232.348
  0
LINE
  8
0
 10
-2.53154
 20
232.348
 11
-2.84302
 21
232.309
  0
LINE
  8
0
 10
-2.84302
 20
232.309
 11
-3.15697
 21
232.309
  0
LINE
  8
0
 10
1.87381
 20
206.177
 11
3.09016
 21
206.489
  0
LINE
  8
0
 10
3.09016
 20
206.489
 11
4.25778
 21
206.952
  0
LINE
  8
0
 10
4.25778
 20
206.952
 11
5.35826
 21
207.557
  0
LINE
  8
0
 10
5.35826
 20
207.557
 11
6.37424
 21
208.295
  0
LINE
  8
0
 10
6.37424
 20
208.295
 11
7.28967
 21
209.155
  0
LINE
  8
0
 10
7.28967
 20
209.155
 11
8.09016
 21
210.122
  0
LINE
  8
0
 10
8.09016
 20
210.122
 11
8.76306
 21
211.182
  0
LINE
  8
0
 10
8.76306
 20
211.182
 11
9.29776
 21
212.319
  0
LINE
  8
0
 10
9.29776
 20
212.319
 11
9.68582
 21
213.513
  0
LINE
  8
0
 10
9.68582
 20
213.513
 11
9.92114
 21
214.747
  0
LINE
  8
0
 10
9.92114
 20
214.747
 11
10
 21
216
  0
LINE
  8
0
 10
10
 20
216
 11
9.92114
 21
217.253
  0
LINE
  8
0
 10
9.92114
 20
217.253
 11
9.68582
 21
218.487
  0
LINE
  8
0
 10
9.68582
 20
218.487
 11
9.29776
 21
219.681
  0
LINE
  8
0
 10
9.29776
 20
219.681
 11
8.76306
 21
220.818
  0
LINE
  8
0
 10
8.76306
 20
220.818
 11
8.09016
 21
221.878
  0
LINE
  8
0
 10
8.09016
 20
221.878
 11
7.28967
 21
222.845
  0
LINE
  8
0
 10
7.28967
 20
222.845
 11
6.37424
 21
223.705
  0
LINE
  8
0
 10
6.37424
 20
223.705
 11
5.35826
 21
224.443
  0
LINE
  8
0
 10
5.35826
 20
224.443
 11
4.25778
 21
225.048
  0
LINE
  8
0
 10
4.25778
 20
225.048
 11
3.09016
 21
225.511
  0
LINE
  8
0
 10
3.09016
 20
225.511
 11
1.87381
 21
225.823
  0
LINE
  8
0
 10
1.87381
 20
225.823
 11
0.627899
 21
225.98
  0
LINE
  8
0
 10
0.627899
 20
225.98
 11
-0.627899
 21
225.98
  0
LINE
  8
0
 10
-0.627899
 20
225.98
 11
-1.87381
 21
225.823
  0
LINE
  8
0
 10
-1.87381
 20
225.823
 11
-3.09016
 21
225.511
  0
LINE
  8
0
 10
-3.09016
 20
225.511
 11
-4.25778
 21
225.048
  0
LINE
  8
0
 10
-4.25778
 20
225.048
 11
-5.35826
 21
224.443
  0
LINE
  8
0
 10
-5.35826
 20
224.443
 11
-6.37424
 21
223.705
  0
LINE
  8
0
 10
-6.37424
 20
223.705
 11
-7.28967
 21
222.845
  0
LINE
  8
0
 10
-7.28967
 20
222.845
 11
-8.09016
 21
221.878
  0
LINE
  8
0
 10
-8.09016
 20
221.878
 11
-8.76306
 21
220.818
  0
LINE
  8
0
 10
-8.76306
 20
220.818
 11
-9.29776
 21
219.681
  0
LINE
  8
0
 10
-9.29776
 20
219.681
 11
-9.68582
 21
218.487
  0
LINE
  8
0
 10
-9.68582
 20
218.487
 11
-9.92114
 21
217.253
  0
LINE
  8
0
 10
-9.92114
 20
217.253
 11
-10
 21
216
  0
LINE
  8
0
 10
-10
 20
216
 11
-9.92114
 21
214.747
  0
LINE
  8
0
 10
-9.92114
 20
214.747
 11
-9.68582
 21
213.513
  0
LINE
  8
0
 10
-9.68582
 20
213.513
 11
-9.29776
 21
212.319
  0
LINE
  8
0
 10
-9.29776
 20
212.319
 11
-8.76306
 21
211.182
  0
LINE
  8
0
 10
-8.76306
 20
211.182
 11
-8.09016
 21
210.122
  0
LINE
  8
0
 10
-8.09016
 20
210.122
 11
-7.28967
 21
209.155
  0
LINE
  8
0
 10
-7.28967
 20
209.155
 11
-6.37424
 21
208.295
  0
LINE
  8
0
 10
-6.37424
 20
208.295
 11
-5.35826
 21
207.557
  0
LINE
  8
0
 10
-5.35826
 20
207.557
 11
-4.25778
 21
206.952
  0
LINE
  8
0
 10
-4.25778
 20
206.952
 11
-3.09016
 21
206.489
  0
LINE
  8
0
 10
-3.09016
 20
206.489
 11
-1.87381
 21
206.177
  0
LINE
  8
0
 10
-1.87381
 20
206.177
 11
-0.627899
 21
206.02
  0
LINE
  8
0
 10
-0.627899
 20
206.02
 11
0.627899
 21
206.02
  0
LINE
  8
0
 10
0.627899
 20
206.02
 11
1.87381
 21
206.177
  0
LINE
  8
0
 10
-3.15697
 20
218.701
 11
-3.46844
 21
218.74
  0
LINE
  8
0
 10
-3.46844
 20
218.74
 11
-3.77254
 21
218.818
  0
LINE
  8
0
 10
-3.77254
 20
218.818
 11
-4.06444
 21
218.934
  0
LINE
  8
0
 10
-4.06444
 20
218.934
 11
-4.33955
 21
219.085
  0
LINE
  8
0
 10
-4.33955
 20
219.085
 11
-4.59355
 21
219.27
  0
LINE
  8
0
 10
-4.59355
 20
219.27
 11
-4.82242
 21
219.485
  0
LINE
  8
0
 10
-4.82242
 20
219.485
 11
-5.02254
 21
219.727
  0
LINE
  8
0
 10
-5.02254
 20
219.727
 11
-5.19077
 21
219.992
  0
LINE
  8
0
 10
-5.19077
 20
219.992
 11
-5.32443
 21
220.276
  0
LINE
  8
0
 10
-5.32443
 20
220.276
 11
-5.42145
 21
220.574
  0
LINE
  8
0
 10
-5.42145
 20
220.574
 11
-5.48029
 21
220.883
  0
LINE
  8
0
 10
-5.48029
 20
220.883
 11
-5.5
 21
221.196
  0
LINE
  8
0
 10
-5.5
 20
221.196
 11
-5.48029
 21
221.509
  0
LINE
  8
0
 10
-5.48029
 20
221.509
 11
-5.42145
 21
221.818
  0
LINE
  8
0
 10
-5.42145
 20
221.818
 11
-5.32443
 21
222.116
  0
LINE
  8
0
 10
-5.32443
 20
222.116
 11
-5.19077
 21
222.401
  0
LINE
  8
0
 10
-5.19077
 20
222.401
 11
-5.02254
 21
222.666
  0
LINE
  8
0
 10
-5.02254
 20
222.666
 11
-4.82242
 21
222.908
  0
LINE
  8
0
 10
-4.82242
 20
222.908
 11
-4.59355
 21
223.122
  0
LINE
  8
0
 10
-4.59355
 20
223.122
 11
-4.33955
 21
223.307
  0
LINE
  8
0
 10
-4.33955
 20
223.307
 11
-4.06444
 21
223.458
  0
LINE
  8
0
 10
-4.06444
 20
223.458
 11
-3.77254
 21
223.574
  0
LINE
  8
0
 10
-3.77254
 20
223.574
 11
-3.46844
 21
223.652
  0
LINE
  8
0
 10
-3.46844
 20
223.652
 11
-3.15697
 21
223.691
  0
LINE
  8
0
 10
-3.15697
 20
223.691
 11
-2.84302
 21
223.691
  0
LINE
  8
0
 10
-2.84302
 20
223.691
 11
-2.53154
 21
223.652
  0
LINE
  8
0
 10
-2.53154
 20
223.652
 11
-2.22745
 21
223.574
  0
LINE
  8
0
 10
-2.22745
 20
223.574
 11
-1.93555
 21
223.458
  0
LINE
  8
0
 10
-1.93555
 20
223.458
 11
-1.66043
 21
223.307
  0
LINE
  8
0
 10
-1.66043
 20
223.307
 11
-1.40643
 21
223.122
  0
LINE
  8
0
 10
-1.40643
 20
223.122
 11
-1.17757
 21
222.908
  0
LINE
  8
0
 10
-1.17757
 20
222.908
 11
-0.977448
 21
222.666
  0
LINE
  8
0
 10
-0.977448
 20
222.666
 11
-0.809219
 21
222.401
  0
LINE
  8
0
 10
-0.809219
 20
222.401
 11
-0.675552
 21
222.116
  0
LINE
  8
0
 10
-0.675552
 20
222.116
 11
-0.578537
 21
221.818
  0
LINE
  8
0
 10
-0.578537
 20
221.818
 11
-0.519699
 21
221.509
  0
LINE
  8
0
 10
-0.519699
 20
221.509
 11
-0.5
 21
221.196
  0
LINE
  8
0
 10
-0.5
 20
221.196
 11
-0.519699
 21
220.883
  0
LINE
  8
0
 10
-0.519699
 20
220.883
 11
-0.578537
 21
220.574
  0
LINE
  8
0
 10
-0.578537
 20
220.574
 11
-0.675552
 21
220.276
  0
LINE
  8
0
 10
-0.675552
 20
220.276
 11
-0.809219
 21
219.992
  0
LINE
  8
0
 10
-0.809219
 20
219.992
 11
-0.977448
 21
219.727
  0
LINE
  8
0
 10
-0.977448
 20
219.727
 11
-1.17757
 21
219.485
  0
LINE
  8
0
 10
-1.17757
 20
219.485
 11
-1.40643
 21
219.27
  0
LINE
  8
0
 10
-1.40643
 20
219.27
 11
-1.66043
 21
219.085
  0
LINE
  8
0
 10
-1.66043
 20
219.085
 11
-1.93555
 21
218.934
  0
LINE
  8
0
 10
-1.93555
 20
218.934
 11
-2.22745
 21
218.818
  0
LINE
  8
0
 10
-2.22745
 20
218.818
 11
-2.53154
 21
218.74
  0
LINE
  8
0
 10
-2.53154
 20
218.74
 11
-2.84302
 21
218.701
  0
LINE
  8
0
 10
-2.84302
 20
218.701
 11
-3.15697
 21
218.701
  0
LINE
  8
0
 10
5.84302
 20
213.505
 11
5.53154
 21
213.544
  0
LINE
  8
0
 10
5.53154
 20
213.544
 11
5.22745
 21
213.622
  0
LINE
  8
0
 10
5.22745
 20
213.622
 11
4.93555
 21
213.738
  0
LINE
  8
0
 10
4.93555
 20
213.738
 11
4.66043
 21
213.889
  0
LINE
  8
0
 10
4.66043
 20
213.889
 11
4.40643
 21
214.074
  0
LINE
  8
0
 10
4.40643
 20
214.074
 11
4.17757
 21
214.289
  0
LINE
  8
0
 10
4.17757
 20
214.289
 11
3.97745
 21
214.531
  0
LINE
  8
0
 10
3.97745
 20
214.531
 11
3.80922
 21
214.796
  0
LINE
  8
0
 10
3.80922
 20
214.796
 11
3.67555
 21
215.08
  0
LINE
  8
0
 10
3.67555
 20
215.08
 11
3.57854
 21
215.378
  0
LINE
  8
0
 10
3.57854
 20
215.378
 11
3.5197
 21
215.687
  0
LINE
  8
0
 10
3.5197
 20
215.687
 11
3.5
 21
216
  0
LINE
  8
0
 10
3.5
 20
216
 11
3.5197
 21
216.313
  0
LINE
  8
0
 10
3.5197
 20
216.313
 11
3.57854
 21
216.622
  0
LINE
  8
0
 10
3.57854
 20
216.622
 11
3.67555
 21
216.92
  0
LINE
  8
0
 10
3.67555
 20
216.92
 11
3.80922
 21
217.204
  0
LINE
  8
0
 10
3.80922
 20
217.204
 11
3.97745
 21
217.469
  0
LINE
  8
0
 10
3.97745
 20
217.469
 11
4.17757
 21
217.711
  0
LINE
  8
0
 10
4.17757
 20
217.711
 11
4.40643
 21
217.926
  0
LINE
  8
0
 10
4.40643
 20
217.926
 11
4.66043
 21
218.111
  0
LINE
  8
0
 10
4.66043
 20
218.111
 11
4.93555
 21
218.262
  0
LINE
  8
0
 10
4.93555
 20
218.262
 11
5.22745
 21
218.378
  0
LINE
  8
0
 10
5.22745
 20
218.378
 11
5.53154
 21
218.456
  0
LINE
  8
0
 10
5.53154
 20
218.456
 11
5.84302
 21
218.495
  0
LINE
  8
0
 10
5.84302
 20
218.495
 11
6.15697
 21
218.495
  0
LINE
  8
0
 10
6.15697
 20
218.495
 11
6.46844
 21
218.456
  0
LINE
  8
0
 10
6.46844
 20
218.456
 11
6.77254
 21
218.378
  0
LINE
  8
0
 10
6.77254
 20
218.378
 11
7.06444
 21
218.262
  0
LINE
  8
0
 10
7.06444
 20
218.262
 11
7.33955
 21
218.111
  0
LINE
  8
0
 10
7.33955
 20
218.111
 11
7.59355
 21
217.926
  0
LINE
  8
0
 10
7.59355
 20
217.926
 11
7.82242
 21
217.711
  0
LINE
  8
0
 10
7.82242
 20
217.711
 11
8.02254
 21
217.469
  0
LINE
  8
0
 10
8.02254
 20
217.469
 11
8.19077
 21
217.204
  0
LINE
  8
0
 10
8.19077
 20
217.204
 11
8.32443
 21
216.92
  0
LINE
  8
0
 10
8.32443
 20
216.92
 11
8.42145
 21
216.622
  0
LINE
  8
0
 10
8.42145
 20
216.622
 11
8.48029
 21
216.313
  0
LINE
  8
0
 10
8.48029
 20
216.313
 11
8.5
 21
216
  0
LINE
  8
0
 10
8.5
 20
216
 11
8.48029
 21
215.687
  0
LINE
  8
0
 10
8.48029
 20
215.687
 11
8.42145
 21
215.378
  0
LINE
  8
0
 10
8.42145
 20
215.378
 11
8.32443
 21
215.08
  0
LINE
  8
0
 10
8.32443
 20
215.08
 11
8.19077
 21
214.796
  0
LINE
  8
0
 10
8.19077
 20
214.796
 11
8.02254
 21
214.531
  0
LINE
  8
0
 10
8.02254
 20
214.531
 11
7.82242
 21
214.289
  0
LINE
  8
0
 10
7.82242
 20
214.289
 11
7.59355
 21
214.074
  0
LINE
  8
0
 10
7.59355
 20
214.074
 11
7.33955
 21
213.889
  0
LINE
  8
0
 10
7.33955
 20
213.889
 11
7.06444
 21
213.738
  0
LINE
  8
0
 10
7.06444
 20
213.738
 11
6.77254
 21
213.622
  0
LINE
  8
0
 10
6.77254
 20
213.622
 11
6.46844
 21
213.544
  0
LINE
  8
0
 10
6.46844
 20
213.544
 11
6.15697
 21
213.505
  0
LINE
  8
0
 10
6.15697
 20
213.505
 11
5.84302
 21
213.505
  0
LINE
  8
0
 10
-3.15697
 20
208.309
 11
-3.46844
 21
208.348
  0
LINE
  8
0
 10
-3.46844
 20
208.348
 11
-3.77254
 21
208.426
  0
LINE
  8
0
 10
-3.77254
 20
208.426
 11
-4.06444
 21
208.542
  0
LINE
  8
0
 10
-4.06444
 20
208.542
 11
-4.33955
 21
208.693
  0
LINE
  8
0
 10
-4.33955
 20
208.693
 11
-4.59355
 21
208.878
  0
LINE
  8
0
 10
-4.59355
 20
208.878
 11
-4.82242
 21
209.092
  0
LINE
  8
0
 10
-4.82242
 20
209.092
 11
-5.02254
 21
209.334
  0
LINE
  8
0
 10
-5.02254
 20
209.334
 11
-5.19077
 21
209.599
  0
LINE
  8
0
 10
-5.19077
 20
209.599
 11
-5.32443
 21
209.884
  0
LINE
  8
0
 10
-5.32443
 20
209.884
 11
-5.42145
 21
210.182
  0
LINE
  8
0
 10
-5.42145
 20
210.182
 11
-5.48029
 21
210.491
  0
LINE
  8
0
 10
-5.48029
 20
210.491
 11
-5.5
 21
210.804
  0
LINE
  8
0
 10
-5.5
 20
210.804
 11
-5.48029
 21
211.117
  0
LINE
  8
0
 10
-5.48029
 20
211.117
 11
-5.42145
 21
211.426
  0
LINE
  8
0
 10
-5.42145
 20
211.426
 11
-5.32443
 21
211.724
  0
LINE
  8
0
 10
-5.32443
 20
211.724
 11
-5.19077
 21
212.008
  0
LINE
  8
0
 10
-5.19077
 20
212.008
 11
-5.02254
 21
212.273
  0
LINE
  8
0
 10
-5.02254
 20
212.273
 11
-4.82242
 21
212.515
  0
LINE
  8
0
 10
-4.82242
 20
212.515
 11
-4.59355
 21
212.73
  0
LINE
  8
0
 10
-4.59355
 20
212.73
 11
-4.33955
 21
212.915
  0
LINE
  8
0
 10
-4.33955
 20
212.915
 11
-4.06444
 21
213.066
  0
LINE
  8
0
 10
-4.06444
 20
213.066
 11
-3.77254
 21
213.182
  0
LINE
  8
0
 10
-3.77254
 20
213.182
 11
-3.46844
 21
213.26
  0
LINE
  8
0
 10
-3.46844
 20
213.26
 11
-3.15697
 21
213.299
  0
LINE
  8
0
 10
-3.15697
 20
213.299
 11
-2.84302
 21
213.299
  0
LINE
  8
0
 10
-2.84302
 20
213.299
 11
-2.53154
 21
213.26
  0
LINE
  8
0
 10
-2.53154
 20
213.26
 11
-2.22745
 21
213.182
  0
LINE
  8
0
 10
-2.22745
 20
213.182
 11
-1.93555
 21
213.066
  0
LINE
  8
0
 10
-1.93555
 20
213.066
 11
-1.66043
 21
212.915
  0
LINE
  8
0
 10
-1.66043
 20
212.915
 11
-1.40643
 21
212.73
  0
LINE
  8
0
 10
-1.40643
 20
212.73
 11
-1.17757
 21
212.515
  0
LINE
  8
0
 10
-1.17757
 20
212.515
 11
-0.977448
 21
212.273
  0
LINE
  8
0
 10
-0.977448
 20
212.273
 11
-0.809219
 21
212.008
  0
LINE
  8
0
 10
-0.809219
 20
212.008
 11
-0.675552
 21
211.724
  0
LINE
  8
0
 10
-0.675552
 20
211.724
 11
-0.578537
 21
211.426
  0
LINE
  8
0
 10
-0.578537
 20
211.426
 11
-0.519699
 21
211.117
  0
LINE
  8
0
 10
-0.519699
 20
211.117
 11
-0.5
 21
210.804
  0
LINE
  8
0
 10
-0.5
 20
210.804
 11
-0.519699
 21
210.491
  0
LINE
  8
0
 10
-0.519699
 20
210.491
 11
-0.578537
 21
210.182
  0
LINE
  8
0
 10
-0.578537
 20
210.182
 11
-0.675552
 21
209.884
  0
LINE
  8
0
 10
-0.675552
 20
209.884
 11
-0.809219
 21
209.599
  0
LINE
  8
0
 10
-0.809219
 20
209.599
 11
-0.977448
 21
209.334
  0
LINE
  8
0
 10
-0.977448
 20
209.334
 11
-1.17757
 21
209.092
  0
LINE
  8
0
 10
-1.17757
 20
209.092
 11
-1.40643
 21
208.878
  0
LINE
  8
0
 10
-1.40643
 20
208.878
 11
-1.66043
 21
208.693
  0
LINE
  8
0
 10
-1.66043
 20
208.693
 11
-1.93555
 21
208.542
  0
LINE
  8
0
 10
-1.93555
 20
208.542
 11
-2.22745
 21
208.426
  0
LINE
  8
0
 10
-2.22745
 20
208.426
 11
-2.53154
 21
208.348
  0
LINE
  8
0
 10
-2.53154
 20
208.348
 11
-2.84302
 21
208.309
  0
LINE
  8
0
 10
-2.84302
 20
208.309
 11
-3.15697
 21
208.309
  0
LINE
  8
0
 10
1.87381
 20
182.177
 11
3.09016
 21
182.489
  0
LINE
  8
0
 10
3.09016
 20
182.489
 11
4.25778
 21
182.952
  0
LINE
  8
0
 10
4.25778
 20
182.952
 11
5.35826
 21
183.557
  0
LINE
  8
0
 10
5.35826
 20
183.557
 11
6.37424
 21
184.295
  0
LINE
  8
0
 10
6.37424
 20
184.295
 11
7.28967
 21
185.155
  0
LINE
  8
0
 10
7.28967
 20
185.155
 11
8.09016
 21
186.122
  0
LINE
  8
0
 10
8.09016
 20
186.122
 11
8.76306
 21
187.182
  0
LINE
  8
0
 10
8.76306
 20
187.182
 11
9.29776
 21
188.319
  0
LINE
  8
0
 10
9.29776
 20
188.319
 11
9.68582
 21
189.513
  0
LINE
  8
0
 10
9.68582
 20
189.513
 11
9.92114
 21
190.747
  0
LINE
  8
0
 10
9.92114
 20
190.747
 11
10
 21
192
  0
LINE
  8
0
 10
10
 20
192
 11
9.92114
 21
193.253
  0
LINE
  8
0
 10
9.92114
 20
193.253
 11
9.68582
 21
194.487
  0
LINE
  8
0
 10
9.68582
 20
194.487
 11
9.29776
 21
195.681
  0
LINE
  8
0
 10
9.29776
 20
195.681
 11
8.76306
 21
196.818
  0
LINE
  8
0
 10
8.76306
 20
196.818
 11
8.09016
 21
197.878
  0
LINE
  8
0
 10
8.09016
 20
197.878
 11
7.28967
 21
198.845
  0
LINE
  8
0
 10
7.28967
 20
198.845
 11
6.37424
 21
199.705
  0
LINE
  8
0
 10
6.37424
 20
199.705
 11
5.35826
 21
200.443
  0
LINE
  8
0
 10
5.35826
 20
200.443
 11
4.25778
 21
201.048
  0
LINE
  8
0
 10
4.25778
 20
201.048
 11
3.09016
 21
201.511
  0
LINE
  8
0
 10
3.09016
 20
201.511
 11
1.87381
 21
201.823
  0
LINE
  8
0
 10
1.87381
 20
201.823
 11
0.627899
 21
201.98
  0
LINE
  8
0
 10
0.627899
 20
201.98
 11
-0.627899
 21
201.98
  0
LINE
  8
0
 10
-0.627899
 20
201.98
 11
-1.87381
 21
201.823
  0
LINE
  8
0
 10
-1.87381
 20
201.823
 11
-3.09016
 21
201.511
  0
LINE
  8
0
 10
-3.09016
 20
201.511
 11
-4.25778
 21
201.048
  0
LINE
  8
0
 10
-4.25778
 20
201.048
 11
-5.35826
 21
200.443
  0
LINE
  8
0
 10
-5.35826
 20
200.443
 11
-6.37424
 21
199.705
  0
LINE
  8
0
 10
-6.37424
 20
199.705
 11
-7.28967
 21
198.845
  0
LINE
  8
0
 10
-7.28967
 20
198.845
 11
-8.09016
 21
197.878
  0
LINE
  8
0
 10
-8.09016
 20
197.878
 11
-8.76306
 21
196.818
  0
LINE
  8
0
 10
-8.76306
 20
196.818
 11
-9.29776
 21
195.681
  0
LINE
  8
0
 10
-9.29776
 20
195.681
 11
-9.68582
 21
194.487
  0
LINE
  8
0
 10
-9.68582
 20
194.487
 11
-9.92114
 21
193.253
  0
LINE
  8
0
 10
-9.92114
 20
193.253
 11
-10
 21
192
  0
LINE
  8
0
 10
-10
 20
192
 11
-9.92114
 21
190.747
  0
LINE
  8
0
 10
-9.92114
 20
190.747
 11
-9.68582
 21
189.513
  0
LINE
  8
0
 10
-9.68582
 20
189.513
 11
-9.29776
 21
188.319
  0
LINE
  8
0
 10
-9.29776
 20
188.319
 11
-8.76306
 21
187.182
  0
LINE
  8
0
 10
-8.76306
 20
187.182
 11
-8.09016
 21
186.122
  0
LINE
  8
0
 10
-8.09016
 20
186.122
 11
-7.28967
 21
185.155
  0
LINE
  8
0
 10
-7.28967
 20
185.155
 11
-6.37424
 21
184.295
  0
LINE
  8
0
 10
-6.37424
 20
184.295
 11
-5.35826
 21
183.557
  0
LINE
  8
0
 10
-5.35826
 20
183.557
 11
-4.25778
 21
182.952
  0
LINE
  8
0
 10
-4.25778
 20
182.952
 11
-3.09016
 21
182.489
  0
LINE
  8
0
 10
-3.09016
 20
182.489
 11
-1.87381
 21
182.177
  0
LINE
  8
0
 10
-1.87381
 20
182.177
 11
-0.627899
 21
182.02
  0
LINE
  8
0
 10
-0.627899
 20
182.02
 11
0.627899
 21
182.02
  0
LINE
  8
0
 10
0.627899
 20
182.02
 11
1.87381
 21
182.177
  0
LINE
  8
0
 10
-3.15697
 20
194.701
 11
-3.46844
 21
194.74
  0
LINE
  8
0
 10
-3.46844
 20
194.74
 11
-3.77254
 21
194.818
  0
LINE
  8
0
 10
-3.77254
 20
194.818
 11
-4.06444
 21
194.934
  0
LINE
  8
0
 10
-4.06444
 20
194.934
 11
-4.33955
 21
195.085
  0
LINE
  8
0
 10
-4.33955
 20
195.085
 11
-4.59355
 21
195.27
  0
LINE
  8
0
 10
-4.59355
 20
195.27
 11
-4.82242
 21
195.485
  0
LINE
  8
0
 10
-4.82242
 20
195.485
 11
-5.02254
 21
195.727
  0
LINE
  8
0
 10
-5.02254
 20
195.727
 11
-5.19077
 21
195.992
  0
LINE
  8
0
 10
-5.19077
 20
195.992
 11
-5.32443
 21
196.276
  0
LINE
  8
0
 10
-5.32443
 20
196.276
 11
-5.42145
 21
196.574
  0
LINE
  8
0
 10
-5.42145
 20
196.574
 11
-5.48029
 21
196.883
  0
LINE
  8
0
 10
-5.48029
 20
196.883
 11
-5.5
 21
197.196
  0
LINE
  8
0
 10
-5.5
 20
197.196
 11
-5.48029
 21
197.509
  0
LINE
  8
0
 10
-5.48029
 20
197.509
 11
-5.42145
 21
197.818
  0
LINE
  8
0
 10
-5.42145
 20
197.818
 11
-5.32443
 21
198.116
  0
LINE
  8
0
 10
-5.32443
 20
198.116
 11
-5.19077
 21
198.401
  0
LINE
  8
0
 10
-5.19077
 20
198.401
 11
-5.02254
 21
198.666
  0
LINE
  8
0
 10
-5.02254
 20
198.666
 11
-4.82242
 21
198.908
  0
LINE
  8
0
 10
-4.82242
 20
198.908
 11
-4.59355
 21
199.122
  0
LINE
  8
0
 10
-4.59355
 20
199.122
 11
-4.33955
 21
199.307
  0
LINE
  8
0
 10
-4.33955
 20
199.307
 11
-4.06444
 21
199.458
  0
LINE
  8
0
 10
-4.06444
 20
199.458
 11
-3.77254
 21
199.574
  0
LINE
  8
0
 10
-3.77254
 20
199.574
 11
-3.46844
 21
199.652
  0
LINE
  8
0
 10
-3.46844
 20
199.652
 11
-3.15697
 21
199.691
  0
LINE
  8
0
 10
-3.15697
 20
199.691
 11
-2.84302
 21
199.691
  0
LINE
  8
0
 10
-2.84302
 20
199.691
 11
-2.53154
 21
199.652
  0
LINE
  8
0
 10
-2.53154
 20
199.652
 11
-2.22745
 21
199.574
  0
LINE
  8
0
 10
-2.22745
 20
199.574
 11
-1.93555
 21
199.458
  0
LINE
  8
0
 10
-1.93555
 20
199.458
 11
-1.66043
 21
199.307
  0
LINE
  8
0
 10
-1.66043
 20
199.307
 11
-1.40643
 21
199.122
  0
LINE
  8
0
 10
-1.40643
 20
199.122
 11
-1.17757
 21
198.908
  0
LINE
  8
0
 10
-1.17757
 20
198.908
 11
-0.977448
 21
198.666
  0
LINE
  8
0
 10
-0.977448
 20
198.666
 11
-0.809219
 21
198.401
  0
LINE
  8
0
 10
-0.809219
 20
198.401
 11
-0.675552
 21
198.116
  0
LINE
  8
0
 10
-0.675552
 20
198.116
 11
-0.578537
 21
197.818
  0
LINE
  8
0
 10
-0.578537
 20
197.818
 11
-0.519699
 21
197.509
  0
LINE
  8
0
 10
-0.519699
 20
197.509
 11
-0.5
 21
197.196
  0
LINE
  8
0
 10
-0.5
 20
197.196
 11
-0.519699
 21
196.883
  0
LINE
  8
0
 10
-0.519699
 20
196.883
 11
-0.578537
 21
196.574
  0
LINE
  8
0
 10
-0.578537
 20
196.574
 11
-0.675552
 21
196.276
  0
LINE
  8
0
 10
-0.675552
 20
196.276
 11
-0.809219
 21
195.992
  0
LINE
  8
0
 10
-0.809219
 20
195.992
 11
-0.977448
 21
195.727
  0
LINE
  8
0
 10
-0.977448
 20
195.727
 11
-1.17757
 21
195.485
  0
LINE
  8
0
 10
-1.17757
 20
195.485
 11
-1.40643
 21
195.27
  0
LINE
  8
0
 10
-1.40643
 20
195.27
 11
-1.66043
 21
195.085
  0
LINE
  8
0
 10
-1.66043
 20
195.085
 11
-1.93555
 21
194.934
  0
LINE
  8
0
 10
-1.93555
 20
194.934
 11
-2.22745
 21
194.818
  0
LINE
  8
0
 10
-2.22745
 20
194.818
 11
-2.53154
 21
194.74
  0
LINE
  8
0
 10
-2.53154
 20
194.74
 11
-2.84302
 21
194.701
  0
LINE
  8
0
 10
-2.84302
 20
194.701
 11
-3.15697
 21
194.701
  0
LINE
  8
0
 10
5.84302
 20
189.505
 11
5.53154
 21
189.544
  0
LINE
  8
0
 10
5.53154
 20
189.544
 11
5.22745
 21
189.622
  0
LINE
  8
0
 10
5.22745
 20
189.622
 11
4.93555
 21
189.738
  0
LINE
  8
0
 10
4.93555
 20
189.738
 11
4.66043
 21
189.889
  0
LINE
  8
0
 10
4.66043
 20
189.889
 11
4.40643
 21
190.074
  0
LINE
  8
0
 10
4.40643
 20
190.074
 11
4.17757
 21
190.289
  0
LINE
  8
0
 10
4.17757
 20
190.289
 11
3.97745
 21
190.531
  0
LINE
  8
0
 10
3.97745
 20
190.531
 11
3.80922
 21
190.796
  0
LINE
  8
0
 10
3.80922
 20
190.796
 11
3.67555
 21
191.08
  0
LINE
  8
0
 10
3.67555
 20
191.08
 11
3.57854
 21
191.378
  0
LINE
  8
0
 10
3.57854
 20
191.378
 11
3.5197
 21
191.687
  0
LINE
  8
0
 10
3.5197
 20
191.687
 11
3.5
 21
192
  0
LINE
  8
0
 10
3.5
 20
192
 11
3.5197
 21
192.313
  0
LINE
  8
0
 10
3.5197
 20
192.313
 11
3.57854
 21
192.622
  0
LINE
  8
0
 10
3.57854
 20
192.622
 11
3.67555
 21
192.92
  0
LINE
  8
0
 10
3.67555
 20
192.92
 11
3.80922
 21
193.204
  0
LINE
  8
0
 10
3.80922
 20
193.204
 11
3.97745
 21
193.469
  0
LINE
  8
0
 10
3.97745
 20
193.469
 11
4.17757
 21
193.711
  0
LINE
  8
0
 10
4.17757
 20
193.711
 11
4.40643
 21
193.926
  0
LINE
  8
0
 10
4.40643
 20
193.926
 11
4.66043
 21
194.111
  0
LINE
  8
0
 10
4.66043
 20
194.111
 11
4.93555
 21
194.262
  0
LINE
  8
0
 10
4.93555
 20
194.262
 11
5.22745
 21
194.378
  0
LINE
  8
0
 10
5.22745
 20
194.378
 11
5.53154
 21
194.456
  0
LINE
  8
0
 10
5.53154
 20
194.456
 11
5.84302
 21
194.495
  0
LINE
  8
0
 10
5.84302
 20
194.495
 11
6.15697
 21
194.495
  0
LINE
  8
0
 10
6.15697
 20
194.495
 11
6.46844
 21
194.456
  0
LINE
  8
0
 10
6.46844
 20
194.456
 11
6.77254
 21
194.378
  0
LINE
  8
0
 10
6.77254
 20
194.378
 11
7.06444
 21
194.262
  0
LINE
  8
0
 10
7.06444
 20
194.262
 11
7.33955
 21
194.111
  0
LINE
  8
0
 10
7.33955
 20
194.111
 11
7.59355
 21
193.926
  0
LINE
  8
0
 10
7.59355
 20
193.926
 11
7.82242
 21
193.711
  0
LINE
  8
0
 10
7.82242
 20
193.711
 11
8.02254
 21
193.469
  0
LINE
  8
0
 10
8.02254
 20
193.469
 11
8.19077
 21
193.204
  0
LINE
  8
0
 10
8.19077
 20
193.204
 11
8.32443
 21
192.92
  0
LINE
  8
0
 10
8.32443
 20
192.92
 11
8.42145
 21
192.622
  0
LINE
  8
0
 10
8.42145
 20
192.622
 11
8.48029
 21
192.313
  0
LINE
  8
0
 10
8.48029
 20
192.313
 11
8.5
 21
192
  0
LINE
  8
0
 10
8.5
 20
192
 11
8.48029
 21
191.687
  0
LINE
  8
0
 10
8.48029
 20
191.687
 11
8.42145
 21
191.378
  0
LINE
  8
0
 10
8.42145
 20
191.378
 11
8.32443
 21
191.08
  0
LINE
  8
0
 10
8.32443
 20
191.08
 11
8.19077
 21
190.796
  0
LINE
  8
0
 10
8.19077
 20
190.796
 11
8.02254
 21
190.531
  0
LINE
  8
0
 10
8.02254
 20
190.531
 11
7.82242
 21
190.289
  0
LINE
  8
0
 10
7.82242
 20
190.289
 11
7.59355
 21
190.074
  0
LINE
  8
0
 10
7.59355
 20
190.074
 11
7.33955
 21
189.889
  0
LINE
  8
0
 10
7.33955
 20
189.889
 11
7.06444
 21
189.738
  0
LINE
  8
0
 10
7.06444
 20
189.738
 11
6.77254
 21
189.622
  0
LINE
  8
0
 10
6.77254
 20
189.622
 11
6.46844
 21
189.544
  0
LINE
  8
0
 10
6.46844
 20
189.544
 11
6.15697
 21
189.505
  0
LINE
  8
0
 10
6.15697
 20
189.505
 11
5.84302
 21
189.505
  0
LINE
  8
0
 10
-3.15697
 20
184.309
 11
-3.46844
 21
184.348
  0
LINE
  8
0
 10
-3.46844
 20
184.348
 11
-3.77254
 21
184.426
  0
LINE
  8
0
 10
-3.77254
 20
184.426
 11
-4.06444
 21
184.542
  0
LINE
  8
0
 10
-4.06444
 20
184.542
 11
-4.33955
 21
184.693
  0
LINE
  8
0
 10
-4.33955
 20
184.693
 11
-4.59355
 21
184.878
  0
LINE
  8
0
 10
-4.59355
 20
184.878
 11
-4.82242
 21
185.092
  0
LINE
  8
0
 10
-4.82242
 20
185.092
 11
-5.02254
 21
185.334
  0
LINE
  8
0
 10
-5.02254
 20
185.334
 11
-5.19077
 21
185.599
  0
LINE
  8
0
 10
-5.19077
 20
185.599
 11
-5.32443
 21
185.884
  0
LINE
  8
0
 10
-5.32443
 20
185.884
 11
-5.42145
 21
186.182
  0
LINE
  8
0
 10
-5.42145
 20
186.182
 11
-5.48029
 21
186.491
  0
LINE
  8
0
 10
-5.48029
 20
186.491
 11
-5.5
 21
186.804
  0
LINE
  8
0
 10
-5.5
 20
186.804
 11
-5.48029
 21
187.117
  0
LINE
  8
0
 10
-5.48029
 20
187.117
 11
-5.42145
 21
187.426
  0
LINE
  8
0
 10
-5.42145
 20
187.426
 11
-5.32443
 21
187.724
  0
LINE
  8
0
 10
-5.32443
 20
187.724
 11
-5.19077
 21
188.008
  0
LINE
  8
0
 10
-5.19077
 20
188.008
 11
-5.02254
 21
188.273
  0
LINE
  8
0
 10
-5.02254
 20
188.273
 11
-4.82242
 21
188.515
  0
LINE
  8
0
 10
-4.82242
 20
188.515
 11
-4.59355
 21
188.73
  0
LINE
  8
0
 10
-4.59355
 20
188.73
 11
-4.33955
 21
188.915
  0
LINE
  8
0
 10
-4.33955
 20
188.915
 11
-4.06444
 21
189.066
  0
LINE
  8
0
 10
-4.06444
 20
189.066
 11
-3.77254
 21
189.182
  0
LINE
  8
0
 10
-3.77254
 20
189.182
 11
-3.46844
 21
189.26
  0
LINE
  8
0
 10
-3.46844
 20
189.26
 11
-3.15697
 21
189.299
  0
LINE
  8
0
 10
-3.15697
 20
189.299
 11
-2.84302
 21
189.299
  0
LINE
  8
0
 10
-2.84302
 20
189.299
 11
-2.53154
 21
189.26
  0
LINE
  8
0
 10
-2.53154
 20
189.26
 11
-2.22745
 21
189.182
  0
LINE
  8
0
 10
-2.22745
 20
189.182
 11
-1.93555
 21
189.066
  0
LINE
  8
0
 10
-1.93555
 20
189.066
 11
-1.66043
 21
188.915
  0
LINE
  8
0
 10
-1.66043
 20
188.915
 11
-1.40643
 21
188.73
  0
LINE
  8
0
 10
-1.40643
 20
188.73
 11
-1.17757
 21
188.515
  0
LINE
  8
0
 10
-1.17757
 20
188.515
 11
-0.977448
 21
188.273
  0
LINE
  8
0
 10
-0.977448
 20
188.273
 11
-0.809219
 21
188.008
  0
LINE
  8
0
 10
-0.809219
 20
188.008
 11
-0.675552
 21
187.724
  0
LINE
  8
0
 10
-0.675552
 20
187.724
 11
-0.578537
 21
187.426
  0
LINE
  8
0
 10
-0.578537
 20
187.426
 11
-0.519699
 21
187.117
  0
LINE
  8
0
 10
-0.519699
 20
187.117
 11
-0.5
 21
186.804
  0
LINE
  8
0
 10
-0.5
 20
186.804
 11
-0.519699
 21
186.491
  0
LINE
  8
0
 10
-0.519699
 20
186.491
 11
-0.578537
 21
186.182
  0
LINE
  8
0
 10
-0.578537
 20
186.182
 11
-0.675552
 21
185.884
  0
LINE
  8
0
 10
-0.675552
 20
185.884
 11
-0.809219
 21
185.599
  0
LINE
  8
0
 10
-0.809219
 20
185.599
 11
-0.977448
 21
185.334
  0
LINE
  8
0
 10
-0.977448
 20
185.334
 11
-1.17757
 21
185.092
  0
LINE
  8
0
 10
-1.17757
 20
185.092
 11
-1.40643
 21
184.878
  0
LINE
  8
0
 10
-1.40643
 20
184.878
 11
-1.66043
 21
184.693
  0
LINE
  8
0
 10
-1.66043
 20
184.693
 11
-1.93555
 21
184.542
  0
LINE
  8
0
 10
-1.93555
 20
184.542
 11
-2.22745
 21
184.426
  0
LINE
  8
0
 10
-2.22745
 20
184.426
 11
-2.53154
 21
184.348
  0
LINE
  8
0
 10
-2.53154
 20
184.348
 11
-2.84302
 21
184.309
  0
LINE
  8
0
 10
-2.84302
 20
184.309
 11
-3.15697
 21
184.309
  0
LINE
  8
0
 10
1.87381
 20
158.177
 11
3.09016
 21
158.489
  0
LINE
  8
0
 10
3.09016
 20
158.489
 11
4.25778
 21
158.952
  0
LINE
  8
0
 10
4.25778
 20
158.952
 11
5.35826
 21
159.557
  0
LINE
  8
0
 10
5.35826
 20
159.557
 11
6.37424
 21
160.295
  0
LINE
  8
0
 10
6.37424
 20
160.295
 11
7.28967
 21
161.155
  0
LINE
  8
0
 10
7.28967
 20
161.155
 11
8.09016
 21
162.122
  0
LINE
  8
0
 10
8.09016
 20
162.122
 11
8.76306
 21
163.182
  0
LINE
  8
0
 10
8.76306
 20
163.182
 11
9.29776
 21
164.319
  0
LINE
  8
0
 10
9.29776
 20
164.319
 11
9.68582
 21
165.513
  0
LINE
  8
0
 10
9.68582
 20
165.513
 11
9.92114
 21
166.747
  0
LINE
  8
0
 10
9.92114
 20
166.747
 11
10
 21
168
  0
LINE
  8
0
 10
10
 20
168
 11
9.92114
 21
169.253
  0
LINE
  8
0
 10
9.92114
 20
169.253
 11
9.68582
 21
170.487
  0
LINE
  8
0
 10
9.68582
 20
170.487
 11
9.29776
 21
171.681
  0
LINE
  8
0
 10
9.29776
 20
171.681
 11
8.76306
 21
172.818
  0
LINE
  8
0
 10
8.76306
 20
172.818
 11
8.09016
 21
173.878
  0
LINE
  8
0
 10
8.09016
 20
173.878
 11
7.28967
 21
174.845
  0
LINE
  8
0
 10
7.28967
 20
174.845
 11
6.37424
 21
175.705
  0
LINE
  8
0
 10
6.37424
 20
175.705
 11
5.35826
 21
176.443
  0
LINE
  8
0
 10
5.35826
 20
176.443
 11
4.25778
 21
177.048
  0
LINE
  8
0
 10
4.25778
 20
177.048
 11
3.09016
 21
177.511
  0
LINE
  8
0
 10
3.09016
 20
177.511
 11
1.87381
 21
177.823
  0
LINE
  8
0
 10
1.87381
 20
177.823
 11
0.627899
 21
177.98
  0
LINE
  8
0
 10
0.627899
 20
177.98
 11
-0.627899
 21
177.98
  0
LINE
  8
0
 10
-0.627899
 20
177.98
 11
-1.87381
 21
177.823
  0
LINE
  8
0
 10
-1.87381
 20
177.823
 11
-3.09016
 21
177.511
  0
LINE
  8
0
 10
-3.09016
 20
177.511
 11
-4.25778
 21
177.048
  0
LINE
  8
0
 10
-4.25778
 20
177.048
 11
-5.35826
 21
176.443
  0
LINE
  8
0
 10
-5.35826
 20
176.443
 11
-6.37424
 21
175.705
  0
LINE
  8
0
 10
-6.37424
 20
175.705
 11
-7.28967
 21
174.845
  0
LINE
  8
0
 10
-7.28967
 20
174.845
 11
-8.09016
 21
173.878
  0
LINE
  8
0
 10
-8.09016
 20
173.878
 11
-8.76306
 21
172.818
  0
LINE
  8
0
 10
-8.76306
 20
172.818
 11
-9.29776
 21
171.681
  0
LINE
  8
0
 10
-9.29776
 20
171.681
 11
-9.68582
 21
170.487
  0
LINE
  8
0
 10
-9.68582
 20
170.487
 11
-9.92114
 21
169.253
  0
LINE
  8
0
 10
-9.92114
 20
169.253
 11
-10
 21
168
  0
LINE
  8
0
 10
-10
 20
168
 11
-9.92114
 21
166.747
  0
LINE
  8
0
 10
-9.92114
 20
166.747
 11
-9.68582
 21
165.513
  0
LINE
  8
0
 10
-9.68582
 20
165.513
 11
-9.29776
 21
164.319
  0
LINE
  8
0
 10
-9.29776
 20
164.319
 11
-8.76306
 21
163.182
  0
LINE
  8
0
 10
-8.76306
 20
163.182
 11
-8.09016
 21
162.122
  0
LINE
  8
0
 10
-8.09016
 20
162.122
 11
-7.28967
 21
161.155
  0
LINE
  8
0
 10
-7.28967
 20
161.155
 11
-6.37424
 21
160.295
  0
LINE
  8
0
 10
-6.37424
 20
160.295
 11
-5.35826
 21
159.557
  0
LINE
  8
0
 10
-5.35826
 20
159.557
 11
-4.25778
 21
158.952
  0
LINE
  8
0
 10
-4.25778
 20
158.952
 11
-3.09016
 21
158.489
  0
LINE
  8
0
 10
-3.09016
 20
158.489
 11
-1.87381
 21
158.177
  0
LINE
  8
0
 10
-1.87381
 20
158.177
 11
-0.627899
 21
158.02
  0
LINE
  8
0
 10
-0.627899
 20
158.02
 11
0.627899
 21
158.02
  0
LINE
  8
0
 10
0.627899
 20
158.02
 11
1.87381
 21
158.177
  0
LINE
  8
0
 10
-3.15697
 20
170.701
 11
-3.46844
 21
170.74
  0
LINE
  8
0
 10
-3.46844
 20
170.74
 11
-3.77254
 21
170.818
  0
LINE
  8
0
 10
-3.77254
 20
170.818
 11
-4.06444
 21
170.934
  0
LINE
  8
0
 10
-4.06444
 20
170.934
 11
-4.33955
 21
171.085
  0
LINE
  8
0
 10
-4.33955
 20
171.085
 11
-4.59355
 21
171.27
  0
LINE
  8
0
 10
-4.59355
 20
171.27
 11
-4.82242
 21
171.485
  0
LINE
  8
0
 10
-4.82242
 20
171.485
 11
-5.02254
 21
171.727
  0
LINE
  8
0
 10
-5.02254
 20
171.727
 11
-5.19077
 21
171.992
  0
LINE
  8
0
 10
-5.19077
 20
171.992
 11
-5.32443
 21
172.276
  0
LINE
  8
0
 10
-5.32443
 20
172.276
 11
-5.42145
 21
172.574
  0
LINE
  8
0
 10
-5.42145
 20
172.574
 11
-5.48029
 21
172.883
  0
LINE
  8
0
 10
-5.48029
 20
172.883
 11
-5.5
 21
173.196
  0
LINE
  8
0
 10
-5.5
 20
173.196
 11
-5.48029
 21
173.509
  0
LINE
  8
0
 10
-5.48029
 20
173.509
 11
-5.42145
 21
173.818
  0
LINE
  8
0
 10
-5.42145
 20
173.818
 11
-5.32443
 21
174.116
  0
LINE
  8
0
 10
-5.32443
 20
174.116
 11
-5.19077
 21
174.401
  0
LINE
  8
0
 10
-5.19077
 20
174.401
 11
-5.02254
 21
174.666
  0
LINE
  8
0
 10
-5.02254
 20
174.666
 11
-4.82242
 21
174.908
  0
LINE
  8
0
 10
-4.82242
 20
174.908
 11
-4.59355
 21
175.122
  0
LINE
  8
0
 10
-4.59355
 20
175.122
 11
-4.33955
 21
175.307
  0
LINE
  8
0
 10
-4.33955
 20
175.307
 11
-4.06444
 21
175.458
  0
LINE
  8
0
 10
-4.06444
 20
175.458
 11
-3.77254
 21
175.574
  0
LINE
  8
0
 10
-3.77254
 20
175.574
 11
-3.46844
 21
175.652
  0
LINE
  8
0
 10
-3.46844
 20
175.652
 11
-3.15697
 21
175.691
  0
LINE
  8
0
 10
-3.15697
 20
175.691
 11
-2.84302
 21
175.691
  0
LINE
  8
0
 10
-2.84302
 20
175.691
 11
-2.53154
 21
175.652
  0
LINE
  8
0
 10
-2.53154
 20
175.652
 11
-2.22745
 21
175.574
  0
LINE
  8
0
 10
-2.22745
 20
175.574
 11
-1.93555
 21
175.458
  0
LINE
  8
0
 10
-1.93555
 20
175.458
 11
-1.66043
 21
175.307
  0
LINE
  8
0
 10
-1.66043
 20
175.307
 11
-1.40643
 21
175.122
  0
LINE
  8
0
 10
-1.40643
 20
175.122
 11
-1.17757
 21
174.908
  0
LINE
  8
0
 10
-1.17757
 20
174.908
 11
-0.977448
 21
174.666
  0
LINE
  8
0
 10
-0.977448
 20
174.666
 11
-0.809219
 21
174.401
  0
LINE
  8
0
 10
-0.809219
 20
174.401
 11
-0.675552
 21
174.116
  0
LINE
  8
0
 10
-0.675552
 20
174.116
 11
-0.578537
 21
173.818
  0
LINE
  8
0
 10
-0.578537
 20
173.818
 11
-0.519699
 21
173.509
  0
LINE
  8
0
 10
-0.519699
 20
173.509
 11
-0.5
 21
173.196
  0
LINE
  8
0
 10
-0.5
 20
173.196
 11
-0.519699
 21
172.883
  0
LINE
  8
0
 10
-0.519699
 20
172.883
 11
-0.578537
 21
172.574
  0
LINE
  8
0
 10
-0.578537
 20
172.574
 11
-0.675552
 21
172.276
  0
LINE
  8
0
 10
-0.675552
 20
172.276
 11
-0.809219
 21
171.992
  0
LINE
  8
0
 10
-0.809219
 20
171.992
 11
-0.977448
 21
171.727
  0
LINE
  8
0
 10
-0.977448
 20
171.727
 11
-1.17757
 21
171.485
  0
LINE
  8
0
 10
-1.17757
 20
171.485
 11
-1.40643
 21
171.27
  0
LINE
  8
0
 10
-1.40643
 20
171.27
 11
-1.66043
 21
171.085
  0
LINE
  8
0
 10
-1.66043
 20
171.085
 11
-1.93555
 21
170.934
  0
LINE
  8
0
 10
-1.93555
 20
170.934
 11
-2.22745
 21
170.818
  0
LINE
  8
0
 10
-2.22745
 20
170.818
 11
-2.53154
 21
170.74
  0
LINE
  8
0
 10
-2.53154
 20
170.74
 11
-2.84302
 21
170.701
  0
LINE
  8
0
 10
-2.84302
 20
170.701
 11
-3.15697
 21
170.701
  0
LINE
  8
0
 10
5.84302
 20
165.505
 11
5.53154
 21
165.544
  0
LINE
  8
0
 10
5.53154
 20
165.544
 11
5.22745
 21
165.622
  0
LINE
  8
0
 10
5.22745
 20
165.622
 11
4.93555
 21
165.738
  0
LINE
  8
0
 10
4.93555
 20
165.738
 11
4.66043
 21
165.889
  0
LINE
  8
0
 10
4.66043
 20
165.889
 11
4.40643
 21
166.074
  0
LINE
  8
0
 10
4.40643
 20
166.074
 11
4.17757
 21
166.289
  0
LINE
  8
0
 10
4.17757
 20
166.289
 11
3.97745
 21
166.531
  0
LINE
  8
0
 10
3.97745
 20
166.531
 11
3.80922
 21
166.796
  0
LINE
  8
0
 10
3.80922
 20
166.796
 11
3.67555
 21
167.08
  0
LINE
  8
0
 10
3.67555
 20
167.08
 11
3.57854
 21
167.378
  0
LINE
  8
0
 10
3.57854
 20
167.378
 11
3.5197
 21
167.687
  0
LINE
  8
0
 10
3.5197
 20
167.687
 11
3.5
 21
168
  0
LINE
  8
0
 10
3.5
 20
168
 11
3.5197
 21
168.313
  0
LINE
  8
0
 10
3.5197
 20
168.313
 11
3.57854
 21
168.622
  0
LINE
  8
0
 10
3.57854
 20
168.622
 11
3.67555
 21
168.92
  0
LINE
  8
0
 10
3.67555
 20
168.92
 11
3.80922
 21
169.204
  0
LINE
  8
0
 10
3.80922
 20
169.204
 11
3.97745
 21
169.469
  0
LINE
  8
0
 10
3.97745
 20
169.469
 11
4.17757
 21
169.711
  0
LINE
  8
0
 10
4.17757
 20
169.711
 11
4.40643
 21
169.926
  0
LINE
  8
0
 10
4.40643
 20
169.926
 11
4.66043
 21
170.111
  0
LINE
  8
0
 10
4.66043
 20
170.111
 11
4.93555
 21
170.262
  0
LINE
  8
0
 10
4.93555
 20
170.262
 11
5.22745
 21
170.378
  0
LINE
  8
0
 10
5.22745
 20
170.378
 11
5.53154
 21
170.456
  0
LINE
  8
0
 10
5.53154
 20
170.456
 11
5.84302
 21
170.495
  0
LINE
  8
0
 10
5.84302
 20
170.495
 11
6.15697
 21
170.495
  0
LINE
  8
0
 10
6.15697
 20
170.495
 11
6.46844
 21
170.456
  0
LINE
  8
0
 10
6.46844
 20
170.456
 11
6.77254
 21
170.378
  0
LINE
  8
0
 10
6.77254
 20
170.378
 11
7.06444
 21
170.262
  0
LINE
  8
0
 10
7.06444
 20
170.262
 11
7.33955
 21
170.111
  0
LINE
  8
0
 10
7.33955
 20
170.111
 11
7.59355
 21
169.926
  0
LINE
  8
0
 10
7.59355
 20
169.926
 11
7.82242
 21
169.711
  0
LINE
  8
0
 10
7.82242
 20
169.711
 11
8.02254
 21
169.469
  0
LINE
  8
0
 10
8.02254
 20
169.469
 11
8.19077
 21
169.204
  0
LINE
  8
0
 10
8.19077
 20
169.204
 11
8.32443
 21
168.92
  0
LINE
  8
0
 10
8.32443
 20
168.92
 11
8.42145
 21
168.622
  0
LINE
  8
0
 10
8.42145
 20
168.622
 11
8.48029
 21
168.313
  0
LINE
  8
0
 10
8.48029
 20
168.313
 11
8.5
 21
168
  0
LINE
  8
0
 10
8.5
 20
168
 11
8.48029
 21
167.687
  0
LINE
  8
0
 10
8.48029
 20
167.687
 11
8.42145
 21
167.378
  0
LINE
  8
0
 10
8.42145
 20
167.378
 11
8.32443
 21
167.08
  0
LINE
  8
0
 10
8.32443
 20
167.08
 11
8.19077
 21
166.796
  0
LINE
  8
0
 10
8.19077
 20
166.796
 11
8.02254
 21
166.531
  0
LINE
  8
0
 10
8.02254
 20
166.531
 11
7.82242
 21
166.289
  0
LINE
  8
0
 10
7.82242
 20
166.289
 11
7.59355
 21
166.074
  0
LINE
  8
0
 10
7.59355
 20
166.074
 11
7.33955
 21
165.889
  0
LINE
  8
0
 10
7.33955
 20
165.889
 11
7.06444
 21
165.738
  0
LINE
  8
0
 10
7.06444
 20
165.738
 11
6.77254
 21
165.622
  0
LINE
  8
0
 10
6.77254
 20
165.622
 11
6.46844
 21
165.544
  0
LINE
  8
0
 10
6.46844
 20
165.544
 11
6.15697
 21
165.505
  0
LINE
  8
0
 10
6.15697
 20
165.505
 11
5.84302
 21
165.505
  0
LINE
  8
0
 10
-3.15697
 20
160.309
 11
-3.46844
 21
160.348
  0
LINE
  8
0
 10
-3.46844
 20
160.348
 11
-3.77254
 21
160.426
  0
LINE
  8
0
 10
-3.77254
 20
160.426
 11
-4.06444
 21
160.542
  0
LINE
  8
0
 10
-4.06444
 20
160.542
 11
-4.33955
 21
160.693
  0
LINE
  8
0
 10
-4.33955
 20
160.693
 11
-4.59355
 21
160.878
  0
LINE
  8
0
 10
-4.59355
 20
160.878
 11
-4.82242
 21
161.092
  0
LINE
  8
0
 10
-4.82242
 20
161.092
 11
-5.02254
 21
161.334
  0
LINE
  8
0
 10
-5.02254
 20
161.334
 11
-5.19077
 21
161.599
  0
LINE
  8
0
 10
-5.19077
 20
161.599
 11
-5.32443
 21
161.884
  0
LINE
  8
0
 10
-5.32443
 20
161.884
 11
-5.42145
 21
162.182
  0
LINE
  8
0
 10
-5.42145
 20
162.182
 11
-5.48029
 21
162.491
  0
LINE
  8
0
 10
-5.48029
 20
162.491
 11
-5.5
 21
162.804
  0
LINE
  8
0
 10
-5.5
 20
162.804
 11
-5.48029
 21
163.117
  0
LINE
  8
0
 10
-5.48029
 20
163.117
 11
-5.42145
 21
163.426
  0
LINE
  8
0
 10
-5.42145
 20
163.426
 11
-5.32443
 21
163.724
  0
LINE
  8
0
 10
-5.32443
 20
163.724
 11
-5.19077
 21
164.008
  0
LINE
  8
0
 10
-5.19077
 20
164.008
 11
-5.02254
 21
164.273
  0
LINE
  8
0
 10
-5.02254
 20
164.273
 11
-4.82242
 21
164.515
  0
LINE
  8
0
 10
-4.82242
 20
164.515
 11
-4.59355
 21
164.73
  0
LINE
  8
0
 10
-4.59355
 20
164.73
 11
-4.33955
 21
164.915
  0
LINE
  8
0
 10
-4.33955
 20
164.915
 11
-4.06444
 21
165.066
  0
LINE
  8
0
 10
-4.06444
 20
165.066
 11
-3.77254
 21
165.182
  0
LINE
  8
0
 10
-3.77254
 20
165.182
 11
-3.46844
 21
165.26
  0
LINE
  8
0
 10
-3.46844
 20
165.26
 11
-3.15697
 21
165.299
  0
LINE
  8
0
 10
-3.15697
 20
165.299
 11
-2.84302
 21
165.299
  0
LINE
  8
0
 10
-2.84302
 20
165.299
 11
-2.53154
 21
165.26
  0
LINE
  8
0
 10
-2.53154
 20
165.26
 11
-2.22745
 21
165.182
  0
LINE
  8
0
 10
-2.22745
 20
165.182
 11
-1.93555
 21
165.066
  0
LINE
  8
0
 10
-1.93555
 20
165.066
 11
-1.66043
 21
164.915
  0
LINE
  8
0
 10
-1.66043
 20
164.915
 11
-1.40643
 21
164.73
  0
LINE
  8
0
 10
-1.40643
 20
164.73
 11
-1.17757
 21
164.515
  0
LINE
  8
0
 10
-1.17757
 20
164.515
 11
-0.977448
 21
164.273
  0
LINE
  8
0
 10
-0.977448
 20
164.273
 11
-0.809219
 21
164.008
  0
LINE
  8
0
 10
-0.809219
 20
164.008
 11
-0.675552
 21
163.724
  0
LINE
  8
0
 10
-0.675552
 20
163.724
 11
-0.578537
 21
163.426
  0
LINE
  8
0
 10
-0.578537
 20
163.426
 11
-0.519699
 21
163.117
  0
LINE
  8
0
 10
-0.519699
 20
163.117
 11
-0.5
 21
162.804
  0
LINE
  8
0
 10
-0.5
 20
162.804
 11
-0.519699
 21
162.491
  0
LINE
  8
0
 10
-0.519699
 20
162.491
 11
-0.578537
 21
162.182
  0
LINE
  8
0
 10
-0.578537
 20
162.182
 11
-0.675552
 21
161.884
  0
LINE
  8
0
 10
-0.675552
 20
161.884
 11
-0.809219
 21
161.599
  0
LINE
  8
0
 10
-0.809219
 20
161.599
 11
-0.977448
 21
161.334
  0
LINE
  8
0
 10
-0.977448
 20
161.334
 11
-1.17757
 21
161.092
  0
LINE
  8
0
 10
-1.17757
 20
161.092
 11
-1.40643
 21
160.878
  0
LINE
  8
0
 10
-1.40643
 20
160.878
 11
-1.66043
 21
160.693
  0
LINE
  8
0
 10
-1.66043
 20
160.693
 11
-1.93555
 21
160.542
  0
LINE
  8
0
 10
-1.93555
 20
160.542
 11
-2.22745
 21
160.426
  0
LINE
  8
0
 10
-2.22745
 20
160.426
 11
-2.53154
 21
160.348
  0
LINE
  8
0
 10
-2.53154
 20
160.348
 11
-2.84302
 21
160.309
  0
LINE
  8
0
 10
-2.84302
 20
160.309
 11
-3.15697
 21
160.309
  0
LINE
  8
0
 10
1.87381
 20
134.177
 11
3.09016
 21
134.489
  0
LINE
  8
0
 10
3.09016
 20
134.489
 11
4.25778
 21
134.952
  0
LINE
  8
0
 10
4.25778
 20
134.952
 11
5.35826
 21
135.557
  0
LINE
  8
0
 10
5.35826
 20
135.557
 11
6.37424
 21
136.295
  0
LINE
  8
0
 10
6.37424
 20
136.295
 11
7.28967
 21
137.155
  0
LINE
  8
0
 10
7.28967
 20
137.155
 11
8.09016
 21
138.122
  0
LINE
  8
0
 10
8.09016
 20
138.122
 11
8.76306
 21
139.182
  0
LINE
  8
0
 10
8.76306
 20
139.182
 11
9.29776
 21
140.319
  0
LINE
  8
0
 10
9.29776
 20
140.319
 11
9.68582
 21
141.513
  0
LINE
  8
0
 10
9.68582
 20
141.513
 11
9.92114
 21
142.747
  0
LINE
  8
0
 10
9.92114
 20
142.747
 11
10
 21
144
  0
LINE
  8
0
 10
10
 20
144
 11
9.92114
 21
145.253
  0
LINE
  8
0
 10
9.92114
 20
145.253
 11
9.68582
 21
146.487
  0
LINE
  8
0
 10
9.68582
 20
146.487
 11
9.29776
 21
147.681
  0
LINE
  8
0
 10
9.29776
 20
147.681
 11
8.76306
 21
148.818
  0
LINE
  8
0
 10
8.76306
 20
148.818
 11
8.09016
 21
149.878
  0
LINE
  8
0
 10
8.09016
 20
149.878
 11
7.28967
 21
150.845
  0
LINE
  8
0
 10
7.28967
 20
150.845
 11
6.37424
 21
151.705
  0
LINE
  8
0
 10
6.37424
 20
151.705
 11
5.35826
 21
152.443
  0
LINE
  8
0
 10
5.35826
 20
152.443
 11
4.25778
 21
153.048
  0
LINE
  8
0
 10
4.25778
 20
153.048
 11
3.09016
 21
153.511
  0
LINE
  8
0
 10
3.09016
 20
153.511
 11
1.87381
 21
153.823
  0
LINE
  8
0
 10
1.87381
 20
153.823
 11
0.627899
 21
153.98
  0
LINE
  8
0
 10
0.627899
 20
153.98
 11
-0.627899
 21
153.98
  0
LINE
  8
0
 10
-0.627899
 20
153.98
 11
-1.87381
 21
153.823
  0
LINE
  8
0
 10
-1.87381
 20
153.823
 11
-3.09016
 21
153.511
  0
LINE
  8
0
 10
-3.09016
 20
153.511
 11
-4.25778
 21
153.048
  0
LINE
  8
0
 10
-4.25778
 20
153.048
 11
-5.35826
 21
152.443
  0
LINE
  8
0
 10
-5.35826
 20
152.443
 11
-6.37424
 21
151.705
  0
LINE
  8
0
 10
-6.37424
 20
151.705
 11
-7.28967
 21
150.845
  0
LINE
  8
0
 10
-7.28967
 20
150.845
 11
-8.09016
 21
149.878
  0
LINE
  8
0
 10
-8.09016
 20
149.878
 11
-8.76306
 21
148.818
  0
LINE
  8
0
 10
-8.76306
 20
148.818
 11
-9.29776
 21
147.681
  0
LINE
  8
0
 10
-9.29776
 20
147.681
 11
-9.68582
 21
146.487
  0
LINE
  8
0
 10
-9.68582
 20
146.487
 11
-9.92114
 21
145.253
  0
LINE
  8
0
 10
-9.92114
 20
145.253
 11
-10
 21
144
  0
LINE
  8
0
 10
-10
 20
144
 11
-9.92114
 21
142.747
  0
LINE
  8
0
 10
-9.92114
 20
142.747
 11
-9.68582
 21
141.513
  0
LINE
  8
0
 10
-9.68582
 20
141.513
 11
-9.29776
 21
140.319
  0
LINE
  8
0
 10
-9.29776
 20
140.319
 11
-8.76306
 21
139.182
  0
LINE
  8
0
 10
-8.76306
 20
139.182
 11
-8.09016
 21
138.122
  0
LINE
  8
0
 10
-8.09016
 20
138.122
 11
-7.28967
 21
137.155
  0
LINE
  8
0
 10
-7.28967
 20
137.155
 11
-6.37424
 21
136.295
  0
LINE
  8
0
 10
-6.37424
 20
136.295
 11
-5.35826
 21
135.557
  0
LINE
  8
0
 10
-5.35826
 20
135.557
 11
-4.25778
 21
134.952
  0
LINE
  8
0
 10
-4.25778
 20
134.952
 11
-3.09016
 21
134.489
  0
LINE
  8
0
 10
-3.09016
 20
134.489
 11
-1.87381
 21
134.177
  0
LINE
  8
0
 10
-1.87381
 20
134.177
 11
-0.627899
 21
134.02
  0
LINE
  8
0
 10
-0.627899
 20
134.02
 11
0.627899
 21
134.02
  0
LINE
  8
0
 10
0.627899
 20
134.02
 11
1.87381
 21
134.177
  0
LINE
  8
0
 10
-3.15697
 20
146.701
 11
-3.46844
 21
146.74
  0
LINE
  8
0
 10
-3.46844
 20
146.74
 11
-3.77254
 21
146.818
  0
LINE
  8
0
 10
-3.77254
 20
146.818
 11
-4.06444
 21
146.934
  0
LINE
  8
0
 10
-4.06444
 20
146.934
 11
-4.33955
 21
147.085
  0
LINE
  8
0
 10
-4.33955
 20
147.085
 11
-4.59355
 21
147.27
  0
LINE
  8
0
 10
-4.59355
 20
147.27
 11
-4.82242
 21
147.485
  0
LINE
  8
0
 10
-4.82242
 20
147.485
 11
-5.02254
 21
147.727
  0
LINE
  8
0
 10
-5.02254
 20
147.727
 11
-5.19077
 21
147.992
  0
LINE
  8
0
 10
-5.19077
 20
147.992
 11
-5.32443
 21
148.276
  0
LINE
  8
0
 10
-5.32443
 20
148.276
 11
-5.42145
 21
148.574
  0
LINE
  8
0
 10
-5.42145
 20
148.574
 11
-5.48029
 21
148.883
  0
LINE
  8
0
 10
-5.48029
 20
148.883
 11
-5.5
 21
149.196
  0
LINE
  8
0
 10
-5.5
 20
149.196
 11
-5.48029
 21
149.509
  0
LINE
  8
0
 10
-5.48029
 20
149.509
 11
-5.42145
 21
149.818
  0
LINE
  8
0
 10
-5.42145
 20
149.818
 11
-5.32443
 21
150.116
  0
LINE
  8
0
 10
-5.32443
 20
150.116
 11
-5.19077
 21
150.401
  0
LINE
  8
0
 10
-5.19077
 20
150.401
 11
-5.02254
 21
150.666
  0
LINE
  8
0
 10
-5.02254
 20
150.666
 11
-4.82242
 21
150.908
  0
LINE
  8
0
 10
-4.82242
 20
150.908
 11
-4.59355
 21
151.122
  0
LINE
  8
0
 10
-4.59355
 20
151.122
 11
-4.33955
 21
151.307
  0
LINE
  8
0
 10
-4.33955
 20
151.307
 11
-4.06444
 21
151.458
  0
LINE
  8
0
 10
-4.06444
 20
151.458
 11
-3.77254
 21
151.574
  0
LINE
  8
0
 10
-3.77254
 20
151.574
 11
-3.46844
 21
151.652
  0
LINE
  8
0
 10
-3.46844
 20
151.652
 11
-3.15697
 21
151.691
  0
LINE
  8
0
 10
-3.15697
 20
151.691
 11
-2.84302
 21
151.691
  0
LINE
  8
0
 10
-2.84302
 20
151.691
 11
-2.53154
 21
151.652
  0
LINE
  8
0
 10
-2.53154
 20
151.652
 11
-2.22745
 21
151.574
  0
LINE
  8
0
 10
-2.22745
 20
151.574
 11
-1.93555
 21
151.458
  0
LINE
  8
0
 10
-1.93555
 20
151.458
 11
-1.66043
 21
151.307
  0
LINE
  8
0
 10
-1.66043
 20
151.307
 11
-1.40643
 21
151.122
  0
LINE
  8
0
 10
-1.40643
 20
151.122
 11
-1.17757
 21
150.908
  0
LINE
  8
0
 10
-1.17757
 20
150.908
 11
-0.977448
 21
150.666
  0
LINE
  8
0
 10
-0.977448
 20
150.666
 11
-0.809219
 21
150.401
  0
LINE
  8
0
 10
-0.809219
 20
150.401
 11
-0.675552
 21
150.116
  0
LINE
  8
0
 10
-0.675552
 20
150.116
 11
-0.578537
 21
149.818
  0
LINE
  8
0
 10
-0.578537
 20
149.818
 11
-0.519699
 21
149.509
  0
LINE
  8
0
 10
-0.519699
 20
149.509
 11
-0.5
 21
149.196
  0
LINE
  8
0
 10
-0.5
 20
149.196
 11
-0.519699
 21
148.883
  0
LINE
  8
0
 10
-0.519699
 20
148.883
 11
-0.578537
 21
148.574
  0
LINE
  8
0
 10
-0.578537
 20
148.574
 11
-0.675552
 21
148.276
  0
LINE
  8
0
 10
-0.675552
 20
148.276
 11
-0.809219
 21
147.992
  0
LINE
  8
0
 10
-0.809219
 20
147.992
 11
-0.977448
 21
147.727
  0
LINE
  8
0
 10
-0.977448
 20
147.727
 11
-1.17757
 21
147.485
  0
LINE
  8
0
 10
-1.17757
 20
147.485
 11
-1.40643
 21
147.27
  0
LINE
  8
0
 10
-1.40643
 20
147.27
 11
-1.66043
 21
147.085
  0
LINE
  8
0
 10
-1.66043
 20
147.085
 11
-1.93555
 21
146.934
  0
LINE
  8
0
 10
-1.93555
 20
146.934
 11
-2.22745
 21
146.818
  0
LINE
  8
0
 10
-2.22745
 20
146.818
 11
-2.53154
 21
146.74
  0
LINE
  8
0
 10
-2.53154
 20
146.74
 11
-2.84302
 21
146.701
  0
LINE
  8
0
 10
-2.84302
 20
146.701
 11
-3.15697
 21
146.701
  0
LINE
  8
0
 10
5.84302
 20
141.505
 11
5.53154
 21
141.544
  0
LINE
  8
0
 10
5.53154
 20
141.544
 11
5.22745
 21
141.622
  0
LINE
  8
0
 10
5.22745
 20
141.622
 11
4.93555
 21
141.738
  0
LINE
  8
0
 10
4.93555
 20
141.738
 11
4.66043
 21
141.889
  0
LINE
  8
0
 10
4.66043
 20
141.889
 11
4.40643
 21
142.074
  0
LINE
  8
0
 10
4.40643
 20
142.074
 11
4.17757
 21
142.289
  0
LINE
  8
0
 10
4.17757
 20
142.289
 11
3.97745
 21
142.531
  0
LINE
  8
0
 10
3.97745
 20
142.531
 11
3.80922
 21
142.796
  0
LINE
  8
0
 10
3.80922
 20
142.796
 11
3.67555
 21
143.08
  0
LINE
  8
0
 10
3.67555
 20
143.08
 11
3.57854
 21
143.378
  0
LINE
  8
0
 10
3.57854
 20
143.378
 11
3.5197
 21
143.687
  0
LINE
  8
0
 10
3.5197
 20
143.687
 11
3.5
 21
144
  0
LINE
  8
0
 10
3.5
 20
144
 11
3.5197
 21
144.313
  0
LINE
  8
0
 10
3.5197
 20
144.313
 11
3.57854
 21
144.622
  0
LINE
  8
0
 10
3.57854
 20
144.622
 11
3.67555
 21
144.92
  0
LINE
  8
0
 10
3.67555
 20
144.92
 11
3.80922
 21
145.204
  0
LINE
  8
0
 10
3.80922
 20
145.204
 11
3.97745
 21
145.469
  0
LINE
  8
0
 10
3.97745
 20
145.469
 11
4.17757
 21
145.711
  0
LINE
  8
0
 10
4.17757
 20
145.711
 11
4.40643
 21
145.926
  0
LINE
  8
0
 10
4.40643
 20
145.926
 11
4.66043
 21
146.111
  0
LINE
  8
0
 10
4.66043
 20
146.111
 11
4.93555
 21
146.262
  0
LINE
  8
0
 10
4.93555
 20
146.262
 11
5.22745
 21
146.378
  0
LINE
  8
0
 10
5.22745
 20
146.378
 11
5.53154
 21
146.456
  0
LINE
  8
0
 10
5.53154
 20
146.456
 11
5.84302
 21
146.495
  0
LINE
  8
0
 10
5.84302
 20
146.495
 11
6.15697
 21
146.495
  0
LINE
  8
0
 10
6.15697
 20
146.495
 11
6.46844
 21
146.456
  0
LINE
  8
0
 10
6.46844
 20
146.456
 11
6.77254
 21
146.378
  0
LINE
  8
0
 10
6.77254
 20
146.378
 11
7.06444
 21
146.262
  0
LINE
  8
0
 10
7.06444
 20
146.262
 11
7.33955
 21
146.111
  0
LINE
  8
0
 10
7.33955
 20
146.111
 11
7.59355
 21
145.926
  0
LINE
  8
0
 10
7.59355
 20
145.926
 11
7.82242
 21
145.711
  0
LINE
  8
0
 10
7.82242
 20
145.711
 11
8.02254
 21
145.469
  0
LINE
  8
0
 10
8.02254
 20
145.469
 11
8.19077
 21
145.204
  0
LINE
  8
0
 10
8.19077
 20
145.204
 11
8.32443
 21
144.92
  0
LINE
  8
0
 10
8.32443
 20
144.92
 11
8.42145
 21
144.622
  0
LINE
  8
0
 10
8.42145
 20
144.622
 11
8.48029
 21
144.313
  0
LINE
  8
0
 10
8.48029
 20
144.313
 11
8.5
 21
144
  0
LINE
  8
0
 10
8.5
 20
144
 11
8.48029
 21
143.687
  0
LINE
  8
0
 10
8.48029
 20
143.687
 11
8.42145
 21
143.378
  0
LINE
  8
0
 10
8.42145
 20
143.378
 11
8.32443
 21
143.08
  0
LINE
  8
0
 10
8.32443
 20
143.08
 11
8.19077
 21
142.796
  0
LINE
  8
0
 10
8.19077
 20
142.796
 11
8.02254
 21
142.531
  0
LINE
  8
0
 10
8.02254
 20
142.531
 11
7.82242
 21
142.289
  0
LINE
  8
0
 10
7.82242
 20
142.289
 11
7.59355
 21
142.074
  0
LINE
  8
0
 10
7.59355
 20
142.074
 11
7.33955
 21
141.889
  0
LINE
  8
0
 10
7.33955
 20
141.889
 11
7.06444
 21
141.738
  0
LINE
  8
0
 10
7.06444
 20
141.738
 11
6.77254
 21
141.622
  0
LINE
  8
0
 10
6.77254
 20
141.622
 11
6.46844
 21
141.544
  0
LINE
  8
0
 10
6.46844
 20
141.544
 11
6.15697
 21
141.505
  0
LINE
  8
0
 10
6.15697
 20
141.505
 11
5.84302
 21
141.505
  0
LINE
  8
0
 10
-3.15697
 20
136.309
 11
-3.46844
 21
136.348
  0
LINE
  8
0
 10
-3.46844
 20
136.348
 11
-3.77254
 21
136.426
  0
LINE
  8
0
 10
-3.77254
 20
136.426
 11
-4.06444
 21
136.542
  0
LINE
  8
0
 10
-4.06444
 20
136.542
 11
-4.33955
 21
136.693
  0
LINE
  8
0
 10
-4.33955
 20
136.693
 11
-4.59355
 21
136.878
  0
LINE
  8
0
 10
-4.59355
 20
136.878
 11
-4.82242
 21
137.092
  0
LINE
  8
0
 10
-4.82242
 20
137.092
 11
-5.02254
 21
137.334
  0
LINE
  8
0
 10
-5.02254
 20
137.334
 11
-5.19077
 21
137.599
  0
LINE
  8
0
 10
-5.19077
 20
137.599
 11
-5.32443
 21
137.884
  0
LINE
  8
0
 10
-5.32443
 20
137.884
 11
-5.42145
 21
138.182
  0
LINE
  8
0
 10
-5.42145
 20
138.182
 11
-5.48029
 21
138.491
  0
LINE
  8
0
 10
-5.48029
 20
138.491
 11
-5.5
 21
138.804
  0
LINE
  8
0
 10
-5.5
 20
138.804
 11
-5.48029
 21
139.117
  0
LINE
  8
0
 10
-5.48029
 20
139.117
 11
-5.42145
 21
139.426
  0
LINE
  8
0
 10
-5.42145
 20
139.426
 11
-5.32443
 21
139.724
  0
LINE
  8
0
 10
-5.32443
 20
139.724
 11
-5.19077
 21
140.008
  0
LINE
  8
0
 10
-5.19077
 20
140.008
 11
-5.02254
 21
140.273
  0
LINE
  8
0
 10
-5.02254
 20
140.273
 11
-4.82242
 21
140.515
  0
LINE
  8
0
 10
-4.82242
 20
140.515
 11
-4.59355
 21
140.73
  0
LINE
  8
0
 10
-4.59355
 20
140.73
 11
-4.33955
 21
140.915
  0
LINE
  8
0
 10
-4.33955
 20
140.915
 11
-4.06444
 21
141.066
  0
LINE
  8
0
 10
-4.06444
 20
141.066
 11
-3.77254
 21
141.182
  0
LINE
  8
0
 10
-3.77254
 20
141.182
 11
-3.46844
 21
141.26
  0
LINE
  8
0
 10
-3.46844
 20
141.26
 11
-3.15697
 21
141.299
  0
LINE
  8
0
 10
-3.15697
 20
141.299
 11
-2.84302
 21
141.299
  0
LINE
  8
0
 10
-2.84302
 20
141.299
 11
-2.53154
 21
141.26
  0
LINE
  8
0
 10
-2.53154
 20
141.26
 11
-2.22745
 21
141.182
  0
LINE
  8
0
 10
-2.22745
 20
141.182
 11
-1.93555
 21
141.066
  0
LINE
  8
0
 10
-1.93555
 20
141.066
 11
-1.66043
 21
140.915
  0
LINE
  8
0
 10
-1.66043
 20
140.915
 11
-1.40643
 21
140.73
  0
LINE
  8
0
 10
-1.40643
 20
140.73
 11
-1.17757
 21
140.515
  0
LINE
  8
0
 10
-1.17757
 20
140.515
 11
-0.977448
 21
140.273
  0
LINE
  8
0
 10
-0.977448
 20
140.273
 11
-0.809219
 21
140.008
  0
LINE
  8
0
 10
-0.809219
 20
140.008
 11
-0.675552
 21
139.724
  0
LINE
  8
0
 10
-0.675552
 20
139.724
 11
-0.578537
 21
139.426
  0
LINE
  8
0
 10
-0.578537
 20
139.426
 11
-0.519699
 21
139.117
  0
LINE
  8
0
 10
-0.519699
 20
139.117
 11
-0.5
 21
138.804
  0
LINE
  8
0
 10
-0.5
 20
138.804
 11
-0.519699
 21
138.491
  0
LINE
  8
0
 10
-0.519699
 20
138.491
 11
-0.578537
 21
138.182
  0
LINE
  8
0
 10
-0.578537
 20
138.182
 11
-0.675552
 21
137.884
  0
LINE
  8
0
 10
-0.675552
 20
137.884
 11
-0.809219
 21
137.599
  0
LINE
  8
0
 10
-0.809219
 20
137.599
 11
-0.977448
 21
137.334
  0
LINE
  8
0
 10
-0.977448
 20
137.334
 11
-1.17757
 21
137.092
  0
LINE
  8
0
 10
-1.17757
 20
137.092
 11
-1.40643
 21
136.878
  0
LINE
  8
0
 10
-1.40643
 20
136.878
 11
-1.66043
 21
136.693
  0
LINE
  8
0
 10
-1.66043
 20
136.693
 11
-1.93555
 21
136.542
  0
LINE
  8
0
 10
-1.93555
 20
136.542
 11
-2.22745
 21
136.426
  0
LINE
  8
0
 10
-2.22745
 20
136.426
 11
-2.53154
 21
136.348
  0
LINE
  8
0
 10
-2.53154
 20
136.348
 11
-2.84302
 21
136.309
  0
LINE
  8
0
 10
-2.84302
 20
136.309
 11
-3.15697
 21
136.309
  0
LINE
  8
0
 10
1.87381
 20
110.177
 11
3.09016
 21
110.489
  0
LINE
  8
0
 10
3.09016
 20
110.489
 11
4.25778
 21
110.952
  0
LINE
  8
0
 10
4.25778
 20
110.952
 11
5.35826
 21
111.557
  0
LINE
  8
0
 10
5.35826
 20
111.557
 11
6.37424
 21
112.295
  0
LINE
  8
0
 10
6.37424
 20
112.295
 11
7.28967
 21
113.155
  0
LINE
  8
0
 10
7.28967
 20
113.155
 11
8.09016
 21
114.122
  0
LINE
  8
0
 10
8.09016
 20
114.122
 11
8.76306
 21
115.182
  0
LINE
  8
0
 10
8.76306
 20
115.182
 11
9.29776
 21
116.319
  0
LINE
  8
0
 10
9.29776
 20
116.319
 11
9.68582
 21
117.513
  0
LINE
  8
0
 10
9.68582
 20
117.513
 11
9.92114
 21
118.747
  0
LINE
  8
0
 10
9.92114
 20
118.747
 11
10
 21
120
  0
LINE
  8
0
 10
10
 20
120
 11
9.92114
 21
121.253
  0
LINE
  8
0
 10
9.92114
 20
121.253
 11
9.68582
 21
122.487
  0
LINE
  8
0
 10
9.68582
 20
122.487
 11
9.29776
 21
123.681
  0
LINE
  8
0
 10
9.29776
 20
123.681
 11
8.76306
 21
124.818
  0
LINE
  8
0
 10
8.76306
 20
124.818
 11
8.09016
 21
125.878
  0
LINE
  8
0
 10
8.09016
 20
125.878
 11
7.28967
 21
126.845
  0
LINE
  8
0
 10
7.28967
 20
126.845
 11
6.37424
 21
127.705
  0
LINE
  8
0
 10
6.37424
 20
127.705
 11
5.35826
 21
128.443
  0
LINE
  8
0
 10
5.35826
 20
128.443
 11
4.25778
 21
129.048
  0
LINE
  8
0
 10
4.25778
 20
129.048
 11
3.09016
 21
129.511
  0
LINE
  8
0
 10
3.09016
 20
129.511
 11
1.87381
 21
129.823
  0
LINE
  8
0
 10
1.87381
 20
129.823
 11
0.627899
 21
129.98
  0
LINE
  8
0
 10
0.627899
 20
129.98
 11
-0.627899
 21
129.98
  0
LINE
  8
0
 10
-0.627899
 20
129.98
 11
-1.87381
 21
129.823
  0
LINE
  8
0
 10
-1.87381
 20
129.823
 11
-3.09016
 21
129.511
  0
LINE
  8
0
 10
-3.09016
 20
129.511
 11
-4.25778
 21
129.048
  0
LINE
  8
0
 10
-4.25778
 20
129.048
 11
-5.35826
 21
128.443
  0
LINE
  8
0
 10
-5.35826
 20
128.443
 11
-6.37424
 21
127.705
  0
LINE
  8
0
 10
-6.37424
 20
127.705
 11
-7.28967
 21
126.845
  0
LINE
  8
0
 10
-7.28967
 20
126.845
 11
-8.09016
 21
125.878
  0
LINE
  8
0
 10
-8.09016
 20
125.878
 11
-8.76306
 21
124.818
  0
LINE
  8
0
 10
-8.76306
 20
124.818
 11
-9.29776
 21
123.681
  0
LINE
  8
0
 10
-9.29776
 20
123.681
 11
-9.68582
 21
122.487
  0
LINE
  8
0
 10
-9.68582
 20
122.487
 11
-9.92114
 21
121.253
  0
LINE
  8
0
 10
-9.92114
 20
121.253
 11
-10
 21
120
  0
LINE
  8
0
 10
-10
 20
120
 11
-9.92114
 21
118.747
  0
LINE
  8
0
 10
-9.92114
 20
118.747
 11
-9.68582
 21
117.513
  0
LINE
  8
0
 10
-9.68582
 20
117.513
 11
-9.29776
 21
116.319
  0
LINE
  8
0
 10
-9.29776
 20
116.319
 11
-8.76306
 21
115.182
  0
LINE
  8
0
 10
-8.76306
 20
115.182
 11
-8.09016
 21
114.122
  0
LINE
  8
0
 10
-8.09016
 20
114.122
 11
-7.28967
 21
113.155
  0
LINE
  8
0
 10
-7.28967
 20
113.155
 11
-6.37424
 21
112.295
  0
LINE
  8
0
 10
-6.37424
 20
112.295
 11
-5.35826
 21
111.557
  0
LINE
  8
0
 10
-5.35826
 20
111.557
 11
-4.25778
 21
110.952
  0
LINE
  8
0
 10
-4.25778
 20
110.952
 11
-3.09016
 21
110.489
  0
LINE
  8
0
 10
-3.09016
 20
110.489
 11
-1.87381
 21
110.177
  0
LINE
  8
0
 10
-1.87381
 20
110.177
 11
-0.627899
 21
110.02
  0
LINE
  8
0
 10
-0.627899
 20
110.02
 11
0.627899
 21
110.02
  0
LINE
  8
0
 10
0.627899
 20
110.02
 11
1.87381
 21
110.177
  0
LINE
  8
0
 10
-3.15697
 20
122.701
 11
-3.46844
 21
122.74
  0
LINE
  8
0
 10
-3.46844
 20
122.74
 11
-3.77254
 21
122.818
  0
LINE
  8
0
 10
-3.77254
 20
122.818
 11
-4.06444
 21
122.934
  0
LINE
  8
0
 10
-4.06444
 20
122.934
 11
-4.33955
 21
123.085
  0
LINE
  8
0
 10
-4.33955
 20
123.085
 11
-4.59355
 21
123.27
  0
LINE
  8
0
 10
-4.59355
 20
123.27
 11
-4.82242
 21
123.485
  0
LINE
  8
0
 10
-4.82242
 20
123.485
 11
-5.02254
 21
123.727
  0
LINE
  8
0
 10
-5.02254
 20
123.727
 11
-5.19077
 21
123.992
  0
LINE
  8
0
 10
-5.19077
 20
123.992
 11
-5.32443
 21
124.276
  0
LINE
  8
0
 10
-5.32443
 20
124.276
 11
-5.42145
 21
124.574
  0
LINE
  8
0
 10
-5.42145
 20
124.574
 11
-5.48029
 21
124.883
  0
LINE
  8
0
 10
-5.48029
 20
124.883
 11
-5.5
 21
125.196
  0
LINE
  8
0
 10
-5.5
 20
125.196
 11
-5.48029
 21
125.509
  0
LINE
  8
0
 10
-5.48029
 20
125.509
 11
-5.42145
 21
125.818
  0
LINE
  8
0
 10
-5.42145
 20
125.818
 11
-5.32443
 21
126.116
  0
LINE
  8
0
 10
-5.32443
 20
126.116
 11
-5.19077
 21
126.401
  0
LINE
  8
0
 10
-5.19077
 20
126.401
 11
-5.02254
 21
126.666
  0
LINE
  8
0
 10
-5.02254
 20
126.666
 11
-4.82242
 21
126.908
  0
LINE
  8
0
 10
-4.82242
 20
126.908
 11
-4.59355
 21
127.122
  0
LINE
  8
0
 10
-4.59355
 20
127.122
 11
-4.33955
 21
127.307
  0
LINE
  8
0
 10
-4.33955
 20
127.307
 11
-4.06444
 21
127.458
  0
LINE
  8
0
 10
-4.06444
 20
127.458
 11
-3.77254
 21
127.574
  0
LINE
  8
0
 10
-3.77254
 20
127.574
 11
-3.46844
 21
127.652
  0
LINE
  8
0
 10
-3.46844
 20
127.652
 11
-3.15697
 21
127.691
  0
LINE
  8
0
 10
-3.15697
 20
127.691
 11
-2.84302
 21
127.691
  0
LINE
  8
0
 10
-2.84302
 20
127.691
 11
-2.53154
 21
127.652
  0
LINE
  8
0
 10
-2.53154
 20
127.652
 11
-2.22745
 21
127.574
  0
LINE
  8
0
 10
-2.22745
 20
127.574
 11
-1.93555
 21
127.458
  0
LINE
  8
0
 10
-1.93555
 20
127.458
 11
-1.66043
 21
127.307
  0
LINE
  8
0
 10
-1.66043
 20
127.307
 11
-1.40643
 21
127.122
  0
LINE
  8
0
 10
-1.40643
 20
127.122
 11
-1.17757
 21
126.908
  0
LINE
  8
0
 10
-1.17757
 20
126.908
 11
-0.977448
 21
126.666
  0
LINE
  8
0
 10
-0.977448
 20
126.666
 11
-0.809219
 21
126.401
  0
LINE
  8
0
 10
-0.809219
 20
126.401
 11
-0.675552
 21
126.116
  0
LINE
  8
0
 10
-0.675552
 20
126.116
 11
-0.578537
 21
125.818
  0
LINE
  8
0
 10
-0.578537
 20
125.818
 11
-0.519699
 21
125.509
  0
LINE
  8
0
 10
-0.519699
 20
125.509
 11
-0.5
 21
125.196
  0
LINE
  8
0
 10
-0.5
 20
125.196
 11
-0.519699
 21
124.883
  0
LINE
  8
0
 10
-0.519699
 20
124.883
 11
-0.578537
 21
124.574
  0
LINE
  8
0
 10
-0.578537
 20
124.574
 11
-0.675552
 21
124.276
  0
LINE
  8
0
 10
-0.675552
 20
124.276
 11
-0.809219
 21
123.992
  0
LINE
  8
0
 10
-0.809219
 20
123.992
 11
-0.977448
 21
123.727
  0
LINE
  8
0
 10
-0.977448
 20
123.727
 11
-1.17757
 21
123.485
  0
LINE
  8
0
 10
-1.17757
 20
123.485
 11
-1.40643
 21
123.27
  0
LINE
  8
0
 10
-1.40643
 20
123.27
 11
-1.66043
 21
123.085
  0
LINE
  8
0
 10
-1.66043
 20
123.085
 11
-1.93555
 21
122.934
  0
LINE
  8
0
 10
-1.93555
 20
122.934
 11
-2.22745
 21
122.818
  0
LINE
  8
0
 10
-2.22745
 20
122.818
 11
-2.53154
 21
122.74
  0
LINE
  8
0
 10
-2.53154
 20
122.74
 11
-2.84302
 21
122.701
  0
LINE
  8
0
 10
-2.84302
 20
122.701
 11
-3.15697
 21
122.701
  0
LINE
  8
0
 10
5.84302
 20
117.505
 11
5.53154
 21
117.544
  0
LINE
  8
0
 10
5.53154
 20
117.544
 11
5.22745
 21
117.622
  0
LINE
  8
0
 10
5.22745
 20
117.622
 11
4.93555
 21
117.738
  0
LINE
  8
0
 10
4.93555
 20
117.738
 11
4.66043
 21
117.889
  0
LINE
  8
0
 10
4.66043
 20
117.889
 11
4.40643
 21
118.074
  0
LINE
  8
0
 10
4.40643
 20
118.074
 11
4.17757
 21
118.289
  0
LINE
  8
0
 10
4.17757
 20
118.289
 11
3.97745
 21
118.531
  0
LINE
  8
0
 10
3.97745
 20
118.531
 11
3.80922
 21
118.796
  0
LINE
  8
0
 10
3.80922
 20
118.796
 11
3.67555
 21
119.08
  0
LINE
  8
0
 10
3.67555
 20
119.08
 11
3.57854
 21
119.378
  0
LINE
  8
0
 10
3.57854
 20
119.378
 11
3.5197
 21
119.687
  0
LINE
  8
0
 10
3.5197
 20
119.687
 11
3.5
 21
120
  0
LINE
  8
0
 10
3.5
 20
120
 11
3.5197
 21
120.313
  0
LINE
  8
0
 10
3.5197
 20
120.313
 11
3.57854
 21
120.622
  0
LINE
  8
0
 10
3.57854
 20
120.622
 11
3.67555
 21
120.92
  0
LINE
  8
0
 10
3.67555
 20
120.92
 11
3.80922
 21
121.204
  0
LINE
  8
0
 10
3.80922
 20
121.204
 11
3.97745
 21
121.469
  0
LINE
  8
0
 10
3.97745
 20
121.469
 11
4.17757
 21
121.711
  0
LINE
  8
0
 10
4.17757
 20
121.711
 11
4.40643
 21
121.926
  0
LINE
  8
0
 10
4.40643
 20
121.926
 11
4.66043
 21
122.111
  0
LINE
  8
0
 10
4.66043
 20
122.111
 11
4.93555
 21
122.262
  0
LINE
  8
0
 10
4.93555
 20
122.262
 11
5.22745
 21
122.378
  0
LINE
  8
0
 10
5.22745
 20
122.378
 11
5.53154
 21
122.456
  0
LINE
  8
0
 10
5.53154
 20
122.456
 11
5.84302
 21
122.495
  0
LINE
  8
0
 10
5.84302
 20
122.495
 11
6.15697
 21
122.495
  0
LINE
  8
0
 10
6.15697
 20
122.495
 11
6.46844
 21
122.456
  0
LINE
  8
0
 10
6.46844
 20
122.456
 11
6.77254
 21
122.378
  0
LINE
  8
0
 10
6.77254
 20
122.378
 11
7.06444
 21
122.262
  0
LINE
  8
0
 10
7.06444
 20
122.262
 11
7.33955
 21
122.111
  0
LINE
  8
0
 10
7.33955
 20
122.111
 11
7.59355
 21
121.926
  0
LINE
  8
0
 10
7.59355
 20
121.926
 11
7.82242
 21
121.711
  0
LINE
  8
0
 10
7.82242
 20
121.711
 11
8.02254
 21
121.469
  0
LINE
  8
0
 10
8.02254
 20
121.469
 11
8.19077
 21
121.204
  0
LINE
  8
0
 10
8.19077
 20
121.204
 11
8.32443
 21
120.92
  0
LINE
  8
0
 10
8.32443
 20
120.92
 11
8.42145
 21
120.622
  0
LINE
  8
0
 10
8.42145
 20
120.622
 11
8.48029
 21
120.313
  0
LINE
  8
0
 10
8.48029
 20
120.313
 11
8.5
 21
120
  0
LINE
  8
0
 10
8.5
 20
120
 11
8.48029
 21
119.687
  0
LINE
  8
0
 10
8.48029
 20
119.687
 11
8.42145
 21
119.378
  0
LINE
  8
0
 10
8.42145
 20
119.378
 11
8.32443
 21
119.08
  0
LINE
  8
0
 10
8.32443
 20
119.08
 11
8.19077
 21
118.796
  0
LINE
  8
0
 10
8.19077
 20
118.796
 11
8.02254
 21
118.531
  0
LINE
  8
0
 10
8.02254
 20
118.531
 11
7.82242
 21
118.289
  0
LINE
  8
0
 10
7.82242
 20
118.289
 11
7.59355
 21
118.074
  0
LINE
  8
0
 10
7.59355
 20
118.074
 11
7.33955
 21
117.889
  0
LINE
  8
0
 10
7.33955
 20
117.889
 11
7.06444
 21
117.738
  0
LINE
  8
0
 10
7.06444
 20
117.738
 11
6.77254
 21
117.622
  0
LINE
  8
0
 10
6.77254
 20
117.622
 11
6.46844
 21
117.544
  0
LINE
  8
0
 10
6.46844
 20
117.544
 11
6.15697
 21
117.505
  0
LINE
  8
0
 10
6.15697
 20
117.505
 11
5.84302
 21
117.505
  0
LINE
  8
0
 10
-3.15697
 20
112.309
 11
-3.46844
 21
112.348
  0
LINE
  8
0
 10
-3.46844
 20
112.348
 11
-3.77254
 21
112.426
  0
LINE
  8
0
 10
-3.77254
 20
112.426
 11
-4.06444
 21
112.542
  0
LINE
  8
0
 10
-4.06444
 20
112.542
 11
-4.33955
 21
112.693
  0
LINE
  8
0
 10
-4.33955
 20
112.693
 11
-4.59355
 21
112.878
  0
LINE
  8
0
 10
-4.59355
 20
112.878
 11
-4.82242
 21
113.092
  0
LINE
  8
0
 10
-4.82242
 20
113.092
 11
-5.02254
 21
113.334
  0
LINE
  8
0
 10
-5.02254
 20
113.334
 11
-5.19077
 21
113.599
  0
LINE
  8
0
 10
-5.19077
 20
113.599
 11
-5.32443
 21
113.884
  0
LINE
  8
0
 10
-5.32443
 20
113.884
 11
-5.42145
 21
114.182
  0
LINE
  8
0
 10
-5.42145
 20
114.182
 11
-5.48029
 21
114.491
  0
LINE
  8
0
 10
-5.48029
 20
114.491
 11
-5.5
 21
114.804
  0
LINE
  8
0
 10
-5.5
 20
114.804
 11
-5.48029
 21
115.117
  0
LINE
  8
0
 10
-5.48029
 20
115.117
 11
-5.42145
 21
115.426
  0
LINE
  8
0
 10
-5.42145
 20
115.426
 11
-5.32443
 21
115.724
  0
LINE
  8
0
 10
-5.32443
 20
115.724
 11
-5.19077
 21
116.008
  0
LINE
  8
0
 10
-5.19077
 20
116.008
 11
-5.02254
 21
116.273
  0
LINE
  8
0
 10
-5.02254
 20
116.273
 11
-4.82242
 21
116.515
  0
LINE
  8
0
 10
-4.82242
 20
116.515
 11
-4.59355
 21
116.73
  0
LINE
  8
0
 10
-4.59355
 20
116.73
 11
-4.33955
 21
116.915
  0
LINE
  8
0
 10
-4.33955
 20
116.915
 11
-4.06444
 21
117.066
  0
LINE
  8
0
 10
-4.06444
 20
117.066
 11
-3.77254
 21
117.182
  0
LINE
  8
0
 10
-3.77254
 20
117.182
 11
-3.46844
 21
117.26
  0
LINE
  8
0
 10
-3.46844
 20
117.26
 11
-3.15697
 21
117.299
  0
LINE
  8
0
 10
-3.15697
 20
117.299
 11
-2.84302
 21
117.299
  0
LINE
  8
0
 10
-2.84302
 20
117.299
 11
-2.53154
 21
117.26
  0
LINE
  8
0
 10
-2.53154
 20
117.26
 11
-2.22745
 21
117.182
  0
LINE
  8
0
 10
-2.22745
 20
117.182
 11
-1.93555
 21
117.066
  0
LINE
  8
0
 10
-1.93555
 20
117.066
 11
-1.66043
 21
116.915
  0
LINE
  8
0
 10
-1.66043
 20
116.915
 11
-1.40643
 21
116.73
  0
LINE
  8
0
 10
-1.40643
 20
116.73
 11
-1.17757
 21
116.515
  0
LINE
  8
0
 10
-1.17757
 20
116.515
 11
-0.977448
 21
116.273
  0
LINE
  8
0
 10
-0.977448
 20
116.273
 11
-0.809219
 21
116.008
  0
LINE
  8
0
 10
-0.809219
 20
116.008
 11
-0.675552
 21
115.724
  0
LINE
  8
0
 10
-0.675552
 20
115.724
 11
-0.578537
 21
115.426
  0
LINE
  8
0
 10
-0.578537
 20
115.426
 11
-0.519699
 21
115.117
  0
LINE
  8
0
 10
-0.519699
 20
115.117
 11
-0.5
 21
114.804
  0
LINE
  8
0
 10
-0.5
 20
114.804
 11
-0.519699
 21
114.491
  0
LINE
  8
0
 10
-0.519699
 20
114.491
 11
-0.578537
 21
114.182
  0
LINE
  8
0
 10
-0.578537
 20
114.182
 11
-0.675552
 21
113.884
  0
LINE
  8
0
 10
-0.675552
 20
113.884
 11
-0.809219
 21
113.599
  0
LINE
  8
0
 10
-0.809219
 20
113.599
 11
-0.977448
 21
113.334
  0
LINE
  8
0
 10
-0.977448
 20
113.334
 11
-1.17757
 21
113.092
  0
LINE
  8
0
 10
-1.17757
 20
113.092
 11
-1.40643
 21
112.878
  0
LINE
  8
0
 10
-1.40643
 20
112.878
 11
-1.66043
 21
112.693
  0
LINE
  8
0
 10
-1.66043
 20
112.693
 11
-1.93555
 21
112.542
  0
LINE
  8
0
 10
-1.93555
 20
112.542
 11
-2.22745
 21
112.426
  0
LINE
  8
0
 10
-2.22745
 20
112.426
 11
-2.53154
 21
112.348
  0
LINE
  8
0
 10
-2.53154
 20
112.348
 11
-2.84302
 21
112.309
  0
LINE
  8
0
 10
-2.84302
 20
112.309
 11
-3.15697
 21
112.309
  0
LINE
  8
0
 10
1.87381
 20
86.1771
 11
3.09016
 21
86.4894
  0
LINE
  8
0
 10
3.09016
 20
86.4894
 11
4.25778
 21
86.9517
  0
LINE
  8
0
 10
4.25778
 20
86.9517
 11
5.35826
 21
87.5567
  0
LINE
  8
0
 10
5.35826
 20
87.5567
 11
6.37424
 21
88.2949
  0
LINE
  8
0
 10
6.37424
 20
88.2949
 11
7.28967
 21
89.1545
  0
LINE
  8
0
 10
7.28967
 20
89.1545
 11
8.09016
 21
90.1222
  0
LINE
  8
0
 10
8.09016
 20
90.1222
 11
8.76306
 21
91.1825
  0
LINE
  8
0
 10
8.76306
 20
91.1825
 11
9.29776
 21
92.3188
  0
LINE
  8
0
 10
9.29776
 20
92.3188
 11
9.68582
 21
93.5131
  0
LINE
  8
0
 10
9.68582
 20
93.5131
 11
9.92114
 21
94.7467
  0
LINE
  8
0
 10
9.92114
 20
94.7467
 11
10
 21
96
  0
LINE
  8
0
 10
10
 20
96
 11
9.92114
 21
97.2533
  0
LINE
  8
0
 10
9.92114
 20
97.2533
 11
9.68582
 21
98.4869
  0
LINE
  8
0
 10
9.68582
 20
98.4869
 11
9.29776
 21
99.6812
  0
LINE
  8
0
 10
9.29776
 20
99.6812
 11
8.76306
 21
100.818
  0
LINE
  8
0
 10
8.76306
 20
100.818
 11
8.09016
 21
101.878
  0
LINE
  8
0
 10
8.09016
 20
101.878
 11
7.28967
 21
102.845
  0
LINE
  8
0
 10
7.28967
 20
102.845
 11
6.37424
 21
103.705
  0
LINE
  8
0
 10
6.37424
 20
103.705
 11
5.35826
 21
104.443
  0
LINE
  8
0
 10
5.35826
 20
104.443
 11
4.25778
 21
105.048
  0
LINE
  8
0
 10
4.25778
 20
105.048
 11
3.09016
 21
105.511
  0
LINE
  8
0
 10
3.09016
 20
105.511
 11
1.87381
 21
105.823
  0
LINE
  8
0
 10
1.87381
 20
105.823
 11
0.627899
 21
105.98
  0
LINE
  8
0
 10
0.627899
 20
105.98
 11
-0.627899
 21
105.98
  0
LINE
  8
0
 10
-0.627899
 20
105.98
 11
-1.87381
 21
105.823
  0
LINE
  8
0
 10
-1.87381
 20
105.823
 11
-3.09016
 21
105.511
  0
LINE
  8
0
 10
-3.09016
 20
105.511
 11
-4.25778
 21
105.048
  0
LINE
  8
0
 10
-4.25778
 20
105.048
 11
-5.35826
 21
104.443
  0
LINE
  8
0
 10
-5.35826
 20
104.443
 11
-6.37424
 21
103.705
  0
LINE
  8
0
 10
-6.37424
 20
103.705
 11
-7.28967
 21
102.845
  0
LINE
  8
0
 10
-7.28967
 20
102.845
 11
-8.09016
 21
101.878
  0
LINE
  8
0
 10
-8.09016
 20
101.878
 11
-8.76306
 21
100.818
  0
LINE
  8
0
 10
-8.76306
 20
100.818
 11
-9.29776
 21
99.6812
  0
LINE
  8
0
 10
-9.29776
 20
99.6812
 11
-9.68582
 21
98.4869
  0
LINE
  8
0
 10
-9.68582
 20
98.4869
 11
-9.92114
 21
97.2533
  0
LINE
  8
0
 10
-9.92114
 20
97.2533
 11
-10
 21
96
  0
LINE
  8
0
 10
-10
 20
96
 11
-9.92114
 21
94.7467
  0
LINE
  8
0
 10
-9.92114
 20
94.7467
 11
-9.68582
 21
93.5131
  0
LINE
  8
0
 10
-9.68582
 20
93.5131
 11
-9.29776
 21
92.3188
  0
LINE
  8
0
 10
-9.29776
 20
92.3188
 11
-8.76306
 21
91.1825
  0
LINE
  8
0
 10
-8.76306
 20
91.1825
 11
-8.09016
 21
90.1222
  0
LINE
  8
0
 10
-8.09016
 20
90.1222
 11
-7.28967
 21
89.1545
  0
LINE
  8
0
 10
-7.28967
 20
89.1545
 11
-6.37424
 21
88.2949
  0
LINE
  8
0
 10
-6.37424
 20
88.2949
 11
-5.35826
 21
87.5567
  0
LINE
  8
0
 10
-5.35826
 20
87.5567
 11
-4.25778
 21
86.9517
  0
LINE
  8
0
 10
-4.25778
 20
86.9517
 11
-3.09016
 21
86.4894
  0
LINE
  8
0
 10
-3.09016
 20
86.4894
 11
-1.87381
 21
86.1771
  0
LINE
  8
0
 10
-1.87381
 20
86.1771
 11
-0.627899
 21
86.0197
  0
LINE
  8
0
 10
-0.627899
 20
86.0197
 11
0.627899
 21
86.0197
  0
LINE
  8
0
 10
0.627899
 20
86.0197
 11
1.87381
 21
86.1771
  0
LINE
  8
0
 10
-3.15697
 20
98.7011
 11
-3.46844
 21
98.7404
  0
LINE
  8
0
 10
-3.46844
 20
98.7404
 11
-3.77254
 21
98.8185
  0
LINE
  8
0
 10
-3.77254
 20
98.8185
 11
-4.06444
 21
98.9341
  0
LINE
  8
0
 10
-4.06444
 20
98.9341
 11
-4.33955
 21
99.0853
  0
LINE
  8
0
 10
-4.33955
 20
99.0853
 11
-4.59355
 21
99.2699
  0
LINE
  8
0
 10
-4.59355
 20
99.2699
 11
-4.82242
 21
99.4848
  0
LINE
  8
0
 10
-4.82242
 20
99.4848
 11
-5.02254
 21
99.7267
  0
LINE
  8
0
 10
-5.02254
 20
99.7267
 11
-5.19077
 21
99.9918
  0
LINE
  8
0
 10
-5.19077
 20
99.9918
 11
-5.32443
 21
100.276
  0
LINE
  8
0
 10
-5.32443
 20
100.276
 11
-5.42145
 21
100.574
  0
LINE
  8
0
 10
-5.42145
 20
100.574
 11
-5.48029
 21
100.883
  0
LINE
  8
0
 10
-5.48029
 20
100.883
 11
-5.5
 21
101.196
  0
LINE
  8
0
 10
-5.5
 20
101.196
 11
-5.48029
 21
101.509
  0
LINE
  8
0
 10
-5.48029
 20
101.509
 11
-5.42145
 21
101.818
  0
LINE
  8
0
 10
-5.42145
 20
101.818
 11
-5.32443
 21
102.116
  0
LINE
  8
0
 10
-5.32443
 20
102.116
 11
-5.19077
 21
102.401
  0
LINE
  8
0
 10
-5.19077
 20
102.401
 11
-5.02254
 21
102.666
  0
LINE
  8
0
 10
-5.02254
 20
102.666
 11
-4.82242
 21
102.908
  0
LINE
  8
0
 10
-4.82242
 20
102.908
 11
-4.59355
 21
103.122
  0
LINE
  8
0
 10
-4.59355
 20
103.122
 11
-4.33955
 21
103.307
  0
LINE
  8
0
 10
-4.33955
 20
103.307
 11
-4.06444
 21
103.458
  0
LINE
  8
0
 10
-4.06444
 20
103.458
 11
-3.77254
 21
103.574
  0
LINE
  8
0
 10
-3.77254
 20
103.574
 11
-3.46844
 21
103.652
  0
LINE
  8
0
 10
-3.46844
 20
103.652
 11
-3.15697
 21
103.691
  0
LINE
  8
0
 10
-3.15697
 20
103.691
 11
-2.84302
 21
103.691
  0
LINE
  8
0
 10
-2.84302
 20
103.691
 11
-2.53154
 21
103.652
  0
LINE
  8
0
 10
-2.53154
 20
103.652
 11
-2.22745
 21
103.574
  0
LINE
  8
0
 10
-2.22745
 20
103.574
 11
-1.93555
 21
103.458
  0
LINE
  8
0
 10
-1.93555
 20
103.458
 11
-1.66043
 21
103.307
  0
LINE
  8
0
 10
-1.66043
 20
103.307
 11
-1.40643
 21
103.122
  0
LINE
  8
0
 10
-1.40643
 20
103.122
 11
-1.17757
 21
102.908
  0
LINE
  8
0
 10
-1.17757
 20
102.908
 11
-0.977448
 21
102.666
  0
LINE
  8
0
 10
-0.977448
 20
102.666
 11
-0.809219
 21
102.401
  0
LINE
  8
0
 10
-0.809219
 20
102.401
 11
-0.675552
 21
102.116
  0
LINE
  8
0
 10
-0.675552
 20
102.116
 11
-0.578537
 21
101.818
  0
LINE
  8
0
 10
-0.578537
 20
101.818
 11
-0.519699
 21
101.509
  0
LINE
  8
0
 10
-0.519699
 20
101.509
 11
-0.5
 21
101.196
  0
LINE
  8
0
 10
-0.5
 20
101.196
 11
-0.519699
 21
100.883
  0
LINE
  8
0
 10
-0.519699
 20
100.883
 11
-0.578537
 21
100.574
  0
LINE
  8
0
 10
-0.578537
 20
100.574
 11
-0.675552
 21
100.276
  0
LINE
  8
0
 10
-0.675552
 20
100.276
 11
-0.809219
 21
99.9918
  0
LINE
  8
0
 10
-0.809219
 20
99.9918
 11
-0.977448
 21
99.7267
  0
LINE
  8
0
 10
-0.977448
 20
99.7267
 11
-1.17757
 21
99.4848
  0
LINE
  8
0
 10
-1.17757
 20
99.4848
 11
-1.40643
 21
99.2699
  0
LINE
  8
0
 10
-1.40643
 20
99.2699
 11
-1.66043
 21
99.0853
  0
LINE
  8
0
 10
-1.66043
 20
99.0853
 11
-1.93555
 21
98.9341
  0
LINE
  8
0
 10
-1.93555
 20
98.9341
 11
-2.22745
 21
98.8185
  0
LINE
  8
0
 10
-2.22745
 20
98.8185
 11
-2.53154
 21
98.7404
  0
LINE
  8
0
 10
-2.53154
 20
98.7404
 11
-2.84302
 21
98.7011
  0
LINE
  8
0
 10
-2.84302
 20
98.7011
 11
-3.15697
 21
98.7011
  0
LINE
  8
0
 10
5.84302
 20
93.5049
 11
5.53154
 21
93.5443
  0
LINE
  8
0
 10
5.53154
 20
93.5443
 11
5.22745
 21
93.6224
  0
LINE
  8
0
 10
5.22745
 20
93.6224
 11
4.93555
 21
93.7379
  0
LINE
  8
0
 10
4.93555
 20
93.7379
 11
4.66043
 21
93.8892
  0
LINE
  8
0
 10
4.66043
 20
93.8892
 11
4.40643
 21
94.0737
  0
LINE
  8
0
 10
4.40643
 20
94.0737
 11
4.17757
 21
94.2886
  0
LINE
  8
0
 10
4.17757
 20
94.2886
 11
3.97745
 21
94.5305
  0
LINE
  8
0
 10
3.97745
 20
94.5305
 11
3.80922
 21
94.7956
  0
LINE
  8
0
 10
3.80922
 20
94.7956
 11
3.67555
 21
95.0797
  0
LINE
  8
0
 10
3.67555
 20
95.0797
 11
3.57854
 21
95.3783
  0
LINE
  8
0
 10
3.57854
 20
95.3783
 11
3.5197
 21
95.6867
  0
LINE
  8
0
 10
3.5197
 20
95.6867
 11
3.5
 21
96
  0
LINE
  8
0
 10
3.5
 20
96
 11
3.5197
 21
96.3133
  0
LINE
  8
0
 10
3.5197
 20
96.3133
 11
3.57854
 21
96.6217
  0
LINE
  8
0
 10
3.57854
 20
96.6217
 11
3.67555
 21
96.9203
  0
LINE
  8
0
 10
3.67555
 20
96.9203
 11
3.80922
 21
97.2044
  0
LINE
  8
0
 10
3.80922
 20
97.2044
 11
3.97745
 21
97.4695
  0
LINE
  8
0
 10
3.97745
 20
97.4695
 11
4.17757
 21
97.7114
  0
LINE
  8
0
 10
4.17757
 20
97.7114
 11
4.40643
 21
97.9263
  0
LINE
  8
0
 10
4.40643
 20
97.9263
 11
4.66043
 21
98.1108
  0
LINE
  8
0
 10
4.66043
 20
98.1108
 11
4.93555
 21
98.2621
  0
LINE
  8
0
 10
4.93555
 20
98.2621
 11
5.22745
 21
98.3776
  0
LINE
  8
0
 10
5.22745
 20
98.3776
 11
5.53154
 21
98.4557
  0
LINE
  8
0
 10
5.53154
 20
98.4557
 11
5.84302
 21
98.4951
  0
LINE
  8
0
 10
5.84302
 20
98.4951
 11
6.15697
 21
98.4951
  0
LINE
  8
0
 10
6.15697
 20
98.4951
 11
6.46844
 21
98.4557
  0
LINE
  8
0
 10
6.46844
 20
98.4557
 11
6.77254
 21
98.3776
  0
LINE
  8
0
 10
6.77254
 20
98.3776
 11
7.06444
 21
98.2621
  0
LINE
  8
0
 10
7.06444
 20
98.2621
 11
7.33955
 21
98.1108
  0
LINE
  8
0
 10
7.33955
 20
98.1108
 11
7.59355
 21
97.9263
  0
LINE
  8
0
 10
7.59355
 20
97.9263
 11
7.82242
 21
97.7114
  0
LINE
  8
0
 10
7.82242
 20
97.7114
 11
8.02254
 21
97.4695
  0
LINE
  8
0
 10
8.02254
 20
97.4695
 11
8.19077
 21
97.2044
  0
LINE
  8
0
 10
8.19077
 20
97.2044
 11
8.32443
 21
96.9203
  0
LINE
  8
0
 10
8.32443
 20
96.9203
 11
8.42145
 21
96.6217
  0
LINE
  8
0
 10
8.42145
 20
96.6217
 11
8.48029
 21
96.3133
  0
LINE
  8
0
 10
8.48029
 20
96.3133
 11
8.5
 21
96
  0
LINE
  8
0
 10
8.5
 20
96
 11
8.48029
 21
95.6867
  0
LINE
  8
0
 10
8.48029
 20
95.6867
 11
8.42145
 21
95.3783
  0
LINE
  8
0
 10
8.42145
 20
95.3783
 11
8.32443
 21
95.0797
  0
LINE
  8
0
 10
8.32443
 20
95.0797
 11
8.19077
 21
94.7956
  0
LINE
  8
0
 10
8.19077
 20
94.7956
 11
8.02254
 21
94.5305
  0
LINE
  8
0
 10
8.02254
 20
94.5305
 11
7.82242
 21
94.2886
  0
LINE
  8
0
 10
7.82242
 20
94.2886
 11
7.59355
 21
94.0737
  0
LINE
  8
0
 10
7.59355
 20
94.0737
 11
7.33955
 21
93.8892
  0
LINE
  8
0
 10
7.33955
 20
93.8892
 11
7.06444
 21
93.7379
  0
LINE
  8
0
 10
7.06444
 20
93.7379
 11
6.77254
 21
93.6224
  0
LINE
  8
0
 10
6.77254
 20
93.6224
 11
6.46844
 21
93.5443
  0
LINE
  8
0
 10
6.46844
 20
93.5443
 11
6.15697
 21
93.5049
  0
LINE
  8
0
 10
6.15697
 20
93.5049
 11
5.84302
 21
93.5049
  0
LINE
  8
0
 10
-3.15697
 20
88.3088
 11
-3.46844
 21
88.3481
  0
LINE
  8
0
 10
-3.46844
 20
88.3481
 11
-3.77254
 21
88.4262
  0
LINE
  8
0
 10
-3.77254
 20
88.4262
 11
-4.06444
 21
88.5418
  0
LINE
  8
0
 10
-4.06444
 20
88.5418
 11
-4.33955
 21
88.693
  0
LINE
  8
0
 10
-4.33955
 20
88.693
 11
-4.59355
 21
88.8776
  0
LINE
  8
0
 10
-4.59355
 20
88.8776
 11
-4.82242
 21
89.0925
  0
LINE
  8
0
 10
-4.82242
 20
89.0925
 11
-5.02254
 21
89.3344
  0
LINE
  8
0
 10
-5.02254
 20
89.3344
 11
-5.19077
 21
89.5995
  0
LINE
  8
0
 10
-5.19077
 20
89.5995
 11
-5.32443
 21
89.8835
  0
LINE
  8
0
 10
-5.32443
 20
89.8835
 11
-5.42145
 21
90.1821
  0
LINE
  8
0
 10
-5.42145
 20
90.1821
 11
-5.48029
 21
90.4905
  0
LINE
  8
0
 10
-5.48029
 20
90.4905
 11
-5.5
 21
90.8038
  0
LINE
  8
0
 10
-5.5
 20
90.8038
 11
-5.48029
 21
91.1172
  0
LINE
  8
0
 10
-5.48029
 20
91.1172
 11
-5.42145
 21
91.4256
  0
LINE
  8
0
 10
-5.42145
 20
91.4256
 11
-5.32443
 21
91.7242
  0
LINE
  8
0
 10
-5.32443
 20
91.7242
 11
-5.19077
 21
92.0082
  0
LINE
  8
0
 10
-5.19077
 20
92.0082
 11
-5.02254
 21
92.2733
  0
LINE
  8
0
 10
-5.02254
 20
92.2733
 11
-4.82242
 21
92.5152
  0
LINE
  8
0
 10
-4.82242
 20
92.5152
 11
-4.59355
 21
92.7301
  0
LINE
  8
0
 10
-4.59355
 20
92.7301
 11
-4.33955
 21
92.9147
  0
LINE
  8
0
 10
-4.33955
 20
92.9147
 11
-4.06444
 21
93.0659
  0
LINE
  8
0
 10
-4.06444
 20
93.0659
 11
-3.77254
 21
93.1815
  0
LINE
  8
0
 10
-3.77254
 20
93.1815
 11
-3.46844
 21
93.2596
  0
LINE
  8
0
 10
-3.46844
 20
93.2596
 11
-3.15697
 21
93.2989
  0
LINE
  8
0
 10
-3.15697
 20
93.2989
 11
-2.84302
 21
93.2989
  0
LINE
  8
0
 10
-2.84302
 20
93.2989
 11
-2.53154
 21
93.2596
  0
LINE
  8
0
 10
-2.53154
 20
93.2596
 11
-2.22745
 21
93.1815
  0
LINE
  8
0
 10
-2.22745
 20
93.1815
 11
-1.93555
 21
93.0659
  0
LINE
  8
0
 10
-1.93555
 20
93.0659
 11
-1.66043
 21
92.9147
  0
LINE
  8
0
 10
-1.66043
 20
92.9147
 11
-1.40643
 21
92.7301
  0
LINE
  8
0
 10
-1.40643
 20
92.7301
 11
-1.17757
 21
92.5152
  0
LINE
  8
0
 10
-1.17757
 20
92.5152
 11
-0.977448
 21
92.2733
  0
LINE
  8
0
 10
-0.977448
 20
92.2733
 11
-0.809219
 21
92.0082
  0
LINE
  8
0
 10
-0.809219
 20
92.0082
 11
-0.675552
 21
91.7242
  0
LINE
  8
0
 10
-0.675552
 20
91.7242
 11
-0.578537
 21
91.4256
  0
LINE
  8
0
 10
-0.578537
 20
91.4256
 11
-0.519699
 21
91.1172
  0
LINE
  8
0
 10
-0.519699
 20
91.1172
 11
-0.5
 21
90.8038
  0
LINE
  8
0
 10
-0.5
 20
90.8038
 11
-0.519699
 21
90.4905
  0
LINE
  8
0
 10
-0.519699
 20
90.4905
 11
-0.578537
 21
90.1821
  0
LINE
  8
0
 10
-0.578537
 20
90.1821
 11
-0.675552
 21
89.8835
  0
LINE
  8
0
 10
-0.675552
 20
89.8835
 11
-0.809219
 21
89.5995
  0
LINE
  8
0
 10
-0.809219
 20
89.5995
 11
-0.977448
 21
89.3344
  0
LINE
  8
0
 10
-0.977448
 20
89.3344
 11
-1.17757
 21
89.0925
  0
LINE
  8
0
 10
-1.17757
 20
89.0925
 11
-1.40643
 21
88.8776
  0
LINE
  8
0
 10
-1.40643
 20
88.8776
 11
-1.66043
 21
88.693
  0
LINE
  8
0
 10
-1.66043
 20
88.693
 11
-1.93555
 21
88.5418
  0
LINE
  8
0
 10
-1.93555
 20
88.5418
 11
-2.22745
 21
88.4262
  0
LINE
  8
0
 10
-2.22745
 20
88.4262
 11
-2.53154
 21
88.3481
  0
LINE
  8
0
 10
-2.53154
 20
88.3481
 11
-2.84302
 21
88.3088
  0
LINE
  8
0
 10
-2.84302
 20
88.3088
 11
-3.15697
 21
88.3088
  0
LINE
  8
0
 10
1.87381
 20
62.1771
 11
3.09016
 21
62.4894
  0
LINE
  8
0
 10
3.09016
 20
62.4894
 11
4.25778
 21
62.9517
  0
LINE
  8
0
 10
4.25778
 20
62.9517
 11
5.35826
 21
63.5567
  0
LINE
  8
0
 10
5.35826
 20
63.5567
 11
6.37424
 21
64.2949
  0
LINE
  8
0
 10
6.37424
 20
64.2949
 11
7.28967
 21
65.1545
  0
LINE
  8
0
 10
7.28967
 20
65.1545
 11
8.09016
 21
66.1222
  0
LINE
  8
0
 10
8.09016
 20
66.1222
 11
8.76306
 21
67.1825
  0
LINE
  8
0
 10
8.76306
 20
67.1825
 11
9.29776
 21
68.3188
  0
LINE
  8
0
 10
9.29776
 20
68.3188
 11
9.68582
 21
69.5131
  0
LINE
  8
0
 10
9.68582
 20
69.5131
 11
9.92114
 21
70.7467
  0
LINE
  8
0
 10
9.92114
 20
70.7467
 11
10
 21
72
  0
LINE
  8
0
 10
10
 20
72
 11
9.92114
 21
73.2533
  0
LINE
  8
0
 10
9.92114
 20
73.2533
 11
9.68582
 21
74.4869
  0
LINE
  8
0
 10
9.68582
 20
74.4869
 11
9.29776
 21
75.6812
  0
LINE
  8
0
 10
9.29776
 20
75.6812
 11
8.76306
 21
76.8175
  0
LINE
  8
0
 10
8.76306
 20
76.8175
 11
8.09016
 21
77.8778
  0
LINE
  8
0
 10
8.09016
 20
77.8778
 11
7.28967
 21
78.8455
  0
LINE
  8
0
 10
7.28967
 20
78.8455
 11
6.37424
 21
79.7051
  0
LINE
  8
0
 10
6.37424
 20
79.7051
 11
5.35826
 21
80.4433
  0
LINE
  8
0
 10
5.35826
 20
80.4433
 11
4.25778
 21
81.0483
  0
LINE
  8
0
 10
4.25778
 20
81.0483
 11
3.09016
 21
81.5106
  0
LINE
  8
0
 10
3.09016
 20
81.5106
 11
1.87381
 21
81.8229
  0
LINE
  8
0
 10
1.87381
 20
81.8229
 11
0.627899
 21
81.9803
  0
LINE
  8
0
 10
0.627899
 20
81.9803
 11
-0.627899
 21
81.9803
  0
LINE
  8
0
 10
-0.627899
 20
81.9803
 11
-1.87381
 21
81.8229
  0
LINE
  8
0
 10
-1.87381
 20
81.8229
 11
-3.09016
 21
81.5106
  0
LINE
  8
0
 10
-3.09016
 20
81.5106
 11
-4.25778
 21
81.0483
  0
LINE
  8
0
 10
-4.25778
 20
81.0483
 11
-5.35826
 21
80.4433
  0
LINE
  8
0
 10
-5.35826
 20
80.4433
 11
-6.37424
 21
79.7051
  0
LINE
  8
0
 10
-6.37424
 20
79.7051
 11
-7.28967
 21
78.8455
  0
LINE
  8
0
 10
-7.28967
 20
78.8455
 11
-8.09016
 21
77.8778
  0
LINE
  8
0
 10
-8.09016
 20
77.8778
 11
-8.76306
 21
76.8175
  0
LINE
  8
0
 10
-8.76306
 20
76.8175
 11
-9.29776
 21
75.6812
  0
LINE
  8
0
 10
-9.29776
 20
75.6812
 11
-9.68582
 21
74.4869
  0
LINE
  8
0
 10
-9.68582
 20
74.4869
 11
-9.92114
 21
73.2533
  0
LINE
  8
0
 10
-9.92114
 20
73.2533
 11
-10
 21
72
  0
LINE
  8
0
 10
-10
 20
72
 11
-9.92114
 21
70.7467
  0
LINE
  8
0
 10
-9.92114
 20
70.7467
 11
-9.68582
 21
69.5131
  0
LINE
  8
0
 10
-9.68582
 20
69.5131
 11
-9.29776
 21
68.3188
  0
LINE
  8
0
 10
-9.29776
 20
68.3188
 11
-8.76306
 21
67.1825
  0
LINE
  8
0
 10
-8.76306
 20
67.1825
 11
-8.09016
 21
66.1222
  0
LINE
  8
0
 10
-8.09016
 20
66.1222
 11
-7.28967
 21
65.1545
  0
LINE
  8
0
 10
-7.28967
 20
65.1545
 11
-6.37424
 21
64.2949
  0
LINE
  8
0
 10
-6.37424
 20
64.2949
 11
-5.35826
 21
63.5567
  0
LINE
  8
0
 10
-5.35826
 20
63.5567
 11
-4.25778
 21
62.9517
  0
LINE
  8
0
 10
-4.25778
 20
62.9517
 11
-3.09016
 21
62.4894
  0
LINE
  8
0
 10
-3.09016
 20
62.4894
 11
-1.87381
 21
62.1771
  0
LINE
  8
0
 10
-1.87381
 20
62.1771
 11
-0.627899
 21
62.0197
  0
LINE
  8
0
 10
-0.627899
 20
62.0197
 11
0.627899
 21
62.0197
  0
LINE
  8
0
 10
0.627899
 20
62.0197
 11
1.87381
 21
62.1771
  0
LINE
  8
0
 10
-3.15697
 20
74.7011
 11
-3.46844
 21
74.7404
  0
LINE
  8
0
 10
-3.46844
 20
74.7404
 11
-3.77254
 21
74.8185
  0
LINE
  8
0
 10
-3.77254
 20
74.8185
 11
-4.06444
 21
74.9341
  0
LINE
  8
0
 10
-4.06444
 20
74.9341
 11
-4.33955
 21
75.0853
  0
LINE
  8
0
 10
-4.33955
 20
75.0853
 11
-4.59355
 21
75.2699
  0
LINE
  8
0
 10
-4.59355
 20
75.2699
 11
-4.82242
 21
75.4848
  0
LINE
  8
0
 10
-4.82242
 20
75.4848
 11
-5.02254
 21
75.7267
  0
LINE
  8
0
 10
-5.02254
 20
75.7267
 11
-5.19077
 21
75.9918
  0
LINE
  8
0
 10
-5.19077
 20
75.9918
 11
-5.32443
 21
76.2758
  0
LINE
  8
0
 10
-5.32443
 20
76.2758
 11
-5.42145
 21
76.5744
  0
LINE
  8
0
 10
-5.42145
 20
76.5744
 11
-5.48029
 21
76.8828
  0
LINE
  8
0
 10
-5.48029
 20
76.8828
 11
-5.5
 21
77.1962
  0
LINE
  8
0
 10
-5.5
 20
77.1962
 11
-5.48029
 21
77.5095
  0
LINE
  8
0
 10
-5.48029
 20
77.5095
 11
-5.42145
 21
77.8179
  0
LINE
  8
0
 10
-5.42145
 20
77.8179
 11
-5.32443
 21
78.1165
  0
LINE
  8
0
 10
-5.32443
 20
78.1165
 11
-5.19077
 21
78.4005
  0
LINE
  8
0
 10
-5.19077
 20
78.4005
 11
-5.02254
 21
78.6656
  0
LINE
  8
0
 10
-5.02254
 20
78.6656
 11
-4.82242
 21
78.9075
  0
LINE
  8
0
 10
-4.82242
 20
78.9075
 11
-4.59355
 21
79.1224
  0
LINE
  8
0
 10
-4.59355
 20
79.1224
 11
-4.33955
 21
79.307
  0
LINE
  8
0
 10
-4.33955
 20
79.307
 11
-4.06444
 21
79.4582
  0
LINE
  8
0
 10
-4.06444
 20
79.4582
 11
-3.77254
 21
79.5738
  0
LINE
  8
0
 10
-3.77254
 20
79.5738
 11
-3.46844
 21
79.6519
  0
LINE
  8
0
 10
-3.46844
 20
79.6519
 11
-3.15697
 21
79.6912
  0
LINE
  8
0
 10
-3.15697
 20
79.6912
 11
-2.84302
 21
79.6912
  0
LINE
  8
0
 10
-2.84302
 20
79.6912
 11
-2.53154
 21
79.6519
  0
LINE
  8
0
 10
-2.53154
 20
79.6519
 11
-2.22745
 21
79.5738
  0
LINE
  8
0
 10
-2.22745
 20
79.5738
 11
-1.93555
 21
79.4582
  0
LINE
  8
0
 10
-1.93555
 20
79.4582
 11
-1.66043
 21
79.307
  0
LINE
  8
0
 10
-1.66043
 20
79.307
 11
-1.40643
 21
79.1224
  0
LINE
  8
0
 10
-1.40643
 20
79.1224
 11
-1.17757
 21
78.9075
  0
LINE
  8
0
 10
-1.17757
 20
78.9075
 11
-0.977448
 21
78.6656
  0
LINE
  8
0
 10
-0.977448
 20
78.6656
 11
-0.809219
 21
78.4005
  0
LINE
  8
0
 10
-0.809219
 20
78.4005
 11
-0.675552
 21
78.1165
  0
LINE
  8
0
 10
-0.675552
 20
78.1165
 11
-0.578537
 21
77.8179
  0
LINE
  8
0
 10
-0.578537
 20
77.8179
 11
-0.519699
 21
77.5095
  0
LINE
  8
0
 10
-0.519699
 20
77.5095
 11
-0.5
 21
77.1962
  0
LINE
  8
0
 10
-0.5
 20
77.1962
 11
-0.519699
 21
76.8828
  0
LINE
  8
0
 10
-0.519699
 20
76.8828
 11
-0.578537
 21
76.5744
  0
LINE
  8
0
 10
-0.578537
 20
76.5744
 11
-0.675552
 21
76.2758
  0
LINE
  8
0
 10
-0.675552
 20
76.2758
 11
-0.809219
 21
75.9918
  0
LINE
  8
0
 10
-0.809219
 20
75.9918
 11
-0.977448
 21
75.7267
  0
LINE
  8
0
 10
-0.977448
 20
75.7267
 11
-1.17757
 21
75.4848
  0
LINE
  8
0
 10
-1.17757
 20
75.4848
 11
-1.40643
 21
75.2699
  0
LINE
  8
0
 10
-1.40643
 20
75.2699
 11
-1.66043
 21
75.0853
  0
LINE
  8
0
 10
-1.66043
 20
75.0853
 11
-1.93555
 21
74.9341
  0
LINE
  8
0
 10
-1.93555
 20
74.9341
 11
-2.22745
 21
74.8185
  0
LINE
  8
0
 10
-2.22745
 20
74.8185
 11
-2.53154
 21
74.7404
  0
LINE
  8
0
 10
-2.53154
 20
74.7404
 11
-2.84302
 21
74.7011
  0
LINE
  8
0
 10
-2.84302
 20
74.7011
 11
-3.15697
 21
74.7011
  0
LINE
  8
0
 10
5.84302
 20
69.5049
 11
5.53154
 21
69.5443
  0
LINE
  8
0
 10
5.53154
 20
69.5443
 11
5.22745
 21
69.6224
  0
LINE
  8
0
 10
5.22745
 20
69.6224
 11
4.93555
 21
69.7379
  0
LINE
  8
0
 10
4.93555
 20
69.7379
 11
4.66043
 21
69.8892
  0
LINE
  8
0
 10
4.66043
 20
69.8892
 11
4.40643
 21
70.0737
  0
LINE
  8
0
 10
4.40643
 20
70.0737
 11
4.17757
 21
70.2886
  0
LINE
  8
0
 10
4.17757
 20
70.2886
 11
3.97745
 21
70.5305
  0
LINE
  8
0
 10
3.97745
 20
70.5305
 11
3.80922
 21
70.7956
  0
LINE
  8
0
 10
3.80922
 20
70.7956
 11
3.67555
 21
71.0797
  0
LINE
  8
0
 10
3.67555
 20
71.0797
 11
3.57854
 21
71.3783
  0
LINE
  8
0
 10
3.57854
 20
71.3783
 11
3.5197
 21
71.6867
  0
LINE
  8
0
 10
3.5197
 20
71.6867
 11
3.5
 21
72
  0
LINE
  8
0
 10
3.5
 20
72
 11
3.5197
 21
72.3133
  0
LINE
  8
0
 10
3.5197
 20
72.3133
 11
3.57854
 21
72.6217
  0
LINE
  8
0
 10
3.57854
 20
72.6217
 11
3.67555
 21
72.9203
  0
LINE
  8
0
 10
3.67555
 20
72.9203
 11
3.80922
 21
73.2044
  0
LINE
  8
0
 10
3.80922
 20
73.2044
 11
3.97745
 21
73.4695
  0
LINE
  8
0
 10
3.97745
 20
73.4695
 11
4.17757
 21
73.7114
  0
LINE
  8
0
 10
4.17757
 20
73.7114
 11
4.40643
 21
73.9263
  0
LINE
  8
0
 10
4.40643
 20
73.9263
 11
4.66043
 21
74.1108
  0
LINE
  8
0
 10
4.66043
 20
74.1108
 11
4.93555
 21
74.2621
  0
LINE
  8
0
 10
4.93555
 20
74.2621
 11
5.22745
 21
74.3776
  0
LINE
  8
0
 10
5.22745
 20
74.3776
 11
5.53154
 21
74.4557
  0
LINE
  8
0
 10
5.53154
 20
74.4557
 11
5.84302
 21
74.4951
  0
LINE
  8
0
 10
5.84302
 20
74.4951
 11
6.15697
 21
74.4951
  0
LINE
  8
0
 10
6.15697
 20
74.4951
 11
6.46844
 21
74.4557
  0
LINE
  8
0
 10
6.46844
 20
74.4557
 11
6.77254
 21
74.3776
  0
LINE
  8
0
 10
6.77254
 20
74.3776
 11
7.06444
 21
74.2621
  0
LINE
  8
0
 10
7.06444
 20
74.2621
 11
7.33955
 21
74.1108
  0
LINE
  8
0
 10
7.33955
 20
74.1108
 11
7.59355
 21
73.9263
  0
LINE
  8
0
 10
7.59355
 20
73.9263
 11
7.82242
 21
73.7114
  0
LINE
  8
0
 10
7.82242
 20
73.7114
 11
8.02254
 21
73.4695
  0
LINE
  8
0
 10
8.02254
 20
73.4695
 11
8.19077
 21
73.2044
  0
LINE
  8
0
 10
8.19077
 20
73.2044
 11
8.32443
 21
72.9203
  0
LINE
  8
0
 10
8.32443
 20
72.9203
 11
8.42145
 21
72.6217
  0
LINE
  8
0
 10
8.42145
 20
72.6217
 11
8.48029
 21
72.3133
  0
LINE
  8
0
 10
8.48029
 20
72.3133
 11
8.5
 21
72
  0
LINE
  8
0
 10
8.5
 20
72
 11
8.48029
 21
71.6867
  0
LINE
  8
0
 10
8.48029
 20
71.6867
 11
8.42145
 21
71.3783
  0
LINE
  8
0
 10
8.42145
 20
71.3783
 11
8.32443
 21
71.0797
  0
LINE
  8
0
 10
8.32443
 20
71.0797
 11
8.19077
 21
70.7956
  0
LINE
  8
0
 10
8.19077
 20
70.7956
 11
8.02254
 21
70.5305
  0
LINE
  8
0
 10
8.02254
 20
70.5305
 11
7.82242
 21
70.2886
  0
LINE
  8
0
 10
7.82242
 20
70.2886
 11
7.59355
 21
70.0737
  0
LINE
  8
0
 10
7.59355
 20
70.0737
 11
7.33955
 21
69.8892
  0
LINE
  8
0
 10
7.33955
 20
69.8892
 11
7.06444
 21
69.7379
  0
LINE
  8
0
 10
7.06444
 20
69.7379
 11
6.77254
 21
69.6224
  0
LINE
  8
0
 10
6.77254
 20
69.6224
 11
6.46844
 21
69.5443
  0
LINE
  8
0
 10
6.46844
 20
69.5443
 11
6.15697
 21
69.5049
  0
LINE
  8
0
 10
6.15697
 20
69.5049
 11
5.84302
 21
69.5049
  0
LINE
  8
0
 10
-3.15697
 20
64.3088
 11
-3.46844
 21
64.3481
  0
LINE
  8
0
 10
-3.46844
 20
64.3481
 11
-3.77254
 21
64.4262
  0
LINE
  8
0
 10
-3.77254
 20
64.4262
 11
-4.06444
 21
64.5418
  0
LINE
  8
0
 10
-4.06444
 20
64.5418
 11
-4.33955
 21
64.693
  0
LINE
  8
0
 10
-4.33955
 20
64.693
 11
-4.59355
 21
64.8776
  0
LINE
  8
0
 10
-4.59355
 20
64.8776
 11
-4.82242
 21
65.0925
  0
LINE
  8
0
 10
-4.82242
 20
65.0925
 11
-5.02254
 21
65.3344
  0
LINE
  8
0
 10
-5.02254
 20
65.3344
 11
-5.19077
 21
65.5995
  0
LINE
  8
0
 10
-5.19077
 20
65.5995
 11
-5.32443
 21
65.8835
  0
LINE
  8
0
 10
-5.32443
 20
65.8835
 11
-5.42145
 21
66.1821
  0
LINE
  8
0
 10
-5.42145
 20
66.1821
 11
-5.48029
 21
66.4905
  0
LINE
  8
0
 10
-5.48029
 20
66.4905
 11
-5.5
 21
66.8038
  0
LINE
  8
0
 10
-5.5
 20
66.8038
 11
-5.48029
 21
67.1172
  0
LINE
  8
0
 10
-5.48029
 20
67.1172
 11
-5.42145
 21
67.4256
  0
LINE
  8
0
 10
-5.42145
 20
67.4256
 11
-5.32443
 21
67.7242
  0
LINE
  8
0
 10
-5.32443
 20
67.7242
 11
-5.19077
 21
68.0082
  0
LINE
  8
0
 10
-5.19077
 20
68.0082
 11
-5.02254
 21
68.2733
  0
LINE
  8
0
 10
-5.02254
 20
68.2733
 11
-4.82242
 21
68.5152
  0
LINE
  8
0
 10
-4.82242
 20
68.5152
 11
-4.59355
 21
68.7301
  0
LINE
  8
0
 10
-4.59355
 20
68.7301
 11
-4.33955
 21
68.9147
  0
LINE
  8
0
 10
-4.33955
 20
68.9147
 11
-4.06444
 21
69.0659
  0
LINE
  8
0
 10
-4.06444
 20
69.0659
 11
-3.77254
 21
69.1815
  0
LINE
  8
0
 10
-3.77254
 20
69.1815
 11
-3.46844
 21
69.2596
  0
LINE
  8
0
 10
-3.46844
 20
69.2596
 11
-3.15697
 21
69.2989
  0
LINE
  8
0
 10
-3.15697
 20
69.2989
 11
-2.84302
 21
69.2989
  0
LINE
  8
0
 10
-2.84302
 20
69.2989
 11
-2.53154
 21
69.2596
  0
LINE
  8
0
 10
-2.53154
 20
69.2596
 11
-2.22745
 21
69.1815
  0
LINE
  8
0
 10
-2.22745
 20
69.1815
 11
-1.93555
 21
69.0659
  0
LINE
  8
0
 10
-1.93555
 20
69.0659
 11
-1.66043
 21
68.9147
  0
LINE
  8
0
 10
-1.66043
 20
68.9147
 11
-1.40643
 21
68.7301
  0
LINE
  8
0
 10
-1.40643
 20
68.7301
 11
-1.17757
 21
68.5152
  0
LINE
  8
0
 10
-1.17757
 20
68.5152
 11
-0.977448
 21
68.2733
  0
LINE
  8
0
 10
-0.977448
 20
68.2733
 11
-0.809219
 21
68.0082
  0
LINE
  8
0
 10
-0.809219
 20
68.0082
 11
-0.675552
 21
67.7242
  0
LINE
  8
0
 10
-0.675552
 20
67.7242
 11
-0.578537
 21
67.4256
  0
LINE
  8
0
 10
-0.578537
 20
67.4256
 11
-0.519699
 21
67.1172
  0
LINE
  8
0
 10
-0.519699
 20
67.1172
 11
-0.5
 21
66.8038
  0
LINE
  8
0
 10
-0.5
 20
66.8038
 11
-0.519699
 21
66.4905
  0
LINE
  8
0
 10
-0.519699
 20
66.4905
 11
-0.578537
 21
66.1821
  0
LINE
  8
0
 10
-0.578537
 20
66.1821
 11
-0.675552
 21
65.8835
  0
LINE
  8
0
 10
-0.675552
 20
65.8835
 11
-0.809219
 21
65.5995
  0
LINE
  8
0
 10
-0.809219
 20
65.5995
 11
-0.977448
 21
65.3344
  0
LINE
  8
0
 10
-0.977448
 20
65.3344
 11
-1.17757
 21
65.0925
  0
LINE
  8
0
 10
-1.17757
 20
65.0925
 11
-1.40643
 21
64.8776
  0
LINE
  8
0
 10
-1.40643
 20
64.8776
 11
-1.66043
 21
64.693
  0
LINE
  8
0
 10
-1.66043
 20
64.693
 11
-1.93555
 21
64.5418
  0
LINE
  8
0
 10
-1.93555
 20
64.5418
 11
-2.22745
 21
64.4262
  0
LINE
  8
0
 10
-2.22745
 20
64.4262
 11
-2.53154
 21
64.3481
  0
LINE
  8
0
 10
-2.53154
 20
64.3481
 11
-2.84302
 21
64.3088
  0
LINE
  8
0
 10
-2.84302
 20
64.3088
 11
-3.15697
 21
64.3088
  0
LINE
  8
0
 10
1.87381
 20
38.1771
 11
3.09016
 21
38.4894
  0
LINE
  8
0
 10
3.09016
 20
38.4894
 11
4.25778
 21
38.9517
  0
LINE
  8
0
 10
4.25778
 20
38.9517
 11
5.35826
 21
39.5567
  0
LINE
  8
0
 10
5.35826
 20
39.5567
 11
6.37424
 21
40.2949
  0
LINE
  8
0
 10
6.37424
 20
40.2949
 11
7.28967
 21
41.1545
  0
LINE
  8
0
 10
7.28967
 20
41.1545
 11
8.09016
 21
42.1222
  0
LINE
  8
0
 10
8.09016
 20
42.1222
 11
8.76306
 21
43.1825
  0
LINE
  8
0
 10
8.76306
 20
43.1825
 11
9.29776
 21
44.3188
  0
LINE
  8
0
 10
9.29776
 20
44.3188
 11
9.68582
 21
45.5131
  0
LINE
  8
0
 10
9.68582
 20
45.5131
 11
9.92114
 21
46.7467
  0
LINE
  8
0
 10
9.92114
 20
46.7467
 11
10
 21
48
  0
LINE
  8
0
 10
10
 20
48
 11
9.92114
 21
49.2533
  0
LINE
  8
0
 10
9.92114
 20
49.2533
 11
9.68582
 21
50.4869
  0
LINE
  8
0
 10
9.68582
 20
50.4869
 11
9.29776
 21
51.6812
  0
LINE
  8
0
 10
9.29776
 20
51.6812
 11
8.76306
 21
52.8175
  0
LINE
  8
0
 10
8.76306
 20
52.8175
 11
8.09016
 21
53.8778
  0
LINE
  8
0
 10
8.09016
 20
53.8778
 11
7.28967
 21
54.8455
  0
LINE
  8
0
 10
7.28967
 20
54.8455
 11
6.37424
 21
55.7051
  0
LINE
  8
0
 10
6.37424
 20
55.7051
 11
5.35826
 21
56.4433
  0
LINE
  8
0
 10
5.35826
 20
56.4433
 11
4.25778
 21
57.0483
  0
LINE
  8
0
 10
4.25778
 20
57.0483
 11
3.09016
 21
57.5106
  0
LINE
  8
0
 10
3.09016
 20
57.5106
 11
1.87381
 21
57.8229
  0
LINE
  8
0
 10
1.87381
 20
57.8229
 11
0.627899
 21
57.9803
  0
LINE
  8
0
 10
0.627899
 20
57.9803
 11
-0.627899
 21
57.9803
  0
LINE
  8
0
 10
-0.627899
 20
57.9803
 11
-1.87381
 21
57.8229
  0
LINE
  8
0
 10
-1.87381
 20
57.8229
 11
-3.09016
 21
57.5106
  0
LINE
  8
0
 10
-3.09016
 20
57.5106
 11
-4.25778
 21
57.0483
  0
LINE
  8
0
 10
-4.25778
 20
57.0483
 11
-5.35826
 21
56.4433
  0
LINE
  8
0
 10
-5.35826
 20
56.4433
 11
-6.37424
 21
55.7051
  0
LINE
  8
0
 10
-6.37424
 20
55.7051
 11
-7.28967
 21
54.8455
  0
LINE
  8
0
 10
-7.28967
 20
54.8455
 11
-8.09016
 21
53.8778
  0
LINE
  8
0
 10
-8.09016
 20
53.8778
 11
-8.76306
 21
52.8175
  0
LINE
  8
0
 10
-8.76306
 20
52.8175
 11
-9.29776
 21
51.6812
  0
LINE
  8
0
 10
-9.29776
 20
51.6812
 11
-9.68582
 21
50.4869
  0
LINE
  8
0
 10
-9.68582
 20
50.4869
 11
-9.92114
 21
49.2533
  0
LINE
  8
0
 10
-9.92114
 20
49.2533
 11
-10
 21
48
  0
LINE
  8
0
 10
-10
 20
48
 11
-9.92114
 21
46.7467
  0
LINE
  8
0
 10
-9.92114
 20
46.7467
 11
-9.68582
 21
45.5131
  0
LINE
  8
0
 10
-9.68582
 20
45.5131
 11
-9.29776
 21
44.3188
  0
LINE
  8
0
 10
-9.29776
 20
44.3188
 11
-8.76306
 21
43.1825
  0
LINE
  8
0
 10
-8.76306
 20
43.1825
 11
-8.09016
 21
42.1222
  0
LINE
  8
0
 10
-8.09016
 20
42.1222
 11
-7.28967
 21
41.1545
  0
LINE
  8
0
 10
-7.28967
 20
41.1545
 11
-6.37424
 21
40.2949
  0
LINE
  8
0
 10
-6.37424
 20
40.2949
 11
-5.35826
 21
39.5567
  0
LINE
  8
0
 10
-5.35826
 20
39.5567
 11
-4.25778
 21
38.9517
  0
LINE
  8
0
 10
-4.25778
 20
38.9517
 11
-3.09016
 21
38.4894
  0
LINE
  8
0
 10
-3.09016
 20
38.4894
 11
-1.87381
 21
38.1771
  0
LINE
  8
0
 10
-1.87381
 20
38.1771
 11
-0.627899
 21
38.0197
  0
LINE
  8
0
 10
-0.627899
 20
38.0197
 11
0.627899
 21
38.0197
  0
LINE
  8
0
 10
0.627899
 20
38.0197
 11
1.87381
 21
38.1771
  0
LINE
  8
0
 10
-3.15697
 20
50.7011
 11
-3.46844
 21
50.7404
  0
LINE
  8
0
 10
-3.46844
 20
50.7404
 11
-3.77254
 21
50.8185
  0
LINE
  8
0
 10
-3.77254
 20
50.8185
 11
-4.06444
 21
50.9341
  0
LINE
  8
0
 10
-4.06444
 20
50.9341
 11
-4.33955
 21
51.0853
  0
LINE
  8
0
 10
-4.33955
 20
51.0853
 11
-4.59355
 21
51.2699
  0
LINE
  8
0
 10
-4.59355
 20
51.2699
 11
-4.82242
 21
51.4848
  0
LINE
  8
0
 10
-4.82242
 20
51.4848
 11
-5.02254
 21
51.7267
  0
LINE
  8
0
 10
-5.02254
 20
51.7267
 11
-5.19077
 21
51.9918
  0
LINE
  8
0
 10
-5.19077
 20
51.9918
 11
-5.32443
 21
52.2758
  0
LINE
  8
0
 10
-5.32443
 20
52.2758
 11
-5.42145
 21
52.5744
  0
LINE
  8
0
 10
-5.42145
 20
52.5744
 11
-5.48029
 21
52.8828
  0
LINE
  8
0
 10
-5.48029
 20
52.8828
 11
-5.5
 21
53.1962
  0
LINE
  8
0
 10
-5.5
 20
53.1962
 11
-5.48029
 21
53.5095
  0
LINE
  8
0
 10
-5.48029
 20
53.5095
 11
-5.42145
 21
53.8179
  0
LINE
  8
0
 10
-5.42145
 20
53.8179
 11
-5.32443
 21
54.1165
  0
LINE
  8
0
 10
-5.32443
 20
54.1165
 11
-5.19077
 21
54.4005
  0
LINE
  8
0
 10
-5.19077
 20
54.4005
 11
-5.02254
 21
54.6656
  0
LINE
  8
0
 10
-5.02254
 20
54.6656
 11
-4.82242
 21
54.9075
  0
LINE
  8
0
 10
-4.82242
 20
54.9075
 11
-4.59355
 21
55.1224
  0
LINE
  8
0
 10
-4.59355
 20
55.1224
 11
-4.33955
 21
55.307
  0
LINE
  8
0
 10
-4.33955
 20
55.307
 11
-4.06444
 21
55.4582
  0
LINE
  8
0
 10
-4.06444
 20
55.4582
 11
-3.77254
 21
55.5738
  0
LINE
  8
0
 10
-3.77254
 20
55.5738
 11
-3.46844
 21
55.6519
  0
LINE
  8
0
 10
-3.46844
 20
55.6519
 11
-3.15697
 21
55.6912
  0
LINE
  8
0
 10
-3.15697
 20
55.6912
 11
-2.84302
 21
55.6912
  0
LINE
  8
0
 10
-2.84302
 20
55.6912
 11
-2.53154
 21
55.6519
  0
LINE
  8
0
 10
-2.53154
 20
55.6519
 11
-2.22745
 21
55.5738
  0
LINE
  8
0
 10
-2.22745
 20
55.5738
 11
-1.93555
 21
55.4582
  0
LINE
  8
0
 10
-1.93555
 20
55.4582
 11
-1.66043
 21
55.307
  0
LINE
  8
0
 10
-1.66043
 20
55.307
 11
-1.40643
 21
55.1224
  0
LINE
  8
0
 10
-1.40643
 20
55.1224
 11
-1.17757
 21
54.9075
  0
LINE
  8
0
 10
-1.17757
 20
54.9075
 11
-0.977448
 21
54.6656
  0
LINE
  8
0
 10
-0.977448
 20
54.6656
 11
-0.809219
 21
54.4005
  0
LINE
  8
0
 10
-0.809219
 20
54.4005
 11
-0.675552
 21
54.1165
  0
LINE
  8
0
 10
-0.675552
 20
54.1165
 11
-0.578537
 21
53.8179
  0
LINE
  8
0
 10
-0.578537
 20
53.8179
 11
-0.519699
 21
53.5095
  0
LINE
  8
0
 10
-0.519699
 20
53.5095
 11
-0.5
 21
53.1962
  0
LINE
  8
0
 10
-0.5
 20
53.1962
 11
-0.519699
 21
52.8828
  0
LINE
  8
0
 10
-0.519699
 20
52.8828
 11
-0.578537
 21
52.5744
  0
LINE
  8
0
 10
-0.578537
 20
52.5744
 11
-0.675552
 21
52.2758
  0
LINE
  8
0
 10
-0.675552
 20
52.2758
 11
-0.809219
 21
51.9918
  0
LINE
  8
0
 10
-0.809219
 20
51.9918
 11
-0.977448
 21
51.7267
  0
LINE
  8
0
 10
-0.977448
 20
51.7267
 11
-1.17757
 21
51.4848
  0
LINE
  8
0
 10
-1.17757
 20
51.4848
 11
-1.40643
 21
51.2699
  0
LINE
  8
0
 10
-1.40643
 20
51.2699
 11
-1.66043
 21
51.0853
  0
LINE
  8
0
 10
-1.66043
 20
51.0853
 11
-1.93555
 21
50.9341
  0
LINE
  8
0
 10
-1.93555
 20
50.9341
 11
-2.22745
 21
50.8185
  0
LINE
  8
0
 10
-2.22745
 20
50.8185
 11
-2.53154
 21
50.7404
  0
LINE
  8
0
 10
-2.53154
 20
50.7404
 11
-2.84302
 21
50.7011
  0
LINE
  8
0
 10
-2.84302
 20
50.7011
 11
-3.15697
 21
50.7011
  0
LINE
  8
0
 10
5.84302
 20
45.5049
 11
5.53154
 21
45.5443
  0
LINE
  8
0
 10
5.53154
 20
45.5443
 11
5.22745
 21
45.6224
  0
LINE
  8
0
 10
5.22745
 20
45.6224
 11
4.93555
 21
45.7379
  0
LINE
  8
0
 10
4.93555
 20
45.7379
 11
4.66043
 21
45.8892
  0
LINE
  8
0
 10
4.66043
 20
45.8892
 11
4.40643
 21
46.0737
  0
LINE
  8
0
 10
4.40643
 20
46.0737
 11
4.17757
 21
46.2886
  0
LINE
  8
0
 10
4.17757
 20
46.2886
 11
3.97745
 21
46.5305
  0
LINE
  8
0
 10
3.97745
 20
46.5305
 11
3.80922
 21
46.7956
  0
LINE
  8
0
 10
3.80922
 20
46.7956
 11
3.67555
 21
47.0797
  0
LINE
  8
0
 10
3.67555
 20
47.0797
 11
3.57854
 21
47.3783
  0
LINE
  8
0
 10
3.57854
 20
47.3783
 11
3.5197
 21
47.6867
  0
LINE
  8
0
 10
3.5197
 20
47.6867
 11
3.5
 21
48
  0
LINE
  8
0
 10
3.5
 20
48
 11
3.5197
 21
48.3133
  0
LINE
  8
0
 10
3.5197
 20
48.3133
 11
3.57854
 21
48.6217
  0
LINE
  8
0
 10
3.57854
 20
48.6217
 11
3.67555
 21
48.9203
  0
LINE
  8
0
 10
3.67555
 20
48.9203
 11
3.80922
 21
49.2044
  0
LINE
  8
0
 10
3.80922
 20
49.2044
 11
3.97745
 21
49.4695
  0
LINE
  8
0
 10
3.97745
 20
49.4695
 11
4.17757
 21
49.7114
  0
LINE
  8
0
 10
4.17757
 20
49.7114
 11
4.40643
 21
49.9263
  0
LINE
  8
0
 10
4.40643
 20
49.9263
 11
4.66043
 21
50.1108
  0
LINE
  8
0
 10
4.66043
 20
50.1108
 11
4.93555
 21
50.2621
  0
LINE
  8
0
 10
4.93555
 20
50.2621
 11
5.22745
 21
50.3776
  0
LINE
  8
0
 10
5.22745
 20
50.3776
 11
5.53154
 21
50.4557
  0
LINE
  8
0
 10
5.53154
 20
50.4557
 11
5.84302
 21
50.4951
  0
LINE
  8
0
 10
5.84302
 20
50.4951
 11
6.15697
 21
50.4951
  0
LINE
  8
0
 10
6.15697
 20
50.4951
 11
6.46844
 21
50.4557
  0
LINE
  8
0
 10
6.46844
 20
50.4557
 11
6.77254
 21
50.3776
  0
LINE
  8
0
 10
6.77254
 20
50.3776
 11
7.06444
 21
50.2621
  0
LINE
  8
0
 10
7.06444
 20
50.2621
 11
7.33955
 21
50.1108
  0
LINE
  8
0
 10
7.33955
 20
50.1108
 11
7.59355
 21
49.9263
  0
LINE
  8
0
 10
7.59355
 20
49.9263
 11
7.82242
 21
49.7114
  0
LINE
  8
0
 10
7.82242
 20
49.7114
 11
8.02254
 21
49.4695
  0
LINE
  8
0
 10
8.02254
 20
49.4695
 11
8.19077
 21
49.2044
  0
LINE
  8
0
 10
8.19077
 20
49.2044
 11
8.32443
 21
48.9203
  0
LINE
  8
0
 10
8.32443
 20
48.9203
 11
8.42145
 21
48.6217
  0
LINE
  8
0
 10
8.42145
 20
48.6217
 11
8.48029
 21
48.3133
  0
LINE
  8
0
 10
8.48029
 20
48.3133
 11
8.5
 21
48
  0
LINE
  8
0
 10
8.5
 20
48
 11
8.48029
 21
47.6867
  0
LINE
  8
0
 10
8.48029
 20
47.6867
 11
8.42145
 21
47.3783
  0
LINE
  8
0
 10
8.42145
 20
47.3783
 11
8.32443
 21
47.0797
  0
LINE
  8
0
 10
8.32443
 20
47.0797
 11
8.19077
 21
46.7956
  0
LINE
  8
0
 10
8.19077
 20
46.7956
 11
8.02254
 21
46.5305
  0
LINE
  8
0
 10
8.02254
 20
46.5305
 11
7.82242
 21
46.2886
  0
LINE
  8
0
 10
7.82242
 20
46.2886
 11
7.59355
 21
46.0737
  0
LINE
  8
0
 10
7.59355
 20
46.0737
 11
7.33955
 21
45.8892
  0
LINE
  8
0
 10
7.33955
 20
45.8892
 11
7.06444
 21
45.7379
  0
LINE
  8
0
 10
7.06444
 20
45.7379
 11
6.77254
 21
45.6224
  0
LINE
  8
0
 10
6.77254
 20
45.6224
 11
6.46844
 21
45.5443
  0
LINE
  8
0
 10
6.46844
 20
45.5443
 11
6.15697
 21
45.5049
  0
LINE
  8
0
 10
6.15697
 20
45.5049
 11
5.84302
 21
45.5049
  0
LINE
  8
0
 10
-3.15697
 20
40.3088
 11
-3.46844
 21
40.3481
  0
LINE
  8
0
 10
-3.46844
 20
40.3481
 11
-3.77254
 21
40.4262
  0
LINE
  8
0
 10
-3.77254
 20
40.4262
 11
-4.06444
 21
40.5418
  0
LINE
  8
0
 10
-4.06444
 20
40.5418
 11
-4.33955
 21
40.693
  0
LINE
  8
0
 10
-4.33955
 20
40.693
 11
-4.59355
 21
40.8776
  0
LINE
  8
0
 10
-4.59355
 20
40.8776
 11
-4.82242
 21
41.0925
  0
LINE
  8
0
 10
-4.82242
 20
41.0925
 11
-5.02254
 21
41.3344
  0
LINE
  8
0
 10
-5.02254
 20
41.3344
 11
-5.19077
 21
41.5995
  0
LINE
  8
0
 10
-5.19077
 20
41.5995
 11
-5.32443
 21
41.8835
  0
LINE
  8
0
 10
-5.32443
 20
41.8835
 11
-5.42145
 21
42.1821
  0
LINE
  8
0
 10
-5.42145
 20
42.1821
 11
-5.48029
 21
42.4905
  0
LINE
  8
0
 10
-5.48029
 20
42.4905
 11
-5.5
 21
42.8038
  0
LINE
  8
0
 10
-5.5
 20
42.8038
 11
-5.48029
 21
43.1172
  0
LINE
  8
0
 10
-5.48029
 20
43.1172
 11
-5.42145
 21
43.4256
  0
LINE
  8
0
 10
-5.42145
 20
43.4256
 11
-5.32443
 21
43.7242
  0
LINE
  8
0
 10
-5.32443
 20
43.7242
 11
-5.19077
 21
44.0082
  0
LINE
  8
0
 10
-5.19077
 20
44.0082
 11
-5.02254
 21
44.2733
  0
LINE
  8
0
 10
-5.02254
 20
44.2733
 11
-4.82242
 21
44.5152
  0
LINE
  8
0
 10
-4.82242
 20
44.5152
 11
-4.59355
 21
44.7301
  0
LINE
  8
0
 10
-4.59355
 20
44.7301
 11
-4.33955
 21
44.9147
  0
LINE
  8
0
 10
-4.33955
 20
44.9147
 11
-4.06444
 21
45.0659
  0
LINE
  8
0
 10
-4.06444
 20
45.0659
 11
-3.77254
 21
45.1815
  0
LINE
  8
0
 10
-3.77254
 20
45.1815
 11
-3.46844
 21
45.2596
  0
LINE
  8
0
 10
-3.46844
 20
45.2596
 11
-3.15697
 21
45.2989
  0
LINE
  8
0
 10
-3.15697
 20
45.2989
 11
-2.84302
 21
45.2989
  0
LINE
  8
0
 10
-2.84302
 20
45.2989
 11
-2.53154
 21
45.2596
  0
LINE
  8
0
 10
-2.53154
 20
45.2596
 11
-2.22745
 21
45.1815
  0
LINE
  8
0
 10
-2.22745
 20
45.1815
 11
-1.93555
 21
45.0659
  0
LINE
  8
0
 10
-1.93555
 20
45.0659
 11
-1.66043
 21
44.9147
  0
LINE
  8
0
 10
-1.66043
 20
44.9147
 11
-1.40643
 21
44.7301
  0
LINE
  8
0
 10
-1.40643
 20
44.7301
 11
-1.17757
 21
44.5152
  0
LINE
  8
0
 10
-1.17757
 20
44.5152
 11
-0.977448
 21
44.2733
  0
LINE
  8
0
 10
-0.977448
 20
44.2733
 11
-0.809219
 21
44.0082
  0
LINE
  8
0
 10
-0.809219
 20
44.0082
 11
-0.675552
 21
43.7242
  0
LINE
  8
0
 10
-0.675552
 20
43.7242
 11
-0.578537
 21
43.4256
  0
LINE
  8
0
 10
-0.578537
 20
43.4256
 11
-0.519699
 21
43.1172
  0
LINE
  8
0
 10
-0.519699
 20
43.1172
 11
-0.5
 21
42.8038
  0
LINE
  8
0
 10
-0.5
 20
42.8038
 11
-0.519699
 21
42.4905
  0
LINE
  8
0
 10
-0.519699
 20
42.4905
 11
-0.578537
 21
42.1821
  0
LINE
  8
0
 10
-0.578537
 20
42.1821
 11
-0.675552
 21
41.8835
  0
LINE
  8
0
 10
-0.675552
 20
41.8835
 11
-0.809219
 21
41.5995
  0
LINE
  8
0
 10
-0.809219
 20
41.5995
 11
-0.977448
 21
41.3344
  0
LINE
  8
0
 10
-0.977448
 20
41.3344
 11
-1.17757
 21
41.0925
  0
LINE
  8
0
 10
-1.17757
 20
41.0925
 11
-1.40643
 21
40.8776
  0
LINE
  8
0
 10
-1.40643
 20
40.8776
 11
-1.66043
 21
40.693
  0
LINE
  8
0
 10
-1.66043
 20
40.693
 11
-1.93555
 21
40.5418
  0
LINE
  8
0
 10
-1.93555
 20
40.5418
 11
-2.22745
 21
40.4262
  0
LINE
  8
0
 10
-2.22745
 20
40.4262
 11
-2.53154
 21
40.3481
  0
LINE
  8
0
 10
-2.53154
 20
40.3481
 11
-2.84302
 21
40.3088
  0
LINE
  8
0
 10
-2.84302
 20
40.3088
 11
-3.15697
 21
40.3088
  0
LINE
  8
0
 10
1.87381
 20
14.1771
 11
3.09016
 21
14.4894
  0
LINE
  8
0
 10
3.09016
 20
14.4894
 11
4.25778
 21
14.9517
  0
LINE
  8
0
 10
4.25778
 20
14.9517
 11
5.35826
 21
15.5567
  0
LINE
  8
0
 10
5.35826
 20
15.5567
 11
6.37424
 21
16.2949
  0
LINE
  8
0
 10
6.37424
 20
16.2949
 11
7.28967
 21
17.1545
  0
LINE
  8
0
 10
7.28967
 20
17.1545
 11
8.09016
 21
18.1222
  0
LINE
  8
0
 10
8.09016
 20
18.1222
 11
8.76306
 21
19.1825
  0
LINE
  8
0
 10
8.76306
 20
19.1825
 11
9.29776
 21
20.3188
  0
LINE
  8
0
 10
9.29776
 20
20.3188
 11
9.68582
 21
21.5131
  0
LINE
  8
0
 10
9.68582
 20
21.5131
 11
9.92114
 21
22.7467
  0
LINE
  8
0
 10
9.92114
 20
22.7467
 11
10
 21
24
  0
LINE
  8
0
 10
10
 20
24
 11
9.92114
 21
25.2533
  0
LINE
  8
0
 10
9.92114
 20
25.2533
 11
9.68582
 21
26.4869
  0
LINE
  8
0
 10
9.68582
 20
26.4869
 11
9.29776
 21
27.6812
  0
LINE
  8
0
 10
9.29776
 20
27.6812
 11
8.76306
 21
28.8175
  0
LINE
  8
0
 10
8.76306
 20
28.8175
 11
8.09016
 21
29.8778
  0
LINE
  8
0
 10
8.09016
 20
29.8778
 11
7.28967
 21
30.8455
  0
LINE
  8
0
 10
7.28967
 20
30.8455
 11
6.37424
 21
31.7051
  0
LINE
  8
0
 10
6.37424
 20
31.7051
 11
5.35826
 21
32.4433
  0
LINE
  8
0
 10
5.35826
 20
32.4433
 11
4.25778
 21
33.0483
  0
LINE
  8
0
 10
4.25778
 20
33.0483
 11
3.09016
 21
33.5106
  0
LINE
  8
0
 10
3.09016
 20
33.5106
 11
1.87381
 21
33.8229
  0
LINE
  8
0
 10
1.87381
 20
33.8229
 11
0.627899
 21
33.9803
  0
LINE
  8
0
 10
0.627899
 20
33.9803
 11
-0.627899
 21
33.9803
  0
LINE
  8
0
 10
-0.627899
 20
33.9803
 11
-1.87381
 21
33.8229
  0
LINE
  8
0
 10
-1.87381
 20
33.8229
 11
-3.09016
 21
33.5106
  0
LINE
  8
0
 10
-3.09016
 20
33.5106
 11
-4.25778
 21
33.0483
  0
LINE
  8
0
 10
-4.25778
 20
33.0483
 11
-5.35826
 21
32.4433
  0
LINE
  8
0
 10
-5.35826
 20
32.4433
 11
-6.37424
 21
31.7051
  0
LINE
  8
0
 10
-6.37424
 20
31.7051
 11
-7.28967
 21
30.8455
  0
LINE
  8
0
 10
-7.28967
 20
30.8455
 11
-8.09016
 21
29.8778
  0
LINE
  8
0
 10
-8.09016
 20
29.8778
 11
-8.76306
 21
28.8175
  0
LINE
  8
0
 10
-8.76306
 20
28.8175
 11
-9.29776
 21
27.6812
  0
LINE
  8
0
 10
-9.29776
 20
27.6812
 11
-9.68582
 21
26.4869
  0
LINE
  8
0
 10
-9.68582
 20
26.4869
 11
-9.92114
 21
25.2533
  0
LINE
  8
0
 10
-9.92114
 20
25.2533
 11
-10
 21
24
  0
LINE
  8
0
 10
-10
 20
24
 11
-9.92114
 21
22.7467
  0
LINE
  8
0
 10
-9.92114
 20
22.7467
 11
-9.68582
 21
21.5131
  0
LINE
  8
0
 10
-9.68582
 20
21.5131
 11
-9.29776
 21
20.3188
  0
LINE
  8
0
 10
-9.29776
 20
20.3188
 11
-8.76306
 21
19.1825
  0
LINE
  8
0
 10
-8.76306
 20
19.1825
 11
-8.09016
 21
18.1222
  0
LINE
  8
0
 10
-8.09016
 20
18.1222
 11
-7.28967
 21
17.1545
  0
LINE
  8
0
 10
-7.28967
 20
17.1545
 11
-6.37424
 21
16.2949
  0
LINE
  8
0
 10
-6.37424
 20
16.2949
 11
-5.35826
 21
15.5567
  0
LINE
  8
0
 10
-5.35826
 20
15.5567
 11
-4.25778
 21
14.9517
  0
LINE
  8
0
 10
-4.25778
 20
14.9517
 11
-3.09016
 21
14.4894
  0
LINE
  8
0
 10
-3.09016
 20
14.4894
 11
-1.87381
 21
14.1771
  0
LINE
  8
0
 10
-1.87381
 20
14.1771
 11
-0.627899
 21
14.0197
  0
LINE
  8
0
 10
-0.627899
 20
14.0197
 11
0.627899
 21
14.0197
  0
LINE
  8
0
 10
0.627899
 20
14.0197
 11
1.87381
 21
14.1771
  0
LINE
  8
0
 10
-3.15697
 20
26.7011
 11
-3.46844
 21
26.7404
  0
LINE
  8
0
 10
-3.46844
 20
26.7404
 11
-3.77254
 21
26.8185
  0
LINE
  8
0
 10
-3.77254
 20
26.8185
 11
-4.06444
 21
26.9341
  0
LINE
  8
0
 10
-4.06444
 20
26.9341
 11
-4.33955
 21
27.0853
  0
LINE
  8
0
 10
-4.33955
 20
27.0853
 11
-4.59355
 21
27.2699
  0
LINE
  8
0
 10
-4.59355
 20
27.2699
 11
-4.82242
 21
27.4848
  0
LINE
  8
0
 10
-4.82242
 20
27.4848
 11
-5.02254
 21
27.7267
  0
LINE
  8
0
 10
-5.02254
 20
27.7267
 11
-5.19077
 21
27.9918
  0
LINE
  8
0
 10
-5.19077
 20
27.9918
 11
-5.32443
 21
28.2758
  0
LINE
  8
0
 10
-5.32443
 20
28.2758
 11
-5.42145
 21
28.5744
  0
LINE
  8
0
 10
-5.42145
 20
28.5744
 11
-5.48029
 21
28.8828
  0
LINE
  8
0
 10
-5.48029
 20
28.8828
 11
-5.5
 21
29.1962
  0
LINE
  8
0
 10
-5.5
 20
29.1962
 11
-5.48029
 21
29.5095
  0
LINE
  8
0
 10
-5.48029
 20
29.5095
 11
-5.42145
 21
29.8179
  0
LINE
  8
0
 10
-5.42145
 20
29.8179
 11
-5.32443
 21
30.1165
  0
LINE
  8
0
 10
-5.32443
 20
30.1165
 11
-5.19077
 21
30.4005
  0
LINE
  8
0
 10
-5.19077
 20
30.4005
 11
-5.02254
 21
30.6656
  0
LINE
  8
0
 10
-5.02254
 20
30.6656
 11
-4.82242
 21
30.9075
  0
LINE
  8
0
 10
-4.82242
 20
30.9075
 11
-4.59355
 21
31.1224
  0
LINE
  8
0
 10
-4.59355
 20
31.1224
 11
-4.33955
 21
31.307
  0
LINE
  8
0
 10
-4.33955
 20
31.307
 11
-4.06444
 21
31.4582
  0
LINE
  8
0
 10
-4.06444
 20
31.4582
 11
-3.77254
 21
31.5738
  0
LINE
  8
0
 10
-3.77254
 20
31.5738
 11
-3.46844
 21
31.6519
  0
LINE
  8
0
 10
-3.46844
 20
31.6519
 11
-3.15697
 21
31.6912
  0
LINE
  8
0
 10
-3.15697
 20
31.6912
 11
-2.84302
 21
31.6912
  0
LINE
  8
0
 10
-2.84302
 20
31.6912
 11
-2.53154
 21
31.6519
  0
LINE
  8
0
 10
-2.53154
 20
31.6519
 11
-2.22745
 21
31.5738
  0
LINE
  8
0
 10
-2.22745
 20
31.5738
 11
-1.93555
 21
31.4582
  0
LINE
  8
0
 10
-1.93555
 20
31.4582
 11
-1.66043
 21
31.307
  0
LINE
  8
0
 10
-1.66043
 20
31.307
 11
-1.40643
 21
31.1224
  0
LINE
  8
0
 10
-1.40643
 20
31.1224
 11
-1.17757
 21
30.9075
  0
LINE
  8
0
 10
-1.17757
 20
30.9075
 11
-0.977448
 21
30.6656
  0
LINE
  8
0
 10
-0.977448
 20
30.6656
 11
-0.809219
 21
30.4005
  0
LINE
  8
0
 10
-0.809219
 20
30.4005
 11
-0.675552
 21
30.1165
  0
LINE
  8
0
 10
-0.675552
 20
30.1165
 11
-0.578537
 21
29.8179
  0
LINE
  8
0
 10
-0.578537
 20
29.8179
 11
-0.519699
 21
29.5095
  0
LINE
  8
0
 10
-0.519699
 20
29.5095
 11
-0.5
 21
29.1962
  0
LINE
  8
0
 10
-0.5
 20
29.1962
 11
-0.519699
 21
28.8828
  0
LINE
  8
0
 10
-0.519699
 20
28.8828
 11
-0.578537
 21
28.5744
  0
LINE
  8
0
 10
-0.578537
 20
28.5744
 11
-0.675552
 21
28.2758
  0
LINE
  8
0
 10
-0.675552
 20
28.2758
 11
-0.809219
 21
27.9918
  0
LINE
  8
0
 10
-0.809219
 20
27.9918
 11
-0.977448
 21
27.7267
  0
LINE
  8
0
 10
-0.977448
 20
27.7267
 11
-1.17757
 21
27.4848
  0
LINE
  8
0
 10
-1.17757
 20
27.4848
 11
-1.40643
 21
27.2699
  0
LINE
  8
0
 10
-1.40643
 20
27.2699
 11
-1.66043
 21
27.0853
  0
LINE
  8
0
 10
-1.66043
 20
27.0853
 11
-1.93555
 21
26.9341
  0
LINE
  8
0
 10
-1.93555
 20
26.9341
 11
-2.22745
 21
26.8185
  0
LINE
  8
0
 10
-2.22745
 20
26.8185
 11
-2.53154
 21
26.7404
  0
LINE
  8
0
 10
-2.53154
 20
26.7404
 11
-2.84302
 21
26.7011
  0
LINE
  8
0
 10
-2.84302
 20
26.7011
 11
-3.15697
 21
26.7011
  0
LINE
  8
0
 10
5.84302
 20
21.5049
 11
5.53154
 21
21.5443
  0
LINE
  8
0
 10
5.53154
 20
21.5443
 11
5.22745
 21
21.6224
  0
LINE
  8
0
 10
5.22745
 20
21.6224
 11
4.93555
 21
21.7379
  0
LINE
  8
0
 10
4.93555
 20
21.7379
 11
4.66043
 21
21.8892
  0
LINE
  8
0
 10
4.66043
 20
21.8892
 11
4.40643
 21
22.0737
  0
LINE
  8
0
 10
4.40643
 20
22.0737
 11
4.17757
 21
22.2886
  0
LINE
  8
0
 10
4.17757
 20
22.2886
 11
3.97745
 21
22.5305
  0
LINE
  8
0
 10
3.97745
 20
22.5305
 11
3.80922
 21
22.7956
  0
LINE
  8
0
 10
3.80922
 20
22.7956
 11
3.67555
 21
23.0797
  0
LINE
  8
0
 10
3.67555
 20
23.0797
 11
3.57854
 21
23.3783
  0
LINE
  8
0
 10
3.57854
 20
23.3783
 11
3.5197
 21
23.6867
  0
LINE
  8
0
 10
3.5197
 20
23.6867
 11
3.5
 21
24
  0
LINE
  8
0
 10
3.5
 20
24
 11
3.5197
 21
24.3133
  0
LINE
  8
0
 10
3.5197
 20
24.3133
 11
3.57854
 21
24.6217
  0
LINE
  8
0
 10
3.57854
 20
24.6217
 11
3.67555
 21
24.9203
  0
LINE
  8
0
 10
3.67555
 20
24.9203
 11
3.80922
 21
25.2044
  0
LINE
  8
0
 10
3.80922
 20
25.2044
 11
3.97745
 21
25.4695
  0
LINE
  8
0
 10
3.97745
 20
25.4695
 11
4.17757
 21
25.7114
  0
LINE
  8
0
 10
4.17757
 20
25.7114
 11
4.40643
 21
25.9263
  0
LINE
  8
0
 10
4.40643
 20
25.9263
 11
4.66043
 21
26.1108
  0
LINE
  8
0
 10
4.66043
 20
26.1108
 11
4.93555
 21
26.2621
  0
LINE
  8
0
 10
4.93555
 20
26.2621
 11
5.22745
 21
26.3776
  0
LINE
  8
0
 10
5.22745
 20
26.3776
 11
5.53154
 21
26.4557
  0
LINE
  8
0
 10
5.53154
 20
26.4557
 11
5.84302
 21
26.4951
  0
LINE
  8
0
 10
5.84302
 20
26.4951
 11
6.15697
 21
26.4951
  0
LINE
  8
0
 10
6.15697
 20
26.4951
 11
6.46844
 21
26.4557
  0
LINE
  8
0
 10
6.46844
 20
26.4557
 11
6.77254
 21
26.3776
  0
LINE
  8
0
 10
6.77254
 20
26.3776
 11
7.06444
 21
26.2621
  0
LINE
  8
0
 10
7.06444
 20
26.2621
 11
7.33955
 21
26.1108
  0
LINE
  8
0
 10
7.33955
 20
26.1108
 11
7.59355
 21
25.9263
  0
LINE
  8
0
 10
7.59355
 20
25.9263
 11
7.82242
 21
25.7114
  0
LINE
  8
0
 10
7.82242
 20
25.7114
 11
8.02254
 21
25.4695
  0
LINE
  8
0
 10
8.02254
 20
25.4695
 11
8.19077
 21
25.2044
  0
LINE
  8
0
 10
8.19077
 20
25.2044
 11
8.32443
 21
24.9203
  0
LINE
  8
0
 10
8.32443
 20
24.9203
 11
8.42145
 21
24.6217
  0
LINE
  8
0
 10
8.42145
 20
24.6217
 11
8.48029
 21
24.3133
  0
LINE
  8
0
 10
8.48029
 20
24.3133
 11
8.5
 21
24
  0
LINE
  8
0
 10
8.5
 20
24
 11
8.48029
 21
23.6867
  0
LINE
  8
0
 10
8.48029
 20
23.6867
 11
8.42145
 21
23.3783
  0
LINE
  8
0
 10
8.42145
 20
23.3783
 11
8.32443
 21
23.0797
  0
LINE
  8
0
 10
8.32443
 20
23.0797
 11
8.19077
 21
22.7956
  0
LINE
  8
0
 10
8.19077
 20
22.7956
 11
8.02254
 21
22.5305
  0
LINE
  8
0
 10
8.02254
 20
22.5305
 11
7.82242
 21
22.2886
  0
LINE
  8
0
 10
7.82242
 20
22.2886
 11
7.59355
 21
22.0737
  0
LINE
  8
0
 10
7.59355
 20
22.0737
 11
7.33955
 21
21.8892
  0
LINE
  8
0
 10
7.33955
 20
21.8892
 11
7.06444
 21
21.7379
  0
LINE
  8
0
 10
7.06444
 20
21.7379
 11
6.77254
 21
21.6224
  0
LINE
  8
0
 10
6.77254
 20
21.6224
 11
6.46844
 21
21.5443
  0
LINE
  8
0
 10
6.46844
 20
21.5443
 11
6.15697
 21
21.5049
  0
LINE
  8
0
 10
6.15697
 20
21.5049
 11
5.84302
 21
21.5049
  0
LINE
  8
0
 10
-3.15697
 20
16.3088
 11
-3.46844
 21
16.3481
  0
LINE
  8
0
 10
-3.46844
 20
16.3481
 11
-3.77254
 21
16.4262
  0
LINE
  8
0
 10
-3.77254
 20
16.4262
 11
-4.06444
 21
16.5418
  0
LINE
  8
0
 10
-4.06444
 20
16.5418
 11
-4.33955
 21
16.693
  0
LINE
  8
0
 10
-4.33955
 20
16.693
 11
-4.59355
 21
16.8776
  0
LINE
  8
0
 10
-4.59355
 20
16.8776
 11
-4.82242
 21
17.0925
  0
LINE
  8
0
 10
-4.82242
 20
17.0925
 11
-5.02254
 21
17.3344
  0
LINE
  8
0
 10
-5.02254
 20
17.3344
 11
-5.19077
 21
17.5995
  0
LINE
  8
0
 10
-5.19077
 20
17.5995
 11
-5.32443
 21
17.8835
  0
LINE
  8
0
 10
-5.32443
 20
17.8835
 11
-5.42145
 21
18.1821
  0
LINE
  8
0
 10
-5.42145
 20
18.1821
 11
-5.48029
 21
18.4905
  0
LINE
  8
0
 10
-5.48029
 20
18.4905
 11
-5.5
 21
18.8038
  0
LINE
  8
0
 10
-5.5
 20
18.8038
 11
-5.48029
 21
19.1172
  0
LINE
  8
0
 10
-5.48029
 20
19.1172
 11
-5.42145
 21
19.4256
  0
LINE
  8
0
 10
-5.42145
 20
19.4256
 11
-5.32443
 21
19.7242
  0
LINE
  8
0
 10
-5.32443
 20
19.7242
 11
-5.19077
 21
20.0082
  0
LINE
  8
0
 10
-5.19077
 20
20.0082
 11
-5.02254
 21
20.2733
  0
LINE
  8
0
 10
-5.02254
 20
20.2733
 11
-4.82242
 21
20.5152
  0
LINE
  8
0
 10
-4.82242
 20
20.5152
 11
-4.59355
 21
20.7301
  0
LINE
  8
0
 10
-4.59355
 20
20.7301
 11
-4.33955
 21
20.9147
  0
LINE
  8
0
 10
-4.33955
 20
20.9147
 11
-4.06444
 21
21.0659
  0
LINE
  8
0
 10
-4.06444
 20
21.0659
 11
-3.77254
 21
21.1815
  0
LINE
  8
0
 10
-3.77254
 20
21.1815
 11
-3.46844
 21
21.2596
  0
LINE
  8
0
 10
-3.46844
 20
21.2596
 11
-3.15697
 21
21.2989
  0
LINE
  8
0
 10
-3.15697
 20
21.2989
 11
-2.84302
 21
21.2989
  0
LINE
  8
0
 10
-2.84302
 20
21.2989
 11
-2.53154
 21
21.2596
  0
LINE
  8
0
 10
-2.53154
 20
21.2596
 11
-2.22745
 21
21.1815
  0
LINE
  8
0
 10
-2.22745
 20
21.1815
 11
-1.93555
 21
21.0659
  0
LINE
  8
0
 10
-1.93555
 20
21.0659
 11
-1.66043
 21
20.9147
  0
LINE
  8
0
 10
-1.66043
 20
20.9147
 11
-1.40643
 21
20.7301
  0
LINE
  8
0
 10
-1.40643
 20
20.7301
 11
-1.17757
 21
20.5152
  0
LINE
  8
0
 10
-1.17757
 20
20.5152
 11
-0.977448
 21
20.2733
  0
LINE
  8
0
 10
-0.977448
 20
20.2733
 11
-0.809219
 21
20.0082
  0
LINE
  8
0
 10
-0.809219
 20
20.0082
 11
-0.675552
 21
19.7242
  0
LINE
  8
0
 10
-0.675552
 20
19.7242
 11
-0.578537
 21
19.4256
  0
LINE
  8
0
 10
-0.578537
 20
19.4256
 11
-0.519699
 21
19.1172
  0
LINE
  8
0
 10
-0.519699
 20
19.1172
 11
-0.5
 21
18.8038
  0
LINE
  8
0
 10
-0.5
 20
18.8038
 11
-0.519699
 21
18.4905
  0
LINE
  8
0
 10
-0.519699
 20
18.4905
 11
-0.578537
 21
18.1821
  0
LINE
  8
0
 10
-0.578537
 20
18.1821
 11
-0.675552
 21
17.8835
  0
LINE
  8
0
 10
-0.675552
 20
17.8835
 11
-0.809219
 21
17.5995
  0
LINE
  8
0
 10
-0.809219
 20
17.5995
 11
-0.977448
 21
17.3344
  0
LINE
  8
0
 10
-0.977448
 20
17.3344
 11
-1.17757
 21
17.0925
  0
LINE
  8
0
 10
-1.17757
 20
17.0925
 11
-1.40643
 21
16.8776
  0
LINE
  8
0
 10
-1.40643
 20
16.8776
 11
-1.66043
 21
16.693
  0
LINE
  8
0
 10
-1.66043
 20
16.693
 11
-1.93555
 21
16.5418
  0
LINE
  8
0
 10
-1.93555
 20
16.5418
 11
-2.22745
 21
16.4262
  0
LINE
  8
0
 10
-2.22745
 20
16.4262
 11
-2.53154
 21
16.3481
  0
LINE
  8
0
 10
-2.53154
 20
16.3481
 11
-2.84302
 21
16.3088
  0
LINE
  8
0
 10
-2.84302
 20
16.3088
 11
-3.15697
 21
16.3088
  0
LINE
  8
0
 10
1.87381
 20
-9.82286
 11
3.09016
 21
-9.51056
  0
LINE
  8
0
 10
3.09016
 20
-9.51056
 11
4.25778
 21
-9.04826
  0
LINE
  8
0
 10
4.25778
 20
-9.04826
 11
5.35826
 21
-8.44327
  0
LINE
  8
0
 10
5.35826
 20
-8.44327
 11
6.37424
 21
-7.70512
  0
LINE
  8
0
 10
6.37424
 20
-7.70512
 11
7.28967
 21
-6.84546
  0
LINE
  8
0
 10
7.28967
 20
-6.84546
 11
8.09016
 21
-5.87784
  0
LINE
  8
0
 10
8.09016
 20
-5.87784
 11
8.76306
 21
-4.81754
  0
LINE
  8
0
 10
8.76306
 20
-4.81754
 11
9.29776
 21
-3.68124
  0
LINE
  8
0
 10
9.29776
 20
-3.68124
 11
9.68582
 21
-2.48689
  0
LINE
  8
0
 10
9.68582
 20
-2.48689
 11
9.92114
 21
-1.25333
  0
LINE
  8
0
 10
9.92114
 20
-1.25333
 11
10
 21
0
  0
LINE
  8
0
 10
10
 20
0
 11
9.92114
 21
1.25333
  0
LINE
  8
0
 10
9.92114
 20
1.25333
 11
9.68582
 21
2.48689
  0
LINE
  8
0
 10
9.68582
 20
2.48689
 11
9.29776
 21
3.68124
  0
LINE
  8
0
 10
9.29776
 20
3.68124
 11
8.76306
 21
4.81754
  0
LINE
  8
0
 10
8.76306
 20
4.81754
 11
8.09016
 21
5.87784
  0
LINE
  8
0
 10
8.09016
 20
5.87784
 11
7.28967
 21
6.84546
  0
LINE
  8
0
 10
7.28967
 20
6.84546
 11
6.37424
 21
7.70512
  0
LINE
  8
0
 10
6.37424
 20
7.70512
 11
5.35826
 21
8.44327
  0
LINE
  8
0
 10
5.35826
 20
8.44327
 11
4.25778
 21
9.04826
  0
LINE
  8
0
 10
4.25778
 20
9.04826
 11
3.09016
 21
9.51056
  0
LINE
  8
0
 10
3.09016
 20
9.51056
 11
1.87381
 21
9.82286
  0
LINE
  8
0
 10
1.87381
 20
9.82286
 11
0.627899
 21
9.98026
  0
LINE
  8
0
 10
0.627899
 20
9.98026
 11
-0.627899
 21
9.98026
  0
LINE
  8
0
 10
-0.627899
 20
9.98026
 11
-1.87381
 21
9.82286
  0
LINE
  8
0
 10
-1.87381
 20
9.82286
 11
-3.09016
 21
9.51056
  0
LINE
  8
0
 10
-3.09016
 20
9.51056
 11
-4.25778
 21
9.04826
  0
LINE
  8
0
 10
-4.25778
 20
9.04826
 11
-5.35826
 21
8.44327
  0
LINE
  8
0
 10
-5.35826
 20
8.44327
 11
-6.37424
 21
7.70512
  0
LINE
  8
0
 10
-6.37424
 20
7.70512
 11
-7.28967
 21
6.84546
  0
LINE
  8
0
 10
-7.28967
 20
6.84546
 11
-8.09016
 21
5.87784
  0
LINE
  8
0
 10
-8.09016
 20
5.87784
 11
-8.76306
 21
4.81754
  0
LINE
  8
0
 10
-8.76306
 20
4.81754
 11
-9.29776
 21
3.68124
  0
LINE
  8
0
 10
-9.29776
 20
3.68124
 11
-9.68582
 21
2.48689
  0
LINE
  8
0
 10
-9.68582
 20
2.48689
 11
-9.92114
 21
1.25333
  0
LINE
  8
0
 10
-9.92114
 20
1.25333
 11
-10
 21
0
  0
LINE
  8
0
 10
-10
 20
0
 11
-9.92114
 21
-1.25333
  0
LINE
  8
0
 10
-9.92114
 20
-1.25333
 11
-9.68582
 21
-2.48689
  0
LINE
  8
0
 10
-9.68582
 20
-2.48689
 11
-9.29776
 21
-3.68124
  0
LINE
  8
0
 10
-9.29776
 20
-3.68124
 11
-8.76306
 21
-4.81754
  0
LINE
  8
0
 10
-8.76306
 20
-4.81754
 11
-8.09016
 21
-5.87784
  0
LINE
  8
0
 10
-8.09016
 20
-5.87784
 11
-7.28967
 21
-6.84546
  0
LINE
  8
0
 10
-7.28967
 20
-6.84546
 11
-6.37424
 21
-7.70512
  0
LINE
  8
0
 10
-6.37424
 20
-7.70512
 11
-5.35826
 21
-8.44327
  0
LINE
  8
0
 10
-5.35826
 20
-8.44327
 11
-4.25778
 21
-9.04826
  0
LINE
  8
0
 10
-4.25778
 20
-9.04826
 11
-3.09016
 21
-9.51056
  0
LINE
  8
0
 10
-3.09016
 20
-9.51056
 11
-1.87381
 21
-9.82286
  0
LINE
  8
0
 10
-1.87381
 20
-9.82286
 11
-0.627899
 21
-9.98026
  0
LINE
  8
0
 10
-0.627899
 20
-9.98026
 11
0.627899
 21
-9.98026
  0
LINE
  8
0
 10
0.627899
 20
-9.98026
 11
1.87381
 21
-9.82286
  0
LINE
  8
0
 10
-3.15697
 20
2.70108
 11
-3.46844
 21
2.74043
  0
LINE
  8
0
 10
-3.46844
 20
2.74043
 11
-3.77254
 21
2.8185
  0
LINE
  8
0
 10
-3.77254
 20
2.8185
 11
-4.06444
 21
2.93408
  0
LINE
  8
0
 10
-4.06444
 20
2.93408
 11
-4.33955
 21
3.08533
  0
LINE
  8
0
 10
-4.33955
 20
3.08533
 11
-4.59355
 21
3.26987
  0
LINE
  8
0
 10
-4.59355
 20
3.26987
 11
-4.82242
 21
3.48477
  0
LINE
  8
0
 10
-4.82242
 20
3.48477
 11
-5.02254
 21
3.72668
  0
LINE
  8
0
 10
-5.02254
 20
3.72668
 11
-5.19077
 21
3.99176
  0
LINE
  8
0
 10
-5.19077
 20
3.99176
 11
-5.32443
 21
4.27583
  0
LINE
  8
0
 10
-5.32443
 20
4.27583
 11
-5.42145
 21
4.57442
  0
LINE
  8
0
 10
-5.42145
 20
4.57442
 11
-5.48029
 21
4.88281
  0
LINE
  8
0
 10
-5.48029
 20
4.88281
 11
-5.5
 21
5.19615
  0
LINE
  8
0
 10
-5.5
 20
5.19615
 11
-5.48029
 21
5.50948
  0
LINE
  8
0
 10
-5.48029
 20
5.50948
 11
-5.42145
 21
5.81787
  0
LINE
  8
0
 10
-5.42145
 20
5.81787
 11
-5.32443
 21
6.11646
  0
LINE
  8
0
 10
-5.32443
 20
6.11646
 11
-5.19077
 21
6.40053
  0
LINE
  8
0
 10
-5.19077
 20
6.40053
 11
-5.02254
 21
6.6656
  0
LINE
  8
0
 10
-5.02254
 20
6.6656
 11
-4.82242
 21
6.90752
  0
LINE
  8
0
 10
-4.82242
 20
6.90752
 11
-4.59355
 21
7.12242
  0
LINE
  8
0
 10
-4.59355
 20
7.12242
 11
-4.33955
 21
7.30696
  0
LINE
  8
0
 10
-4.33955
 20
7.30696
 11
-4.06444
 21
7.45821
  0
LINE
  8
0
 10
-4.06444
 20
7.45821
 11
-3.77254
 21
7.57379
  0
LINE
  8
0
 10
-3.77254
 20
7.57379
 11
-3.46844
 21
7.65186
  0
LINE
  8
0
 10
-3.46844
 20
7.65186
 11
-3.15697
 21
7.69121
  0
LINE
  8
0
 10
-3.15697
 20
7.69121
 11
-2.84302
 21
7.69121
  0
LINE
  8
0
 10
-2.84302
 20
7.69121
 11
-2.53154
 21
7.65186
  0
LINE
  8
0
 10
-2.53154
 20
7.65186
 11
-2.22745
 21
7.57379
  0
LINE
  8
0
 10
-2.22745
 20
7.57379
 11
-1.93555
 21
7.45821
  0
LINE
  8
0
 10
-1.93555
 20
7.45821
 11
-1.66043
 21
7.30696
  0
LINE
  8
0
 10
-1.66043
 20
7.30696
 11
-1.40643
 21
7.12242
  0
LINE
  8
0
 10
-1.40643
 20
7.12242
 11
-1.17757
 21
6.90752
  0
LINE
  8
0
 10
-1.17757
 20
6.90752
 11
-0.977448
 21
6.6656
  0
LINE
  8
0
 10
-0.977448
 20
6.6656
 11
-0.809219
 21
6.40053
  0
LINE
  8
0
 10
-0.809219
 20
6.40053
 11
-0.675552
 21
6.11646
  0
LINE
  8
0
 10
-0.675552
 20
6.11646
 11
-0.578537
 21
5.81787
  0
LINE
  8
0
 10
-0.578537
 20
5.81787
 11
-0.519699
 21
5.50948
  0
LINE
  8
0
 10
-0.519699
 20
5.50948
 11
-0.5
 21
5.19615
  0
LINE
  8
0
 10
-0.5
 20
5.19615
 11
-0.519699
 21
4.88281
  0
LINE
  8
0
 10
-0.519699
 20
4.88281
 11
-0.578537
 21
4.57442
  0
LINE
  8
0
 10
-0.578537
 20
4.57442
 11
-0.675552
 21
4.27583
  0
LINE
  8
0
 10
-0.675552
 20
4.27583
 11
-0.809219
 21
3.99176
  0
LINE
  8
0
 10
-0.809219
 20
3.99176
 11
-0.977448
 21
3.72668
  0
LINE
  8
0
 10
-0.977448
 20
3.72668
 11
-1.17757
 21
3.48477
  0
LINE
  8
0
 10
-1.17757
 20
3.48477
 11
-1.40643
 21
3.26987
  0
LINE
  8
0
 10
-1.40643
 20
3.26987
 11
-1.66043
 21
3.08533
  0
LINE
  8
0
 10
-1.66043
 20
3.08533
 11
-1.93555
 21
2.93408
  0
LINE
  8
0
 10
-1.93555
 20
2.93408
 11
-2.22745
 21
2.8185
  0
LINE
  8
0
 10
-2.22745
 20
2.8185
 11
-2.53154
 21
2.74043
  0
LINE
  8
0
 10
-2.53154
 20
2.74043
 11
-2.84302
 21
2.70108
  0
LINE
  8
0
 10
-2.84302
 20
2.70108
 11
-3.15697
 21
2.70108
  0
LINE
  8
0
 10
5.84302
 20
-2.49506
 11
5.53154
 21
-2.4557
  0
LINE
  8
0
 10
5.53154
 20
-2.4557
 11
5.22745
 21
-2.37764
  0
LINE
  8
0
 10
5.22745
 20
-2.37764
 11
4.93555
 21
-2.26205
  0
LINE
  8
0
 10
4.93555
 20
-2.26205
 11
4.66043
 21
-2.11081
  0
LINE
  8
0
 10
4.66043
 20
-2.11081
 11
4.40643
 21
-1.92627
  0
LINE
  8
0
 10
4.40643
 20
-1.92627
 11
4.17757
 21
-1.71136
  0
LINE
  8
0
 10
4.17757
 20
-1.71136
 11
3.97745
 21
-1.46945
  0
LINE
  8
0
 10
3.97745
 20
-1.46945
 11
3.80922
 21
-1.20438
  0
LINE
  8
0
 10
3.80922
 20
-1.20438
 11
3.67555
 21
-0.920303
  0
LINE
  8
0
 10
3.67555
 20
-0.920303
 11
3.57854
 21
-0.621719
  0
LINE
  8
0
 10
3.57854
 20
-0.621719
 11
3.5197
 21
-0.313324
  0
LINE
  8
0
 10
3.5197
 20
-0.313324
 11
3.5
 21
0
  0
LINE
  8
0
 10
3.5
 20
0
 11
3.5197
 21
0.313324
  0
LINE
  8
0
 10
3.5197
 20
0.313324
 11
3.57854
 21
0.621719
  0
LINE
  8
0
 10
3.57854
 20
0.621719
 11
3.67555
 21
0.920303
  0
LINE
  8
0
 10
3.67555
 20
0.920303
 11
3.80922
 21
1.20438
  0
LINE
  8
0
 10
3.80922
 20
1.20438
 11
3.97745
 21
1.46945
  0
LINE
  8
0
 10
3.97745
 20
1.46945
 11
4.17757
 21
1.71136
  0
LINE
  8
0
 10
4.17757
 20
1.71136
 11
4.40643
 21
1.92627
  0
LINE
  8
0
 10
4.40643
 20
1.92627
 11
4.66043
 21
2.11081
  0
LINE
  8
0
 10
4.66043
 20
2.11081
 11
4.93555
 21
2.26205
  0
LINE
  8
0
 10
4.93555
 20
2.26205
 11
5.22745
 21
2.37764
  0
LINE
  8
0
 10
5.22745
 20
2.37764
 11
5.53154
 21
2.4557
  0
LINE
  8
0
 10
5.53154
 20
2.4557
 11
5.84302
 21
2.49506
  0
LINE
  8
0
 10
5.84302
 20
2.49506
 11
6.15697
 21
2.49506
  0
LINE
  8
0
 10
6.15697
 20
2.49506
 11
6.46844
 21
2.4557
  0
LINE
  8
0
 10
6.46844
 20
2.4557
 11
6.77254
 21
2.37764
  0
LINE
  8
0
 10
6.77254
 20
2.37764
 11
7.06444
 21
2.26205
  0
LINE
  8
0
 10
7.06444
 20
2.26205
 11
7.33955
 21
2.11081
  0
LINE
  8
0
 10
7.33955
 20
2.11081
 11
7.59355
 21
1.92627
  0
LINE
  8
0
 10
7.59355
 20
1.92627
 11
7.82242
 21
1.71136
  0
LINE
  8
0
 10
7.82242
 20
1.71136
 11
8.02254
 21
1.46945
  0
LINE
  8
0
 10
8.02254
 20
1.46945
 11
8.19077
 21
1.20438
  0
LINE
  8
0
 10
8.19077
 20
1.20438
 11
8.32443
 21
0.920303
  0
LINE
  8
0
 10
8.32443
 20
0.920303
 11
8.42145
 21
0.621719
  0
LINE
  8
0
 10
8.42145
 20
0.621719
 11
8.48029
 21
0.313324
  0
LINE
  8
0
 10
8.48029
 20
0.313324
 11
8.5
 21
0
  0
LINE
  8
0
 10
8.5
 20
0
 11
8.48029
 21
-0.313324
  0
LINE
  8
0
 10
8.48029
 20
-0.313324
 11
8.42145
 21
-0.621719
  0
LINE
  8
0
 10
8.42145
 20
-0.621719
 11
8.32443
 21
-0.920303
  0
LINE
  8
0
 10
8.32443
 20
-0.920303
 11
8.19077
 21
-1.20438
  0
LINE
  8
0
 10
8.19077
 20
-1.20438
 11
8.02254
 21
-1.46945
  0
LINE
  8
0
 10
8.02254
 20
-1.46945
 11
7.82242
 21
-1.71136
  0
LINE
  8
0
 10
7.82242
 20
-1.71136
 11
7.59355
 21
-1.92627
  0
LINE
  8
0
 10
7.59355
 20
-1.92627
 11
7.33955
 21
-2.11081
  0
LINE
  8
0
 10
7.33955
 20
-2.11081
 11
7.06444
 21
-2.26205
  0
LINE
  8
0
 10
7.06444
 20
-2.26205
 11
6.77254
 21
-2.37764
  0
LINE
  8
0
 10
6.77254
 20
-2.37764
 11
6.46844
 21
-2.4557
  0
LINE
  8
0
 10
6.46844
 20
-2.4557
 11
6.15697
 21
-2.49506
  0
LINE
  8
0
 10
6.15697
 20
-2.49506
 11
5.84302
 21
-2.49506
  0
LINE
  8
0
 10
-3.15697
 20
-7.69121
 11
-3.46844
 21
-7.65186
  0
LINE
  8
0
 10
-3.46844
 20
-7.65186
 11
-3.77254
 21
-7.57379
  0
LINE
  8
0
 10
-3.77254
 20
-7.57379
 11
-4.06444
 21
-7.45821
  0
LINE
  8
0
 10
-4.06444
 20
-7.45821
 11
-4.33955
 21
-7.30696
  0
LINE
  8
0
 10
-4.33955
 20
-7.30696
 11
-4.59355
 21
-7.12242
  0
LINE
  8
0
 10
-4.59355
 20
-7.12242
 11
-4.82242
 21
-6.90752
  0
LINE
  8
0
 10
-4.82242
 20
-6.90752
 11
-5.02254
 21
-6.6656
  0
LINE
  8
0
 10
-5.02254
 20
-6.6656
 11
-5.19077
 21
-6.40053
  0
LINE
  8
0
 10
-5.19077
 20
-6.40053
 11
-5.32443
 21
-6.11646
  0
LINE
  8
0
 10
-5.32443
 20
-6.11646
 11
-5.42145
 21
-5.81787
  0
LINE
  8
0
 10
-5.42145
 20
-5.81787
 11
-5.48029
 21
-5.50948
  0
LINE
  8
0
 10
-5.48029
 20
-5.50948
 11
-5.5
 21
-5.19615
  0
LINE
  8
0
 10
-5.5
 20
-5.19615
 11
-5.48029
 21
-4.88281
  0
LINE
  8
0
 10
-5.48029
 20
-4.88281
 11
-5.42145
 21
-4.57442
  0
LINE
  8
0
 10
-5.42145
 20
-4.57442
 11
-5.32443
 21
-4.27583
  0
LINE
  8
0
 10
-5.32443
 20
-4.27583
 11
-5.19077
 21
-3.99176
  0
LINE
  8
0
 10
-5.19077
 20
-3.99176
 11
-5.02254
 21
-3.72668
  0
LINE
  8
0
 10
-5.02254
 20
-3.72668
 11
-4.82242
 21
-3.48477
  0
LINE
  8
0
 10
-4.82242
 20
-3.48477
 11
-4.59355
 21
-3.26987
  0
LINE
  8
0
 10
-4.59355
 20
-3.26987
 11
-4.33955
 21
-3.08533
  0
LINE
  8
0
 10
-4.33955
 20
-3.08533
 11
-4.06444
 21
-2.93408
  0
LINE
  8
0
 10
-4.06444
 20
-2.93408
 11
-3.77254
 21
-2.8185
  0
LINE
  8
0
 10
-3.77254
 20
-2.8185
 11
-3.46844
 21
-2.74043
  0
LINE
  8
0
 10
-3.46844
 20
-2.74043
 11
-3.15697
 21
-2.70108
  0
LINE
  8
0
 10
-3.15697
 20
-2.70108
 11
-2.84302
 21
-2.70108
  0
LINE
  8
0
 10
-2.84302
 20
-2.70108
 11
-2.53154
 21
-2.74043
  0
LINE
  8
0
 10
-2.53154
 20
-2.74043
 11
-2.22745
 21
-2.8185
  0
LINE
  8
0
 10
-2.22745
 20
-2.8185
 11
-1.93555
 21
-2.93408
  0
LINE
  8
0
 10
-1.93555
 20
-2.93408
 11
-1.66043
 21
-3.08533
  0
LINE
  8
0
 10
-1.66043
 20
-3.08533
 11
-1.40643
 21
-3.26987
  0
LINE
  8
0
 10
-1.40643
 20
-3.26987
 11
-1.17757
 21
-3.48477
  0
LINE
  8
0
 10
-1.17757
 20
-3.48477
 11
-0.977448
 21
-3.72668
  0
LINE
  8
0
 10
-0.977448
 20
-3.72668
 11
-0.809219
 21
-3.99176
  0
LINE
  8
0
 10
-0.809219
 20
-3.99176
 11
-0.675552
 21
-4.27583
  0
LINE
  8
0
 10
-0.675552
 20
-4.27583
 11
-0.578537
 21
-4.57442
  0
LINE
  8
0
 10
-0.578537
 20
-4.57442
 11
-0.519699
 21
-4.88281
  0
LINE
  8
0
 10
-0.519699
 20
-4.88281
 11
-0.5
 21
-5.19615
  0
LINE
  8
0
 10
-0.5
 20
-5.19615
 11
-0.519699
 21
-5.50948
  0
LINE
  8
0
 10
-0.519699
 20
-5.50948
 11
-0.578537
 21
-5.81787
  0
LINE
  8
0
 10
-0.578537
 20
-5.81787
 11
-0.675552
 21
-6.11646
  0
LINE
  8
0
 10
-0.675552
 20
-6.11646
 11
-0.809219
 21
-6.40053
  0
LINE
  8
0
 10
-0.809219
 20
-6.40053
 11
-0.977448
 21
-6.6656
  0
LINE
  8
0
 10
-0.977448
 20
-6.6656
 11
-1.17757
 21
-6.90752
  0
LINE
  8
0
 10
-1.17757
 20
-6.90752
 11
-1.40643
 21
-7.12242
  0
LINE
  8
0
 10
-1.40643
 20
-7.12242
 11
-1.66043
 21
-7.30696
  0
LINE
  8
0
 10
-1.66043
 20
-7.30696
 11
-1.93555
 21
-7.45821
  0
LINE
  8
0
 10
-1.93555
 20
-7.45821
 11
-2.22745
 21
-7.57379
  0
LINE
  8
0
 10
-2.22745
 20
-7.57379
 11
-2.53154
 21
-7.65186
  0
LINE
  8
0
 10
-2.53154
 20
-7.65186
 11
-2.84302
 21
-7.69121
  0
LINE
  8
0
 10
-2.84302
 20
-7.69121
 11
-3.15697
 21
-7.69121
  0
ENDSEC
  0
SECTION
  2
OBJECTS
  0
DICTIONARY
  0
ENDSEC
  0
EOF
