  0
SECTION
  2
BLOCKS
  0
ENDSEC
  0
SECTION
  2
ENTITIES
  0
LINE
  8
0
 10
2.43594
 20
11.2303
 11
4.01721
 21
11.6363
  0
LINE
  8
0
 10
4.01721
 20
11.6363
 11
5.53513
 21
12.2373
  0
LINE
  8
0
 10
5.53513
 20
12.2373
 11
6.96574
 21
13.0237
  0
LINE
  8
0
 10
6.96574
 20
13.0237
 11
8.2865
 21
13.9833
  0
LINE
  8
0
 10
8.2865
 20
13.9833
 11
9.47658
 21
15.1009
  0
LINE
  8
0
 10
9.47658
 20
15.1009
 11
10.5172
 21
16.3588
  0
LINE
  8
0
 10
10.5172
 20
16.3588
 11
11.392
 21
17.7372
  0
LINE
  8
0
 10
11.392
 20
17.7372
 11
12.0871
 21
19.2144
  0
LINE
  8
0
 10
12.0871
 20
19.2144
 11
12.5916
 21
20.767
  0
LINE
  8
0
 10
12.5916
 20
20.767
 11
12.8975
 21
22.3707
  0
LINE
  8
0
 10
12.8975
 20
22.3707
 11
13
 21
24
  0
LINE
  8
0
 10
13
 20
24
 11
12.8975
 21
25.6293
  0
LINE
  8
0
 10
12.8975
 20
25.6293
 11
12.5916
 21
27.233
  0
LINE
  8
0
 10
12.5916
 20
27.233
 11
12.0871
 21
28.7856
  0
LINE
  8
0
 10
12.0871
 20
28.7856
 11
11.392
 21
30.2628
  0
LINE
  8
0
 10
11.392
 20
30.2628
 11
10.5172
 21
31.6412
  0
LINE
  8
0
 10
10.5172
 20
31.6412
 11
9.47658
 21
32.8991
  0
LINE
  8
0
 10
9.47658
 20
32.8991
 11
8.2865
 21
34.0167
  0
LINE
  8
0
 10
8.2865
 20
34.0167
 11
6.96574
 21
34.9763
  0
LINE
  8
0
 10
6.96574
 20
34.9763
 11
5.53513
 21
35.7627
  0
LINE
  8
0
 10
5.53513
 20
35.7627
 11
4.93588
 21
36
  0
LINE
  8
0
 10
4.93588
 20
36
 11
5.53513
 21
36.2373
  0
LINE
  8
0
 10
5.53513
 20
36.2373
 11
6.96574
 21
37.0237
  0
LINE
  8
0
 10
6.96574
 20
37.0237
 11
8.2865
 21
37.9833
  0
LINE
  8
0
 10
8.2865
 20
37.9833
 11
9.47658
 21
39.1009
  0
LINE
  8
0
 10
9.47658
 20
39.1009
 11
10.5172
 21
40.3588
  0
LINE
  8
0
 10
10.5172
 20
40.3588
 11
11.392
 21
41.7372
  0
LINE
  8
0
 10
11.392
 20
41.7372
 11
12.0871
 21
43.2144
  0
LINE
  8
0
 10
12.0871
 20
43.2144
 11
12.5916
 21
44.767
  0
LINE
  8
0
 10
12.5916
 20
44.767
 11
12.8975
 21
46.3707
  0
LINE
  8
0
 10
12.8975
 20
46.3707
 11
13
 21
48
  0
LINE
  8
0
 10
13
 20
48
 11
12.8975
 21
49.6293
  0
LINE
  8
0
 10
12.8975
 20
49.6293
 11
12.5916
 21
51.233
  0
LINE
  8
0
 10
12.5916
 20
51.233
 11
12.0871
 21
52.7856
  0
LINE
  8
0
 10
12.0871
 20
52.7856
 11
11.392
 21
54.2628
  0
LINE
  8
0
 10
11.392
 20
54.2628
 11
10.5172
 21
55.6412
  0
LINE
  8
0
 10
10.5172
 20
55.6412
 11
9.47658
 21
56.8991
  0
LINE
  8
0
 10
9.47658
 20
56.8991
 11
8.2865
 21
58.0167
  0
LINE
  8
0
 10
8.2865
 20
58.0167
 11
6.96574
 21
58.9763
  0
LINE
  8
0
 10
6.96574
 20
58.9763
 11
5.53513
 21
59.7627
  0
LINE
  8
0
 10
5.53513
 20
59.7627
 11
4.01721
 21
60.3637
  0
LINE
  8
0
 10
4.01721
 20
60.3637
 11
2.43594
 21
60.7697
  0
LINE
  8
0
 10
2.43594
 20
60.7697
 11
0.816269
 21
60.9743
  0
LINE
  8
0
 10
0.816269
 20
60.9743
 11
-0.816269
 21
60.9743
  0
LINE
  8
0
 10
-0.816269
 20
60.9743
 11
-2.43594
 21
60.7697
  0
LINE
  8
0
 10
-2.43594
 20
60.7697
 11
-4.01721
 21
60.3637
  0
LINE
  8
0
 10
-4.01721
 20
60.3637
 11
-5.53513
 21
59.7627
  0
LINE
  8
0
 10
-5.53513
 20
59.7627
 11
-6.96574
 21
58.9763
  0
LINE
  8
0
 10
-6.96574
 20
58.9763
 11
-8.2865
 21
58.0167
  0
LINE
  8
0
 10
-8.2865
 20
58.0167
 11
-9.47658
 21
56.8991
  0
LINE
  8
0
 10
-9.47658
 20
56.8991
 11
-10.5172
 21
55.6412
  0
LINE
  8
0
 10
-10.5172
 20
55.6412
 11
-11.392
 21
54.2628
  0
LINE
  8
0
 10
-11.392
 20
54.2628
 11
-12.0871
 21
52.7856
  0
LINE
  8
0
 10
-12.0871
 20
52.7856
 11
-12.5916
 21
51.233
  0
LINE
  8
0
 10
-12.5916
 20
51.233
 11
-12.8975
 21
49.6293
  0
LINE
  8
0
 10
-12.8975
 20
49.6293
 11
-13
 21
48
  0
LINE
  8
0
 10
-13
 20
48
 11
-12.8975
 21
46.3707
  0
LINE
  8
0
 10
-12.8975
 20
46.3707
 11
-12.5916
 21
44.767
  0
LINE
  8
0
 10
-12.5916
 20
44.767
 11
-12.0871
 21
43.2144
  0
LINE
  8
0
 10
-12.0871
 20
43.2144
 11
-11.392
 21
41.7372
  0
LINE
  8
0
 10
-11.392
 20
41.7372
 11
-10.5172
 21
40.3588
  0
LINE
  8
0
 10
-10.5172
 20
40.3588
 11
-9.47658
 21
39.1009
  0
LINE
  8
0
 10
-9.47658
 20
39.1009
 11
-8.2865
 21
37.9833
  0
LINE
  8
0
 10
-8.2865
 20
37.9833
 11
-6.96574
 21
37.0237
  0
LINE
  8
0
 10
-6.96574
 20
37.0237
 11
-5.53513
 21
36.2373
  0
LINE
  8
0
 10
-5.53513
 20
36.2373
 11
-4.93588
 21
36
  0
LINE
  8
0
 10
-4.93588
 20
36
 11
-5.53513
 21
35.7627
  0
LINE
  8
0
 10
-5.53513
 20
35.7627
 11
-6.96574
 21
34.9763
  0
LINE
  8
0
 10
-6.96574
 20
34.9763
 11
-8.2865
 21
34.0167
  0
LINE
  8
0
 10
-8.2865
 20
34.0167
 11
-9.47658
 21
32.8991
  0
LINE
  8
0
 10
-9.47658
 20
32.8991
 11
-10.5172
 21
31.6412
  0
LINE
  8
0
 10
-10.5172
 20
31.6412
 11
-11.392
 21
30.2628
  0
LINE
  8
0
 10
-11.392
 20
30.2628
 11
-12.0871
 21
28.7856
  0
LINE
  8
0
 10
-12.0871
 20
28.7856
 11
-12.5916
 21
27.233
  0
LINE
  8
0
 10
-12.5916
 20
27.233
 11
-12.8975
 21
25.6293
  0
LINE
  8
0
 10
-12.8975
 20
25.6293
 11
-13
 21
24
  0
LINE
  8
0
 10
-13
 20
24
 11
-12.8975
 21
22.3707
  0
LINE
  8
0
 10
-12.8975
 20
22.3707
 11
-12.5916
 21
20.767
  0
LINE
  8
0
 10
-12.5916
 20
20.767
 11
-12.0871
 21
19.2144
  0
LINE
  8
0
 10
-12.0871
 20
19.2144
 11
-11.392
 21
17.7372
  0
LINE
  8
0
 10
-11.392
 20
17.7372
 11
-10.5172
 21
16.3588
  0
LINE
  8
0
 10
-10.5172
 20
16.3588
 11
-9.47658
 21
15.1009
  0
LINE
  8
0
 10
-9.47658
 20
15.1009
 11
-8.2865
 21
13.9833
  0
LINE
  8
0
 10
-8.2865
 20
13.9833
 11
-6.96574
 21
13.0237
  0
LINE
  8
0
 10
-6.96574
 20
13.0237
 11
-5.53513
 21
12.2373
  0
LINE
  8
0
 10
-5.53513
 20
12.2373
 11
-4.01721
 21
11.6363
  0
LINE
  8
0
 10
-4.01721
 20
11.6363
 11
-2.43594
 21
11.2303
  0
LINE
  8
0
 10
-2.43594
 20
11.2303
 11
-0.816269
 21
11.0257
  0
LINE
  8
0
 10
-0.816269
 20
11.0257
 11
0.816269
 21
11.0257
  0
LINE
  8
0
 10
0.816269
 20
11.0257
 11
2.43594
 21
11.2303
  0
LINE
  8
0
 10
-0.307663
 20
43.1097
 11
-0.918167
 21
43.1868
  0
LINE
  8
0
 10
-0.918167
 20
43.1868
 11
-1.51418
 21
43.3398
  0
LINE
  8
0
 10
-1.51418
 20
43.3398
 11
-2.0863
 21
43.5664
  0
LINE
  8
0
 10
-2.0863
 20
43.5664
 11
-2.62555
 21
43.8628
  0
LINE
  8
0
 10
-2.62555
 20
43.8628
 11
-3.12337
 21
44.2245
  0
LINE
  8
0
 10
-3.12337
 20
44.2245
 11
-3.57195
 21
44.6457
  0
LINE
  8
0
 10
-3.57195
 20
44.6457
 11
-3.96417
 21
45.1199
  0
LINE
  8
0
 10
-3.96417
 20
45.1199
 11
-4.2939
 21
45.6394
  0
LINE
  8
0
 10
-4.2939
 20
45.6394
 11
-4.55589
 21
46.1962
  0
LINE
  8
0
 10
-4.55589
 20
46.1962
 11
-4.74605
 21
46.7814
  0
LINE
  8
0
 10
-4.74605
 20
46.7814
 11
-4.86136
 21
47.3859
  0
LINE
  8
0
 10
-4.86136
 20
47.3859
 11
-4.89999
 21
48
  0
LINE
  8
0
 10
-4.89999
 20
48
 11
-4.86136
 21
48.6141
  0
LINE
  8
0
 10
-4.86136
 20
48.6141
 11
-4.74605
 21
49.2186
  0
LINE
  8
0
 10
-4.74605
 20
49.2186
 11
-4.55589
 21
49.8038
  0
LINE
  8
0
 10
-4.55589
 20
49.8038
 11
-4.2939
 21
50.3606
  0
LINE
  8
0
 10
-4.2939
 20
50.3606
 11
-3.96417
 21
50.8801
  0
LINE
  8
0
 10
-3.96417
 20
50.8801
 11
-3.57195
 21
51.3543
  0
LINE
  8
0
 10
-3.57195
 20
51.3543
 11
-3.12337
 21
51.7755
  0
LINE
  8
0
 10
-3.12337
 20
51.7755
 11
-2.62555
 21
52.1372
  0
LINE
  8
0
 10
-2.62555
 20
52.1372
 11
-2.0863
 21
52.4336
  0
LINE
  8
0
 10
-2.0863
 20
52.4336
 11
-1.51418
 21
52.6602
  0
LINE
  8
0
 10
-1.51418
 20
52.6602
 11
-0.918167
 21
52.8132
  0
LINE
  8
0
 10
-0.918167
 20
52.8132
 11
-0.307663
 21
52.8903
  0
LINE
  8
0
 10
-0.307663
 20
52.8903
 11
0.307663
 21
52.8903
  0
LINE
  8
0
 10
0.307663
 20
52.8903
 11
0.918167
 21
52.8132
  0
LINE
  8
0
 10
0.918167
 20
52.8132
 11
1.51418
 21
52.6602
  0
LINE
  8
0
 10
1.51418
 20
52.6602
 11
2.0863
 21
52.4336
  0
LINE
  8
0
 10
2.0863
 20
52.4336
 11
2.62555
 21
52.1372
  0
LINE
  8
0
 10
2.62555
 20
52.1372
 11
3.12337
 21
51.7755
  0
LINE
  8
0
 10
3.12337
 20
51.7755
 11
3.57195
 21
51.3543
  0
LINE
  8
0
 10
3.57195
 20
51.3543
 11
3.96417
 21
50.8801
  0
LINE
  8
0
 10
3.96417
 20
50.8801
 11
4.2939
 21
50.3606
  0
LINE
  8
0
 10
4.2939
 20
50.3606
 11
4.55589
 21
49.8038
  0
LINE
  8
0
 10
4.55589
 20
49.8038
 11
4.74605
 21
49.2186
  0
LINE
  8
0
 10
4.74605
 20
49.2186
 11
4.86136
 21
48.6141
  0
LINE
  8
0
 10
4.86136
 20
48.6141
 11
4.89999
 21
48
  0
LINE
  8
0
 10
4.89999
 20
48
 11
4.86136
 21
47.3859
  0
LINE
  8
0
 10
4.86136
 20
47.3859
 11
4.74605
 21
46.7814
  0
LINE
  8
0
 10
4.74605
 20
46.7814
 11
4.55589
 21
46.1962
  0
LINE
  8
0
 10
4.55589
 20
46.1962
 11
4.2939
 21
45.6394
  0
LINE
  8
0
 10
4.2939
 20
45.6394
 11
3.96417
 21
45.1199
  0
LINE
  8
0
 10
3.96417
 20
45.1199
 11
3.57195
 21
44.6457
  0
LINE
  8
0
 10
3.57195
 20
44.6457
 11
3.12337
 21
44.2245
  0
LINE
  8
0
 10
3.12337
 20
44.2245
 11
2.62555
 21
43.8628
  0
LINE
  8
0
 10
2.62555
 20
43.8628
 11
2.0863
 21
43.5664
  0
LINE
  8
0
 10
2.0863
 20
43.5664
 11
1.51418
 21
43.3398
  0
LINE
  8
0
 10
1.51418
 20
43.3398
 11
0.918167
 21
43.1868
  0
LINE
  8
0
 10
0.918167
 20
43.1868
 11
0.307663
 21
43.1097
  0
LINE
  8
0
 10
0.307663
 20
43.1097
 11
-0.307663
 21
43.1097
  0
LINE
  8
0
 10
-0.190567
 20
20.9709
 11
-0.568726
 21
21.0186
  0
LINE
  8
0
 10
-0.568726
 20
21.0186
 11
-0.937897
 21
21.1134
  0
LINE
  8
0
 10
-0.937897
 20
21.1134
 11
-1.2923
 21
21.2537
  0
LINE
  8
0
 10
-1.2923
 20
21.2537
 11
-1.6263
 21
21.4374
  0
LINE
  8
0
 10
-1.6263
 20
21.4374
 11
-1.93466
 21
21.6614
  0
LINE
  8
0
 10
-1.93466
 20
21.6614
 11
-2.21251
 21
21.9223
  0
LINE
  8
0
 10
-2.21251
 20
21.9223
 11
-2.45547
 21
22.216
  0
LINE
  8
0
 10
-2.45547
 20
22.216
 11
-2.6597
 21
22.5378
  0
LINE
  8
0
 10
-2.6597
 20
22.5378
 11
-2.82199
 21
22.8827
  0
LINE
  8
0
 10
-2.82199
 20
22.8827
 11
-2.93977
 21
23.2452
  0
LINE
  8
0
 10
-2.93977
 20
23.2452
 11
-3.0112
 21
23.6196
  0
LINE
  8
0
 10
-3.0112
 20
23.6196
 11
-3.03513
 21
24
  0
LINE
  8
0
 10
-3.03513
 20
24
 11
-3.0112
 21
24.3804
  0
LINE
  8
0
 10
-3.0112
 20
24.3804
 11
-2.93977
 21
24.7548
  0
LINE
  8
0
 10
-2.93977
 20
24.7548
 11
-2.82199
 21
25.1173
  0
LINE
  8
0
 10
-2.82199
 20
25.1173
 11
-2.6597
 21
25.4622
  0
LINE
  8
0
 10
-2.6597
 20
25.4622
 11
-2.45547
 21
25.784
  0
LINE
  8
0
 10
-2.45547
 20
25.784
 11
-2.21251
 21
26.0777
  0
LINE
  8
0
 10
-2.21251
 20
26.0777
 11
-1.93466
 21
26.3386
  0
LINE
  8
0
 10
-1.93466
 20
26.3386
 11
-1.6263
 21
26.5626
  0
LINE
  8
0
 10
-1.6263
 20
26.5626
 11
-1.2923
 21
26.7463
  0
LINE
  8
0
 10
-1.2923
 20
26.7463
 11
-0.937897
 21
26.8866
  0
LINE
  8
0
 10
-0.937897
 20
26.8866
 11
-0.568726
 21
26.9814
  0
LINE
  8
0
 10
-0.568726
 20
26.9814
 11
-0.190567
 21
27.0291
  0
LINE
  8
0
 10
-0.190567
 20
27.0291
 11
0.190567
 21
27.0291
  0
LINE
  8
0
 10
0.190567
 20
27.0291
 11
0.568726
 21
26.9814
  0
LINE
  8
0
 10
0.568726
 20
26.9814
 11
0.937897
 21
26.8866
  0
LINE
  8
0
 10
0.937897
 20
26.8866
 11
1.2923
 21
26.7463
  0
LINE
  8
0
 10
1.2923
 20
26.7463
 11
1.6263
 21
26.5626
  0
LINE
  8
0
 10
1.6263
 20
26.5626
 11
1.93466
 21
26.3386
  0
LINE
  8
0
 10
1.93466
 20
26.3386
 11
2.21251
 21
26.0777
  0
LINE
  8
0
 10
2.21251
 20
26.0777
 11
2.45547
 21
25.784
  0
LINE
  8
0
 10
2.45547
 20
25.784
 11
2.6597
 21
25.4622
  0
LINE
  8
0
 10
2.6597
 20
25.4622
 11
2.82199
 21
25.1173
  0
LINE
  8
0
 10
2.82199
 20
25.1173
 11
2.93977
 21
24.7548
  0
LINE
  8
0
 10
2.93977
 20
24.7548
 11
3.0112
 21
24.3804
  0
LINE
  8
0
 10
3.0112
 20
24.3804
 11
3.03513
 21
24
  0
LINE
  8
0
 10
3.03513
 20
24
 11
3.0112
 21
23.6196
  0
LINE
  8
0
 10
3.0112
 20
23.6196
 11
2.93977
 21
23.2452
  0
LINE
  8
0
 10
2.93977
 20
23.2452
 11
2.82199
 21
22.8827
  0
LINE
  8
0
 10
2.82199
 20
22.8827
 11
2.6597
 21
22.5378
  0
LINE
  8
0
 10
2.6597
 20
22.5378
 11
2.45547
 21
22.216
  0
LINE
  8
0
 10
2.45547
 20
22.216
 11
2.21251
 21
21.9223
  0
LINE
  8
0
 10
2.21251
 20
21.9223
 11
1.93466
 21
21.6614
  0
LINE
  8
0
 10
1.93466
 20
21.6614
 11
1.6263
 21
21.4374
  0
LINE
  8
0
 10
1.6263
 20
21.4374
 11
1.2923
 21
21.2537
  0
LINE
  8
0
 10
1.2923
 20
21.2537
 11
0.937897
 21
21.1134
  0
LINE
  8
0
 10
0.937897
 20
21.1134
 11
0.568726
 21
21.0186
  0
LINE
  8
0
 10
0.568726
 20
21.0186
 11
0.190567
 21
20.9709
  0
LINE
  8
0
 10
0.190567
 20
20.9709
 11
-0.190567
 21
20.9709
  0
LINE
  8
0
 10
1.87381
 20
-9.82286
 11
3.09016
 21
-9.51056
  0
LINE
  8
0
 10
3.09016
 20
-9.51056
 11
4.25778
 21
-9.04826
  0
LINE
  8
0
 10
4.25778
 20
-9.04826
 11
5.35826
 21
-8.44327
  0
LINE
  8
0
 10
5.35826
 20
-8.44327
 11
6.37424
 21
-7.70512
  0
LINE
  8
0
 10
6.37424
 20
-7.70512
 11
7.28967
 21
-6.84546
  0
LINE
  8
0
 10
7.28967
 20
-6.84546
 11
8.09016
 21
-5.87784
  0
LINE
  8
0
 10
8.09016
 20
-5.87784
 11
8.76306
 21
-4.81754
  0
LINE
  8
0
 10
8.76306
 20
-4.81754
 11
9.29776
 21
-3.68124
  0
LINE
  8
0
 10
9.29776
 20
-3.68124
 11
9.68582
 21
-2.48689
  0
LINE
  8
0
 10
9.68582
 20
-2.48689
 11
9.92114
 21
-1.25333
  0
LINE
  8
0
 10
9.92114
 20
-1.25333
 11
10
 21
0
  0
LINE
  8
0
 10
10
 20
0
 11
9.92114
 21
1.25333
  0
LINE
  8
0
 10
9.92114
 20
1.25333
 11
9.68582
 21
2.48689
  0
LINE
  8
0
 10
9.68582
 20
2.48689
 11
9.29776
 21
3.68124
  0
LINE
  8
0
 10
9.29776
 20
3.68124
 11
8.76306
 21
4.81754
  0
LINE
  8
0
 10
8.76306
 20
4.81754
 11
8.09016
 21
5.87784
  0
LINE
  8
0
 10
8.09016
 20
5.87784
 11
7.28967
 21
6.84546
  0
LINE
  8
0
 10
7.28967
 20
6.84546
 11
6.37424
 21
7.70512
  0
LINE
  8
0
 10
6.37424
 20
7.70512
 11
5.35826
 21
8.44327
  0
LINE
  8
0
 10
5.35826
 20
8.44327
 11
4.25778
 21
9.04826
  0
LINE
  8
0
 10
4.25778
 20
9.04826
 11
3.09016
 21
9.51056
  0
LINE
  8
0
 10
3.09016
 20
9.51056
 11
1.87381
 21
9.82286
  0
LINE
  8
0
 10
1.87381
 20
9.82286
 11
0.627899
 21
9.98026
  0
LINE
  8
0
 10
0.627899
 20
9.98026
 11
-0.627899
 21
9.98026
  0
LINE
  8
0
 10
-0.627899
 20
9.98026
 11
-1.87381
 21
9.82286
  0
LINE
  8
0
 10
-1.87381
 20
9.82286
 11
-3.09016
 21
9.51056
  0
LINE
  8
0
 10
-3.09016
 20
9.51056
 11
-4.25778
 21
9.04826
  0
LINE
  8
0
 10
-4.25778
 20
9.04826
 11
-5.35826
 21
8.44327
  0
LINE
  8
0
 10
-5.35826
 20
8.44327
 11
-6.37424
 21
7.70512
  0
LINE
  8
0
 10
-6.37424
 20
7.70512
 11
-7.28967
 21
6.84546
  0
LINE
  8
0
 10
-7.28967
 20
6.84546
 11
-8.09016
 21
5.87784
  0
LINE
  8
0
 10
-8.09016
 20
5.87784
 11
-8.76306
 21
4.81754
  0
LINE
  8
0
 10
-8.76306
 20
4.81754
 11
-9.29776
 21
3.68124
  0
LINE
  8
0
 10
-9.29776
 20
3.68124
 11
-9.68582
 21
2.48689
  0
LINE
  8
0
 10
-9.68582
 20
2.48689
 11
-9.92114
 21
1.25333
  0
LINE
  8
0
 10
-9.92114
 20
1.25333
 11
-10
 21
0
  0
LINE
  8
0
 10
-10
 20
0
 11
-9.92114
 21
-1.25333
  0
LINE
  8
0
 10
-9.92114
 20
-1.25333
 11
-9.68582
 21
-2.48689
  0
LINE
  8
0
 10
-9.68582
 20
-2.48689
 11
-9.29776
 21
-3.68124
  0
LINE
  8
0
 10
-9.29776
 20
-3.68124
 11
-8.76306
 21
-4.81754
  0
LINE
  8
0
 10
-8.76306
 20
-4.81754
 11
-8.09016
 21
-5.87784
  0
LINE
  8
0
 10
-8.09016
 20
-5.87784
 11
-7.28967
 21
-6.84546
  0
LINE
  8
0
 10
-7.28967
 20
-6.84546
 11
-6.37424
 21
-7.70512
  0
LINE
  8
0
 10
-6.37424
 20
-7.70512
 11
-5.35826
 21
-8.44327
  0
LINE
  8
0
 10
-5.35826
 20
-8.44327
 11
-4.25778
 21
-9.04826
  0
LINE
  8
0
 10
-4.25778
 20
-9.04826
 11
-3.09016
 21
-9.51056
  0
LINE
  8
0
 10
-3.09016
 20
-9.51056
 11
-1.87381
 21
-9.82286
  0
LINE
  8
0
 10
-1.87381
 20
-9.82286
 11
-0.627899
 21
-9.98026
  0
LINE
  8
0
 10
-0.627899
 20
-9.98026
 11
0.627899
 21
-9.98026
  0
LINE
  8
0
 10
0.627899
 20
-9.98026
 11
1.87381
 21
-9.82286
  0
LINE
  8
0
 10
-0.180511
 20
-2.86932
 11
-0.538712
 21
-2.82407
  0
LINE
  8
0
 10
-0.538712
 20
-2.82407
 11
-0.888412
 21
-2.73428
  0
LINE
  8
0
 10
-0.888412
 20
-2.73428
 11
-1.22411
 21
-2.60136
  0
LINE
  8
0
 10
-1.22411
 20
-2.60136
 11
-1.5405
 21
-2.42743
  0
LINE
  8
0
 10
-1.5405
 20
-2.42743
 11
-1.83258
 21
-2.21523
  0
LINE
  8
0
 10
-1.83258
 20
-2.21523
 11
-2.09578
 21
-1.96806
  0
LINE
  8
0
 10
-2.09578
 20
-1.96806
 11
-2.32591
 21
-1.68988
  0
LINE
  8
0
 10
-2.32591
 20
-1.68988
 11
-2.51938
 21
-1.38504
  0
LINE
  8
0
 10
-2.51938
 20
-1.38504
 11
-2.6731
 21
-1.05835
  0
LINE
  8
0
 10
-2.6731
 20
-1.05835
 11
-2.78467
 21
-0.714981
  0
LINE
  8
0
 10
-2.78467
 20
-0.714981
 11
-2.85233
 21
-0.360321
  0
LINE
  8
0
 10
-2.85233
 20
-0.360321
 11
-2.875
 21
0
  0
LINE
  8
0
 10
-2.875
 20
0
 11
-2.85233
 21
0.360321
  0
LINE
  8
0
 10
-2.85233
 20
0.360321
 11
-2.78467
 21
0.714981
  0
LINE
  8
0
 10
-2.78467
 20
0.714981
 11
-2.6731
 21
1.05835
  0
LINE
  8
0
 10
-2.6731
 20
1.05835
 11
-2.51938
 21
1.38504
  0
LINE
  8
0
 10
-2.51938
 20
1.38504
 11
-2.32591
 21
1.68988
  0
LINE
  8
0
 10
-2.32591
 20
1.68988
 11
-2.09578
 21
1.96806
  0
LINE
  8
0
 10
-2.09578
 20
1.96806
 11
-1.83258
 21
2.21523
  0
LINE
  8
0
 10
-1.83258
 20
2.21523
 11
-1.5405
 21
2.42743
  0
LINE
  8
0
 10
-1.5405
 20
2.42743
 11
-1.22411
 21
2.60136
  0
LINE
  8
0
 10
-1.22411
 20
2.60136
 11
-0.888412
 21
2.73428
  0
LINE
  8
0
 10
-0.888412
 20
2.73428
 11
-0.538712
 21
2.82407
  0
LINE
  8
0
 10
-0.538712
 20
2.82407
 11
-0.180511
 21
2.86932
  0
LINE
  8
0
 10
-0.180511
 20
2.86932
 11
0.180511
 21
2.86932
  0
LINE
  8
0
 10
0.180511
 20
2.86932
 11
0.538712
 21
2.82407
  0
LINE
  8
0
 10
0.538712
 20
2.82407
 11
0.888412
 21
2.73428
  0
LINE
  8
0
 10
0.888412
 20
2.73428
 11
1.22411
 21
2.60136
  0
LINE
  8
0
 10
1.22411
 20
2.60136
 11
1.5405
 21
2.42743
  0
LINE
  8
0
 10
1.5405
 20
2.42743
 11
1.83258
 21
2.21523
  0
LINE
  8
0
 10
1.83258
 20
2.21523
 11
2.09578
 21
1.96806
  0
LINE
  8
0
 10
2.09578
 20
1.96806
 11
2.32591
 21
1.68988
  0
LINE
  8
0
 10
2.32591
 20
1.68988
 11
2.51938
 21
1.38504
  0
LINE
  8
0
 10
2.51938
 20
1.38504
 11
2.6731
 21
1.05835
  0
LINE
  8
0
 10
2.6731
 20
1.05835
 11
2.78467
 21
0.714981
  0
LINE
  8
0
 10
2.78467
 20
0.714981
 11
2.85233
 21
0.360321
  0
LINE
  8
0
 10
2.85233
 20
0.360321
 11
2.875
 21
0
  0
LINE
  8
0
 10
2.875
 20
0
 11
2.85233
 21
-0.360321
  0
LINE
  8
0
 10
2.85233
 20
-0.360321
 11
2.78467
 21
-0.714981
  0
LINE
  8
0
 10
2.78467
 20
-0.714981
 11
2.6731
 21
-1.05835
  0
LINE
  8
0
 10
2.6731
 20
-1.05835
 11
2.51938
 21
-1.38504
  0
LINE
  8
0
 10
2.51938
 20
-1.38504
 11
2.32591
 21
-1.68988
  0
LINE
  8
0
 10
2.32591
 20
-1.68988
 11
2.09578
 21
-1.96806
  0
LINE
  8
0
 10
2.09578
 20
-1.96806
 11
1.83258
 21
-2.21523
  0
LINE
  8
0
 10
1.83258
 20
-2.21523
 11
1.5405
 21
-2.42743
  0
LINE
  8
0
 10
1.5405
 20
-2.42743
 11
1.22411
 21
-2.60136
  0
LINE
  8
0
 10
1.22411
 20
-2.60136
 11
0.888412
 21
-2.73428
  0
LINE
  8
0
 10
0.888412
 20
-2.73428
 11
0.538712
 21
-2.82407
  0
LINE
  8
0
 10
0.538712
 20
-2.82407
 11
0.180511
 21
-2.86932
  0
LINE
  8
0
 10
0.180511
 20
-2.86932
 11
-0.180511
 21
-2.86932
  0
ENDSEC
  0
SECTION
  2
OBJECTS
  0
DICTIONARY
  0
ENDSEC
  0
EOF
