<?xml version="1.0" standalone="no"?>
<!DOCTYPE svg PUBLIC "-//W3C//DTD SVG 1.1//EN" "http://www.w3.org/Graphics/SVG/1.1/DTD/svg11.dtd">
<svg width="26mm" height="71mm" viewBox="-13 -61 26 71" xmlns="http://www.w3.org/2000/svg" version="1.1">
<title>OpenSCAD Model</title>
<path d="
M 2.43594,-11.2303 L 4.01721,-11.6363 L 5.53513,-12.2373 L 6.96574,-13.0237 L 8.2865,-13.9833 L 9.47658,-15.1009
 L 10.5172,-16.3588 L 11.392,-17.7372 L 12.0871,-19.2144 L 12.5916,-20.767 L 12.8975,-22.3707 L 13,-24
 L 12.8975,-25.6293 L 12.5916,-27.233 L 12.0871,-28.7856 L 11.392,-30.2628 L 10.5172,-31.6412 L 9.47658,-32.8991
 L 8.2865,-34.0167 L 6.96574,-34.9763 L 5.53513,-35.7627 L 4.93588,-36 L 5.53513,-36.2373 L 6.96574,-37.0237
 L 8.2865,-37.9833 L 9.47658,-39.1009 L 10.5172,-40.3588 L 11.392,-41.7372 L 12.0871,-43.2144 L 12.5916,-44.767
 L 12.8975,-46.3707 L 13,-48 L 12.8975,-49.6293 L 12.5916,-51.233 L 12.0871,-52.7856 L 11.392,-54.2628
 L 10.5172,-55.6412 L 9.47658,-56.8991 L 8.2865,-58.0167 L 6.96574,-58.9763 L 5.53513,-59.7627 L 4.01721,-60.3637
 L 2.43594,-60.7697 L 0.816269,-60.9743 L -0.816269,-60.9743 L -2.43594,-60.7697 L -4.01721,-60.3637 L -5.53513,-59.7627
 L -6.96574,-58.9763 L -8.2865,-58.0167 L -9.47658,-56.8991 L -10.5172,-55.6412 L -11.392,-54.2628 L -12.0871,-52.7856
 L -12.5916,-51.233 L -12.8975,-49.6293 L -13,-48 L -12.8975,-46.3707 L -12.5916,-44.767 L -12.0871,-43.2144
 L -11.392,-41.7372 L -10.5172,-40.3588 L -9.47658,-39.1009 L -8.2865,-37.9833 L -6.96574,-37.0237 L -5.53513,-36.2373
 L -4.93588,-36 L -5.53513,-35.7627 L -6.96574,-34.9763 L -8.2865,-34.0167 L -9.47658,-32.8991 L -10.5172,-31.6412
 L -11.392,-30.2628 L -12.0871,-28.7856 L -12.5916,-27.233 L -12.8975,-25.6293 L -13,-24 L -12.8975,-22.3707
 L -12.5916,-20.767 L -12.0871,-19.2144 L -11.392,-17.7372 L -10.5172,-16.3588 L -9.47658,-15.1009 L -8.2865,-13.9833
 L -6.96574,-13.0237 L -5.53513,-12.2373 L -4.01721,-11.6363 L -2.43594,-11.2303 L -0.816269,-11.0257 L 0.816269,-11.0257
 z
M -0.307663,-43.1097 L -0.918167,-43.1868 L -1.51418,-43.3398 L -2.0863,-43.5664 L -2.62555,-43.8628 L -3.12337,-44.2245
 L -3.57195,-44.6457 L -3.96417,-45.1199 L -4.2939,-45.6394 L -4.55589,-46.1962 L -4.74605,-46.7814 L -4.86136,-47.3859
 L -4.89999,-48 L -4.86136,-48.6141 L -4.74605,-49.2186 L -4.55589,-49.8038 L -4.2939,-50.3606 L -3.96417,-50.8801
 L -3.57195,-51.3543 L -3.12337,-51.7755 L -2.62555,-52.1372 L -2.0863,-52.4336 L -1.51418,-52.6602 L -0.918167,-52.8132
 L -0.307663,-52.8903 L 0.307663,-52.8903 L 0.918167,-52.8132 L 1.51418,-52.6602 L 2.0863,-52.4336 L 2.62555,-52.1372
 L 3.12337,-51.7755 L 3.57195,-51.3543 L 3.96417,-50.8801 L 4.2939,-50.3606 L 4.55589,-49.8038 L 4.74605,-49.2186
 L 4.86136,-48.6141 L 4.89999,-48 L 4.86136,-47.3859 L 4.74605,-46.7814 L 4.55589,-46.1962 L 4.2939,-45.6394
 L 3.96417,-45.1199 L 3.57195,-44.6457 L 3.12337,-44.2245 L 2.62555,-43.8628 L 2.0863,-43.5664 L 1.51418,-43.3398
 L 0.918167,-43.1868 L 0.307663,-43.1097 z
M -0.190567,-20.9709 L -0.568726,-21.0186 L -0.937897,-21.1134 L -1.2923,-21.2537 L -1.6263,-21.4374 L -1.93466,-21.6614
 L -2.21251,-21.9223 L -2.45547,-22.216 L -2.6597,-22.5378 L -2.82199,-22.8827 L -2.93977,-23.2452 L -3.0112,-23.6196
 L -3.03513,-24 L -3.0112,-24.3804 L -2.93977,-24.7548 L -2.82199,-25.1173 L -2.6597,-25.4622 L -2.45547,-25.784
 L -2.21251,-26.0777 L -1.93466,-26.3386 L -1.6263,-26.5626 L -1.2923,-26.7463 L -0.937897,-26.8866 L -0.568726,-26.9814
 L -0.190567,-27.0291 L 0.190567,-27.0291 L 0.568726,-26.9814 L 0.937897,-26.8866 L 1.2923,-26.7463 L 1.6263,-26.5626
 L 1.93466,-26.3386 L 2.21251,-26.0777 L 2.45547,-25.784 L 2.6597,-25.4622 L 2.82199,-25.1173 L 2.93977,-24.7548
 L 3.0112,-24.3804 L 3.03513,-24 L 3.0112,-23.6196 L 2.93977,-23.2452 L 2.82199,-22.8827 L 2.6597,-22.5378
 L 2.45547,-22.216 L 2.21251,-21.9223 L 1.93466,-21.6614 L 1.6263,-21.4374 L 1.2923,-21.2537 L 0.937897,-21.1134
 L 0.568726,-21.0186 L 0.190567,-20.9709 z
M 1.87381,9.82286 L 3.09016,9.51056 L 4.25778,9.04826 L 5.35826,8.44327 L 6.37424,7.70512 L 7.28967,6.84546
 L 8.09016,5.87784 L 8.76306,4.81754 L 9.29776,3.68124 L 9.68582,2.48689 L 9.92114,1.25333 L 10,-0
 L 9.92114,-1.25333 L 9.68582,-2.48689 L 9.29776,-3.68124 L 8.76306,-4.81754 L 8.09016,-5.87784 L 7.28967,-6.84546
 L 6.37424,-7.70512 L 5.35826,-8.44327 L 4.25778,-9.04826 L 3.09016,-9.51056 L 1.87381,-9.82286 L 0.627899,-9.98026
 L -0.627899,-9.98026 L -1.87381,-9.82286 L -3.09016,-9.51056 L -4.25778,-9.04826 L -5.35826,-8.44327 L -6.37424,-7.70512
 L -7.28967,-6.84546 L -8.09016,-5.87784 L -8.76306,-4.81754 L -9.29776,-3.68124 L -9.68582,-2.48689 L -9.92114,-1.25333
 L -10,-0 L -9.92114,1.25333 L -9.68582,2.48689 L -9.29776,3.68124 L -8.76306,4.81754 L -8.09016,5.87784
 L -7.28967,6.84546 L -6.37424,7.70512 L -5.35826,8.44327 L -4.25778,9.04826 L -3.09016,9.51056 L -1.87381,9.82286
 L -0.627899,9.98026 L 0.627899,9.98026 z
M -0.180511,2.86932 L -0.538712,2.82407 L -0.888412,2.73428 L -1.22411,2.60136 L -1.5405,2.42743 L -1.83258,2.21523
 L -2.09578,1.96806 L -2.32591,1.68988 L -2.51938,1.38504 L -2.6731,1.05835 L -2.78467,0.714981 L -2.85233,0.360321
 L -2.875,-0 L -2.85233,-0.360321 L -2.78467,-0.714981 L -2.6731,-1.05835 L -2.51938,-1.38504 L -2.32591,-1.68988
 L -2.09578,-1.96806 L -1.83258,-2.21523 L -1.5405,-2.42743 L -1.22411,-2.60136 L -0.888412,-2.73428 L -0.538712,-2.82407
 L -0.180511,-2.86932 L 0.180511,-2.86932 L 0.538712,-2.82407 L 0.888412,-2.73428 L 1.22411,-2.60136 L 1.5405,-2.42743
 L 1.83258,-2.21523 L 2.09578,-1.96806 L 2.32591,-1.68988 L 2.51938,-1.38504 L 2.6731,-1.05835 L 2.78467,-0.714981
 L 2.85233,-0.360321 L 2.875,-0 L 2.85233,0.360321 L 2.78467,0.714981 L 2.6731,1.05835 L 2.51938,1.38504
 L 2.32591,1.68988 L 2.09578,1.96806 L 1.83258,2.21523 L 1.5405,2.42743 L 1.22411,2.60136 L 0.888412,2.73428
 L 0.538712,2.82407 L 0.180511,2.86932 z
" stroke="black" fill="lightgray" stroke-width="0.5"/>
</svg>
