solid OpenSCAD_Model
  facet normal 0.998027 0.062789 0
    outer loop
      vertex 23.5 0 0
      vertex 23.3147 2.94533 -7
      vertex 23.3147 2.94533 0
    endloop
  endfacet
  facet normal 0.998027 0.062789 0
    outer loop
      vertex 23.3147 2.94533 -7
      vertex 23.5 0 0
      vertex 23.5 0 -7
    endloop
  endfacet
  facet normal -0.998027 0.062789 0
    outer loop
      vertex -23.5 0 -7
      vertex -23.3147 2.94533 0
      vertex -23.3147 2.94533 -7
    endloop
  endfacet
  facet normal -0.998027 0.062789 0
    outer loop
      vertex -23.3147 2.94533 0
      vertex -23.5 0 -7
      vertex -23.5 0 0
    endloop
  endfacet
  facet normal 0 1 -0
    outer loop
      vertex 1.47558 23.4536 -7
      vertex -1.47558 23.4536 0
      vertex 1.47558 23.4536 0
    endloop
  endfacet
  facet normal 0 1 0
    outer loop
      vertex -1.47558 23.4536 0
      vertex 1.47558 23.4536 -7
      vertex -1.47558 23.4536 -7
    endloop
  endfacet
  facet normal 0 -1 0
    outer loop
      vertex -1.47558 -23.4536 -7
      vertex 1.47558 -23.4536 0
      vertex -1.47558 -23.4536 0
    endloop
  endfacet
  facet normal 0 -1 -0
    outer loop
      vertex 1.47558 -23.4536 0
      vertex -1.47558 -23.4536 -7
      vertex 1.47558 -23.4536 -7
    endloop
  endfacet
  facet normal 0.684546 0.72897 -0
    outer loop
      vertex 17.1308 16.0869 -7
      vertex 14.9795 18.1071 0
      vertex 17.1308 16.0869 0
    endloop
  endfacet
  facet normal 0.684546 0.72897 0
    outer loop
      vertex 14.9795 18.1071 0
      vertex 17.1308 16.0869 -7
      vertex 14.9795 18.1071 -7
    endloop
  endfacet
  facet normal -0.684546 0.72897 0
    outer loop
      vertex -14.9795 18.1071 -7
      vertex -17.1308 16.0869 0
      vertex -14.9795 18.1071 0
    endloop
  endfacet
  facet normal -0.684546 0.72897 0
    outer loop
      vertex -17.1308 16.0869 0
      vertex -14.9795 18.1071 -7
      vertex -17.1308 16.0869 -7
    endloop
  endfacet
  facet normal -0.368128 0.929775 0
    outer loop
      vertex -7.2619 22.3498 -7
      vertex -10.0058 21.2634 0
      vertex -7.2619 22.3498 0
    endloop
  endfacet
  facet normal -0.368128 0.929775 0
    outer loop
      vertex -10.0058 21.2634 0
      vertex -7.2619 22.3498 -7
      vertex -10.0058 21.2634 -7
    endloop
  endfacet
  facet normal 0.904831 0.42577 0
    outer loop
      vertex 21.8497 8.65093 0
      vertex 20.5932 11.3212 -7
      vertex 20.5932 11.3212 0
    endloop
  endfacet
  facet normal 0.904831 0.42577 0
    outer loop
      vertex 20.5932 11.3212 -7
      vertex 21.8497 8.65093 0
      vertex 21.8497 8.65093 -7
    endloop
  endfacet
  facet normal 0.844335 0.535816 0
    outer loop
      vertex 20.5932 11.3212 0
      vertex 19.0119 13.813 -7
      vertex 19.0119 13.813 0
    endloop
  endfacet
  facet normal 0.844335 0.535816 0
    outer loop
      vertex 19.0119 13.813 -7
      vertex 20.5932 11.3212 0
      vertex 20.5932 11.3212 -7
    endloop
  endfacet
  facet normal 0.368128 0.929775 -0
    outer loop
      vertex 10.0058 21.2634 -7
      vertex 7.2619 22.3498 0
      vertex 10.0058 21.2634 0
    endloop
  endfacet
  facet normal 0.368128 0.929775 0
    outer loop
      vertex 7.2619 22.3498 0
      vertex 10.0058 21.2634 -7
      vertex 7.2619 22.3498 -7
    endloop
  endfacet
  facet normal 0.481748 0.87631 -0
    outer loop
      vertex 12.5919 19.8417 -7
      vertex 10.0058 21.2634 0
      vertex 12.5919 19.8417 0
    endloop
  endfacet
  facet normal 0.481748 0.87631 0
    outer loop
      vertex 10.0058 21.2634 0
      vertex 12.5919 19.8417 -7
      vertex 10.0058 21.2634 -7
    endloop
  endfacet
  facet normal -0.904831 0.42577 0
    outer loop
      vertex -21.8497 8.65093 -7
      vertex -20.5932 11.3212 0
      vertex -20.5932 11.3212 -7
    endloop
  endfacet
  facet normal -0.904831 0.42577 0
    outer loop
      vertex -20.5932 11.3212 0
      vertex -21.8497 8.65093 -7
      vertex -21.8497 8.65093 0
    endloop
  endfacet
  facet normal -0.770519 0.637417 0
    outer loop
      vertex -19.0119 13.813 -7
      vertex -17.1308 16.0869 0
      vertex -17.1308 16.0869 -7
    endloop
  endfacet
  facet normal -0.770519 0.637417 0
    outer loop
      vertex -17.1308 16.0869 0
      vertex -19.0119 13.813 -7
      vertex -19.0119 13.813 0
    endloop
  endfacet
  facet normal 0 0 1
    outer loop
      vertex 17.6 0 0
      vertex 23.5 0 0
      vertex 23.3147 2.94533 0
    endloop
  endfacet
  facet normal 0 0 1
    outer loop
      vertex 17.4612 2.20586 0
      vertex 23.3147 2.94533 0
      vertex 22.7617 5.84421 0
    endloop
  endfacet
  facet normal 0 0 1
    outer loop
      vertex 23.5 0 0
      vertex 17.6 0 0
      vertex 23.3147 -2.94533 0
    endloop
  endfacet
  facet normal 0 0 1
    outer loop
      vertex 17.0471 4.37694 0
      vertex 22.7617 5.84421 0
      vertex 21.8497 8.65093 0
    endloop
  endfacet
  facet normal -0 0 1
    outer loop
      vertex 17.4612 -2.20586 0
      vertex 23.3147 -2.94533 0
      vertex 17.6 0 0
    endloop
  endfacet
  facet normal 0 0 1
    outer loop
      vertex 16.3641 6.47899 0
      vertex 21.8497 8.65093 0
      vertex 20.5932 11.3212 0
    endloop
  endfacet
  facet normal 0 0 1
    outer loop
      vertex 23.3147 -2.94533 0
      vertex 17.4612 -2.20586 0
      vertex 22.7617 -5.84421 0
    endloop
  endfacet
  facet normal 0 0 1
    outer loop
      vertex 15.423 8.47886 0
      vertex 20.5932 11.3212 0
      vertex 19.0119 13.813 0
    endloop
  endfacet
  facet normal -0 0 1
    outer loop
      vertex 17.0471 -4.37694 0
      vertex 22.7617 -5.84421 0
      vertex 17.4612 -2.20586 0
    endloop
  endfacet
  facet normal 0 0 1
    outer loop
      vertex 22.7617 -5.84421 0
      vertex 17.0471 -4.37694 0
      vertex 21.8497 -8.65093 0
    endloop
  endfacet
  facet normal 0 0 1
    outer loop
      vertex 23.3147 2.94533 0
      vertex 17.4612 2.20586 0
      vertex 17.6 0 0
    endloop
  endfacet
  facet normal 0 0 1
    outer loop
      vertex 14.2387 10.345 0
      vertex 19.0119 13.813 0
      vertex 17.1308 16.0869 0
    endloop
  endfacet
  facet normal 0 0 1
    outer loop
      vertex 22.7617 5.84421 0
      vertex 17.0471 4.37694 0
      vertex 17.4612 2.20586 0
    endloop
  endfacet
  facet normal 0 0 1
    outer loop
      vertex 21.8497 8.65093 0
      vertex 16.3641 6.47899 0
      vertex 17.0471 4.37694 0
    endloop
  endfacet
  facet normal 0 0 1
    outer loop
      vertex 20.5932 11.3212 0
      vertex 15.423 8.47886 0
      vertex 16.3641 6.47899 0
    endloop
  endfacet
  facet normal 0 0 1
    outer loop
      vertex 12.8298 12.048 0
      vertex 17.1308 16.0869 0
      vertex 14.9795 18.1071 0
    endloop
  endfacet
  facet normal 0 0 1
    outer loop
      vertex 19.0119 13.813 0
      vertex 14.2387 10.345 0
      vertex 15.423 8.47886 0
    endloop
  endfacet
  facet normal 0 0 1
    outer loop
      vertex 17.1308 16.0869 0
      vertex 12.8298 12.048 0
      vertex 14.2387 10.345 0
    endloop
  endfacet
  facet normal 0 0 1
    outer loop
      vertex 11.2187 13.561 0
      vertex 14.9795 18.1071 0
      vertex 12.5919 19.8417 0
    endloop
  endfacet
  facet normal 0 0 1
    outer loop
      vertex 14.9795 18.1071 0
      vertex 11.2187 13.561 0
      vertex 12.8298 12.048 0
    endloop
  endfacet
  facet normal 0 0 1
    outer loop
      vertex 9.43055 14.8602 0
      vertex 12.5919 19.8417 0
      vertex 10.0058 21.2634 0
    endloop
  endfacet
  facet normal 0 0 1
    outer loop
      vertex 12.5919 19.8417 0
      vertex 9.43055 14.8602 0
      vertex 11.2187 13.561 0
    endloop
  endfacet
  facet normal 0 0 1
    outer loop
      vertex 10.0058 21.2634 0
      vertex 7.49372 15.925 0
      vertex 9.43055 14.8602 0
    endloop
  endfacet
  facet normal 0 0 1
    outer loop
      vertex 7.2619 22.3498 0
      vertex 7.49372 15.925 0
      vertex 10.0058 21.2634 0
    endloop
  endfacet
  facet normal 0 0 1
    outer loop
      vertex 7.2619 22.3498 0
      vertex 5.4387 16.7386 0
      vertex 7.49372 15.925 0
    endloop
  endfacet
  facet normal 0 0 1
    outer loop
      vertex 4.40346 23.0837 0
      vertex 5.4387 16.7386 0
      vertex 7.2619 22.3498 0
    endloop
  endfacet
  facet normal 0 0 1
    outer loop
      vertex 4.40346 23.0837 0
      vertex 3.29791 17.2883 0
      vertex 5.4387 16.7386 0
    endloop
  endfacet
  facet normal 0 0 1
    outer loop
      vertex 1.47558 23.4536 0
      vertex 3.29791 17.2883 0
      vertex 4.40346 23.0837 0
    endloop
  endfacet
  facet normal 0 0 1
    outer loop
      vertex 1.47558 23.4536 0
      vertex 1.10511 17.5653 0
      vertex 3.29791 17.2883 0
    endloop
  endfacet
  facet normal 0 0 1
    outer loop
      vertex 1.47558 23.4536 0
      vertex -1.10511 17.5653 0
      vertex 1.10511 17.5653 0
    endloop
  endfacet
  facet normal -0 0 1
    outer loop
      vertex -1.47558 23.4536 0
      vertex -1.10511 17.5653 0
      vertex 1.47558 23.4536 0
    endloop
  endfacet
  facet normal 0 0 1
    outer loop
      vertex -1.47558 23.4536 0
      vertex -3.29791 17.2883 0
      vertex -1.10511 17.5653 0
    endloop
  endfacet
  facet normal -0 0 1
    outer loop
      vertex -4.40346 23.0837 0
      vertex -3.29791 17.2883 0
      vertex -1.47558 23.4536 0
    endloop
  endfacet
  facet normal 0 0 1
    outer loop
      vertex -4.40346 23.0837 0
      vertex -5.4387 16.7386 0
      vertex -3.29791 17.2883 0
    endloop
  endfacet
  facet normal -0 0 1
    outer loop
      vertex -7.2619 22.3498 0
      vertex -5.4387 16.7386 0
      vertex -4.40346 23.0837 0
    endloop
  endfacet
  facet normal 0 0 1
    outer loop
      vertex -7.2619 22.3498 0
      vertex -7.49372 15.925 0
      vertex -5.4387 16.7386 0
    endloop
  endfacet
  facet normal -0 0 1
    outer loop
      vertex -10.0058 21.2634 0
      vertex -7.49372 15.925 0
      vertex -7.2619 22.3498 0
    endloop
  endfacet
  facet normal 0 0 1
    outer loop
      vertex -7.49372 15.925 0
      vertex -10.0058 21.2634 0
      vertex -9.43055 14.8602 0
    endloop
  endfacet
  facet normal -0 0 1
    outer loop
      vertex -12.5919 19.8417 0
      vertex -9.43055 14.8602 0
      vertex -10.0058 21.2634 0
    endloop
  endfacet
  facet normal 0 0 1
    outer loop
      vertex -9.43055 14.8602 0
      vertex -12.5919 19.8417 0
      vertex -11.2187 13.561 0
    endloop
  endfacet
  facet normal -0 0 1
    outer loop
      vertex -14.9795 18.1071 0
      vertex -11.2187 13.561 0
      vertex -12.5919 19.8417 0
    endloop
  endfacet
  facet normal 0 0 1
    outer loop
      vertex -11.2187 13.561 0
      vertex -14.9795 18.1071 0
      vertex -12.8298 12.048 0
    endloop
  endfacet
  facet normal -0 0 1
    outer loop
      vertex -17.1308 16.0869 0
      vertex -12.8298 12.048 0
      vertex -14.9795 18.1071 0
    endloop
  endfacet
  facet normal 0 0 1
    outer loop
      vertex -12.8298 12.048 0
      vertex -17.1308 16.0869 0
      vertex -14.2387 10.345 0
    endloop
  endfacet
  facet normal -0 0 1
    outer loop
      vertex -19.0119 13.813 0
      vertex -14.2387 10.345 0
      vertex -17.1308 16.0869 0
    endloop
  endfacet
  facet normal 0 0 1
    outer loop
      vertex -14.2387 10.345 0
      vertex -19.0119 13.813 0
      vertex -15.423 8.47886 0
    endloop
  endfacet
  facet normal -0 0 1
    outer loop
      vertex -20.5932 11.3212 0
      vertex -15.423 8.47886 0
      vertex -19.0119 13.813 0
    endloop
  endfacet
  facet normal 0 0 1
    outer loop
      vertex -15.423 8.47886 0
      vertex -20.5932 11.3212 0
      vertex -16.3641 6.47899 0
    endloop
  endfacet
  facet normal -0 0 1
    outer loop
      vertex -21.8497 8.65093 0
      vertex -16.3641 6.47899 0
      vertex -20.5932 11.3212 0
    endloop
  endfacet
  facet normal 0 0 1
    outer loop
      vertex -16.3641 6.47899 0
      vertex -21.8497 8.65093 0
      vertex -17.0471 4.37694 0
    endloop
  endfacet
  facet normal -0 0 1
    outer loop
      vertex 16.3641 -6.47899 0
      vertex 21.8497 -8.65093 0
      vertex 17.0471 -4.37694 0
    endloop
  endfacet
  facet normal 0 0 1
    outer loop
      vertex 21.8497 -8.65093 0
      vertex 16.3641 -6.47899 0
      vertex 20.5932 -11.3212 0
    endloop
  endfacet
  facet normal -0 0 1
    outer loop
      vertex 15.423 -8.47886 0
      vertex 20.5932 -11.3212 0
      vertex 16.3641 -6.47899 0
    endloop
  endfacet
  facet normal 0 0 1
    outer loop
      vertex 20.5932 -11.3212 0
      vertex 15.423 -8.47886 0
      vertex 19.0119 -13.813 0
    endloop
  endfacet
  facet normal -0 0 1
    outer loop
      vertex 14.2387 -10.345 0
      vertex 19.0119 -13.813 0
      vertex 15.423 -8.47886 0
    endloop
  endfacet
  facet normal 0 0 1
    outer loop
      vertex 19.0119 -13.813 0
      vertex 14.2387 -10.345 0
      vertex 17.1308 -16.0869 0
    endloop
  endfacet
  facet normal -0 0 1
    outer loop
      vertex 12.8298 -12.048 0
      vertex 17.1308 -16.0869 0
      vertex 14.2387 -10.345 0
    endloop
  endfacet
  facet normal 0 0 1
    outer loop
      vertex 17.1308 -16.0869 0
      vertex 12.8298 -12.048 0
      vertex 14.9795 -18.1071 0
    endloop
  endfacet
  facet normal -0 0 1
    outer loop
      vertex 11.2187 -13.561 0
      vertex 14.9795 -18.1071 0
      vertex 12.8298 -12.048 0
    endloop
  endfacet
  facet normal 0 0 1
    outer loop
      vertex 14.9795 -18.1071 0
      vertex 11.2187 -13.561 0
      vertex 12.5919 -19.8417 0
    endloop
  endfacet
  facet normal -0 0 1
    outer loop
      vertex 9.43055 -14.8602 0
      vertex 12.5919 -19.8417 0
      vertex 11.2187 -13.561 0
    endloop
  endfacet
  facet normal 0 0 1
    outer loop
      vertex 12.5919 -19.8417 0
      vertex 9.43055 -14.8602 0
      vertex 10.0058 -21.2634 0
    endloop
  endfacet
  facet normal -0 0 1
    outer loop
      vertex 7.49372 -15.925 0
      vertex 10.0058 -21.2634 0
      vertex 9.43055 -14.8602 0
    endloop
  endfacet
  facet normal 0 0 1
    outer loop
      vertex 7.49372 -15.925 0
      vertex 7.2619 -22.3498 0
      vertex 10.0058 -21.2634 0
    endloop
  endfacet
  facet normal -0 0 1
    outer loop
      vertex 5.4387 -16.7386 0
      vertex 7.2619 -22.3498 0
      vertex 7.49372 -15.925 0
    endloop
  endfacet
  facet normal 0 0 1
    outer loop
      vertex 5.4387 -16.7386 0
      vertex 4.40346 -23.0837 0
      vertex 7.2619 -22.3498 0
    endloop
  endfacet
  facet normal -0 0 1
    outer loop
      vertex 3.29791 -17.2883 0
      vertex 4.40346 -23.0837 0
      vertex 5.4387 -16.7386 0
    endloop
  endfacet
  facet normal 0 0 1
    outer loop
      vertex 3.29791 -17.2883 0
      vertex 1.47558 -23.4536 0
      vertex 4.40346 -23.0837 0
    endloop
  endfacet
  facet normal -0 0 1
    outer loop
      vertex 1.10511 -17.5653 0
      vertex 1.47558 -23.4536 0
      vertex 3.29791 -17.2883 0
    endloop
  endfacet
  facet normal -0 0 1
    outer loop
      vertex -1.10511 -17.5653 0
      vertex 1.47558 -23.4536 0
      vertex 1.10511 -17.5653 0
    endloop
  endfacet
  facet normal 0 0 1
    outer loop
      vertex -1.10511 -17.5653 0
      vertex -1.47558 -23.4536 0
      vertex 1.47558 -23.4536 0
    endloop
  endfacet
  facet normal 0 0 1
    outer loop
      vertex -3.29791 -17.2883 0
      vertex -1.47558 -23.4536 0
      vertex -1.10511 -17.5653 0
    endloop
  endfacet
  facet normal 0 0 1
    outer loop
      vertex -3.29791 -17.2883 0
      vertex -4.40346 -23.0837 0
      vertex -1.47558 -23.4536 0
    endloop
  endfacet
  facet normal 0 0 1
    outer loop
      vertex -5.4387 -16.7386 0
      vertex -4.40346 -23.0837 0
      vertex -3.29791 -17.2883 0
    endloop
  endfacet
  facet normal 0 0 1
    outer loop
      vertex -5.4387 -16.7386 0
      vertex -7.2619 -22.3498 0
      vertex -4.40346 -23.0837 0
    endloop
  endfacet
  facet normal 0 0 1
    outer loop
      vertex -7.49372 -15.925 0
      vertex -7.2619 -22.3498 0
      vertex -5.4387 -16.7386 0
    endloop
  endfacet
  facet normal 0 0 1
    outer loop
      vertex -10.0058 -21.2634 0
      vertex -7.49372 -15.925 0
      vertex -9.43055 -14.8602 0
    endloop
  endfacet
  facet normal 0 0 1
    outer loop
      vertex -7.49372 -15.925 0
      vertex -10.0058 -21.2634 0
      vertex -7.2619 -22.3498 0
    endloop
  endfacet
  facet normal 0 0 1
    outer loop
      vertex -12.5919 -19.8417 0
      vertex -9.43055 -14.8602 0
      vertex -11.2187 -13.561 0
    endloop
  endfacet
  facet normal 0 0 1
    outer loop
      vertex -9.43055 -14.8602 0
      vertex -12.5919 -19.8417 0
      vertex -10.0058 -21.2634 0
    endloop
  endfacet
  facet normal 0 0 1
    outer loop
      vertex -14.9795 -18.1071 0
      vertex -11.2187 -13.561 0
      vertex -12.8298 -12.048 0
    endloop
  endfacet
  facet normal 0 0 1
    outer loop
      vertex -17.1308 -16.0869 0
      vertex -12.8298 -12.048 0
      vertex -14.2387 -10.345 0
    endloop
  endfacet
  facet normal 0 0 1
    outer loop
      vertex -11.2187 -13.561 0
      vertex -14.9795 -18.1071 0
      vertex -12.5919 -19.8417 0
    endloop
  endfacet
  facet normal 0 0 1
    outer loop
      vertex -19.0119 -13.813 0
      vertex -14.2387 -10.345 0
      vertex -15.423 -8.47886 0
    endloop
  endfacet
  facet normal 0 0 1
    outer loop
      vertex -20.5932 -11.3212 0
      vertex -15.423 -8.47886 0
      vertex -16.3641 -6.47899 0
    endloop
  endfacet
  facet normal 0 0 1
    outer loop
      vertex -21.8497 -8.65093 0
      vertex -16.3641 -6.47899 0
      vertex -17.0471 -4.37694 0
    endloop
  endfacet
  facet normal 0 0 1
    outer loop
      vertex -12.8298 -12.048 0
      vertex -17.1308 -16.0869 0
      vertex -14.9795 -18.1071 0
    endloop
  endfacet
  facet normal 0 0 1
    outer loop
      vertex -22.7617 -5.84421 0
      vertex -17.0471 -4.37694 0
      vertex -17.4612 -2.20586 0
    endloop
  endfacet
  facet normal 0 0 1
    outer loop
      vertex -23.3147 -2.94533 0
      vertex -17.4612 -2.20586 0
      vertex -17.6 0 0
    endloop
  endfacet
  facet normal -0 0 1
    outer loop
      vertex -22.7617 5.84421 0
      vertex -17.0471 4.37694 0
      vertex -21.8497 8.65093 0
    endloop
  endfacet
  facet normal 0 0 1
    outer loop
      vertex -14.2387 -10.345 0
      vertex -19.0119 -13.813 0
      vertex -17.1308 -16.0869 0
    endloop
  endfacet
  facet normal 0 0 1
    outer loop
      vertex -17.0471 4.37694 0
      vertex -22.7617 5.84421 0
      vertex -17.4612 2.20586 0
    endloop
  endfacet
  facet normal 0 0 1
    outer loop
      vertex -15.423 -8.47886 0
      vertex -20.5932 -11.3212 0
      vertex -19.0119 -13.813 0
    endloop
  endfacet
  facet normal -0 0 1
    outer loop
      vertex -23.3147 2.94533 0
      vertex -17.4612 2.20586 0
      vertex -22.7617 5.84421 0
    endloop
  endfacet
  facet normal 0 0 1
    outer loop
      vertex -16.3641 -6.47899 0
      vertex -21.8497 -8.65093 0
      vertex -20.5932 -11.3212 0
    endloop
  endfacet
  facet normal 0 0 1
    outer loop
      vertex -17.4612 2.20586 0
      vertex -23.3147 2.94533 0
      vertex -17.6 0 0
    endloop
  endfacet
  facet normal 0 0 1
    outer loop
      vertex -17.0471 -4.37694 0
      vertex -22.7617 -5.84421 0
      vertex -21.8497 -8.65093 0
    endloop
  endfacet
  facet normal 0 0 1
    outer loop
      vertex -23.5 0 0
      vertex -17.6 0 0
      vertex -23.3147 2.94533 0
    endloop
  endfacet
  facet normal 0 0 1
    outer loop
      vertex -17.4612 -2.20586 0
      vertex -23.3147 -2.94533 0
      vertex -22.7617 -5.84421 0
    endloop
  endfacet
  facet normal 0 0 1
    outer loop
      vertex -17.6 0 0
      vertex -23.5 0 0
      vertex -23.3147 -2.94533 0
    endloop
  endfacet
  facet normal -0.248683 0.968585 0
    outer loop
      vertex -4.40346 23.0837 -7
      vertex -7.2619 22.3498 0
      vertex -4.40346 23.0837 0
    endloop
  endfacet
  facet normal -0.248683 0.968585 0
    outer loop
      vertex -7.2619 22.3498 0
      vertex -4.40346 23.0837 -7
      vertex -7.2619 22.3498 -7
    endloop
  endfacet
  facet normal 0.904831 -0.42577 0
    outer loop
      vertex 20.5932 -11.3212 0
      vertex 21.8497 -8.65093 -7
      vertex 21.8497 -8.65093 0
    endloop
  endfacet
  facet normal 0.904831 -0.42577 0
    outer loop
      vertex 21.8497 -8.65093 -7
      vertex 20.5932 -11.3212 0
      vertex 20.5932 -11.3212 -7
    endloop
  endfacet
  facet normal 0 0 -1
    outer loop
      vertex 23.3147 -2.94533 -7
      vertex 23.3147 2.94533 -7
      vertex 23.5 0 -7
    endloop
  endfacet
  facet normal 0 0 -1
    outer loop
      vertex 22.7617 -5.84421 -7
      vertex 23.3147 2.94533 -7
      vertex 23.3147 -2.94533 -7
    endloop
  endfacet
  facet normal 0 0 -1
    outer loop
      vertex 22.7617 -5.84421 -7
      vertex 22.7617 5.84421 -7
      vertex 23.3147 2.94533 -7
    endloop
  endfacet
  facet normal 0 0 -1
    outer loop
      vertex 21.8497 -8.65093 -7
      vertex 22.7617 5.84421 -7
      vertex 22.7617 -5.84421 -7
    endloop
  endfacet
  facet normal 0 0 -1
    outer loop
      vertex 21.8497 -8.65093 -7
      vertex 21.8497 8.65093 -7
      vertex 22.7617 5.84421 -7
    endloop
  endfacet
  facet normal 0 0 -1
    outer loop
      vertex 20.5932 -11.3212 -7
      vertex 21.8497 8.65093 -7
      vertex 21.8497 -8.65093 -7
    endloop
  endfacet
  facet normal 0 0 -1
    outer loop
      vertex 20.5932 -11.3212 -7
      vertex 20.5932 11.3212 -7
      vertex 21.8497 8.65093 -7
    endloop
  endfacet
  facet normal 0 0 -1
    outer loop
      vertex 19.0119 -13.813 -7
      vertex 20.5932 11.3212 -7
      vertex 20.5932 -11.3212 -7
    endloop
  endfacet
  facet normal 0 0 -1
    outer loop
      vertex 19.0119 -13.813 -7
      vertex 19.0119 13.813 -7
      vertex 20.5932 11.3212 -7
    endloop
  endfacet
  facet normal 0 0 -1
    outer loop
      vertex 17.1308 -16.0869 -7
      vertex 19.0119 13.813 -7
      vertex 19.0119 -13.813 -7
    endloop
  endfacet
  facet normal 0 0 -1
    outer loop
      vertex 17.1308 -16.0869 -7
      vertex 17.1308 16.0869 -7
      vertex 19.0119 13.813 -7
    endloop
  endfacet
  facet normal 0 0 -1
    outer loop
      vertex 14.9795 -18.1071 -7
      vertex 17.1308 16.0869 -7
      vertex 17.1308 -16.0869 -7
    endloop
  endfacet
  facet normal 0 0 -1
    outer loop
      vertex 14.9795 -18.1071 -7
      vertex 14.9795 18.1071 -7
      vertex 17.1308 16.0869 -7
    endloop
  endfacet
  facet normal 0 0 -1
    outer loop
      vertex 12.5919 -19.8417 -7
      vertex 14.9795 18.1071 -7
      vertex 14.9795 -18.1071 -7
    endloop
  endfacet
  facet normal 0 0 -1
    outer loop
      vertex 12.5919 -19.8417 -7
      vertex 12.5919 19.8417 -7
      vertex 14.9795 18.1071 -7
    endloop
  endfacet
  facet normal 0 0 -1
    outer loop
      vertex 10.0058 -21.2634 -7
      vertex 12.5919 19.8417 -7
      vertex 12.5919 -19.8417 -7
    endloop
  endfacet
  facet normal 0 0 -1
    outer loop
      vertex 10.0058 -21.2634 -7
      vertex 10.0058 21.2634 -7
      vertex 12.5919 19.8417 -7
    endloop
  endfacet
  facet normal 0 0 -1
    outer loop
      vertex 7.2619 -22.3498 -7
      vertex 10.0058 21.2634 -7
      vertex 10.0058 -21.2634 -7
    endloop
  endfacet
  facet normal 0 0 -1
    outer loop
      vertex 7.2619 -22.3498 -7
      vertex 7.2619 22.3498 -7
      vertex 10.0058 21.2634 -7
    endloop
  endfacet
  facet normal 0 0 -1
    outer loop
      vertex 4.40346 -23.0837 -7
      vertex 7.2619 22.3498 -7
      vertex 7.2619 -22.3498 -7
    endloop
  endfacet
  facet normal 0 0 -1
    outer loop
      vertex 4.40346 -23.0837 -7
      vertex 4.40346 23.0837 -7
      vertex 7.2619 22.3498 -7
    endloop
  endfacet
  facet normal 0 0 -1
    outer loop
      vertex 1.47558 -23.4536 -7
      vertex 4.40346 23.0837 -7
      vertex 4.40346 -23.0837 -7
    endloop
  endfacet
  facet normal 0 0 -1
    outer loop
      vertex 1.47558 -23.4536 -7
      vertex 1.47558 23.4536 -7
      vertex 4.40346 23.0837 -7
    endloop
  endfacet
  facet normal 0 0 -1
    outer loop
      vertex -1.47558 -23.4536 -7
      vertex 1.47558 23.4536 -7
      vertex 1.47558 -23.4536 -7
    endloop
  endfacet
  facet normal 0 0 -1
    outer loop
      vertex -1.47558 -23.4536 -7
      vertex -1.47558 23.4536 -7
      vertex 1.47558 23.4536 -7
    endloop
  endfacet
  facet normal 0 0 -1
    outer loop
      vertex -4.40346 -23.0837 -7
      vertex -1.47558 23.4536 -7
      vertex -1.47558 -23.4536 -7
    endloop
  endfacet
  facet normal 0 0 -1
    outer loop
      vertex -4.40346 -23.0837 -7
      vertex -4.40346 23.0837 -7
      vertex -1.47558 23.4536 -7
    endloop
  endfacet
  facet normal 0 0 -1
    outer loop
      vertex -7.2619 -22.3498 -7
      vertex -4.40346 23.0837 -7
      vertex -4.40346 -23.0837 -7
    endloop
  endfacet
  facet normal 0 0 -1
    outer loop
      vertex -7.2619 -22.3498 -7
      vertex -7.2619 22.3498 -7
      vertex -4.40346 23.0837 -7
    endloop
  endfacet
  facet normal 0 0 -1
    outer loop
      vertex -10.0058 -21.2634 -7
      vertex -7.2619 22.3498 -7
      vertex -7.2619 -22.3498 -7
    endloop
  endfacet
  facet normal 0 0 -1
    outer loop
      vertex -10.0058 -21.2634 -7
      vertex -10.0058 21.2634 -7
      vertex -7.2619 22.3498 -7
    endloop
  endfacet
  facet normal 0 0 -1
    outer loop
      vertex -12.5919 -19.8417 -7
      vertex -10.0058 21.2634 -7
      vertex -10.0058 -21.2634 -7
    endloop
  endfacet
  facet normal 0 0 -1
    outer loop
      vertex -12.5919 -19.8417 -7
      vertex -12.5919 19.8417 -7
      vertex -10.0058 21.2634 -7
    endloop
  endfacet
  facet normal 0 0 -1
    outer loop
      vertex -14.9795 -18.1071 -7
      vertex -12.5919 19.8417 -7
      vertex -12.5919 -19.8417 -7
    endloop
  endfacet
  facet normal 0 0 -1
    outer loop
      vertex -14.9795 -18.1071 -7
      vertex -14.9795 18.1071 -7
      vertex -12.5919 19.8417 -7
    endloop
  endfacet
  facet normal 0 0 -1
    outer loop
      vertex -17.1308 -16.0869 -7
      vertex -14.9795 18.1071 -7
      vertex -14.9795 -18.1071 -7
    endloop
  endfacet
  facet normal 0 0 -1
    outer loop
      vertex -17.1308 -16.0869 -7
      vertex -17.1308 16.0869 -7
      vertex -14.9795 18.1071 -7
    endloop
  endfacet
  facet normal 0 0 -1
    outer loop
      vertex -19.0119 -13.813 -7
      vertex -17.1308 16.0869 -7
      vertex -17.1308 -16.0869 -7
    endloop
  endfacet
  facet normal 0 0 -1
    outer loop
      vertex -19.0119 -13.813 -7
      vertex -19.0119 13.813 -7
      vertex -17.1308 16.0869 -7
    endloop
  endfacet
  facet normal 0 0 -1
    outer loop
      vertex -20.5932 -11.3212 -7
      vertex -19.0119 13.813 -7
      vertex -19.0119 -13.813 -7
    endloop
  endfacet
  facet normal 0 0 -1
    outer loop
      vertex -20.5932 -11.3212 -7
      vertex -20.5932 11.3212 -7
      vertex -19.0119 13.813 -7
    endloop
  endfacet
  facet normal 0 0 -1
    outer loop
      vertex -21.8497 -8.65093 -7
      vertex -20.5932 11.3212 -7
      vertex -20.5932 -11.3212 -7
    endloop
  endfacet
  facet normal 0 0 -1
    outer loop
      vertex -21.8497 -8.65093 -7
      vertex -21.8497 8.65093 -7
      vertex -20.5932 11.3212 -7
    endloop
  endfacet
  facet normal 0 0 -1
    outer loop
      vertex -22.7617 -5.84421 -7
      vertex -21.8497 8.65093 -7
      vertex -21.8497 -8.65093 -7
    endloop
  endfacet
  facet normal 0 0 -1
    outer loop
      vertex -22.7617 -5.84421 -7
      vertex -22.7617 5.84421 -7
      vertex -21.8497 8.65093 -7
    endloop
  endfacet
  facet normal 0 0 -1
    outer loop
      vertex -23.3147 -2.94533 -7
      vertex -22.7617 5.84421 -7
      vertex -22.7617 -5.84421 -7
    endloop
  endfacet
  facet normal 0 0 -1
    outer loop
      vertex -23.3147 -2.94533 -7
      vertex -23.3147 2.94533 -7
      vertex -22.7617 5.84421 -7
    endloop
  endfacet
  facet normal 0 -0 -1
    outer loop
      vertex -23.3147 2.94533 -7
      vertex -23.3147 -2.94533 -7
      vertex -23.5 0 -7
    endloop
  endfacet
  facet normal 0.951052 0.30903 0
    outer loop
      vertex 22.7617 5.84421 0
      vertex 21.8497 8.65093 -7
      vertex 21.8497 8.65093 0
    endloop
  endfacet
  facet normal 0.951052 0.30903 0
    outer loop
      vertex 21.8497 8.65093 -7
      vertex 22.7617 5.84421 0
      vertex 22.7617 5.84421 -7
    endloop
  endfacet
  facet normal 0.982287 0.187384 0
    outer loop
      vertex 23.3147 2.94533 0
      vertex 22.7617 5.84421 -7
      vertex 22.7617 5.84421 0
    endloop
  endfacet
  facet normal 0.982287 0.187384 0
    outer loop
      vertex 22.7617 5.84421 -7
      vertex 23.3147 2.94533 0
      vertex 23.3147 2.94533 -7
    endloop
  endfacet
  facet normal 0.770519 0.637417 0
    outer loop
      vertex 19.0119 13.813 0
      vertex 17.1308 16.0869 -7
      vertex 17.1308 16.0869 0
    endloop
  endfacet
  facet normal 0.770519 0.637417 0
    outer loop
      vertex 17.1308 16.0869 -7
      vertex 19.0119 13.813 0
      vertex 19.0119 13.813 -7
    endloop
  endfacet
  facet normal 0.248683 0.968585 -0
    outer loop
      vertex 7.2619 22.3498 -7
      vertex 4.40346 23.0837 0
      vertex 7.2619 22.3498 0
    endloop
  endfacet
  facet normal 0.248683 0.968585 0
    outer loop
      vertex 4.40346 23.0837 0
      vertex 7.2619 22.3498 -7
      vertex 4.40346 23.0837 -7
    endloop
  endfacet
  facet normal 0.125341 0.992114 -0
    outer loop
      vertex 4.40346 23.0837 -7
      vertex 1.47558 23.4536 0
      vertex 4.40346 23.0837 0
    endloop
  endfacet
  facet normal 0.125341 0.992114 0
    outer loop
      vertex 1.47558 23.4536 0
      vertex 4.40346 23.0837 -7
      vertex 1.47558 23.4536 -7
    endloop
  endfacet
  facet normal 0.587765 0.809032 -0
    outer loop
      vertex 14.9795 18.1071 -7
      vertex 12.5919 19.8417 0
      vertex 14.9795 18.1071 0
    endloop
  endfacet
  facet normal 0.587765 0.809032 0
    outer loop
      vertex 12.5919 19.8417 0
      vertex 14.9795 18.1071 -7
      vertex 12.5919 19.8417 -7
    endloop
  endfacet
  facet normal -0.844335 0.535816 0
    outer loop
      vertex -20.5932 11.3212 -7
      vertex -19.0119 13.813 0
      vertex -19.0119 13.813 -7
    endloop
  endfacet
  facet normal -0.844335 0.535816 0
    outer loop
      vertex -19.0119 13.813 0
      vertex -20.5932 11.3212 -7
      vertex -20.5932 11.3212 0
    endloop
  endfacet
  facet normal -0.951052 0.30903 0
    outer loop
      vertex -22.7617 5.84421 -7
      vertex -21.8497 8.65093 0
      vertex -21.8497 8.65093 -7
    endloop
  endfacet
  facet normal -0.951052 0.30903 0
    outer loop
      vertex -21.8497 8.65093 0
      vertex -22.7617 5.84421 -7
      vertex -22.7617 5.84421 0
    endloop
  endfacet
  facet normal -0.982287 0.187384 0
    outer loop
      vertex -23.3147 2.94533 -7
      vertex -22.7617 5.84421 0
      vertex -22.7617 5.84421 -7
    endloop
  endfacet
  facet normal -0.982287 0.187384 0
    outer loop
      vertex -22.7617 5.84421 0
      vertex -23.3147 2.94533 -7
      vertex -23.3147 2.94533 0
    endloop
  endfacet
  facet normal -0.481748 0.87631 0
    outer loop
      vertex -10.0058 21.2634 -7
      vertex -12.5919 19.8417 0
      vertex -10.0058 21.2634 0
    endloop
  endfacet
  facet normal -0.481748 0.87631 0
    outer loop
      vertex -12.5919 19.8417 0
      vertex -10.0058 21.2634 -7
      vertex -12.5919 19.8417 -7
    endloop
  endfacet
  facet normal -0.587765 0.809032 0
    outer loop
      vertex -12.5919 19.8417 -7
      vertex -14.9795 18.1071 0
      vertex -12.5919 19.8417 0
    endloop
  endfacet
  facet normal -0.587765 0.809032 0
    outer loop
      vertex -14.9795 18.1071 0
      vertex -12.5919 19.8417 -7
      vertex -14.9795 18.1071 -7
    endloop
  endfacet
  facet normal -0.125341 0.992114 0
    outer loop
      vertex -1.47558 23.4536 -7
      vertex -4.40346 23.0837 0
      vertex -1.47558 23.4536 0
    endloop
  endfacet
  facet normal -0.125341 0.992114 0
    outer loop
      vertex -4.40346 23.0837 0
      vertex -1.47558 23.4536 -7
      vertex -4.40346 23.0837 -7
    endloop
  endfacet
  facet normal 0.998027 -0.062789 0
    outer loop
      vertex 23.3147 -2.94533 0
      vertex 23.5 0 -7
      vertex 23.5 0 0
    endloop
  endfacet
  facet normal 0.998027 -0.062789 0
    outer loop
      vertex 23.5 0 -7
      vertex 23.3147 -2.94533 0
      vertex 23.3147 -2.94533 -7
    endloop
  endfacet
  facet normal 0.770519 -0.637417 0
    outer loop
      vertex 17.1308 -16.0869 0
      vertex 19.0119 -13.813 -7
      vertex 19.0119 -13.813 0
    endloop
  endfacet
  facet normal 0.770519 -0.637417 0
    outer loop
      vertex 19.0119 -13.813 -7
      vertex 17.1308 -16.0869 0
      vertex 17.1308 -16.0869 -7
    endloop
  endfacet
  facet normal -0.904831 -0.42577 0
    outer loop
      vertex -20.5932 -11.3212 -7
      vertex -21.8497 -8.65093 0
      vertex -21.8497 -8.65093 -7
    endloop
  endfacet
  facet normal -0.904831 -0.42577 0
    outer loop
      vertex -21.8497 -8.65093 0
      vertex -20.5932 -11.3212 -7
      vertex -20.5932 -11.3212 0
    endloop
  endfacet
  facet normal -0.770519 -0.637417 0
    outer loop
      vertex -17.1308 -16.0869 -7
      vertex -19.0119 -13.813 0
      vertex -19.0119 -13.813 -7
    endloop
  endfacet
  facet normal -0.770519 -0.637417 0
    outer loop
      vertex -19.0119 -13.813 0
      vertex -17.1308 -16.0869 -7
      vertex -17.1308 -16.0869 0
    endloop
  endfacet
  facet normal 0.481748 -0.87631 0
    outer loop
      vertex 10.0058 -21.2634 -7
      vertex 12.5919 -19.8417 0
      vertex 10.0058 -21.2634 0
    endloop
  endfacet
  facet normal 0.481748 -0.87631 0
    outer loop
      vertex 12.5919 -19.8417 0
      vertex 10.0058 -21.2634 -7
      vertex 12.5919 -19.8417 -7
    endloop
  endfacet
  facet normal 0.844335 -0.535816 0
    outer loop
      vertex 19.0119 -13.813 0
      vertex 20.5932 -11.3212 -7
      vertex 20.5932 -11.3212 0
    endloop
  endfacet
  facet normal 0.844335 -0.535816 0
    outer loop
      vertex 20.5932 -11.3212 -7
      vertex 19.0119 -13.813 0
      vertex 19.0119 -13.813 -7
    endloop
  endfacet
  facet normal 0.982287 -0.187384 0
    outer loop
      vertex 22.7617 -5.84421 0
      vertex 23.3147 -2.94533 -7
      vertex 23.3147 -2.94533 0
    endloop
  endfacet
  facet normal 0.982287 -0.187384 0
    outer loop
      vertex 23.3147 -2.94533 -7
      vertex 22.7617 -5.84421 0
      vertex 22.7617 -5.84421 -7
    endloop
  endfacet
  facet normal 0.951052 -0.30903 0
    outer loop
      vertex 21.8497 -8.65093 0
      vertex 22.7617 -5.84421 -7
      vertex 22.7617 -5.84421 0
    endloop
  endfacet
  facet normal 0.951052 -0.30903 0
    outer loop
      vertex 22.7617 -5.84421 -7
      vertex 21.8497 -8.65093 0
      vertex 21.8497 -8.65093 -7
    endloop
  endfacet
  facet normal -0.982287 -0.187384 0
    outer loop
      vertex -22.7617 -5.84421 -7
      vertex -23.3147 -2.94533 0
      vertex -23.3147 -2.94533 -7
    endloop
  endfacet
  facet normal -0.982287 -0.187384 0
    outer loop
      vertex -23.3147 -2.94533 0
      vertex -22.7617 -5.84421 -7
      vertex -22.7617 -5.84421 0
    endloop
  endfacet
  facet normal -0.998027 -0.062789 0
    outer loop
      vertex -23.3147 -2.94533 -7
      vertex -23.5 0 0
      vertex -23.5 0 -7
    endloop
  endfacet
  facet normal -0.998027 -0.062789 0
    outer loop
      vertex -23.5 0 0
      vertex -23.3147 -2.94533 -7
      vertex -23.3147 -2.94533 0
    endloop
  endfacet
  facet normal -0.951052 -0.30903 0
    outer loop
      vertex -21.8497 -8.65093 -7
      vertex -22.7617 -5.84421 0
      vertex -22.7617 -5.84421 -7
    endloop
  endfacet
  facet normal -0.951052 -0.30903 0
    outer loop
      vertex -22.7617 -5.84421 0
      vertex -21.8497 -8.65093 -7
      vertex -21.8497 -8.65093 0
    endloop
  endfacet
  facet normal 0.684546 -0.72897 0
    outer loop
      vertex 14.9795 -18.1071 -7
      vertex 17.1308 -16.0869 0
      vertex 14.9795 -18.1071 0
    endloop
  endfacet
  facet normal 0.684546 -0.72897 0
    outer loop
      vertex 17.1308 -16.0869 0
      vertex 14.9795 -18.1071 -7
      vertex 17.1308 -16.0869 -7
    endloop
  endfacet
  facet normal 0.368128 -0.929775 0
    outer loop
      vertex 7.2619 -22.3498 -7
      vertex 10.0058 -21.2634 0
      vertex 7.2619 -22.3498 0
    endloop
  endfacet
  facet normal 0.368128 -0.929775 0
    outer loop
      vertex 10.0058 -21.2634 0
      vertex 7.2619 -22.3498 -7
      vertex 10.0058 -21.2634 -7
    endloop
  endfacet
  facet normal 0.248683 -0.968585 0
    outer loop
      vertex 4.40346 -23.0837 -7
      vertex 7.2619 -22.3498 0
      vertex 4.40346 -23.0837 0
    endloop
  endfacet
  facet normal 0.248683 -0.968585 0
    outer loop
      vertex 7.2619 -22.3498 0
      vertex 4.40346 -23.0837 -7
      vertex 7.2619 -22.3498 -7
    endloop
  endfacet
  facet normal 0.125341 -0.992114 0
    outer loop
      vertex 1.47558 -23.4536 -7
      vertex 4.40346 -23.0837 0
      vertex 1.47558 -23.4536 0
    endloop
  endfacet
  facet normal 0.125341 -0.992114 0
    outer loop
      vertex 4.40346 -23.0837 0
      vertex 1.47558 -23.4536 -7
      vertex 4.40346 -23.0837 -7
    endloop
  endfacet
  facet normal -0.125341 -0.992114 0
    outer loop
      vertex -4.40346 -23.0837 -7
      vertex -1.47558 -23.4536 0
      vertex -4.40346 -23.0837 0
    endloop
  endfacet
  facet normal -0.125341 -0.992114 -0
    outer loop
      vertex -1.47558 -23.4536 0
      vertex -4.40346 -23.0837 -7
      vertex -1.47558 -23.4536 -7
    endloop
  endfacet
  facet normal -0.368128 -0.929775 0
    outer loop
      vertex -10.0058 -21.2634 -7
      vertex -7.2619 -22.3498 0
      vertex -10.0058 -21.2634 0
    endloop
  endfacet
  facet normal -0.368128 -0.929775 -0
    outer loop
      vertex -7.2619 -22.3498 0
      vertex -10.0058 -21.2634 -7
      vertex -7.2619 -22.3498 -7
    endloop
  endfacet
  facet normal -0.248683 -0.968585 0
    outer loop
      vertex -7.2619 -22.3498 -7
      vertex -4.40346 -23.0837 0
      vertex -7.2619 -22.3498 0
    endloop
  endfacet
  facet normal -0.248683 -0.968585 -0
    outer loop
      vertex -4.40346 -23.0837 0
      vertex -7.2619 -22.3498 -7
      vertex -4.40346 -23.0837 -7
    endloop
  endfacet
  facet normal -0.844335 -0.535816 0
    outer loop
      vertex -19.0119 -13.813 -7
      vertex -20.5932 -11.3212 0
      vertex -20.5932 -11.3212 -7
    endloop
  endfacet
  facet normal -0.844335 -0.535816 0
    outer loop
      vertex -20.5932 -11.3212 0
      vertex -19.0119 -13.813 -7
      vertex -19.0119 -13.813 0
    endloop
  endfacet
  facet normal 0.587765 -0.809032 0
    outer loop
      vertex 12.5919 -19.8417 -7
      vertex 14.9795 -18.1071 0
      vertex 12.5919 -19.8417 0
    endloop
  endfacet
  facet normal 0.587765 -0.809032 0
    outer loop
      vertex 14.9795 -18.1071 0
      vertex 12.5919 -19.8417 -7
      vertex 14.9795 -18.1071 -7
    endloop
  endfacet
  facet normal -0.481748 -0.87631 0
    outer loop
      vertex -12.5919 -19.8417 -7
      vertex -10.0058 -21.2634 0
      vertex -12.5919 -19.8417 0
    endloop
  endfacet
  facet normal -0.481748 -0.87631 -0
    outer loop
      vertex -10.0058 -21.2634 0
      vertex -12.5919 -19.8417 -7
      vertex -10.0058 -21.2634 -7
    endloop
  endfacet
  facet normal -0.587765 -0.809032 0
    outer loop
      vertex -14.9795 -18.1071 -7
      vertex -12.5919 -19.8417 0
      vertex -14.9795 -18.1071 0
    endloop
  endfacet
  facet normal -0.587765 -0.809032 -0
    outer loop
      vertex -12.5919 -19.8417 0
      vertex -14.9795 -18.1071 -7
      vertex -12.5919 -19.8417 -7
    endloop
  endfacet
  facet normal -0.684546 -0.72897 0
    outer loop
      vertex -17.1308 -16.0869 -7
      vertex -14.9795 -18.1071 0
      vertex -17.1308 -16.0869 0
    endloop
  endfacet
  facet normal -0.684546 -0.72897 -0
    outer loop
      vertex -14.9795 -18.1071 0
      vertex -17.1308 -16.0869 -7
      vertex -14.9795 -18.1071 -7
    endloop
  endfacet
  facet normal -0.904821 -0.425791 0
    outer loop
      vertex 16.3641 6.47899 -6
      vertex 15.423 8.47886 0
      vertex 15.423 8.47886 -6
    endloop
  endfacet
  facet normal -0.904821 -0.425791 0
    outer loop
      vertex 15.423 8.47886 0
      vertex 16.3641 6.47899 -6
      vertex 16.3641 6.47899 0
    endloop
  endfacet
  facet normal -0.844326 -0.535831 0
    outer loop
      vertex 15.423 8.47886 -6
      vertex 14.2387 10.345 0
      vertex 14.2387 10.345 -6
    endloop
  endfacet
  facet normal -0.844326 -0.535831 0
    outer loop
      vertex 14.2387 10.345 0
      vertex 15.423 8.47886 -6
      vertex 15.423 8.47886 0
    endloop
  endfacet
  facet normal -0.368109 -0.929783 0
    outer loop
      vertex 5.4387 16.7386 -6
      vertex 7.49372 15.925 0
      vertex 5.4387 16.7386 0
    endloop
  endfacet
  facet normal -0.368109 -0.929783 -0
    outer loop
      vertex 7.49372 15.925 0
      vertex 5.4387 16.7386 -6
      vertex 7.49372 15.925 -6
    endloop
  endfacet
  facet normal 0.368109 -0.929783 0
    outer loop
      vertex -7.49372 15.925 -6
      vertex -5.4387 16.7386 0
      vertex -7.49372 15.925 0
    endloop
  endfacet
  facet normal 0.368109 -0.929783 0
    outer loop
      vertex -5.4387 16.7386 0
      vertex -7.49372 15.925 -6
      vertex -5.4387 16.7386 -6
    endloop
  endfacet
  facet normal 0.904821 -0.425791 0
    outer loop
      vertex -16.3641 6.47899 0
      vertex -15.423 8.47886 -6
      vertex -15.423 8.47886 0
    endloop
  endfacet
  facet normal 0.904821 -0.425791 0
    outer loop
      vertex -15.423 8.47886 -6
      vertex -16.3641 6.47899 0
      vertex -16.3641 6.47899 -6
    endloop
  endfacet
  facet normal -0.48176 0.876303 0
    outer loop
      vertex 9.43055 -14.8602 -6
      vertex 7.49372 -15.925 0
      vertex 9.43055 -14.8602 0
    endloop
  endfacet
  facet normal -0.48176 0.876303 0
    outer loop
      vertex 7.49372 -15.925 0
      vertex 9.43055 -14.8602 -6
      vertex 7.49372 -15.925 -6
    endloop
  endfacet
  facet normal 0 -1 0
    outer loop
      vertex -1.10511 17.5653 -6
      vertex 1.10511 17.5653 0
      vertex -1.10511 17.5653 0
    endloop
  endfacet
  facet normal 0 -1 -0
    outer loop
      vertex 1.10511 17.5653 0
      vertex -1.10511 17.5653 -6
      vertex 1.10511 17.5653 -6
    endloop
  endfacet
  facet normal -0.587795 -0.80901 0
    outer loop
      vertex 9.43055 14.8602 -6
      vertex 11.2187 13.561 0
      vertex 9.43055 14.8602 0
    endloop
  endfacet
  facet normal -0.587795 -0.80901 -0
    outer loop
      vertex 11.2187 13.561 0
      vertex 9.43055 14.8602 -6
      vertex 11.2187 13.561 -6
    endloop
  endfacet
  facet normal 0.998026 -0.0627991 0
    outer loop
      vertex -17.6 0 0
      vertex -17.4612 2.20586 -6
      vertex -17.4612 2.20586 0
    endloop
  endfacet
  facet normal 0.998026 -0.0627991 0
    outer loop
      vertex -17.4612 2.20586 -6
      vertex -17.6 0 0
      vertex -17.6 0 -6
    endloop
  endfacet
  facet normal 0.982292 -0.187357 0
    outer loop
      vertex -17.4612 2.20586 0
      vertex -17.0471 4.37694 -6
      vertex -17.0471 4.37694 0
    endloop
  endfacet
  facet normal 0.982292 -0.187357 0
    outer loop
      vertex -17.0471 4.37694 -6
      vertex -17.4612 2.20586 0
      vertex -17.4612 2.20586 -6
    endloop
  endfacet
  facet normal 0.770501 -0.637439 0
    outer loop
      vertex -14.2387 10.345 0
      vertex -12.8298 12.048 -6
      vertex -12.8298 12.048 0
    endloop
  endfacet
  facet normal 0.770501 -0.637439 0
    outer loop
      vertex -12.8298 12.048 -6
      vertex -14.2387 10.345 0
      vertex -14.2387 10.345 -6
    endloop
  endfacet
  facet normal 0.48176 -0.876303 0
    outer loop
      vertex -9.43055 14.8602 -6
      vertex -7.49372 15.925 0
      vertex -9.43055 14.8602 0
    endloop
  endfacet
  facet normal 0.48176 -0.876303 0
    outer loop
      vertex -7.49372 15.925 0
      vertex -9.43055 14.8602 -6
      vertex -7.49372 15.925 -6
    endloop
  endfacet
  facet normal 0.587795 -0.80901 0
    outer loop
      vertex -11.2187 13.561 -6
      vertex -9.43055 14.8602 0
      vertex -11.2187 13.561 0
    endloop
  endfacet
  facet normal 0.587795 -0.80901 0
    outer loop
      vertex -9.43055 14.8602 0
      vertex -11.2187 13.561 -6
      vertex -9.43055 14.8602 -6
    endloop
  endfacet
  facet normal -0.998026 -0.0627991 0
    outer loop
      vertex 17.6 0 -6
      vertex 17.4612 2.20586 0
      vertex 17.4612 2.20586 -6
    endloop
  endfacet
  facet normal -0.998026 -0.0627991 0
    outer loop
      vertex 17.4612 2.20586 0
      vertex 17.6 0 -6
      vertex 17.6 0 0
    endloop
  endfacet
  facet normal -0.684565 0.728951 0
    outer loop
      vertex 12.8298 -12.048 -6
      vertex 11.2187 -13.561 0
      vertex 12.8298 -12.048 0
    endloop
  endfacet
  facet normal -0.684565 0.728951 0
    outer loop
      vertex 11.2187 -13.561 0
      vertex 12.8298 -12.048 -6
      vertex 11.2187 -13.561 -6
    endloop
  endfacet
  facet normal -0.951056 0.309018 0
    outer loop
      vertex 16.3641 -6.47899 -6
      vertex 17.0471 -4.37694 0
      vertex 17.0471 -4.37694 -6
    endloop
  endfacet
  facet normal -0.951056 0.309018 0
    outer loop
      vertex 17.0471 -4.37694 0
      vertex 16.3641 -6.47899 -6
      vertex 16.3641 -6.47899 0
    endloop
  endfacet
  facet normal 0.248706 0.968579 -0
    outer loop
      vertex -3.29791 -17.2883 -6
      vertex -5.4387 -16.7386 0
      vertex -3.29791 -17.2883 0
    endloop
  endfacet
  facet normal 0.248706 0.968579 0
    outer loop
      vertex -5.4387 -16.7386 0
      vertex -3.29791 -17.2883 -6
      vertex -5.4387 -16.7386 -6
    endloop
  endfacet
  facet normal -0.368109 0.929783 0
    outer loop
      vertex 7.49372 -15.925 -6
      vertex 5.4387 -16.7386 0
      vertex 7.49372 -15.925 0
    endloop
  endfacet
  facet normal -0.368109 0.929783 0
    outer loop
      vertex 5.4387 -16.7386 0
      vertex 7.49372 -15.925 -6
      vertex 5.4387 -16.7386 -6
    endloop
  endfacet
  facet normal -0.982292 -0.187357 0
    outer loop
      vertex 17.4612 2.20586 -6
      vertex 17.0471 4.37694 0
      vertex 17.0471 4.37694 -6
    endloop
  endfacet
  facet normal -0.982292 -0.187357 0
    outer loop
      vertex 17.0471 4.37694 0
      vertex 17.4612 2.20586 -6
      vertex 17.4612 2.20586 0
    endloop
  endfacet
  facet normal -0.951056 -0.309018 0
    outer loop
      vertex 17.0471 4.37694 -6
      vertex 16.3641 6.47899 0
      vertex 16.3641 6.47899 -6
    endloop
  endfacet
  facet normal -0.951056 -0.309018 0
    outer loop
      vertex 16.3641 6.47899 0
      vertex 17.0471 4.37694 -6
      vertex 17.0471 4.37694 0
    endloop
  endfacet
  facet normal -0.684565 -0.728951 0
    outer loop
      vertex 11.2187 13.561 -6
      vertex 12.8298 12.048 0
      vertex 11.2187 13.561 0
    endloop
  endfacet
  facet normal -0.684565 -0.728951 -0
    outer loop
      vertex 12.8298 12.048 0
      vertex 11.2187 13.561 -6
      vertex 12.8298 12.048 -6
    endloop
  endfacet
  facet normal -0.248706 -0.968579 0
    outer loop
      vertex 3.29791 17.2883 -6
      vertex 5.4387 16.7386 0
      vertex 3.29791 17.2883 0
    endloop
  endfacet
  facet normal -0.248706 -0.968579 -0
    outer loop
      vertex 5.4387 16.7386 0
      vertex 3.29791 17.2883 -6
      vertex 5.4387 16.7386 -6
    endloop
  endfacet
  facet normal -0.125327 -0.992116 0
    outer loop
      vertex 1.10511 17.5653 -6
      vertex 3.29791 17.2883 0
      vertex 1.10511 17.5653 0
    endloop
  endfacet
  facet normal -0.125327 -0.992116 -0
    outer loop
      vertex 3.29791 17.2883 0
      vertex 1.10511 17.5653 -6
      vertex 3.29791 17.2883 -6
    endloop
  endfacet
  facet normal -0.48176 -0.876303 0
    outer loop
      vertex 7.49372 15.925 -6
      vertex 9.43055 14.8602 0
      vertex 7.49372 15.925 0
    endloop
  endfacet
  facet normal -0.48176 -0.876303 -0
    outer loop
      vertex 9.43055 14.8602 0
      vertex 7.49372 15.925 -6
      vertex 9.43055 14.8602 -6
    endloop
  endfacet
  facet normal 0.951056 -0.309018 0
    outer loop
      vertex -17.0471 4.37694 0
      vertex -16.3641 6.47899 -6
      vertex -16.3641 6.47899 0
    endloop
  endfacet
  facet normal 0.951056 -0.309018 0
    outer loop
      vertex -16.3641 6.47899 -6
      vertex -17.0471 4.37694 0
      vertex -17.0471 4.37694 -6
    endloop
  endfacet
  facet normal 0.844326 -0.535831 0
    outer loop
      vertex -15.423 8.47886 0
      vertex -14.2387 10.345 -6
      vertex -14.2387 10.345 0
    endloop
  endfacet
  facet normal 0.844326 -0.535831 0
    outer loop
      vertex -14.2387 10.345 -6
      vertex -15.423 8.47886 0
      vertex -15.423 8.47886 -6
    endloop
  endfacet
  facet normal 0.125327 -0.992116 0
    outer loop
      vertex -3.29791 17.2883 -6
      vertex -1.10511 17.5653 0
      vertex -3.29791 17.2883 0
    endloop
  endfacet
  facet normal 0.125327 -0.992116 0
    outer loop
      vertex -1.10511 17.5653 0
      vertex -3.29791 17.2883 -6
      vertex -1.10511 17.5653 -6
    endloop
  endfacet
  facet normal 0.248706 -0.968579 0
    outer loop
      vertex -5.4387 16.7386 -6
      vertex -3.29791 17.2883 0
      vertex -5.4387 16.7386 0
    endloop
  endfacet
  facet normal 0.248706 -0.968579 0
    outer loop
      vertex -3.29791 17.2883 0
      vertex -5.4387 16.7386 -6
      vertex -3.29791 17.2883 -6
    endloop
  endfacet
  facet normal 0.684565 -0.728951 0
    outer loop
      vertex -12.8298 12.048 -6
      vertex -11.2187 13.561 0
      vertex -12.8298 12.048 0
    endloop
  endfacet
  facet normal 0.684565 -0.728951 0
    outer loop
      vertex -11.2187 13.561 0
      vertex -12.8298 12.048 -6
      vertex -11.2187 13.561 -6
    endloop
  endfacet
  facet normal -0.998026 0.0627991 0
    outer loop
      vertex 17.4612 -2.20586 -6
      vertex 17.6 0 0
      vertex 17.6 0 -6
    endloop
  endfacet
  facet normal -0.998026 0.0627991 0
    outer loop
      vertex 17.6 0 0
      vertex 17.4612 -2.20586 -6
      vertex 17.4612 -2.20586 0
    endloop
  endfacet
  facet normal -0.844326 0.535831 0
    outer loop
      vertex 14.2387 -10.345 -6
      vertex 15.423 -8.47886 0
      vertex 15.423 -8.47886 -6
    endloop
  endfacet
  facet normal -0.844326 0.535831 0
    outer loop
      vertex 15.423 -8.47886 0
      vertex 14.2387 -10.345 -6
      vertex 14.2387 -10.345 0
    endloop
  endfacet
  facet normal -0.904821 0.425791 0
    outer loop
      vertex 15.423 -8.47886 -6
      vertex 16.3641 -6.47899 0
      vertex 16.3641 -6.47899 -6
    endloop
  endfacet
  facet normal -0.904821 0.425791 0
    outer loop
      vertex 16.3641 -6.47899 0
      vertex 15.423 -8.47886 -6
      vertex 15.423 -8.47886 0
    endloop
  endfacet
  facet normal 0.998026 0.0627991 0
    outer loop
      vertex -17.4612 -2.20586 0
      vertex -17.6 0 -6
      vertex -17.6 0 0
    endloop
  endfacet
  facet normal 0.998026 0.0627991 0
    outer loop
      vertex -17.6 0 -6
      vertex -17.4612 -2.20586 0
      vertex -17.4612 -2.20586 -6
    endloop
  endfacet
  facet normal 0.982292 0.187357 0
    outer loop
      vertex -17.0471 -4.37694 0
      vertex -17.4612 -2.20586 -6
      vertex -17.4612 -2.20586 0
    endloop
  endfacet
  facet normal 0.982292 0.187357 0
    outer loop
      vertex -17.4612 -2.20586 -6
      vertex -17.0471 -4.37694 0
      vertex -17.0471 -4.37694 -6
    endloop
  endfacet
  facet normal -0.125327 0.992116 0
    outer loop
      vertex 3.29791 -17.2883 -6
      vertex 1.10511 -17.5653 0
      vertex 3.29791 -17.2883 0
    endloop
  endfacet
  facet normal -0.125327 0.992116 0
    outer loop
      vertex 1.10511 -17.5653 0
      vertex 3.29791 -17.2883 -6
      vertex 1.10511 -17.5653 -6
    endloop
  endfacet
  facet normal -0.770501 -0.637439 0
    outer loop
      vertex 14.2387 10.345 -6
      vertex 12.8298 12.048 0
      vertex 12.8298 12.048 -6
    endloop
  endfacet
  facet normal -0.770501 -0.637439 0
    outer loop
      vertex 12.8298 12.048 0
      vertex 14.2387 10.345 -6
      vertex 14.2387 10.345 0
    endloop
  endfacet
  facet normal 0 1 -0
    outer loop
      vertex 1.10511 -17.5653 -6
      vertex -1.10511 -17.5653 0
      vertex 1.10511 -17.5653 0
    endloop
  endfacet
  facet normal 0 1 0
    outer loop
      vertex -1.10511 -17.5653 0
      vertex 1.10511 -17.5653 -6
      vertex -1.10511 -17.5653 -6
    endloop
  endfacet
  facet normal 0 0 1
    outer loop
      vertex 17.4612 2.20586 -6
      vertex 17.4612 -2.20586 -6
      vertex 17.6 0 -6
    endloop
  endfacet
  facet normal 0 0 1
    outer loop
      vertex 17.0471 4.37694 -6
      vertex 17.4612 -2.20586 -6
      vertex 17.4612 2.20586 -6
    endloop
  endfacet
  facet normal 0 0 1
    outer loop
      vertex 17.0471 4.37694 -6
      vertex 17.0471 -4.37694 -6
      vertex 17.4612 -2.20586 -6
    endloop
  endfacet
  facet normal 0 0 1
    outer loop
      vertex 16.3641 6.47899 -6
      vertex 17.0471 -4.37694 -6
      vertex 17.0471 4.37694 -6
    endloop
  endfacet
  facet normal 0 0 1
    outer loop
      vertex 16.3641 6.47899 -6
      vertex 16.3641 -6.47899 -6
      vertex 17.0471 -4.37694 -6
    endloop
  endfacet
  facet normal 0 0 1
    outer loop
      vertex 15.423 8.47886 -6
      vertex 16.3641 -6.47899 -6
      vertex 16.3641 6.47899 -6
    endloop
  endfacet
  facet normal 0 0 1
    outer loop
      vertex 15.423 8.47886 -6
      vertex 15.423 -8.47886 -6
      vertex 16.3641 -6.47899 -6
    endloop
  endfacet
  facet normal 0 0 1
    outer loop
      vertex 14.2387 10.345 -6
      vertex 15.423 -8.47886 -6
      vertex 15.423 8.47886 -6
    endloop
  endfacet
  facet normal 0 0 1
    outer loop
      vertex 14.2387 10.345 -6
      vertex 14.2387 -10.345 -6
      vertex 15.423 -8.47886 -6
    endloop
  endfacet
  facet normal 0 0 1
    outer loop
      vertex 12.8298 12.048 -6
      vertex 14.2387 -10.345 -6
      vertex 14.2387 10.345 -6
    endloop
  endfacet
  facet normal 0 0 1
    outer loop
      vertex 12.8298 12.048 -6
      vertex 12.8298 -12.048 -6
      vertex 14.2387 -10.345 -6
    endloop
  endfacet
  facet normal 0 0 1
    outer loop
      vertex 11.2187 13.561 -6
      vertex 12.8298 -12.048 -6
      vertex 12.8298 12.048 -6
    endloop
  endfacet
  facet normal 0 0 1
    outer loop
      vertex 11.2187 13.561 -6
      vertex 11.2187 -13.561 -6
      vertex 12.8298 -12.048 -6
    endloop
  endfacet
  facet normal 0 0 1
    outer loop
      vertex 9.43055 14.8602 -6
      vertex 11.2187 -13.561 -6
      vertex 11.2187 13.561 -6
    endloop
  endfacet
  facet normal 0 0 1
    outer loop
      vertex 9.43055 14.8602 -6
      vertex 9.43055 -14.8602 -6
      vertex 11.2187 -13.561 -6
    endloop
  endfacet
  facet normal 0 0 1
    outer loop
      vertex 7.49372 15.925 -6
      vertex 9.43055 -14.8602 -6
      vertex 9.43055 14.8602 -6
    endloop
  endfacet
  facet normal 0 0 1
    outer loop
      vertex 7.49372 15.925 -6
      vertex 7.49372 -15.925 -6
      vertex 9.43055 -14.8602 -6
    endloop
  endfacet
  facet normal 0 0 1
    outer loop
      vertex 5.4387 16.7386 -6
      vertex 7.49372 -15.925 -6
      vertex 7.49372 15.925 -6
    endloop
  endfacet
  facet normal 0 0 1
    outer loop
      vertex 5.4387 16.7386 -6
      vertex 5.4387 -16.7386 -6
      vertex 7.49372 -15.925 -6
    endloop
  endfacet
  facet normal 0 0 1
    outer loop
      vertex 3.29791 17.2883 -6
      vertex 5.4387 -16.7386 -6
      vertex 5.4387 16.7386 -6
    endloop
  endfacet
  facet normal 0 0 1
    outer loop
      vertex 3.29791 17.2883 -6
      vertex 3.29791 -17.2883 -6
      vertex 5.4387 -16.7386 -6
    endloop
  endfacet
  facet normal 0 0 1
    outer loop
      vertex 1.10511 17.5653 -6
      vertex 3.29791 -17.2883 -6
      vertex 3.29791 17.2883 -6
    endloop
  endfacet
  facet normal 0 0 1
    outer loop
      vertex 1.10511 17.5653 -6
      vertex 1.10511 -17.5653 -6
      vertex 3.29791 -17.2883 -6
    endloop
  endfacet
  facet normal -0 0 1
    outer loop
      vertex -1.10511 17.5653 -6
      vertex 1.10511 -17.5653 -6
      vertex 1.10511 17.5653 -6
    endloop
  endfacet
  facet normal 0 0 1
    outer loop
      vertex -1.10511 17.5653 -6
      vertex -1.10511 -17.5653 -6
      vertex 1.10511 -17.5653 -6
    endloop
  endfacet
  facet normal -0 0 1
    outer loop
      vertex -3.29791 17.2883 -6
      vertex -1.10511 -17.5653 -6
      vertex -1.10511 17.5653 -6
    endloop
  endfacet
  facet normal 0 0 1
    outer loop
      vertex -3.29791 17.2883 -6
      vertex -3.29791 -17.2883 -6
      vertex -1.10511 -17.5653 -6
    endloop
  endfacet
  facet normal -0 0 1
    outer loop
      vertex -5.4387 16.7386 -6
      vertex -3.29791 -17.2883 -6
      vertex -3.29791 17.2883 -6
    endloop
  endfacet
  facet normal 0 0 1
    outer loop
      vertex -5.4387 16.7386 -6
      vertex -5.4387 -16.7386 -6
      vertex -3.29791 -17.2883 -6
    endloop
  endfacet
  facet normal -0 0 1
    outer loop
      vertex -7.49372 15.925 -6
      vertex -5.4387 -16.7386 -6
      vertex -5.4387 16.7386 -6
    endloop
  endfacet
  facet normal 0 0 1
    outer loop
      vertex -7.49372 15.925 -6
      vertex -7.49372 -15.925 -6
      vertex -5.4387 -16.7386 -6
    endloop
  endfacet
  facet normal -0 0 1
    outer loop
      vertex -9.43055 14.8602 -6
      vertex -7.49372 -15.925 -6
      vertex -7.49372 15.925 -6
    endloop
  endfacet
  facet normal 0 0 1
    outer loop
      vertex -9.43055 14.8602 -6
      vertex -9.43055 -14.8602 -6
      vertex -7.49372 -15.925 -6
    endloop
  endfacet
  facet normal -0 0 1
    outer loop
      vertex -11.2187 13.561 -6
      vertex -9.43055 -14.8602 -6
      vertex -9.43055 14.8602 -6
    endloop
  endfacet
  facet normal 0 0 1
    outer loop
      vertex -11.2187 13.561 -6
      vertex -11.2187 -13.561 -6
      vertex -9.43055 -14.8602 -6
    endloop
  endfacet
  facet normal -0 0 1
    outer loop
      vertex -12.8298 12.048 -6
      vertex -11.2187 -13.561 -6
      vertex -11.2187 13.561 -6
    endloop
  endfacet
  facet normal 0 0 1
    outer loop
      vertex -12.8298 12.048 -6
      vertex -12.8298 -12.048 -6
      vertex -11.2187 -13.561 -6
    endloop
  endfacet
  facet normal -0 0 1
    outer loop
      vertex -14.2387 10.345 -6
      vertex -12.8298 -12.048 -6
      vertex -12.8298 12.048 -6
    endloop
  endfacet
  facet normal 0 0 1
    outer loop
      vertex -14.2387 10.345 -6
      vertex -14.2387 -10.345 -6
      vertex -12.8298 -12.048 -6
    endloop
  endfacet
  facet normal -0 0 1
    outer loop
      vertex -15.423 8.47886 -6
      vertex -14.2387 -10.345 -6
      vertex -14.2387 10.345 -6
    endloop
  endfacet
  facet normal 0 0 1
    outer loop
      vertex -15.423 8.47886 -6
      vertex -15.423 -8.47886 -6
      vertex -14.2387 -10.345 -6
    endloop
  endfacet
  facet normal -0 0 1
    outer loop
      vertex -16.3641 6.47899 -6
      vertex -15.423 -8.47886 -6
      vertex -15.423 8.47886 -6
    endloop
  endfacet
  facet normal 0 0 1
    outer loop
      vertex -16.3641 6.47899 -6
      vertex -16.3641 -6.47899 -6
      vertex -15.423 -8.47886 -6
    endloop
  endfacet
  facet normal -0 0 1
    outer loop
      vertex -17.0471 4.37694 -6
      vertex -16.3641 -6.47899 -6
      vertex -16.3641 6.47899 -6
    endloop
  endfacet
  facet normal 0 0 1
    outer loop
      vertex -17.0471 4.37694 -6
      vertex -17.0471 -4.37694 -6
      vertex -16.3641 -6.47899 -6
    endloop
  endfacet
  facet normal -0 0 1
    outer loop
      vertex -17.4612 2.20586 -6
      vertex -17.0471 -4.37694 -6
      vertex -17.0471 4.37694 -6
    endloop
  endfacet
  facet normal 0 0 1
    outer loop
      vertex -17.4612 2.20586 -6
      vertex -17.4612 -2.20586 -6
      vertex -17.0471 -4.37694 -6
    endloop
  endfacet
  facet normal 0 -0 1
    outer loop
      vertex -17.4612 -2.20586 -6
      vertex -17.4612 2.20586 -6
      vertex -17.6 0 -6
    endloop
  endfacet
  facet normal 0.951056 0.309018 0
    outer loop
      vertex -16.3641 -6.47899 0
      vertex -17.0471 -4.37694 -6
      vertex -17.0471 -4.37694 0
    endloop
  endfacet
  facet normal 0.951056 0.309018 0
    outer loop
      vertex -17.0471 -4.37694 -6
      vertex -16.3641 -6.47899 0
      vertex -16.3641 -6.47899 -6
    endloop
  endfacet
  facet normal 0.770501 0.637439 0
    outer loop
      vertex -12.8298 -12.048 0
      vertex -14.2387 -10.345 -6
      vertex -14.2387 -10.345 0
    endloop
  endfacet
  facet normal 0.770501 0.637439 0
    outer loop
      vertex -14.2387 -10.345 -6
      vertex -12.8298 -12.048 0
      vertex -12.8298 -12.048 -6
    endloop
  endfacet
  facet normal 0.904821 0.425791 0
    outer loop
      vertex -15.423 -8.47886 0
      vertex -16.3641 -6.47899 -6
      vertex -16.3641 -6.47899 0
    endloop
  endfacet
  facet normal 0.904821 0.425791 0
    outer loop
      vertex -16.3641 -6.47899 -6
      vertex -15.423 -8.47886 0
      vertex -15.423 -8.47886 -6
    endloop
  endfacet
  facet normal -0.770501 0.637439 0
    outer loop
      vertex 12.8298 -12.048 -6
      vertex 14.2387 -10.345 0
      vertex 14.2387 -10.345 -6
    endloop
  endfacet
  facet normal -0.770501 0.637439 0
    outer loop
      vertex 14.2387 -10.345 0
      vertex 12.8298 -12.048 -6
      vertex 12.8298 -12.048 0
    endloop
  endfacet
  facet normal -0.587795 0.80901 0
    outer loop
      vertex 11.2187 -13.561 -6
      vertex 9.43055 -14.8602 0
      vertex 11.2187 -13.561 0
    endloop
  endfacet
  facet normal -0.587795 0.80901 0
    outer loop
      vertex 9.43055 -14.8602 0
      vertex 11.2187 -13.561 -6
      vertex 9.43055 -14.8602 -6
    endloop
  endfacet
  facet normal -0.982292 0.187357 0
    outer loop
      vertex 17.0471 -4.37694 -6
      vertex 17.4612 -2.20586 0
      vertex 17.4612 -2.20586 -6
    endloop
  endfacet
  facet normal -0.982292 0.187357 0
    outer loop
      vertex 17.4612 -2.20586 0
      vertex 17.0471 -4.37694 -6
      vertex 17.0471 -4.37694 0
    endloop
  endfacet
  facet normal 0.48176 0.876303 -0
    outer loop
      vertex -7.49372 -15.925 -6
      vertex -9.43055 -14.8602 0
      vertex -7.49372 -15.925 0
    endloop
  endfacet
  facet normal 0.48176 0.876303 0
    outer loop
      vertex -9.43055 -14.8602 0
      vertex -7.49372 -15.925 -6
      vertex -9.43055 -14.8602 -6
    endloop
  endfacet
  facet normal 0.368109 0.929783 -0
    outer loop
      vertex -5.4387 -16.7386 -6
      vertex -7.49372 -15.925 0
      vertex -5.4387 -16.7386 0
    endloop
  endfacet
  facet normal 0.368109 0.929783 0
    outer loop
      vertex -7.49372 -15.925 0
      vertex -5.4387 -16.7386 -6
      vertex -7.49372 -15.925 -6
    endloop
  endfacet
  facet normal 0.684565 0.728951 -0
    outer loop
      vertex -11.2187 -13.561 -6
      vertex -12.8298 -12.048 0
      vertex -11.2187 -13.561 0
    endloop
  endfacet
  facet normal 0.684565 0.728951 0
    outer loop
      vertex -12.8298 -12.048 0
      vertex -11.2187 -13.561 -6
      vertex -12.8298 -12.048 -6
    endloop
  endfacet
  facet normal 0.125327 0.992116 -0
    outer loop
      vertex -1.10511 -17.5653 -6
      vertex -3.29791 -17.2883 0
      vertex -1.10511 -17.5653 0
    endloop
  endfacet
  facet normal 0.125327 0.992116 0
    outer loop
      vertex -3.29791 -17.2883 0
      vertex -1.10511 -17.5653 -6
      vertex -3.29791 -17.2883 -6
    endloop
  endfacet
  facet normal 0.844326 0.535831 0
    outer loop
      vertex -14.2387 -10.345 0
      vertex -15.423 -8.47886 -6
      vertex -15.423 -8.47886 0
    endloop
  endfacet
  facet normal 0.844326 0.535831 0
    outer loop
      vertex -15.423 -8.47886 -6
      vertex -14.2387 -10.345 0
      vertex -14.2387 -10.345 -6
    endloop
  endfacet
  facet normal -0.248706 0.968579 0
    outer loop
      vertex 5.4387 -16.7386 -6
      vertex 3.29791 -17.2883 0
      vertex 5.4387 -16.7386 0
    endloop
  endfacet
  facet normal -0.248706 0.968579 0
    outer loop
      vertex 3.29791 -17.2883 0
      vertex 5.4387 -16.7386 -6
      vertex 3.29791 -17.2883 -6
    endloop
  endfacet
  facet normal 0.587795 0.80901 -0
    outer loop
      vertex -9.43055 -14.8602 -6
      vertex -11.2187 -13.561 0
      vertex -9.43055 -14.8602 0
    endloop
  endfacet
  facet normal 0.587795 0.80901 0
    outer loop
      vertex -11.2187 -13.561 0
      vertex -9.43055 -14.8602 -6
      vertex -11.2187 -13.561 -6
    endloop
  endfacet
endsolid OpenSCAD_Model
