solid OpenSCAD_Model
  facet normal 0 0 1
    outer loop
      vertex 6.1 0 0
      vertex 7.5 0 0
      vertex 7.44086 0.939999 0
    endloop
  endfacet
  facet normal 0 0 1
    outer loop
      vertex 6.0519 0.764532 0
      vertex 7.44086 0.939999 0
      vertex 7.26437 1.86517 0
    endloop
  endfacet
  facet normal 0 0 1
    outer loop
      vertex 7.5 0 0
      vertex 6.1 0 0
      vertex 7.44086 -0.939999 0
    endloop
  endfacet
  facet normal 0 0 1
    outer loop
      vertex 5.90836 1.51701 0
      vertex 7.26437 1.86517 0
      vertex 6.97332 2.76093 0
    endloop
  endfacet
  facet normal -0 0 1
    outer loop
      vertex 6.0519 -0.764532 0
      vertex 7.44086 -0.939999 0
      vertex 6.1 0 0
    endloop
  endfacet
  facet normal 0 0 1
    outer loop
      vertex 5.67164 2.24556 0
      vertex 6.97332 2.76093 0
      vertex 6.5723 3.61315 0
    endloop
  endfacet
  facet normal 0 0 1
    outer loop
      vertex 7.44086 -0.939999 0
      vertex 6.0519 -0.764532 0
      vertex 7.26437 -1.86517 0
    endloop
  endfacet
  facet normal -0 0 1
    outer loop
      vertex 5.90836 -1.51701 0
      vertex 7.26437 -1.86517 0
      vertex 6.0519 -0.764532 0
    endloop
  endfacet
  facet normal 0 0 1
    outer loop
      vertex 5.34547 2.9387 0
      vertex 6.5723 3.61315 0
      vertex 6.06763 4.40839 0
    endloop
  endfacet
  facet normal 0 0 1
    outer loop
      vertex 7.44086 0.939999 0
      vertex 6.0519 0.764532 0
      vertex 6.1 0 0
    endloop
  endfacet
  facet normal 0 0 1
    outer loop
      vertex 7.26437 1.86517 0
      vertex 5.90836 1.51701 0
      vertex 6.0519 0.764532 0
    endloop
  endfacet
  facet normal 0 0 1
    outer loop
      vertex 6.97332 2.76093 0
      vertex 5.67164 2.24556 0
      vertex 5.90836 1.51701 0
    endloop
  endfacet
  facet normal 0 0 1
    outer loop
      vertex 4.935 3.58549 0
      vertex 6.06763 4.40839 0
      vertex 5.46726 5.1341 0
    endloop
  endfacet
  facet normal 0 0 1
    outer loop
      vertex 6.5723 3.61315 0
      vertex 5.34547 2.9387 0
      vertex 5.67164 2.24556 0
    endloop
  endfacet
  facet normal 0 0 1
    outer loop
      vertex 6.06763 4.40839 0
      vertex 4.935 3.58549 0
      vertex 5.34547 2.9387 0
    endloop
  endfacet
  facet normal 0 0 1
    outer loop
      vertex 4.44671 4.17574 0
      vertex 5.46726 5.1341 0
      vertex 4.78068 5.77885 0
    endloop
  endfacet
  facet normal 0 0 1
    outer loop
      vertex 5.46726 5.1341 0
      vertex 4.44671 4.17574 0
      vertex 4.935 3.58549 0
    endloop
  endfacet
  facet normal 0 0 1
    outer loop
      vertex 3.88829 4.70013 0
      vertex 4.78068 5.77885 0
      vertex 4.0187 6.33246 0
    endloop
  endfacet
  facet normal 0 0 1
    outer loop
      vertex 4.78068 5.77885 0
      vertex 3.88829 4.70013 0
      vertex 4.44671 4.17574 0
    endloop
  endfacet
  facet normal 0 0 1
    outer loop
      vertex 4.0187 6.33246 0
      vertex 3.26854 5.1504 0
      vertex 3.88829 4.70013 0
    endloop
  endfacet
  facet normal 0 0 1
    outer loop
      vertex 3.19334 6.7862 0
      vertex 3.26854 5.1504 0
      vertex 4.0187 6.33246 0
    endloop
  endfacet
  facet normal 0 0 1
    outer loop
      vertex 3.19334 6.7862 0
      vertex 2.59725 5.51944 0
      vertex 3.26854 5.1504 0
    endloop
  endfacet
  facet normal 0 0 1
    outer loop
      vertex 2.31763 7.13292 0
      vertex 2.59725 5.51944 0
      vertex 3.19334 6.7862 0
    endloop
  endfacet
  facet normal 0 0 1
    outer loop
      vertex 2.31763 7.13292 0
      vertex 1.885 5.80144 0
      vertex 2.59725 5.51944 0
    endloop
  endfacet
  facet normal 0 0 1
    outer loop
      vertex 1.40536 7.36715 0
      vertex 1.885 5.80144 0
      vertex 2.31763 7.13292 0
    endloop
  endfacet
  facet normal 0 0 1
    outer loop
      vertex 1.40536 7.36715 0
      vertex 1.14303 5.99195 0
      vertex 1.885 5.80144 0
    endloop
  endfacet
  facet normal 0 0 1
    outer loop
      vertex 0.470928 7.4852 0
      vertex 1.14303 5.99195 0
      vertex 1.40536 7.36715 0
    endloop
  endfacet
  facet normal 0 0 1
    outer loop
      vertex 0.470928 7.4852 0
      vertex 0.383021 6.08796 0
      vertex 1.14303 5.99195 0
    endloop
  endfacet
  facet normal 0 0 1
    outer loop
      vertex 0.470928 7.4852 0
      vertex -0.383021 6.08796 0
      vertex 0.383021 6.08796 0
    endloop
  endfacet
  facet normal -0 0 1
    outer loop
      vertex -0.470928 7.4852 0
      vertex -0.383021 6.08796 0
      vertex 0.470928 7.4852 0
    endloop
  endfacet
  facet normal 0 0 1
    outer loop
      vertex -0.470928 7.4852 0
      vertex -1.14303 5.99195 0
      vertex -0.383021 6.08796 0
    endloop
  endfacet
  facet normal -0 0 1
    outer loop
      vertex -1.40536 7.36715 0
      vertex -1.14303 5.99195 0
      vertex -0.470928 7.4852 0
    endloop
  endfacet
  facet normal 0 0 1
    outer loop
      vertex -1.40536 7.36715 0
      vertex -1.885 5.80144 0
      vertex -1.14303 5.99195 0
    endloop
  endfacet
  facet normal -0 0 1
    outer loop
      vertex -2.31763 7.13292 0
      vertex -1.885 5.80144 0
      vertex -1.40536 7.36715 0
    endloop
  endfacet
  facet normal 0 0 1
    outer loop
      vertex -2.31763 7.13292 0
      vertex -2.59725 5.51944 0
      vertex -1.885 5.80144 0
    endloop
  endfacet
  facet normal -0 0 1
    outer loop
      vertex -3.19334 6.7862 0
      vertex -2.59725 5.51944 0
      vertex -2.31763 7.13292 0
    endloop
  endfacet
  facet normal 0 0 1
    outer loop
      vertex -3.19334 6.7862 0
      vertex -3.26854 5.1504 0
      vertex -2.59725 5.51944 0
    endloop
  endfacet
  facet normal -0 0 1
    outer loop
      vertex -4.0187 6.33246 0
      vertex -3.26854 5.1504 0
      vertex -3.19334 6.7862 0
    endloop
  endfacet
  facet normal 0 0 1
    outer loop
      vertex -3.26854 5.1504 0
      vertex -4.0187 6.33246 0
      vertex -3.88829 4.70013 0
    endloop
  endfacet
  facet normal -0 0 1
    outer loop
      vertex -4.78068 5.77885 0
      vertex -3.88829 4.70013 0
      vertex -4.0187 6.33246 0
    endloop
  endfacet
  facet normal 0 0 1
    outer loop
      vertex -3.88829 4.70013 0
      vertex -4.78068 5.77885 0
      vertex -4.44671 4.17574 0
    endloop
  endfacet
  facet normal -0 0 1
    outer loop
      vertex -5.46726 5.1341 0
      vertex -4.44671 4.17574 0
      vertex -4.78068 5.77885 0
    endloop
  endfacet
  facet normal 0 0 1
    outer loop
      vertex -4.44671 4.17574 0
      vertex -5.46726 5.1341 0
      vertex -4.935 3.58549 0
    endloop
  endfacet
  facet normal -0 0 1
    outer loop
      vertex -6.06763 4.40839 0
      vertex -4.935 3.58549 0
      vertex -5.46726 5.1341 0
    endloop
  endfacet
  facet normal 0 0 1
    outer loop
      vertex -4.935 3.58549 0
      vertex -6.06763 4.40839 0
      vertex -5.34547 2.9387 0
    endloop
  endfacet
  facet normal -0 0 1
    outer loop
      vertex -6.5723 3.61315 0
      vertex -5.34547 2.9387 0
      vertex -6.06763 4.40839 0
    endloop
  endfacet
  facet normal 0 0 1
    outer loop
      vertex -5.34547 2.9387 0
      vertex -6.5723 3.61315 0
      vertex -5.67164 2.24556 0
    endloop
  endfacet
  facet normal -0 0 1
    outer loop
      vertex -6.97332 2.76093 0
      vertex -5.67164 2.24556 0
      vertex -6.5723 3.61315 0
    endloop
  endfacet
  facet normal 0 0 1
    outer loop
      vertex -5.67164 2.24556 0
      vertex -6.97332 2.76093 0
      vertex -5.90836 1.51701 0
    endloop
  endfacet
  facet normal -0 0 1
    outer loop
      vertex -7.26437 1.86517 0
      vertex -5.90836 1.51701 0
      vertex -6.97332 2.76093 0
    endloop
  endfacet
  facet normal 0 0 1
    outer loop
      vertex 7.26437 -1.86517 0
      vertex 5.90836 -1.51701 0
      vertex 6.97332 -2.76093 0
    endloop
  endfacet
  facet normal -0 0 1
    outer loop
      vertex 5.67164 -2.24556 0
      vertex 6.97332 -2.76093 0
      vertex 5.90836 -1.51701 0
    endloop
  endfacet
  facet normal 0 0 1
    outer loop
      vertex 6.97332 -2.76093 0
      vertex 5.67164 -2.24556 0
      vertex 6.5723 -3.61315 0
    endloop
  endfacet
  facet normal -0 0 1
    outer loop
      vertex 5.34547 -2.9387 0
      vertex 6.5723 -3.61315 0
      vertex 5.67164 -2.24556 0
    endloop
  endfacet
  facet normal 0 0 1
    outer loop
      vertex 6.5723 -3.61315 0
      vertex 5.34547 -2.9387 0
      vertex 6.06763 -4.40839 0
    endloop
  endfacet
  facet normal -0 0 1
    outer loop
      vertex 4.935 -3.58549 0
      vertex 6.06763 -4.40839 0
      vertex 5.34547 -2.9387 0
    endloop
  endfacet
  facet normal 0 0 1
    outer loop
      vertex 6.06763 -4.40839 0
      vertex 4.935 -3.58549 0
      vertex 5.46726 -5.1341 0
    endloop
  endfacet
  facet normal -0 0 1
    outer loop
      vertex 4.44671 -4.17574 0
      vertex 5.46726 -5.1341 0
      vertex 4.935 -3.58549 0
    endloop
  endfacet
  facet normal 0 0 1
    outer loop
      vertex 5.46726 -5.1341 0
      vertex 4.44671 -4.17574 0
      vertex 4.78068 -5.77885 0
    endloop
  endfacet
  facet normal -0 0 1
    outer loop
      vertex 3.88829 -4.70013 0
      vertex 4.78068 -5.77885 0
      vertex 4.44671 -4.17574 0
    endloop
  endfacet
  facet normal 0 0 1
    outer loop
      vertex 4.78068 -5.77885 0
      vertex 3.88829 -4.70013 0
      vertex 4.0187 -6.33246 0
    endloop
  endfacet
  facet normal -0 0 1
    outer loop
      vertex 3.26854 -5.1504 0
      vertex 4.0187 -6.33246 0
      vertex 3.88829 -4.70013 0
    endloop
  endfacet
  facet normal 0 0 1
    outer loop
      vertex 3.26854 -5.1504 0
      vertex 3.19334 -6.7862 0
      vertex 4.0187 -6.33246 0
    endloop
  endfacet
  facet normal -0 0 1
    outer loop
      vertex 2.59725 -5.51944 0
      vertex 3.19334 -6.7862 0
      vertex 3.26854 -5.1504 0
    endloop
  endfacet
  facet normal 0 0 1
    outer loop
      vertex 2.59725 -5.51944 0
      vertex 2.31763 -7.13292 0
      vertex 3.19334 -6.7862 0
    endloop
  endfacet
  facet normal -0 0 1
    outer loop
      vertex 1.885 -5.80144 0
      vertex 2.31763 -7.13292 0
      vertex 2.59725 -5.51944 0
    endloop
  endfacet
  facet normal 0 0 1
    outer loop
      vertex 1.885 -5.80144 0
      vertex 1.40536 -7.36715 0
      vertex 2.31763 -7.13292 0
    endloop
  endfacet
  facet normal -0 0 1
    outer loop
      vertex 1.14303 -5.99195 0
      vertex 1.40536 -7.36715 0
      vertex 1.885 -5.80144 0
    endloop
  endfacet
  facet normal 0 0 1
    outer loop
      vertex 1.14303 -5.99195 0
      vertex 0.470928 -7.4852 0
      vertex 1.40536 -7.36715 0
    endloop
  endfacet
  facet normal -0 0 1
    outer loop
      vertex 0.383021 -6.08796 0
      vertex 0.470928 -7.4852 0
      vertex 1.14303 -5.99195 0
    endloop
  endfacet
  facet normal -0 0 1
    outer loop
      vertex -0.383021 -6.08796 0
      vertex 0.470928 -7.4852 0
      vertex 0.383021 -6.08796 0
    endloop
  endfacet
  facet normal 0 0 1
    outer loop
      vertex -0.383021 -6.08796 0
      vertex -0.470928 -7.4852 0
      vertex 0.470928 -7.4852 0
    endloop
  endfacet
  facet normal 0 0 1
    outer loop
      vertex -1.14303 -5.99195 0
      vertex -0.470928 -7.4852 0
      vertex -0.383021 -6.08796 0
    endloop
  endfacet
  facet normal 0 0 1
    outer loop
      vertex -1.14303 -5.99195 0
      vertex -1.40536 -7.36715 0
      vertex -0.470928 -7.4852 0
    endloop
  endfacet
  facet normal 0 0 1
    outer loop
      vertex -1.885 -5.80144 0
      vertex -1.40536 -7.36715 0
      vertex -1.14303 -5.99195 0
    endloop
  endfacet
  facet normal 0 0 1
    outer loop
      vertex -1.885 -5.80144 0
      vertex -2.31763 -7.13292 0
      vertex -1.40536 -7.36715 0
    endloop
  endfacet
  facet normal 0 0 1
    outer loop
      vertex -2.59725 -5.51944 0
      vertex -2.31763 -7.13292 0
      vertex -1.885 -5.80144 0
    endloop
  endfacet
  facet normal 0 0 1
    outer loop
      vertex -2.59725 -5.51944 0
      vertex -3.19334 -6.7862 0
      vertex -2.31763 -7.13292 0
    endloop
  endfacet
  facet normal 0 0 1
    outer loop
      vertex -3.26854 -5.1504 0
      vertex -3.19334 -6.7862 0
      vertex -2.59725 -5.51944 0
    endloop
  endfacet
  facet normal 0 0 1
    outer loop
      vertex -4.0187 -6.33246 0
      vertex -3.26854 -5.1504 0
      vertex -3.88829 -4.70013 0
    endloop
  endfacet
  facet normal 0 0 1
    outer loop
      vertex -3.26854 -5.1504 0
      vertex -4.0187 -6.33246 0
      vertex -3.19334 -6.7862 0
    endloop
  endfacet
  facet normal 0 0 1
    outer loop
      vertex -4.78068 -5.77885 0
      vertex -3.88829 -4.70013 0
      vertex -4.44671 -4.17574 0
    endloop
  endfacet
  facet normal 0 0 1
    outer loop
      vertex -3.88829 -4.70013 0
      vertex -4.78068 -5.77885 0
      vertex -4.0187 -6.33246 0
    endloop
  endfacet
  facet normal 0 0 1
    outer loop
      vertex -5.46726 -5.1341 0
      vertex -4.44671 -4.17574 0
      vertex -4.935 -3.58549 0
    endloop
  endfacet
  facet normal 0 0 1
    outer loop
      vertex -6.06763 -4.40839 0
      vertex -4.935 -3.58549 0
      vertex -5.34547 -2.9387 0
    endloop
  endfacet
  facet normal 0 0 1
    outer loop
      vertex -4.44671 -4.17574 0
      vertex -5.46726 -5.1341 0
      vertex -4.78068 -5.77885 0
    endloop
  endfacet
  facet normal 0 0 1
    outer loop
      vertex -6.5723 -3.61315 0
      vertex -5.34547 -2.9387 0
      vertex -5.67164 -2.24556 0
    endloop
  endfacet
  facet normal 0 0 1
    outer loop
      vertex -6.97332 -2.76093 0
      vertex -5.67164 -2.24556 0
      vertex -5.90836 -1.51701 0
    endloop
  endfacet
  facet normal 0 0 1
    outer loop
      vertex -7.26437 -1.86517 0
      vertex -5.90836 -1.51701 0
      vertex -6.0519 -0.764532 0
    endloop
  endfacet
  facet normal 0 0 1
    outer loop
      vertex -4.935 -3.58549 0
      vertex -6.06763 -4.40839 0
      vertex -5.46726 -5.1341 0
    endloop
  endfacet
  facet normal 0 0 1
    outer loop
      vertex -7.44086 -0.939999 0
      vertex -6.0519 -0.764532 0
      vertex -6.1 0 0
    endloop
  endfacet
  facet normal 0 0 1
    outer loop
      vertex -5.90836 1.51701 0
      vertex -7.26437 1.86517 0
      vertex -6.0519 0.764532 0
    endloop
  endfacet
  facet normal 0 0 1
    outer loop
      vertex -5.34547 -2.9387 0
      vertex -6.5723 -3.61315 0
      vertex -6.06763 -4.40839 0
    endloop
  endfacet
  facet normal -0 0 1
    outer loop
      vertex -7.44086 0.939999 0
      vertex -6.0519 0.764532 0
      vertex -7.26437 1.86517 0
    endloop
  endfacet
  facet normal 0 0 1
    outer loop
      vertex -5.67164 -2.24556 0
      vertex -6.97332 -2.76093 0
      vertex -6.5723 -3.61315 0
    endloop
  endfacet
  facet normal 0 0 1
    outer loop
      vertex -6.0519 0.764532 0
      vertex -7.44086 0.939999 0
      vertex -6.1 0 0
    endloop
  endfacet
  facet normal 0 0 1
    outer loop
      vertex -5.90836 -1.51701 0
      vertex -7.26437 -1.86517 0
      vertex -6.97332 -2.76093 0
    endloop
  endfacet
  facet normal 0 0 1
    outer loop
      vertex -7.5 0 0
      vertex -6.1 0 0
      vertex -7.44086 0.939999 0
    endloop
  endfacet
  facet normal 0 0 1
    outer loop
      vertex -6.0519 -0.764532 0
      vertex -7.44086 -0.939999 0
      vertex -7.26437 -1.86517 0
    endloop
  endfacet
  facet normal 0 0 1
    outer loop
      vertex -6.1 0 0
      vertex -7.5 0 0
      vertex -7.44086 -0.939999 0
    endloop
  endfacet
  facet normal 0 0 -1
    outer loop
      vertex 2.875 0 -85
      vertex 7.5 0 -85
      vertex 7.44086 -0.939999 -85
    endloop
  endfacet
  facet normal 0 0 -1
    outer loop
      vertex 2.85233 -0.360332 -85
      vertex 7.44086 -0.939999 -85
      vertex 7.26437 -1.86517 -85
    endloop
  endfacet
  facet normal 0 0 -1
    outer loop
      vertex 7.5 0 -85
      vertex 2.875 0 -85
      vertex 7.44086 0.939999 -85
    endloop
  endfacet
  facet normal 0 0 -1
    outer loop
      vertex 2.78468 -0.714983 -85
      vertex 7.26437 -1.86517 -85
      vertex 6.97332 -2.76093 -85
    endloop
  endfacet
  facet normal 0 0 -1
    outer loop
      vertex 2.85233 0.360332 -85
      vertex 7.44086 0.939999 -85
      vertex 2.875 0 -85
    endloop
  endfacet
  facet normal 0 0 -1
    outer loop
      vertex 2.67311 -1.05836 -85
      vertex 6.97332 -2.76093 -85
      vertex 6.5723 -3.61315 -85
    endloop
  endfacet
  facet normal -0 0 -1
    outer loop
      vertex 7.44086 0.939999 -85
      vertex 2.85233 0.360332 -85
      vertex 7.26437 1.86517 -85
    endloop
  endfacet
  facet normal 0 0 -1
    outer loop
      vertex 2.51938 -1.38504 -85
      vertex 6.5723 -3.61315 -85
      vertex 6.06763 -4.40839 -85
    endloop
  endfacet
  facet normal 0 0 -1
    outer loop
      vertex 2.78468 0.714983 -85
      vertex 7.26437 1.86517 -85
      vertex 2.85233 0.360332 -85
    endloop
  endfacet
  facet normal 0 0 -1
    outer loop
      vertex 2.32592 -1.68988 -85
      vertex 6.06763 -4.40839 -85
      vertex 5.46726 -5.1341 -85
    endloop
  endfacet
  facet normal -0 0 -1
    outer loop
      vertex 7.26437 1.86517 -85
      vertex 2.78468 0.714983 -85
      vertex 6.97332 2.76093 -85
    endloop
  endfacet
  facet normal 0 0 -1
    outer loop
      vertex 2.09578 -1.96807 -85
      vertex 5.46726 -5.1341 -85
      vertex 4.78068 -5.77885 -85
    endloop
  endfacet
  facet normal 0 0 -1
    outer loop
      vertex 2.67311 1.05836 -85
      vertex 6.97332 2.76093 -85
      vertex 2.78468 0.714983 -85
    endloop
  endfacet
  facet normal 0 0 -1
    outer loop
      vertex 1.83259 -2.21523 -85
      vertex 4.78068 -5.77885 -85
      vertex 4.0187 -6.33246 -85
    endloop
  endfacet
  facet normal -0 0 -1
    outer loop
      vertex 6.97332 2.76093 -85
      vertex 2.67311 1.05836 -85
      vertex 6.5723 3.61315 -85
    endloop
  endfacet
  facet normal 0 0 -1
    outer loop
      vertex 1.5405 -2.42744 -85
      vertex 4.0187 -6.33246 -85
      vertex 3.19334 -6.7862 -85
    endloop
  endfacet
  facet normal 0 0 -1
    outer loop
      vertex 2.51938 1.38504 -85
      vertex 6.5723 3.61315 -85
      vertex 2.67311 1.05836 -85
    endloop
  endfacet
  facet normal -0 0 -1
    outer loop
      vertex 6.5723 3.61315 -85
      vertex 2.51938 1.38504 -85
      vertex 6.06763 4.40839 -85
    endloop
  endfacet
  facet normal 0 0 -1
    outer loop
      vertex 7.44086 -0.939999 -85
      vertex 2.85233 -0.360332 -85
      vertex 2.875 0 -85
    endloop
  endfacet
  facet normal 0 0 -1
    outer loop
      vertex 7.26437 -1.86517 -85
      vertex 2.78468 -0.714983 -85
      vertex 2.85233 -0.360332 -85
    endloop
  endfacet
  facet normal 0 0 -1
    outer loop
      vertex 6.97332 -2.76093 -85
      vertex 2.67311 -1.05836 -85
      vertex 2.78468 -0.714983 -85
    endloop
  endfacet
  facet normal 0 0 -1
    outer loop
      vertex 6.5723 -3.61315 -85
      vertex 2.51938 -1.38504 -85
      vertex 2.67311 -1.05836 -85
    endloop
  endfacet
  facet normal 0 0 -1
    outer loop
      vertex 6.06763 -4.40839 -85
      vertex 2.32592 -1.68988 -85
      vertex 2.51938 -1.38504 -85
    endloop
  endfacet
  facet normal 0 0 -1
    outer loop
      vertex 1.22412 -2.60138 -85
      vertex 3.19334 -6.7862 -85
      vertex 2.31763 -7.13292 -85
    endloop
  endfacet
  facet normal 0 0 -1
    outer loop
      vertex 5.46726 -5.1341 -85
      vertex 2.09578 -1.96807 -85
      vertex 2.32592 -1.68988 -85
    endloop
  endfacet
  facet normal 0 0 -1
    outer loop
      vertex 4.78068 -5.77885 -85
      vertex 1.83259 -2.21523 -85
      vertex 2.09578 -1.96807 -85
    endloop
  endfacet
  facet normal 0 0 -1
    outer loop
      vertex 4.0187 -6.33246 -85
      vertex 1.5405 -2.42744 -85
      vertex 1.83259 -2.21523 -85
    endloop
  endfacet
  facet normal 0 0 -1
    outer loop
      vertex 0.888423 -2.73429 -85
      vertex 2.31763 -7.13292 -85
      vertex 1.40536 -7.36715 -85
    endloop
  endfacet
  facet normal 0 0 -1
    outer loop
      vertex 3.19334 -6.7862 -85
      vertex 1.22412 -2.60138 -85
      vertex 1.5405 -2.42744 -85
    endloop
  endfacet
  facet normal 0 0 -1
    outer loop
      vertex 2.31763 -7.13292 -85
      vertex 0.888423 -2.73429 -85
      vertex 1.22412 -2.60138 -85
    endloop
  endfacet
  facet normal 0 0 -1
    outer loop
      vertex 1.40536 -7.36715 -85
      vertex 0.538721 -2.82408 -85
      vertex 0.888423 -2.73429 -85
    endloop
  endfacet
  facet normal 0 0 -1
    outer loop
      vertex 0.470928 -7.4852 -85
      vertex 0.538721 -2.82408 -85
      vertex 1.40536 -7.36715 -85
    endloop
  endfacet
  facet normal 0 0 -1
    outer loop
      vertex 0.470928 -7.4852 -85
      vertex 0.180522 -2.86933 -85
      vertex 0.538721 -2.82408 -85
    endloop
  endfacet
  facet normal 0 0 -1
    outer loop
      vertex 0.470928 -7.4852 -85
      vertex -0.180522 -2.86933 -85
      vertex 0.180522 -2.86933 -85
    endloop
  endfacet
  facet normal 0 0 -1
    outer loop
      vertex -0.470928 -7.4852 -85
      vertex -0.180522 -2.86933 -85
      vertex 0.470928 -7.4852 -85
    endloop
  endfacet
  facet normal 0 0 -1
    outer loop
      vertex -0.470928 -7.4852 -85
      vertex -0.538721 -2.82408 -85
      vertex -0.180522 -2.86933 -85
    endloop
  endfacet
  facet normal 0 0 -1
    outer loop
      vertex -1.40536 -7.36715 -85
      vertex -0.538721 -2.82408 -85
      vertex -0.470928 -7.4852 -85
    endloop
  endfacet
  facet normal -0 0 -1
    outer loop
      vertex -0.538721 -2.82408 -85
      vertex -1.40536 -7.36715 -85
      vertex -0.888423 -2.73429 -85
    endloop
  endfacet
  facet normal 0 0 -1
    outer loop
      vertex -2.31763 -7.13292 -85
      vertex -0.888423 -2.73429 -85
      vertex -1.40536 -7.36715 -85
    endloop
  endfacet
  facet normal -0 0 -1
    outer loop
      vertex -0.888423 -2.73429 -85
      vertex -2.31763 -7.13292 -85
      vertex -1.22412 -2.60138 -85
    endloop
  endfacet
  facet normal 0 0 -1
    outer loop
      vertex -3.19334 -6.7862 -85
      vertex -1.22412 -2.60138 -85
      vertex -2.31763 -7.13292 -85
    endloop
  endfacet
  facet normal -0 0 -1
    outer loop
      vertex -1.22412 -2.60138 -85
      vertex -3.19334 -6.7862 -85
      vertex -1.5405 -2.42744 -85
    endloop
  endfacet
  facet normal 0 0 -1
    outer loop
      vertex -4.0187 -6.33246 -85
      vertex -1.5405 -2.42744 -85
      vertex -3.19334 -6.7862 -85
    endloop
  endfacet
  facet normal -0 0 -1
    outer loop
      vertex -1.5405 -2.42744 -85
      vertex -4.0187 -6.33246 -85
      vertex -1.83259 -2.21523 -85
    endloop
  endfacet
  facet normal 0 0 -1
    outer loop
      vertex -4.78068 -5.77885 -85
      vertex -1.83259 -2.21523 -85
      vertex -4.0187 -6.33246 -85
    endloop
  endfacet
  facet normal -0 0 -1
    outer loop
      vertex -1.83259 -2.21523 -85
      vertex -4.78068 -5.77885 -85
      vertex -2.09578 -1.96807 -85
    endloop
  endfacet
  facet normal 0 0 -1
    outer loop
      vertex -5.46726 -5.1341 -85
      vertex -2.09578 -1.96807 -85
      vertex -4.78068 -5.77885 -85
    endloop
  endfacet
  facet normal -0 0 -1
    outer loop
      vertex -2.09578 -1.96807 -85
      vertex -5.46726 -5.1341 -85
      vertex -2.32592 -1.68988 -85
    endloop
  endfacet
  facet normal -0 0 -1
    outer loop
      vertex -2.32592 -1.68988 -85
      vertex -6.06763 -4.40839 -85
      vertex -2.51938 -1.38504 -85
    endloop
  endfacet
  facet normal 0 0 -1
    outer loop
      vertex -6.06763 -4.40839 -85
      vertex -2.32592 -1.68988 -85
      vertex -5.46726 -5.1341 -85
    endloop
  endfacet
  facet normal 0 0 -1
    outer loop
      vertex 2.32592 1.68988 -85
      vertex 6.06763 4.40839 -85
      vertex 2.51938 1.38504 -85
    endloop
  endfacet
  facet normal -0 0 -1
    outer loop
      vertex 6.06763 4.40839 -85
      vertex 2.32592 1.68988 -85
      vertex 5.46726 5.1341 -85
    endloop
  endfacet
  facet normal 0 0 -1
    outer loop
      vertex 2.09578 1.96807 -85
      vertex 5.46726 5.1341 -85
      vertex 2.32592 1.68988 -85
    endloop
  endfacet
  facet normal -0 0 -1
    outer loop
      vertex 5.46726 5.1341 -85
      vertex 2.09578 1.96807 -85
      vertex 4.78068 5.77885 -85
    endloop
  endfacet
  facet normal 0 0 -1
    outer loop
      vertex 1.83259 2.21523 -85
      vertex 4.78068 5.77885 -85
      vertex 2.09578 1.96807 -85
    endloop
  endfacet
  facet normal -0 0 -1
    outer loop
      vertex 4.78068 5.77885 -85
      vertex 1.83259 2.21523 -85
      vertex 4.0187 6.33246 -85
    endloop
  endfacet
  facet normal 0 0 -1
    outer loop
      vertex 1.5405 2.42744 -85
      vertex 4.0187 6.33246 -85
      vertex 1.83259 2.21523 -85
    endloop
  endfacet
  facet normal -0 0 -1
    outer loop
      vertex 4.0187 6.33246 -85
      vertex 1.5405 2.42744 -85
      vertex 3.19334 6.7862 -85
    endloop
  endfacet
  facet normal 0 0 -1
    outer loop
      vertex 1.22412 2.60138 -85
      vertex 3.19334 6.7862 -85
      vertex 1.5405 2.42744 -85
    endloop
  endfacet
  facet normal -0 0 -1
    outer loop
      vertex 3.19334 6.7862 -85
      vertex 1.22412 2.60138 -85
      vertex 2.31763 7.13292 -85
    endloop
  endfacet
  facet normal 0 0 -1
    outer loop
      vertex 0.888423 2.73429 -85
      vertex 2.31763 7.13292 -85
      vertex 1.22412 2.60138 -85
    endloop
  endfacet
  facet normal -0 0 -1
    outer loop
      vertex 2.31763 7.13292 -85
      vertex 0.888423 2.73429 -85
      vertex 1.40536 7.36715 -85
    endloop
  endfacet
  facet normal 0 0 -1
    outer loop
      vertex 0.538721 2.82408 -85
      vertex 1.40536 7.36715 -85
      vertex 0.888423 2.73429 -85
    endloop
  endfacet
  facet normal 0 0 -1
    outer loop
      vertex 0.538721 2.82408 -85
      vertex 0.470928 7.4852 -85
      vertex 1.40536 7.36715 -85
    endloop
  endfacet
  facet normal 0 0 -1
    outer loop
      vertex 0.180522 2.86933 -85
      vertex 0.470928 7.4852 -85
      vertex 0.538721 2.82408 -85
    endloop
  endfacet
  facet normal 0 0 -1
    outer loop
      vertex -0.180522 2.86933 -85
      vertex 0.470928 7.4852 -85
      vertex 0.180522 2.86933 -85
    endloop
  endfacet
  facet normal 0 0 -1
    outer loop
      vertex -0.180522 2.86933 -85
      vertex -0.470928 7.4852 -85
      vertex 0.470928 7.4852 -85
    endloop
  endfacet
  facet normal 0 0 -1
    outer loop
      vertex -0.538721 2.82408 -85
      vertex -0.470928 7.4852 -85
      vertex -0.180522 2.86933 -85
    endloop
  endfacet
  facet normal 0 0 -1
    outer loop
      vertex -1.40536 7.36715 -85
      vertex -0.538721 2.82408 -85
      vertex -0.888423 2.73429 -85
    endloop
  endfacet
  facet normal 0 0 -1
    outer loop
      vertex -2.31763 7.13292 -85
      vertex -0.888423 2.73429 -85
      vertex -1.22412 2.60138 -85
    endloop
  endfacet
  facet normal 0 0 -1
    outer loop
      vertex -0.538721 2.82408 -85
      vertex -1.40536 7.36715 -85
      vertex -0.470928 7.4852 -85
    endloop
  endfacet
  facet normal 0 0 -1
    outer loop
      vertex -3.19334 6.7862 -85
      vertex -1.22412 2.60138 -85
      vertex -1.5405 2.42744 -85
    endloop
  endfacet
  facet normal 0 0 -1
    outer loop
      vertex -4.0187 6.33246 -85
      vertex -1.5405 2.42744 -85
      vertex -1.83259 2.21523 -85
    endloop
  endfacet
  facet normal 0 0 -1
    outer loop
      vertex -4.78068 5.77885 -85
      vertex -1.83259 2.21523 -85
      vertex -2.09578 1.96807 -85
    endloop
  endfacet
  facet normal 0 0 -1
    outer loop
      vertex -0.888423 2.73429 -85
      vertex -2.31763 7.13292 -85
      vertex -1.40536 7.36715 -85
    endloop
  endfacet
  facet normal 0 0 -1
    outer loop
      vertex -5.46726 5.1341 -85
      vertex -2.09578 1.96807 -85
      vertex -2.32592 1.68988 -85
    endloop
  endfacet
  facet normal 0 0 -1
    outer loop
      vertex -6.06763 4.40839 -85
      vertex -2.32592 1.68988 -85
      vertex -2.51938 1.38504 -85
    endloop
  endfacet
  facet normal 0 0 -1
    outer loop
      vertex -6.5723 3.61315 -85
      vertex -2.51938 1.38504 -85
      vertex -2.67311 1.05836 -85
    endloop
  endfacet
  facet normal 0 0 -1
    outer loop
      vertex -6.97332 2.76093 -85
      vertex -2.67311 1.05836 -85
      vertex -2.78468 0.714983 -85
    endloop
  endfacet
  facet normal 0 0 -1
    outer loop
      vertex -7.26437 1.86517 -85
      vertex -2.78468 0.714983 -85
      vertex -2.85233 0.360332 -85
    endloop
  endfacet
  facet normal 0 0 -1
    outer loop
      vertex -1.22412 2.60138 -85
      vertex -3.19334 6.7862 -85
      vertex -2.31763 7.13292 -85
    endloop
  endfacet
  facet normal 0 0 -1
    outer loop
      vertex -7.44086 0.939999 -85
      vertex -2.85233 0.360332 -85
      vertex -2.875 0 -85
    endloop
  endfacet
  facet normal 0 0 -1
    outer loop
      vertex -6.5723 -3.61315 -85
      vertex -2.51938 -1.38504 -85
      vertex -6.06763 -4.40839 -85
    endloop
  endfacet
  facet normal -0 0 -1
    outer loop
      vertex -2.51938 -1.38504 -85
      vertex -6.5723 -3.61315 -85
      vertex -2.67311 -1.05836 -85
    endloop
  endfacet
  facet normal 0 0 -1
    outer loop
      vertex -1.5405 2.42744 -85
      vertex -4.0187 6.33246 -85
      vertex -3.19334 6.7862 -85
    endloop
  endfacet
  facet normal 0 0 -1
    outer loop
      vertex -6.97332 -2.76093 -85
      vertex -2.67311 -1.05836 -85
      vertex -6.5723 -3.61315 -85
    endloop
  endfacet
  facet normal 0 0 -1
    outer loop
      vertex -1.83259 2.21523 -85
      vertex -4.78068 5.77885 -85
      vertex -4.0187 6.33246 -85
    endloop
  endfacet
  facet normal -0 0 -1
    outer loop
      vertex -2.67311 -1.05836 -85
      vertex -6.97332 -2.76093 -85
      vertex -2.78468 -0.714983 -85
    endloop
  endfacet
  facet normal 0 0 -1
    outer loop
      vertex -2.09578 1.96807 -85
      vertex -5.46726 5.1341 -85
      vertex -4.78068 5.77885 -85
    endloop
  endfacet
  facet normal 0 0 -1
    outer loop
      vertex -7.26437 -1.86517 -85
      vertex -2.78468 -0.714983 -85
      vertex -6.97332 -2.76093 -85
    endloop
  endfacet
  facet normal 0 0 -1
    outer loop
      vertex -2.32592 1.68988 -85
      vertex -6.06763 4.40839 -85
      vertex -5.46726 5.1341 -85
    endloop
  endfacet
  facet normal -0 0 -1
    outer loop
      vertex -2.78468 -0.714983 -85
      vertex -7.26437 -1.86517 -85
      vertex -2.85233 -0.360332 -85
    endloop
  endfacet
  facet normal 0 0 -1
    outer loop
      vertex -2.51938 1.38504 -85
      vertex -6.5723 3.61315 -85
      vertex -6.06763 4.40839 -85
    endloop
  endfacet
  facet normal 0 0 -1
    outer loop
      vertex -7.44086 -0.939999 -85
      vertex -2.85233 -0.360332 -85
      vertex -7.26437 -1.86517 -85
    endloop
  endfacet
  facet normal 0 0 -1
    outer loop
      vertex -2.67311 1.05836 -85
      vertex -6.97332 2.76093 -85
      vertex -6.5723 3.61315 -85
    endloop
  endfacet
  facet normal -0 0 -1
    outer loop
      vertex -2.85233 -0.360332 -85
      vertex -7.44086 -0.939999 -85
      vertex -2.875 0 -85
    endloop
  endfacet
  facet normal 0 0 -1
    outer loop
      vertex -2.78468 0.714983 -85
      vertex -7.26437 1.86517 -85
      vertex -6.97332 2.76093 -85
    endloop
  endfacet
  facet normal 0 0 -1
    outer loop
      vertex -7.5 0 -85
      vertex -2.875 0 -85
      vertex -7.44086 -0.939999 -85
    endloop
  endfacet
  facet normal 0 0 -1
    outer loop
      vertex -2.85233 0.360332 -85
      vertex -7.44086 0.939999 -85
      vertex -7.26437 1.86517 -85
    endloop
  endfacet
  facet normal 0 0 -1
    outer loop
      vertex -2.875 0 -85
      vertex -7.5 0 -85
      vertex -7.44086 0.939999 -85
    endloop
  endfacet
  facet normal -0.594271 0.491617 0.636517
    outer loop
      vertex 4.44671 -4.17574 0
      vertex 4.935 -3.58549 0
      vertex 2.09578 -1.96807 -3.9
    endloop
  endfacet
  facet normal -0.769741 -0.0484277 0.636517
    outer loop
      vertex 6.1 0 0
      vertex 6.0519 0.764532 0
      vertex 2.875 0 -3.9
    endloop
  endfacet
  facet normal -0.769741 -0.0484276 0.636517
    outer loop
      vertex 2.875 0 -3.9
      vertex 6.0519 0.764532 0
      vertex 2.85233 0.360332 -3.9
    endloop
  endfacet
  facet normal -0.769741 0.0484276 0.636517
    outer loop
      vertex 6.0519 -0.764532 0
      vertex 2.875 0 -3.9
      vertex 2.85233 -0.360332 -3.9
    endloop
  endfacet
  facet normal 0.757603 0.144513 0.636517
    outer loop
      vertex -2.78468 -0.714983 -3.9
      vertex -2.85233 -0.360332 -3.9
      vertex -6.0519 -0.764532 0
    endloop
  endfacet
  facet normal 0.19181 -0.747032 0.636516
    outer loop
      vertex -0.538721 2.82408 -3.9
      vertex -1.14303 5.99195 0
      vertex -1.885 5.80144 0
    endloop
  endfacet
  facet normal -0.0966635 0.765182 0.636516
    outer loop
      vertex 0.383021 -6.08796 0
      vertex 1.14303 -5.99195 0
      vertex 0.180522 -2.86933 -3.9
    endloop
  endfacet
  facet normal -0.757602 0.144518 0.636517
    outer loop
      vertex 5.90836 -1.51701 0
      vertex 6.0519 -0.764532 0
      vertex 2.78468 -0.714983 -3.9
    endloop
  endfacet
  facet normal -0.697858 0.32839 0.636517
    outer loop
      vertex 5.34547 -2.9387 0
      vertex 5.67164 -2.24556 0
      vertex 2.51938 -1.38504 -3.9
    endloop
  endfacet
  facet normal -0.651197 0.413267 0.636517
    outer loop
      vertex 4.935 -3.58549 0
      vertex 5.34547 -2.9387 0
      vertex 2.51938 -1.38504 -3.9
    endloop
  endfacet
  facet normal 0.527975 0.562218 0.636516
    outer loop
      vertex -1.83259 -2.21523 -3.9
      vertex -2.09578 -1.96807 -3.9
      vertex -3.88829 -4.70013 0
    endloop
  endfacet
  facet normal 0.651197 -0.413267 0.636517
    outer loop
      vertex -2.51938 1.38504 -3.9
      vertex -4.935 3.58549 0
      vertex -5.34547 2.9387 0
    endloop
  endfacet
  facet normal -0.733515 0.238333 0.636517
    outer loop
      vertex 5.67164 -2.24556 0
      vertex 5.90836 -1.51701 0
      vertex 2.78468 -0.714983 -3.9
    endloop
  endfacet
  facet normal -0.769741 0.0484277 0.636517
    outer loop
      vertex 6.0519 -0.764532 0
      vertex 6.1 0 0
      vertex 2.875 0 -3.9
    endloop
  endfacet
  facet normal -0.733515 0.238333 0.636517
    outer loop
      vertex 5.67164 -2.24556 0
      vertex 2.78468 -0.714983 -3.9
      vertex 2.67311 -1.05836 -3.9
    endloop
  endfacet
  facet normal -0.697855 0.328399 0.636516
    outer loop
      vertex 5.67164 -2.24556 0
      vertex 2.67311 -1.05836 -3.9
      vertex 2.51938 -1.38504 -3.9
    endloop
  endfacet
  facet normal -0.371555 0.675866 0.636516
    outer loop
      vertex 2.59725 -5.51944 0
      vertex 3.26854 -5.1504 0
      vertex 1.22412 -2.60138 -3.9
    endloop
  endfacet
  facet normal 0.651197 0.413267 0.636517
    outer loop
      vertex -4.935 -3.58549 0
      vertex -2.51938 -1.38504 -3.9
      vertex -5.34547 -2.9387 0
    endloop
  endfacet
  facet normal 0.651196 -0.413267 0.636517
    outer loop
      vertex -2.51938 1.38504 -3.9
      vertex -2.32592 1.68988 -3.9
      vertex -4.935 3.58549 0
    endloop
  endfacet
  facet normal -0.651197 -0.413267 0.636517
    outer loop
      vertex 5.34547 2.9387 0
      vertex 4.935 3.58549 0
      vertex 2.51938 1.38504 -3.9
    endloop
  endfacet
  facet normal -0.757603 0.144513 0.636517
    outer loop
      vertex 6.0519 -0.764532 0
      vertex 2.85233 -0.360332 -3.9
      vertex 2.78468 -0.714983 -3.9
    endloop
  endfacet
  facet normal -0.651196 0.413267 0.636517
    outer loop
      vertex 4.935 -3.58549 0
      vertex 2.51938 -1.38504 -3.9
      vertex 2.32592 -1.68988 -3.9
    endloop
  endfacet
  facet normal -0.594267 0.491623 0.636517
    outer loop
      vertex 4.935 -3.58549 0
      vertex 2.32592 -1.68988 -3.9
      vertex 2.09578 -1.96807 -3.9
    endloop
  endfacet
  facet normal -0.283918 0.717104 0.636516
    outer loop
      vertex 1.885 -5.80144 0
      vertex 1.22412 -2.60138 -3.9
      vertex 0.888423 -2.73429 -3.9
    endloop
  endfacet
  facet normal -0.283921 0.717103 0.636516
    outer loop
      vertex 1.885 -5.80144 0
      vertex 2.59725 -5.51944 0
      vertex 1.22412 -2.60138 -3.9
    endloop
  endfacet
  facet normal -0.19181 0.747032 0.636516
    outer loop
      vertex 1.14303 -5.99195 0
      vertex 1.885 -5.80144 0
      vertex 0.538721 -2.82408 -3.9
    endloop
  endfacet
  facet normal -0.0966627 0.765182 0.636516
    outer loop
      vertex 1.14303 -5.99195 0
      vertex 0.538721 -2.82408 -3.9
      vertex 0.180522 -2.86933 -3.9
    endloop
  endfacet
  facet normal -0.453334 0.623967 0.636517
    outer loop
      vertex 3.26854 -5.1504 0
      vertex 3.88829 -4.70013 0
      vertex 1.83259 -2.21523 -3.9
    endloop
  endfacet
  facet normal 0.697858 0.32839 0.636517
    outer loop
      vertex -5.34547 -2.9387 0
      vertex -2.51938 -1.38504 -3.9
      vertex -5.67164 -2.24556 0
    endloop
  endfacet
  facet normal 0.757602 0.144518 0.636517
    outer loop
      vertex -5.90836 -1.51701 0
      vertex -2.78468 -0.714983 -3.9
      vertex -6.0519 -0.764532 0
    endloop
  endfacet
  facet normal 0.191809 0.747032 0.636516
    outer loop
      vertex -0.538721 -2.82408 -3.9
      vertex -0.888423 -2.73429 -3.9
      vertex -1.885 -5.80144 0
    endloop
  endfacet
  facet normal 0 0.771264 0.636516
    outer loop
      vertex 0.180522 -2.86933 -3.9
      vertex -0.383021 -6.08796 0
      vertex 0.383021 -6.08796 0
    endloop
  endfacet
  facet normal 0 0.771264 0.636516
    outer loop
      vertex -0.383021 -6.08796 0
      vertex 0.180522 -2.86933 -3.9
      vertex -0.180522 -2.86933 -3.9
    endloop
  endfacet
  facet normal 0.453329 0.62397 0.636517
    outer loop
      vertex -1.5405 -2.42744 -3.9
      vertex -1.83259 -2.21523 -3.9
      vertex -3.26854 -5.1504 0
    endloop
  endfacet
  facet normal 0.453334 0.623967 0.636517
    outer loop
      vertex -3.26854 -5.1504 0
      vertex -1.83259 -2.21523 -3.9
      vertex -3.88829 -4.70013 0
    endloop
  endfacet
  facet normal 0.594271 0.491617 0.636517
    outer loop
      vertex -4.44671 -4.17574 0
      vertex -2.09578 -1.96807 -3.9
      vertex -4.935 -3.58549 0
    endloop
  endfacet
  facet normal 0.191809 -0.747032 0.636516
    outer loop
      vertex -0.888423 2.73429 -3.9
      vertex -0.538721 2.82408 -3.9
      vertex -1.885 5.80144 0
    endloop
  endfacet
  facet normal 0.453334 -0.623967 0.636517
    outer loop
      vertex -1.83259 2.21523 -3.9
      vertex -3.26854 5.1504 0
      vertex -3.88829 4.70013 0
    endloop
  endfacet
  facet normal 0.769741 0.0484276 0.636517
    outer loop
      vertex -2.85233 -0.360332 -3.9
      vertex -2.875 0 -3.9
      vertex -6.0519 -0.764532 0
    endloop
  endfacet
  facet normal -0.371573 -0.675855 0.636517
    outer loop
      vertex 1.5405 2.42744 -3.9
      vertex 3.26854 5.1504 0
      vertex 1.22412 2.60138 -3.9
    endloop
  endfacet
  facet normal -0.0966635 -0.765182 0.636516
    outer loop
      vertex 1.14303 5.99195 0
      vertex 0.383021 6.08796 0
      vertex 0.180522 2.86933 -3.9
    endloop
  endfacet
  facet normal -0.191809 0.747032 0.636516
    outer loop
      vertex 1.885 -5.80144 0
      vertex 0.888423 -2.73429 -3.9
      vertex 0.538721 -2.82408 -3.9
    endloop
  endfacet
  facet normal -0.527975 0.562218 0.636516
    outer loop
      vertex 3.88829 -4.70013 0
      vertex 2.09578 -1.96807 -3.9
      vertex 1.83259 -2.21523 -3.9
    endloop
  endfacet
  facet normal -0.527965 0.562227 0.636518
    outer loop
      vertex 3.88829 -4.70013 0
      vertex 4.44671 -4.17574 0
      vertex 2.09578 -1.96807 -3.9
    endloop
  endfacet
  facet normal -0.453329 0.62397 0.636517
    outer loop
      vertex 3.26854 -5.1504 0
      vertex 1.83259 -2.21523 -3.9
      vertex 1.5405 -2.42744 -3.9
    endloop
  endfacet
  facet normal -0.371573 0.675855 0.636517
    outer loop
      vertex 3.26854 -5.1504 0
      vertex 1.5405 -2.42744 -3.9
      vertex 1.22412 -2.60138 -3.9
    endloop
  endfacet
  facet normal 0.651196 0.413267 0.636517
    outer loop
      vertex -2.32592 -1.68988 -3.9
      vertex -2.51938 -1.38504 -3.9
      vertex -4.935 -3.58549 0
    endloop
  endfacet
  facet normal 0.733515 0.238333 0.636517
    outer loop
      vertex -5.67164 -2.24556 0
      vertex -2.78468 -0.714983 -3.9
      vertex -5.90836 -1.51701 0
    endloop
  endfacet
  facet normal 0.697855 0.328399 0.636516
    outer loop
      vertex -2.51938 -1.38504 -3.9
      vertex -2.67311 -1.05836 -3.9
      vertex -5.67164 -2.24556 0
    endloop
  endfacet
  facet normal 0.371555 0.675866 0.636516
    outer loop
      vertex -2.59725 -5.51944 0
      vertex -1.22412 -2.60138 -3.9
      vertex -3.26854 -5.1504 0
    endloop
  endfacet
  facet normal 0.283921 0.717103 0.636516
    outer loop
      vertex -1.885 -5.80144 0
      vertex -1.22412 -2.60138 -3.9
      vertex -2.59725 -5.51944 0
    endloop
  endfacet
  facet normal 0.19181 0.747032 0.636516
    outer loop
      vertex -1.14303 -5.99195 0
      vertex -0.538721 -2.82408 -3.9
      vertex -1.885 -5.80144 0
    endloop
  endfacet
  facet normal 0.527965 0.562227 0.636518
    outer loop
      vertex -3.88829 -4.70013 0
      vertex -2.09578 -1.96807 -3.9
      vertex -4.44671 -4.17574 0
    endloop
  endfacet
  facet normal 0.283921 -0.717103 0.636516
    outer loop
      vertex -1.22412 2.60138 -3.9
      vertex -1.885 5.80144 0
      vertex -2.59725 5.51944 0
    endloop
  endfacet
  facet normal 0.594267 -0.491623 0.636517
    outer loop
      vertex -2.32592 1.68988 -3.9
      vertex -2.09578 1.96807 -3.9
      vertex -4.935 3.58549 0
    endloop
  endfacet
  facet normal 0.697858 -0.32839 0.636517
    outer loop
      vertex -2.51938 1.38504 -3.9
      vertex -5.34547 2.9387 0
      vertex -5.67164 2.24556 0
    endloop
  endfacet
  facet normal 0.769741 -0.0484276 0.636517
    outer loop
      vertex -2.875 0 -3.9
      vertex -2.85233 0.360332 -3.9
      vertex -6.0519 0.764532 0
    endloop
  endfacet
  facet normal -0.527965 -0.562227 0.636518
    outer loop
      vertex 4.44671 4.17574 0
      vertex 3.88829 4.70013 0
      vertex 2.09578 1.96807 -3.9
    endloop
  endfacet
  facet normal -0.0966627 -0.765182 0.636516
    outer loop
      vertex 0.538721 2.82408 -3.9
      vertex 1.14303 5.99195 0
      vertex 0.180522 2.86933 -3.9
    endloop
  endfacet
  facet normal -0.19181 -0.747032 0.636516
    outer loop
      vertex 1.885 5.80144 0
      vertex 1.14303 5.99195 0
      vertex 0.538721 2.82408 -3.9
    endloop
  endfacet
  facet normal -0.283921 -0.717103 0.636516
    outer loop
      vertex 2.59725 5.51944 0
      vertex 1.885 5.80144 0
      vertex 1.22412 2.60138 -3.9
    endloop
  endfacet
  facet normal -0.453329 -0.62397 0.636517
    outer loop
      vertex 1.83259 2.21523 -3.9
      vertex 3.26854 5.1504 0
      vertex 1.5405 2.42744 -3.9
    endloop
  endfacet
  facet normal 0.594267 0.491623 0.636517
    outer loop
      vertex -2.09578 -1.96807 -3.9
      vertex -2.32592 -1.68988 -3.9
      vertex -4.935 -3.58549 0
    endloop
  endfacet
  facet normal 0.733515 0.238333 0.636517
    outer loop
      vertex -2.67311 -1.05836 -3.9
      vertex -2.78468 -0.714983 -3.9
      vertex -5.67164 -2.24556 0
    endloop
  endfacet
  facet normal 0.371573 0.675855 0.636517
    outer loop
      vertex -1.22412 -2.60138 -3.9
      vertex -1.5405 -2.42744 -3.9
      vertex -3.26854 -5.1504 0
    endloop
  endfacet
  facet normal 0.283918 -0.717104 0.636516
    outer loop
      vertex -1.22412 2.60138 -3.9
      vertex -0.888423 2.73429 -3.9
      vertex -1.885 5.80144 0
    endloop
  endfacet
  facet normal 0.527975 -0.562218 0.636516
    outer loop
      vertex -2.09578 1.96807 -3.9
      vertex -1.83259 2.21523 -3.9
      vertex -3.88829 4.70013 0
    endloop
  endfacet
  facet normal 0.371555 -0.675866 0.636516
    outer loop
      vertex -1.22412 2.60138 -3.9
      vertex -2.59725 5.51944 0
      vertex -3.26854 5.1504 0
    endloop
  endfacet
  facet normal 0.769741 0.0484277 0.636517
    outer loop
      vertex -6.0519 -0.764532 0
      vertex -2.875 0 -3.9
      vertex -6.1 0 0
    endloop
  endfacet
  facet normal 0.769741 -0.0484277 0.636517
    outer loop
      vertex -2.875 0 -3.9
      vertex -6.0519 0.764532 0
      vertex -6.1 0 0
    endloop
  endfacet
  facet normal 0.757602 -0.144518 0.636517
    outer loop
      vertex -2.78468 0.714983 -3.9
      vertex -5.90836 1.51701 0
      vertex -6.0519 0.764532 0
    endloop
  endfacet
  facet normal 0.757603 -0.144513 0.636517
    outer loop
      vertex -2.85233 0.360332 -3.9
      vertex -2.78468 0.714983 -3.9
      vertex -6.0519 0.764532 0
    endloop
  endfacet
  facet normal -0.757602 -0.144518 0.636517
    outer loop
      vertex 6.0519 0.764532 0
      vertex 5.90836 1.51701 0
      vertex 2.78468 0.714983 -3.9
    endloop
  endfacet
  facet normal -0.757603 -0.144513 0.636517
    outer loop
      vertex 2.85233 0.360332 -3.9
      vertex 6.0519 0.764532 0
      vertex 2.78468 0.714983 -3.9
    endloop
  endfacet
  facet normal -0.527975 -0.562218 0.636516
    outer loop
      vertex 2.09578 1.96807 -3.9
      vertex 3.88829 4.70013 0
      vertex 1.83259 2.21523 -3.9
    endloop
  endfacet
  facet normal -0.453334 -0.623967 0.636517
    outer loop
      vertex 3.88829 4.70013 0
      vertex 3.26854 5.1504 0
      vertex 1.83259 2.21523 -3.9
    endloop
  endfacet
  facet normal 0 -0.771264 0.636516
    outer loop
      vertex -0.180522 2.86933 -3.9
      vertex 0.383021 6.08796 0
      vertex -0.383021 6.08796 0
    endloop
  endfacet
  facet normal 0 -0.771264 0.636516
    outer loop
      vertex 0.383021 6.08796 0
      vertex -0.180522 2.86933 -3.9
      vertex 0.180522 2.86933 -3.9
    endloop
  endfacet
  facet normal -0.191809 -0.747032 0.636516
    outer loop
      vertex 0.888423 2.73429 -3.9
      vertex 1.885 5.80144 0
      vertex 0.538721 2.82408 -3.9
    endloop
  endfacet
  facet normal -0.283918 -0.717104 0.636516
    outer loop
      vertex 1.22412 2.60138 -3.9
      vertex 1.885 5.80144 0
      vertex 0.888423 2.73429 -3.9
    endloop
  endfacet
  facet normal -0.371555 -0.675866 0.636516
    outer loop
      vertex 3.26854 5.1504 0
      vertex 2.59725 5.51944 0
      vertex 1.22412 2.60138 -3.9
    endloop
  endfacet
  facet normal 0.283918 0.717104 0.636516
    outer loop
      vertex -0.888423 -2.73429 -3.9
      vertex -1.22412 -2.60138 -3.9
      vertex -1.885 -5.80144 0
    endloop
  endfacet
  facet normal 0.0966635 0.765182 0.636516
    outer loop
      vertex -0.383021 -6.08796 0
      vertex -0.180522 -2.86933 -3.9
      vertex -1.14303 -5.99195 0
    endloop
  endfacet
  facet normal 0.0966627 0.765182 0.636516
    outer loop
      vertex -0.180522 -2.86933 -3.9
      vertex -0.538721 -2.82408 -3.9
      vertex -1.14303 -5.99195 0
    endloop
  endfacet
  facet normal 0.453329 -0.62397 0.636517
    outer loop
      vertex -1.83259 2.21523 -3.9
      vertex -1.5405 2.42744 -3.9
      vertex -3.26854 5.1504 0
    endloop
  endfacet
  facet normal 0.371573 -0.675855 0.636517
    outer loop
      vertex -1.5405 2.42744 -3.9
      vertex -1.22412 2.60138 -3.9
      vertex -3.26854 5.1504 0
    endloop
  endfacet
  facet normal 0.594271 -0.491617 0.636517
    outer loop
      vertex -2.09578 1.96807 -3.9
      vertex -4.44671 4.17574 0
      vertex -4.935 3.58549 0
    endloop
  endfacet
  facet normal 0.527965 -0.562227 0.636518
    outer loop
      vertex -2.09578 1.96807 -3.9
      vertex -3.88829 4.70013 0
      vertex -4.44671 4.17574 0
    endloop
  endfacet
  facet normal 0.733515 -0.238333 0.636517
    outer loop
      vertex -2.78468 0.714983 -3.9
      vertex -5.67164 2.24556 0
      vertex -5.90836 1.51701 0
    endloop
  endfacet
  facet normal -0.733515 -0.238333 0.636517
    outer loop
      vertex 5.90836 1.51701 0
      vertex 5.67164 2.24556 0
      vertex 2.78468 0.714983 -3.9
    endloop
  endfacet
  facet normal -0.594271 -0.491617 0.636517
    outer loop
      vertex 4.935 3.58549 0
      vertex 4.44671 4.17574 0
      vertex 2.09578 1.96807 -3.9
    endloop
  endfacet
  facet normal 0.0966627 -0.765182 0.636516
    outer loop
      vertex -0.538721 2.82408 -3.9
      vertex -0.180522 2.86933 -3.9
      vertex -1.14303 5.99195 0
    endloop
  endfacet
  facet normal 0.0966635 -0.765182 0.636516
    outer loop
      vertex -0.180522 2.86933 -3.9
      vertex -0.383021 6.08796 0
      vertex -1.14303 5.99195 0
    endloop
  endfacet
  facet normal 0.733515 -0.238333 0.636517
    outer loop
      vertex -2.78468 0.714983 -3.9
      vertex -2.67311 1.05836 -3.9
      vertex -5.67164 2.24556 0
    endloop
  endfacet
  facet normal 0.697855 -0.328399 0.636516
    outer loop
      vertex -2.67311 1.05836 -3.9
      vertex -2.51938 1.38504 -3.9
      vertex -5.67164 2.24556 0
    endloop
  endfacet
  facet normal -0.697855 -0.328399 0.636516
    outer loop
      vertex 2.67311 1.05836 -3.9
      vertex 5.67164 2.24556 0
      vertex 2.51938 1.38504 -3.9
    endloop
  endfacet
  facet normal -0.697858 -0.32839 0.636517
    outer loop
      vertex 5.67164 2.24556 0
      vertex 5.34547 2.9387 0
      vertex 2.51938 1.38504 -3.9
    endloop
  endfacet
  facet normal -0.594267 -0.491623 0.636517
    outer loop
      vertex 2.32592 1.68988 -3.9
      vertex 4.935 3.58549 0
      vertex 2.09578 1.96807 -3.9
    endloop
  endfacet
  facet normal -0.651196 -0.413267 0.636517
    outer loop
      vertex 2.51938 1.38504 -3.9
      vertex 4.935 3.58549 0
      vertex 2.32592 1.68988 -3.9
    endloop
  endfacet
  facet normal -0.733515 -0.238333 0.636517
    outer loop
      vertex 2.78468 0.714983 -3.9
      vertex 5.67164 2.24556 0
      vertex 2.67311 1.05836 -3.9
    endloop
  endfacet
  facet normal -0.998027 -0.0627901 0
    outer loop
      vertex 2.875 0 -85
      vertex 2.85233 0.360332 -3.9
      vertex 2.85233 0.360332 -85
    endloop
  endfacet
  facet normal -0.998027 -0.0627901 0
    outer loop
      vertex 2.85233 0.360332 -3.9
      vertex 2.875 0 -85
      vertex 2.875 0 -3.9
    endloop
  endfacet
  facet normal 0.998027 -0.0627901 0
    outer loop
      vertex -2.875 0 -3.9
      vertex -2.85233 0.360332 -85
      vertex -2.85233 0.360332 -3.9
    endloop
  endfacet
  facet normal 0.998027 -0.0627901 0
    outer loop
      vertex -2.85233 0.360332 -85
      vertex -2.875 0 -3.9
      vertex -2.875 0 -85
    endloop
  endfacet
  facet normal 0 -1 0
    outer loop
      vertex -0.180522 2.86933 -85
      vertex 0.180522 2.86933 -3.9
      vertex -0.180522 2.86933 -3.9
    endloop
  endfacet
  facet normal 0 -1 -0
    outer loop
      vertex 0.180522 2.86933 -3.9
      vertex -0.180522 2.86933 -85
      vertex 0.180522 2.86933 -85
    endloop
  endfacet
  facet normal 0 1 -0
    outer loop
      vertex 0.180522 -2.86933 -85
      vertex -0.180522 -2.86933 -3.9
      vertex 0.180522 -2.86933 -3.9
    endloop
  endfacet
  facet normal 0 1 0
    outer loop
      vertex -0.180522 -2.86933 -3.9
      vertex 0.180522 -2.86933 -85
      vertex -0.180522 -2.86933 -85
    endloop
  endfacet
  facet normal -0.684559 -0.728957 0
    outer loop
      vertex 1.83259 2.21523 -85
      vertex 2.09578 1.96807 -3.9
      vertex 1.83259 2.21523 -3.9
    endloop
  endfacet
  facet normal -0.684559 -0.728957 -0
    outer loop
      vertex 2.09578 1.96807 -3.9
      vertex 1.83259 2.21523 -85
      vertex 2.09578 1.96807 -85
    endloop
  endfacet
  facet normal 0.684559 -0.728957 0
    outer loop
      vertex -2.09578 1.96807 -85
      vertex -1.83259 2.21523 -3.9
      vertex -2.09578 1.96807 -3.9
    endloop
  endfacet
  facet normal 0.684559 -0.728957 0
    outer loop
      vertex -1.83259 2.21523 -3.9
      vertex -2.09578 1.96807 -85
      vertex -1.83259 2.21523 -85
    endloop
  endfacet
  facet normal 0.36812 -0.929778 0
    outer loop
      vertex -1.22412 2.60138 -85
      vertex -0.888423 2.73429 -3.9
      vertex -1.22412 2.60138 -3.9
    endloop
  endfacet
  facet normal 0.36812 -0.929778 0
    outer loop
      vertex -0.888423 2.73429 -3.9
      vertex -1.22412 2.60138 -85
      vertex -0.888423 2.73429 -85
    endloop
  endfacet
  facet normal -0.844325 0.535832 0
    outer loop
      vertex 2.32592 -1.68988 -85
      vertex 2.51938 -1.38504 -3.9
      vertex 2.51938 -1.38504 -85
    endloop
  endfacet
  facet normal -0.844325 0.535832 0
    outer loop
      vertex 2.51938 -1.38504 -3.9
      vertex 2.32592 -1.68988 -85
      vertex 2.32592 -1.68988 -3.9
    endloop
  endfacet
  facet normal -0.904821 -0.425793 0
    outer loop
      vertex 2.67311 1.05836 -85
      vertex 2.51938 1.38504 -3.9
      vertex 2.51938 1.38504 -85
    endloop
  endfacet
  facet normal -0.904821 -0.425793 0
    outer loop
      vertex 2.51938 1.38504 -3.9
      vertex 2.67311 1.05836 -85
      vertex 2.67311 1.05836 -3.9
    endloop
  endfacet
  facet normal -0.982289 -0.187373 0
    outer loop
      vertex 2.85233 0.360332 -85
      vertex 2.78468 0.714983 -3.9
      vertex 2.78468 0.714983 -85
    endloop
  endfacet
  facet normal -0.982289 -0.187373 0
    outer loop
      vertex 2.78468 0.714983 -3.9
      vertex 2.85233 0.360332 -85
      vertex 2.85233 0.360332 -3.9
    endloop
  endfacet
  facet normal -0.36812 -0.929778 0
    outer loop
      vertex 0.888423 2.73429 -85
      vertex 1.22412 2.60138 -3.9
      vertex 0.888423 2.73429 -3.9
    endloop
  endfacet
  facet normal -0.36812 -0.929778 -0
    outer loop
      vertex 1.22412 2.60138 -3.9
      vertex 0.888423 2.73429 -85
      vertex 1.22412 2.60138 -85
    endloop
  endfacet
  facet normal -0.248695 -0.968582 0
    outer loop
      vertex 0.538721 2.82408 -85
      vertex 0.888423 2.73429 -3.9
      vertex 0.538721 2.82408 -3.9
    endloop
  endfacet
  facet normal -0.248695 -0.968582 -0
    outer loop
      vertex 0.888423 2.73429 -3.9
      vertex 0.538721 2.82408 -85
      vertex 0.888423 2.73429 -85
    endloop
  endfacet
  facet normal -0.481772 -0.876297 0
    outer loop
      vertex 1.22412 2.60138 -85
      vertex 1.5405 2.42744 -3.9
      vertex 1.22412 2.60138 -3.9
    endloop
  endfacet
  facet normal -0.481772 -0.876297 -0
    outer loop
      vertex 1.5405 2.42744 -3.9
      vertex 1.22412 2.60138 -85
      vertex 1.5405 2.42744 -85
    endloop
  endfacet
  facet normal 0.904821 -0.425793 0
    outer loop
      vertex -2.67311 1.05836 -3.9
      vertex -2.51938 1.38504 -85
      vertex -2.51938 1.38504 -3.9
    endloop
  endfacet
  facet normal 0.904821 -0.425793 0
    outer loop
      vertex -2.51938 1.38504 -85
      vertex -2.67311 1.05836 -3.9
      vertex -2.67311 1.05836 -85
    endloop
  endfacet
  facet normal 0.951056 -0.309017 0
    outer loop
      vertex -2.78468 0.714983 -3.9
      vertex -2.67311 1.05836 -85
      vertex -2.67311 1.05836 -3.9
    endloop
  endfacet
  facet normal 0.951056 -0.309017 0
    outer loop
      vertex -2.67311 1.05836 -85
      vertex -2.78468 0.714983 -3.9
      vertex -2.78468 0.714983 -85
    endloop
  endfacet
  facet normal 0.12533 -0.992115 0
    outer loop
      vertex -0.538721 2.82408 -85
      vertex -0.180522 2.86933 -3.9
      vertex -0.538721 2.82408 -3.9
    endloop
  endfacet
  facet normal 0.12533 -0.992115 0
    outer loop
      vertex -0.180522 2.86933 -3.9
      vertex -0.538721 2.82408 -85
      vertex -0.180522 2.86933 -85
    endloop
  endfacet
  facet normal 0.770512 0.637426 0
    outer loop
      vertex -2.09578 -1.96807 -3.9
      vertex -2.32592 -1.68988 -85
      vertex -2.32592 -1.68988 -3.9
    endloop
  endfacet
  facet normal 0.770512 0.637426 0
    outer loop
      vertex -2.32592 -1.68988 -85
      vertex -2.09578 -1.96807 -3.9
      vertex -2.09578 -1.96807 -85
    endloop
  endfacet
  facet normal -0.12533 0.992115 0
    outer loop
      vertex 0.538721 -2.82408 -85
      vertex 0.180522 -2.86933 -3.9
      vertex 0.538721 -2.82408 -3.9
    endloop
  endfacet
  facet normal -0.12533 0.992115 0
    outer loop
      vertex 0.180522 -2.86933 -3.9
      vertex 0.538721 -2.82408 -85
      vertex 0.180522 -2.86933 -85
    endloop
  endfacet
  facet normal -0.36812 0.929778 0
    outer loop
      vertex 1.22412 -2.60138 -85
      vertex 0.888423 -2.73429 -3.9
      vertex 1.22412 -2.60138 -3.9
    endloop
  endfacet
  facet normal -0.36812 0.929778 0
    outer loop
      vertex 0.888423 -2.73429 -3.9
      vertex 1.22412 -2.60138 -85
      vertex 0.888423 -2.73429 -85
    endloop
  endfacet
  facet normal -0.951056 -0.309017 0
    outer loop
      vertex 2.78468 0.714983 -85
      vertex 2.67311 1.05836 -3.9
      vertex 2.67311 1.05836 -85
    endloop
  endfacet
  facet normal -0.951056 -0.309017 0
    outer loop
      vertex 2.67311 1.05836 -3.9
      vertex 2.78468 0.714983 -85
      vertex 2.78468 0.714983 -3.9
    endloop
  endfacet
  facet normal -0.770512 -0.637426 0
    outer loop
      vertex 2.32592 1.68988 -85
      vertex 2.09578 1.96807 -3.9
      vertex 2.09578 1.96807 -85
    endloop
  endfacet
  facet normal -0.770512 -0.637426 0
    outer loop
      vertex 2.09578 1.96807 -3.9
      vertex 2.32592 1.68988 -85
      vertex 2.32592 1.68988 -3.9
    endloop
  endfacet
  facet normal -0.844325 -0.535832 0
    outer loop
      vertex 2.51938 1.38504 -85
      vertex 2.32592 1.68988 -3.9
      vertex 2.32592 1.68988 -85
    endloop
  endfacet
  facet normal -0.844325 -0.535832 0
    outer loop
      vertex 2.32592 1.68988 -3.9
      vertex 2.51938 1.38504 -85
      vertex 2.51938 1.38504 -3.9
    endloop
  endfacet
  facet normal -0.12533 -0.992115 0
    outer loop
      vertex 0.180522 2.86933 -85
      vertex 0.538721 2.82408 -3.9
      vertex 0.180522 2.86933 -3.9
    endloop
  endfacet
  facet normal -0.12533 -0.992115 -0
    outer loop
      vertex 0.538721 2.82408 -3.9
      vertex 0.180522 2.86933 -85
      vertex 0.538721 2.82408 -85
    endloop
  endfacet
  facet normal -0.587775 -0.809025 0
    outer loop
      vertex 1.5405 2.42744 -85
      vertex 1.83259 2.21523 -3.9
      vertex 1.5405 2.42744 -3.9
    endloop
  endfacet
  facet normal -0.587775 -0.809025 -0
    outer loop
      vertex 1.83259 2.21523 -3.9
      vertex 1.5405 2.42744 -85
      vertex 1.83259 2.21523 -85
    endloop
  endfacet
  facet normal 0.844325 -0.535832 0
    outer loop
      vertex -2.51938 1.38504 -3.9
      vertex -2.32592 1.68988 -85
      vertex -2.32592 1.68988 -3.9
    endloop
  endfacet
  facet normal 0.844325 -0.535832 0
    outer loop
      vertex -2.32592 1.68988 -85
      vertex -2.51938 1.38504 -3.9
      vertex -2.51938 1.38504 -85
    endloop
  endfacet
  facet normal 0.770512 -0.637426 0
    outer loop
      vertex -2.32592 1.68988 -3.9
      vertex -2.09578 1.96807 -85
      vertex -2.09578 1.96807 -3.9
    endloop
  endfacet
  facet normal 0.770512 -0.637426 0
    outer loop
      vertex -2.09578 1.96807 -85
      vertex -2.32592 1.68988 -3.9
      vertex -2.32592 1.68988 -85
    endloop
  endfacet
  facet normal 0.982289 -0.187373 0
    outer loop
      vertex -2.85233 0.360332 -3.9
      vertex -2.78468 0.714983 -85
      vertex -2.78468 0.714983 -3.9
    endloop
  endfacet
  facet normal 0.982289 -0.187373 0
    outer loop
      vertex -2.78468 0.714983 -85
      vertex -2.85233 0.360332 -3.9
      vertex -2.85233 0.360332 -85
    endloop
  endfacet
  facet normal 0.481772 -0.876297 0
    outer loop
      vertex -1.5405 2.42744 -85
      vertex -1.22412 2.60138 -3.9
      vertex -1.5405 2.42744 -3.9
    endloop
  endfacet
  facet normal 0.481772 -0.876297 0
    outer loop
      vertex -1.22412 2.60138 -3.9
      vertex -1.5405 2.42744 -85
      vertex -1.22412 2.60138 -85
    endloop
  endfacet
  facet normal 0.587775 -0.809025 0
    outer loop
      vertex -1.83259 2.21523 -85
      vertex -1.5405 2.42744 -3.9
      vertex -1.83259 2.21523 -3.9
    endloop
  endfacet
  facet normal 0.587775 -0.809025 0
    outer loop
      vertex -1.5405 2.42744 -3.9
      vertex -1.83259 2.21523 -85
      vertex -1.5405 2.42744 -85
    endloop
  endfacet
  facet normal 0.248695 -0.968582 0
    outer loop
      vertex -0.888423 2.73429 -85
      vertex -0.538721 2.82408 -3.9
      vertex -0.888423 2.73429 -3.9
    endloop
  endfacet
  facet normal 0.248695 -0.968582 0
    outer loop
      vertex -0.538721 2.82408 -3.9
      vertex -0.888423 2.73429 -85
      vertex -0.538721 2.82408 -85
    endloop
  endfacet
  facet normal -0.998027 0.0627901 0
    outer loop
      vertex 2.85233 -0.360332 -85
      vertex 2.875 0 -3.9
      vertex 2.875 0 -85
    endloop
  endfacet
  facet normal -0.998027 0.0627901 0
    outer loop
      vertex 2.875 0 -3.9
      vertex 2.85233 -0.360332 -85
      vertex 2.85233 -0.360332 -3.9
    endloop
  endfacet
  facet normal -0.481772 0.876297 0
    outer loop
      vertex 1.5405 -2.42744 -85
      vertex 1.22412 -2.60138 -3.9
      vertex 1.5405 -2.42744 -3.9
    endloop
  endfacet
  facet normal -0.481772 0.876297 0
    outer loop
      vertex 1.22412 -2.60138 -3.9
      vertex 1.5405 -2.42744 -85
      vertex 1.22412 -2.60138 -85
    endloop
  endfacet
  facet normal -0.684559 0.728957 0
    outer loop
      vertex 2.09578 -1.96807 -85
      vertex 1.83259 -2.21523 -3.9
      vertex 2.09578 -1.96807 -3.9
    endloop
  endfacet
  facet normal -0.684559 0.728957 0
    outer loop
      vertex 1.83259 -2.21523 -3.9
      vertex 2.09578 -1.96807 -85
      vertex 1.83259 -2.21523 -85
    endloop
  endfacet
  facet normal -0.982289 0.187373 0
    outer loop
      vertex 2.78468 -0.714983 -85
      vertex 2.85233 -0.360332 -3.9
      vertex 2.85233 -0.360332 -85
    endloop
  endfacet
  facet normal -0.982289 0.187373 0
    outer loop
      vertex 2.85233 -0.360332 -3.9
      vertex 2.78468 -0.714983 -85
      vertex 2.78468 -0.714983 -3.9
    endloop
  endfacet
  facet normal -0.904821 0.425793 0
    outer loop
      vertex 2.51938 -1.38504 -85
      vertex 2.67311 -1.05836 -3.9
      vertex 2.67311 -1.05836 -85
    endloop
  endfacet
  facet normal -0.904821 0.425793 0
    outer loop
      vertex 2.67311 -1.05836 -3.9
      vertex 2.51938 -1.38504 -85
      vertex 2.51938 -1.38504 -3.9
    endloop
  endfacet
  facet normal -0.770512 0.637426 0
    outer loop
      vertex 2.09578 -1.96807 -85
      vertex 2.32592 -1.68988 -3.9
      vertex 2.32592 -1.68988 -85
    endloop
  endfacet
  facet normal -0.770512 0.637426 0
    outer loop
      vertex 2.32592 -1.68988 -3.9
      vertex 2.09578 -1.96807 -85
      vertex 2.09578 -1.96807 -3.9
    endloop
  endfacet
  facet normal 0.684559 0.728957 -0
    outer loop
      vertex -1.83259 -2.21523 -85
      vertex -2.09578 -1.96807 -3.9
      vertex -1.83259 -2.21523 -3.9
    endloop
  endfacet
  facet normal 0.684559 0.728957 0
    outer loop
      vertex -2.09578 -1.96807 -3.9
      vertex -1.83259 -2.21523 -85
      vertex -2.09578 -1.96807 -85
    endloop
  endfacet
  facet normal 0.844325 0.535832 0
    outer loop
      vertex -2.32592 -1.68988 -3.9
      vertex -2.51938 -1.38504 -85
      vertex -2.51938 -1.38504 -3.9
    endloop
  endfacet
  facet normal 0.844325 0.535832 0
    outer loop
      vertex -2.51938 -1.38504 -85
      vertex -2.32592 -1.68988 -3.9
      vertex -2.32592 -1.68988 -85
    endloop
  endfacet
  facet normal 0.951056 0.309017 0
    outer loop
      vertex -2.67311 -1.05836 -3.9
      vertex -2.78468 -0.714983 -85
      vertex -2.78468 -0.714983 -3.9
    endloop
  endfacet
  facet normal 0.951056 0.309017 0
    outer loop
      vertex -2.78468 -0.714983 -85
      vertex -2.67311 -1.05836 -3.9
      vertex -2.67311 -1.05836 -85
    endloop
  endfacet
  facet normal -0.248695 0.968582 0
    outer loop
      vertex 0.888423 -2.73429 -85
      vertex 0.538721 -2.82408 -3.9
      vertex 0.888423 -2.73429 -3.9
    endloop
  endfacet
  facet normal -0.248695 0.968582 0
    outer loop
      vertex 0.538721 -2.82408 -3.9
      vertex 0.888423 -2.73429 -85
      vertex 0.538721 -2.82408 -85
    endloop
  endfacet
  facet normal -0.587775 0.809025 0
    outer loop
      vertex 1.83259 -2.21523 -85
      vertex 1.5405 -2.42744 -3.9
      vertex 1.83259 -2.21523 -3.9
    endloop
  endfacet
  facet normal -0.587775 0.809025 0
    outer loop
      vertex 1.5405 -2.42744 -3.9
      vertex 1.83259 -2.21523 -85
      vertex 1.5405 -2.42744 -85
    endloop
  endfacet
  facet normal -0.951056 0.309017 0
    outer loop
      vertex 2.67311 -1.05836 -85
      vertex 2.78468 -0.714983 -3.9
      vertex 2.78468 -0.714983 -85
    endloop
  endfacet
  facet normal -0.951056 0.309017 0
    outer loop
      vertex 2.78468 -0.714983 -3.9
      vertex 2.67311 -1.05836 -85
      vertex 2.67311 -1.05836 -3.9
    endloop
  endfacet
  facet normal 0.587775 0.809025 -0
    outer loop
      vertex -1.5405 -2.42744 -85
      vertex -1.83259 -2.21523 -3.9
      vertex -1.5405 -2.42744 -3.9
    endloop
  endfacet
  facet normal 0.587775 0.809025 0
    outer loop
      vertex -1.83259 -2.21523 -3.9
      vertex -1.5405 -2.42744 -85
      vertex -1.83259 -2.21523 -85
    endloop
  endfacet
  facet normal 0.36812 0.929778 -0
    outer loop
      vertex -0.888423 -2.73429 -85
      vertex -1.22412 -2.60138 -3.9
      vertex -0.888423 -2.73429 -3.9
    endloop
  endfacet
  facet normal 0.36812 0.929778 0
    outer loop
      vertex -1.22412 -2.60138 -3.9
      vertex -0.888423 -2.73429 -85
      vertex -1.22412 -2.60138 -85
    endloop
  endfacet
  facet normal 0.481772 0.876297 -0
    outer loop
      vertex -1.22412 -2.60138 -85
      vertex -1.5405 -2.42744 -3.9
      vertex -1.22412 -2.60138 -3.9
    endloop
  endfacet
  facet normal 0.481772 0.876297 0
    outer loop
      vertex -1.5405 -2.42744 -3.9
      vertex -1.22412 -2.60138 -85
      vertex -1.5405 -2.42744 -85
    endloop
  endfacet
  facet normal 0.248695 0.968582 -0
    outer loop
      vertex -0.538721 -2.82408 -85
      vertex -0.888423 -2.73429 -3.9
      vertex -0.538721 -2.82408 -3.9
    endloop
  endfacet
  facet normal 0.248695 0.968582 0
    outer loop
      vertex -0.888423 -2.73429 -3.9
      vertex -0.538721 -2.82408 -85
      vertex -0.888423 -2.73429 -85
    endloop
  endfacet
  facet normal 0.904821 0.425793 0
    outer loop
      vertex -2.51938 -1.38504 -3.9
      vertex -2.67311 -1.05836 -85
      vertex -2.67311 -1.05836 -3.9
    endloop
  endfacet
  facet normal 0.904821 0.425793 0
    outer loop
      vertex -2.67311 -1.05836 -85
      vertex -2.51938 -1.38504 -3.9
      vertex -2.51938 -1.38504 -85
    endloop
  endfacet
  facet normal 0.982289 0.187373 0
    outer loop
      vertex -2.78468 -0.714983 -3.9
      vertex -2.85233 -0.360332 -85
      vertex -2.85233 -0.360332 -3.9
    endloop
  endfacet
  facet normal 0.982289 0.187373 0
    outer loop
      vertex -2.85233 -0.360332 -85
      vertex -2.78468 -0.714983 -3.9
      vertex -2.78468 -0.714983 -85
    endloop
  endfacet
  facet normal 0.998027 0.0627901 0
    outer loop
      vertex -2.85233 -0.360332 -3.9
      vertex -2.875 0 -85
      vertex -2.875 0 -3.9
    endloop
  endfacet
  facet normal 0.998027 0.0627901 0
    outer loop
      vertex -2.875 0 -85
      vertex -2.85233 -0.360332 -3.9
      vertex -2.85233 -0.360332 -85
    endloop
  endfacet
  facet normal 0.12533 0.992115 -0
    outer loop
      vertex -0.180522 -2.86933 -85
      vertex -0.538721 -2.82408 -3.9
      vertex -0.180522 -2.86933 -3.9
    endloop
  endfacet
  facet normal 0.12533 0.992115 0
    outer loop
      vertex -0.538721 -2.82408 -3.9
      vertex -0.180522 -2.86933 -85
      vertex -0.538721 -2.82408 -85
    endloop
  endfacet
  facet normal 0.998027 0.0627908 0
    outer loop
      vertex 7.5 0 0
      vertex 7.44086 0.939999 -85
      vertex 7.44086 0.939999 0
    endloop
  endfacet
  facet normal 0.998027 0.0627908 0
    outer loop
      vertex 7.44086 0.939999 -85
      vertex 7.5 0 0
      vertex 7.5 0 -85
    endloop
  endfacet
  facet normal -0.998027 0.0627908 0
    outer loop
      vertex -7.5 0 -85
      vertex -7.44086 0.939999 0
      vertex -7.44086 0.939999 -85
    endloop
  endfacet
  facet normal -0.998027 0.0627908 0
    outer loop
      vertex -7.44086 0.939999 0
      vertex -7.5 0 -85
      vertex -7.5 0 0
    endloop
  endfacet
  facet normal 0 1 -0
    outer loop
      vertex 0.470928 7.4852 -85
      vertex -0.470928 7.4852 0
      vertex 0.470928 7.4852 0
    endloop
  endfacet
  facet normal 0 1 0
    outer loop
      vertex -0.470928 7.4852 0
      vertex 0.470928 7.4852 -85
      vertex -0.470928 7.4852 -85
    endloop
  endfacet
  facet normal 0.684552 0.728964 -0
    outer loop
      vertex 5.46726 5.1341 -85
      vertex 4.78068 5.77885 0
      vertex 5.46726 5.1341 0
    endloop
  endfacet
  facet normal 0.684552 0.728964 0
    outer loop
      vertex 4.78068 5.77885 0
      vertex 5.46726 5.1341 -85
      vertex 4.78068 5.77885 -85
    endloop
  endfacet
  facet normal -0.684552 0.728964 0
    outer loop
      vertex -4.78068 5.77885 -85
      vertex -5.46726 5.1341 0
      vertex -4.78068 5.77885 0
    endloop
  endfacet
  facet normal -0.684552 0.728964 0
    outer loop
      vertex -5.46726 5.1341 0
      vertex -4.78068 5.77885 -85
      vertex -5.46726 5.1341 -85
    endloop
  endfacet
  facet normal -0.368126 0.929776 0
    outer loop
      vertex -2.31763 7.13292 -85
      vertex -3.19334 6.7862 0
      vertex -2.31763 7.13292 0
    endloop
  endfacet
  facet normal -0.368126 0.929776 0
    outer loop
      vertex -3.19334 6.7862 0
      vertex -2.31763 7.13292 -85
      vertex -3.19334 6.7862 -85
    endloop
  endfacet
  facet normal 0.904829 0.425776 0
    outer loop
      vertex 6.97332 2.76093 0
      vertex 6.5723 3.61315 -85
      vertex 6.5723 3.61315 0
    endloop
  endfacet
  facet normal 0.904829 0.425776 0
    outer loop
      vertex 6.5723 3.61315 -85
      vertex 6.97332 2.76093 0
      vertex 6.97332 2.76093 -85
    endloop
  endfacet
  facet normal 0.368126 0.929776 -0
    outer loop
      vertex 3.19334 6.7862 -85
      vertex 2.31763 7.13292 0
      vertex 3.19334 6.7862 0
    endloop
  endfacet
  facet normal 0.368126 0.929776 0
    outer loop
      vertex 2.31763 7.13292 0
      vertex 3.19334 6.7862 -85
      vertex 2.31763 7.13292 -85
    endloop
  endfacet
  facet normal 0.248689 0.968583 -0
    outer loop
      vertex 2.31763 7.13292 -85
      vertex 1.40536 7.36715 0
      vertex 2.31763 7.13292 0
    endloop
  endfacet
  facet normal 0.248689 0.968583 0
    outer loop
      vertex 1.40536 7.36715 0
      vertex 2.31763 7.13292 -85
      vertex 1.40536 7.36715 -85
    endloop
  endfacet
  facet normal 0.587785 0.809017 -0
    outer loop
      vertex 4.78068 5.77885 -85
      vertex 4.0187 6.33246 0
      vertex 4.78068 5.77885 0
    endloop
  endfacet
  facet normal 0.587785 0.809017 0
    outer loop
      vertex 4.0187 6.33246 0
      vertex 4.78068 5.77885 -85
      vertex 4.0187 6.33246 -85
    endloop
  endfacet
  facet normal -0.904829 0.425776 0
    outer loop
      vertex -6.97332 2.76093 -85
      vertex -6.5723 3.61315 0
      vertex -6.5723 3.61315 -85
    endloop
  endfacet
  facet normal -0.904829 0.425776 0
    outer loop
      vertex -6.5723 3.61315 0
      vertex -6.97332 2.76093 -85
      vertex -6.97332 2.76093 0
    endloop
  endfacet
  facet normal -0.84433 0.535823 0
    outer loop
      vertex -6.5723 3.61315 -85
      vertex -6.06763 4.40839 0
      vertex -6.06763 4.40839 -85
    endloop
  endfacet
  facet normal -0.84433 0.535823 0
    outer loop
      vertex -6.06763 4.40839 0
      vertex -6.5723 3.61315 -85
      vertex -6.5723 3.61315 0
    endloop
  endfacet
  facet normal -0.982286 0.187386 0
    outer loop
      vertex -7.44086 0.939999 -85
      vertex -7.26437 1.86517 0
      vertex -7.26437 1.86517 -85
    endloop
  endfacet
  facet normal -0.982286 0.187386 0
    outer loop
      vertex -7.26437 1.86517 0
      vertex -7.44086 0.939999 -85
      vertex -7.44086 0.939999 0
    endloop
  endfacet
  facet normal -0.587785 0.809017 0
    outer loop
      vertex -4.0187 6.33246 -85
      vertex -4.78068 5.77885 0
      vertex -4.0187 6.33246 0
    endloop
  endfacet
  facet normal -0.587785 0.809017 0
    outer loop
      vertex -4.78068 5.77885 0
      vertex -4.0187 6.33246 -85
      vertex -4.78068 5.77885 -85
    endloop
  endfacet
  facet normal -0.125337 0.992114 0
    outer loop
      vertex -0.470928 7.4852 -85
      vertex -1.40536 7.36715 0
      vertex -0.470928 7.4852 0
    endloop
  endfacet
  facet normal -0.125337 0.992114 0
    outer loop
      vertex -1.40536 7.36715 0
      vertex -0.470928 7.4852 -85
      vertex -1.40536 7.36715 -85
    endloop
  endfacet
  facet normal 0.998027 -0.0627908 0
    outer loop
      vertex 7.44086 -0.939999 0
      vertex 7.5 0 -85
      vertex 7.5 0 0
    endloop
  endfacet
  facet normal 0.998027 -0.0627908 0
    outer loop
      vertex 7.5 0 -85
      vertex 7.44086 -0.939999 0
      vertex 7.44086 -0.939999 -85
    endloop
  endfacet
  facet normal -0.248689 -0.968583 0
    outer loop
      vertex -2.31763 -7.13292 -85
      vertex -1.40536 -7.36715 0
      vertex -2.31763 -7.13292 0
    endloop
  endfacet
  facet normal -0.248689 -0.968583 -0
    outer loop
      vertex -1.40536 -7.36715 0
      vertex -2.31763 -7.13292 -85
      vertex -1.40536 -7.36715 -85
    endloop
  endfacet
  facet normal -0.904829 -0.425776 0
    outer loop
      vertex -6.5723 -3.61315 -85
      vertex -6.97332 -2.76093 0
      vertex -6.97332 -2.76093 -85
    endloop
  endfacet
  facet normal -0.904829 -0.425776 0
    outer loop
      vertex -6.97332 -2.76093 0
      vertex -6.5723 -3.61315 -85
      vertex -6.5723 -3.61315 0
    endloop
  endfacet
  facet normal 0.125337 -0.992114 0
    outer loop
      vertex 0.470928 -7.4852 -85
      vertex 1.40536 -7.36715 0
      vertex 0.470928 -7.4852 0
    endloop
  endfacet
  facet normal 0.125337 -0.992114 0
    outer loop
      vertex 1.40536 -7.36715 0
      vertex 0.470928 -7.4852 -85
      vertex 1.40536 -7.36715 -85
    endloop
  endfacet
  facet normal 0.951057 0.309017 0
    outer loop
      vertex 7.26437 1.86517 0
      vertex 6.97332 2.76093 -85
      vertex 6.97332 2.76093 0
    endloop
  endfacet
  facet normal 0.951057 0.309017 0
    outer loop
      vertex 6.97332 2.76093 -85
      vertex 7.26437 1.86517 0
      vertex 7.26437 1.86517 -85
    endloop
  endfacet
  facet normal 0.982286 0.187386 0
    outer loop
      vertex 7.44086 0.939999 0
      vertex 7.26437 1.86517 -85
      vertex 7.26437 1.86517 0
    endloop
  endfacet
  facet normal 0.982286 0.187386 0
    outer loop
      vertex 7.26437 1.86517 -85
      vertex 7.44086 0.939999 0
      vertex 7.44086 0.939999 -85
    endloop
  endfacet
  facet normal 0.770508 0.637431 0
    outer loop
      vertex 6.06763 4.40839 0
      vertex 5.46726 5.1341 -85
      vertex 5.46726 5.1341 0
    endloop
  endfacet
  facet normal 0.770508 0.637431 0
    outer loop
      vertex 5.46726 5.1341 -85
      vertex 6.06763 4.40839 0
      vertex 6.06763 4.40839 -85
    endloop
  endfacet
  facet normal 0.84433 0.535823 0
    outer loop
      vertex 6.5723 3.61315 0
      vertex 6.06763 4.40839 -85
      vertex 6.06763 4.40839 0
    endloop
  endfacet
  facet normal 0.84433 0.535823 0
    outer loop
      vertex 6.06763 4.40839 -85
      vertex 6.5723 3.61315 0
      vertex 6.5723 3.61315 -85
    endloop
  endfacet
  facet normal 0.125337 0.992114 -0
    outer loop
      vertex 1.40536 7.36715 -85
      vertex 0.470928 7.4852 0
      vertex 1.40536 7.36715 0
    endloop
  endfacet
  facet normal 0.125337 0.992114 0
    outer loop
      vertex 0.470928 7.4852 0
      vertex 1.40536 7.36715 -85
      vertex 0.470928 7.4852 -85
    endloop
  endfacet
  facet normal 0.481749 0.876309 -0
    outer loop
      vertex 4.0187 6.33246 -85
      vertex 3.19334 6.7862 0
      vertex 4.0187 6.33246 0
    endloop
  endfacet
  facet normal 0.481749 0.876309 0
    outer loop
      vertex 3.19334 6.7862 0
      vertex 4.0187 6.33246 -85
      vertex 3.19334 6.7862 -85
    endloop
  endfacet
  facet normal -0.770508 0.637431 0
    outer loop
      vertex -6.06763 4.40839 -85
      vertex -5.46726 5.1341 0
      vertex -5.46726 5.1341 -85
    endloop
  endfacet
  facet normal -0.770508 0.637431 0
    outer loop
      vertex -5.46726 5.1341 0
      vertex -6.06763 4.40839 -85
      vertex -6.06763 4.40839 0
    endloop
  endfacet
  facet normal -0.951057 0.309017 0
    outer loop
      vertex -7.26437 1.86517 -85
      vertex -6.97332 2.76093 0
      vertex -6.97332 2.76093 -85
    endloop
  endfacet
  facet normal -0.951057 0.309017 0
    outer loop
      vertex -6.97332 2.76093 0
      vertex -7.26437 1.86517 -85
      vertex -7.26437 1.86517 0
    endloop
  endfacet
  facet normal 0.951057 -0.309017 0
    outer loop
      vertex 6.97332 -2.76093 0
      vertex 7.26437 -1.86517 -85
      vertex 7.26437 -1.86517 0
    endloop
  endfacet
  facet normal 0.951057 -0.309017 0
    outer loop
      vertex 7.26437 -1.86517 -85
      vertex 6.97332 -2.76093 0
      vertex 6.97332 -2.76093 -85
    endloop
  endfacet
  facet normal 0.982286 -0.187386 0
    outer loop
      vertex 7.26437 -1.86517 0
      vertex 7.44086 -0.939999 -85
      vertex 7.44086 -0.939999 0
    endloop
  endfacet
  facet normal 0.982286 -0.187386 0
    outer loop
      vertex 7.44086 -0.939999 -85
      vertex 7.26437 -1.86517 0
      vertex 7.26437 -1.86517 -85
    endloop
  endfacet
  facet normal -0.125337 -0.992114 0
    outer loop
      vertex -1.40536 -7.36715 -85
      vertex -0.470928 -7.4852 0
      vertex -1.40536 -7.36715 0
    endloop
  endfacet
  facet normal -0.125337 -0.992114 -0
    outer loop
      vertex -0.470928 -7.4852 0
      vertex -1.40536 -7.36715 -85
      vertex -0.470928 -7.4852 -85
    endloop
  endfacet
  facet normal -0.998027 -0.0627908 0
    outer loop
      vertex -7.44086 -0.939999 -85
      vertex -7.5 0 0
      vertex -7.5 0 -85
    endloop
  endfacet
  facet normal -0.998027 -0.0627908 0
    outer loop
      vertex -7.5 0 0
      vertex -7.44086 -0.939999 -85
      vertex -7.44086 -0.939999 0
    endloop
  endfacet
  facet normal 0.368126 -0.929776 0
    outer loop
      vertex 2.31763 -7.13292 -85
      vertex 3.19334 -6.7862 0
      vertex 2.31763 -7.13292 0
    endloop
  endfacet
  facet normal 0.368126 -0.929776 0
    outer loop
      vertex 3.19334 -6.7862 0
      vertex 2.31763 -7.13292 -85
      vertex 3.19334 -6.7862 -85
    endloop
  endfacet
  facet normal 0.248689 -0.968583 0
    outer loop
      vertex 1.40536 -7.36715 -85
      vertex 2.31763 -7.13292 0
      vertex 1.40536 -7.36715 0
    endloop
  endfacet
  facet normal 0.248689 -0.968583 0
    outer loop
      vertex 2.31763 -7.13292 0
      vertex 1.40536 -7.36715 -85
      vertex 2.31763 -7.13292 -85
    endloop
  endfacet
  facet normal -0.481749 0.876309 0
    outer loop
      vertex -3.19334 6.7862 -85
      vertex -4.0187 6.33246 0
      vertex -3.19334 6.7862 0
    endloop
  endfacet
  facet normal -0.481749 0.876309 0
    outer loop
      vertex -4.0187 6.33246 0
      vertex -3.19334 6.7862 -85
      vertex -4.0187 6.33246 -85
    endloop
  endfacet
  facet normal -0.248689 0.968583 0
    outer loop
      vertex -1.40536 7.36715 -85
      vertex -2.31763 7.13292 0
      vertex -1.40536 7.36715 0
    endloop
  endfacet
  facet normal -0.248689 0.968583 0
    outer loop
      vertex -2.31763 7.13292 0
      vertex -1.40536 7.36715 -85
      vertex -2.31763 7.13292 -85
    endloop
  endfacet
  facet normal 0.481749 -0.876309 0
    outer loop
      vertex 3.19334 -6.7862 -85
      vertex 4.0187 -6.33246 0
      vertex 3.19334 -6.7862 0
    endloop
  endfacet
  facet normal 0.481749 -0.876309 0
    outer loop
      vertex 4.0187 -6.33246 0
      vertex 3.19334 -6.7862 -85
      vertex 4.0187 -6.33246 -85
    endloop
  endfacet
  facet normal 0.684552 -0.728964 0
    outer loop
      vertex 4.78068 -5.77885 -85
      vertex 5.46726 -5.1341 0
      vertex 4.78068 -5.77885 0
    endloop
  endfacet
  facet normal 0.684552 -0.728964 0
    outer loop
      vertex 5.46726 -5.1341 0
      vertex 4.78068 -5.77885 -85
      vertex 5.46726 -5.1341 -85
    endloop
  endfacet
  facet normal 0.904829 -0.425776 0
    outer loop
      vertex 6.5723 -3.61315 0
      vertex 6.97332 -2.76093 -85
      vertex 6.97332 -2.76093 0
    endloop
  endfacet
  facet normal 0.904829 -0.425776 0
    outer loop
      vertex 6.97332 -2.76093 -85
      vertex 6.5723 -3.61315 0
      vertex 6.5723 -3.61315 -85
    endloop
  endfacet
  facet normal -0.368126 -0.929776 0
    outer loop
      vertex -3.19334 -6.7862 -85
      vertex -2.31763 -7.13292 0
      vertex -3.19334 -6.7862 0
    endloop
  endfacet
  facet normal -0.368126 -0.929776 -0
    outer loop
      vertex -2.31763 -7.13292 0
      vertex -3.19334 -6.7862 -85
      vertex -2.31763 -7.13292 -85
    endloop
  endfacet
  facet normal -0.684552 -0.728964 0
    outer loop
      vertex -5.46726 -5.1341 -85
      vertex -4.78068 -5.77885 0
      vertex -5.46726 -5.1341 0
    endloop
  endfacet
  facet normal -0.684552 -0.728964 -0
    outer loop
      vertex -4.78068 -5.77885 0
      vertex -5.46726 -5.1341 -85
      vertex -4.78068 -5.77885 -85
    endloop
  endfacet
  facet normal 0.84433 -0.535823 0
    outer loop
      vertex 6.06763 -4.40839 0
      vertex 6.5723 -3.61315 -85
      vertex 6.5723 -3.61315 0
    endloop
  endfacet
  facet normal 0.84433 -0.535823 0
    outer loop
      vertex 6.5723 -3.61315 -85
      vertex 6.06763 -4.40839 0
      vertex 6.06763 -4.40839 -85
    endloop
  endfacet
  facet normal 0.587785 -0.809017 0
    outer loop
      vertex 4.0187 -6.33246 -85
      vertex 4.78068 -5.77885 0
      vertex 4.0187 -6.33246 0
    endloop
  endfacet
  facet normal 0.587785 -0.809017 0
    outer loop
      vertex 4.78068 -5.77885 0
      vertex 4.0187 -6.33246 -85
      vertex 4.78068 -5.77885 -85
    endloop
  endfacet
  facet normal 0.770508 -0.637431 0
    outer loop
      vertex 5.46726 -5.1341 0
      vertex 6.06763 -4.40839 -85
      vertex 6.06763 -4.40839 0
    endloop
  endfacet
  facet normal 0.770508 -0.637431 0
    outer loop
      vertex 6.06763 -4.40839 -85
      vertex 5.46726 -5.1341 0
      vertex 5.46726 -5.1341 -85
    endloop
  endfacet
  facet normal 0 -1 0
    outer loop
      vertex -0.470928 -7.4852 -85
      vertex 0.470928 -7.4852 0
      vertex -0.470928 -7.4852 0
    endloop
  endfacet
  facet normal 0 -1 -0
    outer loop
      vertex 0.470928 -7.4852 0
      vertex -0.470928 -7.4852 -85
      vertex 0.470928 -7.4852 -85
    endloop
  endfacet
  facet normal -0.84433 -0.535823 0
    outer loop
      vertex -6.06763 -4.40839 -85
      vertex -6.5723 -3.61315 0
      vertex -6.5723 -3.61315 -85
    endloop
  endfacet
  facet normal -0.84433 -0.535823 0
    outer loop
      vertex -6.5723 -3.61315 0
      vertex -6.06763 -4.40839 -85
      vertex -6.06763 -4.40839 0
    endloop
  endfacet
  facet normal -0.951057 -0.309017 0
    outer loop
      vertex -6.97332 -2.76093 -85
      vertex -7.26437 -1.86517 0
      vertex -7.26437 -1.86517 -85
    endloop
  endfacet
  facet normal -0.951057 -0.309017 0
    outer loop
      vertex -7.26437 -1.86517 0
      vertex -6.97332 -2.76093 -85
      vertex -6.97332 -2.76093 0
    endloop
  endfacet
  facet normal -0.982286 -0.187386 0
    outer loop
      vertex -7.26437 -1.86517 -85
      vertex -7.44086 -0.939999 0
      vertex -7.44086 -0.939999 -85
    endloop
  endfacet
  facet normal -0.982286 -0.187386 0
    outer loop
      vertex -7.44086 -0.939999 0
      vertex -7.26437 -1.86517 -85
      vertex -7.26437 -1.86517 0
    endloop
  endfacet
  facet normal -0.770508 -0.637431 0
    outer loop
      vertex -5.46726 -5.1341 -85
      vertex -6.06763 -4.40839 0
      vertex -6.06763 -4.40839 -85
    endloop
  endfacet
  facet normal -0.770508 -0.637431 0
    outer loop
      vertex -6.06763 -4.40839 0
      vertex -5.46726 -5.1341 -85
      vertex -5.46726 -5.1341 0
    endloop
  endfacet
  facet normal -0.481749 -0.876309 0
    outer loop
      vertex -4.0187 -6.33246 -85
      vertex -3.19334 -6.7862 0
      vertex -4.0187 -6.33246 0
    endloop
  endfacet
  facet normal -0.481749 -0.876309 -0
    outer loop
      vertex -3.19334 -6.7862 0
      vertex -4.0187 -6.33246 -85
      vertex -3.19334 -6.7862 -85
    endloop
  endfacet
  facet normal -0.587785 -0.809017 0
    outer loop
      vertex -4.78068 -5.77885 -85
      vertex -4.0187 -6.33246 0
      vertex -4.78068 -5.77885 0
    endloop
  endfacet
  facet normal -0.587785 -0.809017 -0
    outer loop
      vertex -4.0187 -6.33246 0
      vertex -4.78068 -5.77885 -85
      vertex -4.0187 -6.33246 -85
    endloop
  endfacet
endsolid OpenSCAD_Model
