  0
SECTION
  2
BLOCKS
  0
ENDSEC
  0
SECTION
  2
ENTITIES
  0
LINE
  8
0
 10
1.40535
 20
304.633
 11
2.31763
 21
304.867
  0
LINE
  8
0
 10
2.31763
 20
304.867
 11
3.19334
 21
305.214
  0
LINE
  8
0
 10
3.19334
 20
305.214
 11
4.01869
 21
305.668
  0
LINE
  8
0
 10
4.01869
 20
305.668
 11
4.78067
 21
306.221
  0
LINE
  8
0
 10
4.78067
 20
306.221
 11
5.46725
 21
306.866
  0
LINE
  8
0
 10
5.46725
 20
306.866
 11
6.06763
 21
307.592
  0
LINE
  8
0
 10
6.06763
 20
307.592
 11
6.5723
 21
308.387
  0
LINE
  8
0
 10
6.5723
 20
308.387
 11
6.97331
 21
309.239
  0
LINE
  8
0
 10
6.97331
 20
309.239
 11
7.26436
 21
310.135
  0
LINE
  8
0
 10
7.26436
 20
310.135
 11
7.44086
 21
311.06
  0
LINE
  8
0
 10
7.44086
 20
311.06
 11
7.5
 21
312
  0
LINE
  8
0
 10
7.5
 20
312
 11
7.44086
 21
312.94
  0
LINE
  8
0
 10
7.44086
 20
312.94
 11
7.26436
 21
313.865
  0
LINE
  8
0
 10
7.26436
 20
313.865
 11
6.97331
 21
314.761
  0
LINE
  8
0
 10
6.97331
 20
314.761
 11
6.5723
 21
315.613
  0
LINE
  8
0
 10
6.5723
 20
315.613
 11
6.06763
 21
316.408
  0
LINE
  8
0
 10
6.06763
 20
316.408
 11
5.46725
 21
317.134
  0
LINE
  8
0
 10
5.46725
 20
317.134
 11
4.78067
 21
317.779
  0
LINE
  8
0
 10
4.78067
 20
317.779
 11
4.01869
 21
318.332
  0
LINE
  8
0
 10
4.01869
 20
318.332
 11
3.19334
 21
318.786
  0
LINE
  8
0
 10
3.19334
 20
318.786
 11
2.31763
 21
319.133
  0
LINE
  8
0
 10
2.31763
 20
319.133
 11
1.40535
 21
319.367
  0
LINE
  8
0
 10
1.40535
 20
319.367
 11
0.470917
 21
319.485
  0
LINE
  8
0
 10
0.470917
 20
319.485
 11
-0.470917
 21
319.485
  0
LINE
  8
0
 10
-0.470917
 20
319.485
 11
-1.40535
 21
319.367
  0
LINE
  8
0
 10
-1.40535
 20
319.367
 11
-2.31763
 21
319.133
  0
LINE
  8
0
 10
-2.31763
 20
319.133
 11
-3.19334
 21
318.786
  0
LINE
  8
0
 10
-3.19334
 20
318.786
 11
-4.01869
 21
318.332
  0
LINE
  8
0
 10
-4.01869
 20
318.332
 11
-4.78067
 21
317.779
  0
LINE
  8
0
 10
-4.78067
 20
317.779
 11
-5.46725
 21
317.134
  0
LINE
  8
0
 10
-5.46725
 20
317.134
 11
-6.06763
 21
316.408
  0
LINE
  8
0
 10
-6.06763
 20
316.408
 11
-6.5723
 21
315.613
  0
LINE
  8
0
 10
-6.5723
 20
315.613
 11
-6.97331
 21
314.761
  0
LINE
  8
0
 10
-6.97331
 20
314.761
 11
-7.26436
 21
313.865
  0
LINE
  8
0
 10
-7.26436
 20
313.865
 11
-7.44086
 21
312.94
  0
LINE
  8
0
 10
-7.44086
 20
312.94
 11
-7.5
 21
312
  0
LINE
  8
0
 10
-7.5
 20
312
 11
-7.44086
 21
311.06
  0
LINE
  8
0
 10
-7.44086
 20
311.06
 11
-7.26436
 21
310.135
  0
LINE
  8
0
 10
-7.26436
 20
310.135
 11
-6.97331
 21
309.239
  0
LINE
  8
0
 10
-6.97331
 20
309.239
 11
-6.5723
 21
308.387
  0
LINE
  8
0
 10
-6.5723
 20
308.387
 11
-6.06763
 21
307.592
  0
LINE
  8
0
 10
-6.06763
 20
307.592
 11
-5.46725
 21
306.866
  0
LINE
  8
0
 10
-5.46725
 20
306.866
 11
-4.78067
 21
306.221
  0
LINE
  8
0
 10
-4.78067
 20
306.221
 11
-4.01869
 21
305.668
  0
LINE
  8
0
 10
-4.01869
 20
305.668
 11
-3.19334
 21
305.214
  0
LINE
  8
0
 10
-3.19334
 20
305.214
 11
-2.31763
 21
304.867
  0
LINE
  8
0
 10
-2.31763
 20
304.867
 11
-1.40535
 21
304.633
  0
LINE
  8
0
 10
-1.40535
 20
304.633
 11
-0.470917
 21
304.515
  0
LINE
  8
0
 10
-0.470917
 20
304.515
 11
0.470917
 21
304.515
  0
LINE
  8
0
 10
0.470917
 20
304.515
 11
1.40535
 21
304.633
  0
LINE
  8
0
 10
-0.229599
 20
308.35
 11
-0.685196
 21
308.408
  0
LINE
  8
0
 10
-0.685196
 20
308.408
 11
-1.12999
 21
308.522
  0
LINE
  8
0
 10
-1.12999
 20
308.522
 11
-1.55696
 21
308.691
  0
LINE
  8
0
 10
-1.55696
 20
308.691
 11
-1.95938
 21
308.913
  0
LINE
  8
0
 10
-1.95938
 20
308.913
 11
-2.3309
 21
309.182
  0
LINE
  8
0
 10
-2.3309
 20
309.182
 11
-2.66565
 21
309.497
  0
LINE
  8
0
 10
-2.66565
 20
309.497
 11
-2.95837
 21
309.851
  0
LINE
  8
0
 10
-2.95837
 20
309.851
 11
-3.20444
 21
310.238
  0
LINE
  8
0
 10
-3.20444
 20
310.238
 11
-3.39996
 21
310.654
  0
LINE
  8
0
 10
-3.39996
 20
310.654
 11
-3.54187
 21
311.091
  0
LINE
  8
0
 10
-3.54187
 20
311.091
 11
-3.62791
 21
311.542
  0
LINE
  8
0
 10
-3.62791
 20
311.542
 11
-3.65675
 21
312
  0
LINE
  8
0
 10
-3.65675
 20
312
 11
-3.62791
 21
312.458
  0
LINE
  8
0
 10
-3.62791
 20
312.458
 11
-3.54187
 21
312.909
  0
LINE
  8
0
 10
-3.54187
 20
312.909
 11
-3.39996
 21
313.346
  0
LINE
  8
0
 10
-3.39996
 20
313.346
 11
-3.20444
 21
313.762
  0
LINE
  8
0
 10
-3.20444
 20
313.762
 11
-2.95837
 21
314.149
  0
LINE
  8
0
 10
-2.95837
 20
314.149
 11
-2.66565
 21
314.503
  0
LINE
  8
0
 10
-2.66565
 20
314.503
 11
-2.3309
 21
314.818
  0
LINE
  8
0
 10
-2.3309
 20
314.818
 11
-1.95938
 21
315.087
  0
LINE
  8
0
 10
-1.95938
 20
315.087
 11
-1.55696
 21
315.309
  0
LINE
  8
0
 10
-1.55696
 20
315.309
 11
-1.12999
 21
315.478
  0
LINE
  8
0
 10
-1.12999
 20
315.478
 11
-0.685196
 21
315.592
  0
LINE
  8
0
 10
-0.685196
 20
315.592
 11
-0.229599
 21
315.65
  0
LINE
  8
0
 10
-0.229599
 20
315.65
 11
0.229599
 21
315.65
  0
LINE
  8
0
 10
0.229599
 20
315.65
 11
0.685196
 21
315.592
  0
LINE
  8
0
 10
0.685196
 20
315.592
 11
1.12999
 21
315.478
  0
LINE
  8
0
 10
1.12999
 20
315.478
 11
1.55696
 21
315.309
  0
LINE
  8
0
 10
1.55696
 20
315.309
 11
1.95938
 21
315.087
  0
LINE
  8
0
 10
1.95938
 20
315.087
 11
2.3309
 21
314.818
  0
LINE
  8
0
 10
2.3309
 20
314.818
 11
2.66565
 21
314.503
  0
LINE
  8
0
 10
2.66565
 20
314.503
 11
2.95837
 21
314.149
  0
LINE
  8
0
 10
2.95837
 20
314.149
 11
3.20444
 21
313.762
  0
LINE
  8
0
 10
3.20444
 20
313.762
 11
3.39996
 21
313.346
  0
LINE
  8
0
 10
3.39996
 20
313.346
 11
3.54187
 21
312.909
  0
LINE
  8
0
 10
3.54187
 20
312.909
 11
3.62791
 21
312.458
  0
LINE
  8
0
 10
3.62791
 20
312.458
 11
3.65675
 21
312
  0
LINE
  8
0
 10
3.65675
 20
312
 11
3.62791
 21
311.542
  0
LINE
  8
0
 10
3.62791
 20
311.542
 11
3.54187
 21
311.091
  0
LINE
  8
0
 10
3.54187
 20
311.091
 11
3.39996
 21
310.654
  0
LINE
  8
0
 10
3.39996
 20
310.654
 11
3.20444
 21
310.238
  0
LINE
  8
0
 10
3.20444
 20
310.238
 11
2.95837
 21
309.851
  0
LINE
  8
0
 10
2.95837
 20
309.851
 11
2.66565
 21
309.497
  0
LINE
  8
0
 10
2.66565
 20
309.497
 11
2.3309
 21
309.182
  0
LINE
  8
0
 10
2.3309
 20
309.182
 11
1.95938
 21
308.913
  0
LINE
  8
0
 10
1.95938
 20
308.913
 11
1.55696
 21
308.691
  0
LINE
  8
0
 10
1.55696
 20
308.691
 11
1.12999
 21
308.522
  0
LINE
  8
0
 10
1.12999
 20
308.522
 11
0.685196
 21
308.408
  0
LINE
  8
0
 10
0.685196
 20
308.408
 11
0.229599
 21
308.35
  0
LINE
  8
0
 10
0.229599
 20
308.35
 11
-0.229599
 21
308.35
  0
LINE
  8
0
 10
1.40535
 20
280.633
 11
2.31763
 21
280.867
  0
LINE
  8
0
 10
2.31763
 20
280.867
 11
3.19334
 21
281.214
  0
LINE
  8
0
 10
3.19334
 20
281.214
 11
4.01869
 21
281.668
  0
LINE
  8
0
 10
4.01869
 20
281.668
 11
4.78067
 21
282.221
  0
LINE
  8
0
 10
4.78067
 20
282.221
 11
5.46725
 21
282.866
  0
LINE
  8
0
 10
5.46725
 20
282.866
 11
6.06763
 21
283.592
  0
LINE
  8
0
 10
6.06763
 20
283.592
 11
6.5723
 21
284.387
  0
LINE
  8
0
 10
6.5723
 20
284.387
 11
6.97331
 21
285.239
  0
LINE
  8
0
 10
6.97331
 20
285.239
 11
7.26436
 21
286.135
  0
LINE
  8
0
 10
7.26436
 20
286.135
 11
7.44086
 21
287.06
  0
LINE
  8
0
 10
7.44086
 20
287.06
 11
7.5
 21
288
  0
LINE
  8
0
 10
7.5
 20
288
 11
7.44086
 21
288.94
  0
LINE
  8
0
 10
7.44086
 20
288.94
 11
7.26436
 21
289.865
  0
LINE
  8
0
 10
7.26436
 20
289.865
 11
6.97331
 21
290.761
  0
LINE
  8
0
 10
6.97331
 20
290.761
 11
6.5723
 21
291.613
  0
LINE
  8
0
 10
6.5723
 20
291.613
 11
6.06763
 21
292.408
  0
LINE
  8
0
 10
6.06763
 20
292.408
 11
5.46725
 21
293.134
  0
LINE
  8
0
 10
5.46725
 20
293.134
 11
4.78067
 21
293.779
  0
LINE
  8
0
 10
4.78067
 20
293.779
 11
4.01869
 21
294.332
  0
LINE
  8
0
 10
4.01869
 20
294.332
 11
3.19334
 21
294.786
  0
LINE
  8
0
 10
3.19334
 20
294.786
 11
2.31763
 21
295.133
  0
LINE
  8
0
 10
2.31763
 20
295.133
 11
1.40535
 21
295.367
  0
LINE
  8
0
 10
1.40535
 20
295.367
 11
0.470917
 21
295.485
  0
LINE
  8
0
 10
0.470917
 20
295.485
 11
-0.470917
 21
295.485
  0
LINE
  8
0
 10
-0.470917
 20
295.485
 11
-1.40535
 21
295.367
  0
LINE
  8
0
 10
-1.40535
 20
295.367
 11
-2.31763
 21
295.133
  0
LINE
  8
0
 10
-2.31763
 20
295.133
 11
-3.19334
 21
294.786
  0
LINE
  8
0
 10
-3.19334
 20
294.786
 11
-4.01869
 21
294.332
  0
LINE
  8
0
 10
-4.01869
 20
294.332
 11
-4.78067
 21
293.779
  0
LINE
  8
0
 10
-4.78067
 20
293.779
 11
-5.46725
 21
293.134
  0
LINE
  8
0
 10
-5.46725
 20
293.134
 11
-6.06763
 21
292.408
  0
LINE
  8
0
 10
-6.06763
 20
292.408
 11
-6.5723
 21
291.613
  0
LINE
  8
0
 10
-6.5723
 20
291.613
 11
-6.97331
 21
290.761
  0
LINE
  8
0
 10
-6.97331
 20
290.761
 11
-7.26436
 21
289.865
  0
LINE
  8
0
 10
-7.26436
 20
289.865
 11
-7.44086
 21
288.94
  0
LINE
  8
0
 10
-7.44086
 20
288.94
 11
-7.5
 21
288
  0
LINE
  8
0
 10
-7.5
 20
288
 11
-7.44086
 21
287.06
  0
LINE
  8
0
 10
-7.44086
 20
287.06
 11
-7.26436
 21
286.135
  0
LINE
  8
0
 10
-7.26436
 20
286.135
 11
-6.97331
 21
285.239
  0
LINE
  8
0
 10
-6.97331
 20
285.239
 11
-6.5723
 21
284.387
  0
LINE
  8
0
 10
-6.5723
 20
284.387
 11
-6.06763
 21
283.592
  0
LINE
  8
0
 10
-6.06763
 20
283.592
 11
-5.46725
 21
282.866
  0
LINE
  8
0
 10
-5.46725
 20
282.866
 11
-4.78067
 21
282.221
  0
LINE
  8
0
 10
-4.78067
 20
282.221
 11
-4.01869
 21
281.668
  0
LINE
  8
0
 10
-4.01869
 20
281.668
 11
-3.19334
 21
281.214
  0
LINE
  8
0
 10
-3.19334
 20
281.214
 11
-2.31763
 21
280.867
  0
LINE
  8
0
 10
-2.31763
 20
280.867
 11
-1.40535
 21
280.633
  0
LINE
  8
0
 10
-1.40535
 20
280.633
 11
-0.470917
 21
280.515
  0
LINE
  8
0
 10
-0.470917
 20
280.515
 11
0.470917
 21
280.515
  0
LINE
  8
0
 10
0.470917
 20
280.515
 11
1.40535
 21
280.633
  0
LINE
  8
0
 10
-0.180511
 20
285.131
 11
-0.538712
 21
285.176
  0
LINE
  8
0
 10
-0.538712
 20
285.176
 11
-0.888412
 21
285.266
  0
LINE
  8
0
 10
-0.888412
 20
285.266
 11
-1.22411
 21
285.399
  0
LINE
  8
0
 10
-1.22411
 20
285.399
 11
-1.5405
 21
285.573
  0
LINE
  8
0
 10
-1.5405
 20
285.573
 11
-1.83258
 21
285.785
  0
LINE
  8
0
 10
-1.83258
 20
285.785
 11
-2.09578
 21
286.032
  0
LINE
  8
0
 10
-2.09578
 20
286.032
 11
-2.32591
 21
286.31
  0
LINE
  8
0
 10
-2.32591
 20
286.31
 11
-2.51938
 21
286.615
  0
LINE
  8
0
 10
-2.51938
 20
286.615
 11
-2.6731
 21
286.942
  0
LINE
  8
0
 10
-2.6731
 20
286.942
 11
-2.78467
 21
287.285
  0
LINE
  8
0
 10
-2.78467
 20
287.285
 11
-2.85233
 21
287.64
  0
LINE
  8
0
 10
-2.85233
 20
287.64
 11
-2.875
 21
288
  0
LINE
  8
0
 10
-2.875
 20
288
 11
-2.85233
 21
288.36
  0
LINE
  8
0
 10
-2.85233
 20
288.36
 11
-2.78467
 21
288.715
  0
LINE
  8
0
 10
-2.78467
 20
288.715
 11
-2.6731
 21
289.058
  0
LINE
  8
0
 10
-2.6731
 20
289.058
 11
-2.51938
 21
289.385
  0
LINE
  8
0
 10
-2.51938
 20
289.385
 11
-2.32591
 21
289.69
  0
LINE
  8
0
 10
-2.32591
 20
289.69
 11
-2.09578
 21
289.968
  0
LINE
  8
0
 10
-2.09578
 20
289.968
 11
-1.83258
 21
290.215
  0
LINE
  8
0
 10
-1.83258
 20
290.215
 11
-1.5405
 21
290.427
  0
LINE
  8
0
 10
-1.5405
 20
290.427
 11
-1.22411
 21
290.601
  0
LINE
  8
0
 10
-1.22411
 20
290.601
 11
-0.888412
 21
290.734
  0
LINE
  8
0
 10
-0.888412
 20
290.734
 11
-0.538712
 21
290.824
  0
LINE
  8
0
 10
-0.538712
 20
290.824
 11
-0.180511
 21
290.869
  0
LINE
  8
0
 10
-0.180511
 20
290.869
 11
0.180511
 21
290.869
  0
LINE
  8
0
 10
0.180511
 20
290.869
 11
0.538712
 21
290.824
  0
LINE
  8
0
 10
0.538712
 20
290.824
 11
0.888412
 21
290.734
  0
LINE
  8
0
 10
0.888412
 20
290.734
 11
1.22411
 21
290.601
  0
LINE
  8
0
 10
1.22411
 20
290.601
 11
1.5405
 21
290.427
  0
LINE
  8
0
 10
1.5405
 20
290.427
 11
1.83258
 21
290.215
  0
LINE
  8
0
 10
1.83258
 20
290.215
 11
2.09578
 21
289.968
  0
LINE
  8
0
 10
2.09578
 20
289.968
 11
2.32591
 21
289.69
  0
LINE
  8
0
 10
2.32591
 20
289.69
 11
2.51938
 21
289.385
  0
LINE
  8
0
 10
2.51938
 20
289.385
 11
2.6731
 21
289.058
  0
LINE
  8
0
 10
2.6731
 20
289.058
 11
2.78467
 21
288.715
  0
LINE
  8
0
 10
2.78467
 20
288.715
 11
2.85233
 21
288.36
  0
LINE
  8
0
 10
2.85233
 20
288.36
 11
2.875
 21
288
  0
LINE
  8
0
 10
2.875
 20
288
 11
2.85233
 21
287.64
  0
LINE
  8
0
 10
2.85233
 20
287.64
 11
2.78467
 21
287.285
  0
LINE
  8
0
 10
2.78467
 20
287.285
 11
2.6731
 21
286.942
  0
LINE
  8
0
 10
2.6731
 20
286.942
 11
2.51938
 21
286.615
  0
LINE
  8
0
 10
2.51938
 20
286.615
 11
2.32591
 21
286.31
  0
LINE
  8
0
 10
2.32591
 20
286.31
 11
2.09578
 21
286.032
  0
LINE
  8
0
 10
2.09578
 20
286.032
 11
1.83258
 21
285.785
  0
LINE
  8
0
 10
1.83258
 20
285.785
 11
1.5405
 21
285.573
  0
LINE
  8
0
 10
1.5405
 20
285.573
 11
1.22411
 21
285.399
  0
LINE
  8
0
 10
1.22411
 20
285.399
 11
0.888412
 21
285.266
  0
LINE
  8
0
 10
0.888412
 20
285.266
 11
0.538712
 21
285.176
  0
LINE
  8
0
 10
0.538712
 20
285.176
 11
0.180511
 21
285.131
  0
LINE
  8
0
 10
0.180511
 20
285.131
 11
-0.180511
 21
285.131
  0
LINE
  8
0
 10
1.40535
 20
256.633
 11
2.31763
 21
256.867
  0
LINE
  8
0
 10
2.31763
 20
256.867
 11
3.19334
 21
257.214
  0
LINE
  8
0
 10
3.19334
 20
257.214
 11
4.01869
 21
257.668
  0
LINE
  8
0
 10
4.01869
 20
257.668
 11
4.78067
 21
258.221
  0
LINE
  8
0
 10
4.78067
 20
258.221
 11
5.46725
 21
258.866
  0
LINE
  8
0
 10
5.46725
 20
258.866
 11
6.06763
 21
259.592
  0
LINE
  8
0
 10
6.06763
 20
259.592
 11
6.5723
 21
260.387
  0
LINE
  8
0
 10
6.5723
 20
260.387
 11
6.97331
 21
261.239
  0
LINE
  8
0
 10
6.97331
 20
261.239
 11
7.26436
 21
262.135
  0
LINE
  8
0
 10
7.26436
 20
262.135
 11
7.44086
 21
263.06
  0
LINE
  8
0
 10
7.44086
 20
263.06
 11
7.5
 21
264
  0
LINE
  8
0
 10
7.5
 20
264
 11
7.44086
 21
264.94
  0
LINE
  8
0
 10
7.44086
 20
264.94
 11
7.26436
 21
265.865
  0
LINE
  8
0
 10
7.26436
 20
265.865
 11
6.97331
 21
266.761
  0
LINE
  8
0
 10
6.97331
 20
266.761
 11
6.5723
 21
267.613
  0
LINE
  8
0
 10
6.5723
 20
267.613
 11
6.06763
 21
268.408
  0
LINE
  8
0
 10
6.06763
 20
268.408
 11
5.46725
 21
269.134
  0
LINE
  8
0
 10
5.46725
 20
269.134
 11
4.78067
 21
269.779
  0
LINE
  8
0
 10
4.78067
 20
269.779
 11
4.01869
 21
270.332
  0
LINE
  8
0
 10
4.01869
 20
270.332
 11
3.19334
 21
270.786
  0
LINE
  8
0
 10
3.19334
 20
270.786
 11
2.31763
 21
271.133
  0
LINE
  8
0
 10
2.31763
 20
271.133
 11
1.40535
 21
271.367
  0
LINE
  8
0
 10
1.40535
 20
271.367
 11
0.470917
 21
271.485
  0
LINE
  8
0
 10
0.470917
 20
271.485
 11
-0.470917
 21
271.485
  0
LINE
  8
0
 10
-0.470917
 20
271.485
 11
-1.40535
 21
271.367
  0
LINE
  8
0
 10
-1.40535
 20
271.367
 11
-2.31763
 21
271.133
  0
LINE
  8
0
 10
-2.31763
 20
271.133
 11
-3.19334
 21
270.786
  0
LINE
  8
0
 10
-3.19334
 20
270.786
 11
-4.01869
 21
270.332
  0
LINE
  8
0
 10
-4.01869
 20
270.332
 11
-4.78067
 21
269.779
  0
LINE
  8
0
 10
-4.78067
 20
269.779
 11
-5.46725
 21
269.134
  0
LINE
  8
0
 10
-5.46725
 20
269.134
 11
-6.06763
 21
268.408
  0
LINE
  8
0
 10
-6.06763
 20
268.408
 11
-6.5723
 21
267.613
  0
LINE
  8
0
 10
-6.5723
 20
267.613
 11
-6.97331
 21
266.761
  0
LINE
  8
0
 10
-6.97331
 20
266.761
 11
-7.26436
 21
265.865
  0
LINE
  8
0
 10
-7.26436
 20
265.865
 11
-7.44086
 21
264.94
  0
LINE
  8
0
 10
-7.44086
 20
264.94
 11
-7.5
 21
264
  0
LINE
  8
0
 10
-7.5
 20
264
 11
-7.44086
 21
263.06
  0
LINE
  8
0
 10
-7.44086
 20
263.06
 11
-7.26436
 21
262.135
  0
LINE
  8
0
 10
-7.26436
 20
262.135
 11
-6.97331
 21
261.239
  0
LINE
  8
0
 10
-6.97331
 20
261.239
 11
-6.5723
 21
260.387
  0
LINE
  8
0
 10
-6.5723
 20
260.387
 11
-6.06763
 21
259.592
  0
LINE
  8
0
 10
-6.06763
 20
259.592
 11
-5.46725
 21
258.866
  0
LINE
  8
0
 10
-5.46725
 20
258.866
 11
-4.78067
 21
258.221
  0
LINE
  8
0
 10
-4.78067
 20
258.221
 11
-4.01869
 21
257.668
  0
LINE
  8
0
 10
-4.01869
 20
257.668
 11
-3.19334
 21
257.214
  0
LINE
  8
0
 10
-3.19334
 20
257.214
 11
-2.31763
 21
256.867
  0
LINE
  8
0
 10
-2.31763
 20
256.867
 11
-1.40535
 21
256.633
  0
LINE
  8
0
 10
-1.40535
 20
256.633
 11
-0.470917
 21
256.515
  0
LINE
  8
0
 10
-0.470917
 20
256.515
 11
0.470917
 21
256.515
  0
LINE
  8
0
 10
0.470917
 20
256.515
 11
1.40535
 21
256.633
  0
LINE
  8
0
 10
-0.180511
 20
261.131
 11
-0.538712
 21
261.176
  0
LINE
  8
0
 10
-0.538712
 20
261.176
 11
-0.888412
 21
261.266
  0
LINE
  8
0
 10
-0.888412
 20
261.266
 11
-1.22411
 21
261.399
  0
LINE
  8
0
 10
-1.22411
 20
261.399
 11
-1.5405
 21
261.573
  0
LINE
  8
0
 10
-1.5405
 20
261.573
 11
-1.83258
 21
261.785
  0
LINE
  8
0
 10
-1.83258
 20
261.785
 11
-2.09578
 21
262.032
  0
LINE
  8
0
 10
-2.09578
 20
262.032
 11
-2.32591
 21
262.31
  0
LINE
  8
0
 10
-2.32591
 20
262.31
 11
-2.51938
 21
262.615
  0
LINE
  8
0
 10
-2.51938
 20
262.615
 11
-2.6731
 21
262.942
  0
LINE
  8
0
 10
-2.6731
 20
262.942
 11
-2.78467
 21
263.285
  0
LINE
  8
0
 10
-2.78467
 20
263.285
 11
-2.85233
 21
263.64
  0
LINE
  8
0
 10
-2.85233
 20
263.64
 11
-2.875
 21
264
  0
LINE
  8
0
 10
-2.875
 20
264
 11
-2.85233
 21
264.36
  0
LINE
  8
0
 10
-2.85233
 20
264.36
 11
-2.78467
 21
264.715
  0
LINE
  8
0
 10
-2.78467
 20
264.715
 11
-2.6731
 21
265.058
  0
LINE
  8
0
 10
-2.6731
 20
265.058
 11
-2.51938
 21
265.385
  0
LINE
  8
0
 10
-2.51938
 20
265.385
 11
-2.32591
 21
265.69
  0
LINE
  8
0
 10
-2.32591
 20
265.69
 11
-2.09578
 21
265.968
  0
LINE
  8
0
 10
-2.09578
 20
265.968
 11
-1.83258
 21
266.215
  0
LINE
  8
0
 10
-1.83258
 20
266.215
 11
-1.5405
 21
266.427
  0
LINE
  8
0
 10
-1.5405
 20
266.427
 11
-1.22411
 21
266.601
  0
LINE
  8
0
 10
-1.22411
 20
266.601
 11
-0.888412
 21
266.734
  0
LINE
  8
0
 10
-0.888412
 20
266.734
 11
-0.538712
 21
266.824
  0
LINE
  8
0
 10
-0.538712
 20
266.824
 11
-0.180511
 21
266.869
  0
LINE
  8
0
 10
-0.180511
 20
266.869
 11
0.180511
 21
266.869
  0
LINE
  8
0
 10
0.180511
 20
266.869
 11
0.538712
 21
266.824
  0
LINE
  8
0
 10
0.538712
 20
266.824
 11
0.888412
 21
266.734
  0
LINE
  8
0
 10
0.888412
 20
266.734
 11
1.22411
 21
266.601
  0
LINE
  8
0
 10
1.22411
 20
266.601
 11
1.5405
 21
266.427
  0
LINE
  8
0
 10
1.5405
 20
266.427
 11
1.83258
 21
266.215
  0
LINE
  8
0
 10
1.83258
 20
266.215
 11
2.09578
 21
265.968
  0
LINE
  8
0
 10
2.09578
 20
265.968
 11
2.32591
 21
265.69
  0
LINE
  8
0
 10
2.32591
 20
265.69
 11
2.51938
 21
265.385
  0
LINE
  8
0
 10
2.51938
 20
265.385
 11
2.6731
 21
265.058
  0
LINE
  8
0
 10
2.6731
 20
265.058
 11
2.78467
 21
264.715
  0
LINE
  8
0
 10
2.78467
 20
264.715
 11
2.85233
 21
264.36
  0
LINE
  8
0
 10
2.85233
 20
264.36
 11
2.875
 21
264
  0
LINE
  8
0
 10
2.875
 20
264
 11
2.85233
 21
263.64
  0
LINE
  8
0
 10
2.85233
 20
263.64
 11
2.78467
 21
263.285
  0
LINE
  8
0
 10
2.78467
 20
263.285
 11
2.6731
 21
262.942
  0
LINE
  8
0
 10
2.6731
 20
262.942
 11
2.51938
 21
262.615
  0
LINE
  8
0
 10
2.51938
 20
262.615
 11
2.32591
 21
262.31
  0
LINE
  8
0
 10
2.32591
 20
262.31
 11
2.09578
 21
262.032
  0
LINE
  8
0
 10
2.09578
 20
262.032
 11
1.83258
 21
261.785
  0
LINE
  8
0
 10
1.83258
 20
261.785
 11
1.5405
 21
261.573
  0
LINE
  8
0
 10
1.5405
 20
261.573
 11
1.22411
 21
261.399
  0
LINE
  8
0
 10
1.22411
 20
261.399
 11
0.888412
 21
261.266
  0
LINE
  8
0
 10
0.888412
 20
261.266
 11
0.538712
 21
261.176
  0
LINE
  8
0
 10
0.538712
 20
261.176
 11
0.180511
 21
261.131
  0
LINE
  8
0
 10
0.180511
 20
261.131
 11
-0.180511
 21
261.131
  0
LINE
  8
0
 10
1.40535
 20
232.633
 11
2.31763
 21
232.867
  0
LINE
  8
0
 10
2.31763
 20
232.867
 11
3.19334
 21
233.214
  0
LINE
  8
0
 10
3.19334
 20
233.214
 11
4.01869
 21
233.668
  0
LINE
  8
0
 10
4.01869
 20
233.668
 11
4.78067
 21
234.221
  0
LINE
  8
0
 10
4.78067
 20
234.221
 11
5.46725
 21
234.866
  0
LINE
  8
0
 10
5.46725
 20
234.866
 11
6.06763
 21
235.592
  0
LINE
  8
0
 10
6.06763
 20
235.592
 11
6.5723
 21
236.387
  0
LINE
  8
0
 10
6.5723
 20
236.387
 11
6.97331
 21
237.239
  0
LINE
  8
0
 10
6.97331
 20
237.239
 11
7.26436
 21
238.135
  0
LINE
  8
0
 10
7.26436
 20
238.135
 11
7.44086
 21
239.06
  0
LINE
  8
0
 10
7.44086
 20
239.06
 11
7.5
 21
240
  0
LINE
  8
0
 10
7.5
 20
240
 11
7.44086
 21
240.94
  0
LINE
  8
0
 10
7.44086
 20
240.94
 11
7.26436
 21
241.865
  0
LINE
  8
0
 10
7.26436
 20
241.865
 11
6.97331
 21
242.761
  0
LINE
  8
0
 10
6.97331
 20
242.761
 11
6.5723
 21
243.613
  0
LINE
  8
0
 10
6.5723
 20
243.613
 11
6.06763
 21
244.408
  0
LINE
  8
0
 10
6.06763
 20
244.408
 11
5.46725
 21
245.134
  0
LINE
  8
0
 10
5.46725
 20
245.134
 11
4.78067
 21
245.779
  0
LINE
  8
0
 10
4.78067
 20
245.779
 11
4.01869
 21
246.332
  0
LINE
  8
0
 10
4.01869
 20
246.332
 11
3.19334
 21
246.786
  0
LINE
  8
0
 10
3.19334
 20
246.786
 11
2.31763
 21
247.133
  0
LINE
  8
0
 10
2.31763
 20
247.133
 11
1.40535
 21
247.367
  0
LINE
  8
0
 10
1.40535
 20
247.367
 11
0.470917
 21
247.485
  0
LINE
  8
0
 10
0.470917
 20
247.485
 11
-0.470917
 21
247.485
  0
LINE
  8
0
 10
-0.470917
 20
247.485
 11
-1.40535
 21
247.367
  0
LINE
  8
0
 10
-1.40535
 20
247.367
 11
-2.31763
 21
247.133
  0
LINE
  8
0
 10
-2.31763
 20
247.133
 11
-3.19334
 21
246.786
  0
LINE
  8
0
 10
-3.19334
 20
246.786
 11
-4.01869
 21
246.332
  0
LINE
  8
0
 10
-4.01869
 20
246.332
 11
-4.78067
 21
245.779
  0
LINE
  8
0
 10
-4.78067
 20
245.779
 11
-5.46725
 21
245.134
  0
LINE
  8
0
 10
-5.46725
 20
245.134
 11
-6.06763
 21
244.408
  0
LINE
  8
0
 10
-6.06763
 20
244.408
 11
-6.5723
 21
243.613
  0
LINE
  8
0
 10
-6.5723
 20
243.613
 11
-6.97331
 21
242.761
  0
LINE
  8
0
 10
-6.97331
 20
242.761
 11
-7.26436
 21
241.865
  0
LINE
  8
0
 10
-7.26436
 20
241.865
 11
-7.44086
 21
240.94
  0
LINE
  8
0
 10
-7.44086
 20
240.94
 11
-7.5
 21
240
  0
LINE
  8
0
 10
-7.5
 20
240
 11
-7.44086
 21
239.06
  0
LINE
  8
0
 10
-7.44086
 20
239.06
 11
-7.26436
 21
238.135
  0
LINE
  8
0
 10
-7.26436
 20
238.135
 11
-6.97331
 21
237.239
  0
LINE
  8
0
 10
-6.97331
 20
237.239
 11
-6.5723
 21
236.387
  0
LINE
  8
0
 10
-6.5723
 20
236.387
 11
-6.06763
 21
235.592
  0
LINE
  8
0
 10
-6.06763
 20
235.592
 11
-5.46725
 21
234.866
  0
LINE
  8
0
 10
-5.46725
 20
234.866
 11
-4.78067
 21
234.221
  0
LINE
  8
0
 10
-4.78067
 20
234.221
 11
-4.01869
 21
233.668
  0
LINE
  8
0
 10
-4.01869
 20
233.668
 11
-3.19334
 21
233.214
  0
LINE
  8
0
 10
-3.19334
 20
233.214
 11
-2.31763
 21
232.867
  0
LINE
  8
0
 10
-2.31763
 20
232.867
 11
-1.40535
 21
232.633
  0
LINE
  8
0
 10
-1.40535
 20
232.633
 11
-0.470917
 21
232.515
  0
LINE
  8
0
 10
-0.470917
 20
232.515
 11
0.470917
 21
232.515
  0
LINE
  8
0
 10
0.470917
 20
232.515
 11
1.40535
 21
232.633
  0
LINE
  8
0
 10
-0.180511
 20
237.131
 11
-0.538712
 21
237.176
  0
LINE
  8
0
 10
-0.538712
 20
237.176
 11
-0.888412
 21
237.266
  0
LINE
  8
0
 10
-0.888412
 20
237.266
 11
-1.22411
 21
237.399
  0
LINE
  8
0
 10
-1.22411
 20
237.399
 11
-1.5405
 21
237.573
  0
LINE
  8
0
 10
-1.5405
 20
237.573
 11
-1.83258
 21
237.785
  0
LINE
  8
0
 10
-1.83258
 20
237.785
 11
-2.09578
 21
238.032
  0
LINE
  8
0
 10
-2.09578
 20
238.032
 11
-2.32591
 21
238.31
  0
LINE
  8
0
 10
-2.32591
 20
238.31
 11
-2.51938
 21
238.615
  0
LINE
  8
0
 10
-2.51938
 20
238.615
 11
-2.6731
 21
238.942
  0
LINE
  8
0
 10
-2.6731
 20
238.942
 11
-2.78467
 21
239.285
  0
LINE
  8
0
 10
-2.78467
 20
239.285
 11
-2.85233
 21
239.64
  0
LINE
  8
0
 10
-2.85233
 20
239.64
 11
-2.875
 21
240
  0
LINE
  8
0
 10
-2.875
 20
240
 11
-2.85233
 21
240.36
  0
LINE
  8
0
 10
-2.85233
 20
240.36
 11
-2.78467
 21
240.715
  0
LINE
  8
0
 10
-2.78467
 20
240.715
 11
-2.6731
 21
241.058
  0
LINE
  8
0
 10
-2.6731
 20
241.058
 11
-2.51938
 21
241.385
  0
LINE
  8
0
 10
-2.51938
 20
241.385
 11
-2.32591
 21
241.69
  0
LINE
  8
0
 10
-2.32591
 20
241.69
 11
-2.09578
 21
241.968
  0
LINE
  8
0
 10
-2.09578
 20
241.968
 11
-1.83258
 21
242.215
  0
LINE
  8
0
 10
-1.83258
 20
242.215
 11
-1.5405
 21
242.427
  0
LINE
  8
0
 10
-1.5405
 20
242.427
 11
-1.22411
 21
242.601
  0
LINE
  8
0
 10
-1.22411
 20
242.601
 11
-0.888412
 21
242.734
  0
LINE
  8
0
 10
-0.888412
 20
242.734
 11
-0.538712
 21
242.824
  0
LINE
  8
0
 10
-0.538712
 20
242.824
 11
-0.180511
 21
242.869
  0
LINE
  8
0
 10
-0.180511
 20
242.869
 11
0.180511
 21
242.869
  0
LINE
  8
0
 10
0.180511
 20
242.869
 11
0.538712
 21
242.824
  0
LINE
  8
0
 10
0.538712
 20
242.824
 11
0.888412
 21
242.734
  0
LINE
  8
0
 10
0.888412
 20
242.734
 11
1.22411
 21
242.601
  0
LINE
  8
0
 10
1.22411
 20
242.601
 11
1.5405
 21
242.427
  0
LINE
  8
0
 10
1.5405
 20
242.427
 11
1.83258
 21
242.215
  0
LINE
  8
0
 10
1.83258
 20
242.215
 11
2.09578
 21
241.968
  0
LINE
  8
0
 10
2.09578
 20
241.968
 11
2.32591
 21
241.69
  0
LINE
  8
0
 10
2.32591
 20
241.69
 11
2.51938
 21
241.385
  0
LINE
  8
0
 10
2.51938
 20
241.385
 11
2.6731
 21
241.058
  0
LINE
  8
0
 10
2.6731
 20
241.058
 11
2.78467
 21
240.715
  0
LINE
  8
0
 10
2.78467
 20
240.715
 11
2.85233
 21
240.36
  0
LINE
  8
0
 10
2.85233
 20
240.36
 11
2.875
 21
240
  0
LINE
  8
0
 10
2.875
 20
240
 11
2.85233
 21
239.64
  0
LINE
  8
0
 10
2.85233
 20
239.64
 11
2.78467
 21
239.285
  0
LINE
  8
0
 10
2.78467
 20
239.285
 11
2.6731
 21
238.942
  0
LINE
  8
0
 10
2.6731
 20
238.942
 11
2.51938
 21
238.615
  0
LINE
  8
0
 10
2.51938
 20
238.615
 11
2.32591
 21
238.31
  0
LINE
  8
0
 10
2.32591
 20
238.31
 11
2.09578
 21
238.032
  0
LINE
  8
0
 10
2.09578
 20
238.032
 11
1.83258
 21
237.785
  0
LINE
  8
0
 10
1.83258
 20
237.785
 11
1.5405
 21
237.573
  0
LINE
  8
0
 10
1.5405
 20
237.573
 11
1.22411
 21
237.399
  0
LINE
  8
0
 10
1.22411
 20
237.399
 11
0.888412
 21
237.266
  0
LINE
  8
0
 10
0.888412
 20
237.266
 11
0.538712
 21
237.176
  0
LINE
  8
0
 10
0.538712
 20
237.176
 11
0.180511
 21
237.131
  0
LINE
  8
0
 10
0.180511
 20
237.131
 11
-0.180511
 21
237.131
  0
LINE
  8
0
 10
1.40535
 20
208.633
 11
2.31763
 21
208.867
  0
LINE
  8
0
 10
2.31763
 20
208.867
 11
3.19334
 21
209.214
  0
LINE
  8
0
 10
3.19334
 20
209.214
 11
4.01869
 21
209.668
  0
LINE
  8
0
 10
4.01869
 20
209.668
 11
4.78067
 21
210.221
  0
LINE
  8
0
 10
4.78067
 20
210.221
 11
5.46725
 21
210.866
  0
LINE
  8
0
 10
5.46725
 20
210.866
 11
6.06763
 21
211.592
  0
LINE
  8
0
 10
6.06763
 20
211.592
 11
6.5723
 21
212.387
  0
LINE
  8
0
 10
6.5723
 20
212.387
 11
6.97331
 21
213.239
  0
LINE
  8
0
 10
6.97331
 20
213.239
 11
7.26436
 21
214.135
  0
LINE
  8
0
 10
7.26436
 20
214.135
 11
7.44086
 21
215.06
  0
LINE
  8
0
 10
7.44086
 20
215.06
 11
7.5
 21
216
  0
LINE
  8
0
 10
7.5
 20
216
 11
7.44086
 21
216.94
  0
LINE
  8
0
 10
7.44086
 20
216.94
 11
7.26436
 21
217.865
  0
LINE
  8
0
 10
7.26436
 20
217.865
 11
6.97331
 21
218.761
  0
LINE
  8
0
 10
6.97331
 20
218.761
 11
6.5723
 21
219.613
  0
LINE
  8
0
 10
6.5723
 20
219.613
 11
6.06763
 21
220.408
  0
LINE
  8
0
 10
6.06763
 20
220.408
 11
5.46725
 21
221.134
  0
LINE
  8
0
 10
5.46725
 20
221.134
 11
4.78067
 21
221.779
  0
LINE
  8
0
 10
4.78067
 20
221.779
 11
4.01869
 21
222.332
  0
LINE
  8
0
 10
4.01869
 20
222.332
 11
3.19334
 21
222.786
  0
LINE
  8
0
 10
3.19334
 20
222.786
 11
2.31763
 21
223.133
  0
LINE
  8
0
 10
2.31763
 20
223.133
 11
1.40535
 21
223.367
  0
LINE
  8
0
 10
1.40535
 20
223.367
 11
0.470917
 21
223.485
  0
LINE
  8
0
 10
0.470917
 20
223.485
 11
-0.470917
 21
223.485
  0
LINE
  8
0
 10
-0.470917
 20
223.485
 11
-1.40535
 21
223.367
  0
LINE
  8
0
 10
-1.40535
 20
223.367
 11
-2.31763
 21
223.133
  0
LINE
  8
0
 10
-2.31763
 20
223.133
 11
-3.19334
 21
222.786
  0
LINE
  8
0
 10
-3.19334
 20
222.786
 11
-4.01869
 21
222.332
  0
LINE
  8
0
 10
-4.01869
 20
222.332
 11
-4.78067
 21
221.779
  0
LINE
  8
0
 10
-4.78067
 20
221.779
 11
-5.46725
 21
221.134
  0
LINE
  8
0
 10
-5.46725
 20
221.134
 11
-6.06763
 21
220.408
  0
LINE
  8
0
 10
-6.06763
 20
220.408
 11
-6.5723
 21
219.613
  0
LINE
  8
0
 10
-6.5723
 20
219.613
 11
-6.97331
 21
218.761
  0
LINE
  8
0
 10
-6.97331
 20
218.761
 11
-7.26436
 21
217.865
  0
LINE
  8
0
 10
-7.26436
 20
217.865
 11
-7.44086
 21
216.94
  0
LINE
  8
0
 10
-7.44086
 20
216.94
 11
-7.5
 21
216
  0
LINE
  8
0
 10
-7.5
 20
216
 11
-7.44086
 21
215.06
  0
LINE
  8
0
 10
-7.44086
 20
215.06
 11
-7.26436
 21
214.135
  0
LINE
  8
0
 10
-7.26436
 20
214.135
 11
-6.97331
 21
213.239
  0
LINE
  8
0
 10
-6.97331
 20
213.239
 11
-6.5723
 21
212.387
  0
LINE
  8
0
 10
-6.5723
 20
212.387
 11
-6.06763
 21
211.592
  0
LINE
  8
0
 10
-6.06763
 20
211.592
 11
-5.46725
 21
210.866
  0
LINE
  8
0
 10
-5.46725
 20
210.866
 11
-4.78067
 21
210.221
  0
LINE
  8
0
 10
-4.78067
 20
210.221
 11
-4.01869
 21
209.668
  0
LINE
  8
0
 10
-4.01869
 20
209.668
 11
-3.19334
 21
209.214
  0
LINE
  8
0
 10
-3.19334
 20
209.214
 11
-2.31763
 21
208.867
  0
LINE
  8
0
 10
-2.31763
 20
208.867
 11
-1.40535
 21
208.633
  0
LINE
  8
0
 10
-1.40535
 20
208.633
 11
-0.470917
 21
208.515
  0
LINE
  8
0
 10
-0.470917
 20
208.515
 11
0.470917
 21
208.515
  0
LINE
  8
0
 10
0.470917
 20
208.515
 11
1.40535
 21
208.633
  0
LINE
  8
0
 10
-0.180511
 20
213.131
 11
-0.538712
 21
213.176
  0
LINE
  8
0
 10
-0.538712
 20
213.176
 11
-0.888412
 21
213.266
  0
LINE
  8
0
 10
-0.888412
 20
213.266
 11
-1.22411
 21
213.399
  0
LINE
  8
0
 10
-1.22411
 20
213.399
 11
-1.5405
 21
213.573
  0
LINE
  8
0
 10
-1.5405
 20
213.573
 11
-1.83258
 21
213.785
  0
LINE
  8
0
 10
-1.83258
 20
213.785
 11
-2.09578
 21
214.032
  0
LINE
  8
0
 10
-2.09578
 20
214.032
 11
-2.32591
 21
214.31
  0
LINE
  8
0
 10
-2.32591
 20
214.31
 11
-2.51938
 21
214.615
  0
LINE
  8
0
 10
-2.51938
 20
214.615
 11
-2.6731
 21
214.942
  0
LINE
  8
0
 10
-2.6731
 20
214.942
 11
-2.78467
 21
215.285
  0
LINE
  8
0
 10
-2.78467
 20
215.285
 11
-2.85233
 21
215.64
  0
LINE
  8
0
 10
-2.85233
 20
215.64
 11
-2.875
 21
216
  0
LINE
  8
0
 10
-2.875
 20
216
 11
-2.85233
 21
216.36
  0
LINE
  8
0
 10
-2.85233
 20
216.36
 11
-2.78467
 21
216.715
  0
LINE
  8
0
 10
-2.78467
 20
216.715
 11
-2.6731
 21
217.058
  0
LINE
  8
0
 10
-2.6731
 20
217.058
 11
-2.51938
 21
217.385
  0
LINE
  8
0
 10
-2.51938
 20
217.385
 11
-2.32591
 21
217.69
  0
LINE
  8
0
 10
-2.32591
 20
217.69
 11
-2.09578
 21
217.968
  0
LINE
  8
0
 10
-2.09578
 20
217.968
 11
-1.83258
 21
218.215
  0
LINE
  8
0
 10
-1.83258
 20
218.215
 11
-1.5405
 21
218.427
  0
LINE
  8
0
 10
-1.5405
 20
218.427
 11
-1.22411
 21
218.601
  0
LINE
  8
0
 10
-1.22411
 20
218.601
 11
-0.888412
 21
218.734
  0
LINE
  8
0
 10
-0.888412
 20
218.734
 11
-0.538712
 21
218.824
  0
LINE
  8
0
 10
-0.538712
 20
218.824
 11
-0.180511
 21
218.869
  0
LINE
  8
0
 10
-0.180511
 20
218.869
 11
0.180511
 21
218.869
  0
LINE
  8
0
 10
0.180511
 20
218.869
 11
0.538712
 21
218.824
  0
LINE
  8
0
 10
0.538712
 20
218.824
 11
0.888412
 21
218.734
  0
LINE
  8
0
 10
0.888412
 20
218.734
 11
1.22411
 21
218.601
  0
LINE
  8
0
 10
1.22411
 20
218.601
 11
1.5405
 21
218.427
  0
LINE
  8
0
 10
1.5405
 20
218.427
 11
1.83258
 21
218.215
  0
LINE
  8
0
 10
1.83258
 20
218.215
 11
2.09578
 21
217.968
  0
LINE
  8
0
 10
2.09578
 20
217.968
 11
2.32591
 21
217.69
  0
LINE
  8
0
 10
2.32591
 20
217.69
 11
2.51938
 21
217.385
  0
LINE
  8
0
 10
2.51938
 20
217.385
 11
2.6731
 21
217.058
  0
LINE
  8
0
 10
2.6731
 20
217.058
 11
2.78467
 21
216.715
  0
LINE
  8
0
 10
2.78467
 20
216.715
 11
2.85233
 21
216.36
  0
LINE
  8
0
 10
2.85233
 20
216.36
 11
2.875
 21
216
  0
LINE
  8
0
 10
2.875
 20
216
 11
2.85233
 21
215.64
  0
LINE
  8
0
 10
2.85233
 20
215.64
 11
2.78467
 21
215.285
  0
LINE
  8
0
 10
2.78467
 20
215.285
 11
2.6731
 21
214.942
  0
LINE
  8
0
 10
2.6731
 20
214.942
 11
2.51938
 21
214.615
  0
LINE
  8
0
 10
2.51938
 20
214.615
 11
2.32591
 21
214.31
  0
LINE
  8
0
 10
2.32591
 20
214.31
 11
2.09578
 21
214.032
  0
LINE
  8
0
 10
2.09578
 20
214.032
 11
1.83258
 21
213.785
  0
LINE
  8
0
 10
1.83258
 20
213.785
 11
1.5405
 21
213.573
  0
LINE
  8
0
 10
1.5405
 20
213.573
 11
1.22411
 21
213.399
  0
LINE
  8
0
 10
1.22411
 20
213.399
 11
0.888412
 21
213.266
  0
LINE
  8
0
 10
0.888412
 20
213.266
 11
0.538712
 21
213.176
  0
LINE
  8
0
 10
0.538712
 20
213.176
 11
0.180511
 21
213.131
  0
LINE
  8
0
 10
0.180511
 20
213.131
 11
-0.180511
 21
213.131
  0
LINE
  8
0
 10
1.40535
 20
184.633
 11
2.31763
 21
184.867
  0
LINE
  8
0
 10
2.31763
 20
184.867
 11
3.19334
 21
185.214
  0
LINE
  8
0
 10
3.19334
 20
185.214
 11
4.01869
 21
185.668
  0
LINE
  8
0
 10
4.01869
 20
185.668
 11
4.78067
 21
186.221
  0
LINE
  8
0
 10
4.78067
 20
186.221
 11
5.46725
 21
186.866
  0
LINE
  8
0
 10
5.46725
 20
186.866
 11
6.06763
 21
187.592
  0
LINE
  8
0
 10
6.06763
 20
187.592
 11
6.5723
 21
188.387
  0
LINE
  8
0
 10
6.5723
 20
188.387
 11
6.97331
 21
189.239
  0
LINE
  8
0
 10
6.97331
 20
189.239
 11
7.26436
 21
190.135
  0
LINE
  8
0
 10
7.26436
 20
190.135
 11
7.44086
 21
191.06
  0
LINE
  8
0
 10
7.44086
 20
191.06
 11
7.5
 21
192
  0
LINE
  8
0
 10
7.5
 20
192
 11
7.44086
 21
192.94
  0
LINE
  8
0
 10
7.44086
 20
192.94
 11
7.26436
 21
193.865
  0
LINE
  8
0
 10
7.26436
 20
193.865
 11
6.97331
 21
194.761
  0
LINE
  8
0
 10
6.97331
 20
194.761
 11
6.5723
 21
195.613
  0
LINE
  8
0
 10
6.5723
 20
195.613
 11
6.06763
 21
196.408
  0
LINE
  8
0
 10
6.06763
 20
196.408
 11
5.46725
 21
197.134
  0
LINE
  8
0
 10
5.46725
 20
197.134
 11
4.78067
 21
197.779
  0
LINE
  8
0
 10
4.78067
 20
197.779
 11
4.01869
 21
198.332
  0
LINE
  8
0
 10
4.01869
 20
198.332
 11
3.19334
 21
198.786
  0
LINE
  8
0
 10
3.19334
 20
198.786
 11
2.31763
 21
199.133
  0
LINE
  8
0
 10
2.31763
 20
199.133
 11
1.40535
 21
199.367
  0
LINE
  8
0
 10
1.40535
 20
199.367
 11
0.470917
 21
199.485
  0
LINE
  8
0
 10
0.470917
 20
199.485
 11
-0.470917
 21
199.485
  0
LINE
  8
0
 10
-0.470917
 20
199.485
 11
-1.40535
 21
199.367
  0
LINE
  8
0
 10
-1.40535
 20
199.367
 11
-2.31763
 21
199.133
  0
LINE
  8
0
 10
-2.31763
 20
199.133
 11
-3.19334
 21
198.786
  0
LINE
  8
0
 10
-3.19334
 20
198.786
 11
-4.01869
 21
198.332
  0
LINE
  8
0
 10
-4.01869
 20
198.332
 11
-4.78067
 21
197.779
  0
LINE
  8
0
 10
-4.78067
 20
197.779
 11
-5.46725
 21
197.134
  0
LINE
  8
0
 10
-5.46725
 20
197.134
 11
-6.06763
 21
196.408
  0
LINE
  8
0
 10
-6.06763
 20
196.408
 11
-6.5723
 21
195.613
  0
LINE
  8
0
 10
-6.5723
 20
195.613
 11
-6.97331
 21
194.761
  0
LINE
  8
0
 10
-6.97331
 20
194.761
 11
-7.26436
 21
193.865
  0
LINE
  8
0
 10
-7.26436
 20
193.865
 11
-7.44086
 21
192.94
  0
LINE
  8
0
 10
-7.44086
 20
192.94
 11
-7.5
 21
192
  0
LINE
  8
0
 10
-7.5
 20
192
 11
-7.44086
 21
191.06
  0
LINE
  8
0
 10
-7.44086
 20
191.06
 11
-7.26436
 21
190.135
  0
LINE
  8
0
 10
-7.26436
 20
190.135
 11
-6.97331
 21
189.239
  0
LINE
  8
0
 10
-6.97331
 20
189.239
 11
-6.5723
 21
188.387
  0
LINE
  8
0
 10
-6.5723
 20
188.387
 11
-6.06763
 21
187.592
  0
LINE
  8
0
 10
-6.06763
 20
187.592
 11
-5.46725
 21
186.866
  0
LINE
  8
0
 10
-5.46725
 20
186.866
 11
-4.78067
 21
186.221
  0
LINE
  8
0
 10
-4.78067
 20
186.221
 11
-4.01869
 21
185.668
  0
LINE
  8
0
 10
-4.01869
 20
185.668
 11
-3.19334
 21
185.214
  0
LINE
  8
0
 10
-3.19334
 20
185.214
 11
-2.31763
 21
184.867
  0
LINE
  8
0
 10
-2.31763
 20
184.867
 11
-1.40535
 21
184.633
  0
LINE
  8
0
 10
-1.40535
 20
184.633
 11
-0.470917
 21
184.515
  0
LINE
  8
0
 10
-0.470917
 20
184.515
 11
0.470917
 21
184.515
  0
LINE
  8
0
 10
0.470917
 20
184.515
 11
1.40535
 21
184.633
  0
LINE
  8
0
 10
-0.180511
 20
189.131
 11
-0.538712
 21
189.176
  0
LINE
  8
0
 10
-0.538712
 20
189.176
 11
-0.888412
 21
189.266
  0
LINE
  8
0
 10
-0.888412
 20
189.266
 11
-1.22411
 21
189.399
  0
LINE
  8
0
 10
-1.22411
 20
189.399
 11
-1.5405
 21
189.573
  0
LINE
  8
0
 10
-1.5405
 20
189.573
 11
-1.83258
 21
189.785
  0
LINE
  8
0
 10
-1.83258
 20
189.785
 11
-2.09578
 21
190.032
  0
LINE
  8
0
 10
-2.09578
 20
190.032
 11
-2.32591
 21
190.31
  0
LINE
  8
0
 10
-2.32591
 20
190.31
 11
-2.51938
 21
190.615
  0
LINE
  8
0
 10
-2.51938
 20
190.615
 11
-2.6731
 21
190.942
  0
LINE
  8
0
 10
-2.6731
 20
190.942
 11
-2.78467
 21
191.285
  0
LINE
  8
0
 10
-2.78467
 20
191.285
 11
-2.85233
 21
191.64
  0
LINE
  8
0
 10
-2.85233
 20
191.64
 11
-2.875
 21
192
  0
LINE
  8
0
 10
-2.875
 20
192
 11
-2.85233
 21
192.36
  0
LINE
  8
0
 10
-2.85233
 20
192.36
 11
-2.78467
 21
192.715
  0
LINE
  8
0
 10
-2.78467
 20
192.715
 11
-2.6731
 21
193.058
  0
LINE
  8
0
 10
-2.6731
 20
193.058
 11
-2.51938
 21
193.385
  0
LINE
  8
0
 10
-2.51938
 20
193.385
 11
-2.32591
 21
193.69
  0
LINE
  8
0
 10
-2.32591
 20
193.69
 11
-2.09578
 21
193.968
  0
LINE
  8
0
 10
-2.09578
 20
193.968
 11
-1.83258
 21
194.215
  0
LINE
  8
0
 10
-1.83258
 20
194.215
 11
-1.5405
 21
194.427
  0
LINE
  8
0
 10
-1.5405
 20
194.427
 11
-1.22411
 21
194.601
  0
LINE
  8
0
 10
-1.22411
 20
194.601
 11
-0.888412
 21
194.734
  0
LINE
  8
0
 10
-0.888412
 20
194.734
 11
-0.538712
 21
194.824
  0
LINE
  8
0
 10
-0.538712
 20
194.824
 11
-0.180511
 21
194.869
  0
LINE
  8
0
 10
-0.180511
 20
194.869
 11
0.180511
 21
194.869
  0
LINE
  8
0
 10
0.180511
 20
194.869
 11
0.538712
 21
194.824
  0
LINE
  8
0
 10
0.538712
 20
194.824
 11
0.888412
 21
194.734
  0
LINE
  8
0
 10
0.888412
 20
194.734
 11
1.22411
 21
194.601
  0
LINE
  8
0
 10
1.22411
 20
194.601
 11
1.5405
 21
194.427
  0
LINE
  8
0
 10
1.5405
 20
194.427
 11
1.83258
 21
194.215
  0
LINE
  8
0
 10
1.83258
 20
194.215
 11
2.09578
 21
193.968
  0
LINE
  8
0
 10
2.09578
 20
193.968
 11
2.32591
 21
193.69
  0
LINE
  8
0
 10
2.32591
 20
193.69
 11
2.51938
 21
193.385
  0
LINE
  8
0
 10
2.51938
 20
193.385
 11
2.6731
 21
193.058
  0
LINE
  8
0
 10
2.6731
 20
193.058
 11
2.78467
 21
192.715
  0
LINE
  8
0
 10
2.78467
 20
192.715
 11
2.85233
 21
192.36
  0
LINE
  8
0
 10
2.85233
 20
192.36
 11
2.875
 21
192
  0
LINE
  8
0
 10
2.875
 20
192
 11
2.85233
 21
191.64
  0
LINE
  8
0
 10
2.85233
 20
191.64
 11
2.78467
 21
191.285
  0
LINE
  8
0
 10
2.78467
 20
191.285
 11
2.6731
 21
190.942
  0
LINE
  8
0
 10
2.6731
 20
190.942
 11
2.51938
 21
190.615
  0
LINE
  8
0
 10
2.51938
 20
190.615
 11
2.32591
 21
190.31
  0
LINE
  8
0
 10
2.32591
 20
190.31
 11
2.09578
 21
190.032
  0
LINE
  8
0
 10
2.09578
 20
190.032
 11
1.83258
 21
189.785
  0
LINE
  8
0
 10
1.83258
 20
189.785
 11
1.5405
 21
189.573
  0
LINE
  8
0
 10
1.5405
 20
189.573
 11
1.22411
 21
189.399
  0
LINE
  8
0
 10
1.22411
 20
189.399
 11
0.888412
 21
189.266
  0
LINE
  8
0
 10
0.888412
 20
189.266
 11
0.538712
 21
189.176
  0
LINE
  8
0
 10
0.538712
 20
189.176
 11
0.180511
 21
189.131
  0
LINE
  8
0
 10
0.180511
 20
189.131
 11
-0.180511
 21
189.131
  0
LINE
  8
0
 10
1.40535
 20
160.633
 11
2.31763
 21
160.867
  0
LINE
  8
0
 10
2.31763
 20
160.867
 11
3.19334
 21
161.214
  0
LINE
  8
0
 10
3.19334
 20
161.214
 11
4.01869
 21
161.668
  0
LINE
  8
0
 10
4.01869
 20
161.668
 11
4.78067
 21
162.221
  0
LINE
  8
0
 10
4.78067
 20
162.221
 11
5.46725
 21
162.866
  0
LINE
  8
0
 10
5.46725
 20
162.866
 11
6.06763
 21
163.592
  0
LINE
  8
0
 10
6.06763
 20
163.592
 11
6.5723
 21
164.387
  0
LINE
  8
0
 10
6.5723
 20
164.387
 11
6.97331
 21
165.239
  0
LINE
  8
0
 10
6.97331
 20
165.239
 11
7.26436
 21
166.135
  0
LINE
  8
0
 10
7.26436
 20
166.135
 11
7.44086
 21
167.06
  0
LINE
  8
0
 10
7.44086
 20
167.06
 11
7.5
 21
168
  0
LINE
  8
0
 10
7.5
 20
168
 11
7.44086
 21
168.94
  0
LINE
  8
0
 10
7.44086
 20
168.94
 11
7.26436
 21
169.865
  0
LINE
  8
0
 10
7.26436
 20
169.865
 11
6.97331
 21
170.761
  0
LINE
  8
0
 10
6.97331
 20
170.761
 11
6.5723
 21
171.613
  0
LINE
  8
0
 10
6.5723
 20
171.613
 11
6.06763
 21
172.408
  0
LINE
  8
0
 10
6.06763
 20
172.408
 11
5.46725
 21
173.134
  0
LINE
  8
0
 10
5.46725
 20
173.134
 11
4.78067
 21
173.779
  0
LINE
  8
0
 10
4.78067
 20
173.779
 11
4.01869
 21
174.332
  0
LINE
  8
0
 10
4.01869
 20
174.332
 11
3.19334
 21
174.786
  0
LINE
  8
0
 10
3.19334
 20
174.786
 11
2.31763
 21
175.133
  0
LINE
  8
0
 10
2.31763
 20
175.133
 11
1.40535
 21
175.367
  0
LINE
  8
0
 10
1.40535
 20
175.367
 11
0.470917
 21
175.485
  0
LINE
  8
0
 10
0.470917
 20
175.485
 11
-0.470917
 21
175.485
  0
LINE
  8
0
 10
-0.470917
 20
175.485
 11
-1.40535
 21
175.367
  0
LINE
  8
0
 10
-1.40535
 20
175.367
 11
-2.31763
 21
175.133
  0
LINE
  8
0
 10
-2.31763
 20
175.133
 11
-3.19334
 21
174.786
  0
LINE
  8
0
 10
-3.19334
 20
174.786
 11
-4.01869
 21
174.332
  0
LINE
  8
0
 10
-4.01869
 20
174.332
 11
-4.78067
 21
173.779
  0
LINE
  8
0
 10
-4.78067
 20
173.779
 11
-5.46725
 21
173.134
  0
LINE
  8
0
 10
-5.46725
 20
173.134
 11
-6.06763
 21
172.408
  0
LINE
  8
0
 10
-6.06763
 20
172.408
 11
-6.5723
 21
171.613
  0
LINE
  8
0
 10
-6.5723
 20
171.613
 11
-6.97331
 21
170.761
  0
LINE
  8
0
 10
-6.97331
 20
170.761
 11
-7.26436
 21
169.865
  0
LINE
  8
0
 10
-7.26436
 20
169.865
 11
-7.44086
 21
168.94
  0
LINE
  8
0
 10
-7.44086
 20
168.94
 11
-7.5
 21
168
  0
LINE
  8
0
 10
-7.5
 20
168
 11
-7.44086
 21
167.06
  0
LINE
  8
0
 10
-7.44086
 20
167.06
 11
-7.26436
 21
166.135
  0
LINE
  8
0
 10
-7.26436
 20
166.135
 11
-6.97331
 21
165.239
  0
LINE
  8
0
 10
-6.97331
 20
165.239
 11
-6.5723
 21
164.387
  0
LINE
  8
0
 10
-6.5723
 20
164.387
 11
-6.06763
 21
163.592
  0
LINE
  8
0
 10
-6.06763
 20
163.592
 11
-5.46725
 21
162.866
  0
LINE
  8
0
 10
-5.46725
 20
162.866
 11
-4.78067
 21
162.221
  0
LINE
  8
0
 10
-4.78067
 20
162.221
 11
-4.01869
 21
161.668
  0
LINE
  8
0
 10
-4.01869
 20
161.668
 11
-3.19334
 21
161.214
  0
LINE
  8
0
 10
-3.19334
 20
161.214
 11
-2.31763
 21
160.867
  0
LINE
  8
0
 10
-2.31763
 20
160.867
 11
-1.40535
 21
160.633
  0
LINE
  8
0
 10
-1.40535
 20
160.633
 11
-0.470917
 21
160.515
  0
LINE
  8
0
 10
-0.470917
 20
160.515
 11
0.470917
 21
160.515
  0
LINE
  8
0
 10
0.470917
 20
160.515
 11
1.40535
 21
160.633
  0
LINE
  8
0
 10
-0.180511
 20
165.131
 11
-0.538712
 21
165.176
  0
LINE
  8
0
 10
-0.538712
 20
165.176
 11
-0.888412
 21
165.266
  0
LINE
  8
0
 10
-0.888412
 20
165.266
 11
-1.22411
 21
165.399
  0
LINE
  8
0
 10
-1.22411
 20
165.399
 11
-1.5405
 21
165.573
  0
LINE
  8
0
 10
-1.5405
 20
165.573
 11
-1.83258
 21
165.785
  0
LINE
  8
0
 10
-1.83258
 20
165.785
 11
-2.09578
 21
166.032
  0
LINE
  8
0
 10
-2.09578
 20
166.032
 11
-2.32591
 21
166.31
  0
LINE
  8
0
 10
-2.32591
 20
166.31
 11
-2.51938
 21
166.615
  0
LINE
  8
0
 10
-2.51938
 20
166.615
 11
-2.6731
 21
166.942
  0
LINE
  8
0
 10
-2.6731
 20
166.942
 11
-2.78467
 21
167.285
  0
LINE
  8
0
 10
-2.78467
 20
167.285
 11
-2.85233
 21
167.64
  0
LINE
  8
0
 10
-2.85233
 20
167.64
 11
-2.875
 21
168
  0
LINE
  8
0
 10
-2.875
 20
168
 11
-2.85233
 21
168.36
  0
LINE
  8
0
 10
-2.85233
 20
168.36
 11
-2.78467
 21
168.715
  0
LINE
  8
0
 10
-2.78467
 20
168.715
 11
-2.6731
 21
169.058
  0
LINE
  8
0
 10
-2.6731
 20
169.058
 11
-2.51938
 21
169.385
  0
LINE
  8
0
 10
-2.51938
 20
169.385
 11
-2.32591
 21
169.69
  0
LINE
  8
0
 10
-2.32591
 20
169.69
 11
-2.09578
 21
169.968
  0
LINE
  8
0
 10
-2.09578
 20
169.968
 11
-1.83258
 21
170.215
  0
LINE
  8
0
 10
-1.83258
 20
170.215
 11
-1.5405
 21
170.427
  0
LINE
  8
0
 10
-1.5405
 20
170.427
 11
-1.22411
 21
170.601
  0
LINE
  8
0
 10
-1.22411
 20
170.601
 11
-0.888412
 21
170.734
  0
LINE
  8
0
 10
-0.888412
 20
170.734
 11
-0.538712
 21
170.824
  0
LINE
  8
0
 10
-0.538712
 20
170.824
 11
-0.180511
 21
170.869
  0
LINE
  8
0
 10
-0.180511
 20
170.869
 11
0.180511
 21
170.869
  0
LINE
  8
0
 10
0.180511
 20
170.869
 11
0.538712
 21
170.824
  0
LINE
  8
0
 10
0.538712
 20
170.824
 11
0.888412
 21
170.734
  0
LINE
  8
0
 10
0.888412
 20
170.734
 11
1.22411
 21
170.601
  0
LINE
  8
0
 10
1.22411
 20
170.601
 11
1.5405
 21
170.427
  0
LINE
  8
0
 10
1.5405
 20
170.427
 11
1.83258
 21
170.215
  0
LINE
  8
0
 10
1.83258
 20
170.215
 11
2.09578
 21
169.968
  0
LINE
  8
0
 10
2.09578
 20
169.968
 11
2.32591
 21
169.69
  0
LINE
  8
0
 10
2.32591
 20
169.69
 11
2.51938
 21
169.385
  0
LINE
  8
0
 10
2.51938
 20
169.385
 11
2.6731
 21
169.058
  0
LINE
  8
0
 10
2.6731
 20
169.058
 11
2.78467
 21
168.715
  0
LINE
  8
0
 10
2.78467
 20
168.715
 11
2.85233
 21
168.36
  0
LINE
  8
0
 10
2.85233
 20
168.36
 11
2.875
 21
168
  0
LINE
  8
0
 10
2.875
 20
168
 11
2.85233
 21
167.64
  0
LINE
  8
0
 10
2.85233
 20
167.64
 11
2.78467
 21
167.285
  0
LINE
  8
0
 10
2.78467
 20
167.285
 11
2.6731
 21
166.942
  0
LINE
  8
0
 10
2.6731
 20
166.942
 11
2.51938
 21
166.615
  0
LINE
  8
0
 10
2.51938
 20
166.615
 11
2.32591
 21
166.31
  0
LINE
  8
0
 10
2.32591
 20
166.31
 11
2.09578
 21
166.032
  0
LINE
  8
0
 10
2.09578
 20
166.032
 11
1.83258
 21
165.785
  0
LINE
  8
0
 10
1.83258
 20
165.785
 11
1.5405
 21
165.573
  0
LINE
  8
0
 10
1.5405
 20
165.573
 11
1.22411
 21
165.399
  0
LINE
  8
0
 10
1.22411
 20
165.399
 11
0.888412
 21
165.266
  0
LINE
  8
0
 10
0.888412
 20
165.266
 11
0.538712
 21
165.176
  0
LINE
  8
0
 10
0.538712
 20
165.176
 11
0.180511
 21
165.131
  0
LINE
  8
0
 10
0.180511
 20
165.131
 11
-0.180511
 21
165.131
  0
LINE
  8
0
 10
1.40535
 20
136.633
 11
2.31763
 21
136.867
  0
LINE
  8
0
 10
2.31763
 20
136.867
 11
3.19334
 21
137.214
  0
LINE
  8
0
 10
3.19334
 20
137.214
 11
4.01869
 21
137.668
  0
LINE
  8
0
 10
4.01869
 20
137.668
 11
4.78067
 21
138.221
  0
LINE
  8
0
 10
4.78067
 20
138.221
 11
5.46725
 21
138.866
  0
LINE
  8
0
 10
5.46725
 20
138.866
 11
6.06763
 21
139.592
  0
LINE
  8
0
 10
6.06763
 20
139.592
 11
6.5723
 21
140.387
  0
LINE
  8
0
 10
6.5723
 20
140.387
 11
6.97331
 21
141.239
  0
LINE
  8
0
 10
6.97331
 20
141.239
 11
7.26436
 21
142.135
  0
LINE
  8
0
 10
7.26436
 20
142.135
 11
7.44086
 21
143.06
  0
LINE
  8
0
 10
7.44086
 20
143.06
 11
7.5
 21
144
  0
LINE
  8
0
 10
7.5
 20
144
 11
7.44086
 21
144.94
  0
LINE
  8
0
 10
7.44086
 20
144.94
 11
7.26436
 21
145.865
  0
LINE
  8
0
 10
7.26436
 20
145.865
 11
6.97331
 21
146.761
  0
LINE
  8
0
 10
6.97331
 20
146.761
 11
6.5723
 21
147.613
  0
LINE
  8
0
 10
6.5723
 20
147.613
 11
6.06763
 21
148.408
  0
LINE
  8
0
 10
6.06763
 20
148.408
 11
5.46725
 21
149.134
  0
LINE
  8
0
 10
5.46725
 20
149.134
 11
4.78067
 21
149.779
  0
LINE
  8
0
 10
4.78067
 20
149.779
 11
4.01869
 21
150.332
  0
LINE
  8
0
 10
4.01869
 20
150.332
 11
3.19334
 21
150.786
  0
LINE
  8
0
 10
3.19334
 20
150.786
 11
2.31763
 21
151.133
  0
LINE
  8
0
 10
2.31763
 20
151.133
 11
1.40535
 21
151.367
  0
LINE
  8
0
 10
1.40535
 20
151.367
 11
0.470917
 21
151.485
  0
LINE
  8
0
 10
0.470917
 20
151.485
 11
-0.470917
 21
151.485
  0
LINE
  8
0
 10
-0.470917
 20
151.485
 11
-1.40535
 21
151.367
  0
LINE
  8
0
 10
-1.40535
 20
151.367
 11
-2.31763
 21
151.133
  0
LINE
  8
0
 10
-2.31763
 20
151.133
 11
-3.19334
 21
150.786
  0
LINE
  8
0
 10
-3.19334
 20
150.786
 11
-4.01869
 21
150.332
  0
LINE
  8
0
 10
-4.01869
 20
150.332
 11
-4.78067
 21
149.779
  0
LINE
  8
0
 10
-4.78067
 20
149.779
 11
-5.46725
 21
149.134
  0
LINE
  8
0
 10
-5.46725
 20
149.134
 11
-6.06763
 21
148.408
  0
LINE
  8
0
 10
-6.06763
 20
148.408
 11
-6.5723
 21
147.613
  0
LINE
  8
0
 10
-6.5723
 20
147.613
 11
-6.97331
 21
146.761
  0
LINE
  8
0
 10
-6.97331
 20
146.761
 11
-7.26436
 21
145.865
  0
LINE
  8
0
 10
-7.26436
 20
145.865
 11
-7.44086
 21
144.94
  0
LINE
  8
0
 10
-7.44086
 20
144.94
 11
-7.5
 21
144
  0
LINE
  8
0
 10
-7.5
 20
144
 11
-7.44086
 21
143.06
  0
LINE
  8
0
 10
-7.44086
 20
143.06
 11
-7.26436
 21
142.135
  0
LINE
  8
0
 10
-7.26436
 20
142.135
 11
-6.97331
 21
141.239
  0
LINE
  8
0
 10
-6.97331
 20
141.239
 11
-6.5723
 21
140.387
  0
LINE
  8
0
 10
-6.5723
 20
140.387
 11
-6.06763
 21
139.592
  0
LINE
  8
0
 10
-6.06763
 20
139.592
 11
-5.46725
 21
138.866
  0
LINE
  8
0
 10
-5.46725
 20
138.866
 11
-4.78067
 21
138.221
  0
LINE
  8
0
 10
-4.78067
 20
138.221
 11
-4.01869
 21
137.668
  0
LINE
  8
0
 10
-4.01869
 20
137.668
 11
-3.19334
 21
137.214
  0
LINE
  8
0
 10
-3.19334
 20
137.214
 11
-2.31763
 21
136.867
  0
LINE
  8
0
 10
-2.31763
 20
136.867
 11
-1.40535
 21
136.633
  0
LINE
  8
0
 10
-1.40535
 20
136.633
 11
-0.470917
 21
136.515
  0
LINE
  8
0
 10
-0.470917
 20
136.515
 11
0.470917
 21
136.515
  0
LINE
  8
0
 10
0.470917
 20
136.515
 11
1.40535
 21
136.633
  0
LINE
  8
0
 10
-0.180511
 20
141.131
 11
-0.538712
 21
141.176
  0
LINE
  8
0
 10
-0.538712
 20
141.176
 11
-0.888412
 21
141.266
  0
LINE
  8
0
 10
-0.888412
 20
141.266
 11
-1.22411
 21
141.399
  0
LINE
  8
0
 10
-1.22411
 20
141.399
 11
-1.5405
 21
141.573
  0
LINE
  8
0
 10
-1.5405
 20
141.573
 11
-1.83258
 21
141.785
  0
LINE
  8
0
 10
-1.83258
 20
141.785
 11
-2.09578
 21
142.032
  0
LINE
  8
0
 10
-2.09578
 20
142.032
 11
-2.32591
 21
142.31
  0
LINE
  8
0
 10
-2.32591
 20
142.31
 11
-2.51938
 21
142.615
  0
LINE
  8
0
 10
-2.51938
 20
142.615
 11
-2.6731
 21
142.942
  0
LINE
  8
0
 10
-2.6731
 20
142.942
 11
-2.78467
 21
143.285
  0
LINE
  8
0
 10
-2.78467
 20
143.285
 11
-2.85233
 21
143.64
  0
LINE
  8
0
 10
-2.85233
 20
143.64
 11
-2.875
 21
144
  0
LINE
  8
0
 10
-2.875
 20
144
 11
-2.85233
 21
144.36
  0
LINE
  8
0
 10
-2.85233
 20
144.36
 11
-2.78467
 21
144.715
  0
LINE
  8
0
 10
-2.78467
 20
144.715
 11
-2.6731
 21
145.058
  0
LINE
  8
0
 10
-2.6731
 20
145.058
 11
-2.51938
 21
145.385
  0
LINE
  8
0
 10
-2.51938
 20
145.385
 11
-2.32591
 21
145.69
  0
LINE
  8
0
 10
-2.32591
 20
145.69
 11
-2.09578
 21
145.968
  0
LINE
  8
0
 10
-2.09578
 20
145.968
 11
-1.83258
 21
146.215
  0
LINE
  8
0
 10
-1.83258
 20
146.215
 11
-1.5405
 21
146.427
  0
LINE
  8
0
 10
-1.5405
 20
146.427
 11
-1.22411
 21
146.601
  0
LINE
  8
0
 10
-1.22411
 20
146.601
 11
-0.888412
 21
146.734
  0
LINE
  8
0
 10
-0.888412
 20
146.734
 11
-0.538712
 21
146.824
  0
LINE
  8
0
 10
-0.538712
 20
146.824
 11
-0.180511
 21
146.869
  0
LINE
  8
0
 10
-0.180511
 20
146.869
 11
0.180511
 21
146.869
  0
LINE
  8
0
 10
0.180511
 20
146.869
 11
0.538712
 21
146.824
  0
LINE
  8
0
 10
0.538712
 20
146.824
 11
0.888412
 21
146.734
  0
LINE
  8
0
 10
0.888412
 20
146.734
 11
1.22411
 21
146.601
  0
LINE
  8
0
 10
1.22411
 20
146.601
 11
1.5405
 21
146.427
  0
LINE
  8
0
 10
1.5405
 20
146.427
 11
1.83258
 21
146.215
  0
LINE
  8
0
 10
1.83258
 20
146.215
 11
2.09578
 21
145.968
  0
LINE
  8
0
 10
2.09578
 20
145.968
 11
2.32591
 21
145.69
  0
LINE
  8
0
 10
2.32591
 20
145.69
 11
2.51938
 21
145.385
  0
LINE
  8
0
 10
2.51938
 20
145.385
 11
2.6731
 21
145.058
  0
LINE
  8
0
 10
2.6731
 20
145.058
 11
2.78467
 21
144.715
  0
LINE
  8
0
 10
2.78467
 20
144.715
 11
2.85233
 21
144.36
  0
LINE
  8
0
 10
2.85233
 20
144.36
 11
2.875
 21
144
  0
LINE
  8
0
 10
2.875
 20
144
 11
2.85233
 21
143.64
  0
LINE
  8
0
 10
2.85233
 20
143.64
 11
2.78467
 21
143.285
  0
LINE
  8
0
 10
2.78467
 20
143.285
 11
2.6731
 21
142.942
  0
LINE
  8
0
 10
2.6731
 20
142.942
 11
2.51938
 21
142.615
  0
LINE
  8
0
 10
2.51938
 20
142.615
 11
2.32591
 21
142.31
  0
LINE
  8
0
 10
2.32591
 20
142.31
 11
2.09578
 21
142.032
  0
LINE
  8
0
 10
2.09578
 20
142.032
 11
1.83258
 21
141.785
  0
LINE
  8
0
 10
1.83258
 20
141.785
 11
1.5405
 21
141.573
  0
LINE
  8
0
 10
1.5405
 20
141.573
 11
1.22411
 21
141.399
  0
LINE
  8
0
 10
1.22411
 20
141.399
 11
0.888412
 21
141.266
  0
LINE
  8
0
 10
0.888412
 20
141.266
 11
0.538712
 21
141.176
  0
LINE
  8
0
 10
0.538712
 20
141.176
 11
0.180511
 21
141.131
  0
LINE
  8
0
 10
0.180511
 20
141.131
 11
-0.180511
 21
141.131
  0
LINE
  8
0
 10
1.40535
 20
112.633
 11
2.31763
 21
112.867
  0
LINE
  8
0
 10
2.31763
 20
112.867
 11
3.19334
 21
113.214
  0
LINE
  8
0
 10
3.19334
 20
113.214
 11
4.01869
 21
113.668
  0
LINE
  8
0
 10
4.01869
 20
113.668
 11
4.78067
 21
114.221
  0
LINE
  8
0
 10
4.78067
 20
114.221
 11
5.46725
 21
114.866
  0
LINE
  8
0
 10
5.46725
 20
114.866
 11
6.06763
 21
115.592
  0
LINE
  8
0
 10
6.06763
 20
115.592
 11
6.5723
 21
116.387
  0
LINE
  8
0
 10
6.5723
 20
116.387
 11
6.97331
 21
117.239
  0
LINE
  8
0
 10
6.97331
 20
117.239
 11
7.26436
 21
118.135
  0
LINE
  8
0
 10
7.26436
 20
118.135
 11
7.44086
 21
119.06
  0
LINE
  8
0
 10
7.44086
 20
119.06
 11
7.5
 21
120
  0
LINE
  8
0
 10
7.5
 20
120
 11
7.44086
 21
120.94
  0
LINE
  8
0
 10
7.44086
 20
120.94
 11
7.26436
 21
121.865
  0
LINE
  8
0
 10
7.26436
 20
121.865
 11
6.97331
 21
122.761
  0
LINE
  8
0
 10
6.97331
 20
122.761
 11
6.5723
 21
123.613
  0
LINE
  8
0
 10
6.5723
 20
123.613
 11
6.06763
 21
124.408
  0
LINE
  8
0
 10
6.06763
 20
124.408
 11
5.46725
 21
125.134
  0
LINE
  8
0
 10
5.46725
 20
125.134
 11
4.78067
 21
125.779
  0
LINE
  8
0
 10
4.78067
 20
125.779
 11
4.01869
 21
126.332
  0
LINE
  8
0
 10
4.01869
 20
126.332
 11
3.19334
 21
126.786
  0
LINE
  8
0
 10
3.19334
 20
126.786
 11
2.31763
 21
127.133
  0
LINE
  8
0
 10
2.31763
 20
127.133
 11
1.40535
 21
127.367
  0
LINE
  8
0
 10
1.40535
 20
127.367
 11
0.470917
 21
127.485
  0
LINE
  8
0
 10
0.470917
 20
127.485
 11
-0.470917
 21
127.485
  0
LINE
  8
0
 10
-0.470917
 20
127.485
 11
-1.40535
 21
127.367
  0
LINE
  8
0
 10
-1.40535
 20
127.367
 11
-2.31763
 21
127.133
  0
LINE
  8
0
 10
-2.31763
 20
127.133
 11
-3.19334
 21
126.786
  0
LINE
  8
0
 10
-3.19334
 20
126.786
 11
-4.01869
 21
126.332
  0
LINE
  8
0
 10
-4.01869
 20
126.332
 11
-4.78067
 21
125.779
  0
LINE
  8
0
 10
-4.78067
 20
125.779
 11
-5.46725
 21
125.134
  0
LINE
  8
0
 10
-5.46725
 20
125.134
 11
-6.06763
 21
124.408
  0
LINE
  8
0
 10
-6.06763
 20
124.408
 11
-6.5723
 21
123.613
  0
LINE
  8
0
 10
-6.5723
 20
123.613
 11
-6.97331
 21
122.761
  0
LINE
  8
0
 10
-6.97331
 20
122.761
 11
-7.26436
 21
121.865
  0
LINE
  8
0
 10
-7.26436
 20
121.865
 11
-7.44086
 21
120.94
  0
LINE
  8
0
 10
-7.44086
 20
120.94
 11
-7.5
 21
120
  0
LINE
  8
0
 10
-7.5
 20
120
 11
-7.44086
 21
119.06
  0
LINE
  8
0
 10
-7.44086
 20
119.06
 11
-7.26436
 21
118.135
  0
LINE
  8
0
 10
-7.26436
 20
118.135
 11
-6.97331
 21
117.239
  0
LINE
  8
0
 10
-6.97331
 20
117.239
 11
-6.5723
 21
116.387
  0
LINE
  8
0
 10
-6.5723
 20
116.387
 11
-6.06763
 21
115.592
  0
LINE
  8
0
 10
-6.06763
 20
115.592
 11
-5.46725
 21
114.866
  0
LINE
  8
0
 10
-5.46725
 20
114.866
 11
-4.78067
 21
114.221
  0
LINE
  8
0
 10
-4.78067
 20
114.221
 11
-4.01869
 21
113.668
  0
LINE
  8
0
 10
-4.01869
 20
113.668
 11
-3.19334
 21
113.214
  0
LINE
  8
0
 10
-3.19334
 20
113.214
 11
-2.31763
 21
112.867
  0
LINE
  8
0
 10
-2.31763
 20
112.867
 11
-1.40535
 21
112.633
  0
LINE
  8
0
 10
-1.40535
 20
112.633
 11
-0.470917
 21
112.515
  0
LINE
  8
0
 10
-0.470917
 20
112.515
 11
0.470917
 21
112.515
  0
LINE
  8
0
 10
0.470917
 20
112.515
 11
1.40535
 21
112.633
  0
LINE
  8
0
 10
-0.180511
 20
117.131
 11
-0.538712
 21
117.176
  0
LINE
  8
0
 10
-0.538712
 20
117.176
 11
-0.888412
 21
117.266
  0
LINE
  8
0
 10
-0.888412
 20
117.266
 11
-1.22411
 21
117.399
  0
LINE
  8
0
 10
-1.22411
 20
117.399
 11
-1.5405
 21
117.573
  0
LINE
  8
0
 10
-1.5405
 20
117.573
 11
-1.83258
 21
117.785
  0
LINE
  8
0
 10
-1.83258
 20
117.785
 11
-2.09578
 21
118.032
  0
LINE
  8
0
 10
-2.09578
 20
118.032
 11
-2.32591
 21
118.31
  0
LINE
  8
0
 10
-2.32591
 20
118.31
 11
-2.51938
 21
118.615
  0
LINE
  8
0
 10
-2.51938
 20
118.615
 11
-2.6731
 21
118.942
  0
LINE
  8
0
 10
-2.6731
 20
118.942
 11
-2.78467
 21
119.285
  0
LINE
  8
0
 10
-2.78467
 20
119.285
 11
-2.85233
 21
119.64
  0
LINE
  8
0
 10
-2.85233
 20
119.64
 11
-2.875
 21
120
  0
LINE
  8
0
 10
-2.875
 20
120
 11
-2.85233
 21
120.36
  0
LINE
  8
0
 10
-2.85233
 20
120.36
 11
-2.78467
 21
120.715
  0
LINE
  8
0
 10
-2.78467
 20
120.715
 11
-2.6731
 21
121.058
  0
LINE
  8
0
 10
-2.6731
 20
121.058
 11
-2.51938
 21
121.385
  0
LINE
  8
0
 10
-2.51938
 20
121.385
 11
-2.32591
 21
121.69
  0
LINE
  8
0
 10
-2.32591
 20
121.69
 11
-2.09578
 21
121.968
  0
LINE
  8
0
 10
-2.09578
 20
121.968
 11
-1.83258
 21
122.215
  0
LINE
  8
0
 10
-1.83258
 20
122.215
 11
-1.5405
 21
122.427
  0
LINE
  8
0
 10
-1.5405
 20
122.427
 11
-1.22411
 21
122.601
  0
LINE
  8
0
 10
-1.22411
 20
122.601
 11
-0.888412
 21
122.734
  0
LINE
  8
0
 10
-0.888412
 20
122.734
 11
-0.538712
 21
122.824
  0
LINE
  8
0
 10
-0.538712
 20
122.824
 11
-0.180511
 21
122.869
  0
LINE
  8
0
 10
-0.180511
 20
122.869
 11
0.180511
 21
122.869
  0
LINE
  8
0
 10
0.180511
 20
122.869
 11
0.538712
 21
122.824
  0
LINE
  8
0
 10
0.538712
 20
122.824
 11
0.888412
 21
122.734
  0
LINE
  8
0
 10
0.888412
 20
122.734
 11
1.22411
 21
122.601
  0
LINE
  8
0
 10
1.22411
 20
122.601
 11
1.5405
 21
122.427
  0
LINE
  8
0
 10
1.5405
 20
122.427
 11
1.83258
 21
122.215
  0
LINE
  8
0
 10
1.83258
 20
122.215
 11
2.09578
 21
121.968
  0
LINE
  8
0
 10
2.09578
 20
121.968
 11
2.32591
 21
121.69
  0
LINE
  8
0
 10
2.32591
 20
121.69
 11
2.51938
 21
121.385
  0
LINE
  8
0
 10
2.51938
 20
121.385
 11
2.6731
 21
121.058
  0
LINE
  8
0
 10
2.6731
 20
121.058
 11
2.78467
 21
120.715
  0
LINE
  8
0
 10
2.78467
 20
120.715
 11
2.85233
 21
120.36
  0
LINE
  8
0
 10
2.85233
 20
120.36
 11
2.875
 21
120
  0
LINE
  8
0
 10
2.875
 20
120
 11
2.85233
 21
119.64
  0
LINE
  8
0
 10
2.85233
 20
119.64
 11
2.78467
 21
119.285
  0
LINE
  8
0
 10
2.78467
 20
119.285
 11
2.6731
 21
118.942
  0
LINE
  8
0
 10
2.6731
 20
118.942
 11
2.51938
 21
118.615
  0
LINE
  8
0
 10
2.51938
 20
118.615
 11
2.32591
 21
118.31
  0
LINE
  8
0
 10
2.32591
 20
118.31
 11
2.09578
 21
118.032
  0
LINE
  8
0
 10
2.09578
 20
118.032
 11
1.83258
 21
117.785
  0
LINE
  8
0
 10
1.83258
 20
117.785
 11
1.5405
 21
117.573
  0
LINE
  8
0
 10
1.5405
 20
117.573
 11
1.22411
 21
117.399
  0
LINE
  8
0
 10
1.22411
 20
117.399
 11
0.888412
 21
117.266
  0
LINE
  8
0
 10
0.888412
 20
117.266
 11
0.538712
 21
117.176
  0
LINE
  8
0
 10
0.538712
 20
117.176
 11
0.180511
 21
117.131
  0
LINE
  8
0
 10
0.180511
 20
117.131
 11
-0.180511
 21
117.131
  0
LINE
  8
0
 10
1.40535
 20
88.6329
 11
2.31763
 21
88.8671
  0
LINE
  8
0
 10
2.31763
 20
88.8671
 11
3.19334
 21
89.2138
  0
LINE
  8
0
 10
3.19334
 20
89.2138
 11
4.01869
 21
89.6675
  0
LINE
  8
0
 10
4.01869
 20
89.6675
 11
4.78067
 21
90.2212
  0
LINE
  8
0
 10
4.78067
 20
90.2212
 11
5.46725
 21
90.8659
  0
LINE
  8
0
 10
5.46725
 20
90.8659
 11
6.06763
 21
91.5916
  0
LINE
  8
0
 10
6.06763
 20
91.5916
 11
6.5723
 21
92.3869
  0
LINE
  8
0
 10
6.5723
 20
92.3869
 11
6.97331
 21
93.2391
  0
LINE
  8
0
 10
6.97331
 20
93.2391
 11
7.26436
 21
94.1348
  0
LINE
  8
0
 10
7.26436
 20
94.1348
 11
7.44086
 21
95.06
  0
LINE
  8
0
 10
7.44086
 20
95.06
 11
7.5
 21
96
  0
LINE
  8
0
 10
7.5
 20
96
 11
7.44086
 21
96.94
  0
LINE
  8
0
 10
7.44086
 20
96.94
 11
7.26436
 21
97.8652
  0
LINE
  8
0
 10
7.26436
 20
97.8652
 11
6.97331
 21
98.7609
  0
LINE
  8
0
 10
6.97331
 20
98.7609
 11
6.5723
 21
99.6131
  0
LINE
  8
0
 10
6.5723
 20
99.6131
 11
6.06763
 21
100.408
  0
LINE
  8
0
 10
6.06763
 20
100.408
 11
5.46725
 21
101.134
  0
LINE
  8
0
 10
5.46725
 20
101.134
 11
4.78067
 21
101.779
  0
LINE
  8
0
 10
4.78067
 20
101.779
 11
4.01869
 21
102.332
  0
LINE
  8
0
 10
4.01869
 20
102.332
 11
3.19334
 21
102.786
  0
LINE
  8
0
 10
3.19334
 20
102.786
 11
2.31763
 21
103.133
  0
LINE
  8
0
 10
2.31763
 20
103.133
 11
1.40535
 21
103.367
  0
LINE
  8
0
 10
1.40535
 20
103.367
 11
0.470917
 21
103.485
  0
LINE
  8
0
 10
0.470917
 20
103.485
 11
-0.470917
 21
103.485
  0
LINE
  8
0
 10
-0.470917
 20
103.485
 11
-1.40535
 21
103.367
  0
LINE
  8
0
 10
-1.40535
 20
103.367
 11
-2.31763
 21
103.133
  0
LINE
  8
0
 10
-2.31763
 20
103.133
 11
-3.19334
 21
102.786
  0
LINE
  8
0
 10
-3.19334
 20
102.786
 11
-4.01869
 21
102.332
  0
LINE
  8
0
 10
-4.01869
 20
102.332
 11
-4.78067
 21
101.779
  0
LINE
  8
0
 10
-4.78067
 20
101.779
 11
-5.46725
 21
101.134
  0
LINE
  8
0
 10
-5.46725
 20
101.134
 11
-6.06763
 21
100.408
  0
LINE
  8
0
 10
-6.06763
 20
100.408
 11
-6.5723
 21
99.6131
  0
LINE
  8
0
 10
-6.5723
 20
99.6131
 11
-6.97331
 21
98.7609
  0
LINE
  8
0
 10
-6.97331
 20
98.7609
 11
-7.26436
 21
97.8652
  0
LINE
  8
0
 10
-7.26436
 20
97.8652
 11
-7.44086
 21
96.94
  0
LINE
  8
0
 10
-7.44086
 20
96.94
 11
-7.5
 21
96
  0
LINE
  8
0
 10
-7.5
 20
96
 11
-7.44086
 21
95.06
  0
LINE
  8
0
 10
-7.44086
 20
95.06
 11
-7.26436
 21
94.1348
  0
LINE
  8
0
 10
-7.26436
 20
94.1348
 11
-6.97331
 21
93.2391
  0
LINE
  8
0
 10
-6.97331
 20
93.2391
 11
-6.5723
 21
92.3869
  0
LINE
  8
0
 10
-6.5723
 20
92.3869
 11
-6.06763
 21
91.5916
  0
LINE
  8
0
 10
-6.06763
 20
91.5916
 11
-5.46725
 21
90.8659
  0
LINE
  8
0
 10
-5.46725
 20
90.8659
 11
-4.78067
 21
90.2212
  0
LINE
  8
0
 10
-4.78067
 20
90.2212
 11
-4.01869
 21
89.6675
  0
LINE
  8
0
 10
-4.01869
 20
89.6675
 11
-3.19334
 21
89.2138
  0
LINE
  8
0
 10
-3.19334
 20
89.2138
 11
-2.31763
 21
88.8671
  0
LINE
  8
0
 10
-2.31763
 20
88.8671
 11
-1.40535
 21
88.6329
  0
LINE
  8
0
 10
-1.40535
 20
88.6329
 11
-0.470917
 21
88.5148
  0
LINE
  8
0
 10
-0.470917
 20
88.5148
 11
0.470917
 21
88.5148
  0
LINE
  8
0
 10
0.470917
 20
88.5148
 11
1.40535
 21
88.6329
  0
LINE
  8
0
 10
-0.180511
 20
93.1307
 11
-0.538712
 21
93.1759
  0
LINE
  8
0
 10
-0.538712
 20
93.1759
 11
-0.888412
 21
93.2657
  0
LINE
  8
0
 10
-0.888412
 20
93.2657
 11
-1.22411
 21
93.3986
  0
LINE
  8
0
 10
-1.22411
 20
93.3986
 11
-1.5405
 21
93.5726
  0
LINE
  8
0
 10
-1.5405
 20
93.5726
 11
-1.83258
 21
93.7848
  0
LINE
  8
0
 10
-1.83258
 20
93.7848
 11
-2.09578
 21
94.0319
  0
LINE
  8
0
 10
-2.09578
 20
94.0319
 11
-2.32591
 21
94.3101
  0
LINE
  8
0
 10
-2.32591
 20
94.3101
 11
-2.51938
 21
94.615
  0
LINE
  8
0
 10
-2.51938
 20
94.615
 11
-2.6731
 21
94.9417
  0
LINE
  8
0
 10
-2.6731
 20
94.9417
 11
-2.78467
 21
95.285
  0
LINE
  8
0
 10
-2.78467
 20
95.285
 11
-2.85233
 21
95.6397
  0
LINE
  8
0
 10
-2.85233
 20
95.6397
 11
-2.875
 21
96
  0
LINE
  8
0
 10
-2.875
 20
96
 11
-2.85233
 21
96.3603
  0
LINE
  8
0
 10
-2.85233
 20
96.3603
 11
-2.78467
 21
96.715
  0
LINE
  8
0
 10
-2.78467
 20
96.715
 11
-2.6731
 21
97.0583
  0
LINE
  8
0
 10
-2.6731
 20
97.0583
 11
-2.51938
 21
97.385
  0
LINE
  8
0
 10
-2.51938
 20
97.385
 11
-2.32591
 21
97.6899
  0
LINE
  8
0
 10
-2.32591
 20
97.6899
 11
-2.09578
 21
97.9681
  0
LINE
  8
0
 10
-2.09578
 20
97.9681
 11
-1.83258
 21
98.2152
  0
LINE
  8
0
 10
-1.83258
 20
98.2152
 11
-1.5405
 21
98.4274
  0
LINE
  8
0
 10
-1.5405
 20
98.4274
 11
-1.22411
 21
98.6014
  0
LINE
  8
0
 10
-1.22411
 20
98.6014
 11
-0.888412
 21
98.7343
  0
LINE
  8
0
 10
-0.888412
 20
98.7343
 11
-0.538712
 21
98.8241
  0
LINE
  8
0
 10
-0.538712
 20
98.8241
 11
-0.180511
 21
98.8693
  0
LINE
  8
0
 10
-0.180511
 20
98.8693
 11
0.180511
 21
98.8693
  0
LINE
  8
0
 10
0.180511
 20
98.8693
 11
0.538712
 21
98.8241
  0
LINE
  8
0
 10
0.538712
 20
98.8241
 11
0.888412
 21
98.7343
  0
LINE
  8
0
 10
0.888412
 20
98.7343
 11
1.22411
 21
98.6014
  0
LINE
  8
0
 10
1.22411
 20
98.6014
 11
1.5405
 21
98.4274
  0
LINE
  8
0
 10
1.5405
 20
98.4274
 11
1.83258
 21
98.2152
  0
LINE
  8
0
 10
1.83258
 20
98.2152
 11
2.09578
 21
97.9681
  0
LINE
  8
0
 10
2.09578
 20
97.9681
 11
2.32591
 21
97.6899
  0
LINE
  8
0
 10
2.32591
 20
97.6899
 11
2.51938
 21
97.385
  0
LINE
  8
0
 10
2.51938
 20
97.385
 11
2.6731
 21
97.0583
  0
LINE
  8
0
 10
2.6731
 20
97.0583
 11
2.78467
 21
96.715
  0
LINE
  8
0
 10
2.78467
 20
96.715
 11
2.85233
 21
96.3603
  0
LINE
  8
0
 10
2.85233
 20
96.3603
 11
2.875
 21
96
  0
LINE
  8
0
 10
2.875
 20
96
 11
2.85233
 21
95.6397
  0
LINE
  8
0
 10
2.85233
 20
95.6397
 11
2.78467
 21
95.285
  0
LINE
  8
0
 10
2.78467
 20
95.285
 11
2.6731
 21
94.9417
  0
LINE
  8
0
 10
2.6731
 20
94.9417
 11
2.51938
 21
94.615
  0
LINE
  8
0
 10
2.51938
 20
94.615
 11
2.32591
 21
94.3101
  0
LINE
  8
0
 10
2.32591
 20
94.3101
 11
2.09578
 21
94.0319
  0
LINE
  8
0
 10
2.09578
 20
94.0319
 11
1.83258
 21
93.7848
  0
LINE
  8
0
 10
1.83258
 20
93.7848
 11
1.5405
 21
93.5726
  0
LINE
  8
0
 10
1.5405
 20
93.5726
 11
1.22411
 21
93.3986
  0
LINE
  8
0
 10
1.22411
 20
93.3986
 11
0.888412
 21
93.2657
  0
LINE
  8
0
 10
0.888412
 20
93.2657
 11
0.538712
 21
93.1759
  0
LINE
  8
0
 10
0.538712
 20
93.1759
 11
0.180511
 21
93.1307
  0
LINE
  8
0
 10
0.180511
 20
93.1307
 11
-0.180511
 21
93.1307
  0
LINE
  8
0
 10
1.40535
 20
64.6329
 11
2.31763
 21
64.8671
  0
LINE
  8
0
 10
2.31763
 20
64.8671
 11
3.19334
 21
65.2138
  0
LINE
  8
0
 10
3.19334
 20
65.2138
 11
4.01869
 21
65.6675
  0
LINE
  8
0
 10
4.01869
 20
65.6675
 11
4.78067
 21
66.2212
  0
LINE
  8
0
 10
4.78067
 20
66.2212
 11
5.46725
 21
66.8659
  0
LINE
  8
0
 10
5.46725
 20
66.8659
 11
6.06763
 21
67.5916
  0
LINE
  8
0
 10
6.06763
 20
67.5916
 11
6.5723
 21
68.3869
  0
LINE
  8
0
 10
6.5723
 20
68.3869
 11
6.97331
 21
69.2391
  0
LINE
  8
0
 10
6.97331
 20
69.2391
 11
7.26436
 21
70.1348
  0
LINE
  8
0
 10
7.26436
 20
70.1348
 11
7.44086
 21
71.06
  0
LINE
  8
0
 10
7.44086
 20
71.06
 11
7.5
 21
72
  0
LINE
  8
0
 10
7.5
 20
72
 11
7.44086
 21
72.94
  0
LINE
  8
0
 10
7.44086
 20
72.94
 11
7.26436
 21
73.8652
  0
LINE
  8
0
 10
7.26436
 20
73.8652
 11
6.97331
 21
74.7609
  0
LINE
  8
0
 10
6.97331
 20
74.7609
 11
6.5723
 21
75.6131
  0
LINE
  8
0
 10
6.5723
 20
75.6131
 11
6.06763
 21
76.4084
  0
LINE
  8
0
 10
6.06763
 20
76.4084
 11
5.46725
 21
77.1341
  0
LINE
  8
0
 10
5.46725
 20
77.1341
 11
4.78067
 21
77.7788
  0
LINE
  8
0
 10
4.78067
 20
77.7788
 11
4.01869
 21
78.3325
  0
LINE
  8
0
 10
4.01869
 20
78.3325
 11
3.19334
 21
78.7862
  0
LINE
  8
0
 10
3.19334
 20
78.7862
 11
2.31763
 21
79.1329
  0
LINE
  8
0
 10
2.31763
 20
79.1329
 11
1.40535
 21
79.3671
  0
LINE
  8
0
 10
1.40535
 20
79.3671
 11
0.470917
 21
79.4852
  0
LINE
  8
0
 10
0.470917
 20
79.4852
 11
-0.470917
 21
79.4852
  0
LINE
  8
0
 10
-0.470917
 20
79.4852
 11
-1.40535
 21
79.3671
  0
LINE
  8
0
 10
-1.40535
 20
79.3671
 11
-2.31763
 21
79.1329
  0
LINE
  8
0
 10
-2.31763
 20
79.1329
 11
-3.19334
 21
78.7862
  0
LINE
  8
0
 10
-3.19334
 20
78.7862
 11
-4.01869
 21
78.3325
  0
LINE
  8
0
 10
-4.01869
 20
78.3325
 11
-4.78067
 21
77.7788
  0
LINE
  8
0
 10
-4.78067
 20
77.7788
 11
-5.46725
 21
77.1341
  0
LINE
  8
0
 10
-5.46725
 20
77.1341
 11
-6.06763
 21
76.4084
  0
LINE
  8
0
 10
-6.06763
 20
76.4084
 11
-6.5723
 21
75.6131
  0
LINE
  8
0
 10
-6.5723
 20
75.6131
 11
-6.97331
 21
74.7609
  0
LINE
  8
0
 10
-6.97331
 20
74.7609
 11
-7.26436
 21
73.8652
  0
LINE
  8
0
 10
-7.26436
 20
73.8652
 11
-7.44086
 21
72.94
  0
LINE
  8
0
 10
-7.44086
 20
72.94
 11
-7.5
 21
72
  0
LINE
  8
0
 10
-7.5
 20
72
 11
-7.44086
 21
71.06
  0
LINE
  8
0
 10
-7.44086
 20
71.06
 11
-7.26436
 21
70.1348
  0
LINE
  8
0
 10
-7.26436
 20
70.1348
 11
-6.97331
 21
69.2391
  0
LINE
  8
0
 10
-6.97331
 20
69.2391
 11
-6.5723
 21
68.3869
  0
LINE
  8
0
 10
-6.5723
 20
68.3869
 11
-6.06763
 21
67.5916
  0
LINE
  8
0
 10
-6.06763
 20
67.5916
 11
-5.46725
 21
66.8659
  0
LINE
  8
0
 10
-5.46725
 20
66.8659
 11
-4.78067
 21
66.2212
  0
LINE
  8
0
 10
-4.78067
 20
66.2212
 11
-4.01869
 21
65.6675
  0
LINE
  8
0
 10
-4.01869
 20
65.6675
 11
-3.19334
 21
65.2138
  0
LINE
  8
0
 10
-3.19334
 20
65.2138
 11
-2.31763
 21
64.8671
  0
LINE
  8
0
 10
-2.31763
 20
64.8671
 11
-1.40535
 21
64.6329
  0
LINE
  8
0
 10
-1.40535
 20
64.6329
 11
-0.470917
 21
64.5148
  0
LINE
  8
0
 10
-0.470917
 20
64.5148
 11
0.470917
 21
64.5148
  0
LINE
  8
0
 10
0.470917
 20
64.5148
 11
1.40535
 21
64.6329
  0
LINE
  8
0
 10
-0.180511
 20
69.1307
 11
-0.538712
 21
69.1759
  0
LINE
  8
0
 10
-0.538712
 20
69.1759
 11
-0.888412
 21
69.2657
  0
LINE
  8
0
 10
-0.888412
 20
69.2657
 11
-1.22411
 21
69.3986
  0
LINE
  8
0
 10
-1.22411
 20
69.3986
 11
-1.5405
 21
69.5726
  0
LINE
  8
0
 10
-1.5405
 20
69.5726
 11
-1.83258
 21
69.7848
  0
LINE
  8
0
 10
-1.83258
 20
69.7848
 11
-2.09578
 21
70.0319
  0
LINE
  8
0
 10
-2.09578
 20
70.0319
 11
-2.32591
 21
70.3101
  0
LINE
  8
0
 10
-2.32591
 20
70.3101
 11
-2.51938
 21
70.615
  0
LINE
  8
0
 10
-2.51938
 20
70.615
 11
-2.6731
 21
70.9417
  0
LINE
  8
0
 10
-2.6731
 20
70.9417
 11
-2.78467
 21
71.285
  0
LINE
  8
0
 10
-2.78467
 20
71.285
 11
-2.85233
 21
71.6397
  0
LINE
  8
0
 10
-2.85233
 20
71.6397
 11
-2.875
 21
72
  0
LINE
  8
0
 10
-2.875
 20
72
 11
-2.85233
 21
72.3603
  0
LINE
  8
0
 10
-2.85233
 20
72.3603
 11
-2.78467
 21
72.715
  0
LINE
  8
0
 10
-2.78467
 20
72.715
 11
-2.6731
 21
73.0583
  0
LINE
  8
0
 10
-2.6731
 20
73.0583
 11
-2.51938
 21
73.385
  0
LINE
  8
0
 10
-2.51938
 20
73.385
 11
-2.32591
 21
73.6899
  0
LINE
  8
0
 10
-2.32591
 20
73.6899
 11
-2.09578
 21
73.9681
  0
LINE
  8
0
 10
-2.09578
 20
73.9681
 11
-1.83258
 21
74.2152
  0
LINE
  8
0
 10
-1.83258
 20
74.2152
 11
-1.5405
 21
74.4274
  0
LINE
  8
0
 10
-1.5405
 20
74.4274
 11
-1.22411
 21
74.6014
  0
LINE
  8
0
 10
-1.22411
 20
74.6014
 11
-0.888412
 21
74.7343
  0
LINE
  8
0
 10
-0.888412
 20
74.7343
 11
-0.538712
 21
74.8241
  0
LINE
  8
0
 10
-0.538712
 20
74.8241
 11
-0.180511
 21
74.8693
  0
LINE
  8
0
 10
-0.180511
 20
74.8693
 11
0.180511
 21
74.8693
  0
LINE
  8
0
 10
0.180511
 20
74.8693
 11
0.538712
 21
74.8241
  0
LINE
  8
0
 10
0.538712
 20
74.8241
 11
0.888412
 21
74.7343
  0
LINE
  8
0
 10
0.888412
 20
74.7343
 11
1.22411
 21
74.6014
  0
LINE
  8
0
 10
1.22411
 20
74.6014
 11
1.5405
 21
74.4274
  0
LINE
  8
0
 10
1.5405
 20
74.4274
 11
1.83258
 21
74.2152
  0
LINE
  8
0
 10
1.83258
 20
74.2152
 11
2.09578
 21
73.9681
  0
LINE
  8
0
 10
2.09578
 20
73.9681
 11
2.32591
 21
73.6899
  0
LINE
  8
0
 10
2.32591
 20
73.6899
 11
2.51938
 21
73.385
  0
LINE
  8
0
 10
2.51938
 20
73.385
 11
2.6731
 21
73.0583
  0
LINE
  8
0
 10
2.6731
 20
73.0583
 11
2.78467
 21
72.715
  0
LINE
  8
0
 10
2.78467
 20
72.715
 11
2.85233
 21
72.3603
  0
LINE
  8
0
 10
2.85233
 20
72.3603
 11
2.875
 21
72
  0
LINE
  8
0
 10
2.875
 20
72
 11
2.85233
 21
71.6397
  0
LINE
  8
0
 10
2.85233
 20
71.6397
 11
2.78467
 21
71.285
  0
LINE
  8
0
 10
2.78467
 20
71.285
 11
2.6731
 21
70.9417
  0
LINE
  8
0
 10
2.6731
 20
70.9417
 11
2.51938
 21
70.615
  0
LINE
  8
0
 10
2.51938
 20
70.615
 11
2.32591
 21
70.3101
  0
LINE
  8
0
 10
2.32591
 20
70.3101
 11
2.09578
 21
70.0319
  0
LINE
  8
0
 10
2.09578
 20
70.0319
 11
1.83258
 21
69.7848
  0
LINE
  8
0
 10
1.83258
 20
69.7848
 11
1.5405
 21
69.5726
  0
LINE
  8
0
 10
1.5405
 20
69.5726
 11
1.22411
 21
69.3986
  0
LINE
  8
0
 10
1.22411
 20
69.3986
 11
0.888412
 21
69.2657
  0
LINE
  8
0
 10
0.888412
 20
69.2657
 11
0.538712
 21
69.1759
  0
LINE
  8
0
 10
0.538712
 20
69.1759
 11
0.180511
 21
69.1307
  0
LINE
  8
0
 10
0.180511
 20
69.1307
 11
-0.180511
 21
69.1307
  0
LINE
  8
0
 10
1.40535
 20
40.6329
 11
2.31763
 21
40.8671
  0
LINE
  8
0
 10
2.31763
 20
40.8671
 11
3.19334
 21
41.2138
  0
LINE
  8
0
 10
3.19334
 20
41.2138
 11
4.01869
 21
41.6675
  0
LINE
  8
0
 10
4.01869
 20
41.6675
 11
4.78067
 21
42.2212
  0
LINE
  8
0
 10
4.78067
 20
42.2212
 11
5.46725
 21
42.8659
  0
LINE
  8
0
 10
5.46725
 20
42.8659
 11
6.06763
 21
43.5916
  0
LINE
  8
0
 10
6.06763
 20
43.5916
 11
6.5723
 21
44.3869
  0
LINE
  8
0
 10
6.5723
 20
44.3869
 11
6.97331
 21
45.2391
  0
LINE
  8
0
 10
6.97331
 20
45.2391
 11
7.26436
 21
46.1348
  0
LINE
  8
0
 10
7.26436
 20
46.1348
 11
7.44086
 21
47.06
  0
LINE
  8
0
 10
7.44086
 20
47.06
 11
7.5
 21
48
  0
LINE
  8
0
 10
7.5
 20
48
 11
7.44086
 21
48.94
  0
LINE
  8
0
 10
7.44086
 20
48.94
 11
7.26436
 21
49.8652
  0
LINE
  8
0
 10
7.26436
 20
49.8652
 11
6.97331
 21
50.7609
  0
LINE
  8
0
 10
6.97331
 20
50.7609
 11
6.5723
 21
51.6131
  0
LINE
  8
0
 10
6.5723
 20
51.6131
 11
6.06763
 21
52.4084
  0
LINE
  8
0
 10
6.06763
 20
52.4084
 11
5.46725
 21
53.1341
  0
LINE
  8
0
 10
5.46725
 20
53.1341
 11
4.78067
 21
53.7788
  0
LINE
  8
0
 10
4.78067
 20
53.7788
 11
4.01869
 21
54.3325
  0
LINE
  8
0
 10
4.01869
 20
54.3325
 11
3.19334
 21
54.7862
  0
LINE
  8
0
 10
3.19334
 20
54.7862
 11
2.31763
 21
55.1329
  0
LINE
  8
0
 10
2.31763
 20
55.1329
 11
1.40535
 21
55.3671
  0
LINE
  8
0
 10
1.40535
 20
55.3671
 11
0.470917
 21
55.4852
  0
LINE
  8
0
 10
0.470917
 20
55.4852
 11
-0.470917
 21
55.4852
  0
LINE
  8
0
 10
-0.470917
 20
55.4852
 11
-1.40535
 21
55.3671
  0
LINE
  8
0
 10
-1.40535
 20
55.3671
 11
-2.31763
 21
55.1329
  0
LINE
  8
0
 10
-2.31763
 20
55.1329
 11
-3.19334
 21
54.7862
  0
LINE
  8
0
 10
-3.19334
 20
54.7862
 11
-4.01869
 21
54.3325
  0
LINE
  8
0
 10
-4.01869
 20
54.3325
 11
-4.78067
 21
53.7788
  0
LINE
  8
0
 10
-4.78067
 20
53.7788
 11
-5.46725
 21
53.1341
  0
LINE
  8
0
 10
-5.46725
 20
53.1341
 11
-6.06763
 21
52.4084
  0
LINE
  8
0
 10
-6.06763
 20
52.4084
 11
-6.5723
 21
51.6131
  0
LINE
  8
0
 10
-6.5723
 20
51.6131
 11
-6.97331
 21
50.7609
  0
LINE
  8
0
 10
-6.97331
 20
50.7609
 11
-7.26436
 21
49.8652
  0
LINE
  8
0
 10
-7.26436
 20
49.8652
 11
-7.44086
 21
48.94
  0
LINE
  8
0
 10
-7.44086
 20
48.94
 11
-7.5
 21
48
  0
LINE
  8
0
 10
-7.5
 20
48
 11
-7.44086
 21
47.06
  0
LINE
  8
0
 10
-7.44086
 20
47.06
 11
-7.26436
 21
46.1348
  0
LINE
  8
0
 10
-7.26436
 20
46.1348
 11
-6.97331
 21
45.2391
  0
LINE
  8
0
 10
-6.97331
 20
45.2391
 11
-6.5723
 21
44.3869
  0
LINE
  8
0
 10
-6.5723
 20
44.3869
 11
-6.06763
 21
43.5916
  0
LINE
  8
0
 10
-6.06763
 20
43.5916
 11
-5.46725
 21
42.8659
  0
LINE
  8
0
 10
-5.46725
 20
42.8659
 11
-4.78067
 21
42.2212
  0
LINE
  8
0
 10
-4.78067
 20
42.2212
 11
-4.01869
 21
41.6675
  0
LINE
  8
0
 10
-4.01869
 20
41.6675
 11
-3.19334
 21
41.2138
  0
LINE
  8
0
 10
-3.19334
 20
41.2138
 11
-2.31763
 21
40.8671
  0
LINE
  8
0
 10
-2.31763
 20
40.8671
 11
-1.40535
 21
40.6329
  0
LINE
  8
0
 10
-1.40535
 20
40.6329
 11
-0.470917
 21
40.5148
  0
LINE
  8
0
 10
-0.470917
 20
40.5148
 11
0.470917
 21
40.5148
  0
LINE
  8
0
 10
0.470917
 20
40.5148
 11
1.40535
 21
40.6329
  0
LINE
  8
0
 10
-0.180511
 20
45.1307
 11
-0.538712
 21
45.1759
  0
LINE
  8
0
 10
-0.538712
 20
45.1759
 11
-0.888412
 21
45.2657
  0
LINE
  8
0
 10
-0.888412
 20
45.2657
 11
-1.22411
 21
45.3986
  0
LINE
  8
0
 10
-1.22411
 20
45.3986
 11
-1.5405
 21
45.5726
  0
LINE
  8
0
 10
-1.5405
 20
45.5726
 11
-1.83258
 21
45.7848
  0
LINE
  8
0
 10
-1.83258
 20
45.7848
 11
-2.09578
 21
46.0319
  0
LINE
  8
0
 10
-2.09578
 20
46.0319
 11
-2.32591
 21
46.3101
  0
LINE
  8
0
 10
-2.32591
 20
46.3101
 11
-2.51938
 21
46.615
  0
LINE
  8
0
 10
-2.51938
 20
46.615
 11
-2.6731
 21
46.9417
  0
LINE
  8
0
 10
-2.6731
 20
46.9417
 11
-2.78467
 21
47.285
  0
LINE
  8
0
 10
-2.78467
 20
47.285
 11
-2.85233
 21
47.6397
  0
LINE
  8
0
 10
-2.85233
 20
47.6397
 11
-2.875
 21
48
  0
LINE
  8
0
 10
-2.875
 20
48
 11
-2.85233
 21
48.3603
  0
LINE
  8
0
 10
-2.85233
 20
48.3603
 11
-2.78467
 21
48.715
  0
LINE
  8
0
 10
-2.78467
 20
48.715
 11
-2.6731
 21
49.0583
  0
LINE
  8
0
 10
-2.6731
 20
49.0583
 11
-2.51938
 21
49.385
  0
LINE
  8
0
 10
-2.51938
 20
49.385
 11
-2.32591
 21
49.6899
  0
LINE
  8
0
 10
-2.32591
 20
49.6899
 11
-2.09578
 21
49.9681
  0
LINE
  8
0
 10
-2.09578
 20
49.9681
 11
-1.83258
 21
50.2152
  0
LINE
  8
0
 10
-1.83258
 20
50.2152
 11
-1.5405
 21
50.4274
  0
LINE
  8
0
 10
-1.5405
 20
50.4274
 11
-1.22411
 21
50.6014
  0
LINE
  8
0
 10
-1.22411
 20
50.6014
 11
-0.888412
 21
50.7343
  0
LINE
  8
0
 10
-0.888412
 20
50.7343
 11
-0.538712
 21
50.8241
  0
LINE
  8
0
 10
-0.538712
 20
50.8241
 11
-0.180511
 21
50.8693
  0
LINE
  8
0
 10
-0.180511
 20
50.8693
 11
0.180511
 21
50.8693
  0
LINE
  8
0
 10
0.180511
 20
50.8693
 11
0.538712
 21
50.8241
  0
LINE
  8
0
 10
0.538712
 20
50.8241
 11
0.888412
 21
50.7343
  0
LINE
  8
0
 10
0.888412
 20
50.7343
 11
1.22411
 21
50.6014
  0
LINE
  8
0
 10
1.22411
 20
50.6014
 11
1.5405
 21
50.4274
  0
LINE
  8
0
 10
1.5405
 20
50.4274
 11
1.83258
 21
50.2152
  0
LINE
  8
0
 10
1.83258
 20
50.2152
 11
2.09578
 21
49.9681
  0
LINE
  8
0
 10
2.09578
 20
49.9681
 11
2.32591
 21
49.6899
  0
LINE
  8
0
 10
2.32591
 20
49.6899
 11
2.51938
 21
49.385
  0
LINE
  8
0
 10
2.51938
 20
49.385
 11
2.6731
 21
49.0583
  0
LINE
  8
0
 10
2.6731
 20
49.0583
 11
2.78467
 21
48.715
  0
LINE
  8
0
 10
2.78467
 20
48.715
 11
2.85233
 21
48.3603
  0
LINE
  8
0
 10
2.85233
 20
48.3603
 11
2.875
 21
48
  0
LINE
  8
0
 10
2.875
 20
48
 11
2.85233
 21
47.6397
  0
LINE
  8
0
 10
2.85233
 20
47.6397
 11
2.78467
 21
47.285
  0
LINE
  8
0
 10
2.78467
 20
47.285
 11
2.6731
 21
46.9417
  0
LINE
  8
0
 10
2.6731
 20
46.9417
 11
2.51938
 21
46.615
  0
LINE
  8
0
 10
2.51938
 20
46.615
 11
2.32591
 21
46.3101
  0
LINE
  8
0
 10
2.32591
 20
46.3101
 11
2.09578
 21
46.0319
  0
LINE
  8
0
 10
2.09578
 20
46.0319
 11
1.83258
 21
45.7848
  0
LINE
  8
0
 10
1.83258
 20
45.7848
 11
1.5405
 21
45.5726
  0
LINE
  8
0
 10
1.5405
 20
45.5726
 11
1.22411
 21
45.3986
  0
LINE
  8
0
 10
1.22411
 20
45.3986
 11
0.888412
 21
45.2657
  0
LINE
  8
0
 10
0.888412
 20
45.2657
 11
0.538712
 21
45.1759
  0
LINE
  8
0
 10
0.538712
 20
45.1759
 11
0.180511
 21
45.1307
  0
LINE
  8
0
 10
0.180511
 20
45.1307
 11
-0.180511
 21
45.1307
  0
LINE
  8
0
 10
1.40535
 20
16.6329
 11
2.31763
 21
16.8671
  0
LINE
  8
0
 10
2.31763
 20
16.8671
 11
3.19334
 21
17.2138
  0
LINE
  8
0
 10
3.19334
 20
17.2138
 11
4.01869
 21
17.6675
  0
LINE
  8
0
 10
4.01869
 20
17.6675
 11
4.78067
 21
18.2212
  0
LINE
  8
0
 10
4.78067
 20
18.2212
 11
5.46725
 21
18.8659
  0
LINE
  8
0
 10
5.46725
 20
18.8659
 11
6.06763
 21
19.5916
  0
LINE
  8
0
 10
6.06763
 20
19.5916
 11
6.5723
 21
20.3869
  0
LINE
  8
0
 10
6.5723
 20
20.3869
 11
6.97331
 21
21.2391
  0
LINE
  8
0
 10
6.97331
 20
21.2391
 11
7.26436
 21
22.1348
  0
LINE
  8
0
 10
7.26436
 20
22.1348
 11
7.44086
 21
23.06
  0
LINE
  8
0
 10
7.44086
 20
23.06
 11
7.5
 21
24
  0
LINE
  8
0
 10
7.5
 20
24
 11
7.44086
 21
24.94
  0
LINE
  8
0
 10
7.44086
 20
24.94
 11
7.26436
 21
25.8652
  0
LINE
  8
0
 10
7.26436
 20
25.8652
 11
6.97331
 21
26.7609
  0
LINE
  8
0
 10
6.97331
 20
26.7609
 11
6.5723
 21
27.6131
  0
LINE
  8
0
 10
6.5723
 20
27.6131
 11
6.06763
 21
28.4084
  0
LINE
  8
0
 10
6.06763
 20
28.4084
 11
5.46725
 21
29.1341
  0
LINE
  8
0
 10
5.46725
 20
29.1341
 11
4.78067
 21
29.7788
  0
LINE
  8
0
 10
4.78067
 20
29.7788
 11
4.01869
 21
30.3325
  0
LINE
  8
0
 10
4.01869
 20
30.3325
 11
3.19334
 21
30.7862
  0
LINE
  8
0
 10
3.19334
 20
30.7862
 11
2.31763
 21
31.1329
  0
LINE
  8
0
 10
2.31763
 20
31.1329
 11
1.40535
 21
31.3671
  0
LINE
  8
0
 10
1.40535
 20
31.3671
 11
0.470917
 21
31.4852
  0
LINE
  8
0
 10
0.470917
 20
31.4852
 11
-0.470917
 21
31.4852
  0
LINE
  8
0
 10
-0.470917
 20
31.4852
 11
-1.40535
 21
31.3671
  0
LINE
  8
0
 10
-1.40535
 20
31.3671
 11
-2.31763
 21
31.1329
  0
LINE
  8
0
 10
-2.31763
 20
31.1329
 11
-3.19334
 21
30.7862
  0
LINE
  8
0
 10
-3.19334
 20
30.7862
 11
-4.01869
 21
30.3325
  0
LINE
  8
0
 10
-4.01869
 20
30.3325
 11
-4.78067
 21
29.7788
  0
LINE
  8
0
 10
-4.78067
 20
29.7788
 11
-5.46725
 21
29.1341
  0
LINE
  8
0
 10
-5.46725
 20
29.1341
 11
-6.06763
 21
28.4084
  0
LINE
  8
0
 10
-6.06763
 20
28.4084
 11
-6.5723
 21
27.6131
  0
LINE
  8
0
 10
-6.5723
 20
27.6131
 11
-6.97331
 21
26.7609
  0
LINE
  8
0
 10
-6.97331
 20
26.7609
 11
-7.26436
 21
25.8652
  0
LINE
  8
0
 10
-7.26436
 20
25.8652
 11
-7.44086
 21
24.94
  0
LINE
  8
0
 10
-7.44086
 20
24.94
 11
-7.5
 21
24
  0
LINE
  8
0
 10
-7.5
 20
24
 11
-7.44086
 21
23.06
  0
LINE
  8
0
 10
-7.44086
 20
23.06
 11
-7.26436
 21
22.1348
  0
LINE
  8
0
 10
-7.26436
 20
22.1348
 11
-6.97331
 21
21.2391
  0
LINE
  8
0
 10
-6.97331
 20
21.2391
 11
-6.5723
 21
20.3869
  0
LINE
  8
0
 10
-6.5723
 20
20.3869
 11
-6.06763
 21
19.5916
  0
LINE
  8
0
 10
-6.06763
 20
19.5916
 11
-5.46725
 21
18.8659
  0
LINE
  8
0
 10
-5.46725
 20
18.8659
 11
-4.78067
 21
18.2212
  0
LINE
  8
0
 10
-4.78067
 20
18.2212
 11
-4.01869
 21
17.6675
  0
LINE
  8
0
 10
-4.01869
 20
17.6675
 11
-3.19334
 21
17.2138
  0
LINE
  8
0
 10
-3.19334
 20
17.2138
 11
-2.31763
 21
16.8671
  0
LINE
  8
0
 10
-2.31763
 20
16.8671
 11
-1.40535
 21
16.6329
  0
LINE
  8
0
 10
-1.40535
 20
16.6329
 11
-0.470917
 21
16.5148
  0
LINE
  8
0
 10
-0.470917
 20
16.5148
 11
0.470917
 21
16.5148
  0
LINE
  8
0
 10
0.470917
 20
16.5148
 11
1.40535
 21
16.6329
  0
LINE
  8
0
 10
-0.180511
 20
21.1307
 11
-0.538712
 21
21.1759
  0
LINE
  8
0
 10
-0.538712
 20
21.1759
 11
-0.888412
 21
21.2657
  0
LINE
  8
0
 10
-0.888412
 20
21.2657
 11
-1.22411
 21
21.3986
  0
LINE
  8
0
 10
-1.22411
 20
21.3986
 11
-1.5405
 21
21.5726
  0
LINE
  8
0
 10
-1.5405
 20
21.5726
 11
-1.83258
 21
21.7848
  0
LINE
  8
0
 10
-1.83258
 20
21.7848
 11
-2.09578
 21
22.0319
  0
LINE
  8
0
 10
-2.09578
 20
22.0319
 11
-2.32591
 21
22.3101
  0
LINE
  8
0
 10
-2.32591
 20
22.3101
 11
-2.51938
 21
22.615
  0
LINE
  8
0
 10
-2.51938
 20
22.615
 11
-2.6731
 21
22.9417
  0
LINE
  8
0
 10
-2.6731
 20
22.9417
 11
-2.78467
 21
23.285
  0
LINE
  8
0
 10
-2.78467
 20
23.285
 11
-2.85233
 21
23.6397
  0
LINE
  8
0
 10
-2.85233
 20
23.6397
 11
-2.875
 21
24
  0
LINE
  8
0
 10
-2.875
 20
24
 11
-2.85233
 21
24.3603
  0
LINE
  8
0
 10
-2.85233
 20
24.3603
 11
-2.78467
 21
24.715
  0
LINE
  8
0
 10
-2.78467
 20
24.715
 11
-2.6731
 21
25.0583
  0
LINE
  8
0
 10
-2.6731
 20
25.0583
 11
-2.51938
 21
25.385
  0
LINE
  8
0
 10
-2.51938
 20
25.385
 11
-2.32591
 21
25.6899
  0
LINE
  8
0
 10
-2.32591
 20
25.6899
 11
-2.09578
 21
25.9681
  0
LINE
  8
0
 10
-2.09578
 20
25.9681
 11
-1.83258
 21
26.2152
  0
LINE
  8
0
 10
-1.83258
 20
26.2152
 11
-1.5405
 21
26.4274
  0
LINE
  8
0
 10
-1.5405
 20
26.4274
 11
-1.22411
 21
26.6014
  0
LINE
  8
0
 10
-1.22411
 20
26.6014
 11
-0.888412
 21
26.7343
  0
LINE
  8
0
 10
-0.888412
 20
26.7343
 11
-0.538712
 21
26.8241
  0
LINE
  8
0
 10
-0.538712
 20
26.8241
 11
-0.180511
 21
26.8693
  0
LINE
  8
0
 10
-0.180511
 20
26.8693
 11
0.180511
 21
26.8693
  0
LINE
  8
0
 10
0.180511
 20
26.8693
 11
0.538712
 21
26.8241
  0
LINE
  8
0
 10
0.538712
 20
26.8241
 11
0.888412
 21
26.7343
  0
LINE
  8
0
 10
0.888412
 20
26.7343
 11
1.22411
 21
26.6014
  0
LINE
  8
0
 10
1.22411
 20
26.6014
 11
1.5405
 21
26.4274
  0
LINE
  8
0
 10
1.5405
 20
26.4274
 11
1.83258
 21
26.2152
  0
LINE
  8
0
 10
1.83258
 20
26.2152
 11
2.09578
 21
25.9681
  0
LINE
  8
0
 10
2.09578
 20
25.9681
 11
2.32591
 21
25.6899
  0
LINE
  8
0
 10
2.32591
 20
25.6899
 11
2.51938
 21
25.385
  0
LINE
  8
0
 10
2.51938
 20
25.385
 11
2.6731
 21
25.0583
  0
LINE
  8
0
 10
2.6731
 20
25.0583
 11
2.78467
 21
24.715
  0
LINE
  8
0
 10
2.78467
 20
24.715
 11
2.85233
 21
24.3603
  0
LINE
  8
0
 10
2.85233
 20
24.3603
 11
2.875
 21
24
  0
LINE
  8
0
 10
2.875
 20
24
 11
2.85233
 21
23.6397
  0
LINE
  8
0
 10
2.85233
 20
23.6397
 11
2.78467
 21
23.285
  0
LINE
  8
0
 10
2.78467
 20
23.285
 11
2.6731
 21
22.9417
  0
LINE
  8
0
 10
2.6731
 20
22.9417
 11
2.51938
 21
22.615
  0
LINE
  8
0
 10
2.51938
 20
22.615
 11
2.32591
 21
22.3101
  0
LINE
  8
0
 10
2.32591
 20
22.3101
 11
2.09578
 21
22.0319
  0
LINE
  8
0
 10
2.09578
 20
22.0319
 11
1.83258
 21
21.7848
  0
LINE
  8
0
 10
1.83258
 20
21.7848
 11
1.5405
 21
21.5726
  0
LINE
  8
0
 10
1.5405
 20
21.5726
 11
1.22411
 21
21.3986
  0
LINE
  8
0
 10
1.22411
 20
21.3986
 11
0.888412
 21
21.2657
  0
LINE
  8
0
 10
0.888412
 20
21.2657
 11
0.538712
 21
21.1759
  0
LINE
  8
0
 10
0.538712
 20
21.1759
 11
0.180511
 21
21.1307
  0
LINE
  8
0
 10
0.180511
 20
21.1307
 11
-0.180511
 21
21.1307
  0
LINE
  8
0
 10
1.40535
 20
-7.36714
 11
2.31763
 21
-7.13292
  0
LINE
  8
0
 10
2.31763
 20
-7.13292
 11
3.19334
 21
-6.78619
  0
LINE
  8
0
 10
3.19334
 20
-6.78619
 11
4.01869
 21
-6.33246
  0
LINE
  8
0
 10
4.01869
 20
-6.33246
 11
4.78067
 21
-5.77884
  0
LINE
  8
0
 10
4.78067
 20
-5.77884
 11
5.46725
 21
-5.13409
  0
LINE
  8
0
 10
5.46725
 20
-5.13409
 11
6.06763
 21
-4.40839
  0
LINE
  8
0
 10
6.06763
 20
-4.40839
 11
6.5723
 21
-3.61314
  0
LINE
  8
0
 10
6.5723
 20
-3.61314
 11
6.97331
 21
-2.76093
  0
LINE
  8
0
 10
6.97331
 20
-2.76093
 11
7.26436
 21
-1.86517
  0
LINE
  8
0
 10
7.26436
 20
-1.86517
 11
7.44086
 21
-0.939987
  0
LINE
  8
0
 10
7.44086
 20
-0.939987
 11
7.5
 21
0
  0
LINE
  8
0
 10
7.5
 20
0
 11
7.44086
 21
0.939987
  0
LINE
  8
0
 10
7.44086
 20
0.939987
 11
7.26436
 21
1.86517
  0
LINE
  8
0
 10
7.26436
 20
1.86517
 11
6.97331
 21
2.76093
  0
LINE
  8
0
 10
6.97331
 20
2.76093
 11
6.5723
 21
3.61314
  0
LINE
  8
0
 10
6.5723
 20
3.61314
 11
6.06763
 21
4.40839
  0
LINE
  8
0
 10
6.06763
 20
4.40839
 11
5.46725
 21
5.13409
  0
LINE
  8
0
 10
5.46725
 20
5.13409
 11
4.78067
 21
5.77884
  0
LINE
  8
0
 10
4.78067
 20
5.77884
 11
4.01869
 21
6.33246
  0
LINE
  8
0
 10
4.01869
 20
6.33246
 11
3.19334
 21
6.78619
  0
LINE
  8
0
 10
3.19334
 20
6.78619
 11
2.31763
 21
7.13292
  0
LINE
  8
0
 10
2.31763
 20
7.13292
 11
1.40535
 21
7.36714
  0
LINE
  8
0
 10
1.40535
 20
7.36714
 11
0.470917
 21
7.4852
  0
LINE
  8
0
 10
0.470917
 20
7.4852
 11
-0.470917
 21
7.4852
  0
LINE
  8
0
 10
-0.470917
 20
7.4852
 11
-1.40535
 21
7.36714
  0
LINE
  8
0
 10
-1.40535
 20
7.36714
 11
-2.31763
 21
7.13292
  0
LINE
  8
0
 10
-2.31763
 20
7.13292
 11
-3.19334
 21
6.78619
  0
LINE
  8
0
 10
-3.19334
 20
6.78619
 11
-4.01869
 21
6.33246
  0
LINE
  8
0
 10
-4.01869
 20
6.33246
 11
-4.78067
 21
5.77884
  0
LINE
  8
0
 10
-4.78067
 20
5.77884
 11
-5.46725
 21
5.13409
  0
LINE
  8
0
 10
-5.46725
 20
5.13409
 11
-6.06763
 21
4.40839
  0
LINE
  8
0
 10
-6.06763
 20
4.40839
 11
-6.5723
 21
3.61314
  0
LINE
  8
0
 10
-6.5723
 20
3.61314
 11
-6.97331
 21
2.76093
  0
LINE
  8
0
 10
-6.97331
 20
2.76093
 11
-7.26436
 21
1.86517
  0
LINE
  8
0
 10
-7.26436
 20
1.86517
 11
-7.44086
 21
0.939987
  0
LINE
  8
0
 10
-7.44086
 20
0.939987
 11
-7.5
 21
0
  0
LINE
  8
0
 10
-7.5
 20
0
 11
-7.44086
 21
-0.939987
  0
LINE
  8
0
 10
-7.44086
 20
-0.939987
 11
-7.26436
 21
-1.86517
  0
LINE
  8
0
 10
-7.26436
 20
-1.86517
 11
-6.97331
 21
-2.76093
  0
LINE
  8
0
 10
-6.97331
 20
-2.76093
 11
-6.5723
 21
-3.61314
  0
LINE
  8
0
 10
-6.5723
 20
-3.61314
 11
-6.06763
 21
-4.40839
  0
LINE
  8
0
 10
-6.06763
 20
-4.40839
 11
-5.46725
 21
-5.13409
  0
LINE
  8
0
 10
-5.46725
 20
-5.13409
 11
-4.78067
 21
-5.77884
  0
LINE
  8
0
 10
-4.78067
 20
-5.77884
 11
-4.01869
 21
-6.33246
  0
LINE
  8
0
 10
-4.01869
 20
-6.33246
 11
-3.19334
 21
-6.78619
  0
LINE
  8
0
 10
-3.19334
 20
-6.78619
 11
-2.31763
 21
-7.13292
  0
LINE
  8
0
 10
-2.31763
 20
-7.13292
 11
-1.40535
 21
-7.36714
  0
LINE
  8
0
 10
-1.40535
 20
-7.36714
 11
-0.470917
 21
-7.4852
  0
LINE
  8
0
 10
-0.470917
 20
-7.4852
 11
0.470917
 21
-7.4852
  0
LINE
  8
0
 10
0.470917
 20
-7.4852
 11
1.40535
 21
-7.36714
  0
LINE
  8
0
 10
-0.180511
 20
-2.86932
 11
-0.538712
 21
-2.82407
  0
LINE
  8
0
 10
-0.538712
 20
-2.82407
 11
-0.888412
 21
-2.73428
  0
LINE
  8
0
 10
-0.888412
 20
-2.73428
 11
-1.22411
 21
-2.60136
  0
LINE
  8
0
 10
-1.22411
 20
-2.60136
 11
-1.5405
 21
-2.42743
  0
LINE
  8
0
 10
-1.5405
 20
-2.42743
 11
-1.83258
 21
-2.21523
  0
LINE
  8
0
 10
-1.83258
 20
-2.21523
 11
-2.09578
 21
-1.96806
  0
LINE
  8
0
 10
-2.09578
 20
-1.96806
 11
-2.32591
 21
-1.68988
  0
LINE
  8
0
 10
-2.32591
 20
-1.68988
 11
-2.51938
 21
-1.38504
  0
LINE
  8
0
 10
-2.51938
 20
-1.38504
 11
-2.6731
 21
-1.05835
  0
LINE
  8
0
 10
-2.6731
 20
-1.05835
 11
-2.78467
 21
-0.714981
  0
LINE
  8
0
 10
-2.78467
 20
-0.714981
 11
-2.85233
 21
-0.360321
  0
LINE
  8
0
 10
-2.85233
 20
-0.360321
 11
-2.875
 21
0
  0
LINE
  8
0
 10
-2.875
 20
0
 11
-2.85233
 21
0.360321
  0
LINE
  8
0
 10
-2.85233
 20
0.360321
 11
-2.78467
 21
0.714981
  0
LINE
  8
0
 10
-2.78467
 20
0.714981
 11
-2.6731
 21
1.05835
  0
LINE
  8
0
 10
-2.6731
 20
1.05835
 11
-2.51938
 21
1.38504
  0
LINE
  8
0
 10
-2.51938
 20
1.38504
 11
-2.32591
 21
1.68988
  0
LINE
  8
0
 10
-2.32591
 20
1.68988
 11
-2.09578
 21
1.96806
  0
LINE
  8
0
 10
-2.09578
 20
1.96806
 11
-1.83258
 21
2.21523
  0
LINE
  8
0
 10
-1.83258
 20
2.21523
 11
-1.5405
 21
2.42743
  0
LINE
  8
0
 10
-1.5405
 20
2.42743
 11
-1.22411
 21
2.60136
  0
LINE
  8
0
 10
-1.22411
 20
2.60136
 11
-0.888412
 21
2.73428
  0
LINE
  8
0
 10
-0.888412
 20
2.73428
 11
-0.538712
 21
2.82407
  0
LINE
  8
0
 10
-0.538712
 20
2.82407
 11
-0.180511
 21
2.86932
  0
LINE
  8
0
 10
-0.180511
 20
2.86932
 11
0.180511
 21
2.86932
  0
LINE
  8
0
 10
0.180511
 20
2.86932
 11
0.538712
 21
2.82407
  0
LINE
  8
0
 10
0.538712
 20
2.82407
 11
0.888412
 21
2.73428
  0
LINE
  8
0
 10
0.888412
 20
2.73428
 11
1.22411
 21
2.60136
  0
LINE
  8
0
 10
1.22411
 20
2.60136
 11
1.5405
 21
2.42743
  0
LINE
  8
0
 10
1.5405
 20
2.42743
 11
1.83258
 21
2.21523
  0
LINE
  8
0
 10
1.83258
 20
2.21523
 11
2.09578
 21
1.96806
  0
LINE
  8
0
 10
2.09578
 20
1.96806
 11
2.32591
 21
1.68988
  0
LINE
  8
0
 10
2.32591
 20
1.68988
 11
2.51938
 21
1.38504
  0
LINE
  8
0
 10
2.51938
 20
1.38504
 11
2.6731
 21
1.05835
  0
LINE
  8
0
 10
2.6731
 20
1.05835
 11
2.78467
 21
0.714981
  0
LINE
  8
0
 10
2.78467
 20
0.714981
 11
2.85233
 21
0.360321
  0
LINE
  8
0
 10
2.85233
 20
0.360321
 11
2.875
 21
0
  0
LINE
  8
0
 10
2.875
 20
0
 11
2.85233
 21
-0.360321
  0
LINE
  8
0
 10
2.85233
 20
-0.360321
 11
2.78467
 21
-0.714981
  0
LINE
  8
0
 10
2.78467
 20
-0.714981
 11
2.6731
 21
-1.05835
  0
LINE
  8
0
 10
2.6731
 20
-1.05835
 11
2.51938
 21
-1.38504
  0
LINE
  8
0
 10
2.51938
 20
-1.38504
 11
2.32591
 21
-1.68988
  0
LINE
  8
0
 10
2.32591
 20
-1.68988
 11
2.09578
 21
-1.96806
  0
LINE
  8
0
 10
2.09578
 20
-1.96806
 11
1.83258
 21
-2.21523
  0
LINE
  8
0
 10
1.83258
 20
-2.21523
 11
1.5405
 21
-2.42743
  0
LINE
  8
0
 10
1.5405
 20
-2.42743
 11
1.22411
 21
-2.60136
  0
LINE
  8
0
 10
1.22411
 20
-2.60136
 11
0.888412
 21
-2.73428
  0
LINE
  8
0
 10
0.888412
 20
-2.73428
 11
0.538712
 21
-2.82407
  0
LINE
  8
0
 10
0.538712
 20
-2.82407
 11
0.180511
 21
-2.86932
  0
LINE
  8
0
 10
0.180511
 20
-2.86932
 11
-0.180511
 21
-2.86932
  0
ENDSEC
  0
SECTION
  2
OBJECTS
  0
DICTIONARY
  0
ENDSEC
  0
EOF
