solid OpenSCAD_Model
  facet normal 0.998026 0.0628038 0
    outer loop
      vertex 11.5 0 0
      vertex 11.4093 1.44133 -4
      vertex 11.4093 1.44133 0
    endloop
  endfacet
  facet normal 0.998026 0.0628038 0
    outer loop
      vertex 11.4093 1.44133 -4
      vertex 11.5 0 0
      vertex 11.5 0 -4
    endloop
  endfacet
  facet normal -0.998026 0.0628038 0
    outer loop
      vertex -11.5 0 -4
      vertex -11.4093 1.44133 0
      vertex -11.4093 1.44133 -4
    endloop
  endfacet
  facet normal -0.998026 0.0628038 0
    outer loop
      vertex -11.4093 1.44133 0
      vertex -11.5 0 -4
      vertex -11.5 0 0
    endloop
  endfacet
  facet normal 0 1 -0
    outer loop
      vertex 0.722091 11.4773 -4
      vertex -0.722091 11.4773 0
      vertex 0.722091 11.4773 0
    endloop
  endfacet
  facet normal 0 1 0
    outer loop
      vertex -0.722091 11.4773 0
      vertex 0.722091 11.4773 -4
      vertex -0.722091 11.4773 -4
    endloop
  endfacet
  facet normal 0 -1 0
    outer loop
      vertex -0.722091 -11.4773 -4
      vertex 0.722091 -11.4773 0
      vertex -0.722091 -11.4773 0
    endloop
  endfacet
  facet normal 0 -1 -0
    outer loop
      vertex 0.722091 -11.4773 0
      vertex -0.722091 -11.4773 -4
      vertex 0.722091 -11.4773 -4
    endloop
  endfacet
  facet normal 0.770515 -0.637422 0
    outer loop
      vertex 8.38314 -7.87229 0
      vertex 9.30369 -6.75953 -4
      vertex 9.30369 -6.75953 0
    endloop
  endfacet
  facet normal 0.770515 -0.637422 0
    outer loop
      vertex 9.30369 -6.75953 -4
      vertex 8.38314 -7.87229 0
      vertex 8.38314 -7.87229 -4
    endloop
  endfacet
  facet normal 0.684548 0.728968 -0
    outer loop
      vertex 8.38314 7.87229 -4
      vertex 7.33038 8.8609 0
      vertex 8.38314 7.87229 0
    endloop
  endfacet
  facet normal 0.684548 0.728968 0
    outer loop
      vertex 7.33038 8.8609 0
      vertex 8.38314 7.87229 -4
      vertex 7.33038 8.8609 -4
    endloop
  endfacet
  facet normal -0.684548 0.728968 0
    outer loop
      vertex -7.33038 8.8609 -4
      vertex -8.38314 7.87229 0
      vertex -7.33038 8.8609 0
    endloop
  endfacet
  facet normal -0.684548 0.728968 0
    outer loop
      vertex -8.38314 7.87229 0
      vertex -7.33038 8.8609 -4
      vertex -8.38314 7.87229 -4
    endloop
  endfacet
  facet normal -0.3681 0.929786 0
    outer loop
      vertex -3.55369 10.9371 -4
      vertex -4.89646 10.4055 0
      vertex -3.55369 10.9371 0
    endloop
  endfacet
  facet normal -0.3681 0.929786 0
    outer loop
      vertex -4.89646 10.4055 0
      vertex -3.55369 10.9371 -4
      vertex -4.89646 10.4055 -4
    endloop
  endfacet
  facet normal 0.904828 0.425776 0
    outer loop
      vertex 10.6924 4.23343 0
      vertex 10.0775 5.54017 -4
      vertex 10.0775 5.54017 0
    endloop
  endfacet
  facet normal 0.904828 0.425776 0
    outer loop
      vertex 10.0775 5.54017 -4
      vertex 10.6924 4.23343 0
      vertex 10.6924 4.23343 -4
    endloop
  endfacet
  facet normal 0.3681 0.929786 -0
    outer loop
      vertex 4.89646 10.4055 -4
      vertex 3.55369 10.9371 0
      vertex 4.89646 10.4055 0
    endloop
  endfacet
  facet normal 0.3681 0.929786 0
    outer loop
      vertex 3.55369 10.9371 0
      vertex 4.89646 10.4055 -4
      vertex 3.55369 10.9371 -4
    endloop
  endfacet
  facet normal 0.481747 0.87631 -0
    outer loop
      vertex 6.16201 9.70977 -4
      vertex 4.89646 10.4055 0
      vertex 6.16201 9.70977 0
    endloop
  endfacet
  facet normal 0.481747 0.87631 0
    outer loop
      vertex 4.89646 10.4055 0
      vertex 6.16201 9.70977 -4
      vertex 4.89646 10.4055 -4
    endloop
  endfacet
  facet normal -0.904828 0.425776 0
    outer loop
      vertex -10.6924 4.23343 -4
      vertex -10.0775 5.54017 0
      vertex -10.0775 5.54017 -4
    endloop
  endfacet
  facet normal -0.904828 0.425776 0
    outer loop
      vertex -10.0775 5.54017 0
      vertex -10.6924 4.23343 -4
      vertex -10.6924 4.23343 0
    endloop
  endfacet
  facet normal -0.770515 0.637422 0
    outer loop
      vertex -9.30369 6.75953 -4
      vertex -8.38314 7.87229 0
      vertex -8.38314 7.87229 -4
    endloop
  endfacet
  facet normal -0.770515 0.637422 0
    outer loop
      vertex -8.38314 7.87229 0
      vertex -9.30369 6.75953 -4
      vertex -9.30369 6.75953 0
    endloop
  endfacet
  facet normal 0 0 1
    outer loop
      vertex 10.6 0 0
      vertex 11.5 0 0
      vertex 11.4093 1.44133 0
    endloop
  endfacet
  facet normal 0 0 1
    outer loop
      vertex 10.5164 1.32853 0
      vertex 11.4093 1.44133 0
      vertex 11.1387 2.85993 0
    endloop
  endfacet
  facet normal 0 0 1
    outer loop
      vertex 11.5 0 0
      vertex 10.6 0 0
      vertex 11.4093 -1.44133 0
    endloop
  endfacet
  facet normal 0 0 1
    outer loop
      vertex 10.267 2.63611 0
      vertex 11.1387 2.85993 0
      vertex 10.6924 4.23343 0
    endloop
  endfacet
  facet normal -0 0 1
    outer loop
      vertex 10.5164 -1.32853 0
      vertex 11.4093 -1.44133 0
      vertex 10.6 0 0
    endloop
  endfacet
  facet normal 0 0 1
    outer loop
      vertex 11.4093 -1.44133 0
      vertex 10.5164 -1.32853 0
      vertex 11.1387 -2.85993 0
    endloop
  endfacet
  facet normal 0 0 1
    outer loop
      vertex 11.4093 1.44133 0
      vertex 10.5164 1.32853 0
      vertex 10.6 0 0
    endloop
  endfacet
  facet normal 0 0 1
    outer loop
      vertex 11.1387 2.85993 0
      vertex 10.267 2.63611 0
      vertex 10.5164 1.32853 0
    endloop
  endfacet
  facet normal 0 0 1
    outer loop
      vertex 9.85563 3.90212 0
      vertex 10.6924 4.23343 0
      vertex 10.0775 5.54017 0
    endloop
  endfacet
  facet normal 0 0 1
    outer loop
      vertex 10.6924 4.23343 0
      vertex 9.85563 3.90212 0
      vertex 10.267 2.63611 0
    endloop
  endfacet
  facet normal 0 0 1
    outer loop
      vertex 9.28885 5.10659 0
      vertex 10.0775 5.54017 0
      vertex 9.30369 6.75953 0
    endloop
  endfacet
  facet normal 0 0 1
    outer loop
      vertex 10.0775 5.54017 0
      vertex 9.28885 5.10659 0
      vertex 9.85563 3.90212 0
    endloop
  endfacet
  facet normal 0 0 1
    outer loop
      vertex 9.30369 6.75953 0
      vertex 8.57558 6.23052 0
      vertex 9.28885 5.10659 0
    endloop
  endfacet
  facet normal 0 0 1
    outer loop
      vertex 8.38314 7.87229 0
      vertex 8.57558 6.23052 0
      vertex 9.30369 6.75953 0
    endloop
  endfacet
  facet normal 0 0 1
    outer loop
      vertex 8.38314 7.87229 0
      vertex 7.72707 7.2562 0
      vertex 8.57558 6.23052 0
    endloop
  endfacet
  facet normal 0 0 1
    outer loop
      vertex 7.33038 8.8609 0
      vertex 7.72707 7.2562 0
      vertex 8.38314 7.87229 0
    endloop
  endfacet
  facet normal 0 0 1
    outer loop
      vertex 7.33038 8.8609 0
      vertex 6.75669 8.16744 0
      vertex 7.72707 7.2562 0
    endloop
  endfacet
  facet normal 0 0 1
    outer loop
      vertex 6.16201 9.70977 0
      vertex 6.75669 8.16744 0
      vertex 7.33038 8.8609 0
    endloop
  endfacet
  facet normal 0 0 1
    outer loop
      vertex 6.16201 9.70977 0
      vertex 5.67976 8.94988 0
      vertex 6.75669 8.16744 0
    endloop
  endfacet
  facet normal 0 0 1
    outer loop
      vertex 4.89646 10.4055 0
      vertex 5.67976 8.94988 0
      vertex 6.16201 9.70977 0
    endloop
  endfacet
  facet normal 0 0 1
    outer loop
      vertex 4.89646 10.4055 0
      vertex 4.51326 9.59117 0
      vertex 5.67976 8.94988 0
    endloop
  endfacet
  facet normal 0 0 1
    outer loop
      vertex 3.55369 10.9371 0
      vertex 4.51326 9.59117 0
      vertex 4.89646 10.4055 0
    endloop
  endfacet
  facet normal 0 0 1
    outer loop
      vertex 3.55369 10.9371 0
      vertex 3.27558 10.0812 0
      vertex 4.51326 9.59117 0
    endloop
  endfacet
  facet normal 0 0 1
    outer loop
      vertex 2.15488 11.2963 0
      vertex 3.27558 10.0812 0
      vertex 3.55369 10.9371 0
    endloop
  endfacet
  facet normal 0 0 1
    outer loop
      vertex 2.15488 11.2963 0
      vertex 1.98624 10.4122 0
      vertex 3.27558 10.0812 0
    endloop
  endfacet
  facet normal 0 0 1
    outer loop
      vertex 0.722091 11.4773 0
      vertex 1.98624 10.4122 0
      vertex 2.15488 11.2963 0
    endloop
  endfacet
  facet normal 0 0 1
    outer loop
      vertex 0.722091 11.4773 0
      vertex 0.665579 10.5791 0
      vertex 1.98624 10.4122 0
    endloop
  endfacet
  facet normal 0 0 1
    outer loop
      vertex 0.722091 11.4773 0
      vertex -0.665579 10.5791 0
      vertex 0.665579 10.5791 0
    endloop
  endfacet
  facet normal -0 0 1
    outer loop
      vertex -0.722091 11.4773 0
      vertex -0.665579 10.5791 0
      vertex 0.722091 11.4773 0
    endloop
  endfacet
  facet normal 0 0 1
    outer loop
      vertex -0.722091 11.4773 0
      vertex -1.98624 10.4122 0
      vertex -0.665579 10.5791 0
    endloop
  endfacet
  facet normal -0 0 1
    outer loop
      vertex -2.15488 11.2963 0
      vertex -1.98624 10.4122 0
      vertex -0.722091 11.4773 0
    endloop
  endfacet
  facet normal 0 0 1
    outer loop
      vertex -2.15488 11.2963 0
      vertex -3.27558 10.0812 0
      vertex -1.98624 10.4122 0
    endloop
  endfacet
  facet normal -0 0 1
    outer loop
      vertex -3.55369 10.9371 0
      vertex -3.27558 10.0812 0
      vertex -2.15488 11.2963 0
    endloop
  endfacet
  facet normal 0 0 1
    outer loop
      vertex -3.55369 10.9371 0
      vertex -4.51326 9.59117 0
      vertex -3.27558 10.0812 0
    endloop
  endfacet
  facet normal -0 0 1
    outer loop
      vertex -4.89646 10.4055 0
      vertex -4.51326 9.59117 0
      vertex -3.55369 10.9371 0
    endloop
  endfacet
  facet normal 0 0 1
    outer loop
      vertex -4.89646 10.4055 0
      vertex -5.67976 8.94988 0
      vertex -4.51326 9.59117 0
    endloop
  endfacet
  facet normal -0 0 1
    outer loop
      vertex -6.16201 9.70977 0
      vertex -5.67976 8.94988 0
      vertex -4.89646 10.4055 0
    endloop
  endfacet
  facet normal 0 0 1
    outer loop
      vertex -6.16201 9.70977 0
      vertex -6.75669 8.16744 0
      vertex -5.67976 8.94988 0
    endloop
  endfacet
  facet normal -0 0 1
    outer loop
      vertex -7.33038 8.8609 0
      vertex -6.75669 8.16744 0
      vertex -6.16201 9.70977 0
    endloop
  endfacet
  facet normal 0 0 1
    outer loop
      vertex -7.33038 8.8609 0
      vertex -7.72707 7.2562 0
      vertex -6.75669 8.16744 0
    endloop
  endfacet
  facet normal -0 0 1
    outer loop
      vertex -8.38314 7.87229 0
      vertex -7.72707 7.2562 0
      vertex -7.33038 8.8609 0
    endloop
  endfacet
  facet normal 0 0 1
    outer loop
      vertex -8.38314 7.87229 0
      vertex -8.57558 6.23052 0
      vertex -7.72707 7.2562 0
    endloop
  endfacet
  facet normal -0 0 1
    outer loop
      vertex -9.30369 6.75953 0
      vertex -8.57558 6.23052 0
      vertex -8.38314 7.87229 0
    endloop
  endfacet
  facet normal 0 0 1
    outer loop
      vertex -8.57558 6.23052 0
      vertex -9.30369 6.75953 0
      vertex -9.28885 5.10659 0
    endloop
  endfacet
  facet normal -0 0 1
    outer loop
      vertex -10.0775 5.54017 0
      vertex -9.28885 5.10659 0
      vertex -9.30369 6.75953 0
    endloop
  endfacet
  facet normal 0 0 1
    outer loop
      vertex -9.28885 5.10659 0
      vertex -10.0775 5.54017 0
      vertex -9.85563 3.90212 0
    endloop
  endfacet
  facet normal -0 0 1
    outer loop
      vertex -10.6924 4.23343 0
      vertex -9.85563 3.90212 0
      vertex -10.0775 5.54017 0
    endloop
  endfacet
  facet normal 0 0 1
    outer loop
      vertex -9.85563 3.90212 0
      vertex -10.6924 4.23343 0
      vertex -10.267 2.63611 0
    endloop
  endfacet
  facet normal 0 0 1
    outer loop
      vertex -10.267 2.63611 0
      vertex -11.1387 2.85993 0
      vertex -10.5164 1.32853 0
    endloop
  endfacet
  facet normal -0 0 1
    outer loop
      vertex -11.1387 2.85993 0
      vertex -10.267 2.63611 0
      vertex -10.6924 4.23343 0
    endloop
  endfacet
  facet normal -0 0 1
    outer loop
      vertex 10.267 -2.63611 0
      vertex 11.1387 -2.85993 0
      vertex 10.5164 -1.32853 0
    endloop
  endfacet
  facet normal 0 0 1
    outer loop
      vertex 11.1387 -2.85993 0
      vertex 10.267 -2.63611 0
      vertex 10.6924 -4.23343 0
    endloop
  endfacet
  facet normal -0 0 1
    outer loop
      vertex 9.85563 -3.90212 0
      vertex 10.6924 -4.23343 0
      vertex 10.267 -2.63611 0
    endloop
  endfacet
  facet normal 0 0 1
    outer loop
      vertex 10.6924 -4.23343 0
      vertex 9.85563 -3.90212 0
      vertex 10.0775 -5.54017 0
    endloop
  endfacet
  facet normal -0 0 1
    outer loop
      vertex 9.28885 -5.10659 0
      vertex 10.0775 -5.54017 0
      vertex 9.85563 -3.90212 0
    endloop
  endfacet
  facet normal 0 0 1
    outer loop
      vertex 10.0775 -5.54017 0
      vertex 9.28885 -5.10659 0
      vertex 9.30369 -6.75953 0
    endloop
  endfacet
  facet normal -0 0 1
    outer loop
      vertex 8.57558 -6.23052 0
      vertex 9.30369 -6.75953 0
      vertex 9.28885 -5.10659 0
    endloop
  endfacet
  facet normal 0 0 1
    outer loop
      vertex 8.57558 -6.23052 0
      vertex 8.38314 -7.87229 0
      vertex 9.30369 -6.75953 0
    endloop
  endfacet
  facet normal -0 0 1
    outer loop
      vertex 7.72707 -7.2562 0
      vertex 8.38314 -7.87229 0
      vertex 8.57558 -6.23052 0
    endloop
  endfacet
  facet normal 0 0 1
    outer loop
      vertex 7.72707 -7.2562 0
      vertex 7.33038 -8.8609 0
      vertex 8.38314 -7.87229 0
    endloop
  endfacet
  facet normal -0 0 1
    outer loop
      vertex 6.75669 -8.16744 0
      vertex 7.33038 -8.8609 0
      vertex 7.72707 -7.2562 0
    endloop
  endfacet
  facet normal 0 0 1
    outer loop
      vertex 6.75669 -8.16744 0
      vertex 6.16201 -9.70977 0
      vertex 7.33038 -8.8609 0
    endloop
  endfacet
  facet normal -0 0 1
    outer loop
      vertex 5.67976 -8.94988 0
      vertex 6.16201 -9.70977 0
      vertex 6.75669 -8.16744 0
    endloop
  endfacet
  facet normal 0 0 1
    outer loop
      vertex 5.67976 -8.94988 0
      vertex 4.89646 -10.4055 0
      vertex 6.16201 -9.70977 0
    endloop
  endfacet
  facet normal -0 0 1
    outer loop
      vertex 4.51326 -9.59117 0
      vertex 4.89646 -10.4055 0
      vertex 5.67976 -8.94988 0
    endloop
  endfacet
  facet normal 0 0 1
    outer loop
      vertex 4.51326 -9.59117 0
      vertex 3.55369 -10.9371 0
      vertex 4.89646 -10.4055 0
    endloop
  endfacet
  facet normal -0 0 1
    outer loop
      vertex 3.27558 -10.0812 0
      vertex 3.55369 -10.9371 0
      vertex 4.51326 -9.59117 0
    endloop
  endfacet
  facet normal 0 0 1
    outer loop
      vertex 3.27558 -10.0812 0
      vertex 2.15488 -11.2963 0
      vertex 3.55369 -10.9371 0
    endloop
  endfacet
  facet normal -0 0 1
    outer loop
      vertex 1.98624 -10.4122 0
      vertex 2.15488 -11.2963 0
      vertex 3.27558 -10.0812 0
    endloop
  endfacet
  facet normal 0 0 1
    outer loop
      vertex 1.98624 -10.4122 0
      vertex 0.722091 -11.4773 0
      vertex 2.15488 -11.2963 0
    endloop
  endfacet
  facet normal -0 0 1
    outer loop
      vertex 0.665579 -10.5791 0
      vertex 0.722091 -11.4773 0
      vertex 1.98624 -10.4122 0
    endloop
  endfacet
  facet normal -0 0 1
    outer loop
      vertex -0.665579 -10.5791 0
      vertex 0.722091 -11.4773 0
      vertex 0.665579 -10.5791 0
    endloop
  endfacet
  facet normal 0 0 1
    outer loop
      vertex -0.665579 -10.5791 0
      vertex -0.722091 -11.4773 0
      vertex 0.722091 -11.4773 0
    endloop
  endfacet
  facet normal 0 0 1
    outer loop
      vertex -1.98624 -10.4122 0
      vertex -0.722091 -11.4773 0
      vertex -0.665579 -10.5791 0
    endloop
  endfacet
  facet normal 0 0 1
    outer loop
      vertex -1.98624 -10.4122 0
      vertex -2.15488 -11.2963 0
      vertex -0.722091 -11.4773 0
    endloop
  endfacet
  facet normal 0 0 1
    outer loop
      vertex -3.27558 -10.0812 0
      vertex -2.15488 -11.2963 0
      vertex -1.98624 -10.4122 0
    endloop
  endfacet
  facet normal 0 0 1
    outer loop
      vertex -3.27558 -10.0812 0
      vertex -3.55369 -10.9371 0
      vertex -2.15488 -11.2963 0
    endloop
  endfacet
  facet normal 0 0 1
    outer loop
      vertex -4.51326 -9.59117 0
      vertex -3.55369 -10.9371 0
      vertex -3.27558 -10.0812 0
    endloop
  endfacet
  facet normal 0 0 1
    outer loop
      vertex -4.51326 -9.59117 0
      vertex -4.89646 -10.4055 0
      vertex -3.55369 -10.9371 0
    endloop
  endfacet
  facet normal 0 0 1
    outer loop
      vertex -5.67976 -8.94988 0
      vertex -4.89646 -10.4055 0
      vertex -4.51326 -9.59117 0
    endloop
  endfacet
  facet normal 0 0 1
    outer loop
      vertex -5.67976 -8.94988 0
      vertex -6.16201 -9.70977 0
      vertex -4.89646 -10.4055 0
    endloop
  endfacet
  facet normal 0 0 1
    outer loop
      vertex -6.75669 -8.16744 0
      vertex -6.16201 -9.70977 0
      vertex -5.67976 -8.94988 0
    endloop
  endfacet
  facet normal 0 0 1
    outer loop
      vertex -6.75669 -8.16744 0
      vertex -7.33038 -8.8609 0
      vertex -6.16201 -9.70977 0
    endloop
  endfacet
  facet normal 0 0 1
    outer loop
      vertex -7.72707 -7.2562 0
      vertex -7.33038 -8.8609 0
      vertex -6.75669 -8.16744 0
    endloop
  endfacet
  facet normal 0 0 1
    outer loop
      vertex -7.72707 -7.2562 0
      vertex -8.38314 -7.87229 0
      vertex -7.33038 -8.8609 0
    endloop
  endfacet
  facet normal 0 0 1
    outer loop
      vertex -8.57558 -6.23052 0
      vertex -8.38314 -7.87229 0
      vertex -7.72707 -7.2562 0
    endloop
  endfacet
  facet normal 0 0 1
    outer loop
      vertex -9.30369 -6.75953 0
      vertex -8.57558 -6.23052 0
      vertex -9.28885 -5.10659 0
    endloop
  endfacet
  facet normal 0 0 1
    outer loop
      vertex -8.57558 -6.23052 0
      vertex -9.30369 -6.75953 0
      vertex -8.38314 -7.87229 0
    endloop
  endfacet
  facet normal 0 0 1
    outer loop
      vertex -10.0775 -5.54017 0
      vertex -9.28885 -5.10659 0
      vertex -9.85563 -3.90212 0
    endloop
  endfacet
  facet normal 0 0 1
    outer loop
      vertex -9.28885 -5.10659 0
      vertex -10.0775 -5.54017 0
      vertex -9.30369 -6.75953 0
    endloop
  endfacet
  facet normal 0 0 1
    outer loop
      vertex -10.6924 -4.23343 0
      vertex -9.85563 -3.90212 0
      vertex -10.267 -2.63611 0
    endloop
  endfacet
  facet normal 0 0 1
    outer loop
      vertex -11.1387 -2.85993 0
      vertex -10.267 -2.63611 0
      vertex -10.5164 -1.32853 0
    endloop
  endfacet
  facet normal 0 0 1
    outer loop
      vertex -9.85563 -3.90212 0
      vertex -10.6924 -4.23343 0
      vertex -10.0775 -5.54017 0
    endloop
  endfacet
  facet normal 0 0 1
    outer loop
      vertex -11.4093 -1.44133 0
      vertex -10.5164 -1.32853 0
      vertex -10.6 0 0
    endloop
  endfacet
  facet normal -0 0 1
    outer loop
      vertex -11.4093 1.44133 0
      vertex -10.5164 1.32853 0
      vertex -11.1387 2.85993 0
    endloop
  endfacet
  facet normal 0 0 1
    outer loop
      vertex -10.5164 1.32853 0
      vertex -11.4093 1.44133 0
      vertex -10.6 0 0
    endloop
  endfacet
  facet normal 0 0 1
    outer loop
      vertex -10.267 -2.63611 0
      vertex -11.1387 -2.85993 0
      vertex -10.6924 -4.23343 0
    endloop
  endfacet
  facet normal 0 0 1
    outer loop
      vertex -11.5 0 0
      vertex -10.6 0 0
      vertex -11.4093 1.44133 0
    endloop
  endfacet
  facet normal 0 0 1
    outer loop
      vertex -10.5164 -1.32853 0
      vertex -11.4093 -1.44133 0
      vertex -11.1387 -2.85993 0
    endloop
  endfacet
  facet normal 0 0 1
    outer loop
      vertex -10.6 0 0
      vertex -11.5 0 0
      vertex -11.4093 -1.44133 0
    endloop
  endfacet
  facet normal -0.125331 0.992115 0
    outer loop
      vertex -0.722091 11.4773 -4
      vertex -2.15488 11.2963 0
      vertex -0.722091 11.4773 0
    endloop
  endfacet
  facet normal -0.125331 0.992115 0
    outer loop
      vertex -2.15488 11.2963 0
      vertex -0.722091 11.4773 -4
      vertex -2.15488 11.2963 -4
    endloop
  endfacet
  facet normal 0 0 -1
    outer loop
      vertex 11.4093 -1.44133 -4
      vertex 11.4093 1.44133 -4
      vertex 11.5 0 -4
    endloop
  endfacet
  facet normal 0 0 -1
    outer loop
      vertex 11.1387 -2.85993 -4
      vertex 11.4093 1.44133 -4
      vertex 11.4093 -1.44133 -4
    endloop
  endfacet
  facet normal 0 0 -1
    outer loop
      vertex 11.1387 -2.85993 -4
      vertex 11.1387 2.85993 -4
      vertex 11.4093 1.44133 -4
    endloop
  endfacet
  facet normal 0 0 -1
    outer loop
      vertex 10.6924 -4.23343 -4
      vertex 11.1387 2.85993 -4
      vertex 11.1387 -2.85993 -4
    endloop
  endfacet
  facet normal 0 0 -1
    outer loop
      vertex 10.6924 -4.23343 -4
      vertex 10.6924 4.23343 -4
      vertex 11.1387 2.85993 -4
    endloop
  endfacet
  facet normal 0 0 -1
    outer loop
      vertex 10.0775 -5.54017 -4
      vertex 10.6924 4.23343 -4
      vertex 10.6924 -4.23343 -4
    endloop
  endfacet
  facet normal 0 0 -1
    outer loop
      vertex 10.0775 -5.54017 -4
      vertex 10.0775 5.54017 -4
      vertex 10.6924 4.23343 -4
    endloop
  endfacet
  facet normal 0 0 -1
    outer loop
      vertex 9.30369 -6.75953 -4
      vertex 10.0775 5.54017 -4
      vertex 10.0775 -5.54017 -4
    endloop
  endfacet
  facet normal 0 0 -1
    outer loop
      vertex 9.30369 -6.75953 -4
      vertex 9.30369 6.75953 -4
      vertex 10.0775 5.54017 -4
    endloop
  endfacet
  facet normal 0 0 -1
    outer loop
      vertex 8.38314 -7.87229 -4
      vertex 9.30369 6.75953 -4
      vertex 9.30369 -6.75953 -4
    endloop
  endfacet
  facet normal 0 0 -1
    outer loop
      vertex 8.38314 -7.87229 -4
      vertex 8.38314 7.87229 -4
      vertex 9.30369 6.75953 -4
    endloop
  endfacet
  facet normal 0 0 -1
    outer loop
      vertex 7.33038 -8.8609 -4
      vertex 8.38314 7.87229 -4
      vertex 8.38314 -7.87229 -4
    endloop
  endfacet
  facet normal 0 0 -1
    outer loop
      vertex 7.33038 -8.8609 -4
      vertex 7.33038 8.8609 -4
      vertex 8.38314 7.87229 -4
    endloop
  endfacet
  facet normal 0 0 -1
    outer loop
      vertex 6.16201 -9.70977 -4
      vertex 7.33038 8.8609 -4
      vertex 7.33038 -8.8609 -4
    endloop
  endfacet
  facet normal 0 0 -1
    outer loop
      vertex 6.16201 -9.70977 -4
      vertex 6.16201 9.70977 -4
      vertex 7.33038 8.8609 -4
    endloop
  endfacet
  facet normal 0 0 -1
    outer loop
      vertex 4.89646 -10.4055 -4
      vertex 6.16201 9.70977 -4
      vertex 6.16201 -9.70977 -4
    endloop
  endfacet
  facet normal 0 0 -1
    outer loop
      vertex 4.89646 -10.4055 -4
      vertex 4.89646 10.4055 -4
      vertex 6.16201 9.70977 -4
    endloop
  endfacet
  facet normal 0 0 -1
    outer loop
      vertex 3.55369 -10.9371 -4
      vertex 4.89646 10.4055 -4
      vertex 4.89646 -10.4055 -4
    endloop
  endfacet
  facet normal 0 0 -1
    outer loop
      vertex 3.55369 -10.9371 -4
      vertex 3.55369 10.9371 -4
      vertex 4.89646 10.4055 -4
    endloop
  endfacet
  facet normal 0 0 -1
    outer loop
      vertex 2.15488 -11.2963 -4
      vertex 3.55369 10.9371 -4
      vertex 3.55369 -10.9371 -4
    endloop
  endfacet
  facet normal 0 0 -1
    outer loop
      vertex 2.15488 -11.2963 -4
      vertex 2.15488 11.2963 -4
      vertex 3.55369 10.9371 -4
    endloop
  endfacet
  facet normal 0 0 -1
    outer loop
      vertex 0.722091 -11.4773 -4
      vertex 2.15488 11.2963 -4
      vertex 2.15488 -11.2963 -4
    endloop
  endfacet
  facet normal 0 0 -1
    outer loop
      vertex 0.722091 -11.4773 -4
      vertex 0.722091 11.4773 -4
      vertex 2.15488 11.2963 -4
    endloop
  endfacet
  facet normal 0 0 -1
    outer loop
      vertex -0.722091 -11.4773 -4
      vertex 0.722091 11.4773 -4
      vertex 0.722091 -11.4773 -4
    endloop
  endfacet
  facet normal 0 0 -1
    outer loop
      vertex -0.722091 -11.4773 -4
      vertex -0.722091 11.4773 -4
      vertex 0.722091 11.4773 -4
    endloop
  endfacet
  facet normal 0 0 -1
    outer loop
      vertex -2.15488 -11.2963 -4
      vertex -0.722091 11.4773 -4
      vertex -0.722091 -11.4773 -4
    endloop
  endfacet
  facet normal 0 0 -1
    outer loop
      vertex -2.15488 -11.2963 -4
      vertex -2.15488 11.2963 -4
      vertex -0.722091 11.4773 -4
    endloop
  endfacet
  facet normal 0 0 -1
    outer loop
      vertex -3.55369 -10.9371 -4
      vertex -2.15488 11.2963 -4
      vertex -2.15488 -11.2963 -4
    endloop
  endfacet
  facet normal 0 0 -1
    outer loop
      vertex -3.55369 -10.9371 -4
      vertex -3.55369 10.9371 -4
      vertex -2.15488 11.2963 -4
    endloop
  endfacet
  facet normal 0 0 -1
    outer loop
      vertex -4.89646 -10.4055 -4
      vertex -3.55369 10.9371 -4
      vertex -3.55369 -10.9371 -4
    endloop
  endfacet
  facet normal 0 0 -1
    outer loop
      vertex -4.89646 -10.4055 -4
      vertex -4.89646 10.4055 -4
      vertex -3.55369 10.9371 -4
    endloop
  endfacet
  facet normal 0 0 -1
    outer loop
      vertex -6.16201 -9.70977 -4
      vertex -4.89646 10.4055 -4
      vertex -4.89646 -10.4055 -4
    endloop
  endfacet
  facet normal 0 0 -1
    outer loop
      vertex -6.16201 -9.70977 -4
      vertex -6.16201 9.70977 -4
      vertex -4.89646 10.4055 -4
    endloop
  endfacet
  facet normal 0 0 -1
    outer loop
      vertex -7.33038 -8.8609 -4
      vertex -6.16201 9.70977 -4
      vertex -6.16201 -9.70977 -4
    endloop
  endfacet
  facet normal 0 0 -1
    outer loop
      vertex -7.33038 -8.8609 -4
      vertex -7.33038 8.8609 -4
      vertex -6.16201 9.70977 -4
    endloop
  endfacet
  facet normal 0 0 -1
    outer loop
      vertex -8.38314 -7.87229 -4
      vertex -7.33038 8.8609 -4
      vertex -7.33038 -8.8609 -4
    endloop
  endfacet
  facet normal 0 0 -1
    outer loop
      vertex -8.38314 -7.87229 -4
      vertex -8.38314 7.87229 -4
      vertex -7.33038 8.8609 -4
    endloop
  endfacet
  facet normal 0 0 -1
    outer loop
      vertex -9.30369 -6.75953 -4
      vertex -8.38314 7.87229 -4
      vertex -8.38314 -7.87229 -4
    endloop
  endfacet
  facet normal 0 0 -1
    outer loop
      vertex -9.30369 -6.75953 -4
      vertex -9.30369 6.75953 -4
      vertex -8.38314 7.87229 -4
    endloop
  endfacet
  facet normal 0 0 -1
    outer loop
      vertex -10.0775 -5.54017 -4
      vertex -9.30369 6.75953 -4
      vertex -9.30369 -6.75953 -4
    endloop
  endfacet
  facet normal 0 0 -1
    outer loop
      vertex -10.0775 -5.54017 -4
      vertex -10.0775 5.54017 -4
      vertex -9.30369 6.75953 -4
    endloop
  endfacet
  facet normal 0 0 -1
    outer loop
      vertex -10.6924 -4.23343 -4
      vertex -10.0775 5.54017 -4
      vertex -10.0775 -5.54017 -4
    endloop
  endfacet
  facet normal 0 0 -1
    outer loop
      vertex -10.6924 -4.23343 -4
      vertex -10.6924 4.23343 -4
      vertex -10.0775 5.54017 -4
    endloop
  endfacet
  facet normal 0 0 -1
    outer loop
      vertex -11.1387 -2.85993 -4
      vertex -10.6924 4.23343 -4
      vertex -10.6924 -4.23343 -4
    endloop
  endfacet
  facet normal 0 0 -1
    outer loop
      vertex -11.1387 -2.85993 -4
      vertex -11.1387 2.85993 -4
      vertex -10.6924 4.23343 -4
    endloop
  endfacet
  facet normal 0 0 -1
    outer loop
      vertex -11.4093 -1.44133 -4
      vertex -11.1387 2.85993 -4
      vertex -11.1387 -2.85993 -4
    endloop
  endfacet
  facet normal 0 0 -1
    outer loop
      vertex -11.4093 -1.44133 -4
      vertex -11.4093 1.44133 -4
      vertex -11.1387 2.85993 -4
    endloop
  endfacet
  facet normal 0 -0 -1
    outer loop
      vertex -11.4093 1.44133 -4
      vertex -11.4093 -1.44133 -4
      vertex -11.5 0 -4
    endloop
  endfacet
  facet normal 0.125331 -0.992115 0
    outer loop
      vertex 0.722091 -11.4773 -4
      vertex 2.15488 -11.2963 0
      vertex 0.722091 -11.4773 0
    endloop
  endfacet
  facet normal 0.125331 -0.992115 0
    outer loop
      vertex 2.15488 -11.2963 0
      vertex 0.722091 -11.4773 -4
      vertex 2.15488 -11.2963 -4
    endloop
  endfacet
  facet normal 0.951052 0.309031 0
    outer loop
      vertex 11.1387 2.85993 0
      vertex 10.6924 4.23343 -4
      vertex 10.6924 4.23343 0
    endloop
  endfacet
  facet normal 0.951052 0.309031 0
    outer loop
      vertex 10.6924 4.23343 -4
      vertex 11.1387 2.85993 0
      vertex 11.1387 2.85993 -4
    endloop
  endfacet
  facet normal 0.982289 0.187373 0
    outer loop
      vertex 11.4093 1.44133 0
      vertex 11.1387 2.85993 -4
      vertex 11.1387 2.85993 0
    endloop
  endfacet
  facet normal 0.982289 0.187373 0
    outer loop
      vertex 11.1387 2.85993 -4
      vertex 11.4093 1.44133 0
      vertex 11.4093 1.44133 -4
    endloop
  endfacet
  facet normal 0.770515 0.637422 0
    outer loop
      vertex 9.30369 6.75953 0
      vertex 8.38314 7.87229 -4
      vertex 8.38314 7.87229 0
    endloop
  endfacet
  facet normal 0.770515 0.637422 0
    outer loop
      vertex 8.38314 7.87229 -4
      vertex 9.30369 6.75953 0
      vertex 9.30369 6.75953 -4
    endloop
  endfacet
  facet normal 0.844334 0.535817 0
    outer loop
      vertex 10.0775 5.54017 0
      vertex 9.30369 6.75953 -4
      vertex 9.30369 6.75953 0
    endloop
  endfacet
  facet normal 0.844334 0.535817 0
    outer loop
      vertex 9.30369 6.75953 -4
      vertex 10.0775 5.54017 0
      vertex 10.0775 5.54017 -4
    endloop
  endfacet
  facet normal 0.24872 0.968575 -0
    outer loop
      vertex 3.55369 10.9371 -4
      vertex 2.15488 11.2963 0
      vertex 3.55369 10.9371 0
    endloop
  endfacet
  facet normal 0.24872 0.968575 0
    outer loop
      vertex 2.15488 11.2963 0
      vertex 3.55369 10.9371 -4
      vertex 2.15488 11.2963 -4
    endloop
  endfacet
  facet normal 0.125331 0.992115 -0
    outer loop
      vertex 2.15488 11.2963 -4
      vertex 0.722091 11.4773 0
      vertex 2.15488 11.2963 0
    endloop
  endfacet
  facet normal 0.125331 0.992115 0
    outer loop
      vertex 0.722091 11.4773 0
      vertex 2.15488 11.2963 -4
      vertex 0.722091 11.4773 -4
    endloop
  endfacet
  facet normal 0.587785 0.809017 -0
    outer loop
      vertex 7.33038 8.8609 -4
      vertex 6.16201 9.70977 0
      vertex 7.33038 8.8609 0
    endloop
  endfacet
  facet normal 0.587785 0.809017 0
    outer loop
      vertex 6.16201 9.70977 0
      vertex 7.33038 8.8609 -4
      vertex 6.16201 9.70977 -4
    endloop
  endfacet
  facet normal -0.844334 0.535817 0
    outer loop
      vertex -10.0775 5.54017 -4
      vertex -9.30369 6.75953 0
      vertex -9.30369 6.75953 -4
    endloop
  endfacet
  facet normal -0.844334 0.535817 0
    outer loop
      vertex -9.30369 6.75953 0
      vertex -10.0775 5.54017 -4
      vertex -10.0775 5.54017 0
    endloop
  endfacet
  facet normal -0.951052 0.309031 0
    outer loop
      vertex -11.1387 2.85993 -4
      vertex -10.6924 4.23343 0
      vertex -10.6924 4.23343 -4
    endloop
  endfacet
  facet normal -0.951052 0.309031 0
    outer loop
      vertex -10.6924 4.23343 0
      vertex -11.1387 2.85993 -4
      vertex -11.1387 2.85993 0
    endloop
  endfacet
  facet normal -0.982289 0.187373 0
    outer loop
      vertex -11.4093 1.44133 -4
      vertex -11.1387 2.85993 0
      vertex -11.1387 2.85993 -4
    endloop
  endfacet
  facet normal -0.982289 0.187373 0
    outer loop
      vertex -11.1387 2.85993 0
      vertex -11.4093 1.44133 -4
      vertex -11.4093 1.44133 0
    endloop
  endfacet
  facet normal -0.481747 0.87631 0
    outer loop
      vertex -4.89646 10.4055 -4
      vertex -6.16201 9.70977 0
      vertex -4.89646 10.4055 0
    endloop
  endfacet
  facet normal -0.481747 0.87631 0
    outer loop
      vertex -6.16201 9.70977 0
      vertex -4.89646 10.4055 -4
      vertex -6.16201 9.70977 -4
    endloop
  endfacet
  facet normal -0.587785 0.809017 0
    outer loop
      vertex -6.16201 9.70977 -4
      vertex -7.33038 8.8609 0
      vertex -6.16201 9.70977 0
    endloop
  endfacet
  facet normal -0.587785 0.809017 0
    outer loop
      vertex -7.33038 8.8609 0
      vertex -6.16201 9.70977 -4
      vertex -7.33038 8.8609 -4
    endloop
  endfacet
  facet normal -0.24872 0.968575 0
    outer loop
      vertex -2.15488 11.2963 -4
      vertex -3.55369 10.9371 0
      vertex -2.15488 11.2963 0
    endloop
  endfacet
  facet normal -0.24872 0.968575 0
    outer loop
      vertex -3.55369 10.9371 0
      vertex -2.15488 11.2963 -4
      vertex -3.55369 10.9371 -4
    endloop
  endfacet
  facet normal 0.998026 -0.0628038 0
    outer loop
      vertex 11.4093 -1.44133 0
      vertex 11.5 0 -4
      vertex 11.5 0 0
    endloop
  endfacet
  facet normal 0.998026 -0.0628038 0
    outer loop
      vertex 11.5 0 -4
      vertex 11.4093 -1.44133 0
      vertex 11.4093 -1.44133 -4
    endloop
  endfacet
  facet normal -0.904828 -0.425776 0
    outer loop
      vertex -10.0775 -5.54017 -4
      vertex -10.6924 -4.23343 0
      vertex -10.6924 -4.23343 -4
    endloop
  endfacet
  facet normal -0.904828 -0.425776 0
    outer loop
      vertex -10.6924 -4.23343 0
      vertex -10.0775 -5.54017 -4
      vertex -10.0775 -5.54017 0
    endloop
  endfacet
  facet normal 0.481747 -0.87631 0
    outer loop
      vertex 4.89646 -10.4055 -4
      vertex 6.16201 -9.70977 0
      vertex 4.89646 -10.4055 0
    endloop
  endfacet
  facet normal 0.481747 -0.87631 0
    outer loop
      vertex 6.16201 -9.70977 0
      vertex 4.89646 -10.4055 -4
      vertex 6.16201 -9.70977 -4
    endloop
  endfacet
  facet normal 0.951052 -0.309031 0
    outer loop
      vertex 10.6924 -4.23343 0
      vertex 11.1387 -2.85993 -4
      vertex 11.1387 -2.85993 0
    endloop
  endfacet
  facet normal 0.951052 -0.309031 0
    outer loop
      vertex 11.1387 -2.85993 -4
      vertex 10.6924 -4.23343 0
      vertex 10.6924 -4.23343 -4
    endloop
  endfacet
  facet normal -0.24872 -0.968575 0
    outer loop
      vertex -3.55369 -10.9371 -4
      vertex -2.15488 -11.2963 0
      vertex -3.55369 -10.9371 0
    endloop
  endfacet
  facet normal -0.24872 -0.968575 -0
    outer loop
      vertex -2.15488 -11.2963 0
      vertex -3.55369 -10.9371 -4
      vertex -2.15488 -11.2963 -4
    endloop
  endfacet
  facet normal -0.982289 -0.187373 0
    outer loop
      vertex -11.1387 -2.85993 -4
      vertex -11.4093 -1.44133 0
      vertex -11.4093 -1.44133 -4
    endloop
  endfacet
  facet normal -0.982289 -0.187373 0
    outer loop
      vertex -11.4093 -1.44133 0
      vertex -11.1387 -2.85993 -4
      vertex -11.1387 -2.85993 0
    endloop
  endfacet
  facet normal -0.998026 -0.0628038 0
    outer loop
      vertex -11.4093 -1.44133 -4
      vertex -11.5 0 0
      vertex -11.5 0 -4
    endloop
  endfacet
  facet normal -0.998026 -0.0628038 0
    outer loop
      vertex -11.5 0 0
      vertex -11.4093 -1.44133 -4
      vertex -11.4093 -1.44133 0
    endloop
  endfacet
  facet normal -0.951052 -0.309031 0
    outer loop
      vertex -10.6924 -4.23343 -4
      vertex -11.1387 -2.85993 0
      vertex -11.1387 -2.85993 -4
    endloop
  endfacet
  facet normal -0.951052 -0.309031 0
    outer loop
      vertex -11.1387 -2.85993 0
      vertex -10.6924 -4.23343 -4
      vertex -10.6924 -4.23343 0
    endloop
  endfacet
  facet normal 0.684548 -0.728968 0
    outer loop
      vertex 7.33038 -8.8609 -4
      vertex 8.38314 -7.87229 0
      vertex 7.33038 -8.8609 0
    endloop
  endfacet
  facet normal 0.684548 -0.728968 0
    outer loop
      vertex 8.38314 -7.87229 0
      vertex 7.33038 -8.8609 -4
      vertex 8.38314 -7.87229 -4
    endloop
  endfacet
  facet normal 0.3681 -0.929786 0
    outer loop
      vertex 3.55369 -10.9371 -4
      vertex 4.89646 -10.4055 0
      vertex 3.55369 -10.9371 0
    endloop
  endfacet
  facet normal 0.3681 -0.929786 0
    outer loop
      vertex 4.89646 -10.4055 0
      vertex 3.55369 -10.9371 -4
      vertex 4.89646 -10.4055 -4
    endloop
  endfacet
  facet normal 0.24872 -0.968575 0
    outer loop
      vertex 2.15488 -11.2963 -4
      vertex 3.55369 -10.9371 0
      vertex 2.15488 -11.2963 0
    endloop
  endfacet
  facet normal 0.24872 -0.968575 0
    outer loop
      vertex 3.55369 -10.9371 0
      vertex 2.15488 -11.2963 -4
      vertex 3.55369 -10.9371 -4
    endloop
  endfacet
  facet normal 0.844334 -0.535817 0
    outer loop
      vertex 9.30369 -6.75953 0
      vertex 10.0775 -5.54017 -4
      vertex 10.0775 -5.54017 0
    endloop
  endfacet
  facet normal 0.844334 -0.535817 0
    outer loop
      vertex 10.0775 -5.54017 -4
      vertex 9.30369 -6.75953 0
      vertex 9.30369 -6.75953 -4
    endloop
  endfacet
  facet normal 0.982289 -0.187373 0
    outer loop
      vertex 11.1387 -2.85993 0
      vertex 11.4093 -1.44133 -4
      vertex 11.4093 -1.44133 0
    endloop
  endfacet
  facet normal 0.982289 -0.187373 0
    outer loop
      vertex 11.4093 -1.44133 -4
      vertex 11.1387 -2.85993 0
      vertex 11.1387 -2.85993 -4
    endloop
  endfacet
  facet normal -0.125331 -0.992115 0
    outer loop
      vertex -2.15488 -11.2963 -4
      vertex -0.722091 -11.4773 0
      vertex -2.15488 -11.2963 0
    endloop
  endfacet
  facet normal -0.125331 -0.992115 -0
    outer loop
      vertex -0.722091 -11.4773 0
      vertex -2.15488 -11.2963 -4
      vertex -0.722091 -11.4773 -4
    endloop
  endfacet
  facet normal -0.3681 -0.929786 0
    outer loop
      vertex -4.89646 -10.4055 -4
      vertex -3.55369 -10.9371 0
      vertex -4.89646 -10.4055 0
    endloop
  endfacet
  facet normal -0.3681 -0.929786 -0
    outer loop
      vertex -3.55369 -10.9371 0
      vertex -4.89646 -10.4055 -4
      vertex -3.55369 -10.9371 -4
    endloop
  endfacet
  facet normal -0.770515 -0.637422 0
    outer loop
      vertex -8.38314 -7.87229 -4
      vertex -9.30369 -6.75953 0
      vertex -9.30369 -6.75953 -4
    endloop
  endfacet
  facet normal -0.770515 -0.637422 0
    outer loop
      vertex -9.30369 -6.75953 0
      vertex -8.38314 -7.87229 -4
      vertex -8.38314 -7.87229 0
    endloop
  endfacet
  facet normal -0.684548 -0.728968 0
    outer loop
      vertex -8.38314 -7.87229 -4
      vertex -7.33038 -8.8609 0
      vertex -8.38314 -7.87229 0
    endloop
  endfacet
  facet normal -0.684548 -0.728968 -0
    outer loop
      vertex -7.33038 -8.8609 0
      vertex -8.38314 -7.87229 -4
      vertex -7.33038 -8.8609 -4
    endloop
  endfacet
  facet normal 0.587785 -0.809017 0
    outer loop
      vertex 6.16201 -9.70977 -4
      vertex 7.33038 -8.8609 0
      vertex 6.16201 -9.70977 0
    endloop
  endfacet
  facet normal 0.587785 -0.809017 0
    outer loop
      vertex 7.33038 -8.8609 0
      vertex 6.16201 -9.70977 -4
      vertex 7.33038 -8.8609 -4
    endloop
  endfacet
  facet normal 0.904828 -0.425776 0
    outer loop
      vertex 10.0775 -5.54017 0
      vertex 10.6924 -4.23343 -4
      vertex 10.6924 -4.23343 0
    endloop
  endfacet
  facet normal 0.904828 -0.425776 0
    outer loop
      vertex 10.6924 -4.23343 -4
      vertex 10.0775 -5.54017 0
      vertex 10.0775 -5.54017 -4
    endloop
  endfacet
  facet normal -0.844334 -0.535817 0
    outer loop
      vertex -9.30369 -6.75953 -4
      vertex -10.0775 -5.54017 0
      vertex -10.0775 -5.54017 -4
    endloop
  endfacet
  facet normal -0.844334 -0.535817 0
    outer loop
      vertex -10.0775 -5.54017 0
      vertex -9.30369 -6.75953 -4
      vertex -9.30369 -6.75953 0
    endloop
  endfacet
  facet normal -0.481747 -0.87631 0
    outer loop
      vertex -6.16201 -9.70977 -4
      vertex -4.89646 -10.4055 0
      vertex -6.16201 -9.70977 0
    endloop
  endfacet
  facet normal -0.481747 -0.87631 -0
    outer loop
      vertex -4.89646 -10.4055 0
      vertex -6.16201 -9.70977 -4
      vertex -4.89646 -10.4055 -4
    endloop
  endfacet
  facet normal -0.587785 -0.809017 0
    outer loop
      vertex -7.33038 -8.8609 -4
      vertex -6.16201 -9.70977 0
      vertex -7.33038 -8.8609 0
    endloop
  endfacet
  facet normal -0.587785 -0.809017 -0
    outer loop
      vertex -6.16201 -9.70977 0
      vertex -7.33038 -8.8609 -4
      vertex -6.16201 -9.70977 -4
    endloop
  endfacet
  facet normal -0.998026 -0.0628025 0
    outer loop
      vertex 10.6 0 -3
      vertex 10.5164 1.32853 0
      vertex 10.5164 1.32853 -3
    endloop
  endfacet
  facet normal -0.998026 -0.0628025 0
    outer loop
      vertex 10.5164 1.32853 0
      vertex 10.6 0 -3
      vertex 10.6 0 0
    endloop
  endfacet
  facet normal 0.998026 -0.0628025 0
    outer loop
      vertex -10.6 0 0
      vertex -10.5164 1.32853 -3
      vertex -10.5164 1.32853 0
    endloop
  endfacet
  facet normal 0.998026 -0.0628025 0
    outer loop
      vertex -10.5164 1.32853 -3
      vertex -10.6 0 0
      vertex -10.6 0 -3
    endloop
  endfacet
  facet normal 0 -1 0
    outer loop
      vertex -0.665579 10.5791 -3
      vertex 0.665579 10.5791 0
      vertex -0.665579 10.5791 0
    endloop
  endfacet
  facet normal 0 -1 -0
    outer loop
      vertex 0.665579 10.5791 0
      vertex -0.665579 10.5791 -3
      vertex 0.665579 10.5791 -3
    endloop
  endfacet
  facet normal 0 1 -0
    outer loop
      vertex 0.665579 -10.5791 -3
      vertex -0.665579 -10.5791 0
      vertex 0.665579 -10.5791 0
    endloop
  endfacet
  facet normal 0 1 0
    outer loop
      vertex -0.665579 -10.5791 0
      vertex 0.665579 -10.5791 -3
      vertex -0.665579 -10.5791 -3
    endloop
  endfacet
  facet normal -0.684544 0.728971 0
    outer loop
      vertex 7.72707 -7.2562 -3
      vertex 6.75669 -8.16744 0
      vertex 7.72707 -7.2562 0
    endloop
  endfacet
  facet normal -0.684544 0.728971 0
    outer loop
      vertex 6.75669 -8.16744 0
      vertex 7.72707 -7.2562 -3
      vertex 6.75669 -8.16744 -3
    endloop
  endfacet
  facet normal -0.684544 -0.728971 0
    outer loop
      vertex 6.75669 8.16744 -3
      vertex 7.72707 7.2562 0
      vertex 6.75669 8.16744 0
    endloop
  endfacet
  facet normal -0.684544 -0.728971 -0
    outer loop
      vertex 7.72707 7.2562 0
      vertex 6.75669 8.16744 -3
      vertex 7.72707 7.2562 -3
    endloop
  endfacet
  facet normal 0.684544 -0.728971 0
    outer loop
      vertex -7.72707 7.2562 -3
      vertex -6.75669 8.16744 0
      vertex -7.72707 7.2562 0
    endloop
  endfacet
  facet normal 0.684544 -0.728971 0
    outer loop
      vertex -6.75669 8.16744 0
      vertex -7.72707 7.2562 -3
      vertex -6.75669 8.16744 -3
    endloop
  endfacet
  facet normal 0.368123 -0.929777 0
    outer loop
      vertex -4.51326 9.59117 -3
      vertex -3.27558 10.0812 0
      vertex -4.51326 9.59117 0
    endloop
  endfacet
  facet normal 0.368123 -0.929777 0
    outer loop
      vertex -3.27558 10.0812 0
      vertex -4.51326 9.59117 -3
      vertex -3.27558 10.0812 -3
    endloop
  endfacet
  facet normal -0.904827 -0.425779 0
    outer loop
      vertex 9.85563 3.90212 -3
      vertex 9.28885 5.10659 0
      vertex 9.28885 5.10659 -3
    endloop
  endfacet
  facet normal -0.904827 -0.425779 0
    outer loop
      vertex 9.28885 5.10659 0
      vertex 9.85563 3.90212 -3
      vertex 9.85563 3.90212 0
    endloop
  endfacet
  facet normal -0.982292 -0.187357 0
    outer loop
      vertex 10.5164 1.32853 -3
      vertex 10.267 2.63611 0
      vertex 10.267 2.63611 -3
    endloop
  endfacet
  facet normal -0.982292 -0.187357 0
    outer loop
      vertex 10.267 2.63611 0
      vertex 10.5164 1.32853 -3
      vertex 10.5164 1.32853 0
    endloop
  endfacet
  facet normal -0.368123 -0.929777 0
    outer loop
      vertex 3.27558 10.0812 -3
      vertex 4.51326 9.59117 0
      vertex 3.27558 10.0812 0
    endloop
  endfacet
  facet normal -0.368123 -0.929777 -0
    outer loop
      vertex 4.51326 9.59117 0
      vertex 3.27558 10.0812 -3
      vertex 4.51326 9.59117 -3
    endloop
  endfacet
  facet normal -0.248657 -0.968592 0
    outer loop
      vertex 1.98624 10.4122 -3
      vertex 3.27558 10.0812 0
      vertex 1.98624 10.4122 0
    endloop
  endfacet
  facet normal -0.248657 -0.968592 -0
    outer loop
      vertex 3.27558 10.0812 0
      vertex 1.98624 10.4122 -3
      vertex 3.27558 10.0812 -3
    endloop
  endfacet
  facet normal -0.587787 -0.809015 0
    outer loop
      vertex 5.67976 8.94988 -3
      vertex 6.75669 8.16744 0
      vertex 5.67976 8.94988 0
    endloop
  endfacet
  facet normal -0.587787 -0.809015 -0
    outer loop
      vertex 6.75669 8.16744 0
      vertex 5.67976 8.94988 -3
      vertex 6.75669 8.16744 -3
    endloop
  endfacet
  facet normal 0.904827 -0.425779 0
    outer loop
      vertex -9.85563 3.90212 0
      vertex -9.28885 5.10659 -3
      vertex -9.28885 5.10659 0
    endloop
  endfacet
  facet normal 0.904827 -0.425779 0
    outer loop
      vertex -9.28885 5.10659 -3
      vertex -9.85563 3.90212 0
      vertex -9.85563 3.90212 -3
    endloop
  endfacet
  facet normal 0.481754 -0.876306 0
    outer loop
      vertex -5.67976 8.94988 -3
      vertex -4.51326 9.59117 0
      vertex -5.67976 8.94988 0
    endloop
  endfacet
  facet normal 0.481754 -0.876306 0
    outer loop
      vertex -4.51326 9.59117 0
      vertex -5.67976 8.94988 -3
      vertex -4.51326 9.59117 -3
    endloop
  endfacet
  facet normal 0.125379 -0.992109 0
    outer loop
      vertex -1.98624 10.4122 -3
      vertex -0.665579 10.5791 0
      vertex -1.98624 10.4122 0
    endloop
  endfacet
  facet normal 0.125379 -0.992109 0
    outer loop
      vertex -0.665579 10.5791 0
      vertex -1.98624 10.4122 -3
      vertex -0.665579 10.5791 -3
    endloop
  endfacet
  facet normal -0.982292 0.187357 0
    outer loop
      vertex 10.267 -2.63611 -3
      vertex 10.5164 -1.32853 0
      vertex 10.5164 -1.32853 -3
    endloop
  endfacet
  facet normal -0.982292 0.187357 0
    outer loop
      vertex 10.5164 -1.32853 0
      vertex 10.267 -2.63611 -3
      vertex 10.267 -2.63611 0
    endloop
  endfacet
  facet normal 0 0 1
    outer loop
      vertex 10.5164 1.32853 -3
      vertex 10.5164 -1.32853 -3
      vertex 10.6 0 -3
    endloop
  endfacet
  facet normal 0 0 1
    outer loop
      vertex 10.267 2.63611 -3
      vertex 10.5164 -1.32853 -3
      vertex 10.5164 1.32853 -3
    endloop
  endfacet
  facet normal 0 0 1
    outer loop
      vertex 10.267 2.63611 -3
      vertex 10.267 -2.63611 -3
      vertex 10.5164 -1.32853 -3
    endloop
  endfacet
  facet normal 0 0 1
    outer loop
      vertex 9.85563 3.90212 -3
      vertex 10.267 -2.63611 -3
      vertex 10.267 2.63611 -3
    endloop
  endfacet
  facet normal 0 0 1
    outer loop
      vertex 9.85563 3.90212 -3
      vertex 9.85563 -3.90212 -3
      vertex 10.267 -2.63611 -3
    endloop
  endfacet
  facet normal 0 0 1
    outer loop
      vertex 9.28885 5.10659 -3
      vertex 9.85563 -3.90212 -3
      vertex 9.85563 3.90212 -3
    endloop
  endfacet
  facet normal 0 0 1
    outer loop
      vertex 9.28885 5.10659 -3
      vertex 9.28885 -5.10659 -3
      vertex 9.85563 -3.90212 -3
    endloop
  endfacet
  facet normal 0 0 1
    outer loop
      vertex 8.57558 6.23052 -3
      vertex 9.28885 -5.10659 -3
      vertex 9.28885 5.10659 -3
    endloop
  endfacet
  facet normal 0 0 1
    outer loop
      vertex 8.57558 6.23052 -3
      vertex 8.57558 -6.23052 -3
      vertex 9.28885 -5.10659 -3
    endloop
  endfacet
  facet normal 0 0 1
    outer loop
      vertex 7.72707 7.2562 -3
      vertex 8.57558 -6.23052 -3
      vertex 8.57558 6.23052 -3
    endloop
  endfacet
  facet normal 0 0 1
    outer loop
      vertex 7.72707 7.2562 -3
      vertex 7.72707 -7.2562 -3
      vertex 8.57558 -6.23052 -3
    endloop
  endfacet
  facet normal 0 0 1
    outer loop
      vertex 6.75669 8.16744 -3
      vertex 7.72707 -7.2562 -3
      vertex 7.72707 7.2562 -3
    endloop
  endfacet
  facet normal 0 0 1
    outer loop
      vertex 6.75669 8.16744 -3
      vertex 6.75669 -8.16744 -3
      vertex 7.72707 -7.2562 -3
    endloop
  endfacet
  facet normal 0 0 1
    outer loop
      vertex 5.67976 8.94988 -3
      vertex 6.75669 -8.16744 -3
      vertex 6.75669 8.16744 -3
    endloop
  endfacet
  facet normal 0 0 1
    outer loop
      vertex 5.67976 8.94988 -3
      vertex 5.67976 -8.94988 -3
      vertex 6.75669 -8.16744 -3
    endloop
  endfacet
  facet normal 0 0 1
    outer loop
      vertex 4.51326 9.59117 -3
      vertex 5.67976 -8.94988 -3
      vertex 5.67976 8.94988 -3
    endloop
  endfacet
  facet normal 0 0 1
    outer loop
      vertex 4.51326 9.59117 -3
      vertex 4.51326 -9.59117 -3
      vertex 5.67976 -8.94988 -3
    endloop
  endfacet
  facet normal 0 0 1
    outer loop
      vertex 3.27558 10.0812 -3
      vertex 4.51326 -9.59117 -3
      vertex 4.51326 9.59117 -3
    endloop
  endfacet
  facet normal 0 0 1
    outer loop
      vertex 3.27558 10.0812 -3
      vertex 3.27558 -10.0812 -3
      vertex 4.51326 -9.59117 -3
    endloop
  endfacet
  facet normal 0 0 1
    outer loop
      vertex 1.98624 10.4122 -3
      vertex 3.27558 -10.0812 -3
      vertex 3.27558 10.0812 -3
    endloop
  endfacet
  facet normal 0 0 1
    outer loop
      vertex 1.98624 10.4122 -3
      vertex 1.98624 -10.4122 -3
      vertex 3.27558 -10.0812 -3
    endloop
  endfacet
  facet normal 0 0 1
    outer loop
      vertex 0.665579 10.5791 -3
      vertex 1.98624 -10.4122 -3
      vertex 1.98624 10.4122 -3
    endloop
  endfacet
  facet normal 0 0 1
    outer loop
      vertex 0.665579 10.5791 -3
      vertex 0.665579 -10.5791 -3
      vertex 1.98624 -10.4122 -3
    endloop
  endfacet
  facet normal -0 0 1
    outer loop
      vertex -0.665579 10.5791 -3
      vertex 0.665579 -10.5791 -3
      vertex 0.665579 10.5791 -3
    endloop
  endfacet
  facet normal 0 0 1
    outer loop
      vertex -0.665579 10.5791 -3
      vertex -0.665579 -10.5791 -3
      vertex 0.665579 -10.5791 -3
    endloop
  endfacet
  facet normal -0 0 1
    outer loop
      vertex -1.98624 10.4122 -3
      vertex -0.665579 -10.5791 -3
      vertex -0.665579 10.5791 -3
    endloop
  endfacet
  facet normal 0 0 1
    outer loop
      vertex -1.98624 10.4122 -3
      vertex -1.98624 -10.4122 -3
      vertex -0.665579 -10.5791 -3
    endloop
  endfacet
  facet normal -0 0 1
    outer loop
      vertex -3.27558 10.0812 -3
      vertex -1.98624 -10.4122 -3
      vertex -1.98624 10.4122 -3
    endloop
  endfacet
  facet normal 0 0 1
    outer loop
      vertex -3.27558 10.0812 -3
      vertex -3.27558 -10.0812 -3
      vertex -1.98624 -10.4122 -3
    endloop
  endfacet
  facet normal -0 0 1
    outer loop
      vertex -4.51326 9.59117 -3
      vertex -3.27558 -10.0812 -3
      vertex -3.27558 10.0812 -3
    endloop
  endfacet
  facet normal 0 0 1
    outer loop
      vertex -4.51326 9.59117 -3
      vertex -4.51326 -9.59117 -3
      vertex -3.27558 -10.0812 -3
    endloop
  endfacet
  facet normal -0 0 1
    outer loop
      vertex -5.67976 8.94988 -3
      vertex -4.51326 -9.59117 -3
      vertex -4.51326 9.59117 -3
    endloop
  endfacet
  facet normal 0 0 1
    outer loop
      vertex -5.67976 8.94988 -3
      vertex -5.67976 -8.94988 -3
      vertex -4.51326 -9.59117 -3
    endloop
  endfacet
  facet normal -0 0 1
    outer loop
      vertex -6.75669 8.16744 -3
      vertex -5.67976 -8.94988 -3
      vertex -5.67976 8.94988 -3
    endloop
  endfacet
  facet normal 0 0 1
    outer loop
      vertex -6.75669 8.16744 -3
      vertex -6.75669 -8.16744 -3
      vertex -5.67976 -8.94988 -3
    endloop
  endfacet
  facet normal -0 0 1
    outer loop
      vertex -7.72707 7.2562 -3
      vertex -6.75669 -8.16744 -3
      vertex -6.75669 8.16744 -3
    endloop
  endfacet
  facet normal 0 0 1
    outer loop
      vertex -7.72707 7.2562 -3
      vertex -7.72707 -7.2562 -3
      vertex -6.75669 -8.16744 -3
    endloop
  endfacet
  facet normal -0 0 1
    outer loop
      vertex -8.57558 6.23052 -3
      vertex -7.72707 -7.2562 -3
      vertex -7.72707 7.2562 -3
    endloop
  endfacet
  facet normal 0 0 1
    outer loop
      vertex -8.57558 6.23052 -3
      vertex -8.57558 -6.23052 -3
      vertex -7.72707 -7.2562 -3
    endloop
  endfacet
  facet normal -0 0 1
    outer loop
      vertex -9.28885 5.10659 -3
      vertex -8.57558 -6.23052 -3
      vertex -8.57558 6.23052 -3
    endloop
  endfacet
  facet normal 0 0 1
    outer loop
      vertex -9.28885 5.10659 -3
      vertex -9.28885 -5.10659 -3
      vertex -8.57558 -6.23052 -3
    endloop
  endfacet
  facet normal -0 0 1
    outer loop
      vertex -9.85563 3.90212 -3
      vertex -9.28885 -5.10659 -3
      vertex -9.28885 5.10659 -3
    endloop
  endfacet
  facet normal 0 0 1
    outer loop
      vertex -9.85563 3.90212 -3
      vertex -9.85563 -3.90212 -3
      vertex -9.28885 -5.10659 -3
    endloop
  endfacet
  facet normal -0 0 1
    outer loop
      vertex -10.267 2.63611 -3
      vertex -9.85563 -3.90212 -3
      vertex -9.85563 3.90212 -3
    endloop
  endfacet
  facet normal 0 0 1
    outer loop
      vertex -10.267 2.63611 -3
      vertex -10.267 -2.63611 -3
      vertex -9.85563 -3.90212 -3
    endloop
  endfacet
  facet normal -0 0 1
    outer loop
      vertex -10.5164 1.32853 -3
      vertex -10.267 -2.63611 -3
      vertex -10.267 2.63611 -3
    endloop
  endfacet
  facet normal 0 0 1
    outer loop
      vertex -10.5164 1.32853 -3
      vertex -10.5164 -1.32853 -3
      vertex -10.267 -2.63611 -3
    endloop
  endfacet
  facet normal 0 -0 1
    outer loop
      vertex -10.5164 -1.32853 -3
      vertex -10.5164 1.32853 -3
      vertex -10.6 0 -3
    endloop
  endfacet
  facet normal -0.125379 0.992109 0
    outer loop
      vertex 1.98624 -10.4122 -3
      vertex 0.665579 -10.5791 0
      vertex 1.98624 -10.4122 0
    endloop
  endfacet
  facet normal -0.125379 0.992109 0
    outer loop
      vertex 0.665579 -10.5791 0
      vertex 1.98624 -10.4122 -3
      vertex 0.665579 -10.5791 -3
    endloop
  endfacet
  facet normal -0.368123 0.929777 0
    outer loop
      vertex 4.51326 -9.59117 -3
      vertex 3.27558 -10.0812 0
      vertex 4.51326 -9.59117 0
    endloop
  endfacet
  facet normal -0.368123 0.929777 0
    outer loop
      vertex 3.27558 -10.0812 0
      vertex 4.51326 -9.59117 -3
      vertex 3.27558 -10.0812 -3
    endloop
  endfacet
  facet normal -0.951052 -0.30903 0
    outer loop
      vertex 10.267 2.63611 -3
      vertex 9.85563 3.90212 0
      vertex 9.85563 3.90212 -3
    endloop
  endfacet
  facet normal -0.951052 -0.30903 0
    outer loop
      vertex 9.85563 3.90212 0
      vertex 10.267 2.63611 -3
      vertex 10.267 2.63611 0
    endloop
  endfacet
  facet normal -0.770516 -0.637421 0
    outer loop
      vertex 8.57558 6.23052 -3
      vertex 7.72707 7.2562 0
      vertex 7.72707 7.2562 -3
    endloop
  endfacet
  facet normal -0.770516 -0.637421 0
    outer loop
      vertex 7.72707 7.2562 0
      vertex 8.57558 6.23052 -3
      vertex 8.57558 6.23052 0
    endloop
  endfacet
  facet normal -0.844327 -0.535828 0
    outer loop
      vertex 9.28885 5.10659 -3
      vertex 8.57558 6.23052 0
      vertex 8.57558 6.23052 -3
    endloop
  endfacet
  facet normal -0.844327 -0.535828 0
    outer loop
      vertex 8.57558 6.23052 0
      vertex 9.28885 5.10659 -3
      vertex 9.28885 5.10659 0
    endloop
  endfacet
  facet normal -0.125379 -0.992109 0
    outer loop
      vertex 0.665579 10.5791 -3
      vertex 1.98624 10.4122 0
      vertex 0.665579 10.5791 0
    endloop
  endfacet
  facet normal -0.125379 -0.992109 -0
    outer loop
      vertex 1.98624 10.4122 0
      vertex 0.665579 10.5791 -3
      vertex 1.98624 10.4122 -3
    endloop
  endfacet
  facet normal -0.481754 -0.876306 0
    outer loop
      vertex 4.51326 9.59117 -3
      vertex 5.67976 8.94988 0
      vertex 4.51326 9.59117 0
    endloop
  endfacet
  facet normal -0.481754 -0.876306 -0
    outer loop
      vertex 5.67976 8.94988 0
      vertex 4.51326 9.59117 -3
      vertex 5.67976 8.94988 -3
    endloop
  endfacet
  facet normal 0.844327 -0.535828 0
    outer loop
      vertex -9.28885 5.10659 0
      vertex -8.57558 6.23052 -3
      vertex -8.57558 6.23052 0
    endloop
  endfacet
  facet normal 0.844327 -0.535828 0
    outer loop
      vertex -8.57558 6.23052 -3
      vertex -9.28885 5.10659 0
      vertex -9.28885 5.10659 -3
    endloop
  endfacet
  facet normal 0.770516 -0.637421 0
    outer loop
      vertex -8.57558 6.23052 0
      vertex -7.72707 7.2562 -3
      vertex -7.72707 7.2562 0
    endloop
  endfacet
  facet normal 0.770516 -0.637421 0
    outer loop
      vertex -7.72707 7.2562 -3
      vertex -8.57558 6.23052 0
      vertex -8.57558 6.23052 -3
    endloop
  endfacet
  facet normal 0.951052 -0.30903 0
    outer loop
      vertex -10.267 2.63611 0
      vertex -9.85563 3.90212 -3
      vertex -9.85563 3.90212 0
    endloop
  endfacet
  facet normal 0.951052 -0.30903 0
    outer loop
      vertex -9.85563 3.90212 -3
      vertex -10.267 2.63611 0
      vertex -10.267 2.63611 -3
    endloop
  endfacet
  facet normal 0.982292 -0.187357 0
    outer loop
      vertex -10.5164 1.32853 0
      vertex -10.267 2.63611 -3
      vertex -10.267 2.63611 0
    endloop
  endfacet
  facet normal 0.982292 -0.187357 0
    outer loop
      vertex -10.267 2.63611 -3
      vertex -10.5164 1.32853 0
      vertex -10.5164 1.32853 -3
    endloop
  endfacet
  facet normal 0.587787 -0.809015 0
    outer loop
      vertex -6.75669 8.16744 -3
      vertex -5.67976 8.94988 0
      vertex -6.75669 8.16744 0
    endloop
  endfacet
  facet normal 0.587787 -0.809015 0
    outer loop
      vertex -5.67976 8.94988 0
      vertex -6.75669 8.16744 -3
      vertex -5.67976 8.94988 -3
    endloop
  endfacet
  facet normal 0.248657 -0.968592 0
    outer loop
      vertex -3.27558 10.0812 -3
      vertex -1.98624 10.4122 0
      vertex -3.27558 10.0812 0
    endloop
  endfacet
  facet normal 0.248657 -0.968592 0
    outer loop
      vertex -1.98624 10.4122 0
      vertex -3.27558 10.0812 -3
      vertex -1.98624 10.4122 -3
    endloop
  endfacet
  facet normal -0.998026 0.0628025 0
    outer loop
      vertex 10.5164 -1.32853 -3
      vertex 10.6 0 0
      vertex 10.6 0 -3
    endloop
  endfacet
  facet normal -0.998026 0.0628025 0
    outer loop
      vertex 10.6 0 0
      vertex 10.5164 -1.32853 -3
      vertex 10.5164 -1.32853 0
    endloop
  endfacet
  facet normal 0.684544 0.728971 -0
    outer loop
      vertex -6.75669 -8.16744 -3
      vertex -7.72707 -7.2562 0
      vertex -6.75669 -8.16744 0
    endloop
  endfacet
  facet normal 0.684544 0.728971 0
    outer loop
      vertex -7.72707 -7.2562 0
      vertex -6.75669 -8.16744 -3
      vertex -7.72707 -7.2562 -3
    endloop
  endfacet
  facet normal 0.904827 0.425779 0
    outer loop
      vertex -9.28885 -5.10659 0
      vertex -9.85563 -3.90212 -3
      vertex -9.85563 -3.90212 0
    endloop
  endfacet
  facet normal 0.904827 0.425779 0
    outer loop
      vertex -9.85563 -3.90212 -3
      vertex -9.28885 -5.10659 0
      vertex -9.28885 -5.10659 -3
    endloop
  endfacet
  facet normal 0.844327 0.535828 0
    outer loop
      vertex -8.57558 -6.23052 0
      vertex -9.28885 -5.10659 -3
      vertex -9.28885 -5.10659 0
    endloop
  endfacet
  facet normal 0.844327 0.535828 0
    outer loop
      vertex -9.28885 -5.10659 -3
      vertex -8.57558 -6.23052 0
      vertex -8.57558 -6.23052 -3
    endloop
  endfacet
  facet normal 0.998026 0.0628025 0
    outer loop
      vertex -10.5164 -1.32853 0
      vertex -10.6 0 -3
      vertex -10.6 0 0
    endloop
  endfacet
  facet normal 0.998026 0.0628025 0
    outer loop
      vertex -10.6 0 -3
      vertex -10.5164 -1.32853 0
      vertex -10.5164 -1.32853 -3
    endloop
  endfacet
  facet normal -0.481754 0.876306 0
    outer loop
      vertex 5.67976 -8.94988 -3
      vertex 4.51326 -9.59117 0
      vertex 5.67976 -8.94988 0
    endloop
  endfacet
  facet normal -0.481754 0.876306 0
    outer loop
      vertex 4.51326 -9.59117 0
      vertex 5.67976 -8.94988 -3
      vertex 4.51326 -9.59117 -3
    endloop
  endfacet
  facet normal -0.770516 0.637421 0
    outer loop
      vertex 7.72707 -7.2562 -3
      vertex 8.57558 -6.23052 0
      vertex 8.57558 -6.23052 -3
    endloop
  endfacet
  facet normal -0.770516 0.637421 0
    outer loop
      vertex 8.57558 -6.23052 0
      vertex 7.72707 -7.2562 -3
      vertex 7.72707 -7.2562 0
    endloop
  endfacet
  facet normal -0.904827 0.425779 0
    outer loop
      vertex 9.28885 -5.10659 -3
      vertex 9.85563 -3.90212 0
      vertex 9.85563 -3.90212 -3
    endloop
  endfacet
  facet normal -0.904827 0.425779 0
    outer loop
      vertex 9.85563 -3.90212 0
      vertex 9.28885 -5.10659 -3
      vertex 9.28885 -5.10659 0
    endloop
  endfacet
  facet normal 0.770516 0.637421 0
    outer loop
      vertex -7.72707 -7.2562 0
      vertex -8.57558 -6.23052 -3
      vertex -8.57558 -6.23052 0
    endloop
  endfacet
  facet normal 0.770516 0.637421 0
    outer loop
      vertex -8.57558 -6.23052 -3
      vertex -7.72707 -7.2562 0
      vertex -7.72707 -7.2562 -3
    endloop
  endfacet
  facet normal 0.982292 0.187357 0
    outer loop
      vertex -10.267 -2.63611 0
      vertex -10.5164 -1.32853 -3
      vertex -10.5164 -1.32853 0
    endloop
  endfacet
  facet normal 0.982292 0.187357 0
    outer loop
      vertex -10.5164 -1.32853 -3
      vertex -10.267 -2.63611 0
      vertex -10.267 -2.63611 -3
    endloop
  endfacet
  facet normal 0.951052 0.30903 0
    outer loop
      vertex -9.85563 -3.90212 0
      vertex -10.267 -2.63611 -3
      vertex -10.267 -2.63611 0
    endloop
  endfacet
  facet normal 0.951052 0.30903 0
    outer loop
      vertex -10.267 -2.63611 -3
      vertex -9.85563 -3.90212 0
      vertex -9.85563 -3.90212 -3
    endloop
  endfacet
  facet normal -0.587787 0.809015 0
    outer loop
      vertex 6.75669 -8.16744 -3
      vertex 5.67976 -8.94988 0
      vertex 6.75669 -8.16744 0
    endloop
  endfacet
  facet normal -0.587787 0.809015 0
    outer loop
      vertex 5.67976 -8.94988 0
      vertex 6.75669 -8.16744 -3
      vertex 5.67976 -8.94988 -3
    endloop
  endfacet
  facet normal -0.248657 0.968592 0
    outer loop
      vertex 3.27558 -10.0812 -3
      vertex 1.98624 -10.4122 0
      vertex 3.27558 -10.0812 0
    endloop
  endfacet
  facet normal -0.248657 0.968592 0
    outer loop
      vertex 1.98624 -10.4122 0
      vertex 3.27558 -10.0812 -3
      vertex 1.98624 -10.4122 -3
    endloop
  endfacet
  facet normal -0.844327 0.535828 0
    outer loop
      vertex 8.57558 -6.23052 -3
      vertex 9.28885 -5.10659 0
      vertex 9.28885 -5.10659 -3
    endloop
  endfacet
  facet normal -0.844327 0.535828 0
    outer loop
      vertex 9.28885 -5.10659 0
      vertex 8.57558 -6.23052 -3
      vertex 8.57558 -6.23052 0
    endloop
  endfacet
  facet normal -0.951052 0.30903 0
    outer loop
      vertex 9.85563 -3.90212 -3
      vertex 10.267 -2.63611 0
      vertex 10.267 -2.63611 -3
    endloop
  endfacet
  facet normal -0.951052 0.30903 0
    outer loop
      vertex 10.267 -2.63611 0
      vertex 9.85563 -3.90212 -3
      vertex 9.85563 -3.90212 0
    endloop
  endfacet
  facet normal 0.125379 0.992109 -0
    outer loop
      vertex -0.665579 -10.5791 -3
      vertex -1.98624 -10.4122 0
      vertex -0.665579 -10.5791 0
    endloop
  endfacet
  facet normal 0.125379 0.992109 0
    outer loop
      vertex -1.98624 -10.4122 0
      vertex -0.665579 -10.5791 -3
      vertex -1.98624 -10.4122 -3
    endloop
  endfacet
  facet normal 0.368123 0.929777 -0
    outer loop
      vertex -3.27558 -10.0812 -3
      vertex -4.51326 -9.59117 0
      vertex -3.27558 -10.0812 0
    endloop
  endfacet
  facet normal 0.368123 0.929777 0
    outer loop
      vertex -4.51326 -9.59117 0
      vertex -3.27558 -10.0812 -3
      vertex -4.51326 -9.59117 -3
    endloop
  endfacet
  facet normal 0.481754 0.876306 -0
    outer loop
      vertex -4.51326 -9.59117 -3
      vertex -5.67976 -8.94988 0
      vertex -4.51326 -9.59117 0
    endloop
  endfacet
  facet normal 0.481754 0.876306 0
    outer loop
      vertex -5.67976 -8.94988 0
      vertex -4.51326 -9.59117 -3
      vertex -5.67976 -8.94988 -3
    endloop
  endfacet
  facet normal 0.248657 0.968592 -0
    outer loop
      vertex -1.98624 -10.4122 -3
      vertex -3.27558 -10.0812 0
      vertex -1.98624 -10.4122 0
    endloop
  endfacet
  facet normal 0.248657 0.968592 0
    outer loop
      vertex -3.27558 -10.0812 0
      vertex -1.98624 -10.4122 -3
      vertex -3.27558 -10.0812 -3
    endloop
  endfacet
  facet normal 0.587787 0.809015 -0
    outer loop
      vertex -5.67976 -8.94988 -3
      vertex -6.75669 -8.16744 0
      vertex -5.67976 -8.94988 0
    endloop
  endfacet
  facet normal 0.587787 0.809015 0
    outer loop
      vertex -6.75669 -8.16744 0
      vertex -5.67976 -8.94988 -3
      vertex -6.75669 -8.16744 -3
    endloop
  endfacet
endsolid OpenSCAD_Model
