<?xml version="1.0" standalone="no"?>
<!DOCTYPE svg PUBLIC "-//W3C//DTD SVG 1.1//EN" "http://www.w3.org/Graphics/SVG/1.1/DTD/svg11.dtd">
<svg width="36mm" height="124mm" viewBox="-18 -114 36 124" xmlns="http://www.w3.org/2000/svg" version="1.1">
<title>OpenSCAD Model</title>
<path d="
M 1.87381,-38.1771 L 3.09016,-38.4894 L 4.25778,-38.9517 L 5.35826,-39.5567 L 6.37424,-40.2949 L 7.28967,-41.1545
 L 8.09016,-42.1222 L 8.76306,-43.1825 L 9.29776,-44.3188 L 9.68582,-45.5131 L 9.92114,-46.7467 L 10,-48
 L 9.92114,-49.2533 L 9.68582,-50.4869 L 9.29776,-51.6812 L 8.76306,-52.8175 L 8.09016,-53.8778 L 7.28967,-54.8455
 L 6.37424,-55.7051 L 6.34392,-55.7272 L 7.45113,-56.1655 L 9.37697,-57.2243 L 11.1549,-58.516 L 12.7569,-60.0204
 L 14.1578,-61.7138 L 15.3354,-63.5693 L 16.2711,-65.5578 L 16.9502,-67.6479 L 17.362,-69.8067 L 17.5,-72
 L 17.362,-74.1933 L 16.9502,-76.3521 L 16.2711,-78.4422 L 15.3354,-80.4307 L 14.1578,-82.2862 L 12.7569,-83.9796
 L 12.7352,-84 L 12.7569,-84.0204 L 14.1578,-85.7138 L 15.3354,-87.5693 L 16.2711,-89.5578 L 16.9502,-91.6479
 L 17.362,-93.8067 L 17.5,-96 L 17.362,-98.1933 L 16.9502,-100.352 L 16.2711,-102.442 L 15.3354,-104.431
 L 14.1578,-106.286 L 12.7569,-107.98 L 11.1549,-109.484 L 9.37697,-110.776 L 7.45113,-111.834 L 5.40779,-112.643
 L 3.27916,-113.19 L 1.09883,-113.465 L -1.09883,-113.465 L -3.27916,-113.19 L -5.40779,-112.643 L -7.45113,-111.834
 L -9.37697,-110.776 L -11.1549,-109.484 L -12.7569,-107.98 L -14.1578,-106.286 L -15.3354,-104.431 L -16.2711,-102.442
 L -16.9502,-100.352 L -17.362,-98.1933 L -17.5,-96 L -17.362,-93.8067 L -16.9502,-91.6479 L -16.2711,-89.5578
 L -15.3354,-87.5693 L -14.1578,-85.7138 L -12.7569,-84.0204 L -12.7352,-84 L -12.7569,-83.9796 L -14.1578,-82.2862
 L -15.3354,-80.4307 L -16.2711,-78.4422 L -16.9502,-76.3521 L -17.362,-74.1933 L -17.5,-72 L -17.362,-69.8067
 L -16.9502,-67.6479 L -16.2711,-65.5578 L -15.3354,-63.5693 L -14.1578,-61.7138 L -12.7569,-60.0204 L -11.1549,-58.516
 L -9.37697,-57.2243 L -7.45113,-56.1655 L -6.34392,-55.7272 L -6.37424,-55.7051 L -7.28967,-54.8455 L -8.09016,-53.8778
 L -8.76306,-52.8175 L -9.29776,-51.6812 L -9.68582,-50.4869 L -9.92114,-49.2533 L -10,-48 L -9.92114,-46.7467
 L -9.68582,-45.5131 L -9.29776,-44.3188 L -8.76306,-43.1825 L -8.09016,-42.1222 L -7.28967,-41.1545 L -6.37424,-40.2949
 L -5.35826,-39.5567 L -4.25778,-38.9517 L -3.09016,-38.4894 L -1.87381,-38.1771 L -0.627899,-38.0197 L 0.627899,-38.0197
 z
M -3.24911,-97.2364 L -3.74344,-97.2989 L -4.22604,-97.4228 L -4.6893,-97.6062 L -5.12592,-97.8462 L -5.52902,-98.1391
 L -5.89223,-98.4802 L -6.20982,-98.8641 L -6.47679,-99.2848 L -6.68895,-99.7356 L -6.84291,-100.209 L -6.93628,-100.699
 L -6.96756,-101.196 L -6.93628,-101.693 L -6.84291,-102.183 L -6.68895,-102.657 L -6.47679,-103.108 L -6.20982,-103.528
 L -5.89223,-103.912 L -5.52902,-104.253 L -5.12592,-104.546 L -4.6893,-104.786 L -4.22604,-104.97 L -3.74344,-105.093
 L -3.24911,-105.156 L -2.75087,-105.156 L -2.25655,-105.093 L -1.77394,-104.97 L -1.31068,-104.786 L -0.874069,-104.546
 L -0.470978,-104.253 L -0.107758,-103.912 L 0.209824,-103.528 L 0.476791,-103.108 L 0.68895,-102.657 L 0.842911,-102.183
 L 0.936279,-101.693 L 0.96756,-101.196 L 0.936279,-100.699 L 0.842911,-100.209 L 0.68895,-99.7356 L 0.476791,-99.2848
 L 0.209824,-98.8641 L -0.107758,-98.4802 L -0.470978,-98.1391 L -0.874069,-97.8462 L -1.31068,-97.6062 L -1.77394,-97.4228
 L -2.25655,-97.2989 L -2.75087,-97.2364 z
M 5.75087,-92.0403 L 5.25655,-92.1027 L 4.77394,-92.2266 L 4.31068,-92.41 L 3.87407,-92.6501 L 3.47098,-92.9429
 L 3.10776,-93.284 L 2.79016,-93.6679 L 2.52319,-94.0886 L 2.31104,-94.5394 L 2.15707,-95.0133 L 2.06371,-95.5027
 L 2.03242,-96 L 2.06371,-96.4973 L 2.15707,-96.9867 L 2.31104,-97.4606 L 2.52319,-97.9114 L 2.79016,-98.3321
 L 3.10776,-98.716 L 3.47098,-99.0571 L 3.87407,-99.3499 L 4.31068,-99.59 L 4.77394,-99.7734 L 5.25655,-99.8973
 L 5.75087,-99.9597 L 6.24911,-99.9597 L 6.74344,-99.8973 L 7.22604,-99.7734 L 7.6893,-99.59 L 8.12592,-99.3499
 L 8.52902,-99.0571 L 8.89223,-98.716 L 9.20982,-98.3321 L 9.47679,-97.9114 L 9.68895,-97.4606 L 9.84291,-96.9867
 L 9.93628,-96.4973 L 9.96756,-96 L 9.93628,-95.5027 L 9.84291,-95.0133 L 9.68895,-94.5394 L 9.47679,-94.0886
 L 9.20982,-93.6679 L 8.89223,-93.284 L 8.52902,-92.9429 L 8.12592,-92.6501 L 7.6893,-92.41 L 7.22604,-92.2266
 L 6.74344,-92.1027 L 6.24911,-92.0403 z
M -6.20982,-88.4718 L -6.47679,-88.8925 L -6.68895,-89.3433 L -6.84291,-89.8172 L -6.93628,-90.3066 L -6.96756,-90.8038
 L -6.93628,-91.3011 L -6.84291,-91.7905 L -6.68895,-92.2644 L -6.47679,-92.7152 L -6.20982,-93.1359 L -5.89223,-93.5198
 L -5.52902,-93.8609 L -5.12592,-94.1538 L -4.6893,-94.3938 L -4.22604,-94.5772 L -3.74344,-94.7011 L -3.24911,-94.7636
 L -2.75087,-94.7636 L -2.25655,-94.7011 L -1.77394,-94.5772 L -1.31068,-94.3938 L -0.874069,-94.1538 L -0.470978,-93.8609
 L -0.107758,-93.5198 L 0.209824,-93.1359 L 0.476791,-92.7152 L 0.68895,-92.2644 L 0.842911,-91.7905 L 0.936279,-91.3011
 L 0.96756,-90.8038 L 0.936279,-90.3066 L 0.842911,-89.8172 L 0.728638,-89.4655 L -1.09883,-89.4655 L -3.27916,-89.19
 L -5.40779,-88.6435 L -6.11894,-88.3619 z
M -3.18051,-74.3268 L -3.53871,-74.3721 L -3.88841,-74.4619 L -4.22411,-74.5948 L -4.5405,-74.7687 L -4.83258,-74.9809
 L -5.09578,-75.2281 L -5.32591,-75.5063 L -5.51938,-75.8111 L -5.6731,-76.1378 L -5.78467,-76.4812 L -5.85233,-76.8358
 L -5.875,-77.1962 L -5.85233,-77.5565 L -5.78467,-77.9111 L -5.6731,-78.2545 L -5.51938,-78.5812 L -5.32591,-78.886
 L -5.09578,-79.1642 L -5.00195,-79.2523 L -3.27916,-78.81 L -1.09883,-78.5345 L -0.458664,-78.5345 L -0.326889,-78.2545
 L -0.215317,-77.9111 L -0.147659,-77.5565 L -0.125,-77.1962 L -0.147659,-76.8358 L -0.215317,-76.4812 L -0.326889,-76.1378
 L -0.480606,-75.8111 L -0.674072,-75.5063 L -0.904205,-75.2281 L -1.1674,-74.9809 L -1.45949,-74.7687 L -1.77588,-74.5948
 L -2.11157,-74.4619 L -2.46127,-74.3721 L -2.81947,-74.3268 z
M 5.81947,-69.1307 L 5.46127,-69.1759 L 5.11157,-69.2657 L 4.77588,-69.3986 L 4.45949,-69.5726 L 4.1674,-69.7848
 L 3.90421,-70.0319 L 3.67407,-70.3101 L 3.48061,-70.615 L 3.32689,-70.9417 L 3.21532,-71.285 L 3.14766,-71.6397
 L 3.125,-72 L 3.14766,-72.3603 L 3.21532,-72.715 L 3.32689,-73.0583 L 3.48061,-73.385 L 3.67407,-73.6899
 L 3.90421,-73.9681 L 4.1674,-74.2152 L 4.45949,-74.4274 L 4.77588,-74.6014 L 5.11157,-74.7343 L 5.46127,-74.8241
 L 5.81947,-74.8693 L 6.18051,-74.8693 L 6.53871,-74.8241 L 6.88841,-74.7343 L 7.22411,-74.6014 L 7.5405,-74.4274
 L 7.83258,-74.2152 L 8.09578,-73.9681 L 8.32591,-73.6899 L 8.51938,-73.385 L 8.6731,-73.0583 L 8.78467,-72.715
 L 8.85233,-72.3603 L 8.875,-72 L 8.85233,-71.6397 L 8.78467,-71.285 L 8.6731,-70.9417 L 8.51938,-70.615
 L 8.32591,-70.3101 L 8.09578,-70.0319 L 7.83258,-69.7848 L 7.5405,-69.5726 L 7.22411,-69.3986 L 6.88841,-69.2657
 L 6.53871,-69.1759 L 6.18051,-69.1307 z
M -3.18051,-63.9345 L -3.53871,-63.9798 L -3.88841,-64.0696 L -4.22411,-64.2025 L -4.5405,-64.3764 L -4.83258,-64.5886
 L -5.09578,-64.8358 L -5.32591,-65.114 L -5.51938,-65.4188 L -5.6731,-65.7455 L -5.78467,-66.0889 L -5.85233,-66.4435
 L -5.875,-66.8038 L -5.85233,-67.1642 L -5.78467,-67.5188 L -5.6731,-67.8622 L -5.51938,-68.1889 L -5.32591,-68.4937
 L -5.09578,-68.7719 L -4.83258,-69.0191 L -4.5405,-69.2313 L -4.22411,-69.4052 L -3.88841,-69.5381 L -3.53871,-69.6279
 L -3.18051,-69.6732 L -2.81947,-69.6732 L -2.46127,-69.6279 L -2.11157,-69.5381 L -1.77588,-69.4052 L -1.45949,-69.2313
 L -1.1674,-69.0191 L -0.904205,-68.7719 L -0.674072,-68.4937 L -0.480606,-68.1889 L -0.326889,-67.8622 L -0.215317,-67.5188
 L -0.147659,-67.1642 L -0.125,-66.8038 L -0.147659,-66.4435 L -0.215317,-66.0889 L -0.326889,-65.7455 L -0.480606,-65.4188
 L -0.674072,-65.114 L -0.904205,-64.8358 L -1.1674,-64.5886 L -1.45949,-64.3764 L -1.77588,-64.2025 L -2.11157,-64.0696
 L -2.46127,-63.9798 L -2.81947,-63.9345 z
M -3.18051,-50.3268 L -3.53871,-50.3721 L -3.88841,-50.4619 L -4.22411,-50.5948 L -4.5405,-50.7687 L -4.83258,-50.9809
 L -5.09578,-51.2281 L -5.32591,-51.5063 L -5.51938,-51.8111 L -5.6731,-52.1378 L -5.78467,-52.4812 L -5.85233,-52.8358
 L -5.875,-53.1962 L -5.85233,-53.5565 L -5.78467,-53.9111 L -5.6731,-54.2545 L -5.51938,-54.5812 L -5.32591,-54.886
 L -5.09578,-55.1642 L -5.00195,-55.2523 L -3.27916,-54.81 L -1.09883,-54.5345 L -0.458664,-54.5345 L -0.326889,-54.2545
 L -0.215317,-53.9111 L -0.147659,-53.5565 L -0.125,-53.1962 L -0.147659,-52.8358 L -0.215317,-52.4812 L -0.326889,-52.1378
 L -0.480606,-51.8111 L -0.674072,-51.5063 L -0.904205,-51.2281 L -1.1674,-50.9809 L -1.45949,-50.7687 L -1.77588,-50.5948
 L -2.11157,-50.4619 L -2.46127,-50.3721 L -2.81947,-50.3268 z
M 5.81947,-45.1307 L 5.46127,-45.1759 L 5.11157,-45.2657 L 4.77588,-45.3986 L 4.45949,-45.5726 L 4.1674,-45.7848
 L 3.90421,-46.0319 L 3.67407,-46.3101 L 3.48061,-46.615 L 3.32689,-46.9417 L 3.21532,-47.285 L 3.14766,-47.6397
 L 3.125,-48 L 3.14766,-48.3603 L 3.21532,-48.715 L 3.32689,-49.0583 L 3.48061,-49.385 L 3.67407,-49.6899
 L 3.90421,-49.9681 L 4.1674,-50.2152 L 4.45949,-50.4274 L 4.77588,-50.6014 L 5.11157,-50.7343 L 5.46127,-50.8241
 L 5.81947,-50.8693 L 6.18051,-50.8693 L 6.53871,-50.8241 L 6.88841,-50.7343 L 7.22411,-50.6014 L 7.5405,-50.4274
 L 7.83258,-50.2152 L 8.09578,-49.9681 L 8.32591,-49.6899 L 8.51938,-49.385 L 8.6731,-49.0583 L 8.78467,-48.715
 L 8.85233,-48.3603 L 8.875,-48 L 8.85233,-47.6397 L 8.78467,-47.285 L 8.6731,-46.9417 L 8.51938,-46.615
 L 8.32591,-46.3101 L 8.09578,-46.0319 L 7.83258,-45.7848 L 7.5405,-45.5726 L 7.22411,-45.3986 L 6.88841,-45.2657
 L 6.53871,-45.1759 L 6.18051,-45.1307 z
M -3.18051,-39.9345 L -3.53871,-39.9798 L -3.88841,-40.0696 L -4.22411,-40.2025 L -4.5405,-40.3764 L -4.83258,-40.5886
 L -5.09578,-40.8358 L -5.32591,-41.114 L -5.51938,-41.4188 L -5.6731,-41.7455 L -5.78467,-42.0889 L -5.85233,-42.4435
 L -5.875,-42.8038 L -5.85233,-43.1642 L -5.78467,-43.5188 L -5.6731,-43.8622 L -5.51938,-44.1889 L -5.32591,-44.4937
 L -5.09578,-44.7719 L -4.83258,-45.0191 L -4.5405,-45.2313 L -4.22411,-45.4052 L -3.88841,-45.5381 L -3.53871,-45.6279
 L -3.18051,-45.6732 L -2.81947,-45.6732 L -2.46127,-45.6279 L -2.11157,-45.5381 L -1.77588,-45.4052 L -1.45949,-45.2313
 L -1.1674,-45.0191 L -0.904205,-44.7719 L -0.674072,-44.4937 L -0.480606,-44.1889 L -0.326889,-43.8622 L -0.215317,-43.5188
 L -0.147659,-43.1642 L -0.125,-42.8038 L -0.147659,-42.4435 L -0.215317,-42.0889 L -0.326889,-41.7455 L -0.480606,-41.4188
 L -0.674072,-41.114 L -0.904205,-40.8358 L -1.1674,-40.5886 L -1.45949,-40.3764 L -1.77588,-40.2025 L -2.11157,-40.0696
 L -2.46127,-39.9798 L -2.81947,-39.9345 z
M 1.87381,-14.1771 L 3.09016,-14.4894 L 4.25778,-14.9517 L 5.35826,-15.5567 L 6.37424,-16.2949 L 7.28967,-17.1545
 L 8.09016,-18.1222 L 8.76306,-19.1825 L 9.29776,-20.3188 L 9.68582,-21.5131 L 9.92114,-22.7467 L 10,-24
 L 9.92114,-25.2533 L 9.68582,-26.4869 L 9.29776,-27.6812 L 8.76306,-28.8175 L 8.09016,-29.8778 L 7.28967,-30.8455
 L 6.37424,-31.7051 L 5.35826,-32.4433 L 4.25778,-33.0483 L 3.09016,-33.5106 L 1.87381,-33.8229 L 0.627899,-33.9803
 L -0.627899,-33.9803 L -1.87381,-33.8229 L -3.09016,-33.5106 L -4.25778,-33.0483 L -5.35826,-32.4433 L -6.37424,-31.7051
 L -7.28967,-30.8455 L -8.09016,-29.8778 L -8.76306,-28.8175 L -9.29776,-27.6812 L -9.68582,-26.4869 L -9.92114,-25.2533
 L -10,-24 L -9.92114,-22.7467 L -9.68582,-21.5131 L -9.29776,-20.3188 L -8.76306,-19.1825 L -8.09016,-18.1222
 L -7.28967,-17.1545 L -6.37424,-16.2949 L -5.35826,-15.5567 L -4.25778,-14.9517 L -3.09016,-14.4894 L -1.87381,-14.1771
 L -0.627899,-14.0197 L 0.627899,-14.0197 z
M -3.18051,-26.3268 L -3.53871,-26.3721 L -3.88841,-26.4619 L -4.22411,-26.5948 L -4.5405,-26.7687 L -4.83258,-26.9809
 L -5.09578,-27.2281 L -5.32591,-27.5063 L -5.51938,-27.8111 L -5.6731,-28.1378 L -5.78467,-28.4812 L -5.85233,-28.8358
 L -5.875,-29.1962 L -5.85233,-29.5565 L -5.78467,-29.9111 L -5.6731,-30.2545 L -5.51938,-30.5812 L -5.32591,-30.886
 L -5.09578,-31.1642 L -4.83258,-31.4114 L -4.5405,-31.6236 L -4.22411,-31.7975 L -3.88841,-31.9304 L -3.53871,-32.0202
 L -3.18051,-32.0655 L -2.81947,-32.0655 L -2.46127,-32.0202 L -2.11157,-31.9304 L -1.77588,-31.7975 L -1.45949,-31.6236
 L -1.1674,-31.4114 L -0.904205,-31.1642 L -0.674072,-30.886 L -0.480606,-30.5812 L -0.326889,-30.2545 L -0.215317,-29.9111
 L -0.147659,-29.5565 L -0.125,-29.1962 L -0.147659,-28.8358 L -0.215317,-28.4812 L -0.326889,-28.1378 L -0.480606,-27.8111
 L -0.674072,-27.5063 L -0.904205,-27.2281 L -1.1674,-26.9809 L -1.45949,-26.7687 L -1.77588,-26.5948 L -2.11157,-26.4619
 L -2.46127,-26.3721 L -2.81947,-26.3268 z
M 5.81947,-21.1307 L 5.46127,-21.1759 L 5.11157,-21.2657 L 4.77588,-21.3986 L 4.45949,-21.5726 L 4.1674,-21.7848
 L 3.90421,-22.0319 L 3.67407,-22.3101 L 3.48061,-22.615 L 3.32689,-22.9417 L 3.21532,-23.285 L 3.14766,-23.6397
 L 3.125,-24 L 3.14766,-24.3603 L 3.21532,-24.715 L 3.32689,-25.0583 L 3.48061,-25.385 L 3.67407,-25.6899
 L 3.90421,-25.9681 L 4.1674,-26.2152 L 4.45949,-26.4274 L 4.77588,-26.6014 L 5.11157,-26.7343 L 5.46127,-26.8241
 L 5.81947,-26.8693 L 6.18051,-26.8693 L 6.53871,-26.8241 L 6.88841,-26.7343 L 7.22411,-26.6014 L 7.5405,-26.4274
 L 7.83258,-26.2152 L 8.09578,-25.9681 L 8.32591,-25.6899 L 8.51938,-25.385 L 8.6731,-25.0583 L 8.78467,-24.715
 L 8.85233,-24.3603 L 8.875,-24 L 8.85233,-23.6397 L 8.78467,-23.285 L 8.6731,-22.9417 L 8.51938,-22.615
 L 8.32591,-22.3101 L 8.09578,-22.0319 L 7.83258,-21.7848 L 7.5405,-21.5726 L 7.22411,-21.3986 L 6.88841,-21.2657
 L 6.53871,-21.1759 L 6.18051,-21.1307 z
M -3.18051,-15.9345 L -3.53871,-15.9798 L -3.88841,-16.0696 L -4.22411,-16.2025 L -4.5405,-16.3764 L -4.83258,-16.5886
 L -5.09578,-16.8358 L -5.32591,-17.114 L -5.51938,-17.4188 L -5.6731,-17.7455 L -5.78467,-18.0889 L -5.85233,-18.4435
 L -5.875,-18.8038 L -5.85233,-19.1642 L -5.78467,-19.5188 L -5.6731,-19.8622 L -5.51938,-20.1889 L -5.32591,-20.4937
 L -5.09578,-20.7719 L -4.83258,-21.0191 L -4.5405,-21.2313 L -4.22411,-21.4052 L -3.88841,-21.5381 L -3.53871,-21.6279
 L -3.18051,-21.6732 L -2.81947,-21.6732 L -2.46127,-21.6279 L -2.11157,-21.5381 L -1.77588,-21.4052 L -1.45949,-21.2313
 L -1.1674,-21.0191 L -0.904205,-20.7719 L -0.674072,-20.4937 L -0.480606,-20.1889 L -0.326889,-19.8622 L -0.215317,-19.5188
 L -0.147659,-19.1642 L -0.125,-18.8038 L -0.147659,-18.4435 L -0.215317,-18.0889 L -0.326889,-17.7455 L -0.480606,-17.4188
 L -0.674072,-17.114 L -0.904205,-16.8358 L -1.1674,-16.5886 L -1.45949,-16.3764 L -1.77588,-16.2025 L -2.11157,-16.0696
 L -2.46127,-15.9798 L -2.81947,-15.9345 z
M 1.87381,9.82286 L 3.09016,9.51056 L 4.25778,9.04826 L 5.35826,8.44327 L 6.37424,7.70512 L 7.28967,6.84546
 L 8.09016,5.87784 L 8.76306,4.81754 L 9.29776,3.68124 L 9.68582,2.48689 L 9.92114,1.25333 L 10,-0
 L 9.92114,-1.25333 L 9.68582,-2.48689 L 9.29776,-3.68124 L 8.76306,-4.81754 L 8.09016,-5.87784 L 7.28967,-6.84546
 L 6.37424,-7.70512 L 5.35826,-8.44327 L 4.25778,-9.04826 L 3.09016,-9.51056 L 1.87381,-9.82286 L 0.627899,-9.98026
 L -0.627899,-9.98026 L -1.87381,-9.82286 L -3.09016,-9.51056 L -4.25778,-9.04826 L -5.35826,-8.44327 L -6.37424,-7.70512
 L -7.28967,-6.84546 L -8.09016,-5.87784 L -8.76306,-4.81754 L -9.29776,-3.68124 L -9.68582,-2.48689 L -9.92114,-1.25333
 L -10,-0 L -9.92114,1.25333 L -9.68582,2.48689 L -9.29776,3.68124 L -8.76306,4.81754 L -8.09016,5.87784
 L -7.28967,6.84546 L -6.37424,7.70512 L -5.35826,8.44327 L -4.25778,9.04826 L -3.09016,9.51056 L -1.87381,9.82286
 L -0.627899,9.98026 L 0.627899,9.98026 z
M -3.18051,-2.32681 L -3.53871,-2.37207 L -3.88841,-2.46185 L -4.22411,-2.59477 L -4.5405,-2.76871 L -4.83258,-2.98093
 L -5.09578,-3.22807 L -5.32591,-3.50626 L -5.51938,-3.8111 L -5.6731,-4.13779 L -5.78467,-4.48116 L -5.85233,-4.83582
 L -5.875,-5.19615 L -5.85233,-5.55647 L -5.78467,-5.91113 L -5.6731,-6.2545 L -5.51938,-6.58119 L -5.32591,-6.88603
 L -5.09578,-7.16422 L -4.83258,-7.41138 L -4.5405,-7.62358 L -4.22411,-7.79752 L -3.88841,-7.93044 L -3.53871,-8.02022
 L -3.18051,-8.06548 L -2.81947,-8.06548 L -2.46127,-8.02022 L -2.11157,-7.93044 L -1.77588,-7.79752 L -1.45949,-7.62358
 L -1.1674,-7.41138 L -0.904205,-7.16422 L -0.674072,-6.88603 L -0.480606,-6.58119 L -0.326889,-6.2545 L -0.215317,-5.91113
 L -0.147659,-5.55647 L -0.125,-5.19615 L -0.147659,-4.83582 L -0.215317,-4.48116 L -0.326889,-4.13779 L -0.480606,-3.8111
 L -0.674072,-3.50626 L -0.904205,-3.22807 L -1.1674,-2.98093 L -1.45949,-2.76871 L -1.77588,-2.59477 L -2.11157,-2.46185
 L -2.46127,-2.37207 L -2.81947,-2.32681 z
M 5.81947,2.86932 L 5.46127,2.82407 L 5.11157,2.73428 L 4.77588,2.60136 L 4.45949,2.42743 L 4.1674,2.21523
 L 3.90421,1.96806 L 3.67407,1.68988 L 3.48061,1.38504 L 3.32689,1.05835 L 3.21532,0.714981 L 3.14766,0.360321
 L 3.125,-0 L 3.14766,-0.360321 L 3.21532,-0.714981 L 3.32689,-1.05835 L 3.48061,-1.38504 L 3.67407,-1.68988
 L 3.90421,-1.96806 L 4.1674,-2.21523 L 4.45949,-2.42743 L 4.77588,-2.60136 L 5.11157,-2.73428 L 5.46127,-2.82407
 L 5.81947,-2.86932 L 6.18051,-2.86932 L 6.53871,-2.82407 L 6.88841,-2.73428 L 7.22411,-2.60136 L 7.5405,-2.42743
 L 7.83258,-2.21523 L 8.09578,-1.96806 L 8.32591,-1.68988 L 8.51938,-1.38504 L 8.6731,-1.05835 L 8.78467,-0.714981
 L 8.85233,-0.360321 L 8.875,-0 L 8.85233,0.360321 L 8.78467,0.714981 L 8.6731,1.05835 L 8.51938,1.38504
 L 8.32591,1.68988 L 8.09578,1.96806 L 7.83258,2.21523 L 7.5405,2.42743 L 7.22411,2.60136 L 6.88841,2.73428
 L 6.53871,2.82407 L 6.18051,2.86932 z
M -3.18051,8.06548 L -3.53871,8.02022 L -3.88841,7.93044 L -4.22411,7.79752 L -4.5405,7.62358 L -4.83258,7.41138
 L -5.09578,7.16422 L -5.32591,6.88603 L -5.51938,6.58119 L -5.6731,6.2545 L -5.78467,5.91113 L -5.85233,5.55647
 L -5.875,5.19615 L -5.85233,4.83582 L -5.78467,4.48116 L -5.6731,4.13779 L -5.51938,3.8111 L -5.32591,3.50626
 L -5.09578,3.22807 L -4.83258,2.98093 L -4.5405,2.76871 L -4.22411,2.59477 L -3.88841,2.46185 L -3.53871,2.37207
 L -3.18051,2.32681 L -2.81947,2.32681 L -2.46127,2.37207 L -2.11157,2.46185 L -1.77588,2.59477 L -1.45949,2.76871
 L -1.1674,2.98093 L -0.904205,3.22807 L -0.674072,3.50626 L -0.480606,3.8111 L -0.326889,4.13779 L -0.215317,4.48116
 L -0.147659,4.83582 L -0.125,5.19615 L -0.147659,5.55647 L -0.215317,5.91113 L -0.326889,6.2545 L -0.480606,6.58119
 L -0.674072,6.88603 L -0.904205,7.16422 L -1.1674,7.41138 L -1.45949,7.62358 L -1.77588,7.79752 L -2.11157,7.93044
 L -2.46127,8.02022 L -2.81947,8.06548 z
" stroke="black" fill="lightgray" stroke-width="0.5"/>
</svg>
