  0
SECTION
  2
BLOCKS
  0
ENDSEC
  0
SECTION
  2
ENTITIES
  0
LINE
  8
0
 10
1.87381
 20
38.1771
 11
3.09016
 21
38.4894
  0
LINE
  8
0
 10
3.09016
 20
38.4894
 11
4.25778
 21
38.9517
  0
LINE
  8
0
 10
4.25778
 20
38.9517
 11
5.35826
 21
39.5567
  0
LINE
  8
0
 10
5.35826
 20
39.5567
 11
6.37424
 21
40.2949
  0
LINE
  8
0
 10
6.37424
 20
40.2949
 11
7.28967
 21
41.1545
  0
LINE
  8
0
 10
7.28967
 20
41.1545
 11
8.09016
 21
42.1222
  0
LINE
  8
0
 10
8.09016
 20
42.1222
 11
8.76306
 21
43.1825
  0
LINE
  8
0
 10
8.76306
 20
43.1825
 11
9.29776
 21
44.3188
  0
LINE
  8
0
 10
9.29776
 20
44.3188
 11
9.68582
 21
45.5131
  0
LINE
  8
0
 10
9.68582
 20
45.5131
 11
9.92114
 21
46.7467
  0
LINE
  8
0
 10
9.92114
 20
46.7467
 11
10
 21
48
  0
LINE
  8
0
 10
10
 20
48
 11
9.92114
 21
49.2533
  0
LINE
  8
0
 10
9.92114
 20
49.2533
 11
9.68582
 21
50.4869
  0
LINE
  8
0
 10
9.68582
 20
50.4869
 11
9.29776
 21
51.6812
  0
LINE
  8
0
 10
9.29776
 20
51.6812
 11
8.76306
 21
52.8175
  0
LINE
  8
0
 10
8.76306
 20
52.8175
 11
8.09016
 21
53.8778
  0
LINE
  8
0
 10
8.09016
 20
53.8778
 11
7.28967
 21
54.8455
  0
LINE
  8
0
 10
7.28967
 20
54.8455
 11
6.37424
 21
55.7051
  0
LINE
  8
0
 10
6.37424
 20
55.7051
 11
6.34392
 21
55.7272
  0
LINE
  8
0
 10
6.34392
 20
55.7272
 11
7.45113
 21
56.1655
  0
LINE
  8
0
 10
7.45113
 20
56.1655
 11
9.37697
 21
57.2243
  0
LINE
  8
0
 10
9.37697
 20
57.2243
 11
11.1549
 21
58.516
  0
LINE
  8
0
 10
11.1549
 20
58.516
 11
12.7569
 21
60.0204
  0
LINE
  8
0
 10
12.7569
 20
60.0204
 11
14.1578
 21
61.7138
  0
LINE
  8
0
 10
14.1578
 20
61.7138
 11
15.3354
 21
63.5693
  0
LINE
  8
0
 10
15.3354
 20
63.5693
 11
16.2711
 21
65.5578
  0
LINE
  8
0
 10
16.2711
 20
65.5578
 11
16.9502
 21
67.6479
  0
LINE
  8
0
 10
16.9502
 20
67.6479
 11
17.362
 21
69.8067
  0
LINE
  8
0
 10
17.362
 20
69.8067
 11
17.5
 21
72
  0
LINE
  8
0
 10
17.5
 20
72
 11
17.362
 21
74.1933
  0
LINE
  8
0
 10
17.362
 20
74.1933
 11
16.9502
 21
76.3521
  0
LINE
  8
0
 10
16.9502
 20
76.3521
 11
16.2711
 21
78.4422
  0
LINE
  8
0
 10
16.2711
 20
78.4422
 11
15.3354
 21
80.4307
  0
LINE
  8
0
 10
15.3354
 20
80.4307
 11
14.1578
 21
82.2862
  0
LINE
  8
0
 10
14.1578
 20
82.2862
 11
12.7569
 21
83.9796
  0
LINE
  8
0
 10
12.7569
 20
83.9796
 11
12.7352
 21
84
  0
LINE
  8
0
 10
12.7352
 20
84
 11
12.7569
 21
84.0204
  0
LINE
  8
0
 10
12.7569
 20
84.0204
 11
14.1578
 21
85.7138
  0
LINE
  8
0
 10
14.1578
 20
85.7138
 11
15.3354
 21
87.5693
  0
LINE
  8
0
 10
15.3354
 20
87.5693
 11
16.2711
 21
89.5578
  0
LINE
  8
0
 10
16.2711
 20
89.5578
 11
16.9502
 21
91.6479
  0
LINE
  8
0
 10
16.9502
 20
91.6479
 11
17.362
 21
93.8067
  0
LINE
  8
0
 10
17.362
 20
93.8067
 11
17.5
 21
96
  0
LINE
  8
0
 10
17.5
 20
96
 11
17.362
 21
98.1933
  0
LINE
  8
0
 10
17.362
 20
98.1933
 11
16.9502
 21
100.352
  0
LINE
  8
0
 10
16.9502
 20
100.352
 11
16.2711
 21
102.442
  0
LINE
  8
0
 10
16.2711
 20
102.442
 11
15.3354
 21
104.431
  0
LINE
  8
0
 10
15.3354
 20
104.431
 11
14.1578
 21
106.286
  0
LINE
  8
0
 10
14.1578
 20
106.286
 11
12.7569
 21
107.98
  0
LINE
  8
0
 10
12.7569
 20
107.98
 11
11.1549
 21
109.484
  0
LINE
  8
0
 10
11.1549
 20
109.484
 11
9.37697
 21
110.776
  0
LINE
  8
0
 10
9.37697
 20
110.776
 11
7.45113
 21
111.834
  0
LINE
  8
0
 10
7.45113
 20
111.834
 11
5.40779
 21
112.643
  0
LINE
  8
0
 10
5.40779
 20
112.643
 11
3.27916
 21
113.19
  0
LINE
  8
0
 10
3.27916
 20
113.19
 11
1.09883
 21
113.465
  0
LINE
  8
0
 10
1.09883
 20
113.465
 11
-1.09883
 21
113.465
  0
LINE
  8
0
 10
-1.09883
 20
113.465
 11
-3.27916
 21
113.19
  0
LINE
  8
0
 10
-3.27916
 20
113.19
 11
-5.40779
 21
112.643
  0
LINE
  8
0
 10
-5.40779
 20
112.643
 11
-7.45113
 21
111.834
  0
LINE
  8
0
 10
-7.45113
 20
111.834
 11
-9.37697
 21
110.776
  0
LINE
  8
0
 10
-9.37697
 20
110.776
 11
-11.1549
 21
109.484
  0
LINE
  8
0
 10
-11.1549
 20
109.484
 11
-12.7569
 21
107.98
  0
LINE
  8
0
 10
-12.7569
 20
107.98
 11
-14.1578
 21
106.286
  0
LINE
  8
0
 10
-14.1578
 20
106.286
 11
-15.3354
 21
104.431
  0
LINE
  8
0
 10
-15.3354
 20
104.431
 11
-16.2711
 21
102.442
  0
LINE
  8
0
 10
-16.2711
 20
102.442
 11
-16.9502
 21
100.352
  0
LINE
  8
0
 10
-16.9502
 20
100.352
 11
-17.362
 21
98.1933
  0
LINE
  8
0
 10
-17.362
 20
98.1933
 11
-17.5
 21
96
  0
LINE
  8
0
 10
-17.5
 20
96
 11
-17.362
 21
93.8067
  0
LINE
  8
0
 10
-17.362
 20
93.8067
 11
-16.9502
 21
91.6479
  0
LINE
  8
0
 10
-16.9502
 20
91.6479
 11
-16.2711
 21
89.5578
  0
LINE
  8
0
 10
-16.2711
 20
89.5578
 11
-15.3354
 21
87.5693
  0
LINE
  8
0
 10
-15.3354
 20
87.5693
 11
-14.1578
 21
85.7138
  0
LINE
  8
0
 10
-14.1578
 20
85.7138
 11
-12.7569
 21
84.0204
  0
LINE
  8
0
 10
-12.7569
 20
84.0204
 11
-12.7352
 21
84
  0
LINE
  8
0
 10
-12.7352
 20
84
 11
-12.7569
 21
83.9796
  0
LINE
  8
0
 10
-12.7569
 20
83.9796
 11
-14.1578
 21
82.2862
  0
LINE
  8
0
 10
-14.1578
 20
82.2862
 11
-15.3354
 21
80.4307
  0
LINE
  8
0
 10
-15.3354
 20
80.4307
 11
-16.2711
 21
78.4422
  0
LINE
  8
0
 10
-16.2711
 20
78.4422
 11
-16.9502
 21
76.3521
  0
LINE
  8
0
 10
-16.9502
 20
76.3521
 11
-17.362
 21
74.1933
  0
LINE
  8
0
 10
-17.362
 20
74.1933
 11
-17.5
 21
72
  0
LINE
  8
0
 10
-17.5
 20
72
 11
-17.362
 21
69.8067
  0
LINE
  8
0
 10
-17.362
 20
69.8067
 11
-16.9502
 21
67.6479
  0
LINE
  8
0
 10
-16.9502
 20
67.6479
 11
-16.2711
 21
65.5578
  0
LINE
  8
0
 10
-16.2711
 20
65.5578
 11
-15.3354
 21
63.5693
  0
LINE
  8
0
 10
-15.3354
 20
63.5693
 11
-14.1578
 21
61.7138
  0
LINE
  8
0
 10
-14.1578
 20
61.7138
 11
-12.7569
 21
60.0204
  0
LINE
  8
0
 10
-12.7569
 20
60.0204
 11
-11.1549
 21
58.516
  0
LINE
  8
0
 10
-11.1549
 20
58.516
 11
-9.37697
 21
57.2243
  0
LINE
  8
0
 10
-9.37697
 20
57.2243
 11
-7.45113
 21
56.1655
  0
LINE
  8
0
 10
-7.45113
 20
56.1655
 11
-6.34392
 21
55.7272
  0
LINE
  8
0
 10
-6.34392
 20
55.7272
 11
-6.37424
 21
55.7051
  0
LINE
  8
0
 10
-6.37424
 20
55.7051
 11
-7.28967
 21
54.8455
  0
LINE
  8
0
 10
-7.28967
 20
54.8455
 11
-8.09016
 21
53.8778
  0
LINE
  8
0
 10
-8.09016
 20
53.8778
 11
-8.76306
 21
52.8175
  0
LINE
  8
0
 10
-8.76306
 20
52.8175
 11
-9.29776
 21
51.6812
  0
LINE
  8
0
 10
-9.29776
 20
51.6812
 11
-9.68582
 21
50.4869
  0
LINE
  8
0
 10
-9.68582
 20
50.4869
 11
-9.92114
 21
49.2533
  0
LINE
  8
0
 10
-9.92114
 20
49.2533
 11
-10
 21
48
  0
LINE
  8
0
 10
-10
 20
48
 11
-9.92114
 21
46.7467
  0
LINE
  8
0
 10
-9.92114
 20
46.7467
 11
-9.68582
 21
45.5131
  0
LINE
  8
0
 10
-9.68582
 20
45.5131
 11
-9.29776
 21
44.3188
  0
LINE
  8
0
 10
-9.29776
 20
44.3188
 11
-8.76306
 21
43.1825
  0
LINE
  8
0
 10
-8.76306
 20
43.1825
 11
-8.09016
 21
42.1222
  0
LINE
  8
0
 10
-8.09016
 20
42.1222
 11
-7.28967
 21
41.1545
  0
LINE
  8
0
 10
-7.28967
 20
41.1545
 11
-6.37424
 21
40.2949
  0
LINE
  8
0
 10
-6.37424
 20
40.2949
 11
-5.35826
 21
39.5567
  0
LINE
  8
0
 10
-5.35826
 20
39.5567
 11
-4.25778
 21
38.9517
  0
LINE
  8
0
 10
-4.25778
 20
38.9517
 11
-3.09016
 21
38.4894
  0
LINE
  8
0
 10
-3.09016
 20
38.4894
 11
-1.87381
 21
38.1771
  0
LINE
  8
0
 10
-1.87381
 20
38.1771
 11
-0.627899
 21
38.0197
  0
LINE
  8
0
 10
-0.627899
 20
38.0197
 11
0.627899
 21
38.0197
  0
LINE
  8
0
 10
0.627899
 20
38.0197
 11
1.87381
 21
38.1771
  0
LINE
  8
0
 10
-3.24911
 20
97.2364
 11
-3.74344
 21
97.2989
  0
LINE
  8
0
 10
-3.74344
 20
97.2989
 11
-4.22604
 21
97.4228
  0
LINE
  8
0
 10
-4.22604
 20
97.4228
 11
-4.6893
 21
97.6062
  0
LINE
  8
0
 10
-4.6893
 20
97.6062
 11
-5.12592
 21
97.8462
  0
LINE
  8
0
 10
-5.12592
 20
97.8462
 11
-5.52902
 21
98.1391
  0
LINE
  8
0
 10
-5.52902
 20
98.1391
 11
-5.89223
 21
98.4802
  0
LINE
  8
0
 10
-5.89223
 20
98.4802
 11
-6.20982
 21
98.8641
  0
LINE
  8
0
 10
-6.20982
 20
98.8641
 11
-6.47679
 21
99.2848
  0
LINE
  8
0
 10
-6.47679
 20
99.2848
 11
-6.68895
 21
99.7356
  0
LINE
  8
0
 10
-6.68895
 20
99.7356
 11
-6.84291
 21
100.209
  0
LINE
  8
0
 10
-6.84291
 20
100.209
 11
-6.93628
 21
100.699
  0
LINE
  8
0
 10
-6.93628
 20
100.699
 11
-6.96756
 21
101.196
  0
LINE
  8
0
 10
-6.96756
 20
101.196
 11
-6.93628
 21
101.693
  0
LINE
  8
0
 10
-6.93628
 20
101.693
 11
-6.84291
 21
102.183
  0
LINE
  8
0
 10
-6.84291
 20
102.183
 11
-6.68895
 21
102.657
  0
LINE
  8
0
 10
-6.68895
 20
102.657
 11
-6.47679
 21
103.108
  0
LINE
  8
0
 10
-6.47679
 20
103.108
 11
-6.20982
 21
103.528
  0
LINE
  8
0
 10
-6.20982
 20
103.528
 11
-5.89223
 21
103.912
  0
LINE
  8
0
 10
-5.89223
 20
103.912
 11
-5.52902
 21
104.253
  0
LINE
  8
0
 10
-5.52902
 20
104.253
 11
-5.12592
 21
104.546
  0
LINE
  8
0
 10
-5.12592
 20
104.546
 11
-4.6893
 21
104.786
  0
LINE
  8
0
 10
-4.6893
 20
104.786
 11
-4.22604
 21
104.97
  0
LINE
  8
0
 10
-4.22604
 20
104.97
 11
-3.74344
 21
105.093
  0
LINE
  8
0
 10
-3.74344
 20
105.093
 11
-3.24911
 21
105.156
  0
LINE
  8
0
 10
-3.24911
 20
105.156
 11
-2.75087
 21
105.156
  0
LINE
  8
0
 10
-2.75087
 20
105.156
 11
-2.25655
 21
105.093
  0
LINE
  8
0
 10
-2.25655
 20
105.093
 11
-1.77394
 21
104.97
  0
LINE
  8
0
 10
-1.77394
 20
104.97
 11
-1.31068
 21
104.786
  0
LINE
  8
0
 10
-1.31068
 20
104.786
 11
-0.874069
 21
104.546
  0
LINE
  8
0
 10
-0.874069
 20
104.546
 11
-0.470978
 21
104.253
  0
LINE
  8
0
 10
-0.470978
 20
104.253
 11
-0.107758
 21
103.912
  0
LINE
  8
0
 10
-0.107758
 20
103.912
 11
0.209824
 21
103.528
  0
LINE
  8
0
 10
0.209824
 20
103.528
 11
0.476791
 21
103.108
  0
LINE
  8
0
 10
0.476791
 20
103.108
 11
0.68895
 21
102.657
  0
LINE
  8
0
 10
0.68895
 20
102.657
 11
0.842911
 21
102.183
  0
LINE
  8
0
 10
0.842911
 20
102.183
 11
0.936279
 21
101.693
  0
LINE
  8
0
 10
0.936279
 20
101.693
 11
0.96756
 21
101.196
  0
LINE
  8
0
 10
0.96756
 20
101.196
 11
0.936279
 21
100.699
  0
LINE
  8
0
 10
0.936279
 20
100.699
 11
0.842911
 21
100.209
  0
LINE
  8
0
 10
0.842911
 20
100.209
 11
0.68895
 21
99.7356
  0
LINE
  8
0
 10
0.68895
 20
99.7356
 11
0.476791
 21
99.2848
  0
LINE
  8
0
 10
0.476791
 20
99.2848
 11
0.209824
 21
98.8641
  0
LINE
  8
0
 10
0.209824
 20
98.8641
 11
-0.107758
 21
98.4802
  0
LINE
  8
0
 10
-0.107758
 20
98.4802
 11
-0.470978
 21
98.1391
  0
LINE
  8
0
 10
-0.470978
 20
98.1391
 11
-0.874069
 21
97.8462
  0
LINE
  8
0
 10
-0.874069
 20
97.8462
 11
-1.31068
 21
97.6062
  0
LINE
  8
0
 10
-1.31068
 20
97.6062
 11
-1.77394
 21
97.4228
  0
LINE
  8
0
 10
-1.77394
 20
97.4228
 11
-2.25655
 21
97.2989
  0
LINE
  8
0
 10
-2.25655
 20
97.2989
 11
-2.75087
 21
97.2364
  0
LINE
  8
0
 10
-2.75087
 20
97.2364
 11
-3.24911
 21
97.2364
  0
LINE
  8
0
 10
5.75087
 20
92.0403
 11
5.25655
 21
92.1027
  0
LINE
  8
0
 10
5.25655
 20
92.1027
 11
4.77394
 21
92.2266
  0
LINE
  8
0
 10
4.77394
 20
92.2266
 11
4.31068
 21
92.41
  0
LINE
  8
0
 10
4.31068
 20
92.41
 11
3.87407
 21
92.6501
  0
LINE
  8
0
 10
3.87407
 20
92.6501
 11
3.47098
 21
92.9429
  0
LINE
  8
0
 10
3.47098
 20
92.9429
 11
3.10776
 21
93.284
  0
LINE
  8
0
 10
3.10776
 20
93.284
 11
2.79016
 21
93.6679
  0
LINE
  8
0
 10
2.79016
 20
93.6679
 11
2.52319
 21
94.0886
  0
LINE
  8
0
 10
2.52319
 20
94.0886
 11
2.31104
 21
94.5394
  0
LINE
  8
0
 10
2.31104
 20
94.5394
 11
2.15707
 21
95.0133
  0
LINE
  8
0
 10
2.15707
 20
95.0133
 11
2.06371
 21
95.5027
  0
LINE
  8
0
 10
2.06371
 20
95.5027
 11
2.03242
 21
96
  0
LINE
  8
0
 10
2.03242
 20
96
 11
2.06371
 21
96.4973
  0
LINE
  8
0
 10
2.06371
 20
96.4973
 11
2.15707
 21
96.9867
  0
LINE
  8
0
 10
2.15707
 20
96.9867
 11
2.31104
 21
97.4606
  0
LINE
  8
0
 10
2.31104
 20
97.4606
 11
2.52319
 21
97.9114
  0
LINE
  8
0
 10
2.52319
 20
97.9114
 11
2.79016
 21
98.3321
  0
LINE
  8
0
 10
2.79016
 20
98.3321
 11
3.10776
 21
98.716
  0
LINE
  8
0
 10
3.10776
 20
98.716
 11
3.47098
 21
99.0571
  0
LINE
  8
0
 10
3.47098
 20
99.0571
 11
3.87407
 21
99.3499
  0
LINE
  8
0
 10
3.87407
 20
99.3499
 11
4.31068
 21
99.59
  0
LINE
  8
0
 10
4.31068
 20
99.59
 11
4.77394
 21
99.7734
  0
LINE
  8
0
 10
4.77394
 20
99.7734
 11
5.25655
 21
99.8973
  0
LINE
  8
0
 10
5.25655
 20
99.8973
 11
5.75087
 21
99.9597
  0
LINE
  8
0
 10
5.75087
 20
99.9597
 11
6.24911
 21
99.9597
  0
LINE
  8
0
 10
6.24911
 20
99.9597
 11
6.74344
 21
99.8973
  0
LINE
  8
0
 10
6.74344
 20
99.8973
 11
7.22604
 21
99.7734
  0
LINE
  8
0
 10
7.22604
 20
99.7734
 11
7.6893
 21
99.59
  0
LINE
  8
0
 10
7.6893
 20
99.59
 11
8.12592
 21
99.3499
  0
LINE
  8
0
 10
8.12592
 20
99.3499
 11
8.52902
 21
99.0571
  0
LINE
  8
0
 10
8.52902
 20
99.0571
 11
8.89223
 21
98.716
  0
LINE
  8
0
 10
8.89223
 20
98.716
 11
9.20982
 21
98.3321
  0
LINE
  8
0
 10
9.20982
 20
98.3321
 11
9.47679
 21
97.9114
  0
LINE
  8
0
 10
9.47679
 20
97.9114
 11
9.68895
 21
97.4606
  0
LINE
  8
0
 10
9.68895
 20
97.4606
 11
9.84291
 21
96.9867
  0
LINE
  8
0
 10
9.84291
 20
96.9867
 11
9.93628
 21
96.4973
  0
LINE
  8
0
 10
9.93628
 20
96.4973
 11
9.96756
 21
96
  0
LINE
  8
0
 10
9.96756
 20
96
 11
9.93628
 21
95.5027
  0
LINE
  8
0
 10
9.93628
 20
95.5027
 11
9.84291
 21
95.0133
  0
LINE
  8
0
 10
9.84291
 20
95.0133
 11
9.68895
 21
94.5394
  0
LINE
  8
0
 10
9.68895
 20
94.5394
 11
9.47679
 21
94.0886
  0
LINE
  8
0
 10
9.47679
 20
94.0886
 11
9.20982
 21
93.6679
  0
LINE
  8
0
 10
9.20982
 20
93.6679
 11
8.89223
 21
93.284
  0
LINE
  8
0
 10
8.89223
 20
93.284
 11
8.52902
 21
92.9429
  0
LINE
  8
0
 10
8.52902
 20
92.9429
 11
8.12592
 21
92.6501
  0
LINE
  8
0
 10
8.12592
 20
92.6501
 11
7.6893
 21
92.41
  0
LINE
  8
0
 10
7.6893
 20
92.41
 11
7.22604
 21
92.2266
  0
LINE
  8
0
 10
7.22604
 20
92.2266
 11
6.74344
 21
92.1027
  0
LINE
  8
0
 10
6.74344
 20
92.1027
 11
6.24911
 21
92.0403
  0
LINE
  8
0
 10
6.24911
 20
92.0403
 11
5.75087
 21
92.0403
  0
LINE
  8
0
 10
-6.20982
 20
88.4718
 11
-6.47679
 21
88.8925
  0
LINE
  8
0
 10
-6.47679
 20
88.8925
 11
-6.68895
 21
89.3433
  0
LINE
  8
0
 10
-6.68895
 20
89.3433
 11
-6.84291
 21
89.8172
  0
LINE
  8
0
 10
-6.84291
 20
89.8172
 11
-6.93628
 21
90.3066
  0
LINE
  8
0
 10
-6.93628
 20
90.3066
 11
-6.96756
 21
90.8038
  0
LINE
  8
0
 10
-6.96756
 20
90.8038
 11
-6.93628
 21
91.3011
  0
LINE
  8
0
 10
-6.93628
 20
91.3011
 11
-6.84291
 21
91.7905
  0
LINE
  8
0
 10
-6.84291
 20
91.7905
 11
-6.68895
 21
92.2644
  0
LINE
  8
0
 10
-6.68895
 20
92.2644
 11
-6.47679
 21
92.7152
  0
LINE
  8
0
 10
-6.47679
 20
92.7152
 11
-6.20982
 21
93.1359
  0
LINE
  8
0
 10
-6.20982
 20
93.1359
 11
-5.89223
 21
93.5198
  0
LINE
  8
0
 10
-5.89223
 20
93.5198
 11
-5.52902
 21
93.8609
  0
LINE
  8
0
 10
-5.52902
 20
93.8609
 11
-5.12592
 21
94.1538
  0
LINE
  8
0
 10
-5.12592
 20
94.1538
 11
-4.6893
 21
94.3938
  0
LINE
  8
0
 10
-4.6893
 20
94.3938
 11
-4.22604
 21
94.5772
  0
LINE
  8
0
 10
-4.22604
 20
94.5772
 11
-3.74344
 21
94.7011
  0
LINE
  8
0
 10
-3.74344
 20
94.7011
 11
-3.24911
 21
94.7636
  0
LINE
  8
0
 10
-3.24911
 20
94.7636
 11
-2.75087
 21
94.7636
  0
LINE
  8
0
 10
-2.75087
 20
94.7636
 11
-2.25655
 21
94.7011
  0
LINE
  8
0
 10
-2.25655
 20
94.7011
 11
-1.77394
 21
94.5772
  0
LINE
  8
0
 10
-1.77394
 20
94.5772
 11
-1.31068
 21
94.3938
  0
LINE
  8
0
 10
-1.31068
 20
94.3938
 11
-0.874069
 21
94.1538
  0
LINE
  8
0
 10
-0.874069
 20
94.1538
 11
-0.470978
 21
93.8609
  0
LINE
  8
0
 10
-0.470978
 20
93.8609
 11
-0.107758
 21
93.5198
  0
LINE
  8
0
 10
-0.107758
 20
93.5198
 11
0.209824
 21
93.1359
  0
LINE
  8
0
 10
0.209824
 20
93.1359
 11
0.476791
 21
92.7152
  0
LINE
  8
0
 10
0.476791
 20
92.7152
 11
0.68895
 21
92.2644
  0
LINE
  8
0
 10
0.68895
 20
92.2644
 11
0.842911
 21
91.7905
  0
LINE
  8
0
 10
0.842911
 20
91.7905
 11
0.936279
 21
91.3011
  0
LINE
  8
0
 10
0.936279
 20
91.3011
 11
0.96756
 21
90.8038
  0
LINE
  8
0
 10
0.96756
 20
90.8038
 11
0.936279
 21
90.3066
  0
LINE
  8
0
 10
0.936279
 20
90.3066
 11
0.842911
 21
89.8172
  0
LINE
  8
0
 10
0.842911
 20
89.8172
 11
0.728638
 21
89.4655
  0
LINE
  8
0
 10
0.728638
 20
89.4655
 11
-1.09883
 21
89.4655
  0
LINE
  8
0
 10
-1.09883
 20
89.4655
 11
-3.27916
 21
89.19
  0
LINE
  8
0
 10
-3.27916
 20
89.19
 11
-5.40779
 21
88.6435
  0
LINE
  8
0
 10
-5.40779
 20
88.6435
 11
-6.11894
 21
88.3619
  0
LINE
  8
0
 10
-6.11894
 20
88.3619
 11
-6.20982
 21
88.4718
  0
LINE
  8
0
 10
-3.18051
 20
74.3268
 11
-3.53871
 21
74.3721
  0
LINE
  8
0
 10
-3.53871
 20
74.3721
 11
-3.88841
 21
74.4619
  0
LINE
  8
0
 10
-3.88841
 20
74.4619
 11
-4.22411
 21
74.5948
  0
LINE
  8
0
 10
-4.22411
 20
74.5948
 11
-4.5405
 21
74.7687
  0
LINE
  8
0
 10
-4.5405
 20
74.7687
 11
-4.83258
 21
74.9809
  0
LINE
  8
0
 10
-4.83258
 20
74.9809
 11
-5.09578
 21
75.2281
  0
LINE
  8
0
 10
-5.09578
 20
75.2281
 11
-5.32591
 21
75.5063
  0
LINE
  8
0
 10
-5.32591
 20
75.5063
 11
-5.51938
 21
75.8111
  0
LINE
  8
0
 10
-5.51938
 20
75.8111
 11
-5.6731
 21
76.1378
  0
LINE
  8
0
 10
-5.6731
 20
76.1378
 11
-5.78467
 21
76.4812
  0
LINE
  8
0
 10
-5.78467
 20
76.4812
 11
-5.85233
 21
76.8358
  0
LINE
  8
0
 10
-5.85233
 20
76.8358
 11
-5.875
 21
77.1962
  0
LINE
  8
0
 10
-5.875
 20
77.1962
 11
-5.85233
 21
77.5565
  0
LINE
  8
0
 10
-5.85233
 20
77.5565
 11
-5.78467
 21
77.9111
  0
LINE
  8
0
 10
-5.78467
 20
77.9111
 11
-5.6731
 21
78.2545
  0
LINE
  8
0
 10
-5.6731
 20
78.2545
 11
-5.51938
 21
78.5812
  0
LINE
  8
0
 10
-5.51938
 20
78.5812
 11
-5.32591
 21
78.886
  0
LINE
  8
0
 10
-5.32591
 20
78.886
 11
-5.09578
 21
79.1642
  0
LINE
  8
0
 10
-5.09578
 20
79.1642
 11
-5.00195
 21
79.2523
  0
LINE
  8
0
 10
-5.00195
 20
79.2523
 11
-3.27916
 21
78.81
  0
LINE
  8
0
 10
-3.27916
 20
78.81
 11
-1.09883
 21
78.5345
  0
LINE
  8
0
 10
-1.09883
 20
78.5345
 11
-0.458664
 21
78.5345
  0
LINE
  8
0
 10
-0.458664
 20
78.5345
 11
-0.326889
 21
78.2545
  0
LINE
  8
0
 10
-0.326889
 20
78.2545
 11
-0.215317
 21
77.9111
  0
LINE
  8
0
 10
-0.215317
 20
77.9111
 11
-0.147659
 21
77.5565
  0
LINE
  8
0
 10
-0.147659
 20
77.5565
 11
-0.125
 21
77.1962
  0
LINE
  8
0
 10
-0.125
 20
77.1962
 11
-0.147659
 21
76.8358
  0
LINE
  8
0
 10
-0.147659
 20
76.8358
 11
-0.215317
 21
76.4812
  0
LINE
  8
0
 10
-0.215317
 20
76.4812
 11
-0.326889
 21
76.1378
  0
LINE
  8
0
 10
-0.326889
 20
76.1378
 11
-0.480606
 21
75.8111
  0
LINE
  8
0
 10
-0.480606
 20
75.8111
 11
-0.674072
 21
75.5063
  0
LINE
  8
0
 10
-0.674072
 20
75.5063
 11
-0.904205
 21
75.2281
  0
LINE
  8
0
 10
-0.904205
 20
75.2281
 11
-1.1674
 21
74.9809
  0
LINE
  8
0
 10
-1.1674
 20
74.9809
 11
-1.45949
 21
74.7687
  0
LINE
  8
0
 10
-1.45949
 20
74.7687
 11
-1.77588
 21
74.5948
  0
LINE
  8
0
 10
-1.77588
 20
74.5948
 11
-2.11157
 21
74.4619
  0
LINE
  8
0
 10
-2.11157
 20
74.4619
 11
-2.46127
 21
74.3721
  0
LINE
  8
0
 10
-2.46127
 20
74.3721
 11
-2.81947
 21
74.3268
  0
LINE
  8
0
 10
-2.81947
 20
74.3268
 11
-3.18051
 21
74.3268
  0
LINE
  8
0
 10
5.81947
 20
69.1307
 11
5.46127
 21
69.1759
  0
LINE
  8
0
 10
5.46127
 20
69.1759
 11
5.11157
 21
69.2657
  0
LINE
  8
0
 10
5.11157
 20
69.2657
 11
4.77588
 21
69.3986
  0
LINE
  8
0
 10
4.77588
 20
69.3986
 11
4.45949
 21
69.5726
  0
LINE
  8
0
 10
4.45949
 20
69.5726
 11
4.1674
 21
69.7848
  0
LINE
  8
0
 10
4.1674
 20
69.7848
 11
3.90421
 21
70.0319
  0
LINE
  8
0
 10
3.90421
 20
70.0319
 11
3.67407
 21
70.3101
  0
LINE
  8
0
 10
3.67407
 20
70.3101
 11
3.48061
 21
70.615
  0
LINE
  8
0
 10
3.48061
 20
70.615
 11
3.32689
 21
70.9417
  0
LINE
  8
0
 10
3.32689
 20
70.9417
 11
3.21532
 21
71.285
  0
LINE
  8
0
 10
3.21532
 20
71.285
 11
3.14766
 21
71.6397
  0
LINE
  8
0
 10
3.14766
 20
71.6397
 11
3.125
 21
72
  0
LINE
  8
0
 10
3.125
 20
72
 11
3.14766
 21
72.3603
  0
LINE
  8
0
 10
3.14766
 20
72.3603
 11
3.21532
 21
72.715
  0
LINE
  8
0
 10
3.21532
 20
72.715
 11
3.32689
 21
73.0583
  0
LINE
  8
0
 10
3.32689
 20
73.0583
 11
3.48061
 21
73.385
  0
LINE
  8
0
 10
3.48061
 20
73.385
 11
3.67407
 21
73.6899
  0
LINE
  8
0
 10
3.67407
 20
73.6899
 11
3.90421
 21
73.9681
  0
LINE
  8
0
 10
3.90421
 20
73.9681
 11
4.1674
 21
74.2152
  0
LINE
  8
0
 10
4.1674
 20
74.2152
 11
4.45949
 21
74.4274
  0
LINE
  8
0
 10
4.45949
 20
74.4274
 11
4.77588
 21
74.6014
  0
LINE
  8
0
 10
4.77588
 20
74.6014
 11
5.11157
 21
74.7343
  0
LINE
  8
0
 10
5.11157
 20
74.7343
 11
5.46127
 21
74.8241
  0
LINE
  8
0
 10
5.46127
 20
74.8241
 11
5.81947
 21
74.8693
  0
LINE
  8
0
 10
5.81947
 20
74.8693
 11
6.18051
 21
74.8693
  0
LINE
  8
0
 10
6.18051
 20
74.8693
 11
6.53871
 21
74.8241
  0
LINE
  8
0
 10
6.53871
 20
74.8241
 11
6.88841
 21
74.7343
  0
LINE
  8
0
 10
6.88841
 20
74.7343
 11
7.22411
 21
74.6014
  0
LINE
  8
0
 10
7.22411
 20
74.6014
 11
7.5405
 21
74.4274
  0
LINE
  8
0
 10
7.5405
 20
74.4274
 11
7.83258
 21
74.2152
  0
LINE
  8
0
 10
7.83258
 20
74.2152
 11
8.09578
 21
73.9681
  0
LINE
  8
0
 10
8.09578
 20
73.9681
 11
8.32591
 21
73.6899
  0
LINE
  8
0
 10
8.32591
 20
73.6899
 11
8.51938
 21
73.385
  0
LINE
  8
0
 10
8.51938
 20
73.385
 11
8.6731
 21
73.0583
  0
LINE
  8
0
 10
8.6731
 20
73.0583
 11
8.78467
 21
72.715
  0
LINE
  8
0
 10
8.78467
 20
72.715
 11
8.85233
 21
72.3603
  0
LINE
  8
0
 10
8.85233
 20
72.3603
 11
8.875
 21
72
  0
LINE
  8
0
 10
8.875
 20
72
 11
8.85233
 21
71.6397
  0
LINE
  8
0
 10
8.85233
 20
71.6397
 11
8.78467
 21
71.285
  0
LINE
  8
0
 10
8.78467
 20
71.285
 11
8.6731
 21
70.9417
  0
LINE
  8
0
 10
8.6731
 20
70.9417
 11
8.51938
 21
70.615
  0
LINE
  8
0
 10
8.51938
 20
70.615
 11
8.32591
 21
70.3101
  0
LINE
  8
0
 10
8.32591
 20
70.3101
 11
8.09578
 21
70.0319
  0
LINE
  8
0
 10
8.09578
 20
70.0319
 11
7.83258
 21
69.7848
  0
LINE
  8
0
 10
7.83258
 20
69.7848
 11
7.5405
 21
69.5726
  0
LINE
  8
0
 10
7.5405
 20
69.5726
 11
7.22411
 21
69.3986
  0
LINE
  8
0
 10
7.22411
 20
69.3986
 11
6.88841
 21
69.2657
  0
LINE
  8
0
 10
6.88841
 20
69.2657
 11
6.53871
 21
69.1759
  0
LINE
  8
0
 10
6.53871
 20
69.1759
 11
6.18051
 21
69.1307
  0
LINE
  8
0
 10
6.18051
 20
69.1307
 11
5.81947
 21
69.1307
  0
LINE
  8
0
 10
-3.18051
 20
63.9345
 11
-3.53871
 21
63.9798
  0
LINE
  8
0
 10
-3.53871
 20
63.9798
 11
-3.88841
 21
64.0696
  0
LINE
  8
0
 10
-3.88841
 20
64.0696
 11
-4.22411
 21
64.2025
  0
LINE
  8
0
 10
-4.22411
 20
64.2025
 11
-4.5405
 21
64.3764
  0
LINE
  8
0
 10
-4.5405
 20
64.3764
 11
-4.83258
 21
64.5886
  0
LINE
  8
0
 10
-4.83258
 20
64.5886
 11
-5.09578
 21
64.8358
  0
LINE
  8
0
 10
-5.09578
 20
64.8358
 11
-5.32591
 21
65.114
  0
LINE
  8
0
 10
-5.32591
 20
65.114
 11
-5.51938
 21
65.4188
  0
LINE
  8
0
 10
-5.51938
 20
65.4188
 11
-5.6731
 21
65.7455
  0
LINE
  8
0
 10
-5.6731
 20
65.7455
 11
-5.78467
 21
66.0889
  0
LINE
  8
0
 10
-5.78467
 20
66.0889
 11
-5.85233
 21
66.4435
  0
LINE
  8
0
 10
-5.85233
 20
66.4435
 11
-5.875
 21
66.8038
  0
LINE
  8
0
 10
-5.875
 20
66.8038
 11
-5.85233
 21
67.1642
  0
LINE
  8
0
 10
-5.85233
 20
67.1642
 11
-5.78467
 21
67.5188
  0
LINE
  8
0
 10
-5.78467
 20
67.5188
 11
-5.6731
 21
67.8622
  0
LINE
  8
0
 10
-5.6731
 20
67.8622
 11
-5.51938
 21
68.1889
  0
LINE
  8
0
 10
-5.51938
 20
68.1889
 11
-5.32591
 21
68.4937
  0
LINE
  8
0
 10
-5.32591
 20
68.4937
 11
-5.09578
 21
68.7719
  0
LINE
  8
0
 10
-5.09578
 20
68.7719
 11
-4.83258
 21
69.0191
  0
LINE
  8
0
 10
-4.83258
 20
69.0191
 11
-4.5405
 21
69.2313
  0
LINE
  8
0
 10
-4.5405
 20
69.2313
 11
-4.22411
 21
69.4052
  0
LINE
  8
0
 10
-4.22411
 20
69.4052
 11
-3.88841
 21
69.5381
  0
LINE
  8
0
 10
-3.88841
 20
69.5381
 11
-3.53871
 21
69.6279
  0
LINE
  8
0
 10
-3.53871
 20
69.6279
 11
-3.18051
 21
69.6732
  0
LINE
  8
0
 10
-3.18051
 20
69.6732
 11
-2.81947
 21
69.6732
  0
LINE
  8
0
 10
-2.81947
 20
69.6732
 11
-2.46127
 21
69.6279
  0
LINE
  8
0
 10
-2.46127
 20
69.6279
 11
-2.11157
 21
69.5381
  0
LINE
  8
0
 10
-2.11157
 20
69.5381
 11
-1.77588
 21
69.4052
  0
LINE
  8
0
 10
-1.77588
 20
69.4052
 11
-1.45949
 21
69.2313
  0
LINE
  8
0
 10
-1.45949
 20
69.2313
 11
-1.1674
 21
69.0191
  0
LINE
  8
0
 10
-1.1674
 20
69.0191
 11
-0.904205
 21
68.7719
  0
LINE
  8
0
 10
-0.904205
 20
68.7719
 11
-0.674072
 21
68.4937
  0
LINE
  8
0
 10
-0.674072
 20
68.4937
 11
-0.480606
 21
68.1889
  0
LINE
  8
0
 10
-0.480606
 20
68.1889
 11
-0.326889
 21
67.8622
  0
LINE
  8
0
 10
-0.326889
 20
67.8622
 11
-0.215317
 21
67.5188
  0
LINE
  8
0
 10
-0.215317
 20
67.5188
 11
-0.147659
 21
67.1642
  0
LINE
  8
0
 10
-0.147659
 20
67.1642
 11
-0.125
 21
66.8038
  0
LINE
  8
0
 10
-0.125
 20
66.8038
 11
-0.147659
 21
66.4435
  0
LINE
  8
0
 10
-0.147659
 20
66.4435
 11
-0.215317
 21
66.0889
  0
LINE
  8
0
 10
-0.215317
 20
66.0889
 11
-0.326889
 21
65.7455
  0
LINE
  8
0
 10
-0.326889
 20
65.7455
 11
-0.480606
 21
65.4188
  0
LINE
  8
0
 10
-0.480606
 20
65.4188
 11
-0.674072
 21
65.114
  0
LINE
  8
0
 10
-0.674072
 20
65.114
 11
-0.904205
 21
64.8358
  0
LINE
  8
0
 10
-0.904205
 20
64.8358
 11
-1.1674
 21
64.5886
  0
LINE
  8
0
 10
-1.1674
 20
64.5886
 11
-1.45949
 21
64.3764
  0
LINE
  8
0
 10
-1.45949
 20
64.3764
 11
-1.77588
 21
64.2025
  0
LINE
  8
0
 10
-1.77588
 20
64.2025
 11
-2.11157
 21
64.0696
  0
LINE
  8
0
 10
-2.11157
 20
64.0696
 11
-2.46127
 21
63.9798
  0
LINE
  8
0
 10
-2.46127
 20
63.9798
 11
-2.81947
 21
63.9345
  0
LINE
  8
0
 10
-2.81947
 20
63.9345
 11
-3.18051
 21
63.9345
  0
LINE
  8
0
 10
-3.18051
 20
50.3268
 11
-3.53871
 21
50.3721
  0
LINE
  8
0
 10
-3.53871
 20
50.3721
 11
-3.88841
 21
50.4619
  0
LINE
  8
0
 10
-3.88841
 20
50.4619
 11
-4.22411
 21
50.5948
  0
LINE
  8
0
 10
-4.22411
 20
50.5948
 11
-4.5405
 21
50.7687
  0
LINE
  8
0
 10
-4.5405
 20
50.7687
 11
-4.83258
 21
50.9809
  0
LINE
  8
0
 10
-4.83258
 20
50.9809
 11
-5.09578
 21
51.2281
  0
LINE
  8
0
 10
-5.09578
 20
51.2281
 11
-5.32591
 21
51.5063
  0
LINE
  8
0
 10
-5.32591
 20
51.5063
 11
-5.51938
 21
51.8111
  0
LINE
  8
0
 10
-5.51938
 20
51.8111
 11
-5.6731
 21
52.1378
  0
LINE
  8
0
 10
-5.6731
 20
52.1378
 11
-5.78467
 21
52.4812
  0
LINE
  8
0
 10
-5.78467
 20
52.4812
 11
-5.85233
 21
52.8358
  0
LINE
  8
0
 10
-5.85233
 20
52.8358
 11
-5.875
 21
53.1962
  0
LINE
  8
0
 10
-5.875
 20
53.1962
 11
-5.85233
 21
53.5565
  0
LINE
  8
0
 10
-5.85233
 20
53.5565
 11
-5.78467
 21
53.9111
  0
LINE
  8
0
 10
-5.78467
 20
53.9111
 11
-5.6731
 21
54.2545
  0
LINE
  8
0
 10
-5.6731
 20
54.2545
 11
-5.51938
 21
54.5812
  0
LINE
  8
0
 10
-5.51938
 20
54.5812
 11
-5.32591
 21
54.886
  0
LINE
  8
0
 10
-5.32591
 20
54.886
 11
-5.09578
 21
55.1642
  0
LINE
  8
0
 10
-5.09578
 20
55.1642
 11
-5.00195
 21
55.2523
  0
LINE
  8
0
 10
-5.00195
 20
55.2523
 11
-3.27916
 21
54.81
  0
LINE
  8
0
 10
-3.27916
 20
54.81
 11
-1.09883
 21
54.5345
  0
LINE
  8
0
 10
-1.09883
 20
54.5345
 11
-0.458664
 21
54.5345
  0
LINE
  8
0
 10
-0.458664
 20
54.5345
 11
-0.326889
 21
54.2545
  0
LINE
  8
0
 10
-0.326889
 20
54.2545
 11
-0.215317
 21
53.9111
  0
LINE
  8
0
 10
-0.215317
 20
53.9111
 11
-0.147659
 21
53.5565
  0
LINE
  8
0
 10
-0.147659
 20
53.5565
 11
-0.125
 21
53.1962
  0
LINE
  8
0
 10
-0.125
 20
53.1962
 11
-0.147659
 21
52.8358
  0
LINE
  8
0
 10
-0.147659
 20
52.8358
 11
-0.215317
 21
52.4812
  0
LINE
  8
0
 10
-0.215317
 20
52.4812
 11
-0.326889
 21
52.1378
  0
LINE
  8
0
 10
-0.326889
 20
52.1378
 11
-0.480606
 21
51.8111
  0
LINE
  8
0
 10
-0.480606
 20
51.8111
 11
-0.674072
 21
51.5063
  0
LINE
  8
0
 10
-0.674072
 20
51.5063
 11
-0.904205
 21
51.2281
  0
LINE
  8
0
 10
-0.904205
 20
51.2281
 11
-1.1674
 21
50.9809
  0
LINE
  8
0
 10
-1.1674
 20
50.9809
 11
-1.45949
 21
50.7687
  0
LINE
  8
0
 10
-1.45949
 20
50.7687
 11
-1.77588
 21
50.5948
  0
LINE
  8
0
 10
-1.77588
 20
50.5948
 11
-2.11157
 21
50.4619
  0
LINE
  8
0
 10
-2.11157
 20
50.4619
 11
-2.46127
 21
50.3721
  0
LINE
  8
0
 10
-2.46127
 20
50.3721
 11
-2.81947
 21
50.3268
  0
LINE
  8
0
 10
-2.81947
 20
50.3268
 11
-3.18051
 21
50.3268
  0
LINE
  8
0
 10
5.81947
 20
45.1307
 11
5.46127
 21
45.1759
  0
LINE
  8
0
 10
5.46127
 20
45.1759
 11
5.11157
 21
45.2657
  0
LINE
  8
0
 10
5.11157
 20
45.2657
 11
4.77588
 21
45.3986
  0
LINE
  8
0
 10
4.77588
 20
45.3986
 11
4.45949
 21
45.5726
  0
LINE
  8
0
 10
4.45949
 20
45.5726
 11
4.1674
 21
45.7848
  0
LINE
  8
0
 10
4.1674
 20
45.7848
 11
3.90421
 21
46.0319
  0
LINE
  8
0
 10
3.90421
 20
46.0319
 11
3.67407
 21
46.3101
  0
LINE
  8
0
 10
3.67407
 20
46.3101
 11
3.48061
 21
46.615
  0
LINE
  8
0
 10
3.48061
 20
46.615
 11
3.32689
 21
46.9417
  0
LINE
  8
0
 10
3.32689
 20
46.9417
 11
3.21532
 21
47.285
  0
LINE
  8
0
 10
3.21532
 20
47.285
 11
3.14766
 21
47.6397
  0
LINE
  8
0
 10
3.14766
 20
47.6397
 11
3.125
 21
48
  0
LINE
  8
0
 10
3.125
 20
48
 11
3.14766
 21
48.3603
  0
LINE
  8
0
 10
3.14766
 20
48.3603
 11
3.21532
 21
48.715
  0
LINE
  8
0
 10
3.21532
 20
48.715
 11
3.32689
 21
49.0583
  0
LINE
  8
0
 10
3.32689
 20
49.0583
 11
3.48061
 21
49.385
  0
LINE
  8
0
 10
3.48061
 20
49.385
 11
3.67407
 21
49.6899
  0
LINE
  8
0
 10
3.67407
 20
49.6899
 11
3.90421
 21
49.9681
  0
LINE
  8
0
 10
3.90421
 20
49.9681
 11
4.1674
 21
50.2152
  0
LINE
  8
0
 10
4.1674
 20
50.2152
 11
4.45949
 21
50.4274
  0
LINE
  8
0
 10
4.45949
 20
50.4274
 11
4.77588
 21
50.6014
  0
LINE
  8
0
 10
4.77588
 20
50.6014
 11
5.11157
 21
50.7343
  0
LINE
  8
0
 10
5.11157
 20
50.7343
 11
5.46127
 21
50.8241
  0
LINE
  8
0
 10
5.46127
 20
50.8241
 11
5.81947
 21
50.8693
  0
LINE
  8
0
 10
5.81947
 20
50.8693
 11
6.18051
 21
50.8693
  0
LINE
  8
0
 10
6.18051
 20
50.8693
 11
6.53871
 21
50.8241
  0
LINE
  8
0
 10
6.53871
 20
50.8241
 11
6.88841
 21
50.7343
  0
LINE
  8
0
 10
6.88841
 20
50.7343
 11
7.22411
 21
50.6014
  0
LINE
  8
0
 10
7.22411
 20
50.6014
 11
7.5405
 21
50.4274
  0
LINE
  8
0
 10
7.5405
 20
50.4274
 11
7.83258
 21
50.2152
  0
LINE
  8
0
 10
7.83258
 20
50.2152
 11
8.09578
 21
49.9681
  0
LINE
  8
0
 10
8.09578
 20
49.9681
 11
8.32591
 21
49.6899
  0
LINE
  8
0
 10
8.32591
 20
49.6899
 11
8.51938
 21
49.385
  0
LINE
  8
0
 10
8.51938
 20
49.385
 11
8.6731
 21
49.0583
  0
LINE
  8
0
 10
8.6731
 20
49.0583
 11
8.78467
 21
48.715
  0
LINE
  8
0
 10
8.78467
 20
48.715
 11
8.85233
 21
48.3603
  0
LINE
  8
0
 10
8.85233
 20
48.3603
 11
8.875
 21
48
  0
LINE
  8
0
 10
8.875
 20
48
 11
8.85233
 21
47.6397
  0
LINE
  8
0
 10
8.85233
 20
47.6397
 11
8.78467
 21
47.285
  0
LINE
  8
0
 10
8.78467
 20
47.285
 11
8.6731
 21
46.9417
  0
LINE
  8
0
 10
8.6731
 20
46.9417
 11
8.51938
 21
46.615
  0
LINE
  8
0
 10
8.51938
 20
46.615
 11
8.32591
 21
46.3101
  0
LINE
  8
0
 10
8.32591
 20
46.3101
 11
8.09578
 21
46.0319
  0
LINE
  8
0
 10
8.09578
 20
46.0319
 11
7.83258
 21
45.7848
  0
LINE
  8
0
 10
7.83258
 20
45.7848
 11
7.5405
 21
45.5726
  0
LINE
  8
0
 10
7.5405
 20
45.5726
 11
7.22411
 21
45.3986
  0
LINE
  8
0
 10
7.22411
 20
45.3986
 11
6.88841
 21
45.2657
  0
LINE
  8
0
 10
6.88841
 20
45.2657
 11
6.53871
 21
45.1759
  0
LINE
  8
0
 10
6.53871
 20
45.1759
 11
6.18051
 21
45.1307
  0
LINE
  8
0
 10
6.18051
 20
45.1307
 11
5.81947
 21
45.1307
  0
LINE
  8
0
 10
-3.18051
 20
39.9345
 11
-3.53871
 21
39.9798
  0
LINE
  8
0
 10
-3.53871
 20
39.9798
 11
-3.88841
 21
40.0696
  0
LINE
  8
0
 10
-3.88841
 20
40.0696
 11
-4.22411
 21
40.2025
  0
LINE
  8
0
 10
-4.22411
 20
40.2025
 11
-4.5405
 21
40.3764
  0
LINE
  8
0
 10
-4.5405
 20
40.3764
 11
-4.83258
 21
40.5886
  0
LINE
  8
0
 10
-4.83258
 20
40.5886
 11
-5.09578
 21
40.8358
  0
LINE
  8
0
 10
-5.09578
 20
40.8358
 11
-5.32591
 21
41.114
  0
LINE
  8
0
 10
-5.32591
 20
41.114
 11
-5.51938
 21
41.4188
  0
LINE
  8
0
 10
-5.51938
 20
41.4188
 11
-5.6731
 21
41.7455
  0
LINE
  8
0
 10
-5.6731
 20
41.7455
 11
-5.78467
 21
42.0889
  0
LINE
  8
0
 10
-5.78467
 20
42.0889
 11
-5.85233
 21
42.4435
  0
LINE
  8
0
 10
-5.85233
 20
42.4435
 11
-5.875
 21
42.8038
  0
LINE
  8
0
 10
-5.875
 20
42.8038
 11
-5.85233
 21
43.1642
  0
LINE
  8
0
 10
-5.85233
 20
43.1642
 11
-5.78467
 21
43.5188
  0
LINE
  8
0
 10
-5.78467
 20
43.5188
 11
-5.6731
 21
43.8622
  0
LINE
  8
0
 10
-5.6731
 20
43.8622
 11
-5.51938
 21
44.1889
  0
LINE
  8
0
 10
-5.51938
 20
44.1889
 11
-5.32591
 21
44.4937
  0
LINE
  8
0
 10
-5.32591
 20
44.4937
 11
-5.09578
 21
44.7719
  0
LINE
  8
0
 10
-5.09578
 20
44.7719
 11
-4.83258
 21
45.0191
  0
LINE
  8
0
 10
-4.83258
 20
45.0191
 11
-4.5405
 21
45.2313
  0
LINE
  8
0
 10
-4.5405
 20
45.2313
 11
-4.22411
 21
45.4052
  0
LINE
  8
0
 10
-4.22411
 20
45.4052
 11
-3.88841
 21
45.5381
  0
LINE
  8
0
 10
-3.88841
 20
45.5381
 11
-3.53871
 21
45.6279
  0
LINE
  8
0
 10
-3.53871
 20
45.6279
 11
-3.18051
 21
45.6732
  0
LINE
  8
0
 10
-3.18051
 20
45.6732
 11
-2.81947
 21
45.6732
  0
LINE
  8
0
 10
-2.81947
 20
45.6732
 11
-2.46127
 21
45.6279
  0
LINE
  8
0
 10
-2.46127
 20
45.6279
 11
-2.11157
 21
45.5381
  0
LINE
  8
0
 10
-2.11157
 20
45.5381
 11
-1.77588
 21
45.4052
  0
LINE
  8
0
 10
-1.77588
 20
45.4052
 11
-1.45949
 21
45.2313
  0
LINE
  8
0
 10
-1.45949
 20
45.2313
 11
-1.1674
 21
45.0191
  0
LINE
  8
0
 10
-1.1674
 20
45.0191
 11
-0.904205
 21
44.7719
  0
LINE
  8
0
 10
-0.904205
 20
44.7719
 11
-0.674072
 21
44.4937
  0
LINE
  8
0
 10
-0.674072
 20
44.4937
 11
-0.480606
 21
44.1889
  0
LINE
  8
0
 10
-0.480606
 20
44.1889
 11
-0.326889
 21
43.8622
  0
LINE
  8
0
 10
-0.326889
 20
43.8622
 11
-0.215317
 21
43.5188
  0
LINE
  8
0
 10
-0.215317
 20
43.5188
 11
-0.147659
 21
43.1642
  0
LINE
  8
0
 10
-0.147659
 20
43.1642
 11
-0.125
 21
42.8038
  0
LINE
  8
0
 10
-0.125
 20
42.8038
 11
-0.147659
 21
42.4435
  0
LINE
  8
0
 10
-0.147659
 20
42.4435
 11
-0.215317
 21
42.0889
  0
LINE
  8
0
 10
-0.215317
 20
42.0889
 11
-0.326889
 21
41.7455
  0
LINE
  8
0
 10
-0.326889
 20
41.7455
 11
-0.480606
 21
41.4188
  0
LINE
  8
0
 10
-0.480606
 20
41.4188
 11
-0.674072
 21
41.114
  0
LINE
  8
0
 10
-0.674072
 20
41.114
 11
-0.904205
 21
40.8358
  0
LINE
  8
0
 10
-0.904205
 20
40.8358
 11
-1.1674
 21
40.5886
  0
LINE
  8
0
 10
-1.1674
 20
40.5886
 11
-1.45949
 21
40.3764
  0
LINE
  8
0
 10
-1.45949
 20
40.3764
 11
-1.77588
 21
40.2025
  0
LINE
  8
0
 10
-1.77588
 20
40.2025
 11
-2.11157
 21
40.0696
  0
LINE
  8
0
 10
-2.11157
 20
40.0696
 11
-2.46127
 21
39.9798
  0
LINE
  8
0
 10
-2.46127
 20
39.9798
 11
-2.81947
 21
39.9345
  0
LINE
  8
0
 10
-2.81947
 20
39.9345
 11
-3.18051
 21
39.9345
  0
LINE
  8
0
 10
1.87381
 20
14.1771
 11
3.09016
 21
14.4894
  0
LINE
  8
0
 10
3.09016
 20
14.4894
 11
4.25778
 21
14.9517
  0
LINE
  8
0
 10
4.25778
 20
14.9517
 11
5.35826
 21
15.5567
  0
LINE
  8
0
 10
5.35826
 20
15.5567
 11
6.37424
 21
16.2949
  0
LINE
  8
0
 10
6.37424
 20
16.2949
 11
7.28967
 21
17.1545
  0
LINE
  8
0
 10
7.28967
 20
17.1545
 11
8.09016
 21
18.1222
  0
LINE
  8
0
 10
8.09016
 20
18.1222
 11
8.76306
 21
19.1825
  0
LINE
  8
0
 10
8.76306
 20
19.1825
 11
9.29776
 21
20.3188
  0
LINE
  8
0
 10
9.29776
 20
20.3188
 11
9.68582
 21
21.5131
  0
LINE
  8
0
 10
9.68582
 20
21.5131
 11
9.92114
 21
22.7467
  0
LINE
  8
0
 10
9.92114
 20
22.7467
 11
10
 21
24
  0
LINE
  8
0
 10
10
 20
24
 11
9.92114
 21
25.2533
  0
LINE
  8
0
 10
9.92114
 20
25.2533
 11
9.68582
 21
26.4869
  0
LINE
  8
0
 10
9.68582
 20
26.4869
 11
9.29776
 21
27.6812
  0
LINE
  8
0
 10
9.29776
 20
27.6812
 11
8.76306
 21
28.8175
  0
LINE
  8
0
 10
8.76306
 20
28.8175
 11
8.09016
 21
29.8778
  0
LINE
  8
0
 10
8.09016
 20
29.8778
 11
7.28967
 21
30.8455
  0
LINE
  8
0
 10
7.28967
 20
30.8455
 11
6.37424
 21
31.7051
  0
LINE
  8
0
 10
6.37424
 20
31.7051
 11
5.35826
 21
32.4433
  0
LINE
  8
0
 10
5.35826
 20
32.4433
 11
4.25778
 21
33.0483
  0
LINE
  8
0
 10
4.25778
 20
33.0483
 11
3.09016
 21
33.5106
  0
LINE
  8
0
 10
3.09016
 20
33.5106
 11
1.87381
 21
33.8229
  0
LINE
  8
0
 10
1.87381
 20
33.8229
 11
0.627899
 21
33.9803
  0
LINE
  8
0
 10
0.627899
 20
33.9803
 11
-0.627899
 21
33.9803
  0
LINE
  8
0
 10
-0.627899
 20
33.9803
 11
-1.87381
 21
33.8229
  0
LINE
  8
0
 10
-1.87381
 20
33.8229
 11
-3.09016
 21
33.5106
  0
LINE
  8
0
 10
-3.09016
 20
33.5106
 11
-4.25778
 21
33.0483
  0
LINE
  8
0
 10
-4.25778
 20
33.0483
 11
-5.35826
 21
32.4433
  0
LINE
  8
0
 10
-5.35826
 20
32.4433
 11
-6.37424
 21
31.7051
  0
LINE
  8
0
 10
-6.37424
 20
31.7051
 11
-7.28967
 21
30.8455
  0
LINE
  8
0
 10
-7.28967
 20
30.8455
 11
-8.09016
 21
29.8778
  0
LINE
  8
0
 10
-8.09016
 20
29.8778
 11
-8.76306
 21
28.8175
  0
LINE
  8
0
 10
-8.76306
 20
28.8175
 11
-9.29776
 21
27.6812
  0
LINE
  8
0
 10
-9.29776
 20
27.6812
 11
-9.68582
 21
26.4869
  0
LINE
  8
0
 10
-9.68582
 20
26.4869
 11
-9.92114
 21
25.2533
  0
LINE
  8
0
 10
-9.92114
 20
25.2533
 11
-10
 21
24
  0
LINE
  8
0
 10
-10
 20
24
 11
-9.92114
 21
22.7467
  0
LINE
  8
0
 10
-9.92114
 20
22.7467
 11
-9.68582
 21
21.5131
  0
LINE
  8
0
 10
-9.68582
 20
21.5131
 11
-9.29776
 21
20.3188
  0
LINE
  8
0
 10
-9.29776
 20
20.3188
 11
-8.76306
 21
19.1825
  0
LINE
  8
0
 10
-8.76306
 20
19.1825
 11
-8.09016
 21
18.1222
  0
LINE
  8
0
 10
-8.09016
 20
18.1222
 11
-7.28967
 21
17.1545
  0
LINE
  8
0
 10
-7.28967
 20
17.1545
 11
-6.37424
 21
16.2949
  0
LINE
  8
0
 10
-6.37424
 20
16.2949
 11
-5.35826
 21
15.5567
  0
LINE
  8
0
 10
-5.35826
 20
15.5567
 11
-4.25778
 21
14.9517
  0
LINE
  8
0
 10
-4.25778
 20
14.9517
 11
-3.09016
 21
14.4894
  0
LINE
  8
0
 10
-3.09016
 20
14.4894
 11
-1.87381
 21
14.1771
  0
LINE
  8
0
 10
-1.87381
 20
14.1771
 11
-0.627899
 21
14.0197
  0
LINE
  8
0
 10
-0.627899
 20
14.0197
 11
0.627899
 21
14.0197
  0
LINE
  8
0
 10
0.627899
 20
14.0197
 11
1.87381
 21
14.1771
  0
LINE
  8
0
 10
-3.18051
 20
26.3268
 11
-3.53871
 21
26.3721
  0
LINE
  8
0
 10
-3.53871
 20
26.3721
 11
-3.88841
 21
26.4619
  0
LINE
  8
0
 10
-3.88841
 20
26.4619
 11
-4.22411
 21
26.5948
  0
LINE
  8
0
 10
-4.22411
 20
26.5948
 11
-4.5405
 21
26.7687
  0
LINE
  8
0
 10
-4.5405
 20
26.7687
 11
-4.83258
 21
26.9809
  0
LINE
  8
0
 10
-4.83258
 20
26.9809
 11
-5.09578
 21
27.2281
  0
LINE
  8
0
 10
-5.09578
 20
27.2281
 11
-5.32591
 21
27.5063
  0
LINE
  8
0
 10
-5.32591
 20
27.5063
 11
-5.51938
 21
27.8111
  0
LINE
  8
0
 10
-5.51938
 20
27.8111
 11
-5.6731
 21
28.1378
  0
LINE
  8
0
 10
-5.6731
 20
28.1378
 11
-5.78467
 21
28.4812
  0
LINE
  8
0
 10
-5.78467
 20
28.4812
 11
-5.85233
 21
28.8358
  0
LINE
  8
0
 10
-5.85233
 20
28.8358
 11
-5.875
 21
29.1962
  0
LINE
  8
0
 10
-5.875
 20
29.1962
 11
-5.85233
 21
29.5565
  0
LINE
  8
0
 10
-5.85233
 20
29.5565
 11
-5.78467
 21
29.9111
  0
LINE
  8
0
 10
-5.78467
 20
29.9111
 11
-5.6731
 21
30.2545
  0
LINE
  8
0
 10
-5.6731
 20
30.2545
 11
-5.51938
 21
30.5812
  0
LINE
  8
0
 10
-5.51938
 20
30.5812
 11
-5.32591
 21
30.886
  0
LINE
  8
0
 10
-5.32591
 20
30.886
 11
-5.09578
 21
31.1642
  0
LINE
  8
0
 10
-5.09578
 20
31.1642
 11
-4.83258
 21
31.4114
  0
LINE
  8
0
 10
-4.83258
 20
31.4114
 11
-4.5405
 21
31.6236
  0
LINE
  8
0
 10
-4.5405
 20
31.6236
 11
-4.22411
 21
31.7975
  0
LINE
  8
0
 10
-4.22411
 20
31.7975
 11
-3.88841
 21
31.9304
  0
LINE
  8
0
 10
-3.88841
 20
31.9304
 11
-3.53871
 21
32.0202
  0
LINE
  8
0
 10
-3.53871
 20
32.0202
 11
-3.18051
 21
32.0655
  0
LINE
  8
0
 10
-3.18051
 20
32.0655
 11
-2.81947
 21
32.0655
  0
LINE
  8
0
 10
-2.81947
 20
32.0655
 11
-2.46127
 21
32.0202
  0
LINE
  8
0
 10
-2.46127
 20
32.0202
 11
-2.11157
 21
31.9304
  0
LINE
  8
0
 10
-2.11157
 20
31.9304
 11
-1.77588
 21
31.7975
  0
LINE
  8
0
 10
-1.77588
 20
31.7975
 11
-1.45949
 21
31.6236
  0
LINE
  8
0
 10
-1.45949
 20
31.6236
 11
-1.1674
 21
31.4114
  0
LINE
  8
0
 10
-1.1674
 20
31.4114
 11
-0.904205
 21
31.1642
  0
LINE
  8
0
 10
-0.904205
 20
31.1642
 11
-0.674072
 21
30.886
  0
LINE
  8
0
 10
-0.674072
 20
30.886
 11
-0.480606
 21
30.5812
  0
LINE
  8
0
 10
-0.480606
 20
30.5812
 11
-0.326889
 21
30.2545
  0
LINE
  8
0
 10
-0.326889
 20
30.2545
 11
-0.215317
 21
29.9111
  0
LINE
  8
0
 10
-0.215317
 20
29.9111
 11
-0.147659
 21
29.5565
  0
LINE
  8
0
 10
-0.147659
 20
29.5565
 11
-0.125
 21
29.1962
  0
LINE
  8
0
 10
-0.125
 20
29.1962
 11
-0.147659
 21
28.8358
  0
LINE
  8
0
 10
-0.147659
 20
28.8358
 11
-0.215317
 21
28.4812
  0
LINE
  8
0
 10
-0.215317
 20
28.4812
 11
-0.326889
 21
28.1378
  0
LINE
  8
0
 10
-0.326889
 20
28.1378
 11
-0.480606
 21
27.8111
  0
LINE
  8
0
 10
-0.480606
 20
27.8111
 11
-0.674072
 21
27.5063
  0
LINE
  8
0
 10
-0.674072
 20
27.5063
 11
-0.904205
 21
27.2281
  0
LINE
  8
0
 10
-0.904205
 20
27.2281
 11
-1.1674
 21
26.9809
  0
LINE
  8
0
 10
-1.1674
 20
26.9809
 11
-1.45949
 21
26.7687
  0
LINE
  8
0
 10
-1.45949
 20
26.7687
 11
-1.77588
 21
26.5948
  0
LINE
  8
0
 10
-1.77588
 20
26.5948
 11
-2.11157
 21
26.4619
  0
LINE
  8
0
 10
-2.11157
 20
26.4619
 11
-2.46127
 21
26.3721
  0
LINE
  8
0
 10
-2.46127
 20
26.3721
 11
-2.81947
 21
26.3268
  0
LINE
  8
0
 10
-2.81947
 20
26.3268
 11
-3.18051
 21
26.3268
  0
LINE
  8
0
 10
5.81947
 20
21.1307
 11
5.46127
 21
21.1759
  0
LINE
  8
0
 10
5.46127
 20
21.1759
 11
5.11157
 21
21.2657
  0
LINE
  8
0
 10
5.11157
 20
21.2657
 11
4.77588
 21
21.3986
  0
LINE
  8
0
 10
4.77588
 20
21.3986
 11
4.45949
 21
21.5726
  0
LINE
  8
0
 10
4.45949
 20
21.5726
 11
4.1674
 21
21.7848
  0
LINE
  8
0
 10
4.1674
 20
21.7848
 11
3.90421
 21
22.0319
  0
LINE
  8
0
 10
3.90421
 20
22.0319
 11
3.67407
 21
22.3101
  0
LINE
  8
0
 10
3.67407
 20
22.3101
 11
3.48061
 21
22.615
  0
LINE
  8
0
 10
3.48061
 20
22.615
 11
3.32689
 21
22.9417
  0
LINE
  8
0
 10
3.32689
 20
22.9417
 11
3.21532
 21
23.285
  0
LINE
  8
0
 10
3.21532
 20
23.285
 11
3.14766
 21
23.6397
  0
LINE
  8
0
 10
3.14766
 20
23.6397
 11
3.125
 21
24
  0
LINE
  8
0
 10
3.125
 20
24
 11
3.14766
 21
24.3603
  0
LINE
  8
0
 10
3.14766
 20
24.3603
 11
3.21532
 21
24.715
  0
LINE
  8
0
 10
3.21532
 20
24.715
 11
3.32689
 21
25.0583
  0
LINE
  8
0
 10
3.32689
 20
25.0583
 11
3.48061
 21
25.385
  0
LINE
  8
0
 10
3.48061
 20
25.385
 11
3.67407
 21
25.6899
  0
LINE
  8
0
 10
3.67407
 20
25.6899
 11
3.90421
 21
25.9681
  0
LINE
  8
0
 10
3.90421
 20
25.9681
 11
4.1674
 21
26.2152
  0
LINE
  8
0
 10
4.1674
 20
26.2152
 11
4.45949
 21
26.4274
  0
LINE
  8
0
 10
4.45949
 20
26.4274
 11
4.77588
 21
26.6014
  0
LINE
  8
0
 10
4.77588
 20
26.6014
 11
5.11157
 21
26.7343
  0
LINE
  8
0
 10
5.11157
 20
26.7343
 11
5.46127
 21
26.8241
  0
LINE
  8
0
 10
5.46127
 20
26.8241
 11
5.81947
 21
26.8693
  0
LINE
  8
0
 10
5.81947
 20
26.8693
 11
6.18051
 21
26.8693
  0
LINE
  8
0
 10
6.18051
 20
26.8693
 11
6.53871
 21
26.8241
  0
LINE
  8
0
 10
6.53871
 20
26.8241
 11
6.88841
 21
26.7343
  0
LINE
  8
0
 10
6.88841
 20
26.7343
 11
7.22411
 21
26.6014
  0
LINE
  8
0
 10
7.22411
 20
26.6014
 11
7.5405
 21
26.4274
  0
LINE
  8
0
 10
7.5405
 20
26.4274
 11
7.83258
 21
26.2152
  0
LINE
  8
0
 10
7.83258
 20
26.2152
 11
8.09578
 21
25.9681
  0
LINE
  8
0
 10
8.09578
 20
25.9681
 11
8.32591
 21
25.6899
  0
LINE
  8
0
 10
8.32591
 20
25.6899
 11
8.51938
 21
25.385
  0
LINE
  8
0
 10
8.51938
 20
25.385
 11
8.6731
 21
25.0583
  0
LINE
  8
0
 10
8.6731
 20
25.0583
 11
8.78467
 21
24.715
  0
LINE
  8
0
 10
8.78467
 20
24.715
 11
8.85233
 21
24.3603
  0
LINE
  8
0
 10
8.85233
 20
24.3603
 11
8.875
 21
24
  0
LINE
  8
0
 10
8.875
 20
24
 11
8.85233
 21
23.6397
  0
LINE
  8
0
 10
8.85233
 20
23.6397
 11
8.78467
 21
23.285
  0
LINE
  8
0
 10
8.78467
 20
23.285
 11
8.6731
 21
22.9417
  0
LINE
  8
0
 10
8.6731
 20
22.9417
 11
8.51938
 21
22.615
  0
LINE
  8
0
 10
8.51938
 20
22.615
 11
8.32591
 21
22.3101
  0
LINE
  8
0
 10
8.32591
 20
22.3101
 11
8.09578
 21
22.0319
  0
LINE
  8
0
 10
8.09578
 20
22.0319
 11
7.83258
 21
21.7848
  0
LINE
  8
0
 10
7.83258
 20
21.7848
 11
7.5405
 21
21.5726
  0
LINE
  8
0
 10
7.5405
 20
21.5726
 11
7.22411
 21
21.3986
  0
LINE
  8
0
 10
7.22411
 20
21.3986
 11
6.88841
 21
21.2657
  0
LINE
  8
0
 10
6.88841
 20
21.2657
 11
6.53871
 21
21.1759
  0
LINE
  8
0
 10
6.53871
 20
21.1759
 11
6.18051
 21
21.1307
  0
LINE
  8
0
 10
6.18051
 20
21.1307
 11
5.81947
 21
21.1307
  0
LINE
  8
0
 10
-3.18051
 20
15.9345
 11
-3.53871
 21
15.9798
  0
LINE
  8
0
 10
-3.53871
 20
15.9798
 11
-3.88841
 21
16.0696
  0
LINE
  8
0
 10
-3.88841
 20
16.0696
 11
-4.22411
 21
16.2025
  0
LINE
  8
0
 10
-4.22411
 20
16.2025
 11
-4.5405
 21
16.3764
  0
LINE
  8
0
 10
-4.5405
 20
16.3764
 11
-4.83258
 21
16.5886
  0
LINE
  8
0
 10
-4.83258
 20
16.5886
 11
-5.09578
 21
16.8358
  0
LINE
  8
0
 10
-5.09578
 20
16.8358
 11
-5.32591
 21
17.114
  0
LINE
  8
0
 10
-5.32591
 20
17.114
 11
-5.51938
 21
17.4188
  0
LINE
  8
0
 10
-5.51938
 20
17.4188
 11
-5.6731
 21
17.7455
  0
LINE
  8
0
 10
-5.6731
 20
17.7455
 11
-5.78467
 21
18.0889
  0
LINE
  8
0
 10
-5.78467
 20
18.0889
 11
-5.85233
 21
18.4435
  0
LINE
  8
0
 10
-5.85233
 20
18.4435
 11
-5.875
 21
18.8038
  0
LINE
  8
0
 10
-5.875
 20
18.8038
 11
-5.85233
 21
19.1642
  0
LINE
  8
0
 10
-5.85233
 20
19.1642
 11
-5.78467
 21
19.5188
  0
LINE
  8
0
 10
-5.78467
 20
19.5188
 11
-5.6731
 21
19.8622
  0
LINE
  8
0
 10
-5.6731
 20
19.8622
 11
-5.51938
 21
20.1889
  0
LINE
  8
0
 10
-5.51938
 20
20.1889
 11
-5.32591
 21
20.4937
  0
LINE
  8
0
 10
-5.32591
 20
20.4937
 11
-5.09578
 21
20.7719
  0
LINE
  8
0
 10
-5.09578
 20
20.7719
 11
-4.83258
 21
21.0191
  0
LINE
  8
0
 10
-4.83258
 20
21.0191
 11
-4.5405
 21
21.2313
  0
LINE
  8
0
 10
-4.5405
 20
21.2313
 11
-4.22411
 21
21.4052
  0
LINE
  8
0
 10
-4.22411
 20
21.4052
 11
-3.88841
 21
21.5381
  0
LINE
  8
0
 10
-3.88841
 20
21.5381
 11
-3.53871
 21
21.6279
  0
LINE
  8
0
 10
-3.53871
 20
21.6279
 11
-3.18051
 21
21.6732
  0
LINE
  8
0
 10
-3.18051
 20
21.6732
 11
-2.81947
 21
21.6732
  0
LINE
  8
0
 10
-2.81947
 20
21.6732
 11
-2.46127
 21
21.6279
  0
LINE
  8
0
 10
-2.46127
 20
21.6279
 11
-2.11157
 21
21.5381
  0
LINE
  8
0
 10
-2.11157
 20
21.5381
 11
-1.77588
 21
21.4052
  0
LINE
  8
0
 10
-1.77588
 20
21.4052
 11
-1.45949
 21
21.2313
  0
LINE
  8
0
 10
-1.45949
 20
21.2313
 11
-1.1674
 21
21.0191
  0
LINE
  8
0
 10
-1.1674
 20
21.0191
 11
-0.904205
 21
20.7719
  0
LINE
  8
0
 10
-0.904205
 20
20.7719
 11
-0.674072
 21
20.4937
  0
LINE
  8
0
 10
-0.674072
 20
20.4937
 11
-0.480606
 21
20.1889
  0
LINE
  8
0
 10
-0.480606
 20
20.1889
 11
-0.326889
 21
19.8622
  0
LINE
  8
0
 10
-0.326889
 20
19.8622
 11
-0.215317
 21
19.5188
  0
LINE
  8
0
 10
-0.215317
 20
19.5188
 11
-0.147659
 21
19.1642
  0
LINE
  8
0
 10
-0.147659
 20
19.1642
 11
-0.125
 21
18.8038
  0
LINE
  8
0
 10
-0.125
 20
18.8038
 11
-0.147659
 21
18.4435
  0
LINE
  8
0
 10
-0.147659
 20
18.4435
 11
-0.215317
 21
18.0889
  0
LINE
  8
0
 10
-0.215317
 20
18.0889
 11
-0.326889
 21
17.7455
  0
LINE
  8
0
 10
-0.326889
 20
17.7455
 11
-0.480606
 21
17.4188
  0
LINE
  8
0
 10
-0.480606
 20
17.4188
 11
-0.674072
 21
17.114
  0
LINE
  8
0
 10
-0.674072
 20
17.114
 11
-0.904205
 21
16.8358
  0
LINE
  8
0
 10
-0.904205
 20
16.8358
 11
-1.1674
 21
16.5886
  0
LINE
  8
0
 10
-1.1674
 20
16.5886
 11
-1.45949
 21
16.3764
  0
LINE
  8
0
 10
-1.45949
 20
16.3764
 11
-1.77588
 21
16.2025
  0
LINE
  8
0
 10
-1.77588
 20
16.2025
 11
-2.11157
 21
16.0696
  0
LINE
  8
0
 10
-2.11157
 20
16.0696
 11
-2.46127
 21
15.9798
  0
LINE
  8
0
 10
-2.46127
 20
15.9798
 11
-2.81947
 21
15.9345
  0
LINE
  8
0
 10
-2.81947
 20
15.9345
 11
-3.18051
 21
15.9345
  0
LINE
  8
0
 10
1.87381
 20
-9.82286
 11
3.09016
 21
-9.51056
  0
LINE
  8
0
 10
3.09016
 20
-9.51056
 11
4.25778
 21
-9.04826
  0
LINE
  8
0
 10
4.25778
 20
-9.04826
 11
5.35826
 21
-8.44327
  0
LINE
  8
0
 10
5.35826
 20
-8.44327
 11
6.37424
 21
-7.70512
  0
LINE
  8
0
 10
6.37424
 20
-7.70512
 11
7.28967
 21
-6.84546
  0
LINE
  8
0
 10
7.28967
 20
-6.84546
 11
8.09016
 21
-5.87784
  0
LINE
  8
0
 10
8.09016
 20
-5.87784
 11
8.76306
 21
-4.81754
  0
LINE
  8
0
 10
8.76306
 20
-4.81754
 11
9.29776
 21
-3.68124
  0
LINE
  8
0
 10
9.29776
 20
-3.68124
 11
9.68582
 21
-2.48689
  0
LINE
  8
0
 10
9.68582
 20
-2.48689
 11
9.92114
 21
-1.25333
  0
LINE
  8
0
 10
9.92114
 20
-1.25333
 11
10
 21
0
  0
LINE
  8
0
 10
10
 20
0
 11
9.92114
 21
1.25333
  0
LINE
  8
0
 10
9.92114
 20
1.25333
 11
9.68582
 21
2.48689
  0
LINE
  8
0
 10
9.68582
 20
2.48689
 11
9.29776
 21
3.68124
  0
LINE
  8
0
 10
9.29776
 20
3.68124
 11
8.76306
 21
4.81754
  0
LINE
  8
0
 10
8.76306
 20
4.81754
 11
8.09016
 21
5.87784
  0
LINE
  8
0
 10
8.09016
 20
5.87784
 11
7.28967
 21
6.84546
  0
LINE
  8
0
 10
7.28967
 20
6.84546
 11
6.37424
 21
7.70512
  0
LINE
  8
0
 10
6.37424
 20
7.70512
 11
5.35826
 21
8.44327
  0
LINE
  8
0
 10
5.35826
 20
8.44327
 11
4.25778
 21
9.04826
  0
LINE
  8
0
 10
4.25778
 20
9.04826
 11
3.09016
 21
9.51056
  0
LINE
  8
0
 10
3.09016
 20
9.51056
 11
1.87381
 21
9.82286
  0
LINE
  8
0
 10
1.87381
 20
9.82286
 11
0.627899
 21
9.98026
  0
LINE
  8
0
 10
0.627899
 20
9.98026
 11
-0.627899
 21
9.98026
  0
LINE
  8
0
 10
-0.627899
 20
9.98026
 11
-1.87381
 21
9.82286
  0
LINE
  8
0
 10
-1.87381
 20
9.82286
 11
-3.09016
 21
9.51056
  0
LINE
  8
0
 10
-3.09016
 20
9.51056
 11
-4.25778
 21
9.04826
  0
LINE
  8
0
 10
-4.25778
 20
9.04826
 11
-5.35826
 21
8.44327
  0
LINE
  8
0
 10
-5.35826
 20
8.44327
 11
-6.37424
 21
7.70512
  0
LINE
  8
0
 10
-6.37424
 20
7.70512
 11
-7.28967
 21
6.84546
  0
LINE
  8
0
 10
-7.28967
 20
6.84546
 11
-8.09016
 21
5.87784
  0
LINE
  8
0
 10
-8.09016
 20
5.87784
 11
-8.76306
 21
4.81754
  0
LINE
  8
0
 10
-8.76306
 20
4.81754
 11
-9.29776
 21
3.68124
  0
LINE
  8
0
 10
-9.29776
 20
3.68124
 11
-9.68582
 21
2.48689
  0
LINE
  8
0
 10
-9.68582
 20
2.48689
 11
-9.92114
 21
1.25333
  0
LINE
  8
0
 10
-9.92114
 20
1.25333
 11
-10
 21
0
  0
LINE
  8
0
 10
-10
 20
0
 11
-9.92114
 21
-1.25333
  0
LINE
  8
0
 10
-9.92114
 20
-1.25333
 11
-9.68582
 21
-2.48689
  0
LINE
  8
0
 10
-9.68582
 20
-2.48689
 11
-9.29776
 21
-3.68124
  0
LINE
  8
0
 10
-9.29776
 20
-3.68124
 11
-8.76306
 21
-4.81754
  0
LINE
  8
0
 10
-8.76306
 20
-4.81754
 11
-8.09016
 21
-5.87784
  0
LINE
  8
0
 10
-8.09016
 20
-5.87784
 11
-7.28967
 21
-6.84546
  0
LINE
  8
0
 10
-7.28967
 20
-6.84546
 11
-6.37424
 21
-7.70512
  0
LINE
  8
0
 10
-6.37424
 20
-7.70512
 11
-5.35826
 21
-8.44327
  0
LINE
  8
0
 10
-5.35826
 20
-8.44327
 11
-4.25778
 21
-9.04826
  0
LINE
  8
0
 10
-4.25778
 20
-9.04826
 11
-3.09016
 21
-9.51056
  0
LINE
  8
0
 10
-3.09016
 20
-9.51056
 11
-1.87381
 21
-9.82286
  0
LINE
  8
0
 10
-1.87381
 20
-9.82286
 11
-0.627899
 21
-9.98026
  0
LINE
  8
0
 10
-0.627899
 20
-9.98026
 11
0.627899
 21
-9.98026
  0
LINE
  8
0
 10
0.627899
 20
-9.98026
 11
1.87381
 21
-9.82286
  0
LINE
  8
0
 10
-3.18051
 20
2.32681
 11
-3.53871
 21
2.37207
  0
LINE
  8
0
 10
-3.53871
 20
2.37207
 11
-3.88841
 21
2.46185
  0
LINE
  8
0
 10
-3.88841
 20
2.46185
 11
-4.22411
 21
2.59477
  0
LINE
  8
0
 10
-4.22411
 20
2.59477
 11
-4.5405
 21
2.76871
  0
LINE
  8
0
 10
-4.5405
 20
2.76871
 11
-4.83258
 21
2.98093
  0
LINE
  8
0
 10
-4.83258
 20
2.98093
 11
-5.09578
 21
3.22807
  0
LINE
  8
0
 10
-5.09578
 20
3.22807
 11
-5.32591
 21
3.50626
  0
LINE
  8
0
 10
-5.32591
 20
3.50626
 11
-5.51938
 21
3.8111
  0
LINE
  8
0
 10
-5.51938
 20
3.8111
 11
-5.6731
 21
4.13779
  0
LINE
  8
0
 10
-5.6731
 20
4.13779
 11
-5.78467
 21
4.48116
  0
LINE
  8
0
 10
-5.78467
 20
4.48116
 11
-5.85233
 21
4.83582
  0
LINE
  8
0
 10
-5.85233
 20
4.83582
 11
-5.875
 21
5.19615
  0
LINE
  8
0
 10
-5.875
 20
5.19615
 11
-5.85233
 21
5.55647
  0
LINE
  8
0
 10
-5.85233
 20
5.55647
 11
-5.78467
 21
5.91113
  0
LINE
  8
0
 10
-5.78467
 20
5.91113
 11
-5.6731
 21
6.2545
  0
LINE
  8
0
 10
-5.6731
 20
6.2545
 11
-5.51938
 21
6.58119
  0
LINE
  8
0
 10
-5.51938
 20
6.58119
 11
-5.32591
 21
6.88603
  0
LINE
  8
0
 10
-5.32591
 20
6.88603
 11
-5.09578
 21
7.16422
  0
LINE
  8
0
 10
-5.09578
 20
7.16422
 11
-4.83258
 21
7.41138
  0
LINE
  8
0
 10
-4.83258
 20
7.41138
 11
-4.5405
 21
7.62358
  0
LINE
  8
0
 10
-4.5405
 20
7.62358
 11
-4.22411
 21
7.79752
  0
LINE
  8
0
 10
-4.22411
 20
7.79752
 11
-3.88841
 21
7.93044
  0
LINE
  8
0
 10
-3.88841
 20
7.93044
 11
-3.53871
 21
8.02022
  0
LINE
  8
0
 10
-3.53871
 20
8.02022
 11
-3.18051
 21
8.06548
  0
LINE
  8
0
 10
-3.18051
 20
8.06548
 11
-2.81947
 21
8.06548
  0
LINE
  8
0
 10
-2.81947
 20
8.06548
 11
-2.46127
 21
8.02022
  0
LINE
  8
0
 10
-2.46127
 20
8.02022
 11
-2.11157
 21
7.93044
  0
LINE
  8
0
 10
-2.11157
 20
7.93044
 11
-1.77588
 21
7.79752
  0
LINE
  8
0
 10
-1.77588
 20
7.79752
 11
-1.45949
 21
7.62358
  0
LINE
  8
0
 10
-1.45949
 20
7.62358
 11
-1.1674
 21
7.41138
  0
LINE
  8
0
 10
-1.1674
 20
7.41138
 11
-0.904205
 21
7.16422
  0
LINE
  8
0
 10
-0.904205
 20
7.16422
 11
-0.674072
 21
6.88603
  0
LINE
  8
0
 10
-0.674072
 20
6.88603
 11
-0.480606
 21
6.58119
  0
LINE
  8
0
 10
-0.480606
 20
6.58119
 11
-0.326889
 21
6.2545
  0
LINE
  8
0
 10
-0.326889
 20
6.2545
 11
-0.215317
 21
5.91113
  0
LINE
  8
0
 10
-0.215317
 20
5.91113
 11
-0.147659
 21
5.55647
  0
LINE
  8
0
 10
-0.147659
 20
5.55647
 11
-0.125
 21
5.19615
  0
LINE
  8
0
 10
-0.125
 20
5.19615
 11
-0.147659
 21
4.83582
  0
LINE
  8
0
 10
-0.147659
 20
4.83582
 11
-0.215317
 21
4.48116
  0
LINE
  8
0
 10
-0.215317
 20
4.48116
 11
-0.326889
 21
4.13779
  0
LINE
  8
0
 10
-0.326889
 20
4.13779
 11
-0.480606
 21
3.8111
  0
LINE
  8
0
 10
-0.480606
 20
3.8111
 11
-0.674072
 21
3.50626
  0
LINE
  8
0
 10
-0.674072
 20
3.50626
 11
-0.904205
 21
3.22807
  0
LINE
  8
0
 10
-0.904205
 20
3.22807
 11
-1.1674
 21
2.98093
  0
LINE
  8
0
 10
-1.1674
 20
2.98093
 11
-1.45949
 21
2.76871
  0
LINE
  8
0
 10
-1.45949
 20
2.76871
 11
-1.77588
 21
2.59477
  0
LINE
  8
0
 10
-1.77588
 20
2.59477
 11
-2.11157
 21
2.46185
  0
LINE
  8
0
 10
-2.11157
 20
2.46185
 11
-2.46127
 21
2.37207
  0
LINE
  8
0
 10
-2.46127
 20
2.37207
 11
-2.81947
 21
2.32681
  0
LINE
  8
0
 10
-2.81947
 20
2.32681
 11
-3.18051
 21
2.32681
  0
LINE
  8
0
 10
5.81947
 20
-2.86932
 11
5.46127
 21
-2.82407
  0
LINE
  8
0
 10
5.46127
 20
-2.82407
 11
5.11157
 21
-2.73428
  0
LINE
  8
0
 10
5.11157
 20
-2.73428
 11
4.77588
 21
-2.60136
  0
LINE
  8
0
 10
4.77588
 20
-2.60136
 11
4.45949
 21
-2.42743
  0
LINE
  8
0
 10
4.45949
 20
-2.42743
 11
4.1674
 21
-2.21523
  0
LINE
  8
0
 10
4.1674
 20
-2.21523
 11
3.90421
 21
-1.96806
  0
LINE
  8
0
 10
3.90421
 20
-1.96806
 11
3.67407
 21
-1.68988
  0
LINE
  8
0
 10
3.67407
 20
-1.68988
 11
3.48061
 21
-1.38504
  0
LINE
  8
0
 10
3.48061
 20
-1.38504
 11
3.32689
 21
-1.05835
  0
LINE
  8
0
 10
3.32689
 20
-1.05835
 11
3.21532
 21
-0.714981
  0
LINE
  8
0
 10
3.21532
 20
-0.714981
 11
3.14766
 21
-0.360321
  0
LINE
  8
0
 10
3.14766
 20
-0.360321
 11
3.125
 21
0
  0
LINE
  8
0
 10
3.125
 20
0
 11
3.14766
 21
0.360321
  0
LINE
  8
0
 10
3.14766
 20
0.360321
 11
3.21532
 21
0.714981
  0
LINE
  8
0
 10
3.21532
 20
0.714981
 11
3.32689
 21
1.05835
  0
LINE
  8
0
 10
3.32689
 20
1.05835
 11
3.48061
 21
1.38504
  0
LINE
  8
0
 10
3.48061
 20
1.38504
 11
3.67407
 21
1.68988
  0
LINE
  8
0
 10
3.67407
 20
1.68988
 11
3.90421
 21
1.96806
  0
LINE
  8
0
 10
3.90421
 20
1.96806
 11
4.1674
 21
2.21523
  0
LINE
  8
0
 10
4.1674
 20
2.21523
 11
4.45949
 21
2.42743
  0
LINE
  8
0
 10
4.45949
 20
2.42743
 11
4.77588
 21
2.60136
  0
LINE
  8
0
 10
4.77588
 20
2.60136
 11
5.11157
 21
2.73428
  0
LINE
  8
0
 10
5.11157
 20
2.73428
 11
5.46127
 21
2.82407
  0
LINE
  8
0
 10
5.46127
 20
2.82407
 11
5.81947
 21
2.86932
  0
LINE
  8
0
 10
5.81947
 20
2.86932
 11
6.18051
 21
2.86932
  0
LINE
  8
0
 10
6.18051
 20
2.86932
 11
6.53871
 21
2.82407
  0
LINE
  8
0
 10
6.53871
 20
2.82407
 11
6.88841
 21
2.73428
  0
LINE
  8
0
 10
6.88841
 20
2.73428
 11
7.22411
 21
2.60136
  0
LINE
  8
0
 10
7.22411
 20
2.60136
 11
7.5405
 21
2.42743
  0
LINE
  8
0
 10
7.5405
 20
2.42743
 11
7.83258
 21
2.21523
  0
LINE
  8
0
 10
7.83258
 20
2.21523
 11
8.09578
 21
1.96806
  0
LINE
  8
0
 10
8.09578
 20
1.96806
 11
8.32591
 21
1.68988
  0
LINE
  8
0
 10
8.32591
 20
1.68988
 11
8.51938
 21
1.38504
  0
LINE
  8
0
 10
8.51938
 20
1.38504
 11
8.6731
 21
1.05835
  0
LINE
  8
0
 10
8.6731
 20
1.05835
 11
8.78467
 21
0.714981
  0
LINE
  8
0
 10
8.78467
 20
0.714981
 11
8.85233
 21
0.360321
  0
LINE
  8
0
 10
8.85233
 20
0.360321
 11
8.875
 21
0
  0
LINE
  8
0
 10
8.875
 20
0
 11
8.85233
 21
-0.360321
  0
LINE
  8
0
 10
8.85233
 20
-0.360321
 11
8.78467
 21
-0.714981
  0
LINE
  8
0
 10
8.78467
 20
-0.714981
 11
8.6731
 21
-1.05835
  0
LINE
  8
0
 10
8.6731
 20
-1.05835
 11
8.51938
 21
-1.38504
  0
LINE
  8
0
 10
8.51938
 20
-1.38504
 11
8.32591
 21
-1.68988
  0
LINE
  8
0
 10
8.32591
 20
-1.68988
 11
8.09578
 21
-1.96806
  0
LINE
  8
0
 10
8.09578
 20
-1.96806
 11
7.83258
 21
-2.21523
  0
LINE
  8
0
 10
7.83258
 20
-2.21523
 11
7.5405
 21
-2.42743
  0
LINE
  8
0
 10
7.5405
 20
-2.42743
 11
7.22411
 21
-2.60136
  0
LINE
  8
0
 10
7.22411
 20
-2.60136
 11
6.88841
 21
-2.73428
  0
LINE
  8
0
 10
6.88841
 20
-2.73428
 11
6.53871
 21
-2.82407
  0
LINE
  8
0
 10
6.53871
 20
-2.82407
 11
6.18051
 21
-2.86932
  0
LINE
  8
0
 10
6.18051
 20
-2.86932
 11
5.81947
 21
-2.86932
  0
LINE
  8
0
 10
-3.18051
 20
-8.06548
 11
-3.53871
 21
-8.02022
  0
LINE
  8
0
 10
-3.53871
 20
-8.02022
 11
-3.88841
 21
-7.93044
  0
LINE
  8
0
 10
-3.88841
 20
-7.93044
 11
-4.22411
 21
-7.79752
  0
LINE
  8
0
 10
-4.22411
 20
-7.79752
 11
-4.5405
 21
-7.62358
  0
LINE
  8
0
 10
-4.5405
 20
-7.62358
 11
-4.83258
 21
-7.41138
  0
LINE
  8
0
 10
-4.83258
 20
-7.41138
 11
-5.09578
 21
-7.16422
  0
LINE
  8
0
 10
-5.09578
 20
-7.16422
 11
-5.32591
 21
-6.88603
  0
LINE
  8
0
 10
-5.32591
 20
-6.88603
 11
-5.51938
 21
-6.58119
  0
LINE
  8
0
 10
-5.51938
 20
-6.58119
 11
-5.6731
 21
-6.2545
  0
LINE
  8
0
 10
-5.6731
 20
-6.2545
 11
-5.78467
 21
-5.91113
  0
LINE
  8
0
 10
-5.78467
 20
-5.91113
 11
-5.85233
 21
-5.55647
  0
LINE
  8
0
 10
-5.85233
 20
-5.55647
 11
-5.875
 21
-5.19615
  0
LINE
  8
0
 10
-5.875
 20
-5.19615
 11
-5.85233
 21
-4.83582
  0
LINE
  8
0
 10
-5.85233
 20
-4.83582
 11
-5.78467
 21
-4.48116
  0
LINE
  8
0
 10
-5.78467
 20
-4.48116
 11
-5.6731
 21
-4.13779
  0
LINE
  8
0
 10
-5.6731
 20
-4.13779
 11
-5.51938
 21
-3.8111
  0
LINE
  8
0
 10
-5.51938
 20
-3.8111
 11
-5.32591
 21
-3.50626
  0
LINE
  8
0
 10
-5.32591
 20
-3.50626
 11
-5.09578
 21
-3.22807
  0
LINE
  8
0
 10
-5.09578
 20
-3.22807
 11
-4.83258
 21
-2.98093
  0
LINE
  8
0
 10
-4.83258
 20
-2.98093
 11
-4.5405
 21
-2.76871
  0
LINE
  8
0
 10
-4.5405
 20
-2.76871
 11
-4.22411
 21
-2.59477
  0
LINE
  8
0
 10
-4.22411
 20
-2.59477
 11
-3.88841
 21
-2.46185
  0
LINE
  8
0
 10
-3.88841
 20
-2.46185
 11
-3.53871
 21
-2.37207
  0
LINE
  8
0
 10
-3.53871
 20
-2.37207
 11
-3.18051
 21
-2.32681
  0
LINE
  8
0
 10
-3.18051
 20
-2.32681
 11
-2.81947
 21
-2.32681
  0
LINE
  8
0
 10
-2.81947
 20
-2.32681
 11
-2.46127
 21
-2.37207
  0
LINE
  8
0
 10
-2.46127
 20
-2.37207
 11
-2.11157
 21
-2.46185
  0
LINE
  8
0
 10
-2.11157
 20
-2.46185
 11
-1.77588
 21
-2.59477
  0
LINE
  8
0
 10
-1.77588
 20
-2.59477
 11
-1.45949
 21
-2.76871
  0
LINE
  8
0
 10
-1.45949
 20
-2.76871
 11
-1.1674
 21
-2.98093
  0
LINE
  8
0
 10
-1.1674
 20
-2.98093
 11
-0.904205
 21
-3.22807
  0
LINE
  8
0
 10
-0.904205
 20
-3.22807
 11
-0.674072
 21
-3.50626
  0
LINE
  8
0
 10
-0.674072
 20
-3.50626
 11
-0.480606
 21
-3.8111
  0
LINE
  8
0
 10
-0.480606
 20
-3.8111
 11
-0.326889
 21
-4.13779
  0
LINE
  8
0
 10
-0.326889
 20
-4.13779
 11
-0.215317
 21
-4.48116
  0
LINE
  8
0
 10
-0.215317
 20
-4.48116
 11
-0.147659
 21
-4.83582
  0
LINE
  8
0
 10
-0.147659
 20
-4.83582
 11
-0.125
 21
-5.19615
  0
LINE
  8
0
 10
-0.125
 20
-5.19615
 11
-0.147659
 21
-5.55647
  0
LINE
  8
0
 10
-0.147659
 20
-5.55647
 11
-0.215317
 21
-5.91113
  0
LINE
  8
0
 10
-0.215317
 20
-5.91113
 11
-0.326889
 21
-6.2545
  0
LINE
  8
0
 10
-0.326889
 20
-6.2545
 11
-0.480606
 21
-6.58119
  0
LINE
  8
0
 10
-0.480606
 20
-6.58119
 11
-0.674072
 21
-6.88603
  0
LINE
  8
0
 10
-0.674072
 20
-6.88603
 11
-0.904205
 21
-7.16422
  0
LINE
  8
0
 10
-0.904205
 20
-7.16422
 11
-1.1674
 21
-7.41138
  0
LINE
  8
0
 10
-1.1674
 20
-7.41138
 11
-1.45949
 21
-7.62358
  0
LINE
  8
0
 10
-1.45949
 20
-7.62358
 11
-1.77588
 21
-7.79752
  0
LINE
  8
0
 10
-1.77588
 20
-7.79752
 11
-2.11157
 21
-7.93044
  0
LINE
  8
0
 10
-2.11157
 20
-7.93044
 11
-2.46127
 21
-8.02022
  0
LINE
  8
0
 10
-2.46127
 20
-8.02022
 11
-2.81947
 21
-8.06548
  0
LINE
  8
0
 10
-2.81947
 20
-8.06548
 11
-3.18051
 21
-8.06548
  0
ENDSEC
  0
SECTION
  2
OBJECTS
  0
DICTIONARY
  0
ENDSEC
  0
EOF
