solid OpenSCAD_Model
  facet normal 0.998026 0.0627953 0
    outer loop
      vertex 8.5 0 0
      vertex 8.43297 1.06533 -4
      vertex 8.43297 1.06533 0
    endloop
  endfacet
  facet normal 0.998026 0.0627953 0
    outer loop
      vertex 8.43297 1.06533 -4
      vertex 8.5 0 0
      vertex 8.5 0 -4
    endloop
  endfacet
  facet normal -0.998026 0.0627953 0
    outer loop
      vertex -8.5 0 -4
      vertex -8.43297 1.06533 0
      vertex -8.43297 1.06533 -4
    endloop
  endfacet
  facet normal -0.998026 0.0627953 0
    outer loop
      vertex -8.43297 1.06533 0
      vertex -8.5 0 -4
      vertex -8.5 0 0
    endloop
  endfacet
  facet normal 0 1 -0
    outer loop
      vertex 0.533719 8.48323 -4
      vertex -0.533719 8.48323 0
      vertex 0.533719 8.48323 0
    endloop
  endfacet
  facet normal 0 1 0
    outer loop
      vertex -0.533719 8.48323 0
      vertex 0.533719 8.48323 -4
      vertex -0.533719 8.48323 -4
    endloop
  endfacet
  facet normal 0 -1 0
    outer loop
      vertex -0.533719 -8.48323 -4
      vertex 0.533719 -8.48323 0
      vertex -0.533719 -8.48323 0
    endloop
  endfacet
  facet normal 0 -1 -0
    outer loop
      vertex 0.533719 -8.48323 0
      vertex -0.533719 -8.48323 -4
      vertex 0.533719 -8.48323 -4
    endloop
  endfacet
  facet normal 0.684546 0.72897 -0
    outer loop
      vertex 6.19623 5.81865 -4
      vertex 5.4181 6.54936 0
      vertex 6.19623 5.81865 0
    endloop
  endfacet
  facet normal 0.684546 0.72897 0
    outer loop
      vertex 5.4181 6.54936 0
      vertex 6.19623 5.81865 -4
      vertex 5.4181 6.54936 -4
    endloop
  endfacet
  facet normal -0.684546 0.72897 0
    outer loop
      vertex -5.4181 6.54936 -4
      vertex -6.19623 5.81865 0
      vertex -5.4181 6.54936 0
    endloop
  endfacet
  facet normal -0.684546 0.72897 0
    outer loop
      vertex -6.19623 5.81865 0
      vertex -5.4181 6.54936 -4
      vertex -6.19623 5.81865 -4
    endloop
  endfacet
  facet normal -0.368124 0.929777 0
    outer loop
      vertex -2.62664 8.08398 -4
      vertex -3.61912 7.69103 0
      vertex -2.62664 8.08398 0
    endloop
  endfacet
  facet normal -0.368124 0.929777 0
    outer loop
      vertex -3.61912 7.69103 0
      vertex -2.62664 8.08398 -4
      vertex -3.61912 7.69103 -4
    endloop
  endfacet
  facet normal 0.904829 0.425776 0
    outer loop
      vertex 7.9031 3.12906 0
      vertex 7.44861 4.09491 -4
      vertex 7.44861 4.09491 0
    endloop
  endfacet
  facet normal 0.904829 0.425776 0
    outer loop
      vertex 7.44861 4.09491 -4
      vertex 7.9031 3.12906 0
      vertex 7.9031 3.12906 -4
    endloop
  endfacet
  facet normal 0.368124 0.929777 -0
    outer loop
      vertex 3.61912 7.69103 -4
      vertex 2.62664 8.08398 0
      vertex 3.61912 7.69103 0
    endloop
  endfacet
  facet normal 0.368124 0.929777 0
    outer loop
      vertex 2.62664 8.08398 0
      vertex 3.61912 7.69103 -4
      vertex 2.62664 8.08398 -4
    endloop
  endfacet
  facet normal 0.24869 0.968583 -0
    outer loop
      vertex 2.62664 8.08398 -4
      vertex 1.59274 8.34944 0
      vertex 2.62664 8.08398 0
    endloop
  endfacet
  facet normal 0.24869 0.968583 0
    outer loop
      vertex 1.59274 8.34944 0
      vertex 2.62664 8.08398 -4
      vertex 1.59274 8.34944 -4
    endloop
  endfacet
  facet normal 0.481749 0.876309 -0
    outer loop
      vertex 4.55453 7.17679 -4
      vertex 3.61912 7.69103 0
      vertex 4.55453 7.17679 0
    endloop
  endfacet
  facet normal 0.481749 0.876309 0
    outer loop
      vertex 3.61912 7.69103 0
      vertex 4.55453 7.17679 -4
      vertex 3.61912 7.69103 -4
    endloop
  endfacet
  facet normal -0.904829 0.425776 0
    outer loop
      vertex -7.9031 3.12906 -4
      vertex -7.44861 4.09491 0
      vertex -7.44861 4.09491 -4
    endloop
  endfacet
  facet normal -0.904829 0.425776 0
    outer loop
      vertex -7.44861 4.09491 0
      vertex -7.9031 3.12906 -4
      vertex -7.9031 3.12906 0
    endloop
  endfacet
  facet normal 0 0 1
    outer loop
      vertex 5.6 0 0
      vertex 8.5 0 0
      vertex 8.43297 1.06533 0
    endloop
  endfacet
  facet normal 0 0 1
    outer loop
      vertex 5.55584 0.701865 0
      vertex 8.43297 1.06533 0
      vertex 8.23296 2.11386 0
    endloop
  endfacet
  facet normal 0 0 1
    outer loop
      vertex 8.5 0 0
      vertex 5.6 0 0
      vertex 8.43297 -1.06533 0
    endloop
  endfacet
  facet normal 0 0 1
    outer loop
      vertex 5.42407 1.39266 0
      vertex 8.23296 2.11386 0
      vertex 7.9031 3.12906 0
    endloop
  endfacet
  facet normal -0 0 1
    outer loop
      vertex 5.55584 -0.701865 0
      vertex 8.43297 -1.06533 0
      vertex 5.6 0 0
    endloop
  endfacet
  facet normal 0 0 1
    outer loop
      vertex 5.20675 2.0615 0
      vertex 7.9031 3.12906 0
      vertex 7.44861 4.09491 0
    endloop
  endfacet
  facet normal 0 0 1
    outer loop
      vertex 8.43297 -1.06533 0
      vertex 5.55584 -0.701865 0
      vertex 8.23296 -2.11386 0
    endloop
  endfacet
  facet normal 0 0 1
    outer loop
      vertex 4.90732 2.69782 0
      vertex 7.44861 4.09491 0
      vertex 6.87664 4.99617 0
    endloop
  endfacet
  facet normal -0 0 1
    outer loop
      vertex 5.42407 -1.39266 0
      vertex 8.23296 -2.11386 0
      vertex 5.55584 -0.701865 0
    endloop
  endfacet
  facet normal 0 0 1
    outer loop
      vertex 4.53049 3.2916 0
      vertex 6.87664 4.99617 0
      vertex 6.19623 5.81865 0
    endloop
  endfacet
  facet normal 0 0 1
    outer loop
      vertex 8.23296 -2.11386 0
      vertex 5.42407 -1.39266 0
      vertex 7.9031 -3.12906 0
    endloop
  endfacet
  facet normal -0 0 1
    outer loop
      vertex 5.20675 -2.0615 0
      vertex 7.9031 -3.12906 0
      vertex 5.42407 -1.39266 0
    endloop
  endfacet
  facet normal 0 0 1
    outer loop
      vertex 8.43297 1.06533 0
      vertex 5.55584 0.701865 0
      vertex 5.6 0 0
    endloop
  endfacet
  facet normal 0 0 1
    outer loop
      vertex 8.23296 2.11386 0
      vertex 5.42407 1.39266 0
      vertex 5.55584 0.701865 0
    endloop
  endfacet
  facet normal 0 0 1
    outer loop
      vertex 4.08222 3.83346 0
      vertex 6.19623 5.81865 0
      vertex 5.4181 6.54936 0
    endloop
  endfacet
  facet normal 0 0 1
    outer loop
      vertex 7.9031 3.12906 0
      vertex 5.20675 2.0615 0
      vertex 5.42407 1.39266 0
    endloop
  endfacet
  facet normal 0 0 1
    outer loop
      vertex 7.44861 4.09491 0
      vertex 4.90732 2.69782 0
      vertex 5.20675 2.0615 0
    endloop
  endfacet
  facet normal 0 0 1
    outer loop
      vertex 3.56957 4.31487 0
      vertex 5.4181 6.54936 0
      vertex 4.55453 7.17679 0
    endloop
  endfacet
  facet normal 0 0 1
    outer loop
      vertex 6.87664 4.99617 0
      vertex 4.53049 3.2916 0
      vertex 4.90732 2.69782 0
    endloop
  endfacet
  facet normal 0 0 1
    outer loop
      vertex 6.19623 5.81865 0
      vertex 4.08222 3.83346 0
      vertex 4.53049 3.2916 0
    endloop
  endfacet
  facet normal 0 0 1
    outer loop
      vertex 3.00063 4.72824 0
      vertex 4.55453 7.17679 0
      vertex 3.61912 7.69103 0
    endloop
  endfacet
  facet normal 0 0 1
    outer loop
      vertex 5.4181 6.54936 0
      vertex 3.56957 4.31487 0
      vertex 4.08222 3.83346 0
    endloop
  endfacet
  facet normal 0 0 1
    outer loop
      vertex 4.55453 7.17679 0
      vertex 3.00063 4.72824 0
      vertex 3.56957 4.31487 0
    endloop
  endfacet
  facet normal 0 0 1
    outer loop
      vertex 2.38436 5.06703 0
      vertex 3.61912 7.69103 0
      vertex 2.62664 8.08398 0
    endloop
  endfacet
  facet normal 0 0 1
    outer loop
      vertex 3.61912 7.69103 0
      vertex 2.38436 5.06703 0
      vertex 3.00063 4.72824 0
    endloop
  endfacet
  facet normal 0 0 1
    outer loop
      vertex 2.62664 8.08398 0
      vertex 1.73049 5.32592 0
      vertex 2.38436 5.06703 0
    endloop
  endfacet
  facet normal 0 0 1
    outer loop
      vertex 1.59274 8.34944 0
      vertex 1.73049 5.32592 0
      vertex 2.62664 8.08398 0
    endloop
  endfacet
  facet normal 0 0 1
    outer loop
      vertex 1.59274 8.34944 0
      vertex 1.04933 5.50081 0
      vertex 1.73049 5.32592 0
    endloop
  endfacet
  facet normal 0 0 1
    outer loop
      vertex 0.533719 8.48323 0
      vertex 1.04933 5.50081 0
      vertex 1.59274 8.34944 0
    endloop
  endfacet
  facet normal 0 0 1
    outer loop
      vertex 0.533719 8.48323 0
      vertex 0.351626 5.58895 0
      vertex 1.04933 5.50081 0
    endloop
  endfacet
  facet normal 0 0 1
    outer loop
      vertex 0.533719 8.48323 0
      vertex -0.351626 5.58895 0
      vertex 0.351626 5.58895 0
    endloop
  endfacet
  facet normal -0 0 1
    outer loop
      vertex -0.533719 8.48323 0
      vertex -0.351626 5.58895 0
      vertex 0.533719 8.48323 0
    endloop
  endfacet
  facet normal 0 0 1
    outer loop
      vertex -0.533719 8.48323 0
      vertex -1.04933 5.50081 0
      vertex -0.351626 5.58895 0
    endloop
  endfacet
  facet normal -0 0 1
    outer loop
      vertex -1.59274 8.34944 0
      vertex -1.04933 5.50081 0
      vertex -0.533719 8.48323 0
    endloop
  endfacet
  facet normal 0 0 1
    outer loop
      vertex -1.59274 8.34944 0
      vertex -1.73049 5.32592 0
      vertex -1.04933 5.50081 0
    endloop
  endfacet
  facet normal -0 0 1
    outer loop
      vertex -2.62664 8.08398 0
      vertex -1.73049 5.32592 0
      vertex -1.59274 8.34944 0
    endloop
  endfacet
  facet normal 0 0 1
    outer loop
      vertex -1.73049 5.32592 0
      vertex -2.62664 8.08398 0
      vertex -2.38436 5.06703 0
    endloop
  endfacet
  facet normal -0 0 1
    outer loop
      vertex -3.61912 7.69103 0
      vertex -2.38436 5.06703 0
      vertex -2.62664 8.08398 0
    endloop
  endfacet
  facet normal 0 0 1
    outer loop
      vertex -2.38436 5.06703 0
      vertex -3.61912 7.69103 0
      vertex -3.00063 4.72824 0
    endloop
  endfacet
  facet normal -0 0 1
    outer loop
      vertex -4.55453 7.17679 0
      vertex -3.00063 4.72824 0
      vertex -3.61912 7.69103 0
    endloop
  endfacet
  facet normal 0 0 1
    outer loop
      vertex -3.00063 4.72824 0
      vertex -4.55453 7.17679 0
      vertex -3.56957 4.31487 0
    endloop
  endfacet
  facet normal -0 0 1
    outer loop
      vertex -5.4181 6.54936 0
      vertex -3.56957 4.31487 0
      vertex -4.55453 7.17679 0
    endloop
  endfacet
  facet normal 0 0 1
    outer loop
      vertex -3.56957 4.31487 0
      vertex -5.4181 6.54936 0
      vertex -4.08222 3.83346 0
    endloop
  endfacet
  facet normal -0 0 1
    outer loop
      vertex -6.19623 5.81865 0
      vertex -4.08222 3.83346 0
      vertex -5.4181 6.54936 0
    endloop
  endfacet
  facet normal 0 0 1
    outer loop
      vertex -4.08222 3.83346 0
      vertex -6.19623 5.81865 0
      vertex -4.53049 3.2916 0
    endloop
  endfacet
  facet normal -0 0 1
    outer loop
      vertex -6.87664 4.99617 0
      vertex -4.53049 3.2916 0
      vertex -6.19623 5.81865 0
    endloop
  endfacet
  facet normal 0 0 1
    outer loop
      vertex -4.53049 3.2916 0
      vertex -6.87664 4.99617 0
      vertex -4.90732 2.69782 0
    endloop
  endfacet
  facet normal -0 0 1
    outer loop
      vertex -7.44861 4.09491 0
      vertex -4.90732 2.69782 0
      vertex -6.87664 4.99617 0
    endloop
  endfacet
  facet normal 0 0 1
    outer loop
      vertex -4.90732 2.69782 0
      vertex -7.44861 4.09491 0
      vertex -5.20675 2.0615 0
    endloop
  endfacet
  facet normal -0 0 1
    outer loop
      vertex -7.9031 3.12906 0
      vertex -5.20675 2.0615 0
      vertex -7.44861 4.09491 0
    endloop
  endfacet
  facet normal 0 0 1
    outer loop
      vertex 7.9031 -3.12906 0
      vertex 5.20675 -2.0615 0
      vertex 7.44861 -4.09491 0
    endloop
  endfacet
  facet normal -0 0 1
    outer loop
      vertex 4.90732 -2.69782 0
      vertex 7.44861 -4.09491 0
      vertex 5.20675 -2.0615 0
    endloop
  endfacet
  facet normal 0 0 1
    outer loop
      vertex 7.44861 -4.09491 0
      vertex 4.90732 -2.69782 0
      vertex 6.87664 -4.99617 0
    endloop
  endfacet
  facet normal -0 0 1
    outer loop
      vertex 4.53049 -3.2916 0
      vertex 6.87664 -4.99617 0
      vertex 4.90732 -2.69782 0
    endloop
  endfacet
  facet normal 0 0 1
    outer loop
      vertex 6.87664 -4.99617 0
      vertex 4.53049 -3.2916 0
      vertex 6.19623 -5.81865 0
    endloop
  endfacet
  facet normal -0 0 1
    outer loop
      vertex 4.08222 -3.83346 0
      vertex 6.19623 -5.81865 0
      vertex 4.53049 -3.2916 0
    endloop
  endfacet
  facet normal 0 0 1
    outer loop
      vertex 6.19623 -5.81865 0
      vertex 4.08222 -3.83346 0
      vertex 5.4181 -6.54936 0
    endloop
  endfacet
  facet normal -0 0 1
    outer loop
      vertex 3.56957 -4.31487 0
      vertex 5.4181 -6.54936 0
      vertex 4.08222 -3.83346 0
    endloop
  endfacet
  facet normal 0 0 1
    outer loop
      vertex 5.4181 -6.54936 0
      vertex 3.56957 -4.31487 0
      vertex 4.55453 -7.17679 0
    endloop
  endfacet
  facet normal -0 0 1
    outer loop
      vertex 3.00063 -4.72824 0
      vertex 4.55453 -7.17679 0
      vertex 3.56957 -4.31487 0
    endloop
  endfacet
  facet normal 0 0 1
    outer loop
      vertex 4.55453 -7.17679 0
      vertex 3.00063 -4.72824 0
      vertex 3.61912 -7.69103 0
    endloop
  endfacet
  facet normal -0 0 1
    outer loop
      vertex 2.38436 -5.06703 0
      vertex 3.61912 -7.69103 0
      vertex 3.00063 -4.72824 0
    endloop
  endfacet
  facet normal 0 0 1
    outer loop
      vertex 3.61912 -7.69103 0
      vertex 2.38436 -5.06703 0
      vertex 2.62664 -8.08398 0
    endloop
  endfacet
  facet normal -0 0 1
    outer loop
      vertex 1.73049 -5.32592 0
      vertex 2.62664 -8.08398 0
      vertex 2.38436 -5.06703 0
    endloop
  endfacet
  facet normal 0 0 1
    outer loop
      vertex 1.73049 -5.32592 0
      vertex 1.59274 -8.34944 0
      vertex 2.62664 -8.08398 0
    endloop
  endfacet
  facet normal -0 0 1
    outer loop
      vertex 1.04933 -5.50081 0
      vertex 1.59274 -8.34944 0
      vertex 1.73049 -5.32592 0
    endloop
  endfacet
  facet normal 0 0 1
    outer loop
      vertex 1.04933 -5.50081 0
      vertex 0.533719 -8.48323 0
      vertex 1.59274 -8.34944 0
    endloop
  endfacet
  facet normal -0 0 1
    outer loop
      vertex 0.351626 -5.58895 0
      vertex 0.533719 -8.48323 0
      vertex 1.04933 -5.50081 0
    endloop
  endfacet
  facet normal -0 0 1
    outer loop
      vertex -0.351626 -5.58895 0
      vertex 0.533719 -8.48323 0
      vertex 0.351626 -5.58895 0
    endloop
  endfacet
  facet normal 0 0 1
    outer loop
      vertex -0.351626 -5.58895 0
      vertex -0.533719 -8.48323 0
      vertex 0.533719 -8.48323 0
    endloop
  endfacet
  facet normal 0 0 1
    outer loop
      vertex -1.04933 -5.50081 0
      vertex -0.533719 -8.48323 0
      vertex -0.351626 -5.58895 0
    endloop
  endfacet
  facet normal 0 0 1
    outer loop
      vertex -1.04933 -5.50081 0
      vertex -1.59274 -8.34944 0
      vertex -0.533719 -8.48323 0
    endloop
  endfacet
  facet normal 0 0 1
    outer loop
      vertex -1.73049 -5.32592 0
      vertex -1.59274 -8.34944 0
      vertex -1.04933 -5.50081 0
    endloop
  endfacet
  facet normal 0 0 1
    outer loop
      vertex -2.62664 -8.08398 0
      vertex -1.73049 -5.32592 0
      vertex -2.38436 -5.06703 0
    endloop
  endfacet
  facet normal 0 0 1
    outer loop
      vertex -1.73049 -5.32592 0
      vertex -2.62664 -8.08398 0
      vertex -1.59274 -8.34944 0
    endloop
  endfacet
  facet normal 0 0 1
    outer loop
      vertex -3.61912 -7.69103 0
      vertex -2.38436 -5.06703 0
      vertex -3.00063 -4.72824 0
    endloop
  endfacet
  facet normal 0 0 1
    outer loop
      vertex -4.55453 -7.17679 0
      vertex -3.00063 -4.72824 0
      vertex -3.56957 -4.31487 0
    endloop
  endfacet
  facet normal 0 0 1
    outer loop
      vertex -2.38436 -5.06703 0
      vertex -3.61912 -7.69103 0
      vertex -2.62664 -8.08398 0
    endloop
  endfacet
  facet normal 0 0 1
    outer loop
      vertex -5.4181 -6.54936 0
      vertex -3.56957 -4.31487 0
      vertex -4.08222 -3.83346 0
    endloop
  endfacet
  facet normal 0 0 1
    outer loop
      vertex -6.19623 -5.81865 0
      vertex -4.08222 -3.83346 0
      vertex -4.53049 -3.2916 0
    endloop
  endfacet
  facet normal 0 0 1
    outer loop
      vertex -3.00063 -4.72824 0
      vertex -4.55453 -7.17679 0
      vertex -3.61912 -7.69103 0
    endloop
  endfacet
  facet normal 0 0 1
    outer loop
      vertex -6.87664 -4.99617 0
      vertex -4.53049 -3.2916 0
      vertex -4.90732 -2.69782 0
    endloop
  endfacet
  facet normal 0 0 1
    outer loop
      vertex -7.44861 -4.09491 0
      vertex -4.90732 -2.69782 0
      vertex -5.20675 -2.0615 0
    endloop
  endfacet
  facet normal 0 0 1
    outer loop
      vertex -3.56957 -4.31487 0
      vertex -5.4181 -6.54936 0
      vertex -4.55453 -7.17679 0
    endloop
  endfacet
  facet normal 0 0 1
    outer loop
      vertex -7.9031 -3.12906 0
      vertex -5.20675 -2.0615 0
      vertex -5.42407 -1.39266 0
    endloop
  endfacet
  facet normal 0 0 1
    outer loop
      vertex -8.23296 -2.11386 0
      vertex -5.42407 -1.39266 0
      vertex -5.55584 -0.701865 0
    endloop
  endfacet
  facet normal 0 0 1
    outer loop
      vertex -8.43297 -1.06533 0
      vertex -5.55584 -0.701865 0
      vertex -5.6 0 0
    endloop
  endfacet
  facet normal 0 0 1
    outer loop
      vertex -5.20675 2.0615 0
      vertex -7.9031 3.12906 0
      vertex -5.42407 1.39266 0
    endloop
  endfacet
  facet normal 0 0 1
    outer loop
      vertex -4.08222 -3.83346 0
      vertex -6.19623 -5.81865 0
      vertex -5.4181 -6.54936 0
    endloop
  endfacet
  facet normal -0 0 1
    outer loop
      vertex -8.23296 2.11386 0
      vertex -5.42407 1.39266 0
      vertex -7.9031 3.12906 0
    endloop
  endfacet
  facet normal 0 0 1
    outer loop
      vertex -4.53049 -3.2916 0
      vertex -6.87664 -4.99617 0
      vertex -6.19623 -5.81865 0
    endloop
  endfacet
  facet normal 0 0 1
    outer loop
      vertex -5.42407 1.39266 0
      vertex -8.23296 2.11386 0
      vertex -5.55584 0.701865 0
    endloop
  endfacet
  facet normal 0 0 1
    outer loop
      vertex -4.90732 -2.69782 0
      vertex -7.44861 -4.09491 0
      vertex -6.87664 -4.99617 0
    endloop
  endfacet
  facet normal -0 0 1
    outer loop
      vertex -8.43297 1.06533 0
      vertex -5.55584 0.701865 0
      vertex -8.23296 2.11386 0
    endloop
  endfacet
  facet normal 0 0 1
    outer loop
      vertex -5.20675 -2.0615 0
      vertex -7.9031 -3.12906 0
      vertex -7.44861 -4.09491 0
    endloop
  endfacet
  facet normal 0 0 1
    outer loop
      vertex -5.55584 0.701865 0
      vertex -8.43297 1.06533 0
      vertex -5.6 0 0
    endloop
  endfacet
  facet normal 0 0 1
    outer loop
      vertex -5.42407 -1.39266 0
      vertex -8.23296 -2.11386 0
      vertex -7.9031 -3.12906 0
    endloop
  endfacet
  facet normal 0 0 1
    outer loop
      vertex -8.5 0 0
      vertex -5.6 0 0
      vertex -8.43297 1.06533 0
    endloop
  endfacet
  facet normal 0 0 1
    outer loop
      vertex -5.55584 -0.701865 0
      vertex -8.43297 -1.06533 0
      vertex -8.23296 -2.11386 0
    endloop
  endfacet
  facet normal 0 0 1
    outer loop
      vertex -5.6 0 0
      vertex -8.5 0 0
      vertex -8.43297 -1.06533 0
    endloop
  endfacet
  facet normal -0.125337 0.992114 0
    outer loop
      vertex -0.533719 8.48323 -4
      vertex -1.59274 8.34944 0
      vertex -0.533719 8.48323 0
    endloop
  endfacet
  facet normal -0.125337 0.992114 0
    outer loop
      vertex -1.59274 8.34944 0
      vertex -0.533719 8.48323 -4
      vertex -1.59274 8.34944 -4
    endloop
  endfacet
  facet normal 0 0 -1
    outer loop
      vertex 8.43297 -1.06533 -4
      vertex 8.43297 1.06533 -4
      vertex 8.5 0 -4
    endloop
  endfacet
  facet normal 0 0 -1
    outer loop
      vertex 8.23296 -2.11386 -4
      vertex 8.43297 1.06533 -4
      vertex 8.43297 -1.06533 -4
    endloop
  endfacet
  facet normal 0 0 -1
    outer loop
      vertex 8.23296 -2.11386 -4
      vertex 8.23296 2.11386 -4
      vertex 8.43297 1.06533 -4
    endloop
  endfacet
  facet normal 0 0 -1
    outer loop
      vertex 7.9031 -3.12906 -4
      vertex 8.23296 2.11386 -4
      vertex 8.23296 -2.11386 -4
    endloop
  endfacet
  facet normal 0 0 -1
    outer loop
      vertex 7.9031 -3.12906 -4
      vertex 7.9031 3.12906 -4
      vertex 8.23296 2.11386 -4
    endloop
  endfacet
  facet normal 0 0 -1
    outer loop
      vertex 7.44861 -4.09491 -4
      vertex 7.9031 3.12906 -4
      vertex 7.9031 -3.12906 -4
    endloop
  endfacet
  facet normal 0 0 -1
    outer loop
      vertex 7.44861 -4.09491 -4
      vertex 7.44861 4.09491 -4
      vertex 7.9031 3.12906 -4
    endloop
  endfacet
  facet normal 0 0 -1
    outer loop
      vertex 6.87664 -4.99617 -4
      vertex 7.44861 4.09491 -4
      vertex 7.44861 -4.09491 -4
    endloop
  endfacet
  facet normal 0 0 -1
    outer loop
      vertex 6.87664 -4.99617 -4
      vertex 6.87664 4.99617 -4
      vertex 7.44861 4.09491 -4
    endloop
  endfacet
  facet normal 0 0 -1
    outer loop
      vertex 6.19623 -5.81865 -4
      vertex 6.87664 4.99617 -4
      vertex 6.87664 -4.99617 -4
    endloop
  endfacet
  facet normal 0 0 -1
    outer loop
      vertex 6.19623 -5.81865 -4
      vertex 6.19623 5.81865 -4
      vertex 6.87664 4.99617 -4
    endloop
  endfacet
  facet normal 0 0 -1
    outer loop
      vertex 5.4181 -6.54936 -4
      vertex 6.19623 5.81865 -4
      vertex 6.19623 -5.81865 -4
    endloop
  endfacet
  facet normal 0 0 -1
    outer loop
      vertex 5.4181 -6.54936 -4
      vertex 5.4181 6.54936 -4
      vertex 6.19623 5.81865 -4
    endloop
  endfacet
  facet normal 0 0 -1
    outer loop
      vertex 4.55453 -7.17679 -4
      vertex 5.4181 6.54936 -4
      vertex 5.4181 -6.54936 -4
    endloop
  endfacet
  facet normal 0 0 -1
    outer loop
      vertex 4.55453 -7.17679 -4
      vertex 4.55453 7.17679 -4
      vertex 5.4181 6.54936 -4
    endloop
  endfacet
  facet normal 0 0 -1
    outer loop
      vertex 3.61912 -7.69103 -4
      vertex 4.55453 7.17679 -4
      vertex 4.55453 -7.17679 -4
    endloop
  endfacet
  facet normal 0 0 -1
    outer loop
      vertex 3.61912 -7.69103 -4
      vertex 3.61912 7.69103 -4
      vertex 4.55453 7.17679 -4
    endloop
  endfacet
  facet normal 0 0 -1
    outer loop
      vertex 2.62664 -8.08398 -4
      vertex 3.61912 7.69103 -4
      vertex 3.61912 -7.69103 -4
    endloop
  endfacet
  facet normal 0 0 -1
    outer loop
      vertex 2.62664 -8.08398 -4
      vertex 2.62664 8.08398 -4
      vertex 3.61912 7.69103 -4
    endloop
  endfacet
  facet normal 0 0 -1
    outer loop
      vertex 1.59274 -8.34944 -4
      vertex 2.62664 8.08398 -4
      vertex 2.62664 -8.08398 -4
    endloop
  endfacet
  facet normal 0 0 -1
    outer loop
      vertex 1.59274 -8.34944 -4
      vertex 1.59274 8.34944 -4
      vertex 2.62664 8.08398 -4
    endloop
  endfacet
  facet normal 0 0 -1
    outer loop
      vertex 0.533719 -8.48323 -4
      vertex 1.59274 8.34944 -4
      vertex 1.59274 -8.34944 -4
    endloop
  endfacet
  facet normal 0 0 -1
    outer loop
      vertex 0.533719 -8.48323 -4
      vertex 0.533719 8.48323 -4
      vertex 1.59274 8.34944 -4
    endloop
  endfacet
  facet normal 0 0 -1
    outer loop
      vertex -0.533719 -8.48323 -4
      vertex 0.533719 8.48323 -4
      vertex 0.533719 -8.48323 -4
    endloop
  endfacet
  facet normal 0 0 -1
    outer loop
      vertex -0.533719 -8.48323 -4
      vertex -0.533719 8.48323 -4
      vertex 0.533719 8.48323 -4
    endloop
  endfacet
  facet normal 0 0 -1
    outer loop
      vertex -1.59274 -8.34944 -4
      vertex -0.533719 8.48323 -4
      vertex -0.533719 -8.48323 -4
    endloop
  endfacet
  facet normal 0 0 -1
    outer loop
      vertex -1.59274 -8.34944 -4
      vertex -1.59274 8.34944 -4
      vertex -0.533719 8.48323 -4
    endloop
  endfacet
  facet normal 0 0 -1
    outer loop
      vertex -2.62664 -8.08398 -4
      vertex -1.59274 8.34944 -4
      vertex -1.59274 -8.34944 -4
    endloop
  endfacet
  facet normal 0 0 -1
    outer loop
      vertex -2.62664 -8.08398 -4
      vertex -2.62664 8.08398 -4
      vertex -1.59274 8.34944 -4
    endloop
  endfacet
  facet normal 0 0 -1
    outer loop
      vertex -3.61912 -7.69103 -4
      vertex -2.62664 8.08398 -4
      vertex -2.62664 -8.08398 -4
    endloop
  endfacet
  facet normal 0 0 -1
    outer loop
      vertex -3.61912 -7.69103 -4
      vertex -3.61912 7.69103 -4
      vertex -2.62664 8.08398 -4
    endloop
  endfacet
  facet normal 0 0 -1
    outer loop
      vertex -4.55453 -7.17679 -4
      vertex -3.61912 7.69103 -4
      vertex -3.61912 -7.69103 -4
    endloop
  endfacet
  facet normal 0 0 -1
    outer loop
      vertex -4.55453 -7.17679 -4
      vertex -4.55453 7.17679 -4
      vertex -3.61912 7.69103 -4
    endloop
  endfacet
  facet normal 0 0 -1
    outer loop
      vertex -5.4181 -6.54936 -4
      vertex -4.55453 7.17679 -4
      vertex -4.55453 -7.17679 -4
    endloop
  endfacet
  facet normal 0 0 -1
    outer loop
      vertex -5.4181 -6.54936 -4
      vertex -5.4181 6.54936 -4
      vertex -4.55453 7.17679 -4
    endloop
  endfacet
  facet normal 0 0 -1
    outer loop
      vertex -6.19623 -5.81865 -4
      vertex -5.4181 6.54936 -4
      vertex -5.4181 -6.54936 -4
    endloop
  endfacet
  facet normal 0 0 -1
    outer loop
      vertex -6.19623 -5.81865 -4
      vertex -6.19623 5.81865 -4
      vertex -5.4181 6.54936 -4
    endloop
  endfacet
  facet normal 0 0 -1
    outer loop
      vertex -6.87664 -4.99617 -4
      vertex -6.19623 5.81865 -4
      vertex -6.19623 -5.81865 -4
    endloop
  endfacet
  facet normal 0 0 -1
    outer loop
      vertex -6.87664 -4.99617 -4
      vertex -6.87664 4.99617 -4
      vertex -6.19623 5.81865 -4
    endloop
  endfacet
  facet normal 0 0 -1
    outer loop
      vertex -7.44861 -4.09491 -4
      vertex -6.87664 4.99617 -4
      vertex -6.87664 -4.99617 -4
    endloop
  endfacet
  facet normal 0 0 -1
    outer loop
      vertex -7.44861 -4.09491 -4
      vertex -7.44861 4.09491 -4
      vertex -6.87664 4.99617 -4
    endloop
  endfacet
  facet normal 0 0 -1
    outer loop
      vertex -7.9031 -3.12906 -4
      vertex -7.44861 4.09491 -4
      vertex -7.44861 -4.09491 -4
    endloop
  endfacet
  facet normal 0 0 -1
    outer loop
      vertex -7.9031 -3.12906 -4
      vertex -7.9031 3.12906 -4
      vertex -7.44861 4.09491 -4
    endloop
  endfacet
  facet normal 0 0 -1
    outer loop
      vertex -8.23296 -2.11386 -4
      vertex -7.9031 3.12906 -4
      vertex -7.9031 -3.12906 -4
    endloop
  endfacet
  facet normal 0 0 -1
    outer loop
      vertex -8.23296 -2.11386 -4
      vertex -8.23296 2.11386 -4
      vertex -7.9031 3.12906 -4
    endloop
  endfacet
  facet normal 0 0 -1
    outer loop
      vertex -8.43297 -1.06533 -4
      vertex -8.23296 2.11386 -4
      vertex -8.23296 -2.11386 -4
    endloop
  endfacet
  facet normal 0 0 -1
    outer loop
      vertex -8.43297 -1.06533 -4
      vertex -8.43297 1.06533 -4
      vertex -8.23296 2.11386 -4
    endloop
  endfacet
  facet normal 0 -0 -1
    outer loop
      vertex -8.43297 1.06533 -4
      vertex -8.43297 -1.06533 -4
      vertex -8.5 0 -4
    endloop
  endfacet
  facet normal 0.125337 -0.992114 0
    outer loop
      vertex 0.533719 -8.48323 -4
      vertex 1.59274 -8.34944 0
      vertex 0.533719 -8.48323 0
    endloop
  endfacet
  facet normal 0.125337 -0.992114 0
    outer loop
      vertex 1.59274 -8.34944 0
      vertex 0.533719 -8.48323 -4
      vertex 1.59274 -8.34944 -4
    endloop
  endfacet
  facet normal 0.951056 0.309018 0
    outer loop
      vertex 8.23296 2.11386 0
      vertex 7.9031 3.12906 -4
      vertex 7.9031 3.12906 0
    endloop
  endfacet
  facet normal 0.951056 0.309018 0
    outer loop
      vertex 7.9031 3.12906 -4
      vertex 8.23296 2.11386 0
      vertex 8.23296 2.11386 -4
    endloop
  endfacet
  facet normal 0.982289 0.187374 0
    outer loop
      vertex 8.43297 1.06533 0
      vertex 8.23296 2.11386 -4
      vertex 8.23296 2.11386 0
    endloop
  endfacet
  facet normal 0.982289 0.187374 0
    outer loop
      vertex 8.23296 2.11386 -4
      vertex 8.43297 1.06533 0
      vertex 8.43297 1.06533 -4
    endloop
  endfacet
  facet normal 0.770515 0.637421 0
    outer loop
      vertex 6.87664 4.99617 0
      vertex 6.19623 5.81865 -4
      vertex 6.19623 5.81865 0
    endloop
  endfacet
  facet normal 0.770515 0.637421 0
    outer loop
      vertex 6.19623 5.81865 -4
      vertex 6.87664 4.99617 0
      vertex 6.87664 4.99617 -4
    endloop
  endfacet
  facet normal 0.844322 0.535835 0
    outer loop
      vertex 7.44861 4.09491 0
      vertex 6.87664 4.99617 -4
      vertex 6.87664 4.99617 0
    endloop
  endfacet
  facet normal 0.844322 0.535835 0
    outer loop
      vertex 6.87664 4.99617 -4
      vertex 7.44861 4.09491 0
      vertex 7.44861 4.09491 -4
    endloop
  endfacet
  facet normal 0.125337 0.992114 -0
    outer loop
      vertex 1.59274 8.34944 -4
      vertex 0.533719 8.48323 0
      vertex 1.59274 8.34944 0
    endloop
  endfacet
  facet normal 0.125337 0.992114 0
    outer loop
      vertex 0.533719 8.48323 0
      vertex 1.59274 8.34944 -4
      vertex 0.533719 8.48323 -4
    endloop
  endfacet
  facet normal 0.587791 0.809013 -0
    outer loop
      vertex 5.4181 6.54936 -4
      vertex 4.55453 7.17679 0
      vertex 5.4181 6.54936 0
    endloop
  endfacet
  facet normal 0.587791 0.809013 0
    outer loop
      vertex 4.55453 7.17679 0
      vertex 5.4181 6.54936 -4
      vertex 4.55453 7.17679 -4
    endloop
  endfacet
  facet normal -0.844322 0.535835 0
    outer loop
      vertex -7.44861 4.09491 -4
      vertex -6.87664 4.99617 0
      vertex -6.87664 4.99617 -4
    endloop
  endfacet
  facet normal -0.844322 0.535835 0
    outer loop
      vertex -6.87664 4.99617 0
      vertex -7.44861 4.09491 -4
      vertex -7.44861 4.09491 0
    endloop
  endfacet
  facet normal -0.770515 0.637421 0
    outer loop
      vertex -6.87664 4.99617 -4
      vertex -6.19623 5.81865 0
      vertex -6.19623 5.81865 -4
    endloop
  endfacet
  facet normal -0.770515 0.637421 0
    outer loop
      vertex -6.19623 5.81865 0
      vertex -6.87664 4.99617 -4
      vertex -6.87664 4.99617 0
    endloop
  endfacet
  facet normal -0.951056 0.309018 0
    outer loop
      vertex -8.23296 2.11386 -4
      vertex -7.9031 3.12906 0
      vertex -7.9031 3.12906 -4
    endloop
  endfacet
  facet normal -0.951056 0.309018 0
    outer loop
      vertex -7.9031 3.12906 0
      vertex -8.23296 2.11386 -4
      vertex -8.23296 2.11386 0
    endloop
  endfacet
  facet normal -0.982289 0.187374 0
    outer loop
      vertex -8.43297 1.06533 -4
      vertex -8.23296 2.11386 0
      vertex -8.23296 2.11386 -4
    endloop
  endfacet
  facet normal -0.982289 0.187374 0
    outer loop
      vertex -8.23296 2.11386 0
      vertex -8.43297 1.06533 -4
      vertex -8.43297 1.06533 0
    endloop
  endfacet
  facet normal -0.481749 0.876309 0
    outer loop
      vertex -3.61912 7.69103 -4
      vertex -4.55453 7.17679 0
      vertex -3.61912 7.69103 0
    endloop
  endfacet
  facet normal -0.481749 0.876309 0
    outer loop
      vertex -4.55453 7.17679 0
      vertex -3.61912 7.69103 -4
      vertex -4.55453 7.17679 -4
    endloop
  endfacet
  facet normal -0.587791 0.809013 0
    outer loop
      vertex -4.55453 7.17679 -4
      vertex -5.4181 6.54936 0
      vertex -4.55453 7.17679 0
    endloop
  endfacet
  facet normal -0.587791 0.809013 0
    outer loop
      vertex -5.4181 6.54936 0
      vertex -4.55453 7.17679 -4
      vertex -5.4181 6.54936 -4
    endloop
  endfacet
  facet normal -0.24869 0.968583 0
    outer loop
      vertex -1.59274 8.34944 -4
      vertex -2.62664 8.08398 0
      vertex -1.59274 8.34944 0
    endloop
  endfacet
  facet normal -0.24869 0.968583 0
    outer loop
      vertex -2.62664 8.08398 0
      vertex -1.59274 8.34944 -4
      vertex -2.62664 8.08398 -4
    endloop
  endfacet
  facet normal 0.998026 -0.0627953 0
    outer loop
      vertex 8.43297 -1.06533 0
      vertex 8.5 0 -4
      vertex 8.5 0 0
    endloop
  endfacet
  facet normal 0.998026 -0.0627953 0
    outer loop
      vertex 8.5 0 -4
      vertex 8.43297 -1.06533 0
      vertex 8.43297 -1.06533 -4
    endloop
  endfacet
  facet normal 0.904829 -0.425776 0
    outer loop
      vertex 7.44861 -4.09491 0
      vertex 7.9031 -3.12906 -4
      vertex 7.9031 -3.12906 0
    endloop
  endfacet
  facet normal 0.904829 -0.425776 0
    outer loop
      vertex 7.9031 -3.12906 -4
      vertex 7.44861 -4.09491 0
      vertex 7.44861 -4.09491 -4
    endloop
  endfacet
  facet normal -0.684546 -0.72897 0
    outer loop
      vertex -6.19623 -5.81865 -4
      vertex -5.4181 -6.54936 0
      vertex -6.19623 -5.81865 0
    endloop
  endfacet
  facet normal -0.684546 -0.72897 -0
    outer loop
      vertex -5.4181 -6.54936 0
      vertex -6.19623 -5.81865 -4
      vertex -5.4181 -6.54936 -4
    endloop
  endfacet
  facet normal -0.904829 -0.425776 0
    outer loop
      vertex -7.44861 -4.09491 -4
      vertex -7.9031 -3.12906 0
      vertex -7.9031 -3.12906 -4
    endloop
  endfacet
  facet normal -0.904829 -0.425776 0
    outer loop
      vertex -7.9031 -3.12906 0
      vertex -7.44861 -4.09491 -4
      vertex -7.44861 -4.09491 0
    endloop
  endfacet
  facet normal -0.844322 -0.535835 0
    outer loop
      vertex -6.87664 -4.99617 -4
      vertex -7.44861 -4.09491 0
      vertex -7.44861 -4.09491 -4
    endloop
  endfacet
  facet normal -0.844322 -0.535835 0
    outer loop
      vertex -7.44861 -4.09491 0
      vertex -6.87664 -4.99617 -4
      vertex -6.87664 -4.99617 0
    endloop
  endfacet
  facet normal 0.481749 -0.876309 0
    outer loop
      vertex 3.61912 -7.69103 -4
      vertex 4.55453 -7.17679 0
      vertex 3.61912 -7.69103 0
    endloop
  endfacet
  facet normal 0.481749 -0.876309 0
    outer loop
      vertex 4.55453 -7.17679 0
      vertex 3.61912 -7.69103 -4
      vertex 4.55453 -7.17679 -4
    endloop
  endfacet
  facet normal 0.951056 -0.309018 0
    outer loop
      vertex 7.9031 -3.12906 0
      vertex 8.23296 -2.11386 -4
      vertex 8.23296 -2.11386 0
    endloop
  endfacet
  facet normal 0.951056 -0.309018 0
    outer loop
      vertex 8.23296 -2.11386 -4
      vertex 7.9031 -3.12906 0
      vertex 7.9031 -3.12906 -4
    endloop
  endfacet
  facet normal -0.770515 -0.637421 0
    outer loop
      vertex -6.19623 -5.81865 -4
      vertex -6.87664 -4.99617 0
      vertex -6.87664 -4.99617 -4
    endloop
  endfacet
  facet normal -0.770515 -0.637421 0
    outer loop
      vertex -6.87664 -4.99617 0
      vertex -6.19623 -5.81865 -4
      vertex -6.19623 -5.81865 0
    endloop
  endfacet
  facet normal -0.982289 -0.187374 0
    outer loop
      vertex -8.23296 -2.11386 -4
      vertex -8.43297 -1.06533 0
      vertex -8.43297 -1.06533 -4
    endloop
  endfacet
  facet normal -0.982289 -0.187374 0
    outer loop
      vertex -8.43297 -1.06533 0
      vertex -8.23296 -2.11386 -4
      vertex -8.23296 -2.11386 0
    endloop
  endfacet
  facet normal -0.998026 -0.0627953 0
    outer loop
      vertex -8.43297 -1.06533 -4
      vertex -8.5 0 0
      vertex -8.5 0 -4
    endloop
  endfacet
  facet normal -0.998026 -0.0627953 0
    outer loop
      vertex -8.5 0 0
      vertex -8.43297 -1.06533 -4
      vertex -8.43297 -1.06533 0
    endloop
  endfacet
  facet normal -0.951056 -0.309018 0
    outer loop
      vertex -7.9031 -3.12906 -4
      vertex -8.23296 -2.11386 0
      vertex -8.23296 -2.11386 -4
    endloop
  endfacet
  facet normal -0.951056 -0.309018 0
    outer loop
      vertex -8.23296 -2.11386 0
      vertex -7.9031 -3.12906 -4
      vertex -7.9031 -3.12906 0
    endloop
  endfacet
  facet normal 0.684546 -0.72897 0
    outer loop
      vertex 5.4181 -6.54936 -4
      vertex 6.19623 -5.81865 0
      vertex 5.4181 -6.54936 0
    endloop
  endfacet
  facet normal 0.684546 -0.72897 0
    outer loop
      vertex 6.19623 -5.81865 0
      vertex 5.4181 -6.54936 -4
      vertex 6.19623 -5.81865 -4
    endloop
  endfacet
  facet normal 0.368124 -0.929777 0
    outer loop
      vertex 2.62664 -8.08398 -4
      vertex 3.61912 -7.69103 0
      vertex 2.62664 -8.08398 0
    endloop
  endfacet
  facet normal 0.368124 -0.929777 0
    outer loop
      vertex 3.61912 -7.69103 0
      vertex 2.62664 -8.08398 -4
      vertex 3.61912 -7.69103 -4
    endloop
  endfacet
  facet normal 0.24869 -0.968583 0
    outer loop
      vertex 1.59274 -8.34944 -4
      vertex 2.62664 -8.08398 0
      vertex 1.59274 -8.34944 0
    endloop
  endfacet
  facet normal 0.24869 -0.968583 0
    outer loop
      vertex 2.62664 -8.08398 0
      vertex 1.59274 -8.34944 -4
      vertex 2.62664 -8.08398 -4
    endloop
  endfacet
  facet normal 0.982289 -0.187374 0
    outer loop
      vertex 8.23296 -2.11386 0
      vertex 8.43297 -1.06533 -4
      vertex 8.43297 -1.06533 0
    endloop
  endfacet
  facet normal 0.982289 -0.187374 0
    outer loop
      vertex 8.43297 -1.06533 -4
      vertex 8.23296 -2.11386 0
      vertex 8.23296 -2.11386 -4
    endloop
  endfacet
  facet normal 0.844322 -0.535835 0
    outer loop
      vertex 6.87664 -4.99617 0
      vertex 7.44861 -4.09491 -4
      vertex 7.44861 -4.09491 0
    endloop
  endfacet
  facet normal 0.844322 -0.535835 0
    outer loop
      vertex 7.44861 -4.09491 -4
      vertex 6.87664 -4.99617 0
      vertex 6.87664 -4.99617 -4
    endloop
  endfacet
  facet normal 0.770515 -0.637421 0
    outer loop
      vertex 6.19623 -5.81865 0
      vertex 6.87664 -4.99617 -4
      vertex 6.87664 -4.99617 0
    endloop
  endfacet
  facet normal 0.770515 -0.637421 0
    outer loop
      vertex 6.87664 -4.99617 -4
      vertex 6.19623 -5.81865 0
      vertex 6.19623 -5.81865 -4
    endloop
  endfacet
  facet normal -0.125337 -0.992114 0
    outer loop
      vertex -1.59274 -8.34944 -4
      vertex -0.533719 -8.48323 0
      vertex -1.59274 -8.34944 0
    endloop
  endfacet
  facet normal -0.125337 -0.992114 -0
    outer loop
      vertex -0.533719 -8.48323 0
      vertex -1.59274 -8.34944 -4
      vertex -0.533719 -8.48323 -4
    endloop
  endfacet
  facet normal -0.587791 -0.809013 0
    outer loop
      vertex -5.4181 -6.54936 -4
      vertex -4.55453 -7.17679 0
      vertex -5.4181 -6.54936 0
    endloop
  endfacet
  facet normal -0.587791 -0.809013 -0
    outer loop
      vertex -4.55453 -7.17679 0
      vertex -5.4181 -6.54936 -4
      vertex -4.55453 -7.17679 -4
    endloop
  endfacet
  facet normal 0.587791 -0.809013 0
    outer loop
      vertex 4.55453 -7.17679 -4
      vertex 5.4181 -6.54936 0
      vertex 4.55453 -7.17679 0
    endloop
  endfacet
  facet normal 0.587791 -0.809013 0
    outer loop
      vertex 5.4181 -6.54936 0
      vertex 4.55453 -7.17679 -4
      vertex 5.4181 -6.54936 -4
    endloop
  endfacet
  facet normal -0.24869 -0.968583 0
    outer loop
      vertex -2.62664 -8.08398 -4
      vertex -1.59274 -8.34944 0
      vertex -2.62664 -8.08398 0
    endloop
  endfacet
  facet normal -0.24869 -0.968583 -0
    outer loop
      vertex -1.59274 -8.34944 0
      vertex -2.62664 -8.08398 -4
      vertex -1.59274 -8.34944 -4
    endloop
  endfacet
  facet normal -0.368124 -0.929777 0
    outer loop
      vertex -3.61912 -7.69103 -4
      vertex -2.62664 -8.08398 0
      vertex -3.61912 -7.69103 0
    endloop
  endfacet
  facet normal -0.368124 -0.929777 -0
    outer loop
      vertex -2.62664 -8.08398 0
      vertex -3.61912 -7.69103 -4
      vertex -2.62664 -8.08398 -4
    endloop
  endfacet
  facet normal -0.481749 -0.876309 0
    outer loop
      vertex -4.55453 -7.17679 -4
      vertex -3.61912 -7.69103 0
      vertex -4.55453 -7.17679 0
    endloop
  endfacet
  facet normal -0.481749 -0.876309 -0
    outer loop
      vertex -3.61912 -7.69103 0
      vertex -4.55453 -7.17679 -4
      vertex -3.61912 -7.69103 -4
    endloop
  endfacet
  facet normal -0.998027 -0.0627939 0
    outer loop
      vertex 5.6 0 -3
      vertex 5.55584 0.701865 0
      vertex 5.55584 0.701865 -3
    endloop
  endfacet
  facet normal -0.998027 -0.0627939 0
    outer loop
      vertex 5.55584 0.701865 0
      vertex 5.6 0 -3
      vertex 5.6 0 0
    endloop
  endfacet
  facet normal 0.998027 -0.0627939 0
    outer loop
      vertex -5.6 0 0
      vertex -5.55584 0.701865 -3
      vertex -5.55584 0.701865 0
    endloop
  endfacet
  facet normal 0.998027 -0.0627939 0
    outer loop
      vertex -5.55584 0.701865 -3
      vertex -5.6 0 0
      vertex -5.6 0 -3
    endloop
  endfacet
  facet normal 0 -1 0
    outer loop
      vertex -0.351626 5.58895 -3
      vertex 0.351626 5.58895 0
      vertex -0.351626 5.58895 0
    endloop
  endfacet
  facet normal 0 -1 -0
    outer loop
      vertex 0.351626 5.58895 0
      vertex -0.351626 5.58895 -3
      vertex 0.351626 5.58895 -3
    endloop
  endfacet
  facet normal 0 1 -0
    outer loop
      vertex 0.351626 -5.58895 -3
      vertex -0.351626 -5.58895 0
      vertex 0.351626 -5.58895 0
    endloop
  endfacet
  facet normal 0 1 0
    outer loop
      vertex -0.351626 -5.58895 0
      vertex 0.351626 -5.58895 -3
      vertex -0.351626 -5.58895 -3
    endloop
  endfacet
  facet normal -0.684547 -0.728969 0
    outer loop
      vertex 3.56957 4.31487 -3
      vertex 4.08222 3.83346 0
      vertex 3.56957 4.31487 0
    endloop
  endfacet
  facet normal -0.684547 -0.728969 -0
    outer loop
      vertex 4.08222 3.83346 0
      vertex 3.56957 4.31487 -3
      vertex 4.08222 3.83346 -3
    endloop
  endfacet
  facet normal 0.684547 -0.728969 0
    outer loop
      vertex -4.08222 3.83346 -3
      vertex -3.56957 4.31487 0
      vertex -4.08222 3.83346 0
    endloop
  endfacet
  facet normal 0.684547 -0.728969 0
    outer loop
      vertex -3.56957 4.31487 0
      vertex -4.08222 3.83346 -3
      vertex -3.56957 4.31487 -3
    endloop
  endfacet
  facet normal 0.36813 -0.929774 0
    outer loop
      vertex -2.38436 5.06703 -3
      vertex -1.73049 5.32592 0
      vertex -2.38436 5.06703 0
    endloop
  endfacet
  facet normal 0.36813 -0.929774 0
    outer loop
      vertex -1.73049 5.32592 0
      vertex -2.38436 5.06703 -3
      vertex -1.73049 5.32592 -3
    endloop
  endfacet
  facet normal -0.904827 -0.42578 0
    outer loop
      vertex 5.20675 2.0615 -3
      vertex 4.90732 2.69782 0
      vertex 4.90732 2.69782 -3
    endloop
  endfacet
  facet normal -0.904827 -0.42578 0
    outer loop
      vertex 4.90732 2.69782 0
      vertex 5.20675 2.0615 -3
      vertex 5.20675 2.0615 0
    endloop
  endfacet
  facet normal -0.982289 -0.187373 0
    outer loop
      vertex 5.55584 0.701865 -3
      vertex 5.42407 1.39266 0
      vertex 5.42407 1.39266 -3
    endloop
  endfacet
  facet normal -0.982289 -0.187373 0
    outer loop
      vertex 5.42407 1.39266 0
      vertex 5.55584 0.701865 -3
      vertex 5.55584 0.701865 0
    endloop
  endfacet
  facet normal -0.36813 -0.929774 0
    outer loop
      vertex 1.73049 5.32592 -3
      vertex 2.38436 5.06703 0
      vertex 1.73049 5.32592 0
    endloop
  endfacet
  facet normal -0.36813 -0.929774 -0
    outer loop
      vertex 2.38436 5.06703 0
      vertex 1.73049 5.32592 -3
      vertex 2.38436 5.06703 -3
    endloop
  endfacet
  facet normal -0.587795 -0.80901 0
    outer loop
      vertex 3.00063 4.72824 -3
      vertex 3.56957 4.31487 0
      vertex 3.00063 4.72824 0
    endloop
  endfacet
  facet normal -0.587795 -0.80901 -0
    outer loop
      vertex 3.56957 4.31487 0
      vertex 3.00063 4.72824 -3
      vertex 3.56957 4.31487 -3
    endloop
  endfacet
  facet normal 0.904827 -0.42578 0
    outer loop
      vertex -5.20675 2.0615 0
      vertex -4.90732 2.69782 -3
      vertex -4.90732 2.69782 0
    endloop
  endfacet
  facet normal 0.904827 -0.42578 0
    outer loop
      vertex -4.90732 2.69782 -3
      vertex -5.20675 2.0615 0
      vertex -5.20675 2.0615 -3
    endloop
  endfacet
  facet normal 0.77051 -0.637428 0
    outer loop
      vertex -4.53049 3.2916 0
      vertex -4.08222 3.83346 -3
      vertex -4.08222 3.83346 0
    endloop
  endfacet
  facet normal 0.77051 -0.637428 0
    outer loop
      vertex -4.08222 3.83346 -3
      vertex -4.53049 3.2916 0
      vertex -4.53049 3.2916 -3
    endloop
  endfacet
  facet normal 0.951056 -0.309018 0
    outer loop
      vertex -5.42407 1.39266 0
      vertex -5.20675 2.0615 -3
      vertex -5.20675 2.0615 0
    endloop
  endfacet
  facet normal 0.951056 -0.309018 0
    outer loop
      vertex -5.20675 2.0615 -3
      vertex -5.42407 1.39266 0
      vertex -5.42407 1.39266 -3
    endloop
  endfacet
  facet normal 0.481746 -0.876311 0
    outer loop
      vertex -3.00063 4.72824 -3
      vertex -2.38436 5.06703 0
      vertex -3.00063 4.72824 0
    endloop
  endfacet
  facet normal 0.481746 -0.876311 0
    outer loop
      vertex -2.38436 5.06703 0
      vertex -3.00063 4.72824 -3
      vertex -2.38436 5.06703 -3
    endloop
  endfacet
  facet normal 0.248687 -0.968584 0
    outer loop
      vertex -1.73049 5.32592 -3
      vertex -1.04933 5.50081 0
      vertex -1.73049 5.32592 0
    endloop
  endfacet
  facet normal 0.248687 -0.968584 0
    outer loop
      vertex -1.04933 5.50081 0
      vertex -1.73049 5.32592 -3
      vertex -1.04933 5.50081 -3
    endloop
  endfacet
  facet normal -0.36813 0.929774 0
    outer loop
      vertex 2.38436 -5.06703 -3
      vertex 1.73049 -5.32592 0
      vertex 2.38436 -5.06703 0
    endloop
  endfacet
  facet normal -0.36813 0.929774 0
    outer loop
      vertex 1.73049 -5.32592 0
      vertex 2.38436 -5.06703 -3
      vertex 1.73049 -5.32592 -3
    endloop
  endfacet
  facet normal -0.951056 -0.309018 0
    outer loop
      vertex 5.42407 1.39266 -3
      vertex 5.20675 2.0615 0
      vertex 5.20675 2.0615 -3
    endloop
  endfacet
  facet normal -0.951056 -0.309018 0
    outer loop
      vertex 5.20675 2.0615 0
      vertex 5.42407 1.39266 -3
      vertex 5.42407 1.39266 0
    endloop
  endfacet
  facet normal -0.77051 -0.637428 0
    outer loop
      vertex 4.53049 3.2916 -3
      vertex 4.08222 3.83346 0
      vertex 4.08222 3.83346 -3
    endloop
  endfacet
  facet normal -0.77051 -0.637428 0
    outer loop
      vertex 4.08222 3.83346 0
      vertex 4.53049 3.2916 -3
      vertex 4.53049 3.2916 0
    endloop
  endfacet
  facet normal -0.844324 -0.535833 0
    outer loop
      vertex 4.90732 2.69782 -3
      vertex 4.53049 3.2916 0
      vertex 4.53049 3.2916 -3
    endloop
  endfacet
  facet normal -0.844324 -0.535833 0
    outer loop
      vertex 4.53049 3.2916 0
      vertex 4.90732 2.69782 -3
      vertex 4.90732 2.69782 0
    endloop
  endfacet
  facet normal -0.248687 -0.968584 0
    outer loop
      vertex 1.04933 5.50081 -3
      vertex 1.73049 5.32592 0
      vertex 1.04933 5.50081 0
    endloop
  endfacet
  facet normal -0.248687 -0.968584 -0
    outer loop
      vertex 1.73049 5.32592 0
      vertex 1.04933 5.50081 -3
      vertex 1.73049 5.32592 -3
    endloop
  endfacet
  facet normal -0.125333 -0.992115 0
    outer loop
      vertex 0.351626 5.58895 -3
      vertex 1.04933 5.50081 0
      vertex 0.351626 5.58895 0
    endloop
  endfacet
  facet normal -0.125333 -0.992115 -0
    outer loop
      vertex 1.04933 5.50081 0
      vertex 0.351626 5.58895 -3
      vertex 1.04933 5.50081 -3
    endloop
  endfacet
  facet normal -0.481746 -0.876311 0
    outer loop
      vertex 2.38436 5.06703 -3
      vertex 3.00063 4.72824 0
      vertex 2.38436 5.06703 0
    endloop
  endfacet
  facet normal -0.481746 -0.876311 -0
    outer loop
      vertex 3.00063 4.72824 0
      vertex 2.38436 5.06703 -3
      vertex 3.00063 4.72824 -3
    endloop
  endfacet
  facet normal 0.844324 -0.535833 0
    outer loop
      vertex -4.90732 2.69782 0
      vertex -4.53049 3.2916 -3
      vertex -4.53049 3.2916 0
    endloop
  endfacet
  facet normal 0.844324 -0.535833 0
    outer loop
      vertex -4.53049 3.2916 -3
      vertex -4.90732 2.69782 0
      vertex -4.90732 2.69782 -3
    endloop
  endfacet
  facet normal 0.982289 -0.187373 0
    outer loop
      vertex -5.55584 0.701865 0
      vertex -5.42407 1.39266 -3
      vertex -5.42407 1.39266 0
    endloop
  endfacet
  facet normal 0.982289 -0.187373 0
    outer loop
      vertex -5.42407 1.39266 -3
      vertex -5.55584 0.701865 0
      vertex -5.55584 0.701865 -3
    endloop
  endfacet
  facet normal 0.587795 -0.80901 0
    outer loop
      vertex -3.56957 4.31487 -3
      vertex -3.00063 4.72824 0
      vertex -3.56957 4.31487 0
    endloop
  endfacet
  facet normal 0.587795 -0.80901 0
    outer loop
      vertex -3.00063 4.72824 0
      vertex -3.56957 4.31487 -3
      vertex -3.00063 4.72824 -3
    endloop
  endfacet
  facet normal 0.125333 -0.992115 0
    outer loop
      vertex -1.04933 5.50081 -3
      vertex -0.351626 5.58895 0
      vertex -1.04933 5.50081 0
    endloop
  endfacet
  facet normal 0.125333 -0.992115 0
    outer loop
      vertex -0.351626 5.58895 0
      vertex -1.04933 5.50081 -3
      vertex -0.351626 5.58895 -3
    endloop
  endfacet
  facet normal -0.998027 0.0627939 0
    outer loop
      vertex 5.55584 -0.701865 -3
      vertex 5.6 0 0
      vertex 5.6 0 -3
    endloop
  endfacet
  facet normal -0.998027 0.0627939 0
    outer loop
      vertex 5.6 0 0
      vertex 5.55584 -0.701865 -3
      vertex 5.55584 -0.701865 0
    endloop
  endfacet
  facet normal -0.982289 0.187373 0
    outer loop
      vertex 5.42407 -1.39266 -3
      vertex 5.55584 -0.701865 0
      vertex 5.55584 -0.701865 -3
    endloop
  endfacet
  facet normal -0.982289 0.187373 0
    outer loop
      vertex 5.55584 -0.701865 0
      vertex 5.42407 -1.39266 -3
      vertex 5.42407 -1.39266 0
    endloop
  endfacet
  facet normal 0.684547 0.728969 -0
    outer loop
      vertex -3.56957 -4.31487 -3
      vertex -4.08222 -3.83346 0
      vertex -3.56957 -4.31487 0
    endloop
  endfacet
  facet normal 0.684547 0.728969 0
    outer loop
      vertex -4.08222 -3.83346 0
      vertex -3.56957 -4.31487 -3
      vertex -4.08222 -3.83346 -3
    endloop
  endfacet
  facet normal 0.904827 0.42578 0
    outer loop
      vertex -4.90732 -2.69782 0
      vertex -5.20675 -2.0615 -3
      vertex -5.20675 -2.0615 0
    endloop
  endfacet
  facet normal 0.904827 0.42578 0
    outer loop
      vertex -5.20675 -2.0615 -3
      vertex -4.90732 -2.69782 0
      vertex -4.90732 -2.69782 -3
    endloop
  endfacet
  facet normal 0.77051 0.637428 0
    outer loop
      vertex -4.08222 -3.83346 0
      vertex -4.53049 -3.2916 -3
      vertex -4.53049 -3.2916 0
    endloop
  endfacet
  facet normal 0.77051 0.637428 0
    outer loop
      vertex -4.53049 -3.2916 -3
      vertex -4.08222 -3.83346 0
      vertex -4.08222 -3.83346 -3
    endloop
  endfacet
  facet normal 0 0 1
    outer loop
      vertex 5.55584 0.701865 -3
      vertex 5.55584 -0.701865 -3
      vertex 5.6 0 -3
    endloop
  endfacet
  facet normal 0 0 1
    outer loop
      vertex 5.42407 1.39266 -3
      vertex 5.55584 -0.701865 -3
      vertex 5.55584 0.701865 -3
    endloop
  endfacet
  facet normal 0 0 1
    outer loop
      vertex 5.42407 1.39266 -3
      vertex 5.42407 -1.39266 -3
      vertex 5.55584 -0.701865 -3
    endloop
  endfacet
  facet normal 0 0 1
    outer loop
      vertex 5.20675 2.0615 -3
      vertex 5.42407 -1.39266 -3
      vertex 5.42407 1.39266 -3
    endloop
  endfacet
  facet normal 0 0 1
    outer loop
      vertex 5.20675 2.0615 -3
      vertex 5.20675 -2.0615 -3
      vertex 5.42407 -1.39266 -3
    endloop
  endfacet
  facet normal 0 0 1
    outer loop
      vertex 4.90732 2.69782 -3
      vertex 5.20675 -2.0615 -3
      vertex 5.20675 2.0615 -3
    endloop
  endfacet
  facet normal 0 0 1
    outer loop
      vertex 4.90732 2.69782 -3
      vertex 4.90732 -2.69782 -3
      vertex 5.20675 -2.0615 -3
    endloop
  endfacet
  facet normal 0 0 1
    outer loop
      vertex 4.53049 3.2916 -3
      vertex 4.90732 -2.69782 -3
      vertex 4.90732 2.69782 -3
    endloop
  endfacet
  facet normal 0 0 1
    outer loop
      vertex 4.53049 3.2916 -3
      vertex 4.53049 -3.2916 -3
      vertex 4.90732 -2.69782 -3
    endloop
  endfacet
  facet normal 0 0 1
    outer loop
      vertex 4.08222 3.83346 -3
      vertex 4.53049 -3.2916 -3
      vertex 4.53049 3.2916 -3
    endloop
  endfacet
  facet normal 0 0 1
    outer loop
      vertex 4.08222 3.83346 -3
      vertex 4.08222 -3.83346 -3
      vertex 4.53049 -3.2916 -3
    endloop
  endfacet
  facet normal 0 0 1
    outer loop
      vertex 3.56957 4.31487 -3
      vertex 4.08222 -3.83346 -3
      vertex 4.08222 3.83346 -3
    endloop
  endfacet
  facet normal 0 0 1
    outer loop
      vertex 3.56957 4.31487 -3
      vertex 3.56957 -4.31487 -3
      vertex 4.08222 -3.83346 -3
    endloop
  endfacet
  facet normal 0 0 1
    outer loop
      vertex 3.00063 4.72824 -3
      vertex 3.56957 -4.31487 -3
      vertex 3.56957 4.31487 -3
    endloop
  endfacet
  facet normal 0 0 1
    outer loop
      vertex 3.00063 4.72824 -3
      vertex 3.00063 -4.72824 -3
      vertex 3.56957 -4.31487 -3
    endloop
  endfacet
  facet normal 0 0 1
    outer loop
      vertex 2.38436 5.06703 -3
      vertex 3.00063 -4.72824 -3
      vertex 3.00063 4.72824 -3
    endloop
  endfacet
  facet normal 0 0 1
    outer loop
      vertex 2.38436 5.06703 -3
      vertex 2.38436 -5.06703 -3
      vertex 3.00063 -4.72824 -3
    endloop
  endfacet
  facet normal 0 0 1
    outer loop
      vertex 1.73049 5.32592 -3
      vertex 2.38436 -5.06703 -3
      vertex 2.38436 5.06703 -3
    endloop
  endfacet
  facet normal 0 0 1
    outer loop
      vertex 1.73049 5.32592 -3
      vertex 1.73049 -5.32592 -3
      vertex 2.38436 -5.06703 -3
    endloop
  endfacet
  facet normal 0 0 1
    outer loop
      vertex 1.04933 5.50081 -3
      vertex 1.73049 -5.32592 -3
      vertex 1.73049 5.32592 -3
    endloop
  endfacet
  facet normal 0 0 1
    outer loop
      vertex 1.04933 5.50081 -3
      vertex 1.04933 -5.50081 -3
      vertex 1.73049 -5.32592 -3
    endloop
  endfacet
  facet normal 0 0 1
    outer loop
      vertex 0.351626 5.58895 -3
      vertex 1.04933 -5.50081 -3
      vertex 1.04933 5.50081 -3
    endloop
  endfacet
  facet normal 0 0 1
    outer loop
      vertex 0.351626 5.58895 -3
      vertex 0.351626 -5.58895 -3
      vertex 1.04933 -5.50081 -3
    endloop
  endfacet
  facet normal -0 0 1
    outer loop
      vertex -0.351626 5.58895 -3
      vertex 0.351626 -5.58895 -3
      vertex 0.351626 5.58895 -3
    endloop
  endfacet
  facet normal 0 0 1
    outer loop
      vertex -0.351626 5.58895 -3
      vertex -0.351626 -5.58895 -3
      vertex 0.351626 -5.58895 -3
    endloop
  endfacet
  facet normal -0 0 1
    outer loop
      vertex -1.04933 5.50081 -3
      vertex -0.351626 -5.58895 -3
      vertex -0.351626 5.58895 -3
    endloop
  endfacet
  facet normal 0 0 1
    outer loop
      vertex -1.04933 5.50081 -3
      vertex -1.04933 -5.50081 -3
      vertex -0.351626 -5.58895 -3
    endloop
  endfacet
  facet normal -0 0 1
    outer loop
      vertex -1.73049 5.32592 -3
      vertex -1.04933 -5.50081 -3
      vertex -1.04933 5.50081 -3
    endloop
  endfacet
  facet normal 0 0 1
    outer loop
      vertex -1.73049 5.32592 -3
      vertex -1.73049 -5.32592 -3
      vertex -1.04933 -5.50081 -3
    endloop
  endfacet
  facet normal -0 0 1
    outer loop
      vertex -2.38436 5.06703 -3
      vertex -1.73049 -5.32592 -3
      vertex -1.73049 5.32592 -3
    endloop
  endfacet
  facet normal 0 0 1
    outer loop
      vertex -2.38436 5.06703 -3
      vertex -2.38436 -5.06703 -3
      vertex -1.73049 -5.32592 -3
    endloop
  endfacet
  facet normal -0 0 1
    outer loop
      vertex -3.00063 4.72824 -3
      vertex -2.38436 -5.06703 -3
      vertex -2.38436 5.06703 -3
    endloop
  endfacet
  facet normal 0 0 1
    outer loop
      vertex -3.00063 4.72824 -3
      vertex -3.00063 -4.72824 -3
      vertex -2.38436 -5.06703 -3
    endloop
  endfacet
  facet normal -0 0 1
    outer loop
      vertex -3.56957 4.31487 -3
      vertex -3.00063 -4.72824 -3
      vertex -3.00063 4.72824 -3
    endloop
  endfacet
  facet normal 0 0 1
    outer loop
      vertex -3.56957 4.31487 -3
      vertex -3.56957 -4.31487 -3
      vertex -3.00063 -4.72824 -3
    endloop
  endfacet
  facet normal -0 0 1
    outer loop
      vertex -4.08222 3.83346 -3
      vertex -3.56957 -4.31487 -3
      vertex -3.56957 4.31487 -3
    endloop
  endfacet
  facet normal 0 0 1
    outer loop
      vertex -4.08222 3.83346 -3
      vertex -4.08222 -3.83346 -3
      vertex -3.56957 -4.31487 -3
    endloop
  endfacet
  facet normal -0 0 1
    outer loop
      vertex -4.53049 3.2916 -3
      vertex -4.08222 -3.83346 -3
      vertex -4.08222 3.83346 -3
    endloop
  endfacet
  facet normal 0 0 1
    outer loop
      vertex -4.53049 3.2916 -3
      vertex -4.53049 -3.2916 -3
      vertex -4.08222 -3.83346 -3
    endloop
  endfacet
  facet normal -0 0 1
    outer loop
      vertex -4.90732 2.69782 -3
      vertex -4.53049 -3.2916 -3
      vertex -4.53049 3.2916 -3
    endloop
  endfacet
  facet normal 0 0 1
    outer loop
      vertex -4.90732 2.69782 -3
      vertex -4.90732 -2.69782 -3
      vertex -4.53049 -3.2916 -3
    endloop
  endfacet
  facet normal -0 0 1
    outer loop
      vertex -5.20675 2.0615 -3
      vertex -4.90732 -2.69782 -3
      vertex -4.90732 2.69782 -3
    endloop
  endfacet
  facet normal 0 0 1
    outer loop
      vertex -5.20675 2.0615 -3
      vertex -5.20675 -2.0615 -3
      vertex -4.90732 -2.69782 -3
    endloop
  endfacet
  facet normal -0 0 1
    outer loop
      vertex -5.42407 1.39266 -3
      vertex -5.20675 -2.0615 -3
      vertex -5.20675 2.0615 -3
    endloop
  endfacet
  facet normal 0 0 1
    outer loop
      vertex -5.42407 1.39266 -3
      vertex -5.42407 -1.39266 -3
      vertex -5.20675 -2.0615 -3
    endloop
  endfacet
  facet normal -0 0 1
    outer loop
      vertex -5.55584 0.701865 -3
      vertex -5.42407 -1.39266 -3
      vertex -5.42407 1.39266 -3
    endloop
  endfacet
  facet normal 0 0 1
    outer loop
      vertex -5.55584 0.701865 -3
      vertex -5.55584 -0.701865 -3
      vertex -5.42407 -1.39266 -3
    endloop
  endfacet
  facet normal 0 -0 1
    outer loop
      vertex -5.55584 -0.701865 -3
      vertex -5.55584 0.701865 -3
      vertex -5.6 0 -3
    endloop
  endfacet
  facet normal -0.481746 0.876311 0
    outer loop
      vertex 3.00063 -4.72824 -3
      vertex 2.38436 -5.06703 0
      vertex 3.00063 -4.72824 0
    endloop
  endfacet
  facet normal -0.481746 0.876311 0
    outer loop
      vertex 2.38436 -5.06703 0
      vertex 3.00063 -4.72824 -3
      vertex 2.38436 -5.06703 -3
    endloop
  endfacet
  facet normal -0.904827 0.42578 0
    outer loop
      vertex 4.90732 -2.69782 -3
      vertex 5.20675 -2.0615 0
      vertex 5.20675 -2.0615 -3
    endloop
  endfacet
  facet normal -0.904827 0.42578 0
    outer loop
      vertex 5.20675 -2.0615 0
      vertex 4.90732 -2.69782 -3
      vertex 4.90732 -2.69782 0
    endloop
  endfacet
  facet normal 0.951056 0.309018 0
    outer loop
      vertex -5.20675 -2.0615 0
      vertex -5.42407 -1.39266 -3
      vertex -5.42407 -1.39266 0
    endloop
  endfacet
  facet normal 0.951056 0.309018 0
    outer loop
      vertex -5.42407 -1.39266 -3
      vertex -5.20675 -2.0615 0
      vertex -5.20675 -2.0615 -3
    endloop
  endfacet
  facet normal -0.587795 0.80901 0
    outer loop
      vertex 3.56957 -4.31487 -3
      vertex 3.00063 -4.72824 0
      vertex 3.56957 -4.31487 0
    endloop
  endfacet
  facet normal -0.587795 0.80901 0
    outer loop
      vertex 3.00063 -4.72824 0
      vertex 3.56957 -4.31487 -3
      vertex 3.00063 -4.72824 -3
    endloop
  endfacet
  facet normal -0.248687 0.968584 0
    outer loop
      vertex 1.73049 -5.32592 -3
      vertex 1.04933 -5.50081 0
      vertex 1.73049 -5.32592 0
    endloop
  endfacet
  facet normal -0.248687 0.968584 0
    outer loop
      vertex 1.04933 -5.50081 0
      vertex 1.73049 -5.32592 -3
      vertex 1.04933 -5.50081 -3
    endloop
  endfacet
  facet normal -0.125333 0.992115 0
    outer loop
      vertex 1.04933 -5.50081 -3
      vertex 0.351626 -5.58895 0
      vertex 1.04933 -5.50081 0
    endloop
  endfacet
  facet normal -0.125333 0.992115 0
    outer loop
      vertex 0.351626 -5.58895 0
      vertex 1.04933 -5.50081 -3
      vertex 0.351626 -5.58895 -3
    endloop
  endfacet
  facet normal -0.844324 0.535833 0
    outer loop
      vertex 4.53049 -3.2916 -3
      vertex 4.90732 -2.69782 0
      vertex 4.90732 -2.69782 -3
    endloop
  endfacet
  facet normal -0.844324 0.535833 0
    outer loop
      vertex 4.90732 -2.69782 0
      vertex 4.53049 -3.2916 -3
      vertex 4.53049 -3.2916 0
    endloop
  endfacet
  facet normal -0.77051 0.637428 0
    outer loop
      vertex 4.08222 -3.83346 -3
      vertex 4.53049 -3.2916 0
      vertex 4.53049 -3.2916 -3
    endloop
  endfacet
  facet normal -0.77051 0.637428 0
    outer loop
      vertex 4.53049 -3.2916 0
      vertex 4.08222 -3.83346 -3
      vertex 4.08222 -3.83346 0
    endloop
  endfacet
  facet normal -0.951056 0.309018 0
    outer loop
      vertex 5.20675 -2.0615 -3
      vertex 5.42407 -1.39266 0
      vertex 5.42407 -1.39266 -3
    endloop
  endfacet
  facet normal -0.951056 0.309018 0
    outer loop
      vertex 5.42407 -1.39266 0
      vertex 5.20675 -2.0615 -3
      vertex 5.20675 -2.0615 0
    endloop
  endfacet
  facet normal 0.125333 0.992115 -0
    outer loop
      vertex -0.351626 -5.58895 -3
      vertex -1.04933 -5.50081 0
      vertex -0.351626 -5.58895 0
    endloop
  endfacet
  facet normal 0.125333 0.992115 0
    outer loop
      vertex -1.04933 -5.50081 0
      vertex -0.351626 -5.58895 -3
      vertex -1.04933 -5.50081 -3
    endloop
  endfacet
  facet normal 0.36813 0.929774 -0
    outer loop
      vertex -1.73049 -5.32592 -3
      vertex -2.38436 -5.06703 0
      vertex -1.73049 -5.32592 0
    endloop
  endfacet
  facet normal 0.36813 0.929774 0
    outer loop
      vertex -2.38436 -5.06703 0
      vertex -1.73049 -5.32592 -3
      vertex -2.38436 -5.06703 -3
    endloop
  endfacet
  facet normal 0.248687 0.968584 -0
    outer loop
      vertex -1.04933 -5.50081 -3
      vertex -1.73049 -5.32592 0
      vertex -1.04933 -5.50081 0
    endloop
  endfacet
  facet normal 0.248687 0.968584 0
    outer loop
      vertex -1.73049 -5.32592 0
      vertex -1.04933 -5.50081 -3
      vertex -1.73049 -5.32592 -3
    endloop
  endfacet
  facet normal 0.844324 0.535833 0
    outer loop
      vertex -4.53049 -3.2916 0
      vertex -4.90732 -2.69782 -3
      vertex -4.90732 -2.69782 0
    endloop
  endfacet
  facet normal 0.844324 0.535833 0
    outer loop
      vertex -4.90732 -2.69782 -3
      vertex -4.53049 -3.2916 0
      vertex -4.53049 -3.2916 -3
    endloop
  endfacet
  facet normal 0.982289 0.187373 0
    outer loop
      vertex -5.42407 -1.39266 0
      vertex -5.55584 -0.701865 -3
      vertex -5.55584 -0.701865 0
    endloop
  endfacet
  facet normal 0.982289 0.187373 0
    outer loop
      vertex -5.55584 -0.701865 -3
      vertex -5.42407 -1.39266 0
      vertex -5.42407 -1.39266 -3
    endloop
  endfacet
  facet normal 0.998027 0.0627939 0
    outer loop
      vertex -5.55584 -0.701865 0
      vertex -5.6 0 -3
      vertex -5.6 0 0
    endloop
  endfacet
  facet normal 0.998027 0.0627939 0
    outer loop
      vertex -5.6 0 -3
      vertex -5.55584 -0.701865 0
      vertex -5.55584 -0.701865 -3
    endloop
  endfacet
  facet normal -0.684547 0.728969 0
    outer loop
      vertex 4.08222 -3.83346 -3
      vertex 3.56957 -4.31487 0
      vertex 4.08222 -3.83346 0
    endloop
  endfacet
  facet normal -0.684547 0.728969 0
    outer loop
      vertex 3.56957 -4.31487 0
      vertex 4.08222 -3.83346 -3
      vertex 3.56957 -4.31487 -3
    endloop
  endfacet
  facet normal 0.481746 0.876311 -0
    outer loop
      vertex -2.38436 -5.06703 -3
      vertex -3.00063 -4.72824 0
      vertex -2.38436 -5.06703 0
    endloop
  endfacet
  facet normal 0.481746 0.876311 0
    outer loop
      vertex -3.00063 -4.72824 0
      vertex -2.38436 -5.06703 -3
      vertex -3.00063 -4.72824 -3
    endloop
  endfacet
  facet normal 0.587795 0.80901 -0
    outer loop
      vertex -3.00063 -4.72824 -3
      vertex -3.56957 -4.31487 0
      vertex -3.00063 -4.72824 0
    endloop
  endfacet
  facet normal 0.587795 0.80901 0
    outer loop
      vertex -3.56957 -4.31487 0
      vertex -3.00063 -4.72824 -3
      vertex -3.56957 -4.31487 -3
    endloop
  endfacet
endsolid OpenSCAD_Model
