solid OpenSCAD_Model
  facet normal 0.998028 0.0627749 0
    outer loop
      vertex 18 0 0
      vertex 17.8581 2.256 -7
      vertex 17.8581 2.256 0
    endloop
  endfacet
  facet normal 0.998028 0.0627749 0
    outer loop
      vertex 17.8581 2.256 -7
      vertex 18 0 0
      vertex 18 0 -7
    endloop
  endfacet
  facet normal -0.998028 0.0627749 0
    outer loop
      vertex -18 0 -7
      vertex -17.8581 2.256 0
      vertex -17.8581 2.256 -7
    endloop
  endfacet
  facet normal -0.998028 0.0627749 0
    outer loop
      vertex -17.8581 2.256 0
      vertex -18 0 -7
      vertex -18 0 0
    endloop
  endfacet
  facet normal 0 1 -0
    outer loop
      vertex 1.13023 17.9645 -7
      vertex -1.13023 17.9645 0
      vertex 1.13023 17.9645 0
    endloop
  endfacet
  facet normal 0 1 0
    outer loop
      vertex -1.13023 17.9645 0
      vertex 1.13023 17.9645 -7
      vertex -1.13023 17.9645 -7
    endloop
  endfacet
  facet normal 0 -1 0
    outer loop
      vertex -1.13023 -17.9645 -7
      vertex 1.13023 -17.9645 0
      vertex -1.13023 -17.9645 0
    endloop
  endfacet
  facet normal 0 -1 -0
    outer loop
      vertex 1.13023 -17.9645 0
      vertex -1.13023 -17.9645 -7
      vertex 1.13023 -17.9645 -7
    endloop
  endfacet
  facet normal 0.68455 0.728966 -0
    outer loop
      vertex 13.1214 12.3218 -7
      vertex 11.4736 13.8692 0
      vertex 13.1214 12.3218 0
    endloop
  endfacet
  facet normal 0.68455 0.728966 0
    outer loop
      vertex 11.4736 13.8692 0
      vertex 13.1214 12.3218 -7
      vertex 11.4736 13.8692 -7
    endloop
  endfacet
  facet normal -0.68455 0.728966 0
    outer loop
      vertex -11.4736 13.8692 -7
      vertex -13.1214 12.3218 0
      vertex -11.4736 13.8692 0
    endloop
  endfacet
  facet normal -0.68455 0.728966 0
    outer loop
      vertex -13.1214 12.3218 0
      vertex -11.4736 13.8692 -7
      vertex -13.1214 12.3218 -7
    endloop
  endfacet
  facet normal -0.368113 0.929781 0
    outer loop
      vertex -5.56231 17.119 -7
      vertex -7.66403 16.2869 0
      vertex -5.56231 17.119 0
    endloop
  endfacet
  facet normal -0.368113 0.929781 0
    outer loop
      vertex -7.66403 16.2869 0
      vertex -5.56231 17.119 -7
      vertex -7.66403 16.2869 -7
    endloop
  endfacet
  facet normal 0.90482 0.425794 0
    outer loop
      vertex 16.736 6.62624 0
      vertex 15.7735 8.67157 -7
      vertex 15.7735 8.67157 0
    endloop
  endfacet
  facet normal 0.90482 0.425794 0
    outer loop
      vertex 15.7735 8.67157 -7
      vertex 16.736 6.62624 0
      vertex 16.736 6.62624 -7
    endloop
  endfacet
  facet normal 0.982285 0.187395 0
    outer loop
      vertex 17.8581 2.256 0
      vertex 17.4345 4.47642 -7
      vertex 17.4345 4.47642 0
    endloop
  endfacet
  facet normal 0.982285 0.187395 0
    outer loop
      vertex 17.4345 4.47642 -7
      vertex 17.8581 2.256 0
      vertex 17.8581 2.256 -7
    endloop
  endfacet
  facet normal 0.844326 0.53583 0
    outer loop
      vertex 15.7735 8.67157 0
      vertex 14.5623 10.5801 -7
      vertex 14.5623 10.5801 0
    endloop
  endfacet
  facet normal 0.844326 0.53583 0
    outer loop
      vertex 14.5623 10.5801 -7
      vertex 15.7735 8.67157 0
      vertex 15.7735 8.67157 -7
    endloop
  endfacet
  facet normal 0.368113 0.929781 -0
    outer loop
      vertex 7.66403 16.2869 -7
      vertex 5.56231 17.119 0
      vertex 7.66403 16.2869 0
    endloop
  endfacet
  facet normal 0.368113 0.929781 0
    outer loop
      vertex 5.56231 17.119 0
      vertex 7.66403 16.2869 -7
      vertex 5.56231 17.119 -7
    endloop
  endfacet
  facet normal 0.248708 0.968578 -0
    outer loop
      vertex 5.56231 17.119 -7
      vertex 3.37286 17.6812 0
      vertex 5.56231 17.119 0
    endloop
  endfacet
  facet normal 0.248708 0.968578 0
    outer loop
      vertex 3.37286 17.6812 0
      vertex 5.56231 17.119 -7
      vertex 3.37286 17.6812 -7
    endloop
  endfacet
  facet normal 0.48176 0.876303 -0
    outer loop
      vertex 9.64488 15.1979 -7
      vertex 7.66403 16.2869 0
      vertex 9.64488 15.1979 0
    endloop
  endfacet
  facet normal 0.48176 0.876303 0
    outer loop
      vertex 7.66403 16.2869 0
      vertex 9.64488 15.1979 -7
      vertex 7.66403 16.2869 -7
    endloop
  endfacet
  facet normal -0.90482 0.425794 0
    outer loop
      vertex -16.736 6.62624 -7
      vertex -15.7735 8.67157 0
      vertex -15.7735 8.67157 -7
    endloop
  endfacet
  facet normal -0.90482 0.425794 0
    outer loop
      vertex -15.7735 8.67157 0
      vertex -16.736 6.62624 -7
      vertex -16.736 6.62624 0
    endloop
  endfacet
  facet normal -0.770504 0.637435 0
    outer loop
      vertex -14.5623 10.5801 -7
      vertex -13.1214 12.3218 0
      vertex -13.1214 12.3218 -7
    endloop
  endfacet
  facet normal -0.770504 0.637435 0
    outer loop
      vertex -13.1214 12.3218 0
      vertex -14.5623 10.5801 -7
      vertex -14.5623 10.5801 0
    endloop
  endfacet
  facet normal -0.951059 0.309009 0
    outer loop
      vertex -17.4345 4.47642 -7
      vertex -16.736 6.62624 0
      vertex -16.736 6.62624 -7
    endloop
  endfacet
  facet normal -0.951059 0.309009 0
    outer loop
      vertex -16.736 6.62624 0
      vertex -17.4345 4.47642 -7
      vertex -17.4345 4.47642 0
    endloop
  endfacet
  facet normal -0.48176 0.876303 0
    outer loop
      vertex -7.66403 16.2869 -7
      vertex -9.64488 15.1979 0
      vertex -7.66403 16.2869 0
    endloop
  endfacet
  facet normal -0.48176 0.876303 0
    outer loop
      vertex -9.64488 15.1979 0
      vertex -7.66403 16.2869 -7
      vertex -9.64488 15.1979 -7
    endloop
  endfacet
  facet normal -0.125329 0.992115 0
    outer loop
      vertex -1.13023 17.9645 -7
      vertex -3.37286 17.6812 0
      vertex -1.13023 17.9645 0
    endloop
  endfacet
  facet normal -0.125329 0.992115 0
    outer loop
      vertex -3.37286 17.6812 0
      vertex -1.13023 17.9645 -7
      vertex -3.37286 17.6812 -7
    endloop
  endfacet
  facet normal 0.125329 -0.992115 0
    outer loop
      vertex 1.13023 -17.9645 -7
      vertex 3.37286 -17.6812 0
      vertex 1.13023 -17.9645 0
    endloop
  endfacet
  facet normal 0.125329 -0.992115 0
    outer loop
      vertex 3.37286 -17.6812 0
      vertex 1.13023 -17.9645 -7
      vertex 3.37286 -17.6812 -7
    endloop
  endfacet
  facet normal 0.368113 -0.929781 0
    outer loop
      vertex 5.56231 -17.119 -7
      vertex 7.66403 -16.2869 0
      vertex 5.56231 -17.119 0
    endloop
  endfacet
  facet normal 0.368113 -0.929781 0
    outer loop
      vertex 7.66403 -16.2869 0
      vertex 5.56231 -17.119 -7
      vertex 7.66403 -16.2869 -7
    endloop
  endfacet
  facet normal 0.951059 0.309009 0
    outer loop
      vertex 17.4345 4.47642 0
      vertex 16.736 6.62624 -7
      vertex 16.736 6.62624 0
    endloop
  endfacet
  facet normal 0.951059 0.309009 0
    outer loop
      vertex 16.736 6.62624 -7
      vertex 17.4345 4.47642 0
      vertex 17.4345 4.47642 -7
    endloop
  endfacet
  facet normal 0.770504 0.637435 0
    outer loop
      vertex 14.5623 10.5801 0
      vertex 13.1214 12.3218 -7
      vertex 13.1214 12.3218 0
    endloop
  endfacet
  facet normal 0.770504 0.637435 0
    outer loop
      vertex 13.1214 12.3218 -7
      vertex 14.5623 10.5801 0
      vertex 14.5623 10.5801 -7
    endloop
  endfacet
  facet normal 0.125329 0.992115 -0
    outer loop
      vertex 3.37286 17.6812 -7
      vertex 1.13023 17.9645 0
      vertex 3.37286 17.6812 0
    endloop
  endfacet
  facet normal 0.125329 0.992115 0
    outer loop
      vertex 1.13023 17.9645 0
      vertex 3.37286 17.6812 -7
      vertex 1.13023 17.9645 -7
    endloop
  endfacet
  facet normal 0.587802 0.809005 -0
    outer loop
      vertex 11.4736 13.8692 -7
      vertex 9.64488 15.1979 0
      vertex 11.4736 13.8692 0
    endloop
  endfacet
  facet normal 0.587802 0.809005 0
    outer loop
      vertex 9.64488 15.1979 0
      vertex 11.4736 13.8692 -7
      vertex 9.64488 15.1979 -7
    endloop
  endfacet
  facet normal -0.844326 0.53583 0
    outer loop
      vertex -15.7735 8.67157 -7
      vertex -14.5623 10.5801 0
      vertex -14.5623 10.5801 -7
    endloop
  endfacet
  facet normal -0.844326 0.53583 0
    outer loop
      vertex -14.5623 10.5801 0
      vertex -15.7735 8.67157 -7
      vertex -15.7735 8.67157 0
    endloop
  endfacet
  facet normal -0.982285 0.187395 0
    outer loop
      vertex -17.8581 2.256 -7
      vertex -17.4345 4.47642 0
      vertex -17.4345 4.47642 -7
    endloop
  endfacet
  facet normal -0.982285 0.187395 0
    outer loop
      vertex -17.4345 4.47642 0
      vertex -17.8581 2.256 -7
      vertex -17.8581 2.256 0
    endloop
  endfacet
  facet normal 0 0 1
    outer loop
      vertex 12.1 0 0
      vertex 18 0 0
      vertex 17.8581 2.256 0
    endloop
  endfacet
  facet normal 0 0 1
    outer loop
      vertex 12.0046 1.51653 0
      vertex 17.8581 2.256 0
      vertex 17.4345 4.47642 0
    endloop
  endfacet
  facet normal 0 0 1
    outer loop
      vertex 18 0 0
      vertex 12.1 0 0
      vertex 17.8581 -2.256 0
    endloop
  endfacet
  facet normal 0 0 1
    outer loop
      vertex 11.7199 3.00915 0
      vertex 17.4345 4.47642 0
      vertex 16.736 6.62624 0
    endloop
  endfacet
  facet normal -0 0 1
    outer loop
      vertex 12.0046 -1.51653 0
      vertex 17.8581 -2.256 0
      vertex 12.1 0 0
    endloop
  endfacet
  facet normal 0 0 1
    outer loop
      vertex 11.2503 4.45431 0
      vertex 16.736 6.62624 0
      vertex 15.7735 8.67157 0
    endloop
  endfacet
  facet normal 0 0 1
    outer loop
      vertex 17.8581 -2.256 0
      vertex 12.0046 -1.51653 0
      vertex 17.4345 -4.47642 0
    endloop
  endfacet
  facet normal 0 0 1
    outer loop
      vertex 10.6033 5.82922 0
      vertex 15.7735 8.67157 0
      vertex 14.5623 10.5801 0
    endloop
  endfacet
  facet normal -0 0 1
    outer loop
      vertex 11.7199 -3.00915 0
      vertex 17.4345 -4.47642 0
      vertex 12.0046 -1.51653 0
    endloop
  endfacet
  facet normal 0 0 1
    outer loop
      vertex 9.78911 7.1122 0
      vertex 14.5623 10.5801 0
      vertex 13.1214 12.3218 0
    endloop
  endfacet
  facet normal 0 0 1
    outer loop
      vertex 17.4345 -4.47642 0
      vertex 11.7199 -3.00915 0
      vertex 16.736 -6.62624 0
    endloop
  endfacet
  facet normal -0 0 1
    outer loop
      vertex 11.2503 -4.45431 0
      vertex 16.736 -6.62624 0
      vertex 11.7199 -3.00915 0
    endloop
  endfacet
  facet normal 0 0 1
    outer loop
      vertex 17.8581 2.256 0
      vertex 12.0046 1.51653 0
      vertex 12.1 0 0
    endloop
  endfacet
  facet normal 0 0 1
    outer loop
      vertex 17.4345 4.47642 0
      vertex 11.7199 3.00915 0
      vertex 12.0046 1.51653 0
    endloop
  endfacet
  facet normal 0 0 1
    outer loop
      vertex 8.82052 8.28302 0
      vertex 13.1214 12.3218 0
      vertex 11.4736 13.8692 0
    endloop
  endfacet
  facet normal 0 0 1
    outer loop
      vertex 16.736 6.62624 0
      vertex 11.2503 4.45431 0
      vertex 11.7199 3.00915 0
    endloop
  endfacet
  facet normal 0 0 1
    outer loop
      vertex 15.7735 8.67157 0
      vertex 10.6033 5.82922 0
      vertex 11.2503 4.45431 0
    endloop
  endfacet
  facet normal 0 0 1
    outer loop
      vertex 14.5623 10.5801 0
      vertex 9.78911 7.1122 0
      vertex 10.6033 5.82922 0
    endloop
  endfacet
  facet normal 0 0 1
    outer loop
      vertex 7.71283 9.32321 0
      vertex 11.4736 13.8692 0
      vertex 9.64488 15.1979 0
    endloop
  endfacet
  facet normal 0 0 1
    outer loop
      vertex 13.1214 12.3218 0
      vertex 8.82052 8.28302 0
      vertex 9.78911 7.1122 0
    endloop
  endfacet
  facet normal 0 0 1
    outer loop
      vertex 11.4736 13.8692 0
      vertex 7.71283 9.32321 0
      vertex 8.82052 8.28302 0
    endloop
  endfacet
  facet normal 0 0 1
    outer loop
      vertex 6.4835 10.2164 0
      vertex 9.64488 15.1979 0
      vertex 7.66403 16.2869 0
    endloop
  endfacet
  facet normal 0 0 1
    outer loop
      vertex 9.64488 15.1979 0
      vertex 6.4835 10.2164 0
      vertex 7.71283 9.32321 0
    endloop
  endfacet
  facet normal 0 0 1
    outer loop
      vertex 5.15193 10.9484 0
      vertex 7.66403 16.2869 0
      vertex 5.56231 17.119 0
    endloop
  endfacet
  facet normal 0 0 1
    outer loop
      vertex 7.66403 16.2869 0
      vertex 5.15193 10.9484 0
      vertex 6.4835 10.2164 0
    endloop
  endfacet
  facet normal 0 0 1
    outer loop
      vertex 5.56231 17.119 0
      vertex 3.73911 11.5078 0
      vertex 5.15193 10.9484 0
    endloop
  endfacet
  facet normal 0 0 1
    outer loop
      vertex 3.37286 17.6812 0
      vertex 3.73911 11.5078 0
      vertex 5.56231 17.119 0
    endloop
  endfacet
  facet normal 0 0 1
    outer loop
      vertex 3.37286 17.6812 0
      vertex 2.26731 11.8857 0
      vertex 3.73911 11.5078 0
    endloop
  endfacet
  facet normal 0 0 1
    outer loop
      vertex 1.13023 17.9645 0
      vertex 2.26731 11.8857 0
      vertex 3.37286 17.6812 0
    endloop
  endfacet
  facet normal 0 0 1
    outer loop
      vertex 1.13023 17.9645 0
      vertex 0.759765 12.0761 0
      vertex 2.26731 11.8857 0
    endloop
  endfacet
  facet normal 0 0 1
    outer loop
      vertex 1.13023 17.9645 0
      vertex -0.759765 12.0761 0
      vertex 0.759765 12.0761 0
    endloop
  endfacet
  facet normal -0 0 1
    outer loop
      vertex -1.13023 17.9645 0
      vertex -0.759765 12.0761 0
      vertex 1.13023 17.9645 0
    endloop
  endfacet
  facet normal 0 0 1
    outer loop
      vertex -1.13023 17.9645 0
      vertex -2.26731 11.8857 0
      vertex -0.759765 12.0761 0
    endloop
  endfacet
  facet normal -0 0 1
    outer loop
      vertex -3.37286 17.6812 0
      vertex -2.26731 11.8857 0
      vertex -1.13023 17.9645 0
    endloop
  endfacet
  facet normal 0 0 1
    outer loop
      vertex -3.37286 17.6812 0
      vertex -3.73911 11.5078 0
      vertex -2.26731 11.8857 0
    endloop
  endfacet
  facet normal -0 0 1
    outer loop
      vertex -5.56231 17.119 0
      vertex -3.73911 11.5078 0
      vertex -3.37286 17.6812 0
    endloop
  endfacet
  facet normal 0 0 1
    outer loop
      vertex -3.73911 11.5078 0
      vertex -5.56231 17.119 0
      vertex -5.15193 10.9484 0
    endloop
  endfacet
  facet normal -0 0 1
    outer loop
      vertex -7.66403 16.2869 0
      vertex -5.15193 10.9484 0
      vertex -5.56231 17.119 0
    endloop
  endfacet
  facet normal 0 0 1
    outer loop
      vertex -5.15193 10.9484 0
      vertex -7.66403 16.2869 0
      vertex -6.4835 10.2164 0
    endloop
  endfacet
  facet normal -0 0 1
    outer loop
      vertex -9.64488 15.1979 0
      vertex -6.4835 10.2164 0
      vertex -7.66403 16.2869 0
    endloop
  endfacet
  facet normal 0 0 1
    outer loop
      vertex -6.4835 10.2164 0
      vertex -9.64488 15.1979 0
      vertex -7.71283 9.32321 0
    endloop
  endfacet
  facet normal -0 0 1
    outer loop
      vertex -11.4736 13.8692 0
      vertex -7.71283 9.32321 0
      vertex -9.64488 15.1979 0
    endloop
  endfacet
  facet normal 0 0 1
    outer loop
      vertex -7.71283 9.32321 0
      vertex -11.4736 13.8692 0
      vertex -8.82052 8.28302 0
    endloop
  endfacet
  facet normal -0 0 1
    outer loop
      vertex -13.1214 12.3218 0
      vertex -8.82052 8.28302 0
      vertex -11.4736 13.8692 0
    endloop
  endfacet
  facet normal 0 0 1
    outer loop
      vertex -8.82052 8.28302 0
      vertex -13.1214 12.3218 0
      vertex -9.78911 7.1122 0
    endloop
  endfacet
  facet normal -0 0 1
    outer loop
      vertex -14.5623 10.5801 0
      vertex -9.78911 7.1122 0
      vertex -13.1214 12.3218 0
    endloop
  endfacet
  facet normal 0 0 1
    outer loop
      vertex -9.78911 7.1122 0
      vertex -14.5623 10.5801 0
      vertex -10.6033 5.82922 0
    endloop
  endfacet
  facet normal -0 0 1
    outer loop
      vertex -15.7735 8.67157 0
      vertex -10.6033 5.82922 0
      vertex -14.5623 10.5801 0
    endloop
  endfacet
  facet normal 0 0 1
    outer loop
      vertex -10.6033 5.82922 0
      vertex -15.7735 8.67157 0
      vertex -11.2503 4.45431 0
    endloop
  endfacet
  facet normal -0 0 1
    outer loop
      vertex -16.736 6.62624 0
      vertex -11.2503 4.45431 0
      vertex -15.7735 8.67157 0
    endloop
  endfacet
  facet normal 0 0 1
    outer loop
      vertex 16.736 -6.62624 0
      vertex 11.2503 -4.45431 0
      vertex 15.7735 -8.67157 0
    endloop
  endfacet
  facet normal -0 0 1
    outer loop
      vertex 10.6033 -5.82922 0
      vertex 15.7735 -8.67157 0
      vertex 11.2503 -4.45431 0
    endloop
  endfacet
  facet normal 0 0 1
    outer loop
      vertex 15.7735 -8.67157 0
      vertex 10.6033 -5.82922 0
      vertex 14.5623 -10.5801 0
    endloop
  endfacet
  facet normal -0 0 1
    outer loop
      vertex 9.78911 -7.1122 0
      vertex 14.5623 -10.5801 0
      vertex 10.6033 -5.82922 0
    endloop
  endfacet
  facet normal 0 0 1
    outer loop
      vertex 14.5623 -10.5801 0
      vertex 9.78911 -7.1122 0
      vertex 13.1214 -12.3218 0
    endloop
  endfacet
  facet normal -0 0 1
    outer loop
      vertex 8.82052 -8.28302 0
      vertex 13.1214 -12.3218 0
      vertex 9.78911 -7.1122 0
    endloop
  endfacet
  facet normal 0 0 1
    outer loop
      vertex 13.1214 -12.3218 0
      vertex 8.82052 -8.28302 0
      vertex 11.4736 -13.8692 0
    endloop
  endfacet
  facet normal -0 0 1
    outer loop
      vertex 7.71283 -9.32321 0
      vertex 11.4736 -13.8692 0
      vertex 8.82052 -8.28302 0
    endloop
  endfacet
  facet normal 0 0 1
    outer loop
      vertex 11.4736 -13.8692 0
      vertex 7.71283 -9.32321 0
      vertex 9.64488 -15.1979 0
    endloop
  endfacet
  facet normal -0 0 1
    outer loop
      vertex 6.4835 -10.2164 0
      vertex 9.64488 -15.1979 0
      vertex 7.71283 -9.32321 0
    endloop
  endfacet
  facet normal 0 0 1
    outer loop
      vertex 9.64488 -15.1979 0
      vertex 6.4835 -10.2164 0
      vertex 7.66403 -16.2869 0
    endloop
  endfacet
  facet normal -0 0 1
    outer loop
      vertex 5.15193 -10.9484 0
      vertex 7.66403 -16.2869 0
      vertex 6.4835 -10.2164 0
    endloop
  endfacet
  facet normal 0 0 1
    outer loop
      vertex 7.66403 -16.2869 0
      vertex 5.15193 -10.9484 0
      vertex 5.56231 -17.119 0
    endloop
  endfacet
  facet normal -0 0 1
    outer loop
      vertex 3.73911 -11.5078 0
      vertex 5.56231 -17.119 0
      vertex 5.15193 -10.9484 0
    endloop
  endfacet
  facet normal 0 0 1
    outer loop
      vertex 3.73911 -11.5078 0
      vertex 3.37286 -17.6812 0
      vertex 5.56231 -17.119 0
    endloop
  endfacet
  facet normal -0 0 1
    outer loop
      vertex 2.26731 -11.8857 0
      vertex 3.37286 -17.6812 0
      vertex 3.73911 -11.5078 0
    endloop
  endfacet
  facet normal 0 0 1
    outer loop
      vertex 2.26731 -11.8857 0
      vertex 1.13023 -17.9645 0
      vertex 3.37286 -17.6812 0
    endloop
  endfacet
  facet normal -0 0 1
    outer loop
      vertex 0.759765 -12.0761 0
      vertex 1.13023 -17.9645 0
      vertex 2.26731 -11.8857 0
    endloop
  endfacet
  facet normal -0 0 1
    outer loop
      vertex -0.759765 -12.0761 0
      vertex 1.13023 -17.9645 0
      vertex 0.759765 -12.0761 0
    endloop
  endfacet
  facet normal 0 0 1
    outer loop
      vertex -0.759765 -12.0761 0
      vertex -1.13023 -17.9645 0
      vertex 1.13023 -17.9645 0
    endloop
  endfacet
  facet normal 0 0 1
    outer loop
      vertex -2.26731 -11.8857 0
      vertex -1.13023 -17.9645 0
      vertex -0.759765 -12.0761 0
    endloop
  endfacet
  facet normal 0 0 1
    outer loop
      vertex -2.26731 -11.8857 0
      vertex -3.37286 -17.6812 0
      vertex -1.13023 -17.9645 0
    endloop
  endfacet
  facet normal 0 0 1
    outer loop
      vertex -3.73911 -11.5078 0
      vertex -3.37286 -17.6812 0
      vertex -2.26731 -11.8857 0
    endloop
  endfacet
  facet normal 0 0 1
    outer loop
      vertex -5.56231 -17.119 0
      vertex -3.73911 -11.5078 0
      vertex -5.15193 -10.9484 0
    endloop
  endfacet
  facet normal 0 0 1
    outer loop
      vertex -3.73911 -11.5078 0
      vertex -5.56231 -17.119 0
      vertex -3.37286 -17.6812 0
    endloop
  endfacet
  facet normal 0 0 1
    outer loop
      vertex -7.66403 -16.2869 0
      vertex -5.15193 -10.9484 0
      vertex -6.4835 -10.2164 0
    endloop
  endfacet
  facet normal 0 0 1
    outer loop
      vertex -5.15193 -10.9484 0
      vertex -7.66403 -16.2869 0
      vertex -5.56231 -17.119 0
    endloop
  endfacet
  facet normal 0 0 1
    outer loop
      vertex -9.64488 -15.1979 0
      vertex -6.4835 -10.2164 0
      vertex -7.71283 -9.32321 0
    endloop
  endfacet
  facet normal 0 0 1
    outer loop
      vertex -11.4736 -13.8692 0
      vertex -7.71283 -9.32321 0
      vertex -8.82052 -8.28302 0
    endloop
  endfacet
  facet normal 0 0 1
    outer loop
      vertex -6.4835 -10.2164 0
      vertex -9.64488 -15.1979 0
      vertex -7.66403 -16.2869 0
    endloop
  endfacet
  facet normal 0 0 1
    outer loop
      vertex -13.1214 -12.3218 0
      vertex -8.82052 -8.28302 0
      vertex -9.78911 -7.1122 0
    endloop
  endfacet
  facet normal 0 0 1
    outer loop
      vertex -14.5623 -10.5801 0
      vertex -9.78911 -7.1122 0
      vertex -10.6033 -5.82922 0
    endloop
  endfacet
  facet normal 0 0 1
    outer loop
      vertex -15.7735 -8.67157 0
      vertex -10.6033 -5.82922 0
      vertex -11.2503 -4.45431 0
    endloop
  endfacet
  facet normal 0 0 1
    outer loop
      vertex -7.71283 -9.32321 0
      vertex -11.4736 -13.8692 0
      vertex -9.64488 -15.1979 0
    endloop
  endfacet
  facet normal 0 0 1
    outer loop
      vertex -16.736 -6.62624 0
      vertex -11.2503 -4.45431 0
      vertex -11.7199 -3.00915 0
    endloop
  endfacet
  facet normal 0 0 1
    outer loop
      vertex -17.4345 -4.47642 0
      vertex -11.7199 -3.00915 0
      vertex -12.0046 -1.51653 0
    endloop
  endfacet
  facet normal 0 0 1
    outer loop
      vertex -17.8581 -2.256 0
      vertex -12.0046 -1.51653 0
      vertex -12.1 0 0
    endloop
  endfacet
  facet normal 0 0 1
    outer loop
      vertex -11.2503 4.45431 0
      vertex -16.736 6.62624 0
      vertex -11.7199 3.00915 0
    endloop
  endfacet
  facet normal 0 0 1
    outer loop
      vertex -8.82052 -8.28302 0
      vertex -13.1214 -12.3218 0
      vertex -11.4736 -13.8692 0
    endloop
  endfacet
  facet normal -0 0 1
    outer loop
      vertex -17.4345 4.47642 0
      vertex -11.7199 3.00915 0
      vertex -16.736 6.62624 0
    endloop
  endfacet
  facet normal 0 0 1
    outer loop
      vertex -9.78911 -7.1122 0
      vertex -14.5623 -10.5801 0
      vertex -13.1214 -12.3218 0
    endloop
  endfacet
  facet normal 0 0 1
    outer loop
      vertex -11.7199 3.00915 0
      vertex -17.4345 4.47642 0
      vertex -12.0046 1.51653 0
    endloop
  endfacet
  facet normal 0 0 1
    outer loop
      vertex -10.6033 -5.82922 0
      vertex -15.7735 -8.67157 0
      vertex -14.5623 -10.5801 0
    endloop
  endfacet
  facet normal -0 0 1
    outer loop
      vertex -17.8581 2.256 0
      vertex -12.0046 1.51653 0
      vertex -17.4345 4.47642 0
    endloop
  endfacet
  facet normal 0 0 1
    outer loop
      vertex -11.2503 -4.45431 0
      vertex -16.736 -6.62624 0
      vertex -15.7735 -8.67157 0
    endloop
  endfacet
  facet normal 0 0 1
    outer loop
      vertex -12.0046 1.51653 0
      vertex -17.8581 2.256 0
      vertex -12.1 0 0
    endloop
  endfacet
  facet normal 0 0 1
    outer loop
      vertex -11.7199 -3.00915 0
      vertex -17.4345 -4.47642 0
      vertex -16.736 -6.62624 0
    endloop
  endfacet
  facet normal 0 0 1
    outer loop
      vertex -18 0 0
      vertex -12.1 0 0
      vertex -17.8581 2.256 0
    endloop
  endfacet
  facet normal 0 0 1
    outer loop
      vertex -12.0046 -1.51653 0
      vertex -17.8581 -2.256 0
      vertex -17.4345 -4.47642 0
    endloop
  endfacet
  facet normal 0 0 1
    outer loop
      vertex -12.1 0 0
      vertex -18 0 0
      vertex -17.8581 -2.256 0
    endloop
  endfacet
  facet normal -0.587802 0.809005 0
    outer loop
      vertex -9.64488 15.1979 -7
      vertex -11.4736 13.8692 0
      vertex -9.64488 15.1979 0
    endloop
  endfacet
  facet normal -0.587802 0.809005 0
    outer loop
      vertex -11.4736 13.8692 0
      vertex -9.64488 15.1979 -7
      vertex -11.4736 13.8692 -7
    endloop
  endfacet
  facet normal -0.248708 0.968578 0
    outer loop
      vertex -3.37286 17.6812 -7
      vertex -5.56231 17.119 0
      vertex -3.37286 17.6812 0
    endloop
  endfacet
  facet normal -0.248708 0.968578 0
    outer loop
      vertex -5.56231 17.119 0
      vertex -3.37286 17.6812 -7
      vertex -5.56231 17.119 -7
    endloop
  endfacet
  facet normal 0.998028 -0.0627749 0
    outer loop
      vertex 17.8581 -2.256 0
      vertex 18 0 -7
      vertex 18 0 0
    endloop
  endfacet
  facet normal 0.998028 -0.0627749 0
    outer loop
      vertex 18 0 -7
      vertex 17.8581 -2.256 0
      vertex 17.8581 -2.256 -7
    endloop
  endfacet
  facet normal 0.770504 -0.637435 0
    outer loop
      vertex 13.1214 -12.3218 0
      vertex 14.5623 -10.5801 -7
      vertex 14.5623 -10.5801 0
    endloop
  endfacet
  facet normal 0.770504 -0.637435 0
    outer loop
      vertex 14.5623 -10.5801 -7
      vertex 13.1214 -12.3218 0
      vertex 13.1214 -12.3218 -7
    endloop
  endfacet
  facet normal 0.951059 -0.309009 0
    outer loop
      vertex 16.736 -6.62624 0
      vertex 17.4345 -4.47642 -7
      vertex 17.4345 -4.47642 0
    endloop
  endfacet
  facet normal 0.951059 -0.309009 0
    outer loop
      vertex 17.4345 -4.47642 -7
      vertex 16.736 -6.62624 0
      vertex 16.736 -6.62624 -7
    endloop
  endfacet
  facet normal 0.982285 -0.187395 0
    outer loop
      vertex 17.4345 -4.47642 0
      vertex 17.8581 -2.256 -7
      vertex 17.8581 -2.256 0
    endloop
  endfacet
  facet normal 0.982285 -0.187395 0
    outer loop
      vertex 17.8581 -2.256 -7
      vertex 17.4345 -4.47642 0
      vertex 17.4345 -4.47642 -7
    endloop
  endfacet
  facet normal -0.68455 -0.728966 0
    outer loop
      vertex -13.1214 -12.3218 -7
      vertex -11.4736 -13.8692 0
      vertex -13.1214 -12.3218 0
    endloop
  endfacet
  facet normal -0.68455 -0.728966 -0
    outer loop
      vertex -11.4736 -13.8692 0
      vertex -13.1214 -12.3218 -7
      vertex -11.4736 -13.8692 -7
    endloop
  endfacet
  facet normal -0.770504 -0.637435 0
    outer loop
      vertex -13.1214 -12.3218 -7
      vertex -14.5623 -10.5801 0
      vertex -14.5623 -10.5801 -7
    endloop
  endfacet
  facet normal -0.770504 -0.637435 0
    outer loop
      vertex -14.5623 -10.5801 0
      vertex -13.1214 -12.3218 -7
      vertex -13.1214 -12.3218 0
    endloop
  endfacet
  facet normal 0 0 -1
    outer loop
      vertex 17.8581 -2.256 -7
      vertex 17.8581 2.256 -7
      vertex 18 0 -7
    endloop
  endfacet
  facet normal 0 0 -1
    outer loop
      vertex 17.4345 -4.47642 -7
      vertex 17.8581 2.256 -7
      vertex 17.8581 -2.256 -7
    endloop
  endfacet
  facet normal 0 0 -1
    outer loop
      vertex 17.4345 -4.47642 -7
      vertex 17.4345 4.47642 -7
      vertex 17.8581 2.256 -7
    endloop
  endfacet
  facet normal 0 0 -1
    outer loop
      vertex 16.736 -6.62624 -7
      vertex 17.4345 4.47642 -7
      vertex 17.4345 -4.47642 -7
    endloop
  endfacet
  facet normal 0 0 -1
    outer loop
      vertex 16.736 -6.62624 -7
      vertex 16.736 6.62624 -7
      vertex 17.4345 4.47642 -7
    endloop
  endfacet
  facet normal 0 0 -1
    outer loop
      vertex 15.7735 -8.67157 -7
      vertex 16.736 6.62624 -7
      vertex 16.736 -6.62624 -7
    endloop
  endfacet
  facet normal 0 0 -1
    outer loop
      vertex 15.7735 -8.67157 -7
      vertex 15.7735 8.67157 -7
      vertex 16.736 6.62624 -7
    endloop
  endfacet
  facet normal 0 0 -1
    outer loop
      vertex 14.5623 -10.5801 -7
      vertex 15.7735 8.67157 -7
      vertex 15.7735 -8.67157 -7
    endloop
  endfacet
  facet normal 0 0 -1
    outer loop
      vertex 14.5623 -10.5801 -7
      vertex 14.5623 10.5801 -7
      vertex 15.7735 8.67157 -7
    endloop
  endfacet
  facet normal 0 0 -1
    outer loop
      vertex 13.1214 -12.3218 -7
      vertex 14.5623 10.5801 -7
      vertex 14.5623 -10.5801 -7
    endloop
  endfacet
  facet normal 0 0 -1
    outer loop
      vertex 13.1214 -12.3218 -7
      vertex 13.1214 12.3218 -7
      vertex 14.5623 10.5801 -7
    endloop
  endfacet
  facet normal 0 0 -1
    outer loop
      vertex 11.4736 -13.8692 -7
      vertex 13.1214 12.3218 -7
      vertex 13.1214 -12.3218 -7
    endloop
  endfacet
  facet normal 0 0 -1
    outer loop
      vertex 11.4736 -13.8692 -7
      vertex 11.4736 13.8692 -7
      vertex 13.1214 12.3218 -7
    endloop
  endfacet
  facet normal 0 0 -1
    outer loop
      vertex 9.64488 -15.1979 -7
      vertex 11.4736 13.8692 -7
      vertex 11.4736 -13.8692 -7
    endloop
  endfacet
  facet normal 0 0 -1
    outer loop
      vertex 9.64488 -15.1979 -7
      vertex 9.64488 15.1979 -7
      vertex 11.4736 13.8692 -7
    endloop
  endfacet
  facet normal 0 0 -1
    outer loop
      vertex 7.66403 -16.2869 -7
      vertex 9.64488 15.1979 -7
      vertex 9.64488 -15.1979 -7
    endloop
  endfacet
  facet normal 0 0 -1
    outer loop
      vertex 7.66403 -16.2869 -7
      vertex 7.66403 16.2869 -7
      vertex 9.64488 15.1979 -7
    endloop
  endfacet
  facet normal 0 0 -1
    outer loop
      vertex 5.56231 -17.119 -7
      vertex 7.66403 16.2869 -7
      vertex 7.66403 -16.2869 -7
    endloop
  endfacet
  facet normal 0 0 -1
    outer loop
      vertex 5.56231 -17.119 -7
      vertex 5.56231 17.119 -7
      vertex 7.66403 16.2869 -7
    endloop
  endfacet
  facet normal 0 0 -1
    outer loop
      vertex 3.37286 -17.6812 -7
      vertex 5.56231 17.119 -7
      vertex 5.56231 -17.119 -7
    endloop
  endfacet
  facet normal 0 0 -1
    outer loop
      vertex 3.37286 -17.6812 -7
      vertex 3.37286 17.6812 -7
      vertex 5.56231 17.119 -7
    endloop
  endfacet
  facet normal 0 0 -1
    outer loop
      vertex 1.13023 -17.9645 -7
      vertex 3.37286 17.6812 -7
      vertex 3.37286 -17.6812 -7
    endloop
  endfacet
  facet normal 0 0 -1
    outer loop
      vertex 1.13023 -17.9645 -7
      vertex 1.13023 17.9645 -7
      vertex 3.37286 17.6812 -7
    endloop
  endfacet
  facet normal 0 0 -1
    outer loop
      vertex -1.13023 -17.9645 -7
      vertex 1.13023 17.9645 -7
      vertex 1.13023 -17.9645 -7
    endloop
  endfacet
  facet normal 0 0 -1
    outer loop
      vertex -1.13023 -17.9645 -7
      vertex -1.13023 17.9645 -7
      vertex 1.13023 17.9645 -7
    endloop
  endfacet
  facet normal 0 0 -1
    outer loop
      vertex -3.37286 -17.6812 -7
      vertex -1.13023 17.9645 -7
      vertex -1.13023 -17.9645 -7
    endloop
  endfacet
  facet normal 0 0 -1
    outer loop
      vertex -3.37286 -17.6812 -7
      vertex -3.37286 17.6812 -7
      vertex -1.13023 17.9645 -7
    endloop
  endfacet
  facet normal 0 0 -1
    outer loop
      vertex -5.56231 -17.119 -7
      vertex -3.37286 17.6812 -7
      vertex -3.37286 -17.6812 -7
    endloop
  endfacet
  facet normal 0 0 -1
    outer loop
      vertex -5.56231 -17.119 -7
      vertex -5.56231 17.119 -7
      vertex -3.37286 17.6812 -7
    endloop
  endfacet
  facet normal 0 0 -1
    outer loop
      vertex -7.66403 -16.2869 -7
      vertex -5.56231 17.119 -7
      vertex -5.56231 -17.119 -7
    endloop
  endfacet
  facet normal 0 0 -1
    outer loop
      vertex -7.66403 -16.2869 -7
      vertex -7.66403 16.2869 -7
      vertex -5.56231 17.119 -7
    endloop
  endfacet
  facet normal 0 0 -1
    outer loop
      vertex -9.64488 -15.1979 -7
      vertex -7.66403 16.2869 -7
      vertex -7.66403 -16.2869 -7
    endloop
  endfacet
  facet normal 0 0 -1
    outer loop
      vertex -9.64488 -15.1979 -7
      vertex -9.64488 15.1979 -7
      vertex -7.66403 16.2869 -7
    endloop
  endfacet
  facet normal 0 0 -1
    outer loop
      vertex -11.4736 -13.8692 -7
      vertex -9.64488 15.1979 -7
      vertex -9.64488 -15.1979 -7
    endloop
  endfacet
  facet normal 0 0 -1
    outer loop
      vertex -11.4736 -13.8692 -7
      vertex -11.4736 13.8692 -7
      vertex -9.64488 15.1979 -7
    endloop
  endfacet
  facet normal 0 0 -1
    outer loop
      vertex -13.1214 -12.3218 -7
      vertex -11.4736 13.8692 -7
      vertex -11.4736 -13.8692 -7
    endloop
  endfacet
  facet normal 0 0 -1
    outer loop
      vertex -13.1214 -12.3218 -7
      vertex -13.1214 12.3218 -7
      vertex -11.4736 13.8692 -7
    endloop
  endfacet
  facet normal 0 0 -1
    outer loop
      vertex -14.5623 -10.5801 -7
      vertex -13.1214 12.3218 -7
      vertex -13.1214 -12.3218 -7
    endloop
  endfacet
  facet normal 0 0 -1
    outer loop
      vertex -14.5623 -10.5801 -7
      vertex -14.5623 10.5801 -7
      vertex -13.1214 12.3218 -7
    endloop
  endfacet
  facet normal 0 0 -1
    outer loop
      vertex -15.7735 -8.67157 -7
      vertex -14.5623 10.5801 -7
      vertex -14.5623 -10.5801 -7
    endloop
  endfacet
  facet normal 0 0 -1
    outer loop
      vertex -15.7735 -8.67157 -7
      vertex -15.7735 8.67157 -7
      vertex -14.5623 10.5801 -7
    endloop
  endfacet
  facet normal 0 0 -1
    outer loop
      vertex -16.736 -6.62624 -7
      vertex -15.7735 8.67157 -7
      vertex -15.7735 -8.67157 -7
    endloop
  endfacet
  facet normal 0 0 -1
    outer loop
      vertex -16.736 -6.62624 -7
      vertex -16.736 6.62624 -7
      vertex -15.7735 8.67157 -7
    endloop
  endfacet
  facet normal 0 0 -1
    outer loop
      vertex -17.4345 -4.47642 -7
      vertex -16.736 6.62624 -7
      vertex -16.736 -6.62624 -7
    endloop
  endfacet
  facet normal 0 0 -1
    outer loop
      vertex -17.4345 -4.47642 -7
      vertex -17.4345 4.47642 -7
      vertex -16.736 6.62624 -7
    endloop
  endfacet
  facet normal 0 0 -1
    outer loop
      vertex -17.8581 -2.256 -7
      vertex -17.4345 4.47642 -7
      vertex -17.4345 -4.47642 -7
    endloop
  endfacet
  facet normal 0 0 -1
    outer loop
      vertex -17.8581 -2.256 -7
      vertex -17.8581 2.256 -7
      vertex -17.4345 4.47642 -7
    endloop
  endfacet
  facet normal 0 -0 -1
    outer loop
      vertex -17.8581 2.256 -7
      vertex -17.8581 -2.256 -7
      vertex -18 0 -7
    endloop
  endfacet
  facet normal 0.844326 -0.53583 0
    outer loop
      vertex 14.5623 -10.5801 0
      vertex 15.7735 -8.67157 -7
      vertex 15.7735 -8.67157 0
    endloop
  endfacet
  facet normal 0.844326 -0.53583 0
    outer loop
      vertex 15.7735 -8.67157 -7
      vertex 14.5623 -10.5801 0
      vertex 14.5623 -10.5801 -7
    endloop
  endfacet
  facet normal -0.951059 -0.309009 0
    outer loop
      vertex -16.736 -6.62624 -7
      vertex -17.4345 -4.47642 0
      vertex -17.4345 -4.47642 -7
    endloop
  endfacet
  facet normal -0.951059 -0.309009 0
    outer loop
      vertex -17.4345 -4.47642 0
      vertex -16.736 -6.62624 -7
      vertex -16.736 -6.62624 0
    endloop
  endfacet
  facet normal 0.248708 -0.968578 0
    outer loop
      vertex 3.37286 -17.6812 -7
      vertex 5.56231 -17.119 0
      vertex 3.37286 -17.6812 0
    endloop
  endfacet
  facet normal 0.248708 -0.968578 0
    outer loop
      vertex 5.56231 -17.119 0
      vertex 3.37286 -17.6812 -7
      vertex 5.56231 -17.119 -7
    endloop
  endfacet
  facet normal 0.90482 -0.425794 0
    outer loop
      vertex 15.7735 -8.67157 0
      vertex 16.736 -6.62624 -7
      vertex 16.736 -6.62624 0
    endloop
  endfacet
  facet normal 0.90482 -0.425794 0
    outer loop
      vertex 16.736 -6.62624 -7
      vertex 15.7735 -8.67157 0
      vertex 15.7735 -8.67157 -7
    endloop
  endfacet
  facet normal -0.125329 -0.992115 0
    outer loop
      vertex -3.37286 -17.6812 -7
      vertex -1.13023 -17.9645 0
      vertex -3.37286 -17.6812 0
    endloop
  endfacet
  facet normal -0.125329 -0.992115 -0
    outer loop
      vertex -1.13023 -17.9645 0
      vertex -3.37286 -17.6812 -7
      vertex -1.13023 -17.9645 -7
    endloop
  endfacet
  facet normal -0.368113 -0.929781 0
    outer loop
      vertex -7.66403 -16.2869 -7
      vertex -5.56231 -17.119 0
      vertex -7.66403 -16.2869 0
    endloop
  endfacet
  facet normal -0.368113 -0.929781 -0
    outer loop
      vertex -5.56231 -17.119 0
      vertex -7.66403 -16.2869 -7
      vertex -5.56231 -17.119 -7
    endloop
  endfacet
  facet normal -0.48176 -0.876303 0
    outer loop
      vertex -9.64488 -15.1979 -7
      vertex -7.66403 -16.2869 0
      vertex -9.64488 -15.1979 0
    endloop
  endfacet
  facet normal -0.48176 -0.876303 -0
    outer loop
      vertex -7.66403 -16.2869 0
      vertex -9.64488 -15.1979 -7
      vertex -7.66403 -16.2869 -7
    endloop
  endfacet
  facet normal -0.844326 -0.53583 0
    outer loop
      vertex -14.5623 -10.5801 -7
      vertex -15.7735 -8.67157 0
      vertex -15.7735 -8.67157 -7
    endloop
  endfacet
  facet normal -0.844326 -0.53583 0
    outer loop
      vertex -15.7735 -8.67157 0
      vertex -14.5623 -10.5801 -7
      vertex -14.5623 -10.5801 0
    endloop
  endfacet
  facet normal -0.90482 -0.425794 0
    outer loop
      vertex -15.7735 -8.67157 -7
      vertex -16.736 -6.62624 0
      vertex -16.736 -6.62624 -7
    endloop
  endfacet
  facet normal -0.90482 -0.425794 0
    outer loop
      vertex -16.736 -6.62624 0
      vertex -15.7735 -8.67157 -7
      vertex -15.7735 -8.67157 0
    endloop
  endfacet
  facet normal -0.982285 -0.187395 0
    outer loop
      vertex -17.4345 -4.47642 -7
      vertex -17.8581 -2.256 0
      vertex -17.8581 -2.256 -7
    endloop
  endfacet
  facet normal -0.982285 -0.187395 0
    outer loop
      vertex -17.8581 -2.256 0
      vertex -17.4345 -4.47642 -7
      vertex -17.4345 -4.47642 0
    endloop
  endfacet
  facet normal -0.998028 -0.0627749 0
    outer loop
      vertex -17.8581 -2.256 -7
      vertex -18 0 0
      vertex -18 0 -7
    endloop
  endfacet
  facet normal -0.998028 -0.0627749 0
    outer loop
      vertex -18 0 0
      vertex -17.8581 -2.256 -7
      vertex -17.8581 -2.256 0
    endloop
  endfacet
  facet normal 0.68455 -0.728966 0
    outer loop
      vertex 11.4736 -13.8692 -7
      vertex 13.1214 -12.3218 0
      vertex 11.4736 -13.8692 0
    endloop
  endfacet
  facet normal 0.68455 -0.728966 0
    outer loop
      vertex 13.1214 -12.3218 0
      vertex 11.4736 -13.8692 -7
      vertex 13.1214 -12.3218 -7
    endloop
  endfacet
  facet normal 0.587802 -0.809005 0
    outer loop
      vertex 9.64488 -15.1979 -7
      vertex 11.4736 -13.8692 0
      vertex 9.64488 -15.1979 0
    endloop
  endfacet
  facet normal 0.587802 -0.809005 0
    outer loop
      vertex 11.4736 -13.8692 0
      vertex 9.64488 -15.1979 -7
      vertex 11.4736 -13.8692 -7
    endloop
  endfacet
  facet normal 0.48176 -0.876303 0
    outer loop
      vertex 7.66403 -16.2869 -7
      vertex 9.64488 -15.1979 0
      vertex 7.66403 -16.2869 0
    endloop
  endfacet
  facet normal 0.48176 -0.876303 0
    outer loop
      vertex 9.64488 -15.1979 0
      vertex 7.66403 -16.2869 -7
      vertex 9.64488 -15.1979 -7
    endloop
  endfacet
  facet normal -0.248708 -0.968578 0
    outer loop
      vertex -5.56231 -17.119 -7
      vertex -3.37286 -17.6812 0
      vertex -5.56231 -17.119 0
    endloop
  endfacet
  facet normal -0.248708 -0.968578 -0
    outer loop
      vertex -3.37286 -17.6812 0
      vertex -5.56231 -17.119 -7
      vertex -3.37286 -17.6812 -7
    endloop
  endfacet
  facet normal -0.587802 -0.809005 0
    outer loop
      vertex -11.4736 -13.8692 -7
      vertex -9.64488 -15.1979 0
      vertex -11.4736 -13.8692 0
    endloop
  endfacet
  facet normal -0.587802 -0.809005 -0
    outer loop
      vertex -9.64488 -15.1979 0
      vertex -11.4736 -13.8692 -7
      vertex -9.64488 -15.1979 -7
    endloop
  endfacet
  facet normal -0.904823 -0.425788 0
    outer loop
      vertex 11.2503 4.45431 -6
      vertex 10.6033 5.82922 0
      vertex 10.6033 5.82922 -6
    endloop
  endfacet
  facet normal -0.904823 -0.425788 0
    outer loop
      vertex 10.6033 5.82922 0
      vertex 11.2503 4.45431 -6
      vertex 11.2503 4.45431 0
    endloop
  endfacet
  facet normal -0.844332 -0.53582 0
    outer loop
      vertex 10.6033 5.82922 -6
      vertex 9.78911 7.1122 0
      vertex 9.78911 7.1122 -6
    endloop
  endfacet
  facet normal -0.844332 -0.53582 0
    outer loop
      vertex 9.78911 7.1122 0
      vertex 10.6033 5.82922 -6
      vertex 10.6033 5.82922 0
    endloop
  endfacet
  facet normal -0.368139 -0.929771 0
    outer loop
      vertex 3.73911 11.5078 -6
      vertex 5.15193 10.9484 0
      vertex 3.73911 11.5078 0
    endloop
  endfacet
  facet normal -0.368139 -0.929771 -0
    outer loop
      vertex 5.15193 10.9484 0
      vertex 3.73911 11.5078 -6
      vertex 5.15193 10.9484 -6
    endloop
  endfacet
  facet normal 0.368139 -0.929771 0
    outer loop
      vertex -5.15193 10.9484 -6
      vertex -3.73911 11.5078 0
      vertex -5.15193 10.9484 0
    endloop
  endfacet
  facet normal 0.368139 -0.929771 0
    outer loop
      vertex -3.73911 11.5078 0
      vertex -5.15193 10.9484 -6
      vertex -3.73911 11.5078 -6
    endloop
  endfacet
  facet normal 0.904823 -0.425788 0
    outer loop
      vertex -11.2503 4.45431 0
      vertex -10.6033 5.82922 -6
      vertex -10.6033 5.82922 0
    endloop
  endfacet
  facet normal 0.904823 -0.425788 0
    outer loop
      vertex -10.6033 5.82922 -6
      vertex -11.2503 4.45431 0
      vertex -11.2503 4.45431 -6
    endloop
  endfacet
  facet normal -0.998027 0.0627827 0
    outer loop
      vertex 12.0046 -1.51653 -6
      vertex 12.1 0 0
      vertex 12.1 0 -6
    endloop
  endfacet
  facet normal -0.998027 0.0627827 0
    outer loop
      vertex 12.1 0 0
      vertex 12.0046 -1.51653 -6
      vertex 12.0046 -1.51653 0
    endloop
  endfacet
  facet normal -0.368139 0.929771 0
    outer loop
      vertex 5.15193 -10.9484 -6
      vertex 3.73911 -11.5078 0
      vertex 5.15193 -10.9484 0
    endloop
  endfacet
  facet normal -0.368139 0.929771 0
    outer loop
      vertex 3.73911 -11.5078 0
      vertex 5.15193 -10.9484 -6
      vertex 3.73911 -11.5078 -6
    endloop
  endfacet
  facet normal -0.125303 -0.992119 0
    outer loop
      vertex 0.759765 12.0761 -6
      vertex 2.26731 11.8857 0
      vertex 0.759765 12.0761 0
    endloop
  endfacet
  facet normal -0.125303 -0.992119 -0
    outer loop
      vertex 2.26731 11.8857 0
      vertex 0.759765 12.0761 -6
      vertex 2.26731 11.8857 -6
    endloop
  endfacet
  facet normal 0.998027 -0.0627827 0
    outer loop
      vertex -12.1 0 0
      vertex -12.0046 1.51653 -6
      vertex -12.0046 1.51653 0
    endloop
  endfacet
  facet normal 0.998027 -0.0627827 0
    outer loop
      vertex -12.0046 1.51653 -6
      vertex -12.1 0 0
      vertex -12.1 0 -6
    endloop
  endfacet
  facet normal 0.982291 -0.187361 0
    outer loop
      vertex -12.0046 1.51653 0
      vertex -11.7199 3.00915 -6
      vertex -11.7199 3.00915 0
    endloop
  endfacet
  facet normal 0.982291 -0.187361 0
    outer loop
      vertex -11.7199 3.00915 -6
      vertex -12.0046 1.51653 0
      vertex -12.0046 1.51653 -6
    endloop
  endfacet
  facet normal 0.770512 -0.637425 0
    outer loop
      vertex -9.78911 7.1122 0
      vertex -8.82052 8.28302 -6
      vertex -8.82052 8.28302 0
    endloop
  endfacet
  facet normal 0.770512 -0.637425 0
    outer loop
      vertex -8.82052 8.28302 -6
      vertex -9.78911 7.1122 0
      vertex -9.78911 7.1122 -6
    endloop
  endfacet
  facet normal 0.125303 -0.992119 0
    outer loop
      vertex -2.26731 11.8857 -6
      vertex -0.759765 12.0761 0
      vertex -2.26731 11.8857 0
    endloop
  endfacet
  facet normal 0.125303 -0.992119 0
    outer loop
      vertex -0.759765 12.0761 0
      vertex -2.26731 11.8857 -6
      vertex -0.759765 12.0761 -6
    endloop
  endfacet
  facet normal 0.684547 -0.728969 0
    outer loop
      vertex -8.82052 8.28302 -6
      vertex -7.71283 9.32321 0
      vertex -8.82052 8.28302 0
    endloop
  endfacet
  facet normal 0.684547 -0.728969 0
    outer loop
      vertex -7.71283 9.32321 0
      vertex -8.82052 8.28302 -6
      vertex -7.71283 9.32321 -6
    endloop
  endfacet
  facet normal -0.998027 -0.0627827 0
    outer loop
      vertex 12.1 0 -6
      vertex 12.0046 1.51653 0
      vertex 12.0046 1.51653 -6
    endloop
  endfacet
  facet normal -0.998027 -0.0627827 0
    outer loop
      vertex 12.0046 1.51653 0
      vertex 12.1 0 -6
      vertex 12.1 0 0
    endloop
  endfacet
  facet normal -0.248694 0.968582 0
    outer loop
      vertex 3.73911 -11.5078 -6
      vertex 2.26731 -11.8857 0
      vertex 3.73911 -11.5078 0
    endloop
  endfacet
  facet normal -0.248694 0.968582 0
    outer loop
      vertex 2.26731 -11.8857 0
      vertex 3.73911 -11.5078 -6
      vertex 2.26731 -11.8857 -6
    endloop
  endfacet
  facet normal -0.982291 -0.187361 0
    outer loop
      vertex 12.0046 1.51653 -6
      vertex 11.7199 3.00915 0
      vertex 11.7199 3.00915 -6
    endloop
  endfacet
  facet normal -0.982291 -0.187361 0
    outer loop
      vertex 11.7199 3.00915 0
      vertex 12.0046 1.51653 -6
      vertex 12.0046 1.51653 0
    endloop
  endfacet
  facet normal -0.951049 -0.30904 0
    outer loop
      vertex 11.7199 3.00915 -6
      vertex 11.2503 4.45431 0
      vertex 11.2503 4.45431 -6
    endloop
  endfacet
  facet normal -0.951049 -0.30904 0
    outer loop
      vertex 11.2503 4.45431 0
      vertex 11.7199 3.00915 -6
      vertex 11.7199 3.00915 0
    endloop
  endfacet
  facet normal -0.684547 -0.728969 0
    outer loop
      vertex 7.71283 9.32321 -6
      vertex 8.82052 8.28302 0
      vertex 7.71283 9.32321 0
    endloop
  endfacet
  facet normal -0.684547 -0.728969 -0
    outer loop
      vertex 8.82052 8.28302 0
      vertex 7.71283 9.32321 -6
      vertex 8.82052 8.28302 -6
    endloop
  endfacet
  facet normal 0 -1 0
    outer loop
      vertex -0.759765 12.0761 -6
      vertex 0.759765 12.0761 0
      vertex -0.759765 12.0761 0
    endloop
  endfacet
  facet normal 0 -1 -0
    outer loop
      vertex 0.759765 12.0761 0
      vertex -0.759765 12.0761 -6
      vertex 0.759765 12.0761 -6
    endloop
  endfacet
  facet normal -0.248694 -0.968582 0
    outer loop
      vertex 2.26731 11.8857 -6
      vertex 3.73911 11.5078 0
      vertex 2.26731 11.8857 0
    endloop
  endfacet
  facet normal -0.248694 -0.968582 -0
    outer loop
      vertex 3.73911 11.5078 0
      vertex 2.26731 11.8857 -6
      vertex 3.73911 11.5078 -6
    endloop
  endfacet
  facet normal -0.587798 -0.809008 0
    outer loop
      vertex 6.4835 10.2164 -6
      vertex 7.71283 9.32321 0
      vertex 6.4835 10.2164 0
    endloop
  endfacet
  facet normal -0.587798 -0.809008 -0
    outer loop
      vertex 7.71283 9.32321 0
      vertex 6.4835 10.2164 -6
      vertex 7.71283 9.32321 -6
    endloop
  endfacet
  facet normal -0.481735 -0.876317 0
    outer loop
      vertex 5.15193 10.9484 -6
      vertex 6.4835 10.2164 0
      vertex 5.15193 10.9484 0
    endloop
  endfacet
  facet normal -0.481735 -0.876317 -0
    outer loop
      vertex 6.4835 10.2164 0
      vertex 5.15193 10.9484 -6
      vertex 6.4835 10.2164 -6
    endloop
  endfacet
  facet normal 0.951049 -0.30904 0
    outer loop
      vertex -11.7199 3.00915 0
      vertex -11.2503 4.45431 -6
      vertex -11.2503 4.45431 0
    endloop
  endfacet
  facet normal 0.951049 -0.30904 0
    outer loop
      vertex -11.2503 4.45431 -6
      vertex -11.7199 3.00915 0
      vertex -11.7199 3.00915 -6
    endloop
  endfacet
  facet normal 0.844332 -0.53582 0
    outer loop
      vertex -10.6033 5.82922 0
      vertex -9.78911 7.1122 -6
      vertex -9.78911 7.1122 0
    endloop
  endfacet
  facet normal 0.844332 -0.53582 0
    outer loop
      vertex -9.78911 7.1122 -6
      vertex -10.6033 5.82922 0
      vertex -10.6033 5.82922 -6
    endloop
  endfacet
  facet normal 0.248694 -0.968582 0
    outer loop
      vertex -3.73911 11.5078 -6
      vertex -2.26731 11.8857 0
      vertex -3.73911 11.5078 0
    endloop
  endfacet
  facet normal 0.248694 -0.968582 0
    outer loop
      vertex -2.26731 11.8857 0
      vertex -3.73911 11.5078 -6
      vertex -2.26731 11.8857 -6
    endloop
  endfacet
  facet normal 0.481735 -0.876317 0
    outer loop
      vertex -6.4835 10.2164 -6
      vertex -5.15193 10.9484 0
      vertex -6.4835 10.2164 0
    endloop
  endfacet
  facet normal 0.481735 -0.876317 0
    outer loop
      vertex -5.15193 10.9484 0
      vertex -6.4835 10.2164 -6
      vertex -5.15193 10.9484 -6
    endloop
  endfacet
  facet normal 0.587798 -0.809008 0
    outer loop
      vertex -7.71283 9.32321 -6
      vertex -6.4835 10.2164 0
      vertex -7.71283 9.32321 0
    endloop
  endfacet
  facet normal 0.587798 -0.809008 0
    outer loop
      vertex -6.4835 10.2164 0
      vertex -7.71283 9.32321 -6
      vertex -6.4835 10.2164 -6
    endloop
  endfacet
  facet normal -0.982291 0.187361 0
    outer loop
      vertex 11.7199 -3.00915 -6
      vertex 12.0046 -1.51653 0
      vertex 12.0046 -1.51653 -6
    endloop
  endfacet
  facet normal -0.982291 0.187361 0
    outer loop
      vertex 12.0046 -1.51653 0
      vertex 11.7199 -3.00915 -6
      vertex 11.7199 -3.00915 0
    endloop
  endfacet
  facet normal 0.998027 0.0627827 0
    outer loop
      vertex -12.0046 -1.51653 0
      vertex -12.1 0 -6
      vertex -12.1 0 0
    endloop
  endfacet
  facet normal 0.998027 0.0627827 0
    outer loop
      vertex -12.1 0 -6
      vertex -12.0046 -1.51653 0
      vertex -12.0046 -1.51653 -6
    endloop
  endfacet
  facet normal -0.125303 0.992119 0
    outer loop
      vertex 2.26731 -11.8857 -6
      vertex 0.759765 -12.0761 0
      vertex 2.26731 -11.8857 0
    endloop
  endfacet
  facet normal -0.125303 0.992119 0
    outer loop
      vertex 0.759765 -12.0761 0
      vertex 2.26731 -11.8857 -6
      vertex 0.759765 -12.0761 -6
    endloop
  endfacet
  facet normal -0.770512 -0.637425 0
    outer loop
      vertex 9.78911 7.1122 -6
      vertex 8.82052 8.28302 0
      vertex 8.82052 8.28302 -6
    endloop
  endfacet
  facet normal -0.770512 -0.637425 0
    outer loop
      vertex 8.82052 8.28302 0
      vertex 9.78911 7.1122 -6
      vertex 9.78911 7.1122 0
    endloop
  endfacet
  facet normal -0.481735 0.876317 0
    outer loop
      vertex 6.4835 -10.2164 -6
      vertex 5.15193 -10.9484 0
      vertex 6.4835 -10.2164 0
    endloop
  endfacet
  facet normal -0.481735 0.876317 0
    outer loop
      vertex 5.15193 -10.9484 0
      vertex 6.4835 -10.2164 -6
      vertex 5.15193 -10.9484 -6
    endloop
  endfacet
  facet normal -0.684547 0.728969 0
    outer loop
      vertex 8.82052 -8.28302 -6
      vertex 7.71283 -9.32321 0
      vertex 8.82052 -8.28302 0
    endloop
  endfacet
  facet normal -0.684547 0.728969 0
    outer loop
      vertex 7.71283 -9.32321 0
      vertex 8.82052 -8.28302 -6
      vertex 7.71283 -9.32321 -6
    endloop
  endfacet
  facet normal -0.844332 0.53582 0
    outer loop
      vertex 9.78911 -7.1122 -6
      vertex 10.6033 -5.82922 0
      vertex 10.6033 -5.82922 -6
    endloop
  endfacet
  facet normal -0.844332 0.53582 0
    outer loop
      vertex 10.6033 -5.82922 0
      vertex 9.78911 -7.1122 -6
      vertex 9.78911 -7.1122 0
    endloop
  endfacet
  facet normal 0.368139 0.929771 -0
    outer loop
      vertex -3.73911 -11.5078 -6
      vertex -5.15193 -10.9484 0
      vertex -3.73911 -11.5078 0
    endloop
  endfacet
  facet normal 0.368139 0.929771 0
    outer loop
      vertex -5.15193 -10.9484 0
      vertex -3.73911 -11.5078 -6
      vertex -5.15193 -10.9484 -6
    endloop
  endfacet
  facet normal 0.125303 0.992119 -0
    outer loop
      vertex -0.759765 -12.0761 -6
      vertex -2.26731 -11.8857 0
      vertex -0.759765 -12.0761 0
    endloop
  endfacet
  facet normal 0.125303 0.992119 0
    outer loop
      vertex -2.26731 -11.8857 0
      vertex -0.759765 -12.0761 -6
      vertex -2.26731 -11.8857 -6
    endloop
  endfacet
  facet normal 0.904823 0.425788 0
    outer loop
      vertex -10.6033 -5.82922 0
      vertex -11.2503 -4.45431 -6
      vertex -11.2503 -4.45431 0
    endloop
  endfacet
  facet normal 0.904823 0.425788 0
    outer loop
      vertex -11.2503 -4.45431 -6
      vertex -10.6033 -5.82922 0
      vertex -10.6033 -5.82922 -6
    endloop
  endfacet
  facet normal 0.770512 0.637425 0
    outer loop
      vertex -8.82052 -8.28302 0
      vertex -9.78911 -7.1122 -6
      vertex -9.78911 -7.1122 0
    endloop
  endfacet
  facet normal 0.770512 0.637425 0
    outer loop
      vertex -9.78911 -7.1122 -6
      vertex -8.82052 -8.28302 0
      vertex -8.82052 -8.28302 -6
    endloop
  endfacet
  facet normal -0.951049 0.30904 0
    outer loop
      vertex 11.2503 -4.45431 -6
      vertex 11.7199 -3.00915 0
      vertex 11.7199 -3.00915 -6
    endloop
  endfacet
  facet normal -0.951049 0.30904 0
    outer loop
      vertex 11.7199 -3.00915 0
      vertex 11.2503 -4.45431 -6
      vertex 11.2503 -4.45431 0
    endloop
  endfacet
  facet normal -0.904823 0.425788 0
    outer loop
      vertex 10.6033 -5.82922 -6
      vertex 11.2503 -4.45431 0
      vertex 11.2503 -4.45431 -6
    endloop
  endfacet
  facet normal -0.904823 0.425788 0
    outer loop
      vertex 11.2503 -4.45431 0
      vertex 10.6033 -5.82922 -6
      vertex 10.6033 -5.82922 0
    endloop
  endfacet
  facet normal -0.587798 0.809008 0
    outer loop
      vertex 7.71283 -9.32321 -6
      vertex 6.4835 -10.2164 0
      vertex 7.71283 -9.32321 0
    endloop
  endfacet
  facet normal -0.587798 0.809008 0
    outer loop
      vertex 6.4835 -10.2164 0
      vertex 7.71283 -9.32321 -6
      vertex 6.4835 -10.2164 -6
    endloop
  endfacet
  facet normal 0.587798 0.809008 -0
    outer loop
      vertex -6.4835 -10.2164 -6
      vertex -7.71283 -9.32321 0
      vertex -6.4835 -10.2164 0
    endloop
  endfacet
  facet normal 0.587798 0.809008 0
    outer loop
      vertex -7.71283 -9.32321 0
      vertex -6.4835 -10.2164 -6
      vertex -7.71283 -9.32321 -6
    endloop
  endfacet
  facet normal 0 1 -0
    outer loop
      vertex 0.759765 -12.0761 -6
      vertex -0.759765 -12.0761 0
      vertex 0.759765 -12.0761 0
    endloop
  endfacet
  facet normal 0 1 0
    outer loop
      vertex -0.759765 -12.0761 0
      vertex 0.759765 -12.0761 -6
      vertex -0.759765 -12.0761 -6
    endloop
  endfacet
  facet normal 0.248694 0.968582 -0
    outer loop
      vertex -2.26731 -11.8857 -6
      vertex -3.73911 -11.5078 0
      vertex -2.26731 -11.8857 0
    endloop
  endfacet
  facet normal 0.248694 0.968582 0
    outer loop
      vertex -3.73911 -11.5078 0
      vertex -2.26731 -11.8857 -6
      vertex -3.73911 -11.5078 -6
    endloop
  endfacet
  facet normal 0 0 1
    outer loop
      vertex 12.0046 1.51653 -6
      vertex 12.0046 -1.51653 -6
      vertex 12.1 0 -6
    endloop
  endfacet
  facet normal 0 0 1
    outer loop
      vertex 11.7199 3.00915 -6
      vertex 12.0046 -1.51653 -6
      vertex 12.0046 1.51653 -6
    endloop
  endfacet
  facet normal 0 0 1
    outer loop
      vertex 11.7199 3.00915 -6
      vertex 11.7199 -3.00915 -6
      vertex 12.0046 -1.51653 -6
    endloop
  endfacet
  facet normal 0 0 1
    outer loop
      vertex 11.2503 4.45431 -6
      vertex 11.7199 -3.00915 -6
      vertex 11.7199 3.00915 -6
    endloop
  endfacet
  facet normal 0 0 1
    outer loop
      vertex 11.2503 4.45431 -6
      vertex 11.2503 -4.45431 -6
      vertex 11.7199 -3.00915 -6
    endloop
  endfacet
  facet normal 0 0 1
    outer loop
      vertex 10.6033 5.82922 -6
      vertex 11.2503 -4.45431 -6
      vertex 11.2503 4.45431 -6
    endloop
  endfacet
  facet normal 0 0 1
    outer loop
      vertex 10.6033 5.82922 -6
      vertex 10.6033 -5.82922 -6
      vertex 11.2503 -4.45431 -6
    endloop
  endfacet
  facet normal 0 0 1
    outer loop
      vertex 9.78911 7.1122 -6
      vertex 10.6033 -5.82922 -6
      vertex 10.6033 5.82922 -6
    endloop
  endfacet
  facet normal 0 0 1
    outer loop
      vertex 9.78911 7.1122 -6
      vertex 9.78911 -7.1122 -6
      vertex 10.6033 -5.82922 -6
    endloop
  endfacet
  facet normal 0 0 1
    outer loop
      vertex 8.82052 8.28302 -6
      vertex 9.78911 -7.1122 -6
      vertex 9.78911 7.1122 -6
    endloop
  endfacet
  facet normal 0 0 1
    outer loop
      vertex 8.82052 8.28302 -6
      vertex 8.82052 -8.28302 -6
      vertex 9.78911 -7.1122 -6
    endloop
  endfacet
  facet normal 0 0 1
    outer loop
      vertex 7.71283 9.32321 -6
      vertex 8.82052 -8.28302 -6
      vertex 8.82052 8.28302 -6
    endloop
  endfacet
  facet normal 0 0 1
    outer loop
      vertex 7.71283 9.32321 -6
      vertex 7.71283 -9.32321 -6
      vertex 8.82052 -8.28302 -6
    endloop
  endfacet
  facet normal 0 0 1
    outer loop
      vertex 6.4835 10.2164 -6
      vertex 7.71283 -9.32321 -6
      vertex 7.71283 9.32321 -6
    endloop
  endfacet
  facet normal 0 0 1
    outer loop
      vertex 6.4835 10.2164 -6
      vertex 6.4835 -10.2164 -6
      vertex 7.71283 -9.32321 -6
    endloop
  endfacet
  facet normal 0 0 1
    outer loop
      vertex 5.15193 10.9484 -6
      vertex 6.4835 -10.2164 -6
      vertex 6.4835 10.2164 -6
    endloop
  endfacet
  facet normal 0 0 1
    outer loop
      vertex 5.15193 10.9484 -6
      vertex 5.15193 -10.9484 -6
      vertex 6.4835 -10.2164 -6
    endloop
  endfacet
  facet normal 0 0 1
    outer loop
      vertex 3.73911 11.5078 -6
      vertex 5.15193 -10.9484 -6
      vertex 5.15193 10.9484 -6
    endloop
  endfacet
  facet normal 0 0 1
    outer loop
      vertex 3.73911 11.5078 -6
      vertex 3.73911 -11.5078 -6
      vertex 5.15193 -10.9484 -6
    endloop
  endfacet
  facet normal 0 0 1
    outer loop
      vertex 2.26731 11.8857 -6
      vertex 3.73911 -11.5078 -6
      vertex 3.73911 11.5078 -6
    endloop
  endfacet
  facet normal 0 0 1
    outer loop
      vertex 2.26731 11.8857 -6
      vertex 2.26731 -11.8857 -6
      vertex 3.73911 -11.5078 -6
    endloop
  endfacet
  facet normal 0 0 1
    outer loop
      vertex 0.759765 12.0761 -6
      vertex 2.26731 -11.8857 -6
      vertex 2.26731 11.8857 -6
    endloop
  endfacet
  facet normal 0 0 1
    outer loop
      vertex 0.759765 12.0761 -6
      vertex 0.759765 -12.0761 -6
      vertex 2.26731 -11.8857 -6
    endloop
  endfacet
  facet normal -0 0 1
    outer loop
      vertex -0.759765 12.0761 -6
      vertex 0.759765 -12.0761 -6
      vertex 0.759765 12.0761 -6
    endloop
  endfacet
  facet normal 0 0 1
    outer loop
      vertex -0.759765 12.0761 -6
      vertex -0.759765 -12.0761 -6
      vertex 0.759765 -12.0761 -6
    endloop
  endfacet
  facet normal -0 0 1
    outer loop
      vertex -2.26731 11.8857 -6
      vertex -0.759765 -12.0761 -6
      vertex -0.759765 12.0761 -6
    endloop
  endfacet
  facet normal 0 0 1
    outer loop
      vertex -2.26731 11.8857 -6
      vertex -2.26731 -11.8857 -6
      vertex -0.759765 -12.0761 -6
    endloop
  endfacet
  facet normal -0 0 1
    outer loop
      vertex -3.73911 11.5078 -6
      vertex -2.26731 -11.8857 -6
      vertex -2.26731 11.8857 -6
    endloop
  endfacet
  facet normal 0 0 1
    outer loop
      vertex -3.73911 11.5078 -6
      vertex -3.73911 -11.5078 -6
      vertex -2.26731 -11.8857 -6
    endloop
  endfacet
  facet normal -0 0 1
    outer loop
      vertex -5.15193 10.9484 -6
      vertex -3.73911 -11.5078 -6
      vertex -3.73911 11.5078 -6
    endloop
  endfacet
  facet normal 0 0 1
    outer loop
      vertex -5.15193 10.9484 -6
      vertex -5.15193 -10.9484 -6
      vertex -3.73911 -11.5078 -6
    endloop
  endfacet
  facet normal -0 0 1
    outer loop
      vertex -6.4835 10.2164 -6
      vertex -5.15193 -10.9484 -6
      vertex -5.15193 10.9484 -6
    endloop
  endfacet
  facet normal 0 0 1
    outer loop
      vertex -6.4835 10.2164 -6
      vertex -6.4835 -10.2164 -6
      vertex -5.15193 -10.9484 -6
    endloop
  endfacet
  facet normal -0 0 1
    outer loop
      vertex -7.71283 9.32321 -6
      vertex -6.4835 -10.2164 -6
      vertex -6.4835 10.2164 -6
    endloop
  endfacet
  facet normal 0 0 1
    outer loop
      vertex -7.71283 9.32321 -6
      vertex -7.71283 -9.32321 -6
      vertex -6.4835 -10.2164 -6
    endloop
  endfacet
  facet normal -0 0 1
    outer loop
      vertex -8.82052 8.28302 -6
      vertex -7.71283 -9.32321 -6
      vertex -7.71283 9.32321 -6
    endloop
  endfacet
  facet normal 0 0 1
    outer loop
      vertex -8.82052 8.28302 -6
      vertex -8.82052 -8.28302 -6
      vertex -7.71283 -9.32321 -6
    endloop
  endfacet
  facet normal -0 0 1
    outer loop
      vertex -9.78911 7.1122 -6
      vertex -8.82052 -8.28302 -6
      vertex -8.82052 8.28302 -6
    endloop
  endfacet
  facet normal 0 0 1
    outer loop
      vertex -9.78911 7.1122 -6
      vertex -9.78911 -7.1122 -6
      vertex -8.82052 -8.28302 -6
    endloop
  endfacet
  facet normal -0 0 1
    outer loop
      vertex -10.6033 5.82922 -6
      vertex -9.78911 -7.1122 -6
      vertex -9.78911 7.1122 -6
    endloop
  endfacet
  facet normal 0 0 1
    outer loop
      vertex -10.6033 5.82922 -6
      vertex -10.6033 -5.82922 -6
      vertex -9.78911 -7.1122 -6
    endloop
  endfacet
  facet normal -0 0 1
    outer loop
      vertex -11.2503 4.45431 -6
      vertex -10.6033 -5.82922 -6
      vertex -10.6033 5.82922 -6
    endloop
  endfacet
  facet normal 0 0 1
    outer loop
      vertex -11.2503 4.45431 -6
      vertex -11.2503 -4.45431 -6
      vertex -10.6033 -5.82922 -6
    endloop
  endfacet
  facet normal -0 0 1
    outer loop
      vertex -11.7199 3.00915 -6
      vertex -11.2503 -4.45431 -6
      vertex -11.2503 4.45431 -6
    endloop
  endfacet
  facet normal 0 0 1
    outer loop
      vertex -11.7199 3.00915 -6
      vertex -11.7199 -3.00915 -6
      vertex -11.2503 -4.45431 -6
    endloop
  endfacet
  facet normal -0 0 1
    outer loop
      vertex -12.0046 1.51653 -6
      vertex -11.7199 -3.00915 -6
      vertex -11.7199 3.00915 -6
    endloop
  endfacet
  facet normal 0 0 1
    outer loop
      vertex -12.0046 1.51653 -6
      vertex -12.0046 -1.51653 -6
      vertex -11.7199 -3.00915 -6
    endloop
  endfacet
  facet normal 0 -0 1
    outer loop
      vertex -12.0046 -1.51653 -6
      vertex -12.0046 1.51653 -6
      vertex -12.1 0 -6
    endloop
  endfacet
  facet normal 0.982291 0.187361 0
    outer loop
      vertex -11.7199 -3.00915 0
      vertex -12.0046 -1.51653 -6
      vertex -12.0046 -1.51653 0
    endloop
  endfacet
  facet normal 0.982291 0.187361 0
    outer loop
      vertex -12.0046 -1.51653 -6
      vertex -11.7199 -3.00915 0
      vertex -11.7199 -3.00915 -6
    endloop
  endfacet
  facet normal 0.951049 0.30904 0
    outer loop
      vertex -11.2503 -4.45431 0
      vertex -11.7199 -3.00915 -6
      vertex -11.7199 -3.00915 0
    endloop
  endfacet
  facet normal 0.951049 0.30904 0
    outer loop
      vertex -11.7199 -3.00915 -6
      vertex -11.2503 -4.45431 0
      vertex -11.2503 -4.45431 -6
    endloop
  endfacet
  facet normal 0.684547 0.728969 -0
    outer loop
      vertex -7.71283 -9.32321 -6
      vertex -8.82052 -8.28302 0
      vertex -7.71283 -9.32321 0
    endloop
  endfacet
  facet normal 0.684547 0.728969 0
    outer loop
      vertex -8.82052 -8.28302 0
      vertex -7.71283 -9.32321 -6
      vertex -8.82052 -8.28302 -6
    endloop
  endfacet
  facet normal 0.844332 0.53582 0
    outer loop
      vertex -9.78911 -7.1122 0
      vertex -10.6033 -5.82922 -6
      vertex -10.6033 -5.82922 0
    endloop
  endfacet
  facet normal 0.844332 0.53582 0
    outer loop
      vertex -10.6033 -5.82922 -6
      vertex -9.78911 -7.1122 0
      vertex -9.78911 -7.1122 -6
    endloop
  endfacet
  facet normal -0.770512 0.637425 0
    outer loop
      vertex 8.82052 -8.28302 -6
      vertex 9.78911 -7.1122 0
      vertex 9.78911 -7.1122 -6
    endloop
  endfacet
  facet normal -0.770512 0.637425 0
    outer loop
      vertex 9.78911 -7.1122 0
      vertex 8.82052 -8.28302 -6
      vertex 8.82052 -8.28302 0
    endloop
  endfacet
  facet normal 0.481735 0.876317 -0
    outer loop
      vertex -5.15193 -10.9484 -6
      vertex -6.4835 -10.2164 0
      vertex -5.15193 -10.9484 0
    endloop
  endfacet
  facet normal 0.481735 0.876317 0
    outer loop
      vertex -6.4835 -10.2164 0
      vertex -5.15193 -10.9484 -6
      vertex -6.4835 -10.2164 -6
    endloop
  endfacet
endsolid OpenSCAD_Model
