solid OpenSCAD_Model
  facet normal 0.998025 0.0628122 0
    outer loop
      vertex 12.5 0 0
      vertex 12.4014 1.56666 -4
      vertex 12.4014 1.56666 0
    endloop
  endfacet
  facet normal 0.998025 0.0628122 0
    outer loop
      vertex 12.4014 1.56666 -4
      vertex 12.5 0 0
      vertex 12.5 0 -4
    endloop
  endfacet
  facet normal -0.998025 0.0628122 0
    outer loop
      vertex -12.5 0 -4
      vertex -12.4014 1.56666 0
      vertex -12.4014 1.56666 -4
    endloop
  endfacet
  facet normal -0.998025 0.0628122 0
    outer loop
      vertex -12.4014 1.56666 0
      vertex -12.5 0 -4
      vertex -12.5 0 0
    endloop
  endfacet
  facet normal 0 1 -0
    outer loop
      vertex 0.784881 12.4753 -4
      vertex -0.784881 12.4753 0
      vertex 0.784881 12.4753 0
    endloop
  endfacet
  facet normal 0 1 0
    outer loop
      vertex -0.784881 12.4753 0
      vertex 0.784881 12.4753 -4
      vertex -0.784881 12.4753 -4
    endloop
  endfacet
  facet normal 0 -1 0
    outer loop
      vertex -0.784881 -12.4753 -4
      vertex 0.784881 -12.4753 0
      vertex -0.784881 -12.4753 0
    endloop
  endfacet
  facet normal 0 -1 -0
    outer loop
      vertex 0.784881 -12.4753 0
      vertex -0.784881 -12.4753 -4
      vertex 0.784881 -12.4753 -4
    endloop
  endfacet
  facet normal 0.684548 0.728968 -0
    outer loop
      vertex 9.11211 8.55684 -4
      vertex 7.9678 9.63142 0
      vertex 9.11211 8.55684 0
    endloop
  endfacet
  facet normal 0.684548 0.728968 0
    outer loop
      vertex 7.9678 9.63142 0
      vertex 9.11211 8.55684 -4
      vertex 7.9678 9.63142 -4
    endloop
  endfacet
  facet normal -0.684548 0.728968 0
    outer loop
      vertex -7.9678 9.63142 -4
      vertex -9.11211 8.55684 0
      vertex -7.9678 9.63142 0
    endloop
  endfacet
  facet normal -0.684548 0.728968 0
    outer loop
      vertex -9.11211 8.55684 0
      vertex -7.9678 9.63142 -4
      vertex -9.11211 8.55684 -4
    endloop
  endfacet
  facet normal -0.368142 0.92977 0
    outer loop
      vertex -3.86271 11.8882 -4
      vertex -5.32224 11.3103 0
      vertex -3.86271 11.8882 0
    endloop
  endfacet
  facet normal -0.368142 0.92977 0
    outer loop
      vertex -5.32224 11.3103 0
      vertex -3.86271 11.8882 -4
      vertex -5.32224 11.3103 -4
    endloop
  endfacet
  facet normal 0.90482 0.425795 0
    outer loop
      vertex 11.6222 4.60156 0
      vertex 10.9538 6.02192 -4
      vertex 10.9538 6.02192 0
    endloop
  endfacet
  facet normal 0.90482 0.425795 0
    outer loop
      vertex 10.9538 6.02192 -4
      vertex 11.6222 4.60156 0
      vertex 11.6222 4.60156 -4
    endloop
  endfacet
  facet normal 0.982292 0.187354 0
    outer loop
      vertex 12.4014 1.56666 0
      vertex 12.1073 3.10862 -4
      vertex 12.1073 3.10862 0
    endloop
  endfacet
  facet normal 0.982292 0.187354 0
    outer loop
      vertex 12.1073 3.10862 -4
      vertex 12.4014 1.56666 0
      vertex 12.4014 1.56666 -4
    endloop
  endfacet
  facet normal 0.844333 0.535819 0
    outer loop
      vertex 10.9538 6.02192 0
      vertex 10.1127 7.34731 -4
      vertex 10.1127 7.34731 0
    endloop
  endfacet
  facet normal 0.844333 0.535819 0
    outer loop
      vertex 10.1127 7.34731 -4
      vertex 10.9538 6.02192 0
      vertex 10.9538 6.02192 -4
    endloop
  endfacet
  facet normal 0.368142 0.92977 -0
    outer loop
      vertex 5.32224 11.3103 -4
      vertex 3.86271 11.8882 0
      vertex 5.32224 11.3103 0
    endloop
  endfacet
  facet normal 0.368142 0.92977 0
    outer loop
      vertex 3.86271 11.8882 0
      vertex 5.32224 11.3103 -4
      vertex 3.86271 11.8882 -4
    endloop
  endfacet
  facet normal 0.2487 0.96858 -0
    outer loop
      vertex 3.86271 11.8882 -4
      vertex 2.34227 12.2786 0
      vertex 3.86271 11.8882 0
    endloop
  endfacet
  facet normal 0.2487 0.96858 0
    outer loop
      vertex 2.34227 12.2786 0
      vertex 3.86271 11.8882 -4
      vertex 2.34227 12.2786 -4
    endloop
  endfacet
  facet normal 0.481736 0.876317 -0
    outer loop
      vertex 6.69783 10.5541 -4
      vertex 5.32224 11.3103 0
      vertex 6.69783 10.5541 0
    endloop
  endfacet
  facet normal 0.481736 0.876317 0
    outer loop
      vertex 5.32224 11.3103 0
      vertex 6.69783 10.5541 -4
      vertex 5.32224 11.3103 -4
    endloop
  endfacet
  facet normal -0.90482 0.425795 0
    outer loop
      vertex -11.6222 4.60156 -4
      vertex -10.9538 6.02192 0
      vertex -10.9538 6.02192 -4
    endloop
  endfacet
  facet normal -0.90482 0.425795 0
    outer loop
      vertex -10.9538 6.02192 0
      vertex -11.6222 4.60156 -4
      vertex -11.6222 4.60156 0
    endloop
  endfacet
  facet normal -0.77052 0.637416 0
    outer loop
      vertex -10.1127 7.34731 -4
      vertex -9.11211 8.55684 0
      vertex -9.11211 8.55684 -4
    endloop
  endfacet
  facet normal -0.77052 0.637416 0
    outer loop
      vertex -9.11211 8.55684 0
      vertex -10.1127 7.34731 -4
      vertex -10.1127 7.34731 0
    endloop
  endfacet
  facet normal -0.951054 0.309025 0
    outer loop
      vertex -12.1073 3.10862 -4
      vertex -11.6222 4.60156 0
      vertex -11.6222 4.60156 -4
    endloop
  endfacet
  facet normal -0.951054 0.309025 0
    outer loop
      vertex -11.6222 4.60156 0
      vertex -12.1073 3.10862 -4
      vertex -12.1073 3.10862 0
    endloop
  endfacet
  facet normal -0.125306 0.992118 0
    outer loop
      vertex -0.784881 12.4753 -4
      vertex -2.34227 12.2786 0
      vertex -0.784881 12.4753 0
    endloop
  endfacet
  facet normal -0.125306 0.992118 0
    outer loop
      vertex -2.34227 12.2786 0
      vertex -0.784881 12.4753 -4
      vertex -2.34227 12.2786 -4
    endloop
  endfacet
  facet normal 0.125306 -0.992118 0
    outer loop
      vertex 0.784881 -12.4753 -4
      vertex 2.34227 -12.2786 0
      vertex 0.784881 -12.4753 0
    endloop
  endfacet
  facet normal 0.125306 -0.992118 0
    outer loop
      vertex 2.34227 -12.2786 0
      vertex 0.784881 -12.4753 -4
      vertex 2.34227 -12.2786 -4
    endloop
  endfacet
  facet normal 0.368142 -0.92977 0
    outer loop
      vertex 3.86271 -11.8882 -4
      vertex 5.32224 -11.3103 0
      vertex 3.86271 -11.8882 0
    endloop
  endfacet
  facet normal 0.368142 -0.92977 0
    outer loop
      vertex 5.32224 -11.3103 0
      vertex 3.86271 -11.8882 -4
      vertex 5.32224 -11.3103 -4
    endloop
  endfacet
  facet normal 0.951054 0.309025 0
    outer loop
      vertex 12.1073 3.10862 0
      vertex 11.6222 4.60156 -4
      vertex 11.6222 4.60156 0
    endloop
  endfacet
  facet normal 0.951054 0.309025 0
    outer loop
      vertex 11.6222 4.60156 -4
      vertex 12.1073 3.10862 0
      vertex 12.1073 3.10862 -4
    endloop
  endfacet
  facet normal 0.77052 0.637416 0
    outer loop
      vertex 10.1127 7.34731 0
      vertex 9.11211 8.55684 -4
      vertex 9.11211 8.55684 0
    endloop
  endfacet
  facet normal 0.77052 0.637416 0
    outer loop
      vertex 9.11211 8.55684 -4
      vertex 10.1127 7.34731 0
      vertex 10.1127 7.34731 -4
    endloop
  endfacet
  facet normal 0.125306 0.992118 -0
    outer loop
      vertex 2.34227 12.2786 -4
      vertex 0.784881 12.4753 0
      vertex 2.34227 12.2786 0
    endloop
  endfacet
  facet normal 0.125306 0.992118 0
    outer loop
      vertex 0.784881 12.4753 0
      vertex 2.34227 12.2786 -4
      vertex 0.784881 12.4753 -4
    endloop
  endfacet
  facet normal 0.587782 0.809019 -0
    outer loop
      vertex 7.9678 9.63142 -4
      vertex 6.69783 10.5541 0
      vertex 7.9678 9.63142 0
    endloop
  endfacet
  facet normal 0.587782 0.809019 0
    outer loop
      vertex 6.69783 10.5541 0
      vertex 7.9678 9.63142 -4
      vertex 6.69783 10.5541 -4
    endloop
  endfacet
  facet normal -0.844333 0.535819 0
    outer loop
      vertex -10.9538 6.02192 -4
      vertex -10.1127 7.34731 0
      vertex -10.1127 7.34731 -4
    endloop
  endfacet
  facet normal -0.844333 0.535819 0
    outer loop
      vertex -10.1127 7.34731 0
      vertex -10.9538 6.02192 -4
      vertex -10.9538 6.02192 0
    endloop
  endfacet
  facet normal -0.982292 0.187354 0
    outer loop
      vertex -12.4014 1.56666 -4
      vertex -12.1073 3.10862 0
      vertex -12.1073 3.10862 -4
    endloop
  endfacet
  facet normal -0.982292 0.187354 0
    outer loop
      vertex -12.1073 3.10862 0
      vertex -12.4014 1.56666 -4
      vertex -12.4014 1.56666 0
    endloop
  endfacet
  facet normal 0 0 1
    outer loop
      vertex 6.6 0 0
      vertex 12.5 0 0
      vertex 12.4014 1.56666 0
    endloop
  endfacet
  facet normal 0 0 1
    outer loop
      vertex 6.54796 0.827199 0
      vertex 12.4014 1.56666 0
      vertex 12.1073 3.10862 0
    endloop
  endfacet
  facet normal 0 0 1
    outer loop
      vertex 12.5 0 0
      vertex 6.6 0 0
      vertex 12.4014 -1.56666 0
    endloop
  endfacet
  facet normal 0 0 1
    outer loop
      vertex 6.39265 1.64135 0
      vertex 12.1073 3.10862 0
      vertex 11.6222 4.60156 0
    endloop
  endfacet
  facet normal -0 0 1
    outer loop
      vertex 6.54796 -0.827199 0
      vertex 12.4014 -1.56666 0
      vertex 6.6 0 0
    endloop
  endfacet
  facet normal 0 0 1
    outer loop
      vertex 6.13652 2.42962 0
      vertex 11.6222 4.60156 0
      vertex 10.9538 6.02192 0
    endloop
  endfacet
  facet normal 0 0 1
    outer loop
      vertex 12.4014 -1.56666 0
      vertex 6.54796 -0.827199 0
      vertex 12.1073 -3.10862 0
    endloop
  endfacet
  facet normal 0 0 1
    outer loop
      vertex 5.78362 3.17957 0
      vertex 10.9538 6.02192 0
      vertex 10.1127 7.34731 0
    endloop
  endfacet
  facet normal -0 0 1
    outer loop
      vertex 6.39265 -1.64135 0
      vertex 12.1073 -3.10862 0
      vertex 6.54796 -0.827199 0
    endloop
  endfacet
  facet normal 0 0 1
    outer loop
      vertex 5.33951 3.87938 0
      vertex 10.1127 7.34731 0
      vertex 9.11211 8.55684 0
    endloop
  endfacet
  facet normal 0 0 1
    outer loop
      vertex 12.1073 -3.10862 0
      vertex 6.39265 -1.64135 0
      vertex 11.6222 -4.60156 0
    endloop
  endfacet
  facet normal 0 0 1
    outer loop
      vertex 4.81119 4.51801 0
      vertex 9.11211 8.55684 0
      vertex 7.9678 9.63142 0
    endloop
  endfacet
  facet normal -0 0 1
    outer loop
      vertex 6.13652 -2.42962 0
      vertex 11.6222 -4.60156 0
      vertex 6.39265 -1.64135 0
    endloop
  endfacet
  facet normal 0 0 1
    outer loop
      vertex 4.207 5.08539 0
      vertex 7.9678 9.63142 0
      vertex 6.69783 10.5541 0
    endloop
  endfacet
  facet normal 0 0 1
    outer loop
      vertex 11.6222 -4.60156 0
      vertex 6.13652 -2.42962 0
      vertex 10.9538 -6.02192 0
    endloop
  endfacet
  facet normal -0 0 1
    outer loop
      vertex 5.78362 -3.17957 0
      vertex 10.9538 -6.02192 0
      vertex 6.13652 -2.42962 0
    endloop
  endfacet
  facet normal 0 0 1
    outer loop
      vertex 12.4014 1.56666 0
      vertex 6.54796 0.827199 0
      vertex 6.6 0 0
    endloop
  endfacet
  facet normal 0 0 1
    outer loop
      vertex 12.1073 3.10862 0
      vertex 6.39265 1.64135 0
      vertex 6.54796 0.827199 0
    endloop
  endfacet
  facet normal 0 0 1
    outer loop
      vertex 11.6222 4.60156 0
      vertex 6.13652 2.42962 0
      vertex 6.39265 1.64135 0
    endloop
  endfacet
  facet normal 0 0 1
    outer loop
      vertex 10.9538 6.02192 0
      vertex 5.78362 3.17957 0
      vertex 6.13652 2.42962 0
    endloop
  endfacet
  facet normal 0 0 1
    outer loop
      vertex 10.1127 7.34731 0
      vertex 5.33951 3.87938 0
      vertex 5.78362 3.17957 0
    endloop
  endfacet
  facet normal 0 0 1
    outer loop
      vertex 3.53646 5.57256 0
      vertex 6.69783 10.5541 0
      vertex 5.32224 11.3103 0
    endloop
  endfacet
  facet normal 0 0 1
    outer loop
      vertex 9.11211 8.55684 0
      vertex 4.81119 4.51801 0
      vertex 5.33951 3.87938 0
    endloop
  endfacet
  facet normal 0 0 1
    outer loop
      vertex 7.9678 9.63142 0
      vertex 4.207 5.08539 0
      vertex 4.81119 4.51801 0
    endloop
  endfacet
  facet normal 0 0 1
    outer loop
      vertex 2.81014 5.97186 0
      vertex 5.32224 11.3103 0
      vertex 3.86271 11.8882 0
    endloop
  endfacet
  facet normal 0 0 1
    outer loop
      vertex 6.69783 10.5541 0
      vertex 3.53646 5.57256 0
      vertex 4.207 5.08539 0
    endloop
  endfacet
  facet normal 0 0 1
    outer loop
      vertex 5.32224 11.3103 0
      vertex 2.81014 5.97186 0
      vertex 3.53646 5.57256 0
    endloop
  endfacet
  facet normal 0 0 1
    outer loop
      vertex 2.03951 6.27697 0
      vertex 3.86271 11.8882 0
      vertex 2.34227 12.2786 0
    endloop
  endfacet
  facet normal 0 0 1
    outer loop
      vertex 3.86271 11.8882 0
      vertex 2.03951 6.27697 0
      vertex 2.81014 5.97186 0
    endloop
  endfacet
  facet normal 0 0 1
    outer loop
      vertex 2.34227 12.2786 0
      vertex 1.23672 6.4831 0
      vertex 2.03951 6.27697 0
    endloop
  endfacet
  facet normal 0 0 1
    outer loop
      vertex 0.784881 12.4753 0
      vertex 1.23672 6.4831 0
      vertex 2.34227 12.2786 0
    endloop
  endfacet
  facet normal 0 0 1
    outer loop
      vertex 0.784881 12.4753 0
      vertex 0.414417 6.58698 0
      vertex 1.23672 6.4831 0
    endloop
  endfacet
  facet normal 0 0 1
    outer loop
      vertex 0.784881 12.4753 0
      vertex -0.414417 6.58698 0
      vertex 0.414417 6.58698 0
    endloop
  endfacet
  facet normal -0 0 1
    outer loop
      vertex -0.784881 12.4753 0
      vertex -0.414417 6.58698 0
      vertex 0.784881 12.4753 0
    endloop
  endfacet
  facet normal 0 0 1
    outer loop
      vertex -0.784881 12.4753 0
      vertex -1.23672 6.4831 0
      vertex -0.414417 6.58698 0
    endloop
  endfacet
  facet normal -0 0 1
    outer loop
      vertex -2.34227 12.2786 0
      vertex -1.23672 6.4831 0
      vertex -0.784881 12.4753 0
    endloop
  endfacet
  facet normal 0 0 1
    outer loop
      vertex -1.23672 6.4831 0
      vertex -2.34227 12.2786 0
      vertex -2.03951 6.27697 0
    endloop
  endfacet
  facet normal -0 0 1
    outer loop
      vertex -3.86271 11.8882 0
      vertex -2.03951 6.27697 0
      vertex -2.34227 12.2786 0
    endloop
  endfacet
  facet normal 0 0 1
    outer loop
      vertex -2.03951 6.27697 0
      vertex -3.86271 11.8882 0
      vertex -2.81014 5.97186 0
    endloop
  endfacet
  facet normal -0 0 1
    outer loop
      vertex -5.32224 11.3103 0
      vertex -2.81014 5.97186 0
      vertex -3.86271 11.8882 0
    endloop
  endfacet
  facet normal 0 0 1
    outer loop
      vertex -2.81014 5.97186 0
      vertex -5.32224 11.3103 0
      vertex -3.53646 5.57256 0
    endloop
  endfacet
  facet normal -0 0 1
    outer loop
      vertex -6.69783 10.5541 0
      vertex -3.53646 5.57256 0
      vertex -5.32224 11.3103 0
    endloop
  endfacet
  facet normal 0 0 1
    outer loop
      vertex -3.53646 5.57256 0
      vertex -6.69783 10.5541 0
      vertex -4.207 5.08539 0
    endloop
  endfacet
  facet normal -0 0 1
    outer loop
      vertex -7.9678 9.63142 0
      vertex -4.207 5.08539 0
      vertex -6.69783 10.5541 0
    endloop
  endfacet
  facet normal 0 0 1
    outer loop
      vertex -4.207 5.08539 0
      vertex -7.9678 9.63142 0
      vertex -4.81119 4.51801 0
    endloop
  endfacet
  facet normal -0 0 1
    outer loop
      vertex -9.11211 8.55684 0
      vertex -4.81119 4.51801 0
      vertex -7.9678 9.63142 0
    endloop
  endfacet
  facet normal 0 0 1
    outer loop
      vertex -4.81119 4.51801 0
      vertex -9.11211 8.55684 0
      vertex -5.33951 3.87938 0
    endloop
  endfacet
  facet normal -0 0 1
    outer loop
      vertex -10.1127 7.34731 0
      vertex -5.33951 3.87938 0
      vertex -9.11211 8.55684 0
    endloop
  endfacet
  facet normal -0 0 1
    outer loop
      vertex -10.9538 6.02192 0
      vertex -5.78362 3.17957 0
      vertex -10.1127 7.34731 0
    endloop
  endfacet
  facet normal 0 0 1
    outer loop
      vertex -5.33951 3.87938 0
      vertex -10.1127 7.34731 0
      vertex -5.78362 3.17957 0
    endloop
  endfacet
  facet normal 0 0 1
    outer loop
      vertex 10.9538 -6.02192 0
      vertex 5.78362 -3.17957 0
      vertex 10.1127 -7.34731 0
    endloop
  endfacet
  facet normal -0 0 1
    outer loop
      vertex 5.33951 -3.87938 0
      vertex 10.1127 -7.34731 0
      vertex 5.78362 -3.17957 0
    endloop
  endfacet
  facet normal 0 0 1
    outer loop
      vertex 10.1127 -7.34731 0
      vertex 5.33951 -3.87938 0
      vertex 9.11211 -8.55684 0
    endloop
  endfacet
  facet normal -0 0 1
    outer loop
      vertex 4.81119 -4.51801 0
      vertex 9.11211 -8.55684 0
      vertex 5.33951 -3.87938 0
    endloop
  endfacet
  facet normal 0 0 1
    outer loop
      vertex 9.11211 -8.55684 0
      vertex 4.81119 -4.51801 0
      vertex 7.9678 -9.63142 0
    endloop
  endfacet
  facet normal -0 0 1
    outer loop
      vertex 4.207 -5.08539 0
      vertex 7.9678 -9.63142 0
      vertex 4.81119 -4.51801 0
    endloop
  endfacet
  facet normal 0 0 1
    outer loop
      vertex 7.9678 -9.63142 0
      vertex 4.207 -5.08539 0
      vertex 6.69783 -10.5541 0
    endloop
  endfacet
  facet normal -0 0 1
    outer loop
      vertex 3.53646 -5.57256 0
      vertex 6.69783 -10.5541 0
      vertex 4.207 -5.08539 0
    endloop
  endfacet
  facet normal 0 0 1
    outer loop
      vertex 6.69783 -10.5541 0
      vertex 3.53646 -5.57256 0
      vertex 5.32224 -11.3103 0
    endloop
  endfacet
  facet normal -0 0 1
    outer loop
      vertex 2.81014 -5.97186 0
      vertex 5.32224 -11.3103 0
      vertex 3.53646 -5.57256 0
    endloop
  endfacet
  facet normal 0 0 1
    outer loop
      vertex 5.32224 -11.3103 0
      vertex 2.81014 -5.97186 0
      vertex 3.86271 -11.8882 0
    endloop
  endfacet
  facet normal -0 0 1
    outer loop
      vertex 2.03951 -6.27697 0
      vertex 3.86271 -11.8882 0
      vertex 2.81014 -5.97186 0
    endloop
  endfacet
  facet normal 0 0 1
    outer loop
      vertex 3.86271 -11.8882 0
      vertex 2.03951 -6.27697 0
      vertex 2.34227 -12.2786 0
    endloop
  endfacet
  facet normal -0 0 1
    outer loop
      vertex 1.23672 -6.4831 0
      vertex 2.34227 -12.2786 0
      vertex 2.03951 -6.27697 0
    endloop
  endfacet
  facet normal 0 0 1
    outer loop
      vertex 1.23672 -6.4831 0
      vertex 0.784881 -12.4753 0
      vertex 2.34227 -12.2786 0
    endloop
  endfacet
  facet normal -0 0 1
    outer loop
      vertex 0.414417 -6.58698 0
      vertex 0.784881 -12.4753 0
      vertex 1.23672 -6.4831 0
    endloop
  endfacet
  facet normal -0 0 1
    outer loop
      vertex -0.414417 -6.58698 0
      vertex 0.784881 -12.4753 0
      vertex 0.414417 -6.58698 0
    endloop
  endfacet
  facet normal 0 0 1
    outer loop
      vertex -0.414417 -6.58698 0
      vertex -0.784881 -12.4753 0
      vertex 0.784881 -12.4753 0
    endloop
  endfacet
  facet normal 0 0 1
    outer loop
      vertex -1.23672 -6.4831 0
      vertex -0.784881 -12.4753 0
      vertex -0.414417 -6.58698 0
    endloop
  endfacet
  facet normal 0 0 1
    outer loop
      vertex -2.34227 -12.2786 0
      vertex -1.23672 -6.4831 0
      vertex -2.03951 -6.27697 0
    endloop
  endfacet
  facet normal 0 0 1
    outer loop
      vertex -1.23672 -6.4831 0
      vertex -2.34227 -12.2786 0
      vertex -0.784881 -12.4753 0
    endloop
  endfacet
  facet normal 0 0 1
    outer loop
      vertex -3.86271 -11.8882 0
      vertex -2.03951 -6.27697 0
      vertex -2.81014 -5.97186 0
    endloop
  endfacet
  facet normal 0 0 1
    outer loop
      vertex -5.32224 -11.3103 0
      vertex -2.81014 -5.97186 0
      vertex -3.53646 -5.57256 0
    endloop
  endfacet
  facet normal 0 0 1
    outer loop
      vertex -2.03951 -6.27697 0
      vertex -3.86271 -11.8882 0
      vertex -2.34227 -12.2786 0
    endloop
  endfacet
  facet normal 0 0 1
    outer loop
      vertex -6.69783 -10.5541 0
      vertex -3.53646 -5.57256 0
      vertex -4.207 -5.08539 0
    endloop
  endfacet
  facet normal 0 0 1
    outer loop
      vertex -7.9678 -9.63142 0
      vertex -4.207 -5.08539 0
      vertex -4.81119 -4.51801 0
    endloop
  endfacet
  facet normal 0 0 1
    outer loop
      vertex -2.81014 -5.97186 0
      vertex -5.32224 -11.3103 0
      vertex -3.86271 -11.8882 0
    endloop
  endfacet
  facet normal 0 0 1
    outer loop
      vertex -9.11211 -8.55684 0
      vertex -4.81119 -4.51801 0
      vertex -5.33951 -3.87938 0
    endloop
  endfacet
  facet normal 0 0 1
    outer loop
      vertex -10.1127 -7.34731 0
      vertex -5.33951 -3.87938 0
      vertex -5.78362 -3.17957 0
    endloop
  endfacet
  facet normal 0 0 1
    outer loop
      vertex -10.9538 -6.02192 0
      vertex -5.78362 -3.17957 0
      vertex -6.13652 -2.42962 0
    endloop
  endfacet
  facet normal 0 0 1
    outer loop
      vertex -11.6222 -4.60156 0
      vertex -6.13652 -2.42962 0
      vertex -6.39265 -1.64135 0
    endloop
  endfacet
  facet normal 0 0 1
    outer loop
      vertex -12.1073 -3.10862 0
      vertex -6.39265 -1.64135 0
      vertex -6.54796 -0.827199 0
    endloop
  endfacet
  facet normal 0 0 1
    outer loop
      vertex -3.53646 -5.57256 0
      vertex -6.69783 -10.5541 0
      vertex -5.32224 -11.3103 0
    endloop
  endfacet
  facet normal 0 0 1
    outer loop
      vertex -12.4014 -1.56666 0
      vertex -6.54796 -0.827199 0
      vertex -6.6 0 0
    endloop
  endfacet
  facet normal 0 0 1
    outer loop
      vertex -5.78362 3.17957 0
      vertex -10.9538 6.02192 0
      vertex -6.13652 2.42962 0
    endloop
  endfacet
  facet normal -0 0 1
    outer loop
      vertex -11.6222 4.60156 0
      vertex -6.13652 2.42962 0
      vertex -10.9538 6.02192 0
    endloop
  endfacet
  facet normal 0 0 1
    outer loop
      vertex -4.207 -5.08539 0
      vertex -7.9678 -9.63142 0
      vertex -6.69783 -10.5541 0
    endloop
  endfacet
  facet normal 0 0 1
    outer loop
      vertex -6.13652 2.42962 0
      vertex -11.6222 4.60156 0
      vertex -6.39265 1.64135 0
    endloop
  endfacet
  facet normal 0 0 1
    outer loop
      vertex -4.81119 -4.51801 0
      vertex -9.11211 -8.55684 0
      vertex -7.9678 -9.63142 0
    endloop
  endfacet
  facet normal -0 0 1
    outer loop
      vertex -12.1073 3.10862 0
      vertex -6.39265 1.64135 0
      vertex -11.6222 4.60156 0
    endloop
  endfacet
  facet normal 0 0 1
    outer loop
      vertex -5.33951 -3.87938 0
      vertex -10.1127 -7.34731 0
      vertex -9.11211 -8.55684 0
    endloop
  endfacet
  facet normal 0 0 1
    outer loop
      vertex -6.39265 1.64135 0
      vertex -12.1073 3.10862 0
      vertex -6.54796 0.827199 0
    endloop
  endfacet
  facet normal 0 0 1
    outer loop
      vertex -5.78362 -3.17957 0
      vertex -10.9538 -6.02192 0
      vertex -10.1127 -7.34731 0
    endloop
  endfacet
  facet normal -0 0 1
    outer loop
      vertex -12.4014 1.56666 0
      vertex -6.54796 0.827199 0
      vertex -12.1073 3.10862 0
    endloop
  endfacet
  facet normal 0 0 1
    outer loop
      vertex -6.13652 -2.42962 0
      vertex -11.6222 -4.60156 0
      vertex -10.9538 -6.02192 0
    endloop
  endfacet
  facet normal 0 0 1
    outer loop
      vertex -6.54796 0.827199 0
      vertex -12.4014 1.56666 0
      vertex -6.6 0 0
    endloop
  endfacet
  facet normal 0 0 1
    outer loop
      vertex -6.39265 -1.64135 0
      vertex -12.1073 -3.10862 0
      vertex -11.6222 -4.60156 0
    endloop
  endfacet
  facet normal 0 0 1
    outer loop
      vertex -12.5 0 0
      vertex -6.6 0 0
      vertex -12.4014 1.56666 0
    endloop
  endfacet
  facet normal 0 0 1
    outer loop
      vertex -6.54796 -0.827199 0
      vertex -12.4014 -1.56666 0
      vertex -12.1073 -3.10862 0
    endloop
  endfacet
  facet normal 0 0 1
    outer loop
      vertex -6.6 0 0
      vertex -12.5 0 0
      vertex -12.4014 -1.56666 0
    endloop
  endfacet
  facet normal -0.481736 0.876317 0
    outer loop
      vertex -5.32224 11.3103 -4
      vertex -6.69783 10.5541 0
      vertex -5.32224 11.3103 0
    endloop
  endfacet
  facet normal -0.481736 0.876317 0
    outer loop
      vertex -6.69783 10.5541 0
      vertex -5.32224 11.3103 -4
      vertex -6.69783 10.5541 -4
    endloop
  endfacet
  facet normal -0.587782 0.809019 0
    outer loop
      vertex -6.69783 10.5541 -4
      vertex -7.9678 9.63142 0
      vertex -6.69783 10.5541 0
    endloop
  endfacet
  facet normal -0.587782 0.809019 0
    outer loop
      vertex -7.9678 9.63142 0
      vertex -6.69783 10.5541 -4
      vertex -7.9678 9.63142 -4
    endloop
  endfacet
  facet normal -0.2487 0.96858 0
    outer loop
      vertex -2.34227 12.2786 -4
      vertex -3.86271 11.8882 0
      vertex -2.34227 12.2786 0
    endloop
  endfacet
  facet normal -0.2487 0.96858 0
    outer loop
      vertex -3.86271 11.8882 0
      vertex -2.34227 12.2786 -4
      vertex -3.86271 11.8882 -4
    endloop
  endfacet
  facet normal 0.998025 -0.0628122 0
    outer loop
      vertex 12.4014 -1.56666 0
      vertex 12.5 0 -4
      vertex 12.5 0 0
    endloop
  endfacet
  facet normal 0.998025 -0.0628122 0
    outer loop
      vertex 12.5 0 -4
      vertex 12.4014 -1.56666 0
      vertex 12.4014 -1.56666 -4
    endloop
  endfacet
  facet normal 0.684548 -0.728968 0
    outer loop
      vertex 7.9678 -9.63142 -4
      vertex 9.11211 -8.55684 0
      vertex 7.9678 -9.63142 0
    endloop
  endfacet
  facet normal 0.684548 -0.728968 0
    outer loop
      vertex 9.11211 -8.55684 0
      vertex 7.9678 -9.63142 -4
      vertex 9.11211 -8.55684 -4
    endloop
  endfacet
  facet normal 0.982292 -0.187354 0
    outer loop
      vertex 12.1073 -3.10862 0
      vertex 12.4014 -1.56666 -4
      vertex 12.4014 -1.56666 0
    endloop
  endfacet
  facet normal 0.982292 -0.187354 0
    outer loop
      vertex 12.4014 -1.56666 -4
      vertex 12.1073 -3.10862 0
      vertex 12.1073 -3.10862 -4
    endloop
  endfacet
  facet normal -0.90482 -0.425795 0
    outer loop
      vertex -10.9538 -6.02192 -4
      vertex -11.6222 -4.60156 0
      vertex -11.6222 -4.60156 -4
    endloop
  endfacet
  facet normal -0.90482 -0.425795 0
    outer loop
      vertex -11.6222 -4.60156 0
      vertex -10.9538 -6.02192 -4
      vertex -10.9538 -6.02192 0
    endloop
  endfacet
  facet normal 0 0 -1
    outer loop
      vertex 12.4014 -1.56666 -4
      vertex 12.4014 1.56666 -4
      vertex 12.5 0 -4
    endloop
  endfacet
  facet normal 0 0 -1
    outer loop
      vertex 12.1073 -3.10862 -4
      vertex 12.4014 1.56666 -4
      vertex 12.4014 -1.56666 -4
    endloop
  endfacet
  facet normal 0 0 -1
    outer loop
      vertex 12.1073 -3.10862 -4
      vertex 12.1073 3.10862 -4
      vertex 12.4014 1.56666 -4
    endloop
  endfacet
  facet normal 0 0 -1
    outer loop
      vertex 11.6222 -4.60156 -4
      vertex 12.1073 3.10862 -4
      vertex 12.1073 -3.10862 -4
    endloop
  endfacet
  facet normal 0 0 -1
    outer loop
      vertex 11.6222 -4.60156 -4
      vertex 11.6222 4.60156 -4
      vertex 12.1073 3.10862 -4
    endloop
  endfacet
  facet normal 0 0 -1
    outer loop
      vertex 10.9538 -6.02192 -4
      vertex 11.6222 4.60156 -4
      vertex 11.6222 -4.60156 -4
    endloop
  endfacet
  facet normal 0 0 -1
    outer loop
      vertex 10.9538 -6.02192 -4
      vertex 10.9538 6.02192 -4
      vertex 11.6222 4.60156 -4
    endloop
  endfacet
  facet normal 0 0 -1
    outer loop
      vertex 10.1127 -7.34731 -4
      vertex 10.9538 6.02192 -4
      vertex 10.9538 -6.02192 -4
    endloop
  endfacet
  facet normal 0 0 -1
    outer loop
      vertex 10.1127 -7.34731 -4
      vertex 10.1127 7.34731 -4
      vertex 10.9538 6.02192 -4
    endloop
  endfacet
  facet normal 0 0 -1
    outer loop
      vertex 9.11211 -8.55684 -4
      vertex 10.1127 7.34731 -4
      vertex 10.1127 -7.34731 -4
    endloop
  endfacet
  facet normal 0 0 -1
    outer loop
      vertex 9.11211 -8.55684 -4
      vertex 9.11211 8.55684 -4
      vertex 10.1127 7.34731 -4
    endloop
  endfacet
  facet normal 0 0 -1
    outer loop
      vertex 7.9678 -9.63142 -4
      vertex 9.11211 8.55684 -4
      vertex 9.11211 -8.55684 -4
    endloop
  endfacet
  facet normal 0 0 -1
    outer loop
      vertex 7.9678 -9.63142 -4
      vertex 7.9678 9.63142 -4
      vertex 9.11211 8.55684 -4
    endloop
  endfacet
  facet normal 0 0 -1
    outer loop
      vertex 6.69783 -10.5541 -4
      vertex 7.9678 9.63142 -4
      vertex 7.9678 -9.63142 -4
    endloop
  endfacet
  facet normal 0 0 -1
    outer loop
      vertex 6.69783 -10.5541 -4
      vertex 6.69783 10.5541 -4
      vertex 7.9678 9.63142 -4
    endloop
  endfacet
  facet normal 0 0 -1
    outer loop
      vertex 5.32224 -11.3103 -4
      vertex 6.69783 10.5541 -4
      vertex 6.69783 -10.5541 -4
    endloop
  endfacet
  facet normal 0 0 -1
    outer loop
      vertex 5.32224 -11.3103 -4
      vertex 5.32224 11.3103 -4
      vertex 6.69783 10.5541 -4
    endloop
  endfacet
  facet normal 0 0 -1
    outer loop
      vertex 3.86271 -11.8882 -4
      vertex 5.32224 11.3103 -4
      vertex 5.32224 -11.3103 -4
    endloop
  endfacet
  facet normal 0 0 -1
    outer loop
      vertex 3.86271 -11.8882 -4
      vertex 3.86271 11.8882 -4
      vertex 5.32224 11.3103 -4
    endloop
  endfacet
  facet normal 0 0 -1
    outer loop
      vertex 2.34227 -12.2786 -4
      vertex 3.86271 11.8882 -4
      vertex 3.86271 -11.8882 -4
    endloop
  endfacet
  facet normal 0 0 -1
    outer loop
      vertex 2.34227 -12.2786 -4
      vertex 2.34227 12.2786 -4
      vertex 3.86271 11.8882 -4
    endloop
  endfacet
  facet normal 0 0 -1
    outer loop
      vertex 0.784881 -12.4753 -4
      vertex 2.34227 12.2786 -4
      vertex 2.34227 -12.2786 -4
    endloop
  endfacet
  facet normal 0 0 -1
    outer loop
      vertex 0.784881 -12.4753 -4
      vertex 0.784881 12.4753 -4
      vertex 2.34227 12.2786 -4
    endloop
  endfacet
  facet normal 0 0 -1
    outer loop
      vertex -0.784881 -12.4753 -4
      vertex 0.784881 12.4753 -4
      vertex 0.784881 -12.4753 -4
    endloop
  endfacet
  facet normal 0 0 -1
    outer loop
      vertex -0.784881 -12.4753 -4
      vertex -0.784881 12.4753 -4
      vertex 0.784881 12.4753 -4
    endloop
  endfacet
  facet normal 0 0 -1
    outer loop
      vertex -2.34227 -12.2786 -4
      vertex -0.784881 12.4753 -4
      vertex -0.784881 -12.4753 -4
    endloop
  endfacet
  facet normal 0 0 -1
    outer loop
      vertex -2.34227 -12.2786 -4
      vertex -2.34227 12.2786 -4
      vertex -0.784881 12.4753 -4
    endloop
  endfacet
  facet normal 0 0 -1
    outer loop
      vertex -3.86271 -11.8882 -4
      vertex -2.34227 12.2786 -4
      vertex -2.34227 -12.2786 -4
    endloop
  endfacet
  facet normal 0 0 -1
    outer loop
      vertex -3.86271 -11.8882 -4
      vertex -3.86271 11.8882 -4
      vertex -2.34227 12.2786 -4
    endloop
  endfacet
  facet normal 0 0 -1
    outer loop
      vertex -5.32224 -11.3103 -4
      vertex -3.86271 11.8882 -4
      vertex -3.86271 -11.8882 -4
    endloop
  endfacet
  facet normal 0 0 -1
    outer loop
      vertex -5.32224 -11.3103 -4
      vertex -5.32224 11.3103 -4
      vertex -3.86271 11.8882 -4
    endloop
  endfacet
  facet normal 0 0 -1
    outer loop
      vertex -6.69783 -10.5541 -4
      vertex -5.32224 11.3103 -4
      vertex -5.32224 -11.3103 -4
    endloop
  endfacet
  facet normal 0 0 -1
    outer loop
      vertex -6.69783 -10.5541 -4
      vertex -6.69783 10.5541 -4
      vertex -5.32224 11.3103 -4
    endloop
  endfacet
  facet normal 0 0 -1
    outer loop
      vertex -7.9678 -9.63142 -4
      vertex -6.69783 10.5541 -4
      vertex -6.69783 -10.5541 -4
    endloop
  endfacet
  facet normal 0 0 -1
    outer loop
      vertex -7.9678 -9.63142 -4
      vertex -7.9678 9.63142 -4
      vertex -6.69783 10.5541 -4
    endloop
  endfacet
  facet normal 0 0 -1
    outer loop
      vertex -9.11211 -8.55684 -4
      vertex -7.9678 9.63142 -4
      vertex -7.9678 -9.63142 -4
    endloop
  endfacet
  facet normal 0 0 -1
    outer loop
      vertex -9.11211 -8.55684 -4
      vertex -9.11211 8.55684 -4
      vertex -7.9678 9.63142 -4
    endloop
  endfacet
  facet normal 0 0 -1
    outer loop
      vertex -10.1127 -7.34731 -4
      vertex -9.11211 8.55684 -4
      vertex -9.11211 -8.55684 -4
    endloop
  endfacet
  facet normal 0 0 -1
    outer loop
      vertex -10.1127 -7.34731 -4
      vertex -10.1127 7.34731 -4
      vertex -9.11211 8.55684 -4
    endloop
  endfacet
  facet normal 0 0 -1
    outer loop
      vertex -10.9538 -6.02192 -4
      vertex -10.1127 7.34731 -4
      vertex -10.1127 -7.34731 -4
    endloop
  endfacet
  facet normal 0 0 -1
    outer loop
      vertex -10.9538 -6.02192 -4
      vertex -10.9538 6.02192 -4
      vertex -10.1127 7.34731 -4
    endloop
  endfacet
  facet normal 0 0 -1
    outer loop
      vertex -11.6222 -4.60156 -4
      vertex -10.9538 6.02192 -4
      vertex -10.9538 -6.02192 -4
    endloop
  endfacet
  facet normal 0 0 -1
    outer loop
      vertex -11.6222 -4.60156 -4
      vertex -11.6222 4.60156 -4
      vertex -10.9538 6.02192 -4
    endloop
  endfacet
  facet normal 0 0 -1
    outer loop
      vertex -12.1073 -3.10862 -4
      vertex -11.6222 4.60156 -4
      vertex -11.6222 -4.60156 -4
    endloop
  endfacet
  facet normal 0 0 -1
    outer loop
      vertex -12.1073 -3.10862 -4
      vertex -12.1073 3.10862 -4
      vertex -11.6222 4.60156 -4
    endloop
  endfacet
  facet normal 0 0 -1
    outer loop
      vertex -12.4014 -1.56666 -4
      vertex -12.1073 3.10862 -4
      vertex -12.1073 -3.10862 -4
    endloop
  endfacet
  facet normal 0 0 -1
    outer loop
      vertex -12.4014 -1.56666 -4
      vertex -12.4014 1.56666 -4
      vertex -12.1073 3.10862 -4
    endloop
  endfacet
  facet normal 0 -0 -1
    outer loop
      vertex -12.4014 1.56666 -4
      vertex -12.4014 -1.56666 -4
      vertex -12.5 0 -4
    endloop
  endfacet
  facet normal 0.77052 -0.637416 0
    outer loop
      vertex 9.11211 -8.55684 0
      vertex 10.1127 -7.34731 -4
      vertex 10.1127 -7.34731 0
    endloop
  endfacet
  facet normal 0.77052 -0.637416 0
    outer loop
      vertex 10.1127 -7.34731 -4
      vertex 9.11211 -8.55684 0
      vertex 9.11211 -8.55684 -4
    endloop
  endfacet
  facet normal 0.90482 -0.425795 0
    outer loop
      vertex 10.9538 -6.02192 0
      vertex 11.6222 -4.60156 -4
      vertex 11.6222 -4.60156 0
    endloop
  endfacet
  facet normal 0.90482 -0.425795 0
    outer loop
      vertex 11.6222 -4.60156 -4
      vertex 10.9538 -6.02192 0
      vertex 10.9538 -6.02192 -4
    endloop
  endfacet
  facet normal -0.951054 -0.309025 0
    outer loop
      vertex -11.6222 -4.60156 -4
      vertex -12.1073 -3.10862 0
      vertex -12.1073 -3.10862 -4
    endloop
  endfacet
  facet normal -0.951054 -0.309025 0
    outer loop
      vertex -12.1073 -3.10862 0
      vertex -11.6222 -4.60156 -4
      vertex -11.6222 -4.60156 0
    endloop
  endfacet
  facet normal 0.2487 -0.96858 0
    outer loop
      vertex 2.34227 -12.2786 -4
      vertex 3.86271 -11.8882 0
      vertex 2.34227 -12.2786 0
    endloop
  endfacet
  facet normal 0.2487 -0.96858 0
    outer loop
      vertex 3.86271 -11.8882 0
      vertex 2.34227 -12.2786 -4
      vertex 3.86271 -11.8882 -4
    endloop
  endfacet
  facet normal 0.844333 -0.535819 0
    outer loop
      vertex 10.1127 -7.34731 0
      vertex 10.9538 -6.02192 -4
      vertex 10.9538 -6.02192 0
    endloop
  endfacet
  facet normal 0.844333 -0.535819 0
    outer loop
      vertex 10.9538 -6.02192 -4
      vertex 10.1127 -7.34731 0
      vertex 10.1127 -7.34731 -4
    endloop
  endfacet
  facet normal 0.587782 -0.809019 0
    outer loop
      vertex 6.69783 -10.5541 -4
      vertex 7.9678 -9.63142 0
      vertex 6.69783 -10.5541 0
    endloop
  endfacet
  facet normal 0.587782 -0.809019 0
    outer loop
      vertex 7.9678 -9.63142 0
      vertex 6.69783 -10.5541 -4
      vertex 7.9678 -9.63142 -4
    endloop
  endfacet
  facet normal 0.481736 -0.876317 0
    outer loop
      vertex 5.32224 -11.3103 -4
      vertex 6.69783 -10.5541 0
      vertex 5.32224 -11.3103 0
    endloop
  endfacet
  facet normal 0.481736 -0.876317 0
    outer loop
      vertex 6.69783 -10.5541 0
      vertex 5.32224 -11.3103 -4
      vertex 6.69783 -10.5541 -4
    endloop
  endfacet
  facet normal 0.951054 -0.309025 0
    outer loop
      vertex 11.6222 -4.60156 0
      vertex 12.1073 -3.10862 -4
      vertex 12.1073 -3.10862 0
    endloop
  endfacet
  facet normal 0.951054 -0.309025 0
    outer loop
      vertex 12.1073 -3.10862 -4
      vertex 11.6222 -4.60156 0
      vertex 11.6222 -4.60156 -4
    endloop
  endfacet
  facet normal -0.125306 -0.992118 0
    outer loop
      vertex -2.34227 -12.2786 -4
      vertex -0.784881 -12.4753 0
      vertex -2.34227 -12.2786 0
    endloop
  endfacet
  facet normal -0.125306 -0.992118 -0
    outer loop
      vertex -0.784881 -12.4753 0
      vertex -2.34227 -12.2786 -4
      vertex -0.784881 -12.4753 -4
    endloop
  endfacet
  facet normal -0.368142 -0.92977 0
    outer loop
      vertex -5.32224 -11.3103 -4
      vertex -3.86271 -11.8882 0
      vertex -5.32224 -11.3103 0
    endloop
  endfacet
  facet normal -0.368142 -0.92977 -0
    outer loop
      vertex -3.86271 -11.8882 0
      vertex -5.32224 -11.3103 -4
      vertex -3.86271 -11.8882 -4
    endloop
  endfacet
  facet normal -0.2487 -0.96858 0
    outer loop
      vertex -3.86271 -11.8882 -4
      vertex -2.34227 -12.2786 0
      vertex -3.86271 -11.8882 0
    endloop
  endfacet
  facet normal -0.2487 -0.96858 -0
    outer loop
      vertex -2.34227 -12.2786 0
      vertex -3.86271 -11.8882 -4
      vertex -2.34227 -12.2786 -4
    endloop
  endfacet
  facet normal -0.77052 -0.637416 0
    outer loop
      vertex -9.11211 -8.55684 -4
      vertex -10.1127 -7.34731 0
      vertex -10.1127 -7.34731 -4
    endloop
  endfacet
  facet normal -0.77052 -0.637416 0
    outer loop
      vertex -10.1127 -7.34731 0
      vertex -9.11211 -8.55684 -4
      vertex -9.11211 -8.55684 0
    endloop
  endfacet
  facet normal -0.684548 -0.728968 0
    outer loop
      vertex -9.11211 -8.55684 -4
      vertex -7.9678 -9.63142 0
      vertex -9.11211 -8.55684 0
    endloop
  endfacet
  facet normal -0.684548 -0.728968 -0
    outer loop
      vertex -7.9678 -9.63142 0
      vertex -9.11211 -8.55684 -4
      vertex -7.9678 -9.63142 -4
    endloop
  endfacet
  facet normal -0.982292 -0.187354 0
    outer loop
      vertex -12.1073 -3.10862 -4
      vertex -12.4014 -1.56666 0
      vertex -12.4014 -1.56666 -4
    endloop
  endfacet
  facet normal -0.982292 -0.187354 0
    outer loop
      vertex -12.4014 -1.56666 0
      vertex -12.1073 -3.10862 -4
      vertex -12.1073 -3.10862 0
    endloop
  endfacet
  facet normal -0.998025 -0.0628122 0
    outer loop
      vertex -12.4014 -1.56666 -4
      vertex -12.5 0 0
      vertex -12.5 0 -4
    endloop
  endfacet
  facet normal -0.998025 -0.0628122 0
    outer loop
      vertex -12.5 0 0
      vertex -12.4014 -1.56666 -4
      vertex -12.4014 -1.56666 0
    endloop
  endfacet
  facet normal -0.844333 -0.535819 0
    outer loop
      vertex -10.1127 -7.34731 -4
      vertex -10.9538 -6.02192 0
      vertex -10.9538 -6.02192 -4
    endloop
  endfacet
  facet normal -0.844333 -0.535819 0
    outer loop
      vertex -10.9538 -6.02192 0
      vertex -10.1127 -7.34731 -4
      vertex -10.1127 -7.34731 0
    endloop
  endfacet
  facet normal -0.481736 -0.876317 0
    outer loop
      vertex -6.69783 -10.5541 -4
      vertex -5.32224 -11.3103 0
      vertex -6.69783 -10.5541 0
    endloop
  endfacet
  facet normal -0.481736 -0.876317 -0
    outer loop
      vertex -5.32224 -11.3103 0
      vertex -6.69783 -10.5541 -4
      vertex -5.32224 -11.3103 -4
    endloop
  endfacet
  facet normal -0.587782 -0.809019 0
    outer loop
      vertex -7.9678 -9.63142 -4
      vertex -6.69783 -10.5541 0
      vertex -7.9678 -9.63142 0
    endloop
  endfacet
  facet normal -0.587782 -0.809019 -0
    outer loop
      vertex -6.69783 -10.5541 0
      vertex -7.9678 -9.63142 -4
      vertex -6.69783 -10.5541 -4
    endloop
  endfacet
  facet normal 0.951055 -0.309023 0
    outer loop
      vertex -6.39265 1.64135 0
      vertex -6.13652 2.42962 -3
      vertex -6.13652 2.42962 0
    endloop
  endfacet
  facet normal 0.951055 -0.309023 0
    outer loop
      vertex -6.13652 2.42962 -3
      vertex -6.39265 1.64135 0
      vertex -6.39265 1.64135 -3
    endloop
  endfacet
  facet normal -0.84433 -0.535824 0
    outer loop
      vertex 5.78362 3.17957 -3
      vertex 5.33951 3.87938 0
      vertex 5.33951 3.87938 -3
    endloop
  endfacet
  facet normal -0.84433 -0.535824 0
    outer loop
      vertex 5.33951 3.87938 0
      vertex 5.78362 3.17957 -3
      vertex 5.78362 3.17957 0
    endloop
  endfacet
  facet normal -0.36812 -0.929778 0
    outer loop
      vertex 2.03951 6.27697 -3
      vertex 2.81014 5.97186 0
      vertex 2.03951 6.27697 0
    endloop
  endfacet
  facet normal -0.36812 -0.929778 -0
    outer loop
      vertex 2.81014 5.97186 0
      vertex 2.03951 6.27697 -3
      vertex 2.81014 5.97186 -3
    endloop
  endfacet
  facet normal 0.36812 -0.929778 0
    outer loop
      vertex -2.81014 5.97186 -3
      vertex -2.03951 6.27697 0
      vertex -2.81014 5.97186 0
    endloop
  endfacet
  facet normal 0.36812 -0.929778 0
    outer loop
      vertex -2.03951 6.27697 0
      vertex -2.81014 5.97186 -3
      vertex -2.03951 6.27697 -3
    endloop
  endfacet
  facet normal 0.904827 -0.42578 0
    outer loop
      vertex -6.13652 2.42962 0
      vertex -5.78362 3.17957 -3
      vertex -5.78362 3.17957 0
    endloop
  endfacet
  facet normal 0.904827 -0.42578 0
    outer loop
      vertex -5.78362 3.17957 -3
      vertex -6.13652 2.42962 0
      vertex -6.13652 2.42962 -3
    endloop
  endfacet
  facet normal -0.998027 0.062787 0
    outer loop
      vertex 6.54796 -0.827199 -3
      vertex 6.6 0 0
      vertex 6.6 0 -3
    endloop
  endfacet
  facet normal -0.998027 0.062787 0
    outer loop
      vertex 6.6 0 0
      vertex 6.54796 -0.827199 -3
      vertex 6.54796 -0.827199 0
    endloop
  endfacet
  facet normal -0.481756 0.876306 0
    outer loop
      vertex 3.53646 -5.57256 -3
      vertex 2.81014 -5.97186 0
      vertex 3.53646 -5.57256 0
    endloop
  endfacet
  facet normal -0.481756 0.876306 0
    outer loop
      vertex 2.81014 -5.97186 0
      vertex 3.53646 -5.57256 -3
      vertex 2.81014 -5.97186 -3
    endloop
  endfacet
  facet normal 0 -1 0
    outer loop
      vertex -0.414417 6.58698 -3
      vertex 0.414417 6.58698 0
      vertex -0.414417 6.58698 0
    endloop
  endfacet
  facet normal 0 -1 -0
    outer loop
      vertex 0.414417 6.58698 0
      vertex -0.414417 6.58698 -3
      vertex 0.414417 6.58698 -3
    endloop
  endfacet
  facet normal -0.587781 -0.80902 0
    outer loop
      vertex 3.53646 5.57256 -3
      vertex 4.207 5.08539 0
      vertex 3.53646 5.57256 0
    endloop
  endfacet
  facet normal -0.587781 -0.80902 -0
    outer loop
      vertex 4.207 5.08539 0
      vertex 3.53646 5.57256 -3
      vertex 4.207 5.08539 -3
    endloop
  endfacet
  facet normal 0.770514 -0.637424 0
    outer loop
      vertex -5.33951 3.87938 0
      vertex -4.81119 4.51801 -3
      vertex -4.81119 4.51801 0
    endloop
  endfacet
  facet normal 0.770514 -0.637424 0
    outer loop
      vertex -4.81119 4.51801 -3
      vertex -5.33951 3.87938 0
      vertex -5.33951 3.87938 -3
    endloop
  endfacet
  facet normal 0.684552 -0.728964 0
    outer loop
      vertex -4.81119 4.51801 -3
      vertex -4.207 5.08539 0
      vertex -4.81119 4.51801 0
    endloop
  endfacet
  facet normal 0.684552 -0.728964 0
    outer loop
      vertex -4.207 5.08539 0
      vertex -4.81119 4.51801 -3
      vertex -4.207 5.08539 -3
    endloop
  endfacet
  facet normal -0.998027 -0.062787 0
    outer loop
      vertex 6.6 0 -3
      vertex 6.54796 0.827199 0
      vertex 6.54796 0.827199 -3
    endloop
  endfacet
  facet normal -0.998027 -0.062787 0
    outer loop
      vertex 6.54796 0.827199 0
      vertex 6.6 0 -3
      vertex 6.6 0 0
    endloop
  endfacet
  facet normal -0.36812 0.929778 0
    outer loop
      vertex 2.81014 -5.97186 -3
      vertex 2.03951 -6.27697 0
      vertex 2.81014 -5.97186 0
    endloop
  endfacet
  facet normal -0.36812 0.929778 0
    outer loop
      vertex 2.03951 -6.27697 0
      vertex 2.81014 -5.97186 -3
      vertex 2.03951 -6.27697 -3
    endloop
  endfacet
  facet normal -0.587781 0.80902 0
    outer loop
      vertex 4.207 -5.08539 -3
      vertex 3.53646 -5.57256 0
      vertex 4.207 -5.08539 0
    endloop
  endfacet
  facet normal -0.587781 0.80902 0
    outer loop
      vertex 3.53646 -5.57256 0
      vertex 4.207 -5.08539 -3
      vertex 3.53646 -5.57256 -3
    endloop
  endfacet
  facet normal -0.684552 -0.728964 0
    outer loop
      vertex 4.207 5.08539 -3
      vertex 4.81119 4.51801 0
      vertex 4.207 5.08539 0
    endloop
  endfacet
  facet normal -0.684552 -0.728964 -0
    outer loop
      vertex 4.81119 4.51801 0
      vertex 4.207 5.08539 -3
      vertex 4.81119 4.51801 -3
    endloop
  endfacet
  facet normal -0.2487 -0.968581 0
    outer loop
      vertex 1.23672 6.4831 -3
      vertex 2.03951 6.27697 0
      vertex 1.23672 6.4831 0
    endloop
  endfacet
  facet normal -0.2487 -0.968581 -0
    outer loop
      vertex 2.03951 6.27697 0
      vertex 1.23672 6.4831 -3
      vertex 2.03951 6.27697 -3
    endloop
  endfacet
  facet normal -0.125332 -0.992115 0
    outer loop
      vertex 0.414417 6.58698 -3
      vertex 1.23672 6.4831 0
      vertex 0.414417 6.58698 0
    endloop
  endfacet
  facet normal -0.125332 -0.992115 -0
    outer loop
      vertex 1.23672 6.4831 0
      vertex 0.414417 6.58698 -3
      vertex 1.23672 6.4831 -3
    endloop
  endfacet
  facet normal -0.481756 -0.876306 0
    outer loop
      vertex 2.81014 5.97186 -3
      vertex 3.53646 5.57256 0
      vertex 2.81014 5.97186 0
    endloop
  endfacet
  facet normal -0.481756 -0.876306 -0
    outer loop
      vertex 3.53646 5.57256 0
      vertex 2.81014 5.97186 -3
      vertex 3.53646 5.57256 -3
    endloop
  endfacet
  facet normal 0.998027 -0.062787 0
    outer loop
      vertex -6.6 0 0
      vertex -6.54796 0.827199 -3
      vertex -6.54796 0.827199 0
    endloop
  endfacet
  facet normal 0.998027 -0.062787 0
    outer loop
      vertex -6.54796 0.827199 -3
      vertex -6.6 0 0
      vertex -6.6 0 -3
    endloop
  endfacet
  facet normal 0.982287 -0.187384 0
    outer loop
      vertex -6.54796 0.827199 0
      vertex -6.39265 1.64135 -3
      vertex -6.39265 1.64135 0
    endloop
  endfacet
  facet normal 0.982287 -0.187384 0
    outer loop
      vertex -6.39265 1.64135 -3
      vertex -6.54796 0.827199 0
      vertex -6.54796 0.827199 -3
    endloop
  endfacet
  facet normal 0.84433 -0.535824 0
    outer loop
      vertex -5.78362 3.17957 0
      vertex -5.33951 3.87938 -3
      vertex -5.33951 3.87938 0
    endloop
  endfacet
  facet normal 0.84433 -0.535824 0
    outer loop
      vertex -5.33951 3.87938 -3
      vertex -5.78362 3.17957 0
      vertex -5.78362 3.17957 -3
    endloop
  endfacet
  facet normal 0.125332 -0.992115 0
    outer loop
      vertex -1.23672 6.4831 -3
      vertex -0.414417 6.58698 0
      vertex -1.23672 6.4831 0
    endloop
  endfacet
  facet normal 0.125332 -0.992115 0
    outer loop
      vertex -0.414417 6.58698 0
      vertex -1.23672 6.4831 -3
      vertex -0.414417 6.58698 -3
    endloop
  endfacet
  facet normal 0.2487 -0.968581 0
    outer loop
      vertex -2.03951 6.27697 -3
      vertex -1.23672 6.4831 0
      vertex -2.03951 6.27697 0
    endloop
  endfacet
  facet normal 0.2487 -0.968581 0
    outer loop
      vertex -1.23672 6.4831 0
      vertex -2.03951 6.27697 -3
      vertex -1.23672 6.4831 -3
    endloop
  endfacet
  facet normal 0.481756 -0.876306 0
    outer loop
      vertex -3.53646 5.57256 -3
      vertex -2.81014 5.97186 0
      vertex -3.53646 5.57256 0
    endloop
  endfacet
  facet normal 0.481756 -0.876306 0
    outer loop
      vertex -2.81014 5.97186 0
      vertex -3.53646 5.57256 -3
      vertex -2.81014 5.97186 -3
    endloop
  endfacet
  facet normal 0.587781 -0.80902 0
    outer loop
      vertex -4.207 5.08539 -3
      vertex -3.53646 5.57256 0
      vertex -4.207 5.08539 0
    endloop
  endfacet
  facet normal 0.587781 -0.80902 0
    outer loop
      vertex -3.53646 5.57256 0
      vertex -4.207 5.08539 -3
      vertex -3.53646 5.57256 -3
    endloop
  endfacet
  facet normal -0.982287 0.187384 0
    outer loop
      vertex 6.39265 -1.64135 -3
      vertex 6.54796 -0.827199 0
      vertex 6.54796 -0.827199 -3
    endloop
  endfacet
  facet normal -0.982287 0.187384 0
    outer loop
      vertex 6.54796 -0.827199 0
      vertex 6.39265 -1.64135 -3
      vertex 6.39265 -1.64135 0
    endloop
  endfacet
  facet normal 0.84433 0.535824 0
    outer loop
      vertex -5.33951 -3.87938 0
      vertex -5.78362 -3.17957 -3
      vertex -5.78362 -3.17957 0
    endloop
  endfacet
  facet normal 0.84433 0.535824 0
    outer loop
      vertex -5.78362 -3.17957 -3
      vertex -5.33951 -3.87938 0
      vertex -5.33951 -3.87938 -3
    endloop
  endfacet
  facet normal -0.125332 0.992115 0
    outer loop
      vertex 1.23672 -6.4831 -3
      vertex 0.414417 -6.58698 0
      vertex 1.23672 -6.4831 0
    endloop
  endfacet
  facet normal -0.125332 0.992115 0
    outer loop
      vertex 0.414417 -6.58698 0
      vertex 1.23672 -6.4831 -3
      vertex 0.414417 -6.58698 -3
    endloop
  endfacet
  facet normal -0.904827 -0.42578 0
    outer loop
      vertex 6.13652 2.42962 -3
      vertex 5.78362 3.17957 0
      vertex 5.78362 3.17957 -3
    endloop
  endfacet
  facet normal -0.904827 -0.42578 0
    outer loop
      vertex 5.78362 3.17957 0
      vertex 6.13652 2.42962 -3
      vertex 6.13652 2.42962 0
    endloop
  endfacet
  facet normal -0.951055 -0.309023 0
    outer loop
      vertex 6.39265 1.64135 -3
      vertex 6.13652 2.42962 0
      vertex 6.13652 2.42962 -3
    endloop
  endfacet
  facet normal -0.951055 -0.309023 0
    outer loop
      vertex 6.13652 2.42962 0
      vertex 6.39265 1.64135 -3
      vertex 6.39265 1.64135 0
    endloop
  endfacet
  facet normal -0.982287 -0.187384 0
    outer loop
      vertex 6.54796 0.827199 -3
      vertex 6.39265 1.64135 0
      vertex 6.39265 1.64135 -3
    endloop
  endfacet
  facet normal -0.982287 -0.187384 0
    outer loop
      vertex 6.39265 1.64135 0
      vertex 6.54796 0.827199 -3
      vertex 6.54796 0.827199 0
    endloop
  endfacet
  facet normal -0.770514 -0.637424 0
    outer loop
      vertex 5.33951 3.87938 -3
      vertex 4.81119 4.51801 0
      vertex 4.81119 4.51801 -3
    endloop
  endfacet
  facet normal -0.770514 -0.637424 0
    outer loop
      vertex 4.81119 4.51801 0
      vertex 5.33951 3.87938 -3
      vertex 5.33951 3.87938 0
    endloop
  endfacet
  facet normal -0.684552 0.728964 0
    outer loop
      vertex 4.81119 -4.51801 -3
      vertex 4.207 -5.08539 0
      vertex 4.81119 -4.51801 0
    endloop
  endfacet
  facet normal -0.684552 0.728964 0
    outer loop
      vertex 4.207 -5.08539 0
      vertex 4.81119 -4.51801 -3
      vertex 4.207 -5.08539 -3
    endloop
  endfacet
  facet normal -0.84433 0.535824 0
    outer loop
      vertex 5.33951 -3.87938 -3
      vertex 5.78362 -3.17957 0
      vertex 5.78362 -3.17957 -3
    endloop
  endfacet
  facet normal -0.84433 0.535824 0
    outer loop
      vertex 5.78362 -3.17957 0
      vertex 5.33951 -3.87938 -3
      vertex 5.33951 -3.87938 0
    endloop
  endfacet
  facet normal 0 1 -0
    outer loop
      vertex 0.414417 -6.58698 -3
      vertex -0.414417 -6.58698 0
      vertex 0.414417 -6.58698 0
    endloop
  endfacet
  facet normal 0 1 0
    outer loop
      vertex -0.414417 -6.58698 0
      vertex 0.414417 -6.58698 -3
      vertex -0.414417 -6.58698 -3
    endloop
  endfacet
  facet normal 0.998027 0.062787 0
    outer loop
      vertex -6.54796 -0.827199 0
      vertex -6.6 0 -3
      vertex -6.6 0 0
    endloop
  endfacet
  facet normal 0.998027 0.062787 0
    outer loop
      vertex -6.6 0 -3
      vertex -6.54796 -0.827199 0
      vertex -6.54796 -0.827199 -3
    endloop
  endfacet
  facet normal 0.904827 0.42578 0
    outer loop
      vertex -5.78362 -3.17957 0
      vertex -6.13652 -2.42962 -3
      vertex -6.13652 -2.42962 0
    endloop
  endfacet
  facet normal 0.904827 0.42578 0
    outer loop
      vertex -6.13652 -2.42962 -3
      vertex -5.78362 -3.17957 0
      vertex -5.78362 -3.17957 -3
    endloop
  endfacet
  facet normal 0.951055 0.309023 0
    outer loop
      vertex -6.13652 -2.42962 0
      vertex -6.39265 -1.64135 -3
      vertex -6.39265 -1.64135 0
    endloop
  endfacet
  facet normal 0.951055 0.309023 0
    outer loop
      vertex -6.39265 -1.64135 -3
      vertex -6.13652 -2.42962 0
      vertex -6.13652 -2.42962 -3
    endloop
  endfacet
  facet normal 0.770514 0.637424 0
    outer loop
      vertex -4.81119 -4.51801 0
      vertex -5.33951 -3.87938 -3
      vertex -5.33951 -3.87938 0
    endloop
  endfacet
  facet normal 0.770514 0.637424 0
    outer loop
      vertex -5.33951 -3.87938 -3
      vertex -4.81119 -4.51801 0
      vertex -4.81119 -4.51801 -3
    endloop
  endfacet
  facet normal -0.951055 0.309023 0
    outer loop
      vertex 6.13652 -2.42962 -3
      vertex 6.39265 -1.64135 0
      vertex 6.39265 -1.64135 -3
    endloop
  endfacet
  facet normal -0.951055 0.309023 0
    outer loop
      vertex 6.39265 -1.64135 0
      vertex 6.13652 -2.42962 -3
      vertex 6.13652 -2.42962 0
    endloop
  endfacet
  facet normal -0.904827 0.42578 0
    outer loop
      vertex 5.78362 -3.17957 -3
      vertex 6.13652 -2.42962 0
      vertex 6.13652 -2.42962 -3
    endloop
  endfacet
  facet normal -0.904827 0.42578 0
    outer loop
      vertex 6.13652 -2.42962 0
      vertex 5.78362 -3.17957 -3
      vertex 5.78362 -3.17957 0
    endloop
  endfacet
  facet normal 0.587781 0.80902 -0
    outer loop
      vertex -3.53646 -5.57256 -3
      vertex -4.207 -5.08539 0
      vertex -3.53646 -5.57256 0
    endloop
  endfacet
  facet normal 0.587781 0.80902 0
    outer loop
      vertex -4.207 -5.08539 0
      vertex -3.53646 -5.57256 -3
      vertex -4.207 -5.08539 -3
    endloop
  endfacet
  facet normal 0.2487 0.968581 -0
    outer loop
      vertex -1.23672 -6.4831 -3
      vertex -2.03951 -6.27697 0
      vertex -1.23672 -6.4831 0
    endloop
  endfacet
  facet normal 0.2487 0.968581 0
    outer loop
      vertex -2.03951 -6.27697 0
      vertex -1.23672 -6.4831 -3
      vertex -2.03951 -6.27697 -3
    endloop
  endfacet
  facet normal 0 0 1
    outer loop
      vertex 6.54796 0.827199 -3
      vertex 6.54796 -0.827199 -3
      vertex 6.6 0 -3
    endloop
  endfacet
  facet normal 0 0 1
    outer loop
      vertex 6.39265 1.64135 -3
      vertex 6.54796 -0.827199 -3
      vertex 6.54796 0.827199 -3
    endloop
  endfacet
  facet normal 0 0 1
    outer loop
      vertex 6.39265 1.64135 -3
      vertex 6.39265 -1.64135 -3
      vertex 6.54796 -0.827199 -3
    endloop
  endfacet
  facet normal 0 0 1
    outer loop
      vertex 6.13652 2.42962 -3
      vertex 6.39265 -1.64135 -3
      vertex 6.39265 1.64135 -3
    endloop
  endfacet
  facet normal 0 0 1
    outer loop
      vertex 6.13652 2.42962 -3
      vertex 6.13652 -2.42962 -3
      vertex 6.39265 -1.64135 -3
    endloop
  endfacet
  facet normal 0 0 1
    outer loop
      vertex 5.78362 3.17957 -3
      vertex 6.13652 -2.42962 -3
      vertex 6.13652 2.42962 -3
    endloop
  endfacet
  facet normal 0 0 1
    outer loop
      vertex 5.78362 3.17957 -3
      vertex 5.78362 -3.17957 -3
      vertex 6.13652 -2.42962 -3
    endloop
  endfacet
  facet normal 0 0 1
    outer loop
      vertex 5.33951 3.87938 -3
      vertex 5.78362 -3.17957 -3
      vertex 5.78362 3.17957 -3
    endloop
  endfacet
  facet normal 0 0 1
    outer loop
      vertex 5.33951 3.87938 -3
      vertex 5.33951 -3.87938 -3
      vertex 5.78362 -3.17957 -3
    endloop
  endfacet
  facet normal 0 0 1
    outer loop
      vertex 4.81119 4.51801 -3
      vertex 5.33951 -3.87938 -3
      vertex 5.33951 3.87938 -3
    endloop
  endfacet
  facet normal 0 0 1
    outer loop
      vertex 4.81119 4.51801 -3
      vertex 4.81119 -4.51801 -3
      vertex 5.33951 -3.87938 -3
    endloop
  endfacet
  facet normal 0 0 1
    outer loop
      vertex 4.207 5.08539 -3
      vertex 4.81119 -4.51801 -3
      vertex 4.81119 4.51801 -3
    endloop
  endfacet
  facet normal 0 0 1
    outer loop
      vertex 4.207 5.08539 -3
      vertex 4.207 -5.08539 -3
      vertex 4.81119 -4.51801 -3
    endloop
  endfacet
  facet normal 0 0 1
    outer loop
      vertex 3.53646 5.57256 -3
      vertex 4.207 -5.08539 -3
      vertex 4.207 5.08539 -3
    endloop
  endfacet
  facet normal 0 0 1
    outer loop
      vertex 3.53646 5.57256 -3
      vertex 3.53646 -5.57256 -3
      vertex 4.207 -5.08539 -3
    endloop
  endfacet
  facet normal 0 0 1
    outer loop
      vertex 2.81014 5.97186 -3
      vertex 3.53646 -5.57256 -3
      vertex 3.53646 5.57256 -3
    endloop
  endfacet
  facet normal 0 0 1
    outer loop
      vertex 2.81014 5.97186 -3
      vertex 2.81014 -5.97186 -3
      vertex 3.53646 -5.57256 -3
    endloop
  endfacet
  facet normal 0 0 1
    outer loop
      vertex 2.03951 6.27697 -3
      vertex 2.81014 -5.97186 -3
      vertex 2.81014 5.97186 -3
    endloop
  endfacet
  facet normal 0 0 1
    outer loop
      vertex 2.03951 6.27697 -3
      vertex 2.03951 -6.27697 -3
      vertex 2.81014 -5.97186 -3
    endloop
  endfacet
  facet normal 0 0 1
    outer loop
      vertex 1.23672 6.4831 -3
      vertex 2.03951 -6.27697 -3
      vertex 2.03951 6.27697 -3
    endloop
  endfacet
  facet normal 0 0 1
    outer loop
      vertex 1.23672 6.4831 -3
      vertex 1.23672 -6.4831 -3
      vertex 2.03951 -6.27697 -3
    endloop
  endfacet
  facet normal 0 0 1
    outer loop
      vertex 0.414417 6.58698 -3
      vertex 1.23672 -6.4831 -3
      vertex 1.23672 6.4831 -3
    endloop
  endfacet
  facet normal 0 0 1
    outer loop
      vertex 0.414417 6.58698 -3
      vertex 0.414417 -6.58698 -3
      vertex 1.23672 -6.4831 -3
    endloop
  endfacet
  facet normal -0 0 1
    outer loop
      vertex -0.414417 6.58698 -3
      vertex 0.414417 -6.58698 -3
      vertex 0.414417 6.58698 -3
    endloop
  endfacet
  facet normal 0 0 1
    outer loop
      vertex -0.414417 6.58698 -3
      vertex -0.414417 -6.58698 -3
      vertex 0.414417 -6.58698 -3
    endloop
  endfacet
  facet normal -0 0 1
    outer loop
      vertex -1.23672 6.4831 -3
      vertex -0.414417 -6.58698 -3
      vertex -0.414417 6.58698 -3
    endloop
  endfacet
  facet normal 0 0 1
    outer loop
      vertex -1.23672 6.4831 -3
      vertex -1.23672 -6.4831 -3
      vertex -0.414417 -6.58698 -3
    endloop
  endfacet
  facet normal -0 0 1
    outer loop
      vertex -2.03951 6.27697 -3
      vertex -1.23672 -6.4831 -3
      vertex -1.23672 6.4831 -3
    endloop
  endfacet
  facet normal 0 0 1
    outer loop
      vertex -2.03951 6.27697 -3
      vertex -2.03951 -6.27697 -3
      vertex -1.23672 -6.4831 -3
    endloop
  endfacet
  facet normal -0 0 1
    outer loop
      vertex -2.81014 5.97186 -3
      vertex -2.03951 -6.27697 -3
      vertex -2.03951 6.27697 -3
    endloop
  endfacet
  facet normal 0 0 1
    outer loop
      vertex -2.81014 5.97186 -3
      vertex -2.81014 -5.97186 -3
      vertex -2.03951 -6.27697 -3
    endloop
  endfacet
  facet normal -0 0 1
    outer loop
      vertex -3.53646 5.57256 -3
      vertex -2.81014 -5.97186 -3
      vertex -2.81014 5.97186 -3
    endloop
  endfacet
  facet normal 0 0 1
    outer loop
      vertex -3.53646 5.57256 -3
      vertex -3.53646 -5.57256 -3
      vertex -2.81014 -5.97186 -3
    endloop
  endfacet
  facet normal -0 0 1
    outer loop
      vertex -4.207 5.08539 -3
      vertex -3.53646 -5.57256 -3
      vertex -3.53646 5.57256 -3
    endloop
  endfacet
  facet normal 0 0 1
    outer loop
      vertex -4.207 5.08539 -3
      vertex -4.207 -5.08539 -3
      vertex -3.53646 -5.57256 -3
    endloop
  endfacet
  facet normal -0 0 1
    outer loop
      vertex -4.81119 4.51801 -3
      vertex -4.207 -5.08539 -3
      vertex -4.207 5.08539 -3
    endloop
  endfacet
  facet normal 0 0 1
    outer loop
      vertex -4.81119 4.51801 -3
      vertex -4.81119 -4.51801 -3
      vertex -4.207 -5.08539 -3
    endloop
  endfacet
  facet normal -0 0 1
    outer loop
      vertex -5.33951 3.87938 -3
      vertex -4.81119 -4.51801 -3
      vertex -4.81119 4.51801 -3
    endloop
  endfacet
  facet normal 0 0 1
    outer loop
      vertex -5.33951 3.87938 -3
      vertex -5.33951 -3.87938 -3
      vertex -4.81119 -4.51801 -3
    endloop
  endfacet
  facet normal -0 0 1
    outer loop
      vertex -5.78362 3.17957 -3
      vertex -5.33951 -3.87938 -3
      vertex -5.33951 3.87938 -3
    endloop
  endfacet
  facet normal 0 0 1
    outer loop
      vertex -5.78362 3.17957 -3
      vertex -5.78362 -3.17957 -3
      vertex -5.33951 -3.87938 -3
    endloop
  endfacet
  facet normal -0 0 1
    outer loop
      vertex -6.13652 2.42962 -3
      vertex -5.78362 -3.17957 -3
      vertex -5.78362 3.17957 -3
    endloop
  endfacet
  facet normal 0 0 1
    outer loop
      vertex -6.13652 2.42962 -3
      vertex -6.13652 -2.42962 -3
      vertex -5.78362 -3.17957 -3
    endloop
  endfacet
  facet normal -0 0 1
    outer loop
      vertex -6.39265 1.64135 -3
      vertex -6.13652 -2.42962 -3
      vertex -6.13652 2.42962 -3
    endloop
  endfacet
  facet normal 0 0 1
    outer loop
      vertex -6.39265 1.64135 -3
      vertex -6.39265 -1.64135 -3
      vertex -6.13652 -2.42962 -3
    endloop
  endfacet
  facet normal -0 0 1
    outer loop
      vertex -6.54796 0.827199 -3
      vertex -6.39265 -1.64135 -3
      vertex -6.39265 1.64135 -3
    endloop
  endfacet
  facet normal 0 0 1
    outer loop
      vertex -6.54796 0.827199 -3
      vertex -6.54796 -0.827199 -3
      vertex -6.39265 -1.64135 -3
    endloop
  endfacet
  facet normal 0 -0 1
    outer loop
      vertex -6.54796 -0.827199 -3
      vertex -6.54796 0.827199 -3
      vertex -6.6 0 -3
    endloop
  endfacet
  facet normal 0.982287 0.187384 0
    outer loop
      vertex -6.39265 -1.64135 0
      vertex -6.54796 -0.827199 -3
      vertex -6.54796 -0.827199 0
    endloop
  endfacet
  facet normal 0.982287 0.187384 0
    outer loop
      vertex -6.54796 -0.827199 -3
      vertex -6.39265 -1.64135 0
      vertex -6.39265 -1.64135 -3
    endloop
  endfacet
  facet normal 0.684552 0.728964 -0
    outer loop
      vertex -4.207 -5.08539 -3
      vertex -4.81119 -4.51801 0
      vertex -4.207 -5.08539 0
    endloop
  endfacet
  facet normal 0.684552 0.728964 0
    outer loop
      vertex -4.81119 -4.51801 0
      vertex -4.207 -5.08539 -3
      vertex -4.81119 -4.51801 -3
    endloop
  endfacet
  facet normal -0.2487 0.968581 0
    outer loop
      vertex 2.03951 -6.27697 -3
      vertex 1.23672 -6.4831 0
      vertex 2.03951 -6.27697 0
    endloop
  endfacet
  facet normal -0.2487 0.968581 0
    outer loop
      vertex 1.23672 -6.4831 0
      vertex 2.03951 -6.27697 -3
      vertex 1.23672 -6.4831 -3
    endloop
  endfacet
  facet normal -0.770514 0.637424 0
    outer loop
      vertex 4.81119 -4.51801 -3
      vertex 5.33951 -3.87938 0
      vertex 5.33951 -3.87938 -3
    endloop
  endfacet
  facet normal -0.770514 0.637424 0
    outer loop
      vertex 5.33951 -3.87938 0
      vertex 4.81119 -4.51801 -3
      vertex 4.81119 -4.51801 0
    endloop
  endfacet
  facet normal 0.481756 0.876306 -0
    outer loop
      vertex -2.81014 -5.97186 -3
      vertex -3.53646 -5.57256 0
      vertex -2.81014 -5.97186 0
    endloop
  endfacet
  facet normal 0.481756 0.876306 0
    outer loop
      vertex -3.53646 -5.57256 0
      vertex -2.81014 -5.97186 -3
      vertex -3.53646 -5.57256 -3
    endloop
  endfacet
  facet normal 0.36812 0.929778 -0
    outer loop
      vertex -2.03951 -6.27697 -3
      vertex -2.81014 -5.97186 0
      vertex -2.03951 -6.27697 0
    endloop
  endfacet
  facet normal 0.36812 0.929778 0
    outer loop
      vertex -2.81014 -5.97186 0
      vertex -2.03951 -6.27697 -3
      vertex -2.81014 -5.97186 -3
    endloop
  endfacet
  facet normal 0.125332 0.992115 -0
    outer loop
      vertex -0.414417 -6.58698 -3
      vertex -1.23672 -6.4831 0
      vertex -0.414417 -6.58698 0
    endloop
  endfacet
  facet normal 0.125332 0.992115 0
    outer loop
      vertex -1.23672 -6.4831 0
      vertex -0.414417 -6.58698 -3
      vertex -1.23672 -6.4831 -3
    endloop
  endfacet
endsolid OpenSCAD_Model
