solid OpenSCAD_Model
  facet normal 0.998026 0.0628013 0
    outer loop
      vertex 15 0 0
      vertex 14.8817 1.88 -4
      vertex 14.8817 1.88 0
    endloop
  endfacet
  facet normal 0.998026 0.0628013 0
    outer loop
      vertex 14.8817 1.88 -4
      vertex 15 0 0
      vertex 15 0 -4
    endloop
  endfacet
  facet normal -0.998026 0.0628013 0
    outer loop
      vertex -15 0 -4
      vertex -14.8817 1.88 0
      vertex -14.8817 1.88 -4
    endloop
  endfacet
  facet normal -0.998026 0.0628013 0
    outer loop
      vertex -14.8817 1.88 0
      vertex -15 0 -4
      vertex -15 0 0
    endloop
  endfacet
  facet normal 0 1 -0
    outer loop
      vertex 0.941857 14.9704 -4
      vertex -0.941857 14.9704 0
      vertex 0.941857 14.9704 0
    endloop
  endfacet
  facet normal 0 1 0
    outer loop
      vertex -0.941857 14.9704 0
      vertex 0.941857 14.9704 -4
      vertex -0.941857 14.9704 -4
    endloop
  endfacet
  facet normal 0 -1 0
    outer loop
      vertex -0.941857 -14.9704 -4
      vertex 0.941857 -14.9704 0
      vertex -0.941857 -14.9704 0
    endloop
  endfacet
  facet normal 0 -1 -0
    outer loop
      vertex 0.941857 -14.9704 0
      vertex -0.941857 -14.9704 -4
      vertex 0.941857 -14.9704 -4
    endloop
  endfacet
  facet normal 0.684557 0.728959 -0
    outer loop
      vertex 10.9345 10.2682 -4
      vertex 9.56136 11.5577 0
      vertex 10.9345 10.2682 0
    endloop
  endfacet
  facet normal 0.684557 0.728959 0
    outer loop
      vertex 9.56136 11.5577 0
      vertex 10.9345 10.2682 -4
      vertex 9.56136 11.5577 -4
    endloop
  endfacet
  facet normal -0.684557 0.728959 0
    outer loop
      vertex -9.56136 11.5577 -4
      vertex -10.9345 10.2682 0
      vertex -9.56136 11.5577 0
    endloop
  endfacet
  facet normal -0.684557 0.728959 0
    outer loop
      vertex -10.9345 10.2682 0
      vertex -9.56136 11.5577 -4
      vertex -10.9345 10.2682 -4
    endloop
  endfacet
  facet normal -0.368104 0.929785 0
    outer loop
      vertex -4.63525 14.2658 -4
      vertex -6.38669 13.5724 0
      vertex -4.63525 14.2658 0
    endloop
  endfacet
  facet normal -0.368104 0.929785 0
    outer loop
      vertex -6.38669 13.5724 0
      vertex -4.63525 14.2658 -4
      vertex -6.38669 13.5724 -4
    endloop
  endfacet
  facet normal 0.951057 -0.309017 0
    outer loop
      vertex 13.9466 -5.52187 0
      vertex 14.5287 -3.73035 -4
      vertex 14.5287 -3.73035 0
    endloop
  endfacet
  facet normal 0.951057 -0.309017 0
    outer loop
      vertex 14.5287 -3.73035 -4
      vertex 13.9466 -5.52187 0
      vertex 13.9466 -5.52187 -4
    endloop
  endfacet
  facet normal 0.904837 0.425758 0
    outer loop
      vertex 13.9466 5.52187 0
      vertex 13.1446 7.22631 -4
      vertex 13.1446 7.22631 0
    endloop
  endfacet
  facet normal 0.904837 0.425758 0
    outer loop
      vertex 13.1446 7.22631 -4
      vertex 13.9466 5.52187 0
      vertex 13.9466 5.52187 -4
    endloop
  endfacet
  facet normal 0.844338 0.535811 0
    outer loop
      vertex 13.1446 7.22631 0
      vertex 12.1353 8.81678 -4
      vertex 12.1353 8.81678 0
    endloop
  endfacet
  facet normal 0.844338 0.535811 0
    outer loop
      vertex 12.1353 8.81678 -4
      vertex 13.1446 7.22631 0
      vertex 13.1446 7.22631 -4
    endloop
  endfacet
  facet normal 0.368104 0.929785 -0
    outer loop
      vertex 6.38669 13.5724 -4
      vertex 4.63525 14.2658 0
      vertex 6.38669 13.5724 0
    endloop
  endfacet
  facet normal 0.368104 0.929785 0
    outer loop
      vertex 4.63525 14.2658 0
      vertex 6.38669 13.5724 -4
      vertex 4.63525 14.2658 -4
    endloop
  endfacet
  facet normal 0.48176 0.876303 -0
    outer loop
      vertex 8.0374 12.6649 -4
      vertex 6.38669 13.5724 0
      vertex 8.0374 12.6649 0
    endloop
  endfacet
  facet normal 0.48176 0.876303 0
    outer loop
      vertex 6.38669 13.5724 0
      vertex 8.0374 12.6649 -4
      vertex 6.38669 13.5724 -4
    endloop
  endfacet
  facet normal -0.904837 0.425758 0
    outer loop
      vertex -13.9466 5.52187 -4
      vertex -13.1446 7.22631 0
      vertex -13.1446 7.22631 -4
    endloop
  endfacet
  facet normal -0.904837 0.425758 0
    outer loop
      vertex -13.1446 7.22631 0
      vertex -13.9466 5.52187 -4
      vertex -13.9466 5.52187 0
    endloop
  endfacet
  facet normal -0.951057 0.309017 0
    outer loop
      vertex -14.5287 3.73035 -4
      vertex -13.9466 5.52187 0
      vertex -13.9466 5.52187 -4
    endloop
  endfacet
  facet normal -0.951057 0.309017 0
    outer loop
      vertex -13.9466 5.52187 0
      vertex -14.5287 3.73035 -4
      vertex -14.5287 3.73035 0
    endloop
  endfacet
  facet normal -0.24871 0.968578 0
    outer loop
      vertex -2.81072 14.7343 -4
      vertex -4.63525 14.2658 0
      vertex -2.81072 14.7343 0
    endloop
  endfacet
  facet normal -0.24871 0.968578 0
    outer loop
      vertex -4.63525 14.2658 0
      vertex -2.81072 14.7343 -4
      vertex -4.63525 14.2658 -4
    endloop
  endfacet
  facet normal 0.951057 0.309017 0
    outer loop
      vertex 14.5287 3.73035 0
      vertex 13.9466 5.52187 -4
      vertex 13.9466 5.52187 0
    endloop
  endfacet
  facet normal 0.951057 0.309017 0
    outer loop
      vertex 13.9466 5.52187 -4
      vertex 14.5287 3.73035 0
      vertex 14.5287 3.73035 -4
    endloop
  endfacet
  facet normal 0.982285 0.187395 0
    outer loop
      vertex 14.8817 1.88 0
      vertex 14.5287 3.73035 -4
      vertex 14.5287 3.73035 0
    endloop
  endfacet
  facet normal 0.982285 0.187395 0
    outer loop
      vertex 14.5287 3.73035 -4
      vertex 14.8817 1.88 0
      vertex 14.8817 1.88 -4
    endloop
  endfacet
  facet normal 0.770492 0.63745 0
    outer loop
      vertex 12.1353 8.81678 0
      vertex 10.9345 10.2682 -4
      vertex 10.9345 10.2682 0
    endloop
  endfacet
  facet normal 0.770492 0.63745 0
    outer loop
      vertex 10.9345 10.2682 -4
      vertex 12.1353 8.81678 0
      vertex 12.1353 8.81678 -4
    endloop
  endfacet
  facet normal 0.24871 0.968578 -0
    outer loop
      vertex 4.63525 14.2658 -4
      vertex 2.81072 14.7343 0
      vertex 4.63525 14.2658 0
    endloop
  endfacet
  facet normal 0.24871 0.968578 0
    outer loop
      vertex 2.81072 14.7343 0
      vertex 4.63525 14.2658 -4
      vertex 2.81072 14.7343 -4
    endloop
  endfacet
  facet normal 0.125337 0.992114 -0
    outer loop
      vertex 2.81072 14.7343 -4
      vertex 0.941857 14.9704 0
      vertex 2.81072 14.7343 0
    endloop
  endfacet
  facet normal 0.125337 0.992114 0
    outer loop
      vertex 0.941857 14.9704 0
      vertex 2.81072 14.7343 -4
      vertex 0.941857 14.9704 -4
    endloop
  endfacet
  facet normal 0.587778 0.809022 -0
    outer loop
      vertex 9.56136 11.5577 -4
      vertex 8.0374 12.6649 0
      vertex 9.56136 11.5577 0
    endloop
  endfacet
  facet normal 0.587778 0.809022 0
    outer loop
      vertex 8.0374 12.6649 0
      vertex 9.56136 11.5577 -4
      vertex 8.0374 12.6649 -4
    endloop
  endfacet
  facet normal -0.844338 0.535811 0
    outer loop
      vertex -13.1446 7.22631 -4
      vertex -12.1353 8.81678 0
      vertex -12.1353 8.81678 -4
    endloop
  endfacet
  facet normal -0.844338 0.535811 0
    outer loop
      vertex -12.1353 8.81678 0
      vertex -13.1446 7.22631 -4
      vertex -13.1446 7.22631 0
    endloop
  endfacet
  facet normal -0.770492 0.63745 0
    outer loop
      vertex -12.1353 8.81678 -4
      vertex -10.9345 10.2682 0
      vertex -10.9345 10.2682 -4
    endloop
  endfacet
  facet normal -0.770492 0.63745 0
    outer loop
      vertex -10.9345 10.2682 0
      vertex -12.1353 8.81678 -4
      vertex -12.1353 8.81678 0
    endloop
  endfacet
  facet normal -0.982285 0.187395 0
    outer loop
      vertex -14.8817 1.88 -4
      vertex -14.5287 3.73035 0
      vertex -14.5287 3.73035 -4
    endloop
  endfacet
  facet normal -0.982285 0.187395 0
    outer loop
      vertex -14.5287 3.73035 0
      vertex -14.8817 1.88 -4
      vertex -14.8817 1.88 0
    endloop
  endfacet
  facet normal 0 0 1
    outer loop
      vertex 9.1 0 0
      vertex 15 0 0
      vertex 14.8817 1.88 0
    endloop
  endfacet
  facet normal 0 0 1
    outer loop
      vertex 9.02824 1.14053 0
      vertex 14.8817 1.88 0
      vertex 14.5287 3.73035 0
    endloop
  endfacet
  facet normal 0 0 1
    outer loop
      vertex 15 0 0
      vertex 9.1 0 0
      vertex 14.8817 -1.88 0
    endloop
  endfacet
  facet normal 0 0 1
    outer loop
      vertex 8.81411 2.26308 0
      vertex 14.5287 3.73035 0
      vertex 13.9466 5.52187 0
    endloop
  endfacet
  facet normal -0 0 1
    outer loop
      vertex 9.02824 -1.14053 0
      vertex 14.8817 -1.88 0
      vertex 9.1 0 0
    endloop
  endfacet
  facet normal 0 0 1
    outer loop
      vertex 8.46097 3.34993 0
      vertex 13.9466 5.52187 0
      vertex 13.1446 7.22631 0
    endloop
  endfacet
  facet normal 0 0 1
    outer loop
      vertex 14.8817 -1.88 0
      vertex 9.02824 -1.14053 0
      vertex 14.5287 -3.73035 0
    endloop
  endfacet
  facet normal 0 0 1
    outer loop
      vertex 7.97439 4.38396 0
      vertex 13.1446 7.22631 0
      vertex 12.1353 8.81678 0
    endloop
  endfacet
  facet normal -0 0 1
    outer loop
      vertex 8.81411 -2.26308 0
      vertex 14.5287 -3.73035 0
      vertex 9.02824 -1.14053 0
    endloop
  endfacet
  facet normal 0 0 1
    outer loop
      vertex 7.36205 5.34885 0
      vertex 12.1353 8.81678 0
      vertex 10.9345 10.2682 0
    endloop
  endfacet
  facet normal 0 0 1
    outer loop
      vertex 14.5287 -3.73035 0
      vertex 8.81411 -2.26308 0
      vertex 13.9466 -5.52187 0
    endloop
  endfacet
  facet normal 0 0 1
    outer loop
      vertex 6.63361 6.22938 0
      vertex 10.9345 10.2682 0
      vertex 9.56136 11.5577 0
    endloop
  endfacet
  facet normal -0 0 1
    outer loop
      vertex 8.46097 -3.34993 0
      vertex 13.9466 -5.52187 0
      vertex 8.81411 -2.26308 0
    endloop
  endfacet
  facet normal 0 0 1
    outer loop
      vertex 13.9466 -5.52187 0
      vertex 8.46097 -3.34993 0
      vertex 13.1446 -7.22631 0
    endloop
  endfacet
  facet normal 0 0 1
    outer loop
      vertex 14.8817 1.88 0
      vertex 9.02824 1.14053 0
      vertex 9.1 0 0
    endloop
  endfacet
  facet normal 0 0 1
    outer loop
      vertex 14.5287 3.73035 0
      vertex 8.81411 2.26308 0
      vertex 9.02824 1.14053 0
    endloop
  endfacet
  facet normal 0 0 1
    outer loop
      vertex 13.9466 5.52187 0
      vertex 8.46097 3.34993 0
      vertex 8.81411 2.26308 0
    endloop
  endfacet
  facet normal 0 0 1
    outer loop
      vertex 5.80056 7.01167 0
      vertex 9.56136 11.5577 0
      vertex 8.0374 12.6649 0
    endloop
  endfacet
  facet normal 0 0 1
    outer loop
      vertex 13.1446 7.22631 0
      vertex 7.97439 4.38396 0
      vertex 8.46097 3.34993 0
    endloop
  endfacet
  facet normal 0 0 1
    outer loop
      vertex 12.1353 8.81678 0
      vertex 7.36205 5.34885 0
      vertex 7.97439 4.38396 0
    endloop
  endfacet
  facet normal 0 0 1
    outer loop
      vertex 10.9345 10.2682 0
      vertex 6.63361 6.22938 0
      vertex 7.36205 5.34885 0
    endloop
  endfacet
  facet normal 0 0 1
    outer loop
      vertex 4.87602 7.68338 0
      vertex 8.0374 12.6649 0
      vertex 6.38669 13.5724 0
    endloop
  endfacet
  facet normal 0 0 1
    outer loop
      vertex 9.56136 11.5577 0
      vertex 5.80056 7.01167 0
      vertex 6.63361 6.22938 0
    endloop
  endfacet
  facet normal 0 0 1
    outer loop
      vertex 8.0374 12.6649 0
      vertex 4.87602 7.68338 0
      vertex 5.80056 7.01167 0
    endloop
  endfacet
  facet normal 0 0 1
    outer loop
      vertex 3.87459 8.23393 0
      vertex 6.38669 13.5724 0
      vertex 4.63525 14.2658 0
    endloop
  endfacet
  facet normal 0 0 1
    outer loop
      vertex 6.38669 13.5724 0
      vertex 3.87459 8.23393 0
      vertex 4.87602 7.68338 0
    endloop
  endfacet
  facet normal 0 0 1
    outer loop
      vertex 4.63525 14.2658 0
      vertex 2.81205 8.65461 0
      vertex 3.87459 8.23393 0
    endloop
  endfacet
  facet normal 0 0 1
    outer loop
      vertex 2.81072 14.7343 0
      vertex 2.81205 8.65461 0
      vertex 4.63525 14.2658 0
    endloop
  endfacet
  facet normal 0 0 1
    outer loop
      vertex 2.81072 14.7343 0
      vertex 1.70517 8.93881 0
      vertex 2.81205 8.65461 0
    endloop
  endfacet
  facet normal 0 0 1
    outer loop
      vertex 0.941857 14.9704 0
      vertex 1.70517 8.93881 0
      vertex 2.81072 14.7343 0
    endloop
  endfacet
  facet normal 0 0 1
    outer loop
      vertex 0.941857 14.9704 0
      vertex 0.571393 9.08204 0
      vertex 1.70517 8.93881 0
    endloop
  endfacet
  facet normal 0 0 1
    outer loop
      vertex 0.941857 14.9704 0
      vertex -0.571393 9.08204 0
      vertex 0.571393 9.08204 0
    endloop
  endfacet
  facet normal -0 0 1
    outer loop
      vertex -0.941857 14.9704 0
      vertex -0.571393 9.08204 0
      vertex 0.941857 14.9704 0
    endloop
  endfacet
  facet normal 0 0 1
    outer loop
      vertex -0.941857 14.9704 0
      vertex -1.70517 8.93881 0
      vertex -0.571393 9.08204 0
    endloop
  endfacet
  facet normal -0 0 1
    outer loop
      vertex -2.81072 14.7343 0
      vertex -1.70517 8.93881 0
      vertex -0.941857 14.9704 0
    endloop
  endfacet
  facet normal 0 0 1
    outer loop
      vertex -2.81072 14.7343 0
      vertex -2.81205 8.65461 0
      vertex -1.70517 8.93881 0
    endloop
  endfacet
  facet normal -0 0 1
    outer loop
      vertex -4.63525 14.2658 0
      vertex -2.81205 8.65461 0
      vertex -2.81072 14.7343 0
    endloop
  endfacet
  facet normal 0 0 1
    outer loop
      vertex -2.81205 8.65461 0
      vertex -4.63525 14.2658 0
      vertex -3.87459 8.23393 0
    endloop
  endfacet
  facet normal -0 0 1
    outer loop
      vertex -6.38669 13.5724 0
      vertex -3.87459 8.23393 0
      vertex -4.63525 14.2658 0
    endloop
  endfacet
  facet normal 0 0 1
    outer loop
      vertex -3.87459 8.23393 0
      vertex -6.38669 13.5724 0
      vertex -4.87602 7.68338 0
    endloop
  endfacet
  facet normal -0 0 1
    outer loop
      vertex -8.0374 12.6649 0
      vertex -4.87602 7.68338 0
      vertex -6.38669 13.5724 0
    endloop
  endfacet
  facet normal 0 0 1
    outer loop
      vertex -4.87602 7.68338 0
      vertex -8.0374 12.6649 0
      vertex -5.80056 7.01167 0
    endloop
  endfacet
  facet normal -0 0 1
    outer loop
      vertex -9.56136 11.5577 0
      vertex -5.80056 7.01167 0
      vertex -8.0374 12.6649 0
    endloop
  endfacet
  facet normal 0 0 1
    outer loop
      vertex -5.80056 7.01167 0
      vertex -9.56136 11.5577 0
      vertex -6.63361 6.22938 0
    endloop
  endfacet
  facet normal -0 0 1
    outer loop
      vertex -10.9345 10.2682 0
      vertex -6.63361 6.22938 0
      vertex -9.56136 11.5577 0
    endloop
  endfacet
  facet normal 0 0 1
    outer loop
      vertex -6.63361 6.22938 0
      vertex -10.9345 10.2682 0
      vertex -7.36205 5.34885 0
    endloop
  endfacet
  facet normal -0 0 1
    outer loop
      vertex -12.1353 8.81678 0
      vertex -7.36205 5.34885 0
      vertex -10.9345 10.2682 0
    endloop
  endfacet
  facet normal 0 0 1
    outer loop
      vertex -7.36205 5.34885 0
      vertex -12.1353 8.81678 0
      vertex -7.97439 4.38396 0
    endloop
  endfacet
  facet normal 0 0 1
    outer loop
      vertex -7.97439 4.38396 0
      vertex -13.1446 7.22631 0
      vertex -8.46097 3.34993 0
    endloop
  endfacet
  facet normal -0 0 1
    outer loop
      vertex -13.1446 7.22631 0
      vertex -7.97439 4.38396 0
      vertex -12.1353 8.81678 0
    endloop
  endfacet
  facet normal -0 0 1
    outer loop
      vertex 7.97439 -4.38396 0
      vertex 13.1446 -7.22631 0
      vertex 8.46097 -3.34993 0
    endloop
  endfacet
  facet normal 0 0 1
    outer loop
      vertex 13.1446 -7.22631 0
      vertex 7.97439 -4.38396 0
      vertex 12.1353 -8.81678 0
    endloop
  endfacet
  facet normal -0 0 1
    outer loop
      vertex 7.36205 -5.34885 0
      vertex 12.1353 -8.81678 0
      vertex 7.97439 -4.38396 0
    endloop
  endfacet
  facet normal 0 0 1
    outer loop
      vertex 12.1353 -8.81678 0
      vertex 7.36205 -5.34885 0
      vertex 10.9345 -10.2682 0
    endloop
  endfacet
  facet normal -0 0 1
    outer loop
      vertex 6.63361 -6.22938 0
      vertex 10.9345 -10.2682 0
      vertex 7.36205 -5.34885 0
    endloop
  endfacet
  facet normal 0 0 1
    outer loop
      vertex 10.9345 -10.2682 0
      vertex 6.63361 -6.22938 0
      vertex 9.56136 -11.5577 0
    endloop
  endfacet
  facet normal -0 0 1
    outer loop
      vertex 5.80056 -7.01167 0
      vertex 9.56136 -11.5577 0
      vertex 6.63361 -6.22938 0
    endloop
  endfacet
  facet normal 0 0 1
    outer loop
      vertex 9.56136 -11.5577 0
      vertex 5.80056 -7.01167 0
      vertex 8.0374 -12.6649 0
    endloop
  endfacet
  facet normal -0 0 1
    outer loop
      vertex 4.87602 -7.68338 0
      vertex 8.0374 -12.6649 0
      vertex 5.80056 -7.01167 0
    endloop
  endfacet
  facet normal 0 0 1
    outer loop
      vertex 8.0374 -12.6649 0
      vertex 4.87602 -7.68338 0
      vertex 6.38669 -13.5724 0
    endloop
  endfacet
  facet normal -0 0 1
    outer loop
      vertex 3.87459 -8.23393 0
      vertex 6.38669 -13.5724 0
      vertex 4.87602 -7.68338 0
    endloop
  endfacet
  facet normal 0 0 1
    outer loop
      vertex 6.38669 -13.5724 0
      vertex 3.87459 -8.23393 0
      vertex 4.63525 -14.2658 0
    endloop
  endfacet
  facet normal -0 0 1
    outer loop
      vertex 2.81205 -8.65461 0
      vertex 4.63525 -14.2658 0
      vertex 3.87459 -8.23393 0
    endloop
  endfacet
  facet normal 0 0 1
    outer loop
      vertex 2.81205 -8.65461 0
      vertex 2.81072 -14.7343 0
      vertex 4.63525 -14.2658 0
    endloop
  endfacet
  facet normal -0 0 1
    outer loop
      vertex 1.70517 -8.93881 0
      vertex 2.81072 -14.7343 0
      vertex 2.81205 -8.65461 0
    endloop
  endfacet
  facet normal 0 0 1
    outer loop
      vertex 1.70517 -8.93881 0
      vertex 0.941857 -14.9704 0
      vertex 2.81072 -14.7343 0
    endloop
  endfacet
  facet normal -0 0 1
    outer loop
      vertex 0.571393 -9.08204 0
      vertex 0.941857 -14.9704 0
      vertex 1.70517 -8.93881 0
    endloop
  endfacet
  facet normal -0 0 1
    outer loop
      vertex -0.571393 -9.08204 0
      vertex 0.941857 -14.9704 0
      vertex 0.571393 -9.08204 0
    endloop
  endfacet
  facet normal 0 0 1
    outer loop
      vertex -0.571393 -9.08204 0
      vertex -0.941857 -14.9704 0
      vertex 0.941857 -14.9704 0
    endloop
  endfacet
  facet normal 0 0 1
    outer loop
      vertex -1.70517 -8.93881 0
      vertex -0.941857 -14.9704 0
      vertex -0.571393 -9.08204 0
    endloop
  endfacet
  facet normal 0 0 1
    outer loop
      vertex -1.70517 -8.93881 0
      vertex -2.81072 -14.7343 0
      vertex -0.941857 -14.9704 0
    endloop
  endfacet
  facet normal 0 0 1
    outer loop
      vertex -2.81205 -8.65461 0
      vertex -2.81072 -14.7343 0
      vertex -1.70517 -8.93881 0
    endloop
  endfacet
  facet normal 0 0 1
    outer loop
      vertex -4.63525 -14.2658 0
      vertex -2.81205 -8.65461 0
      vertex -3.87459 -8.23393 0
    endloop
  endfacet
  facet normal 0 0 1
    outer loop
      vertex -2.81205 -8.65461 0
      vertex -4.63525 -14.2658 0
      vertex -2.81072 -14.7343 0
    endloop
  endfacet
  facet normal 0 0 1
    outer loop
      vertex -6.38669 -13.5724 0
      vertex -3.87459 -8.23393 0
      vertex -4.87602 -7.68338 0
    endloop
  endfacet
  facet normal 0 0 1
    outer loop
      vertex -8.0374 -12.6649 0
      vertex -4.87602 -7.68338 0
      vertex -5.80056 -7.01167 0
    endloop
  endfacet
  facet normal 0 0 1
    outer loop
      vertex -3.87459 -8.23393 0
      vertex -6.38669 -13.5724 0
      vertex -4.63525 -14.2658 0
    endloop
  endfacet
  facet normal 0 0 1
    outer loop
      vertex -9.56136 -11.5577 0
      vertex -5.80056 -7.01167 0
      vertex -6.63361 -6.22938 0
    endloop
  endfacet
  facet normal 0 0 1
    outer loop
      vertex -10.9345 -10.2682 0
      vertex -6.63361 -6.22938 0
      vertex -7.36205 -5.34885 0
    endloop
  endfacet
  facet normal 0 0 1
    outer loop
      vertex -12.1353 -8.81678 0
      vertex -7.36205 -5.34885 0
      vertex -7.97439 -4.38396 0
    endloop
  endfacet
  facet normal 0 0 1
    outer loop
      vertex -4.87602 -7.68338 0
      vertex -8.0374 -12.6649 0
      vertex -6.38669 -13.5724 0
    endloop
  endfacet
  facet normal 0 0 1
    outer loop
      vertex -13.1446 -7.22631 0
      vertex -7.97439 -4.38396 0
      vertex -8.46097 -3.34993 0
    endloop
  endfacet
  facet normal 0 0 1
    outer loop
      vertex -13.9466 -5.52187 0
      vertex -8.46097 -3.34993 0
      vertex -8.81411 -2.26308 0
    endloop
  endfacet
  facet normal 0 0 1
    outer loop
      vertex -14.5287 -3.73035 0
      vertex -8.81411 -2.26308 0
      vertex -9.02824 -1.14053 0
    endloop
  endfacet
  facet normal 0 0 1
    outer loop
      vertex -5.80056 -7.01167 0
      vertex -9.56136 -11.5577 0
      vertex -8.0374 -12.6649 0
    endloop
  endfacet
  facet normal 0 0 1
    outer loop
      vertex -14.8817 -1.88 0
      vertex -9.02824 -1.14053 0
      vertex -9.1 0 0
    endloop
  endfacet
  facet normal -0 0 1
    outer loop
      vertex -13.9466 5.52187 0
      vertex -8.46097 3.34993 0
      vertex -13.1446 7.22631 0
    endloop
  endfacet
  facet normal 0 0 1
    outer loop
      vertex -8.46097 3.34993 0
      vertex -13.9466 5.52187 0
      vertex -8.81411 2.26308 0
    endloop
  endfacet
  facet normal 0 0 1
    outer loop
      vertex -6.63361 -6.22938 0
      vertex -10.9345 -10.2682 0
      vertex -9.56136 -11.5577 0
    endloop
  endfacet
  facet normal -0 0 1
    outer loop
      vertex -14.5287 3.73035 0
      vertex -8.81411 2.26308 0
      vertex -13.9466 5.52187 0
    endloop
  endfacet
  facet normal 0 0 1
    outer loop
      vertex -7.36205 -5.34885 0
      vertex -12.1353 -8.81678 0
      vertex -10.9345 -10.2682 0
    endloop
  endfacet
  facet normal 0 0 1
    outer loop
      vertex -8.81411 2.26308 0
      vertex -14.5287 3.73035 0
      vertex -9.02824 1.14053 0
    endloop
  endfacet
  facet normal 0 0 1
    outer loop
      vertex -7.97439 -4.38396 0
      vertex -13.1446 -7.22631 0
      vertex -12.1353 -8.81678 0
    endloop
  endfacet
  facet normal -0 0 1
    outer loop
      vertex -14.8817 1.88 0
      vertex -9.02824 1.14053 0
      vertex -14.5287 3.73035 0
    endloop
  endfacet
  facet normal 0 0 1
    outer loop
      vertex -8.46097 -3.34993 0
      vertex -13.9466 -5.52187 0
      vertex -13.1446 -7.22631 0
    endloop
  endfacet
  facet normal 0 0 1
    outer loop
      vertex -9.02824 1.14053 0
      vertex -14.8817 1.88 0
      vertex -9.1 0 0
    endloop
  endfacet
  facet normal 0 0 1
    outer loop
      vertex -8.81411 -2.26308 0
      vertex -14.5287 -3.73035 0
      vertex -13.9466 -5.52187 0
    endloop
  endfacet
  facet normal 0 0 1
    outer loop
      vertex -15 0 0
      vertex -9.1 0 0
      vertex -14.8817 1.88 0
    endloop
  endfacet
  facet normal 0 0 1
    outer loop
      vertex -9.02824 -1.14053 0
      vertex -14.8817 -1.88 0
      vertex -14.5287 -3.73035 0
    endloop
  endfacet
  facet normal 0 0 1
    outer loop
      vertex -9.1 0 0
      vertex -15 0 0
      vertex -14.8817 -1.88 0
    endloop
  endfacet
  facet normal -0.48176 0.876303 0
    outer loop
      vertex -6.38669 13.5724 -4
      vertex -8.0374 12.6649 0
      vertex -6.38669 13.5724 0
    endloop
  endfacet
  facet normal -0.48176 0.876303 0
    outer loop
      vertex -8.0374 12.6649 0
      vertex -6.38669 13.5724 -4
      vertex -8.0374 12.6649 -4
    endloop
  endfacet
  facet normal -0.587778 0.809022 0
    outer loop
      vertex -8.0374 12.6649 -4
      vertex -9.56136 11.5577 0
      vertex -8.0374 12.6649 0
    endloop
  endfacet
  facet normal -0.587778 0.809022 0
    outer loop
      vertex -9.56136 11.5577 0
      vertex -8.0374 12.6649 -4
      vertex -9.56136 11.5577 -4
    endloop
  endfacet
  facet normal -0.125337 0.992114 0
    outer loop
      vertex -0.941857 14.9704 -4
      vertex -2.81072 14.7343 0
      vertex -0.941857 14.9704 0
    endloop
  endfacet
  facet normal -0.125337 0.992114 0
    outer loop
      vertex -2.81072 14.7343 0
      vertex -0.941857 14.9704 -4
      vertex -2.81072 14.7343 -4
    endloop
  endfacet
  facet normal 0.998026 -0.0628013 0
    outer loop
      vertex 14.8817 -1.88 0
      vertex 15 0 -4
      vertex 15 0 0
    endloop
  endfacet
  facet normal 0.998026 -0.0628013 0
    outer loop
      vertex 15 0 -4
      vertex 14.8817 -1.88 0
      vertex 14.8817 -1.88 -4
    endloop
  endfacet
  facet normal 0.770492 -0.63745 0
    outer loop
      vertex 10.9345 -10.2682 0
      vertex 12.1353 -8.81678 -4
      vertex 12.1353 -8.81678 0
    endloop
  endfacet
  facet normal 0.770492 -0.63745 0
    outer loop
      vertex 12.1353 -8.81678 -4
      vertex 10.9345 -10.2682 0
      vertex 10.9345 -10.2682 -4
    endloop
  endfacet
  facet normal 0.904837 -0.425758 0
    outer loop
      vertex 13.1446 -7.22631 0
      vertex 13.9466 -5.52187 -4
      vertex 13.9466 -5.52187 0
    endloop
  endfacet
  facet normal 0.904837 -0.425758 0
    outer loop
      vertex 13.9466 -5.52187 -4
      vertex 13.1446 -7.22631 0
      vertex 13.1446 -7.22631 -4
    endloop
  endfacet
  facet normal 0.982285 -0.187395 0
    outer loop
      vertex 14.5287 -3.73035 0
      vertex 14.8817 -1.88 -4
      vertex 14.8817 -1.88 0
    endloop
  endfacet
  facet normal 0.982285 -0.187395 0
    outer loop
      vertex 14.8817 -1.88 -4
      vertex 14.5287 -3.73035 0
      vertex 14.5287 -3.73035 -4
    endloop
  endfacet
  facet normal 0 0 -1
    outer loop
      vertex 14.8817 -1.88 -4
      vertex 14.8817 1.88 -4
      vertex 15 0 -4
    endloop
  endfacet
  facet normal 0 0 -1
    outer loop
      vertex 14.5287 -3.73035 -4
      vertex 14.8817 1.88 -4
      vertex 14.8817 -1.88 -4
    endloop
  endfacet
  facet normal 0 0 -1
    outer loop
      vertex 14.5287 -3.73035 -4
      vertex 14.5287 3.73035 -4
      vertex 14.8817 1.88 -4
    endloop
  endfacet
  facet normal 0 0 -1
    outer loop
      vertex 13.9466 -5.52187 -4
      vertex 14.5287 3.73035 -4
      vertex 14.5287 -3.73035 -4
    endloop
  endfacet
  facet normal 0 0 -1
    outer loop
      vertex 13.9466 -5.52187 -4
      vertex 13.9466 5.52187 -4
      vertex 14.5287 3.73035 -4
    endloop
  endfacet
  facet normal 0 0 -1
    outer loop
      vertex 13.1446 -7.22631 -4
      vertex 13.9466 5.52187 -4
      vertex 13.9466 -5.52187 -4
    endloop
  endfacet
  facet normal 0 0 -1
    outer loop
      vertex 13.1446 -7.22631 -4
      vertex 13.1446 7.22631 -4
      vertex 13.9466 5.52187 -4
    endloop
  endfacet
  facet normal 0 0 -1
    outer loop
      vertex 12.1353 -8.81678 -4
      vertex 13.1446 7.22631 -4
      vertex 13.1446 -7.22631 -4
    endloop
  endfacet
  facet normal 0 0 -1
    outer loop
      vertex 12.1353 -8.81678 -4
      vertex 12.1353 8.81678 -4
      vertex 13.1446 7.22631 -4
    endloop
  endfacet
  facet normal 0 0 -1
    outer loop
      vertex 10.9345 -10.2682 -4
      vertex 12.1353 8.81678 -4
      vertex 12.1353 -8.81678 -4
    endloop
  endfacet
  facet normal 0 0 -1
    outer loop
      vertex 10.9345 -10.2682 -4
      vertex 10.9345 10.2682 -4
      vertex 12.1353 8.81678 -4
    endloop
  endfacet
  facet normal 0 0 -1
    outer loop
      vertex 9.56136 -11.5577 -4
      vertex 10.9345 10.2682 -4
      vertex 10.9345 -10.2682 -4
    endloop
  endfacet
  facet normal 0 0 -1
    outer loop
      vertex 9.56136 -11.5577 -4
      vertex 9.56136 11.5577 -4
      vertex 10.9345 10.2682 -4
    endloop
  endfacet
  facet normal 0 0 -1
    outer loop
      vertex 8.0374 -12.6649 -4
      vertex 9.56136 11.5577 -4
      vertex 9.56136 -11.5577 -4
    endloop
  endfacet
  facet normal 0 0 -1
    outer loop
      vertex 8.0374 -12.6649 -4
      vertex 8.0374 12.6649 -4
      vertex 9.56136 11.5577 -4
    endloop
  endfacet
  facet normal 0 0 -1
    outer loop
      vertex 6.38669 -13.5724 -4
      vertex 8.0374 12.6649 -4
      vertex 8.0374 -12.6649 -4
    endloop
  endfacet
  facet normal 0 0 -1
    outer loop
      vertex 6.38669 -13.5724 -4
      vertex 6.38669 13.5724 -4
      vertex 8.0374 12.6649 -4
    endloop
  endfacet
  facet normal 0 0 -1
    outer loop
      vertex 4.63525 -14.2658 -4
      vertex 6.38669 13.5724 -4
      vertex 6.38669 -13.5724 -4
    endloop
  endfacet
  facet normal 0 0 -1
    outer loop
      vertex 4.63525 -14.2658 -4
      vertex 4.63525 14.2658 -4
      vertex 6.38669 13.5724 -4
    endloop
  endfacet
  facet normal 0 0 -1
    outer loop
      vertex 2.81072 -14.7343 -4
      vertex 4.63525 14.2658 -4
      vertex 4.63525 -14.2658 -4
    endloop
  endfacet
  facet normal 0 0 -1
    outer loop
      vertex 2.81072 -14.7343 -4
      vertex 2.81072 14.7343 -4
      vertex 4.63525 14.2658 -4
    endloop
  endfacet
  facet normal 0 0 -1
    outer loop
      vertex 0.941857 -14.9704 -4
      vertex 2.81072 14.7343 -4
      vertex 2.81072 -14.7343 -4
    endloop
  endfacet
  facet normal 0 0 -1
    outer loop
      vertex 0.941857 -14.9704 -4
      vertex 0.941857 14.9704 -4
      vertex 2.81072 14.7343 -4
    endloop
  endfacet
  facet normal 0 0 -1
    outer loop
      vertex -0.941857 -14.9704 -4
      vertex 0.941857 14.9704 -4
      vertex 0.941857 -14.9704 -4
    endloop
  endfacet
  facet normal 0 0 -1
    outer loop
      vertex -0.941857 -14.9704 -4
      vertex -0.941857 14.9704 -4
      vertex 0.941857 14.9704 -4
    endloop
  endfacet
  facet normal 0 0 -1
    outer loop
      vertex -2.81072 -14.7343 -4
      vertex -0.941857 14.9704 -4
      vertex -0.941857 -14.9704 -4
    endloop
  endfacet
  facet normal 0 0 -1
    outer loop
      vertex -2.81072 -14.7343 -4
      vertex -2.81072 14.7343 -4
      vertex -0.941857 14.9704 -4
    endloop
  endfacet
  facet normal 0 0 -1
    outer loop
      vertex -4.63525 -14.2658 -4
      vertex -2.81072 14.7343 -4
      vertex -2.81072 -14.7343 -4
    endloop
  endfacet
  facet normal 0 0 -1
    outer loop
      vertex -4.63525 -14.2658 -4
      vertex -4.63525 14.2658 -4
      vertex -2.81072 14.7343 -4
    endloop
  endfacet
  facet normal 0 0 -1
    outer loop
      vertex -6.38669 -13.5724 -4
      vertex -4.63525 14.2658 -4
      vertex -4.63525 -14.2658 -4
    endloop
  endfacet
  facet normal 0 0 -1
    outer loop
      vertex -6.38669 -13.5724 -4
      vertex -6.38669 13.5724 -4
      vertex -4.63525 14.2658 -4
    endloop
  endfacet
  facet normal 0 0 -1
    outer loop
      vertex -8.0374 -12.6649 -4
      vertex -6.38669 13.5724 -4
      vertex -6.38669 -13.5724 -4
    endloop
  endfacet
  facet normal 0 0 -1
    outer loop
      vertex -8.0374 -12.6649 -4
      vertex -8.0374 12.6649 -4
      vertex -6.38669 13.5724 -4
    endloop
  endfacet
  facet normal 0 0 -1
    outer loop
      vertex -9.56136 -11.5577 -4
      vertex -8.0374 12.6649 -4
      vertex -8.0374 -12.6649 -4
    endloop
  endfacet
  facet normal 0 0 -1
    outer loop
      vertex -9.56136 -11.5577 -4
      vertex -9.56136 11.5577 -4
      vertex -8.0374 12.6649 -4
    endloop
  endfacet
  facet normal 0 0 -1
    outer loop
      vertex -10.9345 -10.2682 -4
      vertex -9.56136 11.5577 -4
      vertex -9.56136 -11.5577 -4
    endloop
  endfacet
  facet normal 0 0 -1
    outer loop
      vertex -10.9345 -10.2682 -4
      vertex -10.9345 10.2682 -4
      vertex -9.56136 11.5577 -4
    endloop
  endfacet
  facet normal 0 0 -1
    outer loop
      vertex -12.1353 -8.81678 -4
      vertex -10.9345 10.2682 -4
      vertex -10.9345 -10.2682 -4
    endloop
  endfacet
  facet normal 0 0 -1
    outer loop
      vertex -12.1353 -8.81678 -4
      vertex -12.1353 8.81678 -4
      vertex -10.9345 10.2682 -4
    endloop
  endfacet
  facet normal 0 0 -1
    outer loop
      vertex -13.1446 -7.22631 -4
      vertex -12.1353 8.81678 -4
      vertex -12.1353 -8.81678 -4
    endloop
  endfacet
  facet normal 0 0 -1
    outer loop
      vertex -13.1446 -7.22631 -4
      vertex -13.1446 7.22631 -4
      vertex -12.1353 8.81678 -4
    endloop
  endfacet
  facet normal 0 0 -1
    outer loop
      vertex -13.9466 -5.52187 -4
      vertex -13.1446 7.22631 -4
      vertex -13.1446 -7.22631 -4
    endloop
  endfacet
  facet normal 0 0 -1
    outer loop
      vertex -13.9466 -5.52187 -4
      vertex -13.9466 5.52187 -4
      vertex -13.1446 7.22631 -4
    endloop
  endfacet
  facet normal 0 0 -1
    outer loop
      vertex -14.5287 -3.73035 -4
      vertex -13.9466 5.52187 -4
      vertex -13.9466 -5.52187 -4
    endloop
  endfacet
  facet normal 0 0 -1
    outer loop
      vertex -14.5287 -3.73035 -4
      vertex -14.5287 3.73035 -4
      vertex -13.9466 5.52187 -4
    endloop
  endfacet
  facet normal 0 0 -1
    outer loop
      vertex -14.8817 -1.88 -4
      vertex -14.5287 3.73035 -4
      vertex -14.5287 -3.73035 -4
    endloop
  endfacet
  facet normal 0 0 -1
    outer loop
      vertex -14.8817 -1.88 -4
      vertex -14.8817 1.88 -4
      vertex -14.5287 3.73035 -4
    endloop
  endfacet
  facet normal 0 -0 -1
    outer loop
      vertex -14.8817 1.88 -4
      vertex -14.8817 -1.88 -4
      vertex -15 0 -4
    endloop
  endfacet
  facet normal 0.684557 -0.728959 0
    outer loop
      vertex 9.56136 -11.5577 -4
      vertex 10.9345 -10.2682 0
      vertex 9.56136 -11.5577 0
    endloop
  endfacet
  facet normal 0.684557 -0.728959 0
    outer loop
      vertex 10.9345 -10.2682 0
      vertex 9.56136 -11.5577 -4
      vertex 10.9345 -10.2682 -4
    endloop
  endfacet
  facet normal 0.844338 -0.535811 0
    outer loop
      vertex 12.1353 -8.81678 0
      vertex 13.1446 -7.22631 -4
      vertex 13.1446 -7.22631 0
    endloop
  endfacet
  facet normal 0.844338 -0.535811 0
    outer loop
      vertex 13.1446 -7.22631 -4
      vertex 12.1353 -8.81678 0
      vertex 12.1353 -8.81678 -4
    endloop
  endfacet
  facet normal -0.770492 -0.63745 0
    outer loop
      vertex -10.9345 -10.2682 -4
      vertex -12.1353 -8.81678 0
      vertex -12.1353 -8.81678 -4
    endloop
  endfacet
  facet normal -0.770492 -0.63745 0
    outer loop
      vertex -12.1353 -8.81678 0
      vertex -10.9345 -10.2682 -4
      vertex -10.9345 -10.2682 0
    endloop
  endfacet
  facet normal -0.844338 -0.535811 0
    outer loop
      vertex -12.1353 -8.81678 -4
      vertex -13.1446 -7.22631 0
      vertex -13.1446 -7.22631 -4
    endloop
  endfacet
  facet normal -0.844338 -0.535811 0
    outer loop
      vertex -13.1446 -7.22631 0
      vertex -12.1353 -8.81678 -4
      vertex -12.1353 -8.81678 0
    endloop
  endfacet
  facet normal -0.951057 -0.309017 0
    outer loop
      vertex -13.9466 -5.52187 -4
      vertex -14.5287 -3.73035 0
      vertex -14.5287 -3.73035 -4
    endloop
  endfacet
  facet normal -0.951057 -0.309017 0
    outer loop
      vertex -14.5287 -3.73035 0
      vertex -13.9466 -5.52187 -4
      vertex -13.9466 -5.52187 0
    endloop
  endfacet
  facet normal 0.368104 -0.929785 0
    outer loop
      vertex 4.63525 -14.2658 -4
      vertex 6.38669 -13.5724 0
      vertex 4.63525 -14.2658 0
    endloop
  endfacet
  facet normal 0.368104 -0.929785 0
    outer loop
      vertex 6.38669 -13.5724 0
      vertex 4.63525 -14.2658 -4
      vertex 6.38669 -13.5724 -4
    endloop
  endfacet
  facet normal 0.24871 -0.968578 0
    outer loop
      vertex 2.81072 -14.7343 -4
      vertex 4.63525 -14.2658 0
      vertex 2.81072 -14.7343 0
    endloop
  endfacet
  facet normal 0.24871 -0.968578 0
    outer loop
      vertex 4.63525 -14.2658 0
      vertex 2.81072 -14.7343 -4
      vertex 4.63525 -14.2658 -4
    endloop
  endfacet
  facet normal 0.125337 -0.992114 0
    outer loop
      vertex 0.941857 -14.9704 -4
      vertex 2.81072 -14.7343 0
      vertex 0.941857 -14.9704 0
    endloop
  endfacet
  facet normal 0.125337 -0.992114 0
    outer loop
      vertex 2.81072 -14.7343 0
      vertex 0.941857 -14.9704 -4
      vertex 2.81072 -14.7343 -4
    endloop
  endfacet
  facet normal -0.125337 -0.992114 0
    outer loop
      vertex -2.81072 -14.7343 -4
      vertex -0.941857 -14.9704 0
      vertex -2.81072 -14.7343 0
    endloop
  endfacet
  facet normal -0.125337 -0.992114 -0
    outer loop
      vertex -0.941857 -14.9704 0
      vertex -2.81072 -14.7343 -4
      vertex -0.941857 -14.9704 -4
    endloop
  endfacet
  facet normal -0.368104 -0.929785 0
    outer loop
      vertex -6.38669 -13.5724 -4
      vertex -4.63525 -14.2658 0
      vertex -6.38669 -13.5724 0
    endloop
  endfacet
  facet normal -0.368104 -0.929785 -0
    outer loop
      vertex -4.63525 -14.2658 0
      vertex -6.38669 -13.5724 -4
      vertex -4.63525 -14.2658 -4
    endloop
  endfacet
  facet normal -0.24871 -0.968578 0
    outer loop
      vertex -4.63525 -14.2658 -4
      vertex -2.81072 -14.7343 0
      vertex -4.63525 -14.2658 0
    endloop
  endfacet
  facet normal -0.24871 -0.968578 -0
    outer loop
      vertex -2.81072 -14.7343 0
      vertex -4.63525 -14.2658 -4
      vertex -2.81072 -14.7343 -4
    endloop
  endfacet
  facet normal -0.684557 -0.728959 0
    outer loop
      vertex -10.9345 -10.2682 -4
      vertex -9.56136 -11.5577 0
      vertex -10.9345 -10.2682 0
    endloop
  endfacet
  facet normal -0.684557 -0.728959 -0
    outer loop
      vertex -9.56136 -11.5577 0
      vertex -10.9345 -10.2682 -4
      vertex -9.56136 -11.5577 -4
    endloop
  endfacet
  facet normal -0.904837 -0.425758 0
    outer loop
      vertex -13.1446 -7.22631 -4
      vertex -13.9466 -5.52187 0
      vertex -13.9466 -5.52187 -4
    endloop
  endfacet
  facet normal -0.904837 -0.425758 0
    outer loop
      vertex -13.9466 -5.52187 0
      vertex -13.1446 -7.22631 -4
      vertex -13.1446 -7.22631 0
    endloop
  endfacet
  facet normal -0.982285 -0.187395 0
    outer loop
      vertex -14.5287 -3.73035 -4
      vertex -14.8817 -1.88 0
      vertex -14.8817 -1.88 -4
    endloop
  endfacet
  facet normal -0.982285 -0.187395 0
    outer loop
      vertex -14.8817 -1.88 0
      vertex -14.5287 -3.73035 -4
      vertex -14.5287 -3.73035 0
    endloop
  endfacet
  facet normal -0.998026 -0.0628013 0
    outer loop
      vertex -14.8817 -1.88 -4
      vertex -15 0 0
      vertex -15 0 -4
    endloop
  endfacet
  facet normal -0.998026 -0.0628013 0
    outer loop
      vertex -15 0 0
      vertex -14.8817 -1.88 -4
      vertex -14.8817 -1.88 0
    endloop
  endfacet
  facet normal 0.587778 -0.809022 0
    outer loop
      vertex 8.0374 -12.6649 -4
      vertex 9.56136 -11.5577 0
      vertex 8.0374 -12.6649 0
    endloop
  endfacet
  facet normal 0.587778 -0.809022 0
    outer loop
      vertex 9.56136 -11.5577 0
      vertex 8.0374 -12.6649 -4
      vertex 9.56136 -11.5577 -4
    endloop
  endfacet
  facet normal 0.48176 -0.876303 0
    outer loop
      vertex 6.38669 -13.5724 -4
      vertex 8.0374 -12.6649 0
      vertex 6.38669 -13.5724 0
    endloop
  endfacet
  facet normal 0.48176 -0.876303 0
    outer loop
      vertex 8.0374 -12.6649 0
      vertex 6.38669 -13.5724 -4
      vertex 8.0374 -12.6649 -4
    endloop
  endfacet
  facet normal -0.587778 -0.809022 0
    outer loop
      vertex -9.56136 -11.5577 -4
      vertex -8.0374 -12.6649 0
      vertex -9.56136 -11.5577 0
    endloop
  endfacet
  facet normal -0.587778 -0.809022 -0
    outer loop
      vertex -8.0374 -12.6649 0
      vertex -9.56136 -11.5577 -4
      vertex -8.0374 -12.6649 -4
    endloop
  endfacet
  facet normal -0.48176 -0.876303 0
    outer loop
      vertex -8.0374 -12.6649 -4
      vertex -6.38669 -13.5724 0
      vertex -8.0374 -12.6649 0
    endloop
  endfacet
  facet normal -0.48176 -0.876303 -0
    outer loop
      vertex -6.38669 -13.5724 0
      vertex -8.0374 -12.6649 -4
      vertex -6.38669 -13.5724 -4
    endloop
  endfacet
  facet normal 0.951056 -0.309018 0
    outer loop
      vertex -8.81411 2.26308 0
      vertex -8.46097 3.34993 -3
      vertex -8.46097 3.34993 0
    endloop
  endfacet
  facet normal 0.951056 -0.309018 0
    outer loop
      vertex -8.46097 3.34993 -3
      vertex -8.81411 2.26308 0
      vertex -8.81411 2.26308 -3
    endloop
  endfacet
  facet normal -0.844327 -0.535828 0
    outer loop
      vertex 7.97439 4.38396 -3
      vertex 7.36205 5.34885 0
      vertex 7.36205 5.34885 -3
    endloop
  endfacet
  facet normal -0.844327 -0.535828 0
    outer loop
      vertex 7.36205 5.34885 0
      vertex 7.97439 4.38396 -3
      vertex 7.97439 4.38396 0
    endloop
  endfacet
  facet normal -0.368117 -0.929779 0
    outer loop
      vertex 2.81205 8.65461 -3
      vertex 3.87459 8.23393 0
      vertex 2.81205 8.65461 0
    endloop
  endfacet
  facet normal -0.368117 -0.929779 -0
    outer loop
      vertex 3.87459 8.23393 0
      vertex 2.81205 8.65461 -3
      vertex 3.87459 8.23393 -3
    endloop
  endfacet
  facet normal 0.368117 -0.929779 0
    outer loop
      vertex -3.87459 8.23393 -3
      vertex -2.81205 8.65461 0
      vertex -3.87459 8.23393 0
    endloop
  endfacet
  facet normal 0.368117 -0.929779 0
    outer loop
      vertex -2.81205 8.65461 0
      vertex -3.87459 8.23393 -3
      vertex -2.81205 8.65461 -3
    endloop
  endfacet
  facet normal 0.904826 -0.425781 0
    outer loop
      vertex -8.46097 3.34993 0
      vertex -7.97439 4.38396 -3
      vertex -7.97439 4.38396 0
    endloop
  endfacet
  facet normal 0.904826 -0.425781 0
    outer loop
      vertex -7.97439 4.38396 -3
      vertex -8.46097 3.34993 0
      vertex -8.46097 3.34993 -3
    endloop
  endfacet
  facet normal -0.998027 0.0627939 0
    outer loop
      vertex 9.02824 -1.14053 -3
      vertex 9.1 0 0
      vertex 9.1 0 -3
    endloop
  endfacet
  facet normal -0.998027 0.0627939 0
    outer loop
      vertex 9.1 0 0
      vertex 9.02824 -1.14053 -3
      vertex 9.02824 -1.14053 0
    endloop
  endfacet
  facet normal -0.48176 0.876303 0
    outer loop
      vertex 4.87602 -7.68338 -3
      vertex 3.87459 -8.23393 0
      vertex 4.87602 -7.68338 0
    endloop
  endfacet
  facet normal -0.48176 0.876303 0
    outer loop
      vertex 3.87459 -8.23393 0
      vertex 4.87602 -7.68338 -3
      vertex 3.87459 -8.23393 -3
    endloop
  endfacet
  facet normal 0 -1 0
    outer loop
      vertex -0.571393 9.08204 -3
      vertex 0.571393 9.08204 0
      vertex -0.571393 9.08204 0
    endloop
  endfacet
  facet normal 0 -1 -0
    outer loop
      vertex 0.571393 9.08204 0
      vertex -0.571393 9.08204 -3
      vertex 0.571393 9.08204 -3
    endloop
  endfacet
  facet normal -0.587781 -0.80902 0
    outer loop
      vertex 4.87602 7.68338 -3
      vertex 5.80056 7.01167 0
      vertex 4.87602 7.68338 0
    endloop
  endfacet
  facet normal -0.587781 -0.80902 -0
    outer loop
      vertex 5.80056 7.01167 0
      vertex 4.87602 7.68338 -3
      vertex 5.80056 7.01167 -3
    endloop
  endfacet
  facet normal 0.770512 -0.637425 0
    outer loop
      vertex -7.36205 5.34885 0
      vertex -6.63361 6.22938 -3
      vertex -6.63361 6.22938 0
    endloop
  endfacet
  facet normal 0.770512 -0.637425 0
    outer loop
      vertex -6.63361 6.22938 -3
      vertex -7.36205 5.34885 0
      vertex -7.36205 5.34885 -3
    endloop
  endfacet
  facet normal 0.125334 -0.992115 0
    outer loop
      vertex -1.70517 8.93881 -3
      vertex -0.571393 9.08204 0
      vertex -1.70517 8.93881 0
    endloop
  endfacet
  facet normal 0.125334 -0.992115 0
    outer loop
      vertex -0.571393 9.08204 0
      vertex -1.70517 8.93881 -3
      vertex -0.571393 9.08204 -3
    endloop
  endfacet
  facet normal 0.684549 -0.728967 0
    outer loop
      vertex -6.63361 6.22938 -3
      vertex -5.80056 7.01167 0
      vertex -6.63361 6.22938 0
    endloop
  endfacet
  facet normal 0.684549 -0.728967 0
    outer loop
      vertex -5.80056 7.01167 0
      vertex -6.63361 6.22938 -3
      vertex -5.80056 7.01167 -3
    endloop
  endfacet
  facet normal -0.998027 -0.0627939 0
    outer loop
      vertex 9.1 0 -3
      vertex 9.02824 1.14053 0
      vertex 9.02824 1.14053 -3
    endloop
  endfacet
  facet normal -0.998027 -0.0627939 0
    outer loop
      vertex 9.02824 1.14053 0
      vertex 9.1 0 -3
      vertex 9.1 0 0
    endloop
  endfacet
  facet normal -0.587781 0.80902 0
    outer loop
      vertex 5.80056 -7.01167 -3
      vertex 4.87602 -7.68338 0
      vertex 5.80056 -7.01167 0
    endloop
  endfacet
  facet normal -0.587781 0.80902 0
    outer loop
      vertex 4.87602 -7.68338 0
      vertex 5.80056 -7.01167 -3
      vertex 4.87602 -7.68338 -3
    endloop
  endfacet
  facet normal -0.844327 0.535828 0
    outer loop
      vertex 7.36205 -5.34885 -3
      vertex 7.97439 -4.38396 0
      vertex 7.97439 -4.38396 -3
    endloop
  endfacet
  facet normal -0.844327 0.535828 0
    outer loop
      vertex 7.97439 -4.38396 0
      vertex 7.36205 -5.34885 -3
      vertex 7.36205 -5.34885 0
    endloop
  endfacet
  facet normal -0.684549 -0.728967 0
    outer loop
      vertex 5.80056 7.01167 -3
      vertex 6.63361 6.22938 0
      vertex 5.80056 7.01167 0
    endloop
  endfacet
  facet normal -0.684549 -0.728967 -0
    outer loop
      vertex 6.63361 6.22938 0
      vertex 5.80056 7.01167 -3
      vertex 6.63361 6.22938 -3
    endloop
  endfacet
  facet normal -0.770512 -0.637425 0
    outer loop
      vertex 7.36205 5.34885 -3
      vertex 6.63361 6.22938 0
      vertex 6.63361 6.22938 -3
    endloop
  endfacet
  facet normal -0.770512 -0.637425 0
    outer loop
      vertex 6.63361 6.22938 0
      vertex 7.36205 5.34885 -3
      vertex 7.36205 5.34885 0
    endloop
  endfacet
  facet normal -0.248691 -0.968583 0
    outer loop
      vertex 1.70517 8.93881 -3
      vertex 2.81205 8.65461 0
      vertex 1.70517 8.93881 0
    endloop
  endfacet
  facet normal -0.248691 -0.968583 -0
    outer loop
      vertex 2.81205 8.65461 0
      vertex 1.70517 8.93881 -3
      vertex 2.81205 8.65461 -3
    endloop
  endfacet
  facet normal -0.125334 -0.992115 0
    outer loop
      vertex 0.571393 9.08204 -3
      vertex 1.70517 8.93881 0
      vertex 0.571393 9.08204 0
    endloop
  endfacet
  facet normal -0.125334 -0.992115 -0
    outer loop
      vertex 1.70517 8.93881 0
      vertex 0.571393 9.08204 -3
      vertex 1.70517 8.93881 -3
    endloop
  endfacet
  facet normal 0.998027 -0.0627939 0
    outer loop
      vertex -9.1 0 0
      vertex -9.02824 1.14053 -3
      vertex -9.02824 1.14053 0
    endloop
  endfacet
  facet normal 0.998027 -0.0627939 0
    outer loop
      vertex -9.02824 1.14053 -3
      vertex -9.1 0 0
      vertex -9.1 0 -3
    endloop
  endfacet
  facet normal 0.982289 -0.187375 0
    outer loop
      vertex -9.02824 1.14053 0
      vertex -8.81411 2.26308 -3
      vertex -8.81411 2.26308 0
    endloop
  endfacet
  facet normal 0.982289 -0.187375 0
    outer loop
      vertex -8.81411 2.26308 -3
      vertex -9.02824 1.14053 0
      vertex -9.02824 1.14053 -3
    endloop
  endfacet
  facet normal 0.844327 -0.535828 0
    outer loop
      vertex -7.97439 4.38396 0
      vertex -7.36205 5.34885 -3
      vertex -7.36205 5.34885 0
    endloop
  endfacet
  facet normal 0.844327 -0.535828 0
    outer loop
      vertex -7.36205 5.34885 -3
      vertex -7.97439 4.38396 0
      vertex -7.97439 4.38396 -3
    endloop
  endfacet
  facet normal 0.248691 -0.968583 0
    outer loop
      vertex -2.81205 8.65461 -3
      vertex -1.70517 8.93881 0
      vertex -2.81205 8.65461 0
    endloop
  endfacet
  facet normal 0.248691 -0.968583 0
    outer loop
      vertex -1.70517 8.93881 0
      vertex -2.81205 8.65461 -3
      vertex -1.70517 8.93881 -3
    endloop
  endfacet
  facet normal 0.48176 -0.876303 0
    outer loop
      vertex -4.87602 7.68338 -3
      vertex -3.87459 8.23393 0
      vertex -4.87602 7.68338 0
    endloop
  endfacet
  facet normal 0.48176 -0.876303 0
    outer loop
      vertex -3.87459 8.23393 0
      vertex -4.87602 7.68338 -3
      vertex -3.87459 8.23393 -3
    endloop
  endfacet
  facet normal 0.587781 -0.80902 0
    outer loop
      vertex -5.80056 7.01167 -3
      vertex -4.87602 7.68338 0
      vertex -5.80056 7.01167 0
    endloop
  endfacet
  facet normal 0.587781 -0.80902 0
    outer loop
      vertex -4.87602 7.68338 0
      vertex -5.80056 7.01167 -3
      vertex -4.87602 7.68338 -3
    endloop
  endfacet
  facet normal -0.982289 0.187375 0
    outer loop
      vertex 8.81411 -2.26308 -3
      vertex 9.02824 -1.14053 0
      vertex 9.02824 -1.14053 -3
    endloop
  endfacet
  facet normal -0.982289 0.187375 0
    outer loop
      vertex 9.02824 -1.14053 0
      vertex 8.81411 -2.26308 -3
      vertex 8.81411 -2.26308 0
    endloop
  endfacet
  facet normal -0.125334 0.992115 0
    outer loop
      vertex 1.70517 -8.93881 -3
      vertex 0.571393 -9.08204 0
      vertex 1.70517 -8.93881 0
    endloop
  endfacet
  facet normal -0.125334 0.992115 0
    outer loop
      vertex 0.571393 -9.08204 0
      vertex 1.70517 -8.93881 -3
      vertex 0.571393 -9.08204 -3
    endloop
  endfacet
  facet normal -0.904826 -0.425781 0
    outer loop
      vertex 8.46097 3.34993 -3
      vertex 7.97439 4.38396 0
      vertex 7.97439 4.38396 -3
    endloop
  endfacet
  facet normal -0.904826 -0.425781 0
    outer loop
      vertex 7.97439 4.38396 0
      vertex 8.46097 3.34993 -3
      vertex 8.46097 3.34993 0
    endloop
  endfacet
  facet normal -0.951056 -0.309018 0
    outer loop
      vertex 8.81411 2.26308 -3
      vertex 8.46097 3.34993 0
      vertex 8.46097 3.34993 -3
    endloop
  endfacet
  facet normal -0.951056 -0.309018 0
    outer loop
      vertex 8.46097 3.34993 0
      vertex 8.81411 2.26308 -3
      vertex 8.81411 2.26308 0
    endloop
  endfacet
  facet normal -0.982289 -0.187375 0
    outer loop
      vertex 9.02824 1.14053 -3
      vertex 8.81411 2.26308 0
      vertex 8.81411 2.26308 -3
    endloop
  endfacet
  facet normal -0.982289 -0.187375 0
    outer loop
      vertex 8.81411 2.26308 0
      vertex 9.02824 1.14053 -3
      vertex 9.02824 1.14053 0
    endloop
  endfacet
  facet normal -0.48176 -0.876303 0
    outer loop
      vertex 3.87459 8.23393 -3
      vertex 4.87602 7.68338 0
      vertex 3.87459 8.23393 0
    endloop
  endfacet
  facet normal -0.48176 -0.876303 -0
    outer loop
      vertex 4.87602 7.68338 0
      vertex 3.87459 8.23393 -3
      vertex 4.87602 7.68338 -3
    endloop
  endfacet
  facet normal -0.951056 0.309018 0
    outer loop
      vertex 8.46097 -3.34993 -3
      vertex 8.81411 -2.26308 0
      vertex 8.81411 -2.26308 -3
    endloop
  endfacet
  facet normal -0.951056 0.309018 0
    outer loop
      vertex 8.81411 -2.26308 0
      vertex 8.46097 -3.34993 -3
      vertex 8.46097 -3.34993 0
    endloop
  endfacet
  facet normal -0.904826 0.425781 0
    outer loop
      vertex 7.97439 -4.38396 -3
      vertex 8.46097 -3.34993 0
      vertex 8.46097 -3.34993 -3
    endloop
  endfacet
  facet normal -0.904826 0.425781 0
    outer loop
      vertex 8.46097 -3.34993 0
      vertex 7.97439 -4.38396 -3
      vertex 7.97439 -4.38396 0
    endloop
  endfacet
  facet normal 0 1 -0
    outer loop
      vertex 0.571393 -9.08204 -3
      vertex -0.571393 -9.08204 0
      vertex 0.571393 -9.08204 0
    endloop
  endfacet
  facet normal 0 1 0
    outer loop
      vertex -0.571393 -9.08204 0
      vertex 0.571393 -9.08204 -3
      vertex -0.571393 -9.08204 -3
    endloop
  endfacet
  facet normal 0.998027 0.0627939 0
    outer loop
      vertex -9.02824 -1.14053 0
      vertex -9.1 0 -3
      vertex -9.1 0 0
    endloop
  endfacet
  facet normal 0.998027 0.0627939 0
    outer loop
      vertex -9.1 0 -3
      vertex -9.02824 -1.14053 0
      vertex -9.02824 -1.14053 -3
    endloop
  endfacet
  facet normal 0.904826 0.425781 0
    outer loop
      vertex -7.97439 -4.38396 0
      vertex -8.46097 -3.34993 -3
      vertex -8.46097 -3.34993 0
    endloop
  endfacet
  facet normal 0.904826 0.425781 0
    outer loop
      vertex -8.46097 -3.34993 -3
      vertex -7.97439 -4.38396 0
      vertex -7.97439 -4.38396 -3
    endloop
  endfacet
  facet normal 0.951056 0.309018 0
    outer loop
      vertex -8.46097 -3.34993 0
      vertex -8.81411 -2.26308 -3
      vertex -8.81411 -2.26308 0
    endloop
  endfacet
  facet normal 0.951056 0.309018 0
    outer loop
      vertex -8.81411 -2.26308 -3
      vertex -8.46097 -3.34993 0
      vertex -8.46097 -3.34993 -3
    endloop
  endfacet
  facet normal 0.844327 0.535828 0
    outer loop
      vertex -7.36205 -5.34885 0
      vertex -7.97439 -4.38396 -3
      vertex -7.97439 -4.38396 0
    endloop
  endfacet
  facet normal 0.844327 0.535828 0
    outer loop
      vertex -7.97439 -4.38396 -3
      vertex -7.36205 -5.34885 0
      vertex -7.36205 -5.34885 -3
    endloop
  endfacet
  facet normal 0.770512 0.637425 0
    outer loop
      vertex -6.63361 -6.22938 0
      vertex -7.36205 -5.34885 -3
      vertex -7.36205 -5.34885 0
    endloop
  endfacet
  facet normal 0.770512 0.637425 0
    outer loop
      vertex -7.36205 -5.34885 -3
      vertex -6.63361 -6.22938 0
      vertex -6.63361 -6.22938 -3
    endloop
  endfacet
  facet normal -0.684549 0.728967 0
    outer loop
      vertex 6.63361 -6.22938 -3
      vertex 5.80056 -7.01167 0
      vertex 6.63361 -6.22938 0
    endloop
  endfacet
  facet normal -0.684549 0.728967 0
    outer loop
      vertex 5.80056 -7.01167 0
      vertex 6.63361 -6.22938 -3
      vertex 5.80056 -7.01167 -3
    endloop
  endfacet
  facet normal -0.770512 0.637425 0
    outer loop
      vertex 6.63361 -6.22938 -3
      vertex 7.36205 -5.34885 0
      vertex 7.36205 -5.34885 -3
    endloop
  endfacet
  facet normal -0.770512 0.637425 0
    outer loop
      vertex 7.36205 -5.34885 0
      vertex 6.63361 -6.22938 -3
      vertex 6.63361 -6.22938 0
    endloop
  endfacet
  facet normal 0.587781 0.80902 -0
    outer loop
      vertex -4.87602 -7.68338 -3
      vertex -5.80056 -7.01167 0
      vertex -4.87602 -7.68338 0
    endloop
  endfacet
  facet normal 0.587781 0.80902 0
    outer loop
      vertex -5.80056 -7.01167 0
      vertex -4.87602 -7.68338 -3
      vertex -5.80056 -7.01167 -3
    endloop
  endfacet
  facet normal 0.248691 0.968583 -0
    outer loop
      vertex -1.70517 -8.93881 -3
      vertex -2.81205 -8.65461 0
      vertex -1.70517 -8.93881 0
    endloop
  endfacet
  facet normal 0.248691 0.968583 0
    outer loop
      vertex -2.81205 -8.65461 0
      vertex -1.70517 -8.93881 -3
      vertex -2.81205 -8.65461 -3
    endloop
  endfacet
  facet normal 0 0 1
    outer loop
      vertex 9.02824 1.14053 -3
      vertex 9.02824 -1.14053 -3
      vertex 9.1 0 -3
    endloop
  endfacet
  facet normal 0 0 1
    outer loop
      vertex 8.81411 2.26308 -3
      vertex 9.02824 -1.14053 -3
      vertex 9.02824 1.14053 -3
    endloop
  endfacet
  facet normal 0 0 1
    outer loop
      vertex 8.81411 2.26308 -3
      vertex 8.81411 -2.26308 -3
      vertex 9.02824 -1.14053 -3
    endloop
  endfacet
  facet normal 0 0 1
    outer loop
      vertex 8.46097 3.34993 -3
      vertex 8.81411 -2.26308 -3
      vertex 8.81411 2.26308 -3
    endloop
  endfacet
  facet normal 0 0 1
    outer loop
      vertex 8.46097 3.34993 -3
      vertex 8.46097 -3.34993 -3
      vertex 8.81411 -2.26308 -3
    endloop
  endfacet
  facet normal 0 0 1
    outer loop
      vertex 7.97439 4.38396 -3
      vertex 8.46097 -3.34993 -3
      vertex 8.46097 3.34993 -3
    endloop
  endfacet
  facet normal 0 0 1
    outer loop
      vertex 7.97439 4.38396 -3
      vertex 7.97439 -4.38396 -3
      vertex 8.46097 -3.34993 -3
    endloop
  endfacet
  facet normal 0 0 1
    outer loop
      vertex 7.36205 5.34885 -3
      vertex 7.97439 -4.38396 -3
      vertex 7.97439 4.38396 -3
    endloop
  endfacet
  facet normal 0 0 1
    outer loop
      vertex 7.36205 5.34885 -3
      vertex 7.36205 -5.34885 -3
      vertex 7.97439 -4.38396 -3
    endloop
  endfacet
  facet normal 0 0 1
    outer loop
      vertex 6.63361 6.22938 -3
      vertex 7.36205 -5.34885 -3
      vertex 7.36205 5.34885 -3
    endloop
  endfacet
  facet normal 0 0 1
    outer loop
      vertex 6.63361 6.22938 -3
      vertex 6.63361 -6.22938 -3
      vertex 7.36205 -5.34885 -3
    endloop
  endfacet
  facet normal 0 0 1
    outer loop
      vertex 5.80056 7.01167 -3
      vertex 6.63361 -6.22938 -3
      vertex 6.63361 6.22938 -3
    endloop
  endfacet
  facet normal 0 0 1
    outer loop
      vertex 5.80056 7.01167 -3
      vertex 5.80056 -7.01167 -3
      vertex 6.63361 -6.22938 -3
    endloop
  endfacet
  facet normal 0 0 1
    outer loop
      vertex 4.87602 7.68338 -3
      vertex 5.80056 -7.01167 -3
      vertex 5.80056 7.01167 -3
    endloop
  endfacet
  facet normal 0 0 1
    outer loop
      vertex 4.87602 7.68338 -3
      vertex 4.87602 -7.68338 -3
      vertex 5.80056 -7.01167 -3
    endloop
  endfacet
  facet normal 0 0 1
    outer loop
      vertex 3.87459 8.23393 -3
      vertex 4.87602 -7.68338 -3
      vertex 4.87602 7.68338 -3
    endloop
  endfacet
  facet normal 0 0 1
    outer loop
      vertex 3.87459 8.23393 -3
      vertex 3.87459 -8.23393 -3
      vertex 4.87602 -7.68338 -3
    endloop
  endfacet
  facet normal 0 0 1
    outer loop
      vertex 2.81205 8.65461 -3
      vertex 3.87459 -8.23393 -3
      vertex 3.87459 8.23393 -3
    endloop
  endfacet
  facet normal 0 0 1
    outer loop
      vertex 2.81205 8.65461 -3
      vertex 2.81205 -8.65461 -3
      vertex 3.87459 -8.23393 -3
    endloop
  endfacet
  facet normal 0 0 1
    outer loop
      vertex 1.70517 8.93881 -3
      vertex 2.81205 -8.65461 -3
      vertex 2.81205 8.65461 -3
    endloop
  endfacet
  facet normal 0 0 1
    outer loop
      vertex 1.70517 8.93881 -3
      vertex 1.70517 -8.93881 -3
      vertex 2.81205 -8.65461 -3
    endloop
  endfacet
  facet normal 0 0 1
    outer loop
      vertex 0.571393 9.08204 -3
      vertex 1.70517 -8.93881 -3
      vertex 1.70517 8.93881 -3
    endloop
  endfacet
  facet normal 0 0 1
    outer loop
      vertex 0.571393 9.08204 -3
      vertex 0.571393 -9.08204 -3
      vertex 1.70517 -8.93881 -3
    endloop
  endfacet
  facet normal -0 0 1
    outer loop
      vertex -0.571393 9.08204 -3
      vertex 0.571393 -9.08204 -3
      vertex 0.571393 9.08204 -3
    endloop
  endfacet
  facet normal 0 0 1
    outer loop
      vertex -0.571393 9.08204 -3
      vertex -0.571393 -9.08204 -3
      vertex 0.571393 -9.08204 -3
    endloop
  endfacet
  facet normal -0 0 1
    outer loop
      vertex -1.70517 8.93881 -3
      vertex -0.571393 -9.08204 -3
      vertex -0.571393 9.08204 -3
    endloop
  endfacet
  facet normal 0 0 1
    outer loop
      vertex -1.70517 8.93881 -3
      vertex -1.70517 -8.93881 -3
      vertex -0.571393 -9.08204 -3
    endloop
  endfacet
  facet normal -0 0 1
    outer loop
      vertex -2.81205 8.65461 -3
      vertex -1.70517 -8.93881 -3
      vertex -1.70517 8.93881 -3
    endloop
  endfacet
  facet normal 0 0 1
    outer loop
      vertex -2.81205 8.65461 -3
      vertex -2.81205 -8.65461 -3
      vertex -1.70517 -8.93881 -3
    endloop
  endfacet
  facet normal -0 0 1
    outer loop
      vertex -3.87459 8.23393 -3
      vertex -2.81205 -8.65461 -3
      vertex -2.81205 8.65461 -3
    endloop
  endfacet
  facet normal 0 0 1
    outer loop
      vertex -3.87459 8.23393 -3
      vertex -3.87459 -8.23393 -3
      vertex -2.81205 -8.65461 -3
    endloop
  endfacet
  facet normal -0 0 1
    outer loop
      vertex -4.87602 7.68338 -3
      vertex -3.87459 -8.23393 -3
      vertex -3.87459 8.23393 -3
    endloop
  endfacet
  facet normal 0 0 1
    outer loop
      vertex -4.87602 7.68338 -3
      vertex -4.87602 -7.68338 -3
      vertex -3.87459 -8.23393 -3
    endloop
  endfacet
  facet normal -0 0 1
    outer loop
      vertex -5.80056 7.01167 -3
      vertex -4.87602 -7.68338 -3
      vertex -4.87602 7.68338 -3
    endloop
  endfacet
  facet normal 0 0 1
    outer loop
      vertex -5.80056 7.01167 -3
      vertex -5.80056 -7.01167 -3
      vertex -4.87602 -7.68338 -3
    endloop
  endfacet
  facet normal -0 0 1
    outer loop
      vertex -6.63361 6.22938 -3
      vertex -5.80056 -7.01167 -3
      vertex -5.80056 7.01167 -3
    endloop
  endfacet
  facet normal 0 0 1
    outer loop
      vertex -6.63361 6.22938 -3
      vertex -6.63361 -6.22938 -3
      vertex -5.80056 -7.01167 -3
    endloop
  endfacet
  facet normal -0 0 1
    outer loop
      vertex -7.36205 5.34885 -3
      vertex -6.63361 -6.22938 -3
      vertex -6.63361 6.22938 -3
    endloop
  endfacet
  facet normal 0 0 1
    outer loop
      vertex -7.36205 5.34885 -3
      vertex -7.36205 -5.34885 -3
      vertex -6.63361 -6.22938 -3
    endloop
  endfacet
  facet normal -0 0 1
    outer loop
      vertex -7.97439 4.38396 -3
      vertex -7.36205 -5.34885 -3
      vertex -7.36205 5.34885 -3
    endloop
  endfacet
  facet normal 0 0 1
    outer loop
      vertex -7.97439 4.38396 -3
      vertex -7.97439 -4.38396 -3
      vertex -7.36205 -5.34885 -3
    endloop
  endfacet
  facet normal -0 0 1
    outer loop
      vertex -8.46097 3.34993 -3
      vertex -7.97439 -4.38396 -3
      vertex -7.97439 4.38396 -3
    endloop
  endfacet
  facet normal 0 0 1
    outer loop
      vertex -8.46097 3.34993 -3
      vertex -8.46097 -3.34993 -3
      vertex -7.97439 -4.38396 -3
    endloop
  endfacet
  facet normal -0 0 1
    outer loop
      vertex -8.81411 2.26308 -3
      vertex -8.46097 -3.34993 -3
      vertex -8.46097 3.34993 -3
    endloop
  endfacet
  facet normal 0 0 1
    outer loop
      vertex -8.81411 2.26308 -3
      vertex -8.81411 -2.26308 -3
      vertex -8.46097 -3.34993 -3
    endloop
  endfacet
  facet normal -0 0 1
    outer loop
      vertex -9.02824 1.14053 -3
      vertex -8.81411 -2.26308 -3
      vertex -8.81411 2.26308 -3
    endloop
  endfacet
  facet normal 0 0 1
    outer loop
      vertex -9.02824 1.14053 -3
      vertex -9.02824 -1.14053 -3
      vertex -8.81411 -2.26308 -3
    endloop
  endfacet
  facet normal 0 -0 1
    outer loop
      vertex -9.02824 -1.14053 -3
      vertex -9.02824 1.14053 -3
      vertex -9.1 0 -3
    endloop
  endfacet
  facet normal 0.982289 0.187375 0
    outer loop
      vertex -8.81411 -2.26308 0
      vertex -9.02824 -1.14053 -3
      vertex -9.02824 -1.14053 0
    endloop
  endfacet
  facet normal 0.982289 0.187375 0
    outer loop
      vertex -9.02824 -1.14053 -3
      vertex -8.81411 -2.26308 0
      vertex -8.81411 -2.26308 -3
    endloop
  endfacet
  facet normal 0.684549 0.728967 -0
    outer loop
      vertex -5.80056 -7.01167 -3
      vertex -6.63361 -6.22938 0
      vertex -5.80056 -7.01167 0
    endloop
  endfacet
  facet normal 0.684549 0.728967 0
    outer loop
      vertex -6.63361 -6.22938 0
      vertex -5.80056 -7.01167 -3
      vertex -6.63361 -6.22938 -3
    endloop
  endfacet
  facet normal 0.48176 0.876303 -0
    outer loop
      vertex -3.87459 -8.23393 -3
      vertex -4.87602 -7.68338 0
      vertex -3.87459 -8.23393 0
    endloop
  endfacet
  facet normal 0.48176 0.876303 0
    outer loop
      vertex -4.87602 -7.68338 0
      vertex -3.87459 -8.23393 -3
      vertex -4.87602 -7.68338 -3
    endloop
  endfacet
  facet normal 0.125334 0.992115 -0
    outer loop
      vertex -0.571393 -9.08204 -3
      vertex -1.70517 -8.93881 0
      vertex -0.571393 -9.08204 0
    endloop
  endfacet
  facet normal 0.125334 0.992115 0
    outer loop
      vertex -1.70517 -8.93881 0
      vertex -0.571393 -9.08204 -3
      vertex -1.70517 -8.93881 -3
    endloop
  endfacet
  facet normal -0.368117 0.929779 0
    outer loop
      vertex 3.87459 -8.23393 -3
      vertex 2.81205 -8.65461 0
      vertex 3.87459 -8.23393 0
    endloop
  endfacet
  facet normal -0.368117 0.929779 0
    outer loop
      vertex 2.81205 -8.65461 0
      vertex 3.87459 -8.23393 -3
      vertex 2.81205 -8.65461 -3
    endloop
  endfacet
  facet normal -0.248691 0.968583 0
    outer loop
      vertex 2.81205 -8.65461 -3
      vertex 1.70517 -8.93881 0
      vertex 2.81205 -8.65461 0
    endloop
  endfacet
  facet normal -0.248691 0.968583 0
    outer loop
      vertex 1.70517 -8.93881 0
      vertex 2.81205 -8.65461 -3
      vertex 1.70517 -8.93881 -3
    endloop
  endfacet
  facet normal 0.368117 0.929779 -0
    outer loop
      vertex -2.81205 -8.65461 -3
      vertex -3.87459 -8.23393 0
      vertex -2.81205 -8.65461 0
    endloop
  endfacet
  facet normal 0.368117 0.929779 0
    outer loop
      vertex -3.87459 -8.23393 0
      vertex -2.81205 -8.65461 -3
      vertex -3.87459 -8.23393 -3
    endloop
  endfacet
endsolid OpenSCAD_Model
