solid OpenSCAD_Model
  facet normal 0.998026 0.0628013 0
    outer loop
      vertex 15 0 0
      vertex 14.8817 1.88 -7
      vertex 14.8817 1.88 0
    endloop
  endfacet
  facet normal 0.998026 0.0628013 0
    outer loop
      vertex 14.8817 1.88 -7
      vertex 15 0 0
      vertex 15 0 -7
    endloop
  endfacet
  facet normal -0.998026 0.0628013 0
    outer loop
      vertex -15 0 -7
      vertex -14.8817 1.88 0
      vertex -14.8817 1.88 -7
    endloop
  endfacet
  facet normal -0.998026 0.0628013 0
    outer loop
      vertex -14.8817 1.88 0
      vertex -15 0 -7
      vertex -15 0 0
    endloop
  endfacet
  facet normal 0 1 -0
    outer loop
      vertex 0.941857 14.9704 -7
      vertex -0.941857 14.9704 0
      vertex 0.941857 14.9704 0
    endloop
  endfacet
  facet normal 0 1 0
    outer loop
      vertex -0.941857 14.9704 0
      vertex 0.941857 14.9704 -7
      vertex -0.941857 14.9704 -7
    endloop
  endfacet
  facet normal 0 -1 0
    outer loop
      vertex -0.941857 -14.9704 -7
      vertex 0.941857 -14.9704 0
      vertex -0.941857 -14.9704 0
    endloop
  endfacet
  facet normal 0 -1 -0
    outer loop
      vertex 0.941857 -14.9704 0
      vertex -0.941857 -14.9704 -7
      vertex 0.941857 -14.9704 -7
    endloop
  endfacet
  facet normal 0.684557 0.728959 -0
    outer loop
      vertex 10.9345 10.2682 -7
      vertex 9.56136 11.5577 0
      vertex 10.9345 10.2682 0
    endloop
  endfacet
  facet normal 0.684557 0.728959 0
    outer loop
      vertex 9.56136 11.5577 0
      vertex 10.9345 10.2682 -7
      vertex 9.56136 11.5577 -7
    endloop
  endfacet
  facet normal -0.684557 0.728959 0
    outer loop
      vertex -9.56136 11.5577 -7
      vertex -10.9345 10.2682 0
      vertex -9.56136 11.5577 0
    endloop
  endfacet
  facet normal -0.684557 0.728959 0
    outer loop
      vertex -10.9345 10.2682 0
      vertex -9.56136 11.5577 -7
      vertex -10.9345 10.2682 -7
    endloop
  endfacet
  facet normal -0.368104 0.929785 0
    outer loop
      vertex -4.63525 14.2658 -7
      vertex -6.38669 13.5724 0
      vertex -4.63525 14.2658 0
    endloop
  endfacet
  facet normal -0.368104 0.929785 0
    outer loop
      vertex -6.38669 13.5724 0
      vertex -4.63525 14.2658 -7
      vertex -6.38669 13.5724 -7
    endloop
  endfacet
  facet normal 0.951057 -0.309017 0
    outer loop
      vertex 13.9466 -5.52187 0
      vertex 14.5287 -3.73035 -7
      vertex 14.5287 -3.73035 0
    endloop
  endfacet
  facet normal 0.951057 -0.309017 0
    outer loop
      vertex 14.5287 -3.73035 -7
      vertex 13.9466 -5.52187 0
      vertex 13.9466 -5.52187 -7
    endloop
  endfacet
  facet normal 0.904837 0.425758 0
    outer loop
      vertex 13.9466 5.52187 0
      vertex 13.1446 7.22631 -7
      vertex 13.1446 7.22631 0
    endloop
  endfacet
  facet normal 0.904837 0.425758 0
    outer loop
      vertex 13.1446 7.22631 -7
      vertex 13.9466 5.52187 0
      vertex 13.9466 5.52187 -7
    endloop
  endfacet
  facet normal 0.844338 0.535811 0
    outer loop
      vertex 13.1446 7.22631 0
      vertex 12.1353 8.81678 -7
      vertex 12.1353 8.81678 0
    endloop
  endfacet
  facet normal 0.844338 0.535811 0
    outer loop
      vertex 12.1353 8.81678 -7
      vertex 13.1446 7.22631 0
      vertex 13.1446 7.22631 -7
    endloop
  endfacet
  facet normal 0.368104 0.929785 -0
    outer loop
      vertex 6.38669 13.5724 -7
      vertex 4.63525 14.2658 0
      vertex 6.38669 13.5724 0
    endloop
  endfacet
  facet normal 0.368104 0.929785 0
    outer loop
      vertex 4.63525 14.2658 0
      vertex 6.38669 13.5724 -7
      vertex 4.63525 14.2658 -7
    endloop
  endfacet
  facet normal 0.48176 0.876303 -0
    outer loop
      vertex 8.0374 12.6649 -7
      vertex 6.38669 13.5724 0
      vertex 8.0374 12.6649 0
    endloop
  endfacet
  facet normal 0.48176 0.876303 0
    outer loop
      vertex 6.38669 13.5724 0
      vertex 8.0374 12.6649 -7
      vertex 6.38669 13.5724 -7
    endloop
  endfacet
  facet normal -0.904837 0.425758 0
    outer loop
      vertex -13.9466 5.52187 -7
      vertex -13.1446 7.22631 0
      vertex -13.1446 7.22631 -7
    endloop
  endfacet
  facet normal -0.904837 0.425758 0
    outer loop
      vertex -13.1446 7.22631 0
      vertex -13.9466 5.52187 -7
      vertex -13.9466 5.52187 0
    endloop
  endfacet
  facet normal -0.951057 0.309017 0
    outer loop
      vertex -14.5287 3.73035 -7
      vertex -13.9466 5.52187 0
      vertex -13.9466 5.52187 -7
    endloop
  endfacet
  facet normal -0.951057 0.309017 0
    outer loop
      vertex -13.9466 5.52187 0
      vertex -14.5287 3.73035 -7
      vertex -14.5287 3.73035 0
    endloop
  endfacet
  facet normal -0.24871 0.968578 0
    outer loop
      vertex -2.81072 14.7343 -7
      vertex -4.63525 14.2658 0
      vertex -2.81072 14.7343 0
    endloop
  endfacet
  facet normal -0.24871 0.968578 0
    outer loop
      vertex -4.63525 14.2658 0
      vertex -2.81072 14.7343 -7
      vertex -4.63525 14.2658 -7
    endloop
  endfacet
  facet normal 0.951057 0.309017 0
    outer loop
      vertex 14.5287 3.73035 0
      vertex 13.9466 5.52187 -7
      vertex 13.9466 5.52187 0
    endloop
  endfacet
  facet normal 0.951057 0.309017 0
    outer loop
      vertex 13.9466 5.52187 -7
      vertex 14.5287 3.73035 0
      vertex 14.5287 3.73035 -7
    endloop
  endfacet
  facet normal 0.982285 0.187395 0
    outer loop
      vertex 14.8817 1.88 0
      vertex 14.5287 3.73035 -7
      vertex 14.5287 3.73035 0
    endloop
  endfacet
  facet normal 0.982285 0.187395 0
    outer loop
      vertex 14.5287 3.73035 -7
      vertex 14.8817 1.88 0
      vertex 14.8817 1.88 -7
    endloop
  endfacet
  facet normal 0.770492 0.63745 0
    outer loop
      vertex 12.1353 8.81678 0
      vertex 10.9345 10.2682 -7
      vertex 10.9345 10.2682 0
    endloop
  endfacet
  facet normal 0.770492 0.63745 0
    outer loop
      vertex 10.9345 10.2682 -7
      vertex 12.1353 8.81678 0
      vertex 12.1353 8.81678 -7
    endloop
  endfacet
  facet normal 0.24871 0.968578 -0
    outer loop
      vertex 4.63525 14.2658 -7
      vertex 2.81072 14.7343 0
      vertex 4.63525 14.2658 0
    endloop
  endfacet
  facet normal 0.24871 0.968578 0
    outer loop
      vertex 2.81072 14.7343 0
      vertex 4.63525 14.2658 -7
      vertex 2.81072 14.7343 -7
    endloop
  endfacet
  facet normal 0.125337 0.992114 -0
    outer loop
      vertex 2.81072 14.7343 -7
      vertex 0.941857 14.9704 0
      vertex 2.81072 14.7343 0
    endloop
  endfacet
  facet normal 0.125337 0.992114 0
    outer loop
      vertex 0.941857 14.9704 0
      vertex 2.81072 14.7343 -7
      vertex 0.941857 14.9704 -7
    endloop
  endfacet
  facet normal 0.587778 0.809022 -0
    outer loop
      vertex 9.56136 11.5577 -7
      vertex 8.0374 12.6649 0
      vertex 9.56136 11.5577 0
    endloop
  endfacet
  facet normal 0.587778 0.809022 0
    outer loop
      vertex 8.0374 12.6649 0
      vertex 9.56136 11.5577 -7
      vertex 8.0374 12.6649 -7
    endloop
  endfacet
  facet normal -0.844338 0.535811 0
    outer loop
      vertex -13.1446 7.22631 -7
      vertex -12.1353 8.81678 0
      vertex -12.1353 8.81678 -7
    endloop
  endfacet
  facet normal -0.844338 0.535811 0
    outer loop
      vertex -12.1353 8.81678 0
      vertex -13.1446 7.22631 -7
      vertex -13.1446 7.22631 0
    endloop
  endfacet
  facet normal -0.770492 0.63745 0
    outer loop
      vertex -12.1353 8.81678 -7
      vertex -10.9345 10.2682 0
      vertex -10.9345 10.2682 -7
    endloop
  endfacet
  facet normal -0.770492 0.63745 0
    outer loop
      vertex -10.9345 10.2682 0
      vertex -12.1353 8.81678 -7
      vertex -12.1353 8.81678 0
    endloop
  endfacet
  facet normal -0.982285 0.187395 0
    outer loop
      vertex -14.8817 1.88 -7
      vertex -14.5287 3.73035 0
      vertex -14.5287 3.73035 -7
    endloop
  endfacet
  facet normal -0.982285 0.187395 0
    outer loop
      vertex -14.5287 3.73035 0
      vertex -14.8817 1.88 -7
      vertex -14.8817 1.88 0
    endloop
  endfacet
  facet normal 0 0 1
    outer loop
      vertex 14.1 0 0
      vertex 15 0 0
      vertex 14.8817 1.88 0
    endloop
  endfacet
  facet normal 0 0 1
    outer loop
      vertex 13.9888 1.7672 0
      vertex 14.8817 1.88 0
      vertex 14.5287 3.73035 0
    endloop
  endfacet
  facet normal 0 0 1
    outer loop
      vertex 15 0 0
      vertex 14.1 0 0
      vertex 14.8817 -1.88 0
    endloop
  endfacet
  facet normal -0 0 1
    outer loop
      vertex 13.9888 -1.7672 0
      vertex 14.8817 -1.88 0
      vertex 14.1 0 0
    endloop
  endfacet
  facet normal 0 0 1
    outer loop
      vertex 14.8817 1.88 0
      vertex 13.9888 1.7672 0
      vertex 14.1 0 0
    endloop
  endfacet
  facet normal 0 0 1
    outer loop
      vertex 13.657 3.50653 0
      vertex 14.5287 3.73035 0
      vertex 13.9466 5.52187 0
    endloop
  endfacet
  facet normal 0 0 1
    outer loop
      vertex 14.5287 3.73035 0
      vertex 13.657 3.50653 0
      vertex 13.9888 1.7672 0
    endloop
  endfacet
  facet normal 0 0 1
    outer loop
      vertex 13.1098 5.19056 0
      vertex 13.9466 5.52187 0
      vertex 13.1446 7.22631 0
    endloop
  endfacet
  facet normal 0 0 1
    outer loop
      vertex 13.9466 5.52187 0
      vertex 13.1098 5.19056 0
      vertex 13.657 3.50653 0
    endloop
  endfacet
  facet normal 0 0 1
    outer loop
      vertex 13.1446 7.22631 0
      vertex 12.3559 6.79273 0
      vertex 13.1098 5.19056 0
    endloop
  endfacet
  facet normal 0 0 1
    outer loop
      vertex 12.1353 8.81678 0
      vertex 12.3559 6.79273 0
      vertex 13.1446 7.22631 0
    endloop
  endfacet
  facet normal 0 0 1
    outer loop
      vertex 12.1353 8.81678 0
      vertex 11.4071 8.28777 0
      vertex 12.3559 6.79273 0
    endloop
  endfacet
  facet normal 0 0 1
    outer loop
      vertex 10.9345 10.2682 0
      vertex 11.4071 8.28777 0
      vertex 12.1353 8.81678 0
    endloop
  endfacet
  facet normal 0 0 1
    outer loop
      vertex 10.9345 10.2682 0
      vertex 10.2785 9.65211 0
      vertex 11.4071 8.28777 0
    endloop
  endfacet
  facet normal 0 0 1
    outer loop
      vertex 9.56136 11.5577 0
      vertex 10.2785 9.65211 0
      vertex 10.9345 10.2682 0
    endloop
  endfacet
  facet normal 0 0 1
    outer loop
      vertex 9.56136 11.5577 0
      vertex 8.98768 10.8642 0
      vertex 10.2785 9.65211 0
    endloop
  endfacet
  facet normal 0 0 1
    outer loop
      vertex 8.0374 12.6649 0
      vertex 8.98768 10.8642 0
      vertex 9.56136 11.5577 0
    endloop
  endfacet
  facet normal 0 0 1
    outer loop
      vertex 8.0374 12.6649 0
      vertex 7.55516 11.905 0
      vertex 8.98768 10.8642 0
    endloop
  endfacet
  facet normal 0 0 1
    outer loop
      vertex 6.38669 13.5724 0
      vertex 7.55516 11.905 0
      vertex 8.0374 12.6649 0
    endloop
  endfacet
  facet normal 0 0 1
    outer loop
      vertex 6.38669 13.5724 0
      vertex 6.00349 12.7581 0
      vertex 7.55516 11.905 0
    endloop
  endfacet
  facet normal 0 0 1
    outer loop
      vertex 4.63525 14.2658 0
      vertex 6.00349 12.7581 0
      vertex 6.38669 13.5724 0
    endloop
  endfacet
  facet normal 0 0 1
    outer loop
      vertex 4.63525 14.2658 0
      vertex 4.35714 13.4099 0
      vertex 6.00349 12.7581 0
    endloop
  endfacet
  facet normal 0 0 1
    outer loop
      vertex 2.81072 14.7343 0
      vertex 4.35714 13.4099 0
      vertex 4.63525 14.2658 0
    endloop
  endfacet
  facet normal 0 0 1
    outer loop
      vertex 2.81072 14.7343 0
      vertex 2.64208 13.8502 0
      vertex 4.35714 13.4099 0
    endloop
  endfacet
  facet normal 0 0 1
    outer loop
      vertex 0.941857 14.9704 0
      vertex 2.64208 13.8502 0
      vertex 2.81072 14.7343 0
    endloop
  endfacet
  facet normal 0 0 1
    outer loop
      vertex 0.941857 14.9704 0
      vertex 0.885345 14.0722 0
      vertex 2.64208 13.8502 0
    endloop
  endfacet
  facet normal 0 0 1
    outer loop
      vertex 0.941857 14.9704 0
      vertex -0.885345 14.0722 0
      vertex 0.885345 14.0722 0
    endloop
  endfacet
  facet normal -0 0 1
    outer loop
      vertex -0.941857 14.9704 0
      vertex -0.885345 14.0722 0
      vertex 0.941857 14.9704 0
    endloop
  endfacet
  facet normal 0 0 1
    outer loop
      vertex -0.941857 14.9704 0
      vertex -2.64208 13.8502 0
      vertex -0.885345 14.0722 0
    endloop
  endfacet
  facet normal -0 0 1
    outer loop
      vertex -2.81072 14.7343 0
      vertex -2.64208 13.8502 0
      vertex -0.941857 14.9704 0
    endloop
  endfacet
  facet normal 0 0 1
    outer loop
      vertex -2.81072 14.7343 0
      vertex -4.35714 13.4099 0
      vertex -2.64208 13.8502 0
    endloop
  endfacet
  facet normal -0 0 1
    outer loop
      vertex -4.63525 14.2658 0
      vertex -4.35714 13.4099 0
      vertex -2.81072 14.7343 0
    endloop
  endfacet
  facet normal 0 0 1
    outer loop
      vertex -4.63525 14.2658 0
      vertex -6.00349 12.7581 0
      vertex -4.35714 13.4099 0
    endloop
  endfacet
  facet normal -0 0 1
    outer loop
      vertex -6.38669 13.5724 0
      vertex -6.00349 12.7581 0
      vertex -4.63525 14.2658 0
    endloop
  endfacet
  facet normal 0 0 1
    outer loop
      vertex -6.38669 13.5724 0
      vertex -7.55516 11.905 0
      vertex -6.00349 12.7581 0
    endloop
  endfacet
  facet normal -0 0 1
    outer loop
      vertex -8.0374 12.6649 0
      vertex -7.55516 11.905 0
      vertex -6.38669 13.5724 0
    endloop
  endfacet
  facet normal 0 0 1
    outer loop
      vertex -8.0374 12.6649 0
      vertex -8.98768 10.8642 0
      vertex -7.55516 11.905 0
    endloop
  endfacet
  facet normal -0 0 1
    outer loop
      vertex -9.56136 11.5577 0
      vertex -8.98768 10.8642 0
      vertex -8.0374 12.6649 0
    endloop
  endfacet
  facet normal 0 0 1
    outer loop
      vertex -9.56136 11.5577 0
      vertex -10.2785 9.65211 0
      vertex -8.98768 10.8642 0
    endloop
  endfacet
  facet normal -0 0 1
    outer loop
      vertex -10.9345 10.2682 0
      vertex -10.2785 9.65211 0
      vertex -9.56136 11.5577 0
    endloop
  endfacet
  facet normal 0 0 1
    outer loop
      vertex -10.9345 10.2682 0
      vertex -11.4071 8.28777 0
      vertex -10.2785 9.65211 0
    endloop
  endfacet
  facet normal -0 0 1
    outer loop
      vertex -12.1353 8.81678 0
      vertex -11.4071 8.28777 0
      vertex -10.9345 10.2682 0
    endloop
  endfacet
  facet normal 0 0 1
    outer loop
      vertex -12.1353 8.81678 0
      vertex -12.3559 6.79273 0
      vertex -11.4071 8.28777 0
    endloop
  endfacet
  facet normal -0 0 1
    outer loop
      vertex -13.1446 7.22631 0
      vertex -12.3559 6.79273 0
      vertex -12.1353 8.81678 0
    endloop
  endfacet
  facet normal 0 0 1
    outer loop
      vertex -12.3559 6.79273 0
      vertex -13.1446 7.22631 0
      vertex -13.1098 5.19056 0
    endloop
  endfacet
  facet normal -0 0 1
    outer loop
      vertex -13.9466 5.52187 0
      vertex -13.1098 5.19056 0
      vertex -13.1446 7.22631 0
    endloop
  endfacet
  facet normal 0 0 1
    outer loop
      vertex -13.1098 5.19056 0
      vertex -13.9466 5.52187 0
      vertex -13.657 3.50653 0
    endloop
  endfacet
  facet normal -0 0 1
    outer loop
      vertex -14.5287 3.73035 0
      vertex -13.657 3.50653 0
      vertex -13.9466 5.52187 0
    endloop
  endfacet
  facet normal 0 0 1
    outer loop
      vertex -13.657 3.50653 0
      vertex -14.5287 3.73035 0
      vertex -13.9888 1.7672 0
    endloop
  endfacet
  facet normal -0 0 1
    outer loop
      vertex -14.8817 1.88 0
      vertex -13.9888 1.7672 0
      vertex -14.5287 3.73035 0
    endloop
  endfacet
  facet normal 0 0 1
    outer loop
      vertex 14.8817 -1.88 0
      vertex 13.9888 -1.7672 0
      vertex 14.5287 -3.73035 0
    endloop
  endfacet
  facet normal -0 0 1
    outer loop
      vertex 13.657 -3.50653 0
      vertex 14.5287 -3.73035 0
      vertex 13.9888 -1.7672 0
    endloop
  endfacet
  facet normal 0 0 1
    outer loop
      vertex 14.5287 -3.73035 0
      vertex 13.657 -3.50653 0
      vertex 13.9466 -5.52187 0
    endloop
  endfacet
  facet normal -0 0 1
    outer loop
      vertex 13.1098 -5.19056 0
      vertex 13.9466 -5.52187 0
      vertex 13.657 -3.50653 0
    endloop
  endfacet
  facet normal 0 0 1
    outer loop
      vertex 13.9466 -5.52187 0
      vertex 13.1098 -5.19056 0
      vertex 13.1446 -7.22631 0
    endloop
  endfacet
  facet normal -0 0 1
    outer loop
      vertex 12.3559 -6.79273 0
      vertex 13.1446 -7.22631 0
      vertex 13.1098 -5.19056 0
    endloop
  endfacet
  facet normal 0 0 1
    outer loop
      vertex 12.3559 -6.79273 0
      vertex 12.1353 -8.81678 0
      vertex 13.1446 -7.22631 0
    endloop
  endfacet
  facet normal -0 0 1
    outer loop
      vertex 11.4071 -8.28777 0
      vertex 12.1353 -8.81678 0
      vertex 12.3559 -6.79273 0
    endloop
  endfacet
  facet normal 0 0 1
    outer loop
      vertex 11.4071 -8.28777 0
      vertex 10.9345 -10.2682 0
      vertex 12.1353 -8.81678 0
    endloop
  endfacet
  facet normal -0 0 1
    outer loop
      vertex 10.2785 -9.65211 0
      vertex 10.9345 -10.2682 0
      vertex 11.4071 -8.28777 0
    endloop
  endfacet
  facet normal 0 0 1
    outer loop
      vertex 10.2785 -9.65211 0
      vertex 9.56136 -11.5577 0
      vertex 10.9345 -10.2682 0
    endloop
  endfacet
  facet normal -0 0 1
    outer loop
      vertex 8.98768 -10.8642 0
      vertex 9.56136 -11.5577 0
      vertex 10.2785 -9.65211 0
    endloop
  endfacet
  facet normal 0 0 1
    outer loop
      vertex 8.98768 -10.8642 0
      vertex 8.0374 -12.6649 0
      vertex 9.56136 -11.5577 0
    endloop
  endfacet
  facet normal -0 0 1
    outer loop
      vertex 7.55516 -11.905 0
      vertex 8.0374 -12.6649 0
      vertex 8.98768 -10.8642 0
    endloop
  endfacet
  facet normal 0 0 1
    outer loop
      vertex 7.55516 -11.905 0
      vertex 6.38669 -13.5724 0
      vertex 8.0374 -12.6649 0
    endloop
  endfacet
  facet normal -0 0 1
    outer loop
      vertex 6.00349 -12.7581 0
      vertex 6.38669 -13.5724 0
      vertex 7.55516 -11.905 0
    endloop
  endfacet
  facet normal 0 0 1
    outer loop
      vertex 6.00349 -12.7581 0
      vertex 4.63525 -14.2658 0
      vertex 6.38669 -13.5724 0
    endloop
  endfacet
  facet normal -0 0 1
    outer loop
      vertex 4.35714 -13.4099 0
      vertex 4.63525 -14.2658 0
      vertex 6.00349 -12.7581 0
    endloop
  endfacet
  facet normal 0 0 1
    outer loop
      vertex 4.35714 -13.4099 0
      vertex 2.81072 -14.7343 0
      vertex 4.63525 -14.2658 0
    endloop
  endfacet
  facet normal -0 0 1
    outer loop
      vertex 2.64208 -13.8502 0
      vertex 2.81072 -14.7343 0
      vertex 4.35714 -13.4099 0
    endloop
  endfacet
  facet normal 0 0 1
    outer loop
      vertex 2.64208 -13.8502 0
      vertex 0.941857 -14.9704 0
      vertex 2.81072 -14.7343 0
    endloop
  endfacet
  facet normal -0 0 1
    outer loop
      vertex 0.885345 -14.0722 0
      vertex 0.941857 -14.9704 0
      vertex 2.64208 -13.8502 0
    endloop
  endfacet
  facet normal -0 0 1
    outer loop
      vertex -0.885345 -14.0722 0
      vertex 0.941857 -14.9704 0
      vertex 0.885345 -14.0722 0
    endloop
  endfacet
  facet normal 0 0 1
    outer loop
      vertex -0.885345 -14.0722 0
      vertex -0.941857 -14.9704 0
      vertex 0.941857 -14.9704 0
    endloop
  endfacet
  facet normal 0 0 1
    outer loop
      vertex -2.64208 -13.8502 0
      vertex -0.941857 -14.9704 0
      vertex -0.885345 -14.0722 0
    endloop
  endfacet
  facet normal 0 0 1
    outer loop
      vertex -2.64208 -13.8502 0
      vertex -2.81072 -14.7343 0
      vertex -0.941857 -14.9704 0
    endloop
  endfacet
  facet normal 0 0 1
    outer loop
      vertex -4.35714 -13.4099 0
      vertex -2.81072 -14.7343 0
      vertex -2.64208 -13.8502 0
    endloop
  endfacet
  facet normal 0 0 1
    outer loop
      vertex -4.35714 -13.4099 0
      vertex -4.63525 -14.2658 0
      vertex -2.81072 -14.7343 0
    endloop
  endfacet
  facet normal 0 0 1
    outer loop
      vertex -6.00349 -12.7581 0
      vertex -4.63525 -14.2658 0
      vertex -4.35714 -13.4099 0
    endloop
  endfacet
  facet normal 0 0 1
    outer loop
      vertex -6.00349 -12.7581 0
      vertex -6.38669 -13.5724 0
      vertex -4.63525 -14.2658 0
    endloop
  endfacet
  facet normal 0 0 1
    outer loop
      vertex -7.55516 -11.905 0
      vertex -6.38669 -13.5724 0
      vertex -6.00349 -12.7581 0
    endloop
  endfacet
  facet normal 0 0 1
    outer loop
      vertex -7.55516 -11.905 0
      vertex -8.0374 -12.6649 0
      vertex -6.38669 -13.5724 0
    endloop
  endfacet
  facet normal 0 0 1
    outer loop
      vertex -8.98768 -10.8642 0
      vertex -8.0374 -12.6649 0
      vertex -7.55516 -11.905 0
    endloop
  endfacet
  facet normal 0 0 1
    outer loop
      vertex -8.98768 -10.8642 0
      vertex -9.56136 -11.5577 0
      vertex -8.0374 -12.6649 0
    endloop
  endfacet
  facet normal 0 0 1
    outer loop
      vertex -10.2785 -9.65211 0
      vertex -9.56136 -11.5577 0
      vertex -8.98768 -10.8642 0
    endloop
  endfacet
  facet normal 0 0 1
    outer loop
      vertex -10.2785 -9.65211 0
      vertex -10.9345 -10.2682 0
      vertex -9.56136 -11.5577 0
    endloop
  endfacet
  facet normal 0 0 1
    outer loop
      vertex -11.4071 -8.28777 0
      vertex -10.9345 -10.2682 0
      vertex -10.2785 -9.65211 0
    endloop
  endfacet
  facet normal 0 0 1
    outer loop
      vertex -11.4071 -8.28777 0
      vertex -12.1353 -8.81678 0
      vertex -10.9345 -10.2682 0
    endloop
  endfacet
  facet normal 0 0 1
    outer loop
      vertex -12.3559 -6.79273 0
      vertex -12.1353 -8.81678 0
      vertex -11.4071 -8.28777 0
    endloop
  endfacet
  facet normal 0 0 1
    outer loop
      vertex -13.1446 -7.22631 0
      vertex -12.3559 -6.79273 0
      vertex -13.1098 -5.19056 0
    endloop
  endfacet
  facet normal 0 0 1
    outer loop
      vertex -12.3559 -6.79273 0
      vertex -13.1446 -7.22631 0
      vertex -12.1353 -8.81678 0
    endloop
  endfacet
  facet normal 0 0 1
    outer loop
      vertex -13.9466 -5.52187 0
      vertex -13.1098 -5.19056 0
      vertex -13.657 -3.50653 0
    endloop
  endfacet
  facet normal 0 0 1
    outer loop
      vertex -13.1098 -5.19056 0
      vertex -13.9466 -5.52187 0
      vertex -13.1446 -7.22631 0
    endloop
  endfacet
  facet normal 0 0 1
    outer loop
      vertex -14.5287 -3.73035 0
      vertex -13.657 -3.50653 0
      vertex -13.9888 -1.7672 0
    endloop
  endfacet
  facet normal 0 0 1
    outer loop
      vertex -14.8817 -1.88 0
      vertex -13.9888 -1.7672 0
      vertex -14.1 0 0
    endloop
  endfacet
  facet normal 0 0 1
    outer loop
      vertex -13.9888 1.7672 0
      vertex -14.8817 1.88 0
      vertex -14.1 0 0
    endloop
  endfacet
  facet normal 0 0 1
    outer loop
      vertex -13.657 -3.50653 0
      vertex -14.5287 -3.73035 0
      vertex -13.9466 -5.52187 0
    endloop
  endfacet
  facet normal 0 0 1
    outer loop
      vertex -15 0 0
      vertex -14.1 0 0
      vertex -14.8817 1.88 0
    endloop
  endfacet
  facet normal 0 0 1
    outer loop
      vertex -13.9888 -1.7672 0
      vertex -14.8817 -1.88 0
      vertex -14.5287 -3.73035 0
    endloop
  endfacet
  facet normal 0 0 1
    outer loop
      vertex -14.1 0 0
      vertex -15 0 0
      vertex -14.8817 -1.88 0
    endloop
  endfacet
  facet normal -0.48176 0.876303 0
    outer loop
      vertex -6.38669 13.5724 -7
      vertex -8.0374 12.6649 0
      vertex -6.38669 13.5724 0
    endloop
  endfacet
  facet normal -0.48176 0.876303 0
    outer loop
      vertex -8.0374 12.6649 0
      vertex -6.38669 13.5724 -7
      vertex -8.0374 12.6649 -7
    endloop
  endfacet
  facet normal -0.587778 0.809022 0
    outer loop
      vertex -8.0374 12.6649 -7
      vertex -9.56136 11.5577 0
      vertex -8.0374 12.6649 0
    endloop
  endfacet
  facet normal -0.587778 0.809022 0
    outer loop
      vertex -9.56136 11.5577 0
      vertex -8.0374 12.6649 -7
      vertex -9.56136 11.5577 -7
    endloop
  endfacet
  facet normal -0.125337 0.992114 0
    outer loop
      vertex -0.941857 14.9704 -7
      vertex -2.81072 14.7343 0
      vertex -0.941857 14.9704 0
    endloop
  endfacet
  facet normal -0.125337 0.992114 0
    outer loop
      vertex -2.81072 14.7343 0
      vertex -0.941857 14.9704 -7
      vertex -2.81072 14.7343 -7
    endloop
  endfacet
  facet normal 0.998026 -0.0628013 0
    outer loop
      vertex 14.8817 -1.88 0
      vertex 15 0 -7
      vertex 15 0 0
    endloop
  endfacet
  facet normal 0.998026 -0.0628013 0
    outer loop
      vertex 15 0 -7
      vertex 14.8817 -1.88 0
      vertex 14.8817 -1.88 -7
    endloop
  endfacet
  facet normal 0.770492 -0.63745 0
    outer loop
      vertex 10.9345 -10.2682 0
      vertex 12.1353 -8.81678 -7
      vertex 12.1353 -8.81678 0
    endloop
  endfacet
  facet normal 0.770492 -0.63745 0
    outer loop
      vertex 12.1353 -8.81678 -7
      vertex 10.9345 -10.2682 0
      vertex 10.9345 -10.2682 -7
    endloop
  endfacet
  facet normal 0.904837 -0.425758 0
    outer loop
      vertex 13.1446 -7.22631 0
      vertex 13.9466 -5.52187 -7
      vertex 13.9466 -5.52187 0
    endloop
  endfacet
  facet normal 0.904837 -0.425758 0
    outer loop
      vertex 13.9466 -5.52187 -7
      vertex 13.1446 -7.22631 0
      vertex 13.1446 -7.22631 -7
    endloop
  endfacet
  facet normal 0.982285 -0.187395 0
    outer loop
      vertex 14.5287 -3.73035 0
      vertex 14.8817 -1.88 -7
      vertex 14.8817 -1.88 0
    endloop
  endfacet
  facet normal 0.982285 -0.187395 0
    outer loop
      vertex 14.8817 -1.88 -7
      vertex 14.5287 -3.73035 0
      vertex 14.5287 -3.73035 -7
    endloop
  endfacet
  facet normal 0 0 -1
    outer loop
      vertex 14.8817 -1.88 -7
      vertex 14.8817 1.88 -7
      vertex 15 0 -7
    endloop
  endfacet
  facet normal 0 0 -1
    outer loop
      vertex 14.5287 -3.73035 -7
      vertex 14.8817 1.88 -7
      vertex 14.8817 -1.88 -7
    endloop
  endfacet
  facet normal 0 0 -1
    outer loop
      vertex 14.5287 -3.73035 -7
      vertex 14.5287 3.73035 -7
      vertex 14.8817 1.88 -7
    endloop
  endfacet
  facet normal 0 0 -1
    outer loop
      vertex 13.9466 -5.52187 -7
      vertex 14.5287 3.73035 -7
      vertex 14.5287 -3.73035 -7
    endloop
  endfacet
  facet normal 0 0 -1
    outer loop
      vertex 13.9466 -5.52187 -7
      vertex 13.9466 5.52187 -7
      vertex 14.5287 3.73035 -7
    endloop
  endfacet
  facet normal 0 0 -1
    outer loop
      vertex 13.1446 -7.22631 -7
      vertex 13.9466 5.52187 -7
      vertex 13.9466 -5.52187 -7
    endloop
  endfacet
  facet normal 0 0 -1
    outer loop
      vertex 13.1446 -7.22631 -7
      vertex 13.1446 7.22631 -7
      vertex 13.9466 5.52187 -7
    endloop
  endfacet
  facet normal 0 0 -1
    outer loop
      vertex 12.1353 -8.81678 -7
      vertex 13.1446 7.22631 -7
      vertex 13.1446 -7.22631 -7
    endloop
  endfacet
  facet normal 0 0 -1
    outer loop
      vertex 12.1353 -8.81678 -7
      vertex 12.1353 8.81678 -7
      vertex 13.1446 7.22631 -7
    endloop
  endfacet
  facet normal 0 0 -1
    outer loop
      vertex 10.9345 -10.2682 -7
      vertex 12.1353 8.81678 -7
      vertex 12.1353 -8.81678 -7
    endloop
  endfacet
  facet normal 0 0 -1
    outer loop
      vertex 10.9345 -10.2682 -7
      vertex 10.9345 10.2682 -7
      vertex 12.1353 8.81678 -7
    endloop
  endfacet
  facet normal 0 0 -1
    outer loop
      vertex 9.56136 -11.5577 -7
      vertex 10.9345 10.2682 -7
      vertex 10.9345 -10.2682 -7
    endloop
  endfacet
  facet normal 0 0 -1
    outer loop
      vertex 9.56136 -11.5577 -7
      vertex 9.56136 11.5577 -7
      vertex 10.9345 10.2682 -7
    endloop
  endfacet
  facet normal 0 0 -1
    outer loop
      vertex 8.0374 -12.6649 -7
      vertex 9.56136 11.5577 -7
      vertex 9.56136 -11.5577 -7
    endloop
  endfacet
  facet normal 0 0 -1
    outer loop
      vertex 8.0374 -12.6649 -7
      vertex 8.0374 12.6649 -7
      vertex 9.56136 11.5577 -7
    endloop
  endfacet
  facet normal 0 0 -1
    outer loop
      vertex 6.38669 -13.5724 -7
      vertex 8.0374 12.6649 -7
      vertex 8.0374 -12.6649 -7
    endloop
  endfacet
  facet normal 0 0 -1
    outer loop
      vertex 6.38669 -13.5724 -7
      vertex 6.38669 13.5724 -7
      vertex 8.0374 12.6649 -7
    endloop
  endfacet
  facet normal 0 0 -1
    outer loop
      vertex 4.63525 -14.2658 -7
      vertex 6.38669 13.5724 -7
      vertex 6.38669 -13.5724 -7
    endloop
  endfacet
  facet normal 0 0 -1
    outer loop
      vertex 4.63525 -14.2658 -7
      vertex 4.63525 14.2658 -7
      vertex 6.38669 13.5724 -7
    endloop
  endfacet
  facet normal 0 0 -1
    outer loop
      vertex 2.81072 -14.7343 -7
      vertex 4.63525 14.2658 -7
      vertex 4.63525 -14.2658 -7
    endloop
  endfacet
  facet normal 0 0 -1
    outer loop
      vertex 2.81072 -14.7343 -7
      vertex 2.81072 14.7343 -7
      vertex 4.63525 14.2658 -7
    endloop
  endfacet
  facet normal 0 0 -1
    outer loop
      vertex 0.941857 -14.9704 -7
      vertex 2.81072 14.7343 -7
      vertex 2.81072 -14.7343 -7
    endloop
  endfacet
  facet normal 0 0 -1
    outer loop
      vertex 0.941857 -14.9704 -7
      vertex 0.941857 14.9704 -7
      vertex 2.81072 14.7343 -7
    endloop
  endfacet
  facet normal 0 0 -1
    outer loop
      vertex -0.941857 -14.9704 -7
      vertex 0.941857 14.9704 -7
      vertex 0.941857 -14.9704 -7
    endloop
  endfacet
  facet normal 0 0 -1
    outer loop
      vertex -0.941857 -14.9704 -7
      vertex -0.941857 14.9704 -7
      vertex 0.941857 14.9704 -7
    endloop
  endfacet
  facet normal 0 0 -1
    outer loop
      vertex -2.81072 -14.7343 -7
      vertex -0.941857 14.9704 -7
      vertex -0.941857 -14.9704 -7
    endloop
  endfacet
  facet normal 0 0 -1
    outer loop
      vertex -2.81072 -14.7343 -7
      vertex -2.81072 14.7343 -7
      vertex -0.941857 14.9704 -7
    endloop
  endfacet
  facet normal 0 0 -1
    outer loop
      vertex -4.63525 -14.2658 -7
      vertex -2.81072 14.7343 -7
      vertex -2.81072 -14.7343 -7
    endloop
  endfacet
  facet normal 0 0 -1
    outer loop
      vertex -4.63525 -14.2658 -7
      vertex -4.63525 14.2658 -7
      vertex -2.81072 14.7343 -7
    endloop
  endfacet
  facet normal 0 0 -1
    outer loop
      vertex -6.38669 -13.5724 -7
      vertex -4.63525 14.2658 -7
      vertex -4.63525 -14.2658 -7
    endloop
  endfacet
  facet normal 0 0 -1
    outer loop
      vertex -6.38669 -13.5724 -7
      vertex -6.38669 13.5724 -7
      vertex -4.63525 14.2658 -7
    endloop
  endfacet
  facet normal 0 0 -1
    outer loop
      vertex -8.0374 -12.6649 -7
      vertex -6.38669 13.5724 -7
      vertex -6.38669 -13.5724 -7
    endloop
  endfacet
  facet normal 0 0 -1
    outer loop
      vertex -8.0374 -12.6649 -7
      vertex -8.0374 12.6649 -7
      vertex -6.38669 13.5724 -7
    endloop
  endfacet
  facet normal 0 0 -1
    outer loop
      vertex -9.56136 -11.5577 -7
      vertex -8.0374 12.6649 -7
      vertex -8.0374 -12.6649 -7
    endloop
  endfacet
  facet normal 0 0 -1
    outer loop
      vertex -9.56136 -11.5577 -7
      vertex -9.56136 11.5577 -7
      vertex -8.0374 12.6649 -7
    endloop
  endfacet
  facet normal 0 0 -1
    outer loop
      vertex -10.9345 -10.2682 -7
      vertex -9.56136 11.5577 -7
      vertex -9.56136 -11.5577 -7
    endloop
  endfacet
  facet normal 0 0 -1
    outer loop
      vertex -10.9345 -10.2682 -7
      vertex -10.9345 10.2682 -7
      vertex -9.56136 11.5577 -7
    endloop
  endfacet
  facet normal 0 0 -1
    outer loop
      vertex -12.1353 -8.81678 -7
      vertex -10.9345 10.2682 -7
      vertex -10.9345 -10.2682 -7
    endloop
  endfacet
  facet normal 0 0 -1
    outer loop
      vertex -12.1353 -8.81678 -7
      vertex -12.1353 8.81678 -7
      vertex -10.9345 10.2682 -7
    endloop
  endfacet
  facet normal 0 0 -1
    outer loop
      vertex -13.1446 -7.22631 -7
      vertex -12.1353 8.81678 -7
      vertex -12.1353 -8.81678 -7
    endloop
  endfacet
  facet normal 0 0 -1
    outer loop
      vertex -13.1446 -7.22631 -7
      vertex -13.1446 7.22631 -7
      vertex -12.1353 8.81678 -7
    endloop
  endfacet
  facet normal 0 0 -1
    outer loop
      vertex -13.9466 -5.52187 -7
      vertex -13.1446 7.22631 -7
      vertex -13.1446 -7.22631 -7
    endloop
  endfacet
  facet normal 0 0 -1
    outer loop
      vertex -13.9466 -5.52187 -7
      vertex -13.9466 5.52187 -7
      vertex -13.1446 7.22631 -7
    endloop
  endfacet
  facet normal 0 0 -1
    outer loop
      vertex -14.5287 -3.73035 -7
      vertex -13.9466 5.52187 -7
      vertex -13.9466 -5.52187 -7
    endloop
  endfacet
  facet normal 0 0 -1
    outer loop
      vertex -14.5287 -3.73035 -7
      vertex -14.5287 3.73035 -7
      vertex -13.9466 5.52187 -7
    endloop
  endfacet
  facet normal 0 0 -1
    outer loop
      vertex -14.8817 -1.88 -7
      vertex -14.5287 3.73035 -7
      vertex -14.5287 -3.73035 -7
    endloop
  endfacet
  facet normal 0 0 -1
    outer loop
      vertex -14.8817 -1.88 -7
      vertex -14.8817 1.88 -7
      vertex -14.5287 3.73035 -7
    endloop
  endfacet
  facet normal 0 -0 -1
    outer loop
      vertex -14.8817 1.88 -7
      vertex -14.8817 -1.88 -7
      vertex -15 0 -7
    endloop
  endfacet
  facet normal 0.684557 -0.728959 0
    outer loop
      vertex 9.56136 -11.5577 -7
      vertex 10.9345 -10.2682 0
      vertex 9.56136 -11.5577 0
    endloop
  endfacet
  facet normal 0.684557 -0.728959 0
    outer loop
      vertex 10.9345 -10.2682 0
      vertex 9.56136 -11.5577 -7
      vertex 10.9345 -10.2682 -7
    endloop
  endfacet
  facet normal 0.844338 -0.535811 0
    outer loop
      vertex 12.1353 -8.81678 0
      vertex 13.1446 -7.22631 -7
      vertex 13.1446 -7.22631 0
    endloop
  endfacet
  facet normal 0.844338 -0.535811 0
    outer loop
      vertex 13.1446 -7.22631 -7
      vertex 12.1353 -8.81678 0
      vertex 12.1353 -8.81678 -7
    endloop
  endfacet
  facet normal -0.844338 -0.535811 0
    outer loop
      vertex -12.1353 -8.81678 -7
      vertex -13.1446 -7.22631 0
      vertex -13.1446 -7.22631 -7
    endloop
  endfacet
  facet normal -0.844338 -0.535811 0
    outer loop
      vertex -13.1446 -7.22631 0
      vertex -12.1353 -8.81678 -7
      vertex -12.1353 -8.81678 0
    endloop
  endfacet
  facet normal -0.951057 -0.309017 0
    outer loop
      vertex -13.9466 -5.52187 -7
      vertex -14.5287 -3.73035 0
      vertex -14.5287 -3.73035 -7
    endloop
  endfacet
  facet normal -0.951057 -0.309017 0
    outer loop
      vertex -14.5287 -3.73035 0
      vertex -13.9466 -5.52187 -7
      vertex -13.9466 -5.52187 0
    endloop
  endfacet
  facet normal 0.368104 -0.929785 0
    outer loop
      vertex 4.63525 -14.2658 -7
      vertex 6.38669 -13.5724 0
      vertex 4.63525 -14.2658 0
    endloop
  endfacet
  facet normal 0.368104 -0.929785 0
    outer loop
      vertex 6.38669 -13.5724 0
      vertex 4.63525 -14.2658 -7
      vertex 6.38669 -13.5724 -7
    endloop
  endfacet
  facet normal 0.24871 -0.968578 0
    outer loop
      vertex 2.81072 -14.7343 -7
      vertex 4.63525 -14.2658 0
      vertex 2.81072 -14.7343 0
    endloop
  endfacet
  facet normal 0.24871 -0.968578 0
    outer loop
      vertex 4.63525 -14.2658 0
      vertex 2.81072 -14.7343 -7
      vertex 4.63525 -14.2658 -7
    endloop
  endfacet
  facet normal 0.125337 -0.992114 0
    outer loop
      vertex 0.941857 -14.9704 -7
      vertex 2.81072 -14.7343 0
      vertex 0.941857 -14.9704 0
    endloop
  endfacet
  facet normal 0.125337 -0.992114 0
    outer loop
      vertex 2.81072 -14.7343 0
      vertex 0.941857 -14.9704 -7
      vertex 2.81072 -14.7343 -7
    endloop
  endfacet
  facet normal -0.368104 -0.929785 0
    outer loop
      vertex -6.38669 -13.5724 -7
      vertex -4.63525 -14.2658 0
      vertex -6.38669 -13.5724 0
    endloop
  endfacet
  facet normal -0.368104 -0.929785 -0
    outer loop
      vertex -4.63525 -14.2658 0
      vertex -6.38669 -13.5724 -7
      vertex -4.63525 -14.2658 -7
    endloop
  endfacet
  facet normal -0.24871 -0.968578 0
    outer loop
      vertex -4.63525 -14.2658 -7
      vertex -2.81072 -14.7343 0
      vertex -4.63525 -14.2658 0
    endloop
  endfacet
  facet normal -0.24871 -0.968578 -0
    outer loop
      vertex -2.81072 -14.7343 0
      vertex -4.63525 -14.2658 -7
      vertex -2.81072 -14.7343 -7
    endloop
  endfacet
  facet normal -0.684557 -0.728959 0
    outer loop
      vertex -10.9345 -10.2682 -7
      vertex -9.56136 -11.5577 0
      vertex -10.9345 -10.2682 0
    endloop
  endfacet
  facet normal -0.684557 -0.728959 -0
    outer loop
      vertex -9.56136 -11.5577 0
      vertex -10.9345 -10.2682 -7
      vertex -9.56136 -11.5577 -7
    endloop
  endfacet
  facet normal -0.770492 -0.63745 0
    outer loop
      vertex -10.9345 -10.2682 -7
      vertex -12.1353 -8.81678 0
      vertex -12.1353 -8.81678 -7
    endloop
  endfacet
  facet normal -0.770492 -0.63745 0
    outer loop
      vertex -12.1353 -8.81678 0
      vertex -10.9345 -10.2682 -7
      vertex -10.9345 -10.2682 0
    endloop
  endfacet
  facet normal -0.904837 -0.425758 0
    outer loop
      vertex -13.1446 -7.22631 -7
      vertex -13.9466 -5.52187 0
      vertex -13.9466 -5.52187 -7
    endloop
  endfacet
  facet normal -0.904837 -0.425758 0
    outer loop
      vertex -13.9466 -5.52187 0
      vertex -13.1446 -7.22631 -7
      vertex -13.1446 -7.22631 0
    endloop
  endfacet
  facet normal -0.982285 -0.187395 0
    outer loop
      vertex -14.5287 -3.73035 -7
      vertex -14.8817 -1.88 0
      vertex -14.8817 -1.88 -7
    endloop
  endfacet
  facet normal -0.982285 -0.187395 0
    outer loop
      vertex -14.8817 -1.88 0
      vertex -14.5287 -3.73035 -7
      vertex -14.5287 -3.73035 0
    endloop
  endfacet
  facet normal -0.998026 -0.0628013 0
    outer loop
      vertex -14.8817 -1.88 -7
      vertex -15 0 0
      vertex -15 0 -7
    endloop
  endfacet
  facet normal -0.998026 -0.0628013 0
    outer loop
      vertex -15 0 0
      vertex -14.8817 -1.88 -7
      vertex -14.8817 -1.88 0
    endloop
  endfacet
  facet normal 0.587778 -0.809022 0
    outer loop
      vertex 8.0374 -12.6649 -7
      vertex 9.56136 -11.5577 0
      vertex 8.0374 -12.6649 0
    endloop
  endfacet
  facet normal 0.587778 -0.809022 0
    outer loop
      vertex 9.56136 -11.5577 0
      vertex 8.0374 -12.6649 -7
      vertex 9.56136 -11.5577 -7
    endloop
  endfacet
  facet normal 0.48176 -0.876303 0
    outer loop
      vertex 6.38669 -13.5724 -7
      vertex 8.0374 -12.6649 0
      vertex 6.38669 -13.5724 0
    endloop
  endfacet
  facet normal 0.48176 -0.876303 0
    outer loop
      vertex 8.0374 -12.6649 0
      vertex 6.38669 -13.5724 -7
      vertex 8.0374 -12.6649 -7
    endloop
  endfacet
  facet normal -0.587778 -0.809022 0
    outer loop
      vertex -9.56136 -11.5577 -7
      vertex -8.0374 -12.6649 0
      vertex -9.56136 -11.5577 0
    endloop
  endfacet
  facet normal -0.587778 -0.809022 -0
    outer loop
      vertex -8.0374 -12.6649 0
      vertex -9.56136 -11.5577 -7
      vertex -8.0374 -12.6649 -7
    endloop
  endfacet
  facet normal -0.125337 -0.992114 0
    outer loop
      vertex -2.81072 -14.7343 -7
      vertex -0.941857 -14.9704 0
      vertex -2.81072 -14.7343 0
    endloop
  endfacet
  facet normal -0.125337 -0.992114 -0
    outer loop
      vertex -0.941857 -14.9704 0
      vertex -2.81072 -14.7343 -7
      vertex -0.941857 -14.9704 -7
    endloop
  endfacet
  facet normal -0.48176 -0.876303 0
    outer loop
      vertex -8.0374 -12.6649 -7
      vertex -6.38669 -13.5724 0
      vertex -8.0374 -12.6649 0
    endloop
  endfacet
  facet normal -0.48176 -0.876303 -0
    outer loop
      vertex -6.38669 -13.5724 0
      vertex -8.0374 -12.6649 -7
      vertex -6.38669 -13.5724 -7
    endloop
  endfacet
  facet normal -0.998026 -0.0628002 0
    outer loop
      vertex 14.1 0 -6
      vertex 13.9888 1.7672 0
      vertex 13.9888 1.7672 -6
    endloop
  endfacet
  facet normal -0.998026 -0.0628002 0
    outer loop
      vertex 13.9888 1.7672 0
      vertex 14.1 0 -6
      vertex 14.1 0 0
    endloop
  endfacet
  facet normal 0.998026 -0.0628002 0
    outer loop
      vertex -14.1 0 0
      vertex -13.9888 1.7672 -6
      vertex -13.9888 1.7672 0
    endloop
  endfacet
  facet normal 0.998026 -0.0628002 0
    outer loop
      vertex -13.9888 1.7672 -6
      vertex -14.1 0 0
      vertex -14.1 0 -6
    endloop
  endfacet
  facet normal 0 -1 0
    outer loop
      vertex -0.885345 14.0722 -6
      vertex 0.885345 14.0722 0
      vertex -0.885345 14.0722 0
    endloop
  endfacet
  facet normal 0 -1 -0
    outer loop
      vertex 0.885345 14.0722 0
      vertex -0.885345 14.0722 -6
      vertex 0.885345 14.0722 -6
    endloop
  endfacet
  facet normal 0 1 -0
    outer loop
      vertex 0.885345 -14.0722 -6
      vertex -0.885345 -14.0722 0
      vertex 0.885345 -14.0722 0
    endloop
  endfacet
  facet normal 0 1 0
    outer loop
      vertex -0.885345 -14.0722 0
      vertex 0.885345 -14.0722 -6
      vertex -0.885345 -14.0722 -6
    endloop
  endfacet
  facet normal -0.684526 0.728989 0
    outer loop
      vertex 10.2785 -9.65211 -6
      vertex 8.98768 -10.8642 0
      vertex 10.2785 -9.65211 0
    endloop
  endfacet
  facet normal -0.684526 0.728989 0
    outer loop
      vertex 8.98768 -10.8642 0
      vertex 10.2785 -9.65211 -6
      vertex 8.98768 -10.8642 -6
    endloop
  endfacet
  facet normal -0.684526 -0.728989 0
    outer loop
      vertex 8.98768 10.8642 -6
      vertex 10.2785 9.65211 0
      vertex 8.98768 10.8642 0
    endloop
  endfacet
  facet normal -0.684526 -0.728989 -0
    outer loop
      vertex 10.2785 9.65211 0
      vertex 8.98768 10.8642 -6
      vertex 10.2785 9.65211 -6
    endloop
  endfacet
  facet normal 0.684526 -0.728989 0
    outer loop
      vertex -10.2785 9.65211 -6
      vertex -8.98768 10.8642 0
      vertex -10.2785 9.65211 0
    endloop
  endfacet
  facet normal 0.684526 -0.728989 0
    outer loop
      vertex -8.98768 10.8642 0
      vertex -10.2785 9.65211 -6
      vertex -8.98768 10.8642 -6
    endloop
  endfacet
  facet normal 0.368107 -0.929783 0
    outer loop
      vertex -6.00349 12.7581 -6
      vertex -4.35714 13.4099 0
      vertex -6.00349 12.7581 0
    endloop
  endfacet
  facet normal 0.368107 -0.929783 0
    outer loop
      vertex -4.35714 13.4099 0
      vertex -6.00349 12.7581 -6
      vertex -4.35714 13.4099 -6
    endloop
  endfacet
  facet normal -0.904832 -0.425768 0
    outer loop
      vertex 13.1098 5.19056 -6
      vertex 12.3559 6.79273 0
      vertex 12.3559 6.79273 -6
    endloop
  endfacet
  facet normal -0.904832 -0.425768 0
    outer loop
      vertex 12.3559 6.79273 0
      vertex 13.1098 5.19056 -6
      vertex 13.1098 5.19056 0
    endloop
  endfacet
  facet normal -0.982287 -0.187384 0
    outer loop
      vertex 13.9888 1.7672 -6
      vertex 13.657 3.50653 0
      vertex 13.657 3.50653 -6
    endloop
  endfacet
  facet normal -0.982287 -0.187384 0
    outer loop
      vertex 13.657 3.50653 0
      vertex 13.9888 1.7672 -6
      vertex 13.9888 1.7672 0
    endloop
  endfacet
  facet normal -0.368107 -0.929783 0
    outer loop
      vertex 4.35714 13.4099 -6
      vertex 6.00349 12.7581 0
      vertex 4.35714 13.4099 0
    endloop
  endfacet
  facet normal -0.368107 -0.929783 -0
    outer loop
      vertex 6.00349 12.7581 0
      vertex 4.35714 13.4099 -6
      vertex 6.00349 12.7581 -6
    endloop
  endfacet
  facet normal -0.58779 -0.809013 0
    outer loop
      vertex 7.55516 11.905 -6
      vertex 8.98768 10.8642 0
      vertex 7.55516 11.905 0
    endloop
  endfacet
  facet normal -0.58779 -0.809013 -0
    outer loop
      vertex 8.98768 10.8642 0
      vertex 7.55516 11.905 -6
      vertex 8.98768 10.8642 -6
    endloop
  endfacet
  facet normal 0.904832 -0.425768 0
    outer loop
      vertex -13.1098 5.19056 0
      vertex -12.3559 6.79273 -6
      vertex -12.3559 6.79273 0
    endloop
  endfacet
  facet normal 0.904832 -0.425768 0
    outer loop
      vertex -12.3559 6.79273 -6
      vertex -13.1098 5.19056 0
      vertex -13.1098 5.19056 -6
    endloop
  endfacet
  facet normal 0.481781 -0.876292 0
    outer loop
      vertex -7.55516 11.905 -6
      vertex -6.00349 12.7581 0
      vertex -7.55516 11.905 0
    endloop
  endfacet
  facet normal 0.481781 -0.876292 0
    outer loop
      vertex -6.00349 12.7581 0
      vertex -7.55516 11.905 -6
      vertex -6.00349 12.7581 -6
    endloop
  endfacet
  facet normal 0.248662 -0.96859 0
    outer loop
      vertex -4.35714 13.4099 -6
      vertex -2.64208 13.8502 0
      vertex -4.35714 13.4099 0
    endloop
  endfacet
  facet normal 0.248662 -0.96859 0
    outer loop
      vertex -2.64208 13.8502 0
      vertex -4.35714 13.4099 -6
      vertex -2.64208 13.8502 -6
    endloop
  endfacet
  facet normal -0.982287 0.187384 0
    outer loop
      vertex 13.657 -3.50653 -6
      vertex 13.9888 -1.7672 0
      vertex 13.9888 -1.7672 -6
    endloop
  endfacet
  facet normal -0.982287 0.187384 0
    outer loop
      vertex 13.9888 -1.7672 0
      vertex 13.657 -3.50653 -6
      vertex 13.657 -3.50653 0
    endloop
  endfacet
  facet normal 0 0 1
    outer loop
      vertex 13.9888 1.7672 -6
      vertex 13.9888 -1.7672 -6
      vertex 14.1 0 -6
    endloop
  endfacet
  facet normal 0 0 1
    outer loop
      vertex 13.657 3.50653 -6
      vertex 13.9888 -1.7672 -6
      vertex 13.9888 1.7672 -6
    endloop
  endfacet
  facet normal 0 0 1
    outer loop
      vertex 13.657 3.50653 -6
      vertex 13.657 -3.50653 -6
      vertex 13.9888 -1.7672 -6
    endloop
  endfacet
  facet normal 0 0 1
    outer loop
      vertex 13.1098 5.19056 -6
      vertex 13.657 -3.50653 -6
      vertex 13.657 3.50653 -6
    endloop
  endfacet
  facet normal 0 0 1
    outer loop
      vertex 13.1098 5.19056 -6
      vertex 13.1098 -5.19056 -6
      vertex 13.657 -3.50653 -6
    endloop
  endfacet
  facet normal 0 0 1
    outer loop
      vertex 12.3559 6.79273 -6
      vertex 13.1098 -5.19056 -6
      vertex 13.1098 5.19056 -6
    endloop
  endfacet
  facet normal 0 0 1
    outer loop
      vertex 12.3559 6.79273 -6
      vertex 12.3559 -6.79273 -6
      vertex 13.1098 -5.19056 -6
    endloop
  endfacet
  facet normal 0 0 1
    outer loop
      vertex 11.4071 8.28777 -6
      vertex 12.3559 -6.79273 -6
      vertex 12.3559 6.79273 -6
    endloop
  endfacet
  facet normal 0 0 1
    outer loop
      vertex 11.4071 8.28777 -6
      vertex 11.4071 -8.28777 -6
      vertex 12.3559 -6.79273 -6
    endloop
  endfacet
  facet normal 0 0 1
    outer loop
      vertex 10.2785 9.65211 -6
      vertex 11.4071 -8.28777 -6
      vertex 11.4071 8.28777 -6
    endloop
  endfacet
  facet normal 0 0 1
    outer loop
      vertex 10.2785 9.65211 -6
      vertex 10.2785 -9.65211 -6
      vertex 11.4071 -8.28777 -6
    endloop
  endfacet
  facet normal 0 0 1
    outer loop
      vertex 8.98768 10.8642 -6
      vertex 10.2785 -9.65211 -6
      vertex 10.2785 9.65211 -6
    endloop
  endfacet
  facet normal 0 0 1
    outer loop
      vertex 8.98768 10.8642 -6
      vertex 8.98768 -10.8642 -6
      vertex 10.2785 -9.65211 -6
    endloop
  endfacet
  facet normal 0 0 1
    outer loop
      vertex 7.55516 11.905 -6
      vertex 8.98768 -10.8642 -6
      vertex 8.98768 10.8642 -6
    endloop
  endfacet
  facet normal 0 0 1
    outer loop
      vertex 7.55516 11.905 -6
      vertex 7.55516 -11.905 -6
      vertex 8.98768 -10.8642 -6
    endloop
  endfacet
  facet normal 0 0 1
    outer loop
      vertex 6.00349 12.7581 -6
      vertex 7.55516 -11.905 -6
      vertex 7.55516 11.905 -6
    endloop
  endfacet
  facet normal 0 0 1
    outer loop
      vertex 6.00349 12.7581 -6
      vertex 6.00349 -12.7581 -6
      vertex 7.55516 -11.905 -6
    endloop
  endfacet
  facet normal 0 0 1
    outer loop
      vertex 4.35714 13.4099 -6
      vertex 6.00349 -12.7581 -6
      vertex 6.00349 12.7581 -6
    endloop
  endfacet
  facet normal 0 0 1
    outer loop
      vertex 4.35714 13.4099 -6
      vertex 4.35714 -13.4099 -6
      vertex 6.00349 -12.7581 -6
    endloop
  endfacet
  facet normal 0 0 1
    outer loop
      vertex 2.64208 13.8502 -6
      vertex 4.35714 -13.4099 -6
      vertex 4.35714 13.4099 -6
    endloop
  endfacet
  facet normal 0 0 1
    outer loop
      vertex 2.64208 13.8502 -6
      vertex 2.64208 -13.8502 -6
      vertex 4.35714 -13.4099 -6
    endloop
  endfacet
  facet normal 0 0 1
    outer loop
      vertex 0.885345 14.0722 -6
      vertex 2.64208 -13.8502 -6
      vertex 2.64208 13.8502 -6
    endloop
  endfacet
  facet normal 0 0 1
    outer loop
      vertex 0.885345 14.0722 -6
      vertex 0.885345 -14.0722 -6
      vertex 2.64208 -13.8502 -6
    endloop
  endfacet
  facet normal -0 0 1
    outer loop
      vertex -0.885345 14.0722 -6
      vertex 0.885345 -14.0722 -6
      vertex 0.885345 14.0722 -6
    endloop
  endfacet
  facet normal 0 0 1
    outer loop
      vertex -0.885345 14.0722 -6
      vertex -0.885345 -14.0722 -6
      vertex 0.885345 -14.0722 -6
    endloop
  endfacet
  facet normal -0 0 1
    outer loop
      vertex -2.64208 13.8502 -6
      vertex -0.885345 -14.0722 -6
      vertex -0.885345 14.0722 -6
    endloop
  endfacet
  facet normal 0 0 1
    outer loop
      vertex -2.64208 13.8502 -6
      vertex -2.64208 -13.8502 -6
      vertex -0.885345 -14.0722 -6
    endloop
  endfacet
  facet normal -0 0 1
    outer loop
      vertex -4.35714 13.4099 -6
      vertex -2.64208 -13.8502 -6
      vertex -2.64208 13.8502 -6
    endloop
  endfacet
  facet normal 0 0 1
    outer loop
      vertex -4.35714 13.4099 -6
      vertex -4.35714 -13.4099 -6
      vertex -2.64208 -13.8502 -6
    endloop
  endfacet
  facet normal -0 0 1
    outer loop
      vertex -6.00349 12.7581 -6
      vertex -4.35714 -13.4099 -6
      vertex -4.35714 13.4099 -6
    endloop
  endfacet
  facet normal 0 0 1
    outer loop
      vertex -6.00349 12.7581 -6
      vertex -6.00349 -12.7581 -6
      vertex -4.35714 -13.4099 -6
    endloop
  endfacet
  facet normal -0 0 1
    outer loop
      vertex -7.55516 11.905 -6
      vertex -6.00349 -12.7581 -6
      vertex -6.00349 12.7581 -6
    endloop
  endfacet
  facet normal 0 0 1
    outer loop
      vertex -7.55516 11.905 -6
      vertex -7.55516 -11.905 -6
      vertex -6.00349 -12.7581 -6
    endloop
  endfacet
  facet normal -0 0 1
    outer loop
      vertex -8.98768 10.8642 -6
      vertex -7.55516 -11.905 -6
      vertex -7.55516 11.905 -6
    endloop
  endfacet
  facet normal 0 0 1
    outer loop
      vertex -8.98768 10.8642 -6
      vertex -8.98768 -10.8642 -6
      vertex -7.55516 -11.905 -6
    endloop
  endfacet
  facet normal -0 0 1
    outer loop
      vertex -10.2785 9.65211 -6
      vertex -8.98768 -10.8642 -6
      vertex -8.98768 10.8642 -6
    endloop
  endfacet
  facet normal 0 0 1
    outer loop
      vertex -10.2785 9.65211 -6
      vertex -10.2785 -9.65211 -6
      vertex -8.98768 -10.8642 -6
    endloop
  endfacet
  facet normal -0 0 1
    outer loop
      vertex -11.4071 8.28777 -6
      vertex -10.2785 -9.65211 -6
      vertex -10.2785 9.65211 -6
    endloop
  endfacet
  facet normal 0 0 1
    outer loop
      vertex -11.4071 8.28777 -6
      vertex -11.4071 -8.28777 -6
      vertex -10.2785 -9.65211 -6
    endloop
  endfacet
  facet normal -0 0 1
    outer loop
      vertex -12.3559 6.79273 -6
      vertex -11.4071 -8.28777 -6
      vertex -11.4071 8.28777 -6
    endloop
  endfacet
  facet normal 0 0 1
    outer loop
      vertex -12.3559 6.79273 -6
      vertex -12.3559 -6.79273 -6
      vertex -11.4071 -8.28777 -6
    endloop
  endfacet
  facet normal -0 0 1
    outer loop
      vertex -13.1098 5.19056 -6
      vertex -12.3559 -6.79273 -6
      vertex -12.3559 6.79273 -6
    endloop
  endfacet
  facet normal 0 0 1
    outer loop
      vertex -13.1098 5.19056 -6
      vertex -13.1098 -5.19056 -6
      vertex -12.3559 -6.79273 -6
    endloop
  endfacet
  facet normal -0 0 1
    outer loop
      vertex -13.657 3.50653 -6
      vertex -13.1098 -5.19056 -6
      vertex -13.1098 5.19056 -6
    endloop
  endfacet
  facet normal 0 0 1
    outer loop
      vertex -13.657 3.50653 -6
      vertex -13.657 -3.50653 -6
      vertex -13.1098 -5.19056 -6
    endloop
  endfacet
  facet normal -0 0 1
    outer loop
      vertex -13.9888 1.7672 -6
      vertex -13.657 -3.50653 -6
      vertex -13.657 3.50653 -6
    endloop
  endfacet
  facet normal 0 0 1
    outer loop
      vertex -13.9888 1.7672 -6
      vertex -13.9888 -1.7672 -6
      vertex -13.657 -3.50653 -6
    endloop
  endfacet
  facet normal 0 -0 1
    outer loop
      vertex -13.9888 -1.7672 -6
      vertex -13.9888 1.7672 -6
      vertex -14.1 0 -6
    endloop
  endfacet
  facet normal -0.368107 0.929783 0
    outer loop
      vertex 6.00349 -12.7581 -6
      vertex 4.35714 -13.4099 0
      vertex 6.00349 -12.7581 0
    endloop
  endfacet
  facet normal -0.368107 0.929783 0
    outer loop
      vertex 4.35714 -13.4099 0
      vertex 6.00349 -12.7581 -6
      vertex 4.35714 -13.4099 -6
    endloop
  endfacet
  facet normal -0.951052 -0.30903 0
    outer loop
      vertex 13.657 3.50653 -6
      vertex 13.1098 5.19056 0
      vertex 13.1098 5.19056 -6
    endloop
  endfacet
  facet normal -0.951052 -0.30903 0
    outer loop
      vertex 13.1098 5.19056 0
      vertex 13.657 3.50653 -6
      vertex 13.657 3.50653 0
    endloop
  endfacet
  facet normal -0.770535 -0.637397 0
    outer loop
      vertex 11.4071 8.28777 -6
      vertex 10.2785 9.65211 0
      vertex 10.2785 9.65211 -6
    endloop
  endfacet
  facet normal -0.770535 -0.637397 0
    outer loop
      vertex 10.2785 9.65211 0
      vertex 11.4071 8.28777 -6
      vertex 11.4071 8.28777 0
    endloop
  endfacet
  facet normal -0.844323 -0.535834 0
    outer loop
      vertex 12.3559 6.79273 -6
      vertex 11.4071 8.28777 0
      vertex 11.4071 8.28777 -6
    endloop
  endfacet
  facet normal -0.844323 -0.535834 0
    outer loop
      vertex 11.4071 8.28777 0
      vertex 12.3559 6.79273 -6
      vertex 12.3559 6.79273 0
    endloop
  endfacet
  facet normal -0.248662 -0.96859 0
    outer loop
      vertex 2.64208 13.8502 -6
      vertex 4.35714 13.4099 0
      vertex 2.64208 13.8502 0
    endloop
  endfacet
  facet normal -0.248662 -0.96859 -0
    outer loop
      vertex 4.35714 13.4099 0
      vertex 2.64208 13.8502 -6
      vertex 4.35714 13.4099 -6
    endloop
  endfacet
  facet normal -0.125374 -0.99211 0
    outer loop
      vertex 0.885345 14.0722 -6
      vertex 2.64208 13.8502 0
      vertex 0.885345 14.0722 0
    endloop
  endfacet
  facet normal -0.125374 -0.99211 -0
    outer loop
      vertex 2.64208 13.8502 0
      vertex 0.885345 14.0722 -6
      vertex 2.64208 13.8502 -6
    endloop
  endfacet
  facet normal -0.481781 -0.876292 0
    outer loop
      vertex 6.00349 12.7581 -6
      vertex 7.55516 11.905 0
      vertex 6.00349 12.7581 0
    endloop
  endfacet
  facet normal -0.481781 -0.876292 -0
    outer loop
      vertex 7.55516 11.905 0
      vertex 6.00349 12.7581 -6
      vertex 7.55516 11.905 -6
    endloop
  endfacet
  facet normal 0.844323 -0.535834 0
    outer loop
      vertex -12.3559 6.79273 0
      vertex -11.4071 8.28777 -6
      vertex -11.4071 8.28777 0
    endloop
  endfacet
  facet normal 0.844323 -0.535834 0
    outer loop
      vertex -11.4071 8.28777 -6
      vertex -12.3559 6.79273 0
      vertex -12.3559 6.79273 -6
    endloop
  endfacet
  facet normal 0.770535 -0.637397 0
    outer loop
      vertex -11.4071 8.28777 0
      vertex -10.2785 9.65211 -6
      vertex -10.2785 9.65211 0
    endloop
  endfacet
  facet normal 0.770535 -0.637397 0
    outer loop
      vertex -10.2785 9.65211 -6
      vertex -11.4071 8.28777 0
      vertex -11.4071 8.28777 -6
    endloop
  endfacet
  facet normal 0.951052 -0.30903 0
    outer loop
      vertex -13.657 3.50653 0
      vertex -13.1098 5.19056 -6
      vertex -13.1098 5.19056 0
    endloop
  endfacet
  facet normal 0.951052 -0.30903 0
    outer loop
      vertex -13.1098 5.19056 -6
      vertex -13.657 3.50653 0
      vertex -13.657 3.50653 -6
    endloop
  endfacet
  facet normal 0.982287 -0.187384 0
    outer loop
      vertex -13.9888 1.7672 0
      vertex -13.657 3.50653 -6
      vertex -13.657 3.50653 0
    endloop
  endfacet
  facet normal 0.982287 -0.187384 0
    outer loop
      vertex -13.657 3.50653 -6
      vertex -13.9888 1.7672 0
      vertex -13.9888 1.7672 -6
    endloop
  endfacet
  facet normal 0.58779 -0.809013 0
    outer loop
      vertex -8.98768 10.8642 -6
      vertex -7.55516 11.905 0
      vertex -8.98768 10.8642 0
    endloop
  endfacet
  facet normal 0.58779 -0.809013 0
    outer loop
      vertex -7.55516 11.905 0
      vertex -8.98768 10.8642 -6
      vertex -7.55516 11.905 -6
    endloop
  endfacet
  facet normal 0.125374 -0.99211 0
    outer loop
      vertex -2.64208 13.8502 -6
      vertex -0.885345 14.0722 0
      vertex -2.64208 13.8502 0
    endloop
  endfacet
  facet normal 0.125374 -0.99211 0
    outer loop
      vertex -0.885345 14.0722 0
      vertex -2.64208 13.8502 -6
      vertex -0.885345 14.0722 -6
    endloop
  endfacet
  facet normal -0.998026 0.0628002 0
    outer loop
      vertex 13.9888 -1.7672 -6
      vertex 14.1 0 0
      vertex 14.1 0 -6
    endloop
  endfacet
  facet normal -0.998026 0.0628002 0
    outer loop
      vertex 14.1 0 0
      vertex 13.9888 -1.7672 -6
      vertex 13.9888 -1.7672 0
    endloop
  endfacet
  facet normal 0.904832 0.425768 0
    outer loop
      vertex -12.3559 -6.79273 0
      vertex -13.1098 -5.19056 -6
      vertex -13.1098 -5.19056 0
    endloop
  endfacet
  facet normal 0.904832 0.425768 0
    outer loop
      vertex -13.1098 -5.19056 -6
      vertex -12.3559 -6.79273 0
      vertex -12.3559 -6.79273 -6
    endloop
  endfacet
  facet normal 0.844323 0.535834 0
    outer loop
      vertex -11.4071 -8.28777 0
      vertex -12.3559 -6.79273 -6
      vertex -12.3559 -6.79273 0
    endloop
  endfacet
  facet normal 0.844323 0.535834 0
    outer loop
      vertex -12.3559 -6.79273 -6
      vertex -11.4071 -8.28777 0
      vertex -11.4071 -8.28777 -6
    endloop
  endfacet
  facet normal -0.481781 0.876292 0
    outer loop
      vertex 7.55516 -11.905 -6
      vertex 6.00349 -12.7581 0
      vertex 7.55516 -11.905 0
    endloop
  endfacet
  facet normal -0.481781 0.876292 0
    outer loop
      vertex 6.00349 -12.7581 0
      vertex 7.55516 -11.905 -6
      vertex 6.00349 -12.7581 -6
    endloop
  endfacet
  facet normal -0.904832 0.425768 0
    outer loop
      vertex 12.3559 -6.79273 -6
      vertex 13.1098 -5.19056 0
      vertex 13.1098 -5.19056 -6
    endloop
  endfacet
  facet normal -0.904832 0.425768 0
    outer loop
      vertex 13.1098 -5.19056 0
      vertex 12.3559 -6.79273 -6
      vertex 12.3559 -6.79273 0
    endloop
  endfacet
  facet normal 0.770535 0.637397 0
    outer loop
      vertex -10.2785 -9.65211 0
      vertex -11.4071 -8.28777 -6
      vertex -11.4071 -8.28777 0
    endloop
  endfacet
  facet normal 0.770535 0.637397 0
    outer loop
      vertex -11.4071 -8.28777 -6
      vertex -10.2785 -9.65211 0
      vertex -10.2785 -9.65211 -6
    endloop
  endfacet
  facet normal 0.982287 0.187384 0
    outer loop
      vertex -13.657 -3.50653 0
      vertex -13.9888 -1.7672 -6
      vertex -13.9888 -1.7672 0
    endloop
  endfacet
  facet normal 0.982287 0.187384 0
    outer loop
      vertex -13.9888 -1.7672 -6
      vertex -13.657 -3.50653 0
      vertex -13.657 -3.50653 -6
    endloop
  endfacet
  facet normal 0.998026 0.0628002 0
    outer loop
      vertex -13.9888 -1.7672 0
      vertex -14.1 0 -6
      vertex -14.1 0 0
    endloop
  endfacet
  facet normal 0.998026 0.0628002 0
    outer loop
      vertex -14.1 0 -6
      vertex -13.9888 -1.7672 0
      vertex -13.9888 -1.7672 -6
    endloop
  endfacet
  facet normal 0.951052 0.30903 0
    outer loop
      vertex -13.1098 -5.19056 0
      vertex -13.657 -3.50653 -6
      vertex -13.657 -3.50653 0
    endloop
  endfacet
  facet normal 0.951052 0.30903 0
    outer loop
      vertex -13.657 -3.50653 -6
      vertex -13.1098 -5.19056 0
      vertex -13.1098 -5.19056 -6
    endloop
  endfacet
  facet normal -0.58779 0.809013 0
    outer loop
      vertex 8.98768 -10.8642 -6
      vertex 7.55516 -11.905 0
      vertex 8.98768 -10.8642 0
    endloop
  endfacet
  facet normal -0.58779 0.809013 0
    outer loop
      vertex 7.55516 -11.905 0
      vertex 8.98768 -10.8642 -6
      vertex 7.55516 -11.905 -6
    endloop
  endfacet
  facet normal -0.248662 0.96859 0
    outer loop
      vertex 4.35714 -13.4099 -6
      vertex 2.64208 -13.8502 0
      vertex 4.35714 -13.4099 0
    endloop
  endfacet
  facet normal -0.248662 0.96859 0
    outer loop
      vertex 2.64208 -13.8502 0
      vertex 4.35714 -13.4099 -6
      vertex 2.64208 -13.8502 -6
    endloop
  endfacet
  facet normal -0.125374 0.99211 0
    outer loop
      vertex 2.64208 -13.8502 -6
      vertex 0.885345 -14.0722 0
      vertex 2.64208 -13.8502 0
    endloop
  endfacet
  facet normal -0.125374 0.99211 0
    outer loop
      vertex 0.885345 -14.0722 0
      vertex 2.64208 -13.8502 -6
      vertex 0.885345 -14.0722 -6
    endloop
  endfacet
  facet normal -0.844323 0.535834 0
    outer loop
      vertex 11.4071 -8.28777 -6
      vertex 12.3559 -6.79273 0
      vertex 12.3559 -6.79273 -6
    endloop
  endfacet
  facet normal -0.844323 0.535834 0
    outer loop
      vertex 12.3559 -6.79273 0
      vertex 11.4071 -8.28777 -6
      vertex 11.4071 -8.28777 0
    endloop
  endfacet
  facet normal -0.770535 0.637397 0
    outer loop
      vertex 10.2785 -9.65211 -6
      vertex 11.4071 -8.28777 0
      vertex 11.4071 -8.28777 -6
    endloop
  endfacet
  facet normal -0.770535 0.637397 0
    outer loop
      vertex 11.4071 -8.28777 0
      vertex 10.2785 -9.65211 -6
      vertex 10.2785 -9.65211 0
    endloop
  endfacet
  facet normal -0.951052 0.30903 0
    outer loop
      vertex 13.1098 -5.19056 -6
      vertex 13.657 -3.50653 0
      vertex 13.657 -3.50653 -6
    endloop
  endfacet
  facet normal -0.951052 0.30903 0
    outer loop
      vertex 13.657 -3.50653 0
      vertex 13.1098 -5.19056 -6
      vertex 13.1098 -5.19056 0
    endloop
  endfacet
  facet normal 0.125374 0.99211 -0
    outer loop
      vertex -0.885345 -14.0722 -6
      vertex -2.64208 -13.8502 0
      vertex -0.885345 -14.0722 0
    endloop
  endfacet
  facet normal 0.125374 0.99211 0
    outer loop
      vertex -2.64208 -13.8502 0
      vertex -0.885345 -14.0722 -6
      vertex -2.64208 -13.8502 -6
    endloop
  endfacet
  facet normal 0.368107 0.929783 -0
    outer loop
      vertex -4.35714 -13.4099 -6
      vertex -6.00349 -12.7581 0
      vertex -4.35714 -13.4099 0
    endloop
  endfacet
  facet normal 0.368107 0.929783 0
    outer loop
      vertex -6.00349 -12.7581 0
      vertex -4.35714 -13.4099 -6
      vertex -6.00349 -12.7581 -6
    endloop
  endfacet
  facet normal 0.248662 0.96859 -0
    outer loop
      vertex -2.64208 -13.8502 -6
      vertex -4.35714 -13.4099 0
      vertex -2.64208 -13.8502 0
    endloop
  endfacet
  facet normal 0.248662 0.96859 0
    outer loop
      vertex -4.35714 -13.4099 0
      vertex -2.64208 -13.8502 -6
      vertex -4.35714 -13.4099 -6
    endloop
  endfacet
  facet normal 0.481781 0.876292 -0
    outer loop
      vertex -6.00349 -12.7581 -6
      vertex -7.55516 -11.905 0
      vertex -6.00349 -12.7581 0
    endloop
  endfacet
  facet normal 0.481781 0.876292 0
    outer loop
      vertex -7.55516 -11.905 0
      vertex -6.00349 -12.7581 -6
      vertex -7.55516 -11.905 -6
    endloop
  endfacet
  facet normal 0.58779 0.809013 -0
    outer loop
      vertex -7.55516 -11.905 -6
      vertex -8.98768 -10.8642 0
      vertex -7.55516 -11.905 0
    endloop
  endfacet
  facet normal 0.58779 0.809013 0
    outer loop
      vertex -8.98768 -10.8642 0
      vertex -7.55516 -11.905 -6
      vertex -8.98768 -10.8642 -6
    endloop
  endfacet
  facet normal 0.684526 0.728989 -0
    outer loop
      vertex -8.98768 -10.8642 -6
      vertex -10.2785 -9.65211 0
      vertex -8.98768 -10.8642 0
    endloop
  endfacet
  facet normal 0.684526 0.728989 0
    outer loop
      vertex -10.2785 -9.65211 0
      vertex -8.98768 -10.8642 -6
      vertex -10.2785 -9.65211 -6
    endloop
  endfacet
endsolid OpenSCAD_Model
