solid OpenSCAD_Model
  facet normal 0.998026 0.0628001 0
    outer loop
      vertex 18.5 0 0
      vertex 18.3541 2.31866 -4
      vertex 18.3541 2.31866 0
    endloop
  endfacet
  facet normal 0.998026 0.0628001 0
    outer loop
      vertex 18.3541 2.31866 -4
      vertex 18.5 0 0
      vertex 18.5 0 -4
    endloop
  endfacet
  facet normal -0.998026 0.0628001 0
    outer loop
      vertex -18.5 0 -4
      vertex -18.3541 2.31866 0
      vertex -18.3541 2.31866 -4
    endloop
  endfacet
  facet normal -0.998026 0.0628001 0
    outer loop
      vertex -18.3541 2.31866 0
      vertex -18.5 0 -4
      vertex -18.5 0 0
    endloop
  endfacet
  facet normal 0 1 -0
    outer loop
      vertex 1.16162 18.4635 -4
      vertex -1.16162 18.4635 0
      vertex 1.16162 18.4635 0
    endloop
  endfacet
  facet normal 0 1 0
    outer loop
      vertex -1.16162 18.4635 0
      vertex 1.16162 18.4635 -4
      vertex -1.16162 18.4635 -4
    endloop
  endfacet
  facet normal 0 -1 0
    outer loop
      vertex -1.16162 -18.4635 -4
      vertex 1.16162 -18.4635 0
      vertex -1.16162 -18.4635 0
    endloop
  endfacet
  facet normal 0 -1 -0
    outer loop
      vertex 1.16162 -18.4635 0
      vertex -1.16162 -18.4635 -4
      vertex 1.16162 -18.4635 -4
    endloop
  endfacet
  facet normal 0.684548 0.728968 -0
    outer loop
      vertex 13.4859 12.6641 -4
      vertex 11.7923 14.2545 0
      vertex 13.4859 12.6641 0
    endloop
  endfacet
  facet normal 0.684548 0.728968 0
    outer loop
      vertex 11.7923 14.2545 0
      vertex 13.4859 12.6641 -4
      vertex 11.7923 14.2545 -4
    endloop
  endfacet
  facet normal -0.684548 0.728968 0
    outer loop
      vertex -11.7923 14.2545 -4
      vertex -13.4859 12.6641 0
      vertex -11.7923 14.2545 0
    endloop
  endfacet
  facet normal -0.684548 0.728968 0
    outer loop
      vertex -13.4859 12.6641 0
      vertex -11.7923 14.2545 -4
      vertex -13.4859 12.6641 -4
    endloop
  endfacet
  facet normal -0.368107 0.929784 0
    outer loop
      vertex -5.71681 17.5945 -4
      vertex -7.87692 16.7393 0
      vertex -5.71681 17.5945 0
    endloop
  endfacet
  facet normal -0.368107 0.929784 0
    outer loop
      vertex -7.87692 16.7393 0
      vertex -5.71681 17.5945 -4
      vertex -7.87692 16.7393 -4
    endloop
  endfacet
  facet normal 0.904826 0.425782 0
    outer loop
      vertex 17.2009 6.8103 0
      vertex 16.2117 8.91244 -4
      vertex 16.2117 8.91244 0
    endloop
  endfacet
  facet normal 0.904826 0.425782 0
    outer loop
      vertex 16.2117 8.91244 -4
      vertex 17.2009 6.8103 0
      vertex 17.2009 6.8103 -4
    endloop
  endfacet
  facet normal 0.844317 0.535844 0
    outer loop
      vertex 16.2117 8.91244 0
      vertex 14.9668 10.874 -4
      vertex 14.9668 10.874 0
    endloop
  endfacet
  facet normal 0.844317 0.535844 0
    outer loop
      vertex 14.9668 10.874 -4
      vertex 16.2117 8.91244 0
      vertex 16.2117 8.91244 -4
    endloop
  endfacet
  facet normal 0.368107 0.929784 -0
    outer loop
      vertex 7.87692 16.7393 -4
      vertex 5.71681 17.5945 0
      vertex 7.87692 16.7393 0
    endloop
  endfacet
  facet normal 0.368107 0.929784 0
    outer loop
      vertex 5.71681 17.5945 0
      vertex 7.87692 16.7393 -4
      vertex 5.71681 17.5945 -4
    endloop
  endfacet
  facet normal 0.481742 0.876313 -0
    outer loop
      vertex 9.9128 15.6201 -4
      vertex 7.87692 16.7393 0
      vertex 9.9128 15.6201 0
    endloop
  endfacet
  facet normal 0.481742 0.876313 0
    outer loop
      vertex 7.87692 16.7393 0
      vertex 9.9128 15.6201 -4
      vertex 7.87692 16.7393 -4
    endloop
  endfacet
  facet normal -0.904826 0.425782 0
    outer loop
      vertex -17.2009 6.8103 -4
      vertex -16.2117 8.91244 0
      vertex -16.2117 8.91244 -4
    endloop
  endfacet
  facet normal -0.904826 0.425782 0
    outer loop
      vertex -16.2117 8.91244 0
      vertex -17.2009 6.8103 -4
      vertex -17.2009 6.8103 0
    endloop
  endfacet
  facet normal -0.770513 0.637424 0
    outer loop
      vertex -14.9668 10.874 -4
      vertex -13.4859 12.6641 0
      vertex -13.4859 12.6641 -4
    endloop
  endfacet
  facet normal -0.770513 0.637424 0
    outer loop
      vertex -13.4859 12.6641 0
      vertex -14.9668 10.874 -4
      vertex -14.9668 10.874 0
    endloop
  endfacet
  facet normal -0.951059 0.309008 0
    outer loop
      vertex -17.9188 4.60076 -4
      vertex -17.2009 6.8103 0
      vertex -17.2009 6.8103 -4
    endloop
  endfacet
  facet normal -0.951059 0.309008 0
    outer loop
      vertex -17.2009 6.8103 0
      vertex -17.9188 4.60076 -4
      vertex -17.9188 4.60076 0
    endloop
  endfacet
  facet normal -0.248703 0.96858 0
    outer loop
      vertex -3.46655 18.1723 -4
      vertex -5.71681 17.5945 0
      vertex -3.46655 18.1723 0
    endloop
  endfacet
  facet normal -0.248703 0.96858 0
    outer loop
      vertex -5.71681 17.5945 0
      vertex -3.46655 18.1723 -4
      vertex -5.71681 17.5945 -4
    endloop
  endfacet
  facet normal 0.125342 -0.992114 0
    outer loop
      vertex 1.16162 -18.4635 -4
      vertex 3.46655 -18.1723 0
      vertex 1.16162 -18.4635 0
    endloop
  endfacet
  facet normal 0.125342 -0.992114 0
    outer loop
      vertex 3.46655 -18.1723 0
      vertex 1.16162 -18.4635 -4
      vertex 3.46655 -18.1723 -4
    endloop
  endfacet
  facet normal 0.951059 0.309008 0
    outer loop
      vertex 17.9188 4.60076 0
      vertex 17.2009 6.8103 -4
      vertex 17.2009 6.8103 0
    endloop
  endfacet
  facet normal 0.951059 0.309008 0
    outer loop
      vertex 17.2009 6.8103 -4
      vertex 17.9188 4.60076 0
      vertex 17.9188 4.60076 -4
    endloop
  endfacet
  facet normal 0.98229 0.187367 0
    outer loop
      vertex 18.3541 2.31866 0
      vertex 17.9188 4.60076 -4
      vertex 17.9188 4.60076 0
    endloop
  endfacet
  facet normal 0.98229 0.187367 0
    outer loop
      vertex 17.9188 4.60076 -4
      vertex 18.3541 2.31866 0
      vertex 18.3541 2.31866 -4
    endloop
  endfacet
  facet normal 0.770513 0.637424 0
    outer loop
      vertex 14.9668 10.874 0
      vertex 13.4859 12.6641 -4
      vertex 13.4859 12.6641 0
    endloop
  endfacet
  facet normal 0.770513 0.637424 0
    outer loop
      vertex 13.4859 12.6641 -4
      vertex 14.9668 10.874 0
      vertex 14.9668 10.874 -4
    endloop
  endfacet
  facet normal 0.248703 0.96858 -0
    outer loop
      vertex 5.71681 17.5945 -4
      vertex 3.46655 18.1723 0
      vertex 5.71681 17.5945 0
    endloop
  endfacet
  facet normal 0.248703 0.96858 0
    outer loop
      vertex 3.46655 18.1723 0
      vertex 5.71681 17.5945 -4
      vertex 3.46655 18.1723 -4
    endloop
  endfacet
  facet normal 0.125342 0.992114 -0
    outer loop
      vertex 3.46655 18.1723 -4
      vertex 1.16162 18.4635 0
      vertex 3.46655 18.1723 0
    endloop
  endfacet
  facet normal 0.125342 0.992114 0
    outer loop
      vertex 1.16162 18.4635 0
      vertex 3.46655 18.1723 -4
      vertex 1.16162 18.4635 -4
    endloop
  endfacet
  facet normal 0.587803 0.809004 -0
    outer loop
      vertex 11.7923 14.2545 -4
      vertex 9.9128 15.6201 0
      vertex 11.7923 14.2545 0
    endloop
  endfacet
  facet normal 0.587803 0.809004 0
    outer loop
      vertex 9.9128 15.6201 0
      vertex 11.7923 14.2545 -4
      vertex 9.9128 15.6201 -4
    endloop
  endfacet
  facet normal -0.844317 0.535844 0
    outer loop
      vertex -16.2117 8.91244 -4
      vertex -14.9668 10.874 0
      vertex -14.9668 10.874 -4
    endloop
  endfacet
  facet normal -0.844317 0.535844 0
    outer loop
      vertex -14.9668 10.874 0
      vertex -16.2117 8.91244 -4
      vertex -16.2117 8.91244 0
    endloop
  endfacet
  facet normal -0.98229 0.187367 0
    outer loop
      vertex -18.3541 2.31866 -4
      vertex -17.9188 4.60076 0
      vertex -17.9188 4.60076 -4
    endloop
  endfacet
  facet normal -0.98229 0.187367 0
    outer loop
      vertex -17.9188 4.60076 0
      vertex -18.3541 2.31866 -4
      vertex -18.3541 2.31866 0
    endloop
  endfacet
  facet normal 0 0 1
    outer loop
      vertex 15.6 0 0
      vertex 18.5 0 0
      vertex 18.3541 2.31866 0
    endloop
  endfacet
  facet normal 0 0 1
    outer loop
      vertex 15.477 1.9552 0
      vertex 18.3541 2.31866 0
      vertex 17.9188 4.60076 0
    endloop
  endfacet
  facet normal 0 0 1
    outer loop
      vertex 18.5 0 0
      vertex 15.6 0 0
      vertex 18.3541 -2.31866 0
    endloop
  endfacet
  facet normal 0 0 1
    outer loop
      vertex 15.1099 3.87956 0
      vertex 17.9188 4.60076 0
      vertex 17.2009 6.8103 0
    endloop
  endfacet
  facet normal -0 0 1
    outer loop
      vertex 15.477 -1.9552 0
      vertex 18.3541 -2.31866 0
      vertex 15.6 0 0
    endloop
  endfacet
  facet normal 0 0 1
    outer loop
      vertex 14.5045 5.74274 0
      vertex 17.2009 6.8103 0
      vertex 16.2117 8.91244 0
    endloop
  endfacet
  facet normal 0 0 1
    outer loop
      vertex 18.3541 -2.31866 0
      vertex 15.477 -1.9552 0
      vertex 17.9188 -4.60076 0
    endloop
  endfacet
  facet normal -0 0 1
    outer loop
      vertex 15.1099 -3.87956 0
      vertex 17.9188 -4.60076 0
      vertex 15.477 -1.9552 0
    endloop
  endfacet
  facet normal 0 0 1
    outer loop
      vertex 18.3541 2.31866 0
      vertex 15.477 1.9552 0
      vertex 15.6 0 0
    endloop
  endfacet
  facet normal 0 0 1
    outer loop
      vertex 17.9188 4.60076 0
      vertex 15.1099 3.87956 0
      vertex 15.477 1.9552 0
    endloop
  endfacet
  facet normal 0 0 1
    outer loop
      vertex 13.6704 7.51536 0
      vertex 16.2117 8.91244 0
      vertex 14.9668 10.874 0
    endloop
  endfacet
  facet normal 0 0 1
    outer loop
      vertex 17.2009 6.8103 0
      vertex 14.5045 5.74274 0
      vertex 15.1099 3.87956 0
    endloop
  endfacet
  facet normal 0 0 1
    outer loop
      vertex 16.2117 8.91244 0
      vertex 13.6704 7.51536 0
      vertex 14.5045 5.74274 0
    endloop
  endfacet
  facet normal 0 0 1
    outer loop
      vertex 12.6207 9.16945 0
      vertex 14.9668 10.874 0
      vertex 13.4859 12.6641 0
    endloop
  endfacet
  facet normal 0 0 1
    outer loop
      vertex 14.9668 10.874 0
      vertex 12.6207 9.16945 0
      vertex 13.6704 7.51536 0
    endloop
  endfacet
  facet normal 0 0 1
    outer loop
      vertex 11.3719 10.6789 0
      vertex 13.4859 12.6641 0
      vertex 11.7923 14.2545 0
    endloop
  endfacet
  facet normal 0 0 1
    outer loop
      vertex 13.4859 12.6641 0
      vertex 11.3719 10.6789 0
      vertex 12.6207 9.16945 0
    endloop
  endfacet
  facet normal 0 0 1
    outer loop
      vertex 11.7923 14.2545 0
      vertex 9.94381 12.02 0
      vertex 11.3719 10.6789 0
    endloop
  endfacet
  facet normal 0 0 1
    outer loop
      vertex 9.9128 15.6201 0
      vertex 9.94381 12.02 0
      vertex 11.7923 14.2545 0
    endloop
  endfacet
  facet normal 0 0 1
    outer loop
      vertex 9.9128 15.6201 0
      vertex 8.3589 13.1715 0
      vertex 9.94381 12.02 0
    endloop
  endfacet
  facet normal 0 0 1
    outer loop
      vertex 7.87692 16.7393 0
      vertex 8.3589 13.1715 0
      vertex 9.9128 15.6201 0
    endloop
  endfacet
  facet normal 0 0 1
    outer loop
      vertex 7.87692 16.7393 0
      vertex 6.64216 14.1153 0
      vertex 8.3589 13.1715 0
    endloop
  endfacet
  facet normal 0 0 1
    outer loop
      vertex 5.71681 17.5945 0
      vertex 6.64216 14.1153 0
      vertex 7.87692 16.7393 0
    endloop
  endfacet
  facet normal 0 0 1
    outer loop
      vertex 5.71681 17.5945 0
      vertex 4.82066 14.8365 0
      vertex 6.64216 14.1153 0
    endloop
  endfacet
  facet normal 0 0 1
    outer loop
      vertex 3.46655 18.1723 0
      vertex 4.82066 14.8365 0
      vertex 5.71681 17.5945 0
    endloop
  endfacet
  facet normal 0 0 1
    outer loop
      vertex 3.46655 18.1723 0
      vertex 2.92315 15.3237 0
      vertex 4.82066 14.8365 0
    endloop
  endfacet
  facet normal 0 0 1
    outer loop
      vertex 1.16162 18.4635 0
      vertex 2.92315 15.3237 0
      vertex 3.46655 18.1723 0
    endloop
  endfacet
  facet normal 0 0 1
    outer loop
      vertex 1.16162 18.4635 0
      vertex 0.979531 15.5692 0
      vertex 2.92315 15.3237 0
    endloop
  endfacet
  facet normal 0 0 1
    outer loop
      vertex 1.16162 18.4635 0
      vertex -0.979531 15.5692 0
      vertex 0.979531 15.5692 0
    endloop
  endfacet
  facet normal -0 0 1
    outer loop
      vertex -1.16162 18.4635 0
      vertex -0.979531 15.5692 0
      vertex 1.16162 18.4635 0
    endloop
  endfacet
  facet normal 0 0 1
    outer loop
      vertex -1.16162 18.4635 0
      vertex -2.92315 15.3237 0
      vertex -0.979531 15.5692 0
    endloop
  endfacet
  facet normal -0 0 1
    outer loop
      vertex -3.46655 18.1723 0
      vertex -2.92315 15.3237 0
      vertex -1.16162 18.4635 0
    endloop
  endfacet
  facet normal 0 0 1
    outer loop
      vertex -3.46655 18.1723 0
      vertex -4.82066 14.8365 0
      vertex -2.92315 15.3237 0
    endloop
  endfacet
  facet normal -0 0 1
    outer loop
      vertex -5.71681 17.5945 0
      vertex -4.82066 14.8365 0
      vertex -3.46655 18.1723 0
    endloop
  endfacet
  facet normal 0 0 1
    outer loop
      vertex -5.71681 17.5945 0
      vertex -6.64216 14.1153 0
      vertex -4.82066 14.8365 0
    endloop
  endfacet
  facet normal -0 0 1
    outer loop
      vertex -7.87692 16.7393 0
      vertex -6.64216 14.1153 0
      vertex -5.71681 17.5945 0
    endloop
  endfacet
  facet normal 0 0 1
    outer loop
      vertex -7.87692 16.7393 0
      vertex -8.3589 13.1715 0
      vertex -6.64216 14.1153 0
    endloop
  endfacet
  facet normal -0 0 1
    outer loop
      vertex -9.9128 15.6201 0
      vertex -8.3589 13.1715 0
      vertex -7.87692 16.7393 0
    endloop
  endfacet
  facet normal 0 0 1
    outer loop
      vertex -9.9128 15.6201 0
      vertex -9.94381 12.02 0
      vertex -8.3589 13.1715 0
    endloop
  endfacet
  facet normal -0 0 1
    outer loop
      vertex -11.7923 14.2545 0
      vertex -9.94381 12.02 0
      vertex -9.9128 15.6201 0
    endloop
  endfacet
  facet normal 0 0 1
    outer loop
      vertex -9.94381 12.02 0
      vertex -11.7923 14.2545 0
      vertex -11.3719 10.6789 0
    endloop
  endfacet
  facet normal -0 0 1
    outer loop
      vertex -13.4859 12.6641 0
      vertex -11.3719 10.6789 0
      vertex -11.7923 14.2545 0
    endloop
  endfacet
  facet normal 0 0 1
    outer loop
      vertex -11.3719 10.6789 0
      vertex -13.4859 12.6641 0
      vertex -12.6207 9.16945 0
    endloop
  endfacet
  facet normal -0 0 1
    outer loop
      vertex -14.9668 10.874 0
      vertex -12.6207 9.16945 0
      vertex -13.4859 12.6641 0
    endloop
  endfacet
  facet normal 0 0 1
    outer loop
      vertex -12.6207 9.16945 0
      vertex -14.9668 10.874 0
      vertex -13.6704 7.51536 0
    endloop
  endfacet
  facet normal -0 0 1
    outer loop
      vertex -16.2117 8.91244 0
      vertex -13.6704 7.51536 0
      vertex -14.9668 10.874 0
    endloop
  endfacet
  facet normal 0 0 1
    outer loop
      vertex -13.6704 7.51536 0
      vertex -16.2117 8.91244 0
      vertex -14.5045 5.74274 0
    endloop
  endfacet
  facet normal -0 0 1
    outer loop
      vertex -17.2009 6.8103 0
      vertex -14.5045 5.74274 0
      vertex -16.2117 8.91244 0
    endloop
  endfacet
  facet normal 0 0 1
    outer loop
      vertex -14.5045 5.74274 0
      vertex -17.2009 6.8103 0
      vertex -15.1099 3.87956 0
    endloop
  endfacet
  facet normal -0 0 1
    outer loop
      vertex -17.9188 4.60076 0
      vertex -15.1099 3.87956 0
      vertex -17.2009 6.8103 0
    endloop
  endfacet
  facet normal 0 0 1
    outer loop
      vertex 17.9188 -4.60076 0
      vertex 15.1099 -3.87956 0
      vertex 17.2009 -6.8103 0
    endloop
  endfacet
  facet normal -0 0 1
    outer loop
      vertex 14.5045 -5.74274 0
      vertex 17.2009 -6.8103 0
      vertex 15.1099 -3.87956 0
    endloop
  endfacet
  facet normal 0 0 1
    outer loop
      vertex 17.2009 -6.8103 0
      vertex 14.5045 -5.74274 0
      vertex 16.2117 -8.91244 0
    endloop
  endfacet
  facet normal -0 0 1
    outer loop
      vertex 13.6704 -7.51536 0
      vertex 16.2117 -8.91244 0
      vertex 14.5045 -5.74274 0
    endloop
  endfacet
  facet normal 0 0 1
    outer loop
      vertex 16.2117 -8.91244 0
      vertex 13.6704 -7.51536 0
      vertex 14.9668 -10.874 0
    endloop
  endfacet
  facet normal -0 0 1
    outer loop
      vertex 12.6207 -9.16945 0
      vertex 14.9668 -10.874 0
      vertex 13.6704 -7.51536 0
    endloop
  endfacet
  facet normal 0 0 1
    outer loop
      vertex 14.9668 -10.874 0
      vertex 12.6207 -9.16945 0
      vertex 13.4859 -12.6641 0
    endloop
  endfacet
  facet normal -0 0 1
    outer loop
      vertex 11.3719 -10.6789 0
      vertex 13.4859 -12.6641 0
      vertex 12.6207 -9.16945 0
    endloop
  endfacet
  facet normal 0 0 1
    outer loop
      vertex 13.4859 -12.6641 0
      vertex 11.3719 -10.6789 0
      vertex 11.7923 -14.2545 0
    endloop
  endfacet
  facet normal -0 0 1
    outer loop
      vertex 9.94381 -12.02 0
      vertex 11.7923 -14.2545 0
      vertex 11.3719 -10.6789 0
    endloop
  endfacet
  facet normal 0 0 1
    outer loop
      vertex 9.94381 -12.02 0
      vertex 9.9128 -15.6201 0
      vertex 11.7923 -14.2545 0
    endloop
  endfacet
  facet normal -0 0 1
    outer loop
      vertex 8.3589 -13.1715 0
      vertex 9.9128 -15.6201 0
      vertex 9.94381 -12.02 0
    endloop
  endfacet
  facet normal 0 0 1
    outer loop
      vertex 8.3589 -13.1715 0
      vertex 7.87692 -16.7393 0
      vertex 9.9128 -15.6201 0
    endloop
  endfacet
  facet normal -0 0 1
    outer loop
      vertex 6.64216 -14.1153 0
      vertex 7.87692 -16.7393 0
      vertex 8.3589 -13.1715 0
    endloop
  endfacet
  facet normal 0 0 1
    outer loop
      vertex 6.64216 -14.1153 0
      vertex 5.71681 -17.5945 0
      vertex 7.87692 -16.7393 0
    endloop
  endfacet
  facet normal -0 0 1
    outer loop
      vertex 4.82066 -14.8365 0
      vertex 5.71681 -17.5945 0
      vertex 6.64216 -14.1153 0
    endloop
  endfacet
  facet normal 0 0 1
    outer loop
      vertex 4.82066 -14.8365 0
      vertex 3.46655 -18.1723 0
      vertex 5.71681 -17.5945 0
    endloop
  endfacet
  facet normal -0 0 1
    outer loop
      vertex 2.92315 -15.3237 0
      vertex 3.46655 -18.1723 0
      vertex 4.82066 -14.8365 0
    endloop
  endfacet
  facet normal 0 0 1
    outer loop
      vertex 2.92315 -15.3237 0
      vertex 1.16162 -18.4635 0
      vertex 3.46655 -18.1723 0
    endloop
  endfacet
  facet normal -0 0 1
    outer loop
      vertex 0.979531 -15.5692 0
      vertex 1.16162 -18.4635 0
      vertex 2.92315 -15.3237 0
    endloop
  endfacet
  facet normal -0 0 1
    outer loop
      vertex -0.979531 -15.5692 0
      vertex 1.16162 -18.4635 0
      vertex 0.979531 -15.5692 0
    endloop
  endfacet
  facet normal 0 0 1
    outer loop
      vertex -0.979531 -15.5692 0
      vertex -1.16162 -18.4635 0
      vertex 1.16162 -18.4635 0
    endloop
  endfacet
  facet normal 0 0 1
    outer loop
      vertex -2.92315 -15.3237 0
      vertex -1.16162 -18.4635 0
      vertex -0.979531 -15.5692 0
    endloop
  endfacet
  facet normal 0 0 1
    outer loop
      vertex -2.92315 -15.3237 0
      vertex -3.46655 -18.1723 0
      vertex -1.16162 -18.4635 0
    endloop
  endfacet
  facet normal 0 0 1
    outer loop
      vertex -4.82066 -14.8365 0
      vertex -3.46655 -18.1723 0
      vertex -2.92315 -15.3237 0
    endloop
  endfacet
  facet normal 0 0 1
    outer loop
      vertex -4.82066 -14.8365 0
      vertex -5.71681 -17.5945 0
      vertex -3.46655 -18.1723 0
    endloop
  endfacet
  facet normal 0 0 1
    outer loop
      vertex -6.64216 -14.1153 0
      vertex -5.71681 -17.5945 0
      vertex -4.82066 -14.8365 0
    endloop
  endfacet
  facet normal 0 0 1
    outer loop
      vertex -6.64216 -14.1153 0
      vertex -7.87692 -16.7393 0
      vertex -5.71681 -17.5945 0
    endloop
  endfacet
  facet normal 0 0 1
    outer loop
      vertex -8.3589 -13.1715 0
      vertex -7.87692 -16.7393 0
      vertex -6.64216 -14.1153 0
    endloop
  endfacet
  facet normal 0 0 1
    outer loop
      vertex -8.3589 -13.1715 0
      vertex -9.9128 -15.6201 0
      vertex -7.87692 -16.7393 0
    endloop
  endfacet
  facet normal 0 0 1
    outer loop
      vertex -9.94381 -12.02 0
      vertex -9.9128 -15.6201 0
      vertex -8.3589 -13.1715 0
    endloop
  endfacet
  facet normal 0 0 1
    outer loop
      vertex -11.7923 -14.2545 0
      vertex -9.94381 -12.02 0
      vertex -11.3719 -10.6789 0
    endloop
  endfacet
  facet normal 0 0 1
    outer loop
      vertex -9.94381 -12.02 0
      vertex -11.7923 -14.2545 0
      vertex -9.9128 -15.6201 0
    endloop
  endfacet
  facet normal 0 0 1
    outer loop
      vertex -13.4859 -12.6641 0
      vertex -11.3719 -10.6789 0
      vertex -12.6207 -9.16945 0
    endloop
  endfacet
  facet normal 0 0 1
    outer loop
      vertex -11.3719 -10.6789 0
      vertex -13.4859 -12.6641 0
      vertex -11.7923 -14.2545 0
    endloop
  endfacet
  facet normal 0 0 1
    outer loop
      vertex -14.9668 -10.874 0
      vertex -12.6207 -9.16945 0
      vertex -13.6704 -7.51536 0
    endloop
  endfacet
  facet normal 0 0 1
    outer loop
      vertex -16.2117 -8.91244 0
      vertex -13.6704 -7.51536 0
      vertex -14.5045 -5.74274 0
    endloop
  endfacet
  facet normal 0 0 1
    outer loop
      vertex -12.6207 -9.16945 0
      vertex -14.9668 -10.874 0
      vertex -13.4859 -12.6641 0
    endloop
  endfacet
  facet normal 0 0 1
    outer loop
      vertex -17.2009 -6.8103 0
      vertex -14.5045 -5.74274 0
      vertex -15.1099 -3.87956 0
    endloop
  endfacet
  facet normal 0 0 1
    outer loop
      vertex -17.9188 -4.60076 0
      vertex -15.1099 -3.87956 0
      vertex -15.477 -1.9552 0
    endloop
  endfacet
  facet normal 0 0 1
    outer loop
      vertex -18.3541 -2.31866 0
      vertex -15.477 -1.9552 0
      vertex -15.6 0 0
    endloop
  endfacet
  facet normal 0 0 1
    outer loop
      vertex -15.1099 3.87956 0
      vertex -17.9188 4.60076 0
      vertex -15.477 1.9552 0
    endloop
  endfacet
  facet normal 0 0 1
    outer loop
      vertex -13.6704 -7.51536 0
      vertex -16.2117 -8.91244 0
      vertex -14.9668 -10.874 0
    endloop
  endfacet
  facet normal -0 0 1
    outer loop
      vertex -18.3541 2.31866 0
      vertex -15.477 1.9552 0
      vertex -17.9188 4.60076 0
    endloop
  endfacet
  facet normal 0 0 1
    outer loop
      vertex -14.5045 -5.74274 0
      vertex -17.2009 -6.8103 0
      vertex -16.2117 -8.91244 0
    endloop
  endfacet
  facet normal 0 0 1
    outer loop
      vertex -15.477 1.9552 0
      vertex -18.3541 2.31866 0
      vertex -15.6 0 0
    endloop
  endfacet
  facet normal 0 0 1
    outer loop
      vertex -15.1099 -3.87956 0
      vertex -17.9188 -4.60076 0
      vertex -17.2009 -6.8103 0
    endloop
  endfacet
  facet normal 0 0 1
    outer loop
      vertex -18.5 0 0
      vertex -15.6 0 0
      vertex -18.3541 2.31866 0
    endloop
  endfacet
  facet normal 0 0 1
    outer loop
      vertex -15.477 -1.9552 0
      vertex -18.3541 -2.31866 0
      vertex -17.9188 -4.60076 0
    endloop
  endfacet
  facet normal 0 0 1
    outer loop
      vertex -15.6 0 0
      vertex -18.5 0 0
      vertex -18.3541 -2.31866 0
    endloop
  endfacet
  facet normal -0.481742 0.876313 0
    outer loop
      vertex -7.87692 16.7393 -4
      vertex -9.9128 15.6201 0
      vertex -7.87692 16.7393 0
    endloop
  endfacet
  facet normal -0.481742 0.876313 0
    outer loop
      vertex -9.9128 15.6201 0
      vertex -7.87692 16.7393 -4
      vertex -9.9128 15.6201 -4
    endloop
  endfacet
  facet normal -0.587803 0.809004 0
    outer loop
      vertex -9.9128 15.6201 -4
      vertex -11.7923 14.2545 0
      vertex -9.9128 15.6201 0
    endloop
  endfacet
  facet normal -0.587803 0.809004 0
    outer loop
      vertex -11.7923 14.2545 0
      vertex -9.9128 15.6201 -4
      vertex -11.7923 14.2545 -4
    endloop
  endfacet
  facet normal -0.125342 0.992114 0
    outer loop
      vertex -1.16162 18.4635 -4
      vertex -3.46655 18.1723 0
      vertex -1.16162 18.4635 0
    endloop
  endfacet
  facet normal -0.125342 0.992114 0
    outer loop
      vertex -3.46655 18.1723 0
      vertex -1.16162 18.4635 -4
      vertex -3.46655 18.1723 -4
    endloop
  endfacet
  facet normal 0.998026 -0.0628001 0
    outer loop
      vertex 18.3541 -2.31866 0
      vertex 18.5 0 -4
      vertex 18.5 0 0
    endloop
  endfacet
  facet normal 0.998026 -0.0628001 0
    outer loop
      vertex 18.5 0 -4
      vertex 18.3541 -2.31866 0
      vertex 18.3541 -2.31866 -4
    endloop
  endfacet
  facet normal 0.770513 -0.637424 0
    outer loop
      vertex 13.4859 -12.6641 0
      vertex 14.9668 -10.874 -4
      vertex 14.9668 -10.874 0
    endloop
  endfacet
  facet normal 0.770513 -0.637424 0
    outer loop
      vertex 14.9668 -10.874 -4
      vertex 13.4859 -12.6641 0
      vertex 13.4859 -12.6641 -4
    endloop
  endfacet
  facet normal 0.951059 -0.309008 0
    outer loop
      vertex 17.2009 -6.8103 0
      vertex 17.9188 -4.60076 -4
      vertex 17.9188 -4.60076 0
    endloop
  endfacet
  facet normal 0.951059 -0.309008 0
    outer loop
      vertex 17.9188 -4.60076 -4
      vertex 17.2009 -6.8103 0
      vertex 17.2009 -6.8103 -4
    endloop
  endfacet
  facet normal 0.98229 -0.187367 0
    outer loop
      vertex 17.9188 -4.60076 0
      vertex 18.3541 -2.31866 -4
      vertex 18.3541 -2.31866 0
    endloop
  endfacet
  facet normal 0.98229 -0.187367 0
    outer loop
      vertex 18.3541 -2.31866 -4
      vertex 17.9188 -4.60076 0
      vertex 17.9188 -4.60076 -4
    endloop
  endfacet
  facet normal -0.904826 -0.425782 0
    outer loop
      vertex -16.2117 -8.91244 -4
      vertex -17.2009 -6.8103 0
      vertex -17.2009 -6.8103 -4
    endloop
  endfacet
  facet normal -0.904826 -0.425782 0
    outer loop
      vertex -17.2009 -6.8103 0
      vertex -16.2117 -8.91244 -4
      vertex -16.2117 -8.91244 0
    endloop
  endfacet
  facet normal 0 0 -1
    outer loop
      vertex 18.3541 -2.31866 -4
      vertex 18.3541 2.31866 -4
      vertex 18.5 0 -4
    endloop
  endfacet
  facet normal 0 0 -1
    outer loop
      vertex 17.9188 -4.60076 -4
      vertex 18.3541 2.31866 -4
      vertex 18.3541 -2.31866 -4
    endloop
  endfacet
  facet normal 0 0 -1
    outer loop
      vertex 17.9188 -4.60076 -4
      vertex 17.9188 4.60076 -4
      vertex 18.3541 2.31866 -4
    endloop
  endfacet
  facet normal 0 0 -1
    outer loop
      vertex 17.2009 -6.8103 -4
      vertex 17.9188 4.60076 -4
      vertex 17.9188 -4.60076 -4
    endloop
  endfacet
  facet normal 0 0 -1
    outer loop
      vertex 17.2009 -6.8103 -4
      vertex 17.2009 6.8103 -4
      vertex 17.9188 4.60076 -4
    endloop
  endfacet
  facet normal 0 0 -1
    outer loop
      vertex 16.2117 -8.91244 -4
      vertex 17.2009 6.8103 -4
      vertex 17.2009 -6.8103 -4
    endloop
  endfacet
  facet normal 0 0 -1
    outer loop
      vertex 16.2117 -8.91244 -4
      vertex 16.2117 8.91244 -4
      vertex 17.2009 6.8103 -4
    endloop
  endfacet
  facet normal 0 0 -1
    outer loop
      vertex 14.9668 -10.874 -4
      vertex 16.2117 8.91244 -4
      vertex 16.2117 -8.91244 -4
    endloop
  endfacet
  facet normal 0 0 -1
    outer loop
      vertex 14.9668 -10.874 -4
      vertex 14.9668 10.874 -4
      vertex 16.2117 8.91244 -4
    endloop
  endfacet
  facet normal 0 0 -1
    outer loop
      vertex 13.4859 -12.6641 -4
      vertex 14.9668 10.874 -4
      vertex 14.9668 -10.874 -4
    endloop
  endfacet
  facet normal 0 0 -1
    outer loop
      vertex 13.4859 -12.6641 -4
      vertex 13.4859 12.6641 -4
      vertex 14.9668 10.874 -4
    endloop
  endfacet
  facet normal 0 0 -1
    outer loop
      vertex 11.7923 -14.2545 -4
      vertex 13.4859 12.6641 -4
      vertex 13.4859 -12.6641 -4
    endloop
  endfacet
  facet normal 0 0 -1
    outer loop
      vertex 11.7923 -14.2545 -4
      vertex 11.7923 14.2545 -4
      vertex 13.4859 12.6641 -4
    endloop
  endfacet
  facet normal 0 0 -1
    outer loop
      vertex 9.9128 -15.6201 -4
      vertex 11.7923 14.2545 -4
      vertex 11.7923 -14.2545 -4
    endloop
  endfacet
  facet normal 0 0 -1
    outer loop
      vertex 9.9128 -15.6201 -4
      vertex 9.9128 15.6201 -4
      vertex 11.7923 14.2545 -4
    endloop
  endfacet
  facet normal 0 0 -1
    outer loop
      vertex 7.87692 -16.7393 -4
      vertex 9.9128 15.6201 -4
      vertex 9.9128 -15.6201 -4
    endloop
  endfacet
  facet normal 0 0 -1
    outer loop
      vertex 7.87692 -16.7393 -4
      vertex 7.87692 16.7393 -4
      vertex 9.9128 15.6201 -4
    endloop
  endfacet
  facet normal 0 0 -1
    outer loop
      vertex 5.71681 -17.5945 -4
      vertex 7.87692 16.7393 -4
      vertex 7.87692 -16.7393 -4
    endloop
  endfacet
  facet normal 0 0 -1
    outer loop
      vertex 5.71681 -17.5945 -4
      vertex 5.71681 17.5945 -4
      vertex 7.87692 16.7393 -4
    endloop
  endfacet
  facet normal 0 0 -1
    outer loop
      vertex 3.46655 -18.1723 -4
      vertex 5.71681 17.5945 -4
      vertex 5.71681 -17.5945 -4
    endloop
  endfacet
  facet normal 0 0 -1
    outer loop
      vertex 3.46655 -18.1723 -4
      vertex 3.46655 18.1723 -4
      vertex 5.71681 17.5945 -4
    endloop
  endfacet
  facet normal 0 0 -1
    outer loop
      vertex 1.16162 -18.4635 -4
      vertex 3.46655 18.1723 -4
      vertex 3.46655 -18.1723 -4
    endloop
  endfacet
  facet normal 0 0 -1
    outer loop
      vertex 1.16162 -18.4635 -4
      vertex 1.16162 18.4635 -4
      vertex 3.46655 18.1723 -4
    endloop
  endfacet
  facet normal 0 0 -1
    outer loop
      vertex -1.16162 -18.4635 -4
      vertex 1.16162 18.4635 -4
      vertex 1.16162 -18.4635 -4
    endloop
  endfacet
  facet normal 0 0 -1
    outer loop
      vertex -1.16162 -18.4635 -4
      vertex -1.16162 18.4635 -4
      vertex 1.16162 18.4635 -4
    endloop
  endfacet
  facet normal 0 0 -1
    outer loop
      vertex -3.46655 -18.1723 -4
      vertex -1.16162 18.4635 -4
      vertex -1.16162 -18.4635 -4
    endloop
  endfacet
  facet normal 0 0 -1
    outer loop
      vertex -3.46655 -18.1723 -4
      vertex -3.46655 18.1723 -4
      vertex -1.16162 18.4635 -4
    endloop
  endfacet
  facet normal 0 0 -1
    outer loop
      vertex -5.71681 -17.5945 -4
      vertex -3.46655 18.1723 -4
      vertex -3.46655 -18.1723 -4
    endloop
  endfacet
  facet normal 0 0 -1
    outer loop
      vertex -5.71681 -17.5945 -4
      vertex -5.71681 17.5945 -4
      vertex -3.46655 18.1723 -4
    endloop
  endfacet
  facet normal 0 0 -1
    outer loop
      vertex -7.87692 -16.7393 -4
      vertex -5.71681 17.5945 -4
      vertex -5.71681 -17.5945 -4
    endloop
  endfacet
  facet normal 0 0 -1
    outer loop
      vertex -7.87692 -16.7393 -4
      vertex -7.87692 16.7393 -4
      vertex -5.71681 17.5945 -4
    endloop
  endfacet
  facet normal 0 0 -1
    outer loop
      vertex -9.9128 -15.6201 -4
      vertex -7.87692 16.7393 -4
      vertex -7.87692 -16.7393 -4
    endloop
  endfacet
  facet normal 0 0 -1
    outer loop
      vertex -9.9128 -15.6201 -4
      vertex -9.9128 15.6201 -4
      vertex -7.87692 16.7393 -4
    endloop
  endfacet
  facet normal 0 0 -1
    outer loop
      vertex -11.7923 -14.2545 -4
      vertex -9.9128 15.6201 -4
      vertex -9.9128 -15.6201 -4
    endloop
  endfacet
  facet normal 0 0 -1
    outer loop
      vertex -11.7923 -14.2545 -4
      vertex -11.7923 14.2545 -4
      vertex -9.9128 15.6201 -4
    endloop
  endfacet
  facet normal 0 0 -1
    outer loop
      vertex -13.4859 -12.6641 -4
      vertex -11.7923 14.2545 -4
      vertex -11.7923 -14.2545 -4
    endloop
  endfacet
  facet normal 0 0 -1
    outer loop
      vertex -13.4859 -12.6641 -4
      vertex -13.4859 12.6641 -4
      vertex -11.7923 14.2545 -4
    endloop
  endfacet
  facet normal 0 0 -1
    outer loop
      vertex -14.9668 -10.874 -4
      vertex -13.4859 12.6641 -4
      vertex -13.4859 -12.6641 -4
    endloop
  endfacet
  facet normal 0 0 -1
    outer loop
      vertex -14.9668 -10.874 -4
      vertex -14.9668 10.874 -4
      vertex -13.4859 12.6641 -4
    endloop
  endfacet
  facet normal 0 0 -1
    outer loop
      vertex -16.2117 -8.91244 -4
      vertex -14.9668 10.874 -4
      vertex -14.9668 -10.874 -4
    endloop
  endfacet
  facet normal 0 0 -1
    outer loop
      vertex -16.2117 -8.91244 -4
      vertex -16.2117 8.91244 -4
      vertex -14.9668 10.874 -4
    endloop
  endfacet
  facet normal 0 0 -1
    outer loop
      vertex -17.2009 -6.8103 -4
      vertex -16.2117 8.91244 -4
      vertex -16.2117 -8.91244 -4
    endloop
  endfacet
  facet normal 0 0 -1
    outer loop
      vertex -17.2009 -6.8103 -4
      vertex -17.2009 6.8103 -4
      vertex -16.2117 8.91244 -4
    endloop
  endfacet
  facet normal 0 0 -1
    outer loop
      vertex -17.9188 -4.60076 -4
      vertex -17.2009 6.8103 -4
      vertex -17.2009 -6.8103 -4
    endloop
  endfacet
  facet normal 0 0 -1
    outer loop
      vertex -17.9188 -4.60076 -4
      vertex -17.9188 4.60076 -4
      vertex -17.2009 6.8103 -4
    endloop
  endfacet
  facet normal 0 0 -1
    outer loop
      vertex -18.3541 -2.31866 -4
      vertex -17.9188 4.60076 -4
      vertex -17.9188 -4.60076 -4
    endloop
  endfacet
  facet normal 0 0 -1
    outer loop
      vertex -18.3541 -2.31866 -4
      vertex -18.3541 2.31866 -4
      vertex -17.9188 4.60076 -4
    endloop
  endfacet
  facet normal 0 -0 -1
    outer loop
      vertex -18.3541 2.31866 -4
      vertex -18.3541 -2.31866 -4
      vertex -18.5 0 -4
    endloop
  endfacet
  facet normal 0.481742 -0.876313 0
    outer loop
      vertex 7.87692 -16.7393 -4
      vertex 9.9128 -15.6201 0
      vertex 7.87692 -16.7393 0
    endloop
  endfacet
  facet normal 0.481742 -0.876313 0
    outer loop
      vertex 9.9128 -15.6201 0
      vertex 7.87692 -16.7393 -4
      vertex 9.9128 -15.6201 -4
    endloop
  endfacet
  facet normal 0.684548 -0.728968 0
    outer loop
      vertex 11.7923 -14.2545 -4
      vertex 13.4859 -12.6641 0
      vertex 11.7923 -14.2545 0
    endloop
  endfacet
  facet normal 0.684548 -0.728968 0
    outer loop
      vertex 13.4859 -12.6641 0
      vertex 11.7923 -14.2545 -4
      vertex 13.4859 -12.6641 -4
    endloop
  endfacet
  facet normal 0.844317 -0.535844 0
    outer loop
      vertex 14.9668 -10.874 0
      vertex 16.2117 -8.91244 -4
      vertex 16.2117 -8.91244 0
    endloop
  endfacet
  facet normal 0.844317 -0.535844 0
    outer loop
      vertex 16.2117 -8.91244 -4
      vertex 14.9668 -10.874 0
      vertex 14.9668 -10.874 -4
    endloop
  endfacet
  facet normal -0.951059 -0.309008 0
    outer loop
      vertex -17.2009 -6.8103 -4
      vertex -17.9188 -4.60076 0
      vertex -17.9188 -4.60076 -4
    endloop
  endfacet
  facet normal -0.951059 -0.309008 0
    outer loop
      vertex -17.9188 -4.60076 0
      vertex -17.2009 -6.8103 -4
      vertex -17.2009 -6.8103 0
    endloop
  endfacet
  facet normal 0.368107 -0.929784 0
    outer loop
      vertex 5.71681 -17.5945 -4
      vertex 7.87692 -16.7393 0
      vertex 5.71681 -17.5945 0
    endloop
  endfacet
  facet normal 0.368107 -0.929784 0
    outer loop
      vertex 7.87692 -16.7393 0
      vertex 5.71681 -17.5945 -4
      vertex 7.87692 -16.7393 -4
    endloop
  endfacet
  facet normal 0.248703 -0.96858 0
    outer loop
      vertex 3.46655 -18.1723 -4
      vertex 5.71681 -17.5945 0
      vertex 3.46655 -18.1723 0
    endloop
  endfacet
  facet normal 0.248703 -0.96858 0
    outer loop
      vertex 5.71681 -17.5945 0
      vertex 3.46655 -18.1723 -4
      vertex 5.71681 -17.5945 -4
    endloop
  endfacet
  facet normal 0.904826 -0.425782 0
    outer loop
      vertex 16.2117 -8.91244 0
      vertex 17.2009 -6.8103 -4
      vertex 17.2009 -6.8103 0
    endloop
  endfacet
  facet normal 0.904826 -0.425782 0
    outer loop
      vertex 17.2009 -6.8103 -4
      vertex 16.2117 -8.91244 0
      vertex 16.2117 -8.91244 -4
    endloop
  endfacet
  facet normal -0.125342 -0.992114 0
    outer loop
      vertex -3.46655 -18.1723 -4
      vertex -1.16162 -18.4635 0
      vertex -3.46655 -18.1723 0
    endloop
  endfacet
  facet normal -0.125342 -0.992114 -0
    outer loop
      vertex -1.16162 -18.4635 0
      vertex -3.46655 -18.1723 -4
      vertex -1.16162 -18.4635 -4
    endloop
  endfacet
  facet normal -0.368107 -0.929784 0
    outer loop
      vertex -7.87692 -16.7393 -4
      vertex -5.71681 -17.5945 0
      vertex -7.87692 -16.7393 0
    endloop
  endfacet
  facet normal -0.368107 -0.929784 -0
    outer loop
      vertex -5.71681 -17.5945 0
      vertex -7.87692 -16.7393 -4
      vertex -5.71681 -17.5945 -4
    endloop
  endfacet
  facet normal -0.248703 -0.96858 0
    outer loop
      vertex -5.71681 -17.5945 -4
      vertex -3.46655 -18.1723 0
      vertex -5.71681 -17.5945 0
    endloop
  endfacet
  facet normal -0.248703 -0.96858 -0
    outer loop
      vertex -3.46655 -18.1723 0
      vertex -5.71681 -17.5945 -4
      vertex -3.46655 -18.1723 -4
    endloop
  endfacet
  facet normal -0.770513 -0.637424 0
    outer loop
      vertex -13.4859 -12.6641 -4
      vertex -14.9668 -10.874 0
      vertex -14.9668 -10.874 -4
    endloop
  endfacet
  facet normal -0.770513 -0.637424 0
    outer loop
      vertex -14.9668 -10.874 0
      vertex -13.4859 -12.6641 -4
      vertex -13.4859 -12.6641 0
    endloop
  endfacet
  facet normal -0.684548 -0.728968 0
    outer loop
      vertex -13.4859 -12.6641 -4
      vertex -11.7923 -14.2545 0
      vertex -13.4859 -12.6641 0
    endloop
  endfacet
  facet normal -0.684548 -0.728968 -0
    outer loop
      vertex -11.7923 -14.2545 0
      vertex -13.4859 -12.6641 -4
      vertex -11.7923 -14.2545 -4
    endloop
  endfacet
  facet normal -0.98229 -0.187367 0
    outer loop
      vertex -17.9188 -4.60076 -4
      vertex -18.3541 -2.31866 0
      vertex -18.3541 -2.31866 -4
    endloop
  endfacet
  facet normal -0.98229 -0.187367 0
    outer loop
      vertex -18.3541 -2.31866 0
      vertex -17.9188 -4.60076 -4
      vertex -17.9188 -4.60076 0
    endloop
  endfacet
  facet normal -0.998026 -0.0628001 0
    outer loop
      vertex -18.3541 -2.31866 -4
      vertex -18.5 0 0
      vertex -18.5 0 -4
    endloop
  endfacet
  facet normal -0.998026 -0.0628001 0
    outer loop
      vertex -18.5 0 0
      vertex -18.3541 -2.31866 -4
      vertex -18.3541 -2.31866 0
    endloop
  endfacet
  facet normal 0.587803 -0.809004 0
    outer loop
      vertex 9.9128 -15.6201 -4
      vertex 11.7923 -14.2545 0
      vertex 9.9128 -15.6201 0
    endloop
  endfacet
  facet normal 0.587803 -0.809004 0
    outer loop
      vertex 11.7923 -14.2545 0
      vertex 9.9128 -15.6201 -4
      vertex 11.7923 -14.2545 -4
    endloop
  endfacet
  facet normal -0.844317 -0.535844 0
    outer loop
      vertex -14.9668 -10.874 -4
      vertex -16.2117 -8.91244 0
      vertex -16.2117 -8.91244 -4
    endloop
  endfacet
  facet normal -0.844317 -0.535844 0
    outer loop
      vertex -16.2117 -8.91244 0
      vertex -14.9668 -10.874 -4
      vertex -14.9668 -10.874 0
    endloop
  endfacet
  facet normal -0.481742 -0.876313 0
    outer loop
      vertex -9.9128 -15.6201 -4
      vertex -7.87692 -16.7393 0
      vertex -9.9128 -15.6201 0
    endloop
  endfacet
  facet normal -0.481742 -0.876313 -0
    outer loop
      vertex -7.87692 -16.7393 0
      vertex -9.9128 -15.6201 -4
      vertex -7.87692 -16.7393 -4
    endloop
  endfacet
  facet normal -0.587803 -0.809004 0
    outer loop
      vertex -11.7923 -14.2545 -4
      vertex -9.9128 -15.6201 0
      vertex -11.7923 -14.2545 0
    endloop
  endfacet
  facet normal -0.587803 -0.809004 -0
    outer loop
      vertex -9.9128 -15.6201 0
      vertex -11.7923 -14.2545 -4
      vertex -9.9128 -15.6201 -4
    endloop
  endfacet
  facet normal -0.998027 -0.0627851 0
    outer loop
      vertex 15.6 0 -3
      vertex 15.477 1.9552 0
      vertex 15.477 1.9552 -3
    endloop
  endfacet
  facet normal -0.998027 -0.0627851 0
    outer loop
      vertex 15.477 1.9552 0
      vertex 15.6 0 -3
      vertex 15.6 0 0
    endloop
  endfacet
  facet normal 0.998027 -0.0627851 0
    outer loop
      vertex -15.6 0 0
      vertex -15.477 1.9552 -3
      vertex -15.477 1.9552 0
    endloop
  endfacet
  facet normal 0.998027 -0.0627851 0
    outer loop
      vertex -15.477 1.9552 -3
      vertex -15.6 0 0
      vertex -15.6 0 -3
    endloop
  endfacet
  facet normal 0 -1 0
    outer loop
      vertex -0.979531 15.5692 -3
      vertex 0.979531 15.5692 0
      vertex -0.979531 15.5692 0
    endloop
  endfacet
  facet normal 0 -1 -0
    outer loop
      vertex 0.979531 15.5692 0
      vertex -0.979531 15.5692 -3
      vertex 0.979531 15.5692 -3
    endloop
  endfacet
  facet normal 0 1 -0
    outer loop
      vertex 0.979531 -15.5692 -3
      vertex -0.979531 -15.5692 0
      vertex 0.979531 -15.5692 0
    endloop
  endfacet
  facet normal 0 1 0
    outer loop
      vertex -0.979531 -15.5692 0
      vertex 0.979531 -15.5692 -3
      vertex -0.979531 -15.5692 -3
    endloop
  endfacet
  facet normal -0.684556 -0.72896 0
    outer loop
      vertex 9.94381 12.02 -3
      vertex 11.3719 10.6789 0
      vertex 9.94381 12.02 0
    endloop
  endfacet
  facet normal -0.684556 -0.72896 -0
    outer loop
      vertex 11.3719 10.6789 0
      vertex 9.94381 12.02 -3
      vertex 11.3719 10.6789 -3
    endloop
  endfacet
  facet normal 0.684556 -0.72896 0
    outer loop
      vertex -11.3719 10.6789 -3
      vertex -9.94381 12.02 0
      vertex -11.3719 10.6789 0
    endloop
  endfacet
  facet normal 0.684556 -0.72896 0
    outer loop
      vertex -9.94381 12.02 0
      vertex -11.3719 10.6789 -3
      vertex -9.94381 12.02 -3
    endloop
  endfacet
  facet normal 0.368132 -0.929773 0
    outer loop
      vertex -6.64216 14.1153 -3
      vertex -4.82066 14.8365 0
      vertex -6.64216 14.1153 0
    endloop
  endfacet
  facet normal 0.368132 -0.929773 0
    outer loop
      vertex -4.82066 14.8365 0
      vertex -6.64216 14.1153 -3
      vertex -4.82066 14.8365 -3
    endloop
  endfacet
  facet normal -0.904833 -0.425766 0
    outer loop
      vertex 14.5045 5.74274 -3
      vertex 13.6704 7.51536 0
      vertex 13.6704 7.51536 -3
    endloop
  endfacet
  facet normal -0.904833 -0.425766 0
    outer loop
      vertex 13.6704 7.51536 0
      vertex 14.5045 5.74274 -3
      vertex 14.5045 5.74274 0
    endloop
  endfacet
  facet normal -0.844332 -0.53582 0
    outer loop
      vertex 13.6704 7.51536 -3
      vertex 12.6207 9.16945 0
      vertex 12.6207 9.16945 -3
    endloop
  endfacet
  facet normal -0.844332 -0.53582 0
    outer loop
      vertex 12.6207 9.16945 0
      vertex 13.6704 7.51536 -3
      vertex 13.6704 7.51536 0
    endloop
  endfacet
  facet normal -0.368132 -0.929773 0
    outer loop
      vertex 4.82066 14.8365 -3
      vertex 6.64216 14.1153 0
      vertex 4.82066 14.8365 0
    endloop
  endfacet
  facet normal -0.368132 -0.929773 -0
    outer loop
      vertex 6.64216 14.1153 0
      vertex 4.82066 14.8365 -3
      vertex 6.64216 14.1153 -3
    endloop
  endfacet
  facet normal -0.248691 -0.968583 0
    outer loop
      vertex 2.92315 15.3237 -3
      vertex 4.82066 14.8365 0
      vertex 2.92315 15.3237 0
    endloop
  endfacet
  facet normal -0.248691 -0.968583 -0
    outer loop
      vertex 4.82066 14.8365 0
      vertex 2.92315 15.3237 -3
      vertex 4.82066 14.8365 -3
    endloop
  endfacet
  facet normal -0.587784 -0.809018 0
    outer loop
      vertex 8.3589 13.1715 -3
      vertex 9.94381 12.02 0
      vertex 8.3589 13.1715 0
    endloop
  endfacet
  facet normal -0.587784 -0.809018 -0
    outer loop
      vertex 9.94381 12.02 0
      vertex 8.3589 13.1715 -3
      vertex 9.94381 12.02 -3
    endloop
  endfacet
  facet normal 0.904833 -0.425766 0
    outer loop
      vertex -14.5045 5.74274 0
      vertex -13.6704 7.51536 -3
      vertex -13.6704 7.51536 0
    endloop
  endfacet
  facet normal 0.904833 -0.425766 0
    outer loop
      vertex -13.6704 7.51536 -3
      vertex -14.5045 5.74274 0
      vertex -14.5045 5.74274 -3
    endloop
  endfacet
  facet normal 0.770495 -0.637447 0
    outer loop
      vertex -12.6207 9.16945 0
      vertex -11.3719 10.6789 -3
      vertex -11.3719 10.6789 0
    endloop
  endfacet
  facet normal 0.770495 -0.637447 0
    outer loop
      vertex -11.3719 10.6789 -3
      vertex -12.6207 9.16945 0
      vertex -12.6207 9.16945 -3
    endloop
  endfacet
  facet normal 0.481759 -0.876304 0
    outer loop
      vertex -8.3589 13.1715 -3
      vertex -6.64216 14.1153 0
      vertex -8.3589 13.1715 0
    endloop
  endfacet
  facet normal 0.481759 -0.876304 0
    outer loop
      vertex -6.64216 14.1153 0
      vertex -8.3589 13.1715 -3
      vertex -6.64216 14.1153 -3
    endloop
  endfacet
  facet normal 0.125315 -0.992117 0
    outer loop
      vertex -2.92315 15.3237 -3
      vertex -0.979531 15.5692 0
      vertex -2.92315 15.3237 0
    endloop
  endfacet
  facet normal 0.125315 -0.992117 0
    outer loop
      vertex -0.979531 15.5692 0
      vertex -2.92315 15.3237 -3
      vertex -0.979531 15.5692 -3
    endloop
  endfacet
  facet normal 0 0 1
    outer loop
      vertex 15.477 1.9552 -3
      vertex 15.477 -1.9552 -3
      vertex 15.6 0 -3
    endloop
  endfacet
  facet normal 0 0 1
    outer loop
      vertex 15.1099 3.87956 -3
      vertex 15.477 -1.9552 -3
      vertex 15.477 1.9552 -3
    endloop
  endfacet
  facet normal 0 0 1
    outer loop
      vertex 15.1099 3.87956 -3
      vertex 15.1099 -3.87956 -3
      vertex 15.477 -1.9552 -3
    endloop
  endfacet
  facet normal 0 0 1
    outer loop
      vertex 14.5045 5.74274 -3
      vertex 15.1099 -3.87956 -3
      vertex 15.1099 3.87956 -3
    endloop
  endfacet
  facet normal 0 0 1
    outer loop
      vertex 14.5045 5.74274 -3
      vertex 14.5045 -5.74274 -3
      vertex 15.1099 -3.87956 -3
    endloop
  endfacet
  facet normal 0 0 1
    outer loop
      vertex 13.6704 7.51536 -3
      vertex 14.5045 -5.74274 -3
      vertex 14.5045 5.74274 -3
    endloop
  endfacet
  facet normal 0 0 1
    outer loop
      vertex 13.6704 7.51536 -3
      vertex 13.6704 -7.51536 -3
      vertex 14.5045 -5.74274 -3
    endloop
  endfacet
  facet normal 0 0 1
    outer loop
      vertex 12.6207 9.16945 -3
      vertex 13.6704 -7.51536 -3
      vertex 13.6704 7.51536 -3
    endloop
  endfacet
  facet normal 0 0 1
    outer loop
      vertex 12.6207 9.16945 -3
      vertex 12.6207 -9.16945 -3
      vertex 13.6704 -7.51536 -3
    endloop
  endfacet
  facet normal 0 0 1
    outer loop
      vertex 11.3719 10.6789 -3
      vertex 12.6207 -9.16945 -3
      vertex 12.6207 9.16945 -3
    endloop
  endfacet
  facet normal 0 0 1
    outer loop
      vertex 11.3719 10.6789 -3
      vertex 11.3719 -10.6789 -3
      vertex 12.6207 -9.16945 -3
    endloop
  endfacet
  facet normal 0 0 1
    outer loop
      vertex 9.94381 12.02 -3
      vertex 11.3719 -10.6789 -3
      vertex 11.3719 10.6789 -3
    endloop
  endfacet
  facet normal 0 0 1
    outer loop
      vertex 9.94381 12.02 -3
      vertex 9.94381 -12.02 -3
      vertex 11.3719 -10.6789 -3
    endloop
  endfacet
  facet normal 0 0 1
    outer loop
      vertex 8.3589 13.1715 -3
      vertex 9.94381 -12.02 -3
      vertex 9.94381 12.02 -3
    endloop
  endfacet
  facet normal 0 0 1
    outer loop
      vertex 8.3589 13.1715 -3
      vertex 8.3589 -13.1715 -3
      vertex 9.94381 -12.02 -3
    endloop
  endfacet
  facet normal 0 0 1
    outer loop
      vertex 6.64216 14.1153 -3
      vertex 8.3589 -13.1715 -3
      vertex 8.3589 13.1715 -3
    endloop
  endfacet
  facet normal 0 0 1
    outer loop
      vertex 6.64216 14.1153 -3
      vertex 6.64216 -14.1153 -3
      vertex 8.3589 -13.1715 -3
    endloop
  endfacet
  facet normal 0 0 1
    outer loop
      vertex 4.82066 14.8365 -3
      vertex 6.64216 -14.1153 -3
      vertex 6.64216 14.1153 -3
    endloop
  endfacet
  facet normal 0 0 1
    outer loop
      vertex 4.82066 14.8365 -3
      vertex 4.82066 -14.8365 -3
      vertex 6.64216 -14.1153 -3
    endloop
  endfacet
  facet normal 0 0 1
    outer loop
      vertex 2.92315 15.3237 -3
      vertex 4.82066 -14.8365 -3
      vertex 4.82066 14.8365 -3
    endloop
  endfacet
  facet normal 0 0 1
    outer loop
      vertex 2.92315 15.3237 -3
      vertex 2.92315 -15.3237 -3
      vertex 4.82066 -14.8365 -3
    endloop
  endfacet
  facet normal 0 0 1
    outer loop
      vertex 0.979531 15.5692 -3
      vertex 2.92315 -15.3237 -3
      vertex 2.92315 15.3237 -3
    endloop
  endfacet
  facet normal 0 0 1
    outer loop
      vertex 0.979531 15.5692 -3
      vertex 0.979531 -15.5692 -3
      vertex 2.92315 -15.3237 -3
    endloop
  endfacet
  facet normal -0 0 1
    outer loop
      vertex -0.979531 15.5692 -3
      vertex 0.979531 -15.5692 -3
      vertex 0.979531 15.5692 -3
    endloop
  endfacet
  facet normal 0 0 1
    outer loop
      vertex -0.979531 15.5692 -3
      vertex -0.979531 -15.5692 -3
      vertex 0.979531 -15.5692 -3
    endloop
  endfacet
  facet normal -0 0 1
    outer loop
      vertex -2.92315 15.3237 -3
      vertex -0.979531 -15.5692 -3
      vertex -0.979531 15.5692 -3
    endloop
  endfacet
  facet normal 0 0 1
    outer loop
      vertex -2.92315 15.3237 -3
      vertex -2.92315 -15.3237 -3
      vertex -0.979531 -15.5692 -3
    endloop
  endfacet
  facet normal -0 0 1
    outer loop
      vertex -4.82066 14.8365 -3
      vertex -2.92315 -15.3237 -3
      vertex -2.92315 15.3237 -3
    endloop
  endfacet
  facet normal 0 0 1
    outer loop
      vertex -4.82066 14.8365 -3
      vertex -4.82066 -14.8365 -3
      vertex -2.92315 -15.3237 -3
    endloop
  endfacet
  facet normal -0 0 1
    outer loop
      vertex -6.64216 14.1153 -3
      vertex -4.82066 -14.8365 -3
      vertex -4.82066 14.8365 -3
    endloop
  endfacet
  facet normal 0 0 1
    outer loop
      vertex -6.64216 14.1153 -3
      vertex -6.64216 -14.1153 -3
      vertex -4.82066 -14.8365 -3
    endloop
  endfacet
  facet normal -0 0 1
    outer loop
      vertex -8.3589 13.1715 -3
      vertex -6.64216 -14.1153 -3
      vertex -6.64216 14.1153 -3
    endloop
  endfacet
  facet normal 0 0 1
    outer loop
      vertex -8.3589 13.1715 -3
      vertex -8.3589 -13.1715 -3
      vertex -6.64216 -14.1153 -3
    endloop
  endfacet
  facet normal -0 0 1
    outer loop
      vertex -9.94381 12.02 -3
      vertex -8.3589 -13.1715 -3
      vertex -8.3589 13.1715 -3
    endloop
  endfacet
  facet normal 0 0 1
    outer loop
      vertex -9.94381 12.02 -3
      vertex -9.94381 -12.02 -3
      vertex -8.3589 -13.1715 -3
    endloop
  endfacet
  facet normal -0 0 1
    outer loop
      vertex -11.3719 10.6789 -3
      vertex -9.94381 -12.02 -3
      vertex -9.94381 12.02 -3
    endloop
  endfacet
  facet normal 0 0 1
    outer loop
      vertex -11.3719 10.6789 -3
      vertex -11.3719 -10.6789 -3
      vertex -9.94381 -12.02 -3
    endloop
  endfacet
  facet normal -0 0 1
    outer loop
      vertex -12.6207 9.16945 -3
      vertex -11.3719 -10.6789 -3
      vertex -11.3719 10.6789 -3
    endloop
  endfacet
  facet normal 0 0 1
    outer loop
      vertex -12.6207 9.16945 -3
      vertex -12.6207 -9.16945 -3
      vertex -11.3719 -10.6789 -3
    endloop
  endfacet
  facet normal -0 0 1
    outer loop
      vertex -13.6704 7.51536 -3
      vertex -12.6207 -9.16945 -3
      vertex -12.6207 9.16945 -3
    endloop
  endfacet
  facet normal 0 0 1
    outer loop
      vertex -13.6704 7.51536 -3
      vertex -13.6704 -7.51536 -3
      vertex -12.6207 -9.16945 -3
    endloop
  endfacet
  facet normal -0 0 1
    outer loop
      vertex -14.5045 5.74274 -3
      vertex -13.6704 -7.51536 -3
      vertex -13.6704 7.51536 -3
    endloop
  endfacet
  facet normal 0 0 1
    outer loop
      vertex -14.5045 5.74274 -3
      vertex -14.5045 -5.74274 -3
      vertex -13.6704 -7.51536 -3
    endloop
  endfacet
  facet normal -0 0 1
    outer loop
      vertex -15.1099 3.87956 -3
      vertex -14.5045 -5.74274 -3
      vertex -14.5045 5.74274 -3
    endloop
  endfacet
  facet normal 0 0 1
    outer loop
      vertex -15.1099 3.87956 -3
      vertex -15.1099 -3.87956 -3
      vertex -14.5045 -5.74274 -3
    endloop
  endfacet
  facet normal -0 0 1
    outer loop
      vertex -15.477 1.9552 -3
      vertex -15.1099 -3.87956 -3
      vertex -15.1099 3.87956 -3
    endloop
  endfacet
  facet normal 0 0 1
    outer loop
      vertex -15.477 1.9552 -3
      vertex -15.477 -1.9552 -3
      vertex -15.1099 -3.87956 -3
    endloop
  endfacet
  facet normal 0 -0 1
    outer loop
      vertex -15.477 -1.9552 -3
      vertex -15.477 1.9552 -3
      vertex -15.6 0 -3
    endloop
  endfacet
  facet normal -0.125315 0.992117 0
    outer loop
      vertex 2.92315 -15.3237 -3
      vertex 0.979531 -15.5692 0
      vertex 2.92315 -15.3237 0
    endloop
  endfacet
  facet normal -0.125315 0.992117 0
    outer loop
      vertex 0.979531 -15.5692 0
      vertex 2.92315 -15.3237 -3
      vertex 0.979531 -15.5692 -3
    endloop
  endfacet
  facet normal -0.951054 -0.309024 0
    outer loop
      vertex 15.1099 3.87956 -3
      vertex 14.5045 5.74274 0
      vertex 14.5045 5.74274 -3
    endloop
  endfacet
  facet normal -0.951054 -0.309024 0
    outer loop
      vertex 14.5045 5.74274 0
      vertex 15.1099 3.87956 -3
      vertex 15.1099 3.87956 0
    endloop
  endfacet
  facet normal -0.982286 -0.187386 0
    outer loop
      vertex 15.477 1.9552 -3
      vertex 15.1099 3.87956 0
      vertex 15.1099 3.87956 -3
    endloop
  endfacet
  facet normal -0.982286 -0.187386 0
    outer loop
      vertex 15.1099 3.87956 0
      vertex 15.477 1.9552 -3
      vertex 15.477 1.9552 0
    endloop
  endfacet
  facet normal -0.770495 -0.637447 0
    outer loop
      vertex 12.6207 9.16945 -3
      vertex 11.3719 10.6789 0
      vertex 11.3719 10.6789 -3
    endloop
  endfacet
  facet normal -0.770495 -0.637447 0
    outer loop
      vertex 11.3719 10.6789 0
      vertex 12.6207 9.16945 -3
      vertex 12.6207 9.16945 0
    endloop
  endfacet
  facet normal -0.125315 -0.992117 0
    outer loop
      vertex 0.979531 15.5692 -3
      vertex 2.92315 15.3237 0
      vertex 0.979531 15.5692 0
    endloop
  endfacet
  facet normal -0.125315 -0.992117 -0
    outer loop
      vertex 2.92315 15.3237 0
      vertex 0.979531 15.5692 -3
      vertex 2.92315 15.3237 -3
    endloop
  endfacet
  facet normal -0.481759 -0.876304 0
    outer loop
      vertex 6.64216 14.1153 -3
      vertex 8.3589 13.1715 0
      vertex 6.64216 14.1153 0
    endloop
  endfacet
  facet normal -0.481759 -0.876304 -0
    outer loop
      vertex 8.3589 13.1715 0
      vertex 6.64216 14.1153 -3
      vertex 8.3589 13.1715 -3
    endloop
  endfacet
  facet normal 0.844332 -0.53582 0
    outer loop
      vertex -13.6704 7.51536 0
      vertex -12.6207 9.16945 -3
      vertex -12.6207 9.16945 0
    endloop
  endfacet
  facet normal 0.844332 -0.53582 0
    outer loop
      vertex -12.6207 9.16945 -3
      vertex -13.6704 7.51536 0
      vertex -13.6704 7.51536 -3
    endloop
  endfacet
  facet normal 0.951054 -0.309024 0
    outer loop
      vertex -15.1099 3.87956 0
      vertex -14.5045 5.74274 -3
      vertex -14.5045 5.74274 0
    endloop
  endfacet
  facet normal 0.951054 -0.309024 0
    outer loop
      vertex -14.5045 5.74274 -3
      vertex -15.1099 3.87956 0
      vertex -15.1099 3.87956 -3
    endloop
  endfacet
  facet normal 0.982286 -0.187386 0
    outer loop
      vertex -15.477 1.9552 0
      vertex -15.1099 3.87956 -3
      vertex -15.1099 3.87956 0
    endloop
  endfacet
  facet normal 0.982286 -0.187386 0
    outer loop
      vertex -15.1099 3.87956 -3
      vertex -15.477 1.9552 0
      vertex -15.477 1.9552 -3
    endloop
  endfacet
  facet normal 0.587784 -0.809018 0
    outer loop
      vertex -9.94381 12.02 -3
      vertex -8.3589 13.1715 0
      vertex -9.94381 12.02 0
    endloop
  endfacet
  facet normal 0.587784 -0.809018 0
    outer loop
      vertex -8.3589 13.1715 0
      vertex -9.94381 12.02 -3
      vertex -8.3589 13.1715 -3
    endloop
  endfacet
  facet normal 0.248691 -0.968583 0
    outer loop
      vertex -4.82066 14.8365 -3
      vertex -2.92315 15.3237 0
      vertex -4.82066 14.8365 0
    endloop
  endfacet
  facet normal 0.248691 -0.968583 0
    outer loop
      vertex -2.92315 15.3237 0
      vertex -4.82066 14.8365 -3
      vertex -2.92315 15.3237 -3
    endloop
  endfacet
  facet normal -0.998027 0.0627851 0
    outer loop
      vertex 15.477 -1.9552 -3
      vertex 15.6 0 0
      vertex 15.6 0 -3
    endloop
  endfacet
  facet normal -0.998027 0.0627851 0
    outer loop
      vertex 15.6 0 0
      vertex 15.477 -1.9552 -3
      vertex 15.477 -1.9552 0
    endloop
  endfacet
  facet normal -0.951054 0.309024 0
    outer loop
      vertex 14.5045 -5.74274 -3
      vertex 15.1099 -3.87956 0
      vertex 15.1099 -3.87956 -3
    endloop
  endfacet
  facet normal -0.951054 0.309024 0
    outer loop
      vertex 15.1099 -3.87956 0
      vertex 14.5045 -5.74274 -3
      vertex 14.5045 -5.74274 0
    endloop
  endfacet
  facet normal -0.982286 0.187386 0
    outer loop
      vertex 15.1099 -3.87956 -3
      vertex 15.477 -1.9552 0
      vertex 15.477 -1.9552 -3
    endloop
  endfacet
  facet normal -0.982286 0.187386 0
    outer loop
      vertex 15.477 -1.9552 0
      vertex 15.1099 -3.87956 -3
      vertex 15.1099 -3.87956 0
    endloop
  endfacet
  facet normal 0.684556 0.72896 -0
    outer loop
      vertex -9.94381 -12.02 -3
      vertex -11.3719 -10.6789 0
      vertex -9.94381 -12.02 0
    endloop
  endfacet
  facet normal 0.684556 0.72896 0
    outer loop
      vertex -11.3719 -10.6789 0
      vertex -9.94381 -12.02 -3
      vertex -11.3719 -10.6789 -3
    endloop
  endfacet
  facet normal 0.904833 0.425766 0
    outer loop
      vertex -13.6704 -7.51536 0
      vertex -14.5045 -5.74274 -3
      vertex -14.5045 -5.74274 0
    endloop
  endfacet
  facet normal 0.904833 0.425766 0
    outer loop
      vertex -14.5045 -5.74274 -3
      vertex -13.6704 -7.51536 0
      vertex -13.6704 -7.51536 -3
    endloop
  endfacet
  facet normal 0.770495 0.637447 0
    outer loop
      vertex -11.3719 -10.6789 0
      vertex -12.6207 -9.16945 -3
      vertex -12.6207 -9.16945 0
    endloop
  endfacet
  facet normal 0.770495 0.637447 0
    outer loop
      vertex -12.6207 -9.16945 -3
      vertex -11.3719 -10.6789 0
      vertex -11.3719 -10.6789 -3
    endloop
  endfacet
  facet normal -0.587784 0.809018 0
    outer loop
      vertex 9.94381 -12.02 -3
      vertex 8.3589 -13.1715 0
      vertex 9.94381 -12.02 0
    endloop
  endfacet
  facet normal -0.587784 0.809018 0
    outer loop
      vertex 8.3589 -13.1715 0
      vertex 9.94381 -12.02 -3
      vertex 8.3589 -13.1715 -3
    endloop
  endfacet
  facet normal 0.982286 0.187386 0
    outer loop
      vertex -15.1099 -3.87956 0
      vertex -15.477 -1.9552 -3
      vertex -15.477 -1.9552 0
    endloop
  endfacet
  facet normal 0.982286 0.187386 0
    outer loop
      vertex -15.477 -1.9552 -3
      vertex -15.1099 -3.87956 0
      vertex -15.1099 -3.87956 -3
    endloop
  endfacet
  facet normal 0.998027 0.0627851 0
    outer loop
      vertex -15.477 -1.9552 0
      vertex -15.6 0 -3
      vertex -15.6 0 0
    endloop
  endfacet
  facet normal 0.998027 0.0627851 0
    outer loop
      vertex -15.6 0 -3
      vertex -15.477 -1.9552 0
      vertex -15.477 -1.9552 -3
    endloop
  endfacet
  facet normal 0.951054 0.309024 0
    outer loop
      vertex -14.5045 -5.74274 0
      vertex -15.1099 -3.87956 -3
      vertex -15.1099 -3.87956 0
    endloop
  endfacet
  facet normal 0.951054 0.309024 0
    outer loop
      vertex -15.1099 -3.87956 -3
      vertex -14.5045 -5.74274 0
      vertex -14.5045 -5.74274 -3
    endloop
  endfacet
  facet normal -0.684556 0.72896 0
    outer loop
      vertex 11.3719 -10.6789 -3
      vertex 9.94381 -12.02 0
      vertex 11.3719 -10.6789 0
    endloop
  endfacet
  facet normal -0.684556 0.72896 0
    outer loop
      vertex 9.94381 -12.02 0
      vertex 11.3719 -10.6789 -3
      vertex 9.94381 -12.02 -3
    endloop
  endfacet
  facet normal -0.368132 0.929773 0
    outer loop
      vertex 6.64216 -14.1153 -3
      vertex 4.82066 -14.8365 0
      vertex 6.64216 -14.1153 0
    endloop
  endfacet
  facet normal -0.368132 0.929773 0
    outer loop
      vertex 4.82066 -14.8365 0
      vertex 6.64216 -14.1153 -3
      vertex 4.82066 -14.8365 -3
    endloop
  endfacet
  facet normal -0.248691 0.968583 0
    outer loop
      vertex 4.82066 -14.8365 -3
      vertex 2.92315 -15.3237 0
      vertex 4.82066 -14.8365 0
    endloop
  endfacet
  facet normal -0.248691 0.968583 0
    outer loop
      vertex 2.92315 -15.3237 0
      vertex 4.82066 -14.8365 -3
      vertex 2.92315 -15.3237 -3
    endloop
  endfacet
  facet normal -0.904833 0.425766 0
    outer loop
      vertex 13.6704 -7.51536 -3
      vertex 14.5045 -5.74274 0
      vertex 14.5045 -5.74274 -3
    endloop
  endfacet
  facet normal -0.904833 0.425766 0
    outer loop
      vertex 14.5045 -5.74274 0
      vertex 13.6704 -7.51536 -3
      vertex 13.6704 -7.51536 0
    endloop
  endfacet
  facet normal -0.844332 0.53582 0
    outer loop
      vertex 12.6207 -9.16945 -3
      vertex 13.6704 -7.51536 0
      vertex 13.6704 -7.51536 -3
    endloop
  endfacet
  facet normal -0.844332 0.53582 0
    outer loop
      vertex 13.6704 -7.51536 0
      vertex 12.6207 -9.16945 -3
      vertex 12.6207 -9.16945 0
    endloop
  endfacet
  facet normal 0.125315 0.992117 -0
    outer loop
      vertex -0.979531 -15.5692 -3
      vertex -2.92315 -15.3237 0
      vertex -0.979531 -15.5692 0
    endloop
  endfacet
  facet normal 0.125315 0.992117 0
    outer loop
      vertex -2.92315 -15.3237 0
      vertex -0.979531 -15.5692 -3
      vertex -2.92315 -15.3237 -3
    endloop
  endfacet
  facet normal 0.368132 0.929773 -0
    outer loop
      vertex -4.82066 -14.8365 -3
      vertex -6.64216 -14.1153 0
      vertex -4.82066 -14.8365 0
    endloop
  endfacet
  facet normal 0.368132 0.929773 0
    outer loop
      vertex -6.64216 -14.1153 0
      vertex -4.82066 -14.8365 -3
      vertex -6.64216 -14.1153 -3
    endloop
  endfacet
  facet normal 0.248691 0.968583 -0
    outer loop
      vertex -2.92315 -15.3237 -3
      vertex -4.82066 -14.8365 0
      vertex -2.92315 -15.3237 0
    endloop
  endfacet
  facet normal 0.248691 0.968583 0
    outer loop
      vertex -4.82066 -14.8365 0
      vertex -2.92315 -15.3237 -3
      vertex -4.82066 -14.8365 -3
    endloop
  endfacet
  facet normal 0.844332 0.53582 0
    outer loop
      vertex -12.6207 -9.16945 0
      vertex -13.6704 -7.51536 -3
      vertex -13.6704 -7.51536 0
    endloop
  endfacet
  facet normal 0.844332 0.53582 0
    outer loop
      vertex -13.6704 -7.51536 -3
      vertex -12.6207 -9.16945 0
      vertex -12.6207 -9.16945 -3
    endloop
  endfacet
  facet normal -0.770495 0.637447 0
    outer loop
      vertex 11.3719 -10.6789 -3
      vertex 12.6207 -9.16945 0
      vertex 12.6207 -9.16945 -3
    endloop
  endfacet
  facet normal -0.770495 0.637447 0
    outer loop
      vertex 12.6207 -9.16945 0
      vertex 11.3719 -10.6789 -3
      vertex 11.3719 -10.6789 0
    endloop
  endfacet
  facet normal -0.481759 0.876304 0
    outer loop
      vertex 8.3589 -13.1715 -3
      vertex 6.64216 -14.1153 0
      vertex 8.3589 -13.1715 0
    endloop
  endfacet
  facet normal -0.481759 0.876304 0
    outer loop
      vertex 6.64216 -14.1153 0
      vertex 8.3589 -13.1715 -3
      vertex 6.64216 -14.1153 -3
    endloop
  endfacet
  facet normal 0.587784 0.809018 -0
    outer loop
      vertex -8.3589 -13.1715 -3
      vertex -9.94381 -12.02 0
      vertex -8.3589 -13.1715 0
    endloop
  endfacet
  facet normal 0.587784 0.809018 0
    outer loop
      vertex -9.94381 -12.02 0
      vertex -8.3589 -13.1715 -3
      vertex -9.94381 -12.02 -3
    endloop
  endfacet
  facet normal 0.481759 0.876304 -0
    outer loop
      vertex -6.64216 -14.1153 -3
      vertex -8.3589 -13.1715 0
      vertex -6.64216 -14.1153 0
    endloop
  endfacet
  facet normal 0.481759 0.876304 0
    outer loop
      vertex -8.3589 -13.1715 0
      vertex -6.64216 -14.1153 -3
      vertex -8.3589 -13.1715 -3
    endloop
  endfacet
endsolid OpenSCAD_Model
