solid OpenSCAD_Model
  facet normal 0.998027 0.0627819 0
    outer loop
      vertex 19 0 0
      vertex 18.8502 2.38133 -4
      vertex 18.8502 2.38133 0
    endloop
  endfacet
  facet normal 0.998027 0.0627819 0
    outer loop
      vertex 18.8502 2.38133 -4
      vertex 19 0 0
      vertex 19 0 -4
    endloop
  endfacet
  facet normal -0.998027 0.0627819 0
    outer loop
      vertex -19 0 -4
      vertex -18.8502 2.38133 0
      vertex -18.8502 2.38133 -4
    endloop
  endfacet
  facet normal -0.998027 0.0627819 0
    outer loop
      vertex -18.8502 2.38133 0
      vertex -19 0 -4
      vertex -19 0 0
    endloop
  endfacet
  facet normal 0 1 -0
    outer loop
      vertex 1.19302 18.9625 -4
      vertex -1.19302 18.9625 0
      vertex 1.19302 18.9625 0
    endloop
  endfacet
  facet normal 0 1 0
    outer loop
      vertex -1.19302 18.9625 0
      vertex 1.19302 18.9625 -4
      vertex -1.19302 18.9625 -4
    endloop
  endfacet
  facet normal 0 -1 0
    outer loop
      vertex -1.19302 -18.9625 -4
      vertex 1.19302 -18.9625 0
      vertex -1.19302 -18.9625 0
    endloop
  endfacet
  facet normal 0 -1 -0
    outer loop
      vertex 1.19302 -18.9625 0
      vertex -1.19302 -18.9625 -4
      vertex 1.19302 -18.9625 -4
    endloop
  endfacet
  facet normal 0.684567 0.72895 -0
    outer loop
      vertex 13.8504 13.0064 -4
      vertex 12.1111 14.6398 0
      vertex 13.8504 13.0064 0
    endloop
  endfacet
  facet normal 0.684567 0.72895 0
    outer loop
      vertex 12.1111 14.6398 0
      vertex 13.8504 13.0064 -4
      vertex 12.1111 14.6398 -4
    endloop
  endfacet
  facet normal -0.684567 0.72895 0
    outer loop
      vertex -12.1111 14.6398 -4
      vertex -13.8504 13.0064 0
      vertex -12.1111 14.6398 0
    endloop
  endfacet
  facet normal -0.684567 0.72895 0
    outer loop
      vertex -13.8504 13.0064 0
      vertex -12.1111 14.6398 -4
      vertex -13.8504 13.0064 -4
    endloop
  endfacet
  facet normal -0.368138 0.929771 0
    outer loop
      vertex -5.87132 18.0701 -4
      vertex -8.08981 17.1917 0
      vertex -5.87132 18.0701 0
    endloop
  endfacet
  facet normal -0.368138 0.929771 0
    outer loop
      vertex -8.08981 17.1917 0
      vertex -5.87132 18.0701 -4
      vertex -8.08981 17.1917 -4
    endloop
  endfacet
  facet normal 0.904815 0.425805 0
    outer loop
      vertex 17.6658 6.99437 0
      vertex 16.6498 9.15332 -4
      vertex 16.6498 9.15332 0
    endloop
  endfacet
  facet normal 0.904815 0.425805 0
    outer loop
      vertex 16.6498 9.15332 -4
      vertex 17.6658 6.99437 0
      vertex 17.6658 6.99437 -4
    endloop
  endfacet
  facet normal 0.982287 0.187381 0
    outer loop
      vertex 18.8502 2.38133 0
      vertex 18.4031 4.72511 -4
      vertex 18.4031 4.72511 0
    endloop
  endfacet
  facet normal 0.982287 0.187381 0
    outer loop
      vertex 18.4031 4.72511 -4
      vertex 18.8502 2.38133 0
      vertex 18.8502 2.38133 -4
    endloop
  endfacet
  facet normal 0.844326 0.535829 0
    outer loop
      vertex 16.6498 9.15332 0
      vertex 15.3713 11.1679 -4
      vertex 15.3713 11.1679 0
    endloop
  endfacet
  facet normal 0.844326 0.535829 0
    outer loop
      vertex 15.3713 11.1679 -4
      vertex 16.6498 9.15332 0
      vertex 16.6498 9.15332 -4
    endloop
  endfacet
  facet normal 0.368138 0.929771 -0
    outer loop
      vertex 8.08981 17.1917 -4
      vertex 5.87132 18.0701 0
      vertex 8.08981 17.1917 0
    endloop
  endfacet
  facet normal 0.368138 0.929771 0
    outer loop
      vertex 5.87132 18.0701 0
      vertex 8.08981 17.1917 -4
      vertex 5.87132 18.0701 -4
    endloop
  endfacet
  facet normal 0.481761 0.876303 -0
    outer loop
      vertex 10.1807 16.0422 -4
      vertex 8.08981 17.1917 0
      vertex 10.1807 16.0422 0
    endloop
  endfacet
  facet normal 0.481761 0.876303 0
    outer loop
      vertex 8.08981 17.1917 0
      vertex 10.1807 16.0422 -4
      vertex 8.08981 17.1917 -4
    endloop
  endfacet
  facet normal -0.904815 0.425805 0
    outer loop
      vertex -17.6658 6.99437 -4
      vertex -16.6498 9.15332 0
      vertex -16.6498 9.15332 -4
    endloop
  endfacet
  facet normal -0.904815 0.425805 0
    outer loop
      vertex -16.6498 9.15332 0
      vertex -17.6658 6.99437 -4
      vertex -17.6658 6.99437 0
    endloop
  endfacet
  facet normal -0.770521 0.637414 0
    outer loop
      vertex -15.3713 11.1679 -4
      vertex -13.8504 13.0064 0
      vertex -13.8504 13.0064 -4
    endloop
  endfacet
  facet normal -0.770521 0.637414 0
    outer loop
      vertex -13.8504 13.0064 0
      vertex -15.3713 11.1679 -4
      vertex -15.3713 11.1679 0
    endloop
  endfacet
  facet normal -0.95106 0.309007 0
    outer loop
      vertex -18.4031 4.72511 -4
      vertex -17.6658 6.99437 0
      vertex -17.6658 6.99437 -4
    endloop
  endfacet
  facet normal -0.95106 0.309007 0
    outer loop
      vertex -17.6658 6.99437 0
      vertex -18.4031 4.72511 -4
      vertex -18.4031 4.72511 0
    endloop
  endfacet
  facet normal -0.248696 0.968582 0
    outer loop
      vertex -3.56024 18.6635 -4
      vertex -5.87132 18.0701 0
      vertex -3.56024 18.6635 0
    endloop
  endfacet
  facet normal -0.248696 0.968582 0
    outer loop
      vertex -5.87132 18.0701 0
      vertex -3.56024 18.6635 -4
      vertex -5.87132 18.0701 -4
    endloop
  endfacet
  facet normal 0.368138 -0.929771 0
    outer loop
      vertex 5.87132 -18.0701 -4
      vertex 8.08981 -17.1917 0
      vertex 5.87132 -18.0701 0
    endloop
  endfacet
  facet normal 0.368138 -0.929771 0
    outer loop
      vertex 8.08981 -17.1917 0
      vertex 5.87132 -18.0701 -4
      vertex 8.08981 -17.1917 -4
    endloop
  endfacet
  facet normal 0.95106 0.309007 0
    outer loop
      vertex 18.4031 4.72511 0
      vertex 17.6658 6.99437 -4
      vertex 17.6658 6.99437 0
    endloop
  endfacet
  facet normal 0.95106 0.309007 0
    outer loop
      vertex 17.6658 6.99437 -4
      vertex 18.4031 4.72511 0
      vertex 18.4031 4.72511 -4
    endloop
  endfacet
  facet normal 0.770521 0.637414 0
    outer loop
      vertex 15.3713 11.1679 0
      vertex 13.8504 13.0064 -4
      vertex 13.8504 13.0064 0
    endloop
  endfacet
  facet normal 0.770521 0.637414 0
    outer loop
      vertex 13.8504 13.0064 -4
      vertex 15.3713 11.1679 0
      vertex 15.3713 11.1679 -4
    endloop
  endfacet
  facet normal 0.248696 0.968582 -0
    outer loop
      vertex 5.87132 18.0701 -4
      vertex 3.56024 18.6635 0
      vertex 5.87132 18.0701 0
    endloop
  endfacet
  facet normal 0.248696 0.968582 0
    outer loop
      vertex 3.56024 18.6635 0
      vertex 5.87132 18.0701 -4
      vertex 3.56024 18.6635 -4
    endloop
  endfacet
  facet normal 0.125313 0.992117 -0
    outer loop
      vertex 3.56024 18.6635 -4
      vertex 1.19302 18.9625 0
      vertex 3.56024 18.6635 0
    endloop
  endfacet
  facet normal 0.125313 0.992117 0
    outer loop
      vertex 1.19302 18.9625 0
      vertex 3.56024 18.6635 -4
      vertex 1.19302 18.9625 -4
    endloop
  endfacet
  facet normal 0.587753 0.80904 -0
    outer loop
      vertex 12.1111 14.6398 -4
      vertex 10.1807 16.0422 0
      vertex 12.1111 14.6398 0
    endloop
  endfacet
  facet normal 0.587753 0.80904 0
    outer loop
      vertex 10.1807 16.0422 0
      vertex 12.1111 14.6398 -4
      vertex 10.1807 16.0422 -4
    endloop
  endfacet
  facet normal -0.844326 0.535829 0
    outer loop
      vertex -16.6498 9.15332 -4
      vertex -15.3713 11.1679 0
      vertex -15.3713 11.1679 -4
    endloop
  endfacet
  facet normal -0.844326 0.535829 0
    outer loop
      vertex -15.3713 11.1679 0
      vertex -16.6498 9.15332 -4
      vertex -16.6498 9.15332 0
    endloop
  endfacet
  facet normal -0.982287 0.187381 0
    outer loop
      vertex -18.8502 2.38133 -4
      vertex -18.4031 4.72511 0
      vertex -18.4031 4.72511 -4
    endloop
  endfacet
  facet normal -0.982287 0.187381 0
    outer loop
      vertex -18.4031 4.72511 0
      vertex -18.8502 2.38133 -4
      vertex -18.8502 2.38133 0
    endloop
  endfacet
  facet normal 0 0 1
    outer loop
      vertex 13.1 0 0
      vertex 19 0 0
      vertex 18.8502 2.38133 0
    endloop
  endfacet
  facet normal 0 0 1
    outer loop
      vertex 12.9967 1.64186 0
      vertex 18.8502 2.38133 0
      vertex 18.4031 4.72511 0
    endloop
  endfacet
  facet normal 0 0 1
    outer loop
      vertex 19 0 0
      vertex 13.1 0 0
      vertex 18.8502 -2.38133 0
    endloop
  endfacet
  facet normal 0 0 1
    outer loop
      vertex 12.6884 3.25784 0
      vertex 18.4031 4.72511 0
      vertex 17.6658 6.99437 0
    endloop
  endfacet
  facet normal -0 0 1
    outer loop
      vertex 12.9967 -1.64186 0
      vertex 18.8502 -2.38133 0
      vertex 13.1 0 0
    endloop
  endfacet
  facet normal 0 0 1
    outer loop
      vertex 12.1801 4.82243 0
      vertex 17.6658 6.99437 0
      vertex 16.6498 9.15332 0
    endloop
  endfacet
  facet normal 0 0 1
    outer loop
      vertex 18.8502 -2.38133 0
      vertex 12.9967 -1.64186 0
      vertex 18.4031 -4.72511 0
    endloop
  endfacet
  facet normal 0 0 1
    outer loop
      vertex 11.4796 6.31097 0
      vertex 16.6498 9.15332 0
      vertex 15.3713 11.1679 0
    endloop
  endfacet
  facet normal -0 0 1
    outer loop
      vertex 12.6884 -3.25784 0
      vertex 18.4031 -4.72511 0
      vertex 12.9967 -1.64186 0
    endloop
  endfacet
  facet normal 0 0 1
    outer loop
      vertex 10.5981 7.69999 0
      vertex 15.3713 11.1679 0
      vertex 13.8504 13.0064 0
    endloop
  endfacet
  facet normal 0 0 1
    outer loop
      vertex 18.4031 -4.72511 0
      vertex 12.6884 -3.25784 0
      vertex 17.6658 -6.99437 0
    endloop
  endfacet
  facet normal -0 0 1
    outer loop
      vertex 12.1801 -4.82243 0
      vertex 17.6658 -6.99437 0
      vertex 12.6884 -3.25784 0
    endloop
  endfacet
  facet normal 0 0 1
    outer loop
      vertex 18.8502 2.38133 0
      vertex 12.9967 1.64186 0
      vertex 13.1 0 0
    endloop
  endfacet
  facet normal 0 0 1
    outer loop
      vertex 18.4031 4.72511 0
      vertex 12.6884 3.25784 0
      vertex 12.9967 1.64186 0
    endloop
  endfacet
  facet normal 0 0 1
    outer loop
      vertex 17.6658 6.99437 0
      vertex 12.1801 4.82243 0
      vertex 12.6884 3.25784 0
    endloop
  endfacet
  facet normal 0 0 1
    outer loop
      vertex 9.54949 8.96757 0
      vertex 13.8504 13.0064 0
      vertex 12.1111 14.6398 0
    endloop
  endfacet
  facet normal 0 0 1
    outer loop
      vertex 16.6498 9.15332 0
      vertex 11.4796 6.31097 0
      vertex 12.1801 4.82243 0
    endloop
  endfacet
  facet normal 0 0 1
    outer loop
      vertex 15.3713 11.1679 0
      vertex 10.5981 7.69999 0
      vertex 11.4796 6.31097 0
    endloop
  endfacet
  facet normal 0 0 1
    outer loop
      vertex 8.35025 10.0937 0
      vertex 12.1111 14.6398 0
      vertex 10.1807 16.0422 0
    endloop
  endfacet
  facet normal 0 0 1
    outer loop
      vertex 13.8504 13.0064 0
      vertex 9.54949 8.96757 0
      vertex 10.5981 7.69999 0
    endloop
  endfacet
  facet normal 0 0 1
    outer loop
      vertex 12.1111 14.6398 0
      vertex 8.35025 10.0937 0
      vertex 9.54949 8.96757 0
    endloop
  endfacet
  facet normal 0 0 1
    outer loop
      vertex 7.01933 11.0607 0
      vertex 10.1807 16.0422 0
      vertex 8.08981 17.1917 0
    endloop
  endfacet
  facet normal 0 0 1
    outer loop
      vertex 10.1807 16.0422 0
      vertex 7.01933 11.0607 0
      vertex 8.35025 10.0937 0
    endloop
  endfacet
  facet normal 0 0 1
    outer loop
      vertex 5.57771 11.8532 0
      vertex 8.08981 17.1917 0
      vertex 5.87132 18.0701 0
    endloop
  endfacet
  facet normal 0 0 1
    outer loop
      vertex 8.08981 17.1917 0
      vertex 5.57771 11.8532 0
      vertex 7.01933 11.0607 0
    endloop
  endfacet
  facet normal 0 0 1
    outer loop
      vertex 5.87132 18.0701 0
      vertex 4.04812 12.4588 0
      vertex 5.57771 11.8532 0
    endloop
  endfacet
  facet normal 0 0 1
    outer loop
      vertex 3.56024 18.6635 0
      vertex 4.04812 12.4588 0
      vertex 5.87132 18.0701 0
    endloop
  endfacet
  facet normal 0 0 1
    outer loop
      vertex 3.56024 18.6635 0
      vertex 2.45469 12.868 0
      vertex 4.04812 12.4588 0
    endloop
  endfacet
  facet normal 0 0 1
    outer loop
      vertex 1.19302 18.9625 0
      vertex 2.45469 12.868 0
      vertex 3.56024 18.6635 0
    endloop
  endfacet
  facet normal 0 0 1
    outer loop
      vertex 1.19302 18.9625 0
      vertex 0.822556 13.0742 0
      vertex 2.45469 12.868 0
    endloop
  endfacet
  facet normal 0 0 1
    outer loop
      vertex 1.19302 18.9625 0
      vertex -0.822556 13.0742 0
      vertex 0.822556 13.0742 0
    endloop
  endfacet
  facet normal -0 0 1
    outer loop
      vertex -1.19302 18.9625 0
      vertex -0.822556 13.0742 0
      vertex 1.19302 18.9625 0
    endloop
  endfacet
  facet normal 0 0 1
    outer loop
      vertex -1.19302 18.9625 0
      vertex -2.45469 12.868 0
      vertex -0.822556 13.0742 0
    endloop
  endfacet
  facet normal -0 0 1
    outer loop
      vertex -3.56024 18.6635 0
      vertex -2.45469 12.868 0
      vertex -1.19302 18.9625 0
    endloop
  endfacet
  facet normal 0 0 1
    outer loop
      vertex -3.56024 18.6635 0
      vertex -4.04812 12.4588 0
      vertex -2.45469 12.868 0
    endloop
  endfacet
  facet normal -0 0 1
    outer loop
      vertex -5.87132 18.0701 0
      vertex -4.04812 12.4588 0
      vertex -3.56024 18.6635 0
    endloop
  endfacet
  facet normal 0 0 1
    outer loop
      vertex -4.04812 12.4588 0
      vertex -5.87132 18.0701 0
      vertex -5.57771 11.8532 0
    endloop
  endfacet
  facet normal -0 0 1
    outer loop
      vertex -8.08981 17.1917 0
      vertex -5.57771 11.8532 0
      vertex -5.87132 18.0701 0
    endloop
  endfacet
  facet normal 0 0 1
    outer loop
      vertex -5.57771 11.8532 0
      vertex -8.08981 17.1917 0
      vertex -7.01933 11.0607 0
    endloop
  endfacet
  facet normal -0 0 1
    outer loop
      vertex -10.1807 16.0422 0
      vertex -7.01933 11.0607 0
      vertex -8.08981 17.1917 0
    endloop
  endfacet
  facet normal 0 0 1
    outer loop
      vertex -7.01933 11.0607 0
      vertex -10.1807 16.0422 0
      vertex -8.35025 10.0937 0
    endloop
  endfacet
  facet normal -0 0 1
    outer loop
      vertex -12.1111 14.6398 0
      vertex -8.35025 10.0937 0
      vertex -10.1807 16.0422 0
    endloop
  endfacet
  facet normal 0 0 1
    outer loop
      vertex -8.35025 10.0937 0
      vertex -12.1111 14.6398 0
      vertex -9.54949 8.96757 0
    endloop
  endfacet
  facet normal -0 0 1
    outer loop
      vertex -13.8504 13.0064 0
      vertex -9.54949 8.96757 0
      vertex -12.1111 14.6398 0
    endloop
  endfacet
  facet normal 0 0 1
    outer loop
      vertex -9.54949 8.96757 0
      vertex -13.8504 13.0064 0
      vertex -10.5981 7.69999 0
    endloop
  endfacet
  facet normal -0 0 1
    outer loop
      vertex -15.3713 11.1679 0
      vertex -10.5981 7.69999 0
      vertex -13.8504 13.0064 0
    endloop
  endfacet
  facet normal 0 0 1
    outer loop
      vertex -10.5981 7.69999 0
      vertex -15.3713 11.1679 0
      vertex -11.4796 6.31097 0
    endloop
  endfacet
  facet normal -0 0 1
    outer loop
      vertex -16.6498 9.15332 0
      vertex -11.4796 6.31097 0
      vertex -15.3713 11.1679 0
    endloop
  endfacet
  facet normal -0 0 1
    outer loop
      vertex -17.6658 6.99437 0
      vertex -12.1801 4.82243 0
      vertex -16.6498 9.15332 0
    endloop
  endfacet
  facet normal 0 0 1
    outer loop
      vertex -11.4796 6.31097 0
      vertex -16.6498 9.15332 0
      vertex -12.1801 4.82243 0
    endloop
  endfacet
  facet normal 0 0 1
    outer loop
      vertex 17.6658 -6.99437 0
      vertex 12.1801 -4.82243 0
      vertex 16.6498 -9.15332 0
    endloop
  endfacet
  facet normal -0 0 1
    outer loop
      vertex 11.4796 -6.31097 0
      vertex 16.6498 -9.15332 0
      vertex 12.1801 -4.82243 0
    endloop
  endfacet
  facet normal 0 0 1
    outer loop
      vertex 16.6498 -9.15332 0
      vertex 11.4796 -6.31097 0
      vertex 15.3713 -11.1679 0
    endloop
  endfacet
  facet normal -0 0 1
    outer loop
      vertex 10.5981 -7.69999 0
      vertex 15.3713 -11.1679 0
      vertex 11.4796 -6.31097 0
    endloop
  endfacet
  facet normal 0 0 1
    outer loop
      vertex 15.3713 -11.1679 0
      vertex 10.5981 -7.69999 0
      vertex 13.8504 -13.0064 0
    endloop
  endfacet
  facet normal -0 0 1
    outer loop
      vertex 9.54949 -8.96757 0
      vertex 13.8504 -13.0064 0
      vertex 10.5981 -7.69999 0
    endloop
  endfacet
  facet normal 0 0 1
    outer loop
      vertex 13.8504 -13.0064 0
      vertex 9.54949 -8.96757 0
      vertex 12.1111 -14.6398 0
    endloop
  endfacet
  facet normal -0 0 1
    outer loop
      vertex 8.35025 -10.0937 0
      vertex 12.1111 -14.6398 0
      vertex 9.54949 -8.96757 0
    endloop
  endfacet
  facet normal 0 0 1
    outer loop
      vertex 12.1111 -14.6398 0
      vertex 8.35025 -10.0937 0
      vertex 10.1807 -16.0422 0
    endloop
  endfacet
  facet normal -0 0 1
    outer loop
      vertex 7.01933 -11.0607 0
      vertex 10.1807 -16.0422 0
      vertex 8.35025 -10.0937 0
    endloop
  endfacet
  facet normal 0 0 1
    outer loop
      vertex 10.1807 -16.0422 0
      vertex 7.01933 -11.0607 0
      vertex 8.08981 -17.1917 0
    endloop
  endfacet
  facet normal -0 0 1
    outer loop
      vertex 5.57771 -11.8532 0
      vertex 8.08981 -17.1917 0
      vertex 7.01933 -11.0607 0
    endloop
  endfacet
  facet normal 0 0 1
    outer loop
      vertex 8.08981 -17.1917 0
      vertex 5.57771 -11.8532 0
      vertex 5.87132 -18.0701 0
    endloop
  endfacet
  facet normal -0 0 1
    outer loop
      vertex 4.04812 -12.4588 0
      vertex 5.87132 -18.0701 0
      vertex 5.57771 -11.8532 0
    endloop
  endfacet
  facet normal 0 0 1
    outer loop
      vertex 4.04812 -12.4588 0
      vertex 3.56024 -18.6635 0
      vertex 5.87132 -18.0701 0
    endloop
  endfacet
  facet normal -0 0 1
    outer loop
      vertex 2.45469 -12.868 0
      vertex 3.56024 -18.6635 0
      vertex 4.04812 -12.4588 0
    endloop
  endfacet
  facet normal 0 0 1
    outer loop
      vertex 2.45469 -12.868 0
      vertex 1.19302 -18.9625 0
      vertex 3.56024 -18.6635 0
    endloop
  endfacet
  facet normal -0 0 1
    outer loop
      vertex 0.822556 -13.0742 0
      vertex 1.19302 -18.9625 0
      vertex 2.45469 -12.868 0
    endloop
  endfacet
  facet normal -0 0 1
    outer loop
      vertex -0.822556 -13.0742 0
      vertex 1.19302 -18.9625 0
      vertex 0.822556 -13.0742 0
    endloop
  endfacet
  facet normal 0 0 1
    outer loop
      vertex -0.822556 -13.0742 0
      vertex -1.19302 -18.9625 0
      vertex 1.19302 -18.9625 0
    endloop
  endfacet
  facet normal 0 0 1
    outer loop
      vertex -2.45469 -12.868 0
      vertex -1.19302 -18.9625 0
      vertex -0.822556 -13.0742 0
    endloop
  endfacet
  facet normal 0 0 1
    outer loop
      vertex -2.45469 -12.868 0
      vertex -3.56024 -18.6635 0
      vertex -1.19302 -18.9625 0
    endloop
  endfacet
  facet normal 0 0 1
    outer loop
      vertex -4.04812 -12.4588 0
      vertex -3.56024 -18.6635 0
      vertex -2.45469 -12.868 0
    endloop
  endfacet
  facet normal 0 0 1
    outer loop
      vertex -5.87132 -18.0701 0
      vertex -4.04812 -12.4588 0
      vertex -5.57771 -11.8532 0
    endloop
  endfacet
  facet normal 0 0 1
    outer loop
      vertex -4.04812 -12.4588 0
      vertex -5.87132 -18.0701 0
      vertex -3.56024 -18.6635 0
    endloop
  endfacet
  facet normal 0 0 1
    outer loop
      vertex -8.08981 -17.1917 0
      vertex -5.57771 -11.8532 0
      vertex -7.01933 -11.0607 0
    endloop
  endfacet
  facet normal 0 0 1
    outer loop
      vertex -5.57771 -11.8532 0
      vertex -8.08981 -17.1917 0
      vertex -5.87132 -18.0701 0
    endloop
  endfacet
  facet normal 0 0 1
    outer loop
      vertex -10.1807 -16.0422 0
      vertex -7.01933 -11.0607 0
      vertex -8.35025 -10.0937 0
    endloop
  endfacet
  facet normal 0 0 1
    outer loop
      vertex -12.1111 -14.6398 0
      vertex -8.35025 -10.0937 0
      vertex -9.54949 -8.96757 0
    endloop
  endfacet
  facet normal 0 0 1
    outer loop
      vertex -7.01933 -11.0607 0
      vertex -10.1807 -16.0422 0
      vertex -8.08981 -17.1917 0
    endloop
  endfacet
  facet normal 0 0 1
    outer loop
      vertex -13.8504 -13.0064 0
      vertex -9.54949 -8.96757 0
      vertex -10.5981 -7.69999 0
    endloop
  endfacet
  facet normal 0 0 1
    outer loop
      vertex -15.3713 -11.1679 0
      vertex -10.5981 -7.69999 0
      vertex -11.4796 -6.31097 0
    endloop
  endfacet
  facet normal 0 0 1
    outer loop
      vertex -8.35025 -10.0937 0
      vertex -12.1111 -14.6398 0
      vertex -10.1807 -16.0422 0
    endloop
  endfacet
  facet normal 0 0 1
    outer loop
      vertex -16.6498 -9.15332 0
      vertex -11.4796 -6.31097 0
      vertex -12.1801 -4.82243 0
    endloop
  endfacet
  facet normal 0 0 1
    outer loop
      vertex -17.6658 -6.99437 0
      vertex -12.1801 -4.82243 0
      vertex -12.6884 -3.25784 0
    endloop
  endfacet
  facet normal 0 0 1
    outer loop
      vertex -18.4031 -4.72511 0
      vertex -12.6884 -3.25784 0
      vertex -12.9967 -1.64186 0
    endloop
  endfacet
  facet normal 0 0 1
    outer loop
      vertex -9.54949 -8.96757 0
      vertex -13.8504 -13.0064 0
      vertex -12.1111 -14.6398 0
    endloop
  endfacet
  facet normal 0 0 1
    outer loop
      vertex -18.8502 -2.38133 0
      vertex -12.9967 -1.64186 0
      vertex -13.1 0 0
    endloop
  endfacet
  facet normal 0 0 1
    outer loop
      vertex -12.1801 4.82243 0
      vertex -17.6658 6.99437 0
      vertex -12.6884 3.25784 0
    endloop
  endfacet
  facet normal -0 0 1
    outer loop
      vertex -18.4031 4.72511 0
      vertex -12.6884 3.25784 0
      vertex -17.6658 6.99437 0
    endloop
  endfacet
  facet normal 0 0 1
    outer loop
      vertex -10.5981 -7.69999 0
      vertex -15.3713 -11.1679 0
      vertex -13.8504 -13.0064 0
    endloop
  endfacet
  facet normal 0 0 1
    outer loop
      vertex -12.6884 3.25784 0
      vertex -18.4031 4.72511 0
      vertex -12.9967 1.64186 0
    endloop
  endfacet
  facet normal 0 0 1
    outer loop
      vertex -11.4796 -6.31097 0
      vertex -16.6498 -9.15332 0
      vertex -15.3713 -11.1679 0
    endloop
  endfacet
  facet normal -0 0 1
    outer loop
      vertex -18.8502 2.38133 0
      vertex -12.9967 1.64186 0
      vertex -18.4031 4.72511 0
    endloop
  endfacet
  facet normal 0 0 1
    outer loop
      vertex -12.1801 -4.82243 0
      vertex -17.6658 -6.99437 0
      vertex -16.6498 -9.15332 0
    endloop
  endfacet
  facet normal 0 0 1
    outer loop
      vertex -12.9967 1.64186 0
      vertex -18.8502 2.38133 0
      vertex -13.1 0 0
    endloop
  endfacet
  facet normal 0 0 1
    outer loop
      vertex -12.6884 -3.25784 0
      vertex -18.4031 -4.72511 0
      vertex -17.6658 -6.99437 0
    endloop
  endfacet
  facet normal 0 0 1
    outer loop
      vertex -19 0 0
      vertex -13.1 0 0
      vertex -18.8502 2.38133 0
    endloop
  endfacet
  facet normal 0 0 1
    outer loop
      vertex -12.9967 -1.64186 0
      vertex -18.8502 -2.38133 0
      vertex -18.4031 -4.72511 0
    endloop
  endfacet
  facet normal 0 0 1
    outer loop
      vertex -13.1 0 0
      vertex -19 0 0
      vertex -18.8502 -2.38133 0
    endloop
  endfacet
  facet normal -0.481761 0.876303 0
    outer loop
      vertex -8.08981 17.1917 -4
      vertex -10.1807 16.0422 0
      vertex -8.08981 17.1917 0
    endloop
  endfacet
  facet normal -0.481761 0.876303 0
    outer loop
      vertex -10.1807 16.0422 0
      vertex -8.08981 17.1917 -4
      vertex -10.1807 16.0422 -4
    endloop
  endfacet
  facet normal -0.587753 0.80904 0
    outer loop
      vertex -10.1807 16.0422 -4
      vertex -12.1111 14.6398 0
      vertex -10.1807 16.0422 0
    endloop
  endfacet
  facet normal -0.587753 0.80904 0
    outer loop
      vertex -12.1111 14.6398 0
      vertex -10.1807 16.0422 -4
      vertex -12.1111 14.6398 -4
    endloop
  endfacet
  facet normal -0.125313 0.992117 0
    outer loop
      vertex -1.19302 18.9625 -4
      vertex -3.56024 18.6635 0
      vertex -1.19302 18.9625 0
    endloop
  endfacet
  facet normal -0.125313 0.992117 0
    outer loop
      vertex -3.56024 18.6635 0
      vertex -1.19302 18.9625 -4
      vertex -3.56024 18.6635 -4
    endloop
  endfacet
  facet normal 0.998027 -0.0627819 0
    outer loop
      vertex 18.8502 -2.38133 0
      vertex 19 0 -4
      vertex 19 0 0
    endloop
  endfacet
  facet normal 0.998027 -0.0627819 0
    outer loop
      vertex 19 0 -4
      vertex 18.8502 -2.38133 0
      vertex 18.8502 -2.38133 -4
    endloop
  endfacet
  facet normal 0.684567 -0.72895 0
    outer loop
      vertex 12.1111 -14.6398 -4
      vertex 13.8504 -13.0064 0
      vertex 12.1111 -14.6398 0
    endloop
  endfacet
  facet normal 0.684567 -0.72895 0
    outer loop
      vertex 13.8504 -13.0064 0
      vertex 12.1111 -14.6398 -4
      vertex 13.8504 -13.0064 -4
    endloop
  endfacet
  facet normal 0.982287 -0.187381 0
    outer loop
      vertex 18.4031 -4.72511 0
      vertex 18.8502 -2.38133 -4
      vertex 18.8502 -2.38133 0
    endloop
  endfacet
  facet normal 0.982287 -0.187381 0
    outer loop
      vertex 18.8502 -2.38133 -4
      vertex 18.4031 -4.72511 0
      vertex 18.4031 -4.72511 -4
    endloop
  endfacet
  facet normal 0 0 -1
    outer loop
      vertex 18.8502 -2.38133 -4
      vertex 18.8502 2.38133 -4
      vertex 19 0 -4
    endloop
  endfacet
  facet normal 0 0 -1
    outer loop
      vertex 18.4031 -4.72511 -4
      vertex 18.8502 2.38133 -4
      vertex 18.8502 -2.38133 -4
    endloop
  endfacet
  facet normal 0 0 -1
    outer loop
      vertex 18.4031 -4.72511 -4
      vertex 18.4031 4.72511 -4
      vertex 18.8502 2.38133 -4
    endloop
  endfacet
  facet normal 0 0 -1
    outer loop
      vertex 17.6658 -6.99437 -4
      vertex 18.4031 4.72511 -4
      vertex 18.4031 -4.72511 -4
    endloop
  endfacet
  facet normal 0 0 -1
    outer loop
      vertex 17.6658 -6.99437 -4
      vertex 17.6658 6.99437 -4
      vertex 18.4031 4.72511 -4
    endloop
  endfacet
  facet normal 0 0 -1
    outer loop
      vertex 16.6498 -9.15332 -4
      vertex 17.6658 6.99437 -4
      vertex 17.6658 -6.99437 -4
    endloop
  endfacet
  facet normal 0 0 -1
    outer loop
      vertex 16.6498 -9.15332 -4
      vertex 16.6498 9.15332 -4
      vertex 17.6658 6.99437 -4
    endloop
  endfacet
  facet normal 0 0 -1
    outer loop
      vertex 15.3713 -11.1679 -4
      vertex 16.6498 9.15332 -4
      vertex 16.6498 -9.15332 -4
    endloop
  endfacet
  facet normal 0 0 -1
    outer loop
      vertex 15.3713 -11.1679 -4
      vertex 15.3713 11.1679 -4
      vertex 16.6498 9.15332 -4
    endloop
  endfacet
  facet normal 0 0 -1
    outer loop
      vertex 13.8504 -13.0064 -4
      vertex 15.3713 11.1679 -4
      vertex 15.3713 -11.1679 -4
    endloop
  endfacet
  facet normal 0 0 -1
    outer loop
      vertex 13.8504 -13.0064 -4
      vertex 13.8504 13.0064 -4
      vertex 15.3713 11.1679 -4
    endloop
  endfacet
  facet normal 0 0 -1
    outer loop
      vertex 12.1111 -14.6398 -4
      vertex 13.8504 13.0064 -4
      vertex 13.8504 -13.0064 -4
    endloop
  endfacet
  facet normal 0 0 -1
    outer loop
      vertex 12.1111 -14.6398 -4
      vertex 12.1111 14.6398 -4
      vertex 13.8504 13.0064 -4
    endloop
  endfacet
  facet normal 0 0 -1
    outer loop
      vertex 10.1807 -16.0422 -4
      vertex 12.1111 14.6398 -4
      vertex 12.1111 -14.6398 -4
    endloop
  endfacet
  facet normal 0 0 -1
    outer loop
      vertex 10.1807 -16.0422 -4
      vertex 10.1807 16.0422 -4
      vertex 12.1111 14.6398 -4
    endloop
  endfacet
  facet normal 0 0 -1
    outer loop
      vertex 8.08981 -17.1917 -4
      vertex 10.1807 16.0422 -4
      vertex 10.1807 -16.0422 -4
    endloop
  endfacet
  facet normal 0 0 -1
    outer loop
      vertex 8.08981 -17.1917 -4
      vertex 8.08981 17.1917 -4
      vertex 10.1807 16.0422 -4
    endloop
  endfacet
  facet normal 0 0 -1
    outer loop
      vertex 5.87132 -18.0701 -4
      vertex 8.08981 17.1917 -4
      vertex 8.08981 -17.1917 -4
    endloop
  endfacet
  facet normal 0 0 -1
    outer loop
      vertex 5.87132 -18.0701 -4
      vertex 5.87132 18.0701 -4
      vertex 8.08981 17.1917 -4
    endloop
  endfacet
  facet normal 0 0 -1
    outer loop
      vertex 3.56024 -18.6635 -4
      vertex 5.87132 18.0701 -4
      vertex 5.87132 -18.0701 -4
    endloop
  endfacet
  facet normal 0 0 -1
    outer loop
      vertex 3.56024 -18.6635 -4
      vertex 3.56024 18.6635 -4
      vertex 5.87132 18.0701 -4
    endloop
  endfacet
  facet normal 0 0 -1
    outer loop
      vertex 1.19302 -18.9625 -4
      vertex 3.56024 18.6635 -4
      vertex 3.56024 -18.6635 -4
    endloop
  endfacet
  facet normal 0 0 -1
    outer loop
      vertex 1.19302 -18.9625 -4
      vertex 1.19302 18.9625 -4
      vertex 3.56024 18.6635 -4
    endloop
  endfacet
  facet normal 0 0 -1
    outer loop
      vertex -1.19302 -18.9625 -4
      vertex 1.19302 18.9625 -4
      vertex 1.19302 -18.9625 -4
    endloop
  endfacet
  facet normal 0 0 -1
    outer loop
      vertex -1.19302 -18.9625 -4
      vertex -1.19302 18.9625 -4
      vertex 1.19302 18.9625 -4
    endloop
  endfacet
  facet normal 0 0 -1
    outer loop
      vertex -3.56024 -18.6635 -4
      vertex -1.19302 18.9625 -4
      vertex -1.19302 -18.9625 -4
    endloop
  endfacet
  facet normal 0 0 -1
    outer loop
      vertex -3.56024 -18.6635 -4
      vertex -3.56024 18.6635 -4
      vertex -1.19302 18.9625 -4
    endloop
  endfacet
  facet normal 0 0 -1
    outer loop
      vertex -5.87132 -18.0701 -4
      vertex -3.56024 18.6635 -4
      vertex -3.56024 -18.6635 -4
    endloop
  endfacet
  facet normal 0 0 -1
    outer loop
      vertex -5.87132 -18.0701 -4
      vertex -5.87132 18.0701 -4
      vertex -3.56024 18.6635 -4
    endloop
  endfacet
  facet normal 0 0 -1
    outer loop
      vertex -8.08981 -17.1917 -4
      vertex -5.87132 18.0701 -4
      vertex -5.87132 -18.0701 -4
    endloop
  endfacet
  facet normal 0 0 -1
    outer loop
      vertex -8.08981 -17.1917 -4
      vertex -8.08981 17.1917 -4
      vertex -5.87132 18.0701 -4
    endloop
  endfacet
  facet normal 0 0 -1
    outer loop
      vertex -10.1807 -16.0422 -4
      vertex -8.08981 17.1917 -4
      vertex -8.08981 -17.1917 -4
    endloop
  endfacet
  facet normal 0 0 -1
    outer loop
      vertex -10.1807 -16.0422 -4
      vertex -10.1807 16.0422 -4
      vertex -8.08981 17.1917 -4
    endloop
  endfacet
  facet normal 0 0 -1
    outer loop
      vertex -12.1111 -14.6398 -4
      vertex -10.1807 16.0422 -4
      vertex -10.1807 -16.0422 -4
    endloop
  endfacet
  facet normal 0 0 -1
    outer loop
      vertex -12.1111 -14.6398 -4
      vertex -12.1111 14.6398 -4
      vertex -10.1807 16.0422 -4
    endloop
  endfacet
  facet normal 0 0 -1
    outer loop
      vertex -13.8504 -13.0064 -4
      vertex -12.1111 14.6398 -4
      vertex -12.1111 -14.6398 -4
    endloop
  endfacet
  facet normal 0 0 -1
    outer loop
      vertex -13.8504 -13.0064 -4
      vertex -13.8504 13.0064 -4
      vertex -12.1111 14.6398 -4
    endloop
  endfacet
  facet normal 0 0 -1
    outer loop
      vertex -15.3713 -11.1679 -4
      vertex -13.8504 13.0064 -4
      vertex -13.8504 -13.0064 -4
    endloop
  endfacet
  facet normal 0 0 -1
    outer loop
      vertex -15.3713 -11.1679 -4
      vertex -15.3713 11.1679 -4
      vertex -13.8504 13.0064 -4
    endloop
  endfacet
  facet normal 0 0 -1
    outer loop
      vertex -16.6498 -9.15332 -4
      vertex -15.3713 11.1679 -4
      vertex -15.3713 -11.1679 -4
    endloop
  endfacet
  facet normal 0 0 -1
    outer loop
      vertex -16.6498 -9.15332 -4
      vertex -16.6498 9.15332 -4
      vertex -15.3713 11.1679 -4
    endloop
  endfacet
  facet normal 0 0 -1
    outer loop
      vertex -17.6658 -6.99437 -4
      vertex -16.6498 9.15332 -4
      vertex -16.6498 -9.15332 -4
    endloop
  endfacet
  facet normal 0 0 -1
    outer loop
      vertex -17.6658 -6.99437 -4
      vertex -17.6658 6.99437 -4
      vertex -16.6498 9.15332 -4
    endloop
  endfacet
  facet normal 0 0 -1
    outer loop
      vertex -18.4031 -4.72511 -4
      vertex -17.6658 6.99437 -4
      vertex -17.6658 -6.99437 -4
    endloop
  endfacet
  facet normal 0 0 -1
    outer loop
      vertex -18.4031 -4.72511 -4
      vertex -18.4031 4.72511 -4
      vertex -17.6658 6.99437 -4
    endloop
  endfacet
  facet normal 0 0 -1
    outer loop
      vertex -18.8502 -2.38133 -4
      vertex -18.4031 4.72511 -4
      vertex -18.4031 -4.72511 -4
    endloop
  endfacet
  facet normal 0 0 -1
    outer loop
      vertex -18.8502 -2.38133 -4
      vertex -18.8502 2.38133 -4
      vertex -18.4031 4.72511 -4
    endloop
  endfacet
  facet normal 0 -0 -1
    outer loop
      vertex -18.8502 2.38133 -4
      vertex -18.8502 -2.38133 -4
      vertex -19 0 -4
    endloop
  endfacet
  facet normal 0.770521 -0.637414 0
    outer loop
      vertex 13.8504 -13.0064 0
      vertex 15.3713 -11.1679 -4
      vertex 15.3713 -11.1679 0
    endloop
  endfacet
  facet normal 0.770521 -0.637414 0
    outer loop
      vertex 15.3713 -11.1679 -4
      vertex 13.8504 -13.0064 0
      vertex 13.8504 -13.0064 -4
    endloop
  endfacet
  facet normal 0.904815 -0.425805 0
    outer loop
      vertex 16.6498 -9.15332 0
      vertex 17.6658 -6.99437 -4
      vertex 17.6658 -6.99437 0
    endloop
  endfacet
  facet normal 0.904815 -0.425805 0
    outer loop
      vertex 17.6658 -6.99437 -4
      vertex 16.6498 -9.15332 0
      vertex 16.6498 -9.15332 -4
    endloop
  endfacet
  facet normal -0.95106 -0.309007 0
    outer loop
      vertex -17.6658 -6.99437 -4
      vertex -18.4031 -4.72511 0
      vertex -18.4031 -4.72511 -4
    endloop
  endfacet
  facet normal -0.95106 -0.309007 0
    outer loop
      vertex -18.4031 -4.72511 0
      vertex -17.6658 -6.99437 -4
      vertex -17.6658 -6.99437 0
    endloop
  endfacet
  facet normal 0.248696 -0.968582 0
    outer loop
      vertex 3.56024 -18.6635 -4
      vertex 5.87132 -18.0701 0
      vertex 3.56024 -18.6635 0
    endloop
  endfacet
  facet normal 0.248696 -0.968582 0
    outer loop
      vertex 5.87132 -18.0701 0
      vertex 3.56024 -18.6635 -4
      vertex 5.87132 -18.0701 -4
    endloop
  endfacet
  facet normal 0.125313 -0.992117 0
    outer loop
      vertex 1.19302 -18.9625 -4
      vertex 3.56024 -18.6635 0
      vertex 1.19302 -18.9625 0
    endloop
  endfacet
  facet normal 0.125313 -0.992117 0
    outer loop
      vertex 3.56024 -18.6635 0
      vertex 1.19302 -18.9625 -4
      vertex 3.56024 -18.6635 -4
    endloop
  endfacet
  facet normal 0.844326 -0.535829 0
    outer loop
      vertex 15.3713 -11.1679 0
      vertex 16.6498 -9.15332 -4
      vertex 16.6498 -9.15332 0
    endloop
  endfacet
  facet normal 0.844326 -0.535829 0
    outer loop
      vertex 16.6498 -9.15332 -4
      vertex 15.3713 -11.1679 0
      vertex 15.3713 -11.1679 -4
    endloop
  endfacet
  facet normal 0.587753 -0.80904 0
    outer loop
      vertex 10.1807 -16.0422 -4
      vertex 12.1111 -14.6398 0
      vertex 10.1807 -16.0422 0
    endloop
  endfacet
  facet normal 0.587753 -0.80904 0
    outer loop
      vertex 12.1111 -14.6398 0
      vertex 10.1807 -16.0422 -4
      vertex 12.1111 -14.6398 -4
    endloop
  endfacet
  facet normal 0.481761 -0.876303 0
    outer loop
      vertex 8.08981 -17.1917 -4
      vertex 10.1807 -16.0422 0
      vertex 8.08981 -17.1917 0
    endloop
  endfacet
  facet normal 0.481761 -0.876303 0
    outer loop
      vertex 10.1807 -16.0422 0
      vertex 8.08981 -17.1917 -4
      vertex 10.1807 -16.0422 -4
    endloop
  endfacet
  facet normal 0.95106 -0.309007 0
    outer loop
      vertex 17.6658 -6.99437 0
      vertex 18.4031 -4.72511 -4
      vertex 18.4031 -4.72511 0
    endloop
  endfacet
  facet normal 0.95106 -0.309007 0
    outer loop
      vertex 18.4031 -4.72511 -4
      vertex 17.6658 -6.99437 0
      vertex 17.6658 -6.99437 -4
    endloop
  endfacet
  facet normal -0.125313 -0.992117 0
    outer loop
      vertex -3.56024 -18.6635 -4
      vertex -1.19302 -18.9625 0
      vertex -3.56024 -18.6635 0
    endloop
  endfacet
  facet normal -0.125313 -0.992117 -0
    outer loop
      vertex -1.19302 -18.9625 0
      vertex -3.56024 -18.6635 -4
      vertex -1.19302 -18.9625 -4
    endloop
  endfacet
  facet normal -0.368138 -0.929771 0
    outer loop
      vertex -8.08981 -17.1917 -4
      vertex -5.87132 -18.0701 0
      vertex -8.08981 -17.1917 0
    endloop
  endfacet
  facet normal -0.368138 -0.929771 -0
    outer loop
      vertex -5.87132 -18.0701 0
      vertex -8.08981 -17.1917 -4
      vertex -5.87132 -18.0701 -4
    endloop
  endfacet
  facet normal -0.248696 -0.968582 0
    outer loop
      vertex -5.87132 -18.0701 -4
      vertex -3.56024 -18.6635 0
      vertex -5.87132 -18.0701 0
    endloop
  endfacet
  facet normal -0.248696 -0.968582 -0
    outer loop
      vertex -3.56024 -18.6635 0
      vertex -5.87132 -18.0701 -4
      vertex -3.56024 -18.6635 -4
    endloop
  endfacet
  facet normal -0.770521 -0.637414 0
    outer loop
      vertex -13.8504 -13.0064 -4
      vertex -15.3713 -11.1679 0
      vertex -15.3713 -11.1679 -4
    endloop
  endfacet
  facet normal -0.770521 -0.637414 0
    outer loop
      vertex -15.3713 -11.1679 0
      vertex -13.8504 -13.0064 -4
      vertex -13.8504 -13.0064 0
    endloop
  endfacet
  facet normal -0.684567 -0.72895 0
    outer loop
      vertex -13.8504 -13.0064 -4
      vertex -12.1111 -14.6398 0
      vertex -13.8504 -13.0064 0
    endloop
  endfacet
  facet normal -0.684567 -0.72895 -0
    outer loop
      vertex -12.1111 -14.6398 0
      vertex -13.8504 -13.0064 -4
      vertex -12.1111 -14.6398 -4
    endloop
  endfacet
  facet normal -0.904815 -0.425805 0
    outer loop
      vertex -16.6498 -9.15332 -4
      vertex -17.6658 -6.99437 0
      vertex -17.6658 -6.99437 -4
    endloop
  endfacet
  facet normal -0.904815 -0.425805 0
    outer loop
      vertex -17.6658 -6.99437 0
      vertex -16.6498 -9.15332 -4
      vertex -16.6498 -9.15332 0
    endloop
  endfacet
  facet normal -0.982287 -0.187381 0
    outer loop
      vertex -18.4031 -4.72511 -4
      vertex -18.8502 -2.38133 0
      vertex -18.8502 -2.38133 -4
    endloop
  endfacet
  facet normal -0.982287 -0.187381 0
    outer loop
      vertex -18.8502 -2.38133 0
      vertex -18.4031 -4.72511 -4
      vertex -18.4031 -4.72511 0
    endloop
  endfacet
  facet normal -0.998027 -0.0627819 0
    outer loop
      vertex -18.8502 -2.38133 -4
      vertex -19 0 0
      vertex -19 0 -4
    endloop
  endfacet
  facet normal -0.998027 -0.0627819 0
    outer loop
      vertex -19 0 0
      vertex -18.8502 -2.38133 -4
      vertex -18.8502 -2.38133 0
    endloop
  endfacet
  facet normal -0.844326 -0.535829 0
    outer loop
      vertex -15.3713 -11.1679 -4
      vertex -16.6498 -9.15332 0
      vertex -16.6498 -9.15332 -4
    endloop
  endfacet
  facet normal -0.844326 -0.535829 0
    outer loop
      vertex -16.6498 -9.15332 0
      vertex -15.3713 -11.1679 -4
      vertex -15.3713 -11.1679 0
    endloop
  endfacet
  facet normal -0.481761 -0.876303 0
    outer loop
      vertex -10.1807 -16.0422 -4
      vertex -8.08981 -17.1917 0
      vertex -10.1807 -16.0422 0
    endloop
  endfacet
  facet normal -0.481761 -0.876303 -0
    outer loop
      vertex -8.08981 -17.1917 0
      vertex -10.1807 -16.0422 -4
      vertex -8.08981 -17.1917 -4
    endloop
  endfacet
  facet normal -0.587753 -0.80904 0
    outer loop
      vertex -12.1111 -14.6398 -4
      vertex -10.1807 -16.0422 0
      vertex -12.1111 -14.6398 0
    endloop
  endfacet
  facet normal -0.587753 -0.80904 -0
    outer loop
      vertex -10.1807 -16.0422 0
      vertex -12.1111 -14.6398 -4
      vertex -10.1807 -16.0422 -4
    endloop
  endfacet
  facet normal 0.951068 -0.308981 0
    outer loop
      vertex -12.6884 3.25784 0
      vertex -12.1801 4.82243 -3
      vertex -12.1801 4.82243 0
    endloop
  endfacet
  facet normal 0.951068 -0.308981 0
    outer loop
      vertex -12.1801 4.82243 -3
      vertex -12.6884 3.25784 0
      vertex -12.6884 3.25784 -3
    endloop
  endfacet
  facet normal -0.844328 -0.535827 0
    outer loop
      vertex 11.4796 6.31097 -3
      vertex 10.5981 7.69999 0
      vertex 10.5981 7.69999 -3
    endloop
  endfacet
  facet normal -0.844328 -0.535827 0
    outer loop
      vertex 10.5981 7.69999 0
      vertex 11.4796 6.31097 -3
      vertex 11.4796 6.31097 0
    endloop
  endfacet
  facet normal -0.248734 -0.968572 0
    outer loop
      vertex 2.45469 12.868 -3
      vertex 4.04812 12.4588 0
      vertex 2.45469 12.868 0
    endloop
  endfacet
  facet normal -0.248734 -0.968572 -0
    outer loop
      vertex 4.04812 12.4588 0
      vertex 2.45469 12.868 -3
      vertex 4.04812 12.4588 -3
    endloop
  endfacet
  facet normal -0.368121 -0.929778 0
    outer loop
      vertex 4.04812 12.4588 -3
      vertex 5.57771 11.8532 0
      vertex 4.04812 12.4588 0
    endloop
  endfacet
  facet normal -0.368121 -0.929778 -0
    outer loop
      vertex 5.57771 11.8532 0
      vertex 4.04812 12.4588 -3
      vertex 5.57771 11.8532 -3
    endloop
  endfacet
  facet normal 0.368121 -0.929778 0
    outer loop
      vertex -5.57771 11.8532 -3
      vertex -4.04812 12.4588 0
      vertex -5.57771 11.8532 0
    endloop
  endfacet
  facet normal 0.368121 -0.929778 0
    outer loop
      vertex -4.04812 12.4588 0
      vertex -5.57771 11.8532 -3
      vertex -4.04812 12.4588 -3
    endloop
  endfacet
  facet normal 0.904816 -0.425802 0
    outer loop
      vertex -12.1801 4.82243 0
      vertex -11.4796 6.31097 -3
      vertex -11.4796 6.31097 0
    endloop
  endfacet
  facet normal 0.904816 -0.425802 0
    outer loop
      vertex -11.4796 6.31097 -3
      vertex -12.1801 4.82243 0
      vertex -12.1801 4.82243 -3
    endloop
  endfacet
  facet normal -0.998027 0.0627923 0
    outer loop
      vertex 12.9967 -1.64186 -3
      vertex 13.1 0 0
      vertex 13.1 0 -3
    endloop
  endfacet
  facet normal -0.998027 0.0627923 0
    outer loop
      vertex 13.1 0 0
      vertex 12.9967 -1.64186 -3
      vertex 12.9967 -1.64186 0
    endloop
  endfacet
  facet normal -0.481736 0.876316 0
    outer loop
      vertex 7.01933 -11.0607 -3
      vertex 5.57771 -11.8532 0
      vertex 7.01933 -11.0607 0
    endloop
  endfacet
  facet normal -0.481736 0.876316 0
    outer loop
      vertex 5.57771 -11.8532 0
      vertex 7.01933 -11.0607 -3
      vertex 5.57771 -11.8532 -3
    endloop
  endfacet
  facet normal 0.77052 -0.637416 0
    outer loop
      vertex -10.5981 7.69999 0
      vertex -9.54949 8.96757 -3
      vertex -9.54949 8.96757 0
    endloop
  endfacet
  facet normal 0.77052 -0.637416 0
    outer loop
      vertex -9.54949 8.96757 -3
      vertex -10.5981 7.69999 0
      vertex -10.5981 7.69999 -3
    endloop
  endfacet
  facet normal 0.125341 -0.992114 0
    outer loop
      vertex -2.45469 12.868 -3
      vertex -0.822556 13.0742 0
      vertex -2.45469 12.868 0
    endloop
  endfacet
  facet normal 0.125341 -0.992114 0
    outer loop
      vertex -0.822556 13.0742 0
      vertex -2.45469 12.868 -3
      vertex -0.822556 13.0742 -3
    endloop
  endfacet
  facet normal 0.684537 -0.728978 0
    outer loop
      vertex -9.54949 8.96757 -3
      vertex -8.35025 10.0937 0
      vertex -9.54949 8.96757 0
    endloop
  endfacet
  facet normal 0.684537 -0.728978 0
    outer loop
      vertex -8.35025 10.0937 0
      vertex -9.54949 8.96757 -3
      vertex -8.35025 10.0937 -3
    endloop
  endfacet
  facet normal -0.587797 0.809008 0
    outer loop
      vertex 8.35025 -10.0937 -3
      vertex 7.01933 -11.0607 0
      vertex 8.35025 -10.0937 0
    endloop
  endfacet
  facet normal -0.587797 0.809008 0
    outer loop
      vertex 7.01933 -11.0607 0
      vertex 8.35025 -10.0937 -3
      vertex 7.01933 -11.0607 -3
    endloop
  endfacet
  facet normal -0.951068 0.308981 0
    outer loop
      vertex 12.1801 -4.82243 -3
      vertex 12.6884 -3.25784 0
      vertex 12.6884 -3.25784 -3
    endloop
  endfacet
  facet normal -0.951068 0.308981 0
    outer loop
      vertex 12.6884 -3.25784 0
      vertex 12.1801 -4.82243 -3
      vertex 12.1801 -4.82243 0
    endloop
  endfacet
  facet normal -0.684537 -0.728978 0
    outer loop
      vertex 8.35025 10.0937 -3
      vertex 9.54949 8.96757 0
      vertex 8.35025 10.0937 0
    endloop
  endfacet
  facet normal -0.684537 -0.728978 -0
    outer loop
      vertex 9.54949 8.96757 0
      vertex 8.35025 10.0937 -3
      vertex 9.54949 8.96757 -3
    endloop
  endfacet
  facet normal 0 -1 0
    outer loop
      vertex -0.822556 13.0742 -3
      vertex 0.822556 13.0742 0
      vertex -0.822556 13.0742 0
    endloop
  endfacet
  facet normal 0 -1 -0
    outer loop
      vertex 0.822556 13.0742 0
      vertex -0.822556 13.0742 -3
      vertex 0.822556 13.0742 -3
    endloop
  endfacet
  facet normal -0.587797 -0.809008 0
    outer loop
      vertex 7.01933 11.0607 -3
      vertex 8.35025 10.0937 0
      vertex 7.01933 11.0607 0
    endloop
  endfacet
  facet normal -0.587797 -0.809008 -0
    outer loop
      vertex 8.35025 10.0937 0
      vertex 7.01933 11.0607 -3
      vertex 8.35025 10.0937 -3
    endloop
  endfacet
  facet normal -0.481736 -0.876316 0
    outer loop
      vertex 5.57771 11.8532 -3
      vertex 7.01933 11.0607 0
      vertex 5.57771 11.8532 0
    endloop
  endfacet
  facet normal -0.481736 -0.876316 -0
    outer loop
      vertex 7.01933 11.0607 0
      vertex 5.57771 11.8532 -3
      vertex 7.01933 11.0607 -3
    endloop
  endfacet
  facet normal 0.998027 -0.0627923 0
    outer loop
      vertex -13.1 0 0
      vertex -12.9967 1.64186 -3
      vertex -12.9967 1.64186 0
    endloop
  endfacet
  facet normal 0.998027 -0.0627923 0
    outer loop
      vertex -12.9967 1.64186 -3
      vertex -13.1 0 0
      vertex -13.1 0 -3
    endloop
  endfacet
  facet normal 0.982283 -0.187402 0
    outer loop
      vertex -12.9967 1.64186 0
      vertex -12.6884 3.25784 -3
      vertex -12.6884 3.25784 0
    endloop
  endfacet
  facet normal 0.982283 -0.187402 0
    outer loop
      vertex -12.6884 3.25784 -3
      vertex -12.9967 1.64186 0
      vertex -12.9967 1.64186 -3
    endloop
  endfacet
  facet normal 0.844328 -0.535827 0
    outer loop
      vertex -11.4796 6.31097 0
      vertex -10.5981 7.69999 -3
      vertex -10.5981 7.69999 0
    endloop
  endfacet
  facet normal 0.844328 -0.535827 0
    outer loop
      vertex -10.5981 7.69999 -3
      vertex -11.4796 6.31097 0
      vertex -11.4796 6.31097 -3
    endloop
  endfacet
  facet normal 0.248734 -0.968572 0
    outer loop
      vertex -4.04812 12.4588 -3
      vertex -2.45469 12.868 0
      vertex -4.04812 12.4588 0
    endloop
  endfacet
  facet normal 0.248734 -0.968572 0
    outer loop
      vertex -2.45469 12.868 0
      vertex -4.04812 12.4588 -3
      vertex -2.45469 12.868 -3
    endloop
  endfacet
  facet normal 0.481736 -0.876316 0
    outer loop
      vertex -7.01933 11.0607 -3
      vertex -5.57771 11.8532 0
      vertex -7.01933 11.0607 0
    endloop
  endfacet
  facet normal 0.481736 -0.876316 0
    outer loop
      vertex -5.57771 11.8532 0
      vertex -7.01933 11.0607 -3
      vertex -5.57771 11.8532 -3
    endloop
  endfacet
  facet normal 0.587797 -0.809008 0
    outer loop
      vertex -8.35025 10.0937 -3
      vertex -7.01933 11.0607 0
      vertex -8.35025 10.0937 0
    endloop
  endfacet
  facet normal 0.587797 -0.809008 0
    outer loop
      vertex -7.01933 11.0607 0
      vertex -8.35025 10.0937 -3
      vertex -7.01933 11.0607 -3
    endloop
  endfacet
  facet normal -0.998027 -0.0627923 0
    outer loop
      vertex 13.1 0 -3
      vertex 12.9967 1.64186 0
      vertex 12.9967 1.64186 -3
    endloop
  endfacet
  facet normal -0.998027 -0.0627923 0
    outer loop
      vertex 12.9967 1.64186 0
      vertex 13.1 0 -3
      vertex 13.1 0 0
    endloop
  endfacet
  facet normal -0.844328 0.535827 0
    outer loop
      vertex 10.5981 -7.69999 -3
      vertex 11.4796 -6.31097 0
      vertex 11.4796 -6.31097 -3
    endloop
  endfacet
  facet normal -0.844328 0.535827 0
    outer loop
      vertex 11.4796 -6.31097 0
      vertex 10.5981 -7.69999 -3
      vertex 10.5981 -7.69999 0
    endloop
  endfacet
  facet normal -0.904816 0.425802 0
    outer loop
      vertex 11.4796 -6.31097 -3
      vertex 12.1801 -4.82243 0
      vertex 12.1801 -4.82243 -3
    endloop
  endfacet
  facet normal -0.904816 0.425802 0
    outer loop
      vertex 12.1801 -4.82243 0
      vertex 11.4796 -6.31097 -3
      vertex 11.4796 -6.31097 0
    endloop
  endfacet
  facet normal -0.125341 0.992114 0
    outer loop
      vertex 2.45469 -12.868 -3
      vertex 0.822556 -13.0742 0
      vertex 2.45469 -12.868 0
    endloop
  endfacet
  facet normal -0.125341 0.992114 0
    outer loop
      vertex 0.822556 -13.0742 0
      vertex 2.45469 -12.868 -3
      vertex 0.822556 -13.0742 -3
    endloop
  endfacet
  facet normal -0.904816 -0.425802 0
    outer loop
      vertex 12.1801 4.82243 -3
      vertex 11.4796 6.31097 0
      vertex 11.4796 6.31097 -3
    endloop
  endfacet
  facet normal -0.904816 -0.425802 0
    outer loop
      vertex 11.4796 6.31097 0
      vertex 12.1801 4.82243 -3
      vertex 12.1801 4.82243 0
    endloop
  endfacet
  facet normal -0.951068 -0.308981 0
    outer loop
      vertex 12.6884 3.25784 -3
      vertex 12.1801 4.82243 0
      vertex 12.1801 4.82243 -3
    endloop
  endfacet
  facet normal -0.951068 -0.308981 0
    outer loop
      vertex 12.1801 4.82243 0
      vertex 12.6884 3.25784 -3
      vertex 12.6884 3.25784 0
    endloop
  endfacet
  facet normal -0.982283 -0.187402 0
    outer loop
      vertex 12.9967 1.64186 -3
      vertex 12.6884 3.25784 0
      vertex 12.6884 3.25784 -3
    endloop
  endfacet
  facet normal -0.982283 -0.187402 0
    outer loop
      vertex 12.6884 3.25784 0
      vertex 12.9967 1.64186 -3
      vertex 12.9967 1.64186 0
    endloop
  endfacet
  facet normal -0.77052 -0.637416 0
    outer loop
      vertex 10.5981 7.69999 -3
      vertex 9.54949 8.96757 0
      vertex 9.54949 8.96757 -3
    endloop
  endfacet
  facet normal -0.77052 -0.637416 0
    outer loop
      vertex 9.54949 8.96757 0
      vertex 10.5981 7.69999 -3
      vertex 10.5981 7.69999 0
    endloop
  endfacet
  facet normal -0.125341 -0.992114 0
    outer loop
      vertex 0.822556 13.0742 -3
      vertex 2.45469 12.868 0
      vertex 0.822556 13.0742 0
    endloop
  endfacet
  facet normal -0.125341 -0.992114 -0
    outer loop
      vertex 2.45469 12.868 0
      vertex 0.822556 13.0742 -3
      vertex 2.45469 12.868 -3
    endloop
  endfacet
  facet normal -0.982283 0.187402 0
    outer loop
      vertex 12.6884 -3.25784 -3
      vertex 12.9967 -1.64186 0
      vertex 12.9967 -1.64186 -3
    endloop
  endfacet
  facet normal -0.982283 0.187402 0
    outer loop
      vertex 12.9967 -1.64186 0
      vertex 12.6884 -3.25784 -3
      vertex 12.6884 -3.25784 0
    endloop
  endfacet
  facet normal 0.368121 0.929778 -0
    outer loop
      vertex -4.04812 -12.4588 -3
      vertex -5.57771 -11.8532 0
      vertex -4.04812 -12.4588 0
    endloop
  endfacet
  facet normal 0.368121 0.929778 0
    outer loop
      vertex -5.57771 -11.8532 0
      vertex -4.04812 -12.4588 -3
      vertex -5.57771 -11.8532 -3
    endloop
  endfacet
  facet normal 0.998027 0.0627923 0
    outer loop
      vertex -12.9967 -1.64186 0
      vertex -13.1 0 -3
      vertex -13.1 0 0
    endloop
  endfacet
  facet normal 0.998027 0.0627923 0
    outer loop
      vertex -13.1 0 -3
      vertex -12.9967 -1.64186 0
      vertex -12.9967 -1.64186 -3
    endloop
  endfacet
  facet normal 0.951068 0.308981 0
    outer loop
      vertex -12.1801 -4.82243 0
      vertex -12.6884 -3.25784 -3
      vertex -12.6884 -3.25784 0
    endloop
  endfacet
  facet normal 0.951068 0.308981 0
    outer loop
      vertex -12.6884 -3.25784 -3
      vertex -12.1801 -4.82243 0
      vertex -12.1801 -4.82243 -3
    endloop
  endfacet
  facet normal 0.77052 0.637416 0
    outer loop
      vertex -9.54949 -8.96757 0
      vertex -10.5981 -7.69999 -3
      vertex -10.5981 -7.69999 0
    endloop
  endfacet
  facet normal 0.77052 0.637416 0
    outer loop
      vertex -10.5981 -7.69999 -3
      vertex -9.54949 -8.96757 0
      vertex -9.54949 -8.96757 -3
    endloop
  endfacet
  facet normal -0.684537 0.728978 0
    outer loop
      vertex 9.54949 -8.96757 -3
      vertex 8.35025 -10.0937 0
      vertex 9.54949 -8.96757 0
    endloop
  endfacet
  facet normal -0.684537 0.728978 0
    outer loop
      vertex 8.35025 -10.0937 0
      vertex 9.54949 -8.96757 -3
      vertex 8.35025 -10.0937 -3
    endloop
  endfacet
  facet normal -0.77052 0.637416 0
    outer loop
      vertex 9.54949 -8.96757 -3
      vertex 10.5981 -7.69999 0
      vertex 10.5981 -7.69999 -3
    endloop
  endfacet
  facet normal -0.77052 0.637416 0
    outer loop
      vertex 10.5981 -7.69999 0
      vertex 9.54949 -8.96757 -3
      vertex 9.54949 -8.96757 0
    endloop
  endfacet
  facet normal 0.587797 0.809008 -0
    outer loop
      vertex -7.01933 -11.0607 -3
      vertex -8.35025 -10.0937 0
      vertex -7.01933 -11.0607 0
    endloop
  endfacet
  facet normal 0.587797 0.809008 0
    outer loop
      vertex -8.35025 -10.0937 0
      vertex -7.01933 -11.0607 -3
      vertex -8.35025 -10.0937 -3
    endloop
  endfacet
  facet normal 0 1 -0
    outer loop
      vertex 0.822556 -13.0742 -3
      vertex -0.822556 -13.0742 0
      vertex 0.822556 -13.0742 0
    endloop
  endfacet
  facet normal 0 1 0
    outer loop
      vertex -0.822556 -13.0742 0
      vertex 0.822556 -13.0742 -3
      vertex -0.822556 -13.0742 -3
    endloop
  endfacet
  facet normal 0.125341 0.992114 -0
    outer loop
      vertex -0.822556 -13.0742 -3
      vertex -2.45469 -12.868 0
      vertex -0.822556 -13.0742 0
    endloop
  endfacet
  facet normal 0.125341 0.992114 0
    outer loop
      vertex -2.45469 -12.868 0
      vertex -0.822556 -13.0742 -3
      vertex -2.45469 -12.868 -3
    endloop
  endfacet
  facet normal 0.248734 0.968572 -0
    outer loop
      vertex -2.45469 -12.868 -3
      vertex -4.04812 -12.4588 0
      vertex -2.45469 -12.868 0
    endloop
  endfacet
  facet normal 0.248734 0.968572 0
    outer loop
      vertex -4.04812 -12.4588 0
      vertex -2.45469 -12.868 -3
      vertex -4.04812 -12.4588 -3
    endloop
  endfacet
  facet normal 0 0 1
    outer loop
      vertex 12.9967 1.64186 -3
      vertex 12.9967 -1.64186 -3
      vertex 13.1 0 -3
    endloop
  endfacet
  facet normal 0 0 1
    outer loop
      vertex 12.6884 3.25784 -3
      vertex 12.9967 -1.64186 -3
      vertex 12.9967 1.64186 -3
    endloop
  endfacet
  facet normal 0 0 1
    outer loop
      vertex 12.6884 3.25784 -3
      vertex 12.6884 -3.25784 -3
      vertex 12.9967 -1.64186 -3
    endloop
  endfacet
  facet normal 0 0 1
    outer loop
      vertex 12.1801 4.82243 -3
      vertex 12.6884 -3.25784 -3
      vertex 12.6884 3.25784 -3
    endloop
  endfacet
  facet normal 0 0 1
    outer loop
      vertex 12.1801 4.82243 -3
      vertex 12.1801 -4.82243 -3
      vertex 12.6884 -3.25784 -3
    endloop
  endfacet
  facet normal 0 0 1
    outer loop
      vertex 11.4796 6.31097 -3
      vertex 12.1801 -4.82243 -3
      vertex 12.1801 4.82243 -3
    endloop
  endfacet
  facet normal 0 0 1
    outer loop
      vertex 11.4796 6.31097 -3
      vertex 11.4796 -6.31097 -3
      vertex 12.1801 -4.82243 -3
    endloop
  endfacet
  facet normal 0 0 1
    outer loop
      vertex 10.5981 7.69999 -3
      vertex 11.4796 -6.31097 -3
      vertex 11.4796 6.31097 -3
    endloop
  endfacet
  facet normal 0 0 1
    outer loop
      vertex 10.5981 7.69999 -3
      vertex 10.5981 -7.69999 -3
      vertex 11.4796 -6.31097 -3
    endloop
  endfacet
  facet normal 0 0 1
    outer loop
      vertex 9.54949 8.96757 -3
      vertex 10.5981 -7.69999 -3
      vertex 10.5981 7.69999 -3
    endloop
  endfacet
  facet normal 0 0 1
    outer loop
      vertex 9.54949 8.96757 -3
      vertex 9.54949 -8.96757 -3
      vertex 10.5981 -7.69999 -3
    endloop
  endfacet
  facet normal 0 0 1
    outer loop
      vertex 8.35025 10.0937 -3
      vertex 9.54949 -8.96757 -3
      vertex 9.54949 8.96757 -3
    endloop
  endfacet
  facet normal 0 0 1
    outer loop
      vertex 8.35025 10.0937 -3
      vertex 8.35025 -10.0937 -3
      vertex 9.54949 -8.96757 -3
    endloop
  endfacet
  facet normal 0 0 1
    outer loop
      vertex 7.01933 11.0607 -3
      vertex 8.35025 -10.0937 -3
      vertex 8.35025 10.0937 -3
    endloop
  endfacet
  facet normal 0 0 1
    outer loop
      vertex 7.01933 11.0607 -3
      vertex 7.01933 -11.0607 -3
      vertex 8.35025 -10.0937 -3
    endloop
  endfacet
  facet normal 0 0 1
    outer loop
      vertex 5.57771 11.8532 -3
      vertex 7.01933 -11.0607 -3
      vertex 7.01933 11.0607 -3
    endloop
  endfacet
  facet normal 0 0 1
    outer loop
      vertex 5.57771 11.8532 -3
      vertex 5.57771 -11.8532 -3
      vertex 7.01933 -11.0607 -3
    endloop
  endfacet
  facet normal 0 0 1
    outer loop
      vertex 4.04812 12.4588 -3
      vertex 5.57771 -11.8532 -3
      vertex 5.57771 11.8532 -3
    endloop
  endfacet
  facet normal 0 0 1
    outer loop
      vertex 4.04812 12.4588 -3
      vertex 4.04812 -12.4588 -3
      vertex 5.57771 -11.8532 -3
    endloop
  endfacet
  facet normal 0 0 1
    outer loop
      vertex 2.45469 12.868 -3
      vertex 4.04812 -12.4588 -3
      vertex 4.04812 12.4588 -3
    endloop
  endfacet
  facet normal 0 0 1
    outer loop
      vertex 2.45469 12.868 -3
      vertex 2.45469 -12.868 -3
      vertex 4.04812 -12.4588 -3
    endloop
  endfacet
  facet normal 0 0 1
    outer loop
      vertex 0.822556 13.0742 -3
      vertex 2.45469 -12.868 -3
      vertex 2.45469 12.868 -3
    endloop
  endfacet
  facet normal 0 0 1
    outer loop
      vertex 0.822556 13.0742 -3
      vertex 0.822556 -13.0742 -3
      vertex 2.45469 -12.868 -3
    endloop
  endfacet
  facet normal -0 0 1
    outer loop
      vertex -0.822556 13.0742 -3
      vertex 0.822556 -13.0742 -3
      vertex 0.822556 13.0742 -3
    endloop
  endfacet
  facet normal 0 0 1
    outer loop
      vertex -0.822556 13.0742 -3
      vertex -0.822556 -13.0742 -3
      vertex 0.822556 -13.0742 -3
    endloop
  endfacet
  facet normal -0 0 1
    outer loop
      vertex -2.45469 12.868 -3
      vertex -0.822556 -13.0742 -3
      vertex -0.822556 13.0742 -3
    endloop
  endfacet
  facet normal 0 0 1
    outer loop
      vertex -2.45469 12.868 -3
      vertex -2.45469 -12.868 -3
      vertex -0.822556 -13.0742 -3
    endloop
  endfacet
  facet normal -0 0 1
    outer loop
      vertex -4.04812 12.4588 -3
      vertex -2.45469 -12.868 -3
      vertex -2.45469 12.868 -3
    endloop
  endfacet
  facet normal 0 0 1
    outer loop
      vertex -4.04812 12.4588 -3
      vertex -4.04812 -12.4588 -3
      vertex -2.45469 -12.868 -3
    endloop
  endfacet
  facet normal -0 0 1
    outer loop
      vertex -5.57771 11.8532 -3
      vertex -4.04812 -12.4588 -3
      vertex -4.04812 12.4588 -3
    endloop
  endfacet
  facet normal 0 0 1
    outer loop
      vertex -5.57771 11.8532 -3
      vertex -5.57771 -11.8532 -3
      vertex -4.04812 -12.4588 -3
    endloop
  endfacet
  facet normal -0 0 1
    outer loop
      vertex -7.01933 11.0607 -3
      vertex -5.57771 -11.8532 -3
      vertex -5.57771 11.8532 -3
    endloop
  endfacet
  facet normal 0 0 1
    outer loop
      vertex -7.01933 11.0607 -3
      vertex -7.01933 -11.0607 -3
      vertex -5.57771 -11.8532 -3
    endloop
  endfacet
  facet normal -0 0 1
    outer loop
      vertex -8.35025 10.0937 -3
      vertex -7.01933 -11.0607 -3
      vertex -7.01933 11.0607 -3
    endloop
  endfacet
  facet normal 0 0 1
    outer loop
      vertex -8.35025 10.0937 -3
      vertex -8.35025 -10.0937 -3
      vertex -7.01933 -11.0607 -3
    endloop
  endfacet
  facet normal -0 0 1
    outer loop
      vertex -9.54949 8.96757 -3
      vertex -8.35025 -10.0937 -3
      vertex -8.35025 10.0937 -3
    endloop
  endfacet
  facet normal 0 0 1
    outer loop
      vertex -9.54949 8.96757 -3
      vertex -9.54949 -8.96757 -3
      vertex -8.35025 -10.0937 -3
    endloop
  endfacet
  facet normal -0 0 1
    outer loop
      vertex -10.5981 7.69999 -3
      vertex -9.54949 -8.96757 -3
      vertex -9.54949 8.96757 -3
    endloop
  endfacet
  facet normal 0 0 1
    outer loop
      vertex -10.5981 7.69999 -3
      vertex -10.5981 -7.69999 -3
      vertex -9.54949 -8.96757 -3
    endloop
  endfacet
  facet normal -0 0 1
    outer loop
      vertex -11.4796 6.31097 -3
      vertex -10.5981 -7.69999 -3
      vertex -10.5981 7.69999 -3
    endloop
  endfacet
  facet normal 0 0 1
    outer loop
      vertex -11.4796 6.31097 -3
      vertex -11.4796 -6.31097 -3
      vertex -10.5981 -7.69999 -3
    endloop
  endfacet
  facet normal -0 0 1
    outer loop
      vertex -12.1801 4.82243 -3
      vertex -11.4796 -6.31097 -3
      vertex -11.4796 6.31097 -3
    endloop
  endfacet
  facet normal 0 0 1
    outer loop
      vertex -12.1801 4.82243 -3
      vertex -12.1801 -4.82243 -3
      vertex -11.4796 -6.31097 -3
    endloop
  endfacet
  facet normal -0 0 1
    outer loop
      vertex -12.6884 3.25784 -3
      vertex -12.1801 -4.82243 -3
      vertex -12.1801 4.82243 -3
    endloop
  endfacet
  facet normal 0 0 1
    outer loop
      vertex -12.6884 3.25784 -3
      vertex -12.6884 -3.25784 -3
      vertex -12.1801 -4.82243 -3
    endloop
  endfacet
  facet normal -0 0 1
    outer loop
      vertex -12.9967 1.64186 -3
      vertex -12.6884 -3.25784 -3
      vertex -12.6884 3.25784 -3
    endloop
  endfacet
  facet normal 0 0 1
    outer loop
      vertex -12.9967 1.64186 -3
      vertex -12.9967 -1.64186 -3
      vertex -12.6884 -3.25784 -3
    endloop
  endfacet
  facet normal 0 -0 1
    outer loop
      vertex -12.9967 -1.64186 -3
      vertex -12.9967 1.64186 -3
      vertex -13.1 0 -3
    endloop
  endfacet
  facet normal 0.982283 0.187402 0
    outer loop
      vertex -12.6884 -3.25784 0
      vertex -12.9967 -1.64186 -3
      vertex -12.9967 -1.64186 0
    endloop
  endfacet
  facet normal 0.982283 0.187402 0
    outer loop
      vertex -12.9967 -1.64186 -3
      vertex -12.6884 -3.25784 0
      vertex -12.6884 -3.25784 -3
    endloop
  endfacet
  facet normal 0.684537 0.728978 -0
    outer loop
      vertex -8.35025 -10.0937 -3
      vertex -9.54949 -8.96757 0
      vertex -8.35025 -10.0937 0
    endloop
  endfacet
  facet normal 0.684537 0.728978 0
    outer loop
      vertex -9.54949 -8.96757 0
      vertex -8.35025 -10.0937 -3
      vertex -9.54949 -8.96757 -3
    endloop
  endfacet
  facet normal 0.904816 0.425802 0
    outer loop
      vertex -11.4796 -6.31097 0
      vertex -12.1801 -4.82243 -3
      vertex -12.1801 -4.82243 0
    endloop
  endfacet
  facet normal 0.904816 0.425802 0
    outer loop
      vertex -12.1801 -4.82243 -3
      vertex -11.4796 -6.31097 0
      vertex -11.4796 -6.31097 -3
    endloop
  endfacet
  facet normal -0.248734 0.968572 0
    outer loop
      vertex 4.04812 -12.4588 -3
      vertex 2.45469 -12.868 0
      vertex 4.04812 -12.4588 0
    endloop
  endfacet
  facet normal -0.248734 0.968572 0
    outer loop
      vertex 2.45469 -12.868 0
      vertex 4.04812 -12.4588 -3
      vertex 2.45469 -12.868 -3
    endloop
  endfacet
  facet normal -0.368121 0.929778 0
    outer loop
      vertex 5.57771 -11.8532 -3
      vertex 4.04812 -12.4588 0
      vertex 5.57771 -11.8532 0
    endloop
  endfacet
  facet normal -0.368121 0.929778 0
    outer loop
      vertex 4.04812 -12.4588 0
      vertex 5.57771 -11.8532 -3
      vertex 4.04812 -12.4588 -3
    endloop
  endfacet
  facet normal 0.481736 0.876316 -0
    outer loop
      vertex -5.57771 -11.8532 -3
      vertex -7.01933 -11.0607 0
      vertex -5.57771 -11.8532 0
    endloop
  endfacet
  facet normal 0.481736 0.876316 0
    outer loop
      vertex -7.01933 -11.0607 0
      vertex -5.57771 -11.8532 -3
      vertex -7.01933 -11.0607 -3
    endloop
  endfacet
  facet normal 0.844328 0.535827 0
    outer loop
      vertex -10.5981 -7.69999 0
      vertex -11.4796 -6.31097 -3
      vertex -11.4796 -6.31097 0
    endloop
  endfacet
  facet normal 0.844328 0.535827 0
    outer loop
      vertex -11.4796 -6.31097 -3
      vertex -10.5981 -7.69999 0
      vertex -10.5981 -7.69999 -3
    endloop
  endfacet
endsolid OpenSCAD_Model
