<?xml version="1.0" standalone="no"?>
<!DOCTYPE svg PUBLIC "-//W3C//DTD SVG 1.1//EN" "http://www.w3.org/Graphics/SVG/1.1/DTD/svg11.dtd">
<svg width="26mm" height="338mm" viewBox="-13 -325 26 338" xmlns="http://www.w3.org/2000/svg" version="1.1">
<title>OpenSCAD Model</title>
<path d="
M 2.34225,12.2786 L 3.8627,11.8882 L 5.32224,11.3103 L 6.69783,10.5541 L 7.96779,9.63141 L 9.11211,8.55682
 L 10.1127,7.34731 L 10.9538,6.02191 L 11.6222,4.60155 L 12.1073,3.10861 L 12.4014,1.56665 L 12.5,-0
 L 12.4014,-1.56665 L 12.1073,-3.10861 L 11.6222,-4.60155 L 10.9538,-6.02191 L 10.1127,-7.34731 L 9.11211,-8.55682
 L 7.96779,-9.63141 L 6.69783,-10.5541 L 5.32224,-11.3103 L 3.8627,-11.8882 L 3.42726,-12 L 3.8627,-12.1118
 L 5.32224,-12.6897 L 6.69783,-13.4459 L 7.96779,-14.3686 L 9.11211,-15.4432 L 10.1127,-16.6527 L 10.9538,-17.9781
 L 11.6222,-19.3985 L 12.1073,-20.8914 L 12.4014,-22.4333 L 12.5,-24 L 12.4014,-25.5667 L 12.1073,-27.1086
 L 11.6222,-28.6015 L 10.9538,-30.0219 L 10.1127,-31.3473 L 9.11211,-32.5568 L 7.96779,-33.6314 L 6.69783,-34.5541
 L 5.32224,-35.3103 L 3.8627,-35.8882 L 3.42726,-36 L 3.8627,-36.1118 L 5.32224,-36.6897 L 6.69783,-37.4459
 L 7.96779,-38.3686 L 9.11211,-39.4432 L 10.1127,-40.6527 L 10.9538,-41.9781 L 11.6222,-43.3985 L 12.1073,-44.8914
 L 12.4014,-46.4333 L 12.5,-48 L 12.4014,-49.5667 L 12.1073,-51.1086 L 11.6222,-52.6015 L 10.9538,-54.0219
 L 10.1127,-55.3473 L 9.11211,-56.5568 L 7.96779,-57.6314 L 6.69783,-58.5541 L 5.32224,-59.3103 L 3.8627,-59.8882
 L 3.42726,-60 L 3.8627,-60.1118 L 5.32224,-60.6897 L 6.69783,-61.4459 L 7.96779,-62.3686 L 9.11211,-63.4432
 L 10.1127,-64.6527 L 10.9538,-65.9781 L 11.6222,-67.3985 L 12.1073,-68.8914 L 12.4014,-70.4333 L 12.5,-72
 L 12.4014,-73.5667 L 12.1073,-75.1086 L 11.6222,-76.6015 L 10.9538,-78.0219 L 10.1127,-79.3473 L 9.11211,-80.5568
 L 7.96779,-81.6314 L 6.69783,-82.5541 L 5.32224,-83.3103 L 3.8627,-83.8882 L 3.42726,-84 L 3.8627,-84.1118
 L 5.32224,-84.6897 L 6.69783,-85.4459 L 7.96779,-86.3686 L 9.11211,-87.4432 L 10.1127,-88.6527 L 10.9538,-89.9781
 L 11.6222,-91.3985 L 12.1073,-92.8914 L 12.4014,-94.4333 L 12.5,-96 L 12.4014,-97.5667 L 12.1073,-99.1086
 L 11.6222,-100.602 L 10.9538,-102.022 L 10.1127,-103.347 L 9.11211,-104.557 L 7.96779,-105.631 L 6.69783,-106.554
 L 5.32224,-107.31 L 3.8627,-107.888 L 3.42726,-108 L 3.8627,-108.112 L 5.32224,-108.69 L 6.69783,-109.446
 L 7.96779,-110.369 L 9.11211,-111.443 L 10.1127,-112.653 L 10.9538,-113.978 L 11.6222,-115.398 L 12.1073,-116.891
 L 12.4014,-118.433 L 12.5,-120 L 12.4014,-121.567 L 12.1073,-123.109 L 11.6222,-124.602 L 10.9538,-126.022
 L 10.1127,-127.347 L 9.11211,-128.557 L 7.96779,-129.631 L 6.69783,-130.554 L 5.32224,-131.31 L 3.8627,-131.888
 L 3.42726,-132 L 3.8627,-132.112 L 5.32224,-132.69 L 6.69783,-133.446 L 7.96779,-134.369 L 9.11211,-135.443
 L 10.1127,-136.653 L 10.9538,-137.978 L 11.6222,-139.398 L 12.1073,-140.891 L 12.4014,-142.433 L 12.5,-144
 L 12.4014,-145.567 L 12.1073,-147.109 L 11.6222,-148.602 L 10.9538,-150.022 L 10.1127,-151.347 L 9.11211,-152.557
 L 7.96779,-153.631 L 6.69783,-154.554 L 5.32224,-155.31 L 3.8627,-155.888 L 3.42726,-156 L 3.8627,-156.112
 L 5.32224,-156.69 L 6.69783,-157.446 L 7.96779,-158.369 L 9.11211,-159.443 L 10.1127,-160.653 L 10.9538,-161.978
 L 11.6222,-163.398 L 12.1073,-164.891 L 12.4014,-166.433 L 12.5,-168 L 12.4014,-169.567 L 12.1073,-171.109
 L 11.6222,-172.602 L 10.9538,-174.022 L 10.1127,-175.347 L 9.11211,-176.557 L 7.96779,-177.631 L 6.69783,-178.554
 L 5.32224,-179.31 L 3.8627,-179.888 L 3.42726,-180 L 3.8627,-180.112 L 5.32224,-180.69 L 6.69783,-181.446
 L 7.96779,-182.369 L 9.11211,-183.443 L 10.1127,-184.653 L 10.9538,-185.978 L 11.6222,-187.398 L 12.1073,-188.891
 L 12.4014,-190.433 L 12.5,-192 L 12.4014,-193.567 L 12.1073,-195.109 L 11.6222,-196.602 L 10.9538,-198.022
 L 10.1127,-199.347 L 9.11211,-200.557 L 7.96779,-201.631 L 6.69783,-202.554 L 5.32224,-203.31 L 3.8627,-203.888
 L 3.42726,-204 L 3.8627,-204.112 L 5.32224,-204.69 L 6.69783,-205.446 L 7.96779,-206.369 L 9.11211,-207.443
 L 10.1127,-208.653 L 10.9538,-209.978 L 11.6222,-211.398 L 12.1073,-212.891 L 12.4014,-214.433 L 12.5,-216
 L 12.4014,-217.567 L 12.1073,-219.109 L 11.6222,-220.602 L 10.9538,-222.022 L 10.1127,-223.347 L 9.11211,-224.557
 L 7.96779,-225.631 L 6.69783,-226.554 L 5.32224,-227.31 L 3.8627,-227.888 L 3.42726,-228 L 3.8627,-228.112
 L 5.32224,-228.69 L 6.69783,-229.446 L 7.96779,-230.369 L 9.11211,-231.443 L 10.1127,-232.653 L 10.9538,-233.978
 L 11.6222,-235.398 L 12.1073,-236.891 L 12.4014,-238.433 L 12.5,-240 L 12.4014,-241.567 L 12.1073,-243.109
 L 11.6222,-244.602 L 10.9538,-246.022 L 10.1127,-247.347 L 9.11211,-248.557 L 7.96779,-249.631 L 6.69783,-250.554
 L 5.32224,-251.31 L 3.8627,-251.888 L 3.42726,-252 L 3.8627,-252.112 L 5.32224,-252.69 L 6.69783,-253.446
 L 7.96779,-254.369 L 9.11211,-255.443 L 10.1127,-256.653 L 10.9538,-257.978 L 11.6222,-259.398 L 12.1073,-260.891
 L 12.4014,-262.433 L 12.5,-264 L 12.4014,-265.567 L 12.1073,-267.109 L 11.6222,-268.602 L 10.9538,-270.022
 L 10.1127,-271.347 L 9.11211,-272.557 L 7.96779,-273.631 L 6.69783,-274.554 L 5.32224,-275.31 L 3.8627,-275.888
 L 3.42726,-276 L 3.8627,-276.112 L 5.32224,-276.69 L 6.69783,-277.446 L 7.96779,-278.369 L 9.11211,-279.443
 L 10.1127,-280.653 L 10.9538,-281.978 L 11.6222,-283.398 L 12.1073,-284.891 L 12.4014,-286.433 L 12.5,-288
 L 12.4014,-289.567 L 12.1073,-291.109 L 11.6222,-292.602 L 10.9538,-294.022 L 10.1127,-295.347 L 9.11211,-296.557
 L 7.96779,-297.631 L 6.69783,-298.554 L 5.32224,-299.31 L 3.8627,-299.888 L 3.42726,-300 L 3.8627,-300.112
 L 5.32224,-300.69 L 6.69783,-301.446 L 7.96779,-302.369 L 9.11211,-303.443 L 10.1127,-304.653 L 10.9538,-305.978
 L 11.6222,-307.398 L 12.1073,-308.891 L 12.4014,-310.433 L 12.5,-312 L 12.4014,-313.567 L 12.1073,-315.109
 L 11.6222,-316.602 L 10.9538,-318.022 L 10.1127,-319.347 L 9.11211,-320.557 L 7.96779,-321.631 L 6.69783,-322.554
 L 5.32224,-323.31 L 3.8627,-323.888 L 2.34225,-324.279 L 0.784866,-324.475 L -0.784866,-324.475 L -2.34225,-324.279
 L -3.8627,-323.888 L -5.32224,-323.31 L -6.69783,-322.554 L -7.96779,-321.631 L -9.11211,-320.557 L -10.1127,-319.347
 L -10.9538,-318.022 L -11.6222,-316.602 L -12.1073,-315.109 L -12.4014,-313.567 L -12.5,-312 L -12.4014,-310.433
 L -12.1073,-308.891 L -11.6222,-307.398 L -10.9538,-305.978 L -10.1127,-304.653 L -9.11211,-303.443 L -7.96779,-302.369
 L -6.69783,-301.446 L -5.32224,-300.69 L -3.8627,-300.112 L -3.42726,-300 L -3.8627,-299.888 L -5.32224,-299.31
 L -6.69783,-298.554 L -7.96779,-297.631 L -9.11211,-296.557 L -10.1127,-295.347 L -10.9538,-294.022 L -11.6222,-292.602
 L -12.1073,-291.109 L -12.4014,-289.567 L -12.5,-288 L -12.4014,-286.433 L -12.1073,-284.891 L -11.6222,-283.398
 L -10.9538,-281.978 L -10.1127,-280.653 L -9.11211,-279.443 L -7.96779,-278.369 L -6.69783,-277.446 L -5.32224,-276.69
 L -3.8627,-276.112 L -3.42726,-276 L -3.8627,-275.888 L -5.32224,-275.31 L -6.69783,-274.554 L -7.96779,-273.631
 L -9.11211,-272.557 L -10.1127,-271.347 L -10.9538,-270.022 L -11.6222,-268.602 L -12.1073,-267.109 L -12.4014,-265.567
 L -12.5,-264 L -12.4014,-262.433 L -12.1073,-260.891 L -11.6222,-259.398 L -10.9538,-257.978 L -10.1127,-256.653
 L -9.11211,-255.443 L -7.96779,-254.369 L -6.69783,-253.446 L -5.32224,-252.69 L -3.8627,-252.112 L -3.42726,-252
 L -3.8627,-251.888 L -5.32224,-251.31 L -6.69783,-250.554 L -7.96779,-249.631 L -9.11211,-248.557 L -10.1127,-247.347
 L -10.9538,-246.022 L -11.6222,-244.602 L -12.1073,-243.109 L -12.4014,-241.567 L -12.5,-240 L -12.4014,-238.433
 L -12.1073,-236.891 L -11.6222,-235.398 L -10.9538,-233.978 L -10.1127,-232.653 L -9.11211,-231.443 L -7.96779,-230.369
 L -6.69783,-229.446 L -5.32224,-228.69 L -3.8627,-228.112 L -3.42726,-228 L -3.8627,-227.888 L -5.32224,-227.31
 L -6.69783,-226.554 L -7.96779,-225.631 L -9.11211,-224.557 L -10.1127,-223.347 L -10.9538,-222.022 L -11.6222,-220.602
 L -12.1073,-219.109 L -12.4014,-217.567 L -12.5,-216 L -12.4014,-214.433 L -12.1073,-212.891 L -11.6222,-211.398
 L -10.9538,-209.978 L -10.1127,-208.653 L -9.11211,-207.443 L -7.96779,-206.369 L -6.69783,-205.446 L -5.32224,-204.69
 L -3.8627,-204.112 L -3.42726,-204 L -3.8627,-203.888 L -5.32224,-203.31 L -6.69783,-202.554 L -7.96779,-201.631
 L -9.11211,-200.557 L -10.1127,-199.347 L -10.9538,-198.022 L -11.6222,-196.602 L -12.1073,-195.109 L -12.4014,-193.567
 L -12.5,-192 L -12.4014,-190.433 L -12.1073,-188.891 L -11.6222,-187.398 L -10.9538,-185.978 L -10.1127,-184.653
 L -9.11211,-183.443 L -7.96779,-182.369 L -6.69783,-181.446 L -5.32224,-180.69 L -3.8627,-180.112 L -3.42726,-180
 L -3.8627,-179.888 L -5.32224,-179.31 L -6.69783,-178.554 L -7.96779,-177.631 L -9.11211,-176.557 L -10.1127,-175.347
 L -10.9538,-174.022 L -11.6222,-172.602 L -12.1073,-171.109 L -12.4014,-169.567 L -12.5,-168 L -12.4014,-166.433
 L -12.1073,-164.891 L -11.6222,-163.398 L -10.9538,-161.978 L -10.1127,-160.653 L -9.11211,-159.443 L -7.96779,-158.369
 L -6.69783,-157.446 L -5.32224,-156.69 L -3.8627,-156.112 L -3.42726,-156 L -3.8627,-155.888 L -5.32224,-155.31
 L -6.69783,-154.554 L -7.96779,-153.631 L -9.11211,-152.557 L -10.1127,-151.347 L -10.9538,-150.022 L -11.6222,-148.602
 L -12.1073,-147.109 L -12.4014,-145.567 L -12.5,-144 L -12.4014,-142.433 L -12.1073,-140.891 L -11.6222,-139.398
 L -10.9538,-137.978 L -10.1127,-136.653 L -9.11211,-135.443 L -7.96779,-134.369 L -6.69783,-133.446 L -5.32224,-132.69
 L -3.8627,-132.112 L -3.42726,-132 L -3.8627,-131.888 L -5.32224,-131.31 L -6.69783,-130.554 L -7.96779,-129.631
 L -9.11211,-128.557 L -10.1127,-127.347 L -10.9538,-126.022 L -11.6222,-124.602 L -12.1073,-123.109 L -12.4014,-121.567
 L -12.5,-120 L -12.4014,-118.433 L -12.1073,-116.891 L -11.6222,-115.398 L -10.9538,-113.978 L -10.1127,-112.653
 L -9.11211,-111.443 L -7.96779,-110.369 L -6.69783,-109.446 L -5.32224,-108.69 L -3.8627,-108.112 L -3.42726,-108
 L -3.8627,-107.888 L -5.32224,-107.31 L -6.69783,-106.554 L -7.96779,-105.631 L -9.11211,-104.557 L -10.1127,-103.347
 L -10.9538,-102.022 L -11.6222,-100.602 L -12.1073,-99.1086 L -12.4014,-97.5667 L -12.5,-96 L -12.4014,-94.4333
 L -12.1073,-92.8914 L -11.6222,-91.3985 L -10.9538,-89.9781 L -10.1127,-88.6527 L -9.11211,-87.4432 L -7.96779,-86.3686
 L -6.69783,-85.4459 L -5.32224,-84.6897 L -3.8627,-84.1118 L -3.42726,-84 L -3.8627,-83.8882 L -5.32224,-83.3103
 L -6.69783,-82.5541 L -7.96779,-81.6314 L -9.11211,-80.5568 L -10.1127,-79.3473 L -10.9538,-78.0219 L -11.6222,-76.6015
 L -12.1073,-75.1086 L -12.4014,-73.5667 L -12.5,-72 L -12.4014,-70.4333 L -12.1073,-68.8914 L -11.6222,-67.3985
 L -10.9538,-65.9781 L -10.1127,-64.6527 L -9.11211,-63.4432 L -7.96779,-62.3686 L -6.69783,-61.4459 L -5.32224,-60.6897
 L -3.8627,-60.1118 L -3.42726,-60 L -3.8627,-59.8882 L -5.32224,-59.3103 L -6.69783,-58.5541 L -7.96779,-57.6314
 L -9.11211,-56.5568 L -10.1127,-55.3473 L -10.9538,-54.0219 L -11.6222,-52.6015 L -12.1073,-51.1086 L -12.4014,-49.5667
 L -12.5,-48 L -12.4014,-46.4333 L -12.1073,-44.8914 L -11.6222,-43.3985 L -10.9538,-41.9781 L -10.1127,-40.6527
 L -9.11211,-39.4432 L -7.96779,-38.3686 L -6.69783,-37.4459 L -5.32224,-36.6897 L -3.8627,-36.1118 L -3.42726,-36
 L -3.8627,-35.8882 L -5.32224,-35.3103 L -6.69783,-34.5541 L -7.96779,-33.6314 L -9.11211,-32.5568 L -10.1127,-31.3473
 L -10.9538,-30.0219 L -11.6222,-28.6015 L -12.1073,-27.1086 L -12.4014,-25.5667 L -12.5,-24 L -12.4014,-22.4333
 L -12.1073,-20.8914 L -11.6222,-19.3985 L -10.9538,-17.9781 L -10.1127,-16.6527 L -9.11211,-15.4432 L -7.96779,-14.3686
 L -6.69783,-13.4459 L -5.32224,-12.6897 L -3.8627,-12.1118 L -3.42726,-12 L -3.8627,-11.8882 L -5.32224,-11.3103
 L -6.69783,-10.5541 L -7.96779,-9.63141 L -9.11211,-8.55682 L -10.1127,-7.34731 L -10.9538,-6.02191 L -11.6222,-4.60155
 L -12.1073,-3.10861 L -12.4014,-1.56665 L -12.5,-0 L -12.4014,1.56665 L -12.1073,3.10861 L -11.6222,4.60155
 L -10.9538,6.02191 L -10.1127,7.34731 L -9.11211,8.55682 L -7.96779,9.63141 L -6.69783,10.5541 L -5.32224,11.3103
 L -3.8627,11.8882 L -2.34225,12.2786 L -0.784866,12.4753 L 0.784866,12.4753 z
M -0.229599,-308.35 L -0.685196,-308.408 L -1.12999,-308.522 L -1.55696,-308.691 L -1.95938,-308.913 L -2.3309,-309.182
 L -2.66565,-309.497 L -2.95837,-309.851 L -3.20444,-310.238 L -3.39996,-310.654 L -3.54187,-311.091 L -3.62791,-311.542
 L -3.65675,-312 L -3.62791,-312.458 L -3.54187,-312.909 L -3.39996,-313.346 L -3.20444,-313.762 L -2.95837,-314.149
 L -2.66565,-314.503 L -2.3309,-314.818 L -1.95938,-315.087 L -1.55696,-315.309 L -1.12999,-315.478 L -0.685196,-315.592
 L -0.229599,-315.65 L 0.229599,-315.65 L 0.685196,-315.592 L 1.12999,-315.478 L 1.55696,-315.309 L 1.95938,-315.087
 L 2.3309,-314.818 L 2.66565,-314.503 L 2.95837,-314.149 L 3.20444,-313.762 L 3.39996,-313.346 L 3.54187,-312.909
 L 3.62791,-312.458 L 3.65675,-312 L 3.62791,-311.542 L 3.54187,-311.091 L 3.39996,-310.654 L 3.20444,-310.238
 L 2.95837,-309.851 L 2.66565,-309.497 L 2.3309,-309.182 L 1.95938,-308.913 L 1.55696,-308.691 L 1.12999,-308.522
 L 0.685196,-308.408 L 0.229599,-308.35 z
M -0.180511,-285.131 L -0.538712,-285.176 L -0.888412,-285.266 L -1.22411,-285.399 L -1.5405,-285.573 L -1.83258,-285.785
 L -2.09578,-286.032 L -2.32591,-286.31 L -2.51938,-286.615 L -2.6731,-286.942 L -2.78467,-287.285 L -2.85233,-287.64
 L -2.875,-288 L -2.85233,-288.36 L -2.78467,-288.715 L -2.6731,-289.058 L -2.51938,-289.385 L -2.32591,-289.69
 L -2.09578,-289.968 L -1.83258,-290.215 L -1.5405,-290.427 L -1.22411,-290.601 L -0.888412,-290.734 L -0.538712,-290.824
 L -0.180511,-290.869 L 0.180511,-290.869 L 0.538712,-290.824 L 0.888412,-290.734 L 1.22411,-290.601 L 1.5405,-290.427
 L 1.83258,-290.215 L 2.09578,-289.968 L 2.32591,-289.69 L 2.51938,-289.385 L 2.6731,-289.058 L 2.78467,-288.715
 L 2.85233,-288.36 L 2.875,-288 L 2.85233,-287.64 L 2.78467,-287.285 L 2.6731,-286.942 L 2.51938,-286.615
 L 2.32591,-286.31 L 2.09578,-286.032 L 1.83258,-285.785 L 1.5405,-285.573 L 1.22411,-285.399 L 0.888412,-285.266
 L 0.538712,-285.176 L 0.180511,-285.131 z
M -0.180511,-261.131 L -0.538712,-261.176 L -0.888412,-261.266 L -1.22411,-261.399 L -1.5405,-261.573 L -1.83258,-261.785
 L -2.09578,-262.032 L -2.32591,-262.31 L -2.51938,-262.615 L -2.6731,-262.942 L -2.78467,-263.285 L -2.85233,-263.64
 L -2.875,-264 L -2.85233,-264.36 L -2.78467,-264.715 L -2.6731,-265.058 L -2.51938,-265.385 L -2.32591,-265.69
 L -2.09578,-265.968 L -1.83258,-266.215 L -1.5405,-266.427 L -1.22411,-266.601 L -0.888412,-266.734 L -0.538712,-266.824
 L -0.180511,-266.869 L 0.180511,-266.869 L 0.538712,-266.824 L 0.888412,-266.734 L 1.22411,-266.601 L 1.5405,-266.427
 L 1.83258,-266.215 L 2.09578,-265.968 L 2.32591,-265.69 L 2.51938,-265.385 L 2.6731,-265.058 L 2.78467,-264.715
 L 2.85233,-264.36 L 2.875,-264 L 2.85233,-263.64 L 2.78467,-263.285 L 2.6731,-262.942 L 2.51938,-262.615
 L 2.32591,-262.31 L 2.09578,-262.032 L 1.83258,-261.785 L 1.5405,-261.573 L 1.22411,-261.399 L 0.888412,-261.266
 L 0.538712,-261.176 L 0.180511,-261.131 z
M -0.180511,-237.131 L -0.538712,-237.176 L -0.888412,-237.266 L -1.22411,-237.399 L -1.5405,-237.573 L -1.83258,-237.785
 L -2.09578,-238.032 L -2.32591,-238.31 L -2.51938,-238.615 L -2.6731,-238.942 L -2.78467,-239.285 L -2.85233,-239.64
 L -2.875,-240 L -2.85233,-240.36 L -2.78467,-240.715 L -2.6731,-241.058 L -2.51938,-241.385 L -2.32591,-241.69
 L -2.09578,-241.968 L -1.83258,-242.215 L -1.5405,-242.427 L -1.22411,-242.601 L -0.888412,-242.734 L -0.538712,-242.824
 L -0.180511,-242.869 L 0.180511,-242.869 L 0.538712,-242.824 L 0.888412,-242.734 L 1.22411,-242.601 L 1.5405,-242.427
 L 1.83258,-242.215 L 2.09578,-241.968 L 2.32591,-241.69 L 2.51938,-241.385 L 2.6731,-241.058 L 2.78467,-240.715
 L 2.85233,-240.36 L 2.875,-240 L 2.85233,-239.64 L 2.78467,-239.285 L 2.6731,-238.942 L 2.51938,-238.615
 L 2.32591,-238.31 L 2.09578,-238.032 L 1.83258,-237.785 L 1.5405,-237.573 L 1.22411,-237.399 L 0.888412,-237.266
 L 0.538712,-237.176 L 0.180511,-237.131 z
M -0.180511,-213.131 L -0.538712,-213.176 L -0.888412,-213.266 L -1.22411,-213.399 L -1.5405,-213.573 L -1.83258,-213.785
 L -2.09578,-214.032 L -2.32591,-214.31 L -2.51938,-214.615 L -2.6731,-214.942 L -2.78467,-215.285 L -2.85233,-215.64
 L -2.875,-216 L -2.85233,-216.36 L -2.78467,-216.715 L -2.6731,-217.058 L -2.51938,-217.385 L -2.32591,-217.69
 L -2.09578,-217.968 L -1.83258,-218.215 L -1.5405,-218.427 L -1.22411,-218.601 L -0.888412,-218.734 L -0.538712,-218.824
 L -0.180511,-218.869 L 0.180511,-218.869 L 0.538712,-218.824 L 0.888412,-218.734 L 1.22411,-218.601 L 1.5405,-218.427
 L 1.83258,-218.215 L 2.09578,-217.968 L 2.32591,-217.69 L 2.51938,-217.385 L 2.6731,-217.058 L 2.78467,-216.715
 L 2.85233,-216.36 L 2.875,-216 L 2.85233,-215.64 L 2.78467,-215.285 L 2.6731,-214.942 L 2.51938,-214.615
 L 2.32591,-214.31 L 2.09578,-214.032 L 1.83258,-213.785 L 1.5405,-213.573 L 1.22411,-213.399 L 0.888412,-213.266
 L 0.538712,-213.176 L 0.180511,-213.131 z
M -0.180511,-189.131 L -0.538712,-189.176 L -0.888412,-189.266 L -1.22411,-189.399 L -1.5405,-189.573 L -1.83258,-189.785
 L -2.09578,-190.032 L -2.32591,-190.31 L -2.51938,-190.615 L -2.6731,-190.942 L -2.78467,-191.285 L -2.85233,-191.64
 L -2.875,-192 L -2.85233,-192.36 L -2.78467,-192.715 L -2.6731,-193.058 L -2.51938,-193.385 L -2.32591,-193.69
 L -2.09578,-193.968 L -1.83258,-194.215 L -1.5405,-194.427 L -1.22411,-194.601 L -0.888412,-194.734 L -0.538712,-194.824
 L -0.180511,-194.869 L 0.180511,-194.869 L 0.538712,-194.824 L 0.888412,-194.734 L 1.22411,-194.601 L 1.5405,-194.427
 L 1.83258,-194.215 L 2.09578,-193.968 L 2.32591,-193.69 L 2.51938,-193.385 L 2.6731,-193.058 L 2.78467,-192.715
 L 2.85233,-192.36 L 2.875,-192 L 2.85233,-191.64 L 2.78467,-191.285 L 2.6731,-190.942 L 2.51938,-190.615
 L 2.32591,-190.31 L 2.09578,-190.032 L 1.83258,-189.785 L 1.5405,-189.573 L 1.22411,-189.399 L 0.888412,-189.266
 L 0.538712,-189.176 L 0.180511,-189.131 z
M -0.180511,-165.131 L -0.538712,-165.176 L -0.888412,-165.266 L -1.22411,-165.399 L -1.5405,-165.573 L -1.83258,-165.785
 L -2.09578,-166.032 L -2.32591,-166.31 L -2.51938,-166.615 L -2.6731,-166.942 L -2.78467,-167.285 L -2.85233,-167.64
 L -2.875,-168 L -2.85233,-168.36 L -2.78467,-168.715 L -2.6731,-169.058 L -2.51938,-169.385 L -2.32591,-169.69
 L -2.09578,-169.968 L -1.83258,-170.215 L -1.5405,-170.427 L -1.22411,-170.601 L -0.888412,-170.734 L -0.538712,-170.824
 L -0.180511,-170.869 L 0.180511,-170.869 L 0.538712,-170.824 L 0.888412,-170.734 L 1.22411,-170.601 L 1.5405,-170.427
 L 1.83258,-170.215 L 2.09578,-169.968 L 2.32591,-169.69 L 2.51938,-169.385 L 2.6731,-169.058 L 2.78467,-168.715
 L 2.85233,-168.36 L 2.875,-168 L 2.85233,-167.64 L 2.78467,-167.285 L 2.6731,-166.942 L 2.51938,-166.615
 L 2.32591,-166.31 L 2.09578,-166.032 L 1.83258,-165.785 L 1.5405,-165.573 L 1.22411,-165.399 L 0.888412,-165.266
 L 0.538712,-165.176 L 0.180511,-165.131 z
M -0.180511,-141.131 L -0.538712,-141.176 L -0.888412,-141.266 L -1.22411,-141.399 L -1.5405,-141.573 L -1.83258,-141.785
 L -2.09578,-142.032 L -2.32591,-142.31 L -2.51938,-142.615 L -2.6731,-142.942 L -2.78467,-143.285 L -2.85233,-143.64
 L -2.875,-144 L -2.85233,-144.36 L -2.78467,-144.715 L -2.6731,-145.058 L -2.51938,-145.385 L -2.32591,-145.69
 L -2.09578,-145.968 L -1.83258,-146.215 L -1.5405,-146.427 L -1.22411,-146.601 L -0.888412,-146.734 L -0.538712,-146.824
 L -0.180511,-146.869 L 0.180511,-146.869 L 0.538712,-146.824 L 0.888412,-146.734 L 1.22411,-146.601 L 1.5405,-146.427
 L 1.83258,-146.215 L 2.09578,-145.968 L 2.32591,-145.69 L 2.51938,-145.385 L 2.6731,-145.058 L 2.78467,-144.715
 L 2.85233,-144.36 L 2.875,-144 L 2.85233,-143.64 L 2.78467,-143.285 L 2.6731,-142.942 L 2.51938,-142.615
 L 2.32591,-142.31 L 2.09578,-142.032 L 1.83258,-141.785 L 1.5405,-141.573 L 1.22411,-141.399 L 0.888412,-141.266
 L 0.538712,-141.176 L 0.180511,-141.131 z
M -0.180511,-117.131 L -0.538712,-117.176 L -0.888412,-117.266 L -1.22411,-117.399 L -1.5405,-117.573 L -1.83258,-117.785
 L -2.09578,-118.032 L -2.32591,-118.31 L -2.51938,-118.615 L -2.6731,-118.942 L -2.78467,-119.285 L -2.85233,-119.64
 L -2.875,-120 L -2.85233,-120.36 L -2.78467,-120.715 L -2.6731,-121.058 L -2.51938,-121.385 L -2.32591,-121.69
 L -2.09578,-121.968 L -1.83258,-122.215 L -1.5405,-122.427 L -1.22411,-122.601 L -0.888412,-122.734 L -0.538712,-122.824
 L -0.180511,-122.869 L 0.180511,-122.869 L 0.538712,-122.824 L 0.888412,-122.734 L 1.22411,-122.601 L 1.5405,-122.427
 L 1.83258,-122.215 L 2.09578,-121.968 L 2.32591,-121.69 L 2.51938,-121.385 L 2.6731,-121.058 L 2.78467,-120.715
 L 2.85233,-120.36 L 2.875,-120 L 2.85233,-119.64 L 2.78467,-119.285 L 2.6731,-118.942 L 2.51938,-118.615
 L 2.32591,-118.31 L 2.09578,-118.032 L 1.83258,-117.785 L 1.5405,-117.573 L 1.22411,-117.399 L 0.888412,-117.266
 L 0.538712,-117.176 L 0.180511,-117.131 z
M -0.180511,-93.1307 L -0.538712,-93.1759 L -0.888412,-93.2657 L -1.22411,-93.3986 L -1.5405,-93.5726 L -1.83258,-93.7848
 L -2.09578,-94.0319 L -2.32591,-94.3101 L -2.51938,-94.615 L -2.6731,-94.9417 L -2.78467,-95.285 L -2.85233,-95.6397
 L -2.875,-96 L -2.85233,-96.3603 L -2.78467,-96.715 L -2.6731,-97.0583 L -2.51938,-97.385 L -2.32591,-97.6899
 L -2.09578,-97.9681 L -1.83258,-98.2152 L -1.5405,-98.4274 L -1.22411,-98.6014 L -0.888412,-98.7343 L -0.538712,-98.8241
 L -0.180511,-98.8693 L 0.180511,-98.8693 L 0.538712,-98.8241 L 0.888412,-98.7343 L 1.22411,-98.6014 L 1.5405,-98.4274
 L 1.83258,-98.2152 L 2.09578,-97.9681 L 2.32591,-97.6899 L 2.51938,-97.385 L 2.6731,-97.0583 L 2.78467,-96.715
 L 2.85233,-96.3603 L 2.875,-96 L 2.85233,-95.6397 L 2.78467,-95.285 L 2.6731,-94.9417 L 2.51938,-94.615
 L 2.32591,-94.3101 L 2.09578,-94.0319 L 1.83258,-93.7848 L 1.5405,-93.5726 L 1.22411,-93.3986 L 0.888412,-93.2657
 L 0.538712,-93.1759 L 0.180511,-93.1307 z
M -0.180511,-69.1307 L -0.538712,-69.1759 L -0.888412,-69.2657 L -1.22411,-69.3986 L -1.5405,-69.5726 L -1.83258,-69.7848
 L -2.09578,-70.0319 L -2.32591,-70.3101 L -2.51938,-70.615 L -2.6731,-70.9417 L -2.78467,-71.285 L -2.85233,-71.6397
 L -2.875,-72 L -2.85233,-72.3603 L -2.78467,-72.715 L -2.6731,-73.0583 L -2.51938,-73.385 L -2.32591,-73.6899
 L -2.09578,-73.9681 L -1.83258,-74.2152 L -1.5405,-74.4274 L -1.22411,-74.6014 L -0.888412,-74.7343 L -0.538712,-74.8241
 L -0.180511,-74.8693 L 0.180511,-74.8693 L 0.538712,-74.8241 L 0.888412,-74.7343 L 1.22411,-74.6014 L 1.5405,-74.4274
 L 1.83258,-74.2152 L 2.09578,-73.9681 L 2.32591,-73.6899 L 2.51938,-73.385 L 2.6731,-73.0583 L 2.78467,-72.715
 L 2.85233,-72.3603 L 2.875,-72 L 2.85233,-71.6397 L 2.78467,-71.285 L 2.6731,-70.9417 L 2.51938,-70.615
 L 2.32591,-70.3101 L 2.09578,-70.0319 L 1.83258,-69.7848 L 1.5405,-69.5726 L 1.22411,-69.3986 L 0.888412,-69.2657
 L 0.538712,-69.1759 L 0.180511,-69.1307 z
M -0.180511,-45.1307 L -0.538712,-45.1759 L -0.888412,-45.2657 L -1.22411,-45.3986 L -1.5405,-45.5726 L -1.83258,-45.7848
 L -2.09578,-46.0319 L -2.32591,-46.3101 L -2.51938,-46.615 L -2.6731,-46.9417 L -2.78467,-47.285 L -2.85233,-47.6397
 L -2.875,-48 L -2.85233,-48.3603 L -2.78467,-48.715 L -2.6731,-49.0583 L -2.51938,-49.385 L -2.32591,-49.6899
 L -2.09578,-49.9681 L -1.83258,-50.2152 L -1.5405,-50.4274 L -1.22411,-50.6014 L -0.888412,-50.7343 L -0.538712,-50.8241
 L -0.180511,-50.8693 L 0.180511,-50.8693 L 0.538712,-50.8241 L 0.888412,-50.7343 L 1.22411,-50.6014 L 1.5405,-50.4274
 L 1.83258,-50.2152 L 2.09578,-49.9681 L 2.32591,-49.6899 L 2.51938,-49.385 L 2.6731,-49.0583 L 2.78467,-48.715
 L 2.85233,-48.3603 L 2.875,-48 L 2.85233,-47.6397 L 2.78467,-47.285 L 2.6731,-46.9417 L 2.51938,-46.615
 L 2.32591,-46.3101 L 2.09578,-46.0319 L 1.83258,-45.7848 L 1.5405,-45.5726 L 1.22411,-45.3986 L 0.888412,-45.2657
 L 0.538712,-45.1759 L 0.180511,-45.1307 z
M -0.180511,-21.1307 L -0.538712,-21.1759 L -0.888412,-21.2657 L -1.22411,-21.3986 L -1.5405,-21.5726 L -1.83258,-21.7848
 L -2.09578,-22.0319 L -2.32591,-22.3101 L -2.51938,-22.615 L -2.6731,-22.9417 L -2.78467,-23.285 L -2.85233,-23.6397
 L -2.875,-24 L -2.85233,-24.3603 L -2.78467,-24.715 L -2.6731,-25.0583 L -2.51938,-25.385 L -2.32591,-25.6899
 L -2.09578,-25.9681 L -1.83258,-26.2152 L -1.5405,-26.4274 L -1.22411,-26.6014 L -0.888412,-26.7343 L -0.538712,-26.8241
 L -0.180511,-26.8693 L 0.180511,-26.8693 L 0.538712,-26.8241 L 0.888412,-26.7343 L 1.22411,-26.6014 L 1.5405,-26.4274
 L 1.83258,-26.2152 L 2.09578,-25.9681 L 2.32591,-25.6899 L 2.51938,-25.385 L 2.6731,-25.0583 L 2.78467,-24.715
 L 2.85233,-24.3603 L 2.875,-24 L 2.85233,-23.6397 L 2.78467,-23.285 L 2.6731,-22.9417 L 2.51938,-22.615
 L 2.32591,-22.3101 L 2.09578,-22.0319 L 1.83258,-21.7848 L 1.5405,-21.5726 L 1.22411,-21.3986 L 0.888412,-21.2657
 L 0.538712,-21.1759 L 0.180511,-21.1307 z
M -0.180511,2.86932 L -0.538712,2.82407 L -0.888412,2.73428 L -1.22411,2.60136 L -1.5405,2.42743 L -1.83258,2.21523
 L -2.09578,1.96806 L -2.32591,1.68988 L -2.51938,1.38504 L -2.6731,1.05835 L -2.78467,0.714981 L -2.85233,0.360321
 L -2.875,-0 L -2.85233,-0.360321 L -2.78467,-0.714981 L -2.6731,-1.05835 L -2.51938,-1.38504 L -2.32591,-1.68988
 L -2.09578,-1.96806 L -1.83258,-2.21523 L -1.5405,-2.42743 L -1.22411,-2.60136 L -0.888412,-2.73428 L -0.538712,-2.82407
 L -0.180511,-2.86932 L 0.180511,-2.86932 L 0.538712,-2.82407 L 0.888412,-2.73428 L 1.22411,-2.60136 L 1.5405,-2.42743
 L 1.83258,-2.21523 L 2.09578,-1.96806 L 2.32591,-1.68988 L 2.51938,-1.38504 L 2.6731,-1.05835 L 2.78467,-0.714981
 L 2.85233,-0.360321 L 2.875,-0 L 2.85233,0.360321 L 2.78467,0.714981 L 2.6731,1.05835 L 2.51938,1.38504
 L 2.32591,1.68988 L 2.09578,1.96806 L 1.83258,2.21523 L 1.5405,2.42743 L 1.22411,2.60136 L 0.888412,2.73428
 L 0.538712,2.82407 L 0.180511,2.86932 z
" stroke="black" fill="lightgray" stroke-width="0.5"/>
</svg>
