  0
SECTION
  2
BLOCKS
  0
ENDSEC
  0
SECTION
  2
ENTITIES
  0
LINE
  8
0
 10
2.34225
 20
-12.2786
 11
3.8627
 21
-11.8882
  0
LINE
  8
0
 10
3.8627
 20
-11.8882
 11
5.32224
 21
-11.3103
  0
LINE
  8
0
 10
5.32224
 20
-11.3103
 11
6.69783
 21
-10.5541
  0
LINE
  8
0
 10
6.69783
 20
-10.5541
 11
7.96779
 21
-9.63141
  0
LINE
  8
0
 10
7.96779
 20
-9.63141
 11
9.11211
 21
-8.55682
  0
LINE
  8
0
 10
9.11211
 20
-8.55682
 11
10.1127
 21
-7.34731
  0
LINE
  8
0
 10
10.1127
 20
-7.34731
 11
10.9538
 21
-6.02191
  0
LINE
  8
0
 10
10.9538
 20
-6.02191
 11
11.6222
 21
-4.60155
  0
LINE
  8
0
 10
11.6222
 20
-4.60155
 11
12.1073
 21
-3.10861
  0
LINE
  8
0
 10
12.1073
 20
-3.10861
 11
12.4014
 21
-1.56665
  0
LINE
  8
0
 10
12.4014
 20
-1.56665
 11
12.5
 21
0
  0
LINE
  8
0
 10
12.5
 20
0
 11
12.4014
 21
1.56665
  0
LINE
  8
0
 10
12.4014
 20
1.56665
 11
12.1073
 21
3.10861
  0
LINE
  8
0
 10
12.1073
 20
3.10861
 11
11.6222
 21
4.60155
  0
LINE
  8
0
 10
11.6222
 20
4.60155
 11
10.9538
 21
6.02191
  0
LINE
  8
0
 10
10.9538
 20
6.02191
 11
10.1127
 21
7.34731
  0
LINE
  8
0
 10
10.1127
 20
7.34731
 11
9.11211
 21
8.55682
  0
LINE
  8
0
 10
9.11211
 20
8.55682
 11
7.96779
 21
9.63141
  0
LINE
  8
0
 10
7.96779
 20
9.63141
 11
6.69783
 21
10.5541
  0
LINE
  8
0
 10
6.69783
 20
10.5541
 11
5.32224
 21
11.3103
  0
LINE
  8
0
 10
5.32224
 20
11.3103
 11
3.8627
 21
11.8882
  0
LINE
  8
0
 10
3.8627
 20
11.8882
 11
3.42726
 21
12
  0
LINE
  8
0
 10
3.42726
 20
12
 11
3.8627
 21
12.1118
  0
LINE
  8
0
 10
3.8627
 20
12.1118
 11
5.32224
 21
12.6897
  0
LINE
  8
0
 10
5.32224
 20
12.6897
 11
6.69783
 21
13.4459
  0
LINE
  8
0
 10
6.69783
 20
13.4459
 11
7.96779
 21
14.3686
  0
LINE
  8
0
 10
7.96779
 20
14.3686
 11
9.11211
 21
15.4432
  0
LINE
  8
0
 10
9.11211
 20
15.4432
 11
10.1127
 21
16.6527
  0
LINE
  8
0
 10
10.1127
 20
16.6527
 11
10.9538
 21
17.9781
  0
LINE
  8
0
 10
10.9538
 20
17.9781
 11
11.6222
 21
19.3985
  0
LINE
  8
0
 10
11.6222
 20
19.3985
 11
12.1073
 21
20.8914
  0
LINE
  8
0
 10
12.1073
 20
20.8914
 11
12.4014
 21
22.4333
  0
LINE
  8
0
 10
12.4014
 20
22.4333
 11
12.5
 21
24
  0
LINE
  8
0
 10
12.5
 20
24
 11
12.4014
 21
25.5667
  0
LINE
  8
0
 10
12.4014
 20
25.5667
 11
12.1073
 21
27.1086
  0
LINE
  8
0
 10
12.1073
 20
27.1086
 11
11.6222
 21
28.6015
  0
LINE
  8
0
 10
11.6222
 20
28.6015
 11
10.9538
 21
30.0219
  0
LINE
  8
0
 10
10.9538
 20
30.0219
 11
10.1127
 21
31.3473
  0
LINE
  8
0
 10
10.1127
 20
31.3473
 11
9.11211
 21
32.5568
  0
LINE
  8
0
 10
9.11211
 20
32.5568
 11
7.96779
 21
33.6314
  0
LINE
  8
0
 10
7.96779
 20
33.6314
 11
6.69783
 21
34.5541
  0
LINE
  8
0
 10
6.69783
 20
34.5541
 11
5.32224
 21
35.3103
  0
LINE
  8
0
 10
5.32224
 20
35.3103
 11
3.8627
 21
35.8882
  0
LINE
  8
0
 10
3.8627
 20
35.8882
 11
3.42726
 21
36
  0
LINE
  8
0
 10
3.42726
 20
36
 11
3.8627
 21
36.1118
  0
LINE
  8
0
 10
3.8627
 20
36.1118
 11
5.32224
 21
36.6897
  0
LINE
  8
0
 10
5.32224
 20
36.6897
 11
6.69783
 21
37.4459
  0
LINE
  8
0
 10
6.69783
 20
37.4459
 11
7.96779
 21
38.3686
  0
LINE
  8
0
 10
7.96779
 20
38.3686
 11
9.11211
 21
39.4432
  0
LINE
  8
0
 10
9.11211
 20
39.4432
 11
10.1127
 21
40.6527
  0
LINE
  8
0
 10
10.1127
 20
40.6527
 11
10.9538
 21
41.9781
  0
LINE
  8
0
 10
10.9538
 20
41.9781
 11
11.6222
 21
43.3985
  0
LINE
  8
0
 10
11.6222
 20
43.3985
 11
12.1073
 21
44.8914
  0
LINE
  8
0
 10
12.1073
 20
44.8914
 11
12.4014
 21
46.4333
  0
LINE
  8
0
 10
12.4014
 20
46.4333
 11
12.5
 21
48
  0
LINE
  8
0
 10
12.5
 20
48
 11
12.4014
 21
49.5667
  0
LINE
  8
0
 10
12.4014
 20
49.5667
 11
12.1073
 21
51.1086
  0
LINE
  8
0
 10
12.1073
 20
51.1086
 11
11.6222
 21
52.6015
  0
LINE
  8
0
 10
11.6222
 20
52.6015
 11
10.9538
 21
54.0219
  0
LINE
  8
0
 10
10.9538
 20
54.0219
 11
10.1127
 21
55.3473
  0
LINE
  8
0
 10
10.1127
 20
55.3473
 11
9.11211
 21
56.5568
  0
LINE
  8
0
 10
9.11211
 20
56.5568
 11
7.96779
 21
57.6314
  0
LINE
  8
0
 10
7.96779
 20
57.6314
 11
6.69783
 21
58.5541
  0
LINE
  8
0
 10
6.69783
 20
58.5541
 11
5.32224
 21
59.3103
  0
LINE
  8
0
 10
5.32224
 20
59.3103
 11
3.8627
 21
59.8882
  0
LINE
  8
0
 10
3.8627
 20
59.8882
 11
3.42726
 21
60
  0
LINE
  8
0
 10
3.42726
 20
60
 11
3.8627
 21
60.1118
  0
LINE
  8
0
 10
3.8627
 20
60.1118
 11
5.32224
 21
60.6897
  0
LINE
  8
0
 10
5.32224
 20
60.6897
 11
6.69783
 21
61.4459
  0
LINE
  8
0
 10
6.69783
 20
61.4459
 11
7.96779
 21
62.3686
  0
LINE
  8
0
 10
7.96779
 20
62.3686
 11
9.11211
 21
63.4432
  0
LINE
  8
0
 10
9.11211
 20
63.4432
 11
10.1127
 21
64.6527
  0
LINE
  8
0
 10
10.1127
 20
64.6527
 11
10.9538
 21
65.9781
  0
LINE
  8
0
 10
10.9538
 20
65.9781
 11
11.6222
 21
67.3985
  0
LINE
  8
0
 10
11.6222
 20
67.3985
 11
12.1073
 21
68.8914
  0
LINE
  8
0
 10
12.1073
 20
68.8914
 11
12.4014
 21
70.4333
  0
LINE
  8
0
 10
12.4014
 20
70.4333
 11
12.5
 21
72
  0
LINE
  8
0
 10
12.5
 20
72
 11
12.4014
 21
73.5667
  0
LINE
  8
0
 10
12.4014
 20
73.5667
 11
12.1073
 21
75.1086
  0
LINE
  8
0
 10
12.1073
 20
75.1086
 11
11.6222
 21
76.6015
  0
LINE
  8
0
 10
11.6222
 20
76.6015
 11
10.9538
 21
78.0219
  0
LINE
  8
0
 10
10.9538
 20
78.0219
 11
10.1127
 21
79.3473
  0
LINE
  8
0
 10
10.1127
 20
79.3473
 11
9.11211
 21
80.5568
  0
LINE
  8
0
 10
9.11211
 20
80.5568
 11
7.96779
 21
81.6314
  0
LINE
  8
0
 10
7.96779
 20
81.6314
 11
6.69783
 21
82.5541
  0
LINE
  8
0
 10
6.69783
 20
82.5541
 11
5.32224
 21
83.3103
  0
LINE
  8
0
 10
5.32224
 20
83.3103
 11
3.8627
 21
83.8882
  0
LINE
  8
0
 10
3.8627
 20
83.8882
 11
3.42726
 21
84
  0
LINE
  8
0
 10
3.42726
 20
84
 11
3.8627
 21
84.1118
  0
LINE
  8
0
 10
3.8627
 20
84.1118
 11
5.32224
 21
84.6897
  0
LINE
  8
0
 10
5.32224
 20
84.6897
 11
6.69783
 21
85.4459
  0
LINE
  8
0
 10
6.69783
 20
85.4459
 11
7.96779
 21
86.3686
  0
LINE
  8
0
 10
7.96779
 20
86.3686
 11
9.11211
 21
87.4432
  0
LINE
  8
0
 10
9.11211
 20
87.4432
 11
10.1127
 21
88.6527
  0
LINE
  8
0
 10
10.1127
 20
88.6527
 11
10.9538
 21
89.9781
  0
LINE
  8
0
 10
10.9538
 20
89.9781
 11
11.6222
 21
91.3985
  0
LINE
  8
0
 10
11.6222
 20
91.3985
 11
12.1073
 21
92.8914
  0
LINE
  8
0
 10
12.1073
 20
92.8914
 11
12.4014
 21
94.4333
  0
LINE
  8
0
 10
12.4014
 20
94.4333
 11
12.5
 21
96
  0
LINE
  8
0
 10
12.5
 20
96
 11
12.4014
 21
97.5667
  0
LINE
  8
0
 10
12.4014
 20
97.5667
 11
12.1073
 21
99.1086
  0
LINE
  8
0
 10
12.1073
 20
99.1086
 11
11.6222
 21
100.602
  0
LINE
  8
0
 10
11.6222
 20
100.602
 11
10.9538
 21
102.022
  0
LINE
  8
0
 10
10.9538
 20
102.022
 11
10.1127
 21
103.347
  0
LINE
  8
0
 10
10.1127
 20
103.347
 11
9.11211
 21
104.557
  0
LINE
  8
0
 10
9.11211
 20
104.557
 11
7.96779
 21
105.631
  0
LINE
  8
0
 10
7.96779
 20
105.631
 11
6.69783
 21
106.554
  0
LINE
  8
0
 10
6.69783
 20
106.554
 11
5.32224
 21
107.31
  0
LINE
  8
0
 10
5.32224
 20
107.31
 11
3.8627
 21
107.888
  0
LINE
  8
0
 10
3.8627
 20
107.888
 11
3.42726
 21
108
  0
LINE
  8
0
 10
3.42726
 20
108
 11
3.8627
 21
108.112
  0
LINE
  8
0
 10
3.8627
 20
108.112
 11
5.32224
 21
108.69
  0
LINE
  8
0
 10
5.32224
 20
108.69
 11
6.69783
 21
109.446
  0
LINE
  8
0
 10
6.69783
 20
109.446
 11
7.96779
 21
110.369
  0
LINE
  8
0
 10
7.96779
 20
110.369
 11
9.11211
 21
111.443
  0
LINE
  8
0
 10
9.11211
 20
111.443
 11
10.1127
 21
112.653
  0
LINE
  8
0
 10
10.1127
 20
112.653
 11
10.9538
 21
113.978
  0
LINE
  8
0
 10
10.9538
 20
113.978
 11
11.6222
 21
115.398
  0
LINE
  8
0
 10
11.6222
 20
115.398
 11
12.1073
 21
116.891
  0
LINE
  8
0
 10
12.1073
 20
116.891
 11
12.4014
 21
118.433
  0
LINE
  8
0
 10
12.4014
 20
118.433
 11
12.5
 21
120
  0
LINE
  8
0
 10
12.5
 20
120
 11
12.4014
 21
121.567
  0
LINE
  8
0
 10
12.4014
 20
121.567
 11
12.1073
 21
123.109
  0
LINE
  8
0
 10
12.1073
 20
123.109
 11
11.6222
 21
124.602
  0
LINE
  8
0
 10
11.6222
 20
124.602
 11
10.9538
 21
126.022
  0
LINE
  8
0
 10
10.9538
 20
126.022
 11
10.1127
 21
127.347
  0
LINE
  8
0
 10
10.1127
 20
127.347
 11
9.11211
 21
128.557
  0
LINE
  8
0
 10
9.11211
 20
128.557
 11
7.96779
 21
129.631
  0
LINE
  8
0
 10
7.96779
 20
129.631
 11
6.69783
 21
130.554
  0
LINE
  8
0
 10
6.69783
 20
130.554
 11
5.32224
 21
131.31
  0
LINE
  8
0
 10
5.32224
 20
131.31
 11
3.8627
 21
131.888
  0
LINE
  8
0
 10
3.8627
 20
131.888
 11
3.42726
 21
132
  0
LINE
  8
0
 10
3.42726
 20
132
 11
3.8627
 21
132.112
  0
LINE
  8
0
 10
3.8627
 20
132.112
 11
5.32224
 21
132.69
  0
LINE
  8
0
 10
5.32224
 20
132.69
 11
6.69783
 21
133.446
  0
LINE
  8
0
 10
6.69783
 20
133.446
 11
7.96779
 21
134.369
  0
LINE
  8
0
 10
7.96779
 20
134.369
 11
9.11211
 21
135.443
  0
LINE
  8
0
 10
9.11211
 20
135.443
 11
10.1127
 21
136.653
  0
LINE
  8
0
 10
10.1127
 20
136.653
 11
10.9538
 21
137.978
  0
LINE
  8
0
 10
10.9538
 20
137.978
 11
11.6222
 21
139.398
  0
LINE
  8
0
 10
11.6222
 20
139.398
 11
12.1073
 21
140.891
  0
LINE
  8
0
 10
12.1073
 20
140.891
 11
12.4014
 21
142.433
  0
LINE
  8
0
 10
12.4014
 20
142.433
 11
12.5
 21
144
  0
LINE
  8
0
 10
12.5
 20
144
 11
12.4014
 21
145.567
  0
LINE
  8
0
 10
12.4014
 20
145.567
 11
12.1073
 21
147.109
  0
LINE
  8
0
 10
12.1073
 20
147.109
 11
11.6222
 21
148.602
  0
LINE
  8
0
 10
11.6222
 20
148.602
 11
10.9538
 21
150.022
  0
LINE
  8
0
 10
10.9538
 20
150.022
 11
10.1127
 21
151.347
  0
LINE
  8
0
 10
10.1127
 20
151.347
 11
9.11211
 21
152.557
  0
LINE
  8
0
 10
9.11211
 20
152.557
 11
7.96779
 21
153.631
  0
LINE
  8
0
 10
7.96779
 20
153.631
 11
6.69783
 21
154.554
  0
LINE
  8
0
 10
6.69783
 20
154.554
 11
5.32224
 21
155.31
  0
LINE
  8
0
 10
5.32224
 20
155.31
 11
3.8627
 21
155.888
  0
LINE
  8
0
 10
3.8627
 20
155.888
 11
3.42726
 21
156
  0
LINE
  8
0
 10
3.42726
 20
156
 11
3.8627
 21
156.112
  0
LINE
  8
0
 10
3.8627
 20
156.112
 11
5.32224
 21
156.69
  0
LINE
  8
0
 10
5.32224
 20
156.69
 11
6.69783
 21
157.446
  0
LINE
  8
0
 10
6.69783
 20
157.446
 11
7.96779
 21
158.369
  0
LINE
  8
0
 10
7.96779
 20
158.369
 11
9.11211
 21
159.443
  0
LINE
  8
0
 10
9.11211
 20
159.443
 11
10.1127
 21
160.653
  0
LINE
  8
0
 10
10.1127
 20
160.653
 11
10.9538
 21
161.978
  0
LINE
  8
0
 10
10.9538
 20
161.978
 11
11.6222
 21
163.398
  0
LINE
  8
0
 10
11.6222
 20
163.398
 11
12.1073
 21
164.891
  0
LINE
  8
0
 10
12.1073
 20
164.891
 11
12.4014
 21
166.433
  0
LINE
  8
0
 10
12.4014
 20
166.433
 11
12.5
 21
168
  0
LINE
  8
0
 10
12.5
 20
168
 11
12.4014
 21
169.567
  0
LINE
  8
0
 10
12.4014
 20
169.567
 11
12.1073
 21
171.109
  0
LINE
  8
0
 10
12.1073
 20
171.109
 11
11.6222
 21
172.602
  0
LINE
  8
0
 10
11.6222
 20
172.602
 11
10.9538
 21
174.022
  0
LINE
  8
0
 10
10.9538
 20
174.022
 11
10.1127
 21
175.347
  0
LINE
  8
0
 10
10.1127
 20
175.347
 11
9.11211
 21
176.557
  0
LINE
  8
0
 10
9.11211
 20
176.557
 11
7.96779
 21
177.631
  0
LINE
  8
0
 10
7.96779
 20
177.631
 11
6.69783
 21
178.554
  0
LINE
  8
0
 10
6.69783
 20
178.554
 11
5.32224
 21
179.31
  0
LINE
  8
0
 10
5.32224
 20
179.31
 11
3.8627
 21
179.888
  0
LINE
  8
0
 10
3.8627
 20
179.888
 11
3.42726
 21
180
  0
LINE
  8
0
 10
3.42726
 20
180
 11
3.8627
 21
180.112
  0
LINE
  8
0
 10
3.8627
 20
180.112
 11
5.32224
 21
180.69
  0
LINE
  8
0
 10
5.32224
 20
180.69
 11
6.69783
 21
181.446
  0
LINE
  8
0
 10
6.69783
 20
181.446
 11
7.96779
 21
182.369
  0
LINE
  8
0
 10
7.96779
 20
182.369
 11
9.11211
 21
183.443
  0
LINE
  8
0
 10
9.11211
 20
183.443
 11
10.1127
 21
184.653
  0
LINE
  8
0
 10
10.1127
 20
184.653
 11
10.9538
 21
185.978
  0
LINE
  8
0
 10
10.9538
 20
185.978
 11
11.6222
 21
187.398
  0
LINE
  8
0
 10
11.6222
 20
187.398
 11
12.1073
 21
188.891
  0
LINE
  8
0
 10
12.1073
 20
188.891
 11
12.4014
 21
190.433
  0
LINE
  8
0
 10
12.4014
 20
190.433
 11
12.5
 21
192
  0
LINE
  8
0
 10
12.5
 20
192
 11
12.4014
 21
193.567
  0
LINE
  8
0
 10
12.4014
 20
193.567
 11
12.1073
 21
195.109
  0
LINE
  8
0
 10
12.1073
 20
195.109
 11
11.6222
 21
196.602
  0
LINE
  8
0
 10
11.6222
 20
196.602
 11
10.9538
 21
198.022
  0
LINE
  8
0
 10
10.9538
 20
198.022
 11
10.1127
 21
199.347
  0
LINE
  8
0
 10
10.1127
 20
199.347
 11
9.11211
 21
200.557
  0
LINE
  8
0
 10
9.11211
 20
200.557
 11
7.96779
 21
201.631
  0
LINE
  8
0
 10
7.96779
 20
201.631
 11
6.69783
 21
202.554
  0
LINE
  8
0
 10
6.69783
 20
202.554
 11
5.32224
 21
203.31
  0
LINE
  8
0
 10
5.32224
 20
203.31
 11
3.8627
 21
203.888
  0
LINE
  8
0
 10
3.8627
 20
203.888
 11
3.42726
 21
204
  0
LINE
  8
0
 10
3.42726
 20
204
 11
3.8627
 21
204.112
  0
LINE
  8
0
 10
3.8627
 20
204.112
 11
5.32224
 21
204.69
  0
LINE
  8
0
 10
5.32224
 20
204.69
 11
6.69783
 21
205.446
  0
LINE
  8
0
 10
6.69783
 20
205.446
 11
7.96779
 21
206.369
  0
LINE
  8
0
 10
7.96779
 20
206.369
 11
9.11211
 21
207.443
  0
LINE
  8
0
 10
9.11211
 20
207.443
 11
10.1127
 21
208.653
  0
LINE
  8
0
 10
10.1127
 20
208.653
 11
10.9538
 21
209.978
  0
LINE
  8
0
 10
10.9538
 20
209.978
 11
11.6222
 21
211.398
  0
LINE
  8
0
 10
11.6222
 20
211.398
 11
12.1073
 21
212.891
  0
LINE
  8
0
 10
12.1073
 20
212.891
 11
12.4014
 21
214.433
  0
LINE
  8
0
 10
12.4014
 20
214.433
 11
12.5
 21
216
  0
LINE
  8
0
 10
12.5
 20
216
 11
12.4014
 21
217.567
  0
LINE
  8
0
 10
12.4014
 20
217.567
 11
12.1073
 21
219.109
  0
LINE
  8
0
 10
12.1073
 20
219.109
 11
11.6222
 21
220.602
  0
LINE
  8
0
 10
11.6222
 20
220.602
 11
10.9538
 21
222.022
  0
LINE
  8
0
 10
10.9538
 20
222.022
 11
10.1127
 21
223.347
  0
LINE
  8
0
 10
10.1127
 20
223.347
 11
9.11211
 21
224.557
  0
LINE
  8
0
 10
9.11211
 20
224.557
 11
7.96779
 21
225.631
  0
LINE
  8
0
 10
7.96779
 20
225.631
 11
6.69783
 21
226.554
  0
LINE
  8
0
 10
6.69783
 20
226.554
 11
5.32224
 21
227.31
  0
LINE
  8
0
 10
5.32224
 20
227.31
 11
3.8627
 21
227.888
  0
LINE
  8
0
 10
3.8627
 20
227.888
 11
3.42726
 21
228
  0
LINE
  8
0
 10
3.42726
 20
228
 11
3.8627
 21
228.112
  0
LINE
  8
0
 10
3.8627
 20
228.112
 11
5.32224
 21
228.69
  0
LINE
  8
0
 10
5.32224
 20
228.69
 11
6.69783
 21
229.446
  0
LINE
  8
0
 10
6.69783
 20
229.446
 11
7.96779
 21
230.369
  0
LINE
  8
0
 10
7.96779
 20
230.369
 11
9.11211
 21
231.443
  0
LINE
  8
0
 10
9.11211
 20
231.443
 11
10.1127
 21
232.653
  0
LINE
  8
0
 10
10.1127
 20
232.653
 11
10.9538
 21
233.978
  0
LINE
  8
0
 10
10.9538
 20
233.978
 11
11.6222
 21
235.398
  0
LINE
  8
0
 10
11.6222
 20
235.398
 11
12.1073
 21
236.891
  0
LINE
  8
0
 10
12.1073
 20
236.891
 11
12.4014
 21
238.433
  0
LINE
  8
0
 10
12.4014
 20
238.433
 11
12.5
 21
240
  0
LINE
  8
0
 10
12.5
 20
240
 11
12.4014
 21
241.567
  0
LINE
  8
0
 10
12.4014
 20
241.567
 11
12.1073
 21
243.109
  0
LINE
  8
0
 10
12.1073
 20
243.109
 11
11.6222
 21
244.602
  0
LINE
  8
0
 10
11.6222
 20
244.602
 11
10.9538
 21
246.022
  0
LINE
  8
0
 10
10.9538
 20
246.022
 11
10.1127
 21
247.347
  0
LINE
  8
0
 10
10.1127
 20
247.347
 11
9.11211
 21
248.557
  0
LINE
  8
0
 10
9.11211
 20
248.557
 11
7.96779
 21
249.631
  0
LINE
  8
0
 10
7.96779
 20
249.631
 11
6.69783
 21
250.554
  0
LINE
  8
0
 10
6.69783
 20
250.554
 11
5.32224
 21
251.31
  0
LINE
  8
0
 10
5.32224
 20
251.31
 11
3.8627
 21
251.888
  0
LINE
  8
0
 10
3.8627
 20
251.888
 11
3.42726
 21
252
  0
LINE
  8
0
 10
3.42726
 20
252
 11
3.8627
 21
252.112
  0
LINE
  8
0
 10
3.8627
 20
252.112
 11
5.32224
 21
252.69
  0
LINE
  8
0
 10
5.32224
 20
252.69
 11
6.69783
 21
253.446
  0
LINE
  8
0
 10
6.69783
 20
253.446
 11
7.96779
 21
254.369
  0
LINE
  8
0
 10
7.96779
 20
254.369
 11
9.11211
 21
255.443
  0
LINE
  8
0
 10
9.11211
 20
255.443
 11
10.1127
 21
256.653
  0
LINE
  8
0
 10
10.1127
 20
256.653
 11
10.9538
 21
257.978
  0
LINE
  8
0
 10
10.9538
 20
257.978
 11
11.6222
 21
259.398
  0
LINE
  8
0
 10
11.6222
 20
259.398
 11
12.1073
 21
260.891
  0
LINE
  8
0
 10
12.1073
 20
260.891
 11
12.4014
 21
262.433
  0
LINE
  8
0
 10
12.4014
 20
262.433
 11
12.5
 21
264
  0
LINE
  8
0
 10
12.5
 20
264
 11
12.4014
 21
265.567
  0
LINE
  8
0
 10
12.4014
 20
265.567
 11
12.1073
 21
267.109
  0
LINE
  8
0
 10
12.1073
 20
267.109
 11
11.6222
 21
268.602
  0
LINE
  8
0
 10
11.6222
 20
268.602
 11
10.9538
 21
270.022
  0
LINE
  8
0
 10
10.9538
 20
270.022
 11
10.1127
 21
271.347
  0
LINE
  8
0
 10
10.1127
 20
271.347
 11
9.11211
 21
272.557
  0
LINE
  8
0
 10
9.11211
 20
272.557
 11
7.96779
 21
273.631
  0
LINE
  8
0
 10
7.96779
 20
273.631
 11
6.69783
 21
274.554
  0
LINE
  8
0
 10
6.69783
 20
274.554
 11
5.32224
 21
275.31
  0
LINE
  8
0
 10
5.32224
 20
275.31
 11
3.8627
 21
275.888
  0
LINE
  8
0
 10
3.8627
 20
275.888
 11
3.42726
 21
276
  0
LINE
  8
0
 10
3.42726
 20
276
 11
3.8627
 21
276.112
  0
LINE
  8
0
 10
3.8627
 20
276.112
 11
5.32224
 21
276.69
  0
LINE
  8
0
 10
5.32224
 20
276.69
 11
6.69783
 21
277.446
  0
LINE
  8
0
 10
6.69783
 20
277.446
 11
7.96779
 21
278.369
  0
LINE
  8
0
 10
7.96779
 20
278.369
 11
9.11211
 21
279.443
  0
LINE
  8
0
 10
9.11211
 20
279.443
 11
10.1127
 21
280.653
  0
LINE
  8
0
 10
10.1127
 20
280.653
 11
10.9538
 21
281.978
  0
LINE
  8
0
 10
10.9538
 20
281.978
 11
11.6222
 21
283.398
  0
LINE
  8
0
 10
11.6222
 20
283.398
 11
12.1073
 21
284.891
  0
LINE
  8
0
 10
12.1073
 20
284.891
 11
12.4014
 21
286.433
  0
LINE
  8
0
 10
12.4014
 20
286.433
 11
12.5
 21
288
  0
LINE
  8
0
 10
12.5
 20
288
 11
12.4014
 21
289.567
  0
LINE
  8
0
 10
12.4014
 20
289.567
 11
12.1073
 21
291.109
  0
LINE
  8
0
 10
12.1073
 20
291.109
 11
11.6222
 21
292.602
  0
LINE
  8
0
 10
11.6222
 20
292.602
 11
10.9538
 21
294.022
  0
LINE
  8
0
 10
10.9538
 20
294.022
 11
10.1127
 21
295.347
  0
LINE
  8
0
 10
10.1127
 20
295.347
 11
9.11211
 21
296.557
  0
LINE
  8
0
 10
9.11211
 20
296.557
 11
7.96779
 21
297.631
  0
LINE
  8
0
 10
7.96779
 20
297.631
 11
6.69783
 21
298.554
  0
LINE
  8
0
 10
6.69783
 20
298.554
 11
5.32224
 21
299.31
  0
LINE
  8
0
 10
5.32224
 20
299.31
 11
3.8627
 21
299.888
  0
LINE
  8
0
 10
3.8627
 20
299.888
 11
3.42726
 21
300
  0
LINE
  8
0
 10
3.42726
 20
300
 11
3.8627
 21
300.112
  0
LINE
  8
0
 10
3.8627
 20
300.112
 11
5.32224
 21
300.69
  0
LINE
  8
0
 10
5.32224
 20
300.69
 11
6.69783
 21
301.446
  0
LINE
  8
0
 10
6.69783
 20
301.446
 11
7.96779
 21
302.369
  0
LINE
  8
0
 10
7.96779
 20
302.369
 11
9.11211
 21
303.443
  0
LINE
  8
0
 10
9.11211
 20
303.443
 11
10.1127
 21
304.653
  0
LINE
  8
0
 10
10.1127
 20
304.653
 11
10.9538
 21
305.978
  0
LINE
  8
0
 10
10.9538
 20
305.978
 11
11.6222
 21
307.398
  0
LINE
  8
0
 10
11.6222
 20
307.398
 11
12.1073
 21
308.891
  0
LINE
  8
0
 10
12.1073
 20
308.891
 11
12.4014
 21
310.433
  0
LINE
  8
0
 10
12.4014
 20
310.433
 11
12.5
 21
312
  0
LINE
  8
0
 10
12.5
 20
312
 11
12.4014
 21
313.567
  0
LINE
  8
0
 10
12.4014
 20
313.567
 11
12.1073
 21
315.109
  0
LINE
  8
0
 10
12.1073
 20
315.109
 11
11.6222
 21
316.602
  0
LINE
  8
0
 10
11.6222
 20
316.602
 11
10.9538
 21
318.022
  0
LINE
  8
0
 10
10.9538
 20
318.022
 11
10.1127
 21
319.347
  0
LINE
  8
0
 10
10.1127
 20
319.347
 11
9.11211
 21
320.557
  0
LINE
  8
0
 10
9.11211
 20
320.557
 11
7.96779
 21
321.631
  0
LINE
  8
0
 10
7.96779
 20
321.631
 11
6.69783
 21
322.554
  0
LINE
  8
0
 10
6.69783
 20
322.554
 11
5.32224
 21
323.31
  0
LINE
  8
0
 10
5.32224
 20
323.31
 11
3.8627
 21
323.888
  0
LINE
  8
0
 10
3.8627
 20
323.888
 11
2.34225
 21
324.279
  0
LINE
  8
0
 10
2.34225
 20
324.279
 11
0.784866
 21
324.475
  0
LINE
  8
0
 10
0.784866
 20
324.475
 11
-0.784866
 21
324.475
  0
LINE
  8
0
 10
-0.784866
 20
324.475
 11
-2.34225
 21
324.279
  0
LINE
  8
0
 10
-2.34225
 20
324.279
 11
-3.8627
 21
323.888
  0
LINE
  8
0
 10
-3.8627
 20
323.888
 11
-5.32224
 21
323.31
  0
LINE
  8
0
 10
-5.32224
 20
323.31
 11
-6.69783
 21
322.554
  0
LINE
  8
0
 10
-6.69783
 20
322.554
 11
-7.96779
 21
321.631
  0
LINE
  8
0
 10
-7.96779
 20
321.631
 11
-9.11211
 21
320.557
  0
LINE
  8
0
 10
-9.11211
 20
320.557
 11
-10.1127
 21
319.347
  0
LINE
  8
0
 10
-10.1127
 20
319.347
 11
-10.9538
 21
318.022
  0
LINE
  8
0
 10
-10.9538
 20
318.022
 11
-11.6222
 21
316.602
  0
LINE
  8
0
 10
-11.6222
 20
316.602
 11
-12.1073
 21
315.109
  0
LINE
  8
0
 10
-12.1073
 20
315.109
 11
-12.4014
 21
313.567
  0
LINE
  8
0
 10
-12.4014
 20
313.567
 11
-12.5
 21
312
  0
LINE
  8
0
 10
-12.5
 20
312
 11
-12.4014
 21
310.433
  0
LINE
  8
0
 10
-12.4014
 20
310.433
 11
-12.1073
 21
308.891
  0
LINE
  8
0
 10
-12.1073
 20
308.891
 11
-11.6222
 21
307.398
  0
LINE
  8
0
 10
-11.6222
 20
307.398
 11
-10.9538
 21
305.978
  0
LINE
  8
0
 10
-10.9538
 20
305.978
 11
-10.1127
 21
304.653
  0
LINE
  8
0
 10
-10.1127
 20
304.653
 11
-9.11211
 21
303.443
  0
LINE
  8
0
 10
-9.11211
 20
303.443
 11
-7.96779
 21
302.369
  0
LINE
  8
0
 10
-7.96779
 20
302.369
 11
-6.69783
 21
301.446
  0
LINE
  8
0
 10
-6.69783
 20
301.446
 11
-5.32224
 21
300.69
  0
LINE
  8
0
 10
-5.32224
 20
300.69
 11
-3.8627
 21
300.112
  0
LINE
  8
0
 10
-3.8627
 20
300.112
 11
-3.42726
 21
300
  0
LINE
  8
0
 10
-3.42726
 20
300
 11
-3.8627
 21
299.888
  0
LINE
  8
0
 10
-3.8627
 20
299.888
 11
-5.32224
 21
299.31
  0
LINE
  8
0
 10
-5.32224
 20
299.31
 11
-6.69783
 21
298.554
  0
LINE
  8
0
 10
-6.69783
 20
298.554
 11
-7.96779
 21
297.631
  0
LINE
  8
0
 10
-7.96779
 20
297.631
 11
-9.11211
 21
296.557
  0
LINE
  8
0
 10
-9.11211
 20
296.557
 11
-10.1127
 21
295.347
  0
LINE
  8
0
 10
-10.1127
 20
295.347
 11
-10.9538
 21
294.022
  0
LINE
  8
0
 10
-10.9538
 20
294.022
 11
-11.6222
 21
292.602
  0
LINE
  8
0
 10
-11.6222
 20
292.602
 11
-12.1073
 21
291.109
  0
LINE
  8
0
 10
-12.1073
 20
291.109
 11
-12.4014
 21
289.567
  0
LINE
  8
0
 10
-12.4014
 20
289.567
 11
-12.5
 21
288
  0
LINE
  8
0
 10
-12.5
 20
288
 11
-12.4014
 21
286.433
  0
LINE
  8
0
 10
-12.4014
 20
286.433
 11
-12.1073
 21
284.891
  0
LINE
  8
0
 10
-12.1073
 20
284.891
 11
-11.6222
 21
283.398
  0
LINE
  8
0
 10
-11.6222
 20
283.398
 11
-10.9538
 21
281.978
  0
LINE
  8
0
 10
-10.9538
 20
281.978
 11
-10.1127
 21
280.653
  0
LINE
  8
0
 10
-10.1127
 20
280.653
 11
-9.11211
 21
279.443
  0
LINE
  8
0
 10
-9.11211
 20
279.443
 11
-7.96779
 21
278.369
  0
LINE
  8
0
 10
-7.96779
 20
278.369
 11
-6.69783
 21
277.446
  0
LINE
  8
0
 10
-6.69783
 20
277.446
 11
-5.32224
 21
276.69
  0
LINE
  8
0
 10
-5.32224
 20
276.69
 11
-3.8627
 21
276.112
  0
LINE
  8
0
 10
-3.8627
 20
276.112
 11
-3.42726
 21
276
  0
LINE
  8
0
 10
-3.42726
 20
276
 11
-3.8627
 21
275.888
  0
LINE
  8
0
 10
-3.8627
 20
275.888
 11
-5.32224
 21
275.31
  0
LINE
  8
0
 10
-5.32224
 20
275.31
 11
-6.69783
 21
274.554
  0
LINE
  8
0
 10
-6.69783
 20
274.554
 11
-7.96779
 21
273.631
  0
LINE
  8
0
 10
-7.96779
 20
273.631
 11
-9.11211
 21
272.557
  0
LINE
  8
0
 10
-9.11211
 20
272.557
 11
-10.1127
 21
271.347
  0
LINE
  8
0
 10
-10.1127
 20
271.347
 11
-10.9538
 21
270.022
  0
LINE
  8
0
 10
-10.9538
 20
270.022
 11
-11.6222
 21
268.602
  0
LINE
  8
0
 10
-11.6222
 20
268.602
 11
-12.1073
 21
267.109
  0
LINE
  8
0
 10
-12.1073
 20
267.109
 11
-12.4014
 21
265.567
  0
LINE
  8
0
 10
-12.4014
 20
265.567
 11
-12.5
 21
264
  0
LINE
  8
0
 10
-12.5
 20
264
 11
-12.4014
 21
262.433
  0
LINE
  8
0
 10
-12.4014
 20
262.433
 11
-12.1073
 21
260.891
  0
LINE
  8
0
 10
-12.1073
 20
260.891
 11
-11.6222
 21
259.398
  0
LINE
  8
0
 10
-11.6222
 20
259.398
 11
-10.9538
 21
257.978
  0
LINE
  8
0
 10
-10.9538
 20
257.978
 11
-10.1127
 21
256.653
  0
LINE
  8
0
 10
-10.1127
 20
256.653
 11
-9.11211
 21
255.443
  0
LINE
  8
0
 10
-9.11211
 20
255.443
 11
-7.96779
 21
254.369
  0
LINE
  8
0
 10
-7.96779
 20
254.369
 11
-6.69783
 21
253.446
  0
LINE
  8
0
 10
-6.69783
 20
253.446
 11
-5.32224
 21
252.69
  0
LINE
  8
0
 10
-5.32224
 20
252.69
 11
-3.8627
 21
252.112
  0
LINE
  8
0
 10
-3.8627
 20
252.112
 11
-3.42726
 21
252
  0
LINE
  8
0
 10
-3.42726
 20
252
 11
-3.8627
 21
251.888
  0
LINE
  8
0
 10
-3.8627
 20
251.888
 11
-5.32224
 21
251.31
  0
LINE
  8
0
 10
-5.32224
 20
251.31
 11
-6.69783
 21
250.554
  0
LINE
  8
0
 10
-6.69783
 20
250.554
 11
-7.96779
 21
249.631
  0
LINE
  8
0
 10
-7.96779
 20
249.631
 11
-9.11211
 21
248.557
  0
LINE
  8
0
 10
-9.11211
 20
248.557
 11
-10.1127
 21
247.347
  0
LINE
  8
0
 10
-10.1127
 20
247.347
 11
-10.9538
 21
246.022
  0
LINE
  8
0
 10
-10.9538
 20
246.022
 11
-11.6222
 21
244.602
  0
LINE
  8
0
 10
-11.6222
 20
244.602
 11
-12.1073
 21
243.109
  0
LINE
  8
0
 10
-12.1073
 20
243.109
 11
-12.4014
 21
241.567
  0
LINE
  8
0
 10
-12.4014
 20
241.567
 11
-12.5
 21
240
  0
LINE
  8
0
 10
-12.5
 20
240
 11
-12.4014
 21
238.433
  0
LINE
  8
0
 10
-12.4014
 20
238.433
 11
-12.1073
 21
236.891
  0
LINE
  8
0
 10
-12.1073
 20
236.891
 11
-11.6222
 21
235.398
  0
LINE
  8
0
 10
-11.6222
 20
235.398
 11
-10.9538
 21
233.978
  0
LINE
  8
0
 10
-10.9538
 20
233.978
 11
-10.1127
 21
232.653
  0
LINE
  8
0
 10
-10.1127
 20
232.653
 11
-9.11211
 21
231.443
  0
LINE
  8
0
 10
-9.11211
 20
231.443
 11
-7.96779
 21
230.369
  0
LINE
  8
0
 10
-7.96779
 20
230.369
 11
-6.69783
 21
229.446
  0
LINE
  8
0
 10
-6.69783
 20
229.446
 11
-5.32224
 21
228.69
  0
LINE
  8
0
 10
-5.32224
 20
228.69
 11
-3.8627
 21
228.112
  0
LINE
  8
0
 10
-3.8627
 20
228.112
 11
-3.42726
 21
228
  0
LINE
  8
0
 10
-3.42726
 20
228
 11
-3.8627
 21
227.888
  0
LINE
  8
0
 10
-3.8627
 20
227.888
 11
-5.32224
 21
227.31
  0
LINE
  8
0
 10
-5.32224
 20
227.31
 11
-6.69783
 21
226.554
  0
LINE
  8
0
 10
-6.69783
 20
226.554
 11
-7.96779
 21
225.631
  0
LINE
  8
0
 10
-7.96779
 20
225.631
 11
-9.11211
 21
224.557
  0
LINE
  8
0
 10
-9.11211
 20
224.557
 11
-10.1127
 21
223.347
  0
LINE
  8
0
 10
-10.1127
 20
223.347
 11
-10.9538
 21
222.022
  0
LINE
  8
0
 10
-10.9538
 20
222.022
 11
-11.6222
 21
220.602
  0
LINE
  8
0
 10
-11.6222
 20
220.602
 11
-12.1073
 21
219.109
  0
LINE
  8
0
 10
-12.1073
 20
219.109
 11
-12.4014
 21
217.567
  0
LINE
  8
0
 10
-12.4014
 20
217.567
 11
-12.5
 21
216
  0
LINE
  8
0
 10
-12.5
 20
216
 11
-12.4014
 21
214.433
  0
LINE
  8
0
 10
-12.4014
 20
214.433
 11
-12.1073
 21
212.891
  0
LINE
  8
0
 10
-12.1073
 20
212.891
 11
-11.6222
 21
211.398
  0
LINE
  8
0
 10
-11.6222
 20
211.398
 11
-10.9538
 21
209.978
  0
LINE
  8
0
 10
-10.9538
 20
209.978
 11
-10.1127
 21
208.653
  0
LINE
  8
0
 10
-10.1127
 20
208.653
 11
-9.11211
 21
207.443
  0
LINE
  8
0
 10
-9.11211
 20
207.443
 11
-7.96779
 21
206.369
  0
LINE
  8
0
 10
-7.96779
 20
206.369
 11
-6.69783
 21
205.446
  0
LINE
  8
0
 10
-6.69783
 20
205.446
 11
-5.32224
 21
204.69
  0
LINE
  8
0
 10
-5.32224
 20
204.69
 11
-3.8627
 21
204.112
  0
LINE
  8
0
 10
-3.8627
 20
204.112
 11
-3.42726
 21
204
  0
LINE
  8
0
 10
-3.42726
 20
204
 11
-3.8627
 21
203.888
  0
LINE
  8
0
 10
-3.8627
 20
203.888
 11
-5.32224
 21
203.31
  0
LINE
  8
0
 10
-5.32224
 20
203.31
 11
-6.69783
 21
202.554
  0
LINE
  8
0
 10
-6.69783
 20
202.554
 11
-7.96779
 21
201.631
  0
LINE
  8
0
 10
-7.96779
 20
201.631
 11
-9.11211
 21
200.557
  0
LINE
  8
0
 10
-9.11211
 20
200.557
 11
-10.1127
 21
199.347
  0
LINE
  8
0
 10
-10.1127
 20
199.347
 11
-10.9538
 21
198.022
  0
LINE
  8
0
 10
-10.9538
 20
198.022
 11
-11.6222
 21
196.602
  0
LINE
  8
0
 10
-11.6222
 20
196.602
 11
-12.1073
 21
195.109
  0
LINE
  8
0
 10
-12.1073
 20
195.109
 11
-12.4014
 21
193.567
  0
LINE
  8
0
 10
-12.4014
 20
193.567
 11
-12.5
 21
192
  0
LINE
  8
0
 10
-12.5
 20
192
 11
-12.4014
 21
190.433
  0
LINE
  8
0
 10
-12.4014
 20
190.433
 11
-12.1073
 21
188.891
  0
LINE
  8
0
 10
-12.1073
 20
188.891
 11
-11.6222
 21
187.398
  0
LINE
  8
0
 10
-11.6222
 20
187.398
 11
-10.9538
 21
185.978
  0
LINE
  8
0
 10
-10.9538
 20
185.978
 11
-10.1127
 21
184.653
  0
LINE
  8
0
 10
-10.1127
 20
184.653
 11
-9.11211
 21
183.443
  0
LINE
  8
0
 10
-9.11211
 20
183.443
 11
-7.96779
 21
182.369
  0
LINE
  8
0
 10
-7.96779
 20
182.369
 11
-6.69783
 21
181.446
  0
LINE
  8
0
 10
-6.69783
 20
181.446
 11
-5.32224
 21
180.69
  0
LINE
  8
0
 10
-5.32224
 20
180.69
 11
-3.8627
 21
180.112
  0
LINE
  8
0
 10
-3.8627
 20
180.112
 11
-3.42726
 21
180
  0
LINE
  8
0
 10
-3.42726
 20
180
 11
-3.8627
 21
179.888
  0
LINE
  8
0
 10
-3.8627
 20
179.888
 11
-5.32224
 21
179.31
  0
LINE
  8
0
 10
-5.32224
 20
179.31
 11
-6.69783
 21
178.554
  0
LINE
  8
0
 10
-6.69783
 20
178.554
 11
-7.96779
 21
177.631
  0
LINE
  8
0
 10
-7.96779
 20
177.631
 11
-9.11211
 21
176.557
  0
LINE
  8
0
 10
-9.11211
 20
176.557
 11
-10.1127
 21
175.347
  0
LINE
  8
0
 10
-10.1127
 20
175.347
 11
-10.9538
 21
174.022
  0
LINE
  8
0
 10
-10.9538
 20
174.022
 11
-11.6222
 21
172.602
  0
LINE
  8
0
 10
-11.6222
 20
172.602
 11
-12.1073
 21
171.109
  0
LINE
  8
0
 10
-12.1073
 20
171.109
 11
-12.4014
 21
169.567
  0
LINE
  8
0
 10
-12.4014
 20
169.567
 11
-12.5
 21
168
  0
LINE
  8
0
 10
-12.5
 20
168
 11
-12.4014
 21
166.433
  0
LINE
  8
0
 10
-12.4014
 20
166.433
 11
-12.1073
 21
164.891
  0
LINE
  8
0
 10
-12.1073
 20
164.891
 11
-11.6222
 21
163.398
  0
LINE
  8
0
 10
-11.6222
 20
163.398
 11
-10.9538
 21
161.978
  0
LINE
  8
0
 10
-10.9538
 20
161.978
 11
-10.1127
 21
160.653
  0
LINE
  8
0
 10
-10.1127
 20
160.653
 11
-9.11211
 21
159.443
  0
LINE
  8
0
 10
-9.11211
 20
159.443
 11
-7.96779
 21
158.369
  0
LINE
  8
0
 10
-7.96779
 20
158.369
 11
-6.69783
 21
157.446
  0
LINE
  8
0
 10
-6.69783
 20
157.446
 11
-5.32224
 21
156.69
  0
LINE
  8
0
 10
-5.32224
 20
156.69
 11
-3.8627
 21
156.112
  0
LINE
  8
0
 10
-3.8627
 20
156.112
 11
-3.42726
 21
156
  0
LINE
  8
0
 10
-3.42726
 20
156
 11
-3.8627
 21
155.888
  0
LINE
  8
0
 10
-3.8627
 20
155.888
 11
-5.32224
 21
155.31
  0
LINE
  8
0
 10
-5.32224
 20
155.31
 11
-6.69783
 21
154.554
  0
LINE
  8
0
 10
-6.69783
 20
154.554
 11
-7.96779
 21
153.631
  0
LINE
  8
0
 10
-7.96779
 20
153.631
 11
-9.11211
 21
152.557
  0
LINE
  8
0
 10
-9.11211
 20
152.557
 11
-10.1127
 21
151.347
  0
LINE
  8
0
 10
-10.1127
 20
151.347
 11
-10.9538
 21
150.022
  0
LINE
  8
0
 10
-10.9538
 20
150.022
 11
-11.6222
 21
148.602
  0
LINE
  8
0
 10
-11.6222
 20
148.602
 11
-12.1073
 21
147.109
  0
LINE
  8
0
 10
-12.1073
 20
147.109
 11
-12.4014
 21
145.567
  0
LINE
  8
0
 10
-12.4014
 20
145.567
 11
-12.5
 21
144
  0
LINE
  8
0
 10
-12.5
 20
144
 11
-12.4014
 21
142.433
  0
LINE
  8
0
 10
-12.4014
 20
142.433
 11
-12.1073
 21
140.891
  0
LINE
  8
0
 10
-12.1073
 20
140.891
 11
-11.6222
 21
139.398
  0
LINE
  8
0
 10
-11.6222
 20
139.398
 11
-10.9538
 21
137.978
  0
LINE
  8
0
 10
-10.9538
 20
137.978
 11
-10.1127
 21
136.653
  0
LINE
  8
0
 10
-10.1127
 20
136.653
 11
-9.11211
 21
135.443
  0
LINE
  8
0
 10
-9.11211
 20
135.443
 11
-7.96779
 21
134.369
  0
LINE
  8
0
 10
-7.96779
 20
134.369
 11
-6.69783
 21
133.446
  0
LINE
  8
0
 10
-6.69783
 20
133.446
 11
-5.32224
 21
132.69
  0
LINE
  8
0
 10
-5.32224
 20
132.69
 11
-3.8627
 21
132.112
  0
LINE
  8
0
 10
-3.8627
 20
132.112
 11
-3.42726
 21
132
  0
LINE
  8
0
 10
-3.42726
 20
132
 11
-3.8627
 21
131.888
  0
LINE
  8
0
 10
-3.8627
 20
131.888
 11
-5.32224
 21
131.31
  0
LINE
  8
0
 10
-5.32224
 20
131.31
 11
-6.69783
 21
130.554
  0
LINE
  8
0
 10
-6.69783
 20
130.554
 11
-7.96779
 21
129.631
  0
LINE
  8
0
 10
-7.96779
 20
129.631
 11
-9.11211
 21
128.557
  0
LINE
  8
0
 10
-9.11211
 20
128.557
 11
-10.1127
 21
127.347
  0
LINE
  8
0
 10
-10.1127
 20
127.347
 11
-10.9538
 21
126.022
  0
LINE
  8
0
 10
-10.9538
 20
126.022
 11
-11.6222
 21
124.602
  0
LINE
  8
0
 10
-11.6222
 20
124.602
 11
-12.1073
 21
123.109
  0
LINE
  8
0
 10
-12.1073
 20
123.109
 11
-12.4014
 21
121.567
  0
LINE
  8
0
 10
-12.4014
 20
121.567
 11
-12.5
 21
120
  0
LINE
  8
0
 10
-12.5
 20
120
 11
-12.4014
 21
118.433
  0
LINE
  8
0
 10
-12.4014
 20
118.433
 11
-12.1073
 21
116.891
  0
LINE
  8
0
 10
-12.1073
 20
116.891
 11
-11.6222
 21
115.398
  0
LINE
  8
0
 10
-11.6222
 20
115.398
 11
-10.9538
 21
113.978
  0
LINE
  8
0
 10
-10.9538
 20
113.978
 11
-10.1127
 21
112.653
  0
LINE
  8
0
 10
-10.1127
 20
112.653
 11
-9.11211
 21
111.443
  0
LINE
  8
0
 10
-9.11211
 20
111.443
 11
-7.96779
 21
110.369
  0
LINE
  8
0
 10
-7.96779
 20
110.369
 11
-6.69783
 21
109.446
  0
LINE
  8
0
 10
-6.69783
 20
109.446
 11
-5.32224
 21
108.69
  0
LINE
  8
0
 10
-5.32224
 20
108.69
 11
-3.8627
 21
108.112
  0
LINE
  8
0
 10
-3.8627
 20
108.112
 11
-3.42726
 21
108
  0
LINE
  8
0
 10
-3.42726
 20
108
 11
-3.8627
 21
107.888
  0
LINE
  8
0
 10
-3.8627
 20
107.888
 11
-5.32224
 21
107.31
  0
LINE
  8
0
 10
-5.32224
 20
107.31
 11
-6.69783
 21
106.554
  0
LINE
  8
0
 10
-6.69783
 20
106.554
 11
-7.96779
 21
105.631
  0
LINE
  8
0
 10
-7.96779
 20
105.631
 11
-9.11211
 21
104.557
  0
LINE
  8
0
 10
-9.11211
 20
104.557
 11
-10.1127
 21
103.347
  0
LINE
  8
0
 10
-10.1127
 20
103.347
 11
-10.9538
 21
102.022
  0
LINE
  8
0
 10
-10.9538
 20
102.022
 11
-11.6222
 21
100.602
  0
LINE
  8
0
 10
-11.6222
 20
100.602
 11
-12.1073
 21
99.1086
  0
LINE
  8
0
 10
-12.1073
 20
99.1086
 11
-12.4014
 21
97.5667
  0
LINE
  8
0
 10
-12.4014
 20
97.5667
 11
-12.5
 21
96
  0
LINE
  8
0
 10
-12.5
 20
96
 11
-12.4014
 21
94.4333
  0
LINE
  8
0
 10
-12.4014
 20
94.4333
 11
-12.1073
 21
92.8914
  0
LINE
  8
0
 10
-12.1073
 20
92.8914
 11
-11.6222
 21
91.3985
  0
LINE
  8
0
 10
-11.6222
 20
91.3985
 11
-10.9538
 21
89.9781
  0
LINE
  8
0
 10
-10.9538
 20
89.9781
 11
-10.1127
 21
88.6527
  0
LINE
  8
0
 10
-10.1127
 20
88.6527
 11
-9.11211
 21
87.4432
  0
LINE
  8
0
 10
-9.11211
 20
87.4432
 11
-7.96779
 21
86.3686
  0
LINE
  8
0
 10
-7.96779
 20
86.3686
 11
-6.69783
 21
85.4459
  0
LINE
  8
0
 10
-6.69783
 20
85.4459
 11
-5.32224
 21
84.6897
  0
LINE
  8
0
 10
-5.32224
 20
84.6897
 11
-3.8627
 21
84.1118
  0
LINE
  8
0
 10
-3.8627
 20
84.1118
 11
-3.42726
 21
84
  0
LINE
  8
0
 10
-3.42726
 20
84
 11
-3.8627
 21
83.8882
  0
LINE
  8
0
 10
-3.8627
 20
83.8882
 11
-5.32224
 21
83.3103
  0
LINE
  8
0
 10
-5.32224
 20
83.3103
 11
-6.69783
 21
82.5541
  0
LINE
  8
0
 10
-6.69783
 20
82.5541
 11
-7.96779
 21
81.6314
  0
LINE
  8
0
 10
-7.96779
 20
81.6314
 11
-9.11211
 21
80.5568
  0
LINE
  8
0
 10
-9.11211
 20
80.5568
 11
-10.1127
 21
79.3473
  0
LINE
  8
0
 10
-10.1127
 20
79.3473
 11
-10.9538
 21
78.0219
  0
LINE
  8
0
 10
-10.9538
 20
78.0219
 11
-11.6222
 21
76.6015
  0
LINE
  8
0
 10
-11.6222
 20
76.6015
 11
-12.1073
 21
75.1086
  0
LINE
  8
0
 10
-12.1073
 20
75.1086
 11
-12.4014
 21
73.5667
  0
LINE
  8
0
 10
-12.4014
 20
73.5667
 11
-12.5
 21
72
  0
LINE
  8
0
 10
-12.5
 20
72
 11
-12.4014
 21
70.4333
  0
LINE
  8
0
 10
-12.4014
 20
70.4333
 11
-12.1073
 21
68.8914
  0
LINE
  8
0
 10
-12.1073
 20
68.8914
 11
-11.6222
 21
67.3985
  0
LINE
  8
0
 10
-11.6222
 20
67.3985
 11
-10.9538
 21
65.9781
  0
LINE
  8
0
 10
-10.9538
 20
65.9781
 11
-10.1127
 21
64.6527
  0
LINE
  8
0
 10
-10.1127
 20
64.6527
 11
-9.11211
 21
63.4432
  0
LINE
  8
0
 10
-9.11211
 20
63.4432
 11
-7.96779
 21
62.3686
  0
LINE
  8
0
 10
-7.96779
 20
62.3686
 11
-6.69783
 21
61.4459
  0
LINE
  8
0
 10
-6.69783
 20
61.4459
 11
-5.32224
 21
60.6897
  0
LINE
  8
0
 10
-5.32224
 20
60.6897
 11
-3.8627
 21
60.1118
  0
LINE
  8
0
 10
-3.8627
 20
60.1118
 11
-3.42726
 21
60
  0
LINE
  8
0
 10
-3.42726
 20
60
 11
-3.8627
 21
59.8882
  0
LINE
  8
0
 10
-3.8627
 20
59.8882
 11
-5.32224
 21
59.3103
  0
LINE
  8
0
 10
-5.32224
 20
59.3103
 11
-6.69783
 21
58.5541
  0
LINE
  8
0
 10
-6.69783
 20
58.5541
 11
-7.96779
 21
57.6314
  0
LINE
  8
0
 10
-7.96779
 20
57.6314
 11
-9.11211
 21
56.5568
  0
LINE
  8
0
 10
-9.11211
 20
56.5568
 11
-10.1127
 21
55.3473
  0
LINE
  8
0
 10
-10.1127
 20
55.3473
 11
-10.9538
 21
54.0219
  0
LINE
  8
0
 10
-10.9538
 20
54.0219
 11
-11.6222
 21
52.6015
  0
LINE
  8
0
 10
-11.6222
 20
52.6015
 11
-12.1073
 21
51.1086
  0
LINE
  8
0
 10
-12.1073
 20
51.1086
 11
-12.4014
 21
49.5667
  0
LINE
  8
0
 10
-12.4014
 20
49.5667
 11
-12.5
 21
48
  0
LINE
  8
0
 10
-12.5
 20
48
 11
-12.4014
 21
46.4333
  0
LINE
  8
0
 10
-12.4014
 20
46.4333
 11
-12.1073
 21
44.8914
  0
LINE
  8
0
 10
-12.1073
 20
44.8914
 11
-11.6222
 21
43.3985
  0
LINE
  8
0
 10
-11.6222
 20
43.3985
 11
-10.9538
 21
41.9781
  0
LINE
  8
0
 10
-10.9538
 20
41.9781
 11
-10.1127
 21
40.6527
  0
LINE
  8
0
 10
-10.1127
 20
40.6527
 11
-9.11211
 21
39.4432
  0
LINE
  8
0
 10
-9.11211
 20
39.4432
 11
-7.96779
 21
38.3686
  0
LINE
  8
0
 10
-7.96779
 20
38.3686
 11
-6.69783
 21
37.4459
  0
LINE
  8
0
 10
-6.69783
 20
37.4459
 11
-5.32224
 21
36.6897
  0
LINE
  8
0
 10
-5.32224
 20
36.6897
 11
-3.8627
 21
36.1118
  0
LINE
  8
0
 10
-3.8627
 20
36.1118
 11
-3.42726
 21
36
  0
LINE
  8
0
 10
-3.42726
 20
36
 11
-3.8627
 21
35.8882
  0
LINE
  8
0
 10
-3.8627
 20
35.8882
 11
-5.32224
 21
35.3103
  0
LINE
  8
0
 10
-5.32224
 20
35.3103
 11
-6.69783
 21
34.5541
  0
LINE
  8
0
 10
-6.69783
 20
34.5541
 11
-7.96779
 21
33.6314
  0
LINE
  8
0
 10
-7.96779
 20
33.6314
 11
-9.11211
 21
32.5568
  0
LINE
  8
0
 10
-9.11211
 20
32.5568
 11
-10.1127
 21
31.3473
  0
LINE
  8
0
 10
-10.1127
 20
31.3473
 11
-10.9538
 21
30.0219
  0
LINE
  8
0
 10
-10.9538
 20
30.0219
 11
-11.6222
 21
28.6015
  0
LINE
  8
0
 10
-11.6222
 20
28.6015
 11
-12.1073
 21
27.1086
  0
LINE
  8
0
 10
-12.1073
 20
27.1086
 11
-12.4014
 21
25.5667
  0
LINE
  8
0
 10
-12.4014
 20
25.5667
 11
-12.5
 21
24
  0
LINE
  8
0
 10
-12.5
 20
24
 11
-12.4014
 21
22.4333
  0
LINE
  8
0
 10
-12.4014
 20
22.4333
 11
-12.1073
 21
20.8914
  0
LINE
  8
0
 10
-12.1073
 20
20.8914
 11
-11.6222
 21
19.3985
  0
LINE
  8
0
 10
-11.6222
 20
19.3985
 11
-10.9538
 21
17.9781
  0
LINE
  8
0
 10
-10.9538
 20
17.9781
 11
-10.1127
 21
16.6527
  0
LINE
  8
0
 10
-10.1127
 20
16.6527
 11
-9.11211
 21
15.4432
  0
LINE
  8
0
 10
-9.11211
 20
15.4432
 11
-7.96779
 21
14.3686
  0
LINE
  8
0
 10
-7.96779
 20
14.3686
 11
-6.69783
 21
13.4459
  0
LINE
  8
0
 10
-6.69783
 20
13.4459
 11
-5.32224
 21
12.6897
  0
LINE
  8
0
 10
-5.32224
 20
12.6897
 11
-3.8627
 21
12.1118
  0
LINE
  8
0
 10
-3.8627
 20
12.1118
 11
-3.42726
 21
12
  0
LINE
  8
0
 10
-3.42726
 20
12
 11
-3.8627
 21
11.8882
  0
LINE
  8
0
 10
-3.8627
 20
11.8882
 11
-5.32224
 21
11.3103
  0
LINE
  8
0
 10
-5.32224
 20
11.3103
 11
-6.69783
 21
10.5541
  0
LINE
  8
0
 10
-6.69783
 20
10.5541
 11
-7.96779
 21
9.63141
  0
LINE
  8
0
 10
-7.96779
 20
9.63141
 11
-9.11211
 21
8.55682
  0
LINE
  8
0
 10
-9.11211
 20
8.55682
 11
-10.1127
 21
7.34731
  0
LINE
  8
0
 10
-10.1127
 20
7.34731
 11
-10.9538
 21
6.02191
  0
LINE
  8
0
 10
-10.9538
 20
6.02191
 11
-11.6222
 21
4.60155
  0
LINE
  8
0
 10
-11.6222
 20
4.60155
 11
-12.1073
 21
3.10861
  0
LINE
  8
0
 10
-12.1073
 20
3.10861
 11
-12.4014
 21
1.56665
  0
LINE
  8
0
 10
-12.4014
 20
1.56665
 11
-12.5
 21
0
  0
LINE
  8
0
 10
-12.5
 20
0
 11
-12.4014
 21
-1.56665
  0
LINE
  8
0
 10
-12.4014
 20
-1.56665
 11
-12.1073
 21
-3.10861
  0
LINE
  8
0
 10
-12.1073
 20
-3.10861
 11
-11.6222
 21
-4.60155
  0
LINE
  8
0
 10
-11.6222
 20
-4.60155
 11
-10.9538
 21
-6.02191
  0
LINE
  8
0
 10
-10.9538
 20
-6.02191
 11
-10.1127
 21
-7.34731
  0
LINE
  8
0
 10
-10.1127
 20
-7.34731
 11
-9.11211
 21
-8.55682
  0
LINE
  8
0
 10
-9.11211
 20
-8.55682
 11
-7.96779
 21
-9.63141
  0
LINE
  8
0
 10
-7.96779
 20
-9.63141
 11
-6.69783
 21
-10.5541
  0
LINE
  8
0
 10
-6.69783
 20
-10.5541
 11
-5.32224
 21
-11.3103
  0
LINE
  8
0
 10
-5.32224
 20
-11.3103
 11
-3.8627
 21
-11.8882
  0
LINE
  8
0
 10
-3.8627
 20
-11.8882
 11
-2.34225
 21
-12.2786
  0
LINE
  8
0
 10
-2.34225
 20
-12.2786
 11
-0.784866
 21
-12.4753
  0
LINE
  8
0
 10
-0.784866
 20
-12.4753
 11
0.784866
 21
-12.4753
  0
LINE
  8
0
 10
0.784866
 20
-12.4753
 11
2.34225
 21
-12.2786
  0
LINE
  8
0
 10
-0.229599
 20
308.35
 11
-0.685196
 21
308.408
  0
LINE
  8
0
 10
-0.685196
 20
308.408
 11
-1.12999
 21
308.522
  0
LINE
  8
0
 10
-1.12999
 20
308.522
 11
-1.55696
 21
308.691
  0
LINE
  8
0
 10
-1.55696
 20
308.691
 11
-1.95938
 21
308.913
  0
LINE
  8
0
 10
-1.95938
 20
308.913
 11
-2.3309
 21
309.182
  0
LINE
  8
0
 10
-2.3309
 20
309.182
 11
-2.66565
 21
309.497
  0
LINE
  8
0
 10
-2.66565
 20
309.497
 11
-2.95837
 21
309.851
  0
LINE
  8
0
 10
-2.95837
 20
309.851
 11
-3.20444
 21
310.238
  0
LINE
  8
0
 10
-3.20444
 20
310.238
 11
-3.39996
 21
310.654
  0
LINE
  8
0
 10
-3.39996
 20
310.654
 11
-3.54187
 21
311.091
  0
LINE
  8
0
 10
-3.54187
 20
311.091
 11
-3.62791
 21
311.542
  0
LINE
  8
0
 10
-3.62791
 20
311.542
 11
-3.65675
 21
312
  0
LINE
  8
0
 10
-3.65675
 20
312
 11
-3.62791
 21
312.458
  0
LINE
  8
0
 10
-3.62791
 20
312.458
 11
-3.54187
 21
312.909
  0
LINE
  8
0
 10
-3.54187
 20
312.909
 11
-3.39996
 21
313.346
  0
LINE
  8
0
 10
-3.39996
 20
313.346
 11
-3.20444
 21
313.762
  0
LINE
  8
0
 10
-3.20444
 20
313.762
 11
-2.95837
 21
314.149
  0
LINE
  8
0
 10
-2.95837
 20
314.149
 11
-2.66565
 21
314.503
  0
LINE
  8
0
 10
-2.66565
 20
314.503
 11
-2.3309
 21
314.818
  0
LINE
  8
0
 10
-2.3309
 20
314.818
 11
-1.95938
 21
315.087
  0
LINE
  8
0
 10
-1.95938
 20
315.087
 11
-1.55696
 21
315.309
  0
LINE
  8
0
 10
-1.55696
 20
315.309
 11
-1.12999
 21
315.478
  0
LINE
  8
0
 10
-1.12999
 20
315.478
 11
-0.685196
 21
315.592
  0
LINE
  8
0
 10
-0.685196
 20
315.592
 11
-0.229599
 21
315.65
  0
LINE
  8
0
 10
-0.229599
 20
315.65
 11
0.229599
 21
315.65
  0
LINE
  8
0
 10
0.229599
 20
315.65
 11
0.685196
 21
315.592
  0
LINE
  8
0
 10
0.685196
 20
315.592
 11
1.12999
 21
315.478
  0
LINE
  8
0
 10
1.12999
 20
315.478
 11
1.55696
 21
315.309
  0
LINE
  8
0
 10
1.55696
 20
315.309
 11
1.95938
 21
315.087
  0
LINE
  8
0
 10
1.95938
 20
315.087
 11
2.3309
 21
314.818
  0
LINE
  8
0
 10
2.3309
 20
314.818
 11
2.66565
 21
314.503
  0
LINE
  8
0
 10
2.66565
 20
314.503
 11
2.95837
 21
314.149
  0
LINE
  8
0
 10
2.95837
 20
314.149
 11
3.20444
 21
313.762
  0
LINE
  8
0
 10
3.20444
 20
313.762
 11
3.39996
 21
313.346
  0
LINE
  8
0
 10
3.39996
 20
313.346
 11
3.54187
 21
312.909
  0
LINE
  8
0
 10
3.54187
 20
312.909
 11
3.62791
 21
312.458
  0
LINE
  8
0
 10
3.62791
 20
312.458
 11
3.65675
 21
312
  0
LINE
  8
0
 10
3.65675
 20
312
 11
3.62791
 21
311.542
  0
LINE
  8
0
 10
3.62791
 20
311.542
 11
3.54187
 21
311.091
  0
LINE
  8
0
 10
3.54187
 20
311.091
 11
3.39996
 21
310.654
  0
LINE
  8
0
 10
3.39996
 20
310.654
 11
3.20444
 21
310.238
  0
LINE
  8
0
 10
3.20444
 20
310.238
 11
2.95837
 21
309.851
  0
LINE
  8
0
 10
2.95837
 20
309.851
 11
2.66565
 21
309.497
  0
LINE
  8
0
 10
2.66565
 20
309.497
 11
2.3309
 21
309.182
  0
LINE
  8
0
 10
2.3309
 20
309.182
 11
1.95938
 21
308.913
  0
LINE
  8
0
 10
1.95938
 20
308.913
 11
1.55696
 21
308.691
  0
LINE
  8
0
 10
1.55696
 20
308.691
 11
1.12999
 21
308.522
  0
LINE
  8
0
 10
1.12999
 20
308.522
 11
0.685196
 21
308.408
  0
LINE
  8
0
 10
0.685196
 20
308.408
 11
0.229599
 21
308.35
  0
LINE
  8
0
 10
0.229599
 20
308.35
 11
-0.229599
 21
308.35
  0
LINE
  8
0
 10
-0.180511
 20
285.131
 11
-0.538712
 21
285.176
  0
LINE
  8
0
 10
-0.538712
 20
285.176
 11
-0.888412
 21
285.266
  0
LINE
  8
0
 10
-0.888412
 20
285.266
 11
-1.22411
 21
285.399
  0
LINE
  8
0
 10
-1.22411
 20
285.399
 11
-1.5405
 21
285.573
  0
LINE
  8
0
 10
-1.5405
 20
285.573
 11
-1.83258
 21
285.785
  0
LINE
  8
0
 10
-1.83258
 20
285.785
 11
-2.09578
 21
286.032
  0
LINE
  8
0
 10
-2.09578
 20
286.032
 11
-2.32591
 21
286.31
  0
LINE
  8
0
 10
-2.32591
 20
286.31
 11
-2.51938
 21
286.615
  0
LINE
  8
0
 10
-2.51938
 20
286.615
 11
-2.6731
 21
286.942
  0
LINE
  8
0
 10
-2.6731
 20
286.942
 11
-2.78467
 21
287.285
  0
LINE
  8
0
 10
-2.78467
 20
287.285
 11
-2.85233
 21
287.64
  0
LINE
  8
0
 10
-2.85233
 20
287.64
 11
-2.875
 21
288
  0
LINE
  8
0
 10
-2.875
 20
288
 11
-2.85233
 21
288.36
  0
LINE
  8
0
 10
-2.85233
 20
288.36
 11
-2.78467
 21
288.715
  0
LINE
  8
0
 10
-2.78467
 20
288.715
 11
-2.6731
 21
289.058
  0
LINE
  8
0
 10
-2.6731
 20
289.058
 11
-2.51938
 21
289.385
  0
LINE
  8
0
 10
-2.51938
 20
289.385
 11
-2.32591
 21
289.69
  0
LINE
  8
0
 10
-2.32591
 20
289.69
 11
-2.09578
 21
289.968
  0
LINE
  8
0
 10
-2.09578
 20
289.968
 11
-1.83258
 21
290.215
  0
LINE
  8
0
 10
-1.83258
 20
290.215
 11
-1.5405
 21
290.427
  0
LINE
  8
0
 10
-1.5405
 20
290.427
 11
-1.22411
 21
290.601
  0
LINE
  8
0
 10
-1.22411
 20
290.601
 11
-0.888412
 21
290.734
  0
LINE
  8
0
 10
-0.888412
 20
290.734
 11
-0.538712
 21
290.824
  0
LINE
  8
0
 10
-0.538712
 20
290.824
 11
-0.180511
 21
290.869
  0
LINE
  8
0
 10
-0.180511
 20
290.869
 11
0.180511
 21
290.869
  0
LINE
  8
0
 10
0.180511
 20
290.869
 11
0.538712
 21
290.824
  0
LINE
  8
0
 10
0.538712
 20
290.824
 11
0.888412
 21
290.734
  0
LINE
  8
0
 10
0.888412
 20
290.734
 11
1.22411
 21
290.601
  0
LINE
  8
0
 10
1.22411
 20
290.601
 11
1.5405
 21
290.427
  0
LINE
  8
0
 10
1.5405
 20
290.427
 11
1.83258
 21
290.215
  0
LINE
  8
0
 10
1.83258
 20
290.215
 11
2.09578
 21
289.968
  0
LINE
  8
0
 10
2.09578
 20
289.968
 11
2.32591
 21
289.69
  0
LINE
  8
0
 10
2.32591
 20
289.69
 11
2.51938
 21
289.385
  0
LINE
  8
0
 10
2.51938
 20
289.385
 11
2.6731
 21
289.058
  0
LINE
  8
0
 10
2.6731
 20
289.058
 11
2.78467
 21
288.715
  0
LINE
  8
0
 10
2.78467
 20
288.715
 11
2.85233
 21
288.36
  0
LINE
  8
0
 10
2.85233
 20
288.36
 11
2.875
 21
288
  0
LINE
  8
0
 10
2.875
 20
288
 11
2.85233
 21
287.64
  0
LINE
  8
0
 10
2.85233
 20
287.64
 11
2.78467
 21
287.285
  0
LINE
  8
0
 10
2.78467
 20
287.285
 11
2.6731
 21
286.942
  0
LINE
  8
0
 10
2.6731
 20
286.942
 11
2.51938
 21
286.615
  0
LINE
  8
0
 10
2.51938
 20
286.615
 11
2.32591
 21
286.31
  0
LINE
  8
0
 10
2.32591
 20
286.31
 11
2.09578
 21
286.032
  0
LINE
  8
0
 10
2.09578
 20
286.032
 11
1.83258
 21
285.785
  0
LINE
  8
0
 10
1.83258
 20
285.785
 11
1.5405
 21
285.573
  0
LINE
  8
0
 10
1.5405
 20
285.573
 11
1.22411
 21
285.399
  0
LINE
  8
0
 10
1.22411
 20
285.399
 11
0.888412
 21
285.266
  0
LINE
  8
0
 10
0.888412
 20
285.266
 11
0.538712
 21
285.176
  0
LINE
  8
0
 10
0.538712
 20
285.176
 11
0.180511
 21
285.131
  0
LINE
  8
0
 10
0.180511
 20
285.131
 11
-0.180511
 21
285.131
  0
LINE
  8
0
 10
-0.180511
 20
261.131
 11
-0.538712
 21
261.176
  0
LINE
  8
0
 10
-0.538712
 20
261.176
 11
-0.888412
 21
261.266
  0
LINE
  8
0
 10
-0.888412
 20
261.266
 11
-1.22411
 21
261.399
  0
LINE
  8
0
 10
-1.22411
 20
261.399
 11
-1.5405
 21
261.573
  0
LINE
  8
0
 10
-1.5405
 20
261.573
 11
-1.83258
 21
261.785
  0
LINE
  8
0
 10
-1.83258
 20
261.785
 11
-2.09578
 21
262.032
  0
LINE
  8
0
 10
-2.09578
 20
262.032
 11
-2.32591
 21
262.31
  0
LINE
  8
0
 10
-2.32591
 20
262.31
 11
-2.51938
 21
262.615
  0
LINE
  8
0
 10
-2.51938
 20
262.615
 11
-2.6731
 21
262.942
  0
LINE
  8
0
 10
-2.6731
 20
262.942
 11
-2.78467
 21
263.285
  0
LINE
  8
0
 10
-2.78467
 20
263.285
 11
-2.85233
 21
263.64
  0
LINE
  8
0
 10
-2.85233
 20
263.64
 11
-2.875
 21
264
  0
LINE
  8
0
 10
-2.875
 20
264
 11
-2.85233
 21
264.36
  0
LINE
  8
0
 10
-2.85233
 20
264.36
 11
-2.78467
 21
264.715
  0
LINE
  8
0
 10
-2.78467
 20
264.715
 11
-2.6731
 21
265.058
  0
LINE
  8
0
 10
-2.6731
 20
265.058
 11
-2.51938
 21
265.385
  0
LINE
  8
0
 10
-2.51938
 20
265.385
 11
-2.32591
 21
265.69
  0
LINE
  8
0
 10
-2.32591
 20
265.69
 11
-2.09578
 21
265.968
  0
LINE
  8
0
 10
-2.09578
 20
265.968
 11
-1.83258
 21
266.215
  0
LINE
  8
0
 10
-1.83258
 20
266.215
 11
-1.5405
 21
266.427
  0
LINE
  8
0
 10
-1.5405
 20
266.427
 11
-1.22411
 21
266.601
  0
LINE
  8
0
 10
-1.22411
 20
266.601
 11
-0.888412
 21
266.734
  0
LINE
  8
0
 10
-0.888412
 20
266.734
 11
-0.538712
 21
266.824
  0
LINE
  8
0
 10
-0.538712
 20
266.824
 11
-0.180511
 21
266.869
  0
LINE
  8
0
 10
-0.180511
 20
266.869
 11
0.180511
 21
266.869
  0
LINE
  8
0
 10
0.180511
 20
266.869
 11
0.538712
 21
266.824
  0
LINE
  8
0
 10
0.538712
 20
266.824
 11
0.888412
 21
266.734
  0
LINE
  8
0
 10
0.888412
 20
266.734
 11
1.22411
 21
266.601
  0
LINE
  8
0
 10
1.22411
 20
266.601
 11
1.5405
 21
266.427
  0
LINE
  8
0
 10
1.5405
 20
266.427
 11
1.83258
 21
266.215
  0
LINE
  8
0
 10
1.83258
 20
266.215
 11
2.09578
 21
265.968
  0
LINE
  8
0
 10
2.09578
 20
265.968
 11
2.32591
 21
265.69
  0
LINE
  8
0
 10
2.32591
 20
265.69
 11
2.51938
 21
265.385
  0
LINE
  8
0
 10
2.51938
 20
265.385
 11
2.6731
 21
265.058
  0
LINE
  8
0
 10
2.6731
 20
265.058
 11
2.78467
 21
264.715
  0
LINE
  8
0
 10
2.78467
 20
264.715
 11
2.85233
 21
264.36
  0
LINE
  8
0
 10
2.85233
 20
264.36
 11
2.875
 21
264
  0
LINE
  8
0
 10
2.875
 20
264
 11
2.85233
 21
263.64
  0
LINE
  8
0
 10
2.85233
 20
263.64
 11
2.78467
 21
263.285
  0
LINE
  8
0
 10
2.78467
 20
263.285
 11
2.6731
 21
262.942
  0
LINE
  8
0
 10
2.6731
 20
262.942
 11
2.51938
 21
262.615
  0
LINE
  8
0
 10
2.51938
 20
262.615
 11
2.32591
 21
262.31
  0
LINE
  8
0
 10
2.32591
 20
262.31
 11
2.09578
 21
262.032
  0
LINE
  8
0
 10
2.09578
 20
262.032
 11
1.83258
 21
261.785
  0
LINE
  8
0
 10
1.83258
 20
261.785
 11
1.5405
 21
261.573
  0
LINE
  8
0
 10
1.5405
 20
261.573
 11
1.22411
 21
261.399
  0
LINE
  8
0
 10
1.22411
 20
261.399
 11
0.888412
 21
261.266
  0
LINE
  8
0
 10
0.888412
 20
261.266
 11
0.538712
 21
261.176
  0
LINE
  8
0
 10
0.538712
 20
261.176
 11
0.180511
 21
261.131
  0
LINE
  8
0
 10
0.180511
 20
261.131
 11
-0.180511
 21
261.131
  0
LINE
  8
0
 10
-0.180511
 20
237.131
 11
-0.538712
 21
237.176
  0
LINE
  8
0
 10
-0.538712
 20
237.176
 11
-0.888412
 21
237.266
  0
LINE
  8
0
 10
-0.888412
 20
237.266
 11
-1.22411
 21
237.399
  0
LINE
  8
0
 10
-1.22411
 20
237.399
 11
-1.5405
 21
237.573
  0
LINE
  8
0
 10
-1.5405
 20
237.573
 11
-1.83258
 21
237.785
  0
LINE
  8
0
 10
-1.83258
 20
237.785
 11
-2.09578
 21
238.032
  0
LINE
  8
0
 10
-2.09578
 20
238.032
 11
-2.32591
 21
238.31
  0
LINE
  8
0
 10
-2.32591
 20
238.31
 11
-2.51938
 21
238.615
  0
LINE
  8
0
 10
-2.51938
 20
238.615
 11
-2.6731
 21
238.942
  0
LINE
  8
0
 10
-2.6731
 20
238.942
 11
-2.78467
 21
239.285
  0
LINE
  8
0
 10
-2.78467
 20
239.285
 11
-2.85233
 21
239.64
  0
LINE
  8
0
 10
-2.85233
 20
239.64
 11
-2.875
 21
240
  0
LINE
  8
0
 10
-2.875
 20
240
 11
-2.85233
 21
240.36
  0
LINE
  8
0
 10
-2.85233
 20
240.36
 11
-2.78467
 21
240.715
  0
LINE
  8
0
 10
-2.78467
 20
240.715
 11
-2.6731
 21
241.058
  0
LINE
  8
0
 10
-2.6731
 20
241.058
 11
-2.51938
 21
241.385
  0
LINE
  8
0
 10
-2.51938
 20
241.385
 11
-2.32591
 21
241.69
  0
LINE
  8
0
 10
-2.32591
 20
241.69
 11
-2.09578
 21
241.968
  0
LINE
  8
0
 10
-2.09578
 20
241.968
 11
-1.83258
 21
242.215
  0
LINE
  8
0
 10
-1.83258
 20
242.215
 11
-1.5405
 21
242.427
  0
LINE
  8
0
 10
-1.5405
 20
242.427
 11
-1.22411
 21
242.601
  0
LINE
  8
0
 10
-1.22411
 20
242.601
 11
-0.888412
 21
242.734
  0
LINE
  8
0
 10
-0.888412
 20
242.734
 11
-0.538712
 21
242.824
  0
LINE
  8
0
 10
-0.538712
 20
242.824
 11
-0.180511
 21
242.869
  0
LINE
  8
0
 10
-0.180511
 20
242.869
 11
0.180511
 21
242.869
  0
LINE
  8
0
 10
0.180511
 20
242.869
 11
0.538712
 21
242.824
  0
LINE
  8
0
 10
0.538712
 20
242.824
 11
0.888412
 21
242.734
  0
LINE
  8
0
 10
0.888412
 20
242.734
 11
1.22411
 21
242.601
  0
LINE
  8
0
 10
1.22411
 20
242.601
 11
1.5405
 21
242.427
  0
LINE
  8
0
 10
1.5405
 20
242.427
 11
1.83258
 21
242.215
  0
LINE
  8
0
 10
1.83258
 20
242.215
 11
2.09578
 21
241.968
  0
LINE
  8
0
 10
2.09578
 20
241.968
 11
2.32591
 21
241.69
  0
LINE
  8
0
 10
2.32591
 20
241.69
 11
2.51938
 21
241.385
  0
LINE
  8
0
 10
2.51938
 20
241.385
 11
2.6731
 21
241.058
  0
LINE
  8
0
 10
2.6731
 20
241.058
 11
2.78467
 21
240.715
  0
LINE
  8
0
 10
2.78467
 20
240.715
 11
2.85233
 21
240.36
  0
LINE
  8
0
 10
2.85233
 20
240.36
 11
2.875
 21
240
  0
LINE
  8
0
 10
2.875
 20
240
 11
2.85233
 21
239.64
  0
LINE
  8
0
 10
2.85233
 20
239.64
 11
2.78467
 21
239.285
  0
LINE
  8
0
 10
2.78467
 20
239.285
 11
2.6731
 21
238.942
  0
LINE
  8
0
 10
2.6731
 20
238.942
 11
2.51938
 21
238.615
  0
LINE
  8
0
 10
2.51938
 20
238.615
 11
2.32591
 21
238.31
  0
LINE
  8
0
 10
2.32591
 20
238.31
 11
2.09578
 21
238.032
  0
LINE
  8
0
 10
2.09578
 20
238.032
 11
1.83258
 21
237.785
  0
LINE
  8
0
 10
1.83258
 20
237.785
 11
1.5405
 21
237.573
  0
LINE
  8
0
 10
1.5405
 20
237.573
 11
1.22411
 21
237.399
  0
LINE
  8
0
 10
1.22411
 20
237.399
 11
0.888412
 21
237.266
  0
LINE
  8
0
 10
0.888412
 20
237.266
 11
0.538712
 21
237.176
  0
LINE
  8
0
 10
0.538712
 20
237.176
 11
0.180511
 21
237.131
  0
LINE
  8
0
 10
0.180511
 20
237.131
 11
-0.180511
 21
237.131
  0
LINE
  8
0
 10
-0.180511
 20
213.131
 11
-0.538712
 21
213.176
  0
LINE
  8
0
 10
-0.538712
 20
213.176
 11
-0.888412
 21
213.266
  0
LINE
  8
0
 10
-0.888412
 20
213.266
 11
-1.22411
 21
213.399
  0
LINE
  8
0
 10
-1.22411
 20
213.399
 11
-1.5405
 21
213.573
  0
LINE
  8
0
 10
-1.5405
 20
213.573
 11
-1.83258
 21
213.785
  0
LINE
  8
0
 10
-1.83258
 20
213.785
 11
-2.09578
 21
214.032
  0
LINE
  8
0
 10
-2.09578
 20
214.032
 11
-2.32591
 21
214.31
  0
LINE
  8
0
 10
-2.32591
 20
214.31
 11
-2.51938
 21
214.615
  0
LINE
  8
0
 10
-2.51938
 20
214.615
 11
-2.6731
 21
214.942
  0
LINE
  8
0
 10
-2.6731
 20
214.942
 11
-2.78467
 21
215.285
  0
LINE
  8
0
 10
-2.78467
 20
215.285
 11
-2.85233
 21
215.64
  0
LINE
  8
0
 10
-2.85233
 20
215.64
 11
-2.875
 21
216
  0
LINE
  8
0
 10
-2.875
 20
216
 11
-2.85233
 21
216.36
  0
LINE
  8
0
 10
-2.85233
 20
216.36
 11
-2.78467
 21
216.715
  0
LINE
  8
0
 10
-2.78467
 20
216.715
 11
-2.6731
 21
217.058
  0
LINE
  8
0
 10
-2.6731
 20
217.058
 11
-2.51938
 21
217.385
  0
LINE
  8
0
 10
-2.51938
 20
217.385
 11
-2.32591
 21
217.69
  0
LINE
  8
0
 10
-2.32591
 20
217.69
 11
-2.09578
 21
217.968
  0
LINE
  8
0
 10
-2.09578
 20
217.968
 11
-1.83258
 21
218.215
  0
LINE
  8
0
 10
-1.83258
 20
218.215
 11
-1.5405
 21
218.427
  0
LINE
  8
0
 10
-1.5405
 20
218.427
 11
-1.22411
 21
218.601
  0
LINE
  8
0
 10
-1.22411
 20
218.601
 11
-0.888412
 21
218.734
  0
LINE
  8
0
 10
-0.888412
 20
218.734
 11
-0.538712
 21
218.824
  0
LINE
  8
0
 10
-0.538712
 20
218.824
 11
-0.180511
 21
218.869
  0
LINE
  8
0
 10
-0.180511
 20
218.869
 11
0.180511
 21
218.869
  0
LINE
  8
0
 10
0.180511
 20
218.869
 11
0.538712
 21
218.824
  0
LINE
  8
0
 10
0.538712
 20
218.824
 11
0.888412
 21
218.734
  0
LINE
  8
0
 10
0.888412
 20
218.734
 11
1.22411
 21
218.601
  0
LINE
  8
0
 10
1.22411
 20
218.601
 11
1.5405
 21
218.427
  0
LINE
  8
0
 10
1.5405
 20
218.427
 11
1.83258
 21
218.215
  0
LINE
  8
0
 10
1.83258
 20
218.215
 11
2.09578
 21
217.968
  0
LINE
  8
0
 10
2.09578
 20
217.968
 11
2.32591
 21
217.69
  0
LINE
  8
0
 10
2.32591
 20
217.69
 11
2.51938
 21
217.385
  0
LINE
  8
0
 10
2.51938
 20
217.385
 11
2.6731
 21
217.058
  0
LINE
  8
0
 10
2.6731
 20
217.058
 11
2.78467
 21
216.715
  0
LINE
  8
0
 10
2.78467
 20
216.715
 11
2.85233
 21
216.36
  0
LINE
  8
0
 10
2.85233
 20
216.36
 11
2.875
 21
216
  0
LINE
  8
0
 10
2.875
 20
216
 11
2.85233
 21
215.64
  0
LINE
  8
0
 10
2.85233
 20
215.64
 11
2.78467
 21
215.285
  0
LINE
  8
0
 10
2.78467
 20
215.285
 11
2.6731
 21
214.942
  0
LINE
  8
0
 10
2.6731
 20
214.942
 11
2.51938
 21
214.615
  0
LINE
  8
0
 10
2.51938
 20
214.615
 11
2.32591
 21
214.31
  0
LINE
  8
0
 10
2.32591
 20
214.31
 11
2.09578
 21
214.032
  0
LINE
  8
0
 10
2.09578
 20
214.032
 11
1.83258
 21
213.785
  0
LINE
  8
0
 10
1.83258
 20
213.785
 11
1.5405
 21
213.573
  0
LINE
  8
0
 10
1.5405
 20
213.573
 11
1.22411
 21
213.399
  0
LINE
  8
0
 10
1.22411
 20
213.399
 11
0.888412
 21
213.266
  0
LINE
  8
0
 10
0.888412
 20
213.266
 11
0.538712
 21
213.176
  0
LINE
  8
0
 10
0.538712
 20
213.176
 11
0.180511
 21
213.131
  0
LINE
  8
0
 10
0.180511
 20
213.131
 11
-0.180511
 21
213.131
  0
LINE
  8
0
 10
-0.180511
 20
189.131
 11
-0.538712
 21
189.176
  0
LINE
  8
0
 10
-0.538712
 20
189.176
 11
-0.888412
 21
189.266
  0
LINE
  8
0
 10
-0.888412
 20
189.266
 11
-1.22411
 21
189.399
  0
LINE
  8
0
 10
-1.22411
 20
189.399
 11
-1.5405
 21
189.573
  0
LINE
  8
0
 10
-1.5405
 20
189.573
 11
-1.83258
 21
189.785
  0
LINE
  8
0
 10
-1.83258
 20
189.785
 11
-2.09578
 21
190.032
  0
LINE
  8
0
 10
-2.09578
 20
190.032
 11
-2.32591
 21
190.31
  0
LINE
  8
0
 10
-2.32591
 20
190.31
 11
-2.51938
 21
190.615
  0
LINE
  8
0
 10
-2.51938
 20
190.615
 11
-2.6731
 21
190.942
  0
LINE
  8
0
 10
-2.6731
 20
190.942
 11
-2.78467
 21
191.285
  0
LINE
  8
0
 10
-2.78467
 20
191.285
 11
-2.85233
 21
191.64
  0
LINE
  8
0
 10
-2.85233
 20
191.64
 11
-2.875
 21
192
  0
LINE
  8
0
 10
-2.875
 20
192
 11
-2.85233
 21
192.36
  0
LINE
  8
0
 10
-2.85233
 20
192.36
 11
-2.78467
 21
192.715
  0
LINE
  8
0
 10
-2.78467
 20
192.715
 11
-2.6731
 21
193.058
  0
LINE
  8
0
 10
-2.6731
 20
193.058
 11
-2.51938
 21
193.385
  0
LINE
  8
0
 10
-2.51938
 20
193.385
 11
-2.32591
 21
193.69
  0
LINE
  8
0
 10
-2.32591
 20
193.69
 11
-2.09578
 21
193.968
  0
LINE
  8
0
 10
-2.09578
 20
193.968
 11
-1.83258
 21
194.215
  0
LINE
  8
0
 10
-1.83258
 20
194.215
 11
-1.5405
 21
194.427
  0
LINE
  8
0
 10
-1.5405
 20
194.427
 11
-1.22411
 21
194.601
  0
LINE
  8
0
 10
-1.22411
 20
194.601
 11
-0.888412
 21
194.734
  0
LINE
  8
0
 10
-0.888412
 20
194.734
 11
-0.538712
 21
194.824
  0
LINE
  8
0
 10
-0.538712
 20
194.824
 11
-0.180511
 21
194.869
  0
LINE
  8
0
 10
-0.180511
 20
194.869
 11
0.180511
 21
194.869
  0
LINE
  8
0
 10
0.180511
 20
194.869
 11
0.538712
 21
194.824
  0
LINE
  8
0
 10
0.538712
 20
194.824
 11
0.888412
 21
194.734
  0
LINE
  8
0
 10
0.888412
 20
194.734
 11
1.22411
 21
194.601
  0
LINE
  8
0
 10
1.22411
 20
194.601
 11
1.5405
 21
194.427
  0
LINE
  8
0
 10
1.5405
 20
194.427
 11
1.83258
 21
194.215
  0
LINE
  8
0
 10
1.83258
 20
194.215
 11
2.09578
 21
193.968
  0
LINE
  8
0
 10
2.09578
 20
193.968
 11
2.32591
 21
193.69
  0
LINE
  8
0
 10
2.32591
 20
193.69
 11
2.51938
 21
193.385
  0
LINE
  8
0
 10
2.51938
 20
193.385
 11
2.6731
 21
193.058
  0
LINE
  8
0
 10
2.6731
 20
193.058
 11
2.78467
 21
192.715
  0
LINE
  8
0
 10
2.78467
 20
192.715
 11
2.85233
 21
192.36
  0
LINE
  8
0
 10
2.85233
 20
192.36
 11
2.875
 21
192
  0
LINE
  8
0
 10
2.875
 20
192
 11
2.85233
 21
191.64
  0
LINE
  8
0
 10
2.85233
 20
191.64
 11
2.78467
 21
191.285
  0
LINE
  8
0
 10
2.78467
 20
191.285
 11
2.6731
 21
190.942
  0
LINE
  8
0
 10
2.6731
 20
190.942
 11
2.51938
 21
190.615
  0
LINE
  8
0
 10
2.51938
 20
190.615
 11
2.32591
 21
190.31
  0
LINE
  8
0
 10
2.32591
 20
190.31
 11
2.09578
 21
190.032
  0
LINE
  8
0
 10
2.09578
 20
190.032
 11
1.83258
 21
189.785
  0
LINE
  8
0
 10
1.83258
 20
189.785
 11
1.5405
 21
189.573
  0
LINE
  8
0
 10
1.5405
 20
189.573
 11
1.22411
 21
189.399
  0
LINE
  8
0
 10
1.22411
 20
189.399
 11
0.888412
 21
189.266
  0
LINE
  8
0
 10
0.888412
 20
189.266
 11
0.538712
 21
189.176
  0
LINE
  8
0
 10
0.538712
 20
189.176
 11
0.180511
 21
189.131
  0
LINE
  8
0
 10
0.180511
 20
189.131
 11
-0.180511
 21
189.131
  0
LINE
  8
0
 10
-0.180511
 20
165.131
 11
-0.538712
 21
165.176
  0
LINE
  8
0
 10
-0.538712
 20
165.176
 11
-0.888412
 21
165.266
  0
LINE
  8
0
 10
-0.888412
 20
165.266
 11
-1.22411
 21
165.399
  0
LINE
  8
0
 10
-1.22411
 20
165.399
 11
-1.5405
 21
165.573
  0
LINE
  8
0
 10
-1.5405
 20
165.573
 11
-1.83258
 21
165.785
  0
LINE
  8
0
 10
-1.83258
 20
165.785
 11
-2.09578
 21
166.032
  0
LINE
  8
0
 10
-2.09578
 20
166.032
 11
-2.32591
 21
166.31
  0
LINE
  8
0
 10
-2.32591
 20
166.31
 11
-2.51938
 21
166.615
  0
LINE
  8
0
 10
-2.51938
 20
166.615
 11
-2.6731
 21
166.942
  0
LINE
  8
0
 10
-2.6731
 20
166.942
 11
-2.78467
 21
167.285
  0
LINE
  8
0
 10
-2.78467
 20
167.285
 11
-2.85233
 21
167.64
  0
LINE
  8
0
 10
-2.85233
 20
167.64
 11
-2.875
 21
168
  0
LINE
  8
0
 10
-2.875
 20
168
 11
-2.85233
 21
168.36
  0
LINE
  8
0
 10
-2.85233
 20
168.36
 11
-2.78467
 21
168.715
  0
LINE
  8
0
 10
-2.78467
 20
168.715
 11
-2.6731
 21
169.058
  0
LINE
  8
0
 10
-2.6731
 20
169.058
 11
-2.51938
 21
169.385
  0
LINE
  8
0
 10
-2.51938
 20
169.385
 11
-2.32591
 21
169.69
  0
LINE
  8
0
 10
-2.32591
 20
169.69
 11
-2.09578
 21
169.968
  0
LINE
  8
0
 10
-2.09578
 20
169.968
 11
-1.83258
 21
170.215
  0
LINE
  8
0
 10
-1.83258
 20
170.215
 11
-1.5405
 21
170.427
  0
LINE
  8
0
 10
-1.5405
 20
170.427
 11
-1.22411
 21
170.601
  0
LINE
  8
0
 10
-1.22411
 20
170.601
 11
-0.888412
 21
170.734
  0
LINE
  8
0
 10
-0.888412
 20
170.734
 11
-0.538712
 21
170.824
  0
LINE
  8
0
 10
-0.538712
 20
170.824
 11
-0.180511
 21
170.869
  0
LINE
  8
0
 10
-0.180511
 20
170.869
 11
0.180511
 21
170.869
  0
LINE
  8
0
 10
0.180511
 20
170.869
 11
0.538712
 21
170.824
  0
LINE
  8
0
 10
0.538712
 20
170.824
 11
0.888412
 21
170.734
  0
LINE
  8
0
 10
0.888412
 20
170.734
 11
1.22411
 21
170.601
  0
LINE
  8
0
 10
1.22411
 20
170.601
 11
1.5405
 21
170.427
  0
LINE
  8
0
 10
1.5405
 20
170.427
 11
1.83258
 21
170.215
  0
LINE
  8
0
 10
1.83258
 20
170.215
 11
2.09578
 21
169.968
  0
LINE
  8
0
 10
2.09578
 20
169.968
 11
2.32591
 21
169.69
  0
LINE
  8
0
 10
2.32591
 20
169.69
 11
2.51938
 21
169.385
  0
LINE
  8
0
 10
2.51938
 20
169.385
 11
2.6731
 21
169.058
  0
LINE
  8
0
 10
2.6731
 20
169.058
 11
2.78467
 21
168.715
  0
LINE
  8
0
 10
2.78467
 20
168.715
 11
2.85233
 21
168.36
  0
LINE
  8
0
 10
2.85233
 20
168.36
 11
2.875
 21
168
  0
LINE
  8
0
 10
2.875
 20
168
 11
2.85233
 21
167.64
  0
LINE
  8
0
 10
2.85233
 20
167.64
 11
2.78467
 21
167.285
  0
LINE
  8
0
 10
2.78467
 20
167.285
 11
2.6731
 21
166.942
  0
LINE
  8
0
 10
2.6731
 20
166.942
 11
2.51938
 21
166.615
  0
LINE
  8
0
 10
2.51938
 20
166.615
 11
2.32591
 21
166.31
  0
LINE
  8
0
 10
2.32591
 20
166.31
 11
2.09578
 21
166.032
  0
LINE
  8
0
 10
2.09578
 20
166.032
 11
1.83258
 21
165.785
  0
LINE
  8
0
 10
1.83258
 20
165.785
 11
1.5405
 21
165.573
  0
LINE
  8
0
 10
1.5405
 20
165.573
 11
1.22411
 21
165.399
  0
LINE
  8
0
 10
1.22411
 20
165.399
 11
0.888412
 21
165.266
  0
LINE
  8
0
 10
0.888412
 20
165.266
 11
0.538712
 21
165.176
  0
LINE
  8
0
 10
0.538712
 20
165.176
 11
0.180511
 21
165.131
  0
LINE
  8
0
 10
0.180511
 20
165.131
 11
-0.180511
 21
165.131
  0
LINE
  8
0
 10
-0.180511
 20
141.131
 11
-0.538712
 21
141.176
  0
LINE
  8
0
 10
-0.538712
 20
141.176
 11
-0.888412
 21
141.266
  0
LINE
  8
0
 10
-0.888412
 20
141.266
 11
-1.22411
 21
141.399
  0
LINE
  8
0
 10
-1.22411
 20
141.399
 11
-1.5405
 21
141.573
  0
LINE
  8
0
 10
-1.5405
 20
141.573
 11
-1.83258
 21
141.785
  0
LINE
  8
0
 10
-1.83258
 20
141.785
 11
-2.09578
 21
142.032
  0
LINE
  8
0
 10
-2.09578
 20
142.032
 11
-2.32591
 21
142.31
  0
LINE
  8
0
 10
-2.32591
 20
142.31
 11
-2.51938
 21
142.615
  0
LINE
  8
0
 10
-2.51938
 20
142.615
 11
-2.6731
 21
142.942
  0
LINE
  8
0
 10
-2.6731
 20
142.942
 11
-2.78467
 21
143.285
  0
LINE
  8
0
 10
-2.78467
 20
143.285
 11
-2.85233
 21
143.64
  0
LINE
  8
0
 10
-2.85233
 20
143.64
 11
-2.875
 21
144
  0
LINE
  8
0
 10
-2.875
 20
144
 11
-2.85233
 21
144.36
  0
LINE
  8
0
 10
-2.85233
 20
144.36
 11
-2.78467
 21
144.715
  0
LINE
  8
0
 10
-2.78467
 20
144.715
 11
-2.6731
 21
145.058
  0
LINE
  8
0
 10
-2.6731
 20
145.058
 11
-2.51938
 21
145.385
  0
LINE
  8
0
 10
-2.51938
 20
145.385
 11
-2.32591
 21
145.69
  0
LINE
  8
0
 10
-2.32591
 20
145.69
 11
-2.09578
 21
145.968
  0
LINE
  8
0
 10
-2.09578
 20
145.968
 11
-1.83258
 21
146.215
  0
LINE
  8
0
 10
-1.83258
 20
146.215
 11
-1.5405
 21
146.427
  0
LINE
  8
0
 10
-1.5405
 20
146.427
 11
-1.22411
 21
146.601
  0
LINE
  8
0
 10
-1.22411
 20
146.601
 11
-0.888412
 21
146.734
  0
LINE
  8
0
 10
-0.888412
 20
146.734
 11
-0.538712
 21
146.824
  0
LINE
  8
0
 10
-0.538712
 20
146.824
 11
-0.180511
 21
146.869
  0
LINE
  8
0
 10
-0.180511
 20
146.869
 11
0.180511
 21
146.869
  0
LINE
  8
0
 10
0.180511
 20
146.869
 11
0.538712
 21
146.824
  0
LINE
  8
0
 10
0.538712
 20
146.824
 11
0.888412
 21
146.734
  0
LINE
  8
0
 10
0.888412
 20
146.734
 11
1.22411
 21
146.601
  0
LINE
  8
0
 10
1.22411
 20
146.601
 11
1.5405
 21
146.427
  0
LINE
  8
0
 10
1.5405
 20
146.427
 11
1.83258
 21
146.215
  0
LINE
  8
0
 10
1.83258
 20
146.215
 11
2.09578
 21
145.968
  0
LINE
  8
0
 10
2.09578
 20
145.968
 11
2.32591
 21
145.69
  0
LINE
  8
0
 10
2.32591
 20
145.69
 11
2.51938
 21
145.385
  0
LINE
  8
0
 10
2.51938
 20
145.385
 11
2.6731
 21
145.058
  0
LINE
  8
0
 10
2.6731
 20
145.058
 11
2.78467
 21
144.715
  0
LINE
  8
0
 10
2.78467
 20
144.715
 11
2.85233
 21
144.36
  0
LINE
  8
0
 10
2.85233
 20
144.36
 11
2.875
 21
144
  0
LINE
  8
0
 10
2.875
 20
144
 11
2.85233
 21
143.64
  0
LINE
  8
0
 10
2.85233
 20
143.64
 11
2.78467
 21
143.285
  0
LINE
  8
0
 10
2.78467
 20
143.285
 11
2.6731
 21
142.942
  0
LINE
  8
0
 10
2.6731
 20
142.942
 11
2.51938
 21
142.615
  0
LINE
  8
0
 10
2.51938
 20
142.615
 11
2.32591
 21
142.31
  0
LINE
  8
0
 10
2.32591
 20
142.31
 11
2.09578
 21
142.032
  0
LINE
  8
0
 10
2.09578
 20
142.032
 11
1.83258
 21
141.785
  0
LINE
  8
0
 10
1.83258
 20
141.785
 11
1.5405
 21
141.573
  0
LINE
  8
0
 10
1.5405
 20
141.573
 11
1.22411
 21
141.399
  0
LINE
  8
0
 10
1.22411
 20
141.399
 11
0.888412
 21
141.266
  0
LINE
  8
0
 10
0.888412
 20
141.266
 11
0.538712
 21
141.176
  0
LINE
  8
0
 10
0.538712
 20
141.176
 11
0.180511
 21
141.131
  0
LINE
  8
0
 10
0.180511
 20
141.131
 11
-0.180511
 21
141.131
  0
LINE
  8
0
 10
-0.180511
 20
117.131
 11
-0.538712
 21
117.176
  0
LINE
  8
0
 10
-0.538712
 20
117.176
 11
-0.888412
 21
117.266
  0
LINE
  8
0
 10
-0.888412
 20
117.266
 11
-1.22411
 21
117.399
  0
LINE
  8
0
 10
-1.22411
 20
117.399
 11
-1.5405
 21
117.573
  0
LINE
  8
0
 10
-1.5405
 20
117.573
 11
-1.83258
 21
117.785
  0
LINE
  8
0
 10
-1.83258
 20
117.785
 11
-2.09578
 21
118.032
  0
LINE
  8
0
 10
-2.09578
 20
118.032
 11
-2.32591
 21
118.31
  0
LINE
  8
0
 10
-2.32591
 20
118.31
 11
-2.51938
 21
118.615
  0
LINE
  8
0
 10
-2.51938
 20
118.615
 11
-2.6731
 21
118.942
  0
LINE
  8
0
 10
-2.6731
 20
118.942
 11
-2.78467
 21
119.285
  0
LINE
  8
0
 10
-2.78467
 20
119.285
 11
-2.85233
 21
119.64
  0
LINE
  8
0
 10
-2.85233
 20
119.64
 11
-2.875
 21
120
  0
LINE
  8
0
 10
-2.875
 20
120
 11
-2.85233
 21
120.36
  0
LINE
  8
0
 10
-2.85233
 20
120.36
 11
-2.78467
 21
120.715
  0
LINE
  8
0
 10
-2.78467
 20
120.715
 11
-2.6731
 21
121.058
  0
LINE
  8
0
 10
-2.6731
 20
121.058
 11
-2.51938
 21
121.385
  0
LINE
  8
0
 10
-2.51938
 20
121.385
 11
-2.32591
 21
121.69
  0
LINE
  8
0
 10
-2.32591
 20
121.69
 11
-2.09578
 21
121.968
  0
LINE
  8
0
 10
-2.09578
 20
121.968
 11
-1.83258
 21
122.215
  0
LINE
  8
0
 10
-1.83258
 20
122.215
 11
-1.5405
 21
122.427
  0
LINE
  8
0
 10
-1.5405
 20
122.427
 11
-1.22411
 21
122.601
  0
LINE
  8
0
 10
-1.22411
 20
122.601
 11
-0.888412
 21
122.734
  0
LINE
  8
0
 10
-0.888412
 20
122.734
 11
-0.538712
 21
122.824
  0
LINE
  8
0
 10
-0.538712
 20
122.824
 11
-0.180511
 21
122.869
  0
LINE
  8
0
 10
-0.180511
 20
122.869
 11
0.180511
 21
122.869
  0
LINE
  8
0
 10
0.180511
 20
122.869
 11
0.538712
 21
122.824
  0
LINE
  8
0
 10
0.538712
 20
122.824
 11
0.888412
 21
122.734
  0
LINE
  8
0
 10
0.888412
 20
122.734
 11
1.22411
 21
122.601
  0
LINE
  8
0
 10
1.22411
 20
122.601
 11
1.5405
 21
122.427
  0
LINE
  8
0
 10
1.5405
 20
122.427
 11
1.83258
 21
122.215
  0
LINE
  8
0
 10
1.83258
 20
122.215
 11
2.09578
 21
121.968
  0
LINE
  8
0
 10
2.09578
 20
121.968
 11
2.32591
 21
121.69
  0
LINE
  8
0
 10
2.32591
 20
121.69
 11
2.51938
 21
121.385
  0
LINE
  8
0
 10
2.51938
 20
121.385
 11
2.6731
 21
121.058
  0
LINE
  8
0
 10
2.6731
 20
121.058
 11
2.78467
 21
120.715
  0
LINE
  8
0
 10
2.78467
 20
120.715
 11
2.85233
 21
120.36
  0
LINE
  8
0
 10
2.85233
 20
120.36
 11
2.875
 21
120
  0
LINE
  8
0
 10
2.875
 20
120
 11
2.85233
 21
119.64
  0
LINE
  8
0
 10
2.85233
 20
119.64
 11
2.78467
 21
119.285
  0
LINE
  8
0
 10
2.78467
 20
119.285
 11
2.6731
 21
118.942
  0
LINE
  8
0
 10
2.6731
 20
118.942
 11
2.51938
 21
118.615
  0
LINE
  8
0
 10
2.51938
 20
118.615
 11
2.32591
 21
118.31
  0
LINE
  8
0
 10
2.32591
 20
118.31
 11
2.09578
 21
118.032
  0
LINE
  8
0
 10
2.09578
 20
118.032
 11
1.83258
 21
117.785
  0
LINE
  8
0
 10
1.83258
 20
117.785
 11
1.5405
 21
117.573
  0
LINE
  8
0
 10
1.5405
 20
117.573
 11
1.22411
 21
117.399
  0
LINE
  8
0
 10
1.22411
 20
117.399
 11
0.888412
 21
117.266
  0
LINE
  8
0
 10
0.888412
 20
117.266
 11
0.538712
 21
117.176
  0
LINE
  8
0
 10
0.538712
 20
117.176
 11
0.180511
 21
117.131
  0
LINE
  8
0
 10
0.180511
 20
117.131
 11
-0.180511
 21
117.131
  0
LINE
  8
0
 10
-0.180511
 20
93.1307
 11
-0.538712
 21
93.1759
  0
LINE
  8
0
 10
-0.538712
 20
93.1759
 11
-0.888412
 21
93.2657
  0
LINE
  8
0
 10
-0.888412
 20
93.2657
 11
-1.22411
 21
93.3986
  0
LINE
  8
0
 10
-1.22411
 20
93.3986
 11
-1.5405
 21
93.5726
  0
LINE
  8
0
 10
-1.5405
 20
93.5726
 11
-1.83258
 21
93.7848
  0
LINE
  8
0
 10
-1.83258
 20
93.7848
 11
-2.09578
 21
94.0319
  0
LINE
  8
0
 10
-2.09578
 20
94.0319
 11
-2.32591
 21
94.3101
  0
LINE
  8
0
 10
-2.32591
 20
94.3101
 11
-2.51938
 21
94.615
  0
LINE
  8
0
 10
-2.51938
 20
94.615
 11
-2.6731
 21
94.9417
  0
LINE
  8
0
 10
-2.6731
 20
94.9417
 11
-2.78467
 21
95.285
  0
LINE
  8
0
 10
-2.78467
 20
95.285
 11
-2.85233
 21
95.6397
  0
LINE
  8
0
 10
-2.85233
 20
95.6397
 11
-2.875
 21
96
  0
LINE
  8
0
 10
-2.875
 20
96
 11
-2.85233
 21
96.3603
  0
LINE
  8
0
 10
-2.85233
 20
96.3603
 11
-2.78467
 21
96.715
  0
LINE
  8
0
 10
-2.78467
 20
96.715
 11
-2.6731
 21
97.0583
  0
LINE
  8
0
 10
-2.6731
 20
97.0583
 11
-2.51938
 21
97.385
  0
LINE
  8
0
 10
-2.51938
 20
97.385
 11
-2.32591
 21
97.6899
  0
LINE
  8
0
 10
-2.32591
 20
97.6899
 11
-2.09578
 21
97.9681
  0
LINE
  8
0
 10
-2.09578
 20
97.9681
 11
-1.83258
 21
98.2152
  0
LINE
  8
0
 10
-1.83258
 20
98.2152
 11
-1.5405
 21
98.4274
  0
LINE
  8
0
 10
-1.5405
 20
98.4274
 11
-1.22411
 21
98.6014
  0
LINE
  8
0
 10
-1.22411
 20
98.6014
 11
-0.888412
 21
98.7343
  0
LINE
  8
0
 10
-0.888412
 20
98.7343
 11
-0.538712
 21
98.8241
  0
LINE
  8
0
 10
-0.538712
 20
98.8241
 11
-0.180511
 21
98.8693
  0
LINE
  8
0
 10
-0.180511
 20
98.8693
 11
0.180511
 21
98.8693
  0
LINE
  8
0
 10
0.180511
 20
98.8693
 11
0.538712
 21
98.8241
  0
LINE
  8
0
 10
0.538712
 20
98.8241
 11
0.888412
 21
98.7343
  0
LINE
  8
0
 10
0.888412
 20
98.7343
 11
1.22411
 21
98.6014
  0
LINE
  8
0
 10
1.22411
 20
98.6014
 11
1.5405
 21
98.4274
  0
LINE
  8
0
 10
1.5405
 20
98.4274
 11
1.83258
 21
98.2152
  0
LINE
  8
0
 10
1.83258
 20
98.2152
 11
2.09578
 21
97.9681
  0
LINE
  8
0
 10
2.09578
 20
97.9681
 11
2.32591
 21
97.6899
  0
LINE
  8
0
 10
2.32591
 20
97.6899
 11
2.51938
 21
97.385
  0
LINE
  8
0
 10
2.51938
 20
97.385
 11
2.6731
 21
97.0583
  0
LINE
  8
0
 10
2.6731
 20
97.0583
 11
2.78467
 21
96.715
  0
LINE
  8
0
 10
2.78467
 20
96.715
 11
2.85233
 21
96.3603
  0
LINE
  8
0
 10
2.85233
 20
96.3603
 11
2.875
 21
96
  0
LINE
  8
0
 10
2.875
 20
96
 11
2.85233
 21
95.6397
  0
LINE
  8
0
 10
2.85233
 20
95.6397
 11
2.78467
 21
95.285
  0
LINE
  8
0
 10
2.78467
 20
95.285
 11
2.6731
 21
94.9417
  0
LINE
  8
0
 10
2.6731
 20
94.9417
 11
2.51938
 21
94.615
  0
LINE
  8
0
 10
2.51938
 20
94.615
 11
2.32591
 21
94.3101
  0
LINE
  8
0
 10
2.32591
 20
94.3101
 11
2.09578
 21
94.0319
  0
LINE
  8
0
 10
2.09578
 20
94.0319
 11
1.83258
 21
93.7848
  0
LINE
  8
0
 10
1.83258
 20
93.7848
 11
1.5405
 21
93.5726
  0
LINE
  8
0
 10
1.5405
 20
93.5726
 11
1.22411
 21
93.3986
  0
LINE
  8
0
 10
1.22411
 20
93.3986
 11
0.888412
 21
93.2657
  0
LINE
  8
0
 10
0.888412
 20
93.2657
 11
0.538712
 21
93.1759
  0
LINE
  8
0
 10
0.538712
 20
93.1759
 11
0.180511
 21
93.1307
  0
LINE
  8
0
 10
0.180511
 20
93.1307
 11
-0.180511
 21
93.1307
  0
LINE
  8
0
 10
-0.180511
 20
69.1307
 11
-0.538712
 21
69.1759
  0
LINE
  8
0
 10
-0.538712
 20
69.1759
 11
-0.888412
 21
69.2657
  0
LINE
  8
0
 10
-0.888412
 20
69.2657
 11
-1.22411
 21
69.3986
  0
LINE
  8
0
 10
-1.22411
 20
69.3986
 11
-1.5405
 21
69.5726
  0
LINE
  8
0
 10
-1.5405
 20
69.5726
 11
-1.83258
 21
69.7848
  0
LINE
  8
0
 10
-1.83258
 20
69.7848
 11
-2.09578
 21
70.0319
  0
LINE
  8
0
 10
-2.09578
 20
70.0319
 11
-2.32591
 21
70.3101
  0
LINE
  8
0
 10
-2.32591
 20
70.3101
 11
-2.51938
 21
70.615
  0
LINE
  8
0
 10
-2.51938
 20
70.615
 11
-2.6731
 21
70.9417
  0
LINE
  8
0
 10
-2.6731
 20
70.9417
 11
-2.78467
 21
71.285
  0
LINE
  8
0
 10
-2.78467
 20
71.285
 11
-2.85233
 21
71.6397
  0
LINE
  8
0
 10
-2.85233
 20
71.6397
 11
-2.875
 21
72
  0
LINE
  8
0
 10
-2.875
 20
72
 11
-2.85233
 21
72.3603
  0
LINE
  8
0
 10
-2.85233
 20
72.3603
 11
-2.78467
 21
72.715
  0
LINE
  8
0
 10
-2.78467
 20
72.715
 11
-2.6731
 21
73.0583
  0
LINE
  8
0
 10
-2.6731
 20
73.0583
 11
-2.51938
 21
73.385
  0
LINE
  8
0
 10
-2.51938
 20
73.385
 11
-2.32591
 21
73.6899
  0
LINE
  8
0
 10
-2.32591
 20
73.6899
 11
-2.09578
 21
73.9681
  0
LINE
  8
0
 10
-2.09578
 20
73.9681
 11
-1.83258
 21
74.2152
  0
LINE
  8
0
 10
-1.83258
 20
74.2152
 11
-1.5405
 21
74.4274
  0
LINE
  8
0
 10
-1.5405
 20
74.4274
 11
-1.22411
 21
74.6014
  0
LINE
  8
0
 10
-1.22411
 20
74.6014
 11
-0.888412
 21
74.7343
  0
LINE
  8
0
 10
-0.888412
 20
74.7343
 11
-0.538712
 21
74.8241
  0
LINE
  8
0
 10
-0.538712
 20
74.8241
 11
-0.180511
 21
74.8693
  0
LINE
  8
0
 10
-0.180511
 20
74.8693
 11
0.180511
 21
74.8693
  0
LINE
  8
0
 10
0.180511
 20
74.8693
 11
0.538712
 21
74.8241
  0
LINE
  8
0
 10
0.538712
 20
74.8241
 11
0.888412
 21
74.7343
  0
LINE
  8
0
 10
0.888412
 20
74.7343
 11
1.22411
 21
74.6014
  0
LINE
  8
0
 10
1.22411
 20
74.6014
 11
1.5405
 21
74.4274
  0
LINE
  8
0
 10
1.5405
 20
74.4274
 11
1.83258
 21
74.2152
  0
LINE
  8
0
 10
1.83258
 20
74.2152
 11
2.09578
 21
73.9681
  0
LINE
  8
0
 10
2.09578
 20
73.9681
 11
2.32591
 21
73.6899
  0
LINE
  8
0
 10
2.32591
 20
73.6899
 11
2.51938
 21
73.385
  0
LINE
  8
0
 10
2.51938
 20
73.385
 11
2.6731
 21
73.0583
  0
LINE
  8
0
 10
2.6731
 20
73.0583
 11
2.78467
 21
72.715
  0
LINE
  8
0
 10
2.78467
 20
72.715
 11
2.85233
 21
72.3603
  0
LINE
  8
0
 10
2.85233
 20
72.3603
 11
2.875
 21
72
  0
LINE
  8
0
 10
2.875
 20
72
 11
2.85233
 21
71.6397
  0
LINE
  8
0
 10
2.85233
 20
71.6397
 11
2.78467
 21
71.285
  0
LINE
  8
0
 10
2.78467
 20
71.285
 11
2.6731
 21
70.9417
  0
LINE
  8
0
 10
2.6731
 20
70.9417
 11
2.51938
 21
70.615
  0
LINE
  8
0
 10
2.51938
 20
70.615
 11
2.32591
 21
70.3101
  0
LINE
  8
0
 10
2.32591
 20
70.3101
 11
2.09578
 21
70.0319
  0
LINE
  8
0
 10
2.09578
 20
70.0319
 11
1.83258
 21
69.7848
  0
LINE
  8
0
 10
1.83258
 20
69.7848
 11
1.5405
 21
69.5726
  0
LINE
  8
0
 10
1.5405
 20
69.5726
 11
1.22411
 21
69.3986
  0
LINE
  8
0
 10
1.22411
 20
69.3986
 11
0.888412
 21
69.2657
  0
LINE
  8
0
 10
0.888412
 20
69.2657
 11
0.538712
 21
69.1759
  0
LINE
  8
0
 10
0.538712
 20
69.1759
 11
0.180511
 21
69.1307
  0
LINE
  8
0
 10
0.180511
 20
69.1307
 11
-0.180511
 21
69.1307
  0
LINE
  8
0
 10
-0.180511
 20
45.1307
 11
-0.538712
 21
45.1759
  0
LINE
  8
0
 10
-0.538712
 20
45.1759
 11
-0.888412
 21
45.2657
  0
LINE
  8
0
 10
-0.888412
 20
45.2657
 11
-1.22411
 21
45.3986
  0
LINE
  8
0
 10
-1.22411
 20
45.3986
 11
-1.5405
 21
45.5726
  0
LINE
  8
0
 10
-1.5405
 20
45.5726
 11
-1.83258
 21
45.7848
  0
LINE
  8
0
 10
-1.83258
 20
45.7848
 11
-2.09578
 21
46.0319
  0
LINE
  8
0
 10
-2.09578
 20
46.0319
 11
-2.32591
 21
46.3101
  0
LINE
  8
0
 10
-2.32591
 20
46.3101
 11
-2.51938
 21
46.615
  0
LINE
  8
0
 10
-2.51938
 20
46.615
 11
-2.6731
 21
46.9417
  0
LINE
  8
0
 10
-2.6731
 20
46.9417
 11
-2.78467
 21
47.285
  0
LINE
  8
0
 10
-2.78467
 20
47.285
 11
-2.85233
 21
47.6397
  0
LINE
  8
0
 10
-2.85233
 20
47.6397
 11
-2.875
 21
48
  0
LINE
  8
0
 10
-2.875
 20
48
 11
-2.85233
 21
48.3603
  0
LINE
  8
0
 10
-2.85233
 20
48.3603
 11
-2.78467
 21
48.715
  0
LINE
  8
0
 10
-2.78467
 20
48.715
 11
-2.6731
 21
49.0583
  0
LINE
  8
0
 10
-2.6731
 20
49.0583
 11
-2.51938
 21
49.385
  0
LINE
  8
0
 10
-2.51938
 20
49.385
 11
-2.32591
 21
49.6899
  0
LINE
  8
0
 10
-2.32591
 20
49.6899
 11
-2.09578
 21
49.9681
  0
LINE
  8
0
 10
-2.09578
 20
49.9681
 11
-1.83258
 21
50.2152
  0
LINE
  8
0
 10
-1.83258
 20
50.2152
 11
-1.5405
 21
50.4274
  0
LINE
  8
0
 10
-1.5405
 20
50.4274
 11
-1.22411
 21
50.6014
  0
LINE
  8
0
 10
-1.22411
 20
50.6014
 11
-0.888412
 21
50.7343
  0
LINE
  8
0
 10
-0.888412
 20
50.7343
 11
-0.538712
 21
50.8241
  0
LINE
  8
0
 10
-0.538712
 20
50.8241
 11
-0.180511
 21
50.8693
  0
LINE
  8
0
 10
-0.180511
 20
50.8693
 11
0.180511
 21
50.8693
  0
LINE
  8
0
 10
0.180511
 20
50.8693
 11
0.538712
 21
50.8241
  0
LINE
  8
0
 10
0.538712
 20
50.8241
 11
0.888412
 21
50.7343
  0
LINE
  8
0
 10
0.888412
 20
50.7343
 11
1.22411
 21
50.6014
  0
LINE
  8
0
 10
1.22411
 20
50.6014
 11
1.5405
 21
50.4274
  0
LINE
  8
0
 10
1.5405
 20
50.4274
 11
1.83258
 21
50.2152
  0
LINE
  8
0
 10
1.83258
 20
50.2152
 11
2.09578
 21
49.9681
  0
LINE
  8
0
 10
2.09578
 20
49.9681
 11
2.32591
 21
49.6899
  0
LINE
  8
0
 10
2.32591
 20
49.6899
 11
2.51938
 21
49.385
  0
LINE
  8
0
 10
2.51938
 20
49.385
 11
2.6731
 21
49.0583
  0
LINE
  8
0
 10
2.6731
 20
49.0583
 11
2.78467
 21
48.715
  0
LINE
  8
0
 10
2.78467
 20
48.715
 11
2.85233
 21
48.3603
  0
LINE
  8
0
 10
2.85233
 20
48.3603
 11
2.875
 21
48
  0
LINE
  8
0
 10
2.875
 20
48
 11
2.85233
 21
47.6397
  0
LINE
  8
0
 10
2.85233
 20
47.6397
 11
2.78467
 21
47.285
  0
LINE
  8
0
 10
2.78467
 20
47.285
 11
2.6731
 21
46.9417
  0
LINE
  8
0
 10
2.6731
 20
46.9417
 11
2.51938
 21
46.615
  0
LINE
  8
0
 10
2.51938
 20
46.615
 11
2.32591
 21
46.3101
  0
LINE
  8
0
 10
2.32591
 20
46.3101
 11
2.09578
 21
46.0319
  0
LINE
  8
0
 10
2.09578
 20
46.0319
 11
1.83258
 21
45.7848
  0
LINE
  8
0
 10
1.83258
 20
45.7848
 11
1.5405
 21
45.5726
  0
LINE
  8
0
 10
1.5405
 20
45.5726
 11
1.22411
 21
45.3986
  0
LINE
  8
0
 10
1.22411
 20
45.3986
 11
0.888412
 21
45.2657
  0
LINE
  8
0
 10
0.888412
 20
45.2657
 11
0.538712
 21
45.1759
  0
LINE
  8
0
 10
0.538712
 20
45.1759
 11
0.180511
 21
45.1307
  0
LINE
  8
0
 10
0.180511
 20
45.1307
 11
-0.180511
 21
45.1307
  0
LINE
  8
0
 10
-0.180511
 20
21.1307
 11
-0.538712
 21
21.1759
  0
LINE
  8
0
 10
-0.538712
 20
21.1759
 11
-0.888412
 21
21.2657
  0
LINE
  8
0
 10
-0.888412
 20
21.2657
 11
-1.22411
 21
21.3986
  0
LINE
  8
0
 10
-1.22411
 20
21.3986
 11
-1.5405
 21
21.5726
  0
LINE
  8
0
 10
-1.5405
 20
21.5726
 11
-1.83258
 21
21.7848
  0
LINE
  8
0
 10
-1.83258
 20
21.7848
 11
-2.09578
 21
22.0319
  0
LINE
  8
0
 10
-2.09578
 20
22.0319
 11
-2.32591
 21
22.3101
  0
LINE
  8
0
 10
-2.32591
 20
22.3101
 11
-2.51938
 21
22.615
  0
LINE
  8
0
 10
-2.51938
 20
22.615
 11
-2.6731
 21
22.9417
  0
LINE
  8
0
 10
-2.6731
 20
22.9417
 11
-2.78467
 21
23.285
  0
LINE
  8
0
 10
-2.78467
 20
23.285
 11
-2.85233
 21
23.6397
  0
LINE
  8
0
 10
-2.85233
 20
23.6397
 11
-2.875
 21
24
  0
LINE
  8
0
 10
-2.875
 20
24
 11
-2.85233
 21
24.3603
  0
LINE
  8
0
 10
-2.85233
 20
24.3603
 11
-2.78467
 21
24.715
  0
LINE
  8
0
 10
-2.78467
 20
24.715
 11
-2.6731
 21
25.0583
  0
LINE
  8
0
 10
-2.6731
 20
25.0583
 11
-2.51938
 21
25.385
  0
LINE
  8
0
 10
-2.51938
 20
25.385
 11
-2.32591
 21
25.6899
  0
LINE
  8
0
 10
-2.32591
 20
25.6899
 11
-2.09578
 21
25.9681
  0
LINE
  8
0
 10
-2.09578
 20
25.9681
 11
-1.83258
 21
26.2152
  0
LINE
  8
0
 10
-1.83258
 20
26.2152
 11
-1.5405
 21
26.4274
  0
LINE
  8
0
 10
-1.5405
 20
26.4274
 11
-1.22411
 21
26.6014
  0
LINE
  8
0
 10
-1.22411
 20
26.6014
 11
-0.888412
 21
26.7343
  0
LINE
  8
0
 10
-0.888412
 20
26.7343
 11
-0.538712
 21
26.8241
  0
LINE
  8
0
 10
-0.538712
 20
26.8241
 11
-0.180511
 21
26.8693
  0
LINE
  8
0
 10
-0.180511
 20
26.8693
 11
0.180511
 21
26.8693
  0
LINE
  8
0
 10
0.180511
 20
26.8693
 11
0.538712
 21
26.8241
  0
LINE
  8
0
 10
0.538712
 20
26.8241
 11
0.888412
 21
26.7343
  0
LINE
  8
0
 10
0.888412
 20
26.7343
 11
1.22411
 21
26.6014
  0
LINE
  8
0
 10
1.22411
 20
26.6014
 11
1.5405
 21
26.4274
  0
LINE
  8
0
 10
1.5405
 20
26.4274
 11
1.83258
 21
26.2152
  0
LINE
  8
0
 10
1.83258
 20
26.2152
 11
2.09578
 21
25.9681
  0
LINE
  8
0
 10
2.09578
 20
25.9681
 11
2.32591
 21
25.6899
  0
LINE
  8
0
 10
2.32591
 20
25.6899
 11
2.51938
 21
25.385
  0
LINE
  8
0
 10
2.51938
 20
25.385
 11
2.6731
 21
25.0583
  0
LINE
  8
0
 10
2.6731
 20
25.0583
 11
2.78467
 21
24.715
  0
LINE
  8
0
 10
2.78467
 20
24.715
 11
2.85233
 21
24.3603
  0
LINE
  8
0
 10
2.85233
 20
24.3603
 11
2.875
 21
24
  0
LINE
  8
0
 10
2.875
 20
24
 11
2.85233
 21
23.6397
  0
LINE
  8
0
 10
2.85233
 20
23.6397
 11
2.78467
 21
23.285
  0
LINE
  8
0
 10
2.78467
 20
23.285
 11
2.6731
 21
22.9417
  0
LINE
  8
0
 10
2.6731
 20
22.9417
 11
2.51938
 21
22.615
  0
LINE
  8
0
 10
2.51938
 20
22.615
 11
2.32591
 21
22.3101
  0
LINE
  8
0
 10
2.32591
 20
22.3101
 11
2.09578
 21
22.0319
  0
LINE
  8
0
 10
2.09578
 20
22.0319
 11
1.83258
 21
21.7848
  0
LINE
  8
0
 10
1.83258
 20
21.7848
 11
1.5405
 21
21.5726
  0
LINE
  8
0
 10
1.5405
 20
21.5726
 11
1.22411
 21
21.3986
  0
LINE
  8
0
 10
1.22411
 20
21.3986
 11
0.888412
 21
21.2657
  0
LINE
  8
0
 10
0.888412
 20
21.2657
 11
0.538712
 21
21.1759
  0
LINE
  8
0
 10
0.538712
 20
21.1759
 11
0.180511
 21
21.1307
  0
LINE
  8
0
 10
0.180511
 20
21.1307
 11
-0.180511
 21
21.1307
  0
LINE
  8
0
 10
-0.180511
 20
-2.86932
 11
-0.538712
 21
-2.82407
  0
LINE
  8
0
 10
-0.538712
 20
-2.82407
 11
-0.888412
 21
-2.73428
  0
LINE
  8
0
 10
-0.888412
 20
-2.73428
 11
-1.22411
 21
-2.60136
  0
LINE
  8
0
 10
-1.22411
 20
-2.60136
 11
-1.5405
 21
-2.42743
  0
LINE
  8
0
 10
-1.5405
 20
-2.42743
 11
-1.83258
 21
-2.21523
  0
LINE
  8
0
 10
-1.83258
 20
-2.21523
 11
-2.09578
 21
-1.96806
  0
LINE
  8
0
 10
-2.09578
 20
-1.96806
 11
-2.32591
 21
-1.68988
  0
LINE
  8
0
 10
-2.32591
 20
-1.68988
 11
-2.51938
 21
-1.38504
  0
LINE
  8
0
 10
-2.51938
 20
-1.38504
 11
-2.6731
 21
-1.05835
  0
LINE
  8
0
 10
-2.6731
 20
-1.05835
 11
-2.78467
 21
-0.714981
  0
LINE
  8
0
 10
-2.78467
 20
-0.714981
 11
-2.85233
 21
-0.360321
  0
LINE
  8
0
 10
-2.85233
 20
-0.360321
 11
-2.875
 21
0
  0
LINE
  8
0
 10
-2.875
 20
0
 11
-2.85233
 21
0.360321
  0
LINE
  8
0
 10
-2.85233
 20
0.360321
 11
-2.78467
 21
0.714981
  0
LINE
  8
0
 10
-2.78467
 20
0.714981
 11
-2.6731
 21
1.05835
  0
LINE
  8
0
 10
-2.6731
 20
1.05835
 11
-2.51938
 21
1.38504
  0
LINE
  8
0
 10
-2.51938
 20
1.38504
 11
-2.32591
 21
1.68988
  0
LINE
  8
0
 10
-2.32591
 20
1.68988
 11
-2.09578
 21
1.96806
  0
LINE
  8
0
 10
-2.09578
 20
1.96806
 11
-1.83258
 21
2.21523
  0
LINE
  8
0
 10
-1.83258
 20
2.21523
 11
-1.5405
 21
2.42743
  0
LINE
  8
0
 10
-1.5405
 20
2.42743
 11
-1.22411
 21
2.60136
  0
LINE
  8
0
 10
-1.22411
 20
2.60136
 11
-0.888412
 21
2.73428
  0
LINE
  8
0
 10
-0.888412
 20
2.73428
 11
-0.538712
 21
2.82407
  0
LINE
  8
0
 10
-0.538712
 20
2.82407
 11
-0.180511
 21
2.86932
  0
LINE
  8
0
 10
-0.180511
 20
2.86932
 11
0.180511
 21
2.86932
  0
LINE
  8
0
 10
0.180511
 20
2.86932
 11
0.538712
 21
2.82407
  0
LINE
  8
0
 10
0.538712
 20
2.82407
 11
0.888412
 21
2.73428
  0
LINE
  8
0
 10
0.888412
 20
2.73428
 11
1.22411
 21
2.60136
  0
LINE
  8
0
 10
1.22411
 20
2.60136
 11
1.5405
 21
2.42743
  0
LINE
  8
0
 10
1.5405
 20
2.42743
 11
1.83258
 21
2.21523
  0
LINE
  8
0
 10
1.83258
 20
2.21523
 11
2.09578
 21
1.96806
  0
LINE
  8
0
 10
2.09578
 20
1.96806
 11
2.32591
 21
1.68988
  0
LINE
  8
0
 10
2.32591
 20
1.68988
 11
2.51938
 21
1.38504
  0
LINE
  8
0
 10
2.51938
 20
1.38504
 11
2.6731
 21
1.05835
  0
LINE
  8
0
 10
2.6731
 20
1.05835
 11
2.78467
 21
0.714981
  0
LINE
  8
0
 10
2.78467
 20
0.714981
 11
2.85233
 21
0.360321
  0
LINE
  8
0
 10
2.85233
 20
0.360321
 11
2.875
 21
0
  0
LINE
  8
0
 10
2.875
 20
0
 11
2.85233
 21
-0.360321
  0
LINE
  8
0
 10
2.85233
 20
-0.360321
 11
2.78467
 21
-0.714981
  0
LINE
  8
0
 10
2.78467
 20
-0.714981
 11
2.6731
 21
-1.05835
  0
LINE
  8
0
 10
2.6731
 20
-1.05835
 11
2.51938
 21
-1.38504
  0
LINE
  8
0
 10
2.51938
 20
-1.38504
 11
2.32591
 21
-1.68988
  0
LINE
  8
0
 10
2.32591
 20
-1.68988
 11
2.09578
 21
-1.96806
  0
LINE
  8
0
 10
2.09578
 20
-1.96806
 11
1.83258
 21
-2.21523
  0
LINE
  8
0
 10
1.83258
 20
-2.21523
 11
1.5405
 21
-2.42743
  0
LINE
  8
0
 10
1.5405
 20
-2.42743
 11
1.22411
 21
-2.60136
  0
LINE
  8
0
 10
1.22411
 20
-2.60136
 11
0.888412
 21
-2.73428
  0
LINE
  8
0
 10
0.888412
 20
-2.73428
 11
0.538712
 21
-2.82407
  0
LINE
  8
0
 10
0.538712
 20
-2.82407
 11
0.180511
 21
-2.86932
  0
LINE
  8
0
 10
0.180511
 20
-2.86932
 11
-0.180511
 21
-2.86932
  0
ENDSEC
  0
SECTION
  2
OBJECTS
  0
DICTIONARY
  0
ENDSEC
  0
EOF
