<?xml version="1.0" standalone="no"?>
<!DOCTYPE svg PUBLIC "-//W3C//DTD SVG 1.1//EN" "http://www.w3.org/Graphics/SVG/1.1/DTD/svg11.dtd">
<svg width="16mm" height="328mm" viewBox="-8 -320 16 328" xmlns="http://www.w3.org/2000/svg" version="1.1">
<title>OpenSCAD Model</title>
<path d="
M 1.40535,-304.633 L 2.31763,-304.867 L 3.19334,-305.214 L 4.01869,-305.668 L 4.78067,-306.221 L 5.46725,-306.866
 L 6.06763,-307.592 L 6.5723,-308.387 L 6.97331,-309.239 L 7.26436,-310.135 L 7.44086,-311.06 L 7.5,-312
 L 7.44086,-312.94 L 7.26436,-313.865 L 6.97331,-314.761 L 6.5723,-315.613 L 6.06763,-316.408 L 5.46725,-317.134
 L 4.78067,-317.779 L 4.01869,-318.332 L 3.19334,-318.786 L 2.31763,-319.133 L 1.40535,-319.367 L 0.470917,-319.485
 L -0.470917,-319.485 L -1.40535,-319.367 L -2.31763,-319.133 L -3.19334,-318.786 L -4.01869,-318.332 L -4.78067,-317.779
 L -5.46725,-317.134 L -6.06763,-316.408 L -6.5723,-315.613 L -6.97331,-314.761 L -7.26436,-313.865 L -7.44086,-312.94
 L -7.5,-312 L -7.44086,-311.06 L -7.26436,-310.135 L -6.97331,-309.239 L -6.5723,-308.387 L -6.06763,-307.592
 L -5.46725,-306.866 L -4.78067,-306.221 L -4.01869,-305.668 L -3.19334,-305.214 L -2.31763,-304.867 L -1.40535,-304.633
 L -0.470917,-304.515 L 0.470917,-304.515 z
M -0.229599,-308.35 L -0.685196,-308.408 L -1.12999,-308.522 L -1.55696,-308.691 L -1.95938,-308.913 L -2.3309,-309.182
 L -2.66565,-309.497 L -2.95837,-309.851 L -3.20444,-310.238 L -3.39996,-310.654 L -3.54187,-311.091 L -3.62791,-311.542
 L -3.65675,-312 L -3.62791,-312.458 L -3.54187,-312.909 L -3.39996,-313.346 L -3.20444,-313.762 L -2.95837,-314.149
 L -2.66565,-314.503 L -2.3309,-314.818 L -1.95938,-315.087 L -1.55696,-315.309 L -1.12999,-315.478 L -0.685196,-315.592
 L -0.229599,-315.65 L 0.229599,-315.65 L 0.685196,-315.592 L 1.12999,-315.478 L 1.55696,-315.309 L 1.95938,-315.087
 L 2.3309,-314.818 L 2.66565,-314.503 L 2.95837,-314.149 L 3.20444,-313.762 L 3.39996,-313.346 L 3.54187,-312.909
 L 3.62791,-312.458 L 3.65675,-312 L 3.62791,-311.542 L 3.54187,-311.091 L 3.39996,-310.654 L 3.20444,-310.238
 L 2.95837,-309.851 L 2.66565,-309.497 L 2.3309,-309.182 L 1.95938,-308.913 L 1.55696,-308.691 L 1.12999,-308.522
 L 0.685196,-308.408 L 0.229599,-308.35 z
M 1.40535,-280.633 L 2.31763,-280.867 L 3.19334,-281.214 L 4.01869,-281.668 L 4.78067,-282.221 L 5.46725,-282.866
 L 6.06763,-283.592 L 6.5723,-284.387 L 6.97331,-285.239 L 7.26436,-286.135 L 7.44086,-287.06 L 7.5,-288
 L 7.44086,-288.94 L 7.26436,-289.865 L 6.97331,-290.761 L 6.5723,-291.613 L 6.06763,-292.408 L 5.46725,-293.134
 L 4.78067,-293.779 L 4.01869,-294.332 L 3.19334,-294.786 L 2.31763,-295.133 L 1.40535,-295.367 L 0.470917,-295.485
 L -0.470917,-295.485 L -1.40535,-295.367 L -2.31763,-295.133 L -3.19334,-294.786 L -4.01869,-294.332 L -4.78067,-293.779
 L -5.46725,-293.134 L -6.06763,-292.408 L -6.5723,-291.613 L -6.97331,-290.761 L -7.26436,-289.865 L -7.44086,-288.94
 L -7.5,-288 L -7.44086,-287.06 L -7.26436,-286.135 L -6.97331,-285.239 L -6.5723,-284.387 L -6.06763,-283.592
 L -5.46725,-282.866 L -4.78067,-282.221 L -4.01869,-281.668 L -3.19334,-281.214 L -2.31763,-280.867 L -1.40535,-280.633
 L -0.470917,-280.515 L 0.470917,-280.515 z
M -0.180511,-285.131 L -0.538712,-285.176 L -0.888412,-285.266 L -1.22411,-285.399 L -1.5405,-285.573 L -1.83258,-285.785
 L -2.09578,-286.032 L -2.32591,-286.31 L -2.51938,-286.615 L -2.6731,-286.942 L -2.78467,-287.285 L -2.85233,-287.64
 L -2.875,-288 L -2.85233,-288.36 L -2.78467,-288.715 L -2.6731,-289.058 L -2.51938,-289.385 L -2.32591,-289.69
 L -2.09578,-289.968 L -1.83258,-290.215 L -1.5405,-290.427 L -1.22411,-290.601 L -0.888412,-290.734 L -0.538712,-290.824
 L -0.180511,-290.869 L 0.180511,-290.869 L 0.538712,-290.824 L 0.888412,-290.734 L 1.22411,-290.601 L 1.5405,-290.427
 L 1.83258,-290.215 L 2.09578,-289.968 L 2.32591,-289.69 L 2.51938,-289.385 L 2.6731,-289.058 L 2.78467,-288.715
 L 2.85233,-288.36 L 2.875,-288 L 2.85233,-287.64 L 2.78467,-287.285 L 2.6731,-286.942 L 2.51938,-286.615
 L 2.32591,-286.31 L 2.09578,-286.032 L 1.83258,-285.785 L 1.5405,-285.573 L 1.22411,-285.399 L 0.888412,-285.266
 L 0.538712,-285.176 L 0.180511,-285.131 z
M 1.40535,-256.633 L 2.31763,-256.867 L 3.19334,-257.214 L 4.01869,-257.668 L 4.78067,-258.221 L 5.46725,-258.866
 L 6.06763,-259.592 L 6.5723,-260.387 L 6.97331,-261.239 L 7.26436,-262.135 L 7.44086,-263.06 L 7.5,-264
 L 7.44086,-264.94 L 7.26436,-265.865 L 6.97331,-266.761 L 6.5723,-267.613 L 6.06763,-268.408 L 5.46725,-269.134
 L 4.78067,-269.779 L 4.01869,-270.332 L 3.19334,-270.786 L 2.31763,-271.133 L 1.40535,-271.367 L 0.470917,-271.485
 L -0.470917,-271.485 L -1.40535,-271.367 L -2.31763,-271.133 L -3.19334,-270.786 L -4.01869,-270.332 L -4.78067,-269.779
 L -5.46725,-269.134 L -6.06763,-268.408 L -6.5723,-267.613 L -6.97331,-266.761 L -7.26436,-265.865 L -7.44086,-264.94
 L -7.5,-264 L -7.44086,-263.06 L -7.26436,-262.135 L -6.97331,-261.239 L -6.5723,-260.387 L -6.06763,-259.592
 L -5.46725,-258.866 L -4.78067,-258.221 L -4.01869,-257.668 L -3.19334,-257.214 L -2.31763,-256.867 L -1.40535,-256.633
 L -0.470917,-256.515 L 0.470917,-256.515 z
M -0.180511,-261.131 L -0.538712,-261.176 L -0.888412,-261.266 L -1.22411,-261.399 L -1.5405,-261.573 L -1.83258,-261.785
 L -2.09578,-262.032 L -2.32591,-262.31 L -2.51938,-262.615 L -2.6731,-262.942 L -2.78467,-263.285 L -2.85233,-263.64
 L -2.875,-264 L -2.85233,-264.36 L -2.78467,-264.715 L -2.6731,-265.058 L -2.51938,-265.385 L -2.32591,-265.69
 L -2.09578,-265.968 L -1.83258,-266.215 L -1.5405,-266.427 L -1.22411,-266.601 L -0.888412,-266.734 L -0.538712,-266.824
 L -0.180511,-266.869 L 0.180511,-266.869 L 0.538712,-266.824 L 0.888412,-266.734 L 1.22411,-266.601 L 1.5405,-266.427
 L 1.83258,-266.215 L 2.09578,-265.968 L 2.32591,-265.69 L 2.51938,-265.385 L 2.6731,-265.058 L 2.78467,-264.715
 L 2.85233,-264.36 L 2.875,-264 L 2.85233,-263.64 L 2.78467,-263.285 L 2.6731,-262.942 L 2.51938,-262.615
 L 2.32591,-262.31 L 2.09578,-262.032 L 1.83258,-261.785 L 1.5405,-261.573 L 1.22411,-261.399 L 0.888412,-261.266
 L 0.538712,-261.176 L 0.180511,-261.131 z
M 1.40535,-232.633 L 2.31763,-232.867 L 3.19334,-233.214 L 4.01869,-233.668 L 4.78067,-234.221 L 5.46725,-234.866
 L 6.06763,-235.592 L 6.5723,-236.387 L 6.97331,-237.239 L 7.26436,-238.135 L 7.44086,-239.06 L 7.5,-240
 L 7.44086,-240.94 L 7.26436,-241.865 L 6.97331,-242.761 L 6.5723,-243.613 L 6.06763,-244.408 L 5.46725,-245.134
 L 4.78067,-245.779 L 4.01869,-246.332 L 3.19334,-246.786 L 2.31763,-247.133 L 1.40535,-247.367 L 0.470917,-247.485
 L -0.470917,-247.485 L -1.40535,-247.367 L -2.31763,-247.133 L -3.19334,-246.786 L -4.01869,-246.332 L -4.78067,-245.779
 L -5.46725,-245.134 L -6.06763,-244.408 L -6.5723,-243.613 L -6.97331,-242.761 L -7.26436,-241.865 L -7.44086,-240.94
 L -7.5,-240 L -7.44086,-239.06 L -7.26436,-238.135 L -6.97331,-237.239 L -6.5723,-236.387 L -6.06763,-235.592
 L -5.46725,-234.866 L -4.78067,-234.221 L -4.01869,-233.668 L -3.19334,-233.214 L -2.31763,-232.867 L -1.40535,-232.633
 L -0.470917,-232.515 L 0.470917,-232.515 z
M -0.180511,-237.131 L -0.538712,-237.176 L -0.888412,-237.266 L -1.22411,-237.399 L -1.5405,-237.573 L -1.83258,-237.785
 L -2.09578,-238.032 L -2.32591,-238.31 L -2.51938,-238.615 L -2.6731,-238.942 L -2.78467,-239.285 L -2.85233,-239.64
 L -2.875,-240 L -2.85233,-240.36 L -2.78467,-240.715 L -2.6731,-241.058 L -2.51938,-241.385 L -2.32591,-241.69
 L -2.09578,-241.968 L -1.83258,-242.215 L -1.5405,-242.427 L -1.22411,-242.601 L -0.888412,-242.734 L -0.538712,-242.824
 L -0.180511,-242.869 L 0.180511,-242.869 L 0.538712,-242.824 L 0.888412,-242.734 L 1.22411,-242.601 L 1.5405,-242.427
 L 1.83258,-242.215 L 2.09578,-241.968 L 2.32591,-241.69 L 2.51938,-241.385 L 2.6731,-241.058 L 2.78467,-240.715
 L 2.85233,-240.36 L 2.875,-240 L 2.85233,-239.64 L 2.78467,-239.285 L 2.6731,-238.942 L 2.51938,-238.615
 L 2.32591,-238.31 L 2.09578,-238.032 L 1.83258,-237.785 L 1.5405,-237.573 L 1.22411,-237.399 L 0.888412,-237.266
 L 0.538712,-237.176 L 0.180511,-237.131 z
M 1.40535,-208.633 L 2.31763,-208.867 L 3.19334,-209.214 L 4.01869,-209.668 L 4.78067,-210.221 L 5.46725,-210.866
 L 6.06763,-211.592 L 6.5723,-212.387 L 6.97331,-213.239 L 7.26436,-214.135 L 7.44086,-215.06 L 7.5,-216
 L 7.44086,-216.94 L 7.26436,-217.865 L 6.97331,-218.761 L 6.5723,-219.613 L 6.06763,-220.408 L 5.46725,-221.134
 L 4.78067,-221.779 L 4.01869,-222.332 L 3.19334,-222.786 L 2.31763,-223.133 L 1.40535,-223.367 L 0.470917,-223.485
 L -0.470917,-223.485 L -1.40535,-223.367 L -2.31763,-223.133 L -3.19334,-222.786 L -4.01869,-222.332 L -4.78067,-221.779
 L -5.46725,-221.134 L -6.06763,-220.408 L -6.5723,-219.613 L -6.97331,-218.761 L -7.26436,-217.865 L -7.44086,-216.94
 L -7.5,-216 L -7.44086,-215.06 L -7.26436,-214.135 L -6.97331,-213.239 L -6.5723,-212.387 L -6.06763,-211.592
 L -5.46725,-210.866 L -4.78067,-210.221 L -4.01869,-209.668 L -3.19334,-209.214 L -2.31763,-208.867 L -1.40535,-208.633
 L -0.470917,-208.515 L 0.470917,-208.515 z
M -0.180511,-213.131 L -0.538712,-213.176 L -0.888412,-213.266 L -1.22411,-213.399 L -1.5405,-213.573 L -1.83258,-213.785
 L -2.09578,-214.032 L -2.32591,-214.31 L -2.51938,-214.615 L -2.6731,-214.942 L -2.78467,-215.285 L -2.85233,-215.64
 L -2.875,-216 L -2.85233,-216.36 L -2.78467,-216.715 L -2.6731,-217.058 L -2.51938,-217.385 L -2.32591,-217.69
 L -2.09578,-217.968 L -1.83258,-218.215 L -1.5405,-218.427 L -1.22411,-218.601 L -0.888412,-218.734 L -0.538712,-218.824
 L -0.180511,-218.869 L 0.180511,-218.869 L 0.538712,-218.824 L 0.888412,-218.734 L 1.22411,-218.601 L 1.5405,-218.427
 L 1.83258,-218.215 L 2.09578,-217.968 L 2.32591,-217.69 L 2.51938,-217.385 L 2.6731,-217.058 L 2.78467,-216.715
 L 2.85233,-216.36 L 2.875,-216 L 2.85233,-215.64 L 2.78467,-215.285 L 2.6731,-214.942 L 2.51938,-214.615
 L 2.32591,-214.31 L 2.09578,-214.032 L 1.83258,-213.785 L 1.5405,-213.573 L 1.22411,-213.399 L 0.888412,-213.266
 L 0.538712,-213.176 L 0.180511,-213.131 z
M 1.40535,-184.633 L 2.31763,-184.867 L 3.19334,-185.214 L 4.01869,-185.668 L 4.78067,-186.221 L 5.46725,-186.866
 L 6.06763,-187.592 L 6.5723,-188.387 L 6.97331,-189.239 L 7.26436,-190.135 L 7.44086,-191.06 L 7.5,-192
 L 7.44086,-192.94 L 7.26436,-193.865 L 6.97331,-194.761 L 6.5723,-195.613 L 6.06763,-196.408 L 5.46725,-197.134
 L 4.78067,-197.779 L 4.01869,-198.332 L 3.19334,-198.786 L 2.31763,-199.133 L 1.40535,-199.367 L 0.470917,-199.485
 L -0.470917,-199.485 L -1.40535,-199.367 L -2.31763,-199.133 L -3.19334,-198.786 L -4.01869,-198.332 L -4.78067,-197.779
 L -5.46725,-197.134 L -6.06763,-196.408 L -6.5723,-195.613 L -6.97331,-194.761 L -7.26436,-193.865 L -7.44086,-192.94
 L -7.5,-192 L -7.44086,-191.06 L -7.26436,-190.135 L -6.97331,-189.239 L -6.5723,-188.387 L -6.06763,-187.592
 L -5.46725,-186.866 L -4.78067,-186.221 L -4.01869,-185.668 L -3.19334,-185.214 L -2.31763,-184.867 L -1.40535,-184.633
 L -0.470917,-184.515 L 0.470917,-184.515 z
M -0.180511,-189.131 L -0.538712,-189.176 L -0.888412,-189.266 L -1.22411,-189.399 L -1.5405,-189.573 L -1.83258,-189.785
 L -2.09578,-190.032 L -2.32591,-190.31 L -2.51938,-190.615 L -2.6731,-190.942 L -2.78467,-191.285 L -2.85233,-191.64
 L -2.875,-192 L -2.85233,-192.36 L -2.78467,-192.715 L -2.6731,-193.058 L -2.51938,-193.385 L -2.32591,-193.69
 L -2.09578,-193.968 L -1.83258,-194.215 L -1.5405,-194.427 L -1.22411,-194.601 L -0.888412,-194.734 L -0.538712,-194.824
 L -0.180511,-194.869 L 0.180511,-194.869 L 0.538712,-194.824 L 0.888412,-194.734 L 1.22411,-194.601 L 1.5405,-194.427
 L 1.83258,-194.215 L 2.09578,-193.968 L 2.32591,-193.69 L 2.51938,-193.385 L 2.6731,-193.058 L 2.78467,-192.715
 L 2.85233,-192.36 L 2.875,-192 L 2.85233,-191.64 L 2.78467,-191.285 L 2.6731,-190.942 L 2.51938,-190.615
 L 2.32591,-190.31 L 2.09578,-190.032 L 1.83258,-189.785 L 1.5405,-189.573 L 1.22411,-189.399 L 0.888412,-189.266
 L 0.538712,-189.176 L 0.180511,-189.131 z
M 1.40535,-160.633 L 2.31763,-160.867 L 3.19334,-161.214 L 4.01869,-161.668 L 4.78067,-162.221 L 5.46725,-162.866
 L 6.06763,-163.592 L 6.5723,-164.387 L 6.97331,-165.239 L 7.26436,-166.135 L 7.44086,-167.06 L 7.5,-168
 L 7.44086,-168.94 L 7.26436,-169.865 L 6.97331,-170.761 L 6.5723,-171.613 L 6.06763,-172.408 L 5.46725,-173.134
 L 4.78067,-173.779 L 4.01869,-174.332 L 3.19334,-174.786 L 2.31763,-175.133 L 1.40535,-175.367 L 0.470917,-175.485
 L -0.470917,-175.485 L -1.40535,-175.367 L -2.31763,-175.133 L -3.19334,-174.786 L -4.01869,-174.332 L -4.78067,-173.779
 L -5.46725,-173.134 L -6.06763,-172.408 L -6.5723,-171.613 L -6.97331,-170.761 L -7.26436,-169.865 L -7.44086,-168.94
 L -7.5,-168 L -7.44086,-167.06 L -7.26436,-166.135 L -6.97331,-165.239 L -6.5723,-164.387 L -6.06763,-163.592
 L -5.46725,-162.866 L -4.78067,-162.221 L -4.01869,-161.668 L -3.19334,-161.214 L -2.31763,-160.867 L -1.40535,-160.633
 L -0.470917,-160.515 L 0.470917,-160.515 z
M -0.180511,-165.131 L -0.538712,-165.176 L -0.888412,-165.266 L -1.22411,-165.399 L -1.5405,-165.573 L -1.83258,-165.785
 L -2.09578,-166.032 L -2.32591,-166.31 L -2.51938,-166.615 L -2.6731,-166.942 L -2.78467,-167.285 L -2.85233,-167.64
 L -2.875,-168 L -2.85233,-168.36 L -2.78467,-168.715 L -2.6731,-169.058 L -2.51938,-169.385 L -2.32591,-169.69
 L -2.09578,-169.968 L -1.83258,-170.215 L -1.5405,-170.427 L -1.22411,-170.601 L -0.888412,-170.734 L -0.538712,-170.824
 L -0.180511,-170.869 L 0.180511,-170.869 L 0.538712,-170.824 L 0.888412,-170.734 L 1.22411,-170.601 L 1.5405,-170.427
 L 1.83258,-170.215 L 2.09578,-169.968 L 2.32591,-169.69 L 2.51938,-169.385 L 2.6731,-169.058 L 2.78467,-168.715
 L 2.85233,-168.36 L 2.875,-168 L 2.85233,-167.64 L 2.78467,-167.285 L 2.6731,-166.942 L 2.51938,-166.615
 L 2.32591,-166.31 L 2.09578,-166.032 L 1.83258,-165.785 L 1.5405,-165.573 L 1.22411,-165.399 L 0.888412,-165.266
 L 0.538712,-165.176 L 0.180511,-165.131 z
M 1.40535,-136.633 L 2.31763,-136.867 L 3.19334,-137.214 L 4.01869,-137.668 L 4.78067,-138.221 L 5.46725,-138.866
 L 6.06763,-139.592 L 6.5723,-140.387 L 6.97331,-141.239 L 7.26436,-142.135 L 7.44086,-143.06 L 7.5,-144
 L 7.44086,-144.94 L 7.26436,-145.865 L 6.97331,-146.761 L 6.5723,-147.613 L 6.06763,-148.408 L 5.46725,-149.134
 L 4.78067,-149.779 L 4.01869,-150.332 L 3.19334,-150.786 L 2.31763,-151.133 L 1.40535,-151.367 L 0.470917,-151.485
 L -0.470917,-151.485 L -1.40535,-151.367 L -2.31763,-151.133 L -3.19334,-150.786 L -4.01869,-150.332 L -4.78067,-149.779
 L -5.46725,-149.134 L -6.06763,-148.408 L -6.5723,-147.613 L -6.97331,-146.761 L -7.26436,-145.865 L -7.44086,-144.94
 L -7.5,-144 L -7.44086,-143.06 L -7.26436,-142.135 L -6.97331,-141.239 L -6.5723,-140.387 L -6.06763,-139.592
 L -5.46725,-138.866 L -4.78067,-138.221 L -4.01869,-137.668 L -3.19334,-137.214 L -2.31763,-136.867 L -1.40535,-136.633
 L -0.470917,-136.515 L 0.470917,-136.515 z
M -0.180511,-141.131 L -0.538712,-141.176 L -0.888412,-141.266 L -1.22411,-141.399 L -1.5405,-141.573 L -1.83258,-141.785
 L -2.09578,-142.032 L -2.32591,-142.31 L -2.51938,-142.615 L -2.6731,-142.942 L -2.78467,-143.285 L -2.85233,-143.64
 L -2.875,-144 L -2.85233,-144.36 L -2.78467,-144.715 L -2.6731,-145.058 L -2.51938,-145.385 L -2.32591,-145.69
 L -2.09578,-145.968 L -1.83258,-146.215 L -1.5405,-146.427 L -1.22411,-146.601 L -0.888412,-146.734 L -0.538712,-146.824
 L -0.180511,-146.869 L 0.180511,-146.869 L 0.538712,-146.824 L 0.888412,-146.734 L 1.22411,-146.601 L 1.5405,-146.427
 L 1.83258,-146.215 L 2.09578,-145.968 L 2.32591,-145.69 L 2.51938,-145.385 L 2.6731,-145.058 L 2.78467,-144.715
 L 2.85233,-144.36 L 2.875,-144 L 2.85233,-143.64 L 2.78467,-143.285 L 2.6731,-142.942 L 2.51938,-142.615
 L 2.32591,-142.31 L 2.09578,-142.032 L 1.83258,-141.785 L 1.5405,-141.573 L 1.22411,-141.399 L 0.888412,-141.266
 L 0.538712,-141.176 L 0.180511,-141.131 z
M 1.40535,-112.633 L 2.31763,-112.867 L 3.19334,-113.214 L 4.01869,-113.668 L 4.78067,-114.221 L 5.46725,-114.866
 L 6.06763,-115.592 L 6.5723,-116.387 L 6.97331,-117.239 L 7.26436,-118.135 L 7.44086,-119.06 L 7.5,-120
 L 7.44086,-120.94 L 7.26436,-121.865 L 6.97331,-122.761 L 6.5723,-123.613 L 6.06763,-124.408 L 5.46725,-125.134
 L 4.78067,-125.779 L 4.01869,-126.332 L 3.19334,-126.786 L 2.31763,-127.133 L 1.40535,-127.367 L 0.470917,-127.485
 L -0.470917,-127.485 L -1.40535,-127.367 L -2.31763,-127.133 L -3.19334,-126.786 L -4.01869,-126.332 L -4.78067,-125.779
 L -5.46725,-125.134 L -6.06763,-124.408 L -6.5723,-123.613 L -6.97331,-122.761 L -7.26436,-121.865 L -7.44086,-120.94
 L -7.5,-120 L -7.44086,-119.06 L -7.26436,-118.135 L -6.97331,-117.239 L -6.5723,-116.387 L -6.06763,-115.592
 L -5.46725,-114.866 L -4.78067,-114.221 L -4.01869,-113.668 L -3.19334,-113.214 L -2.31763,-112.867 L -1.40535,-112.633
 L -0.470917,-112.515 L 0.470917,-112.515 z
M -0.180511,-117.131 L -0.538712,-117.176 L -0.888412,-117.266 L -1.22411,-117.399 L -1.5405,-117.573 L -1.83258,-117.785
 L -2.09578,-118.032 L -2.32591,-118.31 L -2.51938,-118.615 L -2.6731,-118.942 L -2.78467,-119.285 L -2.85233,-119.64
 L -2.875,-120 L -2.85233,-120.36 L -2.78467,-120.715 L -2.6731,-121.058 L -2.51938,-121.385 L -2.32591,-121.69
 L -2.09578,-121.968 L -1.83258,-122.215 L -1.5405,-122.427 L -1.22411,-122.601 L -0.888412,-122.734 L -0.538712,-122.824
 L -0.180511,-122.869 L 0.180511,-122.869 L 0.538712,-122.824 L 0.888412,-122.734 L 1.22411,-122.601 L 1.5405,-122.427
 L 1.83258,-122.215 L 2.09578,-121.968 L 2.32591,-121.69 L 2.51938,-121.385 L 2.6731,-121.058 L 2.78467,-120.715
 L 2.85233,-120.36 L 2.875,-120 L 2.85233,-119.64 L 2.78467,-119.285 L 2.6731,-118.942 L 2.51938,-118.615
 L 2.32591,-118.31 L 2.09578,-118.032 L 1.83258,-117.785 L 1.5405,-117.573 L 1.22411,-117.399 L 0.888412,-117.266
 L 0.538712,-117.176 L 0.180511,-117.131 z
M 1.40535,-88.6329 L 2.31763,-88.8671 L 3.19334,-89.2138 L 4.01869,-89.6675 L 4.78067,-90.2212 L 5.46725,-90.8659
 L 6.06763,-91.5916 L 6.5723,-92.3869 L 6.97331,-93.2391 L 7.26436,-94.1348 L 7.44086,-95.06 L 7.5,-96
 L 7.44086,-96.94 L 7.26436,-97.8652 L 6.97331,-98.7609 L 6.5723,-99.6131 L 6.06763,-100.408 L 5.46725,-101.134
 L 4.78067,-101.779 L 4.01869,-102.332 L 3.19334,-102.786 L 2.31763,-103.133 L 1.40535,-103.367 L 0.470917,-103.485
 L -0.470917,-103.485 L -1.40535,-103.367 L -2.31763,-103.133 L -3.19334,-102.786 L -4.01869,-102.332 L -4.78067,-101.779
 L -5.46725,-101.134 L -6.06763,-100.408 L -6.5723,-99.6131 L -6.97331,-98.7609 L -7.26436,-97.8652 L -7.44086,-96.94
 L -7.5,-96 L -7.44086,-95.06 L -7.26436,-94.1348 L -6.97331,-93.2391 L -6.5723,-92.3869 L -6.06763,-91.5916
 L -5.46725,-90.8659 L -4.78067,-90.2212 L -4.01869,-89.6675 L -3.19334,-89.2138 L -2.31763,-88.8671 L -1.40535,-88.6329
 L -0.470917,-88.5148 L 0.470917,-88.5148 z
M -0.180511,-93.1307 L -0.538712,-93.1759 L -0.888412,-93.2657 L -1.22411,-93.3986 L -1.5405,-93.5726 L -1.83258,-93.7848
 L -2.09578,-94.0319 L -2.32591,-94.3101 L -2.51938,-94.615 L -2.6731,-94.9417 L -2.78467,-95.285 L -2.85233,-95.6397
 L -2.875,-96 L -2.85233,-96.3603 L -2.78467,-96.715 L -2.6731,-97.0583 L -2.51938,-97.385 L -2.32591,-97.6899
 L -2.09578,-97.9681 L -1.83258,-98.2152 L -1.5405,-98.4274 L -1.22411,-98.6014 L -0.888412,-98.7343 L -0.538712,-98.8241
 L -0.180511,-98.8693 L 0.180511,-98.8693 L 0.538712,-98.8241 L 0.888412,-98.7343 L 1.22411,-98.6014 L 1.5405,-98.4274
 L 1.83258,-98.2152 L 2.09578,-97.9681 L 2.32591,-97.6899 L 2.51938,-97.385 L 2.6731,-97.0583 L 2.78467,-96.715
 L 2.85233,-96.3603 L 2.875,-96 L 2.85233,-95.6397 L 2.78467,-95.285 L 2.6731,-94.9417 L 2.51938,-94.615
 L 2.32591,-94.3101 L 2.09578,-94.0319 L 1.83258,-93.7848 L 1.5405,-93.5726 L 1.22411,-93.3986 L 0.888412,-93.2657
 L 0.538712,-93.1759 L 0.180511,-93.1307 z
M 1.40535,-64.6329 L 2.31763,-64.8671 L 3.19334,-65.2138 L 4.01869,-65.6675 L 4.78067,-66.2212 L 5.46725,-66.8659
 L 6.06763,-67.5916 L 6.5723,-68.3869 L 6.97331,-69.2391 L 7.26436,-70.1348 L 7.44086,-71.06 L 7.5,-72
 L 7.44086,-72.94 L 7.26436,-73.8652 L 6.97331,-74.7609 L 6.5723,-75.6131 L 6.06763,-76.4084 L 5.46725,-77.1341
 L 4.78067,-77.7788 L 4.01869,-78.3325 L 3.19334,-78.7862 L 2.31763,-79.1329 L 1.40535,-79.3671 L 0.470917,-79.4852
 L -0.470917,-79.4852 L -1.40535,-79.3671 L -2.31763,-79.1329 L -3.19334,-78.7862 L -4.01869,-78.3325 L -4.78067,-77.7788
 L -5.46725,-77.1341 L -6.06763,-76.4084 L -6.5723,-75.6131 L -6.97331,-74.7609 L -7.26436,-73.8652 L -7.44086,-72.94
 L -7.5,-72 L -7.44086,-71.06 L -7.26436,-70.1348 L -6.97331,-69.2391 L -6.5723,-68.3869 L -6.06763,-67.5916
 L -5.46725,-66.8659 L -4.78067,-66.2212 L -4.01869,-65.6675 L -3.19334,-65.2138 L -2.31763,-64.8671 L -1.40535,-64.6329
 L -0.470917,-64.5148 L 0.470917,-64.5148 z
M -0.180511,-69.1307 L -0.538712,-69.1759 L -0.888412,-69.2657 L -1.22411,-69.3986 L -1.5405,-69.5726 L -1.83258,-69.7848
 L -2.09578,-70.0319 L -2.32591,-70.3101 L -2.51938,-70.615 L -2.6731,-70.9417 L -2.78467,-71.285 L -2.85233,-71.6397
 L -2.875,-72 L -2.85233,-72.3603 L -2.78467,-72.715 L -2.6731,-73.0583 L -2.51938,-73.385 L -2.32591,-73.6899
 L -2.09578,-73.9681 L -1.83258,-74.2152 L -1.5405,-74.4274 L -1.22411,-74.6014 L -0.888412,-74.7343 L -0.538712,-74.8241
 L -0.180511,-74.8693 L 0.180511,-74.8693 L 0.538712,-74.8241 L 0.888412,-74.7343 L 1.22411,-74.6014 L 1.5405,-74.4274
 L 1.83258,-74.2152 L 2.09578,-73.9681 L 2.32591,-73.6899 L 2.51938,-73.385 L 2.6731,-73.0583 L 2.78467,-72.715
 L 2.85233,-72.3603 L 2.875,-72 L 2.85233,-71.6397 L 2.78467,-71.285 L 2.6731,-70.9417 L 2.51938,-70.615
 L 2.32591,-70.3101 L 2.09578,-70.0319 L 1.83258,-69.7848 L 1.5405,-69.5726 L 1.22411,-69.3986 L 0.888412,-69.2657
 L 0.538712,-69.1759 L 0.180511,-69.1307 z
M 1.40535,-40.6329 L 2.31763,-40.8671 L 3.19334,-41.2138 L 4.01869,-41.6675 L 4.78067,-42.2212 L 5.46725,-42.8659
 L 6.06763,-43.5916 L 6.5723,-44.3869 L 6.97331,-45.2391 L 7.26436,-46.1348 L 7.44086,-47.06 L 7.5,-48
 L 7.44086,-48.94 L 7.26436,-49.8652 L 6.97331,-50.7609 L 6.5723,-51.6131 L 6.06763,-52.4084 L 5.46725,-53.1341
 L 4.78067,-53.7788 L 4.01869,-54.3325 L 3.19334,-54.7862 L 2.31763,-55.1329 L 1.40535,-55.3671 L 0.470917,-55.4852
 L -0.470917,-55.4852 L -1.40535,-55.3671 L -2.31763,-55.1329 L -3.19334,-54.7862 L -4.01869,-54.3325 L -4.78067,-53.7788
 L -5.46725,-53.1341 L -6.06763,-52.4084 L -6.5723,-51.6131 L -6.97331,-50.7609 L -7.26436,-49.8652 L -7.44086,-48.94
 L -7.5,-48 L -7.44086,-47.06 L -7.26436,-46.1348 L -6.97331,-45.2391 L -6.5723,-44.3869 L -6.06763,-43.5916
 L -5.46725,-42.8659 L -4.78067,-42.2212 L -4.01869,-41.6675 L -3.19334,-41.2138 L -2.31763,-40.8671 L -1.40535,-40.6329
 L -0.470917,-40.5148 L 0.470917,-40.5148 z
M -0.180511,-45.1307 L -0.538712,-45.1759 L -0.888412,-45.2657 L -1.22411,-45.3986 L -1.5405,-45.5726 L -1.83258,-45.7848
 L -2.09578,-46.0319 L -2.32591,-46.3101 L -2.51938,-46.615 L -2.6731,-46.9417 L -2.78467,-47.285 L -2.85233,-47.6397
 L -2.875,-48 L -2.85233,-48.3603 L -2.78467,-48.715 L -2.6731,-49.0583 L -2.51938,-49.385 L -2.32591,-49.6899
 L -2.09578,-49.9681 L -1.83258,-50.2152 L -1.5405,-50.4274 L -1.22411,-50.6014 L -0.888412,-50.7343 L -0.538712,-50.8241
 L -0.180511,-50.8693 L 0.180511,-50.8693 L 0.538712,-50.8241 L 0.888412,-50.7343 L 1.22411,-50.6014 L 1.5405,-50.4274
 L 1.83258,-50.2152 L 2.09578,-49.9681 L 2.32591,-49.6899 L 2.51938,-49.385 L 2.6731,-49.0583 L 2.78467,-48.715
 L 2.85233,-48.3603 L 2.875,-48 L 2.85233,-47.6397 L 2.78467,-47.285 L 2.6731,-46.9417 L 2.51938,-46.615
 L 2.32591,-46.3101 L 2.09578,-46.0319 L 1.83258,-45.7848 L 1.5405,-45.5726 L 1.22411,-45.3986 L 0.888412,-45.2657
 L 0.538712,-45.1759 L 0.180511,-45.1307 z
M 1.40535,-16.6329 L 2.31763,-16.8671 L 3.19334,-17.2138 L 4.01869,-17.6675 L 4.78067,-18.2212 L 5.46725,-18.8659
 L 6.06763,-19.5916 L 6.5723,-20.3869 L 6.97331,-21.2391 L 7.26436,-22.1348 L 7.44086,-23.06 L 7.5,-24
 L 7.44086,-24.94 L 7.26436,-25.8652 L 6.97331,-26.7609 L 6.5723,-27.6131 L 6.06763,-28.4084 L 5.46725,-29.1341
 L 4.78067,-29.7788 L 4.01869,-30.3325 L 3.19334,-30.7862 L 2.31763,-31.1329 L 1.40535,-31.3671 L 0.470917,-31.4852
 L -0.470917,-31.4852 L -1.40535,-31.3671 L -2.31763,-31.1329 L -3.19334,-30.7862 L -4.01869,-30.3325 L -4.78067,-29.7788
 L -5.46725,-29.1341 L -6.06763,-28.4084 L -6.5723,-27.6131 L -6.97331,-26.7609 L -7.26436,-25.8652 L -7.44086,-24.94
 L -7.5,-24 L -7.44086,-23.06 L -7.26436,-22.1348 L -6.97331,-21.2391 L -6.5723,-20.3869 L -6.06763,-19.5916
 L -5.46725,-18.8659 L -4.78067,-18.2212 L -4.01869,-17.6675 L -3.19334,-17.2138 L -2.31763,-16.8671 L -1.40535,-16.6329
 L -0.470917,-16.5148 L 0.470917,-16.5148 z
M -0.180511,-21.1307 L -0.538712,-21.1759 L -0.888412,-21.2657 L -1.22411,-21.3986 L -1.5405,-21.5726 L -1.83258,-21.7848
 L -2.09578,-22.0319 L -2.32591,-22.3101 L -2.51938,-22.615 L -2.6731,-22.9417 L -2.78467,-23.285 L -2.85233,-23.6397
 L -2.875,-24 L -2.85233,-24.3603 L -2.78467,-24.715 L -2.6731,-25.0583 L -2.51938,-25.385 L -2.32591,-25.6899
 L -2.09578,-25.9681 L -1.83258,-26.2152 L -1.5405,-26.4274 L -1.22411,-26.6014 L -0.888412,-26.7343 L -0.538712,-26.8241
 L -0.180511,-26.8693 L 0.180511,-26.8693 L 0.538712,-26.8241 L 0.888412,-26.7343 L 1.22411,-26.6014 L 1.5405,-26.4274
 L 1.83258,-26.2152 L 2.09578,-25.9681 L 2.32591,-25.6899 L 2.51938,-25.385 L 2.6731,-25.0583 L 2.78467,-24.715
 L 2.85233,-24.3603 L 2.875,-24 L 2.85233,-23.6397 L 2.78467,-23.285 L 2.6731,-22.9417 L 2.51938,-22.615
 L 2.32591,-22.3101 L 2.09578,-22.0319 L 1.83258,-21.7848 L 1.5405,-21.5726 L 1.22411,-21.3986 L 0.888412,-21.2657
 L 0.538712,-21.1759 L 0.180511,-21.1307 z
M 1.40535,7.36714 L 2.31763,7.13292 L 3.19334,6.78619 L 4.01869,6.33246 L 4.78067,5.77884 L 5.46725,5.13409
 L 6.06763,4.40839 L 6.5723,3.61314 L 6.97331,2.76093 L 7.26436,1.86517 L 7.44086,0.939987 L 7.5,-0
 L 7.44086,-0.939987 L 7.26436,-1.86517 L 6.97331,-2.76093 L 6.5723,-3.61314 L 6.06763,-4.40839 L 5.46725,-5.13409
 L 4.78067,-5.77884 L 4.01869,-6.33246 L 3.19334,-6.78619 L 2.31763,-7.13292 L 1.40535,-7.36714 L 0.470917,-7.4852
 L -0.470917,-7.4852 L -1.40535,-7.36714 L -2.31763,-7.13292 L -3.19334,-6.78619 L -4.01869,-6.33246 L -4.78067,-5.77884
 L -5.46725,-5.13409 L -6.06763,-4.40839 L -6.5723,-3.61314 L -6.97331,-2.76093 L -7.26436,-1.86517 L -7.44086,-0.939987
 L -7.5,-0 L -7.44086,0.939987 L -7.26436,1.86517 L -6.97331,2.76093 L -6.5723,3.61314 L -6.06763,4.40839
 L -5.46725,5.13409 L -4.78067,5.77884 L -4.01869,6.33246 L -3.19334,6.78619 L -2.31763,7.13292 L -1.40535,7.36714
 L -0.470917,7.4852 L 0.470917,7.4852 z
M -0.180511,2.86932 L -0.538712,2.82407 L -0.888412,2.73428 L -1.22411,2.60136 L -1.5405,2.42743 L -1.83258,2.21523
 L -2.09578,1.96806 L -2.32591,1.68988 L -2.51938,1.38504 L -2.6731,1.05835 L -2.78467,0.714981 L -2.85233,0.360321
 L -2.875,-0 L -2.85233,-0.360321 L -2.78467,-0.714981 L -2.6731,-1.05835 L -2.51938,-1.38504 L -2.32591,-1.68988
 L -2.09578,-1.96806 L -1.83258,-2.21523 L -1.5405,-2.42743 L -1.22411,-2.60136 L -0.888412,-2.73428 L -0.538712,-2.82407
 L -0.180511,-2.86932 L 0.180511,-2.86932 L 0.538712,-2.82407 L 0.888412,-2.73428 L 1.22411,-2.60136 L 1.5405,-2.42743
 L 1.83258,-2.21523 L 2.09578,-1.96806 L 2.32591,-1.68988 L 2.51938,-1.38504 L 2.6731,-1.05835 L 2.78467,-0.714981
 L 2.85233,-0.360321 L 2.875,-0 L 2.85233,0.360321 L 2.78467,0.714981 L 2.6731,1.05835 L 2.51938,1.38504
 L 2.32591,1.68988 L 2.09578,1.96806 L 1.83258,2.21523 L 1.5405,2.42743 L 1.22411,2.60136 L 0.888412,2.73428
 L 0.538712,2.82407 L 0.180511,2.86932 z
" stroke="black" fill="lightgray" stroke-width="0.5"/>
</svg>
