<?xml version="1.0" standalone="no"?>
<!DOCTYPE svg PUBLIC "-//W3C//DTD SVG 1.1//EN" "http://www.w3.org/Graphics/SVG/1.1/DTD/svg11.dtd">
<svg width="36mm" height="71mm" viewBox="-18 -61 36 71" xmlns="http://www.w3.org/2000/svg" version="1.1">
<title>OpenSCAD Model</title>
<path d="
M 9.87381,-11.1771 L 11.0902,-11.4894 L 12.2578,-11.9517 L 13.3583,-12.5567 L 14.3742,-13.2949 L 15.2897,-14.1545
 L 16.0902,-15.1222 L 16.7631,-16.1825 L 17.2978,-17.3188 L 17.6858,-18.5131 L 17.9211,-19.7467 L 18,-21
 L 18,-27 L 17.9211,-28.2533 L 17.6858,-29.4869 L 17.2978,-30.6812 L 16.7631,-31.8175 L 16.0902,-32.8778
 L 15.2897,-33.8455 L 14.3742,-34.7051 L 13.3583,-35.4433 L 12.3456,-36 L 13.3583,-36.5567 L 14.3742,-37.2949
 L 15.2897,-38.1545 L 16.0902,-39.1222 L 16.7631,-40.1825 L 17.2978,-41.3188 L 17.6858,-42.5131 L 17.9211,-43.7467
 L 18,-45 L 18,-51 L 17.9211,-52.2533 L 17.6858,-53.4869 L 17.2978,-54.6812 L 16.7631,-55.8175
 L 16.0902,-56.8778 L 15.2897,-57.8455 L 14.3742,-58.7051 L 13.3583,-59.4433 L 12.2578,-60.0483 L 11.0902,-60.5106
 L 9.87381,-60.8229 L 8.6279,-60.9803 L -8.6279,-60.9803 L -9.87381,-60.8229 L -11.0902,-60.5106 L -12.2578,-60.0483
 L -13.3583,-59.4433 L -14.3742,-58.7051 L -15.2897,-57.8455 L -16.0902,-56.8778 L -16.7631,-55.8175 L -17.2978,-54.6812
 L -17.6858,-53.4869 L -17.9211,-52.2533 L -18,-51 L -18,-45 L -17.9211,-43.7467 L -17.6858,-42.5131
 L -17.2978,-41.3188 L -16.7631,-40.1825 L -16.0902,-39.1222 L -15.2897,-38.1545 L -14.3742,-37.2949 L -13.3583,-36.5567
 L -12.3456,-36 L -13.3583,-35.4433 L -14.3742,-34.7051 L -15.2897,-33.8455 L -16.0902,-32.8778 L -16.7631,-31.8175
 L -17.2978,-30.6812 L -17.6858,-29.4869 L -17.9211,-28.2533 L -18,-27 L -18,-21 L -17.9211,-19.7467
 L -17.6858,-18.5131 L -17.2978,-17.3188 L -16.7631,-16.1825 L -16.0902,-15.1222 L -15.2897,-14.1545 L -14.3742,-13.2949
 L -13.3583,-12.5567 L -12.2578,-11.9517 L -11.0902,-11.4894 L -9.87381,-11.1771 L -8.6279,-11.0197 L 8.6279,-11.0197
 z
M -0.307663,-43.1097 L -0.918167,-43.1868 L -1.51418,-43.3398 L -2.0863,-43.5664 L -2.62555,-43.8628 L -3.12337,-44.2245
 L -3.57195,-44.6457 L -3.96417,-45.1199 L -4.2939,-45.6394 L -4.55589,-46.1962 L -4.74605,-46.7814 L -4.86136,-47.3859
 L -4.89999,-48 L -4.86136,-48.6141 L -4.74605,-49.2186 L -4.55589,-49.8038 L -4.2939,-50.3606 L -3.96417,-50.8801
 L -3.57195,-51.3543 L -3.12337,-51.7755 L -2.62555,-52.1372 L -2.0863,-52.4336 L -1.51418,-52.6602 L -0.918167,-52.8132
 L -0.307663,-52.8903 L 0.307663,-52.8903 L 0.918167,-52.8132 L 1.51418,-52.6602 L 2.0863,-52.4336 L 2.62555,-52.1372
 L 3.12337,-51.7755 L 3.57195,-51.3543 L 3.96417,-50.8801 L 4.2939,-50.3606 L 4.55589,-49.8038 L 4.74605,-49.2186
 L 4.86136,-48.6141 L 4.89999,-48 L 4.86136,-47.3859 L 4.74605,-46.7814 L 4.55589,-46.1962 L 4.2939,-45.6394
 L 3.96417,-45.1199 L 3.57195,-44.6457 L 3.12337,-44.2245 L 2.62555,-43.8628 L 2.0863,-43.5664 L 1.51418,-43.3398
 L 0.918167,-43.1868 L 0.307663,-43.1097 z
M -0.190567,-20.9709 L -0.568726,-21.0186 L -0.937897,-21.1134 L -1.2923,-21.2537 L -1.6263,-21.4374 L -1.93466,-21.6614
 L -2.21251,-21.9223 L -2.45547,-22.216 L -2.6597,-22.5378 L -2.82199,-22.8827 L -2.93977,-23.2452 L -3.0112,-23.6196
 L -3.03513,-24 L -3.0112,-24.3804 L -2.93977,-24.7548 L -2.82199,-25.1173 L -2.6597,-25.4622 L -2.45547,-25.784
 L -2.21251,-26.0777 L -1.93466,-26.3386 L -1.6263,-26.5626 L -1.2923,-26.7463 L -0.937897,-26.8866 L -0.568726,-26.9814
 L -0.190567,-27.0291 L 0.190567,-27.0291 L 0.568726,-26.9814 L 0.937897,-26.8866 L 1.2923,-26.7463 L 1.6263,-26.5626
 L 1.93466,-26.3386 L 2.21251,-26.0777 L 2.45547,-25.784 L 2.6597,-25.4622 L 2.82199,-25.1173 L 2.93977,-24.7548
 L 3.0112,-24.3804 L 3.03513,-24 L 3.0112,-23.6196 L 2.93977,-23.2452 L 2.82199,-22.8827 L 2.6597,-22.5378
 L 2.45547,-22.216 L 2.21251,-21.9223 L 1.93466,-21.6614 L 1.6263,-21.4374 L 1.2923,-21.2537 L 0.937897,-21.1134
 L 0.568726,-21.0186 L 0.190567,-20.9709 z
M 6.87381,9.82286 L 8.09016,9.51056 L 9.25778,9.04826 L 10.3583,8.44327 L 11.3742,7.70512 L 12.2897,6.84546
 L 13.0902,5.87784 L 13.7631,4.81754 L 14.2978,3.68124 L 14.6858,2.48689 L 14.9211,1.25333 L 15,-0
 L 14.9211,-1.25333 L 14.6858,-2.48689 L 14.2978,-3.68124 L 13.7631,-4.81754 L 13.0902,-5.87784 L 12.2897,-6.84546
 L 11.3742,-7.70512 L 10.3583,-8.44327 L 9.25778,-9.04826 L 8.09016,-9.51056 L 6.87381,-9.82286 L 5.6279,-9.98026
 L -5.6279,-9.98026 L -6.87381,-9.82286 L -8.09016,-9.51056 L -9.25778,-9.04826 L -10.3583,-8.44327 L -11.3742,-7.70512
 L -12.2897,-6.84546 L -13.0902,-5.87784 L -13.7631,-4.81754 L -14.2978,-3.68124 L -14.6858,-2.48689 L -14.9211,-1.25333
 L -15,-0 L -14.9211,1.25333 L -14.6858,2.48689 L -14.2978,3.68124 L -13.7631,4.81754 L -13.0902,5.87784
 L -12.2897,6.84546 L -11.3742,7.70512 L -10.3583,8.44327 L -9.25778,9.04826 L -8.09016,9.51056 L -6.87381,9.82286
 L -5.6279,9.98026 L 5.6279,9.98026 z
M -0.180511,2.86932 L -0.538712,2.82407 L -0.888412,2.73428 L -1.22411,2.60136 L -1.5405,2.42743 L -1.83258,2.21523
 L -2.09578,1.96806 L -2.32591,1.68988 L -2.51938,1.38504 L -2.6731,1.05835 L -2.78467,0.714981 L -2.85233,0.360321
 L -2.875,-0 L -2.85233,-0.360321 L -2.78467,-0.714981 L -2.6731,-1.05835 L -2.51938,-1.38504 L -2.32591,-1.68988
 L -2.09578,-1.96806 L -1.83258,-2.21523 L -1.5405,-2.42743 L -1.22411,-2.60136 L -0.888412,-2.73428 L -0.538712,-2.82407
 L -0.180511,-2.86932 L 0.180511,-2.86932 L 0.538712,-2.82407 L 0.888412,-2.73428 L 1.22411,-2.60136 L 1.5405,-2.42743
 L 1.83258,-2.21523 L 2.09578,-1.96806 L 2.32591,-1.68988 L 2.51938,-1.38504 L 2.6731,-1.05835 L 2.78467,-0.714981
 L 2.85233,-0.360321 L 2.875,-0 L 2.85233,0.360321 L 2.78467,0.714981 L 2.6731,1.05835 L 2.51938,1.38504
 L 2.32591,1.68988 L 2.09578,1.96806 L 1.83258,2.21523 L 1.5405,2.42743 L 1.22411,2.60136 L 0.888412,2.73428
 L 0.538712,2.82407 L 0.180511,2.86932 z
" stroke="black" fill="lightgray" stroke-width="0.5"/>
</svg>
