  0
SECTION
  2
BLOCKS
  0
ENDSEC
  0
SECTION
  2
ENTITIES
  0
LINE
  8
0
 10
9.87381
 20
11.1771
 11
11.0902
 21
11.4894
  0
LINE
  8
0
 10
11.0902
 20
11.4894
 11
12.2578
 21
11.9517
  0
LINE
  8
0
 10
12.2578
 20
11.9517
 11
13.3583
 21
12.5567
  0
LINE
  8
0
 10
13.3583
 20
12.5567
 11
14.3742
 21
13.2949
  0
LINE
  8
0
 10
14.3742
 20
13.2949
 11
15.2897
 21
14.1545
  0
LINE
  8
0
 10
15.2897
 20
14.1545
 11
16.0902
 21
15.1222
  0
LINE
  8
0
 10
16.0902
 20
15.1222
 11
16.7631
 21
16.1825
  0
LINE
  8
0
 10
16.7631
 20
16.1825
 11
17.2978
 21
17.3188
  0
LINE
  8
0
 10
17.2978
 20
17.3188
 11
17.6858
 21
18.5131
  0
LINE
  8
0
 10
17.6858
 20
18.5131
 11
17.9211
 21
19.7467
  0
LINE
  8
0
 10
17.9211
 20
19.7467
 11
18
 21
21
  0
LINE
  8
0
 10
18
 20
21
 11
18
 21
27
  0
LINE
  8
0
 10
18
 20
27
 11
17.9211
 21
28.2533
  0
LINE
  8
0
 10
17.9211
 20
28.2533
 11
17.6858
 21
29.4869
  0
LINE
  8
0
 10
17.6858
 20
29.4869
 11
17.2978
 21
30.6812
  0
LINE
  8
0
 10
17.2978
 20
30.6812
 11
16.7631
 21
31.8175
  0
LINE
  8
0
 10
16.7631
 20
31.8175
 11
16.0902
 21
32.8778
  0
LINE
  8
0
 10
16.0902
 20
32.8778
 11
15.2897
 21
33.8455
  0
LINE
  8
0
 10
15.2897
 20
33.8455
 11
14.3742
 21
34.7051
  0
LINE
  8
0
 10
14.3742
 20
34.7051
 11
13.3583
 21
35.4433
  0
LINE
  8
0
 10
13.3583
 20
35.4433
 11
12.3456
 21
36
  0
LINE
  8
0
 10
12.3456
 20
36
 11
13.3583
 21
36.5567
  0
LINE
  8
0
 10
13.3583
 20
36.5567
 11
14.3742
 21
37.2949
  0
LINE
  8
0
 10
14.3742
 20
37.2949
 11
15.2897
 21
38.1545
  0
LINE
  8
0
 10
15.2897
 20
38.1545
 11
16.0902
 21
39.1222
  0
LINE
  8
0
 10
16.0902
 20
39.1222
 11
16.7631
 21
40.1825
  0
LINE
  8
0
 10
16.7631
 20
40.1825
 11
17.2978
 21
41.3188
  0
LINE
  8
0
 10
17.2978
 20
41.3188
 11
17.6858
 21
42.5131
  0
LINE
  8
0
 10
17.6858
 20
42.5131
 11
17.9211
 21
43.7467
  0
LINE
  8
0
 10
17.9211
 20
43.7467
 11
18
 21
45
  0
LINE
  8
0
 10
18
 20
45
 11
18
 21
51
  0
LINE
  8
0
 10
18
 20
51
 11
17.9211
 21
52.2533
  0
LINE
  8
0
 10
17.9211
 20
52.2533
 11
17.6858
 21
53.4869
  0
LINE
  8
0
 10
17.6858
 20
53.4869
 11
17.2978
 21
54.6812
  0
LINE
  8
0
 10
17.2978
 20
54.6812
 11
16.7631
 21
55.8175
  0
LINE
  8
0
 10
16.7631
 20
55.8175
 11
16.0902
 21
56.8778
  0
LINE
  8
0
 10
16.0902
 20
56.8778
 11
15.2897
 21
57.8455
  0
LINE
  8
0
 10
15.2897
 20
57.8455
 11
14.3742
 21
58.7051
  0
LINE
  8
0
 10
14.3742
 20
58.7051
 11
13.3583
 21
59.4433
  0
LINE
  8
0
 10
13.3583
 20
59.4433
 11
12.2578
 21
60.0483
  0
LINE
  8
0
 10
12.2578
 20
60.0483
 11
11.0902
 21
60.5106
  0
LINE
  8
0
 10
11.0902
 20
60.5106
 11
9.87381
 21
60.8229
  0
LINE
  8
0
 10
9.87381
 20
60.8229
 11
8.6279
 21
60.9803
  0
LINE
  8
0
 10
8.6279
 20
60.9803
 11
-8.6279
 21
60.9803
  0
LINE
  8
0
 10
-8.6279
 20
60.9803
 11
-9.87381
 21
60.8229
  0
LINE
  8
0
 10
-9.87381
 20
60.8229
 11
-11.0902
 21
60.5106
  0
LINE
  8
0
 10
-11.0902
 20
60.5106
 11
-12.2578
 21
60.0483
  0
LINE
  8
0
 10
-12.2578
 20
60.0483
 11
-13.3583
 21
59.4433
  0
LINE
  8
0
 10
-13.3583
 20
59.4433
 11
-14.3742
 21
58.7051
  0
LINE
  8
0
 10
-14.3742
 20
58.7051
 11
-15.2897
 21
57.8455
  0
LINE
  8
0
 10
-15.2897
 20
57.8455
 11
-16.0902
 21
56.8778
  0
LINE
  8
0
 10
-16.0902
 20
56.8778
 11
-16.7631
 21
55.8175
  0
LINE
  8
0
 10
-16.7631
 20
55.8175
 11
-17.2978
 21
54.6812
  0
LINE
  8
0
 10
-17.2978
 20
54.6812
 11
-17.6858
 21
53.4869
  0
LINE
  8
0
 10
-17.6858
 20
53.4869
 11
-17.9211
 21
52.2533
  0
LINE
  8
0
 10
-17.9211
 20
52.2533
 11
-18
 21
51
  0
LINE
  8
0
 10
-18
 20
51
 11
-18
 21
45
  0
LINE
  8
0
 10
-18
 20
45
 11
-17.9211
 21
43.7467
  0
LINE
  8
0
 10
-17.9211
 20
43.7467
 11
-17.6858
 21
42.5131
  0
LINE
  8
0
 10
-17.6858
 20
42.5131
 11
-17.2978
 21
41.3188
  0
LINE
  8
0
 10
-17.2978
 20
41.3188
 11
-16.7631
 21
40.1825
  0
LINE
  8
0
 10
-16.7631
 20
40.1825
 11
-16.0902
 21
39.1222
  0
LINE
  8
0
 10
-16.0902
 20
39.1222
 11
-15.2897
 21
38.1545
  0
LINE
  8
0
 10
-15.2897
 20
38.1545
 11
-14.3742
 21
37.2949
  0
LINE
  8
0
 10
-14.3742
 20
37.2949
 11
-13.3583
 21
36.5567
  0
LINE
  8
0
 10
-13.3583
 20
36.5567
 11
-12.3456
 21
36
  0
LINE
  8
0
 10
-12.3456
 20
36
 11
-13.3583
 21
35.4433
  0
LINE
  8
0
 10
-13.3583
 20
35.4433
 11
-14.3742
 21
34.7051
  0
LINE
  8
0
 10
-14.3742
 20
34.7051
 11
-15.2897
 21
33.8455
  0
LINE
  8
0
 10
-15.2897
 20
33.8455
 11
-16.0902
 21
32.8778
  0
LINE
  8
0
 10
-16.0902
 20
32.8778
 11
-16.7631
 21
31.8175
  0
LINE
  8
0
 10
-16.7631
 20
31.8175
 11
-17.2978
 21
30.6812
  0
LINE
  8
0
 10
-17.2978
 20
30.6812
 11
-17.6858
 21
29.4869
  0
LINE
  8
0
 10
-17.6858
 20
29.4869
 11
-17.9211
 21
28.2533
  0
LINE
  8
0
 10
-17.9211
 20
28.2533
 11
-18
 21
27
  0
LINE
  8
0
 10
-18
 20
27
 11
-18
 21
21
  0
LINE
  8
0
 10
-18
 20
21
 11
-17.9211
 21
19.7467
  0
LINE
  8
0
 10
-17.9211
 20
19.7467
 11
-17.6858
 21
18.5131
  0
LINE
  8
0
 10
-17.6858
 20
18.5131
 11
-17.2978
 21
17.3188
  0
LINE
  8
0
 10
-17.2978
 20
17.3188
 11
-16.7631
 21
16.1825
  0
LINE
  8
0
 10
-16.7631
 20
16.1825
 11
-16.0902
 21
15.1222
  0
LINE
  8
0
 10
-16.0902
 20
15.1222
 11
-15.2897
 21
14.1545
  0
LINE
  8
0
 10
-15.2897
 20
14.1545
 11
-14.3742
 21
13.2949
  0
LINE
  8
0
 10
-14.3742
 20
13.2949
 11
-13.3583
 21
12.5567
  0
LINE
  8
0
 10
-13.3583
 20
12.5567
 11
-12.2578
 21
11.9517
  0
LINE
  8
0
 10
-12.2578
 20
11.9517
 11
-11.0902
 21
11.4894
  0
LINE
  8
0
 10
-11.0902
 20
11.4894
 11
-9.87381
 21
11.1771
  0
LINE
  8
0
 10
-9.87381
 20
11.1771
 11
-8.6279
 21
11.0197
  0
LINE
  8
0
 10
-8.6279
 20
11.0197
 11
8.6279
 21
11.0197
  0
LINE
  8
0
 10
8.6279
 20
11.0197
 11
9.87381
 21
11.1771
  0
LINE
  8
0
 10
-0.307663
 20
43.1097
 11
-0.918167
 21
43.1868
  0
LINE
  8
0
 10
-0.918167
 20
43.1868
 11
-1.51418
 21
43.3398
  0
LINE
  8
0
 10
-1.51418
 20
43.3398
 11
-2.0863
 21
43.5664
  0
LINE
  8
0
 10
-2.0863
 20
43.5664
 11
-2.62555
 21
43.8628
  0
LINE
  8
0
 10
-2.62555
 20
43.8628
 11
-3.12337
 21
44.2245
  0
LINE
  8
0
 10
-3.12337
 20
44.2245
 11
-3.57195
 21
44.6457
  0
LINE
  8
0
 10
-3.57195
 20
44.6457
 11
-3.96417
 21
45.1199
  0
LINE
  8
0
 10
-3.96417
 20
45.1199
 11
-4.2939
 21
45.6394
  0
LINE
  8
0
 10
-4.2939
 20
45.6394
 11
-4.55589
 21
46.1962
  0
LINE
  8
0
 10
-4.55589
 20
46.1962
 11
-4.74605
 21
46.7814
  0
LINE
  8
0
 10
-4.74605
 20
46.7814
 11
-4.86136
 21
47.3859
  0
LINE
  8
0
 10
-4.86136
 20
47.3859
 11
-4.89999
 21
48
  0
LINE
  8
0
 10
-4.89999
 20
48
 11
-4.86136
 21
48.6141
  0
LINE
  8
0
 10
-4.86136
 20
48.6141
 11
-4.74605
 21
49.2186
  0
LINE
  8
0
 10
-4.74605
 20
49.2186
 11
-4.55589
 21
49.8038
  0
LINE
  8
0
 10
-4.55589
 20
49.8038
 11
-4.2939
 21
50.3606
  0
LINE
  8
0
 10
-4.2939
 20
50.3606
 11
-3.96417
 21
50.8801
  0
LINE
  8
0
 10
-3.96417
 20
50.8801
 11
-3.57195
 21
51.3543
  0
LINE
  8
0
 10
-3.57195
 20
51.3543
 11
-3.12337
 21
51.7755
  0
LINE
  8
0
 10
-3.12337
 20
51.7755
 11
-2.62555
 21
52.1372
  0
LINE
  8
0
 10
-2.62555
 20
52.1372
 11
-2.0863
 21
52.4336
  0
LINE
  8
0
 10
-2.0863
 20
52.4336
 11
-1.51418
 21
52.6602
  0
LINE
  8
0
 10
-1.51418
 20
52.6602
 11
-0.918167
 21
52.8132
  0
LINE
  8
0
 10
-0.918167
 20
52.8132
 11
-0.307663
 21
52.8903
  0
LINE
  8
0
 10
-0.307663
 20
52.8903
 11
0.307663
 21
52.8903
  0
LINE
  8
0
 10
0.307663
 20
52.8903
 11
0.918167
 21
52.8132
  0
LINE
  8
0
 10
0.918167
 20
52.8132
 11
1.51418
 21
52.6602
  0
LINE
  8
0
 10
1.51418
 20
52.6602
 11
2.0863
 21
52.4336
  0
LINE
  8
0
 10
2.0863
 20
52.4336
 11
2.62555
 21
52.1372
  0
LINE
  8
0
 10
2.62555
 20
52.1372
 11
3.12337
 21
51.7755
  0
LINE
  8
0
 10
3.12337
 20
51.7755
 11
3.57195
 21
51.3543
  0
LINE
  8
0
 10
3.57195
 20
51.3543
 11
3.96417
 21
50.8801
  0
LINE
  8
0
 10
3.96417
 20
50.8801
 11
4.2939
 21
50.3606
  0
LINE
  8
0
 10
4.2939
 20
50.3606
 11
4.55589
 21
49.8038
  0
LINE
  8
0
 10
4.55589
 20
49.8038
 11
4.74605
 21
49.2186
  0
LINE
  8
0
 10
4.74605
 20
49.2186
 11
4.86136
 21
48.6141
  0
LINE
  8
0
 10
4.86136
 20
48.6141
 11
4.89999
 21
48
  0
LINE
  8
0
 10
4.89999
 20
48
 11
4.86136
 21
47.3859
  0
LINE
  8
0
 10
4.86136
 20
47.3859
 11
4.74605
 21
46.7814
  0
LINE
  8
0
 10
4.74605
 20
46.7814
 11
4.55589
 21
46.1962
  0
LINE
  8
0
 10
4.55589
 20
46.1962
 11
4.2939
 21
45.6394
  0
LINE
  8
0
 10
4.2939
 20
45.6394
 11
3.96417
 21
45.1199
  0
LINE
  8
0
 10
3.96417
 20
45.1199
 11
3.57195
 21
44.6457
  0
LINE
  8
0
 10
3.57195
 20
44.6457
 11
3.12337
 21
44.2245
  0
LINE
  8
0
 10
3.12337
 20
44.2245
 11
2.62555
 21
43.8628
  0
LINE
  8
0
 10
2.62555
 20
43.8628
 11
2.0863
 21
43.5664
  0
LINE
  8
0
 10
2.0863
 20
43.5664
 11
1.51418
 21
43.3398
  0
LINE
  8
0
 10
1.51418
 20
43.3398
 11
0.918167
 21
43.1868
  0
LINE
  8
0
 10
0.918167
 20
43.1868
 11
0.307663
 21
43.1097
  0
LINE
  8
0
 10
0.307663
 20
43.1097
 11
-0.307663
 21
43.1097
  0
LINE
  8
0
 10
-0.190567
 20
20.9709
 11
-0.568726
 21
21.0186
  0
LINE
  8
0
 10
-0.568726
 20
21.0186
 11
-0.937897
 21
21.1134
  0
LINE
  8
0
 10
-0.937897
 20
21.1134
 11
-1.2923
 21
21.2537
  0
LINE
  8
0
 10
-1.2923
 20
21.2537
 11
-1.6263
 21
21.4374
  0
LINE
  8
0
 10
-1.6263
 20
21.4374
 11
-1.93466
 21
21.6614
  0
LINE
  8
0
 10
-1.93466
 20
21.6614
 11
-2.21251
 21
21.9223
  0
LINE
  8
0
 10
-2.21251
 20
21.9223
 11
-2.45547
 21
22.216
  0
LINE
  8
0
 10
-2.45547
 20
22.216
 11
-2.6597
 21
22.5378
  0
LINE
  8
0
 10
-2.6597
 20
22.5378
 11
-2.82199
 21
22.8827
  0
LINE
  8
0
 10
-2.82199
 20
22.8827
 11
-2.93977
 21
23.2452
  0
LINE
  8
0
 10
-2.93977
 20
23.2452
 11
-3.0112
 21
23.6196
  0
LINE
  8
0
 10
-3.0112
 20
23.6196
 11
-3.03513
 21
24
  0
LINE
  8
0
 10
-3.03513
 20
24
 11
-3.0112
 21
24.3804
  0
LINE
  8
0
 10
-3.0112
 20
24.3804
 11
-2.93977
 21
24.7548
  0
LINE
  8
0
 10
-2.93977
 20
24.7548
 11
-2.82199
 21
25.1173
  0
LINE
  8
0
 10
-2.82199
 20
25.1173
 11
-2.6597
 21
25.4622
  0
LINE
  8
0
 10
-2.6597
 20
25.4622
 11
-2.45547
 21
25.784
  0
LINE
  8
0
 10
-2.45547
 20
25.784
 11
-2.21251
 21
26.0777
  0
LINE
  8
0
 10
-2.21251
 20
26.0777
 11
-1.93466
 21
26.3386
  0
LINE
  8
0
 10
-1.93466
 20
26.3386
 11
-1.6263
 21
26.5626
  0
LINE
  8
0
 10
-1.6263
 20
26.5626
 11
-1.2923
 21
26.7463
  0
LINE
  8
0
 10
-1.2923
 20
26.7463
 11
-0.937897
 21
26.8866
  0
LINE
  8
0
 10
-0.937897
 20
26.8866
 11
-0.568726
 21
26.9814
  0
LINE
  8
0
 10
-0.568726
 20
26.9814
 11
-0.190567
 21
27.0291
  0
LINE
  8
0
 10
-0.190567
 20
27.0291
 11
0.190567
 21
27.0291
  0
LINE
  8
0
 10
0.190567
 20
27.0291
 11
0.568726
 21
26.9814
  0
LINE
  8
0
 10
0.568726
 20
26.9814
 11
0.937897
 21
26.8866
  0
LINE
  8
0
 10
0.937897
 20
26.8866
 11
1.2923
 21
26.7463
  0
LINE
  8
0
 10
1.2923
 20
26.7463
 11
1.6263
 21
26.5626
  0
LINE
  8
0
 10
1.6263
 20
26.5626
 11
1.93466
 21
26.3386
  0
LINE
  8
0
 10
1.93466
 20
26.3386
 11
2.21251
 21
26.0777
  0
LINE
  8
0
 10
2.21251
 20
26.0777
 11
2.45547
 21
25.784
  0
LINE
  8
0
 10
2.45547
 20
25.784
 11
2.6597
 21
25.4622
  0
LINE
  8
0
 10
2.6597
 20
25.4622
 11
2.82199
 21
25.1173
  0
LINE
  8
0
 10
2.82199
 20
25.1173
 11
2.93977
 21
24.7548
  0
LINE
  8
0
 10
2.93977
 20
24.7548
 11
3.0112
 21
24.3804
  0
LINE
  8
0
 10
3.0112
 20
24.3804
 11
3.03513
 21
24
  0
LINE
  8
0
 10
3.03513
 20
24
 11
3.0112
 21
23.6196
  0
LINE
  8
0
 10
3.0112
 20
23.6196
 11
2.93977
 21
23.2452
  0
LINE
  8
0
 10
2.93977
 20
23.2452
 11
2.82199
 21
22.8827
  0
LINE
  8
0
 10
2.82199
 20
22.8827
 11
2.6597
 21
22.5378
  0
LINE
  8
0
 10
2.6597
 20
22.5378
 11
2.45547
 21
22.216
  0
LINE
  8
0
 10
2.45547
 20
22.216
 11
2.21251
 21
21.9223
  0
LINE
  8
0
 10
2.21251
 20
21.9223
 11
1.93466
 21
21.6614
  0
LINE
  8
0
 10
1.93466
 20
21.6614
 11
1.6263
 21
21.4374
  0
LINE
  8
0
 10
1.6263
 20
21.4374
 11
1.2923
 21
21.2537
  0
LINE
  8
0
 10
1.2923
 20
21.2537
 11
0.937897
 21
21.1134
  0
LINE
  8
0
 10
0.937897
 20
21.1134
 11
0.568726
 21
21.0186
  0
LINE
  8
0
 10
0.568726
 20
21.0186
 11
0.190567
 21
20.9709
  0
LINE
  8
0
 10
0.190567
 20
20.9709
 11
-0.190567
 21
20.9709
  0
LINE
  8
0
 10
6.87381
 20
-9.82286
 11
8.09016
 21
-9.51056
  0
LINE
  8
0
 10
8.09016
 20
-9.51056
 11
9.25778
 21
-9.04826
  0
LINE
  8
0
 10
9.25778
 20
-9.04826
 11
10.3583
 21
-8.44327
  0
LINE
  8
0
 10
10.3583
 20
-8.44327
 11
11.3742
 21
-7.70512
  0
LINE
  8
0
 10
11.3742
 20
-7.70512
 11
12.2897
 21
-6.84546
  0
LINE
  8
0
 10
12.2897
 20
-6.84546
 11
13.0902
 21
-5.87784
  0
LINE
  8
0
 10
13.0902
 20
-5.87784
 11
13.7631
 21
-4.81754
  0
LINE
  8
0
 10
13.7631
 20
-4.81754
 11
14.2978
 21
-3.68124
  0
LINE
  8
0
 10
14.2978
 20
-3.68124
 11
14.6858
 21
-2.48689
  0
LINE
  8
0
 10
14.6858
 20
-2.48689
 11
14.9211
 21
-1.25333
  0
LINE
  8
0
 10
14.9211
 20
-1.25333
 11
15
 21
0
  0
LINE
  8
0
 10
15
 20
0
 11
14.9211
 21
1.25333
  0
LINE
  8
0
 10
14.9211
 20
1.25333
 11
14.6858
 21
2.48689
  0
LINE
  8
0
 10
14.6858
 20
2.48689
 11
14.2978
 21
3.68124
  0
LINE
  8
0
 10
14.2978
 20
3.68124
 11
13.7631
 21
4.81754
  0
LINE
  8
0
 10
13.7631
 20
4.81754
 11
13.0902
 21
5.87784
  0
LINE
  8
0
 10
13.0902
 20
5.87784
 11
12.2897
 21
6.84546
  0
LINE
  8
0
 10
12.2897
 20
6.84546
 11
11.3742
 21
7.70512
  0
LINE
  8
0
 10
11.3742
 20
7.70512
 11
10.3583
 21
8.44327
  0
LINE
  8
0
 10
10.3583
 20
8.44327
 11
9.25778
 21
9.04826
  0
LINE
  8
0
 10
9.25778
 20
9.04826
 11
8.09016
 21
9.51056
  0
LINE
  8
0
 10
8.09016
 20
9.51056
 11
6.87381
 21
9.82286
  0
LINE
  8
0
 10
6.87381
 20
9.82286
 11
5.6279
 21
9.98026
  0
LINE
  8
0
 10
5.6279
 20
9.98026
 11
-5.6279
 21
9.98026
  0
LINE
  8
0
 10
-5.6279
 20
9.98026
 11
-6.87381
 21
9.82286
  0
LINE
  8
0
 10
-6.87381
 20
9.82286
 11
-8.09016
 21
9.51056
  0
LINE
  8
0
 10
-8.09016
 20
9.51056
 11
-9.25778
 21
9.04826
  0
LINE
  8
0
 10
-9.25778
 20
9.04826
 11
-10.3583
 21
8.44327
  0
LINE
  8
0
 10
-10.3583
 20
8.44327
 11
-11.3742
 21
7.70512
  0
LINE
  8
0
 10
-11.3742
 20
7.70512
 11
-12.2897
 21
6.84546
  0
LINE
  8
0
 10
-12.2897
 20
6.84546
 11
-13.0902
 21
5.87784
  0
LINE
  8
0
 10
-13.0902
 20
5.87784
 11
-13.7631
 21
4.81754
  0
LINE
  8
0
 10
-13.7631
 20
4.81754
 11
-14.2978
 21
3.68124
  0
LINE
  8
0
 10
-14.2978
 20
3.68124
 11
-14.6858
 21
2.48689
  0
LINE
  8
0
 10
-14.6858
 20
2.48689
 11
-14.9211
 21
1.25333
  0
LINE
  8
0
 10
-14.9211
 20
1.25333
 11
-15
 21
0
  0
LINE
  8
0
 10
-15
 20
0
 11
-14.9211
 21
-1.25333
  0
LINE
  8
0
 10
-14.9211
 20
-1.25333
 11
-14.6858
 21
-2.48689
  0
LINE
  8
0
 10
-14.6858
 20
-2.48689
 11
-14.2978
 21
-3.68124
  0
LINE
  8
0
 10
-14.2978
 20
-3.68124
 11
-13.7631
 21
-4.81754
  0
LINE
  8
0
 10
-13.7631
 20
-4.81754
 11
-13.0902
 21
-5.87784
  0
LINE
  8
0
 10
-13.0902
 20
-5.87784
 11
-12.2897
 21
-6.84546
  0
LINE
  8
0
 10
-12.2897
 20
-6.84546
 11
-11.3742
 21
-7.70512
  0
LINE
  8
0
 10
-11.3742
 20
-7.70512
 11
-10.3583
 21
-8.44327
  0
LINE
  8
0
 10
-10.3583
 20
-8.44327
 11
-9.25778
 21
-9.04826
  0
LINE
  8
0
 10
-9.25778
 20
-9.04826
 11
-8.09016
 21
-9.51056
  0
LINE
  8
0
 10
-8.09016
 20
-9.51056
 11
-6.87381
 21
-9.82286
  0
LINE
  8
0
 10
-6.87381
 20
-9.82286
 11
-5.6279
 21
-9.98026
  0
LINE
  8
0
 10
-5.6279
 20
-9.98026
 11
5.6279
 21
-9.98026
  0
LINE
  8
0
 10
5.6279
 20
-9.98026
 11
6.87381
 21
-9.82286
  0
LINE
  8
0
 10
-0.180511
 20
-2.86932
 11
-0.538712
 21
-2.82407
  0
LINE
  8
0
 10
-0.538712
 20
-2.82407
 11
-0.888412
 21
-2.73428
  0
LINE
  8
0
 10
-0.888412
 20
-2.73428
 11
-1.22411
 21
-2.60136
  0
LINE
  8
0
 10
-1.22411
 20
-2.60136
 11
-1.5405
 21
-2.42743
  0
LINE
  8
0
 10
-1.5405
 20
-2.42743
 11
-1.83258
 21
-2.21523
  0
LINE
  8
0
 10
-1.83258
 20
-2.21523
 11
-2.09578
 21
-1.96806
  0
LINE
  8
0
 10
-2.09578
 20
-1.96806
 11
-2.32591
 21
-1.68988
  0
LINE
  8
0
 10
-2.32591
 20
-1.68988
 11
-2.51938
 21
-1.38504
  0
LINE
  8
0
 10
-2.51938
 20
-1.38504
 11
-2.6731
 21
-1.05835
  0
LINE
  8
0
 10
-2.6731
 20
-1.05835
 11
-2.78467
 21
-0.714981
  0
LINE
  8
0
 10
-2.78467
 20
-0.714981
 11
-2.85233
 21
-0.360321
  0
LINE
  8
0
 10
-2.85233
 20
-0.360321
 11
-2.875
 21
0
  0
LINE
  8
0
 10
-2.875
 20
0
 11
-2.85233
 21
0.360321
  0
LINE
  8
0
 10
-2.85233
 20
0.360321
 11
-2.78467
 21
0.714981
  0
LINE
  8
0
 10
-2.78467
 20
0.714981
 11
-2.6731
 21
1.05835
  0
LINE
  8
0
 10
-2.6731
 20
1.05835
 11
-2.51938
 21
1.38504
  0
LINE
  8
0
 10
-2.51938
 20
1.38504
 11
-2.32591
 21
1.68988
  0
LINE
  8
0
 10
-2.32591
 20
1.68988
 11
-2.09578
 21
1.96806
  0
LINE
  8
0
 10
-2.09578
 20
1.96806
 11
-1.83258
 21
2.21523
  0
LINE
  8
0
 10
-1.83258
 20
2.21523
 11
-1.5405
 21
2.42743
  0
LINE
  8
0
 10
-1.5405
 20
2.42743
 11
-1.22411
 21
2.60136
  0
LINE
  8
0
 10
-1.22411
 20
2.60136
 11
-0.888412
 21
2.73428
  0
LINE
  8
0
 10
-0.888412
 20
2.73428
 11
-0.538712
 21
2.82407
  0
LINE
  8
0
 10
-0.538712
 20
2.82407
 11
-0.180511
 21
2.86932
  0
LINE
  8
0
 10
-0.180511
 20
2.86932
 11
0.180511
 21
2.86932
  0
LINE
  8
0
 10
0.180511
 20
2.86932
 11
0.538712
 21
2.82407
  0
LINE
  8
0
 10
0.538712
 20
2.82407
 11
0.888412
 21
2.73428
  0
LINE
  8
0
 10
0.888412
 20
2.73428
 11
1.22411
 21
2.60136
  0
LINE
  8
0
 10
1.22411
 20
2.60136
 11
1.5405
 21
2.42743
  0
LINE
  8
0
 10
1.5405
 20
2.42743
 11
1.83258
 21
2.21523
  0
LINE
  8
0
 10
1.83258
 20
2.21523
 11
2.09578
 21
1.96806
  0
LINE
  8
0
 10
2.09578
 20
1.96806
 11
2.32591
 21
1.68988
  0
LINE
  8
0
 10
2.32591
 20
1.68988
 11
2.51938
 21
1.38504
  0
LINE
  8
0
 10
2.51938
 20
1.38504
 11
2.6731
 21
1.05835
  0
LINE
  8
0
 10
2.6731
 20
1.05835
 11
2.78467
 21
0.714981
  0
LINE
  8
0
 10
2.78467
 20
0.714981
 11
2.85233
 21
0.360321
  0
LINE
  8
0
 10
2.85233
 20
0.360321
 11
2.875
 21
0
  0
LINE
  8
0
 10
2.875
 20
0
 11
2.85233
 21
-0.360321
  0
LINE
  8
0
 10
2.85233
 20
-0.360321
 11
2.78467
 21
-0.714981
  0
LINE
  8
0
 10
2.78467
 20
-0.714981
 11
2.6731
 21
-1.05835
  0
LINE
  8
0
 10
2.6731
 20
-1.05835
 11
2.51938
 21
-1.38504
  0
LINE
  8
0
 10
2.51938
 20
-1.38504
 11
2.32591
 21
-1.68988
  0
LINE
  8
0
 10
2.32591
 20
-1.68988
 11
2.09578
 21
-1.96806
  0
LINE
  8
0
 10
2.09578
 20
-1.96806
 11
1.83258
 21
-2.21523
  0
LINE
  8
0
 10
1.83258
 20
-2.21523
 11
1.5405
 21
-2.42743
  0
LINE
  8
0
 10
1.5405
 20
-2.42743
 11
1.22411
 21
-2.60136
  0
LINE
  8
0
 10
1.22411
 20
-2.60136
 11
0.888412
 21
-2.73428
  0
LINE
  8
0
 10
0.888412
 20
-2.73428
 11
0.538712
 21
-2.82407
  0
LINE
  8
0
 10
0.538712
 20
-2.82407
 11
0.180511
 21
-2.86932
  0
LINE
  8
0
 10
0.180511
 20
-2.86932
 11
-0.180511
 21
-2.86932
  0
ENDSEC
  0
SECTION
  2
OBJECTS
  0
DICTIONARY
  0
ENDSEC
  0
EOF
