solid OpenSCAD_Model
  facet normal 0.998027 0.0627852 0
    outer loop
      vertex 13 0 0
      vertex 12.8975 1.62933 -7
      vertex 12.8975 1.62933 0
    endloop
  endfacet
  facet normal 0.998027 0.0627852 0
    outer loop
      vertex 12.8975 1.62933 -7
      vertex 13 0 0
      vertex 13 0 -7
    endloop
  endfacet
  facet normal -0.998027 0.0627852 0
    outer loop
      vertex -13 0 -7
      vertex -12.8975 1.62933 0
      vertex -12.8975 1.62933 -7
    endloop
  endfacet
  facet normal -0.998027 0.0627852 0
    outer loop
      vertex -12.8975 1.62933 0
      vertex -13 0 -7
      vertex -13 0 0
    endloop
  endfacet
  facet normal 0 1 -0
    outer loop
      vertex 0.816277 12.9743 -7
      vertex -0.816277 12.9743 0
      vertex 0.816277 12.9743 0
    endloop
  endfacet
  facet normal 0 1 0
    outer loop
      vertex -0.816277 12.9743 0
      vertex 0.816277 12.9743 -7
      vertex -0.816277 12.9743 -7
    endloop
  endfacet
  facet normal 0 -1 0
    outer loop
      vertex -0.816277 -12.9743 -7
      vertex 0.816277 -12.9743 0
      vertex -0.816277 -12.9743 0
    endloop
  endfacet
  facet normal 0 -1 -0
    outer loop
      vertex 0.816277 -12.9743 0
      vertex -0.816277 -12.9743 -7
      vertex 0.816277 -12.9743 -7
    endloop
  endfacet
  facet normal 0.770518 -0.637418 0
    outer loop
      vertex 9.47659 -8.89911 0
      vertex 10.5172 -7.64121 -7
      vertex 10.5172 -7.64121 0
    endloop
  endfacet
  facet normal 0.770518 -0.637418 0
    outer loop
      vertex 10.5172 -7.64121 -7
      vertex 9.47659 -8.89911 0
      vertex 9.47659 -8.89911 -7
    endloop
  endfacet
  facet normal 0.684557 0.728959 -0
    outer loop
      vertex 9.47659 8.89911 -7
      vertex 8.28651 10.0167 0
      vertex 9.47659 8.89911 0
    endloop
  endfacet
  facet normal 0.684557 0.728959 0
    outer loop
      vertex 8.28651 10.0167 0
      vertex 9.47659 8.89911 -7
      vertex 8.28651 10.0167 -7
    endloop
  endfacet
  facet normal -0.684557 0.728959 0
    outer loop
      vertex -8.28651 10.0167 -7
      vertex -9.47659 8.89911 0
      vertex -8.28651 10.0167 0
    endloop
  endfacet
  facet normal -0.684557 0.728959 0
    outer loop
      vertex -9.47659 8.89911 0
      vertex -8.28651 10.0167 -7
      vertex -9.47659 8.89911 -7
    endloop
  endfacet
  facet normal -0.368081 0.929794 0
    outer loop
      vertex -4.01722 12.3637 -7
      vertex -5.53513 11.7628 0
      vertex -4.01722 12.3637 0
    endloop
  endfacet
  facet normal -0.368081 0.929794 0
    outer loop
      vertex -5.53513 11.7628 0
      vertex -4.01722 12.3637 -7
      vertex -5.53513 11.7628 -7
    endloop
  endfacet
  facet normal 0.904829 0.425775 0
    outer loop
      vertex 12.0871 4.78562 0
      vertex 11.392 6.2628 -7
      vertex 11.392 6.2628 0
    endloop
  endfacet
  facet normal 0.904829 0.425775 0
    outer loop
      vertex 11.392 6.2628 -7
      vertex 12.0871 4.78562 0
      vertex 12.0871 4.78562 -7
    endloop
  endfacet
  facet normal 0.368081 0.929794 -0
    outer loop
      vertex 5.53513 11.7628 -7
      vertex 4.01722 12.3637 0
      vertex 5.53513 11.7628 0
    endloop
  endfacet
  facet normal 0.368081 0.929794 0
    outer loop
      vertex 4.01722 12.3637 0
      vertex 5.53513 11.7628 -7
      vertex 4.01722 12.3637 -7
    endloop
  endfacet
  facet normal 0.481758 0.876304 -0
    outer loop
      vertex 6.96575 10.9763 -7
      vertex 5.53513 11.7628 0
      vertex 6.96575 10.9763 0
    endloop
  endfacet
  facet normal 0.481758 0.876304 0
    outer loop
      vertex 5.53513 11.7628 0
      vertex 6.96575 10.9763 -7
      vertex 5.53513 11.7628 -7
    endloop
  endfacet
  facet normal -0.904829 0.425775 0
    outer loop
      vertex -12.0871 4.78562 -7
      vertex -11.392 6.2628 0
      vertex -11.392 6.2628 -7
    endloop
  endfacet
  facet normal -0.904829 0.425775 0
    outer loop
      vertex -11.392 6.2628 0
      vertex -12.0871 4.78562 -7
      vertex -12.0871 4.78562 0
    endloop
  endfacet
  facet normal -0.770518 0.637418 0
    outer loop
      vertex -10.5172 7.64121 -7
      vertex -9.47659 8.89911 0
      vertex -9.47659 8.89911 -7
    endloop
  endfacet
  facet normal -0.770518 0.637418 0
    outer loop
      vertex -9.47659 8.89911 0
      vertex -10.5172 7.64121 -7
      vertex -10.5172 7.64121 0
    endloop
  endfacet
  facet normal 0 0 1
    outer loop
      vertex 10.1 0 0
      vertex 13 0 0
      vertex 12.8975 1.62933 0
    endloop
  endfacet
  facet normal 0 0 1
    outer loop
      vertex 10.0204 1.26587 0
      vertex 12.8975 1.62933 0
      vertex 12.5916 3.23297 0
    endloop
  endfacet
  facet normal 0 0 1
    outer loop
      vertex 13 0 0
      vertex 10.1 0 0
      vertex 12.8975 -1.62933 0
    endloop
  endfacet
  facet normal 0 0 1
    outer loop
      vertex 9.78269 2.51177 0
      vertex 12.5916 3.23297 0
      vertex 12.0871 4.78562 0
    endloop
  endfacet
  facet normal -0 0 1
    outer loop
      vertex 10.0204 -1.26587 0
      vertex 12.8975 -1.62933 0
      vertex 10.1 0 0
    endloop
  endfacet
  facet normal 0 0 1
    outer loop
      vertex 9.39074 3.71806 0
      vertex 12.0871 4.78562 0
      vertex 11.392 6.2628 0
    endloop
  endfacet
  facet normal 0 0 1
    outer loop
      vertex 12.8975 -1.62933 0
      vertex 10.0204 -1.26587 0
      vertex 12.5916 -3.23297 0
    endloop
  endfacet
  facet normal 0 0 1
    outer loop
      vertex 8.8507 4.86571 0
      vertex 11.392 6.2628 0
      vertex 10.5172 7.64121 0
    endloop
  endfacet
  facet normal -0 0 1
    outer loop
      vertex 9.78269 -2.51177 0
      vertex 12.5916 -3.23297 0
      vertex 10.0204 -1.26587 0
    endloop
  endfacet
  facet normal 0 0 1
    outer loop
      vertex 12.5916 -3.23297 0
      vertex 9.78269 -2.51177 0
      vertex 12.0871 -4.78562 0
    endloop
  endfacet
  facet normal 0 0 1
    outer loop
      vertex 12.8975 1.62933 0
      vertex 10.0204 1.26587 0
      vertex 10.1 0 0
    endloop
  endfacet
  facet normal 0 0 1
    outer loop
      vertex 12.5916 3.23297 0
      vertex 9.78269 2.51177 0
      vertex 10.0204 1.26587 0
    endloop
  endfacet
  facet normal 0 0 1
    outer loop
      vertex 8.17107 5.93663 0
      vertex 10.5172 7.64121 0
      vertex 9.47659 8.89911 0
    endloop
  endfacet
  facet normal 0 0 1
    outer loop
      vertex 12.0871 4.78562 0
      vertex 9.39074 3.71806 0
      vertex 9.78269 2.51177 0
    endloop
  endfacet
  facet normal 0 0 1
    outer loop
      vertex 11.392 6.2628 0
      vertex 8.8507 4.86571 0
      vertex 9.39074 3.71806 0
    endloop
  endfacet
  facet normal 0 0 1
    outer loop
      vertex 7.36258 6.91393 0
      vertex 9.47659 8.89911 0
      vertex 8.28651 10.0167 0
    endloop
  endfacet
  facet normal 0 0 1
    outer loop
      vertex 10.5172 7.64121 0
      vertex 8.17107 5.93663 0
      vertex 8.8507 4.86571 0
    endloop
  endfacet
  facet normal 0 0 1
    outer loop
      vertex 9.47659 8.89911 0
      vertex 7.36258 6.91393 0
      vertex 8.17107 5.93663 0
    endloop
  endfacet
  facet normal 0 0 1
    outer loop
      vertex 6.43798 7.78218 0
      vertex 8.28651 10.0167 0
      vertex 6.96575 10.9763 0
    endloop
  endfacet
  facet normal 0 0 1
    outer loop
      vertex 8.28651 10.0167 0
      vertex 6.43798 7.78218 0
      vertex 7.36258 6.91393 0
    endloop
  endfacet
  facet normal 0 0 1
    outer loop
      vertex 5.41185 8.52771 0
      vertex 6.96575 10.9763 0
      vertex 5.53513 11.7628 0
    endloop
  endfacet
  facet normal 0 0 1
    outer loop
      vertex 6.96575 10.9763 0
      vertex 5.41185 8.52771 0
      vertex 6.43798 7.78218 0
    endloop
  endfacet
  facet normal 0 0 1
    outer loop
      vertex 5.53513 11.7628 0
      vertex 4.30037 9.13875 0
      vertex 5.41185 8.52771 0
    endloop
  endfacet
  facet normal 0 0 1
    outer loop
      vertex 4.01722 12.3637 0
      vertex 4.30037 9.13875 0
      vertex 5.53513 11.7628 0
    endloop
  endfacet
  facet normal 0 0 1
    outer loop
      vertex 4.01722 12.3637 0
      vertex 3.12107 9.60567 0
      vertex 4.30037 9.13875 0
    endloop
  endfacet
  facet normal 0 0 1
    outer loop
      vertex 2.43596 12.7697 0
      vertex 3.12107 9.60567 0
      vertex 4.01722 12.3637 0
    endloop
  endfacet
  facet normal 0 0 1
    outer loop
      vertex 2.43596 12.7697 0
      vertex 1.89255 9.9211 0
      vertex 3.12107 9.60567 0
    endloop
  endfacet
  facet normal 0 0 1
    outer loop
      vertex 0.816277 12.9743 0
      vertex 1.89255 9.9211 0
      vertex 2.43596 12.7697 0
    endloop
  endfacet
  facet normal 0 0 1
    outer loop
      vertex 0.816277 12.9743 0
      vertex 0.634184 10.0801 0
      vertex 1.89255 9.9211 0
    endloop
  endfacet
  facet normal 0 0 1
    outer loop
      vertex 0.816277 12.9743 0
      vertex -0.634184 10.0801 0
      vertex 0.634184 10.0801 0
    endloop
  endfacet
  facet normal -0 0 1
    outer loop
      vertex -0.816277 12.9743 0
      vertex -0.634184 10.0801 0
      vertex 0.816277 12.9743 0
    endloop
  endfacet
  facet normal 0 0 1
    outer loop
      vertex -0.816277 12.9743 0
      vertex -1.89255 9.9211 0
      vertex -0.634184 10.0801 0
    endloop
  endfacet
  facet normal -0 0 1
    outer loop
      vertex -2.43596 12.7697 0
      vertex -1.89255 9.9211 0
      vertex -0.816277 12.9743 0
    endloop
  endfacet
  facet normal 0 0 1
    outer loop
      vertex -2.43596 12.7697 0
      vertex -3.12107 9.60567 0
      vertex -1.89255 9.9211 0
    endloop
  endfacet
  facet normal -0 0 1
    outer loop
      vertex -4.01722 12.3637 0
      vertex -3.12107 9.60567 0
      vertex -2.43596 12.7697 0
    endloop
  endfacet
  facet normal 0 0 1
    outer loop
      vertex -4.01722 12.3637 0
      vertex -4.30037 9.13875 0
      vertex -3.12107 9.60567 0
    endloop
  endfacet
  facet normal -0 0 1
    outer loop
      vertex -5.53513 11.7628 0
      vertex -4.30037 9.13875 0
      vertex -4.01722 12.3637 0
    endloop
  endfacet
  facet normal 0 0 1
    outer loop
      vertex -4.30037 9.13875 0
      vertex -5.53513 11.7628 0
      vertex -5.41185 8.52771 0
    endloop
  endfacet
  facet normal -0 0 1
    outer loop
      vertex -6.96575 10.9763 0
      vertex -5.41185 8.52771 0
      vertex -5.53513 11.7628 0
    endloop
  endfacet
  facet normal 0 0 1
    outer loop
      vertex -5.41185 8.52771 0
      vertex -6.96575 10.9763 0
      vertex -6.43798 7.78218 0
    endloop
  endfacet
  facet normal -0 0 1
    outer loop
      vertex -8.28651 10.0167 0
      vertex -6.43798 7.78218 0
      vertex -6.96575 10.9763 0
    endloop
  endfacet
  facet normal 0 0 1
    outer loop
      vertex -6.43798 7.78218 0
      vertex -8.28651 10.0167 0
      vertex -7.36258 6.91393 0
    endloop
  endfacet
  facet normal -0 0 1
    outer loop
      vertex -9.47659 8.89911 0
      vertex -7.36258 6.91393 0
      vertex -8.28651 10.0167 0
    endloop
  endfacet
  facet normal 0 0 1
    outer loop
      vertex -7.36258 6.91393 0
      vertex -9.47659 8.89911 0
      vertex -8.17107 5.93663 0
    endloop
  endfacet
  facet normal -0 0 1
    outer loop
      vertex -10.5172 7.64121 0
      vertex -8.17107 5.93663 0
      vertex -9.47659 8.89911 0
    endloop
  endfacet
  facet normal 0 0 1
    outer loop
      vertex -8.17107 5.93663 0
      vertex -10.5172 7.64121 0
      vertex -8.8507 4.86571 0
    endloop
  endfacet
  facet normal -0 0 1
    outer loop
      vertex -11.392 6.2628 0
      vertex -8.8507 4.86571 0
      vertex -10.5172 7.64121 0
    endloop
  endfacet
  facet normal 0 0 1
    outer loop
      vertex -8.8507 4.86571 0
      vertex -11.392 6.2628 0
      vertex -9.39074 3.71806 0
    endloop
  endfacet
  facet normal 0 0 1
    outer loop
      vertex -9.39074 3.71806 0
      vertex -12.0871 4.78562 0
      vertex -9.78269 2.51177 0
    endloop
  endfacet
  facet normal -0 0 1
    outer loop
      vertex -12.0871 4.78562 0
      vertex -9.39074 3.71806 0
      vertex -11.392 6.2628 0
    endloop
  endfacet
  facet normal -0 0 1
    outer loop
      vertex 9.39074 -3.71806 0
      vertex 12.0871 -4.78562 0
      vertex 9.78269 -2.51177 0
    endloop
  endfacet
  facet normal 0 0 1
    outer loop
      vertex 12.0871 -4.78562 0
      vertex 9.39074 -3.71806 0
      vertex 11.392 -6.2628 0
    endloop
  endfacet
  facet normal -0 0 1
    outer loop
      vertex 8.8507 -4.86571 0
      vertex 11.392 -6.2628 0
      vertex 9.39074 -3.71806 0
    endloop
  endfacet
  facet normal 0 0 1
    outer loop
      vertex 11.392 -6.2628 0
      vertex 8.8507 -4.86571 0
      vertex 10.5172 -7.64121 0
    endloop
  endfacet
  facet normal -0 0 1
    outer loop
      vertex 8.17107 -5.93663 0
      vertex 10.5172 -7.64121 0
      vertex 8.8507 -4.86571 0
    endloop
  endfacet
  facet normal 0 0 1
    outer loop
      vertex 10.5172 -7.64121 0
      vertex 8.17107 -5.93663 0
      vertex 9.47659 -8.89911 0
    endloop
  endfacet
  facet normal -0 0 1
    outer loop
      vertex 7.36258 -6.91393 0
      vertex 9.47659 -8.89911 0
      vertex 8.17107 -5.93663 0
    endloop
  endfacet
  facet normal 0 0 1
    outer loop
      vertex 9.47659 -8.89911 0
      vertex 7.36258 -6.91393 0
      vertex 8.28651 -10.0167 0
    endloop
  endfacet
  facet normal -0 0 1
    outer loop
      vertex 6.43798 -7.78218 0
      vertex 8.28651 -10.0167 0
      vertex 7.36258 -6.91393 0
    endloop
  endfacet
  facet normal 0 0 1
    outer loop
      vertex 8.28651 -10.0167 0
      vertex 6.43798 -7.78218 0
      vertex 6.96575 -10.9763 0
    endloop
  endfacet
  facet normal -0 0 1
    outer loop
      vertex 5.41185 -8.52771 0
      vertex 6.96575 -10.9763 0
      vertex 6.43798 -7.78218 0
    endloop
  endfacet
  facet normal 0 0 1
    outer loop
      vertex 6.96575 -10.9763 0
      vertex 5.41185 -8.52771 0
      vertex 5.53513 -11.7628 0
    endloop
  endfacet
  facet normal -0 0 1
    outer loop
      vertex 4.30037 -9.13875 0
      vertex 5.53513 -11.7628 0
      vertex 5.41185 -8.52771 0
    endloop
  endfacet
  facet normal 0 0 1
    outer loop
      vertex 4.30037 -9.13875 0
      vertex 4.01722 -12.3637 0
      vertex 5.53513 -11.7628 0
    endloop
  endfacet
  facet normal -0 0 1
    outer loop
      vertex 3.12107 -9.60567 0
      vertex 4.01722 -12.3637 0
      vertex 4.30037 -9.13875 0
    endloop
  endfacet
  facet normal 0 0 1
    outer loop
      vertex 3.12107 -9.60567 0
      vertex 2.43596 -12.7697 0
      vertex 4.01722 -12.3637 0
    endloop
  endfacet
  facet normal -0 0 1
    outer loop
      vertex 1.89255 -9.9211 0
      vertex 2.43596 -12.7697 0
      vertex 3.12107 -9.60567 0
    endloop
  endfacet
  facet normal 0 0 1
    outer loop
      vertex 1.89255 -9.9211 0
      vertex 0.816277 -12.9743 0
      vertex 2.43596 -12.7697 0
    endloop
  endfacet
  facet normal -0 0 1
    outer loop
      vertex 0.634184 -10.0801 0
      vertex 0.816277 -12.9743 0
      vertex 1.89255 -9.9211 0
    endloop
  endfacet
  facet normal -0 0 1
    outer loop
      vertex -0.634184 -10.0801 0
      vertex 0.816277 -12.9743 0
      vertex 0.634184 -10.0801 0
    endloop
  endfacet
  facet normal 0 0 1
    outer loop
      vertex -0.634184 -10.0801 0
      vertex -0.816277 -12.9743 0
      vertex 0.816277 -12.9743 0
    endloop
  endfacet
  facet normal 0 0 1
    outer loop
      vertex -1.89255 -9.9211 0
      vertex -0.816277 -12.9743 0
      vertex -0.634184 -10.0801 0
    endloop
  endfacet
  facet normal 0 0 1
    outer loop
      vertex -1.89255 -9.9211 0
      vertex -2.43596 -12.7697 0
      vertex -0.816277 -12.9743 0
    endloop
  endfacet
  facet normal 0 0 1
    outer loop
      vertex -3.12107 -9.60567 0
      vertex -2.43596 -12.7697 0
      vertex -1.89255 -9.9211 0
    endloop
  endfacet
  facet normal 0 0 1
    outer loop
      vertex -3.12107 -9.60567 0
      vertex -4.01722 -12.3637 0
      vertex -2.43596 -12.7697 0
    endloop
  endfacet
  facet normal 0 0 1
    outer loop
      vertex -4.30037 -9.13875 0
      vertex -4.01722 -12.3637 0
      vertex -3.12107 -9.60567 0
    endloop
  endfacet
  facet normal 0 0 1
    outer loop
      vertex -5.53513 -11.7628 0
      vertex -4.30037 -9.13875 0
      vertex -5.41185 -8.52771 0
    endloop
  endfacet
  facet normal 0 0 1
    outer loop
      vertex -4.30037 -9.13875 0
      vertex -5.53513 -11.7628 0
      vertex -4.01722 -12.3637 0
    endloop
  endfacet
  facet normal 0 0 1
    outer loop
      vertex -6.96575 -10.9763 0
      vertex -5.41185 -8.52771 0
      vertex -6.43798 -7.78218 0
    endloop
  endfacet
  facet normal 0 0 1
    outer loop
      vertex -5.41185 -8.52771 0
      vertex -6.96575 -10.9763 0
      vertex -5.53513 -11.7628 0
    endloop
  endfacet
  facet normal 0 0 1
    outer loop
      vertex -8.28651 -10.0167 0
      vertex -6.43798 -7.78218 0
      vertex -7.36258 -6.91393 0
    endloop
  endfacet
  facet normal 0 0 1
    outer loop
      vertex -9.47659 -8.89911 0
      vertex -7.36258 -6.91393 0
      vertex -8.17107 -5.93663 0
    endloop
  endfacet
  facet normal 0 0 1
    outer loop
      vertex -6.43798 -7.78218 0
      vertex -8.28651 -10.0167 0
      vertex -6.96575 -10.9763 0
    endloop
  endfacet
  facet normal 0 0 1
    outer loop
      vertex -10.5172 -7.64121 0
      vertex -8.17107 -5.93663 0
      vertex -8.8507 -4.86571 0
    endloop
  endfacet
  facet normal 0 0 1
    outer loop
      vertex -11.392 -6.2628 0
      vertex -8.8507 -4.86571 0
      vertex -9.39074 -3.71806 0
    endloop
  endfacet
  facet normal 0 0 1
    outer loop
      vertex -7.36258 -6.91393 0
      vertex -9.47659 -8.89911 0
      vertex -8.28651 -10.0167 0
    endloop
  endfacet
  facet normal 0 0 1
    outer loop
      vertex -12.0871 -4.78562 0
      vertex -9.39074 -3.71806 0
      vertex -9.78269 -2.51177 0
    endloop
  endfacet
  facet normal 0 0 1
    outer loop
      vertex -12.5916 -3.23297 0
      vertex -9.78269 -2.51177 0
      vertex -10.0204 -1.26587 0
    endloop
  endfacet
  facet normal 0 0 1
    outer loop
      vertex -8.17107 -5.93663 0
      vertex -10.5172 -7.64121 0
      vertex -9.47659 -8.89911 0
    endloop
  endfacet
  facet normal 0 0 1
    outer loop
      vertex -12.8975 -1.62933 0
      vertex -10.0204 -1.26587 0
      vertex -10.1 0 0
    endloop
  endfacet
  facet normal -0 0 1
    outer loop
      vertex -12.5916 3.23297 0
      vertex -9.78269 2.51177 0
      vertex -12.0871 4.78562 0
    endloop
  endfacet
  facet normal 0 0 1
    outer loop
      vertex -9.78269 2.51177 0
      vertex -12.5916 3.23297 0
      vertex -10.0204 1.26587 0
    endloop
  endfacet
  facet normal 0 0 1
    outer loop
      vertex -8.8507 -4.86571 0
      vertex -11.392 -6.2628 0
      vertex -10.5172 -7.64121 0
    endloop
  endfacet
  facet normal -0 0 1
    outer loop
      vertex -12.8975 1.62933 0
      vertex -10.0204 1.26587 0
      vertex -12.5916 3.23297 0
    endloop
  endfacet
  facet normal 0 0 1
    outer loop
      vertex -9.39074 -3.71806 0
      vertex -12.0871 -4.78562 0
      vertex -11.392 -6.2628 0
    endloop
  endfacet
  facet normal 0 0 1
    outer loop
      vertex -10.0204 1.26587 0
      vertex -12.8975 1.62933 0
      vertex -10.1 0 0
    endloop
  endfacet
  facet normal 0 0 1
    outer loop
      vertex -9.78269 -2.51177 0
      vertex -12.5916 -3.23297 0
      vertex -12.0871 -4.78562 0
    endloop
  endfacet
  facet normal 0 0 1
    outer loop
      vertex -13 0 0
      vertex -10.1 0 0
      vertex -12.8975 1.62933 0
    endloop
  endfacet
  facet normal 0 0 1
    outer loop
      vertex -10.0204 -1.26587 0
      vertex -12.8975 -1.62933 0
      vertex -12.5916 -3.23297 0
    endloop
  endfacet
  facet normal 0 0 1
    outer loop
      vertex -10.1 0 0
      vertex -13 0 0
      vertex -12.8975 -1.62933 0
    endloop
  endfacet
  facet normal -0.248691 0.968583 0
    outer loop
      vertex -2.43596 12.7697 -7
      vertex -4.01722 12.3637 0
      vertex -2.43596 12.7697 0
    endloop
  endfacet
  facet normal -0.248691 0.968583 0
    outer loop
      vertex -4.01722 12.3637 0
      vertex -2.43596 12.7697 -7
      vertex -4.01722 12.3637 -7
    endloop
  endfacet
  facet normal 0 0 -1
    outer loop
      vertex 12.8975 -1.62933 -7
      vertex 12.8975 1.62933 -7
      vertex 13 0 -7
    endloop
  endfacet
  facet normal 0 0 -1
    outer loop
      vertex 12.5916 -3.23297 -7
      vertex 12.8975 1.62933 -7
      vertex 12.8975 -1.62933 -7
    endloop
  endfacet
  facet normal 0 0 -1
    outer loop
      vertex 12.5916 -3.23297 -7
      vertex 12.5916 3.23297 -7
      vertex 12.8975 1.62933 -7
    endloop
  endfacet
  facet normal 0 0 -1
    outer loop
      vertex 12.0871 -4.78562 -7
      vertex 12.5916 3.23297 -7
      vertex 12.5916 -3.23297 -7
    endloop
  endfacet
  facet normal 0 0 -1
    outer loop
      vertex 12.0871 -4.78562 -7
      vertex 12.0871 4.78562 -7
      vertex 12.5916 3.23297 -7
    endloop
  endfacet
  facet normal 0 0 -1
    outer loop
      vertex 11.392 -6.2628 -7
      vertex 12.0871 4.78562 -7
      vertex 12.0871 -4.78562 -7
    endloop
  endfacet
  facet normal 0 0 -1
    outer loop
      vertex 11.392 -6.2628 -7
      vertex 11.392 6.2628 -7
      vertex 12.0871 4.78562 -7
    endloop
  endfacet
  facet normal 0 0 -1
    outer loop
      vertex 10.5172 -7.64121 -7
      vertex 11.392 6.2628 -7
      vertex 11.392 -6.2628 -7
    endloop
  endfacet
  facet normal 0 0 -1
    outer loop
      vertex 10.5172 -7.64121 -7
      vertex 10.5172 7.64121 -7
      vertex 11.392 6.2628 -7
    endloop
  endfacet
  facet normal 0 0 -1
    outer loop
      vertex 9.47659 -8.89911 -7
      vertex 10.5172 7.64121 -7
      vertex 10.5172 -7.64121 -7
    endloop
  endfacet
  facet normal 0 0 -1
    outer loop
      vertex 9.47659 -8.89911 -7
      vertex 9.47659 8.89911 -7
      vertex 10.5172 7.64121 -7
    endloop
  endfacet
  facet normal 0 0 -1
    outer loop
      vertex 8.28651 -10.0167 -7
      vertex 9.47659 8.89911 -7
      vertex 9.47659 -8.89911 -7
    endloop
  endfacet
  facet normal 0 0 -1
    outer loop
      vertex 8.28651 -10.0167 -7
      vertex 8.28651 10.0167 -7
      vertex 9.47659 8.89911 -7
    endloop
  endfacet
  facet normal 0 0 -1
    outer loop
      vertex 6.96575 -10.9763 -7
      vertex 8.28651 10.0167 -7
      vertex 8.28651 -10.0167 -7
    endloop
  endfacet
  facet normal 0 0 -1
    outer loop
      vertex 6.96575 -10.9763 -7
      vertex 6.96575 10.9763 -7
      vertex 8.28651 10.0167 -7
    endloop
  endfacet
  facet normal 0 0 -1
    outer loop
      vertex 5.53513 -11.7628 -7
      vertex 6.96575 10.9763 -7
      vertex 6.96575 -10.9763 -7
    endloop
  endfacet
  facet normal 0 0 -1
    outer loop
      vertex 5.53513 -11.7628 -7
      vertex 5.53513 11.7628 -7
      vertex 6.96575 10.9763 -7
    endloop
  endfacet
  facet normal 0 0 -1
    outer loop
      vertex 4.01722 -12.3637 -7
      vertex 5.53513 11.7628 -7
      vertex 5.53513 -11.7628 -7
    endloop
  endfacet
  facet normal 0 0 -1
    outer loop
      vertex 4.01722 -12.3637 -7
      vertex 4.01722 12.3637 -7
      vertex 5.53513 11.7628 -7
    endloop
  endfacet
  facet normal 0 0 -1
    outer loop
      vertex 2.43596 -12.7697 -7
      vertex 4.01722 12.3637 -7
      vertex 4.01722 -12.3637 -7
    endloop
  endfacet
  facet normal 0 0 -1
    outer loop
      vertex 2.43596 -12.7697 -7
      vertex 2.43596 12.7697 -7
      vertex 4.01722 12.3637 -7
    endloop
  endfacet
  facet normal 0 0 -1
    outer loop
      vertex 0.816277 -12.9743 -7
      vertex 2.43596 12.7697 -7
      vertex 2.43596 -12.7697 -7
    endloop
  endfacet
  facet normal 0 0 -1
    outer loop
      vertex 0.816277 -12.9743 -7
      vertex 0.816277 12.9743 -7
      vertex 2.43596 12.7697 -7
    endloop
  endfacet
  facet normal 0 0 -1
    outer loop
      vertex -0.816277 -12.9743 -7
      vertex 0.816277 12.9743 -7
      vertex 0.816277 -12.9743 -7
    endloop
  endfacet
  facet normal 0 0 -1
    outer loop
      vertex -0.816277 -12.9743 -7
      vertex -0.816277 12.9743 -7
      vertex 0.816277 12.9743 -7
    endloop
  endfacet
  facet normal 0 0 -1
    outer loop
      vertex -2.43596 -12.7697 -7
      vertex -0.816277 12.9743 -7
      vertex -0.816277 -12.9743 -7
    endloop
  endfacet
  facet normal 0 0 -1
    outer loop
      vertex -2.43596 -12.7697 -7
      vertex -2.43596 12.7697 -7
      vertex -0.816277 12.9743 -7
    endloop
  endfacet
  facet normal 0 0 -1
    outer loop
      vertex -4.01722 -12.3637 -7
      vertex -2.43596 12.7697 -7
      vertex -2.43596 -12.7697 -7
    endloop
  endfacet
  facet normal 0 0 -1
    outer loop
      vertex -4.01722 -12.3637 -7
      vertex -4.01722 12.3637 -7
      vertex -2.43596 12.7697 -7
    endloop
  endfacet
  facet normal 0 0 -1
    outer loop
      vertex -5.53513 -11.7628 -7
      vertex -4.01722 12.3637 -7
      vertex -4.01722 -12.3637 -7
    endloop
  endfacet
  facet normal 0 0 -1
    outer loop
      vertex -5.53513 -11.7628 -7
      vertex -5.53513 11.7628 -7
      vertex -4.01722 12.3637 -7
    endloop
  endfacet
  facet normal 0 0 -1
    outer loop
      vertex -6.96575 -10.9763 -7
      vertex -5.53513 11.7628 -7
      vertex -5.53513 -11.7628 -7
    endloop
  endfacet
  facet normal 0 0 -1
    outer loop
      vertex -6.96575 -10.9763 -7
      vertex -6.96575 10.9763 -7
      vertex -5.53513 11.7628 -7
    endloop
  endfacet
  facet normal 0 0 -1
    outer loop
      vertex -8.28651 -10.0167 -7
      vertex -6.96575 10.9763 -7
      vertex -6.96575 -10.9763 -7
    endloop
  endfacet
  facet normal 0 0 -1
    outer loop
      vertex -8.28651 -10.0167 -7
      vertex -8.28651 10.0167 -7
      vertex -6.96575 10.9763 -7
    endloop
  endfacet
  facet normal 0 0 -1
    outer loop
      vertex -9.47659 -8.89911 -7
      vertex -8.28651 10.0167 -7
      vertex -8.28651 -10.0167 -7
    endloop
  endfacet
  facet normal 0 0 -1
    outer loop
      vertex -9.47659 -8.89911 -7
      vertex -9.47659 8.89911 -7
      vertex -8.28651 10.0167 -7
    endloop
  endfacet
  facet normal 0 0 -1
    outer loop
      vertex -10.5172 -7.64121 -7
      vertex -9.47659 8.89911 -7
      vertex -9.47659 -8.89911 -7
    endloop
  endfacet
  facet normal 0 0 -1
    outer loop
      vertex -10.5172 -7.64121 -7
      vertex -10.5172 7.64121 -7
      vertex -9.47659 8.89911 -7
    endloop
  endfacet
  facet normal 0 0 -1
    outer loop
      vertex -11.392 -6.2628 -7
      vertex -10.5172 7.64121 -7
      vertex -10.5172 -7.64121 -7
    endloop
  endfacet
  facet normal 0 0 -1
    outer loop
      vertex -11.392 -6.2628 -7
      vertex -11.392 6.2628 -7
      vertex -10.5172 7.64121 -7
    endloop
  endfacet
  facet normal 0 0 -1
    outer loop
      vertex -12.0871 -4.78562 -7
      vertex -11.392 6.2628 -7
      vertex -11.392 -6.2628 -7
    endloop
  endfacet
  facet normal 0 0 -1
    outer loop
      vertex -12.0871 -4.78562 -7
      vertex -12.0871 4.78562 -7
      vertex -11.392 6.2628 -7
    endloop
  endfacet
  facet normal 0 0 -1
    outer loop
      vertex -12.5916 -3.23297 -7
      vertex -12.0871 4.78562 -7
      vertex -12.0871 -4.78562 -7
    endloop
  endfacet
  facet normal 0 0 -1
    outer loop
      vertex -12.5916 -3.23297 -7
      vertex -12.5916 3.23297 -7
      vertex -12.0871 4.78562 -7
    endloop
  endfacet
  facet normal 0 0 -1
    outer loop
      vertex -12.8975 -1.62933 -7
      vertex -12.5916 3.23297 -7
      vertex -12.5916 -3.23297 -7
    endloop
  endfacet
  facet normal 0 0 -1
    outer loop
      vertex -12.8975 -1.62933 -7
      vertex -12.8975 1.62933 -7
      vertex -12.5916 3.23297 -7
    endloop
  endfacet
  facet normal 0 -0 -1
    outer loop
      vertex -12.8975 1.62933 -7
      vertex -12.8975 -1.62933 -7
      vertex -13 0 -7
    endloop
  endfacet
  facet normal 0.951054 0.309024 0
    outer loop
      vertex 12.5916 3.23297 0
      vertex 12.0871 4.78562 -7
      vertex 12.0871 4.78562 0
    endloop
  endfacet
  facet normal 0.951054 0.309024 0
    outer loop
      vertex 12.0871 4.78562 -7
      vertex 12.5916 3.23297 0
      vertex 12.5916 3.23297 -7
    endloop
  endfacet
  facet normal 0.982288 0.187375 0
    outer loop
      vertex 12.8975 1.62933 0
      vertex 12.5916 3.23297 -7
      vertex 12.5916 3.23297 0
    endloop
  endfacet
  facet normal 0.982288 0.187375 0
    outer loop
      vertex 12.5916 3.23297 -7
      vertex 12.8975 1.62933 0
      vertex 12.8975 1.62933 -7
    endloop
  endfacet
  facet normal 0.770518 0.637418 0
    outer loop
      vertex 10.5172 7.64121 0
      vertex 9.47659 8.89911 -7
      vertex 9.47659 8.89911 0
    endloop
  endfacet
  facet normal 0.770518 0.637418 0
    outer loop
      vertex 9.47659 8.89911 -7
      vertex 10.5172 7.64121 0
      vertex 10.5172 7.64121 -7
    endloop
  endfacet
  facet normal 0.844318 0.535842 0
    outer loop
      vertex 11.392 6.2628 0
      vertex 10.5172 7.64121 -7
      vertex 10.5172 7.64121 0
    endloop
  endfacet
  facet normal 0.844318 0.535842 0
    outer loop
      vertex 10.5172 7.64121 -7
      vertex 11.392 6.2628 0
      vertex 11.392 6.2628 -7
    endloop
  endfacet
  facet normal 0.248691 0.968583 -0
    outer loop
      vertex 4.01722 12.3637 -7
      vertex 2.43596 12.7697 0
      vertex 4.01722 12.3637 0
    endloop
  endfacet
  facet normal 0.248691 0.968583 0
    outer loop
      vertex 2.43596 12.7697 0
      vertex 4.01722 12.3637 -7
      vertex 2.43596 12.7697 -7
    endloop
  endfacet
  facet normal 0.125325 0.992116 -0
    outer loop
      vertex 2.43596 12.7697 -7
      vertex 0.816277 12.9743 0
      vertex 2.43596 12.7697 0
    endloop
  endfacet
  facet normal 0.125325 0.992116 0
    outer loop
      vertex 0.816277 12.9743 0
      vertex 2.43596 12.7697 -7
      vertex 0.816277 12.9743 -7
    endloop
  endfacet
  facet normal 0.58779 0.809014 -0
    outer loop
      vertex 8.28651 10.0167 -7
      vertex 6.96575 10.9763 0
      vertex 8.28651 10.0167 0
    endloop
  endfacet
  facet normal 0.58779 0.809014 0
    outer loop
      vertex 6.96575 10.9763 0
      vertex 8.28651 10.0167 -7
      vertex 6.96575 10.9763 -7
    endloop
  endfacet
  facet normal -0.844318 0.535842 0
    outer loop
      vertex -11.392 6.2628 -7
      vertex -10.5172 7.64121 0
      vertex -10.5172 7.64121 -7
    endloop
  endfacet
  facet normal -0.844318 0.535842 0
    outer loop
      vertex -10.5172 7.64121 0
      vertex -11.392 6.2628 -7
      vertex -11.392 6.2628 0
    endloop
  endfacet
  facet normal -0.951054 0.309024 0
    outer loop
      vertex -12.5916 3.23297 -7
      vertex -12.0871 4.78562 0
      vertex -12.0871 4.78562 -7
    endloop
  endfacet
  facet normal -0.951054 0.309024 0
    outer loop
      vertex -12.0871 4.78562 0
      vertex -12.5916 3.23297 -7
      vertex -12.5916 3.23297 0
    endloop
  endfacet
  facet normal -0.982288 0.187375 0
    outer loop
      vertex -12.8975 1.62933 -7
      vertex -12.5916 3.23297 0
      vertex -12.5916 3.23297 -7
    endloop
  endfacet
  facet normal -0.982288 0.187375 0
    outer loop
      vertex -12.5916 3.23297 0
      vertex -12.8975 1.62933 -7
      vertex -12.8975 1.62933 0
    endloop
  endfacet
  facet normal -0.481758 0.876304 0
    outer loop
      vertex -5.53513 11.7628 -7
      vertex -6.96575 10.9763 0
      vertex -5.53513 11.7628 0
    endloop
  endfacet
  facet normal -0.481758 0.876304 0
    outer loop
      vertex -6.96575 10.9763 0
      vertex -5.53513 11.7628 -7
      vertex -6.96575 10.9763 -7
    endloop
  endfacet
  facet normal -0.58779 0.809014 0
    outer loop
      vertex -6.96575 10.9763 -7
      vertex -8.28651 10.0167 0
      vertex -6.96575 10.9763 0
    endloop
  endfacet
  facet normal -0.58779 0.809014 0
    outer loop
      vertex -8.28651 10.0167 0
      vertex -6.96575 10.9763 -7
      vertex -8.28651 10.0167 -7
    endloop
  endfacet
  facet normal -0.125325 0.992116 0
    outer loop
      vertex -0.816277 12.9743 -7
      vertex -2.43596 12.7697 0
      vertex -0.816277 12.9743 0
    endloop
  endfacet
  facet normal -0.125325 0.992116 0
    outer loop
      vertex -2.43596 12.7697 0
      vertex -0.816277 12.9743 -7
      vertex -2.43596 12.7697 -7
    endloop
  endfacet
  facet normal 0.998027 -0.0627852 0
    outer loop
      vertex 12.8975 -1.62933 0
      vertex 13 0 -7
      vertex 13 0 0
    endloop
  endfacet
  facet normal 0.998027 -0.0627852 0
    outer loop
      vertex 13 0 -7
      vertex 12.8975 -1.62933 0
      vertex 12.8975 -1.62933 -7
    endloop
  endfacet
  facet normal -0.904829 -0.425775 0
    outer loop
      vertex -11.392 -6.2628 -7
      vertex -12.0871 -4.78562 0
      vertex -12.0871 -4.78562 -7
    endloop
  endfacet
  facet normal -0.904829 -0.425775 0
    outer loop
      vertex -12.0871 -4.78562 0
      vertex -11.392 -6.2628 -7
      vertex -11.392 -6.2628 0
    endloop
  endfacet
  facet normal 0.481758 -0.876304 0
    outer loop
      vertex 5.53513 -11.7628 -7
      vertex 6.96575 -10.9763 0
      vertex 5.53513 -11.7628 0
    endloop
  endfacet
  facet normal 0.481758 -0.876304 0
    outer loop
      vertex 6.96575 -10.9763 0
      vertex 5.53513 -11.7628 -7
      vertex 6.96575 -10.9763 -7
    endloop
  endfacet
  facet normal 0.951054 -0.309024 0
    outer loop
      vertex 12.0871 -4.78562 0
      vertex 12.5916 -3.23297 -7
      vertex 12.5916 -3.23297 0
    endloop
  endfacet
  facet normal 0.951054 -0.309024 0
    outer loop
      vertex 12.5916 -3.23297 -7
      vertex 12.0871 -4.78562 0
      vertex 12.0871 -4.78562 -7
    endloop
  endfacet
  facet normal -0.982288 -0.187375 0
    outer loop
      vertex -12.5916 -3.23297 -7
      vertex -12.8975 -1.62933 0
      vertex -12.8975 -1.62933 -7
    endloop
  endfacet
  facet normal -0.982288 -0.187375 0
    outer loop
      vertex -12.8975 -1.62933 0
      vertex -12.5916 -3.23297 -7
      vertex -12.5916 -3.23297 0
    endloop
  endfacet
  facet normal -0.998027 -0.0627852 0
    outer loop
      vertex -12.8975 -1.62933 -7
      vertex -13 0 0
      vertex -13 0 -7
    endloop
  endfacet
  facet normal -0.998027 -0.0627852 0
    outer loop
      vertex -13 0 0
      vertex -12.8975 -1.62933 -7
      vertex -12.8975 -1.62933 0
    endloop
  endfacet
  facet normal -0.951054 -0.309024 0
    outer loop
      vertex -12.0871 -4.78562 -7
      vertex -12.5916 -3.23297 0
      vertex -12.5916 -3.23297 -7
    endloop
  endfacet
  facet normal -0.951054 -0.309024 0
    outer loop
      vertex -12.5916 -3.23297 0
      vertex -12.0871 -4.78562 -7
      vertex -12.0871 -4.78562 0
    endloop
  endfacet
  facet normal 0.684557 -0.728959 0
    outer loop
      vertex 8.28651 -10.0167 -7
      vertex 9.47659 -8.89911 0
      vertex 8.28651 -10.0167 0
    endloop
  endfacet
  facet normal 0.684557 -0.728959 0
    outer loop
      vertex 9.47659 -8.89911 0
      vertex 8.28651 -10.0167 -7
      vertex 9.47659 -8.89911 -7
    endloop
  endfacet
  facet normal 0.368081 -0.929794 0
    outer loop
      vertex 4.01722 -12.3637 -7
      vertex 5.53513 -11.7628 0
      vertex 4.01722 -12.3637 0
    endloop
  endfacet
  facet normal 0.368081 -0.929794 0
    outer loop
      vertex 5.53513 -11.7628 0
      vertex 4.01722 -12.3637 -7
      vertex 5.53513 -11.7628 -7
    endloop
  endfacet
  facet normal 0.248691 -0.968583 0
    outer loop
      vertex 2.43596 -12.7697 -7
      vertex 4.01722 -12.3637 0
      vertex 2.43596 -12.7697 0
    endloop
  endfacet
  facet normal 0.248691 -0.968583 0
    outer loop
      vertex 4.01722 -12.3637 0
      vertex 2.43596 -12.7697 -7
      vertex 4.01722 -12.3637 -7
    endloop
  endfacet
  facet normal 0.125325 -0.992116 0
    outer loop
      vertex 0.816277 -12.9743 -7
      vertex 2.43596 -12.7697 0
      vertex 0.816277 -12.9743 0
    endloop
  endfacet
  facet normal 0.125325 -0.992116 0
    outer loop
      vertex 2.43596 -12.7697 0
      vertex 0.816277 -12.9743 -7
      vertex 2.43596 -12.7697 -7
    endloop
  endfacet
  facet normal 0.844318 -0.535842 0
    outer loop
      vertex 10.5172 -7.64121 0
      vertex 11.392 -6.2628 -7
      vertex 11.392 -6.2628 0
    endloop
  endfacet
  facet normal 0.844318 -0.535842 0
    outer loop
      vertex 11.392 -6.2628 -7
      vertex 10.5172 -7.64121 0
      vertex 10.5172 -7.64121 -7
    endloop
  endfacet
  facet normal 0.982288 -0.187375 0
    outer loop
      vertex 12.5916 -3.23297 0
      vertex 12.8975 -1.62933 -7
      vertex 12.8975 -1.62933 0
    endloop
  endfacet
  facet normal 0.982288 -0.187375 0
    outer loop
      vertex 12.8975 -1.62933 -7
      vertex 12.5916 -3.23297 0
      vertex 12.5916 -3.23297 -7
    endloop
  endfacet
  facet normal -0.125325 -0.992116 0
    outer loop
      vertex -2.43596 -12.7697 -7
      vertex -0.816277 -12.9743 0
      vertex -2.43596 -12.7697 0
    endloop
  endfacet
  facet normal -0.125325 -0.992116 -0
    outer loop
      vertex -0.816277 -12.9743 0
      vertex -2.43596 -12.7697 -7
      vertex -0.816277 -12.9743 -7
    endloop
  endfacet
  facet normal -0.368081 -0.929794 0
    outer loop
      vertex -5.53513 -11.7628 -7
      vertex -4.01722 -12.3637 0
      vertex -5.53513 -11.7628 0
    endloop
  endfacet
  facet normal -0.368081 -0.929794 -0
    outer loop
      vertex -4.01722 -12.3637 0
      vertex -5.53513 -11.7628 -7
      vertex -4.01722 -12.3637 -7
    endloop
  endfacet
  facet normal -0.248691 -0.968583 0
    outer loop
      vertex -4.01722 -12.3637 -7
      vertex -2.43596 -12.7697 0
      vertex -4.01722 -12.3637 0
    endloop
  endfacet
  facet normal -0.248691 -0.968583 -0
    outer loop
      vertex -2.43596 -12.7697 0
      vertex -4.01722 -12.3637 -7
      vertex -2.43596 -12.7697 -7
    endloop
  endfacet
  facet normal -0.770518 -0.637418 0
    outer loop
      vertex -9.47659 -8.89911 -7
      vertex -10.5172 -7.64121 0
      vertex -10.5172 -7.64121 -7
    endloop
  endfacet
  facet normal -0.770518 -0.637418 0
    outer loop
      vertex -10.5172 -7.64121 0
      vertex -9.47659 -8.89911 -7
      vertex -9.47659 -8.89911 0
    endloop
  endfacet
  facet normal -0.684557 -0.728959 0
    outer loop
      vertex -9.47659 -8.89911 -7
      vertex -8.28651 -10.0167 0
      vertex -9.47659 -8.89911 0
    endloop
  endfacet
  facet normal -0.684557 -0.728959 -0
    outer loop
      vertex -8.28651 -10.0167 0
      vertex -9.47659 -8.89911 -7
      vertex -8.28651 -10.0167 -7
    endloop
  endfacet
  facet normal 0.58779 -0.809014 0
    outer loop
      vertex 6.96575 -10.9763 -7
      vertex 8.28651 -10.0167 0
      vertex 6.96575 -10.9763 0
    endloop
  endfacet
  facet normal 0.58779 -0.809014 0
    outer loop
      vertex 8.28651 -10.0167 0
      vertex 6.96575 -10.9763 -7
      vertex 8.28651 -10.0167 -7
    endloop
  endfacet
  facet normal 0.904829 -0.425775 0
    outer loop
      vertex 11.392 -6.2628 0
      vertex 12.0871 -4.78562 -7
      vertex 12.0871 -4.78562 0
    endloop
  endfacet
  facet normal 0.904829 -0.425775 0
    outer loop
      vertex 12.0871 -4.78562 -7
      vertex 11.392 -6.2628 0
      vertex 11.392 -6.2628 -7
    endloop
  endfacet
  facet normal -0.844318 -0.535842 0
    outer loop
      vertex -10.5172 -7.64121 -7
      vertex -11.392 -6.2628 0
      vertex -11.392 -6.2628 -7
    endloop
  endfacet
  facet normal -0.844318 -0.535842 0
    outer loop
      vertex -11.392 -6.2628 0
      vertex -10.5172 -7.64121 -7
      vertex -10.5172 -7.64121 0
    endloop
  endfacet
  facet normal -0.481758 -0.876304 0
    outer loop
      vertex -6.96575 -10.9763 -7
      vertex -5.53513 -11.7628 0
      vertex -6.96575 -10.9763 0
    endloop
  endfacet
  facet normal -0.481758 -0.876304 -0
    outer loop
      vertex -5.53513 -11.7628 0
      vertex -6.96575 -10.9763 -7
      vertex -5.53513 -11.7628 -7
    endloop
  endfacet
  facet normal -0.58779 -0.809014 0
    outer loop
      vertex -8.28651 -10.0167 -7
      vertex -6.96575 -10.9763 0
      vertex -8.28651 -10.0167 0
    endloop
  endfacet
  facet normal -0.58779 -0.809014 -0
    outer loop
      vertex -6.96575 -10.9763 0
      vertex -8.28651 -10.0167 -7
      vertex -6.96575 -10.9763 -7
    endloop
  endfacet
  facet normal -0.998029 -0.0627577 0
    outer loop
      vertex 10.1 0 -6
      vertex 10.0204 1.26587 0
      vertex 10.0204 1.26587 -6
    endloop
  endfacet
  facet normal -0.998029 -0.0627577 0
    outer loop
      vertex 10.0204 1.26587 0
      vertex 10.1 0 -6
      vertex 10.1 0 0
    endloop
  endfacet
  facet normal 0.998029 -0.0627577 0
    outer loop
      vertex -10.1 0 0
      vertex -10.0204 1.26587 -6
      vertex -10.0204 1.26587 0
    endloop
  endfacet
  facet normal 0.998029 -0.0627577 0
    outer loop
      vertex -10.0204 1.26587 -6
      vertex -10.1 0 0
      vertex -10.1 0 -6
    endloop
  endfacet
  facet normal 0 -1 0
    outer loop
      vertex -0.634184 10.0801 -6
      vertex 0.634184 10.0801 0
      vertex -0.634184 10.0801 0
    endloop
  endfacet
  facet normal 0 -1 -0
    outer loop
      vertex 0.634184 10.0801 0
      vertex -0.634184 10.0801 -6
      vertex 0.634184 10.0801 -6
    endloop
  endfacet
  facet normal 0 1 -0
    outer loop
      vertex 0.634184 -10.0801 -6
      vertex -0.634184 -10.0801 0
      vertex 0.634184 -10.0801 0
    endloop
  endfacet
  facet normal 0 1 0
    outer loop
      vertex -0.634184 -10.0801 0
      vertex 0.634184 -10.0801 -6
      vertex -0.634184 -10.0801 -6
    endloop
  endfacet
  facet normal -0.684544 -0.728971 0
    outer loop
      vertex 6.43798 7.78218 -6
      vertex 7.36258 6.91393 0
      vertex 6.43798 7.78218 0
    endloop
  endfacet
  facet normal -0.684544 -0.728971 -0
    outer loop
      vertex 7.36258 6.91393 0
      vertex 6.43798 7.78218 -6
      vertex 7.36258 6.91393 -6
    endloop
  endfacet
  facet normal 0.684544 -0.728971 0
    outer loop
      vertex -7.36258 6.91393 -6
      vertex -6.43798 7.78218 0
      vertex -7.36258 6.91393 0
    endloop
  endfacet
  facet normal 0.684544 -0.728971 0
    outer loop
      vertex -6.43798 7.78218 0
      vertex -7.36258 6.91393 -6
      vertex -6.43798 7.78218 -6
    endloop
  endfacet
  facet normal 0.368126 -0.929776 0
    outer loop
      vertex -4.30037 9.13875 -6
      vertex -3.12107 9.60567 0
      vertex -4.30037 9.13875 0
    endloop
  endfacet
  facet normal 0.368126 -0.929776 0
    outer loop
      vertex -3.12107 9.60567 0
      vertex -4.30037 9.13875 -6
      vertex -3.12107 9.60567 -6
    endloop
  endfacet
  facet normal -0.904828 -0.425777 0
    outer loop
      vertex 9.39074 3.71806 -6
      vertex 8.8507 4.86571 0
      vertex 8.8507 4.86571 -6
    endloop
  endfacet
  facet normal -0.904828 -0.425777 0
    outer loop
      vertex 8.8507 4.86571 0
      vertex 9.39074 3.71806 -6
      vertex 9.39074 3.71806 0
    endloop
  endfacet
  facet normal -0.844327 -0.535829 0
    outer loop
      vertex 8.8507 4.86571 -6
      vertex 8.17107 5.93663 0
      vertex 8.17107 5.93663 -6
    endloop
  endfacet
  facet normal -0.844327 -0.535829 0
    outer loop
      vertex 8.17107 5.93663 0
      vertex 8.8507 4.86571 -6
      vertex 8.8507 4.86571 0
    endloop
  endfacet
  facet normal -0.368126 -0.929776 0
    outer loop
      vertex 3.12107 9.60567 -6
      vertex 4.30037 9.13875 0
      vertex 3.12107 9.60567 0
    endloop
  endfacet
  facet normal -0.368126 -0.929776 -0
    outer loop
      vertex 4.30037 9.13875 0
      vertex 3.12107 9.60567 -6
      vertex 4.30037 9.13875 -6
    endloop
  endfacet
  facet normal -0.481753 -0.876307 0
    outer loop
      vertex 4.30037 9.13875 -6
      vertex 5.41185 8.52771 0
      vertex 4.30037 9.13875 0
    endloop
  endfacet
  facet normal -0.481753 -0.876307 -0
    outer loop
      vertex 5.41185 8.52771 0
      vertex 4.30037 9.13875 -6
      vertex 5.41185 8.52771 -6
    endloop
  endfacet
  facet normal 0.844327 -0.535829 0
    outer loop
      vertex -8.8507 4.86571 0
      vertex -8.17107 5.93663 -6
      vertex -8.17107 5.93663 0
    endloop
  endfacet
  facet normal 0.844327 -0.535829 0
    outer loop
      vertex -8.17107 5.93663 -6
      vertex -8.8507 4.86571 0
      vertex -8.8507 4.86571 -6
    endloop
  endfacet
  facet normal 0.770514 -0.637423 0
    outer loop
      vertex -8.17107 5.93663 0
      vertex -7.36258 6.91393 -6
      vertex -7.36258 6.91393 0
    endloop
  endfacet
  facet normal 0.770514 -0.637423 0
    outer loop
      vertex -7.36258 6.91393 -6
      vertex -8.17107 5.93663 0
      vertex -8.17107 5.93663 -6
    endloop
  endfacet
  facet normal 0.587787 -0.809016 0
    outer loop
      vertex -6.43798 7.78218 -6
      vertex -5.41185 8.52771 0
      vertex -6.43798 7.78218 0
    endloop
  endfacet
  facet normal 0.587787 -0.809016 0
    outer loop
      vertex -5.41185 8.52771 0
      vertex -6.43798 7.78218 -6
      vertex -5.41185 8.52771 -6
    endloop
  endfacet
  facet normal 0.125358 -0.992112 0
    outer loop
      vertex -1.89255 9.9211 -6
      vertex -0.634184 10.0801 0
      vertex -1.89255 9.9211 0
    endloop
  endfacet
  facet normal 0.125358 -0.992112 0
    outer loop
      vertex -0.634184 10.0801 0
      vertex -1.89255 9.9211 -6
      vertex -0.634184 10.0801 -6
    endloop
  endfacet
  facet normal 0 0 1
    outer loop
      vertex 10.0204 1.26587 -6
      vertex 10.0204 -1.26587 -6
      vertex 10.1 0 -6
    endloop
  endfacet
  facet normal 0 0 1
    outer loop
      vertex 9.78269 2.51177 -6
      vertex 10.0204 -1.26587 -6
      vertex 10.0204 1.26587 -6
    endloop
  endfacet
  facet normal 0 0 1
    outer loop
      vertex 9.78269 2.51177 -6
      vertex 9.78269 -2.51177 -6
      vertex 10.0204 -1.26587 -6
    endloop
  endfacet
  facet normal 0 0 1
    outer loop
      vertex 9.39074 3.71806 -6
      vertex 9.78269 -2.51177 -6
      vertex 9.78269 2.51177 -6
    endloop
  endfacet
  facet normal 0 0 1
    outer loop
      vertex 9.39074 3.71806 -6
      vertex 9.39074 -3.71806 -6
      vertex 9.78269 -2.51177 -6
    endloop
  endfacet
  facet normal 0 0 1
    outer loop
      vertex 8.8507 4.86571 -6
      vertex 9.39074 -3.71806 -6
      vertex 9.39074 3.71806 -6
    endloop
  endfacet
  facet normal 0 0 1
    outer loop
      vertex 8.8507 4.86571 -6
      vertex 8.8507 -4.86571 -6
      vertex 9.39074 -3.71806 -6
    endloop
  endfacet
  facet normal 0 0 1
    outer loop
      vertex 8.17107 5.93663 -6
      vertex 8.8507 -4.86571 -6
      vertex 8.8507 4.86571 -6
    endloop
  endfacet
  facet normal 0 0 1
    outer loop
      vertex 8.17107 5.93663 -6
      vertex 8.17107 -5.93663 -6
      vertex 8.8507 -4.86571 -6
    endloop
  endfacet
  facet normal 0 0 1
    outer loop
      vertex 7.36258 6.91393 -6
      vertex 8.17107 -5.93663 -6
      vertex 8.17107 5.93663 -6
    endloop
  endfacet
  facet normal 0 0 1
    outer loop
      vertex 7.36258 6.91393 -6
      vertex 7.36258 -6.91393 -6
      vertex 8.17107 -5.93663 -6
    endloop
  endfacet
  facet normal 0 0 1
    outer loop
      vertex 6.43798 7.78218 -6
      vertex 7.36258 -6.91393 -6
      vertex 7.36258 6.91393 -6
    endloop
  endfacet
  facet normal 0 0 1
    outer loop
      vertex 6.43798 7.78218 -6
      vertex 6.43798 -7.78218 -6
      vertex 7.36258 -6.91393 -6
    endloop
  endfacet
  facet normal 0 0 1
    outer loop
      vertex 5.41185 8.52771 -6
      vertex 6.43798 -7.78218 -6
      vertex 6.43798 7.78218 -6
    endloop
  endfacet
  facet normal 0 0 1
    outer loop
      vertex 5.41185 8.52771 -6
      vertex 5.41185 -8.52771 -6
      vertex 6.43798 -7.78218 -6
    endloop
  endfacet
  facet normal 0 0 1
    outer loop
      vertex 4.30037 9.13875 -6
      vertex 5.41185 -8.52771 -6
      vertex 5.41185 8.52771 -6
    endloop
  endfacet
  facet normal 0 0 1
    outer loop
      vertex 4.30037 9.13875 -6
      vertex 4.30037 -9.13875 -6
      vertex 5.41185 -8.52771 -6
    endloop
  endfacet
  facet normal 0 0 1
    outer loop
      vertex 3.12107 9.60567 -6
      vertex 4.30037 -9.13875 -6
      vertex 4.30037 9.13875 -6
    endloop
  endfacet
  facet normal 0 0 1
    outer loop
      vertex 3.12107 9.60567 -6
      vertex 3.12107 -9.60567 -6
      vertex 4.30037 -9.13875 -6
    endloop
  endfacet
  facet normal 0 0 1
    outer loop
      vertex 1.89255 9.9211 -6
      vertex 3.12107 -9.60567 -6
      vertex 3.12107 9.60567 -6
    endloop
  endfacet
  facet normal 0 0 1
    outer loop
      vertex 1.89255 9.9211 -6
      vertex 1.89255 -9.9211 -6
      vertex 3.12107 -9.60567 -6
    endloop
  endfacet
  facet normal 0 0 1
    outer loop
      vertex 0.634184 10.0801 -6
      vertex 1.89255 -9.9211 -6
      vertex 1.89255 9.9211 -6
    endloop
  endfacet
  facet normal 0 0 1
    outer loop
      vertex 0.634184 10.0801 -6
      vertex 0.634184 -10.0801 -6
      vertex 1.89255 -9.9211 -6
    endloop
  endfacet
  facet normal -0 0 1
    outer loop
      vertex -0.634184 10.0801 -6
      vertex 0.634184 -10.0801 -6
      vertex 0.634184 10.0801 -6
    endloop
  endfacet
  facet normal 0 0 1
    outer loop
      vertex -0.634184 10.0801 -6
      vertex -0.634184 -10.0801 -6
      vertex 0.634184 -10.0801 -6
    endloop
  endfacet
  facet normal -0 0 1
    outer loop
      vertex -1.89255 9.9211 -6
      vertex -0.634184 -10.0801 -6
      vertex -0.634184 10.0801 -6
    endloop
  endfacet
  facet normal 0 0 1
    outer loop
      vertex -1.89255 9.9211 -6
      vertex -1.89255 -9.9211 -6
      vertex -0.634184 -10.0801 -6
    endloop
  endfacet
  facet normal -0 0 1
    outer loop
      vertex -3.12107 9.60567 -6
      vertex -1.89255 -9.9211 -6
      vertex -1.89255 9.9211 -6
    endloop
  endfacet
  facet normal 0 0 1
    outer loop
      vertex -3.12107 9.60567 -6
      vertex -3.12107 -9.60567 -6
      vertex -1.89255 -9.9211 -6
    endloop
  endfacet
  facet normal -0 0 1
    outer loop
      vertex -4.30037 9.13875 -6
      vertex -3.12107 -9.60567 -6
      vertex -3.12107 9.60567 -6
    endloop
  endfacet
  facet normal 0 0 1
    outer loop
      vertex -4.30037 9.13875 -6
      vertex -4.30037 -9.13875 -6
      vertex -3.12107 -9.60567 -6
    endloop
  endfacet
  facet normal -0 0 1
    outer loop
      vertex -5.41185 8.52771 -6
      vertex -4.30037 -9.13875 -6
      vertex -4.30037 9.13875 -6
    endloop
  endfacet
  facet normal 0 0 1
    outer loop
      vertex -5.41185 8.52771 -6
      vertex -5.41185 -8.52771 -6
      vertex -4.30037 -9.13875 -6
    endloop
  endfacet
  facet normal -0 0 1
    outer loop
      vertex -6.43798 7.78218 -6
      vertex -5.41185 -8.52771 -6
      vertex -5.41185 8.52771 -6
    endloop
  endfacet
  facet normal 0 0 1
    outer loop
      vertex -6.43798 7.78218 -6
      vertex -6.43798 -7.78218 -6
      vertex -5.41185 -8.52771 -6
    endloop
  endfacet
  facet normal -0 0 1
    outer loop
      vertex -7.36258 6.91393 -6
      vertex -6.43798 -7.78218 -6
      vertex -6.43798 7.78218 -6
    endloop
  endfacet
  facet normal 0 0 1
    outer loop
      vertex -7.36258 6.91393 -6
      vertex -7.36258 -6.91393 -6
      vertex -6.43798 -7.78218 -6
    endloop
  endfacet
  facet normal -0 0 1
    outer loop
      vertex -8.17107 5.93663 -6
      vertex -7.36258 -6.91393 -6
      vertex -7.36258 6.91393 -6
    endloop
  endfacet
  facet normal 0 0 1
    outer loop
      vertex -8.17107 5.93663 -6
      vertex -8.17107 -5.93663 -6
      vertex -7.36258 -6.91393 -6
    endloop
  endfacet
  facet normal -0 0 1
    outer loop
      vertex -8.8507 4.86571 -6
      vertex -8.17107 -5.93663 -6
      vertex -8.17107 5.93663 -6
    endloop
  endfacet
  facet normal 0 0 1
    outer loop
      vertex -8.8507 4.86571 -6
      vertex -8.8507 -4.86571 -6
      vertex -8.17107 -5.93663 -6
    endloop
  endfacet
  facet normal -0 0 1
    outer loop
      vertex -9.39074 3.71806 -6
      vertex -8.8507 -4.86571 -6
      vertex -8.8507 4.86571 -6
    endloop
  endfacet
  facet normal 0 0 1
    outer loop
      vertex -9.39074 3.71806 -6
      vertex -9.39074 -3.71806 -6
      vertex -8.8507 -4.86571 -6
    endloop
  endfacet
  facet normal -0 0 1
    outer loop
      vertex -9.78269 2.51177 -6
      vertex -9.39074 -3.71806 -6
      vertex -9.39074 3.71806 -6
    endloop
  endfacet
  facet normal 0 0 1
    outer loop
      vertex -9.78269 2.51177 -6
      vertex -9.78269 -2.51177 -6
      vertex -9.39074 -3.71806 -6
    endloop
  endfacet
  facet normal -0 0 1
    outer loop
      vertex -10.0204 1.26587 -6
      vertex -9.78269 -2.51177 -6
      vertex -9.78269 2.51177 -6
    endloop
  endfacet
  facet normal 0 0 1
    outer loop
      vertex -10.0204 1.26587 -6
      vertex -10.0204 -1.26587 -6
      vertex -9.78269 -2.51177 -6
    endloop
  endfacet
  facet normal 0 -0 1
    outer loop
      vertex -10.0204 -1.26587 -6
      vertex -10.0204 1.26587 -6
      vertex -10.1 0 -6
    endloop
  endfacet
  facet normal -0.951056 -0.309019 0
    outer loop
      vertex 9.78269 2.51177 -6
      vertex 9.39074 3.71806 0
      vertex 9.39074 3.71806 -6
    endloop
  endfacet
  facet normal -0.951056 -0.309019 0
    outer loop
      vertex 9.39074 3.71806 0
      vertex 9.78269 2.51177 -6
      vertex 9.78269 2.51177 0
    endloop
  endfacet
  facet normal -0.982281 -0.187413 0
    outer loop
      vertex 10.0204 1.26587 -6
      vertex 9.78269 2.51177 0
      vertex 9.78269 2.51177 -6
    endloop
  endfacet
  facet normal -0.982281 -0.187413 0
    outer loop
      vertex 9.78269 2.51177 0
      vertex 10.0204 1.26587 -6
      vertex 10.0204 1.26587 0
    endloop
  endfacet
  facet normal -0.770514 -0.637423 0
    outer loop
      vertex 8.17107 5.93663 -6
      vertex 7.36258 6.91393 0
      vertex 7.36258 6.91393 -6
    endloop
  endfacet
  facet normal -0.770514 -0.637423 0
    outer loop
      vertex 7.36258 6.91393 0
      vertex 8.17107 5.93663 -6
      vertex 8.17107 5.93663 0
    endloop
  endfacet
  facet normal -0.24869 -0.968583 0
    outer loop
      vertex 1.89255 9.9211 -6
      vertex 3.12107 9.60567 0
      vertex 1.89255 9.9211 0
    endloop
  endfacet
  facet normal -0.24869 -0.968583 -0
    outer loop
      vertex 3.12107 9.60567 0
      vertex 1.89255 9.9211 -6
      vertex 3.12107 9.60567 -6
    endloop
  endfacet
  facet normal -0.125358 -0.992112 0
    outer loop
      vertex 0.634184 10.0801 -6
      vertex 1.89255 9.9211 0
      vertex 0.634184 10.0801 0
    endloop
  endfacet
  facet normal -0.125358 -0.992112 -0
    outer loop
      vertex 1.89255 9.9211 0
      vertex 0.634184 10.0801 -6
      vertex 1.89255 9.9211 -6
    endloop
  endfacet
  facet normal -0.587787 -0.809016 0
    outer loop
      vertex 5.41185 8.52771 -6
      vertex 6.43798 7.78218 0
      vertex 5.41185 8.52771 0
    endloop
  endfacet
  facet normal -0.587787 -0.809016 -0
    outer loop
      vertex 6.43798 7.78218 0
      vertex 5.41185 8.52771 -6
      vertex 6.43798 7.78218 -6
    endloop
  endfacet
  facet normal 0.904828 -0.425777 0
    outer loop
      vertex -9.39074 3.71806 0
      vertex -8.8507 4.86571 -6
      vertex -8.8507 4.86571 0
    endloop
  endfacet
  facet normal 0.904828 -0.425777 0
    outer loop
      vertex -8.8507 4.86571 -6
      vertex -9.39074 3.71806 0
      vertex -9.39074 3.71806 -6
    endloop
  endfacet
  facet normal 0.951056 -0.309019 0
    outer loop
      vertex -9.78269 2.51177 0
      vertex -9.39074 3.71806 -6
      vertex -9.39074 3.71806 0
    endloop
  endfacet
  facet normal 0.951056 -0.309019 0
    outer loop
      vertex -9.39074 3.71806 -6
      vertex -9.78269 2.51177 0
      vertex -9.78269 2.51177 -6
    endloop
  endfacet
  facet normal 0.982281 -0.187413 0
    outer loop
      vertex -10.0204 1.26587 0
      vertex -9.78269 2.51177 -6
      vertex -9.78269 2.51177 0
    endloop
  endfacet
  facet normal 0.982281 -0.187413 0
    outer loop
      vertex -9.78269 2.51177 -6
      vertex -10.0204 1.26587 0
      vertex -10.0204 1.26587 -6
    endloop
  endfacet
  facet normal 0.24869 -0.968583 0
    outer loop
      vertex -3.12107 9.60567 -6
      vertex -1.89255 9.9211 0
      vertex -3.12107 9.60567 0
    endloop
  endfacet
  facet normal 0.24869 -0.968583 0
    outer loop
      vertex -1.89255 9.9211 0
      vertex -3.12107 9.60567 -6
      vertex -1.89255 9.9211 -6
    endloop
  endfacet
  facet normal -0.998029 0.0627577 0
    outer loop
      vertex 10.0204 -1.26587 -6
      vertex 10.1 0 0
      vertex 10.1 0 -6
    endloop
  endfacet
  facet normal -0.998029 0.0627577 0
    outer loop
      vertex 10.1 0 0
      vertex 10.0204 -1.26587 -6
      vertex 10.0204 -1.26587 0
    endloop
  endfacet
  facet normal -0.951056 0.309019 0
    outer loop
      vertex 9.39074 -3.71806 -6
      vertex 9.78269 -2.51177 0
      vertex 9.78269 -2.51177 -6
    endloop
  endfacet
  facet normal -0.951056 0.309019 0
    outer loop
      vertex 9.78269 -2.51177 0
      vertex 9.39074 -3.71806 -6
      vertex 9.39074 -3.71806 0
    endloop
  endfacet
  facet normal -0.982281 0.187413 0
    outer loop
      vertex 9.78269 -2.51177 -6
      vertex 10.0204 -1.26587 0
      vertex 10.0204 -1.26587 -6
    endloop
  endfacet
  facet normal -0.982281 0.187413 0
    outer loop
      vertex 10.0204 -1.26587 0
      vertex 9.78269 -2.51177 -6
      vertex 9.78269 -2.51177 0
    endloop
  endfacet
  facet normal -0.587787 0.809016 0
    outer loop
      vertex 6.43798 -7.78218 -6
      vertex 5.41185 -8.52771 0
      vertex 6.43798 -7.78218 0
    endloop
  endfacet
  facet normal -0.587787 0.809016 0
    outer loop
      vertex 5.41185 -8.52771 0
      vertex 6.43798 -7.78218 -6
      vertex 5.41185 -8.52771 -6
    endloop
  endfacet
  facet normal -0.481753 0.876307 0
    outer loop
      vertex 5.41185 -8.52771 -6
      vertex 4.30037 -9.13875 0
      vertex 5.41185 -8.52771 0
    endloop
  endfacet
  facet normal -0.481753 0.876307 0
    outer loop
      vertex 4.30037 -9.13875 0
      vertex 5.41185 -8.52771 -6
      vertex 4.30037 -9.13875 -6
    endloop
  endfacet
  facet normal 0.481753 -0.876307 0
    outer loop
      vertex -5.41185 8.52771 -6
      vertex -4.30037 9.13875 0
      vertex -5.41185 8.52771 0
    endloop
  endfacet
  facet normal 0.481753 -0.876307 0
    outer loop
      vertex -4.30037 9.13875 0
      vertex -5.41185 8.52771 -6
      vertex -4.30037 9.13875 -6
    endloop
  endfacet
  facet normal 0.368126 0.929776 -0
    outer loop
      vertex -3.12107 -9.60567 -6
      vertex -4.30037 -9.13875 0
      vertex -3.12107 -9.60567 0
    endloop
  endfacet
  facet normal 0.368126 0.929776 0
    outer loop
      vertex -4.30037 -9.13875 0
      vertex -3.12107 -9.60567 -6
      vertex -4.30037 -9.13875 -6
    endloop
  endfacet
  facet normal 0.24869 0.968583 -0
    outer loop
      vertex -1.89255 -9.9211 -6
      vertex -3.12107 -9.60567 0
      vertex -1.89255 -9.9211 0
    endloop
  endfacet
  facet normal 0.24869 0.968583 0
    outer loop
      vertex -3.12107 -9.60567 0
      vertex -1.89255 -9.9211 -6
      vertex -3.12107 -9.60567 -6
    endloop
  endfacet
  facet normal 0.770514 0.637423 0
    outer loop
      vertex -7.36258 -6.91393 0
      vertex -8.17107 -5.93663 -6
      vertex -8.17107 -5.93663 0
    endloop
  endfacet
  facet normal 0.770514 0.637423 0
    outer loop
      vertex -8.17107 -5.93663 -6
      vertex -7.36258 -6.91393 0
      vertex -7.36258 -6.91393 -6
    endloop
  endfacet
  facet normal 0.998029 0.0627577 0
    outer loop
      vertex -10.0204 -1.26587 0
      vertex -10.1 0 -6
      vertex -10.1 0 0
    endloop
  endfacet
  facet normal 0.998029 0.0627577 0
    outer loop
      vertex -10.1 0 -6
      vertex -10.0204 -1.26587 0
      vertex -10.0204 -1.26587 -6
    endloop
  endfacet
  facet normal 0.982281 0.187413 0
    outer loop
      vertex -9.78269 -2.51177 0
      vertex -10.0204 -1.26587 -6
      vertex -10.0204 -1.26587 0
    endloop
  endfacet
  facet normal 0.982281 0.187413 0
    outer loop
      vertex -10.0204 -1.26587 -6
      vertex -9.78269 -2.51177 0
      vertex -9.78269 -2.51177 -6
    endloop
  endfacet
  facet normal 0.951056 0.309019 0
    outer loop
      vertex -9.39074 -3.71806 0
      vertex -9.78269 -2.51177 -6
      vertex -9.78269 -2.51177 0
    endloop
  endfacet
  facet normal 0.951056 0.309019 0
    outer loop
      vertex -9.78269 -2.51177 -6
      vertex -9.39074 -3.71806 0
      vertex -9.39074 -3.71806 -6
    endloop
  endfacet
  facet normal -0.684544 0.728971 0
    outer loop
      vertex 7.36258 -6.91393 -6
      vertex 6.43798 -7.78218 0
      vertex 7.36258 -6.91393 0
    endloop
  endfacet
  facet normal -0.684544 0.728971 0
    outer loop
      vertex 6.43798 -7.78218 0
      vertex 7.36258 -6.91393 -6
      vertex 6.43798 -7.78218 -6
    endloop
  endfacet
  facet normal -0.125358 0.992112 0
    outer loop
      vertex 1.89255 -9.9211 -6
      vertex 0.634184 -10.0801 0
      vertex 1.89255 -9.9211 0
    endloop
  endfacet
  facet normal -0.125358 0.992112 0
    outer loop
      vertex 0.634184 -10.0801 0
      vertex 1.89255 -9.9211 -6
      vertex 0.634184 -10.0801 -6
    endloop
  endfacet
  facet normal -0.904828 0.425777 0
    outer loop
      vertex 8.8507 -4.86571 -6
      vertex 9.39074 -3.71806 0
      vertex 9.39074 -3.71806 -6
    endloop
  endfacet
  facet normal -0.904828 0.425777 0
    outer loop
      vertex 9.39074 -3.71806 0
      vertex 8.8507 -4.86571 -6
      vertex 8.8507 -4.86571 0
    endloop
  endfacet
  facet normal -0.844327 0.535829 0
    outer loop
      vertex 8.17107 -5.93663 -6
      vertex 8.8507 -4.86571 0
      vertex 8.8507 -4.86571 -6
    endloop
  endfacet
  facet normal -0.844327 0.535829 0
    outer loop
      vertex 8.8507 -4.86571 0
      vertex 8.17107 -5.93663 -6
      vertex 8.17107 -5.93663 0
    endloop
  endfacet
  facet normal 0.125358 0.992112 -0
    outer loop
      vertex -0.634184 -10.0801 -6
      vertex -1.89255 -9.9211 0
      vertex -0.634184 -10.0801 0
    endloop
  endfacet
  facet normal 0.125358 0.992112 0
    outer loop
      vertex -1.89255 -9.9211 0
      vertex -0.634184 -10.0801 -6
      vertex -1.89255 -9.9211 -6
    endloop
  endfacet
  facet normal 0.587787 0.809016 -0
    outer loop
      vertex -5.41185 -8.52771 -6
      vertex -6.43798 -7.78218 0
      vertex -5.41185 -8.52771 0
    endloop
  endfacet
  facet normal 0.587787 0.809016 0
    outer loop
      vertex -6.43798 -7.78218 0
      vertex -5.41185 -8.52771 -6
      vertex -6.43798 -7.78218 -6
    endloop
  endfacet
  facet normal 0.684544 0.728971 -0
    outer loop
      vertex -6.43798 -7.78218 -6
      vertex -7.36258 -6.91393 0
      vertex -6.43798 -7.78218 0
    endloop
  endfacet
  facet normal 0.684544 0.728971 0
    outer loop
      vertex -7.36258 -6.91393 0
      vertex -6.43798 -7.78218 -6
      vertex -7.36258 -6.91393 -6
    endloop
  endfacet
  facet normal 0.844327 0.535829 0
    outer loop
      vertex -8.17107 -5.93663 0
      vertex -8.8507 -4.86571 -6
      vertex -8.8507 -4.86571 0
    endloop
  endfacet
  facet normal 0.844327 0.535829 0
    outer loop
      vertex -8.8507 -4.86571 -6
      vertex -8.17107 -5.93663 0
      vertex -8.17107 -5.93663 -6
    endloop
  endfacet
  facet normal 0.904828 0.425777 0
    outer loop
      vertex -8.8507 -4.86571 0
      vertex -9.39074 -3.71806 -6
      vertex -9.39074 -3.71806 0
    endloop
  endfacet
  facet normal 0.904828 0.425777 0
    outer loop
      vertex -9.39074 -3.71806 -6
      vertex -8.8507 -4.86571 0
      vertex -8.8507 -4.86571 -6
    endloop
  endfacet
  facet normal -0.770514 0.637423 0
    outer loop
      vertex 7.36258 -6.91393 -6
      vertex 8.17107 -5.93663 0
      vertex 8.17107 -5.93663 -6
    endloop
  endfacet
  facet normal -0.770514 0.637423 0
    outer loop
      vertex 8.17107 -5.93663 0
      vertex 7.36258 -6.91393 -6
      vertex 7.36258 -6.91393 0
    endloop
  endfacet
  facet normal -0.24869 0.968583 0
    outer loop
      vertex 3.12107 -9.60567 -6
      vertex 1.89255 -9.9211 0
      vertex 3.12107 -9.60567 0
    endloop
  endfacet
  facet normal -0.24869 0.968583 0
    outer loop
      vertex 1.89255 -9.9211 0
      vertex 3.12107 -9.60567 -6
      vertex 1.89255 -9.9211 -6
    endloop
  endfacet
  facet normal -0.368126 0.929776 0
    outer loop
      vertex 4.30037 -9.13875 -6
      vertex 3.12107 -9.60567 0
      vertex 4.30037 -9.13875 0
    endloop
  endfacet
  facet normal -0.368126 0.929776 0
    outer loop
      vertex 3.12107 -9.60567 0
      vertex 4.30037 -9.13875 -6
      vertex 3.12107 -9.60567 -6
    endloop
  endfacet
  facet normal 0.481753 0.876307 -0
    outer loop
      vertex -4.30037 -9.13875 -6
      vertex -5.41185 -8.52771 0
      vertex -4.30037 -9.13875 0
    endloop
  endfacet
  facet normal 0.481753 0.876307 0
    outer loop
      vertex -5.41185 -8.52771 0
      vertex -4.30037 -9.13875 -6
      vertex -5.41185 -8.52771 -6
    endloop
  endfacet
endsolid OpenSCAD_Model
