solid OpenSCAD_Model
  facet normal 0.998026 0.0628038 0
    outer loop
      vertex 11.5 0 0
      vertex 11.4093 1.44133 -4
      vertex 11.4093 1.44133 0
    endloop
  endfacet
  facet normal 0.998026 0.0628038 0
    outer loop
      vertex 11.4093 1.44133 -4
      vertex 11.5 0 0
      vertex 11.5 0 -4
    endloop
  endfacet
  facet normal -0.998026 0.0628038 0
    outer loop
      vertex -11.5 0 -4
      vertex -11.4093 1.44133 0
      vertex -11.4093 1.44133 -4
    endloop
  endfacet
  facet normal -0.998026 0.0628038 0
    outer loop
      vertex -11.4093 1.44133 0
      vertex -11.5 0 -4
      vertex -11.5 0 0
    endloop
  endfacet
  facet normal 0 1 -0
    outer loop
      vertex 0.722091 11.4773 -4
      vertex -0.722091 11.4773 0
      vertex 0.722091 11.4773 0
    endloop
  endfacet
  facet normal 0 1 0
    outer loop
      vertex -0.722091 11.4773 0
      vertex 0.722091 11.4773 -4
      vertex -0.722091 11.4773 -4
    endloop
  endfacet
  facet normal 0 -1 0
    outer loop
      vertex -0.722091 -11.4773 -4
      vertex 0.722091 -11.4773 0
      vertex -0.722091 -11.4773 0
    endloop
  endfacet
  facet normal 0 -1 -0
    outer loop
      vertex 0.722091 -11.4773 0
      vertex -0.722091 -11.4773 -4
      vertex 0.722091 -11.4773 -4
    endloop
  endfacet
  facet normal 0.770515 -0.637422 0
    outer loop
      vertex 8.38314 -7.87229 0
      vertex 9.30369 -6.75953 -4
      vertex 9.30369 -6.75953 0
    endloop
  endfacet
  facet normal 0.770515 -0.637422 0
    outer loop
      vertex 9.30369 -6.75953 -4
      vertex 8.38314 -7.87229 0
      vertex 8.38314 -7.87229 -4
    endloop
  endfacet
  facet normal 0.684548 0.728968 -0
    outer loop
      vertex 8.38314 7.87229 -4
      vertex 7.33038 8.8609 0
      vertex 8.38314 7.87229 0
    endloop
  endfacet
  facet normal 0.684548 0.728968 0
    outer loop
      vertex 7.33038 8.8609 0
      vertex 8.38314 7.87229 -4
      vertex 7.33038 8.8609 -4
    endloop
  endfacet
  facet normal -0.684548 0.728968 0
    outer loop
      vertex -7.33038 8.8609 -4
      vertex -8.38314 7.87229 0
      vertex -7.33038 8.8609 0
    endloop
  endfacet
  facet normal -0.684548 0.728968 0
    outer loop
      vertex -8.38314 7.87229 0
      vertex -7.33038 8.8609 -4
      vertex -8.38314 7.87229 -4
    endloop
  endfacet
  facet normal -0.3681 0.929786 0
    outer loop
      vertex -3.55369 10.9371 -4
      vertex -4.89646 10.4055 0
      vertex -3.55369 10.9371 0
    endloop
  endfacet
  facet normal -0.3681 0.929786 0
    outer loop
      vertex -4.89646 10.4055 0
      vertex -3.55369 10.9371 -4
      vertex -4.89646 10.4055 -4
    endloop
  endfacet
  facet normal 0.904828 0.425776 0
    outer loop
      vertex 10.6924 4.23343 0
      vertex 10.0775 5.54017 -4
      vertex 10.0775 5.54017 0
    endloop
  endfacet
  facet normal 0.904828 0.425776 0
    outer loop
      vertex 10.0775 5.54017 -4
      vertex 10.6924 4.23343 0
      vertex 10.6924 4.23343 -4
    endloop
  endfacet
  facet normal 0.3681 0.929786 -0
    outer loop
      vertex 4.89646 10.4055 -4
      vertex 3.55369 10.9371 0
      vertex 4.89646 10.4055 0
    endloop
  endfacet
  facet normal 0.3681 0.929786 0
    outer loop
      vertex 3.55369 10.9371 0
      vertex 4.89646 10.4055 -4
      vertex 3.55369 10.9371 -4
    endloop
  endfacet
  facet normal 0.481747 0.87631 -0
    outer loop
      vertex 6.16201 9.70977 -4
      vertex 4.89646 10.4055 0
      vertex 6.16201 9.70977 0
    endloop
  endfacet
  facet normal 0.481747 0.87631 0
    outer loop
      vertex 4.89646 10.4055 0
      vertex 6.16201 9.70977 -4
      vertex 4.89646 10.4055 -4
    endloop
  endfacet
  facet normal -0.904828 0.425776 0
    outer loop
      vertex -10.6924 4.23343 -4
      vertex -10.0775 5.54017 0
      vertex -10.0775 5.54017 -4
    endloop
  endfacet
  facet normal -0.904828 0.425776 0
    outer loop
      vertex -10.0775 5.54017 0
      vertex -10.6924 4.23343 -4
      vertex -10.6924 4.23343 0
    endloop
  endfacet
  facet normal -0.770515 0.637422 0
    outer loop
      vertex -9.30369 6.75953 -4
      vertex -8.38314 7.87229 0
      vertex -8.38314 7.87229 -4
    endloop
  endfacet
  facet normal -0.770515 0.637422 0
    outer loop
      vertex -8.38314 7.87229 0
      vertex -9.30369 6.75953 -4
      vertex -9.30369 6.75953 0
    endloop
  endfacet
  facet normal 0 0 1
    outer loop
      vertex 5.6 0 0
      vertex 11.5 0 0
      vertex 11.4093 1.44133 0
    endloop
  endfacet
  facet normal 0 0 1
    outer loop
      vertex 5.55584 0.701865 0
      vertex 11.4093 1.44133 0
      vertex 11.1387 2.85993 0
    endloop
  endfacet
  facet normal 0 0 1
    outer loop
      vertex 11.5 0 0
      vertex 5.6 0 0
      vertex 11.4093 -1.44133 0
    endloop
  endfacet
  facet normal 0 0 1
    outer loop
      vertex 5.42407 1.39266 0
      vertex 11.1387 2.85993 0
      vertex 10.6924 4.23343 0
    endloop
  endfacet
  facet normal -0 0 1
    outer loop
      vertex 5.55584 -0.701865 0
      vertex 11.4093 -1.44133 0
      vertex 5.6 0 0
    endloop
  endfacet
  facet normal 0 0 1
    outer loop
      vertex 5.20675 2.0615 0
      vertex 10.6924 4.23343 0
      vertex 10.0775 5.54017 0
    endloop
  endfacet
  facet normal 0 0 1
    outer loop
      vertex 11.4093 -1.44133 0
      vertex 5.55584 -0.701865 0
      vertex 11.1387 -2.85993 0
    endloop
  endfacet
  facet normal 0 0 1
    outer loop
      vertex 4.90732 2.69782 0
      vertex 10.0775 5.54017 0
      vertex 9.30369 6.75953 0
    endloop
  endfacet
  facet normal -0 0 1
    outer loop
      vertex 5.42407 -1.39266 0
      vertex 11.1387 -2.85993 0
      vertex 5.55584 -0.701865 0
    endloop
  endfacet
  facet normal 0 0 1
    outer loop
      vertex 4.53049 3.2916 0
      vertex 9.30369 6.75953 0
      vertex 8.38314 7.87229 0
    endloop
  endfacet
  facet normal 0 0 1
    outer loop
      vertex 11.1387 -2.85993 0
      vertex 5.42407 -1.39266 0
      vertex 10.6924 -4.23343 0
    endloop
  endfacet
  facet normal 0 0 1
    outer loop
      vertex 4.08222 3.83346 0
      vertex 8.38314 7.87229 0
      vertex 7.33038 8.8609 0
    endloop
  endfacet
  facet normal -0 0 1
    outer loop
      vertex 5.20675 -2.0615 0
      vertex 10.6924 -4.23343 0
      vertex 5.42407 -1.39266 0
    endloop
  endfacet
  facet normal 0 0 1
    outer loop
      vertex 3.56957 4.31487 0
      vertex 7.33038 8.8609 0
      vertex 6.16201 9.70977 0
    endloop
  endfacet
  facet normal 0 0 1
    outer loop
      vertex 10.6924 -4.23343 0
      vertex 5.20675 -2.0615 0
      vertex 10.0775 -5.54017 0
    endloop
  endfacet
  facet normal -0 0 1
    outer loop
      vertex 4.90732 -2.69782 0
      vertex 10.0775 -5.54017 0
      vertex 5.20675 -2.0615 0
    endloop
  endfacet
  facet normal 0 0 1
    outer loop
      vertex 11.4093 1.44133 0
      vertex 5.55584 0.701865 0
      vertex 5.6 0 0
    endloop
  endfacet
  facet normal 0 0 1
    outer loop
      vertex 11.1387 2.85993 0
      vertex 5.42407 1.39266 0
      vertex 5.55584 0.701865 0
    endloop
  endfacet
  facet normal 0 0 1
    outer loop
      vertex 10.6924 4.23343 0
      vertex 5.20675 2.0615 0
      vertex 5.42407 1.39266 0
    endloop
  endfacet
  facet normal 0 0 1
    outer loop
      vertex 10.0775 5.54017 0
      vertex 4.90732 2.69782 0
      vertex 5.20675 2.0615 0
    endloop
  endfacet
  facet normal 0 0 1
    outer loop
      vertex 3.00063 4.72824 0
      vertex 6.16201 9.70977 0
      vertex 4.89646 10.4055 0
    endloop
  endfacet
  facet normal 0 0 1
    outer loop
      vertex 9.30369 6.75953 0
      vertex 4.53049 3.2916 0
      vertex 4.90732 2.69782 0
    endloop
  endfacet
  facet normal 0 0 1
    outer loop
      vertex 8.38314 7.87229 0
      vertex 4.08222 3.83346 0
      vertex 4.53049 3.2916 0
    endloop
  endfacet
  facet normal 0 0 1
    outer loop
      vertex 7.33038 8.8609 0
      vertex 3.56957 4.31487 0
      vertex 4.08222 3.83346 0
    endloop
  endfacet
  facet normal 0 0 1
    outer loop
      vertex 2.38436 5.06703 0
      vertex 4.89646 10.4055 0
      vertex 3.55369 10.9371 0
    endloop
  endfacet
  facet normal 0 0 1
    outer loop
      vertex 6.16201 9.70977 0
      vertex 3.00063 4.72824 0
      vertex 3.56957 4.31487 0
    endloop
  endfacet
  facet normal 0 0 1
    outer loop
      vertex 4.89646 10.4055 0
      vertex 2.38436 5.06703 0
      vertex 3.00063 4.72824 0
    endloop
  endfacet
  facet normal 0 0 1
    outer loop
      vertex 1.73049 5.32592 0
      vertex 3.55369 10.9371 0
      vertex 2.15488 11.2963 0
    endloop
  endfacet
  facet normal 0 0 1
    outer loop
      vertex 3.55369 10.9371 0
      vertex 1.73049 5.32592 0
      vertex 2.38436 5.06703 0
    endloop
  endfacet
  facet normal 0 0 1
    outer loop
      vertex 2.15488 11.2963 0
      vertex 1.04933 5.50081 0
      vertex 1.73049 5.32592 0
    endloop
  endfacet
  facet normal 0 0 1
    outer loop
      vertex 0.722091 11.4773 0
      vertex 1.04933 5.50081 0
      vertex 2.15488 11.2963 0
    endloop
  endfacet
  facet normal 0 0 1
    outer loop
      vertex 0.722091 11.4773 0
      vertex 0.351626 5.58895 0
      vertex 1.04933 5.50081 0
    endloop
  endfacet
  facet normal 0 0 1
    outer loop
      vertex 0.722091 11.4773 0
      vertex -0.351626 5.58895 0
      vertex 0.351626 5.58895 0
    endloop
  endfacet
  facet normal -0 0 1
    outer loop
      vertex -0.722091 11.4773 0
      vertex -0.351626 5.58895 0
      vertex 0.722091 11.4773 0
    endloop
  endfacet
  facet normal 0 0 1
    outer loop
      vertex -0.722091 11.4773 0
      vertex -1.04933 5.50081 0
      vertex -0.351626 5.58895 0
    endloop
  endfacet
  facet normal -0 0 1
    outer loop
      vertex -2.15488 11.2963 0
      vertex -1.04933 5.50081 0
      vertex -0.722091 11.4773 0
    endloop
  endfacet
  facet normal 0 0 1
    outer loop
      vertex -1.04933 5.50081 0
      vertex -2.15488 11.2963 0
      vertex -1.73049 5.32592 0
    endloop
  endfacet
  facet normal -0 0 1
    outer loop
      vertex -3.55369 10.9371 0
      vertex -1.73049 5.32592 0
      vertex -2.15488 11.2963 0
    endloop
  endfacet
  facet normal 0 0 1
    outer loop
      vertex -1.73049 5.32592 0
      vertex -3.55369 10.9371 0
      vertex -2.38436 5.06703 0
    endloop
  endfacet
  facet normal -0 0 1
    outer loop
      vertex -4.89646 10.4055 0
      vertex -2.38436 5.06703 0
      vertex -3.55369 10.9371 0
    endloop
  endfacet
  facet normal 0 0 1
    outer loop
      vertex -2.38436 5.06703 0
      vertex -4.89646 10.4055 0
      vertex -3.00063 4.72824 0
    endloop
  endfacet
  facet normal -0 0 1
    outer loop
      vertex -6.16201 9.70977 0
      vertex -3.00063 4.72824 0
      vertex -4.89646 10.4055 0
    endloop
  endfacet
  facet normal 0 0 1
    outer loop
      vertex -3.00063 4.72824 0
      vertex -6.16201 9.70977 0
      vertex -3.56957 4.31487 0
    endloop
  endfacet
  facet normal -0 0 1
    outer loop
      vertex -7.33038 8.8609 0
      vertex -3.56957 4.31487 0
      vertex -6.16201 9.70977 0
    endloop
  endfacet
  facet normal 0 0 1
    outer loop
      vertex -3.56957 4.31487 0
      vertex -7.33038 8.8609 0
      vertex -4.08222 3.83346 0
    endloop
  endfacet
  facet normal -0 0 1
    outer loop
      vertex -8.38314 7.87229 0
      vertex -4.08222 3.83346 0
      vertex -7.33038 8.8609 0
    endloop
  endfacet
  facet normal 0 0 1
    outer loop
      vertex -4.08222 3.83346 0
      vertex -8.38314 7.87229 0
      vertex -4.53049 3.2916 0
    endloop
  endfacet
  facet normal -0 0 1
    outer loop
      vertex -9.30369 6.75953 0
      vertex -4.53049 3.2916 0
      vertex -8.38314 7.87229 0
    endloop
  endfacet
  facet normal -0 0 1
    outer loop
      vertex -10.0775 5.54017 0
      vertex -4.90732 2.69782 0
      vertex -9.30369 6.75953 0
    endloop
  endfacet
  facet normal 0 0 1
    outer loop
      vertex -4.53049 3.2916 0
      vertex -9.30369 6.75953 0
      vertex -4.90732 2.69782 0
    endloop
  endfacet
  facet normal 0 0 1
    outer loop
      vertex 10.0775 -5.54017 0
      vertex 4.90732 -2.69782 0
      vertex 9.30369 -6.75953 0
    endloop
  endfacet
  facet normal -0 0 1
    outer loop
      vertex 4.53049 -3.2916 0
      vertex 9.30369 -6.75953 0
      vertex 4.90732 -2.69782 0
    endloop
  endfacet
  facet normal 0 0 1
    outer loop
      vertex 9.30369 -6.75953 0
      vertex 4.53049 -3.2916 0
      vertex 8.38314 -7.87229 0
    endloop
  endfacet
  facet normal -0 0 1
    outer loop
      vertex 4.08222 -3.83346 0
      vertex 8.38314 -7.87229 0
      vertex 4.53049 -3.2916 0
    endloop
  endfacet
  facet normal 0 0 1
    outer loop
      vertex 8.38314 -7.87229 0
      vertex 4.08222 -3.83346 0
      vertex 7.33038 -8.8609 0
    endloop
  endfacet
  facet normal -0 0 1
    outer loop
      vertex 3.56957 -4.31487 0
      vertex 7.33038 -8.8609 0
      vertex 4.08222 -3.83346 0
    endloop
  endfacet
  facet normal 0 0 1
    outer loop
      vertex 7.33038 -8.8609 0
      vertex 3.56957 -4.31487 0
      vertex 6.16201 -9.70977 0
    endloop
  endfacet
  facet normal -0 0 1
    outer loop
      vertex 3.00063 -4.72824 0
      vertex 6.16201 -9.70977 0
      vertex 3.56957 -4.31487 0
    endloop
  endfacet
  facet normal 0 0 1
    outer loop
      vertex 6.16201 -9.70977 0
      vertex 3.00063 -4.72824 0
      vertex 4.89646 -10.4055 0
    endloop
  endfacet
  facet normal -0 0 1
    outer loop
      vertex 2.38436 -5.06703 0
      vertex 4.89646 -10.4055 0
      vertex 3.00063 -4.72824 0
    endloop
  endfacet
  facet normal 0 0 1
    outer loop
      vertex 4.89646 -10.4055 0
      vertex 2.38436 -5.06703 0
      vertex 3.55369 -10.9371 0
    endloop
  endfacet
  facet normal -0 0 1
    outer loop
      vertex 1.73049 -5.32592 0
      vertex 3.55369 -10.9371 0
      vertex 2.38436 -5.06703 0
    endloop
  endfacet
  facet normal 0 0 1
    outer loop
      vertex 3.55369 -10.9371 0
      vertex 1.73049 -5.32592 0
      vertex 2.15488 -11.2963 0
    endloop
  endfacet
  facet normal -0 0 1
    outer loop
      vertex 1.04933 -5.50081 0
      vertex 2.15488 -11.2963 0
      vertex 1.73049 -5.32592 0
    endloop
  endfacet
  facet normal 0 0 1
    outer loop
      vertex 1.04933 -5.50081 0
      vertex 0.722091 -11.4773 0
      vertex 2.15488 -11.2963 0
    endloop
  endfacet
  facet normal -0 0 1
    outer loop
      vertex 0.351626 -5.58895 0
      vertex 0.722091 -11.4773 0
      vertex 1.04933 -5.50081 0
    endloop
  endfacet
  facet normal -0 0 1
    outer loop
      vertex -0.351626 -5.58895 0
      vertex 0.722091 -11.4773 0
      vertex 0.351626 -5.58895 0
    endloop
  endfacet
  facet normal 0 0 1
    outer loop
      vertex -0.351626 -5.58895 0
      vertex -0.722091 -11.4773 0
      vertex 0.722091 -11.4773 0
    endloop
  endfacet
  facet normal 0 0 1
    outer loop
      vertex -1.04933 -5.50081 0
      vertex -0.722091 -11.4773 0
      vertex -0.351626 -5.58895 0
    endloop
  endfacet
  facet normal 0 0 1
    outer loop
      vertex -2.15488 -11.2963 0
      vertex -1.04933 -5.50081 0
      vertex -1.73049 -5.32592 0
    endloop
  endfacet
  facet normal 0 0 1
    outer loop
      vertex -1.04933 -5.50081 0
      vertex -2.15488 -11.2963 0
      vertex -0.722091 -11.4773 0
    endloop
  endfacet
  facet normal 0 0 1
    outer loop
      vertex -3.55369 -10.9371 0
      vertex -1.73049 -5.32592 0
      vertex -2.38436 -5.06703 0
    endloop
  endfacet
  facet normal 0 0 1
    outer loop
      vertex -4.89646 -10.4055 0
      vertex -2.38436 -5.06703 0
      vertex -3.00063 -4.72824 0
    endloop
  endfacet
  facet normal 0 0 1
    outer loop
      vertex -1.73049 -5.32592 0
      vertex -3.55369 -10.9371 0
      vertex -2.15488 -11.2963 0
    endloop
  endfacet
  facet normal 0 0 1
    outer loop
      vertex -6.16201 -9.70977 0
      vertex -3.00063 -4.72824 0
      vertex -3.56957 -4.31487 0
    endloop
  endfacet
  facet normal 0 0 1
    outer loop
      vertex -7.33038 -8.8609 0
      vertex -3.56957 -4.31487 0
      vertex -4.08222 -3.83346 0
    endloop
  endfacet
  facet normal 0 0 1
    outer loop
      vertex -8.38314 -7.87229 0
      vertex -4.08222 -3.83346 0
      vertex -4.53049 -3.2916 0
    endloop
  endfacet
  facet normal 0 0 1
    outer loop
      vertex -2.38436 -5.06703 0
      vertex -4.89646 -10.4055 0
      vertex -3.55369 -10.9371 0
    endloop
  endfacet
  facet normal 0 0 1
    outer loop
      vertex -9.30369 -6.75953 0
      vertex -4.53049 -3.2916 0
      vertex -4.90732 -2.69782 0
    endloop
  endfacet
  facet normal 0 0 1
    outer loop
      vertex -10.0775 -5.54017 0
      vertex -4.90732 -2.69782 0
      vertex -5.20675 -2.0615 0
    endloop
  endfacet
  facet normal 0 0 1
    outer loop
      vertex -10.6924 -4.23343 0
      vertex -5.20675 -2.0615 0
      vertex -5.42407 -1.39266 0
    endloop
  endfacet
  facet normal 0 0 1
    outer loop
      vertex -11.1387 -2.85993 0
      vertex -5.42407 -1.39266 0
      vertex -5.55584 -0.701865 0
    endloop
  endfacet
  facet normal 0 0 1
    outer loop
      vertex -3.00063 -4.72824 0
      vertex -6.16201 -9.70977 0
      vertex -4.89646 -10.4055 0
    endloop
  endfacet
  facet normal 0 0 1
    outer loop
      vertex -11.4093 -1.44133 0
      vertex -5.55584 -0.701865 0
      vertex -5.6 0 0
    endloop
  endfacet
  facet normal 0 0 1
    outer loop
      vertex -4.90732 2.69782 0
      vertex -10.0775 5.54017 0
      vertex -5.20675 2.0615 0
    endloop
  endfacet
  facet normal -0 0 1
    outer loop
      vertex -10.6924 4.23343 0
      vertex -5.20675 2.0615 0
      vertex -10.0775 5.54017 0
    endloop
  endfacet
  facet normal 0 0 1
    outer loop
      vertex -3.56957 -4.31487 0
      vertex -7.33038 -8.8609 0
      vertex -6.16201 -9.70977 0
    endloop
  endfacet
  facet normal 0 0 1
    outer loop
      vertex -5.20675 2.0615 0
      vertex -10.6924 4.23343 0
      vertex -5.42407 1.39266 0
    endloop
  endfacet
  facet normal 0 0 1
    outer loop
      vertex -4.08222 -3.83346 0
      vertex -8.38314 -7.87229 0
      vertex -7.33038 -8.8609 0
    endloop
  endfacet
  facet normal -0 0 1
    outer loop
      vertex -11.1387 2.85993 0
      vertex -5.42407 1.39266 0
      vertex -10.6924 4.23343 0
    endloop
  endfacet
  facet normal 0 0 1
    outer loop
      vertex -4.53049 -3.2916 0
      vertex -9.30369 -6.75953 0
      vertex -8.38314 -7.87229 0
    endloop
  endfacet
  facet normal 0 0 1
    outer loop
      vertex -5.42407 1.39266 0
      vertex -11.1387 2.85993 0
      vertex -5.55584 0.701865 0
    endloop
  endfacet
  facet normal 0 0 1
    outer loop
      vertex -4.90732 -2.69782 0
      vertex -10.0775 -5.54017 0
      vertex -9.30369 -6.75953 0
    endloop
  endfacet
  facet normal -0 0 1
    outer loop
      vertex -11.4093 1.44133 0
      vertex -5.55584 0.701865 0
      vertex -11.1387 2.85993 0
    endloop
  endfacet
  facet normal 0 0 1
    outer loop
      vertex -5.20675 -2.0615 0
      vertex -10.6924 -4.23343 0
      vertex -10.0775 -5.54017 0
    endloop
  endfacet
  facet normal 0 0 1
    outer loop
      vertex -5.55584 0.701865 0
      vertex -11.4093 1.44133 0
      vertex -5.6 0 0
    endloop
  endfacet
  facet normal 0 0 1
    outer loop
      vertex -5.42407 -1.39266 0
      vertex -11.1387 -2.85993 0
      vertex -10.6924 -4.23343 0
    endloop
  endfacet
  facet normal 0 0 1
    outer loop
      vertex -11.5 0 0
      vertex -5.6 0 0
      vertex -11.4093 1.44133 0
    endloop
  endfacet
  facet normal 0 0 1
    outer loop
      vertex -5.55584 -0.701865 0
      vertex -11.4093 -1.44133 0
      vertex -11.1387 -2.85993 0
    endloop
  endfacet
  facet normal 0 0 1
    outer loop
      vertex -5.6 0 0
      vertex -11.5 0 0
      vertex -11.4093 -1.44133 0
    endloop
  endfacet
  facet normal -0.125331 0.992115 0
    outer loop
      vertex -0.722091 11.4773 -4
      vertex -2.15488 11.2963 0
      vertex -0.722091 11.4773 0
    endloop
  endfacet
  facet normal -0.125331 0.992115 0
    outer loop
      vertex -2.15488 11.2963 0
      vertex -0.722091 11.4773 -4
      vertex -2.15488 11.2963 -4
    endloop
  endfacet
  facet normal 0 0 -1
    outer loop
      vertex 11.4093 -1.44133 -4
      vertex 11.4093 1.44133 -4
      vertex 11.5 0 -4
    endloop
  endfacet
  facet normal 0 0 -1
    outer loop
      vertex 11.1387 -2.85993 -4
      vertex 11.4093 1.44133 -4
      vertex 11.4093 -1.44133 -4
    endloop
  endfacet
  facet normal 0 0 -1
    outer loop
      vertex 11.1387 -2.85993 -4
      vertex 11.1387 2.85993 -4
      vertex 11.4093 1.44133 -4
    endloop
  endfacet
  facet normal 0 0 -1
    outer loop
      vertex 10.6924 -4.23343 -4
      vertex 11.1387 2.85993 -4
      vertex 11.1387 -2.85993 -4
    endloop
  endfacet
  facet normal 0 0 -1
    outer loop
      vertex 10.6924 -4.23343 -4
      vertex 10.6924 4.23343 -4
      vertex 11.1387 2.85993 -4
    endloop
  endfacet
  facet normal 0 0 -1
    outer loop
      vertex 10.0775 -5.54017 -4
      vertex 10.6924 4.23343 -4
      vertex 10.6924 -4.23343 -4
    endloop
  endfacet
  facet normal 0 0 -1
    outer loop
      vertex 10.0775 -5.54017 -4
      vertex 10.0775 5.54017 -4
      vertex 10.6924 4.23343 -4
    endloop
  endfacet
  facet normal 0 0 -1
    outer loop
      vertex 9.30369 -6.75953 -4
      vertex 10.0775 5.54017 -4
      vertex 10.0775 -5.54017 -4
    endloop
  endfacet
  facet normal 0 0 -1
    outer loop
      vertex 9.30369 -6.75953 -4
      vertex 9.30369 6.75953 -4
      vertex 10.0775 5.54017 -4
    endloop
  endfacet
  facet normal 0 0 -1
    outer loop
      vertex 8.38314 -7.87229 -4
      vertex 9.30369 6.75953 -4
      vertex 9.30369 -6.75953 -4
    endloop
  endfacet
  facet normal 0 0 -1
    outer loop
      vertex 8.38314 -7.87229 -4
      vertex 8.38314 7.87229 -4
      vertex 9.30369 6.75953 -4
    endloop
  endfacet
  facet normal 0 0 -1
    outer loop
      vertex 7.33038 -8.8609 -4
      vertex 8.38314 7.87229 -4
      vertex 8.38314 -7.87229 -4
    endloop
  endfacet
  facet normal 0 0 -1
    outer loop
      vertex 7.33038 -8.8609 -4
      vertex 7.33038 8.8609 -4
      vertex 8.38314 7.87229 -4
    endloop
  endfacet
  facet normal 0 0 -1
    outer loop
      vertex 6.16201 -9.70977 -4
      vertex 7.33038 8.8609 -4
      vertex 7.33038 -8.8609 -4
    endloop
  endfacet
  facet normal 0 0 -1
    outer loop
      vertex 6.16201 -9.70977 -4
      vertex 6.16201 9.70977 -4
      vertex 7.33038 8.8609 -4
    endloop
  endfacet
  facet normal 0 0 -1
    outer loop
      vertex 4.89646 -10.4055 -4
      vertex 6.16201 9.70977 -4
      vertex 6.16201 -9.70977 -4
    endloop
  endfacet
  facet normal 0 0 -1
    outer loop
      vertex 4.89646 -10.4055 -4
      vertex 4.89646 10.4055 -4
      vertex 6.16201 9.70977 -4
    endloop
  endfacet
  facet normal 0 0 -1
    outer loop
      vertex 3.55369 -10.9371 -4
      vertex 4.89646 10.4055 -4
      vertex 4.89646 -10.4055 -4
    endloop
  endfacet
  facet normal 0 0 -1
    outer loop
      vertex 3.55369 -10.9371 -4
      vertex 3.55369 10.9371 -4
      vertex 4.89646 10.4055 -4
    endloop
  endfacet
  facet normal 0 0 -1
    outer loop
      vertex 2.15488 -11.2963 -4
      vertex 3.55369 10.9371 -4
      vertex 3.55369 -10.9371 -4
    endloop
  endfacet
  facet normal 0 0 -1
    outer loop
      vertex 2.15488 -11.2963 -4
      vertex 2.15488 11.2963 -4
      vertex 3.55369 10.9371 -4
    endloop
  endfacet
  facet normal 0 0 -1
    outer loop
      vertex 0.722091 -11.4773 -4
      vertex 2.15488 11.2963 -4
      vertex 2.15488 -11.2963 -4
    endloop
  endfacet
  facet normal 0 0 -1
    outer loop
      vertex 0.722091 -11.4773 -4
      vertex 0.722091 11.4773 -4
      vertex 2.15488 11.2963 -4
    endloop
  endfacet
  facet normal 0 0 -1
    outer loop
      vertex -0.722091 -11.4773 -4
      vertex 0.722091 11.4773 -4
      vertex 0.722091 -11.4773 -4
    endloop
  endfacet
  facet normal 0 0 -1
    outer loop
      vertex -0.722091 -11.4773 -4
      vertex -0.722091 11.4773 -4
      vertex 0.722091 11.4773 -4
    endloop
  endfacet
  facet normal 0 0 -1
    outer loop
      vertex -2.15488 -11.2963 -4
      vertex -0.722091 11.4773 -4
      vertex -0.722091 -11.4773 -4
    endloop
  endfacet
  facet normal 0 0 -1
    outer loop
      vertex -2.15488 -11.2963 -4
      vertex -2.15488 11.2963 -4
      vertex -0.722091 11.4773 -4
    endloop
  endfacet
  facet normal 0 0 -1
    outer loop
      vertex -3.55369 -10.9371 -4
      vertex -2.15488 11.2963 -4
      vertex -2.15488 -11.2963 -4
    endloop
  endfacet
  facet normal 0 0 -1
    outer loop
      vertex -3.55369 -10.9371 -4
      vertex -3.55369 10.9371 -4
      vertex -2.15488 11.2963 -4
    endloop
  endfacet
  facet normal 0 0 -1
    outer loop
      vertex -4.89646 -10.4055 -4
      vertex -3.55369 10.9371 -4
      vertex -3.55369 -10.9371 -4
    endloop
  endfacet
  facet normal 0 0 -1
    outer loop
      vertex -4.89646 -10.4055 -4
      vertex -4.89646 10.4055 -4
      vertex -3.55369 10.9371 -4
    endloop
  endfacet
  facet normal 0 0 -1
    outer loop
      vertex -6.16201 -9.70977 -4
      vertex -4.89646 10.4055 -4
      vertex -4.89646 -10.4055 -4
    endloop
  endfacet
  facet normal 0 0 -1
    outer loop
      vertex -6.16201 -9.70977 -4
      vertex -6.16201 9.70977 -4
      vertex -4.89646 10.4055 -4
    endloop
  endfacet
  facet normal 0 0 -1
    outer loop
      vertex -7.33038 -8.8609 -4
      vertex -6.16201 9.70977 -4
      vertex -6.16201 -9.70977 -4
    endloop
  endfacet
  facet normal 0 0 -1
    outer loop
      vertex -7.33038 -8.8609 -4
      vertex -7.33038 8.8609 -4
      vertex -6.16201 9.70977 -4
    endloop
  endfacet
  facet normal 0 0 -1
    outer loop
      vertex -8.38314 -7.87229 -4
      vertex -7.33038 8.8609 -4
      vertex -7.33038 -8.8609 -4
    endloop
  endfacet
  facet normal 0 0 -1
    outer loop
      vertex -8.38314 -7.87229 -4
      vertex -8.38314 7.87229 -4
      vertex -7.33038 8.8609 -4
    endloop
  endfacet
  facet normal 0 0 -1
    outer loop
      vertex -9.30369 -6.75953 -4
      vertex -8.38314 7.87229 -4
      vertex -8.38314 -7.87229 -4
    endloop
  endfacet
  facet normal 0 0 -1
    outer loop
      vertex -9.30369 -6.75953 -4
      vertex -9.30369 6.75953 -4
      vertex -8.38314 7.87229 -4
    endloop
  endfacet
  facet normal 0 0 -1
    outer loop
      vertex -10.0775 -5.54017 -4
      vertex -9.30369 6.75953 -4
      vertex -9.30369 -6.75953 -4
    endloop
  endfacet
  facet normal 0 0 -1
    outer loop
      vertex -10.0775 -5.54017 -4
      vertex -10.0775 5.54017 -4
      vertex -9.30369 6.75953 -4
    endloop
  endfacet
  facet normal 0 0 -1
    outer loop
      vertex -10.6924 -4.23343 -4
      vertex -10.0775 5.54017 -4
      vertex -10.0775 -5.54017 -4
    endloop
  endfacet
  facet normal 0 0 -1
    outer loop
      vertex -10.6924 -4.23343 -4
      vertex -10.6924 4.23343 -4
      vertex -10.0775 5.54017 -4
    endloop
  endfacet
  facet normal 0 0 -1
    outer loop
      vertex -11.1387 -2.85993 -4
      vertex -10.6924 4.23343 -4
      vertex -10.6924 -4.23343 -4
    endloop
  endfacet
  facet normal 0 0 -1
    outer loop
      vertex -11.1387 -2.85993 -4
      vertex -11.1387 2.85993 -4
      vertex -10.6924 4.23343 -4
    endloop
  endfacet
  facet normal 0 0 -1
    outer loop
      vertex -11.4093 -1.44133 -4
      vertex -11.1387 2.85993 -4
      vertex -11.1387 -2.85993 -4
    endloop
  endfacet
  facet normal 0 0 -1
    outer loop
      vertex -11.4093 -1.44133 -4
      vertex -11.4093 1.44133 -4
      vertex -11.1387 2.85993 -4
    endloop
  endfacet
  facet normal 0 -0 -1
    outer loop
      vertex -11.4093 1.44133 -4
      vertex -11.4093 -1.44133 -4
      vertex -11.5 0 -4
    endloop
  endfacet
  facet normal 0.982289 -0.187373 0
    outer loop
      vertex 11.1387 -2.85993 0
      vertex 11.4093 -1.44133 -4
      vertex 11.4093 -1.44133 0
    endloop
  endfacet
  facet normal 0.982289 -0.187373 0
    outer loop
      vertex 11.4093 -1.44133 -4
      vertex 11.1387 -2.85993 0
      vertex 11.1387 -2.85993 -4
    endloop
  endfacet
  facet normal 0.951052 0.309031 0
    outer loop
      vertex 11.1387 2.85993 0
      vertex 10.6924 4.23343 -4
      vertex 10.6924 4.23343 0
    endloop
  endfacet
  facet normal 0.951052 0.309031 0
    outer loop
      vertex 10.6924 4.23343 -4
      vertex 11.1387 2.85993 0
      vertex 11.1387 2.85993 -4
    endloop
  endfacet
  facet normal 0.982289 0.187373 0
    outer loop
      vertex 11.4093 1.44133 0
      vertex 11.1387 2.85993 -4
      vertex 11.1387 2.85993 0
    endloop
  endfacet
  facet normal 0.982289 0.187373 0
    outer loop
      vertex 11.1387 2.85993 -4
      vertex 11.4093 1.44133 0
      vertex 11.4093 1.44133 -4
    endloop
  endfacet
  facet normal 0.770515 0.637422 0
    outer loop
      vertex 9.30369 6.75953 0
      vertex 8.38314 7.87229 -4
      vertex 8.38314 7.87229 0
    endloop
  endfacet
  facet normal 0.770515 0.637422 0
    outer loop
      vertex 8.38314 7.87229 -4
      vertex 9.30369 6.75953 0
      vertex 9.30369 6.75953 -4
    endloop
  endfacet
  facet normal 0.844334 0.535817 0
    outer loop
      vertex 10.0775 5.54017 0
      vertex 9.30369 6.75953 -4
      vertex 9.30369 6.75953 0
    endloop
  endfacet
  facet normal 0.844334 0.535817 0
    outer loop
      vertex 9.30369 6.75953 -4
      vertex 10.0775 5.54017 0
      vertex 10.0775 5.54017 -4
    endloop
  endfacet
  facet normal 0.24872 0.968575 -0
    outer loop
      vertex 3.55369 10.9371 -4
      vertex 2.15488 11.2963 0
      vertex 3.55369 10.9371 0
    endloop
  endfacet
  facet normal 0.24872 0.968575 0
    outer loop
      vertex 2.15488 11.2963 0
      vertex 3.55369 10.9371 -4
      vertex 2.15488 11.2963 -4
    endloop
  endfacet
  facet normal 0.125331 0.992115 -0
    outer loop
      vertex 2.15488 11.2963 -4
      vertex 0.722091 11.4773 0
      vertex 2.15488 11.2963 0
    endloop
  endfacet
  facet normal 0.125331 0.992115 0
    outer loop
      vertex 0.722091 11.4773 0
      vertex 2.15488 11.2963 -4
      vertex 0.722091 11.4773 -4
    endloop
  endfacet
  facet normal 0.587785 0.809017 -0
    outer loop
      vertex 7.33038 8.8609 -4
      vertex 6.16201 9.70977 0
      vertex 7.33038 8.8609 0
    endloop
  endfacet
  facet normal 0.587785 0.809017 0
    outer loop
      vertex 6.16201 9.70977 0
      vertex 7.33038 8.8609 -4
      vertex 6.16201 9.70977 -4
    endloop
  endfacet
  facet normal -0.844334 0.535817 0
    outer loop
      vertex -10.0775 5.54017 -4
      vertex -9.30369 6.75953 0
      vertex -9.30369 6.75953 -4
    endloop
  endfacet
  facet normal -0.844334 0.535817 0
    outer loop
      vertex -9.30369 6.75953 0
      vertex -10.0775 5.54017 -4
      vertex -10.0775 5.54017 0
    endloop
  endfacet
  facet normal -0.951052 0.309031 0
    outer loop
      vertex -11.1387 2.85993 -4
      vertex -10.6924 4.23343 0
      vertex -10.6924 4.23343 -4
    endloop
  endfacet
  facet normal -0.951052 0.309031 0
    outer loop
      vertex -10.6924 4.23343 0
      vertex -11.1387 2.85993 -4
      vertex -11.1387 2.85993 0
    endloop
  endfacet
  facet normal -0.982289 0.187373 0
    outer loop
      vertex -11.4093 1.44133 -4
      vertex -11.1387 2.85993 0
      vertex -11.1387 2.85993 -4
    endloop
  endfacet
  facet normal -0.982289 0.187373 0
    outer loop
      vertex -11.1387 2.85993 0
      vertex -11.4093 1.44133 -4
      vertex -11.4093 1.44133 0
    endloop
  endfacet
  facet normal -0.481747 0.87631 0
    outer loop
      vertex -4.89646 10.4055 -4
      vertex -6.16201 9.70977 0
      vertex -4.89646 10.4055 0
    endloop
  endfacet
  facet normal -0.481747 0.87631 0
    outer loop
      vertex -6.16201 9.70977 0
      vertex -4.89646 10.4055 -4
      vertex -6.16201 9.70977 -4
    endloop
  endfacet
  facet normal -0.587785 0.809017 0
    outer loop
      vertex -6.16201 9.70977 -4
      vertex -7.33038 8.8609 0
      vertex -6.16201 9.70977 0
    endloop
  endfacet
  facet normal -0.587785 0.809017 0
    outer loop
      vertex -7.33038 8.8609 0
      vertex -6.16201 9.70977 -4
      vertex -7.33038 8.8609 -4
    endloop
  endfacet
  facet normal -0.24872 0.968575 0
    outer loop
      vertex -2.15488 11.2963 -4
      vertex -3.55369 10.9371 0
      vertex -2.15488 11.2963 0
    endloop
  endfacet
  facet normal -0.24872 0.968575 0
    outer loop
      vertex -3.55369 10.9371 0
      vertex -2.15488 11.2963 -4
      vertex -3.55369 10.9371 -4
    endloop
  endfacet
  facet normal 0.998026 -0.0628038 0
    outer loop
      vertex 11.4093 -1.44133 0
      vertex 11.5 0 -4
      vertex 11.5 0 0
    endloop
  endfacet
  facet normal 0.998026 -0.0628038 0
    outer loop
      vertex 11.5 0 -4
      vertex 11.4093 -1.44133 0
      vertex 11.4093 -1.44133 -4
    endloop
  endfacet
  facet normal -0.904828 -0.425776 0
    outer loop
      vertex -10.0775 -5.54017 -4
      vertex -10.6924 -4.23343 0
      vertex -10.6924 -4.23343 -4
    endloop
  endfacet
  facet normal -0.904828 -0.425776 0
    outer loop
      vertex -10.6924 -4.23343 0
      vertex -10.0775 -5.54017 -4
      vertex -10.0775 -5.54017 0
    endloop
  endfacet
  facet normal 0.481747 -0.87631 0
    outer loop
      vertex 4.89646 -10.4055 -4
      vertex 6.16201 -9.70977 0
      vertex 4.89646 -10.4055 0
    endloop
  endfacet
  facet normal 0.481747 -0.87631 0
    outer loop
      vertex 6.16201 -9.70977 0
      vertex 4.89646 -10.4055 -4
      vertex 6.16201 -9.70977 -4
    endloop
  endfacet
  facet normal 0.951052 -0.309031 0
    outer loop
      vertex 10.6924 -4.23343 0
      vertex 11.1387 -2.85993 -4
      vertex 11.1387 -2.85993 0
    endloop
  endfacet
  facet normal 0.951052 -0.309031 0
    outer loop
      vertex 11.1387 -2.85993 -4
      vertex 10.6924 -4.23343 0
      vertex 10.6924 -4.23343 -4
    endloop
  endfacet
  facet normal -0.24872 -0.968575 0
    outer loop
      vertex -3.55369 -10.9371 -4
      vertex -2.15488 -11.2963 0
      vertex -3.55369 -10.9371 0
    endloop
  endfacet
  facet normal -0.24872 -0.968575 -0
    outer loop
      vertex -2.15488 -11.2963 0
      vertex -3.55369 -10.9371 -4
      vertex -2.15488 -11.2963 -4
    endloop
  endfacet
  facet normal -0.982289 -0.187373 0
    outer loop
      vertex -11.1387 -2.85993 -4
      vertex -11.4093 -1.44133 0
      vertex -11.4093 -1.44133 -4
    endloop
  endfacet
  facet normal -0.982289 -0.187373 0
    outer loop
      vertex -11.4093 -1.44133 0
      vertex -11.1387 -2.85993 -4
      vertex -11.1387 -2.85993 0
    endloop
  endfacet
  facet normal -0.998026 -0.0628038 0
    outer loop
      vertex -11.4093 -1.44133 -4
      vertex -11.5 0 0
      vertex -11.5 0 -4
    endloop
  endfacet
  facet normal -0.998026 -0.0628038 0
    outer loop
      vertex -11.5 0 0
      vertex -11.4093 -1.44133 -4
      vertex -11.4093 -1.44133 0
    endloop
  endfacet
  facet normal -0.951052 -0.309031 0
    outer loop
      vertex -10.6924 -4.23343 -4
      vertex -11.1387 -2.85993 0
      vertex -11.1387 -2.85993 -4
    endloop
  endfacet
  facet normal -0.951052 -0.309031 0
    outer loop
      vertex -11.1387 -2.85993 0
      vertex -10.6924 -4.23343 -4
      vertex -10.6924 -4.23343 0
    endloop
  endfacet
  facet normal 0.684548 -0.728968 0
    outer loop
      vertex 7.33038 -8.8609 -4
      vertex 8.38314 -7.87229 0
      vertex 7.33038 -8.8609 0
    endloop
  endfacet
  facet normal 0.684548 -0.728968 0
    outer loop
      vertex 8.38314 -7.87229 0
      vertex 7.33038 -8.8609 -4
      vertex 8.38314 -7.87229 -4
    endloop
  endfacet
  facet normal 0.3681 -0.929786 0
    outer loop
      vertex 3.55369 -10.9371 -4
      vertex 4.89646 -10.4055 0
      vertex 3.55369 -10.9371 0
    endloop
  endfacet
  facet normal 0.3681 -0.929786 0
    outer loop
      vertex 4.89646 -10.4055 0
      vertex 3.55369 -10.9371 -4
      vertex 4.89646 -10.4055 -4
    endloop
  endfacet
  facet normal 0.24872 -0.968575 0
    outer loop
      vertex 2.15488 -11.2963 -4
      vertex 3.55369 -10.9371 0
      vertex 2.15488 -11.2963 0
    endloop
  endfacet
  facet normal 0.24872 -0.968575 0
    outer loop
      vertex 3.55369 -10.9371 0
      vertex 2.15488 -11.2963 -4
      vertex 3.55369 -10.9371 -4
    endloop
  endfacet
  facet normal 0.125331 -0.992115 0
    outer loop
      vertex 0.722091 -11.4773 -4
      vertex 2.15488 -11.2963 0
      vertex 0.722091 -11.4773 0
    endloop
  endfacet
  facet normal 0.125331 -0.992115 0
    outer loop
      vertex 2.15488 -11.2963 0
      vertex 0.722091 -11.4773 -4
      vertex 2.15488 -11.2963 -4
    endloop
  endfacet
  facet normal 0.844334 -0.535817 0
    outer loop
      vertex 9.30369 -6.75953 0
      vertex 10.0775 -5.54017 -4
      vertex 10.0775 -5.54017 0
    endloop
  endfacet
  facet normal 0.844334 -0.535817 0
    outer loop
      vertex 10.0775 -5.54017 -4
      vertex 9.30369 -6.75953 0
      vertex 9.30369 -6.75953 -4
    endloop
  endfacet
  facet normal -0.125331 -0.992115 0
    outer loop
      vertex -2.15488 -11.2963 -4
      vertex -0.722091 -11.4773 0
      vertex -2.15488 -11.2963 0
    endloop
  endfacet
  facet normal -0.125331 -0.992115 -0
    outer loop
      vertex -0.722091 -11.4773 0
      vertex -2.15488 -11.2963 -4
      vertex -0.722091 -11.4773 -4
    endloop
  endfacet
  facet normal -0.3681 -0.929786 0
    outer loop
      vertex -4.89646 -10.4055 -4
      vertex -3.55369 -10.9371 0
      vertex -4.89646 -10.4055 0
    endloop
  endfacet
  facet normal -0.3681 -0.929786 -0
    outer loop
      vertex -3.55369 -10.9371 0
      vertex -4.89646 -10.4055 -4
      vertex -3.55369 -10.9371 -4
    endloop
  endfacet
  facet normal -0.770515 -0.637422 0
    outer loop
      vertex -8.38314 -7.87229 -4
      vertex -9.30369 -6.75953 0
      vertex -9.30369 -6.75953 -4
    endloop
  endfacet
  facet normal -0.770515 -0.637422 0
    outer loop
      vertex -9.30369 -6.75953 0
      vertex -8.38314 -7.87229 -4
      vertex -8.38314 -7.87229 0
    endloop
  endfacet
  facet normal -0.684548 -0.728968 0
    outer loop
      vertex -8.38314 -7.87229 -4
      vertex -7.33038 -8.8609 0
      vertex -8.38314 -7.87229 0
    endloop
  endfacet
  facet normal -0.684548 -0.728968 -0
    outer loop
      vertex -7.33038 -8.8609 0
      vertex -8.38314 -7.87229 -4
      vertex -7.33038 -8.8609 -4
    endloop
  endfacet
  facet normal 0.587785 -0.809017 0
    outer loop
      vertex 6.16201 -9.70977 -4
      vertex 7.33038 -8.8609 0
      vertex 6.16201 -9.70977 0
    endloop
  endfacet
  facet normal 0.587785 -0.809017 0
    outer loop
      vertex 7.33038 -8.8609 0
      vertex 6.16201 -9.70977 -4
      vertex 7.33038 -8.8609 -4
    endloop
  endfacet
  facet normal 0.904828 -0.425776 0
    outer loop
      vertex 10.0775 -5.54017 0
      vertex 10.6924 -4.23343 -4
      vertex 10.6924 -4.23343 0
    endloop
  endfacet
  facet normal 0.904828 -0.425776 0
    outer loop
      vertex 10.6924 -4.23343 -4
      vertex 10.0775 -5.54017 0
      vertex 10.0775 -5.54017 -4
    endloop
  endfacet
  facet normal -0.844334 -0.535817 0
    outer loop
      vertex -9.30369 -6.75953 -4
      vertex -10.0775 -5.54017 0
      vertex -10.0775 -5.54017 -4
    endloop
  endfacet
  facet normal -0.844334 -0.535817 0
    outer loop
      vertex -10.0775 -5.54017 0
      vertex -9.30369 -6.75953 -4
      vertex -9.30369 -6.75953 0
    endloop
  endfacet
  facet normal -0.481747 -0.87631 0
    outer loop
      vertex -6.16201 -9.70977 -4
      vertex -4.89646 -10.4055 0
      vertex -6.16201 -9.70977 0
    endloop
  endfacet
  facet normal -0.481747 -0.87631 -0
    outer loop
      vertex -4.89646 -10.4055 0
      vertex -6.16201 -9.70977 -4
      vertex -4.89646 -10.4055 -4
    endloop
  endfacet
  facet normal -0.587785 -0.809017 0
    outer loop
      vertex -7.33038 -8.8609 -4
      vertex -6.16201 -9.70977 0
      vertex -7.33038 -8.8609 0
    endloop
  endfacet
  facet normal -0.587785 -0.809017 -0
    outer loop
      vertex -6.16201 -9.70977 0
      vertex -7.33038 -8.8609 -4
      vertex -6.16201 -9.70977 -4
    endloop
  endfacet
  facet normal 0.951056 -0.309018 0
    outer loop
      vertex -5.42407 1.39266 0
      vertex -5.20675 2.0615 -3
      vertex -5.20675 2.0615 0
    endloop
  endfacet
  facet normal 0.951056 -0.309018 0
    outer loop
      vertex -5.20675 2.0615 -3
      vertex -5.42407 1.39266 0
      vertex -5.42407 1.39266 -3
    endloop
  endfacet
  facet normal -0.844324 -0.535833 0
    outer loop
      vertex 4.90732 2.69782 -3
      vertex 4.53049 3.2916 0
      vertex 4.53049 3.2916 -3
    endloop
  endfacet
  facet normal -0.844324 -0.535833 0
    outer loop
      vertex 4.53049 3.2916 0
      vertex 4.90732 2.69782 -3
      vertex 4.90732 2.69782 0
    endloop
  endfacet
  facet normal -0.36813 -0.929774 0
    outer loop
      vertex 1.73049 5.32592 -3
      vertex 2.38436 5.06703 0
      vertex 1.73049 5.32592 0
    endloop
  endfacet
  facet normal -0.36813 -0.929774 -0
    outer loop
      vertex 2.38436 5.06703 0
      vertex 1.73049 5.32592 -3
      vertex 2.38436 5.06703 -3
    endloop
  endfacet
  facet normal 0.36813 -0.929774 0
    outer loop
      vertex -2.38436 5.06703 -3
      vertex -1.73049 5.32592 0
      vertex -2.38436 5.06703 0
    endloop
  endfacet
  facet normal 0.36813 -0.929774 0
    outer loop
      vertex -1.73049 5.32592 0
      vertex -2.38436 5.06703 -3
      vertex -1.73049 5.32592 -3
    endloop
  endfacet
  facet normal 0.904827 -0.42578 0
    outer loop
      vertex -5.20675 2.0615 0
      vertex -4.90732 2.69782 -3
      vertex -4.90732 2.69782 0
    endloop
  endfacet
  facet normal 0.904827 -0.42578 0
    outer loop
      vertex -4.90732 2.69782 -3
      vertex -5.20675 2.0615 0
      vertex -5.20675 2.0615 -3
    endloop
  endfacet
  facet normal -0.982289 0.187373 0
    outer loop
      vertex 5.42407 -1.39266 -3
      vertex 5.55584 -0.701865 0
      vertex 5.55584 -0.701865 -3
    endloop
  endfacet
  facet normal -0.982289 0.187373 0
    outer loop
      vertex 5.55584 -0.701865 0
      vertex 5.42407 -1.39266 -3
      vertex 5.42407 -1.39266 0
    endloop
  endfacet
  facet normal -0.684547 -0.728969 0
    outer loop
      vertex 3.56957 4.31487 -3
      vertex 4.08222 3.83346 0
      vertex 3.56957 4.31487 0
    endloop
  endfacet
  facet normal -0.684547 -0.728969 -0
    outer loop
      vertex 4.08222 3.83346 0
      vertex 3.56957 4.31487 -3
      vertex 4.08222 3.83346 -3
    endloop
  endfacet
  facet normal 0 -1 0
    outer loop
      vertex -0.351626 5.58895 -3
      vertex 0.351626 5.58895 0
      vertex -0.351626 5.58895 0
    endloop
  endfacet
  facet normal 0 -1 -0
    outer loop
      vertex 0.351626 5.58895 0
      vertex -0.351626 5.58895 -3
      vertex 0.351626 5.58895 -3
    endloop
  endfacet
  facet normal -0.587795 -0.80901 0
    outer loop
      vertex 3.00063 4.72824 -3
      vertex 3.56957 4.31487 0
      vertex 3.00063 4.72824 0
    endloop
  endfacet
  facet normal -0.587795 -0.80901 -0
    outer loop
      vertex 3.56957 4.31487 0
      vertex 3.00063 4.72824 -3
      vertex 3.56957 4.31487 -3
    endloop
  endfacet
  facet normal 0.982289 -0.187373 0
    outer loop
      vertex -5.55584 0.701865 0
      vertex -5.42407 1.39266 -3
      vertex -5.42407 1.39266 0
    endloop
  endfacet
  facet normal 0.982289 -0.187373 0
    outer loop
      vertex -5.42407 1.39266 -3
      vertex -5.55584 0.701865 0
      vertex -5.55584 0.701865 -3
    endloop
  endfacet
  facet normal 0.77051 -0.637428 0
    outer loop
      vertex -4.53049 3.2916 0
      vertex -4.08222 3.83346 -3
      vertex -4.08222 3.83346 0
    endloop
  endfacet
  facet normal 0.77051 -0.637428 0
    outer loop
      vertex -4.08222 3.83346 -3
      vertex -4.53049 3.2916 0
      vertex -4.53049 3.2916 -3
    endloop
  endfacet
  facet normal 0.481746 -0.876311 0
    outer loop
      vertex -3.00063 4.72824 -3
      vertex -2.38436 5.06703 0
      vertex -3.00063 4.72824 0
    endloop
  endfacet
  facet normal 0.481746 -0.876311 0
    outer loop
      vertex -2.38436 5.06703 0
      vertex -3.00063 4.72824 -3
      vertex -2.38436 5.06703 -3
    endloop
  endfacet
  facet normal 0.248687 -0.968584 0
    outer loop
      vertex -1.73049 5.32592 -3
      vertex -1.04933 5.50081 0
      vertex -1.73049 5.32592 0
    endloop
  endfacet
  facet normal 0.248687 -0.968584 0
    outer loop
      vertex -1.04933 5.50081 0
      vertex -1.73049 5.32592 -3
      vertex -1.04933 5.50081 -3
    endloop
  endfacet
  facet normal -0.998027 -0.0627939 0
    outer loop
      vertex 5.6 0 -3
      vertex 5.55584 0.701865 0
      vertex 5.55584 0.701865 -3
    endloop
  endfacet
  facet normal -0.998027 -0.0627939 0
    outer loop
      vertex 5.55584 0.701865 0
      vertex 5.6 0 -3
      vertex 5.6 0 0
    endloop
  endfacet
  facet normal 0.684547 0.728969 -0
    outer loop
      vertex -3.56957 -4.31487 -3
      vertex -4.08222 -3.83346 0
      vertex -3.56957 -4.31487 0
    endloop
  endfacet
  facet normal 0.684547 0.728969 0
    outer loop
      vertex -4.08222 -3.83346 0
      vertex -3.56957 -4.31487 -3
      vertex -4.08222 -3.83346 -3
    endloop
  endfacet
  facet normal -0.481746 0.876311 0
    outer loop
      vertex 3.00063 -4.72824 -3
      vertex 2.38436 -5.06703 0
      vertex 3.00063 -4.72824 0
    endloop
  endfacet
  facet normal -0.481746 0.876311 0
    outer loop
      vertex 2.38436 -5.06703 0
      vertex 3.00063 -4.72824 -3
      vertex 2.38436 -5.06703 -3
    endloop
  endfacet
  facet normal -0.77051 -0.637428 0
    outer loop
      vertex 4.53049 3.2916 -3
      vertex 4.08222 3.83346 0
      vertex 4.08222 3.83346 -3
    endloop
  endfacet
  facet normal -0.77051 -0.637428 0
    outer loop
      vertex 4.08222 3.83346 0
      vertex 4.53049 3.2916 -3
      vertex 4.53049 3.2916 0
    endloop
  endfacet
  facet normal -0.248687 -0.968584 0
    outer loop
      vertex 1.04933 5.50081 -3
      vertex 1.73049 5.32592 0
      vertex 1.04933 5.50081 0
    endloop
  endfacet
  facet normal -0.248687 -0.968584 -0
    outer loop
      vertex 1.73049 5.32592 0
      vertex 1.04933 5.50081 -3
      vertex 1.73049 5.32592 -3
    endloop
  endfacet
  facet normal -0.125333 -0.992115 0
    outer loop
      vertex 0.351626 5.58895 -3
      vertex 1.04933 5.50081 0
      vertex 0.351626 5.58895 0
    endloop
  endfacet
  facet normal -0.125333 -0.992115 -0
    outer loop
      vertex 1.04933 5.50081 0
      vertex 0.351626 5.58895 -3
      vertex 1.04933 5.50081 -3
    endloop
  endfacet
  facet normal -0.481746 -0.876311 0
    outer loop
      vertex 2.38436 5.06703 -3
      vertex 3.00063 4.72824 0
      vertex 2.38436 5.06703 0
    endloop
  endfacet
  facet normal -0.481746 -0.876311 -0
    outer loop
      vertex 3.00063 4.72824 0
      vertex 2.38436 5.06703 -3
      vertex 3.00063 4.72824 -3
    endloop
  endfacet
  facet normal 0.998027 -0.0627939 0
    outer loop
      vertex -5.6 0 0
      vertex -5.55584 0.701865 -3
      vertex -5.55584 0.701865 0
    endloop
  endfacet
  facet normal 0.998027 -0.0627939 0
    outer loop
      vertex -5.55584 0.701865 -3
      vertex -5.6 0 0
      vertex -5.6 0 -3
    endloop
  endfacet
  facet normal 0.844324 -0.535833 0
    outer loop
      vertex -4.90732 2.69782 0
      vertex -4.53049 3.2916 -3
      vertex -4.53049 3.2916 0
    endloop
  endfacet
  facet normal 0.844324 -0.535833 0
    outer loop
      vertex -4.53049 3.2916 -3
      vertex -4.90732 2.69782 0
      vertex -4.90732 2.69782 -3
    endloop
  endfacet
  facet normal 0.125333 -0.992115 0
    outer loop
      vertex -1.04933 5.50081 -3
      vertex -0.351626 5.58895 0
      vertex -1.04933 5.50081 0
    endloop
  endfacet
  facet normal 0.125333 -0.992115 0
    outer loop
      vertex -0.351626 5.58895 0
      vertex -1.04933 5.50081 -3
      vertex -0.351626 5.58895 -3
    endloop
  endfacet
  facet normal 0.587795 -0.80901 0
    outer loop
      vertex -3.56957 4.31487 -3
      vertex -3.00063 4.72824 0
      vertex -3.56957 4.31487 0
    endloop
  endfacet
  facet normal 0.587795 -0.80901 0
    outer loop
      vertex -3.00063 4.72824 0
      vertex -3.56957 4.31487 -3
      vertex -3.00063 4.72824 -3
    endloop
  endfacet
  facet normal 0.684547 -0.728969 0
    outer loop
      vertex -4.08222 3.83346 -3
      vertex -3.56957 4.31487 0
      vertex -4.08222 3.83346 0
    endloop
  endfacet
  facet normal 0.684547 -0.728969 0
    outer loop
      vertex -3.56957 4.31487 0
      vertex -4.08222 3.83346 -3
      vertex -3.56957 4.31487 -3
    endloop
  endfacet
  facet normal 0 1 -0
    outer loop
      vertex 0.351626 -5.58895 -3
      vertex -0.351626 -5.58895 0
      vertex 0.351626 -5.58895 0
    endloop
  endfacet
  facet normal 0 1 0
    outer loop
      vertex -0.351626 -5.58895 0
      vertex 0.351626 -5.58895 -3
      vertex -0.351626 -5.58895 -3
    endloop
  endfacet
  facet normal 0.951056 0.309018 0
    outer loop
      vertex -5.20675 -2.0615 0
      vertex -5.42407 -1.39266 -3
      vertex -5.42407 -1.39266 0
    endloop
  endfacet
  facet normal 0.951056 0.309018 0
    outer loop
      vertex -5.42407 -1.39266 -3
      vertex -5.20675 -2.0615 0
      vertex -5.20675 -2.0615 -3
    endloop
  endfacet
  facet normal 0.77051 0.637428 0
    outer loop
      vertex -4.08222 -3.83346 0
      vertex -4.53049 -3.2916 -3
      vertex -4.53049 -3.2916 0
    endloop
  endfacet
  facet normal 0.77051 0.637428 0
    outer loop
      vertex -4.53049 -3.2916 -3
      vertex -4.08222 -3.83346 0
      vertex -4.08222 -3.83346 -3
    endloop
  endfacet
  facet normal -0.125333 0.992115 0
    outer loop
      vertex 1.04933 -5.50081 -3
      vertex 0.351626 -5.58895 0
      vertex 1.04933 -5.50081 0
    endloop
  endfacet
  facet normal -0.125333 0.992115 0
    outer loop
      vertex 0.351626 -5.58895 0
      vertex 1.04933 -5.50081 -3
      vertex 0.351626 -5.58895 -3
    endloop
  endfacet
  facet normal -0.684547 0.728969 0
    outer loop
      vertex 4.08222 -3.83346 -3
      vertex 3.56957 -4.31487 0
      vertex 4.08222 -3.83346 0
    endloop
  endfacet
  facet normal -0.684547 0.728969 0
    outer loop
      vertex 3.56957 -4.31487 0
      vertex 4.08222 -3.83346 -3
      vertex 3.56957 -4.31487 -3
    endloop
  endfacet
  facet normal -0.904827 -0.42578 0
    outer loop
      vertex 5.20675 2.0615 -3
      vertex 4.90732 2.69782 0
      vertex 4.90732 2.69782 -3
    endloop
  endfacet
  facet normal -0.904827 -0.42578 0
    outer loop
      vertex 4.90732 2.69782 0
      vertex 5.20675 2.0615 -3
      vertex 5.20675 2.0615 0
    endloop
  endfacet
  facet normal -0.951056 -0.309018 0
    outer loop
      vertex 5.42407 1.39266 -3
      vertex 5.20675 2.0615 0
      vertex 5.20675 2.0615 -3
    endloop
  endfacet
  facet normal -0.951056 -0.309018 0
    outer loop
      vertex 5.20675 2.0615 0
      vertex 5.42407 1.39266 -3
      vertex 5.42407 1.39266 0
    endloop
  endfacet
  facet normal -0.982289 -0.187373 0
    outer loop
      vertex 5.55584 0.701865 -3
      vertex 5.42407 1.39266 0
      vertex 5.42407 1.39266 -3
    endloop
  endfacet
  facet normal -0.982289 -0.187373 0
    outer loop
      vertex 5.42407 1.39266 0
      vertex 5.55584 0.701865 -3
      vertex 5.55584 0.701865 0
    endloop
  endfacet
  facet normal -0.998027 0.0627939 0
    outer loop
      vertex 5.55584 -0.701865 -3
      vertex 5.6 0 0
      vertex 5.6 0 -3
    endloop
  endfacet
  facet normal -0.998027 0.0627939 0
    outer loop
      vertex 5.6 0 0
      vertex 5.55584 -0.701865 -3
      vertex 5.55584 -0.701865 0
    endloop
  endfacet
  facet normal -0.904827 0.42578 0
    outer loop
      vertex 4.90732 -2.69782 -3
      vertex 5.20675 -2.0615 0
      vertex 5.20675 -2.0615 -3
    endloop
  endfacet
  facet normal -0.904827 0.42578 0
    outer loop
      vertex 5.20675 -2.0615 0
      vertex 4.90732 -2.69782 -3
      vertex 4.90732 -2.69782 0
    endloop
  endfacet
  facet normal -0.951056 0.309018 0
    outer loop
      vertex 5.20675 -2.0615 -3
      vertex 5.42407 -1.39266 0
      vertex 5.42407 -1.39266 -3
    endloop
  endfacet
  facet normal -0.951056 0.309018 0
    outer loop
      vertex 5.42407 -1.39266 0
      vertex 5.20675 -2.0615 -3
      vertex 5.20675 -2.0615 0
    endloop
  endfacet
  facet normal 0.481746 0.876311 -0
    outer loop
      vertex -2.38436 -5.06703 -3
      vertex -3.00063 -4.72824 0
      vertex -2.38436 -5.06703 0
    endloop
  endfacet
  facet normal 0.481746 0.876311 0
    outer loop
      vertex -3.00063 -4.72824 0
      vertex -2.38436 -5.06703 -3
      vertex -3.00063 -4.72824 -3
    endloop
  endfacet
  facet normal 0.125333 0.992115 -0
    outer loop
      vertex -0.351626 -5.58895 -3
      vertex -1.04933 -5.50081 0
      vertex -0.351626 -5.58895 0
    endloop
  endfacet
  facet normal 0.125333 0.992115 0
    outer loop
      vertex -1.04933 -5.50081 0
      vertex -0.351626 -5.58895 -3
      vertex -1.04933 -5.50081 -3
    endloop
  endfacet
  facet normal 0.248687 0.968584 -0
    outer loop
      vertex -1.04933 -5.50081 -3
      vertex -1.73049 -5.32592 0
      vertex -1.04933 -5.50081 0
    endloop
  endfacet
  facet normal 0.248687 0.968584 0
    outer loop
      vertex -1.73049 -5.32592 0
      vertex -1.04933 -5.50081 -3
      vertex -1.73049 -5.32592 -3
    endloop
  endfacet
  facet normal 0.998027 0.0627939 0
    outer loop
      vertex -5.55584 -0.701865 0
      vertex -5.6 0 -3
      vertex -5.6 0 0
    endloop
  endfacet
  facet normal 0.998027 0.0627939 0
    outer loop
      vertex -5.6 0 -3
      vertex -5.55584 -0.701865 0
      vertex -5.55584 -0.701865 -3
    endloop
  endfacet
  facet normal 0 0 1
    outer loop
      vertex 5.55584 0.701865 -3
      vertex 5.55584 -0.701865 -3
      vertex 5.6 0 -3
    endloop
  endfacet
  facet normal 0 0 1
    outer loop
      vertex 5.42407 1.39266 -3
      vertex 5.55584 -0.701865 -3
      vertex 5.55584 0.701865 -3
    endloop
  endfacet
  facet normal 0 0 1
    outer loop
      vertex 5.42407 1.39266 -3
      vertex 5.42407 -1.39266 -3
      vertex 5.55584 -0.701865 -3
    endloop
  endfacet
  facet normal 0 0 1
    outer loop
      vertex 5.20675 2.0615 -3
      vertex 5.42407 -1.39266 -3
      vertex 5.42407 1.39266 -3
    endloop
  endfacet
  facet normal 0 0 1
    outer loop
      vertex 5.20675 2.0615 -3
      vertex 5.20675 -2.0615 -3
      vertex 5.42407 -1.39266 -3
    endloop
  endfacet
  facet normal 0 0 1
    outer loop
      vertex 4.90732 2.69782 -3
      vertex 5.20675 -2.0615 -3
      vertex 5.20675 2.0615 -3
    endloop
  endfacet
  facet normal 0 0 1
    outer loop
      vertex 4.90732 2.69782 -3
      vertex 4.90732 -2.69782 -3
      vertex 5.20675 -2.0615 -3
    endloop
  endfacet
  facet normal 0 0 1
    outer loop
      vertex 4.53049 3.2916 -3
      vertex 4.90732 -2.69782 -3
      vertex 4.90732 2.69782 -3
    endloop
  endfacet
  facet normal 0 0 1
    outer loop
      vertex 4.53049 3.2916 -3
      vertex 4.53049 -3.2916 -3
      vertex 4.90732 -2.69782 -3
    endloop
  endfacet
  facet normal 0 0 1
    outer loop
      vertex 4.08222 3.83346 -3
      vertex 4.53049 -3.2916 -3
      vertex 4.53049 3.2916 -3
    endloop
  endfacet
  facet normal 0 0 1
    outer loop
      vertex 4.08222 3.83346 -3
      vertex 4.08222 -3.83346 -3
      vertex 4.53049 -3.2916 -3
    endloop
  endfacet
  facet normal 0 0 1
    outer loop
      vertex 3.56957 4.31487 -3
      vertex 4.08222 -3.83346 -3
      vertex 4.08222 3.83346 -3
    endloop
  endfacet
  facet normal 0 0 1
    outer loop
      vertex 3.56957 4.31487 -3
      vertex 3.56957 -4.31487 -3
      vertex 4.08222 -3.83346 -3
    endloop
  endfacet
  facet normal 0 0 1
    outer loop
      vertex 3.00063 4.72824 -3
      vertex 3.56957 -4.31487 -3
      vertex 3.56957 4.31487 -3
    endloop
  endfacet
  facet normal 0 0 1
    outer loop
      vertex 3.00063 4.72824 -3
      vertex 3.00063 -4.72824 -3
      vertex 3.56957 -4.31487 -3
    endloop
  endfacet
  facet normal 0 0 1
    outer loop
      vertex 2.38436 5.06703 -3
      vertex 3.00063 -4.72824 -3
      vertex 3.00063 4.72824 -3
    endloop
  endfacet
  facet normal 0 0 1
    outer loop
      vertex 2.38436 5.06703 -3
      vertex 2.38436 -5.06703 -3
      vertex 3.00063 -4.72824 -3
    endloop
  endfacet
  facet normal 0 0 1
    outer loop
      vertex 1.73049 5.32592 -3
      vertex 2.38436 -5.06703 -3
      vertex 2.38436 5.06703 -3
    endloop
  endfacet
  facet normal 0 0 1
    outer loop
      vertex 1.73049 5.32592 -3
      vertex 1.73049 -5.32592 -3
      vertex 2.38436 -5.06703 -3
    endloop
  endfacet
  facet normal 0 0 1
    outer loop
      vertex 1.04933 5.50081 -3
      vertex 1.73049 -5.32592 -3
      vertex 1.73049 5.32592 -3
    endloop
  endfacet
  facet normal 0 0 1
    outer loop
      vertex 1.04933 5.50081 -3
      vertex 1.04933 -5.50081 -3
      vertex 1.73049 -5.32592 -3
    endloop
  endfacet
  facet normal 0 0 1
    outer loop
      vertex 0.351626 5.58895 -3
      vertex 1.04933 -5.50081 -3
      vertex 1.04933 5.50081 -3
    endloop
  endfacet
  facet normal 0 0 1
    outer loop
      vertex 0.351626 5.58895 -3
      vertex 0.351626 -5.58895 -3
      vertex 1.04933 -5.50081 -3
    endloop
  endfacet
  facet normal -0 0 1
    outer loop
      vertex -0.351626 5.58895 -3
      vertex 0.351626 -5.58895 -3
      vertex 0.351626 5.58895 -3
    endloop
  endfacet
  facet normal 0 0 1
    outer loop
      vertex -0.351626 5.58895 -3
      vertex -0.351626 -5.58895 -3
      vertex 0.351626 -5.58895 -3
    endloop
  endfacet
  facet normal -0 0 1
    outer loop
      vertex -1.04933 5.50081 -3
      vertex -0.351626 -5.58895 -3
      vertex -0.351626 5.58895 -3
    endloop
  endfacet
  facet normal 0 0 1
    outer loop
      vertex -1.04933 5.50081 -3
      vertex -1.04933 -5.50081 -3
      vertex -0.351626 -5.58895 -3
    endloop
  endfacet
  facet normal -0 0 1
    outer loop
      vertex -1.73049 5.32592 -3
      vertex -1.04933 -5.50081 -3
      vertex -1.04933 5.50081 -3
    endloop
  endfacet
  facet normal 0 0 1
    outer loop
      vertex -1.73049 5.32592 -3
      vertex -1.73049 -5.32592 -3
      vertex -1.04933 -5.50081 -3
    endloop
  endfacet
  facet normal -0 0 1
    outer loop
      vertex -2.38436 5.06703 -3
      vertex -1.73049 -5.32592 -3
      vertex -1.73049 5.32592 -3
    endloop
  endfacet
  facet normal 0 0 1
    outer loop
      vertex -2.38436 5.06703 -3
      vertex -2.38436 -5.06703 -3
      vertex -1.73049 -5.32592 -3
    endloop
  endfacet
  facet normal -0 0 1
    outer loop
      vertex -3.00063 4.72824 -3
      vertex -2.38436 -5.06703 -3
      vertex -2.38436 5.06703 -3
    endloop
  endfacet
  facet normal 0 0 1
    outer loop
      vertex -3.00063 4.72824 -3
      vertex -3.00063 -4.72824 -3
      vertex -2.38436 -5.06703 -3
    endloop
  endfacet
  facet normal -0 0 1
    outer loop
      vertex -3.56957 4.31487 -3
      vertex -3.00063 -4.72824 -3
      vertex -3.00063 4.72824 -3
    endloop
  endfacet
  facet normal 0 0 1
    outer loop
      vertex -3.56957 4.31487 -3
      vertex -3.56957 -4.31487 -3
      vertex -3.00063 -4.72824 -3
    endloop
  endfacet
  facet normal -0 0 1
    outer loop
      vertex -4.08222 3.83346 -3
      vertex -3.56957 -4.31487 -3
      vertex -3.56957 4.31487 -3
    endloop
  endfacet
  facet normal 0 0 1
    outer loop
      vertex -4.08222 3.83346 -3
      vertex -4.08222 -3.83346 -3
      vertex -3.56957 -4.31487 -3
    endloop
  endfacet
  facet normal -0 0 1
    outer loop
      vertex -4.53049 3.2916 -3
      vertex -4.08222 -3.83346 -3
      vertex -4.08222 3.83346 -3
    endloop
  endfacet
  facet normal 0 0 1
    outer loop
      vertex -4.53049 3.2916 -3
      vertex -4.53049 -3.2916 -3
      vertex -4.08222 -3.83346 -3
    endloop
  endfacet
  facet normal -0 0 1
    outer loop
      vertex -4.90732 2.69782 -3
      vertex -4.53049 -3.2916 -3
      vertex -4.53049 3.2916 -3
    endloop
  endfacet
  facet normal 0 0 1
    outer loop
      vertex -4.90732 2.69782 -3
      vertex -4.90732 -2.69782 -3
      vertex -4.53049 -3.2916 -3
    endloop
  endfacet
  facet normal -0 0 1
    outer loop
      vertex -5.20675 2.0615 -3
      vertex -4.90732 -2.69782 -3
      vertex -4.90732 2.69782 -3
    endloop
  endfacet
  facet normal 0 0 1
    outer loop
      vertex -5.20675 2.0615 -3
      vertex -5.20675 -2.0615 -3
      vertex -4.90732 -2.69782 -3
    endloop
  endfacet
  facet normal -0 0 1
    outer loop
      vertex -5.42407 1.39266 -3
      vertex -5.20675 -2.0615 -3
      vertex -5.20675 2.0615 -3
    endloop
  endfacet
  facet normal 0 0 1
    outer loop
      vertex -5.42407 1.39266 -3
      vertex -5.42407 -1.39266 -3
      vertex -5.20675 -2.0615 -3
    endloop
  endfacet
  facet normal -0 0 1
    outer loop
      vertex -5.55584 0.701865 -3
      vertex -5.42407 -1.39266 -3
      vertex -5.42407 1.39266 -3
    endloop
  endfacet
  facet normal 0 0 1
    outer loop
      vertex -5.55584 0.701865 -3
      vertex -5.55584 -0.701865 -3
      vertex -5.42407 -1.39266 -3
    endloop
  endfacet
  facet normal 0 -0 1
    outer loop
      vertex -5.55584 -0.701865 -3
      vertex -5.55584 0.701865 -3
      vertex -5.6 0 -3
    endloop
  endfacet
  facet normal -0.36813 0.929774 0
    outer loop
      vertex 2.38436 -5.06703 -3
      vertex 1.73049 -5.32592 0
      vertex 2.38436 -5.06703 0
    endloop
  endfacet
  facet normal -0.36813 0.929774 0
    outer loop
      vertex 1.73049 -5.32592 0
      vertex 2.38436 -5.06703 -3
      vertex 1.73049 -5.32592 -3
    endloop
  endfacet
  facet normal -0.248687 0.968584 0
    outer loop
      vertex 1.73049 -5.32592 -3
      vertex 1.04933 -5.50081 0
      vertex 1.73049 -5.32592 0
    endloop
  endfacet
  facet normal -0.248687 0.968584 0
    outer loop
      vertex 1.04933 -5.50081 0
      vertex 1.73049 -5.32592 -3
      vertex 1.04933 -5.50081 -3
    endloop
  endfacet
  facet normal -0.587795 0.80901 0
    outer loop
      vertex 3.56957 -4.31487 -3
      vertex 3.00063 -4.72824 0
      vertex 3.56957 -4.31487 0
    endloop
  endfacet
  facet normal -0.587795 0.80901 0
    outer loop
      vertex 3.00063 -4.72824 0
      vertex 3.56957 -4.31487 -3
      vertex 3.00063 -4.72824 -3
    endloop
  endfacet
  facet normal -0.844324 0.535833 0
    outer loop
      vertex 4.53049 -3.2916 -3
      vertex 4.90732 -2.69782 0
      vertex 4.90732 -2.69782 -3
    endloop
  endfacet
  facet normal -0.844324 0.535833 0
    outer loop
      vertex 4.90732 -2.69782 0
      vertex 4.53049 -3.2916 -3
      vertex 4.53049 -3.2916 0
    endloop
  endfacet
  facet normal -0.77051 0.637428 0
    outer loop
      vertex 4.08222 -3.83346 -3
      vertex 4.53049 -3.2916 0
      vertex 4.53049 -3.2916 -3
    endloop
  endfacet
  facet normal -0.77051 0.637428 0
    outer loop
      vertex 4.53049 -3.2916 0
      vertex 4.08222 -3.83346 -3
      vertex 4.08222 -3.83346 0
    endloop
  endfacet
  facet normal 0.982289 0.187373 0
    outer loop
      vertex -5.42407 -1.39266 0
      vertex -5.55584 -0.701865 -3
      vertex -5.55584 -0.701865 0
    endloop
  endfacet
  facet normal 0.982289 0.187373 0
    outer loop
      vertex -5.55584 -0.701865 -3
      vertex -5.42407 -1.39266 0
      vertex -5.42407 -1.39266 -3
    endloop
  endfacet
  facet normal 0.844324 0.535833 0
    outer loop
      vertex -4.53049 -3.2916 0
      vertex -4.90732 -2.69782 -3
      vertex -4.90732 -2.69782 0
    endloop
  endfacet
  facet normal 0.844324 0.535833 0
    outer loop
      vertex -4.90732 -2.69782 -3
      vertex -4.53049 -3.2916 0
      vertex -4.53049 -3.2916 -3
    endloop
  endfacet
  facet normal 0.904827 0.42578 0
    outer loop
      vertex -4.90732 -2.69782 0
      vertex -5.20675 -2.0615 -3
      vertex -5.20675 -2.0615 0
    endloop
  endfacet
  facet normal 0.904827 0.42578 0
    outer loop
      vertex -5.20675 -2.0615 -3
      vertex -4.90732 -2.69782 0
      vertex -4.90732 -2.69782 -3
    endloop
  endfacet
  facet normal 0.587795 0.80901 -0
    outer loop
      vertex -3.00063 -4.72824 -3
      vertex -3.56957 -4.31487 0
      vertex -3.00063 -4.72824 0
    endloop
  endfacet
  facet normal 0.587795 0.80901 0
    outer loop
      vertex -3.56957 -4.31487 0
      vertex -3.00063 -4.72824 -3
      vertex -3.56957 -4.31487 -3
    endloop
  endfacet
  facet normal 0.36813 0.929774 -0
    outer loop
      vertex -1.73049 -5.32592 -3
      vertex -2.38436 -5.06703 0
      vertex -1.73049 -5.32592 0
    endloop
  endfacet
  facet normal 0.36813 0.929774 0
    outer loop
      vertex -2.38436 -5.06703 0
      vertex -1.73049 -5.32592 -3
      vertex -2.38436 -5.06703 -3
    endloop
  endfacet
endsolid OpenSCAD_Model
